<?xml version="1.0" encoding="UTF-8" standalone="no"?>
<!DOCTYPE svg PUBLIC "-//W3C//DTD SVG 1.1//EN"
 "http://www.w3.org/Graphics/SVG/1.1/DTD/svg11.dtd">
<!-- Generated by graphviz version 14.1.2 (0)
 -->
<!-- Title: is_numeric Pages: 1 -->
<svg width="263pt" height="146pt"
 viewBox="0.00 0.00 263.00 146.00" xmlns="http://www.w3.org/2000/svg" xmlns:xlink="http://www.w3.org/1999/xlink">

<svg id="main" version="1.1" xmlns="http://www.w3.org/2000/svg" xmlns:xlink="http://www.w3.org/1999/xlink" xml:space="preserve">

<style type="text/css"><![CDATA[
.node, .edge {opacity: 0.7;}
.node.selected, .edge.selected {opacity: 1;}
.edge:hover path { stroke: red; }
.edge:hover polygon { stroke: red; fill: red; }
]]></style>
<script type="application/ecmascript" xlink:href="../../svg.min.js"/>
<svg id="graph" class="graph">
<g id="graph0" class="graph" transform="scale(1 1) rotate(0) translate(4 141.75)">
<title>is_numeric</title>
<!-- Node1 -->
<g id="Node000001" class="node">
<title>Node1</title>
<g id="a_Node000001"><a xlink:title=" ">
<polygon fill="#999999" stroke="#666666" points="255,-78.75 185.75,-78.75 185.75,-58 255,-58 255,-78.75"/>
<text xml:space="preserve" text-anchor="middle" x="220.38" y="-65.25" font-family="Helvetica,sans-Serif" font-size="10.00">is_numeric</text>
</a>
</g>
</g>
<!-- Node2 -->
<g id="Node000002" class="node">
<title>Node2</title>
<g id="a_Node000002"><a xlink:href="../../d3/dd5/a00215.html#a85540e1e56863020c05a2310d704f98d" target="_top" xlink:title=" ">
<polygon fill="white" stroke="#666666" points="141.5,-137.75 85,-137.75 85,-117 141.5,-117 141.5,-137.75"/>
<text xml:space="preserve" text-anchor="middle" x="113.25" y="-124.25" font-family="Helvetica,sans-Serif" font-size="10.00">accept_i</text>
</a>
</g>
</g>
<!-- Node1&#45;&gt;Node2 -->
<g id="edge1_Node000001_Node000002" class="edge">
<title>Node1&#45;&gt;Node2</title>
<g id="a_edge1_Node000001_Node000002"><a xlink:title=" ">
<path fill="none" stroke="#63b8ff" d="M190.3,-84.69C172.16,-94.88 149.3,-107.7 133.41,-116.62"/>
<polygon fill="#63b8ff" stroke="#63b8ff" points="191.77,-87.88 198.77,-79.94 188.34,-81.78 191.77,-87.88"/>
</a>
</g>
</g>
<!-- Node4 -->
<g id="Node000004" class="node">
<title>Node4</title>
<g id="a_Node000004"><a xlink:href="../../d3/dd5/a00215.html#a1c55350d7b96f1e0cfef3f9effdc06aa" target="_top" xlink:title=" ">
<polygon fill="white" stroke="#666666" points="143,-98.75 83.5,-98.75 83.5,-78 143,-78 143,-98.75"/>
<text xml:space="preserve" text-anchor="middle" x="113.25" y="-85.25" font-family="Helvetica,sans-Serif" font-size="10.00">accept_n</text>
</a>
</g>
</g>
<!-- Node1&#45;&gt;Node4 -->
<g id="edge3_Node000001_Node000004" class="edge">
<title>Node1&#45;&gt;Node4</title>
<g id="a_edge3_Node000001_Node000004"><a xlink:title=" ">
<path fill="none" stroke="#63b8ff" d="M174.4,-76.93C163.92,-78.93 153.02,-81 143.43,-82.82"/>
<polygon fill="#63b8ff" stroke="#63b8ff" points="174.88,-80.4 184.05,-75.1 173.57,-73.53 174.88,-80.4"/>
</a>
</g>
</g>
<!-- Node5 -->
<g id="Node000005" class="node">
<title>Node5</title>
<g id="a_Node000005"><a xlink:href="../../d3/dd5/a00215.html#a3c03abf25cc705693ee3c074ccfc6cb5" target="_top" xlink:title=" ">
<polygon fill="white" stroke="#666666" points="149.75,-59.75 76.75,-59.75 76.75,-39 149.75,-39 149.75,-59.75"/>
<text xml:space="preserve" text-anchor="middle" x="113.25" y="-46.25" font-family="Helvetica,sans-Serif" font-size="10.00">accept_pmt</text>
</a>
</g>
</g>
<!-- Node1&#45;&gt;Node5 -->
<g id="edge5_Node000001_Node000005" class="edge">
<title>Node1&#45;&gt;Node5</title>
<g id="a_edge5_Node000001_Node000005"><a xlink:title=" ">
<path fill="none" stroke="#63b8ff" d="M174.37,-60.24C166.29,-58.78 157.98,-57.28 150.2,-55.87"/>
<polygon fill="#63b8ff" stroke="#63b8ff" points="173.58,-63.66 184.04,-61.99 174.83,-56.77 173.58,-63.66"/>
</a>
</g>
</g>
<!-- Node6 -->
<g id="Node000006" class="node">
<title>Node6</title>
<g id="a_Node000006"><a xlink:href="../../d3/dd5/a00215.html#a487515b67e372105a75db08e8c522492" target="_top" xlink:title=" ">
<polygon fill="white" stroke="#666666" points="146,-20.75 80.5,-20.75 80.5,0 146,0 146,-20.75"/>
<text xml:space="preserve" text-anchor="middle" x="113.25" y="-7.25" font-family="Helvetica,sans-Serif" font-size="10.00">accept_pv</text>
</a>
</g>
</g>
<!-- Node1&#45;&gt;Node6 -->
<g id="edge7_Node000001_Node000006" class="edge">
<title>Node1&#45;&gt;Node6</title>
<g id="a_edge7_Node000001_Node000006"><a xlink:title=" ">
<path fill="none" stroke="#63b8ff" d="M190.12,-52.23C172.14,-42.31 149.59,-29.87 133.77,-21.14"/>
<polygon fill="#63b8ff" stroke="#63b8ff" points="188.32,-55.24 198.77,-57.01 191.7,-49.11 188.32,-55.24"/>
</a>
</g>
</g>
<!-- Node3 -->
<g id="Node000003" class="node">
<title>Node3</title>
<g id="a_Node000003"><a xlink:href="../../d3/dd5/a00215.html#a3c04138a5bfe5d72780bb7e82a18e627" target="_top" xlink:title="iloan is a trivial application to demonstrate how a command&#45;line program can be integrated into C&#45;Men...">
<polygon fill="white" stroke="#666666" points="40.75,-78.75 0,-78.75 0,-58 40.75,-58 40.75,-78.75"/>
<text xml:space="preserve" text-anchor="middle" x="20.38" y="-65.25" font-family="Helvetica,sans-Serif" font-size="10.00">main</text>
</a>
</g>
</g>
<!-- Node2&#45;&gt;Node3 -->
<g id="edge2_Node000002_Node000003" class="edge">
<title>Node2&#45;&gt;Node3</title>
<g id="a_edge2_Node000002_Node000003"><a xlink:title=" ">
<path fill="none" stroke="#63b8ff" d="M82.44,-110.87C80.5,-109.71 78.59,-108.54 76.75,-107.38 62.43,-98.33 46.7,-87.12 35.68,-79.05"/>
<polygon fill="#63b8ff" stroke="#63b8ff" points="80.43,-113.75 90.83,-115.75 83.94,-107.7 80.43,-113.75"/>
</a>
</g>
</g>
<!-- Node4&#45;&gt;Node3 -->
<g id="edge4_Node000004_Node000003" class="edge">
<title>Node4&#45;&gt;Node3</title>
<g id="a_edge4_Node000004_Node000003"><a xlink:title=" ">
<path fill="none" stroke="#63b8ff" d="M72.28,-79.58C61.52,-77.21 50.34,-74.75 41.21,-72.74"/>
<polygon fill="#63b8ff" stroke="#63b8ff" points="71.25,-82.94 81.77,-81.67 72.75,-76.1 71.25,-82.94"/>
</a>
</g>
</g>
<!-- Node5&#45;&gt;Node3 -->
<g id="edge6_Node000005_Node000003" class="edge">
<title>Node5&#45;&gt;Node3</title>
<g id="a_edge6_Node000005_Node000003"><a xlink:title=" ">
<path fill="none" stroke="#63b8ff" d="M65.2,-59.21C56.69,-60.99 48.25,-62.76 41.09,-64.25"/>
<polygon fill="#63b8ff" stroke="#63b8ff" points="65.78,-62.67 74.85,-57.19 64.35,-55.81 65.78,-62.67"/>
</a>
</g>
</g>
<!-- Node6&#45;&gt;Node3 -->
<g id="edge8_Node000006_Node000003" class="edge">
<title>Node6&#45;&gt;Node3</title>
<g id="a_edge8_Node000006_Node000003"><a xlink:title=" ">
<path fill="none" stroke="#63b8ff" d="M82.59,-26.82C80.6,-28.01 78.64,-29.2 76.75,-30.38 62.7,-39.13 47.2,-49.87 36.18,-57.69"/>
<polygon fill="#63b8ff" stroke="#63b8ff" points="84.32,-29.87 91.23,-21.83 80.82,-23.81 84.32,-29.87"/>
</a>
</g>
</g>
</g>
</svg>
</svg>

<style type='text/css'>
<![CDATA[
[data-mouse-over-selected='false'] { opacity: 0.7; }
[data-mouse-over-selected='true']  { opacity: 1.0; }
]]>
</style>
<script type="application/ecmascript"><![CDATA[
document.addEventListener('DOMContentLoaded', (event) => {
  highlightEdges();
  highlightAdjacentNodes();
});
]]></script>
</svg>
