<?xml version="1.0" encoding="UTF-8" standalone="no"?>
<!DOCTYPE svg PUBLIC "-//W3C//DTD SVG 1.1//EN"
 "http://www.w3.org/Graphics/SVG/1.1/DTD/svg11.dtd">
<!-- Generated by graphviz version 14.1.2 (0)
 -->
<!-- Title: accept_pmt Pages: 1 -->
<svg width="234pt" height="107pt"
 viewBox="0.00 0.00 234.00 107.00" xmlns="http://www.w3.org/2000/svg" xmlns:xlink="http://www.w3.org/1999/xlink">
<g id="graph0" class="graph" transform="scale(1 1) rotate(0) translate(4 102.75)">
<title>accept_pmt</title>
<!-- Node1 -->
<g id="Node000001" class="node">
<title>Node1</title>
<g id="a_Node000001"><a xlink:title=" ">
<polygon fill="#999999" stroke="#666666" points="73,-59.75 0,-59.75 0,-39 73,-39 73,-59.75"/>
<text xml:space="preserve" text-anchor="middle" x="36.5" y="-46.25" font-family="Helvetica,sans-Serif" font-size="10.00">accept_pmt</text>
</a>
</g>
</g>
<!-- Node2 -->
<g id="Node000002" class="node">
<title>Node2</title>
<g id="a_Node000002"><a xlink:href="../../d3/dd5/a00215.html#a7800e5ade94fe5dce9d4092ddb9a10da" target="_top" xlink:title=" ">
<polygon fill="white" stroke="#666666" points="200.38,-98.75 134.12,-98.75 134.12,-78 200.38,-78 200.38,-98.75"/>
<text xml:space="preserve" text-anchor="middle" x="167.25" y="-85.25" font-family="Helvetica,sans-Serif" font-size="10.00">accept_str</text>
</a>
</g>
</g>
<!-- Node1&#45;&gt;Node2 -->
<g id="edge1_Node000001_Node000002" class="edge">
<title>Node1&#45;&gt;Node2</title>
<g id="a_edge1_Node000001_Node000002"><a xlink:title=" ">
<path fill="none" stroke="#63b8ff" d="M73.36,-60.24C88.72,-64.89 106.79,-70.36 122.89,-75.24"/>
<polygon fill="#63b8ff" stroke="#63b8ff" points="121.63,-78.51 132.21,-78.06 123.66,-71.82 121.63,-78.51"/>
</a>
</g>
</g>
<!-- Node3 -->
<g id="Node000003" class="node">
<title>Node3</title>
<g id="a_Node000003"><a xlink:href="../../d3/dd5/a00215.html#ab4561d0b4e00154d5a4af0aca0af2df7" target="_top" xlink:title=" ">
<polygon fill="white" stroke="#666666" points="225.5,-59.75 109,-59.75 109,-39 225.5,-39 225.5,-59.75"/>
<text xml:space="preserve" text-anchor="middle" x="167.25" y="-46.25" font-family="Helvetica,sans-Serif" font-size="10.00">error_press_any_key</text>
</a>
</g>
</g>
<!-- Node1&#45;&gt;Node3 -->
<g id="edge2_Node000001_Node000003" class="edge">
<title>Node1&#45;&gt;Node3</title>
<g id="a_edge2_Node000001_Node000003"><a xlink:title=" ">
<path fill="none" stroke="#63b8ff" d="M73.36,-49.38C80.93,-49.38 89.17,-49.38 97.49,-49.38"/>
<polygon fill="#63b8ff" stroke="#63b8ff" points="97.35,-52.88 107.35,-49.38 97.35,-45.88 97.35,-52.88"/>
</a>
</g>
</g>
<!-- Node4 -->
<g id="Node000004" class="node">
<title>Node4</title>
<g id="a_Node000004"><a xlink:href="../../d3/dd5/a00215.html#ac2aed50ae3ec0cf7176c57f7d96f6df0" target="_top" xlink:title=" ">
<polygon fill="white" stroke="#666666" points="201.88,-20.75 132.62,-20.75 132.62,0 201.88,0 201.88,-20.75"/>
<text xml:space="preserve" text-anchor="middle" x="167.25" y="-7.25" font-family="Helvetica,sans-Serif" font-size="10.00">is_numeric</text>
</a>
</g>
</g>
<!-- Node1&#45;&gt;Node4 -->
<g id="edge3_Node000001_Node000004" class="edge">
<title>Node1&#45;&gt;Node4</title>
<g id="a_edge3_Node000001_Node000004"><a xlink:title=" ">
<path fill="none" stroke="#63b8ff" d="M73.36,-38.51C88.36,-33.97 105.94,-28.65 121.74,-23.86"/>
<polygon fill="#63b8ff" stroke="#63b8ff" points="122.34,-27.33 130.9,-21.08 120.32,-20.63 122.34,-27.33"/>
</a>
</g>
</g>
</g>
</svg>
