<?xml version="1.0" encoding="UTF-8" standalone="no"?>
<!DOCTYPE svg PUBLIC "-//W3C//DTD SVG 1.1//EN"
 "http://www.w3.org/Graphics/SVG/1.1/DTD/svg11.dtd">
<!-- Generated by graphviz version 14.1.2 (0)
 -->
<!-- Title: new_form Pages: 1 -->
<svg width="1727pt" height="274pt"
 viewBox="0.00 0.00 1727.00 274.00" xmlns="http://www.w3.org/2000/svg" xmlns:xlink="http://www.w3.org/1999/xlink">
<g id="graph0" class="graph" transform="scale(1 1) rotate(0) translate(4 270)">
<title>new_form</title>
<!-- Node1 -->
<g id="Node000001" class="node">
<title>Node1</title>
<g id="a_Node000001"><a xlink:title="Create and initialize Form structure.">
<polygon fill="#999999" stroke="#666666" points="1719,-67.38 1654.25,-67.38 1654.25,-46.62 1719,-46.62 1719,-67.38"/>
<text xml:space="preserve" text-anchor="middle" x="1686.62" y="-53.88" font-family="Helvetica,sans-Serif" font-size="10.00">new_form</text>
</a>
</g>
</g>
<!-- Node2 -->
<g id="Node000002" class="node">
<title>Node2</title>
<g id="a_Node000002"><a xlink:href="../../dc/d64/a01140.html#gabf1be20a8aad5f7ba09172ac1434a110" target="_top" xlink:title="Initialize form data structure and parse description file.">
<polygon fill="white" stroke="#666666" points="1618.25,-48.38 1558,-48.38 1558,-27.62 1618.25,-27.62 1618.25,-48.38"/>
<text xml:space="preserve" text-anchor="middle" x="1588.12" y="-34.88" font-family="Helvetica,sans-Serif" font-size="10.00">init_form</text>
</a>
</g>
</g>
<!-- Node1&#45;&gt;Node2 -->
<g id="edge1_Node000001_Node000002" class="edge">
<title>Node1&#45;&gt;Node2</title>
<g id="a_edge1_Node000001_Node000002"><a xlink:title=" ">
<path fill="none" stroke="#63b8ff" d="M1642.57,-48.52C1634.49,-46.93 1626.22,-45.3 1618.67,-43.82"/>
<polygon fill="#63b8ff" stroke="#63b8ff" points="1641.79,-51.94 1652.27,-50.43 1643.14,-45.07 1641.79,-51.94"/>
</a>
</g>
</g>
<!-- Node4 -->
<g id="Node000004" class="node">
<title>Node4</title>
<g id="a_Node000004"><a xlink:href="../../de/d9e/a01061.html#a13f8b084e552c96d7d15383a8474d954" target="_top" xlink:title="instantiate a form popup window">
<polygon fill="white" stroke="#666666" points="1522,-105.38 1447.5,-105.38 1447.5,-84.62 1522,-84.62 1522,-105.38"/>
<text xml:space="preserve" text-anchor="middle" x="1484.75" y="-91.88" font-family="Helvetica,sans-Serif" font-size="10.00">popup_form</text>
</a>
</g>
</g>
<!-- Node1&#45;&gt;Node4 -->
<g id="edge28_Node000001_Node000004" class="edge">
<title>Node1&#45;&gt;Node4</title>
<g id="a_edge28_Node000001_Node000004"><a xlink:title=" ">
<path fill="none" stroke="#63b8ff" d="M1642.87,-65.13C1607.02,-71.94 1556.37,-81.57 1522.36,-88.04"/>
<polygon fill="#63b8ff" stroke="#63b8ff" points="1643.3,-68.61 1652.47,-63.3 1641.99,-61.73 1643.3,-68.61"/>
</a>
</g>
</g>
<!-- Node3 -->
<g id="Node000003" class="node">
<title>Node3</title>
<g id="a_Node000003"><a xlink:href="../../dd/df1/a01082.html#a3c04138a5bfe5d72780bb7e82a18e627" target="_top" xlink:title=" ">
<polygon fill="white" stroke="#666666" points="59.87,-113.38 19.12,-113.38 19.12,-92.62 59.87,-92.62 59.87,-113.38"/>
<text xml:space="preserve" text-anchor="middle" x="39.5" y="-99.88" font-family="Helvetica,sans-Serif" font-size="10.00">main</text>
</a>
</g>
</g>
<!-- Node2&#45;&gt;Node3 -->
<g id="edge2_Node000002_Node000003" class="edge">
<title>Node2&#45;&gt;Node3</title>
<g id="a_edge2_Node000002_Node000003"><a xlink:title=" ">
<path fill="none" stroke="#63b8ff" d="M1546.5,-26.68C1502.67,-15.48 1430.64,0 1367.38,0 1367.38,0 1367.38,0 293.25,0 196.35,0 92.98,-65.73 55.31,-92.17"/>
<polygon fill="#63b8ff" stroke="#63b8ff" points="1545.52,-30.04 1556.08,-29.18 1547.29,-23.27 1545.52,-30.04"/>
</a>
</g>
</g>
<!-- Node2&#45;&gt;Node4 -->
<g id="edge3_Node000002_Node000004" class="edge">
<title>Node2&#45;&gt;Node4</title>
<g id="a_edge3_Node000002_Node000004"><a xlink:title=" ">
<path fill="none" stroke="#63b8ff" d="M1558.07,-54.33C1541.07,-63.9 1520.06,-75.71 1505.08,-84.13"/>
<polygon fill="#63b8ff" stroke="#63b8ff" points="1559.74,-57.42 1566.74,-49.46 1556.31,-51.31 1559.74,-57.42"/>
</a>
</g>
</g>
<!-- Node5 -->
<g id="Node000005" class="node">
<title>Node5</title>
<g id="a_Node000005"><a xlink:href="../../d9/d97/a01152.html#ga2ffea5674e85f124a70e19f745a66583" target="_top" xlink:title="use form to enter a file specification">
<polygon fill="white" stroke="#666666" points="1411.5,-129.38 1321.25,-129.38 1321.25,-108.62 1411.5,-108.62 1411.5,-129.38"/>
<text xml:space="preserve" text-anchor="middle" x="1366.38" y="-115.88" font-family="Helvetica,sans-Serif" font-size="10.00">enter_file_spec</text>
</a>
</g>
</g>
<!-- Node4&#45;&gt;Node5 -->
<g id="edge4_Node000004_Node000005" class="edge">
<title>Node4&#45;&gt;Node5</title>
<g id="a_edge4_Node000004_Node000005"><a xlink:title=" ">
<path fill="none" stroke="#63b8ff" d="M1436.17,-104.81C1428.15,-106.47 1419.86,-108.18 1411.93,-109.81"/>
<polygon fill="#63b8ff" stroke="#63b8ff" points="1436.68,-108.28 1445.77,-102.83 1435.26,-101.43 1436.68,-108.28"/>
</a>
</g>
</g>
<!-- Node14 -->
<g id="Node000014" class="node">
<title>Node14</title>
<g id="a_Node000014"><a xlink:href="../../d8/ddb/a01147.html#gaa5d0e30e7036b72b51c843d0a7e486a1" target="_top" xlink:title="Processes user input for the menu system.">
<polygon fill="white" stroke="#666666" points="355.5,-199.38 233,-199.38 233,-178.62 355.5,-178.62 355.5,-199.38"/>
<text xml:space="preserve" text-anchor="middle" x="294.25" y="-185.88" font-family="Helvetica,sans-Serif" font-size="10.00">menu_cmd_processor</text>
</a>
</g>
</g>
<!-- Node4&#45;&gt;Node14 -->
<g id="edge27_Node000004_Node000014" class="edge">
<title>Node4&#45;&gt;Node14</title>
<g id="a_edge27_Node000004_Node000014"><a xlink:title=" ">
<path fill="none" stroke="#63b8ff" d="M1468.85,-114.51C1432.72,-159.36 1335.45,-266 1227.25,-266 1227.25,-266 1227.25,-266 526.62,-266 443.86,-266 352.57,-221.09 314.04,-199.87"/>
<polygon fill="#63b8ff" stroke="#63b8ff" points="1471.41,-116.91 1474.85,-106.89 1465.91,-112.57 1471.41,-116.91"/>
</a>
</g>
</g>
<!-- Node6 -->
<g id="Node000006" class="node">
<title>Node6</title>
<g id="a_Node000006"><a xlink:href="../../d9/d97/a01152.html#ga9c4b3ba5f73c18b486646c62b933972a" target="_top" xlink:title="Main Command Processing Loop for View.">
<polygon fill="white" stroke="#666666" points="1285.25,-138.38 1167.25,-138.38 1167.25,-117.62 1285.25,-117.62 1285.25,-138.38"/>
<text xml:space="preserve" text-anchor="middle" x="1226.25" y="-124.88" font-family="Helvetica,sans-Serif" font-size="10.00">view_cmd_processor</text>
</a>
</g>
</g>
<!-- Node5&#45;&gt;Node6 -->
<g id="edge5_Node000005_Node000006" class="edge">
<title>Node5&#45;&gt;Node6</title>
<g id="a_edge5_Node000005_Node000006"><a xlink:title=" ">
<path fill="none" stroke="#63b8ff" d="M1309.62,-122.63C1301.76,-123.15 1293.66,-123.67 1285.75,-124.19"/>
<polygon fill="#63b8ff" stroke="#63b8ff" points="1309.65,-126.14 1319.4,-122 1309.19,-119.15 1309.65,-126.14"/>
</a>
</g>
</g>
<!-- Node7 -->
<g id="Node000007" class="node">
<title>Node7</title>
<g id="a_Node000007"><a xlink:href="../../d9/d97/a01152.html#ga0bd4dc056ab5010547129bb87819789b" target="_top" xlink:title="Start view.">
<polygon fill="white" stroke="#666666" points="1131.25,-138.38 1071,-138.38 1071,-117.62 1131.25,-117.62 1131.25,-138.38"/>
<text xml:space="preserve" text-anchor="middle" x="1101.12" y="-124.88" font-family="Helvetica,sans-Serif" font-size="10.00">view_file</text>
</a>
</g>
</g>
<!-- Node6&#45;&gt;Node7 -->
<g id="edge6_Node000006_Node000007" class="edge">
<title>Node6&#45;&gt;Node7</title>
<g id="a_edge6_Node000006_Node000007"><a xlink:title=" ">
<path fill="none" stroke="#63b8ff" d="M1155.69,-128C1147.19,-128 1138.89,-128 1131.47,-128"/>
<polygon fill="#63b8ff" stroke="#63b8ff" points="1155.42,-131.5 1165.42,-128 1155.42,-124.5 1155.42,-131.5"/>
</a>
</g>
</g>
<!-- Node7&#45;&gt;Node3 -->
<g id="edge7_Node000007_Node000003" class="edge">
<title>Node7&#45;&gt;Node3</title>
<g id="a_edge7_Node000007_Node000003"><a xlink:title=" ">
<path fill="none" stroke="#63b8ff" d="M1059.62,-118.53C1051.5,-116.85 1043,-115.24 1035,-114 856.52,-86.31 811.11,-75 630.5,-75 630.5,-75 630.5,-75 293.25,-75 205.84,-75 102.44,-91.75 60.08,-99.34"/>
<polygon fill="#63b8ff" stroke="#63b8ff" points="1058.77,-121.93 1069.28,-120.61 1060.24,-115.09 1058.77,-121.93"/>
</a>
</g>
</g>
<!-- Node8 -->
<g id="Node000008" class="node">
<title>Node8</title>
<g id="a_Node000008"><a xlink:href="../../de/d9e/a01061.html#af54153eccf65174a2a2c9a4e551395cc" target="_top" xlink:title="instantiate a view popup window">
<polygon fill="white" stroke="#666666" points="1035,-143.38 960.5,-143.38 960.5,-122.62 1035,-122.62 1035,-143.38"/>
<text xml:space="preserve" text-anchor="middle" x="997.75" y="-129.88" font-family="Helvetica,sans-Serif" font-size="10.00">popup_view</text>
</a>
</g>
</g>
<!-- Node7&#45;&gt;Node8 -->
<g id="edge8_Node000007_Node000008" class="edge">
<title>Node7&#45;&gt;Node8</title>
<g id="a_edge8_Node000007_Node000008"><a xlink:title=" ">
<path fill="none" stroke="#63b8ff" d="M1059.29,-130.01C1051.39,-130.4 1043.16,-130.81 1035.4,-131.19"/>
<polygon fill="#63b8ff" stroke="#63b8ff" points="1059.2,-133.52 1069.02,-129.53 1058.86,-126.53 1059.2,-133.52"/>
</a>
</g>
</g>
<!-- Node9 -->
<g id="Node000009" class="node">
<title>Node9</title>
<g id="a_Node000009"><a xlink:href="../../d8/d02/a01149.html#gaeebc4c0b94ca97d753e10a0cd1798730" target="_top" xlink:title="Displays the help screen for the pick interface using view.">
<polygon fill="white" stroke="#666666" points="923,-162.38 820,-162.38 820,-141.62 923,-141.62 923,-162.38"/>
<text xml:space="preserve" text-anchor="middle" x="871.5" y="-148.88" font-family="Helvetica,sans-Serif" font-size="10.00">display_pick_help</text>
</a>
</g>
</g>
<!-- Node8&#45;&gt;Node9 -->
<g id="edge9_Node000008_Node000009" class="edge">
<title>Node8&#45;&gt;Node9</title>
<g id="a_edge9_Node000008_Node000009"><a xlink:title=" ">
<path fill="none" stroke="#63b8ff" d="M948.91,-140.32C940.46,-141.61 931.64,-142.96 923.12,-144.26"/>
<polygon fill="#63b8ff" stroke="#63b8ff" points="949.29,-143.8 958.65,-138.83 948.23,-136.88 949.29,-143.8"/>
</a>
</g>
</g>
<!-- Node8&#45;&gt;Node14 -->
<g id="edge24_Node000008_Node000014" class="edge">
<title>Node8&#45;&gt;Node14</title>
<g id="a_edge24_Node000008_Node000014"><a xlink:title=" ">
<path fill="none" stroke="#63b8ff" d="M971.13,-149.54C957.76,-157.36 940.82,-166.05 924.5,-171 847.15,-194.46 824.46,-190 743.62,-190 743.62,-190 743.62,-190 526.62,-190 468.58,-190 402.34,-189.68 355.66,-189.4"/>
<polygon fill="#63b8ff" stroke="#63b8ff" points="972.56,-152.76 979.3,-144.58 968.93,-146.78 972.56,-152.76"/>
</a>
</g>
</g>
<!-- Node17 -->
<g id="Node000017" class="node">
<title>Node17</title>
<g id="a_Node000017"><a xlink:href="../../d8/d02/a01149.html#gaf7fcbb1c8b67a4d11c86ba7209f397c2" target="_top" xlink:title="Executes specified command with selected objects as arguments.">
<polygon fill="white" stroke="#666666" points="782.5,-123.38 702.75,-123.38 702.75,-102.62 782.5,-102.62 782.5,-123.38"/>
<text xml:space="preserve" text-anchor="middle" x="742.62" y="-109.88" font-family="Helvetica,sans-Serif" font-size="10.00">exec_objects</text>
</a>
</g>
</g>
<!-- Node8&#45;&gt;Node17 -->
<g id="edge20_Node000008_Node000017" class="edge">
<title>Node8&#45;&gt;Node17</title>
<g id="a_edge20_Node000008_Node000017"><a xlink:title=" ">
<path fill="none" stroke="#63b8ff" d="M948.85,-129.22C900.69,-125.41 827.37,-119.62 782.65,-116.08"/>
<polygon fill="#63b8ff" stroke="#63b8ff" points="948.46,-132.7 958.7,-129.99 949.01,-125.72 948.46,-132.7"/>
</a>
</g>
</g>
<!-- Node18 -->
<g id="Node000018" class="node">
<title>Node18</title>
<g id="a_Node000018"><a xlink:href="../../dc/d64/a01140.html#gada302551bf41bf8ed6132fd34328a47e" target="_top" xlink:title="Form main processing loop.">
<polygon fill="white" stroke="#666666" points="910.25,-48.38 832.75,-48.38 832.75,-27.62 910.25,-27.62 910.25,-48.38"/>
<text xml:space="preserve" text-anchor="middle" x="871.5" y="-34.88" font-family="Helvetica,sans-Serif" font-size="10.00">form_engine</text>
</a>
</g>
</g>
<!-- Node8&#45;&gt;Node18 -->
<g id="edge22_Node000008_Node000018" class="edge">
<title>Node8&#45;&gt;Node18</title>
<g id="a_edge22_Node000008_Node000018"><a xlink:title=" ">
<path fill="none" stroke="#63b8ff" d="M974.03,-115.63C948.56,-96.15 908.05,-65.18 886.72,-48.87"/>
<polygon fill="#63b8ff" stroke="#63b8ff" points="971.71,-118.26 981.78,-121.55 975.96,-112.7 971.71,-118.26"/>
</a>
</g>
</g>
<!-- Node19 -->
<g id="Node000019" class="node">
<title>Node19</title>
<g id="a_Node000019"><a xlink:href="../../d5/d16/a01154.html#gad997ba9f8591568c77291fb1b44601b2" target="_top" xlink:title="Display View Help File.">
<polygon fill="white" stroke="#666666" points="924.5,-238.38 818.5,-238.38 818.5,-217.62 924.5,-217.62 924.5,-238.38"/>
<text xml:space="preserve" text-anchor="middle" x="871.5" y="-224.88" font-family="Helvetica,sans-Serif" font-size="10.00">view_display_help</text>
</a>
</g>
</g>
<!-- Node8&#45;&gt;Node19 -->
<g id="edge25_Node000008_Node000019" class="edge">
<title>Node8&#45;&gt;Node19</title>
<g id="a_edge25_Node000008_Node000019"><a xlink:title=" ">
<path fill="none" stroke="#63b8ff" d="M980.68,-152.1C966.94,-167.56 946.03,-189.13 924.5,-204 917.14,-209.09 908.52,-213.56 900.45,-217.23"/>
<polygon fill="#63b8ff" stroke="#63b8ff" points="982.98,-154.79 986.9,-144.94 977.69,-150.2 982.98,-154.79"/>
</a>
</g>
</g>
<!-- Node10 -->
<g id="Node000010" class="node">
<title>Node10</title>
<g id="a_Node000010"><a xlink:href="../../d8/d02/a01149.html#ga0dae7df97392da1a79cba0f852c11f5f" target="_top" xlink:title="Main loop for handling user input and interactions in the pick interface.">
<polygon fill="white" stroke="#666666" points="765.25,-162.38 720,-162.38 720,-141.62 765.25,-141.62 765.25,-162.38"/>
<text xml:space="preserve" text-anchor="middle" x="742.62" y="-148.88" font-family="Helvetica,sans-Serif" font-size="10.00">picker</text>
</a>
</g>
</g>
<!-- Node9&#45;&gt;Node10 -->
<g id="edge10_Node000009_Node000010" class="edge">
<title>Node9&#45;&gt;Node10</title>
<g id="a_edge10_Node000009_Node000010"><a xlink:title=" ">
<path fill="none" stroke="#63b8ff" d="M808.52,-152C793.16,-152 777.69,-152 765.71,-152"/>
<polygon fill="#63b8ff" stroke="#63b8ff" points="808.11,-155.5 818.11,-152 808.11,-148.5 808.11,-155.5"/>
</a>
</g>
</g>
<!-- Node11 -->
<g id="Node000011" class="node">
<title>Node11</title>
<g id="a_Node000011"><a xlink:href="../../d8/d02/a01149.html#gab97dcab41017c5132f52b682437a151e" target="_top" xlink:title="Initializes pick interface, calculates window size and position, and enters picker loop.">
<polygon fill="white" stroke="#666666" points="666.75,-142.38 592.25,-142.38 592.25,-121.62 666.75,-121.62 666.75,-142.38"/>
<text xml:space="preserve" text-anchor="middle" x="629.5" y="-128.88" font-family="Helvetica,sans-Serif" font-size="10.00">pick_engine</text>
</a>
</g>
</g>
<!-- Node10&#45;&gt;Node11 -->
<g id="edge11_Node000010_Node000011" class="edge">
<title>Node10&#45;&gt;Node11</title>
<g id="a_edge11_Node000010_Node000011"><a xlink:title=" ">
<path fill="none" stroke="#63b8ff" d="M708.72,-146.08C695.55,-143.71 680.34,-140.97 666.85,-138.54"/>
<polygon fill="#63b8ff" stroke="#63b8ff" points="707.72,-149.45 718.18,-147.78 708.96,-142.56 707.72,-149.45"/>
</a>
</g>
</g>
<!-- Node12 -->
<g id="Node000012" class="node">
<title>Node12</title>
<g id="a_Node000012"><a xlink:href="../../d8/d02/a01149.html#ga1b2ee87543245e612c1710ea58930a17" target="_top" xlink:title="Initializes pick structure and opens pick input file or pipe.">
<polygon fill="white" stroke="#666666" points="556.25,-142.38 499,-142.38 499,-121.62 556.25,-121.62 556.25,-142.38"/>
<text xml:space="preserve" text-anchor="middle" x="527.62" y="-128.88" font-family="Helvetica,sans-Serif" font-size="10.00">init_pick</text>
</a>
</g>
</g>
<!-- Node11&#45;&gt;Node12 -->
<g id="edge12_Node000011_Node000012" class="edge">
<title>Node11&#45;&gt;Node12</title>
<g id="a_edge12_Node000011_Node000012"><a xlink:title=" ">
<path fill="none" stroke="#63b8ff" d="M580.41,-132C572.21,-132 563.93,-132 556.48,-132"/>
<polygon fill="#63b8ff" stroke="#63b8ff" points="580.36,-135.5 590.36,-132 580.36,-128.5 580.36,-135.5"/>
</a>
</g>
</g>
<!-- Node12&#45;&gt;Node3 -->
<g id="edge13_Node000012_Node000003" class="edge">
<title>Node12&#45;&gt;Node3</title>
<g id="a_edge13_Node000012_Node000003"><a xlink:title=" ">
<path fill="none" stroke="#63b8ff" d="M487.53,-129.67C388.96,-123.79 133.01,-108.52 60.13,-104.17"/>
<polygon fill="#63b8ff" stroke="#63b8ff" points="487.04,-133.14 497.23,-130.25 487.46,-126.16 487.04,-133.14"/>
</a>
</g>
</g>
<!-- Node13 -->
<g id="Node000013" class="node">
<title>Node13</title>
<g id="a_Node000013"><a xlink:href="../../de/d9e/a01061.html#abed833a4802d8e3274c2e3991ddac66c" target="_top" xlink:title="instantiate a pick popup window">
<polygon fill="white" stroke="#666666" points="463,-162.38 391.5,-162.38 391.5,-141.62 463,-141.62 463,-162.38"/>
<text xml:space="preserve" text-anchor="middle" x="427.25" y="-148.88" font-family="Helvetica,sans-Serif" font-size="10.00">popup_pick</text>
</a>
</g>
</g>
<!-- Node12&#45;&gt;Node13 -->
<g id="edge14_Node000012_Node000013" class="edge">
<title>Node12&#45;&gt;Node13</title>
<g id="a_edge14_Node000012_Node000013"><a xlink:title=" ">
<path fill="none" stroke="#63b8ff" d="M487.66,-139.92C479.61,-141.56 471.17,-143.27 463.27,-144.88"/>
<polygon fill="#63b8ff" stroke="#63b8ff" points="488.11,-143.4 497.21,-137.98 486.72,-136.54 488.11,-143.4"/>
</a>
</g>
</g>
<!-- Node13&#45;&gt;Node14 -->
<g id="edge15_Node000013_Node000014" class="edge">
<title>Node13&#45;&gt;Node14</title>
<g id="a_edge15_Node000013_Node000014"><a xlink:title=" ">
<path fill="none" stroke="#63b8ff" d="M380.37,-164.96C365.12,-169.27 348.31,-174.01 333.68,-178.15"/>
<polygon fill="#63b8ff" stroke="#63b8ff" points="381.02,-168.41 389.69,-162.33 379.11,-161.68 381.02,-168.41"/>
</a>
</g>
</g>
<!-- Node15 -->
<g id="Node000015" class="node">
<title>Node15</title>
<g id="a_Node000015"><a xlink:href="../../d8/ddb/a01147.html#ga7d7973d7aac92759dcc86ec52bb038f4" target="_top" xlink:title="The main loop of the menu system.">
<polygon fill="white" stroke="#666666" points="197,-161.38 115,-161.38 115,-140.62 197,-140.62 197,-161.38"/>
<text xml:space="preserve" text-anchor="middle" x="156" y="-147.88" font-family="Helvetica,sans-Serif" font-size="10.00">menu_engine</text>
</a>
</g>
</g>
<!-- Node14&#45;&gt;Node15 -->
<g id="edge16_Node000014_Node000015" class="edge">
<title>Node14&#45;&gt;Node15</title>
<g id="a_edge16_Node000014_Node000015"><a xlink:title=" ">
<path fill="none" stroke="#63b8ff" d="M243.89,-175.23C228.05,-170.82 210.74,-165.99 195.78,-161.81"/>
<polygon fill="#63b8ff" stroke="#63b8ff" points="242.54,-178.49 253.11,-177.81 244.42,-171.75 242.54,-178.49"/>
</a>
</g>
</g>
<!-- Node15&#45;&gt;Node3 -->
<g id="edge17_Node000015_Node000003" class="edge">
<title>Node15&#45;&gt;Node3</title>
<g id="a_edge17_Node000015_Node000003"><a xlink:title=" ">
<path fill="none" stroke="#63b8ff" d="M118.94,-135.88C99.46,-127.72 76.17,-117.95 60.06,-111.2"/>
<polygon fill="#63b8ff" stroke="#63b8ff" points="117.33,-139 127.91,-139.64 120.04,-132.55 117.33,-139"/>
</a>
</g>
</g>
<!-- Node16 -->
<g id="Node000016" class="node">
<title>Node16</title>
<g id="a_Node000016"><a xlink:href="../../de/d9e/a01061.html#a6b007a96a02f8503343c038608ddf369" target="_top" xlink:title="instantiate a menu popup window">
<polygon fill="white" stroke="#666666" points="79,-170.38 0,-170.38 0,-149.62 79,-149.62 79,-170.38"/>
<text xml:space="preserve" text-anchor="middle" x="39.5" y="-156.88" font-family="Helvetica,sans-Serif" font-size="10.00">popup_menu</text>
</a>
</g>
</g>
<!-- Node15&#45;&gt;Node16 -->
<g id="edge18_Node000015_Node000016" class="edge">
<title>Node15&#45;&gt;Node16</title>
<g id="a_edge18_Node000015_Node000016"><a xlink:title=" ">
<path fill="none" stroke="#63b8ff" d="M103.38,-155.06C95.31,-155.69 87.08,-156.34 79.35,-156.95"/>
<polygon fill="#63b8ff" stroke="#63b8ff" points="103.43,-158.56 113.12,-154.29 102.88,-151.59 103.43,-158.56"/>
</a>
</g>
</g>
<!-- Node16&#45;&gt;Node14 -->
<g id="edge19_Node000016_Node000014" class="edge">
<title>Node16&#45;&gt;Node14</title>
<g id="a_edge19_Node000016_Node000014"><a xlink:title=" ">
<path fill="none" stroke="#63b8ff" d="M90.5,-166.9C98.68,-167.98 107.07,-169.05 115,-170 154.09,-174.71 198.07,-179.4 232.56,-182.95"/>
<polygon fill="#63b8ff" stroke="#63b8ff" points="91.02,-163.44 80.64,-165.59 90.09,-170.38 91.02,-163.44"/>
</a>
</g>
</g>
<!-- Node17&#45;&gt;Node11 -->
<g id="edge21_Node000017_Node000011" class="edge">
<title>Node17&#45;&gt;Node11</title>
<g id="a_edge21_Node000017_Node000011"><a xlink:title=" ">
<path fill="none" stroke="#63b8ff" d="M691.15,-121.63C683.05,-123.02 674.79,-124.43 667.09,-125.74"/>
<polygon fill="#63b8ff" stroke="#63b8ff" points="691.69,-125.09 700.95,-119.95 690.51,-118.19 691.69,-125.09"/>
</a>
</g>
</g>
<!-- Node18&#45;&gt;Node2 -->
<g id="edge23_Node000018_Node000002" class="edge">
<title>Node18&#45;&gt;Node2</title>
<g id="a_edge23_Node000018_Node000002"><a xlink:title=" ">
<path fill="none" stroke="#63b8ff" d="M921.82,-38C967.92,-38 1038.69,-38 1100.12,-38 1367.38,-38 1367.38,-38 1367.38,-38 1435.47,-38 1515.45,-38 1557.62,-38"/>
<polygon fill="#63b8ff" stroke="#63b8ff" points="921.87,-34.5 911.87,-38 921.87,-41.5 921.87,-34.5"/>
</a>
</g>
</g>
<!-- Node19&#45;&gt;Node6 -->
<g id="edge26_Node000019_Node000006" class="edge">
<title>Node19&#45;&gt;Node6</title>
<g id="a_edge26_Node000019_Node000006"><a xlink:title=" ">
<path fill="none" stroke="#63b8ff" d="M921.58,-214.09C992.67,-193.93 1122.82,-157.04 1187.16,-138.8"/>
<polygon fill="#63b8ff" stroke="#63b8ff" points="920.82,-210.67 912.15,-216.76 922.73,-217.4 920.82,-210.67"/>
</a>
</g>
</g>
</g>
</svg>
