<?xml version="1.0" encoding="UTF-8" standalone="no"?>
<!DOCTYPE svg PUBLIC "-//W3C//DTD SVG 1.1//EN"
 "http://www.w3.org/Graphics/SVG/1.1/DTD/svg11.dtd">
<!-- Generated by graphviz version 14.1.2 (0)
 -->
<!-- Title: lf.c Pages: 1 -->
<!--zoomable 142 -->

<svg id="main" version="1.1" xmlns="http://www.w3.org/2000/svg" xmlns:xlink="http://www.w3.org/1999/xlink" xml:space="preserve" onload="init(evt)">

<style type="text/css"><![CDATA[
.node, .edge {opacity: 0.7;}
.node.selected, .edge.selected {opacity: 1;}
.edge:hover path { stroke: red; }
.edge:hover polygon { stroke: red; fill: red; }
]]></style>

<defs>
  <circle id="rim" cx="0" cy="0" r="7"/>
  <circle id="rim2" cx="0" cy="0" r="3.5"/>
  <g id="zoomPlus">
    <use xlink:href="#rim" fill="#404040"><set attributeName="fill" to="#808080" begin="zoomplus.mouseover" end="zoomplus.mouseout"/></use>
    <path d="M-4,0h8M0,-4v8" fill="none" stroke="white" stroke-width="1.5" pointer-events="none"/>
  </g>
  <g id="zoomMin">
    <use xlink:href="#rim" fill="#404040"><set attributeName="fill" to="#808080" begin="zoomminus.mouseover" end="zoomminus.mouseout"/></use>
    <path d="M-4,0h8" fill="none" stroke="white" stroke-width="1.5" pointer-events="none"/>
  </g>
  <g id="arrowUp" transform="translate(30 24)">
    <use xlink:href="#rim"/>
    <path pointer-events="none" fill="none" stroke="white" stroke-width="1.5" d="M0,-3.0v7 M-2.5,-0.5L0,-3.0L2.5,-0.5"/>
  </g>
  <g id="arrowRight" transform="rotate(90) translate(36 -43)">
    <use xlink:href="#rim"/>
    <path pointer-events="none" fill="none" stroke="white" stroke-width="1.5" d="M0,-3.0v7 M-2.5,-0.5L0,-3.0L2.5,-0.5"/>
  </g>
  <g id="arrowDown" transform="rotate(180) translate(-30 -48)">
    <use xlink:href="#rim"/>
    <path pointer-events="none" fill="none" stroke="white" stroke-width="1.5" d="M0,-3.0v7 M-2.5,-0.5L0,-3.0L2.5,-0.5"/>
  </g>
  <g id="arrowLeft" transform="rotate(270) translate(-36 17)">
    <use xlink:href="#rim"/>
    <path pointer-events="none" fill="none" stroke="white" stroke-width="1.5" d="M0,-3.0v7 M-2.5,-0.5L0,-3.0L2.5,-0.5"/>
  </g>
  <g id="resetDef">
    <use xlink:href="#rim2" fill="#404040"><set attributeName="fill" to="#808080" begin="reset.mouseover" end="reset.mouseout"/></use>
  </g>
</defs>
<script type="application/ecmascript">
var viewWidth = 1086;
var viewHeight = 142;
var sectionId = 'dynsection-0';
</script>
<script type="application/ecmascript" xlink:href="../../svg.min.js"/>
<svg id="graph" class="graph">
<g id="viewport">
<title>lf.c</title>
<!-- Node1 -->
<g id="Node000001" class="node">
<title>Node1</title>
<g id="a_Node000001"><a xlink:title="list files matching a regular expression">
<polygon fill="#999999" stroke="#666666" points="643.62,-134.25 613.38,-134.25 613.38,-113.5 643.62,-113.5 643.62,-134.25"/>
<text xml:space="preserve" text-anchor="middle" x="628.5" y="-120.75" font-family="Helvetica,sans-Serif" font-size="10.00">lf.c</text>
</a>
</g>
</g>
<!-- Node2 -->
<g id="Node000002" class="node">
<title>Node2</title>
<g id="a_Node000002"><a xlink:href="../../d8/d23/a00326.html" target="_top" xlink:title="Headder for C&#45;Menu API library, libcm.so.">
<polygon fill="white" stroke="#666666" points="291.5,-77.5 251.5,-77.5 251.5,-56.75 291.5,-56.75 291.5,-77.5"/>
<text xml:space="preserve" text-anchor="middle" x="271.5" y="-64" font-family="Helvetica,sans-Serif" font-size="10.00">cm.h</text>
</a>
</g>
</g>
<!-- Node1&#45;&gt;Node2 -->
<g id="edge1_Node000001_Node000002" class="edge">
<title>Node1&#45;&gt;Node2</title>
<g id="a_edge1_Node000001_Node000002"><a xlink:title=" ">
<path fill="none" stroke="#63b8ff" d="M613.16,-120.52C559.18,-112.24 377.26,-84.34 303.23,-72.99"/>
<polygon fill="#63b8ff" stroke="#63b8ff" points="303.82,-69.54 293.41,-71.48 302.76,-76.46 303.82,-69.54"/>
</a>
</g>
</g>
<!-- Node7 -->
<g id="Node000007" class="node">
<title>Node7</title>
<g id="a_Node000007"><a xlink:title=" ">
<polygon fill="#e0e0e0" stroke="#999999" points="406.5,-20.75 354.5,-20.75 354.5,0 406.5,0 406.5,-20.75"/>
<text xml:space="preserve" text-anchor="middle" x="380.5" y="-7.25" font-family="Helvetica,sans-Serif" font-size="10.00">stdlib.h</text>
</a>
</g>
</g>
<!-- Node1&#45;&gt;Node7 -->
<g id="edge14_Node000001_Node000007" class="edge">
<title>Node1&#45;&gt;Node7</title>
<g id="a_edge14_Node000001_Node000007"><a xlink:title=" ">
<path fill="none" stroke="#63b8ff" d="M613.07,-122.66C562.04,-121.58 400.2,-115.21 368.5,-77.5 357.73,-64.69 362.8,-45.48 369.33,-31.05"/>
<polygon fill="#63b8ff" stroke="#63b8ff" points="372.27,-33 373.69,-22.5 366.04,-29.82 372.27,-33"/>
</a>
</g>
</g>
<!-- Node8 -->
<g id="Node000008" class="node">
<title>Node8</title>
<g id="a_Node000008"><a xlink:title=" ">
<polygon fill="#e0e0e0" stroke="#999999" points="431.25,-77.5 377.75,-77.5 377.75,-56.75 431.25,-56.75 431.25,-77.5"/>
<text xml:space="preserve" text-anchor="middle" x="404.5" y="-64" font-family="Helvetica,sans-Serif" font-size="10.00">dirent.h</text>
</a>
</g>
</g>
<!-- Node1&#45;&gt;Node8 -->
<g id="edge7_Node000001_Node000008" class="edge">
<title>Node1&#45;&gt;Node8</title>
<g id="a_edge7_Node000001_Node000008"><a xlink:title=" ">
<path fill="none" stroke="#63b8ff" d="M612.88,-119.2C582.26,-111.99 511.97,-95.32 442.71,-78.02"/>
<polygon fill="#63b8ff" stroke="#63b8ff" points="443.63,-74.64 433.08,-75.61 441.93,-81.43 443.63,-74.64"/>
</a>
</g>
</g>
<!-- Node9 -->
<g id="Node000009" class="node">
<title>Node9</title>
<g id="a_Node000009"><a xlink:title=" ">
<polygon fill="#e0e0e0" stroke="#999999" points="495.88,-77.5 449.12,-77.5 449.12,-56.75 495.88,-56.75 495.88,-77.5"/>
<text xml:space="preserve" text-anchor="middle" x="472.5" y="-64" font-family="Helvetica,sans-Serif" font-size="10.00">fcntl.h</text>
</a>
</g>
</g>
<!-- Node1&#45;&gt;Node9 -->
<g id="edge8_Node000001_Node000009" class="edge">
<title>Node1&#45;&gt;Node9</title>
<g id="a_edge8_Node000001_Node000009"><a xlink:title=" ">
<path fill="none" stroke="#63b8ff" d="M612.97,-117.43C588.39,-108.8 539.92,-91.79 506.87,-80.19"/>
<polygon fill="#63b8ff" stroke="#63b8ff" points="508.33,-76.99 497.74,-76.98 506.01,-83.6 508.33,-76.99"/>
</a>
</g>
</g>
<!-- Node10 -->
<g id="Node000010" class="node">
<title>Node10</title>
<g id="a_Node000010"><a xlink:title=" ">
<polygon fill="#e0e0e0" stroke="#999999" points="554.88,-77.5 514.12,-77.5 514.12,-56.75 554.88,-56.75 554.88,-77.5"/>
<text xml:space="preserve" text-anchor="middle" x="534.5" y="-64" font-family="Helvetica,sans-Serif" font-size="10.00">grp.h</text>
</a>
</g>
</g>
<!-- Node1&#45;&gt;Node10 -->
<g id="edge9_Node000001_Node000010" class="edge">
<title>Node1&#45;&gt;Node10</title>
<g id="a_edge9_Node000001_Node000010"><a xlink:title=" ">
<path fill="none" stroke="#63b8ff" d="M612.98,-113.83C598.9,-105.63 577.85,-93.37 561.09,-83.61"/>
<polygon fill="#63b8ff" stroke="#63b8ff" points="563.03,-80.69 552.62,-78.68 559.5,-86.74 563.03,-80.69"/>
</a>
</g>
</g>
<!-- Node11 -->
<g id="Node000011" class="node">
<title>Node11</title>
<g id="a_Node000011"><a xlink:title=" ">
<polygon fill="#e0e0e0" stroke="#999999" points="618.12,-77.5 572.88,-77.5 572.88,-56.75 618.12,-56.75 618.12,-77.5"/>
<text xml:space="preserve" text-anchor="middle" x="595.5" y="-64" font-family="Helvetica,sans-Serif" font-size="10.00">pwd.h</text>
</a>
</g>
</g>
<!-- Node1&#45;&gt;Node11 -->
<g id="edge10_Node000001_Node000011" class="edge">
<title>Node1&#45;&gt;Node11</title>
<g id="a_edge10_Node000001_Node000011"><a xlink:title=" ">
<path fill="none" stroke="#63b8ff" d="M622.6,-113.09C618.33,-106 612.42,-96.19 607.2,-87.54"/>
<polygon fill="#63b8ff" stroke="#63b8ff" points="610.29,-85.88 602.13,-79.12 604.29,-89.5 610.29,-85.88"/>
</a>
</g>
</g>
<!-- Node12 -->
<g id="Node000012" class="node">
<title>Node12</title>
<g id="a_Node000012"><a xlink:title=" ">
<polygon fill="#e0e0e0" stroke="#999999" points="688.88,-77.5 636.12,-77.5 636.12,-56.75 688.88,-56.75 688.88,-77.5"/>
<text xml:space="preserve" text-anchor="middle" x="662.5" y="-64" font-family="Helvetica,sans-Serif" font-size="10.00">regex.h</text>
</a>
</g>
</g>
<!-- Node1&#45;&gt;Node12 -->
<g id="edge11_Node000001_Node000012" class="edge">
<title>Node1&#45;&gt;Node12</title>
<g id="a_edge11_Node000001_Node000012"><a xlink:title=" ">
<path fill="none" stroke="#63b8ff" d="M634.58,-113.09C638.98,-106 645.07,-96.19 650.44,-87.54"/>
<polygon fill="#63b8ff" stroke="#63b8ff" points="653.37,-89.46 655.68,-79.11 647.43,-85.76 653.37,-89.46"/>
</a>
</g>
</g>
<!-- Node13 -->
<g id="Node000013" class="node">
<title>Node13</title>
<g id="a_Node000013"><a xlink:title=" ">
<polygon fill="#e0e0e0" stroke="#999999" points="768,-77.5 707,-77.5 707,-56.75 768,-56.75 768,-77.5"/>
<text xml:space="preserve" text-anchor="middle" x="737.5" y="-64" font-family="Helvetica,sans-Serif" font-size="10.00">stdbool.h</text>
</a>
</g>
</g>
<!-- Node1&#45;&gt;Node13 -->
<g id="edge12_Node000001_Node000013" class="edge">
<title>Node1&#45;&gt;Node13</title>
<g id="a_edge12_Node000001_Node000013"><a xlink:title=" ">
<path fill="none" stroke="#63b8ff" d="M644.12,-115.03C660.66,-106.72 687.17,-93.4 707.73,-83.08"/>
<polygon fill="#63b8ff" stroke="#63b8ff" points="709.14,-86.29 716.5,-78.67 705.99,-80.03 709.14,-86.29"/>
</a>
</g>
</g>
<!-- Node14 -->
<g id="Node000014" class="node">
<title>Node14</title>
<g id="a_Node000014"><a xlink:title=" ">
<polygon fill="#e0e0e0" stroke="#999999" points="835,-77.5 786,-77.5 786,-56.75 835,-56.75 835,-77.5"/>
<text xml:space="preserve" text-anchor="middle" x="810.5" y="-64" font-family="Helvetica,sans-Serif" font-size="10.00">stdio.h</text>
</a>
</g>
</g>
<!-- Node1&#45;&gt;Node14 -->
<g id="edge13_Node000001_Node000014" class="edge">
<title>Node1&#45;&gt;Node14</title>
<g id="a_edge13_Node000001_Node000014"><a xlink:title=" ">
<path fill="none" stroke="#63b8ff" d="M644.02,-118.21C672.79,-109.55 735.1,-90.81 774.8,-78.86"/>
<polygon fill="#63b8ff" stroke="#63b8ff" points="775.58,-82.29 784.15,-76.05 773.56,-75.58 775.58,-82.29"/>
</a>
</g>
</g>
<!-- Node15 -->
<g id="Node000015" class="node">
<title>Node15</title>
<g id="a_Node000015"><a xlink:title=" ">
<polygon fill="#e0e0e0" stroke="#999999" points="916.12,-77.5 852.88,-77.5 852.88,-56.75 916.12,-56.75 916.12,-77.5"/>
<text xml:space="preserve" text-anchor="middle" x="884.5" y="-64" font-family="Helvetica,sans-Serif" font-size="10.00">sys/stat.h</text>
</a>
</g>
</g>
<!-- Node1&#45;&gt;Node15 -->
<g id="edge15_Node000001_Node000015" class="edge">
<title>Node1&#45;&gt;Node15</title>
<g id="a_edge15_Node000001_Node000015"><a xlink:title=" ">
<path fill="none" stroke="#63b8ff" d="M643.98,-119.75C677.89,-112.88 761.52,-95.79 841.4,-78.15"/>
<polygon fill="#63b8ff" stroke="#63b8ff" points="842.16,-81.57 851.16,-75.99 840.64,-74.74 842.16,-81.57"/>
</a>
</g>
</g>
<!-- Node16 -->
<g id="Node000016" class="node">
<title>Node16</title>
<g id="a_Node000016"><a xlink:title=" ">
<polygon fill="#e0e0e0" stroke="#999999" points="1005.25,-77.5 933.75,-77.5 933.75,-56.75 1005.25,-56.75 1005.25,-77.5"/>
<text xml:space="preserve" text-anchor="middle" x="969.5" y="-64" font-family="Helvetica,sans-Serif" font-size="10.00">sys/types.h</text>
</a>
</g>
</g>
<!-- Node1&#45;&gt;Node16 -->
<g id="edge16_Node000001_Node000016" class="edge">
<title>Node1&#45;&gt;Node16</title>
<g id="a_edge16_Node000001_Node000016"><a xlink:title=" ">
<path fill="none" stroke="#63b8ff" d="M644.01,-120.83C686.74,-115.13 809.96,-98.24 922.33,-78"/>
<polygon fill="#63b8ff" stroke="#63b8ff" points="922.81,-81.47 932.03,-76.24 921.56,-74.59 922.81,-81.47"/>
</a>
</g>
</g>
<!-- Node17 -->
<g id="Node000017" class="node">
<title>Node17</title>
<g id="a_Node000017"><a xlink:title=" ">
<polygon fill="#e0e0e0" stroke="#999999" points="1078,-77.5 1023,-77.5 1023,-56.75 1078,-56.75 1078,-77.5"/>
<text xml:space="preserve" text-anchor="middle" x="1050.5" y="-64" font-family="Helvetica,sans-Serif" font-size="10.00">unistd.h</text>
</a>
</g>
</g>
<!-- Node1&#45;&gt;Node17 -->
<g id="edge17_Node000001_Node000017" class="edge">
<title>Node1&#45;&gt;Node17</title>
<g id="a_edge17_Node000001_Node000017"><a xlink:title=" ">
<path fill="none" stroke="#63b8ff" d="M644.06,-121.82C695.29,-118.18 863.44,-104.98 1011.59,-77.84"/>
<polygon fill="#63b8ff" stroke="#63b8ff" points="1012,-81.32 1021.19,-76.05 1010.72,-74.44 1012,-81.32"/>
</a>
</g>
</g>
<!-- Node3 -->
<g id="Node000003" class="node">
<title>Node3</title>
<g id="a_Node000003"><a xlink:href="../../d1/d5d/a00311.html" target="_top" xlink:title=" ">
<polygon fill="white" stroke="#666666" points="61,-20.75 0,-20.75 0,0 61,0 61,-20.75"/>
<text xml:space="preserve" text-anchor="middle" x="30.5" y="-7.25" font-family="Helvetica,sans-Serif" font-size="10.00">version.h</text>
</a>
</g>
</g>
<!-- Node2&#45;&gt;Node3 -->
<g id="edge2_Node000002_Node000003" class="edge">
<title>Node2&#45;&gt;Node3</title>
<g id="a_edge2_Node000002_Node000003"><a xlink:title=" ">
<path fill="none" stroke="#63b8ff" d="M251.12,-61.65C216.43,-54.02 143.44,-37.86 72.11,-21.33"/>
<polygon fill="#63b8ff" stroke="#63b8ff" points="73.15,-17.98 62.62,-19.13 71.57,-24.8 73.15,-17.98"/>
</a>
</g>
</g>
<!-- Node4 -->
<g id="Node000004" class="node">
<title>Node4</title>
<g id="a_Node000004"><a xlink:title=" ">
<polygon fill="#e0e0e0" stroke="#999999" points="190.12,-20.75 78.88,-20.75 78.88,0 190.12,0 190.12,-20.75"/>
<text xml:space="preserve" text-anchor="middle" x="134.5" y="-7.25" font-family="Helvetica,sans-Serif" font-size="10.00">ncursesw/ncurses.h</text>
</a>
</g>
</g>
<!-- Node2&#45;&gt;Node4 -->
<g id="edge3_Node000002_Node000004" class="edge">
<title>Node2&#45;&gt;Node4</title>
<g id="a_edge3_Node000002_Node000004"><a xlink:title=" ">
<path fill="none" stroke="#63b8ff" d="M251.29,-58.05C229.79,-49.46 195.4,-35.71 169.49,-25.36"/>
<polygon fill="#63b8ff" stroke="#63b8ff" points="170.96,-22.18 160.37,-21.72 168.36,-28.68 170.96,-22.18"/>
</a>
</g>
</g>
<!-- Node5 -->
<g id="Node000005" class="node">
<title>Node5</title>
<g id="a_Node000005"><a xlink:title=" ">
<polygon fill="#e0e0e0" stroke="#999999" points="262.62,-20.75 208.38,-20.75 208.38,0 262.62,0 262.62,-20.75"/>
<text xml:space="preserve" text-anchor="middle" x="235.5" y="-7.25" font-family="Helvetica,sans-Serif" font-size="10.00">signal.h</text>
</a>
</g>
</g>
<!-- Node2&#45;&gt;Node5 -->
<g id="edge4_Node000002_Node000005" class="edge">
<title>Node2&#45;&gt;Node5</title>
<g id="a_edge4_Node000002_Node000005"><a xlink:title=" ">
<path fill="none" stroke="#63b8ff" d="M265.06,-56.34C260.35,-49.17 253.81,-39.23 248.08,-30.51"/>
<polygon fill="#63b8ff" stroke="#63b8ff" points="251.13,-28.78 242.71,-22.34 245.28,-32.62 251.13,-28.78"/>
</a>
</g>
</g>
<!-- Node6 -->
<g id="Node000006" class="node">
<title>Node6</title>
<g id="a_Node000006"><a xlink:title=" ">
<polygon fill="#e0e0e0" stroke="#999999" points="336,-20.75 281,-20.75 281,0 336,0 336,-20.75"/>
<text xml:space="preserve" text-anchor="middle" x="308.5" y="-7.25" font-family="Helvetica,sans-Serif" font-size="10.00">stddef.h</text>
</a>
</g>
</g>
<!-- Node2&#45;&gt;Node6 -->
<g id="edge5_Node000002_Node000006" class="edge">
<title>Node2&#45;&gt;Node6</title>
<g id="a_edge5_Node000002_Node000006"><a xlink:title=" ">
<path fill="none" stroke="#63b8ff" d="M278.11,-56.34C282.96,-49.17 289.68,-39.23 295.57,-30.51"/>
<polygon fill="#63b8ff" stroke="#63b8ff" points="298.4,-32.58 301.09,-22.33 292.6,-28.66 298.4,-32.58"/>
</a>
</g>
</g>
<!-- Node2&#45;&gt;Node7 -->
<g id="edge6_Node000002_Node000007" class="edge">
<title>Node2&#45;&gt;Node7</title>
<g id="a_edge6_Node000002_Node000007"><a xlink:title=" ">
<path fill="none" stroke="#63b8ff" d="M290.99,-56.34C307.65,-47.97 331.88,-35.79 350.94,-26.22"/>
<polygon fill="#63b8ff" stroke="#63b8ff" points="352.46,-29.37 359.83,-21.76 349.32,-23.12 352.46,-29.37"/>
</a>
</g>
</g>
</g>
</svg>

<g id="navigator" transform="translate(0 0)" fill="#404254">
  <rect fill="#f2f5e9" fill-opacity="0.5" stroke="#606060" stroke-width=".5" x="0" y="0" width="60" height="60"/>
  <use id="zoomplus" xlink:href="#zoomPlus" x="17" y="9" onmousedown="handleZoom(evt,'in')"/>
  <use id="zoomminus" xlink:href="#zoomMin" x="42" y="9" onmousedown="handleZoom(evt,'out')"/>
  <use id="reset" xlink:href="#resetDef" x="30" y="36" onmousedown="handleReset()"/>
   <use id="arrowup" xlink:href="#arrowUp" x="0" y="0" onmousedown="handlePan(0,-1)"/>
  <use id="arrowright" xlink:href="#arrowRight" x="0" y="0" onmousedown="handlePan(1,0)"/>
  <use id="arrowdown" xlink:href="#arrowDown" x="0" y="0" onmousedown="handlePan(0,1)"/>
  <use id="arrowleft" xlink:href="#arrowLeft" x="0" y="0" onmousedown="handlePan(-1,0)"/>
</g>
<svg viewBox="0 0 15 15" width="100%" height="30px" preserveAspectRatio="xMaxYMin meet">
 <g id="arrow_out" transform="scale(0.3 0.3)">
  <a xlink:href="a00267_org.svg" target="_base">
   <rect id="button" ry="5" rx="5" y="6" x="6" height="38" width="38"
        fill="#f2f5e9" fill-opacity="0.5" stroke="#606060" stroke-width="1.0"/>
   <path id="arrow"
     d="M 11.500037,31.436501 C 11.940474,20.09759 22.043105,11.32322 32.158766,21.979434 L 37.068811,17.246167 C 37.068811,17.246167 37.088388,32 37.088388,32 L 22.160133,31.978069 C 22.160133,31.978069 26.997745,27.140456 26.997745,27.140456 C 18.528582,18.264221 13.291696,25.230495 11.500037,31.436501 z"
     style="fill:#404040;"/>
  </a>
 </g>
</svg>

<style type='text/css'>
<![CDATA[
[data-mouse-over-selected='false'] { opacity: 0.7; }
[data-mouse-over-selected='true']  { opacity: 1.0; }
]]>
</style>
<script type="application/ecmascript"><![CDATA[
document.addEventListener('DOMContentLoaded', (event) => {
  highlightEdges();
  highlightAdjacentNodes();
});
]]></script>
</svg>
