<?xml version="1.0" encoding="UTF-8" standalone="no"?>
<!DOCTYPE svg PUBLIC "-//W3C//DTD SVG 1.1//EN"
 "http://www.w3.org/Graphics/SVG/1.1/DTD/svg11.dtd">
<!-- Generated by graphviz version 14.1.2 (0)
 -->
<!-- Title: src/parse_menu_desc.c Pages: 1 -->
<svg width="360pt" height="86pt"
 viewBox="0.00 0.00 360.00 86.00" xmlns="http://www.w3.org/2000/svg" xmlns:xlink="http://www.w3.org/1999/xlink">
<g id="graph0" class="graph" transform="scale(1 1) rotate(0) translate(4 81.5)">
<title>src/parse_menu_desc.c</title>
<!-- Node1 -->
<g id="Node000001" class="node">
<title>Node1</title>
<g id="a_Node000001"><a xlink:title="Parse menu description file and create Menu.">
<polygon fill="#999999" stroke="#666666" points="248.5,-77.5 119.25,-77.5 119.25,-56.75 248.5,-56.75 248.5,-77.5"/>
<text xml:space="preserve" text-anchor="middle" x="183.88" y="-64" font-family="Helvetica,sans-Serif" font-size="10.00">src/parse_menu_desc.c</text>
</a>
</g>
</g>
<!-- Node2 -->
<g id="Node000002" class="node">
<title>Node2</title>
<g id="a_Node000002"><a xlink:title=" ">
<polygon fill="#e0e0e0" stroke="#999999" points="67.75,-20.75 0,-20.75 0,0 67.75,0 67.75,-20.75"/>
<text xml:space="preserve" text-anchor="middle" x="33.88" y="-7.25" font-family="Helvetica,sans-Serif" font-size="10.00">common.h</text>
</a>
</g>
</g>
<!-- Node1&#45;&gt;Node2 -->
<g id="edge1_Node000001_Node000002" class="edge">
<title>Node1&#45;&gt;Node2</title>
<g id="a_edge1_Node000001_Node000002"><a xlink:title=" ">
<path fill="none" stroke="#63b8ff" d="M157.06,-56.34C133.14,-47.61 97.87,-34.73 71.2,-25"/>
<polygon fill="#63b8ff" stroke="#63b8ff" points="72.73,-21.83 62.13,-21.69 70.33,-28.41 72.73,-21.83"/>
</a>
</g>
</g>
<!-- Node3 -->
<g id="Node000003" class="node">
<title>Node3</title>
<g id="a_Node000003"><a xlink:title=" ">
<polygon fill="#e0e0e0" stroke="#999999" points="137.88,-20.75 85.88,-20.75 85.88,0 137.88,0 137.88,-20.75"/>
<text xml:space="preserve" text-anchor="middle" x="111.88" y="-7.25" font-family="Helvetica,sans-Serif" font-size="10.00">ctype.h</text>
</a>
</g>
</g>
<!-- Node1&#45;&gt;Node3 -->
<g id="edge2_Node000001_Node000003" class="edge">
<title>Node1&#45;&gt;Node3</title>
<g id="a_edge2_Node000001_Node000003"><a xlink:title=" ">
<path fill="none" stroke="#63b8ff" d="M171,-56.34C160.66,-48.47 145.91,-37.25 133.72,-27.99"/>
<polygon fill="#63b8ff" stroke="#63b8ff" points="135.92,-25.26 125.84,-21.99 131.68,-30.83 135.92,-25.26"/>
</a>
</g>
</g>
<!-- Node4 -->
<g id="Node000004" class="node">
<title>Node4</title>
<g id="a_Node000004"><a xlink:title=" ">
<polygon fill="#e0e0e0" stroke="#999999" points="211.38,-20.75 156.38,-20.75 156.38,0 211.38,0 211.38,-20.75"/>
<text xml:space="preserve" text-anchor="middle" x="183.88" y="-7.25" font-family="Helvetica,sans-Serif" font-size="10.00">stddef.h</text>
</a>
</g>
</g>
<!-- Node1&#45;&gt;Node4 -->
<g id="edge3_Node000001_Node000004" class="edge">
<title>Node1&#45;&gt;Node4</title>
<g id="a_edge3_Node000001_Node000004"><a xlink:title=" ">
<path fill="none" stroke="#63b8ff" d="M183.88,-56.34C183.88,-49.72 183.88,-40.72 183.88,-32.52"/>
<polygon fill="#63b8ff" stroke="#63b8ff" points="187.38,-32.59 183.88,-22.59 180.38,-32.59 187.38,-32.59"/>
</a>
</g>
</g>
<!-- Node5 -->
<g id="Node000005" class="node">
<title>Node5</title>
<g id="a_Node000005"><a xlink:title=" ">
<polygon fill="#e0e0e0" stroke="#999999" points="281.88,-20.75 229.88,-20.75 229.88,0 281.88,0 281.88,-20.75"/>
<text xml:space="preserve" text-anchor="middle" x="255.88" y="-7.25" font-family="Helvetica,sans-Serif" font-size="10.00">stdlib.h</text>
</a>
</g>
</g>
<!-- Node1&#45;&gt;Node5 -->
<g id="edge4_Node000001_Node000005" class="edge">
<title>Node1&#45;&gt;Node5</title>
<g id="a_edge4_Node000001_Node000005"><a xlink:title=" ">
<path fill="none" stroke="#63b8ff" d="M196.75,-56.34C207.09,-48.47 221.84,-37.25 234.03,-27.99"/>
<polygon fill="#63b8ff" stroke="#63b8ff" points="236.07,-30.83 241.91,-21.99 231.83,-25.26 236.07,-30.83"/>
</a>
</g>
</g>
<!-- Node6 -->
<g id="Node000006" class="node">
<title>Node6</title>
<g id="a_Node000006"><a xlink:title=" ">
<polygon fill="#e0e0e0" stroke="#999999" points="352.25,-20.75 299.5,-20.75 299.5,0 352.25,0 352.25,-20.75"/>
<text xml:space="preserve" text-anchor="middle" x="325.88" y="-7.25" font-family="Helvetica,sans-Serif" font-size="10.00">string.h</text>
</a>
</g>
</g>
<!-- Node1&#45;&gt;Node6 -->
<g id="edge5_Node000001_Node000006" class="edge">
<title>Node1&#45;&gt;Node6</title>
<g id="a_edge5_Node000001_Node000006"><a xlink:title=" ">
<path fill="none" stroke="#63b8ff" d="M209.26,-56.34C231.78,-47.66 264.9,-34.88 290.1,-25.17"/>
<polygon fill="#63b8ff" stroke="#63b8ff" points="291.22,-28.49 299.3,-21.62 288.71,-21.95 291.22,-28.49"/>
</a>
</g>
</g>
</g>
</svg>
