<?xml version="1.0" encoding="UTF-8" standalone="no"?>
<!DOCTYPE svg PUBLIC "-//W3C//DTD SVG 1.1//EN"
 "http://www.w3.org/Graphics/SVG/1.1/DTD/svg11.dtd">
<!-- Generated by graphviz version 14.1.2 (0)
 -->
<!-- Title: src/whence.c Pages: 1 -->
<svg width="862pt" height="86pt"
 viewBox="0.00 0.00 862.00 86.00" xmlns="http://www.w3.org/2000/svg" xmlns:xlink="http://www.w3.org/1999/xlink">
<g id="graph0" class="graph" transform="scale(1 1) rotate(0) translate(4 81.5)">
<title>src/whence.c</title>
<!-- Node1 -->
<g id="Node000001" class="node">
<title>Node1</title>
<g id="a_Node000001"><a xlink:title="Find the full path of a file in the directories specified by the.">
<polygon fill="#999999" stroke="#666666" points="449.5,-77.5 370.5,-77.5 370.5,-56.75 449.5,-56.75 449.5,-77.5"/>
<text xml:space="preserve" text-anchor="middle" x="410" y="-64" font-family="Helvetica,sans-Serif" font-size="10.00">src/whence.c</text>
</a>
</g>
</g>
<!-- Node2 -->
<g id="Node000002" class="node">
<title>Node2</title>
<g id="a_Node000002"><a xlink:title=" ">
<polygon fill="#e0e0e0" stroke="#999999" points="40,-20.75 0,-20.75 0,0 40,0 40,-20.75"/>
<text xml:space="preserve" text-anchor="middle" x="20" y="-7.25" font-family="Helvetica,sans-Serif" font-size="10.00">cm.h</text>
</a>
</g>
</g>
<!-- Node1&#45;&gt;Node2 -->
<g id="edge1_Node000001_Node000002" class="edge">
<title>Node1&#45;&gt;Node2</title>
<g id="a_edge1_Node000001_Node000002"><a xlink:title=" ">
<path fill="none" stroke="#63b8ff" d="M370.05,-63.56C305,-58.86 172.08,-47.05 51.36,-20.92"/>
<polygon fill="#63b8ff" stroke="#63b8ff" points="52.46,-17.58 41.94,-18.84 50.95,-24.42 52.46,-17.58"/>
</a>
</g>
</g>
<!-- Node3 -->
<g id="Node000003" class="node">
<title>Node3</title>
<g id="a_Node000003"><a xlink:title=" ">
<polygon fill="#e0e0e0" stroke="#999999" points="104.38,-20.75 57.62,-20.75 57.62,0 104.38,0 104.38,-20.75"/>
<text xml:space="preserve" text-anchor="middle" x="81" y="-7.25" font-family="Helvetica,sans-Serif" font-size="10.00">fcntl.h</text>
</a>
</g>
</g>
<!-- Node1&#45;&gt;Node3 -->
<g id="edge2_Node000001_Node000003" class="edge">
<title>Node1&#45;&gt;Node3</title>
<g id="a_edge2_Node000001_Node000003"><a xlink:title=" ">
<path fill="none" stroke="#63b8ff" d="M370.45,-61.65C315.53,-55.1 212.91,-41.61 115.89,-20.92"/>
<polygon fill="#63b8ff" stroke="#63b8ff" points="116.7,-17.51 106.18,-18.81 115.21,-24.35 116.7,-17.51"/>
</a>
</g>
</g>
<!-- Node4 -->
<g id="Node000004" class="node">
<title>Node4</title>
<g id="a_Node000004"><a xlink:title=" ">
<polygon fill="#e0e0e0" stroke="#999999" points="179.25,-20.75 122.75,-20.75 122.75,0 179.25,0 179.25,-20.75"/>
<text xml:space="preserve" text-anchor="middle" x="151" y="-7.25" font-family="Helvetica,sans-Serif" font-size="10.00">getopt.h</text>
</a>
</g>
</g>
<!-- Node1&#45;&gt;Node4 -->
<g id="edge3_Node000001_Node000004" class="edge">
<title>Node1&#45;&gt;Node4</title>
<g id="a_edge3_Node000001_Node000004"><a xlink:title=" ">
<path fill="none" stroke="#63b8ff" d="M370.38,-58.48C328.32,-50.25 259.65,-36.52 190.67,-21.06"/>
<polygon fill="#63b8ff" stroke="#63b8ff" points="191.61,-17.68 181.08,-18.89 190.07,-24.51 191.61,-17.68"/>
</a>
</g>
</g>
<!-- Node5 -->
<g id="Node000005" class="node">
<title>Node5</title>
<g id="a_Node000005"><a xlink:title=" ">
<polygon fill="#e0e0e0" stroke="#999999" points="250.38,-20.75 197.62,-20.75 197.62,0 250.38,0 250.38,-20.75"/>
<text xml:space="preserve" text-anchor="middle" x="224" y="-7.25" font-family="Helvetica,sans-Serif" font-size="10.00">limits.h</text>
</a>
</g>
</g>
<!-- Node1&#45;&gt;Node5 -->
<g id="edge4_Node000001_Node000005" class="edge">
<title>Node1&#45;&gt;Node5</title>
<g id="a_edge4_Node000001_Node000005"><a xlink:title=" ">
<path fill="none" stroke="#63b8ff" d="M376.75,-56.34C344.36,-46.8 295.2,-32.33 261.45,-22.4"/>
<polygon fill="#63b8ff" stroke="#63b8ff" points="262.68,-19.11 252.1,-19.65 260.7,-25.83 262.68,-19.11"/>
</a>
</g>
</g>
<!-- Node6 -->
<g id="Node000006" class="node">
<title>Node6</title>
<g id="a_Node000006"><a xlink:title=" ">
<polygon fill="#e0e0e0" stroke="#999999" points="329.5,-20.75 268.5,-20.75 268.5,0 329.5,0 329.5,-20.75"/>
<text xml:space="preserve" text-anchor="middle" x="299" y="-7.25" font-family="Helvetica,sans-Serif" font-size="10.00">stdbool.h</text>
</a>
</g>
</g>
<!-- Node1&#45;&gt;Node6 -->
<g id="edge5_Node000001_Node000006" class="edge">
<title>Node1&#45;&gt;Node6</title>
<g id="a_edge5_Node000001_Node000006"><a xlink:title=" ">
<path fill="none" stroke="#63b8ff" d="M390.16,-56.34C373.11,-47.93 348.28,-35.68 328.84,-26.09"/>
<polygon fill="#63b8ff" stroke="#63b8ff" points="330.55,-23.03 320.03,-21.75 327.45,-29.31 330.55,-23.03"/>
</a>
</g>
</g>
<!-- Node7 -->
<g id="Node000007" class="node">
<title>Node7</title>
<g id="a_Node000007"><a xlink:title=" ">
<polygon fill="#e0e0e0" stroke="#999999" points="402.5,-20.75 347.5,-20.75 347.5,0 402.5,0 402.5,-20.75"/>
<text xml:space="preserve" text-anchor="middle" x="375" y="-7.25" font-family="Helvetica,sans-Serif" font-size="10.00">stddef.h</text>
</a>
</g>
</g>
<!-- Node1&#45;&gt;Node7 -->
<g id="edge6_Node000001_Node000007" class="edge">
<title>Node1&#45;&gt;Node7</title>
<g id="a_edge6_Node000001_Node000007"><a xlink:title=" ">
<path fill="none" stroke="#63b8ff" d="M403.74,-56.34C399.16,-49.17 392.8,-39.23 387.23,-30.51"/>
<polygon fill="#63b8ff" stroke="#63b8ff" points="390.35,-28.89 382.02,-22.35 384.46,-32.66 390.35,-28.89"/>
</a>
</g>
</g>
<!-- Node8 -->
<g id="Node000008" class="node">
<title>Node8</title>
<g id="a_Node000008"><a xlink:title=" ">
<polygon fill="#e0e0e0" stroke="#999999" points="469.5,-20.75 420.5,-20.75 420.5,0 469.5,0 469.5,-20.75"/>
<text xml:space="preserve" text-anchor="middle" x="445" y="-7.25" font-family="Helvetica,sans-Serif" font-size="10.00">stdio.h</text>
</a>
</g>
</g>
<!-- Node1&#45;&gt;Node8 -->
<g id="edge7_Node000001_Node000008" class="edge">
<title>Node1&#45;&gt;Node8</title>
<g id="a_edge7_Node000001_Node000008"><a xlink:title=" ">
<path fill="none" stroke="#63b8ff" d="M416.26,-56.34C420.84,-49.17 427.2,-39.23 432.77,-30.51"/>
<polygon fill="#63b8ff" stroke="#63b8ff" points="435.54,-32.66 437.98,-22.35 429.65,-28.89 435.54,-32.66"/>
</a>
</g>
</g>
<!-- Node9 -->
<g id="Node000009" class="node">
<title>Node9</title>
<g id="a_Node000009"><a xlink:title=" ">
<polygon fill="#e0e0e0" stroke="#999999" points="540,-20.75 488,-20.75 488,0 540,0 540,-20.75"/>
<text xml:space="preserve" text-anchor="middle" x="514" y="-7.25" font-family="Helvetica,sans-Serif" font-size="10.00">stdlib.h</text>
</a>
</g>
</g>
<!-- Node1&#45;&gt;Node9 -->
<g id="edge8_Node000001_Node000009" class="edge">
<title>Node1&#45;&gt;Node9</title>
<g id="a_edge8_Node000001_Node000009"><a xlink:title=" ">
<path fill="none" stroke="#63b8ff" d="M428.59,-56.34C444.42,-48.01 467.4,-35.91 485.54,-26.36"/>
<polygon fill="#63b8ff" stroke="#63b8ff" points="487.01,-29.54 494.23,-21.78 483.75,-23.34 487.01,-29.54"/>
</a>
</g>
</g>
<!-- Node10 -->
<g id="Node000010" class="node">
<title>Node10</title>
<g id="a_Node000010"><a xlink:title=" ">
<polygon fill="#e0e0e0" stroke="#999999" points="610.38,-20.75 557.62,-20.75 557.62,0 610.38,0 610.38,-20.75"/>
<text xml:space="preserve" text-anchor="middle" x="584" y="-7.25" font-family="Helvetica,sans-Serif" font-size="10.00">string.h</text>
</a>
</g>
</g>
<!-- Node1&#45;&gt;Node10 -->
<g id="edge9_Node000001_Node000010" class="edge">
<title>Node1&#45;&gt;Node10</title>
<g id="a_edge9_Node000001_Node000010"><a xlink:title=" ">
<path fill="none" stroke="#63b8ff" d="M441.11,-56.34C470.53,-47.08 514.75,-33.16 546.2,-23.27"/>
<polygon fill="#63b8ff" stroke="#63b8ff" points="547.22,-26.62 555.71,-20.28 545.12,-19.94 547.22,-26.62"/>
</a>
</g>
</g>
<!-- Node11 -->
<g id="Node000011" class="node">
<title>Node11</title>
<g id="a_Node000011"><a xlink:title=" ">
<polygon fill="#e0e0e0" stroke="#999999" points="691.62,-20.75 628.38,-20.75 628.38,0 691.62,0 691.62,-20.75"/>
<text xml:space="preserve" text-anchor="middle" x="660" y="-7.25" font-family="Helvetica,sans-Serif" font-size="10.00">sys/stat.h</text>
</a>
</g>
</g>
<!-- Node1&#45;&gt;Node11 -->
<g id="edge10_Node000001_Node000011" class="edge">
<title>Node1&#45;&gt;Node11</title>
<g id="a_edge10_Node000001_Node000011"><a xlink:title=" ">
<path fill="none" stroke="#63b8ff" d="M449.71,-57.64C489.47,-49.11 552.71,-35.47 617.05,-21.17"/>
<polygon fill="#63b8ff" stroke="#63b8ff" points="617.75,-24.6 626.75,-19.01 616.22,-17.76 617.75,-24.6"/>
</a>
</g>
</g>
<!-- Node12 -->
<g id="Node000012" class="node">
<title>Node12</title>
<g id="a_Node000012"><a xlink:title=" ">
<polygon fill="#e0e0e0" stroke="#999999" points="780.75,-20.75 709.25,-20.75 709.25,0 780.75,0 780.75,-20.75"/>
<text xml:space="preserve" text-anchor="middle" x="745" y="-7.25" font-family="Helvetica,sans-Serif" font-size="10.00">sys/types.h</text>
</a>
</g>
</g>
<!-- Node1&#45;&gt;Node12 -->
<g id="edge11_Node000001_Node000012" class="edge">
<title>Node1&#45;&gt;Node12</title>
<g id="a_edge11_Node000001_Node000012"><a xlink:title=" ">
<path fill="none" stroke="#63b8ff" d="M449.65,-60.65C503.63,-53.04 603.51,-38.42 697.84,-21.26"/>
<polygon fill="#63b8ff" stroke="#63b8ff" points="698.32,-24.73 707.53,-19.48 697.06,-17.85 698.32,-24.73"/>
</a>
</g>
</g>
<!-- Node13 -->
<g id="Node000013" class="node">
<title>Node13</title>
<g id="a_Node000013"><a xlink:title=" ">
<polygon fill="#e0e0e0" stroke="#999999" points="853.5,-20.75 798.5,-20.75 798.5,0 853.5,0 853.5,-20.75"/>
<text xml:space="preserve" text-anchor="middle" x="826" y="-7.25" font-family="Helvetica,sans-Serif" font-size="10.00">unistd.h</text>
</a>
</g>
</g>
<!-- Node1&#45;&gt;Node13 -->
<g id="edge12_Node000001_Node000013" class="edge">
<title>Node1&#45;&gt;Node13</title>
<g id="a_edge12_Node000001_Node000013"><a xlink:title=" ">
<path fill="none" stroke="#63b8ff" d="M449.93,-63.15C517.5,-57.74 658.8,-44.74 787,-21.11"/>
<polygon fill="#63b8ff" stroke="#63b8ff" points="787.5,-24.58 796.69,-19.3 786.22,-17.7 787.5,-24.58"/>
</a>
</g>
</g>
</g>
</svg>
