<?xml version="1.0" encoding="UTF-8" standalone="no"?>
<!DOCTYPE svg PUBLIC "-//W3C//DTD SVG 1.1//EN"
 "http://www.w3.org/Graphics/SVG/1.1/DTD/svg11.dtd">
<!-- Generated by graphviz version 14.1.2 (0)
 -->
<!-- Title: Pick Pages: 1 -->
<svg width="521pt" height="624pt"
 viewBox="0.00 0.00 521.00 624.00" xmlns="http://www.w3.org/2000/svg" xmlns:xlink="http://www.w3.org/1999/xlink">
<g id="graph0" class="graph" transform="scale(1 1) rotate(0) translate(4 619.75)">
<title>Pick</title>
<!-- Node1 -->
<g id="Node000001" class="node">
<title>Node1</title>
<g id="a_Node000001"><a xlink:title="Pick data structure.">
<polygon fill="#999999" stroke="#666666" points="267.16,-20.75 230.91,-20.75 230.91,0 267.16,0 267.16,-20.75"/>
<text xml:space="preserve" text-anchor="middle" x="249.04" y="-7.25" font-family="Helvetica,sans-Serif" font-size="10.00">Pick</text>
</a>
</g>
</g>
<!-- Node2 -->
<g id="Node000002" class="node">
<title>Node2</title>
<g id="a_Node000002"><a xlink:title=" ">
<polygon fill="white" stroke="#666666" points="49.44,-615.75 20.64,-615.75 20.64,-595 49.44,-595 49.44,-615.75"/>
<text xml:space="preserve" text-anchor="middle" x="35.04" y="-602.25" font-family="Helvetica,sans-Serif" font-size="10.00">int</text>
</a>
</g>
</g>
<!-- Node2&#45;&gt;Node1 -->
<g id="edge1_Node000001_Node000002" class="edge">
<title>Node2&#45;&gt;Node1</title>
<g id="a_edge1_Node000001_Node000002"><a xlink:title=" ">
<path fill="none" stroke="#9a32cd" stroke-dasharray="5,2" d="M29.24,-583.47C22.99,-559.76 13.45,-519.82 9.79,-484.75 1.2,-402.42 -6.45,-379.67 9.79,-298.5 34.32,-175.86 21.66,-118.45 118.04,-38.75 135,-24.72 198.63,-16.46 230.55,-13.12"/>
<polygon fill="#9a32cd" stroke="#9a32cd" points="25.86,-584.36 31.85,-593.1 32.62,-582.53 25.86,-584.36"/>
</a>
</g>
<text xml:space="preserve" text-anchor="start" x="12.79" y="-472.25" font-family="Helvetica,sans-Serif" font-size="10.00" fill="grey">argc</text>
<text xml:space="preserve" text-anchor="start" x="12.79" y="-455.5" font-family="Helvetica,sans-Serif" font-size="10.00" fill="grey">begx</text>
<text xml:space="preserve" text-anchor="start" x="12.79" y="-438.75" font-family="Helvetica,sans-Serif" font-size="10.00" fill="grey">begy</text>
<text xml:space="preserve" text-anchor="start" x="12.79" y="-422" font-family="Helvetica,sans-Serif" font-size="10.00" fill="grey">bg_color</text>
<text xml:space="preserve" text-anchor="start" x="12.79" y="-405.25" font-family="Helvetica,sans-Serif" font-size="10.00" fill="grey">bo_color</text>
<text xml:space="preserve" text-anchor="start" x="12.79" y="-388.5" font-family="Helvetica,sans-Serif" font-size="10.00" fill="grey">fg_color</text>
<text xml:space="preserve" text-anchor="start" x="12.79" y="-371.75" font-family="Helvetica,sans-Serif" font-size="10.00" fill="grey">in_fd</text>
<text xml:space="preserve" text-anchor="start" x="12.79" y="-355" font-family="Helvetica,sans-Serif" font-size="10.00" fill="grey">obj_cnt</text>
<text xml:space="preserve" text-anchor="start" x="12.79" y="-338.25" font-family="Helvetica,sans-Serif" font-size="10.00" fill="grey">obj_idx</text>
<text xml:space="preserve" text-anchor="start" x="12.79" y="-321.5" font-family="Helvetica,sans-Serif" font-size="10.00" fill="grey">out_fd</text>
<text xml:space="preserve" text-anchor="start" x="12.79" y="-304.75" font-family="Helvetica,sans-Serif" font-size="10.00" fill="grey"> &#160;...</text>
</g>
<!-- Node7 -->
<g id="Node000007" class="node">
<title>Node7</title>
<g id="a_Node000007"><a xlink:href="../../d4/db2/structChyron.html" target="_top" xlink:title=" ">
<polygon fill="white" stroke="#666666" points="155.29,-280.5 104.79,-280.5 104.79,-259.75 155.29,-259.75 155.29,-280.5"/>
<text xml:space="preserve" text-anchor="middle" x="130.04" y="-267" font-family="Helvetica,sans-Serif" font-size="10.00">Chyron</text>
</a>
</g>
</g>
<!-- Node2&#45;&gt;Node7 -->
<g id="edge11_Node000007_Node000002" class="edge">
<title>Node2&#45;&gt;Node7</title>
<g id="a_edge11_Node000007_Node000002"><a xlink:title=" ">
<path fill="none" stroke="#9a32cd" stroke-dasharray="5,2" d="M39.38,-583.38C43.69,-562.8 50.56,-530.56 57.04,-502.75 78.27,-411.63 66.43,-382.3 108.04,-298.5 111.24,-292.06 116.16,-285.74 120.54,-280.8"/>
<polygon fill="#9a32cd" stroke="#9a32cd" points="35.98,-582.56 37.37,-593.06 42.83,-583.98 35.98,-582.56"/>
</a>
</g>
<text xml:space="preserve" text-anchor="start" x="60.04" y="-510" font-family="Helvetica,sans-Serif" font-size="10.00" fill="grey">l</text>
</g>
<!-- Node8 -->
<g id="Node000008" class="node">
<title>Node8</title>
<g id="a_Node000008"><a xlink:href="../../d5/ded/structChyronKey.html" target="_top" xlink:title=" ">
<polygon fill="white" stroke="#666666" points="143.29,-523.5 74.79,-523.5 74.79,-502.75 143.29,-502.75 143.29,-523.5"/>
<text xml:space="preserve" text-anchor="middle" x="109.04" y="-510" font-family="Helvetica,sans-Serif" font-size="10.00">ChyronKey</text>
</a>
</g>
</g>
<!-- Node2&#45;&gt;Node8 -->
<g id="edge9_Node000008_Node000002" class="edge">
<title>Node2&#45;&gt;Node8</title>
<g id="a_edge9_Node000008_Node000002"><a xlink:title=" ">
<path fill="none" stroke="#9a32cd" stroke-dasharray="5,2" d="M42.79,-584.16C48.52,-571 57.27,-554.01 68.54,-541.5 74.79,-534.56 83.14,-528.53 90.64,-523.91"/>
<polygon fill="#9a32cd" stroke="#9a32cd" points="39.66,-582.55 39.12,-593.13 46.14,-585.2 39.66,-582.55"/>
</a>
</g>
<text xml:space="preserve" text-anchor="start" x="71.54" y="-564.5" font-family="Helvetica,sans-Serif" font-size="10.00" fill="grey">end_pos</text>
<text xml:space="preserve" text-anchor="start" x="71.54" y="-547.75" font-family="Helvetica,sans-Serif" font-size="10.00" fill="grey">keycode</text>
</g>
<!-- Node3 -->
<g id="Node000003" class="node">
<title>Node3</title>
<g id="a_Node000003"><a xlink:title=" ">
<polygon fill="white" stroke="#666666" points="315.66,-280.5 246.41,-280.5 246.41,-259.75 315.66,-259.75 315.66,-280.5"/>
<text xml:space="preserve" text-anchor="middle" x="281.04" y="-267" font-family="Helvetica,sans-Serif" font-size="10.00">WINDOW *</text>
</a>
</g>
</g>
<!-- Node3&#45;&gt;Node1 -->
<g id="edge2_Node000001_Node000003" class="edge">
<title>Node3&#45;&gt;Node1</title>
<g id="a_edge2_Node000001_Node000003"><a xlink:title=" ">
<path fill="none" stroke="#9a32cd" stroke-dasharray="5,2" d="M278.43,-248.09C271.88,-195.34 254.94,-58.91 250.26,-21.17"/>
<polygon fill="#9a32cd" stroke="#9a32cd" points="274.93,-248.34 279.64,-257.83 281.88,-247.48 274.93,-248.34"/>
</a>
</g>
<text xml:space="preserve" text-anchor="start" x="280.07" y="-145.5" font-family="Helvetica,sans-Serif" font-size="10.00" fill="grey">box</text>
<text xml:space="preserve" text-anchor="start" x="280.07" y="-128.75" font-family="Helvetica,sans-Serif" font-size="10.00" fill="grey">win</text>
</g>
<!-- Node4 -->
<g id="Node000004" class="node">
<title>Node4</title>
<g id="a_Node000004"><a xlink:title=" ">
<polygon fill="white" stroke="#666666" points="197.54,-615.75 160.54,-615.75 160.54,-595 197.54,-595 197.54,-615.75"/>
<text xml:space="preserve" text-anchor="middle" x="179.04" y="-602.25" font-family="Helvetica,sans-Serif" font-size="10.00">char</text>
</a>
</g>
</g>
<!-- Node4&#45;&gt;Node1 -->
<g id="edge3_Node000001_Node000004" class="edge">
<title>Node4&#45;&gt;Node1</title>
<g id="a_edge3_Node000001_Node000004"><a xlink:title=" ">
<path fill="none" stroke="#9a32cd" stroke-dasharray="5,2" d="M194.08,-585.26C195.64,-582.6 197.02,-579.81 198.04,-577 217.81,-522.55 244.26,-91.43 248.47,-21.07"/>
<polygon fill="#9a32cd" stroke="#9a32cd" points="191.25,-583.21 188.48,-593.43 197.02,-587.17 191.25,-583.21"/>
</a>
</g>
<text xml:space="preserve" text-anchor="start" x="232.25" y="-472.25" font-family="Helvetica,sans-Serif" font-size="10.00" fill="grey">argv</text>
<text xml:space="preserve" text-anchor="start" x="232.25" y="-455.5" font-family="Helvetica,sans-Serif" font-size="10.00" fill="grey">chyron_s</text>
<text xml:space="preserve" text-anchor="start" x="232.25" y="-438.75" font-family="Helvetica,sans-Serif" font-size="10.00" fill="grey">cmd</text>
<text xml:space="preserve" text-anchor="start" x="232.25" y="-422" font-family="Helvetica,sans-Serif" font-size="10.00" fill="grey">help_spec</text>
<text xml:space="preserve" text-anchor="start" x="232.25" y="-405.25" font-family="Helvetica,sans-Serif" font-size="10.00" fill="grey">in_buf</text>
<text xml:space="preserve" text-anchor="start" x="232.25" y="-388.5" font-family="Helvetica,sans-Serif" font-size="10.00" fill="grey">in_spec</text>
<text xml:space="preserve" text-anchor="start" x="232.25" y="-371.75" font-family="Helvetica,sans-Serif" font-size="10.00" fill="grey">mapp_spec</text>
<text xml:space="preserve" text-anchor="start" x="232.25" y="-355" font-family="Helvetica,sans-Serif" font-size="10.00" fill="grey">object</text>
<text xml:space="preserve" text-anchor="start" x="232.25" y="-338.25" font-family="Helvetica,sans-Serif" font-size="10.00" fill="grey">out_spec</text>
<text xml:space="preserve" text-anchor="start" x="232.25" y="-321.5" font-family="Helvetica,sans-Serif" font-size="10.00" fill="grey">parent_cmd</text>
<text xml:space="preserve" text-anchor="start" x="232.25" y="-304.75" font-family="Helvetica,sans-Serif" font-size="10.00" fill="grey"> &#160;...</text>
</g>
<!-- Node4&#45;&gt;Node7 -->
<g id="edge10_Node000007_Node000004" class="edge">
<title>Node4&#45;&gt;Node7</title>
<g id="a_edge10_Node000007_Node000004"><a xlink:title=" ">
<path fill="none" stroke="#9a32cd" stroke-dasharray="5,2" d="M181.89,-583.44C187.92,-532.27 198.12,-397.84 155.04,-298.5 152.12,-291.77 146.84,-285.6 141.89,-280.84"/>
<polygon fill="#9a32cd" stroke="#9a32cd" points="178.45,-582.72 180.67,-593.08 185.39,-583.59 178.45,-582.72"/>
</a>
</g>
<text xml:space="preserve" text-anchor="start" x="190.24" y="-510" font-family="Helvetica,sans-Serif" font-size="10.00" fill="grey">s</text>
</g>
<!-- Node4&#45;&gt;Node8 -->
<g id="edge8_Node000008_Node000004" class="edge">
<title>Node4&#45;&gt;Node8</title>
<g id="a_edge8_Node000008_Node000004"><a xlink:title=" ">
<path fill="none" stroke="#9a32cd" stroke-dasharray="5,2" d="M151.84,-588.33C147.39,-584.95 143.08,-581.14 139.54,-577 125.65,-560.78 116.44,-537.15 112.04,-523.96"/>
<polygon fill="#9a32cd" stroke="#9a32cd" points="149.51,-590.97 159.73,-593.76 153.48,-585.21 149.51,-590.97"/>
</a>
</g>
<text xml:space="preserve" text-anchor="start" x="142.54" y="-556.12" font-family="Helvetica,sans-Serif" font-size="10.00" fill="grey">text</text>
</g>
<!-- Node5 -->
<g id="Node000005" class="node">
<title>Node5</title>
<g id="a_Node000005"><a xlink:title=" ">
<polygon fill="white" stroke="#666666" points="378.29,-280.5 333.79,-280.5 333.79,-259.75 378.29,-259.75 378.29,-280.5"/>
<text xml:space="preserve" text-anchor="middle" x="356.04" y="-267" font-family="Helvetica,sans-Serif" font-size="10.00">FILE *</text>
</a>
</g>
</g>
<!-- Node5&#45;&gt;Node1 -->
<g id="edge4_Node000001_Node000005" class="edge">
<title>Node5&#45;&gt;Node1</title>
<g id="a_edge4_Node000001_Node000005"><a xlink:title=" ">
<path fill="none" stroke="#9a32cd" stroke-dasharray="5,2" d="M353.72,-248.02C347.81,-197.51 330.8,-71.47 305.04,-38.75 295.73,-26.93 280.02,-19.88 267.61,-15.9"/>
<polygon fill="#9a32cd" stroke="#9a32cd" points="350.23,-248.33 354.84,-257.87 357.19,-247.54 350.23,-248.33"/>
</a>
</g>
<text xml:space="preserve" text-anchor="start" x="355.9" y="-145.5" font-family="Helvetica,sans-Serif" font-size="10.00" fill="grey">in_fp</text>
<text xml:space="preserve" text-anchor="start" x="355.9" y="-128.75" font-family="Helvetica,sans-Serif" font-size="10.00" fill="grey">out_fp</text>
</g>
<!-- Node6 -->
<g id="Node000006" class="node">
<title>Node6</title>
<g id="a_Node000006"><a xlink:title=" ">
<polygon fill="white" stroke="#666666" points="433.54,-280.5 396.54,-280.5 396.54,-259.75 433.54,-259.75 433.54,-280.5"/>
<text xml:space="preserve" text-anchor="middle" x="415.04" y="-267" font-family="Helvetica,sans-Serif" font-size="10.00">bool</text>
</a>
</g>
</g>
<!-- Node6&#45;&gt;Node1 -->
<g id="edge5_Node000001_Node000006" class="edge">
<title>Node6&#45;&gt;Node1</title>
<g id="a_edge5_Node000001_Node000006"><a xlink:title=" ">
<path fill="none" stroke="#9a32cd" stroke-dasharray="5,2" d="M420.29,-248.63C430.34,-204.1 446.85,-97.8 393.04,-38.75 376.45,-20.55 302.67,-14.22 267.63,-12.22"/>
<polygon fill="#9a32cd" stroke="#9a32cd" points="416.92,-247.67 417.98,-258.21 423.72,-249.31 416.92,-247.67"/>
</a>
</g>
<text xml:space="preserve" text-anchor="start" x="433.79" y="-229.25" font-family="Helvetica,sans-Serif" font-size="10.00" fill="grey">f_cmd</text>
<text xml:space="preserve" text-anchor="start" x="433.79" y="-212.5" font-family="Helvetica,sans-Serif" font-size="10.00" fill="grey">f_help_spec</text>
<text xml:space="preserve" text-anchor="start" x="433.79" y="-195.75" font-family="Helvetica,sans-Serif" font-size="10.00" fill="grey">f_in_pipe</text>
<text xml:space="preserve" text-anchor="start" x="433.79" y="-179" font-family="Helvetica,sans-Serif" font-size="10.00" fill="grey">f_in_spec</text>
<text xml:space="preserve" text-anchor="start" x="433.79" y="-162.25" font-family="Helvetica,sans-Serif" font-size="10.00" fill="grey">f_mapp_spec</text>
<text xml:space="preserve" text-anchor="start" x="433.79" y="-145.5" font-family="Helvetica,sans-Serif" font-size="10.00" fill="grey">f_multiple_cmd</text>
<text xml:space="preserve" text-anchor="start" x="433.79" y="-128.75" font-family="Helvetica,sans-Serif" font-size="10.00" fill="grey">  _args</text>
<text xml:space="preserve" text-anchor="start" x="433.79" y="-112" font-family="Helvetica,sans-Serif" font-size="10.00" fill="grey">f_out_pipe</text>
<text xml:space="preserve" text-anchor="start" x="433.79" y="-95.25" font-family="Helvetica,sans-Serif" font-size="10.00" fill="grey">f_out_spec</text>
<text xml:space="preserve" text-anchor="start" x="433.79" y="-78.5" font-family="Helvetica,sans-Serif" font-size="10.00" fill="grey">f_provider_cmd</text>
<text xml:space="preserve" text-anchor="start" x="433.79" y="-61.75" font-family="Helvetica,sans-Serif" font-size="10.00" fill="grey">f_receiver_cmd</text>
<text xml:space="preserve" text-anchor="start" x="433.79" y="-45" font-family="Helvetica,sans-Serif" font-size="10.00" fill="grey"> &#160;...</text>
</g>
<!-- Node7&#45;&gt;Node1 -->
<g id="edge6_Node000001_Node000007" class="edge">
<title>Node7&#45;&gt;Node1</title>
<g id="a_edge6_Node000001_Node000007"><a xlink:title=" ">
<path fill="none" stroke="#9a32cd" stroke-dasharray="5,2" d="M126.59,-248.08C120.59,-203.72 113.37,-99.69 165.04,-38.75 181.31,-19.56 211.21,-13.73 230.59,-12.01"/>
<polygon fill="#9a32cd" stroke="#9a32cd" points="123.12,-248.5 128.05,-257.88 130.04,-247.47 123.12,-248.5"/>
</a>
</g>
<text xml:space="preserve" text-anchor="start" x="168.04" y="-137.12" font-family="Helvetica,sans-Serif" font-size="10.00" fill="grey">chyron</text>
</g>
<!-- Node8&#45;&gt;Node7 -->
<g id="edge7_Node000007_Node000008" class="edge">
<title>Node8&#45;&gt;Node7</title>
<g id="a_edge7_Node000007_Node000008"><a xlink:title=" ">
<path fill="none" stroke="#9a32cd" stroke-dasharray="5,2" d="M110.87,-491.14C115.22,-441.23 126.05,-316.92 129.18,-280.99"/>
<polygon fill="#9a32cd" stroke="#9a32cd" points="107.4,-490.61 110.02,-500.87 114.37,-491.21 107.4,-490.61"/>
</a>
</g>
<text xml:space="preserve" text-anchor="start" x="130.44" y="-388.5" font-family="Helvetica,sans-Serif" font-size="10.00" fill="grey">key</text>
</g>
</g>
</svg>
