<?xml version="1.0" encoding="UTF-8" standalone="no"?>
<!DOCTYPE svg PUBLIC "-//W3C//DTD SVG 1.1//EN"
 "http://www.w3.org/Graphics/SVG/1.1/DTD/svg11.dtd">
<!-- Generated by graphviz version 14.1.2 (0)
 -->
<!-- Title: menuapp/data/init_view.c Pages: 1 -->
<svg width="1086pt" height="199pt"
 viewBox="0.00 0.00 1086.00 199.00" xmlns="http://www.w3.org/2000/svg" xmlns:xlink="http://www.w3.org/1999/xlink">
<g id="graph0" class="graph" transform="scale(1 1) rotate(0) translate(4 195)">
<title>menuapp/data/init_view.c</title>
<!-- Node1 -->
<g id="Node000001" class="node">
<title>Node1</title>
<g id="a_Node000001"><a xlink:title=" ">
<polygon fill="#999999" stroke="#666666" points="694.12,-191 552.88,-191 552.88,-170.25 694.12,-170.25 694.12,-191"/>
<text xml:space="preserve" text-anchor="middle" x="623.5" y="-177.5" font-family="Helvetica,sans-Serif" font-size="10.00">menuapp/data/init_view.c</text>
</a>
</g>
</g>
<!-- Node2 -->
<g id="Node000002" class="node">
<title>Node2</title>
<g id="a_Node000002"><a xlink:href="../../d3/d54/menu_8h.html" target="_top" xlink:title="Menu data structures, enums, types, end external declarations.">
<polygon fill="white" stroke="#666666" points="317.88,-134.25 265.12,-134.25 265.12,-113.5 317.88,-113.5 317.88,-134.25"/>
<text xml:space="preserve" text-anchor="middle" x="291.5" y="-120.75" font-family="Helvetica,sans-Serif" font-size="10.00">menu.h</text>
</a>
</g>
</g>
<!-- Node1&#45;&gt;Node2 -->
<g id="edge1_Node000001_Node000002" class="edge">
<title>Node1&#45;&gt;Node2</title>
<g id="a_edge1_Node000001_Node000002"><a xlink:title=" ">
<path fill="none" stroke="#63b8ff" d="M563.76,-169.77C495.65,-158.54 386.35,-140.52 329.16,-131.08"/>
<polygon fill="#63b8ff" stroke="#63b8ff" points="330.04,-127.68 319.6,-129.51 328.9,-134.59 330.04,-127.68"/>
</a>
</g>
</g>
<!-- Node8 -->
<g id="Node000008" class="node">
<title>Node8</title>
<g id="a_Node000008"><a xlink:title=" ">
<polygon fill="#e0e0e0" stroke="#999999" points="406.5,-20.75 354.5,-20.75 354.5,0 406.5,0 406.5,-20.75"/>
<text xml:space="preserve" text-anchor="middle" x="380.5" y="-7.25" font-family="Helvetica,sans-Serif" font-size="10.00">stdlib.h</text>
</a>
</g>
</g>
<!-- Node1&#45;&gt;Node8 -->
<g id="edge11_Node000001_Node000008" class="edge">
<title>Node1&#45;&gt;Node8</title>
<g id="a_edge11_Node000001_Node000008"><a xlink:title=" ">
<path fill="none" stroke="#63b8ff" d="M552.52,-175.4C491.08,-170.12 408.83,-158.62 387.5,-134.25 362.85,-106.08 368.66,-58.93 374.78,-31.96"/>
<polygon fill="#63b8ff" stroke="#63b8ff" points="378.09,-33.15 377.14,-22.6 371.3,-31.44 378.09,-33.15"/>
</a>
</g>
</g>
<!-- Node9 -->
<g id="Node000009" class="node">
<title>Node9</title>
<g id="a_Node000009"><a xlink:title=" ">
<polygon fill="#e0e0e0" stroke="#999999" points="446.75,-134.25 396.25,-134.25 396.25,-113.5 446.75,-113.5 446.75,-134.25"/>
<text xml:space="preserve" text-anchor="middle" x="421.5" y="-120.75" font-family="Helvetica,sans-Serif" font-size="10.00">errno.h</text>
</a>
</g>
</g>
<!-- Node1&#45;&gt;Node9 -->
<g id="edge8_Node000001_Node000009" class="edge">
<title>Node1&#45;&gt;Node9</title>
<g id="a_edge8_Node000001_Node000009"><a xlink:title=" ">
<path fill="none" stroke="#63b8ff" d="M587.39,-169.84C550.77,-159.91 494.44,-144.64 457.77,-134.71"/>
<polygon fill="#63b8ff" stroke="#63b8ff" points="459.09,-131.44 448.53,-132.2 457.26,-138.19 459.09,-131.44"/>
</a>
</g>
</g>
<!-- Node10 -->
<g id="Node000010" class="node">
<title>Node10</title>
<g id="a_Node000010"><a xlink:title=" ">
<polygon fill="#e0e0e0" stroke="#999999" points="511.88,-134.25 465.12,-134.25 465.12,-113.5 511.88,-113.5 511.88,-134.25"/>
<text xml:space="preserve" text-anchor="middle" x="488.5" y="-120.75" font-family="Helvetica,sans-Serif" font-size="10.00">fcntl.h</text>
</a>
</g>
</g>
<!-- Node1&#45;&gt;Node10 -->
<g id="edge9_Node000001_Node000010" class="edge">
<title>Node1&#45;&gt;Node10</title>
<g id="a_edge9_Node000001_Node000010"><a xlink:title=" ">
<path fill="none" stroke="#63b8ff" d="M599.36,-169.84C577.92,-161.14 546.36,-148.34 522.39,-138.62"/>
<polygon fill="#63b8ff" stroke="#63b8ff" points="523.96,-135.48 513.38,-134.96 521.33,-141.97 523.96,-135.48"/>
</a>
</g>
</g>
<!-- Node11 -->
<g id="Node000011" class="node">
<title>Node11</title>
<g id="a_Node000011"><a xlink:title=" ">
<polygon fill="#e0e0e0" stroke="#999999" points="579,-134.25 530,-134.25 530,-113.5 579,-113.5 579,-134.25"/>
<text xml:space="preserve" text-anchor="middle" x="554.5" y="-120.75" font-family="Helvetica,sans-Serif" font-size="10.00">stdio.h</text>
</a>
</g>
</g>
<!-- Node1&#45;&gt;Node11 -->
<g id="edge10_Node000001_Node000011" class="edge">
<title>Node1&#45;&gt;Node11</title>
<g id="a_edge10_Node000001_Node000011"><a xlink:title=" ">
<path fill="none" stroke="#63b8ff" d="M611.16,-169.84C601.25,-161.97 587.11,-150.75 575.44,-141.49"/>
<polygon fill="#63b8ff" stroke="#63b8ff" points="577.92,-138.99 567.91,-135.52 573.57,-144.48 577.92,-138.99"/>
</a>
</g>
</g>
<!-- Node12 -->
<g id="Node000012" class="node">
<title>Node12</title>
<g id="a_Node000012"><a xlink:title=" ">
<polygon fill="#e0e0e0" stroke="#999999" points="649.88,-134.25 597.12,-134.25 597.12,-113.5 649.88,-113.5 649.88,-134.25"/>
<text xml:space="preserve" text-anchor="middle" x="623.5" y="-120.75" font-family="Helvetica,sans-Serif" font-size="10.00">string.h</text>
</a>
</g>
</g>
<!-- Node1&#45;&gt;Node12 -->
<g id="edge12_Node000001_Node000012" class="edge">
<title>Node1&#45;&gt;Node12</title>
<g id="a_edge12_Node000001_Node000012"><a xlink:title=" ">
<path fill="none" stroke="#63b8ff" d="M623.5,-169.84C623.5,-163.22 623.5,-154.22 623.5,-146.02"/>
<polygon fill="#63b8ff" stroke="#63b8ff" points="627,-146.09 623.5,-136.09 620,-146.09 627,-146.09"/>
</a>
</g>
</g>
<!-- Node13 -->
<g id="Node000013" class="node">
<title>Node13</title>
<g id="a_Node000013"><a xlink:title=" ">
<polygon fill="#e0e0e0" stroke="#999999" points="743.5,-134.25 667.5,-134.25 667.5,-113.5 743.5,-113.5 743.5,-134.25"/>
<text xml:space="preserve" text-anchor="middle" x="705.5" y="-120.75" font-family="Helvetica,sans-Serif" font-size="10.00">sys/mman.h</text>
</a>
</g>
</g>
<!-- Node1&#45;&gt;Node13 -->
<g id="edge13_Node000001_Node000013" class="edge">
<title>Node1&#45;&gt;Node13</title>
<g id="a_edge13_Node000001_Node000013"><a xlink:title=" ">
<path fill="none" stroke="#63b8ff" d="M638.16,-169.84C650.17,-161.82 667.41,-150.31 681.44,-140.94"/>
<polygon fill="#63b8ff" stroke="#63b8ff" points="683.34,-143.88 689.71,-135.42 679.45,-138.06 683.34,-143.88"/>
</a>
</g>
</g>
<!-- Node14 -->
<g id="Node000014" class="node">
<title>Node14</title>
<g id="a_Node000014"><a xlink:title=" ">
<polygon fill="#e0e0e0" stroke="#999999" points="825.12,-134.25 761.88,-134.25 761.88,-113.5 825.12,-113.5 825.12,-134.25"/>
<text xml:space="preserve" text-anchor="middle" x="793.5" y="-120.75" font-family="Helvetica,sans-Serif" font-size="10.00">sys/stat.h</text>
</a>
</g>
</g>
<!-- Node1&#45;&gt;Node14 -->
<g id="edge14_Node000001_Node000014" class="edge">
<title>Node1&#45;&gt;Node14</title>
<g id="a_edge14_Node000001_Node000014"><a xlink:title=" ">
<path fill="none" stroke="#63b8ff" d="M653.89,-169.84C681.37,-160.99 722.04,-147.89 752.41,-138.11"/>
<polygon fill="#63b8ff" stroke="#63b8ff" points="753.2,-141.53 761.64,-135.13 751.05,-134.87 753.2,-141.53"/>
</a>
</g>
</g>
<!-- Node15 -->
<g id="Node000015" class="node">
<title>Node15</title>
<g id="a_Node000015"><a xlink:title=" ">
<polygon fill="#e0e0e0" stroke="#999999" points="940,-134.25 843,-134.25 843,-113.5 940,-113.5 940,-134.25"/>
<text xml:space="preserve" text-anchor="middle" x="891.5" y="-120.75" font-family="Helvetica,sans-Serif" font-size="10.00">sys/sysmacros.h</text>
</a>
</g>
</g>
<!-- Node1&#45;&gt;Node15 -->
<g id="edge15_Node000001_Node000015" class="edge">
<title>Node1&#45;&gt;Node15</title>
<g id="a_edge15_Node000001_Node000015"><a xlink:title=" ">
<path fill="none" stroke="#63b8ff" d="M671.72,-169.77C716.65,-160.6 783.76,-146.89 832,-137.03"/>
<polygon fill="#63b8ff" stroke="#63b8ff" points="832.63,-140.47 841.73,-135.04 831.23,-133.61 832.63,-140.47"/>
</a>
</g>
</g>
<!-- Node16 -->
<g id="Node000016" class="node">
<title>Node16</title>
<g id="a_Node000016"><a xlink:title=" ">
<polygon fill="#e0e0e0" stroke="#999999" points="1013,-134.25 958,-134.25 958,-113.5 1013,-113.5 1013,-134.25"/>
<text xml:space="preserve" text-anchor="middle" x="985.5" y="-120.75" font-family="Helvetica,sans-Serif" font-size="10.00">unistd.h</text>
</a>
</g>
</g>
<!-- Node1&#45;&gt;Node16 -->
<g id="edge16_Node000001_Node000016" class="edge">
<title>Node1&#45;&gt;Node16</title>
<g id="a_edge16_Node000001_Node000016"><a xlink:title=" ">
<path fill="none" stroke="#63b8ff" d="M694.49,-172.16C758.2,-164.91 854.47,-152.61 946.47,-134.68"/>
<polygon fill="#63b8ff" stroke="#63b8ff" points="947.05,-138.13 956.18,-132.76 945.69,-131.27 947.05,-138.13"/>
</a>
</g>
</g>
<!-- Node17 -->
<g id="Node000017" class="node">
<title>Node17</title>
<g id="a_Node000017"><a xlink:title=" ">
<polygon fill="#e0e0e0" stroke="#999999" points="1077.5,-134.25 1031.5,-134.25 1031.5,-113.5 1077.5,-113.5 1077.5,-134.25"/>
<text xml:space="preserve" text-anchor="middle" x="1054.5" y="-120.75" font-family="Helvetica,sans-Serif" font-size="10.00">wait.h</text>
</a>
</g>
</g>
<!-- Node1&#45;&gt;Node17 -->
<g id="edge17_Node000001_Node000017" class="edge">
<title>Node1&#45;&gt;Node17</title>
<g id="a_edge17_Node000001_Node000017"><a xlink:title=" ">
<path fill="none" stroke="#63b8ff" d="M694.34,-175.26C772.13,-169.64 900.8,-157.91 1020.06,-134.44"/>
<polygon fill="#63b8ff" stroke="#63b8ff" points="1020.6,-137.9 1029.71,-132.5 1019.22,-131.04 1020.6,-137.9"/>
</a>
</g>
</g>
<!-- Node3 -->
<g id="Node000003" class="node">
<title>Node3</title>
<g id="a_Node000003"><a xlink:href="../../d0/d6b/cm_8h.html" target="_top" xlink:title="Headder for C&#45;Menu API library, libcm.so.">
<polygon fill="white" stroke="#666666" points="266.5,-77.5 226.5,-77.5 226.5,-56.75 266.5,-56.75 266.5,-77.5"/>
<text xml:space="preserve" text-anchor="middle" x="246.5" y="-64" font-family="Helvetica,sans-Serif" font-size="10.00">cm.h</text>
</a>
</g>
</g>
<!-- Node2&#45;&gt;Node3 -->
<g id="edge2_Node000002_Node000003" class="edge">
<title>Node2&#45;&gt;Node3</title>
<g id="a_edge2_Node000002_Node000003"><a xlink:title=" ">
<path fill="none" stroke="#63b8ff" d="M283.45,-113.09C277.44,-105.77 269.03,-95.54 261.76,-86.69"/>
<polygon fill="#63b8ff" stroke="#63b8ff" points="264.49,-84.5 255.44,-79 259.08,-88.95 264.49,-84.5"/>
</a>
</g>
</g>
<!-- Node4 -->
<g id="Node000004" class="node">
<title>Node4</title>
<g id="a_Node000004"><a xlink:href="../../df/dfc/version_8h.html" target="_top" xlink:title=" ">
<polygon fill="white" stroke="#666666" points="61,-20.75 0,-20.75 0,0 61,0 61,-20.75"/>
<text xml:space="preserve" text-anchor="middle" x="30.5" y="-7.25" font-family="Helvetica,sans-Serif" font-size="10.00">version.h</text>
</a>
</g>
</g>
<!-- Node3&#45;&gt;Node4 -->
<g id="edge3_Node000003_Node000004" class="edge">
<title>Node3&#45;&gt;Node4</title>
<g id="a_edge3_Node000003_Node000004"><a xlink:title=" ">
<path fill="none" stroke="#63b8ff" d="M226.18,-60.97C191.13,-52.09 118.64,-33.72 72.41,-22"/>
<polygon fill="#63b8ff" stroke="#63b8ff" points="73.28,-18.61 62.72,-19.54 71.56,-25.39 73.28,-18.61"/>
</a>
</g>
</g>
<!-- Node5 -->
<g id="Node000005" class="node">
<title>Node5</title>
<g id="a_Node000005"><a xlink:title=" ">
<polygon fill="#e0e0e0" stroke="#999999" points="190.12,-20.75 78.88,-20.75 78.88,0 190.12,0 190.12,-20.75"/>
<text xml:space="preserve" text-anchor="middle" x="134.5" y="-7.25" font-family="Helvetica,sans-Serif" font-size="10.00">ncursesw/ncurses.h</text>
</a>
</g>
</g>
<!-- Node3&#45;&gt;Node5 -->
<g id="edge4_Node000003_Node000005" class="edge">
<title>Node3&#45;&gt;Node5</title>
<g id="a_edge4_Node000003_Node000005"><a xlink:title=" ">
<path fill="none" stroke="#63b8ff" d="M226.48,-56.34C209.28,-47.93 184.22,-35.68 164.6,-26.09"/>
<polygon fill="#63b8ff" stroke="#63b8ff" points="166.23,-22.99 155.71,-21.74 163.16,-29.28 166.23,-22.99"/>
</a>
</g>
</g>
<!-- Node6 -->
<g id="Node000006" class="node">
<title>Node6</title>
<g id="a_Node000006"><a xlink:title=" ">
<polygon fill="#e0e0e0" stroke="#999999" points="262.62,-20.75 208.38,-20.75 208.38,0 262.62,0 262.62,-20.75"/>
<text xml:space="preserve" text-anchor="middle" x="235.5" y="-7.25" font-family="Helvetica,sans-Serif" font-size="10.00">signal.h</text>
</a>
</g>
</g>
<!-- Node3&#45;&gt;Node6 -->
<g id="edge5_Node000003_Node000006" class="edge">
<title>Node3&#45;&gt;Node6</title>
<g id="a_edge5_Node000003_Node000006"><a xlink:title=" ">
<path fill="none" stroke="#63b8ff" d="M244.53,-56.34C243.19,-49.64 241.35,-40.51 239.69,-32.23"/>
<polygon fill="#63b8ff" stroke="#63b8ff" points="243.15,-31.68 237.75,-22.56 236.29,-33.06 243.15,-31.68"/>
</a>
</g>
</g>
<!-- Node7 -->
<g id="Node000007" class="node">
<title>Node7</title>
<g id="a_Node000007"><a xlink:title=" ">
<polygon fill="#e0e0e0" stroke="#999999" points="336,-20.75 281,-20.75 281,0 336,0 336,-20.75"/>
<text xml:space="preserve" text-anchor="middle" x="308.5" y="-7.25" font-family="Helvetica,sans-Serif" font-size="10.00">stddef.h</text>
</a>
</g>
</g>
<!-- Node3&#45;&gt;Node7 -->
<g id="edge6_Node000003_Node000007" class="edge">
<title>Node3&#45;&gt;Node7</title>
<g id="a_edge6_Node000003_Node000007"><a xlink:title=" ">
<path fill="none" stroke="#63b8ff" d="M257.58,-56.34C266.31,-48.63 278.69,-37.7 289.06,-28.54"/>
<polygon fill="#63b8ff" stroke="#63b8ff" points="291.2,-31.32 296.38,-22.08 286.56,-26.08 291.2,-31.32"/>
</a>
</g>
</g>
<!-- Node3&#45;&gt;Node8 -->
<g id="edge7_Node000003_Node000008" class="edge">
<title>Node3&#45;&gt;Node8</title>
<g id="a_edge7_Node000003_Node000008"><a xlink:title=" ">
<path fill="none" stroke="#63b8ff" d="M266.85,-57.81C287.9,-49.21 321.14,-35.63 346.24,-25.37"/>
<polygon fill="#63b8ff" stroke="#63b8ff" points="347.45,-28.66 355.39,-21.64 344.8,-22.18 347.45,-28.66"/>
</a>
</g>
</g>
</g>
</svg>
