<?xml version="1.0" encoding="UTF-8" standalone="no"?>
<!DOCTYPE svg PUBLIC "-//W3C//DTD SVG 1.1//EN"
 "http://www.w3.org/Graphics/SVG/1.1/DTD/svg11.dtd">
<!-- Generated by graphviz version 14.1.2 (0)
 -->
<!-- Title: xwgetch Pages: 1 -->
<svg width="697pt" height="336pt"
 viewBox="0.00 0.00 697.00 336.00" xmlns="http://www.w3.org/2000/svg" xmlns:xlink="http://www.w3.org/1999/xlink">
<g id="graph0" class="graph" transform="scale(1 1) rotate(0) translate(4 331.75)">
<title>xwgetch</title>
<!-- Node1 -->
<g id="Node000001" class="node">
<title>Node1</title>
<g id="a_Node000001"><a xlink:title="Wrapper for wgetch that handles signals and mouse events.">
<polygon fill="#999999" stroke="#666666" points="57.25,-173.75 0,-173.75 0,-153 57.25,-153 57.25,-173.75"/>
<text xml:space="preserve" text-anchor="middle" x="28.62" y="-160.25" font-family="Helvetica,sans-Serif" font-size="10.00">xwgetch</text>
</a>
</g>
</g>
<!-- Node2 -->
<g id="Node000002" class="node">
<title>Node2</title>
<g id="a_Node000002"><a xlink:href="../../de/d25/a00290.html#a67659f8a701b74f4dec0d36227a10d1c" target="_top" xlink:title="Display an error message window or print to stderr.">
<polygon fill="white" stroke="#666666" points="179.38,-173.75 99.62,-173.75 99.62,-153 179.38,-153 179.38,-173.75"/>
<text xml:space="preserve" text-anchor="middle" x="139.5" y="-160.25" font-family="Helvetica,sans-Serif" font-size="10.00">display_error</text>
</a>
</g>
</g>
<!-- Node1&#45;&gt;Node2 -->
<g id="edge1_Node000001_Node000002" class="edge">
<title>Node1&#45;&gt;Node2</title>
<g id="a_edge1_Node000001_Node000002"><a xlink:title=" ">
<path fill="none" stroke="#63b8ff" d="M57.66,-157.39C67.01,-156.8 77.73,-156.55 88.23,-156.64"/>
<polygon fill="#63b8ff" stroke="#63b8ff" points="87.9,-160.14 97.97,-156.84 88.04,-153.14 87.9,-160.14"/>
</a>
</g>
</g>
<!-- Node17 -->
<g id="Node000017" class="node">
<title>Node17</title>
<g id="a_Node000017"><a xlink:href="../../de/d25/a00290.html#a4298f891699300bfc4e6e56fd2a8d574" target="_top" xlink:title="Get keycode from chyron.">
<polygon fill="white" stroke="#666666" points="185.75,-134.75 93.25,-134.75 93.25,-114 185.75,-114 185.75,-134.75"/>
<text xml:space="preserve" text-anchor="middle" x="139.5" y="-121.25" font-family="Helvetica,sans-Serif" font-size="10.00">get_chyron_key</text>
</a>
</g>
</g>
<!-- Node1&#45;&gt;Node17 -->
<g id="edge22_Node000001_Node000017" class="edge">
<title>Node1&#45;&gt;Node17</title>
<g id="a_edge22_Node000001_Node000017"><a xlink:title=" ">
<path fill="none" stroke="#63b8ff" d="M57.66,-153.33C69.77,-148.99 84.18,-143.83 97.46,-139.08"/>
<polygon fill="#63b8ff" stroke="#63b8ff" points="98.61,-142.38 106.84,-135.72 96.25,-135.79 98.61,-142.38"/>
</a>
</g>
</g>
<!-- Node2&#45;&gt;Node1 -->
<g id="edge21_Node000002_Node000001" class="edge">
<title>Node2&#45;&gt;Node1</title>
<g id="a_edge21_Node000002_Node000001"><a xlink:title=" ">
<path fill="none" stroke="#63b8ff" d="M99.48,-169.88C89.54,-170.2 78.86,-170.21 68.92,-169.89"/>
<polygon fill="#63b8ff" stroke="#63b8ff" points="69.33,-166.4 59.17,-169.43 69,-173.4 69.33,-166.4"/>
</a>
</g>
</g>
<!-- Node3 -->
<g id="Node000003" class="node">
<title>Node3</title>
<g id="a_Node000003"><a xlink:href="../../de/d25/a00290.html#a8f6c45ca4a7f6a41c4c88314e697565a" target="_top" xlink:title="Abnormal program termination.">
<polygon fill="white" stroke="#666666" points="407.88,-250.75 361.88,-250.75 361.88,-230 407.88,-230 407.88,-250.75"/>
<text xml:space="preserve" text-anchor="middle" x="384.88" y="-237.25" font-family="Helvetica,sans-Serif" font-size="10.00">abend</text>
</a>
</g>
</g>
<!-- Node2&#45;&gt;Node3 -->
<g id="edge2_Node000002_Node000003" class="edge">
<title>Node2&#45;&gt;Node3</title>
<g id="a_edge2_Node000002_Node000003"><a xlink:title=" ">
<path fill="none" stroke="#63b8ff" d="M145.53,-174.19C156.11,-195.46 182.93,-242.25 221.75,-260.38 263.19,-279.72 316.76,-266.76 350.73,-254.51"/>
<polygon fill="#63b8ff" stroke="#63b8ff" points="351.93,-257.8 360.04,-250.97 349.45,-251.25 351.93,-257.8"/>
</a>
</g>
</g>
<!-- Node7 -->
<g id="Node000007" class="node">
<title>Node7</title>
<g id="a_Node000007"><a xlink:href="../../de/d25/a00290.html#a645871e46277e31736bc36d0f3dce4bd" target="_top" xlink:title="construct the chyron string from the chyron structure">
<polygon fill="white" stroke="#666666" points="315,-327.75 221.75,-327.75 221.75,-307 315,-307 315,-327.75"/>
<text xml:space="preserve" text-anchor="middle" x="268.38" y="-314.25" font-family="Helvetica,sans-Serif" font-size="10.00">compile_chyron</text>
</a>
</g>
</g>
<!-- Node2&#45;&gt;Node7 -->
<g id="edge8_Node000002_Node000007" class="edge">
<title>Node2&#45;&gt;Node7</title>
<g id="a_edge8_Node000002_Node000007"><a xlink:title=" ">
<path fill="none" stroke="#63b8ff" d="M144.86,-174.12C155.09,-198.19 182.74,-257.16 221.75,-293.38 224.66,-296.08 227.93,-298.56 231.35,-300.82"/>
<polygon fill="#63b8ff" stroke="#63b8ff" points="229.5,-303.8 239.9,-305.84 233.04,-297.76 229.5,-303.8"/>
</a>
</g>
</g>
<!-- Node9 -->
<g id="Node000009" class="node">
<title>Node9</title>
<g id="a_Node000009"><a xlink:href="../../de/d25/a00290.html#a3f3feb40fd703913c5c136331f627c91" target="_top" xlink:title="Destroy Chyron structure.">
<polygon fill="white" stroke="#666666" points="313.88,-251.75 222.88,-251.75 222.88,-231 313.88,-231 313.88,-251.75"/>
<text xml:space="preserve" text-anchor="middle" x="268.38" y="-238.25" font-family="Helvetica,sans-Serif" font-size="10.00">destroy_chyron</text>
</a>
</g>
</g>
<!-- Node2&#45;&gt;Node9 -->
<g id="edge10_Node000002_Node000009" class="edge">
<title>Node2&#45;&gt;Node9</title>
<g id="a_edge10_Node000002_Node000009"><a xlink:title=" ">
<path fill="none" stroke="#63b8ff" d="M153.73,-174.13C169.35,-186.51 196.43,-207 221.75,-221.38 224.41,-222.88 227.2,-224.36 230.04,-225.78"/>
<polygon fill="#63b8ff" stroke="#63b8ff" points="228.48,-228.91 239.01,-230 231.46,-222.58 228.48,-228.91"/>
</a>
</g>
</g>
<!-- Node10 -->
<g id="Node000010" class="node">
<title>Node10</title>
<g id="a_Node000010"><a xlink:href="../../de/d25/a00290.html#ad37d5808ff30ae6894780425d865abae" target="_top" xlink:title="Create and initialize Chyron structure.">
<polygon fill="white" stroke="#666666" points="305.62,-212.75 231.12,-212.75 231.12,-192 305.62,-192 305.62,-212.75"/>
<text xml:space="preserve" text-anchor="middle" x="268.38" y="-199.25" font-family="Helvetica,sans-Serif" font-size="10.00">new_chyron</text>
</a>
</g>
</g>
<!-- Node2&#45;&gt;Node10 -->
<g id="edge11_Node000002_Node000010" class="edge">
<title>Node2&#45;&gt;Node10</title>
<g id="a_edge11_Node000002_Node000010"><a xlink:title=" ">
<path fill="none" stroke="#63b8ff" d="M175.84,-174.24C190,-178.59 206.5,-183.66 221.56,-188.29"/>
<polygon fill="#63b8ff" stroke="#63b8ff" points="220.19,-191.53 230.78,-191.12 222.25,-184.84 220.19,-191.53"/>
</a>
</g>
</g>
<!-- Node11 -->
<g id="Node000011" class="node">
<title>Node11</title>
<g id="a_Node000011"><a xlink:href="../../de/d25/a00290.html#a208ce92c197fdd6d2b007987e534aa3b" target="_top" xlink:title="Set chyron key.">
<polygon fill="white" stroke="#666666" points="314.25,-173.75 222.5,-173.75 222.5,-153 314.25,-153 314.25,-173.75"/>
<text xml:space="preserve" text-anchor="middle" x="268.38" y="-160.25" font-family="Helvetica,sans-Serif" font-size="10.00">set_chyron_key</text>
</a>
</g>
</g>
<!-- Node2&#45;&gt;Node11 -->
<g id="edge13_Node000002_Node000011" class="edge">
<title>Node2&#45;&gt;Node11</title>
<g id="a_edge13_Node000002_Node000011"><a xlink:title=" ">
<path fill="none" stroke="#63b8ff" d="M179.6,-163.38C189.55,-163.38 200.43,-163.38 211.05,-163.38"/>
<polygon fill="#63b8ff" stroke="#63b8ff" points="210.89,-166.88 220.89,-163.38 210.89,-159.88 210.89,-166.88"/>
</a>
</g>
</g>
<!-- Node12 -->
<g id="Node000012" class="node">
<title>Node12</title>
<g id="a_Node000012"><a xlink:href="../../db/dc3/a00284.html#a63eb94756fb011a456a3dec900709cd8" target="_top" xlink:title="ssnprintf was designed to be a safer alternative to snprintf.">
<polygon fill="white" stroke="#666666" points="414.25,-144.75 355.5,-144.75 355.5,-124 414.25,-124 414.25,-144.75"/>
<text xml:space="preserve" text-anchor="middle" x="384.88" y="-131.25" font-family="Helvetica,sans-Serif" font-size="10.00">ssnprintf</text>
</a>
</g>
</g>
<!-- Node2&#45;&gt;Node12 -->
<g id="edge15_Node000002_Node000012" class="edge">
<title>Node2&#45;&gt;Node12</title>
<g id="a_edge15_Node000002_Node000012"><a xlink:title=" ">
<path fill="none" stroke="#63b8ff" d="M179.51,-152.85C192.81,-149.64 207.85,-146.41 221.75,-144.38 263,-138.32 310.68,-135.93 343.6,-134.98"/>
<polygon fill="#63b8ff" stroke="#63b8ff" points="343.6,-138.48 353.51,-134.73 343.43,-131.48 343.6,-138.48"/>
</a>
</g>
</g>
<!-- Node13 -->
<g id="Node000013" class="node">
<title>Node13</title>
<g id="a_Node000013"><a xlink:href="../../db/dc3/a00284.html#a0de2e40df9bd7efc8fd9afb8ad2257e6" target="_top" xlink:title="safer alternative to strncpy">
<polygon fill="white" stroke="#666666" points="418.75,-87.75 351,-87.75 351,-67 418.75,-67 418.75,-87.75"/>
<text xml:space="preserve" text-anchor="middle" x="384.88" y="-74.25" font-family="Helvetica,sans-Serif" font-size="10.00">strnz__cpy</text>
</a>
</g>
</g>
<!-- Node2&#45;&gt;Node13 -->
<g id="edge16_Node000002_Node000013" class="edge">
<title>Node2&#45;&gt;Node13</title>
<g id="a_edge16_Node000002_Node000013"><a xlink:title=" ">
<path fill="none" stroke="#63b8ff" d="M167.86,-152.64C183.57,-146.55 203.71,-138.87 221.75,-132.38 261.7,-117.98 307.54,-102.53 340.27,-91.68"/>
<polygon fill="#63b8ff" stroke="#63b8ff" points="341,-95.12 349.4,-88.66 338.8,-88.47 341,-95.12"/>
</a>
</g>
</g>
<!-- Node14 -->
<g id="Node000014" class="node">
<title>Node14</title>
<g id="a_Node000014"><a xlink:href="../../de/d25/a00290.html#a9dd598e1d49c8764af1eec42c682623e" target="_top" xlink:title="Delete the current window and its associated box window.">
<polygon fill="white" stroke="#666666" points="295.12,-59.75 241.62,-59.75 241.62,-39 295.12,-39 295.12,-59.75"/>
<text xml:space="preserve" text-anchor="middle" x="268.38" y="-46.25" font-family="Helvetica,sans-Serif" font-size="10.00">win_del</text>
</a>
</g>
</g>
<!-- Node2&#45;&gt;Node14 -->
<g id="edge17_Node000002_Node000014" class="edge">
<title>Node2&#45;&gt;Node14</title>
<g id="a_edge17_Node000002_Node000014"><a xlink:title=" ">
<path fill="none" stroke="#63b8ff" d="M172.4,-152.62C177.22,-150.08 181.88,-147.03 185.75,-143.38 211.2,-119.38 197.13,-98.23 221.75,-73.38 224.69,-70.4 228.09,-67.72 231.66,-65.31"/>
<polygon fill="#63b8ff" stroke="#63b8ff" points="233.23,-68.45 240.07,-60.36 229.68,-62.41 233.23,-68.45"/>
</a>
</g>
</g>
<!-- Node15 -->
<g id="Node000015" class="node">
<title>Node15</title>
<g id="a_Node000015"><a xlink:href="../../de/d25/a00290.html#a435c7bff7ffedb8f51c6de9259e36f6c" target="_top" xlink:title="Create a new window with optional box and title.">
<polygon fill="white" stroke="#666666" points="297.75,-20.75 239,-20.75 239,0 297.75,0 297.75,-20.75"/>
<text xml:space="preserve" text-anchor="middle" x="268.38" y="-7.25" font-family="Helvetica,sans-Serif" font-size="10.00">win_new</text>
</a>
</g>
</g>
<!-- Node2&#45;&gt;Node15 -->
<g id="edge18_Node000002_Node000015" class="edge">
<title>Node2&#45;&gt;Node15</title>
<g id="a_edge18_Node000002_Node000015"><a xlink:title=" ">
<path fill="none" stroke="#63b8ff" d="M173.86,-152.64C178.28,-150.14 182.42,-147.08 185.75,-143.38 220.96,-104.15 186.48,-69.55 221.75,-30.38 223.92,-27.96 226.43,-25.83 229.14,-23.95"/>
<polygon fill="#63b8ff" stroke="#63b8ff" points="230.59,-27.15 237.58,-19.19 227.15,-21.05 230.59,-27.15"/>
</a>
</g>
</g>
<!-- Node4 -->
<g id="Node000004" class="node">
<title>Node4</title>
<g id="a_Node000004"><a xlink:href="../../de/d25/a00290.html#afc0985a403e3eac0b2cd8f0fab500256" target="_top" xlink:title="Gracefully shut down NCurses and restore terminal settings.">
<polygon fill="white" stroke="#666666" points="544.25,-250.75 454.75,-250.75 454.75,-230 544.25,-230 544.25,-250.75"/>
<text xml:space="preserve" text-anchor="middle" x="499.5" y="-237.25" font-family="Helvetica,sans-Serif" font-size="10.00">destroy_curses</text>
</a>
</g>
</g>
<!-- Node3&#45;&gt;Node4 -->
<g id="edge3_Node000003_Node000004" class="edge">
<title>Node3&#45;&gt;Node4</title>
<g id="a_edge3_Node000003_Node000004"><a xlink:title=" ">
<path fill="none" stroke="#63b8ff" d="M408.13,-240.38C418.24,-240.38 430.69,-240.38 443.09,-240.38"/>
<polygon fill="#63b8ff" stroke="#63b8ff" points="442.88,-243.88 452.88,-240.38 442.88,-236.88 442.88,-243.88"/>
</a>
</g>
</g>
<!-- Node5 -->
<g id="Node000005" class="node">
<title>Node5</title>
<g id="a_Node000005"><a xlink:href="../../db/d7b/a00296.html#ac5e3adb304b78910fc77761ef6a743f0" target="_top" xlink:title="restore_shell_tioctl() &#45; restore shell terminal settings">
<polygon fill="white" stroke="#666666" points="689.25,-278.75 580.25,-278.75 580.25,-258 689.25,-258 689.25,-278.75"/>
<text xml:space="preserve" text-anchor="middle" x="634.75" y="-265.25" font-family="Helvetica,sans-Serif" font-size="10.00">restore_shell_tioctl</text>
</a>
</g>
</g>
<!-- Node3&#45;&gt;Node5 -->
<g id="edge6_Node000003_Node000005" class="edge">
<title>Node3&#45;&gt;Node5</title>
<g id="a_edge6_Node000003_Node000005"><a xlink:title=" ">
<path fill="none" stroke="#63b8ff" d="M408.25,-247.88C421.59,-252.03 438.95,-256.83 454.75,-259.38 492.15,-265.4 534.46,-267.73 568.55,-268.52"/>
<polygon fill="#63b8ff" stroke="#63b8ff" points="568.2,-272.01 578.26,-268.7 568.33,-265.01 568.2,-272.01"/>
</a>
</g>
</g>
<!-- Node6 -->
<g id="Node000006" class="node">
<title>Node6</title>
<g id="a_Node000006"><a xlink:href="../../dd/dd7/a00248.html#a06c1eb6cf3649dc187115565409f91af" target="_top" xlink:title="Set signal handlers to default behavior.">
<polygon fill="white" stroke="#666666" points="675.38,-230.75 594.12,-230.75 594.12,-210 675.38,-210 675.38,-230.75"/>
<text xml:space="preserve" text-anchor="middle" x="634.75" y="-217.25" font-family="Helvetica,sans-Serif" font-size="10.00">sig_dfl_mode</text>
</a>
</g>
</g>
<!-- Node3&#45;&gt;Node6 -->
<g id="edge7_Node000003_Node000006" class="edge">
<title>Node3&#45;&gt;Node6</title>
<g id="a_edge7_Node000003_Node000006"><a xlink:title=" ">
<path fill="none" stroke="#63b8ff" d="M408.21,-232.6C421.53,-228.37 438.9,-223.57 454.75,-221.38 497.53,-215.46 546.61,-215.67 582.54,-217.1"/>
<polygon fill="#63b8ff" stroke="#63b8ff" points="582.06,-220.58 592.21,-217.54 582.38,-213.59 582.06,-220.58"/>
</a>
</g>
</g>
<!-- Node4&#45;&gt;Node5 -->
<g id="edge4_Node000004_Node000005" class="edge">
<title>Node4&#45;&gt;Node5</title>
<g id="a_edge4_Node000004_Node000005"><a xlink:title=" ">
<path fill="none" stroke="#63b8ff" d="M544.5,-249.62C553.12,-251.43 562.32,-253.37 571.41,-255.28"/>
<polygon fill="#63b8ff" stroke="#63b8ff" points="570.41,-258.64 580.92,-257.27 571.85,-251.79 570.41,-258.64"/>
</a>
</g>
</g>
<!-- Node4&#45;&gt;Node6 -->
<g id="edge5_Node000004_Node000006" class="edge">
<title>Node4&#45;&gt;Node6</title>
<g id="a_edge5_Node000004_Node000006"><a xlink:title=" ">
<path fill="none" stroke="#63b8ff" d="M544.5,-233.77C556.69,-231.94 570.02,-229.94 582.58,-228.06"/>
<polygon fill="#63b8ff" stroke="#63b8ff" points="582.98,-231.54 592.35,-226.59 581.94,-224.61 582.98,-231.54"/>
</a>
</g>
</g>
<!-- Node8 -->
<g id="Node000008" class="node">
<title>Node8</title>
<g id="a_Node000008"><a xlink:href="../../db/dc3/a00284.html#aa0145c044cfdde3a1c83323410a59f25" target="_top" xlink:title="safer alternative to strncat">
<polygon fill="white" stroke="#666666" points="417.62,-327.75 352.12,-327.75 352.12,-307 417.62,-307 417.62,-327.75"/>
<text xml:space="preserve" text-anchor="middle" x="384.88" y="-314.25" font-family="Helvetica,sans-Serif" font-size="10.00">strnz__cat</text>
</a>
</g>
</g>
<!-- Node7&#45;&gt;Node8 -->
<g id="edge9_Node000007_Node000008" class="edge">
<title>Node7&#45;&gt;Node8</title>
<g id="a_edge9_Node000007_Node000008"><a xlink:title=" ">
<path fill="none" stroke="#63b8ff" d="M315.29,-317.38C323.58,-317.38 332.19,-317.38 340.41,-317.38"/>
<polygon fill="#63b8ff" stroke="#63b8ff" points="340.17,-320.88 350.17,-317.38 340.17,-313.88 340.17,-320.88"/>
</a>
</g>
</g>
<!-- Node10&#45;&gt;Node3 -->
<g id="edge12_Node000010_Node000003" class="edge">
<title>Node10&#45;&gt;Node3</title>
<g id="a_edge12_Node000010_Node000003"><a xlink:title=" ">
<path fill="none" stroke="#63b8ff" d="M301.88,-213.16C317.2,-218.25 335.45,-224.3 350.84,-229.41"/>
<polygon fill="#63b8ff" stroke="#63b8ff" points="349.43,-232.63 360.02,-232.46 351.63,-225.99 349.43,-232.63"/>
</a>
</g>
</g>
<!-- Node11&#45;&gt;Node12 -->
<g id="edge14_Node000011_Node000012" class="edge">
<title>Node11&#45;&gt;Node12</title>
<g id="a_edge14_Node000011_Node000012"><a xlink:title=" ">
<path fill="none" stroke="#63b8ff" d="M312.01,-152.58C322.56,-149.9 333.83,-147.05 344.23,-144.42"/>
<polygon fill="#63b8ff" stroke="#63b8ff" points="344.8,-147.88 353.64,-142.03 343.09,-141.1 344.8,-147.88"/>
</a>
</g>
</g>
<!-- Node15&#45;&gt;Node13 -->
<g id="edge20_Node000015_Node000013" class="edge">
<title>Node15&#45;&gt;Node13</title>
<g id="a_edge20_Node000015_Node000013"><a xlink:title=" ">
<path fill="none" stroke="#63b8ff" d="M296.32,-21.19C302.56,-23.97 309.1,-27.11 315,-30.38 330.84,-39.15 347.65,-50.58 360.7,-59.96"/>
<polygon fill="#63b8ff" stroke="#63b8ff" points="358.5,-62.69 368.64,-65.77 362.63,-57.04 358.5,-62.69"/>
</a>
</g>
</g>
<!-- Node16 -->
<g id="Node000016" class="node">
<title>Node16</title>
<g id="a_Node000016"><a xlink:href="../../de/d25/a00290.html#ac9adcf7339be4a05ab1a7350c236b8a5" target="_top" xlink:title="Draw a box around the specified window.">
<polygon fill="white" stroke="#666666" points="404.5,-20.75 365.25,-20.75 365.25,0 404.5,0 404.5,-20.75"/>
<text xml:space="preserve" text-anchor="middle" x="384.88" y="-7.25" font-family="Helvetica,sans-Serif" font-size="10.00">cbox</text>
</a>
</g>
</g>
<!-- Node15&#45;&gt;Node16 -->
<g id="edge19_Node000015_Node000016" class="edge">
<title>Node15&#45;&gt;Node16</title>
<g id="a_edge19_Node000015_Node000016"><a xlink:title=" ">
<path fill="none" stroke="#63b8ff" d="M297.97,-10.38C314.9,-10.38 336.32,-10.38 353.54,-10.38"/>
<polygon fill="#63b8ff" stroke="#63b8ff" points="353.44,-13.88 363.44,-10.38 353.44,-6.88 353.44,-13.88"/>
</a>
</g>
</g>
</g>
</svg>
