<?xml version="1.0" encoding="UTF-8" standalone="no"?>
<!DOCTYPE svg PUBLIC "-//W3C//DTD SVG 1.1//EN"
 "http://www.w3.org/Graphics/SVG/1.1/DTD/svg11.dtd">
<!-- Generated by graphviz version 14.1.2 (0)
 -->
<!-- Title: Perror Pages: 1 -->
<!--zoomable 436 -->

<svg id="main" version="1.1" xmlns="http://www.w3.org/2000/svg" xmlns:xlink="http://www.w3.org/1999/xlink" xml:space="preserve" onload="init(evt)">

<style type="text/css"><![CDATA[
.node, .edge {opacity: 0.7;}
.node.selected, .edge.selected {opacity: 1;}
.edge:hover path { stroke: red; }
.edge:hover polygon { stroke: red; fill: red; }
]]></style>

<defs>
  <circle id="rim" cx="0" cy="0" r="7"/>
  <circle id="rim2" cx="0" cy="0" r="3.5"/>
  <g id="zoomPlus">
    <use xlink:href="#rim" fill="#404040"><set attributeName="fill" to="#808080" begin="zoomplus.mouseover" end="zoomplus.mouseout"/></use>
    <path d="M-4,0h8M0,-4v8" fill="none" stroke="white" stroke-width="1.5" pointer-events="none"/>
  </g>
  <g id="zoomMin">
    <use xlink:href="#rim" fill="#404040"><set attributeName="fill" to="#808080" begin="zoomminus.mouseover" end="zoomminus.mouseout"/></use>
    <path d="M-4,0h8" fill="none" stroke="white" stroke-width="1.5" pointer-events="none"/>
  </g>
  <g id="arrowUp" transform="translate(30 24)">
    <use xlink:href="#rim"/>
    <path pointer-events="none" fill="none" stroke="white" stroke-width="1.5" d="M0,-3.0v7 M-2.5,-0.5L0,-3.0L2.5,-0.5"/>
  </g>
  <g id="arrowRight" transform="rotate(90) translate(36 -43)">
    <use xlink:href="#rim"/>
    <path pointer-events="none" fill="none" stroke="white" stroke-width="1.5" d="M0,-3.0v7 M-2.5,-0.5L0,-3.0L2.5,-0.5"/>
  </g>
  <g id="arrowDown" transform="rotate(180) translate(-30 -48)">
    <use xlink:href="#rim"/>
    <path pointer-events="none" fill="none" stroke="white" stroke-width="1.5" d="M0,-3.0v7 M-2.5,-0.5L0,-3.0L2.5,-0.5"/>
  </g>
  <g id="arrowLeft" transform="rotate(270) translate(-36 17)">
    <use xlink:href="#rim"/>
    <path pointer-events="none" fill="none" stroke="white" stroke-width="1.5" d="M0,-3.0v7 M-2.5,-0.5L0,-3.0L2.5,-0.5"/>
  </g>
  <g id="resetDef">
    <use xlink:href="#rim2" fill="#404040"><set attributeName="fill" to="#808080" begin="reset.mouseover" end="reset.mouseout"/></use>
  </g>
</defs>
<script type="application/ecmascript">
var viewWidth = 779;
var viewHeight = 436;
var sectionId = 'dynsection-29';
</script>
<script type="application/ecmascript" xlink:href="../../svg.min.js"/>
<svg id="graph" class="graph">
<g id="viewport">
<title>Perror</title>
<!-- Node1 -->
<g id="Node000001" class="node">
<title>Node1</title>
<g id="a_Node000001"><a xlink:title="Display a simple error message window or print to stderr.">
<polygon fill="#999999" stroke="#666666" points="45.25,-190.75 0,-190.75 0,-170 45.25,-170 45.25,-190.75"/>
<text xml:space="preserve" text-anchor="middle" x="22.62" y="-177.25" font-family="Helvetica,sans-Serif" font-size="10.00">Perror</text>
</a>
</g>
</g>
<!-- Node2 -->
<g id="Node000002" class="node">
<title>Node2</title>
<g id="a_Node000002"><a xlink:href="../../de/d25/a00290.html#a8f6c45ca4a7f6a41c4c88314e697565a" target="_top" xlink:title="Abnormal program termination.">
<polygon fill="white" stroke="#666666" points="489.12,-344.75 443.12,-344.75 443.12,-324 489.12,-324 489.12,-344.75"/>
<text xml:space="preserve" text-anchor="middle" x="466.12" y="-331.25" font-family="Helvetica,sans-Serif" font-size="10.00">abend</text>
</a>
</g>
</g>
<!-- Node1&#45;&gt;Node2 -->
<g id="edge1_Node000001_Node000002" class="edge">
<title>Node1&#45;&gt;Node2</title>
<g id="a_edge1_Node000001_Node000002"><a xlink:title=" ">
<path fill="none" stroke="#63b8ff" d="M26.44,-191.23C32.7,-213.31 49.73,-263.88 81.25,-293.38 114.18,-324.19 131.16,-320.92 174.5,-333.38 269.61,-360.7 298.19,-366.65 396.25,-353.38 408.02,-351.78 420.62,-348.72 431.78,-345.52"/>
<polygon fill="#63b8ff" stroke="#63b8ff" points="432.79,-348.87 441.35,-342.62 430.76,-342.17 432.79,-348.87"/>
</a>
</g>
</g>
<!-- Node6 -->
<g id="Node000006" class="node">
<title>Node6</title>
<g id="a_Node000006"><a xlink:href="../../de/d25/a00290.html#a645871e46277e31736bc36d0f3dce4bd" target="_top" xlink:title="construct the chyron string from the chyron structure">
<polygon fill="white" stroke="#666666" points="396.25,-420.75 303,-420.75 303,-400 396.25,-400 396.25,-420.75"/>
<text xml:space="preserve" text-anchor="middle" x="349.62" y="-407.25" font-family="Helvetica,sans-Serif" font-size="10.00">compile_chyron</text>
</a>
</g>
</g>
<!-- Node1&#45;&gt;Node6 -->
<g id="edge7_Node000001_Node000006" class="edge">
<title>Node1&#45;&gt;Node6</title>
<g id="a_edge7_Node000001_Node000006"><a xlink:title=" ">
<path fill="none" stroke="#63b8ff" d="M25.04,-191.2C30.31,-229.91 50.2,-360.55 81.25,-386.38 139.65,-434.95 232.08,-431.4 291.52,-422.41"/>
<polygon fill="#63b8ff" stroke="#63b8ff" points="291.78,-425.91 301.09,-420.86 290.66,-419 291.78,-425.91"/>
</a>
</g>
</g>
<!-- Node8 -->
<g id="Node000008" class="node">
<title>Node8</title>
<g id="a_Node000008"><a xlink:href="../../de/d25/a00290.html#a3f3feb40fd703913c5c136331f627c91" target="_top" xlink:title="Destroy Chyron structure.">
<polygon fill="white" stroke="#666666" points="395.12,-305.75 304.12,-305.75 304.12,-285 395.12,-285 395.12,-305.75"/>
<text xml:space="preserve" text-anchor="middle" x="349.62" y="-292.25" font-family="Helvetica,sans-Serif" font-size="10.00">destroy_chyron</text>
</a>
</g>
</g>
<!-- Node1&#45;&gt;Node8 -->
<g id="edge9_Node000001_Node000008" class="edge">
<title>Node1&#45;&gt;Node8</title>
<g id="a_edge9_Node000001_Node000008"><a xlink:title=" ">
<path fill="none" stroke="#63b8ff" d="M31.29,-191.03C41.27,-204.07 59.97,-225.84 81.25,-237.38 148.25,-273.7 236.29,-287.27 292.68,-292.35"/>
<polygon fill="#63b8ff" stroke="#63b8ff" points="292.11,-295.81 302.36,-293.15 292.69,-288.83 292.11,-295.81"/>
</a>
</g>
</g>
<!-- Node9 -->
<g id="Node000009" class="node">
<title>Node9</title>
<g id="a_Node000009"><a xlink:href="../../de/d25/a00290.html#ad37d5808ff30ae6894780425d865abae" target="_top" xlink:title="Create and initialize Chyron structure.">
<polygon fill="white" stroke="#666666" points="386.88,-344.75 312.38,-344.75 312.38,-324 386.88,-324 386.88,-344.75"/>
<text xml:space="preserve" text-anchor="middle" x="349.62" y="-331.25" font-family="Helvetica,sans-Serif" font-size="10.00">new_chyron</text>
</a>
</g>
</g>
<!-- Node1&#45;&gt;Node9 -->
<g id="edge10_Node000001_Node000009" class="edge">
<title>Node1&#45;&gt;Node9</title>
<g id="a_edge10_Node000001_Node000009"><a xlink:title=" ">
<path fill="none" stroke="#63b8ff" d="M28.36,-191.19C36.6,-208.8 55.22,-243.7 81.25,-263.38 146.49,-312.69 243.22,-327.81 300.7,-332.41"/>
<polygon fill="#63b8ff" stroke="#63b8ff" points="300.26,-335.89 310.49,-333.11 300.76,-328.91 300.26,-335.89"/>
</a>
</g>
</g>
<!-- Node10 -->
<g id="Node000010" class="node">
<title>Node10</title>
<g id="a_Node000010"><a xlink:href="../../de/d25/a00290.html#a208ce92c197fdd6d2b007987e534aa3b" target="_top" xlink:title="Set chyron key.">
<polygon fill="white" stroke="#666666" points="395.5,-191.75 303.75,-191.75 303.75,-171 395.5,-171 395.5,-191.75"/>
<text xml:space="preserve" text-anchor="middle" x="349.62" y="-178.25" font-family="Helvetica,sans-Serif" font-size="10.00">set_chyron_key</text>
</a>
</g>
</g>
<!-- Node1&#45;&gt;Node10 -->
<g id="edge12_Node000001_Node000010" class="edge">
<title>Node1&#45;&gt;Node10</title>
<g id="a_edge12_Node000001_Node000010"><a xlink:title=" ">
<path fill="none" stroke="#63b8ff" d="M45.44,-180.29C88.03,-180.13 185.24,-179.87 267,-180.38 275.09,-180.42 283.62,-180.5 292.01,-180.59"/>
<polygon fill="#63b8ff" stroke="#63b8ff" points="291.74,-184.09 301.78,-180.7 291.82,-177.09 291.74,-184.09"/>
</a>
</g>
</g>
<!-- Node11 -->
<g id="Node000011" class="node">
<title>Node11</title>
<g id="a_Node000011"><a xlink:href="../../db/dc3/a00284.html#a63eb94756fb011a456a3dec900709cd8" target="_top" xlink:title="ssnprintf was designed to be a safer alternative to snprintf.">
<polygon fill="white" stroke="#666666" points="495.5,-191.75 436.75,-191.75 436.75,-171 495.5,-171 495.5,-191.75"/>
<text xml:space="preserve" text-anchor="middle" x="466.12" y="-178.25" font-family="Helvetica,sans-Serif" font-size="10.00">ssnprintf</text>
</a>
</g>
</g>
<!-- Node1&#45;&gt;Node11 -->
<g id="edge14_Node000001_Node000011" class="edge">
<title>Node1&#45;&gt;Node11</title>
<g id="a_edge14_Node000001_Node000011"><a xlink:title=" ">
<path fill="none" stroke="#63b8ff" d="M45.29,-171C115,-141.42 332.66,-53.93 396.25,-86.38 426.37,-101.74 446.38,-137.11 456.73,-160.09"/>
<polygon fill="#63b8ff" stroke="#63b8ff" points="453.44,-161.28 460.57,-169.12 459.88,-158.55 453.44,-161.28"/>
</a>
</g>
</g>
<!-- Node12 -->
<g id="Node000012" class="node">
<title>Node12</title>
<g id="a_Node000012"><a xlink:href="../../db/dc3/a00284.html#a0de2e40df9bd7efc8fd9afb8ad2257e6" target="_top" xlink:title="safer alternative to strncpy">
<polygon fill="white" stroke="#666666" points="500,-20.75 432.25,-20.75 432.25,0 500,0 500,-20.75"/>
<text xml:space="preserve" text-anchor="middle" x="466.12" y="-7.25" font-family="Helvetica,sans-Serif" font-size="10.00">strnz__cpy</text>
</a>
</g>
</g>
<!-- Node1&#45;&gt;Node12 -->
<g id="edge15_Node000001_Node000012" class="edge">
<title>Node1&#45;&gt;Node12</title>
<g id="a_edge15_Node000001_Node000012"><a xlink:title=" ">
<path fill="none" stroke="#63b8ff" d="M32.25,-169.63C42.91,-156.75 62.01,-134.97 81.25,-119.38 166.56,-50.22 195.21,-31.36 303,-10.38 342.12,-2.76 387.57,-3.57 420.38,-5.81"/>
<polygon fill="#63b8ff" stroke="#63b8ff" points="420.11,-9.3 430.35,-6.58 420.64,-2.32 420.11,-9.3"/>
</a>
</g>
</g>
<!-- Node13 -->
<g id="Node000013" class="node">
<title>Node13</title>
<g id="a_Node000013"><a xlink:href="../../de/d25/a00290.html#a9dd598e1d49c8764af1eec42c682623e" target="_top" xlink:title="Delete the current window and its associated box window.">
<polygon fill="white" stroke="#666666" points="376.38,-115.75 322.88,-115.75 322.88,-95 376.38,-95 376.38,-115.75"/>
<text xml:space="preserve" text-anchor="middle" x="349.62" y="-102.25" font-family="Helvetica,sans-Serif" font-size="10.00">win_del</text>
</a>
</g>
</g>
<!-- Node1&#45;&gt;Node13 -->
<g id="edge16_Node000001_Node000013" class="edge">
<title>Node1&#45;&gt;Node13</title>
<g id="a_edge16_Node000001_Node000013"><a xlink:title=" ">
<path fill="none" stroke="#63b8ff" d="M45.71,-175.28C100.54,-162.63 243.38,-129.66 311.47,-113.95"/>
<polygon fill="#63b8ff" stroke="#63b8ff" points="312.08,-117.4 321.03,-111.74 310.5,-110.58 312.08,-117.4"/>
</a>
</g>
</g>
<!-- Node14 -->
<g id="Node000014" class="node">
<title>Node14</title>
<g id="a_Node000014"><a xlink:href="../../de/d25/a00290.html#a435c7bff7ffedb8f51c6de9259e36f6c" target="_top" xlink:title="Create a new window with optional box and title.">
<polygon fill="white" stroke="#666666" points="379,-39.75 320.25,-39.75 320.25,-19 379,-19 379,-39.75"/>
<text xml:space="preserve" text-anchor="middle" x="349.62" y="-26.25" font-family="Helvetica,sans-Serif" font-size="10.00">win_new</text>
</a>
</g>
</g>
<!-- Node1&#45;&gt;Node14 -->
<g id="edge17_Node000001_Node000014" class="edge">
<title>Node1&#45;&gt;Node14</title>
<g id="a_edge17_Node000001_Node000014"><a xlink:title=" ">
<path fill="none" stroke="#63b8ff" d="M43.76,-169.55C54.76,-163.72 68.67,-156.49 81.25,-150.38 163.43,-110.43 261.69,-67.07 313.16,-44.68"/>
<polygon fill="#63b8ff" stroke="#63b8ff" points="314.55,-47.9 322.33,-40.7 311.76,-41.47 314.55,-47.9"/>
</a>
</g>
</g>
<!-- Node16 -->
<g id="Node000016" class="node">
<title>Node16</title>
<g id="a_Node000016"><a xlink:href="../../de/d25/a00290.html#acf4c709bccc4c965a5d61db978db31a3" target="_top" xlink:title="Wrapper for wgetch that handles signals and mouse events.">
<polygon fill="white" stroke="#666666" points="138.5,-228.75 81.25,-228.75 81.25,-208 138.5,-208 138.5,-228.75"/>
<text xml:space="preserve" text-anchor="middle" x="109.88" y="-215.25" font-family="Helvetica,sans-Serif" font-size="10.00">xwgetch</text>
</a>
</g>
</g>
<!-- Node1&#45;&gt;Node16 -->
<g id="edge20_Node000001_Node000016" class="edge">
<title>Node1&#45;&gt;Node16</title>
<g id="a_edge20_Node000001_Node000016"><a xlink:title=" ">
<path fill="none" stroke="#63b8ff" d="M45.58,-190.16C54.35,-194.07 64.65,-198.66 74.38,-203"/>
<polygon fill="#63b8ff" stroke="#63b8ff" points="72.65,-206.06 83.21,-206.94 75.5,-199.67 72.65,-206.06"/>
</a>
</g>
</g>
<!-- Node3 -->
<g id="Node000003" class="node">
<title>Node3</title>
<g id="a_Node000003"><a xlink:href="../../de/d25/a00290.html#afc0985a403e3eac0b2cd8f0fab500256" target="_top" xlink:title="Gracefully shut down NCurses and restore terminal settings.">
<polygon fill="white" stroke="#666666" points="625.5,-344.75 536,-344.75 536,-324 625.5,-324 625.5,-344.75"/>
<text xml:space="preserve" text-anchor="middle" x="580.75" y="-331.25" font-family="Helvetica,sans-Serif" font-size="10.00">destroy_curses</text>
</a>
</g>
</g>
<!-- Node2&#45;&gt;Node3 -->
<g id="edge2_Node000002_Node000003" class="edge">
<title>Node2&#45;&gt;Node3</title>
<g id="a_edge2_Node000002_Node000003"><a xlink:title=" ">
<path fill="none" stroke="#63b8ff" d="M489.38,-334.38C499.49,-334.38 511.94,-334.38 524.34,-334.38"/>
<polygon fill="#63b8ff" stroke="#63b8ff" points="524.13,-337.88 534.13,-334.38 524.13,-330.88 524.13,-337.88"/>
</a>
</g>
</g>
<!-- Node4 -->
<g id="Node000004" class="node">
<title>Node4</title>
<g id="a_Node000004"><a xlink:href="../../db/d7b/a00296.html#ac5e3adb304b78910fc77761ef6a743f0" target="_top" xlink:title="restore_shell_tioctl() &#45; restore shell terminal settings">
<polygon fill="white" stroke="#666666" points="770.5,-372.75 661.5,-372.75 661.5,-352 770.5,-352 770.5,-372.75"/>
<text xml:space="preserve" text-anchor="middle" x="716" y="-359.25" font-family="Helvetica,sans-Serif" font-size="10.00">restore_shell_tioctl</text>
</a>
</g>
</g>
<!-- Node2&#45;&gt;Node4 -->
<g id="edge5_Node000002_Node000004" class="edge">
<title>Node2&#45;&gt;Node4</title>
<g id="a_edge5_Node000002_Node000004"><a xlink:title=" ">
<path fill="none" stroke="#63b8ff" d="M489.5,-341.88C502.84,-346.03 520.2,-350.83 536,-353.38 573.4,-359.4 615.71,-361.73 649.8,-362.52"/>
<polygon fill="#63b8ff" stroke="#63b8ff" points="649.45,-366.01 659.51,-362.7 649.58,-359.01 649.45,-366.01"/>
</a>
</g>
</g>
<!-- Node5 -->
<g id="Node000005" class="node">
<title>Node5</title>
<g id="a_Node000005"><a xlink:href="../../dd/dd7/a00248.html#a06c1eb6cf3649dc187115565409f91af" target="_top" xlink:title="Set signal handlers to default behavior.">
<polygon fill="white" stroke="#666666" points="756.62,-324.75 675.38,-324.75 675.38,-304 756.62,-304 756.62,-324.75"/>
<text xml:space="preserve" text-anchor="middle" x="716" y="-311.25" font-family="Helvetica,sans-Serif" font-size="10.00">sig_dfl_mode</text>
</a>
</g>
</g>
<!-- Node2&#45;&gt;Node5 -->
<g id="edge6_Node000002_Node000005" class="edge">
<title>Node2&#45;&gt;Node5</title>
<g id="a_edge6_Node000002_Node000005"><a xlink:title=" ">
<path fill="none" stroke="#63b8ff" d="M489.46,-326.6C502.78,-322.37 520.15,-317.57 536,-315.38 578.78,-309.46 627.86,-309.67 663.79,-311.1"/>
<polygon fill="#63b8ff" stroke="#63b8ff" points="663.31,-314.58 673.46,-311.54 663.63,-307.59 663.31,-314.58"/>
</a>
</g>
</g>
<!-- Node3&#45;&gt;Node4 -->
<g id="edge3_Node000003_Node000004" class="edge">
<title>Node3&#45;&gt;Node4</title>
<g id="a_edge3_Node000003_Node000004"><a xlink:title=" ">
<path fill="none" stroke="#63b8ff" d="M625.75,-343.62C634.37,-345.43 643.57,-347.37 652.66,-349.28"/>
<polygon fill="#63b8ff" stroke="#63b8ff" points="651.66,-352.64 662.17,-351.27 653.1,-345.79 651.66,-352.64"/>
</a>
</g>
</g>
<!-- Node3&#45;&gt;Node5 -->
<g id="edge4_Node000003_Node000005" class="edge">
<title>Node3&#45;&gt;Node5</title>
<g id="a_edge4_Node000003_Node000005"><a xlink:title=" ">
<path fill="none" stroke="#63b8ff" d="M625.75,-327.77C637.94,-325.94 651.27,-323.94 663.83,-322.06"/>
<polygon fill="#63b8ff" stroke="#63b8ff" points="664.23,-325.54 673.6,-320.59 663.19,-318.61 664.23,-325.54"/>
</a>
</g>
</g>
<!-- Node7 -->
<g id="Node000007" class="node">
<title>Node7</title>
<g id="a_Node000007"><a xlink:href="../../db/dc3/a00284.html#aa0145c044cfdde3a1c83323410a59f25" target="_top" xlink:title="safer alternative to strncat">
<polygon fill="white" stroke="#666666" points="498.88,-420.75 433.38,-420.75 433.38,-400 498.88,-400 498.88,-420.75"/>
<text xml:space="preserve" text-anchor="middle" x="466.12" y="-407.25" font-family="Helvetica,sans-Serif" font-size="10.00">strnz__cat</text>
</a>
</g>
</g>
<!-- Node6&#45;&gt;Node7 -->
<g id="edge8_Node000006_Node000007" class="edge">
<title>Node6&#45;&gt;Node7</title>
<g id="a_edge8_Node000006_Node000007"><a xlink:title=" ">
<path fill="none" stroke="#63b8ff" d="M396.54,-410.38C404.83,-410.38 413.44,-410.38 421.66,-410.38"/>
<polygon fill="#63b8ff" stroke="#63b8ff" points="421.42,-413.88 431.42,-410.38 421.42,-406.88 421.42,-413.88"/>
</a>
</g>
</g>
<!-- Node9&#45;&gt;Node2 -->
<g id="edge11_Node000009_Node000002" class="edge">
<title>Node9&#45;&gt;Node2</title>
<g id="a_edge11_Node000009_Node000002"><a xlink:title=" ">
<path fill="none" stroke="#63b8ff" d="M387.17,-334.38C401.49,-334.38 417.8,-334.38 431.79,-334.38"/>
<polygon fill="#63b8ff" stroke="#63b8ff" points="431.39,-337.88 441.39,-334.38 431.39,-330.88 431.39,-337.88"/>
</a>
</g>
</g>
<!-- Node10&#45;&gt;Node11 -->
<g id="edge13_Node000010_Node000011" class="edge">
<title>Node10&#45;&gt;Node11</title>
<g id="a_edge13_Node000010_Node000011"><a xlink:title=" ">
<path fill="none" stroke="#63b8ff" d="M395.88,-181.38C405.46,-181.38 415.51,-181.38 424.89,-181.38"/>
<polygon fill="#63b8ff" stroke="#63b8ff" points="424.82,-184.88 434.82,-181.38 424.82,-177.88 424.82,-184.88"/>
</a>
</g>
</g>
<!-- Node14&#45;&gt;Node12 -->
<g id="edge19_Node000014_Node000012" class="edge">
<title>Node14&#45;&gt;Node12</title>
<g id="a_edge19_Node000014_Node000012"><a xlink:title=" ">
<path fill="none" stroke="#63b8ff" d="M379.22,-24.63C391.87,-22.53 407.03,-20.01 421.08,-17.68"/>
<polygon fill="#63b8ff" stroke="#63b8ff" points="421.24,-21.2 430.53,-16.11 420.1,-14.3 421.24,-21.2"/>
</a>
</g>
</g>
<!-- Node15 -->
<g id="Node000015" class="node">
<title>Node15</title>
<g id="a_Node000015"><a xlink:href="../../de/d25/a00290.html#ac9adcf7339be4a05ab1a7350c236b8a5" target="_top" xlink:title="Draw a box around the specified window.">
<polygon fill="white" stroke="#666666" points="485.75,-59.75 446.5,-59.75 446.5,-39 485.75,-39 485.75,-59.75"/>
<text xml:space="preserve" text-anchor="middle" x="466.12" y="-46.25" font-family="Helvetica,sans-Serif" font-size="10.00">cbox</text>
</a>
</g>
</g>
<!-- Node14&#45;&gt;Node15 -->
<g id="edge18_Node000014_Node000015" class="edge">
<title>Node14&#45;&gt;Node15</title>
<g id="a_edge18_Node000014_Node000015"><a xlink:title=" ">
<path fill="none" stroke="#63b8ff" d="M379.22,-34.37C396.23,-37.34 417.78,-41.11 435.04,-44.12"/>
<polygon fill="#63b8ff" stroke="#63b8ff" points="434.26,-47.54 444.71,-45.81 435.46,-40.64 434.26,-47.54"/>
</a>
</g>
</g>
<!-- Node17 -->
<g id="Node000017" class="node">
<title>Node17</title>
<g id="a_Node000017"><a xlink:href="../../de/d25/a00290.html#a67659f8a701b74f4dec0d36227a10d1c" target="_top" xlink:title="Display an error message window or print to stderr.">
<polygon fill="white" stroke="#666666" points="260.62,-248.75 180.88,-248.75 180.88,-228 260.62,-228 260.62,-248.75"/>
<text xml:space="preserve" text-anchor="middle" x="220.75" y="-235.25" font-family="Helvetica,sans-Serif" font-size="10.00">display_error</text>
</a>
</g>
</g>
<!-- Node16&#45;&gt;Node17 -->
<g id="edge21_Node000016_Node000017" class="edge">
<title>Node16&#45;&gt;Node17</title>
<g id="a_edge21_Node000016_Node000017"><a xlink:title=" ">
<path fill="none" stroke="#63b8ff" d="M138.91,-217.54C152.04,-219.13 167.86,-221.88 182.02,-224.99"/>
<polygon fill="#63b8ff" stroke="#63b8ff" points="180.92,-228.32 191.46,-227.19 182.52,-221.51 180.92,-228.32"/>
</a>
</g>
</g>
<!-- Node18 -->
<g id="Node000018" class="node">
<title>Node18</title>
<g id="a_Node000018"><a xlink:href="../../de/d25/a00290.html#a4298f891699300bfc4e6e56fd2a8d574" target="_top" xlink:title="Get keycode from chyron.">
<polygon fill="white" stroke="#666666" points="267,-209.75 174.5,-209.75 174.5,-189 267,-189 267,-209.75"/>
<text xml:space="preserve" text-anchor="middle" x="220.75" y="-196.25" font-family="Helvetica,sans-Serif" font-size="10.00">get_chyron_key</text>
</a>
</g>
</g>
<!-- Node16&#45;&gt;Node18 -->
<g id="edge32_Node000016_Node000018" class="edge">
<title>Node16&#45;&gt;Node18</title>
<g id="a_edge32_Node000016_Node000018"><a xlink:title=" ">
<path fill="none" stroke="#63b8ff" d="M138.91,-213.48C146.28,-212.2 154.49,-210.76 162.78,-209.32"/>
<polygon fill="#63b8ff" stroke="#63b8ff" points="163.33,-212.77 172.58,-207.61 162.12,-205.88 163.33,-212.77"/>
</a>
</g>
</g>
<!-- Node17&#45;&gt;Node2 -->
<g id="edge22_Node000017_Node000002" class="edge">
<title>Node17&#45;&gt;Node2</title>
<g id="a_edge22_Node000017_Node000002"><a xlink:title=" ">
<path fill="none" stroke="#63b8ff" d="M260.96,-241.47C297.54,-245.58 352.85,-255.03 396.25,-276.38 415.85,-286.02 434.58,-302.42 447.54,-315.32"/>
<polygon fill="#63b8ff" stroke="#63b8ff" points="445.01,-317.74 454.48,-322.49 450.04,-312.87 445.01,-317.74"/>
</a>
</g>
</g>
<!-- Node17&#45;&gt;Node6 -->
<g id="edge23_Node000017_Node000006" class="edge">
<title>Node17&#45;&gt;Node6</title>
<g id="a_edge23_Node000017_Node000006"><a xlink:title=" ">
<path fill="none" stroke="#63b8ff" d="M228.94,-248.99C242.86,-269.46 274.63,-315.67 303,-353.38 312.55,-366.07 323.68,-379.99 332.56,-390.9"/>
<polygon fill="#63b8ff" stroke="#63b8ff" points="329.68,-392.91 338.72,-398.43 335.1,-388.47 329.68,-392.91"/>
</a>
</g>
</g>
<!-- Node17&#45;&gt;Node8 -->
<g id="edge24_Node000017_Node000008" class="edge">
<title>Node17&#45;&gt;Node8</title>
<g id="a_edge24_Node000017_Node000008"><a xlink:title=" ">
<path fill="none" stroke="#63b8ff" d="M245.91,-249.23C265.23,-257.91 292.55,-270.18 314.15,-279.89"/>
<polygon fill="#63b8ff" stroke="#63b8ff" points="312.62,-283.03 323.17,-283.94 315.48,-276.65 312.62,-283.03"/>
</a>
</g>
</g>
<!-- Node17&#45;&gt;Node9 -->
<g id="edge25_Node000017_Node000009" class="edge">
<title>Node17&#45;&gt;Node9</title>
<g id="a_edge25_Node000017_Node000009"><a xlink:title=" ">
<path fill="none" stroke="#63b8ff" d="M231.07,-249.17C245.28,-265.11 273.81,-295.14 303,-314.38 305.11,-315.77 307.34,-317.1 309.62,-318.37"/>
<polygon fill="#63b8ff" stroke="#63b8ff" points="308,-321.48 318.5,-322.86 311.16,-315.23 308,-321.48"/>
</a>
</g>
</g>
<!-- Node17&#45;&gt;Node10 -->
<g id="edge26_Node000017_Node000010" class="edge">
<title>Node17&#45;&gt;Node10</title>
<g id="a_edge26_Node000017_Node000010"><a xlink:title=" ">
<path fill="none" stroke="#63b8ff" d="M246.19,-227.62C252.94,-224.64 260.26,-221.39 267,-218.38 282.77,-211.32 300.22,-203.42 314.92,-196.74"/>
<polygon fill="#63b8ff" stroke="#63b8ff" points="316.05,-200.07 323.7,-192.75 313.15,-193.7 316.05,-200.07"/>
</a>
</g>
</g>
<!-- Node17&#45;&gt;Node11 -->
<g id="edge27_Node000017_Node000011" class="edge">
<title>Node17&#45;&gt;Node11</title>
<g id="a_edge27_Node000017_Node000011"><a xlink:title=" ">
<path fill="none" stroke="#63b8ff" d="M261.05,-230.46C296.51,-223.16 350.04,-211.77 396.25,-200.38 405.77,-198.03 415.98,-195.32 425.55,-192.69"/>
<polygon fill="#63b8ff" stroke="#63b8ff" points="426.24,-196.13 434.94,-190.08 424.37,-189.39 426.24,-196.13"/>
</a>
</g>
</g>
<!-- Node17&#45;&gt;Node12 -->
<g id="edge28_Node000017_Node000012" class="edge">
<title>Node17&#45;&gt;Node12</title>
<g id="a_edge28_Node000017_Node000012"><a xlink:title=" ">
<path fill="none" stroke="#63b8ff" d="M252.88,-227.53C257.91,-224.99 262.82,-221.95 267,-218.38 289.48,-199.14 280.24,-181.28 303,-162.38 337.42,-133.78 364.94,-156.35 396.25,-124.38 427.55,-92.41 403.6,-64.74 432.25,-30.38 432.8,-29.72 433.37,-29.08 433.96,-28.46"/>
<polygon fill="#63b8ff" stroke="#63b8ff" points="436.04,-31.28 441.52,-22.21 431.58,-25.89 436.04,-31.28"/>
</a>
</g>
</g>
<!-- Node17&#45;&gt;Node13 -->
<g id="edge29_Node000017_Node000013" class="edge">
<title>Node17&#45;&gt;Node13</title>
<g id="a_edge29_Node000017_Node000013"><a xlink:title=" ">
<path fill="none" stroke="#63b8ff" d="M254.4,-227.67C259.02,-225.14 263.41,-222.08 267,-218.38 296.69,-187.73 274.37,-161.02 303,-129.38 305.87,-126.2 309.26,-123.38 312.88,-120.88"/>
<polygon fill="#63b8ff" stroke="#63b8ff" points="314.64,-123.9 321.47,-115.8 311.08,-117.88 314.64,-123.9"/>
</a>
</g>
</g>
<!-- Node17&#45;&gt;Node14 -->
<g id="edge30_Node000017_Node000014" class="edge">
<title>Node17&#45;&gt;Node14</title>
<g id="a_edge30_Node000017_Node000014"><a xlink:title=" ">
<path fill="none" stroke="#63b8ff" d="M255.71,-227.5C259.93,-225.03 263.86,-222.02 267,-218.38 306.66,-172.28 275.43,-140.57 303,-86.38 310.02,-72.57 320.74,-58.96 330.02,-48.5"/>
<polygon fill="#63b8ff" stroke="#63b8ff" points="332.45,-51.03 336.65,-41.3 327.3,-46.28 332.45,-51.03"/>
</a>
</g>
</g>
<!-- Node17&#45;&gt;Node16 -->
<g id="edge31_Node000017_Node000016" class="edge">
<title>Node17&#45;&gt;Node16</title>
<g id="a_edge31_Node000017_Node000016"><a xlink:title=" ">
<path fill="none" stroke="#63b8ff" d="M180.4,-237.66C170.12,-236.1 159.07,-234.06 148.86,-231.82"/>
<polygon fill="#63b8ff" stroke="#63b8ff" points="149.8,-228.45 139.26,-229.58 148.2,-235.26 149.8,-228.45"/>
</a>
</g>
</g>
</g>
</svg>

<g id="navigator" transform="translate(0 0)" fill="#404254">
  <rect fill="#f2f5e9" fill-opacity="0.5" stroke="#606060" stroke-width=".5" x="0" y="0" width="60" height="60"/>
  <use id="zoomplus" xlink:href="#zoomPlus" x="17" y="9" onmousedown="handleZoom(evt,'in')"/>
  <use id="zoomminus" xlink:href="#zoomMin" x="42" y="9" onmousedown="handleZoom(evt,'out')"/>
  <use id="reset" xlink:href="#resetDef" x="30" y="36" onmousedown="handleReset()"/>
   <use id="arrowup" xlink:href="#arrowUp" x="0" y="0" onmousedown="handlePan(0,-1)"/>
  <use id="arrowright" xlink:href="#arrowRight" x="0" y="0" onmousedown="handlePan(1,0)"/>
  <use id="arrowdown" xlink:href="#arrowDown" x="0" y="0" onmousedown="handlePan(0,1)"/>
  <use id="arrowleft" xlink:href="#arrowLeft" x="0" y="0" onmousedown="handlePan(-1,0)"/>
</g>
<svg viewBox="0 0 15 15" width="100%" height="30px" preserveAspectRatio="xMaxYMin meet">
 <g id="arrow_out" transform="scale(0.3 0.3)">
  <a xlink:href="a00290_a61b4f28456257f68ed042bed7f187efd_cgraph_org.svg" target="_base">
   <rect id="button" ry="5" rx="5" y="6" x="6" height="38" width="38"
        fill="#f2f5e9" fill-opacity="0.5" stroke="#606060" stroke-width="1.0"/>
   <path id="arrow"
     d="M 11.500037,31.436501 C 11.940474,20.09759 22.043105,11.32322 32.158766,21.979434 L 37.068811,17.246167 C 37.068811,17.246167 37.088388,32 37.088388,32 L 22.160133,31.978069 C 22.160133,31.978069 26.997745,27.140456 26.997745,27.140456 C 18.528582,18.264221 13.291696,25.230495 11.500037,31.436501 z"
     style="fill:#404040;"/>
  </a>
 </g>
</svg>

<style type='text/css'>
<![CDATA[
[data-mouse-over-selected='false'] { opacity: 0.7; }
[data-mouse-over-selected='true']  { opacity: 1.0; }
]]>
</style>
<script type="application/ecmascript"><![CDATA[
document.addEventListener('DOMContentLoaded', (event) => {
  highlightEdges();
  highlightAdjacentNodes();
});
]]></script>
</svg>
