<?xml version="1.0" encoding="UTF-8" standalone="no"?>
<!DOCTYPE svg PUBLIC "-//W3C//DTD SVG 1.1//EN"
 "http://www.w3.org/Graphics/SVG/1.1/DTD/svg11.dtd">
<!-- Generated by graphviz version 14.1.2 (0)
 -->
<!-- Title: get_clr_pair Pages: 1 -->
<!--zoomable 388 -->

<svg id="main" version="1.1" xmlns="http://www.w3.org/2000/svg" xmlns:xlink="http://www.w3.org/1999/xlink" xml:space="preserve" onload="init(evt)">

<style type="text/css"><![CDATA[
.node, .edge {opacity: 0.7;}
.node.selected, .edge.selected {opacity: 1;}
.edge:hover path { stroke: red; }
.edge:hover polygon { stroke: red; fill: red; }
]]></style>

<defs>
  <circle id="rim" cx="0" cy="0" r="7"/>
  <circle id="rim2" cx="0" cy="0" r="3.5"/>
  <g id="zoomPlus">
    <use xlink:href="#rim" fill="#404040"><set attributeName="fill" to="#808080" begin="zoomplus.mouseover" end="zoomplus.mouseout"/></use>
    <path d="M-4,0h8M0,-4v8" fill="none" stroke="white" stroke-width="1.5" pointer-events="none"/>
  </g>
  <g id="zoomMin">
    <use xlink:href="#rim" fill="#404040"><set attributeName="fill" to="#808080" begin="zoomminus.mouseover" end="zoomminus.mouseout"/></use>
    <path d="M-4,0h8" fill="none" stroke="white" stroke-width="1.5" pointer-events="none"/>
  </g>
  <g id="arrowUp" transform="translate(30 24)">
    <use xlink:href="#rim"/>
    <path pointer-events="none" fill="none" stroke="white" stroke-width="1.5" d="M0,-3.0v7 M-2.5,-0.5L0,-3.0L2.5,-0.5"/>
  </g>
  <g id="arrowRight" transform="rotate(90) translate(36 -43)">
    <use xlink:href="#rim"/>
    <path pointer-events="none" fill="none" stroke="white" stroke-width="1.5" d="M0,-3.0v7 M-2.5,-0.5L0,-3.0L2.5,-0.5"/>
  </g>
  <g id="arrowDown" transform="rotate(180) translate(-30 -48)">
    <use xlink:href="#rim"/>
    <path pointer-events="none" fill="none" stroke="white" stroke-width="1.5" d="M0,-3.0v7 M-2.5,-0.5L0,-3.0L2.5,-0.5"/>
  </g>
  <g id="arrowLeft" transform="rotate(270) translate(-36 17)">
    <use xlink:href="#rim"/>
    <path pointer-events="none" fill="none" stroke="white" stroke-width="1.5" d="M0,-3.0v7 M-2.5,-0.5L0,-3.0L2.5,-0.5"/>
  </g>
  <g id="resetDef">
    <use xlink:href="#rim2" fill="#404040"><set attributeName="fill" to="#808080" begin="reset.mouseover" end="reset.mouseout"/></use>
  </g>
</defs>
<script type="application/ecmascript">
var viewWidth = 725;
var viewHeight = 388;
var sectionId = 'dynsection-15';
</script>
<script type="application/ecmascript" xlink:href="../../svg.min.js"/>
<svg id="graph" class="graph">
<g id="viewport">
<title>get_clr_pair</title>
<!-- Node1 -->
<g id="Node000001" class="node">
<title>Node1</title>
<g id="a_Node000001"><a xlink:title="Get color pair index for foreground and background colors.">
<polygon fill="#999999" stroke="#666666" points="73,-91.53 0,-91.53 0,-70.78 73,-70.78 73,-91.53"/>
<text xml:space="preserve" text-anchor="middle" x="36.5" y="-78.03" font-family="Helvetica,sans-Serif" font-size="10.00">get_clr_pair</text>
</a>
</g>
</g>
<!-- Node2 -->
<g id="Node000002" class="node">
<title>Node2</title>
<g id="a_Node000002"><a xlink:href="../../de/d25/a00290.html#a67659f8a701b74f4dec0d36227a10d1c" target="_top" xlink:title="Display an error message window or print to stderr.">
<polygon fill="white" stroke="#666666" points="188.75,-206.53 109,-206.53 109,-185.78 188.75,-185.78 188.75,-206.53"/>
<text xml:space="preserve" text-anchor="middle" x="148.88" y="-193.03" font-family="Helvetica,sans-Serif" font-size="10.00">display_error</text>
</a>
</g>
</g>
<!-- Node1&#45;&gt;Node2 -->
<g id="edge1_Node000001_Node000002" class="edge">
<title>Node1&#45;&gt;Node2</title>
<g id="a_edge1_Node000001_Node000002"><a xlink:title=" ">
<path fill="none" stroke="#63b8ff" d="M47.69,-91.77C66.41,-111.28 106.53,-153.08 129.92,-177.45"/>
<polygon fill="#63b8ff" stroke="#63b8ff" points="127.22,-179.69 136.67,-184.48 132.27,-174.84 127.22,-179.69"/>
</a>
</g>
</g>
<!-- Node12 -->
<g id="Node000012" class="node">
<title>Node12</title>
<g id="a_Node000012"><a xlink:href="../../db/dc3/a00284.html#a63eb94756fb011a456a3dec900709cd8" target="_top" xlink:title="ssnprintf was designed to be a safer alternative to snprintf.">
<polygon fill="white" stroke="#666666" points="429.62,-34.53 370.88,-34.53 370.88,-13.78 429.62,-13.78 429.62,-34.53"/>
<text xml:space="preserve" text-anchor="middle" x="400.25" y="-21.03" font-family="Helvetica,sans-Serif" font-size="10.00">ssnprintf</text>
</a>
</g>
</g>
<!-- Node1&#45;&gt;Node12 -->
<g id="edge24_Node000001_Node000012" class="edge">
<title>Node1&#45;&gt;Node12</title>
<g id="a_edge24_Node000001_Node000012"><a xlink:title=" ">
<path fill="none" stroke="#63b8ff" d="M56.94,-70.31C90.12,-52.49 160.36,-17.73 224.75,-5.16 265.43,2.78 276.83,-0.41 318,-5.16 331.69,-6.74 346.43,-9.77 359.54,-12.95"/>
<polygon fill="#63b8ff" stroke="#63b8ff" points="358.56,-16.31 369.11,-15.38 360.28,-9.53 358.56,-16.31"/>
</a>
</g>
</g>
<!-- Node3 -->
<g id="Node000003" class="node">
<title>Node3</title>
<g id="a_Node000003"><a xlink:href="../../de/d25/a00290.html#a8f6c45ca4a7f6a41c4c88314e697565a" target="_top" xlink:title="Abnormal program termination.">
<polygon fill="white" stroke="#666666" points="423.25,-168.53 377.25,-168.53 377.25,-147.78 423.25,-147.78 423.25,-168.53"/>
<text xml:space="preserve" text-anchor="middle" x="400.25" y="-155.03" font-family="Helvetica,sans-Serif" font-size="10.00">abend</text>
</a>
</g>
</g>
<!-- Node2&#45;&gt;Node3 -->
<g id="edge2_Node000002_Node000003" class="edge">
<title>Node2&#45;&gt;Node3</title>
<g id="a_edge2_Node000002_Node000003"><a xlink:title=" ">
<path fill="none" stroke="#63b8ff" d="M189.11,-190.18C237.82,-182.76 320.04,-170.23 365.86,-163.25"/>
<polygon fill="#63b8ff" stroke="#63b8ff" points="366.1,-166.75 375.46,-161.78 365.04,-159.83 366.1,-166.75"/>
</a>
</g>
</g>
<!-- Node7 -->
<g id="Node000007" class="node">
<title>Node7</title>
<g id="a_Node000007"><a xlink:href="../../de/d25/a00290.html#a645871e46277e31736bc36d0f3dce4bd" target="_top" xlink:title="construct the chyron string from the chyron structure">
<polygon fill="white" stroke="#666666" points="318,-340.53 224.75,-340.53 224.75,-319.78 318,-319.78 318,-340.53"/>
<text xml:space="preserve" text-anchor="middle" x="271.38" y="-327.03" font-family="Helvetica,sans-Serif" font-size="10.00">compile_chyron</text>
</a>
</g>
</g>
<!-- Node2&#45;&gt;Node7 -->
<g id="edge8_Node000002_Node000007" class="edge">
<title>Node2&#45;&gt;Node7</title>
<g id="a_edge8_Node000002_Node000007"><a xlink:title=" ">
<path fill="none" stroke="#63b8ff" d="M154.29,-206.74C163.98,-228.77 189.11,-280.06 224.75,-310.16 226.2,-311.39 227.74,-312.55 229.35,-313.65"/>
<polygon fill="#63b8ff" stroke="#63b8ff" points="227.31,-316.52 237.71,-318.55 230.84,-310.47 227.31,-316.52"/>
</a>
</g>
</g>
<!-- Node9 -->
<g id="Node000009" class="node">
<title>Node9</title>
<g id="a_Node000009"><a xlink:href="../../de/d25/a00290.html#a3f3feb40fd703913c5c136331f627c91" target="_top" xlink:title="Destroy Chyron structure.">
<polygon fill="white" stroke="#666666" points="316.88,-225.53 225.88,-225.53 225.88,-204.78 316.88,-204.78 316.88,-225.53"/>
<text xml:space="preserve" text-anchor="middle" x="271.38" y="-212.03" font-family="Helvetica,sans-Serif" font-size="10.00">destroy_chyron</text>
</a>
</g>
</g>
<!-- Node2&#45;&gt;Node9 -->
<g id="edge10_Node000002_Node000009" class="edge">
<title>Node2&#45;&gt;Node9</title>
<g id="a_edge10_Node000002_Node000009"><a xlink:title=" ">
<path fill="none" stroke="#63b8ff" d="M189,-202.33C197.12,-203.61 205.83,-204.98 214.42,-206.34"/>
<polygon fill="#63b8ff" stroke="#63b8ff" points="213.67,-209.76 224.1,-207.86 214.76,-202.85 213.67,-209.76"/>
</a>
</g>
</g>
<!-- Node10 -->
<g id="Node000010" class="node">
<title>Node10</title>
<g id="a_Node000010"><a xlink:href="../../de/d25/a00290.html#ad37d5808ff30ae6894780425d865abae" target="_top" xlink:title="Create and initialize Chyron structure.">
<polygon fill="white" stroke="#666666" points="308.62,-149.53 234.12,-149.53 234.12,-128.78 308.62,-128.78 308.62,-149.53"/>
<text xml:space="preserve" text-anchor="middle" x="271.38" y="-136.03" font-family="Helvetica,sans-Serif" font-size="10.00">new_chyron</text>
</a>
</g>
</g>
<!-- Node2&#45;&gt;Node10 -->
<g id="edge11_Node000002_Node000010" class="edge">
<title>Node2&#45;&gt;Node10</title>
<g id="a_edge11_Node000002_Node000010"><a xlink:title=" ">
<path fill="none" stroke="#63b8ff" d="M172.82,-185.3C191.08,-176.67 216.88,-164.46 237.36,-154.78"/>
<polygon fill="#63b8ff" stroke="#63b8ff" points="238.6,-158.06 246.14,-150.62 235.61,-151.73 238.6,-158.06"/>
</a>
</g>
</g>
<!-- Node11 -->
<g id="Node000011" class="node">
<title>Node11</title>
<g id="a_Node000011"><a xlink:href="../../de/d25/a00290.html#a208ce92c197fdd6d2b007987e534aa3b" target="_top" xlink:title="Set chyron key.">
<polygon fill="white" stroke="#666666" points="317.25,-34.53 225.5,-34.53 225.5,-13.78 317.25,-13.78 317.25,-34.53"/>
<text xml:space="preserve" text-anchor="middle" x="271.38" y="-21.03" font-family="Helvetica,sans-Serif" font-size="10.00">set_chyron_key</text>
</a>
</g>
</g>
<!-- Node2&#45;&gt;Node11 -->
<g id="edge13_Node000002_Node000011" class="edge">
<title>Node2&#45;&gt;Node11</title>
<g id="a_edge13_Node000002_Node000011"><a xlink:title=" ">
<path fill="none" stroke="#63b8ff" d="M152.79,-185.5C160.46,-159.15 183.54,-90.02 224.75,-48.16 227.47,-45.39 230.57,-42.88 233.86,-40.61"/>
<polygon fill="#63b8ff" stroke="#63b8ff" points="235.36,-43.79 242.11,-35.63 231.74,-37.8 235.36,-43.79"/>
</a>
</g>
</g>
<!-- Node2&#45;&gt;Node12 -->
<g id="edge15_Node000002_Node000012" class="edge">
<title>Node2&#45;&gt;Node12</title>
<g id="a_edge15_Node000002_Node000012"><a xlink:title=" ">
<path fill="none" stroke="#63b8ff" d="M153.9,-185.55C163,-162.97 187.33,-109.88 224.75,-81.16 246.03,-64.82 314.78,-45.32 359.37,-33.88"/>
<polygon fill="#63b8ff" stroke="#63b8ff" points="360.11,-37.31 368.95,-31.46 358.4,-30.52 360.11,-37.31"/>
</a>
</g>
</g>
<!-- Node13 -->
<g id="Node000013" class="node">
<title>Node13</title>
<g id="a_Node000013"><a xlink:href="../../db/dc3/a00284.html#a0de2e40df9bd7efc8fd9afb8ad2257e6" target="_top" xlink:title="safer alternative to strncpy">
<polygon fill="white" stroke="#666666" points="434.12,-262.53 366.38,-262.53 366.38,-241.78 434.12,-241.78 434.12,-262.53"/>
<text xml:space="preserve" text-anchor="middle" x="400.25" y="-249.03" font-family="Helvetica,sans-Serif" font-size="10.00">strnz__cpy</text>
</a>
</g>
</g>
<!-- Node2&#45;&gt;Node13 -->
<g id="edge16_Node000002_Node000013" class="edge">
<title>Node2&#45;&gt;Node13</title>
<g id="a_edge16_Node000002_Node000013"><a xlink:title=" ">
<path fill="none" stroke="#63b8ff" d="M166.67,-206.96C181.38,-215.84 203.63,-227.94 224.75,-234.16 267.85,-246.84 319.23,-250.89 355.03,-252.03"/>
<polygon fill="#63b8ff" stroke="#63b8ff" points="354.48,-255.52 364.56,-252.27 354.66,-248.52 354.48,-255.52"/>
</a>
</g>
</g>
<!-- Node14 -->
<g id="Node000014" class="node">
<title>Node14</title>
<g id="a_Node000014"><a xlink:href="../../de/d25/a00290.html#a9dd598e1d49c8764af1eec42c682623e" target="_top" xlink:title="Delete the current window and its associated box window.">
<polygon fill="white" stroke="#666666" points="298.12,-110.53 244.62,-110.53 244.62,-89.78 298.12,-89.78 298.12,-110.53"/>
<text xml:space="preserve" text-anchor="middle" x="271.38" y="-97.03" font-family="Helvetica,sans-Serif" font-size="10.00">win_del</text>
</a>
</g>
</g>
<!-- Node2&#45;&gt;Node14 -->
<g id="edge17_Node000002_Node000014" class="edge">
<title>Node2&#45;&gt;Node14</title>
<g id="a_edge17_Node000002_Node000014"><a xlink:title=" ">
<path fill="none" stroke="#63b8ff" d="M158.28,-185.31C171.14,-169.29 197.14,-139.17 224.75,-120.16 227.74,-118.1 230.98,-116.18 234.3,-114.4"/>
<polygon fill="#63b8ff" stroke="#63b8ff" points="235.53,-117.7 243,-110.19 232.48,-111.4 235.53,-117.7"/>
</a>
</g>
</g>
<!-- Node15 -->
<g id="Node000015" class="node">
<title>Node15</title>
<g id="a_Node000015"><a xlink:href="../../de/d25/a00290.html#a435c7bff7ffedb8f51c6de9259e36f6c" target="_top" xlink:title="Create a new window with optional box and title.">
<polygon fill="white" stroke="#666666" points="300.75,-301.53 242,-301.53 242,-280.78 300.75,-280.78 300.75,-301.53"/>
<text xml:space="preserve" text-anchor="middle" x="271.38" y="-288.03" font-family="Helvetica,sans-Serif" font-size="10.00">win_new</text>
</a>
</g>
</g>
<!-- Node2&#45;&gt;Node15 -->
<g id="edge18_Node000002_Node000015" class="edge">
<title>Node2&#45;&gt;Node15</title>
<g id="a_edge18_Node000002_Node000015"><a xlink:title=" ">
<path fill="none" stroke="#63b8ff" d="M159.27,-206.74C172.75,-221.52 198.83,-248.59 224.75,-267.16 228.6,-269.91 232.8,-272.55 237.05,-275.01"/>
<polygon fill="#63b8ff" stroke="#63b8ff" points="235.12,-277.94 245.57,-279.65 238.46,-271.8 235.12,-277.94"/>
</a>
</g>
</g>
<!-- Node17 -->
<g id="Node000017" class="node">
<title>Node17</title>
<g id="a_Node000017"><a xlink:href="../../de/d25/a00290.html#acf4c709bccc4c965a5d61db978db31a3" target="_top" xlink:title="Wrapper for wgetch that handles signals and mouse events.">
<polygon fill="white" stroke="#666666" points="300,-379.53 242.75,-379.53 242.75,-358.78 300,-358.78 300,-379.53"/>
<text xml:space="preserve" text-anchor="middle" x="271.38" y="-366.03" font-family="Helvetica,sans-Serif" font-size="10.00">xwgetch</text>
</a>
</g>
</g>
<!-- Node2&#45;&gt;Node17 -->
<g id="edge21_Node000002_Node000017" class="edge">
<title>Node2&#45;&gt;Node17</title>
<g id="a_edge21_Node000002_Node000017"><a xlink:title=" ">
<path fill="none" stroke="#63b8ff" d="M153.64,-206.66C161.69,-233.06 183.34,-300.45 224.75,-340.16 230.78,-345.93 238.74,-350.2 246.33,-353.75"/>
<polygon fill="#63b8ff" stroke="#63b8ff" points="244.63,-356.82 255.18,-357.76 247.52,-350.45 244.63,-356.82"/>
</a>
</g>
</g>
<!-- Node4 -->
<g id="Node000004" class="node">
<title>Node4</title>
<g id="a_Node000004"><a xlink:href="../../de/d25/a00290.html#afc0985a403e3eac0b2cd8f0fab500256" target="_top" xlink:title="Gracefully shut down NCurses and restore terminal settings.">
<polygon fill="white" stroke="#666666" points="572,-168.53 482.5,-168.53 482.5,-147.78 572,-147.78 572,-168.53"/>
<text xml:space="preserve" text-anchor="middle" x="527.25" y="-155.03" font-family="Helvetica,sans-Serif" font-size="10.00">destroy_curses</text>
</a>
</g>
</g>
<!-- Node3&#45;&gt;Node4 -->
<g id="edge3_Node000003_Node000004" class="edge">
<title>Node3&#45;&gt;Node4</title>
<g id="a_edge3_Node000003_Node000004"><a xlink:title=" ">
<path fill="none" stroke="#63b8ff" d="M423.6,-158.16C436.78,-158.16 454.09,-158.16 470.73,-158.16"/>
<polygon fill="#63b8ff" stroke="#63b8ff" points="470.57,-161.66 480.57,-158.16 470.57,-154.66 470.57,-161.66"/>
</a>
</g>
</g>
<!-- Node5 -->
<g id="Node000005" class="node">
<title>Node5</title>
<g id="a_Node000005"><a xlink:href="../../db/d7b/a00296.html#ac5e3adb304b78910fc77761ef6a743f0" target="_top" xlink:title="restore_shell_tioctl() &#45; restore shell terminal settings">
<polygon fill="white" stroke="#666666" points="717,-196.53 608,-196.53 608,-175.78 717,-175.78 717,-196.53"/>
<text xml:space="preserve" text-anchor="middle" x="662.5" y="-183.03" font-family="Helvetica,sans-Serif" font-size="10.00">restore_shell_tioctl</text>
</a>
</g>
</g>
<!-- Node3&#45;&gt;Node5 -->
<g id="edge6_Node000003_Node000005" class="edge">
<title>Node3&#45;&gt;Node5</title>
<g id="a_edge6_Node000003_Node000005"><a xlink:title=" ">
<path fill="none" stroke="#63b8ff" d="M423.46,-164.49C439.68,-168.83 462.27,-174.31 482.5,-177.16 520.01,-182.44 562.32,-184.74 596.39,-185.69"/>
<polygon fill="#63b8ff" stroke="#63b8ff" points="596.01,-189.18 606.09,-185.93 596.18,-182.18 596.01,-189.18"/>
</a>
</g>
</g>
<!-- Node6 -->
<g id="Node000006" class="node">
<title>Node6</title>
<g id="a_Node000006"><a xlink:href="../../dd/dd7/a00248.html#a06c1eb6cf3649dc187115565409f91af" target="_top" xlink:title="Set signal handlers to default behavior.">
<polygon fill="white" stroke="#666666" points="703.12,-148.53 621.88,-148.53 621.88,-127.78 703.12,-127.78 703.12,-148.53"/>
<text xml:space="preserve" text-anchor="middle" x="662.5" y="-135.03" font-family="Helvetica,sans-Serif" font-size="10.00">sig_dfl_mode</text>
</a>
</g>
</g>
<!-- Node3&#45;&gt;Node6 -->
<g id="edge7_Node000003_Node000006" class="edge">
<title>Node3&#45;&gt;Node6</title>
<g id="a_edge7_Node000003_Node000006"><a xlink:title=" ">
<path fill="none" stroke="#63b8ff" d="M423.43,-151.55C439.63,-147.08 462.22,-141.56 482.5,-139.16 525.39,-134.09 574.46,-134.23 610.36,-135.41"/>
<polygon fill="#63b8ff" stroke="#63b8ff" points="609.89,-138.9 620.02,-135.78 610.15,-131.9 609.89,-138.9"/>
</a>
</g>
</g>
<!-- Node4&#45;&gt;Node5 -->
<g id="edge4_Node000004_Node000005" class="edge">
<title>Node4&#45;&gt;Node5</title>
<g id="a_edge4_Node000004_Node000005"><a xlink:title=" ">
<path fill="none" stroke="#63b8ff" d="M572.25,-167.4C580.87,-169.22 590.07,-171.15 599.16,-173.06"/>
<polygon fill="#63b8ff" stroke="#63b8ff" points="598.16,-176.42 608.67,-175.06 599.6,-169.57 598.16,-176.42"/>
</a>
</g>
</g>
<!-- Node4&#45;&gt;Node6 -->
<g id="edge5_Node000004_Node000006" class="edge">
<title>Node4&#45;&gt;Node6</title>
<g id="a_edge5_Node000004_Node000006"><a xlink:title=" ">
<path fill="none" stroke="#63b8ff" d="M572.25,-151.55C584.44,-149.72 597.77,-147.72 610.33,-145.84"/>
<polygon fill="#63b8ff" stroke="#63b8ff" points="610.73,-149.32 620.1,-144.37 609.69,-142.4 610.73,-149.32"/>
</a>
</g>
</g>
<!-- Node8 -->
<g id="Node000008" class="node">
<title>Node8</title>
<g id="a_Node000008"><a xlink:href="../../db/dc3/a00284.html#aa0145c044cfdde3a1c83323410a59f25" target="_top" xlink:title="safer alternative to strncat">
<polygon fill="white" stroke="#666666" points="433,-340.53 367.5,-340.53 367.5,-319.78 433,-319.78 433,-340.53"/>
<text xml:space="preserve" text-anchor="middle" x="400.25" y="-327.03" font-family="Helvetica,sans-Serif" font-size="10.00">strnz__cat</text>
</a>
</g>
</g>
<!-- Node7&#45;&gt;Node8 -->
<g id="edge9_Node000007_Node000008" class="edge">
<title>Node7&#45;&gt;Node8</title>
<g id="a_edge9_Node000007_Node000008"><a xlink:title=" ">
<path fill="none" stroke="#63b8ff" d="M318.18,-330.16C330.44,-330.16 343.66,-330.16 355.8,-330.16"/>
<polygon fill="#63b8ff" stroke="#63b8ff" points="355.52,-333.66 365.52,-330.16 355.52,-326.66 355.52,-333.66"/>
</a>
</g>
</g>
<!-- Node10&#45;&gt;Node3 -->
<g id="edge12_Node000010_Node000003" class="edge">
<title>Node10&#45;&gt;Node3</title>
<g id="a_edge12_Node000010_Node000003"><a xlink:title=" ">
<path fill="none" stroke="#63b8ff" d="M309.07,-144.65C326.91,-147.32 348.2,-150.51 365.62,-153.12"/>
<polygon fill="#63b8ff" stroke="#63b8ff" points="365.06,-156.58 375.47,-154.6 366.1,-149.65 365.06,-156.58"/>
</a>
</g>
</g>
<!-- Node11&#45;&gt;Node12 -->
<g id="edge14_Node000011_Node000012" class="edge">
<title>Node11&#45;&gt;Node12</title>
<g id="a_edge14_Node000011_Node000012"><a xlink:title=" ">
<path fill="none" stroke="#63b8ff" d="M317.46,-24.16C331.13,-24.16 346.03,-24.16 359.33,-24.16"/>
<polygon fill="#63b8ff" stroke="#63b8ff" points="359.02,-27.66 369.02,-24.16 359.02,-20.66 359.02,-27.66"/>
</a>
</g>
</g>
<!-- Node15&#45;&gt;Node13 -->
<g id="edge20_Node000015_Node000013" class="edge">
<title>Node15&#45;&gt;Node13</title>
<g id="a_edge20_Node000015_Node000013"><a xlink:title=" ">
<path fill="none" stroke="#63b8ff" d="M301.16,-282.31C317.15,-277.39 337.37,-271.18 355.29,-265.67"/>
<polygon fill="#63b8ff" stroke="#63b8ff" points="356.11,-269.08 364.64,-262.79 354.06,-262.39 356.11,-269.08"/>
</a>
</g>
</g>
<!-- Node16 -->
<g id="Node000016" class="node">
<title>Node16</title>
<g id="a_Node000016"><a xlink:href="../../de/d25/a00290.html#ac9adcf7339be4a05ab1a7350c236b8a5" target="_top" xlink:title="Draw a box around the specified window.">
<polygon fill="white" stroke="#666666" points="419.88,-301.53 380.62,-301.53 380.62,-280.78 419.88,-280.78 419.88,-301.53"/>
<text xml:space="preserve" text-anchor="middle" x="400.25" y="-288.03" font-family="Helvetica,sans-Serif" font-size="10.00">cbox</text>
</a>
</g>
</g>
<!-- Node15&#45;&gt;Node16 -->
<g id="edge19_Node000015_Node000016" class="edge">
<title>Node15&#45;&gt;Node16</title>
<g id="a_edge19_Node000015_Node000016"><a xlink:title=" ">
<path fill="none" stroke="#63b8ff" d="M301.16,-291.16C321.46,-291.16 348.57,-291.16 369.15,-291.16"/>
<polygon fill="#63b8ff" stroke="#63b8ff" points="368.89,-294.66 378.89,-291.16 368.89,-287.66 368.89,-294.66"/>
</a>
</g>
</g>
<!-- Node17&#45;&gt;Node2 -->
<g id="edge22_Node000017_Node000002" class="edge">
<title>Node17&#45;&gt;Node2</title>
<g id="a_edge22_Node000017_Node000002"><a xlink:title=" ">
<path fill="none" stroke="#63b8ff" d="M242.41,-369.31C236.07,-366.7 229.74,-362.95 224.75,-358.16 183.88,-318.97 162.26,-252.8 153.96,-218.18"/>
<polygon fill="#63b8ff" stroke="#63b8ff" points="157.38,-217.45 151.81,-208.43 150.54,-218.95 157.38,-217.45"/>
</a>
</g>
</g>
<!-- Node18 -->
<g id="Node000018" class="node">
<title>Node18</title>
<g id="a_Node000018"><a xlink:href="../../de/d25/a00290.html#a4298f891699300bfc4e6e56fd2a8d574" target="_top" xlink:title="Get keycode from chyron.">
<polygon fill="white" stroke="#666666" points="446.5,-379.53 354,-379.53 354,-358.78 446.5,-358.78 446.5,-379.53"/>
<text xml:space="preserve" text-anchor="middle" x="400.25" y="-366.03" font-family="Helvetica,sans-Serif" font-size="10.00">get_chyron_key</text>
</a>
</g>
</g>
<!-- Node17&#45;&gt;Node18 -->
<g id="edge23_Node000017_Node000018" class="edge">
<title>Node17&#45;&gt;Node18</title>
<g id="a_edge23_Node000017_Node000018"><a xlink:title=" ">
<path fill="none" stroke="#63b8ff" d="M300.22,-369.16C312.54,-369.16 327.5,-369.16 342.03,-369.16"/>
<polygon fill="#63b8ff" stroke="#63b8ff" points="342.01,-372.66 352.01,-369.16 342.01,-365.66 342.01,-372.66"/>
</a>
</g>
</g>
</g>
</svg>

<g id="navigator" transform="translate(0 0)" fill="#404254">
  <rect fill="#f2f5e9" fill-opacity="0.5" stroke="#606060" stroke-width=".5" x="0" y="0" width="60" height="60"/>
  <use id="zoomplus" xlink:href="#zoomPlus" x="17" y="9" onmousedown="handleZoom(evt,'in')"/>
  <use id="zoomminus" xlink:href="#zoomMin" x="42" y="9" onmousedown="handleZoom(evt,'out')"/>
  <use id="reset" xlink:href="#resetDef" x="30" y="36" onmousedown="handleReset()"/>
   <use id="arrowup" xlink:href="#arrowUp" x="0" y="0" onmousedown="handlePan(0,-1)"/>
  <use id="arrowright" xlink:href="#arrowRight" x="0" y="0" onmousedown="handlePan(1,0)"/>
  <use id="arrowdown" xlink:href="#arrowDown" x="0" y="0" onmousedown="handlePan(0,1)"/>
  <use id="arrowleft" xlink:href="#arrowLeft" x="0" y="0" onmousedown="handlePan(-1,0)"/>
</g>
<svg viewBox="0 0 15 15" width="100%" height="30px" preserveAspectRatio="xMaxYMin meet">
 <g id="arrow_out" transform="scale(0.3 0.3)">
  <a xlink:href="a00290_af0ba4efbc81c259a2519ca41dd9d1599_cgraph_org.svg" target="_base">
   <rect id="button" ry="5" rx="5" y="6" x="6" height="38" width="38"
        fill="#f2f5e9" fill-opacity="0.5" stroke="#606060" stroke-width="1.0"/>
   <path id="arrow"
     d="M 11.500037,31.436501 C 11.940474,20.09759 22.043105,11.32322 32.158766,21.979434 L 37.068811,17.246167 C 37.068811,17.246167 37.088388,32 37.088388,32 L 22.160133,31.978069 C 22.160133,31.978069 26.997745,27.140456 26.997745,27.140456 C 18.528582,18.264221 13.291696,25.230495 11.500037,31.436501 z"
     style="fill:#404040;"/>
  </a>
 </g>
</svg>

<style type='text/css'>
<![CDATA[
[data-mouse-over-selected='false'] { opacity: 0.7; }
[data-mouse-over-selected='true']  { opacity: 1.0; }
]]>
</style>
<script type="application/ecmascript"><![CDATA[
document.addEventListener('DOMContentLoaded', (event) => {
  highlightEdges();
  highlightAdjacentNodes();
});
]]></script>
</svg>
