<?xml version="1.0" encoding="UTF-8" standalone="no"?>
<!DOCTYPE svg PUBLIC "-//W3C//DTD SVG 1.1//EN"
 "http://www.w3.org/Graphics/SVG/1.1/DTD/svg11.dtd">
<!-- Generated by graphviz version 14.1.2 (0)
 -->
<!-- Title: sig.c Pages: 1 -->
<svg width="669pt" height="142pt"
 viewBox="0.00 0.00 669.00 142.00" xmlns="http://www.w3.org/2000/svg" xmlns:xlink="http://www.w3.org/1999/xlink">
<g id="graph0" class="graph" transform="scale(1 1) rotate(0) translate(4 138.25)">
<title>sig.c</title>
<!-- Node1 -->
<g id="Node000001" class="node">
<title>Node1</title>
<g id="a_Node000001"><a xlink:title="signal handling for interrupt signals">
<polygon fill="#999999" stroke="#666666" points="424.75,-134.25 386.25,-134.25 386.25,-113.5 424.75,-113.5 424.75,-134.25"/>
<text xml:space="preserve" text-anchor="middle" x="405.5" y="-120.75" font-family="Helvetica,sans-Serif" font-size="10.00">sig.c</text>
</a>
</g>
</g>
<!-- Node2 -->
<g id="Node000002" class="node">
<title>Node2</title>
<g id="a_Node000002"><a xlink:href="../../d8/d23/a00326.html" target="_top" xlink:title="Headder for C&#45;Menu API library, libcm.so.">
<polygon fill="white" stroke="#666666" points="268.5,-77.5 228.5,-77.5 228.5,-56.75 268.5,-56.75 268.5,-77.5"/>
<text xml:space="preserve" text-anchor="middle" x="248.5" y="-64" font-family="Helvetica,sans-Serif" font-size="10.00">cm.h</text>
</a>
</g>
</g>
<!-- Node1&#45;&gt;Node2 -->
<g id="edge1_Node000001_Node000002" class="edge">
<title>Node1&#45;&gt;Node2</title>
<g id="a_edge1_Node000001_Node000002"><a xlink:title=" ">
<path fill="none" stroke="#63b8ff" d="M385.93,-116.05C359.28,-106.76 311.28,-90.02 279.65,-78.99"/>
<polygon fill="#63b8ff" stroke="#63b8ff" points="280.84,-75.69 270.24,-75.71 278.53,-82.3 280.84,-75.69"/>
</a>
</g>
</g>
<!-- Node5 -->
<g id="Node000005" class="node">
<title>Node5</title>
<g id="a_Node000005"><a xlink:title=" ">
<polygon fill="#e0e0e0" stroke="#999999" points="335.62,-20.75 281.38,-20.75 281.38,0 335.62,0 335.62,-20.75"/>
<text xml:space="preserve" text-anchor="middle" x="308.5" y="-7.25" font-family="Helvetica,sans-Serif" font-size="10.00">signal.h</text>
</a>
</g>
</g>
<!-- Node1&#45;&gt;Node5 -->
<g id="edge7_Node000001_Node000005" class="edge">
<title>Node1&#45;&gt;Node5</title>
<g id="a_edge7_Node000001_Node000005"><a xlink:title=" ">
<path fill="none" stroke="#63b8ff" d="M394.86,-113.17C385.27,-104.23 370.95,-90.43 359.5,-77.5 346.02,-62.28 332,-43.89 322.08,-30.37"/>
<polygon fill="#63b8ff" stroke="#63b8ff" points="324.97,-28.38 316.26,-22.34 319.3,-32.49 324.97,-28.38"/>
</a>
</g>
</g>
<!-- Node7 -->
<g id="Node000007" class="node">
<title>Node7</title>
<g id="a_Node000007"><a xlink:title=" ">
<polygon fill="#e0e0e0" stroke="#999999" points="405.5,-20.75 353.5,-20.75 353.5,0 405.5,0 405.5,-20.75"/>
<text xml:space="preserve" text-anchor="middle" x="379.5" y="-7.25" font-family="Helvetica,sans-Serif" font-size="10.00">stdlib.h</text>
</a>
</g>
</g>
<!-- Node1&#45;&gt;Node7 -->
<g id="edge9_Node000001_Node000007" class="edge">
<title>Node1&#45;&gt;Node7</title>
<g id="a_edge9_Node000001_Node000007"><a xlink:title=" ">
<path fill="none" stroke="#63b8ff" d="M393.39,-113.16C384.04,-104.83 371.84,-91.91 366.5,-77.5 360.96,-62.57 364.99,-44.82 369.98,-31.47"/>
<polygon fill="#63b8ff" stroke="#63b8ff" points="373.12,-33.02 373.8,-22.45 366.67,-30.29 373.12,-33.02"/>
</a>
</g>
</g>
<!-- Node8 -->
<g id="Node000008" class="node">
<title>Node8</title>
<g id="a_Node000008"><a xlink:title=" ">
<polygon fill="#e0e0e0" stroke="#999999" points="436,-77.5 375,-77.5 375,-56.75 436,-56.75 436,-77.5"/>
<text xml:space="preserve" text-anchor="middle" x="405.5" y="-64" font-family="Helvetica,sans-Serif" font-size="10.00">stdbool.h</text>
</a>
</g>
</g>
<!-- Node1&#45;&gt;Node8 -->
<g id="edge8_Node000001_Node000008" class="edge">
<title>Node1&#45;&gt;Node8</title>
<g id="a_edge8_Node000001_Node000008"><a xlink:title=" ">
<path fill="none" stroke="#63b8ff" d="M405.5,-113.09C405.5,-106.47 405.5,-97.47 405.5,-89.27"/>
<polygon fill="#63b8ff" stroke="#63b8ff" points="409,-89.34 405.5,-79.34 402,-89.34 409,-89.34"/>
</a>
</g>
</g>
<!-- Node9 -->
<g id="Node000009" class="node">
<title>Node9</title>
<g id="a_Node000009"><a xlink:title=" ">
<polygon fill="#e0e0e0" stroke="#999999" points="506.88,-77.5 454.12,-77.5 454.12,-56.75 506.88,-56.75 506.88,-77.5"/>
<text xml:space="preserve" text-anchor="middle" x="480.5" y="-64" font-family="Helvetica,sans-Serif" font-size="10.00">string.h</text>
</a>
</g>
</g>
<!-- Node1&#45;&gt;Node9 -->
<g id="edge10_Node000001_Node000009" class="edge">
<title>Node1&#45;&gt;Node9</title>
<g id="a_edge10_Node000001_Node000009"><a xlink:title=" ">
<path fill="none" stroke="#63b8ff" d="M418.91,-113.09C429.79,-105.15 445.36,-93.78 458.12,-84.46"/>
<polygon fill="#63b8ff" stroke="#63b8ff" points="459.97,-87.44 465.99,-78.72 455.84,-81.79 459.97,-87.44"/>
</a>
</g>
</g>
<!-- Node10 -->
<g id="Node000010" class="node">
<title>Node10</title>
<g id="a_Node000010"><a xlink:title=" ">
<polygon fill="#e0e0e0" stroke="#999999" points="587.75,-77.5 525.25,-77.5 525.25,-56.75 587.75,-56.75 587.75,-77.5"/>
<text xml:space="preserve" text-anchor="middle" x="556.5" y="-64" font-family="Helvetica,sans-Serif" font-size="10.00">termios.h</text>
</a>
</g>
</g>
<!-- Node1&#45;&gt;Node10 -->
<g id="edge11_Node000001_Node000010" class="edge">
<title>Node1&#45;&gt;Node10</title>
<g id="a_edge11_Node000001_Node000010"><a xlink:title=" ">
<path fill="none" stroke="#63b8ff" d="M425.24,-115.72C448.85,-107.16 488.88,-92.64 518.54,-81.89"/>
<polygon fill="#63b8ff" stroke="#63b8ff" points="519.72,-85.18 527.93,-78.49 517.33,-78.6 519.72,-85.18"/>
</a>
</g>
</g>
<!-- Node11 -->
<g id="Node000011" class="node">
<title>Node11</title>
<g id="a_Node000011"><a xlink:title=" ">
<polygon fill="#e0e0e0" stroke="#999999" points="661,-77.5 606,-77.5 606,-56.75 661,-56.75 661,-77.5"/>
<text xml:space="preserve" text-anchor="middle" x="633.5" y="-64" font-family="Helvetica,sans-Serif" font-size="10.00">unistd.h</text>
</a>
</g>
</g>
<!-- Node1&#45;&gt;Node11 -->
<g id="edge12_Node000001_Node000011" class="edge">
<title>Node1&#45;&gt;Node11</title>
<g id="a_edge12_Node000001_Node000011"><a xlink:title=" ">
<path fill="none" stroke="#63b8ff" d="M425.05,-118.33C457.89,-110.68 526.5,-94.6 594.69,-77.92"/>
<polygon fill="#63b8ff" stroke="#63b8ff" points="595.28,-81.38 604.16,-75.59 593.61,-74.58 595.28,-81.38"/>
</a>
</g>
</g>
<!-- Node3 -->
<g id="Node000003" class="node">
<title>Node3</title>
<g id="a_Node000003"><a xlink:href="../../d1/d5d/a00311.html" target="_top" xlink:title=" ">
<polygon fill="white" stroke="#666666" points="61,-20.75 0,-20.75 0,0 61,0 61,-20.75"/>
<text xml:space="preserve" text-anchor="middle" x="30.5" y="-7.25" font-family="Helvetica,sans-Serif" font-size="10.00">version.h</text>
</a>
</g>
</g>
<!-- Node2&#45;&gt;Node3 -->
<g id="edge2_Node000002_Node000003" class="edge">
<title>Node2&#45;&gt;Node3</title>
<g id="a_edge2_Node000002_Node000003"><a xlink:title=" ">
<path fill="none" stroke="#63b8ff" d="M228.38,-61.07C193.03,-52.19 119.1,-33.63 72.29,-21.87"/>
<polygon fill="#63b8ff" stroke="#63b8ff" points="73.32,-18.52 62.77,-19.48 71.61,-25.31 73.32,-18.52"/>
</a>
</g>
</g>
<!-- Node4 -->
<g id="Node000004" class="node">
<title>Node4</title>
<g id="a_Node000004"><a xlink:title=" ">
<polygon fill="#e0e0e0" stroke="#999999" points="190.12,-20.75 78.88,-20.75 78.88,0 190.12,0 190.12,-20.75"/>
<text xml:space="preserve" text-anchor="middle" x="134.5" y="-7.25" font-family="Helvetica,sans-Serif" font-size="10.00">ncursesw/ncurses.h</text>
</a>
</g>
</g>
<!-- Node2&#45;&gt;Node4 -->
<g id="edge3_Node000002_Node000004" class="edge">
<title>Node2&#45;&gt;Node4</title>
<g id="a_edge3_Node000002_Node000004"><a xlink:title=" ">
<path fill="none" stroke="#63b8ff" d="M228.12,-56.34C210.53,-47.89 184.87,-35.57 164.87,-25.96"/>
<polygon fill="#63b8ff" stroke="#63b8ff" points="166.6,-22.91 156.07,-21.73 163.57,-29.22 166.6,-22.91"/>
</a>
</g>
</g>
<!-- Node2&#45;&gt;Node5 -->
<g id="edge4_Node000002_Node000005" class="edge">
<title>Node2&#45;&gt;Node5</title>
<g id="a_edge4_Node000002_Node000005"><a xlink:title=" ">
<path fill="none" stroke="#63b8ff" d="M259.23,-56.34C267.59,-48.71 279.41,-37.92 289.38,-28.82"/>
<polygon fill="#63b8ff" stroke="#63b8ff" points="291.72,-31.42 296.75,-22.1 287,-26.25 291.72,-31.42"/>
</a>
</g>
</g>
<!-- Node6 -->
<g id="Node000006" class="node">
<title>Node6</title>
<g id="a_Node000006"><a xlink:title=" ">
<polygon fill="#e0e0e0" stroke="#999999" points="263,-20.75 208,-20.75 208,0 263,0 263,-20.75"/>
<text xml:space="preserve" text-anchor="middle" x="235.5" y="-7.25" font-family="Helvetica,sans-Serif" font-size="10.00">stddef.h</text>
</a>
</g>
</g>
<!-- Node2&#45;&gt;Node6 -->
<g id="edge5_Node000002_Node000006" class="edge">
<title>Node2&#45;&gt;Node6</title>
<g id="a_edge5_Node000002_Node000006"><a xlink:title=" ">
<path fill="none" stroke="#63b8ff" d="M246.18,-56.34C244.59,-49.64 242.42,-40.51 240.45,-32.23"/>
<polygon fill="#63b8ff" stroke="#63b8ff" points="243.87,-31.47 238.15,-22.55 237.06,-33.09 243.87,-31.47"/>
</a>
</g>
</g>
<!-- Node2&#45;&gt;Node7 -->
<g id="edge6_Node000002_Node000007" class="edge">
<title>Node2&#45;&gt;Node7</title>
<g id="a_edge6_Node000002_Node000007"><a xlink:title=" ">
<path fill="none" stroke="#63b8ff" d="M268.97,-57.57C289.44,-49.02 321.28,-35.71 345.54,-25.57"/>
<polygon fill="#63b8ff" stroke="#63b8ff" points="346.81,-28.83 354.68,-21.75 344.11,-22.37 346.81,-28.83"/>
</a>
</g>
</g>
</g>
</svg>
