<?xml version="1.0" encoding="UTF-8" standalone="no"?>
<!DOCTYPE svg PUBLIC "-//W3C//DTD SVG 1.1//EN"
 "http://www.w3.org/Graphics/SVG/1.1/DTD/svg11.dtd">
<!-- Generated by graphviz version 14.1.2 (0)
 -->
<!-- Title: full_screen_fork_exec Pages: 1 -->
<!--zoomable 716 -->

<svg id="main" version="1.1" xmlns="http://www.w3.org/2000/svg" xmlns:xlink="http://www.w3.org/1999/xlink" xml:space="preserve" onload="init(evt)">

<style type="text/css"><![CDATA[
.node, .edge {opacity: 0.7;}
.node.selected, .edge.selected {opacity: 1;}
.edge:hover path { stroke: red; }
.edge:hover polygon { stroke: red; fill: red; }
]]></style>

<defs>
  <circle id="rim" cx="0" cy="0" r="7"/>
  <circle id="rim2" cx="0" cy="0" r="3.5"/>
  <g id="zoomPlus">
    <use xlink:href="#rim" fill="#404040"><set attributeName="fill" to="#808080" begin="zoomplus.mouseover" end="zoomplus.mouseout"/></use>
    <path d="M-4,0h8M0,-4v8" fill="none" stroke="white" stroke-width="1.5" pointer-events="none"/>
  </g>
  <g id="zoomMin">
    <use xlink:href="#rim" fill="#404040"><set attributeName="fill" to="#808080" begin="zoomminus.mouseover" end="zoomminus.mouseout"/></use>
    <path d="M-4,0h8" fill="none" stroke="white" stroke-width="1.5" pointer-events="none"/>
  </g>
  <g id="arrowUp" transform="translate(30 24)">
    <use xlink:href="#rim"/>
    <path pointer-events="none" fill="none" stroke="white" stroke-width="1.5" d="M0,-3.0v7 M-2.5,-0.5L0,-3.0L2.5,-0.5"/>
  </g>
  <g id="arrowRight" transform="rotate(90) translate(36 -43)">
    <use xlink:href="#rim"/>
    <path pointer-events="none" fill="none" stroke="white" stroke-width="1.5" d="M0,-3.0v7 M-2.5,-0.5L0,-3.0L2.5,-0.5"/>
  </g>
  <g id="arrowDown" transform="rotate(180) translate(-30 -48)">
    <use xlink:href="#rim"/>
    <path pointer-events="none" fill="none" stroke="white" stroke-width="1.5" d="M0,-3.0v7 M-2.5,-0.5L0,-3.0L2.5,-0.5"/>
  </g>
  <g id="arrowLeft" transform="rotate(270) translate(-36 17)">
    <use xlink:href="#rim"/>
    <path pointer-events="none" fill="none" stroke="white" stroke-width="1.5" d="M0,-3.0v7 M-2.5,-0.5L0,-3.0L2.5,-0.5"/>
  </g>
  <g id="resetDef">
    <use xlink:href="#rim2" fill="#404040"><set attributeName="fill" to="#808080" begin="reset.mouseover" end="reset.mouseout"/></use>
  </g>
</defs>
<script type="application/ecmascript">
var viewWidth = 1141;
var viewHeight = 716;
var sectionId = 'dynsection-5';
</script>
<script type="application/ecmascript" xlink:href="../../svg.min.js"/>
<svg id="graph" class="graph">
<g id="viewport">
<title>full_screen_fork_exec</title>
<!-- Node1 -->
<g id="Node000001" class="node">
<title>Node1</title>
<g id="a_Node000001"><a xlink:title="Execute a command in full screen mode.">
<polygon fill="#999999" stroke="#666666" points="122.5,-202.75 0,-202.75 0,-182 122.5,-182 122.5,-202.75"/>
<text xml:space="preserve" text-anchor="middle" x="61.25" y="-189.25" font-family="Helvetica,sans-Serif" font-size="10.00">full_screen_fork_exec</text>
</a>
</g>
</g>
<!-- Node2 -->
<g id="Node000002" class="node">
<title>Node2</title>
<g id="a_Node000002"><a xlink:href="../../d1/da8/a00230.html#a386fad82c5208c7d3b2a5060882974f3" target="_top" xlink:title="Fork and exec a command.">
<polygon fill="white" stroke="#666666" points="222.5,-373.75 158.5,-373.75 158.5,-353 222.5,-353 222.5,-373.75"/>
<text xml:space="preserve" text-anchor="middle" x="190.5" y="-360.25" font-family="Helvetica,sans-Serif" font-size="10.00">fork_exec</text>
</a>
</g>
</g>
<!-- Node1&#45;&gt;Node2 -->
<g id="edge1_Node000001_Node000002" class="edge">
<title>Node1&#45;&gt;Node2</title>
<g id="a_edge1_Node000001_Node000002"><a xlink:title=" ">
<path fill="none" stroke="#63b8ff" d="M70.21,-203.07C91.1,-231.14 147.73,-307.24 174.76,-343.57"/>
<polygon fill="#63b8ff" stroke="#63b8ff" points="171.86,-345.54 180.64,-351.47 177.48,-341.36 171.86,-345.54"/>
</a>
</g>
</g>
<!-- Node23 -->
<g id="Node000023" class="node">
<title>Node23</title>
<g id="a_Node000023"><a xlink:href="../../de/d25/a00290.html#a40858af5b0d68549fb483f77c97eb82c" target="_top" xlink:title="Restore all windows after a screen resize.">
<polygon fill="white" stroke="#666666" points="357.38,-20.75 279.12,-20.75 279.12,0 357.38,0 357.38,-20.75"/>
<text xml:space="preserve" text-anchor="middle" x="318.25" y="-7.25" font-family="Helvetica,sans-Serif" font-size="10.00">restore_wins</text>
</a>
</g>
</g>
<!-- Node1&#45;&gt;Node23 -->
<g id="edge44_Node000001_Node000023" class="edge">
<title>Node1&#45;&gt;Node23</title>
<g id="a_edge44_Node000001_Node000023"><a xlink:title=" ">
<path fill="none" stroke="#63b8ff" d="M72.9,-181.89C101.11,-154.56 180.88,-80.15 258.5,-34.38 263.84,-31.23 269.67,-28.3 275.51,-25.66"/>
<polygon fill="#63b8ff" stroke="#63b8ff" points="276.73,-28.94 284.56,-21.8 273.99,-22.5 276.73,-28.94"/>
</a>
</g>
</g>
<!-- Node3 -->
<g id="Node000003" class="node">
<title>Node3</title>
<g id="a_Node000003"><a xlink:href="../../db/d7b/a00296.html#a4d0a6767e791cf93a268ebe9ba02aa24" target="_top" xlink:title="capture_curses_tioctl() &#45; capture curses terminal settings">
<polygon fill="white" stroke="#666666" points="378,-631.75 258.5,-631.75 258.5,-611 378,-611 378,-631.75"/>
<text xml:space="preserve" text-anchor="middle" x="318.25" y="-618.25" font-family="Helvetica,sans-Serif" font-size="10.00">capture_curses_tioctl</text>
</a>
</g>
</g>
<!-- Node2&#45;&gt;Node3 -->
<g id="edge2_Node000002_Node000003" class="edge">
<title>Node2&#45;&gt;Node3</title>
<g id="a_edge2_Node000002_Node000003"><a xlink:title=" ">
<path fill="none" stroke="#63b8ff" d="M191.44,-374C191.79,-410.1 197.71,-529.57 258.5,-597.38 261,-600.16 263.87,-602.64 266.98,-604.83"/>
<polygon fill="#63b8ff" stroke="#63b8ff" points="265.12,-607.79 275.52,-609.82 268.65,-601.75 265.12,-607.79"/>
</a>
</g>
</g>
<!-- Node4 -->
<g id="Node000004" class="node">
<title>Node4</title>
<g id="a_Node000004"><a xlink:href="../../de/d25/a00290.html#a61b4f28456257f68ed042bed7f187efd" target="_top" xlink:title="Display a simple error message window or print to stderr.">
<polygon fill="white" stroke="#666666" points="340.88,-373.75 295.62,-373.75 295.62,-353 340.88,-353 340.88,-373.75"/>
<text xml:space="preserve" text-anchor="middle" x="318.25" y="-360.25" font-family="Helvetica,sans-Serif" font-size="10.00">Perror</text>
</a>
</g>
</g>
<!-- Node2&#45;&gt;Node4 -->
<g id="edge3_Node000002_Node000004" class="edge">
<title>Node2&#45;&gt;Node4</title>
<g id="a_edge3_Node000002_Node000004"><a xlink:title=" ">
<path fill="none" stroke="#63b8ff" d="M222.91,-363.38C241.49,-363.38 265.03,-363.38 283.94,-363.38"/>
<polygon fill="#63b8ff" stroke="#63b8ff" points="283.8,-366.88 293.8,-363.38 283.8,-359.88 283.8,-366.88"/>
</a>
</g>
</g>
<!-- Node7 -->
<g id="Node000007" class="node">
<title>Node7</title>
<g id="a_Node000007"><a xlink:href="../../db/d7b/a00296.html#ac5e3adb304b78910fc77761ef6a743f0" target="_top" xlink:title="restore_shell_tioctl() &#45; restore shell terminal settings">
<polygon fill="white" stroke="#666666" points="1133.25,-153.75 1024.25,-153.75 1024.25,-133 1133.25,-133 1133.25,-153.75"/>
<text xml:space="preserve" text-anchor="middle" x="1078.75" y="-140.25" font-family="Helvetica,sans-Serif" font-size="10.00">restore_shell_tioctl</text>
</a>
</g>
</g>
<!-- Node2&#45;&gt;Node7 -->
<g id="edge37_Node000002_Node000007" class="edge">
<title>Node2&#45;&gt;Node7</title>
<g id="a_edge37_Node000002_Node000007"><a xlink:title=" ">
<path fill="none" stroke="#63b8ff" d="M192.87,-352.58C198.7,-308.42 222.73,-142.08 258.5,-105.38 322.44,-39.75 365,-48.38 456.62,-48.38 456.62,-48.38 456.62,-48.38 829.88,-48.38 916.27,-48.38 1009.06,-99.32 1052.55,-126.6"/>
<polygon fill="#63b8ff" stroke="#63b8ff" points="1050.44,-129.4 1060.75,-131.85 1054.21,-123.51 1050.44,-129.4"/>
</a>
</g>
</g>
<!-- Node8 -->
<g id="Node000008" class="node">
<title>Node8</title>
<g id="a_Node000008"><a xlink:href="../../dd/dd7/a00248.html#a06c1eb6cf3649dc187115565409f91af" target="_top" xlink:title="Set signal handlers to default behavior.">
<polygon fill="white" stroke="#666666" points="1119.38,-229.75 1038.12,-229.75 1038.12,-209 1119.38,-209 1119.38,-229.75"/>
<text xml:space="preserve" text-anchor="middle" x="1078.75" y="-216.25" font-family="Helvetica,sans-Serif" font-size="10.00">sig_dfl_mode</text>
</a>
</g>
</g>
<!-- Node2&#45;&gt;Node8 -->
<g id="edge39_Node000002_Node000008" class="edge">
<title>Node2&#45;&gt;Node8</title>
<g id="a_edge39_Node000002_Node000008"><a xlink:title=" ">
<path fill="none" stroke="#63b8ff" d="M192.48,-374.19C196.92,-420.87 216.83,-604.23 258.5,-640.38 325.32,-698.34 368.17,-659.38 456.62,-659.38 456.62,-659.38 456.62,-659.38 829.88,-659.38 1024.17,-659.38 1067.83,-329.68 1076.05,-241.07"/>
<polygon fill="#63b8ff" stroke="#63b8ff" points="1079.52,-241.59 1076.89,-231.33 1072.54,-240.99 1079.52,-241.59"/>
</a>
</g>
</g>
<!-- Node14 -->
<g id="Node000014" class="node">
<title>Node14</title>
<g id="a_Node000014"><a xlink:href="../../db/dc3/a00284.html#a63eb94756fb011a456a3dec900709cd8" target="_top" xlink:title="ssnprintf was designed to be a safer alternative to snprintf.">
<polygon fill="white" stroke="#666666" points="858.25,-574.75 799.5,-574.75 799.5,-554 858.25,-554 858.25,-574.75"/>
<text xml:space="preserve" text-anchor="middle" x="828.88" y="-561.25" font-family="Helvetica,sans-Serif" font-size="10.00">ssnprintf</text>
</a>
</g>
</g>
<!-- Node2&#45;&gt;Node14 -->
<g id="edge43_Node000002_Node000014" class="edge">
<title>Node2&#45;&gt;Node14</title>
<g id="a_edge43_Node000002_Node000014"><a xlink:title=" ">
<path fill="none" stroke="#63b8ff" d="M202.11,-373.92C232.54,-403.61 323.69,-488.92 414,-537.38 550.53,-610.62 606.07,-612.23 759,-587.38 769.78,-585.62 781.16,-582.42 791.49,-578.95"/>
<polygon fill="#63b8ff" stroke="#63b8ff" points="792.53,-582.29 800.78,-575.65 790.19,-575.7 792.53,-582.29"/>
</a>
</g>
</g>
<!-- Node22 -->
<g id="Node000022" class="node">
<title>Node22</title>
<g id="a_Node000022"><a xlink:href="../../db/d7b/a00296.html#a1c8e0f0a02e08c783231a20093fb8410" target="_top" xlink:title="restore_curses_tioctl() &#45; restore curses terminal settings">
<polygon fill="white" stroke="#666666" points="376.88,-707.75 259.62,-707.75 259.62,-687 376.88,-687 376.88,-707.75"/>
<text xml:space="preserve" text-anchor="middle" x="318.25" y="-694.25" font-family="Helvetica,sans-Serif" font-size="10.00">restore_curses_tioctl</text>
</a>
</g>
</g>
<!-- Node2&#45;&gt;Node22 -->
<g id="edge36_Node000002_Node000022" class="edge">
<title>Node2&#45;&gt;Node22</title>
<g id="a_edge36_Node000002_Node000022"><a xlink:title=" ">
<path fill="none" stroke="#63b8ff" d="M192.49,-374.15C197.2,-423.32 218.78,-626.02 258.5,-673.38 260.76,-676.07 263.38,-678.47 266.22,-680.6"/>
<polygon fill="#63b8ff" stroke="#63b8ff" points="264.28,-683.52 274.63,-685.75 267.93,-677.55 264.28,-683.52"/>
</a>
</g>
</g>
<!-- Node2&#45;&gt;Node23 -->
<g id="edge38_Node000002_Node000023" class="edge">
<title>Node2&#45;&gt;Node23</title>
<g id="a_edge38_Node000002_Node000023"><a xlink:title=" ">
<path fill="none" stroke="#63b8ff" d="M193.41,-352.52C203.23,-297.04 247.92,-47.14 258.5,-34.38 261.42,-30.85 264.94,-27.84 268.79,-25.26"/>
<polygon fill="#63b8ff" stroke="#63b8ff" points="270.47,-28.33 277.56,-20.45 267.11,-22.19 270.47,-28.33"/>
</a>
</g>
</g>
<!-- Node24 -->
<g id="Node000024" class="node">
<title>Node24</title>
<g id="a_Node000024"><a xlink:href="../../dd/dd7/a00248.html#aca2de03f6d52d4b11237990e4e605177" target="_top" xlink:title="Set up signal handlers for interrupt signals.">
<polygon fill="white" stroke="#666666" points="363.38,-134.75 273.12,-134.75 273.12,-114 363.38,-114 363.38,-134.75"/>
<text xml:space="preserve" text-anchor="middle" x="318.25" y="-121.25" font-family="Helvetica,sans-Serif" font-size="10.00">sig_prog_mode</text>
</a>
</g>
</g>
<!-- Node2&#45;&gt;Node24 -->
<g id="edge40_Node000002_Node000024" class="edge">
<title>Node2&#45;&gt;Node24</title>
<g id="a_edge40_Node000002_Node000024"><a xlink:title=" ">
<path fill="none" stroke="#63b8ff" d="M197.07,-352.8C216.34,-316.17 280.44,-194.33 306.3,-145.19"/>
<polygon fill="#63b8ff" stroke="#63b8ff" points="309.34,-146.92 310.9,-136.44 303.15,-143.66 309.34,-146.92"/>
</a>
</g>
</g>
<!-- Node5 -->
<g id="Node000005" class="node">
<title>Node5</title>
<g id="a_Node000005"><a xlink:href="../../de/d25/a00290.html#a8f6c45ca4a7f6a41c4c88314e697565a" target="_top" xlink:title="Abnormal program termination.">
<polygon fill="white" stroke="#666666" points="851.88,-191.75 805.88,-191.75 805.88,-171 851.88,-171 851.88,-191.75"/>
<text xml:space="preserve" text-anchor="middle" x="828.88" y="-178.25" font-family="Helvetica,sans-Serif" font-size="10.00">abend</text>
</a>
</g>
</g>
<!-- Node4&#45;&gt;Node5 -->
<g id="edge4_Node000004_Node000005" class="edge">
<title>Node4&#45;&gt;Node5</title>
<g id="a_edge4_Node000004_Node000005"><a xlink:title=" ">
<path fill="none" stroke="#63b8ff" d="M321.63,-352.84C329.11,-322.52 355.2,-234.78 414,-197.38 535.23,-120.26 719.35,-153.78 794.33,-172.2"/>
<polygon fill="#63b8ff" stroke="#63b8ff" points="793.38,-175.57 803.94,-174.64 795.1,-168.79 793.38,-175.57"/>
</a>
</g>
</g>
<!-- Node9 -->
<g id="Node000009" class="node">
<title>Node9</title>
<g id="a_Node000009"><a xlink:href="../../de/d25/a00290.html#a645871e46277e31736bc36d0f3dce4bd" target="_top" xlink:title="construct the chyron string from the chyron structure">
<polygon fill="white" stroke="#666666" points="759,-249.75 665.75,-249.75 665.75,-229 759,-229 759,-249.75"/>
<text xml:space="preserve" text-anchor="middle" x="712.38" y="-236.25" font-family="Helvetica,sans-Serif" font-size="10.00">compile_chyron</text>
</a>
</g>
</g>
<!-- Node4&#45;&gt;Node9 -->
<g id="edge10_Node000004_Node000009" class="edge">
<title>Node4&#45;&gt;Node9</title>
<g id="a_edge10_Node000004_Node000009"><a xlink:title=" ">
<path fill="none" stroke="#63b8ff" d="M325.46,-352.81C338.64,-331.48 371.72,-283.61 414,-263.38 490.97,-226.53 592.03,-227.17 654.3,-232.31"/>
<polygon fill="#63b8ff" stroke="#63b8ff" points="653.68,-235.76 663.95,-233.17 654.3,-228.79 653.68,-235.76"/>
</a>
</g>
</g>
<!-- Node11 -->
<g id="Node000011" class="node">
<title>Node11</title>
<g id="a_Node000011"><a xlink:href="../../de/d25/a00290.html#a3f3feb40fd703913c5c136331f627c91" target="_top" xlink:title="Destroy Chyron structure.">
<polygon fill="white" stroke="#666666" points="757.88,-516.75 666.88,-516.75 666.88,-496 757.88,-496 757.88,-516.75"/>
<text xml:space="preserve" text-anchor="middle" x="712.38" y="-503.25" font-family="Helvetica,sans-Serif" font-size="10.00">destroy_chyron</text>
</a>
</g>
</g>
<!-- Node4&#45;&gt;Node11 -->
<g id="edge12_Node000004_Node000011" class="edge">
<title>Node4&#45;&gt;Node11</title>
<g id="a_edge12_Node000004_Node000011"><a xlink:title=" ">
<path fill="none" stroke="#63b8ff" d="M329.83,-374.25C346.29,-390.51 379.72,-421.01 414,-437.38 492.85,-475.03 593.48,-492.8 655.13,-500.68"/>
<polygon fill="#63b8ff" stroke="#63b8ff" points="654.7,-504.16 665.05,-501.9 655.55,-497.21 654.7,-504.16"/>
</a>
</g>
</g>
<!-- Node12 -->
<g id="Node000012" class="node">
<title>Node12</title>
<g id="a_Node000012"><a xlink:href="../../de/d25/a00290.html#ad37d5808ff30ae6894780425d865abae" target="_top" xlink:title="Create and initialize Chyron structure.">
<polygon fill="white" stroke="#666666" points="749.62,-210.75 675.12,-210.75 675.12,-190 749.62,-190 749.62,-210.75"/>
<text xml:space="preserve" text-anchor="middle" x="712.38" y="-197.25" font-family="Helvetica,sans-Serif" font-size="10.00">new_chyron</text>
</a>
</g>
</g>
<!-- Node4&#45;&gt;Node12 -->
<g id="edge13_Node000004_Node000012" class="edge">
<title>Node4&#45;&gt;Node12</title>
<g id="a_edge13_Node000004_Node000012"><a xlink:title=" ">
<path fill="none" stroke="#63b8ff" d="M323.45,-352.62C334.12,-326.9 364.96,-261.83 414,-233.38 492.3,-187.95 601.8,-189.07 663.74,-194.43"/>
<polygon fill="#63b8ff" stroke="#63b8ff" points="663.31,-197.9 673.59,-195.36 663.97,-190.93 663.31,-197.9"/>
</a>
</g>
</g>
<!-- Node13 -->
<g id="Node000013" class="node">
<title>Node13</title>
<g id="a_Node000013"><a xlink:href="../../de/d25/a00290.html#a208ce92c197fdd6d2b007987e534aa3b" target="_top" xlink:title="Set chyron key.">
<polygon fill="white" stroke="#666666" points="758.25,-555.75 666.5,-555.75 666.5,-535 758.25,-535 758.25,-555.75"/>
<text xml:space="preserve" text-anchor="middle" x="712.38" y="-542.25" font-family="Helvetica,sans-Serif" font-size="10.00">set_chyron_key</text>
</a>
</g>
</g>
<!-- Node4&#45;&gt;Node13 -->
<g id="edge15_Node000004_Node000013" class="edge">
<title>Node4&#45;&gt;Node13</title>
<g id="a_edge15_Node000004_Node000013"><a xlink:title=" ">
<path fill="none" stroke="#63b8ff" d="M325.93,-374.01C339.72,-395.09 373.5,-442.31 414,-467.38 489.3,-513.99 591.91,-532.94 654.8,-540.51"/>
<polygon fill="#63b8ff" stroke="#63b8ff" points="654.23,-543.97 664.56,-541.63 655.02,-537.02 654.23,-543.97"/>
</a>
</g>
</g>
<!-- Node4&#45;&gt;Node14 -->
<g id="edge17_Node000004_Node000014" class="edge">
<title>Node4&#45;&gt;Node14</title>
<g id="a_edge17_Node000004_Node000014"><a xlink:title=" ">
<path fill="none" stroke="#63b8ff" d="M323.67,-374.13C334.85,-399.98 366.73,-466.07 414,-501.38 527.64,-586.25 708.53,-578.33 788.11,-569.77"/>
<polygon fill="#63b8ff" stroke="#63b8ff" points="788.05,-573.3 797.59,-568.69 787.25,-566.35 788.05,-573.3"/>
</a>
</g>
</g>
<!-- Node15 -->
<g id="Node000015" class="node">
<title>Node15</title>
<g id="a_Node000015"><a xlink:href="../../db/dc3/a00284.html#a0de2e40df9bd7efc8fd9afb8ad2257e6" target="_top" xlink:title="safer alternative to strncpy">
<polygon fill="white" stroke="#666666" points="862.75,-382.75 795,-382.75 795,-362 862.75,-362 862.75,-382.75"/>
<text xml:space="preserve" text-anchor="middle" x="828.88" y="-369.25" font-family="Helvetica,sans-Serif" font-size="10.00">strnz__cpy</text>
</a>
</g>
</g>
<!-- Node4&#45;&gt;Node15 -->
<g id="edge18_Node000004_Node000015" class="edge">
<title>Node4&#45;&gt;Node15</title>
<g id="a_edge18_Node000004_Node000015"><a xlink:title=" ">
<path fill="none" stroke="#63b8ff" d="M341.21,-357.15C406.23,-339.7 603.03,-294.2 759,-334.38 763.51,-335.54 782.73,-346.23 799.72,-355.97"/>
<polygon fill="#63b8ff" stroke="#63b8ff" points="797.62,-358.8 808.03,-360.77 801.12,-352.74 797.62,-358.8"/>
</a>
</g>
</g>
<!-- Node16 -->
<g id="Node000016" class="node">
<title>Node16</title>
<g id="a_Node000016"><a xlink:href="../../de/d25/a00290.html#a9dd598e1d49c8764af1eec42c682623e" target="_top" xlink:title="Delete the current window and its associated box window.">
<polygon fill="white" stroke="#666666" points="739.12,-477.75 685.62,-477.75 685.62,-457 739.12,-457 739.12,-477.75"/>
<text xml:space="preserve" text-anchor="middle" x="712.38" y="-464.25" font-family="Helvetica,sans-Serif" font-size="10.00">win_del</text>
</a>
</g>
</g>
<!-- Node4&#45;&gt;Node16 -->
<g id="edge19_Node000004_Node000016" class="edge">
<title>Node4&#45;&gt;Node16</title>
<g id="a_edge19_Node000004_Node000016"><a xlink:title=" ">
<path fill="none" stroke="#63b8ff" d="M336.75,-374.15C355.29,-385.1 385.72,-401.76 414,-411.38 504.56,-442.14 616.7,-457.47 673.94,-463.76"/>
<polygon fill="#63b8ff" stroke="#63b8ff" points="673.47,-467.23 683.79,-464.81 674.21,-460.27 673.47,-467.23"/>
</a>
</g>
</g>
<!-- Node17 -->
<g id="Node000017" class="node">
<title>Node17</title>
<g id="a_Node000017"><a xlink:href="../../de/d25/a00290.html#a435c7bff7ffedb8f51c6de9259e36f6c" target="_top" xlink:title="Create a new window with optional box and title.">
<polygon fill="white" stroke="#666666" points="741.75,-363.75 683,-363.75 683,-343 741.75,-343 741.75,-363.75"/>
<text xml:space="preserve" text-anchor="middle" x="712.38" y="-350.25" font-family="Helvetica,sans-Serif" font-size="10.00">win_new</text>
</a>
</g>
</g>
<!-- Node4&#45;&gt;Node17 -->
<g id="edge20_Node000004_Node000017" class="edge">
<title>Node4&#45;&gt;Node17</title>
<g id="a_edge20_Node000004_Node000017"><a xlink:title=" ">
<path fill="none" stroke="#63b8ff" d="M341.21,-362.03C380.51,-359.71 465.47,-355.02 537.25,-353.38 583.27,-352.32 636.16,-352.52 671.45,-352.86"/>
<polygon fill="#63b8ff" stroke="#63b8ff" points="671.17,-356.35 681.2,-352.96 671.24,-349.35 671.17,-356.35"/>
</a>
</g>
</g>
<!-- Node19 -->
<g id="Node000019" class="node">
<title>Node19</title>
<g id="a_Node000019"><a xlink:href="../../de/d25/a00290.html#acf4c709bccc4c965a5d61db978db31a3" target="_top" xlink:title="Wrapper for wgetch that handles signals and mouse events.">
<polygon fill="white" stroke="#666666" points="486.25,-402.75 429,-402.75 429,-382 486.25,-382 486.25,-402.75"/>
<text xml:space="preserve" text-anchor="middle" x="457.62" y="-389.25" font-family="Helvetica,sans-Serif" font-size="10.00">xwgetch</text>
</a>
</g>
</g>
<!-- Node4&#45;&gt;Node19 -->
<g id="edge23_Node000004_Node000019" class="edge">
<title>Node4&#45;&gt;Node19</title>
<g id="a_edge23_Node000004_Node000019"><a xlink:title=" ">
<path fill="none" stroke="#63b8ff" d="M341.32,-368.03C361.88,-372.37 392.99,-378.94 417.72,-384.16"/>
<polygon fill="#63b8ff" stroke="#63b8ff" points="416.93,-387.57 427.43,-386.21 418.37,-380.72 416.93,-387.57"/>
</a>
</g>
</g>
<!-- Node6 -->
<g id="Node000006" class="node">
<title>Node6</title>
<g id="a_Node000006"><a xlink:href="../../de/d25/a00290.html#afc0985a403e3eac0b2cd8f0fab500256" target="_top" xlink:title="Gracefully shut down NCurses and restore terminal settings.">
<polygon fill="white" stroke="#666666" points="988.25,-191.75 898.75,-191.75 898.75,-171 988.25,-171 988.25,-191.75"/>
<text xml:space="preserve" text-anchor="middle" x="943.5" y="-178.25" font-family="Helvetica,sans-Serif" font-size="10.00">destroy_curses</text>
</a>
</g>
</g>
<!-- Node5&#45;&gt;Node6 -->
<g id="edge5_Node000005_Node000006" class="edge">
<title>Node5&#45;&gt;Node6</title>
<g id="a_edge5_Node000005_Node000006"><a xlink:title=" ">
<path fill="none" stroke="#63b8ff" d="M852.13,-181.38C862.24,-181.38 874.69,-181.38 887.09,-181.38"/>
<polygon fill="#63b8ff" stroke="#63b8ff" points="886.88,-184.88 896.88,-181.38 886.88,-177.88 886.88,-184.88"/>
</a>
</g>
</g>
<!-- Node5&#45;&gt;Node7 -->
<g id="edge8_Node000005_Node000007" class="edge">
<title>Node5&#45;&gt;Node7</title>
<g id="a_edge8_Node000005_Node000007"><a xlink:title=" ">
<path fill="none" stroke="#63b8ff" d="M852.3,-174.19C865.66,-170.16 883.03,-165.36 898.75,-162.38 936.13,-155.28 978.44,-150.64 1012.53,-147.72"/>
<polygon fill="#63b8ff" stroke="#63b8ff" points="1012.57,-151.23 1022.25,-146.92 1012,-144.25 1012.57,-151.23"/>
</a>
</g>
</g>
<!-- Node5&#45;&gt;Node8 -->
<g id="edge9_Node000005_Node000008" class="edge">
<title>Node5&#45;&gt;Node8</title>
<g id="a_edge9_Node000005_Node000008"><a xlink:title=" ">
<path fill="none" stroke="#63b8ff" d="M852.3,-188.56C865.66,-192.59 883.03,-197.39 898.75,-200.38 941.42,-208.47 990.5,-213.37 1026.47,-216.17"/>
<polygon fill="#63b8ff" stroke="#63b8ff" points="1025.92,-219.64 1036.15,-216.89 1026.44,-212.66 1025.92,-219.64"/>
</a>
</g>
</g>
<!-- Node6&#45;&gt;Node7 -->
<g id="edge6_Node000006_Node000007" class="edge">
<title>Node6&#45;&gt;Node7</title>
<g id="a_edge6_Node000006_Node000007"><a xlink:title=" ">
<path fill="none" stroke="#63b8ff" d="M982.33,-170.59C996.82,-166.46 1013.55,-161.68 1028.93,-157.3"/>
<polygon fill="#63b8ff" stroke="#63b8ff" points="1029.72,-160.71 1038.37,-154.6 1027.8,-153.98 1029.72,-160.71"/>
</a>
</g>
</g>
<!-- Node6&#45;&gt;Node8 -->
<g id="edge7_Node000006_Node000008" class="edge">
<title>Node6&#45;&gt;Node8</title>
<g id="a_edge7_Node000006_Node000008"><a xlink:title=" ">
<path fill="none" stroke="#63b8ff" d="M982.33,-192.16C996.82,-196.29 1013.55,-201.07 1028.93,-205.45"/>
<polygon fill="#63b8ff" stroke="#63b8ff" points="1027.8,-208.77 1038.37,-208.15 1029.72,-202.04 1027.8,-208.77"/>
</a>
</g>
</g>
<!-- Node10 -->
<g id="Node000010" class="node">
<title>Node10</title>
<g id="a_Node000010"><a xlink:href="../../db/dc3/a00284.html#aa0145c044cfdde3a1c83323410a59f25" target="_top" xlink:title="safer alternative to strncat">
<polygon fill="white" stroke="#666666" points="861.62,-249.75 796.12,-249.75 796.12,-229 861.62,-229 861.62,-249.75"/>
<text xml:space="preserve" text-anchor="middle" x="828.88" y="-236.25" font-family="Helvetica,sans-Serif" font-size="10.00">strnz__cat</text>
</a>
</g>
</g>
<!-- Node9&#45;&gt;Node10 -->
<g id="edge11_Node000009_Node000010" class="edge">
<title>Node9&#45;&gt;Node10</title>
<g id="a_edge11_Node000009_Node000010"><a xlink:title=" ">
<path fill="none" stroke="#63b8ff" d="M759.29,-239.38C767.58,-239.38 776.19,-239.38 784.41,-239.38"/>
<polygon fill="#63b8ff" stroke="#63b8ff" points="784.17,-242.88 794.17,-239.38 784.17,-235.88 784.17,-242.88"/>
</a>
</g>
</g>
<!-- Node12&#45;&gt;Node5 -->
<g id="edge14_Node000012_Node000005" class="edge">
<title>Node12&#45;&gt;Node5</title>
<g id="a_edge14_Node000012_Node000005"><a xlink:title=" ">
<path fill="none" stroke="#63b8ff" d="M749.92,-194.31C764.24,-191.94 780.55,-189.23 794.54,-186.91"/>
<polygon fill="#63b8ff" stroke="#63b8ff" points="794.86,-190.4 804.16,-185.31 793.72,-183.5 794.86,-190.4"/>
</a>
</g>
</g>
<!-- Node13&#45;&gt;Node14 -->
<g id="edge16_Node000013_Node000014" class="edge">
<title>Node13&#45;&gt;Node14</title>
<g id="a_edge16_Node000013_Node000014"><a xlink:title=" ">
<path fill="none" stroke="#63b8ff" d="M758.63,-552.88C768.32,-554.49 778.48,-556.18 787.95,-557.75"/>
<polygon fill="#63b8ff" stroke="#63b8ff" points="787.15,-561.16 797.59,-559.35 788.29,-554.26 787.15,-561.16"/>
</a>
</g>
</g>
<!-- Node17&#45;&gt;Node15 -->
<g id="edge22_Node000017_Node000015" class="edge">
<title>Node17&#45;&gt;Node15</title>
<g id="a_edge22_Node000017_Node000015"><a xlink:title=" ">
<path fill="none" stroke="#63b8ff" d="M741.97,-358.12C754.62,-360.22 769.78,-362.74 783.83,-365.07"/>
<polygon fill="#63b8ff" stroke="#63b8ff" points="782.85,-368.45 793.28,-366.64 783.99,-361.55 782.85,-368.45"/>
</a>
</g>
</g>
<!-- Node18 -->
<g id="Node000018" class="node">
<title>Node18</title>
<g id="a_Node000018"><a xlink:href="../../de/d25/a00290.html#ac9adcf7339be4a05ab1a7350c236b8a5" target="_top" xlink:title="Draw a box around the specified window.">
<polygon fill="white" stroke="#666666" points="848.5,-343.75 809.25,-343.75 809.25,-323 848.5,-323 848.5,-343.75"/>
<text xml:space="preserve" text-anchor="middle" x="828.88" y="-330.25" font-family="Helvetica,sans-Serif" font-size="10.00">cbox</text>
</a>
</g>
</g>
<!-- Node17&#45;&gt;Node18 -->
<g id="edge21_Node000017_Node000018" class="edge">
<title>Node17&#45;&gt;Node18</title>
<g id="a_edge21_Node000017_Node000018"><a xlink:title=" ">
<path fill="none" stroke="#63b8ff" d="M741.97,-348.38C758.98,-345.41 780.53,-341.64 797.79,-338.63"/>
<polygon fill="#63b8ff" stroke="#63b8ff" points="798.21,-342.11 807.46,-336.94 797.01,-335.21 798.21,-342.11"/>
</a>
</g>
</g>
<!-- Node20 -->
<g id="Node000020" class="node">
<title>Node20</title>
<g id="a_Node000020"><a xlink:href="../../de/d25/a00290.html#a67659f8a701b74f4dec0d36227a10d1c" target="_top" xlink:title="Display an error message window or print to stderr.">
<polygon fill="white" stroke="#666666" points="623.38,-421.75 543.62,-421.75 543.62,-401 623.38,-401 623.38,-421.75"/>
<text xml:space="preserve" text-anchor="middle" x="583.5" y="-408.25" font-family="Helvetica,sans-Serif" font-size="10.00">display_error</text>
</a>
</g>
</g>
<!-- Node19&#45;&gt;Node20 -->
<g id="edge24_Node000019_Node000020" class="edge">
<title>Node19&#45;&gt;Node20</title>
<g id="a_edge24_Node000019_Node000020"><a xlink:title=" ">
<path fill="none" stroke="#63b8ff" d="M486.73,-390.93C502.43,-392.31 522.3,-395.13 539.87,-398.39"/>
<polygon fill="#63b8ff" stroke="#63b8ff" points="539.04,-401.79 549.53,-400.29 540.4,-394.92 539.04,-401.79"/>
</a>
</g>
</g>
<!-- Node21 -->
<g id="Node000021" class="node">
<title>Node21</title>
<g id="a_Node000021"><a xlink:href="../../de/d25/a00290.html#a4298f891699300bfc4e6e56fd2a8d574" target="_top" xlink:title="Get keycode from chyron.">
<polygon fill="white" stroke="#666666" points="629.75,-382.75 537.25,-382.75 537.25,-362 629.75,-362 629.75,-382.75"/>
<text xml:space="preserve" text-anchor="middle" x="583.5" y="-369.25" font-family="Helvetica,sans-Serif" font-size="10.00">get_chyron_key</text>
</a>
</g>
</g>
<!-- Node19&#45;&gt;Node21 -->
<g id="edge35_Node000019_Node000021" class="edge">
<title>Node19&#45;&gt;Node21</title>
<g id="a_edge35_Node000019_Node000021"><a xlink:title=" ">
<path fill="none" stroke="#63b8ff" d="M486.73,-387.84C498.33,-385.96 512.22,-383.72 525.77,-381.53"/>
<polygon fill="#63b8ff" stroke="#63b8ff" points="526.2,-385.01 535.52,-379.96 525.09,-378.1 526.2,-385.01"/>
</a>
</g>
</g>
<!-- Node20&#45;&gt;Node5 -->
<g id="edge25_Node000020_Node000005" class="edge">
<title>Node20&#45;&gt;Node5</title>
<g id="a_edge25_Node000020_Node000005"><a xlink:title=" ">
<path fill="none" stroke="#63b8ff" d="M615.66,-400.56C620.68,-398.01 625.59,-394.97 629.75,-391.38 652.44,-371.8 645.88,-356.8 665.75,-334.38 701.21,-294.36 720.34,-295.3 759,-258.38 769.53,-248.31 794.43,-220.02 811.22,-200.69"/>
<polygon fill="#63b8ff" stroke="#63b8ff" points="813.82,-203.03 817.72,-193.18 808.53,-198.44 813.82,-203.03"/>
</a>
</g>
</g>
<!-- Node20&#45;&gt;Node9 -->
<g id="edge26_Node000020_Node000009" class="edge">
<title>Node20&#45;&gt;Node9</title>
<g id="a_edge26_Node000020_Node000009"><a xlink:title=" ">
<path fill="none" stroke="#63b8ff" d="M617.17,-400.68C621.78,-398.15 626.17,-395.08 629.75,-391.38 659.67,-360.37 644.81,-339.03 665.75,-301.38 674.07,-286.41 685.49,-270.89 694.82,-259.13"/>
<polygon fill="#63b8ff" stroke="#63b8ff" points="697.52,-261.36 701.11,-251.39 692.08,-256.95 697.52,-261.36"/>
</a>
</g>
</g>
<!-- Node20&#45;&gt;Node11 -->
<g id="edge27_Node000020_Node000011" class="edge">
<title>Node20&#45;&gt;Node11</title>
<g id="a_edge27_Node000020_Node000011"><a xlink:title=" ">
<path fill="none" stroke="#63b8ff" d="M593.85,-422.02C608.1,-437.74 636.67,-467.35 665.75,-486.38 667.87,-487.76 670.1,-489.09 672.38,-490.36"/>
<polygon fill="#63b8ff" stroke="#63b8ff" points="670.77,-493.46 681.27,-494.83 673.91,-487.21 670.77,-493.46"/>
</a>
</g>
</g>
<!-- Node20&#45;&gt;Node12 -->
<g id="edge28_Node000020_Node000012" class="edge">
<title>Node20&#45;&gt;Node12</title>
<g id="a_edge28_Node000020_Node000012"><a xlink:title=" ">
<path fill="none" stroke="#63b8ff" d="M618.66,-400.67C622.85,-398.17 626.72,-395.11 629.75,-391.38 678.65,-331.04 616.76,-280.64 665.75,-220.38 666.42,-219.55 667.13,-218.76 667.87,-218.01"/>
<polygon fill="#63b8ff" stroke="#63b8ff" points="669.94,-220.83 675.74,-211.96 665.68,-215.28 669.94,-220.83"/>
</a>
</g>
</g>
<!-- Node20&#45;&gt;Node13 -->
<g id="edge29_Node000020_Node000013" class="edge">
<title>Node20&#45;&gt;Node13</title>
<g id="a_edge29_Node000020_Node000013"><a xlink:title=" ">
<path fill="none" stroke="#63b8ff" d="M589.54,-421.94C600.51,-443.95 628.59,-495.18 665.75,-525.38 667.41,-526.72 669.18,-528 671.01,-529.2"/>
<polygon fill="#63b8ff" stroke="#63b8ff" points="668.86,-532.01 679.29,-533.88 672.3,-525.91 668.86,-532.01"/>
</a>
</g>
</g>
<!-- Node20&#45;&gt;Node14 -->
<g id="edge30_Node000020_Node000014" class="edge">
<title>Node20&#45;&gt;Node14</title>
<g id="a_edge30_Node000020_Node000014"><a xlink:title=" ">
<path fill="none" stroke="#63b8ff" d="M623.8,-410.94C661.72,-412.41 719.11,-419.78 759,-448.38 791.85,-471.92 811.71,-516.44 821.16,-542.95"/>
<polygon fill="#63b8ff" stroke="#63b8ff" points="817.8,-543.92 824.3,-552.29 824.43,-541.69 817.8,-543.92"/>
</a>
</g>
</g>
<!-- Node20&#45;&gt;Node15 -->
<g id="edge31_Node000020_Node000015" class="edge">
<title>Node20&#45;&gt;Node15</title>
<g id="a_edge31_Node000020_Node000015"><a xlink:title=" ">
<path fill="none" stroke="#63b8ff" d="M623.87,-405.07C667.56,-398.06 737.89,-386.79 783.5,-379.49"/>
<polygon fill="#63b8ff" stroke="#63b8ff" points="784,-382.95 793.32,-377.91 782.89,-376.04 784,-382.95"/>
</a>
</g>
</g>
<!-- Node20&#45;&gt;Node16 -->
<g id="edge32_Node000020_Node000016" class="edge">
<title>Node20&#45;&gt;Node16</title>
<g id="a_edge32_Node000020_Node000016"><a xlink:title=" ">
<path fill="none" stroke="#63b8ff" d="M608.96,-422.17C628.18,-430.66 655.19,-442.58 676.65,-452.05"/>
<polygon fill="#63b8ff" stroke="#63b8ff" points="675.04,-455.16 685.6,-456 677.87,-448.76 675.04,-455.16"/>
</a>
</g>
</g>
<!-- Node20&#45;&gt;Node17 -->
<g id="edge33_Node000020_Node000017" class="edge">
<title>Node20&#45;&gt;Node17</title>
<g id="a_edge33_Node000020_Node000017"><a xlink:title=" ">
<path fill="none" stroke="#63b8ff" d="M608.96,-400.67C615.71,-397.69 623.02,-394.43 629.75,-391.38 645.79,-384.1 663.52,-375.87 678.34,-368.93"/>
<polygon fill="#63b8ff" stroke="#63b8ff" points="679.62,-372.2 687.19,-364.78 676.65,-365.86 679.62,-372.2"/>
</a>
</g>
</g>
<!-- Node20&#45;&gt;Node19 -->
<g id="edge34_Node000020_Node000019" class="edge">
<title>Node20&#45;&gt;Node19</title>
<g id="a_edge34_Node000020_Node000019"><a xlink:title=" ">
<path fill="none" stroke="#63b8ff" d="M543.23,-411.68C528.75,-410.02 512.35,-407.5 497.86,-404.72"/>
<polygon fill="#63b8ff" stroke="#63b8ff" points="498.72,-401.33 488.22,-402.75 497.31,-408.18 498.72,-401.33"/>
</a>
</g>
</g>
<!-- Node24&#45;&gt;Node5 -->
<g id="edge41_Node000024_Node000005" class="edge">
<title>Node24&#45;&gt;Node5</title>
<g id="a_edge41_Node000024_Node000005"><a xlink:title=" ">
<path fill="none" stroke="#63b8ff" d="M363.8,-121.15C444.2,-116.57 618.27,-112.34 759,-148.38 773.21,-152.01 787.99,-158.67 800.21,-165.05"/>
<polygon fill="#63b8ff" stroke="#63b8ff" points="798.42,-168.06 808.87,-169.79 801.77,-161.92 798.42,-168.06"/>
</a>
</g>
</g>
<!-- Node25 -->
<g id="Node000025" class="node">
<title>Node25</title>
<g id="a_Node000025"><a xlink:href="../../dd/dd7/a00248.html#aa08a9a8dede37c66c81c3f51a0f338a9" target="_top" xlink:title="Signal handler for interrupt signals.">
<polygon fill="white" stroke="#666666" points="501.25,-96.75 414,-96.75 414,-76 501.25,-76 501.25,-96.75"/>
<text xml:space="preserve" text-anchor="middle" x="457.62" y="-83.25" font-family="Helvetica,sans-Serif" font-size="10.00">signal_handler</text>
</a>
</g>
</g>
<!-- Node24&#45;&gt;Node25 -->
<g id="edge42_Node000024_Node000025" class="edge">
<title>Node24&#45;&gt;Node25</title>
<g id="a_edge42_Node000024_Node000025"><a xlink:title=" ">
<path fill="none" stroke="#63b8ff" d="M358.25,-113.59C373.33,-109.42 390.78,-104.59 406.75,-100.17"/>
<polygon fill="#63b8ff" stroke="#63b8ff" points="407.37,-103.63 416.07,-97.59 405.5,-96.89 407.37,-103.63"/>
</a>
</g>
</g>
</g>
</svg>

<g id="navigator" transform="translate(0 0)" fill="#404254">
  <rect fill="#f2f5e9" fill-opacity="0.5" stroke="#606060" stroke-width=".5" x="0" y="0" width="60" height="60"/>
  <use id="zoomplus" xlink:href="#zoomPlus" x="17" y="9" onmousedown="handleZoom(evt,'in')"/>
  <use id="zoomminus" xlink:href="#zoomMin" x="42" y="9" onmousedown="handleZoom(evt,'out')"/>
  <use id="reset" xlink:href="#resetDef" x="30" y="36" onmousedown="handleReset()"/>
   <use id="arrowup" xlink:href="#arrowUp" x="0" y="0" onmousedown="handlePan(0,-1)"/>
  <use id="arrowright" xlink:href="#arrowRight" x="0" y="0" onmousedown="handlePan(1,0)"/>
  <use id="arrowdown" xlink:href="#arrowDown" x="0" y="0" onmousedown="handlePan(0,1)"/>
  <use id="arrowleft" xlink:href="#arrowLeft" x="0" y="0" onmousedown="handlePan(-1,0)"/>
</g>
<svg viewBox="0 0 15 15" width="100%" height="30px" preserveAspectRatio="xMaxYMin meet">
 <g id="arrow_out" transform="scale(0.3 0.3)">
  <a xlink:href="a00230_a907dc4a5b8c29a03d23bdc87f41b5f1b_cgraph_org.svg" target="_base">
   <rect id="button" ry="5" rx="5" y="6" x="6" height="38" width="38"
        fill="#f2f5e9" fill-opacity="0.5" stroke="#606060" stroke-width="1.0"/>
   <path id="arrow"
     d="M 11.500037,31.436501 C 11.940474,20.09759 22.043105,11.32322 32.158766,21.979434 L 37.068811,17.246167 C 37.068811,17.246167 37.088388,32 37.088388,32 L 22.160133,31.978069 C 22.160133,31.978069 26.997745,27.140456 26.997745,27.140456 C 18.528582,18.264221 13.291696,25.230495 11.500037,31.436501 z"
     style="fill:#404040;"/>
  </a>
 </g>
</svg>

<style type='text/css'>
<![CDATA[
[data-mouse-over-selected='false'] { opacity: 0.7; }
[data-mouse-over-selected='true']  { opacity: 1.0; }
]]>
</style>
<script type="application/ecmascript"><![CDATA[
document.addEventListener('DOMContentLoaded', (event) => {
  highlightEdges();
  highlightAdjacentNodes();
});
]]></script>
</svg>
