<?xml version="1.0" encoding="UTF-8" standalone="no"?>
<!DOCTYPE svg PUBLIC "-//W3C//DTD SVG 1.1//EN"
 "http://www.w3.org/Graphics/SVG/1.1/DTD/svg11.dtd">
<!-- Generated by graphviz version 14.1.2 (0)
 -->
<!-- Title: shell Pages: 1 -->
<!--zoomable 285 -->

<svg id="main" version="1.1" xmlns="http://www.w3.org/2000/svg" xmlns:xlink="http://www.w3.org/1999/xlink" xml:space="preserve" onload="init(evt)">

<style type="text/css"><![CDATA[
.node, .edge {opacity: 0.7;}
.node.selected, .edge.selected {opacity: 1;}
.edge:hover path { stroke: red; }
.edge:hover polygon { stroke: red; fill: red; }
]]></style>

<defs>
  <circle id="rim" cx="0" cy="0" r="7"/>
  <circle id="rim2" cx="0" cy="0" r="3.5"/>
  <g id="zoomPlus">
    <use xlink:href="#rim" fill="#404040"><set attributeName="fill" to="#808080" begin="zoomplus.mouseover" end="zoomplus.mouseout"/></use>
    <path d="M-4,0h8M0,-4v8" fill="none" stroke="white" stroke-width="1.5" pointer-events="none"/>
  </g>
  <g id="zoomMin">
    <use xlink:href="#rim" fill="#404040"><set attributeName="fill" to="#808080" begin="zoomminus.mouseover" end="zoomminus.mouseout"/></use>
    <path d="M-4,0h8" fill="none" stroke="white" stroke-width="1.5" pointer-events="none"/>
  </g>
  <g id="arrowUp" transform="translate(30 24)">
    <use xlink:href="#rim"/>
    <path pointer-events="none" fill="none" stroke="white" stroke-width="1.5" d="M0,-3.0v7 M-2.5,-0.5L0,-3.0L2.5,-0.5"/>
  </g>
  <g id="arrowRight" transform="rotate(90) translate(36 -43)">
    <use xlink:href="#rim"/>
    <path pointer-events="none" fill="none" stroke="white" stroke-width="1.5" d="M0,-3.0v7 M-2.5,-0.5L0,-3.0L2.5,-0.5"/>
  </g>
  <g id="arrowDown" transform="rotate(180) translate(-30 -48)">
    <use xlink:href="#rim"/>
    <path pointer-events="none" fill="none" stroke="white" stroke-width="1.5" d="M0,-3.0v7 M-2.5,-0.5L0,-3.0L2.5,-0.5"/>
  </g>
  <g id="arrowLeft" transform="rotate(270) translate(-36 17)">
    <use xlink:href="#rim"/>
    <path pointer-events="none" fill="none" stroke="white" stroke-width="1.5" d="M0,-3.0v7 M-2.5,-0.5L0,-3.0L2.5,-0.5"/>
  </g>
  <g id="resetDef">
    <use xlink:href="#rim2" fill="#404040"><set attributeName="fill" to="#808080" begin="reset.mouseover" end="reset.mouseout"/></use>
  </g>
</defs>
<script type="application/ecmascript">
var viewWidth = 1347;
var viewHeight = 285;
var sectionId = 'dynsection-11';
</script>
<script type="application/ecmascript" xlink:href="../../svg.min.js"/>
<svg id="graph" class="graph">
<g id="viewport">
<title>shell</title>
<!-- Node1 -->
<g id="Node000001" class="node">
<title>Node1</title>
<g id="a_Node000001"><a xlink:title="Execute a shell command.">
<polygon fill="#999999" stroke="#666666" points="1338.75,-192.75 1299.5,-192.75 1299.5,-172 1338.75,-172 1338.75,-192.75"/>
<text xml:space="preserve" text-anchor="middle" x="1319.12" y="-179.25" font-family="Helvetica,sans-Serif" font-size="10.00">shell</text>
</a>
</g>
</g>
<!-- Node2 -->
<g id="Node000002" class="node">
<title>Node2</title>
<g id="a_Node000002"><a xlink:href="../../d6/de1/a00233.html#ab2e6e35d9dba586838b91f54a6dd41a2" target="_top" xlink:title="Execute a provider command specified in the form description file, passing form field values as argum...">
<polygon fill="white" stroke="#666666" points="1117.75,-211.75 1023.75,-211.75 1023.75,-191 1117.75,-191 1117.75,-211.75"/>
<text xml:space="preserve" text-anchor="middle" x="1070.75" y="-198.25" font-family="Helvetica,sans-Serif" font-size="10.00">form_exec_cmd</text>
</a>
</g>
</g>
<!-- Node1&#45;&gt;Node2 -->
<g id="edge1_Node000001_Node000002" class="edge">
<title>Node1&#45;&gt;Node2</title>
<g id="a_edge1_Node000001_Node000002"><a xlink:title=" ">
<path fill="none" stroke="#63b8ff" d="M1287.97,-184.7C1245.54,-187.97 1167.85,-193.96 1118.06,-197.8"/>
<polygon fill="#63b8ff" stroke="#63b8ff" points="1287.99,-188.21 1297.69,-183.95 1287.45,-181.23 1287.99,-188.21"/>
</a>
</g>
</g>
<!-- Node10 -->
<g id="Node000010" class="node">
<title>Node10</title>
<g id="a_Node000010"><a xlink:href="../../d1/da8/a00230.html#aeb3e7eb282467134ce50fde7d9ebd19d" target="_top" xlink:title="Execute a shell command in full screen mode.">
<polygon fill="white" stroke="#666666" points="1263.5,-249.75 1165.75,-249.75 1165.75,-229 1263.5,-229 1263.5,-249.75"/>
<text xml:space="preserve" text-anchor="middle" x="1214.62" y="-236.25" font-family="Helvetica,sans-Serif" font-size="10.00">full_screen_shell</text>
</a>
</g>
</g>
<!-- Node1&#45;&gt;Node10 -->
<g id="edge10_Node000001_Node000010" class="edge">
<title>Node1&#45;&gt;Node10</title>
<g id="a_edge10_Node000001_Node000010"><a xlink:title=" ">
<path fill="none" stroke="#63b8ff" d="M1291.39,-199.1C1282.59,-204.45 1272.7,-210.3 1263.5,-215.38 1255.36,-219.87 1246.27,-224.51 1238.22,-228.5"/>
<polygon fill="#63b8ff" stroke="#63b8ff" points="1293.13,-202.14 1299.82,-193.92 1289.46,-196.18 1293.13,-202.14"/>
</a>
</g>
</g>
<!-- Node11 -->
<g id="Node000011" class="node">
<title>Node11</title>
<g id="a_Node000011"><a xlink:href="../../d2/dc8/a00242.html#a9c4b3ba5f73c18b486646c62b933972a" target="_top" xlink:title="Main Command Processing Loop for View.">
<polygon fill="white" stroke="#666666" points="1129.75,-153.75 1011.75,-153.75 1011.75,-133 1129.75,-133 1129.75,-153.75"/>
<text xml:space="preserve" text-anchor="middle" x="1070.75" y="-140.25" font-family="Helvetica,sans-Serif" font-size="10.00">view_cmd_processor</text>
</a>
</g>
</g>
<!-- Node1&#45;&gt;Node11 -->
<g id="edge31_Node000001_Node000011" class="edge">
<title>Node1&#45;&gt;Node11</title>
<g id="a_edge31_Node000001_Node000011"><a xlink:title=" ">
<path fill="none" stroke="#63b8ff" d="M1298.32,-164.24C1288.58,-156.53 1276.22,-148.4 1263.5,-144.38 1220.34,-130.71 1168.92,-131.29 1130.2,-134.82"/>
<polygon fill="#63b8ff" stroke="#63b8ff" points="1296.04,-166.89 1305.94,-170.67 1300.55,-161.54 1296.04,-166.89"/>
</a>
</g>
</g>
<!-- Node22 -->
<g id="Node000022" class="node">
<title>Node22</title>
<g id="a_Node000022"><a xlink:href="../../d2/dc8/a00242.html#a219efbc4d9d70ebc47fafa540b370247" target="_top" xlink:title="Send File to Print Queue.">
<polygon fill="white" stroke="#666666" points="1229.03,-173.75 1200.22,-173.75 1200.22,-153 1229.03,-153 1229.03,-173.75"/>
<text xml:space="preserve" text-anchor="middle" x="1214.62" y="-160.25" font-family="Helvetica,sans-Serif" font-size="10.00">lp</text>
</a>
</g>
</g>
<!-- Node1&#45;&gt;Node22 -->
<g id="edge29_Node000001_Node000022" class="edge">
<title>Node1&#45;&gt;Node22</title>
<g id="a_edge29_Node000001_Node000022"><a xlink:title=" ">
<path fill="none" stroke="#63b8ff" d="M1288.01,-176.79C1268.61,-173.2 1244.31,-168.69 1229.39,-165.93"/>
<polygon fill="#63b8ff" stroke="#63b8ff" points="1287.37,-180.23 1297.84,-178.61 1288.64,-173.35 1287.37,-180.23"/>
</a>
</g>
</g>
<!-- Node3 -->
<g id="Node000003" class="node">
<title>Node3</title>
<g id="a_Node000003"><a xlink:href="../../d6/de1/a00233.html#ada302551bf41bf8ed6132fd34328a47e" target="_top" xlink:title="Form main processing loop.">
<polygon fill="white" stroke="#666666" points="780.25,-211.75 702.75,-211.75 702.75,-191 780.25,-191 780.25,-211.75"/>
<text xml:space="preserve" text-anchor="middle" x="741.5" y="-198.25" font-family="Helvetica,sans-Serif" font-size="10.00">form_engine</text>
</a>
</g>
</g>
<!-- Node2&#45;&gt;Node3 -->
<g id="edge2_Node000002_Node000003" class="edge">
<title>Node2&#45;&gt;Node3</title>
<g id="a_edge2_Node000002_Node000003"><a xlink:title=" ">
<path fill="none" stroke="#63b8ff" d="M1012.41,-201.38C945.66,-201.38 837.32,-201.38 780.32,-201.38"/>
<polygon fill="#63b8ff" stroke="#63b8ff" points="1012.04,-204.88 1022.04,-201.38 1012.04,-197.88 1012.04,-204.88"/>
</a>
</g>
</g>
<!-- Node4 -->
<g id="Node000004" class="node">
<title>Node4</title>
<g id="a_Node000004"><a xlink:href="../../d6/de1/a00233.html#abf1be20a8aad5f7ba09172ac1434a110" target="_top" xlink:title="Initialize form data structure and parse description file.">
<polygon fill="white" stroke="#666666" points="642.75,-211.75 582.5,-211.75 582.5,-191 642.75,-191 642.75,-211.75"/>
<text xml:space="preserve" text-anchor="middle" x="612.62" y="-198.25" font-family="Helvetica,sans-Serif" font-size="10.00">init_form</text>
</a>
</g>
</g>
<!-- Node3&#45;&gt;Node4 -->
<g id="edge3_Node000003_Node000004" class="edge">
<title>Node3&#45;&gt;Node4</title>
<g id="a_edge3_Node000003_Node000004"><a xlink:title=" ">
<path fill="none" stroke="#63b8ff" d="M690.96,-201.38C674.81,-201.38 657.4,-201.38 643.2,-201.38"/>
<polygon fill="#63b8ff" stroke="#63b8ff" points="690.92,-204.88 700.92,-201.38 690.92,-197.88 690.92,-204.88"/>
</a>
</g>
</g>
<!-- Node5 -->
<g id="Node000005" class="node">
<title>Node5</title>
<g id="a_Node000005"><a xlink:href="../../d2/dc8/a00242.html#a2ffea5674e85f124a70e19f745a66583" target="_top" xlink:title="use form to enter a file specification">
<polygon fill="white" stroke="#666666" points="536.75,-210.75 446.5,-210.75 446.5,-190 536.75,-190 536.75,-210.75"/>
<text xml:space="preserve" text-anchor="middle" x="491.62" y="-197.25" font-family="Helvetica,sans-Serif" font-size="10.00">enter_file_spec</text>
</a>
</g>
</g>
<!-- Node4&#45;&gt;Node5 -->
<g id="edge4_Node000004_Node000005" class="edge">
<title>Node4&#45;&gt;Node5</title>
<g id="a_edge4_Node000004_Node000005"><a xlink:title=" ">
<path fill="none" stroke="#63b8ff" d="M570.82,-201.03C559.92,-200.94 548.09,-200.84 537,-200.75"/>
<polygon fill="#63b8ff" stroke="#63b8ff" points="570.67,-204.53 580.7,-201.12 570.73,-197.53 570.67,-204.53"/>
</a>
</g>
</g>
<!-- Node6 -->
<g id="Node000006" class="node">
<title>Node6</title>
<g id="a_Node000006"><a xlink:href="../../d3/d5e/a00275.html#a3c04138a5bfe5d72780bb7e82a18e627" target="_top" xlink:title=" ">
<polygon fill="white" stroke="#666666" points="512,-249.75 471.25,-249.75 471.25,-229 512,-229 512,-249.75"/>
<text xml:space="preserve" text-anchor="middle" x="491.62" y="-236.25" font-family="Helvetica,sans-Serif" font-size="10.00">main</text>
</a>
</g>
</g>
<!-- Node4&#45;&gt;Node6 -->
<g id="edge5_Node000004_Node000006" class="edge">
<title>Node4&#45;&gt;Node6</title>
<g id="a_edge5_Node000004_Node000006"><a xlink:title=" ">
<path fill="none" stroke="#63b8ff" d="M571.27,-214.26C551.42,-220.6 528.38,-227.96 512.4,-233.06"/>
<polygon fill="#63b8ff" stroke="#63b8ff" points="572.31,-217.6 580.77,-211.23 570.18,-210.94 572.31,-217.6"/>
</a>
</g>
</g>
<!-- Node7 -->
<g id="Node000007" class="node">
<title>Node7</title>
<g id="a_Node000007"><a xlink:href="../../df/da9/a00263.html#aa5d0e30e7036b72b51c843d0a7e486a1" target="_top" xlink:title="Processes user input for the menu system.">
<polygon fill="white" stroke="#666666" points="317.25,-153.75 194.75,-153.75 194.75,-133 317.25,-133 317.25,-153.75"/>
<text xml:space="preserve" text-anchor="middle" x="256" y="-140.25" font-family="Helvetica,sans-Serif" font-size="10.00">menu_cmd_processor</text>
</a>
</g>
</g>
<!-- Node4&#45;&gt;Node7 -->
<g id="edge6_Node000004_Node000007" class="edge">
<title>Node4&#45;&gt;Node7</title>
<g id="a_edge6_Node000004_Node000007"><a xlink:title=" ">
<path fill="none" stroke="#63b8ff" d="M571.53,-189.67C560.34,-186.67 548.13,-183.66 536.75,-181.38 461.9,-166.36 374.58,-155.55 317.67,-149.38"/>
<polygon fill="#63b8ff" stroke="#63b8ff" points="570.28,-192.95 580.85,-192.23 572.13,-186.2 570.28,-192.95"/>
</a>
</g>
</g>
<!-- Node8 -->
<g id="Node000008" class="node">
<title>Node8</title>
<g id="a_Node000008"><a xlink:href="../../df/da9/a00263.html#a7d7973d7aac92759dcc86ec52bb038f4" target="_top" xlink:title="The main loop of the menu system.">
<polygon fill="white" stroke="#666666" points="158.75,-153.75 76.75,-153.75 76.75,-133 158.75,-133 158.75,-153.75"/>
<text xml:space="preserve" text-anchor="middle" x="117.75" y="-140.25" font-family="Helvetica,sans-Serif" font-size="10.00">menu_engine</text>
</a>
</g>
</g>
<!-- Node7&#45;&gt;Node8 -->
<g id="edge7_Node000007_Node000008" class="edge">
<title>Node7&#45;&gt;Node8</title>
<g id="a_edge7_Node000007_Node000008"><a xlink:title=" ">
<path fill="none" stroke="#63b8ff" d="M183.2,-136.63C174.96,-136.67 166.79,-136.84 159.17,-137.15"/>
<polygon fill="#63b8ff" stroke="#63b8ff" points="182.92,-140.13 192.93,-136.66 182.94,-133.13 182.92,-140.13"/>
</a>
</g>
</g>
<!-- Node8&#45;&gt;Node7 -->
<g id="edge9_Node000008_Node000007" class="edge">
<title>Node8&#45;&gt;Node7</title>
<g id="a_edge9_Node000008_Node000007"><a xlink:title=" ">
<path fill="none" stroke="#63b8ff" d="M170.68,-149.95C178.45,-150.12 186.52,-150.17 194.45,-150.09"/>
<polygon fill="#63b8ff" stroke="#63b8ff" points="170.79,-146.45 160.69,-149.65 170.58,-153.45 170.79,-146.45"/>
</a>
</g>
</g>
<!-- Node9 -->
<g id="Node000009" class="node">
<title>Node9</title>
<g id="a_Node000009"><a xlink:href="../../d9/d01/a00227.html#a3c04138a5bfe5d72780bb7e82a18e627" target="_top" xlink:title=" ">
<polygon fill="white" stroke="#666666" points="40.75,-153.75 0,-153.75 0,-133 40.75,-133 40.75,-153.75"/>
<text xml:space="preserve" text-anchor="middle" x="20.38" y="-140.25" font-family="Helvetica,sans-Serif" font-size="10.00">main</text>
</a>
</g>
</g>
<!-- Node8&#45;&gt;Node9 -->
<g id="edge8_Node000008_Node000009" class="edge">
<title>Node8&#45;&gt;Node9</title>
<g id="a_edge8_Node000008_Node000009"><a xlink:title=" ">
<path fill="none" stroke="#63b8ff" d="M64.79,-143.38C56.36,-143.38 48.1,-143.38 41.09,-143.38"/>
<polygon fill="#63b8ff" stroke="#63b8ff" points="64.79,-146.88 74.79,-143.38 64.79,-139.88 64.79,-146.88"/>
</a>
</g>
</g>
<!-- Node10&#45;&gt;Node7 -->
<g id="edge11_Node000010_Node000007" class="edge">
<title>Node10&#45;&gt;Node7</title>
<g id="a_edge11_Node000010_Node000007"><a xlink:title=" ">
<path fill="none" stroke="#63b8ff" d="M1155.6,-252.46C1101.74,-263.45 1019.19,-277.38 946.62,-277.38 946.62,-277.38 946.62,-277.38 490.62,-277.38 391.5,-277.38 296.33,-185.48 266.55,-153.89"/>
<polygon fill="#63b8ff" stroke="#63b8ff" points="1156.09,-255.93 1165.16,-250.47 1154.66,-249.08 1156.09,-255.93"/>
</a>
</g>
</g>
<!-- Node10&#45;&gt;Node11 -->
<g id="edge12_Node000010_Node000011" class="edge">
<title>Node10&#45;&gt;Node11</title>
<g id="a_edge12_Node000010_Node000011"><a xlink:title=" ">
<path fill="none" stroke="#63b8ff" d="M1188.78,-222.45C1172.1,-211.09 1149.62,-195.81 1129.75,-182.38 1115.48,-172.73 1099.19,-161.78 1087.52,-153.95"/>
<polygon fill="#63b8ff" stroke="#63b8ff" points="1186.39,-225.05 1196.62,-227.78 1190.33,-219.26 1186.39,-225.05"/>
</a>
</g>
</g>
<!-- Node12 -->
<g id="Node000012" class="node">
<title>Node12</title>
<g id="a_Node000012"><a xlink:href="../../d2/dc8/a00242.html#a0bd4dc056ab5010547129bb87819789b" target="_top" xlink:title="Start view.">
<polygon fill="white" stroke="#666666" points="975.75,-153.75 915.5,-153.75 915.5,-133 975.75,-133 975.75,-153.75"/>
<text xml:space="preserve" text-anchor="middle" x="945.62" y="-140.25" font-family="Helvetica,sans-Serif" font-size="10.00">view_file</text>
</a>
</g>
</g>
<!-- Node11&#45;&gt;Node12 -->
<g id="edge13_Node000011_Node000012" class="edge">
<title>Node11&#45;&gt;Node12</title>
<g id="a_edge13_Node000011_Node000012"><a xlink:title=" ">
<path fill="none" stroke="#63b8ff" d="M1000.19,-143.38C991.69,-143.38 983.39,-143.38 975.97,-143.38"/>
<polygon fill="#63b8ff" stroke="#63b8ff" points="999.92,-146.88 1009.92,-143.38 999.92,-139.88 999.92,-146.88"/>
</a>
</g>
</g>
<!-- Node13 -->
<g id="Node000013" class="node">
<title>Node13</title>
<g id="a_Node000013"><a xlink:href="../../d6/d22/a00245.html#a3c04138a5bfe5d72780bb7e82a18e627" target="_top" xlink:title=" ">
<polygon fill="white" stroke="#666666" points="761.88,-172.75 721.12,-172.75 721.12,-152 761.88,-152 761.88,-172.75"/>
<text xml:space="preserve" text-anchor="middle" x="741.5" y="-159.25" font-family="Helvetica,sans-Serif" font-size="10.00">main</text>
</a>
</g>
</g>
<!-- Node12&#45;&gt;Node13 -->
<g id="edge14_Node000012_Node000013" class="edge">
<title>Node12&#45;&gt;Node13</title>
<g id="a_edge14_Node000012_Node000013"><a xlink:title=" ">
<path fill="none" stroke="#63b8ff" d="M904.03,-147.19C861,-151.24 794.84,-157.45 762.16,-160.53"/>
<polygon fill="#63b8ff" stroke="#63b8ff" points="904.1,-150.7 913.73,-146.28 903.44,-143.73 904.1,-150.7"/>
</a>
</g>
</g>
<!-- Node14 -->
<g id="Node000014" class="node">
<title>Node14</title>
<g id="a_Node000014"><a xlink:href="../../d9/dd6/a00272.html#a75a4e7afc9c9aafd3d35ab706f5fdc71" target="_top" xlink:title="subprogram entry point for C&#45;Menu View">
<polygon fill="white" stroke="#666666" points="879.5,-134.75 830.5,-134.75 830.5,-114 879.5,-114 879.5,-134.75"/>
<text xml:space="preserve" text-anchor="middle" x="855" y="-121.25" font-family="Helvetica,sans-Serif" font-size="10.00">mview</text>
</a>
</g>
</g>
<!-- Node12&#45;&gt;Node14 -->
<g id="edge15_Node000012_Node000014" class="edge">
<title>Node12&#45;&gt;Node14</title>
<g id="a_edge15_Node000012_Node000014"><a xlink:title=" ">
<path fill="none" stroke="#63b8ff" d="M904.02,-134.67C895.73,-132.89 887.26,-131.08 879.79,-129.48"/>
<polygon fill="#63b8ff" stroke="#63b8ff" points="903.12,-138.06 913.63,-136.73 904.59,-131.21 903.12,-138.06"/>
</a>
</g>
</g>
<!-- Node14&#45;&gt;Node3 -->
<g id="edge24_Node000014_Node000003" class="edge">
<title>Node14&#45;&gt;Node3</title>
<g id="a_edge24_Node000014_Node000003"><a xlink:title=" ">
<path fill="none" stroke="#63b8ff" d="M837.73,-143.48C826.57,-155.63 810.86,-170.99 794.5,-181.38 788.95,-184.9 782.67,-187.96 776.46,-190.56"/>
<polygon fill="#63b8ff" stroke="#63b8ff" points="840.29,-145.87 844.31,-136.07 835.05,-141.22 840.29,-145.87"/>
</a>
</g>
</g>
<!-- Node14&#45;&gt;Node7 -->
<g id="edge26_Node000014_Node000007" class="edge">
<title>Node14&#45;&gt;Node7</title>
<g id="a_edge26_Node000014_Node000007"><a xlink:title=" ">
<path fill="none" stroke="#63b8ff" d="M818.8,-124.38C771.96,-124.38 686.57,-124.38 613.62,-124.38 613.62,-124.38 613.62,-124.38 490.62,-124.38 431.62,-124.38 364.51,-130.47 317.4,-135.76"/>
<polygon fill="#63b8ff" stroke="#63b8ff" points="818.6,-127.88 828.6,-124.38 818.6,-120.88 818.6,-127.88"/>
</a>
</g>
</g>
<!-- Node14&#45;&gt;Node13 -->
<g id="edge25_Node000014_Node000013" class="edge">
<title>Node14&#45;&gt;Node13</title>
<g id="a_edge25_Node000014_Node000013"><a xlink:title=" ">
<path fill="none" stroke="#63b8ff" d="M819.27,-136.21C800.52,-142.6 778.05,-150.26 762.29,-155.63"/>
<polygon fill="#63b8ff" stroke="#63b8ff" points="820.31,-139.55 828.65,-133.02 818.05,-132.93 820.31,-139.55"/>
</a>
</g>
</g>
<!-- Node15 -->
<g id="Node000015" class="node">
<title>Node15</title>
<g id="a_Node000015"><a xlink:href="../../d5/ddf/a00224.html#aeebc4c0b94ca97d753e10a0cd1798730" target="_top" xlink:title="Displays the help screen for the pick interface using mview.">
<polygon fill="white" stroke="#666666" points="793,-96.75 690,-96.75 690,-76 793,-76 793,-96.75"/>
<text xml:space="preserve" text-anchor="middle" x="741.5" y="-83.25" font-family="Helvetica,sans-Serif" font-size="10.00">display_pick_help</text>
</a>
</g>
</g>
<!-- Node14&#45;&gt;Node15 -->
<g id="edge16_Node000014_Node000015" class="edge">
<title>Node14&#45;&gt;Node15</title>
<g id="a_edge16_Node000014_Node000015"><a xlink:title=" ">
<path fill="none" stroke="#63b8ff" d="M819.5,-112.62C804.97,-107.67 788.19,-101.95 774,-97.11"/>
<polygon fill="#63b8ff" stroke="#63b8ff" points="818.05,-115.82 828.65,-115.73 820.31,-109.2 818.05,-115.82"/>
</a>
</g>
</g>
<!-- Node20 -->
<g id="Node000020" class="node">
<title>Node20</title>
<g id="a_Node000020"><a xlink:href="../../d5/ddf/a00224.html#af7fcbb1c8b67a4d11c86ba7209f397c2" target="_top" xlink:title="Executes specified command with selected objects as arguments.">
<polygon fill="white" stroke="#666666" points="652.5,-57.75 572.75,-57.75 572.75,-37 652.5,-37 652.5,-57.75"/>
<text xml:space="preserve" text-anchor="middle" x="612.62" y="-44.25" font-family="Helvetica,sans-Serif" font-size="10.00">exec_objects</text>
</a>
</g>
</g>
<!-- Node14&#45;&gt;Node20 -->
<g id="edge22_Node000014_Node000020" class="edge">
<title>Node14&#45;&gt;Node20</title>
<g id="a_edge22_Node000014_Node000020"><a xlink:title=" ">
<path fill="none" stroke="#63b8ff" d="M839.6,-105.1C828.74,-92.11 812.65,-75.85 794.5,-67.38 749.27,-46.25 690.98,-43.58 652.97,-44.64"/>
<polygon fill="#63b8ff" stroke="#63b8ff" points="836.63,-106.99 845.6,-112.63 842.11,-102.63 836.63,-106.99"/>
</a>
</g>
</g>
<!-- Node21 -->
<g id="Node000021" class="node">
<title>Node21</title>
<g id="a_Node000021"><a xlink:href="../../d2/dc8/a00242.html#ad997ba9f8591568c77291fb1b44601b2" target="_top" xlink:title="Display View Help File.">
<polygon fill="white" stroke="#666666" points="794.5,-20.75 688.5,-20.75 688.5,0 794.5,0 794.5,-20.75"/>
<text xml:space="preserve" text-anchor="middle" x="741.5" y="-7.25" font-family="Helvetica,sans-Serif" font-size="10.00">view_display_help</text>
</a>
</g>
</g>
<!-- Node14&#45;&gt;Node21 -->
<g id="edge27_Node000014_Node000021" class="edge">
<title>Node14&#45;&gt;Node21</title>
<g id="a_edge27_Node000014_Node000021"><a xlink:title=" ">
<path fill="none" stroke="#63b8ff" d="M844.37,-103.34C834.33,-83.38 816.94,-53.64 794.5,-34.38 788.31,-29.06 780.76,-24.69 773.34,-21.2"/>
<polygon fill="#63b8ff" stroke="#63b8ff" points="841.14,-104.7 848.63,-112.19 847.44,-101.66 841.14,-104.7"/>
</a>
</g>
</g>
<!-- Node16 -->
<g id="Node000016" class="node">
<title>Node16</title>
<g id="a_Node000016"><a xlink:href="../../d5/ddf/a00224.html#abb0969a6d1c7e78be46c3b325754c802" target="_top" xlink:title="Main loop to handle user input and interactions for pick interface.">
<polygon fill="white" stroke="#666666" points="635.25,-96.75 590,-96.75 590,-76 635.25,-76 635.25,-96.75"/>
<text xml:space="preserve" text-anchor="middle" x="612.62" y="-83.25" font-family="Helvetica,sans-Serif" font-size="10.00">picker</text>
</a>
</g>
</g>
<!-- Node15&#45;&gt;Node16 -->
<g id="edge17_Node000015_Node000016" class="edge">
<title>Node15&#45;&gt;Node16</title>
<g id="a_edge17_Node000015_Node000016"><a xlink:title=" ">
<path fill="none" stroke="#63b8ff" d="M678.52,-86.38C663.16,-86.38 647.69,-86.38 635.71,-86.38"/>
<polygon fill="#63b8ff" stroke="#63b8ff" points="678.11,-89.88 688.11,-86.38 678.11,-82.88 678.11,-89.88"/>
</a>
</g>
</g>
<!-- Node17 -->
<g id="Node000017" class="node">
<title>Node17</title>
<g id="a_Node000017"><a xlink:href="../../d5/ddf/a00224.html#ab97dcab41017c5132f52b682437a151e" target="_top" xlink:title="Initializes pick interface, calculates window size and position, and enters picker loop.">
<polygon fill="white" stroke="#666666" points="528.88,-96.75 454.38,-96.75 454.38,-76 528.88,-76 528.88,-96.75"/>
<text xml:space="preserve" text-anchor="middle" x="491.62" y="-83.25" font-family="Helvetica,sans-Serif" font-size="10.00">pick_engine</text>
</a>
</g>
</g>
<!-- Node16&#45;&gt;Node17 -->
<g id="edge18_Node000016_Node000017" class="edge">
<title>Node16&#45;&gt;Node17</title>
<g id="a_edge18_Node000016_Node000017"><a xlink:title=" ">
<path fill="none" stroke="#63b8ff" d="M578.45,-86.38C563.1,-86.38 544.84,-86.38 529.1,-86.38"/>
<polygon fill="#63b8ff" stroke="#63b8ff" points="578.01,-89.88 588.01,-86.38 578.01,-82.88 578.01,-89.88"/>
</a>
</g>
</g>
<!-- Node18 -->
<g id="Node000018" class="node">
<title>Node18</title>
<g id="a_Node000018"><a xlink:href="../../d5/ddf/a00224.html#a1b2ee87543245e612c1710ea58930a17" target="_top" xlink:title="Initializes pick structure and opens pick input file or pipe.">
<polygon fill="white" stroke="#666666" points="410.5,-96.75 353.25,-96.75 353.25,-76 410.5,-76 410.5,-96.75"/>
<text xml:space="preserve" text-anchor="middle" x="381.88" y="-83.25" font-family="Helvetica,sans-Serif" font-size="10.00">init_pick</text>
</a>
</g>
</g>
<!-- Node17&#45;&gt;Node18 -->
<g id="edge19_Node000017_Node000018" class="edge">
<title>Node17&#45;&gt;Node18</title>
<g id="a_edge19_Node000017_Node000018"><a xlink:title=" ">
<path fill="none" stroke="#63b8ff" d="M442.91,-86.38C431.93,-86.38 420.61,-86.38 410.8,-86.38"/>
<polygon fill="#63b8ff" stroke="#63b8ff" points="442.63,-89.88 452.63,-86.38 442.63,-82.88 442.63,-89.88"/>
</a>
</g>
</g>
<!-- Node18&#45;&gt;Node7 -->
<g id="edge21_Node000018_Node000007" class="edge">
<title>Node18&#45;&gt;Node7</title>
<g id="a_edge21_Node000018_Node000007"><a xlink:title=" ">
<path fill="none" stroke="#63b8ff" d="M346.83,-102.04C325.76,-111.73 299.25,-123.93 280.5,-132.56"/>
<polygon fill="#63b8ff" stroke="#63b8ff" points="348.29,-105.22 355.91,-97.86 345.36,-98.86 348.29,-105.22"/>
</a>
</g>
</g>
<!-- Node19 -->
<g id="Node000019" class="node">
<title>Node19</title>
<g id="a_Node000019"><a xlink:href="../../d9/d39/a00257.html#a3c04138a5bfe5d72780bb7e82a18e627" target="_top" xlink:title=" ">
<polygon fill="white" stroke="#666666" points="276.38,-96.75 235.62,-96.75 235.62,-76 276.38,-76 276.38,-96.75"/>
<text xml:space="preserve" text-anchor="middle" x="256" y="-83.25" font-family="Helvetica,sans-Serif" font-size="10.00">main</text>
</a>
</g>
</g>
<!-- Node18&#45;&gt;Node19 -->
<g id="edge20_Node000018_Node000019" class="edge">
<title>Node18&#45;&gt;Node19</title>
<g id="a_edge20_Node000018_Node000019"><a xlink:title=" ">
<path fill="none" stroke="#63b8ff" d="M341.27,-86.38C319.64,-86.38 293.83,-86.38 276.52,-86.38"/>
<polygon fill="#63b8ff" stroke="#63b8ff" points="341.25,-89.88 351.25,-86.38 341.25,-82.88 341.25,-89.88"/>
</a>
</g>
</g>
<!-- Node20&#45;&gt;Node17 -->
<g id="edge23_Node000020_Node000017" class="edge">
<title>Node20&#45;&gt;Node17</title>
<g id="a_edge23_Node000020_Node000017"><a xlink:title=" ">
<path fill="none" stroke="#63b8ff" d="M567.64,-61.79C553.73,-66.35 538.6,-71.31 525.6,-75.57"/>
<polygon fill="#63b8ff" stroke="#63b8ff" points="568.63,-65.15 577.04,-58.71 566.45,-58.5 568.63,-65.15"/>
</a>
</g>
</g>
<!-- Node21&#45;&gt;Node11 -->
<g id="edge28_Node000021_Node000011" class="edge">
<title>Node21&#45;&gt;Node11</title>
<g id="a_edge28_Node000021_Node000011"><a xlink:title=" ">
<path fill="none" stroke="#63b8ff" d="M779.71,-25.5C846.5,-52.64 985.16,-109 1043.25,-132.6"/>
<polygon fill="#63b8ff" stroke="#63b8ff" points="781.23,-22.34 770.65,-21.82 778.6,-28.82 781.23,-22.34"/>
</a>
</g>
</g>
<!-- Node22&#45;&gt;Node11 -->
<g id="edge30_Node000022_Node000011" class="edge">
<title>Node22&#45;&gt;Node11</title>
<g id="a_edge30_Node000022_Node000011"><a xlink:title=" ">
<path fill="none" stroke="#63b8ff" d="M1188.58,-159.84C1172.38,-157.56 1150.59,-154.49 1130.22,-151.62"/>
<polygon fill="#63b8ff" stroke="#63b8ff" points="1187.87,-163.28 1198.26,-161.21 1188.85,-156.35 1187.87,-163.28"/>
</a>
</g>
</g>
</g>
</svg>

<g id="navigator" transform="translate(0 0)" fill="#404254">
  <rect fill="#f2f5e9" fill-opacity="0.5" stroke="#606060" stroke-width=".5" x="0" y="0" width="60" height="60"/>
  <use id="zoomplus" xlink:href="#zoomPlus" x="17" y="9" onmousedown="handleZoom(evt,'in')"/>
  <use id="zoomminus" xlink:href="#zoomMin" x="42" y="9" onmousedown="handleZoom(evt,'out')"/>
  <use id="reset" xlink:href="#resetDef" x="30" y="36" onmousedown="handleReset()"/>
   <use id="arrowup" xlink:href="#arrowUp" x="0" y="0" onmousedown="handlePan(0,-1)"/>
  <use id="arrowright" xlink:href="#arrowRight" x="0" y="0" onmousedown="handlePan(1,0)"/>
  <use id="arrowdown" xlink:href="#arrowDown" x="0" y="0" onmousedown="handlePan(0,1)"/>
  <use id="arrowleft" xlink:href="#arrowLeft" x="0" y="0" onmousedown="handlePan(-1,0)"/>
</g>
<svg viewBox="0 0 15 15" width="100%" height="30px" preserveAspectRatio="xMaxYMin meet">
 <g id="arrow_out" transform="scale(0.3 0.3)">
  <a xlink:href="a00230_a5c3ffccf49f08359334198f7fce3f9df_icgraph_org.svg" target="_base">
   <rect id="button" ry="5" rx="5" y="6" x="6" height="38" width="38"
        fill="#f2f5e9" fill-opacity="0.5" stroke="#606060" stroke-width="1.0"/>
   <path id="arrow"
     d="M 11.500037,31.436501 C 11.940474,20.09759 22.043105,11.32322 32.158766,21.979434 L 37.068811,17.246167 C 37.068811,17.246167 37.088388,32 37.088388,32 L 22.160133,31.978069 C 22.160133,31.978069 26.997745,27.140456 26.997745,27.140456 C 18.528582,18.264221 13.291696,25.230495 11.500037,31.436501 z"
     style="fill:#404040;"/>
  </a>
 </g>
</svg>

<style type='text/css'>
<![CDATA[
[data-mouse-over-selected='false'] { opacity: 0.7; }
[data-mouse-over-selected='true']  { opacity: 1.0; }
]]>
</style>
<script type="application/ecmascript"><![CDATA[
document.addEventListener('DOMContentLoaded', (event) => {
  highlightEdges();
  highlightAdjacentNodes();
});
]]></script>
</svg>
