<?xml version="1.0" encoding="UTF-8" standalone="no"?>
<!DOCTYPE svg PUBLIC "-//W3C//DTD SVG 1.1//EN"
 "http://www.w3.org/Graphics/SVG/1.1/DTD/svg11.dtd">
<!-- Generated by graphviz version 14.1.2 (0)
 -->
<!-- Title: view_init_input Pages: 1 -->
<svg width="742pt" height="621pt"
 viewBox="0.00 0.00 742.00 621.00" xmlns="http://www.w3.org/2000/svg" xmlns:xlink="http://www.w3.org/1999/xlink">
<g id="graph0" class="graph" transform="scale(1 1) rotate(0) translate(4 616.75)">
<title>view_init_input</title>
<!-- Node1 -->
<g id="Node000001" class="node">
<title>Node1</title>
<g id="a_Node000001"><a xlink:title=" ">
<polygon fill="#999999" stroke="#666666" points="90.25,-345.75 0,-345.75 0,-325 90.25,-325 90.25,-345.75"/>
<text xml:space="preserve" text-anchor="middle" x="45.12" y="-332.25" font-family="Helvetica,sans-Serif" font-size="10.00">view_init_input</text>
</a>
</g>
</g>
<!-- Node2 -->
<g id="Node000002" class="node">
<title>Node2</title>
<g id="a_Node000002"><a xlink:href="../../dc/d40/dwin_8c.html#a8f6c45ca4a7f6a41c4c88314e697565a" target="_top" xlink:title="Abnormal program termination.">
<polygon fill="white" stroke="#666666" points="440.5,-497.75 394.5,-497.75 394.5,-477 440.5,-477 440.5,-497.75"/>
<text xml:space="preserve" text-anchor="middle" x="417.5" y="-484.25" font-family="Helvetica,sans-Serif" font-size="10.00">abend</text>
</a>
</g>
</g>
<!-- Node1&#45;&gt;Node2 -->
<g id="edge1_Node000001_Node000002" class="edge">
<title>Node1&#45;&gt;Node2</title>
<g id="a_edge1_Node000001_Node000002"><a xlink:title=" ">
<path fill="none" stroke="#63b8ff" d="M50.41,-346.22C67.27,-387.14 133.43,-532.52 242,-585.38 279.26,-603.52 297.74,-603 335.25,-585.38 369.09,-569.47 393.69,-531.78 406.49,-508.05"/>
<polygon fill="#63b8ff" stroke="#63b8ff" points="409.52,-509.81 410.97,-499.31 403.29,-506.61 409.52,-509.81"/>
</a>
</g>
</g>
<!-- Node6 -->
<g id="Node000006" class="node">
<title>Node6</title>
<g id="a_Node000006"><a xlink:href="../../dc/d40/dwin_8c.html#a67659f8a701b74f4dec0d36227a10d1c" target="_top" xlink:title="Display an error message window or print to stderr.">
<polygon fill="white" stroke="#666666" points="206,-288.75 126.25,-288.75 126.25,-268 206,-268 206,-288.75"/>
<text xml:space="preserve" text-anchor="middle" x="166.12" y="-275.25" font-family="Helvetica,sans-Serif" font-size="10.00">display_error</text>
</a>
</g>
</g>
<!-- Node1&#45;&gt;Node6 -->
<g id="edge7_Node000001_Node000006" class="edge">
<title>Node1&#45;&gt;Node6</title>
<g id="a_edge7_Node000001_Node000006"><a xlink:title=" ">
<path fill="none" stroke="#63b8ff" d="M68.79,-324.52C86.74,-315.92 112.06,-303.79 132.24,-294.13"/>
<polygon fill="#63b8ff" stroke="#63b8ff" points="133.67,-297.32 141.18,-289.84 130.65,-291.01 133.67,-297.32"/>
</a>
</g>
</g>
<!-- Node8 -->
<g id="Node000008" class="node">
<title>Node8</title>
<g id="a_Node000008"><a xlink:href="../../d0/d59/futil_8c.html#aa0145c044cfdde3a1c83323410a59f25" target="_top" xlink:title="safer alternative to strncat">
<polygon fill="white" stroke="#666666" points="450.25,-612.75 384.75,-612.75 384.75,-592 450.25,-592 450.25,-612.75"/>
<text xml:space="preserve" text-anchor="middle" x="417.5" y="-599.25" font-family="Helvetica,sans-Serif" font-size="10.00">strnz__cat</text>
</a>
</g>
</g>
<!-- Node1&#45;&gt;Node8 -->
<g id="edge39_Node000001_Node000008" class="edge">
<title>Node1&#45;&gt;Node8</title>
<g id="a_edge39_Node000001_Node000008"><a xlink:title=" ">
<path fill="none" stroke="#63b8ff" d="M47.78,-345.9C53.35,-378.18 74.03,-477.34 126.25,-538.38 165.04,-583.71 184.43,-590.71 242,-606.38 281.99,-617.25 293.82,-607.39 335.25,-606.38 347.55,-606.07 360.9,-605.51 373.15,-604.9"/>
<polygon fill="#63b8ff" stroke="#63b8ff" points="373.17,-608.41 382.97,-604.39 372.8,-601.42 373.17,-608.41"/>
</a>
</g>
</g>
<!-- Node14 -->
<g id="Node000014" class="node">
<title>Node14</title>
<g id="a_Node000014"><a xlink:href="../../d0/d59/futil_8c.html#a0de2e40df9bd7efc8fd9afb8ad2257e6" target="_top" xlink:title="safer alternative to strncpy">
<polygon fill="white" stroke="#666666" points="451.38,-115.75 383.62,-115.75 383.62,-95 451.38,-95 451.38,-115.75"/>
<text xml:space="preserve" text-anchor="middle" x="417.5" y="-102.25" font-family="Helvetica,sans-Serif" font-size="10.00">strnz__cpy</text>
</a>
</g>
</g>
<!-- Node1&#45;&gt;Node14 -->
<g id="edge40_Node000001_Node000014" class="edge">
<title>Node1&#45;&gt;Node14</title>
<g id="a_edge40_Node000001_Node000014"><a xlink:title=" ">
<path fill="none" stroke="#63b8ff" d="M50.26,-324.69C66.78,-283.68 132.53,-136.07 242,-82.38 287.25,-60.18 346.63,-76.13 383.15,-90.29"/>
<polygon fill="#63b8ff" stroke="#63b8ff" points="381.72,-93.49 392.3,-94.01 384.36,-87 381.72,-93.49"/>
</a>
</g>
</g>
<!-- Node21 -->
<g id="Node000021" class="node">
<title>Node21</title>
<g id="a_Node000021"><a xlink:href="../../dc/d40/dwin_8c.html#a61b4f28456257f68ed042bed7f187efd" target="_top" xlink:title="Display a simple error message window or print to stderr.">
<polygon fill="white" stroke="#666666" points="188.75,-403.75 143.5,-403.75 143.5,-383 188.75,-383 188.75,-403.75"/>
<text xml:space="preserve" text-anchor="middle" x="166.12" y="-390.25" font-family="Helvetica,sans-Serif" font-size="10.00">Perror</text>
</a>
</g>
</g>
<!-- Node1&#45;&gt;Node21 -->
<g id="edge27_Node000001_Node000021" class="edge">
<title>Node1&#45;&gt;Node21</title>
<g id="a_edge27_Node000001_Node000021"><a xlink:title=" ">
<path fill="none" stroke="#63b8ff" d="M68.23,-346.15C86.43,-355.02 112.48,-367.72 132.99,-377.71"/>
<polygon fill="#63b8ff" stroke="#63b8ff" points="131.26,-380.76 141.78,-382 134.32,-374.47 131.26,-380.76"/>
</a>
</g>
</g>
<!-- Node22 -->
<g id="Node000022" class="node">
<title>Node22</title>
<g id="a_Node000022"><a xlink:href="../../d0/d59/futil_8c.html#af717756d0ca49bc436d1fb69ae0d6c05" target="_top" xlink:title="Converts a string into an array of argument strings.">
<polygon fill="white" stroke="#666666" points="201.12,-20.75 131.12,-20.75 131.12,0 201.12,0 201.12,-20.75"/>
<text xml:space="preserve" text-anchor="middle" x="166.12" y="-7.25" font-family="Helvetica,sans-Serif" font-size="10.00">str_to_args</text>
</a>
</g>
</g>
<!-- Node1&#45;&gt;Node22 -->
<g id="edge38_Node000001_Node000022" class="edge">
<title>Node1&#45;&gt;Node22</title>
<g id="a_edge38_Node000001_Node000022"><a xlink:title=" ">
<path fill="none" stroke="#63b8ff" d="M46.23,-324.57C47.16,-282.83 55.47,-129.66 126.25,-34.38 127.99,-32.04 130.03,-29.87 132.25,-27.88"/>
<polygon fill="#63b8ff" stroke="#63b8ff" points="134.27,-30.74 140.22,-21.98 130.11,-25.12 134.27,-30.74"/>
</a>
</g>
</g>
<!-- Node3 -->
<g id="Node000003" class="node">
<title>Node3</title>
<g id="a_Node000003"><a xlink:href="../../dc/d40/dwin_8c.html#afc0985a403e3eac0b2cd8f0fab500256" target="_top" xlink:title="Gracefully shut down NCurses and restore terminal settings.">
<polygon fill="white" stroke="#666666" points="589.25,-497.75 499.75,-497.75 499.75,-477 589.25,-477 589.25,-497.75"/>
<text xml:space="preserve" text-anchor="middle" x="544.5" y="-484.25" font-family="Helvetica,sans-Serif" font-size="10.00">destroy_curses</text>
</a>
</g>
</g>
<!-- Node2&#45;&gt;Node3 -->
<g id="edge2_Node000002_Node000003" class="edge">
<title>Node2&#45;&gt;Node3</title>
<g id="a_edge2_Node000002_Node000003"><a xlink:title=" ">
<path fill="none" stroke="#63b8ff" d="M440.85,-487.38C454.03,-487.38 471.34,-487.38 487.98,-487.38"/>
<polygon fill="#63b8ff" stroke="#63b8ff" points="487.82,-490.88 497.82,-487.38 487.82,-483.88 487.82,-490.88"/>
</a>
</g>
</g>
<!-- Node4 -->
<g id="Node000004" class="node">
<title>Node4</title>
<g id="a_Node000004"><a xlink:href="../../d7/d72/scriou_8c.html#ac5e3adb304b78910fc77761ef6a743f0" target="_top" xlink:title="restore_shell_tioctl() &#45; restore shell terminal settings">
<polygon fill="white" stroke="#666666" points="734.25,-525.75 625.25,-525.75 625.25,-505 734.25,-505 734.25,-525.75"/>
<text xml:space="preserve" text-anchor="middle" x="679.75" y="-512.25" font-family="Helvetica,sans-Serif" font-size="10.00">restore_shell_tioctl</text>
</a>
</g>
</g>
<!-- Node2&#45;&gt;Node4 -->
<g id="edge5_Node000002_Node000004" class="edge">
<title>Node2&#45;&gt;Node4</title>
<g id="a_edge5_Node000002_Node000004"><a xlink:title=" ">
<path fill="none" stroke="#63b8ff" d="M440.71,-493.71C456.93,-498.05 479.52,-503.53 499.75,-506.38 537.26,-511.66 579.57,-513.95 613.64,-514.91"/>
<polygon fill="#63b8ff" stroke="#63b8ff" points="613.26,-518.4 623.34,-515.14 613.43,-511.4 613.26,-518.4"/>
</a>
</g>
</g>
<!-- Node5 -->
<g id="Node000005" class="node">
<title>Node5</title>
<g id="a_Node000005"><a xlink:href="../../da/d12/sig_8c.html#a06c1eb6cf3649dc187115565409f91af" target="_top" xlink:title="Set signal handlers to default behavior.">
<polygon fill="white" stroke="#666666" points="720.38,-477.75 639.12,-477.75 639.12,-457 720.38,-457 720.38,-477.75"/>
<text xml:space="preserve" text-anchor="middle" x="679.75" y="-464.25" font-family="Helvetica,sans-Serif" font-size="10.00">sig_dfl_mode</text>
</a>
</g>
</g>
<!-- Node2&#45;&gt;Node5 -->
<g id="edge6_Node000002_Node000005" class="edge">
<title>Node2&#45;&gt;Node5</title>
<g id="a_edge6_Node000002_Node000005"><a xlink:title=" ">
<path fill="none" stroke="#63b8ff" d="M440.68,-480.77C456.88,-476.29 479.47,-470.77 499.75,-468.38 542.64,-463.31 591.71,-463.45 627.61,-464.63"/>
<polygon fill="#63b8ff" stroke="#63b8ff" points="627.14,-468.12 637.27,-464.99 627.4,-461.12 627.14,-468.12"/>
</a>
</g>
</g>
<!-- Node3&#45;&gt;Node4 -->
<g id="edge3_Node000003_Node000004" class="edge">
<title>Node3&#45;&gt;Node4</title>
<g id="a_edge3_Node000003_Node000004"><a xlink:title=" ">
<path fill="none" stroke="#63b8ff" d="M589.5,-496.62C598.12,-498.43 607.32,-500.37 616.41,-502.28"/>
<polygon fill="#63b8ff" stroke="#63b8ff" points="615.41,-505.64 625.92,-504.27 616.85,-498.79 615.41,-505.64"/>
</a>
</g>
</g>
<!-- Node3&#45;&gt;Node5 -->
<g id="edge4_Node000003_Node000005" class="edge">
<title>Node3&#45;&gt;Node5</title>
<g id="a_edge4_Node000003_Node000005"><a xlink:title=" ">
<path fill="none" stroke="#63b8ff" d="M589.5,-480.77C601.69,-478.94 615.02,-476.94 627.58,-475.06"/>
<polygon fill="#63b8ff" stroke="#63b8ff" points="627.98,-478.54 637.35,-473.59 626.94,-471.61 627.98,-478.54"/>
</a>
</g>
</g>
<!-- Node6&#45;&gt;Node2 -->
<g id="edge8_Node000006_Node000002" class="edge">
<title>Node6&#45;&gt;Node2</title>
<g id="a_edge8_Node000006_Node000002"><a xlink:title=" ">
<path fill="none" stroke="#63b8ff" d="M206.45,-288.12C249.66,-299.43 315.56,-318.68 335.25,-335.38 376.93,-370.73 400.5,-433.02 410.58,-465.8"/>
<polygon fill="#63b8ff" stroke="#63b8ff" points="407.21,-466.74 413.37,-475.35 413.93,-464.77 407.21,-466.74"/>
</a>
</g>
</g>
<!-- Node7 -->
<g id="Node000007" class="node">
<title>Node7</title>
<g id="a_Node000007"><a xlink:href="../../dc/d40/dwin_8c.html#a645871e46277e31736bc36d0f3dce4bd" target="_top" xlink:title="construct the chyron string from the chyron structure">
<polygon fill="white" stroke="#666666" points="335.25,-555.75 242,-555.75 242,-535 335.25,-535 335.25,-555.75"/>
<text xml:space="preserve" text-anchor="middle" x="288.62" y="-542.25" font-family="Helvetica,sans-Serif" font-size="10.00">compile_chyron</text>
</a>
</g>
</g>
<!-- Node6&#45;&gt;Node7 -->
<g id="edge9_Node000006_Node000007" class="edge">
<title>Node6&#45;&gt;Node7</title>
<g id="a_edge9_Node000006_Node000007"><a xlink:title=" ">
<path fill="none" stroke="#63b8ff" d="M171.84,-289.21C179.45,-306.88 194.74,-343.07 206,-374.38 223.99,-424.37 216.97,-441.51 242,-488.38 249.39,-502.21 260.3,-515.99 269.59,-526.53"/>
<polygon fill="#63b8ff" stroke="#63b8ff" points="266.87,-528.74 276.2,-533.77 272.04,-524.02 266.87,-528.74"/>
</a>
</g>
</g>
<!-- Node9 -->
<g id="Node000009" class="node">
<title>Node9</title>
<g id="a_Node000009"><a xlink:href="../../dc/d40/dwin_8c.html#a3f3feb40fd703913c5c136331f627c91" target="_top" xlink:title="Destroy Chyron structure.">
<polygon fill="white" stroke="#666666" points="334.12,-364.75 243.12,-364.75 243.12,-344 334.12,-344 334.12,-364.75"/>
<text xml:space="preserve" text-anchor="middle" x="288.62" y="-351.25" font-family="Helvetica,sans-Serif" font-size="10.00">destroy_chyron</text>
</a>
</g>
</g>
<!-- Node6&#45;&gt;Node9 -->
<g id="edge11_Node000006_Node000009" class="edge">
<title>Node6&#45;&gt;Node9</title>
<g id="a_edge11_Node000006_Node000009"><a xlink:title=" ">
<path fill="none" stroke="#63b8ff" d="M181.41,-289.08C196.22,-299.99 220.22,-317.15 242,-330.38 246.42,-333.06 251.18,-335.76 255.88,-338.32"/>
<polygon fill="#63b8ff" stroke="#63b8ff" points="254.16,-341.37 264.63,-342.97 257.44,-335.19 254.16,-341.37"/>
</a>
</g>
</g>
<!-- Node10 -->
<g id="Node000010" class="node">
<title>Node10</title>
<g id="a_Node000010"><a xlink:href="../../dc/d40/dwin_8c.html#ad37d5808ff30ae6894780425d865abae" target="_top" xlink:title="Create and initialize Chyron structure.">
<polygon fill="white" stroke="#666666" points="325.88,-479.75 251.38,-479.75 251.38,-459 325.88,-459 325.88,-479.75"/>
<text xml:space="preserve" text-anchor="middle" x="288.62" y="-466.25" font-family="Helvetica,sans-Serif" font-size="10.00">new_chyron</text>
</a>
</g>
</g>
<!-- Node6&#45;&gt;Node10 -->
<g id="edge12_Node000006_Node000010" class="edge">
<title>Node6&#45;&gt;Node10</title>
<g id="a_edge12_Node000006_Node000010"><a xlink:title=" ">
<path fill="none" stroke="#63b8ff" d="M172.38,-289.15C183.86,-312.38 212.54,-368.6 242,-412.38 250.87,-425.55 261.98,-439.48 271.02,-450.28"/>
<polygon fill="#63b8ff" stroke="#63b8ff" points="268.2,-452.36 277.34,-457.7 273.53,-447.82 268.2,-452.36"/>
</a>
</g>
</g>
<!-- Node11 -->
<g id="Node000011" class="node">
<title>Node11</title>
<g id="a_Node000011"><a xlink:href="../../dc/d40/dwin_8c.html#a208ce92c197fdd6d2b007987e534aa3b" target="_top" xlink:title="Set chyron key.">
<polygon fill="white" stroke="#666666" points="334.5,-249.75 242.75,-249.75 242.75,-229 334.5,-229 334.5,-249.75"/>
<text xml:space="preserve" text-anchor="middle" x="288.62" y="-236.25" font-family="Helvetica,sans-Serif" font-size="10.00">set_chyron_key</text>
</a>
</g>
</g>
<!-- Node6&#45;&gt;Node11 -->
<g id="edge14_Node000006_Node000011" class="edge">
<title>Node6&#45;&gt;Node11</title>
<g id="a_edge14_Node000006_Node000011"><a xlink:title=" ">
<path fill="none" stroke="#63b8ff" d="M200.69,-267.51C214.01,-263.2 229.51,-258.18 243.7,-253.59"/>
<polygon fill="#63b8ff" stroke="#63b8ff" points="244.36,-257.06 252.8,-250.65 242.21,-250.4 244.36,-257.06"/>
</a>
</g>
</g>
<!-- Node12 -->
<g id="Node000012" class="node">
<title>Node12</title>
<g id="a_Node000012"><a xlink:href="../../d0/d59/futil_8c.html#a63eb94756fb011a456a3dec900709cd8" target="_top" xlink:title="ssnprintf was designed to be a safer alternative to snprintf.">
<polygon fill="white" stroke="#666666" points="446.88,-249.75 388.12,-249.75 388.12,-229 446.88,-229 446.88,-249.75"/>
<text xml:space="preserve" text-anchor="middle" x="417.5" y="-236.25" font-family="Helvetica,sans-Serif" font-size="10.00">ssnprintf</text>
</a>
</g>
</g>
<!-- Node6&#45;&gt;Node12 -->
<g id="edge16_Node000006_Node000012" class="edge">
<title>Node6&#45;&gt;Node12</title>
<g id="a_edge16_Node000006_Node000012"><a xlink:title=" ">
<path fill="none" stroke="#63b8ff" d="M176.47,-267.67C189.5,-253.64 214.62,-229.74 242,-220.38 286.68,-205.09 341.21,-215.27 377.3,-225.69"/>
<polygon fill="#63b8ff" stroke="#63b8ff" points="375.84,-228.91 386.42,-228.46 377.87,-222.21 375.84,-228.91"/>
</a>
</g>
</g>
<!-- Node13 -->
<g id="Node000013" class="node">
<title>Node13</title>
<g id="a_Node000013"><a xlink:href="../../d0/d59/futil_8c.html#a636608f26d1193b5d860f2312cd8ee49" target="_top" xlink:title="terminates string at New Line, Carriage Return, or max_len">
<polygon fill="white" stroke="#666666" points="308.62,-134.75 268.62,-134.75 268.62,-114 308.62,-114 308.62,-134.75"/>
<text xml:space="preserve" text-anchor="middle" x="288.62" y="-121.25" font-family="Helvetica,sans-Serif" font-size="10.00">strnz</text>
</a>
</g>
</g>
<!-- Node6&#45;&gt;Node13 -->
<g id="edge17_Node000006_Node000013" class="edge">
<title>Node6&#45;&gt;Node13</title>
<g id="a_edge17_Node000006_Node000013"><a xlink:title=" ">
<path fill="none" stroke="#63b8ff" d="M170.39,-267.83C178.57,-243.07 202.15,-180.56 242,-144.38 246.64,-140.16 252.31,-136.73 258.06,-133.97"/>
<polygon fill="#63b8ff" stroke="#63b8ff" points="258.99,-137.38 266.88,-130.31 256.3,-130.91 258.99,-137.38"/>
</a>
</g>
</g>
<!-- Node6&#45;&gt;Node14 -->
<g id="edge18_Node000006_Node000014" class="edge">
<title>Node6&#45;&gt;Node14</title>
<g id="a_edge18_Node000006_Node000014"><a xlink:title=" ">
<path fill="none" stroke="#63b8ff" d="M167.9,-267.73C170.84,-236.23 184.28,-143.29 242,-105.38 280.32,-80.2 334.32,-84.79 372.07,-92.75"/>
<polygon fill="#63b8ff" stroke="#63b8ff" points="371.22,-96.15 381.75,-94.97 372.78,-89.33 371.22,-96.15"/>
</a>
</g>
</g>
<!-- Node15 -->
<g id="Node000015" class="node">
<title>Node15</title>
<g id="a_Node000015"><a xlink:href="../../dc/d40/dwin_8c.html#a9dd598e1d49c8764af1eec42c682623e" target="_top" xlink:title="Delete the current window and its associated box window.">
<polygon fill="white" stroke="#666666" points="315.38,-403.75 261.88,-403.75 261.88,-383 315.38,-383 315.38,-403.75"/>
<text xml:space="preserve" text-anchor="middle" x="288.62" y="-390.25" font-family="Helvetica,sans-Serif" font-size="10.00">win_del</text>
</a>
</g>
</g>
<!-- Node6&#45;&gt;Node15 -->
<g id="edge19_Node000006_Node000015" class="edge">
<title>Node6&#45;&gt;Node15</title>
<g id="a_edge19_Node000006_Node000015"><a xlink:title=" ">
<path fill="none" stroke="#63b8ff" d="M173.2,-289.2C184.48,-308.46 210.44,-348.97 242,-373.38 244.94,-375.65 248.18,-377.72 251.54,-379.6"/>
<polygon fill="#63b8ff" stroke="#63b8ff" points="249.9,-382.7 260.41,-383.98 252.99,-376.42 249.9,-382.7"/>
</a>
</g>
</g>
<!-- Node16 -->
<g id="Node000016" class="node">
<title>Node16</title>
<g id="a_Node000016"><a xlink:href="../../dc/d40/dwin_8c.html#a435c7bff7ffedb8f51c6de9259e36f6c" target="_top" xlink:title="Create a new window with optional box and title.">
<polygon fill="white" stroke="#666666" points="318,-173.75 259.25,-173.75 259.25,-153 318,-153 318,-173.75"/>
<text xml:space="preserve" text-anchor="middle" x="288.62" y="-160.25" font-family="Helvetica,sans-Serif" font-size="10.00">win_new</text>
</a>
</g>
</g>
<!-- Node6&#45;&gt;Node16 -->
<g id="edge20_Node000006_Node000016" class="edge">
<title>Node6&#45;&gt;Node16</title>
<g id="a_edge20_Node000006_Node000016"><a xlink:title=" ">
<path fill="none" stroke="#63b8ff" d="M173.85,-267.66C185.77,-249.35 212.17,-211.66 242,-187.38 245.42,-184.59 249.21,-182 253.1,-179.61"/>
<polygon fill="#63b8ff" stroke="#63b8ff" points="254.51,-182.83 261.51,-174.89 251.08,-176.73 254.51,-182.83"/>
</a>
</g>
</g>
<!-- Node18 -->
<g id="Node000018" class="node">
<title>Node18</title>
<g id="a_Node000018"><a xlink:href="../../dc/d40/dwin_8c.html#acf4c709bccc4c965a5d61db978db31a3" target="_top" xlink:title="Wrapper for wgetch that handles signals and mouse events.">
<polygon fill="white" stroke="#666666" points="317.25,-288.75 260,-288.75 260,-268 317.25,-268 317.25,-288.75"/>
<text xml:space="preserve" text-anchor="middle" x="288.62" y="-275.25" font-family="Helvetica,sans-Serif" font-size="10.00">xwgetch</text>
</a>
</g>
</g>
<!-- Node6&#45;&gt;Node18 -->
<g id="edge23_Node000006_Node000018" class="edge">
<title>Node6&#45;&gt;Node18</title>
<g id="a_edge23_Node000006_Node000018"><a xlink:title=" ">
<path fill="none" stroke="#63b8ff" d="M206.25,-272.01C219.75,-271.5 234.87,-271.5 248.38,-272"/>
<polygon fill="#63b8ff" stroke="#63b8ff" points="248.08,-275.49 258.24,-272.5 248.43,-268.5 248.08,-275.49"/>
</a>
</g>
</g>
<!-- Node7&#45;&gt;Node8 -->
<g id="edge10_Node000007_Node000008" class="edge">
<title>Node7&#45;&gt;Node8</title>
<g id="a_edge10_Node000007_Node000008"><a xlink:title=" ">
<path fill="none" stroke="#63b8ff" d="M313.79,-556.23C333.1,-564.91 360.42,-577.18 382.03,-586.89"/>
<polygon fill="#63b8ff" stroke="#63b8ff" points="380.49,-590.03 391.05,-590.94 383.36,-583.65 380.49,-590.03"/>
</a>
</g>
</g>
<!-- Node10&#45;&gt;Node2 -->
<g id="edge13_Node000010_Node000002" class="edge">
<title>Node10&#45;&gt;Node2</title>
<g id="a_edge13_Node000010_Node000002"><a xlink:title=" ">
<path fill="none" stroke="#63b8ff" d="M326.32,-474.58C344.16,-477.11 365.45,-480.13 382.87,-482.6"/>
<polygon fill="#63b8ff" stroke="#63b8ff" points="382.32,-486.06 392.72,-484 383.31,-479.13 382.32,-486.06"/>
</a>
</g>
</g>
<!-- Node11&#45;&gt;Node12 -->
<g id="edge15_Node000011_Node000012" class="edge">
<title>Node11&#45;&gt;Node12</title>
<g id="a_edge15_Node000011_Node000012"><a xlink:title=" ">
<path fill="none" stroke="#63b8ff" d="M334.71,-239.38C348.38,-239.38 363.28,-239.38 376.58,-239.38"/>
<polygon fill="#63b8ff" stroke="#63b8ff" points="376.27,-242.88 386.27,-239.38 376.27,-235.88 376.27,-242.88"/>
</a>
</g>
</g>
<!-- Node16&#45;&gt;Node14 -->
<g id="edge22_Node000016_Node000014" class="edge">
<title>Node16&#45;&gt;Node14</title>
<g id="a_edge22_Node000016_Node000014"><a xlink:title=" ">
<path fill="none" stroke="#63b8ff" d="M314.3,-152.69C321.1,-149.71 328.47,-146.44 335.25,-143.38 351.23,-136.14 368.88,-127.91 383.64,-120.97"/>
<polygon fill="#63b8ff" stroke="#63b8ff" points="384.88,-124.25 392.43,-116.82 381.9,-117.92 384.88,-124.25"/>
</a>
</g>
</g>
<!-- Node17 -->
<g id="Node000017" class="node">
<title>Node17</title>
<g id="a_Node000017"><a xlink:href="../../dc/d40/dwin_8c.html#ac9adcf7339be4a05ab1a7350c236b8a5" target="_top" xlink:title="Draw a box around the specified window.">
<polygon fill="white" stroke="#666666" points="437.12,-173.75 397.88,-173.75 397.88,-153 437.12,-153 437.12,-173.75"/>
<text xml:space="preserve" text-anchor="middle" x="417.5" y="-160.25" font-family="Helvetica,sans-Serif" font-size="10.00">cbox</text>
</a>
</g>
</g>
<!-- Node16&#45;&gt;Node17 -->
<g id="edge21_Node000016_Node000017" class="edge">
<title>Node16&#45;&gt;Node17</title>
<g id="a_edge21_Node000016_Node000017"><a xlink:title=" ">
<path fill="none" stroke="#63b8ff" d="M318.41,-163.38C338.71,-163.38 365.82,-163.38 386.4,-163.38"/>
<polygon fill="#63b8ff" stroke="#63b8ff" points="386.14,-166.88 396.14,-163.38 386.14,-159.88 386.14,-166.88"/>
</a>
</g>
</g>
<!-- Node18&#45;&gt;Node6 -->
<g id="edge24_Node000018_Node000006" class="edge">
<title>Node18&#45;&gt;Node6</title>
<g id="a_edge24_Node000018_Node000006"><a xlink:title=" ">
<path fill="none" stroke="#63b8ff" d="M259.76,-284.17C247.22,-284.99 232.02,-285.28 217.59,-285.05"/>
<polygon fill="#63b8ff" stroke="#63b8ff" points="217.85,-281.55 207.76,-284.78 217.66,-288.55 217.85,-281.55"/>
</a>
</g>
</g>
<!-- Node19 -->
<g id="Node000019" class="node">
<title>Node19</title>
<g id="a_Node000019"><a xlink:href="../../dc/d40/dwin_8c.html#a4298f891699300bfc4e6e56fd2a8d574" target="_top" xlink:title="Get keycode from chyron.">
<polygon fill="white" stroke="#666666" points="463.75,-327.75 371.25,-327.75 371.25,-307 463.75,-307 463.75,-327.75"/>
<text xml:space="preserve" text-anchor="middle" x="417.5" y="-314.25" font-family="Helvetica,sans-Serif" font-size="10.00">get_chyron_key</text>
</a>
</g>
</g>
<!-- Node18&#45;&gt;Node19 -->
<g id="edge25_Node000018_Node000019" class="edge">
<title>Node18&#45;&gt;Node19</title>
<g id="a_edge25_Node000018_Node000019"><a xlink:title=" ">
<path fill="none" stroke="#63b8ff" d="M317.47,-286.93C333.05,-291.72 352.88,-297.82 370.69,-303.29"/>
<polygon fill="#63b8ff" stroke="#63b8ff" points="369.43,-306.57 380.01,-306.16 371.48,-299.88 369.43,-306.57"/>
</a>
</g>
</g>
<!-- Node20 -->
<g id="Node000020" class="node">
<title>Node20</title>
<g id="a_Node000020"><a xlink:href="../../d0/d6b/cm_8h.html#a0667873879b5846c3fe2fa2cc96059d6" target="_top" xlink:title=" ">
<polygon fill="white" stroke="#666666" points="459.25,-288.75 375.75,-288.75 375.75,-268 459.25,-268 459.25,-288.75"/>
<text xml:space="preserve" text-anchor="middle" x="417.5" y="-275.25" font-family="Helvetica,sans-Serif" font-size="10.00">handle_signal</text>
</a>
</g>
</g>
<!-- Node18&#45;&gt;Node20 -->
<g id="edge26_Node000018_Node000020" class="edge">
<title>Node18&#45;&gt;Node20</title>
<g id="a_edge26_Node000018_Node000020"><a xlink:title=" ">
<path fill="none" stroke="#63b8ff" d="M317.47,-278.38C331.2,-278.38 348.23,-278.38 364.27,-278.38"/>
<polygon fill="#63b8ff" stroke="#63b8ff" points="364.2,-281.88 374.2,-278.38 364.2,-274.88 364.2,-281.88"/>
</a>
</g>
</g>
<!-- Node21&#45;&gt;Node2 -->
<g id="edge28_Node000021_Node000002" class="edge">
<title>Node21&#45;&gt;Node2</title>
<g id="a_edge28_Node000021_Node000002"><a xlink:title=" ">
<path fill="none" stroke="#63b8ff" d="M167.95,-403.9C171.01,-435.05 184.76,-526.95 242,-564.38 276.69,-587.05 296.75,-579.72 335.25,-564.38 363.87,-552.97 388.2,-526.17 402.58,-507.41"/>
<polygon fill="#63b8ff" stroke="#63b8ff" points="405.34,-509.56 408.44,-499.43 399.7,-505.42 405.34,-509.56"/>
</a>
</g>
</g>
<!-- Node21&#45;&gt;Node7 -->
<g id="edge29_Node000021_Node000007" class="edge">
<title>Node21&#45;&gt;Node7</title>
<g id="a_edge29_Node000021_Node000007"><a xlink:title=" ">
<path fill="none" stroke="#63b8ff" d="M170.96,-403.96C180.02,-427.68 204.78,-485.8 242,-521.38 244.87,-524.12 248.11,-526.63 251.52,-528.91"/>
<polygon fill="#63b8ff" stroke="#63b8ff" points="249.65,-531.88 260.04,-533.95 253.21,-525.85 249.65,-531.88"/>
</a>
</g>
</g>
<!-- Node21&#45;&gt;Node9 -->
<g id="edge30_Node000021_Node000009" class="edge">
<title>Node21&#45;&gt;Node9</title>
<g id="a_edge30_Node000021_Node000009"><a xlink:title=" ">
<path fill="none" stroke="#63b8ff" d="M189.23,-386.22C204.38,-381.32 224.99,-374.65 243.44,-368.67"/>
<polygon fill="#63b8ff" stroke="#63b8ff" points="244.41,-372.04 252.85,-365.63 242.26,-365.38 244.41,-372.04"/>
</a>
</g>
</g>
<!-- Node21&#45;&gt;Node10 -->
<g id="edge31_Node000021_Node000010" class="edge">
<title>Node21&#45;&gt;Node10</title>
<g id="a_edge31_Node000021_Node000010"><a xlink:title=" ">
<path fill="none" stroke="#63b8ff" d="M181.41,-404.08C196.22,-414.99 220.22,-432.15 242,-445.38 246.42,-448.06 251.18,-450.76 255.88,-453.32"/>
<polygon fill="#63b8ff" stroke="#63b8ff" points="254.16,-456.37 264.63,-457.97 257.44,-450.19 254.16,-456.37"/>
</a>
</g>
</g>
<!-- Node21&#45;&gt;Node11 -->
<g id="edge32_Node000021_Node000011" class="edge">
<title>Node21&#45;&gt;Node11</title>
<g id="a_edge32_Node000021_Node000011"><a xlink:title=" ">
<path fill="none" stroke="#63b8ff" d="M170.39,-382.83C178.57,-358.07 202.15,-295.56 242,-259.38 243.24,-258.25 244.55,-257.18 245.92,-256.16"/>
<polygon fill="#63b8ff" stroke="#63b8ff" points="247.61,-259.24 254.28,-251.01 243.93,-253.28 247.61,-259.24"/>
</a>
</g>
</g>
<!-- Node21&#45;&gt;Node12 -->
<g id="edge33_Node000021_Node000012" class="edge">
<title>Node21&#45;&gt;Node12</title>
<g id="a_edge33_Node000021_Node000012"><a xlink:title=" ">
<path fill="none" stroke="#63b8ff" d="M171.58,-403.94C181,-424.74 205.16,-470.5 242,-488.38 279.29,-506.46 303.75,-515.31 335.25,-488.38 413.55,-421.42 308.47,-341.06 371.25,-259.38 373.15,-256.91 375.41,-254.74 377.91,-252.83"/>
<polygon fill="#63b8ff" stroke="#63b8ff" points="379.58,-255.91 386.38,-247.79 376,-249.89 379.58,-255.91"/>
</a>
</g>
</g>
<!-- Node21&#45;&gt;Node14 -->
<g id="edge34_Node000021_Node000014" class="edge">
<title>Node21&#45;&gt;Node14</title>
<g id="a_edge34_Node000021_Node000014"><a xlink:title=" ">
<path fill="none" stroke="#63b8ff" d="M187.33,-404.24C222.12,-421.3 293.57,-448.83 335.25,-412.38 380.48,-372.81 342.63,-197.21 371.25,-144.38 375.7,-136.17 382.61,-128.91 389.7,-122.95"/>
<polygon fill="#63b8ff" stroke="#63b8ff" points="391.61,-125.9 397.42,-117.04 387.35,-120.35 391.61,-125.9"/>
</a>
</g>
</g>
<!-- Node21&#45;&gt;Node15 -->
<g id="edge35_Node000021_Node000015" class="edge">
<title>Node21&#45;&gt;Node15</title>
<g id="a_edge35_Node000021_Node000015"><a xlink:title=" ">
<path fill="none" stroke="#63b8ff" d="M189.23,-393.38C206.27,-393.38 230.22,-393.38 250.23,-393.38"/>
<polygon fill="#63b8ff" stroke="#63b8ff" points="249.96,-396.88 259.96,-393.38 249.96,-389.88 249.96,-396.88"/>
</a>
</g>
</g>
<!-- Node21&#45;&gt;Node16 -->
<g id="edge36_Node000021_Node000016" class="edge">
<title>Node21&#45;&gt;Node16</title>
<g id="a_edge36_Node000021_Node000016"><a xlink:title=" ">
<path fill="none" stroke="#63b8ff" d="M171.23,-382.9C184.13,-350.17 224.03,-250.24 242,-220.38 250.09,-206.93 261.02,-193.17 270.15,-182.53"/>
<polygon fill="#63b8ff" stroke="#63b8ff" points="272.62,-185.03 276.6,-175.21 267.36,-180.4 272.62,-185.03"/>
</a>
</g>
</g>
<!-- Node21&#45;&gt;Node18 -->
<g id="edge37_Node000021_Node000018" class="edge">
<title>Node21&#45;&gt;Node18</title>
<g id="a_edge37_Node000021_Node000018"><a xlink:title=" ">
<path fill="none" stroke="#63b8ff" d="M178.25,-382.76C198.78,-363.16 242.87,-321.08 268.36,-296.76"/>
<polygon fill="#63b8ff" stroke="#63b8ff" points="270.62,-299.44 275.44,-290.01 265.79,-294.38 270.62,-299.44"/>
</a>
</g>
</g>
</g>
</svg>
