<?xml version="1.0" encoding="UTF-8" standalone="no"?>
<!DOCTYPE svg PUBLIC "-//W3C//DTD SVG 1.1//EN"
 "http://www.w3.org/Graphics/SVG/1.1/DTD/svg11.dtd">
<!-- Generated by graphviz version 14.1.2 (0)
 -->
<!-- Title: init_view_boxwin Pages: 1 -->
<svg width="753pt" height="452pt"
 viewBox="0.00 0.00 753.00 452.00" xmlns="http://www.w3.org/2000/svg" xmlns:xlink="http://www.w3.org/1999/xlink">
<g id="graph0" class="graph" transform="scale(1 1) rotate(0) translate(4 447.75)">
<title>init_view_boxwin</title>
<!-- Node1 -->
<g id="Node000001" class="node">
<title>Node1</title>
<g id="a_Node000001"><a xlink:title=" ">
<polygon fill="#999999" stroke="#666666" points="100.75,-40.75 0,-40.75 0,-20 100.75,-20 100.75,-40.75"/>
<text xml:space="preserve" text-anchor="middle" x="50.38" y="-27.25" font-family="Helvetica,sans-Serif" font-size="10.00">init_view_boxwin</text>
</a>
</g>
</g>
<!-- Node2 -->
<g id="Node000002" class="node">
<title>Node2</title>
<g id="a_Node000002"><a xlink:href="../../dc/d40/dwin_8c.html#a67659f8a701b74f4dec0d36227a10d1c" target="_top" xlink:title="Display an error message window or print to stderr.">
<polygon fill="white" stroke="#666666" points="216.5,-232.75 136.75,-232.75 136.75,-212 216.5,-212 216.5,-232.75"/>
<text xml:space="preserve" text-anchor="middle" x="176.62" y="-219.25" font-family="Helvetica,sans-Serif" font-size="10.00">display_error</text>
</a>
</g>
</g>
<!-- Node1&#45;&gt;Node2 -->
<g id="edge1_Node000001_Node000002" class="edge">
<title>Node1&#45;&gt;Node2</title>
<g id="a_edge1_Node000001_Node000002"><a xlink:title=" ">
<path fill="none" stroke="#63b8ff" d="M58.41,-41.25C78.49,-72.27 136.27,-161.57 162.45,-202.02"/>
<polygon fill="#63b8ff" stroke="#63b8ff" points="159.47,-203.86 167.84,-210.35 165.35,-200.05 159.47,-203.86"/>
</a>
</g>
</g>
<!-- Node14 -->
<g id="Node000014" class="node">
<title>Node14</title>
<g id="a_Node000014"><a xlink:href="../../d0/d59/futil_8c.html#a0de2e40df9bd7efc8fd9afb8ad2257e6" target="_top" xlink:title="safer alternative to strncpy">
<polygon fill="white" stroke="#666666" points="461.88,-59.75 394.12,-59.75 394.12,-39 461.88,-39 461.88,-59.75"/>
<text xml:space="preserve" text-anchor="middle" x="428" y="-46.25" font-family="Helvetica,sans-Serif" font-size="10.00">strnz__cpy</text>
</a>
</g>
</g>
<!-- Node1&#45;&gt;Node14 -->
<g id="edge26_Node000001_Node000014" class="edge">
<title>Node1&#45;&gt;Node14</title>
<g id="a_edge26_Node000001_Node000014"><a xlink:title=" ">
<path fill="none" stroke="#63b8ff" d="M95.44,-19.58C153.59,-7.13 258.77,9.16 345.75,-11.38 363.16,-15.48 365.56,-21.76 381.75,-29.38 384.91,-30.86 388.21,-32.38 391.53,-33.89"/>
<polygon fill="#63b8ff" stroke="#63b8ff" points="390.07,-37.07 400.63,-37.96 392.93,-30.68 390.07,-37.07"/>
</a>
</g>
</g>
<!-- Node16 -->
<g id="Node000016" class="node">
<title>Node16</title>
<g id="a_Node000016"><a xlink:href="../../dc/d40/dwin_8c.html#a435c7bff7ffedb8f51c6de9259e36f6c" target="_top" xlink:title="Create a new window with optional box and title.">
<polygon fill="white" stroke="#666666" points="328.5,-40.75 269.75,-40.75 269.75,-20 328.5,-20 328.5,-40.75"/>
<text xml:space="preserve" text-anchor="middle" x="299.12" y="-27.25" font-family="Helvetica,sans-Serif" font-size="10.00">win_new</text>
</a>
</g>
</g>
<!-- Node1&#45;&gt;Node16 -->
<g id="edge27_Node000001_Node000016" class="edge">
<title>Node1&#45;&gt;Node16</title>
<g id="a_edge27_Node000001_Node000016"><a xlink:title=" ">
<path fill="none" stroke="#63b8ff" d="M101.01,-30.38C147.19,-30.38 215.15,-30.38 257.99,-30.38"/>
<polygon fill="#63b8ff" stroke="#63b8ff" points="257.86,-33.88 267.86,-30.38 257.86,-26.88 257.86,-33.88"/>
</a>
</g>
</g>
<!-- Node3 -->
<g id="Node000003" class="node">
<title>Node3</title>
<g id="a_Node000003"><a xlink:href="../../dc/d40/dwin_8c.html#a8f6c45ca4a7f6a41c4c88314e697565a" target="_top" xlink:title="Abnormal program termination.">
<polygon fill="white" stroke="#666666" points="451,-213.75 405,-213.75 405,-193 451,-193 451,-213.75"/>
<text xml:space="preserve" text-anchor="middle" x="428" y="-200.25" font-family="Helvetica,sans-Serif" font-size="10.00">abend</text>
</a>
</g>
</g>
<!-- Node2&#45;&gt;Node3 -->
<g id="edge2_Node000002_Node000003" class="edge">
<title>Node2&#45;&gt;Node3</title>
<g id="a_edge2_Node000002_Node000003"><a xlink:title=" ">
<path fill="none" stroke="#63b8ff" d="M216.86,-219.39C265.47,-215.68 347.44,-209.44 393.32,-205.94"/>
<polygon fill="#63b8ff" stroke="#63b8ff" points="393.49,-209.44 403.2,-205.19 392.96,-202.46 393.49,-209.44"/>
</a>
</g>
</g>
<!-- Node7 -->
<g id="Node000007" class="node">
<title>Node7</title>
<g id="a_Node000007"><a xlink:href="../../dc/d40/dwin_8c.html#a645871e46277e31736bc36d0f3dce4bd" target="_top" xlink:title="construct the chyron string from the chyron structure">
<polygon fill="white" stroke="#666666" points="345.75,-155.75 252.5,-155.75 252.5,-135 345.75,-135 345.75,-155.75"/>
<text xml:space="preserve" text-anchor="middle" x="299.12" y="-142.25" font-family="Helvetica,sans-Serif" font-size="10.00">compile_chyron</text>
</a>
</g>
</g>
<!-- Node2&#45;&gt;Node7 -->
<g id="edge8_Node000002_Node000007" class="edge">
<title>Node2&#45;&gt;Node7</title>
<g id="a_edge8_Node000002_Node000007"><a xlink:title=" ">
<path fill="none" stroke="#63b8ff" d="M189.96,-211.51C204.29,-199.25 228.99,-179.21 252.5,-165.38 254.98,-163.92 257.58,-162.5 260.24,-161.14"/>
<polygon fill="#63b8ff" stroke="#63b8ff" points="261.7,-164.32 269.21,-156.84 258.68,-158 261.7,-164.32"/>
</a>
</g>
</g>
<!-- Node9 -->
<g id="Node000009" class="node">
<title>Node9</title>
<g id="a_Node000009"><a xlink:href="../../dc/d40/dwin_8c.html#a3f3feb40fd703913c5c136331f627c91" target="_top" xlink:title="Destroy Chyron structure.">
<polygon fill="white" stroke="#666666" points="344.62,-116.75 253.62,-116.75 253.62,-96 344.62,-96 344.62,-116.75"/>
<text xml:space="preserve" text-anchor="middle" x="299.12" y="-103.25" font-family="Helvetica,sans-Serif" font-size="10.00">destroy_chyron</text>
</a>
</g>
</g>
<!-- Node2&#45;&gt;Node9 -->
<g id="edge10_Node000002_Node000009" class="edge">
<title>Node2&#45;&gt;Node9</title>
<g id="a_edge10_Node000002_Node000009"><a xlink:title=" ">
<path fill="none" stroke="#63b8ff" d="M183.49,-211.74C194.63,-192.4 220.63,-151.15 252.5,-126.38 254.24,-125.02 256.09,-123.74 258,-122.53"/>
<polygon fill="#63b8ff" stroke="#63b8ff" points="259.56,-125.67 266.63,-117.78 256.18,-119.53 259.56,-125.67"/>
</a>
</g>
</g>
<!-- Node10 -->
<g id="Node000010" class="node">
<title>Node10</title>
<g id="a_Node000010"><a xlink:href="../../dc/d40/dwin_8c.html#ad37d5808ff30ae6894780425d865abae" target="_top" xlink:title="Create and initialize Chyron structure.">
<polygon fill="white" stroke="#666666" points="336.38,-194.75 261.88,-194.75 261.88,-174 336.38,-174 336.38,-194.75"/>
<text xml:space="preserve" text-anchor="middle" x="299.12" y="-181.25" font-family="Helvetica,sans-Serif" font-size="10.00">new_chyron</text>
</a>
</g>
</g>
<!-- Node2&#45;&gt;Node10 -->
<g id="edge11_Node000002_Node000010" class="edge">
<title>Node2&#45;&gt;Node10</title>
<g id="a_edge11_Node000002_Node000010"><a xlink:title=" ">
<path fill="none" stroke="#63b8ff" d="M211.83,-211.59C224.68,-207.54 239.48,-202.87 253.16,-198.55"/>
<polygon fill="#63b8ff" stroke="#63b8ff" points="253.9,-201.99 262.39,-195.64 251.8,-195.31 253.9,-201.99"/>
</a>
</g>
</g>
<!-- Node11 -->
<g id="Node000011" class="node">
<title>Node11</title>
<g id="a_Node000011"><a xlink:href="../../dc/d40/dwin_8c.html#a208ce92c197fdd6d2b007987e534aa3b" target="_top" xlink:title="Set chyron key.">
<polygon fill="white" stroke="#666666" points="345,-309.75 253.25,-309.75 253.25,-289 345,-289 345,-309.75"/>
<text xml:space="preserve" text-anchor="middle" x="299.12" y="-296.25" font-family="Helvetica,sans-Serif" font-size="10.00">set_chyron_key</text>
</a>
</g>
</g>
<!-- Node2&#45;&gt;Node11 -->
<g id="edge13_Node000002_Node000011" class="edge">
<title>Node2&#45;&gt;Node11</title>
<g id="a_edge13_Node000002_Node000011"><a xlink:title=" ">
<path fill="none" stroke="#63b8ff" d="M189.96,-233.24C204.29,-245.5 228.99,-265.54 252.5,-279.38 254.98,-280.83 257.58,-282.25 260.24,-283.61"/>
<polygon fill="#63b8ff" stroke="#63b8ff" points="258.68,-286.75 269.21,-287.91 261.7,-280.43 258.68,-286.75"/>
</a>
</g>
</g>
<!-- Node12 -->
<g id="Node000012" class="node">
<title>Node12</title>
<g id="a_Node000012"><a xlink:href="../../d0/d59/futil_8c.html#a63eb94756fb011a456a3dec900709cd8" target="_top" xlink:title="ssnprintf was designed to be a safer alternative to snprintf.">
<polygon fill="white" stroke="#666666" points="457.38,-337.75 398.62,-337.75 398.62,-317 457.38,-317 457.38,-337.75"/>
<text xml:space="preserve" text-anchor="middle" x="428" y="-324.25" font-family="Helvetica,sans-Serif" font-size="10.00">ssnprintf</text>
</a>
</g>
</g>
<!-- Node2&#45;&gt;Node12 -->
<g id="edge15_Node000002_Node000012" class="edge">
<title>Node2&#45;&gt;Node12</title>
<g id="a_edge15_Node000002_Node000012"><a xlink:title=" ">
<path fill="none" stroke="#63b8ff" d="M179.72,-232.99C185.62,-259.7 205.16,-329.5 252.5,-357.38 298.31,-384.35 361.85,-361.19 398.27,-343.32"/>
<polygon fill="#63b8ff" stroke="#63b8ff" points="399.56,-346.59 406.87,-338.93 396.38,-340.36 399.56,-346.59"/>
</a>
</g>
</g>
<!-- Node13 -->
<g id="Node000013" class="node">
<title>Node13</title>
<g id="a_Node000013"><a xlink:href="../../d0/d59/futil_8c.html#a636608f26d1193b5d860f2312cd8ee49" target="_top" xlink:title="terminates string at New Line, Carriage Return, or max_len">
<polygon fill="white" stroke="#666666" points="319.12,-348.75 279.12,-348.75 279.12,-328 319.12,-328 319.12,-348.75"/>
<text xml:space="preserve" text-anchor="middle" x="299.12" y="-335.25" font-family="Helvetica,sans-Serif" font-size="10.00">strnz</text>
</a>
</g>
</g>
<!-- Node2&#45;&gt;Node13 -->
<g id="edge16_Node000002_Node000013" class="edge">
<title>Node2&#45;&gt;Node13</title>
<g id="a_edge16_Node000002_Node000013"><a xlink:title=" ">
<path fill="none" stroke="#63b8ff" d="M183.49,-233.01C194.63,-252.35 220.63,-293.6 252.5,-318.38 257.24,-322.06 262.77,-325.22 268.31,-327.87"/>
<polygon fill="#63b8ff" stroke="#63b8ff" points="266.81,-331.03 277.38,-331.73 269.55,-324.59 266.81,-331.03"/>
</a>
</g>
</g>
<!-- Node2&#45;&gt;Node14 -->
<g id="edge17_Node000002_Node000014" class="edge">
<title>Node2&#45;&gt;Node14</title>
<g id="a_edge17_Node000002_Node000014"><a xlink:title=" ">
<path fill="none" stroke="#63b8ff" d="M180.31,-211.59C187.34,-185.71 208.84,-119.84 252.5,-87.38 290.27,-59.29 344.6,-51.15 382.57,-49.18"/>
<polygon fill="#63b8ff" stroke="#63b8ff" points="382.43,-52.69 392.28,-48.81 382.16,-45.69 382.43,-52.69"/>
</a>
</g>
</g>
<!-- Node15 -->
<g id="Node000015" class="node">
<title>Node15</title>
<g id="a_Node000015"><a xlink:href="../../dc/d40/dwin_8c.html#a9dd598e1d49c8764af1eec42c682623e" target="_top" xlink:title="Delete the current window and its associated box window.">
<polygon fill="white" stroke="#666666" points="325.88,-270.75 272.38,-270.75 272.38,-250 325.88,-250 325.88,-270.75"/>
<text xml:space="preserve" text-anchor="middle" x="299.12" y="-257.25" font-family="Helvetica,sans-Serif" font-size="10.00">win_del</text>
</a>
</g>
</g>
<!-- Node2&#45;&gt;Node15 -->
<g id="edge18_Node000002_Node000015" class="edge">
<title>Node2&#45;&gt;Node15</title>
<g id="a_edge18_Node000002_Node000015"><a xlink:title=" ">
<path fill="none" stroke="#63b8ff" d="M211.83,-233.16C227.17,-238 245.31,-243.72 260.98,-248.66"/>
<polygon fill="#63b8ff" stroke="#63b8ff" points="259.85,-251.97 270.44,-251.64 261.95,-245.3 259.85,-251.97"/>
</a>
</g>
</g>
<!-- Node2&#45;&gt;Node16 -->
<g id="edge19_Node000002_Node000016" class="edge">
<title>Node2&#45;&gt;Node16</title>
<g id="a_edge19_Node000002_Node000016"><a xlink:title=" ">
<path fill="none" stroke="#63b8ff" d="M179.84,-211.57C186.24,-182.68 207.3,-102.61 252.5,-54.38 255.01,-51.7 257.88,-49.26 260.95,-47.06"/>
<polygon fill="#63b8ff" stroke="#63b8ff" points="262.55,-50.18 269.21,-41.94 258.87,-44.23 262.55,-50.18"/>
</a>
</g>
</g>
<!-- Node18 -->
<g id="Node000018" class="node">
<title>Node18</title>
<g id="a_Node000018"><a xlink:href="../../dc/d40/dwin_8c.html#acf4c709bccc4c965a5d61db978db31a3" target="_top" xlink:title="Wrapper for wgetch that handles signals and mouse events.">
<polygon fill="white" stroke="#666666" points="327.75,-424.75 270.5,-424.75 270.5,-404 327.75,-404 327.75,-424.75"/>
<text xml:space="preserve" text-anchor="middle" x="299.12" y="-411.25" font-family="Helvetica,sans-Serif" font-size="10.00">xwgetch</text>
</a>
</g>
</g>
<!-- Node2&#45;&gt;Node18 -->
<g id="edge22_Node000002_Node000018" class="edge">
<title>Node2&#45;&gt;Node18</title>
<g id="a_edge22_Node000002_Node000018"><a xlink:title=" ">
<path fill="none" stroke="#63b8ff" d="M180.98,-233.25C188.55,-261.49 209.71,-335.7 252.5,-381.38 259.04,-388.35 268.07,-393.69 276.37,-398.19"/>
<polygon fill="#63b8ff" stroke="#63b8ff" points="274.46,-401.14 284.93,-402.79 277.78,-394.97 274.46,-401.14"/>
</a>
</g>
</g>
<!-- Node4 -->
<g id="Node000004" class="node">
<title>Node4</title>
<g id="a_Node000004"><a xlink:href="../../dc/d40/dwin_8c.html#afc0985a403e3eac0b2cd8f0fab500256" target="_top" xlink:title="Gracefully shut down NCurses and restore terminal settings.">
<polygon fill="white" stroke="#666666" points="599.75,-213.75 510.25,-213.75 510.25,-193 599.75,-193 599.75,-213.75"/>
<text xml:space="preserve" text-anchor="middle" x="555" y="-200.25" font-family="Helvetica,sans-Serif" font-size="10.00">destroy_curses</text>
</a>
</g>
</g>
<!-- Node3&#45;&gt;Node4 -->
<g id="edge3_Node000003_Node000004" class="edge">
<title>Node3&#45;&gt;Node4</title>
<g id="a_edge3_Node000003_Node000004"><a xlink:title=" ">
<path fill="none" stroke="#63b8ff" d="M451.35,-203.38C464.53,-203.38 481.84,-203.38 498.48,-203.38"/>
<polygon fill="#63b8ff" stroke="#63b8ff" points="498.32,-206.88 508.32,-203.38 498.32,-199.88 498.32,-206.88"/>
</a>
</g>
</g>
<!-- Node5 -->
<g id="Node000005" class="node">
<title>Node5</title>
<g id="a_Node000005"><a xlink:href="../../d7/d72/scriou_8c.html#ac5e3adb304b78910fc77761ef6a743f0" target="_top" xlink:title="restore_shell_tioctl() &#45; restore shell terminal settings">
<polygon fill="white" stroke="#666666" points="744.75,-241.75 635.75,-241.75 635.75,-221 744.75,-221 744.75,-241.75"/>
<text xml:space="preserve" text-anchor="middle" x="690.25" y="-228.25" font-family="Helvetica,sans-Serif" font-size="10.00">restore_shell_tioctl</text>
</a>
</g>
</g>
<!-- Node3&#45;&gt;Node5 -->
<g id="edge6_Node000003_Node000005" class="edge">
<title>Node3&#45;&gt;Node5</title>
<g id="a_edge6_Node000003_Node000005"><a xlink:title=" ">
<path fill="none" stroke="#63b8ff" d="M451.21,-209.71C467.43,-214.05 490.02,-219.53 510.25,-222.38 547.76,-227.66 590.07,-229.95 624.14,-230.91"/>
<polygon fill="#63b8ff" stroke="#63b8ff" points="623.76,-234.4 633.84,-231.14 623.93,-227.4 623.76,-234.4"/>
</a>
</g>
</g>
<!-- Node6 -->
<g id="Node000006" class="node">
<title>Node6</title>
<g id="a_Node000006"><a xlink:href="../../da/d12/sig_8c.html#a06c1eb6cf3649dc187115565409f91af" target="_top" xlink:title="Set signal handlers to default behavior.">
<polygon fill="white" stroke="#666666" points="730.88,-193.75 649.62,-193.75 649.62,-173 730.88,-173 730.88,-193.75"/>
<text xml:space="preserve" text-anchor="middle" x="690.25" y="-180.25" font-family="Helvetica,sans-Serif" font-size="10.00">sig_dfl_mode</text>
</a>
</g>
</g>
<!-- Node3&#45;&gt;Node6 -->
<g id="edge7_Node000003_Node000006" class="edge">
<title>Node3&#45;&gt;Node6</title>
<g id="a_edge7_Node000003_Node000006"><a xlink:title=" ">
<path fill="none" stroke="#63b8ff" d="M451.18,-196.77C467.38,-192.29 489.97,-186.77 510.25,-184.38 553.14,-179.31 602.21,-179.45 638.11,-180.63"/>
<polygon fill="#63b8ff" stroke="#63b8ff" points="637.64,-184.12 647.77,-180.99 637.9,-177.12 637.64,-184.12"/>
</a>
</g>
</g>
<!-- Node4&#45;&gt;Node5 -->
<g id="edge4_Node000004_Node000005" class="edge">
<title>Node4&#45;&gt;Node5</title>
<g id="a_edge4_Node000004_Node000005"><a xlink:title=" ">
<path fill="none" stroke="#63b8ff" d="M600,-212.62C608.62,-214.43 617.82,-216.37 626.91,-218.28"/>
<polygon fill="#63b8ff" stroke="#63b8ff" points="625.91,-221.64 636.42,-220.27 627.35,-214.79 625.91,-221.64"/>
</a>
</g>
</g>
<!-- Node4&#45;&gt;Node6 -->
<g id="edge5_Node000004_Node000006" class="edge">
<title>Node4&#45;&gt;Node6</title>
<g id="a_edge5_Node000004_Node000006"><a xlink:title=" ">
<path fill="none" stroke="#63b8ff" d="M600,-196.77C612.19,-194.94 625.52,-192.94 638.08,-191.06"/>
<polygon fill="#63b8ff" stroke="#63b8ff" points="638.48,-194.54 647.85,-189.59 637.44,-187.61 638.48,-194.54"/>
</a>
</g>
</g>
<!-- Node8 -->
<g id="Node000008" class="node">
<title>Node8</title>
<g id="a_Node000008"><a xlink:href="../../d0/d59/futil_8c.html#aa0145c044cfdde3a1c83323410a59f25" target="_top" xlink:title="safer alternative to strncat">
<polygon fill="white" stroke="#666666" points="460.75,-155.75 395.25,-155.75 395.25,-135 460.75,-135 460.75,-155.75"/>
<text xml:space="preserve" text-anchor="middle" x="428" y="-142.25" font-family="Helvetica,sans-Serif" font-size="10.00">strnz__cat</text>
</a>
</g>
</g>
<!-- Node7&#45;&gt;Node8 -->
<g id="edge9_Node000007_Node000008" class="edge">
<title>Node7&#45;&gt;Node8</title>
<g id="a_edge9_Node000007_Node000008"><a xlink:title=" ">
<path fill="none" stroke="#63b8ff" d="M345.93,-145.38C358.19,-145.38 371.41,-145.38 383.55,-145.38"/>
<polygon fill="#63b8ff" stroke="#63b8ff" points="383.27,-148.88 393.27,-145.38 383.27,-141.88 383.27,-148.88"/>
</a>
</g>
</g>
<!-- Node10&#45;&gt;Node3 -->
<g id="edge12_Node000010_Node000003" class="edge">
<title>Node10&#45;&gt;Node3</title>
<g id="a_edge12_Node000010_Node000003"><a xlink:title=" ">
<path fill="none" stroke="#63b8ff" d="M336.82,-189.87C354.66,-192.54 375.95,-195.73 393.37,-198.34"/>
<polygon fill="#63b8ff" stroke="#63b8ff" points="392.81,-201.79 403.22,-199.81 393.85,-194.87 392.81,-201.79"/>
</a>
</g>
</g>
<!-- Node11&#45;&gt;Node12 -->
<g id="edge14_Node000011_Node000012" class="edge">
<title>Node11&#45;&gt;Node12</title>
<g id="a_edge14_Node000011_Node000012"><a xlink:title=" ">
<path fill="none" stroke="#63b8ff" d="M345.21,-309.33C358.88,-312.34 373.78,-315.63 387.08,-318.56"/>
<polygon fill="#63b8ff" stroke="#63b8ff" points="386.28,-321.97 396.8,-320.71 387.79,-315.14 386.28,-321.97"/>
</a>
</g>
</g>
<!-- Node16&#45;&gt;Node14 -->
<g id="edge21_Node000016_Node000014" class="edge">
<title>Node16&#45;&gt;Node14</title>
<g id="a_edge21_Node000016_Node000014"><a xlink:title=" ">
<path fill="none" stroke="#63b8ff" d="M328.91,-34.69C344.75,-37.06 364.74,-40.05 382.53,-42.72"/>
<polygon fill="#63b8ff" stroke="#63b8ff" points="381.94,-46.17 392.34,-44.19 382.97,-39.24 381.94,-46.17"/>
</a>
</g>
</g>
<!-- Node17 -->
<g id="Node000017" class="node">
<title>Node17</title>
<g id="a_Node000017"><a xlink:href="../../dc/d40/dwin_8c.html#ac9adcf7339be4a05ab1a7350c236b8a5" target="_top" xlink:title="Draw a box around the specified window.">
<polygon fill="white" stroke="#666666" points="447.62,-20.75 408.38,-20.75 408.38,0 447.62,0 447.62,-20.75"/>
<text xml:space="preserve" text-anchor="middle" x="428" y="-7.25" font-family="Helvetica,sans-Serif" font-size="10.00">cbox</text>
</a>
</g>
</g>
<!-- Node16&#45;&gt;Node17 -->
<g id="edge20_Node000016_Node000017" class="edge">
<title>Node16&#45;&gt;Node17</title>
<g id="a_edge20_Node000016_Node000017"><a xlink:title=" ">
<path fill="none" stroke="#63b8ff" d="M328.91,-25.84C349.21,-22.64 376.32,-18.36 396.9,-15.12"/>
<polygon fill="#63b8ff" stroke="#63b8ff" points="397.33,-18.6 406.66,-13.58 396.24,-11.68 397.33,-18.6"/>
</a>
</g>
</g>
<!-- Node18&#45;&gt;Node2 -->
<g id="edge23_Node000018_Node000002" class="edge">
<title>Node18&#45;&gt;Node2</title>
<g id="a_edge23_Node000018_Node000002"><a xlink:title=" ">
<path fill="none" stroke="#63b8ff" d="M270.02,-412.08C263.69,-408.9 257.4,-404.6 252.5,-399.38 209.93,-353.95 188.77,-280.27 181.11,-243.75"/>
<polygon fill="#63b8ff" stroke="#63b8ff" points="184.63,-243.52 179.3,-234.37 177.75,-244.85 184.63,-243.52"/>
</a>
</g>
</g>
<!-- Node19 -->
<g id="Node000019" class="node">
<title>Node19</title>
<g id="a_Node000019"><a xlink:href="../../dc/d40/dwin_8c.html#a4298f891699300bfc4e6e56fd2a8d574" target="_top" xlink:title="Get keycode from chyron.">
<polygon fill="white" stroke="#666666" points="474.25,-404.75 381.75,-404.75 381.75,-384 474.25,-384 474.25,-404.75"/>
<text xml:space="preserve" text-anchor="middle" x="428" y="-391.25" font-family="Helvetica,sans-Serif" font-size="10.00">get_chyron_key</text>
</a>
</g>
</g>
<!-- Node18&#45;&gt;Node19 -->
<g id="edge24_Node000018_Node000019" class="edge">
<title>Node18&#45;&gt;Node19</title>
<g id="a_edge24_Node000018_Node000019"><a xlink:title=" ">
<path fill="none" stroke="#63b8ff" d="M327.97,-409.99C340.41,-408.03 355.55,-405.64 370.21,-403.33"/>
<polygon fill="#63b8ff" stroke="#63b8ff" points="370.44,-406.83 379.78,-401.82 369.35,-399.92 370.44,-406.83"/>
</a>
</g>
</g>
<!-- Node20 -->
<g id="Node000020" class="node">
<title>Node20</title>
<g id="a_Node000020"><a xlink:href="../../d0/d6b/cm_8h.html#a0667873879b5846c3fe2fa2cc96059d6" target="_top" xlink:title=" ">
<polygon fill="white" stroke="#666666" points="469.75,-443.75 386.25,-443.75 386.25,-423 469.75,-423 469.75,-443.75"/>
<text xml:space="preserve" text-anchor="middle" x="428" y="-430.25" font-family="Helvetica,sans-Serif" font-size="10.00">handle_signal</text>
</a>
</g>
</g>
<!-- Node18&#45;&gt;Node20 -->
<g id="edge25_Node000018_Node000020" class="edge">
<title>Node18&#45;&gt;Node20</title>
<g id="a_edge25_Node000018_Node000020"><a xlink:title=" ">
<path fill="none" stroke="#63b8ff" d="M327.97,-418.54C341.84,-420.62 359.06,-423.2 375.24,-425.62"/>
<polygon fill="#63b8ff" stroke="#63b8ff" points="374.31,-429.02 384.72,-427.04 375.35,-422.1 374.31,-429.02"/>
</a>
</g>
</g>
</g>
</svg>
