<?xml version="1.0" encoding="UTF-8" standalone="no"?>
<!DOCTYPE svg PUBLIC "-//W3C//DTD SVG 1.1//EN"
 "http://www.w3.org/Graphics/SVG/1.1/DTD/svg11.dtd">
<!-- Generated by graphviz version 14.1.2 (0)
 -->
<!-- Title: main Pages: 1 -->
<svg width="877pt" height="696pt"
 viewBox="0.00 0.00 877.00 696.00" xmlns="http://www.w3.org/2000/svg" xmlns:xlink="http://www.w3.org/1999/xlink">
<g id="graph0" class="graph" transform="scale(1 1) rotate(0) translate(4 692.18)">
<title>main</title>
<!-- Node1 -->
<g id="Node000001" class="node">
<title>Node1</title>
<g id="a_Node000001"><a xlink:title="List files in a directory matching a regular expression.">
<polygon fill="#999999" stroke="#666666" points="40.75,-479.38 0,-479.38 0,-458.62 40.75,-458.62 40.75,-479.38"/>
<text xml:space="preserve" text-anchor="middle" x="20.38" y="-465.88" font-family="Helvetica,sans-Serif" font-size="10.00">main</text>
</a>
</g>
</g>
<!-- Node2 -->
<g id="Node000002" class="node">
<title>Node2</title>
<g id="a_Node000002"><a xlink:href="../../dc/d5d/a00278.html#a5bd2fb968d70ed5285cfce1ed9e33ca1" target="_top" xlink:title="Find files in a directory matching a regular expression.">
<polygon fill="white" stroke="#666666" points="123.5,-345.38 76.75,-345.38 76.75,-324.62 123.5,-324.62 123.5,-345.38"/>
<text xml:space="preserve" text-anchor="middle" x="100.12" y="-331.88" font-family="Helvetica,sans-Serif" font-size="10.00">lf_find</text>
</a>
</g>
</g>
<!-- Node1&#45;&gt;Node2 -->
<g id="edge1_Node000001_Node000002" class="edge">
<title>Node1&#45;&gt;Node2</title>
<g id="a_edge1_Node000001_Node000002"><a xlink:title=" ">
<path fill="none" stroke="#63b8ff" d="M27.48,-458.49C40.3,-436.38 70.25,-384.76 87.09,-355.74"/>
<polygon fill="#63b8ff" stroke="#63b8ff" points="90.09,-357.55 92.08,-347.15 84.03,-354.04 90.09,-357.55"/>
</a>
</g>
</g>
<!-- Node15 -->
<g id="Node000015" class="node">
<title>Node15</title>
<g id="a_Node000015"><a xlink:href="../../dc/d5d/a00278.html#a0de2e40df9bd7efc8fd9afb8ad2257e6" target="_top" xlink:title="safer alternative to strncpy">
<polygon fill="white" stroke="#666666" points="713.12,-602.38 645.38,-602.38 645.38,-581.62 713.12,-581.62 713.12,-602.38"/>
<text xml:space="preserve" text-anchor="middle" x="679.25" y="-588.88" font-family="Helvetica,sans-Serif" font-size="10.00">strnz__cpy</text>
</a>
</g>
</g>
<!-- Node1&#45;&gt;Node15 -->
<g id="edge47_Node000001_Node000015" class="edge">
<title>Node1&#45;&gt;Node15</title>
<g id="a_edge47_Node000001_Node000015"><a xlink:title=" ">
<path fill="none" stroke="#63b8ff" d="M23.99,-479.86C35.35,-524.05 84.67,-688 191.25,-688 191.25,-688 191.25,-688 424.38,-688 502.9,-688 527.15,-690.81 598.5,-658 622.93,-646.77 646.05,-626.12 661.04,-610.9"/>
<polygon fill="#63b8ff" stroke="#63b8ff" points="663.47,-613.42 667.83,-603.77 658.4,-608.59 663.47,-613.42"/>
</a>
</g>
</g>
<!-- Node3 -->
<g id="Node000003" class="node">
<title>Node3</title>
<g id="a_Node000003"><a xlink:href="../../df/d95/a00299.html#a67659f8a701b74f4dec0d36227a10d1c" target="_top" xlink:title="Display an error message window or print to stderr.">
<polygon fill="white" stroke="#666666" points="340.75,-430.38 261,-430.38 261,-409.62 340.75,-409.62 340.75,-430.38"/>
<text xml:space="preserve" text-anchor="middle" x="300.88" y="-416.88" font-family="Helvetica,sans-Serif" font-size="10.00">display_error</text>
</a>
</g>
</g>
<!-- Node2&#45;&gt;Node3 -->
<g id="edge2_Node000002_Node000003" class="edge">
<title>Node2&#45;&gt;Node3</title>
<g id="a_edge2_Node000002_Node000003"><a xlink:title=" ">
<path fill="none" stroke="#63b8ff" d="M123.92,-344.75C158.2,-359.41 223.32,-387.26 264,-404.66"/>
<polygon fill="#63b8ff" stroke="#63b8ff" points="262.57,-407.85 273.14,-408.57 265.33,-401.42 262.57,-407.85"/>
</a>
</g>
</g>
<!-- Node13 -->
<g id="Node000013" class="node">
<title>Node13</title>
<g id="a_Node000013"><a xlink:href="../../dc/d5d/a00278.html#a63eb94756fb011a456a3dec900709cd8" target="_top" xlink:title="ssnprintf was designed to be a safer alternative to snprintf.">
<polygon fill="white" stroke="#666666" points="708.62,-182.38 649.88,-182.38 649.88,-161.62 708.62,-161.62 708.62,-182.38"/>
<text xml:space="preserve" text-anchor="middle" x="679.25" y="-168.88" font-family="Helvetica,sans-Serif" font-size="10.00">ssnprintf</text>
</a>
</g>
</g>
<!-- Node2&#45;&gt;Node13 -->
<g id="edge46_Node000002_Node000013" class="edge">
<title>Node2&#45;&gt;Node13</title>
<g id="a_edge46_Node000002_Node000013"><a xlink:title=" ">
<path fill="none" stroke="#63b8ff" d="M102.16,-324.23C108.33,-266.89 145.35,0 299.88,0 299.88,0 299.88,0 424.38,0 532.01,0 627.97,-107.27 663.57,-152.38"/>
<polygon fill="#63b8ff" stroke="#63b8ff" points="660.61,-154.27 669.49,-160.04 666.15,-149.99 660.61,-154.27"/>
</a>
</g>
</g>
<!-- Node22 -->
<g id="Node000022" class="node">
<title>Node22</title>
<g id="a_Node000022"><a xlink:href="../../dc/d5d/a00278.html#a07c8d6297f2d3fd2651a507391fd6d2e" target="_top" xlink:title="logic for lf_find()">
<polygon fill="white" stroke="#666666" points="225,-297.38 159.5,-297.38 159.5,-276.62 225,-276.62 225,-297.38"/>
<text xml:space="preserve" text-anchor="middle" x="192.25" y="-283.88" font-family="Helvetica,sans-Serif" font-size="10.00">lf_process</text>
</a>
</g>
</g>
<!-- Node2&#45;&gt;Node22 -->
<g id="edge30_Node000002_Node000022" class="edge">
<title>Node2&#45;&gt;Node22</title>
<g id="a_edge30_Node000002_Node000022"><a xlink:title=" ">
<path fill="none" stroke="#63b8ff" d="M121.13,-324.35C132.83,-318.11 147.84,-310.12 160.97,-303.13"/>
<polygon fill="#63b8ff" stroke="#63b8ff" points="162.48,-306.29 169.66,-298.5 159.19,-300.11 162.48,-306.29"/>
</a>
</g>
</g>
<!-- Node4 -->
<g id="Node000004" class="node">
<title>Node4</title>
<g id="a_Node000004"><a xlink:href="../../df/d95/a00299.html#a8f6c45ca4a7f6a41c4c88314e697565a" target="_top" xlink:title="Abnormal program termination.">
<polygon fill="white" stroke="#666666" points="575.25,-469.38 529.25,-469.38 529.25,-448.62 575.25,-448.62 575.25,-469.38"/>
<text xml:space="preserve" text-anchor="middle" x="552.25" y="-455.88" font-family="Helvetica,sans-Serif" font-size="10.00">abend</text>
</a>
</g>
</g>
<!-- Node3&#45;&gt;Node4 -->
<g id="edge3_Node000003_Node000004" class="edge">
<title>Node3&#45;&gt;Node4</title>
<g id="a_edge3_Node000003_Node000004"><a xlink:title=" ">
<path fill="none" stroke="#63b8ff" d="M311.22,-430.71C324.25,-444.73 349.37,-468.63 376.75,-478 423.97,-494.15 482.19,-481.86 518.01,-470.91"/>
<polygon fill="#63b8ff" stroke="#63b8ff" points="518.92,-474.29 527.37,-467.9 516.78,-467.63 518.92,-474.29"/>
</a>
</g>
</g>
<!-- Node8 -->
<g id="Node000008" class="node">
<title>Node8</title>
<g id="a_Node000008"><a xlink:href="../../df/d95/a00299.html#a645871e46277e31736bc36d0f3dce4bd" target="_top" xlink:title="construct the chyron string from the chyron structure">
<polygon fill="white" stroke="#666666" points="470,-278.38 376.75,-278.38 376.75,-257.62 470,-257.62 470,-278.38"/>
<text xml:space="preserve" text-anchor="middle" x="423.38" y="-264.88" font-family="Helvetica,sans-Serif" font-size="10.00">compile_chyron</text>
</a>
</g>
</g>
<!-- Node3&#45;&gt;Node8 -->
<g id="edge9_Node000003_Node000008" class="edge">
<title>Node3&#45;&gt;Node8</title>
<g id="a_edge9_Node000003_Node000008"><a xlink:title=" ">
<path fill="none" stroke="#63b8ff" d="M310.38,-409.15C324.24,-391.49 352.59,-355.42 376.75,-325 386.75,-312.41 398.04,-298.3 406.89,-287.27"/>
<polygon fill="#63b8ff" stroke="#63b8ff" points="409.46,-289.66 412.99,-279.67 404.01,-285.27 409.46,-289.66"/>
</a>
</g>
</g>
<!-- Node10 -->
<g id="Node000010" class="node">
<title>Node10</title>
<g id="a_Node000010"><a xlink:href="../../df/d95/a00299.html#a3f3feb40fd703913c5c136331f627c91" target="_top" xlink:title="Destroy Chyron structure.">
<polygon fill="white" stroke="#666666" points="468.88,-239.38 377.88,-239.38 377.88,-218.62 468.88,-218.62 468.88,-239.38"/>
<text xml:space="preserve" text-anchor="middle" x="423.38" y="-225.88" font-family="Helvetica,sans-Serif" font-size="10.00">destroy_chyron</text>
</a>
</g>
</g>
<!-- Node3&#45;&gt;Node10 -->
<g id="edge11_Node000003_Node000010" class="edge">
<title>Node3&#45;&gt;Node10</title>
<g id="a_edge11_Node000003_Node000010"><a xlink:title=" ">
<path fill="none" stroke="#63b8ff" d="M305.44,-409.21C316.72,-375.58 352.35,-273.41 376.75,-249 377.78,-247.97 378.88,-246.98 380.02,-246.05"/>
<polygon fill="#63b8ff" stroke="#63b8ff" points="381.86,-249.03 388.28,-240.6 378.01,-243.18 381.86,-249.03"/>
</a>
</g>
</g>
<!-- Node11 -->
<g id="Node000011" class="node">
<title>Node11</title>
<g id="a_Node000011"><a xlink:href="../../df/d95/a00299.html#ad37d5808ff30ae6894780425d865abae" target="_top" xlink:title="Create and initialize Chyron structure.">
<polygon fill="white" stroke="#666666" points="460.62,-469.38 386.12,-469.38 386.12,-448.62 460.62,-448.62 460.62,-469.38"/>
<text xml:space="preserve" text-anchor="middle" x="423.38" y="-455.88" font-family="Helvetica,sans-Serif" font-size="10.00">new_chyron</text>
</a>
</g>
</g>
<!-- Node3&#45;&gt;Node11 -->
<g id="edge12_Node000003_Node000011" class="edge">
<title>Node3&#45;&gt;Node11</title>
<g id="a_edge12_Node000003_Node000011"><a xlink:title=" ">
<path fill="none" stroke="#63b8ff" d="M335.44,-430.86C348.76,-435.17 364.26,-440.19 378.45,-444.78"/>
<polygon fill="#63b8ff" stroke="#63b8ff" points="376.96,-447.98 387.55,-447.73 379.11,-441.32 376.96,-447.98"/>
</a>
</g>
</g>
<!-- Node12 -->
<g id="Node000012" class="node">
<title>Node12</title>
<g id="a_Node000012"><a xlink:href="../../df/d95/a00299.html#a208ce92c197fdd6d2b007987e534aa3b" target="_top" xlink:title="Set chyron key.">
<polygon fill="white" stroke="#666666" points="469.25,-354.38 377.5,-354.38 377.5,-333.62 469.25,-333.62 469.25,-354.38"/>
<text xml:space="preserve" text-anchor="middle" x="423.38" y="-340.88" font-family="Helvetica,sans-Serif" font-size="10.00">set_chyron_key</text>
</a>
</g>
</g>
<!-- Node3&#45;&gt;Node12 -->
<g id="edge14_Node000003_Node000012" class="edge">
<title>Node3&#45;&gt;Node12</title>
<g id="a_edge14_Node000003_Node000012"><a xlink:title=" ">
<path fill="none" stroke="#63b8ff" d="M316.16,-409.29C330.97,-398.38 354.97,-381.22 376.75,-368 381.17,-365.31 385.93,-362.62 390.63,-360.05"/>
<polygon fill="#63b8ff" stroke="#63b8ff" points="392.19,-363.19 399.38,-355.41 388.91,-357.01 392.19,-363.19"/>
</a>
</g>
</g>
<!-- Node3&#45;&gt;Node13 -->
<g id="edge16_Node000003_Node000013" class="edge">
<title>Node3&#45;&gt;Node13</title>
<g id="a_edge16_Node000003_Node000013"><a xlink:title=" ">
<path fill="none" stroke="#63b8ff" d="M341.22,-410.15C376.14,-400.6 427.99,-384.42 470,-363 532.34,-331.21 547.62,-320.05 598.5,-272 624.86,-247.1 650.04,-213.28 664.82,-192.05"/>
<polygon fill="#63b8ff" stroke="#63b8ff" points="667.58,-194.21 670.34,-183.98 661.8,-190.26 667.58,-194.21"/>
</a>
</g>
</g>
<!-- Node14 -->
<g id="Node000014" class="node">
<title>Node14</title>
<g id="a_Node000014"><a xlink:href="../../dc/d5d/a00278.html#a636608f26d1193b5d860f2312cd8ee49" target="_top" xlink:title="terminates string at New Line, Carriage Return, or max_len">
<polygon fill="white" stroke="#666666" points="443.38,-584.38 403.38,-584.38 403.38,-563.62 443.38,-563.62 443.38,-584.38"/>
<text xml:space="preserve" text-anchor="middle" x="423.38" y="-570.88" font-family="Helvetica,sans-Serif" font-size="10.00">strnz</text>
</a>
</g>
</g>
<!-- Node3&#45;&gt;Node14 -->
<g id="edge17_Node000003_Node000014" class="edge">
<title>Node3&#45;&gt;Node14</title>
<g id="a_edge17_Node000003_Node000014"><a xlink:title=" ">
<path fill="none" stroke="#63b8ff" d="M305.14,-430.54C313.32,-455.3 336.9,-517.81 376.75,-554 381.39,-558.21 387.06,-561.65 392.81,-564.4"/>
<polygon fill="#63b8ff" stroke="#63b8ff" points="391.05,-567.46 401.63,-568.07 393.74,-561 391.05,-567.46"/>
</a>
</g>
</g>
<!-- Node3&#45;&gt;Node15 -->
<g id="edge18_Node000003_Node000015" class="edge">
<title>Node3&#45;&gt;Node15</title>
<g id="a_edge18_Node000003_Node000015"><a xlink:title=" ">
<path fill="none" stroke="#63b8ff" d="M302.65,-430.64C305.59,-462.15 319.03,-555.09 376.75,-593 455.42,-644.67 572.32,-623.26 634.93,-605.94"/>
<polygon fill="#63b8ff" stroke="#63b8ff" points="635.87,-609.32 644.52,-603.19 633.94,-602.59 635.87,-609.32"/>
</a>
</g>
</g>
<!-- Node16 -->
<g id="Node000016" class="node">
<title>Node16</title>
<g id="a_Node000016"><a xlink:href="../../df/d95/a00299.html#a9dd598e1d49c8764af1eec42c682623e" target="_top" xlink:title="Delete the current window and its associated box window.">
<polygon fill="white" stroke="#666666" points="450.12,-200.38 396.62,-200.38 396.62,-179.62 450.12,-179.62 450.12,-200.38"/>
<text xml:space="preserve" text-anchor="middle" x="423.38" y="-186.88" font-family="Helvetica,sans-Serif" font-size="10.00">win_del</text>
</a>
</g>
</g>
<!-- Node3&#45;&gt;Node16 -->
<g id="edge19_Node000003_Node000016" class="edge">
<title>Node3&#45;&gt;Node16</title>
<g id="a_edge19_Node000003_Node000016"><a xlink:title=" ">
<path fill="none" stroke="#63b8ff" d="M305.59,-409.23C320.19,-366.88 373.11,-213.9 376.75,-210 379.49,-207.06 382.73,-204.53 386.21,-202.36"/>
<polygon fill="#63b8ff" stroke="#63b8ff" points="387.75,-205.51 395.05,-197.83 384.55,-199.28 387.75,-205.51"/>
</a>
</g>
</g>
<!-- Node17 -->
<g id="Node000017" class="node">
<title>Node17</title>
<g id="a_Node000017"><a xlink:href="../../df/d95/a00299.html#a435c7bff7ffedb8f51c6de9259e36f6c" target="_top" xlink:title="Create a new window with optional box and title.">
<polygon fill="white" stroke="#666666" points="452.75,-545.38 394,-545.38 394,-524.62 452.75,-524.62 452.75,-545.38"/>
<text xml:space="preserve" text-anchor="middle" x="423.38" y="-531.88" font-family="Helvetica,sans-Serif" font-size="10.00">win_new</text>
</a>
</g>
</g>
<!-- Node3&#45;&gt;Node17 -->
<g id="edge20_Node000003_Node000017" class="edge">
<title>Node3&#45;&gt;Node17</title>
<g id="a_edge20_Node000003_Node000017"><a xlink:title=" ">
<path fill="none" stroke="#63b8ff" d="M308.6,-430.71C320.52,-449.02 346.92,-486.72 376.75,-511 380.17,-513.78 383.96,-516.38 387.85,-518.76"/>
<polygon fill="#63b8ff" stroke="#63b8ff" points="385.83,-521.64 396.26,-523.49 389.26,-515.54 385.83,-521.64"/>
</a>
</g>
</g>
<!-- Node19 -->
<g id="Node000019" class="node">
<title>Node19</title>
<g id="a_Node000019"><a xlink:href="../../df/d95/a00299.html#acf4c709bccc4c965a5d61db978db31a3" target="_top" xlink:title="Wrapper for wgetch that handles signals and mouse events.">
<polygon fill="white" stroke="#666666" points="452,-430.38 394.75,-430.38 394.75,-409.62 452,-409.62 452,-430.38"/>
<text xml:space="preserve" text-anchor="middle" x="423.38" y="-416.88" font-family="Helvetica,sans-Serif" font-size="10.00">xwgetch</text>
</a>
</g>
</g>
<!-- Node3&#45;&gt;Node19 -->
<g id="edge23_Node000003_Node000019" class="edge">
<title>Node3&#45;&gt;Node19</title>
<g id="a_edge23_Node000003_Node000019"><a xlink:title=" ">
<path fill="none" stroke="#63b8ff" d="M341,-413.63C354.5,-413.12 369.62,-413.12 383.13,-413.63"/>
<polygon fill="#63b8ff" stroke="#63b8ff" points="382.83,-417.12 392.99,-414.13 383.18,-410.13 382.83,-417.12"/>
</a>
</g>
</g>
<!-- Node5 -->
<g id="Node000005" class="node">
<title>Node5</title>
<g id="a_Node000005"><a xlink:href="../../df/d95/a00299.html#afc0985a403e3eac0b2cd8f0fab500256" target="_top" xlink:title="Gracefully shut down NCurses and restore terminal settings.">
<polygon fill="white" stroke="#666666" points="724,-487.38 634.5,-487.38 634.5,-466.62 724,-466.62 724,-487.38"/>
<text xml:space="preserve" text-anchor="middle" x="679.25" y="-473.88" font-family="Helvetica,sans-Serif" font-size="10.00">destroy_curses</text>
</a>
</g>
</g>
<!-- Node4&#45;&gt;Node5 -->
<g id="edge4_Node000004_Node000005" class="edge">
<title>Node4&#45;&gt;Node5</title>
<g id="a_edge4_Node000004_Node000005"><a xlink:title=" ">
<path fill="none" stroke="#63b8ff" d="M575.6,-462.22C588.78,-464.12 606.09,-466.61 622.73,-469.01"/>
<polygon fill="#63b8ff" stroke="#63b8ff" points="622.19,-472.46 632.59,-470.42 623.19,-465.54 622.19,-472.46"/>
</a>
</g>
</g>
<!-- Node6 -->
<g id="Node000006" class="node">
<title>Node6</title>
<g id="a_Node000006"><a xlink:href="../../d6/de1/a00233.html#ac5e3adb304b78910fc77761ef6a743f0" target="_top" xlink:title="restore_shell_tioctl() &#45; restore shell terminal settings">
<polygon fill="white" stroke="#666666" points="869,-449.38 760,-449.38 760,-428.62 869,-428.62 869,-449.38"/>
<text xml:space="preserve" text-anchor="middle" x="814.5" y="-435.88" font-family="Helvetica,sans-Serif" font-size="10.00">restore_shell_tioctl</text>
</a>
</g>
</g>
<!-- Node4&#45;&gt;Node6 -->
<g id="edge7_Node000004_Node000006" class="edge">
<title>Node4&#45;&gt;Node6</title>
<g id="a_edge7_Node000004_Node000006"><a xlink:title=" ">
<path fill="none" stroke="#63b8ff" d="M575.44,-457.29C613.27,-454.39 691.65,-448.36 748.16,-444.02"/>
<polygon fill="#63b8ff" stroke="#63b8ff" points="748.29,-447.52 757.99,-443.27 747.75,-440.54 748.29,-447.52"/>
</a>
</g>
</g>
<!-- Node7 -->
<g id="Node000007" class="node">
<title>Node7</title>
<g id="a_Node000007"><a xlink:href="../../d1/da8/a00230.html#a06c1eb6cf3649dc187115565409f91af" target="_top" xlink:title="Set signal handlers to default behavior.">
<polygon fill="white" stroke="#666666" points="855.12,-506.38 773.88,-506.38 773.88,-485.62 855.12,-485.62 855.12,-506.38"/>
<text xml:space="preserve" text-anchor="middle" x="814.5" y="-492.88" font-family="Helvetica,sans-Serif" font-size="10.00">sig_dfl_mode</text>
</a>
</g>
</g>
<!-- Node4&#45;&gt;Node7 -->
<g id="edge8_Node000004_Node000007" class="edge">
<title>Node4&#45;&gt;Node7</title>
<g id="a_edge8_Node000004_Node000007"><a xlink:title=" ">
<path fill="none" stroke="#63b8ff" d="M574.22,-469.79C594.03,-479.75 622.46,-493.39 634.5,-496 676.84,-505.19 726.15,-504.37 762.28,-501.72"/>
<polygon fill="#63b8ff" stroke="#63b8ff" points="762.33,-505.22 772.02,-500.92 761.77,-498.25 762.33,-505.22"/>
</a>
</g>
</g>
<!-- Node5&#45;&gt;Node6 -->
<g id="edge5_Node000005_Node000006" class="edge">
<title>Node5&#45;&gt;Node6</title>
<g id="a_edge5_Node000005_Node000006"><a xlink:title=" ">
<path fill="none" stroke="#63b8ff" d="M718.08,-466.21C732.57,-462.08 749.3,-457.31 764.68,-452.92"/>
<polygon fill="#63b8ff" stroke="#63b8ff" points="765.47,-456.34 774.12,-450.23 763.55,-449.61 765.47,-456.34"/>
</a>
</g>
</g>
<!-- Node5&#45;&gt;Node7 -->
<g id="edge6_Node000005_Node000007" class="edge">
<title>Node5&#45;&gt;Node7</title>
<g id="a_edge6_Node000005_Node000007"><a xlink:title=" ">
<path fill="none" stroke="#63b8ff" d="M724.25,-483.27C736.44,-485.01 749.77,-486.91 762.33,-488.7"/>
<polygon fill="#63b8ff" stroke="#63b8ff" points="761.7,-492.15 772.09,-490.1 762.69,-485.22 761.7,-492.15"/>
</a>
</g>
</g>
<!-- Node9 -->
<g id="Node000009" class="node">
<title>Node9</title>
<g id="a_Node000009"><a xlink:href="../../dc/d5d/a00278.html#aa0145c044cfdde3a1c83323410a59f25" target="_top" xlink:title="safer alternative to strncat">
<polygon fill="white" stroke="#666666" points="585,-163.38 519.5,-163.38 519.5,-142.62 585,-142.62 585,-163.38"/>
<text xml:space="preserve" text-anchor="middle" x="552.25" y="-149.88" font-family="Helvetica,sans-Serif" font-size="10.00">strnz__cat</text>
</a>
</g>
</g>
<!-- Node8&#45;&gt;Node9 -->
<g id="edge10_Node000008_Node000009" class="edge">
<title>Node8&#45;&gt;Node9</title>
<g id="a_edge10_Node000008_Node000009"><a xlink:title=" ">
<path fill="none" stroke="#63b8ff" d="M454.41,-257.15C459.84,-254.56 465.28,-251.5 470,-248 498.46,-226.89 523.67,-194.06 538.2,-173.05"/>
<polygon fill="#63b8ff" stroke="#63b8ff" points="540.91,-175.29 543.59,-165.04 535.1,-171.38 540.91,-175.29"/>
</a>
</g>
</g>
<!-- Node11&#45;&gt;Node4 -->
<g id="edge13_Node000011_Node000004" class="edge">
<title>Node11&#45;&gt;Node4</title>
<g id="a_edge13_Node000011_Node000004"><a xlink:title=" ">
<path fill="none" stroke="#63b8ff" d="M461.07,-459C478.91,-459 500.2,-459 517.62,-459"/>
<polygon fill="#63b8ff" stroke="#63b8ff" points="517.45,-462.5 527.45,-459 517.45,-455.5 517.45,-462.5"/>
</a>
</g>
</g>
<!-- Node12&#45;&gt;Node13 -->
<g id="edge15_Node000012_Node000013" class="edge">
<title>Node12&#45;&gt;Node13</title>
<g id="a_edge15_Node000012_Node000013"><a xlink:title=" ">
<path fill="none" stroke="#63b8ff" d="M440.26,-333.24C483,-304.28 600.76,-224.5 652.87,-189.2"/>
<polygon fill="#63b8ff" stroke="#63b8ff" points="654.81,-192.11 661.12,-183.6 650.88,-186.32 654.81,-192.11"/>
</a>
</g>
</g>
<!-- Node17&#45;&gt;Node15 -->
<g id="edge22_Node000017_Node000015" class="edge">
<title>Node17&#45;&gt;Node15</title>
<g id="a_edge22_Node000017_Node000015"><a xlink:title=" ">
<path fill="none" stroke="#63b8ff" d="M453.07,-541.76C468.7,-545.43 488.4,-550.01 506,-554 549.33,-563.82 598.88,-574.72 633.68,-582.31"/>
<polygon fill="#63b8ff" stroke="#63b8ff" points="632.89,-585.72 643.4,-584.44 634.38,-578.89 632.89,-585.72"/>
</a>
</g>
</g>
<!-- Node18 -->
<g id="Node000018" class="node">
<title>Node18</title>
<g id="a_Node000018"><a xlink:href="../../df/d95/a00299.html#ac9adcf7339be4a05ab1a7350c236b8a5" target="_top" xlink:title="Draw a box around the specified window.">
<polygon fill="white" stroke="#666666" points="571.88,-545.38 532.62,-545.38 532.62,-524.62 571.88,-524.62 571.88,-545.38"/>
<text xml:space="preserve" text-anchor="middle" x="552.25" y="-531.88" font-family="Helvetica,sans-Serif" font-size="10.00">cbox</text>
</a>
</g>
</g>
<!-- Node17&#45;&gt;Node18 -->
<g id="edge21_Node000017_Node000018" class="edge">
<title>Node17&#45;&gt;Node18</title>
<g id="a_edge21_Node000017_Node000018"><a xlink:title=" ">
<path fill="none" stroke="#63b8ff" d="M453.16,-535C473.46,-535 500.57,-535 521.15,-535"/>
<polygon fill="#63b8ff" stroke="#63b8ff" points="520.89,-538.5 530.89,-535 520.89,-531.5 520.89,-538.5"/>
</a>
</g>
</g>
<!-- Node19&#45;&gt;Node3 -->
<g id="edge24_Node000019_Node000003" class="edge">
<title>Node19&#45;&gt;Node3</title>
<g id="a_edge24_Node000019_Node000003"><a xlink:title=" ">
<path fill="none" stroke="#63b8ff" d="M394.51,-425.8C381.97,-426.62 366.77,-426.91 352.34,-426.67"/>
<polygon fill="#63b8ff" stroke="#63b8ff" points="352.6,-423.18 342.51,-426.41 352.41,-430.17 352.6,-423.18"/>
</a>
</g>
</g>
<!-- Node20 -->
<g id="Node000020" class="node">
<title>Node20</title>
<g id="a_Node000020"><a xlink:href="../../df/d95/a00299.html#a4298f891699300bfc4e6e56fd2a8d574" target="_top" xlink:title="Get keycode from chyron.">
<polygon fill="white" stroke="#666666" points="598.5,-391.38 506,-391.38 506,-370.62 598.5,-370.62 598.5,-391.38"/>
<text xml:space="preserve" text-anchor="middle" x="552.25" y="-377.88" font-family="Helvetica,sans-Serif" font-size="10.00">get_chyron_key</text>
</a>
</g>
</g>
<!-- Node19&#45;&gt;Node20 -->
<g id="edge25_Node000019_Node000020" class="edge">
<title>Node19&#45;&gt;Node20</title>
<g id="a_edge25_Node000019_Node000020"><a xlink:title=" ">
<path fill="none" stroke="#63b8ff" d="M452.22,-411.44C467.8,-406.65 487.63,-400.56 505.44,-395.08"/>
<polygon fill="#63b8ff" stroke="#63b8ff" points="506.23,-398.5 514.76,-392.22 504.18,-391.81 506.23,-398.5"/>
</a>
</g>
</g>
<!-- Node21 -->
<g id="Node000021" class="node">
<title>Node21</title>
<g id="a_Node000021"><a xlink:href="../../d1/da8/a00230.html#a79c3e22498eb2346543aa9c86fd22e58" target="_top" xlink:title="Handle received signals and prompt user for action.">
<polygon fill="white" stroke="#666666" points="594,-430.38 510.5,-430.38 510.5,-409.62 594,-409.62 594,-430.38"/>
<text xml:space="preserve" text-anchor="middle" x="552.25" y="-416.88" font-family="Helvetica,sans-Serif" font-size="10.00">handle_signal</text>
</a>
</g>
</g>
<!-- Node19&#45;&gt;Node21 -->
<g id="edge26_Node000019_Node000021" class="edge">
<title>Node19&#45;&gt;Node21</title>
<g id="a_edge26_Node000019_Node000021"><a xlink:title=" ">
<path fill="none" stroke="#63b8ff" d="M452.22,-420C465.95,-420 482.98,-420 499.02,-420"/>
<polygon fill="#63b8ff" stroke="#63b8ff" points="498.95,-423.5 508.95,-420 498.95,-416.5 498.95,-423.5"/>
</a>
</g>
</g>
<!-- Node21&#45;&gt;Node6 -->
<g id="edge27_Node000021_Node000006" class="edge">
<title>Node21&#45;&gt;Node6</title>
<g id="a_edge27_Node000021_Node000006"><a xlink:title=" ">
<path fill="none" stroke="#63b8ff" d="M594.39,-419.76C629.03,-419.9 679.85,-420.92 724,-425 731.97,-425.74 740.3,-426.73 748.54,-427.86"/>
<polygon fill="#63b8ff" stroke="#63b8ff" points="747.79,-431.29 758.19,-429.24 748.78,-424.36 747.79,-431.29"/>
</a>
</g>
</g>
<!-- Node21&#45;&gt;Node13 -->
<g id="edge28_Node000021_Node000013" class="edge">
<title>Node21&#45;&gt;Node13</title>
<g id="a_edge28_Node000021_Node000013"><a xlink:title=" ">
<path fill="none" stroke="#63b8ff" d="M586.52,-409.18C590.95,-406.69 595.12,-403.66 598.5,-400 654.17,-339.71 671.33,-238.37 676.33,-193.97"/>
<polygon fill="#63b8ff" stroke="#63b8ff" points="679.8,-194.38 677.32,-184.08 672.84,-193.68 679.8,-194.38"/>
</a>
</g>
</g>
<!-- Node21&#45;&gt;Node15 -->
<g id="edge29_Node000021_Node000015" class="edge">
<title>Node21&#45;&gt;Node15</title>
<g id="a_edge29_Node000021_Node000015"><a xlink:title=" ">
<path fill="none" stroke="#63b8ff" d="M585.12,-430.78C589.95,-433.31 594.61,-436.36 598.5,-440 619.22,-459.38 653.23,-534.01 669.3,-570.99"/>
<polygon fill="#63b8ff" stroke="#63b8ff" points="666.09,-572.36 673.25,-580.16 672.51,-569.59 666.09,-572.36"/>
</a>
</g>
</g>
<!-- Node22&#45;&gt;Node9 -->
<g id="edge44_Node000022_Node000009" class="edge">
<title>Node22&#45;&gt;Node9</title>
<g id="a_edge44_Node000022_Node000009"><a xlink:title=" ">
<path fill="none" stroke="#63b8ff" d="M202.6,-276.24C227.51,-248.52 298.87,-175.02 376.75,-149 419.67,-134.66 471.9,-138.41 507.97,-144.03"/>
<polygon fill="#63b8ff" stroke="#63b8ff" points="507.14,-147.44 517.59,-145.65 508.31,-140.54 507.14,-147.44"/>
</a>
</g>
</g>
<!-- Node22&#45;&gt;Node13 -->
<g id="edge43_Node000022_Node000013" class="edge">
<title>Node22&#45;&gt;Node13</title>
<g id="a_edge43_Node000022_Node000013"><a xlink:title=" ">
<path fill="none" stroke="#63b8ff" d="M196.34,-276.41C203.75,-252.72 224.65,-194.85 261,-161 302.27,-122.56 321.6,-120.82 376.75,-109 397.77,-104.5 590.16,-108.1 598.5,-111 623,-119.51 645.96,-138.73 660.9,-153.34"/>
<polygon fill="#63b8ff" stroke="#63b8ff" points="658.15,-155.54 667.65,-160.22 663.14,-150.63 658.15,-155.54"/>
</a>
</g>
</g>
<!-- Node22&#45;&gt;Node15 -->
<g id="edge45_Node000022_Node000015" class="edge">
<title>Node22&#45;&gt;Node15</title>
<g id="a_edge45_Node000022_Node000015"><a xlink:title=" ">
<path fill="none" stroke="#63b8ff" d="M195.2,-297.76C204.59,-346.12 250.09,-544.4 376.75,-622 460.91,-673.56 502.69,-657.69 598.5,-634 618.25,-629.12 638.5,-618.36 653.66,-608.96"/>
<polygon fill="#63b8ff" stroke="#63b8ff" points="655.5,-611.94 662,-603.58 651.7,-606.06 655.5,-611.94"/>
</a>
</g>
</g>
<!-- Node22&#45;&gt;Node22 -->
<g id="edge31_Node000022_Node000022" class="edge">
<title>Node22&#45;&gt;Node22</title>
<g id="a_edge31_Node000022_Node000022"><a xlink:title=" ">
<path fill="none" stroke="#63b8ff" d="M177.41,-297.77C171.47,-306.43 176.42,-315.38 192.25,-315.38 200.66,-315.38 206,-312.85 208.27,-309.19"/>
<polygon fill="#63b8ff" stroke="#63b8ff" points="211.75,-308.87 207.25,-299.28 204.79,-309.58 211.75,-308.87"/>
</a>
</g>
</g>
<!-- Node23 -->
<g id="Node000023" class="node">
<title>Node23</title>
<g id="a_Node000023"><a xlink:href="../../df/d95/a00299.html#a61b4f28456257f68ed042bed7f187efd" target="_top" xlink:title="Display a simple error message window or print to stderr.">
<polygon fill="white" stroke="#666666" points="323.5,-297.38 278.25,-297.38 278.25,-276.62 323.5,-276.62 323.5,-297.38"/>
<text xml:space="preserve" text-anchor="middle" x="300.88" y="-283.88" font-family="Helvetica,sans-Serif" font-size="10.00">Perror</text>
</a>
</g>
</g>
<!-- Node22&#45;&gt;Node23 -->
<g id="edge32_Node000022_Node000023" class="edge">
<title>Node22&#45;&gt;Node23</title>
<g id="a_edge32_Node000022_Node000023"><a xlink:title=" ">
<path fill="none" stroke="#63b8ff" d="M225.24,-287C238.3,-287 253.4,-287 266.58,-287"/>
<polygon fill="#63b8ff" stroke="#63b8ff" points="266.53,-290.5 276.53,-287 266.53,-283.5 266.53,-290.5"/>
</a>
</g>
</g>
<!-- Node23&#45;&gt;Node4 -->
<g id="edge33_Node000023_Node000004" class="edge">
<title>Node23&#45;&gt;Node4</title>
<g id="a_edge33_Node000023_Node000004"><a xlink:title=" ">
<path fill="none" stroke="#63b8ff" d="M304.9,-276.43C312.41,-252.41 334.44,-194.05 376.75,-171 413.14,-151.17 438.8,-143.71 470,-171 560.46,-250.12 433.84,-342.9 506,-439 509.31,-443.4 513.8,-446.86 518.67,-449.56"/>
<polygon fill="#63b8ff" stroke="#63b8ff" points="517.01,-452.65 527.57,-453.5 519.84,-446.25 517.01,-452.65"/>
</a>
</g>
</g>
<!-- Node23&#45;&gt;Node8 -->
<g id="edge34_Node000023_Node000008" class="edge">
<title>Node23&#45;&gt;Node8</title>
<g id="a_edge34_Node000023_Node000008"><a xlink:title=" ">
<path fill="none" stroke="#63b8ff" d="M323.98,-283.52C335.67,-281.67 350.62,-279.31 365.32,-277"/>
<polygon fill="#63b8ff" stroke="#63b8ff" points="365.63,-280.49 374.96,-275.48 364.54,-273.58 365.63,-280.49"/>
</a>
</g>
</g>
<!-- Node23&#45;&gt;Node10 -->
<g id="edge35_Node000023_Node000010" class="edge">
<title>Node23&#45;&gt;Node10</title>
<g id="a_edge35_Node000023_Node000010"><a xlink:title=" ">
<path fill="none" stroke="#63b8ff" d="M322.38,-276.2C337.34,-268.42 358.17,-257.78 376.75,-249 380.03,-247.45 383.47,-245.87 386.92,-244.31"/>
<polygon fill="#63b8ff" stroke="#63b8ff" points="388.06,-247.63 395.78,-240.37 385.22,-241.23 388.06,-247.63"/>
</a>
</g>
</g>
<!-- Node23&#45;&gt;Node11 -->
<g id="edge36_Node000023_Node000011" class="edge">
<title>Node23&#45;&gt;Node11</title>
<g id="a_edge36_Node000023_Node000011"><a xlink:title=" ">
<path fill="none" stroke="#63b8ff" d="M304.42,-297.73C311.37,-324.92 333.17,-397.32 376.75,-439 377.96,-440.16 379.25,-441.26 380.6,-442.29"/>
<polygon fill="#63b8ff" stroke="#63b8ff" points="378.56,-445.14 388.88,-447.53 382.3,-439.23 378.56,-445.14"/>
</a>
</g>
</g>
<!-- Node23&#45;&gt;Node12 -->
<g id="edge37_Node000023_Node000012" class="edge">
<title>Node23&#45;&gt;Node12</title>
<g id="a_edge37_Node000023_Node000012"><a xlink:title=" ">
<path fill="none" stroke="#63b8ff" d="M323.98,-297.45C342.26,-306.1 368.51,-318.52 389.29,-328.35"/>
<polygon fill="#63b8ff" stroke="#63b8ff" points="387.69,-331.46 398.23,-332.58 390.68,-325.14 387.69,-331.46"/>
</a>
</g>
</g>
<!-- Node23&#45;&gt;Node13 -->
<g id="edge38_Node000023_Node000013" class="edge">
<title>Node23&#45;&gt;Node13</title>
<g id="a_edge38_Node000023_Node000013"><a xlink:title=" ">
<path fill="none" stroke="#63b8ff" d="M304.09,-276.48C310.29,-249.96 330.46,-180.3 376.75,-149 458.58,-93.66 502.15,-112.22 598.5,-134 617.22,-138.23 636.69,-147.4 651.71,-155.68"/>
<polygon fill="#63b8ff" stroke="#63b8ff" points="649.6,-158.5 660.02,-160.44 653.08,-152.43 649.6,-158.5"/>
</a>
</g>
</g>
<!-- Node23&#45;&gt;Node15 -->
<g id="edge39_Node000023_Node000015" class="edge">
<title>Node23&#45;&gt;Node15</title>
<g id="a_edge39_Node000023_Node000015"><a xlink:title=" ">
<path fill="none" stroke="#63b8ff" d="M323.68,-289.08C364.35,-293.4 449.49,-304.67 470,-325 519.61,-374.18 460.67,-424.84 506,-478 534.84,-511.82 561.22,-491.81 598.5,-516 623.14,-531.99 646.91,-556.14 662,-572.91"/>
<polygon fill="#63b8ff" stroke="#63b8ff" points="659.2,-575.03 668.43,-580.23 664.46,-570.41 659.2,-575.03"/>
</a>
</g>
</g>
<!-- Node23&#45;&gt;Node16 -->
<g id="edge40_Node000023_Node000016" class="edge">
<title>Node23&#45;&gt;Node16</title>
<g id="a_edge40_Node000023_Node000016"><a xlink:title=" ">
<path fill="none" stroke="#63b8ff" d="M310.04,-276.27C322.78,-260.1 348.86,-229.34 376.75,-210 379.74,-207.93 382.97,-206 386.29,-204.22"/>
<polygon fill="#63b8ff" stroke="#63b8ff" points="387.51,-207.52 394.99,-200.01 384.46,-201.22 387.51,-207.52"/>
</a>
</g>
</g>
<!-- Node23&#45;&gt;Node17 -->
<g id="edge41_Node000023_Node000017" class="edge">
<title>Node23&#45;&gt;Node17</title>
<g id="a_edge41_Node000023_Node000017"><a xlink:title=" ">
<path fill="none" stroke="#63b8ff" d="M305.55,-297.58C317.8,-332.66 357.58,-444.86 376.75,-478 384.6,-491.58 395.52,-505.35 404.71,-515.95"/>
<polygon fill="#63b8ff" stroke="#63b8ff" points="401.95,-518.11 411.21,-523.24 407.17,-513.45 401.95,-518.11"/>
</a>
</g>
</g>
<!-- Node23&#45;&gt;Node19 -->
<g id="edge42_Node000023_Node000019" class="edge">
<title>Node23&#45;&gt;Node19</title>
<g id="a_edge42_Node000023_Node000019"><a xlink:title=" ">
<path fill="none" stroke="#63b8ff" d="M311.33,-297.44C331.56,-319.76 379.27,-372.43 405.08,-400.91"/>
<polygon fill="#63b8ff" stroke="#63b8ff" points="402.3,-403.06 411.61,-408.12 407.49,-398.36 402.3,-403.06"/>
</a>
</g>
</g>
</g>
</svg>
