<?xml version="1.0" encoding="UTF-8" standalone="no"?>
<!DOCTYPE svg PUBLIC "-//W3C//DTD SVG 1.1//EN"
 "http://www.w3.org/Graphics/SVG/1.1/DTD/svg11.dtd">
<!-- Generated by graphviz version 14.1.2 (0)
 -->
<!-- Title: display_curses_keys Pages: 1 -->
<svg width="930pt" height="578pt"
 viewBox="0.00 0.00 930.00 578.00" xmlns="http://www.w3.org/2000/svg" xmlns:xlink="http://www.w3.org/1999/xlink">
<g id="graph0" class="graph" transform="scale(1 1) rotate(0) translate(4 574)">
<title>display_curses_keys</title>
<!-- Node1 -->
<g id="Node000001" class="node">
<title>Node1</title>
<g id="a_Node000001"><a xlink:title="Display Curses Keys Responds to curses keys and mouse events, displaying the key code and description...">
<polygon fill="#999999" stroke="#666666" points="115.75,-200.38 0,-200.38 0,-179.62 115.75,-179.62 115.75,-200.38"/>
<text xml:space="preserve" text-anchor="middle" x="57.88" y="-186.88" font-family="Helvetica,sans-Serif" font-size="10.00">display_curses_keys</text>
</a>
</g>
</g>
<!-- Node2 -->
<g id="Node000002" class="node">
<title>Node2</title>
<g id="a_Node000002"><a xlink:href="../../d6/d82/a00293.html#a61b4f28456257f68ed042bed7f187efd" target="_top" xlink:title="Display a simple error message window or print to stderr.">
<polygon fill="white" stroke="#666666" points="197,-276.38 151.75,-276.38 151.75,-255.62 197,-255.62 197,-276.38"/>
<text xml:space="preserve" text-anchor="middle" x="174.38" y="-262.88" font-family="Helvetica,sans-Serif" font-size="10.00">Perror</text>
</a>
</g>
</g>
<!-- Node1&#45;&gt;Node2 -->
<g id="edge1_Node000001_Node000002" class="edge">
<title>Node1&#45;&gt;Node2</title>
<g id="a_edge1_Node000001_Node000002"><a xlink:title=" ">
<path fill="none" stroke="#63b8ff" d="M74.8,-200.57C93.66,-213.09 125.34,-234.12 147.69,-248.95"/>
<polygon fill="#63b8ff" stroke="#63b8ff" points="145.69,-251.83 155.96,-254.44 149.56,-245.99 145.69,-251.83"/>
</a>
</g>
</g>
<!-- Node8 -->
<g id="Node000008" class="node">
<title>Node8</title>
<g id="a_Node000008"><a xlink:href="../../d6/d7f/a00287.html#aa0145c044cfdde3a1c83323410a59f25" target="_top" xlink:title="safer alternative to strncat">
<polygon fill="white" stroke="#666666" points="650.62,-561.38 585.12,-561.38 585.12,-540.62 650.62,-540.62 650.62,-561.38"/>
<text xml:space="preserve" text-anchor="middle" x="617.88" y="-547.88" font-family="Helvetica,sans-Serif" font-size="10.00">strnz__cat</text>
</a>
</g>
</g>
<!-- Node1&#45;&gt;Node8 -->
<g id="edge34_Node000001_Node000008" class="edge">
<title>Node1&#45;&gt;Node8</title>
<g id="a_edge34_Node000001_Node000008"><a xlink:title=" ">
<path fill="none" stroke="#63b8ff" d="M59.36,-200.56C62.77,-261.93 88.46,-570 260.62,-570 260.62,-570 260.62,-570 373.5,-570 443.58,-570 524.68,-562.07 573.31,-556.46"/>
<polygon fill="#63b8ff" stroke="#63b8ff" points="573.63,-559.95 583.15,-555.3 572.81,-552.99 573.63,-559.95"/>
</a>
</g>
</g>
<!-- Node13 -->
<g id="Node000013" class="node">
<title>Node13</title>
<g id="a_Node000013"><a xlink:href="../../d6/d7f/a00287.html#a0de2e40df9bd7efc8fd9afb8ad2257e6" target="_top" xlink:title="safer alternative to strncpy">
<polygon fill="white" stroke="#666666" points="651.75,-152.38 584,-152.38 584,-131.62 651.75,-131.62 651.75,-152.38"/>
<text xml:space="preserve" text-anchor="middle" x="617.88" y="-138.88" font-family="Helvetica,sans-Serif" font-size="10.00">strnz__cpy</text>
</a>
</g>
</g>
<!-- Node1&#45;&gt;Node13 -->
<g id="edge35_Node000001_Node000013" class="edge">
<title>Node1&#45;&gt;Node13</title>
<g id="a_edge35_Node000001_Node000013"><a xlink:title=" ">
<path fill="none" stroke="#63b8ff" d="M63.7,-179.24C82.52,-139.05 155.26,0 260.62,0 260.62,0 260.62,0 373.5,0 456.42,0 479.47,-19.31 548,-66 554.19,-70.21 581.95,-101.67 600.29,-122.77"/>
<polygon fill="#63b8ff" stroke="#63b8ff" points="597.52,-124.93 606.71,-130.19 602.81,-120.34 597.52,-124.93"/>
</a>
</g>
</g>
<!-- Node14 -->
<g id="Node000014" class="node">
<title>Node14</title>
<g id="a_Node000014"><a xlink:href="../../d6/d82/a00293.html#a9dd598e1d49c8764af1eec42c682623e" target="_top" xlink:title="Delete the current window and its associated box window.">
<polygon fill="white" stroke="#666666" points="528.12,-199.38 474.62,-199.38 474.62,-178.62 528.12,-178.62 528.12,-199.38"/>
<text xml:space="preserve" text-anchor="middle" x="501.38" y="-185.88" font-family="Helvetica,sans-Serif" font-size="10.00">win_del</text>
</a>
</g>
</g>
<!-- Node1&#45;&gt;Node14 -->
<g id="edge36_Node000001_Node000014" class="edge">
<title>Node1&#45;&gt;Node14</title>
<g id="a_edge36_Node000001_Node000014"><a xlink:title=" ">
<path fill="none" stroke="#63b8ff" d="M115.95,-185.51C186.95,-180.59 311.88,-174.13 418.75,-180 433.32,-180.8 449.28,-182.4 463.2,-184.03"/>
<polygon fill="#63b8ff" stroke="#63b8ff" points="462.48,-187.47 472.83,-185.21 463.33,-180.52 462.48,-187.47"/>
</a>
</g>
</g>
<!-- Node15 -->
<g id="Node000015" class="node">
<title>Node15</title>
<g id="a_Node000015"><a xlink:href="../../d6/d82/a00293.html#a435c7bff7ffedb8f51c6de9259e36f6c" target="_top" xlink:title="Create a new window with optional box and title.">
<polygon fill="white" stroke="#666666" points="530.75,-95.38 472,-95.38 472,-74.62 530.75,-74.62 530.75,-95.38"/>
<text xml:space="preserve" text-anchor="middle" x="501.38" y="-81.88" font-family="Helvetica,sans-Serif" font-size="10.00">win_new</text>
</a>
</g>
</g>
<!-- Node1&#45;&gt;Node15 -->
<g id="edge37_Node000001_Node000015" class="edge">
<title>Node1&#45;&gt;Node15</title>
<g id="a_edge37_Node000001_Node000015"><a xlink:title=" ">
<path fill="none" stroke="#63b8ff" d="M75.49,-179.3C116.18,-153.95 224.96,-91.34 326.25,-78 371.93,-71.98 424.88,-75.6 460.28,-79.52"/>
<polygon fill="#63b8ff" stroke="#63b8ff" points="459.74,-82.98 470.08,-80.67 460.56,-76.03 459.74,-82.98"/>
</a>
</g>
</g>
<!-- Node17 -->
<g id="Node000017" class="node">
<title>Node17</title>
<g id="a_Node000017"><a xlink:href="../../d6/d82/a00293.html#acf4c709bccc4c965a5d61db978db31a3" target="_top" xlink:title="Wrapper for wgetch that handles signals and mouse events.">
<polygon fill="white" stroke="#666666" points="290.25,-352.38 233,-352.38 233,-331.62 290.25,-331.62 290.25,-352.38"/>
<text xml:space="preserve" text-anchor="middle" x="261.62" y="-338.88" font-family="Helvetica,sans-Serif" font-size="10.00">xwgetch</text>
</a>
</g>
</g>
<!-- Node1&#45;&gt;Node17 -->
<g id="edge38_Node000001_Node000017" class="edge">
<title>Node1&#45;&gt;Node17</title>
<g id="a_edge38_Node000001_Node000017"><a xlink:title=" ">
<path fill="none" stroke="#63b8ff" d="M67.44,-200.77C82.82,-219.6 116.77,-258.98 151.75,-285 174.26,-301.74 202.37,-316.32 224.39,-326.55"/>
<polygon fill="#63b8ff" stroke="#63b8ff" points="222.72,-329.63 233.28,-330.58 225.61,-323.26 222.72,-329.63"/>
</a>
</g>
</g>
<!-- Node3 -->
<g id="Node000003" class="node">
<title>Node3</title>
<g id="a_Node000003"><a xlink:href="../../d6/d82/a00293.html#a8f6c45ca4a7f6a41c4c88314e697565a" target="_top" xlink:title="Abnormal program termination.">
<polygon fill="white" stroke="#666666" points="640.88,-314.38 594.88,-314.38 594.88,-293.62 640.88,-293.62 640.88,-314.38"/>
<text xml:space="preserve" text-anchor="middle" x="617.88" y="-300.88" font-family="Helvetica,sans-Serif" font-size="10.00">abend</text>
</a>
</g>
</g>
<!-- Node2&#45;&gt;Node3 -->
<g id="edge2_Node000002_Node000003" class="edge">
<title>Node2&#45;&gt;Node3</title>
<g id="a_edge2_Node000002_Node000003"><a xlink:title=" ">
<path fill="none" stroke="#63b8ff" d="M197.26,-259.03C256.14,-241.48 422.02,-200.02 548,-246 569.2,-253.74 588.4,-271.2 601.1,-284.95"/>
<polygon fill="#63b8ff" stroke="#63b8ff" points="598.23,-286.99 607.47,-292.18 603.49,-282.36 598.23,-286.99"/>
</a>
</g>
</g>
<!-- Node7 -->
<g id="Node000007" class="node">
<title>Node7</title>
<g id="a_Node000007"><a xlink:href="../../d6/d82/a00293.html#a645871e46277e31736bc36d0f3dce4bd" target="_top" xlink:title="construct the chyron string from the chyron structure">
<polygon fill="white" stroke="#666666" points="548,-542.38 454.75,-542.38 454.75,-521.62 548,-521.62 548,-542.38"/>
<text xml:space="preserve" text-anchor="middle" x="501.38" y="-528.88" font-family="Helvetica,sans-Serif" font-size="10.00">compile_chyron</text>
</a>
</g>
</g>
<!-- Node2&#45;&gt;Node7 -->
<g id="edge8_Node000002_Node000007" class="edge">
<title>Node2&#45;&gt;Node7</title>
<g id="a_edge8_Node000002_Node000007"><a xlink:title=" ">
<path fill="none" stroke="#63b8ff" d="M176.31,-276.87C180.26,-319.82 196.99,-476.84 233,-508 290.53,-557.78 383.4,-553.83 443.15,-544.44"/>
<polygon fill="#63b8ff" stroke="#63b8ff" points="443.5,-547.93 452.78,-542.82 442.34,-541.03 443.5,-547.93"/>
</a>
</g>
</g>
<!-- Node9 -->
<g id="Node000009" class="node">
<title>Node9</title>
<g id="a_Node000009"><a xlink:href="../../d6/d82/a00293.html#a3f3feb40fd703913c5c136331f627c91" target="_top" xlink:title="Destroy Chyron structure.">
<polygon fill="white" stroke="#666666" points="546.88,-275.38 455.88,-275.38 455.88,-254.62 546.88,-254.62 546.88,-275.38"/>
<text xml:space="preserve" text-anchor="middle" x="501.38" y="-261.88" font-family="Helvetica,sans-Serif" font-size="10.00">destroy_chyron</text>
</a>
</g>
</g>
<!-- Node2&#45;&gt;Node9 -->
<g id="edge10_Node000002_Node000009" class="edge">
<title>Node2&#45;&gt;Node9</title>
<g id="a_edge10_Node000002_Node000009"><a xlink:title=" ">
<path fill="none" stroke="#63b8ff" d="M197.46,-265.93C247.64,-265.78 371.51,-265.4 444.36,-265.17"/>
<polygon fill="#63b8ff" stroke="#63b8ff" points="444.09,-268.67 454.08,-265.14 444.07,-261.67 444.09,-268.67"/>
</a>
</g>
</g>
<!-- Node10 -->
<g id="Node000010" class="node">
<title>Node10</title>
<g id="a_Node000010"><a xlink:href="../../d6/d82/a00293.html#ad37d5808ff30ae6894780425d865abae" target="_top" xlink:title="Create and initialize Chyron structure.">
<polygon fill="white" stroke="#666666" points="538.62,-314.38 464.12,-314.38 464.12,-293.62 538.62,-293.62 538.62,-314.38"/>
<text xml:space="preserve" text-anchor="middle" x="501.38" y="-300.88" font-family="Helvetica,sans-Serif" font-size="10.00">new_chyron</text>
</a>
</g>
</g>
<!-- Node2&#45;&gt;Node10 -->
<g id="edge11_Node000002_Node000010" class="edge">
<title>Node2&#45;&gt;Node10</title>
<g id="a_edge11_Node000002_Node000010"><a xlink:title=" ">
<path fill="none" stroke="#63b8ff" d="M197.38,-272.16C208.06,-274.94 221.12,-278.03 233,-280 309.25,-292.61 398.91,-298.96 452.61,-301.86"/>
<polygon fill="#63b8ff" stroke="#63b8ff" points="452.15,-305.34 462.32,-302.37 452.51,-298.35 452.15,-305.34"/>
</a>
</g>
</g>
<!-- Node11 -->
<g id="Node000011" class="node">
<title>Node11</title>
<g id="a_Node000011"><a xlink:href="../../d6/d82/a00293.html#a208ce92c197fdd6d2b007987e534aa3b" target="_top" xlink:title="Set chyron key.">
<polygon fill="white" stroke="#666666" points="547.25,-466.38 455.5,-466.38 455.5,-445.62 547.25,-445.62 547.25,-466.38"/>
<text xml:space="preserve" text-anchor="middle" x="501.38" y="-452.88" font-family="Helvetica,sans-Serif" font-size="10.00">set_chyron_key</text>
</a>
</g>
</g>
<!-- Node2&#45;&gt;Node11 -->
<g id="edge13_Node000002_Node000011" class="edge">
<title>Node2&#45;&gt;Node11</title>
<g id="a_edge13_Node000002_Node000011"><a xlink:title=" ">
<path fill="none" stroke="#63b8ff" d="M179.23,-276.61C186.74,-295.91 205.08,-336.96 233,-361 293.72,-413.28 385.22,-437.48 443.87,-448.17"/>
<polygon fill="#63b8ff" stroke="#63b8ff" points="443.2,-451.61 453.66,-449.88 444.41,-444.71 443.2,-451.61"/>
</a>
</g>
</g>
<!-- Node12 -->
<g id="Node000012" class="node">
<title>Node12</title>
<g id="a_Node000012"><a xlink:href="../../d6/d7f/a00287.html#a63eb94756fb011a456a3dec900709cd8" target="_top" xlink:title="ssnprintf was designed to be a safer alternative to snprintf.">
<polygon fill="white" stroke="#666666" points="647.25,-466.38 588.5,-466.38 588.5,-445.62 647.25,-445.62 647.25,-466.38"/>
<text xml:space="preserve" text-anchor="middle" x="617.88" y="-452.88" font-family="Helvetica,sans-Serif" font-size="10.00">ssnprintf</text>
</a>
</g>
</g>
<!-- Node2&#45;&gt;Node12 -->
<g id="edge15_Node000002_Node000012" class="edge">
<title>Node2&#45;&gt;Node12</title>
<g id="a_edge15_Node000002_Node000012"><a xlink:title=" ">
<path fill="none" stroke="#63b8ff" d="M177.78,-276.85C183.52,-300.59 200.08,-357.82 233,-393 265.13,-427.34 282.37,-426.08 326.25,-443 419.16,-478.83 449.32,-488.36 548,-475 557.53,-473.71 567.59,-471.46 577.01,-468.95"/>
<polygon fill="#63b8ff" stroke="#63b8ff" points="577.96,-472.32 586.62,-466.22 576.05,-465.58 577.96,-472.32"/>
</a>
</g>
</g>
<!-- Node2&#45;&gt;Node13 -->
<g id="edge16_Node000002_Node000013" class="edge">
<title>Node2&#45;&gt;Node13</title>
<g id="a_edge16_Node000002_Node000013"><a xlink:title=" ">
<path fill="none" stroke="#63b8ff" d="M180.31,-255.26C188.6,-238.59 206.99,-206.87 233,-192 342.24,-129.55 497.03,-131.7 572.31,-137.37"/>
<polygon fill="#63b8ff" stroke="#63b8ff" points="571.93,-140.85 582.18,-138.17 572.5,-133.87 571.93,-140.85"/>
</a>
</g>
</g>
<!-- Node2&#45;&gt;Node14 -->
<g id="edge17_Node000002_Node000014" class="edge">
<title>Node2&#45;&gt;Node14</title>
<g id="a_edge17_Node000002_Node000014"><a xlink:title=" ">
<path fill="none" stroke="#63b8ff" d="M183.41,-255.46C193.5,-243.12 212.02,-223.21 233,-214 309.4,-180.46 409.65,-181.6 463.07,-185.32"/>
<polygon fill="#63b8ff" stroke="#63b8ff" points="462.6,-188.79 472.84,-186.08 463.14,-181.81 462.6,-188.79"/>
</a>
</g>
</g>
<!-- Node2&#45;&gt;Node15 -->
<g id="edge18_Node000002_Node000015" class="edge">
<title>Node2&#45;&gt;Node15</title>
<g id="a_edge18_Node000002_Node000015"><a xlink:title=" ">
<path fill="none" stroke="#63b8ff" d="M176.84,-255.41C180.87,-230.62 194.47,-168.64 233,-138 299.22,-85.35 403.35,-80.39 460.15,-82.19"/>
<polygon fill="#63b8ff" stroke="#63b8ff" points="459.87,-85.68 470.01,-82.59 460.16,-78.68 459.87,-85.68"/>
</a>
</g>
</g>
<!-- Node2&#45;&gt;Node17 -->
<g id="edge21_Node000002_Node000017" class="edge">
<title>Node2&#45;&gt;Node17</title>
<g id="a_edge21_Node000002_Node000017"><a xlink:title=" ">
<path fill="none" stroke="#63b8ff" d="M187.24,-276.82C198.85,-287.39 217.06,-303.89 233,-318 235.16,-319.92 237.43,-321.91 239.7,-323.89"/>
<polygon fill="#63b8ff" stroke="#63b8ff" points="237.22,-326.38 247.06,-330.3 241.82,-321.1 237.22,-326.38"/>
</a>
</g>
</g>
<!-- Node4 -->
<g id="Node000004" class="node">
<title>Node4</title>
<g id="a_Node000004"><a xlink:href="../../d6/d82/a00293.html#afc0985a403e3eac0b2cd8f0fab500256" target="_top" xlink:title="Gracefully shut down NCurses and restore terminal settings.">
<polygon fill="white" stroke="#666666" points="777.25,-314.38 687.75,-314.38 687.75,-293.62 777.25,-293.62 777.25,-314.38"/>
<text xml:space="preserve" text-anchor="middle" x="732.5" y="-300.88" font-family="Helvetica,sans-Serif" font-size="10.00">destroy_curses</text>
</a>
</g>
</g>
<!-- Node3&#45;&gt;Node4 -->
<g id="edge3_Node000003_Node000004" class="edge">
<title>Node3&#45;&gt;Node4</title>
<g id="a_edge3_Node000003_Node000004"><a xlink:title=" ">
<path fill="none" stroke="#63b8ff" d="M641.13,-304C651.24,-304 663.69,-304 676.09,-304"/>
<polygon fill="#63b8ff" stroke="#63b8ff" points="675.88,-307.5 685.88,-304 675.88,-300.5 675.88,-307.5"/>
</a>
</g>
</g>
<!-- Node5 -->
<g id="Node000005" class="node">
<title>Node5</title>
<g id="a_Node000005"><a xlink:href="../../df/d95/a00299.html#ac5e3adb304b78910fc77761ef6a743f0" target="_top" xlink:title="restore_shell_tioctl() &#45; restore shell terminal settings">
<polygon fill="white" stroke="#666666" points="922.25,-342.38 813.25,-342.38 813.25,-321.62 922.25,-321.62 922.25,-342.38"/>
<text xml:space="preserve" text-anchor="middle" x="867.75" y="-328.88" font-family="Helvetica,sans-Serif" font-size="10.00">restore_shell_tioctl</text>
</a>
</g>
</g>
<!-- Node3&#45;&gt;Node5 -->
<g id="edge6_Node000003_Node000005" class="edge">
<title>Node3&#45;&gt;Node5</title>
<g id="a_edge6_Node000003_Node000005"><a xlink:title=" ">
<path fill="none" stroke="#63b8ff" d="M641.25,-311.51C654.59,-315.65 671.95,-320.46 687.75,-323 725.15,-329.02 767.46,-331.35 801.55,-332.14"/>
<polygon fill="#63b8ff" stroke="#63b8ff" points="801.2,-335.63 811.26,-332.32 801.33,-328.64 801.2,-335.63"/>
</a>
</g>
</g>
<!-- Node6 -->
<g id="Node000006" class="node">
<title>Node6</title>
<g id="a_Node000006"><a xlink:href="../../d3/d1a/a00251.html#a06c1eb6cf3649dc187115565409f91af" target="_top" xlink:title="Set signal handlers to default behavior.">
<polygon fill="white" stroke="#666666" points="908.38,-294.38 827.12,-294.38 827.12,-273.62 908.38,-273.62 908.38,-294.38"/>
<text xml:space="preserve" text-anchor="middle" x="867.75" y="-280.88" font-family="Helvetica,sans-Serif" font-size="10.00">sig_dfl_mode</text>
</a>
</g>
</g>
<!-- Node3&#45;&gt;Node6 -->
<g id="edge7_Node000003_Node000006" class="edge">
<title>Node3&#45;&gt;Node6</title>
<g id="a_edge7_Node000003_Node000006"><a xlink:title=" ">
<path fill="none" stroke="#63b8ff" d="M641.21,-296.23C654.53,-292 671.9,-287.19 687.75,-285 730.53,-279.09 779.61,-279.3 815.54,-280.73"/>
<polygon fill="#63b8ff" stroke="#63b8ff" points="815.06,-284.21 825.21,-281.16 815.38,-277.22 815.06,-284.21"/>
</a>
</g>
</g>
<!-- Node4&#45;&gt;Node5 -->
<g id="edge4_Node000004_Node000005" class="edge">
<title>Node4&#45;&gt;Node5</title>
<g id="a_edge4_Node000004_Node000005"><a xlink:title=" ">
<path fill="none" stroke="#63b8ff" d="M777.5,-313.25C786.12,-315.06 795.32,-316.99 804.41,-318.9"/>
<polygon fill="#63b8ff" stroke="#63b8ff" points="803.41,-322.27 813.92,-320.9 804.85,-315.42 803.41,-322.27"/>
</a>
</g>
</g>
<!-- Node4&#45;&gt;Node6 -->
<g id="edge5_Node000004_Node000006" class="edge">
<title>Node4&#45;&gt;Node6</title>
<g id="a_edge5_Node000004_Node000006"><a xlink:title=" ">
<path fill="none" stroke="#63b8ff" d="M777.5,-297.4C789.69,-295.57 803.02,-293.57 815.58,-291.68"/>
<polygon fill="#63b8ff" stroke="#63b8ff" points="815.98,-295.16 825.35,-290.21 814.94,-288.24 815.98,-295.16"/>
</a>
</g>
</g>
<!-- Node7&#45;&gt;Node8 -->
<g id="edge9_Node000007_Node000008" class="edge">
<title>Node7&#45;&gt;Node8</title>
<g id="a_edge9_Node000007_Node000008"><a xlink:title=" ">
<path fill="none" stroke="#63b8ff" d="M548.29,-539.62C556.58,-540.99 565.19,-542.42 573.41,-543.79"/>
<polygon fill="#63b8ff" stroke="#63b8ff" points="572.75,-547.23 583.19,-545.41 573.9,-540.32 572.75,-547.23"/>
</a>
</g>
</g>
<!-- Node10&#45;&gt;Node3 -->
<g id="edge12_Node000010_Node000003" class="edge">
<title>Node10&#45;&gt;Node3</title>
<g id="a_edge12_Node000010_Node000003"><a xlink:title=" ">
<path fill="none" stroke="#63b8ff" d="M538.92,-304C553.24,-304 569.55,-304 583.54,-304"/>
<polygon fill="#63b8ff" stroke="#63b8ff" points="583.14,-307.5 593.14,-304 583.14,-300.5 583.14,-307.5"/>
</a>
</g>
</g>
<!-- Node11&#45;&gt;Node12 -->
<g id="edge14_Node000011_Node000012" class="edge">
<title>Node11&#45;&gt;Node12</title>
<g id="a_edge14_Node000011_Node000012"><a xlink:title=" ">
<path fill="none" stroke="#63b8ff" d="M547.63,-456C557.21,-456 567.26,-456 576.64,-456"/>
<polygon fill="#63b8ff" stroke="#63b8ff" points="576.57,-459.5 586.57,-456 576.57,-452.5 576.57,-459.5"/>
</a>
</g>
</g>
<!-- Node15&#45;&gt;Node13 -->
<g id="edge20_Node000015_Node000013" class="edge">
<title>Node15&#45;&gt;Node13</title>
<g id="a_edge20_Node000015_Node000013"><a xlink:title=" ">
<path fill="none" stroke="#63b8ff" d="M524.18,-95.86C541.37,-104.41 565.59,-116.47 584.96,-126.11"/>
<polygon fill="#63b8ff" stroke="#63b8ff" points="583.28,-129.19 593.8,-130.51 586.4,-122.92 583.28,-129.19"/>
</a>
</g>
</g>
<!-- Node16 -->
<g id="Node000016" class="node">
<title>Node16</title>
<g id="a_Node000016"><a xlink:href="../../d6/d82/a00293.html#ac9adcf7339be4a05ab1a7350c236b8a5" target="_top" xlink:title="Draw a box around the specified window.">
<polygon fill="white" stroke="#666666" points="637.5,-95.38 598.25,-95.38 598.25,-74.62 637.5,-74.62 637.5,-95.38"/>
<text xml:space="preserve" text-anchor="middle" x="617.88" y="-81.88" font-family="Helvetica,sans-Serif" font-size="10.00">cbox</text>
</a>
</g>
</g>
<!-- Node15&#45;&gt;Node16 -->
<g id="edge19_Node000015_Node000016" class="edge">
<title>Node15&#45;&gt;Node16</title>
<g id="a_edge19_Node000015_Node000016"><a xlink:title=" ">
<path fill="none" stroke="#63b8ff" d="M530.97,-85C547.9,-85 569.32,-85 586.54,-85"/>
<polygon fill="#63b8ff" stroke="#63b8ff" points="586.44,-88.5 596.44,-85 586.44,-81.5 586.44,-88.5"/>
</a>
</g>
</g>
<!-- Node18 -->
<g id="Node000018" class="node">
<title>Node18</title>
<g id="a_Node000018"><a xlink:href="../../d6/d82/a00293.html#a67659f8a701b74f4dec0d36227a10d1c" target="_top" xlink:title="Display an error message window or print to stderr.">
<polygon fill="white" stroke="#666666" points="412.38,-352.38 332.62,-352.38 332.62,-331.62 412.38,-331.62 412.38,-352.38"/>
<text xml:space="preserve" text-anchor="middle" x="372.5" y="-338.88" font-family="Helvetica,sans-Serif" font-size="10.00">display_error</text>
</a>
</g>
</g>
<!-- Node17&#45;&gt;Node18 -->
<g id="edge22_Node000017_Node000018" class="edge">
<title>Node17&#45;&gt;Node18</title>
<g id="a_edge22_Node000017_Node000018"><a xlink:title=" ">
<path fill="none" stroke="#63b8ff" d="M290.66,-336.01C300.01,-335.43 310.73,-335.18 321.23,-335.27"/>
<polygon fill="#63b8ff" stroke="#63b8ff" points="320.9,-338.76 330.97,-335.47 321.04,-331.76 320.9,-338.76"/>
</a>
</g>
</g>
<!-- Node19 -->
<g id="Node000019" class="node">
<title>Node19</title>
<g id="a_Node000019"><a xlink:href="../../d6/d82/a00293.html#a4298f891699300bfc4e6e56fd2a8d574" target="_top" xlink:title="Get keycode from chyron.">
<polygon fill="white" stroke="#666666" points="418.75,-391.38 326.25,-391.38 326.25,-370.62 418.75,-370.62 418.75,-391.38"/>
<text xml:space="preserve" text-anchor="middle" x="372.5" y="-377.88" font-family="Helvetica,sans-Serif" font-size="10.00">get_chyron_key</text>
</a>
</g>
</g>
<!-- Node17&#45;&gt;Node19 -->
<g id="edge33_Node000017_Node000019" class="edge">
<title>Node17&#45;&gt;Node19</title>
<g id="a_edge33_Node000017_Node000019"><a xlink:title=" ">
<path fill="none" stroke="#63b8ff" d="M290.66,-352.04C302.77,-356.38 317.18,-361.54 330.46,-366.3"/>
<polygon fill="#63b8ff" stroke="#63b8ff" points="329.25,-369.58 339.84,-369.66 331.61,-362.99 329.25,-369.58"/>
</a>
</g>
</g>
<!-- Node18&#45;&gt;Node3 -->
<g id="edge23_Node000018_Node000003" class="edge">
<title>Node18&#45;&gt;Node3</title>
<g id="a_edge23_Node000018_Node000003"><a xlink:title=" ">
<path fill="none" stroke="#63b8ff" d="M408.92,-352.86C444.9,-362.06 501.75,-371.5 548,-356 567.85,-349.35 586.56,-334.46 599.45,-322.31"/>
<polygon fill="#63b8ff" stroke="#63b8ff" points="601.65,-325.06 606.31,-315.54 596.73,-320.07 601.65,-325.06"/>
</a>
</g>
</g>
<!-- Node18&#45;&gt;Node7 -->
<g id="edge24_Node000018_Node000007" class="edge">
<title>Node18&#45;&gt;Node7</title>
<g id="a_edge24_Node000018_Node000007"><a xlink:title=" ">
<path fill="none" stroke="#63b8ff" d="M406.86,-352.73C411.28,-355.24 415.42,-358.29 418.75,-362 453.96,-401.22 429.86,-428.54 454.75,-475 462.16,-488.83 473.06,-502.61 482.36,-513.15"/>
<polygon fill="#63b8ff" stroke="#63b8ff" points="479.63,-515.36 488.96,-520.39 484.8,-510.64 479.63,-515.36"/>
</a>
</g>
</g>
<!-- Node18&#45;&gt;Node9 -->
<g id="edge25_Node000018_Node000009" class="edge">
<title>Node18&#45;&gt;Node9</title>
<g id="a_edge25_Node000018_Node000009"><a xlink:title=" ">
<path fill="none" stroke="#63b8ff" d="M387.04,-331.24C402.74,-319.07 429.67,-299.11 454.75,-285 457.41,-283.5 460.21,-282.04 463.06,-280.62"/>
<polygon fill="#63b8ff" stroke="#63b8ff" points="464.47,-283.83 472.03,-276.41 461.49,-277.49 464.47,-283.83"/>
</a>
</g>
</g>
<!-- Node18&#45;&gt;Node10 -->
<g id="edge26_Node000018_Node000010" class="edge">
<title>Node18&#45;&gt;Node10</title>
<g id="a_edge26_Node000018_Node000010"><a xlink:title=" ">
<path fill="none" stroke="#63b8ff" d="M409.52,-331.21C423.18,-327.12 438.94,-322.4 453.46,-318.05"/>
<polygon fill="#63b8ff" stroke="#63b8ff" points="454.24,-321.47 462.82,-315.25 452.23,-314.77 454.24,-321.47"/>
</a>
</g>
</g>
<!-- Node18&#45;&gt;Node11 -->
<g id="edge27_Node000018_Node000011" class="edge">
<title>Node18&#45;&gt;Node11</title>
<g id="a_edge27_Node000018_Node000011"><a xlink:title=" ">
<path fill="none" stroke="#63b8ff" d="M405.4,-352.76C410.22,-355.29 414.88,-358.35 418.75,-362 444.2,-386 430.13,-407.15 454.75,-432 457.48,-434.75 460.59,-437.26 463.88,-439.53"/>
<polygon fill="#63b8ff" stroke="#63b8ff" points="461.76,-442.34 472.13,-444.51 465.37,-436.35 461.76,-442.34"/>
</a>
</g>
</g>
<!-- Node18&#45;&gt;Node12 -->
<g id="edge28_Node000018_Node000012" class="edge">
<title>Node18&#45;&gt;Node12</title>
<g id="a_edge28_Node000018_Node000012"><a xlink:title=" ">
<path fill="none" stroke="#63b8ff" d="M397.98,-352.68C404.72,-355.66 412.03,-358.92 418.75,-362 477.44,-388.89 545.3,-421.39 584.44,-440.28"/>
<polygon fill="#63b8ff" stroke="#63b8ff" points="582.79,-443.37 593.32,-444.57 585.84,-437.07 582.79,-443.37"/>
</a>
</g>
</g>
<!-- Node18&#45;&gt;Node13 -->
<g id="edge29_Node000018_Node000013" class="edge">
<title>Node18&#45;&gt;Node13</title>
<g id="a_edge29_Node000018_Node000013"><a xlink:title=" ">
<path fill="none" stroke="#63b8ff" d="M412.8,-348.6C451.26,-352.78 509.54,-352.72 548,-323 598.55,-283.95 612,-203.17 615.58,-164.11"/>
<polygon fill="#63b8ff" stroke="#63b8ff" points="619.06,-164.54 616.33,-154.3 612.08,-164.01 619.06,-164.54"/>
</a>
</g>
</g>
<!-- Node18&#45;&gt;Node14 -->
<g id="edge30_Node000018_Node000014" class="edge">
<title>Node18&#45;&gt;Node14</title>
<g id="a_edge30_Node000018_Node000014"><a xlink:title=" ">
<path fill="none" stroke="#63b8ff" d="M382.22,-331.48C403.32,-306.04 457.36,-240.88 484.42,-208.24"/>
<polygon fill="#63b8ff" stroke="#63b8ff" points="486.94,-210.69 490.63,-200.75 481.55,-206.22 486.94,-210.69"/>
</a>
</g>
</g>
<!-- Node18&#45;&gt;Node15 -->
<g id="edge31_Node000018_Node000015" class="edge">
<title>Node18&#45;&gt;Node15</title>
<g id="a_edge31_Node000018_Node000015"><a xlink:title=" ">
<path fill="none" stroke="#63b8ff" d="M378.26,-331.44C390.5,-304.38 424.27,-230.45 454.75,-170 465.94,-147.79 479.5,-122.75 488.91,-105.64"/>
<polygon fill="#63b8ff" stroke="#63b8ff" points="491.93,-107.41 493.7,-96.97 485.8,-104.03 491.93,-107.41"/>
</a>
</g>
</g>
<!-- Node18&#45;&gt;Node17 -->
<g id="edge32_Node000018_Node000017" class="edge">
<title>Node18&#45;&gt;Node17</title>
<g id="a_edge32_Node000018_Node000017"><a xlink:title=" ">
<path fill="none" stroke="#63b8ff" d="M332.48,-348.5C322.54,-348.83 311.86,-348.83 301.92,-348.51"/>
<polygon fill="#63b8ff" stroke="#63b8ff" points="302.33,-345.03 292.17,-348.06 302,-352.02 302.33,-345.03"/>
</a>
</g>
</g>
</g>
</svg>
