<?xml version="1.0" encoding="UTF-8" standalone="no"?>
<!DOCTYPE svg PUBLIC "-//W3C//DTD SVG 1.1//EN"
 "http://www.w3.org/Graphics/SVG/1.1/DTD/svg11.dtd">
<!-- Generated by graphviz version 14.1.2 (0)
 -->
<!-- Title: print_opt_header Pages: 1 -->
<svg width="503pt" height="259pt"
 viewBox="0.00 0.00 503.00 259.00" xmlns="http://www.w3.org/2000/svg" xmlns:xlink="http://www.w3.org/1999/xlink">
<g id="graph0" class="graph" transform="scale(1 1) rotate(0) translate(4 254.75)">
<title>print_opt_header</title>
<!-- Node1 -->
<g id="Node000001" class="node">
<title>Node1</title>
<g id="a_Node000001"><a xlink:title="print option header">
<polygon fill="#999999" stroke="#666666" points="495.25,-96.75 396.75,-96.75 396.75,-76 495.25,-76 495.25,-96.75"/>
<text xml:space="preserve" text-anchor="middle" x="446" y="-83.25" font-family="Helvetica,sans-Serif" font-size="10.00">print_opt_header</text>
</a>
</g>
</g>
<!-- Node2 -->
<g id="Node000002" class="node">
<title>Node2</title>
<g id="a_Node000002"><a xlink:href="../../d9/dd6/a00272.html#a518c63d1d53a636e68ed360015d81207" target="_top" xlink:title="dump all options">
<polygon fill="white" stroke="#666666" points="340.88,-153.75 270.88,-153.75 270.88,-133 340.88,-133 340.88,-153.75"/>
<text xml:space="preserve" text-anchor="middle" x="305.88" y="-140.25" font-family="Helvetica,sans-Serif" font-size="10.00">dump_opts</text>
</a>
</g>
</g>
<!-- Node1&#45;&gt;Node2 -->
<g id="edge1_Node000001_Node000002" class="edge">
<title>Node1&#45;&gt;Node2</title>
<g id="a_edge1_Node000001_Node000002"><a xlink:title=" ">
<path fill="none" stroke="#63b8ff" d="M408.33,-101.51C384.64,-111.29 354.37,-123.78 333.08,-132.56"/>
<polygon fill="#63b8ff" stroke="#63b8ff" points="409.39,-104.86 417.3,-97.81 406.72,-98.39 409.39,-104.86"/>
</a>
</g>
</g>
<!-- Node8 -->
<g id="Node000008" class="node">
<title>Node8</title>
<g id="a_Node000008"><a xlink:href="../../d9/dd6/a00272.html#ab2958e2921a81b3f26fe0a9b7da34763" target="_top" xlink:title="dump options by use mask">
<polygon fill="white" stroke="#666666" points="360.75,-58.75 251,-58.75 251,-38 360.75,-38 360.75,-58.75"/>
<text xml:space="preserve" text-anchor="middle" x="305.88" y="-45.25" font-family="Helvetica,sans-Serif" font-size="10.00">dump_opts_by_use</text>
</a>
</g>
</g>
<!-- Node1&#45;&gt;Node8 -->
<g id="edge9_Node000001_Node000008" class="edge">
<title>Node1&#45;&gt;Node8</title>
<g id="a_edge9_Node000001_Node000008"><a xlink:title=" ">
<path fill="none" stroke="#63b8ff" d="M394.96,-72.61C378.9,-68.19 361.36,-63.36 346.18,-59.19"/>
<polygon fill="#63b8ff" stroke="#63b8ff" points="393.76,-75.91 404.33,-75.19 395.62,-69.16 393.76,-75.91"/>
</a>
</g>
</g>
<!-- Node3 -->
<g id="Node000003" class="node">
<title>Node3</title>
<g id="a_Node000003"><a xlink:href="../../d9/dd6/a00272.html#a09057d0d0fe6d631679535a616b7472b" target="_top" xlink:title="dump options sorted by description">
<polygon fill="white" stroke="#666666" points="203.38,-250.75 88.38,-250.75 88.38,-230 203.38,-230 203.38,-250.75"/>
<text xml:space="preserve" text-anchor="middle" x="145.88" y="-237.25" font-family="Helvetica,sans-Serif" font-size="10.00">dump_opts_by_desc</text>
</a>
</g>
</g>
<!-- Node2&#45;&gt;Node3 -->
<g id="edge2_Node000002_Node000003" class="edge">
<title>Node2&#45;&gt;Node3</title>
<g id="a_edge2_Node000002_Node000003"><a xlink:title=" ">
<path fill="none" stroke="#63b8ff" d="M287.29,-162.5C270.33,-179.9 243.15,-205.11 215,-220.38 208.28,-224.02 200.82,-227.07 193.37,-229.6"/>
<polygon fill="#63b8ff" stroke="#63b8ff" points="289.78,-164.97 294.14,-155.31 284.71,-160.14 289.78,-164.97"/>
</a>
</g>
</g>
<!-- Node4 -->
<g id="Node000004" class="node">
<title>Node4</title>
<g id="a_Node000004"><a xlink:href="../../d9/dd6/a00272.html#a6bf06dd5190d18bfd69c519a3e5fb7e4" target="_top" xlink:title="dump options sorted by group">
<polygon fill="white" stroke="#666666" points="206,-211.75 85.75,-211.75 85.75,-191 206,-191 206,-211.75"/>
<text xml:space="preserve" text-anchor="middle" x="145.88" y="-198.25" font-family="Helvetica,sans-Serif" font-size="10.00">dump_opts_by_group</text>
</a>
</g>
</g>
<!-- Node2&#45;&gt;Node4 -->
<g id="edge3_Node000002_Node000004" class="edge">
<title>Node2&#45;&gt;Node4</title>
<g id="a_edge3_Node000002_Node000004"><a xlink:title=" ">
<path fill="none" stroke="#63b8ff" d="M271.15,-158.72C254.44,-166.04 233.85,-174.65 215,-181.38 205.94,-184.61 196.08,-187.73 186.75,-190.5"/>
<polygon fill="#63b8ff" stroke="#63b8ff" points="272.4,-161.99 280.13,-154.74 269.57,-155.59 272.4,-161.99"/>
</a>
</g>
</g>
<!-- Node5 -->
<g id="Node000005" class="node">
<title>Node5</title>
<g id="a_Node000005"><a xlink:href="../../d9/dd6/a00272.html#ad2bd729273018084d32c9a1481b566a6" target="_top" xlink:title="dump options sorted by name">
<polygon fill="white" stroke="#666666" points="206,-172.75 85.75,-172.75 85.75,-152 206,-152 206,-172.75"/>
<text xml:space="preserve" text-anchor="middle" x="145.88" y="-159.25" font-family="Helvetica,sans-Serif" font-size="10.00">dump_opts_by_name</text>
</a>
</g>
</g>
<!-- Node2&#45;&gt;Node5 -->
<g id="edge4_Node000002_Node000005" class="edge">
<title>Node2&#45;&gt;Node5</title>
<g id="a_edge4_Node000002_Node000005"><a xlink:title=" ">
<path fill="none" stroke="#63b8ff" d="M259.54,-148.83C242.95,-150.82 223.92,-153.11 206.28,-155.23"/>
<polygon fill="#63b8ff" stroke="#63b8ff" points="259.58,-152.35 269.09,-147.68 258.74,-145.4 259.58,-152.35"/>
</a>
</g>
</g>
<!-- Node6 -->
<g id="Node000006" class="node">
<title>Node6</title>
<g id="a_Node000006"><a xlink:href="../../d2/dc8/a00242.html#a3c04138a5bfe5d72780bb7e82a18e627" target="_top" xlink:title="main function for optsp">
<polygon fill="white" stroke="#666666" points="40.75,-115.75 0,-115.75 0,-95 40.75,-95 40.75,-115.75"/>
<text xml:space="preserve" text-anchor="middle" x="20.38" y="-102.25" font-family="Helvetica,sans-Serif" font-size="10.00">main</text>
</a>
</g>
</g>
<!-- Node2&#45;&gt;Node6 -->
<g id="edge8_Node000002_Node000006" class="edge">
<title>Node2&#45;&gt;Node6</title>
<g id="a_edge8_Node000002_Node000006"><a xlink:title=" ">
<path fill="none" stroke="#63b8ff" d="M259.23,-137.26C196.3,-128.82 85.62,-113.99 40.92,-107.99"/>
<polygon fill="#63b8ff" stroke="#63b8ff" points="258.52,-140.69 268.9,-138.55 259.45,-133.75 258.52,-140.69"/>
</a>
</g>
</g>
<!-- Node7 -->
<g id="Node000007" class="node">
<title>Node7</title>
<g id="a_Node000007"><a xlink:href="../../d9/dd6/a00272.html#a67f46739ac01f51f30214abf2a6435c8" target="_top" xlink:title="dump options sorted by short option">
<polygon fill="white" stroke="#666666" points="215,-96.75 76.75,-96.75 76.75,-76 215,-76 215,-96.75"/>
<text xml:space="preserve" text-anchor="middle" x="145.88" y="-83.25" font-family="Helvetica,sans-Serif" font-size="10.00">dump_opts_by_short_opt</text>
</a>
</g>
</g>
<!-- Node2&#45;&gt;Node7 -->
<g id="edge6_Node000002_Node000007" class="edge">
<title>Node2&#45;&gt;Node7</title>
<g id="a_edge6_Node000002_Node000007"><a xlink:title=" ">
<path fill="none" stroke="#63b8ff" d="M265.38,-128.74C249.71,-122.97 231.52,-116.32 215,-110.38 202.85,-106 189.44,-101.26 177.77,-97.16"/>
<polygon fill="#63b8ff" stroke="#63b8ff" points="263.75,-131.88 274.35,-132.05 266.18,-125.31 263.75,-131.88"/>
</a>
</g>
</g>
<!-- Node5&#45;&gt;Node6 -->
<g id="edge5_Node000005_Node000006" class="edge">
<title>Node5&#45;&gt;Node6</title>
<g id="a_edge5_Node000005_Node000006"><a xlink:title=" ">
<path fill="none" stroke="#63b8ff" d="M99.37,-147.76C91.71,-144.9 83.93,-141.74 76.75,-138.38 62.97,-131.92 48.2,-123.01 37.38,-116.07"/>
<polygon fill="#63b8ff" stroke="#63b8ff" points="98.02,-150.99 108.61,-151.08 100.38,-144.41 98.02,-150.99"/>
</a>
</g>
</g>
<!-- Node7&#45;&gt;Node6 -->
<g id="edge7_Node000007_Node000006" class="edge">
<title>Node7&#45;&gt;Node6</title>
<g id="a_edge7_Node000007_Node000006"><a xlink:title=" ">
<path fill="none" stroke="#63b8ff" d="M64.96,-98.67C56.21,-100.02 48,-101.28 41.11,-102.34"/>
<polygon fill="#63b8ff" stroke="#63b8ff" points="65.42,-102.14 74.77,-97.16 64.35,-95.22 65.42,-102.14"/>
</a>
</g>
</g>
<!-- Node8&#45;&gt;Node6 -->
<g id="edge11_Node000008_Node000006" class="edge">
<title>Node8&#45;&gt;Node6</title>
<g id="a_edge11_Node000008_Node000006"><a xlink:title=" ">
<path fill="none" stroke="#63b8ff" d="M239.21,-45.04C192.59,-44.76 129.21,-48.68 76.75,-67.38 60.06,-73.32 43.66,-85.6 33.1,-94.6"/>
<polygon fill="#63b8ff" stroke="#63b8ff" points="239.13,-48.54 249.18,-45.18 239.23,-41.54 239.13,-48.54"/>
</a>
</g>
</g>
<!-- Node9 -->
<g id="Node000009" class="node">
<title>Node9</title>
<g id="a_Node000009"><a xlink:href="../../d7/d40/a00236.html#a55ea39040ce4618476ee3fada6a0c417" target="_top" xlink:title="Display usage information for the form, including available options and commands, to assist users in ...">
<polygon fill="white" stroke="#666666" points="182.75,-20.75 109,-20.75 109,0 182.75,0 182.75,-20.75"/>
<text xml:space="preserve" text-anchor="middle" x="145.88" y="-7.25" font-family="Helvetica,sans-Serif" font-size="10.00">form_usage</text>
</a>
</g>
</g>
<!-- Node8&#45;&gt;Node9 -->
<g id="edge10_Node000008_Node000009" class="edge">
<title>Node8&#45;&gt;Node9</title>
<g id="a_edge10_Node000008_Node000009"><a xlink:title=" ">
<path fill="none" stroke="#63b8ff" d="M248.86,-34.9C226.99,-29.64 202.54,-23.76 183.07,-19.08"/>
<polygon fill="#63b8ff" stroke="#63b8ff" points="248.01,-38.3 258.55,-37.23 249.65,-31.49 248.01,-38.3"/>
</a>
</g>
</g>
</g>
</svg>
