<?xml version="1.0" encoding="UTF-8" standalone="no"?>
<!DOCTYPE svg PUBLIC "-//W3C//DTD SVG 1.1//EN"
 "http://www.w3.org/Graphics/SVG/1.1/DTD/svg11.dtd">
<!-- Generated by graphviz version 14.1.2 (0)
 -->
<!-- Title: parse_opt_args Pages: 1 -->
<!--zoomable 373 -->

<svg id="main" version="1.1" xmlns="http://www.w3.org/2000/svg" xmlns:xlink="http://www.w3.org/1999/xlink" xml:space="preserve" onload="init(evt)">

<style type="text/css"><![CDATA[
.node, .edge {opacity: 0.7;}
.node.selected, .edge.selected {opacity: 1;}
.edge:hover path { stroke: red; }
.edge:hover polygon { stroke: red; fill: red; }
]]></style>

<defs>
  <circle id="rim" cx="0" cy="0" r="7"/>
  <circle id="rim2" cx="0" cy="0" r="3.5"/>
  <g id="zoomPlus">
    <use xlink:href="#rim" fill="#404040"><set attributeName="fill" to="#808080" begin="zoomplus.mouseover" end="zoomplus.mouseout"/></use>
    <path d="M-4,0h8M0,-4v8" fill="none" stroke="white" stroke-width="1.5" pointer-events="none"/>
  </g>
  <g id="zoomMin">
    <use xlink:href="#rim" fill="#404040"><set attributeName="fill" to="#808080" begin="zoomminus.mouseover" end="zoomminus.mouseout"/></use>
    <path d="M-4,0h8" fill="none" stroke="white" stroke-width="1.5" pointer-events="none"/>
  </g>
  <g id="arrowUp" transform="translate(30 24)">
    <use xlink:href="#rim"/>
    <path pointer-events="none" fill="none" stroke="white" stroke-width="1.5" d="M0,-3.0v7 M-2.5,-0.5L0,-3.0L2.5,-0.5"/>
  </g>
  <g id="arrowRight" transform="rotate(90) translate(36 -43)">
    <use xlink:href="#rim"/>
    <path pointer-events="none" fill="none" stroke="white" stroke-width="1.5" d="M0,-3.0v7 M-2.5,-0.5L0,-3.0L2.5,-0.5"/>
  </g>
  <g id="arrowDown" transform="rotate(180) translate(-30 -48)">
    <use xlink:href="#rim"/>
    <path pointer-events="none" fill="none" stroke="white" stroke-width="1.5" d="M0,-3.0v7 M-2.5,-0.5L0,-3.0L2.5,-0.5"/>
  </g>
  <g id="arrowLeft" transform="rotate(270) translate(-36 17)">
    <use xlink:href="#rim"/>
    <path pointer-events="none" fill="none" stroke="white" stroke-width="1.5" d="M0,-3.0v7 M-2.5,-0.5L0,-3.0L2.5,-0.5"/>
  </g>
  <g id="resetDef">
    <use xlink:href="#rim2" fill="#404040"><set attributeName="fill" to="#808080" begin="reset.mouseover" end="reset.mouseout"/></use>
  </g>
</defs>
<script type="application/ecmascript">
var viewWidth = 1375;
var viewHeight = 373;
var sectionId = 'dynsection-14';
</script>
<script type="application/ecmascript" xlink:href="../../svg.min.js"/>
<svg id="graph" class="graph">
<g id="viewport">
<title>parse_opt_args</title>
<!-- Node1 -->
<g id="Node000001" class="node">
<title>Node1</title>
<g id="a_Node000001"><a xlink:title="Parse command&#45;line options and set Init struct values accordingly.">
<polygon fill="#999999" stroke="#666666" points="1366.5,-249.75 1276.25,-249.75 1276.25,-229 1366.5,-229 1366.5,-249.75"/>
<text xml:space="preserve" text-anchor="middle" x="1321.38" y="-236.25" font-family="Helvetica,sans-Serif" font-size="10.00">parse_opt_args</text>
</a>
</g>
</g>
<!-- Node2 -->
<g id="Node000002" class="node">
<title>Node2</title>
<g id="a_Node000002"><a xlink:href="../../d0/d27/a00239.html#aeebc4c0b94ca97d753e10a0cd1798730" target="_top" xlink:title="Displays the help screen for the pick interface using mview.">
<polygon fill="white" stroke="#666666" points="757.75,-364.75 654.75,-364.75 654.75,-344 757.75,-344 757.75,-364.75"/>
<text xml:space="preserve" text-anchor="middle" x="706.25" y="-351.25" font-family="Helvetica,sans-Serif" font-size="10.00">display_pick_help</text>
</a>
</g>
</g>
<!-- Node1&#45;&gt;Node2 -->
<g id="edge1_Node000001_Node000002" class="edge">
<title>Node1&#45;&gt;Node2</title>
<g id="a_edge1_Node000001_Node000002"><a xlink:title=" ">
<path fill="none" stroke="#63b8ff" d="M1306.25,-258.63C1291.79,-276.83 1267.62,-303.36 1240.25,-317.38 1158.41,-359.3 1128.46,-353.38 1036.5,-353.38 1036.5,-353.38 1036.5,-353.38 909.38,-353.38 857.79,-353.38 798.8,-353.7 757.92,-353.99"/>
<polygon fill="#63b8ff" stroke="#63b8ff" points="1308.65,-261.25 1311.97,-251.19 1303.1,-256.99 1308.65,-261.25"/>
</a>
</g>
</g>
<!-- Node7 -->
<g id="Node000007" class="node">
<title>Node7</title>
<g id="a_Node000007"><a xlink:href="../../d9/d39/a00257.html#aa5d0e30e7036b72b51c843d0a7e486a1" target="_top" xlink:title="Processes user input for the menu system.">
<polygon fill="white" stroke="#666666" points="317.25,-249.75 194.75,-249.75 194.75,-229 317.25,-229 317.25,-249.75"/>
<text xml:space="preserve" text-anchor="middle" x="256" y="-236.25" font-family="Helvetica,sans-Serif" font-size="10.00">menu_cmd_processor</text>
</a>
</g>
</g>
<!-- Node1&#45;&gt;Node7 -->
<g id="edge31_Node000001_Node000007" class="edge">
<title>Node1&#45;&gt;Node7</title>
<g id="a_edge31_Node000001_Node000007"><a xlink:title=" ">
<path fill="none" stroke="#63b8ff" d="M1264.6,-251.31C1207.56,-262.45 1116.28,-277.38 1036.5,-277.38 1036.5,-277.38 1036.5,-277.38 482.75,-277.38 416.77,-277.38 341.44,-261.4 296.62,-250.16"/>
<polygon fill="#63b8ff" stroke="#63b8ff" points="1265.27,-254.74 1274.4,-249.36 1263.9,-247.87 1265.27,-254.74"/>
</a>
</g>
</g>
<!-- Node10 -->
<g id="Node000010" class="node">
<title>Node10</title>
<g id="a_Node000010"><a xlink:href="../../dd/d52/a00221.html#a2ffea5674e85f124a70e19f745a66583" target="_top" xlink:title="use form to enter a file specification">
<polygon fill="white" stroke="#666666" points="1230.5,-59.75 1140.25,-59.75 1140.25,-39 1230.5,-39 1230.5,-59.75"/>
<text xml:space="preserve" text-anchor="middle" x="1185.38" y="-46.25" font-family="Helvetica,sans-Serif" font-size="10.00">enter_file_spec</text>
</a>
</g>
</g>
<!-- Node1&#45;&gt;Node10 -->
<g id="edge10_Node000001_Node000010" class="edge">
<title>Node1&#45;&gt;Node10</title>
<g id="a_edge10_Node000001_Node000010"><a xlink:title=" ">
<path fill="none" stroke="#63b8ff" d="M1315.14,-217.76C1305.71,-183.05 1282.79,-114.63 1240.25,-73.38 1234.66,-67.96 1227.65,-63.64 1220.54,-60.25"/>
<polygon fill="#63b8ff" stroke="#63b8ff" points="1311.65,-218.25 1317.54,-227.06 1318.43,-216.5 1311.65,-218.25"/>
</a>
</g>
</g>
<!-- Node15 -->
<g id="Node000015" class="node">
<title>Node15</title>
<g id="a_Node000015"><a xlink:href="../../d0/d27/a00239.html#af7fcbb1c8b67a4d11c86ba7209f397c2" target="_top" xlink:title="Executes specified command with selected objects as arguments.">
<polygon fill="white" stroke="#666666" points="746.12,-325.75 666.38,-325.75 666.38,-305 746.12,-305 746.12,-325.75"/>
<text xml:space="preserve" text-anchor="middle" x="706.25" y="-312.25" font-family="Helvetica,sans-Serif" font-size="10.00">exec_objects</text>
</a>
</g>
</g>
<!-- Node1&#45;&gt;Node15 -->
<g id="edge27_Node000001_Node000015" class="edge">
<title>Node1&#45;&gt;Node15</title>
<g id="a_edge27_Node000001_Node000015"><a xlink:title=" ">
<path fill="none" stroke="#63b8ff" d="M1299.09,-257.1C1283.73,-268.86 1261.95,-283.54 1240.25,-291.38 1154.49,-322.34 1127.68,-315.38 1036.5,-315.38 1036.5,-315.38 1036.5,-315.38 909.38,-315.38 852.7,-315.38 787.09,-315.38 746.38,-315.38"/>
<polygon fill="#63b8ff" stroke="#63b8ff" points="1300.91,-260.12 1306.58,-251.17 1296.57,-254.63 1300.91,-260.12"/>
</a>
</g>
</g>
<!-- Node16 -->
<g id="Node000016" class="node">
<title>Node16</title>
<g id="a_Node000016"><a xlink:href="../../d2/d04/a00281.html#ada302551bf41bf8ed6132fd34328a47e" target="_top" xlink:title="Form main processing loop.">
<polygon fill="white" stroke="#666666" points="745,-249.75 667.5,-249.75 667.5,-229 745,-229 745,-249.75"/>
<text xml:space="preserve" text-anchor="middle" x="706.25" y="-236.25" font-family="Helvetica,sans-Serif" font-size="10.00">form_engine</text>
</a>
</g>
</g>
<!-- Node1&#45;&gt;Node16 -->
<g id="edge28_Node000001_Node000016" class="edge">
<title>Node1&#45;&gt;Node16</title>
<g id="a_edge28_Node000001_Node000016"><a xlink:title=" ">
<path fill="none" stroke="#63b8ff" d="M1264.8,-239.38C1207.57,-239.38 1115.8,-239.38 1036.5,-239.38 1036.5,-239.38 1036.5,-239.38 909.38,-239.38 852.18,-239.38 785.87,-239.38 745.25,-239.38"/>
<polygon fill="#63b8ff" stroke="#63b8ff" points="1264.61,-242.88 1274.61,-239.38 1264.61,-235.88 1264.61,-242.88"/>
</a>
</g>
</g>
<!-- Node19 -->
<g id="Node000019" class="node">
<title>Node19</title>
<g id="a_Node000019"><a xlink:href="../../dd/d52/a00221.html#ad997ba9f8591568c77291fb1b44601b2" target="_top" xlink:title="Display View Help File.">
<polygon fill="white" stroke="#666666" points="759.25,-134.75 653.25,-134.75 653.25,-114 759.25,-114 759.25,-134.75"/>
<text xml:space="preserve" text-anchor="middle" x="706.25" y="-121.25" font-family="Helvetica,sans-Serif" font-size="10.00">view_display_help</text>
</a>
</g>
</g>
<!-- Node1&#45;&gt;Node19 -->
<g id="edge32_Node000001_Node000019" class="edge">
<title>Node1&#45;&gt;Node19</title>
<g id="a_edge32_Node000001_Node000019"><a xlink:title=" ">
<path fill="none" stroke="#63b8ff" d="M1302.08,-221.17C1259.48,-180.82 1148.71,-87.38 1036.5,-87.38 1036.5,-87.38 1036.5,-87.38 909.38,-87.38 850.69,-87.38 783.97,-102.65 743.77,-113.57"/>
<polygon fill="#63b8ff" stroke="#63b8ff" points="1299.4,-223.45 1309.02,-227.88 1304.26,-218.41 1299.4,-223.45"/>
</a>
</g>
</g>
<!-- Node20 -->
<g id="Node000020" class="node">
<title>Node20</title>
<g id="a_Node000020"><a xlink:href="../../d9/dd6/a00272.html#accd65939c0ce6f0d940c5cf795a1e8fa" target="_top" xlink:title="Main initialization function for MAPP &#45; Menu Application.">
<polygon fill="white" stroke="#666666" points="1240.25,-20.75 1130.5,-20.75 1130.5,0 1240.25,0 1240.25,-20.75"/>
<text xml:space="preserve" text-anchor="middle" x="1185.38" y="-7.25" font-family="Helvetica,sans-Serif" font-size="10.00">mapp_initialization</text>
</a>
</g>
</g>
<!-- Node1&#45;&gt;Node20 -->
<g id="edge29_Node000001_Node000020" class="edge">
<title>Node1&#45;&gt;Node20</title>
<g id="a_edge29_Node000001_Node000020"><a xlink:title=" ">
<path fill="none" stroke="#63b8ff" d="M1317.89,-217.24C1312.04,-175.16 1293.57,-83.13 1240.25,-30.38 1236.49,-26.66 1231.98,-23.62 1227.19,-21.14"/>
<polygon fill="#63b8ff" stroke="#63b8ff" points="1314.41,-217.61 1319.14,-227.09 1321.36,-216.73 1314.41,-217.61"/>
</a>
</g>
</g>
<!-- Node3 -->
<g id="Node000003" class="node">
<title>Node3</title>
<g id="a_Node000003"><a xlink:href="../../d0/d27/a00239.html#abb0969a6d1c7e78be46c3b325754c802" target="_top" xlink:title="Main loop to handle user input and interactions for pick interface.">
<polygon fill="white" stroke="#666666" points="609.75,-363.75 564.5,-363.75 564.5,-343 609.75,-343 609.75,-363.75"/>
<text xml:space="preserve" text-anchor="middle" x="587.12" y="-350.25" font-family="Helvetica,sans-Serif" font-size="10.00">picker</text>
</a>
</g>
</g>
<!-- Node2&#45;&gt;Node3 -->
<g id="edge2_Node000002_Node000003" class="edge">
<title>Node2&#45;&gt;Node3</title>
<g id="a_edge2_Node000002_Node000003"><a xlink:title=" ">
<path fill="none" stroke="#63b8ff" d="M643.17,-353.84C631.29,-353.74 619.6,-353.64 610.07,-353.56"/>
<polygon fill="#63b8ff" stroke="#63b8ff" points="643.02,-357.34 653.04,-353.93 643.08,-350.34 643.02,-357.34"/>
</a>
</g>
</g>
<!-- Node4 -->
<g id="Node000004" class="node">
<title>Node4</title>
<g id="a_Node000004"><a xlink:href="../../d0/d27/a00239.html#ab97dcab41017c5132f52b682437a151e" target="_top" xlink:title="Initializes pick interface, calculates window size and position, and enters picker loop.">
<polygon fill="white" stroke="#666666" points="521,-325.75 446.5,-325.75 446.5,-305 521,-305 521,-325.75"/>
<text xml:space="preserve" text-anchor="middle" x="483.75" y="-312.25" font-family="Helvetica,sans-Serif" font-size="10.00">pick_engine</text>
</a>
</g>
</g>
<!-- Node3&#45;&gt;Node4 -->
<g id="edge3_Node000003_Node000004" class="edge">
<title>Node3&#45;&gt;Node4</title>
<g id="a_edge3_Node000003_Node000004"><a xlink:title=" ">
<path fill="none" stroke="#63b8ff" d="M553.42,-341.12C540.62,-336.32 526.05,-330.86 513.64,-326.2"/>
<polygon fill="#63b8ff" stroke="#63b8ff" points="552.12,-344.37 562.71,-344.6 554.58,-337.81 552.12,-344.37"/>
</a>
</g>
</g>
<!-- Node5 -->
<g id="Node000005" class="node">
<title>Node5</title>
<g id="a_Node000005"><a xlink:href="../../d0/d27/a00239.html#a1b2ee87543245e612c1710ea58930a17" target="_top" xlink:title="Initializes pick structure and opens pick input file or pipe.">
<polygon fill="white" stroke="#666666" points="410.5,-325.75 353.25,-325.75 353.25,-305 410.5,-305 410.5,-325.75"/>
<text xml:space="preserve" text-anchor="middle" x="381.88" y="-312.25" font-family="Helvetica,sans-Serif" font-size="10.00">init_pick</text>
</a>
</g>
</g>
<!-- Node4&#45;&gt;Node5 -->
<g id="edge4_Node000004_Node000005" class="edge">
<title>Node4&#45;&gt;Node5</title>
<g id="a_edge4_Node000004_Node000005"><a xlink:title=" ">
<path fill="none" stroke="#63b8ff" d="M434.66,-315.38C426.46,-315.38 418.18,-315.38 410.73,-315.38"/>
<polygon fill="#63b8ff" stroke="#63b8ff" points="434.61,-318.88 444.61,-315.38 434.61,-311.88 434.61,-318.88"/>
</a>
</g>
</g>
<!-- Node6 -->
<g id="Node000006" class="node">
<title>Node6</title>
<g id="a_Node000006"><a xlink:href="../../d2/dc8/a00242.html#a3c04138a5bfe5d72780bb7e82a18e627" target="_top" xlink:title=" ">
<polygon fill="white" stroke="#666666" points="276.38,-325.75 235.62,-325.75 235.62,-305 276.38,-305 276.38,-325.75"/>
<text xml:space="preserve" text-anchor="middle" x="256" y="-312.25" font-family="Helvetica,sans-Serif" font-size="10.00">main</text>
</a>
</g>
</g>
<!-- Node5&#45;&gt;Node6 -->
<g id="edge5_Node000005_Node000006" class="edge">
<title>Node5&#45;&gt;Node6</title>
<g id="a_edge5_Node000005_Node000006"><a xlink:title=" ">
<path fill="none" stroke="#63b8ff" d="M341.27,-315.38C319.64,-315.38 293.83,-315.38 276.52,-315.38"/>
<polygon fill="#63b8ff" stroke="#63b8ff" points="341.25,-318.88 351.25,-315.38 341.25,-311.88 341.25,-318.88"/>
</a>
</g>
</g>
<!-- Node5&#45;&gt;Node7 -->
<g id="edge6_Node000005_Node000007" class="edge">
<title>Node5&#45;&gt;Node7</title>
<g id="a_edge6_Node000005_Node000007"><a xlink:title=" ">
<path fill="none" stroke="#63b8ff" d="M353.75,-298.74C329.61,-283.92 295.01,-262.7 274.4,-250.05"/>
<polygon fill="#63b8ff" stroke="#63b8ff" points="351.75,-301.61 362.1,-303.86 355.41,-295.64 351.75,-301.61"/>
</a>
</g>
</g>
<!-- Node8 -->
<g id="Node000008" class="node">
<title>Node8</title>
<g id="a_Node000008"><a xlink:href="../../d9/d39/a00257.html#a7d7973d7aac92759dcc86ec52bb038f4" target="_top" xlink:title="The main loop of the menu system.">
<polygon fill="white" stroke="#666666" points="158.75,-249.75 76.75,-249.75 76.75,-229 158.75,-229 158.75,-249.75"/>
<text xml:space="preserve" text-anchor="middle" x="117.75" y="-236.25" font-family="Helvetica,sans-Serif" font-size="10.00">menu_engine</text>
</a>
</g>
</g>
<!-- Node7&#45;&gt;Node8 -->
<g id="edge7_Node000007_Node000008" class="edge">
<title>Node7&#45;&gt;Node8</title>
<g id="a_edge7_Node000007_Node000008"><a xlink:title=" ">
<path fill="none" stroke="#63b8ff" d="M183.2,-232.63C174.96,-232.67 166.79,-232.84 159.17,-233.15"/>
<polygon fill="#63b8ff" stroke="#63b8ff" points="182.92,-236.13 192.93,-232.66 182.94,-229.13 182.92,-236.13"/>
</a>
</g>
</g>
<!-- Node8&#45;&gt;Node7 -->
<g id="edge9_Node000008_Node000007" class="edge">
<title>Node8&#45;&gt;Node7</title>
<g id="a_edge9_Node000008_Node000007"><a xlink:title=" ">
<path fill="none" stroke="#63b8ff" d="M170.68,-245.95C178.45,-246.12 186.52,-246.17 194.45,-246.09"/>
<polygon fill="#63b8ff" stroke="#63b8ff" points="170.79,-242.45 160.69,-245.65 170.58,-249.45 170.79,-242.45"/>
</a>
</g>
</g>
<!-- Node9 -->
<g id="Node000009" class="node">
<title>Node9</title>
<g id="a_Node000009"><a xlink:href="../../dd/dd7/a00260.html#a3c04138a5bfe5d72780bb7e82a18e627" target="_top" xlink:title=" ">
<polygon fill="white" stroke="#666666" points="40.75,-249.75 0,-249.75 0,-229 40.75,-229 40.75,-249.75"/>
<text xml:space="preserve" text-anchor="middle" x="20.38" y="-236.25" font-family="Helvetica,sans-Serif" font-size="10.00">main</text>
</a>
</g>
</g>
<!-- Node8&#45;&gt;Node9 -->
<g id="edge8_Node000008_Node000009" class="edge">
<title>Node8&#45;&gt;Node9</title>
<g id="a_edge8_Node000008_Node000009"><a xlink:title=" ">
<path fill="none" stroke="#63b8ff" d="M64.79,-239.38C56.36,-239.38 48.1,-239.38 41.09,-239.38"/>
<polygon fill="#63b8ff" stroke="#63b8ff" points="64.79,-242.88 74.79,-239.38 64.79,-235.88 64.79,-242.88"/>
</a>
</g>
</g>
<!-- Node11 -->
<g id="Node000011" class="node">
<title>Node11</title>
<g id="a_Node000011"><a xlink:href="../../dd/d52/a00221.html#a9c4b3ba5f73c18b486646c62b933972a" target="_top" xlink:title="Main Command Processing Loop for View.">
<polygon fill="white" stroke="#666666" points="1094.5,-135.75 976.5,-135.75 976.5,-115 1094.5,-115 1094.5,-135.75"/>
<text xml:space="preserve" text-anchor="middle" x="1035.5" y="-122.25" font-family="Helvetica,sans-Serif" font-size="10.00">view_cmd_processor</text>
</a>
</g>
</g>
<!-- Node10&#45;&gt;Node11 -->
<g id="edge11_Node000010_Node000011" class="edge">
<title>Node10&#45;&gt;Node11</title>
<g id="a_edge11_Node000010_Node000011"><a xlink:title=" ">
<path fill="none" stroke="#63b8ff" d="M1153.53,-65.23C1124.66,-80.07 1082.32,-101.83 1057.27,-114.7"/>
<polygon fill="#63b8ff" stroke="#63b8ff" points="1154.86,-68.48 1162.16,-60.79 1151.66,-62.25 1154.86,-68.48"/>
</a>
</g>
</g>
<!-- Node12 -->
<g id="Node000012" class="node">
<title>Node12</title>
<g id="a_Node000012"><a xlink:href="../../dd/d52/a00221.html#a0bd4dc056ab5010547129bb87819789b" target="_top" xlink:title="Start view.">
<polygon fill="white" stroke="#666666" points="940.5,-173.75 880.25,-173.75 880.25,-153 940.5,-153 940.5,-173.75"/>
<text xml:space="preserve" text-anchor="middle" x="910.38" y="-160.25" font-family="Helvetica,sans-Serif" font-size="10.00">view_file</text>
</a>
</g>
</g>
<!-- Node11&#45;&gt;Node12 -->
<g id="edge12_Node000011_Node000012" class="edge">
<title>Node11&#45;&gt;Node12</title>
<g id="a_edge12_Node000011_Node000012"><a xlink:title=" ">
<path fill="none" stroke="#63b8ff" d="M988.79,-139.48C972.81,-144.41 955.31,-149.82 940.99,-154.23"/>
<polygon fill="#63b8ff" stroke="#63b8ff" points="989.58,-142.9 998.1,-136.61 987.51,-136.21 989.58,-142.9"/>
</a>
</g>
</g>
<!-- Node13 -->
<g id="Node000013" class="node">
<title>Node13</title>
<g id="a_Node000013"><a xlink:href="../../d5/ddf/a00224.html#a3c04138a5bfe5d72780bb7e82a18e627" target="_top" xlink:title=" ">
<polygon fill="white" stroke="#666666" points="726.62,-173.75 685.88,-173.75 685.88,-153 726.62,-153 726.62,-173.75"/>
<text xml:space="preserve" text-anchor="middle" x="706.25" y="-160.25" font-family="Helvetica,sans-Serif" font-size="10.00">main</text>
</a>
</g>
</g>
<!-- Node12&#45;&gt;Node13 -->
<g id="edge13_Node000012_Node000013" class="edge">
<title>Node12&#45;&gt;Node13</title>
<g id="a_edge13_Node000012_Node000013"><a xlink:title=" ">
<path fill="none" stroke="#63b8ff" d="M868.5,-163.38C825.47,-163.38 759.53,-163.38 726.91,-163.38"/>
<polygon fill="#63b8ff" stroke="#63b8ff" points="868.47,-166.88 878.47,-163.38 868.47,-159.88 868.47,-166.88"/>
</a>
</g>
</g>
<!-- Node14 -->
<g id="Node000014" class="node">
<title>Node14</title>
<g id="a_Node000014"><a xlink:href="../../d7/d03/a00254.html#a75a4e7afc9c9aafd3d35ab706f5fdc71" target="_top" xlink:title="subprogram entry point for C&#45;Menu View">
<polygon fill="white" stroke="#666666" points="844.25,-211.75 795.25,-211.75 795.25,-191 844.25,-191 844.25,-211.75"/>
<text xml:space="preserve" text-anchor="middle" x="819.75" y="-198.25" font-family="Helvetica,sans-Serif" font-size="10.00">mview</text>
</a>
</g>
</g>
<!-- Node12&#45;&gt;Node14 -->
<g id="edge14_Node000012_Node000014" class="edge">
<title>Node12&#45;&gt;Node14</title>
<g id="a_edge14_Node000012_Node000014"><a xlink:title=" ">
<path fill="none" stroke="#63b8ff" d="M873.83,-178.62C863.95,-182.85 853.47,-187.35 844.45,-191.21"/>
<polygon fill="#63b8ff" stroke="#63b8ff" points="875.01,-181.92 882.82,-174.76 872.25,-175.48 875.01,-181.92"/>
</a>
</g>
</g>
<!-- Node14&#45;&gt;Node2 -->
<g id="edge15_Node000014_Node000002" class="edge">
<title>Node14&#45;&gt;Node2</title>
<g id="a_edge15_Node000014_Node000002"><a xlink:title=" ">
<path fill="none" stroke="#63b8ff" d="M814.5,-222.88C807.7,-251.93 791.7,-303.62 759.25,-334.38 755.39,-338.03 750.79,-341.05 745.94,-343.52"/>
<polygon fill="#63b8ff" stroke="#63b8ff" points="817.86,-223.93 816.55,-213.42 811.01,-222.45 817.86,-223.93"/>
</a>
</g>
</g>
<!-- Node14&#45;&gt;Node7 -->
<g id="edge24_Node000014_Node000007" class="edge">
<title>Node14&#45;&gt;Node7</title>
<g id="a_edge24_Node000014_Node000007"><a xlink:title=" ">
<path fill="none" stroke="#63b8ff" d="M783.61,-201.38C738.4,-201.38 657.41,-201.38 588.12,-201.38 588.12,-201.38 588.12,-201.38 482.75,-201.38 416.77,-201.38 341.44,-217.35 296.62,-228.59"/>
<polygon fill="#63b8ff" stroke="#63b8ff" points="783.33,-204.88 793.33,-201.38 783.33,-197.88 783.33,-204.88"/>
</a>
</g>
</g>
<!-- Node14&#45;&gt;Node13 -->
<g id="edge23_Node000014_Node000013" class="edge">
<title>Node14&#45;&gt;Node13</title>
<g id="a_edge23_Node000014_Node000013"><a xlink:title=" ">
<path fill="none" stroke="#63b8ff" d="M784.02,-189.54C765.27,-183.15 742.8,-175.49 727.04,-170.12"/>
<polygon fill="#63b8ff" stroke="#63b8ff" points="782.8,-192.82 793.4,-192.73 785.06,-186.2 782.8,-192.82"/>
</a>
</g>
</g>
<!-- Node14&#45;&gt;Node15 -->
<g id="edge16_Node000014_Node000015" class="edge">
<title>Node14&#45;&gt;Node15</title>
<g id="a_edge16_Node000014_Node000015"><a xlink:title=" ">
<path fill="none" stroke="#63b8ff" d="M800.63,-219.9C777.12,-243.93 736.89,-285.07 717.84,-304.55"/>
<polygon fill="#63b8ff" stroke="#63b8ff" points="802.91,-222.57 807.4,-212.98 797.91,-217.68 802.91,-222.57"/>
</a>
</g>
</g>
<!-- Node14&#45;&gt;Node16 -->
<g id="edge18_Node000014_Node000016" class="edge">
<title>Node14&#45;&gt;Node16</title>
<g id="a_edge18_Node000014_Node000016"><a xlink:title=" ">
<path fill="none" stroke="#63b8ff" d="M784.25,-213.13C769.72,-218.08 752.94,-223.8 738.75,-228.64"/>
<polygon fill="#63b8ff" stroke="#63b8ff" points="785.06,-216.55 793.4,-210.02 782.8,-209.93 785.06,-216.55"/>
</a>
</g>
</g>
<!-- Node14&#45;&gt;Node19 -->
<g id="edge25_Node000014_Node000019" class="edge">
<title>Node14&#45;&gt;Node19</title>
<g id="a_edge25_Node000014_Node000019"><a xlink:title=" ">
<path fill="none" stroke="#63b8ff" d="M802.48,-182.27C791.32,-170.12 775.61,-154.76 759.25,-144.38 753.7,-140.85 747.42,-137.79 741.21,-135.19"/>
<polygon fill="#63b8ff" stroke="#63b8ff" points="799.8,-184.53 809.06,-189.68 805.04,-179.88 799.8,-184.53"/>
</a>
</g>
</g>
<!-- Node15&#45;&gt;Node4 -->
<g id="edge17_Node000015_Node000004" class="edge">
<title>Node15&#45;&gt;Node4</title>
<g id="a_edge17_Node000015_Node000004"><a xlink:title=" ">
<path fill="none" stroke="#63b8ff" d="M654.79,-315.38C614.09,-315.38 557.82,-315.38 521.35,-315.38"/>
<polygon fill="#63b8ff" stroke="#63b8ff" points="654.57,-318.88 664.57,-315.38 654.57,-311.88 654.57,-318.88"/>
</a>
</g>
</g>
<!-- Node17 -->
<g id="Node000017" class="node">
<title>Node17</title>
<g id="a_Node000017"><a xlink:href="../../d2/d04/a00281.html#abf1be20a8aad5f7ba09172ac1434a110" target="_top" xlink:title="Initialize form data structure and parse description file.">
<polygon fill="white" stroke="#666666" points="617.25,-154.75 557,-154.75 557,-134 617.25,-134 617.25,-154.75"/>
<text xml:space="preserve" text-anchor="middle" x="587.12" y="-141.25" font-family="Helvetica,sans-Serif" font-size="10.00">init_form</text>
</a>
</g>
</g>
<!-- Node16&#45;&gt;Node17 -->
<g id="edge19_Node000016_Node000017" class="edge">
<title>Node16&#45;&gt;Node17</title>
<g id="a_edge19_Node000016_Node000017"><a xlink:title=" ">
<path fill="none" stroke="#63b8ff" d="M683.51,-221.74C659.49,-202.26 621.55,-171.48 601.53,-155.24"/>
<polygon fill="#63b8ff" stroke="#63b8ff" points="681.12,-224.31 691.09,-227.89 685.53,-218.87 681.12,-224.31"/>
</a>
</g>
</g>
<!-- Node17&#45;&gt;Node7 -->
<g id="edge22_Node000017_Node000007" class="edge">
<title>Node17&#45;&gt;Node7</title>
<g id="a_edge22_Node000017_Node000007"><a xlink:title=" ">
<path fill="none" stroke="#63b8ff" d="M545.19,-139.8C517.09,-137.76 479.13,-137.21 446.5,-144.38 376.04,-159.84 302.39,-207.31 271.74,-228.71"/>
<polygon fill="#63b8ff" stroke="#63b8ff" points="544.82,-143.28 555.07,-140.62 545.4,-136.3 544.82,-143.28"/>
</a>
</g>
</g>
<!-- Node17&#45;&gt;Node10 -->
<g id="edge20_Node000017_Node000010" class="edge">
<title>Node17&#45;&gt;Node10</title>
<g id="a_edge20_Node000017_Node000010"><a xlink:title=" ">
<path fill="none" stroke="#63b8ff" d="M611.92,-127.25C652.33,-99.89 737.91,-49.38 818.75,-49.38 911.38,-49.38 911.38,-49.38 911.38,-49.38 991.95,-49.38 1085.9,-49.38 1139.93,-49.38"/>
<polygon fill="#63b8ff" stroke="#63b8ff" points="610.12,-124.23 603.89,-132.8 614.1,-129.99 610.12,-124.23"/>
</a>
</g>
</g>
<!-- Node18 -->
<g id="Node000018" class="node">
<title>Node18</title>
<g id="a_Node000018"><a xlink:href="../../db/dc3/a00284.html#a3c04138a5bfe5d72780bb7e82a18e627" target="_top" xlink:title=" ">
<polygon fill="white" stroke="#666666" points="504.12,-173.75 463.38,-173.75 463.38,-153 504.12,-153 504.12,-173.75"/>
<text xml:space="preserve" text-anchor="middle" x="483.75" y="-160.25" font-family="Helvetica,sans-Serif" font-size="10.00">main</text>
</a>
</g>
</g>
<!-- Node17&#45;&gt;Node18 -->
<g id="edge21_Node000017_Node000018" class="edge">
<title>Node17&#45;&gt;Node18</title>
<g id="a_edge21_Node000017_Node000018"><a xlink:title=" ">
<path fill="none" stroke="#63b8ff" d="M545.54,-151.98C531.45,-154.62 516.26,-157.47 504.59,-159.66"/>
<polygon fill="#63b8ff" stroke="#63b8ff" points="545.86,-155.48 555.04,-150.2 544.57,-148.6 545.86,-155.48"/>
</a>
</g>
</g>
<!-- Node19&#45;&gt;Node11 -->
<g id="edge26_Node000019_Node000011" class="edge">
<title>Node19&#45;&gt;Node11</title>
<g id="a_edge26_Node000019_Node000011"><a xlink:title=" ">
<path fill="none" stroke="#63b8ff" d="M770.85,-124.57C830.41,-124.75 918.65,-125.02 976.37,-125.2"/>
<polygon fill="#63b8ff" stroke="#63b8ff" points="771.23,-121.07 761.22,-124.54 771.21,-128.07 771.23,-121.07"/>
</a>
</g>
</g>
<!-- Node21 -->
<g id="Node000021" class="node">
<title>Node21</title>
<g id="a_Node000021"><a xlink:href="../../d3/d07/a00305.html#a3c04138a5bfe5d72780bb7e82a18e627" target="_top" xlink:title=" ">
<polygon fill="white" stroke="#666666" points="1055.88,-20.75 1015.12,-20.75 1015.12,0 1055.88,0 1055.88,-20.75"/>
<text xml:space="preserve" text-anchor="middle" x="1035.5" y="-7.25" font-family="Helvetica,sans-Serif" font-size="10.00">main</text>
</a>
</g>
</g>
<!-- Node20&#45;&gt;Node21 -->
<g id="edge30_Node000020_Node000021" class="edge">
<title>Node20&#45;&gt;Node21</title>
<g id="a_edge30_Node000020_Node000021"><a xlink:title=" ">
<path fill="none" stroke="#63b8ff" d="M1118.75,-10.38C1096,-10.38 1072.19,-10.38 1056.07,-10.38"/>
<polygon fill="#63b8ff" stroke="#63b8ff" points="1118.64,-13.88 1128.64,-10.38 1118.64,-6.88 1118.64,-13.88"/>
</a>
</g>
</g>
</g>
</svg>

<g id="navigator" transform="translate(0 0)" fill="#404254">
  <rect fill="#f2f5e9" fill-opacity="0.5" stroke="#606060" stroke-width=".5" x="0" y="0" width="60" height="60"/>
  <use id="zoomplus" xlink:href="#zoomPlus" x="17" y="9" onmousedown="handleZoom(evt,'in')"/>
  <use id="zoomminus" xlink:href="#zoomMin" x="42" y="9" onmousedown="handleZoom(evt,'out')"/>
  <use id="reset" xlink:href="#resetDef" x="30" y="36" onmousedown="handleReset()"/>
   <use id="arrowup" xlink:href="#arrowUp" x="0" y="0" onmousedown="handlePan(0,-1)"/>
  <use id="arrowright" xlink:href="#arrowRight" x="0" y="0" onmousedown="handlePan(1,0)"/>
  <use id="arrowdown" xlink:href="#arrowDown" x="0" y="0" onmousedown="handlePan(0,1)"/>
  <use id="arrowleft" xlink:href="#arrowLeft" x="0" y="0" onmousedown="handlePan(-1,0)"/>
</g>
<svg viewBox="0 0 15 15" width="100%" height="30px" preserveAspectRatio="xMaxYMin meet">
 <g id="arrow_out" transform="scale(0.3 0.3)">
  <a xlink:href="a00272_a11b56c5001e3ca95f4d0a28903b29609_icgraph_org.svg" target="_base">
   <rect id="button" ry="5" rx="5" y="6" x="6" height="38" width="38"
        fill="#f2f5e9" fill-opacity="0.5" stroke="#606060" stroke-width="1.0"/>
   <path id="arrow"
     d="M 11.500037,31.436501 C 11.940474,20.09759 22.043105,11.32322 32.158766,21.979434 L 37.068811,17.246167 C 37.068811,17.246167 37.088388,32 37.088388,32 L 22.160133,31.978069 C 22.160133,31.978069 26.997745,27.140456 26.997745,27.140456 C 18.528582,18.264221 13.291696,25.230495 11.500037,31.436501 z"
     style="fill:#404040;"/>
  </a>
 </g>
</svg>

<style type='text/css'>
<![CDATA[
[data-mouse-over-selected='false'] { opacity: 0.7; }
[data-mouse-over-selected='true']  { opacity: 1.0; }
]]>
</style>
<script type="application/ecmascript"><![CDATA[
document.addEventListener('DOMContentLoaded', (event) => {
  highlightEdges();
  highlightAdjacentNodes();
});
]]></script>
</svg>
