<?xml version="1.0" encoding="UTF-8" standalone="no"?>
<!DOCTYPE svg PUBLIC "-//W3C//DTD SVG 1.1//EN"
 "http://www.w3.org/Graphics/SVG/1.1/DTD/svg11.dtd">
<!-- Generated by graphviz version 14.1.2 (0)
 -->
<!-- Title: parse_config Pages: 1 -->
<svg width="337pt" height="222pt"
 viewBox="0.00 0.00 337.00 222.00" xmlns="http://www.w3.org/2000/svg" xmlns:xlink="http://www.w3.org/1999/xlink">

<svg id="main" version="1.1" xmlns="http://www.w3.org/2000/svg" xmlns:xlink="http://www.w3.org/1999/xlink" xml:space="preserve">

<style type="text/css"><![CDATA[
.node, .edge {opacity: 0.7;}
.node.selected, .edge.selected {opacity: 1;}
.edge:hover path { stroke: red; }
.edge:hover polygon { stroke: red; fill: red; }
]]></style>
<script type="application/ecmascript" xlink:href="../../svg.min.js"/>
<svg id="graph" class="graph">
<g id="graph0" class="graph" transform="scale(1 1) rotate(0) translate(4 217.75)">
<title>parse_config</title>
<!-- Node1 -->
<g id="Node000001" class="node">
<title>Node1</title>
<g id="a_Node000001"><a xlink:title="parse the configuration file specified in init&#45;&gt;minitrc and set Init struct values accordingly">
<polygon fill="#999999" stroke="#666666" points="78.25,-116.75 0,-116.75 0,-96 78.25,-96 78.25,-116.75"/>
<text xml:space="preserve" text-anchor="middle" x="39.12" y="-103.25" font-family="Helvetica,sans-Serif" font-size="10.00">parse_config</text>
</a>
</g>
</g>
<!-- Node2 -->
<g id="Node000002" class="node">
<title>Node2</title>
<g id="a_Node000002"><a xlink:href="../../df/d95/a00299.html#a3d16b5f29cd6e5d2b5b9a6e577dba0e7" target="_top" xlink:title="Get color index from color name.">
<polygon fill="white" stroke="#666666" points="213.5,-213.75 117.25,-213.75 117.25,-193 213.5,-193 213.5,-213.75"/>
<text xml:space="preserve" text-anchor="middle" x="165.38" y="-200.25" font-family="Helvetica,sans-Serif" font-size="10.00">clr_name_to_idx</text>
</a>
</g>
</g>
<!-- Node1&#45;&gt;Node2 -->
<g id="edge1_Node000001_Node000002" class="edge">
<title>Node1&#45;&gt;Node2</title>
<g id="a_edge1_Node000001_Node000002"><a xlink:title=" ">
<path fill="none" stroke="#63b8ff" d="M48.1,-117.23C60.58,-133.56 86.23,-164.53 114.25,-183.38 116.48,-184.87 118.84,-186.29 121.27,-187.62"/>
<polygon fill="#63b8ff" stroke="#63b8ff" points="119.65,-190.72 130.17,-191.95 122.71,-184.43 119.65,-190.72"/>
</a>
</g>
</g>
<!-- Node4 -->
<g id="Node000004" class="node">
<title>Node4</title>
<g id="a_Node000004"><a xlink:href="../../dc/d5d/a00278.html#ad7f9941ba28a6cca3ccce953c4d77e32" target="_top" xlink:title="Replace Leading Tilde With Home Directory.">
<polygon fill="white" stroke="#666666" points="204.88,-135.75 125.88,-135.75 125.88,-115 204.88,-115 204.88,-135.75"/>
<text xml:space="preserve" text-anchor="middle" x="165.38" y="-122.25" font-family="Helvetica,sans-Serif" font-size="10.00">expand_tilde</text>
</a>
</g>
</g>
<!-- Node1&#45;&gt;Node4 -->
<g id="edge3_Node000001_Node000004" class="edge">
<title>Node1&#45;&gt;Node4</title>
<g id="a_edge3_Node000001_Node000004"><a xlink:title=" ">
<path fill="none" stroke="#63b8ff" d="M78.42,-112.23C89.77,-113.97 102.36,-115.89 114.34,-117.72"/>
<polygon fill="#63b8ff" stroke="#63b8ff" points="113.66,-121.16 124.07,-119.21 114.71,-114.24 113.66,-121.16"/>
</a>
</g>
</g>
<!-- Node6 -->
<g id="Node000006" class="node">
<title>Node6</title>
<g id="a_Node000006"><a xlink:href="../../dc/d5d/a00278.html#a0de2e40df9bd7efc8fd9afb8ad2257e6" target="_top" xlink:title="safer alternative to strncpy">
<polygon fill="white" stroke="#666666" points="324.38,-97.75 256.62,-97.75 256.62,-77 324.38,-77 324.38,-97.75"/>
<text xml:space="preserve" text-anchor="middle" x="290.5" y="-84.25" font-family="Helvetica,sans-Serif" font-size="10.00">strnz__cpy</text>
</a>
</g>
</g>
<!-- Node1&#45;&gt;Node6 -->
<g id="edge10_Node000001_Node000006" class="edge">
<title>Node1&#45;&gt;Node6</title>
<g id="a_edge10_Node000001_Node000006"><a xlink:title=" ">
<path fill="none" stroke="#63b8ff" d="M78.54,-103.45C123.38,-100.03 197.41,-94.39 244.79,-90.78"/>
<polygon fill="#63b8ff" stroke="#63b8ff" points="245.01,-94.27 254.72,-90.03 244.48,-87.29 245.01,-94.27"/>
</a>
</g>
</g>
<!-- Node7 -->
<g id="Node000007" class="node">
<title>Node7</title>
<g id="a_Node000007"><a xlink:href="../../d9/dd6/a00272.html#a182e8ea82f7f61825c2258be419212da" target="_top" xlink:title="Convert prompt type string to integer constant.">
<polygon fill="white" stroke="#666666" points="216.5,-174.75 114.25,-174.75 114.25,-154 216.5,-154 216.5,-174.75"/>
<text xml:space="preserve" text-anchor="middle" x="165.38" y="-161.25" font-family="Helvetica,sans-Serif" font-size="10.00">prompt_str_to_int</text>
</a>
</g>
</g>
<!-- Node1&#45;&gt;Node7 -->
<g id="edge6_Node000001_Node000007" class="edge">
<title>Node1&#45;&gt;Node7</title>
<g id="a_edge6_Node000001_Node000007"><a xlink:title=" ">
<path fill="none" stroke="#63b8ff" d="M60.01,-117.21C74.79,-125.11 95.56,-135.88 114.25,-144.38 117.81,-145.99 121.55,-147.62 125.3,-149.2"/>
<polygon fill="#63b8ff" stroke="#63b8ff" points="123.83,-152.38 134.41,-152.94 126.49,-145.91 123.83,-152.38"/>
</a>
</g>
</g>
<!-- Node8 -->
<g id="Node000008" class="node">
<title>Node8</title>
<g id="a_Node000008"><a xlink:href="../../dc/d5d/a00278.html#afba98c475b8ccba7fffaebf81eda9adf" target="_top" xlink:title="Converts String to boolean true or false.">
<polygon fill="white" stroke="#666666" points="200.38,-59.75 130.38,-59.75 130.38,-39 200.38,-39 200.38,-59.75"/>
<text xml:space="preserve" text-anchor="middle" x="165.38" y="-46.25" font-family="Helvetica,sans-Serif" font-size="10.00">str_to_bool</text>
</a>
</g>
</g>
<!-- Node1&#45;&gt;Node8 -->
<g id="edge8_Node000001_Node000008" class="edge">
<title>Node1&#45;&gt;Node8</title>
<g id="a_edge8_Node000001_Node000008"><a xlink:title=" ">
<path fill="none" stroke="#63b8ff" d="M63.79,-95.52C82.7,-86.84 109.46,-74.57 130.62,-64.86"/>
<polygon fill="#63b8ff" stroke="#63b8ff" points="131.79,-68.17 139.42,-60.82 128.88,-61.81 131.79,-68.17"/>
</a>
</g>
</g>
<!-- Node9 -->
<g id="Node000009" class="node">
<title>Node9</title>
<g id="a_Node000009"><a xlink:href="../../dc/d5d/a00278.html#a4db64c5f94e5859f353740840d85beb5" target="_top" xlink:title="converts string to double">
<polygon fill="white" stroke="#666666" points="206.38,-20.75 124.38,-20.75 124.38,0 206.38,0 206.38,-20.75"/>
<text xml:space="preserve" text-anchor="middle" x="165.38" y="-7.25" font-family="Helvetica,sans-Serif" font-size="10.00">str_to_double</text>
</a>
</g>
</g>
<!-- Node1&#45;&gt;Node9 -->
<g id="edge9_Node000001_Node000009" class="edge">
<title>Node1&#45;&gt;Node9</title>
<g id="a_edge9_Node000001_Node000009"><a xlink:title=" ">
<path fill="none" stroke="#63b8ff" d="M48.13,-95.66C60.66,-79.56 86.35,-49 114.25,-30.38 116.49,-28.88 118.85,-27.47 121.28,-26.15"/>
<polygon fill="#63b8ff" stroke="#63b8ff" points="122.72,-29.34 130.19,-21.83 119.67,-23.04 122.72,-29.34"/>
</a>
</g>
</g>
<!-- Node3 -->
<g id="Node000003" class="node">
<title>Node3</title>
<g id="a_Node000003"><a xlink:href="../../dc/d5d/a00278.html#a4fb9a5e513fb39d3dd8eadef0f2cd44b" target="_top" xlink:title="Converts a string to lowercase.">
<polygon fill="white" stroke="#666666" points="328.5,-194.75 252.5,-194.75 252.5,-174 328.5,-174 328.5,-194.75"/>
<text xml:space="preserve" text-anchor="middle" x="290.5" y="-181.25" font-family="Helvetica,sans-Serif" font-size="10.00">str_to_lower</text>
</a>
</g>
</g>
<!-- Node2&#45;&gt;Node3 -->
<g id="edge2_Node000002_Node000003" class="edge">
<title>Node2&#45;&gt;Node3</title>
<g id="a_edge2_Node000002_Node000003"><a xlink:title=" ">
<path fill="none" stroke="#63b8ff" d="M213.98,-196.03C222.92,-194.65 232.28,-193.2 241.25,-191.82"/>
<polygon fill="#63b8ff" stroke="#63b8ff" points="241.49,-195.33 250.84,-190.34 240.42,-188.41 241.49,-195.33"/>
</a>
</g>
</g>
<!-- Node5 -->
<g id="Node000005" class="node">
<title>Node5</title>
<g id="a_Node000005"><a xlink:href="../../dc/d5d/a00278.html#aa0145c044cfdde3a1c83323410a59f25" target="_top" xlink:title="safer alternative to strncat">
<polygon fill="white" stroke="#666666" points="323.25,-136.75 257.75,-136.75 257.75,-116 323.25,-116 323.25,-136.75"/>
<text xml:space="preserve" text-anchor="middle" x="290.5" y="-123.25" font-family="Helvetica,sans-Serif" font-size="10.00">strnz__cat</text>
</a>
</g>
</g>
<!-- Node4&#45;&gt;Node5 -->
<g id="edge4_Node000004_Node000005" class="edge">
<title>Node4&#45;&gt;Node5</title>
<g id="a_edge4_Node000004_Node000005"><a xlink:title=" ">
<path fill="none" stroke="#63b8ff" d="M205.33,-125.69C218.3,-125.8 232.82,-125.91 246.11,-126.02"/>
<polygon fill="#63b8ff" stroke="#63b8ff" points="245.85,-129.52 255.88,-126.1 245.91,-122.52 245.85,-129.52"/>
</a>
</g>
</g>
<!-- Node4&#45;&gt;Node6 -->
<g id="edge5_Node000004_Node000006" class="edge">
<title>Node4&#45;&gt;Node6</title>
<g id="a_edge5_Node000004_Node000006"><a xlink:title=" ">
<path fill="none" stroke="#63b8ff" d="M201.33,-114.59C215.04,-110.36 230.93,-105.45 245.41,-100.98"/>
<polygon fill="#63b8ff" stroke="#63b8ff" points="246.19,-104.41 254.71,-98.11 244.12,-97.72 246.19,-104.41"/>
</a>
</g>
</g>
<!-- Node7&#45;&gt;Node3 -->
<g id="edge7_Node000007_Node000003" class="edge">
<title>Node7&#45;&gt;Node3</title>
<g id="a_edge7_Node000007_Node000003"><a xlink:title=" ">
<path fill="none" stroke="#63b8ff" d="M216.81,-172.57C224.75,-173.86 232.95,-175.19 240.85,-176.47"/>
<polygon fill="#63b8ff" stroke="#63b8ff" points="240.22,-179.92 250.66,-178.07 241.35,-173.01 240.22,-179.92"/>
</a>
</g>
</g>
</g>
</svg>
</svg>

<style type='text/css'>
<![CDATA[
[data-mouse-over-selected='false'] { opacity: 0.7; }
[data-mouse-over-selected='true']  { opacity: 1.0; }
]]>
</style>
<script type="application/ecmascript"><![CDATA[
document.addEventListener('DOMContentLoaded', (event) => {
  highlightEdges();
  highlightAdjacentNodes();
});
]]></script>
</svg>
