<?xml version="1.0" encoding="UTF-8" standalone="no"?>
<!DOCTYPE svg PUBLIC "-//W3C//DTD SVG 1.1//EN"
 "http://www.w3.org/Graphics/SVG/1.1/DTD/svg11.dtd">
<!-- Generated by graphviz version 14.1.2 (0)
 -->
<!-- Title: parse_menu_desc.c Pages: 1 -->
<!--zoomable 256 -->

<svg id="main" version="1.1" xmlns="http://www.w3.org/2000/svg" xmlns:xlink="http://www.w3.org/1999/xlink" xml:space="preserve" onload="init(evt)">

<style type="text/css"><![CDATA[
.node, .edge {opacity: 0.7;}
.node.selected, .edge.selected {opacity: 1;}
.edge:hover path { stroke: red; }
.edge:hover polygon { stroke: red; fill: red; }
]]></style>

<defs>
  <circle id="rim" cx="0" cy="0" r="7"/>
  <circle id="rim2" cx="0" cy="0" r="3.5"/>
  <g id="zoomPlus">
    <use xlink:href="#rim" fill="#404040"><set attributeName="fill" to="#808080" begin="zoomplus.mouseover" end="zoomplus.mouseout"/></use>
    <path d="M-4,0h8M0,-4v8" fill="none" stroke="white" stroke-width="1.5" pointer-events="none"/>
  </g>
  <g id="zoomMin">
    <use xlink:href="#rim" fill="#404040"><set attributeName="fill" to="#808080" begin="zoomminus.mouseover" end="zoomminus.mouseout"/></use>
    <path d="M-4,0h8" fill="none" stroke="white" stroke-width="1.5" pointer-events="none"/>
  </g>
  <g id="arrowUp" transform="translate(30 24)">
    <use xlink:href="#rim"/>
    <path pointer-events="none" fill="none" stroke="white" stroke-width="1.5" d="M0,-3.0v7 M-2.5,-0.5L0,-3.0L2.5,-0.5"/>
  </g>
  <g id="arrowRight" transform="rotate(90) translate(36 -43)">
    <use xlink:href="#rim"/>
    <path pointer-events="none" fill="none" stroke="white" stroke-width="1.5" d="M0,-3.0v7 M-2.5,-0.5L0,-3.0L2.5,-0.5"/>
  </g>
  <g id="arrowDown" transform="rotate(180) translate(-30 -48)">
    <use xlink:href="#rim"/>
    <path pointer-events="none" fill="none" stroke="white" stroke-width="1.5" d="M0,-3.0v7 M-2.5,-0.5L0,-3.0L2.5,-0.5"/>
  </g>
  <g id="arrowLeft" transform="rotate(270) translate(-36 17)">
    <use xlink:href="#rim"/>
    <path pointer-events="none" fill="none" stroke="white" stroke-width="1.5" d="M0,-3.0v7 M-2.5,-0.5L0,-3.0L2.5,-0.5"/>
  </g>
  <g id="resetDef">
    <use xlink:href="#rim2" fill="#404040"><set attributeName="fill" to="#808080" begin="reset.mouseover" end="reset.mouseout"/></use>
  </g>
</defs>
<script type="application/ecmascript">
var viewWidth = 538;
var viewHeight = 256;
var sectionId = 'dynsection-0';
</script>
<script type="application/ecmascript" xlink:href="../../svg.min.js"/>
<svg id="graph" class="graph">
<g id="viewport">
<title>parse_menu_desc.c</title>
<!-- Node1 -->
<g id="Node000001" class="node">
<title>Node1</title>
<g id="a_Node000001"><a xlink:title="Parse menu description file and create Menu.">
<polygon fill="#999999" stroke="#666666" points="435.5,-247.75 323.5,-247.75 323.5,-227 435.5,-227 435.5,-247.75"/>
<text xml:space="preserve" text-anchor="middle" x="379.5" y="-234.25" font-family="Helvetica,sans-Serif" font-size="10.00">parse_menu_desc.c</text>
</a>
</g>
</g>
<!-- Node2 -->
<g id="Node000002" class="node">
<title>Node2</title>
<g id="a_Node000002"><a xlink:href="../../de/d55/a00323.html" target="_top" xlink:title="Headder for C&#45;Menu Menu, Form, Pick, and View components.">
<polygon fill="white" stroke="#666666" points="259.38,-191 191.62,-191 191.62,-170.25 259.38,-170.25 259.38,-191"/>
<text xml:space="preserve" text-anchor="middle" x="225.5" y="-177.5" font-family="Helvetica,sans-Serif" font-size="10.00">common.h</text>
</a>
</g>
</g>
<!-- Node1&#45;&gt;Node2 -->
<g id="edge1_Node000001_Node000002" class="edge">
<title>Node1&#45;&gt;Node2</title>
<g id="a_edge1_Node000001_Node000002"><a xlink:title=" ">
<path fill="none" stroke="#63b8ff" d="M351.97,-226.59C327.41,-217.86 291.2,-204.98 263.82,-195.25"/>
<polygon fill="#63b8ff" stroke="#63b8ff" points="265.07,-191.98 254.48,-191.93 262.73,-198.58 265.07,-191.98"/>
</a>
</g>
</g>
<!-- Node7 -->
<g id="Node000007" class="node">
<title>Node7</title>
<g id="a_Node000007"><a xlink:title=" ">
<polygon fill="#e0e0e0" stroke="#999999" points="55,-20.75 0,-20.75 0,0 55,0 55,-20.75"/>
<text xml:space="preserve" text-anchor="middle" x="27.5" y="-7.25" font-family="Helvetica,sans-Serif" font-size="10.00">stddef.h</text>
</a>
</g>
</g>
<!-- Node1&#45;&gt;Node7 -->
<g id="edge22_Node000001_Node000007" class="edge">
<title>Node1&#45;&gt;Node7</title>
<g id="a_edge22_Node000001_Node000007"><a xlink:title=" ">
<path fill="none" stroke="#63b8ff" d="M323.04,-227.66C233.98,-212.71 67.1,-179.34 29.5,-134.25 5.57,-105.55 13.45,-58.59 20.81,-31.8"/>
<polygon fill="#63b8ff" stroke="#63b8ff" points="24.08,-33.09 23.61,-22.5 17.38,-31.07 24.08,-33.09"/>
</a>
</g>
</g>
<!-- Node8 -->
<g id="Node000008" class="node">
<title>Node8</title>
<g id="a_Node000008"><a xlink:title=" ">
<polygon fill="#e0e0e0" stroke="#999999" points="406.5,-20.75 354.5,-20.75 354.5,0 406.5,0 406.5,-20.75"/>
<text xml:space="preserve" text-anchor="middle" x="380.5" y="-7.25" font-family="Helvetica,sans-Serif" font-size="10.00">stdlib.h</text>
</a>
</g>
</g>
<!-- Node1&#45;&gt;Node8 -->
<g id="edge23_Node000001_Node000008" class="edge">
<title>Node1&#45;&gt;Node8</title>
<g id="a_edge23_Node000001_Node000008"><a xlink:title=" ">
<path fill="none" stroke="#63b8ff" d="M379.54,-226.71C379.69,-192.95 380.2,-79.84 380.41,-32.5"/>
<polygon fill="#63b8ff" stroke="#63b8ff" points="383.91,-32.54 380.45,-22.52 376.91,-32.5 383.91,-32.54"/>
</a>
</g>
</g>
<!-- Node13 -->
<g id="Node000013" class="node">
<title>Node13</title>
<g id="a_Node000013"><a xlink:title=" ">
<polygon fill="#e0e0e0" stroke="#999999" points="459.5,-191 407.5,-191 407.5,-170.25 459.5,-170.25 459.5,-191"/>
<text xml:space="preserve" text-anchor="middle" x="433.5" y="-177.5" font-family="Helvetica,sans-Serif" font-size="10.00">ctype.h</text>
</a>
</g>
</g>
<!-- Node1&#45;&gt;Node13 -->
<g id="edge21_Node000001_Node000013" class="edge">
<title>Node1&#45;&gt;Node13</title>
<g id="a_edge21_Node000001_Node000013"><a xlink:title=" ">
<path fill="none" stroke="#63b8ff" d="M389.15,-226.59C396.6,-219.03 407.11,-208.39 416.02,-199.35"/>
<polygon fill="#63b8ff" stroke="#63b8ff" points="418.34,-201.98 422.87,-192.41 413.35,-197.07 418.34,-201.98"/>
</a>
</g>
</g>
<!-- Node14 -->
<g id="Node000014" class="node">
<title>Node14</title>
<g id="a_Node000014"><a xlink:title=" ">
<polygon fill="#e0e0e0" stroke="#999999" points="529.88,-191 477.12,-191 477.12,-170.25 529.88,-170.25 529.88,-191"/>
<text xml:space="preserve" text-anchor="middle" x="503.5" y="-177.5" font-family="Helvetica,sans-Serif" font-size="10.00">string.h</text>
</a>
</g>
</g>
<!-- Node1&#45;&gt;Node14 -->
<g id="edge24_Node000001_Node000014" class="edge">
<title>Node1&#45;&gt;Node14</title>
<g id="a_edge24_Node000001_Node000014"><a xlink:title=" ">
<path fill="none" stroke="#63b8ff" d="M401.67,-226.59C420.98,-218.06 449.22,-205.59 471.07,-195.94"/>
<polygon fill="#63b8ff" stroke="#63b8ff" points="472.4,-199.18 480.14,-191.94 469.58,-192.78 472.4,-199.18"/>
</a>
</g>
</g>
<!-- Node3 -->
<g id="Node000003" class="node">
<title>Node3</title>
<g id="a_Node000003"><a xlink:title=" ">
<polygon fill="#e0e0e0" stroke="#999999" points="336.12,-20.75 224.88,-20.75 224.88,0 336.12,0 336.12,-20.75"/>
<text xml:space="preserve" text-anchor="middle" x="280.5" y="-7.25" font-family="Helvetica,sans-Serif" font-size="10.00">ncursesw/ncurses.h</text>
</a>
</g>
</g>
<!-- Node2&#45;&gt;Node3 -->
<g id="edge2_Node000002_Node000003" class="edge">
<title>Node2&#45;&gt;Node3</title>
<g id="a_edge2_Node000002_Node000003"><a xlink:title=" ">
<path fill="none" stroke="#63b8ff" d="M252.23,-169.79C268.56,-162.43 288.55,-150.78 300.5,-134.25 320.96,-105.95 324.3,-89.96 313.5,-56.75 310.29,-46.87 304.03,-37.35 297.81,-29.6"/>
<polygon fill="#63b8ff" stroke="#63b8ff" points="300.65,-27.53 291.46,-22.27 295.36,-32.12 300.65,-27.53"/>
</a>
</g>
</g>
<!-- Node4 -->
<g id="Node000004" class="node">
<title>Node4</title>
<g id="a_Node000004"><a xlink:href="../../d8/d23/a00326.html" target="_top" xlink:title="Headder for C&#45;Menu API library, libcm.so.">
<polygon fill="white" stroke="#666666" points="199.5,-77.5 159.5,-77.5 159.5,-56.75 199.5,-56.75 199.5,-77.5"/>
<text xml:space="preserve" text-anchor="middle" x="179.5" y="-64" font-family="Helvetica,sans-Serif" font-size="10.00">cm.h</text>
</a>
</g>
</g>
<!-- Node2&#45;&gt;Node4 -->
<g id="edge3_Node000002_Node000004" class="edge">
<title>Node2&#45;&gt;Node4</title>
<g id="a_edge3_Node000002_Node000004"><a xlink:title=" ">
<path fill="none" stroke="#63b8ff" d="M221.58,-170.12C214.15,-152.11 197.87,-112.64 187.88,-88.43"/>
<polygon fill="#63b8ff" stroke="#63b8ff" points="191.17,-87.23 184.12,-79.32 184.7,-89.9 191.17,-87.23"/>
</a>
</g>
</g>
<!-- Node2&#45;&gt;Node7 -->
<g id="edge20_Node000002_Node000007" class="edge">
<title>Node2&#45;&gt;Node7</title>
<g id="a_edge20_Node000002_Node000007"><a xlink:title=" ">
<path fill="none" stroke="#63b8ff" d="M191.51,-175.49C145.18,-169.13 65.75,-155.42 46.5,-134.25 21.17,-106.4 21.54,-59.48 24.34,-32.39"/>
<polygon fill="#63b8ff" stroke="#63b8ff" points="27.79,-33.03 25.57,-22.67 20.84,-32.15 27.79,-33.03"/>
</a>
</g>
</g>
<!-- Node9 -->
<g id="Node000009" class="node">
<title>Node9</title>
<g id="a_Node000009"><a xlink:href="../../dd/de2/a00320.html" target="_top" xlink:title="Form data structures, enums, types, end external declarations.">
<polygon fill="white" stroke="#666666" points="275.62,-134.25 227.38,-134.25 227.38,-113.5 275.62,-113.5 275.62,-134.25"/>
<text xml:space="preserve" text-anchor="middle" x="251.5" y="-120.75" font-family="Helvetica,sans-Serif" font-size="10.00">form.h</text>
</a>
</g>
</g>
<!-- Node2&#45;&gt;Node9 -->
<g id="edge9_Node000002_Node000009" class="edge">
<title>Node2&#45;&gt;Node9</title>
<g id="a_edge9_Node000002_Node000009"><a xlink:title=" ">
<path fill="none" stroke="#63b8ff" d="M230.15,-169.84C233.44,-162.91 237.97,-153.37 242.01,-144.86"/>
<polygon fill="#63b8ff" stroke="#63b8ff" points="245.11,-146.48 246.24,-135.95 238.79,-143.48 245.11,-146.48"/>
</a>
</g>
</g>
<!-- Node10 -->
<g id="Node000010" class="node">
<title>Node10</title>
<g id="a_Node000010"><a xlink:href="../../da/de0/a00317.html" target="_top" xlink:title="Menu data structures, enums, types, end external declarations.">
<polygon fill="white" stroke="#666666" points="107.88,-134.25 55.12,-134.25 55.12,-113.5 107.88,-113.5 107.88,-134.25"/>
<text xml:space="preserve" text-anchor="middle" x="81.5" y="-120.75" font-family="Helvetica,sans-Serif" font-size="10.00">menu.h</text>
</a>
</g>
</g>
<!-- Node2&#45;&gt;Node10 -->
<g id="edge11_Node000002_Node000010" class="edge">
<title>Node2&#45;&gt;Node10</title>
<g id="a_edge11_Node000002_Node000010"><a xlink:title=" ">
<path fill="none" stroke="#63b8ff" d="M199.76,-169.84C176.92,-161.16 143.33,-148.38 117.78,-138.67"/>
<polygon fill="#63b8ff" stroke="#63b8ff" points="119.03,-135.4 108.44,-135.12 116.54,-141.94 119.03,-135.4"/>
</a>
</g>
</g>
<!-- Node11 -->
<g id="Node000011" class="node">
<title>Node11</title>
<g id="a_Node000011"><a xlink:href="../../d0/d39/a00314.html" target="_top" xlink:title="Pick data structures, enums, types, end external declarations.">
<polygon fill="white" stroke="#666666" points="171.12,-134.25 125.88,-134.25 125.88,-113.5 171.12,-113.5 171.12,-134.25"/>
<text xml:space="preserve" text-anchor="middle" x="148.5" y="-120.75" font-family="Helvetica,sans-Serif" font-size="10.00">pick.h</text>
</a>
</g>
</g>
<!-- Node2&#45;&gt;Node11 -->
<g id="edge13_Node000002_Node000011" class="edge">
<title>Node2&#45;&gt;Node11</title>
<g id="a_edge13_Node000002_Node000011"><a xlink:title=" ">
<path fill="none" stroke="#63b8ff" d="M211.73,-169.84C200.57,-161.9 184.58,-150.53 171.48,-141.21"/>
<polygon fill="#63b8ff" stroke="#63b8ff" points="173.56,-138.4 163.38,-135.46 169.5,-144.1 173.56,-138.4"/>
</a>
</g>
</g>
<!-- Node12 -->
<g id="Node000012" class="node">
<title>Node12</title>
<g id="a_Node000012"><a xlink:href="../../d5/d0f/a00308.html" target="_top" xlink:title="View data structures, enums, types, end external declarations.">
<polygon fill="white" stroke="#666666" points="304.25,-77.5 256.75,-77.5 256.75,-56.75 304.25,-56.75 304.25,-77.5"/>
<text xml:space="preserve" text-anchor="middle" x="280.5" y="-64" font-family="Helvetica,sans-Serif" font-size="10.00">view.h</text>
</a>
</g>
</g>
<!-- Node2&#45;&gt;Node12 -->
<g id="edge15_Node000002_Node000012" class="edge">
<title>Node2&#45;&gt;Node12</title>
<g id="a_edge15_Node000002_Node000012"><a xlink:title=" ">
<path fill="none" stroke="#63b8ff" d="M246.53,-169.79C260.09,-162.18 276.62,-150.25 284.5,-134.25 291.42,-120.19 289.84,-102.36 286.85,-88.76"/>
<polygon fill="#63b8ff" stroke="#63b8ff" points="290.25,-87.91 284.3,-79.15 283.48,-89.71 290.25,-87.91"/>
</a>
</g>
</g>
<!-- Node4&#45;&gt;Node3 -->
<g id="edge5_Node000004_Node000003" class="edge">
<title>Node4&#45;&gt;Node3</title>
<g id="a_edge5_Node000004_Node000003"><a xlink:title=" ">
<path fill="none" stroke="#63b8ff" d="M197.56,-56.34C212.92,-48.01 235.24,-35.91 252.86,-26.36"/>
<polygon fill="#63b8ff" stroke="#63b8ff" points="254.15,-29.64 261.27,-21.8 250.81,-23.49 254.15,-29.64"/>
</a>
</g>
</g>
<!-- Node5 -->
<g id="Node000005" class="node">
<title>Node5</title>
<g id="a_Node000005"><a xlink:href="../../d1/d5d/a00311.html" target="_top" xlink:title=" ">
<polygon fill="white" stroke="#666666" points="134,-20.75 73,-20.75 73,0 134,0 134,-20.75"/>
<text xml:space="preserve" text-anchor="middle" x="103.5" y="-7.25" font-family="Helvetica,sans-Serif" font-size="10.00">version.h</text>
</a>
</g>
</g>
<!-- Node4&#45;&gt;Node5 -->
<g id="edge4_Node000004_Node000005" class="edge">
<title>Node4&#45;&gt;Node5</title>
<g id="a_edge4_Node000004_Node000005"><a xlink:title=" ">
<path fill="none" stroke="#63b8ff" d="M165.91,-56.34C154.89,-48.4 139.11,-37.03 126.18,-27.71"/>
<polygon fill="#63b8ff" stroke="#63b8ff" points="128.36,-24.97 118.2,-21.96 124.27,-30.65 128.36,-24.97"/>
</a>
</g>
</g>
<!-- Node6 -->
<g id="Node000006" class="node">
<title>Node6</title>
<g id="a_Node000006"><a xlink:title=" ">
<polygon fill="#e0e0e0" stroke="#999999" points="206.62,-20.75 152.38,-20.75 152.38,0 206.62,0 206.62,-20.75"/>
<text xml:space="preserve" text-anchor="middle" x="179.5" y="-7.25" font-family="Helvetica,sans-Serif" font-size="10.00">signal.h</text>
</a>
</g>
</g>
<!-- Node4&#45;&gt;Node6 -->
<g id="edge6_Node000004_Node000006" class="edge">
<title>Node4&#45;&gt;Node6</title>
<g id="a_edge6_Node000004_Node000006"><a xlink:title=" ">
<path fill="none" stroke="#63b8ff" d="M179.5,-56.34C179.5,-49.72 179.5,-40.72 179.5,-32.52"/>
<polygon fill="#63b8ff" stroke="#63b8ff" points="183,-32.59 179.5,-22.59 176,-32.59 183,-32.59"/>
</a>
</g>
</g>
<!-- Node4&#45;&gt;Node7 -->
<g id="edge7_Node000004_Node000007" class="edge">
<title>Node4&#45;&gt;Node7</title>
<g id="a_edge7_Node000004_Node000007"><a xlink:title=" ">
<path fill="none" stroke="#63b8ff" d="M159,-58.74C135.14,-50.15 95.25,-35.78 65.64,-25.11"/>
<polygon fill="#63b8ff" stroke="#63b8ff" points="66.87,-21.84 56.28,-21.74 64.5,-28.42 66.87,-21.84"/>
</a>
</g>
</g>
<!-- Node4&#45;&gt;Node8 -->
<g id="edge8_Node000004_Node000008" class="edge">
<title>Node4&#45;&gt;Node8</title>
<g id="a_edge8_Node000004_Node000008"><a xlink:title=" ">
<path fill="none" stroke="#63b8ff" d="M199.88,-60.57C233.43,-51.43 300.79,-33.09 343.1,-21.56"/>
<polygon fill="#63b8ff" stroke="#63b8ff" points="343.87,-24.98 352.6,-18.98 342.03,-18.23 343.87,-24.98"/>
</a>
</g>
</g>
<!-- Node9&#45;&gt;Node4 -->
<g id="edge10_Node000009_Node000004" class="edge">
<title>Node9&#45;&gt;Node4</title>
<g id="a_edge10_Node000009_Node000004"><a xlink:title=" ">
<path fill="none" stroke="#63b8ff" d="M238.63,-113.09C228.29,-105.22 213.53,-94 201.35,-84.74"/>
<polygon fill="#63b8ff" stroke="#63b8ff" points="203.54,-82.01 193.47,-78.74 199.31,-87.58 203.54,-82.01"/>
</a>
</g>
</g>
<!-- Node10&#45;&gt;Node4 -->
<g id="edge12_Node000010_Node000004" class="edge">
<title>Node10&#45;&gt;Node4</title>
<g id="a_edge12_Node000010_Node000004"><a xlink:title=" ">
<path fill="none" stroke="#63b8ff" d="M99.02,-113.09C113.79,-104.83 135.18,-92.88 152.2,-83.38"/>
<polygon fill="#63b8ff" stroke="#63b8ff" points="153.79,-86.5 160.81,-78.57 150.37,-80.39 153.79,-86.5"/>
</a>
</g>
</g>
<!-- Node11&#45;&gt;Node4 -->
<g id="edge14_Node000011_Node000004" class="edge">
<title>Node11&#45;&gt;Node4</title>
<g id="a_edge14_Node000011_Node000004"><a xlink:title=" ">
<path fill="none" stroke="#63b8ff" d="M154.04,-113.09C158.01,-106.08 163.49,-96.41 168.34,-87.83"/>
<polygon fill="#63b8ff" stroke="#63b8ff" points="171.38,-89.57 173.26,-79.15 165.29,-86.12 171.38,-89.57"/>
</a>
</g>
</g>
<!-- Node12&#45;&gt;Node3 -->
<g id="edge16_Node000012_Node000003" class="edge">
<title>Node12&#45;&gt;Node3</title>
<g id="a_edge16_Node000012_Node000003"><a xlink:title=" ">
<path fill="none" stroke="#63b8ff" d="M280.5,-56.34C280.5,-49.72 280.5,-40.72 280.5,-32.52"/>
<polygon fill="#63b8ff" stroke="#63b8ff" points="284,-32.59 280.5,-22.59 277,-32.59 284,-32.59"/>
</a>
</g>
</g>
<!-- Node12&#45;&gt;Node6 -->
<g id="edge17_Node000012_Node000006" class="edge">
<title>Node12&#45;&gt;Node6</title>
<g id="a_edge17_Node000012_Node000006"><a xlink:title=" ">
<path fill="none" stroke="#63b8ff" d="M262.44,-56.34C247.08,-48.01 224.76,-35.91 207.14,-26.36"/>
<polygon fill="#63b8ff" stroke="#63b8ff" points="209.19,-23.49 198.73,-21.8 205.85,-29.64 209.19,-23.49"/>
</a>
</g>
</g>
<!-- Node12&#45;&gt;Node7 -->
<g id="edge18_Node000012_Node000007" class="edge">
<title>Node12&#45;&gt;Node7</title>
<g id="a_edge18_Node000012_Node000007"><a xlink:title=" ">
<path fill="none" stroke="#63b8ff" d="M256.33,-61.47C218.05,-54.01 140.88,-38.63 66.35,-21.34"/>
<polygon fill="#63b8ff" stroke="#63b8ff" points="67.38,-17.99 56.85,-19.12 65.79,-24.81 67.38,-17.99"/>
</a>
</g>
</g>
<!-- Node12&#45;&gt;Node8 -->
<g id="edge19_Node000012_Node000008" class="edge">
<title>Node12&#45;&gt;Node8</title>
<g id="a_edge19_Node000012_Node000008"><a xlink:title=" ">
<path fill="none" stroke="#63b8ff" d="M298.38,-56.34C313.59,-48.01 335.69,-35.91 353.13,-26.36"/>
<polygon fill="#63b8ff" stroke="#63b8ff" points="354.36,-29.68 361.45,-21.81 351,-23.54 354.36,-29.68"/>
</a>
</g>
</g>
</g>
</svg>

<g id="navigator" transform="translate(0 0)" fill="#404254">
  <rect fill="#f2f5e9" fill-opacity="0.5" stroke="#606060" stroke-width=".5" x="0" y="0" width="60" height="60"/>
  <use id="zoomplus" xlink:href="#zoomPlus" x="17" y="9" onmousedown="handleZoom(evt,'in')"/>
  <use id="zoomminus" xlink:href="#zoomMin" x="42" y="9" onmousedown="handleZoom(evt,'out')"/>
  <use id="reset" xlink:href="#resetDef" x="30" y="36" onmousedown="handleReset()"/>
   <use id="arrowup" xlink:href="#arrowUp" x="0" y="0" onmousedown="handlePan(0,-1)"/>
  <use id="arrowright" xlink:href="#arrowRight" x="0" y="0" onmousedown="handlePan(1,0)"/>
  <use id="arrowdown" xlink:href="#arrowDown" x="0" y="0" onmousedown="handlePan(0,1)"/>
  <use id="arrowleft" xlink:href="#arrowLeft" x="0" y="0" onmousedown="handlePan(-1,0)"/>
</g>
<svg viewBox="0 0 15 15" width="100%" height="30px" preserveAspectRatio="xMaxYMin meet">
 <g id="arrow_out" transform="scale(0.3 0.3)">
  <a xlink:href="a00246_org.svg" target="_base">
   <rect id="button" ry="5" rx="5" y="6" x="6" height="38" width="38"
        fill="#f2f5e9" fill-opacity="0.5" stroke="#606060" stroke-width="1.0"/>
   <path id="arrow"
     d="M 11.500037,31.436501 C 11.940474,20.09759 22.043105,11.32322 32.158766,21.979434 L 37.068811,17.246167 C 37.068811,17.246167 37.088388,32 37.088388,32 L 22.160133,31.978069 C 22.160133,31.978069 26.997745,27.140456 26.997745,27.140456 C 18.528582,18.264221 13.291696,25.230495 11.500037,31.436501 z"
     style="fill:#404040;"/>
  </a>
 </g>
</svg>

<style type='text/css'>
<![CDATA[
[data-mouse-over-selected='false'] { opacity: 0.7; }
[data-mouse-over-selected='true']  { opacity: 1.0; }
]]>
</style>
<script type="application/ecmascript"><![CDATA[
document.addEventListener('DOMContentLoaded', (event) => {
  highlightEdges();
  highlightAdjacentNodes();
});
]]></script>
</svg>
