<?xml version="1.0" encoding="UTF-8" standalone="no"?>
<!DOCTYPE svg PUBLIC "-//W3C//DTD SVG 1.1//EN"
 "http://www.w3.org/Graphics/SVG/1.1/DTD/svg11.dtd">
<!-- Generated by graphviz version 14.1.2 (0)
 -->
<!-- Title: enterstr.c Pages: 1 -->
<svg width="503pt" height="86pt"
 viewBox="0.00 0.00 503.00 86.00" xmlns="http://www.w3.org/2000/svg" xmlns:xlink="http://www.w3.org/1999/xlink">
<g id="graph0" class="graph" transform="scale(1 1) rotate(0) translate(4 81.5)">
<title>enterstr.c</title>
<!-- Node1 -->
<g id="Node000001" class="node">
<title>Node1</title>
<g id="a_Node000001"><a xlink:title="Enter a string from keyboard.">
<polygon fill="#999999" stroke="#666666" points="262.25,-77.5 199.75,-77.5 199.75,-56.75 262.25,-56.75 262.25,-77.5"/>
<text xml:space="preserve" text-anchor="middle" x="231" y="-64" font-family="Helvetica,sans-Serif" font-size="10.00">enterstr.c</text>
</a>
</g>
</g>
<!-- Node2 -->
<g id="Node000002" class="node">
<title>Node2</title>
<g id="a_Node000002"><a xlink:title=" ">
<polygon fill="#e0e0e0" stroke="#999999" points="40,-20.75 0,-20.75 0,0 40,0 40,-20.75"/>
<text xml:space="preserve" text-anchor="middle" x="20" y="-7.25" font-family="Helvetica,sans-Serif" font-size="10.00">cm.h</text>
</a>
</g>
</g>
<!-- Node1&#45;&gt;Node2 -->
<g id="edge1_Node000001_Node000002" class="edge">
<title>Node1&#45;&gt;Node2</title>
<g id="a_edge1_Node000001_Node000002"><a xlink:title=" ">
<path fill="none" stroke="#63b8ff" d="M199.26,-58.91C164.94,-50.95 108.41,-37.41 50.96,-21.17"/>
<polygon fill="#63b8ff" stroke="#63b8ff" points="52.26,-17.9 41.68,-18.52 50.34,-24.63 52.26,-17.9"/>
</a>
</g>
</g>
<!-- Node3 -->
<g id="Node000003" class="node">
<title>Node3</title>
<g id="a_Node000003"><a xlink:title=" ">
<polygon fill="#e0e0e0" stroke="#999999" points="119.5,-20.75 58.5,-20.75 58.5,0 119.5,0 119.5,-20.75"/>
<text xml:space="preserve" text-anchor="middle" x="89" y="-7.25" font-family="Helvetica,sans-Serif" font-size="10.00">stdbool.h</text>
</a>
</g>
</g>
<!-- Node1&#45;&gt;Node3 -->
<g id="edge2_Node000001_Node000003" class="edge">
<title>Node1&#45;&gt;Node3</title>
<g id="a_edge2_Node000001_Node000003"><a xlink:title=" ">
<path fill="none" stroke="#63b8ff" d="M205.61,-56.34C183.1,-47.66 149.97,-34.88 124.77,-25.17"/>
<polygon fill="#63b8ff" stroke="#63b8ff" points="126.17,-21.95 115.58,-21.62 123.65,-28.49 126.17,-21.95"/>
</a>
</g>
</g>
<!-- Node4 -->
<g id="Node000004" class="node">
<title>Node4</title>
<g id="a_Node000004"><a xlink:title=" ">
<polygon fill="#e0e0e0" stroke="#999999" points="186.5,-20.75 137.5,-20.75 137.5,0 186.5,0 186.5,-20.75"/>
<text xml:space="preserve" text-anchor="middle" x="162" y="-7.25" font-family="Helvetica,sans-Serif" font-size="10.00">stdio.h</text>
</a>
</g>
</g>
<!-- Node1&#45;&gt;Node4 -->
<g id="edge3_Node000001_Node000004" class="edge">
<title>Node1&#45;&gt;Node4</title>
<g id="a_edge3_Node000001_Node000004"><a xlink:title=" ">
<path fill="none" stroke="#63b8ff" d="M218.66,-56.34C208.75,-48.47 194.61,-37.25 182.94,-27.99"/>
<polygon fill="#63b8ff" stroke="#63b8ff" points="185.42,-25.49 175.41,-22.02 181.07,-30.98 185.42,-25.49"/>
</a>
</g>
</g>
<!-- Node5 -->
<g id="Node000005" class="node">
<title>Node5</title>
<g id="a_Node000005"><a xlink:title=" ">
<polygon fill="#e0e0e0" stroke="#999999" points="257.38,-20.75 204.62,-20.75 204.62,0 257.38,0 257.38,-20.75"/>
<text xml:space="preserve" text-anchor="middle" x="231" y="-7.25" font-family="Helvetica,sans-Serif" font-size="10.00">string.h</text>
</a>
</g>
</g>
<!-- Node1&#45;&gt;Node5 -->
<g id="edge4_Node000001_Node000005" class="edge">
<title>Node1&#45;&gt;Node5</title>
<g id="a_edge4_Node000001_Node000005"><a xlink:title=" ">
<path fill="none" stroke="#63b8ff" d="M231,-56.34C231,-49.72 231,-40.72 231,-32.52"/>
<polygon fill="#63b8ff" stroke="#63b8ff" points="234.5,-32.59 231,-22.59 227.5,-32.59 234.5,-32.59"/>
</a>
</g>
</g>
<!-- Node6 -->
<g id="Node000006" class="node">
<title>Node6</title>
<g id="a_Node000006"><a xlink:title=" ">
<polygon fill="#e0e0e0" stroke="#999999" points="340.75,-20.75 275.25,-20.75 275.25,0 340.75,0 340.75,-20.75"/>
<text xml:space="preserve" text-anchor="middle" x="308" y="-7.25" font-family="Helvetica,sans-Serif" font-size="10.00">sys/ioctl.h</text>
</a>
</g>
</g>
<!-- Node1&#45;&gt;Node6 -->
<g id="edge5_Node000001_Node000006" class="edge">
<title>Node1&#45;&gt;Node6</title>
<g id="a_edge5_Node000001_Node000006"><a xlink:title=" ">
<path fill="none" stroke="#63b8ff" d="M244.77,-56.34C255.93,-48.4 271.92,-37.03 285.02,-27.71"/>
<polygon fill="#63b8ff" stroke="#63b8ff" points="287,-30.6 293.12,-21.96 282.94,-24.9 287,-30.6"/>
</a>
</g>
</g>
<!-- Node7 -->
<g id="Node000007" class="node">
<title>Node7</title>
<g id="a_Node000007"><a xlink:title=" ">
<polygon fill="#e0e0e0" stroke="#999999" points="421.25,-20.75 358.75,-20.75 358.75,0 421.25,0 421.25,-20.75"/>
<text xml:space="preserve" text-anchor="middle" x="390" y="-7.25" font-family="Helvetica,sans-Serif" font-size="10.00">termios.h</text>
</a>
</g>
</g>
<!-- Node1&#45;&gt;Node7 -->
<g id="edge6_Node000001_Node000007" class="edge">
<title>Node1&#45;&gt;Node7</title>
<g id="a_edge6_Node000001_Node000007"><a xlink:title=" ">
<path fill="none" stroke="#63b8ff" d="M259.43,-56.34C284.9,-47.57 322.5,-34.62 350.82,-24.87"/>
<polygon fill="#63b8ff" stroke="#63b8ff" points="351.81,-28.23 360.12,-21.66 349.53,-21.61 351.81,-28.23"/>
</a>
</g>
</g>
<!-- Node8 -->
<g id="Node000008" class="node">
<title>Node8</title>
<g id="a_Node000008"><a xlink:title=" ">
<polygon fill="#e0e0e0" stroke="#999999" points="494.5,-20.75 439.5,-20.75 439.5,0 494.5,0 494.5,-20.75"/>
<text xml:space="preserve" text-anchor="middle" x="467" y="-7.25" font-family="Helvetica,sans-Serif" font-size="10.00">unistd.h</text>
</a>
</g>
</g>
<!-- Node1&#45;&gt;Node8 -->
<g id="edge7_Node000001_Node000008" class="edge">
<title>Node1&#45;&gt;Node8</title>
<g id="a_edge7_Node000001_Node000008"><a xlink:title=" ">
<path fill="none" stroke="#63b8ff" d="M262.42,-59.21C299.61,-50.96 363.7,-36.59 428.34,-21.11"/>
<polygon fill="#63b8ff" stroke="#63b8ff" points="428.76,-24.6 437.67,-18.86 427.12,-17.8 428.76,-24.6"/>
</a>
</g>
</g>
</g>
</svg>
