<?xml version="1.0" encoding="UTF-8" standalone="no"?>
<!DOCTYPE svg PUBLIC "-//W3C//DTD SVG 1.1//EN"
 "http://www.w3.org/Graphics/SVG/1.1/DTD/svg11.dtd">
<!-- Generated by graphviz version 14.1.2 (0)
 -->
<!-- Title: init_view_boxwin Pages: 1 -->
<svg width="1108pt" height="325pt"
 viewBox="0.00 0.00 1108.00 325.00" xmlns="http://www.w3.org/2000/svg" xmlns:xlink="http://www.w3.org/1999/xlink">
<g id="graph0" class="graph" transform="scale(1 1) rotate(0) translate(4 320.75)">
<title>init_view_boxwin</title>
<!-- Node1 -->
<g id="Node000001" class="node">
<title>Node1</title>
<g id="a_Node000001"><a xlink:title="Initialize the C&#45;Menu View in box window mode.">
<polygon fill="#999999" stroke="#666666" points="1100.25,-163.75 999.5,-163.75 999.5,-143 1100.25,-143 1100.25,-163.75"/>
<text xml:space="preserve" text-anchor="middle" x="1049.88" y="-150.25" font-family="Helvetica,sans-Serif" font-size="10.00">init_view_boxwin</text>
</a>
</g>
</g>
<!-- Node2 -->
<g id="Node000002" class="node">
<title>Node2</title>
<g id="a_Node000002"><a xlink:href="../../d2/d98/mview_8c.html#a75a4e7afc9c9aafd3d35ab706f5fdc71" target="_top" xlink:title="subprogram entry point for C&#45;Menu View">
<polygon fill="white" stroke="#666666" points="963.5,-163.75 914.5,-163.75 914.5,-143 963.5,-143 963.5,-163.75"/>
<text xml:space="preserve" text-anchor="middle" x="939" y="-150.25" font-family="Helvetica,sans-Serif" font-size="10.00">mview</text>
</a>
</g>
</g>
<!-- Node1&#45;&gt;Node2 -->
<g id="edge1_Node000001_Node000002" class="edge">
<title>Node1&#45;&gt;Node2</title>
<g id="a_edge1_Node000001_Node000002"><a xlink:title=" ">
<path fill="none" stroke="#63b8ff" d="M987.92,-153.37C979.37,-153.37 971.03,-153.37 963.77,-153.37"/>
<polygon fill="#63b8ff" stroke="#63b8ff" points="987.7,-156.87 997.7,-153.37 987.7,-149.87 987.7,-156.87"/>
</a>
</g>
</g>
<!-- Node3 -->
<g id="Node000003" class="node">
<title>Node3</title>
<g id="a_Node000003"><a xlink:href="../../db/ddc/pick__engine_8c.html#aeebc4c0b94ca97d753e10a0cd1798730" target="_top" xlink:title="Displays the help screen for the pick interface using mview.">
<polygon fill="white" stroke="#666666" points="878.5,-277.75 775.5,-277.75 775.5,-257 878.5,-257 878.5,-277.75"/>
<text xml:space="preserve" text-anchor="middle" x="827" y="-264.25" font-family="Helvetica,sans-Serif" font-size="10.00">display_pick_help</text>
</a>
</g>
</g>
<!-- Node2&#45;&gt;Node3 -->
<g id="edge2_Node000002_Node000003" class="edge">
<title>Node2&#45;&gt;Node3</title>
<g id="a_edge2_Node000002_Node000003"><a xlink:title=" ">
<path fill="none" stroke="#63b8ff" d="M928.32,-174.35C918.25,-194.27 900.83,-223.98 878.5,-243.37 872.42,-248.65 864.97,-253.03 857.68,-256.54"/>
<polygon fill="#63b8ff" stroke="#63b8ff" points="931.39,-176.05 932.6,-165.52 925.09,-172.99 931.39,-176.05"/>
</a>
</g>
</g>
<!-- Node8 -->
<g id="Node000008" class="node">
<title>Node8</title>
<g id="a_Node000008"><a xlink:href="../../d6/d18/menu__engine_8c.html#aa5d0e30e7036b72b51c843d0a7e486a1" target="_top" xlink:title="Processes user input for the menu system.">
<polygon fill="white" stroke="#666666" points="317.25,-238.75 194.75,-238.75 194.75,-218 317.25,-218 317.25,-238.75"/>
<text xml:space="preserve" text-anchor="middle" x="256" y="-225.25" font-family="Helvetica,sans-Serif" font-size="10.00">menu_cmd_processor</text>
</a>
</g>
</g>
<!-- Node2&#45;&gt;Node8 -->
<g id="edge23_Node000002_Node000008" class="edge">
<title>Node2&#45;&gt;Node8</title>
<g id="a_edge23_Node000002_Node000008"><a xlink:title=" ">
<path fill="none" stroke="#63b8ff" d="M907.27,-169.12C860.91,-191.38 769.75,-229.37 687.5,-229.37 687.5,-229.37 687.5,-229.37 551.38,-229.37 470.5,-229.37 377.12,-228.99 317.61,-228.7"/>
<polygon fill="#63b8ff" stroke="#63b8ff" points="908.73,-172.31 916.17,-164.76 905.65,-166.02 908.73,-172.31"/>
</a>
</g>
</g>
<!-- Node11 -->
<g id="Node000011" class="node">
<title>Node11</title>
<g id="a_Node000011"><a xlink:href="../../db/ddc/pick__engine_8c.html#af7fcbb1c8b67a4d11c86ba7209f397c2" target="_top" xlink:title="Executes specified command with selected objects as arguments.">
<polygon fill="white" stroke="#666666" points="866.88,-316.75 787.12,-316.75 787.12,-296 866.88,-296 866.88,-316.75"/>
<text xml:space="preserve" text-anchor="middle" x="827" y="-303.25" font-family="Helvetica,sans-Serif" font-size="10.00">exec_objects</text>
</a>
</g>
</g>
<!-- Node2&#45;&gt;Node11 -->
<g id="edge11_Node000002_Node000011" class="edge">
<title>Node2&#45;&gt;Node11</title>
<g id="a_edge11_Node000002_Node000011"><a xlink:title=" ">
<path fill="none" stroke="#63b8ff" d="M933.71,-174.83C926.86,-203.83 910.8,-255.45 878.5,-286.37 874.69,-290.02 870.12,-293.03 865.32,-295.51"/>
<polygon fill="#63b8ff" stroke="#63b8ff" points="937.06,-175.91 935.78,-165.39 930.22,-174.41 937.06,-175.91"/>
</a>
</g>
</g>
<!-- Node12 -->
<g id="Node000012" class="node">
<title>Node12</title>
<g id="a_Node000012"><a xlink:href="../../d3/dee/form__engine_8c.html#ada302551bf41bf8ed6132fd34328a47e" target="_top" xlink:title="Form main processing loop.">
<polygon fill="white" stroke="#666666" points="865.75,-163.75 788.25,-163.75 788.25,-143 865.75,-143 865.75,-163.75"/>
<text xml:space="preserve" text-anchor="middle" x="827" y="-150.25" font-family="Helvetica,sans-Serif" font-size="10.00">form_engine</text>
</a>
</g>
</g>
<!-- Node2&#45;&gt;Node12 -->
<g id="edge13_Node000002_Node000012" class="edge">
<title>Node2&#45;&gt;Node12</title>
<g id="a_edge13_Node000002_Node000012"><a xlink:title=" ">
<path fill="none" stroke="#63b8ff" d="M902.95,-153.37C891.21,-153.37 878.06,-153.37 866.09,-153.37"/>
<polygon fill="#63b8ff" stroke="#63b8ff" points="902.62,-156.87 912.62,-153.37 902.62,-149.87 902.62,-156.87"/>
</a>
</g>
</g>
<!-- Node17 -->
<g id="Node000017" class="node">
<title>Node17</title>
<g id="a_Node000017"><a xlink:href="../../da/d97/view_8c.html#a3c04138a5bfe5d72780bb7e82a18e627" target="_top" xlink:title=" ">
<polygon fill="white" stroke="#666666" points="138.12,-29.75 97.38,-29.75 97.38,-9 138.12,-9 138.12,-29.75"/>
<text xml:space="preserve" text-anchor="middle" x="117.75" y="-16.25" font-family="Helvetica,sans-Serif" font-size="10.00">main</text>
</a>
</g>
</g>
<!-- Node2&#45;&gt;Node17 -->
<g id="edge22_Node000002_Node000017" class="edge">
<title>Node2&#45;&gt;Node17</title>
<g id="a_edge22_Node000002_Node000017"><a xlink:title=" ">
<path fill="none" stroke="#63b8ff" d="M931.7,-131.87C923.46,-107.63 906.66,-68.79 878.5,-47.37 808.92,5.56 774.92,-0.37 687.5,-0.37 687.5,-0.37 687.5,-0.37 411.25,-0.37 308.46,-0.37 185.77,-12.2 138.58,-17.19"/>
<polygon fill="#63b8ff" stroke="#63b8ff" points="928.33,-132.84 934.69,-141.32 935,-130.73 928.33,-132.84"/>
</a>
</g>
</g>
<!-- Node19 -->
<g id="Node000019" class="node">
<title>Node19</title>
<g id="a_Node000019"><a xlink:href="../../d0/d8e/view__engine_8c.html#ad997ba9f8591568c77291fb1b44601b2" target="_top" xlink:title="Display View Help File.">
<polygon fill="white" stroke="#666666" points="739.5,-96.75 633.5,-96.75 633.5,-76 739.5,-76 739.5,-96.75"/>
<text xml:space="preserve" text-anchor="middle" x="686.5" y="-83.25" font-family="Helvetica,sans-Serif" font-size="10.00">view_display_help</text>
</a>
</g>
</g>
<!-- Node2&#45;&gt;Node19 -->
<g id="edge24_Node000002_Node000019" class="edge">
<title>Node2&#45;&gt;Node19</title>
<g id="a_edge24_Node000002_Node000019"><a xlink:title=" ">
<path fill="none" stroke="#63b8ff" d="M903.13,-141.83C895.07,-139.28 886.51,-136.65 878.5,-134.37 829.51,-120.41 772.84,-106.44 734.03,-97.2"/>
<polygon fill="#63b8ff" stroke="#63b8ff" points="902.04,-145.16 912.63,-144.89 904.19,-138.49 902.04,-145.16"/>
</a>
</g>
</g>
<!-- Node4 -->
<g id="Node000004" class="node">
<title>Node4</title>
<g id="a_Node000004"><a xlink:href="../../db/ddc/pick__engine_8c.html#abb0969a6d1c7e78be46c3b325754c802" target="_top" xlink:title="Main loop to handle user input and interactions for pick interface.">
<polygon fill="white" stroke="#666666" points="709.12,-277.75 663.88,-277.75 663.88,-257 709.12,-257 709.12,-277.75"/>
<text xml:space="preserve" text-anchor="middle" x="686.5" y="-264.25" font-family="Helvetica,sans-Serif" font-size="10.00">picker</text>
</a>
</g>
</g>
<!-- Node3&#45;&gt;Node4 -->
<g id="edge3_Node000003_Node000004" class="edge">
<title>Node3&#45;&gt;Node4</title>
<g id="a_edge3_Node000003_Node000004"><a xlink:title=" ">
<path fill="none" stroke="#63b8ff" d="M763.86,-267.37C744.34,-267.37 724.07,-267.37 709.32,-267.37"/>
<polygon fill="#63b8ff" stroke="#63b8ff" points="763.7,-270.87 773.7,-267.37 763.7,-263.87 763.7,-270.87"/>
</a>
</g>
</g>
<!-- Node5 -->
<g id="Node000005" class="node">
<title>Node5</title>
<g id="a_Node000005"><a xlink:href="../../db/ddc/pick__engine_8c.html#ab97dcab41017c5132f52b682437a151e" target="_top" xlink:title="Initializes pick interface, calculates window size and position, and enters picker loop.">
<polygon fill="white" stroke="#666666" points="589.62,-277.75 515.12,-277.75 515.12,-257 589.62,-257 589.62,-277.75"/>
<text xml:space="preserve" text-anchor="middle" x="552.38" y="-264.25" font-family="Helvetica,sans-Serif" font-size="10.00">pick_engine</text>
</a>
</g>
</g>
<!-- Node4&#45;&gt;Node5 -->
<g id="edge4_Node000004_Node000005" class="edge">
<title>Node4&#45;&gt;Node5</title>
<g id="a_edge4_Node000004_Node000005"><a xlink:title=" ">
<path fill="none" stroke="#63b8ff" d="M652.03,-267.37C633.12,-267.37 609.47,-267.37 590.06,-267.37"/>
<polygon fill="#63b8ff" stroke="#63b8ff" points="651.87,-270.87 661.87,-267.37 651.87,-263.87 651.87,-270.87"/>
</a>
</g>
</g>
<!-- Node6 -->
<g id="Node000006" class="node">
<title>Node6</title>
<g id="a_Node000006"><a xlink:href="../../db/ddc/pick__engine_8c.html#a1b2ee87543245e612c1710ea58930a17" target="_top" xlink:title="Initializes pick structure and opens pick input file or pipe.">
<polygon fill="white" stroke="#666666" points="440.88,-277.75 383.62,-277.75 383.62,-257 440.88,-257 440.88,-277.75"/>
<text xml:space="preserve" text-anchor="middle" x="412.25" y="-264.25" font-family="Helvetica,sans-Serif" font-size="10.00">init_pick</text>
</a>
</g>
</g>
<!-- Node5&#45;&gt;Node6 -->
<g id="edge5_Node000005_Node000006" class="edge">
<title>Node5&#45;&gt;Node6</title>
<g id="a_edge5_Node000005_Node000006"><a xlink:title=" ">
<path fill="none" stroke="#63b8ff" d="M503.24,-267.37C482.55,-267.37 459.09,-267.37 441.31,-267.37"/>
<polygon fill="#63b8ff" stroke="#63b8ff" points="503.21,-270.87 513.21,-267.37 503.21,-263.87 503.21,-270.87"/>
</a>
</g>
</g>
<!-- Node7 -->
<g id="Node000007" class="node">
<title>Node7</title>
<g id="a_Node000007"><a xlink:href="../../de/d7c/pick_8c.html#a3c04138a5bfe5d72780bb7e82a18e627" target="_top" xlink:title=" ">
<polygon fill="white" stroke="#666666" points="276.38,-277.75 235.62,-277.75 235.62,-257 276.38,-257 276.38,-277.75"/>
<text xml:space="preserve" text-anchor="middle" x="256" y="-264.25" font-family="Helvetica,sans-Serif" font-size="10.00">main</text>
</a>
</g>
</g>
<!-- Node6&#45;&gt;Node7 -->
<g id="edge6_Node000006_Node000007" class="edge">
<title>Node6&#45;&gt;Node7</title>
<g id="a_edge6_Node000006_Node000007"><a xlink:title=" ">
<path fill="none" stroke="#63b8ff" d="M372.17,-267.37C341.59,-267.37 300.36,-267.37 276.43,-267.37"/>
<polygon fill="#63b8ff" stroke="#63b8ff" points="371.8,-270.87 381.8,-267.37 371.8,-263.87 371.8,-270.87"/>
</a>
</g>
</g>
<!-- Node6&#45;&gt;Node8 -->
<g id="edge7_Node000006_Node000008" class="edge">
<title>Node6&#45;&gt;Node8</title>
<g id="a_edge7_Node000006_Node000008"><a xlink:title=" ">
<path fill="none" stroke="#63b8ff" d="M372.33,-257.53C350.25,-251.95 322.57,-244.95 299.87,-239.21"/>
<polygon fill="#63b8ff" stroke="#63b8ff" points="371.3,-260.88 381.85,-259.94 373.01,-254.09 371.3,-260.88"/>
</a>
</g>
</g>
<!-- Node9 -->
<g id="Node000009" class="node">
<title>Node9</title>
<g id="a_Node000009"><a xlink:href="../../d6/d18/menu__engine_8c.html#a7d7973d7aac92759dcc86ec52bb038f4" target="_top" xlink:title="The main loop of the menu system.">
<polygon fill="white" stroke="#666666" points="158.75,-238.75 76.75,-238.75 76.75,-218 158.75,-218 158.75,-238.75"/>
<text xml:space="preserve" text-anchor="middle" x="117.75" y="-225.25" font-family="Helvetica,sans-Serif" font-size="10.00">menu_engine</text>
</a>
</g>
</g>
<!-- Node8&#45;&gt;Node9 -->
<g id="edge8_Node000008_Node000009" class="edge">
<title>Node8&#45;&gt;Node9</title>
<g id="a_edge8_Node000008_Node000009"><a xlink:title=" ">
<path fill="none" stroke="#63b8ff" d="M183.2,-221.63C174.96,-221.67 166.79,-221.84 159.17,-222.14"/>
<polygon fill="#63b8ff" stroke="#63b8ff" points="182.92,-225.13 192.93,-221.65 182.94,-218.13 182.92,-225.13"/>
</a>
</g>
</g>
<!-- Node9&#45;&gt;Node8 -->
<g id="edge10_Node000009_Node000008" class="edge">
<title>Node9&#45;&gt;Node8</title>
<g id="a_edge10_Node000009_Node000008"><a xlink:title=" ">
<path fill="none" stroke="#63b8ff" d="M170.68,-234.95C178.45,-235.12 186.52,-235.16 194.45,-235.08"/>
<polygon fill="#63b8ff" stroke="#63b8ff" points="170.79,-231.45 160.69,-234.64 170.58,-238.45 170.79,-231.45"/>
</a>
</g>
</g>
<!-- Node10 -->
<g id="Node000010" class="node">
<title>Node10</title>
<g id="a_Node000010"><a xlink:href="../../d2/d0a/menu_8c.html#a3c04138a5bfe5d72780bb7e82a18e627" target="_top" xlink:title=" ">
<polygon fill="white" stroke="#666666" points="40.75,-238.75 0,-238.75 0,-218 40.75,-218 40.75,-238.75"/>
<text xml:space="preserve" text-anchor="middle" x="20.38" y="-225.25" font-family="Helvetica,sans-Serif" font-size="10.00">main</text>
</a>
</g>
</g>
<!-- Node9&#45;&gt;Node10 -->
<g id="edge9_Node000009_Node000010" class="edge">
<title>Node9&#45;&gt;Node10</title>
<g id="a_edge9_Node000009_Node000010"><a xlink:title=" ">
<path fill="none" stroke="#63b8ff" d="M64.79,-228.37C56.36,-228.37 48.1,-228.37 41.09,-228.37"/>
<polygon fill="#63b8ff" stroke="#63b8ff" points="64.79,-231.87 74.79,-228.37 64.79,-224.87 64.79,-231.87"/>
</a>
</g>
</g>
<!-- Node11&#45;&gt;Node5 -->
<g id="edge12_Node000011_Node000005" class="edge">
<title>Node11&#45;&gt;Node5</title>
<g id="a_edge12_Node000011_Node000005"><a xlink:title=" ">
<path fill="none" stroke="#63b8ff" d="M775.42,-302.91C736.46,-299.81 681.34,-294.49 633.5,-286.37 619.12,-283.93 603.48,-280.42 589.87,-277.08"/>
<polygon fill="#63b8ff" stroke="#63b8ff" points="774.97,-306.39 785.21,-303.67 775.51,-299.41 774.97,-306.39"/>
</a>
</g>
</g>
<!-- Node13 -->
<g id="Node000013" class="node">
<title>Node13</title>
<g id="a_Node000013"><a xlink:href="../../d3/dee/form__engine_8c.html#abf1be20a8aad5f7ba09172ac1434a110" target="_top" xlink:title="Initialize form data structure and parse description file.">
<polygon fill="white" stroke="#666666" points="716.62,-163.75 656.38,-163.75 656.38,-143 716.62,-143 716.62,-163.75"/>
<text xml:space="preserve" text-anchor="middle" x="686.5" y="-150.25" font-family="Helvetica,sans-Serif" font-size="10.00">init_form</text>
</a>
</g>
</g>
<!-- Node12&#45;&gt;Node13 -->
<g id="edge14_Node000012_Node000013" class="edge">
<title>Node12&#45;&gt;Node13</title>
<g id="a_edge14_Node000012_Node000013"><a xlink:title=" ">
<path fill="none" stroke="#63b8ff" d="M776.37,-153.37C756.41,-153.37 734.09,-153.37 716.8,-153.37"/>
<polygon fill="#63b8ff" stroke="#63b8ff" points="776.27,-156.87 786.27,-153.37 776.27,-149.87 776.27,-156.87"/>
</a>
</g>
</g>
<!-- Node13&#45;&gt;Node8 -->
<g id="edge21_Node000013_Node000008" class="edge">
<title>Node13&#45;&gt;Node8</title>
<g id="a_edge21_Node000013_Node000008"><a xlink:title=" ">
<path fill="none" stroke="#63b8ff" d="M645.28,-162.49C630.31,-165.77 613.16,-169.39 597.5,-172.37 499.95,-190.91 385.98,-208.92 317.75,-219.31"/>
<polygon fill="#63b8ff" stroke="#63b8ff" points="645.76,-165.97 654.76,-160.4 644.24,-159.14 645.76,-165.97"/>
</a>
</g>
</g>
<!-- Node14 -->
<g id="Node000014" class="node">
<title>Node14</title>
<g id="a_Node000014"><a xlink:href="../../d0/d8e/view__engine_8c.html#a2ffea5674e85f124a70e19f745a66583" target="_top" xlink:title="use form to enter a file specification">
<polygon fill="white" stroke="#666666" points="597.5,-124.75 507.25,-124.75 507.25,-104 597.5,-104 597.5,-124.75"/>
<text xml:space="preserve" text-anchor="middle" x="552.38" y="-111.25" font-family="Helvetica,sans-Serif" font-size="10.00">enter_file_spec</text>
</a>
</g>
</g>
<!-- Node13&#45;&gt;Node14 -->
<g id="edge15_Node000013_Node000014" class="edge">
<title>Node13&#45;&gt;Node14</title>
<g id="a_edge15_Node000013_Node000014"><a xlink:title=" ">
<path fill="none" stroke="#63b8ff" d="M645.15,-141.46C627.64,-136.29 607.27,-130.28 590.18,-125.23"/>
<polygon fill="#63b8ff" stroke="#63b8ff" points="644.14,-144.81 654.73,-144.29 646.13,-138.1 644.14,-144.81"/>
</a>
</g>
</g>
<!-- Node18 -->
<g id="Node000018" class="node">
<title>Node18</title>
<g id="a_Node000018"><a xlink:href="../../d5/d97/form_8c.html#a3c04138a5bfe5d72780bb7e82a18e627" target="_top" xlink:title=" ">
<polygon fill="white" stroke="#666666" points="572.75,-163.75 532,-163.75 532,-143 572.75,-143 572.75,-163.75"/>
<text xml:space="preserve" text-anchor="middle" x="552.38" y="-150.25" font-family="Helvetica,sans-Serif" font-size="10.00">main</text>
</a>
</g>
</g>
<!-- Node13&#45;&gt;Node18 -->
<g id="edge20_Node000013_Node000018" class="edge">
<title>Node13&#45;&gt;Node18</title>
<g id="a_edge20_Node000013_Node000018"><a xlink:title=" ">
<path fill="none" stroke="#63b8ff" d="M644.97,-153.37C621.16,-153.37 592.11,-153.37 573.2,-153.37"/>
<polygon fill="#63b8ff" stroke="#63b8ff" points="644.66,-156.87 654.66,-153.37 644.66,-149.87 644.66,-156.87"/>
</a>
</g>
</g>
<!-- Node15 -->
<g id="Node000015" class="node">
<title>Node15</title>
<g id="a_Node000015"><a xlink:href="../../d0/d8e/view__engine_8c.html#a9c4b3ba5f73c18b486646c62b933972a" target="_top" xlink:title="Main Command Processing Loop for View.">
<polygon fill="white" stroke="#666666" points="471.25,-86.75 353.25,-86.75 353.25,-66 471.25,-66 471.25,-86.75"/>
<text xml:space="preserve" text-anchor="middle" x="412.25" y="-73.25" font-family="Helvetica,sans-Serif" font-size="10.00">view_cmd_processor</text>
</a>
</g>
</g>
<!-- Node14&#45;&gt;Node15 -->
<g id="edge16_Node000014_Node000015" class="edge">
<title>Node14&#45;&gt;Node15</title>
<g id="a_edge16_Node000014_Node000015"><a xlink:title=" ">
<path fill="none" stroke="#63b8ff" d="M501.33,-100.6C485.28,-96.19 467.73,-91.36 452.56,-87.19"/>
<polygon fill="#63b8ff" stroke="#63b8ff" points="500.13,-103.9 510.7,-103.18 501.99,-97.15 500.13,-103.9"/>
</a>
</g>
</g>
<!-- Node16 -->
<g id="Node000016" class="node">
<title>Node16</title>
<g id="a_Node000016"><a xlink:href="../../d0/d8e/view__engine_8c.html#a0bd4dc056ab5010547129bb87819789b" target="_top" xlink:title="Start view.">
<polygon fill="white" stroke="#666666" points="286.12,-48.75 225.88,-48.75 225.88,-28 286.12,-28 286.12,-48.75"/>
<text xml:space="preserve" text-anchor="middle" x="256" y="-35.25" font-family="Helvetica,sans-Serif" font-size="10.00">view_file</text>
</a>
</g>
</g>
<!-- Node15&#45;&gt;Node16 -->
<g id="edge17_Node000015_Node000016" class="edge">
<title>Node15&#45;&gt;Node16</title>
<g id="a_edge17_Node000015_Node000016"><a xlink:title=" ">
<path fill="none" stroke="#63b8ff" d="M356.48,-62.88C332.8,-57.04 306.05,-50.45 286.25,-45.58"/>
<polygon fill="#63b8ff" stroke="#63b8ff" points="355.44,-66.23 365.99,-65.22 357.12,-59.43 355.44,-66.23"/>
</a>
</g>
</g>
<!-- Node16&#45;&gt;Node2 -->
<g id="edge19_Node000016_Node000002" class="edge">
<title>Node16&#45;&gt;Node2</title>
<g id="a_edge19_Node000016_Node000002"><a xlink:title=" ">
<path fill="none" stroke="#63b8ff" d="M297.59,-38.37C354.36,-38.37 460.72,-38.37 551.38,-38.37 687.5,-38.37 687.5,-38.37 687.5,-38.37 777.31,-38.37 800.15,-60.46 878.5,-104.37 897.41,-114.97 916.21,-131.78 927.47,-142.69"/>
<polygon fill="#63b8ff" stroke="#63b8ff" points="297.76,-34.87 287.76,-38.37 297.76,-41.87 297.76,-34.87"/>
</a>
</g>
</g>
<!-- Node16&#45;&gt;Node17 -->
<g id="edge18_Node000016_Node000017" class="edge">
<title>Node16&#45;&gt;Node17</title>
<g id="a_edge18_Node000016_Node000017"><a xlink:title=" ">
<path fill="none" stroke="#63b8ff" d="M214.08,-32.66C189.1,-29.18 158.29,-24.88 138.58,-22.14"/>
<polygon fill="#63b8ff" stroke="#63b8ff" points="213.55,-36.12 223.94,-34.04 214.52,-29.19 213.55,-36.12"/>
</a>
</g>
</g>
<!-- Node19&#45;&gt;Node15 -->
<g id="edge25_Node000019_Node000015" class="edge">
<title>Node19&#45;&gt;Node15</title>
<g id="a_edge25_Node000019_Node000015"><a xlink:title=" ">
<path fill="none" stroke="#63b8ff" d="M621.53,-84.02C576.17,-82.35 515.79,-80.14 471.72,-78.52"/>
<polygon fill="#63b8ff" stroke="#63b8ff" points="621.37,-87.52 631.49,-84.39 621.63,-80.52 621.37,-87.52"/>
</a>
</g>
</g>
</g>
</svg>
