<?xml version="1.0" encoding="UTF-8" standalone="no"?>
<!DOCTYPE svg PUBLIC "-//W3C//DTD SVG 1.1//EN"
 "http://www.w3.org/Graphics/SVG/1.1/DTD/svg11.dtd">
<!-- Generated by graphviz version 14.1.2 (0)
 -->
<!-- Title: comp_opt_group Pages: 1 -->
<svg width="409pt" height="29pt"
 viewBox="0.00 0.00 409.00 29.00" xmlns="http://www.w3.org/2000/svg" xmlns:xlink="http://www.w3.org/1999/xlink">
<g id="graph0" class="graph" transform="scale(1 1) rotate(0) translate(4 24.75)">
<title>comp_opt_group</title>
<!-- Node1 -->
<g id="Node000001" class="node">
<title>Node1</title>
<g id="a_Node000001"><a xlink:title="compare option groups">
<polygon fill="#999999" stroke="#666666" points="400.5,-20.75 303.5,-20.75 303.5,0 400.5,0 400.5,-20.75"/>
<text xml:space="preserve" text-anchor="middle" x="352" y="-7.25" font-family="Helvetica,sans-Serif" font-size="10.00">comp_opt_group</text>
</a>
</g>
</g>
<!-- Node2 -->
<g id="Node000002" class="node">
<title>Node2</title>
<g id="a_Node000002"><a xlink:href="../../d3/d1a/a00251.html#ab99486f96fe0db3c90a7255fdbdf29e8" target="_top" xlink:title="sort options by group">
<polygon fill="white" stroke="#666666" points="267.5,-20.75 156.25,-20.75 156.25,0 267.5,0 267.5,-20.75"/>
<text xml:space="preserve" text-anchor="middle" x="211.88" y="-7.25" font-family="Helvetica,sans-Serif" font-size="10.00">sort_opts_by_group</text>
</a>
</g>
</g>
<!-- Node1&#45;&gt;Node2 -->
<g id="edge1_Node000001_Node000002" class="edge">
<title>Node1&#45;&gt;Node2</title>
<g id="a_edge1_Node000001_Node000002"><a xlink:title=" ">
<path fill="none" stroke="#63b8ff" d="M291.66,-10.38C283.74,-10.38 275.65,-10.38 267.82,-10.38"/>
<polygon fill="#63b8ff" stroke="#63b8ff" points="291.56,-13.88 301.56,-10.38 291.56,-6.88 291.56,-13.88"/>
</a>
</g>
</g>
<!-- Node3 -->
<g id="Node000003" class="node">
<title>Node3</title>
<g id="a_Node000003"><a xlink:href="../../d3/d1a/a00251.html#a6bf06dd5190d18bfd69c519a3e5fb7e4" target="_top" xlink:title="dump options sorted by group">
<polygon fill="white" stroke="#666666" points="120.25,-20.75 0,-20.75 0,0 120.25,0 120.25,-20.75"/>
<text xml:space="preserve" text-anchor="middle" x="60.12" y="-7.25" font-family="Helvetica,sans-Serif" font-size="10.00">dump_opts_by_group</text>
</a>
</g>
</g>
<!-- Node2&#45;&gt;Node3 -->
<g id="edge2_Node000002_Node000003" class="edge">
<title>Node2&#45;&gt;Node3</title>
<g id="a_edge2_Node000002_Node000003"><a xlink:title=" ">
<path fill="none" stroke="#63b8ff" d="M144.72,-10.38C136.68,-10.38 128.51,-10.38 120.57,-10.38"/>
<polygon fill="#63b8ff" stroke="#63b8ff" points="144.45,-13.88 154.45,-10.38 144.45,-6.88 144.45,-13.88"/>
</a>
</g>
</g>
</g>
</svg>
