<?xml version="1.0" encoding="UTF-8" standalone="no"?>
<!DOCTYPE svg PUBLIC "-//W3C//DTD SVG 1.1//EN"
 "http://www.w3.org/Graphics/SVG/1.1/DTD/svg11.dtd">
<!-- Generated by graphviz version 14.1.2 (0)
 -->
<!-- Title: dump_opts_by_use Pages: 1 -->
<svg width="346pt" height="107pt"
 viewBox="0.00 0.00 346.00 107.00" xmlns="http://www.w3.org/2000/svg" xmlns:xlink="http://www.w3.org/1999/xlink">
<g id="graph0" class="graph" transform="scale(1 1) rotate(0) translate(4 102.75)">
<title>dump_opts_by_use</title>
<!-- Node1 -->
<g id="Node000001" class="node">
<title>Node1</title>
<g id="a_Node000001"><a xlink:title="dump options by use mask">
<polygon fill="#999999" stroke="#666666" points="109.75,-59.75 0,-59.75 0,-39 109.75,-39 109.75,-59.75"/>
<text xml:space="preserve" text-anchor="middle" x="54.88" y="-46.25" font-family="Helvetica,sans-Serif" font-size="10.00">dump_opts_by_use</text>
</a>
</g>
</g>
<!-- Node2 -->
<g id="Node000002" class="node">
<title>Node2</title>
<g id="a_Node000002"><a xlink:href="../../d3/d1a/a00251.html#aab5b69801076b208d7428b7aac76000b" target="_top" xlink:title="print option">
<polygon fill="white" stroke="#666666" points="224.75,-98.75 165.25,-98.75 165.25,-78 224.75,-78 224.75,-98.75"/>
<text xml:space="preserve" text-anchor="middle" x="195" y="-85.25" font-family="Helvetica,sans-Serif" font-size="10.00">print_opt</text>
</a>
</g>
</g>
<!-- Node1&#45;&gt;Node2 -->
<g id="edge1_Node000001_Node000002" class="edge">
<title>Node1&#45;&gt;Node2</title>
<g id="a_edge1_Node000001_Node000002"><a xlink:title=" ">
<path fill="none" stroke="#63b8ff" d="M94.35,-60.24C112.95,-65.49 135.25,-71.79 154.04,-77.09"/>
<polygon fill="#63b8ff" stroke="#63b8ff" points="152.9,-80.41 163.47,-79.76 154.8,-73.67 152.9,-80.41"/>
</a>
</g>
</g>
<!-- Node3 -->
<g id="Node000003" class="node">
<title>Node3</title>
<g id="a_Node000003"><a xlink:href="../../d3/d1a/a00251.html#af621ff60685ba18f3720cf24c758fdf4" target="_top" xlink:title="print option header">
<polygon fill="white" stroke="#666666" points="244.25,-59.75 145.75,-59.75 145.75,-39 244.25,-39 244.25,-59.75"/>
<text xml:space="preserve" text-anchor="middle" x="195" y="-46.25" font-family="Helvetica,sans-Serif" font-size="10.00">print_opt_header</text>
</a>
</g>
</g>
<!-- Node1&#45;&gt;Node3 -->
<g id="edge2_Node000001_Node000003" class="edge">
<title>Node1&#45;&gt;Node3</title>
<g id="a_edge2_Node000001_Node000003"><a xlink:title=" ">
<path fill="none" stroke="#63b8ff" d="M110.07,-49.38C117.89,-49.38 125.98,-49.38 133.9,-49.38"/>
<polygon fill="#63b8ff" stroke="#63b8ff" points="133.84,-52.88 143.84,-49.38 133.84,-45.88 133.84,-52.88"/>
</a>
</g>
</g>
<!-- Node4 -->
<g id="Node000004" class="node">
<title>Node4</title>
<g id="a_Node000004"><a xlink:href="../../d9/dd6/a00272.html#a2ef30c42cbc289d899a8be5d2d8f77d0" target="_top" xlink:title="Display the usage information of the application.">
<polygon fill="white" stroke="#666666" points="217.62,-20.75 172.38,-20.75 172.38,0 217.62,0 217.62,-20.75"/>
<text xml:space="preserve" text-anchor="middle" x="195" y="-7.25" font-family="Helvetica,sans-Serif" font-size="10.00">usage</text>
</a>
</g>
</g>
<!-- Node1&#45;&gt;Node4 -->
<g id="edge3_Node000001_Node000004" class="edge">
<title>Node1&#45;&gt;Node4</title>
<g id="a_edge3_Node000001_Node000004"><a xlink:title=" ">
<path fill="none" stroke="#63b8ff" d="M94.35,-38.51C115.3,-32.6 140.96,-25.35 161,-19.69"/>
<polygon fill="#63b8ff" stroke="#63b8ff" points="161.93,-23.07 170.61,-16.98 160.03,-16.33 161.93,-23.07"/>
</a>
</g>
</g>
<!-- Node5 -->
<g id="Node000005" class="node">
<title>Node5</title>
<g id="a_Node000005"><a xlink:href="../../d6/de1/a00233.html#a11948dfa6be15e54c80072e4b3df0e12" target="_top" xlink:title="sget single character from terminal in raw mode">
<polygon fill="white" stroke="#666666" points="337.5,-20.75 280.25,-20.75 280.25,0 337.5,0 337.5,-20.75"/>
<text xml:space="preserve" text-anchor="middle" x="308.88" y="-7.25" font-family="Helvetica,sans-Serif" font-size="10.00">di_getch</text>
</a>
</g>
</g>
<!-- Node4&#45;&gt;Node5 -->
<g id="edge4_Node000004_Node000005" class="edge">
<title>Node4&#45;&gt;Node5</title>
<g id="a_edge4_Node000004_Node000005"><a xlink:title=" ">
<path fill="none" stroke="#63b8ff" d="M218.1,-10.38C232.49,-10.38 251.65,-10.38 268.58,-10.38"/>
<polygon fill="#63b8ff" stroke="#63b8ff" points="268.34,-13.88 278.34,-10.38 268.34,-6.88 268.34,-13.88"/>
</a>
</g>
</g>
</g>
</svg>
