<?xml version="1.0" encoding="UTF-8" standalone="no"?>
<!DOCTYPE svg PUBLIC "-//W3C//DTD SVG 1.1//EN"
 "http://www.w3.org/Graphics/SVG/1.1/DTD/svg11.dtd">
<!-- Generated by graphviz version 14.1.2 (0)
 -->
<!-- Title: main Pages: 1 -->
<svg width="633pt" height="223pt"
 viewBox="0.00 0.00 633.00 223.00" xmlns="http://www.w3.org/2000/svg" xmlns:xlink="http://www.w3.org/1999/xlink">
<g id="graph0" class="graph" transform="scale(1 1) rotate(0) translate(4 218.75)">
<title>main</title>
<!-- Node1 -->
<g id="Node000001" class="node">
<title>Node1</title>
<g id="a_Node000001"><a xlink:title="main function for optsp">
<polygon fill="#999999" stroke="#666666" points="40.75,-137.75 0,-137.75 0,-117 40.75,-117 40.75,-137.75"/>
<text xml:space="preserve" text-anchor="middle" x="20.38" y="-124.25" font-family="Helvetica,sans-Serif" font-size="10.00">main</text>
</a>
</g>
</g>
<!-- Node2 -->
<g id="Node000002" class="node">
<title>Node2</title>
<g id="a_Node000002"><a xlink:href="../../dd/dac/optsp_8c.html#a58c7c22e79895abf30c1bb4d2714ad34" target="_top" xlink:title="check if a string contains a specified character">
<polygon fill="white" stroke="#666666" points="174.5,-214.75 117.25,-214.75 117.25,-194 174.5,-194 174.5,-214.75"/>
<text xml:space="preserve" text-anchor="middle" x="145.88" y="-201.25" font-family="Helvetica,sans-Serif" font-size="10.00">contains</text>
</a>
</g>
</g>
<!-- Node1&#45;&gt;Node2 -->
<g id="edge1_Node000001_Node000002" class="edge">
<title>Node1&#45;&gt;Node2</title>
<g id="a_edge1_Node000001_Node000002"><a xlink:title=" ">
<path fill="none" stroke="#63b8ff" d="M28.78,-137.8C38.42,-150.6 56.43,-172.12 76.75,-184.38 85.65,-189.74 96.07,-193.74 106.05,-196.69"/>
<polygon fill="#63b8ff" stroke="#63b8ff" points="105,-200.04 115.56,-199.21 106.79,-193.27 105,-200.04"/>
</a>
</g>
</g>
<!-- Node3 -->
<g id="Node000003" class="node">
<title>Node3</title>
<g id="a_Node000003"><a xlink:href="../../df/dcd/opts_8c.html#a518c63d1d53a636e68ed360015d81207" target="_top" xlink:title="dump all options">
<polygon fill="white" stroke="#666666" points="350.62,-137.75 280.62,-137.75 280.62,-117 350.62,-117 350.62,-137.75"/>
<text xml:space="preserve" text-anchor="middle" x="315.62" y="-124.25" font-family="Helvetica,sans-Serif" font-size="10.00">dump_opts</text>
</a>
</g>
</g>
<!-- Node1&#45;&gt;Node3 -->
<g id="edge2_Node000001_Node000003" class="edge">
<title>Node1&#45;&gt;Node3</title>
<g id="a_edge2_Node000001_Node000003"><a xlink:title=" ">
<path fill="none" stroke="#63b8ff" d="M41.07,-127.38C87.35,-127.38 204,-127.38 269.03,-127.38"/>
<polygon fill="#63b8ff" stroke="#63b8ff" points="268.65,-130.88 278.65,-127.38 268.65,-123.88 268.65,-130.88"/>
</a>
</g>
</g>
<!-- Node6 -->
<g id="Node000006" class="node">
<title>Node6</title>
<g id="a_Node000006"><a xlink:href="../../df/dcd/opts_8c.html#ad2bd729273018084d32c9a1481b566a6" target="_top" xlink:title="dump options sorted by name">
<polygon fill="white" stroke="#666666" points="206,-175.75 85.75,-175.75 85.75,-155 206,-155 206,-175.75"/>
<text xml:space="preserve" text-anchor="middle" x="145.88" y="-162.25" font-family="Helvetica,sans-Serif" font-size="10.00">dump_opts_by_name</text>
</a>
</g>
</g>
<!-- Node1&#45;&gt;Node6 -->
<g id="edge5_Node000001_Node000006" class="edge">
<title>Node1&#45;&gt;Node6</title>
<g id="a_edge5_Node000001_Node000006"><a xlink:title=" ">
<path fill="none" stroke="#63b8ff" d="M41.22,-133.48C56.75,-138.26 78.98,-145.1 98.88,-151.22"/>
<polygon fill="#63b8ff" stroke="#63b8ff" points="97.6,-154.49 108.19,-154.09 99.66,-147.8 97.6,-154.49"/>
</a>
</g>
</g>
<!-- Node9 -->
<g id="Node000009" class="node">
<title>Node9</title>
<g id="a_Node000009"><a xlink:href="../../df/dcd/opts_8c.html#a67f46739ac01f51f30214abf2a6435c8" target="_top" xlink:title="dump options sorted by short option">
<polygon fill="white" stroke="#666666" points="215,-99.75 76.75,-99.75 76.75,-79 215,-79 215,-99.75"/>
<text xml:space="preserve" text-anchor="middle" x="145.88" y="-86.25" font-family="Helvetica,sans-Serif" font-size="10.00">dump_opts_by_short_opt</text>
</a>
</g>
</g>
<!-- Node1&#45;&gt;Node9 -->
<g id="edge9_Node000001_Node000009" class="edge">
<title>Node1&#45;&gt;Node9</title>
<g id="a_edge9_Node000001_Node000009"><a xlink:title=" ">
<path fill="none" stroke="#63b8ff" d="M41.22,-121.27C56.75,-116.49 78.98,-109.65 98.88,-103.53"/>
<polygon fill="#63b8ff" stroke="#63b8ff" points="99.66,-106.95 108.19,-100.66 97.6,-100.26 99.66,-106.95"/>
</a>
</g>
</g>
<!-- Node12 -->
<g id="Node000012" class="node">
<title>Node12</title>
<g id="a_Node000012"><a xlink:href="../../df/dcd/opts_8c.html#ab2958e2921a81b3f26fe0a9b7da34763" target="_top" xlink:title="dump options by use mask">
<polygon fill="white" stroke="#666666" points="370.5,-79.75 260.75,-79.75 260.75,-59 370.5,-59 370.5,-79.75"/>
<text xml:space="preserve" text-anchor="middle" x="315.62" y="-66.25" font-family="Helvetica,sans-Serif" font-size="10.00">dump_opts_by_use</text>
</a>
</g>
</g>
<!-- Node1&#45;&gt;Node12 -->
<g id="edge13_Node000001_Node000012" class="edge">
<title>Node1&#45;&gt;Node12</title>
<g id="a_edge13_Node000001_Node000012"><a xlink:title=" ">
<path fill="none" stroke="#63b8ff" d="M27.67,-116.94C36.61,-103.25 54.4,-79.88 76.75,-70.38 132.64,-46.61 202.8,-49.82 252.41,-56.85"/>
<polygon fill="#63b8ff" stroke="#63b8ff" points="251.7,-60.28 262.11,-58.33 252.75,-53.36 251.7,-60.28"/>
</a>
</g>
</g>
<!-- Node4 -->
<g id="Node000004" class="node">
<title>Node4</title>
<g id="a_Node000004"><a xlink:href="../../df/dcd/opts_8c.html#aab5b69801076b208d7428b7aac76000b" target="_top" xlink:title="print option">
<polygon fill="white" stroke="#666666" points="503.5,-137.75 444,-137.75 444,-117 503.5,-117 503.5,-137.75"/>
<text xml:space="preserve" text-anchor="middle" x="473.75" y="-124.25" font-family="Helvetica,sans-Serif" font-size="10.00">print_opt</text>
</a>
</g>
</g>
<!-- Node3&#45;&gt;Node4 -->
<g id="edge3_Node000003_Node000004" class="edge">
<title>Node3&#45;&gt;Node4</title>
<g id="a_edge3_Node000003_Node000004"><a xlink:title=" ">
<path fill="none" stroke="#63b8ff" d="M350.89,-127.38C374.83,-127.38 406.9,-127.38 432.14,-127.38"/>
<polygon fill="#63b8ff" stroke="#63b8ff" points="432.04,-130.88 442.04,-127.38 432.04,-123.88 432.04,-130.88"/>
</a>
</g>
</g>
<!-- Node5 -->
<g id="Node000005" class="node">
<title>Node5</title>
<g id="a_Node000005"><a xlink:href="../../df/dcd/opts_8c.html#af621ff60685ba18f3720cf24c758fdf4" target="_top" xlink:title="print option header">
<polygon fill="white" stroke="#666666" points="523,-98.75 424.5,-98.75 424.5,-78 523,-78 523,-98.75"/>
<text xml:space="preserve" text-anchor="middle" x="473.75" y="-85.25" font-family="Helvetica,sans-Serif" font-size="10.00">print_opt_header</text>
</a>
</g>
</g>
<!-- Node3&#45;&gt;Node5 -->
<g id="edge4_Node000003_Node000005" class="edge">
<title>Node3&#45;&gt;Node5</title>
<g id="a_edge4_Node000003_Node000005"><a xlink:title=" ">
<path fill="none" stroke="#63b8ff" d="M350.89,-118.82C370.62,-113.89 395.88,-107.58 418.28,-101.98"/>
<polygon fill="#63b8ff" stroke="#63b8ff" points="419.02,-105.4 427.87,-99.59 417.32,-98.61 419.02,-105.4"/>
</a>
</g>
</g>
<!-- Node6&#45;&gt;Node3 -->
<g id="edge6_Node000006_Node000003" class="edge">
<title>Node6&#45;&gt;Node3</title>
<g id="a_edge6_Node000006_Node000003"><a xlink:title=" ">
<path fill="none" stroke="#63b8ff" d="M194.5,-154.59C217.97,-149.27 246.14,-142.89 269.29,-137.64"/>
<polygon fill="#63b8ff" stroke="#63b8ff" points="269.76,-141.13 278.74,-135.5 268.21,-134.3 269.76,-141.13"/>
</a>
</g>
</g>
<!-- Node7 -->
<g id="Node000007" class="node">
<title>Node7</title>
<g id="a_Node000007"><a xlink:href="../../df/dcd/opts_8c.html#ad4e476077d97143f00e00e60877a1f61" target="_top" xlink:title="dump options name">
<polygon fill="white" stroke="#666666" points="371.25,-176.75 260,-176.75 260,-156 371.25,-156 371.25,-176.75"/>
<text xml:space="preserve" text-anchor="middle" x="315.62" y="-163.25" font-family="Helvetica,sans-Serif" font-size="10.00">sort_opts_by_name</text>
</a>
</g>
</g>
<!-- Node6&#45;&gt;Node7 -->
<g id="edge7_Node000006_Node000007" class="edge">
<title>Node6&#45;&gt;Node7</title>
<g id="a_edge7_Node000006_Node000007"><a xlink:title=" ">
<path fill="none" stroke="#63b8ff" d="M206.49,-165.73C220.03,-165.81 234.49,-165.9 248.28,-165.98"/>
<polygon fill="#63b8ff" stroke="#63b8ff" points="248.15,-169.48 258.17,-166.04 248.19,-162.48 248.15,-169.48"/>
</a>
</g>
</g>
<!-- Node8 -->
<g id="Node000008" class="node">
<title>Node8</title>
<g id="a_Node000008"><a xlink:href="../../df/dcd/opts_8c.html#a368ef550932bfb5c79cff9e43f9b5bfb" target="_top" xlink:title="compare option names">
<polygon fill="white" stroke="#666666" points="522.25,-176.75 425.25,-176.75 425.25,-156 522.25,-156 522.25,-176.75"/>
<text xml:space="preserve" text-anchor="middle" x="473.75" y="-163.25" font-family="Helvetica,sans-Serif" font-size="10.00">comp_opt_name</text>
</a>
</g>
</g>
<!-- Node7&#45;&gt;Node8 -->
<g id="edge8_Node000007_Node000008" class="edge">
<title>Node7&#45;&gt;Node8</title>
<g id="a_edge8_Node000007_Node000008"><a xlink:title=" ">
<path fill="none" stroke="#63b8ff" d="M371.67,-166.38C385.25,-166.38 399.85,-166.38 413.62,-166.38"/>
<polygon fill="#63b8ff" stroke="#63b8ff" points="413.43,-169.88 423.43,-166.38 413.43,-162.88 413.43,-169.88"/>
</a>
</g>
</g>
<!-- Node9&#45;&gt;Node3 -->
<g id="edge10_Node000009_Node000003" class="edge">
<title>Node9&#45;&gt;Node3</title>
<g id="a_edge10_Node000009_Node000003"><a xlink:title=" ">
<path fill="none" stroke="#63b8ff" d="M194.5,-100.16C217.97,-105.48 246.14,-111.86 269.29,-117.11"/>
<polygon fill="#63b8ff" stroke="#63b8ff" points="268.21,-120.45 278.74,-119.25 269.76,-113.62 268.21,-120.45"/>
</a>
</g>
</g>
<!-- Node10 -->
<g id="Node000010" class="node">
<title>Node10</title>
<g id="a_Node000010"><a xlink:href="../../df/dcd/opts_8c.html#a50209849c6747bfad93c33f5951bce62" target="_top" xlink:title="sort options by short option">
<polygon fill="white" stroke="#666666" points="380.25,-39.75 251,-39.75 251,-19 380.25,-19 380.25,-39.75"/>
<text xml:space="preserve" text-anchor="middle" x="315.62" y="-26.25" font-family="Helvetica,sans-Serif" font-size="10.00">sort_opts_by_short_opt</text>
</a>
</g>
</g>
<!-- Node9&#45;&gt;Node10 -->
<g id="edge11_Node000009_Node000010" class="edge">
<title>Node9&#45;&gt;Node10</title>
<g id="a_edge11_Node000009_Node000010"><a xlink:title=" ">
<path fill="none" stroke="#63b8ff" d="M174.61,-78.65C195.52,-70.64 224.96,-59.54 251,-50.38 257.19,-48.2 263.73,-45.96 270.18,-43.8"/>
<polygon fill="#63b8ff" stroke="#63b8ff" points="271.04,-47.2 279.42,-40.72 268.83,-40.56 271.04,-47.2"/>
</a>
</g>
</g>
<!-- Node11 -->
<g id="Node000011" class="node">
<title>Node11</title>
<g id="a_Node000011"><a xlink:href="../../df/dcd/opts_8c.html#a0f808d9ff32065a09e463ce5f29a912f" target="_top" xlink:title="compare option short options">
<polygon fill="white" stroke="#666666" points="531.25,-20.75 416.25,-20.75 416.25,0 531.25,0 531.25,-20.75"/>
<text xml:space="preserve" text-anchor="middle" x="473.75" y="-7.25" font-family="Helvetica,sans-Serif" font-size="10.00">comp_opt_short_opt</text>
</a>
</g>
</g>
<!-- Node10&#45;&gt;Node11 -->
<g id="edge12_Node000010_Node000011" class="edge">
<title>Node10&#45;&gt;Node11</title>
<g id="a_edge12_Node000010_Node000011"><a xlink:title=" ">
<path fill="none" stroke="#63b8ff" d="M380.58,-21.59C388.59,-20.62 396.81,-19.62 404.88,-18.63"/>
<polygon fill="#63b8ff" stroke="#63b8ff" points="405.15,-22.13 414.65,-17.45 404.3,-15.18 405.15,-22.13"/>
</a>
</g>
</g>
<!-- Node12&#45;&gt;Node4 -->
<g id="edge14_Node000012_Node000004" class="edge">
<title>Node12&#45;&gt;Node4</title>
<g id="a_edge14_Node000012_Node000004"><a xlink:title=" ">
<path fill="none" stroke="#63b8ff" d="M344.47,-80.2C364.41,-87.91 391.93,-98.43 416.25,-107.38 421.67,-109.37 427.39,-111.43 433.03,-113.45"/>
<polygon fill="#63b8ff" stroke="#63b8ff" points="431.65,-116.67 442.24,-116.72 433.99,-110.08 431.65,-116.67"/>
</a>
</g>
</g>
<!-- Node12&#45;&gt;Node5 -->
<g id="edge15_Node000012_Node000005" class="edge">
<title>Node12&#45;&gt;Node5</title>
<g id="a_edge15_Node000012_Node000005"><a xlink:title=" ">
<path fill="none" stroke="#63b8ff" d="M370.79,-75.97C384.35,-77.62 398.97,-79.4 412.78,-81.08"/>
<polygon fill="#63b8ff" stroke="#63b8ff" points="412.31,-84.55 422.66,-82.28 413.15,-77.6 412.31,-84.55"/>
</a>
</g>
</g>
<!-- Node13 -->
<g id="Node000013" class="node">
<title>Node13</title>
<g id="a_Node000013"><a xlink:href="../../d8/d60/init_8c.html#a2ef30c42cbc289d899a8be5d2d8f77d0" target="_top" xlink:title="Display the usage information of the application.">
<polygon fill="white" stroke="#666666" points="496.38,-59.75 451.12,-59.75 451.12,-39 496.38,-39 496.38,-59.75"/>
<text xml:space="preserve" text-anchor="middle" x="473.75" y="-46.25" font-family="Helvetica,sans-Serif" font-size="10.00">usage</text>
</a>
</g>
</g>
<!-- Node12&#45;&gt;Node13 -->
<g id="edge16_Node000012_Node000013" class="edge">
<title>Node12&#45;&gt;Node13</title>
<g id="a_edge16_Node000012_Node000013"><a xlink:title=" ">
<path fill="none" stroke="#63b8ff" d="M370.79,-62.44C393.65,-59.51 419.54,-56.19 439.51,-53.63"/>
<polygon fill="#63b8ff" stroke="#63b8ff" points="439.83,-57.12 449.31,-52.38 438.95,-50.18 439.83,-57.12"/>
</a>
</g>
</g>
<!-- Node14 -->
<g id="Node000014" class="node">
<title>Node14</title>
<g id="a_Node000014"><a xlink:href="../../d7/d72/scriou_8c.html#a11948dfa6be15e54c80072e4b3df0e12" target="_top" xlink:title="sget single character from terminal in raw mode">
<polygon fill="white" stroke="#666666" points="624.5,-59.75 567.25,-59.75 567.25,-39 624.5,-39 624.5,-59.75"/>
<text xml:space="preserve" text-anchor="middle" x="595.88" y="-46.25" font-family="Helvetica,sans-Serif" font-size="10.00">di_getch</text>
</a>
</g>
</g>
<!-- Node13&#45;&gt;Node14 -->
<g id="edge17_Node000013_Node000014" class="edge">
<title>Node13&#45;&gt;Node14</title>
<g id="a_edge17_Node000013_Node000014"><a xlink:title=" ">
<path fill="none" stroke="#63b8ff" d="M496.78,-49.38C513.24,-49.38 536.16,-49.38 555.71,-49.38"/>
<polygon fill="#63b8ff" stroke="#63b8ff" points="555.55,-52.88 565.55,-49.38 555.55,-45.88 555.55,-52.88"/>
</a>
</g>
</g>
</g>
</svg>
