<?xml version="1.0" encoding="UTF-8" standalone="no"?>
<!DOCTYPE svg PUBLIC "-//W3C//DTD SVG 1.1//EN"
 "http://www.w3.org/Graphics/SVG/1.1/DTD/svg11.dtd">
<!-- Generated by graphviz version 14.1.2 (0)
 -->
<!-- Title: get_next_line Pages: 1 -->
<svg width="1671pt" height="470pt"
 viewBox="0.00 0.00 1671.00 470.00" xmlns="http://www.w3.org/2000/svg" xmlns:xlink="http://www.w3.org/1999/xlink">
<g id="graph0" class="graph" transform="scale(1 1) rotate(0) translate(4 465.75)">
<title>get_next_line</title>
<!-- Node1 -->
<g id="Node000001" class="node">
<title>Node1</title>
<g id="a_Node000001"><a xlink:title="Get Next Line from File.">
<polygon fill="#999999" stroke="#666666" points="1663.25,-347.75 1581.25,-347.75 1581.25,-327 1663.25,-327 1663.25,-347.75"/>
<text xml:space="preserve" text-anchor="middle" x="1622.25" y="-334.25" font-family="Helvetica,sans-Serif" font-size="10.00">get_next_line</text>
</a>
</g>
</g>
<!-- Node2 -->
<g id="Node000002" class="node">
<title>Node2</title>
<g id="a_Node000002"><a xlink:href="../../d4/dc1/src_2view__engine_8c.html#ab49fb9f9417c7cf790cea1679e4e5edc" target="_top" xlink:title="Get Previous Line from File.">
<polygon fill="white" stroke="#666666" points="1534.38,-423.75 1452.38,-423.75 1452.38,-403 1534.38,-403 1534.38,-423.75"/>
<text xml:space="preserve" text-anchor="middle" x="1493.38" y="-410.25" font-family="Helvetica,sans-Serif" font-size="10.00">get_prev_line</text>
</a>
</g>
</g>
<!-- Node1&#45;&gt;Node2 -->
<g id="edge1_Node000001_Node000002" class="edge">
<title>Node1&#45;&gt;Node2</title>
<g id="a_edge1_Node000001_Node000002"><a xlink:title=" ">
<path fill="none" stroke="#63b8ff" d="M1598.22,-354.56C1583.46,-365.2 1563.68,-378.81 1545.25,-389.38 1537.03,-394.09 1527.74,-398.67 1519.36,-402.55"/>
<polygon fill="#63b8ff" stroke="#63b8ff" points="1599.89,-357.67 1605.9,-348.94 1595.76,-352.01 1599.89,-357.67"/>
</a>
</g>
</g>
<!-- Node3 -->
<g id="Node000003" class="node">
<title>Node3</title>
<g id="a_Node000003"><a xlink:href="../../d4/dc1/src_2view__engine_8c.html#a5f639aa1a1f03fa05888c724bc17d99c" target="_top" xlink:title="Search for Regular Expression Pattern.">
<polygon fill="white" stroke="#666666" points="1372.88,-422.75 1324.62,-422.75 1324.62,-402 1372.88,-402 1372.88,-422.75"/>
<text xml:space="preserve" text-anchor="middle" x="1348.75" y="-409.25" font-family="Helvetica,sans-Serif" font-size="10.00">search</text>
</a>
</g>
</g>
<!-- Node1&#45;&gt;Node3 -->
<g id="edge48_Node000001_Node000003" class="edge">
<title>Node1&#45;&gt;Node3</title>
<g id="a_edge48_Node000001_Node000003"><a xlink:title=" ">
<path fill="none" stroke="#63b8ff" d="M1571.16,-351.21C1512.31,-367.47 1417.15,-393.76 1373.28,-405.88"/>
<polygon fill="#63b8ff" stroke="#63b8ff" points="1571.9,-354.64 1580.6,-348.6 1570.03,-347.89 1571.9,-354.64"/>
</a>
</g>
</g>
<!-- Node22 -->
<g id="Node000022" class="node">
<title>Node22</title>
<g id="a_Node000022"><a xlink:href="../../d4/dc1/src_2view__engine_8c.html#acf1bfbd6d2fd4ad9a0385009ef25015c" target="_top" xlink:title="Advance to Next Page.">
<polygon fill="white" stroke="#666666" points="1526.88,-240.75 1459.88,-240.75 1459.88,-220 1526.88,-220 1526.88,-240.75"/>
<text xml:space="preserve" text-anchor="middle" x="1493.38" y="-227.25" font-family="Helvetica,sans-Serif" font-size="10.00">next_page</text>
</a>
</g>
</g>
<!-- Node1&#45;&gt;Node22 -->
<g id="edge28_Node000001_Node000022" class="edge">
<title>Node1&#45;&gt;Node22</title>
<g id="a_edge28_Node000001_Node000022"><a xlink:title=" ">
<path fill="none" stroke="#63b8ff" d="M1600.03,-319.48C1573.43,-297.04 1528.67,-259.3 1506.95,-240.98"/>
<polygon fill="#63b8ff" stroke="#63b8ff" points="1597.56,-321.98 1607.46,-325.75 1602.08,-316.63 1597.56,-321.98"/>
</a>
</g>
</g>
<!-- Node29 -->
<g id="Node000029" class="node">
<title>Node29</title>
<g id="a_Node000029"><a xlink:href="../../d4/dc1/src_2view__engine_8c.html#a3559e8fbca0e5aa0df7e56cde3a504da" target="_top" xlink:title="Redisplay Current Page.">
<polygon fill="white" stroke="#666666" points="1256,-114.75 1165.75,-114.75 1165.75,-94 1256,-94 1256,-114.75"/>
<text xml:space="preserve" text-anchor="middle" x="1210.88" y="-101.25" font-family="Helvetica,sans-Serif" font-size="10.00">redisplay_page</text>
</a>
</g>
</g>
<!-- Node1&#45;&gt;Node29 -->
<g id="edge42_Node000001_Node000029" class="edge">
<title>Node1&#45;&gt;Node29</title>
<g id="a_edge42_Node000001_Node000029"><a xlink:title=" ">
<path fill="none" stroke="#63b8ff" d="M1613.52,-316.15C1602.43,-288.45 1579.49,-240.12 1545.25,-211.38 1459.82,-139.66 1325.58,-115.78 1256.39,-108"/>
<polygon fill="#63b8ff" stroke="#63b8ff" points="1610.16,-317.15 1617.01,-325.23 1616.69,-314.64 1610.16,-317.15"/>
</a>
</g>
</g>
<!-- Node30 -->
<g id="Node000030" class="node">
<title>Node30</title>
<g id="a_Node000030"><a xlink:href="../../d4/dc1/src_2view__engine_8c.html#aa79b8294ebf98c84d4a844fd7d9e4862" target="_top" xlink:title="Scroll N Lines.">
<polygon fill="white" stroke="#666666" points="1405.5,-461.75 1292,-461.75 1292,-441 1405.5,-441 1405.5,-461.75"/>
<text xml:space="preserve" text-anchor="middle" x="1348.75" y="-448.25" font-family="Helvetica,sans-Serif" font-size="10.00">scroll_down_n_lines</text>
</a>
</g>
</g>
<!-- Node1&#45;&gt;Node30 -->
<g id="edge44_Node000001_Node000030" class="edge">
<title>Node1&#45;&gt;Node30</title>
<g id="a_edge44_Node000001_Node000030"><a xlink:title=" ">
<path fill="none" stroke="#63b8ff" d="M1611.1,-358.17C1598.87,-380.7 1576.07,-415.68 1545.25,-432.38 1502.52,-455.52 1446.79,-458.79 1405.76,-457.13"/>
<polygon fill="#63b8ff" stroke="#63b8ff" points="1614.2,-359.79 1615.68,-349.3 1607.98,-356.58 1614.2,-359.79"/>
</a>
</g>
</g>
<!-- Node31 -->
<g id="Node000031" class="node">
<title>Node31</title>
<g id="a_Node000031"><a xlink:href="../../d4/dc1/src_2view__engine_8c.html#ab08fc8983cc3bdb21b438c82ece16346" target="_top" xlink:title="Scroll Up N Lines.">
<polygon fill="white" stroke="#666666" points="1543,-308.75 1443.75,-308.75 1443.75,-288 1543,-288 1543,-308.75"/>
<text xml:space="preserve" text-anchor="middle" x="1493.38" y="-295.25" font-family="Helvetica,sans-Serif" font-size="10.00">scroll_up_n_lines</text>
</a>
</g>
</g>
<!-- Node1&#45;&gt;Node31 -->
<g id="edge46_Node000001_Node000031" class="edge">
<title>Node1&#45;&gt;Node31</title>
<g id="a_edge46_Node000001_Node000031"><a xlink:title=" ">
<path fill="none" stroke="#63b8ff" d="M1575.24,-323.23C1560.16,-318.6 1543.67,-313.53 1529.53,-309.18"/>
<polygon fill="#63b8ff" stroke="#63b8ff" points="1573.87,-326.47 1584.46,-326.07 1575.93,-319.78 1573.87,-326.47"/>
</a>
</g>
</g>
<!-- Node32 -->
<g id="Node000032" class="node">
<title>Node32</title>
<g id="a_Node000032"><a xlink:href="../../d4/dc1/src_2view__engine_8c.html#a30ab3b4282eabd18619c5b053ff8b0b1" target="_top" xlink:title="Write buffer contents to files.">
<polygon fill="white" stroke="#666666" points="1545.25,-347.75 1441.5,-347.75 1441.5,-327 1545.25,-327 1545.25,-347.75"/>
<text xml:space="preserve" text-anchor="middle" x="1493.38" y="-334.25" font-family="Helvetica,sans-Serif" font-size="10.00">write_view_buffer</text>
</a>
</g>
</g>
<!-- Node1&#45;&gt;Node32 -->
<g id="edge49_Node000001_Node000032" class="edge">
<title>Node1&#45;&gt;Node32</title>
<g id="a_edge49_Node000001_Node000032"><a xlink:title=" ">
<path fill="none" stroke="#63b8ff" d="M1569.47,-337.38C1561.6,-337.38 1553.49,-337.38 1545.63,-337.38"/>
<polygon fill="#63b8ff" stroke="#63b8ff" points="1569.24,-340.88 1579.24,-337.38 1569.24,-333.88 1569.24,-340.88"/>
</a>
</g>
</g>
<!-- Node2&#45;&gt;Node3 -->
<g id="edge2_Node000002_Node000003" class="edge">
<title>Node2&#45;&gt;Node3</title>
<g id="a_edge2_Node000002_Node000003"><a xlink:title=" ">
<path fill="none" stroke="#63b8ff" d="M1440.46,-413.01C1417.31,-412.85 1391.22,-412.67 1372.98,-412.54"/>
<polygon fill="#63b8ff" stroke="#63b8ff" points="1440.35,-416.51 1450.37,-413.08 1440.4,-409.51 1440.35,-416.51"/>
</a>
</g>
</g>
<!-- Node4 -->
<g id="Node000004" class="node">
<title>Node4</title>
<g id="a_Node000004"><a xlink:href="../../d4/dc1/src_2view__engine_8c.html#a9c4b3ba5f73c18b486646c62b933972a" target="_top" xlink:title="Main Command Processing Loop for View.">
<polygon fill="white" stroke="#666666" points="1129.75,-270.75 1011.75,-270.75 1011.75,-250 1129.75,-250 1129.75,-270.75"/>
<text xml:space="preserve" text-anchor="middle" x="1070.75" y="-257.25" font-family="Helvetica,sans-Serif" font-size="10.00">view_cmd_processor</text>
</a>
</g>
</g>
<!-- Node3&#45;&gt;Node4 -->
<g id="edge3_Node000003_Node000004" class="edge">
<title>Node3&#45;&gt;Node4</title>
<g id="a_edge3_Node000003_Node000004"><a xlink:title=" ">
<path fill="none" stroke="#63b8ff" d="M1312.92,-415.55C1274.24,-417.41 1211.27,-415.3 1165.75,-388.38 1117.58,-359.88 1086.7,-296.09 1075.97,-270.9"/>
<polygon fill="#63b8ff" stroke="#63b8ff" points="1313.06,-419.05 1322.83,-414.95 1312.63,-412.06 1313.06,-419.05"/>
</a>
</g>
</g>
<!-- Node5 -->
<g id="Node000005" class="node">
<title>Node5</title>
<g id="a_Node000005"><a xlink:href="../../d4/dc1/src_2view__engine_8c.html#a0bd4dc056ab5010547129bb87819789b" target="_top" xlink:title="Start view.">
<polygon fill="white" stroke="#666666" points="975.75,-192.75 915.5,-192.75 915.5,-172 975.75,-172 975.75,-192.75"/>
<text xml:space="preserve" text-anchor="middle" x="945.62" y="-179.25" font-family="Helvetica,sans-Serif" font-size="10.00">view_file</text>
</a>
</g>
</g>
<!-- Node4&#45;&gt;Node5 -->
<g id="edge4_Node000004_Node000005" class="edge">
<title>Node4&#45;&gt;Node5</title>
<g id="a_edge4_Node000004_Node000005"><a xlink:title=" ">
<path fill="none" stroke="#63b8ff" d="M1043.01,-243.44C1018.88,-228.15 984.12,-206.13 963.6,-193.13"/>
<polygon fill="#63b8ff" stroke="#63b8ff" points="1041.03,-246.32 1051.35,-248.72 1044.78,-240.41 1041.03,-246.32"/>
</a>
</g>
</g>
<!-- Node6 -->
<g id="Node000006" class="node">
<title>Node6</title>
<g id="a_Node000006"><a xlink:href="../../da/d97/view_8c.html#a3c04138a5bfe5d72780bb7e82a18e627" target="_top" xlink:title=" ">
<polygon fill="white" stroke="#666666" points="761.88,-212.75 721.12,-212.75 721.12,-192 761.88,-192 761.88,-212.75"/>
<text xml:space="preserve" text-anchor="middle" x="741.5" y="-199.25" font-family="Helvetica,sans-Serif" font-size="10.00">main</text>
</a>
</g>
</g>
<!-- Node5&#45;&gt;Node6 -->
<g id="edge5_Node000005_Node000006" class="edge">
<title>Node5&#45;&gt;Node6</title>
<g id="a_edge5_Node000005_Node000006"><a xlink:title=" ">
<path fill="none" stroke="#63b8ff" d="M904.03,-186.39C861,-190.65 794.84,-197.2 762.16,-200.43"/>
<polygon fill="#63b8ff" stroke="#63b8ff" points="904.12,-189.9 913.73,-185.43 903.43,-182.93 904.12,-189.9"/>
</a>
</g>
</g>
<!-- Node7 -->
<g id="Node000007" class="node">
<title>Node7</title>
<g id="a_Node000007"><a xlink:href="../../d2/d98/mview_8c.html#a75a4e7afc9c9aafd3d35ab706f5fdc71" target="_top" xlink:title="subprogram entry point for C&#45;Menu View">
<polygon fill="white" stroke="#666666" points="879.5,-173.75 830.5,-173.75 830.5,-153 879.5,-153 879.5,-173.75"/>
<text xml:space="preserve" text-anchor="middle" x="855" y="-160.25" font-family="Helvetica,sans-Serif" font-size="10.00">mview</text>
</a>
</g>
</g>
<!-- Node5&#45;&gt;Node7 -->
<g id="edge6_Node000005_Node000007" class="edge">
<title>Node5&#45;&gt;Node7</title>
<g id="a_edge6_Node000005_Node000007"><a xlink:title=" ">
<path fill="none" stroke="#63b8ff" d="M904.02,-173.67C895.73,-171.89 887.26,-170.08 879.79,-168.48"/>
<polygon fill="#63b8ff" stroke="#63b8ff" points="903.12,-177.06 913.63,-175.73 904.59,-170.21 903.12,-177.06"/>
</a>
</g>
</g>
<!-- Node7&#45;&gt;Node6 -->
<g id="edge24_Node000007_Node000006" class="edge">
<title>Node7&#45;&gt;Node6</title>
<g id="a_edge24_Node000007_Node000006"><a xlink:title=" ">
<path fill="none" stroke="#63b8ff" d="M819.27,-175.52C800.52,-182.08 778.05,-189.94 762.29,-195.45"/>
<polygon fill="#63b8ff" stroke="#63b8ff" points="820.37,-178.85 828.65,-172.24 818.06,-172.24 820.37,-178.85"/>
</a>
</g>
</g>
<!-- Node8 -->
<g id="Node000008" class="node">
<title>Node8</title>
<g id="a_Node000008"><a xlink:href="../../db/ddc/pick__engine_8c.html#aeebc4c0b94ca97d753e10a0cd1798730" target="_top" xlink:title="Displays the help screen for the pick interface using mview.">
<polygon fill="white" stroke="#666666" points="793,-134.75 690,-134.75 690,-114 793,-114 793,-134.75"/>
<text xml:space="preserve" text-anchor="middle" x="741.5" y="-121.25" font-family="Helvetica,sans-Serif" font-size="10.00">display_pick_help</text>
</a>
</g>
</g>
<!-- Node7&#45;&gt;Node8 -->
<g id="edge7_Node000007_Node000008" class="edge">
<title>Node7&#45;&gt;Node8</title>
<g id="a_edge7_Node000007_Node000008"><a xlink:title=" ">
<path fill="none" stroke="#63b8ff" d="M819.41,-151.28C804.76,-146.15 787.83,-140.23 773.59,-135.25"/>
<polygon fill="#63b8ff" stroke="#63b8ff" points="818.06,-154.51 828.65,-154.51 820.37,-147.9 818.06,-154.51"/>
</a>
</g>
</g>
<!-- Node13 -->
<g id="Node000013" class="node">
<title>Node13</title>
<g id="a_Node000013"><a xlink:href="../../d6/d18/menu__engine_8c.html#aa5d0e30e7036b72b51c843d0a7e486a1" target="_top" xlink:title="Processes user input for the menu system.">
<polygon fill="white" stroke="#666666" points="317.25,-59.75 194.75,-59.75 194.75,-39 317.25,-39 317.25,-59.75"/>
<text xml:space="preserve" text-anchor="middle" x="256" y="-46.25" font-family="Helvetica,sans-Serif" font-size="10.00">menu_cmd_processor</text>
</a>
</g>
</g>
<!-- Node7&#45;&gt;Node13 -->
<g id="edge25_Node000007_Node000013" class="edge">
<title>Node7&#45;&gt;Node13</title>
<g id="a_edge25_Node000007_Node000013"><a xlink:title=" ">
<path fill="none" stroke="#63b8ff" d="M844.87,-142.17C835.27,-122.59 818.26,-94.34 794.5,-79.38 725.49,-35.9 695.19,-48.38 613.62,-48.38 613.62,-48.38 613.62,-48.38 490.62,-48.38 431.81,-48.38 364.67,-48.7 317.51,-48.97"/>
<polygon fill="#63b8ff" stroke="#63b8ff" points="841.65,-143.55 849.02,-151.16 848,-140.61 841.65,-143.55"/>
</a>
</g>
</g>
<!-- Node16 -->
<g id="Node000016" class="node">
<title>Node16</title>
<g id="a_Node000016"><a xlink:href="../../db/ddc/pick__engine_8c.html#af7fcbb1c8b67a4d11c86ba7209f397c2" target="_top" xlink:title="Executes specified command with selected objects as arguments.">
<polygon fill="white" stroke="#666666" points="652.5,-96.75 572.75,-96.75 572.75,-76 652.5,-76 652.5,-96.75"/>
<text xml:space="preserve" text-anchor="middle" x="612.62" y="-83.25" font-family="Helvetica,sans-Serif" font-size="10.00">exec_objects</text>
</a>
</g>
</g>
<!-- Node7&#45;&gt;Node16 -->
<g id="edge16_Node000007_Node000016" class="edge">
<title>Node7&#45;&gt;Node16</title>
<g id="a_edge16_Node000007_Node000016"><a xlink:title=" ">
<path fill="none" stroke="#63b8ff" d="M839.69,-143.73C828.87,-130.5 812.79,-113.95 794.5,-105.38 749.34,-84.19 691.02,-81.92 652.99,-83.28"/>
<polygon fill="#63b8ff" stroke="#63b8ff" points="836.76,-145.67 845.66,-151.42 842.29,-141.38 836.76,-145.67"/>
</a>
</g>
</g>
<!-- Node17 -->
<g id="Node000017" class="node">
<title>Node17</title>
<g id="a_Node000017"><a xlink:href="../../d3/dee/form__engine_8c.html#ada302551bf41bf8ed6132fd34328a47e" target="_top" xlink:title="Form main processing loop.">
<polygon fill="white" stroke="#666666" points="780.25,-173.75 702.75,-173.75 702.75,-153 780.25,-153 780.25,-173.75"/>
<text xml:space="preserve" text-anchor="middle" x="741.5" y="-160.25" font-family="Helvetica,sans-Serif" font-size="10.00">form_engine</text>
</a>
</g>
</g>
<!-- Node7&#45;&gt;Node17 -->
<g id="edge18_Node000007_Node000017" class="edge">
<title>Node7&#45;&gt;Node17</title>
<g id="a_edge18_Node000007_Node000017"><a xlink:title=" ">
<path fill="none" stroke="#63b8ff" d="M818.91,-163.38C806.67,-163.38 792.88,-163.38 780.42,-163.38"/>
<polygon fill="#63b8ff" stroke="#63b8ff" points="818.57,-166.88 828.57,-163.38 818.57,-159.88 818.57,-166.88"/>
</a>
</g>
</g>
<!-- Node21 -->
<g id="Node000021" class="node">
<title>Node21</title>
<g id="a_Node000021"><a xlink:href="../../d4/dc1/src_2view__engine_8c.html#ad997ba9f8591568c77291fb1b44601b2" target="_top" xlink:title="Display View Help File.">
<polygon fill="white" stroke="#666666" points="794.5,-251.75 688.5,-251.75 688.5,-231 794.5,-231 794.5,-251.75"/>
<text xml:space="preserve" text-anchor="middle" x="741.5" y="-238.25" font-family="Helvetica,sans-Serif" font-size="10.00">view_display_help</text>
</a>
</g>
</g>
<!-- Node7&#45;&gt;Node21 -->
<g id="edge26_Node000007_Node000021" class="edge">
<title>Node7&#45;&gt;Node21</title>
<g id="a_edge26_Node000007_Node000021"><a xlink:title=" ">
<path fill="none" stroke="#63b8ff" d="M838.12,-182.46C826.96,-194.9 811.11,-210.73 794.5,-221.38 788.96,-224.92 782.7,-228 776.48,-230.6"/>
<polygon fill="#63b8ff" stroke="#63b8ff" points="840.45,-185.12 844.36,-175.28 835.16,-180.53 840.45,-185.12"/>
</a>
</g>
</g>
<!-- Node9 -->
<g id="Node000009" class="node">
<title>Node9</title>
<g id="a_Node000009"><a xlink:href="../../db/ddc/pick__engine_8c.html#abb0969a6d1c7e78be46c3b325754c802" target="_top" xlink:title="Main loop to handle user input and interactions for pick interface.">
<polygon fill="white" stroke="#666666" points="635.25,-135.75 590,-135.75 590,-115 635.25,-115 635.25,-135.75"/>
<text xml:space="preserve" text-anchor="middle" x="612.62" y="-122.25" font-family="Helvetica,sans-Serif" font-size="10.00">picker</text>
</a>
</g>
</g>
<!-- Node8&#45;&gt;Node9 -->
<g id="edge8_Node000008_Node000009" class="edge">
<title>Node8&#45;&gt;Node9</title>
<g id="a_edge8_Node000008_Node000009"><a xlink:title=" ">
<path fill="none" stroke="#63b8ff" d="M678.52,-124.86C663.16,-124.98 647.69,-125.11 635.71,-125.2"/>
<polygon fill="#63b8ff" stroke="#63b8ff" points="678.14,-128.37 688.11,-124.79 678.09,-121.37 678.14,-128.37"/>
</a>
</g>
</g>
<!-- Node10 -->
<g id="Node000010" class="node">
<title>Node10</title>
<g id="a_Node000010"><a xlink:href="../../db/ddc/pick__engine_8c.html#ab97dcab41017c5132f52b682437a151e" target="_top" xlink:title="Initializes pick interface, calculates window size and position, and enters picker loop.">
<polygon fill="white" stroke="#666666" points="528.88,-96.75 454.38,-96.75 454.38,-76 528.88,-76 528.88,-96.75"/>
<text xml:space="preserve" text-anchor="middle" x="491.62" y="-83.25" font-family="Helvetica,sans-Serif" font-size="10.00">pick_engine</text>
</a>
</g>
</g>
<!-- Node9&#45;&gt;Node10 -->
<g id="edge9_Node000009_Node000010" class="edge">
<title>Node9&#45;&gt;Node10</title>
<g id="a_edge9_Node000009_Node000010"><a xlink:title=" ">
<path fill="none" stroke="#63b8ff" d="M578.66,-114.57C562.05,-109.13 541.98,-102.55 525.4,-97.11"/>
<polygon fill="#63b8ff" stroke="#63b8ff" points="577.49,-117.87 588.08,-117.66 579.67,-111.22 577.49,-117.87"/>
</a>
</g>
</g>
<!-- Node11 -->
<g id="Node000011" class="node">
<title>Node11</title>
<g id="a_Node000011"><a xlink:href="../../db/ddc/pick__engine_8c.html#a1b2ee87543245e612c1710ea58930a17" target="_top" xlink:title="Initializes pick structure and opens pick input file or pipe.">
<polygon fill="white" stroke="#666666" points="410.5,-20.75 353.25,-20.75 353.25,0 410.5,0 410.5,-20.75"/>
<text xml:space="preserve" text-anchor="middle" x="381.88" y="-7.25" font-family="Helvetica,sans-Serif" font-size="10.00">init_pick</text>
</a>
</g>
</g>
<!-- Node10&#45;&gt;Node11 -->
<g id="edge10_Node000010_Node000011" class="edge">
<title>Node10&#45;&gt;Node11</title>
<g id="a_edge10_Node000010_Node000011"><a xlink:title=" ">
<path fill="none" stroke="#63b8ff" d="M466.43,-69.31C445.49,-54.54 415.85,-33.63 398.08,-21.1"/>
<polygon fill="#63b8ff" stroke="#63b8ff" points="464.22,-72.03 474.41,-74.94 468.25,-66.31 464.22,-72.03"/>
</a>
</g>
</g>
<!-- Node12 -->
<g id="Node000012" class="node">
<title>Node12</title>
<g id="a_Node000012"><a xlink:href="../../de/d7c/pick_8c.html#a3c04138a5bfe5d72780bb7e82a18e627" target="_top" xlink:title=" ">
<polygon fill="white" stroke="#666666" points="276.38,-20.75 235.62,-20.75 235.62,0 276.38,0 276.38,-20.75"/>
<text xml:space="preserve" text-anchor="middle" x="256" y="-7.25" font-family="Helvetica,sans-Serif" font-size="10.00">main</text>
</a>
</g>
</g>
<!-- Node11&#45;&gt;Node12 -->
<g id="edge11_Node000011_Node000012" class="edge">
<title>Node11&#45;&gt;Node12</title>
<g id="a_edge11_Node000011_Node000012"><a xlink:title=" ">
<path fill="none" stroke="#63b8ff" d="M341.27,-10.38C319.64,-10.38 293.83,-10.38 276.52,-10.38"/>
<polygon fill="#63b8ff" stroke="#63b8ff" points="341.25,-13.88 351.25,-10.38 341.25,-6.88 341.25,-13.88"/>
</a>
</g>
</g>
<!-- Node11&#45;&gt;Node13 -->
<g id="edge12_Node000011_Node000013" class="edge">
<title>Node11&#45;&gt;Node13</title>
<g id="a_edge12_Node000011_Node000013"><a xlink:title=" ">
<path fill="none" stroke="#63b8ff" d="M341.96,-22.63C325.67,-27.75 306.92,-33.66 291.18,-38.61"/>
<polygon fill="#63b8ff" stroke="#63b8ff" points="342.83,-26.02 351.32,-19.68 340.73,-19.34 342.83,-26.02"/>
</a>
</g>
</g>
<!-- Node14 -->
<g id="Node000014" class="node">
<title>Node14</title>
<g id="a_Node000014"><a xlink:href="../../d6/d18/menu__engine_8c.html#a7d7973d7aac92759dcc86ec52bb038f4" target="_top" xlink:title="The main loop of the menu system.">
<polygon fill="white" stroke="#666666" points="158.75,-59.75 76.75,-59.75 76.75,-39 158.75,-39 158.75,-59.75"/>
<text xml:space="preserve" text-anchor="middle" x="117.75" y="-46.25" font-family="Helvetica,sans-Serif" font-size="10.00">menu_engine</text>
</a>
</g>
</g>
<!-- Node13&#45;&gt;Node14 -->
<g id="edge13_Node000013_Node000014" class="edge">
<title>Node13&#45;&gt;Node14</title>
<g id="a_edge13_Node000013_Node000014"><a xlink:title=" ">
<path fill="none" stroke="#63b8ff" d="M183.2,-42.63C174.96,-42.67 166.79,-42.84 159.17,-43.15"/>
<polygon fill="#63b8ff" stroke="#63b8ff" points="182.92,-46.13 192.93,-42.66 182.94,-39.13 182.92,-46.13"/>
</a>
</g>
</g>
<!-- Node14&#45;&gt;Node13 -->
<g id="edge15_Node000014_Node000013" class="edge">
<title>Node14&#45;&gt;Node13</title>
<g id="a_edge15_Node000014_Node000013"><a xlink:title=" ">
<path fill="none" stroke="#63b8ff" d="M170.68,-55.95C178.45,-56.12 186.52,-56.17 194.45,-56.09"/>
<polygon fill="#63b8ff" stroke="#63b8ff" points="170.79,-52.45 160.69,-55.65 170.58,-59.45 170.79,-52.45"/>
</a>
</g>
</g>
<!-- Node15 -->
<g id="Node000015" class="node">
<title>Node15</title>
<g id="a_Node000015"><a xlink:href="../../d2/d0a/menu_8c.html#a3c04138a5bfe5d72780bb7e82a18e627" target="_top" xlink:title=" ">
<polygon fill="white" stroke="#666666" points="40.75,-59.75 0,-59.75 0,-39 40.75,-39 40.75,-59.75"/>
<text xml:space="preserve" text-anchor="middle" x="20.38" y="-46.25" font-family="Helvetica,sans-Serif" font-size="10.00">main</text>
</a>
</g>
</g>
<!-- Node14&#45;&gt;Node15 -->
<g id="edge14_Node000014_Node000015" class="edge">
<title>Node14&#45;&gt;Node15</title>
<g id="a_edge14_Node000014_Node000015"><a xlink:title=" ">
<path fill="none" stroke="#63b8ff" d="M64.79,-49.38C56.36,-49.38 48.1,-49.38 41.09,-49.38"/>
<polygon fill="#63b8ff" stroke="#63b8ff" points="64.79,-52.88 74.79,-49.38 64.79,-45.88 64.79,-52.88"/>
</a>
</g>
</g>
<!-- Node16&#45;&gt;Node10 -->
<g id="edge17_Node000016_Node000010" class="edge">
<title>Node16&#45;&gt;Node10</title>
<g id="a_edge17_Node000016_Node000010"><a xlink:title=" ">
<path fill="none" stroke="#63b8ff" d="M560.93,-86.38C550.22,-86.38 539.12,-86.38 529.06,-86.38"/>
<polygon fill="#63b8ff" stroke="#63b8ff" points="560.82,-89.88 570.82,-86.38 560.82,-82.88 560.82,-89.88"/>
</a>
</g>
</g>
<!-- Node18 -->
<g id="Node000018" class="node">
<title>Node18</title>
<g id="a_Node000018"><a xlink:href="../../d3/dee/form__engine_8c.html#abf1be20a8aad5f7ba09172ac1434a110" target="_top" xlink:title="Initialize form data structure and parse description file.">
<polygon fill="white" stroke="#666666" points="642.75,-174.75 582.5,-174.75 582.5,-154 642.75,-154 642.75,-174.75"/>
<text xml:space="preserve" text-anchor="middle" x="612.62" y="-161.25" font-family="Helvetica,sans-Serif" font-size="10.00">init_form</text>
</a>
</g>
</g>
<!-- Node17&#45;&gt;Node18 -->
<g id="edge19_Node000017_Node000018" class="edge">
<title>Node17&#45;&gt;Node18</title>
<g id="a_edge19_Node000017_Node000018"><a xlink:title=" ">
<path fill="none" stroke="#63b8ff" d="M690.96,-163.77C674.81,-163.89 657.4,-164.03 643.2,-164.14"/>
<polygon fill="#63b8ff" stroke="#63b8ff" points="690.95,-167.27 700.92,-163.69 690.89,-160.27 690.95,-167.27"/>
</a>
</g>
</g>
<!-- Node18&#45;&gt;Node13 -->
<g id="edge23_Node000018_Node000013" class="edge">
<title>Node18&#45;&gt;Node13</title>
<g id="a_edge23_Node000018_Node000013"><a xlink:title=" ">
<path fill="none" stroke="#63b8ff" d="M571.65,-151.41C501.16,-128.55 356.02,-81.49 290.45,-60.22"/>
<polygon fill="#63b8ff" stroke="#63b8ff" points="570.27,-154.64 580.86,-154.4 572.43,-147.99 570.27,-154.64"/>
</a>
</g>
</g>
<!-- Node19 -->
<g id="Node000019" class="node">
<title>Node19</title>
<g id="a_Node000019"><a xlink:href="../../d4/dc1/src_2view__engine_8c.html#a2ffea5674e85f124a70e19f745a66583" target="_top" xlink:title="use form to enter a file specification">
<polygon fill="white" stroke="#666666" points="536.75,-251.75 446.5,-251.75 446.5,-231 536.75,-231 536.75,-251.75"/>
<text xml:space="preserve" text-anchor="middle" x="491.62" y="-238.25" font-family="Helvetica,sans-Serif" font-size="10.00">enter_file_spec</text>
</a>
</g>
</g>
<!-- Node18&#45;&gt;Node19 -->
<g id="edge20_Node000018_Node000019" class="edge">
<title>Node18&#45;&gt;Node19</title>
<g id="a_edge20_Node000018_Node000019"><a xlink:title=" ">
<path fill="none" stroke="#63b8ff" d="M585.26,-181.43C562.08,-196.43 529.05,-217.8 509.34,-230.56"/>
<polygon fill="#63b8ff" stroke="#63b8ff" points="587.06,-184.44 593.56,-176.07 583.26,-178.56 587.06,-184.44"/>
</a>
</g>
</g>
<!-- Node20 -->
<g id="Node000020" class="node">
<title>Node20</title>
<g id="a_Node000020"><a xlink:href="../../d5/d97/form_8c.html#a3c04138a5bfe5d72780bb7e82a18e627" target="_top" xlink:title=" ">
<polygon fill="white" stroke="#666666" points="512,-174.75 471.25,-174.75 471.25,-154 512,-154 512,-174.75"/>
<text xml:space="preserve" text-anchor="middle" x="491.62" y="-161.25" font-family="Helvetica,sans-Serif" font-size="10.00">main</text>
</a>
</g>
</g>
<!-- Node18&#45;&gt;Node20 -->
<g id="edge22_Node000018_Node000020" class="edge">
<title>Node18&#45;&gt;Node20</title>
<g id="a_edge22_Node000018_Node000020"><a xlink:title=" ">
<path fill="none" stroke="#63b8ff" d="M570.72,-164.38C550.99,-164.38 528.24,-164.38 512.4,-164.38"/>
<polygon fill="#63b8ff" stroke="#63b8ff" points="570.7,-167.88 580.7,-164.38 570.7,-160.88 570.7,-167.88"/>
</a>
</g>
</g>
<!-- Node19&#45;&gt;Node4 -->
<g id="edge21_Node000019_Node000004" class="edge">
<title>Node19&#45;&gt;Node4</title>
<g id="a_edge21_Node000019_Node000004"><a xlink:title=" ">
<path fill="none" stroke="#63b8ff" d="M547.38,-254.66C597.37,-265.62 673.45,-279.38 740.5,-279.38 856,-279.38 856,-279.38 856,-279.38 908.72,-279.38 968.46,-273.57 1011.36,-268.38"/>
<polygon fill="#63b8ff" stroke="#63b8ff" points="548.2,-251.26 537.67,-252.49 546.67,-258.09 548.2,-251.26"/>
</a>
</g>
</g>
<!-- Node21&#45;&gt;Node4 -->
<g id="edge27_Node000021_Node000004" class="edge">
<title>Node21&#45;&gt;Node4</title>
<g id="a_edge27_Node000021_Node000004"><a xlink:title=" ">
<path fill="none" stroke="#63b8ff" d="M806.1,-245.07C865.66,-248.53 953.9,-253.65 1011.62,-257"/>
<polygon fill="#63b8ff" stroke="#63b8ff" points="806.65,-241.59 796.47,-244.51 806.25,-248.58 806.65,-241.59"/>
</a>
</g>
</g>
<!-- Node22&#45;&gt;Node4 -->
<g id="edge40_Node000022_Node000004" class="edge">
<title>Node22&#45;&gt;Node4</title>
<g id="a_edge40_Node000022_Node000004"><a xlink:title=" ">
<path fill="none" stroke="#63b8ff" d="M1463.68,-246.37C1447.18,-254.76 1425.76,-264.32 1405.5,-269.38 1302.02,-295.18 1271.87,-289.99 1165.75,-279.38 1149.35,-277.73 1131.58,-274.52 1115.94,-271.2"/>
<polygon fill="#63b8ff" stroke="#63b8ff" points="1465.19,-249.53 1472.42,-241.78 1461.93,-243.33 1465.19,-249.53"/>
</a>
</g>
</g>
<!-- Node22&#45;&gt;Node5 -->
<g id="edge41_Node000022_Node000005" class="edge">
<title>Node22&#45;&gt;Node5</title>
<g id="a_edge41_Node000022_Node000005"><a xlink:title=" ">
<path fill="none" stroke="#63b8ff" d="M1473.61,-212.2C1456.71,-196.45 1430.72,-173.68 1405.5,-157.38 1343.56,-117.34 1327.9,-101.79 1256,-85.38 1140.76,-59.07 1006.4,-141.19 961.84,-171.56"/>
<polygon fill="#63b8ff" stroke="#63b8ff" points="1470.79,-214.36 1480.46,-218.69 1475.6,-209.28 1470.79,-214.36"/>
</a>
</g>
</g>
<!-- Node23 -->
<g id="Node000023" class="node">
<title>Node23</title>
<g id="a_Node000023"><a xlink:href="../../d4/dc1/src_2view__engine_8c.html#ae6623cc4892a014fc9c40b3bca1db7d9" target="_top" xlink:title="Go to Percent of File.">
<polygon fill="white" stroke="#666666" points="1253.38,-153.75 1168.38,-153.75 1168.38,-133 1253.38,-133 1253.38,-153.75"/>
<text xml:space="preserve" text-anchor="middle" x="1210.88" y="-140.25" font-family="Helvetica,sans-Serif" font-size="10.00">go_to_percent</text>
</a>
</g>
</g>
<!-- Node22&#45;&gt;Node23 -->
<g id="edge29_Node000022_Node000023" class="edge">
<title>Node22&#45;&gt;Node23</title>
<g id="a_edge29_Node000022_Node000023"><a xlink:title=" ">
<path fill="none" stroke="#63b8ff" d="M1460.26,-214.82C1444.09,-207.37 1424.02,-198.72 1405.5,-192.38 1354.16,-174.79 1293.23,-160.39 1253.62,-151.86"/>
<polygon fill="#63b8ff" stroke="#63b8ff" points="1458.36,-217.8 1468.91,-218.86 1461.33,-211.45 1458.36,-217.8"/>
</a>
</g>
</g>
<!-- Node24 -->
<g id="Node000024" class="node">
<title>Node24</title>
<g id="a_Node000024"><a xlink:href="../../d4/dc1/src_2view__engine_8c.html#a5f74dca8730faaa3ff362fc1e01b12ce" target="_top" xlink:title="Go to Specific File Position.">
<polygon fill="white" stroke="#666666" points="1392.38,-221.75 1305.12,-221.75 1305.12,-201 1392.38,-201 1392.38,-221.75"/>
<text xml:space="preserve" text-anchor="middle" x="1348.75" y="-208.25" font-family="Helvetica,sans-Serif" font-size="10.00">go_to_position</text>
</a>
</g>
</g>
<!-- Node22&#45;&gt;Node24 -->
<g id="edge31_Node000022_Node000024" class="edge">
<title>Node22&#45;&gt;Node24</title>
<g id="a_edge31_Node000022_Node000024"><a xlink:title=" ">
<path fill="none" stroke="#63b8ff" d="M1448.47,-224.53C1430.8,-222.17 1410.47,-219.46 1392.87,-217.12"/>
<polygon fill="#63b8ff" stroke="#63b8ff" points="1447.78,-227.96 1458.15,-225.82 1448.7,-221.03 1447.78,-227.96"/>
</a>
</g>
</g>
<!-- Node27 -->
<g id="Node000027" class="node">
<title>Node27</title>
<g id="a_Node000027"><a xlink:href="../../d4/dc1/src_2view__engine_8c.html#a5dbc34981815690a92812e34d1cf478f" target="_top" xlink:title="display previous page">
<polygon fill="white" stroke="#666666" points="1382.25,-260.75 1315.25,-260.75 1315.25,-240 1382.25,-240 1382.25,-260.75"/>
<text xml:space="preserve" text-anchor="middle" x="1348.75" y="-247.25" font-family="Helvetica,sans-Serif" font-size="10.00">prev_page</text>
</a>
</g>
</g>
<!-- Node22&#45;&gt;Node27 -->
<g id="edge36_Node000022_Node000027" class="edge">
<title>Node22&#45;&gt;Node27</title>
<g id="a_edge36_Node000022_Node000027"><a xlink:title=" ">
<path fill="none" stroke="#63b8ff" d="M1448.27,-236.56C1426.97,-239.55 1401.86,-243.07 1382.32,-245.81"/>
<polygon fill="#63b8ff" stroke="#63b8ff" points="1448.74,-240.03 1458.16,-235.17 1447.77,-233.1 1448.74,-240.03"/>
</a>
</g>
</g>
<!-- Node23&#45;&gt;Node4 -->
<g id="edge30_Node000023_Node000004" class="edge">
<title>Node23&#45;&gt;Node4</title>
<g id="a_edge30_Node000023_Node000004"><a xlink:title=" ">
<path fill="none" stroke="#63b8ff" d="M1171.83,-159.47C1169.73,-160.71 1167.68,-162.01 1165.75,-163.38 1129.12,-189.16 1094.82,-230.46 1079.77,-249.78"/>
<polygon fill="#63b8ff" stroke="#63b8ff" points="1173.4,-162.6 1180.59,-154.83 1170.12,-156.41 1173.4,-162.6"/>
</a>
</g>
</g>
<!-- Node25 -->
<g id="Node000025" class="node">
<title>Node25</title>
<g id="a_Node000025"><a xlink:href="../../d4/dc1/src_2view__engine_8c.html#ac81796e830049e74987a6b526cfc296f" target="_top" xlink:title="Go to Specific Line.">
<polygon fill="white" stroke="#666666" points="1244,-231.75 1177.75,-231.75 1177.75,-211 1244,-211 1244,-231.75"/>
<text xml:space="preserve" text-anchor="middle" x="1210.88" y="-218.25" font-family="Helvetica,sans-Serif" font-size="10.00">go_to_line</text>
</a>
</g>
</g>
<!-- Node24&#45;&gt;Node25 -->
<g id="edge32_Node000024_Node000025" class="edge">
<title>Node24&#45;&gt;Node25</title>
<g id="a_edge32_Node000024_Node000025"><a xlink:title=" ">
<path fill="none" stroke="#63b8ff" d="M1293.45,-215.37C1276.78,-216.6 1258.96,-217.91 1244.25,-218.99"/>
<polygon fill="#63b8ff" stroke="#63b8ff" points="1293.53,-218.87 1303.25,-214.65 1293.02,-211.89 1293.53,-218.87"/>
</a>
</g>
</g>
<!-- Node26 -->
<g id="Node000026" class="node">
<title>Node26</title>
<g id="a_Node000026"><a xlink:href="../../d4/dc1/src_2view__engine_8c.html#ada77a15a548ce444426d43fd39a1cce4" target="_top" xlink:title="Go to Mark.">
<polygon fill="white" stroke="#666666" points="1247.75,-192.75 1174,-192.75 1174,-172 1247.75,-172 1247.75,-192.75"/>
<text xml:space="preserve" text-anchor="middle" x="1210.88" y="-179.25" font-family="Helvetica,sans-Serif" font-size="10.00">go_to_mark</text>
</a>
</g>
</g>
<!-- Node24&#45;&gt;Node26 -->
<g id="edge34_Node000024_Node000026" class="edge">
<title>Node24&#45;&gt;Node26</title>
<g id="a_edge34_Node000024_Node000026"><a xlink:title=" ">
<path fill="none" stroke="#63b8ff" d="M1293.83,-199.87C1278.51,-196.6 1262.2,-193.12 1248.2,-190.13"/>
<polygon fill="#63b8ff" stroke="#63b8ff" points="1292.77,-203.22 1303.28,-201.88 1294.23,-196.37 1292.77,-203.22"/>
</a>
</g>
</g>
<!-- Node25&#45;&gt;Node4 -->
<g id="edge33_Node000025_Node000004" class="edge">
<title>Node25&#45;&gt;Node4</title>
<g id="a_edge33_Node000025_Node000004"><a xlink:title=" ">
<path fill="none" stroke="#63b8ff" d="M1166.62,-233.59C1148.5,-238.7 1127.62,-244.6 1110.06,-249.56"/>
<polygon fill="#63b8ff" stroke="#63b8ff" points="1167.36,-237.02 1176.03,-230.93 1165.46,-230.28 1167.36,-237.02"/>
</a>
</g>
</g>
<!-- Node26&#45;&gt;Node4 -->
<g id="edge35_Node000026_Node000004" class="edge">
<title>Node26&#45;&gt;Node4</title>
<g id="a_edge35_Node000026_Node000004"><a xlink:title=" ">
<path fill="none" stroke="#63b8ff" d="M1174.62,-197.87C1171.6,-199.34 1168.6,-200.86 1165.75,-202.38 1137.48,-217.42 1106.09,-237.52 1087.68,-249.68"/>
<polygon fill="#63b8ff" stroke="#63b8ff" points="1175.94,-201.11 1183.5,-193.69 1172.96,-194.78 1175.94,-201.11"/>
</a>
</g>
</g>
<!-- Node27&#45;&gt;Node25 -->
<g id="edge39_Node000027_Node000025" class="edge">
<title>Node27&#45;&gt;Node25</title>
<g id="a_edge39_Node000027_Node000025"><a xlink:title=" ">
<path fill="none" stroke="#63b8ff" d="M1303.62,-240.96C1284.36,-236.85 1262.19,-232.11 1244.46,-228.33"/>
<polygon fill="#63b8ff" stroke="#63b8ff" points="1302.87,-244.37 1313.38,-243.04 1304.33,-237.53 1302.87,-244.37"/>
</a>
</g>
</g>
<!-- Node28 -->
<g id="Node000028" class="node">
<title>Node28</title>
<g id="a_Node000028"><a xlink:href="../../d4/dc1/src_2view__engine_8c.html#a46145f1d3680a48cb9391a8ae95db9ad" target="_top" xlink:title="Go to End of File.">
<polygon fill="white" stroke="#666666" points="1242.88,-270.75 1178.88,-270.75 1178.88,-250 1242.88,-250 1242.88,-270.75"/>
<text xml:space="preserve" text-anchor="middle" x="1210.88" y="-257.25" font-family="Helvetica,sans-Serif" font-size="10.00">go_to_eof</text>
</a>
</g>
</g>
<!-- Node27&#45;&gt;Node28 -->
<g id="edge37_Node000027_Node000028" class="edge">
<title>Node27&#45;&gt;Node28</title>
<g id="a_edge37_Node000027_Node000028"><a xlink:title=" ">
<path fill="none" stroke="#63b8ff" d="M1303.64,-253.62C1283.87,-255.08 1261.02,-256.76 1243.06,-258.08"/>
<polygon fill="#63b8ff" stroke="#63b8ff" points="1303.63,-257.13 1313.35,-252.91 1303.12,-250.15 1303.63,-257.13"/>
</a>
</g>
</g>
<!-- Node28&#45;&gt;Node4 -->
<g id="edge38_Node000028_Node000004" class="edge">
<title>Node28&#45;&gt;Node4</title>
<g id="a_edge38_Node000028_Node000004"><a xlink:title=" ">
<path fill="none" stroke="#63b8ff" d="M1167.26,-260.38C1155.53,-260.38 1142.6,-260.38 1130.15,-260.38"/>
<polygon fill="#63b8ff" stroke="#63b8ff" points="1167.02,-263.88 1177.02,-260.38 1167.02,-256.88 1167.02,-263.88"/>
</a>
</g>
</g>
<!-- Node29&#45;&gt;Node4 -->
<g id="edge43_Node000029_Node000004" class="edge">
<title>Node29&#45;&gt;Node4</title>
<g id="a_edge43_Node000029_Node000004"><a xlink:title=" ">
<path fill="none" stroke="#63b8ff" d="M1170.38,-120.88C1168.77,-121.99 1167.21,-123.15 1165.75,-124.38 1121.25,-161.54 1088.45,-224.73 1076.59,-249.73"/>
<polygon fill="#63b8ff" stroke="#63b8ff" points="1171.92,-124.04 1178.77,-115.96 1168.38,-118 1171.92,-124.04"/>
</a>
</g>
</g>
<!-- Node30&#45;&gt;Node4 -->
<g id="edge45_Node000030_Node000004" class="edge">
<title>Node30&#45;&gt;Node4</title>
<g id="a_edge45_Node000030_Node000004"><a xlink:title=" ">
<path fill="none" stroke="#63b8ff" d="M1280.71,-450.98C1243.91,-447.78 1199.12,-438.72 1165.75,-415.38 1112.37,-378.03 1083.86,-299.74 1074.9,-271.13"/>
<polygon fill="#63b8ff" stroke="#63b8ff" points="1280.12,-454.45 1290.34,-451.69 1280.63,-447.47 1280.12,-454.45"/>
</a>
</g>
</g>
<!-- Node31&#45;&gt;Node4 -->
<g id="edge47_Node000031_Node000004" class="edge">
<title>Node31&#45;&gt;Node4</title>
<g id="a_edge47_Node000031_Node000004"><a xlink:title=" ">
<path fill="none" stroke="#63b8ff" d="M1431.99,-304.81C1365.95,-310.32 1257.3,-314.89 1165.75,-297.38 1139.39,-292.33 1110.97,-280.1 1092.36,-271.08"/>
<polygon fill="#63b8ff" stroke="#63b8ff" points="1432.25,-308.3 1441.91,-303.95 1431.64,-301.33 1432.25,-308.3"/>
</a>
</g>
</g>
<!-- Node32&#45;&gt;Node4 -->
<g id="edge50_Node000032_Node000004" class="edge">
<title>Node32&#45;&gt;Node4</title>
<g id="a_edge50_Node000032_Node000004"><a xlink:title=" ">
<path fill="none" stroke="#63b8ff" d="M1430.06,-341.91C1363.16,-344.83 1254.51,-343.9 1165.75,-316.38 1134.36,-306.64 1102.47,-284.49 1085.09,-271.15"/>
<polygon fill="#63b8ff" stroke="#63b8ff" points="1429.91,-345.42 1439.73,-341.44 1429.58,-338.43 1429.91,-345.42"/>
</a>
</g>
</g>
</g>
</svg>
