<?xml version="1.0" encoding="UTF-8" standalone="no"?>
<!DOCTYPE svg PUBLIC "-//W3C//DTD SVG 1.1//EN"
 "http://www.w3.org/Graphics/SVG/1.1/DTD/svg11.dtd">
<!-- Generated by graphviz version 14.1.2 (0)
 -->
<!-- Title: scroll_up_n_lines Pages: 1 -->
<svg width="1158pt" height="665pt"
 viewBox="0.00 0.00 1158.00 665.00" xmlns="http://www.w3.org/2000/svg" xmlns:xlink="http://www.w3.org/1999/xlink">
<g id="graph0" class="graph" transform="scale(1 1) rotate(0) translate(4 661.39)">
<title>scroll_up_n_lines</title>
<!-- Node1 -->
<g id="Node000001" class="node">
<title>Node1</title>
<g id="a_Node000001"><a xlink:title="Scroll Up N Lines.">
<polygon fill="#999999" stroke="#666666" points="99.25,-231.75 0,-231.75 0,-211 99.25,-211 99.25,-231.75"/>
<text xml:space="preserve" text-anchor="middle" x="49.62" y="-218.25" font-family="Helvetica,sans-Serif" font-size="10.00">scroll_up_n_lines</text>
</a>
</g>
</g>
<!-- Node2 -->
<g id="Node000002" class="node">
<title>Node2</title>
<g id="a_Node000002"><a xlink:href="../../d4/dc1/src_2view__engine_8c.html#a16a4b855ead8402d4744e77a5504082a" target="_top" xlink:title="Display Line on Pad.">
<polygon fill="white" stroke="#666666" points="224.75,-337.75 150.25,-337.75 150.25,-317 224.75,-317 224.75,-337.75"/>
<text xml:space="preserve" text-anchor="middle" x="187.5" y="-324.25" font-family="Helvetica,sans-Serif" font-size="10.00">display_line</text>
</a>
</g>
</g>
<!-- Node1&#45;&gt;Node2 -->
<g id="edge1_Node000001_Node000002" class="edge">
<title>Node1&#45;&gt;Node2</title>
<g id="a_edge1_Node000001_Node000002"><a xlink:title=" ">
<path fill="none" stroke="#63b8ff" d="M64.4,-232.12C87.8,-250.38 135.52,-287.6 163.88,-309.73"/>
<polygon fill="#63b8ff" stroke="#63b8ff" points="161.46,-312.28 171.49,-315.67 165.76,-306.76 161.46,-312.28"/>
</a>
</g>
</g>
<!-- Node23 -->
<g id="Node000023" class="node">
<title>Node23</title>
<g id="a_Node000023"><a xlink:href="../../d4/dc1/src_2view__engine_8c.html#a747411d59b020ad11d4567ab0b3db8c2" target="_top" xlink:title="Format Line for Display.">
<polygon fill="white" stroke="#666666" points="215.75,-251.75 159.25,-251.75 159.25,-231 215.75,-231 215.75,-251.75"/>
<text xml:space="preserve" text-anchor="middle" x="187.5" y="-238.25" font-family="Helvetica,sans-Serif" font-size="10.00">fmt_line</text>
</a>
</g>
</g>
<!-- Node1&#45;&gt;Node23 -->
<g id="edge37_Node000001_Node000023" class="edge">
<title>Node1&#45;&gt;Node23</title>
<g id="a_edge37_Node000001_Node000023"><a xlink:title=" ">
<path fill="none" stroke="#63b8ff" d="M99.68,-228.6C115.39,-230.91 132.57,-233.44 147.47,-235.63"/>
<polygon fill="#63b8ff" stroke="#63b8ff" points="146.96,-239.09 157.36,-237.09 147.98,-232.17 146.96,-239.09"/>
</a>
</g>
</g>
<!-- Node31 -->
<g id="Node000031" class="node">
<title>Node31</title>
<g id="a_Node000031"><a xlink:href="../../d4/dc1/src_2view__engine_8c.html#a395b27e6a9716bf49e3fc04d53987b33" target="_top" xlink:title="Get Next Line from File.">
<polygon fill="white" stroke="#666666" points="228.5,-212.75 146.5,-212.75 146.5,-192 228.5,-192 228.5,-212.75"/>
<text xml:space="preserve" text-anchor="middle" x="187.5" y="-199.25" font-family="Helvetica,sans-Serif" font-size="10.00">get_next_line</text>
</a>
</g>
</g>
<!-- Node1&#45;&gt;Node31 -->
<g id="edge47_Node000001_Node000031" class="edge">
<title>Node1&#45;&gt;Node31</title>
<g id="a_edge47_Node000001_Node000031"><a xlink:title=" ">
<path fill="none" stroke="#63b8ff" d="M99.68,-214.52C111.08,-212.92 123.25,-211.22 134.77,-209.61"/>
<polygon fill="#63b8ff" stroke="#63b8ff" points="135.09,-213.1 144.51,-208.25 134.12,-206.17 135.09,-213.1"/>
</a>
</g>
</g>
<!-- Node32 -->
<g id="Node000032" class="node">
<title>Node32</title>
<g id="a_Node000032"><a xlink:href="../../d4/dc1/src_2view__engine_8c.html#aaf8cff992778d85e44351a834ad2b81a" target="_top" xlink:title="Get Position of Previous Line.">
<polygon fill="white" stroke="#666666" points="239.75,-173.75 135.25,-173.75 135.25,-153 239.75,-153 239.75,-173.75"/>
<text xml:space="preserve" text-anchor="middle" x="187.5" y="-160.25" font-family="Helvetica,sans-Serif" font-size="10.00">get_pos_prev_line</text>
</a>
</g>
</g>
<!-- Node1&#45;&gt;Node32 -->
<g id="edge48_Node000001_Node000032" class="edge">
<title>Node1&#45;&gt;Node32</title>
<g id="a_edge48_Node000001_Node000032"><a xlink:title=" ">
<path fill="none" stroke="#63b8ff" d="M73.84,-210.58C90.76,-202.79 114.31,-192.16 135.25,-183.38 139.13,-181.75 143.2,-180.09 147.27,-178.45"/>
<polygon fill="#63b8ff" stroke="#63b8ff" points="148.52,-181.72 156.53,-174.79 145.94,-175.21 148.52,-181.72"/>
</a>
</g>
</g>
<!-- Node3 -->
<g id="Node000003" class="node">
<title>Node3</title>
<g id="a_Node000003"><a xlink:href="../../dc/d40/dwin_8c.html#a61b4f28456257f68ed042bed7f187efd" target="_top" xlink:title="Display a simple error message window or print to stderr.">
<polygon fill="white" stroke="#666666" points="341.62,-384.75 296.38,-384.75 296.38,-364 341.62,-364 341.62,-384.75"/>
<text xml:space="preserve" text-anchor="middle" x="319" y="-371.25" font-family="Helvetica,sans-Serif" font-size="10.00">Perror</text>
</a>
</g>
</g>
<!-- Node2&#45;&gt;Node3 -->
<g id="edge2_Node000002_Node000003" class="edge">
<title>Node2&#45;&gt;Node3</title>
<g id="a_edge2_Node000002_Node000003"><a xlink:title=" ">
<path fill="none" stroke="#63b8ff" d="M218.21,-338.16C238.25,-345.43 264.69,-355.03 285.32,-362.51"/>
<polygon fill="#63b8ff" stroke="#63b8ff" points="284.09,-365.79 294.68,-365.91 286.48,-359.21 284.09,-365.79"/>
</a>
</g>
</g>
<!-- Node4 -->
<g id="Node000004" class="node">
<title>Node4</title>
<g id="a_Node000004"><a xlink:href="../../dc/d40/dwin_8c.html#a8f6c45ca4a7f6a41c4c88314e697565a" target="_top" xlink:title="Abnormal program termination.">
<polygon fill="white" stroke="#666666" points="868.38,-443.75 822.38,-443.75 822.38,-423 868.38,-423 868.38,-443.75"/>
<text xml:space="preserve" text-anchor="middle" x="845.38" y="-430.25" font-family="Helvetica,sans-Serif" font-size="10.00">abend</text>
</a>
</g>
</g>
<!-- Node3&#45;&gt;Node4 -->
<g id="edge3_Node000003_Node000004" class="edge">
<title>Node3&#45;&gt;Node4</title>
<g id="a_edge3_Node000003_Node000004"><a xlink:title=" ">
<path fill="none" stroke="#63b8ff" d="M325.2,-385.09C335.84,-405.82 362.18,-451.4 398.25,-474.38 506.62,-543.4 554.08,-519.44 682.25,-528.38 723.59,-531.26 738.58,-547.21 775.5,-528.38 805.62,-513.01 825.63,-477.64 835.98,-454.66"/>
<polygon fill="#63b8ff" stroke="#63b8ff" points="839.13,-456.2 839.82,-445.63 832.69,-453.47 839.13,-456.2"/>
</a>
</g>
</g>
<!-- Node8 -->
<g id="Node000008" class="node">
<title>Node8</title>
<g id="a_Node000008"><a xlink:href="../../dc/d40/dwin_8c.html#a645871e46277e31736bc36d0f3dce4bd" target="_top" xlink:title="construct the chyron string from the chyron structure">
<polygon fill="white" stroke="#666666" points="775.5,-328.75 682.25,-328.75 682.25,-308 775.5,-308 775.5,-328.75"/>
<text xml:space="preserve" text-anchor="middle" x="728.88" y="-315.25" font-family="Helvetica,sans-Serif" font-size="10.00">compile_chyron</text>
</a>
</g>
</g>
<!-- Node3&#45;&gt;Node8 -->
<g id="edge9_Node000003_Node000008" class="edge">
<title>Node3&#45;&gt;Node8</title>
<g id="a_edge9_Node000003_Node000008"><a xlink:title=" ">
<path fill="none" stroke="#63b8ff" d="M342.11,-368.28C357.71,-364.15 379.13,-358.85 398.25,-355.38 492.99,-338.15 604.59,-327.64 670.61,-322.42"/>
<polygon fill="#63b8ff" stroke="#63b8ff" points="670.79,-325.92 680.49,-321.66 670.25,-318.94 670.79,-325.92"/>
</a>
</g>
</g>
<!-- Node10 -->
<g id="Node000010" class="node">
<title>Node10</title>
<g id="a_Node000010"><a xlink:href="../../dc/d40/dwin_8c.html#a3f3feb40fd703913c5c136331f627c91" target="_top" xlink:title="Destroy Chyron structure.">
<polygon fill="white" stroke="#666666" points="774.38,-252.75 683.38,-252.75 683.38,-232 774.38,-232 774.38,-252.75"/>
<text xml:space="preserve" text-anchor="middle" x="728.88" y="-239.25" font-family="Helvetica,sans-Serif" font-size="10.00">destroy_chyron</text>
</a>
</g>
</g>
<!-- Node3&#45;&gt;Node10 -->
<g id="edge11_Node000003_Node000010" class="edge">
<title>Node3&#45;&gt;Node10</title>
<g id="a_edge11_Node000003_Node000010"><a xlink:title=" ">
<path fill="none" stroke="#63b8ff" d="M338.49,-363.59C354.04,-354.84 377.07,-342.65 398.25,-334.38 491.76,-297.85 605.44,-269.46 671.92,-254.38"/>
<polygon fill="#63b8ff" stroke="#63b8ff" points="672.5,-257.83 681.49,-252.23 670.97,-251.01 672.5,-257.83"/>
</a>
</g>
</g>
<!-- Node11 -->
<g id="Node000011" class="node">
<title>Node11</title>
<g id="a_Node000011"><a xlink:href="../../dc/d40/dwin_8c.html#ad37d5808ff30ae6894780425d865abae" target="_top" xlink:title="Create and initialize Chyron structure.">
<polygon fill="white" stroke="#666666" points="766.12,-443.75 691.62,-443.75 691.62,-423 766.12,-423 766.12,-443.75"/>
<text xml:space="preserve" text-anchor="middle" x="728.88" y="-430.25" font-family="Helvetica,sans-Serif" font-size="10.00">new_chyron</text>
</a>
</g>
</g>
<!-- Node3&#45;&gt;Node11 -->
<g id="edge12_Node000003_Node000011" class="edge">
<title>Node3&#45;&gt;Node11</title>
<g id="a_edge12_Node000003_Node000011"><a xlink:title=" ">
<path fill="none" stroke="#63b8ff" d="M341.96,-384.37C382.67,-402.3 473.09,-439.27 553.75,-452.38 594.33,-458.97 605.41,-457.07 646.25,-452.38 657.3,-451.11 669.03,-448.9 680.05,-446.43"/>
<polygon fill="#63b8ff" stroke="#63b8ff" points="680.81,-449.85 689.74,-444.14 679.2,-443.03 680.81,-449.85"/>
</a>
</g>
</g>
<!-- Node12 -->
<g id="Node000012" class="node">
<title>Node12</title>
<g id="a_Node000012"><a xlink:href="../../dc/d40/dwin_8c.html#a208ce92c197fdd6d2b007987e534aa3b" target="_top" xlink:title="Set chyron key.">
<polygon fill="white" stroke="#666666" points="774.75,-213.75 683,-213.75 683,-193 774.75,-193 774.75,-213.75"/>
<text xml:space="preserve" text-anchor="middle" x="728.88" y="-200.25" font-family="Helvetica,sans-Serif" font-size="10.00">set_chyron_key</text>
</a>
</g>
</g>
<!-- Node3&#45;&gt;Node12 -->
<g id="edge14_Node000003_Node000012" class="edge">
<title>Node3&#45;&gt;Node12</title>
<g id="a_edge14_Node000003_Node000012"><a xlink:title=" ">
<path fill="none" stroke="#63b8ff" d="M327.06,-363.67C339.35,-345.89 366.45,-310.35 398.25,-291.38 485.04,-239.6 602.57,-217.75 671.31,-208.93"/>
<polygon fill="#63b8ff" stroke="#63b8ff" points="671.73,-212.41 681.23,-207.72 670.88,-205.46 671.73,-212.41"/>
</a>
</g>
</g>
<!-- Node13 -->
<g id="Node000013" class="node">
<title>Node13</title>
<g id="a_Node000013"><a xlink:href="../../d0/d59/futil_8c.html#a63eb94756fb011a456a3dec900709cd8" target="_top" xlink:title="ssnprintf was designed to be a safer alternative to snprintf.">
<polygon fill="white" stroke="#666666" points="874.75,-194.75 816,-194.75 816,-174 874.75,-174 874.75,-194.75"/>
<text xml:space="preserve" text-anchor="middle" x="845.38" y="-181.25" font-family="Helvetica,sans-Serif" font-size="10.00">ssnprintf</text>
</a>
</g>
</g>
<!-- Node3&#45;&gt;Node13 -->
<g id="edge16_Node000003_Node000013" class="edge">
<title>Node3&#45;&gt;Node13</title>
<g id="a_edge16_Node000003_Node000013"><a xlink:title=" ">
<path fill="none" stroke="#63b8ff" d="M322.74,-363.72C330.06,-337.53 352.71,-269.76 398.25,-237.38 523.48,-148.32 720.2,-164.95 804.19,-177.34"/>
<polygon fill="#63b8ff" stroke="#63b8ff" points="803.6,-180.79 814.01,-178.85 804.66,-173.87 803.6,-180.79"/>
</a>
</g>
</g>
<!-- Node14 -->
<g id="Node000014" class="node">
<title>Node14</title>
<g id="a_Node000014"><a xlink:href="../../d0/d59/futil_8c.html#a0de2e40df9bd7efc8fd9afb8ad2257e6" target="_top" xlink:title="safer alternative to strncpy">
<polygon fill="white" stroke="#666666" points="879.25,-575.75 811.5,-575.75 811.5,-555 879.25,-555 879.25,-575.75"/>
<text xml:space="preserve" text-anchor="middle" x="845.38" y="-562.25" font-family="Helvetica,sans-Serif" font-size="10.00">strnz__cpy</text>
</a>
</g>
</g>
<!-- Node3&#45;&gt;Node14 -->
<g id="edge17_Node000003_Node000014" class="edge">
<title>Node3&#45;&gt;Node14</title>
<g id="a_edge17_Node000003_Node000014"><a xlink:title=" ">
<path fill="none" stroke="#63b8ff" d="M320.02,-385.24C320.75,-422.03 328.55,-542.54 398.25,-596.38 530.98,-698.89 614.19,-650.23 775.5,-604.38 780.06,-603.08 799.7,-591.86 816.85,-581.78"/>
<polygon fill="#63b8ff" stroke="#63b8ff" points="818.39,-584.94 825.22,-576.84 814.83,-578.91 818.39,-584.94"/>
</a>
</g>
</g>
<!-- Node15 -->
<g id="Node000015" class="node">
<title>Node15</title>
<g id="a_Node000015"><a xlink:href="../../dc/d40/dwin_8c.html#a9dd598e1d49c8764af1eec42c682623e" target="_top" xlink:title="Delete the current window and its associated box window.">
<polygon fill="white" stroke="#666666" points="755.62,-519.75 702.12,-519.75 702.12,-499 755.62,-499 755.62,-519.75"/>
<text xml:space="preserve" text-anchor="middle" x="728.88" y="-506.25" font-family="Helvetica,sans-Serif" font-size="10.00">win_del</text>
</a>
</g>
</g>
<!-- Node3&#45;&gt;Node15 -->
<g id="edge18_Node000003_Node000015" class="edge">
<title>Node3&#45;&gt;Node15</title>
<g id="a_edge18_Node000003_Node000015"><a xlink:title=" ">
<path fill="none" stroke="#63b8ff" d="M329.45,-385.16C343.09,-400.02 369.81,-426.52 398.25,-440.38 496.51,-488.26 627.04,-503.01 690.31,-507.48"/>
<polygon fill="#63b8ff" stroke="#63b8ff" points="689.97,-510.96 700.17,-508.12 690.42,-503.97 689.97,-510.96"/>
</a>
</g>
</g>
<!-- Node16 -->
<g id="Node000016" class="node">
<title>Node16</title>
<g id="a_Node000016"><a xlink:href="../../dc/d40/dwin_8c.html#a435c7bff7ffedb8f51c6de9259e36f6c" target="_top" xlink:title="Create a new window with optional box and title.">
<polygon fill="white" stroke="#666666" points="758.25,-595.75 699.5,-595.75 699.5,-575 758.25,-575 758.25,-595.75"/>
<text xml:space="preserve" text-anchor="middle" x="728.88" y="-582.25" font-family="Helvetica,sans-Serif" font-size="10.00">win_new</text>
</a>
</g>
</g>
<!-- Node3&#45;&gt;Node16 -->
<g id="edge19_Node000003_Node000016" class="edge">
<title>Node3&#45;&gt;Node16</title>
<g id="a_edge19_Node000003_Node000016"><a xlink:title=" ">
<path fill="none" stroke="#63b8ff" d="M320.77,-385.19C323.77,-418.16 337.68,-517.81 398.25,-561.38 485.47,-624.12 621.46,-607.91 688.2,-594.69"/>
<polygon fill="#63b8ff" stroke="#63b8ff" points="688.89,-598.12 697.97,-592.66 687.47,-591.26 688.89,-598.12"/>
</a>
</g>
</g>
<!-- Node18 -->
<g id="Node000018" class="node">
<title>Node18</title>
<g id="a_Node000018"><a xlink:href="../../dc/d40/dwin_8c.html#acf4c709bccc4c965a5d61db978db31a3" target="_top" xlink:title="Wrapper for wgetch that handles signals and mouse events.">
<polygon fill="white" stroke="#666666" points="486.62,-384.75 429.38,-384.75 429.38,-364 486.62,-364 486.62,-384.75"/>
<text xml:space="preserve" text-anchor="middle" x="458" y="-371.25" font-family="Helvetica,sans-Serif" font-size="10.00">xwgetch</text>
</a>
</g>
</g>
<!-- Node3&#45;&gt;Node18 -->
<g id="edge22_Node000003_Node000018" class="edge">
<title>Node3&#45;&gt;Node18</title>
<g id="a_edge22_Node000003_Node000018"><a xlink:title=" ">
<path fill="none" stroke="#63b8ff" d="M342.01,-374.38C362.42,-374.38 393.26,-374.38 417.86,-374.38"/>
<polygon fill="#63b8ff" stroke="#63b8ff" points="417.85,-377.88 427.85,-374.38 417.85,-370.88 417.85,-377.88"/>
</a>
</g>
</g>
<!-- Node5 -->
<g id="Node000005" class="node">
<title>Node5</title>
<g id="a_Node000005"><a xlink:href="../../dc/d40/dwin_8c.html#afc0985a403e3eac0b2cd8f0fab500256" target="_top" xlink:title="Gracefully shut down NCurses and restore terminal settings.">
<polygon fill="white" stroke="#666666" points="1004.75,-443.75 915.25,-443.75 915.25,-423 1004.75,-423 1004.75,-443.75"/>
<text xml:space="preserve" text-anchor="middle" x="960" y="-430.25" font-family="Helvetica,sans-Serif" font-size="10.00">destroy_curses</text>
</a>
</g>
</g>
<!-- Node4&#45;&gt;Node5 -->
<g id="edge4_Node000004_Node000005" class="edge">
<title>Node4&#45;&gt;Node5</title>
<g id="a_edge4_Node000004_Node000005"><a xlink:title=" ">
<path fill="none" stroke="#63b8ff" d="M868.63,-433.38C878.74,-433.38 891.19,-433.38 903.59,-433.38"/>
<polygon fill="#63b8ff" stroke="#63b8ff" points="903.38,-436.88 913.38,-433.38 903.38,-429.88 903.38,-436.88"/>
</a>
</g>
</g>
<!-- Node6 -->
<g id="Node000006" class="node">
<title>Node6</title>
<g id="a_Node000006"><a xlink:href="../../d7/d72/scriou_8c.html#ac5e3adb304b78910fc77761ef6a743f0" target="_top" xlink:title="restore_shell_tioctl() &#45; restore shell terminal settings">
<polygon fill="white" stroke="#666666" points="1149.75,-471.75 1040.75,-471.75 1040.75,-451 1149.75,-451 1149.75,-471.75"/>
<text xml:space="preserve" text-anchor="middle" x="1095.25" y="-458.25" font-family="Helvetica,sans-Serif" font-size="10.00">restore_shell_tioctl</text>
</a>
</g>
</g>
<!-- Node4&#45;&gt;Node6 -->
<g id="edge7_Node000004_Node000006" class="edge">
<title>Node4&#45;&gt;Node6</title>
<g id="a_edge7_Node000004_Node000006"><a xlink:title=" ">
<path fill="none" stroke="#63b8ff" d="M868.75,-440.88C882.09,-445.03 899.45,-449.83 915.25,-452.38 952.65,-458.4 994.96,-460.73 1029.05,-461.52"/>
<polygon fill="#63b8ff" stroke="#63b8ff" points="1028.7,-465.01 1038.76,-461.7 1028.83,-458.01 1028.7,-465.01"/>
</a>
</g>
</g>
<!-- Node7 -->
<g id="Node000007" class="node">
<title>Node7</title>
<g id="a_Node000007"><a xlink:href="../../da/d12/sig_8c.html#a06c1eb6cf3649dc187115565409f91af" target="_top" xlink:title="Set signal handlers to default behavior.">
<polygon fill="white" stroke="#666666" points="1135.88,-423.75 1054.62,-423.75 1054.62,-403 1135.88,-403 1135.88,-423.75"/>
<text xml:space="preserve" text-anchor="middle" x="1095.25" y="-410.25" font-family="Helvetica,sans-Serif" font-size="10.00">sig_dfl_mode</text>
</a>
</g>
</g>
<!-- Node4&#45;&gt;Node7 -->
<g id="edge8_Node000004_Node000007" class="edge">
<title>Node4&#45;&gt;Node7</title>
<g id="a_edge8_Node000004_Node000007"><a xlink:title=" ">
<path fill="none" stroke="#63b8ff" d="M868.71,-425.6C882.03,-421.37 899.4,-416.57 915.25,-414.38 958.03,-408.46 1007.11,-408.67 1043.04,-410.1"/>
<polygon fill="#63b8ff" stroke="#63b8ff" points="1042.56,-413.58 1052.71,-410.54 1042.88,-406.59 1042.56,-413.58"/>
</a>
</g>
</g>
<!-- Node5&#45;&gt;Node6 -->
<g id="edge5_Node000005_Node000006" class="edge">
<title>Node5&#45;&gt;Node6</title>
<g id="a_edge5_Node000005_Node000006"><a xlink:title=" ">
<path fill="none" stroke="#63b8ff" d="M1005,-442.62C1013.62,-444.43 1022.82,-446.37 1031.91,-448.28"/>
<polygon fill="#63b8ff" stroke="#63b8ff" points="1030.91,-451.64 1041.42,-450.27 1032.35,-444.79 1030.91,-451.64"/>
</a>
</g>
</g>
<!-- Node5&#45;&gt;Node7 -->
<g id="edge6_Node000005_Node000007" class="edge">
<title>Node5&#45;&gt;Node7</title>
<g id="a_edge6_Node000005_Node000007"><a xlink:title=" ">
<path fill="none" stroke="#63b8ff" d="M1005,-426.77C1017.19,-424.94 1030.52,-422.94 1043.08,-421.06"/>
<polygon fill="#63b8ff" stroke="#63b8ff" points="1043.48,-424.54 1052.85,-419.59 1042.44,-417.61 1043.48,-424.54"/>
</a>
</g>
</g>
<!-- Node9 -->
<g id="Node000009" class="node">
<title>Node9</title>
<g id="a_Node000009"><a xlink:href="../../d0/d59/futil_8c.html#aa0145c044cfdde3a1c83323410a59f25" target="_top" xlink:title="safer alternative to strncat">
<polygon fill="white" stroke="#666666" points="878.12,-328.75 812.62,-328.75 812.62,-308 878.12,-308 878.12,-328.75"/>
<text xml:space="preserve" text-anchor="middle" x="845.38" y="-315.25" font-family="Helvetica,sans-Serif" font-size="10.00">strnz__cat</text>
</a>
</g>
</g>
<!-- Node8&#45;&gt;Node9 -->
<g id="edge10_Node000008_Node000009" class="edge">
<title>Node8&#45;&gt;Node9</title>
<g id="a_edge10_Node000008_Node000009"><a xlink:title=" ">
<path fill="none" stroke="#63b8ff" d="M775.79,-318.38C784.08,-318.38 792.69,-318.38 800.91,-318.38"/>
<polygon fill="#63b8ff" stroke="#63b8ff" points="800.67,-321.88 810.67,-318.38 800.67,-314.88 800.67,-321.88"/>
</a>
</g>
</g>
<!-- Node11&#45;&gt;Node4 -->
<g id="edge13_Node000011_Node000004" class="edge">
<title>Node11&#45;&gt;Node4</title>
<g id="a_edge13_Node000011_Node000004"><a xlink:title=" ">
<path fill="none" stroke="#63b8ff" d="M766.42,-433.38C780.74,-433.38 797.05,-433.38 811.04,-433.38"/>
<polygon fill="#63b8ff" stroke="#63b8ff" points="810.64,-436.88 820.64,-433.38 810.64,-429.88 810.64,-436.88"/>
</a>
</g>
</g>
<!-- Node12&#45;&gt;Node13 -->
<g id="edge15_Node000012_Node000013" class="edge">
<title>Node12&#45;&gt;Node13</title>
<g id="a_edge15_Node000012_Node000013"><a xlink:title=" ">
<path fill="none" stroke="#63b8ff" d="M775.13,-195.87C784.82,-194.26 794.98,-192.57 804.45,-191"/>
<polygon fill="#63b8ff" stroke="#63b8ff" points="804.79,-194.49 814.09,-189.4 803.65,-187.59 804.79,-194.49"/>
</a>
</g>
</g>
<!-- Node16&#45;&gt;Node14 -->
<g id="edge21_Node000016_Node000014" class="edge">
<title>Node16&#45;&gt;Node14</title>
<g id="a_edge21_Node000016_Node000014"><a xlink:title=" ">
<path fill="none" stroke="#63b8ff" d="M758.47,-580.38C771.12,-578.17 786.28,-575.52 800.33,-573.07"/>
<polygon fill="#63b8ff" stroke="#63b8ff" points="800.54,-576.59 809.79,-571.42 799.33,-569.69 800.54,-576.59"/>
</a>
</g>
</g>
<!-- Node17 -->
<g id="Node000017" class="node">
<title>Node17</title>
<g id="a_Node000017"><a xlink:href="../../dc/d40/dwin_8c.html#ac9adcf7339be4a05ab1a7350c236b8a5" target="_top" xlink:title="Draw a box around the specified window.">
<polygon fill="white" stroke="#666666" points="865,-614.75 825.75,-614.75 825.75,-594 865,-594 865,-614.75"/>
<text xml:space="preserve" text-anchor="middle" x="845.38" y="-601.25" font-family="Helvetica,sans-Serif" font-size="10.00">cbox</text>
</a>
</g>
</g>
<!-- Node16&#45;&gt;Node17 -->
<g id="edge20_Node000016_Node000017" class="edge">
<title>Node16&#45;&gt;Node17</title>
<g id="a_edge20_Node000016_Node000017"><a xlink:title=" ">
<path fill="none" stroke="#63b8ff" d="M758.47,-590.12C775.48,-592.94 797.03,-596.52 814.29,-599.38"/>
<polygon fill="#63b8ff" stroke="#63b8ff" points="813.52,-602.8 823.96,-600.99 814.66,-595.9 813.52,-602.8"/>
</a>
</g>
</g>
<!-- Node19 -->
<g id="Node000019" class="node">
<title>Node19</title>
<g id="a_Node000019"><a xlink:href="../../dc/d40/dwin_8c.html#a67659f8a701b74f4dec0d36227a10d1c" target="_top" xlink:title="Display an error message window or print to stderr.">
<polygon fill="white" stroke="#666666" points="639.88,-365.75 560.12,-365.75 560.12,-345 639.88,-345 639.88,-365.75"/>
<text xml:space="preserve" text-anchor="middle" x="600" y="-352.25" font-family="Helvetica,sans-Serif" font-size="10.00">display_error</text>
</a>
</g>
</g>
<!-- Node18&#45;&gt;Node19 -->
<g id="edge23_Node000018_Node000019" class="edge">
<title>Node18&#45;&gt;Node19</title>
<g id="a_edge23_Node000018_Node000019"><a xlink:title=" ">
<path fill="none" stroke="#63b8ff" d="M486.99,-365.05C504.57,-361.49 527.74,-358.02 548.45,-355.72"/>
<polygon fill="#63b8ff" stroke="#63b8ff" points="548.56,-359.23 558.15,-354.73 547.84,-352.27 548.56,-359.23"/>
</a>
</g>
</g>
<!-- Node21 -->
<g id="Node000021" class="node">
<title>Node21</title>
<g id="a_Node000021"><a xlink:href="../../dc/d40/dwin_8c.html#a4298f891699300bfc4e6e56fd2a8d574" target="_top" xlink:title="Get keycode from chyron.">
<polygon fill="white" stroke="#666666" points="646.25,-443.75 553.75,-443.75 553.75,-423 646.25,-423 646.25,-443.75"/>
<text xml:space="preserve" text-anchor="middle" x="600" y="-430.25" font-family="Helvetica,sans-Serif" font-size="10.00">get_chyron_key</text>
</a>
</g>
</g>
<!-- Node18&#45;&gt;Node21 -->
<g id="edge35_Node000018_Node000021" class="edge">
<title>Node18&#45;&gt;Node21</title>
<g id="a_edge35_Node000018_Node000021"><a xlink:title=" ">
<path fill="none" stroke="#63b8ff" d="M484.68,-385.2C506.68,-394.47 538.61,-407.93 563.14,-418.26"/>
<polygon fill="#63b8ff" stroke="#63b8ff" points="561.52,-421.38 572.09,-422.03 564.23,-414.93 561.52,-421.38"/>
</a>
</g>
</g>
<!-- Node22 -->
<g id="Node000022" class="node">
<title>Node22</title>
<g id="a_Node000022"><a xlink:href="../../d0/d6b/cm_8h.html#a0667873879b5846c3fe2fa2cc96059d6" target="_top" xlink:title=" ">
<polygon fill="white" stroke="#666666" points="641.75,-404.75 558.25,-404.75 558.25,-384 641.75,-384 641.75,-404.75"/>
<text xml:space="preserve" text-anchor="middle" x="600" y="-391.25" font-family="Helvetica,sans-Serif" font-size="10.00">handle_signal</text>
</a>
</g>
</g>
<!-- Node18&#45;&gt;Node22 -->
<g id="edge36_Node000018_Node000022" class="edge">
<title>Node18&#45;&gt;Node22</title>
<g id="a_edge36_Node000018_Node000022"><a xlink:title=" ">
<path fill="none" stroke="#63b8ff" d="M486.99,-378.37C504.02,-380.81 526.3,-383.99 546.5,-386.88"/>
<polygon fill="#63b8ff" stroke="#63b8ff" points="545.89,-390.32 556.28,-388.27 546.88,-383.39 545.89,-390.32"/>
</a>
</g>
</g>
<!-- Node19&#45;&gt;Node4 -->
<g id="edge24_Node000019_Node000004" class="edge">
<title>Node19&#45;&gt;Node4</title>
<g id="a_edge24_Node000019_Node000004"><a xlink:title=" ">
<path fill="none" stroke="#63b8ff" d="M634.84,-366.22C681.44,-381.15 764.83,-407.88 811.12,-422.72"/>
<polygon fill="#63b8ff" stroke="#63b8ff" points="810.01,-426.04 820.6,-425.76 812.15,-419.37 810.01,-426.04"/>
</a>
</g>
</g>
<!-- Node19&#45;&gt;Node8 -->
<g id="edge25_Node000019_Node000008" class="edge">
<title>Node19&#45;&gt;Node8</title>
<g id="a_edge25_Node000019_Node000008"><a xlink:title=" ">
<path fill="none" stroke="#63b8ff" d="M638.04,-344.57C651.2,-340.74 666.2,-336.36 680.13,-332.3"/>
<polygon fill="#63b8ff" stroke="#63b8ff" points="680.94,-335.71 689.56,-329.55 678.98,-328.99 680.94,-335.71"/>
</a>
</g>
</g>
<!-- Node19&#45;&gt;Node10 -->
<g id="edge26_Node000019_Node000010" class="edge">
<title>Node19&#45;&gt;Node10</title>
<g id="a_edge26_Node000019_Node000010"><a xlink:title=" ">
<path fill="none" stroke="#63b8ff" d="M608.78,-344.68C622.2,-326.75 651.28,-290.29 682.25,-266.38 685.81,-263.62 689.74,-261.03 693.75,-258.63"/>
<polygon fill="#63b8ff" stroke="#63b8ff" points="695.34,-261.75 702.39,-253.84 691.95,-255.62 695.34,-261.75"/>
</a>
</g>
</g>
<!-- Node19&#45;&gt;Node11 -->
<g id="edge27_Node000019_Node000011" class="edge">
<title>Node19&#45;&gt;Node11</title>
<g id="a_edge27_Node000019_Node000011"><a xlink:title=" ">
<path fill="none" stroke="#63b8ff" d="M629.54,-366.21C635.27,-368.87 641.1,-371.95 646.25,-375.38 664.58,-387.56 664.35,-396.58 682.25,-409.38 686.1,-412.13 690.31,-414.77 694.56,-417.22"/>
<polygon fill="#63b8ff" stroke="#63b8ff" points="692.62,-420.15 703.08,-421.86 695.97,-414.01 692.62,-420.15"/>
</a>
</g>
</g>
<!-- Node19&#45;&gt;Node12 -->
<g id="edge28_Node000019_Node000012" class="edge">
<title>Node19&#45;&gt;Node12</title>
<g id="a_edge28_Node000019_Node000012"><a xlink:title=" ">
<path fill="none" stroke="#63b8ff" d="M604.99,-344.63C614.63,-320.01 641.45,-258.88 682.25,-223.38 683.69,-222.13 685.21,-220.94 686.8,-219.83"/>
<polygon fill="#63b8ff" stroke="#63b8ff" points="688.31,-223 695.12,-214.89 684.74,-216.98 688.31,-223"/>
</a>
</g>
</g>
<!-- Node19&#45;&gt;Node13 -->
<g id="edge29_Node000019_Node000013" class="edge">
<title>Node19&#45;&gt;Node13</title>
<g id="a_edge29_Node000019_Node000013"><a xlink:title=" ">
<path fill="none" stroke="#63b8ff" d="M614.51,-344.71C630.17,-332.66 657.08,-312.97 682.25,-299.38 721.63,-278.11 738.92,-287.16 775.5,-261.38 797.8,-245.65 817.92,-221.42 830.58,-204.35"/>
<polygon fill="#63b8ff" stroke="#63b8ff" points="833.25,-206.63 836.24,-196.47 827.56,-202.55 833.25,-206.63"/>
</a>
</g>
</g>
<!-- Node19&#45;&gt;Node14 -->
<g id="edge31_Node000019_Node000014" class="edge">
<title>Node19&#45;&gt;Node14</title>
<g id="a_edge31_Node000019_Node000014"><a xlink:title=" ">
<path fill="none" stroke="#63b8ff" d="M633.02,-366.01C637.83,-368.56 642.44,-371.65 646.25,-375.38 673.24,-401.8 654.87,-426.34 682.25,-452.38 714.68,-483.21 738.75,-464.83 775.5,-490.38 797.46,-505.64 817.52,-529.06 830.26,-545.66"/>
<polygon fill="#63b8ff" stroke="#63b8ff" points="827.18,-547.4 835.97,-553.32 832.8,-543.21 827.18,-547.4"/>
</a>
</g>
</g>
<!-- Node19&#45;&gt;Node15 -->
<g id="edge32_Node000019_Node000015" class="edge">
<title>Node19&#45;&gt;Node15</title>
<g id="a_edge32_Node000019_Node000015"><a xlink:title=" ">
<path fill="none" stroke="#63b8ff" d="M634.34,-366.13C638.76,-368.63 642.91,-371.68 646.25,-375.38 680.76,-413.52 649.06,-446.08 682.25,-485.38 685.01,-488.64 688.33,-491.53 691.91,-494.06"/>
<polygon fill="#63b8ff" stroke="#63b8ff" points="690.08,-497.04 700.46,-499.17 693.67,-491.04 690.08,-497.04"/>
</a>
</g>
</g>
<!-- Node19&#45;&gt;Node16 -->
<g id="edge33_Node000019_Node000016" class="edge">
<title>Node19&#45;&gt;Node16</title>
<g id="a_edge33_Node000019_Node000016"><a xlink:title=" ">
<path fill="none" stroke="#63b8ff" d="M635.08,-366.15C639.28,-368.64 643.18,-371.67 646.25,-375.38 690.87,-429.12 651.67,-465.57 682.25,-528.38 689.03,-542.3 699.73,-555.92 709.07,-566.35"/>
<polygon fill="#63b8ff" stroke="#63b8ff" points="706.38,-568.6 715.76,-573.52 711.49,-563.82 706.38,-568.6"/>
</a>
</g>
</g>
<!-- Node19&#45;&gt;Node18 -->
<g id="edge34_Node000019_Node000018" class="edge">
<title>Node19&#45;&gt;Node18</title>
<g id="a_edge34_Node000019_Node000018"><a xlink:title=" ">
<path fill="none" stroke="#63b8ff" d="M563.07,-366.23C543.28,-369.89 518.69,-373.28 498.39,-375.17"/>
<polygon fill="#63b8ff" stroke="#63b8ff" points="498.18,-371.67 488.5,-375.98 498.76,-378.65 498.18,-371.67"/>
</a>
</g>
</g>
<!-- Node20 -->
<g id="Node000020" class="node">
<title>Node20</title>
<g id="a_Node000020"><a xlink:href="../../d0/d59/futil_8c.html#a636608f26d1193b5d860f2312cd8ee49" target="_top" xlink:title="terminates string at New Line, Carriage Return, or max_len">
<polygon fill="white" stroke="#666666" points="748.88,-367.75 708.88,-367.75 708.88,-347 748.88,-347 748.88,-367.75"/>
<text xml:space="preserve" text-anchor="middle" x="728.88" y="-354.25" font-family="Helvetica,sans-Serif" font-size="10.00">strnz</text>
</a>
</g>
</g>
<!-- Node19&#45;&gt;Node20 -->
<g id="edge30_Node000019_Node000020" class="edge">
<title>Node19&#45;&gt;Node20</title>
<g id="a_edge30_Node000019_Node000020"><a xlink:title=" ">
<path fill="none" stroke="#63b8ff" d="M640.1,-355.99C658.56,-356.28 680.26,-356.62 697.46,-356.9"/>
<polygon fill="#63b8ff" stroke="#63b8ff" points="696.99,-360.39 707.04,-357.05 697.1,-353.39 696.99,-360.39"/>
</a>
</g>
</g>
<!-- Node24 -->
<g id="Node000024" class="node">
<title>Node24</title>
<g id="a_Node000024"><a xlink:href="../../d4/dc1/src_2view__engine_8c.html#a9fc984ba8ce6c4059b33a915d526357f" target="_top" xlink:title="Parse ANSI SGR Escape Sequence.">
<polygon fill="white" stroke="#666666" points="362.25,-98.75 275.75,-98.75 275.75,-78 362.25,-78 362.25,-98.75"/>
<text xml:space="preserve" text-anchor="middle" x="319" y="-85.25" font-family="Helvetica,sans-Serif" font-size="10.00">parse_ansi_str</text>
</a>
</g>
</g>
<!-- Node23&#45;&gt;Node24 -->
<g id="edge38_Node000023_Node000024" class="edge">
<title>Node23&#45;&gt;Node24</title>
<g id="a_edge38_Node000023_Node000024"><a xlink:title=" ">
<path fill="none" stroke="#63b8ff" d="M216.15,-234.38C224.38,-231.35 232.99,-227.13 239.75,-221.38 275.96,-190.53 299.58,-138.5 310.66,-109.51"/>
<polygon fill="#63b8ff" stroke="#63b8ff" points="313.85,-110.96 314,-100.37 307.28,-108.56 313.85,-110.96"/>
</a>
</g>
</g>
<!-- Node30 -->
<g id="Node000030" class="node">
<title>Node30</title>
<g id="a_Node000030"><a xlink:href="../../d0/d59/futil_8c.html#a4f42956462e811d96c9fb881a85dada4" target="_top" xlink:title="Trims trailing spaces from string s in place.">
<polygon fill="white" stroke="#666666" points="339,-251.75 299,-251.75 299,-231 339,-231 339,-251.75"/>
<text xml:space="preserve" text-anchor="middle" x="319" y="-238.25" font-family="Helvetica,sans-Serif" font-size="10.00">rtrim</text>
</a>
</g>
</g>
<!-- Node23&#45;&gt;Node30 -->
<g id="edge46_Node000023_Node000030" class="edge">
<title>Node23&#45;&gt;Node30</title>
<g id="a_edge46_Node000023_Node000030"><a xlink:title=" ">
<path fill="none" stroke="#63b8ff" d="M215.96,-241.38C236.79,-241.38 265.42,-241.38 287.06,-241.38"/>
<polygon fill="#63b8ff" stroke="#63b8ff" points="287.06,-244.88 297.06,-241.38 287.06,-237.88 287.06,-244.88"/>
</a>
</g>
</g>
<!-- Node25 -->
<g id="Node000025" class="node">
<title>Node25</title>
<g id="a_Node000025"><a xlink:href="../../d0/d59/futil_8c.html#ab96e4c73a7b3ba1310044b479733cdd9" target="_top" xlink:title="a safer alternative to atoi() for converting ASCII strings to integers.">
<polygon fill="white" stroke="#666666" points="478,-98.75 438,-98.75 438,-78 478,-78 478,-98.75"/>
<text xml:space="preserve" text-anchor="middle" x="458" y="-85.25" font-family="Helvetica,sans-Serif" font-size="10.00">a_toi</text>
</a>
</g>
</g>
<!-- Node24&#45;&gt;Node25 -->
<g id="edge39_Node000024_Node000025" class="edge">
<title>Node24&#45;&gt;Node25</title>
<g id="a_edge39_Node000024_Node000025"><a xlink:title=" ">
<path fill="none" stroke="#63b8ff" d="M362.6,-88.38C383.22,-88.38 407.51,-88.38 426.28,-88.38"/>
<polygon fill="#63b8ff" stroke="#63b8ff" points="426.22,-91.88 436.22,-88.38 426.22,-84.88 426.22,-91.88"/>
</a>
</g>
</g>
<!-- Node26 -->
<g id="Node000026" class="node">
<title>Node26</title>
<g id="a_Node000026"><a xlink:href="../../dc/d40/dwin_8c.html#af0ba4efbc81c259a2519ca41dd9d1599" target="_top" xlink:title="Get color pair index for foreground and background colors.">
<polygon fill="white" stroke="#666666" points="494.5,-137.75 421.5,-137.75 421.5,-117 494.5,-117 494.5,-137.75"/>
<text xml:space="preserve" text-anchor="middle" x="458" y="-124.25" font-family="Helvetica,sans-Serif" font-size="10.00">get_clr_pair</text>
</a>
</g>
</g>
<!-- Node24&#45;&gt;Node26 -->
<g id="edge40_Node000024_Node000026" class="edge">
<title>Node24&#45;&gt;Node26</title>
<g id="a_edge40_Node000024_Node000026"><a xlink:title=" ">
<path fill="none" stroke="#63b8ff" d="M358.16,-99.24C374.4,-103.86 393.49,-109.29 410.53,-114.15"/>
<polygon fill="#63b8ff" stroke="#63b8ff" points="409.36,-117.45 419.94,-116.82 411.28,-110.72 409.36,-117.45"/>
</a>
</g>
</g>
<!-- Node27 -->
<g id="Node000027" class="node">
<title>Node27</title>
<g id="a_Node000027"><a xlink:href="../../dc/d40/dwin_8c.html#a4900dd34e828972e58b0ca549cf7d4d8" target="_top" xlink:title="Get color index for RGB color.">
<polygon fill="white" stroke="#666666" points="508.38,-59.75 407.62,-59.75 407.62,-39 508.38,-39 508.38,-59.75"/>
<text xml:space="preserve" text-anchor="middle" x="458" y="-46.25" font-family="Helvetica,sans-Serif" font-size="10.00">rgb_to_curses_clr</text>
</a>
</g>
</g>
<!-- Node24&#45;&gt;Node27 -->
<g id="edge43_Node000024_Node000027" class="edge">
<title>Node24&#45;&gt;Node27</title>
<g id="a_edge43_Node000024_Node000027"><a xlink:title=" ">
<path fill="none" stroke="#63b8ff" d="M358.16,-77.51C373.6,-73.12 391.62,-67.99 408.01,-63.32"/>
<polygon fill="#63b8ff" stroke="#63b8ff" points="408.93,-66.7 417.59,-60.59 407.01,-59.97 408.93,-66.7"/>
</a>
</g>
</g>
<!-- Node29 -->
<g id="Node000029" class="node">
<title>Node29</title>
<g id="a_Node000029"><a xlink:href="../../dc/d40/dwin_8c.html#a31ee0d93c7b527f92559fc410152f768" target="_top" xlink:title="Convert XTerm 256 color index to RGB color.">
<polygon fill="white" stroke="#666666" points="517.75,-20.75 398.25,-20.75 398.25,0 517.75,0 517.75,-20.75"/>
<text xml:space="preserve" text-anchor="middle" x="458" y="-7.25" font-family="Helvetica,sans-Serif" font-size="10.00">xterm256_idx_to_rgb</text>
</a>
</g>
</g>
<!-- Node24&#45;&gt;Node29 -->
<g id="edge45_Node000024_Node000029" class="edge">
<title>Node24&#45;&gt;Node29</title>
<g id="a_edge45_Node000024_Node000029"><a xlink:title=" ">
<path fill="none" stroke="#63b8ff" d="M331.94,-77.66C346.64,-64.92 372.79,-43.73 398.25,-30.38 401.69,-28.57 405.33,-26.87 409.05,-25.3"/>
<polygon fill="#63b8ff" stroke="#63b8ff" points="410.16,-28.62 418.19,-21.71 407.61,-22.1 410.16,-28.62"/>
</a>
</g>
</g>
<!-- Node26&#45;&gt;Node13 -->
<g id="edge42_Node000026_Node000013" class="edge">
<title>Node26&#45;&gt;Node13</title>
<g id="a_edge42_Node000026_Node000013"><a xlink:title=" ">
<path fill="none" stroke="#63b8ff" d="M494.84,-125.84C554.27,-124.23 676.48,-124.9 775.5,-151.38 789.67,-155.16 804.45,-161.84 816.67,-168.2"/>
<polygon fill="#63b8ff" stroke="#63b8ff" points="814.88,-171.21 825.34,-172.9 818.22,-165.06 814.88,-171.21"/>
</a>
</g>
</g>
<!-- Node26&#45;&gt;Node19 -->
<g id="edge41_Node000026_Node000019" class="edge">
<title>Node26&#45;&gt;Node19</title>
<g id="a_edge41_Node000026_Node000019"><a xlink:title=" ">
<path fill="none" stroke="#63b8ff" d="M465.56,-138.07C487.38,-173.6 557.71,-288.12 586.52,-335.04"/>
<polygon fill="#63b8ff" stroke="#63b8ff" points="583.44,-336.73 591.66,-343.42 589.41,-333.06 583.44,-336.73"/>
</a>
</g>
</g>
<!-- Node28 -->
<g id="Node000028" class="node">
<title>Node28</title>
<g id="a_Node000028"><a xlink:href="../../dc/d40/dwin_8c.html#aa3a6b291c0820d9da545325a2dba5274" target="_top" xlink:title="Apply gamma correction to RGB color.">
<polygon fill="white" stroke="#666666" points="642.88,-59.75 557.12,-59.75 557.12,-39 642.88,-39 642.88,-59.75"/>
<text xml:space="preserve" text-anchor="middle" x="600" y="-46.25" font-family="Helvetica,sans-Serif" font-size="10.00">apply_gamma</text>
</a>
</g>
</g>
<!-- Node27&#45;&gt;Node28 -->
<g id="edge44_Node000027_Node000028" class="edge">
<title>Node27&#45;&gt;Node28</title>
<g id="a_edge44_Node000027_Node000028"><a xlink:title=" ">
<path fill="none" stroke="#63b8ff" d="M508.75,-49.38C520.66,-49.38 533.43,-49.38 545.51,-49.38"/>
<polygon fill="#63b8ff" stroke="#63b8ff" points="545.3,-52.88 555.3,-49.38 545.3,-45.88 545.3,-52.88"/>
</a>
</g>
</g>
</g>
</svg>
