<?xml version="1.0" encoding="UTF-8" standalone="no"?>
<!DOCTYPE svg PUBLIC "-//W3C//DTD SVG 1.1//EN"
 "http://www.w3.org/Graphics/SVG/1.1/DTD/svg11.dtd">
<!-- Generated by graphviz version 14.1.2 (0)
 -->
<!-- Title: parse_ansi_str Pages: 1 -->
<svg width="900pt" height="519pt"
 viewBox="0.00 0.00 900.00 519.00" xmlns="http://www.w3.org/2000/svg" xmlns:xlink="http://www.w3.org/1999/xlink">
<g id="graph0" class="graph" transform="scale(1 1) rotate(0) translate(4 514.75)">
<title>parse_ansi_str</title>
<!-- Node1 -->
<g id="Node000001" class="node">
<title>Node1</title>
<g id="a_Node000001"><a xlink:title="Parse ANSI SGR Escape Sequence.">
<polygon fill="#999999" stroke="#666666" points="86.5,-78.75 0,-78.75 0,-58 86.5,-58 86.5,-78.75"/>
<text xml:space="preserve" text-anchor="middle" x="43.25" y="-65.25" font-family="Helvetica,sans-Serif" font-size="10.00">parse_ansi_str</text>
</a>
</g>
</g>
<!-- Node2 -->
<g id="Node000002" class="node">
<title>Node2</title>
<g id="a_Node000002"><a xlink:href="../../d0/d59/futil_8c.html#ab96e4c73a7b3ba1310044b479733cdd9" target="_top" xlink:title="a safer alternative to atoi() for converting ASCII strings to integers.">
<polygon fill="white" stroke="#666666" points="202.25,-137.75 162.25,-137.75 162.25,-117 202.25,-117 202.25,-137.75"/>
<text xml:space="preserve" text-anchor="middle" x="182.25" y="-124.25" font-family="Helvetica,sans-Serif" font-size="10.00">a_toi</text>
</a>
</g>
</g>
<!-- Node1&#45;&gt;Node2 -->
<g id="edge1_Node000001_Node000002" class="edge">
<title>Node1&#45;&gt;Node2</title>
<g id="a_edge1_Node000001_Node000002"><a xlink:title=" ">
<path fill="none" stroke="#63b8ff" d="M64.17,-79.23C79.78,-87.51 102.19,-98.9 122.5,-107.38 131.69,-111.21 141.9,-114.88 151.2,-118.01"/>
<polygon fill="#63b8ff" stroke="#63b8ff" points="149.93,-121.28 160.52,-121.06 152.1,-114.62 149.93,-121.28"/>
</a>
</g>
</g>
<!-- Node3 -->
<g id="Node000003" class="node">
<title>Node3</title>
<g id="a_Node000003"><a xlink:href="../../dc/d40/dwin_8c.html#af0ba4efbc81c259a2519ca41dd9d1599" target="_top" xlink:title="Get color pair index for foreground and background colors.">
<polygon fill="white" stroke="#666666" points="218.75,-98.75 145.75,-98.75 145.75,-78 218.75,-78 218.75,-98.75"/>
<text xml:space="preserve" text-anchor="middle" x="182.25" y="-85.25" font-family="Helvetica,sans-Serif" font-size="10.00">get_clr_pair</text>
</a>
</g>
</g>
<!-- Node1&#45;&gt;Node3 -->
<g id="edge2_Node000001_Node000003" class="edge">
<title>Node1&#45;&gt;Node3</title>
<g id="a_edge2_Node000001_Node000003"><a xlink:title=" ">
<path fill="none" stroke="#63b8ff" d="M86.85,-74.59C101.87,-76.79 118.84,-79.26 134.21,-81.51"/>
<polygon fill="#63b8ff" stroke="#63b8ff" points="133.69,-84.97 144.09,-82.95 134.7,-78.04 133.69,-84.97"/>
</a>
</g>
</g>
<!-- Node23 -->
<g id="Node000023" class="node">
<title>Node23</title>
<g id="a_Node000023"><a xlink:href="../../dc/d40/dwin_8c.html#a4900dd34e828972e58b0ca549cf7d4d8" target="_top" xlink:title="Get color index for RGB color.">
<polygon fill="white" stroke="#666666" points="232.62,-59.75 131.88,-59.75 131.88,-39 232.62,-39 232.62,-59.75"/>
<text xml:space="preserve" text-anchor="middle" x="182.25" y="-46.25" font-family="Helvetica,sans-Serif" font-size="10.00">rgb_to_curses_clr</text>
</a>
</g>
</g>
<!-- Node1&#45;&gt;Node23 -->
<g id="edge29_Node000001_Node000023" class="edge">
<title>Node1&#45;&gt;Node23</title>
<g id="a_edge29_Node000001_Node000023"><a xlink:title=" ">
<path fill="none" stroke="#63b8ff" d="M86.85,-62.47C97.45,-61 109.03,-59.39 120.32,-57.82"/>
<polygon fill="#63b8ff" stroke="#63b8ff" points="120.56,-61.33 129.98,-56.49 119.6,-54.39 120.56,-61.33"/>
</a>
</g>
</g>
<!-- Node25 -->
<g id="Node000025" class="node">
<title>Node25</title>
<g id="a_Node000025"><a xlink:href="../../dc/d40/dwin_8c.html#a31ee0d93c7b527f92559fc410152f768" target="_top" xlink:title="Convert XTerm 256 color index to RGB color.">
<polygon fill="white" stroke="#666666" points="242,-20.75 122.5,-20.75 122.5,0 242,0 242,-20.75"/>
<text xml:space="preserve" text-anchor="middle" x="182.25" y="-7.25" font-family="Helvetica,sans-Serif" font-size="10.00">xterm256_idx_to_rgb</text>
</a>
</g>
</g>
<!-- Node1&#45;&gt;Node25 -->
<g id="edge31_Node000001_Node000025" class="edge">
<title>Node1&#45;&gt;Node25</title>
<g id="a_edge31_Node000001_Node000025"><a xlink:title=" ">
<path fill="none" stroke="#63b8ff" d="M64.53,-57.67C80.14,-49.63 102.39,-38.65 122.5,-30.38 127.05,-28.5 131.85,-26.66 136.66,-24.9"/>
<polygon fill="#63b8ff" stroke="#63b8ff" points="137.44,-28.34 145.69,-21.7 135.1,-21.74 137.44,-28.34"/>
</a>
</g>
</g>
<!-- Node4 -->
<g id="Node000004" class="node">
<title>Node4</title>
<g id="a_Node000004"><a xlink:href="../../dc/d40/dwin_8c.html#a67659f8a701b74f4dec0d36227a10d1c" target="_top" xlink:title="Display an error message window or print to stderr.">
<polygon fill="white" stroke="#666666" points="360.75,-290.75 281,-290.75 281,-270 360.75,-270 360.75,-290.75"/>
<text xml:space="preserve" text-anchor="middle" x="320.88" y="-277.25" font-family="Helvetica,sans-Serif" font-size="10.00">display_error</text>
</a>
</g>
</g>
<!-- Node3&#45;&gt;Node4 -->
<g id="edge3_Node000003_Node000004" class="edge">
<title>Node3&#45;&gt;Node4</title>
<g id="a_edge3_Node000003_Node000004"><a xlink:title=" ">
<path fill="none" stroke="#63b8ff" d="M219.02,-95.41C227.28,-98.35 235.54,-102.51 242,-108.38 287.38,-149.56 308.01,-222.32 315.84,-258.58"/>
<polygon fill="#63b8ff" stroke="#63b8ff" points="312.39,-259.17 317.8,-268.28 319.25,-257.79 312.39,-259.17"/>
</a>
</g>
</g>
<!-- Node14 -->
<g id="Node000014" class="node">
<title>Node14</title>
<g id="a_Node000014"><a xlink:href="../../d0/d59/futil_8c.html#a63eb94756fb011a456a3dec900709cd8" target="_top" xlink:title="ssnprintf was designed to be a safer alternative to snprintf.">
<polygon fill="white" stroke="#666666" points="604.62,-290.75 545.88,-290.75 545.88,-270 604.62,-270 604.62,-290.75"/>
<text xml:space="preserve" text-anchor="middle" x="575.25" y="-277.25" font-family="Helvetica,sans-Serif" font-size="10.00">ssnprintf</text>
</a>
</g>
</g>
<!-- Node3&#45;&gt;Node14 -->
<g id="edge28_Node000003_Node000014" class="edge">
<title>Node3&#45;&gt;Node14</title>
<g id="a_edge28_Node000003_Node000014"><a xlink:title=" ">
<path fill="none" stroke="#63b8ff" d="M218.83,-85.77C280.4,-83.09 408.31,-85.74 493,-144.38 533.72,-172.57 557.36,-228.4 567.8,-259.03"/>
<polygon fill="#63b8ff" stroke="#63b8ff" points="564.4,-259.89 570.8,-268.33 571.06,-257.74 564.4,-259.89"/>
</a>
</g>
</g>
<!-- Node5 -->
<g id="Node000005" class="node">
<title>Node5</title>
<g id="a_Node000005"><a xlink:href="../../dc/d40/dwin_8c.html#a8f6c45ca4a7f6a41c4c88314e697565a" target="_top" xlink:title="Abnormal program termination.">
<polygon fill="white" stroke="#666666" points="598.25,-423.75 552.25,-423.75 552.25,-403 598.25,-403 598.25,-423.75"/>
<text xml:space="preserve" text-anchor="middle" x="575.25" y="-410.25" font-family="Helvetica,sans-Serif" font-size="10.00">abend</text>
</a>
</g>
</g>
<!-- Node4&#45;&gt;Node5 -->
<g id="edge4_Node000004_Node000005" class="edge">
<title>Node4&#45;&gt;Node5</title>
<g id="a_edge4_Node000004_Node000005"><a xlink:title=" ">
<path fill="none" stroke="#63b8ff" d="M324.22,-290.93C330.76,-317.49 351.94,-386.86 399.75,-414.38 443.42,-439.5 503.99,-431.56 541.07,-422.91"/>
<polygon fill="#63b8ff" stroke="#63b8ff" points="541.46,-426.42 550.32,-420.61 539.77,-419.63 541.46,-426.42"/>
</a>
</g>
</g>
<!-- Node9 -->
<g id="Node000009" class="node">
<title>Node9</title>
<g id="a_Node000009"><a xlink:href="../../dc/d40/dwin_8c.html#a645871e46277e31736bc36d0f3dce4bd" target="_top" xlink:title="construct the chyron string from the chyron structure">
<polygon fill="white" stroke="#666666" points="493,-366.75 399.75,-366.75 399.75,-346 493,-346 493,-366.75"/>
<text xml:space="preserve" text-anchor="middle" x="446.38" y="-353.25" font-family="Helvetica,sans-Serif" font-size="10.00">compile_chyron</text>
</a>
</g>
</g>
<!-- Node4&#45;&gt;Node9 -->
<g id="edge10_Node000004_Node000009" class="edge">
<title>Node4&#45;&gt;Node9</title>
<g id="a_edge10_Node000004_Node000009"><a xlink:title=" ">
<path fill="none" stroke="#63b8ff" d="M337.08,-291.22C352.56,-302.09 377.39,-319.08 399.75,-332.38 404.2,-335.02 408.96,-337.69 413.68,-340.25"/>
<polygon fill="#63b8ff" stroke="#63b8ff" points="411.95,-343.3 422.43,-344.89 415.23,-337.11 411.95,-343.3"/>
</a>
</g>
</g>
<!-- Node11 -->
<g id="Node000011" class="node">
<title>Node11</title>
<g id="a_Node000011"><a xlink:href="../../dc/d40/dwin_8c.html#a3f3feb40fd703913c5c136331f627c91" target="_top" xlink:title="Destroy Chyron structure.">
<polygon fill="white" stroke="#666666" points="491.88,-251.75 400.88,-251.75 400.88,-231 491.88,-231 491.88,-251.75"/>
<text xml:space="preserve" text-anchor="middle" x="446.38" y="-238.25" font-family="Helvetica,sans-Serif" font-size="10.00">destroy_chyron</text>
</a>
</g>
</g>
<!-- Node4&#45;&gt;Node11 -->
<g id="edge12_Node000004_Node000011" class="edge">
<title>Node4&#45;&gt;Node11</title>
<g id="a_edge12_Node000004_Node000011"><a xlink:title=" ">
<path fill="none" stroke="#63b8ff" d="M356.28,-269.51C369.93,-265.2 385.81,-260.18 400.36,-255.59"/>
<polygon fill="#63b8ff" stroke="#63b8ff" points="401.23,-258.99 409.71,-252.64 399.12,-252.31 401.23,-258.99"/>
</a>
</g>
</g>
<!-- Node12 -->
<g id="Node000012" class="node">
<title>Node12</title>
<g id="a_Node000012"><a xlink:href="../../dc/d40/dwin_8c.html#ad37d5808ff30ae6894780425d865abae" target="_top" xlink:title="Create and initialize Chyron structure.">
<polygon fill="white" stroke="#666666" points="483.62,-405.75 409.12,-405.75 409.12,-385 483.62,-385 483.62,-405.75"/>
<text xml:space="preserve" text-anchor="middle" x="446.38" y="-392.25" font-family="Helvetica,sans-Serif" font-size="10.00">new_chyron</text>
</a>
</g>
</g>
<!-- Node4&#45;&gt;Node12 -->
<g id="edge13_Node000004_Node000012" class="edge">
<title>Node4&#45;&gt;Node12</title>
<g id="a_edge13_Node000004_Node000012"><a xlink:title=" ">
<path fill="none" stroke="#63b8ff" d="M328.3,-291.18C340.2,-310.42 367.46,-350.9 399.75,-375.38 401.51,-376.71 403.37,-377.97 405.29,-379.17"/>
<polygon fill="#63b8ff" stroke="#63b8ff" points="403.49,-382.18 413.95,-383.88 406.84,-376.03 403.49,-382.18"/>
</a>
</g>
</g>
<!-- Node13 -->
<g id="Node000013" class="node">
<title>Node13</title>
<g id="a_Node000013"><a xlink:href="../../dc/d40/dwin_8c.html#a208ce92c197fdd6d2b007987e534aa3b" target="_top" xlink:title="Set chyron key.">
<polygon fill="white" stroke="#666666" points="492.25,-290.75 400.5,-290.75 400.5,-270 492.25,-270 492.25,-290.75"/>
<text xml:space="preserve" text-anchor="middle" x="446.38" y="-277.25" font-family="Helvetica,sans-Serif" font-size="10.00">set_chyron_key</text>
</a>
</g>
</g>
<!-- Node4&#45;&gt;Node13 -->
<g id="edge15_Node000004_Node000013" class="edge">
<title>Node4&#45;&gt;Node13</title>
<g id="a_edge15_Node000004_Node000013"><a xlink:title=" ">
<path fill="none" stroke="#63b8ff" d="M360.95,-280.38C369.79,-280.38 379.36,-280.38 388.76,-280.38"/>
<polygon fill="#63b8ff" stroke="#63b8ff" points="388.58,-283.88 398.58,-280.38 388.58,-276.88 388.58,-283.88"/>
</a>
</g>
</g>
<!-- Node4&#45;&gt;Node14 -->
<g id="edge17_Node000004_Node000014" class="edge">
<title>Node4&#45;&gt;Node14</title>
<g id="a_edge17_Node000004_Node000014"><a xlink:title=" ">
<path fill="none" stroke="#63b8ff" d="M358.38,-291.19C371.33,-294.52 386.07,-297.73 399.75,-299.38 440.9,-304.32 451.83,-304.12 493,-299.38 506.69,-297.8 521.43,-294.77 534.54,-291.58"/>
<polygon fill="#63b8ff" stroke="#63b8ff" points="535.28,-295.01 544.11,-289.15 533.56,-288.22 535.28,-295.01"/>
</a>
</g>
</g>
<!-- Node15 -->
<g id="Node000015" class="node">
<title>Node15</title>
<g id="a_Node000015"><a xlink:href="../../d0/d59/futil_8c.html#a636608f26d1193b5d860f2312cd8ee49" target="_top" xlink:title="terminates string at New Line, Carriage Return, or max_len">
<polygon fill="white" stroke="#666666" points="466.38,-212.75 426.38,-212.75 426.38,-192 466.38,-192 466.38,-212.75"/>
<text xml:space="preserve" text-anchor="middle" x="446.38" y="-199.25" font-family="Helvetica,sans-Serif" font-size="10.00">strnz</text>
</a>
</g>
</g>
<!-- Node4&#45;&gt;Node15 -->
<g id="edge18_Node000004_Node000015" class="edge">
<title>Node4&#45;&gt;Node15</title>
<g id="a_edge18_Node000004_Node000015"><a xlink:title=" ">
<path fill="none" stroke="#63b8ff" d="M334.48,-269.57C349.38,-257.14 375.27,-236.61 399.75,-222.38 404.85,-219.41 410.48,-216.6 415.98,-214.08"/>
<polygon fill="#63b8ff" stroke="#63b8ff" points="417.09,-217.42 424.87,-210.22 414.3,-211 417.09,-217.42"/>
</a>
</g>
</g>
<!-- Node16 -->
<g id="Node000016" class="node">
<title>Node16</title>
<g id="a_Node000016"><a xlink:href="../../d0/d59/futil_8c.html#a0de2e40df9bd7efc8fd9afb8ad2257e6" target="_top" xlink:title="safer alternative to strncpy">
<polygon fill="white" stroke="#666666" points="609.12,-117.75 541.38,-117.75 541.38,-97 609.12,-97 609.12,-117.75"/>
<text xml:space="preserve" text-anchor="middle" x="575.25" y="-104.25" font-family="Helvetica,sans-Serif" font-size="10.00">strnz__cpy</text>
</a>
</g>
</g>
<!-- Node4&#45;&gt;Node16 -->
<g id="edge19_Node000004_Node000016" class="edge">
<title>Node4&#45;&gt;Node16</title>
<g id="a_edge19_Node000004_Node000016"><a xlink:title=" ">
<path fill="none" stroke="#63b8ff" d="M324.66,-269.87C332.08,-244.02 354.9,-177.07 399.75,-144.38 437.74,-116.69 492.03,-108.82 529.93,-107.01"/>
<polygon fill="#63b8ff" stroke="#63b8ff" points="529.75,-110.52 539.62,-106.68 529.51,-103.52 529.75,-110.52"/>
</a>
</g>
</g>
<!-- Node17 -->
<g id="Node000017" class="node">
<title>Node17</title>
<g id="a_Node000017"><a xlink:href="../../dc/d40/dwin_8c.html#a9dd598e1d49c8764af1eec42c682623e" target="_top" xlink:title="Delete the current window and its associated box window.">
<polygon fill="white" stroke="#666666" points="473.12,-173.75 419.62,-173.75 419.62,-153 473.12,-153 473.12,-173.75"/>
<text xml:space="preserve" text-anchor="middle" x="446.38" y="-160.25" font-family="Helvetica,sans-Serif" font-size="10.00">win_del</text>
</a>
</g>
</g>
<!-- Node4&#45;&gt;Node17 -->
<g id="edge20_Node000004_Node000017" class="edge">
<title>Node4&#45;&gt;Node17</title>
<g id="a_edge20_Node000004_Node000017"><a xlink:title=" ">
<path fill="none" stroke="#63b8ff" d="M328.05,-269.64C339.77,-250.11 367.01,-208.46 399.75,-183.38 402.7,-181.11 405.95,-179.05 409.31,-177.17"/>
<polygon fill="#63b8ff" stroke="#63b8ff" points="410.76,-180.36 418.19,-172.8 407.67,-174.08 410.76,-180.36"/>
</a>
</g>
</g>
<!-- Node18 -->
<g id="Node000018" class="node">
<title>Node18</title>
<g id="a_Node000018"><a xlink:href="../../dc/d40/dwin_8c.html#a435c7bff7ffedb8f51c6de9259e36f6c" target="_top" xlink:title="Create a new window with optional box and title.">
<polygon fill="white" stroke="#666666" points="475.75,-59.75 417,-59.75 417,-39 475.75,-39 475.75,-59.75"/>
<text xml:space="preserve" text-anchor="middle" x="446.38" y="-46.25" font-family="Helvetica,sans-Serif" font-size="10.00">win_new</text>
</a>
</g>
</g>
<!-- Node4&#45;&gt;Node18 -->
<g id="edge21_Node000004_Node000018" class="edge">
<title>Node4&#45;&gt;Node18</title>
<g id="a_edge21_Node000004_Node000018"><a xlink:title=" ">
<path fill="none" stroke="#63b8ff" d="M325.91,-269.72C336.4,-242.47 366.09,-168.41 399.75,-111.38 408.56,-96.45 420.15,-80.73 429.45,-68.86"/>
<polygon fill="#63b8ff" stroke="#63b8ff" points="432.16,-71.07 435.66,-61.07 426.69,-66.71 432.16,-71.07"/>
</a>
</g>
</g>
<!-- Node20 -->
<g id="Node000020" class="node">
<title>Node20</title>
<g id="a_Node000020"><a xlink:href="../../dc/d40/dwin_8c.html#acf4c709bccc4c965a5d61db978db31a3" target="_top" xlink:title="Wrapper for wgetch that handles signals and mouse events.">
<polygon fill="white" stroke="#666666" points="475,-481.75 417.75,-481.75 417.75,-461 475,-461 475,-481.75"/>
<text xml:space="preserve" text-anchor="middle" x="446.38" y="-468.25" font-family="Helvetica,sans-Serif" font-size="10.00">xwgetch</text>
</a>
</g>
</g>
<!-- Node4&#45;&gt;Node20 -->
<g id="edge24_Node000004_Node000020" class="edge">
<title>Node4&#45;&gt;Node20</title>
<g id="a_edge24_Node000004_Node000020"><a xlink:title=" ">
<path fill="none" stroke="#63b8ff" d="M325.57,-291.16C333.82,-319.21 356.49,-392.99 399.75,-438.38 406.44,-445.39 415.63,-450.76 424.01,-455.31"/>
<polygon fill="#63b8ff" stroke="#63b8ff" points="422.16,-458.29 432.62,-459.97 425.49,-452.13 422.16,-458.29"/>
</a>
</g>
</g>
<!-- Node6 -->
<g id="Node000006" class="node">
<title>Node6</title>
<g id="a_Node000006"><a xlink:href="../../dc/d40/dwin_8c.html#afc0985a403e3eac0b2cd8f0fab500256" target="_top" xlink:title="Gracefully shut down NCurses and restore terminal settings.">
<polygon fill="white" stroke="#666666" points="747,-423.75 657.5,-423.75 657.5,-403 747,-403 747,-423.75"/>
<text xml:space="preserve" text-anchor="middle" x="702.25" y="-410.25" font-family="Helvetica,sans-Serif" font-size="10.00">destroy_curses</text>
</a>
</g>
</g>
<!-- Node5&#45;&gt;Node6 -->
<g id="edge5_Node000005_Node000006" class="edge">
<title>Node5&#45;&gt;Node6</title>
<g id="a_edge5_Node000005_Node000006"><a xlink:title=" ">
<path fill="none" stroke="#63b8ff" d="M598.6,-413.38C611.78,-413.38 629.09,-413.38 645.73,-413.38"/>
<polygon fill="#63b8ff" stroke="#63b8ff" points="645.57,-416.88 655.57,-413.38 645.57,-409.88 645.57,-416.88"/>
</a>
</g>
</g>
<!-- Node7 -->
<g id="Node000007" class="node">
<title>Node7</title>
<g id="a_Node000007"><a xlink:href="../../d7/d72/scriou_8c.html#ac5e3adb304b78910fc77761ef6a743f0" target="_top" xlink:title="restore_shell_tioctl() &#45; restore shell terminal settings">
<polygon fill="white" stroke="#666666" points="892,-451.75 783,-451.75 783,-431 892,-431 892,-451.75"/>
<text xml:space="preserve" text-anchor="middle" x="837.5" y="-438.25" font-family="Helvetica,sans-Serif" font-size="10.00">restore_shell_tioctl</text>
</a>
</g>
</g>
<!-- Node5&#45;&gt;Node7 -->
<g id="edge8_Node000005_Node000007" class="edge">
<title>Node5&#45;&gt;Node7</title>
<g id="a_edge8_Node000005_Node000007"><a xlink:title=" ">
<path fill="none" stroke="#63b8ff" d="M598.46,-419.71C614.68,-424.05 637.27,-429.53 657.5,-432.38 695.01,-437.66 737.32,-439.95 771.39,-440.91"/>
<polygon fill="#63b8ff" stroke="#63b8ff" points="771.01,-444.4 781.09,-441.14 771.18,-437.4 771.01,-444.4"/>
</a>
</g>
</g>
<!-- Node8 -->
<g id="Node000008" class="node">
<title>Node8</title>
<g id="a_Node000008"><a xlink:href="../../da/d12/sig_8c.html#a06c1eb6cf3649dc187115565409f91af" target="_top" xlink:title="Set signal handlers to default behavior.">
<polygon fill="white" stroke="#666666" points="878.12,-403.75 796.88,-403.75 796.88,-383 878.12,-383 878.12,-403.75"/>
<text xml:space="preserve" text-anchor="middle" x="837.5" y="-390.25" font-family="Helvetica,sans-Serif" font-size="10.00">sig_dfl_mode</text>
</a>
</g>
</g>
<!-- Node5&#45;&gt;Node8 -->
<g id="edge9_Node000005_Node000008" class="edge">
<title>Node5&#45;&gt;Node8</title>
<g id="a_edge9_Node000005_Node000008"><a xlink:title=" ">
<path fill="none" stroke="#63b8ff" d="M598.43,-406.77C614.63,-402.29 637.22,-396.77 657.5,-394.38 700.39,-389.31 749.46,-389.45 785.36,-390.63"/>
<polygon fill="#63b8ff" stroke="#63b8ff" points="784.89,-394.12 795.02,-390.99 785.15,-387.12 784.89,-394.12"/>
</a>
</g>
</g>
<!-- Node6&#45;&gt;Node7 -->
<g id="edge6_Node000006_Node000007" class="edge">
<title>Node6&#45;&gt;Node7</title>
<g id="a_edge6_Node000006_Node000007"><a xlink:title=" ">
<path fill="none" stroke="#63b8ff" d="M747.25,-422.62C755.87,-424.43 765.07,-426.37 774.16,-428.28"/>
<polygon fill="#63b8ff" stroke="#63b8ff" points="773.16,-431.64 783.67,-430.27 774.6,-424.79 773.16,-431.64"/>
</a>
</g>
</g>
<!-- Node6&#45;&gt;Node8 -->
<g id="edge7_Node000006_Node000008" class="edge">
<title>Node6&#45;&gt;Node8</title>
<g id="a_edge7_Node000006_Node000008"><a xlink:title=" ">
<path fill="none" stroke="#63b8ff" d="M747.25,-406.77C759.44,-404.94 772.77,-402.94 785.33,-401.06"/>
<polygon fill="#63b8ff" stroke="#63b8ff" points="785.73,-404.54 795.1,-399.59 784.69,-397.61 785.73,-404.54"/>
</a>
</g>
</g>
<!-- Node10 -->
<g id="Node000010" class="node">
<title>Node10</title>
<g id="a_Node000010"><a xlink:href="../../d0/d59/futil_8c.html#aa0145c044cfdde3a1c83323410a59f25" target="_top" xlink:title="safer alternative to strncat">
<polygon fill="white" stroke="#666666" points="608,-366.75 542.5,-366.75 542.5,-346 608,-346 608,-366.75"/>
<text xml:space="preserve" text-anchor="middle" x="575.25" y="-353.25" font-family="Helvetica,sans-Serif" font-size="10.00">strnz__cat</text>
</a>
</g>
</g>
<!-- Node9&#45;&gt;Node10 -->
<g id="edge11_Node000009_Node000010" class="edge">
<title>Node9&#45;&gt;Node10</title>
<g id="a_edge11_Node000009_Node000010"><a xlink:title=" ">
<path fill="none" stroke="#63b8ff" d="M493.18,-356.38C505.44,-356.38 518.66,-356.38 530.8,-356.38"/>
<polygon fill="#63b8ff" stroke="#63b8ff" points="530.52,-359.88 540.52,-356.38 530.52,-352.88 530.52,-359.88"/>
</a>
</g>
</g>
<!-- Node12&#45;&gt;Node5 -->
<g id="edge14_Node000012_Node000005" class="edge">
<title>Node12&#45;&gt;Node5</title>
<g id="a_edge14_Node000012_Node000005"><a xlink:title=" ">
<path fill="none" stroke="#63b8ff" d="M484.07,-400.58C501.91,-403.11 523.2,-406.13 540.62,-408.6"/>
<polygon fill="#63b8ff" stroke="#63b8ff" points="540.07,-412.06 550.47,-410 541.06,-405.13 540.07,-412.06"/>
</a>
</g>
</g>
<!-- Node13&#45;&gt;Node14 -->
<g id="edge16_Node000013_Node000014" class="edge">
<title>Node13&#45;&gt;Node14</title>
<g id="a_edge16_Node000013_Node000014"><a xlink:title=" ">
<path fill="none" stroke="#63b8ff" d="M492.46,-280.38C506.13,-280.38 521.03,-280.38 534.33,-280.38"/>
<polygon fill="#63b8ff" stroke="#63b8ff" points="534.02,-283.88 544.02,-280.38 534.02,-276.88 534.02,-283.88"/>
</a>
</g>
</g>
<!-- Node18&#45;&gt;Node16 -->
<g id="edge23_Node000018_Node000016" class="edge">
<title>Node18&#45;&gt;Node16</title>
<g id="a_edge23_Node000018_Node000016"><a xlink:title=" ">
<path fill="none" stroke="#63b8ff" d="M470.94,-60.15C490.53,-69.1 518.64,-81.95 540.59,-91.99"/>
<polygon fill="#63b8ff" stroke="#63b8ff" points="538.88,-95.06 549.43,-96.03 541.79,-88.69 538.88,-95.06"/>
</a>
</g>
</g>
<!-- Node19 -->
<g id="Node000019" class="node">
<title>Node19</title>
<g id="a_Node000019"><a xlink:href="../../dc/d40/dwin_8c.html#ac9adcf7339be4a05ab1a7350c236b8a5" target="_top" xlink:title="Draw a box around the specified window.">
<polygon fill="white" stroke="#666666" points="594.88,-59.75 555.62,-59.75 555.62,-39 594.88,-39 594.88,-59.75"/>
<text xml:space="preserve" text-anchor="middle" x="575.25" y="-46.25" font-family="Helvetica,sans-Serif" font-size="10.00">cbox</text>
</a>
</g>
</g>
<!-- Node18&#45;&gt;Node19 -->
<g id="edge22_Node000018_Node000019" class="edge">
<title>Node18&#45;&gt;Node19</title>
<g id="a_edge22_Node000018_Node000019"><a xlink:title=" ">
<path fill="none" stroke="#63b8ff" d="M476.16,-49.38C496.46,-49.38 523.57,-49.38 544.15,-49.38"/>
<polygon fill="#63b8ff" stroke="#63b8ff" points="543.89,-52.88 553.89,-49.38 543.89,-45.88 543.89,-52.88"/>
</a>
</g>
</g>
<!-- Node20&#45;&gt;Node4 -->
<g id="edge25_Node000020_Node000004" class="edge">
<title>Node20&#45;&gt;Node4</title>
<g id="a_edge25_Node000020_Node000004"><a xlink:title=" ">
<path fill="none" stroke="#63b8ff" d="M417.34,-469.02C411,-465.85 404.69,-461.56 399.75,-456.38 356.72,-411.23 334.06,-337.99 325.71,-301.65"/>
<polygon fill="#63b8ff" stroke="#63b8ff" points="329.23,-301.38 323.73,-292.32 322.38,-302.83 329.23,-301.38"/>
</a>
</g>
</g>
<!-- Node21 -->
<g id="Node000021" class="node">
<title>Node21</title>
<g id="a_Node000021"><a xlink:href="../../dc/d40/dwin_8c.html#a4298f891699300bfc4e6e56fd2a8d574" target="_top" xlink:title="Get keycode from chyron.">
<polygon fill="white" stroke="#666666" points="621.5,-471.75 529,-471.75 529,-451 621.5,-451 621.5,-471.75"/>
<text xml:space="preserve" text-anchor="middle" x="575.25" y="-458.25" font-family="Helvetica,sans-Serif" font-size="10.00">get_chyron_key</text>
</a>
</g>
</g>
<!-- Node20&#45;&gt;Node21 -->
<g id="edge26_Node000020_Node000021" class="edge">
<title>Node20&#45;&gt;Node21</title>
<g id="a_edge26_Node000020_Node000021"><a xlink:title=" ">
<path fill="none" stroke="#63b8ff" d="M475.22,-469.18C487.66,-468.2 502.8,-467.01 517.46,-465.85"/>
<polygon fill="#63b8ff" stroke="#63b8ff" points="517.32,-469.37 527.01,-465.1 516.77,-462.39 517.32,-469.37"/>
</a>
</g>
</g>
<!-- Node22 -->
<g id="Node000022" class="node">
<title>Node22</title>
<g id="a_Node000022"><a xlink:href="../../d0/d6b/cm_8h.html#a0667873879b5846c3fe2fa2cc96059d6" target="_top" xlink:title=" ">
<polygon fill="white" stroke="#666666" points="617,-510.75 533.5,-510.75 533.5,-490 617,-490 617,-510.75"/>
<text xml:space="preserve" text-anchor="middle" x="575.25" y="-497.25" font-family="Helvetica,sans-Serif" font-size="10.00">handle_signal</text>
</a>
</g>
</g>
<!-- Node20&#45;&gt;Node22 -->
<g id="edge27_Node000020_Node000022" class="edge">
<title>Node20&#45;&gt;Node22</title>
<g id="a_edge27_Node000020_Node000022"><a xlink:title=" ">
<path fill="none" stroke="#63b8ff" d="M475.22,-477.74C489.09,-480.91 506.31,-484.85 522.49,-488.54"/>
<polygon fill="#63b8ff" stroke="#63b8ff" points="521.46,-491.9 531.99,-490.72 523.02,-485.07 521.46,-491.9"/>
</a>
</g>
</g>
<!-- Node24 -->
<g id="Node000024" class="node">
<title>Node24</title>
<g id="a_Node000024"><a xlink:href="../../dc/d40/dwin_8c.html#aa3a6b291c0820d9da545325a2dba5274" target="_top" xlink:title="Apply gamma correction to RGB color.">
<polygon fill="white" stroke="#666666" points="363.75,-59.75 278,-59.75 278,-39 363.75,-39 363.75,-59.75"/>
<text xml:space="preserve" text-anchor="middle" x="320.88" y="-46.25" font-family="Helvetica,sans-Serif" font-size="10.00">apply_gamma</text>
</a>
</g>
</g>
<!-- Node23&#45;&gt;Node24 -->
<g id="edge30_Node000023_Node000024" class="edge">
<title>Node23&#45;&gt;Node24</title>
<g id="a_edge30_Node000023_Node000024"><a xlink:title=" ">
<path fill="none" stroke="#63b8ff" d="M232.96,-49.38C243.83,-49.38 255.39,-49.38 266.4,-49.38"/>
<polygon fill="#63b8ff" stroke="#63b8ff" points="266.11,-52.88 276.11,-49.38 266.11,-45.88 266.11,-52.88"/>
</a>
</g>
</g>
</g>
</svg>
