<?xml version="1.0" encoding="UTF-8" standalone="no"?>
<!DOCTYPE svg PUBLIC "-//W3C//DTD SVG 1.1//EN"
 "http://www.w3.org/Graphics/SVG/1.1/DTD/svg11.dtd">
<!-- Generated by graphviz version 14.1.2 (0)
 -->
<!-- Title: prev_page Pages: 1 -->
<svg width="1244pt" height="665pt"
 viewBox="0.00 0.00 1244.00 665.00" xmlns="http://www.w3.org/2000/svg" xmlns:xlink="http://www.w3.org/1999/xlink">
<g id="graph0" class="graph" transform="scale(1 1) rotate(0) translate(4 661.39)">
<title>prev_page</title>
<!-- Node1 -->
<g id="Node000001" class="node">
<title>Node1</title>
<g id="a_Node000001"><a xlink:title="display previous page">
<polygon fill="#999999" stroke="#666666" points="67,-208.75 0,-208.75 0,-188 67,-188 67,-208.75"/>
<text xml:space="preserve" text-anchor="middle" x="33.5" y="-195.25" font-family="Helvetica,sans-Serif" font-size="10.00">prev_page</text>
</a>
</g>
</g>
<!-- Node2 -->
<g id="Node000002" class="node">
<title>Node2</title>
<g id="a_Node000002"><a xlink:href="../../d4/dc1/src_2view__engine_8c.html#aaf8cff992778d85e44351a834ad2b81a" target="_top" xlink:title="Get Position of Previous Line.">
<polygon fill="white" stroke="#666666" points="207.5,-228.75 103,-228.75 103,-208 207.5,-208 207.5,-228.75"/>
<text xml:space="preserve" text-anchor="middle" x="155.25" y="-215.25" font-family="Helvetica,sans-Serif" font-size="10.00">get_pos_prev_line</text>
</a>
</g>
</g>
<!-- Node1&#45;&gt;Node2 -->
<g id="edge1_Node000001_Node000002" class="edge">
<title>Node1&#45;&gt;Node2</title>
<g id="a_edge1_Node000001_Node000002"><a xlink:title=" ">
<path fill="none" stroke="#63b8ff" d="M67.22,-203.84C74.74,-205.1 82.99,-206.47 91.32,-207.86"/>
<polygon fill="#63b8ff" stroke="#63b8ff" points="90.73,-211.31 101.17,-209.51 91.88,-204.41 90.73,-211.31"/>
</a>
</g>
</g>
<!-- Node3 -->
<g id="Node000003" class="node">
<title>Node3</title>
<g id="a_Node000003"><a xlink:href="../../d4/dc1/src_2view__engine_8c.html#acf1bfbd6d2fd4ad9a0385009ef25015c" target="_top" xlink:title="Advance to Next Page.">
<polygon fill="white" stroke="#666666" points="188.75,-189.75 121.75,-189.75 121.75,-169 188.75,-169 188.75,-189.75"/>
<text xml:space="preserve" text-anchor="middle" x="155.25" y="-176.25" font-family="Helvetica,sans-Serif" font-size="10.00">next_page</text>
</a>
</g>
</g>
<!-- Node1&#45;&gt;Node3 -->
<g id="edge2_Node000001_Node000003" class="edge">
<title>Node1&#45;&gt;Node3</title>
<g id="a_edge2_Node000001_Node000003"><a xlink:title=" ">
<path fill="none" stroke="#63b8ff" d="M67.22,-193.18C80.55,-191.07 96.17,-188.59 110.46,-186.32"/>
<polygon fill="#63b8ff" stroke="#63b8ff" points="110.74,-189.82 120.07,-184.8 109.65,-182.91 110.74,-189.82"/>
</a>
</g>
</g>
<!-- Node4 -->
<g id="Node000004" class="node">
<title>Node4</title>
<g id="a_Node000004"><a xlink:href="../../d4/dc1/src_2view__engine_8c.html#a16a4b855ead8402d4744e77a5504082a" target="_top" xlink:title="Display Line on Pad.">
<polygon fill="white" stroke="#666666" points="321.75,-332.75 247.25,-332.75 247.25,-312 321.75,-312 321.75,-332.75"/>
<text xml:space="preserve" text-anchor="middle" x="284.5" y="-319.25" font-family="Helvetica,sans-Serif" font-size="10.00">display_line</text>
</a>
</g>
</g>
<!-- Node3&#45;&gt;Node4 -->
<g id="edge3_Node000003_Node000004" class="edge">
<title>Node3&#45;&gt;Node4</title>
<g id="a_edge3_Node000003_Node000004"><a xlink:title=" ">
<path fill="none" stroke="#63b8ff" d="M189.16,-188.58C195.67,-191.37 202.14,-194.91 207.5,-199.38 240.93,-227.23 263.93,-273.76 275.3,-300.9"/>
<polygon fill="#63b8ff" stroke="#63b8ff" points="272.04,-302.17 279.02,-310.15 278.54,-299.56 272.04,-302.17"/>
</a>
</g>
</g>
<!-- Node25 -->
<g id="Node000025" class="node">
<title>Node25</title>
<g id="a_Node000025"><a xlink:href="../../d4/dc1/src_2view__engine_8c.html#a747411d59b020ad11d4567ab0b3db8c2" target="_top" xlink:title="Format Line for Display.">
<polygon fill="white" stroke="#666666" points="312.75,-189.75 256.25,-189.75 256.25,-169 312.75,-169 312.75,-189.75"/>
<text xml:space="preserve" text-anchor="middle" x="284.5" y="-176.25" font-family="Helvetica,sans-Serif" font-size="10.00">fmt_line</text>
</a>
</g>
</g>
<!-- Node3&#45;&gt;Node25 -->
<g id="edge39_Node000003_Node000025" class="edge">
<title>Node3&#45;&gt;Node25</title>
<g id="a_edge39_Node000003_Node000025"><a xlink:title=" ">
<path fill="none" stroke="#63b8ff" d="M189.02,-179.38C205.97,-179.38 226.78,-179.38 244.55,-179.38"/>
<polygon fill="#63b8ff" stroke="#63b8ff" points="244.49,-182.88 254.49,-179.38 244.49,-175.88 244.49,-182.88"/>
</a>
</g>
</g>
<!-- Node33 -->
<g id="Node000033" class="node">
<title>Node33</title>
<g id="a_Node000033"><a xlink:href="../../d4/dc1/src_2view__engine_8c.html#a395b27e6a9716bf49e3fc04d53987b33" target="_top" xlink:title="Get Next Line from File.">
<polygon fill="white" stroke="#666666" points="325.5,-150.75 243.5,-150.75 243.5,-130 325.5,-130 325.5,-150.75"/>
<text xml:space="preserve" text-anchor="middle" x="284.5" y="-137.25" font-family="Helvetica,sans-Serif" font-size="10.00">get_next_line</text>
</a>
</g>
</g>
<!-- Node3&#45;&gt;Node33 -->
<g id="edge49_Node000003_Node000033" class="edge">
<title>Node3&#45;&gt;Node33</title>
<g id="a_edge49_Node000003_Node000033"><a xlink:title=" ">
<path fill="none" stroke="#63b8ff" d="M189.02,-169.33C203.74,-164.82 221.36,-159.42 237.38,-154.51"/>
<polygon fill="#63b8ff" stroke="#63b8ff" points="238.18,-157.93 246.71,-151.65 236.13,-151.23 238.18,-157.93"/>
</a>
</g>
</g>
<!-- Node5 -->
<g id="Node000005" class="node">
<title>Node5</title>
<g id="a_Node000005"><a xlink:href="../../dc/d40/dwin_8c.html#a61b4f28456257f68ed042bed7f187efd" target="_top" xlink:title="Display a simple error message window or print to stderr.">
<polygon fill="white" stroke="#666666" points="427.38,-384.75 382.12,-384.75 382.12,-364 427.38,-364 427.38,-384.75"/>
<text xml:space="preserve" text-anchor="middle" x="404.75" y="-371.25" font-family="Helvetica,sans-Serif" font-size="10.00">Perror</text>
</a>
</g>
</g>
<!-- Node4&#45;&gt;Node5 -->
<g id="edge4_Node000004_Node000005" class="edge">
<title>Node4&#45;&gt;Node5</title>
<g id="a_edge4_Node000004_Node000005"><a xlink:title=" ">
<path fill="none" stroke="#63b8ff" d="M310,-333.15C327.73,-340.94 351.86,-351.56 371.21,-360.06"/>
<polygon fill="#63b8ff" stroke="#63b8ff" points="369.72,-363.24 380.29,-364.06 372.54,-356.83 369.72,-363.24"/>
</a>
</g>
</g>
<!-- Node6 -->
<g id="Node000006" class="node">
<title>Node6</title>
<g id="a_Node000006"><a xlink:href="../../dc/d40/dwin_8c.html#a8f6c45ca4a7f6a41c4c88314e697565a" target="_top" xlink:title="Abnormal program termination.">
<polygon fill="white" stroke="#666666" points="954.12,-443.75 908.12,-443.75 908.12,-423 954.12,-423 954.12,-443.75"/>
<text xml:space="preserve" text-anchor="middle" x="931.12" y="-430.25" font-family="Helvetica,sans-Serif" font-size="10.00">abend</text>
</a>
</g>
</g>
<!-- Node5&#45;&gt;Node6 -->
<g id="edge5_Node000005_Node000006" class="edge">
<title>Node5&#45;&gt;Node6</title>
<g id="a_edge5_Node000005_Node000006"><a xlink:title=" ">
<path fill="none" stroke="#63b8ff" d="M410.95,-385.09C421.59,-405.82 447.93,-451.4 484,-474.38 592.37,-543.4 639.83,-519.44 768,-528.38 809.34,-531.26 824.33,-547.21 861.25,-528.38 891.37,-513.01 911.38,-477.64 921.73,-454.66"/>
<polygon fill="#63b8ff" stroke="#63b8ff" points="924.88,-456.2 925.57,-445.63 918.44,-453.47 924.88,-456.2"/>
</a>
</g>
</g>
<!-- Node10 -->
<g id="Node000010" class="node">
<title>Node10</title>
<g id="a_Node000010"><a xlink:href="../../dc/d40/dwin_8c.html#a645871e46277e31736bc36d0f3dce4bd" target="_top" xlink:title="construct the chyron string from the chyron structure">
<polygon fill="white" stroke="#666666" points="861.25,-328.75 768,-328.75 768,-308 861.25,-308 861.25,-328.75"/>
<text xml:space="preserve" text-anchor="middle" x="814.62" y="-315.25" font-family="Helvetica,sans-Serif" font-size="10.00">compile_chyron</text>
</a>
</g>
</g>
<!-- Node5&#45;&gt;Node10 -->
<g id="edge11_Node000005_Node000010" class="edge">
<title>Node5&#45;&gt;Node10</title>
<g id="a_edge11_Node000005_Node000010"><a xlink:title=" ">
<path fill="none" stroke="#63b8ff" d="M427.86,-368.28C443.46,-364.15 464.88,-358.85 484,-355.38 578.74,-338.15 690.34,-327.64 756.36,-322.42"/>
<polygon fill="#63b8ff" stroke="#63b8ff" points="756.54,-325.92 766.24,-321.66 756,-318.94 756.54,-325.92"/>
</a>
</g>
</g>
<!-- Node12 -->
<g id="Node000012" class="node">
<title>Node12</title>
<g id="a_Node000012"><a xlink:href="../../dc/d40/dwin_8c.html#a3f3feb40fd703913c5c136331f627c91" target="_top" xlink:title="Destroy Chyron structure.">
<polygon fill="white" stroke="#666666" points="860.12,-252.75 769.12,-252.75 769.12,-232 860.12,-232 860.12,-252.75"/>
<text xml:space="preserve" text-anchor="middle" x="814.62" y="-239.25" font-family="Helvetica,sans-Serif" font-size="10.00">destroy_chyron</text>
</a>
</g>
</g>
<!-- Node5&#45;&gt;Node12 -->
<g id="edge13_Node000005_Node000012" class="edge">
<title>Node5&#45;&gt;Node12</title>
<g id="a_edge13_Node000005_Node000012"><a xlink:title=" ">
<path fill="none" stroke="#63b8ff" d="M424.24,-363.59C439.79,-354.84 462.82,-342.65 484,-334.38 577.51,-297.85 691.19,-269.46 757.67,-254.38"/>
<polygon fill="#63b8ff" stroke="#63b8ff" points="758.25,-257.83 767.24,-252.23 756.72,-251.01 758.25,-257.83"/>
</a>
</g>
</g>
<!-- Node13 -->
<g id="Node000013" class="node">
<title>Node13</title>
<g id="a_Node000013"><a xlink:href="../../dc/d40/dwin_8c.html#ad37d5808ff30ae6894780425d865abae" target="_top" xlink:title="Create and initialize Chyron structure.">
<polygon fill="white" stroke="#666666" points="851.88,-443.75 777.38,-443.75 777.38,-423 851.88,-423 851.88,-443.75"/>
<text xml:space="preserve" text-anchor="middle" x="814.62" y="-430.25" font-family="Helvetica,sans-Serif" font-size="10.00">new_chyron</text>
</a>
</g>
</g>
<!-- Node5&#45;&gt;Node13 -->
<g id="edge14_Node000005_Node000013" class="edge">
<title>Node5&#45;&gt;Node13</title>
<g id="a_edge14_Node000005_Node000013"><a xlink:title=" ">
<path fill="none" stroke="#63b8ff" d="M427.71,-384.37C468.42,-402.3 558.84,-439.27 639.5,-452.38 680.08,-458.97 691.16,-457.07 732,-452.38 743.05,-451.11 754.78,-448.9 765.8,-446.43"/>
<polygon fill="#63b8ff" stroke="#63b8ff" points="766.56,-449.85 775.49,-444.14 764.95,-443.03 766.56,-449.85"/>
</a>
</g>
</g>
<!-- Node14 -->
<g id="Node000014" class="node">
<title>Node14</title>
<g id="a_Node000014"><a xlink:href="../../dc/d40/dwin_8c.html#a208ce92c197fdd6d2b007987e534aa3b" target="_top" xlink:title="Set chyron key.">
<polygon fill="white" stroke="#666666" points="860.5,-213.75 768.75,-213.75 768.75,-193 860.5,-193 860.5,-213.75"/>
<text xml:space="preserve" text-anchor="middle" x="814.62" y="-200.25" font-family="Helvetica,sans-Serif" font-size="10.00">set_chyron_key</text>
</a>
</g>
</g>
<!-- Node5&#45;&gt;Node14 -->
<g id="edge16_Node000005_Node000014" class="edge">
<title>Node5&#45;&gt;Node14</title>
<g id="a_edge16_Node000005_Node000014"><a xlink:title=" ">
<path fill="none" stroke="#63b8ff" d="M412.81,-363.67C425.1,-345.89 452.2,-310.35 484,-291.38 570.79,-239.6 688.32,-217.75 757.06,-208.93"/>
<polygon fill="#63b8ff" stroke="#63b8ff" points="757.48,-212.41 766.98,-207.72 756.63,-205.46 757.48,-212.41"/>
</a>
</g>
</g>
<!-- Node15 -->
<g id="Node000015" class="node">
<title>Node15</title>
<g id="a_Node000015"><a xlink:href="../../d0/d59/futil_8c.html#a63eb94756fb011a456a3dec900709cd8" target="_top" xlink:title="ssnprintf was designed to be a safer alternative to snprintf.">
<polygon fill="white" stroke="#666666" points="960.5,-194.75 901.75,-194.75 901.75,-174 960.5,-174 960.5,-194.75"/>
<text xml:space="preserve" text-anchor="middle" x="931.12" y="-181.25" font-family="Helvetica,sans-Serif" font-size="10.00">ssnprintf</text>
</a>
</g>
</g>
<!-- Node5&#45;&gt;Node15 -->
<g id="edge18_Node000005_Node000015" class="edge">
<title>Node5&#45;&gt;Node15</title>
<g id="a_edge18_Node000005_Node000015"><a xlink:title=" ">
<path fill="none" stroke="#63b8ff" d="M408.49,-363.72C415.81,-337.53 438.46,-269.76 484,-237.38 609.23,-148.32 805.95,-164.95 889.94,-177.34"/>
<polygon fill="#63b8ff" stroke="#63b8ff" points="889.35,-180.79 899.76,-178.85 890.41,-173.87 889.35,-180.79"/>
</a>
</g>
</g>
<!-- Node16 -->
<g id="Node000016" class="node">
<title>Node16</title>
<g id="a_Node000016"><a xlink:href="../../d0/d59/futil_8c.html#a0de2e40df9bd7efc8fd9afb8ad2257e6" target="_top" xlink:title="safer alternative to strncpy">
<polygon fill="white" stroke="#666666" points="965,-575.75 897.25,-575.75 897.25,-555 965,-555 965,-575.75"/>
<text xml:space="preserve" text-anchor="middle" x="931.12" y="-562.25" font-family="Helvetica,sans-Serif" font-size="10.00">strnz__cpy</text>
</a>
</g>
</g>
<!-- Node5&#45;&gt;Node16 -->
<g id="edge19_Node000005_Node000016" class="edge">
<title>Node5&#45;&gt;Node16</title>
<g id="a_edge19_Node000005_Node000016"><a xlink:title=" ">
<path fill="none" stroke="#63b8ff" d="M405.77,-385.24C406.5,-422.03 414.3,-542.54 484,-596.38 616.73,-698.89 699.94,-650.23 861.25,-604.38 865.81,-603.08 885.45,-591.86 902.6,-581.78"/>
<polygon fill="#63b8ff" stroke="#63b8ff" points="904.14,-584.94 910.97,-576.84 900.58,-578.91 904.14,-584.94"/>
</a>
</g>
</g>
<!-- Node17 -->
<g id="Node000017" class="node">
<title>Node17</title>
<g id="a_Node000017"><a xlink:href="../../dc/d40/dwin_8c.html#a9dd598e1d49c8764af1eec42c682623e" target="_top" xlink:title="Delete the current window and its associated box window.">
<polygon fill="white" stroke="#666666" points="841.38,-519.75 787.88,-519.75 787.88,-499 841.38,-499 841.38,-519.75"/>
<text xml:space="preserve" text-anchor="middle" x="814.62" y="-506.25" font-family="Helvetica,sans-Serif" font-size="10.00">win_del</text>
</a>
</g>
</g>
<!-- Node5&#45;&gt;Node17 -->
<g id="edge20_Node000005_Node000017" class="edge">
<title>Node5&#45;&gt;Node17</title>
<g id="a_edge20_Node000005_Node000017"><a xlink:title=" ">
<path fill="none" stroke="#63b8ff" d="M415.2,-385.16C428.84,-400.02 455.56,-426.52 484,-440.38 582.26,-488.26 712.79,-503.01 776.06,-507.48"/>
<polygon fill="#63b8ff" stroke="#63b8ff" points="775.72,-510.96 785.92,-508.12 776.17,-503.97 775.72,-510.96"/>
</a>
</g>
</g>
<!-- Node18 -->
<g id="Node000018" class="node">
<title>Node18</title>
<g id="a_Node000018"><a xlink:href="../../dc/d40/dwin_8c.html#a435c7bff7ffedb8f51c6de9259e36f6c" target="_top" xlink:title="Create a new window with optional box and title.">
<polygon fill="white" stroke="#666666" points="844,-595.75 785.25,-595.75 785.25,-575 844,-575 844,-595.75"/>
<text xml:space="preserve" text-anchor="middle" x="814.62" y="-582.25" font-family="Helvetica,sans-Serif" font-size="10.00">win_new</text>
</a>
</g>
</g>
<!-- Node5&#45;&gt;Node18 -->
<g id="edge21_Node000005_Node000018" class="edge">
<title>Node5&#45;&gt;Node18</title>
<g id="a_edge21_Node000005_Node000018"><a xlink:title=" ">
<path fill="none" stroke="#63b8ff" d="M406.52,-385.19C409.52,-418.16 423.43,-517.81 484,-561.38 571.22,-624.12 707.21,-607.91 773.95,-594.69"/>
<polygon fill="#63b8ff" stroke="#63b8ff" points="774.64,-598.12 783.72,-592.66 773.22,-591.26 774.64,-598.12"/>
</a>
</g>
</g>
<!-- Node20 -->
<g id="Node000020" class="node">
<title>Node20</title>
<g id="a_Node000020"><a xlink:href="../../dc/d40/dwin_8c.html#acf4c709bccc4c965a5d61db978db31a3" target="_top" xlink:title="Wrapper for wgetch that handles signals and mouse events.">
<polygon fill="white" stroke="#666666" points="572.38,-384.75 515.12,-384.75 515.12,-364 572.38,-364 572.38,-384.75"/>
<text xml:space="preserve" text-anchor="middle" x="543.75" y="-371.25" font-family="Helvetica,sans-Serif" font-size="10.00">xwgetch</text>
</a>
</g>
</g>
<!-- Node5&#45;&gt;Node20 -->
<g id="edge24_Node000005_Node000020" class="edge">
<title>Node5&#45;&gt;Node20</title>
<g id="a_edge24_Node000005_Node000020"><a xlink:title=" ">
<path fill="none" stroke="#63b8ff" d="M427.76,-374.38C448.17,-374.38 479.01,-374.38 503.61,-374.38"/>
<polygon fill="#63b8ff" stroke="#63b8ff" points="503.6,-377.88 513.6,-374.38 503.6,-370.88 503.6,-377.88"/>
</a>
</g>
</g>
<!-- Node7 -->
<g id="Node000007" class="node">
<title>Node7</title>
<g id="a_Node000007"><a xlink:href="../../dc/d40/dwin_8c.html#afc0985a403e3eac0b2cd8f0fab500256" target="_top" xlink:title="Gracefully shut down NCurses and restore terminal settings.">
<polygon fill="white" stroke="#666666" points="1090.5,-443.75 1001,-443.75 1001,-423 1090.5,-423 1090.5,-443.75"/>
<text xml:space="preserve" text-anchor="middle" x="1045.75" y="-430.25" font-family="Helvetica,sans-Serif" font-size="10.00">destroy_curses</text>
</a>
</g>
</g>
<!-- Node6&#45;&gt;Node7 -->
<g id="edge6_Node000006_Node000007" class="edge">
<title>Node6&#45;&gt;Node7</title>
<g id="a_edge6_Node000006_Node000007"><a xlink:title=" ">
<path fill="none" stroke="#63b8ff" d="M954.38,-433.38C964.49,-433.38 976.94,-433.38 989.34,-433.38"/>
<polygon fill="#63b8ff" stroke="#63b8ff" points="989.13,-436.88 999.13,-433.38 989.13,-429.88 989.13,-436.88"/>
</a>
</g>
</g>
<!-- Node8 -->
<g id="Node000008" class="node">
<title>Node8</title>
<g id="a_Node000008"><a xlink:href="../../d7/d72/scriou_8c.html#ac5e3adb304b78910fc77761ef6a743f0" target="_top" xlink:title="restore_shell_tioctl() &#45; restore shell terminal settings">
<polygon fill="white" stroke="#666666" points="1235.5,-471.75 1126.5,-471.75 1126.5,-451 1235.5,-451 1235.5,-471.75"/>
<text xml:space="preserve" text-anchor="middle" x="1181" y="-458.25" font-family="Helvetica,sans-Serif" font-size="10.00">restore_shell_tioctl</text>
</a>
</g>
</g>
<!-- Node6&#45;&gt;Node8 -->
<g id="edge9_Node000006_Node000008" class="edge">
<title>Node6&#45;&gt;Node8</title>
<g id="a_edge9_Node000006_Node000008"><a xlink:title=" ">
<path fill="none" stroke="#63b8ff" d="M954.5,-440.88C967.84,-445.03 985.2,-449.83 1001,-452.38 1038.4,-458.4 1080.71,-460.73 1114.8,-461.52"/>
<polygon fill="#63b8ff" stroke="#63b8ff" points="1114.45,-465.01 1124.51,-461.7 1114.58,-458.01 1114.45,-465.01"/>
</a>
</g>
</g>
<!-- Node9 -->
<g id="Node000009" class="node">
<title>Node9</title>
<g id="a_Node000009"><a xlink:href="../../da/d12/sig_8c.html#a06c1eb6cf3649dc187115565409f91af" target="_top" xlink:title="Set signal handlers to default behavior.">
<polygon fill="white" stroke="#666666" points="1221.62,-423.75 1140.38,-423.75 1140.38,-403 1221.62,-403 1221.62,-423.75"/>
<text xml:space="preserve" text-anchor="middle" x="1181" y="-410.25" font-family="Helvetica,sans-Serif" font-size="10.00">sig_dfl_mode</text>
</a>
</g>
</g>
<!-- Node6&#45;&gt;Node9 -->
<g id="edge10_Node000006_Node000009" class="edge">
<title>Node6&#45;&gt;Node9</title>
<g id="a_edge10_Node000006_Node000009"><a xlink:title=" ">
<path fill="none" stroke="#63b8ff" d="M954.46,-425.6C967.78,-421.37 985.15,-416.57 1001,-414.38 1043.78,-408.46 1092.86,-408.67 1128.79,-410.1"/>
<polygon fill="#63b8ff" stroke="#63b8ff" points="1128.31,-413.58 1138.46,-410.54 1128.63,-406.59 1128.31,-413.58"/>
</a>
</g>
</g>
<!-- Node7&#45;&gt;Node8 -->
<g id="edge7_Node000007_Node000008" class="edge">
<title>Node7&#45;&gt;Node8</title>
<g id="a_edge7_Node000007_Node000008"><a xlink:title=" ">
<path fill="none" stroke="#63b8ff" d="M1090.75,-442.62C1099.37,-444.43 1108.57,-446.37 1117.66,-448.28"/>
<polygon fill="#63b8ff" stroke="#63b8ff" points="1116.66,-451.64 1127.17,-450.27 1118.1,-444.79 1116.66,-451.64"/>
</a>
</g>
</g>
<!-- Node7&#45;&gt;Node9 -->
<g id="edge8_Node000007_Node000009" class="edge">
<title>Node7&#45;&gt;Node9</title>
<g id="a_edge8_Node000007_Node000009"><a xlink:title=" ">
<path fill="none" stroke="#63b8ff" d="M1090.75,-426.77C1102.94,-424.94 1116.27,-422.94 1128.83,-421.06"/>
<polygon fill="#63b8ff" stroke="#63b8ff" points="1129.23,-424.54 1138.6,-419.59 1128.19,-417.61 1129.23,-424.54"/>
</a>
</g>
</g>
<!-- Node11 -->
<g id="Node000011" class="node">
<title>Node11</title>
<g id="a_Node000011"><a xlink:href="../../d0/d59/futil_8c.html#aa0145c044cfdde3a1c83323410a59f25" target="_top" xlink:title="safer alternative to strncat">
<polygon fill="white" stroke="#666666" points="963.88,-328.75 898.38,-328.75 898.38,-308 963.88,-308 963.88,-328.75"/>
<text xml:space="preserve" text-anchor="middle" x="931.12" y="-315.25" font-family="Helvetica,sans-Serif" font-size="10.00">strnz__cat</text>
</a>
</g>
</g>
<!-- Node10&#45;&gt;Node11 -->
<g id="edge12_Node000010_Node000011" class="edge">
<title>Node10&#45;&gt;Node11</title>
<g id="a_edge12_Node000010_Node000011"><a xlink:title=" ">
<path fill="none" stroke="#63b8ff" d="M861.54,-318.38C869.83,-318.38 878.44,-318.38 886.66,-318.38"/>
<polygon fill="#63b8ff" stroke="#63b8ff" points="886.42,-321.88 896.42,-318.38 886.42,-314.88 886.42,-321.88"/>
</a>
</g>
</g>
<!-- Node13&#45;&gt;Node6 -->
<g id="edge15_Node000013_Node000006" class="edge">
<title>Node13&#45;&gt;Node6</title>
<g id="a_edge15_Node000013_Node000006"><a xlink:title=" ">
<path fill="none" stroke="#63b8ff" d="M852.17,-433.38C866.49,-433.38 882.8,-433.38 896.79,-433.38"/>
<polygon fill="#63b8ff" stroke="#63b8ff" points="896.39,-436.88 906.39,-433.38 896.39,-429.88 896.39,-436.88"/>
</a>
</g>
</g>
<!-- Node14&#45;&gt;Node15 -->
<g id="edge17_Node000014_Node000015" class="edge">
<title>Node14&#45;&gt;Node15</title>
<g id="a_edge17_Node000014_Node000015"><a xlink:title=" ">
<path fill="none" stroke="#63b8ff" d="M860.88,-195.87C870.57,-194.26 880.73,-192.57 890.2,-191"/>
<polygon fill="#63b8ff" stroke="#63b8ff" points="890.54,-194.49 899.84,-189.4 889.4,-187.59 890.54,-194.49"/>
</a>
</g>
</g>
<!-- Node18&#45;&gt;Node16 -->
<g id="edge23_Node000018_Node000016" class="edge">
<title>Node18&#45;&gt;Node16</title>
<g id="a_edge23_Node000018_Node000016"><a xlink:title=" ">
<path fill="none" stroke="#63b8ff" d="M844.22,-580.38C856.87,-578.17 872.03,-575.52 886.08,-573.07"/>
<polygon fill="#63b8ff" stroke="#63b8ff" points="886.29,-576.59 895.54,-571.42 885.08,-569.69 886.29,-576.59"/>
</a>
</g>
</g>
<!-- Node19 -->
<g id="Node000019" class="node">
<title>Node19</title>
<g id="a_Node000019"><a xlink:href="../../dc/d40/dwin_8c.html#ac9adcf7339be4a05ab1a7350c236b8a5" target="_top" xlink:title="Draw a box around the specified window.">
<polygon fill="white" stroke="#666666" points="950.75,-614.75 911.5,-614.75 911.5,-594 950.75,-594 950.75,-614.75"/>
<text xml:space="preserve" text-anchor="middle" x="931.12" y="-601.25" font-family="Helvetica,sans-Serif" font-size="10.00">cbox</text>
</a>
</g>
</g>
<!-- Node18&#45;&gt;Node19 -->
<g id="edge22_Node000018_Node000019" class="edge">
<title>Node18&#45;&gt;Node19</title>
<g id="a_edge22_Node000018_Node000019"><a xlink:title=" ">
<path fill="none" stroke="#63b8ff" d="M844.22,-590.12C861.23,-592.94 882.78,-596.52 900.04,-599.38"/>
<polygon fill="#63b8ff" stroke="#63b8ff" points="899.27,-602.8 909.71,-600.99 900.41,-595.9 899.27,-602.8"/>
</a>
</g>
</g>
<!-- Node21 -->
<g id="Node000021" class="node">
<title>Node21</title>
<g id="a_Node000021"><a xlink:href="../../dc/d40/dwin_8c.html#a67659f8a701b74f4dec0d36227a10d1c" target="_top" xlink:title="Display an error message window or print to stderr.">
<polygon fill="white" stroke="#666666" points="725.62,-365.75 645.88,-365.75 645.88,-345 725.62,-345 725.62,-365.75"/>
<text xml:space="preserve" text-anchor="middle" x="685.75" y="-352.25" font-family="Helvetica,sans-Serif" font-size="10.00">display_error</text>
</a>
</g>
</g>
<!-- Node20&#45;&gt;Node21 -->
<g id="edge25_Node000020_Node000021" class="edge">
<title>Node20&#45;&gt;Node21</title>
<g id="a_edge25_Node000020_Node000021"><a xlink:title=" ">
<path fill="none" stroke="#63b8ff" d="M572.74,-365.05C590.32,-361.49 613.49,-358.02 634.2,-355.72"/>
<polygon fill="#63b8ff" stroke="#63b8ff" points="634.31,-359.23 643.9,-354.73 633.59,-352.27 634.31,-359.23"/>
</a>
</g>
</g>
<!-- Node23 -->
<g id="Node000023" class="node">
<title>Node23</title>
<g id="a_Node000023"><a xlink:href="../../dc/d40/dwin_8c.html#a4298f891699300bfc4e6e56fd2a8d574" target="_top" xlink:title="Get keycode from chyron.">
<polygon fill="white" stroke="#666666" points="732,-443.75 639.5,-443.75 639.5,-423 732,-423 732,-443.75"/>
<text xml:space="preserve" text-anchor="middle" x="685.75" y="-430.25" font-family="Helvetica,sans-Serif" font-size="10.00">get_chyron_key</text>
</a>
</g>
</g>
<!-- Node20&#45;&gt;Node23 -->
<g id="edge37_Node000020_Node000023" class="edge">
<title>Node20&#45;&gt;Node23</title>
<g id="a_edge37_Node000020_Node000023"><a xlink:title=" ">
<path fill="none" stroke="#63b8ff" d="M570.43,-385.2C592.43,-394.47 624.36,-407.93 648.89,-418.26"/>
<polygon fill="#63b8ff" stroke="#63b8ff" points="647.27,-421.38 657.84,-422.03 649.98,-414.93 647.27,-421.38"/>
</a>
</g>
</g>
<!-- Node24 -->
<g id="Node000024" class="node">
<title>Node24</title>
<g id="a_Node000024"><a xlink:href="../../d0/d6b/cm_8h.html#a0667873879b5846c3fe2fa2cc96059d6" target="_top" xlink:title=" ">
<polygon fill="white" stroke="#666666" points="727.5,-404.75 644,-404.75 644,-384 727.5,-384 727.5,-404.75"/>
<text xml:space="preserve" text-anchor="middle" x="685.75" y="-391.25" font-family="Helvetica,sans-Serif" font-size="10.00">handle_signal</text>
</a>
</g>
</g>
<!-- Node20&#45;&gt;Node24 -->
<g id="edge38_Node000020_Node000024" class="edge">
<title>Node20&#45;&gt;Node24</title>
<g id="a_edge38_Node000020_Node000024"><a xlink:title=" ">
<path fill="none" stroke="#63b8ff" d="M572.74,-378.37C589.77,-380.81 612.05,-383.99 632.25,-386.88"/>
<polygon fill="#63b8ff" stroke="#63b8ff" points="631.64,-390.32 642.03,-388.27 632.63,-383.39 631.64,-390.32"/>
</a>
</g>
</g>
<!-- Node21&#45;&gt;Node6 -->
<g id="edge26_Node000021_Node000006" class="edge">
<title>Node21&#45;&gt;Node6</title>
<g id="a_edge26_Node000021_Node000006"><a xlink:title=" ">
<path fill="none" stroke="#63b8ff" d="M720.59,-366.22C767.19,-381.15 850.58,-407.88 896.87,-422.72"/>
<polygon fill="#63b8ff" stroke="#63b8ff" points="895.76,-426.04 906.35,-425.76 897.9,-419.37 895.76,-426.04"/>
</a>
</g>
</g>
<!-- Node21&#45;&gt;Node10 -->
<g id="edge27_Node000021_Node000010" class="edge">
<title>Node21&#45;&gt;Node10</title>
<g id="a_edge27_Node000021_Node000010"><a xlink:title=" ">
<path fill="none" stroke="#63b8ff" d="M723.79,-344.57C736.95,-340.74 751.95,-336.36 765.88,-332.3"/>
<polygon fill="#63b8ff" stroke="#63b8ff" points="766.69,-335.71 775.31,-329.55 764.73,-328.99 766.69,-335.71"/>
</a>
</g>
</g>
<!-- Node21&#45;&gt;Node12 -->
<g id="edge28_Node000021_Node000012" class="edge">
<title>Node21&#45;&gt;Node12</title>
<g id="a_edge28_Node000021_Node000012"><a xlink:title=" ">
<path fill="none" stroke="#63b8ff" d="M694.53,-344.68C707.95,-326.75 737.03,-290.29 768,-266.38 771.56,-263.62 775.49,-261.03 779.5,-258.63"/>
<polygon fill="#63b8ff" stroke="#63b8ff" points="781.09,-261.75 788.14,-253.84 777.7,-255.62 781.09,-261.75"/>
</a>
</g>
</g>
<!-- Node21&#45;&gt;Node13 -->
<g id="edge29_Node000021_Node000013" class="edge">
<title>Node21&#45;&gt;Node13</title>
<g id="a_edge29_Node000021_Node000013"><a xlink:title=" ">
<path fill="none" stroke="#63b8ff" d="M715.29,-366.21C721.02,-368.87 726.85,-371.95 732,-375.38 750.33,-387.56 750.1,-396.58 768,-409.38 771.85,-412.13 776.06,-414.77 780.31,-417.22"/>
<polygon fill="#63b8ff" stroke="#63b8ff" points="778.37,-420.15 788.83,-421.86 781.72,-414.01 778.37,-420.15"/>
</a>
</g>
</g>
<!-- Node21&#45;&gt;Node14 -->
<g id="edge30_Node000021_Node000014" class="edge">
<title>Node21&#45;&gt;Node14</title>
<g id="a_edge30_Node000021_Node000014"><a xlink:title=" ">
<path fill="none" stroke="#63b8ff" d="M690.74,-344.63C700.38,-320.01 727.2,-258.88 768,-223.38 769.44,-222.13 770.96,-220.94 772.55,-219.83"/>
<polygon fill="#63b8ff" stroke="#63b8ff" points="774.06,-223 780.87,-214.89 770.49,-216.98 774.06,-223"/>
</a>
</g>
</g>
<!-- Node21&#45;&gt;Node15 -->
<g id="edge31_Node000021_Node000015" class="edge">
<title>Node21&#45;&gt;Node15</title>
<g id="a_edge31_Node000021_Node000015"><a xlink:title=" ">
<path fill="none" stroke="#63b8ff" d="M700.26,-344.71C715.92,-332.66 742.83,-312.97 768,-299.38 807.38,-278.11 824.67,-287.16 861.25,-261.38 883.55,-245.65 903.67,-221.42 916.33,-204.35"/>
<polygon fill="#63b8ff" stroke="#63b8ff" points="919,-206.63 921.99,-196.47 913.31,-202.55 919,-206.63"/>
</a>
</g>
</g>
<!-- Node21&#45;&gt;Node16 -->
<g id="edge33_Node000021_Node000016" class="edge">
<title>Node21&#45;&gt;Node16</title>
<g id="a_edge33_Node000021_Node000016"><a xlink:title=" ">
<path fill="none" stroke="#63b8ff" d="M718.77,-366.01C723.58,-368.56 728.19,-371.65 732,-375.38 758.99,-401.8 740.62,-426.34 768,-452.38 800.43,-483.21 824.5,-464.83 861.25,-490.38 883.21,-505.64 903.27,-529.06 916.01,-545.66"/>
<polygon fill="#63b8ff" stroke="#63b8ff" points="912.93,-547.4 921.72,-553.32 918.55,-543.21 912.93,-547.4"/>
</a>
</g>
</g>
<!-- Node21&#45;&gt;Node17 -->
<g id="edge34_Node000021_Node000017" class="edge">
<title>Node21&#45;&gt;Node17</title>
<g id="a_edge34_Node000021_Node000017"><a xlink:title=" ">
<path fill="none" stroke="#63b8ff" d="M720.09,-366.13C724.51,-368.63 728.66,-371.68 732,-375.38 766.51,-413.52 734.81,-446.08 768,-485.38 770.76,-488.64 774.08,-491.53 777.66,-494.06"/>
<polygon fill="#63b8ff" stroke="#63b8ff" points="775.83,-497.04 786.21,-499.17 779.42,-491.04 775.83,-497.04"/>
</a>
</g>
</g>
<!-- Node21&#45;&gt;Node18 -->
<g id="edge35_Node000021_Node000018" class="edge">
<title>Node21&#45;&gt;Node18</title>
<g id="a_edge35_Node000021_Node000018"><a xlink:title=" ">
<path fill="none" stroke="#63b8ff" d="M720.83,-366.15C725.03,-368.64 728.93,-371.67 732,-375.38 776.62,-429.12 737.42,-465.57 768,-528.38 774.78,-542.3 785.48,-555.92 794.82,-566.35"/>
<polygon fill="#63b8ff" stroke="#63b8ff" points="792.13,-568.6 801.51,-573.52 797.24,-563.82 792.13,-568.6"/>
</a>
</g>
</g>
<!-- Node21&#45;&gt;Node20 -->
<g id="edge36_Node000021_Node000020" class="edge">
<title>Node21&#45;&gt;Node20</title>
<g id="a_edge36_Node000021_Node000020"><a xlink:title=" ">
<path fill="none" stroke="#63b8ff" d="M648.82,-366.23C629.03,-369.89 604.44,-373.28 584.14,-375.17"/>
<polygon fill="#63b8ff" stroke="#63b8ff" points="583.93,-371.67 574.25,-375.98 584.51,-378.65 583.93,-371.67"/>
</a>
</g>
</g>
<!-- Node22 -->
<g id="Node000022" class="node">
<title>Node22</title>
<g id="a_Node000022"><a xlink:href="../../d0/d59/futil_8c.html#a636608f26d1193b5d860f2312cd8ee49" target="_top" xlink:title="terminates string at New Line, Carriage Return, or max_len">
<polygon fill="white" stroke="#666666" points="834.62,-367.75 794.62,-367.75 794.62,-347 834.62,-347 834.62,-367.75"/>
<text xml:space="preserve" text-anchor="middle" x="814.62" y="-354.25" font-family="Helvetica,sans-Serif" font-size="10.00">strnz</text>
</a>
</g>
</g>
<!-- Node21&#45;&gt;Node22 -->
<g id="edge32_Node000021_Node000022" class="edge">
<title>Node21&#45;&gt;Node22</title>
<g id="a_edge32_Node000021_Node000022"><a xlink:title=" ">
<path fill="none" stroke="#63b8ff" d="M725.85,-355.99C744.31,-356.28 766.01,-356.62 783.21,-356.9"/>
<polygon fill="#63b8ff" stroke="#63b8ff" points="782.74,-360.39 792.79,-357.05 782.85,-353.39 782.74,-360.39"/>
</a>
</g>
</g>
<!-- Node26 -->
<g id="Node000026" class="node">
<title>Node26</title>
<g id="a_Node000026"><a xlink:href="../../d4/dc1/src_2view__engine_8c.html#a9fc984ba8ce6c4059b33a915d526357f" target="_top" xlink:title="Parse ANSI SGR Escape Sequence.">
<polygon fill="white" stroke="#666666" points="448,-98.75 361.5,-98.75 361.5,-78 448,-78 448,-98.75"/>
<text xml:space="preserve" text-anchor="middle" x="404.75" y="-85.25" font-family="Helvetica,sans-Serif" font-size="10.00">parse_ansi_str</text>
</a>
</g>
</g>
<!-- Node25&#45;&gt;Node26 -->
<g id="edge40_Node000025_Node000026" class="edge">
<title>Node25&#45;&gt;Node26</title>
<g id="a_edge40_Node000025_Node000026"><a xlink:title=" ">
<path fill="none" stroke="#63b8ff" d="M309.8,-168.56C315.13,-165.82 320.63,-162.71 325.5,-159.38 348.02,-143.96 370.8,-122.48 385.93,-107.19"/>
<polygon fill="#63b8ff" stroke="#63b8ff" points="388.37,-109.69 392.83,-100.08 383.35,-104.81 388.37,-109.69"/>
</a>
</g>
</g>
<!-- Node32 -->
<g id="Node000032" class="node">
<title>Node32</title>
<g id="a_Node000032"><a xlink:href="../../d0/d59/futil_8c.html#a4f42956462e811d96c9fb881a85dada4" target="_top" xlink:title="Trims trailing spaces from string s in place.">
<polygon fill="white" stroke="#666666" points="424.75,-189.75 384.75,-189.75 384.75,-169 424.75,-169 424.75,-189.75"/>
<text xml:space="preserve" text-anchor="middle" x="404.75" y="-176.25" font-family="Helvetica,sans-Serif" font-size="10.00">rtrim</text>
</a>
</g>
</g>
<!-- Node25&#45;&gt;Node32 -->
<g id="edge48_Node000025_Node000032" class="edge">
<title>Node25&#45;&gt;Node32</title>
<g id="a_edge48_Node000025_Node000032"><a xlink:title=" ">
<path fill="none" stroke="#63b8ff" d="M313.22,-179.38C331.14,-179.38 354.48,-179.38 372.98,-179.38"/>
<polygon fill="#63b8ff" stroke="#63b8ff" points="372.81,-182.88 382.81,-179.38 372.81,-175.88 372.81,-182.88"/>
</a>
</g>
</g>
<!-- Node27 -->
<g id="Node000027" class="node">
<title>Node27</title>
<g id="a_Node000027"><a xlink:href="../../d0/d59/futil_8c.html#ab96e4c73a7b3ba1310044b479733cdd9" target="_top" xlink:title="a safer alternative to atoi() for converting ASCII strings to integers.">
<polygon fill="white" stroke="#666666" points="563.75,-98.75 523.75,-98.75 523.75,-78 563.75,-78 563.75,-98.75"/>
<text xml:space="preserve" text-anchor="middle" x="543.75" y="-85.25" font-family="Helvetica,sans-Serif" font-size="10.00">a_toi</text>
</a>
</g>
</g>
<!-- Node26&#45;&gt;Node27 -->
<g id="edge41_Node000026_Node000027" class="edge">
<title>Node26&#45;&gt;Node27</title>
<g id="a_edge41_Node000026_Node000027"><a xlink:title=" ">
<path fill="none" stroke="#63b8ff" d="M448.35,-88.38C468.97,-88.38 493.26,-88.38 512.03,-88.38"/>
<polygon fill="#63b8ff" stroke="#63b8ff" points="511.97,-91.88 521.97,-88.38 511.97,-84.88 511.97,-91.88"/>
</a>
</g>
</g>
<!-- Node28 -->
<g id="Node000028" class="node">
<title>Node28</title>
<g id="a_Node000028"><a xlink:href="../../dc/d40/dwin_8c.html#af0ba4efbc81c259a2519ca41dd9d1599" target="_top" xlink:title="Get color pair index for foreground and background colors.">
<polygon fill="white" stroke="#666666" points="580.25,-137.75 507.25,-137.75 507.25,-117 580.25,-117 580.25,-137.75"/>
<text xml:space="preserve" text-anchor="middle" x="543.75" y="-124.25" font-family="Helvetica,sans-Serif" font-size="10.00">get_clr_pair</text>
</a>
</g>
</g>
<!-- Node26&#45;&gt;Node28 -->
<g id="edge42_Node000026_Node000028" class="edge">
<title>Node26&#45;&gt;Node28</title>
<g id="a_edge42_Node000026_Node000028"><a xlink:title=" ">
<path fill="none" stroke="#63b8ff" d="M443.91,-99.24C460.15,-103.86 479.24,-109.29 496.28,-114.15"/>
<polygon fill="#63b8ff" stroke="#63b8ff" points="495.11,-117.45 505.69,-116.82 497.03,-110.72 495.11,-117.45"/>
</a>
</g>
</g>
<!-- Node29 -->
<g id="Node000029" class="node">
<title>Node29</title>
<g id="a_Node000029"><a xlink:href="../../dc/d40/dwin_8c.html#a4900dd34e828972e58b0ca549cf7d4d8" target="_top" xlink:title="Get color index for RGB color.">
<polygon fill="white" stroke="#666666" points="594.12,-59.75 493.38,-59.75 493.38,-39 594.12,-39 594.12,-59.75"/>
<text xml:space="preserve" text-anchor="middle" x="543.75" y="-46.25" font-family="Helvetica,sans-Serif" font-size="10.00">rgb_to_curses_clr</text>
</a>
</g>
</g>
<!-- Node26&#45;&gt;Node29 -->
<g id="edge45_Node000026_Node000029" class="edge">
<title>Node26&#45;&gt;Node29</title>
<g id="a_edge45_Node000026_Node000029"><a xlink:title=" ">
<path fill="none" stroke="#63b8ff" d="M443.91,-77.51C459.35,-73.12 477.37,-67.99 493.76,-63.32"/>
<polygon fill="#63b8ff" stroke="#63b8ff" points="494.68,-66.7 503.34,-60.59 492.76,-59.97 494.68,-66.7"/>
</a>
</g>
</g>
<!-- Node31 -->
<g id="Node000031" class="node">
<title>Node31</title>
<g id="a_Node000031"><a xlink:href="../../dc/d40/dwin_8c.html#a31ee0d93c7b527f92559fc410152f768" target="_top" xlink:title="Convert XTerm 256 color index to RGB color.">
<polygon fill="white" stroke="#666666" points="603.5,-20.75 484,-20.75 484,0 603.5,0 603.5,-20.75"/>
<text xml:space="preserve" text-anchor="middle" x="543.75" y="-7.25" font-family="Helvetica,sans-Serif" font-size="10.00">xterm256_idx_to_rgb</text>
</a>
</g>
</g>
<!-- Node26&#45;&gt;Node31 -->
<g id="edge47_Node000026_Node000031" class="edge">
<title>Node26&#45;&gt;Node31</title>
<g id="a_edge47_Node000026_Node000031"><a xlink:title=" ">
<path fill="none" stroke="#63b8ff" d="M417.69,-77.66C432.39,-64.92 458.54,-43.73 484,-30.38 487.44,-28.57 491.08,-26.87 494.8,-25.3"/>
<polygon fill="#63b8ff" stroke="#63b8ff" points="495.91,-28.62 503.94,-21.71 493.36,-22.1 495.91,-28.62"/>
</a>
</g>
</g>
<!-- Node28&#45;&gt;Node15 -->
<g id="edge44_Node000028_Node000015" class="edge">
<title>Node28&#45;&gt;Node15</title>
<g id="a_edge44_Node000028_Node000015"><a xlink:title=" ">
<path fill="none" stroke="#63b8ff" d="M580.59,-125.84C640.02,-124.23 762.23,-124.9 861.25,-151.38 875.42,-155.16 890.2,-161.84 902.42,-168.2"/>
<polygon fill="#63b8ff" stroke="#63b8ff" points="900.63,-171.21 911.09,-172.9 903.97,-165.06 900.63,-171.21"/>
</a>
</g>
</g>
<!-- Node28&#45;&gt;Node21 -->
<g id="edge43_Node000028_Node000021" class="edge">
<title>Node28&#45;&gt;Node21</title>
<g id="a_edge43_Node000028_Node000021"><a xlink:title=" ">
<path fill="none" stroke="#63b8ff" d="M551.31,-138.07C573.13,-173.6 643.46,-288.12 672.27,-335.04"/>
<polygon fill="#63b8ff" stroke="#63b8ff" points="669.19,-336.73 677.41,-343.42 675.16,-333.06 669.19,-336.73"/>
</a>
</g>
</g>
<!-- Node30 -->
<g id="Node000030" class="node">
<title>Node30</title>
<g id="a_Node000030"><a xlink:href="../../dc/d40/dwin_8c.html#aa3a6b291c0820d9da545325a2dba5274" target="_top" xlink:title="Apply gamma correction to RGB color.">
<polygon fill="white" stroke="#666666" points="728.62,-59.75 642.88,-59.75 642.88,-39 728.62,-39 728.62,-59.75"/>
<text xml:space="preserve" text-anchor="middle" x="685.75" y="-46.25" font-family="Helvetica,sans-Serif" font-size="10.00">apply_gamma</text>
</a>
</g>
</g>
<!-- Node29&#45;&gt;Node30 -->
<g id="edge46_Node000029_Node000030" class="edge">
<title>Node29&#45;&gt;Node30</title>
<g id="a_edge46_Node000029_Node000030"><a xlink:title=" ">
<path fill="none" stroke="#63b8ff" d="M594.5,-49.38C606.41,-49.38 619.18,-49.38 631.26,-49.38"/>
<polygon fill="#63b8ff" stroke="#63b8ff" points="631.05,-52.88 641.05,-49.38 631.05,-45.88 631.05,-52.88"/>
</a>
</g>
</g>
</g>
</svg>
