<?xml version="1.0" encoding="UTF-8" standalone="no"?>
<!DOCTYPE svg PUBLIC "-//W3C//DTD SVG 1.1//EN"
 "http://www.w3.org/Graphics/SVG/1.1/DTD/svg11.dtd">
<!-- Generated by graphviz version 14.1.2 (0)
 -->
<!-- Title: write_view_buffer Pages: 1 -->
<svg width="758pt" height="629pt"
 viewBox="0.00 0.00 758.00 629.00" xmlns="http://www.w3.org/2000/svg" xmlns:xlink="http://www.w3.org/1999/xlink">
<g id="graph0" class="graph" transform="scale(1 1) rotate(0) translate(4 625.04)">
<title>write_view_buffer</title>
<!-- Node1 -->
<g id="Node000001" class="node">
<title>Node1</title>
<g id="a_Node000001"><a xlink:title="Write buffer contents to files.">
<polygon fill="#999999" stroke="#666666" points="103.75,-136.75 0,-136.75 0,-116 103.75,-116 103.75,-136.75"/>
<text xml:space="preserve" text-anchor="middle" x="51.88" y="-123.25" font-family="Helvetica,sans-Serif" font-size="10.00">write_view_buffer</text>
</a>
</g>
</g>
<!-- Node2 -->
<g id="Node000002" class="node">
<title>Node2</title>
<g id="a_Node000002"><a xlink:href="../../dc/d40/dwin_8c.html#a67659f8a701b74f4dec0d36227a10d1c" target="_top" xlink:title="Display an error message window or print to stderr.">
<polygon fill="white" stroke="#666666" points="220.62,-329.75 140.88,-329.75 140.88,-309 220.62,-309 220.62,-329.75"/>
<text xml:space="preserve" text-anchor="middle" x="180.75" y="-316.25" font-family="Helvetica,sans-Serif" font-size="10.00">display_error</text>
</a>
</g>
</g>
<!-- Node1&#45;&gt;Node2 -->
<g id="edge1_Node000001_Node000002" class="edge">
<title>Node1&#45;&gt;Node2</title>
<g id="a_edge1_Node000001_Node000002"><a xlink:title=" ">
<path fill="none" stroke="#63b8ff" d="M59.88,-137.03C80.24,-167.99 139.66,-258.38 166.41,-299.09"/>
<polygon fill="#63b8ff" stroke="#63b8ff" points="163.36,-300.82 171.78,-307.25 169.21,-296.98 163.36,-300.82"/>
</a>
</g>
</g>
<!-- Node8 -->
<g id="Node000008" class="node">
<title>Node8</title>
<g id="a_Node000008"><a xlink:href="../../d0/d59/futil_8c.html#aa0145c044cfdde3a1c83323410a59f25" target="_top" xlink:title="safer alternative to strncat">
<polygon fill="white" stroke="#666666" points="466,-616.75 400.5,-616.75 400.5,-596 466,-596 466,-616.75"/>
<text xml:space="preserve" text-anchor="middle" x="433.25" y="-603.25" font-family="Helvetica,sans-Serif" font-size="10.00">strnz__cat</text>
</a>
</g>
</g>
<!-- Node1&#45;&gt;Node8 -->
<g id="edge30_Node000001_Node000008" class="edge">
<title>Node1&#45;&gt;Node8</title>
<g id="a_edge30_Node000001_Node000008"><a xlink:title=" ">
<path fill="none" stroke="#63b8ff" d="M53.81,-137.06C57.97,-180.63 77.46,-348.17 139.75,-468.38 176.88,-540.02 184.45,-572.61 257.75,-606.38 299.21,-625.48 352.33,-622.09 389.01,-616.07"/>
<polygon fill="#63b8ff" stroke="#63b8ff" points="389.59,-619.52 398.81,-614.32 388.35,-612.63 389.59,-619.52"/>
</a>
</g>
</g>
<!-- Node12 -->
<g id="Node000012" class="node">
<title>Node12</title>
<g id="a_Node000012"><a xlink:href="../../d0/d59/futil_8c.html#a63eb94756fb011a456a3dec900709cd8" target="_top" xlink:title="ssnprintf was designed to be a safer alternative to snprintf.">
<polygon fill="white" stroke="#666666" points="462.62,-482.75 403.88,-482.75 403.88,-462 462.62,-462 462.62,-482.75"/>
<text xml:space="preserve" text-anchor="middle" x="433.25" y="-469.25" font-family="Helvetica,sans-Serif" font-size="10.00">ssnprintf</text>
</a>
</g>
</g>
<!-- Node1&#45;&gt;Node12 -->
<g id="edge27_Node000001_Node000012" class="edge">
<title>Node1&#45;&gt;Node12</title>
<g id="a_edge27_Node000001_Node000012"><a xlink:title=" ">
<path fill="none" stroke="#63b8ff" d="M54.12,-137.03C61.18,-191.88 101.59,-443.06 257.75,-530.38 293.92,-550.6 311.53,-543.02 351,-530.38 375.28,-522.6 398.49,-504.6 413.84,-490.7"/>
<polygon fill="#63b8ff" stroke="#63b8ff" points="415.93,-493.54 420.81,-484.14 411.13,-488.44 415.93,-493.54"/>
</a>
</g>
</g>
<!-- Node14 -->
<g id="Node000014" class="node">
<title>Node14</title>
<g id="a_Node000014"><a xlink:href="../../d0/d59/futil_8c.html#a0de2e40df9bd7efc8fd9afb8ad2257e6" target="_top" xlink:title="safer alternative to strncpy">
<polygon fill="white" stroke="#666666" points="467.12,-173.75 399.38,-173.75 399.38,-153 467.12,-153 467.12,-173.75"/>
<text xml:space="preserve" text-anchor="middle" x="433.25" y="-160.25" font-family="Helvetica,sans-Serif" font-size="10.00">strnz__cpy</text>
</a>
</g>
</g>
<!-- Node1&#45;&gt;Node14 -->
<g id="edge31_Node000001_Node000014" class="edge">
<title>Node1&#45;&gt;Node14</title>
<g id="a_edge31_Node000001_Node000014"><a xlink:title=" ">
<path fill="none" stroke="#63b8ff" d="M104.09,-130.51C163.53,-135.43 264.44,-144.13 351,-153.38 362.99,-154.66 375.97,-156.19 387.95,-157.66"/>
<polygon fill="#63b8ff" stroke="#63b8ff" points="387.21,-161.1 397.57,-158.86 388.08,-154.15 387.21,-161.1"/>
</a>
</g>
</g>
<!-- Node21 -->
<g id="Node000021" class="node">
<title>Node21</title>
<g id="a_Node000021"><a xlink:href="../../d4/dc1/src_2view__engine_8c.html#a395b27e6a9716bf49e3fc04d53987b33" target="_top" xlink:title="Get Next Line from File.">
<polygon fill="white" stroke="#666666" points="221.75,-98.75 139.75,-98.75 139.75,-78 221.75,-78 221.75,-98.75"/>
<text xml:space="preserve" text-anchor="middle" x="180.75" y="-85.25" font-family="Helvetica,sans-Serif" font-size="10.00">get_next_line</text>
</a>
</g>
</g>
<!-- Node1&#45;&gt;Node21 -->
<g id="edge26_Node000001_Node000021" class="edge">
<title>Node1&#45;&gt;Node21</title>
<g id="a_edge26_Node000001_Node000021"><a xlink:title=" ">
<path fill="none" stroke="#63b8ff" d="M88.89,-115.59C102.55,-111.5 118.32,-106.78 132.84,-102.43"/>
<polygon fill="#63b8ff" stroke="#63b8ff" points="133.62,-105.85 142.19,-99.62 131.61,-99.14 133.62,-105.85"/>
</a>
</g>
</g>
<!-- Node22 -->
<g id="Node000022" class="node">
<title>Node22</title>
<g id="a_Node000022"><a xlink:href="../../d0/d59/futil_8c.html#a82896df8e50776b7e7b0cede4e45b523" target="_top" xlink:title="Strips ANSI SGR escape sequences (ending in &#39;m&#39;) from string s to d.">
<polygon fill="white" stroke="#666666" points="212.38,-59.75 149.12,-59.75 149.12,-39 212.38,-39 212.38,-59.75"/>
<text xml:space="preserve" text-anchor="middle" x="180.75" y="-46.25" font-family="Helvetica,sans-Serif" font-size="10.00">strip_ansi</text>
</a>
</g>
</g>
<!-- Node1&#45;&gt;Node22 -->
<g id="edge28_Node000001_Node000022" class="edge">
<title>Node1&#45;&gt;Node22</title>
<g id="a_edge28_Node000001_Node000022"><a xlink:title=" ">
<path fill="none" stroke="#63b8ff" d="M68.22,-115.52C85.32,-103.61 113.95,-84.22 139.75,-69.38 142.08,-68.04 144.51,-66.69 146.97,-65.37"/>
<polygon fill="#63b8ff" stroke="#63b8ff" points="148.47,-68.54 155.74,-60.83 145.25,-62.32 148.47,-68.54"/>
</a>
</g>
</g>
<!-- Node23 -->
<g id="Node000023" class="node">
<title>Node23</title>
<g id="a_Node000023"><a xlink:href="../../d0/d59/futil_8c.html#ab6ae8b51eae6da91d345cd4018a20bfa" target="_top" xlink:title="terminates string with line feed">
<polygon fill="white" stroke="#666666" points="201.5,-20.75 160,-20.75 160,0 201.5,0 201.5,-20.75"/>
<text xml:space="preserve" text-anchor="middle" x="180.75" y="-7.25" font-family="Helvetica,sans-Serif" font-size="10.00">strnlf</text>
</a>
</g>
</g>
<!-- Node1&#45;&gt;Node23 -->
<g id="edge29_Node000001_Node000023" class="edge">
<title>Node1&#45;&gt;Node23</title>
<g id="a_edge29_Node000001_Node000023"><a xlink:title=" ">
<path fill="none" stroke="#63b8ff" d="M60.44,-115.67C74.36,-96.57 105.74,-56.2 139.75,-30.38 142.87,-28 146.32,-25.79 149.85,-23.76"/>
<polygon fill="#63b8ff" stroke="#63b8ff" points="151.19,-27.01 158.43,-19.27 147.95,-20.8 151.19,-27.01"/>
</a>
</g>
</g>
<!-- Node3 -->
<g id="Node000003" class="node">
<title>Node3</title>
<g id="a_Node000003"><a xlink:href="../../dc/d40/dwin_8c.html#a8f6c45ca4a7f6a41c4c88314e697565a" target="_top" xlink:title="Abnormal program termination.">
<polygon fill="white" stroke="#666666" points="456.25,-348.75 410.25,-348.75 410.25,-328 456.25,-328 456.25,-348.75"/>
<text xml:space="preserve" text-anchor="middle" x="433.25" y="-335.25" font-family="Helvetica,sans-Serif" font-size="10.00">abend</text>
</a>
</g>
</g>
<!-- Node2&#45;&gt;Node3 -->
<g id="edge2_Node000002_Node000003" class="edge">
<title>Node2&#45;&gt;Node3</title>
<g id="a_edge2_Node000002_Node000003"><a xlink:title=" ">
<path fill="none" stroke="#63b8ff" d="M217.36,-330.19C229.99,-333.52 244.39,-336.73 257.75,-338.38 306.51,-344.38 363.52,-342.78 398.76,-340.79"/>
<polygon fill="#63b8ff" stroke="#63b8ff" points="398.55,-344.31 408.32,-340.21 398.13,-337.33 398.55,-344.31"/>
</a>
</g>
</g>
<!-- Node7 -->
<g id="Node000007" class="node">
<title>Node7</title>
<g id="a_Node000007"><a xlink:href="../../dc/d40/dwin_8c.html#a645871e46277e31736bc36d0f3dce4bd" target="_top" xlink:title="construct the chyron string from the chyron structure">
<polygon fill="white" stroke="#666666" points="351,-597.75 257.75,-597.75 257.75,-577 351,-577 351,-597.75"/>
<text xml:space="preserve" text-anchor="middle" x="304.38" y="-584.25" font-family="Helvetica,sans-Serif" font-size="10.00">compile_chyron</text>
</a>
</g>
</g>
<!-- Node2&#45;&gt;Node7 -->
<g id="edge8_Node000002_Node000007" class="edge">
<title>Node2&#45;&gt;Node7</title>
<g id="a_edge8_Node000002_Node000007"><a xlink:title=" ">
<path fill="none" stroke="#63b8ff" d="M184.25,-330C192.01,-361.83 217.62,-458.69 257.75,-530.38 265.41,-544.06 276.33,-557.84 285.56,-568.41"/>
<polygon fill="#63b8ff" stroke="#63b8ff" points="282.81,-570.59 292.11,-575.68 288.01,-565.91 282.81,-570.59"/>
</a>
</g>
</g>
<!-- Node9 -->
<g id="Node000009" class="node">
<title>Node9</title>
<g id="a_Node000009"><a xlink:href="../../dc/d40/dwin_8c.html#a3f3feb40fd703913c5c136331f627c91" target="_top" xlink:title="Destroy Chyron structure.">
<polygon fill="white" stroke="#666666" points="349.88,-521.75 258.88,-521.75 258.88,-501 349.88,-501 349.88,-521.75"/>
<text xml:space="preserve" text-anchor="middle" x="304.38" y="-508.25" font-family="Helvetica,sans-Serif" font-size="10.00">destroy_chyron</text>
</a>
</g>
</g>
<!-- Node2&#45;&gt;Node9 -->
<g id="edge10_Node000002_Node000009" class="edge">
<title>Node2&#45;&gt;Node9</title>
<g id="a_edge10_Node000002_Node000009"><a xlink:title=" ">
<path fill="none" stroke="#63b8ff" d="M183.69,-330.19C189.55,-359.85 209.66,-443.43 257.75,-491.38 258.78,-492.41 259.88,-493.39 261.02,-494.32"/>
<polygon fill="#63b8ff" stroke="#63b8ff" points="259.02,-497.19 269.29,-499.77 262.87,-491.34 259.02,-497.19"/>
</a>
</g>
</g>
<!-- Node10 -->
<g id="Node000010" class="node">
<title>Node10</title>
<g id="a_Node000010"><a xlink:href="../../dc/d40/dwin_8c.html#ad37d5808ff30ae6894780425d865abae" target="_top" xlink:title="Create and initialize Chyron structure.">
<polygon fill="white" stroke="#666666" points="341.62,-329.75 267.12,-329.75 267.12,-309 341.62,-309 341.62,-329.75"/>
<text xml:space="preserve" text-anchor="middle" x="304.38" y="-316.25" font-family="Helvetica,sans-Serif" font-size="10.00">new_chyron</text>
</a>
</g>
</g>
<!-- Node2&#45;&gt;Node10 -->
<g id="edge11_Node000002_Node000010" class="edge">
<title>Node2&#45;&gt;Node10</title>
<g id="a_edge11_Node000002_Node000010"><a xlink:title=" ">
<path fill="none" stroke="#63b8ff" d="M220.9,-319.38C231.94,-319.38 244.08,-319.38 255.57,-319.38"/>
<polygon fill="#63b8ff" stroke="#63b8ff" points="255.26,-322.88 265.26,-319.38 255.26,-315.88 255.26,-322.88"/>
</a>
</g>
</g>
<!-- Node11 -->
<g id="Node000011" class="node">
<title>Node11</title>
<g id="a_Node000011"><a xlink:href="../../dc/d40/dwin_8c.html#a208ce92c197fdd6d2b007987e534aa3b" target="_top" xlink:title="Set chyron key.">
<polygon fill="white" stroke="#666666" points="350.25,-482.75 258.5,-482.75 258.5,-462 350.25,-462 350.25,-482.75"/>
<text xml:space="preserve" text-anchor="middle" x="304.38" y="-469.25" font-family="Helvetica,sans-Serif" font-size="10.00">set_chyron_key</text>
</a>
</g>
</g>
<!-- Node2&#45;&gt;Node11 -->
<g id="edge13_Node000002_Node000011" class="edge">
<title>Node2&#45;&gt;Node11</title>
<g id="a_edge13_Node000002_Node000011"><a xlink:title=" ">
<path fill="none" stroke="#63b8ff" d="M185.26,-330.2C193.82,-355.03 218,-416.63 257.75,-452.38 259,-453.5 260.31,-454.56 261.69,-455.57"/>
<polygon fill="#63b8ff" stroke="#63b8ff" points="259.71,-458.46 270.06,-460.71 263.37,-452.5 259.71,-458.46"/>
</a>
</g>
</g>
<!-- Node2&#45;&gt;Node12 -->
<g id="edge15_Node000002_Node000012" class="edge">
<title>Node2&#45;&gt;Node12</title>
<g id="a_edge15_Node000002_Node000012"><a xlink:title=" ">
<path fill="none" stroke="#63b8ff" d="M202.76,-330.22C235.17,-347.17 299.09,-381.41 351,-414.38 371.11,-427.15 393.05,-442.93 409.06,-454.8"/>
<polygon fill="#63b8ff" stroke="#63b8ff" points="406.87,-457.54 416.98,-460.72 411.07,-451.93 406.87,-457.54"/>
</a>
</g>
</g>
<!-- Node13 -->
<g id="Node000013" class="node">
<title>Node13</title>
<g id="a_Node000013"><a xlink:href="../../d0/d59/futil_8c.html#a636608f26d1193b5d860f2312cd8ee49" target="_top" xlink:title="terminates string at New Line, Carriage Return, or max_len">
<polygon fill="white" stroke="#666666" points="324.38,-443.75 284.38,-443.75 284.38,-423 324.38,-423 324.38,-443.75"/>
<text xml:space="preserve" text-anchor="middle" x="304.38" y="-430.25" font-family="Helvetica,sans-Serif" font-size="10.00">strnz</text>
</a>
</g>
</g>
<!-- Node2&#45;&gt;Node13 -->
<g id="edge16_Node000002_Node000013" class="edge">
<title>Node2&#45;&gt;Node13</title>
<g id="a_edge16_Node000002_Node000013"><a xlink:title=" ">
<path fill="none" stroke="#63b8ff" d="M188.84,-330.24C201.13,-348.44 227.94,-385.42 257.75,-409.38 262.72,-413.37 268.46,-417 274.15,-420.16"/>
<polygon fill="#63b8ff" stroke="#63b8ff" points="272.34,-423.16 282.83,-424.62 275.54,-416.94 272.34,-423.16"/>
</a>
</g>
</g>
<!-- Node2&#45;&gt;Node14 -->
<g id="edge17_Node000002_Node000014" class="edge">
<title>Node2&#45;&gt;Node14</title>
<g id="a_edge17_Node000002_Node000014"><a xlink:title=" ">
<path fill="none" stroke="#63b8ff" d="M184.2,-308.61C190.83,-282.16 211.83,-213.97 257.75,-183.38 296.16,-157.79 350.14,-155.46 387.86,-157.84"/>
<polygon fill="#63b8ff" stroke="#63b8ff" points="387.26,-161.3 397.5,-158.59 387.8,-154.33 387.26,-161.3"/>
</a>
</g>
</g>
<!-- Node15 -->
<g id="Node000015" class="node">
<title>Node15</title>
<g id="a_Node000015"><a xlink:href="../../dc/d40/dwin_8c.html#a9dd598e1d49c8764af1eec42c682623e" target="_top" xlink:title="Delete the current window and its associated box window.">
<polygon fill="white" stroke="#666666" points="331.12,-251.75 277.62,-251.75 277.62,-231 331.12,-231 331.12,-251.75"/>
<text xml:space="preserve" text-anchor="middle" x="304.38" y="-238.25" font-family="Helvetica,sans-Serif" font-size="10.00">win_del</text>
</a>
</g>
</g>
<!-- Node2&#45;&gt;Node15 -->
<g id="edge18_Node000002_Node000015" class="edge">
<title>Node2&#45;&gt;Node15</title>
<g id="a_edge18_Node000002_Node000015"><a xlink:title=" ">
<path fill="none" stroke="#63b8ff" d="M194,-308.54C208.5,-296.09 233.73,-275.53 257.75,-261.38 260.71,-259.63 263.85,-257.95 267.04,-256.35"/>
<polygon fill="#63b8ff" stroke="#63b8ff" points="268.33,-259.61 275.89,-252.19 265.35,-253.27 268.33,-259.61"/>
</a>
</g>
</g>
<!-- Node16 -->
<g id="Node000016" class="node">
<title>Node16</title>
<g id="a_Node000016"><a xlink:href="../../dc/d40/dwin_8c.html#a435c7bff7ffedb8f51c6de9259e36f6c" target="_top" xlink:title="Create a new window with optional box and title.">
<polygon fill="white" stroke="#666666" points="333.75,-212.75 275,-212.75 275,-192 333.75,-192 333.75,-212.75"/>
<text xml:space="preserve" text-anchor="middle" x="304.38" y="-199.25" font-family="Helvetica,sans-Serif" font-size="10.00">win_new</text>
</a>
</g>
</g>
<!-- Node2&#45;&gt;Node16 -->
<g id="edge19_Node000002_Node000016" class="edge">
<title>Node2&#45;&gt;Node16</title>
<g id="a_edge19_Node000002_Node000016"><a xlink:title=" ">
<path fill="none" stroke="#63b8ff" d="M187.72,-308.63C199.05,-289.09 225.46,-247.42 257.75,-222.38 259.88,-220.72 262.18,-219.17 264.55,-217.73"/>
<polygon fill="#63b8ff" stroke="#63b8ff" points="266.11,-220.86 273.31,-213.09 262.84,-214.68 266.11,-220.86"/>
</a>
</g>
</g>
<!-- Node18 -->
<g id="Node000018" class="node">
<title>Node18</title>
<g id="a_Node000018"><a xlink:href="../../dc/d40/dwin_8c.html#acf4c709bccc4c965a5d61db978db31a3" target="_top" xlink:title="Wrapper for wgetch that handles signals and mouse events.">
<polygon fill="white" stroke="#666666" points="333,-290.75 275.75,-290.75 275.75,-270 333,-270 333,-290.75"/>
<text xml:space="preserve" text-anchor="middle" x="304.38" y="-277.25" font-family="Helvetica,sans-Serif" font-size="10.00">xwgetch</text>
</a>
</g>
</g>
<!-- Node2&#45;&gt;Node18 -->
<g id="edge22_Node000002_Node000018" class="edge">
<title>Node2&#45;&gt;Node18</title>
<g id="a_edge22_Node000002_Node000018"><a xlink:title=" ">
<path fill="none" stroke="#63b8ff" d="M199.96,-308.55C217,-301.34 243.01,-292.55 264.69,-286.44"/>
<polygon fill="#63b8ff" stroke="#63b8ff" points="265.35,-289.89 274.09,-283.91 263.53,-283.13 265.35,-289.89"/>
</a>
</g>
</g>
<!-- Node4 -->
<g id="Node000004" class="node">
<title>Node4</title>
<g id="a_Node000004"><a xlink:href="../../dc/d40/dwin_8c.html#afc0985a403e3eac0b2cd8f0fab500256" target="_top" xlink:title="Gracefully shut down NCurses and restore terminal settings.">
<polygon fill="white" stroke="#666666" points="605,-348.75 515.5,-348.75 515.5,-328 605,-328 605,-348.75"/>
<text xml:space="preserve" text-anchor="middle" x="560.25" y="-335.25" font-family="Helvetica,sans-Serif" font-size="10.00">destroy_curses</text>
</a>
</g>
</g>
<!-- Node3&#45;&gt;Node4 -->
<g id="edge3_Node000003_Node000004" class="edge">
<title>Node3&#45;&gt;Node4</title>
<g id="a_edge3_Node000003_Node000004"><a xlink:title=" ">
<path fill="none" stroke="#63b8ff" d="M456.6,-338.38C469.78,-338.38 487.09,-338.38 503.73,-338.38"/>
<polygon fill="#63b8ff" stroke="#63b8ff" points="503.57,-341.88 513.57,-338.38 503.57,-334.88 503.57,-341.88"/>
</a>
</g>
</g>
<!-- Node5 -->
<g id="Node000005" class="node">
<title>Node5</title>
<g id="a_Node000005"><a xlink:href="../../d7/d72/scriou_8c.html#ac5e3adb304b78910fc77761ef6a743f0" target="_top" xlink:title="restore_shell_tioctl() &#45; restore shell terminal settings">
<polygon fill="white" stroke="#666666" points="750,-376.75 641,-376.75 641,-356 750,-356 750,-376.75"/>
<text xml:space="preserve" text-anchor="middle" x="695.5" y="-363.25" font-family="Helvetica,sans-Serif" font-size="10.00">restore_shell_tioctl</text>
</a>
</g>
</g>
<!-- Node3&#45;&gt;Node5 -->
<g id="edge6_Node000003_Node000005" class="edge">
<title>Node3&#45;&gt;Node5</title>
<g id="a_edge6_Node000003_Node000005"><a xlink:title=" ">
<path fill="none" stroke="#63b8ff" d="M456.46,-344.71C472.68,-349.05 495.27,-354.53 515.5,-357.38 553.01,-362.66 595.32,-364.95 629.39,-365.91"/>
<polygon fill="#63b8ff" stroke="#63b8ff" points="629.01,-369.4 639.09,-366.14 629.18,-362.4 629.01,-369.4"/>
</a>
</g>
</g>
<!-- Node6 -->
<g id="Node000006" class="node">
<title>Node6</title>
<g id="a_Node000006"><a xlink:href="../../da/d12/sig_8c.html#a06c1eb6cf3649dc187115565409f91af" target="_top" xlink:title="Set signal handlers to default behavior.">
<polygon fill="white" stroke="#666666" points="736.12,-328.75 654.88,-328.75 654.88,-308 736.12,-308 736.12,-328.75"/>
<text xml:space="preserve" text-anchor="middle" x="695.5" y="-315.25" font-family="Helvetica,sans-Serif" font-size="10.00">sig_dfl_mode</text>
</a>
</g>
</g>
<!-- Node3&#45;&gt;Node6 -->
<g id="edge7_Node000003_Node000006" class="edge">
<title>Node3&#45;&gt;Node6</title>
<g id="a_edge7_Node000003_Node000006"><a xlink:title=" ">
<path fill="none" stroke="#63b8ff" d="M456.43,-331.77C472.63,-327.29 495.22,-321.77 515.5,-319.38 558.39,-314.31 607.46,-314.45 643.36,-315.63"/>
<polygon fill="#63b8ff" stroke="#63b8ff" points="642.89,-319.12 653.02,-315.99 643.15,-312.12 642.89,-319.12"/>
</a>
</g>
</g>
<!-- Node4&#45;&gt;Node5 -->
<g id="edge4_Node000004_Node000005" class="edge">
<title>Node4&#45;&gt;Node5</title>
<g id="a_edge4_Node000004_Node000005"><a xlink:title=" ">
<path fill="none" stroke="#63b8ff" d="M605.25,-347.62C613.87,-349.43 623.07,-351.37 632.16,-353.28"/>
<polygon fill="#63b8ff" stroke="#63b8ff" points="631.16,-356.64 641.67,-355.27 632.6,-349.79 631.16,-356.64"/>
</a>
</g>
</g>
<!-- Node4&#45;&gt;Node6 -->
<g id="edge5_Node000004_Node000006" class="edge">
<title>Node4&#45;&gt;Node6</title>
<g id="a_edge5_Node000004_Node000006"><a xlink:title=" ">
<path fill="none" stroke="#63b8ff" d="M605.25,-331.77C617.44,-329.94 630.77,-327.94 643.33,-326.06"/>
<polygon fill="#63b8ff" stroke="#63b8ff" points="643.73,-329.54 653.1,-324.59 642.69,-322.61 643.73,-329.54"/>
</a>
</g>
</g>
<!-- Node7&#45;&gt;Node8 -->
<g id="edge9_Node000007_Node000008" class="edge">
<title>Node7&#45;&gt;Node8</title>
<g id="a_edge9_Node000007_Node000008"><a xlink:title=" ">
<path fill="none" stroke="#63b8ff" d="M351.18,-594.23C363.44,-596.07 376.66,-598.05 388.8,-599.87"/>
<polygon fill="#63b8ff" stroke="#63b8ff" points="388.12,-603.31 398.53,-601.33 389.16,-596.38 388.12,-603.31"/>
</a>
</g>
</g>
<!-- Node10&#45;&gt;Node3 -->
<g id="edge12_Node000010_Node000003" class="edge">
<title>Node10&#45;&gt;Node3</title>
<g id="a_edge12_Node000010_Node000003"><a xlink:title=" ">
<path fill="none" stroke="#63b8ff" d="M342.07,-324.87C359.91,-327.54 381.2,-330.73 398.62,-333.34"/>
<polygon fill="#63b8ff" stroke="#63b8ff" points="398.06,-336.79 408.47,-334.81 399.1,-329.87 398.06,-336.79"/>
</a>
</g>
</g>
<!-- Node11&#45;&gt;Node12 -->
<g id="edge14_Node000011_Node000012" class="edge">
<title>Node11&#45;&gt;Node12</title>
<g id="a_edge14_Node000011_Node000012"><a xlink:title=" ">
<path fill="none" stroke="#63b8ff" d="M350.46,-472.38C364.13,-472.38 379.03,-472.38 392.33,-472.38"/>
<polygon fill="#63b8ff" stroke="#63b8ff" points="392.02,-475.88 402.02,-472.38 392.02,-468.88 392.02,-475.88"/>
</a>
</g>
</g>
<!-- Node16&#45;&gt;Node14 -->
<g id="edge21_Node000016_Node000014" class="edge">
<title>Node16&#45;&gt;Node14</title>
<g id="a_edge21_Node000016_Node000014"><a xlink:title=" ">
<path fill="none" stroke="#63b8ff" d="M334.16,-193.53C350.15,-188.61 370.37,-182.4 388.29,-176.89"/>
<polygon fill="#63b8ff" stroke="#63b8ff" points="389.11,-180.3 397.64,-174.01 387.06,-173.61 389.11,-180.3"/>
</a>
</g>
</g>
<!-- Node17 -->
<g id="Node000017" class="node">
<title>Node17</title>
<g id="a_Node000017"><a xlink:href="../../dc/d40/dwin_8c.html#ac9adcf7339be4a05ab1a7350c236b8a5" target="_top" xlink:title="Draw a box around the specified window.">
<polygon fill="white" stroke="#666666" points="452.88,-212.75 413.62,-212.75 413.62,-192 452.88,-192 452.88,-212.75"/>
<text xml:space="preserve" text-anchor="middle" x="433.25" y="-199.25" font-family="Helvetica,sans-Serif" font-size="10.00">cbox</text>
</a>
</g>
</g>
<!-- Node16&#45;&gt;Node17 -->
<g id="edge20_Node000016_Node000017" class="edge">
<title>Node16&#45;&gt;Node17</title>
<g id="a_edge20_Node000016_Node000017"><a xlink:title=" ">
<path fill="none" stroke="#63b8ff" d="M334.16,-202.38C354.46,-202.38 381.57,-202.38 402.15,-202.38"/>
<polygon fill="#63b8ff" stroke="#63b8ff" points="401.89,-205.88 411.89,-202.38 401.89,-198.88 401.89,-205.88"/>
</a>
</g>
</g>
<!-- Node18&#45;&gt;Node2 -->
<g id="edge23_Node000018_Node000002" class="edge">
<title>Node18&#45;&gt;Node2</title>
<g id="a_edge23_Node000018_Node000002"><a xlink:title=" ">
<path fill="none" stroke="#63b8ff" d="M285.05,-291.25C270.9,-297.23 250.62,-304.28 231.78,-309.99"/>
<polygon fill="#63b8ff" stroke="#63b8ff" points="230.97,-306.58 222.35,-312.75 232.94,-313.3 230.97,-306.58"/>
</a>
</g>
</g>
<!-- Node19 -->
<g id="Node000019" class="node">
<title>Node19</title>
<g id="a_Node000019"><a xlink:href="../../dc/d40/dwin_8c.html#a4298f891699300bfc4e6e56fd2a8d574" target="_top" xlink:title="Get keycode from chyron.">
<polygon fill="white" stroke="#666666" points="479.5,-290.75 387,-290.75 387,-270 479.5,-270 479.5,-290.75"/>
<text xml:space="preserve" text-anchor="middle" x="433.25" y="-277.25" font-family="Helvetica,sans-Serif" font-size="10.00">get_chyron_key</text>
</a>
</g>
</g>
<!-- Node18&#45;&gt;Node19 -->
<g id="edge24_Node000018_Node000019" class="edge">
<title>Node18&#45;&gt;Node19</title>
<g id="a_edge24_Node000018_Node000019"><a xlink:title=" ">
<path fill="none" stroke="#63b8ff" d="M333.22,-280.38C345.54,-280.38 360.5,-280.38 375.03,-280.38"/>
<polygon fill="#63b8ff" stroke="#63b8ff" points="375.01,-283.88 385.01,-280.38 375.01,-276.88 375.01,-283.88"/>
</a>
</g>
</g>
<!-- Node20 -->
<g id="Node000020" class="node">
<title>Node20</title>
<g id="a_Node000020"><a xlink:href="../../d0/d6b/cm_8h.html#a0667873879b5846c3fe2fa2cc96059d6" target="_top" xlink:title=" ">
<polygon fill="white" stroke="#666666" points="475,-251.75 391.5,-251.75 391.5,-231 475,-231 475,-251.75"/>
<text xml:space="preserve" text-anchor="middle" x="433.25" y="-238.25" font-family="Helvetica,sans-Serif" font-size="10.00">handle_signal</text>
</a>
</g>
</g>
<!-- Node18&#45;&gt;Node20 -->
<g id="edge25_Node000018_Node000020" class="edge">
<title>Node18&#45;&gt;Node20</title>
<g id="a_edge25_Node000018_Node000020"><a xlink:title=" ">
<path fill="none" stroke="#63b8ff" d="M333.22,-271.82C348.8,-267.03 368.63,-260.93 386.44,-255.46"/>
<polygon fill="#63b8ff" stroke="#63b8ff" points="387.23,-258.87 395.76,-252.59 385.18,-252.18 387.23,-258.87"/>
</a>
</g>
</g>
</g>
</svg>
