<?xml version="1.0" encoding="UTF-8" standalone="no"?>
<!DOCTYPE svg PUBLIC "-//W3C//DTD SVG 1.1//EN"
 "http://www.w3.org/Graphics/SVG/1.1/DTD/svg11.dtd">
<!-- Generated by graphviz version 14.1.2 (0)
 -->
<!-- Title: go_to_line Pages: 1 -->
<svg width="1366pt" height="665pt"
 viewBox="0.00 0.00 1366.00 665.00" xmlns="http://www.w3.org/2000/svg" xmlns:xlink="http://www.w3.org/1999/xlink">
<g id="graph0" class="graph" transform="scale(1 1) rotate(0) translate(4 661.39)">
<title>go_to_line</title>
<!-- Node1 -->
<g id="Node000001" class="node">
<title>Node1</title>
<g id="a_Node000001"><a xlink:title="Go to Specific Line.">
<polygon fill="#999999" stroke="#666666" points="66.25,-336.75 0,-336.75 0,-316 66.25,-316 66.25,-336.75"/>
<text xml:space="preserve" text-anchor="middle" x="33.12" y="-323.25" font-family="Helvetica,sans-Serif" font-size="10.00">go_to_line</text>
</a>
</g>
</g>
<!-- Node2 -->
<g id="Node000002" class="node">
<title>Node2</title>
<g id="a_Node000002"><a xlink:href="../../d4/dc1/src_2view__engine_8c.html#a5f74dca8730faaa3ff362fc1e01b12ce" target="_top" xlink:title="Go to Specific File Position.">
<polygon fill="white" stroke="#666666" points="189.5,-336.75 102.25,-336.75 102.25,-316 189.5,-316 189.5,-336.75"/>
<text xml:space="preserve" text-anchor="middle" x="145.88" y="-323.25" font-family="Helvetica,sans-Serif" font-size="10.00">go_to_position</text>
</a>
</g>
</g>
<!-- Node1&#45;&gt;Node2 -->
<g id="edge1_Node000001_Node000002" class="edge">
<title>Node1&#45;&gt;Node2</title>
<g id="a_edge1_Node000001_Node000002"><a xlink:title=" ">
<path fill="none" stroke="#63b8ff" d="M66.46,-326.38C74.09,-326.38 82.44,-326.38 90.76,-326.38"/>
<polygon fill="#63b8ff" stroke="#63b8ff" points="90.48,-329.88 100.48,-326.38 90.48,-322.88 90.48,-329.88"/>
</a>
</g>
</g>
<!-- Node5 -->
<g id="Node000005" class="node">
<title>Node5</title>
<g id="a_Node000005"><a xlink:href="../../dc/d40/dwin_8c.html#a61b4f28456257f68ed042bed7f187efd" target="_top" xlink:title="Display a simple error message window or print to stderr.">
<polygon fill="white" stroke="#666666" points="549.88,-384.75 504.62,-384.75 504.62,-364 549.88,-364 549.88,-384.75"/>
<text xml:space="preserve" text-anchor="middle" x="527.25" y="-371.25" font-family="Helvetica,sans-Serif" font-size="10.00">Perror</text>
</a>
</g>
</g>
<!-- Node1&#45;&gt;Node5 -->
<g id="edge50_Node000001_Node000005" class="edge">
<title>Node1&#45;&gt;Node5</title>
<g id="a_edge50_Node000001_Node000005"><a xlink:title=" ">
<path fill="none" stroke="#63b8ff" d="M66.74,-336.92C77.89,-340.14 90.51,-343.36 102.25,-345.38 246.26,-370.12 421.21,-373.93 493.04,-374.39"/>
<polygon fill="#63b8ff" stroke="#63b8ff" points="492.91,-377.89 502.93,-374.44 492.95,-370.89 492.91,-377.89"/>
</a>
</g>
</g>
<!-- Node34 -->
<g id="Node000034" class="node">
<title>Node34</title>
<g id="a_Node000034"><a xlink:href="../../d4/dc1/src_2view__engine_8c.html#a5dbc34981815690a92812e34d1cf478f" target="_top" xlink:title="display previous page">
<polygon fill="white" stroke="#666666" points="179.38,-297.75 112.38,-297.75 112.38,-277 179.38,-277 179.38,-297.75"/>
<text xml:space="preserve" text-anchor="middle" x="145.88" y="-284.25" font-family="Helvetica,sans-Serif" font-size="10.00">prev_page</text>
</a>
</g>
</g>
<!-- Node1&#45;&gt;Node34 -->
<g id="edge51_Node000001_Node000034" class="edge">
<title>Node1&#45;&gt;Node34</title>
<g id="a_edge51_Node000001_Node000034"><a xlink:title=" ">
<path fill="none" stroke="#63b8ff" d="M64.98,-315.51C76.86,-311.33 90.62,-306.48 103.35,-302"/>
<polygon fill="#63b8ff" stroke="#63b8ff" points="104.49,-305.31 112.76,-298.68 102.17,-298.7 104.49,-305.31"/>
</a>
</g>
</g>
<!-- Node3 -->
<g id="Node000003" class="node">
<title>Node3</title>
<g id="a_Node000003"><a xlink:href="../../d4/dc1/src_2view__engine_8c.html#acf1bfbd6d2fd4ad9a0385009ef25015c" target="_top" xlink:title="Advance to Next Page.">
<polygon fill="white" stroke="#666666" points="311.25,-317.75 244.25,-317.75 244.25,-297 311.25,-297 311.25,-317.75"/>
<text xml:space="preserve" text-anchor="middle" x="277.75" y="-304.25" font-family="Helvetica,sans-Serif" font-size="10.00">next_page</text>
</a>
</g>
</g>
<!-- Node2&#45;&gt;Node3 -->
<g id="edge2_Node000002_Node000003" class="edge">
<title>Node2&#45;&gt;Node3</title>
<g id="a_edge2_Node000002_Node000003"><a xlink:title=" ">
<path fill="none" stroke="#63b8ff" d="M189.76,-320.1C203.5,-318.09 218.73,-315.86 232.56,-313.84"/>
<polygon fill="#63b8ff" stroke="#63b8ff" points="232.9,-317.33 242.29,-312.42 231.89,-310.4 232.9,-317.33"/>
</a>
</g>
</g>
<!-- Node4 -->
<g id="Node000004" class="node">
<title>Node4</title>
<g id="a_Node000004"><a xlink:href="../../d4/dc1/src_2view__engine_8c.html#a16a4b855ead8402d4744e77a5504082a" target="_top" xlink:title="Display Line on Pad.">
<polygon fill="white" stroke="#666666" points="444.25,-307.75 369.75,-307.75 369.75,-287 444.25,-287 444.25,-307.75"/>
<text xml:space="preserve" text-anchor="middle" x="407" y="-294.25" font-family="Helvetica,sans-Serif" font-size="10.00">display_line</text>
</a>
</g>
</g>
<!-- Node3&#45;&gt;Node4 -->
<g id="edge3_Node000003_Node000004" class="edge">
<title>Node3&#45;&gt;Node4</title>
<g id="a_edge3_Node000003_Node000004"><a xlink:title=" ">
<path fill="none" stroke="#63b8ff" d="M311.52,-304.8C325.74,-303.68 342.68,-302.35 358.26,-301.13"/>
<polygon fill="#63b8ff" stroke="#63b8ff" points="358.1,-304.65 367.79,-300.38 357.55,-297.67 358.1,-304.65"/>
</a>
</g>
</g>
<!-- Node25 -->
<g id="Node000025" class="node">
<title>Node25</title>
<g id="a_Node000025"><a xlink:href="../../d4/dc1/src_2view__engine_8c.html#a747411d59b020ad11d4567ab0b3db8c2" target="_top" xlink:title="Format Line for Display.">
<polygon fill="white" stroke="#666666" points="435.25,-212.75 378.75,-212.75 378.75,-192 435.25,-192 435.25,-212.75"/>
<text xml:space="preserve" text-anchor="middle" x="407" y="-199.25" font-family="Helvetica,sans-Serif" font-size="10.00">fmt_line</text>
</a>
</g>
</g>
<!-- Node3&#45;&gt;Node25 -->
<g id="edge39_Node000003_Node000025" class="edge">
<title>Node3&#45;&gt;Node25</title>
<g id="a_edge39_Node000003_Node000025"><a xlink:title=" ">
<path fill="none" stroke="#63b8ff" d="M311.63,-297.19C318.01,-294.5 324.43,-291.24 330,-287.38 355.78,-269.49 378.77,-241.16 392.55,-222.18"/>
<polygon fill="#63b8ff" stroke="#63b8ff" points="395.27,-224.4 398.17,-214.21 389.55,-220.36 395.27,-224.4"/>
</a>
</g>
</g>
<!-- Node33 -->
<g id="Node000033" class="node">
<title>Node33</title>
<g id="a_Node000033"><a xlink:href="../../d4/dc1/src_2view__engine_8c.html#a395b27e6a9716bf49e3fc04d53987b33" target="_top" xlink:title="Get Next Line from File.">
<polygon fill="white" stroke="#666666" points="448,-346.75 366,-346.75 366,-326 448,-326 448,-346.75"/>
<text xml:space="preserve" text-anchor="middle" x="407" y="-333.25" font-family="Helvetica,sans-Serif" font-size="10.00">get_next_line</text>
</a>
</g>
</g>
<!-- Node3&#45;&gt;Node33 -->
<g id="edge49_Node000003_Node000033" class="edge">
<title>Node3&#45;&gt;Node33</title>
<g id="a_edge49_Node000003_Node000033"><a xlink:title=" ">
<path fill="none" stroke="#63b8ff" d="M311.52,-314.84C324.66,-317.84 340.13,-321.36 354.69,-324.68"/>
<polygon fill="#63b8ff" stroke="#63b8ff" points="353.6,-328.02 364.13,-326.83 355.16,-321.2 353.6,-328.02"/>
</a>
</g>
</g>
<!-- Node4&#45;&gt;Node5 -->
<g id="edge4_Node000004_Node000005" class="edge">
<title>Node4&#45;&gt;Node5</title>
<g id="a_edge4_Node000004_Node000005"><a xlink:title=" ">
<path fill="none" stroke="#63b8ff" d="M431.2,-308.16C436.8,-310.98 442.69,-314.15 448,-317.38 467.74,-329.38 488.84,-344.93 504.15,-356.76"/>
<polygon fill="#63b8ff" stroke="#63b8ff" points="501.65,-359.24 511.68,-362.64 505.96,-353.72 501.65,-359.24"/>
</a>
</g>
</g>
<!-- Node6 -->
<g id="Node000006" class="node">
<title>Node6</title>
<g id="a_Node000006"><a xlink:href="../../dc/d40/dwin_8c.html#a8f6c45ca4a7f6a41c4c88314e697565a" target="_top" xlink:title="Abnormal program termination.">
<polygon fill="white" stroke="#666666" points="1076.62,-443.75 1030.62,-443.75 1030.62,-423 1076.62,-423 1076.62,-443.75"/>
<text xml:space="preserve" text-anchor="middle" x="1053.62" y="-430.25" font-family="Helvetica,sans-Serif" font-size="10.00">abend</text>
</a>
</g>
</g>
<!-- Node5&#45;&gt;Node6 -->
<g id="edge5_Node000005_Node000006" class="edge">
<title>Node5&#45;&gt;Node6</title>
<g id="a_edge5_Node000005_Node000006"><a xlink:title=" ">
<path fill="none" stroke="#63b8ff" d="M533.45,-385.09C544.09,-405.82 570.43,-451.4 606.5,-474.38 714.87,-543.4 762.33,-519.44 890.5,-528.38 931.84,-531.26 946.83,-547.21 983.75,-528.38 1013.87,-513.01 1033.88,-477.64 1044.23,-454.66"/>
<polygon fill="#63b8ff" stroke="#63b8ff" points="1047.38,-456.2 1048.07,-445.63 1040.94,-453.47 1047.38,-456.2"/>
</a>
</g>
</g>
<!-- Node10 -->
<g id="Node000010" class="node">
<title>Node10</title>
<g id="a_Node000010"><a xlink:href="../../dc/d40/dwin_8c.html#a645871e46277e31736bc36d0f3dce4bd" target="_top" xlink:title="construct the chyron string from the chyron structure">
<polygon fill="white" stroke="#666666" points="983.75,-328.75 890.5,-328.75 890.5,-308 983.75,-308 983.75,-328.75"/>
<text xml:space="preserve" text-anchor="middle" x="937.12" y="-315.25" font-family="Helvetica,sans-Serif" font-size="10.00">compile_chyron</text>
</a>
</g>
</g>
<!-- Node5&#45;&gt;Node10 -->
<g id="edge11_Node000005_Node000010" class="edge">
<title>Node5&#45;&gt;Node10</title>
<g id="a_edge11_Node000005_Node000010"><a xlink:title=" ">
<path fill="none" stroke="#63b8ff" d="M550.36,-368.28C565.96,-364.15 587.38,-358.85 606.5,-355.38 701.24,-338.15 812.84,-327.64 878.86,-322.42"/>
<polygon fill="#63b8ff" stroke="#63b8ff" points="879.04,-325.92 888.74,-321.66 878.5,-318.94 879.04,-325.92"/>
</a>
</g>
</g>
<!-- Node12 -->
<g id="Node000012" class="node">
<title>Node12</title>
<g id="a_Node000012"><a xlink:href="../../dc/d40/dwin_8c.html#a3f3feb40fd703913c5c136331f627c91" target="_top" xlink:title="Destroy Chyron structure.">
<polygon fill="white" stroke="#666666" points="982.62,-252.75 891.62,-252.75 891.62,-232 982.62,-232 982.62,-252.75"/>
<text xml:space="preserve" text-anchor="middle" x="937.12" y="-239.25" font-family="Helvetica,sans-Serif" font-size="10.00">destroy_chyron</text>
</a>
</g>
</g>
<!-- Node5&#45;&gt;Node12 -->
<g id="edge13_Node000005_Node000012" class="edge">
<title>Node5&#45;&gt;Node12</title>
<g id="a_edge13_Node000005_Node000012"><a xlink:title=" ">
<path fill="none" stroke="#63b8ff" d="M546.74,-363.59C562.29,-354.84 585.32,-342.65 606.5,-334.38 700.01,-297.85 813.69,-269.46 880.17,-254.38"/>
<polygon fill="#63b8ff" stroke="#63b8ff" points="880.75,-257.83 889.74,-252.23 879.22,-251.01 880.75,-257.83"/>
</a>
</g>
</g>
<!-- Node13 -->
<g id="Node000013" class="node">
<title>Node13</title>
<g id="a_Node000013"><a xlink:href="../../dc/d40/dwin_8c.html#ad37d5808ff30ae6894780425d865abae" target="_top" xlink:title="Create and initialize Chyron structure.">
<polygon fill="white" stroke="#666666" points="974.38,-443.75 899.88,-443.75 899.88,-423 974.38,-423 974.38,-443.75"/>
<text xml:space="preserve" text-anchor="middle" x="937.12" y="-430.25" font-family="Helvetica,sans-Serif" font-size="10.00">new_chyron</text>
</a>
</g>
</g>
<!-- Node5&#45;&gt;Node13 -->
<g id="edge14_Node000005_Node000013" class="edge">
<title>Node5&#45;&gt;Node13</title>
<g id="a_edge14_Node000005_Node000013"><a xlink:title=" ">
<path fill="none" stroke="#63b8ff" d="M550.21,-384.37C590.92,-402.3 681.34,-439.27 762,-452.38 802.58,-458.97 813.66,-457.07 854.5,-452.38 865.55,-451.11 877.28,-448.9 888.3,-446.43"/>
<polygon fill="#63b8ff" stroke="#63b8ff" points="889.06,-449.85 897.99,-444.14 887.45,-443.03 889.06,-449.85"/>
</a>
</g>
</g>
<!-- Node14 -->
<g id="Node000014" class="node">
<title>Node14</title>
<g id="a_Node000014"><a xlink:href="../../dc/d40/dwin_8c.html#a208ce92c197fdd6d2b007987e534aa3b" target="_top" xlink:title="Set chyron key.">
<polygon fill="white" stroke="#666666" points="983,-213.75 891.25,-213.75 891.25,-193 983,-193 983,-213.75"/>
<text xml:space="preserve" text-anchor="middle" x="937.12" y="-200.25" font-family="Helvetica,sans-Serif" font-size="10.00">set_chyron_key</text>
</a>
</g>
</g>
<!-- Node5&#45;&gt;Node14 -->
<g id="edge16_Node000005_Node000014" class="edge">
<title>Node5&#45;&gt;Node14</title>
<g id="a_edge16_Node000005_Node000014"><a xlink:title=" ">
<path fill="none" stroke="#63b8ff" d="M535.31,-363.67C547.6,-345.89 574.7,-310.35 606.5,-291.38 693.29,-239.6 810.82,-217.75 879.56,-208.93"/>
<polygon fill="#63b8ff" stroke="#63b8ff" points="879.98,-212.41 889.48,-207.72 879.13,-205.46 879.98,-212.41"/>
</a>
</g>
</g>
<!-- Node15 -->
<g id="Node000015" class="node">
<title>Node15</title>
<g id="a_Node000015"><a xlink:href="../../d0/d59/futil_8c.html#a63eb94756fb011a456a3dec900709cd8" target="_top" xlink:title="ssnprintf was designed to be a safer alternative to snprintf.">
<polygon fill="white" stroke="#666666" points="1083,-194.75 1024.25,-194.75 1024.25,-174 1083,-174 1083,-194.75"/>
<text xml:space="preserve" text-anchor="middle" x="1053.62" y="-181.25" font-family="Helvetica,sans-Serif" font-size="10.00">ssnprintf</text>
</a>
</g>
</g>
<!-- Node5&#45;&gt;Node15 -->
<g id="edge18_Node000005_Node000015" class="edge">
<title>Node5&#45;&gt;Node15</title>
<g id="a_edge18_Node000005_Node000015"><a xlink:title=" ">
<path fill="none" stroke="#63b8ff" d="M530.99,-363.72C538.31,-337.53 560.96,-269.76 606.5,-237.38 731.73,-148.32 928.45,-164.95 1012.44,-177.34"/>
<polygon fill="#63b8ff" stroke="#63b8ff" points="1011.85,-180.79 1022.26,-178.85 1012.91,-173.87 1011.85,-180.79"/>
</a>
</g>
</g>
<!-- Node16 -->
<g id="Node000016" class="node">
<title>Node16</title>
<g id="a_Node000016"><a xlink:href="../../d0/d59/futil_8c.html#a0de2e40df9bd7efc8fd9afb8ad2257e6" target="_top" xlink:title="safer alternative to strncpy">
<polygon fill="white" stroke="#666666" points="1087.5,-575.75 1019.75,-575.75 1019.75,-555 1087.5,-555 1087.5,-575.75"/>
<text xml:space="preserve" text-anchor="middle" x="1053.62" y="-562.25" font-family="Helvetica,sans-Serif" font-size="10.00">strnz__cpy</text>
</a>
</g>
</g>
<!-- Node5&#45;&gt;Node16 -->
<g id="edge19_Node000005_Node000016" class="edge">
<title>Node5&#45;&gt;Node16</title>
<g id="a_edge19_Node000005_Node000016"><a xlink:title=" ">
<path fill="none" stroke="#63b8ff" d="M528.27,-385.24C529,-422.03 536.8,-542.54 606.5,-596.38 739.23,-698.89 822.44,-650.23 983.75,-604.38 988.31,-603.08 1007.95,-591.86 1025.1,-581.78"/>
<polygon fill="#63b8ff" stroke="#63b8ff" points="1026.64,-584.94 1033.47,-576.84 1023.08,-578.91 1026.64,-584.94"/>
</a>
</g>
</g>
<!-- Node17 -->
<g id="Node000017" class="node">
<title>Node17</title>
<g id="a_Node000017"><a xlink:href="../../dc/d40/dwin_8c.html#a9dd598e1d49c8764af1eec42c682623e" target="_top" xlink:title="Delete the current window and its associated box window.">
<polygon fill="white" stroke="#666666" points="963.88,-519.75 910.38,-519.75 910.38,-499 963.88,-499 963.88,-519.75"/>
<text xml:space="preserve" text-anchor="middle" x="937.12" y="-506.25" font-family="Helvetica,sans-Serif" font-size="10.00">win_del</text>
</a>
</g>
</g>
<!-- Node5&#45;&gt;Node17 -->
<g id="edge20_Node000005_Node000017" class="edge">
<title>Node5&#45;&gt;Node17</title>
<g id="a_edge20_Node000005_Node000017"><a xlink:title=" ">
<path fill="none" stroke="#63b8ff" d="M537.7,-385.16C551.34,-400.02 578.06,-426.52 606.5,-440.38 704.76,-488.26 835.29,-503.01 898.56,-507.48"/>
<polygon fill="#63b8ff" stroke="#63b8ff" points="898.22,-510.96 908.42,-508.12 898.67,-503.97 898.22,-510.96"/>
</a>
</g>
</g>
<!-- Node18 -->
<g id="Node000018" class="node">
<title>Node18</title>
<g id="a_Node000018"><a xlink:href="../../dc/d40/dwin_8c.html#a435c7bff7ffedb8f51c6de9259e36f6c" target="_top" xlink:title="Create a new window with optional box and title.">
<polygon fill="white" stroke="#666666" points="966.5,-595.75 907.75,-595.75 907.75,-575 966.5,-575 966.5,-595.75"/>
<text xml:space="preserve" text-anchor="middle" x="937.12" y="-582.25" font-family="Helvetica,sans-Serif" font-size="10.00">win_new</text>
</a>
</g>
</g>
<!-- Node5&#45;&gt;Node18 -->
<g id="edge21_Node000005_Node000018" class="edge">
<title>Node5&#45;&gt;Node18</title>
<g id="a_edge21_Node000005_Node000018"><a xlink:title=" ">
<path fill="none" stroke="#63b8ff" d="M529.02,-385.19C532.02,-418.16 545.93,-517.81 606.5,-561.38 693.72,-624.12 829.71,-607.91 896.45,-594.69"/>
<polygon fill="#63b8ff" stroke="#63b8ff" points="897.14,-598.12 906.22,-592.66 895.72,-591.26 897.14,-598.12"/>
</a>
</g>
</g>
<!-- Node20 -->
<g id="Node000020" class="node">
<title>Node20</title>
<g id="a_Node000020"><a xlink:href="../../dc/d40/dwin_8c.html#acf4c709bccc4c965a5d61db978db31a3" target="_top" xlink:title="Wrapper for wgetch that handles signals and mouse events.">
<polygon fill="white" stroke="#666666" points="694.88,-384.75 637.62,-384.75 637.62,-364 694.88,-364 694.88,-384.75"/>
<text xml:space="preserve" text-anchor="middle" x="666.25" y="-371.25" font-family="Helvetica,sans-Serif" font-size="10.00">xwgetch</text>
</a>
</g>
</g>
<!-- Node5&#45;&gt;Node20 -->
<g id="edge24_Node000005_Node000020" class="edge">
<title>Node5&#45;&gt;Node20</title>
<g id="a_edge24_Node000005_Node000020"><a xlink:title=" ">
<path fill="none" stroke="#63b8ff" d="M550.26,-374.38C570.67,-374.38 601.51,-374.38 626.11,-374.38"/>
<polygon fill="#63b8ff" stroke="#63b8ff" points="626.1,-377.88 636.1,-374.38 626.1,-370.88 626.1,-377.88"/>
</a>
</g>
</g>
<!-- Node7 -->
<g id="Node000007" class="node">
<title>Node7</title>
<g id="a_Node000007"><a xlink:href="../../dc/d40/dwin_8c.html#afc0985a403e3eac0b2cd8f0fab500256" target="_top" xlink:title="Gracefully shut down NCurses and restore terminal settings.">
<polygon fill="white" stroke="#666666" points="1213,-443.75 1123.5,-443.75 1123.5,-423 1213,-423 1213,-443.75"/>
<text xml:space="preserve" text-anchor="middle" x="1168.25" y="-430.25" font-family="Helvetica,sans-Serif" font-size="10.00">destroy_curses</text>
</a>
</g>
</g>
<!-- Node6&#45;&gt;Node7 -->
<g id="edge6_Node000006_Node000007" class="edge">
<title>Node6&#45;&gt;Node7</title>
<g id="a_edge6_Node000006_Node000007"><a xlink:title=" ">
<path fill="none" stroke="#63b8ff" d="M1076.88,-433.38C1086.99,-433.38 1099.44,-433.38 1111.84,-433.38"/>
<polygon fill="#63b8ff" stroke="#63b8ff" points="1111.63,-436.88 1121.63,-433.38 1111.63,-429.88 1111.63,-436.88"/>
</a>
</g>
</g>
<!-- Node8 -->
<g id="Node000008" class="node">
<title>Node8</title>
<g id="a_Node000008"><a xlink:href="../../d7/d72/scriou_8c.html#ac5e3adb304b78910fc77761ef6a743f0" target="_top" xlink:title="restore_shell_tioctl() &#45; restore shell terminal settings">
<polygon fill="white" stroke="#666666" points="1358,-471.75 1249,-471.75 1249,-451 1358,-451 1358,-471.75"/>
<text xml:space="preserve" text-anchor="middle" x="1303.5" y="-458.25" font-family="Helvetica,sans-Serif" font-size="10.00">restore_shell_tioctl</text>
</a>
</g>
</g>
<!-- Node6&#45;&gt;Node8 -->
<g id="edge9_Node000006_Node000008" class="edge">
<title>Node6&#45;&gt;Node8</title>
<g id="a_edge9_Node000006_Node000008"><a xlink:title=" ">
<path fill="none" stroke="#63b8ff" d="M1077,-440.88C1090.34,-445.03 1107.7,-449.83 1123.5,-452.38 1160.9,-458.4 1203.21,-460.73 1237.3,-461.52"/>
<polygon fill="#63b8ff" stroke="#63b8ff" points="1236.95,-465.01 1247.01,-461.7 1237.08,-458.01 1236.95,-465.01"/>
</a>
</g>
</g>
<!-- Node9 -->
<g id="Node000009" class="node">
<title>Node9</title>
<g id="a_Node000009"><a xlink:href="../../da/d12/sig_8c.html#a06c1eb6cf3649dc187115565409f91af" target="_top" xlink:title="Set signal handlers to default behavior.">
<polygon fill="white" stroke="#666666" points="1344.12,-423.75 1262.88,-423.75 1262.88,-403 1344.12,-403 1344.12,-423.75"/>
<text xml:space="preserve" text-anchor="middle" x="1303.5" y="-410.25" font-family="Helvetica,sans-Serif" font-size="10.00">sig_dfl_mode</text>
</a>
</g>
</g>
<!-- Node6&#45;&gt;Node9 -->
<g id="edge10_Node000006_Node000009" class="edge">
<title>Node6&#45;&gt;Node9</title>
<g id="a_edge10_Node000006_Node000009"><a xlink:title=" ">
<path fill="none" stroke="#63b8ff" d="M1076.96,-425.6C1090.28,-421.37 1107.65,-416.57 1123.5,-414.38 1166.28,-408.46 1215.36,-408.67 1251.29,-410.1"/>
<polygon fill="#63b8ff" stroke="#63b8ff" points="1250.81,-413.58 1260.96,-410.54 1251.13,-406.59 1250.81,-413.58"/>
</a>
</g>
</g>
<!-- Node7&#45;&gt;Node8 -->
<g id="edge7_Node000007_Node000008" class="edge">
<title>Node7&#45;&gt;Node8</title>
<g id="a_edge7_Node000007_Node000008"><a xlink:title=" ">
<path fill="none" stroke="#63b8ff" d="M1213.25,-442.62C1221.87,-444.43 1231.07,-446.37 1240.16,-448.28"/>
<polygon fill="#63b8ff" stroke="#63b8ff" points="1239.16,-451.64 1249.67,-450.27 1240.6,-444.79 1239.16,-451.64"/>
</a>
</g>
</g>
<!-- Node7&#45;&gt;Node9 -->
<g id="edge8_Node000007_Node000009" class="edge">
<title>Node7&#45;&gt;Node9</title>
<g id="a_edge8_Node000007_Node000009"><a xlink:title=" ">
<path fill="none" stroke="#63b8ff" d="M1213.25,-426.77C1225.44,-424.94 1238.77,-422.94 1251.33,-421.06"/>
<polygon fill="#63b8ff" stroke="#63b8ff" points="1251.73,-424.54 1261.1,-419.59 1250.69,-417.61 1251.73,-424.54"/>
</a>
</g>
</g>
<!-- Node11 -->
<g id="Node000011" class="node">
<title>Node11</title>
<g id="a_Node000011"><a xlink:href="../../d0/d59/futil_8c.html#aa0145c044cfdde3a1c83323410a59f25" target="_top" xlink:title="safer alternative to strncat">
<polygon fill="white" stroke="#666666" points="1086.38,-328.75 1020.88,-328.75 1020.88,-308 1086.38,-308 1086.38,-328.75"/>
<text xml:space="preserve" text-anchor="middle" x="1053.62" y="-315.25" font-family="Helvetica,sans-Serif" font-size="10.00">strnz__cat</text>
</a>
</g>
</g>
<!-- Node10&#45;&gt;Node11 -->
<g id="edge12_Node000010_Node000011" class="edge">
<title>Node10&#45;&gt;Node11</title>
<g id="a_edge12_Node000010_Node000011"><a xlink:title=" ">
<path fill="none" stroke="#63b8ff" d="M984.04,-318.38C992.33,-318.38 1000.94,-318.38 1009.16,-318.38"/>
<polygon fill="#63b8ff" stroke="#63b8ff" points="1008.92,-321.88 1018.92,-318.38 1008.92,-314.88 1008.92,-321.88"/>
</a>
</g>
</g>
<!-- Node13&#45;&gt;Node6 -->
<g id="edge15_Node000013_Node000006" class="edge">
<title>Node13&#45;&gt;Node6</title>
<g id="a_edge15_Node000013_Node000006"><a xlink:title=" ">
<path fill="none" stroke="#63b8ff" d="M974.67,-433.38C988.99,-433.38 1005.3,-433.38 1019.29,-433.38"/>
<polygon fill="#63b8ff" stroke="#63b8ff" points="1018.89,-436.88 1028.89,-433.38 1018.89,-429.88 1018.89,-436.88"/>
</a>
</g>
</g>
<!-- Node14&#45;&gt;Node15 -->
<g id="edge17_Node000014_Node000015" class="edge">
<title>Node14&#45;&gt;Node15</title>
<g id="a_edge17_Node000014_Node000015"><a xlink:title=" ">
<path fill="none" stroke="#63b8ff" d="M983.38,-195.87C993.07,-194.26 1003.23,-192.57 1012.7,-191"/>
<polygon fill="#63b8ff" stroke="#63b8ff" points="1013.04,-194.49 1022.34,-189.4 1011.9,-187.59 1013.04,-194.49"/>
</a>
</g>
</g>
<!-- Node18&#45;&gt;Node16 -->
<g id="edge23_Node000018_Node000016" class="edge">
<title>Node18&#45;&gt;Node16</title>
<g id="a_edge23_Node000018_Node000016"><a xlink:title=" ">
<path fill="none" stroke="#63b8ff" d="M966.72,-580.38C979.37,-578.17 994.53,-575.52 1008.58,-573.07"/>
<polygon fill="#63b8ff" stroke="#63b8ff" points="1008.79,-576.59 1018.04,-571.42 1007.58,-569.69 1008.79,-576.59"/>
</a>
</g>
</g>
<!-- Node19 -->
<g id="Node000019" class="node">
<title>Node19</title>
<g id="a_Node000019"><a xlink:href="../../dc/d40/dwin_8c.html#ac9adcf7339be4a05ab1a7350c236b8a5" target="_top" xlink:title="Draw a box around the specified window.">
<polygon fill="white" stroke="#666666" points="1073.25,-614.75 1034,-614.75 1034,-594 1073.25,-594 1073.25,-614.75"/>
<text xml:space="preserve" text-anchor="middle" x="1053.62" y="-601.25" font-family="Helvetica,sans-Serif" font-size="10.00">cbox</text>
</a>
</g>
</g>
<!-- Node18&#45;&gt;Node19 -->
<g id="edge22_Node000018_Node000019" class="edge">
<title>Node18&#45;&gt;Node19</title>
<g id="a_edge22_Node000018_Node000019"><a xlink:title=" ">
<path fill="none" stroke="#63b8ff" d="M966.72,-590.12C983.73,-592.94 1005.28,-596.52 1022.54,-599.38"/>
<polygon fill="#63b8ff" stroke="#63b8ff" points="1021.77,-602.8 1032.21,-600.99 1022.91,-595.9 1021.77,-602.8"/>
</a>
</g>
</g>
<!-- Node21 -->
<g id="Node000021" class="node">
<title>Node21</title>
<g id="a_Node000021"><a xlink:href="../../dc/d40/dwin_8c.html#a67659f8a701b74f4dec0d36227a10d1c" target="_top" xlink:title="Display an error message window or print to stderr.">
<polygon fill="white" stroke="#666666" points="848.12,-365.75 768.38,-365.75 768.38,-345 848.12,-345 848.12,-365.75"/>
<text xml:space="preserve" text-anchor="middle" x="808.25" y="-352.25" font-family="Helvetica,sans-Serif" font-size="10.00">display_error</text>
</a>
</g>
</g>
<!-- Node20&#45;&gt;Node21 -->
<g id="edge25_Node000020_Node000021" class="edge">
<title>Node20&#45;&gt;Node21</title>
<g id="a_edge25_Node000020_Node000021"><a xlink:title=" ">
<path fill="none" stroke="#63b8ff" d="M695.24,-365.05C712.82,-361.49 735.99,-358.02 756.7,-355.72"/>
<polygon fill="#63b8ff" stroke="#63b8ff" points="756.81,-359.23 766.4,-354.73 756.09,-352.27 756.81,-359.23"/>
</a>
</g>
</g>
<!-- Node23 -->
<g id="Node000023" class="node">
<title>Node23</title>
<g id="a_Node000023"><a xlink:href="../../dc/d40/dwin_8c.html#a4298f891699300bfc4e6e56fd2a8d574" target="_top" xlink:title="Get keycode from chyron.">
<polygon fill="white" stroke="#666666" points="854.5,-443.75 762,-443.75 762,-423 854.5,-423 854.5,-443.75"/>
<text xml:space="preserve" text-anchor="middle" x="808.25" y="-430.25" font-family="Helvetica,sans-Serif" font-size="10.00">get_chyron_key</text>
</a>
</g>
</g>
<!-- Node20&#45;&gt;Node23 -->
<g id="edge37_Node000020_Node000023" class="edge">
<title>Node20&#45;&gt;Node23</title>
<g id="a_edge37_Node000020_Node000023"><a xlink:title=" ">
<path fill="none" stroke="#63b8ff" d="M692.93,-385.2C714.93,-394.47 746.86,-407.93 771.39,-418.26"/>
<polygon fill="#63b8ff" stroke="#63b8ff" points="769.77,-421.38 780.34,-422.03 772.48,-414.93 769.77,-421.38"/>
</a>
</g>
</g>
<!-- Node24 -->
<g id="Node000024" class="node">
<title>Node24</title>
<g id="a_Node000024"><a xlink:href="../../d0/d6b/cm_8h.html#a0667873879b5846c3fe2fa2cc96059d6" target="_top" xlink:title=" ">
<polygon fill="white" stroke="#666666" points="850,-404.75 766.5,-404.75 766.5,-384 850,-384 850,-404.75"/>
<text xml:space="preserve" text-anchor="middle" x="808.25" y="-391.25" font-family="Helvetica,sans-Serif" font-size="10.00">handle_signal</text>
</a>
</g>
</g>
<!-- Node20&#45;&gt;Node24 -->
<g id="edge38_Node000020_Node000024" class="edge">
<title>Node20&#45;&gt;Node24</title>
<g id="a_edge38_Node000020_Node000024"><a xlink:title=" ">
<path fill="none" stroke="#63b8ff" d="M695.24,-378.37C712.27,-380.81 734.55,-383.99 754.75,-386.88"/>
<polygon fill="#63b8ff" stroke="#63b8ff" points="754.14,-390.32 764.53,-388.27 755.13,-383.39 754.14,-390.32"/>
</a>
</g>
</g>
<!-- Node21&#45;&gt;Node6 -->
<g id="edge26_Node000021_Node000006" class="edge">
<title>Node21&#45;&gt;Node6</title>
<g id="a_edge26_Node000021_Node000006"><a xlink:title=" ">
<path fill="none" stroke="#63b8ff" d="M843.09,-366.22C889.69,-381.15 973.08,-407.88 1019.37,-422.72"/>
<polygon fill="#63b8ff" stroke="#63b8ff" points="1018.26,-426.04 1028.85,-425.76 1020.4,-419.37 1018.26,-426.04"/>
</a>
</g>
</g>
<!-- Node21&#45;&gt;Node10 -->
<g id="edge27_Node000021_Node000010" class="edge">
<title>Node21&#45;&gt;Node10</title>
<g id="a_edge27_Node000021_Node000010"><a xlink:title=" ">
<path fill="none" stroke="#63b8ff" d="M846.29,-344.57C859.45,-340.74 874.45,-336.36 888.38,-332.3"/>
<polygon fill="#63b8ff" stroke="#63b8ff" points="889.19,-335.71 897.81,-329.55 887.23,-328.99 889.19,-335.71"/>
</a>
</g>
</g>
<!-- Node21&#45;&gt;Node12 -->
<g id="edge28_Node000021_Node000012" class="edge">
<title>Node21&#45;&gt;Node12</title>
<g id="a_edge28_Node000021_Node000012"><a xlink:title=" ">
<path fill="none" stroke="#63b8ff" d="M817.03,-344.68C830.45,-326.75 859.53,-290.29 890.5,-266.38 894.06,-263.62 897.99,-261.03 902,-258.63"/>
<polygon fill="#63b8ff" stroke="#63b8ff" points="903.59,-261.75 910.64,-253.84 900.2,-255.62 903.59,-261.75"/>
</a>
</g>
</g>
<!-- Node21&#45;&gt;Node13 -->
<g id="edge29_Node000021_Node000013" class="edge">
<title>Node21&#45;&gt;Node13</title>
<g id="a_edge29_Node000021_Node000013"><a xlink:title=" ">
<path fill="none" stroke="#63b8ff" d="M837.79,-366.21C843.52,-368.87 849.35,-371.95 854.5,-375.38 872.83,-387.56 872.6,-396.58 890.5,-409.38 894.35,-412.13 898.56,-414.77 902.81,-417.22"/>
<polygon fill="#63b8ff" stroke="#63b8ff" points="900.87,-420.15 911.33,-421.86 904.22,-414.01 900.87,-420.15"/>
</a>
</g>
</g>
<!-- Node21&#45;&gt;Node14 -->
<g id="edge30_Node000021_Node000014" class="edge">
<title>Node21&#45;&gt;Node14</title>
<g id="a_edge30_Node000021_Node000014"><a xlink:title=" ">
<path fill="none" stroke="#63b8ff" d="M813.24,-344.63C822.88,-320.01 849.7,-258.88 890.5,-223.38 891.94,-222.13 893.46,-220.94 895.05,-219.83"/>
<polygon fill="#63b8ff" stroke="#63b8ff" points="896.56,-223 903.37,-214.89 892.99,-216.98 896.56,-223"/>
</a>
</g>
</g>
<!-- Node21&#45;&gt;Node15 -->
<g id="edge31_Node000021_Node000015" class="edge">
<title>Node21&#45;&gt;Node15</title>
<g id="a_edge31_Node000021_Node000015"><a xlink:title=" ">
<path fill="none" stroke="#63b8ff" d="M822.76,-344.71C838.42,-332.66 865.33,-312.97 890.5,-299.38 929.88,-278.11 947.17,-287.16 983.75,-261.38 1006.05,-245.65 1026.17,-221.42 1038.83,-204.35"/>
<polygon fill="#63b8ff" stroke="#63b8ff" points="1041.5,-206.63 1044.49,-196.47 1035.81,-202.55 1041.5,-206.63"/>
</a>
</g>
</g>
<!-- Node21&#45;&gt;Node16 -->
<g id="edge33_Node000021_Node000016" class="edge">
<title>Node21&#45;&gt;Node16</title>
<g id="a_edge33_Node000021_Node000016"><a xlink:title=" ">
<path fill="none" stroke="#63b8ff" d="M841.27,-366.01C846.08,-368.56 850.69,-371.65 854.5,-375.38 881.49,-401.8 863.12,-426.34 890.5,-452.38 922.93,-483.21 947,-464.83 983.75,-490.38 1005.71,-505.64 1025.77,-529.06 1038.51,-545.66"/>
<polygon fill="#63b8ff" stroke="#63b8ff" points="1035.43,-547.4 1044.22,-553.32 1041.05,-543.21 1035.43,-547.4"/>
</a>
</g>
</g>
<!-- Node21&#45;&gt;Node17 -->
<g id="edge34_Node000021_Node000017" class="edge">
<title>Node21&#45;&gt;Node17</title>
<g id="a_edge34_Node000021_Node000017"><a xlink:title=" ">
<path fill="none" stroke="#63b8ff" d="M842.59,-366.13C847.01,-368.63 851.16,-371.68 854.5,-375.38 889.01,-413.52 857.31,-446.08 890.5,-485.38 893.26,-488.64 896.58,-491.53 900.16,-494.06"/>
<polygon fill="#63b8ff" stroke="#63b8ff" points="898.33,-497.04 908.71,-499.17 901.92,-491.04 898.33,-497.04"/>
</a>
</g>
</g>
<!-- Node21&#45;&gt;Node18 -->
<g id="edge35_Node000021_Node000018" class="edge">
<title>Node21&#45;&gt;Node18</title>
<g id="a_edge35_Node000021_Node000018"><a xlink:title=" ">
<path fill="none" stroke="#63b8ff" d="M843.33,-366.15C847.53,-368.64 851.43,-371.67 854.5,-375.38 899.12,-429.12 859.92,-465.57 890.5,-528.38 897.28,-542.3 907.98,-555.92 917.32,-566.35"/>
<polygon fill="#63b8ff" stroke="#63b8ff" points="914.63,-568.6 924.01,-573.52 919.74,-563.82 914.63,-568.6"/>
</a>
</g>
</g>
<!-- Node21&#45;&gt;Node20 -->
<g id="edge36_Node000021_Node000020" class="edge">
<title>Node21&#45;&gt;Node20</title>
<g id="a_edge36_Node000021_Node000020"><a xlink:title=" ">
<path fill="none" stroke="#63b8ff" d="M771.32,-366.23C751.53,-369.89 726.94,-373.28 706.64,-375.17"/>
<polygon fill="#63b8ff" stroke="#63b8ff" points="706.43,-371.67 696.75,-375.98 707.01,-378.65 706.43,-371.67"/>
</a>
</g>
</g>
<!-- Node22 -->
<g id="Node000022" class="node">
<title>Node22</title>
<g id="a_Node000022"><a xlink:href="../../d0/d59/futil_8c.html#a636608f26d1193b5d860f2312cd8ee49" target="_top" xlink:title="terminates string at New Line, Carriage Return, or max_len">
<polygon fill="white" stroke="#666666" points="957.12,-367.75 917.12,-367.75 917.12,-347 957.12,-347 957.12,-367.75"/>
<text xml:space="preserve" text-anchor="middle" x="937.12" y="-354.25" font-family="Helvetica,sans-Serif" font-size="10.00">strnz</text>
</a>
</g>
</g>
<!-- Node21&#45;&gt;Node22 -->
<g id="edge32_Node000021_Node000022" class="edge">
<title>Node21&#45;&gt;Node22</title>
<g id="a_edge32_Node000021_Node000022"><a xlink:title=" ">
<path fill="none" stroke="#63b8ff" d="M848.35,-355.99C866.81,-356.28 888.51,-356.62 905.71,-356.9"/>
<polygon fill="#63b8ff" stroke="#63b8ff" points="905.24,-360.39 915.29,-357.05 905.35,-353.39 905.24,-360.39"/>
</a>
</g>
</g>
<!-- Node26 -->
<g id="Node000026" class="node">
<title>Node26</title>
<g id="a_Node000026"><a xlink:href="../../d4/dc1/src_2view__engine_8c.html#a9fc984ba8ce6c4059b33a915d526357f" target="_top" xlink:title="Parse ANSI SGR Escape Sequence.">
<polygon fill="white" stroke="#666666" points="570.5,-98.75 484,-98.75 484,-78 570.5,-78 570.5,-98.75"/>
<text xml:space="preserve" text-anchor="middle" x="527.25" y="-85.25" font-family="Helvetica,sans-Serif" font-size="10.00">parse_ansi_str</text>
</a>
</g>
</g>
<!-- Node25&#45;&gt;Node26 -->
<g id="edge40_Node000025_Node000026" class="edge">
<title>Node25&#45;&gt;Node26</title>
<g id="a_edge40_Node000025_Node000026"><a xlink:title=" ">
<path fill="none" stroke="#63b8ff" d="M418.91,-191.85C438.96,-172.53 481.9,-131.14 506.96,-106.97"/>
<polygon fill="#63b8ff" stroke="#63b8ff" points="509.16,-109.71 513.93,-100.25 504.3,-104.67 509.16,-109.71"/>
</a>
</g>
</g>
<!-- Node32 -->
<g id="Node000032" class="node">
<title>Node32</title>
<g id="a_Node000032"><a xlink:href="../../d0/d59/futil_8c.html#a4f42956462e811d96c9fb881a85dada4" target="_top" xlink:title="Trims trailing spaces from string s in place.">
<polygon fill="white" stroke="#666666" points="547.25,-212.75 507.25,-212.75 507.25,-192 547.25,-192 547.25,-212.75"/>
<text xml:space="preserve" text-anchor="middle" x="527.25" y="-199.25" font-family="Helvetica,sans-Serif" font-size="10.00">rtrim</text>
</a>
</g>
</g>
<!-- Node25&#45;&gt;Node32 -->
<g id="edge48_Node000025_Node000032" class="edge">
<title>Node25&#45;&gt;Node32</title>
<g id="a_edge48_Node000025_Node000032"><a xlink:title=" ">
<path fill="none" stroke="#63b8ff" d="M435.72,-202.38C453.64,-202.38 476.98,-202.38 495.48,-202.38"/>
<polygon fill="#63b8ff" stroke="#63b8ff" points="495.31,-205.88 505.31,-202.38 495.31,-198.88 495.31,-205.88"/>
</a>
</g>
</g>
<!-- Node27 -->
<g id="Node000027" class="node">
<title>Node27</title>
<g id="a_Node000027"><a xlink:href="../../d0/d59/futil_8c.html#ab96e4c73a7b3ba1310044b479733cdd9" target="_top" xlink:title="a safer alternative to atoi() for converting ASCII strings to integers.">
<polygon fill="white" stroke="#666666" points="686.25,-98.75 646.25,-98.75 646.25,-78 686.25,-78 686.25,-98.75"/>
<text xml:space="preserve" text-anchor="middle" x="666.25" y="-85.25" font-family="Helvetica,sans-Serif" font-size="10.00">a_toi</text>
</a>
</g>
</g>
<!-- Node26&#45;&gt;Node27 -->
<g id="edge41_Node000026_Node000027" class="edge">
<title>Node26&#45;&gt;Node27</title>
<g id="a_edge41_Node000026_Node000027"><a xlink:title=" ">
<path fill="none" stroke="#63b8ff" d="M570.85,-88.38C591.47,-88.38 615.76,-88.38 634.53,-88.38"/>
<polygon fill="#63b8ff" stroke="#63b8ff" points="634.47,-91.88 644.47,-88.38 634.47,-84.88 634.47,-91.88"/>
</a>
</g>
</g>
<!-- Node28 -->
<g id="Node000028" class="node">
<title>Node28</title>
<g id="a_Node000028"><a xlink:href="../../dc/d40/dwin_8c.html#af0ba4efbc81c259a2519ca41dd9d1599" target="_top" xlink:title="Get color pair index for foreground and background colors.">
<polygon fill="white" stroke="#666666" points="702.75,-137.75 629.75,-137.75 629.75,-117 702.75,-117 702.75,-137.75"/>
<text xml:space="preserve" text-anchor="middle" x="666.25" y="-124.25" font-family="Helvetica,sans-Serif" font-size="10.00">get_clr_pair</text>
</a>
</g>
</g>
<!-- Node26&#45;&gt;Node28 -->
<g id="edge42_Node000026_Node000028" class="edge">
<title>Node26&#45;&gt;Node28</title>
<g id="a_edge42_Node000026_Node000028"><a xlink:title=" ">
<path fill="none" stroke="#63b8ff" d="M566.41,-99.24C582.65,-103.86 601.74,-109.29 618.78,-114.15"/>
<polygon fill="#63b8ff" stroke="#63b8ff" points="617.61,-117.45 628.19,-116.82 619.53,-110.72 617.61,-117.45"/>
</a>
</g>
</g>
<!-- Node29 -->
<g id="Node000029" class="node">
<title>Node29</title>
<g id="a_Node000029"><a xlink:href="../../dc/d40/dwin_8c.html#a4900dd34e828972e58b0ca549cf7d4d8" target="_top" xlink:title="Get color index for RGB color.">
<polygon fill="white" stroke="#666666" points="716.62,-59.75 615.88,-59.75 615.88,-39 716.62,-39 716.62,-59.75"/>
<text xml:space="preserve" text-anchor="middle" x="666.25" y="-46.25" font-family="Helvetica,sans-Serif" font-size="10.00">rgb_to_curses_clr</text>
</a>
</g>
</g>
<!-- Node26&#45;&gt;Node29 -->
<g id="edge45_Node000026_Node000029" class="edge">
<title>Node26&#45;&gt;Node29</title>
<g id="a_edge45_Node000026_Node000029"><a xlink:title=" ">
<path fill="none" stroke="#63b8ff" d="M566.41,-77.51C581.85,-73.12 599.87,-67.99 616.26,-63.32"/>
<polygon fill="#63b8ff" stroke="#63b8ff" points="617.18,-66.7 625.84,-60.59 615.26,-59.97 617.18,-66.7"/>
</a>
</g>
</g>
<!-- Node31 -->
<g id="Node000031" class="node">
<title>Node31</title>
<g id="a_Node000031"><a xlink:href="../../dc/d40/dwin_8c.html#a31ee0d93c7b527f92559fc410152f768" target="_top" xlink:title="Convert XTerm 256 color index to RGB color.">
<polygon fill="white" stroke="#666666" points="726,-20.75 606.5,-20.75 606.5,0 726,0 726,-20.75"/>
<text xml:space="preserve" text-anchor="middle" x="666.25" y="-7.25" font-family="Helvetica,sans-Serif" font-size="10.00">xterm256_idx_to_rgb</text>
</a>
</g>
</g>
<!-- Node26&#45;&gt;Node31 -->
<g id="edge47_Node000026_Node000031" class="edge">
<title>Node26&#45;&gt;Node31</title>
<g id="a_edge47_Node000026_Node000031"><a xlink:title=" ">
<path fill="none" stroke="#63b8ff" d="M540.19,-77.66C554.89,-64.92 581.04,-43.73 606.5,-30.38 609.94,-28.57 613.58,-26.87 617.3,-25.3"/>
<polygon fill="#63b8ff" stroke="#63b8ff" points="618.41,-28.62 626.44,-21.71 615.86,-22.1 618.41,-28.62"/>
</a>
</g>
</g>
<!-- Node28&#45;&gt;Node15 -->
<g id="edge44_Node000028_Node000015" class="edge">
<title>Node28&#45;&gt;Node15</title>
<g id="a_edge44_Node000028_Node000015"><a xlink:title=" ">
<path fill="none" stroke="#63b8ff" d="M703.09,-125.84C762.52,-124.23 884.73,-124.9 983.75,-151.38 997.92,-155.16 1012.7,-161.84 1024.92,-168.2"/>
<polygon fill="#63b8ff" stroke="#63b8ff" points="1023.13,-171.21 1033.59,-172.9 1026.47,-165.06 1023.13,-171.21"/>
</a>
</g>
</g>
<!-- Node28&#45;&gt;Node21 -->
<g id="edge43_Node000028_Node000021" class="edge">
<title>Node28&#45;&gt;Node21</title>
<g id="a_edge43_Node000028_Node000021"><a xlink:title=" ">
<path fill="none" stroke="#63b8ff" d="M673.81,-138.07C695.63,-173.6 765.96,-288.12 794.77,-335.04"/>
<polygon fill="#63b8ff" stroke="#63b8ff" points="791.69,-336.73 799.91,-343.42 797.66,-333.06 791.69,-336.73"/>
</a>
</g>
</g>
<!-- Node30 -->
<g id="Node000030" class="node">
<title>Node30</title>
<g id="a_Node000030"><a xlink:href="../../dc/d40/dwin_8c.html#aa3a6b291c0820d9da545325a2dba5274" target="_top" xlink:title="Apply gamma correction to RGB color.">
<polygon fill="white" stroke="#666666" points="851.12,-59.75 765.38,-59.75 765.38,-39 851.12,-39 851.12,-59.75"/>
<text xml:space="preserve" text-anchor="middle" x="808.25" y="-46.25" font-family="Helvetica,sans-Serif" font-size="10.00">apply_gamma</text>
</a>
</g>
</g>
<!-- Node29&#45;&gt;Node30 -->
<g id="edge46_Node000029_Node000030" class="edge">
<title>Node29&#45;&gt;Node30</title>
<g id="a_edge46_Node000029_Node000030"><a xlink:title=" ">
<path fill="none" stroke="#63b8ff" d="M717,-49.38C728.91,-49.38 741.68,-49.38 753.76,-49.38"/>
<polygon fill="#63b8ff" stroke="#63b8ff" points="753.55,-52.88 763.55,-49.38 753.55,-45.88 753.55,-52.88"/>
</a>
</g>
</g>
<!-- Node34&#45;&gt;Node3 -->
<g id="edge53_Node000034_Node000003" class="edge">
<title>Node34&#45;&gt;Node3</title>
<g id="a_edge53_Node000034_Node000003"><a xlink:title=" ">
<path fill="none" stroke="#63b8ff" d="M179.65,-292.42C195.8,-294.91 215.5,-297.94 232.93,-300.63"/>
<polygon fill="#63b8ff" stroke="#63b8ff" points="232.08,-304.04 242.49,-302.1 233.14,-297.12 232.08,-304.04"/>
</a>
</g>
</g>
<!-- Node35 -->
<g id="Node000035" class="node">
<title>Node35</title>
<g id="a_Node000035"><a xlink:href="../../d4/dc1/src_2view__engine_8c.html#aaf8cff992778d85e44351a834ad2b81a" target="_top" xlink:title="Get Position of Previous Line.">
<polygon fill="white" stroke="#666666" points="330,-278.75 225.5,-278.75 225.5,-258 330,-258 330,-278.75"/>
<text xml:space="preserve" text-anchor="middle" x="277.75" y="-265.25" font-family="Helvetica,sans-Serif" font-size="10.00">get_pos_prev_line</text>
</a>
</g>
</g>
<!-- Node34&#45;&gt;Node35 -->
<g id="edge52_Node000034_Node000035" class="edge">
<title>Node34&#45;&gt;Node35</title>
<g id="a_edge52_Node000034_Node000035"><a xlink:title=" ">
<path fill="none" stroke="#63b8ff" d="M179.65,-282.58C190.07,-281.06 201.97,-279.32 213.78,-277.59"/>
<polygon fill="#63b8ff" stroke="#63b8ff" points="214.14,-281.07 223.53,-276.16 213.13,-274.15 214.14,-281.07"/>
</a>
</g>
</g>
</g>
</svg>
