<?xml version="1.0" encoding="UTF-8" standalone="no"?>
<!DOCTYPE svg PUBLIC "-//W3C//DTD SVG 1.1//EN"
 "http://www.w3.org/Graphics/SVG/1.1/DTD/svg11.dtd">
<!-- Generated by graphviz version 14.1.2 (0)
 -->
<!-- Title: display_line Pages: 1 -->
<svg width="889pt" height="501pt"
 viewBox="0.00 0.00 889.00 501.00" xmlns="http://www.w3.org/2000/svg" xmlns:xlink="http://www.w3.org/1999/xlink">
<g id="graph0" class="graph" transform="scale(1 1) rotate(0) translate(4 497.1)">
<title>display_line</title>
<!-- Node1 -->
<g id="Node000001" class="node">
<title>Node1</title>
<g id="a_Node000001"><a xlink:title="Display Line on Pad.">
<polygon fill="#999999" stroke="#666666" points="74.5,-315.59 0,-315.59 0,-294.84 74.5,-294.84 74.5,-315.59"/>
<text xml:space="preserve" text-anchor="middle" x="37.25" y="-302.09" font-family="Helvetica,sans-Serif" font-size="10.00">display_line</text>
</a>
</g>
</g>
<!-- Node2 -->
<g id="Node000002" class="node">
<title>Node2</title>
<g id="a_Node000002"><a xlink:href="../../dc/d40/dwin_8c.html#a61b4f28456257f68ed042bed7f187efd" target="_top" xlink:title="Display a simple error message window or print to stderr.">
<polygon fill="white" stroke="#666666" points="155.75,-315.59 110.5,-315.59 110.5,-294.84 155.75,-294.84 155.75,-315.59"/>
<text xml:space="preserve" text-anchor="middle" x="133.12" y="-302.09" font-family="Helvetica,sans-Serif" font-size="10.00">Perror</text>
</a>
</g>
</g>
<!-- Node1&#45;&gt;Node2 -->
<g id="edge1_Node000001_Node000002" class="edge">
<title>Node1&#45;&gt;Node2</title>
<g id="a_edge1_Node000001_Node000002"><a xlink:title=" ">
<path fill="none" stroke="#63b8ff" d="M74.81,-305.21C82.74,-305.21 91.09,-305.21 98.89,-305.21"/>
<polygon fill="#63b8ff" stroke="#63b8ff" points="98.65,-308.71 108.65,-305.21 98.65,-301.71 98.65,-308.71"/>
</a>
</g>
</g>
<!-- Node3 -->
<g id="Node000003" class="node">
<title>Node3</title>
<g id="a_Node000003"><a xlink:href="../../dc/d40/dwin_8c.html#a8f6c45ca4a7f6a41c4c88314e697565a" target="_top" xlink:title="Abnormal program termination.">
<polygon fill="white" stroke="#666666" points="599.62,-411.59 553.62,-411.59 553.62,-390.84 599.62,-390.84 599.62,-411.59"/>
<text xml:space="preserve" text-anchor="middle" x="576.62" y="-398.09" font-family="Helvetica,sans-Serif" font-size="10.00">abend</text>
</a>
</g>
</g>
<!-- Node2&#45;&gt;Node3 -->
<g id="edge2_Node000002_Node000003" class="edge">
<title>Node2&#45;&gt;Node3</title>
<g id="a_edge2_Node000002_Node000003"><a xlink:title=" ">
<path fill="none" stroke="#63b8ff" d="M137.35,-315.8C144.03,-335.83 161.34,-379.23 191.75,-401.21 299.16,-478.84 471.34,-435.87 542.84,-412.81"/>
<polygon fill="#63b8ff" stroke="#63b8ff" points="543.6,-416.25 551.99,-409.78 541.4,-409.6 543.6,-416.25"/>
</a>
</g>
</g>
<!-- Node7 -->
<g id="Node000007" class="node">
<title>Node7</title>
<g id="a_Node000007"><a xlink:href="../../dc/d40/dwin_8c.html#a645871e46277e31736bc36d0f3dce4bd" target="_top" xlink:title="construct the chyron string from the chyron structure">
<polygon fill="white" stroke="#666666" points="506.75,-487.59 413.5,-487.59 413.5,-466.84 506.75,-466.84 506.75,-487.59"/>
<text xml:space="preserve" text-anchor="middle" x="460.12" y="-474.09" font-family="Helvetica,sans-Serif" font-size="10.00">compile_chyron</text>
</a>
</g>
</g>
<!-- Node2&#45;&gt;Node7 -->
<g id="edge8_Node000002_Node000007" class="edge">
<title>Node2&#45;&gt;Node7</title>
<g id="a_edge8_Node000002_Node000007"><a xlink:title=" ">
<path fill="none" stroke="#63b8ff" d="M134.66,-316.04C136.7,-344.05 146.34,-419.08 191.75,-453.21 252.09,-498.56 343.09,-496.14 401.81,-488.23"/>
<polygon fill="#63b8ff" stroke="#63b8ff" points="402.22,-491.71 411.61,-486.81 401.21,-484.78 402.22,-491.71"/>
</a>
</g>
</g>
<!-- Node9 -->
<g id="Node000009" class="node">
<title>Node9</title>
<g id="a_Node000009"><a xlink:href="../../dc/d40/dwin_8c.html#a3f3feb40fd703913c5c136331f627c91" target="_top" xlink:title="Destroy Chyron structure.">
<polygon fill="white" stroke="#666666" points="505.62,-335.59 414.62,-335.59 414.62,-314.84 505.62,-314.84 505.62,-335.59"/>
<text xml:space="preserve" text-anchor="middle" x="460.12" y="-322.09" font-family="Helvetica,sans-Serif" font-size="10.00">destroy_chyron</text>
</a>
</g>
</g>
<!-- Node2&#45;&gt;Node9 -->
<g id="edge10_Node000002_Node000009" class="edge">
<title>Node2&#45;&gt;Node9</title>
<g id="a_edge10_Node000002_Node000009"><a xlink:title=" ">
<path fill="none" stroke="#63b8ff" d="M155.99,-307.75C166.75,-308.94 179.92,-310.29 191.75,-311.21 264.5,-316.9 348.57,-320.87 402.72,-323.1"/>
<polygon fill="#63b8ff" stroke="#63b8ff" points="402.49,-326.59 412.62,-323.5 402.77,-319.6 402.49,-326.59"/>
</a>
</g>
</g>
<!-- Node10 -->
<g id="Node000010" class="node">
<title>Node10</title>
<g id="a_Node000010"><a xlink:href="../../dc/d40/dwin_8c.html#ad37d5808ff30ae6894780425d865abae" target="_top" xlink:title="Create and initialize Chyron structure.">
<polygon fill="white" stroke="#666666" points="497.38,-411.59 422.88,-411.59 422.88,-390.84 497.38,-390.84 497.38,-411.59"/>
<text xml:space="preserve" text-anchor="middle" x="460.12" y="-398.09" font-family="Helvetica,sans-Serif" font-size="10.00">new_chyron</text>
</a>
</g>
</g>
<!-- Node2&#45;&gt;Node10 -->
<g id="edge11_Node000002_Node000010" class="edge">
<title>Node2&#45;&gt;Node10</title>
<g id="a_edge11_Node000002_Node000010"><a xlink:title=" ">
<path fill="none" stroke="#63b8ff" d="M139.21,-316.05C147.58,-332.51 165.94,-363.35 191.75,-377.21 260.95,-414.36 354.9,-413 411.03,-407.73"/>
<polygon fill="#63b8ff" stroke="#63b8ff" points="411.32,-411.22 420.91,-406.72 410.6,-404.26 411.32,-411.22"/>
</a>
</g>
</g>
<!-- Node11 -->
<g id="Node000011" class="node">
<title>Node11</title>
<g id="a_Node000011"><a xlink:href="../../dc/d40/dwin_8c.html#a208ce92c197fdd6d2b007987e534aa3b" target="_top" xlink:title="Set chyron key.">
<polygon fill="white" stroke="#666666" points="506,-105.59 414.25,-105.59 414.25,-84.84 506,-84.84 506,-105.59"/>
<text xml:space="preserve" text-anchor="middle" x="460.12" y="-92.09" font-family="Helvetica,sans-Serif" font-size="10.00">set_chyron_key</text>
</a>
</g>
</g>
<!-- Node2&#45;&gt;Node11 -->
<g id="edge13_Node000002_Node000011" class="edge">
<title>Node2&#45;&gt;Node11</title>
<g id="a_edge13_Node000002_Node000011"><a xlink:title=" ">
<path fill="none" stroke="#63b8ff" d="M141.08,-294.54C151.27,-279.27 171.3,-250.66 191.75,-229.21 229.03,-190.1 237.68,-177.3 285,-151.21 322.01,-130.8 367.6,-116.48 402.85,-107.43"/>
<polygon fill="#63b8ff" stroke="#63b8ff" points="403.58,-110.85 412.44,-105.04 401.89,-104.06 403.58,-110.85"/>
</a>
</g>
</g>
<!-- Node12 -->
<g id="Node000012" class="node">
<title>Node12</title>
<g id="a_Node000012"><a xlink:href="../../d0/d59/futil_8c.html#a63eb94756fb011a456a3dec900709cd8" target="_top" xlink:title="ssnprintf was designed to be a safer alternative to snprintf.">
<polygon fill="white" stroke="#666666" points="606,-220.59 547.25,-220.59 547.25,-199.84 606,-199.84 606,-220.59"/>
<text xml:space="preserve" text-anchor="middle" x="576.62" y="-207.09" font-family="Helvetica,sans-Serif" font-size="10.00">ssnprintf</text>
</a>
</g>
</g>
<!-- Node2&#45;&gt;Node12 -->
<g id="edge15_Node000002_Node000012" class="edge">
<title>Node2&#45;&gt;Node12</title>
<g id="a_edge15_Node000002_Node000012"><a xlink:title=" ">
<path fill="none" stroke="#63b8ff" d="M155.89,-316.04C216.62,-344.56 390.99,-414.87 506.75,-344.21 547.16,-319.55 564.85,-262.79 571.76,-231.64"/>
<polygon fill="#63b8ff" stroke="#63b8ff" points="575.11,-232.7 573.66,-222.2 568.25,-231.31 575.11,-232.7"/>
</a>
</g>
</g>
<!-- Node13 -->
<g id="Node000013" class="node">
<title>Node13</title>
<g id="a_Node000013"><a xlink:href="../../d0/d59/futil_8c.html#a0de2e40df9bd7efc8fd9afb8ad2257e6" target="_top" xlink:title="safer alternative to strncpy">
<polygon fill="white" stroke="#666666" points="610.5,-68.59 542.75,-68.59 542.75,-47.84 610.5,-47.84 610.5,-68.59"/>
<text xml:space="preserve" text-anchor="middle" x="576.62" y="-55.09" font-family="Helvetica,sans-Serif" font-size="10.00">strnz__cpy</text>
</a>
</g>
</g>
<!-- Node2&#45;&gt;Node13 -->
<g id="edge16_Node000002_Node000013" class="edge">
<title>Node2&#45;&gt;Node13</title>
<g id="a_edge16_Node000002_Node000013"><a xlink:title=" ">
<path fill="none" stroke="#63b8ff" d="M136.39,-294.61C142.03,-270.25 158.7,-209.35 191.75,-170.21 223.55,-132.56 239.9,-130.09 285,-110.21 366.83,-74.14 472.12,-63.08 530.88,-59.7"/>
<polygon fill="#63b8ff" stroke="#63b8ff" points="531.02,-63.19 540.82,-59.18 530.66,-56.2 531.02,-63.19"/>
</a>
</g>
</g>
<!-- Node14 -->
<g id="Node000014" class="node">
<title>Node14</title>
<g id="a_Node000014"><a xlink:href="../../dc/d40/dwin_8c.html#a9dd598e1d49c8764af1eec42c682623e" target="_top" xlink:title="Delete the current window and its associated box window.">
<polygon fill="white" stroke="#666666" points="486.88,-296.59 433.38,-296.59 433.38,-275.84 486.88,-275.84 486.88,-296.59"/>
<text xml:space="preserve" text-anchor="middle" x="460.12" y="-283.09" font-family="Helvetica,sans-Serif" font-size="10.00">win_del</text>
</a>
</g>
</g>
<!-- Node2&#45;&gt;Node14 -->
<g id="edge17_Node000002_Node000014" class="edge">
<title>Node2&#45;&gt;Node14</title>
<g id="a_edge17_Node000002_Node000014"><a xlink:title=" ">
<path fill="none" stroke="#63b8ff" d="M156.21,-303.92C210.93,-300.72 353.29,-292.4 421.55,-288.41"/>
<polygon fill="#63b8ff" stroke="#63b8ff" points="421.72,-291.9 431.5,-287.83 421.31,-284.92 421.72,-291.9"/>
</a>
</g>
</g>
<!-- Node15 -->
<g id="Node000015" class="node">
<title>Node15</title>
<g id="a_Node000015"><a xlink:href="../../dc/d40/dwin_8c.html#a435c7bff7ffedb8f51c6de9259e36f6c" target="_top" xlink:title="Create a new window with optional box and title.">
<polygon fill="white" stroke="#666666" points="489.5,-29.59 430.75,-29.59 430.75,-8.84 489.5,-8.84 489.5,-29.59"/>
<text xml:space="preserve" text-anchor="middle" x="460.12" y="-16.09" font-family="Helvetica,sans-Serif" font-size="10.00">win_new</text>
</a>
</g>
</g>
<!-- Node2&#45;&gt;Node15 -->
<g id="edge18_Node000002_Node000015" class="edge">
<title>Node2&#45;&gt;Node15</title>
<g id="a_edge18_Node000002_Node000015"><a xlink:title=" ">
<path fill="none" stroke="#63b8ff" d="M134.85,-294.38C138.11,-249.31 152.95,-77.37 191.75,-43.21 254.75,12.25 361.43,1.56 419.16,-9.66"/>
<polygon fill="#63b8ff" stroke="#63b8ff" points="418.38,-13.07 428.88,-11.66 419.79,-6.22 418.38,-13.07"/>
</a>
</g>
</g>
<!-- Node17 -->
<g id="Node000017" class="node">
<title>Node17</title>
<g id="a_Node000017"><a xlink:href="../../dc/d40/dwin_8c.html#acf4c709bccc4c965a5d61db978db31a3" target="_top" xlink:title="Wrapper for wgetch that handles signals and mouse events.">
<polygon fill="white" stroke="#666666" points="249,-258.59 191.75,-258.59 191.75,-237.84 249,-237.84 249,-258.59"/>
<text xml:space="preserve" text-anchor="middle" x="220.38" y="-245.09" font-family="Helvetica,sans-Serif" font-size="10.00">xwgetch</text>
</a>
</g>
</g>
<!-- Node2&#45;&gt;Node17 -->
<g id="edge21_Node000002_Node000017" class="edge">
<title>Node2&#45;&gt;Node17</title>
<g id="a_edge21_Node000002_Node000017"><a xlink:title=" ">
<path fill="none" stroke="#63b8ff" d="M150.16,-294.49C162.47,-286.26 179.69,-274.74 193.88,-265.26"/>
<polygon fill="#63b8ff" stroke="#63b8ff" points="195.5,-268.39 201.86,-259.92 191.61,-262.57 195.5,-268.39"/>
</a>
</g>
</g>
<!-- Node4 -->
<g id="Node000004" class="node">
<title>Node4</title>
<g id="a_Node000004"><a xlink:href="../../dc/d40/dwin_8c.html#afc0985a403e3eac0b2cd8f0fab500256" target="_top" xlink:title="Gracefully shut down NCurses and restore terminal settings.">
<polygon fill="white" stroke="#666666" points="736,-411.59 646.5,-411.59 646.5,-390.84 736,-390.84 736,-411.59"/>
<text xml:space="preserve" text-anchor="middle" x="691.25" y="-398.09" font-family="Helvetica,sans-Serif" font-size="10.00">destroy_curses</text>
</a>
</g>
</g>
<!-- Node3&#45;&gt;Node4 -->
<g id="edge3_Node000003_Node000004" class="edge">
<title>Node3&#45;&gt;Node4</title>
<g id="a_edge3_Node000003_Node000004"><a xlink:title=" ">
<path fill="none" stroke="#63b8ff" d="M599.88,-401.21C609.99,-401.21 622.44,-401.21 634.84,-401.21"/>
<polygon fill="#63b8ff" stroke="#63b8ff" points="634.63,-404.71 644.63,-401.21 634.63,-397.71 634.63,-404.71"/>
</a>
</g>
</g>
<!-- Node5 -->
<g id="Node000005" class="node">
<title>Node5</title>
<g id="a_Node000005"><a xlink:href="../../d7/d72/scriou_8c.html#ac5e3adb304b78910fc77761ef6a743f0" target="_top" xlink:title="restore_shell_tioctl() &#45; restore shell terminal settings">
<polygon fill="white" stroke="#666666" points="881,-439.59 772,-439.59 772,-418.84 881,-418.84 881,-439.59"/>
<text xml:space="preserve" text-anchor="middle" x="826.5" y="-426.09" font-family="Helvetica,sans-Serif" font-size="10.00">restore_shell_tioctl</text>
</a>
</g>
</g>
<!-- Node3&#45;&gt;Node5 -->
<g id="edge6_Node000003_Node000005" class="edge">
<title>Node3&#45;&gt;Node5</title>
<g id="a_edge6_Node000003_Node000005"><a xlink:title=" ">
<path fill="none" stroke="#63b8ff" d="M600,-408.72C613.34,-412.86 630.7,-417.67 646.5,-420.21 683.9,-426.23 726.21,-428.56 760.3,-429.35"/>
<polygon fill="#63b8ff" stroke="#63b8ff" points="759.95,-432.85 770.01,-429.53 760.08,-425.85 759.95,-432.85"/>
</a>
</g>
</g>
<!-- Node6 -->
<g id="Node000006" class="node">
<title>Node6</title>
<g id="a_Node000006"><a xlink:href="../../da/d12/sig_8c.html#a06c1eb6cf3649dc187115565409f91af" target="_top" xlink:title="Set signal handlers to default behavior.">
<polygon fill="white" stroke="#666666" points="867.12,-391.59 785.88,-391.59 785.88,-370.84 867.12,-370.84 867.12,-391.59"/>
<text xml:space="preserve" text-anchor="middle" x="826.5" y="-378.09" font-family="Helvetica,sans-Serif" font-size="10.00">sig_dfl_mode</text>
</a>
</g>
</g>
<!-- Node3&#45;&gt;Node6 -->
<g id="edge7_Node000003_Node000006" class="edge">
<title>Node3&#45;&gt;Node6</title>
<g id="a_edge7_Node000003_Node000006"><a xlink:title=" ">
<path fill="none" stroke="#63b8ff" d="M599.96,-393.44C613.28,-389.21 630.65,-384.4 646.5,-382.21 689.28,-376.3 738.36,-376.51 774.29,-377.94"/>
<polygon fill="#63b8ff" stroke="#63b8ff" points="773.81,-381.42 783.96,-378.37 774.13,-374.43 773.81,-381.42"/>
</a>
</g>
</g>
<!-- Node4&#45;&gt;Node5 -->
<g id="edge4_Node000004_Node000005" class="edge">
<title>Node4&#45;&gt;Node5</title>
<g id="a_edge4_Node000004_Node000005"><a xlink:title=" ">
<path fill="none" stroke="#63b8ff" d="M736.25,-410.46C744.87,-412.27 754.07,-414.2 763.16,-416.11"/>
<polygon fill="#63b8ff" stroke="#63b8ff" points="762.16,-419.48 772.67,-418.11 763.6,-412.63 762.16,-419.48"/>
</a>
</g>
</g>
<!-- Node4&#45;&gt;Node6 -->
<g id="edge5_Node000004_Node000006" class="edge">
<title>Node4&#45;&gt;Node6</title>
<g id="a_edge5_Node000004_Node000006"><a xlink:title=" ">
<path fill="none" stroke="#63b8ff" d="M736.25,-394.61C748.44,-392.78 761.77,-390.78 774.33,-388.89"/>
<polygon fill="#63b8ff" stroke="#63b8ff" points="774.73,-392.37 784.1,-387.42 773.69,-385.45 774.73,-392.37"/>
</a>
</g>
</g>
<!-- Node8 -->
<g id="Node000008" class="node">
<title>Node8</title>
<g id="a_Node000008"><a xlink:href="../../d0/d59/futil_8c.html#aa0145c044cfdde3a1c83323410a59f25" target="_top" xlink:title="safer alternative to strncat">
<polygon fill="white" stroke="#666666" points="609.38,-487.59 543.88,-487.59 543.88,-466.84 609.38,-466.84 609.38,-487.59"/>
<text xml:space="preserve" text-anchor="middle" x="576.62" y="-474.09" font-family="Helvetica,sans-Serif" font-size="10.00">strnz__cat</text>
</a>
</g>
</g>
<!-- Node7&#45;&gt;Node8 -->
<g id="edge9_Node000007_Node000008" class="edge">
<title>Node7&#45;&gt;Node8</title>
<g id="a_edge9_Node000007_Node000008"><a xlink:title=" ">
<path fill="none" stroke="#63b8ff" d="M507.04,-477.21C515.33,-477.21 523.94,-477.21 532.16,-477.21"/>
<polygon fill="#63b8ff" stroke="#63b8ff" points="531.92,-480.71 541.92,-477.21 531.92,-473.71 531.92,-480.71"/>
</a>
</g>
</g>
<!-- Node10&#45;&gt;Node3 -->
<g id="edge12_Node000010_Node000003" class="edge">
<title>Node10&#45;&gt;Node3</title>
<g id="a_edge12_Node000010_Node000003"><a xlink:title=" ">
<path fill="none" stroke="#63b8ff" d="M497.67,-401.21C511.99,-401.21 528.3,-401.21 542.29,-401.21"/>
<polygon fill="#63b8ff" stroke="#63b8ff" points="541.89,-404.71 551.89,-401.21 541.89,-397.71 541.89,-404.71"/>
</a>
</g>
</g>
<!-- Node11&#45;&gt;Node12 -->
<g id="edge14_Node000011_Node000012" class="edge">
<title>Node11&#45;&gt;Node12</title>
<g id="a_edge14_Node000011_Node000012"><a xlink:title=" ">
<path fill="none" stroke="#63b8ff" d="M491.87,-105.99C497.12,-108.56 502.31,-111.63 506.75,-115.21 532.41,-135.89 553.15,-168.38 564.94,-189.49"/>
<polygon fill="#63b8ff" stroke="#63b8ff" points="561.72,-190.89 569.54,-198.03 567.88,-187.57 561.72,-190.89"/>
</a>
</g>
</g>
<!-- Node15&#45;&gt;Node13 -->
<g id="edge20_Node000015_Node000013" class="edge">
<title>Node15&#45;&gt;Node13</title>
<g id="a_edge20_Node000015_Node000013"><a xlink:title=" ">
<path fill="none" stroke="#63b8ff" d="M489.72,-28.95C502.81,-33.41 518.6,-38.79 533.04,-43.71"/>
<polygon fill="#63b8ff" stroke="#63b8ff" points="531.74,-46.96 542.33,-46.87 533.99,-40.33 531.74,-46.96"/>
</a>
</g>
</g>
<!-- Node16 -->
<g id="Node000016" class="node">
<title>Node16</title>
<g id="a_Node000016"><a xlink:href="../../dc/d40/dwin_8c.html#ac9adcf7339be4a05ab1a7350c236b8a5" target="_top" xlink:title="Draw a box around the specified window.">
<polygon fill="white" stroke="#666666" points="596.25,-29.59 557,-29.59 557,-8.84 596.25,-8.84 596.25,-29.59"/>
<text xml:space="preserve" text-anchor="middle" x="576.62" y="-16.09" font-family="Helvetica,sans-Serif" font-size="10.00">cbox</text>
</a>
</g>
</g>
<!-- Node15&#45;&gt;Node16 -->
<g id="edge19_Node000015_Node000016" class="edge">
<title>Node15&#45;&gt;Node16</title>
<g id="a_edge19_Node000015_Node000016"><a xlink:title=" ">
<path fill="none" stroke="#63b8ff" d="M489.72,-19.21C506.65,-19.21 528.07,-19.21 545.29,-19.21"/>
<polygon fill="#63b8ff" stroke="#63b8ff" points="545.19,-22.71 555.19,-19.21 545.19,-15.71 545.19,-22.71"/>
</a>
</g>
</g>
<!-- Node18 -->
<g id="Node000018" class="node">
<title>Node18</title>
<g id="a_Node000018"><a xlink:href="../../dc/d40/dwin_8c.html#a67659f8a701b74f4dec0d36227a10d1c" target="_top" xlink:title="Display an error message window or print to stderr.">
<polygon fill="white" stroke="#666666" points="371.12,-258.59 291.38,-258.59 291.38,-237.84 371.12,-237.84 371.12,-258.59"/>
<text xml:space="preserve" text-anchor="middle" x="331.25" y="-245.09" font-family="Helvetica,sans-Serif" font-size="10.00">display_error</text>
</a>
</g>
</g>
<!-- Node17&#45;&gt;Node18 -->
<g id="edge22_Node000017_Node000018" class="edge">
<title>Node17&#45;&gt;Node18</title>
<g id="a_edge22_Node000017_Node000018"><a xlink:title=" ">
<path fill="none" stroke="#63b8ff" d="M249.41,-242.22C258.76,-241.64 269.48,-241.39 279.98,-241.48"/>
<polygon fill="#63b8ff" stroke="#63b8ff" points="279.65,-244.97 289.72,-241.68 279.79,-237.97 279.65,-244.97"/>
</a>
</g>
</g>
<!-- Node20 -->
<g id="Node000020" class="node">
<title>Node20</title>
<g id="a_Node000020"><a xlink:href="../../dc/d40/dwin_8c.html#a4298f891699300bfc4e6e56fd2a8d574" target="_top" xlink:title="Get keycode from chyron.">
<polygon fill="white" stroke="#666666" points="377.5,-180.59 285,-180.59 285,-159.84 377.5,-159.84 377.5,-180.59"/>
<text xml:space="preserve" text-anchor="middle" x="331.25" y="-167.09" font-family="Helvetica,sans-Serif" font-size="10.00">get_chyron_key</text>
</a>
</g>
</g>
<!-- Node17&#45;&gt;Node20 -->
<g id="edge34_Node000017_Node000020" class="edge">
<title>Node17&#45;&gt;Node20</title>
<g id="a_edge34_Node000017_Node000020"><a xlink:title=" ">
<path fill="none" stroke="#63b8ff" d="M230.88,-237.67C242.64,-225.11 263.71,-204.09 285,-190.21 287.25,-188.75 289.62,-187.34 292.05,-186"/>
<polygon fill="#63b8ff" stroke="#63b8ff" points="293.51,-189.19 300.88,-181.58 290.37,-182.93 293.51,-189.19"/>
</a>
</g>
</g>
<!-- Node21 -->
<g id="Node000021" class="node">
<title>Node21</title>
<g id="a_Node000021"><a xlink:href="../../d0/d6b/cm_8h.html#a0667873879b5846c3fe2fa2cc96059d6" target="_top" xlink:title=" ">
<polygon fill="white" stroke="#666666" points="373,-219.59 289.5,-219.59 289.5,-198.84 373,-198.84 373,-219.59"/>
<text xml:space="preserve" text-anchor="middle" x="331.25" y="-206.09" font-family="Helvetica,sans-Serif" font-size="10.00">handle_signal</text>
</a>
</g>
</g>
<!-- Node17&#45;&gt;Node21 -->
<g id="edge35_Node000017_Node000021" class="edge">
<title>Node17&#45;&gt;Node21</title>
<g id="a_edge35_Node000017_Node000021"><a xlink:title=" ">
<path fill="none" stroke="#63b8ff" d="M249.41,-238.17C261.52,-233.83 275.93,-228.67 289.21,-223.91"/>
<polygon fill="#63b8ff" stroke="#63b8ff" points="290.36,-227.22 298.59,-220.55 288,-220.63 290.36,-227.22"/>
</a>
</g>
</g>
<!-- Node18&#45;&gt;Node3 -->
<g id="edge23_Node000018_Node000003" class="edge">
<title>Node18&#45;&gt;Node3</title>
<g id="a_edge23_Node000018_Node000003"><a xlink:title=" ">
<path fill="none" stroke="#63b8ff" d="M371.58,-242.47C409.54,-239.08 466.95,-239.85 506.75,-267.21 545.4,-293.78 563.69,-348.86 571.19,-379.49"/>
<polygon fill="#63b8ff" stroke="#63b8ff" points="567.75,-380.15 573.36,-389.14 574.58,-378.61 567.75,-380.15"/>
</a>
</g>
</g>
<!-- Node18&#45;&gt;Node7 -->
<g id="edge24_Node000018_Node000007" class="edge">
<title>Node18&#45;&gt;Node7</title>
<g id="a_edge24_Node000018_Node000007"><a xlink:title=" ">
<path fill="none" stroke="#63b8ff" d="M336.21,-258.73C346.81,-286.29 377.47,-362.5 413.5,-420.21 421.81,-433.52 432.74,-447.28 441.83,-457.94"/>
<polygon fill="#63b8ff" stroke="#63b8ff" points="439.02,-460.05 448.23,-465.29 444.3,-455.45 439.02,-460.05"/>
</a>
</g>
</g>
<!-- Node18&#45;&gt;Node9 -->
<g id="edge25_Node000018_Node000009" class="edge">
<title>Node18&#45;&gt;Node9</title>
<g id="a_edge25_Node000018_Node000009"><a xlink:title=" ">
<path fill="none" stroke="#63b8ff" d="M345.79,-258.97C361.49,-271.14 388.42,-291.1 413.5,-305.21 416.16,-306.71 418.96,-308.18 421.81,-309.59"/>
<polygon fill="#63b8ff" stroke="#63b8ff" points="420.24,-312.72 430.78,-313.8 423.22,-306.39 420.24,-312.72"/>
</a>
</g>
</g>
<!-- Node18&#45;&gt;Node10 -->
<g id="edge26_Node000018_Node000010" class="edge">
<title>Node18&#45;&gt;Node10</title>
<g id="a_edge26_Node000018_Node000010"><a xlink:title=" ">
<path fill="none" stroke="#63b8ff" d="M340.97,-258.73C362.07,-284.17 416.11,-349.33 443.17,-381.97"/>
<polygon fill="#63b8ff" stroke="#63b8ff" points="440.3,-383.99 449.38,-389.46 445.69,-379.52 440.3,-383.99"/>
</a>
</g>
</g>
<!-- Node18&#45;&gt;Node11 -->
<g id="edge27_Node000018_Node000011" class="edge">
<title>Node18&#45;&gt;Node11</title>
<g id="a_edge27_Node000018_Node000011"><a xlink:title=" ">
<path fill="none" stroke="#63b8ff" d="M365.61,-237.48C370.03,-234.97 374.17,-231.92 377.5,-228.21 412.71,-188.99 378.23,-154.38 413.5,-115.21 414.34,-114.28 415.23,-113.39 416.16,-112.54"/>
<polygon fill="#63b8ff" stroke="#63b8ff" points="418.13,-115.43 424.25,-106.78 414.08,-109.73 418.13,-115.43"/>
</a>
</g>
</g>
<!-- Node18&#45;&gt;Node12 -->
<g id="edge28_Node000018_Node000012" class="edge">
<title>Node18&#45;&gt;Node12</title>
<g id="a_edge28_Node000018_Node000012"><a xlink:title=" ">
<path fill="none" stroke="#63b8ff" d="M371.48,-241.26C384.8,-238.95 399.79,-236.41 413.5,-234.21 455.04,-227.56 502.67,-220.58 535.5,-215.88"/>
<polygon fill="#63b8ff" stroke="#63b8ff" points="535.99,-219.35 545.39,-214.47 535,-212.42 535.99,-219.35"/>
</a>
</g>
</g>
<!-- Node18&#45;&gt;Node13 -->
<g id="edge30_Node000018_Node000013" class="edge">
<title>Node18&#45;&gt;Node13</title>
<g id="a_edge30_Node000018_Node000013"><a xlink:title=" ">
<path fill="none" stroke="#63b8ff" d="M361.42,-237.34C398.34,-222.53 462.47,-193.21 506.75,-153.21 530.97,-131.33 551.85,-99.63 564.08,-78.97"/>
<polygon fill="#63b8ff" stroke="#63b8ff" points="567.1,-80.75 569.06,-70.33 561.03,-77.25 567.1,-80.75"/>
</a>
</g>
</g>
<!-- Node18&#45;&gt;Node14 -->
<g id="edge31_Node000018_Node000014" class="edge">
<title>Node18&#45;&gt;Node14</title>
<g id="a_edge31_Node000018_Node000014"><a xlink:title=" ">
<path fill="none" stroke="#63b8ff" d="M368.27,-259C385.22,-264.07 405.4,-270.12 422.43,-275.22"/>
<polygon fill="#63b8ff" stroke="#63b8ff" points="421.07,-278.47 431.65,-277.98 423.08,-271.76 421.07,-278.47"/>
</a>
</g>
</g>
<!-- Node18&#45;&gt;Node15 -->
<g id="edge32_Node000018_Node000015" class="edge">
<title>Node18&#45;&gt;Node15</title>
<g id="a_edge32_Node000018_Node000015"><a xlink:title=" ">
<path fill="none" stroke="#63b8ff" d="M366.32,-237.44C370.53,-234.95 374.43,-231.91 377.5,-228.21 421.88,-174.83 383.07,-138.61 413.5,-76.21 420.29,-62.29 430.99,-48.67 440.33,-38.24"/>
<polygon fill="#63b8ff" stroke="#63b8ff" points="442.75,-40.77 447.01,-31.07 437.63,-35.99 442.75,-40.77"/>
</a>
</g>
</g>
<!-- Node18&#45;&gt;Node17 -->
<g id="edge33_Node000018_Node000017" class="edge">
<title>Node18&#45;&gt;Node17</title>
<g id="a_edge33_Node000018_Node000017"><a xlink:title=" ">
<path fill="none" stroke="#63b8ff" d="M291.23,-254.71C281.29,-255.04 270.61,-255.04 260.67,-254.72"/>
<polygon fill="#63b8ff" stroke="#63b8ff" points="261.08,-251.24 250.92,-254.27 260.75,-258.23 261.08,-251.24"/>
</a>
</g>
</g>
<!-- Node19 -->
<g id="Node000019" class="node">
<title>Node19</title>
<g id="a_Node000019"><a xlink:href="../../d0/d59/futil_8c.html#a636608f26d1193b5d860f2312cd8ee49" target="_top" xlink:title="terminates string at New Line, Carriage Return, or max_len">
<polygon fill="white" stroke="#666666" points="480.12,-144.59 440.12,-144.59 440.12,-123.84 480.12,-123.84 480.12,-144.59"/>
<text xml:space="preserve" text-anchor="middle" x="460.12" y="-131.09" font-family="Helvetica,sans-Serif" font-size="10.00">strnz</text>
</a>
</g>
</g>
<!-- Node18&#45;&gt;Node19 -->
<g id="edge29_Node000018_Node000019" class="edge">
<title>Node18&#45;&gt;Node19</title>
<g id="a_edge29_Node000018_Node000019"><a xlink:title=" ">
<path fill="none" stroke="#63b8ff" d="M364.15,-237.46C368.97,-234.92 373.63,-231.86 377.5,-228.21 402.95,-204.21 388.88,-183.06 413.5,-158.21 418.07,-153.6 423.71,-149.68 429.44,-146.42"/>
<polygon fill="#63b8ff" stroke="#63b8ff" points="430.96,-149.58 438.32,-141.96 427.81,-143.32 430.96,-149.58"/>
</a>
</g>
</g>
</g>
</svg>
