<?xml version="1.0" encoding="UTF-8" standalone="no"?>
<!DOCTYPE svg PUBLIC "-//W3C//DTD SVG 1.1//EN"
 "http://www.w3.org/Graphics/SVG/1.1/DTD/svg11.dtd">
<!-- Generated by graphviz version 14.1.2 (0)
 -->
<!-- Title: lp Pages: 1 -->
<svg width="1160pt" height="745pt"
 viewBox="0.00 0.00 1160.00 745.00" xmlns="http://www.w3.org/2000/svg" xmlns:xlink="http://www.w3.org/1999/xlink">
<g id="graph0" class="graph" transform="scale(1 1) rotate(0) translate(4 741.38)">
<title>lp</title>
<!-- Node1 -->
<g id="Node000001" class="node">
<title>Node1</title>
<g id="a_Node000001"><a xlink:title="Send File to Print Queue.">
<polygon fill="#999999" stroke="#666666" points="28.8,-230.75 0,-230.75 0,-210 28.8,-210 28.8,-230.75"/>
<text xml:space="preserve" text-anchor="middle" x="14.4" y="-217.25" font-family="Helvetica,sans-Serif" font-size="10.00">lp</text>
</a>
</g>
</g>
<!-- Node2 -->
<g id="Node000002" class="node">
<title>Node2</title>
<g id="a_Node000002"><a xlink:href="../../d4/dc1/src_2view__engine_8c.html#a5a1709eaa7dd8a6dec494455146f1be1" target="_top" xlink:title="Display Command Line Prompt.">
<polygon fill="white" stroke="#666666" points="240.8,-498.75 140.05,-498.75 140.05,-478 240.8,-478 240.8,-498.75"/>
<text xml:space="preserve" text-anchor="middle" x="190.43" y="-485.25" font-family="Helvetica,sans-Serif" font-size="10.00">cmd_line_prompt</text>
</a>
</g>
</g>
<!-- Node1&#45;&gt;Node2 -->
<g id="edge1_Node000001_Node000002" class="edge">
<title>Node1&#45;&gt;Node2</title>
<g id="a_edge1_Node000001_Node000002"><a xlink:title=" ">
<path fill="none" stroke="#63b8ff" d="M22.44,-231.21C48.79,-271.79 141.86,-415.13 176.4,-468.32"/>
<polygon fill="#63b8ff" stroke="#63b8ff" points="173.28,-469.95 181.67,-476.43 179.16,-466.13 173.28,-469.95"/>
</a>
</g>
</g>
<!-- Node4 -->
<g id="Node000004" class="node">
<title>Node4</title>
<g id="a_Node000004"><a xlink:href="../../df/dc9/exec_8c.html#a5c3ffccf49f08359334198f7fce3f9df" target="_top" xlink:title="Execute a shell command.">
<polygon fill="white" stroke="#666666" points="104.05,-211.75 64.8,-211.75 64.8,-191 104.05,-191 104.05,-211.75"/>
<text xml:space="preserve" text-anchor="middle" x="84.43" y="-198.25" font-family="Helvetica,sans-Serif" font-size="10.00">shell</text>
</a>
</g>
</g>
<!-- Node1&#45;&gt;Node4 -->
<g id="edge3_Node000001_Node000004" class="edge">
<title>Node1&#45;&gt;Node4</title>
<g id="a_edge3_Node000001_Node000004"><a xlink:title=" ">
<path fill="none" stroke="#63b8ff" d="M29.17,-216.53C36.24,-214.55 45.15,-212.07 53.69,-209.68"/>
<polygon fill="#63b8ff" stroke="#63b8ff" points="54.38,-213.12 63.07,-207.06 52.49,-206.38 54.38,-213.12"/>
</a>
</g>
</g>
<!-- Node3 -->
<g id="Node000003" class="node">
<title>Node3</title>
<g id="a_Node000003"><a xlink:href="../../d0/d59/futil_8c.html#a0de2e40df9bd7efc8fd9afb8ad2257e6" target="_top" xlink:title="safer alternative to strncpy">
<polygon fill="white" stroke="#666666" points="881.05,-652.75 813.3,-652.75 813.3,-632 881.05,-632 881.05,-652.75"/>
<text xml:space="preserve" text-anchor="middle" x="847.18" y="-639.25" font-family="Helvetica,sans-Serif" font-size="10.00">strnz__cpy</text>
</a>
</g>
</g>
<!-- Node2&#45;&gt;Node3 -->
<g id="edge2_Node000002_Node000003" class="edge">
<title>Node2&#45;&gt;Node3</title>
<g id="a_edge2_Node000002_Node000003"><a xlink:title=" ">
<path fill="none" stroke="#63b8ff" d="M203.48,-499C246.98,-536.4 401.5,-661 555.55,-685.38 581.59,-689.5 774.44,-683.18 777.3,-682.38 793.68,-677.76 810.24,-668.33 823.01,-659.79"/>
<polygon fill="#63b8ff" stroke="#63b8ff" points="824.94,-662.71 831.12,-654.11 820.92,-656.98 824.94,-662.71"/>
</a>
</g>
</g>
<!-- Node5 -->
<g id="Node000005" class="node">
<title>Node5</title>
<g id="a_Node000005"><a xlink:href="../../df/dc9/exec_8c.html#a386fad82c5208c7d3b2a5060882974f3" target="_top" xlink:title="Fork and exec a command.">
<polygon fill="white" stroke="#666666" points="222.43,-211.75 158.43,-211.75 158.43,-191 222.43,-191 222.43,-211.75"/>
<text xml:space="preserve" text-anchor="middle" x="190.43" y="-198.25" font-family="Helvetica,sans-Serif" font-size="10.00">fork_exec</text>
</a>
</g>
</g>
<!-- Node4&#45;&gt;Node5 -->
<g id="edge4_Node000004_Node000005" class="edge">
<title>Node4&#45;&gt;Node5</title>
<g id="a_edge4_Node000004_Node000005"><a xlink:title=" ">
<path fill="none" stroke="#63b8ff" d="M104.5,-201.38C116.35,-201.38 132.06,-201.38 146.75,-201.38"/>
<polygon fill="#63b8ff" stroke="#63b8ff" points="146.71,-204.88 156.71,-201.38 146.71,-197.88 146.71,-204.88"/>
</a>
</g>
</g>
<!-- Node6 -->
<g id="Node000006" class="node">
<title>Node6</title>
<g id="a_Node000006"><a xlink:href="../../d7/d72/scriou_8c.html#a4d0a6767e791cf93a268ebe9ba02aa24" target="_top" xlink:title="capture_curses_tioctl() &#45; capture curses terminal settings">
<polygon fill="white" stroke="#666666" points="396.3,-421.75 276.8,-421.75 276.8,-401 396.3,-401 396.3,-421.75"/>
<text xml:space="preserve" text-anchor="middle" x="336.55" y="-408.25" font-family="Helvetica,sans-Serif" font-size="10.00">capture_curses_tioctl</text>
</a>
</g>
</g>
<!-- Node5&#45;&gt;Node6 -->
<g id="edge5_Node000005_Node000006" class="edge">
<title>Node5&#45;&gt;Node6</title>
<g id="a_edge5_Node000005_Node000006"><a xlink:title=" ">
<path fill="none" stroke="#63b8ff" d="M193.18,-212.16C198.96,-244.25 220.36,-340.02 276.8,-391.38 278.07,-392.53 279.41,-393.62 280.81,-394.65"/>
<polygon fill="#63b8ff" stroke="#63b8ff" points="279.01,-397.65 289.39,-399.78 282.6,-391.64 279.01,-397.65"/>
</a>
</g>
</g>
<!-- Node7 -->
<g id="Node000007" class="node">
<title>Node7</title>
<g id="a_Node000007"><a xlink:href="../../dc/d40/dwin_8c.html#a61b4f28456257f68ed042bed7f187efd" target="_top" xlink:title="Display a simple error message window or print to stderr.">
<polygon fill="white" stroke="#666666" points="359.18,-382.75 313.93,-382.75 313.93,-362 359.18,-362 359.18,-382.75"/>
<text xml:space="preserve" text-anchor="middle" x="336.55" y="-369.25" font-family="Helvetica,sans-Serif" font-size="10.00">Perror</text>
</a>
</g>
</g>
<!-- Node5&#45;&gt;Node7 -->
<g id="edge6_Node000005_Node000007" class="edge">
<title>Node5&#45;&gt;Node7</title>
<g id="a_edge6_Node000005_Node000007"><a xlink:title=" ">
<path fill="none" stroke="#63b8ff" d="M200.44,-212.07C224.2,-240.26 288.79,-316.9 319.24,-353.03"/>
<polygon fill="#63b8ff" stroke="#63b8ff" points="316.44,-355.13 325.56,-360.52 321.79,-350.62 316.44,-355.13"/>
</a>
</g>
</g>
<!-- Node10 -->
<g id="Node000010" class="node">
<title>Node10</title>
<g id="a_Node000010"><a xlink:href="../../d7/d72/scriou_8c.html#ac5e3adb304b78910fc77761ef6a743f0" target="_top" xlink:title="restore_shell_tioctl() &#45; restore shell terminal settings">
<polygon fill="white" stroke="#666666" points="1151.55,-174.75 1042.55,-174.75 1042.55,-154 1151.55,-154 1151.55,-174.75"/>
<text xml:space="preserve" text-anchor="middle" x="1097.05" y="-161.25" font-family="Helvetica,sans-Serif" font-size="10.00">restore_shell_tioctl</text>
</a>
</g>
</g>
<!-- Node5&#45;&gt;Node10 -->
<g id="edge42_Node000005_Node000010" class="edge">
<title>Node5&#45;&gt;Node10</title>
<g id="a_edge42_Node000005_Node000010"><a xlink:title=" ">
<path fill="none" stroke="#63b8ff" d="M204.55,-190.72C220.69,-178.08 249.32,-157.13 276.8,-144.38 359.92,-105.81 383.3,-87.38 474.93,-87.38 474.93,-87.38 474.93,-87.38 848.18,-87.38 929.73,-87.38 1019.87,-125.86 1065.68,-148.42"/>
<polygon fill="#63b8ff" stroke="#63b8ff" points="1063.96,-151.47 1074.47,-152.83 1067.1,-145.21 1063.96,-151.47"/>
</a>
</g>
</g>
<!-- Node11 -->
<g id="Node000011" class="node">
<title>Node11</title>
<g id="a_Node000011"><a xlink:href="../../da/d12/sig_8c.html#a06c1eb6cf3649dc187115565409f91af" target="_top" xlink:title="Set signal handlers to default behavior.">
<polygon fill="white" stroke="#666666" points="1137.68,-250.75 1056.43,-250.75 1056.43,-230 1137.68,-230 1137.68,-250.75"/>
<text xml:space="preserve" text-anchor="middle" x="1097.05" y="-237.25" font-family="Helvetica,sans-Serif" font-size="10.00">sig_dfl_mode</text>
</a>
</g>
</g>
<!-- Node5&#45;&gt;Node11 -->
<g id="edge44_Node000005_Node000011" class="edge">
<title>Node5&#45;&gt;Node11</title>
<g id="a_edge44_Node000005_Node000011"><a xlink:title=" ">
<path fill="none" stroke="#63b8ff" d="M193.75,-212.25C206.35,-268.33 271.86,-526.79 432.3,-645.38 462.84,-667.95 725.28,-737.38 729.68,-737.38 729.68,-737.38 729.68,-737.38 848.18,-737.38 1063.42,-737.38 1091.76,-359.44 1095.49,-262.71"/>
<polygon fill="#63b8ff" stroke="#63b8ff" points="1098.98,-262.84 1095.81,-252.73 1091.99,-262.61 1098.98,-262.84"/>
</a>
</g>
</g>
<!-- Node17 -->
<g id="Node000017" class="node">
<title>Node17</title>
<g id="a_Node000017"><a xlink:href="../../d0/d59/futil_8c.html#a63eb94756fb011a456a3dec900709cd8" target="_top" xlink:title="ssnprintf was designed to be a safer alternative to snprintf.">
<polygon fill="white" stroke="#666666" points="876.55,-327.75 817.8,-327.75 817.8,-307 876.55,-307 876.55,-327.75"/>
<text xml:space="preserve" text-anchor="middle" x="847.18" y="-314.25" font-family="Helvetica,sans-Serif" font-size="10.00">ssnprintf</text>
</a>
</g>
</g>
<!-- Node5&#45;&gt;Node17 -->
<g id="edge48_Node000005_Node000017" class="edge">
<title>Node5&#45;&gt;Node17</title>
<g id="a_edge48_Node000005_Node000017"><a xlink:title=" ">
<path fill="none" stroke="#63b8ff" d="M222.77,-198.89C329.92,-190.93 680.38,-169.52 777.3,-221.38 807.32,-237.44 827.36,-273.02 837.75,-296.06"/>
<polygon fill="#63b8ff" stroke="#63b8ff" points="834.46,-297.28 841.59,-305.12 840.91,-294.55 834.46,-297.28"/>
</a>
</g>
</g>
<!-- Node26 -->
<g id="Node000026" class="node">
<title>Node26</title>
<g id="a_Node000026"><a xlink:href="../../d7/d72/scriou_8c.html#a1c8e0f0a02e08c783231a20093fb8410" target="_top" xlink:title="restore_curses_tioctl() &#45; restore curses terminal settings">
<polygon fill="white" stroke="#666666" points="395.18,-59.75 277.93,-59.75 277.93,-39 395.18,-39 395.18,-59.75"/>
<text xml:space="preserve" text-anchor="middle" x="336.55" y="-46.25" font-family="Helvetica,sans-Serif" font-size="10.00">restore_curses_tioctl</text>
</a>
</g>
</g>
<!-- Node5&#45;&gt;Node26 -->
<g id="edge41_Node000005_Node000026" class="edge">
<title>Node5&#45;&gt;Node26</title>
<g id="a_edge41_Node000005_Node000026"><a xlink:title=" ">
<path fill="none" stroke="#63b8ff" d="M195.96,-190.53C206.59,-166.29 235.43,-107.18 276.8,-73.38 280.65,-70.23 284.96,-67.45 289.46,-65"/>
<polygon fill="#63b8ff" stroke="#63b8ff" points="290.64,-68.32 298.13,-60.82 287.6,-62.01 290.64,-68.32"/>
</a>
</g>
</g>
<!-- Node27 -->
<g id="Node000027" class="node">
<title>Node27</title>
<g id="a_Node000027"><a xlink:href="../../dc/d40/dwin_8c.html#a40858af5b0d68549fb483f77c97eb82c" target="_top" xlink:title="Restore all windows after a screen resize.">
<polygon fill="white" stroke="#666666" points="375.68,-20.75 297.43,-20.75 297.43,0 375.68,0 375.68,-20.75"/>
<text xml:space="preserve" text-anchor="middle" x="336.55" y="-7.25" font-family="Helvetica,sans-Serif" font-size="10.00">restore_wins</text>
</a>
</g>
</g>
<!-- Node5&#45;&gt;Node27 -->
<g id="edge43_Node000005_Node000027" class="edge">
<title>Node5&#45;&gt;Node27</title>
<g id="a_edge43_Node000005_Node000027"><a xlink:title=" ">
<path fill="none" stroke="#63b8ff" d="M193.72,-190.81C200.72,-161.1 224.57,-76 276.8,-30.38 279.81,-27.74 283.19,-25.45 286.76,-23.46"/>
<polygon fill="#63b8ff" stroke="#63b8ff" points="288.22,-26.64 295.81,-19.25 285.27,-20.3 288.22,-26.64"/>
</a>
</g>
</g>
<!-- Node28 -->
<g id="Node000028" class="node">
<title>Node28</title>
<g id="a_Node000028"><a xlink:href="../../da/d12/sig_8c.html#aca2de03f6d52d4b11237990e4e605177" target="_top" xlink:title="Set up signal handlers for interrupt signals.">
<polygon fill="white" stroke="#666666" points="381.68,-173.75 291.43,-173.75 291.43,-153 381.68,-153 381.68,-173.75"/>
<text xml:space="preserve" text-anchor="middle" x="336.55" y="-160.25" font-family="Helvetica,sans-Serif" font-size="10.00">sig_prog_mode</text>
</a>
</g>
</g>
<!-- Node5&#45;&gt;Node28 -->
<g id="edge45_Node000005_Node000028" class="edge">
<title>Node5&#45;&gt;Node28</title>
<g id="a_edge45_Node000005_Node000028"><a xlink:title=" ">
<path fill="none" stroke="#63b8ff" d="M222.7,-193.13C240.44,-188.45 263.1,-182.48 283.46,-177.11"/>
<polygon fill="#63b8ff" stroke="#63b8ff" points="284.24,-180.52 293.02,-174.59 282.46,-173.75 284.24,-180.52"/>
</a>
</g>
</g>
<!-- Node7&#45;&gt;Node3 -->
<g id="edge21_Node000007_Node000003" class="edge">
<title>Node7&#45;&gt;Node3</title>
<g id="a_edge21_Node000007_Node000003"><a xlink:title=" ">
<path fill="none" stroke="#63b8ff" d="M359.63,-374.39C372.21,-376.72 387.21,-381.71 396.3,-392.38 458.01,-464.78 369.81,-531.64 432.3,-603.38 524.52,-709.23 715.54,-676.74 801.98,-655.02"/>
<polygon fill="#63b8ff" stroke="#63b8ff" points="802.7,-658.45 811.51,-652.56 800.95,-651.68 802.7,-658.45"/>
</a>
</g>
</g>
<!-- Node8 -->
<g id="Node000008" class="node">
<title>Node8</title>
<g id="a_Node000008"><a xlink:href="../../dc/d40/dwin_8c.html#a8f6c45ca4a7f6a41c4c88314e697565a" target="_top" xlink:title="Abnormal program termination.">
<polygon fill="white" stroke="#666666" points="870.18,-212.75 824.18,-212.75 824.18,-192 870.18,-192 870.18,-212.75"/>
<text xml:space="preserve" text-anchor="middle" x="847.18" y="-199.25" font-family="Helvetica,sans-Serif" font-size="10.00">abend</text>
</a>
</g>
</g>
<!-- Node7&#45;&gt;Node8 -->
<g id="edge7_Node000007_Node000008" class="edge">
<title>Node7&#45;&gt;Node8</title>
<g id="a_edge7_Node000007_Node000008"><a xlink:title=" ">
<path fill="none" stroke="#63b8ff" d="M343.86,-361.81C357.24,-340.41 390.66,-292 432.3,-268.38 558.19,-196.96 738.34,-196.68 812.41,-200.1"/>
<polygon fill="#63b8ff" stroke="#63b8ff" points="812.08,-203.59 822.25,-200.62 812.45,-196.6 812.08,-203.59"/>
</a>
</g>
</g>
<!-- Node12 -->
<g id="Node000012" class="node">
<title>Node12</title>
<g id="a_Node000012"><a xlink:href="../../dc/d40/dwin_8c.html#a645871e46277e31736bc36d0f3dce4bd" target="_top" xlink:title="construct the chyron string from the chyron structure">
<polygon fill="white" stroke="#666666" points="777.3,-555.75 684.05,-555.75 684.05,-535 777.3,-535 777.3,-555.75"/>
<text xml:space="preserve" text-anchor="middle" x="730.68" y="-542.25" font-family="Helvetica,sans-Serif" font-size="10.00">compile_chyron</text>
</a>
</g>
</g>
<!-- Node7&#45;&gt;Node12 -->
<g id="edge13_Node000007_Node000012" class="edge">
<title>Node7&#45;&gt;Node12</title>
<g id="a_edge13_Node000007_Node000012"><a xlink:title=" ">
<path fill="none" stroke="#63b8ff" d="M359.49,-375.19C371.7,-377.79 386.38,-382.79 396.3,-392.38 428.77,-423.75 399.49,-456.35 432.3,-487.38 496.97,-548.53 606.07,-554.18 672.61,-550.98"/>
<polygon fill="#63b8ff" stroke="#63b8ff" points="672.42,-554.5 682.2,-550.44 672.02,-547.51 672.42,-554.5"/>
</a>
</g>
</g>
<!-- Node14 -->
<g id="Node000014" class="node">
<title>Node14</title>
<g id="a_Node000014"><a xlink:href="../../dc/d40/dwin_8c.html#a3f3feb40fd703913c5c136331f627c91" target="_top" xlink:title="Destroy Chyron structure.">
<polygon fill="white" stroke="#666666" points="776.18,-326.75 685.18,-326.75 685.18,-306 776.18,-306 776.18,-326.75"/>
<text xml:space="preserve" text-anchor="middle" x="730.68" y="-313.25" font-family="Helvetica,sans-Serif" font-size="10.00">destroy_chyron</text>
</a>
</g>
</g>
<!-- Node7&#45;&gt;Node14 -->
<g id="edge15_Node000007_Node000014" class="edge">
<title>Node7&#45;&gt;Node14</title>
<g id="a_edge15_Node000007_Node000014"><a xlink:title=" ">
<path fill="none" stroke="#63b8ff" d="M359.41,-369.5C410.15,-362.8 539.86,-345.48 648.05,-329.38 656.34,-328.14 665.1,-326.79 673.67,-325.45"/>
<polygon fill="#63b8ff" stroke="#63b8ff" points="673.97,-328.95 683.3,-323.93 672.87,-322.03 673.97,-328.95"/>
</a>
</g>
</g>
<!-- Node15 -->
<g id="Node000015" class="node">
<title>Node15</title>
<g id="a_Node000015"><a xlink:href="../../dc/d40/dwin_8c.html#ad37d5808ff30ae6894780425d865abae" target="_top" xlink:title="Create and initialize Chyron structure.">
<polygon fill="white" stroke="#666666" points="767.93,-250.75 693.43,-250.75 693.43,-230 767.93,-230 767.93,-250.75"/>
<text xml:space="preserve" text-anchor="middle" x="730.68" y="-237.25" font-family="Helvetica,sans-Serif" font-size="10.00">new_chyron</text>
</a>
</g>
</g>
<!-- Node7&#45;&gt;Node15 -->
<g id="edge16_Node000007_Node000015" class="edge">
<title>Node7&#45;&gt;Node15</title>
<g id="a_edge16_Node000007_Node000015"><a xlink:title=" ">
<path fill="none" stroke="#63b8ff" d="M348.45,-361.59C365.05,-345.81 398.37,-316.64 432.3,-301.38 515.21,-264.08 621.41,-249.35 681.86,-243.71"/>
<polygon fill="#63b8ff" stroke="#63b8ff" points="682.16,-247.19 691.82,-242.83 681.55,-240.22 682.16,-247.19"/>
</a>
</g>
</g>
<!-- Node16 -->
<g id="Node000016" class="node">
<title>Node16</title>
<g id="a_Node000016"><a xlink:href="../../dc/d40/dwin_8c.html#a208ce92c197fdd6d2b007987e534aa3b" target="_top" xlink:title="Set chyron key.">
<polygon fill="white" stroke="#666666" points="776.55,-365.75 684.8,-365.75 684.8,-345 776.55,-345 776.55,-365.75"/>
<text xml:space="preserve" text-anchor="middle" x="730.68" y="-352.25" font-family="Helvetica,sans-Serif" font-size="10.00">set_chyron_key</text>
</a>
</g>
</g>
<!-- Node7&#45;&gt;Node16 -->
<g id="edge18_Node000007_Node000016" class="edge">
<title>Node7&#45;&gt;Node16</title>
<g id="a_edge18_Node000007_Node000016"><a xlink:title=" ">
<path fill="none" stroke="#63b8ff" d="M359.43,-373C410.23,-374.23 540.04,-376.15 648.05,-367.38 656.2,-366.71 664.77,-365.75 673.17,-364.65"/>
<polygon fill="#63b8ff" stroke="#63b8ff" points="673.54,-368.14 682.96,-363.3 672.58,-361.2 673.54,-368.14"/>
</a>
</g>
</g>
<!-- Node7&#45;&gt;Node17 -->
<g id="edge20_Node000007_Node000017" class="edge">
<title>Node7&#45;&gt;Node17</title>
<g id="a_edge20_Node000007_Node000017"><a xlink:title=" ">
<path fill="none" stroke="#63b8ff" d="M359.58,-365.16C378.68,-359.08 407.12,-350.43 432.3,-344.38 542.97,-317.77 570.71,-307.86 684.05,-297.38 725.32,-293.56 736.27,-291.54 777.3,-297.38 786.96,-298.75 797.15,-301.15 806.66,-303.83"/>
<polygon fill="#63b8ff" stroke="#63b8ff" points="805.38,-307.11 815.97,-306.62 807.39,-300.4 805.38,-307.11"/>
</a>
</g>
</g>
<!-- Node18 -->
<g id="Node000018" class="node">
<title>Node18</title>
<g id="a_Node000018"><a xlink:href="../../dc/d40/dwin_8c.html#a9dd598e1d49c8764af1eec42c682623e" target="_top" xlink:title="Delete the current window and its associated box window.">
<polygon fill="white" stroke="#666666" points="757.43,-633.75 703.93,-633.75 703.93,-613 757.43,-613 757.43,-633.75"/>
<text xml:space="preserve" text-anchor="middle" x="730.68" y="-620.25" font-family="Helvetica,sans-Serif" font-size="10.00">win_del</text>
</a>
</g>
</g>
<!-- Node7&#45;&gt;Node18 -->
<g id="edge22_Node000007_Node000018" class="edge">
<title>Node7&#45;&gt;Node18</title>
<g id="a_edge22_Node000007_Node000018"><a xlink:title=" ">
<path fill="none" stroke="#63b8ff" d="M359.49,-374.52C372.01,-376.89 387.02,-381.89 396.3,-392.38 448.06,-450.86 379.69,-506.65 432.3,-564.38 499.22,-637.81 629.12,-635.03 692.75,-628.5"/>
<polygon fill="#63b8ff" stroke="#63b8ff" points="692.78,-632.02 702.32,-627.43 692,-625.06 692.78,-632.02"/>
</a>
</g>
</g>
<!-- Node19 -->
<g id="Node000019" class="node">
<title>Node19</title>
<g id="a_Node000019"><a xlink:href="../../dc/d40/dwin_8c.html#a435c7bff7ffedb8f51c6de9259e36f6c" target="_top" xlink:title="Create a new window with optional box and title.">
<polygon fill="white" stroke="#666666" points="760.05,-594.75 701.3,-594.75 701.3,-574 760.05,-574 760.05,-594.75"/>
<text xml:space="preserve" text-anchor="middle" x="730.68" y="-581.25" font-family="Helvetica,sans-Serif" font-size="10.00">win_new</text>
</a>
</g>
</g>
<!-- Node7&#45;&gt;Node19 -->
<g id="edge23_Node000007_Node000019" class="edge">
<title>Node7&#45;&gt;Node19</title>
<g id="a_edge23_Node000007_Node000019"><a xlink:title=" ">
<path fill="none" stroke="#63b8ff" d="M359.56,-374.77C371.95,-377.24 386.79,-382.24 396.3,-392.38 438.2,-437.04 389.59,-481.49 432.3,-525.38 500.37,-595.33 625.88,-594.89 689.89,-589.34"/>
<polygon fill="#63b8ff" stroke="#63b8ff" points="689.97,-592.85 699.59,-588.4 689.3,-585.88 689.97,-592.85"/>
</a>
</g>
</g>
<!-- Node21 -->
<g id="Node000021" class="node">
<title>Node21</title>
<g id="a_Node000021"><a xlink:href="../../dc/d40/dwin_8c.html#acf4c709bccc4c965a5d61db978db31a3" target="_top" xlink:title="Wrapper for wgetch that handles signals and mouse events.">
<polygon fill="white" stroke="#666666" points="504.55,-478.75 447.3,-478.75 447.3,-458 504.55,-458 504.55,-478.75"/>
<text xml:space="preserve" text-anchor="middle" x="475.93" y="-465.25" font-family="Helvetica,sans-Serif" font-size="10.00">xwgetch</text>
</a>
</g>
</g>
<!-- Node7&#45;&gt;Node21 -->
<g id="edge26_Node000007_Node000021" class="edge">
<title>Node7&#45;&gt;Node21</title>
<g id="a_edge26_Node000007_Node000021"><a xlink:title=" ">
<path fill="none" stroke="#63b8ff" d="M359.49,-377.37C370.99,-380.58 384.99,-385.47 396.3,-392.38 421.18,-407.57 444.5,-431.88 459.18,-448.91"/>
<polygon fill="#63b8ff" stroke="#63b8ff" points="456.32,-450.94 465.43,-456.35 461.68,-446.44 456.32,-450.94"/>
</a>
</g>
</g>
<!-- Node9 -->
<g id="Node000009" class="node">
<title>Node9</title>
<g id="a_Node000009"><a xlink:href="../../dc/d40/dwin_8c.html#afc0985a403e3eac0b2cd8f0fab500256" target="_top" xlink:title="Gracefully shut down NCurses and restore terminal settings.">
<polygon fill="white" stroke="#666666" points="1006.55,-212.75 917.05,-212.75 917.05,-192 1006.55,-192 1006.55,-212.75"/>
<text xml:space="preserve" text-anchor="middle" x="961.8" y="-199.25" font-family="Helvetica,sans-Serif" font-size="10.00">destroy_curses</text>
</a>
</g>
</g>
<!-- Node8&#45;&gt;Node9 -->
<g id="edge8_Node000008_Node000009" class="edge">
<title>Node8&#45;&gt;Node9</title>
<g id="a_edge8_Node000008_Node000009"><a xlink:title=" ">
<path fill="none" stroke="#63b8ff" d="M870.43,-202.38C880.54,-202.38 892.99,-202.38 905.39,-202.38"/>
<polygon fill="#63b8ff" stroke="#63b8ff" points="905.18,-205.88 915.18,-202.38 905.18,-198.88 905.18,-205.88"/>
</a>
</g>
</g>
<!-- Node8&#45;&gt;Node10 -->
<g id="edge11_Node000008_Node000010" class="edge">
<title>Node8&#45;&gt;Node10</title>
<g id="a_edge11_Node000008_Node000010"><a xlink:title=" ">
<path fill="none" stroke="#63b8ff" d="M870.6,-195.19C883.96,-191.16 901.33,-186.36 917.05,-183.38 954.43,-176.28 996.74,-171.64 1030.83,-168.72"/>
<polygon fill="#63b8ff" stroke="#63b8ff" points="1030.87,-172.23 1040.55,-167.92 1030.3,-165.25 1030.87,-172.23"/>
</a>
</g>
</g>
<!-- Node8&#45;&gt;Node11 -->
<g id="edge12_Node000008_Node000011" class="edge">
<title>Node8&#45;&gt;Node11</title>
<g id="a_edge12_Node000008_Node000011"><a xlink:title=" ">
<path fill="none" stroke="#63b8ff" d="M870.6,-209.56C883.96,-213.59 901.33,-218.39 917.05,-221.38 959.72,-229.47 1008.8,-234.37 1044.77,-237.17"/>
<polygon fill="#63b8ff" stroke="#63b8ff" points="1044.22,-240.64 1054.45,-237.89 1044.74,-233.66 1044.22,-240.64"/>
</a>
</g>
</g>
<!-- Node9&#45;&gt;Node10 -->
<g id="edge9_Node000009_Node000010" class="edge">
<title>Node9&#45;&gt;Node10</title>
<g id="a_edge9_Node000009_Node000010"><a xlink:title=" ">
<path fill="none" stroke="#63b8ff" d="M1000.63,-191.59C1015.12,-187.46 1031.85,-182.68 1047.23,-178.3"/>
<polygon fill="#63b8ff" stroke="#63b8ff" points="1048.02,-181.71 1056.67,-175.6 1046.1,-174.98 1048.02,-181.71"/>
</a>
</g>
</g>
<!-- Node9&#45;&gt;Node11 -->
<g id="edge10_Node000009_Node000011" class="edge">
<title>Node9&#45;&gt;Node11</title>
<g id="a_edge10_Node000009_Node000011"><a xlink:title=" ">
<path fill="none" stroke="#63b8ff" d="M1000.63,-213.16C1015.12,-217.29 1031.85,-222.07 1047.23,-226.45"/>
<polygon fill="#63b8ff" stroke="#63b8ff" points="1046.1,-229.77 1056.67,-229.15 1048.02,-223.04 1046.1,-229.77"/>
</a>
</g>
</g>
<!-- Node13 -->
<g id="Node000013" class="node">
<title>Node13</title>
<g id="a_Node000013"><a xlink:href="../../d0/d59/futil_8c.html#aa0145c044cfdde3a1c83323410a59f25" target="_top" xlink:title="safer alternative to strncat">
<polygon fill="white" stroke="#666666" points="879.93,-555.75 814.43,-555.75 814.43,-535 879.93,-535 879.93,-555.75"/>
<text xml:space="preserve" text-anchor="middle" x="847.18" y="-542.25" font-family="Helvetica,sans-Serif" font-size="10.00">strnz__cat</text>
</a>
</g>
</g>
<!-- Node12&#45;&gt;Node13 -->
<g id="edge14_Node000012_Node000013" class="edge">
<title>Node12&#45;&gt;Node13</title>
<g id="a_edge14_Node000012_Node000013"><a xlink:title=" ">
<path fill="none" stroke="#63b8ff" d="M777.59,-545.38C785.88,-545.38 794.49,-545.38 802.71,-545.38"/>
<polygon fill="#63b8ff" stroke="#63b8ff" points="802.47,-548.88 812.47,-545.38 802.47,-541.88 802.47,-548.88"/>
</a>
</g>
</g>
<!-- Node15&#45;&gt;Node8 -->
<g id="edge17_Node000015_Node000008" class="edge">
<title>Node15&#45;&gt;Node8</title>
<g id="a_edge17_Node000015_Node000008"><a xlink:title=" ">
<path fill="none" stroke="#63b8ff" d="M764.18,-229.59C779.5,-224.5 797.75,-218.45 813.14,-213.34"/>
<polygon fill="#63b8ff" stroke="#63b8ff" points="813.93,-216.76 822.32,-210.29 811.73,-210.12 813.93,-216.76"/>
</a>
</g>
</g>
<!-- Node16&#45;&gt;Node17 -->
<g id="edge19_Node000016_Node000017" class="edge">
<title>Node16&#45;&gt;Node17</title>
<g id="a_edge19_Node000016_Node000017"><a xlink:title=" ">
<path fill="none" stroke="#63b8ff" d="M764.18,-344.59C777.43,-340.19 792.87,-335.07 806.76,-330.46"/>
<polygon fill="#63b8ff" stroke="#63b8ff" points="807.66,-333.84 816.05,-327.37 805.46,-327.2 807.66,-333.84"/>
</a>
</g>
</g>
<!-- Node19&#45;&gt;Node3 -->
<g id="edge25_Node000019_Node000003" class="edge">
<title>Node19&#45;&gt;Node3</title>
<g id="a_edge25_Node000019_Node000003"><a xlink:title=" ">
<path fill="none" stroke="#63b8ff" d="M757.44,-595.18C763.97,-598.05 770.94,-601.24 777.3,-604.38 790.88,-611.08 805.63,-619.11 817.98,-626.06"/>
<polygon fill="#63b8ff" stroke="#63b8ff" points="815.97,-628.94 826.39,-630.84 819.43,-622.86 815.97,-628.94"/>
</a>
</g>
</g>
<!-- Node20 -->
<g id="Node000020" class="node">
<title>Node20</title>
<g id="a_Node000020"><a xlink:href="../../dc/d40/dwin_8c.html#ac9adcf7339be4a05ab1a7350c236b8a5" target="_top" xlink:title="Draw a box around the specified window.">
<polygon fill="white" stroke="#666666" points="866.8,-594.75 827.55,-594.75 827.55,-574 866.8,-574 866.8,-594.75"/>
<text xml:space="preserve" text-anchor="middle" x="847.18" y="-581.25" font-family="Helvetica,sans-Serif" font-size="10.00">cbox</text>
</a>
</g>
</g>
<!-- Node19&#45;&gt;Node20 -->
<g id="edge24_Node000019_Node000020" class="edge">
<title>Node19&#45;&gt;Node20</title>
<g id="a_edge24_Node000019_Node000020"><a xlink:title=" ">
<path fill="none" stroke="#63b8ff" d="M760.27,-584.38C777.2,-584.38 798.62,-584.38 815.84,-584.38"/>
<polygon fill="#63b8ff" stroke="#63b8ff" points="815.74,-587.88 825.74,-584.38 815.74,-580.88 815.74,-587.88"/>
</a>
</g>
</g>
<!-- Node22 -->
<g id="Node000022" class="node">
<title>Node22</title>
<g id="a_Node000022"><a xlink:href="../../dc/d40/dwin_8c.html#a67659f8a701b74f4dec0d36227a10d1c" target="_top" xlink:title="Display an error message window or print to stderr.">
<polygon fill="white" stroke="#666666" points="641.68,-478.75 561.93,-478.75 561.93,-458 641.68,-458 641.68,-478.75"/>
<text xml:space="preserve" text-anchor="middle" x="601.8" y="-465.25" font-family="Helvetica,sans-Serif" font-size="10.00">display_error</text>
</a>
</g>
</g>
<!-- Node21&#45;&gt;Node22 -->
<g id="edge27_Node000021_Node000022" class="edge">
<title>Node21&#45;&gt;Node22</title>
<g id="a_edge27_Node000021_Node000022"><a xlink:title=" ">
<path fill="none" stroke="#63b8ff" d="M505.03,-462.61C518.34,-461.75 534.66,-461.45 550.03,-461.72"/>
<polygon fill="#63b8ff" stroke="#63b8ff" points="549.93,-465.22 560.02,-462 550.12,-458.22 549.93,-465.22"/>
</a>
</g>
</g>
<!-- Node24 -->
<g id="Node000024" class="node">
<title>Node24</title>
<g id="a_Node000024"><a xlink:href="../../dc/d40/dwin_8c.html#a4298f891699300bfc4e6e56fd2a8d574" target="_top" xlink:title="Get keycode from chyron.">
<polygon fill="white" stroke="#666666" points="648.05,-439.75 555.55,-439.75 555.55,-419 648.05,-419 648.05,-439.75"/>
<text xml:space="preserve" text-anchor="middle" x="601.8" y="-426.25" font-family="Helvetica,sans-Serif" font-size="10.00">get_chyron_key</text>
</a>
</g>
</g>
<!-- Node21&#45;&gt;Node24 -->
<g id="edge39_Node000021_Node000024" class="edge">
<title>Node21&#45;&gt;Node24</title>
<g id="a_edge39_Node000021_Node000024"><a xlink:title=" ">
<path fill="none" stroke="#63b8ff" d="M505.03,-459.53C520.02,-454.81 538.83,-448.89 555.8,-443.54"/>
<polygon fill="#63b8ff" stroke="#63b8ff" points="556.69,-446.93 565.18,-440.59 554.59,-440.25 556.69,-446.93"/>
</a>
</g>
</g>
<!-- Node25 -->
<g id="Node000025" class="node">
<title>Node25</title>
<g id="a_Node000025"><a xlink:href="../../d0/d6b/cm_8h.html#a0667873879b5846c3fe2fa2cc96059d6" target="_top" xlink:title=" ">
<polygon fill="white" stroke="#666666" points="643.55,-517.75 560.05,-517.75 560.05,-497 643.55,-497 643.55,-517.75"/>
<text xml:space="preserve" text-anchor="middle" x="601.8" y="-504.25" font-family="Helvetica,sans-Serif" font-size="10.00">handle_signal</text>
</a>
</g>
</g>
<!-- Node21&#45;&gt;Node25 -->
<g id="edge40_Node000021_Node000025" class="edge">
<title>Node21&#45;&gt;Node25</title>
<g id="a_edge40_Node000021_Node000025"><a xlink:title=" ">
<path fill="none" stroke="#63b8ff" d="M505.03,-477.22C520.02,-481.94 538.83,-487.86 555.8,-493.21"/>
<polygon fill="#63b8ff" stroke="#63b8ff" points="554.59,-496.5 565.18,-496.16 556.69,-489.82 554.59,-496.5"/>
</a>
</g>
</g>
<!-- Node22&#45;&gt;Node3 -->
<g id="edge35_Node000022_Node000003" class="edge">
<title>Node22&#45;&gt;Node3</title>
<g id="a_edge35_Node000022_Node000003"><a xlink:title=" ">
<path fill="none" stroke="#63b8ff" d="M641.78,-477.51C686.73,-488.68 757.03,-508.34 777.3,-526.38 805.52,-551.49 792.95,-571.55 813.3,-603.38 817.72,-610.29 823.25,-617.32 828.51,-623.46"/>
<polygon fill="#63b8ff" stroke="#63b8ff" points="825.59,-625.44 834.85,-630.59 830.82,-620.79 825.59,-625.44"/>
</a>
</g>
</g>
<!-- Node22&#45;&gt;Node8 -->
<g id="edge28_Node000022_Node000008" class="edge">
<title>Node22&#45;&gt;Node8</title>
<g id="a_edge28_Node000022_Node000008"><a xlink:title=" ">
<path fill="none" stroke="#63b8ff" d="M632.07,-457.68C637.62,-455.04 643.2,-451.93 648.05,-448.38 667.6,-434.03 663.97,-420.97 684.05,-407.38 720.45,-382.73 745.59,-404.82 777.3,-374.38 788.73,-363.4 823.35,-267.48 838.7,-223.84"/>
<polygon fill="#63b8ff" stroke="#63b8ff" points="841.99,-225.05 841.99,-214.45 835.38,-222.74 841.99,-225.05"/>
</a>
</g>
</g>
<!-- Node22&#45;&gt;Node12 -->
<g id="edge29_Node000022_Node000012" class="edge">
<title>Node22&#45;&gt;Node12</title>
<g id="a_edge29_Node000022_Node000012"><a xlink:title=" ">
<path fill="none" stroke="#63b8ff" d="M630.83,-479.05C636.71,-481.76 642.73,-484.9 648.05,-488.38 666.22,-500.25 666.3,-508.89 684.05,-521.38 687.92,-524.1 692.14,-526.72 696.4,-529.17"/>
<polygon fill="#63b8ff" stroke="#63b8ff" points="694.47,-532.1 704.92,-533.8 697.81,-525.95 694.47,-532.1"/>
</a>
</g>
</g>
<!-- Node22&#45;&gt;Node14 -->
<g id="edge30_Node000022_Node000014" class="edge">
<title>Node22&#45;&gt;Node14</title>
<g id="a_edge30_Node000022_Node000014"><a xlink:title=" ">
<path fill="none" stroke="#63b8ff" d="M636.15,-457.63C640.57,-455.13 644.72,-452.08 648.05,-448.38 683.03,-409.51 649.01,-375.19 684.05,-336.38 684.89,-335.44 685.78,-334.55 686.72,-333.7"/>
<polygon fill="#63b8ff" stroke="#63b8ff" points="688.69,-336.6 694.81,-327.95 684.63,-330.89 688.69,-336.6"/>
</a>
</g>
</g>
<!-- Node22&#45;&gt;Node15 -->
<g id="edge31_Node000022_Node000015" class="edge">
<title>Node22&#45;&gt;Node15</title>
<g id="a_edge31_Node000022_Node000015"><a xlink:title=" ">
<path fill="none" stroke="#63b8ff" d="M636.87,-457.6C641.08,-455.11 644.97,-452.07 648.05,-448.38 692.2,-395.36 653.76,-359.36 684.05,-297.38 690.85,-283.46 701.56,-269.84 710.89,-259.4"/>
<polygon fill="#63b8ff" stroke="#63b8ff" points="713.31,-261.94 717.57,-252.24 708.19,-257.16 713.31,-261.94"/>
</a>
</g>
</g>
<!-- Node22&#45;&gt;Node16 -->
<g id="edge32_Node000022_Node000016" class="edge">
<title>Node22&#45;&gt;Node16</title>
<g id="a_edge32_Node000022_Node000016"><a xlink:title=" ">
<path fill="none" stroke="#63b8ff" d="M634.68,-457.6C639.51,-455.07 644.16,-452.02 648.05,-448.38 673.29,-424.72 659.63,-403.87 684.05,-379.38 686.79,-376.63 689.9,-374.13 693.19,-371.86"/>
<polygon fill="#63b8ff" stroke="#63b8ff" points="694.69,-375.04 701.45,-366.89 691.08,-369.05 694.69,-375.04"/>
</a>
</g>
</g>
<!-- Node22&#45;&gt;Node17 -->
<g id="edge33_Node000022_Node000017" class="edge">
<title>Node22&#45;&gt;Node17</title>
<g id="a_edge33_Node000022_Node000017"><a xlink:title=" ">
<path fill="none" stroke="#63b8ff" d="M641.95,-457.54C686.33,-444.77 755.34,-423.28 777.3,-407.38 802.83,-388.88 823.38,-358.29 835.18,-337.98"/>
<polygon fill="#63b8ff" stroke="#63b8ff" points="838.11,-339.92 839.94,-329.48 832,-336.5 838.11,-339.92"/>
</a>
</g>
</g>
<!-- Node22&#45;&gt;Node18 -->
<g id="edge36_Node000022_Node000018" class="edge">
<title>Node22&#45;&gt;Node18</title>
<g id="a_edge36_Node000022_Node000018"><a xlink:title=" ">
<path fill="none" stroke="#63b8ff" d="M636.18,-479.09C640.59,-481.6 644.73,-484.66 648.05,-488.38 683.73,-528.32 648.31,-563.48 684.05,-603.38 686.73,-606.36 689.93,-608.93 693.39,-611.12"/>
<polygon fill="#63b8ff" stroke="#63b8ff" points="691.72,-614.2 702.21,-615.67 694.93,-607.97 691.72,-614.2"/>
</a>
</g>
</g>
<!-- Node22&#45;&gt;Node19 -->
<g id="edge37_Node000022_Node000019" class="edge">
<title>Node22&#45;&gt;Node19</title>
<g id="a_edge37_Node000022_Node000019"><a xlink:title=" ">
<path fill="none" stroke="#63b8ff" d="M634.8,-479.02C639.61,-481.57 644.24,-484.66 648.05,-488.38 674.82,-514.46 657.24,-538.34 684.05,-564.38 686.24,-566.5 688.7,-568.43 691.31,-570.16"/>
<polygon fill="#63b8ff" stroke="#63b8ff" points="689.43,-573.12 699.87,-574.9 692.81,-566.99 689.43,-573.12"/>
</a>
</g>
</g>
<!-- Node22&#45;&gt;Node21 -->
<g id="edge38_Node000022_Node000021" class="edge">
<title>Node22&#45;&gt;Node21</title>
<g id="a_edge38_Node000022_Node000021"><a xlink:title=" ">
<path fill="none" stroke="#63b8ff" d="M561.53,-474.71C547.05,-475.27 530.65,-475.26 516.16,-474.7"/>
<polygon fill="#63b8ff" stroke="#63b8ff" points="516.71,-471.23 506.55,-474.21 516.35,-478.22 516.71,-471.23"/>
</a>
</g>
</g>
<!-- Node23 -->
<g id="Node000023" class="node">
<title>Node23</title>
<g id="a_Node000023"><a xlink:href="../../d0/d59/futil_8c.html#a636608f26d1193b5d860f2312cd8ee49" target="_top" xlink:title="terminates string at New Line, Carriage Return, or max_len">
<polygon fill="white" stroke="#666666" points="750.68,-479.75 710.68,-479.75 710.68,-459 750.68,-459 750.68,-479.75"/>
<text xml:space="preserve" text-anchor="middle" x="730.68" y="-466.25" font-family="Helvetica,sans-Serif" font-size="10.00">strnz</text>
</a>
</g>
</g>
<!-- Node22&#45;&gt;Node23 -->
<g id="edge34_Node000022_Node000023" class="edge">
<title>Node22&#45;&gt;Node23</title>
<g id="a_edge34_Node000022_Node000023"><a xlink:title=" ">
<path fill="none" stroke="#63b8ff" d="M641.9,-468.68C660.36,-468.83 682.06,-469 699.26,-469.14"/>
<polygon fill="#63b8ff" stroke="#63b8ff" points="698.82,-472.63 708.84,-469.21 698.87,-465.63 698.82,-472.63"/>
</a>
</g>
</g>
<!-- Node28&#45;&gt;Node8 -->
<g id="edge46_Node000028_Node000008" class="edge">
<title>Node28&#45;&gt;Node8</title>
<g id="a_edge46_Node000028_Node000008"><a xlink:title=" ">
<path fill="none" stroke="#63b8ff" d="M379.36,-152.52C459.3,-133.83 638.26,-101.98 777.3,-150.38 796.84,-157.18 815.35,-171.78 828.25,-183.78"/>
<polygon fill="#63b8ff" stroke="#63b8ff" points="825.53,-186.02 835.14,-190.49 830.42,-181.01 825.53,-186.02"/>
</a>
</g>
</g>
<!-- Node29 -->
<g id="Node000029" class="node">
<title>Node29</title>
<g id="a_Node000029"><a xlink:href="../../da/d12/sig_8c.html#aa08a9a8dede37c66c81c3f51a0f338a9" target="_top" xlink:title="Signal handler for interrupt signals.">
<polygon fill="white" stroke="#666666" points="519.55,-173.75 432.3,-173.75 432.3,-153 519.55,-153 519.55,-173.75"/>
<text xml:space="preserve" text-anchor="middle" x="475.93" y="-160.25" font-family="Helvetica,sans-Serif" font-size="10.00">signal_handler</text>
</a>
</g>
</g>
<!-- Node28&#45;&gt;Node29 -->
<g id="edge47_Node000028_Node000029" class="edge">
<title>Node28&#45;&gt;Node29</title>
<g id="a_edge47_Node000028_Node000029"><a xlink:title=" ">
<path fill="none" stroke="#63b8ff" d="M382.15,-163.38C394.39,-163.38 407.79,-163.38 420.51,-163.38"/>
<polygon fill="#63b8ff" stroke="#63b8ff" points="420.44,-166.88 430.44,-163.38 420.44,-159.88 420.44,-166.88"/>
</a>
</g>
</g>
</g>
</svg>
