<?xml version="1.0" encoding="UTF-8" standalone="no"?>
<!DOCTYPE svg PUBLIC "-//W3C//DTD SVG 1.1//EN"
 "http://www.w3.org/Graphics/SVG/1.1/DTD/svg11.dtd">
<!-- Generated by graphviz version 14.1.2 (0)
 -->
<!-- Title: get_cmd_arg Pages: 1 -->
<svg width="894pt" height="515pt"
 viewBox="0.00 0.00 894.00 515.00" xmlns="http://www.w3.org/2000/svg" xmlns:xlink="http://www.w3.org/1999/xlink">
<g id="graph0" class="graph" transform="scale(1 1) rotate(0) translate(4 511.38)">
<title>get_cmd_arg</title>
<!-- Node1 -->
<g id="Node000001" class="node">
<title>Node1</title>
<g id="a_Node000001"><a xlink:title="Get Command Argument from User Input.">
<polygon fill="#999999" stroke="#666666" points="79,-258.38 0,-258.38 0,-237.62 79,-237.62 79,-258.38"/>
<text xml:space="preserve" text-anchor="middle" x="39.5" y="-244.88" font-family="Helvetica,sans-Serif" font-size="10.00">get_cmd_arg</text>
</a>
</g>
</g>
<!-- Node2 -->
<g id="Node000002" class="node">
<title>Node2</title>
<g id="a_Node000002"><a xlink:href="../../dc/d40/dwin_8c.html#a61b4f28456257f68ed042bed7f187efd" target="_top" xlink:title="Display a simple error message window or print to stderr.">
<polygon fill="white" stroke="#666666" points="160.25,-258.38 115,-258.38 115,-237.62 160.25,-237.62 160.25,-258.38"/>
<text xml:space="preserve" text-anchor="middle" x="137.62" y="-244.88" font-family="Helvetica,sans-Serif" font-size="10.00">Perror</text>
</a>
</g>
</g>
<!-- Node1&#45;&gt;Node2 -->
<g id="edge1_Node000001_Node000002" class="edge">
<title>Node1&#45;&gt;Node2</title>
<g id="a_edge1_Node000001_Node000002"><a xlink:title=" ">
<path fill="none" stroke="#63b8ff" d="M79.32,-248C87.19,-248 95.39,-248 103.06,-248"/>
<polygon fill="#63b8ff" stroke="#63b8ff" points="103.02,-251.5 113.02,-248 103.02,-244.5 103.02,-251.5"/>
</a>
</g>
</g>
<!-- Node13 -->
<g id="Node000013" class="node">
<title>Node13</title>
<g id="a_Node000013"><a xlink:href="../../d0/d59/futil_8c.html#a0de2e40df9bd7efc8fd9afb8ad2257e6" target="_top" xlink:title="safer alternative to strncpy">
<polygon fill="white" stroke="#666666" points="615,-124.38 547.25,-124.38 547.25,-103.62 615,-103.62 615,-124.38"/>
<text xml:space="preserve" text-anchor="middle" x="581.12" y="-110.88" font-family="Helvetica,sans-Serif" font-size="10.00">strnz__cpy</text>
</a>
</g>
</g>
<!-- Node1&#45;&gt;Node13 -->
<g id="edge36_Node000001_Node000013" class="edge">
<title>Node1&#45;&gt;Node13</title>
<g id="a_edge36_Node000001_Node000013"><a xlink:title=" ">
<path fill="none" stroke="#63b8ff" d="M42.76,-237.34C53.49,-189.88 103.93,0 223.88,0 223.88,0 223.88,0 336.75,0 426.38,0 518.54,-64.19 558.96,-96.24"/>
<polygon fill="#63b8ff" stroke="#63b8ff" points="556.5,-98.75 566.48,-102.32 560.91,-93.31 556.5,-98.75"/>
</a>
</g>
</g>
<!-- Node17 -->
<g id="Node000017" class="node">
<title>Node17</title>
<g id="a_Node000017"><a xlink:href="../../dc/d40/dwin_8c.html#acf4c709bccc4c965a5d61db978db31a3" target="_top" xlink:title="Wrapper for wgetch that handles signals and mouse events.">
<polygon fill="white" stroke="#666666" points="253.5,-468.38 196.25,-468.38 196.25,-447.62 253.5,-447.62 253.5,-468.38"/>
<text xml:space="preserve" text-anchor="middle" x="224.88" y="-454.88" font-family="Helvetica,sans-Serif" font-size="10.00">xwgetch</text>
</a>
</g>
</g>
<!-- Node1&#45;&gt;Node17 -->
<g id="edge37_Node000001_Node000017" class="edge">
<title>Node1&#45;&gt;Node17</title>
<g id="a_edge37_Node000001_Node000017"><a xlink:title=" ">
<path fill="none" stroke="#63b8ff" d="M48.4,-258.57C70.41,-287.77 134.87,-371.49 196.25,-434 198.06,-435.84 199.99,-437.7 201.96,-439.53"/>
<polygon fill="#63b8ff" stroke="#63b8ff" points="199.63,-442.15 209.43,-446.17 204.28,-436.91 199.63,-442.15"/>
</a>
</g>
</g>
<!-- Node3 -->
<g id="Node000003" class="node">
<title>Node3</title>
<g id="a_Node000003"><a xlink:href="../../dc/d40/dwin_8c.html#a8f6c45ca4a7f6a41c4c88314e697565a" target="_top" xlink:title="Abnormal program termination.">
<polygon fill="white" stroke="#666666" points="604.12,-470.38 558.12,-470.38 558.12,-449.62 604.12,-449.62 604.12,-470.38"/>
<text xml:space="preserve" text-anchor="middle" x="581.12" y="-456.88" font-family="Helvetica,sans-Serif" font-size="10.00">abend</text>
</a>
</g>
</g>
<!-- Node2&#45;&gt;Node3 -->
<g id="edge2_Node000002_Node000003" class="edge">
<title>Node2&#45;&gt;Node3</title>
<g id="a_edge2_Node000002_Node000003"><a xlink:title=" ">
<path fill="none" stroke="#63b8ff" d="M143.59,-258.74C152.29,-276.74 171.74,-313.44 196.25,-338 231.06,-372.89 246.12,-374.61 289.5,-398 329.08,-419.34 345.6,-412.59 382,-439 401.36,-453.04 396.15,-469.27 418,-479 459.75,-497.59 513.24,-485.22 547.11,-473.52"/>
<polygon fill="#63b8ff" stroke="#63b8ff" points="548.18,-476.85 556.37,-470.14 545.78,-470.28 548.18,-476.85"/>
</a>
</g>
</g>
<!-- Node7 -->
<g id="Node000007" class="node">
<title>Node7</title>
<g id="a_Node000007"><a xlink:href="../../dc/d40/dwin_8c.html#a645871e46277e31736bc36d0f3dce4bd" target="_top" xlink:title="construct the chyron string from the chyron structure">
<polygon fill="white" stroke="#666666" points="511.25,-431.38 418,-431.38 418,-410.62 511.25,-410.62 511.25,-431.38"/>
<text xml:space="preserve" text-anchor="middle" x="464.62" y="-417.88" font-family="Helvetica,sans-Serif" font-size="10.00">compile_chyron</text>
</a>
</g>
</g>
<!-- Node2&#45;&gt;Node7 -->
<g id="edge8_Node000002_Node000007" class="edge">
<title>Node2&#45;&gt;Node7</title>
<g id="a_edge8_Node000002_Node000007"><a xlink:title=" ">
<path fill="none" stroke="#63b8ff" d="M159,-258.7C187.88,-273.8 242.45,-302.07 289.5,-325 330.25,-344.86 344.29,-342.83 382,-368 400.05,-380.05 399.82,-389.15 418,-401 420.12,-402.38 422.35,-403.71 424.64,-404.97"/>
<polygon fill="#63b8ff" stroke="#63b8ff" points="423.02,-408.08 433.53,-409.45 426.17,-401.83 423.02,-408.08"/>
</a>
</g>
</g>
<!-- Node9 -->
<g id="Node000009" class="node">
<title>Node9</title>
<g id="a_Node000009"><a xlink:href="../../dc/d40/dwin_8c.html#a3f3feb40fd703913c5c136331f627c91" target="_top" xlink:title="Destroy Chyron structure.">
<polygon fill="white" stroke="#666666" points="510.12,-124.38 419.12,-124.38 419.12,-103.62 510.12,-103.62 510.12,-124.38"/>
<text xml:space="preserve" text-anchor="middle" x="464.62" y="-110.88" font-family="Helvetica,sans-Serif" font-size="10.00">destroy_chyron</text>
</a>
</g>
</g>
<!-- Node2&#45;&gt;Node9 -->
<g id="edge10_Node000002_Node000009" class="edge">
<title>Node2&#45;&gt;Node9</title>
<g id="a_edge10_Node000002_Node000009"><a xlink:title=" ">
<path fill="none" stroke="#63b8ff" d="M153.82,-237.15C165.18,-229.31 181.27,-218.78 196.25,-211 268.41,-173.54 358.36,-144.14 413.36,-127.93"/>
<polygon fill="#63b8ff" stroke="#63b8ff" points="414.13,-131.35 422.76,-125.19 412.18,-124.62 414.13,-131.35"/>
</a>
</g>
</g>
<!-- Node10 -->
<g id="Node000010" class="node">
<title>Node10</title>
<g id="a_Node000010"><a xlink:href="../../dc/d40/dwin_8c.html#ad37d5808ff30ae6894780425d865abae" target="_top" xlink:title="Create and initialize Chyron structure.">
<polygon fill="white" stroke="#666666" points="501.88,-470.38 427.38,-470.38 427.38,-449.62 501.88,-449.62 501.88,-470.38"/>
<text xml:space="preserve" text-anchor="middle" x="464.62" y="-456.88" font-family="Helvetica,sans-Serif" font-size="10.00">new_chyron</text>
</a>
</g>
</g>
<!-- Node2&#45;&gt;Node10 -->
<g id="edge11_Node000002_Node000010" class="edge">
<title>Node2&#45;&gt;Node10</title>
<g id="a_edge11_Node000002_Node000010"><a xlink:title=" ">
<path fill="none" stroke="#63b8ff" d="M147.7,-258.66C158.49,-270.96 177.42,-291.36 196.25,-306 234.24,-335.53 247.11,-338.23 289.5,-361 329.78,-382.63 344.39,-380 382,-406 400.1,-418.51 399.65,-427.85 418,-440 420.11,-441.4 422.33,-442.74 424.61,-444.01"/>
<polygon fill="#63b8ff" stroke="#63b8ff" points="422.99,-447.11 433.49,-448.5 426.15,-440.86 422.99,-447.11"/>
</a>
</g>
</g>
<!-- Node11 -->
<g id="Node000011" class="node">
<title>Node11</title>
<g id="a_Node000011"><a xlink:href="../../dc/d40/dwin_8c.html#a208ce92c197fdd6d2b007987e534aa3b" target="_top" xlink:title="Set chyron key.">
<polygon fill="white" stroke="#666666" points="510.5,-239.38 418.75,-239.38 418.75,-218.62 510.5,-218.62 510.5,-239.38"/>
<text xml:space="preserve" text-anchor="middle" x="464.62" y="-225.88" font-family="Helvetica,sans-Serif" font-size="10.00">set_chyron_key</text>
</a>
</g>
</g>
<!-- Node2&#45;&gt;Node11 -->
<g id="edge13_Node000002_Node000011" class="edge">
<title>Node2&#45;&gt;Node11</title>
<g id="a_edge13_Node000002_Node000011"><a xlink:title=" ">
<path fill="none" stroke="#63b8ff" d="M160.71,-246.71C210.75,-243.78 334.09,-236.57 407.02,-232.31"/>
<polygon fill="#63b8ff" stroke="#63b8ff" points="406.98,-235.82 416.76,-231.74 406.57,-228.83 406.98,-235.82"/>
</a>
</g>
</g>
<!-- Node12 -->
<g id="Node000012" class="node">
<title>Node12</title>
<g id="a_Node000012"><a xlink:href="../../d0/d59/futil_8c.html#a63eb94756fb011a456a3dec900709cd8" target="_top" xlink:title="ssnprintf was designed to be a safer alternative to snprintf.">
<polygon fill="white" stroke="#666666" points="610.5,-239.38 551.75,-239.38 551.75,-218.62 610.5,-218.62 610.5,-239.38"/>
<text xml:space="preserve" text-anchor="middle" x="581.12" y="-225.88" font-family="Helvetica,sans-Serif" font-size="10.00">ssnprintf</text>
</a>
</g>
</g>
<!-- Node2&#45;&gt;Node12 -->
<g id="edge15_Node000002_Node000012" class="edge">
<title>Node2&#45;&gt;Node12</title>
<g id="a_edge15_Node000002_Node000012"><a xlink:title=" ">
<path fill="none" stroke="#63b8ff" d="M145.76,-237.33C155.72,-223.06 174.98,-197.63 196.25,-181 279.52,-115.88 313.44,-110.52 418,-95 459,-88.92 475.87,-73.41 511.25,-95 532.11,-107.73 559.22,-173.28 572.33,-207.75"/>
<polygon fill="#63b8ff" stroke="#63b8ff" points="568.9,-208.57 575.69,-216.71 575.46,-206.12 568.9,-208.57"/>
</a>
</g>
</g>
<!-- Node2&#45;&gt;Node13 -->
<g id="edge16_Node000002_Node000013" class="edge">
<title>Node2&#45;&gt;Node13</title>
<g id="a_edge16_Node000002_Node000013"><a xlink:title=" ">
<path fill="none" stroke="#63b8ff" d="M141.65,-237.13C148.17,-215.5 165.53,-166.69 196.25,-138 229.34,-107.1 245.9,-109.2 289.5,-97 384.69,-70.36 414.99,-57.54 511.25,-80 526.16,-83.48 541.56,-90.68 554,-97.56"/>
<polygon fill="#63b8ff" stroke="#63b8ff" points="551.97,-100.43 562.37,-102.42 555.48,-94.37 551.97,-100.43"/>
</a>
</g>
</g>
<!-- Node14 -->
<g id="Node000014" class="node">
<title>Node14</title>
<g id="a_Node000014"><a xlink:href="../../dc/d40/dwin_8c.html#a9dd598e1d49c8764af1eec42c682623e" target="_top" xlink:title="Delete the current window and its associated box window.">
<polygon fill="white" stroke="#666666" points="491.38,-163.38 437.88,-163.38 437.88,-142.62 491.38,-142.62 491.38,-163.38"/>
<text xml:space="preserve" text-anchor="middle" x="464.62" y="-149.88" font-family="Helvetica,sans-Serif" font-size="10.00">win_del</text>
</a>
</g>
</g>
<!-- Node2&#45;&gt;Node14 -->
<g id="edge17_Node000002_Node000014" class="edge">
<title>Node2&#45;&gt;Node14</title>
<g id="a_edge17_Node000002_Node000014"><a xlink:title=" ">
<path fill="none" stroke="#63b8ff" d="M160.71,-241.54C215.54,-225.52 358.38,-183.76 426.47,-163.86"/>
<polygon fill="#63b8ff" stroke="#63b8ff" points="427.44,-167.22 436.06,-161.06 425.48,-160.5 427.44,-167.22"/>
</a>
</g>
</g>
<!-- Node15 -->
<g id="Node000015" class="node">
<title>Node15</title>
<g id="a_Node000015"><a xlink:href="../../dc/d40/dwin_8c.html#a435c7bff7ffedb8f51c6de9259e36f6c" target="_top" xlink:title="Create a new window with optional box and title.">
<polygon fill="white" stroke="#666666" points="494,-278.38 435.25,-278.38 435.25,-257.62 494,-257.62 494,-278.38"/>
<text xml:space="preserve" text-anchor="middle" x="464.62" y="-264.88" font-family="Helvetica,sans-Serif" font-size="10.00">win_new</text>
</a>
</g>
</g>
<!-- Node2&#45;&gt;Node15 -->
<g id="edge18_Node000002_Node000015" class="edge">
<title>Node2&#45;&gt;Node15</title>
<g id="a_edge18_Node000002_Node000015"><a xlink:title=" ">
<path fill="none" stroke="#63b8ff" d="M160.49,-250.54C171.25,-251.73 184.42,-253.07 196.25,-254 276.86,-260.3 371.37,-264.5 423.68,-266.55"/>
<polygon fill="#63b8ff" stroke="#63b8ff" points="423.46,-270.04 433.59,-266.93 423.73,-263.05 423.46,-270.04"/>
</a>
</g>
</g>
<!-- Node2&#45;&gt;Node17 -->
<g id="edge21_Node000002_Node000017" class="edge">
<title>Node2&#45;&gt;Node17</title>
<g id="a_edge21_Node000002_Node000017"><a xlink:title=" ">
<path fill="none" stroke="#63b8ff" d="M139.84,-258.52C143.67,-288.3 157.65,-374.82 196.25,-434 197.47,-435.88 198.88,-437.69 200.41,-439.42"/>
<polygon fill="#63b8ff" stroke="#63b8ff" points="197.89,-441.86 207.52,-446.29 202.75,-436.83 197.89,-441.86"/>
</a>
</g>
</g>
<!-- Node4 -->
<g id="Node000004" class="node">
<title>Node4</title>
<g id="a_Node000004"><a xlink:href="../../dc/d40/dwin_8c.html#afc0985a403e3eac0b2cd8f0fab500256" target="_top" xlink:title="Gracefully shut down NCurses and restore terminal settings.">
<polygon fill="white" stroke="#666666" points="740.5,-470.38 651,-470.38 651,-449.62 740.5,-449.62 740.5,-470.38"/>
<text xml:space="preserve" text-anchor="middle" x="695.75" y="-456.88" font-family="Helvetica,sans-Serif" font-size="10.00">destroy_curses</text>
</a>
</g>
</g>
<!-- Node3&#45;&gt;Node4 -->
<g id="edge3_Node000003_Node000004" class="edge">
<title>Node3&#45;&gt;Node4</title>
<g id="a_edge3_Node000003_Node000004"><a xlink:title=" ">
<path fill="none" stroke="#63b8ff" d="M604.38,-460C614.49,-460 626.94,-460 639.34,-460"/>
<polygon fill="#63b8ff" stroke="#63b8ff" points="639.13,-463.5 649.13,-460 639.13,-456.5 639.13,-463.5"/>
</a>
</g>
</g>
<!-- Node5 -->
<g id="Node000005" class="node">
<title>Node5</title>
<g id="a_Node000005"><a xlink:href="../../d7/d72/scriou_8c.html#ac5e3adb304b78910fc77761ef6a743f0" target="_top" xlink:title="restore_shell_tioctl() &#45; restore shell terminal settings">
<polygon fill="white" stroke="#666666" points="885.5,-498.38 776.5,-498.38 776.5,-477.62 885.5,-477.62 885.5,-498.38"/>
<text xml:space="preserve" text-anchor="middle" x="831" y="-484.88" font-family="Helvetica,sans-Serif" font-size="10.00">restore_shell_tioctl</text>
</a>
</g>
</g>
<!-- Node3&#45;&gt;Node5 -->
<g id="edge6_Node000003_Node000005" class="edge">
<title>Node3&#45;&gt;Node5</title>
<g id="a_edge6_Node000003_Node000005"><a xlink:title=" ">
<path fill="none" stroke="#63b8ff" d="M604.5,-467.51C617.84,-471.65 635.2,-476.46 651,-479 688.4,-485.02 730.71,-487.35 764.8,-488.14"/>
<polygon fill="#63b8ff" stroke="#63b8ff" points="764.45,-491.63 774.51,-488.32 764.58,-484.64 764.45,-491.63"/>
</a>
</g>
</g>
<!-- Node6 -->
<g id="Node000006" class="node">
<title>Node6</title>
<g id="a_Node000006"><a xlink:href="../../da/d12/sig_8c.html#a06c1eb6cf3649dc187115565409f91af" target="_top" xlink:title="Set signal handlers to default behavior.">
<polygon fill="white" stroke="#666666" points="871.62,-450.38 790.38,-450.38 790.38,-429.62 871.62,-429.62 871.62,-450.38"/>
<text xml:space="preserve" text-anchor="middle" x="831" y="-436.88" font-family="Helvetica,sans-Serif" font-size="10.00">sig_dfl_mode</text>
</a>
</g>
</g>
<!-- Node3&#45;&gt;Node6 -->
<g id="edge7_Node000003_Node000006" class="edge">
<title>Node3&#45;&gt;Node6</title>
<g id="a_edge7_Node000003_Node000006"><a xlink:title=" ">
<path fill="none" stroke="#63b8ff" d="M604.46,-452.23C617.78,-448 635.15,-443.19 651,-441 693.78,-435.09 742.86,-435.3 778.79,-436.73"/>
<polygon fill="#63b8ff" stroke="#63b8ff" points="778.31,-440.21 788.46,-437.16 778.63,-433.22 778.31,-440.21"/>
</a>
</g>
</g>
<!-- Node4&#45;&gt;Node5 -->
<g id="edge4_Node000004_Node000005" class="edge">
<title>Node4&#45;&gt;Node5</title>
<g id="a_edge4_Node000004_Node000005"><a xlink:title=" ">
<path fill="none" stroke="#63b8ff" d="M740.75,-469.25C749.37,-471.06 758.57,-472.99 767.66,-474.9"/>
<polygon fill="#63b8ff" stroke="#63b8ff" points="766.66,-478.27 777.17,-476.9 768.1,-471.42 766.66,-478.27"/>
</a>
</g>
</g>
<!-- Node4&#45;&gt;Node6 -->
<g id="edge5_Node000004_Node000006" class="edge">
<title>Node4&#45;&gt;Node6</title>
<g id="a_edge5_Node000004_Node000006"><a xlink:title=" ">
<path fill="none" stroke="#63b8ff" d="M740.75,-453.4C752.94,-451.57 766.27,-449.57 778.83,-447.68"/>
<polygon fill="#63b8ff" stroke="#63b8ff" points="779.23,-451.16 788.6,-446.21 778.19,-444.24 779.23,-451.16"/>
</a>
</g>
</g>
<!-- Node8 -->
<g id="Node000008" class="node">
<title>Node8</title>
<g id="a_Node000008"><a xlink:href="../../d0/d59/futil_8c.html#aa0145c044cfdde3a1c83323410a59f25" target="_top" xlink:title="safer alternative to strncat">
<polygon fill="white" stroke="#666666" points="613.88,-431.38 548.38,-431.38 548.38,-410.62 613.88,-410.62 613.88,-431.38"/>
<text xml:space="preserve" text-anchor="middle" x="581.12" y="-417.88" font-family="Helvetica,sans-Serif" font-size="10.00">strnz__cat</text>
</a>
</g>
</g>
<!-- Node7&#45;&gt;Node8 -->
<g id="edge9_Node000007_Node000008" class="edge">
<title>Node7&#45;&gt;Node8</title>
<g id="a_edge9_Node000007_Node000008"><a xlink:title=" ">
<path fill="none" stroke="#63b8ff" d="M511.54,-421C519.83,-421 528.44,-421 536.66,-421"/>
<polygon fill="#63b8ff" stroke="#63b8ff" points="536.42,-424.5 546.42,-421 536.42,-417.5 536.42,-424.5"/>
</a>
</g>
</g>
<!-- Node10&#45;&gt;Node3 -->
<g id="edge12_Node000010_Node000003" class="edge">
<title>Node10&#45;&gt;Node3</title>
<g id="a_edge12_Node000010_Node000003"><a xlink:title=" ">
<path fill="none" stroke="#63b8ff" d="M502.17,-460C516.49,-460 532.8,-460 546.79,-460"/>
<polygon fill="#63b8ff" stroke="#63b8ff" points="546.39,-463.5 556.39,-460 546.39,-456.5 546.39,-463.5"/>
</a>
</g>
</g>
<!-- Node11&#45;&gt;Node12 -->
<g id="edge14_Node000011_Node000012" class="edge">
<title>Node11&#45;&gt;Node12</title>
<g id="a_edge14_Node000011_Node000012"><a xlink:title=" ">
<path fill="none" stroke="#63b8ff" d="M510.88,-229C520.46,-229 530.51,-229 539.89,-229"/>
<polygon fill="#63b8ff" stroke="#63b8ff" points="539.82,-232.5 549.82,-229 539.82,-225.5 539.82,-232.5"/>
</a>
</g>
</g>
<!-- Node15&#45;&gt;Node13 -->
<g id="edge20_Node000015_Node000013" class="edge">
<title>Node15&#45;&gt;Node13</title>
<g id="a_edge20_Node000015_Node000013"><a xlink:title=" ">
<path fill="none" stroke="#63b8ff" d="M494.47,-258.92C500.49,-256.09 506.46,-252.5 511.25,-248 544.93,-216.33 564.94,-164.52 574.09,-135.47"/>
<polygon fill="#63b8ff" stroke="#63b8ff" points="577.42,-136.57 576.93,-125.99 570.71,-134.57 577.42,-136.57"/>
</a>
</g>
</g>
<!-- Node16 -->
<g id="Node000016" class="node">
<title>Node16</title>
<g id="a_Node000016"><a xlink:href="../../dc/d40/dwin_8c.html#ac9adcf7339be4a05ab1a7350c236b8a5" target="_top" xlink:title="Draw a box around the specified window.">
<polygon fill="white" stroke="#666666" points="600.75,-278.38 561.5,-278.38 561.5,-257.62 600.75,-257.62 600.75,-278.38"/>
<text xml:space="preserve" text-anchor="middle" x="581.12" y="-264.88" font-family="Helvetica,sans-Serif" font-size="10.00">cbox</text>
</a>
</g>
</g>
<!-- Node15&#45;&gt;Node16 -->
<g id="edge19_Node000015_Node000016" class="edge">
<title>Node15&#45;&gt;Node16</title>
<g id="a_edge19_Node000015_Node000016"><a xlink:title=" ">
<path fill="none" stroke="#63b8ff" d="M494.22,-268C511.15,-268 532.57,-268 549.79,-268"/>
<polygon fill="#63b8ff" stroke="#63b8ff" points="549.69,-271.5 559.69,-268 549.69,-264.5 549.69,-271.5"/>
</a>
</g>
</g>
<!-- Node18 -->
<g id="Node000018" class="node">
<title>Node18</title>
<g id="a_Node000018"><a xlink:href="../../dc/d40/dwin_8c.html#a67659f8a701b74f4dec0d36227a10d1c" target="_top" xlink:title="Display an error message window or print to stderr.">
<polygon fill="white" stroke="#666666" points="375.62,-316.38 295.88,-316.38 295.88,-295.62 375.62,-295.62 375.62,-316.38"/>
<text xml:space="preserve" text-anchor="middle" x="335.75" y="-302.88" font-family="Helvetica,sans-Serif" font-size="10.00">display_error</text>
</a>
</g>
</g>
<!-- Node17&#45;&gt;Node18 -->
<g id="edge22_Node000017_Node000018" class="edge">
<title>Node17&#45;&gt;Node18</title>
<g id="a_edge22_Node000017_Node000018"><a xlink:title=" ">
<path fill="none" stroke="#63b8ff" d="M231.13,-447.56C246.51,-422.02 292,-357.85 317.29,-325.27"/>
<polygon fill="#63b8ff" stroke="#63b8ff" points="319.74,-327.81 323.2,-317.79 314.25,-323.46 319.74,-327.81"/>
</a>
</g>
</g>
<!-- Node20 -->
<g id="Node000020" class="node">
<title>Node20</title>
<g id="a_Node000020"><a xlink:href="../../dc/d40/dwin_8c.html#a4298f891699300bfc4e6e56fd2a8d574" target="_top" xlink:title="Get keycode from chyron.">
<polygon fill="white" stroke="#666666" points="382,-468.38 289.5,-468.38 289.5,-447.62 382,-447.62 382,-468.38"/>
<text xml:space="preserve" text-anchor="middle" x="335.75" y="-454.88" font-family="Helvetica,sans-Serif" font-size="10.00">get_chyron_key</text>
</a>
</g>
</g>
<!-- Node17&#45;&gt;Node20 -->
<g id="edge34_Node000017_Node000020" class="edge">
<title>Node17&#45;&gt;Node20</title>
<g id="a_edge34_Node000017_Node000020"><a xlink:title=" ">
<path fill="none" stroke="#63b8ff" d="M253.91,-458C261.28,-458 269.49,-458 277.78,-458"/>
<polygon fill="#63b8ff" stroke="#63b8ff" points="277.55,-461.5 287.55,-458 277.55,-454.5 277.55,-461.5"/>
</a>
</g>
</g>
<!-- Node21 -->
<g id="Node000021" class="node">
<title>Node21</title>
<g id="a_Node000021"><a xlink:href="../../d0/d6b/cm_8h.html#a0667873879b5846c3fe2fa2cc96059d6" target="_top" xlink:title=" ">
<polygon fill="white" stroke="#666666" points="377.5,-507.38 294,-507.38 294,-486.62 377.5,-486.62 377.5,-507.38"/>
<text xml:space="preserve" text-anchor="middle" x="335.75" y="-493.88" font-family="Helvetica,sans-Serif" font-size="10.00">handle_signal</text>
</a>
</g>
</g>
<!-- Node17&#45;&gt;Node21 -->
<g id="edge35_Node000017_Node000021" class="edge">
<title>Node17&#45;&gt;Node21</title>
<g id="a_edge35_Node000017_Node000021"><a xlink:title=" ">
<path fill="none" stroke="#63b8ff" d="M253.91,-468.04C266.02,-472.38 280.43,-477.54 293.71,-482.3"/>
<polygon fill="#63b8ff" stroke="#63b8ff" points="292.5,-485.58 303.09,-485.66 294.86,-478.99 292.5,-485.58"/>
</a>
</g>
</g>
<!-- Node18&#45;&gt;Node3 -->
<g id="edge23_Node000018_Node000003" class="edge">
<title>Node18&#45;&gt;Node3</title>
<g id="a_edge23_Node000018_Node000003"><a xlink:title=" ">
<path fill="none" stroke="#63b8ff" d="M375.85,-309.78C414.45,-315.38 473.07,-329.2 511.25,-363 539.54,-388.04 522.03,-411.87 547.25,-440 547.93,-440.76 548.65,-441.5 549.4,-442.23"/>
<polygon fill="#63b8ff" stroke="#63b8ff" points="547.01,-444.8 557.03,-448.25 551.35,-439.31 547.01,-444.8"/>
</a>
</g>
</g>
<!-- Node18&#45;&gt;Node7 -->
<g id="edge24_Node000018_Node000007" class="edge">
<title>Node18&#45;&gt;Node7</title>
<g id="a_edge24_Node000018_Node000007"><a xlink:title=" ">
<path fill="none" stroke="#63b8ff" d="M363.49,-316.73C370.1,-320.25 376.77,-324.67 382,-330 406.79,-355.25 392.29,-376.69 418,-401 419.22,-402.15 420.51,-403.24 421.87,-404.28"/>
<polygon fill="#63b8ff" stroke="#63b8ff" points="419.83,-407.13 430.16,-409.49 423.56,-401.21 419.83,-407.13"/>
</a>
</g>
</g>
<!-- Node18&#45;&gt;Node9 -->
<g id="edge25_Node000018_Node000009" class="edge">
<title>Node18&#45;&gt;Node9</title>
<g id="a_edge25_Node000018_Node000009"><a xlink:title=" ">
<path fill="none" stroke="#63b8ff" d="M339.05,-295.18C345.89,-265.5 368.75,-181.88 418,-134 419.05,-132.98 420.15,-132.01 421.31,-131.09"/>
<polygon fill="#63b8ff" stroke="#63b8ff" points="423.14,-134.07 429.62,-125.68 419.33,-128.2 423.14,-134.07"/>
</a>
</g>
</g>
<!-- Node18&#45;&gt;Node10 -->
<g id="edge26_Node000018_Node000010" class="edge">
<title>Node18&#45;&gt;Node10</title>
<g id="a_edge26_Node000018_Node000010"><a xlink:title=" ">
<path fill="none" stroke="#63b8ff" d="M345.33,-316.6C354.88,-328.65 370.49,-349.11 382,-368 400.61,-398.56 392.07,-415.35 418,-440 419.21,-441.15 420.51,-442.25 421.86,-443.29"/>
<polygon fill="#63b8ff" stroke="#63b8ff" points="419.82,-446.14 430.15,-448.51 423.55,-440.22 419.82,-446.14"/>
</a>
</g>
</g>
<!-- Node18&#45;&gt;Node11 -->
<g id="edge27_Node000018_Node000011" class="edge">
<title>Node18&#45;&gt;Node11</title>
<g id="a_edge27_Node000018_Node000011"><a xlink:title=" ">
<path fill="none" stroke="#63b8ff" d="M350.29,-295.24C365.99,-283.07 392.92,-263.11 418,-249 420.66,-247.5 423.46,-246.04 426.31,-244.62"/>
<polygon fill="#63b8ff" stroke="#63b8ff" points="427.72,-247.83 435.28,-240.41 424.74,-241.49 427.72,-247.83"/>
</a>
</g>
</g>
<!-- Node18&#45;&gt;Node12 -->
<g id="edge28_Node000018_Node000012" class="edge">
<title>Node18&#45;&gt;Node12</title>
<g id="a_edge28_Node000018_Node000012"><a xlink:title=" ">
<path fill="none" stroke="#63b8ff" d="M375.98,-309.22C412.82,-310.57 468.52,-308.19 511.25,-287 532.09,-276.66 529.15,-263.62 547.25,-249 548.52,-247.98 549.84,-246.97 551.2,-245.98"/>
<polygon fill="#63b8ff" stroke="#63b8ff" points="552.8,-249.12 559.17,-240.65 548.91,-243.3 552.8,-249.12"/>
</a>
</g>
</g>
<!-- Node18&#45;&gt;Node13 -->
<g id="edge30_Node000018_Node000013" class="edge">
<title>Node18&#45;&gt;Node13</title>
<g id="a_edge30_Node000018_Node000013"><a xlink:title=" ">
<path fill="none" stroke="#63b8ff" d="M343.28,-295.31C355.63,-275.88 384.25,-234.49 418,-210 454.22,-183.72 472.94,-195.14 511.25,-172 529.73,-160.84 548.32,-144.83 561.52,-132.46"/>
<polygon fill="#63b8ff" stroke="#63b8ff" points="563.85,-135.08 568.64,-125.63 559,-130.03 563.85,-135.08"/>
</a>
</g>
</g>
<!-- Node18&#45;&gt;Node14 -->
<g id="edge31_Node000018_Node000014" class="edge">
<title>Node18&#45;&gt;Node14</title>
<g id="a_edge31_Node000018_Node000014"><a xlink:title=" ">
<path fill="none" stroke="#63b8ff" d="M341.13,-295.34C351.41,-271.46 379.14,-212.95 418,-177 420.91,-174.3 424.19,-171.82 427.61,-169.56"/>
<polygon fill="#63b8ff" stroke="#63b8ff" points="429.3,-172.63 436.16,-164.55 425.76,-166.59 429.3,-172.63"/>
</a>
</g>
</g>
<!-- Node18&#45;&gt;Node15 -->
<g id="edge32_Node000018_Node000015" class="edge">
<title>Node18&#45;&gt;Node15</title>
<g id="a_edge32_Node000018_Node000015"><a xlink:title=" ">
<path fill="none" stroke="#63b8ff" d="M372.77,-295.21C388.72,-290.43 407.54,-284.8 423.9,-279.9"/>
<polygon fill="#63b8ff" stroke="#63b8ff" points="424.74,-283.3 433.32,-277.08 422.73,-276.59 424.74,-283.3"/>
</a>
</g>
</g>
<!-- Node18&#45;&gt;Node17 -->
<g id="edge33_Node000018_Node000017" class="edge">
<title>Node18&#45;&gt;Node17</title>
<g id="a_edge33_Node000018_Node000017"><a xlink:title=" ">
<path fill="none" stroke="#63b8ff" d="M329.27,-316.82C313.69,-342.57 268.63,-406.13 243.44,-438.6"/>
<polygon fill="#63b8ff" stroke="#63b8ff" points="240.71,-436.4 237.25,-446.42 246.2,-440.75 240.71,-436.4"/>
</a>
</g>
</g>
<!-- Node19 -->
<g id="Node000019" class="node">
<title>Node19</title>
<g id="a_Node000019"><a xlink:href="../../d0/d59/futil_8c.html#a636608f26d1193b5d860f2312cd8ee49" target="_top" xlink:title="terminates string at New Line, Carriage Return, or max_len">
<polygon fill="white" stroke="#666666" points="484.62,-392.38 444.62,-392.38 444.62,-371.62 484.62,-371.62 484.62,-392.38"/>
<text xml:space="preserve" text-anchor="middle" x="464.62" y="-378.88" font-family="Helvetica,sans-Serif" font-size="10.00">strnz</text>
</a>
</g>
</g>
<!-- Node18&#45;&gt;Node19 -->
<g id="edge29_Node000018_Node000019" class="edge">
<title>Node18&#45;&gt;Node19</title>
<g id="a_edge29_Node000018_Node000019"><a xlink:title=" ">
<path fill="none" stroke="#63b8ff" d="M358.82,-316.73C366.34,-320.64 374.68,-325.27 382,-330 399.02,-341.01 400.96,-347.02 418,-358 423.27,-361.39 429.06,-364.73 434.71,-367.78"/>
<polygon fill="#63b8ff" stroke="#63b8ff" points="432.73,-370.69 443.21,-372.22 435.97,-364.49 432.73,-370.69"/>
</a>
</g>
</g>
</g>
</svg>
