<?xml version="1.0" encoding="UTF-8" standalone="no"?>
<!DOCTYPE svg PUBLIC "-//W3C//DTD SVG 1.1//EN"
 "http://www.w3.org/Graphics/SVG/1.1/DTD/svg11.dtd">
<!-- Generated by graphviz version 14.1.2 (0)
 -->
<!-- Title: go_to_position Pages: 1 -->
<svg width="1226pt" height="665pt"
 viewBox="0.00 0.00 1226.00 665.00" xmlns="http://www.w3.org/2000/svg" xmlns:xlink="http://www.w3.org/1999/xlink">
<g id="graph0" class="graph" transform="scale(1 1) rotate(0) translate(4 661.39)">
<title>go_to_position</title>
<!-- Node1 -->
<g id="Node000001" class="node">
<title>Node1</title>
<g id="a_Node000001"><a xlink:title="Go to Specific File Position.">
<polygon fill="#999999" stroke="#666666" points="87.25,-189.75 0,-189.75 0,-169 87.25,-169 87.25,-189.75"/>
<text xml:space="preserve" text-anchor="middle" x="43.62" y="-176.25" font-family="Helvetica,sans-Serif" font-size="10.00">go_to_position</text>
</a>
</g>
</g>
<!-- Node2 -->
<g id="Node000002" class="node">
<title>Node2</title>
<g id="a_Node000002"><a xlink:href="../../d4/dc1/src_2view__engine_8c.html#acf1bfbd6d2fd4ad9a0385009ef25015c" target="_top" xlink:title="Advance to Next Page.">
<polygon fill="white" stroke="#666666" points="190.25,-189.75 123.25,-189.75 123.25,-169 190.25,-169 190.25,-189.75"/>
<text xml:space="preserve" text-anchor="middle" x="156.75" y="-176.25" font-family="Helvetica,sans-Serif" font-size="10.00">next_page</text>
</a>
</g>
</g>
<!-- Node1&#45;&gt;Node2 -->
<g id="edge1_Node000001_Node000002" class="edge">
<title>Node1&#45;&gt;Node2</title>
<g id="a_edge1_Node000001_Node000002"><a xlink:title=" ">
<path fill="none" stroke="#63b8ff" d="M87.59,-179.38C95.47,-179.38 103.7,-179.38 111.62,-179.38"/>
<polygon fill="#63b8ff" stroke="#63b8ff" points="111.38,-182.88 121.38,-179.38 111.38,-175.88 111.38,-182.88"/>
</a>
</g>
</g>
<!-- Node3 -->
<g id="Node000003" class="node">
<title>Node3</title>
<g id="a_Node000003"><a xlink:href="../../d4/dc1/src_2view__engine_8c.html#a16a4b855ead8402d4744e77a5504082a" target="_top" xlink:title="Display Line on Pad.">
<polygon fill="white" stroke="#666666" points="304.5,-332.75 230,-332.75 230,-312 304.5,-312 304.5,-332.75"/>
<text xml:space="preserve" text-anchor="middle" x="267.25" y="-319.25" font-family="Helvetica,sans-Serif" font-size="10.00">display_line</text>
</a>
</g>
</g>
<!-- Node2&#45;&gt;Node3 -->
<g id="edge2_Node000002_Node000003" class="edge">
<title>Node2&#45;&gt;Node3</title>
<g id="a_edge2_Node000002_Node000003"><a xlink:title=" ">
<path fill="none" stroke="#63b8ff" d="M165.91,-190.12C184.05,-214.04 227.98,-271.94 251.24,-302.59"/>
<polygon fill="#63b8ff" stroke="#63b8ff" points="248.25,-304.45 257.09,-310.3 253.83,-300.21 248.25,-304.45"/>
</a>
</g>
</g>
<!-- Node24 -->
<g id="Node000024" class="node">
<title>Node24</title>
<g id="a_Node000024"><a xlink:href="../../d4/dc1/src_2view__engine_8c.html#a747411d59b020ad11d4567ab0b3db8c2" target="_top" xlink:title="Format Line for Display.">
<polygon fill="white" stroke="#666666" points="295.5,-189.75 239,-189.75 239,-169 295.5,-169 295.5,-189.75"/>
<text xml:space="preserve" text-anchor="middle" x="267.25" y="-176.25" font-family="Helvetica,sans-Serif" font-size="10.00">fmt_line</text>
</a>
</g>
</g>
<!-- Node2&#45;&gt;Node24 -->
<g id="edge38_Node000002_Node000024" class="edge">
<title>Node2&#45;&gt;Node24</title>
<g id="a_edge38_Node000002_Node000024"><a xlink:title=" ">
<path fill="none" stroke="#63b8ff" d="M190.6,-179.38C202.23,-179.38 215.42,-179.38 227.49,-179.38"/>
<polygon fill="#63b8ff" stroke="#63b8ff" points="227.12,-182.88 237.12,-179.38 227.12,-175.88 227.12,-182.88"/>
</a>
</g>
</g>
<!-- Node32 -->
<g id="Node000032" class="node">
<title>Node32</title>
<g id="a_Node000032"><a xlink:href="../../d4/dc1/src_2view__engine_8c.html#a395b27e6a9716bf49e3fc04d53987b33" target="_top" xlink:title="Get Next Line from File.">
<polygon fill="white" stroke="#666666" points="308.25,-150.75 226.25,-150.75 226.25,-130 308.25,-130 308.25,-150.75"/>
<text xml:space="preserve" text-anchor="middle" x="267.25" y="-137.25" font-family="Helvetica,sans-Serif" font-size="10.00">get_next_line</text>
</a>
</g>
</g>
<!-- Node2&#45;&gt;Node32 -->
<g id="edge48_Node000002_Node000032" class="edge">
<title>Node2&#45;&gt;Node32</title>
<g id="a_edge48_Node000002_Node000032"><a xlink:title=" ">
<path fill="none" stroke="#63b8ff" d="M187.97,-168.51C199.61,-164.33 213.1,-159.48 225.57,-155"/>
<polygon fill="#63b8ff" stroke="#63b8ff" points="226.54,-158.37 234.76,-151.69 224.17,-151.78 226.54,-158.37"/>
</a>
</g>
</g>
<!-- Node4 -->
<g id="Node000004" class="node">
<title>Node4</title>
<g id="a_Node000004"><a xlink:href="../../dc/d40/dwin_8c.html#a61b4f28456257f68ed042bed7f187efd" target="_top" xlink:title="Display a simple error message window or print to stderr.">
<polygon fill="white" stroke="#666666" points="410.12,-384.75 364.88,-384.75 364.88,-364 410.12,-364 410.12,-384.75"/>
<text xml:space="preserve" text-anchor="middle" x="387.5" y="-371.25" font-family="Helvetica,sans-Serif" font-size="10.00">Perror</text>
</a>
</g>
</g>
<!-- Node3&#45;&gt;Node4 -->
<g id="edge3_Node000003_Node000004" class="edge">
<title>Node3&#45;&gt;Node4</title>
<g id="a_edge3_Node000003_Node000004"><a xlink:title=" ">
<path fill="none" stroke="#63b8ff" d="M292.75,-333.15C310.48,-340.94 334.61,-351.56 353.96,-360.06"/>
<polygon fill="#63b8ff" stroke="#63b8ff" points="352.47,-363.24 363.04,-364.06 355.29,-356.83 352.47,-363.24"/>
</a>
</g>
</g>
<!-- Node5 -->
<g id="Node000005" class="node">
<title>Node5</title>
<g id="a_Node000005"><a xlink:href="../../dc/d40/dwin_8c.html#a8f6c45ca4a7f6a41c4c88314e697565a" target="_top" xlink:title="Abnormal program termination.">
<polygon fill="white" stroke="#666666" points="936.88,-443.75 890.88,-443.75 890.88,-423 936.88,-423 936.88,-443.75"/>
<text xml:space="preserve" text-anchor="middle" x="913.88" y="-430.25" font-family="Helvetica,sans-Serif" font-size="10.00">abend</text>
</a>
</g>
</g>
<!-- Node4&#45;&gt;Node5 -->
<g id="edge4_Node000004_Node000005" class="edge">
<title>Node4&#45;&gt;Node5</title>
<g id="a_edge4_Node000004_Node000005"><a xlink:title=" ">
<path fill="none" stroke="#63b8ff" d="M393.7,-385.09C404.34,-405.82 430.68,-451.4 466.75,-474.38 575.12,-543.4 622.58,-519.44 750.75,-528.38 792.09,-531.26 807.08,-547.21 844,-528.38 874.12,-513.01 894.13,-477.64 904.48,-454.66"/>
<polygon fill="#63b8ff" stroke="#63b8ff" points="907.63,-456.2 908.32,-445.63 901.19,-453.47 907.63,-456.2"/>
</a>
</g>
</g>
<!-- Node9 -->
<g id="Node000009" class="node">
<title>Node9</title>
<g id="a_Node000009"><a xlink:href="../../dc/d40/dwin_8c.html#a645871e46277e31736bc36d0f3dce4bd" target="_top" xlink:title="construct the chyron string from the chyron structure">
<polygon fill="white" stroke="#666666" points="844,-328.75 750.75,-328.75 750.75,-308 844,-308 844,-328.75"/>
<text xml:space="preserve" text-anchor="middle" x="797.38" y="-315.25" font-family="Helvetica,sans-Serif" font-size="10.00">compile_chyron</text>
</a>
</g>
</g>
<!-- Node4&#45;&gt;Node9 -->
<g id="edge10_Node000004_Node000009" class="edge">
<title>Node4&#45;&gt;Node9</title>
<g id="a_edge10_Node000004_Node000009"><a xlink:title=" ">
<path fill="none" stroke="#63b8ff" d="M410.61,-368.28C426.21,-364.15 447.63,-358.85 466.75,-355.38 561.49,-338.15 673.09,-327.64 739.11,-322.42"/>
<polygon fill="#63b8ff" stroke="#63b8ff" points="739.29,-325.92 748.99,-321.66 738.75,-318.94 739.29,-325.92"/>
</a>
</g>
</g>
<!-- Node11 -->
<g id="Node000011" class="node">
<title>Node11</title>
<g id="a_Node000011"><a xlink:href="../../dc/d40/dwin_8c.html#a3f3feb40fd703913c5c136331f627c91" target="_top" xlink:title="Destroy Chyron structure.">
<polygon fill="white" stroke="#666666" points="842.88,-252.75 751.88,-252.75 751.88,-232 842.88,-232 842.88,-252.75"/>
<text xml:space="preserve" text-anchor="middle" x="797.38" y="-239.25" font-family="Helvetica,sans-Serif" font-size="10.00">destroy_chyron</text>
</a>
</g>
</g>
<!-- Node4&#45;&gt;Node11 -->
<g id="edge12_Node000004_Node000011" class="edge">
<title>Node4&#45;&gt;Node11</title>
<g id="a_edge12_Node000004_Node000011"><a xlink:title=" ">
<path fill="none" stroke="#63b8ff" d="M406.99,-363.59C422.54,-354.84 445.57,-342.65 466.75,-334.38 560.26,-297.85 673.94,-269.46 740.42,-254.38"/>
<polygon fill="#63b8ff" stroke="#63b8ff" points="741,-257.83 749.99,-252.23 739.47,-251.01 741,-257.83"/>
</a>
</g>
</g>
<!-- Node12 -->
<g id="Node000012" class="node">
<title>Node12</title>
<g id="a_Node000012"><a xlink:href="../../dc/d40/dwin_8c.html#ad37d5808ff30ae6894780425d865abae" target="_top" xlink:title="Create and initialize Chyron structure.">
<polygon fill="white" stroke="#666666" points="834.62,-443.75 760.12,-443.75 760.12,-423 834.62,-423 834.62,-443.75"/>
<text xml:space="preserve" text-anchor="middle" x="797.38" y="-430.25" font-family="Helvetica,sans-Serif" font-size="10.00">new_chyron</text>
</a>
</g>
</g>
<!-- Node4&#45;&gt;Node12 -->
<g id="edge13_Node000004_Node000012" class="edge">
<title>Node4&#45;&gt;Node12</title>
<g id="a_edge13_Node000004_Node000012"><a xlink:title=" ">
<path fill="none" stroke="#63b8ff" d="M410.46,-384.37C451.17,-402.3 541.59,-439.27 622.25,-452.38 662.83,-458.97 673.91,-457.07 714.75,-452.38 725.8,-451.11 737.53,-448.9 748.55,-446.43"/>
<polygon fill="#63b8ff" stroke="#63b8ff" points="749.31,-449.85 758.24,-444.14 747.7,-443.03 749.31,-449.85"/>
</a>
</g>
</g>
<!-- Node13 -->
<g id="Node000013" class="node">
<title>Node13</title>
<g id="a_Node000013"><a xlink:href="../../dc/d40/dwin_8c.html#a208ce92c197fdd6d2b007987e534aa3b" target="_top" xlink:title="Set chyron key.">
<polygon fill="white" stroke="#666666" points="843.25,-213.75 751.5,-213.75 751.5,-193 843.25,-193 843.25,-213.75"/>
<text xml:space="preserve" text-anchor="middle" x="797.38" y="-200.25" font-family="Helvetica,sans-Serif" font-size="10.00">set_chyron_key</text>
</a>
</g>
</g>
<!-- Node4&#45;&gt;Node13 -->
<g id="edge15_Node000004_Node000013" class="edge">
<title>Node4&#45;&gt;Node13</title>
<g id="a_edge15_Node000004_Node000013"><a xlink:title=" ">
<path fill="none" stroke="#63b8ff" d="M395.56,-363.67C407.85,-345.89 434.95,-310.35 466.75,-291.38 553.54,-239.6 671.07,-217.75 739.81,-208.93"/>
<polygon fill="#63b8ff" stroke="#63b8ff" points="740.23,-212.41 749.73,-207.72 739.38,-205.46 740.23,-212.41"/>
</a>
</g>
</g>
<!-- Node14 -->
<g id="Node000014" class="node">
<title>Node14</title>
<g id="a_Node000014"><a xlink:href="../../d0/d59/futil_8c.html#a63eb94756fb011a456a3dec900709cd8" target="_top" xlink:title="ssnprintf was designed to be a safer alternative to snprintf.">
<polygon fill="white" stroke="#666666" points="943.25,-194.75 884.5,-194.75 884.5,-174 943.25,-174 943.25,-194.75"/>
<text xml:space="preserve" text-anchor="middle" x="913.88" y="-181.25" font-family="Helvetica,sans-Serif" font-size="10.00">ssnprintf</text>
</a>
</g>
</g>
<!-- Node4&#45;&gt;Node14 -->
<g id="edge17_Node000004_Node000014" class="edge">
<title>Node4&#45;&gt;Node14</title>
<g id="a_edge17_Node000004_Node000014"><a xlink:title=" ">
<path fill="none" stroke="#63b8ff" d="M391.24,-363.72C398.56,-337.53 421.21,-269.76 466.75,-237.38 591.98,-148.32 788.7,-164.95 872.69,-177.34"/>
<polygon fill="#63b8ff" stroke="#63b8ff" points="872.1,-180.79 882.51,-178.85 873.16,-173.87 872.1,-180.79"/>
</a>
</g>
</g>
<!-- Node15 -->
<g id="Node000015" class="node">
<title>Node15</title>
<g id="a_Node000015"><a xlink:href="../../d0/d59/futil_8c.html#a0de2e40df9bd7efc8fd9afb8ad2257e6" target="_top" xlink:title="safer alternative to strncpy">
<polygon fill="white" stroke="#666666" points="947.75,-575.75 880,-575.75 880,-555 947.75,-555 947.75,-575.75"/>
<text xml:space="preserve" text-anchor="middle" x="913.88" y="-562.25" font-family="Helvetica,sans-Serif" font-size="10.00">strnz__cpy</text>
</a>
</g>
</g>
<!-- Node4&#45;&gt;Node15 -->
<g id="edge18_Node000004_Node000015" class="edge">
<title>Node4&#45;&gt;Node15</title>
<g id="a_edge18_Node000004_Node000015"><a xlink:title=" ">
<path fill="none" stroke="#63b8ff" d="M388.52,-385.24C389.25,-422.03 397.05,-542.54 466.75,-596.38 599.48,-698.89 682.69,-650.23 844,-604.38 848.56,-603.08 868.2,-591.86 885.35,-581.78"/>
<polygon fill="#63b8ff" stroke="#63b8ff" points="886.89,-584.94 893.72,-576.84 883.33,-578.91 886.89,-584.94"/>
</a>
</g>
</g>
<!-- Node16 -->
<g id="Node000016" class="node">
<title>Node16</title>
<g id="a_Node000016"><a xlink:href="../../dc/d40/dwin_8c.html#a9dd598e1d49c8764af1eec42c682623e" target="_top" xlink:title="Delete the current window and its associated box window.">
<polygon fill="white" stroke="#666666" points="824.12,-519.75 770.62,-519.75 770.62,-499 824.12,-499 824.12,-519.75"/>
<text xml:space="preserve" text-anchor="middle" x="797.38" y="-506.25" font-family="Helvetica,sans-Serif" font-size="10.00">win_del</text>
</a>
</g>
</g>
<!-- Node4&#45;&gt;Node16 -->
<g id="edge19_Node000004_Node000016" class="edge">
<title>Node4&#45;&gt;Node16</title>
<g id="a_edge19_Node000004_Node000016"><a xlink:title=" ">
<path fill="none" stroke="#63b8ff" d="M397.95,-385.16C411.59,-400.02 438.31,-426.52 466.75,-440.38 565.01,-488.26 695.54,-503.01 758.81,-507.48"/>
<polygon fill="#63b8ff" stroke="#63b8ff" points="758.47,-510.96 768.67,-508.12 758.92,-503.97 758.47,-510.96"/>
</a>
</g>
</g>
<!-- Node17 -->
<g id="Node000017" class="node">
<title>Node17</title>
<g id="a_Node000017"><a xlink:href="../../dc/d40/dwin_8c.html#a435c7bff7ffedb8f51c6de9259e36f6c" target="_top" xlink:title="Create a new window with optional box and title.">
<polygon fill="white" stroke="#666666" points="826.75,-595.75 768,-595.75 768,-575 826.75,-575 826.75,-595.75"/>
<text xml:space="preserve" text-anchor="middle" x="797.38" y="-582.25" font-family="Helvetica,sans-Serif" font-size="10.00">win_new</text>
</a>
</g>
</g>
<!-- Node4&#45;&gt;Node17 -->
<g id="edge20_Node000004_Node000017" class="edge">
<title>Node4&#45;&gt;Node17</title>
<g id="a_edge20_Node000004_Node000017"><a xlink:title=" ">
<path fill="none" stroke="#63b8ff" d="M389.27,-385.19C392.27,-418.16 406.18,-517.81 466.75,-561.38 553.97,-624.12 689.96,-607.91 756.7,-594.69"/>
<polygon fill="#63b8ff" stroke="#63b8ff" points="757.39,-598.12 766.47,-592.66 755.97,-591.26 757.39,-598.12"/>
</a>
</g>
</g>
<!-- Node19 -->
<g id="Node000019" class="node">
<title>Node19</title>
<g id="a_Node000019"><a xlink:href="../../dc/d40/dwin_8c.html#acf4c709bccc4c965a5d61db978db31a3" target="_top" xlink:title="Wrapper for wgetch that handles signals and mouse events.">
<polygon fill="white" stroke="#666666" points="555.12,-384.75 497.88,-384.75 497.88,-364 555.12,-364 555.12,-384.75"/>
<text xml:space="preserve" text-anchor="middle" x="526.5" y="-371.25" font-family="Helvetica,sans-Serif" font-size="10.00">xwgetch</text>
</a>
</g>
</g>
<!-- Node4&#45;&gt;Node19 -->
<g id="edge23_Node000004_Node000019" class="edge">
<title>Node4&#45;&gt;Node19</title>
<g id="a_edge23_Node000004_Node000019"><a xlink:title=" ">
<path fill="none" stroke="#63b8ff" d="M410.51,-374.38C430.92,-374.38 461.76,-374.38 486.36,-374.38"/>
<polygon fill="#63b8ff" stroke="#63b8ff" points="486.35,-377.88 496.35,-374.38 486.35,-370.88 486.35,-377.88"/>
</a>
</g>
</g>
<!-- Node6 -->
<g id="Node000006" class="node">
<title>Node6</title>
<g id="a_Node000006"><a xlink:href="../../dc/d40/dwin_8c.html#afc0985a403e3eac0b2cd8f0fab500256" target="_top" xlink:title="Gracefully shut down NCurses and restore terminal settings.">
<polygon fill="white" stroke="#666666" points="1073.25,-443.75 983.75,-443.75 983.75,-423 1073.25,-423 1073.25,-443.75"/>
<text xml:space="preserve" text-anchor="middle" x="1028.5" y="-430.25" font-family="Helvetica,sans-Serif" font-size="10.00">destroy_curses</text>
</a>
</g>
</g>
<!-- Node5&#45;&gt;Node6 -->
<g id="edge5_Node000005_Node000006" class="edge">
<title>Node5&#45;&gt;Node6</title>
<g id="a_edge5_Node000005_Node000006"><a xlink:title=" ">
<path fill="none" stroke="#63b8ff" d="M937.13,-433.38C947.24,-433.38 959.69,-433.38 972.09,-433.38"/>
<polygon fill="#63b8ff" stroke="#63b8ff" points="971.88,-436.88 981.88,-433.38 971.88,-429.88 971.88,-436.88"/>
</a>
</g>
</g>
<!-- Node7 -->
<g id="Node000007" class="node">
<title>Node7</title>
<g id="a_Node000007"><a xlink:href="../../d7/d72/scriou_8c.html#ac5e3adb304b78910fc77761ef6a743f0" target="_top" xlink:title="restore_shell_tioctl() &#45; restore shell terminal settings">
<polygon fill="white" stroke="#666666" points="1218.25,-471.75 1109.25,-471.75 1109.25,-451 1218.25,-451 1218.25,-471.75"/>
<text xml:space="preserve" text-anchor="middle" x="1163.75" y="-458.25" font-family="Helvetica,sans-Serif" font-size="10.00">restore_shell_tioctl</text>
</a>
</g>
</g>
<!-- Node5&#45;&gt;Node7 -->
<g id="edge8_Node000005_Node000007" class="edge">
<title>Node5&#45;&gt;Node7</title>
<g id="a_edge8_Node000005_Node000007"><a xlink:title=" ">
<path fill="none" stroke="#63b8ff" d="M937.25,-440.88C950.59,-445.03 967.95,-449.83 983.75,-452.38 1021.15,-458.4 1063.46,-460.73 1097.55,-461.52"/>
<polygon fill="#63b8ff" stroke="#63b8ff" points="1097.2,-465.01 1107.26,-461.7 1097.33,-458.01 1097.2,-465.01"/>
</a>
</g>
</g>
<!-- Node8 -->
<g id="Node000008" class="node">
<title>Node8</title>
<g id="a_Node000008"><a xlink:href="../../da/d12/sig_8c.html#a06c1eb6cf3649dc187115565409f91af" target="_top" xlink:title="Set signal handlers to default behavior.">
<polygon fill="white" stroke="#666666" points="1204.38,-423.75 1123.12,-423.75 1123.12,-403 1204.38,-403 1204.38,-423.75"/>
<text xml:space="preserve" text-anchor="middle" x="1163.75" y="-410.25" font-family="Helvetica,sans-Serif" font-size="10.00">sig_dfl_mode</text>
</a>
</g>
</g>
<!-- Node5&#45;&gt;Node8 -->
<g id="edge9_Node000005_Node000008" class="edge">
<title>Node5&#45;&gt;Node8</title>
<g id="a_edge9_Node000005_Node000008"><a xlink:title=" ">
<path fill="none" stroke="#63b8ff" d="M937.21,-425.6C950.53,-421.37 967.9,-416.57 983.75,-414.38 1026.53,-408.46 1075.61,-408.67 1111.54,-410.1"/>
<polygon fill="#63b8ff" stroke="#63b8ff" points="1111.06,-413.58 1121.21,-410.54 1111.38,-406.59 1111.06,-413.58"/>
</a>
</g>
</g>
<!-- Node6&#45;&gt;Node7 -->
<g id="edge6_Node000006_Node000007" class="edge">
<title>Node6&#45;&gt;Node7</title>
<g id="a_edge6_Node000006_Node000007"><a xlink:title=" ">
<path fill="none" stroke="#63b8ff" d="M1073.5,-442.62C1082.12,-444.43 1091.32,-446.37 1100.41,-448.28"/>
<polygon fill="#63b8ff" stroke="#63b8ff" points="1099.41,-451.64 1109.92,-450.27 1100.85,-444.79 1099.41,-451.64"/>
</a>
</g>
</g>
<!-- Node6&#45;&gt;Node8 -->
<g id="edge7_Node000006_Node000008" class="edge">
<title>Node6&#45;&gt;Node8</title>
<g id="a_edge7_Node000006_Node000008"><a xlink:title=" ">
<path fill="none" stroke="#63b8ff" d="M1073.5,-426.77C1085.69,-424.94 1099.02,-422.94 1111.58,-421.06"/>
<polygon fill="#63b8ff" stroke="#63b8ff" points="1111.98,-424.54 1121.35,-419.59 1110.94,-417.61 1111.98,-424.54"/>
</a>
</g>
</g>
<!-- Node10 -->
<g id="Node000010" class="node">
<title>Node10</title>
<g id="a_Node000010"><a xlink:href="../../d0/d59/futil_8c.html#aa0145c044cfdde3a1c83323410a59f25" target="_top" xlink:title="safer alternative to strncat">
<polygon fill="white" stroke="#666666" points="946.62,-328.75 881.12,-328.75 881.12,-308 946.62,-308 946.62,-328.75"/>
<text xml:space="preserve" text-anchor="middle" x="913.88" y="-315.25" font-family="Helvetica,sans-Serif" font-size="10.00">strnz__cat</text>
</a>
</g>
</g>
<!-- Node9&#45;&gt;Node10 -->
<g id="edge11_Node000009_Node000010" class="edge">
<title>Node9&#45;&gt;Node10</title>
<g id="a_edge11_Node000009_Node000010"><a xlink:title=" ">
<path fill="none" stroke="#63b8ff" d="M844.29,-318.38C852.58,-318.38 861.19,-318.38 869.41,-318.38"/>
<polygon fill="#63b8ff" stroke="#63b8ff" points="869.17,-321.88 879.17,-318.38 869.17,-314.88 869.17,-321.88"/>
</a>
</g>
</g>
<!-- Node12&#45;&gt;Node5 -->
<g id="edge14_Node000012_Node000005" class="edge">
<title>Node12&#45;&gt;Node5</title>
<g id="a_edge14_Node000012_Node000005"><a xlink:title=" ">
<path fill="none" stroke="#63b8ff" d="M834.92,-433.38C849.24,-433.38 865.55,-433.38 879.54,-433.38"/>
<polygon fill="#63b8ff" stroke="#63b8ff" points="879.14,-436.88 889.14,-433.38 879.14,-429.88 879.14,-436.88"/>
</a>
</g>
</g>
<!-- Node13&#45;&gt;Node14 -->
<g id="edge16_Node000013_Node000014" class="edge">
<title>Node13&#45;&gt;Node14</title>
<g id="a_edge16_Node000013_Node000014"><a xlink:title=" ">
<path fill="none" stroke="#63b8ff" d="M843.63,-195.87C853.32,-194.26 863.48,-192.57 872.95,-191"/>
<polygon fill="#63b8ff" stroke="#63b8ff" points="873.29,-194.49 882.59,-189.4 872.15,-187.59 873.29,-194.49"/>
</a>
</g>
</g>
<!-- Node17&#45;&gt;Node15 -->
<g id="edge22_Node000017_Node000015" class="edge">
<title>Node17&#45;&gt;Node15</title>
<g id="a_edge22_Node000017_Node000015"><a xlink:title=" ">
<path fill="none" stroke="#63b8ff" d="M826.97,-580.38C839.62,-578.17 854.78,-575.52 868.83,-573.07"/>
<polygon fill="#63b8ff" stroke="#63b8ff" points="869.04,-576.59 878.29,-571.42 867.83,-569.69 869.04,-576.59"/>
</a>
</g>
</g>
<!-- Node18 -->
<g id="Node000018" class="node">
<title>Node18</title>
<g id="a_Node000018"><a xlink:href="../../dc/d40/dwin_8c.html#ac9adcf7339be4a05ab1a7350c236b8a5" target="_top" xlink:title="Draw a box around the specified window.">
<polygon fill="white" stroke="#666666" points="933.5,-614.75 894.25,-614.75 894.25,-594 933.5,-594 933.5,-614.75"/>
<text xml:space="preserve" text-anchor="middle" x="913.88" y="-601.25" font-family="Helvetica,sans-Serif" font-size="10.00">cbox</text>
</a>
</g>
</g>
<!-- Node17&#45;&gt;Node18 -->
<g id="edge21_Node000017_Node000018" class="edge">
<title>Node17&#45;&gt;Node18</title>
<g id="a_edge21_Node000017_Node000018"><a xlink:title=" ">
<path fill="none" stroke="#63b8ff" d="M826.97,-590.12C843.98,-592.94 865.53,-596.52 882.79,-599.38"/>
<polygon fill="#63b8ff" stroke="#63b8ff" points="882.02,-602.8 892.46,-600.99 883.16,-595.9 882.02,-602.8"/>
</a>
</g>
</g>
<!-- Node20 -->
<g id="Node000020" class="node">
<title>Node20</title>
<g id="a_Node000020"><a xlink:href="../../dc/d40/dwin_8c.html#a67659f8a701b74f4dec0d36227a10d1c" target="_top" xlink:title="Display an error message window or print to stderr.">
<polygon fill="white" stroke="#666666" points="708.38,-365.75 628.62,-365.75 628.62,-345 708.38,-345 708.38,-365.75"/>
<text xml:space="preserve" text-anchor="middle" x="668.5" y="-352.25" font-family="Helvetica,sans-Serif" font-size="10.00">display_error</text>
</a>
</g>
</g>
<!-- Node19&#45;&gt;Node20 -->
<g id="edge24_Node000019_Node000020" class="edge">
<title>Node19&#45;&gt;Node20</title>
<g id="a_edge24_Node000019_Node000020"><a xlink:title=" ">
<path fill="none" stroke="#63b8ff" d="M555.49,-365.05C573.07,-361.49 596.24,-358.02 616.95,-355.72"/>
<polygon fill="#63b8ff" stroke="#63b8ff" points="617.06,-359.23 626.65,-354.73 616.34,-352.27 617.06,-359.23"/>
</a>
</g>
</g>
<!-- Node22 -->
<g id="Node000022" class="node">
<title>Node22</title>
<g id="a_Node000022"><a xlink:href="../../dc/d40/dwin_8c.html#a4298f891699300bfc4e6e56fd2a8d574" target="_top" xlink:title="Get keycode from chyron.">
<polygon fill="white" stroke="#666666" points="714.75,-443.75 622.25,-443.75 622.25,-423 714.75,-423 714.75,-443.75"/>
<text xml:space="preserve" text-anchor="middle" x="668.5" y="-430.25" font-family="Helvetica,sans-Serif" font-size="10.00">get_chyron_key</text>
</a>
</g>
</g>
<!-- Node19&#45;&gt;Node22 -->
<g id="edge36_Node000019_Node000022" class="edge">
<title>Node19&#45;&gt;Node22</title>
<g id="a_edge36_Node000019_Node000022"><a xlink:title=" ">
<path fill="none" stroke="#63b8ff" d="M553.18,-385.2C575.18,-394.47 607.11,-407.93 631.64,-418.26"/>
<polygon fill="#63b8ff" stroke="#63b8ff" points="630.02,-421.38 640.59,-422.03 632.73,-414.93 630.02,-421.38"/>
</a>
</g>
</g>
<!-- Node23 -->
<g id="Node000023" class="node">
<title>Node23</title>
<g id="a_Node000023"><a xlink:href="../../d0/d6b/cm_8h.html#a0667873879b5846c3fe2fa2cc96059d6" target="_top" xlink:title=" ">
<polygon fill="white" stroke="#666666" points="710.25,-404.75 626.75,-404.75 626.75,-384 710.25,-384 710.25,-404.75"/>
<text xml:space="preserve" text-anchor="middle" x="668.5" y="-391.25" font-family="Helvetica,sans-Serif" font-size="10.00">handle_signal</text>
</a>
</g>
</g>
<!-- Node19&#45;&gt;Node23 -->
<g id="edge37_Node000019_Node000023" class="edge">
<title>Node19&#45;&gt;Node23</title>
<g id="a_edge37_Node000019_Node000023"><a xlink:title=" ">
<path fill="none" stroke="#63b8ff" d="M555.49,-378.37C572.52,-380.81 594.8,-383.99 615,-386.88"/>
<polygon fill="#63b8ff" stroke="#63b8ff" points="614.39,-390.32 624.78,-388.27 615.38,-383.39 614.39,-390.32"/>
</a>
</g>
</g>
<!-- Node20&#45;&gt;Node5 -->
<g id="edge25_Node000020_Node000005" class="edge">
<title>Node20&#45;&gt;Node5</title>
<g id="a_edge25_Node000020_Node000005"><a xlink:title=" ">
<path fill="none" stroke="#63b8ff" d="M703.34,-366.22C749.94,-381.15 833.33,-407.88 879.62,-422.72"/>
<polygon fill="#63b8ff" stroke="#63b8ff" points="878.51,-426.04 889.1,-425.76 880.65,-419.37 878.51,-426.04"/>
</a>
</g>
</g>
<!-- Node20&#45;&gt;Node9 -->
<g id="edge26_Node000020_Node000009" class="edge">
<title>Node20&#45;&gt;Node9</title>
<g id="a_edge26_Node000020_Node000009"><a xlink:title=" ">
<path fill="none" stroke="#63b8ff" d="M706.54,-344.57C719.7,-340.74 734.7,-336.36 748.63,-332.3"/>
<polygon fill="#63b8ff" stroke="#63b8ff" points="749.44,-335.71 758.06,-329.55 747.48,-328.99 749.44,-335.71"/>
</a>
</g>
</g>
<!-- Node20&#45;&gt;Node11 -->
<g id="edge27_Node000020_Node000011" class="edge">
<title>Node20&#45;&gt;Node11</title>
<g id="a_edge27_Node000020_Node000011"><a xlink:title=" ">
<path fill="none" stroke="#63b8ff" d="M677.28,-344.68C690.7,-326.75 719.78,-290.29 750.75,-266.38 754.31,-263.62 758.24,-261.03 762.25,-258.63"/>
<polygon fill="#63b8ff" stroke="#63b8ff" points="763.84,-261.75 770.89,-253.84 760.45,-255.62 763.84,-261.75"/>
</a>
</g>
</g>
<!-- Node20&#45;&gt;Node12 -->
<g id="edge28_Node000020_Node000012" class="edge">
<title>Node20&#45;&gt;Node12</title>
<g id="a_edge28_Node000020_Node000012"><a xlink:title=" ">
<path fill="none" stroke="#63b8ff" d="M698.04,-366.21C703.77,-368.87 709.6,-371.95 714.75,-375.38 733.08,-387.56 732.85,-396.58 750.75,-409.38 754.6,-412.13 758.81,-414.77 763.06,-417.22"/>
<polygon fill="#63b8ff" stroke="#63b8ff" points="761.12,-420.15 771.58,-421.86 764.47,-414.01 761.12,-420.15"/>
</a>
</g>
</g>
<!-- Node20&#45;&gt;Node13 -->
<g id="edge29_Node000020_Node000013" class="edge">
<title>Node20&#45;&gt;Node13</title>
<g id="a_edge29_Node000020_Node000013"><a xlink:title=" ">
<path fill="none" stroke="#63b8ff" d="M673.49,-344.63C683.13,-320.01 709.95,-258.88 750.75,-223.38 752.19,-222.13 753.71,-220.94 755.3,-219.83"/>
<polygon fill="#63b8ff" stroke="#63b8ff" points="756.81,-223 763.62,-214.89 753.24,-216.98 756.81,-223"/>
</a>
</g>
</g>
<!-- Node20&#45;&gt;Node14 -->
<g id="edge30_Node000020_Node000014" class="edge">
<title>Node20&#45;&gt;Node14</title>
<g id="a_edge30_Node000020_Node000014"><a xlink:title=" ">
<path fill="none" stroke="#63b8ff" d="M683.01,-344.71C698.67,-332.66 725.58,-312.97 750.75,-299.38 790.13,-278.11 807.42,-287.16 844,-261.38 866.3,-245.65 886.42,-221.42 899.08,-204.35"/>
<polygon fill="#63b8ff" stroke="#63b8ff" points="901.75,-206.63 904.74,-196.47 896.06,-202.55 901.75,-206.63"/>
</a>
</g>
</g>
<!-- Node20&#45;&gt;Node15 -->
<g id="edge32_Node000020_Node000015" class="edge">
<title>Node20&#45;&gt;Node15</title>
<g id="a_edge32_Node000020_Node000015"><a xlink:title=" ">
<path fill="none" stroke="#63b8ff" d="M701.52,-366.01C706.33,-368.56 710.94,-371.65 714.75,-375.38 741.74,-401.8 723.37,-426.34 750.75,-452.38 783.18,-483.21 807.25,-464.83 844,-490.38 865.96,-505.64 886.02,-529.06 898.76,-545.66"/>
<polygon fill="#63b8ff" stroke="#63b8ff" points="895.68,-547.4 904.47,-553.32 901.3,-543.21 895.68,-547.4"/>
</a>
</g>
</g>
<!-- Node20&#45;&gt;Node16 -->
<g id="edge33_Node000020_Node000016" class="edge">
<title>Node20&#45;&gt;Node16</title>
<g id="a_edge33_Node000020_Node000016"><a xlink:title=" ">
<path fill="none" stroke="#63b8ff" d="M702.84,-366.13C707.26,-368.63 711.41,-371.68 714.75,-375.38 749.26,-413.52 717.56,-446.08 750.75,-485.38 753.51,-488.64 756.83,-491.53 760.41,-494.06"/>
<polygon fill="#63b8ff" stroke="#63b8ff" points="758.58,-497.04 768.96,-499.17 762.17,-491.04 758.58,-497.04"/>
</a>
</g>
</g>
<!-- Node20&#45;&gt;Node17 -->
<g id="edge34_Node000020_Node000017" class="edge">
<title>Node20&#45;&gt;Node17</title>
<g id="a_edge34_Node000020_Node000017"><a xlink:title=" ">
<path fill="none" stroke="#63b8ff" d="M703.58,-366.15C707.78,-368.64 711.68,-371.67 714.75,-375.38 759.37,-429.12 720.17,-465.57 750.75,-528.38 757.53,-542.3 768.23,-555.92 777.57,-566.35"/>
<polygon fill="#63b8ff" stroke="#63b8ff" points="774.88,-568.6 784.26,-573.52 779.99,-563.82 774.88,-568.6"/>
</a>
</g>
</g>
<!-- Node20&#45;&gt;Node19 -->
<g id="edge35_Node000020_Node000019" class="edge">
<title>Node20&#45;&gt;Node19</title>
<g id="a_edge35_Node000020_Node000019"><a xlink:title=" ">
<path fill="none" stroke="#63b8ff" d="M631.57,-366.23C611.78,-369.89 587.19,-373.28 566.89,-375.17"/>
<polygon fill="#63b8ff" stroke="#63b8ff" points="566.68,-371.67 557,-375.98 567.26,-378.65 566.68,-371.67"/>
</a>
</g>
</g>
<!-- Node21 -->
<g id="Node000021" class="node">
<title>Node21</title>
<g id="a_Node000021"><a xlink:href="../../d0/d59/futil_8c.html#a636608f26d1193b5d860f2312cd8ee49" target="_top" xlink:title="terminates string at New Line, Carriage Return, or max_len">
<polygon fill="white" stroke="#666666" points="817.38,-367.75 777.38,-367.75 777.38,-347 817.38,-347 817.38,-367.75"/>
<text xml:space="preserve" text-anchor="middle" x="797.38" y="-354.25" font-family="Helvetica,sans-Serif" font-size="10.00">strnz</text>
</a>
</g>
</g>
<!-- Node20&#45;&gt;Node21 -->
<g id="edge31_Node000020_Node000021" class="edge">
<title>Node20&#45;&gt;Node21</title>
<g id="a_edge31_Node000020_Node000021"><a xlink:title=" ">
<path fill="none" stroke="#63b8ff" d="M708.6,-355.99C727.06,-356.28 748.76,-356.62 765.96,-356.9"/>
<polygon fill="#63b8ff" stroke="#63b8ff" points="765.49,-360.39 775.54,-357.05 765.6,-353.39 765.49,-360.39"/>
</a>
</g>
</g>
<!-- Node25 -->
<g id="Node000025" class="node">
<title>Node25</title>
<g id="a_Node000025"><a xlink:href="../../d4/dc1/src_2view__engine_8c.html#a9fc984ba8ce6c4059b33a915d526357f" target="_top" xlink:title="Parse ANSI SGR Escape Sequence.">
<polygon fill="white" stroke="#666666" points="430.75,-98.75 344.25,-98.75 344.25,-78 430.75,-78 430.75,-98.75"/>
<text xml:space="preserve" text-anchor="middle" x="387.5" y="-85.25" font-family="Helvetica,sans-Serif" font-size="10.00">parse_ansi_str</text>
</a>
</g>
</g>
<!-- Node24&#45;&gt;Node25 -->
<g id="edge39_Node000024_Node000025" class="edge">
<title>Node24&#45;&gt;Node25</title>
<g id="a_edge39_Node000024_Node000025"><a xlink:title=" ">
<path fill="none" stroke="#63b8ff" d="M292.55,-168.56C297.88,-165.82 303.38,-162.71 308.25,-159.38 330.77,-143.96 353.55,-122.48 368.68,-107.19"/>
<polygon fill="#63b8ff" stroke="#63b8ff" points="371.12,-109.69 375.58,-100.08 366.1,-104.81 371.12,-109.69"/>
</a>
</g>
</g>
<!-- Node31 -->
<g id="Node000031" class="node">
<title>Node31</title>
<g id="a_Node000031"><a xlink:href="../../d0/d59/futil_8c.html#a4f42956462e811d96c9fb881a85dada4" target="_top" xlink:title="Trims trailing spaces from string s in place.">
<polygon fill="white" stroke="#666666" points="407.5,-189.75 367.5,-189.75 367.5,-169 407.5,-169 407.5,-189.75"/>
<text xml:space="preserve" text-anchor="middle" x="387.5" y="-176.25" font-family="Helvetica,sans-Serif" font-size="10.00">rtrim</text>
</a>
</g>
</g>
<!-- Node24&#45;&gt;Node31 -->
<g id="edge47_Node000024_Node000031" class="edge">
<title>Node24&#45;&gt;Node31</title>
<g id="a_edge47_Node000024_Node000031"><a xlink:title=" ">
<path fill="none" stroke="#63b8ff" d="M295.97,-179.38C313.89,-179.38 337.23,-179.38 355.73,-179.38"/>
<polygon fill="#63b8ff" stroke="#63b8ff" points="355.56,-182.88 365.56,-179.38 355.56,-175.88 355.56,-182.88"/>
</a>
</g>
</g>
<!-- Node26 -->
<g id="Node000026" class="node">
<title>Node26</title>
<g id="a_Node000026"><a xlink:href="../../d0/d59/futil_8c.html#ab96e4c73a7b3ba1310044b479733cdd9" target="_top" xlink:title="a safer alternative to atoi() for converting ASCII strings to integers.">
<polygon fill="white" stroke="#666666" points="546.5,-98.75 506.5,-98.75 506.5,-78 546.5,-78 546.5,-98.75"/>
<text xml:space="preserve" text-anchor="middle" x="526.5" y="-85.25" font-family="Helvetica,sans-Serif" font-size="10.00">a_toi</text>
</a>
</g>
</g>
<!-- Node25&#45;&gt;Node26 -->
<g id="edge40_Node000025_Node000026" class="edge">
<title>Node25&#45;&gt;Node26</title>
<g id="a_edge40_Node000025_Node000026"><a xlink:title=" ">
<path fill="none" stroke="#63b8ff" d="M431.1,-88.38C451.72,-88.38 476.01,-88.38 494.78,-88.38"/>
<polygon fill="#63b8ff" stroke="#63b8ff" points="494.72,-91.88 504.72,-88.38 494.72,-84.88 494.72,-91.88"/>
</a>
</g>
</g>
<!-- Node27 -->
<g id="Node000027" class="node">
<title>Node27</title>
<g id="a_Node000027"><a xlink:href="../../dc/d40/dwin_8c.html#af0ba4efbc81c259a2519ca41dd9d1599" target="_top" xlink:title="Get color pair index for foreground and background colors.">
<polygon fill="white" stroke="#666666" points="563,-137.75 490,-137.75 490,-117 563,-117 563,-137.75"/>
<text xml:space="preserve" text-anchor="middle" x="526.5" y="-124.25" font-family="Helvetica,sans-Serif" font-size="10.00">get_clr_pair</text>
</a>
</g>
</g>
<!-- Node25&#45;&gt;Node27 -->
<g id="edge41_Node000025_Node000027" class="edge">
<title>Node25&#45;&gt;Node27</title>
<g id="a_edge41_Node000025_Node000027"><a xlink:title=" ">
<path fill="none" stroke="#63b8ff" d="M426.66,-99.24C442.9,-103.86 461.99,-109.29 479.03,-114.15"/>
<polygon fill="#63b8ff" stroke="#63b8ff" points="477.86,-117.45 488.44,-116.82 479.78,-110.72 477.86,-117.45"/>
</a>
</g>
</g>
<!-- Node28 -->
<g id="Node000028" class="node">
<title>Node28</title>
<g id="a_Node000028"><a xlink:href="../../dc/d40/dwin_8c.html#a4900dd34e828972e58b0ca549cf7d4d8" target="_top" xlink:title="Get color index for RGB color.">
<polygon fill="white" stroke="#666666" points="576.88,-59.75 476.12,-59.75 476.12,-39 576.88,-39 576.88,-59.75"/>
<text xml:space="preserve" text-anchor="middle" x="526.5" y="-46.25" font-family="Helvetica,sans-Serif" font-size="10.00">rgb_to_curses_clr</text>
</a>
</g>
</g>
<!-- Node25&#45;&gt;Node28 -->
<g id="edge44_Node000025_Node000028" class="edge">
<title>Node25&#45;&gt;Node28</title>
<g id="a_edge44_Node000025_Node000028"><a xlink:title=" ">
<path fill="none" stroke="#63b8ff" d="M426.66,-77.51C442.1,-73.12 460.12,-67.99 476.51,-63.32"/>
<polygon fill="#63b8ff" stroke="#63b8ff" points="477.43,-66.7 486.09,-60.59 475.51,-59.97 477.43,-66.7"/>
</a>
</g>
</g>
<!-- Node30 -->
<g id="Node000030" class="node">
<title>Node30</title>
<g id="a_Node000030"><a xlink:href="../../dc/d40/dwin_8c.html#a31ee0d93c7b527f92559fc410152f768" target="_top" xlink:title="Convert XTerm 256 color index to RGB color.">
<polygon fill="white" stroke="#666666" points="586.25,-20.75 466.75,-20.75 466.75,0 586.25,0 586.25,-20.75"/>
<text xml:space="preserve" text-anchor="middle" x="526.5" y="-7.25" font-family="Helvetica,sans-Serif" font-size="10.00">xterm256_idx_to_rgb</text>
</a>
</g>
</g>
<!-- Node25&#45;&gt;Node30 -->
<g id="edge46_Node000025_Node000030" class="edge">
<title>Node25&#45;&gt;Node30</title>
<g id="a_edge46_Node000025_Node000030"><a xlink:title=" ">
<path fill="none" stroke="#63b8ff" d="M400.44,-77.66C415.14,-64.92 441.29,-43.73 466.75,-30.38 470.19,-28.57 473.83,-26.87 477.55,-25.3"/>
<polygon fill="#63b8ff" stroke="#63b8ff" points="478.66,-28.62 486.69,-21.71 476.11,-22.1 478.66,-28.62"/>
</a>
</g>
</g>
<!-- Node27&#45;&gt;Node14 -->
<g id="edge43_Node000027_Node000014" class="edge">
<title>Node27&#45;&gt;Node14</title>
<g id="a_edge43_Node000027_Node000014"><a xlink:title=" ">
<path fill="none" stroke="#63b8ff" d="M563.34,-125.84C622.77,-124.23 744.98,-124.9 844,-151.38 858.17,-155.16 872.95,-161.84 885.17,-168.2"/>
<polygon fill="#63b8ff" stroke="#63b8ff" points="883.38,-171.21 893.84,-172.9 886.72,-165.06 883.38,-171.21"/>
</a>
</g>
</g>
<!-- Node27&#45;&gt;Node20 -->
<g id="edge42_Node000027_Node000020" class="edge">
<title>Node27&#45;&gt;Node20</title>
<g id="a_edge42_Node000027_Node000020"><a xlink:title=" ">
<path fill="none" stroke="#63b8ff" d="M534.06,-138.07C555.88,-173.6 626.21,-288.12 655.02,-335.04"/>
<polygon fill="#63b8ff" stroke="#63b8ff" points="651.94,-336.73 660.16,-343.42 657.91,-333.06 651.94,-336.73"/>
</a>
</g>
</g>
<!-- Node29 -->
<g id="Node000029" class="node">
<title>Node29</title>
<g id="a_Node000029"><a xlink:href="../../dc/d40/dwin_8c.html#aa3a6b291c0820d9da545325a2dba5274" target="_top" xlink:title="Apply gamma correction to RGB color.">
<polygon fill="white" stroke="#666666" points="711.38,-59.75 625.62,-59.75 625.62,-39 711.38,-39 711.38,-59.75"/>
<text xml:space="preserve" text-anchor="middle" x="668.5" y="-46.25" font-family="Helvetica,sans-Serif" font-size="10.00">apply_gamma</text>
</a>
</g>
</g>
<!-- Node28&#45;&gt;Node29 -->
<g id="edge45_Node000028_Node000029" class="edge">
<title>Node28&#45;&gt;Node29</title>
<g id="a_edge45_Node000028_Node000029"><a xlink:title=" ">
<path fill="none" stroke="#63b8ff" d="M577.25,-49.38C589.16,-49.38 601.93,-49.38 614.01,-49.38"/>
<polygon fill="#63b8ff" stroke="#63b8ff" points="613.8,-52.88 623.8,-49.38 613.8,-45.88 613.8,-52.88"/>
</a>
</g>
</g>
</g>
</svg>
