<?xml version="1.0" encoding="UTF-8" standalone="no"?>
<!DOCTYPE svg PUBLIC "-//W3C//DTD SVG 1.1//EN"
 "http://www.w3.org/Graphics/SVG/1.1/DTD/svg11.dtd">
<!-- Generated by graphviz version 14.1.2 (0)
 -->
<!-- Title: expand_tilde Pages: 1 -->
<svg width="1653pt" height="475pt"
 viewBox="0.00 0.00 1653.00 475.00" xmlns="http://www.w3.org/2000/svg" xmlns:xlink="http://www.w3.org/1999/xlink">
<g id="graph0" class="graph" transform="scale(1 1) rotate(0) translate(4 471.38)">
<title>expand_tilde</title>
<!-- Node1 -->
<g id="Node000001" class="node">
<title>Node1</title>
<g id="a_Node000001"><a xlink:title="Replace Leading Tilde With Home Directory.">
<polygon fill="#999999" stroke="#666666" points="1644.5,-276.38 1565.5,-276.38 1565.5,-255.62 1644.5,-255.62 1644.5,-276.38"/>
<text xml:space="preserve" text-anchor="middle" x="1605" y="-262.88" font-family="Helvetica,sans-Serif" font-size="10.00">expand_tilde</text>
</a>
</g>
</g>
<!-- Node2 -->
<g id="Node000002" class="node">
<title>Node2</title>
<g id="a_Node000002"><a xlink:href="../../d0/d8e/view__engine_8c.html#a2ffea5674e85f124a70e19f745a66583" target="_top" xlink:title="use form to enter a file specification">
<polygon fill="white" stroke="#666666" points="1269.5,-238.38 1179.25,-238.38 1179.25,-217.62 1269.5,-217.62 1269.5,-238.38"/>
<text xml:space="preserve" text-anchor="middle" x="1224.38" y="-224.88" font-family="Helvetica,sans-Serif" font-size="10.00">enter_file_spec</text>
</a>
</g>
</g>
<!-- Node1&#45;&gt;Node2 -->
<g id="edge1_Node000001_Node000002" class="edge">
<title>Node1&#45;&gt;Node2</title>
<g id="a_edge1_Node000001_Node000002"><a xlink:title=" ">
<path fill="none" stroke="#63b8ff" d="M1569.44,-250.82C1557,-245.7 1542.76,-240.21 1529.5,-236 1433.93,-205.65 1405.1,-197.35 1305.5,-209 1291.44,-210.64 1276.27,-213.86 1262.96,-217.18"/>
<polygon fill="#63b8ff" stroke="#63b8ff" points="1567.87,-253.96 1578.45,-254.61 1570.59,-247.51 1567.87,-253.96"/>
</a>
</g>
</g>
<!-- Node12 -->
<g id="Node000012" class="node">
<title>Node12</title>
<g id="a_Node000012"><a xlink:href="../../d6/d18/menu__engine_8c.html#aa5d0e30e7036b72b51c843d0a7e486a1" target="_top" xlink:title="Processes user input for the menu system.">
<polygon fill="white" stroke="#666666" points="317.25,-210.38 194.75,-210.38 194.75,-189.62 317.25,-189.62 317.25,-210.38"/>
<text xml:space="preserve" text-anchor="middle" x="256" y="-196.88" font-family="Helvetica,sans-Serif" font-size="10.00">menu_cmd_processor</text>
</a>
</g>
</g>
<!-- Node1&#45;&gt;Node12 -->
<g id="edge29_Node000001_Node000012" class="edge">
<title>Node1&#45;&gt;Node12</title>
<g id="a_edge29_Node000001_Node000012"><a xlink:title=" ">
<path fill="none" stroke="#63b8ff" d="M1598.01,-244.31C1588.15,-211.69 1565.86,-149.44 1529.5,-108 1470.93,-41.24 1450.19,0 1361.38,0 1361.38,0 1361.38,0 494.75,0 376.09,0 285.79,-147.71 262.74,-189.25"/>
<polygon fill="#63b8ff" stroke="#63b8ff" points="1594.62,-245.17 1600.77,-253.8 1601.34,-243.22 1594.62,-245.17"/>
</a>
</g>
</g>
<!-- Node16 -->
<g id="Node000016" class="node">
<title>Node16</title>
<g id="a_Node000016"><a xlink:href="../../d3/dee/form__engine_8c.html#ada302551bf41bf8ed6132fd34328a47e" target="_top" xlink:title="Form main processing loop.">
<polygon fill="white" stroke="#666666" points="776.5,-200.38 699,-200.38 699,-179.62 776.5,-179.62 776.5,-200.38"/>
<text xml:space="preserve" text-anchor="middle" x="737.75" y="-186.88" font-family="Helvetica,sans-Serif" font-size="10.00">form_engine</text>
</a>
</g>
</g>
<!-- Node1&#45;&gt;Node16 -->
<g id="edge26_Node000001_Node000016" class="edge">
<title>Node1&#45;&gt;Node16</title>
<g id="a_edge26_Node000001_Node000016"><a xlink:title=" ">
<path fill="none" stroke="#63b8ff" d="M1584.2,-247.96C1569.85,-235.65 1549.54,-219.69 1529.5,-209 1459.88,-171.87 1440.27,-152 1361.38,-152 1361.38,-152 1361.38,-152 955.88,-152 892.35,-152 819.91,-167.98 776.83,-179.21"/>
<polygon fill="#63b8ff" stroke="#63b8ff" points="1581.74,-250.46 1591.56,-254.44 1586.36,-245.2 1581.74,-250.46"/>
</a>
</g>
</g>
<!-- Node19 -->
<g id="Node000019" class="node">
<title>Node19</title>
<g id="a_Node000019"><a xlink:href="../../d0/d8e/view__engine_8c.html#ad997ba9f8591568c77291fb1b44601b2" target="_top" xlink:title="Display View Help File.">
<polygon fill="white" stroke="#666666" points="790.75,-239.38 684.75,-239.38 684.75,-218.62 790.75,-218.62 790.75,-239.38"/>
<text xml:space="preserve" text-anchor="middle" x="737.75" y="-225.88" font-family="Helvetica,sans-Serif" font-size="10.00">view_display_help</text>
</a>
</g>
</g>
<!-- Node1&#45;&gt;Node19 -->
<g id="edge52_Node000001_Node000019" class="edge">
<title>Node1&#45;&gt;Node19</title>
<g id="a_edge52_Node000001_Node000019"><a xlink:title=" ">
<path fill="none" stroke="#63b8ff" d="M1554.1,-266C1505.05,-266 1428.06,-266 1361.38,-266 1361.38,-266 1361.38,-266 1083.25,-266 979.19,-266 858.44,-249.1 791.09,-238.15"/>
<polygon fill="#63b8ff" stroke="#63b8ff" points="1553.83,-269.5 1563.83,-266 1553.83,-262.5 1553.83,-269.5"/>
</a>
</g>
</g>
<!-- Node20 -->
<g id="Node000020" class="node">
<title>Node20</title>
<g id="a_Node000020"><a xlink:href="../../d8/d60/init_8c.html#accd65939c0ce6f0d940c5cf795a1e8fa" target="_top" xlink:title="Main initialization function for MAPP &#45; Menu Application.">
<polygon fill="white" stroke="#666666" points="1415.25,-429.38 1305.5,-429.38 1305.5,-408.62 1415.25,-408.62 1415.25,-429.38"/>
<text xml:space="preserve" text-anchor="middle" x="1360.38" y="-415.88" font-family="Helvetica,sans-Serif" font-size="10.00">mapp_initialization</text>
</a>
</g>
</g>
<!-- Node1&#45;&gt;Node20 -->
<g id="edge27_Node000001_Node000020" class="edge">
<title>Node1&#45;&gt;Node20</title>
<g id="a_edge27_Node000001_Node000020"><a xlink:title=" ">
<path fill="none" stroke="#63b8ff" d="M1598.75,-287.34C1590.02,-317.92 1569.39,-373.41 1529.5,-400 1496.26,-422.16 1450.89,-426.14 1415.66,-425"/>
<polygon fill="#63b8ff" stroke="#63b8ff" points="1602.03,-288.64 1601.23,-278.07 1595.27,-286.83 1602.03,-288.64"/>
</a>
</g>
</g>
<!-- Node22 -->
<g id="Node000022" class="node">
<title>Node22</title>
<g id="a_Node000022"><a xlink:href="../../d0/d59/futil_8c.html#a8d34fd1e4f0b6caab029f02814092794" target="_top" xlink:title="If directory doesn&#39;t exist, make it.">
<polygon fill="white" stroke="#666666" points="1385.25,-238.38 1335.5,-238.38 1335.5,-217.62 1385.25,-217.62 1385.25,-238.38"/>
<text xml:space="preserve" text-anchor="middle" x="1360.38" y="-224.88" font-family="Helvetica,sans-Serif" font-size="10.00">mk_dir</text>
</a>
</g>
</g>
<!-- Node1&#45;&gt;Node22 -->
<g id="edge30_Node000001_Node000022" class="edge">
<title>Node1&#45;&gt;Node22</title>
<g id="a_edge30_Node000001_Node000022"><a xlink:title=" ">
<path fill="none" stroke="#63b8ff" d="M1553.76,-256.25C1545.66,-254.76 1537.35,-253.3 1529.5,-252 1478.45,-243.56 1418.38,-235.41 1385.65,-231.12"/>
<polygon fill="#63b8ff" stroke="#63b8ff" points="1553.05,-259.67 1563.52,-258.06 1554.33,-252.79 1553.05,-259.67"/>
</a>
</g>
</g>
<!-- Node23 -->
<g id="Node000023" class="node">
<title>Node23</title>
<g id="a_Node000023"><a xlink:href="../../d8/d60/init_8c.html#a5836f1ea8f972e3ca12e2772dc76fb32" target="_top" xlink:title="parse the configuration file specified in init&#45;&gt;minitrc and set Init struct values accordingly">
<polygon fill="white" stroke="#666666" points="1529.5,-467.38 1451.25,-467.38 1451.25,-446.62 1529.5,-446.62 1529.5,-467.38"/>
<text xml:space="preserve" text-anchor="middle" x="1490.38" y="-453.88" font-family="Helvetica,sans-Serif" font-size="10.00">parse_config</text>
</a>
</g>
</g>
<!-- Node1&#45;&gt;Node23 -->
<g id="edge32_Node000001_Node000023" class="edge">
<title>Node1&#45;&gt;Node23</title>
<g id="a_edge32_Node000001_Node000023"><a xlink:title=" ">
<path fill="none" stroke="#63b8ff" d="M1598.77,-287.53C1589.6,-321.64 1567.84,-388.78 1529.5,-433 1524.99,-438.2 1519.08,-442.66 1513.26,-446.28"/>
<polygon fill="#63b8ff" stroke="#63b8ff" points="1602.11,-288.58 1601.21,-278.02 1595.33,-286.84 1602.11,-288.58"/>
</a>
</g>
</g>
<!-- Node24 -->
<g id="Node000024" class="node">
<title>Node24</title>
<g id="a_Node000024"><a xlink:href="../../d0/d59/futil_8c.html#ae14a4e790b69c8c2e50d1eb5cdf1fd19" target="_top" xlink:title="Verifies that the directory specified by &quot;spec&quot; exists and is accessible with the permissions specifi...">
<polygon fill="white" stroke="#666666" points="1521.62,-352.38 1459.12,-352.38 1459.12,-331.62 1521.62,-331.62 1521.62,-352.38"/>
<text xml:space="preserve" text-anchor="middle" x="1490.38" y="-338.88" font-family="Helvetica,sans-Serif" font-size="10.00">verify_dir</text>
</a>
</g>
</g>
<!-- Node1&#45;&gt;Node24 -->
<g id="edge34_Node000001_Node000024" class="edge">
<title>Node1&#45;&gt;Node24</title>
<g id="a_edge34_Node000001_Node000024"><a xlink:title=" ">
<path fill="none" stroke="#63b8ff" d="M1579.77,-283.35C1565.3,-293.6 1546.48,-306.74 1529.5,-318 1522.85,-322.41 1515.45,-327.11 1508.95,-331.18"/>
<polygon fill="#63b8ff" stroke="#63b8ff" points="1581.67,-286.29 1587.79,-277.65 1577.61,-280.59 1581.67,-286.29"/>
</a>
</g>
</g>
<!-- Node25 -->
<g id="Node000025" class="node">
<title>Node25</title>
<g id="a_Node000025"><a xlink:href="../../d3/d8f/mem_8c.html#a75ce293fe4e007a3337a190647408000" target="_top" xlink:title="Verify file specification argument.">
<polygon fill="white" stroke="#666666" points="1407,-352.38 1313.75,-352.38 1313.75,-331.62 1407,-331.62 1407,-352.38"/>
<text xml:space="preserve" text-anchor="middle" x="1360.38" y="-338.88" font-family="Helvetica,sans-Serif" font-size="10.00">verify_spec_arg</text>
</a>
</g>
</g>
<!-- Node1&#45;&gt;Node25 -->
<g id="edge51_Node000001_Node000025" class="edge">
<title>Node1&#45;&gt;Node25</title>
<g id="a_edge51_Node000001_Node000025"><a xlink:title=" ">
<path fill="none" stroke="#63b8ff" d="M1558.66,-280.2C1511.42,-295 1438.46,-317.85 1395.76,-331.23"/>
<polygon fill="#63b8ff" stroke="#63b8ff" points="1559.55,-283.59 1568.05,-277.26 1557.46,-276.91 1559.55,-283.59"/>
</a>
</g>
</g>
<!-- Node32 -->
<g id="Node000032" class="node">
<title>Node32</title>
<g id="a_Node000032"><a xlink:href="../../d0/d59/futil_8c.html#ab190e75e095b7d3da114fce21ab8c8ea" target="_top" xlink:title="Verifies that the file specified by &quot;in_spec&quot; exists and is accessible with the permissions specified...">
<polygon fill="white" stroke="#666666" points="1523.12,-391.38 1457.62,-391.38 1457.62,-370.62 1523.12,-370.62 1523.12,-391.38"/>
<text xml:space="preserve" text-anchor="middle" x="1490.38" y="-377.88" font-family="Helvetica,sans-Serif" font-size="10.00">verify_file</text>
</a>
</g>
</g>
<!-- Node1&#45;&gt;Node32 -->
<g id="edge49_Node000001_Node000032" class="edge">
<title>Node1&#45;&gt;Node32</title>
<g id="a_edge49_Node000001_Node000032"><a xlink:title=" ">
<path fill="none" stroke="#63b8ff" d="M1591.75,-286.31C1578.44,-307.08 1555.56,-339.3 1529.5,-361 1525.36,-364.44 1520.54,-367.53 1515.74,-370.19"/>
<polygon fill="#63b8ff" stroke="#63b8ff" points="1594.67,-288.23 1597,-277.89 1588.74,-284.52 1594.67,-288.23"/>
</a>
</g>
</g>
<!-- Node33 -->
<g id="Node000033" class="node">
<title>Node33</title>
<g id="a_Node000033"><a xlink:href="../../dc/d90/init__view_8c.html#a0d392793038e6c32c6f3fa978fc42ced" target="_top" xlink:title="Initialize the input for a C&#45;Menu View.">
<polygon fill="white" stroke="#666666" points="1405.5,-124.38 1315.25,-124.38 1315.25,-103.62 1405.5,-103.62 1405.5,-124.38"/>
<text xml:space="preserve" text-anchor="middle" x="1360.38" y="-110.88" font-family="Helvetica,sans-Serif" font-size="10.00">view_init_input</text>
</a>
</g>
</g>
<!-- Node1&#45;&gt;Node33 -->
<g id="edge53_Node000001_Node000033" class="edge">
<title>Node1&#45;&gt;Node33</title>
<g id="a_edge53_Node000001_Node000033"><a xlink:title=" ">
<path fill="none" stroke="#63b8ff" d="M1597.96,-244.49C1588.54,-215.19 1567.36,-163.5 1529.5,-138 1493.06,-113.46 1442.09,-109.35 1405.84,-110.21"/>
<polygon fill="#63b8ff" stroke="#63b8ff" points="1594.52,-245.18 1600.77,-253.74 1601.22,-243.16 1594.52,-245.18"/>
</a>
</g>
</g>
<!-- Node3 -->
<g id="Node000003" class="node">
<title>Node3</title>
<g id="a_Node000003"><a xlink:href="../../d0/d8e/view__engine_8c.html#a9c4b3ba5f73c18b486646c62b933972a" target="_top" xlink:title="Main Command Processing Loop for View.">
<polygon fill="white" stroke="#666666" points="1143.25,-200.38 1025.25,-200.38 1025.25,-179.62 1143.25,-179.62 1143.25,-200.38"/>
<text xml:space="preserve" text-anchor="middle" x="1084.25" y="-186.88" font-family="Helvetica,sans-Serif" font-size="10.00">view_cmd_processor</text>
</a>
</g>
</g>
<!-- Node2&#45;&gt;Node3 -->
<g id="edge2_Node000002_Node000003" class="edge">
<title>Node2&#45;&gt;Node3</title>
<g id="a_edge2_Node000002_Node000003"><a xlink:title=" ">
<path fill="none" stroke="#63b8ff" d="M1173.33,-214.23C1157.28,-209.82 1139.73,-204.99 1124.56,-200.81"/>
<polygon fill="#63b8ff" stroke="#63b8ff" points="1172.13,-217.53 1182.7,-216.81 1173.99,-210.78 1172.13,-217.53"/>
</a>
</g>
</g>
<!-- Node4 -->
<g id="Node000004" class="node">
<title>Node4</title>
<g id="a_Node000004"><a xlink:href="../../d0/d8e/view__engine_8c.html#a0bd4dc056ab5010547129bb87819789b" target="_top" xlink:title="Start view.">
<polygon fill="white" stroke="#666666" points="987,-124.38 926.75,-124.38 926.75,-103.62 987,-103.62 987,-124.38"/>
<text xml:space="preserve" text-anchor="middle" x="956.88" y="-110.88" font-family="Helvetica,sans-Serif" font-size="10.00">view_file</text>
</a>
</g>
</g>
<!-- Node3&#45;&gt;Node4 -->
<g id="edge3_Node000003_Node000004" class="edge">
<title>Node3&#45;&gt;Node4</title>
<g id="a_edge3_Node000003_Node000004"><a xlink:title=" ">
<path fill="none" stroke="#63b8ff" d="M1055.8,-173.36C1031.36,-158.55 996.35,-137.32 975.48,-124.67"/>
<polygon fill="#63b8ff" stroke="#63b8ff" points="1053.89,-176.3 1064.26,-178.49 1057.52,-170.31 1053.89,-176.3"/>
</a>
</g>
</g>
<!-- Node5 -->
<g id="Node000005" class="node">
<title>Node5</title>
<g id="a_Node000005"><a xlink:href="../../da/d97/view_8c.html#a3c04138a5bfe5d72780bb7e82a18e627" target="_top" xlink:title=" ">
<polygon fill="white" stroke="#666666" points="758.12,-48.38 717.38,-48.38 717.38,-27.62 758.12,-27.62 758.12,-48.38"/>
<text xml:space="preserve" text-anchor="middle" x="737.75" y="-34.88" font-family="Helvetica,sans-Serif" font-size="10.00">main</text>
</a>
</g>
</g>
<!-- Node4&#45;&gt;Node5 -->
<g id="edge4_Node000004_Node000005" class="edge">
<title>Node4&#45;&gt;Node5</title>
<g id="a_edge4_Node000004_Node000005"><a xlink:title=" ">
<path fill="none" stroke="#63b8ff" d="M915.97,-100.03C869.36,-83.72 794.11,-57.38 758.56,-44.94"/>
<polygon fill="#63b8ff" stroke="#63b8ff" points="914.57,-103.25 925.16,-103.25 916.88,-96.64 914.57,-103.25"/>
</a>
</g>
</g>
<!-- Node6 -->
<g id="Node000006" class="node">
<title>Node6</title>
<g id="a_Node000006"><a xlink:href="../../d2/d98/mview_8c.html#a75a4e7afc9c9aafd3d35ab706f5fdc71" target="_top" xlink:title="subprogram entry point for C&#45;Menu View">
<polygon fill="white" stroke="#666666" points="882.12,-124.38 833.12,-124.38 833.12,-103.62 882.12,-103.62 882.12,-124.38"/>
<text xml:space="preserve" text-anchor="middle" x="857.62" y="-110.88" font-family="Helvetica,sans-Serif" font-size="10.00">mview</text>
</a>
</g>
</g>
<!-- Node4&#45;&gt;Node6 -->
<g id="edge5_Node000004_Node000006" class="edge">
<title>Node4&#45;&gt;Node6</title>
<g id="a_edge5_Node000004_Node000006"><a xlink:title=" ">
<path fill="none" stroke="#63b8ff" d="M915.13,-114C903.99,-114 892.28,-114 882.42,-114"/>
<polygon fill="#63b8ff" stroke="#63b8ff" points="914.92,-117.5 924.92,-114 914.92,-110.5 914.92,-117.5"/>
</a>
</g>
</g>
<!-- Node6&#45;&gt;Node5 -->
<g id="edge22_Node000006_Node000005" class="edge">
<title>Node6&#45;&gt;Node5</title>
<g id="a_edge22_Node000006_Node000005"><a xlink:title=" ">
<path fill="none" stroke="#63b8ff" d="M836.76,-96.29C824.14,-85.56 807.14,-72.06 790.75,-62 780.58,-55.76 768.52,-50.1 758.57,-45.84"/>
<polygon fill="#63b8ff" stroke="#63b8ff" points="834.11,-98.63 843.96,-102.53 838.7,-93.34 834.11,-98.63"/>
</a>
</g>
</g>
<!-- Node7 -->
<g id="Node000007" class="node">
<title>Node7</title>
<g id="a_Node000007"><a xlink:href="../../db/ddc/pick__engine_8c.html#aeebc4c0b94ca97d753e10a0cd1798730" target="_top" xlink:title="Displays the help screen for the pick interface using mview.">
<polygon fill="white" stroke="#666666" points="789.25,-124.38 686.25,-124.38 686.25,-103.62 789.25,-103.62 789.25,-124.38"/>
<text xml:space="preserve" text-anchor="middle" x="737.75" y="-110.88" font-family="Helvetica,sans-Serif" font-size="10.00">display_pick_help</text>
</a>
</g>
</g>
<!-- Node6&#45;&gt;Node7 -->
<g id="edge6_Node000006_Node000007" class="edge">
<title>Node6&#45;&gt;Node7</title>
<g id="a_edge6_Node000006_Node000007"><a xlink:title=" ">
<path fill="none" stroke="#63b8ff" d="M821.52,-114C811.41,-114 800.19,-114 789.34,-114"/>
<polygon fill="#63b8ff" stroke="#63b8ff" points="821.26,-117.5 831.26,-114 821.26,-110.5 821.26,-117.5"/>
</a>
</g>
</g>
<!-- Node6&#45;&gt;Node12 -->
<g id="edge23_Node000006_Node000012" class="edge">
<title>Node6&#45;&gt;Node12</title>
<g id="a_edge23_Node000006_Node000012"><a xlink:title=" ">
<path fill="none" stroke="#63b8ff" d="M822,-102.78C812.01,-99.87 801.02,-97 790.75,-95 711.42,-79.52 690.71,-76 609.88,-76 609.88,-76 609.88,-76 494.75,-76 396.99,-76 299.63,-159.44 267.8,-189.43"/>
<polygon fill="#63b8ff" stroke="#63b8ff" points="820.75,-106.05 831.33,-105.59 822.77,-99.35 820.75,-106.05"/>
</a>
</g>
</g>
<!-- Node15 -->
<g id="Node000015" class="node">
<title>Node15</title>
<g id="a_Node000015"><a xlink:href="../../db/ddc/pick__engine_8c.html#af7fcbb1c8b67a4d11c86ba7209f397c2" target="_top" xlink:title="Executes specified command with selected objects as arguments.">
<polygon fill="white" stroke="#666666" points="648.75,-163.38 569,-163.38 569,-142.62 648.75,-142.62 648.75,-163.38"/>
<text xml:space="preserve" text-anchor="middle" x="608.88" y="-149.88" font-family="Helvetica,sans-Serif" font-size="10.00">exec_objects</text>
</a>
</g>
</g>
<!-- Node6&#45;&gt;Node15 -->
<g id="edge15_Node000006_Node000015" class="edge">
<title>Node6&#45;&gt;Node15</title>
<g id="a_edge15_Node000006_Node000015"><a xlink:title=" ">
<path fill="none" stroke="#63b8ff" d="M822,-125.19C812,-128.09 801.01,-130.97 790.75,-133 742.4,-142.57 685.81,-147.91 648.98,-150.61"/>
<polygon fill="#63b8ff" stroke="#63b8ff" points="822.76,-128.61 831.33,-122.38 820.74,-121.91 822.76,-128.61"/>
</a>
</g>
</g>
<!-- Node6&#45;&gt;Node16 -->
<g id="edge17_Node000006_Node000016" class="edge">
<title>Node6&#45;&gt;Node16</title>
<g id="a_edge17_Node000006_Node000016"><a xlink:title=" ">
<path fill="none" stroke="#63b8ff" d="M834.16,-131.93C816.02,-146.39 793.12,-164.55 790.75,-166 782.78,-170.89 773.66,-175.42 765.3,-179.2"/>
<polygon fill="#63b8ff" stroke="#63b8ff" points="836.27,-134.74 841.9,-125.76 831.9,-129.26 836.27,-134.74"/>
</a>
</g>
</g>
<!-- Node6&#45;&gt;Node19 -->
<g id="edge24_Node000006_Node000019" class="edge">
<title>Node6&#45;&gt;Node19</title>
<g id="a_edge24_Node000006_Node000019"><a xlink:title=" ">
<path fill="none" stroke="#63b8ff" d="M846.82,-134.93C835.88,-156.25 816.3,-188.93 790.75,-209 786.11,-212.64 780.73,-215.69 775.22,-218.21"/>
<polygon fill="#63b8ff" stroke="#63b8ff" points="849.93,-136.56 851.2,-126.04 843.65,-133.47 849.93,-136.56"/>
</a>
</g>
</g>
<!-- Node8 -->
<g id="Node000008" class="node">
<title>Node8</title>
<g id="a_Node000008"><a xlink:href="../../db/ddc/pick__engine_8c.html#abb0969a6d1c7e78be46c3b325754c802" target="_top" xlink:title="Main loop to handle user input and interactions for pick interface.">
<polygon fill="white" stroke="#666666" points="631.5,-124.38 586.25,-124.38 586.25,-103.62 631.5,-103.62 631.5,-124.38"/>
<text xml:space="preserve" text-anchor="middle" x="608.88" y="-110.88" font-family="Helvetica,sans-Serif" font-size="10.00">picker</text>
</a>
</g>
</g>
<!-- Node7&#45;&gt;Node8 -->
<g id="edge7_Node000007_Node000008" class="edge">
<title>Node7&#45;&gt;Node8</title>
<g id="a_edge7_Node000007_Node000008"><a xlink:title=" ">
<path fill="none" stroke="#63b8ff" d="M674.77,-114C659.41,-114 643.94,-114 631.96,-114"/>
<polygon fill="#63b8ff" stroke="#63b8ff" points="674.36,-117.5 684.36,-114 674.36,-110.5 674.36,-117.5"/>
</a>
</g>
</g>
<!-- Node9 -->
<g id="Node000009" class="node">
<title>Node9</title>
<g id="a_Node000009"><a xlink:href="../../db/ddc/pick__engine_8c.html#ab97dcab41017c5132f52b682437a151e" target="_top" xlink:title="Initializes pick interface, calculates window size and position, and enters picker loop.">
<polygon fill="white" stroke="#666666" points="533,-163.38 458.5,-163.38 458.5,-142.62 533,-142.62 533,-163.38"/>
<text xml:space="preserve" text-anchor="middle" x="495.75" y="-149.88" font-family="Helvetica,sans-Serif" font-size="10.00">pick_engine</text>
</a>
</g>
</g>
<!-- Node8&#45;&gt;Node9 -->
<g id="edge8_Node000008_Node000009" class="edge">
<title>Node8&#45;&gt;Node9</title>
<g id="a_edge8_Node000008_Node000009"><a xlink:title=" ">
<path fill="none" stroke="#63b8ff" d="M575.48,-125.37C560.34,-130.68 542.41,-136.97 527.49,-142.21"/>
<polygon fill="#63b8ff" stroke="#63b8ff" points="576.22,-128.82 584.49,-122.21 573.9,-122.22 576.22,-128.82"/>
</a>
</g>
</g>
<!-- Node10 -->
<g id="Node000010" class="node">
<title>Node10</title>
<g id="a_Node000010"><a xlink:href="../../db/ddc/pick__engine_8c.html#a1b2ee87543245e612c1710ea58930a17" target="_top" xlink:title="Initializes pick structure and opens pick input file or pipe.">
<polygon fill="white" stroke="#666666" points="416.5,-248.38 359.25,-248.38 359.25,-227.62 416.5,-227.62 416.5,-248.38"/>
<text xml:space="preserve" text-anchor="middle" x="387.88" y="-234.88" font-family="Helvetica,sans-Serif" font-size="10.00">init_pick</text>
</a>
</g>
</g>
<!-- Node9&#45;&gt;Node10 -->
<g id="edge9_Node000009_Node000010" class="edge">
<title>Node9&#45;&gt;Node10</title>
<g id="a_edge9_Node000009_Node000010"><a xlink:title=" ">
<path fill="none" stroke="#63b8ff" d="M472.64,-170.75C451.35,-187.84 419.86,-213.12 402.18,-227.32"/>
<polygon fill="#63b8ff" stroke="#63b8ff" points="474.55,-173.7 480.16,-164.71 470.17,-168.24 474.55,-173.7"/>
</a>
</g>
</g>
<!-- Node11 -->
<g id="Node000011" class="node">
<title>Node11</title>
<g id="a_Node000011"><a xlink:href="../../de/d7c/pick_8c.html#a3c04138a5bfe5d72780bb7e82a18e627" target="_top" xlink:title=" ">
<polygon fill="white" stroke="#666666" points="276.38,-249.38 235.62,-249.38 235.62,-228.62 276.38,-228.62 276.38,-249.38"/>
<text xml:space="preserve" text-anchor="middle" x="256" y="-235.88" font-family="Helvetica,sans-Serif" font-size="10.00">main</text>
</a>
</g>
</g>
<!-- Node10&#45;&gt;Node11 -->
<g id="edge10_Node000010_Node000011" class="edge">
<title>Node10&#45;&gt;Node11</title>
<g id="a_edge10_Node000010_Node000011"><a xlink:title=" ">
<path fill="none" stroke="#63b8ff" d="M347.68,-238.3C324.28,-238.48 295.55,-238.7 276.78,-238.85"/>
<polygon fill="#63b8ff" stroke="#63b8ff" points="347.53,-241.8 357.5,-238.23 347.47,-234.8 347.53,-241.8"/>
</a>
</g>
</g>
<!-- Node10&#45;&gt;Node12 -->
<g id="edge11_Node000010_Node000012" class="edge">
<title>Node10&#45;&gt;Node12</title>
<g id="a_edge11_Node000010_Node000012"><a xlink:title=" ">
<path fill="none" stroke="#63b8ff" d="M348.17,-226.68C330.92,-221.63 310.7,-215.71 293.7,-210.74"/>
<polygon fill="#63b8ff" stroke="#63b8ff" points="346.98,-229.97 357.56,-229.42 348.95,-223.26 346.98,-229.97"/>
</a>
</g>
</g>
<!-- Node13 -->
<g id="Node000013" class="node">
<title>Node13</title>
<g id="a_Node000013"><a xlink:href="../../d6/d18/menu__engine_8c.html#a7d7973d7aac92759dcc86ec52bb038f4" target="_top" xlink:title="The main loop of the menu system.">
<polygon fill="white" stroke="#666666" points="158.75,-210.38 76.75,-210.38 76.75,-189.62 158.75,-189.62 158.75,-210.38"/>
<text xml:space="preserve" text-anchor="middle" x="117.75" y="-196.88" font-family="Helvetica,sans-Serif" font-size="10.00">menu_engine</text>
</a>
</g>
</g>
<!-- Node12&#45;&gt;Node13 -->
<g id="edge12_Node000012_Node000013" class="edge">
<title>Node12&#45;&gt;Node13</title>
<g id="a_edge12_Node000012_Node000013"><a xlink:title=" ">
<path fill="none" stroke="#63b8ff" d="M183.2,-193.26C174.96,-193.3 166.79,-193.47 159.17,-193.77"/>
<polygon fill="#63b8ff" stroke="#63b8ff" points="182.92,-196.76 192.93,-193.28 182.94,-189.76 182.92,-196.76"/>
</a>
</g>
</g>
<!-- Node13&#45;&gt;Node12 -->
<g id="edge14_Node000013_Node000012" class="edge">
<title>Node13&#45;&gt;Node12</title>
<g id="a_edge14_Node000013_Node000012"><a xlink:title=" ">
<path fill="none" stroke="#63b8ff" d="M170.68,-206.58C178.45,-206.75 186.52,-206.79 194.45,-206.71"/>
<polygon fill="#63b8ff" stroke="#63b8ff" points="170.79,-203.08 160.69,-206.27 170.58,-210.08 170.79,-203.08"/>
</a>
</g>
</g>
<!-- Node14 -->
<g id="Node000014" class="node">
<title>Node14</title>
<g id="a_Node000014"><a xlink:href="../../d2/d0a/menu_8c.html#a3c04138a5bfe5d72780bb7e82a18e627" target="_top" xlink:title=" ">
<polygon fill="white" stroke="#666666" points="40.75,-248.38 0,-248.38 0,-227.62 40.75,-227.62 40.75,-248.38"/>
<text xml:space="preserve" text-anchor="middle" x="20.38" y="-234.88" font-family="Helvetica,sans-Serif" font-size="10.00">main</text>
</a>
</g>
</g>
<!-- Node13&#45;&gt;Node14 -->
<g id="edge13_Node000013_Node000014" class="edge">
<title>Node13&#45;&gt;Node14</title>
<g id="a_edge13_Node000013_Node000014"><a xlink:title=" ">
<path fill="none" stroke="#63b8ff" d="M79.13,-214.99C66.19,-220.15 52.2,-225.72 41.24,-230.09"/>
<polygon fill="#63b8ff" stroke="#63b8ff" points="80.27,-218.3 88.27,-211.35 77.68,-211.8 80.27,-218.3"/>
</a>
</g>
</g>
<!-- Node15&#45;&gt;Node9 -->
<g id="edge16_Node000015_Node000009" class="edge">
<title>Node15&#45;&gt;Node9</title>
<g id="a_edge16_Node000015_Node000009"><a xlink:title=" ">
<path fill="none" stroke="#63b8ff" d="M557.4,-153C549.3,-153 541.04,-153 533.34,-153"/>
<polygon fill="#63b8ff" stroke="#63b8ff" points="557.18,-156.5 567.18,-153 557.18,-149.5 557.18,-156.5"/>
</a>
</g>
</g>
<!-- Node17 -->
<g id="Node000017" class="node">
<title>Node17</title>
<g id="a_Node000017"><a xlink:href="../../d3/dee/form__engine_8c.html#abf1be20a8aad5f7ba09172ac1434a110" target="_top" xlink:title="Initialize form data structure and parse description file.">
<polygon fill="white" stroke="#666666" points="639,-258.38 578.75,-258.38 578.75,-237.62 639,-237.62 639,-258.38"/>
<text xml:space="preserve" text-anchor="middle" x="608.88" y="-244.88" font-family="Helvetica,sans-Serif" font-size="10.00">init_form</text>
</a>
</g>
</g>
<!-- Node16&#45;&gt;Node17 -->
<g id="edge18_Node000016_Node000017" class="edge">
<title>Node16&#45;&gt;Node17</title>
<g id="a_edge18_Node000016_Node000017"><a xlink:title=" ">
<path fill="none" stroke="#63b8ff" d="M696.56,-204.98C692.55,-206.62 688.55,-208.31 684.75,-210 665.7,-218.47 644.57,-229.33 629.63,-237.28"/>
<polygon fill="#63b8ff" stroke="#63b8ff" points="697.7,-208.3 705.7,-201.36 695.12,-201.79 697.7,-208.3"/>
</a>
</g>
</g>
<!-- Node17&#45;&gt;Node2 -->
<g id="edge19_Node000017_Node000002" class="edge">
<title>Node17&#45;&gt;Node2</title>
<g id="a_edge19_Node000017_Node000002"><a xlink:title=" ">
<path fill="none" stroke="#63b8ff" d="M650.54,-248.54C687.2,-248.89 742.59,-249.11 790.75,-248 932.63,-244.72 1100.48,-235.41 1178.87,-230.74"/>
<polygon fill="#63b8ff" stroke="#63b8ff" points="650.88,-245.04 640.84,-248.43 650.8,-252.04 650.88,-245.04"/>
</a>
</g>
</g>
<!-- Node17&#45;&gt;Node12 -->
<g id="edge21_Node000017_Node000012" class="edge">
<title>Node17&#45;&gt;Node12</title>
<g id="a_edge21_Node000017_Node000012"><a xlink:title=" ">
<path fill="none" stroke="#63b8ff" d="M567.44,-236.61C556.35,-233.79 544.27,-231.01 533,-229 459.48,-215.88 373.81,-208.02 317.65,-203.85"/>
<polygon fill="#63b8ff" stroke="#63b8ff" points="566.55,-239.99 577.11,-239.14 568.32,-233.22 566.55,-239.99"/>
</a>
</g>
</g>
<!-- Node18 -->
<g id="Node000018" class="node">
<title>Node18</title>
<g id="a_Node000018"><a xlink:href="../../d5/d97/form_8c.html#a3c04138a5bfe5d72780bb7e82a18e627" target="_top" xlink:title=" ">
<polygon fill="white" stroke="#666666" points="516.12,-258.38 475.38,-258.38 475.38,-237.62 516.12,-237.62 516.12,-258.38"/>
<text xml:space="preserve" text-anchor="middle" x="495.75" y="-244.88" font-family="Helvetica,sans-Serif" font-size="10.00">main</text>
</a>
</g>
</g>
<!-- Node17&#45;&gt;Node18 -->
<g id="edge20_Node000017_Node000018" class="edge">
<title>Node17&#45;&gt;Node18</title>
<g id="a_edge20_Node000017_Node000018"><a xlink:title=" ">
<path fill="none" stroke="#63b8ff" d="M566.89,-248C549.7,-248 530.5,-248 516.54,-248"/>
<polygon fill="#63b8ff" stroke="#63b8ff" points="566.87,-251.5 576.87,-248 566.87,-244.5 566.87,-251.5"/>
</a>
</g>
</g>
<!-- Node19&#45;&gt;Node3 -->
<g id="edge25_Node000019_Node000003" class="edge">
<title>Node19&#45;&gt;Node3</title>
<g id="a_edge25_Node000019_Node000003"><a xlink:title=" ">
<path fill="none" stroke="#63b8ff" d="M802.01,-218.46C810.32,-217.22 818.73,-216.03 826.75,-215 894.54,-206.31 972.75,-199.09 1024.82,-194.68"/>
<polygon fill="#63b8ff" stroke="#63b8ff" points="801.64,-214.98 792.29,-219.96 802.7,-221.9 801.64,-214.98"/>
</a>
</g>
</g>
<!-- Node21 -->
<g id="Node000021" class="node">
<title>Node21</title>
<g id="a_Node000021"><a xlink:href="../../d8/d13/ckeys_8c.html#a3c04138a5bfe5d72780bb7e82a18e627" target="_top" xlink:title=" ">
<polygon fill="white" stroke="#666666" points="1244.75,-429.38 1204,-429.38 1204,-408.62 1244.75,-408.62 1244.75,-429.38"/>
<text xml:space="preserve" text-anchor="middle" x="1224.38" y="-415.88" font-family="Helvetica,sans-Serif" font-size="10.00">main</text>
</a>
</g>
</g>
<!-- Node20&#45;&gt;Node21 -->
<g id="edge28_Node000020_Node000021" class="edge">
<title>Node20&#45;&gt;Node21</title>
<g id="a_edge28_Node000020_Node000021"><a xlink:title=" ">
<path fill="none" stroke="#63b8ff" d="M1293.96,-419C1276.18,-419 1258.26,-419 1245.2,-419"/>
<polygon fill="#63b8ff" stroke="#63b8ff" points="1293.74,-422.5 1303.74,-419 1293.74,-415.5 1293.74,-422.5"/>
</a>
</g>
</g>
<!-- Node22&#45;&gt;Node2 -->
<g id="edge31_Node000022_Node000002" class="edge">
<title>Node22&#45;&gt;Node2</title>
<g id="a_edge31_Node000022_Node000002"><a xlink:title=" ">
<path fill="none" stroke="#63b8ff" d="M1323.71,-228C1307.16,-228 1287.3,-228 1269.78,-228"/>
<polygon fill="#63b8ff" stroke="#63b8ff" points="1323.6,-231.5 1333.6,-228 1323.6,-224.5 1323.6,-231.5"/>
</a>
</g>
</g>
<!-- Node23&#45;&gt;Node20 -->
<g id="edge33_Node000023_Node000020" class="edge">
<title>Node23&#45;&gt;Node20</title>
<g id="a_edge33_Node000023_Node000020"><a xlink:title=" ">
<path fill="none" stroke="#63b8ff" d="M1442.14,-442.98C1427.5,-438.63 1411.59,-433.91 1397.8,-429.81"/>
<polygon fill="#63b8ff" stroke="#63b8ff" points="1441,-446.29 1451.59,-445.78 1443,-439.58 1441,-446.29"/>
</a>
</g>
</g>
<!-- Node24&#45;&gt;Node20 -->
<g id="edge35_Node000024_Node000020" class="edge">
<title>Node24&#45;&gt;Node20</title>
<g id="a_edge35_Node000024_Node000020"><a xlink:title=" ">
<path fill="none" stroke="#63b8ff" d="M1458.35,-358C1455.93,-359.33 1453.54,-360.67 1451.25,-362 1424.86,-377.26 1395.15,-396.53 1377.37,-408.3"/>
<polygon fill="#63b8ff" stroke="#63b8ff" points="1459.74,-361.23 1466.9,-353.41 1456.43,-355.06 1459.74,-361.23"/>
</a>
</g>
</g>
<!-- Node24&#45;&gt;Node22 -->
<g id="edge36_Node000024_Node000022" class="edge">
<title>Node24&#45;&gt;Node22</title>
<g id="a_edge36_Node000024_Node000022"><a xlink:title=" ">
<path fill="none" stroke="#63b8ff" d="M1469.28,-324.1C1442.4,-300.16 1395.59,-258.47 1373.53,-238.83"/>
<polygon fill="#63b8ff" stroke="#63b8ff" points="1466.64,-326.44 1476.43,-330.47 1471.29,-321.21 1466.64,-326.44"/>
</a>
</g>
</g>
<!-- Node24&#45;&gt;Node25 -->
<g id="edge37_Node000024_Node000025" class="edge">
<title>Node24&#45;&gt;Node25</title>
<g id="a_edge37_Node000024_Node000025"><a xlink:title=" ">
<path fill="none" stroke="#63b8ff" d="M1447.38,-342C1434.55,-342 1420.38,-342 1407.3,-342"/>
<polygon fill="#63b8ff" stroke="#63b8ff" points="1447.2,-345.5 1457.2,-342 1447.2,-338.5 1447.2,-345.5"/>
</a>
</g>
</g>
<!-- Node25&#45;&gt;Node2 -->
<g id="edge38_Node000025_Node000002" class="edge">
<title>Node25&#45;&gt;Node2</title>
<g id="a_edge38_Node000025_Node000002"><a xlink:title=" ">
<path fill="none" stroke="#63b8ff" d="M1338.34,-324.1C1310.2,-300.16 1261.19,-258.47 1238.1,-238.83"/>
<polygon fill="#63b8ff" stroke="#63b8ff" points="1335.97,-326.68 1345.86,-330.5 1340.51,-321.35 1335.97,-326.68"/>
</a>
</g>
</g>
<!-- Node26 -->
<g id="Node000026" class="node">
<title>Node26</title>
<g id="a_Node000026"><a xlink:href="../../d3/d8f/mem_8c.html#a4da25f98e58860d93b737cdc1997e9e9" target="_top" xlink:title="Initialize Form file specifications.">
<polygon fill="white" stroke="#666666" points="1267.62,-314.38 1181.12,-314.38 1181.12,-293.62 1267.62,-293.62 1267.62,-314.38"/>
<text xml:space="preserve" text-anchor="middle" x="1224.38" y="-300.88" font-family="Helvetica,sans-Serif" font-size="10.00">init_form_files</text>
</a>
</g>
</g>
<!-- Node25&#45;&gt;Node26 -->
<g id="edge39_Node000025_Node000026" class="edge">
<title>Node25&#45;&gt;Node26</title>
<g id="a_edge39_Node000025_Node000026"><a xlink:title=" ">
<path fill="none" stroke="#63b8ff" d="M1310.38,-328.11C1294.92,-323.72 1278.09,-318.95 1263.51,-314.81"/>
<polygon fill="#63b8ff" stroke="#63b8ff" points="1309.3,-331.44 1319.88,-330.8 1311.21,-324.7 1309.3,-331.44"/>
</a>
</g>
</g>
<!-- Node28 -->
<g id="Node000028" class="node">
<title>Node28</title>
<g id="a_Node000028"><a xlink:href="../../d3/d8f/mem_8c.html#a6a3ca11276b38608f15cef7c3962143e" target="_top" xlink:title="Initialize Menu file specifications.">
<polygon fill="white" stroke="#666666" points="1129.75,-391.38 1038.75,-391.38 1038.75,-370.62 1129.75,-370.62 1129.75,-391.38"/>
<text xml:space="preserve" text-anchor="middle" x="1084.25" y="-377.88" font-family="Helvetica,sans-Serif" font-size="10.00">init_menu_files</text>
</a>
</g>
</g>
<!-- Node25&#45;&gt;Node28 -->
<g id="edge42_Node000025_Node000028" class="edge">
<title>Node25&#45;&gt;Node28</title>
<g id="a_edge42_Node000025_Node000028"><a xlink:title=" ">
<path fill="none" stroke="#63b8ff" d="M1304.79,-355.21C1293.19,-357.72 1280.98,-360.14 1269.5,-362 1222.2,-369.67 1167.55,-374.85 1130.12,-377.84"/>
<polygon fill="#63b8ff" stroke="#63b8ff" points="1305.21,-358.7 1314.21,-353.12 1303.69,-351.87 1305.21,-358.7"/>
</a>
</g>
</g>
<!-- Node30 -->
<g id="Node000030" class="node">
<title>Node30</title>
<g id="a_Node000030"><a xlink:href="../../d3/d8f/mem_8c.html#ab40bb77758b149f33cbde8063f341b00" target="_top" xlink:title="Initialize Pick file specifications.">
<polygon fill="white" stroke="#666666" points="1266.12,-353.38 1182.62,-353.38 1182.62,-332.62 1266.12,-332.62 1266.12,-353.38"/>
<text xml:space="preserve" text-anchor="middle" x="1224.38" y="-339.88" font-family="Helvetica,sans-Serif" font-size="10.00">init_pick_files</text>
</a>
</g>
</g>
<!-- Node25&#45;&gt;Node30 -->
<g id="edge46_Node000025_Node000030" class="edge">
<title>Node25&#45;&gt;Node30</title>
<g id="a_edge46_Node000025_Node000030"><a xlink:title=" ">
<path fill="none" stroke="#63b8ff" d="M1301.92,-342.43C1289.9,-342.52 1277.46,-342.61 1266.2,-342.7"/>
<polygon fill="#63b8ff" stroke="#63b8ff" points="1301.77,-345.93 1311.75,-342.36 1301.72,-338.93 1301.77,-345.93"/>
</a>
</g>
</g>
<!-- Node27 -->
<g id="Node000027" class="node">
<title>Node27</title>
<g id="a_Node000027"><a xlink:href="../../d3/d8f/mem_8c.html#a625c89a0ff0ede7fbac1b40c7ac9dbda" target="_top" xlink:title="Create and initialize Form structure.">
<polygon fill="white" stroke="#666666" points="989.25,-315.38 924.5,-315.38 924.5,-294.62 989.25,-294.62 989.25,-315.38"/>
<text xml:space="preserve" text-anchor="middle" x="956.88" y="-301.88" font-family="Helvetica,sans-Serif" font-size="10.00">new_form</text>
</a>
</g>
</g>
<!-- Node26&#45;&gt;Node27 -->
<g id="edge40_Node000026_Node000027" class="edge">
<title>Node26&#45;&gt;Node27</title>
<g id="a_edge40_Node000026_Node000027"><a xlink:title=" ">
<path fill="none" stroke="#63b8ff" d="M1169.29,-304.2C1115.24,-304.41 1033.98,-304.71 989.6,-304.88"/>
<polygon fill="#63b8ff" stroke="#63b8ff" points="1169.22,-307.7 1179.2,-304.17 1169.19,-300.7 1169.22,-307.7"/>
</a>
</g>
</g>
<!-- Node27&#45;&gt;Node17 -->
<g id="edge41_Node000027_Node000017" class="edge">
<title>Node27&#45;&gt;Node17</title>
<g id="a_edge41_Node000027_Node000017"><a xlink:title=" ">
<path fill="none" stroke="#63b8ff" d="M912.78,-305.48C858.67,-305.11 763.41,-301.23 684.75,-281 665.21,-275.98 644.31,-266.37 629.57,-258.81"/>
<polygon fill="#63b8ff" stroke="#63b8ff" points="912.48,-308.98 922.49,-305.51 912.5,-301.98 912.48,-308.98"/>
</a>
</g>
</g>
<!-- Node29 -->
<g id="Node000029" class="node">
<title>Node29</title>
<g id="a_Node000029"><a xlink:href="../../d3/d8f/mem_8c.html#a861e6162a19e089468fdc2a1479b547f" target="_top" xlink:title="Create and initialize Menu structure.">
<polygon fill="white" stroke="#666666" points="422.5,-287.38 353.25,-287.38 353.25,-266.62 422.5,-266.62 422.5,-287.38"/>
<text xml:space="preserve" text-anchor="middle" x="387.88" y="-273.88" font-family="Helvetica,sans-Serif" font-size="10.00">new_menu</text>
</a>
</g>
</g>
<!-- Node28&#45;&gt;Node29 -->
<g id="edge43_Node000028_Node000029" class="edge">
<title>Node28&#45;&gt;Node29</title>
<g id="a_edge43_Node000028_Node000029"><a xlink:title=" ">
<path fill="none" stroke="#63b8ff" d="M1027.11,-381C981.67,-381 916.02,-381 858.62,-381 858.62,-381 858.62,-381 607.88,-381 521.59,-381 433.06,-314.31 401.21,-287.74"/>
<polygon fill="#63b8ff" stroke="#63b8ff" points="1026.99,-384.5 1036.99,-381 1026.99,-377.5 1026.99,-384.5"/>
</a>
</g>
</g>
<!-- Node29&#45;&gt;Node12 -->
<g id="edge45_Node000029_Node000012" class="edge">
<title>Node29&#45;&gt;Node12</title>
<g id="a_edge45_Node000029_Node000012"><a xlink:title=" ">
<path fill="none" stroke="#63b8ff" d="M357.3,-260.03C355.91,-259.04 354.55,-258.03 353.25,-257 335.24,-242.79 336.69,-232.18 317.25,-220 311.46,-216.37 304.94,-213.33 298.38,-210.8"/>
<polygon fill="#63b8ff" stroke="#63b8ff" points="355.19,-262.83 365.48,-265.37 359.02,-256.97 355.19,-262.83"/>
</a>
</g>
</g>
<!-- Node29&#45;&gt;Node14 -->
<g id="edge44_Node000029_Node000014" class="edge">
<title>Node29&#45;&gt;Node14</title>
<g id="a_edge44_Node000029_Node000014"><a xlink:title=" ">
<path fill="none" stroke="#63b8ff" d="M341.39,-272.71C302.44,-268.99 244.89,-263.37 194.75,-258 139.01,-252.03 73.29,-244.24 41.12,-240.38"/>
<polygon fill="#63b8ff" stroke="#63b8ff" points="341.05,-276.2 351.34,-273.66 341.72,-269.23 341.05,-276.2"/>
</a>
</g>
</g>
<!-- Node31 -->
<g id="Node000031" class="node">
<title>Node31</title>
<g id="a_Node000031"><a xlink:href="../../d3/d8f/mem_8c.html#aa7928f3771536aa0e27d88479be2cbc8" target="_top" xlink:title="Create and initialize Pick structure.">
<polygon fill="white" stroke="#666666" points="888.5,-353.38 826.75,-353.38 826.75,-332.62 888.5,-332.62 888.5,-353.38"/>
<text xml:space="preserve" text-anchor="middle" x="857.62" y="-339.88" font-family="Helvetica,sans-Serif" font-size="10.00">new_pick</text>
</a>
</g>
</g>
<!-- Node30&#45;&gt;Node31 -->
<g id="edge47_Node000030_Node000031" class="edge">
<title>Node30&#45;&gt;Node31</title>
<g id="a_edge47_Node000030_Node000031"><a xlink:title=" ">
<path fill="none" stroke="#63b8ff" d="M1170.83,-343C1093.22,-343 950.49,-343 888.58,-343"/>
<polygon fill="#63b8ff" stroke="#63b8ff" points="1170.73,-346.5 1180.73,-343 1170.73,-339.5 1170.73,-346.5"/>
</a>
</g>
</g>
<!-- Node31&#45;&gt;Node10 -->
<g id="edge48_Node000031_Node000010" class="edge">
<title>Node31&#45;&gt;Node10</title>
<g id="a_edge48_Node000031_Node000010"><a xlink:title=" ">
<path fill="none" stroke="#63b8ff" d="M815.42,-337.99C742.39,-328.47 585.97,-305.27 458.5,-267 442.32,-262.14 424.77,-254.82 411.33,-248.74"/>
<polygon fill="#63b8ff" stroke="#63b8ff" points="814.54,-341.4 824.9,-339.2 815.43,-334.46 814.54,-341.4"/>
</a>
</g>
</g>
<!-- Node32&#45;&gt;Node25 -->
<g id="edge50_Node000032_Node000025" class="edge">
<title>Node32&#45;&gt;Node25</title>
<g id="a_edge50_Node000032_Node000025"><a xlink:title=" ">
<path fill="none" stroke="#63b8ff" d="M1446.63,-367.98C1430.52,-363.07 1412.38,-357.54 1396.99,-352.85"/>
<polygon fill="#63b8ff" stroke="#63b8ff" points="1445.37,-371.25 1455.96,-370.82 1447.41,-364.56 1445.37,-371.25"/>
</a>
</g>
</g>
<!-- Node33&#45;&gt;Node4 -->
<g id="edge54_Node000033_Node000004" class="edge">
<title>Node33&#45;&gt;Node4</title>
<g id="a_edge54_Node000033_Node000004"><a xlink:title=" ">
<path fill="none" stroke="#63b8ff" d="M1303.45,-114C1216.99,-114 1053.88,-114 987.3,-114"/>
<polygon fill="#63b8ff" stroke="#63b8ff" points="1303.36,-117.5 1313.36,-114 1303.36,-110.5 1303.36,-117.5"/>
</a>
</g>
</g>
</g>
</svg>
