<?xml version="1.0" encoding="UTF-8" standalone="no"?>
<!DOCTYPE svg PUBLIC "-//W3C//DTD SVG 1.1//EN"
 "http://www.w3.org/Graphics/SVG/1.1/DTD/svg11.dtd">
<!-- Generated by graphviz version 14.1.2 (0)
 -->
<!-- Title: verify_dir Pages: 1 -->
<svg width="715pt" height="525pt"
 viewBox="0.00 0.00 715.00 525.00" xmlns="http://www.w3.org/2000/svg" xmlns:xlink="http://www.w3.org/1999/xlink">
<g id="graph0" class="graph" transform="scale(1 1) rotate(0) translate(4 521.28)">
<title>verify_dir</title>
<!-- Node1 -->
<g id="Node000001" class="node">
<title>Node1</title>
<g id="a_Node000001"><a xlink:title="Verifies that the directory specified by &quot;spec&quot; exists and is accessible with the permissions specifi...">
<polygon fill="#999999" stroke="#666666" points="62.5,-172.28 0,-172.28 0,-151.53 62.5,-151.53 62.5,-172.28"/>
<text xml:space="preserve" text-anchor="middle" x="31.25" y="-158.78" font-family="Helvetica,sans-Serif" font-size="10.00">verify_dir</text>
</a>
</g>
</g>
<!-- Node2 -->
<g id="Node000002" class="node">
<title>Node2</title>
<g id="a_Node000002"><a xlink:href="../../dc/d40/dwin_8c.html#a67659f8a701b74f4dec0d36227a10d1c" target="_top" xlink:title="Display an error message window or print to stderr.">
<polygon fill="white" stroke="#666666" points="178.25,-288.28 98.5,-288.28 98.5,-267.53 178.25,-267.53 178.25,-288.28"/>
<text xml:space="preserve" text-anchor="middle" x="138.38" y="-274.78" font-family="Helvetica,sans-Serif" font-size="10.00">display_error</text>
</a>
</g>
</g>
<!-- Node1&#45;&gt;Node2 -->
<g id="edge1_Node000001_Node000002" class="edge">
<title>Node1&#45;&gt;Node2</title>
<g id="a_edge1_Node000001_Node000002"><a xlink:title=" ">
<path fill="none" stroke="#63b8ff" d="M41.95,-172.61C59.71,-192.2 97.66,-234.08 119.98,-258.71"/>
<polygon fill="#63b8ff" stroke="#63b8ff" points="117.37,-261.04 126.68,-266.1 122.56,-256.34 117.37,-261.04"/>
</a>
</g>
</g>
<!-- Node12 -->
<g id="Node000012" class="node">
<title>Node12</title>
<g id="a_Node000012"><a xlink:href="../../d0/d59/futil_8c.html#a63eb94756fb011a456a3dec900709cd8" target="_top" xlink:title="ssnprintf was designed to be a safer alternative to snprintf.">
<polygon fill="white" stroke="#666666" points="546.12,-326.28 487.38,-326.28 487.38,-305.53 546.12,-305.53 546.12,-326.28"/>
<text xml:space="preserve" text-anchor="middle" x="516.75" y="-312.78" font-family="Helvetica,sans-Serif" font-size="10.00">ssnprintf</text>
</a>
</g>
</g>
<!-- Node1&#45;&gt;Node12 -->
<g id="edge32_Node000001_Node000012" class="edge">
<title>Node1&#45;&gt;Node12</title>
<g id="a_edge32_Node000001_Node000012"><a xlink:title=" ">
<path fill="none" stroke="#63b8ff" d="M62.95,-159.16C133.73,-154.28 311.78,-150.4 436,-219.9 467.36,-237.45 491.56,-272.56 504.72,-295.11"/>
<polygon fill="#63b8ff" stroke="#63b8ff" points="501.59,-296.69 509.53,-303.71 507.7,-293.28 501.59,-296.69"/>
</a>
</g>
</g>
<!-- Node14 -->
<g id="Node000014" class="node">
<title>Node14</title>
<g id="a_Node000014"><a xlink:href="../../d0/d59/futil_8c.html#a0de2e40df9bd7efc8fd9afb8ad2257e6" target="_top" xlink:title="safer alternative to strncpy">
<polygon fill="white" stroke="#666666" points="550.62,-97.28 482.88,-97.28 482.88,-76.53 550.62,-76.53 550.62,-97.28"/>
<text xml:space="preserve" text-anchor="middle" x="516.75" y="-83.78" font-family="Helvetica,sans-Serif" font-size="10.00">strnz__cpy</text>
</a>
</g>
</g>
<!-- Node1&#45;&gt;Node14 -->
<g id="edge33_Node000001_Node000014" class="edge">
<title>Node1&#45;&gt;Node14</title>
<g id="a_edge33_Node000001_Node000014"><a xlink:title=" ">
<path fill="none" stroke="#63b8ff" d="M39.02,-151.18C49.87,-134.7 72.59,-102.94 98.5,-82.9 143.56,-48.06 159.16,-42.36 214.25,-27.9 309.66,-2.88 343.45,15.2 436,-18.9 462.36,-28.62 485.94,-51.35 500.49,-67.87"/>
<polygon fill="#63b8ff" stroke="#63b8ff" points="497.51,-69.75 506.64,-75.12 502.85,-65.23 497.51,-69.75"/>
</a>
</g>
</g>
<!-- Node21 -->
<g id="Node000021" class="node">
<title>Node21</title>
<g id="a_Node000021"><a xlink:href="../../d0/d59/futil_8c.html#ad7f9941ba28a6cca3ccce953c4d77e32" target="_top" xlink:title="Replace Leading Tilde With Home Directory.">
<polygon fill="white" stroke="#666666" points="300.38,-57.28 221.38,-57.28 221.38,-36.53 300.38,-36.53 300.38,-57.28"/>
<text xml:space="preserve" text-anchor="middle" x="260.88" y="-43.78" font-family="Helvetica,sans-Serif" font-size="10.00">expand_tilde</text>
</a>
</g>
</g>
<!-- Node1&#45;&gt;Node21 -->
<g id="edge29_Node000001_Node000021" class="edge">
<title>Node1&#45;&gt;Node21</title>
<g id="a_edge29_Node000001_Node000021"><a xlink:title=" ">
<path fill="none" stroke="#63b8ff" d="M51.96,-151.06C85.11,-132.93 154.31,-95.64 214.25,-66.9 217.53,-65.33 220.95,-63.74 224.4,-62.17"/>
<polygon fill="#63b8ff" stroke="#63b8ff" points="225.55,-65.49 233.25,-58.22 222.69,-59.1 225.55,-65.49"/>
</a>
</g>
</g>
<!-- Node3 -->
<g id="Node000003" class="node">
<title>Node3</title>
<g id="a_Node000003"><a xlink:href="../../dc/d40/dwin_8c.html#a8f6c45ca4a7f6a41c4c88314e697565a" target="_top" xlink:title="Abnormal program termination.">
<polygon fill="white" stroke="#666666" points="412.75,-441.28 366.75,-441.28 366.75,-420.53 412.75,-420.53 412.75,-441.28"/>
<text xml:space="preserve" text-anchor="middle" x="389.75" y="-427.78" font-family="Helvetica,sans-Serif" font-size="10.00">abend</text>
</a>
</g>
</g>
<!-- Node2&#45;&gt;Node3 -->
<g id="edge2_Node000002_Node000003" class="edge">
<title>Node2&#45;&gt;Node3</title>
<g id="a_edge2_Node000002_Node000003"><a xlink:title=" ">
<path fill="none" stroke="#63b8ff" d="M140.17,-288.49C143.18,-319.82 156.77,-412.24 214.25,-449.9 257.05,-477.95 318.78,-461.03 356.2,-446.06"/>
<polygon fill="#63b8ff" stroke="#63b8ff" points="357.26,-449.41 365.13,-442.32 354.55,-442.96 357.26,-449.41"/>
</a>
</g>
</g>
<!-- Node7 -->
<g id="Node000007" class="node">
<title>Node7</title>
<g id="a_Node000007"><a xlink:href="../../dc/d40/dwin_8c.html#a645871e46277e31736bc36d0f3dce4bd" target="_top" xlink:title="construct the chyron string from the chyron structure">
<polygon fill="white" stroke="#666666" points="307.5,-96.28 214.25,-96.28 214.25,-75.53 307.5,-75.53 307.5,-96.28"/>
<text xml:space="preserve" text-anchor="middle" x="260.88" y="-82.78" font-family="Helvetica,sans-Serif" font-size="10.00">compile_chyron</text>
</a>
</g>
</g>
<!-- Node2&#45;&gt;Node7 -->
<g id="edge8_Node000002_Node000007" class="edge">
<title>Node2&#45;&gt;Node7</title>
<g id="a_edge8_Node000002_Node000007"><a xlink:title=" ">
<path fill="none" stroke="#63b8ff" d="M141.24,-267.09C146.88,-237.44 166.41,-153.87 214.25,-105.9 215.28,-104.87 216.37,-103.89 217.52,-102.95"/>
<polygon fill="#63b8ff" stroke="#63b8ff" points="219.36,-105.93 225.78,-97.5 215.5,-100.09 219.36,-105.93"/>
</a>
</g>
</g>
<!-- Node9 -->
<g id="Node000009" class="node">
<title>Node9</title>
<g id="a_Node000009"><a xlink:href="../../dc/d40/dwin_8c.html#a3f3feb40fd703913c5c136331f627c91" target="_top" xlink:title="Destroy Chyron structure.">
<polygon fill="white" stroke="#666666" points="306.38,-249.28 215.38,-249.28 215.38,-228.53 306.38,-228.53 306.38,-249.28"/>
<text xml:space="preserve" text-anchor="middle" x="260.88" y="-235.78" font-family="Helvetica,sans-Serif" font-size="10.00">destroy_chyron</text>
</a>
</g>
</g>
<!-- Node2&#45;&gt;Node9 -->
<g id="edge10_Node000002_Node000009" class="edge">
<title>Node2&#45;&gt;Node9</title>
<g id="a_edge10_Node000002_Node000009"><a xlink:title=" ">
<path fill="none" stroke="#63b8ff" d="M172.94,-267.04C186.26,-262.73 201.76,-257.71 215.95,-253.12"/>
<polygon fill="#63b8ff" stroke="#63b8ff" points="216.61,-256.58 225.05,-250.18 214.46,-249.92 216.61,-256.58"/>
</a>
</g>
</g>
<!-- Node10 -->
<g id="Node000010" class="node">
<title>Node10</title>
<g id="a_Node000010"><a xlink:href="../../dc/d40/dwin_8c.html#ad37d5808ff30ae6894780425d865abae" target="_top" xlink:title="Create and initialize Chyron structure.">
<polygon fill="white" stroke="#666666" points="298.12,-441.28 223.62,-441.28 223.62,-420.53 298.12,-420.53 298.12,-441.28"/>
<text xml:space="preserve" text-anchor="middle" x="260.88" y="-427.78" font-family="Helvetica,sans-Serif" font-size="10.00">new_chyron</text>
</a>
</g>
</g>
<!-- Node2&#45;&gt;Node10 -->
<g id="edge11_Node000002_Node000010" class="edge">
<title>Node2&#45;&gt;Node10</title>
<g id="a_edge11_Node000002_Node000010"><a xlink:title=" ">
<path fill="none" stroke="#63b8ff" d="M142.79,-288.73C151.12,-313.56 174.76,-375.16 214.25,-410.9 215.49,-412.03 216.81,-413.1 218.18,-414.11"/>
<polygon fill="#63b8ff" stroke="#63b8ff" points="216.19,-417 226.54,-419.26 219.86,-411.04 216.19,-417"/>
</a>
</g>
</g>
<!-- Node11 -->
<g id="Node000011" class="node">
<title>Node11</title>
<g id="a_Node000011"><a xlink:href="../../dc/d40/dwin_8c.html#a208ce92c197fdd6d2b007987e534aa3b" target="_top" xlink:title="Set chyron key.">
<polygon fill="white" stroke="#666666" points="435.62,-364.28 343.88,-364.28 343.88,-343.53 435.62,-343.53 435.62,-364.28"/>
<text xml:space="preserve" text-anchor="middle" x="389.75" y="-350.78" font-family="Helvetica,sans-Serif" font-size="10.00">set_chyron_key</text>
</a>
</g>
</g>
<!-- Node2&#45;&gt;Node11 -->
<g id="edge13_Node000002_Node000011" class="edge">
<title>Node2&#45;&gt;Node11</title>
<g id="a_edge13_Node000002_Node000011"><a xlink:title=" ">
<path fill="none" stroke="#63b8ff" d="M151.05,-288.69C164.97,-300.87 189.48,-320.24 214.25,-329.9 251.88,-344.58 297.12,-350.5 332.11,-352.79"/>
<polygon fill="#63b8ff" stroke="#63b8ff" points="331.87,-356.28 342.05,-353.35 332.26,-349.3 331.87,-356.28"/>
</a>
</g>
</g>
<!-- Node2&#45;&gt;Node12 -->
<g id="edge15_Node000002_Node000012" class="edge">
<title>Node2&#45;&gt;Node12</title>
<g id="a_edge15_Node000002_Node000012"><a xlink:title=" ">
<path fill="none" stroke="#63b8ff" d="M176.42,-288.75C188.39,-291.87 201.8,-294.95 214.25,-296.9 307.32,-311.52 418.22,-314.98 476.11,-315.74"/>
<polygon fill="#63b8ff" stroke="#63b8ff" points="475.74,-319.24 485.78,-315.85 475.82,-312.24 475.74,-319.24"/>
</a>
</g>
</g>
<!-- Node13 -->
<g id="Node000013" class="node">
<title>Node13</title>
<g id="a_Node000013"><a xlink:href="../../d0/d59/futil_8c.html#a636608f26d1193b5d860f2312cd8ee49" target="_top" xlink:title="terminates string at New Line, Carriage Return, or max_len">
<polygon fill="white" stroke="#666666" points="280.88,-517.28 240.88,-517.28 240.88,-496.53 280.88,-496.53 280.88,-517.28"/>
<text xml:space="preserve" text-anchor="middle" x="260.88" y="-503.78" font-family="Helvetica,sans-Serif" font-size="10.00">strnz</text>
</a>
</g>
</g>
<!-- Node2&#45;&gt;Node13 -->
<g id="edge16_Node000002_Node000013" class="edge">
<title>Node2&#45;&gt;Node13</title>
<g id="a_edge16_Node000002_Node000013"><a xlink:title=" ">
<path fill="none" stroke="#63b8ff" d="M140.57,-288.63C144.73,-321.53 161.38,-422.43 214.25,-482.9 218.7,-488 224.5,-492.18 230.47,-495.54"/>
<polygon fill="#63b8ff" stroke="#63b8ff" points="228.58,-498.5 239.1,-499.77 231.66,-492.22 228.58,-498.5"/>
</a>
</g>
</g>
<!-- Node2&#45;&gt;Node14 -->
<g id="edge17_Node000002_Node000014" class="edge">
<title>Node2&#45;&gt;Node14</title>
<g id="a_edge17_Node000002_Node000014"><a xlink:title=" ">
<path fill="none" stroke="#63b8ff" d="M150.72,-267.16C164.7,-254.4 189.65,-233.17 214.25,-219.9 305.95,-170.45 343.37,-191.58 436,-143.9 457.18,-133 479.03,-116.99 494.5,-104.7"/>
<polygon fill="#63b8ff" stroke="#63b8ff" points="496.5,-107.59 502.06,-98.57 492.09,-102.15 496.5,-107.59"/>
</a>
</g>
</g>
<!-- Node15 -->
<g id="Node000015" class="node">
<title>Node15</title>
<g id="a_Node000015"><a xlink:href="../../dc/d40/dwin_8c.html#a9dd598e1d49c8764af1eec42c682623e" target="_top" xlink:title="Delete the current window and its associated box window.">
<polygon fill="white" stroke="#666666" points="287.62,-402.28 234.12,-402.28 234.12,-381.53 287.62,-381.53 287.62,-402.28"/>
<text xml:space="preserve" text-anchor="middle" x="260.88" y="-388.78" font-family="Helvetica,sans-Serif" font-size="10.00">win_del</text>
</a>
</g>
</g>
<!-- Node2&#45;&gt;Node15 -->
<g id="edge18_Node000002_Node000015" class="edge">
<title>Node2&#45;&gt;Node15</title>
<g id="a_edge18_Node000002_Node000015"><a xlink:title=" ">
<path fill="none" stroke="#63b8ff" d="M146.13,-288.49C158.09,-306.59 184.55,-343.86 214.25,-367.9 217.67,-370.68 221.47,-373.27 225.36,-375.65"/>
<polygon fill="#63b8ff" stroke="#63b8ff" points="223.35,-378.53 233.78,-380.37 226.77,-372.43 223.35,-378.53"/>
</a>
</g>
</g>
<!-- Node16 -->
<g id="Node000016" class="node">
<title>Node16</title>
<g id="a_Node000016"><a xlink:href="../../dc/d40/dwin_8c.html#a435c7bff7ffedb8f51c6de9259e36f6c" target="_top" xlink:title="Create a new window with optional box and title.">
<polygon fill="white" stroke="#666666" points="290.25,-135.28 231.5,-135.28 231.5,-114.53 290.25,-114.53 290.25,-135.28"/>
<text xml:space="preserve" text-anchor="middle" x="260.88" y="-121.78" font-family="Helvetica,sans-Serif" font-size="10.00">win_new</text>
</a>
</g>
</g>
<!-- Node2&#45;&gt;Node16 -->
<g id="edge19_Node000002_Node000016" class="edge">
<title>Node2&#45;&gt;Node16</title>
<g id="a_edge19_Node000002_Node000016"><a xlink:title=" ">
<path fill="none" stroke="#63b8ff" d="M143.19,-267.23C152.2,-243.32 176.87,-184.75 214.25,-148.9 217.11,-146.16 220.36,-143.64 223.76,-141.36"/>
<polygon fill="#63b8ff" stroke="#63b8ff" points="225.46,-144.42 232.28,-136.32 221.89,-138.39 225.46,-144.42"/>
</a>
</g>
</g>
<!-- Node18 -->
<g id="Node000018" class="node">
<title>Node18</title>
<g id="a_Node000018"><a xlink:href="../../dc/d40/dwin_8c.html#acf4c709bccc4c965a5d61db978db31a3" target="_top" xlink:title="Wrapper for wgetch that handles signals and mouse events.">
<polygon fill="white" stroke="#666666" points="289.5,-288.28 232.25,-288.28 232.25,-267.53 289.5,-267.53 289.5,-288.28"/>
<text xml:space="preserve" text-anchor="middle" x="260.88" y="-274.78" font-family="Helvetica,sans-Serif" font-size="10.00">xwgetch</text>
</a>
</g>
</g>
<!-- Node2&#45;&gt;Node18 -->
<g id="edge22_Node000002_Node000018" class="edge">
<title>Node2&#45;&gt;Node18</title>
<g id="a_edge22_Node000002_Node000018"><a xlink:title=" ">
<path fill="none" stroke="#63b8ff" d="M178.5,-271.54C192,-271.03 207.12,-271.03 220.63,-271.53"/>
<polygon fill="#63b8ff" stroke="#63b8ff" points="220.33,-275.02 230.49,-272.03 220.68,-268.03 220.33,-275.02"/>
</a>
</g>
</g>
<!-- Node4 -->
<g id="Node000004" class="node">
<title>Node4</title>
<g id="a_Node000004"><a xlink:href="../../dc/d40/dwin_8c.html#afc0985a403e3eac0b2cd8f0fab500256" target="_top" xlink:title="Gracefully shut down NCurses and restore terminal settings.">
<polygon fill="white" stroke="#666666" points="561.5,-422.28 472,-422.28 472,-401.53 561.5,-401.53 561.5,-422.28"/>
<text xml:space="preserve" text-anchor="middle" x="516.75" y="-408.78" font-family="Helvetica,sans-Serif" font-size="10.00">destroy_curses</text>
</a>
</g>
</g>
<!-- Node3&#45;&gt;Node4 -->
<g id="edge3_Node000003_Node000004" class="edge">
<title>Node3&#45;&gt;Node4</title>
<g id="a_edge3_Node000003_Node000004"><a xlink:title=" ">
<path fill="none" stroke="#63b8ff" d="M413.1,-427.51C426.28,-425.5 443.59,-422.87 460.23,-420.34"/>
<polygon fill="#63b8ff" stroke="#63b8ff" points="460.73,-423.81 470.09,-418.84 459.68,-416.89 460.73,-423.81"/>
</a>
</g>
</g>
<!-- Node5 -->
<g id="Node000005" class="node">
<title>Node5</title>
<g id="a_Node000005"><a xlink:href="../../d7/d72/scriou_8c.html#ac5e3adb304b78910fc77761ef6a743f0" target="_top" xlink:title="restore_shell_tioctl() &#45; restore shell terminal settings">
<polygon fill="white" stroke="#666666" points="706.5,-423.28 597.5,-423.28 597.5,-402.53 706.5,-402.53 706.5,-423.28"/>
<text xml:space="preserve" text-anchor="middle" x="652" y="-409.78" font-family="Helvetica,sans-Serif" font-size="10.00">restore_shell_tioctl</text>
</a>
</g>
</g>
<!-- Node3&#45;&gt;Node5 -->
<g id="edge6_Node000003_Node000005" class="edge">
<title>Node3&#45;&gt;Node5</title>
<g id="a_edge6_Node000003_Node000005"><a xlink:title=" ">
<path fill="none" stroke="#63b8ff" d="M413.2,-432.32C445.91,-434.05 508.55,-436.18 561.5,-430.9 572.39,-429.82 583.91,-428.01 594.93,-425.95"/>
<polygon fill="#63b8ff" stroke="#63b8ff" points="595.57,-429.39 604.71,-424.02 594.22,-422.52 595.57,-429.39"/>
</a>
</g>
</g>
<!-- Node6 -->
<g id="Node000006" class="node">
<title>Node6</title>
<g id="a_Node000006"><a xlink:href="../../da/d12/sig_8c.html#a06c1eb6cf3649dc187115565409f91af" target="_top" xlink:title="Set signal handlers to default behavior.">
<polygon fill="white" stroke="#666666" points="692.62,-384.28 611.38,-384.28 611.38,-363.53 692.62,-363.53 692.62,-384.28"/>
<text xml:space="preserve" text-anchor="middle" x="652" y="-370.78" font-family="Helvetica,sans-Serif" font-size="10.00">sig_dfl_mode</text>
</a>
</g>
</g>
<!-- Node3&#45;&gt;Node6 -->
<g id="edge7_Node000003_Node000006" class="edge">
<title>Node3&#45;&gt;Node6</title>
<g id="a_edge7_Node000003_Node000006"><a xlink:title=" ">
<path fill="none" stroke="#63b8ff" d="M409.11,-420.15C425.15,-411.3 449.35,-399.21 472,-392.9 514.11,-381.18 563.63,-376.59 599.9,-374.85"/>
<polygon fill="#63b8ff" stroke="#63b8ff" points="599.83,-378.35 609.68,-374.44 599.54,-371.36 599.83,-378.35"/>
</a>
</g>
</g>
<!-- Node4&#45;&gt;Node5 -->
<g id="edge4_Node000004_Node000005" class="edge">
<title>Node4&#45;&gt;Node5</title>
<g id="a_edge4_Node000004_Node000005"><a xlink:title=" ">
<path fill="none" stroke="#63b8ff" d="M561.75,-412.23C569.48,-412.29 577.67,-412.35 585.83,-412.41"/>
<polygon fill="#63b8ff" stroke="#63b8ff" points="585.76,-415.91 595.78,-412.49 585.81,-408.91 585.76,-415.91"/>
</a>
</g>
</g>
<!-- Node4&#45;&gt;Node6 -->
<g id="edge5_Node000004_Node000006" class="edge">
<title>Node4&#45;&gt;Node6</title>
<g id="a_edge5_Node000004_Node000006"><a xlink:title=" ">
<path fill="none" stroke="#63b8ff" d="M555.58,-401.12C570.07,-396.98 586.8,-392.21 602.18,-387.83"/>
<polygon fill="#63b8ff" stroke="#63b8ff" points="602.97,-391.24 611.62,-385.13 601.05,-384.51 602.97,-391.24"/>
</a>
</g>
</g>
<!-- Node8 -->
<g id="Node000008" class="node">
<title>Node8</title>
<g id="a_Node000008"><a xlink:href="../../d0/d59/futil_8c.html#aa0145c044cfdde3a1c83323410a59f25" target="_top" xlink:title="safer alternative to strncat">
<polygon fill="white" stroke="#666666" points="422.5,-59.28 357,-59.28 357,-38.53 422.5,-38.53 422.5,-59.28"/>
<text xml:space="preserve" text-anchor="middle" x="389.75" y="-45.78" font-family="Helvetica,sans-Serif" font-size="10.00">strnz__cat</text>
</a>
</g>
</g>
<!-- Node7&#45;&gt;Node8 -->
<g id="edge9_Node000007_Node000008" class="edge">
<title>Node7&#45;&gt;Node8</title>
<g id="a_edge9_Node000007_Node000008"><a xlink:title=" ">
<path fill="none" stroke="#63b8ff" d="M298.91,-75.1C313.63,-70.81 330.65,-65.85 345.89,-61.4"/>
<polygon fill="#63b8ff" stroke="#63b8ff" points="346.54,-64.86 355.16,-58.7 344.58,-58.14 346.54,-64.86"/>
</a>
</g>
</g>
<!-- Node10&#45;&gt;Node3 -->
<g id="edge12_Node000010_Node000003" class="edge">
<title>Node10&#45;&gt;Node3</title>
<g id="a_edge12_Node000010_Node000003"><a xlink:title=" ">
<path fill="none" stroke="#63b8ff" d="M298.57,-430.9C316.41,-430.9 337.7,-430.9 355.12,-430.9"/>
<polygon fill="#63b8ff" stroke="#63b8ff" points="354.95,-434.4 364.95,-430.9 354.95,-427.4 354.95,-434.4"/>
</a>
</g>
</g>
<!-- Node11&#45;&gt;Node12 -->
<g id="edge14_Node000011_Node000012" class="edge">
<title>Node11&#45;&gt;Node12</title>
<g id="a_edge14_Node000011_Node000012"><a xlink:title=" ">
<path fill="none" stroke="#63b8ff" d="M426.24,-343.12C441.84,-338.37 460.22,-332.79 476.25,-327.91"/>
<polygon fill="#63b8ff" stroke="#63b8ff" points="476.91,-331.37 485.46,-325.11 474.88,-324.67 476.91,-331.37"/>
</a>
</g>
</g>
<!-- Node16&#45;&gt;Node14 -->
<g id="edge21_Node000016_Node000014" class="edge">
<title>Node16&#45;&gt;Node14</title>
<g id="a_edge21_Node000016_Node000014"><a xlink:title=" ">
<path fill="none" stroke="#63b8ff" d="M290.42,-117.38C306.01,-113.5 325.72,-108.94 343.5,-105.9 386.66,-98.53 436.42,-93.4 471.33,-90.34"/>
<polygon fill="#63b8ff" stroke="#63b8ff" points="471.39,-93.85 481.06,-89.52 470.8,-86.88 471.39,-93.85"/>
</a>
</g>
</g>
<!-- Node17 -->
<g id="Node000017" class="node">
<title>Node17</title>
<g id="a_Node000017"><a xlink:href="../../dc/d40/dwin_8c.html#ac9adcf7339be4a05ab1a7350c236b8a5" target="_top" xlink:title="Draw a box around the specified window.">
<polygon fill="white" stroke="#666666" points="409.38,-135.28 370.12,-135.28 370.12,-114.53 409.38,-114.53 409.38,-135.28"/>
<text xml:space="preserve" text-anchor="middle" x="389.75" y="-121.78" font-family="Helvetica,sans-Serif" font-size="10.00">cbox</text>
</a>
</g>
</g>
<!-- Node16&#45;&gt;Node17 -->
<g id="edge20_Node000016_Node000017" class="edge">
<title>Node16&#45;&gt;Node17</title>
<g id="a_edge20_Node000016_Node000017"><a xlink:title=" ">
<path fill="none" stroke="#63b8ff" d="M290.66,-124.9C310.96,-124.9 338.07,-124.9 358.65,-124.9"/>
<polygon fill="#63b8ff" stroke="#63b8ff" points="358.39,-128.4 368.39,-124.9 358.39,-121.4 358.39,-128.4"/>
</a>
</g>
</g>
<!-- Node18&#45;&gt;Node2 -->
<g id="edge23_Node000018_Node000002" class="edge">
<title>Node18&#45;&gt;Node2</title>
<g id="a_edge23_Node000018_Node000002"><a xlink:title=" ">
<path fill="none" stroke="#63b8ff" d="M232.01,-283.7C219.47,-284.52 204.27,-284.81 189.84,-284.57"/>
<polygon fill="#63b8ff" stroke="#63b8ff" points="190.1,-281.08 180.01,-284.31 189.91,-288.08 190.1,-281.08"/>
</a>
</g>
</g>
<!-- Node19 -->
<g id="Node000019" class="node">
<title>Node19</title>
<g id="a_Node000019"><a xlink:href="../../dc/d40/dwin_8c.html#a4298f891699300bfc4e6e56fd2a8d574" target="_top" xlink:title="Get keycode from chyron.">
<polygon fill="white" stroke="#666666" points="436,-249.28 343.5,-249.28 343.5,-228.53 436,-228.53 436,-249.28"/>
<text xml:space="preserve" text-anchor="middle" x="389.75" y="-235.78" font-family="Helvetica,sans-Serif" font-size="10.00">get_chyron_key</text>
</a>
</g>
</g>
<!-- Node18&#45;&gt;Node19 -->
<g id="edge24_Node000018_Node000019" class="edge">
<title>Node18&#45;&gt;Node19</title>
<g id="a_edge24_Node000018_Node000019"><a xlink:title=" ">
<path fill="none" stroke="#63b8ff" d="M289.72,-269.35C305.3,-264.55 325.13,-258.46 342.94,-252.99"/>
<polygon fill="#63b8ff" stroke="#63b8ff" points="343.73,-256.4 352.26,-250.12 341.68,-249.71 343.73,-256.4"/>
</a>
</g>
</g>
<!-- Node20 -->
<g id="Node000020" class="node">
<title>Node20</title>
<g id="a_Node000020"><a xlink:href="../../da/d12/sig_8c.html#a79c3e22498eb2346543aa9c86fd22e58" target="_top" xlink:title="Handle received signals and prompt user for action.">
<polygon fill="white" stroke="#666666" points="431.5,-288.28 348,-288.28 348,-267.53 431.5,-267.53 431.5,-288.28"/>
<text xml:space="preserve" text-anchor="middle" x="389.75" y="-274.78" font-family="Helvetica,sans-Serif" font-size="10.00">handle_signal</text>
</a>
</g>
</g>
<!-- Node18&#45;&gt;Node20 -->
<g id="edge25_Node000018_Node000020" class="edge">
<title>Node18&#45;&gt;Node20</title>
<g id="a_edge25_Node000018_Node000020"><a xlink:title=" ">
<path fill="none" stroke="#63b8ff" d="M289.72,-277.9C303.45,-277.9 320.48,-277.9 336.52,-277.9"/>
<polygon fill="#63b8ff" stroke="#63b8ff" points="336.45,-281.4 346.45,-277.9 336.45,-274.4 336.45,-281.4"/>
</a>
</g>
</g>
<!-- Node20&#45;&gt;Node5 -->
<g id="edge26_Node000020_Node000005" class="edge">
<title>Node20&#45;&gt;Node5</title>
<g id="a_edge26_Node000020_Node000005"><a xlink:title=" ">
<path fill="none" stroke="#63b8ff" d="M431.75,-271.25C469.41,-267.52 524.78,-268.32 561.5,-296.9 597.46,-324.89 565.26,-360.7 597.5,-392.9 598.55,-393.95 599.65,-394.94 600.81,-395.88"/>
<polygon fill="#63b8ff" stroke="#63b8ff" points="598.88,-398.8 609.17,-401.3 602.69,-392.93 598.88,-398.8"/>
</a>
</g>
</g>
<!-- Node20&#45;&gt;Node12 -->
<g id="edge27_Node000020_Node000012" class="edge">
<title>Node20&#45;&gt;Node12</title>
<g id="a_edge27_Node000020_Node000012"><a xlink:title=" ">
<path fill="none" stroke="#63b8ff" d="M426.24,-288.69C441.84,-293.43 460.22,-299.02 476.25,-303.9"/>
<polygon fill="#63b8ff" stroke="#63b8ff" points="474.88,-307.14 485.46,-306.7 476.91,-300.44 474.88,-307.14"/>
</a>
</g>
</g>
<!-- Node20&#45;&gt;Node14 -->
<g id="edge28_Node000020_Node000014" class="edge">
<title>Node20&#45;&gt;Node14</title>
<g id="a_edge28_Node000020_Node000014"><a xlink:title=" ">
<path fill="none" stroke="#63b8ff" d="M422.77,-267.28C427.58,-264.73 432.2,-261.63 436,-257.9 479.53,-215.24 501.91,-144.26 510.89,-108.67"/>
<polygon fill="#63b8ff" stroke="#63b8ff" points="514.25,-109.67 513.17,-99.13 507.44,-108.04 514.25,-109.67"/>
</a>
</g>
</g>
<!-- Node21&#45;&gt;Node8 -->
<g id="edge30_Node000021_Node000008" class="edge">
<title>Node21&#45;&gt;Node8</title>
<g id="a_edge30_Node000021_Node000008"><a xlink:title=" ">
<path fill="none" stroke="#63b8ff" d="M300.63,-47.52C314.78,-47.74 330.86,-47.99 345.38,-48.22"/>
<polygon fill="#63b8ff" stroke="#63b8ff" points="345.06,-51.72 355.11,-48.37 345.17,-44.72 345.06,-51.72"/>
</a>
</g>
</g>
<!-- Node21&#45;&gt;Node14 -->
<g id="edge31_Node000021_Node000014" class="edge">
<title>Node21&#45;&gt;Node14</title>
<g id="a_edge31_Node000021_Node000014"><a xlink:title=" ">
<path fill="none" stroke="#63b8ff" d="M294.47,-36.09C330.09,-26.02 388.42,-14.65 436,-29.9 459.62,-37.48 482.19,-54.9 497.26,-68.51"/>
<polygon fill="#63b8ff" stroke="#63b8ff" points="494.82,-71.02 504.51,-75.33 499.62,-65.93 494.82,-71.02"/>
</a>
</g>
</g>
</g>
</svg>
