<?xml version="1.0" encoding="UTF-8" standalone="no"?>
<!DOCTYPE svg PUBLIC "-//W3C//DTD SVG 1.1//EN"
 "http://www.w3.org/Graphics/SVG/1.1/DTD/svg11.dtd">
<!-- Generated by graphviz version 14.1.2 (0)
 -->
<!-- Title: verify_spec_arg Pages: 1 -->
<svg width="367pt" height="105pt"
 viewBox="0.00 0.00 367.00 105.00" xmlns="http://www.w3.org/2000/svg" xmlns:xlink="http://www.w3.org/1999/xlink">
<g id="graph0" class="graph" transform="scale(1 1) rotate(0) translate(4 100.75)">
<title>verify_spec_arg</title>
<!-- Node1 -->
<g id="Node000001" class="node">
<title>Node1</title>
<g id="a_Node000001"><a xlink:title="Verify file specification argument.">
<polygon fill="#999999" stroke="#666666" points="93.25,-58.75 0,-58.75 0,-38 93.25,-38 93.25,-58.75"/>
<text xml:space="preserve" text-anchor="middle" x="46.62" y="-45.25" font-family="Helvetica,sans-Serif" font-size="10.00">verify_spec_arg</text>
</a>
</g>
</g>
<!-- Node2 -->
<g id="Node000002" class="node">
<title>Node2</title>
<g id="a_Node000002"><a xlink:href="../../d6/d7f/a00287.html#a0d44c51feb7f300fecb49dbf223a62f8" target="_top" xlink:title="Removes quotes and trims at first space.">
<polygon fill="white" stroke="#666666" points="254.75,-96.75 129.25,-96.75 129.25,-76 254.75,-76 254.75,-96.75"/>
<text xml:space="preserve" text-anchor="middle" x="192" y="-83.25" font-family="Helvetica,sans-Serif" font-size="10.00">canonicalize_file_spec</text>
</a>
</g>
</g>
<!-- Node1&#45;&gt;Node2 -->
<g id="edge1_Node000001_Node000002" class="edge">
<title>Node1&#45;&gt;Node2</title>
<g id="a_edge1_Node000001_Node000002"><a xlink:title=" ">
<path fill="none" stroke="#63b8ff" d="M88.33,-59.16C104.22,-63.37 122.63,-68.25 139.43,-72.71"/>
<polygon fill="#63b8ff" stroke="#63b8ff" points="138.17,-75.99 148.73,-75.17 139.96,-69.23 138.17,-75.99"/>
</a>
</g>
</g>
<!-- Node3 -->
<g id="Node000003" class="node">
<title>Node3</title>
<g id="a_Node000003"><a xlink:href="../../d6/d7f/a00287.html#a0de2e40df9bd7efc8fd9afb8ad2257e6" target="_top" xlink:title="safer alternative to strncpy">
<polygon fill="white" stroke="#666666" points="358.5,-77.75 290.75,-77.75 290.75,-57 358.5,-57 358.5,-77.75"/>
<text xml:space="preserve" text-anchor="middle" x="324.62" y="-64.25" font-family="Helvetica,sans-Serif" font-size="10.00">strnz__cpy</text>
</a>
</g>
</g>
<!-- Node1&#45;&gt;Node3 -->
<g id="edge4_Node000001_Node000003" class="edge">
<title>Node1&#45;&gt;Node3</title>
<g id="a_edge4_Node000001_Node000003"><a xlink:title=" ">
<path fill="none" stroke="#63b8ff" d="M93.51,-51.53C145.13,-55.09 228.4,-60.82 279.35,-64.33"/>
<polygon fill="#63b8ff" stroke="#63b8ff" points="278.91,-67.81 289.13,-65 279.39,-60.82 278.91,-67.81"/>
</a>
</g>
</g>
<!-- Node4 -->
<g id="Node000004" class="node">
<title>Node4</title>
<g id="a_Node000004"><a xlink:href="../../d6/d7f/a00287.html#aa0145c044cfdde3a1c83323410a59f25" target="_top" xlink:title="safer alternative to strncat">
<polygon fill="white" stroke="#666666" points="224.75,-20.75 159.25,-20.75 159.25,0 224.75,0 224.75,-20.75"/>
<text xml:space="preserve" text-anchor="middle" x="192" y="-7.25" font-family="Helvetica,sans-Serif" font-size="10.00">strnz__cat</text>
</a>
</g>
</g>
<!-- Node1&#45;&gt;Node4 -->
<g id="edge3_Node000001_Node000004" class="edge">
<title>Node1&#45;&gt;Node4</title>
<g id="a_edge3_Node000001_Node000004"><a xlink:title=" ">
<path fill="none" stroke="#63b8ff" d="M88.33,-37.59C106.93,-32.66 128.97,-26.82 147.85,-21.81"/>
<polygon fill="#63b8ff" stroke="#63b8ff" points="148.62,-25.23 157.39,-19.28 146.83,-18.46 148.62,-25.23"/>
</a>
</g>
</g>
<!-- Node2&#45;&gt;Node3 -->
<g id="edge2_Node000002_Node000003" class="edge">
<title>Node2&#45;&gt;Node3</title>
<g id="a_edge2_Node000002_Node000003"><a xlink:title=" ">
<path fill="none" stroke="#63b8ff" d="M254.87,-77.38C263.11,-76.18 271.42,-74.97 279.29,-73.82"/>
<polygon fill="#63b8ff" stroke="#63b8ff" points="279.53,-77.33 288.92,-72.42 278.52,-70.4 279.53,-77.33"/>
</a>
</g>
</g>
</g>
</svg>
