<?xml version="1.0" encoding="UTF-8" standalone="no"?>
<!DOCTYPE svg PUBLIC "-//W3C//DTD SVG 1.1//EN"
 "http://www.w3.org/Graphics/SVG/1.1/DTD/svg11.dtd">
<!-- Generated by graphviz version 14.1.2 (0)
 -->
<!-- Title: destroy_init Pages: 1 -->
<svg width="204pt" height="146pt"
 viewBox="0.00 0.00 204.00 146.00" xmlns="http://www.w3.org/2000/svg" xmlns:xlink="http://www.w3.org/1999/xlink">
<g id="graph0" class="graph" transform="scale(1 1) rotate(0) translate(4 141.75)">
<title>destroy_init</title>
<!-- Node1 -->
<g id="Node000001" class="node">
<title>Node1</title>
<g id="a_Node000001"><a xlink:title="Destroy Init structure.">
<polygon fill="#999999" stroke="#666666" points="73.75,-78.75 0,-78.75 0,-58 73.75,-58 73.75,-78.75"/>
<text xml:space="preserve" text-anchor="middle" x="36.88" y="-65.25" font-family="Helvetica,sans-Serif" font-size="10.00">destroy_init</text>
</a>
</g>
</g>
<!-- Node2 -->
<g id="Node000002" class="node">
<title>Node2</title>
<g id="a_Node000002"><a xlink:href="../../dd/dc1/a00212.html#a8e0f566e6ae953068fec9e896ecb0123" target="_top" xlink:title="Destroy Form structure.">
<polygon fill="white" stroke="#666666" points="193.25,-137.75 112,-137.75 112,-117 193.25,-117 193.25,-137.75"/>
<text xml:space="preserve" text-anchor="middle" x="152.62" y="-124.25" font-family="Helvetica,sans-Serif" font-size="10.00">destroy_form</text>
</a>
</g>
</g>
<!-- Node1&#45;&gt;Node2 -->
<g id="edge1_Node000001_Node000002" class="edge">
<title>Node1&#45;&gt;Node2</title>
<g id="a_edge1_Node000001_Node000002"><a xlink:title=" ">
<path fill="none" stroke="#63b8ff" d="M57.25,-79.24C71.64,-87.22 91.79,-98.22 109.75,-107.38 112.48,-108.77 115.33,-110.19 118.19,-111.6"/>
<polygon fill="#63b8ff" stroke="#63b8ff" points="116.59,-114.71 127.12,-115.92 119.65,-108.41 116.59,-114.71"/>
</a>
</g>
</g>
<!-- Node3 -->
<g id="Node000003" class="node">
<title>Node3</title>
<g id="a_Node000003"><a xlink:href="../../dd/dc1/a00212.html#a8708b20d5d31a2bd82d91d281236ce64" target="_top" xlink:title="Destroy Menu structure.">
<polygon fill="white" stroke="#666666" points="195.5,-98.75 109.75,-98.75 109.75,-78 195.5,-78 195.5,-98.75"/>
<text xml:space="preserve" text-anchor="middle" x="152.62" y="-85.25" font-family="Helvetica,sans-Serif" font-size="10.00">destroy_menu</text>
</a>
</g>
</g>
<!-- Node1&#45;&gt;Node3 -->
<g id="edge2_Node000001_Node000003" class="edge">
<title>Node1&#45;&gt;Node3</title>
<g id="a_edge2_Node000001_Node000003"><a xlink:title=" ">
<path fill="none" stroke="#63b8ff" d="M74.18,-74.76C81.78,-76.09 89.95,-77.53 98.03,-78.95"/>
<polygon fill="#63b8ff" stroke="#63b8ff" points="97.38,-82.39 107.83,-80.67 98.59,-75.5 97.38,-82.39"/>
</a>
</g>
</g>
<!-- Node4 -->
<g id="Node000004" class="node">
<title>Node4</title>
<g id="a_Node000004"><a xlink:href="../../dd/dc1/a00212.html#aea01afdf2f6aa68b25d51a4b714ffec2" target="_top" xlink:title="Destroy Pick structure.">
<polygon fill="white" stroke="#666666" points="191.75,-59.75 113.5,-59.75 113.5,-39 191.75,-39 191.75,-59.75"/>
<text xml:space="preserve" text-anchor="middle" x="152.62" y="-46.25" font-family="Helvetica,sans-Serif" font-size="10.00">destroy_pick</text>
</a>
</g>
</g>
<!-- Node1&#45;&gt;Node4 -->
<g id="edge3_Node000001_Node000004" class="edge">
<title>Node1&#45;&gt;Node4</title>
<g id="a_edge3_Node000001_Node000004"><a xlink:title=" ">
<path fill="none" stroke="#63b8ff" d="M74.18,-62.31C83.05,-60.83 92.7,-59.22 102.08,-57.65"/>
<polygon fill="#63b8ff" stroke="#63b8ff" points="102.53,-61.12 111.82,-56.02 101.38,-54.22 102.53,-61.12"/>
</a>
</g>
</g>
<!-- Node5 -->
<g id="Node000005" class="node">
<title>Node5</title>
<g id="a_Node000005"><a xlink:href="../../dd/dc1/a00212.html#a519762bc6148577dc96caf851c3ebfe9" target="_top" xlink:title="Destroy View structure.">
<polygon fill="white" stroke="#666666" points="193.25,-20.75 112,-20.75 112,0 193.25,0 193.25,-20.75"/>
<text xml:space="preserve" text-anchor="middle" x="152.62" y="-7.25" font-family="Helvetica,sans-Serif" font-size="10.00">destroy_view</text>
</a>
</g>
</g>
<!-- Node1&#45;&gt;Node5 -->
<g id="edge4_Node000001_Node000005" class="edge">
<title>Node1&#45;&gt;Node5</title>
<g id="a_edge4_Node000001_Node000005"><a xlink:title=" ">
<path fill="none" stroke="#63b8ff" d="M57.9,-57.51C72.26,-49.79 92.1,-39.25 109.75,-30.38 112.49,-29 115.34,-27.59 118.21,-26.18"/>
<polygon fill="#63b8ff" stroke="#63b8ff" points="119.66,-29.37 127.14,-21.87 116.62,-23.07 119.66,-29.37"/>
</a>
</g>
</g>
</g>
</svg>
