<?xml version="1.0" encoding="UTF-8" standalone="no"?>
<!DOCTYPE svg PUBLIC "-//W3C//DTD SVG 1.1//EN"
 "http://www.w3.org/Graphics/SVG/1.1/DTD/svg11.dtd">
<!-- Generated by graphviz version 14.1.2 (0)
 -->
<!-- Title: new_view Pages: 1 -->
<svg width="717pt" height="414pt"
 viewBox="0.00 0.00 717.00 414.00" xmlns="http://www.w3.org/2000/svg" xmlns:xlink="http://www.w3.org/1999/xlink">
<g id="graph0" class="graph" transform="scale(1 1) rotate(0) translate(4 409.96)">
<title>new_view</title>
<!-- Node1 -->
<g id="Node000001" class="node">
<title>Node1</title>
<g id="a_Node000001"><a xlink:title="Create and initialize View structure.">
<polygon fill="#999999" stroke="#666666" points="64.75,-231.38 0,-231.38 0,-210.63 64.75,-210.63 64.75,-231.38"/>
<text xml:space="preserve" text-anchor="middle" x="32.38" y="-217.88" font-family="Helvetica,sans-Serif" font-size="10.00">new_view</text>
</a>
</g>
</g>
<!-- Node2 -->
<g id="Node000002" class="node">
<title>Node2</title>
<g id="a_Node000002"><a xlink:href="../../d6/d82/a00293.html#a8f6c45ca4a7f6a41c4c88314e697565a" target="_top" xlink:title="Abnormal program termination.">
<polygon fill="white" stroke="#666666" points="415,-346.38 369,-346.38 369,-325.63 415,-325.63 415,-346.38"/>
<text xml:space="preserve" text-anchor="middle" x="392" y="-332.88" font-family="Helvetica,sans-Serif" font-size="10.00">abend</text>
</a>
</g>
</g>
<!-- Node1&#45;&gt;Node2 -->
<g id="edge1_Node000001_Node000002" class="edge">
<title>Node1&#45;&gt;Node2</title>
<g id="a_edge1_Node000001_Node000002"><a xlink:title=" ">
<path fill="none" stroke="#63b8ff" d="M40.11,-231.55C61.3,-263.59 130.34,-359.75 216.5,-394.01 255.01,-409.32 271.68,-410.39 309.75,-394.01 331.12,-384.82 326.74,-369.42 345.75,-356.01 349.7,-353.22 354.1,-350.7 358.55,-348.45"/>
<polygon fill="#63b8ff" stroke="#63b8ff" points="359.87,-351.7 367.51,-344.35 356.96,-345.33 359.87,-351.7"/>
</a>
</g>
</g>
<!-- Node6 -->
<g id="Node000006" class="node">
<title>Node6</title>
<g id="a_Node000006"><a xlink:href="../../d6/d82/a00293.html#a67659f8a701b74f4dec0d36227a10d1c" target="_top" xlink:title="Display an error message window or print to stderr.">
<polygon fill="white" stroke="#666666" points="180.5,-231.38 100.75,-231.38 100.75,-210.63 180.5,-210.63 180.5,-231.38"/>
<text xml:space="preserve" text-anchor="middle" x="140.62" y="-217.88" font-family="Helvetica,sans-Serif" font-size="10.00">display_error</text>
</a>
</g>
</g>
<!-- Node1&#45;&gt;Node6 -->
<g id="edge7_Node000001_Node000006" class="edge">
<title>Node1&#45;&gt;Node6</title>
<g id="a_edge7_Node000001_Node000006"><a xlink:title=" ">
<path fill="none" stroke="#63b8ff" d="M64.97,-221.01C72.53,-221.01 80.8,-221.01 88.99,-221.01"/>
<polygon fill="#63b8ff" stroke="#63b8ff" points="88.92,-224.51 98.92,-221.01 88.92,-217.51 88.92,-224.51"/>
</a>
</g>
</g>
<!-- Node12 -->
<g id="Node000012" class="node">
<title>Node12</title>
<g id="a_Node000012"><a xlink:href="../../d6/d7f/a00287.html#a63eb94756fb011a456a3dec900709cd8" target="_top" xlink:title="ssnprintf was designed to be a safer alternative to snprintf.">
<polygon fill="white" stroke="#666666" points="421.38,-40.38 362.62,-40.38 362.62,-19.63 421.38,-19.63 421.38,-40.38"/>
<text xml:space="preserve" text-anchor="middle" x="392" y="-26.88" font-family="Helvetica,sans-Serif" font-size="10.00">ssnprintf</text>
</a>
</g>
</g>
<!-- Node1&#45;&gt;Node12 -->
<g id="edge25_Node000001_Node000012" class="edge">
<title>Node1&#45;&gt;Node12</title>
<g id="a_edge25_Node000001_Node000012"><a xlink:title=" ">
<path fill="none" stroke="#63b8ff" d="M38.55,-210.14C56.71,-173.47 121.61,-54.17 216.5,-11.01 260.87,9.17 317.92,-3.28 354.48,-15.47"/>
<polygon fill="#63b8ff" stroke="#63b8ff" points="353.11,-18.7 363.7,-18.71 355.43,-12.09 353.11,-18.7"/>
</a>
</g>
</g>
<!-- Node3 -->
<g id="Node000003" class="node">
<title>Node3</title>
<g id="a_Node000003"><a xlink:href="../../d6/d82/a00293.html#afc0985a403e3eac0b2cd8f0fab500256" target="_top" xlink:title="Gracefully shut down NCurses and restore terminal settings.">
<polygon fill="white" stroke="#666666" points="563.75,-346.38 474.25,-346.38 474.25,-325.63 563.75,-325.63 563.75,-346.38"/>
<text xml:space="preserve" text-anchor="middle" x="519" y="-332.88" font-family="Helvetica,sans-Serif" font-size="10.00">destroy_curses</text>
</a>
</g>
</g>
<!-- Node2&#45;&gt;Node3 -->
<g id="edge2_Node000002_Node000003" class="edge">
<title>Node2&#45;&gt;Node3</title>
<g id="a_edge2_Node000002_Node000003"><a xlink:title=" ">
<path fill="none" stroke="#63b8ff" d="M415.35,-336.01C428.53,-336.01 445.84,-336.01 462.48,-336.01"/>
<polygon fill="#63b8ff" stroke="#63b8ff" points="462.32,-339.51 472.32,-336.01 462.32,-332.51 462.32,-339.51"/>
</a>
</g>
</g>
<!-- Node4 -->
<g id="Node000004" class="node">
<title>Node4</title>
<g id="a_Node000004"><a xlink:href="../../df/d95/a00299.html#ac5e3adb304b78910fc77761ef6a743f0" target="_top" xlink:title="restore_shell_tioctl() &#45; restore shell terminal settings">
<polygon fill="white" stroke="#666666" points="708.75,-374.38 599.75,-374.38 599.75,-353.63 708.75,-353.63 708.75,-374.38"/>
<text xml:space="preserve" text-anchor="middle" x="654.25" y="-360.88" font-family="Helvetica,sans-Serif" font-size="10.00">restore_shell_tioctl</text>
</a>
</g>
</g>
<!-- Node2&#45;&gt;Node4 -->
<g id="edge5_Node000002_Node000004" class="edge">
<title>Node2&#45;&gt;Node4</title>
<g id="a_edge5_Node000002_Node000004"><a xlink:title=" ">
<path fill="none" stroke="#63b8ff" d="M415.21,-342.34C431.43,-346.69 454.02,-352.16 474.25,-355.01 511.76,-360.29 554.07,-362.59 588.14,-363.54"/>
<polygon fill="#63b8ff" stroke="#63b8ff" points="587.76,-367.03 597.84,-363.78 587.93,-360.03 587.76,-367.03"/>
</a>
</g>
</g>
<!-- Node5 -->
<g id="Node000005" class="node">
<title>Node5</title>
<g id="a_Node000005"><a xlink:href="../../d3/d1a/a00251.html#a06c1eb6cf3649dc187115565409f91af" target="_top" xlink:title="Set signal handlers to default behavior.">
<polygon fill="white" stroke="#666666" points="694.88,-326.38 613.62,-326.38 613.62,-305.63 694.88,-305.63 694.88,-326.38"/>
<text xml:space="preserve" text-anchor="middle" x="654.25" y="-312.88" font-family="Helvetica,sans-Serif" font-size="10.00">sig_dfl_mode</text>
</a>
</g>
</g>
<!-- Node2&#45;&gt;Node5 -->
<g id="edge6_Node000002_Node000005" class="edge">
<title>Node2&#45;&gt;Node5</title>
<g id="a_edge6_Node000002_Node000005"><a xlink:title=" ">
<path fill="none" stroke="#63b8ff" d="M415.18,-329.4C431.38,-324.93 453.97,-319.41 474.25,-317.01 517.14,-311.94 566.21,-312.08 602.11,-313.27"/>
<polygon fill="#63b8ff" stroke="#63b8ff" points="601.64,-316.75 611.77,-313.63 601.9,-309.76 601.64,-316.75"/>
</a>
</g>
</g>
<!-- Node3&#45;&gt;Node4 -->
<g id="edge3_Node000003_Node000004" class="edge">
<title>Node3&#45;&gt;Node4</title>
<g id="a_edge3_Node000003_Node000004"><a xlink:title=" ">
<path fill="none" stroke="#63b8ff" d="M564,-345.26C572.62,-347.07 581.82,-349 590.91,-350.91"/>
<polygon fill="#63b8ff" stroke="#63b8ff" points="589.91,-354.28 600.42,-352.91 591.35,-347.43 589.91,-354.28"/>
</a>
</g>
</g>
<!-- Node3&#45;&gt;Node5 -->
<g id="edge4_Node000003_Node000005" class="edge">
<title>Node3&#45;&gt;Node5</title>
<g id="a_edge4_Node000003_Node000005"><a xlink:title=" ">
<path fill="none" stroke="#63b8ff" d="M564,-329.41C576.19,-327.58 589.52,-325.57 602.08,-323.69"/>
<polygon fill="#63b8ff" stroke="#63b8ff" points="602.48,-327.17 611.85,-322.22 601.44,-320.25 602.48,-327.17"/>
</a>
</g>
</g>
<!-- Node6&#45;&gt;Node2 -->
<g id="edge8_Node000006_Node000002" class="edge">
<title>Node6&#45;&gt;Node2</title>
<g id="a_edge8_Node000006_Node000002"><a xlink:title=" ">
<path fill="none" stroke="#63b8ff" d="M146.33,-231.79C156.04,-252.58 180.44,-297.93 216.5,-318.01 260.56,-342.54 320.62,-342.87 357.56,-340.04"/>
<polygon fill="#63b8ff" stroke="#63b8ff" points="357.54,-343.56 367.18,-339.17 356.91,-336.59 357.54,-343.56"/>
</a>
</g>
</g>
<!-- Node7 -->
<g id="Node000007" class="node">
<title>Node7</title>
<g id="a_Node000007"><a xlink:href="../../d6/d82/a00293.html#a645871e46277e31736bc36d0f3dce4bd" target="_top" xlink:title="construct the chyron string from the chyron structure">
<polygon fill="white" stroke="#666666" points="309.75,-116.38 216.5,-116.38 216.5,-95.63 309.75,-95.63 309.75,-116.38"/>
<text xml:space="preserve" text-anchor="middle" x="263.12" y="-102.88" font-family="Helvetica,sans-Serif" font-size="10.00">compile_chyron</text>
</a>
</g>
</g>
<!-- Node6&#45;&gt;Node7 -->
<g id="edge9_Node000006_Node000007" class="edge">
<title>Node6&#45;&gt;Node7</title>
<g id="a_edge9_Node000006_Node000007"><a xlink:title=" ">
<path fill="none" stroke="#63b8ff" d="M147.7,-210.19C158.98,-190.92 184.94,-150.42 216.5,-126.01 218.24,-124.66 220.09,-123.38 222.01,-122.17"/>
<polygon fill="#63b8ff" stroke="#63b8ff" points="223.56,-125.31 230.65,-117.43 220.2,-119.18 223.56,-125.31"/>
</a>
</g>
</g>
<!-- Node9 -->
<g id="Node000009" class="node">
<title>Node9</title>
<g id="a_Node000009"><a xlink:href="../../d6/d82/a00293.html#a3f3feb40fd703913c5c136331f627c91" target="_top" xlink:title="Destroy Chyron structure.">
<polygon fill="white" stroke="#666666" points="308.62,-155.38 217.62,-155.38 217.62,-134.63 308.62,-134.63 308.62,-155.38"/>
<text xml:space="preserve" text-anchor="middle" x="263.12" y="-141.88" font-family="Helvetica,sans-Serif" font-size="10.00">destroy_chyron</text>
</a>
</g>
</g>
<!-- Node6&#45;&gt;Node9 -->
<g id="edge11_Node000006_Node000009" class="edge">
<title>Node6&#45;&gt;Node9</title>
<g id="a_edge11_Node000006_Node000009"><a xlink:title=" ">
<path fill="none" stroke="#63b8ff" d="M155.91,-210.3C170.72,-199.39 194.72,-182.23 216.5,-169.01 220.92,-166.32 225.68,-163.63 230.38,-161.06"/>
<polygon fill="#63b8ff" stroke="#63b8ff" points="231.94,-164.2 239.13,-156.42 228.66,-158.01 231.94,-164.2"/>
</a>
</g>
</g>
<!-- Node10 -->
<g id="Node000010" class="node">
<title>Node10</title>
<g id="a_Node000010"><a xlink:href="../../d6/d82/a00293.html#ad37d5808ff30ae6894780425d865abae" target="_top" xlink:title="Create and initialize Chyron structure.">
<polygon fill="white" stroke="#666666" points="300.38,-270.38 225.88,-270.38 225.88,-249.63 300.38,-249.63 300.38,-270.38"/>
<text xml:space="preserve" text-anchor="middle" x="263.12" y="-256.88" font-family="Helvetica,sans-Serif" font-size="10.00">new_chyron</text>
</a>
</g>
</g>
<!-- Node6&#45;&gt;Node10 -->
<g id="edge12_Node000006_Node000010" class="edge">
<title>Node6&#45;&gt;Node10</title>
<g id="a_edge12_Node000006_Node000010"><a xlink:title=" ">
<path fill="none" stroke="#63b8ff" d="M175.19,-231.87C188.51,-236.18 204.01,-241.2 218.2,-245.79"/>
<polygon fill="#63b8ff" stroke="#63b8ff" points="216.71,-248.99 227.3,-248.74 218.86,-242.33 216.71,-248.99"/>
</a>
</g>
</g>
<!-- Node11 -->
<g id="Node000011" class="node">
<title>Node11</title>
<g id="a_Node000011"><a xlink:href="../../d6/d82/a00293.html#a208ce92c197fdd6d2b007987e534aa3b" target="_top" xlink:title="Set chyron key.">
<polygon fill="white" stroke="#666666" points="309,-40.38 217.25,-40.38 217.25,-19.63 309,-19.63 309,-40.38"/>
<text xml:space="preserve" text-anchor="middle" x="263.12" y="-26.88" font-family="Helvetica,sans-Serif" font-size="10.00">set_chyron_key</text>
</a>
</g>
</g>
<!-- Node6&#45;&gt;Node11 -->
<g id="edge14_Node000006_Node000011" class="edge">
<title>Node6&#45;&gt;Node11</title>
<g id="a_edge14_Node000006_Node000011"><a xlink:title=" ">
<path fill="none" stroke="#63b8ff" d="M143.86,-210.27C150.31,-181.55 171.47,-101.95 216.5,-54.01 219.01,-51.33 221.89,-48.9 224.95,-46.7"/>
<polygon fill="#63b8ff" stroke="#63b8ff" points="226.56,-49.82 233.22,-41.58 222.88,-43.87 226.56,-49.82"/>
</a>
</g>
</g>
<!-- Node6&#45;&gt;Node12 -->
<g id="edge16_Node000006_Node000012" class="edge">
<title>Node6&#45;&gt;Node12</title>
<g id="a_edge16_Node000006_Node000012"><a xlink:title=" ">
<path fill="none" stroke="#63b8ff" d="M144.67,-210.2C152.34,-184.87 174.93,-121.21 216.5,-87.01 237.27,-69.92 306.52,-50.58 351.29,-39.39"/>
<polygon fill="#63b8ff" stroke="#63b8ff" points="352.03,-42.82 360.9,-37.03 350.36,-36.02 352.03,-42.82"/>
</a>
</g>
</g>
<!-- Node13 -->
<g id="Node000013" class="node">
<title>Node13</title>
<g id="a_Node000013"><a xlink:href="../../d6/d7f/a00287.html#a0de2e40df9bd7efc8fd9afb8ad2257e6" target="_top" xlink:title="safer alternative to strncpy">
<polygon fill="white" stroke="#666666" points="425.88,-193.38 358.12,-193.38 358.12,-172.63 425.88,-172.63 425.88,-193.38"/>
<text xml:space="preserve" text-anchor="middle" x="392" y="-179.88" font-family="Helvetica,sans-Serif" font-size="10.00">strnz__cpy</text>
</a>
</g>
</g>
<!-- Node6&#45;&gt;Node13 -->
<g id="edge17_Node000006_Node000013" class="edge">
<title>Node6&#45;&gt;Node13</title>
<g id="a_edge17_Node000006_Node000013"><a xlink:title=" ">
<path fill="none" stroke="#63b8ff" d="M179.88,-210.21C191.56,-207.2 204.49,-204.18 216.5,-202.01 260.28,-194.11 310.88,-189.04 346.28,-186.14"/>
<polygon fill="#63b8ff" stroke="#63b8ff" points="346.47,-189.64 356.16,-185.36 345.92,-182.66 346.47,-189.64"/>
</a>
</g>
</g>
<!-- Node14 -->
<g id="Node000014" class="node">
<title>Node14</title>
<g id="a_Node000014"><a xlink:href="../../d6/d82/a00293.html#a9dd598e1d49c8764af1eec42c682623e" target="_top" xlink:title="Delete the current window and its associated box window.">
<polygon fill="white" stroke="#666666" points="289.88,-309.38 236.38,-309.38 236.38,-288.63 289.88,-288.63 289.88,-309.38"/>
<text xml:space="preserve" text-anchor="middle" x="263.12" y="-295.88" font-family="Helvetica,sans-Serif" font-size="10.00">win_del</text>
</a>
</g>
</g>
<!-- Node6&#45;&gt;Node14 -->
<g id="edge18_Node000006_Node000014" class="edge">
<title>Node6&#45;&gt;Node14</title>
<g id="a_edge18_Node000006_Node000014"><a xlink:title=" ">
<path fill="none" stroke="#63b8ff" d="M153.67,-231.86C167.93,-244.33 192.75,-264.9 216.5,-279.01 219.45,-280.76 222.59,-282.46 225.78,-284.06"/>
<polygon fill="#63b8ff" stroke="#63b8ff" points="224.09,-287.13 234.63,-288.23 227.07,-280.8 224.09,-287.13"/>
</a>
</g>
</g>
<!-- Node15 -->
<g id="Node000015" class="node">
<title>Node15</title>
<g id="a_Node000015"><a xlink:href="../../d6/d82/a00293.html#a435c7bff7ffedb8f51c6de9259e36f6c" target="_top" xlink:title="Create a new window with optional box and title.">
<polygon fill="white" stroke="#666666" points="292.5,-231.38 233.75,-231.38 233.75,-210.63 292.5,-210.63 292.5,-231.38"/>
<text xml:space="preserve" text-anchor="middle" x="263.12" y="-217.88" font-family="Helvetica,sans-Serif" font-size="10.00">win_new</text>
</a>
</g>
</g>
<!-- Node6&#45;&gt;Node15 -->
<g id="edge19_Node000006_Node000015" class="edge">
<title>Node6&#45;&gt;Node15</title>
<g id="a_edge19_Node000006_Node000015"><a xlink:title=" ">
<path fill="none" stroke="#63b8ff" d="M180.75,-221.01C194.04,-221.01 208.89,-221.01 222.24,-221.01"/>
<polygon fill="#63b8ff" stroke="#63b8ff" points="221.99,-224.51 231.99,-221.01 221.99,-217.51 221.99,-224.51"/>
</a>
</g>
</g>
<!-- Node17 -->
<g id="Node000017" class="node">
<title>Node17</title>
<g id="a_Node000017"><a xlink:href="../../d6/d82/a00293.html#acf4c709bccc4c965a5d61db978db31a3" target="_top" xlink:title="Wrapper for wgetch that handles signals and mouse events.">
<polygon fill="white" stroke="#666666" points="291.75,-385.38 234.5,-385.38 234.5,-364.63 291.75,-364.63 291.75,-385.38"/>
<text xml:space="preserve" text-anchor="middle" x="263.12" y="-371.88" font-family="Helvetica,sans-Serif" font-size="10.00">xwgetch</text>
</a>
</g>
</g>
<!-- Node6&#45;&gt;Node17 -->
<g id="edge22_Node000006_Node000017" class="edge">
<title>Node6&#45;&gt;Node17</title>
<g id="a_edge22_Node000006_Node000017"><a xlink:title=" ">
<path fill="none" stroke="#63b8ff" d="M147.53,-231.77C157.89,-255.01 181.6,-308.42 216.5,-342.01 223.57,-348.82 232.96,-354.2 241.38,-358.83"/>
<polygon fill="#63b8ff" stroke="#63b8ff" points="239.52,-361.8 249.96,-363.62 242.93,-355.69 239.52,-361.8"/>
</a>
</g>
</g>
<!-- Node8 -->
<g id="Node000008" class="node">
<title>Node8</title>
<g id="a_Node000008"><a xlink:href="../../d6/d7f/a00287.html#aa0145c044cfdde3a1c83323410a59f25" target="_top" xlink:title="safer alternative to strncat">
<polygon fill="white" stroke="#666666" points="424.75,-116.38 359.25,-116.38 359.25,-95.63 424.75,-95.63 424.75,-116.38"/>
<text xml:space="preserve" text-anchor="middle" x="392" y="-102.88" font-family="Helvetica,sans-Serif" font-size="10.00">strnz__cat</text>
</a>
</g>
</g>
<!-- Node7&#45;&gt;Node8 -->
<g id="edge10_Node000007_Node000008" class="edge">
<title>Node7&#45;&gt;Node8</title>
<g id="a_edge10_Node000007_Node000008"><a xlink:title=" ">
<path fill="none" stroke="#63b8ff" d="M309.93,-106.01C322.19,-106.01 335.41,-106.01 347.55,-106.01"/>
<polygon fill="#63b8ff" stroke="#63b8ff" points="347.27,-109.51 357.27,-106.01 347.27,-102.51 347.27,-109.51"/>
</a>
</g>
</g>
<!-- Node10&#45;&gt;Node2 -->
<g id="edge13_Node000010_Node000002" class="edge">
<title>Node10&#45;&gt;Node2</title>
<g id="a_edge13_Node000010_Node000002"><a xlink:title=" ">
<path fill="none" stroke="#63b8ff" d="M291.08,-270.81C297.32,-273.59 303.86,-276.73 309.75,-280.01 330.32,-291.47 352.23,-306.77 368.11,-318.48"/>
<polygon fill="#63b8ff" stroke="#63b8ff" points="365.83,-321.15 375.93,-324.34 370.02,-315.54 365.83,-321.15"/>
</a>
</g>
</g>
<!-- Node11&#45;&gt;Node12 -->
<g id="edge15_Node000011_Node000012" class="edge">
<title>Node11&#45;&gt;Node12</title>
<g id="a_edge15_Node000011_Node000012"><a xlink:title=" ">
<path fill="none" stroke="#63b8ff" d="M309.21,-30.01C322.88,-30.01 337.78,-30.01 351.08,-30.01"/>
<polygon fill="#63b8ff" stroke="#63b8ff" points="350.77,-33.51 360.77,-30.01 350.77,-26.51 350.77,-33.51"/>
</a>
</g>
</g>
<!-- Node15&#45;&gt;Node13 -->
<g id="edge21_Node000015_Node000013" class="edge">
<title>Node15&#45;&gt;Node13</title>
<g id="a_edge21_Node000015_Node000013"><a xlink:title=" ">
<path fill="none" stroke="#63b8ff" d="M292.91,-212.39C308.9,-207.6 329.12,-201.54 347.04,-196.18"/>
<polygon fill="#63b8ff" stroke="#63b8ff" points="347.82,-199.6 356.39,-193.37 345.81,-192.89 347.82,-199.6"/>
</a>
</g>
</g>
<!-- Node16 -->
<g id="Node000016" class="node">
<title>Node16</title>
<g id="a_Node000016"><a xlink:href="../../d6/d82/a00293.html#ac9adcf7339be4a05ab1a7350c236b8a5" target="_top" xlink:title="Draw a box around the specified window.">
<polygon fill="white" stroke="#666666" points="411.62,-232.38 372.38,-232.38 372.38,-211.63 411.62,-211.63 411.62,-232.38"/>
<text xml:space="preserve" text-anchor="middle" x="392" y="-218.88" font-family="Helvetica,sans-Serif" font-size="10.00">cbox</text>
</a>
</g>
</g>
<!-- Node15&#45;&gt;Node16 -->
<g id="edge20_Node000015_Node000016" class="edge">
<title>Node15&#45;&gt;Node16</title>
<g id="a_edge20_Node000015_Node000016"><a xlink:title=" ">
<path fill="none" stroke="#63b8ff" d="M292.91,-221.24C313.21,-221.4 340.32,-221.61 360.9,-221.77"/>
<polygon fill="#63b8ff" stroke="#63b8ff" points="360.61,-225.27 370.64,-221.85 360.67,-218.27 360.61,-225.27"/>
</a>
</g>
</g>
<!-- Node17&#45;&gt;Node6 -->
<g id="edge23_Node000017_Node000006" class="edge">
<title>Node17&#45;&gt;Node6</title>
<g id="a_edge23_Node000017_Node000006"><a xlink:title=" ">
<path fill="none" stroke="#63b8ff" d="M234.4,-372.34C228.05,-369.18 221.66,-364.97 216.5,-360.01 181.38,-326.21 157.59,-272.35 147.34,-242.31"/>
<polygon fill="#63b8ff" stroke="#63b8ff" points="150.79,-241.62 144.43,-233.15 144.12,-243.74 150.79,-241.62"/>
</a>
</g>
</g>
<!-- Node18 -->
<g id="Node000018" class="node">
<title>Node18</title>
<g id="a_Node000018"><a xlink:href="../../d6/d82/a00293.html#a4298f891699300bfc4e6e56fd2a8d574" target="_top" xlink:title="Get keycode from chyron.">
<polygon fill="white" stroke="#666666" points="438.25,-385.38 345.75,-385.38 345.75,-364.63 438.25,-364.63 438.25,-385.38"/>
<text xml:space="preserve" text-anchor="middle" x="392" y="-371.88" font-family="Helvetica,sans-Serif" font-size="10.00">get_chyron_key</text>
</a>
</g>
</g>
<!-- Node17&#45;&gt;Node18 -->
<g id="edge24_Node000017_Node000018" class="edge">
<title>Node17&#45;&gt;Node18</title>
<g id="a_edge24_Node000017_Node000018"><a xlink:title=" ">
<path fill="none" stroke="#63b8ff" d="M291.97,-375.01C304.29,-375.01 319.25,-375.01 333.78,-375.01"/>
<polygon fill="#63b8ff" stroke="#63b8ff" points="333.76,-378.51 343.76,-375.01 333.76,-371.51 333.76,-378.51"/>
</a>
</g>
</g>
</g>
</svg>
