<?xml version="1.0" encoding="UTF-8" standalone="no"?>
<!DOCTYPE svg PUBLIC "-//W3C//DTD SVG 1.1//EN"
 "http://www.w3.org/Graphics/SVG/1.1/DTD/svg11.dtd">
<!-- Generated by graphviz version 14.1.2 (0)
 -->
<!-- Title: parse_config Pages: 1 -->
<svg width="337pt" height="146pt"
 viewBox="0.00 0.00 337.00 146.00" xmlns="http://www.w3.org/2000/svg" xmlns:xlink="http://www.w3.org/1999/xlink">

<svg id="main" version="1.1" xmlns="http://www.w3.org/2000/svg" xmlns:xlink="http://www.w3.org/1999/xlink" xml:space="preserve">

<style type="text/css"><![CDATA[
.node, .edge {opacity: 0.7;}
.node.selected, .edge.selected {opacity: 1;}
.edge:hover path { stroke: red; }
.edge:hover polygon { stroke: red; fill: red; }
]]></style>
<script type="application/ecmascript" xlink:href="../../svg.min.js"/>
<svg id="graph" class="graph">
<g id="graph0" class="graph" transform="scale(1 1) rotate(0) translate(4 141.75)">
<title>parse_config</title>
<!-- Node1 -->
<g id="Node000001" class="node">
<title>Node1</title>
<g id="a_Node000001"><a xlink:title="parse the configuration file specified in init&#45;&gt;minitrc and set Init struct values accordingly">
<polygon fill="#999999" stroke="#666666" points="78.25,-78.75 0,-78.75 0,-58 78.25,-58 78.25,-78.75"/>
<text xml:space="preserve" text-anchor="middle" x="39.12" y="-65.25" font-family="Helvetica,sans-Serif" font-size="10.00">parse_config</text>
</a>
</g>
</g>
<!-- Node2 -->
<g id="Node000002" class="node">
<title>Node2</title>
<g id="a_Node000002"><a xlink:href="../../d6/d82/a00293.html#a3d16b5f29cd6e5d2b5b9a6e577dba0e7" target="_top" xlink:title="Get color index from color name.">
<polygon fill="white" stroke="#666666" points="213.5,-137.75 117.25,-137.75 117.25,-117 213.5,-117 213.5,-137.75"/>
<text xml:space="preserve" text-anchor="middle" x="165.38" y="-124.25" font-family="Helvetica,sans-Serif" font-size="10.00">clr_name_to_idx</text>
</a>
</g>
</g>
<!-- Node1&#45;&gt;Node2 -->
<g id="edge1_Node000001_Node000002" class="edge">
<title>Node1&#45;&gt;Node2</title>
<g id="a_edge1_Node000001_Node000002"><a xlink:title=" ">
<path fill="none" stroke="#63b8ff" d="M59.36,-79.2C74.16,-87.36 95.23,-98.61 114.25,-107.38 117.8,-109.01 121.53,-110.65 125.28,-112.24"/>
<polygon fill="#63b8ff" stroke="#63b8ff" points="123.81,-115.42 134.39,-115.99 126.48,-108.95 123.81,-115.42"/>
</a>
</g>
</g>
<!-- Node4 -->
<g id="Node000004" class="node">
<title>Node4</title>
<g id="a_Node000004"><a xlink:href="../../db/dc3/a00284.html#a182e8ea82f7f61825c2258be419212da" target="_top" xlink:title="Convert prompt type string to integer constant.">
<polygon fill="white" stroke="#666666" points="216.5,-98.75 114.25,-98.75 114.25,-78 216.5,-78 216.5,-98.75"/>
<text xml:space="preserve" text-anchor="middle" x="165.38" y="-85.25" font-family="Helvetica,sans-Serif" font-size="10.00">prompt_str_to_int</text>
</a>
</g>
</g>
<!-- Node1&#45;&gt;Node4 -->
<g id="edge3_Node000001_Node000004" class="edge">
<title>Node1&#45;&gt;Node4</title>
<g id="a_edge3_Node000001_Node000004"><a xlink:title=" ">
<path fill="none" stroke="#63b8ff" d="M78.42,-74.54C86.16,-75.79 94.49,-77.13 102.81,-78.46"/>
<polygon fill="#63b8ff" stroke="#63b8ff" points="102.16,-81.9 112.59,-80.04 103.27,-74.99 102.16,-81.9"/>
</a>
</g>
</g>
<!-- Node5 -->
<g id="Node000005" class="node">
<title>Node5</title>
<g id="a_Node000005"><a xlink:href="../../d6/d7f/a00287.html#a4db64c5f94e5859f353740840d85beb5" target="_top" xlink:title="converts string to double">
<polygon fill="white" stroke="#666666" points="206.38,-59.75 124.38,-59.75 124.38,-39 206.38,-39 206.38,-59.75"/>
<text xml:space="preserve" text-anchor="middle" x="165.38" y="-46.25" font-family="Helvetica,sans-Serif" font-size="10.00">str_to_double</text>
</a>
</g>
</g>
<!-- Node1&#45;&gt;Node5 -->
<g id="edge5_Node000001_Node000005" class="edge">
<title>Node1&#45;&gt;Node5</title>
<g id="a_edge5_Node000001_Node000005"><a xlink:title=" ">
<path fill="none" stroke="#63b8ff" d="M78.42,-62.52C89.33,-60.85 101.39,-59.01 112.95,-57.24"/>
<polygon fill="#63b8ff" stroke="#63b8ff" points="113.42,-60.71 122.78,-55.74 112.36,-53.79 113.42,-60.71"/>
</a>
</g>
</g>
<!-- Node6 -->
<g id="Node000006" class="node">
<title>Node6</title>
<g id="a_Node000006"><a xlink:href="../../d6/d7f/a00287.html#a0de2e40df9bd7efc8fd9afb8ad2257e6" target="_top" xlink:title="safer alternative to strncpy">
<polygon fill="white" stroke="#666666" points="199.25,-20.75 131.5,-20.75 131.5,0 199.25,0 199.25,-20.75"/>
<text xml:space="preserve" text-anchor="middle" x="165.38" y="-7.25" font-family="Helvetica,sans-Serif" font-size="10.00">strnz__cpy</text>
</a>
</g>
</g>
<!-- Node1&#45;&gt;Node6 -->
<g id="edge6_Node000001_Node000006" class="edge">
<title>Node1&#45;&gt;Node6</title>
<g id="a_edge6_Node000001_Node000006"><a xlink:title=" ">
<path fill="none" stroke="#63b8ff" d="M60.01,-57.54C74.79,-49.64 95.56,-38.87 114.25,-30.38 117.81,-28.76 121.55,-27.13 125.3,-25.55"/>
<polygon fill="#63b8ff" stroke="#63b8ff" points="126.49,-28.84 134.41,-21.81 123.83,-22.37 126.49,-28.84"/>
</a>
</g>
</g>
<!-- Node3 -->
<g id="Node000003" class="node">
<title>Node3</title>
<g id="a_Node000003"><a xlink:href="../../d6/d7f/a00287.html#a4fb9a5e513fb39d3dd8eadef0f2cd44b" target="_top" xlink:title="Converts a string to lowercase.">
<polygon fill="white" stroke="#666666" points="328.5,-117.75 252.5,-117.75 252.5,-97 328.5,-97 328.5,-117.75"/>
<text xml:space="preserve" text-anchor="middle" x="290.5" y="-104.25" font-family="Helvetica,sans-Serif" font-size="10.00">str_to_lower</text>
</a>
</g>
</g>
<!-- Node2&#45;&gt;Node3 -->
<g id="edge2_Node000002_Node000003" class="edge">
<title>Node2&#45;&gt;Node3</title>
<g id="a_edge2_Node000002_Node000003"><a xlink:title=" ">
<path fill="none" stroke="#63b8ff" d="M213.98,-119.64C222.92,-118.19 232.28,-116.67 241.25,-115.21"/>
<polygon fill="#63b8ff" stroke="#63b8ff" points="241.53,-118.71 250.84,-113.66 240.41,-111.8 241.53,-118.71"/>
</a>
</g>
</g>
<!-- Node4&#45;&gt;Node3 -->
<g id="edge4_Node000004_Node000003" class="edge">
<title>Node4&#45;&gt;Node3</title>
<g id="a_edge4_Node000004_Node000003"><a xlink:title=" ">
<path fill="none" stroke="#63b8ff" d="M216.81,-96.16C224.75,-97.38 232.95,-98.65 240.85,-99.87"/>
<polygon fill="#63b8ff" stroke="#63b8ff" points="240.24,-103.31 250.65,-101.38 241.3,-96.4 240.24,-103.31"/>
</a>
</g>
</g>
</g>
</svg>
</svg>

<style type='text/css'>
<![CDATA[
[data-mouse-over-selected='false'] { opacity: 0.7; }
[data-mouse-over-selected='true']  { opacity: 1.0; }
]]>
</style>
<script type="application/ecmascript"><![CDATA[
document.addEventListener('DOMContentLoaded', (event) => {
  highlightEdges();
  highlightAdjacentNodes();
});
]]></script>
</svg>
