<?xml version="1.0" encoding="UTF-8" standalone="no"?>
<!DOCTYPE svg PUBLIC "-//W3C//DTD SVG 1.1//EN"
 "http://www.w3.org/Graphics/SVG/1.1/DTD/svg11.dtd">
<!-- Generated by graphviz version 14.1.2 (0)
 -->
<!-- Title: str_to_double Pages: 1 -->
<svg width="1505pt" height="297pt"
 viewBox="0.00 0.00 1505.00 297.00" xmlns="http://www.w3.org/2000/svg" xmlns:xlink="http://www.w3.org/1999/xlink">
<g id="graph0" class="graph" transform="scale(1 1) rotate(0) translate(4 292.75)">
<title>str_to_double</title>
<!-- Node1 -->
<g id="Node000001" class="node">
<title>Node1</title>
<g id="a_Node000001"><a xlink:title="converts string to double">
<polygon fill="#999999" stroke="#666666" points="1497.25,-212.75 1415.25,-212.75 1415.25,-192 1497.25,-192 1497.25,-212.75"/>
<text xml:space="preserve" text-anchor="middle" x="1456.25" y="-199.25" font-family="Helvetica,sans-Serif" font-size="10.00">str_to_double</text>
</a>
</g>
</g>
<!-- Node2 -->
<g id="Node000002" class="node">
<title>Node2</title>
<g id="a_Node000002"><a xlink:href="../../d2/d04/a00281.html#a5836f1ea8f972e3ca12e2772dc76fb32" target="_top" xlink:title="parse the configuration file specified in init&#45;&gt;minitrc and set Init struct values accordingly">
<polygon fill="white" stroke="#666666" points="1373.25,-260.75 1295,-260.75 1295,-240 1373.25,-240 1373.25,-260.75"/>
<text xml:space="preserve" text-anchor="middle" x="1334.12" y="-247.25" font-family="Helvetica,sans-Serif" font-size="10.00">parse_config</text>
</a>
</g>
</g>
<!-- Node1&#45;&gt;Node2 -->
<g id="edge1_Node000001_Node000002" class="edge">
<title>Node1&#45;&gt;Node2</title>
<g id="a_edge1_Node000001_Node000002"><a xlink:title=" ">
<path fill="none" stroke="#63b8ff" d="M1417.8,-217.34C1399.72,-224.56 1378.44,-233.07 1361.99,-239.64"/>
<polygon fill="#63b8ff" stroke="#63b8ff" points="1418.9,-220.67 1426.89,-213.71 1416.3,-214.17 1418.9,-220.67"/>
</a>
</g>
</g>
<!-- Node5 -->
<g id="Node000005" class="node">
<title>Node5</title>
<g id="a_Node000005"><a xlink:href="../../d2/d04/a00281.html#a11b56c5001e3ca95f4d0a28903b29609" target="_top" xlink:title="Parse command&#45;line options and set Init struct values accordingly.">
<polygon fill="white" stroke="#666666" points="1379.25,-193.75 1289,-193.75 1289,-173 1379.25,-173 1379.25,-193.75"/>
<text xml:space="preserve" text-anchor="middle" x="1334.12" y="-180.25" font-family="Helvetica,sans-Serif" font-size="10.00">parse_opt_args</text>
</a>
</g>
</g>
<!-- Node1&#45;&gt;Node5 -->
<g id="edge4_Node000001_Node000005" class="edge">
<title>Node1&#45;&gt;Node5</title>
<g id="a_edge4_Node000001_Node000005"><a xlink:title=" ">
<path fill="none" stroke="#63b8ff" d="M1403.78,-194.23C1395.76,-192.97 1387.54,-191.67 1379.69,-190.42"/>
<polygon fill="#63b8ff" stroke="#63b8ff" points="1403,-197.65 1413.42,-195.76 1404.09,-190.74 1403,-197.65"/>
</a>
</g>
</g>
<!-- Node3 -->
<g id="Node000003" class="node">
<title>Node3</title>
<g id="a_Node000003"><a xlink:href="../../d2/d04/a00281.html#accd65939c0ce6f0d940c5cf795a1e8fa" target="_top" xlink:title="Main initialization function for MAPP &#45; Menu Application.">
<polygon fill="white" stroke="#666666" points="1253,-288.75 1143.25,-288.75 1143.25,-268 1253,-268 1253,-288.75"/>
<text xml:space="preserve" text-anchor="middle" x="1198.12" y="-275.25" font-family="Helvetica,sans-Serif" font-size="10.00">mapp_initialization</text>
</a>
</g>
</g>
<!-- Node2&#45;&gt;Node3 -->
<g id="edge2_Node000002_Node000003" class="edge">
<title>Node2&#45;&gt;Node3</title>
<g id="a_edge2_Node000002_Node000003"><a xlink:title=" ">
<path fill="none" stroke="#63b8ff" d="M1283.52,-260.74C1272.92,-262.95 1261.7,-265.3 1251.02,-267.53"/>
<polygon fill="#63b8ff" stroke="#63b8ff" points="1284.17,-264.18 1293.24,-258.71 1282.74,-257.33 1284.17,-264.18"/>
</a>
</g>
</g>
<!-- Node4 -->
<g id="Node000004" class="node">
<title>Node4</title>
<g id="a_Node000004"><a xlink:href="../../dc/d5d/a00278.html#a3c04138a5bfe5d72780bb7e82a18e627" target="_top" xlink:title=" ">
<polygon fill="white" stroke="#666666" points="1068.62,-288.75 1027.88,-288.75 1027.88,-268 1068.62,-268 1068.62,-288.75"/>
<text xml:space="preserve" text-anchor="middle" x="1048.25" y="-275.25" font-family="Helvetica,sans-Serif" font-size="10.00">main</text>
</a>
</g>
</g>
<!-- Node3&#45;&gt;Node4 -->
<g id="edge3_Node000003_Node000004" class="edge">
<title>Node3&#45;&gt;Node4</title>
<g id="a_edge3_Node000003_Node000004"><a xlink:title=" ">
<path fill="none" stroke="#63b8ff" d="M1131.5,-278.38C1108.75,-278.38 1084.94,-278.38 1068.82,-278.38"/>
<polygon fill="#63b8ff" stroke="#63b8ff" points="1131.39,-281.88 1141.39,-278.38 1131.39,-274.88 1131.39,-281.88"/>
</a>
</g>
</g>
<!-- Node5&#45;&gt;Node3 -->
<g id="edge22_Node000005_Node000003" class="edge">
<title>Node5&#45;&gt;Node3</title>
<g id="a_edge22_Node000005_Node000003"><a xlink:title=" ">
<path fill="none" stroke="#63b8ff" d="M1315.4,-201.99C1299.98,-217.45 1276.47,-239.26 1253,-254.38 1245.17,-259.42 1236.09,-263.91 1227.65,-267.6"/>
<polygon fill="#63b8ff" stroke="#63b8ff" points="1317.53,-204.82 1322.03,-195.23 1312.53,-199.92 1317.53,-204.82"/>
</a>
</g>
</g>
<!-- Node6 -->
<g id="Node000006" class="node">
<title>Node6</title>
<g id="a_Node000006"><a xlink:href="../../d5/ddf/a00224.html#aeebc4c0b94ca97d753e10a0cd1798730" target="_top" xlink:title="Displays the help screen for the pick interface using mview.">
<polygon fill="white" stroke="#666666" points="772,-20.75 669,-20.75 669,0 772,0 772,-20.75"/>
<text xml:space="preserve" text-anchor="middle" x="720.5" y="-7.25" font-family="Helvetica,sans-Serif" font-size="10.00">display_pick_help</text>
</a>
</g>
</g>
<!-- Node5&#45;&gt;Node6 -->
<g id="edge5_Node000005_Node000006" class="edge">
<title>Node5&#45;&gt;Node6</title>
<g id="a_edge5_Node000005_Node000006"><a xlink:title=" ">
<path fill="none" stroke="#63b8ff" d="M1323.96,-162.61C1311.56,-136.89 1287.01,-93.54 1253,-69.38 1176.25,-14.84 1143.4,-11.38 1049.25,-11.38 1049.25,-11.38 1049.25,-11.38 922.12,-11.38 871.1,-11.38 812.77,-11.05 772.21,-10.77"/>
<polygon fill="#63b8ff" stroke="#63b8ff" points="1320.65,-163.77 1328.03,-171.37 1327,-160.83 1320.65,-163.77"/>
</a>
</g>
</g>
<!-- Node11 -->
<g id="Node000011" class="node">
<title>Node11</title>
<g id="a_Node000011"><a xlink:href="../../df/da9/a00263.html#aa5d0e30e7036b72b51c843d0a7e486a1" target="_top" xlink:title="Processes user input for the menu system.">
<polygon fill="white" stroke="#666666" points="317.25,-116.75 194.75,-116.75 194.75,-96 317.25,-96 317.25,-116.75"/>
<text xml:space="preserve" text-anchor="middle" x="256" y="-103.25" font-family="Helvetica,sans-Serif" font-size="10.00">menu_cmd_processor</text>
</a>
</g>
</g>
<!-- Node5&#45;&gt;Node11 -->
<g id="edge23_Node000005_Node000011" class="edge">
<title>Node5&#45;&gt;Node11</title>
<g id="a_edge23_Node000005_Node000011"><a xlink:title=" ">
<path fill="none" stroke="#63b8ff" d="M1293.06,-197.79C1280.37,-201.97 1266.21,-206.25 1253,-209.38 1163.86,-230.47 1140.85,-240.38 1049.25,-240.38 1049.25,-240.38 1049.25,-240.38 490.62,-240.38 391.5,-240.38 296.33,-148.48 266.55,-116.89"/>
<polygon fill="#63b8ff" stroke="#63b8ff" points="1293.98,-201.17 1302.34,-194.65 1291.74,-194.54 1293.98,-201.17"/>
</a>
</g>
</g>
<!-- Node14 -->
<g id="Node000014" class="node">
<title>Node14</title>
<g id="a_Node000014"><a xlink:href="../../d2/dc8/a00242.html#a2ffea5674e85f124a70e19f745a66583" target="_top" xlink:title="use form to enter a file specification">
<polygon fill="white" stroke="#666666" points="536.75,-212.75 446.5,-212.75 446.5,-192 536.75,-192 536.75,-212.75"/>
<text xml:space="preserve" text-anchor="middle" x="491.62" y="-199.25" font-family="Helvetica,sans-Serif" font-size="10.00">enter_file_spec</text>
</a>
</g>
</g>
<!-- Node5&#45;&gt;Node14 -->
<g id="edge14_Node000005_Node000014" class="edge">
<title>Node5&#45;&gt;Node14</title>
<g id="a_edge14_Node000005_Node000014"><a xlink:title=" ">
<path fill="none" stroke="#63b8ff" d="M1277.62,-189.29C1220.45,-194.87 1128.73,-202.38 1049.25,-202.38 1049.25,-202.38 1049.25,-202.38 719.5,-202.38 656.09,-202.38 582.7,-202.38 536.97,-202.38"/>
<polygon fill="#63b8ff" stroke="#63b8ff" points="1277.82,-192.79 1287.43,-188.32 1277.13,-185.82 1277.82,-192.79"/>
</a>
</g>
</g>
<!-- Node15 -->
<g id="Node000015" class="node">
<title>Node15</title>
<g id="a_Node000015"><a xlink:href="../../d5/ddf/a00224.html#af7fcbb1c8b67a4d11c86ba7209f397c2" target="_top" xlink:title="Executes specified command with selected objects as arguments.">
<polygon fill="white" stroke="#666666" points="760.38,-135.75 680.62,-135.75 680.62,-115 760.38,-115 760.38,-135.75"/>
<text xml:space="preserve" text-anchor="middle" x="720.5" y="-122.25" font-family="Helvetica,sans-Serif" font-size="10.00">exec_objects</text>
</a>
</g>
</g>
<!-- Node5&#45;&gt;Node15 -->
<g id="edge15_Node000005_Node000015" class="edge">
<title>Node5&#45;&gt;Node15</title>
<g id="a_edge15_Node000005_Node000015"><a xlink:title=" ">
<path fill="none" stroke="#63b8ff" d="M1290,-169.17C1234.83,-152.29 1136.02,-126.38 1049.25,-126.38 1049.25,-126.38 1049.25,-126.38 922.12,-126.38 866.05,-126.38 801.15,-125.98 760.71,-125.69"/>
<polygon fill="#63b8ff" stroke="#63b8ff" points="1288.73,-172.44 1299.32,-172.07 1290.81,-165.76 1288.73,-172.44"/>
</a>
</g>
</g>
<!-- Node16 -->
<g id="Node000016" class="node">
<title>Node16</title>
<g id="a_Node000016"><a xlink:href="../../d6/de1/a00233.html#ada302551bf41bf8ed6132fd34328a47e" target="_top" xlink:title="Form main processing loop.">
<polygon fill="white" stroke="#666666" points="759.25,-174.75 681.75,-174.75 681.75,-154 759.25,-154 759.25,-174.75"/>
<text xml:space="preserve" text-anchor="middle" x="720.5" y="-161.25" font-family="Helvetica,sans-Serif" font-size="10.00">form_engine</text>
</a>
</g>
</g>
<!-- Node5&#45;&gt;Node16 -->
<g id="edge17_Node000005_Node000016" class="edge">
<title>Node5&#45;&gt;Node16</title>
<g id="a_edge17_Node000005_Node000016"><a xlink:title=" ">
<path fill="none" stroke="#63b8ff" d="M1277.62,-177.46C1220.45,-171.88 1128.73,-164.38 1049.25,-164.38 1049.25,-164.38 1049.25,-164.38 922.12,-164.38 865.53,-164.38 799.94,-164.38 759.59,-164.38"/>
<polygon fill="#63b8ff" stroke="#63b8ff" points="1277.13,-180.93 1287.43,-178.43 1277.82,-173.96 1277.13,-180.93"/>
</a>
</g>
</g>
<!-- Node19 -->
<g id="Node000019" class="node">
<title>Node19</title>
<g id="a_Node000019"><a xlink:href="../../d2/dc8/a00242.html#ad997ba9f8591568c77291fb1b44601b2" target="_top" xlink:title="Display View Help File.">
<polygon fill="white" stroke="#666666" points="1251.12,-98.75 1145.12,-98.75 1145.12,-78 1251.12,-78 1251.12,-98.75"/>
<text xml:space="preserve" text-anchor="middle" x="1198.12" y="-85.25" font-family="Helvetica,sans-Serif" font-size="10.00">view_display_help</text>
</a>
</g>
</g>
<!-- Node5&#45;&gt;Node19 -->
<g id="edge24_Node000005_Node000019" class="edge">
<title>Node5&#45;&gt;Node19</title>
<g id="a_edge24_Node000005_Node000019"><a xlink:title=" ">
<path fill="none" stroke="#63b8ff" d="M1315.4,-164.76C1299.98,-149.3 1276.47,-127.49 1253,-112.38 1245.17,-107.33 1236.09,-102.84 1227.65,-99.15"/>
<polygon fill="#63b8ff" stroke="#63b8ff" points="1312.53,-166.83 1322.03,-171.52 1317.53,-161.93 1312.53,-166.83"/>
</a>
</g>
</g>
<!-- Node7 -->
<g id="Node000007" class="node">
<title>Node7</title>
<g id="a_Node000007"><a xlink:href="../../d5/ddf/a00224.html#abb0969a6d1c7e78be46c3b325754c802" target="_top" xlink:title="Main loop to handle user input and interactions for pick interface.">
<polygon fill="white" stroke="#666666" points="625.5,-39.75 580.25,-39.75 580.25,-19 625.5,-19 625.5,-39.75"/>
<text xml:space="preserve" text-anchor="middle" x="602.88" y="-26.25" font-family="Helvetica,sans-Serif" font-size="10.00">picker</text>
</a>
</g>
</g>
<!-- Node6&#45;&gt;Node7 -->
<g id="edge6_Node000006_Node000007" class="edge">
<title>Node6&#45;&gt;Node7</title>
<g id="a_edge6_Node000006_Node000007"><a xlink:title=" ">
<path fill="none" stroke="#63b8ff" d="M657.44,-20.57C646.11,-22.44 634.99,-24.26 625.85,-25.76"/>
<polygon fill="#63b8ff" stroke="#63b8ff" points="657.99,-24.03 667.29,-18.95 656.86,-17.12 657.99,-24.03"/>
</a>
</g>
</g>
<!-- Node8 -->
<g id="Node000008" class="node">
<title>Node8</title>
<g id="a_Node000008"><a xlink:href="../../d5/ddf/a00224.html#ab97dcab41017c5132f52b682437a151e" target="_top" xlink:title="Initializes pick interface, calculates window size and position, and enters picker loop.">
<polygon fill="white" stroke="#666666" points="528.88,-59.75 454.38,-59.75 454.38,-39 528.88,-39 528.88,-59.75"/>
<text xml:space="preserve" text-anchor="middle" x="491.62" y="-46.25" font-family="Helvetica,sans-Serif" font-size="10.00">pick_engine</text>
</a>
</g>
</g>
<!-- Node7&#45;&gt;Node8 -->
<g id="edge7_Node000007_Node000008" class="edge">
<title>Node7&#45;&gt;Node8</title>
<g id="a_edge7_Node000007_Node000008"><a xlink:title=" ">
<path fill="none" stroke="#63b8ff" d="M568.52,-35.48C556.13,-37.75 542,-40.34 529.33,-42.66"/>
<polygon fill="#63b8ff" stroke="#63b8ff" points="569.07,-38.94 578.28,-33.69 567.81,-32.05 569.07,-38.94"/>
</a>
</g>
</g>
<!-- Node9 -->
<g id="Node000009" class="node">
<title>Node9</title>
<g id="a_Node000009"><a xlink:href="../../d5/ddf/a00224.html#a1b2ee87543245e612c1710ea58930a17" target="_top" xlink:title="Initializes pick structure and opens pick input file or pipe.">
<polygon fill="white" stroke="#666666" points="410.5,-59.75 353.25,-59.75 353.25,-39 410.5,-39 410.5,-59.75"/>
<text xml:space="preserve" text-anchor="middle" x="381.88" y="-46.25" font-family="Helvetica,sans-Serif" font-size="10.00">init_pick</text>
</a>
</g>
</g>
<!-- Node8&#45;&gt;Node9 -->
<g id="edge8_Node000008_Node000009" class="edge">
<title>Node8&#45;&gt;Node9</title>
<g id="a_edge8_Node000008_Node000009"><a xlink:title=" ">
<path fill="none" stroke="#63b8ff" d="M442.91,-49.38C431.93,-49.38 420.61,-49.38 410.8,-49.38"/>
<polygon fill="#63b8ff" stroke="#63b8ff" points="442.63,-52.88 452.63,-49.38 442.63,-45.88 442.63,-52.88"/>
</a>
</g>
</g>
<!-- Node10 -->
<g id="Node000010" class="node">
<title>Node10</title>
<g id="a_Node000010"><a xlink:href="../../d9/d39/a00257.html#a3c04138a5bfe5d72780bb7e82a18e627" target="_top" xlink:title=" ">
<polygon fill="white" stroke="#666666" points="276.38,-59.75 235.62,-59.75 235.62,-39 276.38,-39 276.38,-59.75"/>
<text xml:space="preserve" text-anchor="middle" x="256" y="-46.25" font-family="Helvetica,sans-Serif" font-size="10.00">main</text>
</a>
</g>
</g>
<!-- Node9&#45;&gt;Node10 -->
<g id="edge9_Node000009_Node000010" class="edge">
<title>Node9&#45;&gt;Node10</title>
<g id="a_edge9_Node000009_Node000010"><a xlink:title=" ">
<path fill="none" stroke="#63b8ff" d="M341.27,-49.38C319.64,-49.38 293.83,-49.38 276.52,-49.38"/>
<polygon fill="#63b8ff" stroke="#63b8ff" points="341.25,-52.88 351.25,-49.38 341.25,-45.88 341.25,-52.88"/>
</a>
</g>
</g>
<!-- Node9&#45;&gt;Node11 -->
<g id="edge10_Node000009_Node000011" class="edge">
<title>Node9&#45;&gt;Node11</title>
<g id="a_edge10_Node000009_Node000011"><a xlink:title=" ">
<path fill="none" stroke="#63b8ff" d="M346.83,-65.04C325.76,-74.73 299.25,-86.93 280.5,-95.56"/>
<polygon fill="#63b8ff" stroke="#63b8ff" points="348.29,-68.22 355.91,-60.86 345.36,-61.86 348.29,-68.22"/>
</a>
</g>
</g>
<!-- Node12 -->
<g id="Node000012" class="node">
<title>Node12</title>
<g id="a_Node000012"><a xlink:href="../../df/da9/a00263.html#a7d7973d7aac92759dcc86ec52bb038f4" target="_top" xlink:title="The main loop of the menu system.">
<polygon fill="white" stroke="#666666" points="158.75,-116.75 76.75,-116.75 76.75,-96 158.75,-96 158.75,-116.75"/>
<text xml:space="preserve" text-anchor="middle" x="117.75" y="-103.25" font-family="Helvetica,sans-Serif" font-size="10.00">menu_engine</text>
</a>
</g>
</g>
<!-- Node11&#45;&gt;Node12 -->
<g id="edge11_Node000011_Node000012" class="edge">
<title>Node11&#45;&gt;Node12</title>
<g id="a_edge11_Node000011_Node000012"><a xlink:title=" ">
<path fill="none" stroke="#63b8ff" d="M183.2,-99.63C174.96,-99.67 166.79,-99.84 159.17,-100.15"/>
<polygon fill="#63b8ff" stroke="#63b8ff" points="182.92,-103.13 192.93,-99.66 182.94,-96.13 182.92,-103.13"/>
</a>
</g>
</g>
<!-- Node12&#45;&gt;Node11 -->
<g id="edge13_Node000012_Node000011" class="edge">
<title>Node12&#45;&gt;Node11</title>
<g id="a_edge13_Node000012_Node000011"><a xlink:title=" ">
<path fill="none" stroke="#63b8ff" d="M170.68,-112.95C178.45,-113.12 186.52,-113.17 194.45,-113.09"/>
<polygon fill="#63b8ff" stroke="#63b8ff" points="170.79,-109.45 160.69,-112.65 170.58,-116.45 170.79,-109.45"/>
</a>
</g>
</g>
<!-- Node13 -->
<g id="Node000013" class="node">
<title>Node13</title>
<g id="a_Node000013"><a xlink:href="../../d9/d01/a00227.html#a3c04138a5bfe5d72780bb7e82a18e627" target="_top" xlink:title=" ">
<polygon fill="white" stroke="#666666" points="40.75,-116.75 0,-116.75 0,-96 40.75,-96 40.75,-116.75"/>
<text xml:space="preserve" text-anchor="middle" x="20.38" y="-103.25" font-family="Helvetica,sans-Serif" font-size="10.00">main</text>
</a>
</g>
</g>
<!-- Node12&#45;&gt;Node13 -->
<g id="edge12_Node000012_Node000013" class="edge">
<title>Node12&#45;&gt;Node13</title>
<g id="a_edge12_Node000012_Node000013"><a xlink:title=" ">
<path fill="none" stroke="#63b8ff" d="M64.79,-106.38C56.36,-106.38 48.1,-106.38 41.09,-106.38"/>
<polygon fill="#63b8ff" stroke="#63b8ff" points="64.79,-109.88 74.79,-106.38 64.79,-102.88 64.79,-109.88"/>
</a>
</g>
</g>
<!-- Node15&#45;&gt;Node8 -->
<g id="edge16_Node000015_Node000008" class="edge">
<title>Node15&#45;&gt;Node8</title>
<g id="a_edge16_Node000015_Node000008"><a xlink:title=" ">
<path fill="none" stroke="#63b8ff" d="M676.79,-111.07C632.64,-96.28 564.7,-73.52 524.85,-60.17"/>
<polygon fill="#63b8ff" stroke="#63b8ff" points="675.45,-114.31 686.04,-114.17 677.67,-107.67 675.45,-114.31"/>
</a>
</g>
</g>
<!-- Node17 -->
<g id="Node000017" class="node">
<title>Node17</title>
<g id="a_Node000017"><a xlink:href="../../d6/de1/a00233.html#abf1be20a8aad5f7ba09172ac1434a110" target="_top" xlink:title="Initialize form data structure and parse description file.">
<polygon fill="white" stroke="#666666" points="633,-173.75 572.75,-173.75 572.75,-153 633,-153 633,-173.75"/>
<text xml:space="preserve" text-anchor="middle" x="602.88" y="-160.25" font-family="Helvetica,sans-Serif" font-size="10.00">init_form</text>
</a>
</g>
</g>
<!-- Node16&#45;&gt;Node17 -->
<g id="edge18_Node000016_Node000017" class="edge">
<title>Node16&#45;&gt;Node17</title>
<g id="a_edge18_Node000016_Node000017"><a xlink:title=" ">
<path fill="none" stroke="#63b8ff" d="M670.02,-163.95C657.48,-163.84 644.41,-163.73 633.22,-163.63"/>
<polygon fill="#63b8ff" stroke="#63b8ff" points="669.78,-167.44 679.81,-164.03 669.84,-160.45 669.78,-167.44"/>
</a>
</g>
</g>
<!-- Node17&#45;&gt;Node11 -->
<g id="edge21_Node000017_Node000011" class="edge">
<title>Node17&#45;&gt;Node11</title>
<g id="a_edge21_Node000017_Node000011"><a xlink:title=" ">
<path fill="none" stroke="#63b8ff" d="M561.23,-150.51C553.17,-148.24 544.74,-146.07 536.75,-144.38 462.08,-128.5 374.72,-117.88 317.75,-111.99"/>
<polygon fill="#63b8ff" stroke="#63b8ff" points="560.25,-153.87 570.83,-153.31 562.21,-147.15 560.25,-153.87"/>
</a>
</g>
</g>
<!-- Node17&#45;&gt;Node14 -->
<g id="edge19_Node000017_Node000014" class="edge">
<title>Node17&#45;&gt;Node14</title>
<g id="a_edge19_Node000017_Node000014"><a xlink:title=" ">
<path fill="none" stroke="#63b8ff" d="M561.48,-177.8C548.74,-182.34 534.89,-187.29 522.97,-191.54"/>
<polygon fill="#63b8ff" stroke="#63b8ff" points="562.64,-181.1 570.88,-174.44 560.29,-174.5 562.64,-181.1"/>
</a>
</g>
</g>
<!-- Node18 -->
<g id="Node000018" class="node">
<title>Node18</title>
<g id="a_Node000018"><a xlink:href="../../d3/d5e/a00275.html#a3c04138a5bfe5d72780bb7e82a18e627" target="_top" xlink:title=" ">
<polygon fill="white" stroke="#666666" points="512,-173.75 471.25,-173.75 471.25,-153 512,-153 512,-173.75"/>
<text xml:space="preserve" text-anchor="middle" x="491.62" y="-160.25" font-family="Helvetica,sans-Serif" font-size="10.00">main</text>
</a>
</g>
</g>
<!-- Node17&#45;&gt;Node18 -->
<g id="edge20_Node000017_Node000018" class="edge">
<title>Node17&#45;&gt;Node18</title>
<g id="a_edge20_Node000017_Node000018"><a xlink:title=" ">
<path fill="none" stroke="#63b8ff" d="M561.11,-163.38C544.38,-163.38 525.8,-163.38 512.21,-163.38"/>
<polygon fill="#63b8ff" stroke="#63b8ff" points="560.8,-166.88 570.8,-163.38 560.8,-159.88 560.8,-166.88"/>
</a>
</g>
</g>
<!-- Node20 -->
<g id="Node000020" class="node">
<title>Node20</title>
<g id="a_Node000020"><a xlink:href="../../d2/dc8/a00242.html#a9c4b3ba5f73c18b486646c62b933972a" target="_top" xlink:title="Main Command Processing Loop for View.">
<polygon fill="white" stroke="#666666" points="1107.25,-60.75 989.25,-60.75 989.25,-40 1107.25,-40 1107.25,-60.75"/>
<text xml:space="preserve" text-anchor="middle" x="1048.25" y="-47.25" font-family="Helvetica,sans-Serif" font-size="10.00">view_cmd_processor</text>
</a>
</g>
</g>
<!-- Node19&#45;&gt;Node20 -->
<g id="edge25_Node000019_Node000020" class="edge">
<title>Node19&#45;&gt;Node20</title>
<g id="a_edge25_Node000019_Node000020"><a xlink:title=" ">
<path fill="none" stroke="#63b8ff" d="M1144.05,-74.74C1126.72,-70.28 1107.74,-65.4 1091.33,-61.19"/>
<polygon fill="#63b8ff" stroke="#63b8ff" points="1143.12,-78.11 1153.68,-77.21 1144.87,-71.33 1143.12,-78.11"/>
</a>
</g>
</g>
<!-- Node21 -->
<g id="Node000021" class="node">
<title>Node21</title>
<g id="a_Node000021"><a xlink:href="../../d2/dc8/a00242.html#a0bd4dc056ab5010547129bb87819789b" target="_top" xlink:title="Start view.">
<polygon fill="white" stroke="#666666" points="953.25,-60.75 893,-60.75 893,-40 953.25,-40 953.25,-60.75"/>
<text xml:space="preserve" text-anchor="middle" x="923.12" y="-47.25" font-family="Helvetica,sans-Serif" font-size="10.00">view_file</text>
</a>
</g>
</g>
<!-- Node20&#45;&gt;Node21 -->
<g id="edge26_Node000020_Node000021" class="edge">
<title>Node20&#45;&gt;Node21</title>
<g id="a_edge26_Node000020_Node000021"><a xlink:title=" ">
<path fill="none" stroke="#63b8ff" d="M977.69,-50.38C969.19,-50.38 960.89,-50.38 953.47,-50.38"/>
<polygon fill="#63b8ff" stroke="#63b8ff" points="977.42,-53.88 987.42,-50.38 977.42,-46.88 977.42,-53.88"/>
</a>
</g>
</g>
<!-- Node22 -->
<g id="Node000022" class="node">
<title>Node22</title>
<g id="a_Node000022"><a xlink:href="../../d6/d22/a00245.html#a3c04138a5bfe5d72780bb7e82a18e627" target="_top" xlink:title=" ">
<polygon fill="white" stroke="#666666" points="740.88,-59.75 700.12,-59.75 700.12,-39 740.88,-39 740.88,-59.75"/>
<text xml:space="preserve" text-anchor="middle" x="720.5" y="-46.25" font-family="Helvetica,sans-Serif" font-size="10.00">main</text>
</a>
</g>
</g>
<!-- Node21&#45;&gt;Node22 -->
<g id="edge27_Node000021_Node000022" class="edge">
<title>Node21&#45;&gt;Node22</title>
<g id="a_edge27_Node000021_Node000022"><a xlink:title=" ">
<path fill="none" stroke="#63b8ff" d="M881.13,-50.17C838.49,-49.96 773.53,-49.63 741.2,-49.47"/>
<polygon fill="#63b8ff" stroke="#63b8ff" points="880.99,-53.67 891.01,-50.22 881.03,-46.67 880.99,-53.67"/>
</a>
</g>
</g>
<!-- Node23 -->
<g id="Node000023" class="node">
<title>Node23</title>
<g id="a_Node000023"><a xlink:href="../../d9/dd6/a00272.html#a75a4e7afc9c9aafd3d35ab706f5fdc71" target="_top" xlink:title="subprogram entry point for C&#45;Menu View">
<polygon fill="white" stroke="#666666" points="857,-97.75 808,-97.75 808,-77 857,-77 857,-97.75"/>
<text xml:space="preserve" text-anchor="middle" x="832.5" y="-84.25" font-family="Helvetica,sans-Serif" font-size="10.00">mview</text>
</a>
</g>
</g>
<!-- Node21&#45;&gt;Node23 -->
<g id="edge28_Node000021_Node000023" class="edge">
<title>Node21&#45;&gt;Node23</title>
<g id="a_edge28_Node000021_Node000023"><a xlink:title=" ">
<path fill="none" stroke="#63b8ff" d="M885.91,-65.49C876.25,-69.53 866.06,-73.78 857.26,-77.46"/>
<polygon fill="#63b8ff" stroke="#63b8ff" points="887.21,-68.74 895.09,-61.66 884.52,-62.28 887.21,-68.74"/>
</a>
</g>
</g>
<!-- Node23&#45;&gt;Node6 -->
<g id="edge29_Node000023_Node000006" class="edge">
<title>Node23&#45;&gt;Node6</title>
<g id="a_edge29_Node000023_Node000006"><a xlink:title=" ">
<path fill="none" stroke="#63b8ff" d="M815.2,-68.33C804.02,-56.19 788.31,-40.84 772,-30.38 766.52,-26.86 760.33,-23.79 754.21,-21.17"/>
<polygon fill="#63b8ff" stroke="#63b8ff" points="812.52,-70.58 821.79,-75.72 817.74,-65.92 812.52,-70.58"/>
</a>
</g>
</g>
<!-- Node23&#45;&gt;Node11 -->
<g id="edge33_Node000023_Node000011" class="edge">
<title>Node23&#45;&gt;Node11</title>
<g id="a_edge33_Node000023_Node000011"><a xlink:title=" ">
<path fill="none" stroke="#63b8ff" d="M796.18,-87.38C751.43,-87.38 671.93,-87.38 603.88,-87.38 603.88,-87.38 603.88,-87.38 490.62,-87.38 431.62,-87.38 364.51,-93.47 317.4,-98.76"/>
<polygon fill="#63b8ff" stroke="#63b8ff" points="796.06,-90.88 806.06,-87.38 796.06,-83.88 796.06,-90.88"/>
</a>
</g>
</g>
<!-- Node23&#45;&gt;Node15 -->
<g id="edge30_Node000023_Node000015" class="edge">
<title>Node23&#45;&gt;Node15</title>
<g id="a_edge30_Node000023_Node000015"><a xlink:title=" ">
<path fill="none" stroke="#63b8ff" d="M796.86,-99.34C782.76,-104.21 766.59,-109.8 752.84,-114.55"/>
<polygon fill="#63b8ff" stroke="#63b8ff" points="797.89,-102.69 806.2,-96.11 795.61,-96.07 797.89,-102.69"/>
</a>
</g>
</g>
<!-- Node23&#45;&gt;Node16 -->
<g id="edge31_Node000023_Node000016" class="edge">
<title>Node23&#45;&gt;Node16</title>
<g id="a_edge31_Node000023_Node000016"><a xlink:title=" ">
<path fill="none" stroke="#63b8ff" d="M815.2,-106.42C804.02,-118.56 788.31,-133.91 772,-144.38 766.52,-147.89 760.33,-150.96 754.21,-153.58"/>
<polygon fill="#63b8ff" stroke="#63b8ff" points="817.74,-108.83 821.79,-99.03 812.52,-104.17 817.74,-108.83"/>
</a>
</g>
</g>
<!-- Node23&#45;&gt;Node19 -->
<g id="edge34_Node000023_Node000019" class="edge">
<title>Node23&#45;&gt;Node19</title>
<g id="a_edge34_Node000023_Node000019"><a xlink:title=" ">
<path fill="none" stroke="#63b8ff" d="M868.78,-87.47C933.03,-87.65 1069.44,-88.02 1144.64,-88.23"/>
<polygon fill="#63b8ff" stroke="#63b8ff" points="868.81,-83.97 858.8,-87.44 868.79,-90.97 868.81,-83.97"/>
</a>
</g>
</g>
<!-- Node23&#45;&gt;Node22 -->
<g id="edge32_Node000023_Node000022" class="edge">
<title>Node23&#45;&gt;Node22</title>
<g id="a_edge32_Node000023_Node000022"><a xlink:title=" ">
<path fill="none" stroke="#63b8ff" d="M796.78,-75.38C778.47,-69.06 756.69,-61.53 741.28,-56.21"/>
<polygon fill="#63b8ff" stroke="#63b8ff" points="795.61,-78.68 806.2,-78.64 797.89,-72.06 795.61,-78.68"/>
</a>
</g>
</g>
</g>
</svg>
