<?xml version="1.0" encoding="UTF-8" standalone="no"?>
<!DOCTYPE svg PUBLIC "-//W3C//DTD SVG 1.1//EN"
 "http://www.w3.org/Graphics/SVG/1.1/DTD/svg11.dtd">
<!-- Generated by graphviz version 14.1.2 (0)
 -->
<!-- Title: parse_opt_args Pages: 1 -->
<svg width="349pt" height="146pt"
 viewBox="0.00 0.00 349.00 146.00" xmlns="http://www.w3.org/2000/svg" xmlns:xlink="http://www.w3.org/1999/xlink">
<g id="graph0" class="graph" transform="scale(1 1) rotate(0) translate(4 141.75)">
<title>parse_opt_args</title>
<!-- Node1 -->
<g id="Node000001" class="node">
<title>Node1</title>
<g id="a_Node000001"><a xlink:title="Parse command&#45;line options and set Init struct values accordingly.">
<polygon fill="#999999" stroke="#666666" points="90.25,-78.75 0,-78.75 0,-58 90.25,-58 90.25,-78.75"/>
<text xml:space="preserve" text-anchor="middle" x="45.12" y="-65.25" font-family="Helvetica,sans-Serif" font-size="10.00">parse_opt_args</text>
</a>
</g>
</g>
<!-- Node2 -->
<g id="Node000002" class="node">
<title>Node2</title>
<g id="a_Node000002"><a xlink:href="../../d6/d82/a00293.html#a3d16b5f29cd6e5d2b5b9a6e577dba0e7" target="_top" xlink:title="Get color index from color name.">
<polygon fill="white" stroke="#666666" points="225.5,-137.75 129.25,-137.75 129.25,-117 225.5,-117 225.5,-137.75"/>
<text xml:space="preserve" text-anchor="middle" x="177.38" y="-124.25" font-family="Helvetica,sans-Serif" font-size="10.00">clr_name_to_idx</text>
</a>
</g>
</g>
<!-- Node1&#45;&gt;Node2 -->
<g id="edge1_Node000001_Node000002" class="edge">
<title>Node1&#45;&gt;Node2</title>
<g id="a_edge1_Node000001_Node000002"><a xlink:title=" ">
<path fill="none" stroke="#63b8ff" d="M67.35,-79.23C83.39,-87.31 106.02,-98.43 126.25,-107.38 129.87,-108.98 133.67,-110.6 137.48,-112.18"/>
<polygon fill="#63b8ff" stroke="#63b8ff" points="136.14,-115.42 146.72,-115.95 138.78,-108.93 136.14,-115.42"/>
</a>
</g>
</g>
<!-- Node4 -->
<g id="Node000004" class="node">
<title>Node4</title>
<g id="a_Node000004"><a xlink:href="../../db/dc3/a00284.html#a182e8ea82f7f61825c2258be419212da" target="_top" xlink:title="Convert prompt type string to integer constant.">
<polygon fill="white" stroke="#666666" points="228.5,-98.75 126.25,-98.75 126.25,-78 228.5,-78 228.5,-98.75"/>
<text xml:space="preserve" text-anchor="middle" x="177.38" y="-85.25" font-family="Helvetica,sans-Serif" font-size="10.00">prompt_str_to_int</text>
</a>
</g>
</g>
<!-- Node1&#45;&gt;Node4 -->
<g id="edge3_Node000001_Node000004" class="edge">
<title>Node1&#45;&gt;Node4</title>
<g id="a_edge3_Node000001_Node000004"><a xlink:title=" ">
<path fill="none" stroke="#63b8ff" d="M90.59,-75.2C98.3,-76.39 106.44,-77.64 114.52,-78.88"/>
<polygon fill="#63b8ff" stroke="#63b8ff" points="113.94,-82.33 124.35,-80.39 115,-75.41 113.94,-82.33"/>
</a>
</g>
</g>
<!-- Node5 -->
<g id="Node000005" class="node">
<title>Node5</title>
<g id="a_Node000005"><a xlink:href="../../d6/d7f/a00287.html#a4db64c5f94e5859f353740840d85beb5" target="_top" xlink:title="converts string to double">
<polygon fill="white" stroke="#666666" points="218.38,-59.75 136.38,-59.75 136.38,-39 218.38,-39 218.38,-59.75"/>
<text xml:space="preserve" text-anchor="middle" x="177.38" y="-46.25" font-family="Helvetica,sans-Serif" font-size="10.00">str_to_double</text>
</a>
</g>
</g>
<!-- Node1&#45;&gt;Node5 -->
<g id="edge5_Node000001_Node000005" class="edge">
<title>Node1&#45;&gt;Node5</title>
<g id="a_edge5_Node000001_Node000005"><a xlink:title=" ">
<path fill="none" stroke="#63b8ff" d="M90.59,-61.89C101.64,-60.28 113.58,-58.54 124.94,-56.88"/>
<polygon fill="#63b8ff" stroke="#63b8ff" points="125.16,-60.38 134.55,-55.48 124.15,-53.46 125.16,-60.38"/>
</a>
</g>
</g>
<!-- Node6 -->
<g id="Node000006" class="node">
<title>Node6</title>
<g id="a_Node000006"><a xlink:href="../../d6/d7f/a00287.html#a0de2e40df9bd7efc8fd9afb8ad2257e6" target="_top" xlink:title="safer alternative to strncpy">
<polygon fill="white" stroke="#666666" points="211.25,-20.75 143.5,-20.75 143.5,0 211.25,0 211.25,-20.75"/>
<text xml:space="preserve" text-anchor="middle" x="177.38" y="-7.25" font-family="Helvetica,sans-Serif" font-size="10.00">strnz__cpy</text>
</a>
</g>
</g>
<!-- Node1&#45;&gt;Node6 -->
<g id="edge6_Node000001_Node000006" class="edge">
<title>Node1&#45;&gt;Node6</title>
<g id="a_edge6_Node000001_Node000006"><a xlink:title=" ">
<path fill="none" stroke="#63b8ff" d="M68.06,-57.51C84.07,-49.7 106.35,-39.05 126.25,-30.38 130.04,-28.72 134.01,-27.05 137.98,-25.4"/>
<polygon fill="#63b8ff" stroke="#63b8ff" points="139.06,-28.75 147,-21.74 136.42,-22.26 139.06,-28.75"/>
</a>
</g>
</g>
<!-- Node3 -->
<g id="Node000003" class="node">
<title>Node3</title>
<g id="a_Node000003"><a xlink:href="../../d6/d7f/a00287.html#a4fb9a5e513fb39d3dd8eadef0f2cd44b" target="_top" xlink:title="Converts a string to lowercase.">
<polygon fill="white" stroke="#666666" points="340.5,-117.75 264.5,-117.75 264.5,-97 340.5,-97 340.5,-117.75"/>
<text xml:space="preserve" text-anchor="middle" x="302.5" y="-104.25" font-family="Helvetica,sans-Serif" font-size="10.00">str_to_lower</text>
</a>
</g>
</g>
<!-- Node2&#45;&gt;Node3 -->
<g id="edge2_Node000002_Node000003" class="edge">
<title>Node2&#45;&gt;Node3</title>
<g id="a_edge2_Node000002_Node000003"><a xlink:title=" ">
<path fill="none" stroke="#63b8ff" d="M225.98,-119.64C234.92,-118.19 244.28,-116.67 253.25,-115.21"/>
<polygon fill="#63b8ff" stroke="#63b8ff" points="253.53,-118.71 262.84,-113.66 252.41,-111.8 253.53,-118.71"/>
</a>
</g>
</g>
<!-- Node4&#45;&gt;Node3 -->
<g id="edge4_Node000004_Node000003" class="edge">
<title>Node4&#45;&gt;Node3</title>
<g id="a_edge4_Node000004_Node000003"><a xlink:title=" ">
<path fill="none" stroke="#63b8ff" d="M228.81,-96.16C236.75,-97.38 244.95,-98.65 252.85,-99.87"/>
<polygon fill="#63b8ff" stroke="#63b8ff" points="252.24,-103.31 262.65,-101.38 253.3,-96.4 252.24,-103.31"/>
</a>
</g>
</g>
</g>
</svg>
