<?xml version="1.0" encoding="UTF-8" standalone="no"?>
<!DOCTYPE svg PUBLIC "-//W3C//DTD SVG 1.1//EN"
 "http://www.w3.org/Graphics/SVG/1.1/DTD/svg11.dtd">
<!-- Generated by graphviz version 14.1.2 (0)
 -->
<!-- Title: lf_find Pages: 1 -->
<!--zoomable 387 -->

<svg id="main" version="1.1" xmlns="http://www.w3.org/2000/svg" xmlns:xlink="http://www.w3.org/1999/xlink" xml:space="preserve" onload="init(evt)">

<style type="text/css"><![CDATA[
.node, .edge {opacity: 0.7;}
.node.selected, .edge.selected {opacity: 1;}
.edge:hover path { stroke: red; }
.edge:hover polygon { stroke: red; fill: red; }
]]></style>

<defs>
  <circle id="rim" cx="0" cy="0" r="7"/>
  <circle id="rim2" cx="0" cy="0" r="3.5"/>
  <g id="zoomPlus">
    <use xlink:href="#rim" fill="#404040"><set attributeName="fill" to="#808080" begin="zoomplus.mouseover" end="zoomplus.mouseout"/></use>
    <path d="M-4,0h8M0,-4v8" fill="none" stroke="white" stroke-width="1.5" pointer-events="none"/>
  </g>
  <g id="zoomMin">
    <use xlink:href="#rim" fill="#404040"><set attributeName="fill" to="#808080" begin="zoomminus.mouseover" end="zoomminus.mouseout"/></use>
    <path d="M-4,0h8" fill="none" stroke="white" stroke-width="1.5" pointer-events="none"/>
  </g>
  <g id="arrowUp" transform="translate(30 24)">
    <use xlink:href="#rim"/>
    <path pointer-events="none" fill="none" stroke="white" stroke-width="1.5" d="M0,-3.0v7 M-2.5,-0.5L0,-3.0L2.5,-0.5"/>
  </g>
  <g id="arrowRight" transform="rotate(90) translate(36 -43)">
    <use xlink:href="#rim"/>
    <path pointer-events="none" fill="none" stroke="white" stroke-width="1.5" d="M0,-3.0v7 M-2.5,-0.5L0,-3.0L2.5,-0.5"/>
  </g>
  <g id="arrowDown" transform="rotate(180) translate(-30 -48)">
    <use xlink:href="#rim"/>
    <path pointer-events="none" fill="none" stroke="white" stroke-width="1.5" d="M0,-3.0v7 M-2.5,-0.5L0,-3.0L2.5,-0.5"/>
  </g>
  <g id="arrowLeft" transform="rotate(270) translate(-36 17)">
    <use xlink:href="#rim"/>
    <path pointer-events="none" fill="none" stroke="white" stroke-width="1.5" d="M0,-3.0v7 M-2.5,-0.5L0,-3.0L2.5,-0.5"/>
  </g>
  <g id="resetDef">
    <use xlink:href="#rim2" fill="#404040"><set attributeName="fill" to="#808080" begin="reset.mouseover" end="reset.mouseout"/></use>
  </g>
</defs>
<script type="application/ecmascript">
var viewWidth = 699;
var viewHeight = 387;
var sectionId = 'dynsection-6';
</script>
<script type="application/ecmascript" xlink:href="../../svg.min.js"/>
<svg id="graph" class="graph">
<g id="viewport">
<title>lf_find</title>
<!-- Node1 -->
<g id="Node000001" class="node">
<title>Node1</title>
<g id="a_Node000001"><a xlink:title="Find files in a directory matching a regular expression.">
<polygon fill="#999999" stroke="#666666" points="46.75,-90.79 0,-90.79 0,-70.04 46.75,-70.04 46.75,-90.79"/>
<text xml:space="preserve" text-anchor="middle" x="23.38" y="-77.29" font-family="Helvetica,sans-Serif" font-size="10.00">lf_find</text>
</a>
</g>
</g>
<!-- Node2 -->
<g id="Node000002" class="node">
<title>Node2</title>
<g id="a_Node000002"><a xlink:href="../../de/d25/a00290.html#a67659f8a701b74f4dec0d36227a10d1c" target="_top" xlink:title="Display an error message window or print to stderr.">
<polygon fill="white" stroke="#666666" points="162.5,-205.79 82.75,-205.79 82.75,-185.04 162.5,-185.04 162.5,-205.79"/>
<text xml:space="preserve" text-anchor="middle" x="122.62" y="-192.29" font-family="Helvetica,sans-Serif" font-size="10.00">display_error</text>
</a>
</g>
</g>
<!-- Node1&#45;&gt;Node2 -->
<g id="edge1_Node000001_Node000002" class="edge">
<title>Node1&#45;&gt;Node2</title>
<g id="a_edge1_Node000001_Node000002"><a xlink:title=" ">
<path fill="none" stroke="#63b8ff" d="M33.35,-91.03C49.71,-110.37 84.58,-151.61 105.26,-176.07"/>
<polygon fill="#63b8ff" stroke="#63b8ff" points="102.56,-178.3 111.69,-183.68 107.91,-173.78 102.56,-178.3"/>
</a>
</g>
</g>
<!-- Node12 -->
<g id="Node000012" class="node">
<title>Node12</title>
<g id="a_Node000012"><a xlink:href="../../db/dc3/a00284.html#a63eb94756fb011a456a3dec900709cd8" target="_top" xlink:title="ssnprintf was designed to be a safer alternative to snprintf.">
<polygon fill="white" stroke="#666666" points="403.38,-33.79 344.62,-33.79 344.62,-13.04 403.38,-13.04 403.38,-33.79"/>
<text xml:space="preserve" text-anchor="middle" x="374" y="-20.29" font-family="Helvetica,sans-Serif" font-size="10.00">ssnprintf</text>
</a>
</g>
</g>
<!-- Node1&#45;&gt;Node12 -->
<g id="edge24_Node000001_Node000012" class="edge">
<title>Node1&#45;&gt;Node12</title>
<g id="a_edge24_Node000001_Node000012"><a xlink:title=" ">
<path fill="none" stroke="#63b8ff" d="M42.35,-69.58C73.04,-51.77 138.12,-17.02 198.5,-4.42 244.26,5.13 297.84,-3.59 333.43,-12.11"/>
<polygon fill="#63b8ff" stroke="#63b8ff" points="332.3,-15.43 342.85,-14.47 334.01,-8.64 332.3,-15.43"/>
</a>
</g>
</g>
<!-- Node3 -->
<g id="Node000003" class="node">
<title>Node3</title>
<g id="a_Node000003"><a xlink:href="../../de/d25/a00290.html#a8f6c45ca4a7f6a41c4c88314e697565a" target="_top" xlink:title="Abnormal program termination.">
<polygon fill="white" stroke="#666666" points="397,-167.79 351,-167.79 351,-147.04 397,-147.04 397,-167.79"/>
<text xml:space="preserve" text-anchor="middle" x="374" y="-154.29" font-family="Helvetica,sans-Serif" font-size="10.00">abend</text>
</a>
</g>
</g>
<!-- Node2&#45;&gt;Node3 -->
<g id="edge2_Node000002_Node000003" class="edge">
<title>Node2&#45;&gt;Node3</title>
<g id="a_edge2_Node000002_Node000003"><a xlink:title=" ">
<path fill="none" stroke="#63b8ff" d="M162.86,-189.44C211.57,-182.02 293.79,-169.49 339.61,-162.51"/>
<polygon fill="#63b8ff" stroke="#63b8ff" points="339.85,-166.01 349.21,-161.04 338.79,-159.09 339.85,-166.01"/>
</a>
</g>
</g>
<!-- Node7 -->
<g id="Node000007" class="node">
<title>Node7</title>
<g id="a_Node000007"><a xlink:href="../../de/d25/a00290.html#a645871e46277e31736bc36d0f3dce4bd" target="_top" xlink:title="construct the chyron string from the chyron structure">
<polygon fill="white" stroke="#666666" points="291.75,-339.79 198.5,-339.79 198.5,-319.04 291.75,-319.04 291.75,-339.79"/>
<text xml:space="preserve" text-anchor="middle" x="245.12" y="-326.29" font-family="Helvetica,sans-Serif" font-size="10.00">compile_chyron</text>
</a>
</g>
</g>
<!-- Node2&#45;&gt;Node7 -->
<g id="edge8_Node000002_Node000007" class="edge">
<title>Node2&#45;&gt;Node7</title>
<g id="a_edge8_Node000002_Node000007"><a xlink:title=" ">
<path fill="none" stroke="#63b8ff" d="M128.04,-206C137.73,-228.04 162.86,-279.32 198.5,-309.42 199.95,-310.65 201.49,-311.81 203.1,-312.91"/>
<polygon fill="#63b8ff" stroke="#63b8ff" points="201.06,-315.78 211.46,-317.81 204.59,-309.74 201.06,-315.78"/>
</a>
</g>
</g>
<!-- Node9 -->
<g id="Node000009" class="node">
<title>Node9</title>
<g id="a_Node000009"><a xlink:href="../../de/d25/a00290.html#a3f3feb40fd703913c5c136331f627c91" target="_top" xlink:title="Destroy Chyron structure.">
<polygon fill="white" stroke="#666666" points="290.62,-224.79 199.62,-224.79 199.62,-204.04 290.62,-204.04 290.62,-224.79"/>
<text xml:space="preserve" text-anchor="middle" x="245.12" y="-211.29" font-family="Helvetica,sans-Serif" font-size="10.00">destroy_chyron</text>
</a>
</g>
</g>
<!-- Node2&#45;&gt;Node9 -->
<g id="edge10_Node000002_Node000009" class="edge">
<title>Node2&#45;&gt;Node9</title>
<g id="a_edge10_Node000002_Node000009"><a xlink:title=" ">
<path fill="none" stroke="#63b8ff" d="M162.75,-201.59C170.87,-202.87 179.58,-204.24 188.17,-205.6"/>
<polygon fill="#63b8ff" stroke="#63b8ff" points="187.42,-209.02 197.85,-207.12 188.51,-202.11 187.42,-209.02"/>
</a>
</g>
</g>
<!-- Node10 -->
<g id="Node000010" class="node">
<title>Node10</title>
<g id="a_Node000010"><a xlink:href="../../de/d25/a00290.html#ad37d5808ff30ae6894780425d865abae" target="_top" xlink:title="Create and initialize Chyron structure.">
<polygon fill="white" stroke="#666666" points="282.38,-148.79 207.88,-148.79 207.88,-128.04 282.38,-128.04 282.38,-148.79"/>
<text xml:space="preserve" text-anchor="middle" x="245.12" y="-135.29" font-family="Helvetica,sans-Serif" font-size="10.00">new_chyron</text>
</a>
</g>
</g>
<!-- Node2&#45;&gt;Node10 -->
<g id="edge11_Node000002_Node000010" class="edge">
<title>Node2&#45;&gt;Node10</title>
<g id="a_edge11_Node000002_Node000010"><a xlink:title=" ">
<path fill="none" stroke="#63b8ff" d="M146.57,-184.56C164.83,-175.93 190.63,-163.73 211.11,-154.04"/>
<polygon fill="#63b8ff" stroke="#63b8ff" points="212.35,-157.32 219.89,-149.88 209.36,-150.99 212.35,-157.32"/>
</a>
</g>
</g>
<!-- Node11 -->
<g id="Node000011" class="node">
<title>Node11</title>
<g id="a_Node000011"><a xlink:href="../../de/d25/a00290.html#a208ce92c197fdd6d2b007987e534aa3b" target="_top" xlink:title="Set chyron key.">
<polygon fill="white" stroke="#666666" points="291,-33.79 199.25,-33.79 199.25,-13.04 291,-13.04 291,-33.79"/>
<text xml:space="preserve" text-anchor="middle" x="245.12" y="-20.29" font-family="Helvetica,sans-Serif" font-size="10.00">set_chyron_key</text>
</a>
</g>
</g>
<!-- Node2&#45;&gt;Node11 -->
<g id="edge13_Node000002_Node000011" class="edge">
<title>Node2&#45;&gt;Node11</title>
<g id="a_edge13_Node000002_Node000011"><a xlink:title=" ">
<path fill="none" stroke="#63b8ff" d="M126.54,-184.76C134.21,-158.41 157.29,-89.29 198.5,-47.42 201.22,-44.66 204.32,-42.14 207.61,-39.87"/>
<polygon fill="#63b8ff" stroke="#63b8ff" points="209.11,-43.05 215.86,-34.89 205.49,-37.06 209.11,-43.05"/>
</a>
</g>
</g>
<!-- Node2&#45;&gt;Node12 -->
<g id="edge15_Node000002_Node000012" class="edge">
<title>Node2&#45;&gt;Node12</title>
<g id="a_edge15_Node000002_Node000012"><a xlink:title=" ">
<path fill="none" stroke="#63b8ff" d="M127.65,-184.81C136.75,-162.23 161.08,-109.14 198.5,-80.42 219.78,-64.08 288.53,-44.58 333.12,-33.15"/>
<polygon fill="#63b8ff" stroke="#63b8ff" points="333.86,-36.57 342.7,-30.72 332.15,-29.78 333.86,-36.57"/>
</a>
</g>
</g>
<!-- Node13 -->
<g id="Node000013" class="node">
<title>Node13</title>
<g id="a_Node000013"><a xlink:href="../../db/dc3/a00284.html#a0de2e40df9bd7efc8fd9afb8ad2257e6" target="_top" xlink:title="safer alternative to strncpy">
<polygon fill="white" stroke="#666666" points="407.88,-261.79 340.12,-261.79 340.12,-241.04 407.88,-241.04 407.88,-261.79"/>
<text xml:space="preserve" text-anchor="middle" x="374" y="-248.29" font-family="Helvetica,sans-Serif" font-size="10.00">strnz__cpy</text>
</a>
</g>
</g>
<!-- Node2&#45;&gt;Node13 -->
<g id="edge16_Node000002_Node000013" class="edge">
<title>Node2&#45;&gt;Node13</title>
<g id="a_edge16_Node000002_Node000013"><a xlink:title=" ">
<path fill="none" stroke="#63b8ff" d="M140.42,-206.22C155.13,-215.1 177.38,-227.21 198.5,-233.42 241.6,-246.1 292.98,-250.15 328.78,-251.3"/>
<polygon fill="#63b8ff" stroke="#63b8ff" points="328.23,-254.78 338.31,-251.54 328.41,-247.78 328.23,-254.78"/>
</a>
</g>
</g>
<!-- Node14 -->
<g id="Node000014" class="node">
<title>Node14</title>
<g id="a_Node000014"><a xlink:href="../../de/d25/a00290.html#a9dd598e1d49c8764af1eec42c682623e" target="_top" xlink:title="Delete the current window and its associated box window.">
<polygon fill="white" stroke="#666666" points="271.88,-109.79 218.38,-109.79 218.38,-89.04 271.88,-89.04 271.88,-109.79"/>
<text xml:space="preserve" text-anchor="middle" x="245.12" y="-96.29" font-family="Helvetica,sans-Serif" font-size="10.00">win_del</text>
</a>
</g>
</g>
<!-- Node2&#45;&gt;Node14 -->
<g id="edge17_Node000002_Node000014" class="edge">
<title>Node2&#45;&gt;Node14</title>
<g id="a_edge17_Node000002_Node000014"><a xlink:title=" ">
<path fill="none" stroke="#63b8ff" d="M132.03,-184.57C144.89,-168.55 170.89,-138.43 198.5,-119.42 201.49,-117.36 204.73,-115.44 208.05,-113.66"/>
<polygon fill="#63b8ff" stroke="#63b8ff" points="209.28,-116.96 216.75,-109.45 206.23,-110.66 209.28,-116.96"/>
</a>
</g>
</g>
<!-- Node15 -->
<g id="Node000015" class="node">
<title>Node15</title>
<g id="a_Node000015"><a xlink:href="../../de/d25/a00290.html#a435c7bff7ffedb8f51c6de9259e36f6c" target="_top" xlink:title="Create a new window with optional box and title.">
<polygon fill="white" stroke="#666666" points="274.5,-300.79 215.75,-300.79 215.75,-280.04 274.5,-280.04 274.5,-300.79"/>
<text xml:space="preserve" text-anchor="middle" x="245.12" y="-287.29" font-family="Helvetica,sans-Serif" font-size="10.00">win_new</text>
</a>
</g>
</g>
<!-- Node2&#45;&gt;Node15 -->
<g id="edge18_Node000002_Node000015" class="edge">
<title>Node2&#45;&gt;Node15</title>
<g id="a_edge18_Node000002_Node000015"><a xlink:title=" ">
<path fill="none" stroke="#63b8ff" d="M133.02,-206.01C146.5,-220.78 172.58,-247.85 198.5,-266.42 202.35,-269.18 206.55,-271.82 210.8,-274.27"/>
<polygon fill="#63b8ff" stroke="#63b8ff" points="208.87,-277.21 219.32,-278.91 212.21,-271.06 208.87,-277.21"/>
</a>
</g>
</g>
<!-- Node17 -->
<g id="Node000017" class="node">
<title>Node17</title>
<g id="a_Node000017"><a xlink:href="../../de/d25/a00290.html#acf4c709bccc4c965a5d61db978db31a3" target="_top" xlink:title="Wrapper for wgetch that handles signals and mouse events.">
<polygon fill="white" stroke="#666666" points="273.75,-378.79 216.5,-378.79 216.5,-358.04 273.75,-358.04 273.75,-378.79"/>
<text xml:space="preserve" text-anchor="middle" x="245.12" y="-365.29" font-family="Helvetica,sans-Serif" font-size="10.00">xwgetch</text>
</a>
</g>
</g>
<!-- Node2&#45;&gt;Node17 -->
<g id="edge21_Node000002_Node000017" class="edge">
<title>Node2&#45;&gt;Node17</title>
<g id="a_edge21_Node000002_Node000017"><a xlink:title=" ">
<path fill="none" stroke="#63b8ff" d="M127.39,-205.92C135.44,-232.32 157.09,-299.71 198.5,-339.42 204.53,-345.2 212.49,-349.46 220.08,-353.01"/>
<polygon fill="#63b8ff" stroke="#63b8ff" points="218.38,-356.09 228.93,-357.02 221.27,-349.71 218.38,-356.09"/>
</a>
</g>
</g>
<!-- Node4 -->
<g id="Node000004" class="node">
<title>Node4</title>
<g id="a_Node000004"><a xlink:href="../../de/d25/a00290.html#afc0985a403e3eac0b2cd8f0fab500256" target="_top" xlink:title="Gracefully shut down NCurses and restore terminal settings.">
<polygon fill="white" stroke="#666666" points="545.75,-167.79 456.25,-167.79 456.25,-147.04 545.75,-147.04 545.75,-167.79"/>
<text xml:space="preserve" text-anchor="middle" x="501" y="-154.29" font-family="Helvetica,sans-Serif" font-size="10.00">destroy_curses</text>
</a>
</g>
</g>
<!-- Node3&#45;&gt;Node4 -->
<g id="edge3_Node000003_Node000004" class="edge">
<title>Node3&#45;&gt;Node4</title>
<g id="a_edge3_Node000003_Node000004"><a xlink:title=" ">
<path fill="none" stroke="#63b8ff" d="M397.35,-157.42C410.53,-157.42 427.84,-157.42 444.48,-157.42"/>
<polygon fill="#63b8ff" stroke="#63b8ff" points="444.32,-160.92 454.32,-157.42 444.32,-153.92 444.32,-160.92"/>
</a>
</g>
</g>
<!-- Node5 -->
<g id="Node000005" class="node">
<title>Node5</title>
<g id="a_Node000005"><a xlink:href="../../db/d7b/a00296.html#ac5e3adb304b78910fc77761ef6a743f0" target="_top" xlink:title="restore_shell_tioctl() &#45; restore shell terminal settings">
<polygon fill="white" stroke="#666666" points="690.75,-195.79 581.75,-195.79 581.75,-175.04 690.75,-175.04 690.75,-195.79"/>
<text xml:space="preserve" text-anchor="middle" x="636.25" y="-182.29" font-family="Helvetica,sans-Serif" font-size="10.00">restore_shell_tioctl</text>
</a>
</g>
</g>
<!-- Node3&#45;&gt;Node5 -->
<g id="edge6_Node000003_Node000005" class="edge">
<title>Node3&#45;&gt;Node5</title>
<g id="a_edge6_Node000003_Node000005"><a xlink:title=" ">
<path fill="none" stroke="#63b8ff" d="M397.21,-163.75C413.43,-168.1 436.02,-173.57 456.25,-176.42 493.76,-181.7 536.07,-184 570.14,-184.95"/>
<polygon fill="#63b8ff" stroke="#63b8ff" points="569.76,-188.44 579.84,-185.19 569.93,-181.44 569.76,-188.44"/>
</a>
</g>
</g>
<!-- Node6 -->
<g id="Node000006" class="node">
<title>Node6</title>
<g id="a_Node000006"><a xlink:href="../../dd/dd7/a00248.html#a06c1eb6cf3649dc187115565409f91af" target="_top" xlink:title="Set signal handlers to default behavior.">
<polygon fill="white" stroke="#666666" points="676.88,-147.79 595.62,-147.79 595.62,-127.04 676.88,-127.04 676.88,-147.79"/>
<text xml:space="preserve" text-anchor="middle" x="636.25" y="-134.29" font-family="Helvetica,sans-Serif" font-size="10.00">sig_dfl_mode</text>
</a>
</g>
</g>
<!-- Node3&#45;&gt;Node6 -->
<g id="edge7_Node000003_Node000006" class="edge">
<title>Node3&#45;&gt;Node6</title>
<g id="a_edge7_Node000003_Node000006"><a xlink:title=" ">
<path fill="none" stroke="#63b8ff" d="M397.18,-150.81C413.38,-146.34 435.97,-140.82 456.25,-138.42 499.14,-133.35 548.21,-133.49 584.11,-134.68"/>
<polygon fill="#63b8ff" stroke="#63b8ff" points="583.64,-138.16 593.77,-135.04 583.9,-131.17 583.64,-138.16"/>
</a>
</g>
</g>
<!-- Node4&#45;&gt;Node5 -->
<g id="edge4_Node000004_Node000005" class="edge">
<title>Node4&#45;&gt;Node5</title>
<g id="a_edge4_Node000004_Node000005"><a xlink:title=" ">
<path fill="none" stroke="#63b8ff" d="M546,-166.67C554.62,-168.48 563.82,-170.41 572.91,-172.32"/>
<polygon fill="#63b8ff" stroke="#63b8ff" points="571.91,-175.69 582.42,-174.32 573.35,-168.84 571.91,-175.69"/>
</a>
</g>
</g>
<!-- Node4&#45;&gt;Node6 -->
<g id="edge5_Node000004_Node000006" class="edge">
<title>Node4&#45;&gt;Node6</title>
<g id="a_edge5_Node000004_Node000006"><a xlink:title=" ">
<path fill="none" stroke="#63b8ff" d="M546,-150.82C558.19,-148.99 571.52,-146.98 584.08,-145.1"/>
<polygon fill="#63b8ff" stroke="#63b8ff" points="584.48,-148.58 593.85,-143.63 583.44,-141.66 584.48,-148.58"/>
</a>
</g>
</g>
<!-- Node8 -->
<g id="Node000008" class="node">
<title>Node8</title>
<g id="a_Node000008"><a xlink:href="../../db/dc3/a00284.html#aa0145c044cfdde3a1c83323410a59f25" target="_top" xlink:title="safer alternative to strncat">
<polygon fill="white" stroke="#666666" points="406.75,-339.79 341.25,-339.79 341.25,-319.04 406.75,-319.04 406.75,-339.79"/>
<text xml:space="preserve" text-anchor="middle" x="374" y="-326.29" font-family="Helvetica,sans-Serif" font-size="10.00">strnz__cat</text>
</a>
</g>
</g>
<!-- Node7&#45;&gt;Node8 -->
<g id="edge9_Node000007_Node000008" class="edge">
<title>Node7&#45;&gt;Node8</title>
<g id="a_edge9_Node000007_Node000008"><a xlink:title=" ">
<path fill="none" stroke="#63b8ff" d="M291.93,-329.42C304.19,-329.42 317.41,-329.42 329.55,-329.42"/>
<polygon fill="#63b8ff" stroke="#63b8ff" points="329.27,-332.92 339.27,-329.42 329.27,-325.92 329.27,-332.92"/>
</a>
</g>
</g>
<!-- Node10&#45;&gt;Node3 -->
<g id="edge12_Node000010_Node000003" class="edge">
<title>Node10&#45;&gt;Node3</title>
<g id="a_edge12_Node000010_Node000003"><a xlink:title=" ">
<path fill="none" stroke="#63b8ff" d="M282.82,-143.92C300.66,-146.59 321.95,-149.78 339.37,-152.38"/>
<polygon fill="#63b8ff" stroke="#63b8ff" points="338.81,-155.84 349.22,-153.86 339.85,-148.92 338.81,-155.84"/>
</a>
</g>
</g>
<!-- Node11&#45;&gt;Node12 -->
<g id="edge14_Node000011_Node000012" class="edge">
<title>Node11&#45;&gt;Node12</title>
<g id="a_edge14_Node000011_Node000012"><a xlink:title=" ">
<path fill="none" stroke="#63b8ff" d="M291.21,-23.42C304.88,-23.42 319.78,-23.42 333.08,-23.42"/>
<polygon fill="#63b8ff" stroke="#63b8ff" points="332.77,-26.92 342.77,-23.42 332.77,-19.92 332.77,-26.92"/>
</a>
</g>
</g>
<!-- Node15&#45;&gt;Node13 -->
<g id="edge20_Node000015_Node000013" class="edge">
<title>Node15&#45;&gt;Node13</title>
<g id="a_edge20_Node000015_Node000013"><a xlink:title=" ">
<path fill="none" stroke="#63b8ff" d="M274.91,-281.57C290.9,-276.66 311.12,-270.44 329.04,-264.93"/>
<polygon fill="#63b8ff" stroke="#63b8ff" points="329.86,-268.34 338.39,-262.06 327.81,-261.65 329.86,-268.34"/>
</a>
</g>
</g>
<!-- Node16 -->
<g id="Node000016" class="node">
<title>Node16</title>
<g id="a_Node000016"><a xlink:href="../../de/d25/a00290.html#ac9adcf7339be4a05ab1a7350c236b8a5" target="_top" xlink:title="Draw a box around the specified window.">
<polygon fill="white" stroke="#666666" points="393.62,-300.79 354.38,-300.79 354.38,-280.04 393.62,-280.04 393.62,-300.79"/>
<text xml:space="preserve" text-anchor="middle" x="374" y="-287.29" font-family="Helvetica,sans-Serif" font-size="10.00">cbox</text>
</a>
</g>
</g>
<!-- Node15&#45;&gt;Node16 -->
<g id="edge19_Node000015_Node000016" class="edge">
<title>Node15&#45;&gt;Node16</title>
<g id="a_edge19_Node000015_Node000016"><a xlink:title=" ">
<path fill="none" stroke="#63b8ff" d="M274.91,-290.42C295.21,-290.42 322.32,-290.42 342.9,-290.42"/>
<polygon fill="#63b8ff" stroke="#63b8ff" points="342.64,-293.92 352.64,-290.42 342.64,-286.92 342.64,-293.92"/>
</a>
</g>
</g>
<!-- Node17&#45;&gt;Node2 -->
<g id="edge22_Node000017_Node000002" class="edge">
<title>Node17&#45;&gt;Node2</title>
<g id="a_edge22_Node000017_Node000002"><a xlink:title=" ">
<path fill="none" stroke="#63b8ff" d="M216.16,-368.57C209.82,-365.96 203.49,-362.21 198.5,-357.42 157.63,-318.23 136.01,-252.06 127.71,-217.44"/>
<polygon fill="#63b8ff" stroke="#63b8ff" points="131.13,-216.71 125.56,-207.7 124.29,-218.21 131.13,-216.71"/>
</a>
</g>
</g>
<!-- Node18 -->
<g id="Node000018" class="node">
<title>Node18</title>
<g id="a_Node000018"><a xlink:href="../../de/d25/a00290.html#a4298f891699300bfc4e6e56fd2a8d574" target="_top" xlink:title="Get keycode from chyron.">
<polygon fill="white" stroke="#666666" points="420.25,-378.79 327.75,-378.79 327.75,-358.04 420.25,-358.04 420.25,-378.79"/>
<text xml:space="preserve" text-anchor="middle" x="374" y="-365.29" font-family="Helvetica,sans-Serif" font-size="10.00">get_chyron_key</text>
</a>
</g>
</g>
<!-- Node17&#45;&gt;Node18 -->
<g id="edge23_Node000017_Node000018" class="edge">
<title>Node17&#45;&gt;Node18</title>
<g id="a_edge23_Node000017_Node000018"><a xlink:title=" ">
<path fill="none" stroke="#63b8ff" d="M273.97,-368.42C286.29,-368.42 301.25,-368.42 315.78,-368.42"/>
<polygon fill="#63b8ff" stroke="#63b8ff" points="315.76,-371.92 325.76,-368.42 315.76,-364.92 315.76,-371.92"/>
</a>
</g>
</g>
</g>
</svg>

<g id="navigator" transform="translate(0 0)" fill="#404254">
  <rect fill="#f2f5e9" fill-opacity="0.5" stroke="#606060" stroke-width=".5" x="0" y="0" width="60" height="60"/>
  <use id="zoomplus" xlink:href="#zoomPlus" x="17" y="9" onmousedown="handleZoom(evt,'in')"/>
  <use id="zoomminus" xlink:href="#zoomMin" x="42" y="9" onmousedown="handleZoom(evt,'out')"/>
  <use id="reset" xlink:href="#resetDef" x="30" y="36" onmousedown="handleReset()"/>
   <use id="arrowup" xlink:href="#arrowUp" x="0" y="0" onmousedown="handlePan(0,-1)"/>
  <use id="arrowright" xlink:href="#arrowRight" x="0" y="0" onmousedown="handlePan(1,0)"/>
  <use id="arrowdown" xlink:href="#arrowDown" x="0" y="0" onmousedown="handlePan(0,1)"/>
  <use id="arrowleft" xlink:href="#arrowLeft" x="0" y="0" onmousedown="handlePan(-1,0)"/>
</g>
<svg viewBox="0 0 15 15" width="100%" height="30px" preserveAspectRatio="xMaxYMin meet">
 <g id="arrow_out" transform="scale(0.3 0.3)">
  <a xlink:href="a00284_a5bd2fb968d70ed5285cfce1ed9e33ca1_cgraph_org.svg" target="_base">
   <rect id="button" ry="5" rx="5" y="6" x="6" height="38" width="38"
        fill="#f2f5e9" fill-opacity="0.5" stroke="#606060" stroke-width="1.0"/>
   <path id="arrow"
     d="M 11.500037,31.436501 C 11.940474,20.09759 22.043105,11.32322 32.158766,21.979434 L 37.068811,17.246167 C 37.068811,17.246167 37.088388,32 37.088388,32 L 22.160133,31.978069 C 22.160133,31.978069 26.997745,27.140456 26.997745,27.140456 C 18.528582,18.264221 13.291696,25.230495 11.500037,31.436501 z"
     style="fill:#404040;"/>
  </a>
 </g>
</svg>

<style type='text/css'>
<![CDATA[
[data-mouse-over-selected='false'] { opacity: 0.7; }
[data-mouse-over-selected='true']  { opacity: 1.0; }
]]>
</style>
<script type="application/ecmascript"><![CDATA[
document.addEventListener('DOMContentLoaded', (event) => {
  highlightEdges();
  highlightAdjacentNodes();
});
]]></script>
</svg>
