<?xml version="1.0" encoding="UTF-8" standalone="no"?>
<!DOCTYPE svg PUBLIC "-//W3C//DTD SVG 1.1//EN"
 "http://www.w3.org/Graphics/SVG/1.1/DTD/svg11.dtd">
<!-- Generated by graphviz version 14.1.2 (0)
 -->
<!-- Title: write_config Pages: 1 -->
<!--zoomable 542 -->

<svg id="main" version="1.1" xmlns="http://www.w3.org/2000/svg" xmlns:xlink="http://www.w3.org/1999/xlink" xml:space="preserve" onload="init(evt)">

<style type="text/css"><![CDATA[
.node, .edge {opacity: 0.7;}
.node.selected, .edge.selected {opacity: 1;}
.edge:hover path { stroke: red; }
.edge:hover polygon { stroke: red; fill: red; }
]]></style>

<defs>
  <circle id="rim" cx="0" cy="0" r="7"/>
  <circle id="rim2" cx="0" cy="0" r="3.5"/>
  <g id="zoomPlus">
    <use xlink:href="#rim" fill="#404040"><set attributeName="fill" to="#808080" begin="zoomplus.mouseover" end="zoomplus.mouseout"/></use>
    <path d="M-4,0h8M0,-4v8" fill="none" stroke="white" stroke-width="1.5" pointer-events="none"/>
  </g>
  <g id="zoomMin">
    <use xlink:href="#rim" fill="#404040"><set attributeName="fill" to="#808080" begin="zoomminus.mouseover" end="zoomminus.mouseout"/></use>
    <path d="M-4,0h8" fill="none" stroke="white" stroke-width="1.5" pointer-events="none"/>
  </g>
  <g id="arrowUp" transform="translate(30 24)">
    <use xlink:href="#rim"/>
    <path pointer-events="none" fill="none" stroke="white" stroke-width="1.5" d="M0,-3.0v7 M-2.5,-0.5L0,-3.0L2.5,-0.5"/>
  </g>
  <g id="arrowRight" transform="rotate(90) translate(36 -43)">
    <use xlink:href="#rim"/>
    <path pointer-events="none" fill="none" stroke="white" stroke-width="1.5" d="M0,-3.0v7 M-2.5,-0.5L0,-3.0L2.5,-0.5"/>
  </g>
  <g id="arrowDown" transform="rotate(180) translate(-30 -48)">
    <use xlink:href="#rim"/>
    <path pointer-events="none" fill="none" stroke="white" stroke-width="1.5" d="M0,-3.0v7 M-2.5,-0.5L0,-3.0L2.5,-0.5"/>
  </g>
  <g id="arrowLeft" transform="rotate(270) translate(-36 17)">
    <use xlink:href="#rim"/>
    <path pointer-events="none" fill="none" stroke="white" stroke-width="1.5" d="M0,-3.0v7 M-2.5,-0.5L0,-3.0L2.5,-0.5"/>
  </g>
  <g id="resetDef">
    <use xlink:href="#rim2" fill="#404040"><set attributeName="fill" to="#808080" begin="reset.mouseover" end="reset.mouseout"/></use>
  </g>
</defs>
<script type="application/ecmascript">
var viewWidth = 936;
var viewHeight = 542;
var sectionId = 'dynsection-20';
</script>
<script type="application/ecmascript" xlink:href="../../svg.min.js"/>
<svg id="graph" class="graph">
<g id="viewport">
<title>write_config</title>
<!-- Node1 -->
<g id="Node000001" class="node">
<title>Node1</title>
<g id="a_Node000001"><a xlink:title="Write the current configuration to a file specified in init&#45;&gt;minitrc.">
<polygon fill="#999999" stroke="#666666" points="76,-191.38 0,-191.38 0,-170.62 76,-170.62 76,-191.38"/>
<text xml:space="preserve" text-anchor="middle" x="38" y="-177.88" font-family="Helvetica,sans-Serif" font-size="10.00">write_config</text>
</a>
</g>
</g>
<!-- Node2 -->
<g id="Node000002" class="node">
<title>Node2</title>
<g id="a_Node000002"><a xlink:href="../../d6/d82/a00293.html#a61b4f28456257f68ed042bed7f187efd" target="_top" xlink:title="Display a simple error message window or print to stderr.">
<polygon fill="white" stroke="#666666" points="157.25,-239.38 112,-239.38 112,-218.62 157.25,-218.62 157.25,-239.38"/>
<text xml:space="preserve" text-anchor="middle" x="134.62" y="-225.88" font-family="Helvetica,sans-Serif" font-size="10.00">Perror</text>
</a>
</g>
</g>
<!-- Node1&#45;&gt;Node2 -->
<g id="edge1_Node000001_Node000002" class="edge">
<title>Node1&#45;&gt;Node2</title>
<g id="a_edge1_Node000001_Node000002"><a xlink:title=" ">
<path fill="none" stroke="#63b8ff" d="M60,-191.65C72.41,-197.95 88.36,-206.04 102.24,-213.08"/>
<polygon fill="#63b8ff" stroke="#63b8ff" points="100.5,-216.12 111.01,-217.53 103.67,-209.88 100.5,-216.12"/>
</a>
</g>
</g>
<!-- Node8 -->
<g id="Node000008" class="node">
<title>Node8</title>
<g id="a_Node000008"><a xlink:href="../../d6/d7f/a00287.html#aa0145c044cfdde3a1c83323410a59f25" target="_top" xlink:title="safer alternative to strncat">
<polygon fill="white" stroke="#666666" points="655.88,-525.38 590.38,-525.38 590.38,-504.62 655.88,-504.62 655.88,-525.38"/>
<text xml:space="preserve" text-anchor="middle" x="623.12" y="-511.88" font-family="Helvetica,sans-Serif" font-size="10.00">strnz__cat</text>
</a>
</g>
</g>
<!-- Node1&#45;&gt;Node8 -->
<g id="edge36_Node000001_Node000008" class="edge">
<title>Node1&#45;&gt;Node8</title>
<g id="a_edge36_Node000001_Node000008"><a xlink:title=" ">
<path fill="none" stroke="#63b8ff" d="M39.89,-191.56C45.48,-250.3 80.85,-534 243.38,-534 243.38,-534 243.38,-534 378.75,-534 448.83,-534 529.93,-526.07 578.56,-520.46"/>
<polygon fill="#63b8ff" stroke="#63b8ff" points="578.88,-523.95 588.4,-519.3 578.06,-516.99 578.88,-523.95"/>
</a>
</g>
</g>
<!-- Node13 -->
<g id="Node000013" class="node">
<title>Node13</title>
<g id="a_Node000013"><a xlink:href="../../d6/d7f/a00287.html#a0de2e40df9bd7efc8fd9afb8ad2257e6" target="_top" xlink:title="safer alternative to strncpy">
<polygon fill="white" stroke="#666666" points="657,-86.38 589.25,-86.38 589.25,-65.62 657,-65.62 657,-86.38"/>
<text xml:space="preserve" text-anchor="middle" x="623.12" y="-72.88" font-family="Helvetica,sans-Serif" font-size="10.00">strnz__cpy</text>
</a>
</g>
</g>
<!-- Node1&#45;&gt;Node13 -->
<g id="edge37_Node000001_Node000013" class="edge">
<title>Node1&#45;&gt;Node13</title>
<g id="a_edge37_Node000001_Node000013"><a xlink:title=" ">
<path fill="none" stroke="#63b8ff" d="M44.34,-170.22C64.5,-131.25 140.05,0 243.38,0 243.38,0 243.38,0 378.75,0 458.7,0 546.97,-37.83 592.04,-60.11"/>
<polygon fill="#63b8ff" stroke="#63b8ff" points="590.42,-63.21 600.92,-64.59 593.57,-56.96 590.42,-63.21"/>
</a>
</g>
</g>
<!-- Node20 -->
<g id="Node000020" class="node">
<title>Node20</title>
<g id="a_Node000020"><a xlink:href="../../db/dc3/a00284.html#afc067c129a46582ffeee5bd63ebcbf9f" target="_top" xlink:title="Convert prompt type integer constant to string.">
<polygon fill="white" stroke="#666666" points="295.5,-48.38 193.25,-48.38 193.25,-27.62 295.5,-27.62 295.5,-48.38"/>
<text xml:space="preserve" text-anchor="middle" x="244.38" y="-34.88" font-family="Helvetica,sans-Serif" font-size="10.00">prompt_int_to_str</text>
</a>
</g>
</g>
<!-- Node1&#45;&gt;Node20 -->
<g id="edge34_Node000001_Node000020" class="edge">
<title>Node1&#45;&gt;Node20</title>
<g id="a_edge34_Node000001_Node000020"><a xlink:title=" ">
<path fill="none" stroke="#63b8ff" d="M51.14,-170.18C76.37,-148.05 136.8,-96.75 193.25,-62 197.88,-59.15 202.91,-56.39 207.93,-53.82"/>
<polygon fill="#63b8ff" stroke="#63b8ff" points="209.3,-57.04 216.74,-49.5 206.22,-50.76 209.3,-57.04"/>
</a>
</g>
</g>
<!-- Node3 -->
<g id="Node000003" class="node">
<title>Node3</title>
<g id="a_Node000003"><a xlink:href="../../d6/d82/a00293.html#a8f6c45ca4a7f6a41c4c88314e697565a" target="_top" xlink:title="Abnormal program termination.">
<polygon fill="white" stroke="#666666" points="646.12,-391.38 600.12,-391.38 600.12,-370.62 646.12,-370.62 646.12,-391.38"/>
<text xml:space="preserve" text-anchor="middle" x="623.12" y="-377.88" font-family="Helvetica,sans-Serif" font-size="10.00">abend</text>
</a>
</g>
</g>
<!-- Node2&#45;&gt;Node3 -->
<g id="edge2_Node000002_Node000003" class="edge">
<title>Node2&#45;&gt;Node3</title>
<g id="a_edge2_Node000002_Node000003"><a xlink:title=" ">
<path fill="none" stroke="#63b8ff" d="M136.51,-239.62C139.37,-267.2 150.84,-341.75 193.25,-382 240.02,-426.39 268.36,-412.91 331.5,-426 428.17,-446.05 460.51,-472.85 553.25,-439 574.45,-431.26 593.65,-413.8 606.35,-400.05"/>
<polygon fill="#63b8ff" stroke="#63b8ff" points="608.74,-402.64 612.72,-392.82 603.48,-398.01 608.74,-402.64"/>
</a>
</g>
</g>
<!-- Node7 -->
<g id="Node000007" class="node">
<title>Node7</title>
<g id="a_Node000007"><a xlink:href="../../d6/d82/a00293.html#a645871e46277e31736bc36d0f3dce4bd" target="_top" xlink:title="construct the chyron string from the chyron structure">
<polygon fill="white" stroke="#666666" points="553.25,-506.38 460,-506.38 460,-485.62 553.25,-485.62 553.25,-506.38"/>
<text xml:space="preserve" text-anchor="middle" x="506.62" y="-492.88" font-family="Helvetica,sans-Serif" font-size="10.00">compile_chyron</text>
</a>
</g>
</g>
<!-- Node2&#45;&gt;Node7 -->
<g id="edge8_Node000002_Node000007" class="edge">
<title>Node2&#45;&gt;Node7</title>
<g id="a_edge8_Node000002_Node000007"><a xlink:title=" ">
<path fill="none" stroke="#63b8ff" d="M136.52,-239.64C140.35,-282.39 156.83,-440.87 193.25,-472 265.21,-533.52 383.73,-522.48 452.22,-509.11"/>
<polygon fill="#63b8ff" stroke="#63b8ff" points="452.6,-512.6 461.7,-507.17 451.2,-505.74 452.6,-512.6"/>
</a>
</g>
</g>
<!-- Node9 -->
<g id="Node000009" class="node">
<title>Node9</title>
<g id="a_Node000009"><a xlink:href="../../d6/d82/a00293.html#a3f3feb40fd703913c5c136331f627c91" target="_top" xlink:title="Destroy Chyron structure.">
<polygon fill="white" stroke="#666666" points="552.12,-430.38 461.12,-430.38 461.12,-409.62 552.12,-409.62 552.12,-430.38"/>
<text xml:space="preserve" text-anchor="middle" x="506.62" y="-416.88" font-family="Helvetica,sans-Serif" font-size="10.00">destroy_chyron</text>
</a>
</g>
</g>
<!-- Node2&#45;&gt;Node9 -->
<g id="edge10_Node000002_Node000009" class="edge">
<title>Node2&#45;&gt;Node9</title>
<g id="a_edge10_Node000002_Node000009"><a xlink:title=" ">
<path fill="none" stroke="#63b8ff" d="M138.08,-239.82C143.75,-262.3 159.9,-314.26 193.25,-342 266.68,-403.07 381.25,-417.37 449.33,-420.12"/>
<polygon fill="#63b8ff" stroke="#63b8ff" points="449.04,-423.61 459.14,-420.44 449.26,-416.62 449.04,-423.61"/>
</a>
</g>
</g>
<!-- Node10 -->
<g id="Node000010" class="node">
<title>Node10</title>
<g id="a_Node000010"><a xlink:href="../../d6/d82/a00293.html#ad37d5808ff30ae6894780425d865abae" target="_top" xlink:title="Create and initialize Chyron structure.">
<polygon fill="white" stroke="#666666" points="543.88,-391.38 469.38,-391.38 469.38,-370.62 543.88,-370.62 543.88,-391.38"/>
<text xml:space="preserve" text-anchor="middle" x="506.62" y="-377.88" font-family="Helvetica,sans-Serif" font-size="10.00">new_chyron</text>
</a>
</g>
</g>
<!-- Node2&#45;&gt;Node10 -->
<g id="edge11_Node000002_Node000010" class="edge">
<title>Node2&#45;&gt;Node10</title>
<g id="a_edge11_Node000002_Node000010"><a xlink:title=" ">
<path fill="none" stroke="#63b8ff" d="M140.69,-239.69C149.15,-256.34 167.77,-288.29 193.25,-305 275.64,-359.02 392.92,-374.68 457.81,-379.19"/>
<polygon fill="#63b8ff" stroke="#63b8ff" points="457.59,-382.69 467.79,-379.82 458.02,-375.7 457.59,-382.69"/>
</a>
</g>
</g>
<!-- Node11 -->
<g id="Node000011" class="node">
<title>Node11</title>
<g id="a_Node000011"><a xlink:href="../../d6/d82/a00293.html#a208ce92c197fdd6d2b007987e534aa3b" target="_top" xlink:title="Set chyron key.">
<polygon fill="white" stroke="#666666" points="552.5,-277.38 460.75,-277.38 460.75,-256.62 552.5,-256.62 552.5,-277.38"/>
<text xml:space="preserve" text-anchor="middle" x="506.62" y="-263.88" font-family="Helvetica,sans-Serif" font-size="10.00">set_chyron_key</text>
</a>
</g>
</g>
<!-- Node2&#45;&gt;Node11 -->
<g id="edge13_Node000002_Node000011" class="edge">
<title>Node2&#45;&gt;Node11</title>
<g id="a_edge13_Node000002_Node000011"><a xlink:title=" ">
<path fill="none" stroke="#63b8ff" d="M157.46,-229.23C205.76,-230 325.23,-233.35 424,-248 433.83,-249.46 444.22,-251.49 454.18,-253.69"/>
<polygon fill="#63b8ff" stroke="#63b8ff" points="453.18,-257.05 463.71,-255.88 454.75,-250.23 453.18,-257.05"/>
</a>
</g>
</g>
<!-- Node12 -->
<g id="Node000012" class="node">
<title>Node12</title>
<g id="a_Node000012"><a xlink:href="../../d6/d7f/a00287.html#a63eb94756fb011a456a3dec900709cd8" target="_top" xlink:title="ssnprintf was designed to be a safer alternative to snprintf.">
<polygon fill="white" stroke="#666666" points="652.5,-277.38 593.75,-277.38 593.75,-256.62 652.5,-256.62 652.5,-277.38"/>
<text xml:space="preserve" text-anchor="middle" x="623.12" y="-263.88" font-family="Helvetica,sans-Serif" font-size="10.00">ssnprintf</text>
</a>
</g>
</g>
<!-- Node2&#45;&gt;Node12 -->
<g id="edge15_Node000002_Node000012" class="edge">
<title>Node2&#45;&gt;Node12</title>
<g id="a_edge15_Node000002_Node000012"><a xlink:title=" ">
<path fill="none" stroke="#63b8ff" d="M157.51,-227.59C168.27,-226.97 181.43,-226.31 193.25,-226 353.49,-221.83 395.79,-217.96 553.25,-248 562.88,-249.84 573.14,-252.35 582.71,-254.95"/>
<polygon fill="#63b8ff" stroke="#63b8ff" points="581.52,-258.25 592.09,-257.59 583.42,-251.51 581.52,-258.25"/>
</a>
</g>
</g>
<!-- Node2&#45;&gt;Node13 -->
<g id="edge16_Node000002_Node000013" class="edge">
<title>Node2&#45;&gt;Node13</title>
<g id="a_edge16_Node000002_Node000013"><a xlink:title=" ">
<path fill="none" stroke="#63b8ff" d="M137.15,-218.39C141.25,-194.25 154.91,-135.23 193.25,-109 254.71,-66.96 480.69,-70.39 577.56,-73.96"/>
<polygon fill="#63b8ff" stroke="#63b8ff" points="577.34,-77.46 587.47,-74.35 577.62,-70.46 577.34,-77.46"/>
</a>
</g>
</g>
<!-- Node14 -->
<g id="Node000014" class="node">
<title>Node14</title>
<g id="a_Node000014"><a xlink:href="../../d6/d82/a00293.html#a9dd598e1d49c8764af1eec42c682623e" target="_top" xlink:title="Delete the current window and its associated box window.">
<polygon fill="white" stroke="#666666" points="533.38,-124.38 479.88,-124.38 479.88,-103.62 533.38,-103.62 533.38,-124.38"/>
<text xml:space="preserve" text-anchor="middle" x="506.62" y="-110.88" font-family="Helvetica,sans-Serif" font-size="10.00">win_del</text>
</a>
</g>
</g>
<!-- Node2&#45;&gt;Node14 -->
<g id="edge17_Node000002_Node000014" class="edge">
<title>Node2&#45;&gt;Node14</title>
<g id="a_edge17_Node000002_Node000014"><a xlink:title=" ">
<path fill="none" stroke="#63b8ff" d="M139.69,-218.23C147.19,-200.03 165.05,-163.59 193.25,-147 280.9,-95.44 406.61,-101.48 468.42,-108.57"/>
<polygon fill="#63b8ff" stroke="#63b8ff" points="467.69,-112.01 478.05,-109.76 468.55,-105.06 467.69,-112.01"/>
</a>
</g>
</g>
<!-- Node15 -->
<g id="Node000015" class="node">
<title>Node15</title>
<g id="a_Node000015"><a xlink:href="../../d6/d82/a00293.html#a435c7bff7ffedb8f51c6de9259e36f6c" target="_top" xlink:title="Create a new window with optional box and title.">
<polygon fill="white" stroke="#666666" points="536,-163.38 477.25,-163.38 477.25,-142.62 536,-142.62 536,-163.38"/>
<text xml:space="preserve" text-anchor="middle" x="506.62" y="-149.88" font-family="Helvetica,sans-Serif" font-size="10.00">win_new</text>
</a>
</g>
</g>
<!-- Node2&#45;&gt;Node15 -->
<g id="edge18_Node000002_Node000015" class="edge">
<title>Node2&#45;&gt;Node15</title>
<g id="a_edge18_Node000002_Node000015"><a xlink:title=" ">
<path fill="none" stroke="#63b8ff" d="M143.64,-218.4C153.69,-206 172.2,-186.03 193.25,-177 284.58,-137.8 404.68,-142.33 465.95,-148.14"/>
<polygon fill="#63b8ff" stroke="#63b8ff" points="465.23,-151.58 475.53,-149.11 465.93,-144.62 465.23,-151.58"/>
</a>
</g>
</g>
<!-- Node17 -->
<g id="Node000017" class="node">
<title>Node17</title>
<g id="a_Node000017"><a xlink:href="../../d6/d82/a00293.html#acf4c709bccc4c965a5d61db978db31a3" target="_top" xlink:title="Wrapper for wgetch that handles signals and mouse events.">
<polygon fill="white" stroke="#666666" points="273,-296.38 215.75,-296.38 215.75,-275.62 273,-275.62 273,-296.38"/>
<text xml:space="preserve" text-anchor="middle" x="244.38" y="-282.88" font-family="Helvetica,sans-Serif" font-size="10.00">xwgetch</text>
</a>
</g>
</g>
<!-- Node2&#45;&gt;Node17 -->
<g id="edge21_Node000002_Node000017" class="edge">
<title>Node2&#45;&gt;Node17</title>
<g id="a_edge21_Node000002_Node000017"><a xlink:title=" ">
<path fill="none" stroke="#63b8ff" d="M156.15,-239.86C172.17,-248.33 194.69,-260.25 212.84,-269.84"/>
<polygon fill="#63b8ff" stroke="#63b8ff" points="211.12,-272.89 221.59,-274.48 214.39,-266.71 211.12,-272.89"/>
</a>
</g>
</g>
<!-- Node4 -->
<g id="Node000004" class="node">
<title>Node4</title>
<g id="a_Node000004"><a xlink:href="../../d6/d82/a00293.html#afc0985a403e3eac0b2cd8f0fab500256" target="_top" xlink:title="Gracefully shut down NCurses and restore terminal settings.">
<polygon fill="white" stroke="#666666" points="782.5,-391.38 693,-391.38 693,-370.62 782.5,-370.62 782.5,-391.38"/>
<text xml:space="preserve" text-anchor="middle" x="737.75" y="-377.88" font-family="Helvetica,sans-Serif" font-size="10.00">destroy_curses</text>
</a>
</g>
</g>
<!-- Node3&#45;&gt;Node4 -->
<g id="edge3_Node000003_Node000004" class="edge">
<title>Node3&#45;&gt;Node4</title>
<g id="a_edge3_Node000003_Node000004"><a xlink:title=" ">
<path fill="none" stroke="#63b8ff" d="M646.38,-381C656.49,-381 668.94,-381 681.34,-381"/>
<polygon fill="#63b8ff" stroke="#63b8ff" points="681.13,-384.5 691.13,-381 681.13,-377.5 681.13,-384.5"/>
</a>
</g>
</g>
<!-- Node5 -->
<g id="Node000005" class="node">
<title>Node5</title>
<g id="a_Node000005"><a xlink:href="../../df/d95/a00299.html#ac5e3adb304b78910fc77761ef6a743f0" target="_top" xlink:title="restore_shell_tioctl() &#45; restore shell terminal settings">
<polygon fill="white" stroke="#666666" points="927.5,-419.38 818.5,-419.38 818.5,-398.62 927.5,-398.62 927.5,-419.38"/>
<text xml:space="preserve" text-anchor="middle" x="873" y="-405.88" font-family="Helvetica,sans-Serif" font-size="10.00">restore_shell_tioctl</text>
</a>
</g>
</g>
<!-- Node3&#45;&gt;Node5 -->
<g id="edge6_Node000003_Node000005" class="edge">
<title>Node3&#45;&gt;Node5</title>
<g id="a_edge6_Node000003_Node000005"><a xlink:title=" ">
<path fill="none" stroke="#63b8ff" d="M646.5,-388.51C659.84,-392.65 677.2,-397.46 693,-400 730.4,-406.02 772.71,-408.35 806.8,-409.14"/>
<polygon fill="#63b8ff" stroke="#63b8ff" points="806.45,-412.63 816.51,-409.32 806.58,-405.64 806.45,-412.63"/>
</a>
</g>
</g>
<!-- Node6 -->
<g id="Node000006" class="node">
<title>Node6</title>
<g id="a_Node000006"><a xlink:href="../../d3/d1a/a00251.html#a06c1eb6cf3649dc187115565409f91af" target="_top" xlink:title="Set signal handlers to default behavior.">
<polygon fill="white" stroke="#666666" points="913.62,-371.38 832.38,-371.38 832.38,-350.62 913.62,-350.62 913.62,-371.38"/>
<text xml:space="preserve" text-anchor="middle" x="873" y="-357.88" font-family="Helvetica,sans-Serif" font-size="10.00">sig_dfl_mode</text>
</a>
</g>
</g>
<!-- Node3&#45;&gt;Node6 -->
<g id="edge7_Node000003_Node000006" class="edge">
<title>Node3&#45;&gt;Node6</title>
<g id="a_edge7_Node000003_Node000006"><a xlink:title=" ">
<path fill="none" stroke="#63b8ff" d="M646.46,-373.23C659.78,-369 677.15,-364.19 693,-362 735.78,-356.09 784.86,-356.3 820.79,-357.73"/>
<polygon fill="#63b8ff" stroke="#63b8ff" points="820.31,-361.21 830.46,-358.16 820.63,-354.22 820.31,-361.21"/>
</a>
</g>
</g>
<!-- Node4&#45;&gt;Node5 -->
<g id="edge4_Node000004_Node000005" class="edge">
<title>Node4&#45;&gt;Node5</title>
<g id="a_edge4_Node000004_Node000005"><a xlink:title=" ">
<path fill="none" stroke="#63b8ff" d="M782.75,-390.25C791.37,-392.06 800.57,-393.99 809.66,-395.9"/>
<polygon fill="#63b8ff" stroke="#63b8ff" points="808.66,-399.27 819.17,-397.9 810.1,-392.42 808.66,-399.27"/>
</a>
</g>
</g>
<!-- Node4&#45;&gt;Node6 -->
<g id="edge5_Node000004_Node000006" class="edge">
<title>Node4&#45;&gt;Node6</title>
<g id="a_edge5_Node000004_Node000006"><a xlink:title=" ">
<path fill="none" stroke="#63b8ff" d="M782.75,-374.4C794.94,-372.57 808.27,-370.57 820.83,-368.68"/>
<polygon fill="#63b8ff" stroke="#63b8ff" points="821.23,-372.16 830.6,-367.21 820.19,-365.24 821.23,-372.16"/>
</a>
</g>
</g>
<!-- Node7&#45;&gt;Node8 -->
<g id="edge9_Node000007_Node000008" class="edge">
<title>Node7&#45;&gt;Node8</title>
<g id="a_edge9_Node000007_Node000008"><a xlink:title=" ">
<path fill="none" stroke="#63b8ff" d="M553.54,-503.62C561.83,-504.99 570.44,-506.42 578.66,-507.79"/>
<polygon fill="#63b8ff" stroke="#63b8ff" points="578,-511.23 588.44,-509.41 579.15,-504.32 578,-511.23"/>
</a>
</g>
</g>
<!-- Node10&#45;&gt;Node3 -->
<g id="edge12_Node000010_Node000003" class="edge">
<title>Node10&#45;&gt;Node3</title>
<g id="a_edge12_Node000010_Node000003"><a xlink:title=" ">
<path fill="none" stroke="#63b8ff" d="M544.17,-381C558.49,-381 574.8,-381 588.79,-381"/>
<polygon fill="#63b8ff" stroke="#63b8ff" points="588.39,-384.5 598.39,-381 588.39,-377.5 588.39,-384.5"/>
</a>
</g>
</g>
<!-- Node11&#45;&gt;Node12 -->
<g id="edge14_Node000011_Node000012" class="edge">
<title>Node11&#45;&gt;Node12</title>
<g id="a_edge14_Node000011_Node000012"><a xlink:title=" ">
<path fill="none" stroke="#63b8ff" d="M552.88,-267C562.46,-267 572.51,-267 581.89,-267"/>
<polygon fill="#63b8ff" stroke="#63b8ff" points="581.82,-270.5 591.82,-267 581.82,-263.5 581.82,-270.5"/>
</a>
</g>
</g>
<!-- Node15&#45;&gt;Node13 -->
<g id="edge20_Node000015_Node000013" class="edge">
<title>Node15&#45;&gt;Node13</title>
<g id="a_edge20_Node000015_Node000013"><a xlink:title=" ">
<path fill="none" stroke="#63b8ff" d="M535.76,-142.14C541.69,-139.44 547.8,-136.36 553.25,-133 571.29,-121.89 589.67,-106.42 602.9,-94.4"/>
<polygon fill="#63b8ff" stroke="#63b8ff" points="605.11,-97.12 610.06,-87.76 600.35,-91.99 605.11,-97.12"/>
</a>
</g>
</g>
<!-- Node16 -->
<g id="Node000016" class="node">
<title>Node16</title>
<g id="a_Node000016"><a xlink:href="../../d6/d82/a00293.html#ac9adcf7339be4a05ab1a7350c236b8a5" target="_top" xlink:title="Draw a box around the specified window.">
<polygon fill="white" stroke="#666666" points="642.75,-163.38 603.5,-163.38 603.5,-142.62 642.75,-142.62 642.75,-163.38"/>
<text xml:space="preserve" text-anchor="middle" x="623.12" y="-149.88" font-family="Helvetica,sans-Serif" font-size="10.00">cbox</text>
</a>
</g>
</g>
<!-- Node15&#45;&gt;Node16 -->
<g id="edge19_Node000015_Node000016" class="edge">
<title>Node15&#45;&gt;Node16</title>
<g id="a_edge19_Node000015_Node000016"><a xlink:title=" ">
<path fill="none" stroke="#63b8ff" d="M536.22,-153C553.15,-153 574.57,-153 591.79,-153"/>
<polygon fill="#63b8ff" stroke="#63b8ff" points="591.69,-156.5 601.69,-153 591.69,-149.5 591.69,-156.5"/>
</a>
</g>
</g>
<!-- Node18 -->
<g id="Node000018" class="node">
<title>Node18</title>
<g id="a_Node000018"><a xlink:href="../../d6/d82/a00293.html#a67659f8a701b74f4dec0d36227a10d1c" target="_top" xlink:title="Display an error message window or print to stderr.">
<polygon fill="white" stroke="#666666" points="417.62,-316.38 337.88,-316.38 337.88,-295.62 417.62,-295.62 417.62,-316.38"/>
<text xml:space="preserve" text-anchor="middle" x="377.75" y="-302.88" font-family="Helvetica,sans-Serif" font-size="10.00">display_error</text>
</a>
</g>
</g>
<!-- Node17&#45;&gt;Node18 -->
<g id="edge22_Node000017_Node000018" class="edge">
<title>Node17&#45;&gt;Node18</title>
<g id="a_edge22_Node000017_Node000018"><a xlink:title=" ">
<path fill="none" stroke="#63b8ff" d="M273.24,-284.61C290.61,-286.09 313.35,-289.3 333.09,-292.95"/>
<polygon fill="#63b8ff" stroke="#63b8ff" points="332.33,-296.37 342.81,-294.85 333.67,-289.5 332.33,-296.37"/>
</a>
</g>
</g>
<!-- Node19 -->
<g id="Node000019" class="node">
<title>Node19</title>
<g id="a_Node000019"><a xlink:href="../../d6/d82/a00293.html#a4298f891699300bfc4e6e56fd2a8d574" target="_top" xlink:title="Get keycode from chyron.">
<polygon fill="white" stroke="#666666" points="424,-277.38 331.5,-277.38 331.5,-256.62 424,-256.62 424,-277.38"/>
<text xml:space="preserve" text-anchor="middle" x="377.75" y="-263.88" font-family="Helvetica,sans-Serif" font-size="10.00">get_chyron_key</text>
</a>
</g>
</g>
<!-- Node17&#45;&gt;Node19 -->
<g id="edge33_Node000017_Node000019" class="edge">
<title>Node17&#45;&gt;Node19</title>
<g id="a_edge33_Node000017_Node000019"><a xlink:title=" ">
<path fill="none" stroke="#63b8ff" d="M273.24,-281.97C286.88,-280 303.83,-277.55 320.04,-275.2"/>
<polygon fill="#63b8ff" stroke="#63b8ff" points="320.2,-278.71 329.6,-273.82 319.2,-271.79 320.2,-278.71"/>
</a>
</g>
</g>
<!-- Node18&#45;&gt;Node3 -->
<g id="edge23_Node000018_Node000003" class="edge">
<title>Node18&#45;&gt;Node3</title>
<g id="a_edge23_Node000018_Node000003"><a xlink:title=" ">
<path fill="none" stroke="#63b8ff" d="M413.88,-316.83C460.72,-331.26 543.04,-356.63 588.9,-370.76"/>
<polygon fill="#63b8ff" stroke="#63b8ff" points="587.7,-374.05 598.28,-373.65 589.76,-367.36 587.7,-374.05"/>
</a>
</g>
</g>
<!-- Node18&#45;&gt;Node7 -->
<g id="edge24_Node000018_Node000007" class="edge">
<title>Node18&#45;&gt;Node7</title>
<g id="a_edge24_Node000018_Node000007"><a xlink:title=" ">
<path fill="none" stroke="#63b8ff" d="M384.63,-316.63C397.45,-339.56 429.23,-395.14 460,-439 469.12,-452 480.24,-465.93 489.22,-476.77"/>
<polygon fill="#63b8ff" stroke="#63b8ff" points="486.38,-478.82 495.48,-484.23 491.74,-474.32 486.38,-478.82"/>
</a>
</g>
</g>
<!-- Node18&#45;&gt;Node9 -->
<g id="edge25_Node000018_Node000009" class="edge">
<title>Node18&#45;&gt;Node9</title>
<g id="a_edge25_Node000018_Node000009"><a xlink:title=" ">
<path fill="none" stroke="#63b8ff" d="M385.59,-316.67C398.24,-335.68 427.02,-375.67 460,-400 461.77,-401.31 463.65,-402.56 465.58,-403.74"/>
<polygon fill="#63b8ff" stroke="#63b8ff" points="463.81,-406.76 474.27,-408.42 467.12,-400.59 463.81,-406.76"/>
</a>
</g>
</g>
<!-- Node18&#45;&gt;Node10 -->
<g id="edge26_Node000018_Node000010" class="edge">
<title>Node18&#45;&gt;Node10</title>
<g id="a_edge26_Node000018_Node000010"><a xlink:title=" ">
<path fill="none" stroke="#63b8ff" d="M395.02,-316.73C411.27,-327.31 437.05,-343.79 460,-357 464.7,-359.7 469.73,-362.47 474.67,-365.12"/>
<polygon fill="#63b8ff" stroke="#63b8ff" points="472.73,-368.06 483.21,-369.63 476,-361.87 472.73,-368.06"/>
</a>
</g>
</g>
<!-- Node18&#45;&gt;Node11 -->
<g id="edge27_Node000018_Node000011" class="edge">
<title>Node18&#45;&gt;Node11</title>
<g id="a_edge27_Node000018_Node000011"><a xlink:title=" ">
<path fill="none" stroke="#63b8ff" d="M414.09,-295.14C428.25,-290.78 444.75,-285.71 459.81,-281.08"/>
<polygon fill="#63b8ff" stroke="#63b8ff" points="460.5,-284.53 469.03,-278.25 458.44,-277.84 460.5,-284.53"/>
</a>
</g>
</g>
<!-- Node18&#45;&gt;Node12 -->
<g id="edge28_Node000018_Node000012" class="edge">
<title>Node18&#45;&gt;Node12</title>
<g id="a_edge28_Node000018_Node000012"><a xlink:title=" ">
<path fill="none" stroke="#63b8ff" d="M417.83,-303.26C453.37,-300.37 507.15,-294.94 553.25,-286 562.88,-284.13 573.13,-281.61 582.7,-279.01"/>
<polygon fill="#63b8ff" stroke="#63b8ff" points="583.41,-282.44 592.08,-276.36 581.51,-275.7 583.41,-282.44"/>
</a>
</g>
</g>
<!-- Node18&#45;&gt;Node13 -->
<g id="edge29_Node000018_Node000013" class="edge">
<title>Node18&#45;&gt;Node13</title>
<g id="a_edge29_Node000018_Node000013"><a xlink:title=" ">
<path fill="none" stroke="#63b8ff" d="M407.92,-295.16C413.48,-292.53 419.09,-289.47 424,-286 443.01,-272.59 442.95,-263.83 460,-248 499.19,-211.63 516.62,-210.95 553.25,-172 575.64,-148.19 596.85,-116.82 609.66,-96.53"/>
<polygon fill="#63b8ff" stroke="#63b8ff" points="612.62,-98.4 614.92,-88.06 606.67,-94.71 612.62,-98.4"/>
</a>
</g>
</g>
<!-- Node18&#45;&gt;Node14 -->
<g id="edge30_Node000018_Node000014" class="edge">
<title>Node18&#45;&gt;Node14</title>
<g id="a_edge30_Node000018_Node000014"><a xlink:title=" ">
<path fill="none" stroke="#63b8ff" d="M412.82,-295.22C417.03,-292.74 420.93,-289.7 424,-286 468.38,-232.62 415.54,-187.32 460,-134 462.71,-130.75 466.04,-128.02 469.67,-125.72"/>
<polygon fill="#63b8ff" stroke="#63b8ff" points="471.06,-128.94 478.37,-121.27 467.87,-122.71 471.06,-128.94"/>
</a>
</g>
</g>
<!-- Node18&#45;&gt;Node15 -->
<g id="edge31_Node000018_Node000015" class="edge">
<title>Node18&#45;&gt;Node15</title>
<g id="a_edge31_Node000018_Node000015"><a xlink:title=" ">
<path fill="none" stroke="#63b8ff" d="M410.67,-295.26C415.49,-292.73 420.14,-289.66 424,-286 449.67,-261.66 441.45,-245.13 460,-215 469.09,-200.24 480.68,-184.52 489.9,-172.61"/>
<polygon fill="#63b8ff" stroke="#63b8ff" points="492.62,-174.81 496.05,-164.79 487.12,-170.48 492.62,-174.81"/>
</a>
</g>
</g>
<!-- Node18&#45;&gt;Node17 -->
<g id="edge32_Node000018_Node000017" class="edge">
<title>Node18&#45;&gt;Node17</title>
<g id="a_edge32_Node000018_Node000017"><a xlink:title=" ">
<path fill="none" stroke="#63b8ff" d="M337.47,-306.26C320.66,-304.39 301.09,-301.4 284.33,-298.16"/>
<polygon fill="#63b8ff" stroke="#63b8ff" points="285.22,-294.77 274.72,-296.18 283.81,-301.62 285.22,-294.77"/>
</a>
</g>
</g>
<!-- Node20&#45;&gt;Node13 -->
<g id="edge35_Node000020_Node000013" class="edge">
<title>Node20&#45;&gt;Node13</title>
<g id="a_edge35_Node000020_Node000013"><a xlink:title=" ">
<path fill="none" stroke="#63b8ff" d="M295.98,-40.04C357.15,-42.94 463.12,-49.38 553.25,-62 561.22,-63.12 569.65,-64.59 577.78,-66.15"/>
<polygon fill="#63b8ff" stroke="#63b8ff" points="577.01,-69.57 587.5,-68.11 578.39,-62.71 577.01,-69.57"/>
</a>
</g>
</g>
</g>
</svg>

<g id="navigator" transform="translate(0 0)" fill="#404254">
  <rect fill="#f2f5e9" fill-opacity="0.5" stroke="#606060" stroke-width=".5" x="0" y="0" width="60" height="60"/>
  <use id="zoomplus" xlink:href="#zoomPlus" x="17" y="9" onmousedown="handleZoom(evt,'in')"/>
  <use id="zoomminus" xlink:href="#zoomMin" x="42" y="9" onmousedown="handleZoom(evt,'out')"/>
  <use id="reset" xlink:href="#resetDef" x="30" y="36" onmousedown="handleReset()"/>
   <use id="arrowup" xlink:href="#arrowUp" x="0" y="0" onmousedown="handlePan(0,-1)"/>
  <use id="arrowright" xlink:href="#arrowRight" x="0" y="0" onmousedown="handlePan(1,0)"/>
  <use id="arrowdown" xlink:href="#arrowDown" x="0" y="0" onmousedown="handlePan(0,1)"/>
  <use id="arrowleft" xlink:href="#arrowLeft" x="0" y="0" onmousedown="handlePan(-1,0)"/>
</g>
<svg viewBox="0 0 15 15" width="100%" height="30px" preserveAspectRatio="xMaxYMin meet">
 <g id="arrow_out" transform="scale(0.3 0.3)">
  <a xlink:href="a00284_a4b671c384affcc6dc1ed59a04d666cc7_cgraph_org.svg" target="_base">
   <rect id="button" ry="5" rx="5" y="6" x="6" height="38" width="38"
        fill="#f2f5e9" fill-opacity="0.5" stroke="#606060" stroke-width="1.0"/>
   <path id="arrow"
     d="M 11.500037,31.436501 C 11.940474,20.09759 22.043105,11.32322 32.158766,21.979434 L 37.068811,17.246167 C 37.068811,17.246167 37.088388,32 37.088388,32 L 22.160133,31.978069 C 22.160133,31.978069 26.997745,27.140456 26.997745,27.140456 C 18.528582,18.264221 13.291696,25.230495 11.500037,31.436501 z"
     style="fill:#404040;"/>
  </a>
 </g>
</svg>

<style type='text/css'>
<![CDATA[
[data-mouse-over-selected='false'] { opacity: 0.7; }
[data-mouse-over-selected='true']  { opacity: 1.0; }
]]>
</style>
<script type="application/ecmascript"><![CDATA[
document.addEventListener('DOMContentLoaded', (event) => {
  highlightEdges();
  highlightAdjacentNodes();
});
]]></script>
</svg>
