<?xml version="1.0" encoding="UTF-8" standalone="no"?>
<!DOCTYPE svg PUBLIC "-//W3C//DTD SVG 1.1//EN"
 "http://www.w3.org/Graphics/SVG/1.1/DTD/svg11.dtd">
<!-- Generated by graphviz version 14.1.2 (0)
 -->
<!-- Title: ckeys.c Pages: 1 -->
<svg width="166pt" height="86pt"
 viewBox="0.00 0.00 166.00 86.00" xmlns="http://www.w3.org/2000/svg" xmlns:xlink="http://www.w3.org/1999/xlink">
<g id="graph0" class="graph" transform="scale(1 1) rotate(0) translate(4 81.5)">
<title>ckeys.c</title>
<!-- Node1 -->
<g id="Node000001" class="node">
<title>Node1</title>
<g id="a_Node000001"><a xlink:title="Test Curses Keys.">
<polygon fill="#999999" stroke="#666666" points="103.88,-77.5 51.88,-77.5 51.88,-56.75 103.88,-56.75 103.88,-77.5"/>
<text xml:space="preserve" text-anchor="middle" x="77.88" y="-64" font-family="Helvetica,sans-Serif" font-size="10.00">ckeys.c</text>
</a>
</g>
</g>
<!-- Node2 -->
<g id="Node000002" class="node">
<title>Node2</title>
<g id="a_Node000002"><a xlink:title=" ">
<polygon fill="#e0e0e0" stroke="#999999" points="67.75,-20.75 0,-20.75 0,0 67.75,0 67.75,-20.75"/>
<text xml:space="preserve" text-anchor="middle" x="33.88" y="-7.25" font-family="Helvetica,sans-Serif" font-size="10.00">common.h</text>
</a>
</g>
</g>
<!-- Node1&#45;&gt;Node2 -->
<g id="edge1_Node000001_Node000002" class="edge">
<title>Node1&#45;&gt;Node2</title>
<g id="a_edge1_Node000001_Node000002"><a xlink:title=" ">
<path fill="none" stroke="#63b8ff" d="M70.01,-56.34C64.13,-49.02 55.91,-38.79 48.8,-29.94"/>
<polygon fill="#63b8ff" stroke="#63b8ff" points="51.61,-27.86 42.62,-22.26 46.16,-32.25 51.61,-27.86"/>
</a>
</g>
</g>
<!-- Node3 -->
<g id="Node000003" class="node">
<title>Node3</title>
<g id="a_Node000003"><a xlink:title=" ">
<polygon fill="#e0e0e0" stroke="#999999" points="157.62,-20.75 86.12,-20.75 86.12,0 157.62,0 157.62,-20.75"/>
<text xml:space="preserve" text-anchor="middle" x="121.88" y="-7.25" font-family="Helvetica,sans-Serif" font-size="10.00">sys/types.h</text>
</a>
</g>
</g>
<!-- Node1&#45;&gt;Node3 -->
<g id="edge2_Node000001_Node000003" class="edge">
<title>Node1&#45;&gt;Node3</title>
<g id="a_edge2_Node000001_Node000003"><a xlink:title=" ">
<path fill="none" stroke="#63b8ff" d="M85.74,-56.34C91.62,-49.02 99.84,-38.79 106.95,-29.94"/>
<polygon fill="#63b8ff" stroke="#63b8ff" points="109.59,-32.25 113.13,-22.26 104.14,-27.86 109.59,-32.25"/>
</a>
</g>
</g>
</g>
</svg>
