<?xml version="1.0" encoding="UTF-8" standalone="no"?>
<!DOCTYPE svg PUBLIC "-//W3C//DTD SVG 1.1//EN"
 "http://www.w3.org/Graphics/SVG/1.1/DTD/svg11.dtd">
<!-- Generated by graphviz version 14.1.2 (0)
 -->
<!-- Title: go_to_eof Pages: 1 -->
<!--zoomable 566 -->

<svg id="main" version="1.1" xmlns="http://www.w3.org/2000/svg" xmlns:xlink="http://www.w3.org/1999/xlink" xml:space="preserve" onload="init(evt)">

<style type="text/css"><![CDATA[
.node, .edge {opacity: 0.7;}
.node.selected, .edge.selected {opacity: 1;}
.edge:hover path { stroke: red; }
.edge:hover polygon { stroke: red; fill: red; }
]]></style>

<defs>
  <circle id="rim" cx="0" cy="0" r="7"/>
  <circle id="rim2" cx="0" cy="0" r="3.5"/>
  <g id="zoomPlus">
    <use xlink:href="#rim" fill="#404040"><set attributeName="fill" to="#808080" begin="zoomplus.mouseover" end="zoomplus.mouseout"/></use>
    <path d="M-4,0h8M0,-4v8" fill="none" stroke="white" stroke-width="1.5" pointer-events="none"/>
  </g>
  <g id="zoomMin">
    <use xlink:href="#rim" fill="#404040"><set attributeName="fill" to="#808080" begin="zoomminus.mouseover" end="zoomminus.mouseout"/></use>
    <path d="M-4,0h8" fill="none" stroke="white" stroke-width="1.5" pointer-events="none"/>
  </g>
  <g id="arrowUp" transform="translate(30 24)">
    <use xlink:href="#rim"/>
    <path pointer-events="none" fill="none" stroke="white" stroke-width="1.5" d="M0,-3.0v7 M-2.5,-0.5L0,-3.0L2.5,-0.5"/>
  </g>
  <g id="arrowRight" transform="rotate(90) translate(36 -43)">
    <use xlink:href="#rim"/>
    <path pointer-events="none" fill="none" stroke="white" stroke-width="1.5" d="M0,-3.0v7 M-2.5,-0.5L0,-3.0L2.5,-0.5"/>
  </g>
  <g id="arrowDown" transform="rotate(180) translate(-30 -48)">
    <use xlink:href="#rim"/>
    <path pointer-events="none" fill="none" stroke="white" stroke-width="1.5" d="M0,-3.0v7 M-2.5,-0.5L0,-3.0L2.5,-0.5"/>
  </g>
  <g id="arrowLeft" transform="rotate(270) translate(-36 17)">
    <use xlink:href="#rim"/>
    <path pointer-events="none" fill="none" stroke="white" stroke-width="1.5" d="M0,-3.0v7 M-2.5,-0.5L0,-3.0L2.5,-0.5"/>
  </g>
  <g id="resetDef">
    <use xlink:href="#rim2" fill="#404040"><set attributeName="fill" to="#808080" begin="reset.mouseover" end="reset.mouseout"/></use>
  </g>
</defs>
<script type="application/ecmascript">
var viewWidth = 1344;
var viewHeight = 566;
var sectionId = 'dynsection-18';
</script>
<script type="application/ecmascript" xlink:href="../../svg.min.js"/>
<svg id="graph" class="graph">
<g id="viewport">
<title>go_to_eof</title>
<!-- Node1 -->
<g id="Node000001" class="node">
<title>Node1</title>
<g id="a_Node000001"><a xlink:title="Go to End of File.">
<polygon fill="#999999" stroke="#666666" points="64,-193.75 0,-193.75 0,-173 64,-173 64,-193.75"/>
<text xml:space="preserve" text-anchor="middle" x="32" y="-180.25" font-family="Helvetica,sans-Serif" font-size="10.00">go_to_eof</text>
</a>
</g>
</g>
<!-- Node2 -->
<g id="Node000002" class="node">
<title>Node2</title>
<g id="a_Node000002"><a xlink:href="../../d2/dc8/a00242.html#a5dbc34981815690a92812e34d1cf478f" target="_top" xlink:title="display previous page">
<polygon fill="white" stroke="#666666" points="167,-193.75 100,-193.75 100,-173 167,-173 167,-193.75"/>
<text xml:space="preserve" text-anchor="middle" x="133.5" y="-180.25" font-family="Helvetica,sans-Serif" font-size="10.00">prev_page</text>
</a>
</g>
</g>
<!-- Node1&#45;&gt;Node2 -->
<g id="edge1_Node000001_Node000002" class="edge">
<title>Node1&#45;&gt;Node2</title>
<g id="a_edge1_Node000001_Node000002"><a xlink:title=" ">
<path fill="none" stroke="#63b8ff" d="M64.48,-183.38C71.98,-183.38 80.12,-183.38 88.08,-183.38"/>
<polygon fill="#63b8ff" stroke="#63b8ff" points="87.99,-186.88 97.99,-183.38 87.99,-179.88 87.99,-186.88"/>
</a>
</g>
</g>
<!-- Node3 -->
<g id="Node000003" class="node">
<title>Node3</title>
<g id="a_Node000003"><a xlink:href="../../d2/dc8/a00242.html#aaf8cff992778d85e44351a834ad2b81a" target="_top" xlink:title="Get Position of Previous Line.">
<polygon fill="white" stroke="#666666" points="307.5,-213.75 203,-213.75 203,-193 307.5,-193 307.5,-213.75"/>
<text xml:space="preserve" text-anchor="middle" x="255.25" y="-200.25" font-family="Helvetica,sans-Serif" font-size="10.00">get_pos_prev_line</text>
</a>
</g>
</g>
<!-- Node2&#45;&gt;Node3 -->
<g id="edge2_Node000002_Node000003" class="edge">
<title>Node2&#45;&gt;Node3</title>
<g id="a_edge2_Node000002_Node000003"><a xlink:title=" ">
<path fill="none" stroke="#63b8ff" d="M167.22,-188.84C174.74,-190.1 182.99,-191.47 191.32,-192.86"/>
<polygon fill="#63b8ff" stroke="#63b8ff" points="190.73,-196.31 201.17,-194.51 191.88,-189.41 190.73,-196.31"/>
</a>
</g>
</g>
<!-- Node4 -->
<g id="Node000004" class="node">
<title>Node4</title>
<g id="a_Node000004"><a xlink:href="../../d2/dc8/a00242.html#acf1bfbd6d2fd4ad9a0385009ef25015c" target="_top" xlink:title="Advance to Next Page.">
<polygon fill="white" stroke="#666666" points="288.75,-174.75 221.75,-174.75 221.75,-154 288.75,-154 288.75,-174.75"/>
<text xml:space="preserve" text-anchor="middle" x="255.25" y="-161.25" font-family="Helvetica,sans-Serif" font-size="10.00">next_page</text>
</a>
</g>
</g>
<!-- Node2&#45;&gt;Node4 -->
<g id="edge3_Node000002_Node000004" class="edge">
<title>Node2&#45;&gt;Node4</title>
<g id="a_edge3_Node000002_Node000004"><a xlink:title=" ">
<path fill="none" stroke="#63b8ff" d="M167.22,-178.18C180.55,-176.07 196.17,-173.59 210.46,-171.32"/>
<polygon fill="#63b8ff" stroke="#63b8ff" points="210.74,-174.82 220.07,-169.8 209.65,-167.91 210.74,-174.82"/>
</a>
</g>
</g>
<!-- Node5 -->
<g id="Node000005" class="node">
<title>Node5</title>
<g id="a_Node000005"><a xlink:href="../../d2/dc8/a00242.html#a16a4b855ead8402d4744e77a5504082a" target="_top" xlink:title="Display Line on Pad.">
<polygon fill="white" stroke="#666666" points="421.75,-250.75 347.25,-250.75 347.25,-230 421.75,-230 421.75,-250.75"/>
<text xml:space="preserve" text-anchor="middle" x="384.5" y="-237.25" font-family="Helvetica,sans-Serif" font-size="10.00">display_line</text>
</a>
</g>
</g>
<!-- Node4&#45;&gt;Node5 -->
<g id="edge4_Node000004_Node000005" class="edge">
<title>Node4&#45;&gt;Node5</title>
<g id="a_edge4_Node000004_Node000005"><a xlink:title=" ">
<path fill="none" stroke="#63b8ff" d="M287.74,-175.16C294.42,-177.85 301.31,-180.96 307.5,-184.38 327.17,-195.21 347.55,-210.48 362.25,-222.34"/>
<polygon fill="#63b8ff" stroke="#63b8ff" points="359.91,-224.95 369.85,-228.6 364.36,-219.55 359.91,-224.95"/>
</a>
</g>
</g>
<!-- Node24 -->
<g id="Node000024" class="node">
<title>Node24</title>
<g id="a_Node000024"><a xlink:href="../../d2/dc8/a00242.html#a747411d59b020ad11d4567ab0b3db8c2" target="_top" xlink:title="Format Line for Display.">
<polygon fill="white" stroke="#666666" points="412.75,-174.75 356.25,-174.75 356.25,-154 412.75,-154 412.75,-174.75"/>
<text xml:space="preserve" text-anchor="middle" x="384.5" y="-161.25" font-family="Helvetica,sans-Serif" font-size="10.00">fmt_line</text>
</a>
</g>
</g>
<!-- Node4&#45;&gt;Node24 -->
<g id="edge38_Node000004_Node000024" class="edge">
<title>Node4&#45;&gt;Node24</title>
<g id="a_edge38_Node000004_Node000024"><a xlink:title=" ">
<path fill="none" stroke="#63b8ff" d="M289.02,-164.38C305.97,-164.38 326.78,-164.38 344.55,-164.38"/>
<polygon fill="#63b8ff" stroke="#63b8ff" points="344.49,-167.88 354.49,-164.38 344.49,-160.88 344.49,-167.88"/>
</a>
</g>
</g>
<!-- Node31 -->
<g id="Node000031" class="node">
<title>Node31</title>
<g id="a_Node000031"><a xlink:href="../../d2/dc8/a00242.html#a395b27e6a9716bf49e3fc04d53987b33" target="_top" xlink:title="Get Next Line from File.">
<polygon fill="white" stroke="#666666" points="425.5,-135.75 343.5,-135.75 343.5,-115 425.5,-115 425.5,-135.75"/>
<text xml:space="preserve" text-anchor="middle" x="384.5" y="-122.25" font-family="Helvetica,sans-Serif" font-size="10.00">get_next_line</text>
</a>
</g>
</g>
<!-- Node4&#45;&gt;Node31 -->
<g id="edge47_Node000004_Node000031" class="edge">
<title>Node4&#45;&gt;Node31</title>
<g id="a_edge47_Node000004_Node000031"><a xlink:title=" ">
<path fill="none" stroke="#63b8ff" d="M289.02,-154.33C303.74,-149.82 321.36,-144.42 337.38,-139.51"/>
<polygon fill="#63b8ff" stroke="#63b8ff" points="338.18,-142.93 346.71,-136.65 336.13,-136.23 338.18,-142.93"/>
</a>
</g>
</g>
<!-- Node6 -->
<g id="Node000006" class="node">
<title>Node6</title>
<g id="a_Node000006"><a xlink:href="../../de/d25/a00290.html#a61b4f28456257f68ed042bed7f187efd" target="_top" xlink:title="Display a simple error message window or print to stderr.">
<polygon fill="white" stroke="#666666" points="527.38,-287.75 482.12,-287.75 482.12,-267 527.38,-267 527.38,-287.75"/>
<text xml:space="preserve" text-anchor="middle" x="504.75" y="-274.25" font-family="Helvetica,sans-Serif" font-size="10.00">Perror</text>
</a>
</g>
</g>
<!-- Node5&#45;&gt;Node6 -->
<g id="edge5_Node000005_Node000006" class="edge">
<title>Node5&#45;&gt;Node6</title>
<g id="a_edge5_Node000005_Node000006"><a xlink:title=" ">
<path fill="none" stroke="#63b8ff" d="M420.02,-251.18C436.04,-256.19 454.99,-262.12 470.81,-267.07"/>
<polygon fill="#63b8ff" stroke="#63b8ff" points="469.65,-270.37 480.24,-270.02 471.74,-263.69 469.65,-270.37"/>
</a>
</g>
</g>
<!-- Node7 -->
<g id="Node000007" class="node">
<title>Node7</title>
<g id="a_Node000007"><a xlink:href="../../de/d25/a00290.html#a8f6c45ca4a7f6a41c4c88314e697565a" target="_top" xlink:title="Abnormal program termination.">
<polygon fill="white" stroke="#666666" points="1054.12,-478.75 1008.12,-478.75 1008.12,-458 1054.12,-458 1054.12,-478.75"/>
<text xml:space="preserve" text-anchor="middle" x="1031.12" y="-465.25" font-family="Helvetica,sans-Serif" font-size="10.00">abend</text>
</a>
</g>
</g>
<!-- Node6&#45;&gt;Node7 -->
<g id="edge6_Node000006_Node000007" class="edge">
<title>Node6&#45;&gt;Node7</title>
<g id="a_edge6_Node000006_Node000007"><a xlink:title=" ">
<path fill="none" stroke="#63b8ff" d="M507.61,-287.85C513.38,-317.31 533.71,-401.75 584,-447.38 710.87,-562.48 800.33,-585.11 961.25,-526.38 982.45,-518.64 1001.65,-501.18 1014.35,-487.43"/>
<polygon fill="#63b8ff" stroke="#63b8ff" points="1016.74,-490.02 1020.72,-480.2 1011.48,-485.39 1016.74,-490.02"/>
</a>
</g>
</g>
<!-- Node11 -->
<g id="Node000011" class="node">
<title>Node11</title>
<g id="a_Node000011"><a xlink:href="../../de/d25/a00290.html#a645871e46277e31736bc36d0f3dce4bd" target="_top" xlink:title="construct the chyron string from the chyron structure">
<polygon fill="white" stroke="#666666" points="961.25,-402.75 868,-402.75 868,-382 961.25,-382 961.25,-402.75"/>
<text xml:space="preserve" text-anchor="middle" x="914.62" y="-389.25" font-family="Helvetica,sans-Serif" font-size="10.00">compile_chyron</text>
</a>
</g>
</g>
<!-- Node6&#45;&gt;Node11 -->
<g id="edge12_Node000006_Node000011" class="edge">
<title>Node6&#45;&gt;Node11</title>
<g id="a_edge12_Node000006_Node000011"><a xlink:title=" ">
<path fill="none" stroke="#63b8ff" d="M518.71,-288.11C533.55,-299.83 559.05,-318.27 584,-328.38 675.05,-365.24 789.05,-381.3 856.34,-387.98"/>
<polygon fill="#63b8ff" stroke="#63b8ff" points="855.74,-391.43 866.03,-388.9 856.4,-384.47 855.74,-391.43"/>
</a>
</g>
</g>
<!-- Node13 -->
<g id="Node000013" class="node">
<title>Node13</title>
<g id="a_Node000013"><a xlink:href="../../de/d25/a00290.html#a3f3feb40fd703913c5c136331f627c91" target="_top" xlink:title="Destroy Chyron structure.">
<polygon fill="white" stroke="#666666" points="960.12,-517.75 869.12,-517.75 869.12,-497 960.12,-497 960.12,-517.75"/>
<text xml:space="preserve" text-anchor="middle" x="914.62" y="-504.25" font-family="Helvetica,sans-Serif" font-size="10.00">destroy_chyron</text>
</a>
</g>
</g>
<!-- Node6&#45;&gt;Node13 -->
<g id="edge14_Node000006_Node000013" class="edge">
<title>Node6&#45;&gt;Node13</title>
<g id="a_edge14_Node000006_Node000013"><a xlink:title=" ">
<path fill="none" stroke="#63b8ff" d="M509.58,-288.14C518.68,-312.17 543.86,-370.58 584,-402.38 665.27,-466.76 786.84,-492.06 857.39,-501.71"/>
<polygon fill="#63b8ff" stroke="#63b8ff" points="856.81,-505.16 867.18,-502.98 857.71,-498.22 856.81,-505.16"/>
</a>
</g>
</g>
<!-- Node14 -->
<g id="Node000014" class="node">
<title>Node14</title>
<g id="a_Node000014"><a xlink:href="../../de/d25/a00290.html#ad37d5808ff30ae6894780425d865abae" target="_top" xlink:title="Create and initialize Chyron structure.">
<polygon fill="white" stroke="#666666" points="951.88,-478.75 877.38,-478.75 877.38,-458 951.88,-458 951.88,-478.75"/>
<text xml:space="preserve" text-anchor="middle" x="914.62" y="-465.25" font-family="Helvetica,sans-Serif" font-size="10.00">new_chyron</text>
</a>
</g>
</g>
<!-- Node6&#45;&gt;Node14 -->
<g id="edge15_Node000006_Node000014" class="edge">
<title>Node6&#45;&gt;Node14</title>
<g id="a_edge15_Node000006_Node000014"><a xlink:title=" ">
<path fill="none" stroke="#63b8ff" d="M513.13,-288.17C525.69,-305.76 552.9,-340.63 584,-360.38 674.59,-417.9 798.77,-447.67 865.89,-460.45"/>
<polygon fill="#63b8ff" stroke="#63b8ff" points="864.99,-463.84 875.46,-462.22 866.26,-456.96 864.99,-463.84"/>
</a>
</g>
</g>
<!-- Node15 -->
<g id="Node000015" class="node">
<title>Node15</title>
<g id="a_Node000015"><a xlink:href="../../de/d25/a00290.html#a208ce92c197fdd6d2b007987e534aa3b" target="_top" xlink:title="Set chyron key.">
<polygon fill="white" stroke="#666666" points="960.5,-173.75 868.75,-173.75 868.75,-153 960.5,-153 960.5,-173.75"/>
<text xml:space="preserve" text-anchor="middle" x="914.62" y="-160.25" font-family="Helvetica,sans-Serif" font-size="10.00">set_chyron_key</text>
</a>
</g>
</g>
<!-- Node6&#45;&gt;Node15 -->
<g id="edge17_Node000006_Node000015" class="edge">
<title>Node6&#45;&gt;Node15</title>
<g id="a_edge17_Node000006_Node000015"><a xlink:title=" ">
<path fill="none" stroke="#63b8ff" d="M511.31,-266.65C522.21,-246.89 548.45,-205.16 584,-187.38 671.44,-143.63 788.51,-147.49 857.03,-154.96"/>
<polygon fill="#63b8ff" stroke="#63b8ff" points="856.58,-158.43 866.91,-156.11 857.39,-151.47 856.58,-158.43"/>
</a>
</g>
</g>
<!-- Node16 -->
<g id="Node000016" class="node">
<title>Node16</title>
<g id="a_Node000016"><a xlink:href="../../db/dc3/a00284.html#a63eb94756fb011a456a3dec900709cd8" target="_top" xlink:title="ssnprintf was designed to be a safer alternative to snprintf.">
<polygon fill="white" stroke="#666666" points="1060.5,-154.75 1001.75,-154.75 1001.75,-134 1060.5,-134 1060.5,-154.75"/>
<text xml:space="preserve" text-anchor="middle" x="1031.12" y="-141.25" font-family="Helvetica,sans-Serif" font-size="10.00">ssnprintf</text>
</a>
</g>
</g>
<!-- Node6&#45;&gt;Node16 -->
<g id="edge19_Node000006_Node000016" class="edge">
<title>Node6&#45;&gt;Node16</title>
<g id="a_edge19_Node000006_Node000016"><a xlink:title=" ">
<path fill="none" stroke="#63b8ff" d="M510.63,-266.5C527.46,-229.04 582.14,-107.57 584,-106.38 650.63,-63.59 893.73,-112.96 990.24,-134.91"/>
<polygon fill="#63b8ff" stroke="#63b8ff" points="989.26,-138.28 999.79,-137.11 990.83,-131.46 989.26,-138.28"/>
</a>
</g>
</g>
<!-- Node17 -->
<g id="Node000017" class="node">
<title>Node17</title>
<g id="a_Node000017"><a xlink:href="../../db/dc3/a00284.html#a0de2e40df9bd7efc8fd9afb8ad2257e6" target="_top" xlink:title="safer alternative to strncpy">
<polygon fill="white" stroke="#666666" points="1065,-324.75 997.25,-324.75 997.25,-304 1065,-304 1065,-324.75"/>
<text xml:space="preserve" text-anchor="middle" x="1031.12" y="-311.25" font-family="Helvetica,sans-Serif" font-size="10.00">strnz__cpy</text>
</a>
</g>
</g>
<!-- Node6&#45;&gt;Node17 -->
<g id="edge20_Node000006_Node000017" class="edge">
<title>Node6&#45;&gt;Node17</title>
<g id="a_edge20_Node000006_Node000017"><a xlink:title=" ">
<path fill="none" stroke="#63b8ff" d="M527.17,-266.59C595.06,-234.05 809.84,-143.61 961.25,-220.38 991.2,-235.56 1011.26,-270.56 1021.67,-293.3"/>
<polygon fill="#63b8ff" stroke="#63b8ff" points="1018.35,-294.44 1025.52,-302.24 1024.78,-291.67 1018.35,-294.44"/>
</a>
</g>
</g>
<!-- Node18 -->
<g id="Node000018" class="node">
<title>Node18</title>
<g id="a_Node000018"><a xlink:href="../../de/d25/a00290.html#a9dd598e1d49c8764af1eec42c682623e" target="_top" xlink:title="Delete the current window and its associated box window.">
<polygon fill="white" stroke="#666666" points="941.38,-249.75 887.88,-249.75 887.88,-229 941.38,-229 941.38,-249.75"/>
<text xml:space="preserve" text-anchor="middle" x="914.62" y="-236.25" font-family="Helvetica,sans-Serif" font-size="10.00">win_del</text>
</a>
</g>
</g>
<!-- Node6&#45;&gt;Node18 -->
<g id="edge21_Node000006_Node000018" class="edge">
<title>Node6&#45;&gt;Node18</title>
<g id="a_edge21_Node000006_Node000018"><a xlink:title=" ">
<path fill="none" stroke="#63b8ff" d="M527.8,-270.89C543.36,-266.59 564.78,-261.24 584,-258.38 688.98,-242.74 814.53,-239.78 875.98,-239.34"/>
<polygon fill="#63b8ff" stroke="#63b8ff" points="875.9,-242.84 885.88,-239.29 875.86,-235.84 875.9,-242.84"/>
</a>
</g>
</g>
<!-- Node19 -->
<g id="Node000019" class="node">
<title>Node19</title>
<g id="a_Node000019"><a xlink:href="../../de/d25/a00290.html#a435c7bff7ffedb8f51c6de9259e36f6c" target="_top" xlink:title="Create a new window with optional box and title.">
<polygon fill="white" stroke="#666666" points="944,-363.75 885.25,-363.75 885.25,-343 944,-343 944,-363.75"/>
<text xml:space="preserve" text-anchor="middle" x="914.62" y="-350.25" font-family="Helvetica,sans-Serif" font-size="10.00">win_new</text>
</a>
</g>
</g>
<!-- Node6&#45;&gt;Node19 -->
<g id="edge22_Node000006_Node000019" class="edge">
<title>Node6&#45;&gt;Node19</title>
<g id="a_edge22_Node000006_Node000019"><a xlink:title=" ">
<path fill="none" stroke="#63b8ff" d="M527.77,-283.94C568.95,-295.97 660.63,-321.58 739.5,-335.38 785.09,-343.35 838.06,-348.2 873.49,-350.83"/>
<polygon fill="#63b8ff" stroke="#63b8ff" points="873.07,-354.31 883.29,-351.53 873.56,-347.33 873.07,-354.31"/>
</a>
</g>
</g>
<!-- Node21 -->
<g id="Node000021" class="node">
<title>Node21</title>
<g id="a_Node000021"><a xlink:href="../../de/d25/a00290.html#acf4c709bccc4c965a5d61db978db31a3" target="_top" xlink:title="Wrapper for wgetch that handles signals and mouse events.">
<polygon fill="white" stroke="#666666" points="672.38,-287.75 615.12,-287.75 615.12,-267 672.38,-267 672.38,-287.75"/>
<text xml:space="preserve" text-anchor="middle" x="643.75" y="-274.25" font-family="Helvetica,sans-Serif" font-size="10.00">xwgetch</text>
</a>
</g>
</g>
<!-- Node6&#45;&gt;Node21 -->
<g id="edge25_Node000006_Node000021" class="edge">
<title>Node6&#45;&gt;Node21</title>
<g id="a_edge25_Node000006_Node000021"><a xlink:title=" ">
<path fill="none" stroke="#63b8ff" d="M527.76,-277.38C548.17,-277.38 579.01,-277.38 603.61,-277.38"/>
<polygon fill="#63b8ff" stroke="#63b8ff" points="603.6,-280.88 613.6,-277.38 603.6,-273.88 603.6,-280.88"/>
</a>
</g>
</g>
<!-- Node8 -->
<g id="Node000008" class="node">
<title>Node8</title>
<g id="a_Node000008"><a xlink:href="../../de/d25/a00290.html#afc0985a403e3eac0b2cd8f0fab500256" target="_top" xlink:title="Gracefully shut down NCurses and restore terminal settings.">
<polygon fill="white" stroke="#666666" points="1190.5,-478.75 1101,-478.75 1101,-458 1190.5,-458 1190.5,-478.75"/>
<text xml:space="preserve" text-anchor="middle" x="1145.75" y="-465.25" font-family="Helvetica,sans-Serif" font-size="10.00">destroy_curses</text>
</a>
</g>
</g>
<!-- Node7&#45;&gt;Node8 -->
<g id="edge7_Node000007_Node000008" class="edge">
<title>Node7&#45;&gt;Node8</title>
<g id="a_edge7_Node000007_Node000008"><a xlink:title=" ">
<path fill="none" stroke="#63b8ff" d="M1054.38,-468.38C1064.49,-468.38 1076.94,-468.38 1089.34,-468.38"/>
<polygon fill="#63b8ff" stroke="#63b8ff" points="1089.13,-471.88 1099.13,-468.38 1089.13,-464.88 1089.13,-471.88"/>
</a>
</g>
</g>
<!-- Node9 -->
<g id="Node000009" class="node">
<title>Node9</title>
<g id="a_Node000009"><a xlink:href="../../db/d7b/a00296.html#ac5e3adb304b78910fc77761ef6a743f0" target="_top" xlink:title="restore_shell_tioctl() &#45; restore shell terminal settings">
<polygon fill="white" stroke="#666666" points="1335.5,-506.75 1226.5,-506.75 1226.5,-486 1335.5,-486 1335.5,-506.75"/>
<text xml:space="preserve" text-anchor="middle" x="1281" y="-493.25" font-family="Helvetica,sans-Serif" font-size="10.00">restore_shell_tioctl</text>
</a>
</g>
</g>
<!-- Node7&#45;&gt;Node9 -->
<g id="edge10_Node000007_Node000009" class="edge">
<title>Node7&#45;&gt;Node9</title>
<g id="a_edge10_Node000007_Node000009"><a xlink:title=" ">
<path fill="none" stroke="#63b8ff" d="M1054.5,-475.88C1067.84,-480.03 1085.2,-484.83 1101,-487.38 1138.4,-493.4 1180.71,-495.73 1214.8,-496.52"/>
<polygon fill="#63b8ff" stroke="#63b8ff" points="1214.45,-500.01 1224.51,-496.7 1214.58,-493.01 1214.45,-500.01"/>
</a>
</g>
</g>
<!-- Node10 -->
<g id="Node000010" class="node">
<title>Node10</title>
<g id="a_Node000010"><a xlink:href="../../dd/dd7/a00248.html#a06c1eb6cf3649dc187115565409f91af" target="_top" xlink:title="Set signal handlers to default behavior.">
<polygon fill="white" stroke="#666666" points="1321.62,-458.75 1240.38,-458.75 1240.38,-438 1321.62,-438 1321.62,-458.75"/>
<text xml:space="preserve" text-anchor="middle" x="1281" y="-445.25" font-family="Helvetica,sans-Serif" font-size="10.00">sig_dfl_mode</text>
</a>
</g>
</g>
<!-- Node7&#45;&gt;Node10 -->
<g id="edge11_Node000007_Node000010" class="edge">
<title>Node7&#45;&gt;Node10</title>
<g id="a_edge11_Node000007_Node000010"><a xlink:title=" ">
<path fill="none" stroke="#63b8ff" d="M1054.46,-460.6C1067.78,-456.37 1085.15,-451.57 1101,-449.38 1143.78,-443.46 1192.86,-443.67 1228.79,-445.1"/>
<polygon fill="#63b8ff" stroke="#63b8ff" points="1228.31,-448.58 1238.46,-445.54 1228.63,-441.59 1228.31,-448.58"/>
</a>
</g>
</g>
<!-- Node8&#45;&gt;Node9 -->
<g id="edge8_Node000008_Node000009" class="edge">
<title>Node8&#45;&gt;Node9</title>
<g id="a_edge8_Node000008_Node000009"><a xlink:title=" ">
<path fill="none" stroke="#63b8ff" d="M1190.75,-477.62C1199.37,-479.43 1208.57,-481.37 1217.66,-483.28"/>
<polygon fill="#63b8ff" stroke="#63b8ff" points="1216.66,-486.64 1227.17,-485.27 1218.1,-479.79 1216.66,-486.64"/>
</a>
</g>
</g>
<!-- Node8&#45;&gt;Node10 -->
<g id="edge9_Node000008_Node000010" class="edge">
<title>Node8&#45;&gt;Node10</title>
<g id="a_edge9_Node000008_Node000010"><a xlink:title=" ">
<path fill="none" stroke="#63b8ff" d="M1190.75,-461.77C1202.94,-459.94 1216.27,-457.94 1228.83,-456.06"/>
<polygon fill="#63b8ff" stroke="#63b8ff" points="1229.23,-459.54 1238.6,-454.59 1228.19,-452.61 1229.23,-459.54"/>
</a>
</g>
</g>
<!-- Node12 -->
<g id="Node000012" class="node">
<title>Node12</title>
<g id="a_Node000012"><a xlink:href="../../db/dc3/a00284.html#aa0145c044cfdde3a1c83323410a59f25" target="_top" xlink:title="safer alternative to strncat">
<polygon fill="white" stroke="#666666" points="1063.88,-402.75 998.38,-402.75 998.38,-382 1063.88,-382 1063.88,-402.75"/>
<text xml:space="preserve" text-anchor="middle" x="1031.12" y="-389.25" font-family="Helvetica,sans-Serif" font-size="10.00">strnz__cat</text>
</a>
</g>
</g>
<!-- Node11&#45;&gt;Node12 -->
<g id="edge13_Node000011_Node000012" class="edge">
<title>Node11&#45;&gt;Node12</title>
<g id="a_edge13_Node000011_Node000012"><a xlink:title=" ">
<path fill="none" stroke="#63b8ff" d="M961.54,-392.38C969.83,-392.38 978.44,-392.38 986.66,-392.38"/>
<polygon fill="#63b8ff" stroke="#63b8ff" points="986.42,-395.88 996.42,-392.38 986.42,-388.88 986.42,-395.88"/>
</a>
</g>
</g>
<!-- Node14&#45;&gt;Node7 -->
<g id="edge16_Node000014_Node000007" class="edge">
<title>Node14&#45;&gt;Node7</title>
<g id="a_edge16_Node000014_Node000007"><a xlink:title=" ">
<path fill="none" stroke="#63b8ff" d="M952.17,-468.38C966.49,-468.38 982.8,-468.38 996.79,-468.38"/>
<polygon fill="#63b8ff" stroke="#63b8ff" points="996.39,-471.88 1006.39,-468.38 996.39,-464.88 996.39,-471.88"/>
</a>
</g>
</g>
<!-- Node15&#45;&gt;Node16 -->
<g id="edge18_Node000015_Node000016" class="edge">
<title>Node15&#45;&gt;Node16</title>
<g id="a_edge18_Node000015_Node000016"><a xlink:title=" ">
<path fill="none" stroke="#63b8ff" d="M960.88,-155.87C970.57,-154.26 980.73,-152.57 990.2,-151"/>
<polygon fill="#63b8ff" stroke="#63b8ff" points="990.54,-154.49 999.84,-149.4 989.4,-147.59 990.54,-154.49"/>
</a>
</g>
</g>
<!-- Node19&#45;&gt;Node17 -->
<g id="edge24_Node000019_Node000017" class="edge">
<title>Node19&#45;&gt;Node17</title>
<g id="a_edge24_Node000019_Node000017"><a xlink:title=" ">
<path fill="none" stroke="#63b8ff" d="M944.22,-343.63C957.31,-339.18 973.1,-333.8 987.54,-328.88"/>
<polygon fill="#63b8ff" stroke="#63b8ff" points="988.49,-332.25 996.83,-325.72 986.24,-325.63 988.49,-332.25"/>
</a>
</g>
</g>
<!-- Node20 -->
<g id="Node000020" class="node">
<title>Node20</title>
<g id="a_Node000020"><a xlink:href="../../de/d25/a00290.html#ac9adcf7339be4a05ab1a7350c236b8a5" target="_top" xlink:title="Draw a box around the specified window.">
<polygon fill="white" stroke="#666666" points="1050.75,-363.75 1011.5,-363.75 1011.5,-343 1050.75,-343 1050.75,-363.75"/>
<text xml:space="preserve" text-anchor="middle" x="1031.12" y="-350.25" font-family="Helvetica,sans-Serif" font-size="10.00">cbox</text>
</a>
</g>
</g>
<!-- Node19&#45;&gt;Node20 -->
<g id="edge23_Node000019_Node000020" class="edge">
<title>Node19&#45;&gt;Node20</title>
<g id="a_edge23_Node000019_Node000020"><a xlink:title=" ">
<path fill="none" stroke="#63b8ff" d="M944.22,-353.38C961.15,-353.38 982.57,-353.38 999.79,-353.38"/>
<polygon fill="#63b8ff" stroke="#63b8ff" points="999.69,-356.88 1009.69,-353.38 999.69,-349.88 999.69,-356.88"/>
</a>
</g>
</g>
<!-- Node22 -->
<g id="Node000022" class="node">
<title>Node22</title>
<g id="a_Node000022"><a xlink:href="../../de/d25/a00290.html#a67659f8a701b74f4dec0d36227a10d1c" target="_top" xlink:title="Display an error message window or print to stderr.">
<polygon fill="white" stroke="#666666" points="825.62,-287.75 745.88,-287.75 745.88,-267 825.62,-267 825.62,-287.75"/>
<text xml:space="preserve" text-anchor="middle" x="785.75" y="-274.25" font-family="Helvetica,sans-Serif" font-size="10.00">display_error</text>
</a>
</g>
</g>
<!-- Node21&#45;&gt;Node22 -->
<g id="edge26_Node000021_Node000022" class="edge">
<title>Node21&#45;&gt;Node22</title>
<g id="a_edge26_Node000021_Node000022"><a xlink:title=" ">
<path fill="none" stroke="#63b8ff" d="M672.74,-271.85C690.24,-270.68 713.28,-270.35 733.92,-270.86"/>
<polygon fill="#63b8ff" stroke="#63b8ff" points="733.78,-274.35 743.89,-271.19 734.01,-267.36 733.78,-274.35"/>
</a>
</g>
</g>
<!-- Node23 -->
<g id="Node000023" class="node">
<title>Node23</title>
<g id="a_Node000023"><a xlink:href="../../de/d25/a00290.html#a4298f891699300bfc4e6e56fd2a8d574" target="_top" xlink:title="Get keycode from chyron.">
<polygon fill="white" stroke="#666666" points="832,-326.75 739.5,-326.75 739.5,-306 832,-306 832,-326.75"/>
<text xml:space="preserve" text-anchor="middle" x="785.75" y="-313.25" font-family="Helvetica,sans-Serif" font-size="10.00">get_chyron_key</text>
</a>
</g>
</g>
<!-- Node21&#45;&gt;Node23 -->
<g id="edge37_Node000021_Node000023" class="edge">
<title>Node21&#45;&gt;Node23</title>
<g id="a_edge37_Node000021_Node000023"><a xlink:title=" ">
<path fill="none" stroke="#63b8ff" d="M672.74,-285.17C690.53,-290.13 714.07,-296.68 734.97,-302.51"/>
<polygon fill="#63b8ff" stroke="#63b8ff" points="733.9,-305.84 744.48,-305.16 735.78,-299.1 733.9,-305.84"/>
</a>
</g>
</g>
<!-- Node22&#45;&gt;Node7 -->
<g id="edge27_Node000022_Node000007" class="edge">
<title>Node22&#45;&gt;Node7</title>
<g id="a_edge27_Node000022_Node000007"><a xlink:title=" ">
<path fill="none" stroke="#63b8ff" d="M820.12,-288.1C824.54,-290.61 828.68,-293.66 832,-297.38 867.44,-336.96 831.04,-373.2 868,-411.38 877.24,-420.91 952.01,-444.75 996.72,-458.38"/>
<polygon fill="#63b8ff" stroke="#63b8ff" points="995.61,-461.7 1006.2,-461.26 997.65,-455.01 995.61,-461.7"/>
</a>
</g>
</g>
<!-- Node22&#45;&gt;Node11 -->
<g id="edge28_Node000022_Node000011" class="edge">
<title>Node22&#45;&gt;Node11</title>
<g id="a_edge28_Node000022_Node000011"><a xlink:title=" ">
<path fill="none" stroke="#63b8ff" d="M818.73,-288.04C823.55,-290.58 828.18,-293.67 832,-297.38 858.55,-323.11 841.41,-346.68 868,-372.38 869.21,-373.54 870.49,-374.64 871.83,-375.69"/>
<polygon fill="#63b8ff" stroke="#63b8ff" points="869.78,-378.53 880.1,-380.93 873.53,-372.62 869.78,-378.53"/>
</a>
</g>
</g>
<!-- Node22&#45;&gt;Node13 -->
<g id="edge29_Node000022_Node000013" class="edge">
<title>Node22&#45;&gt;Node13</title>
<g id="a_edge29_Node000022_Node000013"><a xlink:title=" ">
<path fill="none" stroke="#63b8ff" d="M820.98,-288.02C825.16,-290.53 829.01,-293.61 832,-297.38 885.44,-364.69 814.46,-420.14 868,-487.38 868.66,-488.2 869.36,-489 870.1,-489.76"/>
<polygon fill="#63b8ff" stroke="#63b8ff" points="867.88,-492.47 877.92,-495.84 872.17,-486.94 867.88,-492.47"/>
</a>
</g>
</g>
<!-- Node22&#45;&gt;Node14 -->
<g id="edge30_Node000022_Node000014" class="edge">
<title>Node22&#45;&gt;Node14</title>
<g id="a_edge30_Node000022_Node000014"><a xlink:title=" ">
<path fill="none" stroke="#63b8ff" d="M820.8,-288.17C825.01,-290.66 828.91,-293.69 832,-297.38 875.2,-348.93 826.58,-391.38 868,-444.38 870.02,-446.95 872.39,-449.28 874.97,-451.39"/>
<polygon fill="#63b8ff" stroke="#63b8ff" points="872.85,-454.18 883.1,-456.84 876.74,-448.36 872.85,-454.18"/>
</a>
</g>
</g>
<!-- Node22&#45;&gt;Node15 -->
<g id="edge31_Node000022_Node000015" class="edge">
<title>Node22&#45;&gt;Node15</title>
<g id="a_edge31_Node000022_Node000015"><a xlink:title=" ">
<path fill="none" stroke="#63b8ff" d="M798.46,-266.85C820.06,-247.44 866.44,-205.77 893.28,-181.65"/>
<polygon fill="#63b8ff" stroke="#63b8ff" points="895.35,-184.5 900.45,-175.21 890.67,-179.29 895.35,-184.5"/>
</a>
</g>
</g>
<!-- Node22&#45;&gt;Node16 -->
<g id="edge32_Node000022_Node000016" class="edge">
<title>Node22&#45;&gt;Node16</title>
<g id="a_edge32_Node000022_Node000016"><a xlink:title=" ">
<path fill="none" stroke="#63b8ff" d="M826.04,-282.54C863.7,-285.44 920.66,-284.27 961.25,-258.38 994.89,-236.91 1014.47,-192.58 1023.67,-165.97"/>
<polygon fill="#63b8ff" stroke="#63b8ff" points="1026.96,-167.16 1026.71,-156.57 1020.3,-165.01 1026.96,-167.16"/>
</a>
</g>
</g>
<!-- Node22&#45;&gt;Node17 -->
<g id="edge33_Node000022_Node000017" class="edge">
<title>Node22&#45;&gt;Node17</title>
<g id="a_edge33_Node000022_Node000017"><a xlink:title=" ">
<path fill="none" stroke="#63b8ff" d="M825.97,-284.38C839.3,-286.69 854.28,-289.22 868,-291.38 907.64,-297.6 952.86,-303.95 985.46,-308.4"/>
<polygon fill="#63b8ff" stroke="#63b8ff" points="984.98,-311.87 995.36,-309.75 985.92,-304.93 984.98,-311.87"/>
</a>
</g>
</g>
<!-- Node22&#45;&gt;Node18 -->
<g id="edge34_Node000022_Node000018" class="edge">
<title>Node22&#45;&gt;Node18</title>
<g id="a_edge34_Node000022_Node000018"><a xlink:title=" ">
<path fill="none" stroke="#63b8ff" d="M822.77,-266.59C839.72,-261.51 859.9,-255.47 876.93,-250.37"/>
<polygon fill="#63b8ff" stroke="#63b8ff" points="877.58,-253.83 886.15,-247.6 875.57,-247.12 877.58,-253.83"/>
</a>
</g>
</g>
<!-- Node22&#45;&gt;Node19 -->
<g id="edge35_Node000022_Node000019" class="edge">
<title>Node22&#45;&gt;Node19</title>
<g id="a_edge35_Node000022_Node000019"><a xlink:title=" ">
<path fill="none" stroke="#63b8ff" d="M814.74,-288.12C820.62,-290.82 826.65,-293.94 832,-297.38 850.01,-308.95 850.4,-317.19 868,-329.38 871.97,-332.13 876.3,-334.78 880.66,-337.27"/>
<polygon fill="#63b8ff" stroke="#63b8ff" points="878.92,-340.31 889.38,-341.98 882.25,-334.15 878.92,-340.31"/>
</a>
</g>
</g>
<!-- Node22&#45;&gt;Node21 -->
<g id="edge36_Node000022_Node000021" class="edge">
<title>Node22&#45;&gt;Node21</title>
<g id="a_edge36_Node000022_Node000021"><a xlink:title=" ">
<path fill="none" stroke="#63b8ff" d="M745.4,-283.51C726.25,-284.33 703.27,-284.33 684.11,-283.51"/>
<polygon fill="#63b8ff" stroke="#63b8ff" points="684.43,-280.03 674.26,-282.98 684.05,-287.02 684.43,-280.03"/>
</a>
</g>
</g>
<!-- Node25 -->
<g id="Node000025" class="node">
<title>Node25</title>
<g id="a_Node000025"><a xlink:href="../../d2/dc8/a00242.html#a9fc984ba8ce6c4059b33a915d526357f" target="_top" xlink:title="Parse ANSI SGR Escape Sequence.">
<polygon fill="white" stroke="#666666" points="548,-97.75 461.5,-97.75 461.5,-77 548,-77 548,-97.75"/>
<text xml:space="preserve" text-anchor="middle" x="504.75" y="-84.25" font-family="Helvetica,sans-Serif" font-size="10.00">parse_ansi_str</text>
</a>
</g>
</g>
<!-- Node24&#45;&gt;Node25 -->
<g id="edge39_Node000024_Node000025" class="edge">
<title>Node24&#45;&gt;Node25</title>
<g id="a_edge39_Node000024_Node000025"><a xlink:title=" ">
<path fill="none" stroke="#63b8ff" d="M408.7,-153.59C414.3,-150.77 420.19,-147.6 425.5,-144.38 445.24,-132.37 466.34,-116.82 481.65,-104.99"/>
<polygon fill="#63b8ff" stroke="#63b8ff" points="483.46,-108.03 489.18,-99.11 479.15,-102.51 483.46,-108.03"/>
</a>
</g>
</g>
<!-- Node30 -->
<g id="Node000030" class="node">
<title>Node30</title>
<g id="a_Node000030"><a xlink:href="../../db/dc3/a00284.html#a4f42956462e811d96c9fb881a85dada4" target="_top" xlink:title="Trims trailing spaces from string s in place.">
<polygon fill="white" stroke="#666666" points="524.75,-174.75 484.75,-174.75 484.75,-154 524.75,-154 524.75,-174.75"/>
<text xml:space="preserve" text-anchor="middle" x="504.75" y="-161.25" font-family="Helvetica,sans-Serif" font-size="10.00">rtrim</text>
</a>
</g>
</g>
<!-- Node24&#45;&gt;Node30 -->
<g id="edge46_Node000024_Node000030" class="edge">
<title>Node24&#45;&gt;Node30</title>
<g id="a_edge46_Node000024_Node000030"><a xlink:title=" ">
<path fill="none" stroke="#63b8ff" d="M413.22,-164.38C431.14,-164.38 454.48,-164.38 472.98,-164.38"/>
<polygon fill="#63b8ff" stroke="#63b8ff" points="472.81,-167.88 482.81,-164.38 472.81,-160.88 472.81,-167.88"/>
</a>
</g>
</g>
<!-- Node26 -->
<g id="Node000026" class="node">
<title>Node26</title>
<g id="a_Node000026"><a xlink:href="../../de/d25/a00290.html#af0ba4efbc81c259a2519ca41dd9d1599" target="_top" xlink:title="Get color pair index for foreground and background colors.">
<polygon fill="white" stroke="#666666" points="680.25,-135.75 607.25,-135.75 607.25,-115 680.25,-115 680.25,-135.75"/>
<text xml:space="preserve" text-anchor="middle" x="643.75" y="-122.25" font-family="Helvetica,sans-Serif" font-size="10.00">get_clr_pair</text>
</a>
</g>
</g>
<!-- Node25&#45;&gt;Node26 -->
<g id="edge40_Node000025_Node000026" class="edge">
<title>Node25&#45;&gt;Node26</title>
<g id="a_edge40_Node000025_Node000026"><a xlink:title=" ">
<path fill="none" stroke="#63b8ff" d="M544.64,-98.16C560.74,-102.63 579.53,-107.84 596.34,-112.5"/>
<polygon fill="#63b8ff" stroke="#63b8ff" points="595.02,-115.77 605.59,-115.07 596.89,-109.02 595.02,-115.77"/>
</a>
</g>
</g>
<!-- Node27 -->
<g id="Node000027" class="node">
<title>Node27</title>
<g id="a_Node000027"><a xlink:href="../../de/d25/a00290.html#a4900dd34e828972e58b0ca549cf7d4d8" target="_top" xlink:title="Get color index for RGB color.">
<polygon fill="white" stroke="#666666" points="694.12,-59.75 593.38,-59.75 593.38,-39 694.12,-39 694.12,-59.75"/>
<text xml:space="preserve" text-anchor="middle" x="643.75" y="-46.25" font-family="Helvetica,sans-Serif" font-size="10.00">rgb_to_curses_clr</text>
</a>
</g>
</g>
<!-- Node25&#45;&gt;Node27 -->
<g id="edge43_Node000025_Node000027" class="edge">
<title>Node25&#45;&gt;Node27</title>
<g id="a_edge43_Node000025_Node000027"><a xlink:title=" ">
<path fill="none" stroke="#63b8ff" d="M544.64,-76.59C559.68,-72.42 577.08,-67.59 593.01,-63.17"/>
<polygon fill="#63b8ff" stroke="#63b8ff" points="593.6,-66.64 602.3,-60.59 591.73,-59.89 593.6,-66.64"/>
</a>
</g>
</g>
<!-- Node29 -->
<g id="Node000029" class="node">
<title>Node29</title>
<g id="a_Node000029"><a xlink:href="../../de/d25/a00290.html#a31ee0d93c7b527f92559fc410152f768" target="_top" xlink:title="Convert XTerm 256 color index to RGB color.">
<polygon fill="white" stroke="#666666" points="703.5,-20.75 584,-20.75 584,0 703.5,0 703.5,-20.75"/>
<text xml:space="preserve" text-anchor="middle" x="643.75" y="-7.25" font-family="Helvetica,sans-Serif" font-size="10.00">xterm256_idx_to_rgb</text>
</a>
</g>
</g>
<!-- Node25&#45;&gt;Node29 -->
<g id="edge45_Node000025_Node000029" class="edge">
<title>Node25&#45;&gt;Node29</title>
<g id="a_edge45_Node000025_Node000029"><a xlink:title=" ">
<path fill="none" stroke="#63b8ff" d="M517.98,-76.63C532.76,-64.11 558.79,-43.46 584,-30.38 587.45,-28.58 591.1,-26.9 594.81,-25.33"/>
<polygon fill="#63b8ff" stroke="#63b8ff" points="595.93,-28.65 603.97,-21.75 593.38,-22.13 595.93,-28.65"/>
</a>
</g>
</g>
<!-- Node26&#45;&gt;Node16 -->
<g id="edge42_Node000026_Node000016" class="edge">
<title>Node26&#45;&gt;Node16</title>
<g id="a_edge42_Node000026_Node000016"><a xlink:title=" ">
<path fill="none" stroke="#63b8ff" d="M680.66,-127.15C752.76,-130.7 914.67,-138.68 990.07,-142.4"/>
<polygon fill="#63b8ff" stroke="#63b8ff" points="989.73,-145.89 999.89,-142.88 990.07,-138.9 989.73,-145.89"/>
</a>
</g>
</g>
<!-- Node26&#45;&gt;Node22 -->
<g id="edge41_Node000026_Node000022" class="edge">
<title>Node26&#45;&gt;Node22</title>
<g id="a_edge41_Node000026_Node000022"><a xlink:title=" ">
<path fill="none" stroke="#63b8ff" d="M654.37,-135.82C677.75,-161.2 737.79,-226.39 767.53,-258.68"/>
<polygon fill="#63b8ff" stroke="#63b8ff" points="764.69,-260.76 774.03,-265.74 769.83,-256.01 764.69,-260.76"/>
</a>
</g>
</g>
<!-- Node28 -->
<g id="Node000028" class="node">
<title>Node28</title>
<g id="a_Node000028"><a xlink:href="../../de/d25/a00290.html#aa3a6b291c0820d9da545325a2dba5274" target="_top" xlink:title="Apply gamma correction to RGB color.">
<polygon fill="white" stroke="#666666" points="828.62,-59.75 742.88,-59.75 742.88,-39 828.62,-39 828.62,-59.75"/>
<text xml:space="preserve" text-anchor="middle" x="785.75" y="-46.25" font-family="Helvetica,sans-Serif" font-size="10.00">apply_gamma</text>
</a>
</g>
</g>
<!-- Node27&#45;&gt;Node28 -->
<g id="edge44_Node000027_Node000028" class="edge">
<title>Node27&#45;&gt;Node28</title>
<g id="a_edge44_Node000027_Node000028"><a xlink:title=" ">
<path fill="none" stroke="#63b8ff" d="M694.5,-49.38C706.41,-49.38 719.18,-49.38 731.26,-49.38"/>
<polygon fill="#63b8ff" stroke="#63b8ff" points="731.05,-52.88 741.05,-49.38 731.05,-45.88 731.05,-52.88"/>
</a>
</g>
</g>
</g>
</svg>

<g id="navigator" transform="translate(0 0)" fill="#404254">
  <rect fill="#f2f5e9" fill-opacity="0.5" stroke="#606060" stroke-width=".5" x="0" y="0" width="60" height="60"/>
  <use id="zoomplus" xlink:href="#zoomPlus" x="17" y="9" onmousedown="handleZoom(evt,'in')"/>
  <use id="zoomminus" xlink:href="#zoomMin" x="42" y="9" onmousedown="handleZoom(evt,'out')"/>
  <use id="reset" xlink:href="#resetDef" x="30" y="36" onmousedown="handleReset()"/>
   <use id="arrowup" xlink:href="#arrowUp" x="0" y="0" onmousedown="handlePan(0,-1)"/>
  <use id="arrowright" xlink:href="#arrowRight" x="0" y="0" onmousedown="handlePan(1,0)"/>
  <use id="arrowdown" xlink:href="#arrowDown" x="0" y="0" onmousedown="handlePan(0,1)"/>
  <use id="arrowleft" xlink:href="#arrowLeft" x="0" y="0" onmousedown="handlePan(-1,0)"/>
</g>
<svg viewBox="0 0 15 15" width="100%" height="30px" preserveAspectRatio="xMaxYMin meet">
 <g id="arrow_out" transform="scale(0.3 0.3)">
  <a xlink:href="a00242_a46145f1d3680a48cb9391a8ae95db9ad_cgraph_org.svg" target="_base">
   <rect id="button" ry="5" rx="5" y="6" x="6" height="38" width="38"
        fill="#f2f5e9" fill-opacity="0.5" stroke="#606060" stroke-width="1.0"/>
   <path id="arrow"
     d="M 11.500037,31.436501 C 11.940474,20.09759 22.043105,11.32322 32.158766,21.979434 L 37.068811,17.246167 C 37.068811,17.246167 37.088388,32 37.088388,32 L 22.160133,31.978069 C 22.160133,31.978069 26.997745,27.140456 26.997745,27.140456 C 18.528582,18.264221 13.291696,25.230495 11.500037,31.436501 z"
     style="fill:#404040;"/>
  </a>
 </g>
</svg>

<style type='text/css'>
<![CDATA[
[data-mouse-over-selected='false'] { opacity: 0.7; }
[data-mouse-over-selected='true']  { opacity: 1.0; }
]]>
</style>
<script type="application/ecmascript"><![CDATA[
document.addEventListener('DOMContentLoaded', (event) => {
  highlightEdges();
  highlightAdjacentNodes();
});
]]></script>
</svg>
