<?xml version="1.0" encoding="UTF-8" standalone="no"?>
<!DOCTYPE svg PUBLIC "-//W3C//DTD SVG 1.1//EN"
 "http://www.w3.org/Graphics/SVG/1.1/DTD/svg11.dtd">
<!-- Generated by graphviz version 14.1.2 (0)
 -->
<!-- Title: dump_opts Pages: 1 -->
<svg width="213pt" height="68pt"
 viewBox="0.00 0.00 213.00 68.00" xmlns="http://www.w3.org/2000/svg" xmlns:xlink="http://www.w3.org/1999/xlink">
<g id="graph0" class="graph" transform="scale(1 1) rotate(0) translate(4 63.75)">
<title>dump_opts</title>
<!-- Node1 -->
<g id="Node000001" class="node">
<title>Node1</title>
<g id="a_Node000001"><a xlink:title="dump all options">
<polygon fill="#999999" stroke="#666666" points="70,-39.75 0,-39.75 0,-19 70,-19 70,-39.75"/>
<text xml:space="preserve" text-anchor="middle" x="35" y="-26.25" font-family="Helvetica,sans-Serif" font-size="10.00">dump_opts</text>
</a>
</g>
</g>
<!-- Node2 -->
<g id="Node000002" class="node">
<title>Node2</title>
<g id="a_Node000002"><a xlink:href="../../d5/d42/a00269.html#aab5b69801076b208d7428b7aac76000b" target="_top" xlink:title="print option">
<polygon fill="white" stroke="#666666" points="185,-59.75 125.5,-59.75 125.5,-39 185,-39 185,-59.75"/>
<text xml:space="preserve" text-anchor="middle" x="155.25" y="-46.25" font-family="Helvetica,sans-Serif" font-size="10.00">print_opt</text>
</a>
</g>
</g>
<!-- Node1&#45;&gt;Node2 -->
<g id="edge1_Node000001_Node000002" class="edge">
<title>Node1&#45;&gt;Node2</title>
<g id="a_edge1_Node000001_Node000002"><a xlink:title=" ">
<path fill="none" stroke="#63b8ff" d="M70.2,-35.16C83.98,-37.49 99.97,-40.19 114.28,-42.61"/>
<polygon fill="#63b8ff" stroke="#63b8ff" points="113.39,-46.01 123.83,-44.23 114.55,-39.11 113.39,-46.01"/>
</a>
</g>
</g>
<!-- Node3 -->
<g id="Node000003" class="node">
<title>Node3</title>
<g id="a_Node000003"><a xlink:href="../../d5/d42/a00269.html#af621ff60685ba18f3720cf24c758fdf4" target="_top" xlink:title="print option header">
<polygon fill="white" stroke="#666666" points="204.5,-20.75 106,-20.75 106,0 204.5,0 204.5,-20.75"/>
<text xml:space="preserve" text-anchor="middle" x="155.25" y="-7.25" font-family="Helvetica,sans-Serif" font-size="10.00">print_opt_header</text>
</a>
</g>
</g>
<!-- Node1&#45;&gt;Node3 -->
<g id="edge2_Node000001_Node000003" class="edge">
<title>Node1&#45;&gt;Node3</title>
<g id="a_edge2_Node000001_Node000003"><a xlink:title=" ">
<path fill="none" stroke="#63b8ff" d="M70.2,-23.88C77.8,-22.66 86.07,-21.33 94.36,-20"/>
<polygon fill="#63b8ff" stroke="#63b8ff" points="94.8,-23.47 104.12,-18.43 93.69,-16.56 94.8,-23.47"/>
</a>
</g>
</g>
</g>
</svg>
