<?xml version="1.0" encoding="UTF-8" standalone="no"?>
<!DOCTYPE svg PUBLIC "-//W3C//DTD SVG 1.1//EN"
 "http://www.w3.org/Graphics/SVG/1.1/DTD/svg11.dtd">
<!-- Generated by graphviz version 14.1.2 (0)
 -->
<!-- Title: view_init_input Pages: 1 -->
<!--zoomable 720 -->

<svg id="main" version="1.1" xmlns="http://www.w3.org/2000/svg" xmlns:xlink="http://www.w3.org/1999/xlink" xml:space="preserve" onload="init(evt)">

<style type="text/css"><![CDATA[
.node, .edge {opacity: 0.7;}
.node.selected, .edge.selected {opacity: 1;}
.edge:hover path { stroke: red; }
.edge:hover polygon { stroke: red; fill: red; }
]]></style>

<defs>
  <circle id="rim" cx="0" cy="0" r="7"/>
  <circle id="rim2" cx="0" cy="0" r="3.5"/>
  <g id="zoomPlus">
    <use xlink:href="#rim" fill="#404040"><set attributeName="fill" to="#808080" begin="zoomplus.mouseover" end="zoomplus.mouseout"/></use>
    <path d="M-4,0h8M0,-4v8" fill="none" stroke="white" stroke-width="1.5" pointer-events="none"/>
  </g>
  <g id="zoomMin">
    <use xlink:href="#rim" fill="#404040"><set attributeName="fill" to="#808080" begin="zoomminus.mouseover" end="zoomminus.mouseout"/></use>
    <path d="M-4,0h8" fill="none" stroke="white" stroke-width="1.5" pointer-events="none"/>
  </g>
  <g id="arrowUp" transform="translate(30 24)">
    <use xlink:href="#rim"/>
    <path pointer-events="none" fill="none" stroke="white" stroke-width="1.5" d="M0,-3.0v7 M-2.5,-0.5L0,-3.0L2.5,-0.5"/>
  </g>
  <g id="arrowRight" transform="rotate(90) translate(36 -43)">
    <use xlink:href="#rim"/>
    <path pointer-events="none" fill="none" stroke="white" stroke-width="1.5" d="M0,-3.0v7 M-2.5,-0.5L0,-3.0L2.5,-0.5"/>
  </g>
  <g id="arrowDown" transform="rotate(180) translate(-30 -48)">
    <use xlink:href="#rim"/>
    <path pointer-events="none" fill="none" stroke="white" stroke-width="1.5" d="M0,-3.0v7 M-2.5,-0.5L0,-3.0L2.5,-0.5"/>
  </g>
  <g id="arrowLeft" transform="rotate(270) translate(-36 17)">
    <use xlink:href="#rim"/>
    <path pointer-events="none" fill="none" stroke="white" stroke-width="1.5" d="M0,-3.0v7 M-2.5,-0.5L0,-3.0L2.5,-0.5"/>
  </g>
  <g id="resetDef">
    <use xlink:href="#rim2" fill="#404040"><set attributeName="fill" to="#808080" begin="reset.mouseover" end="reset.mouseout"/></use>
  </g>
</defs>
<script type="application/ecmascript">
var viewWidth = 742;
var viewHeight = 720;
var sectionId = 'dynsection-5';
</script>
<script type="application/ecmascript" xlink:href="../../svg.min.js"/>
<svg id="graph" class="graph">
<g id="viewport">
<title>view_init_input</title>
<!-- Node1 -->
<g id="Node000001" class="node">
<title>Node1</title>
<g id="a_Node000001"><a xlink:title="Initialize the input for a C&#45;Menu View.">
<polygon fill="#999999" stroke="#666666" points="90.25,-172.75 0,-172.75 0,-152 90.25,-152 90.25,-172.75"/>
<text xml:space="preserve" text-anchor="middle" x="45.12" y="-159.25" font-family="Helvetica,sans-Serif" font-size="10.00">view_init_input</text>
</a>
</g>
</g>
<!-- Node2 -->
<g id="Node000002" class="node">
<title>Node2</title>
<g id="a_Node000002"><a xlink:href="../../df/d95/a00299.html#a8f6c45ca4a7f6a41c4c88314e697565a" target="_top" xlink:title="Abnormal program termination.">
<polygon fill="white" stroke="#666666" points="440.5,-630.75 394.5,-630.75 394.5,-610 440.5,-610 440.5,-630.75"/>
<text xml:space="preserve" text-anchor="middle" x="417.5" y="-617.25" font-family="Helvetica,sans-Serif" font-size="10.00">abend</text>
</a>
</g>
</g>
<!-- Node1&#45;&gt;Node2 -->
<g id="edge1_Node000001_Node000002" class="edge">
<title>Node1&#45;&gt;Node2</title>
<g id="a_edge1_Node000001_Node000002"><a xlink:title=" ">
<path fill="none" stroke="#63b8ff" d="M46.69,-173.23C49.49,-219.85 64.21,-406.96 126.25,-544.38 161.63,-622.74 165.14,-660.85 242,-699.38 279.05,-717.95 296.85,-714.97 335.25,-699.38 364.43,-687.53 388.89,-659.6 403.12,-640.34"/>
<polygon fill="#63b8ff" stroke="#63b8ff" points="405.8,-642.61 408.73,-632.43 400.09,-638.56 405.8,-642.61"/>
</a>
</g>
</g>
<!-- Node6 -->
<g id="Node000006" class="node">
<title>Node6</title>
<g id="a_Node000006"><a xlink:href="../../dc/d5d/a00278.html#ae3d67c8c0b5b559664942e539256605b" target="_top" xlink:title="Returns the base name of a file specification.">
<polygon fill="white" stroke="#666666" points="202.25,-535.75 130,-535.75 130,-515 202.25,-515 202.25,-535.75"/>
<text xml:space="preserve" text-anchor="middle" x="166.12" y="-522.25" font-family="Helvetica,sans-Serif" font-size="10.00">base_name</text>
</a>
</g>
</g>
<!-- Node1&#45;&gt;Node6 -->
<g id="edge7_Node000001_Node000006" class="edge">
<title>Node1&#45;&gt;Node6</title>
<g id="a_edge7_Node000001_Node000006"><a xlink:title=" ">
<path fill="none" stroke="#63b8ff" d="M47.42,-173.16C53.84,-225.29 83.74,-450.89 126.25,-505.38 126.88,-506.19 127.56,-506.97 128.27,-507.72"/>
<polygon fill="#63b8ff" stroke="#63b8ff" points="125.81,-510.23 135.79,-513.77 130.19,-504.78 125.81,-510.23"/>
</a>
</g>
</g>
<!-- Node7 -->
<g id="Node000007" class="node">
<title>Node7</title>
<g id="a_Node000007"><a xlink:href="../../df/d95/a00299.html#a67659f8a701b74f4dec0d36227a10d1c" target="_top" xlink:title="Display an error message window or print to stderr.">
<polygon fill="white" stroke="#666666" points="206,-496.75 126.25,-496.75 126.25,-476 206,-476 206,-496.75"/>
<text xml:space="preserve" text-anchor="middle" x="166.12" y="-483.25" font-family="Helvetica,sans-Serif" font-size="10.00">display_error</text>
</a>
</g>
</g>
<!-- Node1&#45;&gt;Node7 -->
<g id="edge8_Node000001_Node000007" class="edge">
<title>Node1&#45;&gt;Node7</title>
<g id="a_edge8_Node000001_Node000007"><a xlink:title=" ">
<path fill="none" stroke="#63b8ff" d="M50.08,-173.16C67.1,-219.47 134.16,-402.07 157.26,-464.96"/>
<polygon fill="#63b8ff" stroke="#63b8ff" points="153.9,-465.95 160.63,-474.13 160.47,-463.54 153.9,-465.95"/>
</a>
</g>
</g>
<!-- Node9 -->
<g id="Node000009" class="node">
<title>Node9</title>
<g id="a_Node000009"><a xlink:href="../../dc/d5d/a00278.html#aa0145c044cfdde3a1c83323410a59f25" target="_top" xlink:title="safer alternative to strncat">
<polygon fill="white" stroke="#666666" points="450.25,-134.75 384.75,-134.75 384.75,-114 450.25,-114 450.25,-134.75"/>
<text xml:space="preserve" text-anchor="middle" x="417.5" y="-121.25" font-family="Helvetica,sans-Serif" font-size="10.00">strnz__cat</text>
</a>
</g>
</g>
<!-- Node1&#45;&gt;Node9 -->
<g id="edge47_Node000001_Node000009" class="edge">
<title>Node1&#45;&gt;Node9</title>
<g id="a_edge47_Node000001_Node000009"><a xlink:title=" ">
<path fill="none" stroke="#63b8ff" d="M90.52,-153.88C102.12,-151.86 114.62,-149.87 126.25,-148.38 213.57,-137.16 316.38,-130.1 373.21,-126.73"/>
<polygon fill="#63b8ff" stroke="#63b8ff" points="373.33,-130.23 383.11,-126.15 372.92,-123.24 373.33,-130.23"/>
</a>
</g>
</g>
<!-- Node13 -->
<g id="Node000013" class="node">
<title>Node13</title>
<g id="a_Node000013"><a xlink:href="../../dc/d5d/a00278.html#a63eb94756fb011a456a3dec900709cd8" target="_top" xlink:title="ssnprintf was designed to be a safer alternative to snprintf.">
<polygon fill="white" stroke="#666666" points="573.88,-477.75 515.12,-477.75 515.12,-457 573.88,-457 573.88,-477.75"/>
<text xml:space="preserve" text-anchor="middle" x="544.5" y="-464.25" font-family="Helvetica,sans-Serif" font-size="10.00">ssnprintf</text>
</a>
</g>
</g>
<!-- Node1&#45;&gt;Node13 -->
<g id="edge45_Node000001_Node000013" class="edge">
<title>Node1&#45;&gt;Node13</title>
<g id="a_edge45_Node000001_Node000013"><a xlink:title=" ">
<path fill="none" stroke="#63b8ff" d="M90.72,-157.03C177.92,-149.38 370.6,-146.74 463.75,-257.38 512.01,-314.69 532.75,-404.26 540.1,-445.38"/>
<polygon fill="#63b8ff" stroke="#63b8ff" points="536.6,-445.73 541.71,-455.01 543.51,-444.57 536.6,-445.73"/>
</a>
</g>
</g>
<!-- Node15 -->
<g id="Node000015" class="node">
<title>Node15</title>
<g id="a_Node000015"><a xlink:href="../../dc/d5d/a00278.html#a0de2e40df9bd7efc8fd9afb8ad2257e6" target="_top" xlink:title="safer alternative to strncpy">
<polygon fill="white" stroke="#666666" points="578.38,-191.75 510.62,-191.75 510.62,-171 578.38,-171 578.38,-191.75"/>
<text xml:space="preserve" text-anchor="middle" x="544.5" y="-178.25" font-family="Helvetica,sans-Serif" font-size="10.00">strnz__cpy</text>
</a>
</g>
</g>
<!-- Node1&#45;&gt;Node15 -->
<g id="edge48_Node000001_Node000015" class="edge">
<title>Node1&#45;&gt;Node15</title>
<g id="a_edge48_Node000001_Node000015"><a xlink:title=" ">
<path fill="none" stroke="#63b8ff" d="M54.39,-151.53C67.62,-135.01 95.24,-103.84 126.25,-88.38 209.8,-46.71 242.01,-62.67 335.25,-67.38 392.58,-70.27 413.42,-52.77 463.75,-80.38 496.9,-98.55 521.07,-136.82 533.64,-160.69"/>
<polygon fill="#63b8ff" stroke="#63b8ff" points="530.43,-162.09 538.06,-169.45 536.69,-158.94 530.43,-162.09"/>
</a>
</g>
</g>
<!-- Node22 -->
<g id="Node000022" class="node">
<title>Node22</title>
<g id="a_Node000022"><a xlink:href="../../dc/d5d/a00278.html#ad7f9941ba28a6cca3ccce953c4d77e32" target="_top" xlink:title="Replace Leading Tilde With Home Directory.">
<polygon fill="white" stroke="#666666" points="328.12,-96.75 249.12,-96.75 249.12,-76 328.12,-76 328.12,-96.75"/>
<text xml:space="preserve" text-anchor="middle" x="288.62" y="-83.25" font-family="Helvetica,sans-Serif" font-size="10.00">expand_tilde</text>
</a>
</g>
</g>
<!-- Node1&#45;&gt;Node22 -->
<g id="edge31_Node000001_Node000022" class="edge">
<title>Node1&#45;&gt;Node22</title>
<g id="a_edge31_Node000001_Node000022"><a xlink:title=" ">
<path fill="none" stroke="#63b8ff" d="M58.78,-151.66C73.83,-139.55 100.19,-120.23 126.25,-110.38 162.03,-96.84 204.98,-90.9 237.57,-88.32"/>
<polygon fill="#63b8ff" stroke="#63b8ff" points="237.4,-91.84 247.13,-87.64 236.91,-84.86 237.4,-91.84"/>
</a>
</g>
</g>
<!-- Node23 -->
<g id="Node000023" class="node">
<title>Node23</title>
<g id="a_Node000023"><a xlink:href="../../df/d95/a00299.html#a61b4f28456257f68ed042bed7f187efd" target="_top" xlink:title="Display a simple error message window or print to stderr.">
<polygon fill="white" stroke="#666666" points="188.75,-362.75 143.5,-362.75 143.5,-342 188.75,-342 188.75,-362.75"/>
<text xml:space="preserve" text-anchor="middle" x="166.12" y="-349.25" font-family="Helvetica,sans-Serif" font-size="10.00">Perror</text>
</a>
</g>
</g>
<!-- Node1&#45;&gt;Node23 -->
<g id="edge34_Node000001_Node000023" class="edge">
<title>Node1&#45;&gt;Node23</title>
<g id="a_edge34_Node000001_Node000023"><a xlink:title=" ">
<path fill="none" stroke="#63b8ff" d="M52.86,-173.13C72.05,-203.77 127.2,-291.82 152.35,-331.98"/>
<polygon fill="#63b8ff" stroke="#63b8ff" points="149.38,-333.83 157.66,-340.45 155.31,-330.12 149.38,-333.83"/>
</a>
</g>
</g>
<!-- Node24 -->
<g id="Node000024" class="node">
<title>Node24</title>
<g id="a_Node000024"><a xlink:href="../../dc/d5d/a00278.html#af717756d0ca49bc436d1fb69ae0d6c05" target="_top" xlink:title="Converts a string into an array of argument strings.">
<polygon fill="white" stroke="#666666" points="201.12,-20.75 131.12,-20.75 131.12,0 201.12,0 201.12,-20.75"/>
<text xml:space="preserve" text-anchor="middle" x="166.12" y="-7.25" font-family="Helvetica,sans-Serif" font-size="10.00">str_to_args</text>
</a>
</g>
</g>
<!-- Node1&#45;&gt;Node24 -->
<g id="edge46_Node000001_Node000024" class="edge">
<title>Node1&#45;&gt;Node24</title>
<g id="a_edge46_Node000001_Node000024"><a xlink:title=" ">
<path fill="none" stroke="#63b8ff" d="M50.77,-151.63C61.35,-128.1 89.24,-71.15 126.25,-34.38 128.7,-31.94 131.45,-29.63 134.31,-27.49"/>
<polygon fill="#63b8ff" stroke="#63b8ff" points="136.06,-30.53 142.42,-22.06 132.16,-24.72 136.06,-30.53"/>
</a>
</g>
</g>
<!-- Node3 -->
<g id="Node000003" class="node">
<title>Node3</title>
<g id="a_Node000003"><a xlink:href="../../df/d95/a00299.html#afc0985a403e3eac0b2cd8f0fab500256" target="_top" xlink:title="Gracefully shut down NCurses and restore terminal settings.">
<polygon fill="white" stroke="#666666" points="589.25,-592.75 499.75,-592.75 499.75,-572 589.25,-572 589.25,-592.75"/>
<text xml:space="preserve" text-anchor="middle" x="544.5" y="-579.25" font-family="Helvetica,sans-Serif" font-size="10.00">destroy_curses</text>
</a>
</g>
</g>
<!-- Node2&#45;&gt;Node3 -->
<g id="edge2_Node000002_Node000003" class="edge">
<title>Node2&#45;&gt;Node3</title>
<g id="a_edge2_Node000002_Node000003"><a xlink:title=" ">
<path fill="none" stroke="#63b8ff" d="M440.85,-613.58C456.46,-608.83 477.88,-602.32 497.11,-596.48"/>
<polygon fill="#63b8ff" stroke="#63b8ff" points="498.12,-599.83 506.67,-593.57 496.08,-593.13 498.12,-599.83"/>
</a>
</g>
</g>
<!-- Node4 -->
<g id="Node000004" class="node">
<title>Node4</title>
<g id="a_Node000004"><a xlink:href="../../d6/de1/a00233.html#ac5e3adb304b78910fc77761ef6a743f0" target="_top" xlink:title="restore_shell_tioctl() &#45; restore shell terminal settings">
<polygon fill="white" stroke="#666666" points="734.25,-630.75 625.25,-630.75 625.25,-610 734.25,-610 734.25,-630.75"/>
<text xml:space="preserve" text-anchor="middle" x="679.75" y="-617.25" font-family="Helvetica,sans-Serif" font-size="10.00">restore_shell_tioctl</text>
</a>
</g>
</g>
<!-- Node2&#45;&gt;Node4 -->
<g id="edge5_Node000002_Node000004" class="edge">
<title>Node2&#45;&gt;Node4</title>
<g id="a_edge5_Node000002_Node000004"><a xlink:title=" ">
<path fill="none" stroke="#63b8ff" d="M440.78,-625.27C457.04,-628.58 479.64,-632.66 499.75,-634.38 539.38,-637.76 549.59,-637.46 589.25,-634.38 597.23,-633.75 605.57,-632.83 613.81,-631.74"/>
<polygon fill="#63b8ff" stroke="#63b8ff" points="614.04,-635.24 623.46,-630.39 613.07,-628.31 614.04,-635.24"/>
</a>
</g>
</g>
<!-- Node5 -->
<g id="Node000005" class="node">
<title>Node5</title>
<g id="a_Node000005"><a xlink:href="../../d1/da8/a00230.html#a06c1eb6cf3649dc187115565409f91af" target="_top" xlink:title="Set signal handlers to default behavior.">
<polygon fill="white" stroke="#666666" points="720.38,-573.75 639.12,-573.75 639.12,-553 720.38,-553 720.38,-573.75"/>
<text xml:space="preserve" text-anchor="middle" x="679.75" y="-560.25" font-family="Helvetica,sans-Serif" font-size="10.00">sig_dfl_mode</text>
</a>
</g>
</g>
<!-- Node2&#45;&gt;Node5 -->
<g id="edge6_Node000002_Node000005" class="edge">
<title>Node2&#45;&gt;Node5</title>
<g id="a_edge6_Node000002_Node000005"><a xlink:title=" ">
<path fill="none" stroke="#63b8ff" d="M440.8,-609.98C448.33,-606.1 456.63,-601.4 463.75,-596.38 481.48,-583.86 479.52,-571.24 499.75,-563.38 540.7,-547.45 591.01,-549.11 627.85,-553.8"/>
<polygon fill="#63b8ff" stroke="#63b8ff" points="626.94,-557.2 637.33,-555.12 627.91,-550.27 626.94,-557.2"/>
</a>
</g>
</g>
<!-- Node3&#45;&gt;Node4 -->
<g id="edge3_Node000003_Node000004" class="edge">
<title>Node3&#45;&gt;Node4</title>
<g id="a_edge3_Node000003_Node000004"><a xlink:title=" ">
<path fill="none" stroke="#63b8ff" d="M583.33,-593.16C597.82,-597.29 614.55,-602.07 629.93,-606.45"/>
<polygon fill="#63b8ff" stroke="#63b8ff" points="628.8,-609.77 639.37,-609.15 630.72,-603.04 628.8,-609.77"/>
</a>
</g>
</g>
<!-- Node3&#45;&gt;Node5 -->
<g id="edge4_Node000003_Node000005" class="edge">
<title>Node3&#45;&gt;Node5</title>
<g id="a_edge4_Node000003_Node000005"><a xlink:title=" ">
<path fill="none" stroke="#63b8ff" d="M589.5,-576.1C601.69,-574.36 615.02,-572.46 627.58,-570.67"/>
<polygon fill="#63b8ff" stroke="#63b8ff" points="627.94,-574.16 637.34,-569.28 626.95,-567.23 627.94,-574.16"/>
</a>
</g>
</g>
<!-- Node7&#45;&gt;Node2 -->
<g id="edge9_Node000007_Node000002" class="edge">
<title>Node7&#45;&gt;Node2</title>
<g id="a_edge9_Node000007_Node000002"><a xlink:title=" ">
<path fill="none" stroke="#63b8ff" d="M195.74,-497.22C199.64,-499.73 203.24,-502.75 206,-506.38 253.33,-568.5 181.38,-629.13 242,-678.38 274.17,-704.51 295.78,-691.02 335.25,-678.38 359.53,-670.6 382.74,-652.6 398.09,-638.7"/>
<polygon fill="#63b8ff" stroke="#63b8ff" points="400.18,-641.54 405.06,-632.14 395.38,-636.44 400.18,-641.54"/>
</a>
</g>
</g>
<!-- Node8 -->
<g id="Node000008" class="node">
<title>Node8</title>
<g id="a_Node000008"><a xlink:href="../../df/d95/a00299.html#a645871e46277e31736bc36d0f3dce4bd" target="_top" xlink:title="construct the chyron string from the chyron structure">
<polygon fill="white" stroke="#666666" points="335.25,-210.75 242,-210.75 242,-190 335.25,-190 335.25,-210.75"/>
<text xml:space="preserve" text-anchor="middle" x="288.62" y="-197.25" font-family="Helvetica,sans-Serif" font-size="10.00">compile_chyron</text>
</a>
</g>
</g>
<!-- Node7&#45;&gt;Node8 -->
<g id="edge10_Node000007_Node000008" class="edge">
<title>Node7&#45;&gt;Node8</title>
<g id="a_edge10_Node000007_Node000008"><a xlink:title=" ">
<path fill="none" stroke="#63b8ff" d="M170.84,-475.62C177.85,-455.29 193.43,-409.84 206,-371.38 222.51,-320.87 216.97,-304.24 242,-257.38 249.39,-243.54 260.3,-229.76 269.59,-219.22"/>
<polygon fill="#63b8ff" stroke="#63b8ff" points="272.04,-221.73 276.2,-211.98 266.87,-217.01 272.04,-221.73"/>
</a>
</g>
</g>
<!-- Node10 -->
<g id="Node000010" class="node">
<title>Node10</title>
<g id="a_Node000010"><a xlink:href="../../df/d95/a00299.html#a3f3feb40fd703913c5c136331f627c91" target="_top" xlink:title="Destroy Chyron structure.">
<polygon fill="white" stroke="#666666" points="334.12,-439.75 243.12,-439.75 243.12,-419 334.12,-419 334.12,-439.75"/>
<text xml:space="preserve" text-anchor="middle" x="288.62" y="-426.25" font-family="Helvetica,sans-Serif" font-size="10.00">destroy_chyron</text>
</a>
</g>
</g>
<!-- Node7&#45;&gt;Node10 -->
<g id="edge12_Node000007_Node000010" class="edge">
<title>Node7&#45;&gt;Node10</title>
<g id="a_edge12_Node000007_Node000010"><a xlink:title=" ">
<path fill="none" stroke="#63b8ff" d="M190.07,-475.52C208.33,-466.88 234.13,-454.68 254.61,-444.99"/>
<polygon fill="#63b8ff" stroke="#63b8ff" points="255.85,-448.28 263.39,-440.84 252.86,-441.95 255.85,-448.28"/>
</a>
</g>
</g>
<!-- Node11 -->
<g id="Node000011" class="node">
<title>Node11</title>
<g id="a_Node000011"><a xlink:href="../../df/d95/a00299.html#ad37d5808ff30ae6894780425d865abae" target="_top" xlink:title="Create and initialize Chyron structure.">
<polygon fill="white" stroke="#666666" points="325.88,-630.75 251.38,-630.75 251.38,-610 325.88,-610 325.88,-630.75"/>
<text xml:space="preserve" text-anchor="middle" x="288.62" y="-617.25" font-family="Helvetica,sans-Serif" font-size="10.00">new_chyron</text>
</a>
</g>
</g>
<!-- Node7&#45;&gt;Node11 -->
<g id="edge13_Node000007_Node000011" class="edge">
<title>Node7&#45;&gt;Node11</title>
<g id="a_edge13_Node000007_Node000011"><a xlink:title=" ">
<path fill="none" stroke="#63b8ff" d="M194.41,-497.19C198.67,-499.73 202.73,-502.78 206,-506.38 234.99,-538.25 213.16,-564.37 242,-596.38 244.46,-599.1 247.3,-601.57 250.33,-603.79"/>
<polygon fill="#63b8ff" stroke="#63b8ff" points="248.24,-606.61 258.57,-608.94 251.94,-600.67 248.24,-606.61"/>
</a>
</g>
</g>
<!-- Node12 -->
<g id="Node000012" class="node">
<title>Node12</title>
<g id="a_Node000012"><a xlink:href="../../df/d95/a00299.html#a208ce92c197fdd6d2b007987e534aa3b" target="_top" xlink:title="Set chyron key.">
<polygon fill="white" stroke="#666666" points="334.5,-515.75 242.75,-515.75 242.75,-495 334.5,-495 334.5,-515.75"/>
<text xml:space="preserve" text-anchor="middle" x="288.62" y="-502.25" font-family="Helvetica,sans-Serif" font-size="10.00">set_chyron_key</text>
</a>
</g>
</g>
<!-- Node7&#45;&gt;Node12 -->
<g id="edge15_Node000007_Node000012" class="edge">
<title>Node7&#45;&gt;Node12</title>
<g id="a_edge15_Node000007_Node000012"><a xlink:title=" ">
<path fill="none" stroke="#63b8ff" d="M206.25,-492.54C214.19,-493.8 222.68,-495.14 231.08,-496.46"/>
<polygon fill="#63b8ff" stroke="#63b8ff" points="230.5,-499.91 240.92,-498.01 231.59,-493 230.5,-499.91"/>
</a>
</g>
</g>
<!-- Node7&#45;&gt;Node13 -->
<g id="edge17_Node000007_Node000013" class="edge">
<title>Node7&#45;&gt;Node13</title>
<g id="a_edge17_Node000007_Node000013"><a xlink:title=" ">
<path fill="none" stroke="#63b8ff" d="M192.66,-497.03C197.4,-499.67 202.08,-502.79 206,-506.38 228.1,-526.61 215.76,-548.91 242,-563.38 328.31,-610.95 374.53,-605.25 463.75,-563.38 496.77,-547.88 520.85,-511.25 533.47,-487.98"/>
<polygon fill="#63b8ff" stroke="#63b8ff" points="536.41,-489.91 537.89,-479.42 530.19,-486.69 536.41,-489.91"/>
</a>
</g>
</g>
<!-- Node14 -->
<g id="Node000014" class="node">
<title>Node14</title>
<g id="a_Node000014"><a xlink:href="../../dc/d5d/a00278.html#a636608f26d1193b5d860f2312cd8ee49" target="_top" xlink:title="terminates string at New Line, Carriage Return, or max_len">
<polygon fill="white" stroke="#666666" points="308.62,-669.75 268.62,-669.75 268.62,-649 308.62,-649 308.62,-669.75"/>
<text xml:space="preserve" text-anchor="middle" x="288.62" y="-656.25" font-family="Helvetica,sans-Serif" font-size="10.00">strnz</text>
</a>
</g>
</g>
<!-- Node7&#45;&gt;Node14 -->
<g id="edge18_Node000007_Node000014" class="edge">
<title>Node7&#45;&gt;Node14</title>
<g id="a_edge18_Node000007_Node000014"><a xlink:title=" ">
<path fill="none" stroke="#63b8ff" d="M195.17,-497.12C199.24,-499.66 203.04,-502.72 206,-506.38 244.51,-553.99 202.04,-592.97 242,-639.38 246.23,-644.29 251.9,-648.04 257.8,-650.89"/>
<polygon fill="#63b8ff" stroke="#63b8ff" points="256.42,-654.11 267,-654.54 259,-647.6 256.42,-654.11"/>
</a>
</g>
</g>
<!-- Node7&#45;&gt;Node15 -->
<g id="edge19_Node000007_Node000015" class="edge">
<title>Node7&#45;&gt;Node15</title>
<g id="a_edge19_Node000007_Node000015"><a xlink:title=" ">
<path fill="none" stroke="#63b8ff" d="M206.49,-484.57C242.36,-481.35 295.64,-472.51 335.25,-448.38 437.69,-385.95 509.14,-253.39 533.91,-202.17"/>
<polygon fill="#63b8ff" stroke="#63b8ff" points="536.96,-203.92 538.08,-193.38 530.63,-200.92 536.96,-203.92"/>
</a>
</g>
</g>
<!-- Node16 -->
<g id="Node000016" class="node">
<title>Node16</title>
<g id="a_Node000016"><a xlink:href="../../df/d95/a00299.html#a9dd598e1d49c8764af1eec42c682623e" target="_top" xlink:title="Delete the current window and its associated box window.">
<polygon fill="white" stroke="#666666" points="315.38,-400.75 261.88,-400.75 261.88,-380 315.38,-380 315.38,-400.75"/>
<text xml:space="preserve" text-anchor="middle" x="288.62" y="-387.25" font-family="Helvetica,sans-Serif" font-size="10.00">win_del</text>
</a>
</g>
</g>
<!-- Node7&#45;&gt;Node16 -->
<g id="edge20_Node000007_Node000016" class="edge">
<title>Node7&#45;&gt;Node16</title>
<g id="a_edge20_Node000007_Node000016"><a xlink:title=" ">
<path fill="none" stroke="#63b8ff" d="M175.53,-475.52C188.39,-459.51 214.39,-429.39 242,-410.38 244.99,-408.32 248.23,-406.39 251.55,-404.62"/>
<polygon fill="#63b8ff" stroke="#63b8ff" points="252.78,-407.91 260.25,-400.41 249.73,-401.61 252.78,-407.91"/>
</a>
</g>
</g>
<!-- Node17 -->
<g id="Node000017" class="node">
<title>Node17</title>
<g id="a_Node000017"><a xlink:href="../../df/d95/a00299.html#a435c7bff7ffedb8f51c6de9259e36f6c" target="_top" xlink:title="Create a new window with optional box and title.">
<polygon fill="white" stroke="#666666" points="318,-286.75 259.25,-286.75 259.25,-266 318,-266 318,-286.75"/>
<text xml:space="preserve" text-anchor="middle" x="288.62" y="-273.25" font-family="Helvetica,sans-Serif" font-size="10.00">win_new</text>
</a>
</g>
</g>
<!-- Node7&#45;&gt;Node17 -->
<g id="edge21_Node000007_Node000017" class="edge">
<title>Node7&#45;&gt;Node17</title>
<g id="a_edge21_Node000007_Node000017"><a xlink:title=" ">
<path fill="none" stroke="#63b8ff" d="M173.27,-475.67C192.32,-442.46 250.67,-340.77 275.85,-296.89"/>
<polygon fill="#63b8ff" stroke="#63b8ff" points="278.8,-298.78 280.74,-288.37 272.73,-295.3 278.8,-298.78"/>
</a>
</g>
</g>
<!-- Node19 -->
<g id="Node000019" class="node">
<title>Node19</title>
<g id="a_Node000019"><a xlink:href="../../df/d95/a00299.html#acf4c709bccc4c965a5d61db978db31a3" target="_top" xlink:title="Wrapper for wgetch that handles signals and mouse events.">
<polygon fill="white" stroke="#666666" points="317.25,-554.75 260,-554.75 260,-534 317.25,-534 317.25,-554.75"/>
<text xml:space="preserve" text-anchor="middle" x="288.62" y="-541.25" font-family="Helvetica,sans-Serif" font-size="10.00">xwgetch</text>
</a>
</g>
</g>
<!-- Node7&#45;&gt;Node19 -->
<g id="edge24_Node000007_Node000019" class="edge">
<title>Node7&#45;&gt;Node19</title>
<g id="a_edge24_Node000007_Node000019"><a xlink:title=" ">
<path fill="none" stroke="#63b8ff" d="M204.14,-497.18C219.09,-504.04 234.55,-511.86 242,-515.38 250.59,-519.43 260.21,-523.69 268.39,-527.94"/>
<polygon fill="#63b8ff" stroke="#63b8ff" points="266.39,-530.83 276.8,-532.76 269.86,-524.75 266.39,-530.83"/>
</a>
</g>
</g>
<!-- Node8&#45;&gt;Node9 -->
<g id="edge11_Node000008_Node000009" class="edge">
<title>Node8&#45;&gt;Node9</title>
<g id="a_edge11_Node000008_Node000009"><a xlink:title=" ">
<path fill="none" stroke="#63b8ff" d="M305.65,-189.63C321.94,-178.84 348.02,-161.91 371.25,-148.38 375.9,-145.66 380.89,-142.89 385.79,-140.24"/>
<polygon fill="#63b8ff" stroke="#63b8ff" points="387.07,-143.52 394.25,-135.74 383.78,-137.35 387.07,-143.52"/>
</a>
</g>
</g>
<!-- Node11&#45;&gt;Node2 -->
<g id="edge14_Node000011_Node000002" class="edge">
<title>Node11&#45;&gt;Node2</title>
<g id="a_edge14_Node000011_Node000002"><a xlink:title=" ">
<path fill="none" stroke="#63b8ff" d="M326.32,-620.38C344.16,-620.38 365.45,-620.38 382.87,-620.38"/>
<polygon fill="#63b8ff" stroke="#63b8ff" points="382.7,-623.88 392.7,-620.38 382.7,-616.88 382.7,-623.88"/>
</a>
</g>
</g>
<!-- Node12&#45;&gt;Node13 -->
<g id="edge16_Node000012_Node000013" class="edge">
<title>Node12&#45;&gt;Node13</title>
<g id="a_edge16_Node000012_Node000013"><a xlink:title=" ">
<path fill="none" stroke="#63b8ff" d="M331.8,-494.55C344.42,-491.58 358.34,-488.58 371.25,-486.38 416.28,-478.68 468.49,-473.43 503.52,-470.43"/>
<polygon fill="#63b8ff" stroke="#63b8ff" points="503.52,-473.94 513.2,-469.62 502.94,-466.97 503.52,-473.94"/>
</a>
</g>
</g>
<!-- Node17&#45;&gt;Node15 -->
<g id="edge23_Node000017_Node000015" class="edge">
<title>Node17&#45;&gt;Node15</title>
<g id="a_edge23_Node000017_Node000015"><a xlink:title=" ">
<path fill="none" stroke="#63b8ff" d="M318.25,-265.66C363.68,-248.66 452.38,-215.47 503.88,-196.2"/>
<polygon fill="#63b8ff" stroke="#63b8ff" points="505.03,-199.51 513.17,-192.73 502.58,-192.95 505.03,-199.51"/>
</a>
</g>
</g>
<!-- Node18 -->
<g id="Node000018" class="node">
<title>Node18</title>
<g id="a_Node000018"><a xlink:href="../../df/d95/a00299.html#ac9adcf7339be4a05ab1a7350c236b8a5" target="_top" xlink:title="Draw a box around the specified window.">
<polygon fill="white" stroke="#666666" points="437.12,-286.75 397.88,-286.75 397.88,-266 437.12,-266 437.12,-286.75"/>
<text xml:space="preserve" text-anchor="middle" x="417.5" y="-273.25" font-family="Helvetica,sans-Serif" font-size="10.00">cbox</text>
</a>
</g>
</g>
<!-- Node17&#45;&gt;Node18 -->
<g id="edge22_Node000017_Node000018" class="edge">
<title>Node17&#45;&gt;Node18</title>
<g id="a_edge22_Node000017_Node000018"><a xlink:title=" ">
<path fill="none" stroke="#63b8ff" d="M318.41,-276.38C338.71,-276.38 365.82,-276.38 386.4,-276.38"/>
<polygon fill="#63b8ff" stroke="#63b8ff" points="386.14,-279.88 396.14,-276.38 386.14,-272.88 386.14,-279.88"/>
</a>
</g>
</g>
<!-- Node19&#45;&gt;Node7 -->
<g id="edge25_Node000019_Node000007" class="edge">
<title>Node19&#45;&gt;Node7</title>
<g id="a_edge25_Node000019_Node000007"><a xlink:title=" ">
<path fill="none" stroke="#63b8ff" d="M259.52,-541.15C253.7,-538.78 247.63,-536.04 242,-533.38 231.59,-528.46 205.54,-515.15 187.1,-503.56"/>
<polygon fill="#63b8ff" stroke="#63b8ff" points="189.07,-500.67 178.8,-498.03 185.18,-506.49 189.07,-500.67"/>
</a>
</g>
</g>
<!-- Node20 -->
<g id="Node000020" class="node">
<title>Node20</title>
<g id="a_Node000020"><a xlink:href="../../df/d95/a00299.html#a4298f891699300bfc4e6e56fd2a8d574" target="_top" xlink:title="Get keycode from chyron.">
<polygon fill="white" stroke="#666666" points="463.75,-515.75 371.25,-515.75 371.25,-495 463.75,-495 463.75,-515.75"/>
<text xml:space="preserve" text-anchor="middle" x="417.5" y="-502.25" font-family="Helvetica,sans-Serif" font-size="10.00">get_chyron_key</text>
</a>
</g>
</g>
<!-- Node19&#45;&gt;Node20 -->
<g id="edge26_Node000019_Node000020" class="edge">
<title>Node19&#45;&gt;Node20</title>
<g id="a_edge26_Node000019_Node000020"><a xlink:title=" ">
<path fill="none" stroke="#63b8ff" d="M317.47,-535.82C333.05,-531.03 352.88,-524.93 370.69,-519.46"/>
<polygon fill="#63b8ff" stroke="#63b8ff" points="371.48,-522.87 380.01,-516.59 369.43,-516.18 371.48,-522.87"/>
</a>
</g>
</g>
<!-- Node21 -->
<g id="Node000021" class="node">
<title>Node21</title>
<g id="a_Node000021"><a xlink:href="../../d1/da8/a00230.html#a79c3e22498eb2346543aa9c86fd22e58" target="_top" xlink:title="Handle received signals and prompt user for action.">
<polygon fill="white" stroke="#666666" points="459.25,-554.75 375.75,-554.75 375.75,-534 459.25,-534 459.25,-554.75"/>
<text xml:space="preserve" text-anchor="middle" x="417.5" y="-541.25" font-family="Helvetica,sans-Serif" font-size="10.00">handle_signal</text>
</a>
</g>
</g>
<!-- Node19&#45;&gt;Node21 -->
<g id="edge27_Node000019_Node000021" class="edge">
<title>Node19&#45;&gt;Node21</title>
<g id="a_edge27_Node000019_Node000021"><a xlink:title=" ">
<path fill="none" stroke="#63b8ff" d="M317.47,-544.38C331.2,-544.38 348.23,-544.38 364.27,-544.38"/>
<polygon fill="#63b8ff" stroke="#63b8ff" points="364.2,-547.88 374.2,-544.38 364.2,-540.88 364.2,-547.88"/>
</a>
</g>
</g>
<!-- Node21&#45;&gt;Node4 -->
<g id="edge28_Node000021_Node000004" class="edge">
<title>Node21&#45;&gt;Node4</title>
<g id="a_edge28_Node000021_Node000004"><a xlink:title=" ">
<path fill="none" stroke="#63b8ff" d="M429.78,-555.16C444.55,-568.56 471.84,-590.91 499.75,-601.38 535.9,-614.93 578.84,-619.83 613.6,-621.27"/>
<polygon fill="#63b8ff" stroke="#63b8ff" points="613.44,-624.76 623.55,-621.58 613.66,-617.77 613.44,-624.76"/>
</a>
</g>
</g>
<!-- Node21&#45;&gt;Node13 -->
<g id="edge29_Node000021_Node000013" class="edge">
<title>Node21&#45;&gt;Node13</title>
<g id="a_edge29_Node000021_Node000013"><a xlink:title=" ">
<path fill="none" stroke="#63b8ff" d="M445.27,-533.63C451.46,-530.85 457.93,-527.69 463.75,-524.38 484.19,-512.71 505.82,-497.02 521.39,-485.05"/>
<polygon fill="#63b8ff" stroke="#63b8ff" points="523.31,-487.99 529.04,-479.08 519.01,-482.47 523.31,-487.99"/>
</a>
</g>
</g>
<!-- Node21&#45;&gt;Node15 -->
<g id="edge30_Node000021_Node000015" class="edge">
<title>Node21&#45;&gt;Node15</title>
<g id="a_edge30_Node000021_Node000015"><a xlink:title=" ">
<path fill="none" stroke="#63b8ff" d="M452.58,-533.61C456.79,-531.12 460.68,-528.08 463.75,-524.38 505.14,-474.38 532.73,-271.38 540.94,-203.56"/>
<polygon fill="#63b8ff" stroke="#63b8ff" points="544.41,-204.06 542.11,-193.71 537.46,-203.23 544.41,-204.06"/>
</a>
</g>
</g>
<!-- Node22&#45;&gt;Node9 -->
<g id="edge32_Node000022_Node000009" class="edge">
<title>Node22&#45;&gt;Node9</title>
<g id="a_edge32_Node000022_Node000009"><a xlink:title=" ">
<path fill="none" stroke="#63b8ff" d="M325.64,-97.16C340.5,-101.61 357.84,-106.81 373.37,-111.46"/>
<polygon fill="#63b8ff" stroke="#63b8ff" points="372.26,-114.78 382.84,-114.29 374.26,-108.07 372.26,-114.78"/>
</a>
</g>
</g>
<!-- Node22&#45;&gt;Node15 -->
<g id="edge33_Node000022_Node000015" class="edge">
<title>Node22&#45;&gt;Node15</title>
<g id="a_edge33_Node000022_Node000015"><a xlink:title=" ">
<path fill="none" stroke="#63b8ff" d="M328.53,-83.67C365.13,-82.68 420.59,-85.32 463.75,-105.38 490.82,-117.96 514.53,-143.45 528.91,-161.43"/>
<polygon fill="#63b8ff" stroke="#63b8ff" points="526.11,-163.53 534.98,-169.32 531.66,-159.26 526.11,-163.53"/>
</a>
</g>
</g>
<!-- Node23&#45;&gt;Node2 -->
<g id="edge35_Node000023_Node000002" class="edge">
<title>Node23&#45;&gt;Node2</title>
<g id="a_edge35_Node000023_Node000002"><a xlink:title=" ">
<path fill="none" stroke="#63b8ff" d="M188.99,-347.52C224.62,-341 295.24,-334.17 335.25,-371.38 398.84,-430.49 335.2,-484.39 371.25,-563.38 377.66,-577.42 388.26,-591.05 397.59,-601.45"/>
<polygon fill="#63b8ff" stroke="#63b8ff" points="394.9,-603.69 404.29,-608.59 400,-598.9 394.9,-603.69"/>
</a>
</g>
</g>
<!-- Node23&#45;&gt;Node8 -->
<g id="edge36_Node000023_Node000008" class="edge">
<title>Node23&#45;&gt;Node8</title>
<g id="a_edge36_Node000023_Node000008"><a xlink:title=" ">
<path fill="none" stroke="#63b8ff" d="M170.96,-341.79C180.02,-318.07 204.78,-259.95 242,-224.38 244.87,-221.63 248.11,-219.12 251.52,-216.84"/>
<polygon fill="#63b8ff" stroke="#63b8ff" points="253.21,-219.9 260.04,-211.8 249.65,-213.87 253.21,-219.9"/>
</a>
</g>
</g>
<!-- Node23&#45;&gt;Node10 -->
<g id="edge37_Node000023_Node000010" class="edge">
<title>Node23&#45;&gt;Node10</title>
<g id="a_edge37_Node000023_Node000010"><a xlink:title=" ">
<path fill="none" stroke="#63b8ff" d="M179.46,-363.24C193.79,-375.5 218.49,-395.54 242,-409.38 244.48,-410.83 247.08,-412.25 249.74,-413.61"/>
<polygon fill="#63b8ff" stroke="#63b8ff" points="248.18,-416.75 258.71,-417.91 251.2,-410.43 248.18,-416.75"/>
</a>
</g>
</g>
<!-- Node23&#45;&gt;Node11 -->
<g id="edge38_Node000023_Node000011" class="edge">
<title>Node23&#45;&gt;Node11</title>
<g id="a_edge38_Node000023_Node000011"><a xlink:title=" ">
<path fill="none" stroke="#63b8ff" d="M170.72,-363.16C184.21,-403.58 231.65,-544.78 242,-563.38 249.63,-577.08 260.54,-590.85 269.79,-601.43"/>
<polygon fill="#63b8ff" stroke="#63b8ff" points="267.04,-603.61 276.34,-608.69 272.24,-598.92 267.04,-603.61"/>
</a>
</g>
</g>
<!-- Node23&#45;&gt;Node12 -->
<g id="edge39_Node000023_Node000012" class="edge">
<title>Node23&#45;&gt;Node12</title>
<g id="a_edge39_Node000023_Node000012"><a xlink:title=" ">
<path fill="none" stroke="#63b8ff" d="M175.39,-363.06C189.14,-380.83 217.63,-417.53 242,-448.38 251.97,-460.99 263.26,-475.1 272.12,-486.12"/>
<polygon fill="#63b8ff" stroke="#63b8ff" points="269.23,-488.12 278.23,-493.72 274.69,-483.74 269.23,-488.12"/>
</a>
</g>
</g>
<!-- Node23&#45;&gt;Node13 -->
<g id="edge40_Node000023_Node000013" class="edge">
<title>Node23&#45;&gt;Node13</title>
<g id="a_edge40_Node000023_Node000013"><a xlink:title=" ">
<path fill="none" stroke="#63b8ff" d="M189.1,-345.66C221.68,-336.8 284.4,-323.9 335.25,-338.38 411.85,-360.18 487.82,-419.11 523.09,-449.19"/>
<polygon fill="#63b8ff" stroke="#63b8ff" points="520.55,-451.61 530.4,-455.52 525.13,-446.32 520.55,-451.61"/>
</a>
</g>
</g>
<!-- Node23&#45;&gt;Node15 -->
<g id="edge41_Node000023_Node000015" class="edge">
<title>Node23&#45;&gt;Node15</title>
<g id="a_edge41_Node000023_Node000015"><a xlink:title=" ">
<path fill="none" stroke="#63b8ff" d="M172.9,-341.7C183.9,-322.3 209.66,-281.1 242,-257.38 254.38,-248.29 356.4,-212.31 371.25,-208.38 413.97,-197.06 463.99,-189.87 499.08,-185.78"/>
<polygon fill="#63b8ff" stroke="#63b8ff" points="499.33,-189.27 508.88,-184.68 498.55,-182.32 499.33,-189.27"/>
</a>
</g>
</g>
<!-- Node23&#45;&gt;Node16 -->
<g id="edge42_Node000023_Node000016" class="edge">
<title>Node23&#45;&gt;Node16</title>
<g id="a_edge42_Node000023_Node000016"><a xlink:title=" ">
<path fill="none" stroke="#63b8ff" d="M189.23,-359.34C206.35,-364.74 230.44,-372.34 250.51,-378.67"/>
<polygon fill="#63b8ff" stroke="#63b8ff" points="249.44,-382 260.03,-381.67 251.54,-375.33 249.44,-382"/>
</a>
</g>
</g>
<!-- Node23&#45;&gt;Node17 -->
<g id="edge43_Node000023_Node000017" class="edge">
<title>Node23&#45;&gt;Node17</title>
<g id="a_edge43_Node000023_Node000017"><a xlink:title=" ">
<path fill="none" stroke="#63b8ff" d="M181.41,-341.67C196.22,-330.76 220.22,-313.6 242,-300.38 246.42,-297.69 251.18,-294.99 255.88,-292.43"/>
<polygon fill="#63b8ff" stroke="#63b8ff" points="257.44,-295.56 264.63,-287.78 254.16,-289.38 257.44,-295.56"/>
</a>
</g>
</g>
<!-- Node23&#45;&gt;Node19 -->
<g id="edge44_Node000023_Node000019" class="edge">
<title>Node23&#45;&gt;Node19</title>
<g id="a_edge44_Node000023_Node000019"><a xlink:title=" ">
<path fill="none" stroke="#63b8ff" d="M170.68,-363.22C181.94,-397.05 217.51,-499.82 242,-524.38 244.29,-526.67 246.89,-528.72 249.66,-530.56"/>
<polygon fill="#63b8ff" stroke="#63b8ff" points="247.73,-533.49 258.18,-535.23 251.1,-527.35 247.73,-533.49"/>
</a>
</g>
</g>
</g>
</svg>

<g id="navigator" transform="translate(0 0)" fill="#404254">
  <rect fill="#f2f5e9" fill-opacity="0.5" stroke="#606060" stroke-width=".5" x="0" y="0" width="60" height="60"/>
  <use id="zoomplus" xlink:href="#zoomPlus" x="17" y="9" onmousedown="handleZoom(evt,'in')"/>
  <use id="zoomminus" xlink:href="#zoomMin" x="42" y="9" onmousedown="handleZoom(evt,'out')"/>
  <use id="reset" xlink:href="#resetDef" x="30" y="36" onmousedown="handleReset()"/>
   <use id="arrowup" xlink:href="#arrowUp" x="0" y="0" onmousedown="handlePan(0,-1)"/>
  <use id="arrowright" xlink:href="#arrowRight" x="0" y="0" onmousedown="handlePan(1,0)"/>
  <use id="arrowdown" xlink:href="#arrowDown" x="0" y="0" onmousedown="handlePan(0,1)"/>
  <use id="arrowleft" xlink:href="#arrowLeft" x="0" y="0" onmousedown="handlePan(-1,0)"/>
</g>
<svg viewBox="0 0 15 15" width="100%" height="30px" preserveAspectRatio="xMaxYMin meet">
 <g id="arrow_out" transform="scale(0.3 0.3)">
  <a xlink:href="a00269_a0d392793038e6c32c6f3fa978fc42ced_cgraph_org.svg" target="_base">
   <rect id="button" ry="5" rx="5" y="6" x="6" height="38" width="38"
        fill="#f2f5e9" fill-opacity="0.5" stroke="#606060" stroke-width="1.0"/>
   <path id="arrow"
     d="M 11.500037,31.436501 C 11.940474,20.09759 22.043105,11.32322 32.158766,21.979434 L 37.068811,17.246167 C 37.068811,17.246167 37.088388,32 37.088388,32 L 22.160133,31.978069 C 22.160133,31.978069 26.997745,27.140456 26.997745,27.140456 C 18.528582,18.264221 13.291696,25.230495 11.500037,31.436501 z"
     style="fill:#404040;"/>
  </a>
 </g>
</svg>

<style type='text/css'>
<![CDATA[
[data-mouse-over-selected='false'] { opacity: 0.7; }
[data-mouse-over-selected='true']  { opacity: 1.0; }
]]>
</style>
<script type="application/ecmascript"><![CDATA[
document.addEventListener('DOMContentLoaded', (event) => {
  highlightEdges();
  highlightAdjacentNodes();
});
]]></script>
</svg>
