<?xml version="1.0" encoding="UTF-8" standalone="no"?>
<!DOCTYPE svg PUBLIC "-//W3C//DTD SVG 1.1//EN"
 "http://www.w3.org/Graphics/SVG/1.1/DTD/svg11.dtd">
<!-- Generated by graphviz version 14.1.2 (0)
 -->
<!-- Title: form_display_field_brackets Pages: 1 -->
<!--zoomable 107 -->

<svg id="main" version="1.1" xmlns="http://www.w3.org/2000/svg" xmlns:xlink="http://www.w3.org/1999/xlink" xml:space="preserve" onload="init(evt)">

<style type="text/css"><![CDATA[
.node, .edge {opacity: 0.7;}
.node.selected, .edge.selected {opacity: 1;}
.edge:hover path { stroke: red; }
.edge:hover polygon { stroke: red; fill: red; }
]]></style>

<defs>
  <circle id="rim" cx="0" cy="0" r="7"/>
  <circle id="rim2" cx="0" cy="0" r="3.5"/>
  <g id="zoomPlus">
    <use xlink:href="#rim" fill="#404040"><set attributeName="fill" to="#808080" begin="zoomplus.mouseover" end="zoomplus.mouseout"/></use>
    <path d="M-4,0h8M0,-4v8" fill="none" stroke="white" stroke-width="1.5" pointer-events="none"/>
  </g>
  <g id="zoomMin">
    <use xlink:href="#rim" fill="#404040"><set attributeName="fill" to="#808080" begin="zoomminus.mouseover" end="zoomminus.mouseout"/></use>
    <path d="M-4,0h8" fill="none" stroke="white" stroke-width="1.5" pointer-events="none"/>
  </g>
  <g id="arrowUp" transform="translate(30 24)">
    <use xlink:href="#rim"/>
    <path pointer-events="none" fill="none" stroke="white" stroke-width="1.5" d="M0,-3.0v7 M-2.5,-0.5L0,-3.0L2.5,-0.5"/>
  </g>
  <g id="arrowRight" transform="rotate(90) translate(36 -43)">
    <use xlink:href="#rim"/>
    <path pointer-events="none" fill="none" stroke="white" stroke-width="1.5" d="M0,-3.0v7 M-2.5,-0.5L0,-3.0L2.5,-0.5"/>
  </g>
  <g id="arrowDown" transform="rotate(180) translate(-30 -48)">
    <use xlink:href="#rim"/>
    <path pointer-events="none" fill="none" stroke="white" stroke-width="1.5" d="M0,-3.0v7 M-2.5,-0.5L0,-3.0L2.5,-0.5"/>
  </g>
  <g id="arrowLeft" transform="rotate(270) translate(-36 17)">
    <use xlink:href="#rim"/>
    <path pointer-events="none" fill="none" stroke="white" stroke-width="1.5" d="M0,-3.0v7 M-2.5,-0.5L0,-3.0L2.5,-0.5"/>
  </g>
  <g id="resetDef">
    <use xlink:href="#rim2" fill="#404040"><set attributeName="fill" to="#808080" begin="reset.mouseover" end="reset.mouseout"/></use>
  </g>
</defs>
<script type="application/ecmascript">
var viewWidth = 1276;
var viewHeight = 107;
var sectionId = 'dynsection-5';
</script>
<script type="application/ecmascript" xlink:href="../../svg.min.js"/>
<svg id="graph" class="graph">
<g id="viewport">
<title>form_display_field_brackets</title>
<!-- Node1 -->
<g id="Node000001" class="node">
<title>Node1</title>
<g id="a_Node000001"><a xlink:title="Display brackets around current field if set.">
<polygon fill="#999999" stroke="#666666" points="1267.75,-84.12 1161,-84.12 1161,-50.62 1267.75,-50.62 1267.75,-84.12"/>
<text xml:space="preserve" text-anchor="start" x="1169" y="-70.62" font-family="Helvetica,sans-Serif" font-size="10.00">form_display_field</text>
<text xml:space="preserve" text-anchor="middle" x="1214.38" y="-57.88" font-family="Helvetica,sans-Serif" font-size="10.00">_brackets</text>
</a>
</g>
</g>
<!-- Node2 -->
<g id="Node000002" class="node">
<title>Node2</title>
<g id="a_Node000002"><a xlink:href="../../d6/d82/a00293.html#abd1710f59277202b0a58f840d4da322e" target="_top" xlink:title="Display current field.">
<polygon fill="white" stroke="#666666" points="1125,-77.75 1018.25,-77.75 1018.25,-57 1125,-57 1125,-77.75"/>
<text xml:space="preserve" text-anchor="middle" x="1071.62" y="-64.25" font-family="Helvetica,sans-Serif" font-size="10.00">form_display_field</text>
</a>
</g>
</g>
<!-- Node1&#45;&gt;Node2 -->
<g id="edge1_Node000001_Node000002" class="edge">
<title>Node1&#45;&gt;Node2</title>
<g id="a_edge1_Node000001_Node000002"><a xlink:title=" ">
<path fill="none" stroke="#63b8ff" d="M1149.31,-67.38C1141.26,-67.38 1133.11,-67.38 1125.26,-67.38"/>
<polygon fill="#63b8ff" stroke="#63b8ff" points="1149.05,-70.88 1159.05,-67.38 1149.05,-63.88 1149.05,-70.88"/>
</a>
</g>
</g>
<!-- Node3 -->
<g id="Node000003" class="node">
<title>Node3</title>
<g id="a_Node000003"><a xlink:href="../../d6/d82/a00293.html#aa3062b9adcfe4160df15f1763963f9f8" target="_top" xlink:title="Accept input for a field.">
<polygon fill="white" stroke="#666666" points="975.12,-97.75 871.38,-97.75 871.38,-77 975.12,-77 975.12,-97.75"/>
<text xml:space="preserve" text-anchor="middle" x="923.25" y="-84.25" font-family="Helvetica,sans-Serif" font-size="10.00">form_accept_field</text>
</a>
</g>
</g>
<!-- Node2&#45;&gt;Node3 -->
<g id="edge2_Node000002_Node000003" class="edge">
<title>Node2&#45;&gt;Node3</title>
<g id="a_edge2_Node000002_Node000003"><a xlink:title=" ">
<path fill="none" stroke="#63b8ff" d="M1006.64,-76.12C996.24,-77.54 985.59,-78.99 975.55,-80.37"/>
<polygon fill="#63b8ff" stroke="#63b8ff" points="1006.85,-79.62 1016.28,-74.8 1005.9,-72.69 1006.85,-79.62"/>
</a>
</g>
</g>
<!-- Node12 -->
<g id="Node000012" class="node">
<title>Node12</title>
<g id="a_Node000012"><a xlink:href="../../d6/d82/a00293.html#a95c3fea1ca130a8386408cdb450c2069" target="_top" xlink:title="Display field n.">
<polygon fill="white" stroke="#666666" points="982.25,-58.75 864.25,-58.75 864.25,-38 982.25,-38 982.25,-58.75"/>
<text xml:space="preserve" text-anchor="middle" x="923.25" y="-45.25" font-family="Helvetica,sans-Serif" font-size="10.00">form_display_field_n</text>
</a>
</g>
</g>
<!-- Node2&#45;&gt;Node12 -->
<g id="edge12_Node000002_Node000012" class="edge">
<title>Node2&#45;&gt;Node12</title>
<g id="a_edge12_Node000002_Node000012"><a xlink:title=" ">
<path fill="none" stroke="#63b8ff" d="M1006.58,-59.06C998.56,-58.02 990.39,-56.96 982.47,-55.93"/>
<polygon fill="#63b8ff" stroke="#63b8ff" points="1005.91,-62.5 1016.28,-60.32 1006.81,-55.56 1005.91,-62.5"/>
</a>
</g>
</g>
<!-- Node4 -->
<g id="Node000004" class="node">
<title>Node4</title>
<g id="a_Node000004"><a xlink:href="../../d6/de1/a00233.html#a85f521b3faafff8ce5584317cebe5d3c" target="_top" xlink:title="Handle user input for field entry, allowing navigation between fields and looping until an exit actio...">
<polygon fill="white" stroke="#666666" points="823.38,-97.75 721.12,-97.75 721.12,-77 823.38,-77 823.38,-97.75"/>
<text xml:space="preserve" text-anchor="middle" x="772.25" y="-84.25" font-family="Helvetica,sans-Serif" font-size="10.00">form_enter_fields</text>
</a>
</g>
</g>
<!-- Node3&#45;&gt;Node4 -->
<g id="edge3_Node000003_Node000004" class="edge">
<title>Node3&#45;&gt;Node4</title>
<g id="a_edge3_Node000003_Node000004"><a xlink:title=" ">
<path fill="none" stroke="#63b8ff" d="M859.69,-87.38C847.75,-87.38 835.38,-87.38 823.87,-87.38"/>
<polygon fill="#63b8ff" stroke="#63b8ff" points="859.46,-90.88 869.46,-87.38 859.46,-83.88 859.46,-90.88"/>
</a>
</g>
</g>
<!-- Node5 -->
<g id="Node000005" class="node">
<title>Node5</title>
<g id="a_Node000005"><a xlink:href="../../d6/de1/a00233.html#ada302551bf41bf8ed6132fd34328a47e" target="_top" xlink:title="Form main processing loop.">
<polygon fill="white" stroke="#666666" points="527,-59.75 449.5,-59.75 449.5,-39 527,-39 527,-59.75"/>
<text xml:space="preserve" text-anchor="middle" x="488.25" y="-46.25" font-family="Helvetica,sans-Serif" font-size="10.00">form_engine</text>
</a>
</g>
</g>
<!-- Node4&#45;&gt;Node5 -->
<g id="edge4_Node000004_Node000005" class="edge">
<title>Node4&#45;&gt;Node5</title>
<g id="a_edge4_Node000004_Node000005"><a xlink:title=" ">
<path fill="none" stroke="#63b8ff" d="M709.54,-84.36C667.92,-81.69 611.88,-76.84 563,-68.38 551.01,-66.3 538.12,-63.26 526.51,-60.22"/>
<polygon fill="#63b8ff" stroke="#63b8ff" points="709.17,-87.84 719.37,-84.96 709.6,-80.86 709.17,-87.84"/>
</a>
</g>
</g>
<!-- Node6 -->
<g id="Node000006" class="node">
<title>Node6</title>
<g id="a_Node000006"><a xlink:href="../../d6/de1/a00233.html#abf1be20a8aad5f7ba09172ac1434a110" target="_top" xlink:title="Initialize form data structure and parse description file.">
<polygon fill="white" stroke="#666666" points="413.5,-59.75 353.25,-59.75 353.25,-39 413.5,-39 413.5,-59.75"/>
<text xml:space="preserve" text-anchor="middle" x="383.38" y="-46.25" font-family="Helvetica,sans-Serif" font-size="10.00">init_form</text>
</a>
</g>
</g>
<!-- Node5&#45;&gt;Node6 -->
<g id="edge5_Node000005_Node000006" class="edge">
<title>Node5&#45;&gt;Node6</title>
<g id="a_edge5_Node000005_Node000006"><a xlink:title=" ">
<path fill="none" stroke="#63b8ff" d="M437.8,-49.38C429.61,-49.38 421.36,-49.38 413.87,-49.38"/>
<polygon fill="#63b8ff" stroke="#63b8ff" points="437.72,-52.88 447.72,-49.38 437.72,-45.88 437.72,-52.88"/>
</a>
</g>
</g>
<!-- Node7 -->
<g id="Node000007" class="node">
<title>Node7</title>
<g id="a_Node000007"><a xlink:href="../../d2/dc8/a00242.html#a2ffea5674e85f124a70e19f745a66583" target="_top" xlink:title="use form to enter a file specification">
<polygon fill="white" stroke="#666666" points="301.12,-98.75 210.88,-98.75 210.88,-78 301.12,-78 301.12,-98.75"/>
<text xml:space="preserve" text-anchor="middle" x="256" y="-85.25" font-family="Helvetica,sans-Serif" font-size="10.00">enter_file_spec</text>
</a>
</g>
</g>
<!-- Node6&#45;&gt;Node7 -->
<g id="edge6_Node000006_Node000007" class="edge">
<title>Node6&#45;&gt;Node7</title>
<g id="a_edge6_Node000006_Node000007"><a xlink:title=" ">
<path fill="none" stroke="#63b8ff" d="M342.14,-61.89C325.84,-66.96 307.22,-72.75 291.55,-77.63"/>
<polygon fill="#63b8ff" stroke="#63b8ff" points="343.03,-65.28 351.53,-58.97 340.95,-58.6 343.03,-65.28"/>
</a>
</g>
</g>
<!-- Node8 -->
<g id="Node000008" class="node">
<title>Node8</title>
<g id="a_Node000008"><a xlink:href="../../d3/d5e/a00275.html#a3c04138a5bfe5d72780bb7e82a18e627" target="_top" xlink:title=" ">
<polygon fill="white" stroke="#666666" points="276.38,-59.75 235.62,-59.75 235.62,-39 276.38,-39 276.38,-59.75"/>
<text xml:space="preserve" text-anchor="middle" x="256" y="-46.25" font-family="Helvetica,sans-Serif" font-size="10.00">main</text>
</a>
</g>
</g>
<!-- Node6&#45;&gt;Node8 -->
<g id="edge7_Node000006_Node000008" class="edge">
<title>Node6&#45;&gt;Node8</title>
<g id="a_edge7_Node000006_Node000008"><a xlink:title=" ">
<path fill="none" stroke="#63b8ff" d="M341.73,-49.38C319.99,-49.38 294.2,-49.38 276.83,-49.38"/>
<polygon fill="#63b8ff" stroke="#63b8ff" points="341.47,-52.88 351.47,-49.38 341.47,-45.88 341.47,-52.88"/>
</a>
</g>
</g>
<!-- Node9 -->
<g id="Node000009" class="node">
<title>Node9</title>
<g id="a_Node000009"><a xlink:href="../../df/da9/a00263.html#aa5d0e30e7036b72b51c843d0a7e486a1" target="_top" xlink:title="Processes user input for the menu system.">
<polygon fill="white" stroke="#666666" points="317.25,-20.75 194.75,-20.75 194.75,0 317.25,0 317.25,-20.75"/>
<text xml:space="preserve" text-anchor="middle" x="256" y="-7.25" font-family="Helvetica,sans-Serif" font-size="10.00">menu_cmd_processor</text>
</a>
</g>
</g>
<!-- Node6&#45;&gt;Node9 -->
<g id="edge8_Node000006_Node000009" class="edge">
<title>Node6&#45;&gt;Node9</title>
<g id="a_edge8_Node000006_Node000009"><a xlink:title=" ">
<path fill="none" stroke="#63b8ff" d="M342.14,-36.86C325.84,-31.79 307.22,-26 291.55,-21.12"/>
<polygon fill="#63b8ff" stroke="#63b8ff" points="340.95,-40.15 351.53,-39.78 343.03,-33.47 340.95,-40.15"/>
</a>
</g>
</g>
<!-- Node10 -->
<g id="Node000010" class="node">
<title>Node10</title>
<g id="a_Node000010"><a xlink:href="../../df/da9/a00263.html#a7d7973d7aac92759dcc86ec52bb038f4" target="_top" xlink:title="The main loop of the menu system.">
<polygon fill="white" stroke="#666666" points="158.75,-20.75 76.75,-20.75 76.75,0 158.75,0 158.75,-20.75"/>
<text xml:space="preserve" text-anchor="middle" x="117.75" y="-7.25" font-family="Helvetica,sans-Serif" font-size="10.00">menu_engine</text>
</a>
</g>
</g>
<!-- Node9&#45;&gt;Node10 -->
<g id="edge9_Node000009_Node000010" class="edge">
<title>Node9&#45;&gt;Node10</title>
<g id="a_edge9_Node000009_Node000010"><a xlink:title=" ">
<path fill="none" stroke="#63b8ff" d="M183.2,-3.63C174.96,-3.67 166.79,-3.84 159.17,-4.15"/>
<polygon fill="#63b8ff" stroke="#63b8ff" points="182.92,-7.13 192.93,-3.66 182.94,-0.13 182.92,-7.13"/>
</a>
</g>
</g>
<!-- Node10&#45;&gt;Node9 -->
<g id="edge11_Node000010_Node000009" class="edge">
<title>Node10&#45;&gt;Node9</title>
<g id="a_edge11_Node000010_Node000009"><a xlink:title=" ">
<path fill="none" stroke="#63b8ff" d="M170.68,-16.95C178.45,-17.12 186.52,-17.17 194.45,-17.09"/>
<polygon fill="#63b8ff" stroke="#63b8ff" points="170.79,-13.45 160.69,-16.65 170.58,-20.45 170.79,-13.45"/>
</a>
</g>
</g>
<!-- Node11 -->
<g id="Node000011" class="node">
<title>Node11</title>
<g id="a_Node000011"><a xlink:href="../../d9/d01/a00227.html#a3c04138a5bfe5d72780bb7e82a18e627" target="_top" xlink:title=" ">
<polygon fill="white" stroke="#666666" points="40.75,-20.75 0,-20.75 0,0 40.75,0 40.75,-20.75"/>
<text xml:space="preserve" text-anchor="middle" x="20.38" y="-7.25" font-family="Helvetica,sans-Serif" font-size="10.00">main</text>
</a>
</g>
</g>
<!-- Node10&#45;&gt;Node11 -->
<g id="edge10_Node000010_Node000011" class="edge">
<title>Node10&#45;&gt;Node11</title>
<g id="a_edge10_Node000010_Node000011"><a xlink:title=" ">
<path fill="none" stroke="#63b8ff" d="M64.79,-10.38C56.36,-10.38 48.1,-10.38 41.09,-10.38"/>
<polygon fill="#63b8ff" stroke="#63b8ff" points="64.79,-13.88 74.79,-10.38 64.79,-6.88 64.79,-13.88"/>
</a>
</g>
</g>
<!-- Node13 -->
<g id="Node000013" class="node">
<title>Node13</title>
<g id="a_Node000013"><a xlink:href="../../d6/de1/a00233.html#add0fa69826228ae8e3c50c9b5eed57f8" target="_top" xlink:title="Display form fields on the screen, populating field values and formatting them according to the form ...">
<polygon fill="white" stroke="#666666" points="828.25,-58.75 716.25,-58.75 716.25,-38 828.25,-38 828.25,-58.75"/>
<text xml:space="preserve" text-anchor="middle" x="772.25" y="-45.25" font-family="Helvetica,sans-Serif" font-size="10.00">form_display_fields</text>
</a>
</g>
</g>
<!-- Node12&#45;&gt;Node13 -->
<g id="edge13_Node000012_Node000013" class="edge">
<title>Node12&#45;&gt;Node13</title>
<g id="a_edge13_Node000012_Node000013"><a xlink:title=" ">
<path fill="none" stroke="#63b8ff" d="M852.54,-48.38C844.51,-48.38 836.42,-48.38 828.62,-48.38"/>
<polygon fill="#63b8ff" stroke="#63b8ff" points="852.28,-51.88 862.28,-48.38 852.28,-44.88 852.28,-51.88"/>
</a>
</g>
</g>
<!-- Node14 -->
<g id="Node000014" class="node">
<title>Node14</title>
<g id="a_Node000014"><a xlink:href="../../d6/de1/a00233.html#a0329d3892bf2c4fe8e77a3c303ebe5f6" target="_top" xlink:title="Handle integration with an external program for calculation, allowing the user to execute a provider ...">
<polygon fill="white" stroke="#666666" points="666,-59.75 577.25,-59.75 577.25,-39 666,-39 666,-59.75"/>
<text xml:space="preserve" text-anchor="middle" x="621.62" y="-46.25" font-family="Helvetica,sans-Serif" font-size="10.00">form_calculate</text>
</a>
</g>
</g>
<!-- Node13&#45;&gt;Node14 -->
<g id="edge14_Node000013_Node000014" class="edge">
<title>Node13&#45;&gt;Node14</title>
<g id="a_edge14_Node000013_Node000014"><a xlink:title=" ">
<path fill="none" stroke="#63b8ff" d="M704.64,-48.82C691.68,-48.91 678.4,-49 666.41,-49.08"/>
<polygon fill="#63b8ff" stroke="#63b8ff" points="704.42,-52.32 714.39,-48.76 704.37,-45.33 704.42,-52.32"/>
</a>
</g>
</g>
<!-- Node15 -->
<g id="Node000015" class="node">
<title>Node15</title>
<g id="a_Node000015"><a xlink:href="../../d6/de1/a00233.html#af488c427355a0bfca2caa63ba51d5a30" target="_top" xlink:title="Display the form on the screen, including text elements and fields, and set up the form window based ...">
<polygon fill="white" stroke="#666666" points="680.25,-20.75 563,-20.75 563,0 680.25,0 680.25,-20.75"/>
<text xml:space="preserve" text-anchor="middle" x="621.62" y="-7.25" font-family="Helvetica,sans-Serif" font-size="10.00">form_display_screen</text>
</a>
</g>
</g>
<!-- Node13&#45;&gt;Node15 -->
<g id="edge16_Node000013_Node000015" class="edge">
<title>Node13&#45;&gt;Node15</title>
<g id="a_edge16_Node000013_Node000015"><a xlink:title=" ">
<path fill="none" stroke="#63b8ff" d="M718.4,-34.86C700.85,-30.38 681.56,-25.44 664.92,-21.19"/>
<polygon fill="#63b8ff" stroke="#63b8ff" points="717.04,-38.13 727.59,-37.21 718.77,-31.34 717.04,-38.13"/>
</a>
</g>
</g>
<!-- Node14&#45;&gt;Node5 -->
<g id="edge15_Node000014_Node000005" class="edge">
<title>Node14&#45;&gt;Node5</title>
<g id="a_edge15_Node000014_Node000005"><a xlink:title=" ">
<path fill="none" stroke="#63b8ff" d="M565.67,-49.38C552.68,-49.38 539.12,-49.38 527.08,-49.38"/>
<polygon fill="#63b8ff" stroke="#63b8ff" points="565.37,-52.88 575.37,-49.38 565.37,-45.88 565.37,-52.88"/>
</a>
</g>
</g>
<!-- Node15&#45;&gt;Node5 -->
<g id="edge17_Node000015_Node000005" class="edge">
<title>Node15&#45;&gt;Node5</title>
<g id="a_edge17_Node000015_Node000005"><a xlink:title=" ">
<path fill="none" stroke="#63b8ff" d="M573.43,-24.38C557.7,-29.05 540.43,-34.18 525.65,-38.57"/>
<polygon fill="#63b8ff" stroke="#63b8ff" points="573.99,-27.87 582.58,-21.67 572,-21.16 573.99,-27.87"/>
</a>
</g>
</g>
</g>
</svg>

<g id="navigator" transform="translate(0 0)" fill="#404254">
  <rect fill="#f2f5e9" fill-opacity="0.5" stroke="#606060" stroke-width=".5" x="0" y="0" width="60" height="60"/>
  <use id="zoomplus" xlink:href="#zoomPlus" x="17" y="9" onmousedown="handleZoom(evt,'in')"/>
  <use id="zoomminus" xlink:href="#zoomMin" x="42" y="9" onmousedown="handleZoom(evt,'out')"/>
  <use id="reset" xlink:href="#resetDef" x="30" y="36" onmousedown="handleReset()"/>
   <use id="arrowup" xlink:href="#arrowUp" x="0" y="0" onmousedown="handlePan(0,-1)"/>
  <use id="arrowright" xlink:href="#arrowRight" x="0" y="0" onmousedown="handlePan(1,0)"/>
  <use id="arrowdown" xlink:href="#arrowDown" x="0" y="0" onmousedown="handlePan(0,1)"/>
  <use id="arrowleft" xlink:href="#arrowLeft" x="0" y="0" onmousedown="handlePan(-1,0)"/>
</g>
<svg viewBox="0 0 15 15" width="100%" height="30px" preserveAspectRatio="xMaxYMin meet">
 <g id="arrow_out" transform="scale(0.3 0.3)">
  <a xlink:href="a00293_ad306f4b1bdcba7aefece7e4b73367b66_icgraph_org.svg" target="_base">
   <rect id="button" ry="5" rx="5" y="6" x="6" height="38" width="38"
        fill="#f2f5e9" fill-opacity="0.5" stroke="#606060" stroke-width="1.0"/>
   <path id="arrow"
     d="M 11.500037,31.436501 C 11.940474,20.09759 22.043105,11.32322 32.158766,21.979434 L 37.068811,17.246167 C 37.068811,17.246167 37.088388,32 37.088388,32 L 22.160133,31.978069 C 22.160133,31.978069 26.997745,27.140456 26.997745,27.140456 C 18.528582,18.264221 13.291696,25.230495 11.500037,31.436501 z"
     style="fill:#404040;"/>
  </a>
 </g>
</svg>

<style type='text/css'>
<![CDATA[
[data-mouse-over-selected='false'] { opacity: 0.7; }
[data-mouse-over-selected='true']  { opacity: 1.0; }
]]>
</style>
<script type="application/ecmascript"><![CDATA[
document.addEventListener('DOMContentLoaded', (event) => {
  highlightEdges();
  highlightAdjacentNodes();
});
]]></script>
</svg>
