<?xml version="1.0" encoding="UTF-8" standalone="no"?>
<!DOCTYPE svg PUBLIC "-//W3C//DTD SVG 1.1//EN"
 "http://www.w3.org/Graphics/SVG/1.1/DTD/svg11.dtd">
<!-- Generated by graphviz version 14.1.2 (0)
 -->
<!-- Title: handle_signal Pages: 1 -->
<svg width="237pt" height="107pt"
 viewBox="0.00 0.00 237.00 107.00" xmlns="http://www.w3.org/2000/svg" xmlns:xlink="http://www.w3.org/1999/xlink">
<g id="graph0" class="graph" transform="scale(1 1) rotate(0) translate(4 102.75)">
<title>handle_signal</title>
<!-- Node1 -->
<g id="Node000001" class="node">
<title>Node1</title>
<g id="a_Node000001"><a xlink:title="Handle received signals and prompt user for action.">
<polygon fill="#999999" stroke="#666666" points="83.5,-59.75 0,-59.75 0,-39 83.5,-39 83.5,-59.75"/>
<text xml:space="preserve" text-anchor="middle" x="41.75" y="-46.25" font-family="Helvetica,sans-Serif" font-size="10.00">handle_signal</text>
</a>
</g>
</g>
<!-- Node2 -->
<g id="Node000002" class="node">
<title>Node2</title>
<g id="a_Node000002"><a xlink:href="../../d7/d72/scriou_8c.html#ac5e3adb304b78910fc77761ef6a743f0" target="_top" xlink:title="restore_shell_tioctl() &#45; restore shell terminal settings">
<polygon fill="white" stroke="#666666" points="228.5,-98.75 119.5,-98.75 119.5,-78 228.5,-78 228.5,-98.75"/>
<text xml:space="preserve" text-anchor="middle" x="174" y="-85.25" font-family="Helvetica,sans-Serif" font-size="10.00">restore_shell_tioctl</text>
</a>
</g>
</g>
<!-- Node1&#45;&gt;Node2 -->
<g id="edge1_Node000001_Node000002" class="edge">
<title>Node1&#45;&gt;Node2</title>
<g id="a_edge1_Node000001_Node000002"><a xlink:title=" ">
<path fill="none" stroke="#63b8ff" d="M79.03,-60.24C93.57,-64.59 110.51,-69.66 125.97,-74.29"/>
<polygon fill="#63b8ff" stroke="#63b8ff" points="124.88,-77.62 135.46,-77.14 126.89,-70.91 124.88,-77.62"/>
</a>
</g>
</g>
<!-- Node3 -->
<g id="Node000003" class="node">
<title>Node3</title>
<g id="a_Node000003"><a xlink:href="../../d0/d59/futil_8c.html#a63eb94756fb011a456a3dec900709cd8" target="_top" xlink:title="ssnprintf was designed to be a safer alternative to snprintf.">
<polygon fill="white" stroke="#666666" points="203.38,-59.75 144.62,-59.75 144.62,-39 203.38,-39 203.38,-59.75"/>
<text xml:space="preserve" text-anchor="middle" x="174" y="-46.25" font-family="Helvetica,sans-Serif" font-size="10.00">ssnprintf</text>
</a>
</g>
</g>
<!-- Node1&#45;&gt;Node3 -->
<g id="edge2_Node000001_Node000003" class="edge">
<title>Node1&#45;&gt;Node3</title>
<g id="a_edge2_Node000001_Node000003"><a xlink:title=" ">
<path fill="none" stroke="#63b8ff" d="M83.96,-49.38C99.64,-49.38 117.47,-49.38 133.03,-49.38"/>
<polygon fill="#63b8ff" stroke="#63b8ff" points="132.9,-52.88 142.9,-49.38 132.9,-45.88 132.9,-52.88"/>
</a>
</g>
</g>
<!-- Node4 -->
<g id="Node000004" class="node">
<title>Node4</title>
<g id="a_Node000004"><a xlink:href="../../d0/d59/futil_8c.html#a0de2e40df9bd7efc8fd9afb8ad2257e6" target="_top" xlink:title="safer alternative to strncpy">
<polygon fill="white" stroke="#666666" points="207.88,-20.75 140.12,-20.75 140.12,0 207.88,0 207.88,-20.75"/>
<text xml:space="preserve" text-anchor="middle" x="174" y="-7.25" font-family="Helvetica,sans-Serif" font-size="10.00">strnz__cpy</text>
</a>
</g>
</g>
<!-- Node1&#45;&gt;Node4 -->
<g id="edge3_Node000001_Node000004" class="edge">
<title>Node1&#45;&gt;Node4</title>
<g id="a_edge3_Node000001_Node000004"><a xlink:title=" ">
<path fill="none" stroke="#63b8ff" d="M79.03,-38.51C94.57,-33.86 112.84,-28.39 129.13,-23.51"/>
<polygon fill="#63b8ff" stroke="#63b8ff" points="130,-26.9 138.58,-20.68 128,-20.2 130,-26.9"/>
</a>
</g>
</g>
</g>
</svg>
