<?xml version="1.0" encoding="UTF-8" standalone="no"?>
<!DOCTYPE svg PUBLIC "-//W3C//DTD SVG 1.1//EN"
 "http://www.w3.org/Graphics/SVG/1.1/DTD/svg11.dtd">
<!-- Generated by graphviz version 14.1.2 (0)
 -->
<!-- Title: form_fmt_field Pages: 1 -->
<svg width="939pt" height="798pt"
 viewBox="0.00 0.00 939.00 798.00" xmlns="http://www.w3.org/2000/svg" xmlns:xlink="http://www.w3.org/1999/xlink">
<g id="graph0" class="graph" transform="scale(1 1) rotate(0) translate(4 794.23)">
<title>form_fmt_field</title>
<!-- Node1 -->
<g id="Node000001" class="node">
<title>Node1</title>
<g id="a_Node000001"><a xlink:title="Format field according to its format type.">
<polygon fill="#999999" stroke="#666666" points="88.75,-616.23 0,-616.23 0,-595.48 88.75,-595.48 88.75,-616.23"/>
<text xml:space="preserve" text-anchor="middle" x="44.38" y="-602.73" font-family="Helvetica,sans-Serif" font-size="10.00">form_fmt_field</text>
</a>
</g>
</g>
<!-- Node2 -->
<g id="Node000002" class="node">
<title>Node2</title>
<g id="a_Node000002"><a xlink:href="../../dd/d42/fields_8c.html#a353546f4d99ef7ec908d371187f033de" target="_top" xlink:title="Check if a given date is valid, including leap years.">
<polygon fill="white" stroke="#666666" points="205.62,-790.23 125.12,-790.23 125.12,-769.48 205.62,-769.48 205.62,-790.23"/>
<text xml:space="preserve" text-anchor="middle" x="165.38" y="-776.73" font-family="Helvetica,sans-Serif" font-size="10.00">is_valid_date</text>
</a>
</g>
</g>
<!-- Node1&#45;&gt;Node2 -->
<g id="edge1_Node000001_Node000002" class="edge">
<title>Node1&#45;&gt;Node2</title>
<g id="a_edge1_Node000001_Node000002"><a xlink:title=" ">
<path fill="none" stroke="#63b8ff" d="M48.36,-616.59C56.4,-643.8 80.96,-716.44 124.75,-759.86 125.77,-760.86 126.84,-761.83 127.97,-762.75"/>
<polygon fill="#63b8ff" stroke="#63b8ff" points="125.77,-765.5 136.01,-768.22 129.71,-759.71 125.77,-765.5"/>
</a>
</g>
</g>
<!-- Node3 -->
<g id="Node000003" class="node">
<title>Node3</title>
<g id="a_Node000003"><a xlink:href="../../dd/d42/fields_8c.html#a56bbb25c4d0944e1b96b9a723cde2ae9" target="_top" xlink:title="Check if a given time is valid.">
<polygon fill="white" stroke="#666666" points="206,-751.23 124.75,-751.23 124.75,-730.48 206,-730.48 206,-751.23"/>
<text xml:space="preserve" text-anchor="middle" x="165.38" y="-737.73" font-family="Helvetica,sans-Serif" font-size="10.00">is_valid_time</text>
</a>
</g>
</g>
<!-- Node1&#45;&gt;Node3 -->
<g id="edge2_Node000001_Node000003" class="edge">
<title>Node1&#45;&gt;Node3</title>
<g id="a_edge2_Node000001_Node000003"><a xlink:title=" ">
<path fill="none" stroke="#63b8ff" d="M50.51,-616.7C61.42,-638.8 88.91,-689.61 124.75,-720.86 126.02,-721.96 127.36,-723.03 128.76,-724.05"/>
<polygon fill="#63b8ff" stroke="#63b8ff" points="126.84,-726.98 137.17,-729.33 130.57,-721.05 126.84,-726.98"/>
</a>
</g>
</g>
<!-- Node4 -->
<g id="Node000004" class="node">
<title>Node4</title>
<g id="a_Node000004"><a xlink:href="../../dd/d42/fields_8c.html#a425021d4c87474159a36d395e4dcdf65" target="_top" xlink:title="Left justify string by removing leading spaces.">
<polygon fill="white" stroke="#666666" points="199.62,-712.23 131.12,-712.23 131.12,-691.48 199.62,-691.48 199.62,-712.23"/>
<text xml:space="preserve" text-anchor="middle" x="165.38" y="-698.73" font-family="Helvetica,sans-Serif" font-size="10.00">left_justify</text>
</a>
</g>
</g>
<!-- Node1&#45;&gt;Node4 -->
<g id="edge3_Node000001_Node000004" class="edge">
<title>Node1&#45;&gt;Node4</title>
<g id="a_edge3_Node000001_Node000004"><a xlink:title=" ">
<path fill="none" stroke="#63b8ff" d="M54.79,-616.73C68.86,-632.51 96.71,-662.03 124.75,-681.86 126.54,-683.12 128.43,-684.36 130.36,-685.55"/>
<polygon fill="#63b8ff" stroke="#63b8ff" points="128.5,-688.51 138.93,-690.37 131.93,-682.41 128.5,-688.51"/>
</a>
</g>
</g>
<!-- Node5 -->
<g id="Node000005" class="node">
<title>Node5</title>
<g id="a_Node000005"><a xlink:href="../../d0/d59/futil_8c.html#a34703756fd5be0fde758400f320db047" target="_top" xlink:title="Trims leading and trailing spaces from string s in place.">
<polygon fill="white" stroke="#666666" points="288.75,-673.23 252.5,-673.23 252.5,-652.48 288.75,-652.48 288.75,-673.23"/>
<text xml:space="preserve" text-anchor="middle" x="270.62" y="-659.73" font-family="Helvetica,sans-Serif" font-size="10.00">trim</text>
</a>
</g>
</g>
<!-- Node1&#45;&gt;Node5 -->
<g id="edge46_Node000001_Node000005" class="edge">
<title>Node1&#45;&gt;Node5</title>
<g id="a_edge46_Node000001_Node000005"><a xlink:title=" ">
<path fill="none" stroke="#63b8ff" d="M89.18,-615.5C121.57,-622.8 166.69,-633.35 206,-643.86 217.65,-646.97 230.41,-650.71 241.42,-654.05"/>
<polygon fill="#63b8ff" stroke="#63b8ff" points="240.11,-657.31 250.7,-656.9 242.17,-650.62 240.11,-657.31"/>
</a>
</g>
</g>
<!-- Node6 -->
<g id="Node000006" class="node">
<title>Node6</title>
<g id="a_Node000006"><a xlink:href="../../dd/d42/fields_8c.html#aac069c6892f64ea6307044a92b179faa" target="_top" xlink:title="Create filler string for field.">
<polygon fill="white" stroke="#666666" points="195.12,-597.23 135.62,-597.23 135.62,-576.48 195.12,-576.48 195.12,-597.23"/>
<text xml:space="preserve" text-anchor="middle" x="165.38" y="-583.73" font-family="Helvetica,sans-Serif" font-size="10.00">mk_filler</text>
</a>
</g>
</g>
<!-- Node1&#45;&gt;Node6 -->
<g id="edge5_Node000001_Node000006" class="edge">
<title>Node1&#45;&gt;Node6</title>
<g id="a_edge5_Node000001_Node000006"><a xlink:title=" ">
<path fill="none" stroke="#63b8ff" d="M89.01,-598.89C100.43,-597.06 112.7,-595.11 123.94,-593.31"/>
<polygon fill="#63b8ff" stroke="#63b8ff" points="124.4,-596.78 133.72,-591.75 123.3,-589.87 124.4,-596.78"/>
</a>
</g>
</g>
<!-- Node7 -->
<g id="Node000007" class="node">
<title>Node7</title>
<g id="a_Node000007"><a xlink:href="../../dd/d42/fields_8c.html#a18db59e4c79e823f79310378183ac25c" target="_top" xlink:title="Extract numeric characters from source string to destination string.">
<polygon fill="white" stroke="#666666" points="193.25,-558.23 137.5,-558.23 137.5,-537.48 193.25,-537.48 193.25,-558.23"/>
<text xml:space="preserve" text-anchor="middle" x="165.38" y="-544.73" font-family="Helvetica,sans-Serif" font-size="10.00">numeric</text>
</a>
</g>
</g>
<!-- Node1&#45;&gt;Node7 -->
<g id="edge6_Node000001_Node000007" class="edge">
<title>Node1&#45;&gt;Node7</title>
<g id="a_edge6_Node000001_Node000007"><a xlink:title=" ">
<path fill="none" stroke="#63b8ff" d="M67.48,-595.08C85.68,-586.21 111.73,-573.51 132.24,-563.52"/>
<polygon fill="#63b8ff" stroke="#63b8ff" points="133.57,-566.76 141.03,-559.23 130.51,-560.47 133.57,-566.76"/>
</a>
</g>
</g>
<!-- Node8 -->
<g id="Node000008" class="node">
<title>Node8</title>
<g id="a_Node000008"><a xlink:href="../../dc/d40/dwin_8c.html#a61b4f28456257f68ed042bed7f187efd" target="_top" xlink:title="Display a simple error message window or print to stderr.">
<polygon fill="white" stroke="#666666" points="188,-329.23 142.75,-329.23 142.75,-308.48 188,-308.48 188,-329.23"/>
<text xml:space="preserve" text-anchor="middle" x="165.38" y="-315.73" font-family="Helvetica,sans-Serif" font-size="10.00">Perror</text>
</a>
</g>
</g>
<!-- Node1&#45;&gt;Node8 -->
<g id="edge7_Node000001_Node000008" class="edge">
<title>Node1&#45;&gt;Node8</title>
<g id="a_edge7_Node000001_Node000008"><a xlink:title=" ">
<path fill="none" stroke="#63b8ff" d="M49.75,-595.3C67.21,-553.2 132.06,-396.79 155.69,-339.8"/>
<polygon fill="#63b8ff" stroke="#63b8ff" points="158.78,-341.48 159.38,-330.9 152.32,-338.8 158.78,-341.48"/>
</a>
</g>
</g>
<!-- Node19 -->
<g id="Node000019" class="node">
<title>Node19</title>
<g id="a_Node000019"><a xlink:href="../../d0/d59/futil_8c.html#a0de2e40df9bd7efc8fd9afb8ad2257e6" target="_top" xlink:title="safer alternative to strncpy">
<polygon fill="white" stroke="#666666" points="660.75,-424.23 593,-424.23 593,-403.48 660.75,-403.48 660.75,-424.23"/>
<text xml:space="preserve" text-anchor="middle" x="626.88" y="-410.73" font-family="Helvetica,sans-Serif" font-size="10.00">strnz__cpy</text>
</a>
</g>
</g>
<!-- Node1&#45;&gt;Node19 -->
<g id="edge45_Node000001_Node000019" class="edge">
<title>Node1&#45;&gt;Node19</title>
<g id="a_edge45_Node000001_Node000019"><a xlink:title=" ">
<path fill="none" stroke="#63b8ff" d="M52.72,-595.22C65.27,-578 92.6,-544.4 124.75,-528.86 183.22,-500.59 204.68,-509.86 269.62,-509.86 269.62,-509.86 269.62,-509.86 382.5,-509.86 462.59,-509.86 484.7,-499.32 557,-464.86 574.94,-456.3 592.91,-442.79 606,-431.82"/>
<polygon fill="#63b8ff" stroke="#63b8ff" points="608.17,-434.57 613.44,-425.38 603.59,-429.27 608.17,-434.57"/>
</a>
</g>
</g>
<!-- Node25 -->
<g id="Node000025" class="node">
<title>Node25</title>
<g id="a_Node000025"><a xlink:href="../../d0/d59/futil_8c.html#a636608f26d1193b5d860f2312cd8ee49" target="_top" xlink:title="terminates string at New Line, Carriage Return, or max_len">
<polygon fill="white" stroke="#666666" points="530.38,-22.23 490.38,-22.23 490.38,-1.48 530.38,-1.48 530.38,-22.23"/>
<text xml:space="preserve" text-anchor="middle" x="510.38" y="-8.73" font-family="Helvetica,sans-Serif" font-size="10.00">strnz</text>
</a>
</g>
</g>
<!-- Node1&#45;&gt;Node25 -->
<g id="edge44_Node000001_Node000025" class="edge">
<title>Node1&#45;&gt;Node25</title>
<g id="a_edge44_Node000001_Node000025"><a xlink:title=" ">
<path fill="none" stroke="#63b8ff" d="M45.15,-595.31C44.43,-530.67 49.85,-186.11 242,-42.86 313.05,10.12 425.58,1.62 479.13,-6.35"/>
<polygon fill="#63b8ff" stroke="#63b8ff" points="478.3,-9.76 488.73,-7.88 479.4,-2.85 478.3,-9.76"/>
</a>
</g>
</g>
<!-- Node28 -->
<g id="Node000028" class="node">
<title>Node28</title>
<g id="a_Node000028"><a xlink:href="../../dd/d42/fields_8c.html#a21ebe9713e3b003715a7a2c3b64cbf55" target="_top" xlink:title="Right justify string by removing trailing spaces and adding leading spaces.">
<polygon fill="white" stroke="#666666" points="202.62,-673.23 128.12,-673.23 128.12,-652.48 202.62,-652.48 202.62,-673.23"/>
<text xml:space="preserve" text-anchor="middle" x="165.38" y="-659.73" font-family="Helvetica,sans-Serif" font-size="10.00">right_justify</text>
</a>
</g>
</g>
<!-- Node1&#45;&gt;Node28 -->
<g id="edge42_Node000001_Node000028" class="edge">
<title>Node1&#45;&gt;Node28</title>
<g id="a_edge42_Node000001_Node000028"><a xlink:title=" ">
<path fill="none" stroke="#63b8ff" d="M68.04,-616.71C85.99,-625.31 111.31,-637.44 131.49,-647.1"/>
<polygon fill="#63b8ff" stroke="#63b8ff" points="129.9,-650.22 140.43,-651.39 132.92,-643.91 129.9,-650.22"/>
</a>
</g>
</g>
<!-- Node4&#45;&gt;Node5 -->
<g id="edge4_Node000004_Node000005" class="edge">
<title>Node4&#45;&gt;Node5</title>
<g id="a_edge4_Node000004_Node000005"><a xlink:title=" ">
<path fill="none" stroke="#63b8ff" d="M195.14,-690.99C209.54,-685.55 226.93,-678.98 241.28,-673.56"/>
<polygon fill="#63b8ff" stroke="#63b8ff" points="242.49,-676.85 250.6,-670.04 240.01,-670.3 242.49,-676.85"/>
</a>
</g>
</g>
<!-- Node9 -->
<g id="Node000009" class="node">
<title>Node9</title>
<g id="a_Node000009"><a xlink:href="../../dc/d40/dwin_8c.html#a8f6c45ca4a7f6a41c4c88314e697565a" target="_top" xlink:title="Abnormal program termination.">
<polygon fill="white" stroke="#666666" points="649.88,-137.23 603.88,-137.23 603.88,-116.48 649.88,-116.48 649.88,-137.23"/>
<text xml:space="preserve" text-anchor="middle" x="626.88" y="-123.73" font-family="Helvetica,sans-Serif" font-size="10.00">abend</text>
</a>
</g>
</g>
<!-- Node8&#45;&gt;Node9 -->
<g id="edge8_Node000008_Node000009" class="edge">
<title>Node8&#45;&gt;Node9</title>
<g id="a_edge8_Node000008_Node000009"><a xlink:title=" ">
<path fill="none" stroke="#63b8ff" d="M168.75,-308.16C175.44,-280.35 196.98,-204.95 242,-161.86 344.61,-63.63 416.24,-88.8 557,-107.86 568.77,-109.45 581.37,-112.51 592.53,-115.71"/>
<polygon fill="#63b8ff" stroke="#63b8ff" points="591.51,-119.06 602.1,-118.61 593.54,-112.36 591.51,-119.06"/>
</a>
</g>
</g>
<!-- Node13 -->
<g id="Node000013" class="node">
<title>Node13</title>
<g id="a_Node000013"><a xlink:href="../../dc/d40/dwin_8c.html#a645871e46277e31736bc36d0f3dce4bd" target="_top" xlink:title="construct the chyron string from the chyron structure">
<polygon fill="white" stroke="#666666" points="557,-61.23 463.75,-61.23 463.75,-40.48 557,-40.48 557,-61.23"/>
<text xml:space="preserve" text-anchor="middle" x="510.38" y="-47.73" font-family="Helvetica,sans-Serif" font-size="10.00">compile_chyron</text>
</a>
</g>
</g>
<!-- Node8&#45;&gt;Node13 -->
<g id="edge14_Node000008_Node000013" class="edge">
<title>Node8&#45;&gt;Node13</title>
<g id="a_edge14_Node000008_Node000013"><a xlink:title=" ">
<path fill="none" stroke="#63b8ff" d="M165.9,-308.07C164.85,-269.22 166.99,-135.5 242,-74.86 300.99,-27.16 393.05,-30.41 452.28,-39.11"/>
<polygon fill="#63b8ff" stroke="#63b8ff" points="451.39,-42.51 461.81,-40.61 452.48,-35.6 451.39,-42.51"/>
</a>
</g>
</g>
<!-- Node15 -->
<g id="Node000015" class="node">
<title>Node15</title>
<g id="a_Node000015"><a xlink:href="../../dc/d40/dwin_8c.html#a3f3feb40fd703913c5c136331f627c91" target="_top" xlink:title="Destroy Chyron structure.">
<polygon fill="white" stroke="#666666" points="555.88,-406.23 464.88,-406.23 464.88,-385.48 555.88,-385.48 555.88,-406.23"/>
<text xml:space="preserve" text-anchor="middle" x="510.38" y="-392.73" font-family="Helvetica,sans-Serif" font-size="10.00">destroy_chyron</text>
</a>
</g>
</g>
<!-- Node8&#45;&gt;Node15 -->
<g id="edge16_Node000008_Node000015" class="edge">
<title>Node8&#45;&gt;Node15</title>
<g id="a_edge16_Node000008_Node000015"><a xlink:title=" ">
<path fill="none" stroke="#63b8ff" d="M188.42,-329.39C203.27,-336.11 223.45,-344.53 242,-349.86 313.64,-370.43 398.88,-383.15 453.53,-389.86"/>
<polygon fill="#63b8ff" stroke="#63b8ff" points="452.86,-393.3 463.2,-391.02 453.69,-386.35 452.86,-393.3"/>
</a>
</g>
</g>
<!-- Node16 -->
<g id="Node000016" class="node">
<title>Node16</title>
<g id="a_Node000016"><a xlink:href="../../dc/d40/dwin_8c.html#ad37d5808ff30ae6894780425d865abae" target="_top" xlink:title="Create and initialize Chyron structure.">
<polygon fill="white" stroke="#666666" points="547.62,-137.23 473.12,-137.23 473.12,-116.48 547.62,-116.48 547.62,-137.23"/>
<text xml:space="preserve" text-anchor="middle" x="510.38" y="-123.73" font-family="Helvetica,sans-Serif" font-size="10.00">new_chyron</text>
</a>
</g>
</g>
<!-- Node8&#45;&gt;Node16 -->
<g id="edge17_Node000008_Node000016" class="edge">
<title>Node8&#45;&gt;Node16</title>
<g id="a_edge17_Node000008_Node000016"><a xlink:title=" ">
<path fill="none" stroke="#63b8ff" d="M172.37,-308.37C191.3,-276.48 253.38,-180.72 335.25,-145.86 375.52,-128.71 425.54,-124.83 461.63,-124.73"/>
<polygon fill="#63b8ff" stroke="#63b8ff" points="461.28,-128.23 471.31,-124.81 461.34,-121.23 461.28,-128.23"/>
</a>
</g>
</g>
<!-- Node17 -->
<g id="Node000017" class="node">
<title>Node17</title>
<g id="a_Node000017"><a xlink:href="../../dc/d40/dwin_8c.html#a208ce92c197fdd6d2b007987e534aa3b" target="_top" xlink:title="Set chyron key.">
<polygon fill="white" stroke="#666666" points="556.25,-328.23 464.5,-328.23 464.5,-307.48 556.25,-307.48 556.25,-328.23"/>
<text xml:space="preserve" text-anchor="middle" x="510.38" y="-314.73" font-family="Helvetica,sans-Serif" font-size="10.00">set_chyron_key</text>
</a>
</g>
</g>
<!-- Node8&#45;&gt;Node17 -->
<g id="edge19_Node000008_Node000017" class="edge">
<title>Node8&#45;&gt;Node17</title>
<g id="a_edge19_Node000008_Node000017"><a xlink:title=" ">
<path fill="none" stroke="#63b8ff" d="M188.35,-318.79C240.95,-318.64 375.43,-318.25 452.62,-318.02"/>
<polygon fill="#63b8ff" stroke="#63b8ff" points="452.53,-321.52 462.52,-317.99 452.51,-314.52 452.53,-321.52"/>
</a>
</g>
</g>
<!-- Node18 -->
<g id="Node000018" class="node">
<title>Node18</title>
<g id="a_Node000018"><a xlink:href="../../d0/d59/futil_8c.html#a63eb94756fb011a456a3dec900709cd8" target="_top" xlink:title="ssnprintf was designed to be a safer alternative to snprintf.">
<polygon fill="white" stroke="#666666" points="656.25,-328.23 597.5,-328.23 597.5,-307.48 656.25,-307.48 656.25,-328.23"/>
<text xml:space="preserve" text-anchor="middle" x="626.88" y="-314.73" font-family="Helvetica,sans-Serif" font-size="10.00">ssnprintf</text>
</a>
</g>
</g>
<!-- Node8&#45;&gt;Node18 -->
<g id="edge21_Node000008_Node000018" class="edge">
<title>Node8&#45;&gt;Node18</title>
<g id="a_edge21_Node000008_Node000018"><a xlink:title=" ">
<path fill="none" stroke="#63b8ff" d="M178.88,-329.64C193.2,-341.46 217.82,-360.14 242,-370.86 371.24,-428.11 431.4,-479.72 557,-414.86 587.61,-399.05 607.58,-362.65 617.77,-339.21"/>
<polygon fill="#63b8ff" stroke="#63b8ff" points="620.99,-340.59 621.53,-330.01 614.51,-337.94 620.99,-340.59"/>
</a>
</g>
</g>
<!-- Node8&#45;&gt;Node19 -->
<g id="edge22_Node000008_Node000019" class="edge">
<title>Node8&#45;&gt;Node19</title>
<g id="a_edge22_Node000008_Node000019"><a xlink:title=" ">
<path fill="none" stroke="#63b8ff" d="M174.46,-329.48C187.33,-345.84 213.89,-377.43 242,-397.86 279.23,-424.91 290.43,-432.42 335.25,-442.86 431.24,-465.2 460.52,-463.96 557,-443.86 570.59,-441.02 584.78,-435.36 596.73,-429.71"/>
<polygon fill="#63b8ff" stroke="#63b8ff" points="598.24,-432.87 605.63,-425.28 595.12,-426.6 598.24,-432.87"/>
</a>
</g>
</g>
<!-- Node20 -->
<g id="Node000020" class="node">
<title>Node20</title>
<g id="a_Node000020"><a xlink:href="../../dc/d40/dwin_8c.html#a9dd598e1d49c8764af1eec42c682623e" target="_top" xlink:title="Delete the current window and its associated box window.">
<polygon fill="white" stroke="#666666" points="537.12,-367.23 483.62,-367.23 483.62,-346.48 537.12,-346.48 537.12,-367.23"/>
<text xml:space="preserve" text-anchor="middle" x="510.38" y="-353.73" font-family="Helvetica,sans-Serif" font-size="10.00">win_del</text>
</a>
</g>
</g>
<!-- Node8&#45;&gt;Node20 -->
<g id="edge23_Node000008_Node000020" class="edge">
<title>Node8&#45;&gt;Node20</title>
<g id="a_edge23_Node000008_Node000020"><a xlink:title=" ">
<path fill="none" stroke="#63b8ff" d="M188.46,-323.51C203.49,-326.54 223.88,-330.37 242,-332.86 323.82,-344.08 420.47,-351.26 472.23,-354.62"/>
<polygon fill="#63b8ff" stroke="#63b8ff" points="471.76,-358.1 481.96,-355.24 472.21,-351.11 471.76,-358.1"/>
</a>
</g>
</g>
<!-- Node21 -->
<g id="Node000021" class="node">
<title>Node21</title>
<g id="a_Node000021"><a xlink:href="../../dc/d40/dwin_8c.html#a435c7bff7ffedb8f51c6de9259e36f6c" target="_top" xlink:title="Create a new window with optional box and title.">
<polygon fill="white" stroke="#666666" points="539.75,-289.23 481,-289.23 481,-268.48 539.75,-268.48 539.75,-289.23"/>
<text xml:space="preserve" text-anchor="middle" x="510.38" y="-275.73" font-family="Helvetica,sans-Serif" font-size="10.00">win_new</text>
</a>
</g>
</g>
<!-- Node8&#45;&gt;Node21 -->
<g id="edge24_Node000008_Node000021" class="edge">
<title>Node8&#45;&gt;Node21</title>
<g id="a_edge24_Node000008_Node000021"><a xlink:title=" ">
<path fill="none" stroke="#63b8ff" d="M188.35,-316.29C244.94,-309.69 396.28,-292.04 469.12,-283.55"/>
<polygon fill="#63b8ff" stroke="#63b8ff" points="469.49,-287.03 479.02,-282.4 468.68,-280.08 469.49,-287.03"/>
</a>
</g>
</g>
<!-- Node23 -->
<g id="Node000023" class="node">
<title>Node23</title>
<g id="a_Node000023"><a xlink:href="../../dc/d40/dwin_8c.html#acf4c709bccc4c965a5d61db978db31a3" target="_top" xlink:title="Wrapper for wgetch that handles signals and mouse events.">
<polygon fill="white" stroke="#666666" points="299.25,-253.23 242,-253.23 242,-232.48 299.25,-232.48 299.25,-253.23"/>
<text xml:space="preserve" text-anchor="middle" x="270.62" y="-239.73" font-family="Helvetica,sans-Serif" font-size="10.00">xwgetch</text>
</a>
</g>
</g>
<!-- Node8&#45;&gt;Node23 -->
<g id="edge27_Node000008_Node000023" class="edge">
<title>Node8&#45;&gt;Node23</title>
<g id="a_edge27_Node000008_Node000023"><a xlink:title=" ">
<path fill="none" stroke="#63b8ff" d="M180.73,-308.29C197.59,-295.88 225.8,-275.12 245.92,-260.31"/>
<polygon fill="#63b8ff" stroke="#63b8ff" points="247.86,-263.22 253.84,-254.48 243.71,-257.58 247.86,-263.22"/>
</a>
</g>
</g>
<!-- Node10 -->
<g id="Node000010" class="node">
<title>Node10</title>
<g id="a_Node000010"><a xlink:href="../../dc/d40/dwin_8c.html#afc0985a403e3eac0b2cd8f0fab500256" target="_top" xlink:title="Gracefully shut down NCurses and restore terminal settings.">
<polygon fill="white" stroke="#666666" points="786.25,-137.23 696.75,-137.23 696.75,-116.48 786.25,-116.48 786.25,-137.23"/>
<text xml:space="preserve" text-anchor="middle" x="741.5" y="-123.73" font-family="Helvetica,sans-Serif" font-size="10.00">destroy_curses</text>
</a>
</g>
</g>
<!-- Node9&#45;&gt;Node10 -->
<g id="edge9_Node000009_Node000010" class="edge">
<title>Node9&#45;&gt;Node10</title>
<g id="a_edge9_Node000009_Node000010"><a xlink:title=" ">
<path fill="none" stroke="#63b8ff" d="M650.13,-126.86C660.24,-126.86 672.69,-126.86 685.09,-126.86"/>
<polygon fill="#63b8ff" stroke="#63b8ff" points="684.88,-130.36 694.88,-126.86 684.88,-123.36 684.88,-130.36"/>
</a>
</g>
</g>
<!-- Node11 -->
<g id="Node000011" class="node">
<title>Node11</title>
<g id="a_Node000011"><a xlink:href="../../d7/d72/scriou_8c.html#ac5e3adb304b78910fc77761ef6a743f0" target="_top" xlink:title="restore_shell_tioctl() &#45; restore shell terminal settings">
<polygon fill="white" stroke="#666666" points="931.25,-165.23 822.25,-165.23 822.25,-144.48 931.25,-144.48 931.25,-165.23"/>
<text xml:space="preserve" text-anchor="middle" x="876.75" y="-151.73" font-family="Helvetica,sans-Serif" font-size="10.00">restore_shell_tioctl</text>
</a>
</g>
</g>
<!-- Node9&#45;&gt;Node11 -->
<g id="edge12_Node000009_Node000011" class="edge">
<title>Node9&#45;&gt;Node11</title>
<g id="a_edge12_Node000009_Node000011"><a xlink:title=" ">
<path fill="none" stroke="#63b8ff" d="M650.25,-134.37C663.59,-138.51 680.95,-143.31 696.75,-145.86 734.15,-151.88 776.46,-154.21 810.55,-155"/>
<polygon fill="#63b8ff" stroke="#63b8ff" points="810.2,-158.49 820.26,-155.18 810.33,-151.49 810.2,-158.49"/>
</a>
</g>
</g>
<!-- Node12 -->
<g id="Node000012" class="node">
<title>Node12</title>
<g id="a_Node000012"><a xlink:href="../../da/d12/sig_8c.html#a06c1eb6cf3649dc187115565409f91af" target="_top" xlink:title="Set signal handlers to default behavior.">
<polygon fill="white" stroke="#666666" points="917.38,-117.23 836.12,-117.23 836.12,-96.48 917.38,-96.48 917.38,-117.23"/>
<text xml:space="preserve" text-anchor="middle" x="876.75" y="-103.73" font-family="Helvetica,sans-Serif" font-size="10.00">sig_dfl_mode</text>
</a>
</g>
</g>
<!-- Node9&#45;&gt;Node12 -->
<g id="edge13_Node000009_Node000012" class="edge">
<title>Node9&#45;&gt;Node12</title>
<g id="a_edge13_Node000009_Node000012"><a xlink:title=" ">
<path fill="none" stroke="#63b8ff" d="M650.21,-119.08C663.53,-114.85 680.9,-110.05 696.75,-107.86 739.53,-101.94 788.61,-102.15 824.54,-103.58"/>
<polygon fill="#63b8ff" stroke="#63b8ff" points="824.06,-107.06 834.21,-104.02 824.38,-100.07 824.06,-107.06"/>
</a>
</g>
</g>
<!-- Node10&#45;&gt;Node11 -->
<g id="edge10_Node000010_Node000011" class="edge">
<title>Node10&#45;&gt;Node11</title>
<g id="a_edge10_Node000010_Node000011"><a xlink:title=" ">
<path fill="none" stroke="#63b8ff" d="M786.5,-136.1C795.12,-137.91 804.32,-139.85 813.41,-141.76"/>
<polygon fill="#63b8ff" stroke="#63b8ff" points="812.41,-145.12 822.92,-143.75 813.85,-138.27 812.41,-145.12"/>
</a>
</g>
</g>
<!-- Node10&#45;&gt;Node12 -->
<g id="edge11_Node000010_Node000012" class="edge">
<title>Node10&#45;&gt;Node12</title>
<g id="a_edge11_Node000010_Node000012"><a xlink:title=" ">
<path fill="none" stroke="#63b8ff" d="M786.5,-120.25C798.69,-118.42 812.02,-116.42 824.58,-114.54"/>
<polygon fill="#63b8ff" stroke="#63b8ff" points="824.98,-118.02 834.35,-113.07 823.94,-111.09 824.98,-118.02"/>
</a>
</g>
</g>
<!-- Node14 -->
<g id="Node000014" class="node">
<title>Node14</title>
<g id="a_Node000014"><a xlink:href="../../d0/d59/futil_8c.html#aa0145c044cfdde3a1c83323410a59f25" target="_top" xlink:title="safer alternative to strncat">
<polygon fill="white" stroke="#666666" points="659.62,-61.23 594.12,-61.23 594.12,-40.48 659.62,-40.48 659.62,-61.23"/>
<text xml:space="preserve" text-anchor="middle" x="626.88" y="-47.73" font-family="Helvetica,sans-Serif" font-size="10.00">strnz__cat</text>
</a>
</g>
</g>
<!-- Node13&#45;&gt;Node14 -->
<g id="edge15_Node000013_Node000014" class="edge">
<title>Node13&#45;&gt;Node14</title>
<g id="a_edge15_Node000013_Node000014"><a xlink:title=" ">
<path fill="none" stroke="#63b8ff" d="M557.29,-50.86C565.58,-50.86 574.19,-50.86 582.41,-50.86"/>
<polygon fill="#63b8ff" stroke="#63b8ff" points="582.17,-54.36 592.17,-50.86 582.17,-47.36 582.17,-54.36"/>
</a>
</g>
</g>
<!-- Node16&#45;&gt;Node9 -->
<g id="edge18_Node000016_Node000009" class="edge">
<title>Node16&#45;&gt;Node9</title>
<g id="a_edge18_Node000016_Node000009"><a xlink:title=" ">
<path fill="none" stroke="#63b8ff" d="M547.92,-126.86C562.24,-126.86 578.55,-126.86 592.54,-126.86"/>
<polygon fill="#63b8ff" stroke="#63b8ff" points="592.14,-130.36 602.14,-126.86 592.14,-123.36 592.14,-130.36"/>
</a>
</g>
</g>
<!-- Node17&#45;&gt;Node18 -->
<g id="edge20_Node000017_Node000018" class="edge">
<title>Node17&#45;&gt;Node18</title>
<g id="a_edge20_Node000017_Node000018"><a xlink:title=" ">
<path fill="none" stroke="#63b8ff" d="M556.63,-317.86C566.21,-317.86 576.26,-317.86 585.64,-317.86"/>
<polygon fill="#63b8ff" stroke="#63b8ff" points="585.57,-321.36 595.57,-317.86 585.57,-314.36 585.57,-321.36"/>
</a>
</g>
</g>
<!-- Node21&#45;&gt;Node19 -->
<g id="edge26_Node000021_Node000019" class="edge">
<title>Node21&#45;&gt;Node19</title>
<g id="a_edge26_Node000021_Node000019"><a xlink:title=" ">
<path fill="none" stroke="#63b8ff" d="M540.01,-288.17C546.04,-290.98 552.07,-294.51 557,-298.86 586.7,-325.02 607.33,-367.17 617.84,-392.52"/>
<polygon fill="#63b8ff" stroke="#63b8ff" points="614.57,-393.76 621.51,-401.77 621.08,-391.18 614.57,-393.76"/>
</a>
</g>
</g>
<!-- Node22 -->
<g id="Node000022" class="node">
<title>Node22</title>
<g id="a_Node000022"><a xlink:href="../../dc/d40/dwin_8c.html#ac9adcf7339be4a05ab1a7350c236b8a5" target="_top" xlink:title="Draw a box around the specified window.">
<polygon fill="white" stroke="#666666" points="646.5,-289.23 607.25,-289.23 607.25,-268.48 646.5,-268.48 646.5,-289.23"/>
<text xml:space="preserve" text-anchor="middle" x="626.88" y="-275.73" font-family="Helvetica,sans-Serif" font-size="10.00">cbox</text>
</a>
</g>
</g>
<!-- Node21&#45;&gt;Node22 -->
<g id="edge25_Node000021_Node000022" class="edge">
<title>Node21&#45;&gt;Node22</title>
<g id="a_edge25_Node000021_Node000022"><a xlink:title=" ">
<path fill="none" stroke="#63b8ff" d="M539.97,-278.86C556.9,-278.86 578.32,-278.86 595.54,-278.86"/>
<polygon fill="#63b8ff" stroke="#63b8ff" points="595.44,-282.36 605.44,-278.86 595.44,-275.36 595.44,-282.36"/>
</a>
</g>
</g>
<!-- Node24 -->
<g id="Node000024" class="node">
<title>Node24</title>
<g id="a_Node000024"><a xlink:href="../../dc/d40/dwin_8c.html#a67659f8a701b74f4dec0d36227a10d1c" target="_top" xlink:title="Display an error message window or print to stderr.">
<polygon fill="white" stroke="#666666" points="421.38,-253.23 341.62,-253.23 341.62,-232.48 421.38,-232.48 421.38,-253.23"/>
<text xml:space="preserve" text-anchor="middle" x="381.5" y="-239.73" font-family="Helvetica,sans-Serif" font-size="10.00">display_error</text>
</a>
</g>
</g>
<!-- Node23&#45;&gt;Node24 -->
<g id="edge28_Node000023_Node000024" class="edge">
<title>Node23&#45;&gt;Node24</title>
<g id="a_edge28_Node000023_Node000024"><a xlink:title=" ">
<path fill="none" stroke="#63b8ff" d="M299.66,-236.87C309.01,-236.28 319.73,-236.03 330.23,-236.12"/>
<polygon fill="#63b8ff" stroke="#63b8ff" points="329.9,-239.62 339.97,-236.32 330.04,-232.62 329.9,-239.62"/>
</a>
</g>
</g>
<!-- Node26 -->
<g id="Node000026" class="node">
<title>Node26</title>
<g id="a_Node000026"><a xlink:href="../../dc/d40/dwin_8c.html#a4298f891699300bfc4e6e56fd2a8d574" target="_top" xlink:title="Get keycode from chyron.">
<polygon fill="white" stroke="#666666" points="427.75,-175.23 335.25,-175.23 335.25,-154.48 427.75,-154.48 427.75,-175.23"/>
<text xml:space="preserve" text-anchor="middle" x="381.5" y="-161.73" font-family="Helvetica,sans-Serif" font-size="10.00">get_chyron_key</text>
</a>
</g>
</g>
<!-- Node23&#45;&gt;Node26 -->
<g id="edge40_Node000023_Node000026" class="edge">
<title>Node23&#45;&gt;Node26</title>
<g id="a_edge40_Node000023_Node000026"><a xlink:title=" ">
<path fill="none" stroke="#63b8ff" d="M281.13,-232.31C292.89,-219.75 313.96,-198.73 335.25,-184.86 337.5,-183.39 339.87,-181.99 342.3,-180.65"/>
<polygon fill="#63b8ff" stroke="#63b8ff" points="343.76,-183.83 351.13,-176.22 340.62,-177.58 343.76,-183.83"/>
</a>
</g>
</g>
<!-- Node27 -->
<g id="Node000027" class="node">
<title>Node27</title>
<g id="a_Node000027"><a xlink:href="../../d0/d6b/cm_8h.html#a0667873879b5846c3fe2fa2cc96059d6" target="_top" xlink:title=" ">
<polygon fill="white" stroke="#666666" points="423.25,-214.23 339.75,-214.23 339.75,-193.48 423.25,-193.48 423.25,-214.23"/>
<text xml:space="preserve" text-anchor="middle" x="381.5" y="-200.73" font-family="Helvetica,sans-Serif" font-size="10.00">handle_signal</text>
</a>
</g>
</g>
<!-- Node23&#45;&gt;Node27 -->
<g id="edge41_Node000023_Node000027" class="edge">
<title>Node23&#45;&gt;Node27</title>
<g id="a_edge41_Node000023_Node000027"><a xlink:title=" ">
<path fill="none" stroke="#63b8ff" d="M299.66,-232.81C311.77,-228.47 326.18,-223.31 339.46,-218.56"/>
<polygon fill="#63b8ff" stroke="#63b8ff" points="340.61,-221.86 348.84,-215.2 338.25,-215.27 340.61,-221.86"/>
</a>
</g>
</g>
<!-- Node24&#45;&gt;Node9 -->
<g id="edge29_Node000024_Node000009" class="edge">
<title>Node24&#45;&gt;Node9</title>
<g id="a_edge29_Node000024_Node000009"><a xlink:title=" ">
<path fill="none" stroke="#63b8ff" d="M407.47,-232.01C414.08,-229.08 421.2,-225.89 427.75,-222.86 486.88,-195.47 555.11,-161.99 594.11,-142.67"/>
<polygon fill="#63b8ff" stroke="#63b8ff" points="595.54,-145.87 602.94,-138.29 592.43,-139.6 595.54,-145.87"/>
</a>
</g>
</g>
<!-- Node24&#45;&gt;Node13 -->
<g id="edge30_Node000024_Node000013" class="edge">
<title>Node24&#45;&gt;Node13</title>
<g id="a_edge30_Node000024_Node000013"><a xlink:title=" ">
<path fill="none" stroke="#63b8ff" d="M415.88,-232.14C420.29,-229.63 424.43,-226.57 427.75,-222.86 463.43,-182.91 438.58,-155.13 463.75,-107.86 471.12,-94.01 482.03,-80.23 491.33,-69.69"/>
<polygon fill="#63b8ff" stroke="#63b8ff" points="493.78,-72.2 497.94,-62.46 488.61,-67.48 493.78,-72.2"/>
</a>
</g>
</g>
<!-- Node24&#45;&gt;Node15 -->
<g id="edge31_Node000024_Node000015" class="edge">
<title>Node24&#45;&gt;Node15</title>
<g id="a_edge31_Node000024_Node000015"><a xlink:title=" ">
<path fill="none" stroke="#63b8ff" d="M386.47,-253.68C396.06,-278.49 422.78,-340.09 463.75,-375.86 465.18,-377.11 466.71,-378.29 468.3,-379.41"/>
<polygon fill="#63b8ff" stroke="#63b8ff" points="466.23,-382.25 476.61,-384.35 469.8,-376.23 466.23,-382.25"/>
</a>
</g>
</g>
<!-- Node24&#45;&gt;Node16 -->
<g id="edge32_Node000024_Node000016" class="edge">
<title>Node24&#45;&gt;Node16</title>
<g id="a_edge32_Node000024_Node000016"><a xlink:title=" ">
<path fill="none" stroke="#63b8ff" d="M414.43,-232.14C419.25,-229.6 423.9,-226.53 427.75,-222.86 453.64,-198.16 438.71,-176.41 463.75,-150.86 466.38,-148.17 469.38,-145.72 472.55,-143.5"/>
<polygon fill="#63b8ff" stroke="#63b8ff" points="474.36,-146.49 481.09,-138.31 470.73,-140.51 474.36,-146.49"/>
</a>
</g>
</g>
<!-- Node24&#45;&gt;Node17 -->
<g id="edge33_Node000024_Node000017" class="edge">
<title>Node24&#45;&gt;Node17</title>
<g id="a_edge33_Node000024_Node000017"><a xlink:title=" ">
<path fill="none" stroke="#63b8ff" d="M396.67,-253.62C412.5,-265.36 439.14,-284.28 463.75,-297.86 466.43,-299.33 469.23,-300.78 472.08,-302.18"/>
<polygon fill="#63b8ff" stroke="#63b8ff" points="470.53,-305.32 481.07,-306.38 473.49,-298.98 470.53,-305.32"/>
</a>
</g>
</g>
<!-- Node24&#45;&gt;Node18 -->
<g id="edge34_Node000024_Node000018" class="edge">
<title>Node24&#45;&gt;Node18</title>
<g id="a_edge34_Node000024_Node000018"><a xlink:title=" ">
<path fill="none" stroke="#63b8ff" d="M406.87,-232C442.65,-217.86 510.21,-198.12 557,-226.86 587.15,-245.37 568.97,-271.89 593,-297.86 593.82,-298.74 594.68,-299.6 595.58,-300.43"/>
<polygon fill="#63b8ff" stroke="#63b8ff" points="593.13,-302.96 603.2,-306.26 597.39,-297.4 593.13,-302.96"/>
</a>
</g>
</g>
<!-- Node24&#45;&gt;Node19 -->
<g id="edge36_Node000024_Node000019" class="edge">
<title>Node24&#45;&gt;Node19</title>
<g id="a_edge36_Node000024_Node000019"><a xlink:title=" ">
<path fill="none" stroke="#63b8ff" d="M421.75,-236.15C459.91,-231.88 517.71,-231.59 557,-259.86 559.92,-261.96 598.95,-351.59 616.92,-393.12"/>
<polygon fill="#63b8ff" stroke="#63b8ff" points="613.61,-394.27 620.79,-402.06 620.03,-391.49 613.61,-394.27"/>
</a>
</g>
</g>
<!-- Node24&#45;&gt;Node20 -->
<g id="edge37_Node000024_Node000020" class="edge">
<title>Node24&#45;&gt;Node20</title>
<g id="a_edge37_Node000024_Node000020"><a xlink:title=" ">
<path fill="none" stroke="#63b8ff" d="M389.34,-253.53C401.99,-272.53 430.77,-312.53 463.75,-336.86 466.67,-339.01 469.87,-341 473.16,-342.81"/>
<polygon fill="#63b8ff" stroke="#63b8ff" points="471.3,-345.8 481.82,-347.07 474.39,-339.52 471.3,-345.8"/>
</a>
</g>
</g>
<!-- Node24&#45;&gt;Node21 -->
<g id="edge38_Node000024_Node000021" class="edge">
<title>Node24&#45;&gt;Node21</title>
<g id="a_edge38_Node000024_Node000021"><a xlink:title=" ">
<path fill="none" stroke="#63b8ff" d="M420.57,-253.66C436.07,-258.06 454,-263.14 469.67,-267.59"/>
<polygon fill="#63b8ff" stroke="#63b8ff" points="468.58,-270.92 479.16,-270.28 470.49,-264.18 468.58,-270.92"/>
</a>
</g>
</g>
<!-- Node24&#45;&gt;Node23 -->
<g id="edge39_Node000024_Node000023" class="edge">
<title>Node24&#45;&gt;Node23</title>
<g id="a_edge39_Node000024_Node000023"><a xlink:title=" ">
<path fill="none" stroke="#63b8ff" d="M341.48,-249.36C331.54,-249.68 320.86,-249.69 310.92,-249.37"/>
<polygon fill="#63b8ff" stroke="#63b8ff" points="311.33,-245.88 301.17,-248.91 311,-252.88 311.33,-245.88"/>
</a>
</g>
</g>
<!-- Node24&#45;&gt;Node25 -->
<g id="edge35_Node000024_Node000025" class="edge">
<title>Node24&#45;&gt;Node25</title>
<g id="a_edge35_Node000024_Node000025"><a xlink:title=" ">
<path fill="none" stroke="#63b8ff" d="M416.73,-232.21C420.92,-229.7 424.76,-226.62 427.75,-222.86 481.42,-155.17 409.97,-99.46 463.75,-31.86 467.79,-26.78 473.38,-22.96 479.26,-20.1"/>
<polygon fill="#63b8ff" stroke="#63b8ff" points="480.46,-23.39 488.49,-16.47 477.9,-16.87 480.46,-23.39"/>
</a>
</g>
</g>
<!-- Node28&#45;&gt;Node5 -->
<g id="edge43_Node000028_Node000005" class="edge">
<title>Node28&#45;&gt;Node5</title>
<g id="a_edge43_Node000028_Node000005"><a xlink:title=" ">
<path fill="none" stroke="#63b8ff" d="M203.07,-662.86C215.46,-662.86 229.1,-662.86 240.8,-662.86"/>
<polygon fill="#63b8ff" stroke="#63b8ff" points="240.63,-666.36 250.63,-662.86 240.63,-659.36 240.63,-666.36"/>
</a>
</g>
</g>
</g>
</svg>
