<?xml version="1.0" encoding="UTF-8" standalone="no"?>
<!DOCTYPE svg PUBLIC "-//W3C//DTD SVG 1.1//EN"
 "http://www.w3.org/Graphics/SVG/1.1/DTD/svg11.dtd">
<!-- Generated by graphviz version 14.1.2 (0)
 -->
<!-- Title: form_enter_fields Pages: 1 -->
<svg width="1326pt" height="967pt"
 viewBox="0.00 0.00 1326.00 967.00" xmlns="http://www.w3.org/2000/svg" xmlns:xlink="http://www.w3.org/1999/xlink">
<g id="graph0" class="graph" transform="scale(1 1) rotate(0) translate(4 963.46)">
<title>form_enter_fields</title>
<!-- Node1 -->
<g id="Node000001" class="node">
<title>Node1</title>
<g id="a_Node000001"><a xlink:title="Handle user input for field entry, allowing navigation between fields and looping until an exit actio...">
<polygon fill="#999999" stroke="#666666" points="102.25,-420.75 0,-420.75 0,-400 102.25,-400 102.25,-420.75"/>
<text xml:space="preserve" text-anchor="middle" x="51.12" y="-407.25" font-family="Helvetica,sans-Serif" font-size="10.00">form_enter_fields</text>
</a>
</g>
</g>
<!-- Node2 -->
<g id="Node000002" class="node">
<title>Node2</title>
<g id="a_Node000002"><a xlink:href="../../dd/d42/fields_8c.html#aa3062b9adcfe4160df15f1763963f9f8" target="_top" xlink:title="Accept input for a field.">
<polygon fill="white" stroke="#666666" points="242,-420.75 138.25,-420.75 138.25,-400 242,-400 242,-420.75"/>
<text xml:space="preserve" text-anchor="middle" x="190.12" y="-407.25" font-family="Helvetica,sans-Serif" font-size="10.00">form_accept_field</text>
</a>
</g>
</g>
<!-- Node1&#45;&gt;Node2 -->
<g id="edge1_Node000001_Node000002" class="edge">
<title>Node1&#45;&gt;Node2</title>
<g id="a_edge1_Node000001_Node000002"><a xlink:title=" ">
<path fill="none" stroke="#63b8ff" d="M102.75,-410.38C110.43,-410.38 118.44,-410.38 126.34,-410.38"/>
<polygon fill="#63b8ff" stroke="#63b8ff" points="126.28,-413.88 136.28,-410.38 126.28,-406.88 126.28,-413.88"/>
</a>
</g>
</g>
<!-- Node3 -->
<g id="Node000003" class="node">
<title>Node3</title>
<g id="a_Node000003"><a xlink:href="../../dc/d40/dwin_8c.html#a645871e46277e31736bc36d0f3dce4bd" target="_top" xlink:title="construct the chyron string from the chyron structure">
<polygon fill="white" stroke="#666666" points="943.75,-755.75 850.5,-755.75 850.5,-735 943.75,-735 943.75,-755.75"/>
<text xml:space="preserve" text-anchor="middle" x="897.12" y="-742.25" font-family="Helvetica,sans-Serif" font-size="10.00">compile_chyron</text>
</a>
</g>
</g>
<!-- Node2&#45;&gt;Node3 -->
<g id="edge2_Node000002_Node000003" class="edge">
<title>Node2&#45;&gt;Node3</title>
<g id="a_edge2_Node000002_Node000003"><a xlink:title=" ">
<path fill="none" stroke="#63b8ff" d="M192.56,-420.84C202.34,-487.62 265.35,-851.38 477.62,-851.38 477.62,-851.38 477.62,-851.38 628,-851.38 723.63,-851.38 825.86,-792.34 871.57,-762.38"/>
<polygon fill="#63b8ff" stroke="#63b8ff" points="873.32,-765.43 879.69,-756.96 869.43,-759.6 873.32,-765.43"/>
</a>
</g>
</g>
<!-- Node5 -->
<g id="Node000005" class="node">
<title>Node5</title>
<g id="a_Node000005"><a xlink:href="../../d3/dee/form__engine_8c.html#a639a9c28161fb26549fb07378ae82f55" target="_top" xlink:title="Display the chyron (status line) at the bottom of the form window, showing available commands and the...">
<polygon fill="white" stroke="#666666" points="686,-925.75 568,-925.75 568,-905 686,-905 686,-925.75"/>
<text xml:space="preserve" text-anchor="middle" x="627" y="-912.25" font-family="Helvetica,sans-Serif" font-size="10.00">form_display_chyron</text>
</a>
</g>
</g>
<!-- Node2&#45;&gt;Node5 -->
<g id="edge4_Node000002_Node000005" class="edge">
<title>Node2&#45;&gt;Node5</title>
<g id="a_edge4_Node000002_Node000005"><a xlink:title=" ">
<path fill="none" stroke="#63b8ff" d="M191.26,-420.97C192.36,-487.21 201.79,-843.68 278,-912.38 363.83,-989.75 515.67,-953.18 586.96,-929.74"/>
<polygon fill="#63b8ff" stroke="#63b8ff" points="587.91,-933.11 596.26,-926.59 585.67,-926.48 587.91,-933.11"/>
</a>
</g>
</g>
<!-- Node6 -->
<g id="Node000006" class="node">
<title>Node6</title>
<g id="a_Node000006"><a xlink:href="../../dd/d42/fields_8c.html#abd1710f59277202b0a58f840d4da322e" target="_top" xlink:title="Display current field.">
<polygon fill="white" stroke="#666666" points="387,-903.75 280.25,-903.75 280.25,-883 387,-883 387,-903.75"/>
<text xml:space="preserve" text-anchor="middle" x="333.62" y="-890.25" font-family="Helvetica,sans-Serif" font-size="10.00">form_display_field</text>
</a>
</g>
</g>
<!-- Node2&#45;&gt;Node6 -->
<g id="edge6_Node000002_Node000006" class="edge">
<title>Node2&#45;&gt;Node6</title>
<g id="a_edge6_Node000002_Node000006"><a xlink:title=" ">
<path fill="none" stroke="#63b8ff" d="M191.92,-421.21C196.61,-483.07 222.55,-791.36 278,-865.38 281.3,-869.78 285.49,-873.55 290.08,-876.76"/>
<polygon fill="#63b8ff" stroke="#63b8ff" points="288.22,-879.72 298.6,-881.81 291.79,-873.7 288.22,-879.72"/>
</a>
</g>
</g>
<!-- Node8 -->
<g id="Node000008" class="node">
<title>Node8</title>
<g id="a_Node000008"><a xlink:href="../../dd/d42/fields_8c.html#a07a8d9311c88786e7310fef638d34a41" target="_top" xlink:title="Format field according to its format type.">
<polygon fill="white" stroke="#666666" points="378,-630.75 289.25,-630.75 289.25,-610 378,-610 378,-630.75"/>
<text xml:space="preserve" text-anchor="middle" x="333.62" y="-617.25" font-family="Helvetica,sans-Serif" font-size="10.00">form_fmt_field</text>
</a>
</g>
</g>
<!-- Node2&#45;&gt;Node8 -->
<g id="edge8_Node000002_Node000008" class="edge">
<title>Node2&#45;&gt;Node8</title>
<g id="a_edge8_Node000002_Node000008"><a xlink:title=" ">
<path fill="none" stroke="#63b8ff" d="M198.34,-421.08C220.81,-454.43 289.81,-556.84 319.18,-600.41"/>
<polygon fill="#63b8ff" stroke="#63b8ff" points="316.09,-602.1 324.58,-608.44 321.9,-598.19 316.09,-602.1"/>
</a>
</g>
</g>
<!-- Node15 -->
<g id="Node000015" class="node">
<title>Node15</title>
<g id="a_Node000015"><a xlink:href="../../dc/d40/dwin_8c.html#a61b4f28456257f68ed042bed7f187efd" target="_top" xlink:title="Display a simple error message window or print to stderr.">
<polygon fill="white" stroke="#666666" points="501.25,-382.75 456,-382.75 456,-362 501.25,-362 501.25,-382.75"/>
<text xml:space="preserve" text-anchor="middle" x="478.62" y="-369.25" font-family="Helvetica,sans-Serif" font-size="10.00">Perror</text>
</a>
</g>
</g>
<!-- Node2&#45;&gt;Node15 -->
<g id="edge57_Node000002_Node000015" class="edge">
<title>Node2&#45;&gt;Node15</title>
<g id="a_edge57_Node000002_Node000015"><a xlink:title=" ">
<path fill="none" stroke="#63b8ff" d="M235.57,-399.58C249.13,-396.57 264.12,-393.55 278,-391.38 336.13,-382.29 404.52,-376.92 444.28,-374.32"/>
<polygon fill="#63b8ff" stroke="#63b8ff" points="444.39,-377.82 454.15,-373.69 443.95,-370.83 444.39,-377.82"/>
</a>
</g>
</g>
<!-- Node22 -->
<g id="Node000022" class="node">
<title>Node22</title>
<g id="a_Node000022"><a xlink:href="../../dc/d40/dwin_8c.html#a208ce92c197fdd6d2b007987e534aa3b" target="_top" xlink:title="Set chyron key.">
<polygon fill="white" stroke="#666666" points="943,-135.75 851.25,-135.75 851.25,-115 943,-115 943,-135.75"/>
<text xml:space="preserve" text-anchor="middle" x="897.12" y="-122.25" font-family="Helvetica,sans-Serif" font-size="10.00">set_chyron_key</text>
</a>
</g>
</g>
<!-- Node2&#45;&gt;Node22 -->
<g id="edge58_Node000002_Node000022" class="edge">
<title>Node2&#45;&gt;Node22</title>
<g id="a_edge58_Node000002_Node000022"><a xlink:title=" ">
<path fill="none" stroke="#63b8ff" d="M193.79,-399.54C209.29,-339.31 293.68,-48.38 477.62,-48.38 477.62,-48.38 477.62,-48.38 628,-48.38 711.32,-48.38 736.51,-38.05 814.5,-67.38 838.17,-76.27 861.29,-93.78 876.85,-107.25"/>
<polygon fill="#63b8ff" stroke="#63b8ff" points="874.17,-109.54 883.95,-113.6 878.83,-104.33 874.17,-109.54"/>
</a>
</g>
</g>
<!-- Node28 -->
<g id="Node000028" class="node">
<title>Node28</title>
<g id="a_Node000028"><a xlink:href="../../dc/d40/dwin_8c.html#acf4c709bccc4c965a5d61db978db31a3" target="_top" xlink:title="Wrapper for wgetch that handles signals and mouse events.">
<polygon fill="white" stroke="#666666" points="655.62,-135.75 598.38,-135.75 598.38,-115 655.62,-115 655.62,-135.75"/>
<text xml:space="preserve" text-anchor="middle" x="627" y="-122.25" font-family="Helvetica,sans-Serif" font-size="10.00">xwgetch</text>
</a>
</g>
</g>
<!-- Node2&#45;&gt;Node28 -->
<g id="edge59_Node000002_Node000028" class="edge">
<title>Node2&#45;&gt;Node28</title>
<g id="a_edge59_Node000002_Node000028"><a xlink:title=" ">
<path fill="none" stroke="#63b8ff" d="M203.62,-399.57C249.36,-360.47 413.09,-224.54 568,-145.38 574.02,-142.3 580.61,-139.52 587.13,-137.08"/>
<polygon fill="#63b8ff" stroke="#63b8ff" points="588.2,-140.41 596.48,-133.8 585.88,-133.81 588.2,-140.41"/>
</a>
</g>
</g>
<!-- Node34 -->
<g id="Node000034" class="node">
<title>Node34</title>
<g id="a_Node000034"><a xlink:href="../../dd/d42/fields_8c.html#ad2a5cf5a784d70bcd15fcd82ecc13185" target="_top" xlink:title="Validate current field based on flags.">
<polygon fill="white" stroke="#666666" points="389.25,-420.75 278,-420.75 278,-400 389.25,-400 389.25,-420.75"/>
<text xml:space="preserve" text-anchor="middle" x="333.62" y="-407.25" font-family="Helvetica,sans-Serif" font-size="10.00">form_validate_field</text>
</a>
</g>
</g>
<!-- Node2&#45;&gt;Node34 -->
<g id="edge54_Node000002_Node000034" class="edge">
<title>Node2&#45;&gt;Node34</title>
<g id="a_edge54_Node000002_Node000034"><a xlink:title=" ">
<path fill="none" stroke="#63b8ff" d="M242.21,-410.38C250.07,-410.38 258.27,-410.38 266.4,-410.38"/>
<polygon fill="#63b8ff" stroke="#63b8ff" points="266.28,-413.88 276.28,-410.38 266.28,-406.88 266.28,-413.88"/>
</a>
</g>
</g>
<!-- Node35 -->
<g id="Node000035" class="node">
<title>Node35</title>
<g id="a_Node000035"><a xlink:href="../../d3/dee/form__engine_8c.html#a3c66bd6b1987c79ef5a31bb28227c65b" target="_top" xlink:title=" ">
<polygon fill="white" stroke="#666666" points="381.38,-20.75 285.88,-20.75 285.88,0 381.38,0 381.38,-20.75"/>
<text xml:space="preserve" text-anchor="middle" x="333.62" y="-7.25" font-family="Helvetica,sans-Serif" font-size="10.00">form_yx_to_fidx</text>
</a>
</g>
</g>
<!-- Node2&#45;&gt;Node35 -->
<g id="edge56_Node000002_Node000035" class="edge">
<title>Node2&#45;&gt;Node35</title>
<g id="a_edge56_Node000002_Node000035"><a xlink:title=" ">
<path fill="none" stroke="#63b8ff" d="M192.31,-399.61C198.56,-344.38 229.38,-93.06 278,-34.38 280.24,-31.67 282.85,-29.26 285.68,-27.12"/>
<polygon fill="#63b8ff" stroke="#63b8ff" points="287.4,-30.17 294.06,-21.93 283.71,-24.22 287.4,-30.17"/>
</a>
</g>
</g>
<!-- Node4 -->
<g id="Node000004" class="node">
<title>Node4</title>
<g id="a_Node000004"><a xlink:href="../../d0/d59/futil_8c.html#aa0145c044cfdde3a1c83323410a59f25" target="_top" xlink:title="safer alternative to strncat">
<polygon fill="white" stroke="#666666" points="1046.38,-755.75 980.88,-755.75 980.88,-735 1046.38,-735 1046.38,-755.75"/>
<text xml:space="preserve" text-anchor="middle" x="1013.62" y="-742.25" font-family="Helvetica,sans-Serif" font-size="10.00">strnz__cat</text>
</a>
</g>
</g>
<!-- Node3&#45;&gt;Node4 -->
<g id="edge3_Node000003_Node000004" class="edge">
<title>Node3&#45;&gt;Node4</title>
<g id="a_edge3_Node000003_Node000004"><a xlink:title=" ">
<path fill="none" stroke="#63b8ff" d="M944.04,-745.38C952.33,-745.38 960.94,-745.38 969.16,-745.38"/>
<polygon fill="#63b8ff" stroke="#63b8ff" points="968.92,-748.88 978.92,-745.38 968.92,-741.88 968.92,-748.88"/>
</a>
</g>
</g>
<!-- Node5&#45;&gt;Node3 -->
<g id="edge5_Node000005_Node000003" class="edge">
<title>Node5&#45;&gt;Node3</title>
<g id="a_edge5_Node000005_Node000003"><a xlink:title=" ">
<path fill="none" stroke="#63b8ff" d="M686.31,-910.38C725.54,-904.6 776.79,-892.17 814.5,-865.38 850.45,-839.84 875.39,-793.14 887.58,-766.14"/>
<polygon fill="#63b8ff" stroke="#63b8ff" points="890.65,-767.86 891.41,-757.29 884.23,-765.07 890.65,-767.86"/>
</a>
</g>
</g>
<!-- Node7 -->
<g id="Node000007" class="node">
<title>Node7</title>
<g id="a_Node000007"><a xlink:href="../../dd/d42/fields_8c.html#ad306f4b1bdcba7aefece7e4b73367b66" target="_top" xlink:title="Display brackets around current field if set.">
<polygon fill="white" stroke="#666666" points="532,-913.12 425.25,-913.12 425.25,-879.62 532,-879.62 532,-913.12"/>
<text xml:space="preserve" text-anchor="start" x="433.25" y="-899.62" font-family="Helvetica,sans-Serif" font-size="10.00">form_display_field</text>
<text xml:space="preserve" text-anchor="middle" x="478.62" y="-886.88" font-family="Helvetica,sans-Serif" font-size="10.00">_brackets</text>
</a>
</g>
</g>
<!-- Node6&#45;&gt;Node7 -->
<g id="edge7_Node000006_Node000007" class="edge">
<title>Node6&#45;&gt;Node7</title>
<g id="a_edge7_Node000006_Node000007"><a xlink:title=" ">
<path fill="none" stroke="#63b8ff" d="M387.47,-894.48C395.99,-894.66 404.89,-894.85 413.63,-895.03"/>
<polygon fill="#63b8ff" stroke="#63b8ff" points="413.42,-898.53 423.49,-895.24 413.56,-891.53 413.42,-898.53"/>
</a>
</g>
</g>
<!-- Node9 -->
<g id="Node000009" class="node">
<title>Node9</title>
<g id="a_Node000009"><a xlink:href="../../dd/d42/fields_8c.html#a353546f4d99ef7ec908d371187f033de" target="_top" xlink:title="Check if a given date is valid, including leap years.">
<polygon fill="white" stroke="#666666" points="518.88,-823.75 438.38,-823.75 438.38,-803 518.88,-803 518.88,-823.75"/>
<text xml:space="preserve" text-anchor="middle" x="478.62" y="-810.25" font-family="Helvetica,sans-Serif" font-size="10.00">is_valid_date</text>
</a>
</g>
</g>
<!-- Node8&#45;&gt;Node9 -->
<g id="edge9_Node000008_Node000009" class="edge">
<title>Node8&#45;&gt;Node9</title>
<g id="a_edge9_Node000008_Node000009"><a xlink:title=" ">
<path fill="none" stroke="#63b8ff" d="M337.31,-630.97C345.4,-660.78 372.28,-746.3 425.25,-793.38 426.68,-794.64 428.19,-795.83 429.77,-796.95"/>
<polygon fill="#63b8ff" stroke="#63b8ff" points="427.7,-799.79 438.1,-801.82 431.23,-793.75 427.7,-799.79"/>
</a>
</g>
</g>
<!-- Node10 -->
<g id="Node000010" class="node">
<title>Node10</title>
<g id="a_Node000010"><a xlink:href="../../dd/d42/fields_8c.html#a56bbb25c4d0944e1b96b9a723cde2ae9" target="_top" xlink:title="Check if a given time is valid.">
<polygon fill="white" stroke="#666666" points="519.25,-784.75 438,-784.75 438,-764 519.25,-764 519.25,-784.75"/>
<text xml:space="preserve" text-anchor="middle" x="478.62" y="-771.25" font-family="Helvetica,sans-Serif" font-size="10.00">is_valid_time</text>
</a>
</g>
</g>
<!-- Node8&#45;&gt;Node10 -->
<g id="edge10_Node000008_Node000010" class="edge">
<title>Node8&#45;&gt;Node10</title>
<g id="a_edge10_Node000008_Node000010"><a xlink:title=" ">
<path fill="none" stroke="#63b8ff" d="M339.09,-631.04C350.07,-656.07 380.8,-719.13 425.25,-754.38 426.97,-755.74 428.78,-757.01 430.68,-758.21"/>
<polygon fill="#63b8ff" stroke="#63b8ff" points="428.78,-761.16 439.25,-762.82 432.1,-755 428.78,-761.16"/>
</a>
</g>
</g>
<!-- Node11 -->
<g id="Node000011" class="node">
<title>Node11</title>
<g id="a_Node000011"><a xlink:href="../../dd/d42/fields_8c.html#a425021d4c87474159a36d395e4dcdf65" target="_top" xlink:title="Left justify string by removing leading spaces.">
<polygon fill="white" stroke="#666666" points="512.88,-706.75 444.38,-706.75 444.38,-686 512.88,-686 512.88,-706.75"/>
<text xml:space="preserve" text-anchor="middle" x="478.62" y="-693.25" font-family="Helvetica,sans-Serif" font-size="10.00">left_justify</text>
</a>
</g>
</g>
<!-- Node8&#45;&gt;Node11 -->
<g id="edge11_Node000008_Node000011" class="edge">
<title>Node8&#45;&gt;Node11</title>
<g id="a_edge11_Node000008_Node000011"><a xlink:title=" ">
<path fill="none" stroke="#63b8ff" d="M352.41,-631.23C370.49,-642.1 399.44,-659.09 425.25,-672.38 430.81,-675.24 436.77,-678.13 442.62,-680.87"/>
<polygon fill="#63b8ff" stroke="#63b8ff" points="440.97,-683.96 451.51,-684.97 443.89,-677.61 440.97,-683.96"/>
</a>
</g>
</g>
<!-- Node12 -->
<g id="Node000012" class="node">
<title>Node12</title>
<g id="a_Node000012"><a xlink:href="../../d0/d59/futil_8c.html#a34703756fd5be0fde758400f320db047" target="_top" xlink:title="Trims leading and trailing spaces from string s in place.">
<polygon fill="white" stroke="#666666" points="645.12,-706.75 608.88,-706.75 608.88,-686 645.12,-686 645.12,-706.75"/>
<text xml:space="preserve" text-anchor="middle" x="627" y="-693.25" font-family="Helvetica,sans-Serif" font-size="10.00">trim</text>
</a>
</g>
</g>
<!-- Node8&#45;&gt;Node12 -->
<g id="edge53_Node000008_Node000012" class="edge">
<title>Node8&#45;&gt;Node12</title>
<g id="a_edge53_Node000008_Node000012"><a xlink:title=" ">
<path fill="none" stroke="#63b8ff" d="M376.06,-631.18C436.12,-646.85 545.8,-675.46 597.54,-688.95"/>
<polygon fill="#63b8ff" stroke="#63b8ff" points="596.51,-692.3 607.06,-691.44 598.27,-685.53 596.51,-692.3"/>
</a>
</g>
</g>
<!-- Node13 -->
<g id="Node000013" class="node">
<title>Node13</title>
<g id="a_Node000013"><a xlink:href="../../dd/d42/fields_8c.html#aac069c6892f64ea6307044a92b179faa" target="_top" xlink:title="Create filler string for field.">
<polygon fill="white" stroke="#666666" points="508.38,-630.75 448.88,-630.75 448.88,-610 508.38,-610 508.38,-630.75"/>
<text xml:space="preserve" text-anchor="middle" x="478.62" y="-617.25" font-family="Helvetica,sans-Serif" font-size="10.00">mk_filler</text>
</a>
</g>
</g>
<!-- Node8&#45;&gt;Node13 -->
<g id="edge13_Node000008_Node000013" class="edge">
<title>Node8&#45;&gt;Node13</title>
<g id="a_edge13_Node000008_Node000013"><a xlink:title=" ">
<path fill="none" stroke="#63b8ff" d="M378.31,-620.38C397.04,-620.38 418.79,-620.38 437.15,-620.38"/>
<polygon fill="#63b8ff" stroke="#63b8ff" points="437.15,-623.88 447.15,-620.38 437.15,-616.88 437.15,-623.88"/>
</a>
</g>
</g>
<!-- Node14 -->
<g id="Node000014" class="node">
<title>Node14</title>
<g id="a_Node000014"><a xlink:href="../../dd/d42/fields_8c.html#a18db59e4c79e823f79310378183ac25c" target="_top" xlink:title="Extract numeric characters from source string to destination string.">
<polygon fill="white" stroke="#666666" points="506.5,-591.75 450.75,-591.75 450.75,-571 506.5,-571 506.5,-591.75"/>
<text xml:space="preserve" text-anchor="middle" x="478.62" y="-578.25" font-family="Helvetica,sans-Serif" font-size="10.00">numeric</text>
</a>
</g>
</g>
<!-- Node8&#45;&gt;Node14 -->
<g id="edge14_Node000008_Node000014" class="edge">
<title>Node8&#45;&gt;Node14</title>
<g id="a_edge14_Node000008_Node000014"><a xlink:title=" ">
<path fill="none" stroke="#63b8ff" d="M374.46,-609.51C394.86,-603.95 419.58,-597.21 439.71,-591.72"/>
<polygon fill="#63b8ff" stroke="#63b8ff" points="440.47,-595.14 449.2,-589.13 438.63,-588.38 440.47,-595.14"/>
</a>
</g>
</g>
<!-- Node8&#45;&gt;Node15 -->
<g id="edge15_Node000008_Node000015" class="edge">
<title>Node8&#45;&gt;Node15</title>
<g id="a_edge15_Node000008_Node000015"><a xlink:title=" ">
<path fill="none" stroke="#63b8ff" d="M340.77,-609.72C362.63,-571.8 436.89,-443.01 465.89,-392.73"/>
<polygon fill="#63b8ff" stroke="#63b8ff" points="468.78,-394.71 470.75,-384.3 462.72,-391.22 468.78,-394.71"/>
</a>
</g>
</g>
<!-- Node24 -->
<g id="Node000024" class="node">
<title>Node24</title>
<g id="a_Node000024"><a xlink:href="../../d0/d59/futil_8c.html#a0de2e40df9bd7efc8fd9afb8ad2257e6" target="_top" xlink:title="safer alternative to strncpy">
<polygon fill="white" stroke="#666666" points="1047.5,-537.75 979.75,-537.75 979.75,-517 1047.5,-517 1047.5,-537.75"/>
<text xml:space="preserve" text-anchor="middle" x="1013.62" y="-524.25" font-family="Helvetica,sans-Serif" font-size="10.00">strnz__cpy</text>
</a>
</g>
</g>
<!-- Node8&#45;&gt;Node24 -->
<g id="edge52_Node000008_Node000024" class="edge">
<title>Node8&#45;&gt;Node24</title>
<g id="a_edge52_Node000008_Node000024"><a xlink:title=" ">
<path fill="none" stroke="#63b8ff" d="M346.73,-609.55C363.15,-595.63 394.04,-572.1 425.25,-562.38 645.4,-493.79 715.37,-576.17 943.75,-544.38 951.71,-543.27 960.09,-541.62 968.15,-539.78"/>
<polygon fill="#63b8ff" stroke="#63b8ff" points="968.9,-543.2 977.79,-537.44 967.25,-536.4 968.9,-543.2"/>
</a>
</g>
</g>
<!-- Node30 -->
<g id="Node000030" class="node">
<title>Node30</title>
<g id="a_Node000030"><a xlink:href="../../d0/d59/futil_8c.html#a636608f26d1193b5d860f2312cd8ee49" target="_top" xlink:title="terminates string at New Line, Carriage Return, or max_len">
<polygon fill="white" stroke="#666666" points="917.12,-518.75 877.12,-518.75 877.12,-498 917.12,-498 917.12,-518.75"/>
<text xml:space="preserve" text-anchor="middle" x="897.12" y="-505.25" font-family="Helvetica,sans-Serif" font-size="10.00">strnz</text>
</a>
</g>
</g>
<!-- Node8&#45;&gt;Node30 -->
<g id="edge51_Node000008_Node000030" class="edge">
<title>Node8&#45;&gt;Node30</title>
<g id="a_edge51_Node000008_Node000030"><a xlink:title=" ">
<path fill="none" stroke="#63b8ff" d="M341.24,-609.71C354.37,-589.66 385.89,-546.77 425.25,-529.38 578.72,-461.57 788.4,-488.91 865.81,-502.48"/>
<polygon fill="#63b8ff" stroke="#63b8ff" points="865.12,-505.91 875.58,-504.25 866.37,-499.02 865.12,-505.91"/>
</a>
</g>
</g>
<!-- Node33 -->
<g id="Node000033" class="node">
<title>Node33</title>
<g id="a_Node000033"><a xlink:href="../../dd/d42/fields_8c.html#a21ebe9713e3b003715a7a2c3b64cbf55" target="_top" xlink:title="Right justify string by removing trailing spaces and adding leading spaces.">
<polygon fill="white" stroke="#666666" points="515.88,-745.75 441.38,-745.75 441.38,-725 515.88,-725 515.88,-745.75"/>
<text xml:space="preserve" text-anchor="middle" x="478.62" y="-732.25" font-family="Helvetica,sans-Serif" font-size="10.00">right_justify</text>
</a>
</g>
</g>
<!-- Node8&#45;&gt;Node33 -->
<g id="edge49_Node000008_Node000033" class="edge">
<title>Node8&#45;&gt;Node33</title>
<g id="a_edge49_Node000008_Node000033"><a xlink:title=" ">
<path fill="none" stroke="#63b8ff" d="M342.17,-630.98C356.39,-650.25 389,-691.27 425.25,-715.38 427.51,-716.88 429.89,-718.29 432.35,-719.61"/>
<polygon fill="#63b8ff" stroke="#63b8ff" points="430.84,-722.77 441.37,-723.91 433.85,-716.45 430.84,-722.77"/>
</a>
</g>
</g>
<!-- Node11&#45;&gt;Node12 -->
<g id="edge12_Node000011_Node000012" class="edge">
<title>Node11&#45;&gt;Node12</title>
<g id="a_edge12_Node000011_Node000012"><a xlink:title=" ">
<path fill="none" stroke="#63b8ff" d="M513.21,-696.38C538.62,-696.38 573.16,-696.38 597.29,-696.38"/>
<polygon fill="#63b8ff" stroke="#63b8ff" points="597.03,-699.88 607.03,-696.38 597.03,-692.88 597.03,-699.88"/>
</a>
</g>
</g>
<!-- Node15&#45;&gt;Node3 -->
<g id="edge22_Node000015_Node000003" class="edge">
<title>Node15&#45;&gt;Node3</title>
<g id="a_edge22_Node000015_Node000003"><a xlink:title=" ">
<path fill="none" stroke="#63b8ff" d="M487.22,-383.22C501.72,-403.56 534.86,-448.36 568,-481.38 671.83,-584.82 814.25,-688.14 871.16,-728.1"/>
<polygon fill="#63b8ff" stroke="#63b8ff" points="869.01,-730.87 879.22,-733.73 873.02,-725.13 869.01,-730.87"/>
</a>
</g>
</g>
<!-- Node16 -->
<g id="Node000016" class="node">
<title>Node16</title>
<g id="a_Node000016"><a xlink:href="../../dc/d40/dwin_8c.html#a8f6c45ca4a7f6a41c4c88314e697565a" target="_top" xlink:title="Abnormal program termination.">
<polygon fill="white" stroke="#666666" points="1036.62,-287.75 990.62,-287.75 990.62,-267 1036.62,-267 1036.62,-287.75"/>
<text xml:space="preserve" text-anchor="middle" x="1013.62" y="-274.25" font-family="Helvetica,sans-Serif" font-size="10.00">abend</text>
</a>
</g>
</g>
<!-- Node15&#45;&gt;Node16 -->
<g id="edge16_Node000015_Node000016" class="edge">
<title>Node15&#45;&gt;Node16</title>
<g id="a_edge16_Node000015_Node000016"><a xlink:title=" ">
<path fill="none" stroke="#63b8ff" d="M489.29,-361.62C504.37,-345.59 535.21,-315.78 568,-301.38 721.89,-233.77 777.18,-235.82 943.75,-258.38 955.52,-259.97 968.12,-263.03 979.28,-266.23"/>
<polygon fill="#63b8ff" stroke="#63b8ff" points="978.26,-269.58 988.85,-269.13 980.29,-262.88 978.26,-269.58"/>
</a>
</g>
</g>
<!-- Node20 -->
<g id="Node000020" class="node">
<title>Node20</title>
<g id="a_Node000020"><a xlink:href="../../dc/d40/dwin_8c.html#a3f3feb40fd703913c5c136331f627c91" target="_top" xlink:title="Destroy Chyron structure.">
<polygon fill="white" stroke="#666666" points="942.62,-401.75 851.62,-401.75 851.62,-381 942.62,-381 942.62,-401.75"/>
<text xml:space="preserve" text-anchor="middle" x="897.12" y="-388.25" font-family="Helvetica,sans-Serif" font-size="10.00">destroy_chyron</text>
</a>
</g>
</g>
<!-- Node15&#45;&gt;Node20 -->
<g id="edge23_Node000015_Node000020" class="edge">
<title>Node15&#45;&gt;Node20</title>
<g id="a_edge23_Node000015_Node000020"><a xlink:title=" ">
<path fill="none" stroke="#63b8ff" d="M501.63,-371.53C555.27,-369.72 696.97,-366.48 814.5,-377.38 822.86,-378.15 831.66,-379.3 840.25,-380.61"/>
<polygon fill="#63b8ff" stroke="#63b8ff" points="839.46,-384.03 849.89,-382.17 840.58,-377.12 839.46,-384.03"/>
</a>
</g>
</g>
<!-- Node21 -->
<g id="Node000021" class="node">
<title>Node21</title>
<g id="a_Node000021"><a xlink:href="../../dc/d40/dwin_8c.html#ad37d5808ff30ae6894780425d865abae" target="_top" xlink:title="Create and initialize Chyron structure.">
<polygon fill="white" stroke="#666666" points="934.38,-287.75 859.88,-287.75 859.88,-267 934.38,-267 934.38,-287.75"/>
<text xml:space="preserve" text-anchor="middle" x="897.12" y="-274.25" font-family="Helvetica,sans-Serif" font-size="10.00">new_chyron</text>
</a>
</g>
</g>
<!-- Node15&#45;&gt;Node21 -->
<g id="edge24_Node000015_Node000021" class="edge">
<title>Node15&#45;&gt;Node21</title>
<g id="a_edge24_Node000015_Node000021"><a xlink:title=" ">
<path fill="none" stroke="#63b8ff" d="M501.63,-363.88C543.73,-347.97 638.91,-313.76 722,-296.38 764.12,-287.56 812.88,-282.69 848.06,-280.09"/>
<polygon fill="#63b8ff" stroke="#63b8ff" points="848.21,-283.59 857.94,-279.4 847.72,-276.6 848.21,-283.59"/>
</a>
</g>
</g>
<!-- Node15&#45;&gt;Node22 -->
<g id="edge26_Node000015_Node000022" class="edge">
<title>Node15&#45;&gt;Node22</title>
<g id="a_edge26_Node000015_Node000022"><a xlink:title=" ">
<path fill="none" stroke="#63b8ff" d="M483.27,-361.69C495.71,-325.8 537.44,-210.55 568,-187.38 656.6,-120.17 705.52,-166.55 814.5,-144.38 823.02,-142.64 832.01,-140.68 840.79,-138.7"/>
<polygon fill="#63b8ff" stroke="#63b8ff" points="841.3,-142.17 850.27,-136.52 839.74,-135.35 841.3,-142.17"/>
</a>
</g>
</g>
<!-- Node23 -->
<g id="Node000023" class="node">
<title>Node23</title>
<g id="a_Node000023"><a xlink:href="../../d0/d59/futil_8c.html#a63eb94756fb011a456a3dec900709cd8" target="_top" xlink:title="ssnprintf was designed to be a safer alternative to snprintf.">
<polygon fill="white" stroke="#666666" points="1043,-173.75 984.25,-173.75 984.25,-153 1043,-153 1043,-173.75"/>
<text xml:space="preserve" text-anchor="middle" x="1013.62" y="-160.25" font-family="Helvetica,sans-Serif" font-size="10.00">ssnprintf</text>
</a>
</g>
</g>
<!-- Node15&#45;&gt;Node23 -->
<g id="edge28_Node000015_Node000023" class="edge">
<title>Node15&#45;&gt;Node23</title>
<g id="a_edge28_Node000015_Node000023"><a xlink:title=" ">
<path fill="none" stroke="#63b8ff" d="M484.25,-361.84C495.14,-338.39 524.76,-281.78 568,-254.38 698.51,-171.65 889.98,-162.27 972.43,-162.4"/>
<polygon fill="#63b8ff" stroke="#63b8ff" points="972.25,-165.9 982.27,-162.47 972.3,-158.9 972.25,-165.9"/>
</a>
</g>
</g>
<!-- Node15&#45;&gt;Node24 -->
<g id="edge29_Node000015_Node000024" class="edge">
<title>Node15&#45;&gt;Node24</title>
<g id="a_edge29_Node000015_Node000024"><a xlink:title=" ">
<path fill="none" stroke="#63b8ff" d="M493.32,-383.18C510.13,-396.04 539.87,-417.51 568,-431.38 627.47,-460.7 785.08,-516.56 850.5,-527.38 889.82,-533.87 935.25,-533.18 968,-531.27"/>
<polygon fill="#63b8ff" stroke="#63b8ff" points="968.19,-534.76 977.94,-530.62 967.74,-527.78 968.19,-534.76"/>
</a>
</g>
</g>
<!-- Node25 -->
<g id="Node000025" class="node">
<title>Node25</title>
<g id="a_Node000025"><a xlink:href="../../dc/d40/dwin_8c.html#a9dd598e1d49c8764af1eec42c682623e" target="_top" xlink:title="Delete the current window and its associated box window.">
<polygon fill="white" stroke="#666666" points="923.88,-440.75 870.38,-440.75 870.38,-420 923.88,-420 923.88,-440.75"/>
<text xml:space="preserve" text-anchor="middle" x="897.12" y="-427.25" font-family="Helvetica,sans-Serif" font-size="10.00">win_del</text>
</a>
</g>
</g>
<!-- Node15&#45;&gt;Node25 -->
<g id="edge30_Node000015_Node000025" class="edge">
<title>Node15&#45;&gt;Node25</title>
<g id="a_edge30_Node000015_Node000025"><a xlink:title=" ">
<path fill="none" stroke="#63b8ff" d="M501.62,-374.78C555.25,-380.74 696.93,-397.04 814.5,-415.38 829.07,-417.65 845.04,-420.5 858.95,-423.11"/>
<polygon fill="#63b8ff" stroke="#63b8ff" points="858.12,-426.51 868.6,-424.94 859.43,-419.63 858.12,-426.51"/>
</a>
</g>
</g>
<!-- Node26 -->
<g id="Node000026" class="node">
<title>Node26</title>
<g id="a_Node000026"><a xlink:href="../../dc/d40/dwin_8c.html#a435c7bff7ffedb8f51c6de9259e36f6c" target="_top" xlink:title="Create a new window with optional box and title.">
<polygon fill="white" stroke="#666666" points="926.5,-479.75 867.75,-479.75 867.75,-459 926.5,-459 926.5,-479.75"/>
<text xml:space="preserve" text-anchor="middle" x="897.12" y="-466.25" font-family="Helvetica,sans-Serif" font-size="10.00">win_new</text>
</a>
</g>
</g>
<!-- Node15&#45;&gt;Node26 -->
<g id="edge31_Node000015_Node000026" class="edge">
<title>Node15&#45;&gt;Node26</title>
<g id="a_edge31_Node000015_Node000026"><a xlink:title=" ">
<path fill="none" stroke="#63b8ff" d="M501.51,-381.01C519.23,-387.77 544.95,-397.05 568,-403.38 670.39,-431.48 793.78,-453.09 856.03,-463.16"/>
<polygon fill="#63b8ff" stroke="#63b8ff" points="855.36,-466.59 865.79,-464.72 856.47,-459.68 855.36,-466.59"/>
</a>
</g>
</g>
<!-- Node15&#45;&gt;Node28 -->
<g id="edge34_Node000015_Node000028" class="edge">
<title>Node15&#45;&gt;Node28</title>
<g id="a_edge34_Node000015_Node000028"><a xlink:title=" ">
<path fill="none" stroke="#63b8ff" d="M483.79,-361.54C500.75,-317.43 563.95,-153.48 568,-149.38 573.45,-143.85 580.35,-139.54 587.48,-136.19"/>
<polygon fill="#63b8ff" stroke="#63b8ff" points="588.58,-139.52 596.54,-132.53 585.96,-133.03 588.58,-139.52"/>
</a>
</g>
</g>
<!-- Node17 -->
<g id="Node000017" class="node">
<title>Node17</title>
<g id="a_Node000017"><a xlink:href="../../dc/d40/dwin_8c.html#afc0985a403e3eac0b2cd8f0fab500256" target="_top" xlink:title="Gracefully shut down NCurses and restore terminal settings.">
<polygon fill="white" stroke="#666666" points="1173,-287.75 1083.5,-287.75 1083.5,-267 1173,-267 1173,-287.75"/>
<text xml:space="preserve" text-anchor="middle" x="1128.25" y="-274.25" font-family="Helvetica,sans-Serif" font-size="10.00">destroy_curses</text>
</a>
</g>
</g>
<!-- Node16&#45;&gt;Node17 -->
<g id="edge17_Node000016_Node000017" class="edge">
<title>Node16&#45;&gt;Node17</title>
<g id="a_edge17_Node000016_Node000017"><a xlink:title=" ">
<path fill="none" stroke="#63b8ff" d="M1036.88,-277.38C1046.99,-277.38 1059.44,-277.38 1071.84,-277.38"/>
<polygon fill="#63b8ff" stroke="#63b8ff" points="1071.63,-280.88 1081.63,-277.38 1071.63,-273.88 1071.63,-280.88"/>
</a>
</g>
</g>
<!-- Node18 -->
<g id="Node000018" class="node">
<title>Node18</title>
<g id="a_Node000018"><a xlink:href="../../d7/d72/scriou_8c.html#ac5e3adb304b78910fc77761ef6a743f0" target="_top" xlink:title="restore_shell_tioctl() &#45; restore shell terminal settings">
<polygon fill="white" stroke="#666666" points="1318,-315.75 1209,-315.75 1209,-295 1318,-295 1318,-315.75"/>
<text xml:space="preserve" text-anchor="middle" x="1263.5" y="-302.25" font-family="Helvetica,sans-Serif" font-size="10.00">restore_shell_tioctl</text>
</a>
</g>
</g>
<!-- Node16&#45;&gt;Node18 -->
<g id="edge20_Node000016_Node000018" class="edge">
<title>Node16&#45;&gt;Node18</title>
<g id="a_edge20_Node000016_Node000018"><a xlink:title=" ">
<path fill="none" stroke="#63b8ff" d="M1037,-284.88C1050.34,-289.03 1067.7,-293.83 1083.5,-296.38 1120.9,-302.4 1163.21,-304.73 1197.3,-305.52"/>
<polygon fill="#63b8ff" stroke="#63b8ff" points="1196.95,-309.01 1207.01,-305.7 1197.08,-302.01 1196.95,-309.01"/>
</a>
</g>
</g>
<!-- Node19 -->
<g id="Node000019" class="node">
<title>Node19</title>
<g id="a_Node000019"><a xlink:href="../../da/d12/sig_8c.html#a06c1eb6cf3649dc187115565409f91af" target="_top" xlink:title="Set signal handlers to default behavior.">
<polygon fill="white" stroke="#666666" points="1304.12,-267.75 1222.88,-267.75 1222.88,-247 1304.12,-247 1304.12,-267.75"/>
<text xml:space="preserve" text-anchor="middle" x="1263.5" y="-254.25" font-family="Helvetica,sans-Serif" font-size="10.00">sig_dfl_mode</text>
</a>
</g>
</g>
<!-- Node16&#45;&gt;Node19 -->
<g id="edge21_Node000016_Node000019" class="edge">
<title>Node16&#45;&gt;Node19</title>
<g id="a_edge21_Node000016_Node000019"><a xlink:title=" ">
<path fill="none" stroke="#63b8ff" d="M1036.96,-269.6C1050.28,-265.37 1067.65,-260.57 1083.5,-258.38 1126.28,-252.46 1175.36,-252.67 1211.29,-254.1"/>
<polygon fill="#63b8ff" stroke="#63b8ff" points="1210.81,-257.58 1220.96,-254.54 1211.13,-250.59 1210.81,-257.58"/>
</a>
</g>
</g>
<!-- Node17&#45;&gt;Node18 -->
<g id="edge18_Node000017_Node000018" class="edge">
<title>Node17&#45;&gt;Node18</title>
<g id="a_edge18_Node000017_Node000018"><a xlink:title=" ">
<path fill="none" stroke="#63b8ff" d="M1173.25,-286.62C1181.87,-288.43 1191.07,-290.37 1200.16,-292.28"/>
<polygon fill="#63b8ff" stroke="#63b8ff" points="1199.16,-295.64 1209.67,-294.27 1200.6,-288.79 1199.16,-295.64"/>
</a>
</g>
</g>
<!-- Node17&#45;&gt;Node19 -->
<g id="edge19_Node000017_Node000019" class="edge">
<title>Node17&#45;&gt;Node19</title>
<g id="a_edge19_Node000017_Node000019"><a xlink:title=" ">
<path fill="none" stroke="#63b8ff" d="M1173.25,-270.77C1185.44,-268.94 1198.77,-266.94 1211.33,-265.06"/>
<polygon fill="#63b8ff" stroke="#63b8ff" points="1211.73,-268.54 1221.1,-263.59 1210.69,-261.61 1211.73,-268.54"/>
</a>
</g>
</g>
<!-- Node21&#45;&gt;Node16 -->
<g id="edge25_Node000021_Node000016" class="edge">
<title>Node21&#45;&gt;Node16</title>
<g id="a_edge25_Node000021_Node000016"><a xlink:title=" ">
<path fill="none" stroke="#63b8ff" d="M934.67,-277.38C948.99,-277.38 965.3,-277.38 979.29,-277.38"/>
<polygon fill="#63b8ff" stroke="#63b8ff" points="978.89,-280.88 988.89,-277.38 978.89,-273.88 978.89,-280.88"/>
</a>
</g>
</g>
<!-- Node22&#45;&gt;Node23 -->
<g id="edge27_Node000022_Node000023" class="edge">
<title>Node22&#45;&gt;Node23</title>
<g id="a_edge27_Node000022_Node000023"><a xlink:title=" ">
<path fill="none" stroke="#63b8ff" d="M930.63,-136.16C943.88,-140.56 959.32,-145.68 973.21,-150.29"/>
<polygon fill="#63b8ff" stroke="#63b8ff" points="971.91,-153.55 982.5,-153.38 974.11,-146.91 971.91,-153.55"/>
</a>
</g>
</g>
<!-- Node26&#45;&gt;Node24 -->
<g id="edge33_Node000026_Node000024" class="edge">
<title>Node26&#45;&gt;Node24</title>
<g id="a_edge33_Node000026_Node000024"><a xlink:title=" ">
<path fill="none" stroke="#63b8ff" d="M923.89,-480.18C930.42,-483.05 937.39,-486.24 943.75,-489.38 957.33,-496.08 972.08,-504.11 984.43,-511.06"/>
<polygon fill="#63b8ff" stroke="#63b8ff" points="982.42,-513.94 992.84,-515.84 985.88,-507.86 982.42,-513.94"/>
</a>
</g>
</g>
<!-- Node27 -->
<g id="Node000027" class="node">
<title>Node27</title>
<g id="a_Node000027"><a xlink:href="../../dc/d40/dwin_8c.html#ac9adcf7339be4a05ab1a7350c236b8a5" target="_top" xlink:title="Draw a box around the specified window.">
<polygon fill="white" stroke="#666666" points="1033.25,-479.75 994,-479.75 994,-459 1033.25,-459 1033.25,-479.75"/>
<text xml:space="preserve" text-anchor="middle" x="1013.62" y="-466.25" font-family="Helvetica,sans-Serif" font-size="10.00">cbox</text>
</a>
</g>
</g>
<!-- Node26&#45;&gt;Node27 -->
<g id="edge32_Node000026_Node000027" class="edge">
<title>Node26&#45;&gt;Node27</title>
<g id="a_edge32_Node000026_Node000027"><a xlink:title=" ">
<path fill="none" stroke="#63b8ff" d="M926.72,-469.38C943.65,-469.38 965.07,-469.38 982.29,-469.38"/>
<polygon fill="#63b8ff" stroke="#63b8ff" points="982.19,-472.88 992.19,-469.38 982.19,-465.88 982.19,-472.88"/>
</a>
</g>
</g>
<!-- Node29 -->
<g id="Node000029" class="node">
<title>Node29</title>
<g id="a_Node000029"><a xlink:href="../../dc/d40/dwin_8c.html#a67659f8a701b74f4dec0d36227a10d1c" target="_top" xlink:title="Display an error message window or print to stderr.">
<polygon fill="white" stroke="#666666" points="808.12,-325.75 728.38,-325.75 728.38,-305 808.12,-305 808.12,-325.75"/>
<text xml:space="preserve" text-anchor="middle" x="768.25" y="-312.25" font-family="Helvetica,sans-Serif" font-size="10.00">display_error</text>
</a>
</g>
</g>
<!-- Node28&#45;&gt;Node29 -->
<g id="edge35_Node000028_Node000029" class="edge">
<title>Node28&#45;&gt;Node29</title>
<g id="a_edge35_Node000028_Node000029"><a xlink:title=" ">
<path fill="none" stroke="#63b8ff" d="M638.7,-136.16C664.18,-167.08 728.38,-254.61 755.19,-294.91"/>
<polygon fill="#63b8ff" stroke="#63b8ff" points="752.22,-296.77 760.6,-303.25 758.09,-292.95 752.22,-296.77"/>
</a>
</g>
</g>
<!-- Node31 -->
<g id="Node000031" class="node">
<title>Node31</title>
<g id="a_Node000031"><a xlink:href="../../dc/d40/dwin_8c.html#a4298f891699300bfc4e6e56fd2a8d574" target="_top" xlink:title="Get keycode from chyron.">
<polygon fill="white" stroke="#666666" points="814.5,-96.75 722,-96.75 722,-76 814.5,-76 814.5,-96.75"/>
<text xml:space="preserve" text-anchor="middle" x="768.25" y="-83.25" font-family="Helvetica,sans-Serif" font-size="10.00">get_chyron_key</text>
</a>
</g>
</g>
<!-- Node28&#45;&gt;Node31 -->
<g id="edge47_Node000028_Node000031" class="edge">
<title>Node28&#45;&gt;Node31</title>
<g id="a_edge47_Node000028_Node000031"><a xlink:title=" ">
<path fill="none" stroke="#63b8ff" d="M655.84,-117.58C673.54,-112.62 696.95,-106.07 717.74,-100.24"/>
<polygon fill="#63b8ff" stroke="#63b8ff" points="718.5,-103.66 727.18,-97.6 716.61,-96.92 718.5,-103.66"/>
</a>
</g>
</g>
<!-- Node32 -->
<g id="Node000032" class="node">
<title>Node32</title>
<g id="a_Node000032"><a xlink:href="../../d0/d6b/cm_8h.html#a0667873879b5846c3fe2fa2cc96059d6" target="_top" xlink:title=" ">
<polygon fill="white" stroke="#666666" points="810,-135.75 726.5,-135.75 726.5,-115 810,-115 810,-135.75"/>
<text xml:space="preserve" text-anchor="middle" x="768.25" y="-122.25" font-family="Helvetica,sans-Serif" font-size="10.00">handle_signal</text>
</a>
</g>
</g>
<!-- Node28&#45;&gt;Node32 -->
<g id="edge48_Node000028_Node000032" class="edge">
<title>Node28&#45;&gt;Node32</title>
<g id="a_edge48_Node000028_Node000032"><a xlink:title=" ">
<path fill="none" stroke="#63b8ff" d="M655.84,-125.38C672.7,-125.38 694.73,-125.38 714.75,-125.38"/>
<polygon fill="#63b8ff" stroke="#63b8ff" points="714.74,-128.88 724.74,-125.38 714.74,-121.88 714.74,-128.88"/>
</a>
</g>
</g>
<!-- Node29&#45;&gt;Node3 -->
<g id="edge37_Node000029_Node000003" class="edge">
<title>Node29&#45;&gt;Node3</title>
<g id="a_edge37_Node000029_Node000003"><a xlink:title=" ">
<path fill="none" stroke="#63b8ff" d="M772.39,-326C789.01,-382.35 866.95,-646.48 889.81,-723.96"/>
<polygon fill="#63b8ff" stroke="#63b8ff" points="886.37,-724.68 892.56,-733.28 893.08,-722.7 886.37,-724.68"/>
</a>
</g>
</g>
<!-- Node29&#45;&gt;Node16 -->
<g id="edge36_Node000029_Node000016" class="edge">
<title>Node29&#45;&gt;Node16</title>
<g id="a_edge36_Node000029_Node000016"><a xlink:title=" ">
<path fill="none" stroke="#63b8ff" d="M808.33,-312.92C843.87,-310.27 897.65,-305.18 943.75,-296.38 955.41,-294.15 967.99,-290.93 979.16,-287.77"/>
<polygon fill="#63b8ff" stroke="#63b8ff" points="980.12,-291.13 988.74,-284.97 978.16,-284.41 980.12,-291.13"/>
</a>
</g>
</g>
<!-- Node29&#45;&gt;Node20 -->
<g id="edge38_Node000029_Node000020" class="edge">
<title>Node29&#45;&gt;Node20</title>
<g id="a_edge38_Node000029_Node000020"><a xlink:title=" ">
<path fill="none" stroke="#63b8ff" d="M791.32,-326.11C798.84,-330.01 807.18,-334.64 814.5,-339.38 831.52,-350.39 833.46,-356.39 850.5,-367.38 854.76,-370.12 859.37,-372.83 863.97,-375.38"/>
<polygon fill="#63b8ff" stroke="#63b8ff" points="862.06,-378.33 872.53,-379.95 865.36,-372.15 862.06,-378.33"/>
</a>
</g>
</g>
<!-- Node29&#45;&gt;Node21 -->
<g id="edge39_Node000029_Node000021" class="edge">
<title>Node29&#45;&gt;Node21</title>
<g id="a_edge39_Node000029_Node000021"><a xlink:title=" ">
<path fill="none" stroke="#63b8ff" d="M805.27,-304.59C818.93,-300.5 834.69,-295.78 849.21,-291.43"/>
<polygon fill="#63b8ff" stroke="#63b8ff" points="849.99,-294.85 858.57,-288.62 847.98,-288.14 849.99,-294.85"/>
</a>
</g>
</g>
<!-- Node29&#45;&gt;Node22 -->
<g id="edge40_Node000029_Node000022" class="edge">
<title>Node29&#45;&gt;Node22</title>
<g id="a_edge40_Node000029_Node000022"><a xlink:title=" ">
<path fill="none" stroke="#63b8ff" d="M775.75,-304.59C789.22,-282.36 821.37,-229.95 850.5,-187.38 860.29,-173.07 871.87,-157.35 880.91,-145.31"/>
<polygon fill="#63b8ff" stroke="#63b8ff" points="883.66,-147.48 886.9,-137.39 878.08,-143.26 883.66,-147.48"/>
</a>
</g>
</g>
<!-- Node29&#45;&gt;Node23 -->
<g id="edge41_Node000029_Node000023" class="edge">
<title>Node29&#45;&gt;Node23</title>
<g id="a_edge41_Node000029_Node000023"><a xlink:title=" ">
<path fill="none" stroke="#63b8ff" d="M783.68,-304.71C799.74,-292.98 826.58,-273.74 850.5,-258.38 895.95,-229.18 950.43,-198.01 983.25,-179.63"/>
<polygon fill="#63b8ff" stroke="#63b8ff" points="984.75,-182.8 991.78,-174.87 981.34,-176.69 984.75,-182.8"/>
</a>
</g>
</g>
<!-- Node29&#45;&gt;Node24 -->
<g id="edge43_Node000029_Node000024" class="edge">
<title>Node29&#45;&gt;Node24</title>
<g id="a_edge43_Node000029_Node000024"><a xlink:title=" ">
<path fill="none" stroke="#63b8ff" d="M808.26,-317.95C847.63,-322.62 907.63,-335.71 943.75,-372.38 981.64,-410.83 953.84,-441.02 979.75,-488.38 983.63,-495.47 988.93,-502.47 994.14,-508.54"/>
<polygon fill="#63b8ff" stroke="#63b8ff" points="991.2,-510.51 1000.52,-515.55 996.38,-505.79 991.2,-510.51"/>
</a>
</g>
</g>
<!-- Node29&#45;&gt;Node25 -->
<g id="edge44_Node000029_Node000025" class="edge">
<title>Node29&#45;&gt;Node25</title>
<g id="a_edge44_Node000029_Node000025"><a xlink:title=" ">
<path fill="none" stroke="#63b8ff" d="M776.06,-326.16C788.67,-345.38 817.38,-385.81 850.5,-410.38 853.42,-412.54 856.61,-414.53 859.9,-416.35"/>
<polygon fill="#63b8ff" stroke="#63b8ff" points="858.04,-419.34 868.56,-420.61 861.13,-413.06 858.04,-419.34"/>
</a>
</g>
</g>
<!-- Node29&#45;&gt;Node26 -->
<g id="edge45_Node000029_Node000026" class="edge">
<title>Node29&#45;&gt;Node26</title>
<g id="a_edge45_Node000029_Node000026"><a xlink:title=" ">
<path fill="none" stroke="#63b8ff" d="M773.05,-325.91C782.47,-350.67 809.16,-413.16 850.5,-449.38 852.66,-451.27 855.03,-453.01 857.52,-454.6"/>
<polygon fill="#63b8ff" stroke="#63b8ff" points="855.72,-457.61 866.18,-459.32 859.07,-451.46 855.72,-457.61"/>
</a>
</g>
</g>
<!-- Node29&#45;&gt;Node28 -->
<g id="edge46_Node000029_Node000028" class="edge">
<title>Node29&#45;&gt;Node28</title>
<g id="a_edge46_Node000029_Node000028"><a xlink:title=" ">
<path fill="none" stroke="#63b8ff" d="M756.8,-304.88C731.48,-274.23 666.96,-186.27 640.06,-145.84"/>
<polygon fill="#63b8ff" stroke="#63b8ff" points="643.01,-143.96 634.63,-137.48 637.14,-147.77 643.01,-143.96"/>
</a>
</g>
</g>
<!-- Node29&#45;&gt;Node30 -->
<g id="edge42_Node000029_Node000030" class="edge">
<title>Node29&#45;&gt;Node30</title>
<g id="a_edge42_Node000029_Node000030"><a xlink:title=" ">
<path fill="none" stroke="#63b8ff" d="M771.44,-325.83C778.11,-355.3 800.83,-439.98 850.5,-488.38 855.07,-492.83 860.79,-496.37 866.62,-499.17"/>
<polygon fill="#63b8ff" stroke="#63b8ff" points="865.03,-502.3 875.62,-502.84 867.68,-495.82 865.03,-502.3"/>
</a>
</g>
</g>
<!-- Node33&#45;&gt;Node12 -->
<g id="edge50_Node000033_Node000012" class="edge">
<title>Node33&#45;&gt;Node12</title>
<g id="a_edge50_Node000033_Node000012"><a xlink:title=" ">
<path fill="none" stroke="#63b8ff" d="M516.18,-725.63C541.39,-718.92 574.41,-710.12 597.64,-703.93"/>
<polygon fill="#63b8ff" stroke="#63b8ff" points="598.26,-707.39 607.02,-701.43 596.46,-700.62 598.26,-707.39"/>
</a>
</g>
</g>
<!-- Node34&#45;&gt;Node15 -->
<g id="edge55_Node000034_Node000015" class="edge">
<title>Node34&#45;&gt;Node15</title>
<g id="a_edge55_Node000034_Node000015"><a xlink:title=" ">
<path fill="none" stroke="#63b8ff" d="M375.22,-399.59C397.13,-393.76 423.84,-386.67 444.49,-381.18"/>
<polygon fill="#63b8ff" stroke="#63b8ff" points="445.34,-384.58 454.1,-378.63 443.54,-377.81 445.34,-384.58"/>
</a>
</g>
</g>
</g>
</svg>
