<?xml version="1.0" encoding="UTF-8" standalone="no"?>
<!DOCTYPE svg PUBLIC "-//W3C//DTD SVG 1.1//EN"
 "http://www.w3.org/Graphics/SVG/1.1/DTD/svg11.dtd">
<!-- Generated by graphviz version 14.1.2 (0)
 -->
<!-- Title: form_enter_fields Pages: 1 -->
<svg width="1596pt" height="212pt"
 viewBox="0.00 0.00 1596.00 212.00" xmlns="http://www.w3.org/2000/svg" xmlns:xlink="http://www.w3.org/1999/xlink">
<g id="graph0" class="graph" transform="scale(1 1) rotate(0) translate(4 208.12)">
<title>form_enter_fields</title>
<!-- Node1 -->
<g id="Node000001" class="node">
<title>Node1</title>
<g id="a_Node000001"><a xlink:title="Handle user input for field entry, allowing navigation between fields and looping until an exit actio...">
<polygon fill="#999999" stroke="#666666" points="1588.25,-89.12 1486,-89.12 1486,-68.37 1588.25,-68.37 1588.25,-89.12"/>
<text xml:space="preserve" text-anchor="middle" x="1537.12" y="-75.62" font-family="Helvetica,sans-Serif" font-size="10.00">form_enter_fields</text>
</a>
</g>
</g>
<!-- Node2 -->
<g id="Node000002" class="node">
<title>Node2</title>
<g id="a_Node000002"><a xlink:href="../../d3/dee/form__engine_8c.html#ada302551bf41bf8ed6132fd34328a47e" target="_top" xlink:title="Form main processing loop.">
<polygon fill="white" stroke="#666666" points="1450,-89.12 1372.5,-89.12 1372.5,-68.37 1450,-68.37 1450,-89.12"/>
<text xml:space="preserve" text-anchor="middle" x="1411.25" y="-75.62" font-family="Helvetica,sans-Serif" font-size="10.00">form_engine</text>
</a>
</g>
</g>
<!-- Node1&#45;&gt;Node2 -->
<g id="edge1_Node000001_Node000002" class="edge">
<title>Node1&#45;&gt;Node2</title>
<g id="a_edge1_Node000001_Node000002"><a xlink:title=" ">
<path fill="none" stroke="#63b8ff" d="M1474.29,-78.75C1466.15,-78.75 1458.01,-78.75 1450.43,-78.75"/>
<polygon fill="#63b8ff" stroke="#63b8ff" points="1474.23,-82.25 1484.23,-78.75 1474.23,-75.25 1474.23,-82.25"/>
</a>
</g>
</g>
<!-- Node3 -->
<g id="Node000003" class="node">
<title>Node3</title>
<g id="a_Node000003"><a xlink:href="../../d3/dee/form__engine_8c.html#abf1be20a8aad5f7ba09172ac1434a110" target="_top" xlink:title="Initialize form data structure and parse description file.">
<polygon fill="white" stroke="#666666" points="1336.5,-70.12 1276.25,-70.12 1276.25,-49.37 1336.5,-49.37 1336.5,-70.12"/>
<text xml:space="preserve" text-anchor="middle" x="1306.38" y="-56.62" font-family="Helvetica,sans-Serif" font-size="10.00">init_form</text>
</a>
</g>
</g>
<!-- Node2&#45;&gt;Node3 -->
<g id="edge2_Node000002_Node000003" class="edge">
<title>Node2&#45;&gt;Node3</title>
<g id="a_edge2_Node000002_Node000003"><a xlink:title=" ">
<path fill="none" stroke="#63b8ff" d="M1361.08,-69.67C1352.8,-68.14 1344.45,-66.59 1336.87,-65.19"/>
<polygon fill="#63b8ff" stroke="#63b8ff" points="1360.28,-73.08 1370.75,-71.45 1361.55,-66.19 1360.28,-73.08"/>
</a>
</g>
</g>
<!-- Node4 -->
<g id="Node000004" class="node">
<title>Node4</title>
<g id="a_Node000004"><a xlink:href="../../d4/dc1/src_2view__engine_8c.html#a2ffea5674e85f124a70e19f745a66583" target="_top" xlink:title="use form to enter a file specification">
<polygon fill="white" stroke="#666666" points="1240.25,-89.12 1150,-89.12 1150,-68.37 1240.25,-68.37 1240.25,-89.12"/>
<text xml:space="preserve" text-anchor="middle" x="1195.12" y="-75.62" font-family="Helvetica,sans-Serif" font-size="10.00">enter_file_spec</text>
</a>
</g>
</g>
<!-- Node3&#45;&gt;Node4 -->
<g id="edge3_Node000003_Node000004" class="edge">
<title>Node3&#45;&gt;Node4</title>
<g id="a_edge3_Node000003_Node000004"><a xlink:title=" ">
<path fill="none" stroke="#63b8ff" d="M1264.65,-66.83C1256.77,-68.2 1248.48,-69.64 1240.49,-71.03"/>
<polygon fill="#63b8ff" stroke="#63b8ff" points="1265.07,-70.31 1274.32,-65.15 1263.87,-63.41 1265.07,-70.31"/>
</a>
</g>
</g>
<!-- Node14 -->
<g id="Node000014" class="node">
<title>Node14</title>
<g id="a_Node000014"><a xlink:href="../../d6/d18/menu__engine_8c.html#aa5d0e30e7036b72b51c843d0a7e486a1" target="_top" xlink:title="Processes user input for the menu system.">
<polygon fill="white" stroke="#666666" points="317.25,-126.12 194.75,-126.12 194.75,-105.37 317.25,-105.37 317.25,-126.12"/>
<text xml:space="preserve" text-anchor="middle" x="256" y="-112.62" font-family="Helvetica,sans-Serif" font-size="10.00">menu_cmd_processor</text>
</a>
</g>
</g>
<!-- Node3&#45;&gt;Node14 -->
<g id="edge25_Node000003_Node000014" class="edge">
<title>Node3&#45;&gt;Node14</title>
<g id="a_edge25_Node000003_Node000014"><a xlink:title=" ">
<path fill="none" stroke="#63b8ff" d="M1282.56,-42.71C1270.58,-34.67 1255.29,-25.75 1240.25,-20.75 1162.14,5.24 1138.32,-1.75 1056,-1.75 1056,-1.75 1056,-1.75 482.75,-1.75 391.42,-1.75 299.47,-77 268.2,-105.23"/>
<polygon fill="#63b8ff" stroke="#63b8ff" points="1280.33,-45.42 1290.53,-48.29 1284.35,-39.69 1280.33,-45.42"/>
</a>
</g>
</g>
<!-- Node19 -->
<g id="Node000019" class="node">
<title>Node19</title>
<g id="a_Node000019"><a xlink:href="../../d5/d97/form_8c.html#a3c04138a5bfe5d72780bb7e82a18e627" target="_top" xlink:title=" ">
<polygon fill="white" stroke="#666666" points="1215.5,-50.12 1174.75,-50.12 1174.75,-29.37 1215.5,-29.37 1215.5,-50.12"/>
<text xml:space="preserve" text-anchor="middle" x="1195.12" y="-36.62" font-family="Helvetica,sans-Serif" font-size="10.00">main</text>
</a>
</g>
</g>
<!-- Node3&#45;&gt;Node19 -->
<g id="edge24_Node000003_Node000019" class="edge">
<title>Node3&#45;&gt;Node19</title>
<g id="a_edge24_Node000003_Node000019"><a xlink:title=" ">
<path fill="none" stroke="#63b8ff" d="M1264.61,-52.28C1247.88,-49.22 1229.3,-45.82 1215.71,-43.33"/>
<polygon fill="#63b8ff" stroke="#63b8ff" points="1263.85,-55.7 1274.32,-54.06 1265.12,-48.82 1263.85,-55.7"/>
</a>
</g>
</g>
<!-- Node5 -->
<g id="Node000005" class="node">
<title>Node5</title>
<g id="a_Node000005"><a xlink:href="../../d4/dc1/src_2view__engine_8c.html#a9c4b3ba5f73c18b486646c62b933972a" target="_top" xlink:title="Main Command Processing Loop for View.">
<polygon fill="white" stroke="#666666" points="1114,-89.12 996,-89.12 996,-68.37 1114,-68.37 1114,-89.12"/>
<text xml:space="preserve" text-anchor="middle" x="1055" y="-75.62" font-family="Helvetica,sans-Serif" font-size="10.00">view_cmd_processor</text>
</a>
</g>
</g>
<!-- Node4&#45;&gt;Node5 -->
<g id="edge4_Node000004_Node000005" class="edge">
<title>Node4&#45;&gt;Node5</title>
<g id="a_edge4_Node000004_Node000005"><a xlink:title=" ">
<path fill="none" stroke="#63b8ff" d="M1138.37,-78.75C1130.51,-78.75 1122.41,-78.75 1114.5,-78.75"/>
<polygon fill="#63b8ff" stroke="#63b8ff" points="1138.15,-82.25 1148.15,-78.75 1138.15,-75.25 1138.15,-82.25"/>
</a>
</g>
</g>
<!-- Node6 -->
<g id="Node000006" class="node">
<title>Node6</title>
<g id="a_Node000006"><a xlink:href="../../d4/dc1/src_2view__engine_8c.html#a0bd4dc056ab5010547129bb87819789b" target="_top" xlink:title="Start view.">
<polygon fill="white" stroke="#666666" points="960,-89.12 899.75,-89.12 899.75,-68.37 960,-68.37 960,-89.12"/>
<text xml:space="preserve" text-anchor="middle" x="929.88" y="-75.62" font-family="Helvetica,sans-Serif" font-size="10.00">view_file</text>
</a>
</g>
</g>
<!-- Node5&#45;&gt;Node6 -->
<g id="edge5_Node000005_Node000006" class="edge">
<title>Node5&#45;&gt;Node6</title>
<g id="a_edge5_Node000005_Node000006"><a xlink:title=" ">
<path fill="none" stroke="#63b8ff" d="M984.44,-78.75C975.94,-78.75 967.64,-78.75 960.22,-78.75"/>
<polygon fill="#63b8ff" stroke="#63b8ff" points="984.17,-82.25 994.17,-78.75 984.17,-75.25 984.17,-82.25"/>
</a>
</g>
</g>
<!-- Node7 -->
<g id="Node000007" class="node">
<title>Node7</title>
<g id="a_Node000007"><a xlink:href="../../da/d97/view_8c.html#a3c04138a5bfe5d72780bb7e82a18e627" target="_top" xlink:title=" ">
<polygon fill="white" stroke="#666666" points="746.12,-89.12 705.38,-89.12 705.38,-68.37 746.12,-68.37 746.12,-89.12"/>
<text xml:space="preserve" text-anchor="middle" x="725.75" y="-75.62" font-family="Helvetica,sans-Serif" font-size="10.00">main</text>
</a>
</g>
</g>
<!-- Node6&#45;&gt;Node7 -->
<g id="edge6_Node000006_Node000007" class="edge">
<title>Node6&#45;&gt;Node7</title>
<g id="a_edge6_Node000006_Node000007"><a xlink:title=" ">
<path fill="none" stroke="#63b8ff" d="M888,-78.75C844.97,-78.75 779.03,-78.75 746.41,-78.75"/>
<polygon fill="#63b8ff" stroke="#63b8ff" points="887.97,-82.25 897.97,-78.75 887.97,-75.25 887.97,-82.25"/>
</a>
</g>
</g>
<!-- Node8 -->
<g id="Node000008" class="node">
<title>Node8</title>
<g id="a_Node000008"><a xlink:href="../../d2/d98/mview_8c.html#a75a4e7afc9c9aafd3d35ab706f5fdc71" target="_top" xlink:title="subprogram entry point for C&#45;Menu View">
<polygon fill="white" stroke="#666666" points="863.75,-127.12 814.75,-127.12 814.75,-106.37 863.75,-106.37 863.75,-127.12"/>
<text xml:space="preserve" text-anchor="middle" x="839.25" y="-113.62" font-family="Helvetica,sans-Serif" font-size="10.00">mview</text>
</a>
</g>
</g>
<!-- Node6&#45;&gt;Node8 -->
<g id="edge7_Node000006_Node000008" class="edge">
<title>Node6&#45;&gt;Node8</title>
<g id="a_edge7_Node000006_Node000008"><a xlink:title=" ">
<path fill="none" stroke="#63b8ff" d="M893.33,-93.99C883.45,-98.22 872.97,-102.72 863.95,-106.59"/>
<polygon fill="#63b8ff" stroke="#63b8ff" points="894.51,-97.29 902.32,-90.13 891.75,-90.85 894.51,-97.29"/>
</a>
</g>
</g>
<!-- Node8&#45;&gt;Node2 -->
<g id="edge19_Node000008_Node000002" class="edge">
<title>Node8&#45;&gt;Node2</title>
<g id="a_edge19_Node000008_Node000002"><a xlink:title=" ">
<path fill="none" stroke="#63b8ff" d="M875.31,-116.75C917.66,-116.75 991.04,-116.75 1054,-116.75 1196.12,-116.75 1196.12,-116.75 1196.12,-116.75 1258.8,-116.75 1330.23,-100.77 1372.7,-89.53"/>
<polygon fill="#63b8ff" stroke="#63b8ff" points="875.49,-113.25 865.49,-116.75 875.49,-120.25 875.49,-113.25"/>
</a>
</g>
</g>
<!-- Node8&#45;&gt;Node7 -->
<g id="edge20_Node000008_Node000007" class="edge">
<title>Node8&#45;&gt;Node7</title>
<g id="a_edge20_Node000008_Node000007"><a xlink:title=" ">
<path fill="none" stroke="#63b8ff" d="M803.52,-104.91C784.77,-98.52 762.3,-90.86 746.54,-85.49"/>
<polygon fill="#63b8ff" stroke="#63b8ff" points="802.3,-108.19 812.9,-108.11 804.56,-101.57 802.3,-108.19"/>
</a>
</g>
</g>
<!-- Node9 -->
<g id="Node000009" class="node">
<title>Node9</title>
<g id="a_Node000009"><a xlink:href="../../db/ddc/pick__engine_8c.html#aeebc4c0b94ca97d753e10a0cd1798730" target="_top" xlink:title="Displays the help screen for the pick interface using mview.">
<polygon fill="white" stroke="#666666" points="777.25,-165.12 674.25,-165.12 674.25,-144.37 777.25,-144.37 777.25,-165.12"/>
<text xml:space="preserve" text-anchor="middle" x="725.75" y="-151.62" font-family="Helvetica,sans-Serif" font-size="10.00">display_pick_help</text>
</a>
</g>
</g>
<!-- Node8&#45;&gt;Node9 -->
<g id="edge8_Node000008_Node000009" class="edge">
<title>Node8&#45;&gt;Node9</title>
<g id="a_edge8_Node000008_Node000009"><a xlink:title=" ">
<path fill="none" stroke="#63b8ff" d="M803.75,-128.51C789.22,-133.46 772.44,-139.18 758.25,-144.01"/>
<polygon fill="#63b8ff" stroke="#63b8ff" points="804.56,-131.93 812.9,-125.39 802.3,-125.3 804.56,-131.93"/>
</a>
</g>
</g>
<!-- Node8&#45;&gt;Node14 -->
<g id="edge21_Node000008_Node000014" class="edge">
<title>Node8&#45;&gt;Node14</title>
<g id="a_edge21_Node000008_Node000014"><a xlink:title=" ">
<path fill="none" stroke="#63b8ff" d="M803.05,-116.75C756.21,-116.75 670.82,-116.75 597.88,-116.75 597.88,-116.75 597.88,-116.75 482.75,-116.75 426.7,-116.75 362.83,-116.43 317.36,-116.16"/>
<polygon fill="#63b8ff" stroke="#63b8ff" points="802.85,-120.25 812.85,-116.75 802.85,-113.25 802.85,-120.25"/>
</a>
</g>
</g>
<!-- Node17 -->
<g id="Node000017" class="node">
<title>Node17</title>
<g id="a_Node000017"><a xlink:href="../../db/ddc/pick__engine_8c.html#af7fcbb1c8b67a4d11c86ba7209f397c2" target="_top" xlink:title="Executes specified command with selected objects as arguments.">
<polygon fill="white" stroke="#666666" points="636.75,-204.12 557,-204.12 557,-183.37 636.75,-183.37 636.75,-204.12"/>
<text xml:space="preserve" text-anchor="middle" x="596.88" y="-190.62" font-family="Helvetica,sans-Serif" font-size="10.00">exec_objects</text>
</a>
</g>
</g>
<!-- Node8&#45;&gt;Node17 -->
<g id="edge17_Node000008_Node000017" class="edge">
<title>Node8&#45;&gt;Node17</title>
<g id="a_edge17_Node000008_Node000017"><a xlink:title=" ">
<path fill="none" stroke="#63b8ff" d="M823.85,-136.03C812.99,-149.01 796.9,-165.27 778.75,-173.75 733.52,-194.87 675.23,-197.54 637.22,-196.49"/>
<polygon fill="#63b8ff" stroke="#63b8ff" points="826.36,-138.49 829.85,-128.49 820.88,-134.14 826.36,-138.49"/>
</a>
</g>
</g>
<!-- Node18 -->
<g id="Node000018" class="node">
<title>Node18</title>
<g id="a_Node000018"><a xlink:href="../../d4/dc1/src_2view__engine_8c.html#ad997ba9f8591568c77291fb1b44601b2" target="_top" xlink:title="Display View Help File.">
<polygon fill="white" stroke="#666666" points="778.75,-50.12 672.75,-50.12 672.75,-29.37 778.75,-29.37 778.75,-50.12"/>
<text xml:space="preserve" text-anchor="middle" x="725.75" y="-36.62" font-family="Helvetica,sans-Serif" font-size="10.00">view_display_help</text>
</a>
</g>
</g>
<!-- Node8&#45;&gt;Node18 -->
<g id="edge22_Node000008_Node000018" class="edge">
<title>Node8&#45;&gt;Node18</title>
<g id="a_edge22_Node000008_Node000018"><a xlink:title=" ">
<path fill="none" stroke="#63b8ff" d="M821.98,-97.64C810.82,-85.49 795.11,-70.13 778.75,-59.75 773.2,-56.22 766.92,-53.16 760.71,-50.56"/>
<polygon fill="#63b8ff" stroke="#63b8ff" points="819.3,-99.9 828.56,-105.05 824.54,-95.25 819.3,-99.9"/>
</a>
</g>
</g>
<!-- Node10 -->
<g id="Node000010" class="node">
<title>Node10</title>
<g id="a_Node000010"><a xlink:href="../../db/ddc/pick__engine_8c.html#abb0969a6d1c7e78be46c3b325754c802" target="_top" xlink:title="Main loop to handle user input and interactions for pick interface.">
<polygon fill="white" stroke="#666666" points="619.5,-165.12 574.25,-165.12 574.25,-144.37 619.5,-144.37 619.5,-165.12"/>
<text xml:space="preserve" text-anchor="middle" x="596.88" y="-151.62" font-family="Helvetica,sans-Serif" font-size="10.00">picker</text>
</a>
</g>
</g>
<!-- Node9&#45;&gt;Node10 -->
<g id="edge9_Node000009_Node000010" class="edge">
<title>Node9&#45;&gt;Node10</title>
<g id="a_edge9_Node000009_Node000010"><a xlink:title=" ">
<path fill="none" stroke="#63b8ff" d="M662.77,-154.75C647.41,-154.75 631.94,-154.75 619.96,-154.75"/>
<polygon fill="#63b8ff" stroke="#63b8ff" points="662.36,-158.25 672.36,-154.75 662.36,-151.25 662.36,-158.25"/>
</a>
</g>
</g>
<!-- Node11 -->
<g id="Node000011" class="node">
<title>Node11</title>
<g id="a_Node000011"><a xlink:href="../../db/ddc/pick__engine_8c.html#ab97dcab41017c5132f52b682437a151e" target="_top" xlink:title="Initializes pick interface, calculates window size and position, and enters picker loop.">
<polygon fill="white" stroke="#666666" points="521,-165.12 446.5,-165.12 446.5,-144.37 521,-144.37 521,-165.12"/>
<text xml:space="preserve" text-anchor="middle" x="483.75" y="-151.62" font-family="Helvetica,sans-Serif" font-size="10.00">pick_engine</text>
</a>
</g>
</g>
<!-- Node10&#45;&gt;Node11 -->
<g id="edge10_Node000010_Node000011" class="edge">
<title>Node10&#45;&gt;Node11</title>
<g id="a_edge10_Node000010_Node000011"><a xlink:title=" ">
<path fill="none" stroke="#63b8ff" d="M562.57,-154.75C549.5,-154.75 534.45,-154.75 521.1,-154.75"/>
<polygon fill="#63b8ff" stroke="#63b8ff" points="562.41,-158.25 572.41,-154.75 562.41,-151.25 562.41,-158.25"/>
</a>
</g>
</g>
<!-- Node12 -->
<g id="Node000012" class="node">
<title>Node12</title>
<g id="a_Node000012"><a xlink:href="../../db/ddc/pick__engine_8c.html#a1b2ee87543245e612c1710ea58930a17" target="_top" xlink:title="Initializes pick structure and opens pick input file or pipe.">
<polygon fill="white" stroke="#666666" points="410.5,-165.12 353.25,-165.12 353.25,-144.37 410.5,-144.37 410.5,-165.12"/>
<text xml:space="preserve" text-anchor="middle" x="381.88" y="-151.62" font-family="Helvetica,sans-Serif" font-size="10.00">init_pick</text>
</a>
</g>
</g>
<!-- Node11&#45;&gt;Node12 -->
<g id="edge11_Node000011_Node000012" class="edge">
<title>Node11&#45;&gt;Node12</title>
<g id="a_edge11_Node000011_Node000012"><a xlink:title=" ">
<path fill="none" stroke="#63b8ff" d="M434.66,-154.75C426.46,-154.75 418.18,-154.75 410.73,-154.75"/>
<polygon fill="#63b8ff" stroke="#63b8ff" points="434.61,-158.25 444.61,-154.75 434.61,-151.25 434.61,-158.25"/>
</a>
</g>
</g>
<!-- Node13 -->
<g id="Node000013" class="node">
<title>Node13</title>
<g id="a_Node000013"><a xlink:href="../../de/d7c/pick_8c.html#a3c04138a5bfe5d72780bb7e82a18e627" target="_top" xlink:title=" ">
<polygon fill="white" stroke="#666666" points="276.38,-165.12 235.62,-165.12 235.62,-144.37 276.38,-144.37 276.38,-165.12"/>
<text xml:space="preserve" text-anchor="middle" x="256" y="-151.62" font-family="Helvetica,sans-Serif" font-size="10.00">main</text>
</a>
</g>
</g>
<!-- Node12&#45;&gt;Node13 -->
<g id="edge12_Node000012_Node000013" class="edge">
<title>Node12&#45;&gt;Node13</title>
<g id="a_edge12_Node000012_Node000013"><a xlink:title=" ">
<path fill="none" stroke="#63b8ff" d="M341.27,-154.75C319.64,-154.75 293.83,-154.75 276.52,-154.75"/>
<polygon fill="#63b8ff" stroke="#63b8ff" points="341.25,-158.25 351.25,-154.75 341.25,-151.25 341.25,-158.25"/>
</a>
</g>
</g>
<!-- Node12&#45;&gt;Node14 -->
<g id="edge13_Node000012_Node000014" class="edge">
<title>Node12&#45;&gt;Node14</title>
<g id="a_edge13_Node000012_Node000014"><a xlink:title=" ">
<path fill="none" stroke="#63b8ff" d="M341.96,-142.49C325.67,-137.37 306.92,-131.46 291.18,-126.51"/>
<polygon fill="#63b8ff" stroke="#63b8ff" points="340.73,-145.78 351.32,-145.44 342.83,-139.1 340.73,-145.78"/>
</a>
</g>
</g>
<!-- Node15 -->
<g id="Node000015" class="node">
<title>Node15</title>
<g id="a_Node000015"><a xlink:href="../../d6/d18/menu__engine_8c.html#a7d7973d7aac92759dcc86ec52bb038f4" target="_top" xlink:title="The main loop of the menu system.">
<polygon fill="white" stroke="#666666" points="158.75,-126.12 76.75,-126.12 76.75,-105.37 158.75,-105.37 158.75,-126.12"/>
<text xml:space="preserve" text-anchor="middle" x="117.75" y="-112.62" font-family="Helvetica,sans-Serif" font-size="10.00">menu_engine</text>
</a>
</g>
</g>
<!-- Node14&#45;&gt;Node15 -->
<g id="edge14_Node000014_Node000015" class="edge">
<title>Node14&#45;&gt;Node15</title>
<g id="a_edge14_Node000014_Node000015"><a xlink:title=" ">
<path fill="none" stroke="#63b8ff" d="M183.2,-109.01C174.96,-109.04 166.79,-109.22 159.17,-109.52"/>
<polygon fill="#63b8ff" stroke="#63b8ff" points="182.92,-112.5 192.93,-109.03 182.94,-105.5 182.92,-112.5"/>
</a>
</g>
</g>
<!-- Node15&#45;&gt;Node14 -->
<g id="edge16_Node000015_Node000014" class="edge">
<title>Node15&#45;&gt;Node14</title>
<g id="a_edge16_Node000015_Node000014"><a xlink:title=" ">
<path fill="none" stroke="#63b8ff" d="M170.68,-122.32C178.45,-122.49 186.52,-122.54 194.45,-122.46"/>
<polygon fill="#63b8ff" stroke="#63b8ff" points="170.79,-118.83 160.69,-122.02 170.58,-125.82 170.79,-118.83"/>
</a>
</g>
</g>
<!-- Node16 -->
<g id="Node000016" class="node">
<title>Node16</title>
<g id="a_Node000016"><a xlink:href="../../d2/d0a/menu_8c.html#a3c04138a5bfe5d72780bb7e82a18e627" target="_top" xlink:title=" ">
<polygon fill="white" stroke="#666666" points="40.75,-126.12 0,-126.12 0,-105.37 40.75,-105.37 40.75,-126.12"/>
<text xml:space="preserve" text-anchor="middle" x="20.38" y="-112.62" font-family="Helvetica,sans-Serif" font-size="10.00">main</text>
</a>
</g>
</g>
<!-- Node15&#45;&gt;Node16 -->
<g id="edge15_Node000015_Node000016" class="edge">
<title>Node15&#45;&gt;Node16</title>
<g id="a_edge15_Node000015_Node000016"><a xlink:title=" ">
<path fill="none" stroke="#63b8ff" d="M64.79,-115.75C56.36,-115.75 48.1,-115.75 41.09,-115.75"/>
<polygon fill="#63b8ff" stroke="#63b8ff" points="64.79,-119.25 74.79,-115.75 64.79,-112.25 64.79,-119.25"/>
</a>
</g>
</g>
<!-- Node17&#45;&gt;Node11 -->
<g id="edge18_Node000017_Node000011" class="edge">
<title>Node17&#45;&gt;Node11</title>
<g id="a_edge18_Node000017_Node000011"><a xlink:title=" ">
<path fill="none" stroke="#63b8ff" d="M554.42,-179.2C541.53,-174.67 527.56,-169.77 515.54,-165.55"/>
<polygon fill="#63b8ff" stroke="#63b8ff" points="552.9,-182.37 563.49,-182.38 555.22,-175.77 552.9,-182.37"/>
</a>
</g>
</g>
<!-- Node18&#45;&gt;Node5 -->
<g id="edge23_Node000018_Node000005" class="edge">
<title>Node18&#45;&gt;Node5</title>
<g id="a_edge23_Node000018_Node000005"><a xlink:title=" ">
<path fill="none" stroke="#63b8ff" d="M790.06,-43.22C837.11,-46.27 902.76,-51.54 960,-59.75 975,-61.9 991.21,-64.92 1005.88,-67.92"/>
<polygon fill="#63b8ff" stroke="#63b8ff" points="790.53,-39.74 780.33,-42.6 790.09,-46.73 790.53,-39.74"/>
</a>
</g>
</g>
</g>
</svg>
