<?xml version="1.0" encoding="UTF-8" standalone="no"?>
<!DOCTYPE svg PUBLIC "-//W3C//DTD SVG 1.1//EN"
 "http://www.w3.org/Graphics/SVG/1.1/DTD/svg11.dtd">
<!-- Generated by graphviz version 14.1.2 (0)
 -->
<!-- Title: next_page Pages: 1 -->
<svg width="1103pt" height="690pt"
 viewBox="0.00 0.00 1103.00 690.00" xmlns="http://www.w3.org/2000/svg" xmlns:xlink="http://www.w3.org/1999/xlink">
<g id="graph0" class="graph" transform="scale(1 1) rotate(0) translate(4 685.51)">
<title>next_page</title>
<!-- Node1 -->
<g id="Node000001" class="node">
<title>Node1</title>
<g id="a_Node000001"><a xlink:title="Advance to Next Page.">
<polygon fill="#999999" stroke="#666666" points="67,-213.75 0,-213.75 0,-193 67,-193 67,-213.75"/>
<text xml:space="preserve" text-anchor="middle" x="33.5" y="-200.25" font-family="Helvetica,sans-Serif" font-size="10.00">next_page</text>
</a>
</g>
</g>
<!-- Node2 -->
<g id="Node000002" class="node">
<title>Node2</title>
<g id="a_Node000002"><a xlink:href="../../d0/d8e/view__engine_8c.html#a16a4b855ead8402d4744e77a5504082a" target="_top" xlink:title="Display Line on Pad.">
<polygon fill="white" stroke="#666666" points="181.25,-403.75 106.75,-403.75 106.75,-383 181.25,-383 181.25,-403.75"/>
<text xml:space="preserve" text-anchor="middle" x="144" y="-390.25" font-family="Helvetica,sans-Serif" font-size="10.00">display_line</text>
</a>
</g>
</g>
<!-- Node1&#45;&gt;Node2 -->
<g id="edge1_Node000001_Node000002" class="edge">
<title>Node1&#45;&gt;Node2</title>
<g id="a_edge1_Node000001_Node000002"><a xlink:title=" ">
<path fill="none" stroke="#63b8ff" d="M40.64,-214.13C58.14,-244.77 108.42,-332.82 131.35,-372.98"/>
<polygon fill="#63b8ff" stroke="#63b8ff" points="128.17,-374.47 136.17,-381.42 134.25,-371 128.17,-374.47"/>
</a>
</g>
</g>
<!-- Node23 -->
<g id="Node000023" class="node">
<title>Node23</title>
<g id="a_Node000023"><a xlink:href="../../d0/d8e/view__engine_8c.html#a747411d59b020ad11d4567ab0b3db8c2" target="_top" xlink:title="Format Line for Display.">
<polygon fill="white" stroke="#666666" points="172.25,-213.75 115.75,-213.75 115.75,-193 172.25,-193 172.25,-213.75"/>
<text xml:space="preserve" text-anchor="middle" x="144" y="-200.25" font-family="Helvetica,sans-Serif" font-size="10.00">fmt_line</text>
</a>
</g>
</g>
<!-- Node1&#45;&gt;Node23 -->
<g id="edge40_Node000001_Node000023" class="edge">
<title>Node1&#45;&gt;Node23</title>
<g id="a_edge40_Node000001_Node000023"><a xlink:title=" ">
<path fill="none" stroke="#63b8ff" d="M67.35,-203.38C78.98,-203.38 92.17,-203.38 104.24,-203.38"/>
<polygon fill="#63b8ff" stroke="#63b8ff" points="103.87,-206.88 113.87,-203.38 103.87,-199.88 103.87,-206.88"/>
</a>
</g>
</g>
<!-- Node31 -->
<g id="Node000031" class="node">
<title>Node31</title>
<g id="a_Node000031"><a xlink:href="../../d0/d8e/view__engine_8c.html#a395b27e6a9716bf49e3fc04d53987b33" target="_top" xlink:title="Get Next Line from File.">
<polygon fill="white" stroke="#666666" points="185,-174.75 103,-174.75 103,-154 185,-154 185,-174.75"/>
<text xml:space="preserve" text-anchor="middle" x="144" y="-161.25" font-family="Helvetica,sans-Serif" font-size="10.00">get_next_line</text>
</a>
</g>
</g>
<!-- Node1&#45;&gt;Node31 -->
<g id="edge50_Node000001_Node000031" class="edge">
<title>Node1&#45;&gt;Node31</title>
<g id="a_edge50_Node000001_Node000031"><a xlink:title=" ">
<path fill="none" stroke="#63b8ff" d="M64.72,-192.51C76.36,-188.33 89.85,-183.48 102.32,-179"/>
<polygon fill="#63b8ff" stroke="#63b8ff" points="103.29,-182.37 111.51,-175.69 100.92,-175.78 103.29,-182.37"/>
</a>
</g>
</g>
<!-- Node3 -->
<g id="Node000003" class="node">
<title>Node3</title>
<g id="a_Node000003"><a xlink:href="../../dc/d40/dwin_8c.html#a61b4f28456257f68ed042bed7f187efd" target="_top" xlink:title="Display a simple error message window or print to stderr.">
<polygon fill="white" stroke="#666666" points="286.88,-479.75 241.62,-479.75 241.62,-459 286.88,-459 286.88,-479.75"/>
<text xml:space="preserve" text-anchor="middle" x="264.25" y="-466.25" font-family="Helvetica,sans-Serif" font-size="10.00">Perror</text>
</a>
</g>
</g>
<!-- Node2&#45;&gt;Node3 -->
<g id="edge2_Node000002_Node000003" class="edge">
<title>Node2&#45;&gt;Node3</title>
<g id="a_edge2_Node000002_Node000003"><a xlink:title=" ">
<path fill="none" stroke="#63b8ff" d="M161.69,-404.1C181.32,-416.72 214.15,-437.82 237.15,-452.6"/>
<polygon fill="#63b8ff" stroke="#63b8ff" points="235.07,-455.42 245.37,-457.88 238.85,-449.53 235.07,-455.42"/>
</a>
</g>
</g>
<!-- Node4 -->
<g id="Node000004" class="node">
<title>Node4</title>
<g id="a_Node000004"><a xlink:href="../../dc/d40/dwin_8c.html#a8f6c45ca4a7f6a41c4c88314e697565a" target="_top" xlink:title="Abnormal program termination.">
<polygon fill="white" stroke="#666666" points="813.62,-383.75 767.62,-383.75 767.62,-363 813.62,-363 813.62,-383.75"/>
<text xml:space="preserve" text-anchor="middle" x="790.62" y="-370.25" font-family="Helvetica,sans-Serif" font-size="10.00">abend</text>
</a>
</g>
</g>
<!-- Node3&#45;&gt;Node4 -->
<g id="edge3_Node000003_Node000004" class="edge">
<title>Node3&#45;&gt;Node4</title>
<g id="a_edge3_Node000003_Node000004"><a xlink:title=" ">
<path fill="none" stroke="#63b8ff" d="M275.26,-479.88C289.15,-493.73 315.72,-517.72 343.5,-529.38 421.15,-561.96 651.88,-613.84 720.75,-565.38 776.53,-526.12 787.36,-437.24 789.31,-395.64"/>
<polygon fill="#63b8ff" stroke="#63b8ff" points="792.81,-395.75 789.62,-385.64 785.81,-395.53 792.81,-395.75"/>
</a>
</g>
</g>
<!-- Node8 -->
<g id="Node000008" class="node">
<title>Node8</title>
<g id="a_Node000008"><a xlink:href="../../dc/d40/dwin_8c.html#a645871e46277e31736bc36d0f3dce4bd" target="_top" xlink:title="construct the chyron string from the chyron structure">
<polygon fill="white" stroke="#666666" points="720.75,-136.75 627.5,-136.75 627.5,-116 720.75,-116 720.75,-136.75"/>
<text xml:space="preserve" text-anchor="middle" x="674.12" y="-123.25" font-family="Helvetica,sans-Serif" font-size="10.00">compile_chyron</text>
</a>
</g>
</g>
<!-- Node3&#45;&gt;Node8 -->
<g id="edge9_Node000003_Node000008" class="edge">
<title>Node3&#45;&gt;Node8</title>
<g id="a_edge9_Node000003_Node000008"><a xlink:title=" ">
<path fill="none" stroke="#63b8ff" d="M267.06,-458.65C276.26,-404.9 318.29,-166.42 343.5,-145.38 383.42,-112.04 532.37,-116.42 615.72,-121.79"/>
<polygon fill="#63b8ff" stroke="#63b8ff" points="615.31,-125.27 625.52,-122.45 615.78,-118.29 615.31,-125.27"/>
</a>
</g>
</g>
<!-- Node10 -->
<g id="Node000010" class="node">
<title>Node10</title>
<g id="a_Node000010"><a xlink:href="../../dc/d40/dwin_8c.html#a3f3feb40fd703913c5c136331f627c91" target="_top" xlink:title="Destroy Chyron structure.">
<polygon fill="white" stroke="#666666" points="719.62,-556.75 628.62,-556.75 628.62,-536 719.62,-536 719.62,-556.75"/>
<text xml:space="preserve" text-anchor="middle" x="674.12" y="-543.25" font-family="Helvetica,sans-Serif" font-size="10.00">destroy_chyron</text>
</a>
</g>
</g>
<!-- Node3&#45;&gt;Node10 -->
<g id="edge11_Node000003_Node000010" class="edge">
<title>Node3&#45;&gt;Node10</title>
<g id="a_edge11_Node000003_Node000010"><a xlink:title=" ">
<path fill="none" stroke="#63b8ff" d="M285.6,-480.1C301.06,-487.78 323.09,-497.73 343.5,-503.38 437.3,-529.31 550.54,-539.74 616.92,-543.83"/>
<polygon fill="#63b8ff" stroke="#63b8ff" points="616.66,-547.32 626.84,-544.41 617.07,-540.33 616.66,-547.32"/>
</a>
</g>
</g>
<!-- Node11 -->
<g id="Node000011" class="node">
<title>Node11</title>
<g id="a_Node000011"><a xlink:href="../../dc/d40/dwin_8c.html#ad37d5808ff30ae6894780425d865abae" target="_top" xlink:title="Create and initialize Chyron structure.">
<polygon fill="white" stroke="#666666" points="711.38,-402.75 636.88,-402.75 636.88,-382 711.38,-382 711.38,-402.75"/>
<text xml:space="preserve" text-anchor="middle" x="674.12" y="-389.25" font-family="Helvetica,sans-Serif" font-size="10.00">new_chyron</text>
</a>
</g>
</g>
<!-- Node3&#45;&gt;Node11 -->
<g id="edge12_Node000003_Node000011" class="edge">
<title>Node3&#45;&gt;Node11</title>
<g id="a_edge12_Node000003_Node000011"><a xlink:title=" ">
<path fill="none" stroke="#63b8ff" d="M287.11,-466.08C339.73,-458.02 477.54,-436.26 591.5,-412.38 602.64,-410.04 614.57,-407.27 625.77,-404.55"/>
<polygon fill="#63b8ff" stroke="#63b8ff" points="626.33,-408.02 635.21,-402.22 624.66,-401.22 626.33,-408.02"/>
</a>
</g>
</g>
<!-- Node12 -->
<g id="Node000012" class="node">
<title>Node12</title>
<g id="a_Node000012"><a xlink:href="../../dc/d40/dwin_8c.html#a208ce92c197fdd6d2b007987e534aa3b" target="_top" xlink:title="Set chyron key.">
<polygon fill="white" stroke="#666666" points="720,-250.75 628.25,-250.75 628.25,-230 720,-230 720,-250.75"/>
<text xml:space="preserve" text-anchor="middle" x="674.12" y="-237.25" font-family="Helvetica,sans-Serif" font-size="10.00">set_chyron_key</text>
</a>
</g>
</g>
<!-- Node3&#45;&gt;Node12 -->
<g id="edge14_Node000003_Node000012" class="edge">
<title>Node3&#45;&gt;Node12</title>
<g id="a_edge14_Node000003_Node000012"><a xlink:title=" ">
<path fill="none" stroke="#63b8ff" d="M271.67,-458.51C283.58,-439.17 310.88,-398.55 343.5,-374.38 428.59,-311.31 547.56,-272.61 616.86,-253.93"/>
<polygon fill="#63b8ff" stroke="#63b8ff" points="617.72,-257.32 626.49,-251.38 615.93,-250.56 617.72,-257.32"/>
</a>
</g>
</g>
<!-- Node13 -->
<g id="Node000013" class="node">
<title>Node13</title>
<g id="a_Node000013"><a xlink:href="../../d0/d59/futil_8c.html#a63eb94756fb011a456a3dec900709cd8" target="_top" xlink:title="ssnprintf was designed to be a safer alternative to snprintf.">
<polygon fill="white" stroke="#666666" points="820,-250.75 761.25,-250.75 761.25,-230 820,-230 820,-250.75"/>
<text xml:space="preserve" text-anchor="middle" x="790.62" y="-237.25" font-family="Helvetica,sans-Serif" font-size="10.00">ssnprintf</text>
</a>
</g>
</g>
<!-- Node3&#45;&gt;Node13 -->
<g id="edge16_Node000003_Node000013" class="edge">
<title>Node3&#45;&gt;Node13</title>
<g id="a_edge16_Node000003_Node000013"><a xlink:title=" ">
<path fill="none" stroke="#63b8ff" d="M267.22,-458.75C273.17,-429.67 293.72,-348.13 343.5,-305.38 443.36,-219.62 497.16,-239.77 627.5,-221.38 668.54,-215.58 679.68,-215.81 720.75,-221.38 730.28,-222.66 740.34,-224.91 749.76,-227.43"/>
<polygon fill="#63b8ff" stroke="#63b8ff" points="748.8,-230.79 759.37,-230.16 750.71,-224.06 748.8,-230.79"/>
</a>
</g>
</g>
<!-- Node14 -->
<g id="Node000014" class="node">
<title>Node14</title>
<g id="a_Node000014"><a xlink:href="../../d0/d59/futil_8c.html#a0de2e40df9bd7efc8fd9afb8ad2257e6" target="_top" xlink:title="safer alternative to strncpy">
<polygon fill="white" stroke="#666666" points="824.5,-555.75 756.75,-555.75 756.75,-535 824.5,-535 824.5,-555.75"/>
<text xml:space="preserve" text-anchor="middle" x="790.62" y="-542.25" font-family="Helvetica,sans-Serif" font-size="10.00">strnz__cpy</text>
</a>
</g>
</g>
<!-- Node3&#45;&gt;Node14 -->
<g id="edge17_Node000003_Node000014" class="edge">
<title>Node3&#45;&gt;Node14</title>
<g id="a_edge17_Node000003_Node000014"><a xlink:title=" ">
<path fill="none" stroke="#63b8ff" d="M267.86,-479.94C274.89,-505.81 296.94,-572.16 343.5,-598.38 416.55,-639.5 641.38,-625.38 720.75,-598.38 740.71,-591.58 759.4,-576.41 772.26,-564.04"/>
<polygon fill="#63b8ff" stroke="#63b8ff" points="774.56,-566.69 779.11,-557.12 769.59,-561.76 774.56,-566.69"/>
</a>
</g>
</g>
<!-- Node15 -->
<g id="Node000015" class="node">
<title>Node15</title>
<g id="a_Node000015"><a xlink:href="../../dc/d40/dwin_8c.html#a9dd598e1d49c8764af1eec42c682623e" target="_top" xlink:title="Delete the current window and its associated box window.">
<polygon fill="white" stroke="#666666" points="700.88,-517.75 647.38,-517.75 647.38,-497 700.88,-497 700.88,-517.75"/>
<text xml:space="preserve" text-anchor="middle" x="674.12" y="-504.25" font-family="Helvetica,sans-Serif" font-size="10.00">win_del</text>
</a>
</g>
</g>
<!-- Node3&#45;&gt;Node15 -->
<g id="edge18_Node000003_Node000015" class="edge">
<title>Node3&#45;&gt;Node15</title>
<g id="a_edge18_Node000003_Node000015"><a xlink:title=" ">
<path fill="none" stroke="#63b8ff" d="M287.08,-473.91C302.72,-477.01 324.33,-480.97 343.5,-483.38 448.91,-496.61 574.27,-503.25 635.58,-505.92"/>
<polygon fill="#63b8ff" stroke="#63b8ff" points="635.32,-509.41 645.46,-506.33 635.61,-502.42 635.32,-509.41"/>
</a>
</g>
</g>
<!-- Node16 -->
<g id="Node000016" class="node">
<title>Node16</title>
<g id="a_Node000016"><a xlink:href="../../dc/d40/dwin_8c.html#a435c7bff7ffedb8f51c6de9259e36f6c" target="_top" xlink:title="Create a new window with optional box and title.">
<polygon fill="white" stroke="#666666" points="703.5,-670.75 644.75,-670.75 644.75,-650 703.5,-650 703.5,-670.75"/>
<text xml:space="preserve" text-anchor="middle" x="674.12" y="-657.25" font-family="Helvetica,sans-Serif" font-size="10.00">win_new</text>
</a>
</g>
</g>
<!-- Node3&#45;&gt;Node16 -->
<g id="edge19_Node000003_Node000016" class="edge">
<title>Node3&#45;&gt;Node16</title>
<g id="a_edge19_Node000003_Node000016"><a xlink:title=" ">
<path fill="none" stroke="#63b8ff" d="M266.56,-479.92C270.94,-510.3 288.11,-598.26 343.5,-636.38 431.79,-697.12 566.72,-682 633.23,-669.38"/>
<polygon fill="#63b8ff" stroke="#63b8ff" points="633.83,-672.83 642.96,-667.45 632.47,-665.97 633.83,-672.83"/>
</a>
</g>
</g>
<!-- Node18 -->
<g id="Node000018" class="node">
<title>Node18</title>
<g id="a_Node000018"><a xlink:href="../../dc/d40/dwin_8c.html#acf4c709bccc4c965a5d61db978db31a3" target="_top" xlink:title="Wrapper for wgetch that handles signals and mouse events.">
<polygon fill="white" stroke="#666666" points="431.88,-403.75 374.62,-403.75 374.62,-383 431.88,-383 431.88,-403.75"/>
<text xml:space="preserve" text-anchor="middle" x="403.25" y="-390.25" font-family="Helvetica,sans-Serif" font-size="10.00">xwgetch</text>
</a>
</g>
</g>
<!-- Node3&#45;&gt;Node18 -->
<g id="edge22_Node000003_Node000018" class="edge">
<title>Node3&#45;&gt;Node18</title>
<g id="a_edge22_Node000003_Node000018"><a xlink:title=" ">
<path fill="none" stroke="#63b8ff" d="M284.59,-458.65C307.64,-445.86 346.39,-424.36 373.08,-409.56"/>
<polygon fill="#63b8ff" stroke="#63b8ff" points="374.64,-412.69 381.69,-404.78 371.24,-406.57 374.64,-412.69"/>
</a>
</g>
</g>
<!-- Node5 -->
<g id="Node000005" class="node">
<title>Node5</title>
<g id="a_Node000005"><a xlink:href="../../dc/d40/dwin_8c.html#afc0985a403e3eac0b2cd8f0fab500256" target="_top" xlink:title="Gracefully shut down NCurses and restore terminal settings.">
<polygon fill="white" stroke="#666666" points="950,-365.75 860.5,-365.75 860.5,-345 950,-345 950,-365.75"/>
<text xml:space="preserve" text-anchor="middle" x="905.25" y="-352.25" font-family="Helvetica,sans-Serif" font-size="10.00">destroy_curses</text>
</a>
</g>
</g>
<!-- Node4&#45;&gt;Node5 -->
<g id="edge4_Node000004_Node000005" class="edge">
<title>Node4&#45;&gt;Node5</title>
<g id="a_edge4_Node000004_Node000005"><a xlink:title=" ">
<path fill="none" stroke="#63b8ff" d="M813.88,-369.82C823.99,-368.2 836.44,-366.21 848.84,-364.23"/>
<polygon fill="#63b8ff" stroke="#63b8ff" points="849.33,-367.7 858.65,-362.66 848.22,-360.79 849.33,-367.7"/>
</a>
</g>
</g>
<!-- Node6 -->
<g id="Node000006" class="node">
<title>Node6</title>
<g id="a_Node000006"><a xlink:href="../../d7/d72/scriou_8c.html#ac5e3adb304b78910fc77761ef6a743f0" target="_top" xlink:title="restore_shell_tioctl() &#45; restore shell terminal settings">
<polygon fill="white" stroke="#666666" points="1095,-403.75 986,-403.75 986,-383 1095,-383 1095,-403.75"/>
<text xml:space="preserve" text-anchor="middle" x="1040.5" y="-390.25" font-family="Helvetica,sans-Serif" font-size="10.00">restore_shell_tioctl</text>
</a>
</g>
</g>
<!-- Node4&#45;&gt;Node6 -->
<g id="edge7_Node000004_Node000006" class="edge">
<title>Node4&#45;&gt;Node6</title>
<g id="a_edge7_Node000004_Node000006"><a xlink:title=" ">
<path fill="none" stroke="#63b8ff" d="M814.06,-375.19C849.92,-378.08 921.5,-383.85 974.43,-388.12"/>
<polygon fill="#63b8ff" stroke="#63b8ff" points="974,-391.6 984.25,-388.92 974.56,-384.62 974,-391.6"/>
</a>
</g>
</g>
<!-- Node7 -->
<g id="Node000007" class="node">
<title>Node7</title>
<g id="a_Node000007"><a xlink:href="../../da/d12/sig_8c.html#a06c1eb6cf3649dc187115565409f91af" target="_top" xlink:title="Set signal handlers to default behavior.">
<polygon fill="white" stroke="#666666" points="1081.12,-346.75 999.88,-346.75 999.88,-326 1081.12,-326 1081.12,-346.75"/>
<text xml:space="preserve" text-anchor="middle" x="1040.5" y="-333.25" font-family="Helvetica,sans-Serif" font-size="10.00">sig_dfl_mode</text>
</a>
</g>
</g>
<!-- Node4&#45;&gt;Node7 -->
<g id="edge8_Node000004_Node000007" class="edge">
<title>Node4&#45;&gt;Node7</title>
<g id="a_edge8_Node000004_Node000007"><a xlink:title=" ">
<path fill="none" stroke="#63b8ff" d="M806.58,-362.51C819.96,-353.51 840.49,-341.41 860.5,-336.38 902.65,-325.77 952.17,-326.75 988.43,-329.83"/>
<polygon fill="#63b8ff" stroke="#63b8ff" points="987.92,-333.29 998.2,-330.75 988.58,-326.33 987.92,-333.29"/>
</a>
</g>
</g>
<!-- Node5&#45;&gt;Node6 -->
<g id="edge5_Node000005_Node000006" class="edge">
<title>Node5&#45;&gt;Node6</title>
<g id="a_edge5_Node000005_Node000006"><a xlink:title=" ">
<path fill="none" stroke="#63b8ff" d="M944.08,-366.16C958.57,-370.29 975.3,-375.07 990.68,-379.45"/>
<polygon fill="#63b8ff" stroke="#63b8ff" points="989.55,-382.77 1000.12,-382.15 991.47,-376.04 989.55,-382.77"/>
</a>
</g>
</g>
<!-- Node5&#45;&gt;Node7 -->
<g id="edge6_Node000005_Node000007" class="edge">
<title>Node5&#45;&gt;Node7</title>
<g id="a_edge6_Node000005_Node000007"><a xlink:title=" ">
<path fill="none" stroke="#63b8ff" d="M950.25,-349.1C962.44,-347.36 975.77,-345.46 988.33,-343.67"/>
<polygon fill="#63b8ff" stroke="#63b8ff" points="988.69,-347.16 998.09,-342.28 987.7,-340.23 988.69,-347.16"/>
</a>
</g>
</g>
<!-- Node9 -->
<g id="Node000009" class="node">
<title>Node9</title>
<g id="a_Node000009"><a xlink:href="../../d0/d59/futil_8c.html#aa0145c044cfdde3a1c83323410a59f25" target="_top" xlink:title="safer alternative to strncat">
<polygon fill="white" stroke="#666666" points="823.38,-136.75 757.88,-136.75 757.88,-116 823.38,-116 823.38,-136.75"/>
<text xml:space="preserve" text-anchor="middle" x="790.62" y="-123.25" font-family="Helvetica,sans-Serif" font-size="10.00">strnz__cat</text>
</a>
</g>
</g>
<!-- Node8&#45;&gt;Node9 -->
<g id="edge10_Node000008_Node000009" class="edge">
<title>Node8&#45;&gt;Node9</title>
<g id="a_edge10_Node000008_Node000009"><a xlink:title=" ">
<path fill="none" stroke="#63b8ff" d="M721.04,-126.38C729.33,-126.38 737.94,-126.38 746.16,-126.38"/>
<polygon fill="#63b8ff" stroke="#63b8ff" points="745.92,-129.88 755.92,-126.38 745.92,-122.88 745.92,-129.88"/>
</a>
</g>
</g>
<!-- Node11&#45;&gt;Node4 -->
<g id="edge13_Node000011_Node000004" class="edge">
<title>Node11&#45;&gt;Node4</title>
<g id="a_edge13_Node000011_Node000004"><a xlink:title=" ">
<path fill="none" stroke="#63b8ff" d="M711.67,-386.31C725.99,-383.94 742.3,-381.23 756.29,-378.91"/>
<polygon fill="#63b8ff" stroke="#63b8ff" points="756.61,-382.4 765.91,-377.31 755.47,-375.5 756.61,-382.4"/>
</a>
</g>
</g>
<!-- Node12&#45;&gt;Node13 -->
<g id="edge15_Node000012_Node000013" class="edge">
<title>Node12&#45;&gt;Node13</title>
<g id="a_edge15_Node000012_Node000013"><a xlink:title=" ">
<path fill="none" stroke="#63b8ff" d="M720.38,-240.38C729.96,-240.38 740.01,-240.38 749.39,-240.38"/>
<polygon fill="#63b8ff" stroke="#63b8ff" points="749.32,-243.88 759.32,-240.38 749.32,-236.88 749.32,-243.88"/>
</a>
</g>
</g>
<!-- Node16&#45;&gt;Node14 -->
<g id="edge21_Node000016_Node000014" class="edge">
<title>Node16&#45;&gt;Node14</title>
<g id="a_edge21_Node000016_Node000014"><a xlink:title=" ">
<path fill="none" stroke="#63b8ff" d="M700.52,-649.52C707.48,-645.9 714.74,-641.47 720.75,-636.38 744.83,-615.95 765.62,-585.69 777.88,-565.76"/>
<polygon fill="#63b8ff" stroke="#63b8ff" points="780.74,-567.8 782.86,-557.42 774.73,-564.21 780.74,-567.8"/>
</a>
</g>
</g>
<!-- Node17 -->
<g id="Node000017" class="node">
<title>Node17</title>
<g id="a_Node000017"><a xlink:href="../../dc/d40/dwin_8c.html#ac9adcf7339be4a05ab1a7350c236b8a5" target="_top" xlink:title="Draw a box around the specified window.">
<polygon fill="white" stroke="#666666" points="810.25,-670.75 771,-670.75 771,-650 810.25,-650 810.25,-670.75"/>
<text xml:space="preserve" text-anchor="middle" x="790.62" y="-657.25" font-family="Helvetica,sans-Serif" font-size="10.00">cbox</text>
</a>
</g>
</g>
<!-- Node16&#45;&gt;Node17 -->
<g id="edge20_Node000016_Node000017" class="edge">
<title>Node16&#45;&gt;Node17</title>
<g id="a_edge20_Node000016_Node000017"><a xlink:title=" ">
<path fill="none" stroke="#63b8ff" d="M703.72,-660.38C720.65,-660.38 742.07,-660.38 759.29,-660.38"/>
<polygon fill="#63b8ff" stroke="#63b8ff" points="759.19,-663.88 769.19,-660.38 759.19,-656.88 759.19,-663.88"/>
</a>
</g>
</g>
<!-- Node19 -->
<g id="Node000019" class="node">
<title>Node19</title>
<g id="a_Node000019"><a xlink:href="../../dc/d40/dwin_8c.html#a67659f8a701b74f4dec0d36227a10d1c" target="_top" xlink:title="Display an error message window or print to stderr.">
<polygon fill="white" stroke="#666666" points="585.12,-364.75 505.38,-364.75 505.38,-344 585.12,-344 585.12,-364.75"/>
<text xml:space="preserve" text-anchor="middle" x="545.25" y="-351.25" font-family="Helvetica,sans-Serif" font-size="10.00">display_error</text>
</a>
</g>
</g>
<!-- Node18&#45;&gt;Node19 -->
<g id="edge23_Node000018_Node000019" class="edge">
<title>Node18&#45;&gt;Node19</title>
<g id="a_edge23_Node000018_Node000019"><a xlink:title=" ">
<path fill="none" stroke="#63b8ff" d="M425.21,-382.55C443.38,-375.87 470.42,-367.83 494.14,-361.83"/>
<polygon fill="#63b8ff" stroke="#63b8ff" points="494.76,-365.28 503.64,-359.51 493.09,-358.49 494.76,-365.28"/>
</a>
</g>
</g>
<!-- Node21 -->
<g id="Node000021" class="node">
<title>Node21</title>
<g id="a_Node000021"><a xlink:href="../../dc/d40/dwin_8c.html#a4298f891699300bfc4e6e56fd2a8d574" target="_top" xlink:title="Get keycode from chyron.">
<polygon fill="white" stroke="#666666" points="591.5,-403.75 499,-403.75 499,-383 591.5,-383 591.5,-403.75"/>
<text xml:space="preserve" text-anchor="middle" x="545.25" y="-390.25" font-family="Helvetica,sans-Serif" font-size="10.00">get_chyron_key</text>
</a>
</g>
</g>
<!-- Node18&#45;&gt;Node21 -->
<g id="edge35_Node000018_Node000021" class="edge">
<title>Node18&#45;&gt;Node21</title>
<g id="a_edge35_Node000018_Node000021"><a xlink:title=" ">
<path fill="none" stroke="#63b8ff" d="M432.24,-393.38C448.05,-393.38 468.38,-393.38 487.37,-393.38"/>
<polygon fill="#63b8ff" stroke="#63b8ff" points="487.15,-396.88 497.15,-393.38 487.15,-389.88 487.15,-396.88"/>
</a>
</g>
</g>
<!-- Node22 -->
<g id="Node000022" class="node">
<title>Node22</title>
<g id="a_Node000022"><a xlink:href="../../da/d12/sig_8c.html#a79c3e22498eb2346543aa9c86fd22e58" target="_top" xlink:title="Handle received signals and prompt user for action.">
<polygon fill="white" stroke="#666666" points="715.88,-441.75 632.38,-441.75 632.38,-421 715.88,-421 715.88,-441.75"/>
<text xml:space="preserve" text-anchor="middle" x="674.12" y="-428.25" font-family="Helvetica,sans-Serif" font-size="10.00">handle_signal</text>
</a>
</g>
</g>
<!-- Node18&#45;&gt;Node22 -->
<g id="edge36_Node000018_Node000022" class="edge">
<title>Node18&#45;&gt;Node22</title>
<g id="a_edge36_Node000018_Node000022"><a xlink:title=" ">
<path fill="none" stroke="#63b8ff" d="M432.33,-399.69C451.12,-403.75 476.45,-408.89 499,-412.38 539.77,-418.67 586.23,-423.63 620.9,-426.9"/>
<polygon fill="#63b8ff" stroke="#63b8ff" points="620.39,-430.37 630.67,-427.81 621.04,-423.4 620.39,-430.37"/>
</a>
</g>
</g>
<!-- Node19&#45;&gt;Node4 -->
<g id="edge24_Node000019_Node000004" class="edge">
<title>Node19&#45;&gt;Node4</title>
<g id="a_edge24_Node000019_Node000004"><a xlink:title=" ">
<path fill="none" stroke="#63b8ff" d="M585.62,-357.45C632.94,-361.14 711.53,-367.28 756.09,-370.76"/>
<polygon fill="#63b8ff" stroke="#63b8ff" points="755.68,-374.24 765.93,-371.52 756.23,-367.26 755.68,-374.24"/>
</a>
</g>
</g>
<!-- Node19&#45;&gt;Node8 -->
<g id="edge25_Node000019_Node000008" class="edge">
<title>Node19&#45;&gt;Node8</title>
<g id="a_edge25_Node000019_Node000008"><a xlink:title=" ">
<path fill="none" stroke="#63b8ff" d="M552.2,-343.68C571.93,-308.23 635.43,-194.11 661.65,-147"/>
<polygon fill="#63b8ff" stroke="#63b8ff" points="664.65,-148.81 666.45,-138.37 658.53,-145.4 664.65,-148.81"/>
</a>
</g>
</g>
<!-- Node19&#45;&gt;Node10 -->
<g id="edge26_Node000019_Node000010" class="edge">
<title>Node19&#45;&gt;Node10</title>
<g id="a_edge26_Node000019_Node000010"><a xlink:title=" ">
<path fill="none" stroke="#63b8ff" d="M580.32,-365.15C584.53,-367.64 588.43,-370.68 591.5,-374.38 635.88,-427.76 583.04,-473.06 627.5,-526.38 628.18,-527.19 628.9,-527.97 629.65,-528.72"/>
<polygon fill="#63b8ff" stroke="#63b8ff" points="627.48,-531.47 637.57,-534.72 631.71,-525.89 627.48,-531.47"/>
</a>
</g>
</g>
<!-- Node19&#45;&gt;Node11 -->
<g id="edge27_Node000019_Node000011" class="edge">
<title>Node19&#45;&gt;Node11</title>
<g id="a_edge27_Node000019_Node000011"><a xlink:title=" ">
<path fill="none" stroke="#63b8ff" d="M582.27,-365.16C595.93,-369.25 611.69,-373.97 626.21,-378.32"/>
<polygon fill="#63b8ff" stroke="#63b8ff" points="624.98,-381.61 635.57,-381.13 626.99,-374.9 624.98,-381.61"/>
</a>
</g>
</g>
<!-- Node19&#45;&gt;Node12 -->
<g id="edge28_Node000019_Node000012" class="edge">
<title>Node19&#45;&gt;Node12</title>
<g id="a_edge28_Node000019_Node000012"><a xlink:title=" ">
<path fill="none" stroke="#63b8ff" d="M554,-343.55C567.39,-325.41 596.41,-288.52 627.5,-264.38 631.06,-261.61 634.98,-259.01 638.98,-256.61"/>
<polygon fill="#63b8ff" stroke="#63b8ff" points="640.57,-259.73 647.62,-251.82 637.18,-253.61 640.57,-259.73"/>
</a>
</g>
</g>
<!-- Node19&#45;&gt;Node13 -->
<g id="edge29_Node000019_Node000013" class="edge">
<title>Node19&#45;&gt;Node13</title>
<g id="a_edge29_Node000019_Node000013"><a xlink:title=" ">
<path fill="none" stroke="#63b8ff" d="M559.05,-343.71C574.49,-331.27 601.6,-310.69 627.5,-297.38 667.43,-276.84 716.44,-260.75 750.05,-250.98"/>
<polygon fill="#63b8ff" stroke="#63b8ff" points="750.72,-254.43 759.37,-248.32 748.8,-247.7 750.72,-254.43"/>
</a>
</g>
</g>
<!-- Node19&#45;&gt;Node14 -->
<g id="edge31_Node000019_Node000014" class="edge">
<title>Node19&#45;&gt;Node14</title>
<g id="a_edge31_Node000019_Node000014"><a xlink:title=" ">
<path fill="none" stroke="#63b8ff" d="M578.25,-365.02C583.06,-367.57 587.69,-370.66 591.5,-374.38 618.27,-400.46 600.35,-424.69 627.5,-450.38 660.01,-481.13 682.34,-465.4 720.75,-488.38 738.93,-499.25 757.31,-514.74 770.5,-526.82"/>
<polygon fill="#63b8ff" stroke="#63b8ff" points="767.94,-529.22 777.63,-533.51 772.73,-524.12 767.94,-529.22"/>
</a>
</g>
</g>
<!-- Node19&#45;&gt;Node15 -->
<g id="edge32_Node000019_Node000015" class="edge">
<title>Node19&#45;&gt;Node15</title>
<g id="a_edge32_Node000019_Node000015"><a xlink:title=" ">
<path fill="none" stroke="#63b8ff" d="M579.58,-365.14C584,-367.64 588.15,-370.69 591.5,-374.38 625.78,-412.16 594.53,-444.45 627.5,-483.38 630.27,-486.64 633.59,-489.52 637.17,-492.05"/>
<polygon fill="#63b8ff" stroke="#63b8ff" points="635.34,-495.04 645.72,-497.16 638.93,-489.03 635.34,-495.04"/>
</a>
</g>
</g>
<!-- Node19&#45;&gt;Node16 -->
<g id="edge33_Node000019_Node000016" class="edge">
<title>Node19&#45;&gt;Node16</title>
<g id="a_edge33_Node000019_Node000016"><a xlink:title=" ">
<path fill="none" stroke="#63b8ff" d="M580.48,-365.02C584.67,-367.53 588.51,-370.61 591.5,-374.38 645.17,-442.06 600.57,-483.3 627.5,-565.38 636.27,-592.12 650.97,-621.02 661.31,-639.83"/>
<polygon fill="#63b8ff" stroke="#63b8ff" points="658.13,-641.32 666.08,-648.33 664.24,-637.89 658.13,-641.32"/>
</a>
</g>
</g>
<!-- Node19&#45;&gt;Node18 -->
<g id="edge34_Node000019_Node000018" class="edge">
<title>Node19&#45;&gt;Node18</title>
<g id="a_edge34_Node000019_Node000018"><a xlink:title=" ">
<path fill="none" stroke="#63b8ff" d="M523.15,-365.25C502.04,-373 469.07,-382.56 443.2,-388.65"/>
<polygon fill="#63b8ff" stroke="#63b8ff" points="442.71,-385.17 433.72,-390.77 444.25,-392 442.71,-385.17"/>
</a>
</g>
</g>
<!-- Node20 -->
<g id="Node000020" class="node">
<title>Node20</title>
<g id="a_Node000020"><a xlink:href="../../d0/d59/futil_8c.html#a636608f26d1193b5d860f2312cd8ee49" target="_top" xlink:title="terminates string at New Line, Carriage Return, or max_len">
<polygon fill="white" stroke="#666666" points="694.12,-326.75 654.12,-326.75 654.12,-306 694.12,-306 694.12,-326.75"/>
<text xml:space="preserve" text-anchor="middle" x="674.12" y="-313.25" font-family="Helvetica,sans-Serif" font-size="10.00">strnz</text>
</a>
</g>
</g>
<!-- Node19&#45;&gt;Node20 -->
<g id="edge30_Node000019_Node000020" class="edge">
<title>Node19&#45;&gt;Node20</title>
<g id="a_edge30_Node000019_Node000020"><a xlink:title=" ">
<path fill="none" stroke="#63b8ff" d="M582.27,-343.59C601.47,-337.84 624.82,-330.84 643.04,-325.38"/>
<polygon fill="#63b8ff" stroke="#63b8ff" points="643.89,-328.79 652.46,-322.56 641.88,-322.08 643.89,-328.79"/>
</a>
</g>
</g>
<!-- Node22&#45;&gt;Node6 -->
<g id="edge37_Node000022_Node000006" class="edge">
<title>Node22&#45;&gt;Node6</title>
<g id="a_edge37_Node000022_Node000006"><a xlink:title=" ">
<path fill="none" stroke="#63b8ff" d="M716.22,-427.09C779.06,-420.54 899.62,-407.96 974.44,-400.16"/>
<polygon fill="#63b8ff" stroke="#63b8ff" points="974.5,-403.67 984.08,-399.15 973.77,-396.71 974.5,-403.67"/>
</a>
</g>
</g>
<!-- Node22&#45;&gt;Node13 -->
<g id="edge38_Node000022_Node000013" class="edge">
<title>Node22&#45;&gt;Node13</title>
<g id="a_edge38_Node000022_Node000013"><a xlink:title=" ">
<path fill="none" stroke="#63b8ff" d="M708.05,-420.71C712.71,-418.18 717.14,-415.1 720.75,-411.38 742.31,-389.16 770.61,-302.87 783.16,-262.03"/>
<polygon fill="#63b8ff" stroke="#63b8ff" points="786.47,-263.19 786.02,-252.61 779.77,-261.16 786.47,-263.19"/>
</a>
</g>
</g>
<!-- Node22&#45;&gt;Node14 -->
<g id="edge39_Node000022_Node000014" class="edge">
<title>Node22&#45;&gt;Node14</title>
<g id="a_edge39_Node000022_Node000014"><a xlink:title=" ">
<path fill="none" stroke="#63b8ff" d="M700.03,-442.01C707.13,-445.67 714.59,-450.18 720.75,-455.38 744.6,-475.5 765.34,-505.24 777.66,-524.95"/>
<polygon fill="#63b8ff" stroke="#63b8ff" points="774.64,-526.72 782.83,-533.45 780.63,-523.09 774.64,-526.72"/>
</a>
</g>
</g>
<!-- Node24 -->
<g id="Node000024" class="node">
<title>Node24</title>
<g id="a_Node000024"><a xlink:href="../../d0/d8e/view__engine_8c.html#a9fc984ba8ce6c4059b33a915d526357f" target="_top" xlink:title="Parse ANSI SGR Escape Sequence.">
<polygon fill="white" stroke="#666666" points="307.5,-98.75 221,-98.75 221,-78 307.5,-78 307.5,-98.75"/>
<text xml:space="preserve" text-anchor="middle" x="264.25" y="-85.25" font-family="Helvetica,sans-Serif" font-size="10.00">parse_ansi_str</text>
</a>
</g>
</g>
<!-- Node23&#45;&gt;Node24 -->
<g id="edge41_Node000023_Node000024" class="edge">
<title>Node23&#45;&gt;Node24</title>
<g id="a_edge41_Node000023_Node000024"><a xlink:title=" ">
<path fill="none" stroke="#63b8ff" d="M170.51,-192.63C175.55,-189.96 180.63,-186.86 185,-183.38 212.16,-161.73 236.38,-129.28 250.44,-108.46"/>
<polygon fill="#63b8ff" stroke="#63b8ff" points="253.25,-110.56 255.83,-100.28 247.4,-106.71 253.25,-110.56"/>
</a>
</g>
</g>
<!-- Node30 -->
<g id="Node000030" class="node">
<title>Node30</title>
<g id="a_Node000030"><a xlink:href="../../d0/d59/futil_8c.html#a4f42956462e811d96c9fb881a85dada4" target="_top" xlink:title="Trims trailing spaces from string s in place.">
<polygon fill="white" stroke="#666666" points="284.25,-213.75 244.25,-213.75 244.25,-193 284.25,-193 284.25,-213.75"/>
<text xml:space="preserve" text-anchor="middle" x="264.25" y="-200.25" font-family="Helvetica,sans-Serif" font-size="10.00">rtrim</text>
</a>
</g>
</g>
<!-- Node23&#45;&gt;Node30 -->
<g id="edge49_Node000023_Node000030" class="edge">
<title>Node23&#45;&gt;Node30</title>
<g id="a_edge49_Node000023_Node000030"><a xlink:title=" ">
<path fill="none" stroke="#63b8ff" d="M172.72,-203.38C190.64,-203.38 213.98,-203.38 232.48,-203.38"/>
<polygon fill="#63b8ff" stroke="#63b8ff" points="232.31,-206.88 242.31,-203.38 232.31,-199.88 232.31,-206.88"/>
</a>
</g>
</g>
<!-- Node25 -->
<g id="Node000025" class="node">
<title>Node25</title>
<g id="a_Node000025"><a xlink:href="../../d0/d59/futil_8c.html#ab96e4c73a7b3ba1310044b479733cdd9" target="_top" xlink:title="a safer alternative to atoi() for converting ASCII strings to integers.">
<polygon fill="white" stroke="#666666" points="423.25,-98.75 383.25,-98.75 383.25,-78 423.25,-78 423.25,-98.75"/>
<text xml:space="preserve" text-anchor="middle" x="403.25" y="-85.25" font-family="Helvetica,sans-Serif" font-size="10.00">a_toi</text>
</a>
</g>
</g>
<!-- Node24&#45;&gt;Node25 -->
<g id="edge42_Node000024_Node000025" class="edge">
<title>Node24&#45;&gt;Node25</title>
<g id="a_edge42_Node000024_Node000025"><a xlink:title=" ">
<path fill="none" stroke="#63b8ff" d="M307.85,-88.38C328.47,-88.38 352.76,-88.38 371.53,-88.38"/>
<polygon fill="#63b8ff" stroke="#63b8ff" points="371.47,-91.88 381.47,-88.38 371.47,-84.88 371.47,-91.88"/>
</a>
</g>
</g>
<!-- Node26 -->
<g id="Node000026" class="node">
<title>Node26</title>
<g id="a_Node000026"><a xlink:href="../../dc/d40/dwin_8c.html#af0ba4efbc81c259a2519ca41dd9d1599" target="_top" xlink:title="Get color pair index for foreground and background colors.">
<polygon fill="white" stroke="#666666" points="439.75,-174.75 366.75,-174.75 366.75,-154 439.75,-154 439.75,-174.75"/>
<text xml:space="preserve" text-anchor="middle" x="403.25" y="-161.25" font-family="Helvetica,sans-Serif" font-size="10.00">get_clr_pair</text>
</a>
</g>
</g>
<!-- Node24&#45;&gt;Node26 -->
<g id="edge43_Node000024_Node000026" class="edge">
<title>Node24&#45;&gt;Node26</title>
<g id="a_edge43_Node000024_Node000026"><a xlink:title=" ">
<path fill="none" stroke="#63b8ff" d="M284.59,-99.1C307.64,-111.89 346.39,-133.39 373.08,-148.19"/>
<polygon fill="#63b8ff" stroke="#63b8ff" points="371.24,-151.18 381.69,-152.97 374.64,-145.06 371.24,-151.18"/>
</a>
</g>
</g>
<!-- Node27 -->
<g id="Node000027" class="node">
<title>Node27</title>
<g id="a_Node000027"><a xlink:href="../../dc/d40/dwin_8c.html#a4900dd34e828972e58b0ca549cf7d4d8" target="_top" xlink:title="Get color index for RGB color.">
<polygon fill="white" stroke="#666666" points="453.62,-59.75 352.88,-59.75 352.88,-39 453.62,-39 453.62,-59.75"/>
<text xml:space="preserve" text-anchor="middle" x="403.25" y="-46.25" font-family="Helvetica,sans-Serif" font-size="10.00">rgb_to_curses_clr</text>
</a>
</g>
</g>
<!-- Node24&#45;&gt;Node27 -->
<g id="edge46_Node000024_Node000027" class="edge">
<title>Node24&#45;&gt;Node27</title>
<g id="a_edge46_Node000024_Node000027"><a xlink:title=" ">
<path fill="none" stroke="#63b8ff" d="M303.41,-77.51C318.85,-73.12 336.87,-67.99 353.26,-63.32"/>
<polygon fill="#63b8ff" stroke="#63b8ff" points="354.18,-66.7 362.84,-60.59 352.26,-59.97 354.18,-66.7"/>
</a>
</g>
</g>
<!-- Node29 -->
<g id="Node000029" class="node">
<title>Node29</title>
<g id="a_Node000029"><a xlink:href="../../dc/d40/dwin_8c.html#a31ee0d93c7b527f92559fc410152f768" target="_top" xlink:title="Convert XTerm 256 color index to RGB color.">
<polygon fill="white" stroke="#666666" points="463,-20.75 343.5,-20.75 343.5,0 463,0 463,-20.75"/>
<text xml:space="preserve" text-anchor="middle" x="403.25" y="-7.25" font-family="Helvetica,sans-Serif" font-size="10.00">xterm256_idx_to_rgb</text>
</a>
</g>
</g>
<!-- Node24&#45;&gt;Node29 -->
<g id="edge48_Node000024_Node000029" class="edge">
<title>Node24&#45;&gt;Node29</title>
<g id="a_edge48_Node000024_Node000029"><a xlink:title=" ">
<path fill="none" stroke="#63b8ff" d="M277.19,-77.66C291.89,-64.92 318.04,-43.73 343.5,-30.38 346.94,-28.57 350.58,-26.87 354.3,-25.3"/>
<polygon fill="#63b8ff" stroke="#63b8ff" points="355.41,-28.62 363.44,-21.71 352.86,-22.1 355.41,-28.62"/>
</a>
</g>
</g>
<!-- Node26&#45;&gt;Node13 -->
<g id="edge45_Node000026_Node000013" class="edge">
<title>Node26&#45;&gt;Node13</title>
<g id="a_edge45_Node000026_Node000013"><a xlink:title=" ">
<path fill="none" stroke="#63b8ff" d="M439.82,-160.73C499.91,-155.94 624.35,-151.96 720.75,-188.38 740.11,-195.69 758.63,-210.25 771.58,-222.11"/>
<polygon fill="#63b8ff" stroke="#63b8ff" points="768.85,-224.34 778.5,-228.71 773.69,-219.28 768.85,-224.34"/>
</a>
</g>
</g>
<!-- Node26&#45;&gt;Node19 -->
<g id="edge44_Node000026_Node000019" class="edge">
<title>Node26&#45;&gt;Node19</title>
<g id="a_edge44_Node000026_Node000019"><a xlink:title=" ">
<path fill="none" stroke="#63b8ff" d="M412.18,-175.13C434.85,-205.9 500.19,-294.58 529.6,-334.49"/>
<polygon fill="#63b8ff" stroke="#63b8ff" points="526.76,-336.54 535.51,-342.51 532.4,-332.39 526.76,-336.54"/>
</a>
</g>
</g>
<!-- Node28 -->
<g id="Node000028" class="node">
<title>Node28</title>
<g id="a_Node000028"><a xlink:href="../../dc/d40/dwin_8c.html#aa3a6b291c0820d9da545325a2dba5274" target="_top" xlink:title="Apply gamma correction to RGB color.">
<polygon fill="white" stroke="#666666" points="588.12,-59.75 502.38,-59.75 502.38,-39 588.12,-39 588.12,-59.75"/>
<text xml:space="preserve" text-anchor="middle" x="545.25" y="-46.25" font-family="Helvetica,sans-Serif" font-size="10.00">apply_gamma</text>
</a>
</g>
</g>
<!-- Node27&#45;&gt;Node28 -->
<g id="edge47_Node000027_Node000028" class="edge">
<title>Node27&#45;&gt;Node28</title>
<g id="a_edge47_Node000027_Node000028"><a xlink:title=" ">
<path fill="none" stroke="#63b8ff" d="M454,-49.38C465.91,-49.38 478.68,-49.38 490.76,-49.38"/>
<polygon fill="#63b8ff" stroke="#63b8ff" points="490.55,-52.88 500.55,-49.38 490.55,-45.88 490.55,-52.88"/>
</a>
</g>
</g>
</g>
</svg>
