<?xml version="1.0" encoding="UTF-8" standalone="no"?>
<!DOCTYPE svg PUBLIC "-//W3C//DTD SVG 1.1//EN"
 "http://www.w3.org/Graphics/SVG/1.1/DTD/svg11.dtd">
<!-- Generated by graphviz version 14.1.2 (0)
 -->
<!-- Title: parse_ansi_str Pages: 1 -->
<svg width="900pt" height="429pt"
 viewBox="0.00 0.00 900.00 429.00" xmlns="http://www.w3.org/2000/svg" xmlns:xlink="http://www.w3.org/1999/xlink">
<g id="graph0" class="graph" transform="scale(1 1) rotate(0) translate(4 424.91)">
<title>parse_ansi_str</title>
<!-- Node1 -->
<g id="Node000001" class="node">
<title>Node1</title>
<g id="a_Node000001"><a xlink:title="Parse ANSI SGR Escape Sequence.">
<polygon fill="#999999" stroke="#666666" points="86.5,-171.91 0,-171.91 0,-151.16 86.5,-151.16 86.5,-171.91"/>
<text xml:space="preserve" text-anchor="middle" x="43.25" y="-158.41" font-family="Helvetica,sans-Serif" font-size="10.00">parse_ansi_str</text>
</a>
</g>
</g>
<!-- Node2 -->
<g id="Node000002" class="node">
<title>Node2</title>
<g id="a_Node000002"><a xlink:href="../../d0/d59/futil_8c.html#ab96e4c73a7b3ba1310044b479733cdd9" target="_top" xlink:title="a safer alternative to atoi() for converting ASCII strings to integers.">
<polygon fill="white" stroke="#666666" points="202.25,-230.91 162.25,-230.91 162.25,-210.16 202.25,-210.16 202.25,-230.91"/>
<text xml:space="preserve" text-anchor="middle" x="182.25" y="-217.41" font-family="Helvetica,sans-Serif" font-size="10.00">a_toi</text>
</a>
</g>
</g>
<!-- Node1&#45;&gt;Node2 -->
<g id="edge1_Node000001_Node000002" class="edge">
<title>Node1&#45;&gt;Node2</title>
<g id="a_edge1_Node000001_Node000002"><a xlink:title=" ">
<path fill="none" stroke="#63b8ff" d="M64.17,-172.4C79.78,-180.68 102.19,-192.06 122.5,-200.54 131.69,-204.37 141.9,-208.04 151.2,-211.17"/>
<polygon fill="#63b8ff" stroke="#63b8ff" points="149.93,-214.44 160.52,-214.22 152.1,-207.78 149.93,-214.44"/>
</a>
</g>
</g>
<!-- Node3 -->
<g id="Node000003" class="node">
<title>Node3</title>
<g id="a_Node000003"><a xlink:href="../../dc/d40/dwin_8c.html#af0ba4efbc81c259a2519ca41dd9d1599" target="_top" xlink:title="Get color pair index for foreground and background colors.">
<polygon fill="white" stroke="#666666" points="218.75,-191.91 145.75,-191.91 145.75,-171.16 218.75,-171.16 218.75,-191.91"/>
<text xml:space="preserve" text-anchor="middle" x="182.25" y="-178.41" font-family="Helvetica,sans-Serif" font-size="10.00">get_clr_pair</text>
</a>
</g>
</g>
<!-- Node1&#45;&gt;Node3 -->
<g id="edge2_Node000001_Node000003" class="edge">
<title>Node1&#45;&gt;Node3</title>
<g id="a_edge2_Node000001_Node000003"><a xlink:title=" ">
<path fill="none" stroke="#63b8ff" d="M86.85,-167.76C101.87,-169.95 118.84,-172.43 134.21,-174.67"/>
<polygon fill="#63b8ff" stroke="#63b8ff" points="133.69,-178.13 144.09,-176.11 134.7,-171.2 133.69,-178.13"/>
</a>
</g>
</g>
<!-- Node23 -->
<g id="Node000023" class="node">
<title>Node23</title>
<g id="a_Node000023"><a xlink:href="../../dc/d40/dwin_8c.html#a4900dd34e828972e58b0ca549cf7d4d8" target="_top" xlink:title="Get color index for RGB color.">
<polygon fill="white" stroke="#666666" points="232.62,-152.91 131.88,-152.91 131.88,-132.16 232.62,-132.16 232.62,-152.91"/>
<text xml:space="preserve" text-anchor="middle" x="182.25" y="-139.41" font-family="Helvetica,sans-Serif" font-size="10.00">rgb_to_curses_clr</text>
</a>
</g>
</g>
<!-- Node1&#45;&gt;Node23 -->
<g id="edge32_Node000001_Node000023" class="edge">
<title>Node1&#45;&gt;Node23</title>
<g id="a_edge32_Node000001_Node000023"><a xlink:title=" ">
<path fill="none" stroke="#63b8ff" d="M86.85,-155.63C97.45,-154.16 109.03,-152.55 120.32,-150.99"/>
<polygon fill="#63b8ff" stroke="#63b8ff" points="120.56,-154.49 129.98,-149.65 119.6,-147.55 120.56,-154.49"/>
</a>
</g>
</g>
<!-- Node25 -->
<g id="Node000025" class="node">
<title>Node25</title>
<g id="a_Node000025"><a xlink:href="../../dc/d40/dwin_8c.html#a31ee0d93c7b527f92559fc410152f768" target="_top" xlink:title="Convert XTerm 256 color index to RGB color.">
<polygon fill="white" stroke="#666666" points="242,-113.91 122.5,-113.91 122.5,-93.16 242,-93.16 242,-113.91"/>
<text xml:space="preserve" text-anchor="middle" x="182.25" y="-100.41" font-family="Helvetica,sans-Serif" font-size="10.00">xterm256_idx_to_rgb</text>
</a>
</g>
</g>
<!-- Node1&#45;&gt;Node25 -->
<g id="edge34_Node000001_Node000025" class="edge">
<title>Node1&#45;&gt;Node25</title>
<g id="a_edge34_Node000001_Node000025"><a xlink:title=" ">
<path fill="none" stroke="#63b8ff" d="M64.53,-150.83C80.14,-142.8 102.39,-131.81 122.5,-123.54 127.05,-121.67 131.85,-119.83 136.66,-118.06"/>
<polygon fill="#63b8ff" stroke="#63b8ff" points="137.44,-121.5 145.69,-114.86 135.1,-114.9 137.44,-121.5"/>
</a>
</g>
</g>
<!-- Node4 -->
<g id="Node000004" class="node">
<title>Node4</title>
<g id="a_Node000004"><a xlink:href="../../dc/d40/dwin_8c.html#a67659f8a701b74f4dec0d36227a10d1c" target="_top" xlink:title="Display an error message window or print to stderr.">
<polygon fill="white" stroke="#666666" points="360.75,-191.91 281,-191.91 281,-171.16 360.75,-171.16 360.75,-191.91"/>
<text xml:space="preserve" text-anchor="middle" x="320.88" y="-178.41" font-family="Helvetica,sans-Serif" font-size="10.00">display_error</text>
</a>
</g>
</g>
<!-- Node3&#45;&gt;Node4 -->
<g id="edge3_Node000003_Node000004" class="edge">
<title>Node3&#45;&gt;Node4</title>
<g id="a_edge3_Node000003_Node000004"><a xlink:title=" ">
<path fill="none" stroke="#63b8ff" d="M219.15,-181.54C234.56,-181.54 252.85,-181.54 269.58,-181.54"/>
<polygon fill="#63b8ff" stroke="#63b8ff" points="269.35,-185.04 279.35,-181.54 269.35,-178.04 269.35,-185.04"/>
</a>
</g>
</g>
<!-- Node14 -->
<g id="Node000014" class="node">
<title>Node14</title>
<g id="a_Node000014"><a xlink:href="../../d0/d59/futil_8c.html#a63eb94756fb011a456a3dec900709cd8" target="_top" xlink:title="ssnprintf was designed to be a safer alternative to snprintf.">
<polygon fill="white" stroke="#666666" points="731.62,-248.91 672.88,-248.91 672.88,-228.16 731.62,-228.16 731.62,-248.91"/>
<text xml:space="preserve" text-anchor="middle" x="702.25" y="-235.41" font-family="Helvetica,sans-Serif" font-size="10.00">ssnprintf</text>
</a>
</g>
</g>
<!-- Node3&#45;&gt;Node14 -->
<g id="edge31_Node000003_Node000014" class="edge">
<title>Node3&#45;&gt;Node14</title>
<g id="a_edge31_Node000003_Node000014"><a xlink:title=" ">
<path fill="none" stroke="#63b8ff" d="M219.17,-190.97C226.99,-193.78 235.01,-197.27 242,-201.54 325.13,-252.22 309.46,-317.11 399.75,-353.54 505.18,-396.06 632.9,-298.92 681.34,-256.8"/>
<polygon fill="#63b8ff" stroke="#63b8ff" points="683.4,-259.66 688.55,-250.4 678.75,-254.42 683.4,-259.66"/>
</a>
</g>
</g>
<!-- Node5 -->
<g id="Node000005" class="node">
<title>Node5</title>
<g id="a_Node000005"><a xlink:href="../../dc/d40/dwin_8c.html#a8f6c45ca4a7f6a41c4c88314e697565a" target="_top" xlink:title="Abnormal program termination.">
<polygon fill="white" stroke="#666666" points="598.25,-420.91 552.25,-420.91 552.25,-400.16 598.25,-400.16 598.25,-420.91"/>
<text xml:space="preserve" text-anchor="middle" x="575.25" y="-407.41" font-family="Helvetica,sans-Serif" font-size="10.00">abend</text>
</a>
</g>
</g>
<!-- Node4&#45;&gt;Node5 -->
<g id="edge4_Node000004_Node000005" class="edge">
<title>Node4&#45;&gt;Node5</title>
<g id="a_edge4_Node000004_Node000005"><a xlink:title=" ">
<path fill="none" stroke="#63b8ff" d="M323.63,-192.18C329.11,-222.11 348.73,-307.82 399.75,-353.54 439.56,-389.22 502.13,-402.61 540.53,-407.61"/>
<polygon fill="#63b8ff" stroke="#63b8ff" points="540.01,-411.07 550.35,-408.75 540.82,-404.12 540.01,-411.07"/>
</a>
</g>
</g>
<!-- Node9 -->
<g id="Node000009" class="node">
<title>Node9</title>
<g id="a_Node000009"><a xlink:href="../../dc/d40/dwin_8c.html#a645871e46277e31736bc36d0f3dce4bd" target="_top" xlink:title="construct the chyron string from the chyron structure">
<polygon fill="white" stroke="#666666" points="493,-113.91 399.75,-113.91 399.75,-93.16 493,-93.16 493,-113.91"/>
<text xml:space="preserve" text-anchor="middle" x="446.38" y="-100.41" font-family="Helvetica,sans-Serif" font-size="10.00">compile_chyron</text>
</a>
</g>
</g>
<!-- Node4&#45;&gt;Node9 -->
<g id="edge10_Node000004_Node000009" class="edge">
<title>Node4&#45;&gt;Node9</title>
<g id="a_edge10_Node000004_Node000009"><a xlink:title=" ">
<path fill="none" stroke="#63b8ff" d="M348.41,-170.68C353.69,-168.02 359.06,-164.95 363.75,-161.54 382.56,-147.85 380.72,-136.92 399.75,-123.54 401.68,-122.18 403.73,-120.88 405.83,-119.65"/>
<polygon fill="#63b8ff" stroke="#63b8ff" points="407.38,-122.79 414.62,-115.05 404.14,-116.58 407.38,-122.79"/>
</a>
</g>
</g>
<!-- Node11 -->
<g id="Node000011" class="node">
<title>Node11</title>
<g id="a_Node000011"><a xlink:href="../../dc/d40/dwin_8c.html#a3f3feb40fd703913c5c136331f627c91" target="_top" xlink:title="Destroy Chyron structure.">
<polygon fill="white" stroke="#666666" points="491.88,-74.91 400.88,-74.91 400.88,-54.16 491.88,-54.16 491.88,-74.91"/>
<text xml:space="preserve" text-anchor="middle" x="446.38" y="-61.41" font-family="Helvetica,sans-Serif" font-size="10.00">destroy_chyron</text>
</a>
</g>
</g>
<!-- Node4&#45;&gt;Node11 -->
<g id="edge12_Node000004_Node000011" class="edge">
<title>Node4&#45;&gt;Node11</title>
<g id="a_edge12_Node000004_Node000011"><a xlink:title=" ">
<path fill="none" stroke="#63b8ff" d="M351.08,-170.84C355.69,-168.28 360.12,-165.2 363.75,-161.54 390.35,-134.71 372.72,-110.92 399.75,-84.54 400.79,-83.52 401.9,-82.55 403.05,-81.62"/>
<polygon fill="#63b8ff" stroke="#63b8ff" points="404.89,-84.6 411.36,-76.21 401.07,-78.74 404.89,-84.6"/>
</a>
</g>
</g>
<!-- Node12 -->
<g id="Node000012" class="node">
<title>Node12</title>
<g id="a_Node000012"><a xlink:href="../../dc/d40/dwin_8c.html#ad37d5808ff30ae6894780425d865abae" target="_top" xlink:title="Create and initialize Chyron structure.">
<polygon fill="white" stroke="#666666" points="483.62,-305.91 409.12,-305.91 409.12,-285.16 483.62,-285.16 483.62,-305.91"/>
<text xml:space="preserve" text-anchor="middle" x="446.38" y="-292.41" font-family="Helvetica,sans-Serif" font-size="10.00">new_chyron</text>
</a>
</g>
</g>
<!-- Node4&#45;&gt;Node12 -->
<g id="edge13_Node000004_Node000012" class="edge">
<title>Node4&#45;&gt;Node12</title>
<g id="a_edge13_Node000004_Node000012"><a xlink:title=" ">
<path fill="none" stroke="#63b8ff" d="M329.2,-192.39C341.88,-210.57 369.49,-247.52 399.75,-271.54 403.2,-274.28 407.01,-276.85 410.91,-279.22"/>
<polygon fill="#63b8ff" stroke="#63b8ff" points="408.9,-282.1 419.34,-283.93 412.32,-275.99 408.9,-282.1"/>
</a>
</g>
</g>
<!-- Node13 -->
<g id="Node000013" class="node">
<title>Node13</title>
<g id="a_Node000013"><a xlink:href="../../dc/d40/dwin_8c.html#a208ce92c197fdd6d2b007987e534aa3b" target="_top" xlink:title="Set chyron key.">
<polygon fill="white" stroke="#666666" points="621.12,-267.91 529.38,-267.91 529.38,-247.16 621.12,-247.16 621.12,-267.91"/>
<text xml:space="preserve" text-anchor="middle" x="575.25" y="-254.41" font-family="Helvetica,sans-Serif" font-size="10.00">set_chyron_key</text>
</a>
</g>
</g>
<!-- Node4&#45;&gt;Node13 -->
<g id="edge15_Node000004_Node000013" class="edge">
<title>Node4&#45;&gt;Node13</title>
<g id="a_edge15_Node000004_Node000013"><a xlink:title=" ">
<path fill="none" stroke="#63b8ff" d="M334.1,-192.31C348.66,-204.48 374.22,-223.85 399.75,-233.54 437.51,-247.87 482.75,-253.8 517.71,-256.18"/>
<polygon fill="#63b8ff" stroke="#63b8ff" points="517.44,-259.67 527.63,-256.77 517.86,-252.69 517.44,-259.67"/>
</a>
</g>
</g>
<!-- Node4&#45;&gt;Node14 -->
<g id="edge17_Node000004_Node000014" class="edge">
<title>Node4&#45;&gt;Node14</title>
<g id="a_edge17_Node000004_Node000014"><a xlink:title=" ">
<path fill="none" stroke="#63b8ff" d="M360.9,-191.98C373.26,-195.04 387.02,-198.19 399.75,-200.54 492.7,-217.68 603.22,-229.44 661.19,-234.95"/>
<polygon fill="#63b8ff" stroke="#63b8ff" points="660.61,-238.41 670.89,-235.86 661.26,-231.44 660.61,-238.41"/>
</a>
</g>
</g>
<!-- Node15 -->
<g id="Node000015" class="node">
<title>Node15</title>
<g id="a_Node000015"><a xlink:href="../../d0/d59/futil_8c.html#a636608f26d1193b5d860f2312cd8ee49" target="_top" xlink:title="terminates string at New Line, Carriage Return, or max_len">
<polygon fill="white" stroke="#666666" points="466.38,-35.91 426.38,-35.91 426.38,-15.16 466.38,-15.16 466.38,-35.91"/>
<text xml:space="preserve" text-anchor="middle" x="446.38" y="-22.41" font-family="Helvetica,sans-Serif" font-size="10.00">strnz</text>
</a>
</g>
</g>
<!-- Node4&#45;&gt;Node15 -->
<g id="edge18_Node000004_Node000015" class="edge">
<title>Node4&#45;&gt;Node15</title>
<g id="a_edge18_Node000004_Node000015"><a xlink:title=" ">
<path fill="none" stroke="#63b8ff" d="M352.37,-170.75C356.61,-168.23 360.59,-165.19 363.75,-161.54 399.06,-120.71 363.78,-85.79 399.75,-45.54 404.07,-40.7 409.78,-36.98 415.69,-34.14"/>
<polygon fill="#63b8ff" stroke="#63b8ff" points="416.88,-37.43 424.88,-30.48 414.29,-30.93 416.88,-37.43"/>
</a>
</g>
</g>
<!-- Node16 -->
<g id="Node000016" class="node">
<title>Node16</title>
<g id="a_Node000016"><a xlink:href="../../d0/d59/futil_8c.html#a0de2e40df9bd7efc8fd9afb8ad2257e6" target="_top" xlink:title="safer alternative to strncpy">
<polygon fill="white" stroke="#666666" points="736.12,-114.91 668.38,-114.91 668.38,-94.16 736.12,-94.16 736.12,-114.91"/>
<text xml:space="preserve" text-anchor="middle" x="702.25" y="-101.41" font-family="Helvetica,sans-Serif" font-size="10.00">strnz__cpy</text>
</a>
</g>
</g>
<!-- Node4&#45;&gt;Node16 -->
<g id="edge19_Node000004_Node000016" class="edge">
<title>Node4&#45;&gt;Node16</title>
<g id="a_edge19_Node000004_Node000016"><a xlink:title=" ">
<path fill="none" stroke="#63b8ff" d="M353.02,-170.69C357.07,-168.2 360.82,-165.18 363.75,-161.54 408.04,-106.4 344.37,-50.53 399.75,-6.54 411.82,3.05 600.83,1.36 621.5,-8.54 654.25,-24.22 678.3,-60.51 691,-83.7"/>
<polygon fill="#63b8ff" stroke="#63b8ff" points="687.89,-85.3 695.61,-92.55 694.09,-82.06 687.89,-85.3"/>
</a>
</g>
</g>
<!-- Node17 -->
<g id="Node000017" class="node">
<title>Node17</title>
<g id="a_Node000017"><a xlink:href="../../dc/d40/dwin_8c.html#a9dd598e1d49c8764af1eec42c682623e" target="_top" xlink:title="Delete the current window and its associated box window.">
<polygon fill="white" stroke="#666666" points="473.12,-344.91 419.62,-344.91 419.62,-324.16 473.12,-324.16 473.12,-344.91"/>
<text xml:space="preserve" text-anchor="middle" x="446.38" y="-331.41" font-family="Helvetica,sans-Serif" font-size="10.00">win_del</text>
</a>
</g>
</g>
<!-- Node4&#45;&gt;Node17 -->
<g id="edge20_Node000004_Node000017" class="edge">
<title>Node4&#45;&gt;Node17</title>
<g id="a_edge20_Node000004_Node000017"><a xlink:title=" ">
<path fill="none" stroke="#63b8ff" d="M325.55,-192.37C334.48,-217.18 359.57,-278.79 399.75,-314.54 402.68,-317.15 406.01,-319.46 409.5,-321.5"/>
<polygon fill="#63b8ff" stroke="#63b8ff" points="407.7,-324.51 418.21,-325.86 410.84,-318.25 407.7,-324.51"/>
</a>
</g>
</g>
<!-- Node18 -->
<g id="Node000018" class="node">
<title>Node18</title>
<g id="a_Node000018"><a xlink:href="../../dc/d40/dwin_8c.html#a435c7bff7ffedb8f51c6de9259e36f6c" target="_top" xlink:title="Create a new window with optional box and title.">
<polygon fill="white" stroke="#666666" points="475.75,-152.91 417,-152.91 417,-132.16 475.75,-132.16 475.75,-152.91"/>
<text xml:space="preserve" text-anchor="middle" x="446.38" y="-139.41" font-family="Helvetica,sans-Serif" font-size="10.00">win_new</text>
</a>
</g>
</g>
<!-- Node4&#45;&gt;Node18 -->
<g id="edge21_Node000004_Node000018" class="edge">
<title>Node4&#45;&gt;Node18</title>
<g id="a_edge21_Node000004_Node000018"><a xlink:title=" ">
<path fill="none" stroke="#63b8ff" d="M356.28,-170.67C371.7,-165.8 389.98,-160.03 405.96,-154.98"/>
<polygon fill="#63b8ff" stroke="#63b8ff" points="406.66,-158.43 415.14,-152.08 404.55,-151.76 406.66,-158.43"/>
</a>
</g>
</g>
<!-- Node20 -->
<g id="Node000020" class="node">
<title>Node20</title>
<g id="a_Node000020"><a xlink:href="../../dc/d40/dwin_8c.html#acf4c709bccc4c965a5d61db978db31a3" target="_top" xlink:title="Wrapper for wgetch that handles signals and mouse events.">
<polygon fill="white" stroke="#666666" points="475,-191.91 417.75,-191.91 417.75,-171.16 475,-171.16 475,-191.91"/>
<text xml:space="preserve" text-anchor="middle" x="446.38" y="-178.41" font-family="Helvetica,sans-Serif" font-size="10.00">xwgetch</text>
</a>
</g>
</g>
<!-- Node4&#45;&gt;Node20 -->
<g id="edge24_Node000004_Node000020" class="edge">
<title>Node4&#45;&gt;Node20</title>
<g id="a_edge24_Node000004_Node000020"><a xlink:title=" ">
<path fill="none" stroke="#63b8ff" d="M360.95,-175.21C375.45,-174.64 391.88,-174.65 406.37,-175.21"/>
<polygon fill="#63b8ff" stroke="#63b8ff" points="405.83,-178.69 415.99,-175.71 406.19,-171.7 405.83,-178.69"/>
</a>
</g>
</g>
<!-- Node6 -->
<g id="Node000006" class="node">
<title>Node6</title>
<g id="a_Node000006"><a xlink:href="../../dc/d40/dwin_8c.html#afc0985a403e3eac0b2cd8f0fab500256" target="_top" xlink:title="Gracefully shut down NCurses and restore terminal settings.">
<polygon fill="white" stroke="#666666" points="747,-401.91 657.5,-401.91 657.5,-381.16 747,-381.16 747,-401.91"/>
<text xml:space="preserve" text-anchor="middle" x="702.25" y="-388.41" font-family="Helvetica,sans-Serif" font-size="10.00">destroy_curses</text>
</a>
</g>
</g>
<!-- Node5&#45;&gt;Node6 -->
<g id="edge5_Node000005_Node000006" class="edge">
<title>Node5&#45;&gt;Node6</title>
<g id="a_edge5_Node000005_Node000006"><a xlink:title=" ">
<path fill="none" stroke="#63b8ff" d="M598.6,-407.14C611.78,-405.14 629.09,-402.51 645.73,-399.98"/>
<polygon fill="#63b8ff" stroke="#63b8ff" points="646.23,-403.44 655.59,-398.48 645.18,-396.52 646.23,-403.44"/>
</a>
</g>
</g>
<!-- Node7 -->
<g id="Node000007" class="node">
<title>Node7</title>
<g id="a_Node000007"><a xlink:href="../../d7/d72/scriou_8c.html#ac5e3adb304b78910fc77761ef6a743f0" target="_top" xlink:title="restore_shell_tioctl() &#45; restore shell terminal settings">
<polygon fill="white" stroke="#666666" points="892,-402.91 783,-402.91 783,-382.16 892,-382.16 892,-402.91"/>
<text xml:space="preserve" text-anchor="middle" x="837.5" y="-389.41" font-family="Helvetica,sans-Serif" font-size="10.00">restore_shell_tioctl</text>
</a>
</g>
</g>
<!-- Node5&#45;&gt;Node7 -->
<g id="edge8_Node000005_Node000007" class="edge">
<title>Node5&#45;&gt;Node7</title>
<g id="a_edge8_Node000005_Node000007"><a xlink:title=" ">
<path fill="none" stroke="#63b8ff" d="M598.7,-411.95C631.41,-413.69 694.05,-415.81 747,-410.54 757.89,-409.45 769.41,-407.64 780.43,-405.58"/>
<polygon fill="#63b8ff" stroke="#63b8ff" points="781.07,-409.02 790.21,-403.65 779.72,-402.16 781.07,-409.02"/>
</a>
</g>
</g>
<!-- Node8 -->
<g id="Node000008" class="node">
<title>Node8</title>
<g id="a_Node000008"><a xlink:href="../../da/d12/sig_8c.html#a06c1eb6cf3649dc187115565409f91af" target="_top" xlink:title="Set signal handlers to default behavior.">
<polygon fill="white" stroke="#666666" points="878.12,-363.91 796.88,-363.91 796.88,-343.16 878.12,-343.16 878.12,-363.91"/>
<text xml:space="preserve" text-anchor="middle" x="837.5" y="-350.41" font-family="Helvetica,sans-Serif" font-size="10.00">sig_dfl_mode</text>
</a>
</g>
</g>
<!-- Node5&#45;&gt;Node8 -->
<g id="edge9_Node000005_Node000008" class="edge">
<title>Node5&#45;&gt;Node8</title>
<g id="a_edge9_Node000005_Node000008"><a xlink:title=" ">
<path fill="none" stroke="#63b8ff" d="M597.27,-399.73C617.12,-389.71 645.57,-375.86 657.5,-372.54 699.61,-360.81 749.13,-356.23 785.4,-354.48"/>
<polygon fill="#63b8ff" stroke="#63b8ff" points="785.33,-357.99 795.18,-354.07 785.04,-350.99 785.33,-357.99"/>
</a>
</g>
</g>
<!-- Node6&#45;&gt;Node7 -->
<g id="edge6_Node000006_Node000007" class="edge">
<title>Node6&#45;&gt;Node7</title>
<g id="a_edge6_Node000006_Node000007"><a xlink:title=" ">
<path fill="none" stroke="#63b8ff" d="M747.25,-391.87C754.98,-391.92 763.17,-391.99 771.33,-392.05"/>
<polygon fill="#63b8ff" stroke="#63b8ff" points="771.26,-395.55 781.28,-392.12 771.31,-388.55 771.26,-395.55"/>
</a>
</g>
</g>
<!-- Node6&#45;&gt;Node8 -->
<g id="edge7_Node000006_Node000008" class="edge">
<title>Node6&#45;&gt;Node8</title>
<g id="a_edge7_Node000006_Node000008"><a xlink:title=" ">
<path fill="none" stroke="#63b8ff" d="M741.08,-380.75C755.57,-376.62 772.3,-371.84 787.68,-367.46"/>
<polygon fill="#63b8ff" stroke="#63b8ff" points="788.47,-370.87 797.12,-364.77 786.55,-364.14 788.47,-370.87"/>
</a>
</g>
</g>
<!-- Node10 -->
<g id="Node000010" class="node">
<title>Node10</title>
<g id="a_Node000010"><a xlink:href="../../d0/d59/futil_8c.html#aa0145c044cfdde3a1c83323410a59f25" target="_top" xlink:title="safer alternative to strncat">
<polygon fill="white" stroke="#666666" points="608,-37.91 542.5,-37.91 542.5,-17.16 608,-17.16 608,-37.91"/>
<text xml:space="preserve" text-anchor="middle" x="575.25" y="-24.41" font-family="Helvetica,sans-Serif" font-size="10.00">strnz__cat</text>
</a>
</g>
</g>
<!-- Node9&#45;&gt;Node10 -->
<g id="edge11_Node000009_Node000010" class="edge">
<title>Node9&#45;&gt;Node10</title>
<g id="a_edge11_Node000009_Node000010"><a xlink:title=" ">
<path fill="none" stroke="#63b8ff" d="M476.23,-92.84C482,-90.17 487.86,-87.05 493,-83.54 511.68,-70.77 510.33,-60.33 529,-47.54 531.07,-46.12 533.26,-44.76 535.51,-43.47"/>
<polygon fill="#63b8ff" stroke="#63b8ff" points="537,-46.64 544.28,-38.96 533.79,-40.42 537,-46.64"/>
</a>
</g>
</g>
<!-- Node12&#45;&gt;Node5 -->
<g id="edge14_Node000012_Node000005" class="edge">
<title>Node12&#45;&gt;Node5</title>
<g id="a_edge14_Node000012_Node000005"><a xlink:title=" ">
<path fill="none" stroke="#63b8ff" d="M477.41,-306.38C482.84,-308.98 488.28,-312.03 493,-315.54 521.46,-336.65 546.67,-369.48 561.2,-390.49"/>
<polygon fill="#63b8ff" stroke="#63b8ff" points="558.1,-392.16 566.59,-398.49 563.91,-388.24 558.1,-392.16"/>
</a>
</g>
</g>
<!-- Node13&#45;&gt;Node14 -->
<g id="edge16_Node000013_Node000014" class="edge">
<title>Node13&#45;&gt;Node14</title>
<g id="a_edge16_Node000013_Node000014"><a xlink:title=" ">
<path fill="none" stroke="#63b8ff" d="M621.38,-250.68C634.44,-248.69 648.61,-246.54 661.33,-244.6"/>
<polygon fill="#63b8ff" stroke="#63b8ff" points="661.68,-248.09 671.04,-243.13 660.62,-241.17 661.68,-248.09"/>
</a>
</g>
</g>
<!-- Node18&#45;&gt;Node16 -->
<g id="edge23_Node000018_Node000016" class="edge">
<title>Node18&#45;&gt;Node16</title>
<g id="a_edge23_Node000018_Node000016"><a xlink:title=" ">
<path fill="none" stroke="#63b8ff" d="M475.92,-135.02C491.51,-131.13 511.22,-126.58 529,-123.54 572.16,-116.16 621.92,-111.03 656.83,-107.98"/>
<polygon fill="#63b8ff" stroke="#63b8ff" points="656.89,-111.48 666.56,-107.15 656.3,-104.51 656.89,-111.48"/>
</a>
</g>
</g>
<!-- Node19 -->
<g id="Node000019" class="node">
<title>Node19</title>
<g id="a_Node000019"><a xlink:href="../../dc/d40/dwin_8c.html#ac9adcf7339be4a05ab1a7350c236b8a5" target="_top" xlink:title="Draw a box around the specified window.">
<polygon fill="white" stroke="#666666" points="594.88,-76.91 555.62,-76.91 555.62,-56.16 594.88,-56.16 594.88,-76.91"/>
<text xml:space="preserve" text-anchor="middle" x="575.25" y="-63.41" font-family="Helvetica,sans-Serif" font-size="10.00">cbox</text>
</a>
</g>
</g>
<!-- Node18&#45;&gt;Node19 -->
<g id="edge22_Node000018_Node000019" class="edge">
<title>Node18&#45;&gt;Node19</title>
<g id="a_edge22_Node000018_Node000019"><a xlink:title=" ">
<path fill="none" stroke="#63b8ff" d="M475.6,-131.82C481.53,-129.12 487.61,-125.99 493,-122.54 511.02,-110.99 511.42,-102.75 529,-90.54 534.11,-86.99 539.81,-83.58 545.4,-80.51"/>
<polygon fill="#63b8ff" stroke="#63b8ff" points="546.6,-83.83 553.83,-76.08 543.35,-77.63 546.6,-83.83"/>
</a>
</g>
</g>
<!-- Node20&#45;&gt;Node4 -->
<g id="edge25_Node000020_Node000004" class="edge">
<title>Node20&#45;&gt;Node4</title>
<g id="a_edge25_Node000020_Node000004"><a xlink:title=" ">
<path fill="none" stroke="#63b8ff" d="M417.51,-187.29C404.07,-188.17 387.53,-188.47 372.01,-188.18"/>
<polygon fill="#63b8ff" stroke="#63b8ff" points="372.56,-184.69 362.46,-187.91 372.36,-191.69 372.56,-184.69"/>
</a>
</g>
</g>
<!-- Node21 -->
<g id="Node000021" class="node">
<title>Node21</title>
<g id="a_Node000021"><a xlink:href="../../dc/d40/dwin_8c.html#a4298f891699300bfc4e6e56fd2a8d574" target="_top" xlink:title="Get keycode from chyron.">
<polygon fill="white" stroke="#666666" points="621.5,-191.91 529,-191.91 529,-171.16 621.5,-171.16 621.5,-191.91"/>
<text xml:space="preserve" text-anchor="middle" x="575.25" y="-178.41" font-family="Helvetica,sans-Serif" font-size="10.00">get_chyron_key</text>
</a>
</g>
</g>
<!-- Node20&#45;&gt;Node21 -->
<g id="edge26_Node000020_Node000021" class="edge">
<title>Node20&#45;&gt;Node21</title>
<g id="a_edge26_Node000020_Node000021"><a xlink:title=" ">
<path fill="none" stroke="#63b8ff" d="M475.22,-181.54C487.54,-181.54 502.5,-181.54 517.03,-181.54"/>
<polygon fill="#63b8ff" stroke="#63b8ff" points="517.01,-185.04 527.01,-181.54 517.01,-178.04 517.01,-185.04"/>
</a>
</g>
</g>
<!-- Node22 -->
<g id="Node000022" class="node">
<title>Node22</title>
<g id="a_Node000022"><a xlink:href="../../da/d12/sig_8c.html#a79c3e22498eb2346543aa9c86fd22e58" target="_top" xlink:title="Handle received signals and prompt user for action.">
<polygon fill="white" stroke="#666666" points="617,-152.91 533.5,-152.91 533.5,-132.16 617,-132.16 617,-152.91"/>
<text xml:space="preserve" text-anchor="middle" x="575.25" y="-139.41" font-family="Helvetica,sans-Serif" font-size="10.00">handle_signal</text>
</a>
</g>
</g>
<!-- Node20&#45;&gt;Node22 -->
<g id="edge27_Node000020_Node000022" class="edge">
<title>Node20&#45;&gt;Node22</title>
<g id="a_edge27_Node000020_Node000022"><a xlink:title=" ">
<path fill="none" stroke="#63b8ff" d="M475.22,-172.98C490.8,-168.19 510.63,-162.09 528.44,-156.62"/>
<polygon fill="#63b8ff" stroke="#63b8ff" points="529.23,-160.04 537.76,-153.75 527.18,-153.35 529.23,-160.04"/>
</a>
</g>
</g>
<!-- Node22&#45;&gt;Node7 -->
<g id="edge28_Node000022_Node000007" class="edge">
<title>Node22&#45;&gt;Node7</title>
<g id="a_edge28_Node000022_Node000007"><a xlink:title=" ">
<path fill="none" stroke="#63b8ff" d="M617.45,-150.21C656.62,-159.68 714.28,-179.71 747,-219.54 791.35,-273.51 736.83,-320.11 783,-372.54 783.82,-373.47 784.69,-374.35 785.59,-375.2"/>
<polygon fill="#63b8ff" stroke="#63b8ff" points="783.3,-377.86 793.46,-380.87 787.4,-372.18 783.3,-377.86"/>
</a>
</g>
</g>
<!-- Node22&#45;&gt;Node14 -->
<g id="edge29_Node000022_Node000014" class="edge">
<title>Node22&#45;&gt;Node14</title>
<g id="a_edge29_Node000022_Node000014"><a xlink:title=" ">
<path fill="none" stroke="#63b8ff" d="M604.8,-153.36C610.53,-156.02 616.36,-159.1 621.5,-162.54 628.25,-167.04 661.07,-198.94 682.45,-219.96"/>
<polygon fill="#63b8ff" stroke="#63b8ff" points="679.87,-222.34 689.45,-226.86 684.79,-217.35 679.87,-222.34"/>
</a>
</g>
</g>
<!-- Node22&#45;&gt;Node16 -->
<g id="edge30_Node000022_Node000016" class="edge">
<title>Node22&#45;&gt;Node16</title>
<g id="a_edge30_Node000022_Node000016"><a xlink:title=" ">
<path fill="none" stroke="#63b8ff" d="M611.74,-131.75C626.02,-127.41 642.64,-122.35 657.66,-117.79"/>
<polygon fill="#63b8ff" stroke="#63b8ff" points="658.25,-121.27 666.8,-115.01 656.22,-114.57 658.25,-121.27"/>
</a>
</g>
</g>
<!-- Node24 -->
<g id="Node000024" class="node">
<title>Node24</title>
<g id="a_Node000024"><a xlink:href="../../dc/d40/dwin_8c.html#aa3a6b291c0820d9da545325a2dba5274" target="_top" xlink:title="Apply gamma correction to RGB color.">
<polygon fill="white" stroke="#666666" points="363.75,-152.91 278,-152.91 278,-132.16 363.75,-132.16 363.75,-152.91"/>
<text xml:space="preserve" text-anchor="middle" x="320.88" y="-139.41" font-family="Helvetica,sans-Serif" font-size="10.00">apply_gamma</text>
</a>
</g>
</g>
<!-- Node23&#45;&gt;Node24 -->
<g id="edge33_Node000023_Node000024" class="edge">
<title>Node23&#45;&gt;Node24</title>
<g id="a_edge33_Node000023_Node000024"><a xlink:title=" ">
<path fill="none" stroke="#63b8ff" d="M232.96,-142.54C243.83,-142.54 255.39,-142.54 266.4,-142.54"/>
<polygon fill="#63b8ff" stroke="#63b8ff" points="266.11,-146.04 276.11,-142.54 266.11,-139.04 266.11,-146.04"/>
</a>
</g>
</g>
</g>
</svg>
