<?xml version="1.0" encoding="UTF-8" standalone="no"?>
<!DOCTYPE svg PUBLIC "-//W3C//DTD SVG 1.1//EN"
 "http://www.w3.org/Graphics/SVG/1.1/DTD/svg11.dtd">
<!-- Generated by graphviz version 14.1.2 (0)
 -->
<!-- Title: display_line Pages: 1 -->
<svg width="889pt" height="540pt"
 viewBox="0.00 0.00 889.00 540.00" xmlns="http://www.w3.org/2000/svg" xmlns:xlink="http://www.w3.org/1999/xlink">
<g id="graph0" class="graph" transform="scale(1 1) rotate(0) translate(4 535.63)">
<title>display_line</title>
<!-- Node1 -->
<g id="Node000001" class="node">
<title>Node1</title>
<g id="a_Node000001"><a xlink:title="Display Line on Pad.">
<polygon fill="#999999" stroke="#666666" points="74.5,-354.11 0,-354.11 0,-333.36 74.5,-333.36 74.5,-354.11"/>
<text xml:space="preserve" text-anchor="middle" x="37.25" y="-340.61" font-family="Helvetica,sans-Serif" font-size="10.00">display_line</text>
</a>
</g>
</g>
<!-- Node2 -->
<g id="Node000002" class="node">
<title>Node2</title>
<g id="a_Node000002"><a xlink:href="../../dc/d40/dwin_8c.html#a61b4f28456257f68ed042bed7f187efd" target="_top" xlink:title="Display a simple error message window or print to stderr.">
<polygon fill="white" stroke="#666666" points="155.75,-354.11 110.5,-354.11 110.5,-333.36 155.75,-333.36 155.75,-354.11"/>
<text xml:space="preserve" text-anchor="middle" x="133.12" y="-340.61" font-family="Helvetica,sans-Serif" font-size="10.00">Perror</text>
</a>
</g>
</g>
<!-- Node1&#45;&gt;Node2 -->
<g id="edge1_Node000001_Node000002" class="edge">
<title>Node1&#45;&gt;Node2</title>
<g id="a_edge1_Node000001_Node000002"><a xlink:title=" ">
<path fill="none" stroke="#63b8ff" d="M74.81,-343.73C82.74,-343.73 91.09,-343.73 98.89,-343.73"/>
<polygon fill="#63b8ff" stroke="#63b8ff" points="98.65,-347.23 108.65,-343.73 98.65,-340.23 98.65,-347.23"/>
</a>
</g>
</g>
<!-- Node3 -->
<g id="Node000003" class="node">
<title>Node3</title>
<g id="a_Node000003"><a xlink:href="../../dc/d40/dwin_8c.html#a8f6c45ca4a7f6a41c4c88314e697565a" target="_top" xlink:title="Abnormal program termination.">
<polygon fill="white" stroke="#666666" points="599.62,-392.11 553.62,-392.11 553.62,-371.36 599.62,-371.36 599.62,-392.11"/>
<text xml:space="preserve" text-anchor="middle" x="576.62" y="-378.61" font-family="Helvetica,sans-Serif" font-size="10.00">abend</text>
</a>
</g>
</g>
<!-- Node2&#45;&gt;Node3 -->
<g id="edge2_Node000002_Node000003" class="edge">
<title>Node2&#45;&gt;Node3</title>
<g id="a_edge2_Node000002_Node000003"><a xlink:title=" ">
<path fill="none" stroke="#63b8ff" d="M141.04,-354.25C150.75,-368.22 169.73,-392.75 191.75,-406.73 277.21,-461 312.67,-449.78 413.5,-458.73 454.78,-462.4 468.92,-475.65 506.75,-458.73 532.46,-447.23 552.55,-420.87 564.23,-402.2"/>
<polygon fill="#63b8ff" stroke="#63b8ff" points="567.12,-404.2 569.21,-393.82 561.1,-400.63 567.12,-404.2"/>
</a>
</g>
</g>
<!-- Node7 -->
<g id="Node000007" class="node">
<title>Node7</title>
<g id="a_Node000007"><a xlink:href="../../dc/d40/dwin_8c.html#a645871e46277e31736bc36d0f3dce4bd" target="_top" xlink:title="construct the chyron string from the chyron structure">
<polygon fill="white" stroke="#666666" points="506.75,-526.11 413.5,-526.11 413.5,-505.36 506.75,-505.36 506.75,-526.11"/>
<text xml:space="preserve" text-anchor="middle" x="460.12" y="-512.61" font-family="Helvetica,sans-Serif" font-size="10.00">compile_chyron</text>
</a>
</g>
</g>
<!-- Node2&#45;&gt;Node7 -->
<g id="edge8_Node000002_Node000007" class="edge">
<title>Node2&#45;&gt;Node7</title>
<g id="a_edge8_Node000002_Node000007"><a xlink:title=" ">
<path fill="none" stroke="#63b8ff" d="M134.66,-354.56C136.7,-382.57 146.34,-457.61 191.75,-491.73 252.09,-537.08 343.09,-534.66 401.81,-526.76"/>
<polygon fill="#63b8ff" stroke="#63b8ff" points="402.22,-530.24 411.61,-525.33 401.21,-523.31 402.22,-530.24"/>
</a>
</g>
</g>
<!-- Node9 -->
<g id="Node000009" class="node">
<title>Node9</title>
<g id="a_Node000009"><a xlink:href="../../dc/d40/dwin_8c.html#a3f3feb40fd703913c5c136331f627c91" target="_top" xlink:title="Destroy Chyron structure.">
<polygon fill="white" stroke="#666666" points="505.62,-411.11 414.62,-411.11 414.62,-390.36 505.62,-390.36 505.62,-411.11"/>
<text xml:space="preserve" text-anchor="middle" x="460.12" y="-397.61" font-family="Helvetica,sans-Serif" font-size="10.00">destroy_chyron</text>
</a>
</g>
</g>
<!-- Node2&#45;&gt;Node9 -->
<g id="edge10_Node000002_Node000009" class="edge">
<title>Node2&#45;&gt;Node9</title>
<g id="a_edge10_Node000002_Node000009"><a xlink:title=" ">
<path fill="none" stroke="#63b8ff" d="M156.03,-351.97C166.68,-355.72 179.75,-359.93 191.75,-362.73 263.78,-379.59 348.58,-390.1 403.06,-395.69"/>
<polygon fill="#63b8ff" stroke="#63b8ff" points="402.4,-399.14 412.7,-396.65 403.1,-392.17 402.4,-399.14"/>
</a>
</g>
</g>
<!-- Node10 -->
<g id="Node000010" class="node">
<title>Node10</title>
<g id="a_Node000010"><a xlink:href="../../dc/d40/dwin_8c.html#ad37d5808ff30ae6894780425d865abae" target="_top" xlink:title="Create and initialize Chyron structure.">
<polygon fill="white" stroke="#666666" points="497.38,-450.11 422.88,-450.11 422.88,-429.36 497.38,-429.36 497.38,-450.11"/>
<text xml:space="preserve" text-anchor="middle" x="460.12" y="-436.61" font-family="Helvetica,sans-Serif" font-size="10.00">new_chyron</text>
</a>
</g>
</g>
<!-- Node2&#45;&gt;Node10 -->
<g id="edge11_Node000002_Node000010" class="edge">
<title>Node2&#45;&gt;Node10</title>
<g id="a_edge11_Node000002_Node000010"><a xlink:title=" ">
<path fill="none" stroke="#63b8ff" d="M147.01,-354.61C158.16,-363.47 175.08,-375.64 191.75,-382.73 264.93,-413.89 356.88,-428.68 411.66,-435.18"/>
<polygon fill="#63b8ff" stroke="#63b8ff" points="410.93,-438.62 421.26,-436.28 411.72,-431.67 410.93,-438.62"/>
</a>
</g>
</g>
<!-- Node11 -->
<g id="Node000011" class="node">
<title>Node11</title>
<g id="a_Node000011"><a xlink:href="../../dc/d40/dwin_8c.html#a208ce92c197fdd6d2b007987e534aa3b" target="_top" xlink:title="Set chyron key.">
<polygon fill="white" stroke="#666666" points="506,-220.11 414.25,-220.11 414.25,-199.36 506,-199.36 506,-220.11"/>
<text xml:space="preserve" text-anchor="middle" x="460.12" y="-206.61" font-family="Helvetica,sans-Serif" font-size="10.00">set_chyron_key</text>
</a>
</g>
</g>
<!-- Node2&#45;&gt;Node11 -->
<g id="edge13_Node000002_Node000011" class="edge">
<title>Node2&#45;&gt;Node11</title>
<g id="a_edge13_Node000002_Node000011"><a xlink:title=" ">
<path fill="none" stroke="#63b8ff" d="M148.82,-332.94C160.19,-324.86 176.52,-313.85 191.75,-305.73 262.61,-267.98 351.46,-239.42 406.78,-223.63"/>
<polygon fill="#63b8ff" stroke="#63b8ff" points="407.58,-227.04 416.26,-220.96 405.68,-220.3 407.58,-227.04"/>
</a>
</g>
</g>
<!-- Node12 -->
<g id="Node000012" class="node">
<title>Node12</title>
<g id="a_Node000012"><a xlink:href="../../d0/d59/futil_8c.html#a63eb94756fb011a456a3dec900709cd8" target="_top" xlink:title="ssnprintf was designed to be a safer alternative to snprintf.">
<polygon fill="white" stroke="#666666" points="606,-210.11 547.25,-210.11 547.25,-189.36 606,-189.36 606,-210.11"/>
<text xml:space="preserve" text-anchor="middle" x="576.62" y="-196.61" font-family="Helvetica,sans-Serif" font-size="10.00">ssnprintf</text>
</a>
</g>
</g>
<!-- Node2&#45;&gt;Node12 -->
<g id="edge15_Node000002_Node000012" class="edge">
<title>Node2&#45;&gt;Node12</title>
<g id="a_edge15_Node000002_Node000012"><a xlink:title=" ">
<path fill="none" stroke="#63b8ff" d="M141.22,-332.9C151.14,-318.41 170.36,-292.59 191.75,-275.73 274.66,-210.41 309.04,-205.86 413.5,-190.73 454.93,-184.74 502.84,-188.72 535.78,-193.13"/>
<polygon fill="#63b8ff" stroke="#63b8ff" points="534.88,-196.54 545.27,-194.48 535.87,-189.61 534.88,-196.54"/>
</a>
</g>
</g>
<!-- Node13 -->
<g id="Node000013" class="node">
<title>Node13</title>
<g id="a_Node000013"><a xlink:href="../../d0/d59/futil_8c.html#a0de2e40df9bd7efc8fd9afb8ad2257e6" target="_top" xlink:title="safer alternative to strncpy">
<polygon fill="white" stroke="#666666" points="610.5,-97.11 542.75,-97.11 542.75,-76.36 610.5,-76.36 610.5,-97.11"/>
<text xml:space="preserve" text-anchor="middle" x="576.62" y="-83.61" font-family="Helvetica,sans-Serif" font-size="10.00">strnz__cpy</text>
</a>
</g>
</g>
<!-- Node2&#45;&gt;Node13 -->
<g id="edge16_Node000002_Node000013" class="edge">
<title>Node2&#45;&gt;Node13</title>
<g id="a_edge16_Node000002_Node000013"><a xlink:title=" ">
<path fill="none" stroke="#63b8ff" d="M137.74,-332.93C145.21,-311.82 163.98,-264.41 191.75,-232.73 271.02,-142.32 298.81,-113.85 413.5,-77.73 451.98,-65.62 498.11,-69.86 531.31,-75.96"/>
<polygon fill="#63b8ff" stroke="#63b8ff" points="530.5,-79.37 540.99,-77.88 531.86,-72.5 530.5,-79.37"/>
</a>
</g>
</g>
<!-- Node14 -->
<g id="Node000014" class="node">
<title>Node14</title>
<g id="a_Node000014"><a xlink:href="../../dc/d40/dwin_8c.html#a9dd598e1d49c8764af1eec42c682623e" target="_top" xlink:title="Delete the current window and its associated box window.">
<polygon fill="white" stroke="#666666" points="486.88,-372.11 433.38,-372.11 433.38,-351.36 486.88,-351.36 486.88,-372.11"/>
<text xml:space="preserve" text-anchor="middle" x="460.12" y="-358.61" font-family="Helvetica,sans-Serif" font-size="10.00">win_del</text>
</a>
</g>
</g>
<!-- Node2&#45;&gt;Node14 -->
<g id="edge17_Node000002_Node000014" class="edge">
<title>Node2&#45;&gt;Node14</title>
<g id="a_edge17_Node000002_Node000014"><a xlink:title=" ">
<path fill="none" stroke="#63b8ff" d="M156.21,-344.96C210.93,-347.99 353.29,-355.87 421.55,-359.65"/>
<polygon fill="#63b8ff" stroke="#63b8ff" points="421.32,-363.15 431.5,-360.2 421.71,-356.16 421.32,-363.15"/>
</a>
</g>
</g>
<!-- Node15 -->
<g id="Node000015" class="node">
<title>Node15</title>
<g id="a_Node000015"><a xlink:href="../../dc/d40/dwin_8c.html#a435c7bff7ffedb8f51c6de9259e36f6c" target="_top" xlink:title="Create a new window with optional box and title.">
<polygon fill="white" stroke="#666666" points="489.5,-30.11 430.75,-30.11 430.75,-9.36 489.5,-9.36 489.5,-30.11"/>
<text xml:space="preserve" text-anchor="middle" x="460.12" y="-16.61" font-family="Helvetica,sans-Serif" font-size="10.00">win_new</text>
</a>
</g>
</g>
<!-- Node2&#45;&gt;Node15 -->
<g id="edge18_Node000002_Node000015" class="edge">
<title>Node2&#45;&gt;Node15</title>
<g id="a_edge18_Node000002_Node000015"><a xlink:title=" ">
<path fill="none" stroke="#63b8ff" d="M134.52,-333.04C136.57,-284.28 147.6,-83.67 191.75,-43.73 254.16,12.71 361.54,1.47 419.41,-10.05"/>
<polygon fill="#63b8ff" stroke="#63b8ff" points="418.65,-13.47 429.16,-12.1 420.09,-6.62 418.65,-13.47"/>
</a>
</g>
</g>
<!-- Node17 -->
<g id="Node000017" class="node">
<title>Node17</title>
<g id="a_Node000017"><a xlink:href="../../dc/d40/dwin_8c.html#acf4c709bccc4c965a5d61db978db31a3" target="_top" xlink:title="Wrapper for wgetch that handles signals and mouse events.">
<polygon fill="white" stroke="#666666" points="249,-335.11 191.75,-335.11 191.75,-314.36 249,-314.36 249,-335.11"/>
<text xml:space="preserve" text-anchor="middle" x="220.38" y="-321.61" font-family="Helvetica,sans-Serif" font-size="10.00">xwgetch</text>
</a>
</g>
</g>
<!-- Node2&#45;&gt;Node17 -->
<g id="edge21_Node000002_Node000017" class="edge">
<title>Node2&#45;&gt;Node17</title>
<g id="a_edge21_Node000002_Node000017"><a xlink:title=" ">
<path fill="none" stroke="#63b8ff" d="M156.08,-338.84C163.47,-337.19 171.96,-335.3 180.27,-333.45"/>
<polygon fill="#63b8ff" stroke="#63b8ff" points="180.89,-336.9 189.89,-331.3 179.37,-330.06 180.89,-336.9"/>
</a>
</g>
</g>
<!-- Node4 -->
<g id="Node000004" class="node">
<title>Node4</title>
<g id="a_Node000004"><a xlink:href="../../dc/d40/dwin_8c.html#afc0985a403e3eac0b2cd8f0fab500256" target="_top" xlink:title="Gracefully shut down NCurses and restore terminal settings.">
<polygon fill="white" stroke="#666666" points="736,-373.11 646.5,-373.11 646.5,-352.36 736,-352.36 736,-373.11"/>
<text xml:space="preserve" text-anchor="middle" x="691.25" y="-359.61" font-family="Helvetica,sans-Serif" font-size="10.00">destroy_curses</text>
</a>
</g>
</g>
<!-- Node3&#45;&gt;Node4 -->
<g id="edge3_Node000003_Node000004" class="edge">
<title>Node3&#45;&gt;Node4</title>
<g id="a_edge3_Node000003_Node000004"><a xlink:title=" ">
<path fill="none" stroke="#63b8ff" d="M599.88,-377.98C609.99,-376.27 622.44,-374.17 634.84,-372.08"/>
<polygon fill="#63b8ff" stroke="#63b8ff" points="635.37,-375.54 644.65,-370.43 634.21,-368.64 635.37,-375.54"/>
</a>
</g>
</g>
<!-- Node5 -->
<g id="Node000005" class="node">
<title>Node5</title>
<g id="a_Node000005"><a xlink:href="../../d7/d72/scriou_8c.html#ac5e3adb304b78910fc77761ef6a743f0" target="_top" xlink:title="restore_shell_tioctl() &#45; restore shell terminal settings">
<polygon fill="white" stroke="#666666" points="881,-335.11 772,-335.11 772,-314.36 881,-314.36 881,-335.11"/>
<text xml:space="preserve" text-anchor="middle" x="826.5" y="-321.61" font-family="Helvetica,sans-Serif" font-size="10.00">restore_shell_tioctl</text>
</a>
</g>
</g>
<!-- Node3&#45;&gt;Node5 -->
<g id="edge6_Node000003_Node000005" class="edge">
<title>Node3&#45;&gt;Node5</title>
<g id="a_edge6_Node000003_Node000005"><a xlink:title=" ">
<path fill="none" stroke="#63b8ff" d="M592.95,-370.92C606.4,-362.03 626.83,-349.93 646.5,-343.73 683.06,-332.23 725.67,-327.38 760.14,-325.46"/>
<polygon fill="#63b8ff" stroke="#63b8ff" points="760.17,-328.96 769.99,-324.99 759.83,-321.97 760.17,-328.96"/>
</a>
</g>
</g>
<!-- Node6 -->
<g id="Node000006" class="node">
<title>Node6</title>
<g id="a_Node000006"><a xlink:href="../../da/d12/sig_8c.html#a06c1eb6cf3649dc187115565409f91af" target="_top" xlink:title="Set signal handlers to default behavior.">
<polygon fill="white" stroke="#666666" points="867.12,-392.11 785.88,-392.11 785.88,-371.36 867.12,-371.36 867.12,-392.11"/>
<text xml:space="preserve" text-anchor="middle" x="826.5" y="-378.61" font-family="Helvetica,sans-Serif" font-size="10.00">sig_dfl_mode</text>
</a>
</g>
</g>
<!-- Node3&#45;&gt;Node6 -->
<g id="edge7_Node000003_Node000006" class="edge">
<title>Node3&#45;&gt;Node6</title>
<g id="a_edge7_Node000003_Node000006"><a xlink:title=" ">
<path fill="none" stroke="#63b8ff" d="M600.06,-381.73C639.14,-381.73 720.64,-381.73 774.19,-381.73"/>
<polygon fill="#63b8ff" stroke="#63b8ff" points="773.99,-385.23 783.99,-381.73 773.99,-378.23 773.99,-385.23"/>
</a>
</g>
</g>
<!-- Node4&#45;&gt;Node5 -->
<g id="edge4_Node000004_Node000005" class="edge">
<title>Node4&#45;&gt;Node5</title>
<g id="a_edge4_Node000004_Node000005"><a xlink:title=" ">
<path fill="none" stroke="#63b8ff" d="M730.08,-351.95C744.57,-347.81 761.3,-343.04 776.68,-338.66"/>
<polygon fill="#63b8ff" stroke="#63b8ff" points="777.47,-342.07 786.12,-335.96 775.55,-335.34 777.47,-342.07"/>
</a>
</g>
</g>
<!-- Node4&#45;&gt;Node6 -->
<g id="edge5_Node000004_Node000006" class="edge">
<title>Node4&#45;&gt;Node6</title>
<g id="a_edge5_Node000004_Node000006"><a xlink:title=" ">
<path fill="none" stroke="#63b8ff" d="M736.25,-369.01C748.44,-370.75 761.77,-372.65 774.33,-374.44"/>
<polygon fill="#63b8ff" stroke="#63b8ff" points="773.7,-377.88 784.09,-375.83 774.69,-370.95 773.7,-377.88"/>
</a>
</g>
</g>
<!-- Node8 -->
<g id="Node000008" class="node">
<title>Node8</title>
<g id="a_Node000008"><a xlink:href="../../d0/d59/futil_8c.html#aa0145c044cfdde3a1c83323410a59f25" target="_top" xlink:title="safer alternative to strncat">
<polygon fill="white" stroke="#666666" points="609.38,-526.11 543.88,-526.11 543.88,-505.36 609.38,-505.36 609.38,-526.11"/>
<text xml:space="preserve" text-anchor="middle" x="576.62" y="-512.61" font-family="Helvetica,sans-Serif" font-size="10.00">strnz__cat</text>
</a>
</g>
</g>
<!-- Node7&#45;&gt;Node8 -->
<g id="edge9_Node000007_Node000008" class="edge">
<title>Node7&#45;&gt;Node8</title>
<g id="a_edge9_Node000007_Node000008"><a xlink:title=" ">
<path fill="none" stroke="#63b8ff" d="M507.04,-515.73C515.33,-515.73 523.94,-515.73 532.16,-515.73"/>
<polygon fill="#63b8ff" stroke="#63b8ff" points="531.92,-519.23 541.92,-515.73 531.92,-512.23 531.92,-519.23"/>
</a>
</g>
</g>
<!-- Node10&#45;&gt;Node3 -->
<g id="edge12_Node000010_Node000003" class="edge">
<title>Node10&#45;&gt;Node3</title>
<g id="a_edge12_Node000010_Node000003"><a xlink:title=" ">
<path fill="none" stroke="#63b8ff" d="M486.89,-428.93C493.42,-426.05 500.39,-422.87 506.75,-419.73 520.33,-413.03 535.08,-405 547.43,-398.05"/>
<polygon fill="#63b8ff" stroke="#63b8ff" points="548.88,-401.25 555.84,-393.27 545.42,-395.17 548.88,-401.25"/>
</a>
</g>
</g>
<!-- Node11&#45;&gt;Node12 -->
<g id="edge14_Node000011_Node000012" class="edge">
<title>Node11&#45;&gt;Node12</title>
<g id="a_edge14_Node000011_Node000012"><a xlink:title=" ">
<path fill="none" stroke="#63b8ff" d="M506.38,-205.78C515.96,-204.94 526.01,-204.07 535.39,-203.25"/>
<polygon fill="#63b8ff" stroke="#63b8ff" points="535.66,-206.74 545.32,-202.38 535.05,-199.76 535.66,-206.74"/>
</a>
</g>
</g>
<!-- Node15&#45;&gt;Node13 -->
<g id="edge20_Node000015_Node000013" class="edge">
<title>Node15&#45;&gt;Node13</title>
<g id="a_edge20_Node000015_Node000013"><a xlink:title=" ">
<path fill="none" stroke="#63b8ff" d="M482.2,-30.41C489.98,-34.46 498.83,-39.19 506.75,-43.73 521.12,-51.99 536.82,-61.73 549.6,-69.85"/>
<polygon fill="#63b8ff" stroke="#63b8ff" points="547.55,-72.7 557.86,-75.14 551.32,-66.8 547.55,-72.7"/>
</a>
</g>
</g>
<!-- Node16 -->
<g id="Node000016" class="node">
<title>Node16</title>
<g id="a_Node000016"><a xlink:href="../../dc/d40/dwin_8c.html#ac9adcf7339be4a05ab1a7350c236b8a5" target="_top" xlink:title="Draw a box around the specified window.">
<polygon fill="white" stroke="#666666" points="596.25,-30.11 557,-30.11 557,-9.36 596.25,-9.36 596.25,-30.11"/>
<text xml:space="preserve" text-anchor="middle" x="576.62" y="-16.61" font-family="Helvetica,sans-Serif" font-size="10.00">cbox</text>
</a>
</g>
</g>
<!-- Node15&#45;&gt;Node16 -->
<g id="edge19_Node000015_Node000016" class="edge">
<title>Node15&#45;&gt;Node16</title>
<g id="a_edge19_Node000015_Node000016"><a xlink:title=" ">
<path fill="none" stroke="#63b8ff" d="M489.72,-19.73C506.65,-19.73 528.07,-19.73 545.29,-19.73"/>
<polygon fill="#63b8ff" stroke="#63b8ff" points="545.19,-23.23 555.19,-19.73 545.19,-16.23 545.19,-23.23"/>
</a>
</g>
</g>
<!-- Node18 -->
<g id="Node000018" class="node">
<title>Node18</title>
<g id="a_Node000018"><a xlink:href="../../dc/d40/dwin_8c.html#a67659f8a701b74f4dec0d36227a10d1c" target="_top" xlink:title="Display an error message window or print to stderr.">
<polygon fill="white" stroke="#666666" points="371.12,-335.11 291.38,-335.11 291.38,-314.36 371.12,-314.36 371.12,-335.11"/>
<text xml:space="preserve" text-anchor="middle" x="331.25" y="-321.61" font-family="Helvetica,sans-Serif" font-size="10.00">display_error</text>
</a>
</g>
</g>
<!-- Node17&#45;&gt;Node18 -->
<g id="edge22_Node000017_Node000018" class="edge">
<title>Node17&#45;&gt;Node18</title>
<g id="a_edge22_Node000017_Node000018"><a xlink:title=" ">
<path fill="none" stroke="#63b8ff" d="M249.41,-318.75C258.76,-318.16 269.48,-317.91 279.98,-318"/>
<polygon fill="#63b8ff" stroke="#63b8ff" points="279.65,-321.5 289.72,-318.2 279.79,-314.5 279.65,-321.5"/>
</a>
</g>
</g>
<!-- Node20 -->
<g id="Node000020" class="node">
<title>Node20</title>
<g id="a_Node000020"><a xlink:href="../../dc/d40/dwin_8c.html#a4298f891699300bfc4e6e56fd2a8d574" target="_top" xlink:title="Get keycode from chyron.">
<polygon fill="white" stroke="#666666" points="377.5,-296.11 285,-296.11 285,-275.36 377.5,-275.36 377.5,-296.11"/>
<text xml:space="preserve" text-anchor="middle" x="331.25" y="-282.61" font-family="Helvetica,sans-Serif" font-size="10.00">get_chyron_key</text>
</a>
</g>
</g>
<!-- Node17&#45;&gt;Node20 -->
<g id="edge34_Node000017_Node000020" class="edge">
<title>Node17&#45;&gt;Node20</title>
<g id="a_edge34_Node000017_Node000020"><a xlink:title=" ">
<path fill="none" stroke="#63b8ff" d="M249.41,-314.69C261.52,-310.35 275.93,-305.19 289.21,-300.44"/>
<polygon fill="#63b8ff" stroke="#63b8ff" points="290.36,-303.74 298.59,-297.07 288,-297.15 290.36,-303.74"/>
</a>
</g>
</g>
<!-- Node21 -->
<g id="Node000021" class="node">
<title>Node21</title>
<g id="a_Node000021"><a xlink:href="../../da/d12/sig_8c.html#a79c3e22498eb2346543aa9c86fd22e58" target="_top" xlink:title="Handle received signals and prompt user for action.">
<polygon fill="white" stroke="#666666" points="501.88,-144.11 418.38,-144.11 418.38,-123.36 501.88,-123.36 501.88,-144.11"/>
<text xml:space="preserve" text-anchor="middle" x="460.12" y="-130.61" font-family="Helvetica,sans-Serif" font-size="10.00">handle_signal</text>
</a>
</g>
</g>
<!-- Node17&#45;&gt;Node21 -->
<g id="edge35_Node000017_Node000021" class="edge">
<title>Node17&#45;&gt;Node21</title>
<g id="a_edge35_Node000017_Node000021"><a xlink:title=" ">
<path fill="none" stroke="#63b8ff" d="M232.38,-314.17C244.86,-302.3 265.95,-282.64 285,-266.73 337.09,-223.24 401.13,-175.78 435.18,-151"/>
<polygon fill="#63b8ff" stroke="#63b8ff" points="437.08,-153.95 443.12,-145.24 432.97,-148.28 437.08,-153.95"/>
</a>
</g>
</g>
<!-- Node18&#45;&gt;Node3 -->
<g id="edge23_Node000018_Node000003" class="edge">
<title>Node18&#45;&gt;Node3</title>
<g id="a_edge23_Node000018_Node000003"><a xlink:title=" ">
<path fill="none" stroke="#63b8ff" d="M371.3,-324.22C407.29,-324.81 461.78,-328.38 506.75,-342.73 522.55,-347.78 538.77,-356.74 551.49,-364.8"/>
<polygon fill="#63b8ff" stroke="#63b8ff" points="549.33,-367.57 559.61,-370.15 553.19,-361.72 549.33,-367.57"/>
</a>
</g>
</g>
<!-- Node18&#45;&gt;Node7 -->
<g id="edge24_Node000018_Node000007" class="edge">
<title>Node18&#45;&gt;Node7</title>
<g id="a_edge24_Node000018_Node000007"><a xlink:title=" ">
<path fill="none" stroke="#63b8ff" d="M338.12,-335.45C350.91,-358.57 382.64,-414.58 413.5,-458.73 422.6,-471.75 433.72,-485.68 442.71,-496.51"/>
<polygon fill="#63b8ff" stroke="#63b8ff" points="439.86,-498.57 448.97,-503.97 445.22,-494.06 439.86,-498.57"/>
</a>
</g>
</g>
<!-- Node18&#45;&gt;Node9 -->
<g id="edge25_Node000018_Node000009" class="edge">
<title>Node18&#45;&gt;Node9</title>
<g id="a_edge25_Node000018_Node000009"><a xlink:title=" ">
<path fill="none" stroke="#63b8ff" d="M346.1,-335.5C361.87,-347.46 388.66,-366.89 413.5,-380.73 416.17,-382.22 418.97,-383.68 421.82,-385.09"/>
<polygon fill="#63b8ff" stroke="#63b8ff" points="420.26,-388.22 430.8,-389.29 423.23,-381.88 420.26,-388.22"/>
</a>
</g>
</g>
<!-- Node18&#45;&gt;Node10 -->
<g id="edge26_Node000018_Node000010" class="edge">
<title>Node18&#45;&gt;Node10</title>
<g id="a_edge26_Node000018_Node000010"><a xlink:title=" ">
<path fill="none" stroke="#63b8ff" d="M339.06,-335.52C351.67,-354.74 380.38,-395.17 413.5,-419.73 415.27,-421.05 417.14,-422.3 419.08,-423.49"/>
<polygon fill="#63b8ff" stroke="#63b8ff" points="417.29,-426.5 427.76,-428.17 420.62,-420.34 417.29,-426.5"/>
</a>
</g>
</g>
<!-- Node18&#45;&gt;Node11 -->
<g id="edge27_Node000018_Node000011" class="edge">
<title>Node18&#45;&gt;Node11</title>
<g id="a_edge27_Node000018_Node000011"><a xlink:title=" ">
<path fill="none" stroke="#63b8ff" d="M364.17,-314C368.99,-311.46 373.64,-308.4 377.5,-304.73 403.17,-280.39 388.67,-258.94 413.5,-233.73 416.22,-230.97 419.33,-228.46 422.61,-226.19"/>
<polygon fill="#63b8ff" stroke="#63b8ff" points="424.11,-229.37 430.86,-221.21 420.49,-223.38 424.11,-229.37"/>
</a>
</g>
</g>
<!-- Node18&#45;&gt;Node12 -->
<g id="edge28_Node000018_Node000012" class="edge">
<title>Node18&#45;&gt;Node12</title>
<g id="a_edge28_Node000018_Node000012"><a xlink:title=" ">
<path fill="none" stroke="#63b8ff" d="M361.42,-313.89C366.98,-311.26 372.59,-308.2 377.5,-304.73 396.51,-291.32 394.29,-279.86 413.5,-266.73 450.44,-241.48 465.4,-245.86 506.75,-228.73 517.43,-224.31 529.01,-219.46 539.58,-215"/>
<polygon fill="#63b8ff" stroke="#63b8ff" points="540.89,-218.25 548.75,-211.13 538.17,-211.8 540.89,-218.25"/>
</a>
</g>
</g>
<!-- Node18&#45;&gt;Node13 -->
<g id="edge30_Node000018_Node000013" class="edge">
<title>Node18&#45;&gt;Node13</title>
<g id="a_edge30_Node000018_Node000013"><a xlink:title=" ">
<path fill="none" stroke="#63b8ff" d="M366.48,-314.08C370.66,-311.58 374.51,-308.5 377.5,-304.73 430.94,-237.42 352.24,-175.01 413.5,-114.73 444.09,-84.64 494.61,-80.22 531.14,-81.71"/>
<polygon fill="#63b8ff" stroke="#63b8ff" points="530.76,-85.2 540.95,-82.29 531.18,-78.21 530.76,-85.2"/>
</a>
</g>
</g>
<!-- Node18&#45;&gt;Node14 -->
<g id="edge31_Node000018_Node000014" class="edge">
<title>Node18&#45;&gt;Node14</title>
<g id="a_edge31_Node000018_Node000014"><a xlink:title=" ">
<path fill="none" stroke="#63b8ff" d="M369.29,-335.54C385.93,-340.39 405.52,-346.1 422.15,-350.95"/>
<polygon fill="#63b8ff" stroke="#63b8ff" points="421.09,-354.29 431.67,-353.73 423.05,-347.57 421.09,-354.29"/>
</a>
</g>
</g>
<!-- Node18&#45;&gt;Node15 -->
<g id="edge32_Node000018_Node000015" class="edge">
<title>Node18&#45;&gt;Node15</title>
<g id="a_edge32_Node000018_Node000015"><a xlink:title=" ">
<path fill="none" stroke="#63b8ff" d="M367.02,-313.89C371.01,-311.42 374.67,-308.41 377.5,-304.73 438.84,-225.26 374.66,-174.31 413.5,-81.73 420.11,-65.98 431.49,-50.5 441.24,-38.95"/>
<polygon fill="#63b8ff" stroke="#63b8ff" points="443.6,-41.56 447.58,-31.73 438.35,-36.94 443.6,-41.56"/>
</a>
</g>
</g>
<!-- Node18&#45;&gt;Node17 -->
<g id="edge33_Node000018_Node000017" class="edge">
<title>Node18&#45;&gt;Node17</title>
<g id="a_edge33_Node000018_Node000017"><a xlink:title=" ">
<path fill="none" stroke="#63b8ff" d="M291.23,-331.24C281.29,-331.56 270.61,-331.57 260.67,-331.25"/>
<polygon fill="#63b8ff" stroke="#63b8ff" points="261.08,-327.76 250.92,-330.79 260.75,-334.75 261.08,-327.76"/>
</a>
</g>
</g>
<!-- Node19 -->
<g id="Node000019" class="node">
<title>Node19</title>
<g id="a_Node000019"><a xlink:href="../../d0/d59/futil_8c.html#a636608f26d1193b5d860f2312cd8ee49" target="_top" xlink:title="terminates string at New Line, Carriage Return, or max_len">
<polygon fill="white" stroke="#666666" points="480.12,-296.11 440.12,-296.11 440.12,-275.36 480.12,-275.36 480.12,-296.11"/>
<text xml:space="preserve" text-anchor="middle" x="460.12" y="-282.61" font-family="Helvetica,sans-Serif" font-size="10.00">strnz</text>
</a>
</g>
</g>
<!-- Node18&#45;&gt;Node19 -->
<g id="edge29_Node000018_Node000019" class="edge">
<title>Node18&#45;&gt;Node19</title>
<g id="a_edge29_Node000018_Node000019"><a xlink:title=" ">
<path fill="none" stroke="#63b8ff" d="M367.59,-313.87C386.81,-307.96 410.34,-300.73 428.73,-295.08"/>
<polygon fill="#63b8ff" stroke="#63b8ff" points="429.73,-298.43 438.26,-292.15 427.67,-291.74 429.73,-298.43"/>
</a>
</g>
</g>
<!-- Node21&#45;&gt;Node5 -->
<g id="edge36_Node000021_Node000005" class="edge">
<title>Node21&#45;&gt;Node5</title>
<g id="a_edge36_Node000021_Node000005"><a xlink:title=" ">
<path fill="none" stroke="#63b8ff" d="M502.26,-143.29C532.95,-151.22 575.45,-163.91 610.5,-180.73 686.67,-217.29 766.96,-277.85 804.2,-307.42"/>
<polygon fill="#63b8ff" stroke="#63b8ff" points="801.54,-309.77 811.54,-313.29 805.92,-304.3 801.54,-309.77"/>
</a>
</g>
</g>
<!-- Node21&#45;&gt;Node12 -->
<g id="edge37_Node000021_Node000012" class="edge">
<title>Node21&#45;&gt;Node12</title>
<g id="a_edge37_Node000021_Node000012"><a xlink:title=" ">
<path fill="none" stroke="#63b8ff" d="M482.17,-144.45C489.95,-148.51 498.81,-153.23 506.75,-157.73 520.88,-165.75 536.35,-175.12 549.04,-182.98"/>
<polygon fill="#63b8ff" stroke="#63b8ff" points="546.92,-185.78 557.25,-188.1 550.62,-179.84 546.92,-185.78"/>
</a>
</g>
</g>
<!-- Node21&#45;&gt;Node13 -->
<g id="edge38_Node000021_Node000013" class="edge">
<title>Node21&#45;&gt;Node13</title>
<g id="a_edge38_Node000021_Node000013"><a xlink:title=" ">
<path fill="none" stroke="#63b8ff" d="M487.39,-122.95C502.67,-116.68 522.15,-108.68 538.92,-101.8"/>
<polygon fill="#63b8ff" stroke="#63b8ff" points="540.16,-105.08 548.08,-98.04 537.5,-98.6 540.16,-105.08"/>
</a>
</g>
</g>
</g>
</svg>
