<?xml version="1.0" encoding="UTF-8" standalone="no"?>
<!DOCTYPE svg PUBLIC "-//W3C//DTD SVG 1.1//EN"
 "http://www.w3.org/Graphics/SVG/1.1/DTD/svg11.dtd">
<!-- Generated by graphviz version 14.1.2 (0)
 -->
<!-- Title: fields.c Pages: 1 -->
<svg width="886pt" height="256pt"
 viewBox="0.00 0.00 886.00 256.00" xmlns="http://www.w3.org/2000/svg" xmlns:xlink="http://www.w3.org/1999/xlink">
<g id="graph0" class="graph" transform="scale(1 1) rotate(0) translate(4 251.75)">
<title>fields.c</title>
<!-- Node1 -->
<g id="Node000001" class="node">
<title>Node1</title>
<g id="a_Node000001"><a xlink:title="Field Edit and Entry for C&#45;Menu Form.">
<polygon fill="#999999" stroke="#666666" points="617.25,-247.75 566,-247.75 566,-227 617.25,-227 617.25,-247.75"/>
<text xml:space="preserve" text-anchor="middle" x="591.62" y="-234.25" font-family="Helvetica,sans-Serif" font-size="10.00">fields.c</text>
</a>
</g>
</g>
<!-- Node2 -->
<g id="Node000002" class="node">
<title>Node2</title>
<g id="a_Node000002"><a xlink:href="../../de/d55/a00323.html" target="_top" xlink:title="Headder for C&#45;Menu Menu, Form, Pick, and View components.">
<polygon fill="white" stroke="#666666" points="282.5,-191 214.75,-191 214.75,-170.25 282.5,-170.25 282.5,-191"/>
<text xml:space="preserve" text-anchor="middle" x="248.62" y="-177.5" font-family="Helvetica,sans-Serif" font-size="10.00">common.h</text>
</a>
</g>
</g>
<!-- Node1&#45;&gt;Node2 -->
<g id="edge1_Node000001_Node000002" class="edge">
<title>Node1&#45;&gt;Node2</title>
<g id="a_edge1_Node000001_Node000002"><a xlink:title=" ">
<path fill="none" stroke="#63b8ff" d="M565.56,-232.21C507.47,-222.94 366.74,-200.48 293.94,-188.86"/>
<polygon fill="#63b8ff" stroke="#63b8ff" points="294.78,-185.45 284.35,-187.33 293.67,-192.36 294.78,-185.45"/>
</a>
</g>
</g>
<!-- Node7 -->
<g id="Node000007" class="node">
<title>Node7</title>
<g id="a_Node000007"><a xlink:title=" ">
<polygon fill="#e0e0e0" stroke="#999999" points="406.12,-20.75 351.12,-20.75 351.12,0 406.12,0 406.12,-20.75"/>
<text xml:space="preserve" text-anchor="middle" x="378.62" y="-7.25" font-family="Helvetica,sans-Serif" font-size="10.00">stddef.h</text>
</a>
</g>
</g>
<!-- Node1&#45;&gt;Node7 -->
<g id="edge23_Node000001_Node000007" class="edge">
<title>Node1&#45;&gt;Node7</title>
<g id="a_edge23_Node000001_Node000007"><a xlink:title=" ">
<path fill="none" stroke="#63b8ff" d="M565.56,-236.68C529.53,-235.64 464.74,-228.25 427.62,-191 384.36,-147.58 378.3,-69.92 378.07,-32.57"/>
<polygon fill="#63b8ff" stroke="#63b8ff" points="381.57,-32.71 378.17,-22.68 374.57,-32.65 381.57,-32.71"/>
</a>
</g>
</g>
<!-- Node13 -->
<g id="Node000013" class="node">
<title>Node13</title>
<g id="a_Node000013"><a xlink:title=" ">
<polygon fill="#e0e0e0" stroke="#999999" points="507,-191 436.25,-191 436.25,-170.25 507,-170.25 507,-191"/>
<text xml:space="preserve" text-anchor="middle" x="471.62" y="-177.5" font-family="Helvetica,sans-Serif" font-size="10.00">monetary.h</text>
</a>
</g>
</g>
<!-- Node1&#45;&gt;Node13 -->
<g id="edge21_Node000001_Node000013" class="edge">
<title>Node1&#45;&gt;Node13</title>
<g id="a_edge21_Node000001_Node000013"><a xlink:title=" ">
<path fill="none" stroke="#63b8ff" d="M570.17,-226.59C551.57,-218.1 524.4,-205.7 503.3,-196.08"/>
<polygon fill="#63b8ff" stroke="#63b8ff" points="504.82,-192.92 494.27,-191.96 501.91,-199.29 504.82,-192.92"/>
</a>
</g>
</g>
<!-- Node14 -->
<g id="Node000014" class="node">
<title>Node14</title>
<g id="a_Node000014"><a xlink:title=" ">
<polygon fill="#e0e0e0" stroke="#999999" points="586.12,-191 525.12,-191 525.12,-170.25 586.12,-170.25 586.12,-191"/>
<text xml:space="preserve" text-anchor="middle" x="555.62" y="-177.5" font-family="Helvetica,sans-Serif" font-size="10.00">stdbool.h</text>
</a>
</g>
</g>
<!-- Node1&#45;&gt;Node14 -->
<g id="edge22_Node000001_Node000014" class="edge">
<title>Node1&#45;&gt;Node14</title>
<g id="a_edge22_Node000001_Node000014"><a xlink:title=" ">
<path fill="none" stroke="#63b8ff" d="M585.19,-226.59C580.48,-219.42 573.94,-209.48 568.21,-200.76"/>
<polygon fill="#63b8ff" stroke="#63b8ff" points="571.26,-199.03 562.84,-192.59 565.41,-202.87 571.26,-199.03"/>
</a>
</g>
</g>
<!-- Node15 -->
<g id="Node000015" class="node">
<title>Node15</title>
<g id="a_Node000015"><a xlink:title=" ">
<polygon fill="#e0e0e0" stroke="#999999" points="653.12,-191 604.12,-191 604.12,-170.25 653.12,-170.25 653.12,-191"/>
<text xml:space="preserve" text-anchor="middle" x="628.62" y="-177.5" font-family="Helvetica,sans-Serif" font-size="10.00">stdio.h</text>
</a>
</g>
</g>
<!-- Node1&#45;&gt;Node15 -->
<g id="edge24_Node000001_Node000015" class="edge">
<title>Node1&#45;&gt;Node15</title>
<g id="a_edge24_Node000001_Node000015"><a xlink:title=" ">
<path fill="none" stroke="#63b8ff" d="M598.24,-226.59C603.08,-219.42 609.8,-209.48 615.7,-200.76"/>
<polygon fill="#63b8ff" stroke="#63b8ff" points="618.52,-202.83 621.22,-192.58 612.72,-198.91 618.52,-202.83"/>
</a>
</g>
</g>
<!-- Node16 -->
<g id="Node000016" class="node">
<title>Node16</title>
<g id="a_Node000016"><a xlink:title=" ">
<polygon fill="#e0e0e0" stroke="#999999" points="724,-191 671.25,-191 671.25,-170.25 724,-170.25 724,-191"/>
<text xml:space="preserve" text-anchor="middle" x="697.62" y="-177.5" font-family="Helvetica,sans-Serif" font-size="10.00">string.h</text>
</a>
</g>
</g>
<!-- Node1&#45;&gt;Node16 -->
<g id="edge25_Node000001_Node000016" class="edge">
<title>Node1&#45;&gt;Node16</title>
<g id="a_edge25_Node000001_Node000016"><a xlink:title=" ">
<path fill="none" stroke="#63b8ff" d="M610.58,-226.59C626.7,-218.26 650.13,-206.16 668.62,-196.61"/>
<polygon fill="#63b8ff" stroke="#63b8ff" points="670.21,-199.72 677.49,-192.02 667,-193.5 670.21,-199.72"/>
</a>
</g>
</g>
<!-- Node17 -->
<g id="Node000017" class="node">
<title>Node17</title>
<g id="a_Node000017"><a xlink:title=" ">
<polygon fill="#e0e0e0" stroke="#999999" points="804.88,-191 742.38,-191 742.38,-170.25 804.88,-170.25 804.88,-191"/>
<text xml:space="preserve" text-anchor="middle" x="773.62" y="-177.5" font-family="Helvetica,sans-Serif" font-size="10.00">termios.h</text>
</a>
</g>
</g>
<!-- Node1&#45;&gt;Node17 -->
<g id="edge26_Node000001_Node000017" class="edge">
<title>Node1&#45;&gt;Node17</title>
<g id="a_edge26_Node000001_Node000017"><a xlink:title=" ">
<path fill="none" stroke="#63b8ff" d="M617.7,-228.53C647.32,-219.62 696.1,-204.95 731.22,-194.38"/>
<polygon fill="#63b8ff" stroke="#63b8ff" points="732.08,-197.78 740.65,-191.55 730.06,-191.08 732.08,-197.78"/>
</a>
</g>
</g>
<!-- Node18 -->
<g id="Node000018" class="node">
<title>Node18</title>
<g id="a_Node000018"><a xlink:title=" ">
<polygon fill="#e0e0e0" stroke="#999999" points="878.12,-191 823.12,-191 823.12,-170.25 878.12,-170.25 878.12,-191"/>
<text xml:space="preserve" text-anchor="middle" x="850.62" y="-177.5" font-family="Helvetica,sans-Serif" font-size="10.00">unistd.h</text>
</a>
</g>
</g>
<!-- Node1&#45;&gt;Node18 -->
<g id="edge27_Node000001_Node000018" class="edge">
<title>Node1&#45;&gt;Node18</title>
<g id="a_edge27_Node000001_Node000018"><a xlink:title=" ">
<path fill="none" stroke="#63b8ff" d="M617.68,-231.46C657.38,-223.88 735.62,-208.6 812.01,-191.28"/>
<polygon fill="#63b8ff" stroke="#63b8ff" points="812.33,-194.8 821.3,-189.17 810.77,-187.98 812.33,-194.8"/>
</a>
</g>
</g>
<!-- Node3 -->
<g id="Node000003" class="node">
<title>Node3</title>
<g id="a_Node000003"><a xlink:title=" ">
<polygon fill="#e0e0e0" stroke="#999999" points="111.25,-20.75 0,-20.75 0,0 111.25,0 111.25,-20.75"/>
<text xml:space="preserve" text-anchor="middle" x="55.62" y="-7.25" font-family="Helvetica,sans-Serif" font-size="10.00">ncursesw/ncurses.h</text>
</a>
</g>
</g>
<!-- Node2&#45;&gt;Node3 -->
<g id="edge2_Node000002_Node000003" class="edge">
<title>Node2&#45;&gt;Node3</title>
<g id="a_edge2_Node000002_Node000003"><a xlink:title=" ">
<path fill="none" stroke="#63b8ff" d="M214.54,-177.27C182.19,-173.3 134.1,-162.68 103.62,-134.25 74.28,-106.87 62.62,-59.39 58.18,-32.17"/>
<polygon fill="#63b8ff" stroke="#63b8ff" points="61.67,-31.82 56.79,-22.41 54.74,-32.81 61.67,-31.82"/>
</a>
</g>
</g>
<!-- Node4 -->
<g id="Node000004" class="node">
<title>Node4</title>
<g id="a_Node000004"><a xlink:href="../../d8/d23/a00326.html" target="_top" xlink:title="Headder for C&#45;Menu API library, libcm.so.">
<polygon fill="white" stroke="#666666" points="234.62,-77.5 194.62,-77.5 194.62,-56.75 234.62,-56.75 234.62,-77.5"/>
<text xml:space="preserve" text-anchor="middle" x="214.62" y="-64" font-family="Helvetica,sans-Serif" font-size="10.00">cm.h</text>
</a>
</g>
</g>
<!-- Node2&#45;&gt;Node4 -->
<g id="edge3_Node000002_Node000004" class="edge">
<title>Node2&#45;&gt;Node4</title>
<g id="a_edge3_Node000002_Node000004"><a xlink:title=" ">
<path fill="none" stroke="#63b8ff" d="M214.51,-178.82C182.33,-176.02 135.69,-166.26 112.62,-134.25 91.16,-104.46 145.99,-84.62 183.33,-74.96"/>
<polygon fill="#63b8ff" stroke="#63b8ff" points="183.89,-78.43 192.78,-72.65 182.23,-71.63 183.89,-78.43"/>
</a>
</g>
</g>
<!-- Node2&#45;&gt;Node7 -->
<g id="edge20_Node000002_Node000007" class="edge">
<title>Node2&#45;&gt;Node7</title>
<g id="a_edge20_Node000002_Node000007"><a xlink:title=" ">
<path fill="none" stroke="#63b8ff" d="M276.19,-169.76C293.54,-162.34 315.28,-150.61 329.62,-134.25 355.9,-104.29 369.07,-58.49 374.82,-32.09"/>
<polygon fill="#63b8ff" stroke="#63b8ff" points="378.19,-33.12 376.73,-22.63 371.32,-31.74 378.19,-33.12"/>
</a>
</g>
</g>
<!-- Node9 -->
<g id="Node000009" class="node">
<title>Node9</title>
<g id="a_Node000009"><a xlink:href="../../dd/de2/a00320.html" target="_top" xlink:title="Form data structures, enums, types, end external declarations.">
<polygon fill="white" stroke="#666666" points="169.75,-134.25 121.5,-134.25 121.5,-113.5 169.75,-113.5 169.75,-134.25"/>
<text xml:space="preserve" text-anchor="middle" x="145.62" y="-120.75" font-family="Helvetica,sans-Serif" font-size="10.00">form.h</text>
</a>
</g>
</g>
<!-- Node2&#45;&gt;Node9 -->
<g id="edge9_Node000002_Node000009" class="edge">
<title>Node2&#45;&gt;Node9</title>
<g id="a_edge9_Node000002_Node000009"><a xlink:title=" ">
<path fill="none" stroke="#63b8ff" d="M230.21,-169.84C214.54,-161.51 191.78,-149.41 173.81,-139.86"/>
<polygon fill="#63b8ff" stroke="#63b8ff" points="175.69,-136.89 165.22,-135.29 172.4,-143.07 175.69,-136.89"/>
</a>
</g>
</g>
<!-- Node10 -->
<g id="Node000010" class="node">
<title>Node10</title>
<g id="a_Node000010"><a xlink:href="../../da/de0/a00317.html" target="_top" xlink:title="Menu data structures, enums, types, end external declarations.">
<polygon fill="white" stroke="#666666" points="241,-134.25 188.25,-134.25 188.25,-113.5 241,-113.5 241,-134.25"/>
<text xml:space="preserve" text-anchor="middle" x="214.62" y="-120.75" font-family="Helvetica,sans-Serif" font-size="10.00">menu.h</text>
</a>
</g>
</g>
<!-- Node2&#45;&gt;Node10 -->
<g id="edge11_Node000002_Node000010" class="edge">
<title>Node2&#45;&gt;Node10</title>
<g id="a_edge11_Node000002_Node000010"><a xlink:title=" ">
<path fill="none" stroke="#63b8ff" d="M242.55,-169.84C238.15,-162.75 232.05,-152.94 226.68,-144.29"/>
<polygon fill="#63b8ff" stroke="#63b8ff" points="229.7,-142.51 221.45,-135.86 223.75,-146.21 229.7,-142.51"/>
</a>
</g>
</g>
<!-- Node11 -->
<g id="Node000011" class="node">
<title>Node11</title>
<g id="a_Node000011"><a xlink:href="../../d0/d39/a00314.html" target="_top" xlink:title="Pick data structures, enums, types, end external declarations.">
<polygon fill="white" stroke="#666666" points="304.25,-134.25 259,-134.25 259,-113.5 304.25,-113.5 304.25,-134.25"/>
<text xml:space="preserve" text-anchor="middle" x="281.62" y="-120.75" font-family="Helvetica,sans-Serif" font-size="10.00">pick.h</text>
</a>
</g>
</g>
<!-- Node2&#45;&gt;Node11 -->
<g id="edge13_Node000002_Node000011" class="edge">
<title>Node2&#45;&gt;Node11</title>
<g id="a_edge13_Node000002_Node000011"><a xlink:title=" ">
<path fill="none" stroke="#63b8ff" d="M254.52,-169.84C258.8,-162.75 264.71,-152.94 269.92,-144.29"/>
<polygon fill="#63b8ff" stroke="#63b8ff" points="272.83,-146.25 275,-135.87 266.84,-142.63 272.83,-146.25"/>
</a>
</g>
</g>
<!-- Node12 -->
<g id="Node000012" class="node">
<title>Node12</title>
<g id="a_Node000012"><a xlink:href="../../d5/d0f/a00308.html" target="_top" xlink:title="View data structures, enums, types, end external declarations.">
<polygon fill="white" stroke="#666666" points="330.38,-77.5 282.88,-77.5 282.88,-56.75 330.38,-56.75 330.38,-77.5"/>
<text xml:space="preserve" text-anchor="middle" x="306.62" y="-64" font-family="Helvetica,sans-Serif" font-size="10.00">view.h</text>
</a>
</g>
</g>
<!-- Node2&#45;&gt;Node12 -->
<g id="edge15_Node000002_Node000012" class="edge">
<title>Node2&#45;&gt;Node12</title>
<g id="a_edge15_Node000002_Node000012"><a xlink:title=" ">
<path fill="none" stroke="#63b8ff" d="M272.7,-169.84C287.43,-162.44 305.03,-150.72 313.62,-134.25 320.97,-120.16 318.39,-102.1 314.44,-88.42"/>
<polygon fill="#63b8ff" stroke="#63b8ff" points="317.83,-87.51 311.31,-79.16 311.2,-89.75 317.83,-87.51"/>
</a>
</g>
</g>
<!-- Node4&#45;&gt;Node3 -->
<g id="edge5_Node000004_Node000003" class="edge">
<title>Node4&#45;&gt;Node3</title>
<g id="a_edge5_Node000004_Node000003"><a xlink:title=" ">
<path fill="none" stroke="#63b8ff" d="M194.16,-59.08C169.1,-50.45 126.12,-35.65 94.66,-24.82"/>
<polygon fill="#63b8ff" stroke="#63b8ff" points="96.08,-21.6 85.49,-21.66 93.8,-28.22 96.08,-21.6"/>
</a>
</g>
</g>
<!-- Node5 -->
<g id="Node000005" class="node">
<title>Node5</title>
<g id="a_Node000005"><a xlink:href="../../d1/d5d/a00311.html" target="_top" xlink:title=" ">
<polygon fill="white" stroke="#666666" points="190.12,-20.75 129.12,-20.75 129.12,0 190.12,0 190.12,-20.75"/>
<text xml:space="preserve" text-anchor="middle" x="159.62" y="-7.25" font-family="Helvetica,sans-Serif" font-size="10.00">version.h</text>
</a>
</g>
</g>
<!-- Node4&#45;&gt;Node5 -->
<g id="edge4_Node000004_Node000005" class="edge">
<title>Node4&#45;&gt;Node5</title>
<g id="a_edge4_Node000004_Node000005"><a xlink:title=" ">
<path fill="none" stroke="#63b8ff" d="M204.79,-56.34C197.21,-48.78 186.51,-38.14 177.43,-29.1"/>
<polygon fill="#63b8ff" stroke="#63b8ff" points="180,-26.72 170.45,-22.15 175.06,-31.68 180,-26.72"/>
</a>
</g>
</g>
<!-- Node6 -->
<g id="Node000006" class="node">
<title>Node6</title>
<g id="a_Node000006"><a xlink:title=" ">
<polygon fill="#e0e0e0" stroke="#999999" points="262.75,-20.75 208.5,-20.75 208.5,0 262.75,0 262.75,-20.75"/>
<text xml:space="preserve" text-anchor="middle" x="235.62" y="-7.25" font-family="Helvetica,sans-Serif" font-size="10.00">signal.h</text>
</a>
</g>
</g>
<!-- Node4&#45;&gt;Node6 -->
<g id="edge6_Node000004_Node000006" class="edge">
<title>Node4&#45;&gt;Node6</title>
<g id="a_edge6_Node000004_Node000006"><a xlink:title=" ">
<path fill="none" stroke="#63b8ff" d="M218.38,-56.34C221.01,-49.49 224.61,-40.09 227.85,-31.65"/>
<polygon fill="#63b8ff" stroke="#63b8ff" points="231.05,-33.08 231.36,-22.49 224.51,-30.57 231.05,-33.08"/>
</a>
</g>
</g>
<!-- Node4&#45;&gt;Node7 -->
<g id="edge7_Node000004_Node000007" class="edge">
<title>Node4&#45;&gt;Node7</title>
<g id="a_edge7_Node000004_Node000007"><a xlink:title=" ">
<path fill="none" stroke="#63b8ff" d="M235.06,-59.3C261.29,-50.55 307.33,-35.18 340.2,-24.2"/>
<polygon fill="#63b8ff" stroke="#63b8ff" points="340.98,-27.63 349.35,-21.15 338.76,-20.99 340.98,-27.63"/>
</a>
</g>
</g>
<!-- Node8 -->
<g id="Node000008" class="node">
<title>Node8</title>
<g id="a_Node000008"><a xlink:title=" ">
<polygon fill="#e0e0e0" stroke="#999999" points="332.62,-20.75 280.62,-20.75 280.62,0 332.62,0 332.62,-20.75"/>
<text xml:space="preserve" text-anchor="middle" x="306.62" y="-7.25" font-family="Helvetica,sans-Serif" font-size="10.00">stdlib.h</text>
</a>
</g>
</g>
<!-- Node4&#45;&gt;Node8 -->
<g id="edge8_Node000004_Node000008" class="edge">
<title>Node4&#45;&gt;Node8</title>
<g id="a_edge8_Node000004_Node000008"><a xlink:title=" ">
<path fill="none" stroke="#63b8ff" d="M231.07,-56.34C244.81,-48.16 264.64,-36.36 280.54,-26.9"/>
<polygon fill="#63b8ff" stroke="#63b8ff" points="282.22,-29.97 289.02,-21.85 278.64,-23.96 282.22,-29.97"/>
</a>
</g>
</g>
<!-- Node9&#45;&gt;Node4 -->
<g id="edge10_Node000009_Node000004" class="edge">
<title>Node9&#45;&gt;Node4</title>
<g id="a_edge10_Node000009_Node000004"><a xlink:title=" ">
<path fill="none" stroke="#63b8ff" d="M157.96,-113.09C167.87,-105.22 182.01,-94 193.69,-84.74"/>
<polygon fill="#63b8ff" stroke="#63b8ff" points="195.55,-87.73 201.21,-78.77 191.2,-82.24 195.55,-87.73"/>
</a>
</g>
</g>
<!-- Node10&#45;&gt;Node4 -->
<g id="edge12_Node000010_Node000004" class="edge">
<title>Node10&#45;&gt;Node4</title>
<g id="a_edge12_Node000010_Node000004"><a xlink:title=" ">
<path fill="none" stroke="#63b8ff" d="M214.62,-113.09C214.62,-106.47 214.62,-97.47 214.62,-89.27"/>
<polygon fill="#63b8ff" stroke="#63b8ff" points="218.13,-89.34 214.63,-79.34 211.13,-89.34 218.13,-89.34"/>
</a>
</g>
</g>
<!-- Node11&#45;&gt;Node4 -->
<g id="edge14_Node000011_Node000004" class="edge">
<title>Node11&#45;&gt;Node4</title>
<g id="a_edge14_Node000011_Node000004"><a xlink:title=" ">
<path fill="none" stroke="#63b8ff" d="M269.65,-113.09C260.12,-105.3 246.56,-94.22 235.29,-85.01"/>
<polygon fill="#63b8ff" stroke="#63b8ff" points="237.63,-82.4 227.67,-78.79 233.2,-87.82 237.63,-82.4"/>
</a>
</g>
</g>
<!-- Node12&#45;&gt;Node3 -->
<g id="edge16_Node000012_Node000003" class="edge">
<title>Node12&#45;&gt;Node3</title>
<g id="a_edge16_Node000012_Node000003"><a xlink:title=" ">
<path fill="none" stroke="#63b8ff" d="M282.56,-60.88C243.5,-52.35 165.27,-35.29 111.69,-23.6"/>
<polygon fill="#63b8ff" stroke="#63b8ff" points="112.65,-20.23 102.13,-21.52 111.16,-27.07 112.65,-20.23"/>
</a>
</g>
</g>
<!-- Node12&#45;&gt;Node6 -->
<g id="edge17_Node000012_Node000006" class="edge">
<title>Node12&#45;&gt;Node6</title>
<g id="a_edge17_Node000012_Node000006"><a xlink:title=" ">
<path fill="none" stroke="#63b8ff" d="M293.93,-56.34C283.73,-48.47 269.18,-37.25 257.17,-27.99"/>
<polygon fill="#63b8ff" stroke="#63b8ff" points="259.46,-25.34 249.41,-22 255.19,-30.88 259.46,-25.34"/>
</a>
</g>
</g>
<!-- Node12&#45;&gt;Node7 -->
<g id="edge18_Node000012_Node000007" class="edge">
<title>Node12&#45;&gt;Node7</title>
<g id="a_edge18_Node000012_Node000007"><a xlink:title=" ">
<path fill="none" stroke="#63b8ff" d="M319.5,-56.34C329.84,-48.47 344.59,-37.25 356.78,-27.99"/>
<polygon fill="#63b8ff" stroke="#63b8ff" points="358.82,-30.83 364.66,-21.99 354.58,-25.26 358.82,-30.83"/>
</a>
</g>
</g>
<!-- Node12&#45;&gt;Node8 -->
<g id="edge19_Node000012_Node000008" class="edge">
<title>Node12&#45;&gt;Node8</title>
<g id="a_edge19_Node000012_Node000008"><a xlink:title=" ">
<path fill="none" stroke="#63b8ff" d="M306.62,-56.34C306.62,-49.72 306.62,-40.72 306.62,-32.52"/>
<polygon fill="#63b8ff" stroke="#63b8ff" points="310.13,-32.59 306.63,-22.59 303.13,-32.59 310.13,-32.59"/>
</a>
</g>
</g>
</g>
</svg>
