<?xml version="1.0" encoding="UTF-8" standalone="no"?>
<!DOCTYPE svg PUBLIC "-//W3C//DTD SVG 1.1//EN"
 "http://www.w3.org/Graphics/SVG/1.1/DTD/svg11.dtd">
<!-- Generated by graphviz version 14.1.2 (0)
 -->
<!-- Title: include/common.h Pages: 1 -->
<svg width="1374pt" height="86pt"
 viewBox="0.00 0.00 1374.00 86.00" xmlns="http://www.w3.org/2000/svg" xmlns:xlink="http://www.w3.org/1999/xlink">
<g id="graph0" class="graph" transform="scale(1 1) rotate(0) translate(4 81.5)">
<title>include/common.h</title>
<!-- Node1 -->
<g id="Node000001" class="node">
<title>Node1</title>
<g id="a_Node000001"><a xlink:title="Headder for C&#45;Menu Menu, Form, Pick, and View components.">
<polygon fill="#999999" stroke="#666666" points="685,-77.5 579,-77.5 579,-56.75 685,-56.75 685,-77.5"/>
<text xml:space="preserve" text-anchor="middle" x="632" y="-64" font-family="Helvetica,sans-Serif" font-size="10.00">include/common.h</text>
</a>
</g>
</g>
<!-- Node2 -->
<g id="Node000002" class="node">
<title>Node2</title>
<g id="a_Node000002"><a xlink:href="../../d3/d07/a00305.html" target="_top" xlink:title="Test Curses Keys.">
<polygon fill="white" stroke="#666666" points="52,-20.75 0,-20.75 0,0 52,0 52,-20.75"/>
<text xml:space="preserve" text-anchor="middle" x="26" y="-7.25" font-family="Helvetica,sans-Serif" font-size="10.00">ckeys.c</text>
</a>
</g>
</g>
<!-- Node1&#45;&gt;Node2 -->
<g id="edge1_Node000001_Node000002" class="edge">
<title>Node1&#45;&gt;Node2</title>
<g id="a_edge1_Node000001_Node000002"><a xlink:title=" ">
<path fill="none" stroke="#63b8ff" d="M567.38,-64.82C461.04,-61.82 242.84,-52.06 61,-20.75 58.15,-20.26 55.19,-19.64 52.26,-18.96"/>
<polygon fill="#63b8ff" stroke="#63b8ff" points="567.25,-68.32 577.34,-65.09 567.44,-61.32 567.25,-68.32"/>
</a>
</g>
</g>
<!-- Node3 -->
<g id="Node000003" class="node">
<title>Node3</title>
<g id="a_Node000003"><a xlink:href="../../d0/d61/a00302.html" target="_top" xlink:title="Test Curses Keys.">
<polygon fill="white" stroke="#666666" points="137.5,-20.75 70.5,-20.75 70.5,0 137.5,0 137.5,-20.75"/>
<text xml:space="preserve" text-anchor="middle" x="104" y="-7.25" font-family="Helvetica,sans-Serif" font-size="10.00">curskeys.c</text>
</a>
</g>
</g>
<!-- Node1&#45;&gt;Node3 -->
<g id="edge2_Node000001_Node000003" class="edge">
<title>Node1&#45;&gt;Node3</title>
<g id="a_edge2_Node000001_Node000003"><a xlink:title=" ">
<path fill="none" stroke="#63b8ff" d="M567.26,-62.69C473.81,-57.15 295.87,-44.37 146,-20.75 143.34,-20.33 140.6,-19.84 137.86,-19.32"/>
<polygon fill="#63b8ff" stroke="#63b8ff" points="566.81,-66.17 577,-63.26 567.22,-59.18 566.81,-66.17"/>
</a>
</g>
</g>
<!-- Node4 -->
<g id="Node000004" class="node">
<title>Node4</title>
<g id="a_Node000004"><a xlink:href="../../d6/d7f/a00287.html" target="_top" xlink:title="Field Edit and Entry for C&#45;Menu Form.">
<polygon fill="white" stroke="#666666" points="206.62,-20.75 155.38,-20.75 155.38,0 206.62,0 206.62,-20.75"/>
<text xml:space="preserve" text-anchor="middle" x="181" y="-7.25" font-family="Helvetica,sans-Serif" font-size="10.00">fields.c</text>
</a>
</g>
</g>
<!-- Node1&#45;&gt;Node4 -->
<g id="edge3_Node000001_Node000004" class="edge">
<title>Node1&#45;&gt;Node4</title>
<g id="a_edge3_Node000001_Node000004"><a xlink:title=" ">
<path fill="none" stroke="#63b8ff" d="M567.16,-62.31C484.75,-56.72 338.36,-44.31 215,-20.75 212.35,-20.24 209.61,-19.64 206.89,-18.97"/>
<polygon fill="#63b8ff" stroke="#63b8ff" points="566.88,-65.8 577.09,-62.97 567.35,-58.81 566.88,-65.8"/>
</a>
</g>
</g>
<!-- Node5 -->
<g id="Node000005" class="node">
<title>Node5</title>
<g id="a_Node000005"><a xlink:href="../../db/dc3/a00284.html" target="_top" xlink:title="Command Line Start&#45;up for C&#45;Menu Form.">
<polygon fill="white" stroke="#666666" points="271.75,-20.75 224.25,-20.75 224.25,0 271.75,0 271.75,-20.75"/>
<text xml:space="preserve" text-anchor="middle" x="248" y="-7.25" font-family="Helvetica,sans-Serif" font-size="10.00">form.c</text>
</a>
</g>
</g>
<!-- Node1&#45;&gt;Node5 -->
<g id="edge4_Node000001_Node000005" class="edge">
<title>Node1&#45;&gt;Node5</title>
<g id="a_edge4_Node000001_Node000005"><a xlink:title=" ">
<path fill="none" stroke="#63b8ff" d="M567.28,-60.66C496.49,-54.01 379.92,-41.08 281,-20.75 278.08,-20.15 275.05,-19.43 272.05,-18.65"/>
<polygon fill="#63b8ff" stroke="#63b8ff" points="566.88,-64.14 577.16,-61.57 567.53,-57.17 566.88,-64.14"/>
</a>
</g>
</g>
<!-- Node6 -->
<g id="Node000006" class="node">
<title>Node6</title>
<g id="a_Node000006"><a xlink:href="../../d2/d04/a00281.html" target="_top" xlink:title="The working part of C&#45;Menu Form.">
<polygon fill="white" stroke="#666666" points="375.88,-20.75 290.12,-20.75 290.12,0 375.88,0 375.88,-20.75"/>
<text xml:space="preserve" text-anchor="middle" x="333" y="-7.25" font-family="Helvetica,sans-Serif" font-size="10.00">form_engine.c</text>
</a>
</g>
</g>
<!-- Node1&#45;&gt;Node6 -->
<g id="edge5_Node000001_Node000006" class="edge">
<title>Node1&#45;&gt;Node6</title>
<g id="a_edge5_Node000001_Node000006"><a xlink:title=" ">
<path fill="none" stroke="#63b8ff" d="M567.34,-54.28C509.54,-43.7 426.44,-28.48 376.3,-19.3"/>
<polygon fill="#63b8ff" stroke="#63b8ff" points="566.59,-57.71 577.06,-56.06 567.85,-50.82 566.59,-57.71"/>
</a>
</g>
</g>
<!-- Node7 -->
<g id="Node000007" class="node">
<title>Node7</title>
<g id="a_Node000007"><a xlink:href="../../d9/dd6/a00272.html" target="_top" xlink:title="Initialization for Menu Application Programs.">
<polygon fill="white" stroke="#666666" points="434,-20.75 394,-20.75 394,0 434,0 434,-20.75"/>
<text xml:space="preserve" text-anchor="middle" x="414" y="-7.25" font-family="Helvetica,sans-Serif" font-size="10.00">init.c</text>
</a>
</g>
</g>
<!-- Node1&#45;&gt;Node7 -->
<g id="edge6_Node000001_Node000007" class="edge">
<title>Node1&#45;&gt;Node7</title>
<g id="a_edge6_Node000001_Node000007"><a xlink:title=" ">
<path fill="none" stroke="#63b8ff" d="M575.9,-53.85C538.15,-45.3 487.35,-33.22 443,-20.75 440.15,-19.95 437.16,-19.05 434.22,-18.13"/>
<polygon fill="#63b8ff" stroke="#63b8ff" points="574.68,-57.16 585.21,-55.94 576.22,-50.33 574.68,-57.16"/>
</a>
</g>
</g>
<!-- Node8 -->
<g id="Node000008" class="node">
<title>Node8</title>
<g id="a_Node000008"><a xlink:href="../../d5/d42/a00269.html" target="_top" xlink:title="Initialize C&#45;Menu View Screen IO and Input.">
<polygon fill="white" stroke="#666666" points="519.88,-20.75 452.12,-20.75 452.12,0 519.88,0 519.88,-20.75"/>
<text xml:space="preserve" text-anchor="middle" x="486" y="-7.25" font-family="Helvetica,sans-Serif" font-size="10.00">init_view.c</text>
</a>
</g>
</g>
<!-- Node1&#45;&gt;Node8 -->
<g id="edge7_Node000001_Node000008" class="edge">
<title>Node1&#45;&gt;Node8</title>
<g id="a_edge7_Node000001_Node000008"><a xlink:title=" ">
<path fill="none" stroke="#63b8ff" d="M595.31,-52.37C569.31,-42.62 535.06,-29.77 511.88,-21.08"/>
<polygon fill="#63b8ff" stroke="#63b8ff" points="593.89,-55.57 604.48,-55.81 596.35,-49.02 593.89,-55.57"/>
</a>
</g>
</g>
<!-- Node9 -->
<g id="Node000009" class="node">
<title>Node9</title>
<g id="a_Node000009"><a xlink:href="../../df/da9/a00263.html" target="_top" xlink:title="Create and destroy main data structures for C&#45;Menu.">
<polygon fill="white" stroke="#666666" points="587.88,-20.75 538.12,-20.75 538.12,0 587.88,0 587.88,-20.75"/>
<text xml:space="preserve" text-anchor="middle" x="563" y="-7.25" font-family="Helvetica,sans-Serif" font-size="10.00">mem.c</text>
</a>
</g>
</g>
<!-- Node1&#45;&gt;Node9 -->
<g id="edge8_Node000001_Node000009" class="edge">
<title>Node1&#45;&gt;Node9</title>
<g id="a_edge8_Node000001_Node000009"><a xlink:title=" ">
<path fill="none" stroke="#63b8ff" d="M610.94,-49.41C599.24,-40.13 585.11,-28.92 575.23,-21.08"/>
<polygon fill="#63b8ff" stroke="#63b8ff" points="608.47,-51.92 618.48,-55.4 612.82,-46.44 608.47,-51.92"/>
</a>
</g>
</g>
<!-- Node10 -->
<g id="Node000010" class="node">
<title>Node10</title>
<g id="a_Node000010"><a xlink:href="../../dd/dd7/a00260.html" target="_top" xlink:title="Command line start&#45;up for C&#45;Menu.">
<polygon fill="white" stroke="#666666" points="658,-20.75 606,-20.75 606,0 658,0 658,-20.75"/>
<text xml:space="preserve" text-anchor="middle" x="632" y="-7.25" font-family="Helvetica,sans-Serif" font-size="10.00">menu.c</text>
</a>
</g>
</g>
<!-- Node1&#45;&gt;Node10 -->
<g id="edge9_Node000001_Node000010" class="edge">
<title>Node1&#45;&gt;Node10</title>
<g id="a_edge9_Node000001_Node000010"><a xlink:title=" ">
<path fill="none" stroke="#63b8ff" d="M632,-44.88C632,-36.66 632,-27.68 632,-21.08"/>
<polygon fill="#63b8ff" stroke="#63b8ff" points="628.5,-44.82 632,-54.82 635.5,-44.82 628.5,-44.82"/>
</a>
</g>
</g>
<!-- Node11 -->
<g id="Node000011" class="node">
<title>Node11</title>
<g id="a_Node000011"><a xlink:href="../../d9/d39/a00257.html" target="_top" xlink:title="The working part of C&#45;Menu Menu.">
<polygon fill="white" stroke="#666666" points="766.12,-20.75 675.88,-20.75 675.88,0 766.12,0 766.12,-20.75"/>
<text xml:space="preserve" text-anchor="middle" x="721" y="-7.25" font-family="Helvetica,sans-Serif" font-size="10.00">menu_engine.c</text>
</a>
</g>
</g>
<!-- Node1&#45;&gt;Node11 -->
<g id="edge10_Node000001_Node000011" class="edge">
<title>Node1&#45;&gt;Node11</title>
<g id="a_edge10_Node000001_Node000011"><a xlink:title=" ">
<path fill="none" stroke="#63b8ff" d="M657.39,-50.51C672.8,-41.03 691.98,-29.23 705.23,-21.08"/>
<polygon fill="#63b8ff" stroke="#63b8ff" points="655.88,-47.32 649.2,-55.54 659.55,-53.29 655.88,-47.32"/>
</a>
</g>
</g>
<!-- Node12 -->
<g id="Node000012" class="node">
<title>Node12</title>
<g id="a_Node000012"><a xlink:href="../../d7/d03/a00254.html" target="_top" xlink:title="Callable Startup for C&#45;Menu View.">
<polygon fill="white" stroke="#666666" points="840.25,-20.75 783.75,-20.75 783.75,0 840.25,0 840.25,-20.75"/>
<text xml:space="preserve" text-anchor="middle" x="812" y="-7.25" font-family="Helvetica,sans-Serif" font-size="10.00">mview.c</text>
</a>
</g>
</g>
<!-- Node1&#45;&gt;Node12 -->
<g id="edge11_Node000001_Node000012" class="edge">
<title>Node1&#45;&gt;Node12</title>
<g id="a_edge11_Node000001_Node000012"><a xlink:title=" ">
<path fill="none" stroke="#63b8ff" d="M675.05,-53.03C708.58,-42.83 754.18,-28.96 783.36,-20.09"/>
<polygon fill="#63b8ff" stroke="#63b8ff" points="674.18,-49.64 665.63,-55.9 676.21,-56.33 674.18,-49.64"/>
</a>
</g>
</g>
<!-- Node13 -->
<g id="Node000013" class="node">
<title>Node13</title>
<g id="a_Node000013"><a xlink:href="../../d3/d1a/a00251.html" target="_top" xlink:title="Sort and print options.">
<polygon fill="white" stroke="#666666" points="903.62,-20.75 858.38,-20.75 858.38,0 903.62,0 903.62,-20.75"/>
<text xml:space="preserve" text-anchor="middle" x="881" y="-7.25" font-family="Helvetica,sans-Serif" font-size="10.00">opts.c</text>
</a>
</g>
</g>
<!-- Node1&#45;&gt;Node13 -->
<g id="edge12_Node000001_Node000013" class="edge">
<title>Node1&#45;&gt;Node13</title>
<g id="a_edge12_Node000001_Node000013"><a xlink:title=" ">
<path fill="none" stroke="#63b8ff" d="M696.13,-54.09C739.49,-45.62 797.94,-33.55 849,-20.75 851.92,-20.02 854.97,-19.2 857.99,-18.35"/>
<polygon fill="#63b8ff" stroke="#63b8ff" points="695.52,-50.65 686.37,-55.99 696.85,-57.52 695.52,-50.65"/>
</a>
</g>
</g>
<!-- Node14 -->
<g id="Node000014" class="node">
<title>Node14</title>
<g id="a_Node000014"><a xlink:href="../../d6/d22/a00245.html" target="_top" xlink:title="Parse menu description file and create Menu.">
<polygon fill="white" stroke="#666666" points="1034,-20.75 922,-20.75 922,0 1034,0 1034,-20.75"/>
<text xml:space="preserve" text-anchor="middle" x="978" y="-7.25" font-family="Helvetica,sans-Serif" font-size="10.00">parse_menu_desc.c</text>
</a>
</g>
</g>
<!-- Node1&#45;&gt;Node14 -->
<g id="edge13_Node000001_Node000014" class="edge">
<title>Node1&#45;&gt;Node14</title>
<g id="a_edge13_Node000001_Node000014"><a xlink:title=" ">
<path fill="none" stroke="#63b8ff" d="M696.59,-55.9C761.37,-45.65 860.11,-30.03 921.76,-20.27"/>
<polygon fill="#63b8ff" stroke="#63b8ff" points="696.13,-52.43 686.8,-57.45 697.22,-59.35 696.13,-52.43"/>
</a>
</g>
</g>
<!-- Node15 -->
<g id="Node000015" class="node">
<title>Node15</title>
<g id="a_Node000015"><a xlink:href="../../d2/dc8/a00242.html" target="_top" xlink:title="Command Line Entry Point for C&#45;Menu Pick.">
<polygon fill="white" stroke="#666666" points="1096.25,-20.75 1051.75,-20.75 1051.75,0 1096.25,0 1096.25,-20.75"/>
<text xml:space="preserve" text-anchor="middle" x="1074" y="-7.25" font-family="Helvetica,sans-Serif" font-size="10.00">pick.c</text>
</a>
</g>
</g>
<!-- Node1&#45;&gt;Node15 -->
<g id="edge14_Node000001_Node000015" class="edge">
<title>Node1&#45;&gt;Node15</title>
<g id="a_edge14_Node000001_Node000015"><a xlink:title=" ">
<path fill="none" stroke="#63b8ff" d="M696.42,-62.68C777.83,-57.5 921.92,-45.52 1043,-20.75 1045.75,-20.19 1048.62,-19.49 1051.44,-18.72"/>
<polygon fill="#63b8ff" stroke="#63b8ff" points="696.64,-59.16 686.87,-63.28 697.07,-66.15 696.64,-59.16"/>
</a>
</g>
</g>
<!-- Node16 -->
<g id="Node000016" class="node">
<title>Node16</title>
<g id="a_Node000016"><a xlink:href="../../d0/d27/a00239.html" target="_top" xlink:title="pick from a list of choices">
<polygon fill="white" stroke="#666666" points="1197.38,-20.75 1114.62,-20.75 1114.62,0 1197.38,0 1197.38,-20.75"/>
<text xml:space="preserve" text-anchor="middle" x="1156" y="-7.25" font-family="Helvetica,sans-Serif" font-size="10.00">pick_engine.c</text>
</a>
</g>
</g>
<!-- Node1&#45;&gt;Node16 -->
<g id="edge15_Node000001_Node000016" class="edge">
<title>Node1&#45;&gt;Node16</title>
<g id="a_edge15_Node000001_Node000016"><a xlink:title=" ">
<path fill="none" stroke="#63b8ff" d="M696.64,-61.7C787.91,-55.04 959.66,-41.04 1105,-20.75 1108.03,-20.33 1111.16,-19.85 1114.3,-19.34"/>
<polygon fill="#63b8ff" stroke="#63b8ff" points="696.61,-58.19 686.89,-62.4 697.11,-65.17 696.61,-58.19"/>
</a>
</g>
</g>
<!-- Node17 -->
<g id="Node000017" class="node">
<title>Node17</title>
<g id="a_Node000017"><a xlink:href="../../d5/ddf/a00224.html" target="_top" xlink:title="Command Line Start&#45;up for C&#45;Menu View.">
<polygon fill="white" stroke="#666666" points="1262.38,-20.75 1215.62,-20.75 1215.62,0 1262.38,0 1262.38,-20.75"/>
<text xml:space="preserve" text-anchor="middle" x="1239" y="-7.25" font-family="Helvetica,sans-Serif" font-size="10.00">view.c</text>
</a>
</g>
</g>
<!-- Node1&#45;&gt;Node17 -->
<g id="edge16_Node000001_Node000017" class="edge">
<title>Node1&#45;&gt;Node17</title>
<g id="a_edge16_Node000001_Node000017"><a xlink:title=" ">
<path fill="none" stroke="#63b8ff" d="M696.69,-65.17C803.54,-62.67 1023.26,-53.6 1206,-20.75 1209.05,-20.2 1212.22,-19.49 1215.34,-18.7"/>
<polygon fill="#63b8ff" stroke="#63b8ff" points="696.9,-61.66 686.98,-65.38 697.06,-68.66 696.9,-61.66"/>
</a>
</g>
</g>
<!-- Node18 -->
<g id="Node000018" class="node">
<title>Node18</title>
<g id="a_Node000018"><a xlink:href="../../dd/d52/a00221.html" target="_top" xlink:title="The working part of View.">
<polygon fill="white" stroke="#666666" points="1365.88,-20.75 1280.12,-20.75 1280.12,0 1365.88,0 1365.88,-20.75"/>
<text xml:space="preserve" text-anchor="middle" x="1323" y="-7.25" font-family="Helvetica,sans-Serif" font-size="10.00">view_engine.c</text>
</a>
</g>
</g>
<!-- Node1&#45;&gt;Node18 -->
<g id="edge17_Node000001_Node000018" class="edge">
<title>Node1&#45;&gt;Node18</title>
<g id="a_edge17_Node000001_Node000018"><a xlink:title=" ">
<path fill="none" stroke="#63b8ff" d="M696.64,-63.83C812.24,-59.22 1061.89,-46.95 1271,-20.75 1273.82,-20.4 1276.72,-19.99 1279.64,-19.55"/>
<polygon fill="#63b8ff" stroke="#63b8ff" points="696.57,-60.33 686.72,-64.22 696.85,-67.33 696.57,-60.33"/>
</a>
</g>
</g>
</g>
</svg>
