<?xml version="1.0" encoding="UTF-8" standalone="no"?>
<!DOCTYPE svg PUBLIC "-//W3C//DTD SVG 1.1//EN"
 "http://www.w3.org/Graphics/SVG/1.1/DTD/svg11.dtd">
<!-- Generated by graphviz version 14.1.2 (0)
 -->
<!-- Title: verify_dir Pages: 1 -->
<svg width="1687pt" height="486pt"
 viewBox="0.00 0.00 1687.00 486.00" xmlns="http://www.w3.org/2000/svg" xmlns:xlink="http://www.w3.org/1999/xlink">
<g id="graph0" class="graph" transform="scale(1 1) rotate(0) translate(4 481.75)">
<title>verify_dir</title>
<!-- Node1 -->
<g id="Node000001" class="node">
<title>Node1</title>
<g id="a_Node000001"><a xlink:title="Verifies that the directory specified by &quot;spec&quot; exists and is accessible with the permissions specifi...">
<polygon fill="#999999" stroke="#666666" points="1679,-96.75 1616.5,-96.75 1616.5,-76 1679,-76 1679,-96.75"/>
<text xml:space="preserve" text-anchor="middle" x="1647.75" y="-83.25" font-family="Helvetica,sans-Serif" font-size="10.00">verify_dir</text>
</a>
</g>
</g>
<!-- Node2 -->
<g id="Node000002" class="node">
<title>Node2</title>
<g id="a_Node000002"><a xlink:href="../../d0/dfb/a01066.html#gaccd65939c0ce6f0d940c5cf795a1e8fa" target="_top" xlink:title="Main initialization function for MAPP &#45; Menu Application.">
<polygon fill="white" stroke="#666666" points="1070.25,-477.75 960.5,-477.75 960.5,-457 1070.25,-457 1070.25,-477.75"/>
<text xml:space="preserve" text-anchor="middle" x="1015.38" y="-464.25" font-family="Helvetica,sans-Serif" font-size="10.00">mapp_initialization</text>
</a>
</g>
</g>
<!-- Node1&#45;&gt;Node2 -->
<g id="edge1_Node000001_Node000002" class="edge">
<title>Node1&#45;&gt;Node2</title>
<g id="a_edge1_Node000001_Node000002"><a xlink:title=" ">
<path fill="none" stroke="#63b8ff" d="M1640.83,-107.9C1620.68,-175.87 1548.11,-381.38 1407.12,-381.38 1407.12,-381.38 1407.12,-381.38 1265,-381.38 1219.44,-381.38 1093.9,-433.6 1040.7,-456.66"/>
<polygon fill="#63b8ff" stroke="#63b8ff" points="1644.08,-109.26 1643.47,-98.68 1637.35,-107.33 1644.08,-109.26"/>
</a>
</g>
</g>
<!-- Node4 -->
<g id="Node000004" class="node">
<title>Node4</title>
<g id="a_Node000004"><a xlink:href="../../de/de6/a01063.html#ga8d34fd1e4f0b6caab029f02814092794" target="_top" xlink:title="If directory doesn&#39;t exist, make it.">
<polygon fill="white" stroke="#666666" points="1558.75,-39.75 1509,-39.75 1509,-19 1558.75,-19 1558.75,-39.75"/>
<text xml:space="preserve" text-anchor="middle" x="1533.88" y="-26.25" font-family="Helvetica,sans-Serif" font-size="10.00">mk_dir</text>
</a>
</g>
</g>
<!-- Node1&#45;&gt;Node4 -->
<g id="edge3_Node000001_Node000004" class="edge">
<title>Node1&#45;&gt;Node4</title>
<g id="a_edge3_Node000001_Node000004"><a xlink:title=" ">
<path fill="none" stroke="#63b8ff" d="M1615.22,-70.31C1596.32,-60.68 1572.8,-48.7 1556.1,-40.19"/>
<polygon fill="#63b8ff" stroke="#63b8ff" points="1613.6,-73.41 1624.1,-74.83 1616.77,-67.17 1613.6,-73.41"/>
</a>
</g>
</g>
<!-- Node22 -->
<g id="Node000022" class="node">
<title>Node22</title>
<g id="a_Node000022"><a xlink:href="../../d1/de6/a01068.html#ga75ce293fe4e007a3337a190647408000" target="_top" xlink:title="Verify file specification argument.">
<polygon fill="white" stroke="#666666" points="1580.5,-96.75 1487.25,-96.75 1487.25,-76 1580.5,-76 1580.5,-96.75"/>
<text xml:space="preserve" text-anchor="middle" x="1533.88" y="-83.25" font-family="Helvetica,sans-Serif" font-size="10.00">verify_spec_arg</text>
</a>
</g>
</g>
<!-- Node1&#45;&gt;Node22 -->
<g id="edge32_Node000001_Node000022" class="edge">
<title>Node1&#45;&gt;Node22</title>
<g id="a_edge32_Node000001_Node000022"><a xlink:title=" ">
<path fill="none" stroke="#63b8ff" d="M1604.76,-86.38C1596.99,-86.38 1588.83,-86.38 1580.94,-86.38"/>
<polygon fill="#63b8ff" stroke="#63b8ff" points="1604.67,-89.88 1614.67,-86.38 1604.67,-82.88 1604.67,-89.88"/>
</a>
</g>
</g>
<!-- Node3 -->
<g id="Node000003" class="node">
<title>Node3</title>
<g id="a_Node000003"><a xlink:href="../../df/d59/a01001.html#a3c04138a5bfe5d72780bb7e82a18e627" target="_top" xlink:title=" ">
<polygon fill="white" stroke="#666666" points="59.87,-344.75 19.12,-344.75 19.12,-324 59.87,-324 59.87,-344.75"/>
<text xml:space="preserve" text-anchor="middle" x="39.5" y="-331.25" font-family="Helvetica,sans-Serif" font-size="10.00">main</text>
</a>
</g>
</g>
<!-- Node2&#45;&gt;Node3 -->
<g id="edge2_Node000002_Node000003" class="edge">
<title>Node2&#45;&gt;Node3</title>
<g id="a_edge2_Node000002_Node000003"><a xlink:title=" ">
<path fill="none" stroke="#63b8ff" d="M948.88,-467.38C894.04,-467.38 813.73,-467.38 743.62,-467.38 743.62,-467.38 743.62,-467.38 293.25,-467.38 213.31,-467.38 183.04,-485.33 115,-443.38 76.37,-419.55 52.93,-367.38 44.29,-344.96"/>
<polygon fill="#63b8ff" stroke="#63b8ff" points="948.67,-470.88 958.67,-467.38 948.67,-463.88 948.67,-470.88"/>
</a>
</g>
</g>
<!-- Node5 -->
<g id="Node000005" class="node">
<title>Node5</title>
<g id="a_Node000005"><a xlink:href="../../dd/d80/a01075.html#ga2ffea5674e85f124a70e19f745a66583" target="_top" xlink:title="use form to enter a file specification">
<polygon fill="white" stroke="#666666" points="1451.25,-20.75 1361,-20.75 1361,0 1451.25,0 1451.25,-20.75"/>
<text xml:space="preserve" text-anchor="middle" x="1406.12" y="-7.25" font-family="Helvetica,sans-Serif" font-size="10.00">enter_file_spec</text>
</a>
</g>
</g>
<!-- Node4&#45;&gt;Node5 -->
<g id="edge4_Node000004_Node000005" class="edge">
<title>Node4&#45;&gt;Node5</title>
<g id="a_edge4_Node000004_Node000005"><a xlink:title=" ">
<path fill="none" stroke="#63b8ff" d="M1497.33,-24C1483.14,-21.86 1466.64,-19.37 1451.66,-17.1"/>
<polygon fill="#63b8ff" stroke="#63b8ff" points="1496.72,-27.45 1507.13,-25.49 1497.77,-20.53 1496.72,-27.45"/>
</a>
</g>
</g>
<!-- Node6 -->
<g id="Node000006" class="node">
<title>Node6</title>
<g id="a_Node000006"><a xlink:href="../../dd/d80/a01075.html#ga9c4b3ba5f73c18b486646c62b933972a" target="_top" xlink:title="Main Command Processing Loop for View.">
<polygon fill="white" stroke="#666666" points="1325,-172.75 1207,-172.75 1207,-152 1325,-152 1325,-172.75"/>
<text xml:space="preserve" text-anchor="middle" x="1266" y="-159.25" font-family="Helvetica,sans-Serif" font-size="10.00">view_cmd_processor</text>
</a>
</g>
</g>
<!-- Node5&#45;&gt;Node6 -->
<g id="edge5_Node000005_Node000006" class="edge">
<title>Node5&#45;&gt;Node6</title>
<g id="a_edge5_Node000005_Node000006"><a xlink:title=" ">
<path fill="none" stroke="#63b8ff" d="M1388.22,-28.98C1358.94,-61.2 1299.69,-126.4 1276.56,-151.85"/>
<polygon fill="#63b8ff" stroke="#63b8ff" points="1390.48,-31.7 1394.61,-21.94 1385.3,-26.99 1390.48,-31.7"/>
</a>
</g>
</g>
<!-- Node7 -->
<g id="Node000007" class="node">
<title>Node7</title>
<g id="a_Node000007"><a xlink:href="../../dd/d80/a01075.html#ga0bd4dc056ab5010547129bb87819789b" target="_top" xlink:title="Start view.">
<polygon fill="white" stroke="#666666" points="1168.75,-229.75 1108.5,-229.75 1108.5,-209 1168.75,-209 1168.75,-229.75"/>
<text xml:space="preserve" text-anchor="middle" x="1138.62" y="-216.25" font-family="Helvetica,sans-Serif" font-size="10.00">view_file</text>
</a>
</g>
</g>
<!-- Node6&#45;&gt;Node7 -->
<g id="edge6_Node000006_Node000007" class="edge">
<title>Node6&#45;&gt;Node7</title>
<g id="a_edge6_Node000006_Node000007"><a xlink:title=" ">
<path fill="none" stroke="#63b8ff" d="M1230.84,-177.91C1209.47,-187.62 1182.47,-199.89 1163.41,-208.56"/>
<polygon fill="#63b8ff" stroke="#63b8ff" points="1232.09,-181.18 1239.74,-173.86 1229.19,-174.81 1232.09,-181.18"/>
</a>
</g>
</g>
<!-- Node7&#45;&gt;Node3 -->
<g id="edge7_Node000007_Node000003" class="edge">
<title>Node7&#45;&gt;Node3</title>
<g id="a_edge7_Node000007_Node000003"><a xlink:title=" ">
<path fill="none" stroke="#63b8ff" d="M1110.96,-236.13C1109.35,-237.21 1107.77,-238.3 1106.25,-239.38 1089.69,-251.06 1086.86,-255.75 1070.25,-267.38 985.25,-326.85 976.24,-391.38 872.5,-391.38 872.5,-391.38 872.5,-391.38 293.25,-391.38 212.84,-391.38 192.83,-380.58 115,-360.38 96.04,-355.45 75.01,-347.92 60.15,-342.22"/>
<polygon fill="#63b8ff" stroke="#63b8ff" points="1112.46,-239.33 1118.91,-230.92 1108.62,-233.47 1112.46,-239.33"/>
</a>
</g>
</g>
<!-- Node8 -->
<g id="Node000008" class="node">
<title>Node8</title>
<g id="a_Node000008"><a xlink:href="../../df/d39/a00950.html#a6a9e3f5ca1967632b7d72b402dd499b4" target="_top" xlink:title=" ">
<polygon fill="white" stroke="#666666" points="1052.62,-258.75 978.12,-258.75 978.12,-238 1052.62,-238 1052.62,-258.75"/>
<text xml:space="preserve" text-anchor="middle" x="1015.38" y="-245.25" font-family="Helvetica,sans-Serif" font-size="10.00">popup_view</text>
</a>
</g>
</g>
<!-- Node7&#45;&gt;Node8 -->
<g id="edge8_Node000007_Node000008" class="edge">
<title>Node7&#45;&gt;Node8</title>
<g id="a_edge8_Node000007_Node000008"><a xlink:title=" ">
<path fill="none" stroke="#63b8ff" d="M1097.21,-229.04C1082.87,-232.47 1066.82,-236.31 1052.83,-239.66"/>
<polygon fill="#63b8ff" stroke="#63b8ff" points="1097.89,-232.48 1106.8,-226.75 1096.26,-225.67 1097.89,-232.48"/>
</a>
</g>
</g>
<!-- Node8&#45;&gt;Node3 -->
<g id="edge28_Node000008_Node000003" class="edge">
<title>Node8&#45;&gt;Node3</title>
<g id="a_edge28_Node000008_Node000003"><a xlink:title=" ">
<path fill="none" stroke="#63b8ff" d="M996.26,-267.12C979.28,-283.53 952.39,-306.68 924.5,-319.38 850.05,-353.27 825.42,-353.38 743.62,-353.38 743.62,-353.38 743.62,-353.38 293.25,-353.38 206.12,-353.38 102.57,-342.01 60.13,-336.86"/>
<polygon fill="#63b8ff" stroke="#63b8ff" points="998.49,-269.84 1003.11,-260.31 993.55,-264.88 998.49,-269.84"/>
</a>
</g>
</g>
<!-- Node9 -->
<g id="Node000009" class="node">
<title>Node9</title>
<g id="a_Node000009"><a xlink:href="../../d6/d6a/a01072.html#gaeebc4c0b94ca97d753e10a0cd1798730" target="_top" xlink:title="Displays the help screen for the pick interface using view.">
<polygon fill="white" stroke="#666666" points="923,-287.75 820,-287.75 820,-267 923,-267 923,-287.75"/>
<text xml:space="preserve" text-anchor="middle" x="871.5" y="-274.25" font-family="Helvetica,sans-Serif" font-size="10.00">display_pick_help</text>
</a>
</g>
</g>
<!-- Node8&#45;&gt;Node9 -->
<g id="edge9_Node000008_Node000009" class="edge">
<title>Node8&#45;&gt;Node9</title>
<g id="a_edge9_Node000008_Node000009"><a xlink:title=" ">
<path fill="none" stroke="#63b8ff" d="M966.95,-258.07C952.94,-260.93 937.56,-264.08 923.35,-266.98"/>
<polygon fill="#63b8ff" stroke="#63b8ff" points="967.26,-261.58 976.36,-256.15 965.86,-254.72 967.26,-261.58"/>
</a>
</g>
</g>
<!-- Node14 -->
<g id="Node000014" class="node">
<title>Node14</title>
<g id="a_Node000014"><a xlink:href="../../d8/d18/a01069.html#gaa5d0e30e7036b72b51c843d0a7e486a1" target="_top" xlink:title="Processes user input for the menu system.">
<polygon fill="white" stroke="#666666" points="355.5,-211.75 233,-211.75 233,-191 355.5,-191 355.5,-211.75"/>
<text xml:space="preserve" text-anchor="middle" x="294.25" y="-198.25" font-family="Helvetica,sans-Serif" font-size="10.00">menu_cmd_processor</text>
</a>
</g>
</g>
<!-- Node8&#45;&gt;Node14 -->
<g id="edge29_Node000008_Node000014" class="edge">
<title>Node8&#45;&gt;Node14</title>
<g id="a_edge29_Node000008_Node000014"><a xlink:title=" ">
<path fill="none" stroke="#63b8ff" d="M966.51,-245.25C839.86,-236.97 496.09,-214.5 355.95,-205.34"/>
<polygon fill="#63b8ff" stroke="#63b8ff" points="966.01,-248.72 976.21,-245.88 966.46,-241.74 966.01,-248.72"/>
</a>
</g>
</g>
<!-- Node17 -->
<g id="Node000017" class="node">
<title>Node17</title>
<g id="a_Node000017"><a xlink:href="../../d6/d6a/a01072.html#gaf7fcbb1c8b67a4d11c86ba7209f397c2" target="_top" xlink:title="Executes specified command with selected objects as arguments.">
<polygon fill="white" stroke="#666666" points="782.5,-325.75 702.75,-325.75 702.75,-305 782.5,-305 782.5,-325.75"/>
<text xml:space="preserve" text-anchor="middle" x="742.62" y="-312.25" font-family="Helvetica,sans-Serif" font-size="10.00">exec_objects</text>
</a>
</g>
</g>
<!-- Node8&#45;&gt;Node17 -->
<g id="edge20_Node000008_Node000017" class="edge">
<title>Node8&#45;&gt;Node17</title>
<g id="a_edge20_Node000008_Node000017"><a xlink:title=" ">
<path fill="none" stroke="#63b8ff" d="M989.22,-265.22C971.81,-276 947.68,-289.26 924.5,-296.38 877.26,-310.86 820.18,-314.74 782.95,-315.56"/>
<polygon fill="#63b8ff" stroke="#63b8ff" points="990.81,-268.36 997.37,-260.03 987.05,-262.45 990.81,-268.36"/>
</a>
</g>
</g>
<!-- Node18 -->
<g id="Node000018" class="node">
<title>Node18</title>
<g id="a_Node000018"><a xlink:href="../../d4/d8a/a01062.html#gada302551bf41bf8ed6132fd34328a47e" target="_top" xlink:title="Form main processing loop.">
<polygon fill="white" stroke="#666666" points="910.25,-211.75 832.75,-211.75 832.75,-191 910.25,-191 910.25,-211.75"/>
<text xml:space="preserve" text-anchor="middle" x="871.5" y="-198.25" font-family="Helvetica,sans-Serif" font-size="10.00">form_engine</text>
</a>
</g>
</g>
<!-- Node8&#45;&gt;Node18 -->
<g id="edge22_Node000008_Node000018" class="edge">
<title>Node8&#45;&gt;Node18</title>
<g id="a_edge22_Node000008_Node000018"><a xlink:title=" ">
<path fill="none" stroke="#63b8ff" d="M971.09,-234.04C949.78,-226.98 924.51,-218.61 904.9,-212.11"/>
<polygon fill="#63b8ff" stroke="#63b8ff" points="969.8,-237.29 980.39,-237.12 972,-230.65 969.8,-237.29"/>
</a>
</g>
</g>
<!-- Node21 -->
<g id="Node000021" class="node">
<title>Node21</title>
<g id="a_Node000021"><a xlink:href="../../d0/dd3/a01077.html#gad997ba9f8591568c77291fb1b44601b2" target="_top" xlink:title="Display View Help File.">
<polygon fill="white" stroke="#666666" points="924.5,-172.75 818.5,-172.75 818.5,-152 924.5,-152 924.5,-172.75"/>
<text xml:space="preserve" text-anchor="middle" x="871.5" y="-159.25" font-family="Helvetica,sans-Serif" font-size="10.00">view_display_help</text>
</a>
</g>
</g>
<!-- Node8&#45;&gt;Node21 -->
<g id="edge30_Node000008_Node000021" class="edge">
<title>Node8&#45;&gt;Node21</title>
<g id="a_edge30_Node000008_Node000021"><a xlink:title=" ">
<path fill="none" stroke="#63b8ff" d="M993.18,-230.28C975.63,-215.94 949.58,-196.09 924.5,-182.38 918.3,-178.99 911.41,-175.91 904.73,-173.23"/>
<polygon fill="#63b8ff" stroke="#63b8ff" points="990.91,-232.95 1000.84,-236.65 995.39,-227.56 990.91,-232.95"/>
</a>
</g>
</g>
<!-- Node10 -->
<g id="Node000010" class="node">
<title>Node10</title>
<g id="a_Node000010"><a xlink:href="../../d6/d6a/a01072.html#gabb0969a6d1c7e78be46c3b325754c802" target="_top" xlink:title="Main loop to handle user input and interactions for pick interface.">
<polygon fill="white" stroke="#666666" points="765.25,-286.75 720,-286.75 720,-266 765.25,-266 765.25,-286.75"/>
<text xml:space="preserve" text-anchor="middle" x="742.62" y="-273.25" font-family="Helvetica,sans-Serif" font-size="10.00">picker</text>
</a>
</g>
</g>
<!-- Node9&#45;&gt;Node10 -->
<g id="edge10_Node000009_Node000010" class="edge">
<title>Node9&#45;&gt;Node10</title>
<g id="a_edge10_Node000009_Node000010"><a xlink:title=" ">
<path fill="none" stroke="#63b8ff" d="M808.52,-276.89C793.16,-276.77 777.69,-276.64 765.71,-276.55"/>
<polygon fill="#63b8ff" stroke="#63b8ff" points="808.09,-280.38 818.11,-276.96 808.14,-273.38 808.09,-280.38"/>
</a>
</g>
</g>
<!-- Node11 -->
<g id="Node000011" class="node">
<title>Node11</title>
<g id="a_Node000011"><a xlink:href="../../d6/d6a/a01072.html#gab97dcab41017c5132f52b682437a151e" target="_top" xlink:title="Initializes pick interface, calculates window size and position, and enters picker loop.">
<polygon fill="white" stroke="#666666" points="666.75,-286.75 592.25,-286.75 592.25,-266 666.75,-266 666.75,-286.75"/>
<text xml:space="preserve" text-anchor="middle" x="629.5" y="-273.25" font-family="Helvetica,sans-Serif" font-size="10.00">pick_engine</text>
</a>
</g>
</g>
<!-- Node10&#45;&gt;Node11 -->
<g id="edge11_Node000010_Node000011" class="edge">
<title>Node10&#45;&gt;Node11</title>
<g id="a_edge11_Node000010_Node000011"><a xlink:title=" ">
<path fill="none" stroke="#63b8ff" d="M708.32,-276.38C695.25,-276.38 680.2,-276.38 666.85,-276.38"/>
<polygon fill="#63b8ff" stroke="#63b8ff" points="708.16,-279.88 718.16,-276.38 708.16,-272.88 708.16,-279.88"/>
</a>
</g>
</g>
<!-- Node12 -->
<g id="Node000012" class="node">
<title>Node12</title>
<g id="a_Node000012"><a xlink:href="../../d6/d6a/a01072.html#ga1b2ee87543245e612c1710ea58930a17" target="_top" xlink:title="Initializes pick structure and opens pick input file or pipe.">
<polygon fill="white" stroke="#666666" points="556.25,-258.75 499,-258.75 499,-238 556.25,-238 556.25,-258.75"/>
<text xml:space="preserve" text-anchor="middle" x="527.62" y="-245.25" font-family="Helvetica,sans-Serif" font-size="10.00">init_pick</text>
</a>
</g>
</g>
<!-- Node11&#45;&gt;Node12 -->
<g id="edge12_Node000011_Node000012" class="edge">
<title>Node11&#45;&gt;Node12</title>
<g id="a_edge12_Node000011_Node000012"><a xlink:title=" ">
<path fill="none" stroke="#63b8ff" d="M580.98,-263.05C572.59,-260.7 564.1,-258.32 556.48,-256.18"/>
<polygon fill="#63b8ff" stroke="#63b8ff" points="579.85,-266.37 590.42,-265.7 581.74,-259.63 579.85,-266.37"/>
</a>
</g>
</g>
<!-- Node12&#45;&gt;Node3 -->
<g id="edge13_Node000012_Node000003" class="edge">
<title>Node12&#45;&gt;Node3</title>
<g id="a_edge13_Node000012_Node000003"><a xlink:title=" ">
<path fill="none" stroke="#63b8ff" d="M487.64,-254.71C479.5,-255.97 470.98,-257.26 463,-258.38 308.67,-280.03 265.2,-259.81 115,-301.38 95.64,-306.73 74.84,-316.3 60.15,-323.76"/>
<polygon fill="#63b8ff" stroke="#63b8ff" points="487.95,-258.2 497.29,-253.19 486.86,-251.29 487.95,-258.2"/>
</a>
</g>
</g>
<!-- Node13 -->
<g id="Node000013" class="node">
<title>Node13</title>
<g id="a_Node000013"><a xlink:href="../../df/d39/a00950.html#ae9bfdce1fecee7783df822358ca938b0" target="_top" xlink:title=" ">
<polygon fill="white" stroke="#666666" points="463,-249.75 391.5,-249.75 391.5,-229 463,-229 463,-249.75"/>
<text xml:space="preserve" text-anchor="middle" x="427.25" y="-236.25" font-family="Helvetica,sans-Serif" font-size="10.00">popup_pick</text>
</a>
</g>
</g>
<!-- Node12&#45;&gt;Node13 -->
<g id="edge14_Node000012_Node000013" class="edge">
<title>Node12&#45;&gt;Node13</title>
<g id="a_edge14_Node000012_Node000013"><a xlink:title=" ">
<path fill="none" stroke="#63b8ff" d="M487.38,-244.78C479.41,-244.06 471.08,-243.29 463.27,-242.58"/>
<polygon fill="#63b8ff" stroke="#63b8ff" points="486.91,-248.26 497.19,-245.68 487.55,-241.29 486.91,-248.26"/>
</a>
</g>
</g>
<!-- Node13&#45;&gt;Node14 -->
<g id="edge15_Node000013_Node000014" class="edge">
<title>Node13&#45;&gt;Node14</title>
<g id="a_edge15_Node000013_Node000014"><a xlink:title=" ">
<path fill="none" stroke="#63b8ff" d="M380.54,-226.12C364.76,-221.54 347.29,-216.47 332.29,-212.12"/>
<polygon fill="#63b8ff" stroke="#63b8ff" points="379.11,-229.35 389.69,-228.77 381.06,-222.62 379.11,-229.35"/>
</a>
</g>
</g>
<!-- Node15 -->
<g id="Node000015" class="node">
<title>Node15</title>
<g id="a_Node000015"><a xlink:href="../../d8/d18/a01069.html#ga7d7973d7aac92759dcc86ec52bb038f4" target="_top" xlink:title="The main loop of the menu system.">
<polygon fill="white" stroke="#666666" points="197,-211.75 115,-211.75 115,-191 197,-191 197,-211.75"/>
<text xml:space="preserve" text-anchor="middle" x="156" y="-198.25" font-family="Helvetica,sans-Serif" font-size="10.00">menu_engine</text>
</a>
</g>
</g>
<!-- Node14&#45;&gt;Node15 -->
<g id="edge16_Node000014_Node000015" class="edge">
<title>Node14&#45;&gt;Node15</title>
<g id="a_edge16_Node000014_Node000015"><a xlink:title=" ">
<path fill="none" stroke="#63b8ff" d="M221.45,-194.63C213.21,-194.67 205.04,-194.84 197.42,-195.15"/>
<polygon fill="#63b8ff" stroke="#63b8ff" points="221.17,-198.13 231.18,-194.66 221.19,-191.13 221.17,-198.13"/>
</a>
</g>
</g>
<!-- Node15&#45;&gt;Node3 -->
<g id="edge17_Node000015_Node000003" class="edge">
<title>Node15&#45;&gt;Node3</title>
<g id="a_edge17_Node000015_Node000003"><a xlink:title=" ">
<path fill="none" stroke="#63b8ff" d="M123.88,-218.17C120.74,-220.41 117.71,-222.82 115,-225.38 82.64,-255.87 56.54,-302.74 45.8,-323.66"/>
<polygon fill="#63b8ff" stroke="#63b8ff" points="125.67,-221.18 132.19,-212.83 121.88,-215.3 125.67,-221.18"/>
</a>
</g>
</g>
<!-- Node15&#45;&gt;Node14 -->
<g id="edge18_Node000015_Node000014" class="edge">
<title>Node15&#45;&gt;Node14</title>
<g id="a_edge18_Node000015_Node000014"><a xlink:title=" ">
<path fill="none" stroke="#63b8ff" d="M208.93,-207.95C216.7,-208.12 224.77,-208.17 232.7,-208.09"/>
<polygon fill="#63b8ff" stroke="#63b8ff" points="209.04,-204.45 198.94,-207.65 208.83,-211.45 209.04,-204.45"/>
</a>
</g>
</g>
<!-- Node16 -->
<g id="Node000016" class="node">
<title>Node16</title>
<g id="a_Node000016"><a xlink:href="../../df/d39/a00950.html#a7c1184b6eda240a8164fd85b7581ff82" target="_top" xlink:title=" ">
<polygon fill="white" stroke="#666666" points="79,-192.75 0,-192.75 0,-172 79,-172 79,-192.75"/>
<text xml:space="preserve" text-anchor="middle" x="39.5" y="-179.25" font-family="Helvetica,sans-Serif" font-size="10.00">popup_menu</text>
</a>
</g>
</g>
<!-- Node15&#45;&gt;Node16 -->
<g id="edge19_Node000015_Node000016" class="edge">
<title>Node15&#45;&gt;Node16</title>
<g id="a_edge19_Node000015_Node000016"><a xlink:title=" ">
<path fill="none" stroke="#63b8ff" d="M103.38,-192.81C95.31,-191.47 87.08,-190.1 79.35,-188.82"/>
<polygon fill="#63b8ff" stroke="#63b8ff" points="102.7,-196.24 113.14,-194.43 103.85,-189.34 102.7,-196.24"/>
</a>
</g>
</g>
<!-- Node17&#45;&gt;Node11 -->
<g id="edge21_Node000017_Node000011" class="edge">
<title>Node17&#45;&gt;Node11</title>
<g id="a_edge21_Node000017_Node000011"><a xlink:title=" ">
<path fill="none" stroke="#63b8ff" d="M700.17,-300.83C687.28,-296.3 673.31,-291.4 661.29,-287.18"/>
<polygon fill="#63b8ff" stroke="#63b8ff" points="698.65,-304 709.24,-304.01 700.97,-297.4 698.65,-304"/>
</a>
</g>
</g>
<!-- Node19 -->
<g id="Node000019" class="node">
<title>Node19</title>
<g id="a_Node000019"><a xlink:href="../../d4/d8a/a01062.html#gabf1be20a8aad5f7ba09172ac1434a110" target="_top" xlink:title="Initialize form data structure and parse description file.">
<polygon fill="white" stroke="#666666" points="772.75,-172.75 712.5,-172.75 712.5,-152 772.75,-152 772.75,-172.75"/>
<text xml:space="preserve" text-anchor="middle" x="742.62" y="-159.25" font-family="Helvetica,sans-Serif" font-size="10.00">init_form</text>
</a>
</g>
</g>
<!-- Node18&#45;&gt;Node19 -->
<g id="edge23_Node000018_Node000019" class="edge">
<title>Node18&#45;&gt;Node19</title>
<g id="a_edge23_Node000018_Node000019"><a xlink:title=" ">
<path fill="none" stroke="#63b8ff" d="M824.27,-187.16C807.23,-181.92 788.38,-176.13 773.2,-171.47"/>
<polygon fill="#63b8ff" stroke="#63b8ff" points="823.12,-190.47 833.71,-190.07 825.18,-183.78 823.12,-190.47"/>
</a>
</g>
</g>
<!-- Node19&#45;&gt;Node3 -->
<g id="edge24_Node000019_Node000003" class="edge">
<title>Node19&#45;&gt;Node3</title>
<g id="a_edge24_Node000019_Node000003"><a xlink:title=" ">
<path fill="none" stroke="#63b8ff" d="M718.1,-179.71C684.21,-203.72 618.83,-246.48 556.25,-267.38 370.83,-329.29 130.16,-334.4 60.3,-334.5"/>
<polygon fill="#63b8ff" stroke="#63b8ff" points="719.87,-182.75 725.95,-174.07 715.79,-177.06 719.87,-182.75"/>
</a>
</g>
</g>
<!-- Node20 -->
<g id="Node000020" class="node">
<title>Node20</title>
<g id="a_Node000020"><a xlink:href="../../df/d39/a00950.html#a60c229fa5ec76fec4c9398713f5d94b0" target="_top" xlink:title=" ">
<polygon fill="white" stroke="#666666" points="666.75,-20.75 592.25,-20.75 592.25,0 666.75,0 666.75,-20.75"/>
<text xml:space="preserve" text-anchor="middle" x="629.5" y="-7.25" font-family="Helvetica,sans-Serif" font-size="10.00">popup_form</text>
</a>
</g>
</g>
<!-- Node19&#45;&gt;Node20 -->
<g id="edge25_Node000019_Node000020" class="edge">
<title>Node19&#45;&gt;Node20</title>
<g id="a_edge25_Node000019_Node000020"><a xlink:title=" ">
<path fill="none" stroke="#63b8ff" d="M727.42,-142.94C703.65,-110.44 656.64,-46.14 638.19,-20.9"/>
<polygon fill="#63b8ff" stroke="#63b8ff" points="724.37,-144.7 733.09,-150.71 730.02,-140.57 724.37,-144.7"/>
</a>
</g>
</g>
<!-- Node20&#45;&gt;Node5 -->
<g id="edge26_Node000020_Node000005" class="edge">
<title>Node20&#45;&gt;Node5</title>
<g id="a_edge26_Node000020_Node000005"><a xlink:title=" ">
<path fill="none" stroke="#63b8ff" d="M678.47,-10.38C726.92,-10.38 803.91,-10.38 870.5,-10.38 1139.62,-10.38 1139.62,-10.38 1139.62,-10.38 1217.52,-10.38 1308.28,-10.38 1360.97,-10.38"/>
<polygon fill="#63b8ff" stroke="#63b8ff" points="678.61,-6.88 668.61,-10.38 678.61,-13.88 678.61,-6.88"/>
</a>
</g>
</g>
<!-- Node20&#45;&gt;Node14 -->
<g id="edge27_Node000020_Node000014" class="edge">
<title>Node20&#45;&gt;Node14</title>
<g id="a_edge27_Node000020_Node000014"><a xlink:title=" ">
<path fill="none" stroke="#63b8ff" d="M580.7,-13.47C555.47,-16.51 524.54,-22.51 499,-34.38 412.31,-74.65 331.36,-160.47 304.57,-190.63"/>
<polygon fill="#63b8ff" stroke="#63b8ff" points="580.77,-16.98 590.34,-12.44 580.03,-10.02 580.77,-16.98"/>
</a>
</g>
</g>
<!-- Node21&#45;&gt;Node6 -->
<g id="edge31_Node000021_Node000006" class="edge">
<title>Node21&#45;&gt;Node6</title>
<g id="a_edge31_Node000021_Node000006"><a xlink:title=" ">
<path fill="none" stroke="#63b8ff" d="M936,-162.38C1010.83,-162.38 1134.15,-162.38 1206.66,-162.38"/>
<polygon fill="#63b8ff" stroke="#63b8ff" points="936.39,-158.88 926.39,-162.38 936.39,-165.88 936.39,-158.88"/>
</a>
</g>
</g>
<!-- Node22&#45;&gt;Node5 -->
<g id="edge33_Node000022_Node000005" class="edge">
<title>Node22&#45;&gt;Node5</title>
<g id="a_edge33_Node000022_Node000005"><a xlink:title=" ">
<path fill="none" stroke="#63b8ff" d="M1507.6,-69.64C1491.62,-59.21 1470.43,-45.68 1451.25,-34.38 1443.59,-29.86 1435.03,-25.13 1427.5,-21.08"/>
<polygon fill="#63b8ff" stroke="#63b8ff" points="1505.27,-72.3 1515.55,-74.85 1509.11,-66.44 1505.27,-72.3"/>
</a>
</g>
</g>
<!-- Node23 -->
<g id="Node000023" class="node">
<title>Node23</title>
<g id="a_Node000023"><a xlink:href="../../d1/de6/a01068.html#ga4da25f98e58860d93b737cdc1997e9e9" target="_top" xlink:title="Initialize Form file specifications.">
<polygon fill="white" stroke="#666666" points="1449.38,-135.75 1362.88,-135.75 1362.88,-115 1449.38,-115 1449.38,-135.75"/>
<text xml:space="preserve" text-anchor="middle" x="1406.12" y="-122.25" font-family="Helvetica,sans-Serif" font-size="10.00">init_form_files</text>
</a>
</g>
</g>
<!-- Node22&#45;&gt;Node23 -->
<g id="edge34_Node000022_Node000023" class="edge">
<title>Node22&#45;&gt;Node23</title>
<g id="a_edge34_Node000022_Node000023"><a xlink:title=" ">
<path fill="none" stroke="#63b8ff" d="M1487.27,-100.52C1472.33,-105.15 1455.98,-110.22 1441.97,-114.57"/>
<polygon fill="#63b8ff" stroke="#63b8ff" points="1487.89,-103.99 1496.4,-97.69 1485.81,-97.31 1487.89,-103.99"/>
</a>
</g>
</g>
<!-- Node25 -->
<g id="Node000025" class="node">
<title>Node25</title>
<g id="a_Node000025"><a xlink:href="../../d1/de6/a01068.html#ga6a3ca11276b38608f15cef7c3962143e" target="_top" xlink:title="Initialize Menu file specifications.">
<polygon fill="white" stroke="#666666" points="1311.5,-58.75 1220.5,-58.75 1220.5,-38 1311.5,-38 1311.5,-58.75"/>
<text xml:space="preserve" text-anchor="middle" x="1266" y="-45.25" font-family="Helvetica,sans-Serif" font-size="10.00">init_menu_files</text>
</a>
</g>
</g>
<!-- Node22&#45;&gt;Node25 -->
<g id="edge37_Node000022_Node000025" class="edge">
<title>Node22&#45;&gt;Node25</title>
<g id="a_edge37_Node000022_Node000025"><a xlink:title=" ">
<path fill="none" stroke="#63b8ff" d="M1480.12,-73.07C1470.55,-70.95 1460.64,-68.94 1451.25,-67.38 1403.99,-59.47 1349.33,-54.33 1311.89,-51.42"/>
<polygon fill="#63b8ff" stroke="#63b8ff" points="1479.13,-76.44 1489.66,-75.26 1480.69,-69.61 1479.13,-76.44"/>
</a>
</g>
</g>
<!-- Node27 -->
<g id="Node000027" class="node">
<title>Node27</title>
<g id="a_Node000027"><a xlink:href="../../d1/de6/a01068.html#gab40bb77758b149f33cbde8063f341b00" target="_top" xlink:title="Initialize Pick file specifications.">
<polygon fill="white" stroke="#666666" points="1447.88,-96.75 1364.38,-96.75 1364.38,-76 1447.88,-76 1447.88,-96.75"/>
<text xml:space="preserve" text-anchor="middle" x="1406.12" y="-83.25" font-family="Helvetica,sans-Serif" font-size="10.00">init_pick_files</text>
</a>
</g>
</g>
<!-- Node22&#45;&gt;Node27 -->
<g id="edge42_Node000022_Node000027" class="edge">
<title>Node22&#45;&gt;Node27</title>
<g id="a_edge42_Node000022_Node000027"><a xlink:title=" ">
<path fill="none" stroke="#63b8ff" d="M1475.33,-86.38C1466.19,-86.38 1456.9,-86.38 1448.24,-86.38"/>
<polygon fill="#63b8ff" stroke="#63b8ff" points="1475.25,-89.88 1485.25,-86.38 1475.25,-82.88 1475.25,-89.88"/>
</a>
</g>
</g>
<!-- Node29 -->
<g id="Node000029" class="node">
<title>Node29</title>
<g id="a_Node000029"><a xlink:href="../../d1/de6/a01068.html#gac5213483d722f8f1bd5c28fbbb55369e" target="_top" xlink:title="Initialize View file specifications.">
<polygon fill="white" stroke="#666666" points="1309.25,-240.75 1222.75,-240.75 1222.75,-220 1309.25,-220 1309.25,-240.75"/>
<text xml:space="preserve" text-anchor="middle" x="1266" y="-227.25" font-family="Helvetica,sans-Serif" font-size="10.00">init_view_files</text>
</a>
</g>
</g>
<!-- Node22&#45;&gt;Node29 -->
<g id="edge45_Node000022_Node000029" class="edge">
<title>Node22&#45;&gt;Node29</title>
<g id="a_edge45_Node000022_Node000029"><a xlink:title=" ">
<path fill="none" stroke="#63b8ff" d="M1510.15,-104.21C1494.18,-116.32 1472.03,-132.28 1451.25,-144.38 1397.56,-175.64 1330.61,-204.56 1294,-219.59"/>
<polygon fill="#63b8ff" stroke="#63b8ff" points="1512.24,-107.02 1518.03,-98.16 1507.97,-101.47 1512.24,-107.02"/>
</a>
</g>
</g>
<!-- Node24 -->
<g id="Node000024" class="node">
<title>Node24</title>
<g id="a_Node000024"><a xlink:href="../../d1/de6/a01068.html#ga625c89a0ff0ede7fbac1b40c7ac9dbda" target="_top" xlink:title="Create and initialize Form structure.">
<polygon fill="white" stroke="#666666" points="1171,-134.75 1106.25,-134.75 1106.25,-114 1171,-114 1171,-134.75"/>
<text xml:space="preserve" text-anchor="middle" x="1138.62" y="-121.25" font-family="Helvetica,sans-Serif" font-size="10.00">new_form</text>
</a>
</g>
</g>
<!-- Node23&#45;&gt;Node24 -->
<g id="edge35_Node000023_Node000024" class="edge">
<title>Node23&#45;&gt;Node24</title>
<g id="a_edge35_Node000023_Node000024"><a xlink:title=" ">
<path fill="none" stroke="#63b8ff" d="M1351.04,-125.17C1296.99,-124.97 1215.73,-124.66 1171.35,-124.49"/>
<polygon fill="#63b8ff" stroke="#63b8ff" points="1350.94,-128.67 1360.95,-125.21 1350.97,-121.67 1350.94,-128.67"/>
</a>
</g>
</g>
<!-- Node24&#45;&gt;Node19 -->
<g id="edge36_Node000024_Node000019" class="edge">
<title>Node24&#45;&gt;Node19</title>
<g id="a_edge36_Node000024_Node000019"><a xlink:title=" ">
<path fill="none" stroke="#63b8ff" d="M1094.99,-124.36C1033.53,-124.92 916.65,-128.14 818.5,-143.38 803.39,-145.72 786.89,-149.74 773.24,-153.49"/>
<polygon fill="#63b8ff" stroke="#63b8ff" points="1094.67,-127.86 1104.65,-124.3 1094.62,-120.86 1094.67,-127.86"/>
</a>
</g>
</g>
<!-- Node26 -->
<g id="Node000026" class="node">
<title>Node26</title>
<g id="a_Node000026"><a xlink:href="../../d1/de6/a01068.html#ga861e6162a19e089468fdc2a1479b547f" target="_top" xlink:title="Create and initialize Menu structure.">
<polygon fill="white" stroke="#666666" points="461.88,-173.75 392.62,-173.75 392.62,-153 461.88,-153 461.88,-173.75"/>
<text xml:space="preserve" text-anchor="middle" x="427.25" y="-160.25" font-family="Helvetica,sans-Serif" font-size="10.00">new_menu</text>
</a>
</g>
</g>
<!-- Node25&#45;&gt;Node26 -->
<g id="edge38_Node000025_Node000026" class="edge">
<title>Node25&#45;&gt;Node26</title>
<g id="a_edge38_Node000025_Node000026"><a xlink:title=" ">
<path fill="none" stroke="#63b8ff" d="M1208.79,-48.38C1158.4,-48.38 1082.45,-48.38 1016.38,-48.38 1016.38,-48.38 1016.38,-48.38 628.5,-48.38 545.11,-48.38 465.03,-124.29 437.94,-152.76"/>
<polygon fill="#63b8ff" stroke="#63b8ff" points="1208.57,-51.88 1218.57,-48.38 1208.57,-44.88 1208.57,-51.88"/>
</a>
</g>
</g>
<!-- Node26&#45;&gt;Node3 -->
<g id="edge39_Node000026_Node000003" class="edge">
<title>Node26&#45;&gt;Node3</title>
<g id="a_edge39_Node000026_Node000003"><a xlink:title=" ">
<path fill="none" stroke="#63b8ff" d="M408.52,-181.94C395.17,-194.78 375.75,-211.15 355.5,-220.38 256.69,-265.4 211.85,-214.28 115,-263.38 86,-278.08 60.58,-307.76 48.31,-323.69"/>
<polygon fill="#63b8ff" stroke="#63b8ff" points="410.68,-184.73 415.3,-175.19 405.74,-179.77 410.68,-184.73"/>
</a>
</g>
</g>
<!-- Node26&#45;&gt;Node14 -->
<g id="edge40_Node000026_Node000014" class="edge">
<title>Node26&#45;&gt;Node14</title>
<g id="a_edge40_Node000026_Node000014"><a xlink:title=" ">
<path fill="none" stroke="#63b8ff" d="M381.45,-176.37C365.47,-181.01 347.65,-186.18 332.38,-190.61"/>
<polygon fill="#63b8ff" stroke="#63b8ff" points="382.09,-179.83 390.72,-173.68 380.14,-173.11 382.09,-179.83"/>
</a>
</g>
</g>
<!-- Node26&#45;&gt;Node16 -->
<g id="edge41_Node000026_Node000016" class="edge">
<title>Node26&#45;&gt;Node16</title>
<g id="a_edge41_Node000026_Node000016"><a xlink:title=" ">
<path fill="none" stroke="#63b8ff" d="M381.23,-165.59C304.85,-169.35 151.2,-176.92 79.28,-180.46"/>
<polygon fill="#63b8ff" stroke="#63b8ff" points="381.03,-169.11 390.84,-165.12 380.68,-162.12 381.03,-169.11"/>
</a>
</g>
</g>
<!-- Node28 -->
<g id="Node000028" class="node">
<title>Node28</title>
<g id="a_Node000028"><a xlink:href="../../d1/de6/a01068.html#gaa7928f3771536aa0e27d88479be2cbc8" target="_top" xlink:title="Create and initialize Pick structure.">
<polygon fill="white" stroke="#666666" points="1046.25,-96.75 984.5,-96.75 984.5,-76 1046.25,-76 1046.25,-96.75"/>
<text xml:space="preserve" text-anchor="middle" x="1015.38" y="-83.25" font-family="Helvetica,sans-Serif" font-size="10.00">new_pick</text>
</a>
</g>
</g>
<!-- Node27&#45;&gt;Node28 -->
<g id="edge43_Node000027_Node000028" class="edge">
<title>Node27&#45;&gt;Node28</title>
<g id="a_edge43_Node000027_Node000028"><a xlink:title=" ">
<path fill="none" stroke="#63b8ff" d="M1352.52,-86.38C1269.99,-86.38 1112.73,-86.38 1046.73,-86.38"/>
<polygon fill="#63b8ff" stroke="#63b8ff" points="1352.38,-89.88 1362.38,-86.38 1352.38,-82.88 1352.38,-89.88"/>
</a>
</g>
</g>
<!-- Node28&#45;&gt;Node12 -->
<g id="edge44_Node000028_Node000012" class="edge">
<title>Node28&#45;&gt;Node12</title>
<g id="a_edge44_Node000028_Node000012"><a xlink:title=" ">
<path fill="none" stroke="#63b8ff" d="M973.07,-87.25C893.23,-90.74 714.79,-107.52 592.25,-186.38 569.68,-200.9 548.4,-224.32 537.08,-237.84"/>
<polygon fill="#63b8ff" stroke="#63b8ff" points="972.75,-90.76 982.61,-86.88 972.48,-83.77 972.75,-90.76"/>
</a>
</g>
</g>
<!-- Node30 -->
<g id="Node000030" class="node">
<title>Node30</title>
<g id="a_Node000030"><a xlink:href="../../d1/de6/a01068.html#ga2e67404cd52bddd379a57c50434ac445" target="_top" xlink:title="Create and initialize View structure.">
<polygon fill="white" stroke="#666666" points="1171,-268.75 1106.25,-268.75 1106.25,-248 1171,-248 1171,-268.75"/>
<text xml:space="preserve" text-anchor="middle" x="1138.62" y="-255.25" font-family="Helvetica,sans-Serif" font-size="10.00">new_view</text>
</a>
</g>
</g>
<!-- Node29&#45;&gt;Node30 -->
<g id="edge46_Node000029_Node000030" class="edge">
<title>Node29&#45;&gt;Node30</title>
<g id="a_edge46_Node000029_Node000030"><a xlink:title=" ">
<path fill="none" stroke="#63b8ff" d="M1211.71,-242.28C1197.95,-245.35 1183.58,-248.56 1171.32,-251.3"/>
<polygon fill="#63b8ff" stroke="#63b8ff" points="1212.08,-245.78 1221.08,-240.18 1210.55,-238.95 1212.08,-245.78"/>
</a>
</g>
</g>
<!-- Node30&#45;&gt;Node3 -->
<g id="edge47_Node000030_Node000003" class="edge">
<title>Node30&#45;&gt;Node3</title>
<g id="a_edge47_Node000030_Node000003"><a xlink:title=" ">
<path fill="none" stroke="#63b8ff" d="M1134.4,-280.21C1128.28,-313.2 1111.66,-375.13 1070.25,-405.38 998.76,-457.6 961.03,-429.38 872.5,-429.38 872.5,-429.38 872.5,-429.38 293.25,-429.38 213.31,-429.38 187.06,-439.97 115,-405.38 85.69,-391.3 60.4,-361.35 48.23,-345.22"/>
<polygon fill="#63b8ff" stroke="#63b8ff" points="1137.81,-281.04 1136.01,-270.6 1130.91,-279.88 1137.81,-281.04"/>
</a>
</g>
</g>
<!-- Node30&#45;&gt;Node8 -->
<g id="edge48_Node000030_Node000008" class="edge">
<title>Node30&#45;&gt;Node8</title>
<g id="a_edge48_Node000030_Node000008"><a xlink:title=" ">
<path fill="none" stroke="#63b8ff" d="M1094.64,-254.83C1080.94,-253.7 1065.92,-252.46 1052.73,-251.37"/>
<polygon fill="#63b8ff" stroke="#63b8ff" points="1094.01,-258.29 1104.26,-255.62 1094.58,-251.31 1094.01,-258.29"/>
</a>
</g>
</g>
</g>
</svg>
