<?xml version="1.0" encoding="UTF-8" standalone="no"?>
<!DOCTYPE svg PUBLIC "-//W3C//DTD SVG 1.1//EN"
 "http://www.w3.org/Graphics/SVG/1.1/DTD/svg11.dtd">
<!-- Generated by graphviz version 14.1.2 (0)
 -->
<!-- Title: include/common.h Pages: 1 -->
<svg width="414pt" height="199pt"
 viewBox="0.00 0.00 414.00 199.00" xmlns="http://www.w3.org/2000/svg" xmlns:xlink="http://www.w3.org/1999/xlink">

<svg id="main" version="1.1" xmlns="http://www.w3.org/2000/svg" xmlns:xlink="http://www.w3.org/1999/xlink" xml:space="preserve">

<style type="text/css"><![CDATA[
.node, .edge {opacity: 0.7;}
.node.selected, .edge.selected {opacity: 1;}
.edge:hover path { stroke: red; }
.edge:hover polygon { stroke: red; fill: red; }
]]></style>
<script type="application/ecmascript" xlink:href="../../svg.min.js"/>
<svg id="graph" class="graph">
<g id="graph0" class="graph" transform="scale(1 1) rotate(0) translate(4 195)">
<title>include/common.h</title>
<!-- Node1 -->
<g id="Node000001" class="node">
<title>Node1</title>
<g id="a_Node000001"><a xlink:title="Headder for C&#45;Menu Menu, Form, Pick, and View components.">
<polygon fill="#999999" stroke="#666666" points="304.5,-191 198.5,-191 198.5,-170.25 304.5,-170.25 304.5,-191"/>
<text xml:space="preserve" text-anchor="middle" x="251.5" y="-177.5" font-family="Helvetica,sans-Serif" font-size="10.00">include/common.h</text>
</a>
</g>
</g>
<!-- Node2 -->
<g id="Node000002" class="node">
<title>Node2</title>
<g id="a_Node000002"><a xlink:title=" ">
<polygon fill="#e0e0e0" stroke="#999999" points="190.12,-20.75 78.88,-20.75 78.88,0 190.12,0 190.12,-20.75"/>
<text xml:space="preserve" text-anchor="middle" x="134.5" y="-7.25" font-family="Helvetica,sans-Serif" font-size="10.00">ncursesw/ncurses.h</text>
</a>
</g>
</g>
<!-- Node1&#45;&gt;Node2 -->
<g id="edge1_Node000001_Node000002" class="edge">
<title>Node1&#45;&gt;Node2</title>
<g id="a_edge1_Node000001_Node000002"><a xlink:title=" ">
<path fill="none" stroke="#63b8ff" d="M198.31,-172.46C154.25,-165.3 96.64,-152.69 82.5,-134.25 57.28,-101.37 92.71,-54.43 116.33,-29.15"/>
<polygon fill="#63b8ff" stroke="#63b8ff" points="118.57,-31.86 123.02,-22.25 113.55,-26.99 118.57,-31.86"/>
</a>
</g>
</g>
<!-- Node3 -->
<g id="Node000003" class="node">
<title>Node3</title>
<g id="a_Node000003"><a xlink:href="../../d8/d23/a00326.html" target="_top" xlink:title="Headder for C&#45;Menu API library, libcm.so.">
<polygon fill="white" stroke="#666666" points="254.5,-77.5 214.5,-77.5 214.5,-56.75 254.5,-56.75 254.5,-77.5"/>
<text xml:space="preserve" text-anchor="middle" x="234.5" y="-64" font-family="Helvetica,sans-Serif" font-size="10.00">cm.h</text>
</a>
</g>
</g>
<!-- Node1&#45;&gt;Node3 -->
<g id="edge2_Node000001_Node000003" class="edge">
<title>Node1&#45;&gt;Node3</title>
<g id="a_edge2_Node000001_Node000003"><a xlink:title=" ">
<path fill="none" stroke="#63b8ff" d="M261.98,-169.88C274.41,-157.08 292.38,-133.84 283.5,-113.5 278.49,-102.03 268.98,-92.16 259.67,-84.58"/>
<polygon fill="#63b8ff" stroke="#63b8ff" points="261.91,-81.89 251.8,-78.7 257.72,-87.49 261.91,-81.89"/>
</a>
</g>
</g>
<!-- Node6 -->
<g id="Node000006" class="node">
<title>Node6</title>
<g id="a_Node000006"><a xlink:title=" ">
<polygon fill="#e0e0e0" stroke="#999999" points="406,-20.75 351,-20.75 351,0 406,0 406,-20.75"/>
<text xml:space="preserve" text-anchor="middle" x="378.5" y="-7.25" font-family="Helvetica,sans-Serif" font-size="10.00">stddef.h</text>
</a>
</g>
</g>
<!-- Node1&#45;&gt;Node6 -->
<g id="edge19_Node000001_Node000006" class="edge">
<title>Node1&#45;&gt;Node6</title>
<g id="a_edge19_Node000001_Node000006"><a xlink:title=" ">
<path fill="none" stroke="#63b8ff" d="M269.87,-169.85C283.75,-161.75 302.57,-149.18 315.5,-134.25 342.6,-102.97 361.8,-57.99 371.43,-32.02"/>
<polygon fill="#63b8ff" stroke="#63b8ff" points="374.71,-33.26 374.77,-22.67 368.11,-30.91 374.71,-33.26"/>
</a>
</g>
</g>
<!-- Node8 -->
<g id="Node000008" class="node">
<title>Node8</title>
<g id="a_Node000008"><a xlink:href="../../dd/de2/a00320.html" target="_top" xlink:title="Form data structures, enums, types, end external declarations.">
<polygon fill="white" stroke="#666666" points="139.62,-134.25 91.38,-134.25 91.38,-113.5 139.62,-113.5 139.62,-134.25"/>
<text xml:space="preserve" text-anchor="middle" x="115.5" y="-120.75" font-family="Helvetica,sans-Serif" font-size="10.00">form.h</text>
</a>
</g>
</g>
<!-- Node1&#45;&gt;Node8 -->
<g id="edge8_Node000001_Node000008" class="edge">
<title>Node1&#45;&gt;Node8</title>
<g id="a_edge8_Node000001_Node000008"><a xlink:title=" ">
<path fill="none" stroke="#63b8ff" d="M227.19,-169.84C205.72,-161.19 174.18,-148.5 150.09,-138.8"/>
<polygon fill="#63b8ff" stroke="#63b8ff" points="151.59,-135.63 141.01,-135.14 148.98,-142.13 151.59,-135.63"/>
</a>
</g>
</g>
<!-- Node9 -->
<g id="Node000009" class="node">
<title>Node9</title>
<g id="a_Node000009"><a xlink:href="../../da/de0/a00317.html" target="_top" xlink:title="Menu data structures, enums, types, end external declarations.">
<polygon fill="white" stroke="#666666" points="210.88,-134.25 158.12,-134.25 158.12,-113.5 210.88,-113.5 210.88,-134.25"/>
<text xml:space="preserve" text-anchor="middle" x="184.5" y="-120.75" font-family="Helvetica,sans-Serif" font-size="10.00">menu.h</text>
</a>
</g>
</g>
<!-- Node1&#45;&gt;Node9 -->
<g id="edge10_Node000001_Node000009" class="edge">
<title>Node1&#45;&gt;Node9</title>
<g id="a_edge10_Node000001_Node000009"><a xlink:title=" ">
<path fill="none" stroke="#63b8ff" d="M239.52,-169.84C229.99,-162.05 216.44,-150.97 205.17,-141.76"/>
<polygon fill="#63b8ff" stroke="#63b8ff" points="207.5,-139.15 197.55,-135.54 203.08,-144.57 207.5,-139.15"/>
</a>
</g>
</g>
<!-- Node10 -->
<g id="Node000010" class="node">
<title>Node10</title>
<g id="a_Node000010"><a xlink:href="../../d0/d39/a00314.html" target="_top" xlink:title="Pick data structures, enums, types, end external declarations.">
<polygon fill="white" stroke="#666666" points="274.12,-134.25 228.88,-134.25 228.88,-113.5 274.12,-113.5 274.12,-134.25"/>
<text xml:space="preserve" text-anchor="middle" x="251.5" y="-120.75" font-family="Helvetica,sans-Serif" font-size="10.00">pick.h</text>
</a>
</g>
</g>
<!-- Node1&#45;&gt;Node10 -->
<g id="edge12_Node000001_Node000010" class="edge">
<title>Node1&#45;&gt;Node10</title>
<g id="a_edge12_Node000001_Node000010"><a xlink:title=" ">
<path fill="none" stroke="#63b8ff" d="M251.5,-169.84C251.5,-163.22 251.5,-154.22 251.5,-146.02"/>
<polygon fill="#63b8ff" stroke="#63b8ff" points="255,-146.09 251.5,-136.09 248,-146.09 255,-146.09"/>
</a>
</g>
</g>
<!-- Node11 -->
<g id="Node000011" class="node">
<title>Node11</title>
<g id="a_Node000011"><a xlink:href="../../d5/d0f/a00308.html" target="_top" xlink:title="View data structures, enums, types, end external declarations.">
<polygon fill="white" stroke="#666666" points="329.25,-77.5 281.75,-77.5 281.75,-56.75 329.25,-56.75 329.25,-77.5"/>
<text xml:space="preserve" text-anchor="middle" x="305.5" y="-64" font-family="Helvetica,sans-Serif" font-size="10.00">view.h</text>
</a>
</g>
</g>
<!-- Node1&#45;&gt;Node11 -->
<g id="edge14_Node000001_Node000011" class="edge">
<title>Node1&#45;&gt;Node11</title>
<g id="a_edge14_Node000001_Node000011"><a xlink:title=" ">
<path fill="none" stroke="#63b8ff" d="M266.05,-169.93C276.97,-161.8 291.23,-149.13 298.5,-134.25 305.33,-120.26 306.91,-102.65 306.87,-89.13"/>
<polygon fill="#63b8ff" stroke="#63b8ff" points="310.37,-89.04 306.51,-79.17 303.37,-89.29 310.37,-89.04"/>
</a>
</g>
</g>
<!-- Node3&#45;&gt;Node2 -->
<g id="edge4_Node000003_Node000002" class="edge">
<title>Node3&#45;&gt;Node2</title>
<g id="a_edge4_Node000003_Node000002"><a xlink:title=" ">
<path fill="none" stroke="#63b8ff" d="M216.62,-56.34C201.41,-48.01 179.31,-35.91 161.87,-26.36"/>
<polygon fill="#63b8ff" stroke="#63b8ff" points="164,-23.54 153.55,-21.81 160.64,-29.68 164,-23.54"/>
</a>
</g>
</g>
<!-- Node4 -->
<g id="Node000004" class="node">
<title>Node4</title>
<g id="a_Node000004"><a xlink:href="../../d1/d5d/a00311.html" target="_top" xlink:title=" ">
<polygon fill="white" stroke="#666666" points="61,-20.75 0,-20.75 0,0 61,0 61,-20.75"/>
<text xml:space="preserve" text-anchor="middle" x="30.5" y="-7.25" font-family="Helvetica,sans-Serif" font-size="10.00">version.h</text>
</a>
</g>
</g>
<!-- Node3&#45;&gt;Node4 -->
<g id="edge3_Node000003_Node000004" class="edge">
<title>Node3&#45;&gt;Node4</title>
<g id="a_edge3_Node000003_Node000004"><a xlink:title=" ">
<path fill="none" stroke="#63b8ff" d="M214.19,-60.68C181.26,-51.84 115.53,-34.2 72.29,-22.59"/>
<polygon fill="#63b8ff" stroke="#63b8ff" points="73.3,-19.24 62.74,-20.03 71.49,-26 73.3,-19.24"/>
</a>
</g>
</g>
<!-- Node5 -->
<g id="Node000005" class="node">
<title>Node5</title>
<g id="a_Node000005"><a xlink:title=" ">
<polygon fill="#e0e0e0" stroke="#999999" points="332.62,-20.75 278.38,-20.75 278.38,0 332.62,0 332.62,-20.75"/>
<text xml:space="preserve" text-anchor="middle" x="305.5" y="-7.25" font-family="Helvetica,sans-Serif" font-size="10.00">signal.h</text>
</a>
</g>
</g>
<!-- Node3&#45;&gt;Node5 -->
<g id="edge5_Node000003_Node000005" class="edge">
<title>Node3&#45;&gt;Node5</title>
<g id="a_edge5_Node000003_Node000005"><a xlink:title=" ">
<path fill="none" stroke="#63b8ff" d="M247.19,-56.34C257.39,-48.47 271.94,-37.25 283.96,-27.99"/>
<polygon fill="#63b8ff" stroke="#63b8ff" points="285.94,-30.88 291.72,-22 281.66,-25.34 285.94,-30.88"/>
</a>
</g>
</g>
<!-- Node3&#45;&gt;Node6 -->
<g id="edge6_Node000003_Node000006" class="edge">
<title>Node3&#45;&gt;Node6</title>
<g id="a_edge6_Node000003_Node000006"><a xlink:title=" ">
<path fill="none" stroke="#63b8ff" d="M254.83,-58.4C277.48,-49.78 314.56,-35.69 342.22,-25.17"/>
<polygon fill="#63b8ff" stroke="#63b8ff" points="343.16,-28.55 351.27,-21.73 340.68,-22.01 343.16,-28.55"/>
</a>
</g>
</g>
<!-- Node7 -->
<g id="Node000007" class="node">
<title>Node7</title>
<g id="a_Node000007"><a xlink:title=" ">
<polygon fill="#e0e0e0" stroke="#999999" points="260.5,-20.75 208.5,-20.75 208.5,0 260.5,0 260.5,-20.75"/>
<text xml:space="preserve" text-anchor="middle" x="234.5" y="-7.25" font-family="Helvetica,sans-Serif" font-size="10.00">stdlib.h</text>
</a>
</g>
</g>
<!-- Node3&#45;&gt;Node7 -->
<g id="edge7_Node000003_Node000007" class="edge">
<title>Node3&#45;&gt;Node7</title>
<g id="a_edge7_Node000003_Node000007"><a xlink:title=" ">
<path fill="none" stroke="#63b8ff" d="M234.5,-56.34C234.5,-49.72 234.5,-40.72 234.5,-32.52"/>
<polygon fill="#63b8ff" stroke="#63b8ff" points="238,-32.59 234.5,-22.59 231,-32.59 238,-32.59"/>
</a>
</g>
</g>
<!-- Node8&#45;&gt;Node3 -->
<g id="edge9_Node000008_Node000003" class="edge">
<title>Node8&#45;&gt;Node3</title>
<g id="a_edge9_Node000008_Node000003"><a xlink:title=" ">
<path fill="none" stroke="#63b8ff" d="M136.77,-113.09C155.45,-104.5 182.83,-91.9 203.86,-82.22"/>
<polygon fill="#63b8ff" stroke="#63b8ff" points="205.21,-85.45 212.83,-78.1 202.28,-79.1 205.21,-85.45"/>
</a>
</g>
</g>
<!-- Node9&#45;&gt;Node3 -->
<g id="edge11_Node000009_Node000003" class="edge">
<title>Node9&#45;&gt;Node3</title>
<g id="a_edge11_Node000009_Node000003"><a xlink:title=" ">
<path fill="none" stroke="#63b8ff" d="M193.44,-113.09C200.26,-105.61 209.86,-95.11 218.06,-86.13"/>
<polygon fill="#63b8ff" stroke="#63b8ff" points="220.46,-88.69 224.62,-78.95 215.29,-83.97 220.46,-88.69"/>
</a>
</g>
</g>
<!-- Node10&#45;&gt;Node3 -->
<g id="edge13_Node000010_Node000003" class="edge">
<title>Node10&#45;&gt;Node3</title>
<g id="a_edge13_Node000010_Node000003"><a xlink:title=" ">
<path fill="none" stroke="#63b8ff" d="M248.46,-113.09C246.36,-106.31 243.48,-97.05 240.89,-88.69"/>
<polygon fill="#63b8ff" stroke="#63b8ff" points="244.27,-87.79 237.96,-79.27 237.58,-89.86 244.27,-87.79"/>
</a>
</g>
</g>
<!-- Node11&#45;&gt;Node2 -->
<g id="edge15_Node000011_Node000002" class="edge">
<title>Node11&#45;&gt;Node2</title>
<g id="a_edge15_Node000011_Node000002"><a xlink:title=" ">
<path fill="none" stroke="#63b8ff" d="M281.36,-58.4C253.98,-49.63 208.86,-35.18 175.85,-24.61"/>
<polygon fill="#63b8ff" stroke="#63b8ff" points="177.19,-21.37 166.6,-21.65 175.06,-28.04 177.19,-21.37"/>
</a>
</g>
</g>
<!-- Node11&#45;&gt;Node5 -->
<g id="edge16_Node000011_Node000005" class="edge">
<title>Node11&#45;&gt;Node5</title>
<g id="a_edge16_Node000011_Node000005"><a xlink:title=" ">
<path fill="none" stroke="#63b8ff" d="M305.5,-56.34C305.5,-49.72 305.5,-40.72 305.5,-32.52"/>
<polygon fill="#63b8ff" stroke="#63b8ff" points="309,-32.59 305.5,-22.59 302,-32.59 309,-32.59"/>
</a>
</g>
</g>
<!-- Node11&#45;&gt;Node6 -->
<g id="edge17_Node000011_Node000006" class="edge">
<title>Node11&#45;&gt;Node6</title>
<g id="a_edge17_Node000011_Node000006"><a xlink:title=" ">
<path fill="none" stroke="#63b8ff" d="M318.55,-56.34C329.14,-48.4 344.29,-37.03 356.72,-27.71"/>
<polygon fill="#63b8ff" stroke="#63b8ff" points="358.45,-30.79 364.35,-21.99 354.25,-25.19 358.45,-30.79"/>
</a>
</g>
</g>
<!-- Node11&#45;&gt;Node7 -->
<g id="edge18_Node000011_Node000007" class="edge">
<title>Node11&#45;&gt;Node7</title>
<g id="a_edge18_Node000011_Node000007"><a xlink:title=" ">
<path fill="none" stroke="#63b8ff" d="M292.81,-56.34C282.61,-48.47 268.06,-37.25 256.04,-27.99"/>
<polygon fill="#63b8ff" stroke="#63b8ff" points="258.34,-25.34 248.28,-22 254.06,-30.88 258.34,-25.34"/>
</a>
</g>
</g>
</g>
</svg>
</svg>

<style type='text/css'>
<![CDATA[
[data-mouse-over-selected='false'] { opacity: 0.7; }
[data-mouse-over-selected='true']  { opacity: 1.0; }
]]>
</style>
<script type="application/ecmascript"><![CDATA[
document.addEventListener('DOMContentLoaded', (event) => {
  highlightEdges();
  highlightAdjacentNodes();
});
]]></script>
</svg>
