<?xml version="1.0" encoding="UTF-8" standalone="no"?>
<!DOCTYPE svg PUBLIC "-//W3C//DTD SVG 1.1//EN"
 "http://www.w3.org/Graphics/SVG/1.1/DTD/svg11.dtd">
<!-- Generated by graphviz version 14.1.2 (0)
 -->
<!-- Title: Argv Pages: 1 -->
<svg width="116pt" height="180pt"
 viewBox="0.00 0.00 116.00 180.00" xmlns="http://www.w3.org/2000/svg" xmlns:xlink="http://www.w3.org/1999/xlink">
<g id="graph0" class="graph" transform="scale(1 1) rotate(0) translate(4 175.75)">
<title>Argv</title>
<!-- Node1 -->
<g id="Node000001" class="node">
<title>Node1</title>
<g id="a_Node000001"><a xlink:title="The Argv structure represents an argument vector, which is an array of Arg structures,...">
<polygon fill="#999999" stroke="#666666" points="78.88,-20.75 40.38,-20.75 40.38,0 78.88,0 78.88,-20.75"/>
<text xml:space="preserve" text-anchor="middle" x="59.62" y="-7.25" font-family="Helvetica,sans-Serif" font-size="10.00">Argv</text>
</a>
</g>
</g>
<!-- Node2 -->
<g id="Node000002" class="node">
<title>Node2</title>
<g id="a_Node000002"><a xlink:href="../../d2/dcf/structArg.html" target="_top" xlink:title="The Arg structure represents a string argument with a pointer to the string and its allocated length.">
<polygon fill="white" stroke="#666666" points="49.88,-96.25 17.38,-96.25 17.38,-75.5 49.88,-75.5 49.88,-96.25"/>
<text xml:space="preserve" text-anchor="middle" x="33.62" y="-82.75" font-family="Helvetica,sans-Serif" font-size="10.00">Arg</text>
</a>
</g>
</g>
<!-- Node2&#45;&gt;Node1 -->
<g id="edge1_Node000001_Node000002" class="edge">
<title>Node2&#45;&gt;Node1</title>
<g id="a_edge1_Node000001_Node000002"><a xlink:title=" ">
<path fill="none" stroke="#9a32cd" stroke-dasharray="5,2" d="M40.79,-64.61C45.79,-50.49 52.23,-32.27 56.14,-21.22"/>
<polygon fill="#9a32cd" stroke="#9a32cd" points="37.56,-63.24 37.53,-73.84 44.16,-65.58 37.56,-63.24"/>
</a>
</g>
<text xml:space="preserve" text-anchor="start" x="52.72" y="-45" font-family="Helvetica,sans-Serif" font-size="10.00" fill="grey">v</text>
</g>
<!-- Node3 -->
<g id="Node000003" class="node">
<title>Node3</title>
<g id="a_Node000003"><a xlink:title=" ">
<polygon fill="white" stroke="#666666" points="45.25,-171.75 0,-171.75 0,-151 45.25,-151 45.25,-171.75"/>
<text xml:space="preserve" text-anchor="middle" x="22.62" y="-158.25" font-family="Helvetica,sans-Serif" font-size="10.00">char *</text>
</a>
</g>
</g>
<!-- Node3&#45;&gt;Node2 -->
<g id="edge2_Node000002_Node000003" class="edge">
<title>Node3&#45;&gt;Node2</title>
<g id="a_edge2_Node000002_Node000003"><a xlink:title=" ">
<path fill="none" stroke="#9a32cd" stroke-dasharray="5,2" d="M23.53,-139.54C24.08,-131.59 24.97,-122.46 26.38,-114.25 27.39,-108.34 29.08,-101.84 30.58,-96.67"/>
<polygon fill="#9a32cd" stroke="#9a32cd" points="20.05,-139.08 22.99,-149.26 27.04,-139.47 20.05,-139.08"/>
</a>
</g>
<text xml:space="preserve" text-anchor="start" x="29.38" y="-120.5" font-family="Helvetica,sans-Serif" font-size="10.00" fill="grey">s</text>
</g>
<!-- Node4 -->
<g id="Node000004" class="node">
<title>Node4</title>
<g id="a_Node000004"><a xlink:title=" ">
<polygon fill="white" stroke="#666666" points="107.88,-171.75 63.38,-171.75 63.38,-151 107.88,-151 107.88,-171.75"/>
<text xml:space="preserve" text-anchor="middle" x="85.62" y="-158.25" font-family="Helvetica,sans-Serif" font-size="10.00">size_t</text>
</a>
</g>
</g>
<!-- Node4&#45;&gt;Node1 -->
<g id="edge4_Node000001_Node000004" class="edge">
<title>Node4&#45;&gt;Node1</title>
<g id="a_edge4_Node000001_Node000004"><a xlink:title=" ">
<path fill="none" stroke="#9a32cd" stroke-dasharray="5,2" d="M82.49,-139.22C78.81,-114.91 72.35,-73.85 65.62,-38.75 64.51,-32.92 63.09,-26.43 61.92,-21.23"/>
<polygon fill="#9a32cd" stroke="#9a32cd" points="79.03,-139.7 83.97,-149.07 85.95,-138.66 79.03,-139.7"/>
</a>
</g>
<text xml:space="preserve" text-anchor="start" x="78.69" y="-82.75" font-family="Helvetica,sans-Serif" font-size="10.00" fill="grey">n</text>
</g>
<!-- Node4&#45;&gt;Node2 -->
<g id="edge3_Node000002_Node000004" class="edge">
<title>Node4&#45;&gt;Node2</title>
<g id="a_edge3_Node000002_Node000004"><a xlink:title=" ">
<path fill="none" stroke="#9a32cd" stroke-dasharray="5,2" d="M69.45,-141.82C67.1,-138.92 64.75,-135.92 62.62,-133 53.82,-120.92 44.84,-106.18 39.25,-96.67"/>
<polygon fill="#9a32cd" stroke="#9a32cd" points="66.67,-143.95 75.79,-149.34 72.03,-139.44 66.67,-143.95"/>
</a>
</g>
<text xml:space="preserve" text-anchor="start" x="65.62" y="-120.5" font-family="Helvetica,sans-Serif" font-size="10.00" fill="grey">l</text>
</g>
</g>
</svg>
