<?xml version="1.0" encoding="UTF-8" standalone="no"?>
<!DOCTYPE svg PUBLIC "-//W3C//DTD SVG 1.1//EN"
 "http://www.w3.org/Graphics/SVG/1.1/DTD/svg11.dtd">
<!-- Generated by graphviz version 15.0.0 (0)
 -->
<!-- Title: pick_engine.c Pages: 1 -->
<svg width="1254pt" height="269pt"
 viewBox="0.00 0.00 1254.00 269.00" xmlns="http://www.w3.org/2000/svg" xmlns:xlink="http://www.w3.org/1999/xlink">
<g id="graph0" class="graph" transform="scale(1 1) rotate(0) translate(4 264.5)">
<title>pick_engine.c</title>
<!-- Node1 -->
<g id="Node000001" class="node">
<title>Node1</title>
<g id="a_Node000001"><a xlink:title="pick from a list of choices">
<polygon fill="#999999" stroke="#666666" points="930.88,-260.5 848.12,-260.5 848.12,-239.75 930.88,-239.75 930.88,-260.5"/>
<text xml:space="preserve" text-anchor="middle" x="889.5" y="-247" font-family="Helvetica,sans-Serif" font-size="10.00">pick_engine.c</text>
</a>
</g>
</g>
<!-- Node2 -->
<g id="Node000002" class="node">
<title>Node2</title>
<g id="a_Node000002"><a xlink:href="../../d2/dbd/a01844.html" target="_top" xlink:title="Headder for C&#45;Menu Menu, Form, Pick, and View components.">
<polygon fill="white" stroke="#666666" points="459.38,-203.75 391.62,-203.75 391.62,-183 459.38,-183 459.38,-203.75"/>
<text xml:space="preserve" text-anchor="middle" x="425.5" y="-190.25" font-family="Helvetica,sans-Serif" font-size="10.00">common.h</text>
</a>
</g>
</g>
<!-- Node1&#45;&gt;Node2 -->
<g id="edge1_Node000001_Node000002" class="edge">
<title>Node1&#45;&gt;Node2</title>
<g id="a_edge1_Node000001_Node000002"><a xlink:title=" ">
<path fill="none" stroke="#63b8ff" d="M847.91,-244.22C761.08,-233.97 561.08,-210.37 470.98,-199.74"/>
<polygon fill="#63b8ff" stroke="#63b8ff" points="471.62,-196.29 461.28,-198.6 470.8,-203.24 471.62,-196.29"/>
</a>
</g>
</g>
<!-- Node7 -->
<g id="Node000007" class="node">
<title>Node7</title>
<g id="a_Node000007"><a xlink:title=" ">
<polygon fill="#e0e0e0" stroke="#999999" points="691,-20.75 630,-20.75 630,0 691,0 691,-20.75"/>
<text xml:space="preserve" text-anchor="middle" x="660.5" y="-7.25" font-family="Helvetica,sans-Serif" font-size="10.00">stdbool.h</text>
</a>
</g>
</g>
<!-- Node1&#45;&gt;Node7 -->
<g id="edge34_Node000001_Node000007" class="edge">
<title>Node1&#45;&gt;Node7</title>
<g id="a_edge34_Node000001_Node000007"><a xlink:title=" ">
<path fill="none" stroke="#63b8ff" d="M847.87,-243.78C800.44,-236.86 726.97,-223.31 707.5,-203.75 701.35,-197.57 675.44,-80.41 664.94,-32.01"/>
<polygon fill="#63b8ff" stroke="#63b8ff" points="668.43,-31.57 662.89,-22.54 661.59,-33.05 668.43,-31.57"/>
</a>
</g>
</g>
<!-- Node22 -->
<g id="Node000022" class="node">
<title>Node22</title>
<g id="a_Node000022"><a xlink:title=" ">
<polygon fill="#e0e0e0" stroke="#999999" points="762.88,-203.75 716.12,-203.75 716.12,-183 762.88,-183 762.88,-203.75"/>
<text xml:space="preserve" text-anchor="middle" x="739.5" y="-190.25" font-family="Helvetica,sans-Serif" font-size="10.00">fcntl.h</text>
</a>
</g>
</g>
<!-- Node1&#45;&gt;Node22 -->
<g id="edge33_Node000001_Node000022" class="edge">
<title>Node1&#45;&gt;Node22</title>
<g id="a_edge33_Node000001_Node000022"><a xlink:title=" ">
<path fill="none" stroke="#63b8ff" d="M862.68,-239.34C837.8,-230.25 800.64,-216.69 773.64,-206.84"/>
<polygon fill="#63b8ff" stroke="#63b8ff" points="775.14,-203.66 764.54,-203.52 772.74,-210.23 775.14,-203.66"/>
</a>
</g>
</g>
<!-- Node23 -->
<g id="Node000023" class="node">
<title>Node23</title>
<g id="a_Node000023"><a xlink:title=" ">
<polygon fill="#e0e0e0" stroke="#999999" points="833.88,-203.75 781.12,-203.75 781.12,-183 833.88,-183 833.88,-203.75"/>
<text xml:space="preserve" text-anchor="middle" x="807.5" y="-190.25" font-family="Helvetica,sans-Serif" font-size="10.00">string.h</text>
</a>
</g>
</g>
<!-- Node1&#45;&gt;Node23 -->
<g id="edge35_Node000001_Node000023" class="edge">
<title>Node1&#45;&gt;Node23</title>
<g id="a_edge35_Node000001_Node000023"><a xlink:title=" ">
<path fill="none" stroke="#63b8ff" d="M874.84,-239.34C862.83,-231.32 845.59,-219.81 831.56,-210.44"/>
<polygon fill="#63b8ff" stroke="#63b8ff" points="833.55,-207.56 823.29,-204.92 829.66,-213.38 833.55,-207.56"/>
</a>
</g>
</g>
<!-- Node24 -->
<g id="Node000024" class="node">
<title>Node24</title>
<g id="a_Node000024"><a xlink:title=" ">
<polygon fill="#e0e0e0" stroke="#999999" points="927.5,-203.75 851.5,-203.75 851.5,-183 927.5,-183 927.5,-203.75"/>
<text xml:space="preserve" text-anchor="middle" x="889.5" y="-190.25" font-family="Helvetica,sans-Serif" font-size="10.00">sys/mman.h</text>
</a>
</g>
</g>
<!-- Node1&#45;&gt;Node24 -->
<g id="edge36_Node000001_Node000024" class="edge">
<title>Node1&#45;&gt;Node24</title>
<g id="a_edge36_Node000001_Node000024"><a xlink:title=" ">
<path fill="none" stroke="#63b8ff" d="M889.5,-239.34C889.5,-232.72 889.5,-223.72 889.5,-215.52"/>
<polygon fill="#63b8ff" stroke="#63b8ff" points="893,-215.59 889.5,-205.59 886,-215.59 893,-215.59"/>
</a>
</g>
</g>
<!-- Node25 -->
<g id="Node000025" class="node">
<title>Node25</title>
<g id="a_Node000025"><a xlink:title=" ">
<polygon fill="#e0e0e0" stroke="#999999" points="1009.12,-203.75 945.88,-203.75 945.88,-183 1009.12,-183 1009.12,-203.75"/>
<text xml:space="preserve" text-anchor="middle" x="977.5" y="-190.25" font-family="Helvetica,sans-Serif" font-size="10.00">sys/stat.h</text>
</a>
</g>
</g>
<!-- Node1&#45;&gt;Node25 -->
<g id="edge37_Node000001_Node000025" class="edge">
<title>Node1&#45;&gt;Node25</title>
<g id="a_edge37_Node000001_Node000025"><a xlink:title=" ">
<path fill="none" stroke="#63b8ff" d="M905.23,-239.34C918.37,-231.16 937.34,-219.36 952.55,-209.9"/>
<polygon fill="#63b8ff" stroke="#63b8ff" points="953.98,-213.13 960.62,-204.88 950.28,-207.19 953.98,-213.13"/>
</a>
</g>
</g>
<!-- Node26 -->
<g id="Node000026" class="node">
<title>Node26</title>
<g id="a_Node000026"><a xlink:title=" ">
<polygon fill="#e0e0e0" stroke="#999999" points="1092.25,-203.75 1026.75,-203.75 1026.75,-183 1092.25,-183 1092.25,-203.75"/>
<text xml:space="preserve" text-anchor="middle" x="1059.5" y="-190.25" font-family="Helvetica,sans-Serif" font-size="10.00">sys/wait.h</text>
</a>
</g>
</g>
<!-- Node1&#45;&gt;Node26 -->
<g id="edge38_Node000001_Node000026" class="edge">
<title>Node1&#45;&gt;Node26</title>
<g id="a_edge38_Node000001_Node000026"><a xlink:title=" ">
<path fill="none" stroke="#63b8ff" d="M919.89,-239.34C947.37,-230.49 988.04,-217.39 1018.41,-207.61"/>
<polygon fill="#63b8ff" stroke="#63b8ff" points="1019.2,-211.03 1027.64,-204.63 1017.05,-204.37 1019.2,-211.03"/>
</a>
</g>
</g>
<!-- Node27 -->
<g id="Node000027" class="node">
<title>Node27</title>
<g id="a_Node000027"><a xlink:title=" ">
<polygon fill="#e0e0e0" stroke="#999999" points="1172.75,-203.75 1110.25,-203.75 1110.25,-183 1172.75,-183 1172.75,-203.75"/>
<text xml:space="preserve" text-anchor="middle" x="1141.5" y="-190.25" font-family="Helvetica,sans-Serif" font-size="10.00">termios.h</text>
</a>
</g>
</g>
<!-- Node1&#45;&gt;Node27 -->
<g id="edge39_Node000001_Node000027" class="edge">
<title>Node1&#45;&gt;Node27</title>
<g id="a_edge39_Node000001_Node000027"><a xlink:title=" ">
<path fill="none" stroke="#63b8ff" d="M930.99,-240.49C971.42,-232.03 1034.94,-218.58 1098.96,-204.29"/>
<polygon fill="#63b8ff" stroke="#63b8ff" points="1099.6,-207.73 1108.59,-202.13 1098.07,-200.9 1099.6,-207.73"/>
</a>
</g>
</g>
<!-- Node28 -->
<g id="Node000028" class="node">
<title>Node28</title>
<g id="a_Node000028"><a xlink:title=" ">
<polygon fill="#e0e0e0" stroke="#999999" points="1246,-203.75 1191,-203.75 1191,-183 1246,-183 1246,-203.75"/>
<text xml:space="preserve" text-anchor="middle" x="1218.5" y="-190.25" font-family="Helvetica,sans-Serif" font-size="10.00">unistd.h</text>
</a>
</g>
</g>
<!-- Node1&#45;&gt;Node28 -->
<g id="edge40_Node000001_Node000028" class="edge">
<title>Node1&#45;&gt;Node28</title>
<g id="a_edge40_Node000001_Node000028"><a xlink:title=" ">
<path fill="none" stroke="#63b8ff" d="M931.3,-243.89C986.02,-236.75 1085.11,-222.9 1179.5,-203.99"/>
<polygon fill="#63b8ff" stroke="#63b8ff" points="1180.1,-207.44 1189.2,-202.02 1178.7,-200.58 1180.1,-207.44"/>
</a>
</g>
</g>
<!-- Node3 -->
<g id="Node000003" class="node">
<title>Node3</title>
<g id="a_Node000003"><a xlink:href="../../db/d6b/a01853.html" target="_top" xlink:title="Headder for C&#45;Menu API library, libcm.so.">
<polygon fill="white" stroke="#666666" points="349.5,-83.88 309.5,-83.88 309.5,-63.12 349.5,-63.12 349.5,-83.88"/>
<text xml:space="preserve" text-anchor="middle" x="329.5" y="-70.38" font-family="Helvetica,sans-Serif" font-size="10.00">cm.h</text>
</a>
</g>
</g>
<!-- Node2&#45;&gt;Node3 -->
<g id="edge2_Node000002_Node000003" class="edge">
<title>Node2&#45;&gt;Node3</title>
<g id="a_edge2_Node000002_Node000003"><a xlink:title=" ">
<path fill="none" stroke="#63b8ff" d="M391.45,-188.12C346.97,-181.78 272.82,-168.27 256.5,-147 239.13,-124.35 271.88,-101.73 298.96,-87.93"/>
<polygon fill="#63b8ff" stroke="#63b8ff" points="300.47,-91.08 307.95,-83.58 297.42,-84.78 300.47,-91.08"/>
</a>
</g>
</g>
<!-- Node8 -->
<g id="Node000008" class="node">
<title>Node8</title>
<g id="a_Node000008"><a xlink:title=" ">
<polygon fill="#e0e0e0" stroke="#999999" points="611,-20.75 556,-20.75 556,0 611,0 611,-20.75"/>
<text xml:space="preserve" text-anchor="middle" x="583.5" y="-7.25" font-family="Helvetica,sans-Serif" font-size="10.00">stddef.h</text>
</a>
</g>
</g>
<!-- Node2&#45;&gt;Node8 -->
<g id="edge32_Node000002_Node000008" class="edge">
<title>Node2&#45;&gt;Node8</title>
<g id="a_edge32_Node000002_Node000008"><a xlink:title=" ">
<path fill="none" stroke="#63b8ff" d="M433.99,-182.64C459.29,-153.67 534.38,-67.64 567.5,-29.7"/>
<polygon fill="#63b8ff" stroke="#63b8ff" points="570.03,-32.13 573.97,-22.29 564.75,-27.53 570.03,-32.13"/>
</a>
</g>
</g>
<!-- Node14 -->
<g id="Node000014" class="node">
<title>Node14</title>
<g id="a_Node000014"><a xlink:href="../../d2/d5b/a01841.html" target="_top" xlink:title="Form data structures, enums, types, end process declarations.">
<polygon fill="white" stroke="#666666" points="313.62,-147 265.38,-147 265.38,-126.25 313.62,-126.25 313.62,-147"/>
<text xml:space="preserve" text-anchor="middle" x="289.5" y="-133.5" font-family="Helvetica,sans-Serif" font-size="10.00">form.h</text>
</a>
</g>
</g>
<!-- Node2&#45;&gt;Node14 -->
<g id="edge13_Node000002_Node000014" class="edge">
<title>Node2&#45;&gt;Node14</title>
<g id="a_edge13_Node000002_Node000014"><a xlink:title=" ">
<path fill="none" stroke="#63b8ff" d="M401.19,-182.59C379.72,-173.94 348.18,-161.25 324.09,-151.55"/>
<polygon fill="#63b8ff" stroke="#63b8ff" points="325.59,-148.38 315.01,-147.89 322.98,-154.88 325.59,-148.38"/>
</a>
</g>
</g>
<!-- Node15 -->
<g id="Node000015" class="node">
<title>Node15</title>
<g id="a_Node000015"><a xlink:href="../../d3/dce/a01859.html" target="_top" xlink:title="Menu data structures, enums, types, end external declarations.">
<polygon fill="white" stroke="#666666" points="384.88,-147 332.12,-147 332.12,-126.25 384.88,-126.25 384.88,-147"/>
<text xml:space="preserve" text-anchor="middle" x="358.5" y="-133.5" font-family="Helvetica,sans-Serif" font-size="10.00">menu.h</text>
</a>
</g>
</g>
<!-- Node2&#45;&gt;Node15 -->
<g id="edge15_Node000002_Node000015" class="edge">
<title>Node2&#45;&gt;Node15</title>
<g id="a_edge15_Node000002_Node000015"><a xlink:title=" ">
<path fill="none" stroke="#63b8ff" d="M413.52,-182.59C403.99,-174.8 390.44,-163.72 379.17,-154.51"/>
<polygon fill="#63b8ff" stroke="#63b8ff" points="381.5,-151.9 371.55,-148.29 377.08,-157.32 381.5,-151.9"/>
</a>
</g>
</g>
<!-- Node16 -->
<g id="Node000016" class="node">
<title>Node16</title>
<g id="a_Node000016"><a xlink:href="../../da/d18/a01850.html" target="_top" xlink:title="Pick data structures, enums, types, end external declarations.">
<polygon fill="white" stroke="#666666" points="448.12,-147 402.88,-147 402.88,-126.25 448.12,-126.25 448.12,-147"/>
<text xml:space="preserve" text-anchor="middle" x="425.5" y="-133.5" font-family="Helvetica,sans-Serif" font-size="10.00">pick.h</text>
</a>
</g>
</g>
<!-- Node2&#45;&gt;Node16 -->
<g id="edge17_Node000002_Node000016" class="edge">
<title>Node2&#45;&gt;Node16</title>
<g id="a_edge17_Node000002_Node000016"><a xlink:title=" ">
<path fill="none" stroke="#63b8ff" d="M425.5,-182.59C425.5,-175.97 425.5,-166.97 425.5,-158.77"/>
<polygon fill="#63b8ff" stroke="#63b8ff" points="429,-158.84 425.5,-148.84 422,-158.84 429,-158.84"/>
</a>
</g>
</g>
<!-- Node17 -->
<g id="Node000017" class="node">
<title>Node17</title>
<g id="a_Node000017"><a xlink:href="../../d5/da8/a01865.html" target="_top" xlink:title="View data structures, enums, types, end external declarations.">
<polygon fill="white" stroke="#666666" points="576.25,-147 528.75,-147 528.75,-126.25 576.25,-126.25 576.25,-147"/>
<text xml:space="preserve" text-anchor="middle" x="552.5" y="-133.5" font-family="Helvetica,sans-Serif" font-size="10.00">view.h</text>
</a>
</g>
</g>
<!-- Node2&#45;&gt;Node17 -->
<g id="edge19_Node000002_Node000017" class="edge">
<title>Node2&#45;&gt;Node17</title>
<g id="a_edge19_Node000002_Node000017"><a xlink:title=" ">
<path fill="none" stroke="#63b8ff" d="M448.21,-182.59C468.07,-174.02 497.17,-161.48 519.59,-151.81"/>
<polygon fill="#63b8ff" stroke="#63b8ff" points="520.8,-155.1 528.6,-147.93 518.03,-148.67 520.8,-155.1"/>
</a>
</g>
</g>
<!-- Node4 -->
<g id="Node000004" class="node">
<title>Node4</title>
<g id="a_Node000004"><a xlink:href="../../da/d66/a01856.html" target="_top" xlink:title=" ">
<polygon fill="white" stroke="#666666" points="61,-20.75 0,-20.75 0,0 61,0 61,-20.75"/>
<text xml:space="preserve" text-anchor="middle" x="30.5" y="-7.25" font-family="Helvetica,sans-Serif" font-size="10.00">version.h</text>
</a>
</g>
</g>
<!-- Node3&#45;&gt;Node4 -->
<g id="edge3_Node000003_Node000004" class="edge">
<title>Node3&#45;&gt;Node4</title>
<g id="a_edge3_Node000003_Node000004"><a xlink:title=" ">
<path fill="none" stroke="#63b8ff" d="M309.3,-68.7C267.3,-60.75 167.24,-41.54 72.69,-21.17"/>
<polygon fill="#63b8ff" stroke="#63b8ff" points="73.48,-17.76 62.97,-19.06 72,-24.6 73.48,-17.76"/>
</a>
</g>
</g>
<!-- Node5 -->
<g id="Node000005" class="node">
<title>Node5</title>
<g id="a_Node000005"><a xlink:title=" ">
<polygon fill="#e0e0e0" stroke="#999999" points="125.88,-20.75 79.12,-20.75 79.12,0 125.88,0 125.88,-20.75"/>
<text xml:space="preserve" text-anchor="middle" x="102.5" y="-7.25" font-family="Helvetica,sans-Serif" font-size="10.00">argp.h</text>
</a>
</g>
</g>
<!-- Node3&#45;&gt;Node5 -->
<g id="edge4_Node000003_Node000005" class="edge">
<title>Node3&#45;&gt;Node5</title>
<g id="a_edge4_Node000003_Node000005"><a xlink:title=" ">
<path fill="none" stroke="#63b8ff" d="M309.24,-67.31C275.56,-58.63 205.67,-40.47 137.22,-21.46"/>
<polygon fill="#63b8ff" stroke="#63b8ff" points="138.28,-18.12 127.7,-18.81 136.4,-24.87 138.28,-18.12"/>
</a>
</g>
</g>
<!-- Node6 -->
<g id="Node000006" class="node">
<title>Node6</title>
<g id="a_Node000006"><a xlink:title=" ">
<polygon fill="#e0e0e0" stroke="#999999" points="467.62,-20.75 413.38,-20.75 413.38,0 467.62,0 467.62,-20.75"/>
<text xml:space="preserve" text-anchor="middle" x="440.5" y="-7.25" font-family="Helvetica,sans-Serif" font-size="10.00">signal.h</text>
</a>
</g>
</g>
<!-- Node3&#45;&gt;Node6 -->
<g id="edge5_Node000003_Node000006" class="edge">
<title>Node3&#45;&gt;Node6</title>
<g id="a_edge5_Node000003_Node000006"><a xlink:title=" ">
<path fill="none" stroke="#63b8ff" d="M347.33,-62.68C364.97,-52.97 392.22,-37.96 412.7,-26.68"/>
<polygon fill="#63b8ff" stroke="#63b8ff" points="414.31,-29.79 421.38,-21.9 410.94,-23.66 414.31,-29.79"/>
</a>
</g>
</g>
<!-- Node3&#45;&gt;Node7 -->
<g id="edge6_Node000003_Node000007" class="edge">
<title>Node3&#45;&gt;Node7</title>
<g id="a_edge6_Node000003_Node000007"><a xlink:title=" ">
<path fill="none" stroke="#63b8ff" d="M349.68,-69.3C395.52,-61.94 511.2,-42.93 618.5,-21.07"/>
<polygon fill="#63b8ff" stroke="#63b8ff" points="618.95,-24.55 628.05,-19.11 617.55,-17.69 618.95,-24.55"/>
</a>
</g>
</g>
<!-- Node3&#45;&gt;Node8 -->
<g id="edge7_Node000003_Node000008" class="edge">
<title>Node3&#45;&gt;Node8</title>
<g id="a_edge7_Node000003_Node000008"><a xlink:title=" ">
<path fill="none" stroke="#63b8ff" d="M349.87,-67.74C386.6,-59.14 466.66,-40.3 544.65,-21.18"/>
<polygon fill="#63b8ff" stroke="#63b8ff" points="545.28,-24.63 554.16,-18.84 543.61,-17.83 545.28,-24.63"/>
</a>
</g>
</g>
<!-- Node9 -->
<g id="Node000009" class="node">
<title>Node9</title>
<g id="a_Node000009"><a xlink:title=" ">
<polygon fill="#e0e0e0" stroke="#999999" points="537.5,-20.75 485.5,-20.75 485.5,0 537.5,0 537.5,-20.75"/>
<text xml:space="preserve" text-anchor="middle" x="511.5" y="-7.25" font-family="Helvetica,sans-Serif" font-size="10.00">stdlib.h</text>
</a>
</g>
</g>
<!-- Node3&#45;&gt;Node9 -->
<g id="edge8_Node000003_Node000009" class="edge">
<title>Node3&#45;&gt;Node9</title>
<g id="a_edge8_Node000003_Node000009"><a xlink:title=" ">
<path fill="none" stroke="#63b8ff" d="M349.67,-65.73C379.74,-55.63 436.82,-36.46 474.52,-23.8"/>
<polygon fill="#63b8ff" stroke="#63b8ff" points="475.27,-27.23 483.64,-20.73 473.04,-20.6 475.27,-27.23"/>
</a>
</g>
</g>
<!-- Node10 -->
<g id="Node000010" class="node">
<title>Node10</title>
<g id="a_Node000010"><a xlink:title=" ">
<polygon fill="#e0e0e0" stroke="#999999" points="191.25,-20.75 143.75,-20.75 143.75,0 191.25,0 191.25,-20.75"/>
<text xml:space="preserve" text-anchor="middle" x="167.5" y="-7.25" font-family="Helvetica,sans-Serif" font-size="10.00">time.h</text>
</a>
</g>
</g>
<!-- Node3&#45;&gt;Node10 -->
<g id="edge9_Node000003_Node000010" class="edge">
<title>Node3&#45;&gt;Node10</title>
<g id="a_edge9_Node000003_Node000010"><a xlink:title=" ">
<path fill="none" stroke="#63b8ff" d="M309.31,-64.88C282.49,-54.76 234.7,-36.73 202.07,-24.42"/>
<polygon fill="#63b8ff" stroke="#63b8ff" points="203.65,-21.27 193.06,-21.02 201.18,-27.82 203.65,-21.27"/>
</a>
</g>
</g>
<!-- Node11 -->
<g id="Node000011" class="node">
<title>Node11</title>
<g id="a_Node000011"><a xlink:title=" ">
<polygon fill="#e0e0e0" stroke="#999999" points="255.5,-20.75 209.5,-20.75 209.5,0 255.5,0 255.5,-20.75"/>
<text xml:space="preserve" text-anchor="middle" x="232.5" y="-7.25" font-family="Helvetica,sans-Serif" font-size="10.00">wait.h</text>
</a>
</g>
</g>
<!-- Node3&#45;&gt;Node11 -->
<g id="edge10_Node000003_Node000011" class="edge">
<title>Node3&#45;&gt;Node11</title>
<g id="a_edge10_Node000003_Node000011"><a xlink:title=" ">
<path fill="none" stroke="#63b8ff" d="M313.92,-62.68C298.78,-53.14 275.56,-38.51 257.78,-27.31"/>
<polygon fill="#63b8ff" stroke="#63b8ff" points="259.65,-24.35 249.33,-21.98 255.92,-30.27 259.65,-24.35"/>
</a>
</g>
</g>
<!-- Node12 -->
<g id="Node000012" class="node">
<title>Node12</title>
<g id="a_Node000012"><a xlink:title=" ">
<polygon fill="#e0e0e0" stroke="#999999" points="327.62,-20.75 273.38,-20.75 273.38,0 327.62,0 327.62,-20.75"/>
<text xml:space="preserve" text-anchor="middle" x="300.5" y="-7.25" font-family="Helvetica,sans-Serif" font-size="10.00">wchar.h</text>
</a>
</g>
</g>
<!-- Node3&#45;&gt;Node12 -->
<g id="edge11_Node000003_Node000012" class="edge">
<title>Node3&#45;&gt;Node12</title>
<g id="a_edge11_Node000003_Node000012"><a xlink:title=" ">
<path fill="none" stroke="#63b8ff" d="M324.84,-62.68C320.84,-54.25 314.96,-41.84 309.97,-31.34"/>
<polygon fill="#63b8ff" stroke="#63b8ff" points="313.15,-29.87 305.7,-22.34 306.83,-32.87 313.15,-29.87"/>
</a>
</g>
</g>
<!-- Node13 -->
<g id="Node000013" class="node">
<title>Node13</title>
<g id="a_Node000013"><a xlink:title=" ">
<polygon fill="#e0e0e0" stroke="#999999" points="395,-20.75 346,-20.75 346,0 395,0 395,-20.75"/>
<text xml:space="preserve" text-anchor="middle" x="370.5" y="-7.25" font-family="Helvetica,sans-Serif" font-size="10.00">stdio.h</text>
</a>
</g>
</g>
<!-- Node3&#45;&gt;Node13 -->
<g id="edge12_Node000003_Node000013" class="edge">
<title>Node3&#45;&gt;Node13</title>
<g id="a_edge12_Node000003_Node000013"><a xlink:title=" ">
<path fill="none" stroke="#63b8ff" d="M336.09,-62.68C341.92,-53.98 350.6,-41.05 357.78,-30.34"/>
<polygon fill="#63b8ff" stroke="#63b8ff" points="360.56,-32.48 363.22,-22.23 354.74,-28.58 360.56,-32.48"/>
</a>
</g>
</g>
<!-- Node14&#45;&gt;Node3 -->
<g id="edge14_Node000014_Node000003" class="edge">
<title>Node14&#45;&gt;Node3</title>
<g id="a_edge14_Node000014_Node000003"><a xlink:title=" ">
<path fill="none" stroke="#63b8ff" d="M295.93,-125.8C301.62,-117.11 310.08,-104.17 317.09,-93.47"/>
<polygon fill="#63b8ff" stroke="#63b8ff" points="319.85,-95.65 322.39,-85.36 313.99,-91.81 319.85,-95.65"/>
</a>
</g>
</g>
<!-- Node15&#45;&gt;Node3 -->
<g id="edge16_Node000015_Node000003" class="edge">
<title>Node15&#45;&gt;Node3</title>
<g id="a_edge16_Node000015_Node000003"><a xlink:title=" ">
<path fill="none" stroke="#63b8ff" d="M353.84,-125.8C349.84,-117.38 343.96,-104.97 338.97,-94.47"/>
<polygon fill="#63b8ff" stroke="#63b8ff" points="342.15,-93 334.7,-85.46 335.83,-96 342.15,-93"/>
</a>
</g>
</g>
<!-- Node16&#45;&gt;Node3 -->
<g id="edge18_Node000016_Node000003" class="edge">
<title>Node16&#45;&gt;Node3</title>
<g id="a_edge18_Node000016_Node000003"><a xlink:title=" ">
<path fill="none" stroke="#63b8ff" d="M410.08,-125.8C395.1,-116.27 372.11,-101.63 354.52,-90.43"/>
<polygon fill="#63b8ff" stroke="#63b8ff" points="356.48,-87.53 346.16,-85.11 352.72,-93.43 356.48,-87.53"/>
</a>
</g>
</g>
<!-- Node17&#45;&gt;Node6 -->
<g id="edge29_Node000017_Node000006" class="edge">
<title>Node17&#45;&gt;Node6</title>
<g id="a_edge29_Node000017_Node000006"><a xlink:title=" ">
<path fill="none" stroke="#63b8ff" d="M543.71,-125.88C524.98,-105.1 480.89,-56.19 456.84,-29.51"/>
<polygon fill="#63b8ff" stroke="#63b8ff" points="459.56,-27.29 450.26,-22.2 454.36,-31.97 459.56,-27.29"/>
</a>
</g>
</g>
<!-- Node17&#45;&gt;Node8 -->
<g id="edge30_Node000017_Node000008" class="edge">
<title>Node17&#45;&gt;Node8</title>
<g id="a_edge30_Node000017_Node000008"><a xlink:title=" ">
<path fill="none" stroke="#63b8ff" d="M554.77,-125.89C558.27,-110.98 565.22,-81.6 571.5,-56.75 573.54,-48.66 575.87,-39.79 577.93,-32.05"/>
<polygon fill="#63b8ff" stroke="#63b8ff" points="581.27,-33.12 580.47,-22.56 574.5,-31.31 581.27,-33.12"/>
</a>
</g>
</g>
<!-- Node17&#45;&gt;Node9 -->
<g id="edge31_Node000017_Node000009" class="edge">
<title>Node17&#45;&gt;Node9</title>
<g id="a_edge31_Node000017_Node000009"><a xlink:title=" ">
<path fill="none" stroke="#63b8ff" d="M549.28,-125.88C542.61,-105.64 527.13,-58.73 518.19,-31.65"/>
<polygon fill="#63b8ff" stroke="#63b8ff" points="521.63,-30.92 515.18,-22.52 514.99,-33.11 521.63,-30.92"/>
</a>
</g>
</g>
<!-- Node18 -->
<g id="Node000018" class="node">
<title>Node18</title>
<g id="a_Node000018"><a xlink:href="../../de/dfb/a01874.html" target="_top" xlink:title="Internal header for the NotCurses UI backend.">
<polygon fill="white" stroke="#666666" points="814.75,-90.25 716.25,-90.25 716.25,-56.75 814.75,-56.75 814.75,-90.25"/>
<text xml:space="preserve" text-anchor="start" x="724.25" y="-76.75" font-family="Helvetica,sans-Serif" font-size="10.00">../ui/ui_notcurses</text>
<text xml:space="preserve" text-anchor="middle" x="765.5" y="-64" font-family="Helvetica,sans-Serif" font-size="10.00">_internal.h</text>
</a>
</g>
</g>
<!-- Node17&#45;&gt;Node18 -->
<g id="edge20_Node000017_Node000018" class="edge">
<title>Node17&#45;&gt;Node18</title>
<g id="a_edge20_Node000017_Node000018"><a xlink:title=" ">
<path fill="none" stroke="#63b8ff" d="M576.52,-128.73C607.45,-119.86 662.28,-104.12 704.95,-91.88"/>
<polygon fill="#63b8ff" stroke="#63b8ff" points="705.69,-95.31 714.33,-89.18 703.76,-88.58 705.69,-95.31"/>
</a>
</g>
</g>
<!-- Node19 -->
<g id="Node000019" class="node">
<title>Node19</title>
<g id="a_Node000019"><a xlink:title=" ">
<polygon fill="#e0e0e0" stroke="#999999" points="903.75,-20.75 781.25,-20.75 781.25,0 903.75,0 903.75,-20.75"/>
<text xml:space="preserve" text-anchor="middle" x="842.5" y="-7.25" font-family="Helvetica,sans-Serif" font-size="10.00">notcurses/notcurses.h</text>
</a>
</g>
</g>
<!-- Node17&#45;&gt;Node19 -->
<g id="edge28_Node000017_Node000019" class="edge">
<title>Node17&#45;&gt;Node19</title>
<g id="a_edge28_Node000017_Node000019"><a xlink:title=" ">
<path fill="none" stroke="#63b8ff" d="M576.66,-134.89C636.21,-132.58 787.82,-123.5 823.5,-90.25 839.25,-75.57 842.96,-50.31 843.4,-32.33"/>
<polygon fill="#63b8ff" stroke="#63b8ff" points="846.91,-32.5 843.3,-22.54 839.91,-32.58 846.91,-32.5"/>
</a>
</g>
</g>
<!-- Node21 -->
<g id="Node000021" class="node">
<title>Node21</title>
<g id="a_Node000021"><a xlink:href="../../d0/d4a/a01862.html" target="_top" xlink:title="Backend API for terminal UI library.">
<polygon fill="white" stroke="#666666" points="660.38,-83.88 580.62,-83.88 580.62,-63.12 660.38,-63.12 660.38,-83.88"/>
<text xml:space="preserve" text-anchor="middle" x="620.5" y="-70.38" font-family="Helvetica,sans-Serif" font-size="10.00">ui_backend.h</text>
</a>
</g>
</g>
<!-- Node17&#45;&gt;Node21 -->
<g id="edge24_Node000017_Node000021" class="edge">
<title>Node17&#45;&gt;Node21</title>
<g id="a_edge24_Node000017_Node000021"><a xlink:title=" ">
<path fill="none" stroke="#63b8ff" d="M563.43,-125.8C573.7,-116.57 589.29,-102.56 601.58,-91.51"/>
<polygon fill="#63b8ff" stroke="#63b8ff" points="603.6,-94.39 608.7,-85.11 598.92,-89.19 603.6,-94.39"/>
</a>
</g>
</g>
<!-- Node18&#45;&gt;Node7 -->
<g id="edge22_Node000018_Node000007" class="edge">
<title>Node18&#45;&gt;Node7</title>
<g id="a_edge22_Node000018_Node000007"><a xlink:title=" ">
<path fill="none" stroke="#63b8ff" d="M737.64,-56.28C721.89,-47.11 702.31,-35.72 686.82,-26.7"/>
<polygon fill="#63b8ff" stroke="#63b8ff" points="689.03,-23.93 678.63,-21.93 685.51,-29.98 689.03,-23.93"/>
</a>
</g>
</g>
<!-- Node18&#45;&gt;Node19 -->
<g id="edge21_Node000018_Node000019" class="edge">
<title>Node18&#45;&gt;Node19</title>
<g id="a_edge21_Node000018_Node000019"><a xlink:title=" ">
<path fill="none" stroke="#63b8ff" d="M785.73,-56.44C796.62,-47.8 810.05,-37.13 821.11,-28.35"/>
<polygon fill="#63b8ff" stroke="#63b8ff" points="823.26,-31.12 828.92,-22.16 818.91,-25.63 823.26,-31.12"/>
</a>
</g>
</g>
<!-- Node20 -->
<g id="Node000020" class="node">
<title>Node20</title>
<g id="a_Node000020"><a xlink:title=" ">
<polygon fill="#e0e0e0" stroke="#999999" points="762.88,-20.75 710.12,-20.75 710.12,0 762.88,0 762.88,-20.75"/>
<text xml:space="preserve" text-anchor="middle" x="736.5" y="-7.25" font-family="Helvetica,sans-Serif" font-size="10.00">stdint.h</text>
</a>
</g>
</g>
<!-- Node18&#45;&gt;Node20 -->
<g id="edge23_Node000018_Node000020" class="edge">
<title>Node18&#45;&gt;Node20</title>
<g id="a_edge23_Node000018_Node000020"><a xlink:title=" ">
<path fill="none" stroke="#63b8ff" d="M757.88,-56.44C754.23,-48.76 749.83,-39.48 745.97,-31.34"/>
<polygon fill="#63b8ff" stroke="#63b8ff" points="749.27,-30.12 741.82,-22.58 742.94,-33.12 749.27,-30.12"/>
</a>
</g>
</g>
<!-- Node21&#45;&gt;Node7 -->
<g id="edge25_Node000021_Node000007" class="edge">
<title>Node21&#45;&gt;Node7</title>
<g id="a_edge25_Node000021_Node000007"><a xlink:title=" ">
<path fill="none" stroke="#63b8ff" d="M626.93,-62.68C632.62,-53.98 641.08,-41.05 648.09,-30.34"/>
<polygon fill="#63b8ff" stroke="#63b8ff" points="650.85,-32.52 653.39,-22.24 644.99,-28.69 650.85,-32.52"/>
</a>
</g>
</g>
<!-- Node21&#45;&gt;Node8 -->
<g id="edge26_Node000021_Node000008" class="edge">
<title>Node21&#45;&gt;Node8</title>
<g id="a_edge26_Node000021_Node000008"><a xlink:title=" ">
<path fill="none" stroke="#63b8ff" d="M614.56,-62.68C609.35,-54.07 601.62,-41.31 595.18,-30.67"/>
<polygon fill="#63b8ff" stroke="#63b8ff" points="598.26,-29.01 590.09,-22.26 592.28,-32.63 598.26,-29.01"/>
</a>
</g>
</g>
<!-- Node21&#45;&gt;Node20 -->
<g id="edge27_Node000021_Node000020" class="edge">
<title>Node21&#45;&gt;Node20</title>
<g id="a_edge27_Node000021_Node000020"><a xlink:title=" ">
<path fill="none" stroke="#63b8ff" d="M639.14,-62.68C657.66,-52.92 686.31,-37.82 707.75,-26.53"/>
<polygon fill="#63b8ff" stroke="#63b8ff" points="709.35,-29.64 716.57,-21.88 706.09,-23.44 709.35,-29.64"/>
</a>
</g>
</g>
</g>
</svg>
