<?xml version="1.0" encoding="UTF-8" standalone="no"?>
<!DOCTYPE svg PUBLIC "-//W3C//DTD SVG 1.1//EN"
 "http://www.w3.org/Graphics/SVG/1.1/DTD/svg11.dtd">
<!-- Generated by graphviz version 14.1.2 (0)
 -->
<!-- Title: xwgetch Pages: 1 -->
<!--zoomable 413 -->

<svg id="main" version="1.1" xmlns="http://www.w3.org/2000/svg" xmlns:xlink="http://www.w3.org/1999/xlink" xml:space="preserve" onload="init(evt)">

<style type="text/css"><![CDATA[
.node, .edge {opacity: 0.7;}
.node.selected, .edge.selected {opacity: 1;}
.edge:hover path { stroke: red; }
.edge:hover polygon { stroke: red; fill: red; }
]]></style>

<defs>
  <circle id="rim" cx="0" cy="0" r="7"/>
  <circle id="rim2" cx="0" cy="0" r="3.5"/>
  <g id="zoomPlus">
    <use xlink:href="#rim" fill="#404040"><set attributeName="fill" to="#808080" begin="zoomplus.mouseover" end="zoomplus.mouseout"/></use>
    <path d="M-4,0h8M0,-4v8" fill="none" stroke="white" stroke-width="1.5" pointer-events="none"/>
  </g>
  <g id="zoomMin">
    <use xlink:href="#rim" fill="#404040"><set attributeName="fill" to="#808080" begin="zoomminus.mouseover" end="zoomminus.mouseout"/></use>
    <path d="M-4,0h8" fill="none" stroke="white" stroke-width="1.5" pointer-events="none"/>
  </g>
  <g id="arrowUp" transform="translate(30 24)">
    <use xlink:href="#rim"/>
    <path pointer-events="none" fill="none" stroke="white" stroke-width="1.5" d="M0,-3.0v7 M-2.5,-0.5L0,-3.0L2.5,-0.5"/>
  </g>
  <g id="arrowRight" transform="rotate(90) translate(36 -43)">
    <use xlink:href="#rim"/>
    <path pointer-events="none" fill="none" stroke="white" stroke-width="1.5" d="M0,-3.0v7 M-2.5,-0.5L0,-3.0L2.5,-0.5"/>
  </g>
  <g id="arrowDown" transform="rotate(180) translate(-30 -48)">
    <use xlink:href="#rim"/>
    <path pointer-events="none" fill="none" stroke="white" stroke-width="1.5" d="M0,-3.0v7 M-2.5,-0.5L0,-3.0L2.5,-0.5"/>
  </g>
  <g id="arrowLeft" transform="rotate(270) translate(-36 17)">
    <use xlink:href="#rim"/>
    <path pointer-events="none" fill="none" stroke="white" stroke-width="1.5" d="M0,-3.0v7 M-2.5,-0.5L0,-3.0L2.5,-0.5"/>
  </g>
  <g id="resetDef">
    <use xlink:href="#rim2" fill="#404040"><set attributeName="fill" to="#808080" begin="reset.mouseover" end="reset.mouseout"/></use>
  </g>
</defs>
<script type="application/ecmascript">
var viewWidth = 697;
var viewHeight = 413;
var sectionId = 'dynsection-104';
</script>
<script type="application/ecmascript" xlink:href="../../svg.min.js"/>
<svg id="graph" class="graph">
<g id="viewport">
<title>xwgetch</title>
<!-- Node1 -->
<g id="Node000001" class="node">
<title>Node1</title>
<g id="a_Node000001"><a xlink:title="Wrapper for wgetch that handles signals and mouse events.">
<polygon fill="#999999" stroke="#666666" points="57.25,-192.75 0,-192.75 0,-172 57.25,-172 57.25,-192.75"/>
<text xml:space="preserve" text-anchor="middle" x="28.62" y="-179.25" font-family="Helvetica,sans-Serif" font-size="10.00">xwgetch</text>
</a>
</g>
</g>
<!-- Node2 -->
<g id="Node000002" class="node">
<title>Node2</title>
<g id="a_Node000002"><a xlink:href="../../df/d95/a00299.html#a67659f8a701b74f4dec0d36227a10d1c" target="_top" xlink:title="Display an error message window or print to stderr.">
<polygon fill="white" stroke="#666666" points="179.38,-212.75 99.62,-212.75 99.62,-192 179.38,-192 179.38,-212.75"/>
<text xml:space="preserve" text-anchor="middle" x="139.5" y="-199.25" font-family="Helvetica,sans-Serif" font-size="10.00">display_error</text>
</a>
</g>
</g>
<!-- Node1&#45;&gt;Node2 -->
<g id="edge1_Node000001_Node000002" class="edge">
<title>Node1&#45;&gt;Node2</title>
<g id="a_edge1_Node000001_Node000002"><a xlink:title=" ">
<path fill="none" stroke="#63b8ff" d="M57.66,-181.54C70.79,-183.13 86.61,-185.88 100.77,-188.99"/>
<polygon fill="#63b8ff" stroke="#63b8ff" points="99.67,-192.32 110.21,-191.19 101.27,-185.51 99.67,-192.32"/>
</a>
</g>
</g>
<!-- Node18 -->
<g id="Node000018" class="node">
<title>Node18</title>
<g id="a_Node000018"><a xlink:href="../../df/d95/a00299.html#a4298f891699300bfc4e6e56fd2a8d574" target="_top" xlink:title="Get keycode from chyron.">
<polygon fill="white" stroke="#666666" points="185.75,-173.75 93.25,-173.75 93.25,-153 185.75,-153 185.75,-173.75"/>
<text xml:space="preserve" text-anchor="middle" x="139.5" y="-160.25" font-family="Helvetica,sans-Serif" font-size="10.00">get_chyron_key</text>
</a>
</g>
</g>
<!-- Node1&#45;&gt;Node18 -->
<g id="edge23_Node000001_Node000018" class="edge">
<title>Node1&#45;&gt;Node18</title>
<g id="a_edge23_Node000001_Node000018"><a xlink:title=" ">
<path fill="none" stroke="#63b8ff" d="M57.66,-177.48C65.03,-176.2 73.24,-174.76 81.53,-173.32"/>
<polygon fill="#63b8ff" stroke="#63b8ff" points="82.08,-176.77 91.33,-171.61 80.87,-169.88 82.08,-176.77"/>
</a>
</g>
</g>
<!-- Node19 -->
<g id="Node000019" class="node">
<title>Node19</title>
<g id="a_Node000019"><a xlink:href="../../d1/da8/a00230.html#a79c3e22498eb2346543aa9c86fd22e58" target="_top" xlink:title="Handle received signals and prompt user for action.">
<polygon fill="white" stroke="#666666" points="310.12,-20.75 226.62,-20.75 226.62,0 310.12,0 310.12,-20.75"/>
<text xml:space="preserve" text-anchor="middle" x="268.38" y="-7.25" font-family="Helvetica,sans-Serif" font-size="10.00">handle_signal</text>
</a>
</g>
</g>
<!-- Node1&#45;&gt;Node19 -->
<g id="edge24_Node000001_Node000019" class="edge">
<title>Node1&#45;&gt;Node19</title>
<g id="a_edge24_Node000001_Node000019"><a xlink:title=" ">
<path fill="none" stroke="#63b8ff" d="M42.24,-171.85C72.34,-146.96 151.15,-83.03 221.75,-36.38 226.66,-33.13 232,-29.87 237.24,-26.8"/>
<polygon fill="#63b8ff" stroke="#63b8ff" points="238.78,-29.95 245.73,-21.96 235.31,-23.87 238.78,-29.95"/>
</a>
</g>
</g>
<!-- Node2&#45;&gt;Node1 -->
<g id="edge22_Node000002_Node000001" class="edge">
<title>Node2&#45;&gt;Node1</title>
<g id="a_edge22_Node000002_Node000001"><a xlink:title=" ">
<path fill="none" stroke="#63b8ff" d="M99.15,-201.66C88.87,-200.1 77.82,-198.06 67.61,-195.82"/>
<polygon fill="#63b8ff" stroke="#63b8ff" points="68.55,-192.45 58.01,-193.58 66.95,-199.26 68.55,-192.45"/>
</a>
</g>
</g>
<!-- Node3 -->
<g id="Node000003" class="node">
<title>Node3</title>
<g id="a_Node000003"><a xlink:href="../../df/d95/a00299.html#a8f6c45ca4a7f6a41c4c88314e697565a" target="_top" xlink:title="Abnormal program termination.">
<polygon fill="white" stroke="#666666" points="407.88,-289.75 361.88,-289.75 361.88,-269 407.88,-269 407.88,-289.75"/>
<text xml:space="preserve" text-anchor="middle" x="384.88" y="-276.25" font-family="Helvetica,sans-Serif" font-size="10.00">abend</text>
</a>
</g>
</g>
<!-- Node2&#45;&gt;Node3 -->
<g id="edge2_Node000002_Node000003" class="edge">
<title>Node2&#45;&gt;Node3</title>
<g id="a_edge2_Node000002_Node000003"><a xlink:title=" ">
<path fill="none" stroke="#63b8ff" d="M151.81,-213.09C166.6,-226.4 193.93,-248.67 221.75,-259.38 263.95,-275.61 316.46,-279.38 350.08,-279.91"/>
<polygon fill="#63b8ff" stroke="#63b8ff" points="350.02,-283.41 360.04,-279.97 350.06,-276.41 350.02,-283.41"/>
</a>
</g>
</g>
<!-- Node7 -->
<g id="Node000007" class="node">
<title>Node7</title>
<g id="a_Node000007"><a xlink:href="../../df/d95/a00299.html#a645871e46277e31736bc36d0f3dce4bd" target="_top" xlink:title="construct the chyron string from the chyron structure">
<polygon fill="white" stroke="#666666" points="315,-404.75 221.75,-404.75 221.75,-384 315,-384 315,-404.75"/>
<text xml:space="preserve" text-anchor="middle" x="268.38" y="-391.25" font-family="Helvetica,sans-Serif" font-size="10.00">compile_chyron</text>
</a>
</g>
</g>
<!-- Node2&#45;&gt;Node7 -->
<g id="edge8_Node000002_Node000007" class="edge">
<title>Node2&#45;&gt;Node7</title>
<g id="a_edge8_Node000002_Node000007"><a xlink:title=" ">
<path fill="none" stroke="#63b8ff" d="M142.8,-213.2C149.64,-242.87 172.5,-326.49 221.75,-374.38 222.8,-375.39 223.9,-376.36 225.06,-377.29"/>
<polygon fill="#63b8ff" stroke="#63b8ff" points="223.08,-380.17 233.37,-382.69 226.89,-374.31 223.08,-380.17"/>
</a>
</g>
</g>
<!-- Node9 -->
<g id="Node000009" class="node">
<title>Node9</title>
<g id="a_Node000009"><a xlink:href="../../df/d95/a00299.html#a3f3feb40fd703913c5c136331f627c91" target="_top" xlink:title="Destroy Chyron structure.">
<polygon fill="white" stroke="#666666" points="313.88,-174.75 222.88,-174.75 222.88,-154 313.88,-154 313.88,-174.75"/>
<text xml:space="preserve" text-anchor="middle" x="268.38" y="-161.25" font-family="Helvetica,sans-Serif" font-size="10.00">destroy_chyron</text>
</a>
</g>
</g>
<!-- Node2&#45;&gt;Node9 -->
<g id="edge10_Node000002_Node000009" class="edge">
<title>Node2&#45;&gt;Node9</title>
<g id="a_edge10_Node000002_Node000009"><a xlink:title=" ">
<path fill="none" stroke="#63b8ff" d="M176.52,-191.59C190.18,-187.5 205.94,-182.78 220.46,-178.43"/>
<polygon fill="#63b8ff" stroke="#63b8ff" points="221.24,-181.85 229.82,-175.62 219.23,-175.14 221.24,-181.85"/>
</a>
</g>
</g>
<!-- Node10 -->
<g id="Node000010" class="node">
<title>Node10</title>
<g id="a_Node000010"><a xlink:href="../../df/d95/a00299.html#ad37d5808ff30ae6894780425d865abae" target="_top" xlink:title="Create and initialize Chyron structure.">
<polygon fill="white" stroke="#666666" points="305.62,-326.75 231.12,-326.75 231.12,-306 305.62,-306 305.62,-326.75"/>
<text xml:space="preserve" text-anchor="middle" x="268.38" y="-313.25" font-family="Helvetica,sans-Serif" font-size="10.00">new_chyron</text>
</a>
</g>
</g>
<!-- Node2&#45;&gt;Node10 -->
<g id="edge11_Node000002_Node000010" class="edge">
<title>Node2&#45;&gt;Node10</title>
<g id="a_edge11_Node000002_Node000010"><a xlink:title=" ">
<path fill="none" stroke="#63b8ff" d="M148.25,-213.2C161.64,-231.34 190.66,-268.23 221.75,-292.38 225.31,-295.14 229.23,-297.74 233.23,-300.14"/>
<polygon fill="#63b8ff" stroke="#63b8ff" points="231.43,-303.14 241.87,-304.93 234.82,-297.02 231.43,-303.14"/>
</a>
</g>
</g>
<!-- Node11 -->
<g id="Node000011" class="node">
<title>Node11</title>
<g id="a_Node000011"><a xlink:href="../../df/d95/a00299.html#a208ce92c197fdd6d2b007987e534aa3b" target="_top" xlink:title="Set chyron key.">
<polygon fill="white" stroke="#666666" points="314.25,-135.75 222.5,-135.75 222.5,-115 314.25,-115 314.25,-135.75"/>
<text xml:space="preserve" text-anchor="middle" x="268.38" y="-122.25" font-family="Helvetica,sans-Serif" font-size="10.00">set_chyron_key</text>
</a>
</g>
</g>
<!-- Node2&#45;&gt;Node11 -->
<g id="edge13_Node000002_Node000011" class="edge">
<title>Node2&#45;&gt;Node11</title>
<g id="a_edge13_Node000002_Node000011"><a xlink:title=" ">
<path fill="none" stroke="#63b8ff" d="M169.16,-191.7C174.87,-189.03 180.67,-185.91 185.75,-182.38 204.59,-169.28 202.89,-158.45 221.75,-145.38 223.69,-144.03 225.74,-142.74 227.85,-141.51"/>
<polygon fill="#63b8ff" stroke="#63b8ff" points="229.39,-144.66 236.65,-136.94 226.17,-138.45 229.39,-144.66"/>
</a>
</g>
</g>
<!-- Node12 -->
<g id="Node000012" class="node">
<title>Node12</title>
<g id="a_Node000012"><a xlink:href="../../dc/d5d/a00278.html#a63eb94756fb011a456a3dec900709cd8" target="_top" xlink:title="ssnprintf was designed to be a safer alternative to snprintf.">
<polygon fill="white" stroke="#666666" points="414.25,-58.75 355.5,-58.75 355.5,-38 414.25,-38 414.25,-58.75"/>
<text xml:space="preserve" text-anchor="middle" x="384.88" y="-45.25" font-family="Helvetica,sans-Serif" font-size="10.00">ssnprintf</text>
</a>
</g>
</g>
<!-- Node2&#45;&gt;Node12 -->
<g id="edge15_Node000002_Node000012" class="edge">
<title>Node2&#45;&gt;Node12</title>
<g id="a_edge15_Node000002_Node000012"><a xlink:title=" ">
<path fill="none" stroke="#63b8ff" d="M173.88,-191.66C178.29,-189.15 182.43,-186.09 185.75,-182.38 221.43,-142.43 180.51,-101.55 221.75,-67.38 255.61,-39.31 308.01,-38.29 344.02,-41.84"/>
<polygon fill="#63b8ff" stroke="#63b8ff" points="343.25,-45.27 353.58,-42.95 344.05,-38.32 343.25,-45.27"/>
</a>
</g>
</g>
<!-- Node13 -->
<g id="Node000013" class="node">
<title>Node13</title>
<g id="a_Node000013"><a xlink:href="../../dc/d5d/a00278.html#a636608f26d1193b5d860f2312cd8ee49" target="_top" xlink:title="terminates string at New Line, Carriage Return, or max_len">
<polygon fill="white" stroke="#666666" points="288.38,-96.75 248.38,-96.75 248.38,-76 288.38,-76 288.38,-96.75"/>
<text xml:space="preserve" text-anchor="middle" x="268.38" y="-83.25" font-family="Helvetica,sans-Serif" font-size="10.00">strnz</text>
</a>
</g>
</g>
<!-- Node2&#45;&gt;Node13 -->
<g id="edge16_Node000002_Node000013" class="edge">
<title>Node2&#45;&gt;Node13</title>
<g id="a_edge16_Node000002_Node000013"><a xlink:title=" ">
<path fill="none" stroke="#63b8ff" d="M172.5,-191.73C177.31,-189.18 181.94,-186.09 185.75,-182.38 212.52,-156.29 194.94,-132.41 221.75,-106.38 226.33,-101.93 232.05,-98.39 237.89,-95.6"/>
<polygon fill="#63b8ff" stroke="#63b8ff" points="238.94,-98.94 246.88,-91.92 236.3,-92.46 238.94,-98.94"/>
</a>
</g>
</g>
<!-- Node14 -->
<g id="Node000014" class="node">
<title>Node14</title>
<g id="a_Node000014"><a xlink:href="../../dc/d5d/a00278.html#a0de2e40df9bd7efc8fd9afb8ad2257e6" target="_top" xlink:title="safer alternative to strncpy">
<polygon fill="white" stroke="#666666" points="418.75,-211.75 351,-211.75 351,-191 418.75,-191 418.75,-211.75"/>
<text xml:space="preserve" text-anchor="middle" x="384.88" y="-198.25" font-family="Helvetica,sans-Serif" font-size="10.00">strnz__cpy</text>
</a>
</g>
</g>
<!-- Node2&#45;&gt;Node14 -->
<g id="edge17_Node000002_Node000014" class="edge">
<title>Node2&#45;&gt;Node14</title>
<g id="a_edge17_Node000002_Node000014"><a xlink:title=" ">
<path fill="none" stroke="#63b8ff" d="M179.87,-202.21C223.56,-202.03 293.89,-201.74 339.5,-201.56"/>
<polygon fill="#63b8ff" stroke="#63b8ff" points="339.31,-205.06 349.3,-201.52 339.28,-198.06 339.31,-205.06"/>
</a>
</g>
</g>
<!-- Node15 -->
<g id="Node000015" class="node">
<title>Node15</title>
<g id="a_Node000015"><a xlink:href="../../df/d95/a00299.html#a9dd598e1d49c8764af1eec42c682623e" target="_top" xlink:title="Delete the current window and its associated box window.">
<polygon fill="white" stroke="#666666" points="295.12,-365.75 241.62,-365.75 241.62,-345 295.12,-345 295.12,-365.75"/>
<text xml:space="preserve" text-anchor="middle" x="268.38" y="-352.25" font-family="Helvetica,sans-Serif" font-size="10.00">win_del</text>
</a>
</g>
</g>
<!-- Node2&#45;&gt;Node15 -->
<g id="edge18_Node000002_Node000015" class="edge">
<title>Node2&#45;&gt;Node15</title>
<g id="a_edge18_Node000002_Node000015"><a xlink:title=" ">
<path fill="none" stroke="#63b8ff" d="M144.47,-213.2C154.06,-238.01 180.78,-299.6 221.75,-335.38 224.55,-337.82 227.7,-340.01 231,-341.96"/>
<polygon fill="#63b8ff" stroke="#63b8ff" points="229.3,-345.02 239.8,-346.42 232.46,-338.78 229.3,-345.02"/>
</a>
</g>
</g>
<!-- Node16 -->
<g id="Node000016" class="node">
<title>Node16</title>
<g id="a_Node000016"><a xlink:href="../../df/d95/a00299.html#a435c7bff7ffedb8f51c6de9259e36f6c" target="_top" xlink:title="Create a new window with optional box and title.">
<polygon fill="white" stroke="#666666" points="297.75,-250.75 239,-250.75 239,-230 297.75,-230 297.75,-250.75"/>
<text xml:space="preserve" text-anchor="middle" x="268.38" y="-237.25" font-family="Helvetica,sans-Serif" font-size="10.00">win_new</text>
</a>
</g>
</g>
<!-- Node2&#45;&gt;Node16 -->
<g id="edge19_Node000002_Node000016" class="edge">
<title>Node2&#45;&gt;Node16</title>
<g id="a_edge19_Node000002_Node000016"><a xlink:title=" ">
<path fill="none" stroke="#63b8ff" d="M176.52,-213.16C192.47,-217.94 211.29,-223.58 227.65,-228.48"/>
<polygon fill="#63b8ff" stroke="#63b8ff" points="226.48,-231.78 237.07,-231.3 228.49,-225.08 226.48,-231.78"/>
</a>
</g>
</g>
<!-- Node4 -->
<g id="Node000004" class="node">
<title>Node4</title>
<g id="a_Node000004"><a xlink:href="../../df/d95/a00299.html#afc0985a403e3eac0b2cd8f0fab500256" target="_top" xlink:title="Gracefully shut down NCurses and restore terminal settings.">
<polygon fill="white" stroke="#666666" points="544.25,-270.75 454.75,-270.75 454.75,-250 544.25,-250 544.25,-270.75"/>
<text xml:space="preserve" text-anchor="middle" x="499.5" y="-257.25" font-family="Helvetica,sans-Serif" font-size="10.00">destroy_curses</text>
</a>
</g>
</g>
<!-- Node3&#45;&gt;Node4 -->
<g id="edge3_Node000003_Node000004" class="edge">
<title>Node3&#45;&gt;Node4</title>
<g id="a_edge3_Node000003_Node000004"><a xlink:title=" ">
<path fill="none" stroke="#63b8ff" d="M408.13,-275.62C418.24,-273.92 430.69,-271.81 443.09,-269.72"/>
<polygon fill="#63b8ff" stroke="#63b8ff" points="443.62,-273.18 452.9,-268.07 442.46,-266.28 443.62,-273.18"/>
</a>
</g>
</g>
<!-- Node5 -->
<g id="Node000005" class="node">
<title>Node5</title>
<g id="a_Node000005"><a xlink:href="../../d6/de1/a00233.html#ac5e3adb304b78910fc77761ef6a743f0" target="_top" xlink:title="restore_shell_tioctl() &#45; restore shell terminal settings">
<polygon fill="white" stroke="#666666" points="689.25,-232.75 580.25,-232.75 580.25,-212 689.25,-212 689.25,-232.75"/>
<text xml:space="preserve" text-anchor="middle" x="634.75" y="-219.25" font-family="Helvetica,sans-Serif" font-size="10.00">restore_shell_tioctl</text>
</a>
</g>
</g>
<!-- Node3&#45;&gt;Node5 -->
<g id="edge6_Node000003_Node000005" class="edge">
<title>Node3&#45;&gt;Node5</title>
<g id="a_edge6_Node000003_Node000005"><a xlink:title=" ">
<path fill="none" stroke="#63b8ff" d="M403.59,-268.55C420.33,-258.5 444.39,-244.63 454.75,-241.38 491.31,-229.87 533.92,-225.03 568.39,-223.1"/>
<polygon fill="#63b8ff" stroke="#63b8ff" points="568.42,-226.61 578.24,-222.63 568.08,-219.61 568.42,-226.61"/>
</a>
</g>
</g>
<!-- Node6 -->
<g id="Node000006" class="node">
<title>Node6</title>
<g id="a_Node000006"><a xlink:href="../../d1/da8/a00230.html#a06c1eb6cf3649dc187115565409f91af" target="_top" xlink:title="Set signal handlers to default behavior.">
<polygon fill="white" stroke="#666666" points="675.38,-289.75 594.12,-289.75 594.12,-269 675.38,-269 675.38,-289.75"/>
<text xml:space="preserve" text-anchor="middle" x="634.75" y="-276.25" font-family="Helvetica,sans-Serif" font-size="10.00">sig_dfl_mode</text>
</a>
</g>
</g>
<!-- Node3&#45;&gt;Node6 -->
<g id="edge7_Node000003_Node000006" class="edge">
<title>Node3&#45;&gt;Node6</title>
<g id="a_edge7_Node000003_Node000006"><a xlink:title=" ">
<path fill="none" stroke="#63b8ff" d="M408.31,-279.38C447.39,-279.38 528.89,-279.38 582.44,-279.38"/>
<polygon fill="#63b8ff" stroke="#63b8ff" points="582.24,-282.88 592.24,-279.38 582.24,-275.88 582.24,-282.88"/>
</a>
</g>
</g>
<!-- Node4&#45;&gt;Node5 -->
<g id="edge4_Node000004_Node000005" class="edge">
<title>Node4&#45;&gt;Node5</title>
<g id="a_edge4_Node000004_Node000005"><a xlink:title=" ">
<path fill="none" stroke="#63b8ff" d="M538.33,-249.59C552.82,-245.46 569.55,-240.68 584.93,-236.3"/>
<polygon fill="#63b8ff" stroke="#63b8ff" points="585.72,-239.71 594.37,-233.6 583.8,-232.98 585.72,-239.71"/>
</a>
</g>
</g>
<!-- Node4&#45;&gt;Node6 -->
<g id="edge5_Node000004_Node000006" class="edge">
<title>Node4&#45;&gt;Node6</title>
<g id="a_edge5_Node000004_Node000006"><a xlink:title=" ">
<path fill="none" stroke="#63b8ff" d="M544.5,-266.65C556.69,-268.39 570.02,-270.29 582.58,-272.08"/>
<polygon fill="#63b8ff" stroke="#63b8ff" points="581.95,-275.52 592.34,-273.47 582.94,-268.59 581.95,-275.52"/>
</a>
</g>
</g>
<!-- Node8 -->
<g id="Node000008" class="node">
<title>Node8</title>
<g id="a_Node000008"><a xlink:href="../../dc/d5d/a00278.html#aa0145c044cfdde3a1c83323410a59f25" target="_top" xlink:title="safer alternative to strncat">
<polygon fill="white" stroke="#666666" points="417.62,-404.75 352.12,-404.75 352.12,-384 417.62,-384 417.62,-404.75"/>
<text xml:space="preserve" text-anchor="middle" x="384.88" y="-391.25" font-family="Helvetica,sans-Serif" font-size="10.00">strnz__cat</text>
</a>
</g>
</g>
<!-- Node7&#45;&gt;Node8 -->
<g id="edge9_Node000007_Node000008" class="edge">
<title>Node7&#45;&gt;Node8</title>
<g id="a_edge9_Node000007_Node000008"><a xlink:title=" ">
<path fill="none" stroke="#63b8ff" d="M315.29,-394.38C323.58,-394.38 332.19,-394.38 340.41,-394.38"/>
<polygon fill="#63b8ff" stroke="#63b8ff" points="340.17,-397.88 350.17,-394.38 340.17,-390.88 340.17,-397.88"/>
</a>
</g>
</g>
<!-- Node10&#45;&gt;Node3 -->
<g id="edge12_Node000010_Node000003" class="edge">
<title>Node10&#45;&gt;Node3</title>
<g id="a_edge12_Node000010_Node000003"><a xlink:title=" ">
<path fill="none" stroke="#63b8ff" d="M302.8,-305.57C317.84,-300.71 335.56,-294.99 350.59,-290.13"/>
<polygon fill="#63b8ff" stroke="#63b8ff" points="351.59,-293.49 360.03,-287.08 349.43,-286.83 351.59,-293.49"/>
</a>
</g>
</g>
<!-- Node11&#45;&gt;Node12 -->
<g id="edge14_Node000011_Node000012" class="edge">
<title>Node11&#45;&gt;Node12</title>
<g id="a_edge14_Node000011_Node000012"><a xlink:title=" ">
<path fill="none" stroke="#63b8ff" d="M297.51,-114.51C303.44,-111.82 309.55,-108.73 315,-105.38 333.04,-94.26 351.42,-78.79 364.65,-66.77"/>
<polygon fill="#63b8ff" stroke="#63b8ff" points="366.86,-69.5 371.81,-60.13 362.1,-64.37 366.86,-69.5"/>
</a>
</g>
</g>
<!-- Node16&#45;&gt;Node14 -->
<g id="edge21_Node000016_Node000014" class="edge">
<title>Node16&#45;&gt;Node14</title>
<g id="a_edge21_Node000016_Node000014"><a xlink:title=" ">
<path fill="none" stroke="#63b8ff" d="M297.97,-230.63C311.06,-226.18 326.85,-220.8 341.29,-215.88"/>
<polygon fill="#63b8ff" stroke="#63b8ff" points="342.24,-219.25 350.58,-212.72 339.99,-212.63 342.24,-219.25"/>
</a>
</g>
</g>
<!-- Node17 -->
<g id="Node000017" class="node">
<title>Node17</title>
<g id="a_Node000017"><a xlink:href="../../df/d95/a00299.html#ac9adcf7339be4a05ab1a7350c236b8a5" target="_top" xlink:title="Draw a box around the specified window.">
<polygon fill="white" stroke="#666666" points="404.5,-250.75 365.25,-250.75 365.25,-230 404.5,-230 404.5,-250.75"/>
<text xml:space="preserve" text-anchor="middle" x="384.88" y="-237.25" font-family="Helvetica,sans-Serif" font-size="10.00">cbox</text>
</a>
</g>
</g>
<!-- Node16&#45;&gt;Node17 -->
<g id="edge20_Node000016_Node000017" class="edge">
<title>Node16&#45;&gt;Node17</title>
<g id="a_edge20_Node000016_Node000017"><a xlink:title=" ">
<path fill="none" stroke="#63b8ff" d="M297.97,-240.38C314.9,-240.38 336.32,-240.38 353.54,-240.38"/>
<polygon fill="#63b8ff" stroke="#63b8ff" points="353.44,-243.88 363.44,-240.38 353.44,-236.88 353.44,-243.88"/>
</a>
</g>
</g>
<!-- Node19&#45;&gt;Node5 -->
<g id="edge25_Node000019_Node000005" class="edge">
<title>Node19&#45;&gt;Node5</title>
<g id="a_edge25_Node000019_Node000005"><a xlink:title=" ">
<path fill="none" stroke="#63b8ff" d="M310.47,-9.11C341.53,-9.66 384.52,-13.72 418.75,-29.38 508.51,-70.43 587.31,-162.4 618.96,-202.76"/>
<polygon fill="#63b8ff" stroke="#63b8ff" points="616.01,-204.66 624.89,-210.43 621.55,-200.38 616.01,-204.66"/>
</a>
</g>
</g>
<!-- Node19&#45;&gt;Node12 -->
<g id="edge26_Node000019_Node000012" class="edge">
<title>Node19&#45;&gt;Node12</title>
<g id="a_edge26_Node000019_Node000012"><a xlink:title=" ">
<path fill="none" stroke="#63b8ff" d="M301.88,-21.16C315.13,-25.56 330.57,-30.68 344.46,-35.29"/>
<polygon fill="#63b8ff" stroke="#63b8ff" points="343.16,-38.55 353.75,-38.38 345.36,-31.91 343.16,-38.55"/>
</a>
</g>
</g>
<!-- Node19&#45;&gt;Node14 -->
<g id="edge27_Node000019_Node000014" class="edge">
<title>Node19&#45;&gt;Node14</title>
<g id="a_edge27_Node000019_Node000014"><a xlink:title=" ">
<path fill="none" stroke="#63b8ff" d="M279.16,-21.23C288.91,-32.34 303.97,-50.35 315,-67.38 339.64,-105.41 362.47,-153.33 374.66,-180.34"/>
<polygon fill="#63b8ff" stroke="#63b8ff" points="371.33,-181.46 378.59,-189.17 377.72,-178.61 371.33,-181.46"/>
</a>
</g>
</g>
</g>
</svg>

<g id="navigator" transform="translate(0 0)" fill="#404254">
  <rect fill="#f2f5e9" fill-opacity="0.5" stroke="#606060" stroke-width=".5" x="0" y="0" width="60" height="60"/>
  <use id="zoomplus" xlink:href="#zoomPlus" x="17" y="9" onmousedown="handleZoom(evt,'in')"/>
  <use id="zoomminus" xlink:href="#zoomMin" x="42" y="9" onmousedown="handleZoom(evt,'out')"/>
  <use id="reset" xlink:href="#resetDef" x="30" y="36" onmousedown="handleReset()"/>
   <use id="arrowup" xlink:href="#arrowUp" x="0" y="0" onmousedown="handlePan(0,-1)"/>
  <use id="arrowright" xlink:href="#arrowRight" x="0" y="0" onmousedown="handlePan(1,0)"/>
  <use id="arrowdown" xlink:href="#arrowDown" x="0" y="0" onmousedown="handlePan(0,1)"/>
  <use id="arrowleft" xlink:href="#arrowLeft" x="0" y="0" onmousedown="handlePan(-1,0)"/>
</g>
<svg viewBox="0 0 15 15" width="100%" height="30px" preserveAspectRatio="xMaxYMin meet">
 <g id="arrow_out" transform="scale(0.3 0.3)">
  <a xlink:href="a00326_aac9874270b7235ff96625972fa6ea81a_cgraph_org.svg" target="_base">
   <rect id="button" ry="5" rx="5" y="6" x="6" height="38" width="38"
        fill="#f2f5e9" fill-opacity="0.5" stroke="#606060" stroke-width="1.0"/>
   <path id="arrow"
     d="M 11.500037,31.436501 C 11.940474,20.09759 22.043105,11.32322 32.158766,21.979434 L 37.068811,17.246167 C 37.068811,17.246167 37.088388,32 37.088388,32 L 22.160133,31.978069 C 22.160133,31.978069 26.997745,27.140456 26.997745,27.140456 C 18.528582,18.264221 13.291696,25.230495 11.500037,31.436501 z"
     style="fill:#404040;"/>
  </a>
 </g>
</svg>

<style type='text/css'>
<![CDATA[
[data-mouse-over-selected='false'] { opacity: 0.7; }
[data-mouse-over-selected='true']  { opacity: 1.0; }
]]>
</style>
<script type="application/ecmascript"><![CDATA[
document.addEventListener('DOMContentLoaded', (event) => {
  highlightEdges();
  highlightAdjacentNodes();
});
]]></script>
</svg>
