<?xml version="1.0" encoding="UTF-8" standalone="no"?>
<!DOCTYPE svg PUBLIC "-//W3C//DTD SVG 1.1//EN"
 "http://www.w3.org/Graphics/SVG/1.1/DTD/svg11.dtd">
<!-- Generated by graphviz version 14.1.2 (0)
 -->
<!-- Title: canonicalize_file_spec Pages: 1 -->
<!--zoomable 323 -->

<svg id="main" version="1.1" xmlns="http://www.w3.org/2000/svg" xmlns:xlink="http://www.w3.org/1999/xlink" xml:space="preserve" onload="init(evt)">

<style type="text/css"><![CDATA[
.node, .edge {opacity: 0.7;}
.node.selected, .edge.selected {opacity: 1;}
.edge:hover path { stroke: red; }
.edge:hover polygon { stroke: red; fill: red; }
]]></style>

<defs>
  <circle id="rim" cx="0" cy="0" r="7"/>
  <circle id="rim2" cx="0" cy="0" r="3.5"/>
  <g id="zoomPlus">
    <use xlink:href="#rim" fill="#404040"><set attributeName="fill" to="#808080" begin="zoomplus.mouseover" end="zoomplus.mouseout"/></use>
    <path d="M-4,0h8M0,-4v8" fill="none" stroke="white" stroke-width="1.5" pointer-events="none"/>
  </g>
  <g id="zoomMin">
    <use xlink:href="#rim" fill="#404040"><set attributeName="fill" to="#808080" begin="zoomminus.mouseover" end="zoomminus.mouseout"/></use>
    <path d="M-4,0h8" fill="none" stroke="white" stroke-width="1.5" pointer-events="none"/>
  </g>
  <g id="arrowUp" transform="translate(30 24)">
    <use xlink:href="#rim"/>
    <path pointer-events="none" fill="none" stroke="white" stroke-width="1.5" d="M0,-3.0v7 M-2.5,-0.5L0,-3.0L2.5,-0.5"/>
  </g>
  <g id="arrowRight" transform="rotate(90) translate(36 -43)">
    <use xlink:href="#rim"/>
    <path pointer-events="none" fill="none" stroke="white" stroke-width="1.5" d="M0,-3.0v7 M-2.5,-0.5L0,-3.0L2.5,-0.5"/>
  </g>
  <g id="arrowDown" transform="rotate(180) translate(-30 -48)">
    <use xlink:href="#rim"/>
    <path pointer-events="none" fill="none" stroke="white" stroke-width="1.5" d="M0,-3.0v7 M-2.5,-0.5L0,-3.0L2.5,-0.5"/>
  </g>
  <g id="arrowLeft" transform="rotate(270) translate(-36 17)">
    <use xlink:href="#rim"/>
    <path pointer-events="none" fill="none" stroke="white" stroke-width="1.5" d="M0,-3.0v7 M-2.5,-0.5L0,-3.0L2.5,-0.5"/>
  </g>
  <g id="resetDef">
    <use xlink:href="#rim2" fill="#404040"><set attributeName="fill" to="#808080" begin="reset.mouseover" end="reset.mouseout"/></use>
  </g>
</defs>
<script type="application/ecmascript">
var viewWidth = 2043;
var viewHeight = 323;
var sectionId = 'dynsection-7';
</script>
<script type="application/ecmascript" xlink:href="../../svg.min.js"/>
<svg id="graph" class="graph">
<g id="viewport">
<title>canonicalize_file_spec</title>
<!-- Node1 -->
<g id="Node000001" class="node">
<title>Node1</title>
<g id="a_Node000001"><a xlink:title="Removes quotes and trims at first space.">
<polygon fill="#999999" stroke="#666666" points="2034.5,-155.38 1909,-155.38 1909,-134.62 2034.5,-134.62 2034.5,-155.38"/>
<text xml:space="preserve" text-anchor="middle" x="1971.75" y="-141.88" font-family="Helvetica,sans-Serif" font-size="10.00">canonicalize_file_spec</text>
</a>
</g>
</g>
<!-- Node2 -->
<g id="Node000002" class="node">
<title>Node2</title>
<g id="a_Node000002"><a xlink:href="../../dc/d5d/a00278.html#a02792428710078b7a2ca59ef70ae83fa" target="_top" xlink:title="Locates a file in the system PATH.">
<polygon fill="white" stroke="#666666" points="1873,-193.38 1764.75,-193.38 1764.75,-172.62 1873,-172.62 1873,-193.38"/>
<text xml:space="preserve" text-anchor="middle" x="1818.88" y="-179.88" font-family="Helvetica,sans-Serif" font-size="10.00">locate_file_in_path</text>
</a>
</g>
</g>
<!-- Node1&#45;&gt;Node2 -->
<g id="edge1_Node000001_Node000002" class="edge">
<title>Node1&#45;&gt;Node2</title>
<g id="a_edge1_Node000001_Node000002"><a xlink:title=" ">
<path fill="none" stroke="#63b8ff" d="M1916.85,-158.58C1899.1,-163.05 1879.63,-167.95 1862.81,-172.19"/>
<polygon fill="#63b8ff" stroke="#63b8ff" points="1917.61,-161.99 1926.45,-156.16 1915.9,-155.21 1917.61,-161.99"/>
</a>
</g>
</g>
<!-- Node25 -->
<g id="Node000025" class="node">
<title>Node25</title>
<g id="a_Node000025"><a xlink:href="../../df/da9/a00263.html#a75ce293fe4e007a3337a190647408000" target="_top" xlink:title="Verify file specification argument.">
<polygon fill="white" stroke="#666666" points="1728.75,-155.38 1635.5,-155.38 1635.5,-134.62 1728.75,-134.62 1728.75,-155.38"/>
<text xml:space="preserve" text-anchor="middle" x="1682.12" y="-141.88" font-family="Helvetica,sans-Serif" font-size="10.00">verify_spec_arg</text>
</a>
</g>
</g>
<!-- Node1&#45;&gt;Node25 -->
<g id="edge42_Node000001_Node000025" class="edge">
<title>Node1&#45;&gt;Node25</title>
<g id="a_edge42_Node000001_Node000025"><a xlink:title=" ">
<path fill="none" stroke="#63b8ff" d="M1897.31,-145C1844.29,-145 1774.34,-145 1729.04,-145"/>
<polygon fill="#63b8ff" stroke="#63b8ff" points="1897.18,-148.5 1907.18,-145 1897.18,-141.5 1897.18,-148.5"/>
</a>
</g>
</g>
<!-- Node28 -->
<g id="Node000028" class="node">
<title>Node28</title>
<g id="a_Node000028"><a xlink:href="../../dc/d5d/a00278.html#ab190e75e095b7d3da114fce21ab8c8ea" target="_top" xlink:title="Verifies that the file specified by &quot;in_spec&quot; exists and is accessible with the permissions specified...">
<polygon fill="white" stroke="#666666" points="1851.62,-117.38 1786.12,-117.38 1786.12,-96.62 1851.62,-96.62 1851.62,-117.38"/>
<text xml:space="preserve" text-anchor="middle" x="1818.88" y="-103.88" font-family="Helvetica,sans-Serif" font-size="10.00">verify_file</text>
</a>
</g>
</g>
<!-- Node1&#45;&gt;Node28 -->
<g id="edge40_Node000001_Node000028" class="edge">
<title>Node1&#45;&gt;Node28</title>
<g id="a_edge40_Node000001_Node000028"><a xlink:title=" ">
<path fill="none" stroke="#63b8ff" d="M1916.81,-131.41C1895.03,-125.93 1870.64,-119.79 1851.77,-115.03"/>
<polygon fill="#63b8ff" stroke="#63b8ff" points="1915.9,-134.79 1926.45,-133.84 1917.61,-128.01 1915.9,-134.79"/>
</a>
</g>
</g>
<!-- Node3 -->
<g id="Node000003" class="node">
<title>Node3</title>
<g id="a_Node000003"><a xlink:href="../../df/da9/a00263.html#a4da25f98e58860d93b737cdc1997e9e9" target="_top" xlink:title="Initialize Form file specifications.">
<polygon fill="white" stroke="#666666" points="1599.5,-193.38 1513,-193.38 1513,-172.62 1599.5,-172.62 1599.5,-193.38"/>
<text xml:space="preserve" text-anchor="middle" x="1556.25" y="-179.88" font-family="Helvetica,sans-Serif" font-size="10.00">init_form_files</text>
</a>
</g>
</g>
<!-- Node2&#45;&gt;Node3 -->
<g id="edge2_Node000002_Node000003" class="edge">
<title>Node2&#45;&gt;Node3</title>
<g id="a_edge2_Node000002_Node000003"><a xlink:title=" ">
<path fill="none" stroke="#63b8ff" d="M1753.01,-183C1705.14,-183 1641.35,-183 1599.8,-183"/>
<polygon fill="#63b8ff" stroke="#63b8ff" points="1752.99,-186.5 1762.99,-183 1752.99,-179.5 1752.99,-186.5"/>
</a>
</g>
</g>
<!-- Node23 -->
<g id="Node000023" class="node">
<title>Node23</title>
<g id="a_Node000023"><a xlink:href="../../df/da9/a00263.html#ab40bb77758b149f33cbde8063f341b00" target="_top" xlink:title="Initialize Pick file specifications.">
<polygon fill="white" stroke="#666666" points="1598,-232.38 1514.5,-232.38 1514.5,-211.62 1598,-211.62 1598,-232.38"/>
<text xml:space="preserve" text-anchor="middle" x="1556.25" y="-218.88" font-family="Helvetica,sans-Serif" font-size="10.00">init_pick_files</text>
</a>
</g>
</g>
<!-- Node2&#45;&gt;Node23 -->
<g id="edge29_Node000002_Node000023" class="edge">
<title>Node2&#45;&gt;Node23</title>
<g id="a_edge29_Node000002_Node000023"><a xlink:title=" ">
<path fill="none" stroke="#63b8ff" d="M1753.42,-193.21C1745.12,-194.5 1736.74,-195.79 1728.75,-197 1684.13,-203.76 1632.92,-211.18 1598.16,-216.17"/>
<polygon fill="#63b8ff" stroke="#63b8ff" points="1753.8,-196.69 1763.14,-191.69 1752.72,-189.78 1753.8,-196.69"/>
</a>
</g>
</g>
<!-- Node2&#45;&gt;Node25 -->
<g id="edge32_Node000002_Node000025" class="edge">
<title>Node2&#45;&gt;Node25</title>
<g id="a_edge32_Node000002_Node000025"><a xlink:title=" ">
<path fill="none" stroke="#63b8ff" d="M1768.6,-169.11C1753.06,-164.72 1736.14,-159.95 1721.47,-155.81"/>
<polygon fill="#63b8ff" stroke="#63b8ff" points="1767.59,-172.46 1778.16,-171.8 1769.49,-165.72 1767.59,-172.46"/>
</a>
</g>
</g>
<!-- Node4 -->
<g id="Node000004" class="node">
<title>Node4</title>
<g id="a_Node000004"><a xlink:href="../../df/da9/a00263.html#a625c89a0ff0ede7fbac1b40c7ac9dbda" target="_top" xlink:title="Create and initialize Form structure.">
<polygon fill="white" stroke="#666666" points="1463.88,-193.38 1399.12,-193.38 1399.12,-172.62 1463.88,-172.62 1463.88,-193.38"/>
<text xml:space="preserve" text-anchor="middle" x="1431.5" y="-179.88" font-family="Helvetica,sans-Serif" font-size="10.00">new_form</text>
</a>
</g>
</g>
<!-- Node3&#45;&gt;Node4 -->
<g id="edge3_Node000003_Node000004" class="edge">
<title>Node3&#45;&gt;Node4</title>
<g id="a_edge3_Node000003_Node000004"><a xlink:title=" ">
<path fill="none" stroke="#63b8ff" d="M1501.22,-183C1488.56,-183 1475.48,-183 1464.17,-183"/>
<polygon fill="#63b8ff" stroke="#63b8ff" points="1501.15,-186.5 1511.15,-183 1501.15,-179.5 1501.15,-186.5"/>
</a>
</g>
</g>
<!-- Node5 -->
<g id="Node000005" class="node">
<title>Node5</title>
<g id="a_Node000005"><a xlink:href="../../d2/d04/a00281.html#abf1be20a8aad5f7ba09172ac1434a110" target="_top" xlink:title="Initialize form data structure and parse description file.">
<polygon fill="white" stroke="#666666" points="1349.25,-193.38 1289,-193.38 1289,-172.62 1349.25,-172.62 1349.25,-193.38"/>
<text xml:space="preserve" text-anchor="middle" x="1319.12" y="-179.88" font-family="Helvetica,sans-Serif" font-size="10.00">init_form</text>
</a>
</g>
</g>
<!-- Node4&#45;&gt;Node5 -->
<g id="edge4_Node000004_Node000005" class="edge">
<title>Node4&#45;&gt;Node5</title>
<g id="a_edge4_Node000004_Node000005"><a xlink:title=" ">
<path fill="none" stroke="#63b8ff" d="M1387.52,-183C1374.79,-183 1361.15,-183 1349.49,-183"/>
<polygon fill="#63b8ff" stroke="#63b8ff" points="1387.36,-186.5 1397.36,-183 1387.36,-179.5 1387.36,-186.5"/>
</a>
</g>
</g>
<!-- Node6 -->
<g id="Node000006" class="node">
<title>Node6</title>
<g id="a_Node000006"><a xlink:href="../../dd/d52/a00221.html#a2ffea5674e85f124a70e19f745a66583" target="_top" xlink:title="use form to enter a file specification">
<polygon fill="white" stroke="#666666" points="1252.25,-155.38 1162,-155.38 1162,-134.62 1252.25,-134.62 1252.25,-155.38"/>
<text xml:space="preserve" text-anchor="middle" x="1207.12" y="-141.88" font-family="Helvetica,sans-Serif" font-size="10.00">enter_file_spec</text>
</a>
</g>
</g>
<!-- Node5&#45;&gt;Node6 -->
<g id="edge5_Node000005_Node000006" class="edge">
<title>Node5&#45;&gt;Node6</title>
<g id="a_edge5_Node000005_Node000006"><a xlink:title=" ">
<path fill="none" stroke="#63b8ff" d="M1277.82,-169.08C1265.09,-164.68 1251.21,-159.89 1239.22,-155.74"/>
<polygon fill="#63b8ff" stroke="#63b8ff" points="1276.62,-172.37 1287.22,-172.32 1278.91,-165.75 1276.62,-172.37"/>
</a>
</g>
</g>
<!-- Node16 -->
<g id="Node000016" class="node">
<title>Node16</title>
<g id="a_Node000016"><a xlink:href="../../d9/d39/a00257.html#aa5d0e30e7036b72b51c843d0a7e486a1" target="_top" xlink:title="Processes user input for the menu system.">
<polygon fill="white" stroke="#666666" points="317.25,-86.38 194.75,-86.38 194.75,-65.62 317.25,-65.62 317.25,-86.38"/>
<text xml:space="preserve" text-anchor="middle" x="256" y="-72.88" font-family="Helvetica,sans-Serif" font-size="10.00">menu_cmd_processor</text>
</a>
</g>
</g>
<!-- Node5&#45;&gt;Node16 -->
<g id="edge28_Node000005_Node000016" class="edge">
<title>Node5&#45;&gt;Node16</title>
<g id="a_edge28_Node000005_Node000016"><a xlink:title=" ">
<path fill="none" stroke="#63b8ff" d="M1277.34,-187.61C1245.81,-191.26 1201.1,-196.62 1162,-202 973.46,-227.94 929.07,-267 738.75,-267 738.75,-267 738.75,-267 494.75,-267 378.8,-267 287.24,-127.22 263.2,-86.82"/>
<polygon fill="#63b8ff" stroke="#63b8ff" points="1277.7,-191.09 1287.24,-186.47 1276.9,-184.14 1277.7,-191.09"/>
</a>
</g>
</g>
<!-- Node22 -->
<g id="Node000022" class="node">
<title>Node22</title>
<g id="a_Node000022"><a xlink:href="../../db/dc3/a00284.html#a3c04138a5bfe5d72780bb7e82a18e627" target="_top" xlink:title=" ">
<polygon fill="white" stroke="#666666" points="1227.5,-231.38 1186.75,-231.38 1186.75,-210.62 1227.5,-210.62 1227.5,-231.38"/>
<text xml:space="preserve" text-anchor="middle" x="1207.12" y="-217.88" font-family="Helvetica,sans-Serif" font-size="10.00">main</text>
</a>
</g>
</g>
<!-- Node5&#45;&gt;Node22 -->
<g id="edge27_Node000005_Node000022" class="edge">
<title>Node5&#45;&gt;Node22</title>
<g id="a_edge27_Node000005_Node000022"><a xlink:title=" ">
<path fill="none" stroke="#63b8ff" d="M1277.84,-196.92C1260.85,-202.79 1241.83,-209.36 1227.95,-214.15"/>
<polygon fill="#63b8ff" stroke="#63b8ff" points="1278.91,-200.25 1287.22,-193.68 1276.62,-193.63 1278.91,-200.25"/>
</a>
</g>
</g>
<!-- Node7 -->
<g id="Node000007" class="node">
<title>Node7</title>
<g id="a_Node000007"><a xlink:href="../../dd/d52/a00221.html#a9c4b3ba5f73c18b486646c62b933972a" target="_top" xlink:title="Main Command Processing Loop for View.">
<polygon fill="white" stroke="#666666" points="1126,-155.38 1008,-155.38 1008,-134.62 1126,-134.62 1126,-155.38"/>
<text xml:space="preserve" text-anchor="middle" x="1067" y="-141.88" font-family="Helvetica,sans-Serif" font-size="10.00">view_cmd_processor</text>
</a>
</g>
</g>
<!-- Node6&#45;&gt;Node7 -->
<g id="edge6_Node000006_Node000007" class="edge">
<title>Node6&#45;&gt;Node7</title>
<g id="a_edge6_Node000006_Node000007"><a xlink:title=" ">
<path fill="none" stroke="#63b8ff" d="M1150.37,-145C1142.51,-145 1134.41,-145 1126.5,-145"/>
<polygon fill="#63b8ff" stroke="#63b8ff" points="1150.15,-148.5 1160.15,-145 1150.15,-141.5 1150.15,-148.5"/>
</a>
</g>
</g>
<!-- Node8 -->
<g id="Node000008" class="node">
<title>Node8</title>
<g id="a_Node000008"><a xlink:href="../../dd/d52/a00221.html#a0bd4dc056ab5010547129bb87819789b" target="_top" xlink:title="Start view.">
<polygon fill="white" stroke="#666666" points="972,-132.38 911.75,-132.38 911.75,-111.62 972,-111.62 972,-132.38"/>
<text xml:space="preserve" text-anchor="middle" x="941.88" y="-118.88" font-family="Helvetica,sans-Serif" font-size="10.00">view_file</text>
</a>
</g>
</g>
<!-- Node7&#45;&gt;Node8 -->
<g id="edge7_Node000007_Node000008" class="edge">
<title>Node7&#45;&gt;Node8</title>
<g id="a_edge7_Node000007_Node000008"><a xlink:title=" ">
<path fill="none" stroke="#63b8ff" d="M996.76,-132.07C988.22,-130.47 979.88,-128.91 972.41,-127.52"/>
<polygon fill="#63b8ff" stroke="#63b8ff" points="996.08,-135.5 1006.56,-133.9 997.37,-128.62 996.08,-135.5"/>
</a>
</g>
</g>
<!-- Node9 -->
<g id="Node000009" class="node">
<title>Node9</title>
<g id="a_Node000009"><a xlink:href="../../d5/ddf/a00224.html#a3c04138a5bfe5d72780bb7e82a18e627" target="_top" xlink:title=" ">
<polygon fill="white" stroke="#666666" points="758.12,-48.38 717.38,-48.38 717.38,-27.62 758.12,-27.62 758.12,-48.38"/>
<text xml:space="preserve" text-anchor="middle" x="737.75" y="-34.88" font-family="Helvetica,sans-Serif" font-size="10.00">main</text>
</a>
</g>
</g>
<!-- Node8&#45;&gt;Node9 -->
<g id="edge8_Node000008_Node000009" class="edge">
<title>Node8&#45;&gt;Node9</title>
<g id="a_edge8_Node000008_Node000009"><a xlink:title=" ">
<path fill="none" stroke="#63b8ff" d="M904.35,-106.82C861.6,-89.06 792.39,-60.29 758.59,-46.25"/>
<polygon fill="#63b8ff" stroke="#63b8ff" points="902.89,-110 913.47,-110.61 905.58,-103.54 902.89,-110"/>
</a>
</g>
</g>
<!-- Node10 -->
<g id="Node000010" class="node">
<title>Node10</title>
<g id="a_Node000010"><a xlink:href="../../d7/d03/a00254.html#a75a4e7afc9c9aafd3d35ab706f5fdc71" target="_top" xlink:title="subprogram entry point for C&#45;Menu View">
<polygon fill="white" stroke="#666666" points="875.75,-132.38 826.75,-132.38 826.75,-111.62 875.75,-111.62 875.75,-132.38"/>
<text xml:space="preserve" text-anchor="middle" x="851.25" y="-118.88" font-family="Helvetica,sans-Serif" font-size="10.00">mview</text>
</a>
</g>
</g>
<!-- Node8&#45;&gt;Node10 -->
<g id="edge9_Node000008_Node000010" class="edge">
<title>Node8&#45;&gt;Node10</title>
<g id="a_edge9_Node000008_Node000010"><a xlink:title=" ">
<path fill="none" stroke="#63b8ff" d="M899.99,-122C891.79,-122 883.42,-122 876.04,-122"/>
<polygon fill="#63b8ff" stroke="#63b8ff" points="899.85,-125.5 909.85,-122 899.85,-118.5 899.85,-125.5"/>
</a>
</g>
</g>
<!-- Node10&#45;&gt;Node9 -->
<g id="edge23_Node000010_Node000009" class="edge">
<title>Node10&#45;&gt;Node9</title>
<g id="a_edge23_Node000010_Node000009"><a xlink:title=" ">
<path fill="none" stroke="#63b8ff" d="M834.65,-103.02C823.42,-90.24 807.38,-73.65 790.75,-62 780.81,-55.04 768.54,-49.26 758.41,-45.12"/>
<polygon fill="#63b8ff" stroke="#63b8ff" points="831.77,-105.05 840.93,-110.38 837.1,-100.51 831.77,-105.05"/>
</a>
</g>
</g>
<!-- Node11 -->
<g id="Node000011" class="node">
<title>Node11</title>
<g id="a_Node000011"><a xlink:href="../../d0/d27/a00239.html#aeebc4c0b94ca97d753e10a0cd1798730" target="_top" xlink:title="Displays the help screen for the pick interface using mview.">
<polygon fill="white" stroke="#666666" points="789.25,-124.38 686.25,-124.38 686.25,-103.62 789.25,-103.62 789.25,-124.38"/>
<text xml:space="preserve" text-anchor="middle" x="737.75" y="-110.88" font-family="Helvetica,sans-Serif" font-size="10.00">display_pick_help</text>
</a>
</g>
</g>
<!-- Node10&#45;&gt;Node11 -->
<g id="edge10_Node000010_Node000011" class="edge">
<title>Node10&#45;&gt;Node11</title>
<g id="a_edge10_Node000010_Node000011"><a xlink:title=" ">
<path fill="none" stroke="#63b8ff" d="M815.08,-119.48C807,-118.9 798.26,-118.27 789.67,-117.65"/>
<polygon fill="#63b8ff" stroke="#63b8ff" points="814.6,-122.95 824.82,-120.18 815.1,-115.97 814.6,-122.95"/>
</a>
</g>
</g>
<!-- Node10&#45;&gt;Node16 -->
<g id="edge24_Node000010_Node000016" class="edge">
<title>Node10&#45;&gt;Node16</title>
<g id="a_edge24_Node000010_Node000016"><a xlink:title=" ">
<path fill="none" stroke="#63b8ff" d="M820.46,-106.22C811.17,-101.93 800.74,-97.72 790.75,-95 712.75,-73.8 690.71,-76 609.88,-76 609.88,-76 609.88,-76 494.75,-76 434.49,-76 365.63,-76 317.59,-76"/>
<polygon fill="#63b8ff" stroke="#63b8ff" points="818.86,-109.33 829.38,-110.56 821.92,-103.04 818.86,-109.33"/>
</a>
</g>
</g>
<!-- Node19 -->
<g id="Node000019" class="node">
<title>Node19</title>
<g id="a_Node000019"><a xlink:href="../../d0/d27/a00239.html#af7fcbb1c8b67a4d11c86ba7209f397c2" target="_top" xlink:title="Executes specified command with selected objects as arguments.">
<polygon fill="white" stroke="#666666" points="648.75,-163.38 569,-163.38 569,-142.62 648.75,-142.62 648.75,-163.38"/>
<text xml:space="preserve" text-anchor="middle" x="608.88" y="-149.88" font-family="Helvetica,sans-Serif" font-size="10.00">exec_objects</text>
</a>
</g>
</g>
<!-- Node10&#45;&gt;Node19 -->
<g id="edge19_Node000010_Node000019" class="edge">
<title>Node10&#45;&gt;Node19</title>
<g id="a_edge19_Node000010_Node000019"><a xlink:title=" ">
<path fill="none" stroke="#63b8ff" d="M815.06,-128.94C807.08,-130.39 798.64,-131.84 790.75,-133 742.15,-140.17 685.85,-146.01 649.14,-149.49"/>
<polygon fill="#63b8ff" stroke="#63b8ff" points="815.61,-132.4 824.8,-127.12 814.33,-125.52 815.61,-132.4"/>
</a>
</g>
</g>
<!-- Node20 -->
<g id="Node000020" class="node">
<title>Node20</title>
<g id="a_Node000020"><a xlink:href="../../d2/d04/a00281.html#ada302551bf41bf8ed6132fd34328a47e" target="_top" xlink:title="Form main processing loop.">
<polygon fill="white" stroke="#666666" points="776.5,-239.38 699,-239.38 699,-218.62 776.5,-218.62 776.5,-239.38"/>
<text xml:space="preserve" text-anchor="middle" x="737.75" y="-225.88" font-family="Helvetica,sans-Serif" font-size="10.00">form_engine</text>
</a>
</g>
</g>
<!-- Node10&#45;&gt;Node20 -->
<g id="edge21_Node000010_Node000020" class="edge">
<title>Node10&#45;&gt;Node20</title>
<g id="a_edge21_Node000010_Node000020"><a xlink:title=" ">
<path fill="none" stroke="#63b8ff" d="M840.58,-142.92C830.59,-162.44 813.31,-191.16 790.75,-209 786.12,-212.66 780.75,-215.71 775.24,-218.24"/>
<polygon fill="#63b8ff" stroke="#63b8ff" points="843.69,-144.52 844.93,-134 837.4,-141.45 843.69,-144.52"/>
</a>
</g>
</g>
<!-- Node21 -->
<g id="Node000021" class="node">
<title>Node21</title>
<g id="a_Node000021"><a xlink:href="../../dd/d52/a00221.html#ad997ba9f8591568c77291fb1b44601b2" target="_top" xlink:title="Display View Help File.">
<polygon fill="white" stroke="#666666" points="790.75,-200.38 684.75,-200.38 684.75,-179.62 790.75,-179.62 790.75,-200.38"/>
<text xml:space="preserve" text-anchor="middle" x="737.75" y="-186.88" font-family="Helvetica,sans-Serif" font-size="10.00">view_display_help</text>
</a>
</g>
</g>
<!-- Node10&#45;&gt;Node21 -->
<g id="edge25_Node000010_Node000021" class="edge">
<title>Node10&#45;&gt;Node21</title>
<g id="a_edge25_Node000010_Node000021"><a xlink:title=" ">
<path fill="none" stroke="#63b8ff" d="M828.7,-139.6C817.71,-148.14 803.92,-158.2 790.75,-166 782.62,-170.81 773.37,-175.36 764.94,-179.17"/>
<polygon fill="#63b8ff" stroke="#63b8ff" points="830.7,-142.48 836.36,-133.53 826.35,-137 830.7,-142.48"/>
</a>
</g>
</g>
<!-- Node12 -->
<g id="Node000012" class="node">
<title>Node12</title>
<g id="a_Node000012"><a xlink:href="../../d0/d27/a00239.html#abb0969a6d1c7e78be46c3b325754c802" target="_top" xlink:title="Main loop to handle user input and interactions for pick interface.">
<polygon fill="white" stroke="#666666" points="631.5,-124.38 586.25,-124.38 586.25,-103.62 631.5,-103.62 631.5,-124.38"/>
<text xml:space="preserve" text-anchor="middle" x="608.88" y="-110.88" font-family="Helvetica,sans-Serif" font-size="10.00">picker</text>
</a>
</g>
</g>
<!-- Node11&#45;&gt;Node12 -->
<g id="edge11_Node000011_Node000012" class="edge">
<title>Node11&#45;&gt;Node12</title>
<g id="a_edge11_Node000011_Node000012"><a xlink:title=" ">
<path fill="none" stroke="#63b8ff" d="M674.77,-114C659.41,-114 643.94,-114 631.96,-114"/>
<polygon fill="#63b8ff" stroke="#63b8ff" points="674.36,-117.5 684.36,-114 674.36,-110.5 674.36,-117.5"/>
</a>
</g>
</g>
<!-- Node13 -->
<g id="Node000013" class="node">
<title>Node13</title>
<g id="a_Node000013"><a xlink:href="../../d0/d27/a00239.html#ab97dcab41017c5132f52b682437a151e" target="_top" xlink:title="Initializes pick interface, calculates window size and position, and enters picker loop.">
<polygon fill="white" stroke="#666666" points="533,-163.38 458.5,-163.38 458.5,-142.62 533,-142.62 533,-163.38"/>
<text xml:space="preserve" text-anchor="middle" x="495.75" y="-149.88" font-family="Helvetica,sans-Serif" font-size="10.00">pick_engine</text>
</a>
</g>
</g>
<!-- Node12&#45;&gt;Node13 -->
<g id="edge12_Node000012_Node000013" class="edge">
<title>Node12&#45;&gt;Node13</title>
<g id="a_edge12_Node000012_Node000013"><a xlink:title=" ">
<path fill="none" stroke="#63b8ff" d="M575.48,-125.37C560.34,-130.68 542.41,-136.97 527.49,-142.21"/>
<polygon fill="#63b8ff" stroke="#63b8ff" points="576.22,-128.82 584.49,-122.21 573.9,-122.22 576.22,-128.82"/>
</a>
</g>
</g>
<!-- Node14 -->
<g id="Node000014" class="node">
<title>Node14</title>
<g id="a_Node000014"><a xlink:href="../../d0/d27/a00239.html#a1b2ee87543245e612c1710ea58930a17" target="_top" xlink:title="Initializes pick structure and opens pick input file or pipe.">
<polygon fill="white" stroke="#666666" points="416.5,-315.38 359.25,-315.38 359.25,-294.62 416.5,-294.62 416.5,-315.38"/>
<text xml:space="preserve" text-anchor="middle" x="387.88" y="-301.88" font-family="Helvetica,sans-Serif" font-size="10.00">init_pick</text>
</a>
</g>
</g>
<!-- Node13&#45;&gt;Node14 -->
<g id="edge13_Node000013_Node000014" class="edge">
<title>Node13&#45;&gt;Node14</title>
<g id="a_edge13_Node000013_Node000014"><a xlink:title=" ">
<path fill="none" stroke="#63b8ff" d="M480.92,-172.86C458.19,-205.49 413.71,-269.35 396.2,-294.48"/>
<polygon fill="#63b8ff" stroke="#63b8ff" points="483.76,-174.9 486.61,-164.69 478.02,-170.89 483.76,-174.9"/>
</a>
</g>
</g>
<!-- Node15 -->
<g id="Node000015" class="node">
<title>Node15</title>
<g id="a_Node000015"><a xlink:href="../../d2/dc8/a00242.html#a3c04138a5bfe5d72780bb7e82a18e627" target="_top" xlink:title=" ">
<polygon fill="white" stroke="#666666" points="276.38,-315.38 235.62,-315.38 235.62,-294.62 276.38,-294.62 276.38,-315.38"/>
<text xml:space="preserve" text-anchor="middle" x="256" y="-301.88" font-family="Helvetica,sans-Serif" font-size="10.00">main</text>
</a>
</g>
</g>
<!-- Node14&#45;&gt;Node15 -->
<g id="edge14_Node000014_Node000015" class="edge">
<title>Node14&#45;&gt;Node15</title>
<g id="a_edge14_Node000014_Node000015"><a xlink:title=" ">
<path fill="none" stroke="#63b8ff" d="M347.68,-305C324.28,-305 295.55,-305 276.78,-305"/>
<polygon fill="#63b8ff" stroke="#63b8ff" points="347.5,-308.5 357.5,-305 347.5,-301.5 347.5,-308.5"/>
</a>
</g>
</g>
<!-- Node14&#45;&gt;Node16 -->
<g id="edge15_Node000014_Node000016" class="edge">
<title>Node14&#45;&gt;Node16</title>
<g id="a_edge15_Node000014_Node000016"><a xlink:title=" ">
<path fill="none" stroke="#63b8ff" d="M359.42,-287.32C357.2,-285.33 355.1,-283.22 353.25,-281 300.13,-217.28 269.19,-119.33 259.95,-86.87"/>
<polygon fill="#63b8ff" stroke="#63b8ff" points="357.13,-289.97 367.17,-293.38 361.45,-284.46 357.13,-289.97"/>
</a>
</g>
</g>
<!-- Node17 -->
<g id="Node000017" class="node">
<title>Node17</title>
<g id="a_Node000017"><a xlink:href="../../d9/d39/a00257.html#a7d7973d7aac92759dcc86ec52bb038f4" target="_top" xlink:title="The main loop of the menu system.">
<polygon fill="white" stroke="#666666" points="158.75,-86.38 76.75,-86.38 76.75,-65.62 158.75,-65.62 158.75,-86.38"/>
<text xml:space="preserve" text-anchor="middle" x="117.75" y="-72.88" font-family="Helvetica,sans-Serif" font-size="10.00">menu_engine</text>
</a>
</g>
</g>
<!-- Node16&#45;&gt;Node17 -->
<g id="edge16_Node000016_Node000017" class="edge">
<title>Node16&#45;&gt;Node17</title>
<g id="a_edge16_Node000016_Node000017"><a xlink:title=" ">
<path fill="none" stroke="#63b8ff" d="M183.2,-69.26C174.96,-69.3 166.79,-69.47 159.17,-69.77"/>
<polygon fill="#63b8ff" stroke="#63b8ff" points="182.92,-72.76 192.93,-69.28 182.94,-65.76 182.92,-72.76"/>
</a>
</g>
</g>
<!-- Node17&#45;&gt;Node16 -->
<g id="edge18_Node000017_Node000016" class="edge">
<title>Node17&#45;&gt;Node16</title>
<g id="a_edge18_Node000017_Node000016"><a xlink:title=" ">
<path fill="none" stroke="#63b8ff" d="M170.68,-82.58C178.45,-82.75 186.52,-82.79 194.45,-82.71"/>
<polygon fill="#63b8ff" stroke="#63b8ff" points="170.79,-79.08 160.69,-82.27 170.58,-86.08 170.79,-79.08"/>
</a>
</g>
</g>
<!-- Node18 -->
<g id="Node000018" class="node">
<title>Node18</title>
<g id="a_Node000018"><a xlink:href="../../dd/dd7/a00260.html#a3c04138a5bfe5d72780bb7e82a18e627" target="_top" xlink:title=" ">
<polygon fill="white" stroke="#666666" points="40.75,-67.38 0,-67.38 0,-46.62 40.75,-46.62 40.75,-67.38"/>
<text xml:space="preserve" text-anchor="middle" x="20.38" y="-53.88" font-family="Helvetica,sans-Serif" font-size="10.00">main</text>
</a>
</g>
</g>
<!-- Node17&#45;&gt;Node18 -->
<g id="edge17_Node000017_Node000018" class="edge">
<title>Node17&#45;&gt;Node18</title>
<g id="a_edge17_Node000017_Node000018"><a xlink:title=" ">
<path fill="none" stroke="#63b8ff" d="M65.08,-65.71C56.54,-64.01 48.18,-62.34 41.09,-60.93"/>
<polygon fill="#63b8ff" stroke="#63b8ff" points="64.33,-69.13 74.82,-67.65 65.69,-62.26 64.33,-69.13"/>
</a>
</g>
</g>
<!-- Node19&#45;&gt;Node13 -->
<g id="edge20_Node000019_Node000013" class="edge">
<title>Node19&#45;&gt;Node13</title>
<g id="a_edge20_Node000019_Node000013"><a xlink:title=" ">
<path fill="none" stroke="#63b8ff" d="M557.4,-153C549.3,-153 541.04,-153 533.34,-153"/>
<polygon fill="#63b8ff" stroke="#63b8ff" points="557.18,-156.5 567.18,-153 557.18,-149.5 557.18,-156.5"/>
</a>
</g>
</g>
<!-- Node20&#45;&gt;Node5 -->
<g id="edge22_Node000020_Node000005" class="edge">
<title>Node20&#45;&gt;Node5</title>
<g id="a_edge22_Node000020_Node000005"><a xlink:title=" ">
<path fill="none" stroke="#63b8ff" d="M787.86,-241.68C881.64,-263.43 1091.22,-300 1252.25,-240 1277.19,-230.71 1298.98,-207.25 1310.15,-193.5"/>
<polygon fill="#63b8ff" stroke="#63b8ff" points="788.75,-238.3 778.21,-239.4 787.14,-245.11 788.75,-238.3"/>
</a>
</g>
</g>
<!-- Node21&#45;&gt;Node7 -->
<g id="edge26_Node000021_Node000007" class="edge">
<title>Node21&#45;&gt;Node7</title>
<g id="a_edge26_Node000021_Node000007"><a xlink:title=" ">
<path fill="none" stroke="#63b8ff" d="M802.35,-181.25C861.91,-173.06 950.15,-160.93 1007.87,-152.99"/>
<polygon fill="#63b8ff" stroke="#63b8ff" points="802.14,-177.75 792.71,-182.58 803.09,-184.69 802.14,-177.75"/>
</a>
</g>
</g>
<!-- Node24 -->
<g id="Node000024" class="node">
<title>Node24</title>
<g id="a_Node000024"><a xlink:href="../../df/da9/a00263.html#aa7928f3771536aa0e27d88479be2cbc8" target="_top" xlink:title="Create and initialize Pick structure.">
<polygon fill="white" stroke="#666666" points="1350,-279.38 1288.25,-279.38 1288.25,-258.62 1350,-258.62 1350,-279.38"/>
<text xml:space="preserve" text-anchor="middle" x="1319.12" y="-265.88" font-family="Helvetica,sans-Serif" font-size="10.00">new_pick</text>
</a>
</g>
</g>
<!-- Node23&#45;&gt;Node24 -->
<g id="edge30_Node000023_Node000024" class="edge">
<title>Node23&#45;&gt;Node24</title>
<g id="a_edge30_Node000023_Node000024"><a xlink:title=" ">
<path fill="none" stroke="#63b8ff" d="M1502.87,-232.47C1456.02,-241.84 1388.96,-255.24 1350.45,-262.94"/>
<polygon fill="#63b8ff" stroke="#63b8ff" points="1503.42,-235.93 1512.54,-230.54 1502.05,-229.07 1503.42,-235.93"/>
</a>
</g>
</g>
<!-- Node24&#45;&gt;Node14 -->
<g id="edge31_Node000024_Node000014" class="edge">
<title>Node24&#45;&gt;Node14</title>
<g id="a_edge31_Node000024_Node000014"><a xlink:title=" ">
<path fill="none" stroke="#63b8ff" d="M1276.75,-278.66C1227.36,-289.32 1142.12,-305 1068,-305 1068,-305 1068,-305 607.88,-305 539.25,-305 458.52,-305 416.88,-305"/>
<polygon fill="#63b8ff" stroke="#63b8ff" points="1277.42,-282.09 1286.43,-276.52 1275.91,-275.26 1277.42,-282.09"/>
</a>
</g>
</g>
<!-- Node25&#45;&gt;Node3 -->
<g id="edge34_Node000025_Node000003" class="edge">
<title>Node25&#45;&gt;Node3</title>
<g id="a_edge34_Node000025_Node000003"><a xlink:title=" ">
<path fill="none" stroke="#63b8ff" d="M1635,-159.15C1620.94,-163.46 1605.72,-168.13 1592.5,-172.19"/>
<polygon fill="#63b8ff" stroke="#63b8ff" points="1635.98,-162.51 1644.51,-156.23 1633.92,-155.82 1635.98,-162.51"/>
</a>
</g>
</g>
<!-- Node25&#45;&gt;Node6 -->
<g id="edge33_Node000025_Node000006" class="edge">
<title>Node25&#45;&gt;Node6</title>
<g id="a_edge33_Node000025_Node000006"><a xlink:title=" ">
<path fill="none" stroke="#63b8ff" d="M1623.9,-145C1528.45,-145 1338.72,-145 1252.55,-145"/>
<polygon fill="#63b8ff" stroke="#63b8ff" points="1623.83,-148.5 1633.83,-145 1623.83,-141.5 1623.83,-148.5"/>
</a>
</g>
</g>
<!-- Node25&#45;&gt;Node23 -->
<g id="edge39_Node000025_Node000023" class="edge">
<title>Node25&#45;&gt;Node23</title>
<g id="a_edge39_Node000025_Node000023"><a xlink:title=" ">
<path fill="none" stroke="#63b8ff" d="M1658.05,-162.67C1642.07,-174.52 1620.05,-190.07 1599.5,-202 1593.88,-205.26 1587.65,-208.43 1581.74,-211.26"/>
<polygon fill="#63b8ff" stroke="#63b8ff" points="1660.05,-165.55 1665.94,-156.75 1655.84,-159.95 1660.05,-165.55"/>
</a>
</g>
</g>
<!-- Node26 -->
<g id="Node000026" class="node">
<title>Node26</title>
<g id="a_Node000026"><a xlink:href="../../df/da9/a00263.html#a6a3ca11276b38608f15cef7c3962143e" target="_top" xlink:title="Initialize Menu file specifications.">
<polygon fill="white" stroke="#666666" points="1477,-69.38 1386,-69.38 1386,-48.62 1477,-48.62 1477,-69.38"/>
<text xml:space="preserve" text-anchor="middle" x="1431.5" y="-55.88" font-family="Helvetica,sans-Serif" font-size="10.00">init_menu_files</text>
</a>
</g>
</g>
<!-- Node25&#45;&gt;Node26 -->
<g id="edge35_Node000025_Node000026" class="edge">
<title>Node25&#45;&gt;Node26</title>
<g id="a_edge35_Node000025_Node000026"><a xlink:title=" ">
<path fill="none" stroke="#63b8ff" d="M1639.21,-130.5C1589.63,-113.35 1508.22,-85.19 1463.8,-69.83"/>
<polygon fill="#63b8ff" stroke="#63b8ff" points="1637.86,-133.74 1648.46,-133.7 1640.15,-127.12 1637.86,-133.74"/>
</a>
</g>
</g>
<!-- Node27 -->
<g id="Node000027" class="node">
<title>Node27</title>
<g id="a_Node000027"><a xlink:href="../../df/da9/a00263.html#a861e6162a19e089468fdc2a1479b547f" target="_top" xlink:title="Create and initialize Menu structure.">
<polygon fill="white" stroke="#666666" points="422.5,-48.38 353.25,-48.38 353.25,-27.62 422.5,-27.62 422.5,-48.38"/>
<text xml:space="preserve" text-anchor="middle" x="387.88" y="-34.88" font-family="Helvetica,sans-Serif" font-size="10.00">new_menu</text>
</a>
</g>
</g>
<!-- Node26&#45;&gt;Node27 -->
<g id="edge36_Node000026_Node000027" class="edge">
<title>Node26&#45;&gt;Node27</title>
<g id="a_edge36_Node000026_Node000027"><a xlink:title=" ">
<path fill="none" stroke="#63b8ff" d="M1395.9,-43.84C1352.8,-26.36 1276.47,0 1208.12,0 1208.12,0 1208.12,0 607.88,0 541.5,0 465.46,-17.15 422.7,-28.41"/>
<polygon fill="#63b8ff" stroke="#63b8ff" points="1394.4,-47 1404.98,-47.6 1397.08,-40.54 1394.4,-47"/>
</a>
</g>
</g>
<!-- Node27&#45;&gt;Node16 -->
<g id="edge38_Node000027_Node000016" class="edge">
<title>Node27&#45;&gt;Node16</title>
<g id="a_edge38_Node000027_Node000016"><a xlink:title=" ">
<path fill="none" stroke="#63b8ff" d="M341.77,-51.2C326.2,-55.75 308.94,-60.8 294.09,-65.15"/>
<polygon fill="#63b8ff" stroke="#63b8ff" points="342.68,-54.58 351.3,-48.41 340.72,-47.86 342.68,-54.58"/>
</a>
</g>
</g>
<!-- Node27&#45;&gt;Node18 -->
<g id="edge37_Node000027_Node000018" class="edge">
<title>Node27&#45;&gt;Node18</title>
<g id="a_edge37_Node000027_Node000018"><a xlink:title=" ">
<path fill="none" stroke="#63b8ff" d="M341.62,-40.35C261.49,-44.52 97.74,-53.03 41.14,-55.97"/>
<polygon fill="#63b8ff" stroke="#63b8ff" points="341.5,-43.86 351.31,-39.85 341.14,-36.87 341.5,-43.86"/>
</a>
</g>
</g>
<!-- Node28&#45;&gt;Node25 -->
<g id="edge41_Node000028_Node000025" class="edge">
<title>Node28&#45;&gt;Node25</title>
<g id="a_edge41_Node000028_Node000025"><a xlink:title=" ">
<path fill="none" stroke="#63b8ff" d="M1775.07,-119.07C1757.89,-123.91 1738.25,-129.45 1721.55,-134.16"/>
<polygon fill="#63b8ff" stroke="#63b8ff" points="1775.81,-122.5 1784.48,-116.42 1773.91,-115.76 1775.81,-122.5"/>
</a>
</g>
</g>
</g>
</svg>

<g id="navigator" transform="translate(0 0)" fill="#404254">
  <rect fill="#f2f5e9" fill-opacity="0.5" stroke="#606060" stroke-width=".5" x="0" y="0" width="60" height="60"/>
  <use id="zoomplus" xlink:href="#zoomPlus" x="17" y="9" onmousedown="handleZoom(evt,'in')"/>
  <use id="zoomminus" xlink:href="#zoomMin" x="42" y="9" onmousedown="handleZoom(evt,'out')"/>
  <use id="reset" xlink:href="#resetDef" x="30" y="36" onmousedown="handleReset()"/>
   <use id="arrowup" xlink:href="#arrowUp" x="0" y="0" onmousedown="handlePan(0,-1)"/>
  <use id="arrowright" xlink:href="#arrowRight" x="0" y="0" onmousedown="handlePan(1,0)"/>
  <use id="arrowdown" xlink:href="#arrowDown" x="0" y="0" onmousedown="handlePan(0,1)"/>
  <use id="arrowleft" xlink:href="#arrowLeft" x="0" y="0" onmousedown="handlePan(-1,0)"/>
</g>
<svg viewBox="0 0 15 15" width="100%" height="30px" preserveAspectRatio="xMaxYMin meet">
 <g id="arrow_out" transform="scale(0.3 0.3)">
  <a xlink:href="a00326_aa4bf97f7dc64cf16179b9489b2e72031_icgraph_org.svg" target="_base">
   <rect id="button" ry="5" rx="5" y="6" x="6" height="38" width="38"
        fill="#f2f5e9" fill-opacity="0.5" stroke="#606060" stroke-width="1.0"/>
   <path id="arrow"
     d="M 11.500037,31.436501 C 11.940474,20.09759 22.043105,11.32322 32.158766,21.979434 L 37.068811,17.246167 C 37.068811,17.246167 37.088388,32 37.088388,32 L 22.160133,31.978069 C 22.160133,31.978069 26.997745,27.140456 26.997745,27.140456 C 18.528582,18.264221 13.291696,25.230495 11.500037,31.436501 z"
     style="fill:#404040;"/>
  </a>
 </g>
</svg>

<style type='text/css'>
<![CDATA[
[data-mouse-over-selected='false'] { opacity: 0.7; }
[data-mouse-over-selected='true']  { opacity: 1.0; }
]]>
</style>
<script type="application/ecmascript"><![CDATA[
document.addEventListener('DOMContentLoaded', (event) => {
  highlightEdges();
  highlightAdjacentNodes();
});
]]></script>
</svg>
