<?xml version="1.0" encoding="UTF-8" standalone="no"?>
<!DOCTYPE svg PUBLIC "-//W3C//DTD SVG 1.1//EN"
 "http://www.w3.org/Graphics/SVG/1.1/DTD/svg11.dtd">
<!-- Generated by graphviz version 14.1.2 (0)
 -->
<!-- Title: display_error Pages: 1 -->
<svg width="616pt" height="415pt"
 viewBox="0.00 0.00 616.00 415.00" xmlns="http://www.w3.org/2000/svg" xmlns:xlink="http://www.w3.org/1999/xlink">
<g id="graph0" class="graph" transform="scale(1 1) rotate(0) translate(4 411.05)">
<title>display_error</title>
<!-- Node1 -->
<g id="Node000001" class="node">
<title>Node1</title>
<g id="a_Node000001"><a xlink:title="Display an error message window or print to stderr.">
<polygon fill="#999999" stroke="#666666" points="79.75,-197.05 0,-197.05 0,-176.3 79.75,-176.3 79.75,-197.05"/>
<text xml:space="preserve" text-anchor="middle" x="39.88" y="-183.55" font-family="Helvetica,sans-Serif" font-size="10.00">display_error</text>
</a>
</g>
</g>
<!-- Node2 -->
<g id="Node000002" class="node">
<title>Node2</title>
<g id="a_Node000002"><a xlink:href="../../df/d95/a00299.html#a8f6c45ca4a7f6a41c4c88314e697565a" target="_top" xlink:title="Abnormal program termination.">
<polygon fill="white" stroke="#666666" points="314.25,-293.05 268.25,-293.05 268.25,-272.3 314.25,-272.3 314.25,-293.05"/>
<text xml:space="preserve" text-anchor="middle" x="291.25" y="-279.55" font-family="Helvetica,sans-Serif" font-size="10.00">abend</text>
</a>
</g>
</g>
<!-- Node1&#45;&gt;Node2 -->
<g id="edge1_Node000001_Node000002" class="edge">
<title>Node1&#45;&gt;Node2</title>
<g id="a_edge1_Node000001_Node000002"><a xlink:title=" ">
<path fill="none" stroke="#63b8ff" d="M42.28,-197.36C46.75,-226.46 63.56,-307.12 115.75,-339.68 150.91,-361.62 169.48,-352.16 209,-339.68 233.04,-332.09 256.13,-314.56 271.52,-300.93"/>
<polygon fill="#63b8ff" stroke="#63b8ff" points="273.53,-303.83 278.52,-294.48 268.79,-298.68 273.53,-303.83"/>
</a>
</g>
</g>
<!-- Node6 -->
<g id="Node000006" class="node">
<title>Node6</title>
<g id="a_Node000006"><a xlink:href="../../df/d95/a00299.html#a645871e46277e31736bc36d0f3dce4bd" target="_top" xlink:title="construct the chyron string from the chyron structure">
<polygon fill="white" stroke="#666666" points="209,-407.05 115.75,-407.05 115.75,-386.3 209,-386.3 209,-407.05"/>
<text xml:space="preserve" text-anchor="middle" x="162.38" y="-393.55" font-family="Helvetica,sans-Serif" font-size="10.00">compile_chyron</text>
</a>
</g>
</g>
<!-- Node1&#45;&gt;Node6 -->
<g id="edge7_Node000001_Node000006" class="edge">
<title>Node1&#45;&gt;Node6</title>
<g id="a_edge7_Node000001_Node000006"><a xlink:title=" ">
<path fill="none" stroke="#63b8ff" d="M42.51,-197.28C47.76,-228.02 66.75,-318.43 115.75,-372.68 118.21,-375.4 121.05,-377.87 124.09,-380.09"/>
<polygon fill="#63b8ff" stroke="#63b8ff" points="121.99,-382.91 132.33,-385.23 125.7,-376.97 121.99,-382.91"/>
</a>
</g>
</g>
<!-- Node8 -->
<g id="Node000008" class="node">
<title>Node8</title>
<g id="a_Node000008"><a xlink:href="../../df/d95/a00299.html#a3f3feb40fd703913c5c136331f627c91" target="_top" xlink:title="Destroy Chyron structure.">
<polygon fill="white" stroke="#666666" points="207.88,-331.05 116.88,-331.05 116.88,-310.3 207.88,-310.3 207.88,-331.05"/>
<text xml:space="preserve" text-anchor="middle" x="162.38" y="-317.55" font-family="Helvetica,sans-Serif" font-size="10.00">destroy_chyron</text>
</a>
</g>
</g>
<!-- Node1&#45;&gt;Node8 -->
<g id="edge9_Node000001_Node000008" class="edge">
<title>Node1&#45;&gt;Node8</title>
<g id="a_edge9_Node000001_Node000008"><a xlink:title=" ">
<path fill="none" stroke="#63b8ff" d="M45.29,-197.26C54.98,-219.29 80.11,-270.58 115.75,-300.68 117.2,-301.9 118.74,-303.07 120.35,-304.17"/>
<polygon fill="#63b8ff" stroke="#63b8ff" points="118.31,-307.04 128.71,-309.07 121.84,-300.99 118.31,-307.04"/>
</a>
</g>
</g>
<!-- Node9 -->
<g id="Node000009" class="node">
<title>Node9</title>
<g id="a_Node000009"><a xlink:href="../../df/d95/a00299.html#ad37d5808ff30ae6894780425d865abae" target="_top" xlink:title="Create and initialize Chyron structure.">
<polygon fill="white" stroke="#666666" points="199.62,-292.05 125.12,-292.05 125.12,-271.3 199.62,-271.3 199.62,-292.05"/>
<text xml:space="preserve" text-anchor="middle" x="162.38" y="-278.55" font-family="Helvetica,sans-Serif" font-size="10.00">new_chyron</text>
</a>
</g>
</g>
<!-- Node1&#45;&gt;Node9 -->
<g id="edge10_Node000001_Node000009" class="edge">
<title>Node1&#45;&gt;Node9</title>
<g id="a_edge10_Node000001_Node000009"><a xlink:title=" ">
<path fill="none" stroke="#63b8ff" d="M50.27,-197.26C63.75,-212.04 89.83,-239.11 115.75,-257.68 119.6,-260.43 123.8,-263.07 128.05,-265.53"/>
<polygon fill="#63b8ff" stroke="#63b8ff" points="126.12,-268.46 136.57,-270.17 129.46,-262.31 126.12,-268.46"/>
</a>
</g>
</g>
<!-- Node10 -->
<g id="Node000010" class="node">
<title>Node10</title>
<g id="a_Node000010"><a xlink:href="../../df/d95/a00299.html#a208ce92c197fdd6d2b007987e534aa3b" target="_top" xlink:title="Set chyron key.">
<polygon fill="white" stroke="#666666" points="337.12,-254.05 245.38,-254.05 245.38,-233.3 337.12,-233.3 337.12,-254.05"/>
<text xml:space="preserve" text-anchor="middle" x="291.25" y="-240.55" font-family="Helvetica,sans-Serif" font-size="10.00">set_chyron_key</text>
</a>
</g>
</g>
<!-- Node1&#45;&gt;Node10 -->
<g id="edge12_Node000001_Node000010" class="edge">
<title>Node1&#45;&gt;Node10</title>
<g id="a_edge12_Node000001_Node000010"><a xlink:title=" ">
<path fill="none" stroke="#63b8ff" d="M61.28,-197.53C76.02,-204.9 96.61,-214.26 115.75,-219.68 154.35,-230.6 199.2,-236.63 233.77,-239.92"/>
<polygon fill="#63b8ff" stroke="#63b8ff" points="233.3,-243.39 243.57,-240.79 233.92,-236.42 233.3,-243.39"/>
</a>
</g>
</g>
<!-- Node11 -->
<g id="Node000011" class="node">
<title>Node11</title>
<g id="a_Node000011"><a xlink:href="../../dc/d5d/a00278.html#a63eb94756fb011a456a3dec900709cd8" target="_top" xlink:title="ssnprintf was designed to be a safer alternative to snprintf.">
<polygon fill="white" stroke="#666666" points="447.62,-216.05 388.88,-216.05 388.88,-195.3 447.62,-195.3 447.62,-216.05"/>
<text xml:space="preserve" text-anchor="middle" x="418.25" y="-202.55" font-family="Helvetica,sans-Serif" font-size="10.00">ssnprintf</text>
</a>
</g>
</g>
<!-- Node1&#45;&gt;Node11 -->
<g id="edge14_Node000001_Node000011" class="edge">
<title>Node1&#45;&gt;Node11</title>
<g id="a_edge14_Node000001_Node000011"><a xlink:title=" ">
<path fill="none" stroke="#63b8ff" d="M80.09,-188.66C152.05,-192.29 304.47,-199.98 377.12,-203.65"/>
<polygon fill="#63b8ff" stroke="#63b8ff" points="376.8,-207.14 386.97,-204.15 377.16,-200.15 376.8,-207.14"/>
</a>
</g>
</g>
<!-- Node12 -->
<g id="Node000012" class="node">
<title>Node12</title>
<g id="a_Node000012"><a xlink:href="../../dc/d5d/a00278.html#a636608f26d1193b5d860f2312cd8ee49" target="_top" xlink:title="terminates string at New Line, Carriage Return, or max_len">
<polygon fill="white" stroke="#666666" points="182.38,-178.05 142.38,-178.05 142.38,-157.3 182.38,-157.3 182.38,-178.05"/>
<text xml:space="preserve" text-anchor="middle" x="162.38" y="-164.55" font-family="Helvetica,sans-Serif" font-size="10.00">strnz</text>
</a>
</g>
</g>
<!-- Node1&#45;&gt;Node12 -->
<g id="edge15_Node000001_Node000012" class="edge">
<title>Node1&#45;&gt;Node12</title>
<g id="a_edge15_Node000001_Node000012"><a xlink:title=" ">
<path fill="none" stroke="#63b8ff" d="M80,-180.51C96.54,-177.9 115.51,-174.91 130.97,-172.47"/>
<polygon fill="#63b8ff" stroke="#63b8ff" points="131.18,-175.98 140.51,-170.97 130.09,-169.07 131.18,-175.98"/>
</a>
</g>
</g>
<!-- Node13 -->
<g id="Node000013" class="node">
<title>Node13</title>
<g id="a_Node000013"><a xlink:href="../../dc/d5d/a00278.html#a0de2e40df9bd7efc8fd9afb8ad2257e6" target="_top" xlink:title="safer alternative to strncpy">
<polygon fill="white" stroke="#666666" points="452.12,-99.05 384.38,-99.05 384.38,-78.3 452.12,-78.3 452.12,-99.05"/>
<text xml:space="preserve" text-anchor="middle" x="418.25" y="-85.55" font-family="Helvetica,sans-Serif" font-size="10.00">strnz__cpy</text>
</a>
</g>
</g>
<!-- Node1&#45;&gt;Node13 -->
<g id="edge16_Node000001_Node000013" class="edge">
<title>Node1&#45;&gt;Node13</title>
<g id="a_edge16_Node000001_Node000013"><a xlink:title=" ">
<path fill="none" stroke="#63b8ff" d="M42.23,-175.86C46.58,-146.39 63.1,-64.72 115.75,-31.68 199.23,20.71 243.65,-1.59 337.5,-31.68 361.12,-39.25 383.69,-56.68 398.76,-70.28"/>
<polygon fill="#63b8ff" stroke="#63b8ff" points="396.32,-72.8 406.01,-77.1 401.12,-67.7 396.32,-72.8"/>
</a>
</g>
</g>
<!-- Node14 -->
<g id="Node000014" class="node">
<title>Node14</title>
<g id="a_Node000014"><a xlink:href="../../df/d95/a00299.html#a9dd598e1d49c8764af1eec42c682623e" target="_top" xlink:title="Delete the current window and its associated box window.">
<polygon fill="white" stroke="#666666" points="189.12,-100.05 135.62,-100.05 135.62,-79.3 189.12,-79.3 189.12,-100.05"/>
<text xml:space="preserve" text-anchor="middle" x="162.38" y="-86.55" font-family="Helvetica,sans-Serif" font-size="10.00">win_del</text>
</a>
</g>
</g>
<!-- Node1&#45;&gt;Node14 -->
<g id="edge17_Node000001_Node000014" class="edge">
<title>Node1&#45;&gt;Node14</title>
<g id="a_edge17_Node000001_Node000014"><a xlink:title=" ">
<path fill="none" stroke="#63b8ff" d="M49.04,-175.94C61.78,-159.77 87.86,-129.01 115.75,-109.68 118.74,-107.61 121.97,-105.68 125.29,-103.9"/>
<polygon fill="#63b8ff" stroke="#63b8ff" points="126.51,-107.2 133.99,-99.68 123.46,-100.9 126.51,-107.2"/>
</a>
</g>
</g>
<!-- Node15 -->
<g id="Node000015" class="node">
<title>Node15</title>
<g id="a_Node000015"><a xlink:href="../../df/d95/a00299.html#a435c7bff7ffedb8f51c6de9259e36f6c" target="_top" xlink:title="Create a new window with optional box and title.">
<polygon fill="white" stroke="#666666" points="191.75,-61.05 133,-61.05 133,-40.3 191.75,-40.3 191.75,-61.05"/>
<text xml:space="preserve" text-anchor="middle" x="162.38" y="-47.55" font-family="Helvetica,sans-Serif" font-size="10.00">win_new</text>
</a>
</g>
</g>
<!-- Node1&#45;&gt;Node15 -->
<g id="edge18_Node000001_Node000015" class="edge">
<title>Node1&#45;&gt;Node15</title>
<g id="a_edge18_Node000001_Node000015"><a xlink:title=" ">
<path fill="none" stroke="#63b8ff" d="M45.24,-175.91C54.84,-153.48 79.8,-101.29 115.75,-70.68 117.94,-68.81 120.33,-67.1 122.83,-65.52"/>
<polygon fill="#63b8ff" stroke="#63b8ff" points="124.38,-68.66 131.52,-60.83 121.05,-62.5 124.38,-68.66"/>
</a>
</g>
</g>
<!-- Node17 -->
<g id="Node000017" class="node">
<title>Node17</title>
<g id="a_Node000017"><a xlink:href="../../df/d95/a00299.html#acf4c709bccc4c965a5d61db978db31a3" target="_top" xlink:title="Wrapper for wgetch that handles signals and mouse events.">
<polygon fill="white" stroke="#666666" points="191,-139.05 133.75,-139.05 133.75,-118.3 191,-118.3 191,-139.05"/>
<text xml:space="preserve" text-anchor="middle" x="162.38" y="-125.55" font-family="Helvetica,sans-Serif" font-size="10.00">xwgetch</text>
</a>
</g>
</g>
<!-- Node1&#45;&gt;Node17 -->
<g id="edge21_Node000001_Node000017" class="edge">
<title>Node1&#45;&gt;Node17</title>
<g id="a_edge21_Node000001_Node000017"><a xlink:title=" ">
<path fill="none" stroke="#63b8ff" d="M50.01,-176.06C64.04,-165.44 91.76,-151.01 115.75,-139.68 118.04,-138.6 120.4,-137.5 122.78,-136.42"/>
<polygon fill="#63b8ff" stroke="#63b8ff" points="124.09,-139.67 131.88,-132.5 121.31,-133.25 124.09,-139.67"/>
</a>
</g>
</g>
<!-- Node3 -->
<g id="Node000003" class="node">
<title>Node3</title>
<g id="a_Node000003"><a xlink:href="../../df/d95/a00299.html#afc0985a403e3eac0b2cd8f0fab500256" target="_top" xlink:title="Gracefully shut down NCurses and restore terminal settings.">
<polygon fill="white" stroke="#666666" points="463,-292.05 373.5,-292.05 373.5,-271.3 463,-271.3 463,-292.05"/>
<text xml:space="preserve" text-anchor="middle" x="418.25" y="-278.55" font-family="Helvetica,sans-Serif" font-size="10.00">destroy_curses</text>
</a>
</g>
</g>
<!-- Node2&#45;&gt;Node3 -->
<g id="edge2_Node000002_Node000003" class="edge">
<title>Node2&#45;&gt;Node3</title>
<g id="a_edge2_Node000002_Node000003"><a xlink:title=" ">
<path fill="none" stroke="#63b8ff" d="M314.6,-282.5C327.78,-282.39 345.09,-282.25 361.73,-282.12"/>
<polygon fill="#63b8ff" stroke="#63b8ff" points="361.6,-285.62 371.57,-282.04 361.55,-278.62 361.6,-285.62"/>
</a>
</g>
</g>
<!-- Node4 -->
<g id="Node000004" class="node">
<title>Node4</title>
<g id="a_Node000004"><a xlink:href="../../d6/de1/a00233.html#ac5e3adb304b78910fc77761ef6a743f0" target="_top" xlink:title="restore_shell_tioctl() &#45; restore shell terminal settings">
<polygon fill="white" stroke="#666666" points="608,-293.05 499,-293.05 499,-272.3 608,-272.3 608,-293.05"/>
<text xml:space="preserve" text-anchor="middle" x="553.5" y="-279.55" font-family="Helvetica,sans-Serif" font-size="10.00">restore_shell_tioctl</text>
</a>
</g>
</g>
<!-- Node2&#45;&gt;Node4 -->
<g id="edge5_Node000002_Node000004" class="edge">
<title>Node2&#45;&gt;Node4</title>
<g id="a_edge5_Node000002_Node000004"><a xlink:title=" ">
<path fill="none" stroke="#63b8ff" d="M314.45,-288.97C330.66,-293.23 353.25,-298.46 373.5,-300.68 413.04,-305 423.42,-304.62 463,-300.68 473.89,-299.59 485.41,-297.79 496.43,-295.72"/>
<polygon fill="#63b8ff" stroke="#63b8ff" points="497.07,-299.16 506.21,-293.79 495.72,-292.3 497.07,-299.16"/>
</a>
</g>
</g>
<!-- Node5 -->
<g id="Node000005" class="node">
<title>Node5</title>
<g id="a_Node000005"><a xlink:href="../../d1/da8/a00230.html#a06c1eb6cf3649dc187115565409f91af" target="_top" xlink:title="Set signal handlers to default behavior.">
<polygon fill="white" stroke="#666666" points="594.12,-254.05 512.88,-254.05 512.88,-233.3 594.12,-233.3 594.12,-254.05"/>
<text xml:space="preserve" text-anchor="middle" x="553.5" y="-240.55" font-family="Helvetica,sans-Serif" font-size="10.00">sig_dfl_mode</text>
</a>
</g>
</g>
<!-- Node2&#45;&gt;Node5 -->
<g id="edge6_Node000002_Node000005" class="edge">
<title>Node2&#45;&gt;Node5</title>
<g id="a_edge6_Node000002_Node000005"><a xlink:title=" ">
<path fill="none" stroke="#63b8ff" d="M314.49,-276.34C330.73,-271.92 353.32,-266.21 373.5,-262.68 416.27,-255.18 465.35,-250.22 501.29,-247.26"/>
<polygon fill="#63b8ff" stroke="#63b8ff" points="501.27,-250.77 510.96,-246.48 500.72,-243.79 501.27,-250.77"/>
</a>
</g>
</g>
<!-- Node3&#45;&gt;Node4 -->
<g id="edge3_Node000003_Node000004" class="edge">
<title>Node3&#45;&gt;Node4</title>
<g id="a_edge3_Node000003_Node000004"><a xlink:title=" ">
<path fill="none" stroke="#63b8ff" d="M463.25,-282.01C470.98,-282.07 479.17,-282.13 487.33,-282.19"/>
<polygon fill="#63b8ff" stroke="#63b8ff" points="487.26,-285.69 497.28,-282.26 487.31,-278.69 487.26,-285.69"/>
</a>
</g>
</g>
<!-- Node3&#45;&gt;Node5 -->
<g id="edge4_Node000003_Node000005" class="edge">
<title>Node3&#45;&gt;Node5</title>
<g id="a_edge4_Node000003_Node000005"><a xlink:title=" ">
<path fill="none" stroke="#63b8ff" d="M457.08,-270.89C471.57,-266.76 488.3,-261.98 503.68,-257.6"/>
<polygon fill="#63b8ff" stroke="#63b8ff" points="504.47,-261.02 513.12,-254.91 502.55,-254.28 504.47,-261.02"/>
</a>
</g>
</g>
<!-- Node7 -->
<g id="Node000007" class="node">
<title>Node7</title>
<g id="a_Node000007"><a xlink:href="../../dc/d5d/a00278.html#aa0145c044cfdde3a1c83323410a59f25" target="_top" xlink:title="safer alternative to strncat">
<polygon fill="white" stroke="#666666" points="324,-407.05 258.5,-407.05 258.5,-386.3 324,-386.3 324,-407.05"/>
<text xml:space="preserve" text-anchor="middle" x="291.25" y="-393.55" font-family="Helvetica,sans-Serif" font-size="10.00">strnz__cat</text>
</a>
</g>
</g>
<!-- Node6&#45;&gt;Node7 -->
<g id="edge8_Node000006_Node000007" class="edge">
<title>Node6&#45;&gt;Node7</title>
<g id="a_edge8_Node000006_Node000007"><a xlink:title=" ">
<path fill="none" stroke="#63b8ff" d="M209.18,-396.68C221.44,-396.68 234.66,-396.68 246.8,-396.68"/>
<polygon fill="#63b8ff" stroke="#63b8ff" points="246.52,-400.18 256.52,-396.68 246.52,-393.18 246.52,-400.18"/>
</a>
</g>
</g>
<!-- Node9&#45;&gt;Node2 -->
<g id="edge11_Node000009_Node000002" class="edge">
<title>Node9&#45;&gt;Node2</title>
<g id="a_edge11_Node000009_Node000002"><a xlink:title=" ">
<path fill="none" stroke="#63b8ff" d="M200.07,-281.97C217.91,-282.11 239.2,-282.27 256.62,-282.41"/>
<polygon fill="#63b8ff" stroke="#63b8ff" points="256.42,-285.91 266.45,-282.49 256.48,-278.91 256.42,-285.91"/>
</a>
</g>
</g>
<!-- Node10&#45;&gt;Node11 -->
<g id="edge13_Node000010_Node000011" class="edge">
<title>Node10&#45;&gt;Node11</title>
<g id="a_edge13_Node000010_Node000011"><a xlink:title=" ">
<path fill="none" stroke="#63b8ff" d="M327.74,-232.89C343.34,-228.15 361.72,-222.56 377.75,-217.69"/>
<polygon fill="#63b8ff" stroke="#63b8ff" points="378.41,-221.14 386.96,-214.88 376.38,-214.44 378.41,-221.14"/>
</a>
</g>
</g>
<!-- Node15&#45;&gt;Node13 -->
<g id="edge20_Node000015_Node000013" class="edge">
<title>Node15&#45;&gt;Node13</title>
<g id="a_edge20_Node000015_Node000013"><a xlink:title=" ">
<path fill="none" stroke="#63b8ff" d="M191.92,-58.2C207.51,-62.08 227.22,-66.64 245,-69.68 288.16,-77.05 337.92,-82.18 372.83,-85.24"/>
<polygon fill="#63b8ff" stroke="#63b8ff" points="372.3,-88.71 382.56,-86.07 372.89,-81.73 372.3,-88.71"/>
</a>
</g>
</g>
<!-- Node16 -->
<g id="Node000016" class="node">
<title>Node16</title>
<g id="a_Node000016"><a xlink:href="../../df/d95/a00299.html#ac9adcf7339be4a05ab1a7350c236b8a5" target="_top" xlink:title="Draw a box around the specified window.">
<polygon fill="white" stroke="#666666" points="310.88,-61.05 271.62,-61.05 271.62,-40.3 310.88,-40.3 310.88,-61.05"/>
<text xml:space="preserve" text-anchor="middle" x="291.25" y="-47.55" font-family="Helvetica,sans-Serif" font-size="10.00">cbox</text>
</a>
</g>
</g>
<!-- Node15&#45;&gt;Node16 -->
<g id="edge19_Node000015_Node000016" class="edge">
<title>Node15&#45;&gt;Node16</title>
<g id="a_edge19_Node000015_Node000016"><a xlink:title=" ">
<path fill="none" stroke="#63b8ff" d="M192.16,-50.68C212.46,-50.68 239.57,-50.68 260.15,-50.68"/>
<polygon fill="#63b8ff" stroke="#63b8ff" points="259.89,-54.18 269.89,-50.68 259.89,-47.18 259.89,-54.18"/>
</a>
</g>
</g>
<!-- Node17&#45;&gt;Node1 -->
<g id="edge22_Node000017_Node000001" class="edge">
<title>Node17&#45;&gt;Node1</title>
<g id="a_edge22_Node000017_Node000001"><a xlink:title=" ">
<path fill="none" stroke="#63b8ff" d="M151.87,-139.54C142.59,-145.59 128.11,-151.84 115.75,-157.68 106.75,-161.93 97.22,-166.62 88.09,-171.04"/>
<polygon fill="#63b8ff" stroke="#63b8ff" points="86.87,-167.74 79.36,-175.22 89.89,-174.05 86.87,-167.74"/>
</a>
</g>
</g>
<!-- Node18 -->
<g id="Node000018" class="node">
<title>Node18</title>
<g id="a_Node000018"><a xlink:href="../../df/d95/a00299.html#a4298f891699300bfc4e6e56fd2a8d574" target="_top" xlink:title="Get keycode from chyron.">
<polygon fill="white" stroke="#666666" points="337.5,-139.05 245,-139.05 245,-118.3 337.5,-118.3 337.5,-139.05"/>
<text xml:space="preserve" text-anchor="middle" x="291.25" y="-125.55" font-family="Helvetica,sans-Serif" font-size="10.00">get_chyron_key</text>
</a>
</g>
</g>
<!-- Node17&#45;&gt;Node18 -->
<g id="edge23_Node000017_Node000018" class="edge">
<title>Node17&#45;&gt;Node18</title>
<g id="a_edge23_Node000017_Node000018"><a xlink:title=" ">
<path fill="none" stroke="#63b8ff" d="M191.22,-128.68C203.54,-128.68 218.5,-128.68 233.03,-128.68"/>
<polygon fill="#63b8ff" stroke="#63b8ff" points="233.01,-132.18 243.01,-128.68 233.01,-125.18 233.01,-132.18"/>
</a>
</g>
</g>
<!-- Node19 -->
<g id="Node000019" class="node">
<title>Node19</title>
<g id="a_Node000019"><a xlink:href="../../d1/da8/a00230.html#a79c3e22498eb2346543aa9c86fd22e58" target="_top" xlink:title="Handle received signals and prompt user for action.">
<polygon fill="white" stroke="#666666" points="333,-178.05 249.5,-178.05 249.5,-157.3 333,-157.3 333,-178.05"/>
<text xml:space="preserve" text-anchor="middle" x="291.25" y="-164.55" font-family="Helvetica,sans-Serif" font-size="10.00">handle_signal</text>
</a>
</g>
</g>
<!-- Node17&#45;&gt;Node19 -->
<g id="edge24_Node000017_Node000019" class="edge">
<title>Node17&#45;&gt;Node19</title>
<g id="a_edge24_Node000017_Node000019"><a xlink:title=" ">
<path fill="none" stroke="#63b8ff" d="M191.22,-137.24C206.8,-142.03 226.63,-148.12 244.44,-153.59"/>
<polygon fill="#63b8ff" stroke="#63b8ff" points="243.18,-156.87 253.76,-156.46 245.23,-150.18 243.18,-156.87"/>
</a>
</g>
</g>
<!-- Node19&#45;&gt;Node4 -->
<g id="edge25_Node000019_Node000004" class="edge">
<title>Node19&#45;&gt;Node4</title>
<g id="a_edge25_Node000019_Node000004"><a xlink:title=" ">
<path fill="none" stroke="#63b8ff" d="M333.44,-161.68C370.71,-158.53 425.36,-159.83 463,-186.68 493.43,-208.38 471.48,-237.39 499,-262.68 500.26,-263.83 501.58,-264.92 502.97,-265.95"/>
<polygon fill="#63b8ff" stroke="#63b8ff" points="501.11,-268.91 511.48,-271.09 504.73,-262.92 501.11,-268.91"/>
</a>
</g>
</g>
<!-- Node19&#45;&gt;Node11 -->
<g id="edge26_Node000019_Node000011" class="edge">
<title>Node19&#45;&gt;Node11</title>
<g id="a_edge26_Node000019_Node000011"><a xlink:title=" ">
<path fill="none" stroke="#63b8ff" d="M327.74,-178.46C343.34,-183.21 361.72,-188.79 377.75,-193.67"/>
<polygon fill="#63b8ff" stroke="#63b8ff" points="376.38,-196.91 386.96,-196.47 378.41,-190.21 376.38,-196.91"/>
</a>
</g>
</g>
<!-- Node19&#45;&gt;Node13 -->
<g id="edge27_Node000019_Node000013" class="edge">
<title>Node19&#45;&gt;Node13</title>
<g id="a_edge27_Node000019_Node000013"><a xlink:title=" ">
<path fill="none" stroke="#63b8ff" d="M319.06,-157C325.24,-154.22 331.71,-151.04 337.5,-147.68 358.34,-135.56 380.23,-119.06 395.79,-106.59"/>
<polygon fill="#63b8ff" stroke="#63b8ff" points="397.88,-109.4 403.42,-100.38 393.46,-103.97 397.88,-109.4"/>
</a>
</g>
</g>
</g>
</svg>
