<?xml version="1.0" encoding="UTF-8" standalone="no"?>
<!DOCTYPE svg PUBLIC "-//W3C//DTD SVG 1.1//EN"
 "http://www.w3.org/Graphics/SVG/1.1/DTD/svg11.dtd">
<!-- Generated by graphviz version 14.1.2 (0)
 -->
<!-- Title: mvwaddstr_fill Pages: 1 -->
<!--zoomable 173 -->

<svg id="main" version="1.1" xmlns="http://www.w3.org/2000/svg" xmlns:xlink="http://www.w3.org/1999/xlink" xml:space="preserve" onload="init(evt)">

<style type="text/css"><![CDATA[
.node, .edge {opacity: 0.7;}
.node.selected, .edge.selected {opacity: 1;}
.edge:hover path { stroke: red; }
.edge:hover polygon { stroke: red; fill: red; }
]]></style>

<defs>
  <circle id="rim" cx="0" cy="0" r="7"/>
  <circle id="rim2" cx="0" cy="0" r="3.5"/>
  <g id="zoomPlus">
    <use xlink:href="#rim" fill="#404040"><set attributeName="fill" to="#808080" begin="zoomplus.mouseover" end="zoomplus.mouseout"/></use>
    <path d="M-4,0h8M0,-4v8" fill="none" stroke="white" stroke-width="1.5" pointer-events="none"/>
  </g>
  <g id="zoomMin">
    <use xlink:href="#rim" fill="#404040"><set attributeName="fill" to="#808080" begin="zoomminus.mouseover" end="zoomminus.mouseout"/></use>
    <path d="M-4,0h8" fill="none" stroke="white" stroke-width="1.5" pointer-events="none"/>
  </g>
  <g id="arrowUp" transform="translate(30 24)">
    <use xlink:href="#rim"/>
    <path pointer-events="none" fill="none" stroke="white" stroke-width="1.5" d="M0,-3.0v7 M-2.5,-0.5L0,-3.0L2.5,-0.5"/>
  </g>
  <g id="arrowRight" transform="rotate(90) translate(36 -43)">
    <use xlink:href="#rim"/>
    <path pointer-events="none" fill="none" stroke="white" stroke-width="1.5" d="M0,-3.0v7 M-2.5,-0.5L0,-3.0L2.5,-0.5"/>
  </g>
  <g id="arrowDown" transform="rotate(180) translate(-30 -48)">
    <use xlink:href="#rim"/>
    <path pointer-events="none" fill="none" stroke="white" stroke-width="1.5" d="M0,-3.0v7 M-2.5,-0.5L0,-3.0L2.5,-0.5"/>
  </g>
  <g id="arrowLeft" transform="rotate(270) translate(-36 17)">
    <use xlink:href="#rim"/>
    <path pointer-events="none" fill="none" stroke="white" stroke-width="1.5" d="M0,-3.0v7 M-2.5,-0.5L0,-3.0L2.5,-0.5"/>
  </g>
  <g id="resetDef">
    <use xlink:href="#rim2" fill="#404040"><set attributeName="fill" to="#808080" begin="reset.mouseover" end="reset.mouseout"/></use>
  </g>
</defs>
<script type="application/ecmascript">
var viewWidth = 871;
var viewHeight = 173;
var sectionId = 'dynsection-50';
</script>
<script type="application/ecmascript" xlink:href="../../svg.min.js"/>
<svg id="graph" class="graph">
<g id="viewport">
<title>mvwaddstr_fill</title>
<!-- Node1 -->
<g id="Node000001" class="node">
<title>Node1</title>
<g id="a_Node000001"><a xlink:title="For lines shorter than their display area, fill the rest with spaces.">
<polygon fill="#999999" stroke="#666666" points="863,-89.09 774.25,-89.09 774.25,-68.34 863,-68.34 863,-89.09"/>
<text xml:space="preserve" text-anchor="middle" x="818.62" y="-75.59" font-family="Helvetica,sans-Serif" font-size="10.00">mvwaddstr_fill</text>
</a>
</g>
</g>
<!-- Node2 -->
<g id="Node000002" class="node">
<title>Node2</title>
<g id="a_Node000002"><a xlink:href="../../d0/d27/a00239.html#acd6b9991f2aa305f622f5d2515815bba" target="_top" xlink:title="Displays current page of objects in pick window.">
<polygon fill="white" stroke="#666666" points="728.5,-165.09 648,-165.09 648,-144.34 728.5,-144.34 728.5,-165.09"/>
<text xml:space="preserve" text-anchor="middle" x="688.25" y="-151.59" font-family="Helvetica,sans-Serif" font-size="10.00">display_page</text>
</a>
</g>
</g>
<!-- Node1&#45;&gt;Node2 -->
<g id="edge1_Node000001_Node000002" class="edge">
<title>Node1&#45;&gt;Node2</title>
<g id="a_edge1_Node000001_Node000002"><a xlink:title=" ">
<path fill="none" stroke="#63b8ff" d="M793.12,-95.91C777.68,-106.45 757.16,-119.95 738.25,-130.72 730.02,-135.41 720.74,-140.09 712.49,-144.07"/>
<polygon fill="#63b8ff" stroke="#63b8ff" points="794.98,-98.88 801.22,-90.32 791,-93.12 794.98,-98.88"/>
</a>
</g>
</g>
<!-- Node6 -->
<g id="Node000006" class="node">
<title>Node6</title>
<g id="a_Node000006"><a xlink:href="../../d9/d39/a00257.html#aa5d0e30e7036b72b51c843d0a7e486a1" target="_top" xlink:title="Processes user input for the menu system.">
<polygon fill="white" stroke="#666666" points="317.25,-31.09 194.75,-31.09 194.75,-10.34 317.25,-10.34 317.25,-31.09"/>
<text xml:space="preserve" text-anchor="middle" x="256" y="-17.59" font-family="Helvetica,sans-Serif" font-size="10.00">menu_cmd_processor</text>
</a>
</g>
</g>
<!-- Node1&#45;&gt;Node6 -->
<g id="edge11_Node000001_Node000006" class="edge">
<title>Node1&#45;&gt;Node6</title>
<g id="a_edge11_Node000001_Node000006"><a xlink:title=" ">
<path fill="none" stroke="#63b8ff" d="M798.5,-60.33C783.4,-46.98 761.13,-29.74 738.25,-20.72 672.6,5.16 651.19,-1.72 580.62,-1.72 580.62,-1.72 580.62,-1.72 482.75,-1.72 426.7,-1.72 363.1,-7.61 317.73,-12.83"/>
<polygon fill="#63b8ff" stroke="#63b8ff" points="796.06,-62.84 805.8,-67.01 800.78,-57.68 796.06,-62.84"/>
</a>
</g>
</g>
<!-- Node9 -->
<g id="Node000009" class="node">
<title>Node9</title>
<g id="a_Node000009"><a xlink:href="../../d0/d27/a00239.html#abb0969a6d1c7e78be46c3b325754c802" target="_top" xlink:title="Main loop to handle user input and interactions for pick interface.">
<polygon fill="white" stroke="#666666" points="602.25,-89.09 557,-89.09 557,-68.34 602.25,-68.34 602.25,-89.09"/>
<text xml:space="preserve" text-anchor="middle" x="579.62" y="-75.59" font-family="Helvetica,sans-Serif" font-size="10.00">picker</text>
</a>
</g>
</g>
<!-- Node1&#45;&gt;Node9 -->
<g id="edge12_Node000001_Node000009" class="edge">
<title>Node1&#45;&gt;Node9</title>
<g id="a_edge12_Node000001_Node000009"><a xlink:title=" ">
<path fill="none" stroke="#63b8ff" d="M769.23,-92.21C759.07,-94.5 748.37,-96.52 738.25,-97.72 694.11,-102.93 682.13,-104.77 638.25,-97.72 626.19,-95.78 613.22,-91.7 602.65,-87.81"/>
<polygon fill="#63b8ff" stroke="#63b8ff" points="770.02,-95.62 778.93,-89.89 768.39,-88.81 770.02,-95.62"/>
</a>
</g>
</g>
<!-- Node10 -->
<g id="Node000010" class="node">
<title>Node10</title>
<g id="a_Node000010"><a xlink:href="../../d0/d27/a00239.html#ab2173ff8fb800d126c180487744672d5" target="_top" xlink:title="Reverses the display of the currently selected object in pick window.">
<polygon fill="white" stroke="#666666" points="732.25,-50.09 644.25,-50.09 644.25,-29.34 732.25,-29.34 732.25,-50.09"/>
<text xml:space="preserve" text-anchor="middle" x="688.25" y="-36.59" font-family="Helvetica,sans-Serif" font-size="10.00">reverse_object</text>
</a>
</g>
</g>
<!-- Node1&#45;&gt;Node10 -->
<g id="edge13_Node000001_Node000010" class="edge">
<title>Node1&#45;&gt;Node10</title>
<g id="a_edge13_Node000001_Node000010"><a xlink:title=" ">
<path fill="none" stroke="#63b8ff" d="M771.07,-64.58C755.82,-59.94 739.12,-54.87 724.82,-50.52"/>
<polygon fill="#63b8ff" stroke="#63b8ff" points="769.83,-67.86 780.42,-67.42 771.87,-61.16 769.83,-67.86"/>
</a>
</g>
</g>
<!-- Node11 -->
<g id="Node000011" class="node">
<title>Node11</title>
<g id="a_Node000011"><a xlink:href="../../d0/d27/a00239.html#a650262f8279502ebc73607394dd7af13" target="_top" xlink:title="Unreverses the display of the currently selected object in pick window.">
<polygon fill="white" stroke="#666666" points="738.25,-89.09 638.25,-89.09 638.25,-68.34 738.25,-68.34 738.25,-89.09"/>
<text xml:space="preserve" text-anchor="middle" x="688.25" y="-75.59" font-family="Helvetica,sans-Serif" font-size="10.00">unreverse_object</text>
</a>
</g>
</g>
<!-- Node1&#45;&gt;Node11 -->
<g id="edge16_Node000001_Node000011" class="edge">
<title>Node1&#45;&gt;Node11</title>
<g id="a_edge16_Node000001_Node000011"><a xlink:title=" ">
<path fill="none" stroke="#63b8ff" d="M762.4,-78.72C754.49,-78.72 746.39,-78.72 738.6,-78.72"/>
<polygon fill="#63b8ff" stroke="#63b8ff" points="762.29,-82.22 772.29,-78.72 762.29,-75.22 762.29,-82.22"/>
</a>
</g>
</g>
<!-- Node3 -->
<g id="Node000003" class="node">
<title>Node3</title>
<g id="a_Node000003"><a xlink:href="../../d0/d27/a00239.html#ab97dcab41017c5132f52b682437a151e" target="_top" xlink:title="Initializes pick interface, calculates window size and position, and enters picker loop.">
<polygon fill="white" stroke="#666666" points="521,-84.09 446.5,-84.09 446.5,-63.34 521,-63.34 521,-84.09"/>
<text xml:space="preserve" text-anchor="middle" x="483.75" y="-70.59" font-family="Helvetica,sans-Serif" font-size="10.00">pick_engine</text>
</a>
</g>
</g>
<!-- Node2&#45;&gt;Node3 -->
<g id="edge2_Node000002_Node000003" class="edge">
<title>Node2&#45;&gt;Node3</title>
<g id="a_edge2_Node000002_Node000003"><a xlink:title=" ">
<path fill="none" stroke="#63b8ff" d="M649.7,-139.7C609.65,-123.68 547.21,-98.7 511.75,-84.52"/>
<polygon fill="#63b8ff" stroke="#63b8ff" points="648.37,-142.94 658.95,-143.4 650.97,-136.44 648.37,-142.94"/>
</a>
</g>
</g>
<!-- Node2&#45;&gt;Node9 -->
<g id="edge9_Node000002_Node000009" class="edge">
<title>Node2&#45;&gt;Node9</title>
<g id="a_edge9_Node000002_Node000009"><a xlink:title=" ">
<path fill="none" stroke="#63b8ff" d="M651.72,-138.79C647.08,-136.29 642.47,-133.57 638.25,-130.72 619.95,-118.34 601.44,-100.48 590.51,-89.24"/>
<polygon fill="#63b8ff" stroke="#63b8ff" points="649.98,-141.83 660.48,-143.24 653.15,-135.59 649.98,-141.83"/>
</a>
</g>
</g>
<!-- Node4 -->
<g id="Node000004" class="node">
<title>Node4</title>
<g id="a_Node000004"><a xlink:href="../../d0/d27/a00239.html#a1b2ee87543245e612c1710ea58930a17" target="_top" xlink:title="Initializes pick structure and opens pick input file or pipe.">
<polygon fill="white" stroke="#666666" points="410.5,-79.09 353.25,-79.09 353.25,-58.34 410.5,-58.34 410.5,-79.09"/>
<text xml:space="preserve" text-anchor="middle" x="381.88" y="-65.59" font-family="Helvetica,sans-Serif" font-size="10.00">init_pick</text>
</a>
</g>
</g>
<!-- Node3&#45;&gt;Node4 -->
<g id="edge3_Node000003_Node000004" class="edge">
<title>Node3&#45;&gt;Node4</title>
<g id="a_edge3_Node000003_Node000004"><a xlink:title=" ">
<path fill="none" stroke="#63b8ff" d="M434.66,-71.31C426.46,-70.9 418.18,-70.49 410.73,-70.11"/>
<polygon fill="#63b8ff" stroke="#63b8ff" points="434.45,-74.81 444.62,-71.81 434.8,-67.81 434.45,-74.81"/>
</a>
</g>
</g>
<!-- Node5 -->
<g id="Node000005" class="node">
<title>Node5</title>
<g id="a_Node000005"><a xlink:href="../../d2/dc8/a00242.html#a3c04138a5bfe5d72780bb7e82a18e627" target="_top" xlink:title=" ">
<polygon fill="white" stroke="#666666" points="276.38,-79.09 235.62,-79.09 235.62,-58.34 276.38,-58.34 276.38,-79.09"/>
<text xml:space="preserve" text-anchor="middle" x="256" y="-65.59" font-family="Helvetica,sans-Serif" font-size="10.00">main</text>
</a>
</g>
</g>
<!-- Node4&#45;&gt;Node5 -->
<g id="edge4_Node000004_Node000005" class="edge">
<title>Node4&#45;&gt;Node5</title>
<g id="a_edge4_Node000004_Node000005"><a xlink:title=" ">
<path fill="none" stroke="#63b8ff" d="M341.27,-68.72C319.64,-68.72 293.83,-68.72 276.52,-68.72"/>
<polygon fill="#63b8ff" stroke="#63b8ff" points="341.25,-72.22 351.25,-68.72 341.25,-65.22 341.25,-72.22"/>
</a>
</g>
</g>
<!-- Node4&#45;&gt;Node6 -->
<g id="edge5_Node000004_Node000006" class="edge">
<title>Node4&#45;&gt;Node6</title>
<g id="a_edge5_Node000004_Node000006"><a xlink:title=" ">
<path fill="none" stroke="#63b8ff" d="M342.52,-53.86C323.82,-46.61 301.74,-38.06 284.71,-31.46"/>
<polygon fill="#63b8ff" stroke="#63b8ff" points="341.07,-57.05 351.66,-57.4 343.6,-50.52 341.07,-57.05"/>
</a>
</g>
</g>
<!-- Node7 -->
<g id="Node000007" class="node">
<title>Node7</title>
<g id="a_Node000007"><a xlink:href="../../d9/d39/a00257.html#a7d7973d7aac92759dcc86ec52bb038f4" target="_top" xlink:title="The main loop of the menu system.">
<polygon fill="white" stroke="#666666" points="158.75,-31.09 76.75,-31.09 76.75,-10.34 158.75,-10.34 158.75,-31.09"/>
<text xml:space="preserve" text-anchor="middle" x="117.75" y="-17.59" font-family="Helvetica,sans-Serif" font-size="10.00">menu_engine</text>
</a>
</g>
</g>
<!-- Node6&#45;&gt;Node7 -->
<g id="edge6_Node000006_Node000007" class="edge">
<title>Node6&#45;&gt;Node7</title>
<g id="a_edge6_Node000006_Node000007"><a xlink:title=" ">
<path fill="none" stroke="#63b8ff" d="M183.2,-13.98C174.96,-14.02 166.79,-14.19 159.17,-14.49"/>
<polygon fill="#63b8ff" stroke="#63b8ff" points="182.92,-17.48 192.93,-14 182.94,-10.48 182.92,-17.48"/>
</a>
</g>
</g>
<!-- Node7&#45;&gt;Node6 -->
<g id="edge8_Node000007_Node000006" class="edge">
<title>Node7&#45;&gt;Node6</title>
<g id="a_edge8_Node000007_Node000006"><a xlink:title=" ">
<path fill="none" stroke="#63b8ff" d="M170.68,-27.3C178.45,-27.47 186.52,-27.51 194.45,-27.43"/>
<polygon fill="#63b8ff" stroke="#63b8ff" points="170.79,-23.8 160.69,-26.99 170.58,-30.8 170.79,-23.8"/>
</a>
</g>
</g>
<!-- Node8 -->
<g id="Node000008" class="node">
<title>Node8</title>
<g id="a_Node000008"><a xlink:href="../../dd/dd7/a00260.html#a3c04138a5bfe5d72780bb7e82a18e627" target="_top" xlink:title=" ">
<polygon fill="white" stroke="#666666" points="40.75,-31.09 0,-31.09 0,-10.34 40.75,-10.34 40.75,-31.09"/>
<text xml:space="preserve" text-anchor="middle" x="20.38" y="-17.59" font-family="Helvetica,sans-Serif" font-size="10.00">main</text>
</a>
</g>
</g>
<!-- Node7&#45;&gt;Node8 -->
<g id="edge7_Node000007_Node000008" class="edge">
<title>Node7&#45;&gt;Node8</title>
<g id="a_edge7_Node000007_Node000008"><a xlink:title=" ">
<path fill="none" stroke="#63b8ff" d="M64.79,-20.72C56.36,-20.72 48.1,-20.72 41.09,-20.72"/>
<polygon fill="#63b8ff" stroke="#63b8ff" points="64.79,-24.22 74.79,-20.72 64.79,-17.22 64.79,-24.22"/>
</a>
</g>
</g>
<!-- Node9&#45;&gt;Node3 -->
<g id="edge10_Node000009_Node000003" class="edge">
<title>Node9&#45;&gt;Node3</title>
<g id="a_edge10_Node000009_Node000003"><a xlink:title=" ">
<path fill="none" stroke="#63b8ff" d="M545.58,-76.96C537.78,-76.54 529.43,-76.1 521.48,-75.68"/>
<polygon fill="#63b8ff" stroke="#63b8ff" points="545.17,-80.44 555.34,-77.48 545.54,-73.45 545.17,-80.44"/>
</a>
</g>
</g>
<!-- Node10&#45;&gt;Node3 -->
<g id="edge14_Node000010_Node000003" class="edge">
<title>Node10&#45;&gt;Node3</title>
<g id="a_edge14_Node000010_Node000003"><a xlink:title=" ">
<path fill="none" stroke="#63b8ff" d="M632.67,-47.62C609.33,-51.12 581.79,-55.42 557,-59.72 545.42,-61.73 532.83,-64.1 521.45,-66.32"/>
<polygon fill="#63b8ff" stroke="#63b8ff" points="632.89,-51.12 642.27,-46.19 631.86,-44.2 632.89,-51.12"/>
</a>
</g>
</g>
<!-- Node10&#45;&gt;Node9 -->
<g id="edge15_Node000010_Node000009" class="edge">
<title>Node10&#45;&gt;Node9</title>
<g id="a_edge15_Node000010_Node000009"><a xlink:title=" ">
<path fill="none" stroke="#63b8ff" d="M646.96,-54.46C631.96,-59.94 615.5,-65.96 602.73,-70.63"/>
<polygon fill="#63b8ff" stroke="#63b8ff" points="647.94,-57.83 656.13,-51.1 645.53,-51.25 647.94,-57.83"/>
</a>
</g>
</g>
<!-- Node11&#45;&gt;Node9 -->
<g id="edge17_Node000011_Node000009" class="edge">
<title>Node11&#45;&gt;Node9</title>
<g id="a_edge17_Node000011_Node000009"><a xlink:title=" ">
<path fill="none" stroke="#63b8ff" d="M626.62,-78.72C618.02,-78.72 609.68,-78.72 602.51,-78.72"/>
<polygon fill="#63b8ff" stroke="#63b8ff" points="626.48,-82.22 636.48,-78.72 626.48,-75.22 626.48,-82.22"/>
</a>
</g>
</g>
</g>
</svg>

<g id="navigator" transform="translate(0 0)" fill="#404254">
  <rect fill="#f2f5e9" fill-opacity="0.5" stroke="#606060" stroke-width=".5" x="0" y="0" width="60" height="60"/>
  <use id="zoomplus" xlink:href="#zoomPlus" x="17" y="9" onmousedown="handleZoom(evt,'in')"/>
  <use id="zoomminus" xlink:href="#zoomMin" x="42" y="9" onmousedown="handleZoom(evt,'out')"/>
  <use id="reset" xlink:href="#resetDef" x="30" y="36" onmousedown="handleReset()"/>
   <use id="arrowup" xlink:href="#arrowUp" x="0" y="0" onmousedown="handlePan(0,-1)"/>
  <use id="arrowright" xlink:href="#arrowRight" x="0" y="0" onmousedown="handlePan(1,0)"/>
  <use id="arrowdown" xlink:href="#arrowDown" x="0" y="0" onmousedown="handlePan(0,1)"/>
  <use id="arrowleft" xlink:href="#arrowLeft" x="0" y="0" onmousedown="handlePan(-1,0)"/>
</g>
<svg viewBox="0 0 15 15" width="100%" height="30px" preserveAspectRatio="xMaxYMin meet">
 <g id="arrow_out" transform="scale(0.3 0.3)">
  <a xlink:href="a00326_aa5f76920b7afacca0af45ca4d5cbd73b_icgraph_org.svg" target="_base">
   <rect id="button" ry="5" rx="5" y="6" x="6" height="38" width="38"
        fill="#f2f5e9" fill-opacity="0.5" stroke="#606060" stroke-width="1.0"/>
   <path id="arrow"
     d="M 11.500037,31.436501 C 11.940474,20.09759 22.043105,11.32322 32.158766,21.979434 L 37.068811,17.246167 C 37.068811,17.246167 37.088388,32 37.088388,32 L 22.160133,31.978069 C 22.160133,31.978069 26.997745,27.140456 26.997745,27.140456 C 18.528582,18.264221 13.291696,25.230495 11.500037,31.436501 z"
     style="fill:#404040;"/>
  </a>
 </g>
</svg>

<style type='text/css'>
<![CDATA[
[data-mouse-over-selected='false'] { opacity: 0.7; }
[data-mouse-over-selected='true']  { opacity: 1.0; }
]]>
</style>
<script type="application/ecmascript"><![CDATA[
document.addEventListener('DOMContentLoaded', (event) => {
  highlightEdges();
  highlightAdjacentNodes();
});
]]></script>
</svg>
