<?xml version="1.0" encoding="UTF-8" standalone="no"?>
<!DOCTYPE svg PUBLIC "-//W3C//DTD SVG 1.1//EN"
 "http://www.w3.org/Graphics/SVG/1.1/DTD/svg11.dtd">
<!-- Generated by graphviz version 14.1.2 (0)
 -->
<!-- Title: str_to_double Pages: 1 -->
<!--zoomable 362 -->

<svg id="main" version="1.1" xmlns="http://www.w3.org/2000/svg" xmlns:xlink="http://www.w3.org/1999/xlink" xml:space="preserve" onload="init(evt)">

<style type="text/css"><![CDATA[
.node, .edge {opacity: 0.7;}
.node.selected, .edge.selected {opacity: 1;}
.edge:hover path { stroke: red; }
.edge:hover polygon { stroke: red; fill: red; }
]]></style>

<defs>
  <circle id="rim" cx="0" cy="0" r="7"/>
  <circle id="rim2" cx="0" cy="0" r="3.5"/>
  <g id="zoomPlus">
    <use xlink:href="#rim" fill="#404040"><set attributeName="fill" to="#808080" begin="zoomplus.mouseover" end="zoomplus.mouseout"/></use>
    <path d="M-4,0h8M0,-4v8" fill="none" stroke="white" stroke-width="1.5" pointer-events="none"/>
  </g>
  <g id="zoomMin">
    <use xlink:href="#rim" fill="#404040"><set attributeName="fill" to="#808080" begin="zoomminus.mouseover" end="zoomminus.mouseout"/></use>
    <path d="M-4,0h8" fill="none" stroke="white" stroke-width="1.5" pointer-events="none"/>
  </g>
  <g id="arrowUp" transform="translate(30 24)">
    <use xlink:href="#rim"/>
    <path pointer-events="none" fill="none" stroke="white" stroke-width="1.5" d="M0,-3.0v7 M-2.5,-0.5L0,-3.0L2.5,-0.5"/>
  </g>
  <g id="arrowRight" transform="rotate(90) translate(36 -43)">
    <use xlink:href="#rim"/>
    <path pointer-events="none" fill="none" stroke="white" stroke-width="1.5" d="M0,-3.0v7 M-2.5,-0.5L0,-3.0L2.5,-0.5"/>
  </g>
  <g id="arrowDown" transform="rotate(180) translate(-30 -48)">
    <use xlink:href="#rim"/>
    <path pointer-events="none" fill="none" stroke="white" stroke-width="1.5" d="M0,-3.0v7 M-2.5,-0.5L0,-3.0L2.5,-0.5"/>
  </g>
  <g id="arrowLeft" transform="rotate(270) translate(-36 17)">
    <use xlink:href="#rim"/>
    <path pointer-events="none" fill="none" stroke="white" stroke-width="1.5" d="M0,-3.0v7 M-2.5,-0.5L0,-3.0L2.5,-0.5"/>
  </g>
  <g id="resetDef">
    <use xlink:href="#rim2" fill="#404040"><set attributeName="fill" to="#808080" begin="reset.mouseover" end="reset.mouseout"/></use>
  </g>
</defs>
<script type="application/ecmascript">
var viewWidth = 1493;
var viewHeight = 362;
var sectionId = 'dynsection-77';
</script>
<script type="application/ecmascript" xlink:href="../../svg.min.js"/>
<svg id="graph" class="graph">
<g id="viewport">
<title>str_to_double</title>
<!-- Node1 -->
<g id="Node000001" class="node">
<title>Node1</title>
<g id="a_Node000001"><a xlink:title="converts string to double">
<polygon fill="#999999" stroke="#666666" points="1484.5,-277.75 1402.5,-277.75 1402.5,-257 1484.5,-257 1484.5,-277.75"/>
<text xml:space="preserve" text-anchor="middle" x="1443.5" y="-264.25" font-family="Helvetica,sans-Serif" font-size="10.00">str_to_double</text>
</a>
</g>
</g>
<!-- Node2 -->
<g id="Node000002" class="node">
<title>Node2</title>
<g id="a_Node000002"><a xlink:href="../../d9/dd6/a00272.html#a5836f1ea8f972e3ca12e2772dc76fb32" target="_top" xlink:title="parse the configuration file specified in init&#45;&gt;minitrc and set Init struct values accordingly">
<polygon fill="white" stroke="#666666" points="1360.5,-325.75 1282.25,-325.75 1282.25,-305 1360.5,-305 1360.5,-325.75"/>
<text xml:space="preserve" text-anchor="middle" x="1321.38" y="-312.25" font-family="Helvetica,sans-Serif" font-size="10.00">parse_config</text>
</a>
</g>
</g>
<!-- Node1&#45;&gt;Node2 -->
<g id="edge1_Node000001_Node000002" class="edge">
<title>Node1&#45;&gt;Node2</title>
<g id="a_edge1_Node000001_Node000002"><a xlink:title=" ">
<path fill="none" stroke="#63b8ff" d="M1405.05,-282.34C1386.97,-289.56 1365.69,-298.07 1349.24,-304.64"/>
<polygon fill="#63b8ff" stroke="#63b8ff" points="1406.15,-285.67 1414.14,-278.71 1403.55,-279.17 1406.15,-285.67"/>
</a>
</g>
</g>
<!-- Node5 -->
<g id="Node000005" class="node">
<title>Node5</title>
<g id="a_Node000005"><a xlink:href="../../d9/dd6/a00272.html#a11b56c5001e3ca95f4d0a28903b29609" target="_top" xlink:title="Parse command&#45;line options and set Init struct values accordingly.">
<polygon fill="white" stroke="#666666" points="1366.5,-258.75 1276.25,-258.75 1276.25,-238 1366.5,-238 1366.5,-258.75"/>
<text xml:space="preserve" text-anchor="middle" x="1321.38" y="-245.25" font-family="Helvetica,sans-Serif" font-size="10.00">parse_opt_args</text>
</a>
</g>
</g>
<!-- Node1&#45;&gt;Node5 -->
<g id="edge4_Node000001_Node000005" class="edge">
<title>Node1&#45;&gt;Node5</title>
<g id="a_edge4_Node000001_Node000005"><a xlink:title=" ">
<path fill="none" stroke="#63b8ff" d="M1391.03,-259.23C1383.01,-257.97 1374.79,-256.67 1366.94,-255.42"/>
<polygon fill="#63b8ff" stroke="#63b8ff" points="1390.25,-262.65 1400.67,-260.76 1391.34,-255.74 1390.25,-262.65"/>
</a>
</g>
</g>
<!-- Node3 -->
<g id="Node000003" class="node">
<title>Node3</title>
<g id="a_Node000003"><a xlink:href="../../d9/dd6/a00272.html#accd65939c0ce6f0d940c5cf795a1e8fa" target="_top" xlink:title="Main initialization function for MAPP &#45; Menu Application.">
<polygon fill="white" stroke="#666666" points="1240.25,-353.75 1130.5,-353.75 1130.5,-333 1240.25,-333 1240.25,-353.75"/>
<text xml:space="preserve" text-anchor="middle" x="1185.38" y="-340.25" font-family="Helvetica,sans-Serif" font-size="10.00">mapp_initialization</text>
</a>
</g>
</g>
<!-- Node2&#45;&gt;Node3 -->
<g id="edge2_Node000002_Node000003" class="edge">
<title>Node2&#45;&gt;Node3</title>
<g id="a_edge2_Node000002_Node000003"><a xlink:title=" ">
<path fill="none" stroke="#63b8ff" d="M1270.77,-325.74C1260.17,-327.95 1248.95,-330.3 1238.27,-332.53"/>
<polygon fill="#63b8ff" stroke="#63b8ff" points="1271.42,-329.18 1280.49,-323.71 1269.99,-322.33 1271.42,-329.18"/>
</a>
</g>
</g>
<!-- Node4 -->
<g id="Node000004" class="node">
<title>Node4</title>
<g id="a_Node000004"><a xlink:href="../../d3/d07/a00305.html#a3c04138a5bfe5d72780bb7e82a18e627" target="_top" xlink:title=" ">
<polygon fill="white" stroke="#666666" points="1055.88,-353.75 1015.12,-353.75 1015.12,-333 1055.88,-333 1055.88,-353.75"/>
<text xml:space="preserve" text-anchor="middle" x="1035.5" y="-340.25" font-family="Helvetica,sans-Serif" font-size="10.00">main</text>
</a>
</g>
</g>
<!-- Node3&#45;&gt;Node4 -->
<g id="edge3_Node000003_Node000004" class="edge">
<title>Node3&#45;&gt;Node4</title>
<g id="a_edge3_Node000003_Node000004"><a xlink:title=" ">
<path fill="none" stroke="#63b8ff" d="M1118.75,-343.38C1096,-343.38 1072.19,-343.38 1056.07,-343.38"/>
<polygon fill="#63b8ff" stroke="#63b8ff" points="1118.64,-346.88 1128.64,-343.38 1118.64,-339.88 1118.64,-346.88"/>
</a>
</g>
</g>
<!-- Node5&#45;&gt;Node3 -->
<g id="edge33_Node000005_Node000003" class="edge">
<title>Node5&#45;&gt;Node3</title>
<g id="a_edge33_Node000005_Node000003"><a xlink:title=" ">
<path fill="none" stroke="#63b8ff" d="M1302.65,-266.99C1287.23,-282.45 1263.72,-304.26 1240.25,-319.38 1232.42,-324.42 1223.34,-328.91 1214.9,-332.6"/>
<polygon fill="#63b8ff" stroke="#63b8ff" points="1304.78,-269.82 1309.28,-260.23 1299.78,-264.92 1304.78,-269.82"/>
</a>
</g>
</g>
<!-- Node6 -->
<g id="Node000006" class="node">
<title>Node6</title>
<g id="a_Node000006"><a xlink:href="../../d0/d27/a00239.html#aeebc4c0b94ca97d753e10a0cd1798730" target="_top" xlink:title="Displays the help screen for the pick interface using mview.">
<polygon fill="white" stroke="#666666" points="757.75,-20.75 654.75,-20.75 654.75,0 757.75,0 757.75,-20.75"/>
<text xml:space="preserve" text-anchor="middle" x="706.25" y="-7.25" font-family="Helvetica,sans-Serif" font-size="10.00">display_pick_help</text>
</a>
</g>
</g>
<!-- Node5&#45;&gt;Node6 -->
<g id="edge5_Node000005_Node000006" class="edge">
<title>Node5&#45;&gt;Node6</title>
<g id="a_edge5_Node000005_Node000006"><a xlink:title=" ">
<path fill="none" stroke="#63b8ff" d="M1317.15,-226.37C1310.26,-187.34 1290.42,-105.93 1240.25,-61.38 1169.67,1.31 1130.9,-1.38 1036.5,-1.38 1036.5,-1.38 1036.5,-1.38 909.38,-1.38 857.74,-1.38 798.76,-4.34 757.89,-6.87"/>
<polygon fill="#63b8ff" stroke="#63b8ff" points="1313.68,-226.86 1318.74,-236.17 1320.59,-225.73 1313.68,-226.86"/>
</a>
</g>
</g>
<!-- Node11 -->
<g id="Node000011" class="node">
<title>Node11</title>
<g id="a_Node000011"><a xlink:href="../../d9/d39/a00257.html#aa5d0e30e7036b72b51c843d0a7e486a1" target="_top" xlink:title="Processes user input for the menu system.">
<polygon fill="white" stroke="#666666" points="317.25,-146.75 194.75,-146.75 194.75,-126 317.25,-126 317.25,-146.75"/>
<text xml:space="preserve" text-anchor="middle" x="256" y="-133.25" font-family="Helvetica,sans-Serif" font-size="10.00">menu_cmd_processor</text>
</a>
</g>
</g>
<!-- Node5&#45;&gt;Node11 -->
<g id="edge34_Node000005_Node000011" class="edge">
<title>Node5&#45;&gt;Node11</title>
<g id="a_edge34_Node000005_Node000011"><a xlink:title=" ">
<path fill="none" stroke="#63b8ff" d="M1292.2,-264.72C1277.26,-272.61 1258.29,-281.42 1240.25,-286.38 1152.55,-310.45 1127.45,-305.38 1036.5,-305.38 1036.5,-305.38 1036.5,-305.38 482.75,-305.38 376.76,-305.38 288.58,-184.5 263.89,-147.2"/>
<polygon fill="#63b8ff" stroke="#63b8ff" points="1293.88,-267.79 1300.98,-259.93 1290.53,-261.65 1293.88,-267.79"/>
</a>
</g>
</g>
<!-- Node14 -->
<g id="Node000014" class="node">
<title>Node14</title>
<g id="a_Node000014"><a xlink:href="../../dd/d52/a00221.html#a2ffea5674e85f124a70e19f745a66583" target="_top" xlink:title="use form to enter a file specification">
<polygon fill="white" stroke="#666666" points="1230.5,-277.75 1140.25,-277.75 1140.25,-257 1230.5,-257 1230.5,-277.75"/>
<text xml:space="preserve" text-anchor="middle" x="1185.38" y="-264.25" font-family="Helvetica,sans-Serif" font-size="10.00">enter_file_spec</text>
</a>
</g>
</g>
<!-- Node5&#45;&gt;Node14 -->
<g id="edge14_Node000005_Node000014" class="edge">
<title>Node5&#45;&gt;Node14</title>
<g id="a_edge14_Node000005_Node000014"><a xlink:title=" ">
<path fill="none" stroke="#63b8ff" d="M1264.66,-256.27C1253.37,-257.88 1241.64,-259.54 1230.8,-261.08"/>
<polygon fill="#63b8ff" stroke="#63b8ff" points="1264.85,-259.78 1274.26,-254.91 1263.86,-252.85 1264.85,-259.78"/>
</a>
</g>
</g>
<!-- Node19 -->
<g id="Node000019" class="node">
<title>Node19</title>
<g id="a_Node000019"><a xlink:href="../../d0/d27/a00239.html#af7fcbb1c8b67a4d11c86ba7209f397c2" target="_top" xlink:title="Executes specified command with selected objects as arguments.">
<polygon fill="white" stroke="#666666" points="746.12,-59.75 666.38,-59.75 666.38,-39 746.12,-39 746.12,-59.75"/>
<text xml:space="preserve" text-anchor="middle" x="706.25" y="-46.25" font-family="Helvetica,sans-Serif" font-size="10.00">exec_objects</text>
</a>
</g>
</g>
<!-- Node5&#45;&gt;Node19 -->
<g id="edge31_Node000005_Node000019" class="edge">
<title>Node5&#45;&gt;Node19</title>
<g id="a_edge31_Node000005_Node000019"><a xlink:title=" ">
<path fill="none" stroke="#63b8ff" d="M1307.18,-228.48C1270.8,-176.27 1163.3,-39.38 1036.5,-39.38 1036.5,-39.38 1036.5,-39.38 909.38,-39.38 852.63,-39.38 787.04,-43.35 746.35,-46.29"/>
<polygon fill="#63b8ff" stroke="#63b8ff" points="1304.11,-230.19 1312.64,-236.47 1309.89,-226.24 1304.11,-230.19"/>
</a>
</g>
</g>
<!-- Node20 -->
<g id="Node000020" class="node">
<title>Node20</title>
<g id="a_Node000020"><a xlink:href="../../d2/d04/a00281.html#ada302551bf41bf8ed6132fd34328a47e" target="_top" xlink:title="Form main processing loop.">
<polygon fill="white" stroke="#666666" points="745,-222.75 667.5,-222.75 667.5,-202 745,-202 745,-222.75"/>
<text xml:space="preserve" text-anchor="middle" x="706.25" y="-209.25" font-family="Helvetica,sans-Serif" font-size="10.00">form_engine</text>
</a>
</g>
</g>
<!-- Node5&#45;&gt;Node20 -->
<g id="edge32_Node000005_Node000020" class="edge">
<title>Node5&#45;&gt;Node20</title>
<g id="a_edge32_Node000005_Node000020"><a xlink:title=" ">
<path fill="none" stroke="#63b8ff" d="M1264.87,-242.46C1207.7,-236.88 1115.98,-229.38 1036.5,-229.38 1036.5,-229.38 1036.5,-229.38 909.38,-229.38 851.97,-229.38 785.73,-222.48 745.17,-217.48"/>
<polygon fill="#63b8ff" stroke="#63b8ff" points="1264.38,-245.93 1274.68,-243.43 1265.07,-238.96 1264.38,-245.93"/>
</a>
</g>
</g>
<!-- Node23 -->
<g id="Node000023" class="node">
<title>Node23</title>
<g id="a_Node000023"><a xlink:href="../../dd/d52/a00221.html#ad997ba9f8591568c77291fb1b44601b2" target="_top" xlink:title="Display View Help File.">
<polygon fill="white" stroke="#666666" points="759.25,-174.75 653.25,-174.75 653.25,-154 759.25,-154 759.25,-174.75"/>
<text xml:space="preserve" text-anchor="middle" x="706.25" y="-161.25" font-family="Helvetica,sans-Serif" font-size="10.00">view_display_help</text>
</a>
</g>
</g>
<!-- Node5&#45;&gt;Node23 -->
<g id="edge35_Node000005_Node000023" class="edge">
<title>Node5&#45;&gt;Node23</title>
<g id="a_edge35_Node000005_Node000023"><a xlink:title=" ">
<path fill="none" stroke="#63b8ff" d="M1292.13,-232.11C1242.25,-204.97 1134.55,-153.38 1036.5,-153.38 1036.5,-153.38 1036.5,-153.38 909.38,-153.38 858.42,-153.38 800.34,-156.9 759.56,-159.96"/>
<polygon fill="#63b8ff" stroke="#63b8ff" points="1290.38,-235.14 1300.83,-236.93 1293.78,-229.02 1290.38,-235.14"/>
</a>
</g>
</g>
<!-- Node7 -->
<g id="Node000007" class="node">
<title>Node7</title>
<g id="a_Node000007"><a xlink:href="../../d0/d27/a00239.html#abb0969a6d1c7e78be46c3b325754c802" target="_top" xlink:title="Main loop to handle user input and interactions for pick interface.">
<polygon fill="white" stroke="#666666" points="609.75,-21.75 564.5,-21.75 564.5,-1 609.75,-1 609.75,-21.75"/>
<text xml:space="preserve" text-anchor="middle" x="587.12" y="-8.25" font-family="Helvetica,sans-Serif" font-size="10.00">picker</text>
</a>
</g>
</g>
<!-- Node6&#45;&gt;Node7 -->
<g id="edge6_Node000006_Node000007" class="edge">
<title>Node6&#45;&gt;Node7</title>
<g id="a_edge6_Node000006_Node000007"><a xlink:title=" ">
<path fill="none" stroke="#63b8ff" d="M643.17,-10.91C631.29,-11.01 619.6,-11.11 610.07,-11.19"/>
<polygon fill="#63b8ff" stroke="#63b8ff" points="643.08,-14.41 653.04,-10.82 643.02,-7.41 643.08,-14.41"/>
</a>
</g>
</g>
<!-- Node8 -->
<g id="Node000008" class="node">
<title>Node8</title>
<g id="a_Node000008"><a xlink:href="../../d0/d27/a00239.html#ab97dcab41017c5132f52b682437a151e" target="_top" xlink:title="Initializes pick interface, calculates window size and position, and enters picker loop.">
<polygon fill="white" stroke="#666666" points="521,-59.75 446.5,-59.75 446.5,-39 521,-39 521,-59.75"/>
<text xml:space="preserve" text-anchor="middle" x="483.75" y="-46.25" font-family="Helvetica,sans-Serif" font-size="10.00">pick_engine</text>
</a>
</g>
</g>
<!-- Node7&#45;&gt;Node8 -->
<g id="edge7_Node000007_Node000008" class="edge">
<title>Node7&#45;&gt;Node8</title>
<g id="a_edge7_Node000007_Node000008"><a xlink:title=" ">
<path fill="none" stroke="#63b8ff" d="M553.42,-23.63C540.62,-28.43 526.05,-33.89 513.64,-38.55"/>
<polygon fill="#63b8ff" stroke="#63b8ff" points="554.58,-26.94 562.71,-20.15 552.12,-20.38 554.58,-26.94"/>
</a>
</g>
</g>
<!-- Node9 -->
<g id="Node000009" class="node">
<title>Node9</title>
<g id="a_Node000009"><a xlink:href="../../d0/d27/a00239.html#a1b2ee87543245e612c1710ea58930a17" target="_top" xlink:title="Initializes pick structure and opens pick input file or pipe.">
<polygon fill="white" stroke="#666666" points="410.5,-88.75 353.25,-88.75 353.25,-68 410.5,-68 410.5,-88.75"/>
<text xml:space="preserve" text-anchor="middle" x="381.88" y="-75.25" font-family="Helvetica,sans-Serif" font-size="10.00">init_pick</text>
</a>
</g>
</g>
<!-- Node8&#45;&gt;Node9 -->
<g id="edge8_Node000008_Node000009" class="edge">
<title>Node8&#45;&gt;Node9</title>
<g id="a_edge8_Node000008_Node000009"><a xlink:title=" ">
<path fill="none" stroke="#63b8ff" d="M435.23,-63.17C426.84,-65.61 418.35,-68.07 410.73,-70.29"/>
<polygon fill="#63b8ff" stroke="#63b8ff" points="436.05,-66.58 444.67,-60.43 434.09,-59.86 436.05,-66.58"/>
</a>
</g>
</g>
<!-- Node10 -->
<g id="Node000010" class="node">
<title>Node10</title>
<g id="a_Node000010"><a xlink:href="../../d2/dc8/a00242.html#a3c04138a5bfe5d72780bb7e82a18e627" target="_top" xlink:title=" ">
<polygon fill="white" stroke="#666666" points="276.38,-88.75 235.62,-88.75 235.62,-68 276.38,-68 276.38,-88.75"/>
<text xml:space="preserve" text-anchor="middle" x="256" y="-75.25" font-family="Helvetica,sans-Serif" font-size="10.00">main</text>
</a>
</g>
</g>
<!-- Node9&#45;&gt;Node10 -->
<g id="edge9_Node000009_Node000010" class="edge">
<title>Node9&#45;&gt;Node10</title>
<g id="a_edge9_Node000009_Node000010"><a xlink:title=" ">
<path fill="none" stroke="#63b8ff" d="M341.27,-78.38C319.64,-78.38 293.83,-78.38 276.52,-78.38"/>
<polygon fill="#63b8ff" stroke="#63b8ff" points="341.25,-81.88 351.25,-78.38 341.25,-74.88 341.25,-81.88"/>
</a>
</g>
</g>
<!-- Node9&#45;&gt;Node11 -->
<g id="edge10_Node000009_Node000011" class="edge">
<title>Node9&#45;&gt;Node11</title>
<g id="a_edge10_Node000009_Node000011"><a xlink:title=" ">
<path fill="none" stroke="#63b8ff" d="M347.58,-93.96C326.16,-103.99 298.88,-116.76 279.89,-125.66"/>
<polygon fill="#63b8ff" stroke="#63b8ff" points="348.92,-97.2 356.49,-89.79 345.95,-90.86 348.92,-97.2"/>
</a>
</g>
</g>
<!-- Node12 -->
<g id="Node000012" class="node">
<title>Node12</title>
<g id="a_Node000012"><a xlink:href="../../d9/d39/a00257.html#a7d7973d7aac92759dcc86ec52bb038f4" target="_top" xlink:title="The main loop of the menu system.">
<polygon fill="white" stroke="#666666" points="158.75,-146.75 76.75,-146.75 76.75,-126 158.75,-126 158.75,-146.75"/>
<text xml:space="preserve" text-anchor="middle" x="117.75" y="-133.25" font-family="Helvetica,sans-Serif" font-size="10.00">menu_engine</text>
</a>
</g>
</g>
<!-- Node11&#45;&gt;Node12 -->
<g id="edge11_Node000011_Node000012" class="edge">
<title>Node11&#45;&gt;Node12</title>
<g id="a_edge11_Node000011_Node000012"><a xlink:title=" ">
<path fill="none" stroke="#63b8ff" d="M183.2,-129.63C174.96,-129.67 166.79,-129.84 159.17,-130.15"/>
<polygon fill="#63b8ff" stroke="#63b8ff" points="182.92,-133.13 192.93,-129.66 182.94,-126.13 182.92,-133.13"/>
</a>
</g>
</g>
<!-- Node12&#45;&gt;Node11 -->
<g id="edge13_Node000012_Node000011" class="edge">
<title>Node12&#45;&gt;Node11</title>
<g id="a_edge13_Node000012_Node000011"><a xlink:title=" ">
<path fill="none" stroke="#63b8ff" d="M170.68,-142.95C178.45,-143.12 186.52,-143.17 194.45,-143.09"/>
<polygon fill="#63b8ff" stroke="#63b8ff" points="170.79,-139.45 160.69,-142.65 170.58,-146.45 170.79,-139.45"/>
</a>
</g>
</g>
<!-- Node13 -->
<g id="Node000013" class="node">
<title>Node13</title>
<g id="a_Node000013"><a xlink:href="../../dd/dd7/a00260.html#a3c04138a5bfe5d72780bb7e82a18e627" target="_top" xlink:title=" ">
<polygon fill="white" stroke="#666666" points="40.75,-146.75 0,-146.75 0,-126 40.75,-126 40.75,-146.75"/>
<text xml:space="preserve" text-anchor="middle" x="20.38" y="-133.25" font-family="Helvetica,sans-Serif" font-size="10.00">main</text>
</a>
</g>
</g>
<!-- Node12&#45;&gt;Node13 -->
<g id="edge12_Node000012_Node000013" class="edge">
<title>Node12&#45;&gt;Node13</title>
<g id="a_edge12_Node000012_Node000013"><a xlink:title=" ">
<path fill="none" stroke="#63b8ff" d="M64.79,-136.38C56.36,-136.38 48.1,-136.38 41.09,-136.38"/>
<polygon fill="#63b8ff" stroke="#63b8ff" points="64.79,-139.88 74.79,-136.38 64.79,-132.88 64.79,-139.88"/>
</a>
</g>
</g>
<!-- Node15 -->
<g id="Node000015" class="node">
<title>Node15</title>
<g id="a_Node000015"><a xlink:href="../../dd/d52/a00221.html#a9c4b3ba5f73c18b486646c62b933972a" target="_top" xlink:title="Main Command Processing Loop for View.">
<polygon fill="white" stroke="#666666" points="1094.5,-201.75 976.5,-201.75 976.5,-181 1094.5,-181 1094.5,-201.75"/>
<text xml:space="preserve" text-anchor="middle" x="1035.5" y="-188.25" font-family="Helvetica,sans-Serif" font-size="10.00">view_cmd_processor</text>
</a>
</g>
</g>
<!-- Node14&#45;&gt;Node15 -->
<g id="edge15_Node000014_Node000015" class="edge">
<title>Node14&#45;&gt;Node15</title>
<g id="a_edge15_Node000014_Node000015"><a xlink:title=" ">
<path fill="none" stroke="#63b8ff" d="M1153.53,-251.52C1124.66,-236.68 1082.32,-214.92 1057.27,-202.05"/>
<polygon fill="#63b8ff" stroke="#63b8ff" points="1151.66,-254.5 1162.16,-255.96 1154.86,-248.27 1151.66,-254.5"/>
</a>
</g>
</g>
<!-- Node16 -->
<g id="Node000016" class="node">
<title>Node16</title>
<g id="a_Node000016"><a xlink:href="../../dd/d52/a00221.html#a0bd4dc056ab5010547129bb87819789b" target="_top" xlink:title="Start view.">
<polygon fill="white" stroke="#666666" points="940.5,-125.75 880.25,-125.75 880.25,-105 940.5,-105 940.5,-125.75"/>
<text xml:space="preserve" text-anchor="middle" x="910.38" y="-112.25" font-family="Helvetica,sans-Serif" font-size="10.00">view_file</text>
</a>
</g>
</g>
<!-- Node15&#45;&gt;Node16 -->
<g id="edge16_Node000015_Node000016" class="edge">
<title>Node15&#45;&gt;Node16</title>
<g id="a_edge16_Node000015_Node000016"><a xlink:title=" ">
<path fill="none" stroke="#63b8ff" d="M1007.54,-174.74C983.55,-159.92 949.16,-138.7 928.67,-126.05"/>
<polygon fill="#63b8ff" stroke="#63b8ff" points="1005.48,-177.58 1015.83,-179.85 1009.16,-171.62 1005.48,-177.58"/>
</a>
</g>
</g>
<!-- Node17 -->
<g id="Node000017" class="node">
<title>Node17</title>
<g id="a_Node000017"><a xlink:href="../../d5/ddf/a00224.html#a3c04138a5bfe5d72780bb7e82a18e627" target="_top" xlink:title=" ">
<polygon fill="white" stroke="#666666" points="726.62,-98.75 685.88,-98.75 685.88,-78 726.62,-78 726.62,-98.75"/>
<text xml:space="preserve" text-anchor="middle" x="706.25" y="-85.25" font-family="Helvetica,sans-Serif" font-size="10.00">main</text>
</a>
</g>
</g>
<!-- Node16&#45;&gt;Node17 -->
<g id="edge17_Node000016_Node000017" class="edge">
<title>Node16&#45;&gt;Node17</title>
<g id="a_edge17_Node000016_Node000017"><a xlink:title=" ">
<path fill="none" stroke="#63b8ff" d="M868.83,-102.02C860.76,-99.8 852.3,-97.77 844.25,-96.38 802.93,-89.24 753.67,-88.13 726.92,-88.14"/>
<polygon fill="#63b8ff" stroke="#63b8ff" points="867.85,-105.38 878.43,-104.82 869.81,-98.66 867.85,-105.38"/>
</a>
</g>
</g>
<!-- Node18 -->
<g id="Node000018" class="node">
<title>Node18</title>
<g id="a_Node000018"><a xlink:href="../../d7/d03/a00254.html#a75a4e7afc9c9aafd3d35ab706f5fdc71" target="_top" xlink:title="subprogram entry point for C&#45;Menu View">
<polygon fill="white" stroke="#666666" points="844.25,-125.75 795.25,-125.75 795.25,-105 844.25,-105 844.25,-125.75"/>
<text xml:space="preserve" text-anchor="middle" x="819.75" y="-112.25" font-family="Helvetica,sans-Serif" font-size="10.00">mview</text>
</a>
</g>
</g>
<!-- Node16&#45;&gt;Node18 -->
<g id="edge18_Node000016_Node000018" class="edge">
<title>Node16&#45;&gt;Node18</title>
<g id="a_edge18_Node000016_Node000018"><a xlink:title=" ">
<path fill="none" stroke="#63b8ff" d="M868.49,-115.38C860.29,-115.38 851.92,-115.38 844.54,-115.38"/>
<polygon fill="#63b8ff" stroke="#63b8ff" points="868.35,-118.88 878.35,-115.38 868.35,-111.88 868.35,-118.88"/>
</a>
</g>
</g>
<!-- Node18&#45;&gt;Node6 -->
<g id="edge19_Node000018_Node000006" class="edge">
<title>Node18&#45;&gt;Node6</title>
<g id="a_edge19_Node000018_Node000006"><a xlink:title=" ">
<path fill="none" stroke="#63b8ff" d="M808.8,-94.64C798.71,-75.58 781.43,-47.72 759.25,-30.38 754.6,-26.74 749.22,-23.7 743.71,-21.18"/>
<polygon fill="#63b8ff" stroke="#63b8ff" points="805.57,-96.01 813.21,-103.35 811.82,-92.85 805.57,-96.01"/>
</a>
</g>
</g>
<!-- Node18&#45;&gt;Node11 -->
<g id="edge28_Node000018_Node000011" class="edge">
<title>Node18&#45;&gt;Node11</title>
<g id="a_edge28_Node000018_Node000011"><a xlink:title=" ">
<path fill="none" stroke="#63b8ff" d="M783.64,-118.09C738.45,-121.35 657.49,-126.38 588.12,-126.38 588.12,-126.38 588.12,-126.38 482.75,-126.38 426.65,-126.38 362.78,-129.5 317.33,-132.25"/>
<polygon fill="#63b8ff" stroke="#63b8ff" points="783.64,-121.6 793.35,-117.38 783.12,-114.62 783.64,-121.6"/>
</a>
</g>
</g>
<!-- Node18&#45;&gt;Node17 -->
<g id="edge27_Node000018_Node000017" class="edge">
<title>Node18&#45;&gt;Node17</title>
<g id="a_edge27_Node000018_Node000017"><a xlink:title=" ">
<path fill="none" stroke="#63b8ff" d="M783.75,-106.9C765.06,-102.37 742.73,-96.97 727.04,-93.17"/>
<polygon fill="#63b8ff" stroke="#63b8ff" points="782.82,-110.27 793.36,-109.23 784.46,-103.47 782.82,-110.27"/>
</a>
</g>
</g>
<!-- Node18&#45;&gt;Node19 -->
<g id="edge20_Node000018_Node000019" class="edge">
<title>Node18&#45;&gt;Node19</title>
<g id="a_edge20_Node000018_Node000019"><a xlink:title=" ">
<path fill="none" stroke="#63b8ff" d="M798.71,-97.5C787.63,-88.26 773.3,-77.28 759.25,-69.38 753.18,-65.96 746.41,-62.88 739.82,-60.22"/>
<polygon fill="#63b8ff" stroke="#63b8ff" points="796.15,-99.92 806.02,-103.78 800.71,-94.61 796.15,-99.92"/>
</a>
</g>
</g>
<!-- Node18&#45;&gt;Node20 -->
<g id="edge22_Node000018_Node000020" class="edge">
<title>Node18&#45;&gt;Node20</title>
<g id="a_edge22_Node000018_Node000020"><a xlink:title=" ">
<path fill="none" stroke="#63b8ff" d="M804.4,-135.18C793.21,-149.7 776.69,-169.26 759.25,-183.38 750.57,-190.4 739.96,-196.66 730.59,-201.55"/>
<polygon fill="#63b8ff" stroke="#63b8ff" points="807.13,-137.37 810.33,-127.27 801.53,-133.17 807.13,-137.37"/>
</a>
</g>
</g>
<!-- Node18&#45;&gt;Node23 -->
<g id="edge29_Node000018_Node000023" class="edge">
<title>Node18&#45;&gt;Node23</title>
<g id="a_edge29_Node000018_Node000023"><a xlink:title=" ">
<path fill="none" stroke="#63b8ff" d="M784.71,-130.34C767.67,-137.82 747.42,-146.72 731.9,-153.54"/>
<polygon fill="#63b8ff" stroke="#63b8ff" points="785.7,-133.72 793.44,-126.5 782.88,-127.31 785.7,-133.72"/>
</a>
</g>
</g>
<!-- Node19&#45;&gt;Node8 -->
<g id="edge21_Node000019_Node000008" class="edge">
<title>Node19&#45;&gt;Node8</title>
<g id="a_edge21_Node000019_Node000008"><a xlink:title=" ">
<path fill="none" stroke="#63b8ff" d="M654.79,-49.38C614.09,-49.38 557.82,-49.38 521.35,-49.38"/>
<polygon fill="#63b8ff" stroke="#63b8ff" points="654.57,-52.88 664.57,-49.38 654.57,-45.88 654.57,-52.88"/>
</a>
</g>
</g>
<!-- Node21 -->
<g id="Node000021" class="node">
<title>Node21</title>
<g id="a_Node000021"><a xlink:href="../../d2/d04/a00281.html#abf1be20a8aad5f7ba09172ac1434a110" target="_top" xlink:title="Initialize form data structure and parse description file.">
<polygon fill="white" stroke="#666666" points="617.25,-222.75 557,-222.75 557,-202 617.25,-202 617.25,-222.75"/>
<text xml:space="preserve" text-anchor="middle" x="587.12" y="-209.25" font-family="Helvetica,sans-Serif" font-size="10.00">init_form</text>
</a>
</g>
</g>
<!-- Node20&#45;&gt;Node21 -->
<g id="edge23_Node000020_Node000021" class="edge">
<title>Node20&#45;&gt;Node21</title>
<g id="a_edge23_Node000020_Node000021"><a xlink:title=" ">
<path fill="none" stroke="#63b8ff" d="M655.94,-212.38C642.83,-212.38 629.09,-212.38 617.43,-212.38"/>
<polygon fill="#63b8ff" stroke="#63b8ff" points="655.71,-215.88 665.71,-212.38 655.71,-208.88 655.71,-215.88"/>
</a>
</g>
</g>
<!-- Node21&#45;&gt;Node11 -->
<g id="edge26_Node000021_Node000011" class="edge">
<title>Node21&#45;&gt;Node11</title>
<g id="a_edge26_Node000021_Node000011"><a xlink:title=" ">
<path fill="none" stroke="#63b8ff" d="M545.39,-208.54C517.38,-205.48 479.45,-200.53 446.5,-193.38 389.42,-180.99 324.59,-159.92 287.47,-147.16"/>
<polygon fill="#63b8ff" stroke="#63b8ff" points="544.93,-212.01 555.24,-209.57 545.66,-205.05 544.93,-212.01"/>
</a>
</g>
</g>
<!-- Node21&#45;&gt;Node14 -->
<g id="edge24_Node000021_Node000014" class="edge">
<title>Node21&#45;&gt;Node14</title>
<g id="a_edge24_Node000021_Node000014"><a xlink:title=" ">
<path fill="none" stroke="#63b8ff" d="M626.06,-227.2C671.24,-243.49 749.31,-267.38 818.75,-267.38 911.38,-267.38 911.38,-267.38 911.38,-267.38 991.95,-267.38 1085.9,-267.38 1139.93,-267.38"/>
<polygon fill="#63b8ff" stroke="#63b8ff" points="627.33,-223.94 616.73,-223.76 624.91,-230.5 627.33,-223.94"/>
</a>
</g>
</g>
<!-- Node22 -->
<g id="Node000022" class="node">
<title>Node22</title>
<g id="a_Node000022"><a xlink:href="../../db/dc3/a00284.html#a3c04138a5bfe5d72780bb7e82a18e627" target="_top" xlink:title=" ">
<polygon fill="white" stroke="#666666" points="504.12,-184.75 463.38,-184.75 463.38,-164 504.12,-164 504.12,-184.75"/>
<text xml:space="preserve" text-anchor="middle" x="483.75" y="-171.25" font-family="Helvetica,sans-Serif" font-size="10.00">main</text>
</a>
</g>
</g>
<!-- Node21&#45;&gt;Node22 -->
<g id="edge25_Node000021_Node000022" class="edge">
<title>Node21&#45;&gt;Node22</title>
<g id="a_edge25_Node000021_Node000022"><a xlink:title=" ">
<path fill="none" stroke="#63b8ff" d="M546.66,-197.58C532.25,-192.18 516.57,-186.3 504.6,-181.81"/>
<polygon fill="#63b8ff" stroke="#63b8ff" points="545.34,-200.82 555.93,-201.06 547.79,-194.27 545.34,-200.82"/>
</a>
</g>
</g>
<!-- Node23&#45;&gt;Node15 -->
<g id="edge30_Node000023_Node000015" class="edge">
<title>Node23&#45;&gt;Node15</title>
<g id="a_edge30_Node000023_Node000015"><a xlink:title=" ">
<path fill="none" stroke="#63b8ff" d="M770.85,-169.62C830.41,-174.54 918.65,-181.82 976.37,-186.58"/>
<polygon fill="#63b8ff" stroke="#63b8ff" points="771.47,-166.16 761.21,-168.83 770.89,-173.14 771.47,-166.16"/>
</a>
</g>
</g>
</g>
</svg>

<g id="navigator" transform="translate(0 0)" fill="#404254">
  <rect fill="#f2f5e9" fill-opacity="0.5" stroke="#606060" stroke-width=".5" x="0" y="0" width="60" height="60"/>
  <use id="zoomplus" xlink:href="#zoomPlus" x="17" y="9" onmousedown="handleZoom(evt,'in')"/>
  <use id="zoomminus" xlink:href="#zoomMin" x="42" y="9" onmousedown="handleZoom(evt,'out')"/>
  <use id="reset" xlink:href="#resetDef" x="30" y="36" onmousedown="handleReset()"/>
   <use id="arrowup" xlink:href="#arrowUp" x="0" y="0" onmousedown="handlePan(0,-1)"/>
  <use id="arrowright" xlink:href="#arrowRight" x="0" y="0" onmousedown="handlePan(1,0)"/>
  <use id="arrowdown" xlink:href="#arrowDown" x="0" y="0" onmousedown="handlePan(0,1)"/>
  <use id="arrowleft" xlink:href="#arrowLeft" x="0" y="0" onmousedown="handlePan(-1,0)"/>
</g>
<svg viewBox="0 0 15 15" width="100%" height="30px" preserveAspectRatio="xMaxYMin meet">
 <g id="arrow_out" transform="scale(0.3 0.3)">
  <a xlink:href="a00326_ab6ac7677d633b67a684fc27e4a3e1a73_icgraph_org.svg" target="_base">
   <rect id="button" ry="5" rx="5" y="6" x="6" height="38" width="38"
        fill="#f2f5e9" fill-opacity="0.5" stroke="#606060" stroke-width="1.0"/>
   <path id="arrow"
     d="M 11.500037,31.436501 C 11.940474,20.09759 22.043105,11.32322 32.158766,21.979434 L 37.068811,17.246167 C 37.068811,17.246167 37.088388,32 37.088388,32 L 22.160133,31.978069 C 22.160133,31.978069 26.997745,27.140456 26.997745,27.140456 C 18.528582,18.264221 13.291696,25.230495 11.500037,31.436501 z"
     style="fill:#404040;"/>
  </a>
 </g>
</svg>

<style type='text/css'>
<![CDATA[
[data-mouse-over-selected='false'] { opacity: 0.7; }
[data-mouse-over-selected='true']  { opacity: 1.0; }
]]>
</style>
<script type="application/ecmascript"><![CDATA[
document.addEventListener('DOMContentLoaded', (event) => {
  highlightEdges();
  highlightAdjacentNodes();
});
]]></script>
</svg>
