<?xml version="1.0" encoding="UTF-8" standalone="no"?>
<!DOCTYPE svg PUBLIC "-//W3C//DTD SVG 1.1//EN"
 "http://www.w3.org/Graphics/SVG/1.1/DTD/svg11.dtd">
<!-- Generated by graphviz version 14.1.2 (0)
 -->
<!-- Title: apply_gamma Pages: 1 -->
<!--zoomable 439 -->

<svg id="main" version="1.1" xmlns="http://www.w3.org/2000/svg" xmlns:xlink="http://www.w3.org/1999/xlink" xml:space="preserve" onload="init(evt)">

<style type="text/css"><![CDATA[
.node, .edge {opacity: 0.7;}
.node.selected, .edge.selected {opacity: 1;}
.edge:hover path { stroke: red; }
.edge:hover polygon { stroke: red; fill: red; }
]]></style>

<defs>
  <circle id="rim" cx="0" cy="0" r="7"/>
  <circle id="rim2" cx="0" cy="0" r="3.5"/>
  <g id="zoomPlus">
    <use xlink:href="#rim" fill="#404040"><set attributeName="fill" to="#808080" begin="zoomplus.mouseover" end="zoomplus.mouseout"/></use>
    <path d="M-4,0h8M0,-4v8" fill="none" stroke="white" stroke-width="1.5" pointer-events="none"/>
  </g>
  <g id="zoomMin">
    <use xlink:href="#rim" fill="#404040"><set attributeName="fill" to="#808080" begin="zoomminus.mouseover" end="zoomminus.mouseout"/></use>
    <path d="M-4,0h8" fill="none" stroke="white" stroke-width="1.5" pointer-events="none"/>
  </g>
  <g id="arrowUp" transform="translate(30 24)">
    <use xlink:href="#rim"/>
    <path pointer-events="none" fill="none" stroke="white" stroke-width="1.5" d="M0,-3.0v7 M-2.5,-0.5L0,-3.0L2.5,-0.5"/>
  </g>
  <g id="arrowRight" transform="rotate(90) translate(36 -43)">
    <use xlink:href="#rim"/>
    <path pointer-events="none" fill="none" stroke="white" stroke-width="1.5" d="M0,-3.0v7 M-2.5,-0.5L0,-3.0L2.5,-0.5"/>
  </g>
  <g id="arrowDown" transform="rotate(180) translate(-30 -48)">
    <use xlink:href="#rim"/>
    <path pointer-events="none" fill="none" stroke="white" stroke-width="1.5" d="M0,-3.0v7 M-2.5,-0.5L0,-3.0L2.5,-0.5"/>
  </g>
  <g id="arrowLeft" transform="rotate(270) translate(-36 17)">
    <use xlink:href="#rim"/>
    <path pointer-events="none" fill="none" stroke="white" stroke-width="1.5" d="M0,-3.0v7 M-2.5,-0.5L0,-3.0L2.5,-0.5"/>
  </g>
  <g id="resetDef">
    <use xlink:href="#rim2" fill="#404040"><set attributeName="fill" to="#808080" begin="reset.mouseover" end="reset.mouseout"/></use>
  </g>
</defs>
<script type="application/ecmascript">
var viewWidth = 2045;
var viewHeight = 439;
var sectionId = 'dynsection-4';
</script>
<script type="application/ecmascript" xlink:href="../../svg.min.js"/>
<svg id="graph" class="graph">
<g id="viewport">
<title>apply_gamma</title>
<!-- Node1 -->
<g id="Node000001" class="node">
<title>Node1</title>
<g id="a_Node000001"><a xlink:title="Apply gamma correction to RGB color.">
<polygon fill="#999999" stroke="#666666" points="2036.75,-354.75 1951,-354.75 1951,-334 2036.75,-334 2036.75,-354.75"/>
<text xml:space="preserve" text-anchor="middle" x="1993.88" y="-341.25" font-family="Helvetica,sans-Serif" font-size="10.00">apply_gamma</text>
</a>
</g>
</g>
<!-- Node2 -->
<g id="Node000002" class="node">
<title>Node2</title>
<g id="a_Node000002"><a xlink:href="../../df/d95/a00299.html#a61af7829a5d63d766e76930a0893d574" target="_top" xlink:title="Initialize extended ncurses color from HTML style hex string.">
<polygon fill="white" stroke="#666666" points="1900.75,-374.75 1828.5,-374.75 1828.5,-354 1900.75,-354 1900.75,-374.75"/>
<text xml:space="preserve" text-anchor="middle" x="1864.62" y="-361.25" font-family="Helvetica,sans-Serif" font-size="10.00">init_hex_clr</text>
</a>
</g>
</g>
<!-- Node1&#45;&gt;Node2 -->
<g id="edge1_Node000001_Node000002" class="edge">
<title>Node1&#45;&gt;Node2</title>
<g id="a_edge1_Node000001_Node000002"><a xlink:title=" ">
<path fill="none" stroke="#63b8ff" d="M1939.34,-352.79C1926.4,-354.82 1912.89,-356.95 1901.02,-358.81"/>
<polygon fill="#63b8ff" stroke="#63b8ff" points="1939.67,-356.28 1949.01,-351.27 1938.59,-349.36 1939.67,-356.28"/>
</a>
</g>
</g>
<!-- Node6 -->
<g id="Node000006" class="node">
<title>Node6</title>
<g id="a_Node000006"><a xlink:href="../../df/d95/a00299.html#a4900dd34e828972e58b0ca549cf7d4d8" target="_top" xlink:title="Get color index for RGB color.">
<polygon fill="white" stroke="#666666" points="1915,-335.75 1814.25,-335.75 1814.25,-315 1915,-315 1915,-335.75"/>
<text xml:space="preserve" text-anchor="middle" x="1864.62" y="-322.25" font-family="Helvetica,sans-Serif" font-size="10.00">rgb_to_curses_clr</text>
</a>
</g>
</g>
<!-- Node1&#45;&gt;Node6 -->
<g id="edge5_Node000001_Node000006" class="edge">
<title>Node1&#45;&gt;Node6</title>
<g id="a_edge5_Node000001_Node000006"><a xlink:title=" ">
<path fill="none" stroke="#63b8ff" d="M1939.13,-336.35C1931.23,-335.17 1923.12,-333.96 1915.31,-332.79"/>
<polygon fill="#63b8ff" stroke="#63b8ff" points="1938.6,-339.81 1949.01,-337.82 1939.63,-332.89 1938.6,-339.81"/>
</a>
</g>
</g>
<!-- Node3 -->
<g id="Node000003" class="node">
<title>Node3</title>
<g id="a_Node000003"><a xlink:href="../../df/d95/a00299.html#a81bb6f1f6fcbd25e272e2ba301bec52f" target="_top" xlink:title="Initialize color palette based on SIO settings.">
<polygon fill="white" stroke="#666666" points="1778.25,-374.75 1689.5,-374.75 1689.5,-354 1778.25,-354 1778.25,-374.75"/>
<text xml:space="preserve" text-anchor="middle" x="1733.88" y="-361.25" font-family="Helvetica,sans-Serif" font-size="10.00">init_clr_palette</text>
</a>
</g>
</g>
<!-- Node2&#45;&gt;Node3 -->
<g id="edge2_Node000002_Node000003" class="edge">
<title>Node2&#45;&gt;Node3</title>
<g id="a_edge2_Node000002_Node000003"><a xlink:title=" ">
<path fill="none" stroke="#63b8ff" d="M1816.93,-364.38C1804.4,-364.38 1790.9,-364.38 1778.54,-364.38"/>
<polygon fill="#63b8ff" stroke="#63b8ff" points="1816.59,-367.88 1826.59,-364.38 1816.59,-360.88 1816.59,-367.88"/>
</a>
</g>
</g>
<!-- Node4 -->
<g id="Node000004" class="node">
<title>Node4</title>
<g id="a_Node000004"><a xlink:href="../../df/d95/a00299.html#a02c9f554eaa3f1d6599e75838da3cee6" target="_top" xlink:title="Initialize NCurses and color settings.">
<polygon fill="white" stroke="#666666" points="1653.5,-402.75 1576.75,-402.75 1576.75,-382 1653.5,-382 1653.5,-402.75"/>
<text xml:space="preserve" text-anchor="middle" x="1615.12" y="-389.25" font-family="Helvetica,sans-Serif" font-size="10.00">open_curses</text>
</a>
</g>
</g>
<!-- Node3&#45;&gt;Node4 -->
<g id="edge3_Node000003_Node000004" class="edge">
<title>Node3&#45;&gt;Node4</title>
<g id="a_edge3_Node000003_Node000004"><a xlink:title=" ">
<path fill="none" stroke="#63b8ff" d="M1677.97,-377.54C1669.74,-379.52 1661.42,-381.51 1653.67,-383.37"/>
<polygon fill="#63b8ff" stroke="#63b8ff" points="1678.69,-380.97 1687.6,-375.23 1677.06,-374.16 1678.69,-380.97"/>
</a>
</g>
</g>
<!-- Node5 -->
<g id="Node000005" class="node">
<title>Node5</title>
<g id="a_Node000005"><a xlink:href="../../d3/d07/a00305.html#a3c04138a5bfe5d72780bb7e82a18e627" target="_top" xlink:title=" ">
<polygon fill="white" stroke="#666666" points="1511.5,-430.75 1470.75,-430.75 1470.75,-410 1511.5,-410 1511.5,-430.75"/>
<text xml:space="preserve" text-anchor="middle" x="1491.12" y="-417.25" font-family="Helvetica,sans-Serif" font-size="10.00">main</text>
</a>
</g>
</g>
<!-- Node4&#45;&gt;Node5 -->
<g id="edge4_Node000004_Node000005" class="edge">
<title>Node4&#45;&gt;Node5</title>
<g id="a_edge4_Node000004_Node000005"><a xlink:title=" ">
<path fill="none" stroke="#63b8ff" d="M1565.41,-403.56C1546.62,-407.87 1526.21,-412.55 1511.71,-415.88"/>
<polygon fill="#63b8ff" stroke="#63b8ff" points="1566.09,-406.99 1575.05,-401.34 1564.52,-400.17 1566.09,-406.99"/>
</a>
</g>
</g>
<!-- Node7 -->
<g id="Node000007" class="node">
<title>Node7</title>
<g id="a_Node000007"><a xlink:href="../../dd/d52/a00221.html#a9fc984ba8ce6c4059b33a915d526357f" target="_top" xlink:title="Parse ANSI SGR Escape Sequence.">
<polygon fill="white" stroke="#666666" points="1777.12,-335.75 1690.62,-335.75 1690.62,-315 1777.12,-315 1777.12,-335.75"/>
<text xml:space="preserve" text-anchor="middle" x="1733.88" y="-322.25" font-family="Helvetica,sans-Serif" font-size="10.00">parse_ansi_str</text>
</a>
</g>
</g>
<!-- Node6&#45;&gt;Node7 -->
<g id="edge6_Node000006_Node000007" class="edge">
<title>Node6&#45;&gt;Node7</title>
<g id="a_edge6_Node000006_Node000007"><a xlink:title=" ">
<path fill="none" stroke="#63b8ff" d="M1802.41,-325.38C1793.96,-325.38 1785.43,-325.38 1777.41,-325.38"/>
<polygon fill="#63b8ff" stroke="#63b8ff" points="1802.33,-328.88 1812.33,-325.38 1802.33,-321.88 1802.33,-328.88"/>
</a>
</g>
</g>
<!-- Node8 -->
<g id="Node000008" class="node">
<title>Node8</title>
<g id="a_Node000008"><a xlink:href="../../dd/d52/a00221.html#a747411d59b020ad11d4567ab0b3db8c2" target="_top" xlink:title="Format Line for Display.">
<polygon fill="white" stroke="#666666" points="1643.38,-335.75 1586.88,-335.75 1586.88,-315 1643.38,-315 1643.38,-335.75"/>
<text xml:space="preserve" text-anchor="middle" x="1615.12" y="-322.25" font-family="Helvetica,sans-Serif" font-size="10.00">fmt_line</text>
</a>
</g>
</g>
<!-- Node7&#45;&gt;Node8 -->
<g id="edge7_Node000007_Node000008" class="edge">
<title>Node7&#45;&gt;Node8</title>
<g id="a_edge7_Node000007_Node000008"><a xlink:title=" ">
<path fill="none" stroke="#63b8ff" d="M1678.9,-325.38C1666.77,-325.38 1654.37,-325.38 1643.84,-325.38"/>
<polygon fill="#63b8ff" stroke="#63b8ff" points="1678.88,-328.88 1688.88,-325.38 1678.88,-321.88 1678.88,-328.88"/>
</a>
</g>
</g>
<!-- Node9 -->
<g id="Node000009" class="node">
<title>Node9</title>
<g id="a_Node000009"><a xlink:href="../../dd/d52/a00221.html#acf1bfbd6d2fd4ad9a0385009ef25015c" target="_top" xlink:title="Advance to Next Page.">
<polygon fill="white" stroke="#666666" points="1524.62,-174.75 1457.62,-174.75 1457.62,-154 1524.62,-154 1524.62,-174.75"/>
<text xml:space="preserve" text-anchor="middle" x="1491.12" y="-161.25" font-family="Helvetica,sans-Serif" font-size="10.00">next_page</text>
</a>
</g>
</g>
<!-- Node8&#45;&gt;Node9 -->
<g id="edge8_Node000008_Node000009" class="edge">
<title>Node8&#45;&gt;Node9</title>
<g id="a_edge8_Node000008_Node000009"><a xlink:title=" ">
<path fill="none" stroke="#63b8ff" d="M1599.05,-305.48C1573.02,-271.13 1520.47,-201.79 1500.28,-175.14"/>
<polygon fill="#63b8ff" stroke="#63b8ff" points="1596.19,-307.5 1605.02,-313.36 1601.77,-303.27 1596.19,-307.5"/>
</a>
</g>
</g>
<!-- Node34 -->
<g id="Node000034" class="node">
<title>Node34</title>
<g id="a_Node000034"><a xlink:href="../../dd/d52/a00221.html#a3559e8fbca0e5aa0df7e56cde3a504da" target="_top" xlink:title="Redisplay Current Page.">
<polygon fill="white" stroke="#666666" points="1405.5,-392.75 1315.25,-392.75 1315.25,-372 1405.5,-372 1405.5,-392.75"/>
<text xml:space="preserve" text-anchor="middle" x="1360.38" y="-379.25" font-family="Helvetica,sans-Serif" font-size="10.00">redisplay_page</text>
</a>
</g>
</g>
<!-- Node8&#45;&gt;Node34 -->
<g id="edge46_Node000008_Node000034" class="edge">
<title>Node8&#45;&gt;Node34</title>
<g id="a_edge46_Node000008_Node000034"><a xlink:title=" ">
<path fill="none" stroke="#63b8ff" d="M1584.22,-341.19C1571.19,-347.46 1555.55,-354.16 1540.75,-358.38 1495.88,-371.17 1442.71,-377.2 1405.97,-380"/>
<polygon fill="#63b8ff" stroke="#63b8ff" points="1585.72,-344.36 1593.12,-336.77 1582.6,-338.09 1585.72,-344.36"/>
</a>
</g>
</g>
<!-- Node35 -->
<g id="Node000035" class="node">
<title>Node35</title>
<g id="a_Node000035"><a xlink:href="../../dd/d52/a00221.html#aa79b8294ebf98c84d4a844fd7d9e4862" target="_top" xlink:title="Scroll N Lines.">
<polygon fill="white" stroke="#666666" points="1279.25,-354.75 1165.75,-354.75 1165.75,-334 1279.25,-334 1279.25,-354.75"/>
<text xml:space="preserve" text-anchor="middle" x="1222.5" y="-341.25" font-family="Helvetica,sans-Serif" font-size="10.00">scroll_down_n_lines</text>
</a>
</g>
</g>
<!-- Node8&#45;&gt;Node35 -->
<g id="edge48_Node000008_Node000035" class="edge">
<title>Node8&#45;&gt;Node35</title>
<g id="a_edge48_Node000008_Node000035"><a xlink:title=" ">
<path fill="none" stroke="#63b8ff" d="M1575.41,-327.26C1506.01,-330.63 1360.18,-337.73 1279.74,-341.64"/>
<polygon fill="#63b8ff" stroke="#63b8ff" points="1575.33,-330.77 1585.15,-326.78 1574.99,-323.77 1575.33,-330.77"/>
</a>
</g>
</g>
<!-- Node36 -->
<g id="Node000036" class="node">
<title>Node36</title>
<g id="a_Node000036"><a xlink:href="../../dd/d52/a00221.html#ab08fc8983cc3bdb21b438c82ece16346" target="_top" xlink:title="Scroll Up N Lines.">
<polygon fill="white" stroke="#666666" points="1540.75,-316.75 1441.5,-316.75 1441.5,-296 1540.75,-296 1540.75,-316.75"/>
<text xml:space="preserve" text-anchor="middle" x="1491.12" y="-303.25" font-family="Helvetica,sans-Serif" font-size="10.00">scroll_up_n_lines</text>
</a>
</g>
</g>
<!-- Node8&#45;&gt;Node36 -->
<g id="edge50_Node000008_Node000036" class="edge">
<title>Node8&#45;&gt;Node36</title>
<g id="a_edge50_Node000008_Node000036"><a xlink:title=" ">
<path fill="none" stroke="#63b8ff" d="M1575.1,-319.3C1564.18,-317.6 1552.18,-315.73 1540.78,-313.95"/>
<polygon fill="#63b8ff" stroke="#63b8ff" points="1574.53,-322.75 1584.95,-320.83 1575.6,-315.83 1574.53,-322.75"/>
</a>
</g>
</g>
<!-- Node37 -->
<g id="Node000037" class="node">
<title>Node37</title>
<g id="a_Node000037"><a xlink:href="../../dd/d52/a00221.html#a5f639aa1a1f03fa05888c724bc17d99c" target="_top" xlink:title="Search for Regular Expression Pattern.">
<polygon fill="white" stroke="#666666" points="1515.25,-277.75 1467,-277.75 1467,-257 1515.25,-257 1515.25,-277.75"/>
<text xml:space="preserve" text-anchor="middle" x="1491.12" y="-264.25" font-family="Helvetica,sans-Serif" font-size="10.00">search</text>
</a>
</g>
</g>
<!-- Node8&#45;&gt;Node37 -->
<g id="edge52_Node000008_Node000037" class="edge">
<title>Node8&#45;&gt;Node37</title>
<g id="a_edge52_Node000008_Node000037"><a xlink:title=" ">
<path fill="none" stroke="#63b8ff" d="M1584.45,-309.25C1571.21,-302.26 1555.33,-294.13 1540.75,-287.38 1532.63,-283.61 1523.61,-279.8 1515.55,-276.53"/>
<polygon fill="#63b8ff" stroke="#63b8ff" points="1582.62,-312.25 1593.09,-313.86 1585.92,-306.07 1582.62,-312.25"/>
</a>
</g>
</g>
<!-- Node10 -->
<g id="Node000010" class="node">
<title>Node10</title>
<g id="a_Node000010"><a xlink:href="../../dd/d52/a00221.html#ae6623cc4892a014fc9c40b3bca1db7d9" target="_top" xlink:title="Go to Percent of File.">
<polygon fill="white" stroke="#666666" points="1402.88,-96.75 1317.88,-96.75 1317.88,-76 1402.88,-76 1402.88,-96.75"/>
<text xml:space="preserve" text-anchor="middle" x="1360.38" y="-83.25" font-family="Helvetica,sans-Serif" font-size="10.00">go_to_percent</text>
</a>
</g>
</g>
<!-- Node9&#45;&gt;Node10 -->
<g id="edge9_Node000009_Node000010" class="edge">
<title>Node9&#45;&gt;Node10</title>
<g id="a_edge9_Node000009_Node000010"><a xlink:title=" ">
<path fill="none" stroke="#63b8ff" d="M1462.5,-147.64C1437.26,-132.35 1400.67,-110.18 1379.13,-97.13"/>
<polygon fill="#63b8ff" stroke="#63b8ff" points="1460.56,-150.56 1470.93,-152.75 1464.19,-144.57 1460.56,-150.56"/>
</a>
</g>
</g>
<!-- Node11 -->
<g id="Node000011" class="node">
<title>Node11</title>
<g id="a_Node000011"><a xlink:href="../../dd/d52/a00221.html#a9c4b3ba5f73c18b486646c62b933972a" target="_top" xlink:title="Main Command Processing Loop for View.">
<polygon fill="white" stroke="#666666" points="1129.75,-221.75 1011.75,-221.75 1011.75,-201 1129.75,-201 1129.75,-221.75"/>
<text xml:space="preserve" text-anchor="middle" x="1070.75" y="-208.25" font-family="Helvetica,sans-Serif" font-size="10.00">view_cmd_processor</text>
</a>
</g>
</g>
<!-- Node9&#45;&gt;Node11 -->
<g id="edge44_Node000009_Node000011" class="edge">
<title>Node9&#45;&gt;Node11</title>
<g id="a_edge44_Node000009_Node000011"><a xlink:title=" ">
<path fill="none" stroke="#63b8ff" d="M1461.54,-180.24C1445.55,-188.33 1424.97,-197.47 1405.5,-202.38 1311.35,-226.08 1197.52,-222.62 1130.08,-217.39"/>
<polygon fill="#63b8ff" stroke="#63b8ff" points="1462.74,-183.57 1469.99,-175.84 1459.5,-177.36 1462.74,-183.57"/>
</a>
</g>
</g>
<!-- Node12 -->
<g id="Node000012" class="node">
<title>Node12</title>
<g id="a_Node000012"><a xlink:href="../../dd/d52/a00221.html#a0bd4dc056ab5010547129bb87819789b" target="_top" xlink:title="Start view.">
<polygon fill="white" stroke="#666666" points="975.75,-77.75 915.5,-77.75 915.5,-57 975.75,-57 975.75,-77.75"/>
<text xml:space="preserve" text-anchor="middle" x="945.62" y="-64.25" font-family="Helvetica,sans-Serif" font-size="10.00">view_file</text>
</a>
</g>
</g>
<!-- Node9&#45;&gt;Node12 -->
<g id="edge45_Node000009_Node000012" class="edge">
<title>Node9&#45;&gt;Node12</title>
<g id="a_edge45_Node000009_Node000012"><a xlink:title=" ">
<path fill="none" stroke="#63b8ff" d="M1479.2,-143.52C1465.55,-119.98 1439.75,-82.95 1405.5,-67.38 1256.65,0.3 1051.51,-40.54 976.03,-59.4"/>
<polygon fill="#63b8ff" stroke="#63b8ff" points="1476.12,-145.18 1484.02,-152.23 1482.24,-141.78 1476.12,-145.18"/>
</a>
</g>
</g>
<!-- Node29 -->
<g id="Node000029" class="node">
<title>Node29</title>
<g id="a_Node000029"><a xlink:href="../../dd/d52/a00221.html#a5f74dca8730faaa3ff362fc1e01b12ce" target="_top" xlink:title="Go to Specific File Position.">
<polygon fill="white" stroke="#666666" points="1404,-154.75 1316.75,-154.75 1316.75,-134 1404,-134 1404,-154.75"/>
<text xml:space="preserve" text-anchor="middle" x="1360.38" y="-141.25" font-family="Helvetica,sans-Serif" font-size="10.00">go_to_position</text>
</a>
</g>
</g>
<!-- Node9&#45;&gt;Node29 -->
<g id="edge35_Node000009_Node000029" class="edge">
<title>Node9&#45;&gt;Node29</title>
<g id="a_edge35_Node000009_Node000029"><a xlink:title=" ">
<path fill="none" stroke="#63b8ff" d="M1446.3,-157.57C1432.75,-155.46 1417.84,-153.15 1404.35,-151.05"/>
<polygon fill="#63b8ff" stroke="#63b8ff" points="1445.39,-160.97 1455.81,-159.04 1446.46,-154.05 1445.39,-160.97"/>
</a>
</g>
</g>
<!-- Node32 -->
<g id="Node000032" class="node">
<title>Node32</title>
<g id="a_Node000032"><a xlink:href="../../dd/d52/a00221.html#a5dbc34981815690a92812e34d1cf478f" target="_top" xlink:title="display previous page">
<polygon fill="white" stroke="#666666" points="1393.88,-193.75 1326.88,-193.75 1326.88,-173 1393.88,-173 1393.88,-193.75"/>
<text xml:space="preserve" text-anchor="middle" x="1360.38" y="-180.25" font-family="Helvetica,sans-Serif" font-size="10.00">prev_page</text>
</a>
</g>
</g>
<!-- Node9&#45;&gt;Node32 -->
<g id="edge40_Node000009_Node000032" class="edge">
<title>Node9&#45;&gt;Node32</title>
<g id="a_edge40_Node000009_Node000032"><a xlink:title=" ">
<path fill="none" stroke="#63b8ff" d="M1445.94,-170.9C1428.95,-173.4 1409.87,-176.22 1394.14,-178.54"/>
<polygon fill="#63b8ff" stroke="#63b8ff" points="1446.42,-174.36 1455.81,-169.44 1445.4,-167.44 1446.42,-174.36"/>
</a>
</g>
</g>
<!-- Node10&#45;&gt;Node11 -->
<g id="edge10_Node000010_Node000011" class="edge">
<title>Node10&#45;&gt;Node11</title>
<g id="a_edge10_Node000010_Node000011"><a xlink:title=" ">
<path fill="none" stroke="#63b8ff" d="M1306.32,-77.57C1265.65,-73.4 1209.3,-73.35 1165.75,-95.38 1119.49,-118.77 1088.14,-176.41 1076.63,-200.51"/>
<polygon fill="#63b8ff" stroke="#63b8ff" points="1305.77,-81.03 1316.11,-78.7 1306.58,-74.07 1305.77,-81.03"/>
</a>
</g>
</g>
<!-- Node11&#45;&gt;Node12 -->
<g id="edge11_Node000011_Node000012" class="edge">
<title>Node11&#45;&gt;Node12</title>
<g id="a_edge11_Node000011_Node000012"><a xlink:title=" ">
<path fill="none" stroke="#63b8ff" d="M1053.15,-191.96C1026.78,-161.12 976.21,-101.98 955.65,-77.93"/>
<polygon fill="#63b8ff" stroke="#63b8ff" points="1050.35,-194.08 1059.51,-199.4 1055.67,-189.53 1050.35,-194.08"/>
</a>
</g>
</g>
<!-- Node13 -->
<g id="Node000013" class="node">
<title>Node13</title>
<g id="a_Node000013"><a xlink:href="../../d5/ddf/a00224.html#a3c04138a5bfe5d72780bb7e82a18e627" target="_top" xlink:title=" ">
<polygon fill="white" stroke="#666666" points="761.88,-20.75 721.12,-20.75 721.12,0 761.88,0 761.88,-20.75"/>
<text xml:space="preserve" text-anchor="middle" x="741.5" y="-7.25" font-family="Helvetica,sans-Serif" font-size="10.00">main</text>
</a>
</g>
</g>
<!-- Node12&#45;&gt;Node13 -->
<g id="edge12_Node000012_Node000013" class="edge">
<title>Node12&#45;&gt;Node13</title>
<g id="a_edge12_Node000012_Node000013"><a xlink:title=" ">
<path fill="none" stroke="#63b8ff" d="M904.3,-56C861.28,-43.87 794.91,-25.16 762.16,-15.92"/>
<polygon fill="#63b8ff" stroke="#63b8ff" points="903.2,-59.33 913.78,-58.68 905.1,-52.59 903.2,-59.33"/>
</a>
</g>
</g>
<!-- Node14 -->
<g id="Node000014" class="node">
<title>Node14</title>
<g id="a_Node000014"><a xlink:href="../../d7/d03/a00254.html#a75a4e7afc9c9aafd3d35ab706f5fdc71" target="_top" xlink:title="subprogram entry point for C&#45;Menu View">
<polygon fill="white" stroke="#666666" points="879.5,-96.75 830.5,-96.75 830.5,-76 879.5,-76 879.5,-96.75"/>
<text xml:space="preserve" text-anchor="middle" x="855" y="-83.25" font-family="Helvetica,sans-Serif" font-size="10.00">mview</text>
</a>
</g>
</g>
<!-- Node12&#45;&gt;Node14 -->
<g id="edge13_Node000012_Node000014" class="edge">
<title>Node12&#45;&gt;Node14</title>
<g id="a_edge13_Node000012_Node000014"><a xlink:title=" ">
<path fill="none" stroke="#63b8ff" d="M904.02,-76.08C895.73,-77.86 887.26,-79.67 879.79,-81.27"/>
<polygon fill="#63b8ff" stroke="#63b8ff" points="904.59,-79.54 913.63,-74.02 903.12,-72.69 904.59,-79.54"/>
</a>
</g>
</g>
<!-- Node14&#45;&gt;Node13 -->
<g id="edge31_Node000014_Node000013" class="edge">
<title>Node14&#45;&gt;Node13</title>
<g id="a_edge31_Node000014_Node000013"><a xlink:title=" ">
<path fill="none" stroke="#63b8ff" d="M835.67,-67.89C824.44,-57.22 809.4,-44.03 794.5,-34.38 784.32,-27.77 772.04,-22.01 761.96,-17.79"/>
<polygon fill="#63b8ff" stroke="#63b8ff" points="833.09,-70.27 842.7,-74.74 837.98,-65.26 833.09,-70.27"/>
</a>
</g>
</g>
<!-- Node15 -->
<g id="Node000015" class="node">
<title>Node15</title>
<g id="a_Node000015"><a xlink:href="../../d0/d27/a00239.html#aeebc4c0b94ca97d753e10a0cd1798730" target="_top" xlink:title="Displays the help screen for the pick interface using mview.">
<polygon fill="white" stroke="#666666" points="793,-96.75 690,-96.75 690,-76 793,-76 793,-96.75"/>
<text xml:space="preserve" text-anchor="middle" x="741.5" y="-83.25" font-family="Helvetica,sans-Serif" font-size="10.00">display_pick_help</text>
</a>
</g>
</g>
<!-- Node14&#45;&gt;Node15 -->
<g id="edge14_Node000014_Node000015" class="edge">
<title>Node14&#45;&gt;Node15</title>
<g id="a_edge14_Node000014_Node000015"><a xlink:title=" ">
<path fill="none" stroke="#63b8ff" d="M818.83,-86.38C810.75,-86.38 802.01,-86.38 793.42,-86.38"/>
<polygon fill="#63b8ff" stroke="#63b8ff" points="818.57,-89.88 828.57,-86.38 818.57,-82.88 818.57,-89.88"/>
</a>
</g>
</g>
<!-- Node20 -->
<g id="Node000020" class="node">
<title>Node20</title>
<g id="a_Node000020"><a xlink:href="../../d9/d39/a00257.html#aa5d0e30e7036b72b51c843d0a7e486a1" target="_top" xlink:title="Processes user input for the menu system.">
<polygon fill="white" stroke="#666666" points="317.25,-135.75 194.75,-135.75 194.75,-115 317.25,-115 317.25,-135.75"/>
<text xml:space="preserve" text-anchor="middle" x="256" y="-122.25" font-family="Helvetica,sans-Serif" font-size="10.00">menu_cmd_processor</text>
</a>
</g>
</g>
<!-- Node14&#45;&gt;Node20 -->
<g id="edge32_Node000014_Node000020" class="edge">
<title>Node14&#45;&gt;Node20</title>
<g id="a_edge32_Node000014_Node000020"><a xlink:title=" ">
<path fill="none" stroke="#63b8ff" d="M819.33,-98.76C811.27,-101.27 802.65,-103.66 794.5,-105.38 715.39,-121.98 694.46,-124.38 613.62,-124.38 613.62,-124.38 613.62,-124.38 490.62,-124.38 431.81,-124.38 364.67,-124.7 317.51,-124.97"/>
<polygon fill="#63b8ff" stroke="#63b8ff" points="820.41,-102.09 828.83,-95.65 818.24,-95.43 820.41,-102.09"/>
</a>
</g>
</g>
<!-- Node23 -->
<g id="Node000023" class="node">
<title>Node23</title>
<g id="a_Node000023"><a xlink:href="../../d0/d27/a00239.html#af7fcbb1c8b67a4d11c86ba7209f397c2" target="_top" xlink:title="Executes specified command with selected objects as arguments.">
<polygon fill="white" stroke="#666666" points="652.5,-57.75 572.75,-57.75 572.75,-37 652.5,-37 652.5,-57.75"/>
<text xml:space="preserve" text-anchor="middle" x="612.62" y="-44.25" font-family="Helvetica,sans-Serif" font-size="10.00">exec_objects</text>
</a>
</g>
</g>
<!-- Node14&#45;&gt;Node23 -->
<g id="edge23_Node000014_Node000023" class="edge">
<title>Node14&#45;&gt;Node23</title>
<g id="a_edge23_Node000014_Node000023"><a xlink:title=" ">
<path fill="none" stroke="#63b8ff" d="M819.33,-74.03C811.26,-71.51 802.65,-69.11 794.5,-67.38 746.29,-57.12 689.67,-51.94 652.79,-49.45"/>
<polygon fill="#63b8ff" stroke="#63b8ff" points="818.23,-77.35 828.82,-77.13 820.41,-70.7 818.23,-77.35"/>
</a>
</g>
</g>
<!-- Node24 -->
<g id="Node000024" class="node">
<title>Node24</title>
<g id="a_Node000024"><a xlink:href="../../d2/d04/a00281.html#ada302551bf41bf8ed6132fd34328a47e" target="_top" xlink:title="Form main processing loop.">
<polygon fill="white" stroke="#666666" points="780.25,-172.75 702.75,-172.75 702.75,-152 780.25,-152 780.25,-172.75"/>
<text xml:space="preserve" text-anchor="middle" x="741.5" y="-159.25" font-family="Helvetica,sans-Serif" font-size="10.00">form_engine</text>
</a>
</g>
</g>
<!-- Node14&#45;&gt;Node24 -->
<g id="edge25_Node000014_Node000024" class="edge">
<title>Node14&#45;&gt;Node24</title>
<g id="a_edge25_Node000014_Node000024"><a xlink:title=" ">
<path fill="none" stroke="#63b8ff" d="M835.67,-104.86C824.44,-115.53 809.4,-128.72 794.5,-138.38 786.83,-143.35 777.95,-147.85 769.73,-151.57"/>
<polygon fill="#63b8ff" stroke="#63b8ff" points="837.98,-107.49 842.7,-98.01 833.09,-102.48 837.98,-107.49"/>
</a>
</g>
</g>
<!-- Node28 -->
<g id="Node000028" class="node">
<title>Node28</title>
<g id="a_Node000028"><a xlink:href="../../dd/d52/a00221.html#ad997ba9f8591568c77291fb1b44601b2" target="_top" xlink:title="Display View Help File.">
<polygon fill="white" stroke="#666666" points="794.5,-211.75 688.5,-211.75 688.5,-191 794.5,-191 794.5,-211.75"/>
<text xml:space="preserve" text-anchor="middle" x="741.5" y="-198.25" font-family="Helvetica,sans-Serif" font-size="10.00">view_display_help</text>
</a>
</g>
</g>
<!-- Node14&#45;&gt;Node28 -->
<g id="edge33_Node000014_Node000028" class="edge">
<title>Node14&#45;&gt;Node28</title>
<g id="a_edge33_Node000014_Node000028"><a xlink:title=" ">
<path fill="none" stroke="#63b8ff" d="M845.52,-107.62C836.01,-128.95 818.7,-161.43 794.5,-181.38 790.1,-185 784.96,-188.02 779.66,-190.52"/>
<polygon fill="#63b8ff" stroke="#63b8ff" points="848.72,-109.03 849.4,-98.46 842.27,-106.3 848.72,-109.03"/>
</a>
</g>
</g>
<!-- Node16 -->
<g id="Node000016" class="node">
<title>Node16</title>
<g id="a_Node000016"><a xlink:href="../../d0/d27/a00239.html#abb0969a6d1c7e78be46c3b325754c802" target="_top" xlink:title="Main loop to handle user input and interactions for pick interface.">
<polygon fill="white" stroke="#666666" points="635.25,-96.75 590,-96.75 590,-76 635.25,-76 635.25,-96.75"/>
<text xml:space="preserve" text-anchor="middle" x="612.62" y="-83.25" font-family="Helvetica,sans-Serif" font-size="10.00">picker</text>
</a>
</g>
</g>
<!-- Node15&#45;&gt;Node16 -->
<g id="edge15_Node000015_Node000016" class="edge">
<title>Node15&#45;&gt;Node16</title>
<g id="a_edge15_Node000015_Node000016"><a xlink:title=" ">
<path fill="none" stroke="#63b8ff" d="M678.52,-86.38C663.16,-86.38 647.69,-86.38 635.71,-86.38"/>
<polygon fill="#63b8ff" stroke="#63b8ff" points="678.11,-89.88 688.11,-86.38 678.11,-82.88 678.11,-89.88"/>
</a>
</g>
</g>
<!-- Node17 -->
<g id="Node000017" class="node">
<title>Node17</title>
<g id="a_Node000017"><a xlink:href="../../d0/d27/a00239.html#ab97dcab41017c5132f52b682437a151e" target="_top" xlink:title="Initializes pick interface, calculates window size and position, and enters picker loop.">
<polygon fill="white" stroke="#666666" points="528.88,-96.75 454.38,-96.75 454.38,-76 528.88,-76 528.88,-96.75"/>
<text xml:space="preserve" text-anchor="middle" x="491.62" y="-83.25" font-family="Helvetica,sans-Serif" font-size="10.00">pick_engine</text>
</a>
</g>
</g>
<!-- Node16&#45;&gt;Node17 -->
<g id="edge16_Node000016_Node000017" class="edge">
<title>Node16&#45;&gt;Node17</title>
<g id="a_edge16_Node000016_Node000017"><a xlink:title=" ">
<path fill="none" stroke="#63b8ff" d="M578.45,-86.38C563.1,-86.38 544.84,-86.38 529.1,-86.38"/>
<polygon fill="#63b8ff" stroke="#63b8ff" points="578.01,-89.88 588.01,-86.38 578.01,-82.88 578.01,-89.88"/>
</a>
</g>
</g>
<!-- Node18 -->
<g id="Node000018" class="node">
<title>Node18</title>
<g id="a_Node000018"><a xlink:href="../../d0/d27/a00239.html#a1b2ee87543245e612c1710ea58930a17" target="_top" xlink:title="Initializes pick structure and opens pick input file or pipe.">
<polygon fill="white" stroke="#666666" points="410.5,-96.75 353.25,-96.75 353.25,-76 410.5,-76 410.5,-96.75"/>
<text xml:space="preserve" text-anchor="middle" x="381.88" y="-83.25" font-family="Helvetica,sans-Serif" font-size="10.00">init_pick</text>
</a>
</g>
</g>
<!-- Node17&#45;&gt;Node18 -->
<g id="edge17_Node000017_Node000018" class="edge">
<title>Node17&#45;&gt;Node18</title>
<g id="a_edge17_Node000017_Node000018"><a xlink:title=" ">
<path fill="none" stroke="#63b8ff" d="M442.91,-86.38C431.93,-86.38 420.61,-86.38 410.8,-86.38"/>
<polygon fill="#63b8ff" stroke="#63b8ff" points="442.63,-89.88 452.63,-86.38 442.63,-82.88 442.63,-89.88"/>
</a>
</g>
</g>
<!-- Node19 -->
<g id="Node000019" class="node">
<title>Node19</title>
<g id="a_Node000019"><a xlink:href="../../d2/dc8/a00242.html#a3c04138a5bfe5d72780bb7e82a18e627" target="_top" xlink:title=" ">
<polygon fill="white" stroke="#666666" points="276.38,-96.75 235.62,-96.75 235.62,-76 276.38,-76 276.38,-96.75"/>
<text xml:space="preserve" text-anchor="middle" x="256" y="-83.25" font-family="Helvetica,sans-Serif" font-size="10.00">main</text>
</a>
</g>
</g>
<!-- Node18&#45;&gt;Node19 -->
<g id="edge18_Node000018_Node000019" class="edge">
<title>Node18&#45;&gt;Node19</title>
<g id="a_edge18_Node000018_Node000019"><a xlink:title=" ">
<path fill="none" stroke="#63b8ff" d="M341.27,-86.38C319.64,-86.38 293.83,-86.38 276.52,-86.38"/>
<polygon fill="#63b8ff" stroke="#63b8ff" points="341.25,-89.88 351.25,-86.38 341.25,-82.88 341.25,-89.88"/>
</a>
</g>
</g>
<!-- Node18&#45;&gt;Node20 -->
<g id="edge19_Node000018_Node000020" class="edge">
<title>Node18&#45;&gt;Node20</title>
<g id="a_edge19_Node000018_Node000020"><a xlink:title=" ">
<path fill="none" stroke="#63b8ff" d="M341.96,-98.63C325.67,-103.75 306.92,-109.66 291.18,-114.61"/>
<polygon fill="#63b8ff" stroke="#63b8ff" points="342.83,-102.02 351.32,-95.68 340.73,-95.34 342.83,-102.02"/>
</a>
</g>
</g>
<!-- Node21 -->
<g id="Node000021" class="node">
<title>Node21</title>
<g id="a_Node000021"><a xlink:href="../../d9/d39/a00257.html#a7d7973d7aac92759dcc86ec52bb038f4" target="_top" xlink:title="The main loop of the menu system.">
<polygon fill="white" stroke="#666666" points="158.75,-135.75 76.75,-135.75 76.75,-115 158.75,-115 158.75,-135.75"/>
<text xml:space="preserve" text-anchor="middle" x="117.75" y="-122.25" font-family="Helvetica,sans-Serif" font-size="10.00">menu_engine</text>
</a>
</g>
</g>
<!-- Node20&#45;&gt;Node21 -->
<g id="edge20_Node000020_Node000021" class="edge">
<title>Node20&#45;&gt;Node21</title>
<g id="a_edge20_Node000020_Node000021"><a xlink:title=" ">
<path fill="none" stroke="#63b8ff" d="M183.2,-118.63C174.96,-118.67 166.79,-118.84 159.17,-119.15"/>
<polygon fill="#63b8ff" stroke="#63b8ff" points="182.92,-122.13 192.93,-118.66 182.94,-115.13 182.92,-122.13"/>
</a>
</g>
</g>
<!-- Node21&#45;&gt;Node20 -->
<g id="edge22_Node000021_Node000020" class="edge">
<title>Node21&#45;&gt;Node20</title>
<g id="a_edge22_Node000021_Node000020"><a xlink:title=" ">
<path fill="none" stroke="#63b8ff" d="M170.68,-131.95C178.45,-132.12 186.52,-132.17 194.45,-132.09"/>
<polygon fill="#63b8ff" stroke="#63b8ff" points="170.79,-128.45 160.69,-131.65 170.58,-135.45 170.79,-128.45"/>
</a>
</g>
</g>
<!-- Node22 -->
<g id="Node000022" class="node">
<title>Node22</title>
<g id="a_Node000022"><a xlink:href="../../dd/dd7/a00260.html#a3c04138a5bfe5d72780bb7e82a18e627" target="_top" xlink:title=" ">
<polygon fill="white" stroke="#666666" points="40.75,-135.75 0,-135.75 0,-115 40.75,-115 40.75,-135.75"/>
<text xml:space="preserve" text-anchor="middle" x="20.38" y="-122.25" font-family="Helvetica,sans-Serif" font-size="10.00">main</text>
</a>
</g>
</g>
<!-- Node21&#45;&gt;Node22 -->
<g id="edge21_Node000021_Node000022" class="edge">
<title>Node21&#45;&gt;Node22</title>
<g id="a_edge21_Node000021_Node000022"><a xlink:title=" ">
<path fill="none" stroke="#63b8ff" d="M64.79,-125.38C56.36,-125.38 48.1,-125.38 41.09,-125.38"/>
<polygon fill="#63b8ff" stroke="#63b8ff" points="64.79,-128.88 74.79,-125.38 64.79,-121.88 64.79,-128.88"/>
</a>
</g>
</g>
<!-- Node23&#45;&gt;Node17 -->
<g id="edge24_Node000023_Node000017" class="edge">
<title>Node23&#45;&gt;Node17</title>
<g id="a_edge24_Node000023_Node000017"><a xlink:title=" ">
<path fill="none" stroke="#63b8ff" d="M567.64,-61.79C553.73,-66.35 538.6,-71.31 525.6,-75.57"/>
<polygon fill="#63b8ff" stroke="#63b8ff" points="568.63,-65.15 577.04,-58.71 566.45,-58.5 568.63,-65.15"/>
</a>
</g>
</g>
<!-- Node25 -->
<g id="Node000025" class="node">
<title>Node25</title>
<g id="a_Node000025"><a xlink:href="../../d2/d04/a00281.html#abf1be20a8aad5f7ba09172ac1434a110" target="_top" xlink:title="Initialize form data structure and parse description file.">
<polygon fill="white" stroke="#666666" points="642.75,-191.75 582.5,-191.75 582.5,-171 642.75,-171 642.75,-191.75"/>
<text xml:space="preserve" text-anchor="middle" x="612.62" y="-178.25" font-family="Helvetica,sans-Serif" font-size="10.00">init_form</text>
</a>
</g>
</g>
<!-- Node24&#45;&gt;Node25 -->
<g id="edge26_Node000024_Node000025" class="edge">
<title>Node24&#45;&gt;Node25</title>
<g id="a_edge26_Node000024_Node000025"><a xlink:title=" ">
<path fill="none" stroke="#63b8ff" d="M691.43,-169.72C675.15,-172.16 657.54,-174.8 643.2,-176.95"/>
<polygon fill="#63b8ff" stroke="#63b8ff" points="691.57,-173.24 700.94,-168.3 690.53,-166.32 691.57,-173.24"/>
</a>
</g>
</g>
<!-- Node25&#45;&gt;Node20 -->
<g id="edge30_Node000025_Node000020" class="edge">
<title>Node25&#45;&gt;Node20</title>
<g id="a_edge30_Node000025_Node000020"><a xlink:title=" ">
<path fill="none" stroke="#63b8ff" d="M571.01,-184.6C537.44,-186.49 488.63,-187.47 446.5,-181.38 387.25,-172.8 320.73,-149.9 284.38,-136.18"/>
<polygon fill="#63b8ff" stroke="#63b8ff" points="570.94,-188.11 580.7,-184 570.5,-181.12 570.94,-188.11"/>
</a>
</g>
</g>
<!-- Node26 -->
<g id="Node000026" class="node">
<title>Node26</title>
<g id="a_Node000026"><a xlink:href="../../dd/d52/a00221.html#a2ffea5674e85f124a70e19f745a66583" target="_top" xlink:title="use form to enter a file specification">
<polygon fill="white" stroke="#666666" points="536.75,-248.75 446.5,-248.75 446.5,-228 536.75,-228 536.75,-248.75"/>
<text xml:space="preserve" text-anchor="middle" x="491.62" y="-235.25" font-family="Helvetica,sans-Serif" font-size="10.00">enter_file_spec</text>
</a>
</g>
</g>
<!-- Node25&#45;&gt;Node26 -->
<g id="edge27_Node000025_Node000026" class="edge">
<title>Node25&#45;&gt;Node26</title>
<g id="a_edge27_Node000025_Node000026"><a xlink:title=" ">
<path fill="none" stroke="#63b8ff" d="M578.64,-197.17C558.45,-206.85 533.13,-218.97 515.2,-227.56"/>
<polygon fill="#63b8ff" stroke="#63b8ff" points="580.09,-200.36 587.6,-192.88 577.07,-194.05 580.09,-200.36"/>
</a>
</g>
</g>
<!-- Node27 -->
<g id="Node000027" class="node">
<title>Node27</title>
<g id="a_Node000027"><a xlink:href="../../db/dc3/a00284.html#a3c04138a5bfe5d72780bb7e82a18e627" target="_top" xlink:title=" ">
<polygon fill="white" stroke="#666666" points="512,-172.75 471.25,-172.75 471.25,-152 512,-152 512,-172.75"/>
<text xml:space="preserve" text-anchor="middle" x="491.62" y="-159.25" font-family="Helvetica,sans-Serif" font-size="10.00">main</text>
</a>
</g>
</g>
<!-- Node25&#45;&gt;Node27 -->
<g id="edge29_Node000025_Node000027" class="edge">
<title>Node25&#45;&gt;Node27</title>
<g id="a_edge29_Node000025_Node000027"><a xlink:title=" ">
<path fill="none" stroke="#63b8ff" d="M570.99,-174.89C551.2,-171.73 528.31,-168.07 512.4,-165.53"/>
<polygon fill="#63b8ff" stroke="#63b8ff" points="570.29,-178.32 580.71,-176.44 571.39,-171.41 570.29,-178.32"/>
</a>
</g>
</g>
<!-- Node26&#45;&gt;Node11 -->
<g id="edge28_Node000026_Node000011" class="edge">
<title>Node26&#45;&gt;Node11</title>
<g id="a_edge28_Node000026_Node000011"><a xlink:title=" ">
<path fill="none" stroke="#63b8ff" d="M548.21,-238.73C598.44,-239.02 674.43,-239.38 740.5,-239.38 856,-239.38 856,-239.38 856,-239.38 911.2,-239.38 973.75,-230.08 1016.86,-222.2"/>
<polygon fill="#63b8ff" stroke="#63b8ff" points="548.49,-235.23 538.47,-238.67 548.45,-242.23 548.49,-235.23"/>
</a>
</g>
</g>
<!-- Node28&#45;&gt;Node11 -->
<g id="edge34_Node000028_Node000011" class="edge">
<title>Node28&#45;&gt;Node11</title>
<g id="a_edge34_Node000028_Node000011"><a xlink:title=" ">
<path fill="none" stroke="#63b8ff" d="M806.1,-203.32C865.66,-205.14 953.9,-207.84 1011.62,-209.6"/>
<polygon fill="#63b8ff" stroke="#63b8ff" points="806.57,-199.83 796.47,-203.02 806.36,-206.83 806.57,-199.83"/>
</a>
</g>
</g>
<!-- Node30 -->
<g id="Node000030" class="node">
<title>Node30</title>
<g id="a_Node000030"><a xlink:href="../../dd/d52/a00221.html#ac81796e830049e74987a6b526cfc296f" target="_top" xlink:title="Go to Specific Line.">
<polygon fill="white" stroke="#666666" points="1255.62,-163.75 1189.38,-163.75 1189.38,-143 1255.62,-143 1255.62,-163.75"/>
<text xml:space="preserve" text-anchor="middle" x="1222.5" y="-150.25" font-family="Helvetica,sans-Serif" font-size="10.00">go_to_line</text>
</a>
</g>
</g>
<!-- Node29&#45;&gt;Node30 -->
<g id="edge36_Node000029_Node000030" class="edge">
<title>Node29&#45;&gt;Node30</title>
<g id="a_edge36_Node000029_Node000030"><a xlink:title=" ">
<path fill="none" stroke="#63b8ff" d="M1305.08,-147.97C1288.4,-149.08 1270.59,-150.26 1255.87,-151.23"/>
<polygon fill="#63b8ff" stroke="#63b8ff" points="1305.13,-151.48 1314.87,-147.32 1304.66,-144.49 1305.13,-151.48"/>
</a>
</g>
</g>
<!-- Node31 -->
<g id="Node000031" class="node">
<title>Node31</title>
<g id="a_Node000031"><a xlink:href="../../dd/d52/a00221.html#ada77a15a548ce444426d43fd39a1cce4" target="_top" xlink:title="Go to Mark.">
<polygon fill="white" stroke="#666666" points="1259.38,-124.75 1185.62,-124.75 1185.62,-104 1259.38,-104 1259.38,-124.75"/>
<text xml:space="preserve" text-anchor="middle" x="1222.5" y="-111.25" font-family="Helvetica,sans-Serif" font-size="10.00">go_to_mark</text>
</a>
</g>
</g>
<!-- Node29&#45;&gt;Node31 -->
<g id="edge38_Node000029_Node000031" class="edge">
<title>Node29&#45;&gt;Node31</title>
<g id="a_edge38_Node000029_Node000031"><a xlink:title=" ">
<path fill="none" stroke="#63b8ff" d="M1305.45,-132.47C1290.14,-129.09 1273.83,-125.49 1259.82,-122.39"/>
<polygon fill="#63b8ff" stroke="#63b8ff" points="1304.39,-135.82 1314.91,-134.56 1305.9,-128.98 1304.39,-135.82"/>
</a>
</g>
</g>
<!-- Node30&#45;&gt;Node11 -->
<g id="edge37_Node000030_Node000011" class="edge">
<title>Node30&#45;&gt;Node11</title>
<g id="a_edge37_Node000030_Node000011"><a xlink:title=" ">
<path fill="none" stroke="#63b8ff" d="M1180.2,-167.98C1175.32,-169.77 1170.42,-171.6 1165.75,-173.38 1142.56,-182.22 1116.4,-192.85 1097.58,-200.61"/>
<polygon fill="#63b8ff" stroke="#63b8ff" points="1181.12,-171.37 1189.32,-164.68 1178.73,-164.79 1181.12,-171.37"/>
</a>
</g>
</g>
<!-- Node31&#45;&gt;Node11 -->
<g id="edge39_Node000031_Node000011" class="edge">
<title>Node31&#45;&gt;Node11</title>
<g id="a_edge39_Node000031_Node000011"><a xlink:title=" ">
<path fill="none" stroke="#63b8ff" d="M1175.13,-129.6C1171.9,-131.09 1168.74,-132.68 1165.75,-134.38 1132.34,-153.3 1098.93,-184.23 1082.4,-200.54"/>
<polygon fill="#63b8ff" stroke="#63b8ff" points="1176.34,-132.89 1184.2,-125.79 1173.63,-126.44 1176.34,-132.89"/>
</a>
</g>
</g>
<!-- Node32&#45;&gt;Node30 -->
<g id="edge43_Node000032_Node000030" class="edge">
<title>Node32&#45;&gt;Node30</title>
<g id="a_edge43_Node000032_Node000030"><a xlink:title=" ">
<path fill="none" stroke="#63b8ff" d="M1315.51,-173.69C1296.19,-169.43 1273.9,-164.5 1256.09,-160.57"/>
<polygon fill="#63b8ff" stroke="#63b8ff" points="1314.49,-177.05 1325.01,-175.79 1316,-170.21 1314.49,-177.05"/>
</a>
</g>
</g>
<!-- Node33 -->
<g id="Node000033" class="node">
<title>Node33</title>
<g id="a_Node000033"><a xlink:href="../../dd/d52/a00221.html#a46145f1d3680a48cb9391a8ae95db9ad" target="_top" xlink:title="Go to End of File.">
<polygon fill="white" stroke="#666666" points="1254.5,-202.75 1190.5,-202.75 1190.5,-182 1254.5,-182 1254.5,-202.75"/>
<text xml:space="preserve" text-anchor="middle" x="1222.5" y="-189.25" font-family="Helvetica,sans-Serif" font-size="10.00">go_to_eof</text>
</a>
</g>
</g>
<!-- Node32&#45;&gt;Node33 -->
<g id="edge41_Node000032_Node000033" class="edge">
<title>Node32&#45;&gt;Node33</title>
<g id="a_edge41_Node000032_Node000033"><a xlink:title=" ">
<path fill="none" stroke="#63b8ff" d="M1315.26,-186.3C1295.49,-187.61 1272.64,-189.12 1254.69,-190.31"/>
<polygon fill="#63b8ff" stroke="#63b8ff" points="1315.23,-189.81 1324.97,-185.65 1314.76,-182.82 1315.23,-189.81"/>
</a>
</g>
</g>
<!-- Node33&#45;&gt;Node11 -->
<g id="edge42_Node000033_Node000011" class="edge">
<title>Node33&#45;&gt;Node11</title>
<g id="a_edge42_Node000033_Node000011"><a xlink:title=" ">
<path fill="none" stroke="#63b8ff" d="M1178.96,-197.77C1163.75,-199.7 1146.33,-201.91 1130.02,-203.98"/>
<polygon fill="#63b8ff" stroke="#63b8ff" points="1179.13,-201.28 1188.61,-196.55 1178.24,-194.34 1179.13,-201.28"/>
</a>
</g>
</g>
<!-- Node34&#45;&gt;Node11 -->
<g id="edge47_Node000034_Node000011" class="edge">
<title>Node34&#45;&gt;Node11</title>
<g id="a_edge47_Node000034_Node000011"><a xlink:title=" ">
<path fill="none" stroke="#63b8ff" d="M1303.64,-389.46C1262.51,-391.87 1206.8,-388.96 1165.75,-363.38 1111.24,-329.4 1083.43,-250.99 1074.77,-222.22"/>
<polygon fill="#63b8ff" stroke="#63b8ff" points="1303.86,-392.95 1313.58,-388.74 1303.36,-385.97 1303.86,-392.95"/>
</a>
</g>
</g>
<!-- Node35&#45;&gt;Node11 -->
<g id="edge49_Node000035_Node000011" class="edge">
<title>Node35&#45;&gt;Node11</title>
<g id="a_edge49_Node000035_Node000011"><a xlink:title=" ">
<path fill="none" stroke="#63b8ff" d="M1179.14,-328.6C1174.44,-326.14 1169.88,-323.4 1165.75,-320.38 1126.46,-291.56 1092.48,-243.4 1078.53,-222.08"/>
<polygon fill="#63b8ff" stroke="#63b8ff" points="1177.58,-331.74 1188.12,-332.87 1180.59,-325.42 1177.58,-331.74"/>
</a>
</g>
</g>
<!-- Node36&#45;&gt;Node11 -->
<g id="edge51_Node000036_Node000011" class="edge">
<title>Node36&#45;&gt;Node11</title>
<g id="a_edge51_Node000036_Node000011"><a xlink:title=" ">
<path fill="none" stroke="#63b8ff" d="M1429.61,-302.37C1363.55,-296.78 1255.24,-284.03 1165.75,-256.38 1138.26,-247.88 1108.66,-232.58 1090.17,-222.2"/>
<polygon fill="#63b8ff" stroke="#63b8ff" points="1429.28,-305.86 1439.53,-303.18 1429.85,-298.88 1429.28,-305.86"/>
</a>
</g>
</g>
<!-- Node37&#45;&gt;Node11 -->
<g id="edge53_Node000037_Node000011" class="edge">
<title>Node37&#45;&gt;Node11</title>
<g id="a_edge53_Node000037_Node000011"><a xlink:title=" ">
<path fill="none" stroke="#63b8ff" d="M1455.42,-265.43C1395.84,-261.73 1270.39,-252.41 1165.75,-234.38 1147.54,-231.24 1127.62,-226.55 1110.83,-222.22"/>
<polygon fill="#63b8ff" stroke="#63b8ff" points="1455.06,-268.91 1465.26,-266.02 1455.49,-261.93 1455.06,-268.91"/>
</a>
</g>
</g>
</g>
</svg>

<g id="navigator" transform="translate(0 0)" fill="#404254">
  <rect fill="#f2f5e9" fill-opacity="0.5" stroke="#606060" stroke-width=".5" x="0" y="0" width="60" height="60"/>
  <use id="zoomplus" xlink:href="#zoomPlus" x="17" y="9" onmousedown="handleZoom(evt,'in')"/>
  <use id="zoomminus" xlink:href="#zoomMin" x="42" y="9" onmousedown="handleZoom(evt,'out')"/>
  <use id="reset" xlink:href="#resetDef" x="30" y="36" onmousedown="handleReset()"/>
   <use id="arrowup" xlink:href="#arrowUp" x="0" y="0" onmousedown="handlePan(0,-1)"/>
  <use id="arrowright" xlink:href="#arrowRight" x="0" y="0" onmousedown="handlePan(1,0)"/>
  <use id="arrowdown" xlink:href="#arrowDown" x="0" y="0" onmousedown="handlePan(0,1)"/>
  <use id="arrowleft" xlink:href="#arrowLeft" x="0" y="0" onmousedown="handlePan(-1,0)"/>
</g>
<svg viewBox="0 0 15 15" width="100%" height="30px" preserveAspectRatio="xMaxYMin meet">
 <g id="arrow_out" transform="scale(0.3 0.3)">
  <a xlink:href="a00326_acecde643d6f287390823f0b64e50255b_icgraph_org.svg" target="_base">
   <rect id="button" ry="5" rx="5" y="6" x="6" height="38" width="38"
        fill="#f2f5e9" fill-opacity="0.5" stroke="#606060" stroke-width="1.0"/>
   <path id="arrow"
     d="M 11.500037,31.436501 C 11.940474,20.09759 22.043105,11.32322 32.158766,21.979434 L 37.068811,17.246167 C 37.068811,17.246167 37.088388,32 37.088388,32 L 22.160133,31.978069 C 22.160133,31.978069 26.997745,27.140456 26.997745,27.140456 C 18.528582,18.264221 13.291696,25.230495 11.500037,31.436501 z"
     style="fill:#404040;"/>
  </a>
 </g>
</svg>

<style type='text/css'>
<![CDATA[
[data-mouse-over-selected='false'] { opacity: 0.7; }
[data-mouse-over-selected='true']  { opacity: 1.0; }
]]>
</style>
<script type="application/ecmascript"><![CDATA[
document.addEventListener('DOMContentLoaded', (event) => {
  highlightEdges();
  highlightAdjacentNodes();
});
]]></script>
</svg>
