<?xml version="1.0" encoding="UTF-8" standalone="no"?>
<!DOCTYPE svg PUBLIC "-//W3C//DTD SVG 1.1//EN"
 "http://www.w3.org/Graphics/SVG/1.1/DTD/svg11.dtd">
<!-- Generated by graphviz version 14.1.2 (0)
 -->
<!-- Title: src/rsh.c Pages: 1 -->
<svg width="853pt" height="86pt"
 viewBox="0.00 0.00 853.00 86.00" xmlns="http://www.w3.org/2000/svg" xmlns:xlink="http://www.w3.org/1999/xlink">
<g id="graph0" class="graph" transform="scale(1 1) rotate(0) translate(4 81.5)">
<title>src/rsh.c</title>
<!-- Node1 -->
<g id="Node000001" class="node">
<title>Node1</title>
<g id="a_Node000001"><a xlink:title="restricted shell to run bash as root">
<polygon fill="#999999" stroke="#666666" points="414.62,-77.5 358.12,-77.5 358.12,-56.75 414.62,-56.75 414.62,-77.5"/>
<text xml:space="preserve" text-anchor="middle" x="386.38" y="-64" font-family="Helvetica,sans-Serif" font-size="10.00">src/rsh.c</text>
</a>
</g>
</g>
<!-- Node2 -->
<g id="Node000002" class="node">
<title>Node2</title>
<g id="a_Node000002"><a xlink:title=" ">
<polygon fill="#e0e0e0" stroke="#999999" points="52.75,-20.75 0,-20.75 0,0 52.75,0 52.75,-20.75"/>
<text xml:space="preserve" text-anchor="middle" x="26.38" y="-7.25" font-family="Helvetica,sans-Serif" font-size="10.00">limits.h</text>
</a>
</g>
</g>
<!-- Node1&#45;&gt;Node2 -->
<g id="edge1_Node000001_Node000002" class="edge">
<title>Node1&#45;&gt;Node2</title>
<g id="a_edge1_Node000001_Node000002"><a xlink:title=" ">
<path fill="none" stroke="#63b8ff" d="M357.92,-63.34C302.93,-57.71 178.1,-43.7 64.05,-21.1"/>
<polygon fill="#63b8ff" stroke="#63b8ff" points="65.03,-17.72 54.53,-19.18 63.64,-24.59 65.03,-17.72"/>
</a>
</g>
</g>
<!-- Node3 -->
<g id="Node000003" class="node">
<title>Node3</title>
<g id="a_Node000003"><a xlink:title=" ">
<polygon fill="#e0e0e0" stroke="#999999" points="131.88,-20.75 70.88,-20.75 70.88,0 131.88,0 131.88,-20.75"/>
<text xml:space="preserve" text-anchor="middle" x="101.38" y="-7.25" font-family="Helvetica,sans-Serif" font-size="10.00">stdbool.h</text>
</a>
</g>
</g>
<!-- Node1&#45;&gt;Node3 -->
<g id="edge2_Node000001_Node000003" class="edge">
<title>Node1&#45;&gt;Node3</title>
<g id="a_edge2_Node000001_Node000003"><a xlink:title=" ">
<path fill="none" stroke="#63b8ff" d="M357.87,-61.38C313.91,-53.95 226.68,-38.77 143.21,-21.27"/>
<polygon fill="#63b8ff" stroke="#63b8ff" points="143.99,-17.86 133.48,-19.21 142.54,-24.7 143.99,-17.86"/>
</a>
</g>
</g>
<!-- Node4 -->
<g id="Node000004" class="node">
<title>Node4</title>
<g id="a_Node000004"><a xlink:title=" ">
<polygon fill="#e0e0e0" stroke="#999999" points="204.88,-20.75 149.88,-20.75 149.88,0 204.88,0 204.88,-20.75"/>
<text xml:space="preserve" text-anchor="middle" x="177.38" y="-7.25" font-family="Helvetica,sans-Serif" font-size="10.00">stddef.h</text>
</a>
</g>
</g>
<!-- Node1&#45;&gt;Node4 -->
<g id="edge3_Node000001_Node000004" class="edge">
<title>Node1&#45;&gt;Node4</title>
<g id="a_edge3_Node000001_Node000004"><a xlink:title=" ">
<path fill="none" stroke="#63b8ff" d="M357.75,-58.63C321.07,-49.02 257.31,-32.32 216.26,-21.56"/>
<polygon fill="#63b8ff" stroke="#63b8ff" points="217.34,-18.23 206.78,-19.08 215.57,-25 217.34,-18.23"/>
</a>
</g>
</g>
<!-- Node5 -->
<g id="Node000005" class="node">
<title>Node5</title>
<g id="a_Node000005"><a xlink:title=" ">
<polygon fill="#e0e0e0" stroke="#999999" points="271.88,-20.75 222.88,-20.75 222.88,0 271.88,0 271.88,-20.75"/>
<text xml:space="preserve" text-anchor="middle" x="247.38" y="-7.25" font-family="Helvetica,sans-Serif" font-size="10.00">stdio.h</text>
</a>
</g>
</g>
<!-- Node1&#45;&gt;Node5 -->
<g id="edge4_Node000001_Node000005" class="edge">
<title>Node1&#45;&gt;Node5</title>
<g id="a_edge4_Node000001_Node000005"><a xlink:title=" ">
<path fill="none" stroke="#63b8ff" d="M361.52,-56.34C339.49,-47.66 307.06,-34.88 282.39,-25.17"/>
<polygon fill="#63b8ff" stroke="#63b8ff" points="284.01,-22.04 273.42,-21.63 281.44,-28.55 284.01,-22.04"/>
</a>
</g>
</g>
<!-- Node6 -->
<g id="Node000006" class="node">
<title>Node6</title>
<g id="a_Node000006"><a xlink:title=" ">
<polygon fill="#e0e0e0" stroke="#999999" points="342.38,-20.75 290.38,-20.75 290.38,0 342.38,0 342.38,-20.75"/>
<text xml:space="preserve" text-anchor="middle" x="316.38" y="-7.25" font-family="Helvetica,sans-Serif" font-size="10.00">stdlib.h</text>
</a>
</g>
</g>
<!-- Node1&#45;&gt;Node6 -->
<g id="edge5_Node000001_Node000006" class="edge">
<title>Node1&#45;&gt;Node6</title>
<g id="a_edge5_Node000001_Node000006"><a xlink:title=" ">
<path fill="none" stroke="#63b8ff" d="M373.86,-56.34C363.81,-48.47 349.46,-37.25 337.62,-27.99"/>
<polygon fill="#63b8ff" stroke="#63b8ff" points="340.01,-25.41 329.97,-22.01 335.69,-30.93 340.01,-25.41"/>
</a>
</g>
</g>
<!-- Node7 -->
<g id="Node000007" class="node">
<title>Node7</title>
<g id="a_Node000007"><a xlink:title=" ">
<polygon fill="#e0e0e0" stroke="#999999" points="412.75,-20.75 360,-20.75 360,0 412.75,0 412.75,-20.75"/>
<text xml:space="preserve" text-anchor="middle" x="386.38" y="-7.25" font-family="Helvetica,sans-Serif" font-size="10.00">string.h</text>
</a>
</g>
</g>
<!-- Node1&#45;&gt;Node7 -->
<g id="edge6_Node000001_Node000007" class="edge">
<title>Node1&#45;&gt;Node7</title>
<g id="a_edge6_Node000001_Node000007"><a xlink:title=" ">
<path fill="none" stroke="#63b8ff" d="M386.38,-56.34C386.38,-49.72 386.38,-40.72 386.38,-32.52"/>
<polygon fill="#63b8ff" stroke="#63b8ff" points="389.88,-32.59 386.38,-22.59 382.88,-32.59 389.88,-32.59"/>
</a>
</g>
</g>
<!-- Node8 -->
<g id="Node000008" class="node">
<title>Node8</title>
<g id="a_Node000008"><a xlink:title=" ">
<polygon fill="#e0e0e0" stroke="#999999" points="517.62,-20.75 431.12,-20.75 431.12,0 517.62,0 517.62,-20.75"/>
<text xml:space="preserve" text-anchor="middle" x="474.38" y="-7.25" font-family="Helvetica,sans-Serif" font-size="10.00">sys/resource.h</text>
</a>
</g>
</g>
<!-- Node1&#45;&gt;Node8 -->
<g id="edge7_Node000001_Node000008" class="edge">
<title>Node1&#45;&gt;Node8</title>
<g id="a_edge7_Node000001_Node000008"><a xlink:title=" ">
<path fill="none" stroke="#63b8ff" d="M402.11,-56.34C415.25,-48.16 434.22,-36.36 449.43,-26.9"/>
<polygon fill="#63b8ff" stroke="#63b8ff" points="450.85,-30.13 457.49,-21.88 447.15,-24.19 450.85,-30.13"/>
</a>
</g>
</g>
<!-- Node9 -->
<g id="Node000009" class="node">
<title>Node9</title>
<g id="a_Node000009"><a xlink:title=" ">
<polygon fill="#e0e0e0" stroke="#999999" points="607.12,-20.75 535.62,-20.75 535.62,0 607.12,0 607.12,-20.75"/>
<text xml:space="preserve" text-anchor="middle" x="571.38" y="-7.25" font-family="Helvetica,sans-Serif" font-size="10.00">sys/types.h</text>
</a>
</g>
</g>
<!-- Node1&#45;&gt;Node9 -->
<g id="edge8_Node000001_Node000009" class="edge">
<title>Node1&#45;&gt;Node9</title>
<g id="a_edge8_Node000001_Node000009"><a xlink:title=" ">
<path fill="none" stroke="#63b8ff" d="M414.88,-57.69C444.87,-48.81 492.49,-34.72 527.32,-24.41"/>
<polygon fill="#63b8ff" stroke="#63b8ff" points="528.1,-27.83 536.7,-21.64 526.11,-21.12 528.1,-27.83"/>
</a>
</g>
</g>
<!-- Node10 -->
<g id="Node000010" class="node">
<title>Node10</title>
<g id="a_Node000010"><a xlink:title=" ">
<polygon fill="#e0e0e0" stroke="#999999" points="691.12,-20.75 625.62,-20.75 625.62,0 691.12,0 691.12,-20.75"/>
<text xml:space="preserve" text-anchor="middle" x="658.38" y="-7.25" font-family="Helvetica,sans-Serif" font-size="10.00">sys/wait.h</text>
</a>
</g>
</g>
<!-- Node1&#45;&gt;Node10 -->
<g id="edge9_Node000001_Node000010" class="edge">
<title>Node1&#45;&gt;Node10</title>
<g id="a_edge9_Node000001_Node000010"><a xlink:title=" ">
<path fill="none" stroke="#63b8ff" d="M415.11,-60.69C456.73,-52.78 536.5,-37.41 614.4,-21.12"/>
<polygon fill="#63b8ff" stroke="#63b8ff" points="614.83,-24.61 623.9,-19.13 613.39,-17.76 614.83,-24.61"/>
</a>
</g>
</g>
<!-- Node11 -->
<g id="Node000011" class="node">
<title>Node11</title>
<g id="a_Node000011"><a xlink:title=" ">
<polygon fill="#e0e0e0" stroke="#999999" points="771.62,-20.75 709.12,-20.75 709.12,0 771.62,0 771.62,-20.75"/>
<text xml:space="preserve" text-anchor="middle" x="740.38" y="-7.25" font-family="Helvetica,sans-Serif" font-size="10.00">termios.h</text>
</a>
</g>
</g>
<!-- Node1&#45;&gt;Node11 -->
<g id="edge10_Node000001_Node000011" class="edge">
<title>Node1&#45;&gt;Node11</title>
<g id="a_edge10_Node000001_Node000011"><a xlink:title=" ">
<path fill="none" stroke="#63b8ff" d="M415.09,-62.82C468.65,-56.48 587.67,-41.54 697.69,-21.13"/>
<polygon fill="#63b8ff" stroke="#63b8ff" points="698.32,-24.57 707.5,-19.28 697.03,-17.69 698.32,-24.57"/>
</a>
</g>
</g>
<!-- Node12 -->
<g id="Node000012" class="node">
<title>Node12</title>
<g id="a_Node000012"><a xlink:title=" ">
<polygon fill="#e0e0e0" stroke="#999999" points="844.88,-20.75 789.88,-20.75 789.88,0 844.88,0 844.88,-20.75"/>
<text xml:space="preserve" text-anchor="middle" x="817.38" y="-7.25" font-family="Helvetica,sans-Serif" font-size="10.00">unistd.h</text>
</a>
</g>
</g>
<!-- Node1&#45;&gt;Node12 -->
<g id="edge11_Node000001_Node000012" class="edge">
<title>Node1&#45;&gt;Node12</title>
<g id="a_edge11_Node000001_Node000012"><a xlink:title=" ">
<path fill="none" stroke="#63b8ff" d="M414.75,-64.16C478.16,-59.5 636.28,-46.35 778.5,-20.86"/>
<polygon fill="#63b8ff" stroke="#63b8ff" points="778.88,-24.35 788.09,-19.11 777.63,-17.46 778.88,-24.35"/>
</a>
</g>
</g>
</g>
</svg>
