<?xml version="1.0" encoding="UTF-8" standalone="no"?>
<!DOCTYPE svg PUBLIC "-//W3C//DTD SVG 1.1//EN"
 "http://www.w3.org/Graphics/SVG/1.1/DTD/svg11.dtd">
<!-- Generated by graphviz version 14.1.2 (0)
 -->
<!-- Title: curskeys.c Pages: 1 -->
<svg width="414pt" height="256pt"
 viewBox="0.00 0.00 414.00 256.00" xmlns="http://www.w3.org/2000/svg" xmlns:xlink="http://www.w3.org/1999/xlink">
<g id="graph0" class="graph" transform="scale(1 1) rotate(0) translate(4 251.75)">
<title>curskeys.c</title>
<!-- Node1 -->
<g id="Node000001" class="node">
<title>Node1</title>
<g id="a_Node000001"><a xlink:title="Test Curses Keys.">
<polygon fill="#999999" stroke="#666666" points="221.12,-247.75 154.12,-247.75 154.12,-227 221.12,-227 221.12,-247.75"/>
<text xml:space="preserve" text-anchor="middle" x="187.62" y="-234.25" font-family="Helvetica,sans-Serif" font-size="10.00">curskeys.c</text>
</a>
</g>
</g>
<!-- Node2 -->
<g id="Node000002" class="node">
<title>Node2</title>
<g id="a_Node000002"><a xlink:href="../../de/d55/a00323.html" target="_top" xlink:title="Headder for C&#45;Menu Menu, Form, Pick, and View components.">
<polygon fill="white" stroke="#666666" points="221.5,-191 153.75,-191 153.75,-170.25 221.5,-170.25 221.5,-191"/>
<text xml:space="preserve" text-anchor="middle" x="187.62" y="-177.5" font-family="Helvetica,sans-Serif" font-size="10.00">common.h</text>
</a>
</g>
</g>
<!-- Node1&#45;&gt;Node2 -->
<g id="edge1_Node000001_Node000002" class="edge">
<title>Node1&#45;&gt;Node2</title>
<g id="a_edge1_Node000001_Node000002"><a xlink:title=" ">
<path fill="none" stroke="#63b8ff" d="M187.62,-226.59C187.62,-219.97 187.62,-210.97 187.62,-202.77"/>
<polygon fill="#63b8ff" stroke="#63b8ff" points="191.13,-202.84 187.63,-192.84 184.13,-202.84 191.13,-202.84"/>
</a>
</g>
</g>
<!-- Node3 -->
<g id="Node000003" class="node">
<title>Node3</title>
<g id="a_Node000003"><a xlink:title=" ">
<polygon fill="#e0e0e0" stroke="#999999" points="111.25,-20.75 0,-20.75 0,0 111.25,0 111.25,-20.75"/>
<text xml:space="preserve" text-anchor="middle" x="55.62" y="-7.25" font-family="Helvetica,sans-Serif" font-size="10.00">ncursesw/ncurses.h</text>
</a>
</g>
</g>
<!-- Node1&#45;&gt;Node3 -->
<g id="edge21_Node000001_Node000003" class="edge">
<title>Node1&#45;&gt;Node3</title>
<g id="a_edge21_Node000001_Node000003"><a xlink:title=" ">
<path fill="none" stroke="#63b8ff" d="M176.12,-226.74C150.03,-204.03 87.03,-144.04 65.62,-77.5 60.88,-62.76 58.37,-45.43 57.05,-32.21"/>
<polygon fill="#63b8ff" stroke="#63b8ff" points="60.56,-32.19 56.24,-22.52 53.58,-32.78 60.56,-32.19"/>
</a>
</g>
</g>
<!-- Node13 -->
<g id="Node000013" class="node">
<title>Node13</title>
<g id="a_Node000013"><a xlink:title=" ">
<polygon fill="#e0e0e0" stroke="#999999" points="294.12,-191 239.12,-191 239.12,-170.25 294.12,-170.25 294.12,-191"/>
<text xml:space="preserve" text-anchor="middle" x="266.62" y="-177.5" font-family="Helvetica,sans-Serif" font-size="10.00">unistd.h</text>
</a>
</g>
</g>
<!-- Node1&#45;&gt;Node13 -->
<g id="edge22_Node000001_Node000013" class="edge">
<title>Node1&#45;&gt;Node13</title>
<g id="a_edge22_Node000001_Node000013"><a xlink:title=" ">
<path fill="none" stroke="#63b8ff" d="M201.75,-226.59C213.32,-218.57 229.93,-207.06 243.44,-197.69"/>
<polygon fill="#63b8ff" stroke="#63b8ff" points="245.15,-200.76 251.38,-192.19 241.17,-195.01 245.15,-200.76"/>
</a>
</g>
</g>
<!-- Node2&#45;&gt;Node3 -->
<g id="edge2_Node000002_Node000003" class="edge">
<title>Node2&#45;&gt;Node3</title>
<g id="a_edge2_Node000002_Node000003"><a xlink:title=" ">
<path fill="none" stroke="#63b8ff" d="M164.14,-169.89C147.94,-162.2 126.84,-150.12 112.62,-134.25 85.4,-103.86 68.89,-58.21 61.08,-31.96"/>
<polygon fill="#63b8ff" stroke="#63b8ff" points="64.51,-31.21 58.43,-22.53 57.77,-33.11 64.51,-31.21"/>
</a>
</g>
</g>
<!-- Node4 -->
<g id="Node000004" class="node">
<title>Node4</title>
<g id="a_Node000004"><a xlink:href="../../d8/d23/a00326.html" target="_top" xlink:title="Headder for C&#45;Menu API library, libcm.so.">
<polygon fill="white" stroke="#666666" points="242.62,-77.5 202.62,-77.5 202.62,-56.75 242.62,-56.75 242.62,-77.5"/>
<text xml:space="preserve" text-anchor="middle" x="222.62" y="-64" font-family="Helvetica,sans-Serif" font-size="10.00">cm.h</text>
</a>
</g>
</g>
<!-- Node2&#45;&gt;Node4 -->
<g id="edge3_Node000002_Node000004" class="edge">
<title>Node2&#45;&gt;Node4</title>
<g id="a_edge3_Node000002_Node000004"><a xlink:title=" ">
<path fill="none" stroke="#63b8ff" d="M164.46,-169.93C139.6,-158.06 105.58,-136.66 120.62,-113.5 136.14,-89.62 167.45,-78.2 191.32,-72.81"/>
<polygon fill="#63b8ff" stroke="#63b8ff" points="191.72,-76.3 200.84,-70.91 190.35,-69.43 191.72,-76.3"/>
</a>
</g>
</g>
<!-- Node7 -->
<g id="Node000007" class="node">
<title>Node7</title>
<g id="a_Node000007"><a xlink:title=" ">
<polygon fill="#e0e0e0" stroke="#999999" points="406.12,-20.75 351.12,-20.75 351.12,0 406.12,0 406.12,-20.75"/>
<text xml:space="preserve" text-anchor="middle" x="378.62" y="-7.25" font-family="Helvetica,sans-Serif" font-size="10.00">stddef.h</text>
</a>
</g>
</g>
<!-- Node2&#45;&gt;Node7 -->
<g id="edge20_Node000002_Node000007" class="edge">
<title>Node2&#45;&gt;Node7</title>
<g id="a_edge20_Node000002_Node000007"><a xlink:title=" ">
<path fill="none" stroke="#63b8ff" d="M221.92,-171.11C263.79,-160.44 330.13,-142.55 338.62,-134.25 366.6,-106.9 375.02,-59.8 377.55,-32.54"/>
<polygon fill="#63b8ff" stroke="#63b8ff" points="381.03,-32.98 378.25,-22.75 374.05,-32.48 381.03,-32.98"/>
</a>
</g>
</g>
<!-- Node9 -->
<g id="Node000009" class="node">
<title>Node9</title>
<g id="a_Node000009"><a xlink:href="../../dd/de2/a00320.html" target="_top" xlink:title="Form data structures, enums, types, end external declarations.">
<polygon fill="white" stroke="#666666" points="177.75,-134.25 129.5,-134.25 129.5,-113.5 177.75,-113.5 177.75,-134.25"/>
<text xml:space="preserve" text-anchor="middle" x="153.62" y="-120.75" font-family="Helvetica,sans-Serif" font-size="10.00">form.h</text>
</a>
</g>
</g>
<!-- Node2&#45;&gt;Node9 -->
<g id="edge9_Node000002_Node000009" class="edge">
<title>Node2&#45;&gt;Node9</title>
<g id="a_edge9_Node000002_Node000009"><a xlink:title=" ">
<path fill="none" stroke="#63b8ff" d="M181.55,-169.84C177.15,-162.75 171.05,-152.94 165.68,-144.29"/>
<polygon fill="#63b8ff" stroke="#63b8ff" points="168.7,-142.51 160.45,-135.86 162.75,-146.21 168.7,-142.51"/>
</a>
</g>
</g>
<!-- Node10 -->
<g id="Node000010" class="node">
<title>Node10</title>
<g id="a_Node000010"><a xlink:href="../../da/de0/a00317.html" target="_top" xlink:title="Menu data structures, enums, types, end external declarations.">
<polygon fill="white" stroke="#666666" points="249,-134.25 196.25,-134.25 196.25,-113.5 249,-113.5 249,-134.25"/>
<text xml:space="preserve" text-anchor="middle" x="222.62" y="-120.75" font-family="Helvetica,sans-Serif" font-size="10.00">menu.h</text>
</a>
</g>
</g>
<!-- Node2&#45;&gt;Node10 -->
<g id="edge11_Node000002_Node000010" class="edge">
<title>Node2&#45;&gt;Node10</title>
<g id="a_edge11_Node000002_Node000010"><a xlink:title=" ">
<path fill="none" stroke="#63b8ff" d="M193.88,-169.84C198.46,-162.67 204.82,-152.73 210.39,-144.01"/>
<polygon fill="#63b8ff" stroke="#63b8ff" points="213.17,-146.16 215.61,-135.85 207.27,-142.39 213.17,-146.16"/>
</a>
</g>
</g>
<!-- Node11 -->
<g id="Node000011" class="node">
<title>Node11</title>
<g id="a_Node000011"><a xlink:href="../../d0/d39/a00314.html" target="_top" xlink:title="Pick data structures, enums, types, end external declarations.">
<polygon fill="white" stroke="#666666" points="312.25,-134.25 267,-134.25 267,-113.5 312.25,-113.5 312.25,-134.25"/>
<text xml:space="preserve" text-anchor="middle" x="289.62" y="-120.75" font-family="Helvetica,sans-Serif" font-size="10.00">pick.h</text>
</a>
</g>
</g>
<!-- Node2&#45;&gt;Node11 -->
<g id="edge13_Node000002_Node000011" class="edge">
<title>Node2&#45;&gt;Node11</title>
<g id="a_edge13_Node000002_Node000011"><a xlink:title=" ">
<path fill="none" stroke="#63b8ff" d="M205.86,-169.84C221.31,-161.55 243.71,-149.52 261.46,-139.99"/>
<polygon fill="#63b8ff" stroke="#63b8ff" points="263.06,-143.11 270.21,-135.29 259.75,-136.94 263.06,-143.11"/>
</a>
</g>
</g>
<!-- Node12 -->
<g id="Node000012" class="node">
<title>Node12</title>
<g id="a_Node000012"><a xlink:href="../../d5/d0f/a00308.html" target="_top" xlink:title="View data structures, enums, types, end external declarations.">
<polygon fill="white" stroke="#666666" points="329.38,-77.5 281.88,-77.5 281.88,-56.75 329.38,-56.75 329.38,-77.5"/>
<text xml:space="preserve" text-anchor="middle" x="305.62" y="-64" font-family="Helvetica,sans-Serif" font-size="10.00">view.h</text>
</a>
</g>
</g>
<!-- Node2&#45;&gt;Node12 -->
<g id="edge15_Node000002_Node000012" class="edge">
<title>Node2&#45;&gt;Node12</title>
<g id="a_edge15_Node000002_Node000012"><a xlink:title=" ">
<path fill="none" stroke="#63b8ff" d="M221.77,-170.29C259.45,-159.66 315.6,-142.66 321.62,-134.25 331.5,-120.48 325.28,-101.38 317.91,-87.25"/>
<polygon fill="#63b8ff" stroke="#63b8ff" points="321.1,-85.78 313.05,-78.89 315.05,-89.29 321.1,-85.78"/>
</a>
</g>
</g>
<!-- Node4&#45;&gt;Node3 -->
<g id="edge5_Node000004_Node000003" class="edge">
<title>Node4&#45;&gt;Node3</title>
<g id="a_edge5_Node000004_Node000003"><a xlink:title=" ">
<path fill="none" stroke="#63b8ff" d="M202.15,-59.41C175.93,-50.82 129.91,-35.73 96.42,-24.75"/>
<polygon fill="#63b8ff" stroke="#63b8ff" points="97.62,-21.46 87.03,-21.67 95.44,-28.11 97.62,-21.46"/>
</a>
</g>
</g>
<!-- Node5 -->
<g id="Node000005" class="node">
<title>Node5</title>
<g id="a_Node000005"><a xlink:href="../../d1/d5d/a00311.html" target="_top" xlink:title=" ">
<polygon fill="white" stroke="#666666" points="190.12,-20.75 129.12,-20.75 129.12,0 190.12,0 190.12,-20.75"/>
<text xml:space="preserve" text-anchor="middle" x="159.62" y="-7.25" font-family="Helvetica,sans-Serif" font-size="10.00">version.h</text>
</a>
</g>
</g>
<!-- Node4&#45;&gt;Node5 -->
<g id="edge4_Node000004_Node000005" class="edge">
<title>Node4&#45;&gt;Node5</title>
<g id="a_edge4_Node000004_Node000005"><a xlink:title=" ">
<path fill="none" stroke="#63b8ff" d="M211.36,-56.34C202.49,-48.63 189.91,-37.7 179.38,-28.54"/>
<polygon fill="#63b8ff" stroke="#63b8ff" points="181.78,-25.99 171.93,-22.07 177.19,-31.27 181.78,-25.99"/>
</a>
</g>
</g>
<!-- Node6 -->
<g id="Node000006" class="node">
<title>Node6</title>
<g id="a_Node000006"><a xlink:title=" ">
<polygon fill="#e0e0e0" stroke="#999999" points="332.75,-20.75 278.5,-20.75 278.5,0 332.75,0 332.75,-20.75"/>
<text xml:space="preserve" text-anchor="middle" x="305.62" y="-7.25" font-family="Helvetica,sans-Serif" font-size="10.00">signal.h</text>
</a>
</g>
</g>
<!-- Node4&#45;&gt;Node6 -->
<g id="edge6_Node000004_Node000006" class="edge">
<title>Node4&#45;&gt;Node6</title>
<g id="a_edge6_Node000004_Node000006"><a xlink:title=" ">
<path fill="none" stroke="#63b8ff" d="M237.46,-56.34C249.74,-48.24 267.41,-36.58 281.68,-27.17"/>
<polygon fill="#63b8ff" stroke="#63b8ff" points="283.23,-30.34 289.65,-21.91 279.38,-24.5 283.23,-30.34"/>
</a>
</g>
</g>
<!-- Node4&#45;&gt;Node7 -->
<g id="edge7_Node000004_Node000007" class="edge">
<title>Node4&#45;&gt;Node7</title>
<g id="a_edge7_Node000004_Node000007"><a xlink:title=" ">
<path fill="none" stroke="#63b8ff" d="M243.02,-58.97C267.59,-50.35 309.38,-35.68 340.09,-24.9"/>
<polygon fill="#63b8ff" stroke="#63b8ff" points="341.15,-28.24 349.43,-21.62 338.83,-21.63 341.15,-28.24"/>
</a>
</g>
</g>
<!-- Node8 -->
<g id="Node000008" class="node">
<title>Node8</title>
<g id="a_Node000008"><a xlink:title=" ">
<polygon fill="#e0e0e0" stroke="#999999" points="260.62,-20.75 208.62,-20.75 208.62,0 260.62,0 260.62,-20.75"/>
<text xml:space="preserve" text-anchor="middle" x="234.62" y="-7.25" font-family="Helvetica,sans-Serif" font-size="10.00">stdlib.h</text>
</a>
</g>
</g>
<!-- Node4&#45;&gt;Node8 -->
<g id="edge8_Node000004_Node000008" class="edge">
<title>Node4&#45;&gt;Node8</title>
<g id="a_edge8_Node000004_Node000008"><a xlink:title=" ">
<path fill="none" stroke="#63b8ff" d="M224.77,-56.34C226.24,-49.64 228.24,-40.51 230.05,-32.23"/>
<polygon fill="#63b8ff" stroke="#63b8ff" points="233.45,-33.07 232.17,-22.56 226.61,-31.58 233.45,-33.07"/>
</a>
</g>
</g>
<!-- Node9&#45;&gt;Node4 -->
<g id="edge10_Node000009_Node000004" class="edge">
<title>Node9&#45;&gt;Node4</title>
<g id="a_edge10_Node000009_Node000004"><a xlink:title=" ">
<path fill="none" stroke="#63b8ff" d="M165.96,-113.09C175.87,-105.22 190.01,-94 201.69,-84.74"/>
<polygon fill="#63b8ff" stroke="#63b8ff" points="203.55,-87.73 209.21,-78.77 199.2,-82.24 203.55,-87.73"/>
</a>
</g>
</g>
<!-- Node10&#45;&gt;Node4 -->
<g id="edge12_Node000010_Node000004" class="edge">
<title>Node10&#45;&gt;Node4</title>
<g id="a_edge12_Node000010_Node000004"><a xlink:title=" ">
<path fill="none" stroke="#63b8ff" d="M222.62,-113.09C222.62,-106.47 222.62,-97.47 222.62,-89.27"/>
<polygon fill="#63b8ff" stroke="#63b8ff" points="226.13,-89.34 222.63,-79.34 219.13,-89.34 226.13,-89.34"/>
</a>
</g>
</g>
<!-- Node11&#45;&gt;Node4 -->
<g id="edge14_Node000011_Node000004" class="edge">
<title>Node11&#45;&gt;Node4</title>
<g id="a_edge14_Node000011_Node000004"><a xlink:title=" ">
<path fill="none" stroke="#63b8ff" d="M277.65,-113.09C268.12,-105.3 254.56,-94.22 243.29,-85.01"/>
<polygon fill="#63b8ff" stroke="#63b8ff" points="245.63,-82.4 235.67,-78.79 241.2,-87.82 245.63,-82.4"/>
</a>
</g>
</g>
<!-- Node12&#45;&gt;Node3 -->
<g id="edge16_Node000012_Node000003" class="edge">
<title>Node12&#45;&gt;Node3</title>
<g id="a_edge16_Node000012_Node000003"><a xlink:title=" ">
<path fill="none" stroke="#63b8ff" d="M281.65,-60.88C242.75,-52.35 164.84,-35.29 111.47,-23.6"/>
<polygon fill="#63b8ff" stroke="#63b8ff" points="112.47,-20.24 101.95,-21.52 110.97,-27.08 112.47,-20.24"/>
</a>
</g>
</g>
<!-- Node12&#45;&gt;Node6 -->
<g id="edge17_Node000012_Node000006" class="edge">
<title>Node12&#45;&gt;Node6</title>
<g id="a_edge17_Node000012_Node000006"><a xlink:title=" ">
<path fill="none" stroke="#63b8ff" d="M305.62,-56.34C305.62,-49.72 305.62,-40.72 305.62,-32.52"/>
<polygon fill="#63b8ff" stroke="#63b8ff" points="309.13,-32.59 305.63,-22.59 302.13,-32.59 309.13,-32.59"/>
</a>
</g>
</g>
<!-- Node12&#45;&gt;Node7 -->
<g id="edge18_Node000012_Node000007" class="edge">
<title>Node12&#45;&gt;Node7</title>
<g id="a_edge18_Node000012_Node000007"><a xlink:title=" ">
<path fill="none" stroke="#63b8ff" d="M318.68,-56.34C329.26,-48.4 344.42,-37.03 356.84,-27.71"/>
<polygon fill="#63b8ff" stroke="#63b8ff" points="358.58,-30.79 364.48,-21.99 354.38,-25.19 358.58,-30.79"/>
</a>
</g>
</g>
<!-- Node12&#45;&gt;Node8 -->
<g id="edge19_Node000012_Node000008" class="edge">
<title>Node12&#45;&gt;Node8</title>
<g id="a_edge19_Node000012_Node000008"><a xlink:title=" ">
<path fill="none" stroke="#63b8ff" d="M292.93,-56.34C282.73,-48.47 268.18,-37.25 256.17,-27.99"/>
<polygon fill="#63b8ff" stroke="#63b8ff" points="258.46,-25.34 248.41,-22 254.19,-30.88 258.46,-25.34"/>
</a>
</g>
</g>
</g>
</svg>
