<?xml version="1.0" encoding="UTF-8" standalone="no"?>
<!DOCTYPE svg PUBLIC "-//W3C//DTD SVG 1.1//EN"
 "http://www.w3.org/Graphics/SVG/1.1/DTD/svg11.dtd">
<!-- Generated by graphviz version 14.1.2 (0)
 -->
<!-- Title: src/exec.c Pages: 1 -->
<svg width="723pt" height="86pt"
 viewBox="0.00 0.00 723.00 86.00" xmlns="http://www.w3.org/2000/svg" xmlns:xlink="http://www.w3.org/1999/xlink">
<g id="graph0" class="graph" transform="scale(1 1) rotate(0) translate(4 81.5)">
<title>src/exec.c</title>
<!-- Node1 -->
<g id="Node000001" class="node">
<title>Node1</title>
<g id="a_Node000001"><a xlink:title="Functions to execute external commands.">
<polygon fill="#999999" stroke="#666666" points="358.38,-77.5 293.62,-77.5 293.62,-56.75 358.38,-56.75 358.38,-77.5"/>
<text xml:space="preserve" text-anchor="middle" x="326" y="-64" font-family="Helvetica,sans-Serif" font-size="10.00">src/exec.c</text>
</a>
</g>
</g>
<!-- Node2 -->
<g id="Node000002" class="node">
<title>Node2</title>
<g id="a_Node000002"><a xlink:title=" ">
<polygon fill="#e0e0e0" stroke="#999999" points="40,-20.75 0,-20.75 0,0 40,0 40,-20.75"/>
<text xml:space="preserve" text-anchor="middle" x="20" y="-7.25" font-family="Helvetica,sans-Serif" font-size="10.00">cm.h</text>
</a>
</g>
</g>
<!-- Node1&#45;&gt;Node2 -->
<g id="edge1_Node000001_Node000002" class="edge">
<title>Node1&#45;&gt;Node2</title>
<g id="a_edge1_Node000001_Node000002"><a xlink:title=" ">
<path fill="none" stroke="#63b8ff" d="M293.27,-62.38C243.11,-56.3 144.07,-42.92 51.45,-21.06"/>
<polygon fill="#63b8ff" stroke="#63b8ff" points="52.5,-17.71 41.96,-18.77 50.86,-24.51 52.5,-17.71"/>
</a>
</g>
</g>
<!-- Node3 -->
<g id="Node000003" class="node">
<title>Node3</title>
<g id="a_Node000003"><a xlink:title=" ">
<polygon fill="#e0e0e0" stroke="#999999" points="108.25,-20.75 57.75,-20.75 57.75,0 108.25,0 108.25,-20.75"/>
<text xml:space="preserve" text-anchor="middle" x="83" y="-7.25" font-family="Helvetica,sans-Serif" font-size="10.00">errno.h</text>
</a>
</g>
</g>
<!-- Node1&#45;&gt;Node3 -->
<g id="edge2_Node000001_Node000003" class="edge">
<title>Node1&#45;&gt;Node3</title>
<g id="a_edge2_Node000001_Node000003"><a xlink:title=" ">
<path fill="none" stroke="#63b8ff" d="M293.47,-59.52C254.52,-51.51 187.07,-37.29 119.43,-21.01"/>
<polygon fill="#63b8ff" stroke="#63b8ff" points="120.59,-17.69 110.05,-18.73 118.94,-24.49 120.59,-17.69"/>
</a>
</g>
</g>
<!-- Node4 -->
<g id="Node000004" class="node">
<title>Node4</title>
<g id="a_Node000004"><a xlink:title=" ">
<polygon fill="#e0e0e0" stroke="#999999" points="173.38,-20.75 126.62,-20.75 126.62,0 173.38,0 173.38,-20.75"/>
<text xml:space="preserve" text-anchor="middle" x="150" y="-7.25" font-family="Helvetica,sans-Serif" font-size="10.00">fcntl.h</text>
</a>
</g>
</g>
<!-- Node1&#45;&gt;Node4 -->
<g id="edge3_Node000001_Node000004" class="edge">
<title>Node1&#45;&gt;Node4</title>
<g id="a_edge3_Node000001_Node000004"><a xlink:title=" ">
<path fill="none" stroke="#63b8ff" d="M294.53,-56.34C263.58,-46.71 216.44,-32.04 184.48,-22.1"/>
<polygon fill="#63b8ff" stroke="#63b8ff" points="185.89,-18.88 175.3,-19.25 183.81,-25.56 185.89,-18.88"/>
</a>
</g>
</g>
<!-- Node5 -->
<g id="Node000005" class="node">
<title>Node5</title>
<g id="a_Node000005"><a xlink:title=" ">
<polygon fill="#e0e0e0" stroke="#999999" points="246.5,-20.75 191.5,-20.75 191.5,0 246.5,0 246.5,-20.75"/>
<text xml:space="preserve" text-anchor="middle" x="219" y="-7.25" font-family="Helvetica,sans-Serif" font-size="10.00">stddef.h</text>
</a>
</g>
</g>
<!-- Node1&#45;&gt;Node5 -->
<g id="edge4_Node000001_Node000005" class="edge">
<title>Node1&#45;&gt;Node5</title>
<g id="a_edge4_Node000001_Node000005"><a xlink:title=" ">
<path fill="none" stroke="#63b8ff" d="M306.87,-56.34C290.51,-47.97 266.72,-35.79 248.02,-26.22"/>
<polygon fill="#63b8ff" stroke="#63b8ff" points="249.81,-23.21 239.31,-21.77 246.62,-29.44 249.81,-23.21"/>
</a>
</g>
</g>
<!-- Node6 -->
<g id="Node000006" class="node">
<title>Node6</title>
<g id="a_Node000006"><a xlink:title=" ">
<polygon fill="#e0e0e0" stroke="#999999" points="317,-20.75 265,-20.75 265,0 317,0 317,-20.75"/>
<text xml:space="preserve" text-anchor="middle" x="291" y="-7.25" font-family="Helvetica,sans-Serif" font-size="10.00">stdlib.h</text>
</a>
</g>
</g>
<!-- Node1&#45;&gt;Node6 -->
<g id="edge5_Node000001_Node000006" class="edge">
<title>Node1&#45;&gt;Node6</title>
<g id="a_edge5_Node000001_Node000006"><a xlink:title=" ">
<path fill="none" stroke="#63b8ff" d="M319.74,-56.34C315.16,-49.17 308.8,-39.23 303.23,-30.51"/>
<polygon fill="#63b8ff" stroke="#63b8ff" points="306.35,-28.89 298.02,-22.35 300.46,-32.66 306.35,-28.89"/>
</a>
</g>
</g>
<!-- Node7 -->
<g id="Node000007" class="node">
<title>Node7</title>
<g id="a_Node000007"><a xlink:title=" ">
<polygon fill="#e0e0e0" stroke="#999999" points="387.38,-20.75 334.62,-20.75 334.62,0 387.38,0 387.38,-20.75"/>
<text xml:space="preserve" text-anchor="middle" x="361" y="-7.25" font-family="Helvetica,sans-Serif" font-size="10.00">string.h</text>
</a>
</g>
</g>
<!-- Node1&#45;&gt;Node7 -->
<g id="edge6_Node000001_Node000007" class="edge">
<title>Node1&#45;&gt;Node7</title>
<g id="a_edge6_Node000001_Node000007"><a xlink:title=" ">
<path fill="none" stroke="#63b8ff" d="M332.26,-56.34C336.84,-49.17 343.2,-39.23 348.77,-30.51"/>
<polygon fill="#63b8ff" stroke="#63b8ff" points="351.54,-32.66 353.98,-22.35 345.65,-28.89 351.54,-32.66"/>
</a>
</g>
</g>
<!-- Node8 -->
<g id="Node000008" class="node">
<title>Node8</title>
<g id="a_Node000008"><a xlink:title=" ">
<polygon fill="#e0e0e0" stroke="#999999" points="476.75,-20.75 405.25,-20.75 405.25,0 476.75,0 476.75,-20.75"/>
<text xml:space="preserve" text-anchor="middle" x="441" y="-7.25" font-family="Helvetica,sans-Serif" font-size="10.00">sys/types.h</text>
</a>
</g>
</g>
<!-- Node1&#45;&gt;Node8 -->
<g id="edge7_Node000001_Node000008" class="edge">
<title>Node1&#45;&gt;Node8</title>
<g id="a_edge7_Node000001_Node000008"><a xlink:title=" ">
<path fill="none" stroke="#63b8ff" d="M346.56,-56.34C364.3,-47.89 390.18,-35.57 410.37,-25.96"/>
<polygon fill="#63b8ff" stroke="#63b8ff" points="411.73,-29.19 419.25,-21.73 408.72,-22.87 411.73,-29.19"/>
</a>
</g>
</g>
<!-- Node9 -->
<g id="Node000009" class="node">
<title>Node9</title>
<g id="a_Node000009"><a xlink:title=" ">
<polygon fill="#e0e0e0" stroke="#999999" points="560.75,-20.75 495.25,-20.75 495.25,0 560.75,0 560.75,-20.75"/>
<text xml:space="preserve" text-anchor="middle" x="528" y="-7.25" font-family="Helvetica,sans-Serif" font-size="10.00">sys/wait.h</text>
</a>
</g>
</g>
<!-- Node1&#45;&gt;Node9 -->
<g id="edge8_Node000001_Node000009" class="edge">
<title>Node1&#45;&gt;Node9</title>
<g id="a_edge8_Node000001_Node000009"><a xlink:title=" ">
<path fill="none" stroke="#63b8ff" d="M358.45,-57.33C392.56,-48.08 446.41,-33.49 484.25,-23.23"/>
<polygon fill="#63b8ff" stroke="#63b8ff" points="484.76,-26.72 493.49,-20.73 482.93,-19.97 484.76,-26.72"/>
</a>
</g>
</g>
<!-- Node10 -->
<g id="Node000010" class="node">
<title>Node10</title>
<g id="a_Node000010"><a xlink:title=" ">
<polygon fill="#e0e0e0" stroke="#999999" points="641.25,-20.75 578.75,-20.75 578.75,0 641.25,0 641.25,-20.75"/>
<text xml:space="preserve" text-anchor="middle" x="610" y="-7.25" font-family="Helvetica,sans-Serif" font-size="10.00">termios.h</text>
</a>
</g>
</g>
<!-- Node1&#45;&gt;Node10 -->
<g id="edge9_Node000001_Node000010" class="edge">
<title>Node1&#45;&gt;Node10</title>
<g id="a_edge9_Node000001_Node000010"><a xlink:title=" ">
<path fill="none" stroke="#63b8ff" d="M358.85,-60.51C403.78,-52.73 487.17,-37.91 567.75,-21.15"/>
<polygon fill="#63b8ff" stroke="#63b8ff" points="568.04,-24.67 577.11,-19.19 566.6,-17.82 568.04,-24.67"/>
</a>
</g>
</g>
<!-- Node11 -->
<g id="Node000011" class="node">
<title>Node11</title>
<g id="a_Node000011"><a xlink:title=" ">
<polygon fill="#e0e0e0" stroke="#999999" points="714.5,-20.75 659.5,-20.75 659.5,0 714.5,0 714.5,-20.75"/>
<text xml:space="preserve" text-anchor="middle" x="687" y="-7.25" font-family="Helvetica,sans-Serif" font-size="10.00">unistd.h</text>
</a>
</g>
</g>
<!-- Node1&#45;&gt;Node11 -->
<g id="edge10_Node000001_Node000011" class="edge">
<title>Node1&#45;&gt;Node11</title>
<g id="a_edge10_Node000001_Node000011"><a xlink:title=" ">
<path fill="none" stroke="#63b8ff" d="M358.85,-62.72C415.7,-56.58 536.28,-42.42 648.06,-20.94"/>
<polygon fill="#63b8ff" stroke="#63b8ff" points="648.56,-24.4 657.71,-19.06 647.22,-17.53 648.56,-24.4"/>
</a>
</g>
</g>
</g>
</svg>
