<?xml version="1.0" encoding="UTF-8" standalone="no"?>
<!DOCTYPE svg PUBLIC "-//W3C//DTD SVG 1.1//EN"
 "http://www.w3.org/Graphics/SVG/1.1/DTD/svg11.dtd">
<!-- Generated by graphviz version 14.1.2 (0)
 -->
<!-- Title: main Pages: 1 -->
<svg width="590pt" height="181pt"
 viewBox="0.00 0.00 590.00 181.00" xmlns="http://www.w3.org/2000/svg" xmlns:xlink="http://www.w3.org/1999/xlink">
<g id="graph0" class="graph" transform="scale(1 1) rotate(0) translate(4 176.75)">
<title>main</title>
<!-- Node1 -->
<g id="Node000001" class="node">
<title>Node1</title>
<g id="a_Node000001"><a xlink:title="allows the user to enter a string in cooked mode">
<polygon fill="#999999" stroke="#666666" points="40.75,-97.75 0,-97.75 0,-77 40.75,-77 40.75,-97.75"/>
<text xml:space="preserve" text-anchor="middle" x="20.38" y="-84.25" font-family="Helvetica,sans-Serif" font-size="10.00">main</text>
</a>
</g>
</g>
<!-- Node2 -->
<g id="Node000002" class="node">
<title>Node2</title>
<g id="a_Node000002"><a xlink:href="../../df/d95/a00299.html#a0d6d5d9834cd5c2a9d14349bf7ab6274" target="_top" xlink:title="capture_shell_tioctl() &#45; capture shell terminal settings">
<polygon fill="white" stroke="#666666" points="188,-172.75 76.75,-172.75 76.75,-152 188,-152 188,-172.75"/>
<text xml:space="preserve" text-anchor="middle" x="132.38" y="-159.25" font-family="Helvetica,sans-Serif" font-size="10.00">capture_shell_tioctl</text>
</a>
</g>
</g>
<!-- Node1&#45;&gt;Node2 -->
<g id="edge1_Node000001_Node000002" class="edge">
<title>Node1&#45;&gt;Node2</title>
<g id="a_edge1_Node000001_Node000002"><a xlink:title=" ">
<path fill="none" stroke="#63b8ff" d="M30.74,-97.86C41.13,-109.01 58.81,-126.64 76.75,-138.38 81.33,-141.37 86.35,-144.15 91.43,-146.68"/>
<polygon fill="#63b8ff" stroke="#63b8ff" points="89.9,-149.83 100.44,-150.86 92.85,-143.48 89.9,-149.83"/>
</a>
</g>
</g>
<!-- Node3 -->
<g id="Node000003" class="node">
<title>Node3</title>
<g id="a_Node000003"><a xlink:href="../../df/d95/a00299.html#ac5e3adb304b78910fc77761ef6a743f0" target="_top" xlink:title="restore_shell_tioctl() &#45; restore shell terminal settings">
<polygon fill="white" stroke="#666666" points="581.75,-96.75 472.75,-96.75 472.75,-76 581.75,-76 581.75,-96.75"/>
<text xml:space="preserve" text-anchor="middle" x="527.25" y="-83.25" font-family="Helvetica,sans-Serif" font-size="10.00">restore_shell_tioctl</text>
</a>
</g>
</g>
<!-- Node1&#45;&gt;Node3 -->
<g id="edge2_Node000001_Node000003" class="edge">
<title>Node1&#45;&gt;Node3</title>
<g id="a_edge2_Node000001_Node000003"><a xlink:title=" ">
<path fill="none" stroke="#63b8ff" d="M40.84,-88.08C100.23,-90.12 284.28,-95.63 436.75,-91.38 444.57,-91.16 452.78,-90.83 460.91,-90.45"/>
<polygon fill="#63b8ff" stroke="#63b8ff" points="460.99,-93.95 470.81,-89.95 460.64,-86.96 460.99,-93.95"/>
</a>
</g>
</g>
<!-- Node4 -->
<g id="Node000004" class="node">
<title>Node4</title>
<g id="a_Node000004"><a xlink:href="../../d3/d1a/a00251.html#a06c1eb6cf3649dc187115565409f91af" target="_top" xlink:title="Set signal handlers to default behavior.">
<polygon fill="white" stroke="#666666" points="567.88,-20.75 486.62,-20.75 486.62,0 567.88,0 567.88,-20.75"/>
<text xml:space="preserve" text-anchor="middle" x="527.25" y="-7.25" font-family="Helvetica,sans-Serif" font-size="10.00">sig_dfl_mode</text>
</a>
</g>
</g>
<!-- Node1&#45;&gt;Node4 -->
<g id="edge3_Node000001_Node000004" class="edge">
<title>Node1&#45;&gt;Node4</title>
<g id="a_edge3_Node000001_Node000004"><a xlink:title=" ">
<path fill="none" stroke="#63b8ff" d="M34.25,-76.63C45.01,-68.15 61.07,-56.57 76.75,-49.38 223.07,17.76 275.77,-8.48 436.75,-9.38 449.12,-9.44 462.46,-9.57 474.96,-9.7"/>
<polygon fill="#63b8ff" stroke="#63b8ff" points="474.6,-13.2 484.64,-9.81 474.68,-6.2 474.6,-13.2"/>
</a>
</g>
</g>
<!-- Node5 -->
<g id="Node000005" class="node">
<title>Node5</title>
<g id="a_Node000005"><a xlink:href="../../d3/d1a/a00251.html#aca2de03f6d52d4b11237990e4e605177" target="_top" xlink:title="Set up signal handlers for interrupt signals.">
<polygon fill="white" stroke="#666666" points="177.5,-78.75 87.25,-78.75 87.25,-58 177.5,-58 177.5,-78.75"/>
<text xml:space="preserve" text-anchor="middle" x="132.38" y="-65.25" font-family="Helvetica,sans-Serif" font-size="10.00">sig_prog_mode</text>
</a>
</g>
</g>
<!-- Node1&#45;&gt;Node5 -->
<g id="edge4_Node000001_Node000005" class="edge">
<title>Node1&#45;&gt;Node5</title>
<g id="a_edge4_Node000001_Node000005"><a xlink:title=" ">
<path fill="none" stroke="#63b8ff" d="M41.04,-83.98C50.79,-82.29 63.1,-80.17 75.48,-78.03"/>
<polygon fill="#63b8ff" stroke="#63b8ff" points="76.04,-81.49 85.29,-76.33 74.84,-74.59 76.04,-81.49"/>
</a>
</g>
</g>
<!-- Node6 -->
<g id="Node000006" class="node">
<title>Node6</title>
<g id="a_Node000006"><a xlink:href="../../d6/d82/a00293.html#a8f6c45ca4a7f6a41c4c88314e697565a" target="_top" xlink:title="Abnormal program termination.">
<polygon fill="white" stroke="#666666" points="290.62,-78.75 244.62,-78.75 244.62,-58 290.62,-58 290.62,-78.75"/>
<text xml:space="preserve" text-anchor="middle" x="267.62" y="-65.25" font-family="Helvetica,sans-Serif" font-size="10.00">abend</text>
</a>
</g>
</g>
<!-- Node5&#45;&gt;Node6 -->
<g id="edge5_Node000005_Node000006" class="edge">
<title>Node5&#45;&gt;Node6</title>
<g id="a_edge5_Node000005_Node000006"><a xlink:title=" ">
<path fill="none" stroke="#63b8ff" d="M177.75,-68.38C195.78,-68.38 216.27,-68.38 233.03,-68.38"/>
<polygon fill="#63b8ff" stroke="#63b8ff" points="232.97,-71.88 242.97,-68.38 232.97,-64.88 232.97,-71.88"/>
</a>
</g>
</g>
<!-- Node8 -->
<g id="Node000008" class="node">
<title>Node8</title>
<g id="a_Node000008"><a xlink:href="../../d3/d1a/a00251.html#aa08a9a8dede37c66c81c3f51a0f338a9" target="_top" xlink:title="Signal handler for interrupt signals.">
<polygon fill="white" stroke="#666666" points="311.25,-39.75 224,-39.75 224,-19 311.25,-19 311.25,-39.75"/>
<text xml:space="preserve" text-anchor="middle" x="267.62" y="-26.25" font-family="Helvetica,sans-Serif" font-size="10.00">signal_handler</text>
</a>
</g>
</g>
<!-- Node5&#45;&gt;Node8 -->
<g id="edge11_Node000005_Node000008" class="edge">
<title>Node5&#45;&gt;Node8</title>
<g id="a_edge11_Node000005_Node000008"><a xlink:title=" ">
<path fill="none" stroke="#63b8ff" d="M170.49,-57.51C185.51,-53.12 203.03,-47.99 218.97,-43.32"/>
<polygon fill="#63b8ff" stroke="#63b8ff" points="219.64,-46.77 228.25,-40.61 217.67,-40.06 219.64,-46.77"/>
</a>
</g>
</g>
<!-- Node6&#45;&gt;Node3 -->
<g id="edge9_Node000006_Node000003" class="edge">
<title>Node6&#45;&gt;Node3</title>
<g id="a_edge9_Node000006_Node000003"><a xlink:title=" ">
<path fill="none" stroke="#63b8ff" d="M291.04,-69.94C328.55,-72.56 405.39,-77.93 461.07,-81.82"/>
<polygon fill="#63b8ff" stroke="#63b8ff" points="460.52,-85.29 470.74,-82.5 461.01,-78.31 460.52,-85.29"/>
</a>
</g>
</g>
<!-- Node6&#45;&gt;Node4 -->
<g id="edge10_Node000006_Node000004" class="edge">
<title>Node6&#45;&gt;Node4</title>
<g id="a_edge10_Node000006_Node000004"><a xlink:title=" ">
<path fill="none" stroke="#63b8ff" d="M290.84,-58.19C297.44,-55.1 304.66,-51.66 311.25,-48.38 327.44,-40.31 329.94,-34.65 347.25,-29.38 389.06,-16.64 438.62,-12.15 474.97,-10.69"/>
<polygon fill="#63b8ff" stroke="#63b8ff" points="474.89,-14.2 484.77,-10.37 474.66,-7.2 474.89,-14.2"/>
</a>
</g>
</g>
<!-- Node7 -->
<g id="Node000007" class="node">
<title>Node7</title>
<g id="a_Node000007"><a xlink:href="../../d6/d82/a00293.html#afc0985a403e3eac0b2cd8f0fab500256" target="_top" xlink:title="Gracefully shut down NCurses and restore terminal settings.">
<polygon fill="white" stroke="#666666" points="436.75,-58.75 347.25,-58.75 347.25,-38 436.75,-38 436.75,-58.75"/>
<text xml:space="preserve" text-anchor="middle" x="392" y="-45.25" font-family="Helvetica,sans-Serif" font-size="10.00">destroy_curses</text>
</a>
</g>
</g>
<!-- Node6&#45;&gt;Node7 -->
<g id="edge6_Node000006_Node000007" class="edge">
<title>Node6&#45;&gt;Node7</title>
<g id="a_edge6_Node000006_Node000007"><a xlink:title=" ">
<path fill="none" stroke="#63b8ff" d="M291.07,-64.71C303.62,-62.66 319.86,-60 335.59,-57.43"/>
<polygon fill="#63b8ff" stroke="#63b8ff" points="336.09,-60.9 345.4,-55.83 334.96,-53.99 336.09,-60.9"/>
</a>
</g>
</g>
<!-- Node7&#45;&gt;Node3 -->
<g id="edge7_Node000007_Node000003" class="edge">
<title>Node7&#45;&gt;Node3</title>
<g id="a_edge7_Node000007_Node000003"><a xlink:title=" ">
<path fill="none" stroke="#63b8ff" d="M430.83,-59.16C445.32,-63.29 462.05,-68.07 477.43,-72.45"/>
<polygon fill="#63b8ff" stroke="#63b8ff" points="476.3,-75.77 486.87,-75.15 478.22,-69.04 476.3,-75.77"/>
</a>
</g>
</g>
<!-- Node7&#45;&gt;Node4 -->
<g id="edge8_Node000007_Node000004" class="edge">
<title>Node7&#45;&gt;Node4</title>
<g id="a_edge8_Node000007_Node000004"><a xlink:title=" ">
<path fill="none" stroke="#63b8ff" d="M430.83,-37.59C445.32,-33.46 462.05,-28.68 477.43,-24.3"/>
<polygon fill="#63b8ff" stroke="#63b8ff" points="478.22,-27.71 486.87,-21.6 476.3,-20.98 478.22,-27.71"/>
</a>
</g>
</g>
</g>
</svg>
