<?xml version="1.0" encoding="UTF-8" standalone="no"?>
<!DOCTYPE svg PUBLIC "-//W3C//DTD SVG 1.1//EN"
 "http://www.w3.org/Graphics/SVG/1.1/DTD/svg11.dtd">
<!-- Generated by graphviz version 14.1.2 (0)
 -->
<!-- Title: verify_spec_arg Pages: 1 -->
<svg width="935pt" height="848pt"
 viewBox="0.00 0.00 935.00 848.00" xmlns="http://www.w3.org/2000/svg" xmlns:xlink="http://www.w3.org/1999/xlink">
<g id="graph0" class="graph" transform="scale(1 1) rotate(0) translate(4 844.08)">
<title>verify_spec_arg</title>
<!-- Node1 -->
<g id="Node000001" class="node">
<title>Node1</title>
<g id="a_Node000001"><a xlink:title="Verify file specification argument.">
<polygon fill="#999999" stroke="#666666" points="93.25,-679.46 0,-679.46 0,-658.71 93.25,-658.71 93.25,-679.46"/>
<text xml:space="preserve" text-anchor="middle" x="46.62" y="-665.96" font-family="Helvetica,sans-Serif" font-size="10.00">verify_spec_arg</text>
</a>
</g>
</g>
<!-- Node2 -->
<g id="Node000002" class="node">
<title>Node2</title>
<g id="a_Node000002"><a xlink:href="../../dc/d5d/a00278.html#a0d44c51feb7f300fecb49dbf223a62f8" target="_top" xlink:title="Removes quotes and trims at first space.">
<polygon fill="white" stroke="#666666" points="399,-736.46 273.5,-736.46 273.5,-715.71 399,-715.71 399,-736.46"/>
<text xml:space="preserve" text-anchor="middle" x="336.25" y="-722.96" font-family="Helvetica,sans-Serif" font-size="10.00">canonicalize_file_spec</text>
</a>
</g>
</g>
<!-- Node1&#45;&gt;Node2 -->
<g id="edge1_Node000001_Node000002" class="edge">
<title>Node1&#45;&gt;Node2</title>
<g id="a_edge1_Node000001_Node000002"><a xlink:title=" ">
<path fill="none" stroke="#63b8ff" d="M69.6,-679.85C85.73,-687.28 108.37,-696.75 129.25,-702.08 172.43,-713.11 222.02,-719.09 261.72,-722.31"/>
<polygon fill="#63b8ff" stroke="#63b8ff" points="261.42,-725.8 271.66,-723.08 261.96,-718.82 261.42,-725.8"/>
</a>
</g>
</g>
<!-- Node3 -->
<g id="Node000003" class="node">
<title>Node3</title>
<g id="a_Node000003"><a xlink:href="../../dc/d5d/a00278.html#a0de2e40df9bd7efc8fd9afb8ad2257e6" target="_top" xlink:title="safer alternative to strncpy">
<polygon fill="white" stroke="#666666" points="771.38,-546.46 703.62,-546.46 703.62,-525.71 771.38,-525.71 771.38,-546.46"/>
<text xml:space="preserve" text-anchor="middle" x="737.5" y="-532.96" font-family="Helvetica,sans-Serif" font-size="10.00">strnz__cpy</text>
</a>
</g>
</g>
<!-- Node1&#45;&gt;Node3 -->
<g id="edge12_Node000001_Node000003" class="edge">
<title>Node1&#45;&gt;Node3</title>
<g id="a_edge12_Node000001_Node000003"><a xlink:title=" ">
<path fill="none" stroke="#63b8ff" d="M52.21,-679.73C62.52,-702.38 89.74,-755.48 129.25,-783.08 207.13,-837.47 240.25,-840.08 335.25,-840.08 335.25,-840.08 335.25,-840.08 482.62,-840.08 567.98,-840.08 599.23,-822.14 656.75,-759.08 710.72,-699.91 728.73,-601.69 734.26,-558.09"/>
<polygon fill="#63b8ff" stroke="#63b8ff" points="737.71,-558.71 735.38,-548.37 730.76,-557.9 737.71,-558.71"/>
</a>
</g>
</g>
<!-- Node4 -->
<g id="Node000004" class="node">
<title>Node4</title>
<g id="a_Node000004"><a xlink:href="../../dc/d5d/a00278.html#ad7f9941ba28a6cca3ccce953c4d77e32" target="_top" xlink:title="Replace Leading Tilde With Home Directory.">
<polygon fill="white" stroke="#666666" points="375.75,-584.46 296.75,-584.46 296.75,-563.71 375.75,-563.71 375.75,-584.46"/>
<text xml:space="preserve" text-anchor="middle" x="336.25" y="-570.96" font-family="Helvetica,sans-Serif" font-size="10.00">expand_tilde</text>
</a>
</g>
</g>
<!-- Node1&#45;&gt;Node4 -->
<g id="edge3_Node000001_Node000004" class="edge">
<title>Node1&#45;&gt;Node4</title>
<g id="a_edge3_Node000001_Node000004"><a xlink:title=" ">
<path fill="none" stroke="#63b8ff" d="M93.69,-664.19C132.89,-659.01 190.2,-649.03 237.5,-631.08 264.12,-620.98 291.94,-604.04 311.06,-591.25"/>
<polygon fill="#63b8ff" stroke="#63b8ff" points="312.93,-594.2 319.21,-585.67 308.98,-588.42 312.93,-594.2"/>
</a>
</g>
</g>
<!-- Node5 -->
<g id="Node000005" class="node">
<title>Node5</title>
<g id="a_Node000005"><a xlink:href="../../dc/d5d/a00278.html#aa0145c044cfdde3a1c83323410a59f25" target="_top" xlink:title="safer alternative to strncat">
<polygon fill="white" stroke="#666666" points="643.25,-679.46 577.75,-679.46 577.75,-658.71 643.25,-658.71 643.25,-679.46"/>
<text xml:space="preserve" text-anchor="middle" x="610.5" y="-665.96" font-family="Helvetica,sans-Serif" font-size="10.00">strnz__cat</text>
</a>
</g>
</g>
<!-- Node1&#45;&gt;Node5 -->
<g id="edge11_Node000001_Node000005" class="edge">
<title>Node1&#45;&gt;Node5</title>
<g id="a_edge11_Node000001_Node000005"><a xlink:title=" ">
<path fill="none" stroke="#63b8ff" d="M93.61,-669.08C200.1,-669.08 462.5,-669.08 566.26,-669.08"/>
<polygon fill="#63b8ff" stroke="#63b8ff" points="566.02,-672.58 576.02,-669.08 566.02,-665.58 566.02,-672.58"/>
</a>
</g>
</g>
<!-- Node6 -->
<g id="Node000006" class="node">
<title>Node6</title>
<g id="a_Node000006"><a xlink:href="../../dc/d5d/a00278.html#a02792428710078b7a2ca59ef70ae83fa" target="_top" xlink:title="Locates a file in the system PATH.">
<polygon fill="white" stroke="#666666" points="237.5,-774.46 129.25,-774.46 129.25,-753.71 237.5,-753.71 237.5,-774.46"/>
<text xml:space="preserve" text-anchor="middle" x="183.38" y="-760.96" font-family="Helvetica,sans-Serif" font-size="10.00">locate_file_in_path</text>
</a>
</g>
</g>
<!-- Node1&#45;&gt;Node6 -->
<g id="edge6_Node000001_Node000006" class="edge">
<title>Node1&#45;&gt;Node6</title>
<g id="a_edge6_Node000001_Node000006"><a xlink:title=" ">
<path fill="none" stroke="#63b8ff" d="M57.9,-679.81C72.64,-694.76 101.11,-722.04 129.25,-740.08 133.85,-743.03 138.88,-745.81 143.95,-748.35"/>
<polygon fill="#63b8ff" stroke="#63b8ff" points="142.37,-751.47 152.91,-752.57 145.36,-745.14 142.37,-751.47"/>
</a>
</g>
</g>
<!-- Node7 -->
<g id="Node000007" class="node">
<title>Node7</title>
<g id="a_Node000007"><a xlink:href="../../dc/d5d/a00278.html#a32204f694cf5e28c888a1045a1b383a4" target="_top" xlink:title="removes leading and trailing double quotes if present">
<polygon fill="white" stroke="#666666" points="224,-622.46 142.75,-622.46 142.75,-601.71 224,-601.71 224,-622.46"/>
<text xml:space="preserve" text-anchor="middle" x="183.38" y="-608.96" font-family="Helvetica,sans-Serif" font-size="10.00">stripz_quotes</text>
</a>
</g>
</g>
<!-- Node1&#45;&gt;Node7 -->
<g id="edge10_Node000001_Node000007" class="edge">
<title>Node1&#45;&gt;Node7</title>
<g id="a_edge10_Node000001_Node000007"><a xlink:title=" ">
<path fill="none" stroke="#63b8ff" d="M73.29,-658.22C93.99,-649.47 123.35,-637.05 146.39,-627.3"/>
<polygon fill="#63b8ff" stroke="#63b8ff" points="147.57,-630.6 155.41,-623.48 144.84,-624.16 147.57,-630.6"/>
</a>
</g>
</g>
<!-- Node8 -->
<g id="Node000008" class="node">
<title>Node8</title>
<g id="a_Node000008"><a xlink:href="../../dc/d5d/a00278.html#ae14a4e790b69c8c2e50d1eb5cdf1fd19" target="_top" xlink:title="Verifies that the directory specified by &quot;spec&quot; exists and is accessible with the permissions specifi...">
<polygon fill="white" stroke="#666666" points="214.62,-508.46 152.12,-508.46 152.12,-487.71 214.62,-487.71 214.62,-508.46"/>
<text xml:space="preserve" text-anchor="middle" x="183.38" y="-494.96" font-family="Helvetica,sans-Serif" font-size="10.00">verify_dir</text>
</a>
</g>
</g>
<!-- Node1&#45;&gt;Node8 -->
<g id="edge13_Node000001_Node000008" class="edge">
<title>Node1&#45;&gt;Node8</title>
<g id="a_edge13_Node000001_Node000008"><a xlink:title=" ">
<path fill="none" stroke="#63b8ff" d="M52.33,-658.46C63.27,-634.6 92.31,-575.72 129.25,-536.08 136.55,-528.24 145.7,-521.02 154.33,-515.02"/>
<polygon fill="#63b8ff" stroke="#63b8ff" points="156.07,-518.07 162.48,-509.63 152.2,-512.23 156.07,-518.07"/>
</a>
</g>
</g>
<!-- Node26 -->
<g id="Node000026" class="node">
<title>Node26</title>
<g id="a_Node000026"><a xlink:href="../../dc/d5d/a00278.html#ab190e75e095b7d3da114fce21ab8c8ea" target="_top" xlink:title="Verifies that the file specified by &quot;in_spec&quot; exists and is accessible with the permissions specified...">
<polygon fill="white" stroke="#666666" points="216.12,-565.46 150.62,-565.46 150.62,-544.71 216.12,-544.71 216.12,-565.46"/>
<text xml:space="preserve" text-anchor="middle" x="183.38" y="-551.96" font-family="Helvetica,sans-Serif" font-size="10.00">verify_file</text>
</a>
</g>
</g>
<!-- Node1&#45;&gt;Node26 -->
<g id="edge45_Node000001_Node000026" class="edge">
<title>Node1&#45;&gt;Node26</title>
<g id="a_edge45_Node000001_Node000026"><a xlink:title=" ">
<path fill="none" stroke="#63b8ff" d="M58.31,-658.29C73.53,-643.12 102.57,-614.89 129.25,-593.08 138.02,-585.91 148.03,-578.55 156.98,-572.24"/>
<polygon fill="#63b8ff" stroke="#63b8ff" points="158.71,-575.31 164.93,-566.73 154.72,-569.56 158.71,-575.31"/>
</a>
</g>
</g>
<!-- Node2&#45;&gt;Node3 -->
<g id="edge2_Node000002_Node000003" class="edge">
<title>Node2&#45;&gt;Node3</title>
<g id="a_edge2_Node000002_Node000003"><a xlink:title=" ">
<path fill="none" stroke="#63b8ff" d="M399.32,-734.76C468.37,-741.03 580.26,-740.75 656.75,-688.08 702,-656.92 723.44,-591.81 731.89,-557.81"/>
<polygon fill="#63b8ff" stroke="#63b8ff" points="735.25,-558.82 734.1,-548.28 728.43,-557.24 735.25,-558.82"/>
</a>
</g>
</g>
<!-- Node4&#45;&gt;Node3 -->
<g id="edge5_Node000004_Node000003" class="edge">
<title>Node4&#45;&gt;Node3</title>
<g id="a_edge5_Node000004_Node000003"><a xlink:title=" ">
<path fill="none" stroke="#63b8ff" d="M376.23,-572.4C436.53,-569.51 556.02,-562.67 656.75,-550.08 668.26,-548.64 680.63,-546.68 692.12,-544.67"/>
<polygon fill="#63b8ff" stroke="#63b8ff" points="692.53,-548.16 701.75,-542.94 691.29,-541.27 692.53,-548.16"/>
</a>
</g>
</g>
<!-- Node4&#45;&gt;Node5 -->
<g id="edge4_Node000004_Node000005" class="edge">
<title>Node4&#45;&gt;Node5</title>
<g id="a_edge4_Node000004_Node000005"><a xlink:title=" ">
<path fill="none" stroke="#63b8ff" d="M352.07,-584.73C370.6,-597.56 403.69,-618.9 435,-631.08 478.15,-647.87 530.34,-658.01 566.34,-663.53"/>
<polygon fill="#63b8ff" stroke="#63b8ff" points="565.52,-666.95 575.93,-664.95 566.54,-660.03 565.52,-666.95"/>
</a>
</g>
</g>
<!-- Node6&#45;&gt;Node2 -->
<g id="edge7_Node000006_Node000002" class="edge">
<title>Node6&#45;&gt;Node2</title>
<g id="a_edge7_Node000006_Node000002"><a xlink:title=" ">
<path fill="none" stroke="#63b8ff" d="M227.21,-753.29C244.01,-749.06 263.48,-744.16 281.23,-739.69"/>
<polygon fill="#63b8ff" stroke="#63b8ff" points="282,-743.1 290.84,-737.26 280.29,-736.31 282,-743.1"/>
</a>
</g>
</g>
<!-- Node6&#45;&gt;Node3 -->
<g id="edge9_Node000006_Node000003" class="edge">
<title>Node6&#45;&gt;Node3</title>
<g id="a_edge9_Node000006_Node000003"><a xlink:title=" ">
<path fill="none" stroke="#63b8ff" d="M230.62,-774.91C322.7,-793.56 530.9,-820.82 656.75,-721.08 709.07,-679.61 727.71,-597.13 733.8,-557.85"/>
<polygon fill="#63b8ff" stroke="#63b8ff" points="737.26,-558.4 735.18,-548.01 730.33,-557.43 737.26,-558.4"/>
</a>
</g>
</g>
<!-- Node6&#45;&gt;Node5 -->
<g id="edge8_Node000006_Node000005" class="edge">
<title>Node6&#45;&gt;Node5</title>
<g id="a_edge8_Node000006_Node000005"><a xlink:title=" ">
<path fill="none" stroke="#63b8ff" d="M237.8,-762.8C281.53,-760.93 344.79,-756.34 399,-745.08 458.28,-732.77 471.45,-723.04 528.25,-702.08 543.27,-696.54 559.67,-689.98 573.77,-684.17"/>
<polygon fill="#63b8ff" stroke="#63b8ff" points="574.76,-687.55 582.65,-680.49 572.07,-681.09 574.76,-687.55"/>
</a>
</g>
</g>
<!-- Node8&#45;&gt;Node3 -->
<g id="edge44_Node000008_Node000003" class="edge">
<title>Node8&#45;&gt;Node3</title>
<g id="a_edge44_Node000008_Node000003"><a xlink:title=" ">
<path fill="none" stroke="#63b8ff" d="M214.85,-500.18C307.11,-506.53 583.75,-525.57 692.19,-533.03"/>
<polygon fill="#63b8ff" stroke="#63b8ff" points="691.63,-536.5 701.85,-533.7 692.12,-529.52 691.63,-536.5"/>
</a>
</g>
</g>
<!-- Node8&#45;&gt;Node4 -->
<g id="edge42_Node000008_Node000004" class="edge">
<title>Node8&#45;&gt;Node4</title>
<g id="a_edge42_Node000008_Node000004"><a xlink:title=" ">
<path fill="none" stroke="#63b8ff" d="M205.67,-508.81C231.28,-521.71 274.49,-543.47 303.9,-558.29"/>
<polygon fill="#63b8ff" stroke="#63b8ff" points="302.2,-561.35 312.71,-562.73 305.35,-555.1 302.2,-561.35"/>
</a>
</g>
</g>
<!-- Node9 -->
<g id="Node000009" class="node">
<title>Node9</title>
<g id="a_Node000009"><a xlink:href="../../df/d95/a00299.html#a67659f8a701b74f4dec0d36227a10d1c" target="_top" xlink:title="Display an error message window or print to stderr.">
<polygon fill="white" stroke="#666666" points="376.12,-334.46 296.38,-334.46 296.38,-313.71 376.12,-313.71 376.12,-334.46"/>
<text xml:space="preserve" text-anchor="middle" x="336.25" y="-320.96" font-family="Helvetica,sans-Serif" font-size="10.00">display_error</text>
</a>
</g>
</g>
<!-- Node8&#45;&gt;Node9 -->
<g id="edge14_Node000008_Node000009" class="edge">
<title>Node8&#45;&gt;Node9</title>
<g id="a_edge14_Node000008_Node000009"><a xlink:title=" ">
<path fill="none" stroke="#63b8ff" d="M193.59,-487.46C218.48,-458.75 287.33,-379.35 318.97,-342.86"/>
<polygon fill="#63b8ff" stroke="#63b8ff" points="321.26,-345.56 325.17,-335.71 315.97,-340.97 321.26,-345.56"/>
</a>
</g>
</g>
<!-- Node18 -->
<g id="Node000018" class="node">
<title>Node18</title>
<g id="a_Node000018"><a xlink:href="../../dc/d5d/a00278.html#a63eb94756fb011a456a3dec900709cd8" target="_top" xlink:title="ssnprintf was designed to be a safer alternative to snprintf.">
<polygon fill="white" stroke="#666666" points="766.88,-123.46 708.12,-123.46 708.12,-102.71 766.88,-102.71 766.88,-123.46"/>
<text xml:space="preserve" text-anchor="middle" x="737.5" y="-109.96" font-family="Helvetica,sans-Serif" font-size="10.00">ssnprintf</text>
</a>
</g>
</g>
<!-- Node8&#45;&gt;Node18 -->
<g id="edge43_Node000008_Node000018" class="edge">
<title>Node8&#45;&gt;Node18</title>
<g id="a_edge43_Node000008_Node000018"><a xlink:title=" ">
<path fill="none" stroke="#63b8ff" d="M184.81,-487.22C187.55,-425.26 204.53,-117.4 273.5,-61.08 405.43,46.66 493.48,-12.55 656.75,-61.08 679.19,-67.75 701.2,-82.95 716.4,-95.21"/>
<polygon fill="#63b8ff" stroke="#63b8ff" points="713.85,-97.64 723.76,-101.38 718.35,-92.27 713.85,-97.64"/>
</a>
</g>
</g>
<!-- Node9&#45;&gt;Node3 -->
<g id="edge30_Node000009_Node000003" class="edge">
<title>Node9&#45;&gt;Node3</title>
<g id="a_edge30_Node000009_Node000003"><a xlink:title=" ">
<path fill="none" stroke="#63b8ff" d="M342.88,-334.92C355.73,-358.46 389.64,-414.31 435,-441.08 521.46,-492.11 563.7,-446.41 656.75,-484.08 677.94,-492.66 699.51,-507.14 714.86,-518.65"/>
<polygon fill="#63b8ff" stroke="#63b8ff" points="712.31,-521.1 722.36,-524.43 716.58,-515.55 712.31,-521.1"/>
</a>
</g>
</g>
<!-- Node10 -->
<g id="Node000010" class="node">
<title>Node10</title>
<g id="a_Node000010"><a xlink:href="../../df/d95/a00299.html#a8f6c45ca4a7f6a41c4c88314e697565a" target="_top" xlink:title="Abnormal program termination.">
<polygon fill="white" stroke="#666666" points="633.5,-219.46 587.5,-219.46 587.5,-198.71 633.5,-198.71 633.5,-219.46"/>
<text xml:space="preserve" text-anchor="middle" x="610.5" y="-205.96" font-family="Helvetica,sans-Serif" font-size="10.00">abend</text>
</a>
</g>
</g>
<!-- Node9&#45;&gt;Node10 -->
<g id="edge15_Node000009_Node000010" class="edge">
<title>Node9&#45;&gt;Node10</title>
<g id="a_edge15_Node000009_Node000010"><a xlink:title=" ">
<path fill="none" stroke="#63b8ff" d="M342.2,-313.41C354.12,-289.18 387,-230.4 435,-208.08 480.24,-187.04 539.48,-193.48 576,-200.76"/>
<polygon fill="#63b8ff" stroke="#63b8ff" points="575.01,-204.13 585.52,-202.8 576.48,-197.28 575.01,-204.13"/>
</a>
</g>
</g>
<!-- Node14 -->
<g id="Node000014" class="node">
<title>Node14</title>
<g id="a_Node000014"><a xlink:href="../../df/d95/a00299.html#a645871e46277e31736bc36d0f3dce4bd" target="_top" xlink:title="construct the chyron string from the chyron structure">
<polygon fill="white" stroke="#666666" points="528.25,-622.46 435,-622.46 435,-601.71 528.25,-601.71 528.25,-622.46"/>
<text xml:space="preserve" text-anchor="middle" x="481.62" y="-608.96" font-family="Helvetica,sans-Serif" font-size="10.00">compile_chyron</text>
</a>
</g>
</g>
<!-- Node9&#45;&gt;Node14 -->
<g id="edge21_Node000009_Node000014" class="edge">
<title>Node9&#45;&gt;Node14</title>
<g id="a_edge21_Node000009_Node000014"><a xlink:title=" ">
<path fill="none" stroke="#63b8ff" d="M342.52,-334.67C363.6,-377.01 442.02,-534.53 470.34,-591.42"/>
<polygon fill="#63b8ff" stroke="#63b8ff" points="467.04,-592.65 474.63,-600.04 473.31,-589.53 467.04,-592.65"/>
</a>
</g>
</g>
<!-- Node15 -->
<g id="Node000015" class="node">
<title>Node15</title>
<g id="a_Node000015"><a xlink:href="../../df/d95/a00299.html#a3f3feb40fd703913c5c136331f627c91" target="_top" xlink:title="Destroy Chyron structure.">
<polygon fill="white" stroke="#666666" points="527.12,-393.46 436.12,-393.46 436.12,-372.71 527.12,-372.71 527.12,-393.46"/>
<text xml:space="preserve" text-anchor="middle" x="481.62" y="-379.96" font-family="Helvetica,sans-Serif" font-size="10.00">destroy_chyron</text>
</a>
</g>
</g>
<!-- Node9&#45;&gt;Node15 -->
<g id="edge23_Node000009_Node000015" class="edge">
<title>Node9&#45;&gt;Node15</title>
<g id="a_edge23_Node000009_Node000015"><a xlink:title=" ">
<path fill="none" stroke="#63b8ff" d="M363.55,-334.9C386.08,-344.17 418.78,-357.63 443.9,-367.97"/>
<polygon fill="#63b8ff" stroke="#63b8ff" points="442.52,-371.18 453.09,-371.75 445.18,-364.71 442.52,-371.18"/>
</a>
</g>
</g>
<!-- Node16 -->
<g id="Node000016" class="node">
<title>Node16</title>
<g id="a_Node000016"><a xlink:href="../../df/d95/a00299.html#ad37d5808ff30ae6894780425d865abae" target="_top" xlink:title="Create and initialize Chyron structure.">
<polygon fill="white" stroke="#666666" points="518.88,-237.46 444.38,-237.46 444.38,-216.71 518.88,-216.71 518.88,-237.46"/>
<text xml:space="preserve" text-anchor="middle" x="481.62" y="-223.96" font-family="Helvetica,sans-Serif" font-size="10.00">new_chyron</text>
</a>
</g>
</g>
<!-- Node9&#45;&gt;Node16 -->
<g id="edge24_Node000009_Node000016" class="edge">
<title>Node9&#45;&gt;Node16</title>
<g id="a_edge24_Node000009_Node000016"><a xlink:title=" ">
<path fill="none" stroke="#63b8ff" d="M348.87,-313.3C366.49,-297.35 401.47,-267.19 435,-247.08 437.47,-245.6 440.06,-244.17 442.71,-242.8"/>
<polygon fill="#63b8ff" stroke="#63b8ff" points="444.18,-245.97 451.67,-238.48 441.14,-239.67 444.18,-245.97"/>
</a>
</g>
</g>
<!-- Node17 -->
<g id="Node000017" class="node">
<title>Node17</title>
<g id="a_Node000017"><a xlink:href="../../df/d95/a00299.html#a208ce92c197fdd6d2b007987e534aa3b" target="_top" xlink:title="Set chyron key.">
<polygon fill="white" stroke="#666666" points="656.38,-161.46 564.62,-161.46 564.62,-140.71 656.38,-140.71 656.38,-161.46"/>
<text xml:space="preserve" text-anchor="middle" x="610.5" y="-147.96" font-family="Helvetica,sans-Serif" font-size="10.00">set_chyron_key</text>
</a>
</g>
</g>
<!-- Node9&#45;&gt;Node17 -->
<g id="edge26_Node000009_Node000017" class="edge">
<title>Node9&#45;&gt;Node17</title>
<g id="a_edge26_Node000009_Node000017"><a xlink:title=" ">
<path fill="none" stroke="#63b8ff" d="M341.8,-313.35C353.29,-287.61 386.11,-222.13 435,-190.08 470.02,-167.12 516.59,-157.53 552.81,-153.59"/>
<polygon fill="#63b8ff" stroke="#63b8ff" points="553.05,-157.09 562.67,-152.65 552.38,-150.12 553.05,-157.09"/>
</a>
</g>
</g>
<!-- Node9&#45;&gt;Node18 -->
<g id="edge28_Node000009_Node000018" class="edge">
<title>Node9&#45;&gt;Node18</title>
<g id="a_edge28_Node000009_Node000018"><a xlink:title=" ">
<path fill="none" stroke="#63b8ff" d="M339.87,-313.46C348.02,-282.85 375.99,-194 435,-153.08 514.49,-97.96 634.61,-101.25 696.5,-107.57"/>
<polygon fill="#63b8ff" stroke="#63b8ff" points="695.89,-111.02 706.21,-108.65 696.66,-104.07 695.89,-111.02"/>
</a>
</g>
</g>
<!-- Node19 -->
<g id="Node000019" class="node">
<title>Node19</title>
<g id="a_Node000019"><a xlink:href="../../dc/d5d/a00278.html#a636608f26d1193b5d860f2312cd8ee49" target="_top" xlink:title="terminates string at New Line, Carriage Return, or max_len">
<polygon fill="white" stroke="#666666" points="501.62,-354.46 461.62,-354.46 461.62,-333.71 501.62,-333.71 501.62,-354.46"/>
<text xml:space="preserve" text-anchor="middle" x="481.62" y="-340.96" font-family="Helvetica,sans-Serif" font-size="10.00">strnz</text>
</a>
</g>
</g>
<!-- Node9&#45;&gt;Node19 -->
<g id="edge29_Node000009_Node000019" class="edge">
<title>Node9&#45;&gt;Node19</title>
<g id="a_edge29_Node000009_Node000019"><a xlink:title=" ">
<path fill="none" stroke="#63b8ff" d="M376.43,-329.55C399.55,-332.77 428.39,-336.79 449.86,-339.79"/>
<polygon fill="#63b8ff" stroke="#63b8ff" points="449.36,-343.25 459.75,-341.17 450.33,-336.32 449.36,-343.25"/>
</a>
</g>
</g>
<!-- Node20 -->
<g id="Node000020" class="node">
<title>Node20</title>
<g id="a_Node000020"><a xlink:href="../../df/d95/a00299.html#a9dd598e1d49c8764af1eec42c682623e" target="_top" xlink:title="Delete the current window and its associated box window.">
<polygon fill="white" stroke="#666666" points="508.38,-315.46 454.88,-315.46 454.88,-294.71 508.38,-294.71 508.38,-315.46"/>
<text xml:space="preserve" text-anchor="middle" x="481.62" y="-301.96" font-family="Helvetica,sans-Serif" font-size="10.00">win_del</text>
</a>
</g>
</g>
<!-- Node9&#45;&gt;Node20 -->
<g id="edge31_Node000009_Node000020" class="edge">
<title>Node9&#45;&gt;Node20</title>
<g id="a_edge31_Node000009_Node000020"><a xlink:title=" ">
<path fill="none" stroke="#63b8ff" d="M376.43,-318.89C397.32,-316.12 422.88,-312.73 443.46,-310.01"/>
<polygon fill="#63b8ff" stroke="#63b8ff" points="443.67,-313.51 453.12,-308.73 442.75,-306.57 443.67,-313.51"/>
</a>
</g>
</g>
<!-- Node21 -->
<g id="Node000021" class="node">
<title>Node21</title>
<g id="a_Node000021"><a xlink:href="../../df/d95/a00299.html#a435c7bff7ffedb8f51c6de9259e36f6c" target="_top" xlink:title="Create a new window with optional box and title.">
<polygon fill="white" stroke="#666666" points="511,-432.46 452.25,-432.46 452.25,-411.71 511,-411.71 511,-432.46"/>
<text xml:space="preserve" text-anchor="middle" x="481.62" y="-418.96" font-family="Helvetica,sans-Serif" font-size="10.00">win_new</text>
</a>
</g>
</g>
<!-- Node9&#45;&gt;Node21 -->
<g id="edge32_Node000009_Node000021" class="edge">
<title>Node9&#45;&gt;Node21</title>
<g id="a_edge32_Node000009_Node000021"><a xlink:title=" ">
<path fill="none" stroke="#63b8ff" d="M348.55,-334.74C366.04,-350.85 401.18,-381.65 435,-402.08 437.46,-403.57 440.05,-405 442.7,-406.38"/>
<polygon fill="#63b8ff" stroke="#63b8ff" points="441.13,-409.51 451.66,-410.7 444.17,-403.21 441.13,-409.51"/>
</a>
</g>
</g>
<!-- Node23 -->
<g id="Node000023" class="node">
<title>Node23</title>
<g id="a_Node000023"><a xlink:href="../../df/d95/a00299.html#acf4c709bccc4c965a5d61db978db31a3" target="_top" xlink:title="Wrapper for wgetch that handles signals and mouse events.">
<polygon fill="white" stroke="#666666" points="510.25,-276.46 453,-276.46 453,-255.71 510.25,-255.71 510.25,-276.46"/>
<text xml:space="preserve" text-anchor="middle" x="481.62" y="-262.96" font-family="Helvetica,sans-Serif" font-size="10.00">xwgetch</text>
</a>
</g>
</g>
<!-- Node9&#45;&gt;Node23 -->
<g id="edge35_Node000009_Node000023" class="edge">
<title>Node9&#45;&gt;Node23</title>
<g id="a_edge35_Node000009_Node000023"><a xlink:title=" ">
<path fill="none" stroke="#63b8ff" d="M353.14,-313.22C374.41,-302.23 412.83,-286.14 441.95,-275.66"/>
<polygon fill="#63b8ff" stroke="#63b8ff" points="442.89,-279.04 451.17,-272.43 440.58,-272.43 442.89,-279.04"/>
</a>
</g>
</g>
<!-- Node11 -->
<g id="Node000011" class="node">
<title>Node11</title>
<g id="a_Node000011"><a xlink:href="../../df/d95/a00299.html#afc0985a403e3eac0b2cd8f0fab500256" target="_top" xlink:title="Gracefully shut down NCurses and restore terminal settings.">
<polygon fill="white" stroke="#666666" points="782.25,-219.46 692.75,-219.46 692.75,-198.71 782.25,-198.71 782.25,-219.46"/>
<text xml:space="preserve" text-anchor="middle" x="737.5" y="-205.96" font-family="Helvetica,sans-Serif" font-size="10.00">destroy_curses</text>
</a>
</g>
</g>
<!-- Node10&#45;&gt;Node11 -->
<g id="edge16_Node000010_Node000011" class="edge">
<title>Node10&#45;&gt;Node11</title>
<g id="a_edge16_Node000010_Node000011"><a xlink:title=" ">
<path fill="none" stroke="#63b8ff" d="M633.85,-209.08C647.03,-209.08 664.34,-209.08 680.98,-209.08"/>
<polygon fill="#63b8ff" stroke="#63b8ff" points="680.82,-212.58 690.82,-209.08 680.82,-205.58 680.82,-212.58"/>
</a>
</g>
</g>
<!-- Node12 -->
<g id="Node000012" class="node">
<title>Node12</title>
<g id="a_Node000012"><a xlink:href="../../d6/de1/a00233.html#ac5e3adb304b78910fc77761ef6a743f0" target="_top" xlink:title="restore_shell_tioctl() &#45; restore shell terminal settings">
<polygon fill="white" stroke="#666666" points="927.25,-257.46 818.25,-257.46 818.25,-236.71 927.25,-236.71 927.25,-257.46"/>
<text xml:space="preserve" text-anchor="middle" x="872.75" y="-243.96" font-family="Helvetica,sans-Serif" font-size="10.00">restore_shell_tioctl</text>
</a>
</g>
</g>
<!-- Node10&#45;&gt;Node12 -->
<g id="edge19_Node000010_Node000012" class="edge">
<title>Node10&#45;&gt;Node12</title>
<g id="a_edge19_Node000010_Node000012"><a xlink:title=" ">
<path fill="none" stroke="#63b8ff" d="M633.77,-215.07C650.01,-219.25 672.61,-224.67 692.75,-228.08 730.26,-234.43 772.57,-239.04 806.64,-242.12"/>
<polygon fill="#63b8ff" stroke="#63b8ff" points="806.08,-245.59 816.35,-242.98 806.7,-238.62 806.08,-245.59"/>
</a>
</g>
</g>
<!-- Node13 -->
<g id="Node000013" class="node">
<title>Node13</title>
<g id="a_Node000013"><a xlink:href="../../d1/da8/a00230.html#a06c1eb6cf3649dc187115565409f91af" target="_top" xlink:title="Set signal handlers to default behavior.">
<polygon fill="white" stroke="#666666" points="913.38,-200.46 832.12,-200.46 832.12,-179.71 913.38,-179.71 913.38,-200.46"/>
<text xml:space="preserve" text-anchor="middle" x="872.75" y="-186.96" font-family="Helvetica,sans-Serif" font-size="10.00">sig_dfl_mode</text>
</a>
</g>
</g>
<!-- Node10&#45;&gt;Node13 -->
<g id="edge20_Node000010_Node000013" class="edge">
<title>Node10&#45;&gt;Node13</title>
<g id="a_edge20_Node000010_Node000013"><a xlink:title=" ">
<path fill="none" stroke="#63b8ff" d="M633.67,-202.44C649.87,-197.95 672.46,-192.42 692.75,-190.08 735.65,-185.13 784.72,-185.55 820.62,-186.98"/>
<polygon fill="#63b8ff" stroke="#63b8ff" points="820.13,-190.46 830.27,-187.4 820.44,-183.47 820.13,-190.46"/>
</a>
</g>
</g>
<!-- Node11&#45;&gt;Node12 -->
<g id="edge17_Node000011_Node000012" class="edge">
<title>Node11&#45;&gt;Node12</title>
<g id="a_edge17_Node000011_Node000012"><a xlink:title=" ">
<path fill="none" stroke="#63b8ff" d="M776.33,-219.87C790.82,-224 807.55,-228.77 822.93,-233.16"/>
<polygon fill="#63b8ff" stroke="#63b8ff" points="821.8,-236.47 832.37,-235.85 823.72,-229.74 821.8,-236.47"/>
</a>
</g>
</g>
<!-- Node11&#45;&gt;Node13 -->
<g id="edge18_Node000011_Node000013" class="edge">
<title>Node11&#45;&gt;Node13</title>
<g id="a_edge18_Node000011_Node000013"><a xlink:title=" ">
<path fill="none" stroke="#63b8ff" d="M782.5,-202.81C794.69,-201.07 808.02,-199.17 820.58,-197.38"/>
<polygon fill="#63b8ff" stroke="#63b8ff" points="820.94,-200.86 830.34,-195.98 819.95,-193.93 820.94,-200.86"/>
</a>
</g>
</g>
<!-- Node14&#45;&gt;Node5 -->
<g id="edge22_Node000014_Node000005" class="edge">
<title>Node14&#45;&gt;Node5</title>
<g id="a_edge22_Node000014_Node000005"><a xlink:title=" ">
<path fill="none" stroke="#63b8ff" d="M506.79,-622.94C526.1,-631.61 553.42,-643.89 575.03,-653.59"/>
<polygon fill="#63b8ff" stroke="#63b8ff" points="573.49,-656.74 584.05,-657.64 576.36,-650.35 573.49,-656.74"/>
</a>
</g>
</g>
<!-- Node16&#45;&gt;Node10 -->
<g id="edge25_Node000016_Node000010" class="edge">
<title>Node16&#45;&gt;Node10</title>
<g id="a_edge25_Node000016_Node000010"><a xlink:title=" ">
<path fill="none" stroke="#63b8ff" d="M519.32,-221.87C537.16,-219.34 558.45,-216.32 575.87,-213.85"/>
<polygon fill="#63b8ff" stroke="#63b8ff" points="576.31,-217.32 585.72,-212.45 575.32,-210.39 576.31,-217.32"/>
</a>
</g>
</g>
<!-- Node17&#45;&gt;Node18 -->
<g id="edge27_Node000017_Node000018" class="edge">
<title>Node17&#45;&gt;Node18</title>
<g id="a_edge27_Node000017_Node000018"><a xlink:title=" ">
<path fill="none" stroke="#63b8ff" d="M646.99,-140.29C662.59,-135.55 680.97,-129.96 697,-125.09"/>
<polygon fill="#63b8ff" stroke="#63b8ff" points="697.66,-128.54 706.21,-122.29 695.63,-121.85 697.66,-128.54"/>
</a>
</g>
</g>
<!-- Node21&#45;&gt;Node3 -->
<g id="edge34_Node000021_Node000003" class="edge">
<title>Node21&#45;&gt;Node3</title>
<g id="a_edge34_Node000021_Node000003"><a xlink:title=" ">
<path fill="none" stroke="#63b8ff" d="M511.3,-420.15C547.41,-418.98 610.34,-421.24 656.75,-446.08 686.83,-462.17 711,-494.39 724.55,-515.59"/>
<polygon fill="#63b8ff" stroke="#63b8ff" points="721.48,-517.28 729.69,-523.97 727.45,-513.62 721.48,-517.28"/>
</a>
</g>
</g>
<!-- Node22 -->
<g id="Node000022" class="node">
<title>Node22</title>
<g id="a_Node000022"><a xlink:href="../../df/d95/a00299.html#ac9adcf7339be4a05ab1a7350c236b8a5" target="_top" xlink:title="Draw a box around the specified window.">
<polygon fill="white" stroke="#666666" points="630.12,-394.46 590.88,-394.46 590.88,-373.71 630.12,-373.71 630.12,-394.46"/>
<text xml:space="preserve" text-anchor="middle" x="610.5" y="-380.96" font-family="Helvetica,sans-Serif" font-size="10.00">cbox</text>
</a>
</g>
</g>
<!-- Node21&#45;&gt;Node22 -->
<g id="edge33_Node000021_Node000022" class="edge">
<title>Node21&#45;&gt;Node22</title>
<g id="a_edge33_Node000021_Node000022"><a xlink:title=" ">
<path fill="none" stroke="#63b8ff" d="M511.41,-413.46C531.8,-407.35 559.07,-399.18 579.68,-393.01"/>
<polygon fill="#63b8ff" stroke="#63b8ff" points="580.63,-396.38 589.21,-390.16 578.62,-389.67 580.63,-396.38"/>
</a>
</g>
</g>
<!-- Node23&#45;&gt;Node9 -->
<g id="edge36_Node000023_Node000009" class="edge">
<title>Node23&#45;&gt;Node9</title>
<g id="a_edge36_Node000023_Node000009"><a xlink:title=" ">
<path fill="none" stroke="#63b8ff" d="M465.01,-276.8C446.39,-286.45 414.35,-300.09 387.02,-310.41"/>
<polygon fill="#63b8ff" stroke="#63b8ff" points="386.01,-307.05 377.85,-313.8 388.44,-313.61 386.01,-307.05"/>
</a>
</g>
</g>
<!-- Node24 -->
<g id="Node000024" class="node">
<title>Node24</title>
<g id="a_Node000024"><a xlink:href="../../df/d95/a00299.html#a4298f891699300bfc4e6e56fd2a8d574" target="_top" xlink:title="Get keycode from chyron.">
<polygon fill="white" stroke="#666666" points="656.75,-258.46 564.25,-258.46 564.25,-237.71 656.75,-237.71 656.75,-258.46"/>
<text xml:space="preserve" text-anchor="middle" x="610.5" y="-244.96" font-family="Helvetica,sans-Serif" font-size="10.00">get_chyron_key</text>
</a>
</g>
</g>
<!-- Node23&#45;&gt;Node24 -->
<g id="edge37_Node000023_Node000024" class="edge">
<title>Node23&#45;&gt;Node24</title>
<g id="a_edge37_Node000023_Node000024"><a xlink:title=" ">
<path fill="none" stroke="#63b8ff" d="M510.47,-262.13C522.91,-260.37 538.05,-258.22 552.71,-256.14"/>
<polygon fill="#63b8ff" stroke="#63b8ff" points="552.86,-259.65 562.27,-254.78 551.88,-252.72 552.86,-259.65"/>
</a>
</g>
</g>
<!-- Node25 -->
<g id="Node000025" class="node">
<title>Node25</title>
<g id="a_Node000025"><a xlink:href="../../d1/da8/a00230.html#a79c3e22498eb2346543aa9c86fd22e58" target="_top" xlink:title="Handle received signals and prompt user for action.">
<polygon fill="white" stroke="#666666" points="652.25,-297.46 568.75,-297.46 568.75,-276.71 652.25,-276.71 652.25,-297.46"/>
<text xml:space="preserve" text-anchor="middle" x="610.5" y="-283.96" font-family="Helvetica,sans-Serif" font-size="10.00">handle_signal</text>
</a>
</g>
</g>
<!-- Node23&#45;&gt;Node25 -->
<g id="edge38_Node000023_Node000025" class="edge">
<title>Node23&#45;&gt;Node25</title>
<g id="a_edge38_Node000023_Node000025"><a xlink:title=" ">
<path fill="none" stroke="#63b8ff" d="M510.47,-270.69C524.34,-272.98 541.56,-275.84 557.74,-278.51"/>
<polygon fill="#63b8ff" stroke="#63b8ff" points="556.78,-281.9 567.22,-280.08 557.93,-275 556.78,-281.9"/>
</a>
</g>
</g>
<!-- Node25&#45;&gt;Node3 -->
<g id="edge41_Node000025_Node000003" class="edge">
<title>Node25&#45;&gt;Node3</title>
<g id="a_edge41_Node000025_Node000003"><a xlink:title=" ">
<path fill="none" stroke="#63b8ff" d="M617.95,-297.51C627.02,-312.32 643.86,-340.38 656.75,-365.08 684.42,-418.1 713.19,-482.47 727.41,-515.03"/>
<polygon fill="#63b8ff" stroke="#63b8ff" points="724.17,-516.35 731.36,-524.12 730.59,-513.56 724.17,-516.35"/>
</a>
</g>
</g>
<!-- Node25&#45;&gt;Node12 -->
<g id="edge39_Node000025_Node000012" class="edge">
<title>Node25&#45;&gt;Node12</title>
<g id="a_edge39_Node000025_Node000012"><a xlink:title=" ">
<path fill="none" stroke="#63b8ff" d="M652.74,-280.74C694.14,-274.38 758.53,-264.48 806.8,-257.06"/>
<polygon fill="#63b8ff" stroke="#63b8ff" points="807.22,-260.54 816.58,-255.56 806.16,-253.62 807.22,-260.54"/>
</a>
</g>
</g>
<!-- Node25&#45;&gt;Node18 -->
<g id="edge40_Node000025_Node000018" class="edge">
<title>Node25&#45;&gt;Node18</title>
<g id="a_edge40_Node000025_Node000018"><a xlink:title=" ">
<path fill="none" stroke="#63b8ff" d="M643.52,-276.45C648.33,-273.9 652.94,-270.81 656.75,-267.08 683.74,-240.65 675.41,-223.64 692.75,-190.08 702.84,-170.55 715.31,-148.81 724.35,-133.43"/>
<polygon fill="#63b8ff" stroke="#63b8ff" points="727.14,-135.59 729.22,-125.2 721.12,-132.02 727.14,-135.59"/>
</a>
</g>
</g>
<!-- Node26&#45;&gt;Node2 -->
<g id="edge46_Node000026_Node000002" class="edge">
<title>Node26&#45;&gt;Node2</title>
<g id="a_edge46_Node000026_Node000002"><a xlink:title=" ">
<path fill="none" stroke="#63b8ff" d="M202.2,-565.79C213.06,-572.79 226.85,-582.56 237.5,-593.08 273.51,-628.63 306.34,-678.41 323.26,-705.88"/>
<polygon fill="#63b8ff" stroke="#63b8ff" points="320.16,-707.52 328.33,-714.26 326.15,-703.89 320.16,-707.52"/>
</a>
</g>
</g>
<!-- Node26&#45;&gt;Node3 -->
<g id="edge50_Node000026_Node000003" class="edge">
<title>Node26&#45;&gt;Node3</title>
<g id="a_edge50_Node000026_Node000003"><a xlink:title=" ">
<path fill="none" stroke="#63b8ff" d="M216.45,-553.98C310.17,-550.75 583.8,-541.33 691.86,-537.62"/>
<polygon fill="#63b8ff" stroke="#63b8ff" points="691.91,-541.12 701.78,-537.27 691.67,-534.12 691.91,-541.12"/>
</a>
</g>
</g>
<!-- Node26&#45;&gt;Node4 -->
<g id="edge48_Node000026_Node000004" class="edge">
<title>Node26&#45;&gt;Node4</title>
<g id="a_edge48_Node000026_Node000004"><a xlink:title=" ">
<path fill="none" stroke="#63b8ff" d="M216.37,-559.11C236.35,-561.63 262.5,-564.92 285.18,-567.77"/>
<polygon fill="#63b8ff" stroke="#63b8ff" points="284.47,-571.21 294.83,-568.99 285.35,-564.27 284.47,-571.21"/>
</a>
</g>
</g>
<!-- Node26&#45;&gt;Node9 -->
<g id="edge47_Node000026_Node000009" class="edge">
<title>Node26&#45;&gt;Node9</title>
<g id="a_edge47_Node000026_Node000009"><a xlink:title=" ">
<path fill="none" stroke="#63b8ff" d="M203.85,-544.34C214.76,-537.59 228.05,-528.09 237.5,-517.08 283.86,-463.08 315.14,-383.27 328.27,-345.46"/>
<polygon fill="#63b8ff" stroke="#63b8ff" points="331.52,-346.77 331.41,-336.17 324.89,-344.53 331.52,-346.77"/>
</a>
</g>
</g>
<!-- Node26&#45;&gt;Node18 -->
<g id="edge49_Node000026_Node000018" class="edge">
<title>Node26&#45;&gt;Node18</title>
<g id="a_edge49_Node000026_Node000018"><a xlink:title=" ">
<path fill="none" stroke="#63b8ff" d="M207.04,-544.23C217.96,-537.84 230.22,-528.71 237.5,-517.08 288.19,-436.06 233.55,-391.9 273.5,-305.08 320.39,-203.16 335.53,-162.96 435,-111.08 519.59,-66.96 636.55,-86.68 696.91,-101.7"/>
<polygon fill="#63b8ff" stroke="#63b8ff" points="695.83,-105.03 706.39,-104.14 697.58,-98.25 695.83,-105.03"/>
</a>
</g>
</g>
</g>
</svg>
