<?xml version="1.0" encoding="UTF-8" standalone="no"?>
<!DOCTYPE svg PUBLIC "-//W3C//DTD SVG 1.1//EN"
 "http://www.w3.org/Graphics/SVG/1.1/DTD/svg11.dtd">
<!-- Generated by graphviz version 14.1.2 (0)
 -->
<!-- Title: new_view Pages: 1 -->
<!--zoomable 549 -->

<svg id="main" version="1.1" xmlns="http://www.w3.org/2000/svg" xmlns:xlink="http://www.w3.org/1999/xlink" xml:space="preserve" onload="init(evt)">

<style type="text/css"><![CDATA[
.node, .edge {opacity: 0.7;}
.node.selected, .edge.selected {opacity: 1;}
.edge:hover path { stroke: red; }
.edge:hover polygon { stroke: red; fill: red; }
]]></style>

<defs>
  <circle id="rim" cx="0" cy="0" r="7"/>
  <circle id="rim2" cx="0" cy="0" r="3.5"/>
  <g id="zoomPlus">
    <use xlink:href="#rim" fill="#404040"><set attributeName="fill" to="#808080" begin="zoomplus.mouseover" end="zoomplus.mouseout"/></use>
    <path d="M-4,0h8M0,-4v8" fill="none" stroke="white" stroke-width="1.5" pointer-events="none"/>
  </g>
  <g id="zoomMin">
    <use xlink:href="#rim" fill="#404040"><set attributeName="fill" to="#808080" begin="zoomminus.mouseover" end="zoomminus.mouseout"/></use>
    <path d="M-4,0h8" fill="none" stroke="white" stroke-width="1.5" pointer-events="none"/>
  </g>
  <g id="arrowUp" transform="translate(30 24)">
    <use xlink:href="#rim"/>
    <path pointer-events="none" fill="none" stroke="white" stroke-width="1.5" d="M0,-3.0v7 M-2.5,-0.5L0,-3.0L2.5,-0.5"/>
  </g>
  <g id="arrowRight" transform="rotate(90) translate(36 -43)">
    <use xlink:href="#rim"/>
    <path pointer-events="none" fill="none" stroke="white" stroke-width="1.5" d="M0,-3.0v7 M-2.5,-0.5L0,-3.0L2.5,-0.5"/>
  </g>
  <g id="arrowDown" transform="rotate(180) translate(-30 -48)">
    <use xlink:href="#rim"/>
    <path pointer-events="none" fill="none" stroke="white" stroke-width="1.5" d="M0,-3.0v7 M-2.5,-0.5L0,-3.0L2.5,-0.5"/>
  </g>
  <g id="arrowLeft" transform="rotate(270) translate(-36 17)">
    <use xlink:href="#rim"/>
    <path pointer-events="none" fill="none" stroke="white" stroke-width="1.5" d="M0,-3.0v7 M-2.5,-0.5L0,-3.0L2.5,-0.5"/>
  </g>
  <g id="resetDef">
    <use xlink:href="#rim2" fill="#404040"><set attributeName="fill" to="#808080" begin="reset.mouseover" end="reset.mouseout"/></use>
  </g>
</defs>
<script type="application/ecmascript">
var viewWidth = 724;
var viewHeight = 549;
var sectionId = 'dynsection-23';
</script>
<script type="application/ecmascript" xlink:href="../../svg.min.js"/>
<svg id="graph" class="graph">
<g id="viewport">
<title>new_view</title>
<!-- Node1 -->
<g id="Node000001" class="node">
<title>Node1</title>
<g id="a_Node000001"><a xlink:title="Create and initialize View structure.">
<polygon fill="#999999" stroke="#666666" points="64.75,-349.87 0,-349.87 0,-329.12 64.75,-329.12 64.75,-349.87"/>
<text xml:space="preserve" text-anchor="middle" x="32.38" y="-336.37" font-family="Helvetica,sans-Serif" font-size="10.00">new_view</text>
</a>
</g>
</g>
<!-- Node2 -->
<g id="Node000002" class="node">
<title>Node2</title>
<g id="a_Node000002"><a xlink:href="../../df/d95/a00299.html#a8f6c45ca4a7f6a41c4c88314e697565a" target="_top" xlink:title="Abnormal program termination.">
<polygon fill="white" stroke="#666666" points="421.75,-99.87 375.75,-99.87 375.75,-79.12 421.75,-79.12 421.75,-99.87"/>
<text xml:space="preserve" text-anchor="middle" x="398.75" y="-86.37" font-family="Helvetica,sans-Serif" font-size="10.00">abend</text>
</a>
</g>
</g>
<!-- Node1&#45;&gt;Node2 -->
<g id="edge1_Node000001_Node000002" class="edge">
<title>Node1&#45;&gt;Node2</title>
<g id="a_edge1_Node000001_Node000002"><a xlink:title=" ">
<path fill="none" stroke="#63b8ff" d="M35.51,-328.8C45.73,-280.75 94.68,-84.17 223.25,-13.49 259.57,6.47 277.95,1.73 316.5,-13.49 344.98,-24.73 369.34,-51.19 383.77,-69.71"/>
<polygon fill="#63b8ff" stroke="#63b8ff" points="380.85,-71.66 389.64,-77.58 386.46,-67.47 380.85,-71.66"/>
</a>
</g>
</g>
<!-- Node6 -->
<g id="Node000006" class="node">
<title>Node6</title>
<g id="a_Node000006"><a xlink:href="../../df/d95/a00299.html#a67659f8a701b74f4dec0d36227a10d1c" target="_top" xlink:title="Display an error message window or print to stderr.">
<polygon fill="white" stroke="#666666" points="183.88,-235.87 104.12,-235.87 104.12,-215.12 183.88,-215.12 183.88,-235.87"/>
<text xml:space="preserve" text-anchor="middle" x="144" y="-222.37" font-family="Helvetica,sans-Serif" font-size="10.00">display_error</text>
</a>
</g>
</g>
<!-- Node1&#45;&gt;Node6 -->
<g id="edge7_Node000001_Node000006" class="edge">
<title>Node1&#45;&gt;Node6</title>
<g id="a_edge7_Node000001_Node000006"><a xlink:title=" ">
<path fill="none" stroke="#63b8ff" d="M43.49,-328.97C62,-309.73 101.53,-268.61 124.82,-244.4"/>
<polygon fill="#63b8ff" stroke="#63b8ff" points="127.13,-247.04 131.54,-237.41 122.08,-242.19 127.13,-247.04"/>
</a>
</g>
</g>
<!-- Node12 -->
<g id="Node000012" class="node">
<title>Node12</title>
<g id="a_Node000012"><a xlink:href="../../dc/d5d/a00278.html#a63eb94756fb011a456a3dec900709cd8" target="_top" xlink:title="ssnprintf was designed to be a safer alternative to snprintf.">
<polygon fill="white" stroke="#666666" points="555.12,-292.87 496.38,-292.87 496.38,-272.12 555.12,-272.12 555.12,-292.87"/>
<text xml:space="preserve" text-anchor="middle" x="525.75" y="-279.37" font-family="Helvetica,sans-Serif" font-size="10.00">ssnprintf</text>
</a>
</g>
</g>
<!-- Node1&#45;&gt;Node12 -->
<g id="edge33_Node000001_Node000012" class="edge">
<title>Node1&#45;&gt;Node12</title>
<g id="a_edge33_Node000001_Node000012"><a xlink:title=" ">
<path fill="none" stroke="#63b8ff" d="M59.84,-350.32C96.01,-364.48 163.25,-388.53 223.25,-397.49 264.24,-403.61 275.48,-403.43 316.5,-397.49 375.44,-388.96 393.55,-389.48 445,-359.49 470.81,-344.45 494.65,-319.33 509.41,-301.89"/>
<polygon fill="#63b8ff" stroke="#63b8ff" points="512.03,-304.22 515.67,-294.27 506.62,-299.78 512.03,-304.22"/>
</a>
</g>
</g>
<!-- Node21 -->
<g id="Node000021" class="node">
<title>Node21</title>
<g id="a_Node000021"><a xlink:href="../../df/da9/a00263.html#ac5213483d722f8f1bd5c28fbbb55369e" target="_top" xlink:title="Initialize Pick file specifications.">
<polygon fill="white" stroke="#666666" points="187.25,-502.87 100.75,-502.87 100.75,-482.12 187.25,-482.12 187.25,-502.87"/>
<text xml:space="preserve" text-anchor="middle" x="144" y="-489.37" font-family="Helvetica,sans-Serif" font-size="10.00">init_view_files</text>
</a>
</g>
</g>
<!-- Node1&#45;&gt;Node21 -->
<g id="edge30_Node000001_Node000021" class="edge">
<title>Node1&#45;&gt;Node21</title>
<g id="a_edge30_Node000001_Node000021"><a xlink:title=" ">
<path fill="none" stroke="#63b8ff" d="M36.6,-350.09C44.27,-373.85 65.65,-432.13 100.75,-468.49 103.19,-471.02 105.96,-473.36 108.87,-475.51"/>
<polygon fill="#63b8ff" stroke="#63b8ff" points="106.94,-478.42 117.24,-480.88 110.72,-472.53 106.94,-478.42"/>
</a>
</g>
</g>
<!-- Node3 -->
<g id="Node000003" class="node">
<title>Node3</title>
<g id="a_Node000003"><a xlink:href="../../df/d95/a00299.html#afc0985a403e3eac0b2cd8f0fab500256" target="_top" xlink:title="Gracefully shut down NCurses and restore terminal settings.">
<polygon fill="white" stroke="#666666" points="570.5,-104.87 481,-104.87 481,-84.12 570.5,-84.12 570.5,-104.87"/>
<text xml:space="preserve" text-anchor="middle" x="525.75" y="-91.37" font-family="Helvetica,sans-Serif" font-size="10.00">destroy_curses</text>
</a>
</g>
</g>
<!-- Node2&#45;&gt;Node3 -->
<g id="edge2_Node000002_Node000003" class="edge">
<title>Node2&#45;&gt;Node3</title>
<g id="a_edge2_Node000002_Node000003"><a xlink:title=" ">
<path fill="none" stroke="#63b8ff" d="M422.1,-90.38C435.28,-90.91 452.59,-91.6 469.23,-92.27"/>
<polygon fill="#63b8ff" stroke="#63b8ff" points="468.94,-95.76 479.08,-92.66 469.22,-88.77 468.94,-95.76"/>
</a>
</g>
</g>
<!-- Node4 -->
<g id="Node000004" class="node">
<title>Node4</title>
<g id="a_Node000004"><a xlink:href="../../d6/de1/a00233.html#ac5e3adb304b78910fc77761ef6a743f0" target="_top" xlink:title="restore_shell_tioctl() &#45; restore shell terminal settings">
<polygon fill="white" stroke="#666666" points="715.5,-142.87 606.5,-142.87 606.5,-122.12 715.5,-122.12 715.5,-142.87"/>
<text xml:space="preserve" text-anchor="middle" x="661" y="-129.37" font-family="Helvetica,sans-Serif" font-size="10.00">restore_shell_tioctl</text>
</a>
</g>
</g>
<!-- Node2&#45;&gt;Node4 -->
<g id="edge5_Node000002_Node000004" class="edge">
<title>Node2&#45;&gt;Node4</title>
<g id="a_edge5_Node000002_Node000004"><a xlink:title=" ">
<path fill="none" stroke="#63b8ff" d="M422.24,-97.33C438.4,-102.67 460.8,-109.47 481,-113.49 518.45,-120.95 560.93,-125.61 595.1,-128.45"/>
<polygon fill="#63b8ff" stroke="#63b8ff" points="594.6,-131.93 604.85,-129.23 595.16,-124.95 594.6,-131.93"/>
</a>
</g>
</g>
<!-- Node5 -->
<g id="Node000005" class="node">
<title>Node5</title>
<g id="a_Node000005"><a xlink:href="../../d1/da8/a00230.html#a06c1eb6cf3649dc187115565409f91af" target="_top" xlink:title="Set signal handlers to default behavior.">
<polygon fill="white" stroke="#666666" points="701.62,-85.87 620.38,-85.87 620.38,-65.12 701.62,-65.12 701.62,-85.87"/>
<text xml:space="preserve" text-anchor="middle" x="661" y="-72.37" font-family="Helvetica,sans-Serif" font-size="10.00">sig_dfl_mode</text>
</a>
</g>
</g>
<!-- Node2&#45;&gt;Node5 -->
<g id="edge6_Node000002_Node000005" class="edge">
<title>Node2&#45;&gt;Node5</title>
<g id="a_edge6_Node000002_Node000005"><a xlink:title=" ">
<path fill="none" stroke="#63b8ff" d="M422.03,-84.59C438.29,-81.28 460.89,-77.21 481,-75.49 524.03,-71.81 573.08,-72.13 608.95,-73.18"/>
<polygon fill="#63b8ff" stroke="#63b8ff" points="608.48,-76.67 618.59,-73.5 608.71,-69.67 608.48,-76.67"/>
</a>
</g>
</g>
<!-- Node3&#45;&gt;Node4 -->
<g id="edge3_Node000003_Node000004" class="edge">
<title>Node3&#45;&gt;Node4</title>
<g id="a_edge3_Node000003_Node000004"><a xlink:title=" ">
<path fill="none" stroke="#63b8ff" d="M564.58,-105.28C579.07,-109.41 595.8,-114.18 611.18,-118.57"/>
<polygon fill="#63b8ff" stroke="#63b8ff" points="610.05,-121.88 620.62,-121.26 611.97,-115.15 610.05,-121.88"/>
</a>
</g>
</g>
<!-- Node3&#45;&gt;Node5 -->
<g id="edge4_Node000003_Node000005" class="edge">
<title>Node3&#45;&gt;Node5</title>
<g id="a_edge4_Node000003_Node000005"><a xlink:title=" ">
<path fill="none" stroke="#63b8ff" d="M570.75,-88.22C582.94,-86.48 596.27,-84.58 608.83,-82.79"/>
<polygon fill="#63b8ff" stroke="#63b8ff" points="609.19,-86.27 618.59,-81.39 608.2,-79.34 609.19,-86.27"/>
</a>
</g>
</g>
<!-- Node6&#45;&gt;Node2 -->
<g id="edge8_Node000006_Node000002" class="edge">
<title>Node6&#45;&gt;Node2</title>
<g id="a_edge8_Node000006_Node000002"><a xlink:title=" ">
<path fill="none" stroke="#63b8ff" d="M147.32,-214.78C153.81,-187.84 174.91,-117.45 223.25,-89.49 266.86,-64.27 327.45,-71.81 364.55,-80.2"/>
<polygon fill="#63b8ff" stroke="#63b8ff" points="363.26,-83.49 373.8,-82.44 364.9,-76.68 363.26,-83.49"/>
</a>
</g>
</g>
<!-- Node7 -->
<g id="Node000007" class="node">
<title>Node7</title>
<g id="a_Node000007"><a xlink:href="../../df/d95/a00299.html#a645871e46277e31736bc36d0f3dce4bd" target="_top" xlink:title="construct the chyron string from the chyron structure">
<polygon fill="white" stroke="#666666" points="316.5,-196.87 223.25,-196.87 223.25,-176.12 316.5,-176.12 316.5,-196.87"/>
<text xml:space="preserve" text-anchor="middle" x="269.88" y="-183.37" font-family="Helvetica,sans-Serif" font-size="10.00">compile_chyron</text>
</a>
</g>
</g>
<!-- Node6&#45;&gt;Node7 -->
<g id="edge9_Node000006_Node000007" class="edge">
<title>Node6&#45;&gt;Node7</title>
<g id="a_edge9_Node000006_Node000007"><a xlink:title=" ">
<path fill="none" stroke="#63b8ff" d="M179.51,-214.63C193.2,-210.32 209.13,-205.3 223.72,-200.71"/>
<polygon fill="#63b8ff" stroke="#63b8ff" points="224.62,-204.09 233.11,-197.75 222.52,-197.42 224.62,-204.09"/>
</a>
</g>
</g>
<!-- Node9 -->
<g id="Node000009" class="node">
<title>Node9</title>
<g id="a_Node000009"><a xlink:href="../../df/d95/a00299.html#a3f3feb40fd703913c5c136331f627c91" target="_top" xlink:title="Destroy Chyron structure.">
<polygon fill="white" stroke="#666666" points="315.38,-157.87 224.38,-157.87 224.38,-137.12 315.38,-137.12 315.38,-157.87"/>
<text xml:space="preserve" text-anchor="middle" x="269.88" y="-144.37" font-family="Helvetica,sans-Serif" font-size="10.00">destroy_chyron</text>
</a>
</g>
</g>
<!-- Node6&#45;&gt;Node9 -->
<g id="edge11_Node000006_Node000009" class="edge">
<title>Node6&#45;&gt;Node9</title>
<g id="a_edge11_Node000006_Node000009"><a xlink:title=" ">
<path fill="none" stroke="#63b8ff" d="M157.67,-214.69C172.65,-202.27 198.67,-181.74 223.25,-167.49 225.74,-166.05 228.35,-164.64 231.01,-163.29"/>
<polygon fill="#63b8ff" stroke="#63b8ff" points="232.47,-166.47 239.99,-159.01 229.46,-160.15 232.47,-166.47"/>
</a>
</g>
</g>
<!-- Node10 -->
<g id="Node000010" class="node">
<title>Node10</title>
<g id="a_Node000010"><a xlink:href="../../df/d95/a00299.html#ad37d5808ff30ae6894780425d865abae" target="_top" xlink:title="Create and initialize Chyron structure.">
<polygon fill="white" stroke="#666666" points="307.12,-118.87 232.62,-118.87 232.62,-98.12 307.12,-98.12 307.12,-118.87"/>
<text xml:space="preserve" text-anchor="middle" x="269.88" y="-105.37" font-family="Helvetica,sans-Serif" font-size="10.00">new_chyron</text>
</a>
</g>
</g>
<!-- Node6&#45;&gt;Node10 -->
<g id="edge12_Node000006_Node000010" class="edge">
<title>Node6&#45;&gt;Node10</title>
<g id="a_edge12_Node000006_Node000010"><a xlink:title=" ">
<path fill="none" stroke="#63b8ff" d="M151.22,-214.76C163.02,-195.23 190.41,-153.58 223.25,-128.49 225,-127.15 226.86,-125.88 228.78,-124.68"/>
<polygon fill="#63b8ff" stroke="#63b8ff" points="230.33,-127.82 237.43,-119.95 226.97,-121.68 230.33,-127.82"/>
</a>
</g>
</g>
<!-- Node11 -->
<g id="Node000011" class="node">
<title>Node11</title>
<g id="a_Node000011"><a xlink:href="../../df/d95/a00299.html#a208ce92c197fdd6d2b007987e534aa3b" target="_top" xlink:title="Set chyron key.">
<polygon fill="white" stroke="#666666" points="444.62,-273.87 352.88,-273.87 352.88,-253.12 444.62,-253.12 444.62,-273.87"/>
<text xml:space="preserve" text-anchor="middle" x="398.75" y="-260.37" font-family="Helvetica,sans-Serif" font-size="10.00">set_chyron_key</text>
</a>
</g>
</g>
<!-- Node6&#45;&gt;Node11 -->
<g id="edge14_Node000006_Node000011" class="edge">
<title>Node6&#45;&gt;Node11</title>
<g id="a_edge14_Node000006_Node000011"><a xlink:title=" ">
<path fill="none" stroke="#63b8ff" d="M184.2,-236.06C196.61,-239.13 210.44,-242.25 223.25,-244.49 262.49,-251.36 307.16,-256.17 341.47,-259.23"/>
<polygon fill="#63b8ff" stroke="#63b8ff" points="340.92,-262.69 351.19,-260.07 341.52,-255.72 340.92,-262.69"/>
</a>
</g>
</g>
<!-- Node6&#45;&gt;Node12 -->
<g id="edge16_Node000006_Node000012" class="edge">
<title>Node6&#45;&gt;Node12</title>
<g id="a_edge16_Node000006_Node000012"><a xlink:title=" ">
<path fill="none" stroke="#63b8ff" d="M162.34,-236.19C177.76,-245.2 201.21,-257.66 223.25,-264.49 313.46,-292.43 425.96,-289.97 484.74,-286.05"/>
<polygon fill="#63b8ff" stroke="#63b8ff" points="484.87,-289.55 494.59,-285.34 484.36,-282.57 484.87,-289.55"/>
</a>
</g>
</g>
<!-- Node13 -->
<g id="Node000013" class="node">
<title>Node13</title>
<g id="a_Node000013"><a xlink:href="../../dc/d5d/a00278.html#a636608f26d1193b5d860f2312cd8ee49" target="_top" xlink:title="terminates string at New Line, Carriage Return, or max_len">
<polygon fill="white" stroke="#666666" points="289.88,-42.87 249.88,-42.87 249.88,-22.12 289.88,-22.12 289.88,-42.87"/>
<text xml:space="preserve" text-anchor="middle" x="269.88" y="-29.37" font-family="Helvetica,sans-Serif" font-size="10.00">strnz</text>
</a>
</g>
</g>
<!-- Node6&#45;&gt;Node13 -->
<g id="edge17_Node000006_Node000013" class="edge">
<title>Node6&#45;&gt;Node13</title>
<g id="a_edge17_Node000006_Node000013"><a xlink:title=" ">
<path fill="none" stroke="#63b8ff" d="M147.43,-214.62C154.44,-185.56 177.14,-105 223.25,-56.49 227.91,-51.59 233.8,-47.49 239.78,-44.14"/>
<polygon fill="#63b8ff" stroke="#63b8ff" points="240.97,-47.46 248.38,-39.89 237.87,-41.18 240.97,-47.46"/>
</a>
</g>
</g>
<!-- Node14 -->
<g id="Node000014" class="node">
<title>Node14</title>
<g id="a_Node000014"><a xlink:href="../../dc/d5d/a00278.html#a0de2e40df9bd7efc8fd9afb8ad2257e6" target="_top" xlink:title="safer alternative to strncpy">
<polygon fill="white" stroke="#666666" points="559.62,-407.87 491.88,-407.87 491.88,-387.12 559.62,-387.12 559.62,-407.87"/>
<text xml:space="preserve" text-anchor="middle" x="525.75" y="-394.37" font-family="Helvetica,sans-Serif" font-size="10.00">strnz__cpy</text>
</a>
</g>
</g>
<!-- Node6&#45;&gt;Node14 -->
<g id="edge18_Node000006_Node000014" class="edge">
<title>Node6&#45;&gt;Node14</title>
<g id="a_edge18_Node000006_Node000014"><a xlink:title=" ">
<path fill="none" stroke="#63b8ff" d="M146.08,-235.99C149.89,-267.08 165.78,-358.91 223.25,-397.49 301.39,-449.95 418.5,-428.72 481.29,-411.43"/>
<polygon fill="#63b8ff" stroke="#63b8ff" points="482.25,-414.8 490.91,-408.68 480.33,-408.07 482.25,-414.8"/>
</a>
</g>
</g>
<!-- Node15 -->
<g id="Node000015" class="node">
<title>Node15</title>
<g id="a_Node000015"><a xlink:href="../../df/d95/a00299.html#a9dd598e1d49c8764af1eec42c682623e" target="_top" xlink:title="Delete the current window and its associated box window.">
<polygon fill="white" stroke="#666666" points="296.62,-349.87 243.12,-349.87 243.12,-329.12 296.62,-329.12 296.62,-349.87"/>
<text xml:space="preserve" text-anchor="middle" x="269.88" y="-336.37" font-family="Helvetica,sans-Serif" font-size="10.00">win_del</text>
</a>
</g>
</g>
<!-- Node6&#45;&gt;Node15 -->
<g id="edge19_Node000006_Node000015" class="edge">
<title>Node6&#45;&gt;Node15</title>
<g id="a_edge19_Node000006_Node000015"><a xlink:title=" ">
<path fill="none" stroke="#63b8ff" d="M152.37,-236.34C165.13,-254.51 192.89,-291.46 223.25,-315.49 226.78,-318.29 230.69,-320.91 234.68,-323.32"/>
<polygon fill="#63b8ff" stroke="#63b8ff" points="232.88,-326.32 243.32,-328.12 236.28,-320.2 232.88,-326.32"/>
</a>
</g>
</g>
<!-- Node16 -->
<g id="Node000016" class="node">
<title>Node16</title>
<g id="a_Node000016"><a xlink:href="../../df/d95/a00299.html#a435c7bff7ffedb8f51c6de9259e36f6c" target="_top" xlink:title="Create a new window with optional box and title.">
<polygon fill="white" stroke="#666666" points="299.25,-388.87 240.5,-388.87 240.5,-368.12 299.25,-368.12 299.25,-388.87"/>
<text xml:space="preserve" text-anchor="middle" x="269.88" y="-375.37" font-family="Helvetica,sans-Serif" font-size="10.00">win_new</text>
</a>
</g>
</g>
<!-- Node6&#45;&gt;Node16 -->
<g id="edge20_Node000006_Node000016" class="edge">
<title>Node6&#45;&gt;Node16</title>
<g id="a_edge20_Node000006_Node000016"><a xlink:title=" ">
<path fill="none" stroke="#63b8ff" d="M148.71,-236.32C157.71,-261.14 182.98,-322.74 223.25,-358.49 225.4,-360.4 227.76,-362.15 230.24,-363.75"/>
<polygon fill="#63b8ff" stroke="#63b8ff" points="228.43,-366.75 238.89,-368.48 231.79,-360.61 228.43,-366.75"/>
</a>
</g>
</g>
<!-- Node18 -->
<g id="Node000018" class="node">
<title>Node18</title>
<g id="a_Node000018"><a xlink:href="../../df/d95/a00299.html#acf4c709bccc4c965a5d61db978db31a3" target="_top" xlink:title="Wrapper for wgetch that handles signals and mouse events.">
<polygon fill="white" stroke="#666666" points="298.5,-235.87 241.25,-235.87 241.25,-215.12 298.5,-215.12 298.5,-235.87"/>
<text xml:space="preserve" text-anchor="middle" x="269.88" y="-222.37" font-family="Helvetica,sans-Serif" font-size="10.00">xwgetch</text>
</a>
</g>
</g>
<!-- Node6&#45;&gt;Node18 -->
<g id="edge23_Node000006_Node000018" class="edge">
<title>Node6&#45;&gt;Node18</title>
<g id="a_edge23_Node000006_Node000018"><a xlink:title=" ">
<path fill="none" stroke="#63b8ff" d="M184.19,-219.16C198.74,-218.6 215.22,-218.6 229.76,-219.17"/>
<polygon fill="#63b8ff" stroke="#63b8ff" points="229.24,-222.64 239.41,-219.66 229.6,-215.65 229.24,-222.64"/>
</a>
</g>
</g>
<!-- Node8 -->
<g id="Node000008" class="node">
<title>Node8</title>
<g id="a_Node000008"><a xlink:href="../../dc/d5d/a00278.html#aa0145c044cfdde3a1c83323410a59f25" target="_top" xlink:title="safer alternative to strncat">
<polygon fill="white" stroke="#666666" points="431.5,-156.87 366,-156.87 366,-136.12 431.5,-136.12 431.5,-156.87"/>
<text xml:space="preserve" text-anchor="middle" x="398.75" y="-143.37" font-family="Helvetica,sans-Serif" font-size="10.00">strnz__cat</text>
</a>
</g>
</g>
<!-- Node7&#45;&gt;Node8 -->
<g id="edge10_Node000007_Node000008" class="edge">
<title>Node7&#45;&gt;Node8</title>
<g id="a_edge10_Node000007_Node000008"><a xlink:title=" ">
<path fill="none" stroke="#63b8ff" d="M305.21,-175.67C320.47,-170.85 338.61,-165.14 354.76,-160.04"/>
<polygon fill="#63b8ff" stroke="#63b8ff" points="355.64,-163.44 364.13,-157.09 353.54,-156.76 355.64,-163.44"/>
</a>
</g>
</g>
<!-- Node10&#45;&gt;Node2 -->
<g id="edge13_Node000010_Node000002" class="edge">
<title>Node10&#45;&gt;Node2</title>
<g id="a_edge13_Node000010_Node000002"><a xlink:title=" ">
<path fill="none" stroke="#63b8ff" d="M307.57,-102.99C325.41,-100.32 346.7,-97.13 364.12,-94.53"/>
<polygon fill="#63b8ff" stroke="#63b8ff" points="364.6,-97.99 373.97,-93.05 363.56,-91.07 364.6,-97.99"/>
</a>
</g>
</g>
<!-- Node11&#45;&gt;Node12 -->
<g id="edge15_Node000011_Node000012" class="edge">
<title>Node11&#45;&gt;Node12</title>
<g id="a_edge15_Node000011_Node000012"><a xlink:title=" ">
<path fill="none" stroke="#63b8ff" d="M444.88,-270.35C457.94,-272.34 472.11,-274.49 484.83,-276.42"/>
<polygon fill="#63b8ff" stroke="#63b8ff" points="484.12,-279.86 494.54,-277.9 485.18,-272.94 484.12,-279.86"/>
</a>
</g>
</g>
<!-- Node16&#45;&gt;Node14 -->
<g id="edge22_Node000016_Node000014" class="edge">
<title>Node16&#45;&gt;Node14</title>
<g id="a_edge22_Node000016_Node000014"><a xlink:title=" ">
<path fill="none" stroke="#63b8ff" d="M299.5,-380.63C343.51,-383.93 428.12,-390.26 480.19,-394.16"/>
<polygon fill="#63b8ff" stroke="#63b8ff" points="479.67,-397.63 489.91,-394.88 480.19,-390.65 479.67,-397.63"/>
</a>
</g>
</g>
<!-- Node17 -->
<g id="Node000017" class="node">
<title>Node17</title>
<g id="a_Node000017"><a xlink:href="../../df/d95/a00299.html#ac9adcf7339be4a05ab1a7350c236b8a5" target="_top" xlink:title="Draw a box around the specified window.">
<polygon fill="white" stroke="#666666" points="418.38,-350.87 379.12,-350.87 379.12,-330.12 418.38,-330.12 418.38,-350.87"/>
<text xml:space="preserve" text-anchor="middle" x="398.75" y="-337.37" font-family="Helvetica,sans-Serif" font-size="10.00">cbox</text>
</a>
</g>
</g>
<!-- Node16&#45;&gt;Node17 -->
<g id="edge21_Node000016_Node000017" class="edge">
<title>Node16&#45;&gt;Node17</title>
<g id="a_edge21_Node000016_Node000017"><a xlink:title=" ">
<path fill="none" stroke="#63b8ff" d="M299.66,-369.87C320.05,-363.76 347.32,-355.59 367.93,-349.42"/>
<polygon fill="#63b8ff" stroke="#63b8ff" points="368.88,-352.79 377.46,-346.57 366.87,-346.09 368.88,-352.79"/>
</a>
</g>
</g>
<!-- Node18&#45;&gt;Node6 -->
<g id="edge24_Node000018_Node000006" class="edge">
<title>Node18&#45;&gt;Node6</title>
<g id="a_edge24_Node000018_Node000006"><a xlink:title=" ">
<path fill="none" stroke="#63b8ff" d="M240.92,-231.24C227.44,-232.13 210.86,-232.42 195.29,-232.13"/>
<polygon fill="#63b8ff" stroke="#63b8ff" points="195.8,-228.65 185.71,-231.86 195.6,-235.64 195.8,-228.65"/>
</a>
</g>
</g>
<!-- Node19 -->
<g id="Node000019" class="node">
<title>Node19</title>
<g id="a_Node000019"><a xlink:href="../../df/d95/a00299.html#a4298f891699300bfc4e6e56fd2a8d574" target="_top" xlink:title="Get keycode from chyron.">
<polygon fill="white" stroke="#666666" points="445,-234.87 352.5,-234.87 352.5,-214.12 445,-214.12 445,-234.87"/>
<text xml:space="preserve" text-anchor="middle" x="398.75" y="-221.37" font-family="Helvetica,sans-Serif" font-size="10.00">get_chyron_key</text>
</a>
</g>
</g>
<!-- Node18&#45;&gt;Node19 -->
<g id="edge25_Node000018_Node000019" class="edge">
<title>Node18&#45;&gt;Node19</title>
<g id="a_edge25_Node000018_Node000019"><a xlink:title=" ">
<path fill="none" stroke="#63b8ff" d="M298.72,-225.27C311.04,-225.17 326,-225.06 340.53,-224.94"/>
<polygon fill="#63b8ff" stroke="#63b8ff" points="340.54,-228.44 350.51,-224.86 340.48,-221.44 340.54,-228.44"/>
</a>
</g>
</g>
<!-- Node20 -->
<g id="Node000020" class="node">
<title>Node20</title>
<g id="a_Node000020"><a xlink:href="../../d1/da8/a00230.html#a79c3e22498eb2346543aa9c86fd22e58" target="_top" xlink:title="Handle received signals and prompt user for action.">
<polygon fill="white" stroke="#666666" points="440.5,-195.87 357,-195.87 357,-175.12 440.5,-175.12 440.5,-195.87"/>
<text xml:space="preserve" text-anchor="middle" x="398.75" y="-182.37" font-family="Helvetica,sans-Serif" font-size="10.00">handle_signal</text>
</a>
</g>
</g>
<!-- Node18&#45;&gt;Node20 -->
<g id="edge26_Node000018_Node000020" class="edge">
<title>Node18&#45;&gt;Node20</title>
<g id="a_edge26_Node000018_Node000020"><a xlink:title=" ">
<path fill="none" stroke="#63b8ff" d="M298.72,-216.71C314.54,-211.72 334.74,-205.36 352.76,-199.67"/>
<polygon fill="#63b8ff" stroke="#63b8ff" points="353.72,-203.04 362.2,-196.7 351.61,-196.37 353.72,-203.04"/>
</a>
</g>
</g>
<!-- Node20&#45;&gt;Node4 -->
<g id="edge27_Node000020_Node000004" class="edge">
<title>Node20&#45;&gt;Node4</title>
<g id="a_edge27_Node000020_Node000004"><a xlink:title=" ">
<path fill="none" stroke="#63b8ff" d="M440.99,-177.09C482.61,-168.62 547.46,-155.41 595.81,-145.56"/>
<polygon fill="#63b8ff" stroke="#63b8ff" points="596.21,-149.05 605.31,-143.63 594.81,-142.19 596.21,-149.05"/>
</a>
</g>
</g>
<!-- Node20&#45;&gt;Node12 -->
<g id="edge28_Node000020_Node000012" class="edge">
<title>Node20&#45;&gt;Node12</title>
<g id="a_edge28_Node000020_Node000012"><a xlink:title=" ">
<path fill="none" stroke="#63b8ff" d="M428.32,-196.29C434.04,-198.95 439.87,-202.04 445,-205.49 469.52,-221.98 493.32,-246.4 508.44,-263.29"/>
<polygon fill="#63b8ff" stroke="#63b8ff" points="505.68,-265.45 514.9,-270.67 510.95,-260.84 505.68,-265.45"/>
</a>
</g>
</g>
<!-- Node20&#45;&gt;Node14 -->
<g id="edge29_Node000020_Node000014" class="edge">
<title>Node20&#45;&gt;Node14</title>
<g id="a_edge29_Node000020_Node000014"><a xlink:title=" ">
<path fill="none" stroke="#63b8ff" d="M432.49,-196.12C437.1,-198.65 441.46,-201.74 445,-205.49 476.28,-238.62 463.54,-259.4 481,-301.49 491.8,-327.53 505.43,-356.96 514.58,-376.29"/>
<polygon fill="#63b8ff" stroke="#63b8ff" points="511.41,-377.77 518.87,-385.29 517.73,-374.76 511.41,-377.77"/>
</a>
</g>
</g>
<!-- Node21&#45;&gt;Node14 -->
<g id="edge32_Node000021_Node000014" class="edge">
<title>Node21&#45;&gt;Node14</title>
<g id="a_edge32_Node000021_Node000014"><a xlink:title=" ">
<path fill="none" stroke="#63b8ff" d="M187.51,-497.32C247.53,-502.35 359.35,-505.07 445,-468.49 471.32,-457.25 494.9,-433.74 509.48,-416.85"/>
<polygon fill="#63b8ff" stroke="#63b8ff" points="511.94,-419.36 515.64,-409.43 506.56,-414.89 511.94,-419.36"/>
</a>
</g>
</g>
<!-- Node22 -->
<g id="Node000022" class="node">
<title>Node22</title>
<g id="a_Node000022"><a xlink:href="../../dc/d5d/a00278.html#a671225aa841321cad803a383ba99db11" target="_top" xlink:title="removes leading and trailing double quotes if present">
<polygon fill="white" stroke="#666666" points="307.88,-540.87 231.88,-540.87 231.88,-520.12 307.88,-520.12 307.88,-540.87"/>
<text xml:space="preserve" text-anchor="middle" x="269.88" y="-527.37" font-family="Helvetica,sans-Serif" font-size="10.00">strip_quotes</text>
</a>
</g>
</g>
<!-- Node21&#45;&gt;Node22 -->
<g id="edge31_Node000021_Node000022" class="edge">
<title>Node21&#45;&gt;Node22</title>
<g id="a_edge31_Node000021_Node000022"><a xlink:title=" ">
<path fill="none" stroke="#63b8ff" d="M180.17,-503.28C193.37,-507.33 208.59,-512 222.65,-516.31"/>
<polygon fill="#63b8ff" stroke="#63b8ff" points="221.59,-519.65 232.17,-519.23 223.64,-512.95 221.59,-519.65"/>
</a>
</g>
</g>
</g>
</svg>

<g id="navigator" transform="translate(0 0)" fill="#404254">
  <rect fill="#f2f5e9" fill-opacity="0.5" stroke="#606060" stroke-width=".5" x="0" y="0" width="60" height="60"/>
  <use id="zoomplus" xlink:href="#zoomPlus" x="17" y="9" onmousedown="handleZoom(evt,'in')"/>
  <use id="zoomminus" xlink:href="#zoomMin" x="42" y="9" onmousedown="handleZoom(evt,'out')"/>
  <use id="reset" xlink:href="#resetDef" x="30" y="36" onmousedown="handleReset()"/>
   <use id="arrowup" xlink:href="#arrowUp" x="0" y="0" onmousedown="handlePan(0,-1)"/>
  <use id="arrowright" xlink:href="#arrowRight" x="0" y="0" onmousedown="handlePan(1,0)"/>
  <use id="arrowdown" xlink:href="#arrowDown" x="0" y="0" onmousedown="handlePan(0,1)"/>
  <use id="arrowleft" xlink:href="#arrowLeft" x="0" y="0" onmousedown="handlePan(-1,0)"/>
</g>
<svg viewBox="0 0 15 15" width="100%" height="30px" preserveAspectRatio="xMaxYMin meet">
 <g id="arrow_out" transform="scale(0.3 0.3)">
  <a xlink:href="a00263_a2e67404cd52bddd379a57c50434ac445_cgraph_org.svg" target="_base">
   <rect id="button" ry="5" rx="5" y="6" x="6" height="38" width="38"
        fill="#f2f5e9" fill-opacity="0.5" stroke="#606060" stroke-width="1.0"/>
   <path id="arrow"
     d="M 11.500037,31.436501 C 11.940474,20.09759 22.043105,11.32322 32.158766,21.979434 L 37.068811,17.246167 C 37.068811,17.246167 37.088388,32 37.088388,32 L 22.160133,31.978069 C 22.160133,31.978069 26.997745,27.140456 26.997745,27.140456 C 18.528582,18.264221 13.291696,25.230495 11.500037,31.436501 z"
     style="fill:#404040;"/>
  </a>
 </g>
</svg>

<style type='text/css'>
<![CDATA[
[data-mouse-over-selected='false'] { opacity: 0.7; }
[data-mouse-over-selected='true']  { opacity: 1.0; }
]]>
</style>
<script type="application/ecmascript"><![CDATA[
document.addEventListener('DOMContentLoaded', (event) => {
  highlightEdges();
  highlightAdjacentNodes();
});
]]></script>
</svg>
