<?xml version="1.0" encoding="UTF-8" standalone="no"?>
<!DOCTYPE svg PUBLIC "-//W3C//DTD SVG 1.1//EN"
 "http://www.w3.org/Graphics/SVG/1.1/DTD/svg11.dtd">
<!-- Generated by graphviz version 14.1.2 (0)
 -->
<!-- Title: form_fmt_field Pages: 1 -->
<!--zoomable 563 -->

<svg id="main" version="1.1" xmlns="http://www.w3.org/2000/svg" xmlns:xlink="http://www.w3.org/1999/xlink" xml:space="preserve" onload="init(evt)">

<style type="text/css"><![CDATA[
.node, .edge {opacity: 0.7;}
.node.selected, .edge.selected {opacity: 1;}
.edge:hover path { stroke: red; }
.edge:hover polygon { stroke: red; fill: red; }
]]></style>

<defs>
  <circle id="rim" cx="0" cy="0" r="7"/>
  <circle id="rim2" cx="0" cy="0" r="3.5"/>
  <g id="zoomPlus">
    <use xlink:href="#rim" fill="#404040"><set attributeName="fill" to="#808080" begin="zoomplus.mouseover" end="zoomplus.mouseout"/></use>
    <path d="M-4,0h8M0,-4v8" fill="none" stroke="white" stroke-width="1.5" pointer-events="none"/>
  </g>
  <g id="zoomMin">
    <use xlink:href="#rim" fill="#404040"><set attributeName="fill" to="#808080" begin="zoomminus.mouseover" end="zoomminus.mouseout"/></use>
    <path d="M-4,0h8" fill="none" stroke="white" stroke-width="1.5" pointer-events="none"/>
  </g>
  <g id="arrowUp" transform="translate(30 24)">
    <use xlink:href="#rim"/>
    <path pointer-events="none" fill="none" stroke="white" stroke-width="1.5" d="M0,-3.0v7 M-2.5,-0.5L0,-3.0L2.5,-0.5"/>
  </g>
  <g id="arrowRight" transform="rotate(90) translate(36 -43)">
    <use xlink:href="#rim"/>
    <path pointer-events="none" fill="none" stroke="white" stroke-width="1.5" d="M0,-3.0v7 M-2.5,-0.5L0,-3.0L2.5,-0.5"/>
  </g>
  <g id="arrowDown" transform="rotate(180) translate(-30 -48)">
    <use xlink:href="#rim"/>
    <path pointer-events="none" fill="none" stroke="white" stroke-width="1.5" d="M0,-3.0v7 M-2.5,-0.5L0,-3.0L2.5,-0.5"/>
  </g>
  <g id="arrowLeft" transform="rotate(270) translate(-36 17)">
    <use xlink:href="#rim"/>
    <path pointer-events="none" fill="none" stroke="white" stroke-width="1.5" d="M0,-3.0v7 M-2.5,-0.5L0,-3.0L2.5,-0.5"/>
  </g>
  <g id="resetDef">
    <use xlink:href="#rim2" fill="#404040"><set attributeName="fill" to="#808080" begin="reset.mouseover" end="reset.mouseout"/></use>
  </g>
</defs>
<script type="application/ecmascript">
var viewWidth = 933;
var viewHeight = 563;
var sectionId = 'dynsection-8';
</script>
<script type="application/ecmascript" xlink:href="../../svg.min.js"/>
<svg id="graph" class="graph">
<g id="viewport">
<title>form_fmt_field</title>
<!-- Node1 -->
<g id="Node000001" class="node">
<title>Node1</title>
<g id="a_Node000001"><a xlink:title="Format field according to its format type.">
<polygon fill="#999999" stroke="#666666" points="88.75,-418.75 0,-418.75 0,-398 88.75,-398 88.75,-418.75"/>
<text xml:space="preserve" text-anchor="middle" x="44.38" y="-405.25" font-family="Helvetica,sans-Serif" font-size="10.00">form_fmt_field</text>
</a>
</g>
</g>
<!-- Node2 -->
<g id="Node000002" class="node">
<title>Node2</title>
<g id="a_Node000002"><a xlink:href="../../db/d7b/a00296.html#a425021d4c87474159a36d395e4dcdf65" target="_top" xlink:title="Left justify string by removing leading spaces.">
<polygon fill="white" stroke="#666666" points="196.25,-516.75 127.75,-516.75 127.75,-496 196.25,-496 196.25,-516.75"/>
<text xml:space="preserve" text-anchor="middle" x="162" y="-503.25" font-family="Helvetica,sans-Serif" font-size="10.00">left_justify</text>
</a>
</g>
</g>
<!-- Node1&#45;&gt;Node2 -->
<g id="edge1_Node000001_Node000002" class="edge">
<title>Node1&#45;&gt;Node2</title>
<g id="a_edge1_Node000001_Node000002"><a xlink:title=" ">
<path fill="none" stroke="#63b8ff" d="M54.6,-419.16C68.64,-435.14 96.71,-465.48 124.75,-486.38 126.3,-487.53 127.91,-488.66 129.58,-489.76"/>
<polygon fill="#63b8ff" stroke="#63b8ff" points="127.66,-492.69 138.02,-494.89 131.29,-486.7 127.66,-492.69"/>
</a>
</g>
</g>
<!-- Node3 -->
<g id="Node000003" class="node">
<title>Node3</title>
<g id="a_Node000003"><a xlink:href="../../d6/d7f/a00287.html#a34703756fd5be0fde758400f320db047" target="_top" xlink:title="Trims leading and trailing spaces from string s in place.">
<polygon fill="white" stroke="#666666" points="282,-554.75 245.75,-554.75 245.75,-534 282,-534 282,-554.75"/>
<text xml:space="preserve" text-anchor="middle" x="263.88" y="-541.25" font-family="Helvetica,sans-Serif" font-size="10.00">trim</text>
</a>
</g>
</g>
<!-- Node1&#45;&gt;Node3 -->
<g id="edge42_Node000001_Node000003" class="edge">
<title>Node1&#45;&gt;Node3</title>
<g id="a_edge42_Node000001_Node000003"><a xlink:title=" ">
<path fill="none" stroke="#63b8ff" d="M49.12,-419C58.06,-442.63 83.05,-499.48 124.75,-525.38 158.19,-546.14 204.87,-548.19 234.48,-546.92"/>
<polygon fill="#63b8ff" stroke="#63b8ff" points="234.39,-550.44 244.16,-546.34 233.97,-543.45 234.39,-550.44"/>
</a>
</g>
</g>
<!-- Node4 -->
<g id="Node000004" class="node">
<title>Node4</title>
<g id="a_Node000004"><a xlink:href="../../db/d7b/a00296.html#aac069c6892f64ea6307044a92b179faa" target="_top" xlink:title="Create filler string for field.">
<polygon fill="white" stroke="#666666" points="191.75,-438.75 132.25,-438.75 132.25,-418 191.75,-418 191.75,-438.75"/>
<text xml:space="preserve" text-anchor="middle" x="162" y="-425.25" font-family="Helvetica,sans-Serif" font-size="10.00">mk_filler</text>
</a>
</g>
</g>
<!-- Node1&#45;&gt;Node4 -->
<g id="edge3_Node000001_Node000004" class="edge">
<title>Node1&#45;&gt;Node4</title>
<g id="a_edge3_Node000001_Node000004"><a xlink:title=" ">
<path fill="none" stroke="#63b8ff" d="M89.09,-415.94C99.5,-417.74 110.55,-419.65 120.8,-421.42"/>
<polygon fill="#63b8ff" stroke="#63b8ff" points="119.99,-424.83 130.44,-423.09 121.19,-417.94 119.99,-424.83"/>
</a>
</g>
</g>
<!-- Node5 -->
<g id="Node000005" class="node">
<title>Node5</title>
<g id="a_Node000005"><a xlink:href="../../db/d7b/a00296.html#a18db59e4c79e823f79310378183ac25c" target="_top" xlink:title="Extract numeric characters from source string to destination string.">
<polygon fill="white" stroke="#666666" points="189.88,-399.75 134.12,-399.75 134.12,-379 189.88,-379 189.88,-399.75"/>
<text xml:space="preserve" text-anchor="middle" x="162" y="-386.25" font-family="Helvetica,sans-Serif" font-size="10.00">numeric</text>
</a>
</g>
</g>
<!-- Node1&#45;&gt;Node5 -->
<g id="edge4_Node000001_Node000005" class="edge">
<title>Node1&#45;&gt;Node5</title>
<g id="a_edge4_Node000001_Node000005"><a xlink:title=" ">
<path fill="none" stroke="#63b8ff" d="M89.09,-401.19C100.08,-399.39 111.79,-397.46 122.5,-395.7"/>
<polygon fill="#63b8ff" stroke="#63b8ff" points="122.86,-399.19 132.16,-394.11 121.73,-392.28 122.86,-399.19"/>
</a>
</g>
</g>
<!-- Node6 -->
<g id="Node000006" class="node">
<title>Node6</title>
<g id="a_Node000006"><a xlink:href="../../d6/d82/a00293.html#a61b4f28456257f68ed042bed7f187efd" target="_top" xlink:title="Display a simple error message window or print to stderr.">
<polygon fill="white" stroke="#666666" points="184.62,-360.75 139.38,-360.75 139.38,-340 184.62,-340 184.62,-360.75"/>
<text xml:space="preserve" text-anchor="middle" x="162" y="-347.25" font-family="Helvetica,sans-Serif" font-size="10.00">Perror</text>
</a>
</g>
</g>
<!-- Node1&#45;&gt;Node6 -->
<g id="edge5_Node000001_Node000006" class="edge">
<title>Node1&#45;&gt;Node6</title>
<g id="a_edge5_Node000001_Node000006"><a xlink:title=" ">
<path fill="none" stroke="#63b8ff" d="M66.85,-397.6C84.46,-388.77 109.62,-376.15 129.5,-366.17"/>
<polygon fill="#63b8ff" stroke="#63b8ff" points="130.92,-369.38 138.28,-361.77 127.78,-363.12 130.92,-369.38"/>
</a>
</g>
</g>
<!-- Node17 -->
<g id="Node000017" class="node">
<title>Node17</title>
<g id="a_Node000017"><a xlink:href="../../d6/d7f/a00287.html#a0de2e40df9bd7efc8fd9afb8ad2257e6" target="_top" xlink:title="safer alternative to strncpy">
<polygon fill="white" stroke="#666666" points="654,-115.75 586.25,-115.75 586.25,-95 654,-95 654,-115.75"/>
<text xml:space="preserve" text-anchor="middle" x="620.12" y="-102.25" font-family="Helvetica,sans-Serif" font-size="10.00">strnz__cpy</text>
</a>
</g>
</g>
<!-- Node1&#45;&gt;Node17 -->
<g id="edge41_Node000001_Node000017" class="edge">
<title>Node1&#45;&gt;Node17</title>
<g id="a_edge41_Node000001_Node000017"><a xlink:title=" ">
<path fill="none" stroke="#63b8ff" d="M46.5,-397.6C53.38,-337.7 95.29,-48.38 262.88,-48.38 262.88,-48.38 262.88,-48.38 375.75,-48.38 449.87,-48.38 533.43,-73.75 580.83,-90.64"/>
<polygon fill="#63b8ff" stroke="#63b8ff" points="579.5,-93.88 590.09,-94 581.89,-87.3 579.5,-93.88"/>
</a>
</g>
</g>
<!-- Node24 -->
<g id="Node000024" class="node">
<title>Node24</title>
<g id="a_Node000024"><a xlink:href="../../db/d7b/a00296.html#a21ebe9713e3b003715a7a2c3b64cbf55" target="_top" xlink:title="Right justify string by removing trailing spaces and adding leading spaces.">
<polygon fill="white" stroke="#666666" points="199.25,-477.75 124.75,-477.75 124.75,-457 199.25,-457 199.25,-477.75"/>
<text xml:space="preserve" text-anchor="middle" x="162" y="-464.25" font-family="Helvetica,sans-Serif" font-size="10.00">right_justify</text>
</a>
</g>
</g>
<!-- Node1&#45;&gt;Node24 -->
<g id="edge38_Node000001_Node000024" class="edge">
<title>Node1&#45;&gt;Node24</title>
<g id="a_edge38_Node000001_Node000024"><a xlink:title=" ">
<path fill="none" stroke="#63b8ff" d="M66.58,-419.2C84.27,-428.22 109.71,-441.21 129.73,-451.42"/>
<polygon fill="#63b8ff" stroke="#63b8ff" points="128.08,-454.51 138.58,-455.93 131.26,-448.27 128.08,-454.51"/>
</a>
</g>
</g>
<!-- Node25 -->
<g id="Node000025" class="node">
<title>Node25</title>
<g id="a_Node000025"><a xlink:href="../../d6/d7f/a00287.html#a636608f26d1193b5d860f2312cd8ee49" target="_top" xlink:title="terminates string at New Line, Carriage Return, or max_len">
<polygon fill="white" stroke="#666666" points="182,-20.75 142,-20.75 142,0 182,0 182,-20.75"/>
<text xml:space="preserve" text-anchor="middle" x="162" y="-7.25" font-family="Helvetica,sans-Serif" font-size="10.00">strnz</text>
</a>
</g>
</g>
<!-- Node1&#45;&gt;Node25 -->
<g id="edge40_Node000001_Node000025" class="edge">
<title>Node1&#45;&gt;Node25</title>
<g id="a_edge40_Node000001_Node000025"><a xlink:title=" ">
<path fill="none" stroke="#63b8ff" d="M46.53,-397.82C52.61,-343.64 82.27,-96.79 124.75,-34.38 126.87,-31.26 129.55,-28.44 132.48,-25.93"/>
<polygon fill="#63b8ff" stroke="#63b8ff" points="134.42,-28.84 140.52,-20.18 130.35,-23.15 134.42,-28.84"/>
</a>
</g>
</g>
<!-- Node2&#45;&gt;Node3 -->
<g id="edge2_Node000002_Node000003" class="edge">
<title>Node2&#45;&gt;Node3</title>
<g id="a_edge2_Node000002_Node000003"><a xlink:title=" ">
<path fill="none" stroke="#63b8ff" d="M191.35,-517.16C204.96,-522.34 221.21,-528.52 234.79,-533.69"/>
<polygon fill="#63b8ff" stroke="#63b8ff" points="233.43,-536.92 244.02,-537.2 235.92,-530.38 233.43,-536.92"/>
</a>
</g>
</g>
<!-- Node7 -->
<g id="Node000007" class="node">
<title>Node7</title>
<g id="a_Node000007"><a xlink:href="../../d6/d82/a00293.html#a8f6c45ca4a7f6a41c4c88314e697565a" target="_top" xlink:title="Abnormal program termination.">
<polygon fill="white" stroke="#666666" points="643.12,-325.75 597.12,-325.75 597.12,-305 643.12,-305 643.12,-325.75"/>
<text xml:space="preserve" text-anchor="middle" x="620.12" y="-312.25" font-family="Helvetica,sans-Serif" font-size="10.00">abend</text>
</a>
</g>
</g>
<!-- Node6&#45;&gt;Node7 -->
<g id="edge6_Node000006_Node000007" class="edge">
<title>Node6&#45;&gt;Node7</title>
<g id="a_edge6_Node000006_Node000007"><a xlink:title=" ">
<path fill="none" stroke="#63b8ff" d="M184.07,-361.19C189.15,-364.02 194.48,-367.17 199.25,-370.38 216.31,-381.83 216.89,-390.16 235.25,-399.38 361.95,-462.94 429.26,-523.23 550.25,-449.38 571.11,-436.64 598.22,-371.09 611.33,-336.62"/>
<polygon fill="#63b8ff" stroke="#63b8ff" points="614.46,-338.26 614.69,-327.66 607.9,-335.8 614.46,-338.26"/>
</a>
</g>
</g>
<!-- Node11 -->
<g id="Node000011" class="node">
<title>Node11</title>
<g id="a_Node000011"><a xlink:href="../../d6/d82/a00293.html#a645871e46277e31736bc36d0f3dce4bd" target="_top" xlink:title="construct the chyron string from the chyron structure">
<polygon fill="white" stroke="#666666" points="550.25,-249.75 457,-249.75 457,-229 550.25,-229 550.25,-249.75"/>
<text xml:space="preserve" text-anchor="middle" x="503.62" y="-236.25" font-family="Helvetica,sans-Serif" font-size="10.00">compile_chyron</text>
</a>
</g>
</g>
<!-- Node6&#45;&gt;Node11 -->
<g id="edge12_Node000006_Node000011" class="edge">
<title>Node6&#45;&gt;Node11</title>
<g id="a_edge12_Node000006_Node000011"><a xlink:title=" ">
<path fill="none" stroke="#63b8ff" d="M175.39,-339.61C189.29,-327.92 212.81,-309.19 235.25,-296.38 274.26,-274.09 284.97,-268.47 328.5,-257.38 366.73,-247.63 410.97,-243.14 445.29,-241.08"/>
<polygon fill="#63b8ff" stroke="#63b8ff" points="445.21,-244.59 455.01,-240.55 444.84,-237.6 445.21,-244.59"/>
</a>
</g>
</g>
<!-- Node13 -->
<g id="Node000013" class="node">
<title>Node13</title>
<g id="a_Node000013"><a xlink:href="../../d6/d82/a00293.html#a3f3feb40fd703913c5c136331f627c91" target="_top" xlink:title="Destroy Chyron structure.">
<polygon fill="white" stroke="#666666" points="549.12,-134.75 458.12,-134.75 458.12,-114 549.12,-114 549.12,-134.75"/>
<text xml:space="preserve" text-anchor="middle" x="503.62" y="-121.25" font-family="Helvetica,sans-Serif" font-size="10.00">destroy_chyron</text>
</a>
</g>
</g>
<!-- Node6&#45;&gt;Node13 -->
<g id="edge14_Node000006_Node000013" class="edge">
<title>Node6&#45;&gt;Node13</title>
<g id="a_edge14_Node000006_Node000013"><a xlink:title=" ">
<path fill="none" stroke="#63b8ff" d="M167.05,-339.71C176.15,-316.92 200.21,-262.83 235.25,-229.38 294.38,-172.91 387.42,-145.71 446.7,-133.44"/>
<polygon fill="#63b8ff" stroke="#63b8ff" points="447.11,-136.93 456.23,-131.55 445.74,-130.06 447.11,-136.93"/>
</a>
</g>
</g>
<!-- Node14 -->
<g id="Node000014" class="node">
<title>Node14</title>
<g id="a_Node000014"><a xlink:href="../../d6/d82/a00293.html#ad37d5808ff30ae6894780425d865abae" target="_top" xlink:title="Create and initialize Chyron structure.">
<polygon fill="white" stroke="#666666" points="540.88,-325.75 466.38,-325.75 466.38,-305 540.88,-305 540.88,-325.75"/>
<text xml:space="preserve" text-anchor="middle" x="503.62" y="-312.25" font-family="Helvetica,sans-Serif" font-size="10.00">new_chyron</text>
</a>
</g>
</g>
<!-- Node6&#45;&gt;Node14 -->
<g id="edge15_Node000006_Node000014" class="edge">
<title>Node6&#45;&gt;Node14</title>
<g id="a_edge15_Node000006_Node000014"><a xlink:title=" ">
<path fill="none" stroke="#63b8ff" d="M184.87,-350.25C229.5,-349.71 334.19,-347.08 421,-334.38 432.01,-332.76 443.72,-330.42 454.73,-327.93"/>
<polygon fill="#63b8ff" stroke="#63b8ff" points="455.49,-331.34 464.42,-325.64 453.89,-324.53 455.49,-331.34"/>
</a>
</g>
</g>
<!-- Node15 -->
<g id="Node000015" class="node">
<title>Node15</title>
<g id="a_Node000015"><a xlink:href="../../d6/d82/a00293.html#a208ce92c197fdd6d2b007987e534aa3b" target="_top" xlink:title="Set chyron key.">
<polygon fill="white" stroke="#666666" points="549.5,-440.75 457.75,-440.75 457.75,-420 549.5,-420 549.5,-440.75"/>
<text xml:space="preserve" text-anchor="middle" x="503.62" y="-427.25" font-family="Helvetica,sans-Serif" font-size="10.00">set_chyron_key</text>
</a>
</g>
</g>
<!-- Node6&#45;&gt;Node15 -->
<g id="edge17_Node000006_Node000015" class="edge">
<title>Node6&#45;&gt;Node15</title>
<g id="a_edge17_Node000006_Node000015"><a xlink:title=" ">
<path fill="none" stroke="#63b8ff" d="M185.1,-360.12C199.23,-366.05 218.06,-373.41 235.25,-378.38 306.94,-399.06 391.82,-414 446.41,-422.42"/>
<polygon fill="#63b8ff" stroke="#63b8ff" points="445.67,-425.85 456.08,-423.89 446.72,-418.93 445.67,-425.85"/>
</a>
</g>
</g>
<!-- Node16 -->
<g id="Node000016" class="node">
<title>Node16</title>
<g id="a_Node000016"><a xlink:href="../../d6/d7f/a00287.html#a63eb94756fb011a456a3dec900709cd8" target="_top" xlink:title="ssnprintf was designed to be a safer alternative to snprintf.">
<polygon fill="white" stroke="#666666" points="649.5,-440.75 590.75,-440.75 590.75,-420 649.5,-420 649.5,-440.75"/>
<text xml:space="preserve" text-anchor="middle" x="620.12" y="-427.25" font-family="Helvetica,sans-Serif" font-size="10.00">ssnprintf</text>
</a>
</g>
</g>
<!-- Node6&#45;&gt;Node16 -->
<g id="edge19_Node000006_Node000016" class="edge">
<title>Node6&#45;&gt;Node16</title>
<g id="a_edge19_Node000006_Node000016"><a xlink:title=" ">
<path fill="none" stroke="#63b8ff" d="M184.91,-360.14C189.96,-363 195.07,-366.43 199.25,-370.38 221.05,-390.93 213.49,-406.77 235.25,-427.38 269.71,-460 282.62,-467.26 328.5,-479.38 423.79,-504.54 456.51,-510.81 550.25,-480.38 569.48,-474.13 587.82,-460.28 600.74,-448.74"/>
<polygon fill="#63b8ff" stroke="#63b8ff" points="603.11,-451.31 608.01,-441.92 598.32,-446.21 603.11,-451.31"/>
</a>
</g>
</g>
<!-- Node6&#45;&gt;Node17 -->
<g id="edge20_Node000006_Node000017" class="edge">
<title>Node6&#45;&gt;Node17</title>
<g id="a_edge20_Node000006_Node000017"><a xlink:title=" ">
<path fill="none" stroke="#63b8ff" d="M165.12,-339.84C171.26,-311.7 191.5,-233.64 235.25,-186.38 323.67,-90.85 493.99,-92.81 574.67,-99.94"/>
<polygon fill="#63b8ff" stroke="#63b8ff" points="574.11,-103.4 584.39,-100.87 574.77,-96.43 574.11,-103.4"/>
</a>
</g>
</g>
<!-- Node18 -->
<g id="Node000018" class="node">
<title>Node18</title>
<g id="a_Node000018"><a xlink:href="../../d6/d82/a00293.html#a9dd598e1d49c8764af1eec42c682623e" target="_top" xlink:title="Delete the current window and its associated box window.">
<polygon fill="white" stroke="#666666" points="530.38,-401.75 476.88,-401.75 476.88,-381 530.38,-381 530.38,-401.75"/>
<text xml:space="preserve" text-anchor="middle" x="503.62" y="-388.25" font-family="Helvetica,sans-Serif" font-size="10.00">win_del</text>
</a>
</g>
</g>
<!-- Node6&#45;&gt;Node18 -->
<g id="edge21_Node000006_Node000018" class="edge">
<title>Node6&#45;&gt;Node18</title>
<g id="a_edge21_Node000006_Node000018"><a xlink:title=" ">
<path fill="none" stroke="#63b8ff" d="M185.1,-353.97C199.39,-356.24 218.39,-359.15 235.25,-361.38 317.09,-372.19 413.36,-382.37 465.14,-387.64"/>
<polygon fill="#63b8ff" stroke="#63b8ff" points="464.59,-391.1 474.89,-388.63 465.29,-384.14 464.59,-391.1"/>
</a>
</g>
</g>
<!-- Node19 -->
<g id="Node000019" class="node">
<title>Node19</title>
<g id="a_Node000019"><a xlink:href="../../d6/d82/a00293.html#a435c7bff7ffedb8f51c6de9259e36f6c" target="_top" xlink:title="Create a new window with optional box and title.">
<polygon fill="white" stroke="#666666" points="533,-173.75 474.25,-173.75 474.25,-153 533,-153 533,-173.75"/>
<text xml:space="preserve" text-anchor="middle" x="503.62" y="-160.25" font-family="Helvetica,sans-Serif" font-size="10.00">win_new</text>
</a>
</g>
</g>
<!-- Node6&#45;&gt;Node19 -->
<g id="edge22_Node000006_Node000019" class="edge">
<title>Node6&#45;&gt;Node19</title>
<g id="a_edge22_Node000006_Node000019"><a xlink:title=" ">
<path fill="none" stroke="#63b8ff" d="M169.45,-339.62C180.71,-321.7 205.59,-285.59 235.25,-264.38 306.83,-213.16 407.59,-184.43 462.72,-171.61"/>
<polygon fill="#63b8ff" stroke="#63b8ff" points="463.3,-175.07 472.29,-169.45 461.76,-168.24 463.3,-175.07"/>
</a>
</g>
</g>
<!-- Node21 -->
<g id="Node000021" class="node">
<title>Node21</title>
<g id="a_Node000021"><a xlink:href="../../d6/d82/a00293.html#acf4c709bccc4c965a5d61db978db31a3" target="_top" xlink:title="Wrapper for wgetch that handles signals and mouse events.">
<polygon fill="white" stroke="#666666" points="292.5,-325.75 235.25,-325.75 235.25,-305 292.5,-305 292.5,-325.75"/>
<text xml:space="preserve" text-anchor="middle" x="263.88" y="-312.25" font-family="Helvetica,sans-Serif" font-size="10.00">xwgetch</text>
</a>
</g>
</g>
<!-- Node6&#45;&gt;Node21 -->
<g id="edge25_Node000006_Node000021" class="edge">
<title>Node6&#45;&gt;Node21</title>
<g id="a_edge25_Node000006_Node000021"><a xlink:title=" ">
<path fill="none" stroke="#63b8ff" d="M184.67,-342.78C196.15,-338.76 210.59,-333.7 223.93,-329.02"/>
<polygon fill="#63b8ff" stroke="#63b8ff" points="225.08,-332.33 233.36,-325.72 222.77,-325.72 225.08,-332.33"/>
</a>
</g>
</g>
<!-- Node8 -->
<g id="Node000008" class="node">
<title>Node8</title>
<g id="a_Node000008"><a xlink:href="../../d6/d82/a00293.html#afc0985a403e3eac0b2cd8f0fab500256" target="_top" xlink:title="Gracefully shut down NCurses and restore terminal settings.">
<polygon fill="white" stroke="#666666" points="779.5,-325.75 690,-325.75 690,-305 779.5,-305 779.5,-325.75"/>
<text xml:space="preserve" text-anchor="middle" x="734.75" y="-312.25" font-family="Helvetica,sans-Serif" font-size="10.00">destroy_curses</text>
</a>
</g>
</g>
<!-- Node7&#45;&gt;Node8 -->
<g id="edge7_Node000007_Node000008" class="edge">
<title>Node7&#45;&gt;Node8</title>
<g id="a_edge7_Node000007_Node000008"><a xlink:title=" ">
<path fill="none" stroke="#63b8ff" d="M643.38,-315.38C653.49,-315.38 665.94,-315.38 678.34,-315.38"/>
<polygon fill="#63b8ff" stroke="#63b8ff" points="678.13,-318.88 688.13,-315.38 678.13,-311.88 678.13,-318.88"/>
</a>
</g>
</g>
<!-- Node9 -->
<g id="Node000009" class="node">
<title>Node9</title>
<g id="a_Node000009"><a xlink:href="../../df/d95/a00299.html#ac5e3adb304b78910fc77761ef6a743f0" target="_top" xlink:title="restore_shell_tioctl() &#45; restore shell terminal settings">
<polygon fill="white" stroke="#666666" points="924.5,-353.75 815.5,-353.75 815.5,-333 924.5,-333 924.5,-353.75"/>
<text xml:space="preserve" text-anchor="middle" x="870" y="-340.25" font-family="Helvetica,sans-Serif" font-size="10.00">restore_shell_tioctl</text>
</a>
</g>
</g>
<!-- Node7&#45;&gt;Node9 -->
<g id="edge10_Node000007_Node000009" class="edge">
<title>Node7&#45;&gt;Node9</title>
<g id="a_edge10_Node000007_Node000009"><a xlink:title=" ">
<path fill="none" stroke="#63b8ff" d="M643.5,-322.88C656.84,-327.03 674.2,-331.83 690,-334.38 727.4,-340.4 769.71,-342.73 803.8,-343.52"/>
<polygon fill="#63b8ff" stroke="#63b8ff" points="803.45,-347.01 813.51,-343.7 803.58,-340.01 803.45,-347.01"/>
</a>
</g>
</g>
<!-- Node10 -->
<g id="Node000010" class="node">
<title>Node10</title>
<g id="a_Node000010"><a xlink:href="../../d3/d1a/a00251.html#a06c1eb6cf3649dc187115565409f91af" target="_top" xlink:title="Set signal handlers to default behavior.">
<polygon fill="white" stroke="#666666" points="910.62,-305.75 829.38,-305.75 829.38,-285 910.62,-285 910.62,-305.75"/>
<text xml:space="preserve" text-anchor="middle" x="870" y="-292.25" font-family="Helvetica,sans-Serif" font-size="10.00">sig_dfl_mode</text>
</a>
</g>
</g>
<!-- Node7&#45;&gt;Node10 -->
<g id="edge11_Node000007_Node000010" class="edge">
<title>Node7&#45;&gt;Node10</title>
<g id="a_edge11_Node000007_Node000010"><a xlink:title=" ">
<path fill="none" stroke="#63b8ff" d="M643.46,-307.6C656.78,-303.37 674.15,-298.57 690,-296.38 732.78,-290.46 781.86,-290.67 817.79,-292.1"/>
<polygon fill="#63b8ff" stroke="#63b8ff" points="817.31,-295.58 827.46,-292.54 817.63,-288.59 817.31,-295.58"/>
</a>
</g>
</g>
<!-- Node8&#45;&gt;Node9 -->
<g id="edge8_Node000008_Node000009" class="edge">
<title>Node8&#45;&gt;Node9</title>
<g id="a_edge8_Node000008_Node000009"><a xlink:title=" ">
<path fill="none" stroke="#63b8ff" d="M779.75,-324.62C788.37,-326.43 797.57,-328.37 806.66,-330.28"/>
<polygon fill="#63b8ff" stroke="#63b8ff" points="805.66,-333.64 816.17,-332.27 807.1,-326.79 805.66,-333.64"/>
</a>
</g>
</g>
<!-- Node8&#45;&gt;Node10 -->
<g id="edge9_Node000008_Node000010" class="edge">
<title>Node8&#45;&gt;Node10</title>
<g id="a_edge9_Node000008_Node000010"><a xlink:title=" ">
<path fill="none" stroke="#63b8ff" d="M779.75,-308.77C791.94,-306.94 805.27,-304.94 817.83,-303.06"/>
<polygon fill="#63b8ff" stroke="#63b8ff" points="818.23,-306.54 827.6,-301.59 817.19,-299.61 818.23,-306.54"/>
</a>
</g>
</g>
<!-- Node12 -->
<g id="Node000012" class="node">
<title>Node12</title>
<g id="a_Node000012"><a xlink:href="../../d6/d7f/a00287.html#aa0145c044cfdde3a1c83323410a59f25" target="_top" xlink:title="safer alternative to strncat">
<polygon fill="white" stroke="#666666" points="652.88,-249.75 587.38,-249.75 587.38,-229 652.88,-229 652.88,-249.75"/>
<text xml:space="preserve" text-anchor="middle" x="620.12" y="-236.25" font-family="Helvetica,sans-Serif" font-size="10.00">strnz__cat</text>
</a>
</g>
</g>
<!-- Node11&#45;&gt;Node12 -->
<g id="edge13_Node000011_Node000012" class="edge">
<title>Node11&#45;&gt;Node12</title>
<g id="a_edge13_Node000011_Node000012"><a xlink:title=" ">
<path fill="none" stroke="#63b8ff" d="M550.54,-239.38C558.83,-239.38 567.44,-239.38 575.66,-239.38"/>
<polygon fill="#63b8ff" stroke="#63b8ff" points="575.42,-242.88 585.42,-239.38 575.42,-235.88 575.42,-242.88"/>
</a>
</g>
</g>
<!-- Node14&#45;&gt;Node7 -->
<g id="edge16_Node000014_Node000007" class="edge">
<title>Node14&#45;&gt;Node7</title>
<g id="a_edge16_Node000014_Node000007"><a xlink:title=" ">
<path fill="none" stroke="#63b8ff" d="M541.17,-315.38C555.49,-315.38 571.8,-315.38 585.79,-315.38"/>
<polygon fill="#63b8ff" stroke="#63b8ff" points="585.39,-318.88 595.39,-315.38 585.39,-311.88 585.39,-318.88"/>
</a>
</g>
</g>
<!-- Node15&#45;&gt;Node16 -->
<g id="edge18_Node000015_Node000016" class="edge">
<title>Node15&#45;&gt;Node16</title>
<g id="a_edge18_Node000015_Node000016"><a xlink:title=" ">
<path fill="none" stroke="#63b8ff" d="M549.88,-430.38C559.46,-430.38 569.51,-430.38 578.89,-430.38"/>
<polygon fill="#63b8ff" stroke="#63b8ff" points="578.82,-433.88 588.82,-430.38 578.82,-426.88 578.82,-433.88"/>
</a>
</g>
</g>
<!-- Node19&#45;&gt;Node17 -->
<g id="edge24_Node000019_Node000017" class="edge">
<title>Node19&#45;&gt;Node17</title>
<g id="a_edge24_Node000019_Node000017"><a xlink:title=" ">
<path fill="none" stroke="#63b8ff" d="M530.39,-152.57C536.92,-149.7 543.89,-146.51 550.25,-143.38 563.83,-136.67 578.58,-128.64 590.93,-121.69"/>
<polygon fill="#63b8ff" stroke="#63b8ff" points="592.38,-124.89 599.34,-116.91 588.92,-118.81 592.38,-124.89"/>
</a>
</g>
</g>
<!-- Node20 -->
<g id="Node000020" class="node">
<title>Node20</title>
<g id="a_Node000020"><a xlink:href="../../d6/d82/a00293.html#ac9adcf7339be4a05ab1a7350c236b8a5" target="_top" xlink:title="Draw a box around the specified window.">
<polygon fill="white" stroke="#666666" points="639.75,-173.75 600.5,-173.75 600.5,-153 639.75,-153 639.75,-173.75"/>
<text xml:space="preserve" text-anchor="middle" x="620.12" y="-160.25" font-family="Helvetica,sans-Serif" font-size="10.00">cbox</text>
</a>
</g>
</g>
<!-- Node19&#45;&gt;Node20 -->
<g id="edge23_Node000019_Node000020" class="edge">
<title>Node19&#45;&gt;Node20</title>
<g id="a_edge23_Node000019_Node000020"><a xlink:title=" ">
<path fill="none" stroke="#63b8ff" d="M533.22,-163.38C550.15,-163.38 571.57,-163.38 588.79,-163.38"/>
<polygon fill="#63b8ff" stroke="#63b8ff" points="588.69,-166.88 598.69,-163.38 588.69,-159.88 588.69,-166.88"/>
</a>
</g>
</g>
<!-- Node22 -->
<g id="Node000022" class="node">
<title>Node22</title>
<g id="a_Node000022"><a xlink:href="../../d6/d82/a00293.html#a67659f8a701b74f4dec0d36227a10d1c" target="_top" xlink:title="Display an error message window or print to stderr.">
<polygon fill="white" stroke="#666666" points="414.62,-325.75 334.88,-325.75 334.88,-305 414.62,-305 414.62,-325.75"/>
<text xml:space="preserve" text-anchor="middle" x="374.75" y="-312.25" font-family="Helvetica,sans-Serif" font-size="10.00">display_error</text>
</a>
</g>
</g>
<!-- Node21&#45;&gt;Node22 -->
<g id="edge26_Node000021_Node000022" class="edge">
<title>Node21&#45;&gt;Node22</title>
<g id="a_edge26_Node000021_Node000022"><a xlink:title=" ">
<path fill="none" stroke="#63b8ff" d="M292.91,-309.39C302.26,-308.8 312.98,-308.55 323.48,-308.64"/>
<polygon fill="#63b8ff" stroke="#63b8ff" points="323.15,-312.14 333.22,-308.84 323.29,-305.14 323.15,-312.14"/>
</a>
</g>
</g>
<!-- Node23 -->
<g id="Node000023" class="node">
<title>Node23</title>
<g id="a_Node000023"><a xlink:href="../../d6/d82/a00293.html#a4298f891699300bfc4e6e56fd2a8d574" target="_top" xlink:title="Get keycode from chyron.">
<polygon fill="white" stroke="#666666" points="421,-286.75 328.5,-286.75 328.5,-266 421,-266 421,-286.75"/>
<text xml:space="preserve" text-anchor="middle" x="374.75" y="-273.25" font-family="Helvetica,sans-Serif" font-size="10.00">get_chyron_key</text>
</a>
</g>
</g>
<!-- Node21&#45;&gt;Node23 -->
<g id="edge37_Node000021_Node000023" class="edge">
<title>Node21&#45;&gt;Node23</title>
<g id="a_edge37_Node000021_Node000023"><a xlink:title=" ">
<path fill="none" stroke="#63b8ff" d="M292.91,-305.33C305.02,-300.99 319.43,-295.83 332.71,-291.08"/>
<polygon fill="#63b8ff" stroke="#63b8ff" points="333.86,-294.38 342.09,-287.72 331.5,-287.79 333.86,-294.38"/>
</a>
</g>
</g>
<!-- Node22&#45;&gt;Node7 -->
<g id="edge27_Node000022_Node000007" class="edge">
<title>Node22&#45;&gt;Node7</title>
<g id="a_edge27_Node000022_Node000007"><a xlink:title=" ">
<path fill="none" stroke="#63b8ff" d="M413.87,-304.56C427.37,-301.23 442.75,-298.02 457,-296.38 498.17,-291.63 509.18,-290.81 550.25,-296.38 562.02,-297.97 574.62,-301.03 585.78,-304.23"/>
<polygon fill="#63b8ff" stroke="#63b8ff" points="584.76,-307.58 595.35,-307.13 586.79,-300.88 584.76,-307.58"/>
</a>
</g>
</g>
<!-- Node22&#45;&gt;Node11 -->
<g id="edge28_Node000022_Node000011" class="edge">
<title>Node22&#45;&gt;Node11</title>
<g id="a_edge28_Node000022_Node000011"><a xlink:title=" ">
<path fill="none" stroke="#63b8ff" d="M403.74,-304.63C409.62,-301.93 415.65,-298.81 421,-295.38 439.01,-283.8 439.4,-275.56 457,-263.38 460.97,-260.62 465.3,-257.97 469.66,-255.48"/>
<polygon fill="#63b8ff" stroke="#63b8ff" points="471.25,-258.6 478.38,-250.77 467.92,-252.44 471.25,-258.6"/>
</a>
</g>
</g>
<!-- Node22&#45;&gt;Node13 -->
<g id="edge29_Node000022_Node000013" class="edge">
<title>Node22&#45;&gt;Node13</title>
<g id="a_edge29_Node000022_Node000013"><a xlink:title=" ">
<path fill="none" stroke="#63b8ff" d="M409.82,-304.6C414.03,-302.11 417.92,-299.07 421,-295.38 465.15,-242.36 412.77,-197.33 457,-144.38 457.68,-143.56 458.4,-142.78 459.15,-142.03"/>
<polygon fill="#63b8ff" stroke="#63b8ff" points="461.21,-144.86 467.07,-136.03 456.99,-139.28 461.21,-144.86"/>
</a>
</g>
</g>
<!-- Node22&#45;&gt;Node14 -->
<g id="edge30_Node000022_Node000014" class="edge">
<title>Node22&#45;&gt;Node14</title>
<g id="a_edge30_Node000022_Node000014"><a xlink:title=" ">
<path fill="none" stroke="#63b8ff" d="M414.85,-315.38C427.47,-315.38 441.59,-315.38 454.77,-315.38"/>
<polygon fill="#63b8ff" stroke="#63b8ff" points="454.52,-318.88 464.52,-315.38 454.52,-311.88 454.52,-318.88"/>
</a>
</g>
</g>
<!-- Node22&#45;&gt;Node15 -->
<g id="edge31_Node000022_Node000015" class="edge">
<title>Node22&#45;&gt;Node15</title>
<g id="a_edge31_Node000022_Node000015"><a xlink:title=" ">
<path fill="none" stroke="#63b8ff" d="M382.56,-326.16C395.17,-345.38 423.88,-385.81 457,-410.38 458.77,-411.69 460.64,-412.94 462.58,-414.13"/>
<polygon fill="#63b8ff" stroke="#63b8ff" points="460.79,-417.14 471.26,-418.81 464.12,-410.98 460.79,-417.14"/>
</a>
</g>
</g>
<!-- Node22&#45;&gt;Node16 -->
<g id="edge32_Node000022_Node000016" class="edge">
<title>Node22&#45;&gt;Node16</title>
<g id="a_edge32_Node000022_Node000016"><a xlink:title=" ">
<path fill="none" stroke="#63b8ff" d="M414.94,-323.61C451.51,-332.32 506.81,-348.2 550.25,-372.38 569.12,-382.87 587.68,-398.93 600.77,-411.49"/>
<polygon fill="#63b8ff" stroke="#63b8ff" points="598.24,-413.91 607.81,-418.45 603.16,-408.93 598.24,-413.91"/>
</a>
</g>
</g>
<!-- Node22&#45;&gt;Node17 -->
<g id="edge33_Node000022_Node000017" class="edge">
<title>Node22&#45;&gt;Node17</title>
<g id="a_edge33_Node000022_Node000017"><a xlink:title=" ">
<path fill="none" stroke="#63b8ff" d="M407.73,-304.71C412.55,-302.17 417.18,-299.08 421,-295.38 447.55,-269.64 430.08,-245.72 457,-220.38 489.59,-189.7 513.67,-208.16 550.25,-182.38 556.41,-178.03 584.18,-146.18 602.53,-124.83"/>
<polygon fill="#63b8ff" stroke="#63b8ff" points="605.12,-127.19 608.96,-117.31 599.8,-122.63 605.12,-127.19"/>
</a>
</g>
</g>
<!-- Node22&#45;&gt;Node18 -->
<g id="edge34_Node000022_Node000018" class="edge">
<title>Node22&#45;&gt;Node18</title>
<g id="a_edge34_Node000022_Node000018"><a xlink:title=" ">
<path fill="none" stroke="#63b8ff" d="M391.69,-326.14C407.89,-336.96 433.84,-353.9 457,-367.38 461.47,-369.98 466.25,-372.63 470.97,-375.17"/>
<polygon fill="#63b8ff" stroke="#63b8ff" points="469.25,-378.22 479.73,-379.81 472.53,-372.03 469.25,-378.22"/>
</a>
</g>
</g>
<!-- Node22&#45;&gt;Node19 -->
<g id="edge35_Node000022_Node000019" class="edge">
<title>Node22&#45;&gt;Node19</title>
<g id="a_edge35_Node000022_Node000019"><a xlink:title=" ">
<path fill="none" stroke="#63b8ff" d="M409.07,-304.6C413.49,-302.1 417.65,-299.06 421,-295.38 455.05,-257.95 424.24,-225.94 457,-187.38 459.25,-184.73 461.86,-182.34 464.67,-180.18"/>
<polygon fill="#63b8ff" stroke="#63b8ff" points="466.37,-183.25 472.88,-174.89 462.58,-177.36 466.37,-183.25"/>
</a>
</g>
</g>
<!-- Node22&#45;&gt;Node21 -->
<g id="edge36_Node000022_Node000021" class="edge">
<title>Node22&#45;&gt;Node21</title>
<g id="a_edge36_Node000022_Node000021"><a xlink:title=" ">
<path fill="none" stroke="#63b8ff" d="M334.73,-321.88C324.79,-322.2 314.11,-322.21 304.17,-321.89"/>
<polygon fill="#63b8ff" stroke="#63b8ff" points="304.58,-318.4 294.42,-321.43 304.25,-325.4 304.58,-318.4"/>
</a>
</g>
</g>
<!-- Node24&#45;&gt;Node3 -->
<g id="edge39_Node000024_Node000003" class="edge">
<title>Node24&#45;&gt;Node3</title>
<g id="a_edge39_Node000024_Node000003"><a xlink:title=" ">
<path fill="none" stroke="#63b8ff" d="M184.6,-478.19C189.55,-480.97 194.7,-484.1 199.25,-487.38 216.88,-500.04 219.06,-505.92 235.25,-520.38 237.41,-522.3 239.67,-524.3 241.93,-526.28"/>
<polygon fill="#63b8ff" stroke="#63b8ff" points="239.46,-528.77 249.3,-532.7 244.05,-523.49 239.46,-528.77"/>
</a>
</g>
</g>
</g>
</svg>

<g id="navigator" transform="translate(0 0)" fill="#404254">
  <rect fill="#f2f5e9" fill-opacity="0.5" stroke="#606060" stroke-width=".5" x="0" y="0" width="60" height="60"/>
  <use id="zoomplus" xlink:href="#zoomPlus" x="17" y="9" onmousedown="handleZoom(evt,'in')"/>
  <use id="zoomminus" xlink:href="#zoomMin" x="42" y="9" onmousedown="handleZoom(evt,'out')"/>
  <use id="reset" xlink:href="#resetDef" x="30" y="36" onmousedown="handleReset()"/>
   <use id="arrowup" xlink:href="#arrowUp" x="0" y="0" onmousedown="handlePan(0,-1)"/>
  <use id="arrowright" xlink:href="#arrowRight" x="0" y="0" onmousedown="handlePan(1,0)"/>
  <use id="arrowdown" xlink:href="#arrowDown" x="0" y="0" onmousedown="handlePan(0,1)"/>
  <use id="arrowleft" xlink:href="#arrowLeft" x="0" y="0" onmousedown="handlePan(-1,0)"/>
</g>
<svg viewBox="0 0 15 15" width="100%" height="30px" preserveAspectRatio="xMaxYMin meet">
 <g id="arrow_out" transform="scale(0.3 0.3)">
  <a xlink:href="a00296_a07a8d9311c88786e7310fef638d34a41_cgraph_org.svg" target="_base">
   <rect id="button" ry="5" rx="5" y="6" x="6" height="38" width="38"
        fill="#f2f5e9" fill-opacity="0.5" stroke="#606060" stroke-width="1.0"/>
   <path id="arrow"
     d="M 11.500037,31.436501 C 11.940474,20.09759 22.043105,11.32322 32.158766,21.979434 L 37.068811,17.246167 C 37.068811,17.246167 37.088388,32 37.088388,32 L 22.160133,31.978069 C 22.160133,31.978069 26.997745,27.140456 26.997745,27.140456 C 18.528582,18.264221 13.291696,25.230495 11.500037,31.436501 z"
     style="fill:#404040;"/>
  </a>
 </g>
</svg>

<style type='text/css'>
<![CDATA[
[data-mouse-over-selected='false'] { opacity: 0.7; }
[data-mouse-over-selected='true']  { opacity: 1.0; }
]]>
</style>
<script type="application/ecmascript"><![CDATA[
document.addEventListener('DOMContentLoaded', (event) => {
  highlightEdges();
  highlightAdjacentNodes();
});
]]></script>
</svg>
