<?xml version="1.0" encoding="UTF-8" standalone="no"?>
<!DOCTYPE svg PUBLIC "-//W3C//DTD SVG 1.1//EN"
 "http://www.w3.org/Graphics/SVG/1.1/DTD/svg11.dtd">
<!-- Generated by graphviz version 14.1.2 (0)
 -->
<!-- Title: form_accept_field Pages: 1 -->
<svg width="1188pt" height="739pt"
 viewBox="0.00 0.00 1188.00 739.00" xmlns="http://www.w3.org/2000/svg" xmlns:xlink="http://www.w3.org/1999/xlink">
<g id="graph0" class="graph" transform="scale(1 1) rotate(0) translate(4 735.38)">
<title>form_accept_field</title>
<!-- Node1 -->
<g id="Node000001" class="node">
<title>Node1</title>
<g id="a_Node000001"><a xlink:title="Accept input for a field.">
<polygon fill="#999999" stroke="#666666" points="103.75,-382.75 0,-382.75 0,-362 103.75,-362 103.75,-382.75"/>
<text xml:space="preserve" text-anchor="middle" x="51.88" y="-369.25" font-family="Helvetica,sans-Serif" font-size="10.00">form_accept_field</text>
</a>
</g>
</g>
<!-- Node2 -->
<g id="Node000002" class="node">
<title>Node2</title>
<g id="a_Node000002"><a xlink:href="../../d6/d82/a00293.html#a645871e46277e31736bc36d0f3dce4bd" target="_top" xlink:title="construct the chyron string from the chyron structure">
<polygon fill="white" stroke="#666666" points="805.5,-595.75 712.25,-595.75 712.25,-575 805.5,-575 805.5,-595.75"/>
<text xml:space="preserve" text-anchor="middle" x="758.88" y="-582.25" font-family="Helvetica,sans-Serif" font-size="10.00">compile_chyron</text>
</a>
</g>
</g>
<!-- Node1&#45;&gt;Node2 -->
<g id="edge1_Node000001_Node000002" class="edge">
<title>Node1&#45;&gt;Node2</title>
<g id="a_edge1_Node000001_Node000002"><a xlink:title=" ">
<path fill="none" stroke="#63b8ff" d="M53.42,-383.25C55.96,-422.58 69.66,-559.3 139.75,-638.38 204.67,-711.62 241.5,-731.38 339.38,-731.38 339.38,-731.38 339.38,-731.38 489.75,-731.38 595.2,-731.38 698.69,-643.19 739.58,-603.89"/>
<polygon fill="#63b8ff" stroke="#63b8ff" points="741.98,-606.44 746.67,-596.93 737.08,-601.44 741.98,-606.44"/>
</a>
</g>
</g>
<!-- Node4 -->
<g id="Node000004" class="node">
<title>Node4</title>
<g id="a_Node000004"><a xlink:href="../../d7/d40/a00236.html#a639a9c28161fb26549fb07378ae82f55" target="_top" xlink:title="Display the chyron (status line) at the bottom of the form window, showing available commands and the...">
<polygon fill="white" stroke="#666666" points="547.75,-703.75 429.75,-703.75 429.75,-683 547.75,-683 547.75,-703.75"/>
<text xml:space="preserve" text-anchor="middle" x="488.75" y="-690.25" font-family="Helvetica,sans-Serif" font-size="10.00">form_display_chyron</text>
</a>
</g>
</g>
<!-- Node1&#45;&gt;Node4 -->
<g id="edge3_Node000001_Node000004" class="edge">
<title>Node1&#45;&gt;Node4</title>
<g id="a_edge3_Node000001_Node000004"><a xlink:title=" ">
<path fill="none" stroke="#63b8ff" d="M54.67,-383.03C60.82,-416.7 83.82,-522.38 139.75,-587.38 189.33,-644.99 214.7,-650.9 287,-674.38 329.12,-688.05 378.64,-692.85 417.96,-694.21"/>
<polygon fill="#63b8ff" stroke="#63b8ff" points="417.68,-697.7 427.77,-694.47 417.87,-690.71 417.68,-697.7"/>
</a>
</g>
</g>
<!-- Node5 -->
<g id="Node000005" class="node">
<title>Node5</title>
<g id="a_Node000005"><a xlink:href="../../db/d7b/a00296.html#abd1710f59277202b0a58f840d4da322e" target="_top" xlink:title="Display current field.">
<polygon fill="white" stroke="#666666" points="248.75,-578.75 142,-578.75 142,-558 248.75,-558 248.75,-578.75"/>
<text xml:space="preserve" text-anchor="middle" x="195.38" y="-565.25" font-family="Helvetica,sans-Serif" font-size="10.00">form_display_field</text>
</a>
</g>
</g>
<!-- Node1&#45;&gt;Node5 -->
<g id="edge5_Node000001_Node000005" class="edge">
<title>Node1&#45;&gt;Node5</title>
<g id="a_edge5_Node000001_Node000005"><a xlink:title=" ">
<path fill="none" stroke="#63b8ff" d="M60.68,-383.19C83.54,-414.86 150.57,-507.69 180.11,-548.61"/>
<polygon fill="#63b8ff" stroke="#63b8ff" points="177.19,-550.54 185.88,-556.6 182.86,-546.45 177.19,-550.54"/>
</a>
</g>
</g>
<!-- Node7 -->
<g id="Node000007" class="node">
<title>Node7</title>
<g id="a_Node000007"><a xlink:href="../../db/d7b/a00296.html#a07a8d9311c88786e7310fef638d34a41" target="_top" xlink:title="Format field according to its format type.">
<polygon fill="white" stroke="#666666" points="239.75,-459.75 151,-459.75 151,-439 239.75,-439 239.75,-459.75"/>
<text xml:space="preserve" text-anchor="middle" x="195.38" y="-446.25" font-family="Helvetica,sans-Serif" font-size="10.00">form_fmt_field</text>
</a>
</g>
</g>
<!-- Node1&#45;&gt;Node7 -->
<g id="edge7_Node000001_Node000007" class="edge">
<title>Node1&#45;&gt;Node7</title>
<g id="a_edge7_Node000001_Node000007"><a xlink:title=" ">
<path fill="none" stroke="#63b8ff" d="M72.85,-383.24C96.76,-396.26 137.03,-418.17 164.61,-433.18"/>
<polygon fill="#63b8ff" stroke="#63b8ff" points="162.72,-436.13 173.17,-437.84 166.06,-429.98 162.72,-436.13"/>
</a>
</g>
</g>
<!-- Node12 -->
<g id="Node000012" class="node">
<title>Node12</title>
<g id="a_Node000012"><a xlink:href="../../d6/d82/a00293.html#a61b4f28456257f68ed042bed7f187efd" target="_top" xlink:title="Display a simple error message window or print to stderr.">
<polygon fill="white" stroke="#666666" points="363,-344.75 317.75,-344.75 317.75,-324 363,-324 363,-344.75"/>
<text xml:space="preserve" text-anchor="middle" x="340.38" y="-331.25" font-family="Helvetica,sans-Serif" font-size="10.00">Perror</text>
</a>
</g>
</g>
<!-- Node1&#45;&gt;Node12 -->
<g id="edge52_Node000001_Node000012" class="edge">
<title>Node1&#45;&gt;Node12</title>
<g id="a_edge52_Node000001_Node000012"><a xlink:title=" ">
<path fill="none" stroke="#63b8ff" d="M97.32,-361.58C110.88,-358.57 125.87,-355.55 139.75,-353.38 197.88,-344.29 266.27,-338.92 306.03,-336.32"/>
<polygon fill="#63b8ff" stroke="#63b8ff" points="306.14,-339.82 315.9,-335.69 305.7,-332.83 306.14,-339.82"/>
</a>
</g>
</g>
<!-- Node19 -->
<g id="Node000019" class="node">
<title>Node19</title>
<g id="a_Node000019"><a xlink:href="../../d6/d82/a00293.html#a208ce92c197fdd6d2b007987e534aa3b" target="_top" xlink:title="Set chyron key.">
<polygon fill="white" stroke="#666666" points="804.75,-77.75 713,-77.75 713,-57 804.75,-57 804.75,-77.75"/>
<text xml:space="preserve" text-anchor="middle" x="758.88" y="-64.25" font-family="Helvetica,sans-Serif" font-size="10.00">set_chyron_key</text>
</a>
</g>
</g>
<!-- Node1&#45;&gt;Node19 -->
<g id="edge53_Node000001_Node000019" class="edge">
<title>Node1&#45;&gt;Node19</title>
<g id="a_edge53_Node000001_Node000019"><a xlink:title=" ">
<path fill="none" stroke="#63b8ff" d="M56.26,-361.59C74.67,-305.38 168.18,-48.38 339.38,-48.38 339.38,-48.38 339.38,-48.38 489.75,-48.38 563.01,-48.38 647.24,-55.52 701.45,-61.05"/>
<polygon fill="#63b8ff" stroke="#63b8ff" points="701.06,-64.53 711.37,-62.08 701.78,-57.56 701.06,-64.53"/>
</a>
</g>
</g>
<!-- Node25 -->
<g id="Node000025" class="node">
<title>Node25</title>
<g id="a_Node000025"><a xlink:href="../../d6/d82/a00293.html#acf4c709bccc4c965a5d61db978db31a3" target="_top" xlink:title="Wrapper for wgetch that handles signals and mouse events.">
<polygon fill="white" stroke="#666666" points="517.38,-306.75 460.12,-306.75 460.12,-286 517.38,-286 517.38,-306.75"/>
<text xml:space="preserve" text-anchor="middle" x="488.75" y="-293.25" font-family="Helvetica,sans-Serif" font-size="10.00">xwgetch</text>
</a>
</g>
</g>
<!-- Node1&#45;&gt;Node25 -->
<g id="edge54_Node000001_Node000025" class="edge">
<title>Node1&#45;&gt;Node25</title>
<g id="a_edge54_Node000001_Node000025"><a xlink:title=" ">
<path fill="none" stroke="#63b8ff" d="M74.48,-361.63C91.74,-353.49 116.76,-342.67 139.75,-336.38 248.81,-306.51 383.02,-298.93 448.32,-297.01"/>
<polygon fill="#63b8ff" stroke="#63b8ff" points="448.27,-300.52 458.17,-296.76 448.09,-293.52 448.27,-300.52"/>
</a>
</g>
</g>
<!-- Node30 -->
<g id="Node000030" class="node">
<title>Node30</title>
<g id="a_Node000030"><a xlink:href="../../db/d7b/a00296.html#ad2a5cf5a784d70bcd15fcd82ecc13185" target="_top" xlink:title="Validate current field based on flags.">
<polygon fill="white" stroke="#666666" points="251,-382.75 139.75,-382.75 139.75,-362 251,-362 251,-382.75"/>
<text xml:space="preserve" text-anchor="middle" x="195.38" y="-369.25" font-family="Helvetica,sans-Serif" font-size="10.00">form_validate_field</text>
</a>
</g>
</g>
<!-- Node1&#45;&gt;Node30 -->
<g id="edge49_Node000001_Node000030" class="edge">
<title>Node1&#45;&gt;Node30</title>
<g id="a_edge49_Node000001_Node000030"><a xlink:title=" ">
<path fill="none" stroke="#63b8ff" d="M103.96,-372.38C111.82,-372.38 120.02,-372.38 128.15,-372.38"/>
<polygon fill="#63b8ff" stroke="#63b8ff" points="128.03,-375.88 138.03,-372.38 128.03,-368.88 128.03,-375.88"/>
</a>
</g>
</g>
<!-- Node31 -->
<g id="Node000031" class="node">
<title>Node31</title>
<g id="a_Node000031"><a xlink:href="../../d7/d40/a00236.html#a3c66bd6b1987c79ef5a31bb28227c65b" target="_top" xlink:title=" ">
<polygon fill="white" stroke="#666666" points="243.12,-20.75 147.62,-20.75 147.62,0 243.12,0 243.12,-20.75"/>
<text xml:space="preserve" text-anchor="middle" x="195.38" y="-7.25" font-family="Helvetica,sans-Serif" font-size="10.00">form_yx_to_fidx</text>
</a>
</g>
</g>
<!-- Node1&#45;&gt;Node31 -->
<g id="edge51_Node000001_Node000031" class="edge">
<title>Node1&#45;&gt;Node31</title>
<g id="a_edge51_Node000001_Node000031"><a xlink:title=" ">
<path fill="none" stroke="#63b8ff" d="M52.46,-361.8C51.28,-316.59 52.47,-137.12 139.75,-34.38 142.02,-31.7 144.65,-29.31 147.51,-27.18"/>
<polygon fill="#63b8ff" stroke="#63b8ff" points="149.23,-30.23 155.91,-22.01 145.56,-24.27 149.23,-30.23"/>
</a>
</g>
</g>
<!-- Node3 -->
<g id="Node000003" class="node">
<title>Node3</title>
<g id="a_Node000003"><a xlink:href="../../d6/d7f/a00287.html#aa0145c044cfdde3a1c83323410a59f25" target="_top" xlink:title="safer alternative to strncat">
<polygon fill="white" stroke="#666666" points="908.12,-595.75 842.62,-595.75 842.62,-575 908.12,-575 908.12,-595.75"/>
<text xml:space="preserve" text-anchor="middle" x="875.38" y="-582.25" font-family="Helvetica,sans-Serif" font-size="10.00">strnz__cat</text>
</a>
</g>
</g>
<!-- Node2&#45;&gt;Node3 -->
<g id="edge2_Node000002_Node000003" class="edge">
<title>Node2&#45;&gt;Node3</title>
<g id="a_edge2_Node000002_Node000003"><a xlink:title=" ">
<path fill="none" stroke="#63b8ff" d="M805.79,-585.38C814.08,-585.38 822.69,-585.38 830.91,-585.38"/>
<polygon fill="#63b8ff" stroke="#63b8ff" points="830.67,-588.88 840.67,-585.38 830.67,-581.88 830.67,-588.88"/>
</a>
</g>
</g>
<!-- Node4&#45;&gt;Node2 -->
<g id="edge4_Node000004_Node000002" class="edge">
<title>Node4&#45;&gt;Node2</title>
<g id="a_edge4_Node000004_Node000002"><a xlink:title=" ">
<path fill="none" stroke="#63b8ff" d="M516.44,-682.62C564.4,-663.31 665.26,-622.68 720.22,-600.54"/>
<polygon fill="#63b8ff" stroke="#63b8ff" points="721.52,-603.79 729.49,-596.81 718.91,-597.3 721.52,-603.79"/>
</a>
</g>
</g>
<!-- Node6 -->
<g id="Node000006" class="node">
<title>Node6</title>
<g id="a_Node000006"><a xlink:href="../../db/d7b/a00296.html#ad306f4b1bdcba7aefece7e4b73367b66" target="_top" xlink:title="Display brackets around current field if set.">
<polygon fill="white" stroke="#666666" points="393.75,-665.12 287,-665.12 287,-631.62 393.75,-631.62 393.75,-665.12"/>
<text xml:space="preserve" text-anchor="start" x="295" y="-651.62" font-family="Helvetica,sans-Serif" font-size="10.00">form_display_field</text>
<text xml:space="preserve" text-anchor="middle" x="340.38" y="-638.88" font-family="Helvetica,sans-Serif" font-size="10.00">_brackets</text>
</a>
</g>
</g>
<!-- Node5&#45;&gt;Node6 -->
<g id="edge6_Node000005_Node000006" class="edge">
<title>Node5&#45;&gt;Node6</title>
<g id="a_edge6_Node000005_Node000006"><a xlink:title=" ">
<path fill="none" stroke="#63b8ff" d="M213.52,-579.13C231.58,-590.32 260.95,-608.17 287,-622.38 289.21,-623.58 291.48,-624.79 293.78,-626.01"/>
<polygon fill="#63b8ff" stroke="#63b8ff" points="292.13,-629.09 302.62,-630.57 295.34,-622.87 292.13,-629.09"/>
</a>
</g>
</g>
<!-- Node8 -->
<g id="Node000008" class="node">
<title>Node8</title>
<g id="a_Node000008"><a xlink:href="../../db/d7b/a00296.html#a425021d4c87474159a36d395e4dcdf65" target="_top" xlink:title="Left justify string by removing leading spaces.">
<polygon fill="white" stroke="#666666" points="374.62,-613.75 306.12,-613.75 306.12,-593 374.62,-593 374.62,-613.75"/>
<text xml:space="preserve" text-anchor="middle" x="340.38" y="-600.25" font-family="Helvetica,sans-Serif" font-size="10.00">left_justify</text>
</a>
</g>
</g>
<!-- Node7&#45;&gt;Node8 -->
<g id="edge8_Node000007_Node000008" class="edge">
<title>Node7&#45;&gt;Node8</title>
<g id="a_edge8_Node000007_Node000008"><a xlink:title=" ">
<path fill="none" stroke="#63b8ff" d="M200.84,-460.04C211.82,-485.07 242.55,-548.13 287,-583.38 289.7,-585.51 292.65,-587.44 295.73,-589.18"/>
<polygon fill="#63b8ff" stroke="#63b8ff" points="293.99,-592.23 304.52,-593.43 297.04,-585.93 293.99,-592.23"/>
</a>
</g>
</g>
<!-- Node9 -->
<g id="Node000009" class="node">
<title>Node9</title>
<g id="a_Node000009"><a xlink:href="../../d6/d7f/a00287.html#a34703756fd5be0fde758400f320db047" target="_top" xlink:title="Trims leading and trailing spaces from string s in place.">
<polygon fill="white" stroke="#666666" points="506.88,-572.75 470.62,-572.75 470.62,-552 506.88,-552 506.88,-572.75"/>
<text xml:space="preserve" text-anchor="middle" x="488.75" y="-559.25" font-family="Helvetica,sans-Serif" font-size="10.00">trim</text>
</a>
</g>
</g>
<!-- Node7&#45;&gt;Node9 -->
<g id="edge48_Node000007_Node000009" class="edge">
<title>Node7&#45;&gt;Node9</title>
<g id="a_edge48_Node000007_Node000009"><a xlink:title=" ">
<path fill="none" stroke="#63b8ff" d="M240.12,-459.61C289.79,-471.64 367.36,-491.82 393.75,-506.38 412.5,-516.71 411.61,-527.01 429.75,-538.38 439.01,-544.17 449.91,-549.11 459.75,-552.97"/>
<polygon fill="#63b8ff" stroke="#63b8ff" points="458.25,-556.15 468.85,-556.34 460.68,-549.59 458.25,-556.15"/>
</a>
</g>
</g>
<!-- Node10 -->
<g id="Node000010" class="node">
<title>Node10</title>
<g id="a_Node000010"><a xlink:href="../../db/d7b/a00296.html#aac069c6892f64ea6307044a92b179faa" target="_top" xlink:title="Create filler string for field.">
<polygon fill="white" stroke="#666666" points="370.12,-574.75 310.62,-574.75 310.62,-554 370.12,-554 370.12,-574.75"/>
<text xml:space="preserve" text-anchor="middle" x="340.38" y="-561.25" font-family="Helvetica,sans-Serif" font-size="10.00">mk_filler</text>
</a>
</g>
</g>
<!-- Node7&#45;&gt;Node10 -->
<g id="edge10_Node000007_Node000010" class="edge">
<title>Node7&#45;&gt;Node10</title>
<g id="a_edge10_Node000007_Node000010"><a xlink:title=" ">
<path fill="none" stroke="#63b8ff" d="M203.92,-459.98C218.14,-479.25 250.75,-520.27 287,-544.38 290.97,-547.01 295.33,-549.37 299.79,-551.46"/>
<polygon fill="#63b8ff" stroke="#63b8ff" points="298.28,-554.63 308.86,-555.28 301,-548.17 298.28,-554.63"/>
</a>
</g>
</g>
<!-- Node11 -->
<g id="Node000011" class="node">
<title>Node11</title>
<g id="a_Node000011"><a xlink:href="../../db/d7b/a00296.html#a18db59e4c79e823f79310378183ac25c" target="_top" xlink:title="Extract numeric characters from source string to destination string.">
<polygon fill="white" stroke="#666666" points="368.25,-535.75 312.5,-535.75 312.5,-515 368.25,-515 368.25,-535.75"/>
<text xml:space="preserve" text-anchor="middle" x="340.38" y="-522.25" font-family="Helvetica,sans-Serif" font-size="10.00">numeric</text>
</a>
</g>
</g>
<!-- Node7&#45;&gt;Node11 -->
<g id="edge11_Node000007_Node000011" class="edge">
<title>Node7&#45;&gt;Node11</title>
<g id="a_edge11_Node000007_Node000011"><a xlink:title=" ">
<path fill="none" stroke="#63b8ff" d="M214.16,-460.23C232.24,-471.1 261.19,-488.09 287,-501.38 292.56,-504.24 298.52,-507.13 304.37,-509.87"/>
<polygon fill="#63b8ff" stroke="#63b8ff" points="302.72,-512.96 313.26,-513.97 305.64,-506.61 302.72,-512.96"/>
</a>
</g>
</g>
<!-- Node7&#45;&gt;Node12 -->
<g id="edge12_Node000007_Node000012" class="edge">
<title>Node7&#45;&gt;Node12</title>
<g id="a_edge12_Node000007_Node000012"><a xlink:title=" ">
<path fill="none" stroke="#63b8ff" d="M206.5,-438.79C228.19,-416.19 277.9,-364.72 287,-358.38 293.09,-354.13 300.04,-350.34 306.85,-347.08"/>
<polygon fill="#63b8ff" stroke="#63b8ff" points="308.2,-350.31 315.9,-343.04 305.35,-343.92 308.2,-350.31"/>
</a>
</g>
</g>
<!-- Node21 -->
<g id="Node000021" class="node">
<title>Node21</title>
<g id="a_Node000021"><a xlink:href="../../d6/d7f/a00287.html#a0de2e40df9bd7efc8fd9afb8ad2257e6" target="_top" xlink:title="safer alternative to strncpy">
<polygon fill="white" stroke="#666666" points="909.25,-459.75 841.5,-459.75 841.5,-439 909.25,-439 909.25,-459.75"/>
<text xml:space="preserve" text-anchor="middle" x="875.38" y="-446.25" font-family="Helvetica,sans-Serif" font-size="10.00">strnz__cpy</text>
</a>
</g>
</g>
<!-- Node7&#45;&gt;Node21 -->
<g id="edge47_Node000007_Node000021" class="edge">
<title>Node7&#45;&gt;Node21</title>
<g id="a_edge47_Node000007_Node000021"><a xlink:title=" ">
<path fill="none" stroke="#63b8ff" d="M208.15,-438.63C224.44,-424.56 255.45,-400.61 287,-391.38 332.54,-378.05 349.92,-373.22 393.75,-391.38 414.66,-400.03 409.87,-416.56 429.75,-427.38 541.2,-488 585.44,-464.43 712.25,-468.38 753.67,-469.66 764.43,-473.94 805.5,-468.38 813.96,-467.23 822.85,-465.33 831.33,-463.16"/>
<polygon fill="#63b8ff" stroke="#63b8ff" points="831.98,-466.6 840.71,-460.59 830.14,-459.85 831.98,-466.6"/>
</a>
</g>
</g>
<!-- Node28 -->
<g id="Node000028" class="node">
<title>Node28</title>
<g id="a_Node000028"><a xlink:href="../../db/d7b/a00296.html#a21ebe9713e3b003715a7a2c3b64cbf55" target="_top" xlink:title="Right justify string by removing trailing spaces and adding leading spaces.">
<polygon fill="white" stroke="#666666" points="377.62,-459.75 303.12,-459.75 303.12,-439 377.62,-439 377.62,-459.75"/>
<text xml:space="preserve" text-anchor="middle" x="340.38" y="-446.25" font-family="Helvetica,sans-Serif" font-size="10.00">right_justify</text>
</a>
</g>
</g>
<!-- Node7&#45;&gt;Node28 -->
<g id="edge44_Node000007_Node000028" class="edge">
<title>Node7&#45;&gt;Node28</title>
<g id="a_edge44_Node000007_Node000028"><a xlink:title=" ">
<path fill="none" stroke="#63b8ff" d="M240.06,-449.38C256.34,-449.38 274.9,-449.38 291.54,-449.38"/>
<polygon fill="#63b8ff" stroke="#63b8ff" points="291.19,-452.88 301.19,-449.38 291.19,-445.88 291.19,-452.88"/>
</a>
</g>
</g>
<!-- Node29 -->
<g id="Node000029" class="node">
<title>Node29</title>
<g id="a_Node000029"><a xlink:href="../../d6/d7f/a00287.html#a636608f26d1193b5d860f2312cd8ee49" target="_top" xlink:title="terminates string at New Line, Carriage Return, or max_len">
<polygon fill="white" stroke="#666666" points="360.38,-420.75 320.38,-420.75 320.38,-400 360.38,-400 360.38,-420.75"/>
<text xml:space="preserve" text-anchor="middle" x="340.38" y="-407.25" font-family="Helvetica,sans-Serif" font-size="10.00">strnz</text>
</a>
</g>
</g>
<!-- Node7&#45;&gt;Node29 -->
<g id="edge46_Node000007_Node000029" class="edge">
<title>Node7&#45;&gt;Node29</title>
<g id="a_edge46_Node000007_Node000029"><a xlink:title=" ">
<path fill="none" stroke="#63b8ff" d="M236.21,-438.51C259.36,-432.2 288.06,-424.37 309.31,-418.58"/>
<polygon fill="#63b8ff" stroke="#63b8ff" points="310.07,-421.99 318.8,-415.99 308.23,-415.24 310.07,-421.99"/>
</a>
</g>
</g>
<!-- Node8&#45;&gt;Node9 -->
<g id="edge9_Node000008_Node000009" class="edge">
<title>Node8&#45;&gt;Node9</title>
<g id="a_edge9_Node000008_Node000009"><a xlink:title=" ">
<path fill="none" stroke="#63b8ff" d="M374.96,-593.97C400.49,-586.82 435.22,-577.09 459.37,-570.32"/>
<polygon fill="#63b8ff" stroke="#63b8ff" points="460.15,-573.74 468.84,-567.67 458.26,-567 460.15,-573.74"/>
</a>
</g>
</g>
<!-- Node12&#45;&gt;Node2 -->
<g id="edge19_Node000012_Node000002" class="edge">
<title>Node12&#45;&gt;Node2</title>
<g id="a_edge19_Node000012_Node000002"><a xlink:title=" ">
<path fill="none" stroke="#63b8ff" d="M352.78,-344.96C364.1,-355.86 381.5,-373.7 393.75,-391.38 413.91,-420.45 403.39,-438.78 429.75,-462.38 507.95,-532.37 629.77,-563.89 700.9,-577"/>
<polygon fill="#63b8ff" stroke="#63b8ff" points="699.92,-580.38 710.38,-578.68 701.15,-573.49 699.92,-580.38"/>
</a>
</g>
</g>
<!-- Node13 -->
<g id="Node000013" class="node">
<title>Node13</title>
<g id="a_Node000013"><a xlink:href="../../d6/d82/a00293.html#a8f6c45ca4a7f6a41c4c88314e697565a" target="_top" xlink:title="Abnormal program termination.">
<polygon fill="white" stroke="#666666" points="898.38,-229.75 852.38,-229.75 852.38,-209 898.38,-209 898.38,-229.75"/>
<text xml:space="preserve" text-anchor="middle" x="875.38" y="-216.25" font-family="Helvetica,sans-Serif" font-size="10.00">abend</text>
</a>
</g>
</g>
<!-- Node12&#45;&gt;Node13 -->
<g id="edge13_Node000012_Node000013" class="edge">
<title>Node12&#45;&gt;Node13</title>
<g id="a_edge13_Node000012_Node000013"><a xlink:title=" ">
<path fill="none" stroke="#63b8ff" d="M347.56,-323.78C360.12,-303.34 390.77,-258.68 429.75,-238.38 578.62,-160.83 639.17,-177.85 805.5,-200.38 817.27,-201.97 829.87,-205.03 841.03,-208.23"/>
<polygon fill="#63b8ff" stroke="#63b8ff" points="840.01,-211.58 850.6,-211.13 842.04,-204.88 840.01,-211.58"/>
</a>
</g>
</g>
<!-- Node17 -->
<g id="Node000017" class="node">
<title>Node17</title>
<g id="a_Node000017"><a xlink:href="../../d6/d82/a00293.html#a3f3feb40fd703913c5c136331f627c91" target="_top" xlink:title="Destroy Chyron structure.">
<polygon fill="white" stroke="#666666" points="804.38,-343.75 713.38,-343.75 713.38,-323 804.38,-323 804.38,-343.75"/>
<text xml:space="preserve" text-anchor="middle" x="758.88" y="-330.25" font-family="Helvetica,sans-Serif" font-size="10.00">destroy_chyron</text>
</a>
</g>
</g>
<!-- Node12&#45;&gt;Node17 -->
<g id="edge20_Node000012_Node000017" class="edge">
<title>Node12&#45;&gt;Node17</title>
<g id="a_edge20_Node000012_Node000017"><a xlink:title=" ">
<path fill="none" stroke="#63b8ff" d="M363.47,-334.32C426.45,-334.17 608.3,-333.73 701.43,-333.51"/>
<polygon fill="#63b8ff" stroke="#63b8ff" points="701.38,-337.01 711.37,-333.49 701.36,-330.01 701.38,-337.01"/>
</a>
</g>
</g>
<!-- Node18 -->
<g id="Node000018" class="node">
<title>Node18</title>
<g id="a_Node000018"><a xlink:href="../../d6/d82/a00293.html#ad37d5808ff30ae6894780425d865abae" target="_top" xlink:title="Create and initialize Chyron structure.">
<polygon fill="white" stroke="#666666" points="796.12,-229.75 721.62,-229.75 721.62,-209 796.12,-209 796.12,-229.75"/>
<text xml:space="preserve" text-anchor="middle" x="758.88" y="-216.25" font-family="Helvetica,sans-Serif" font-size="10.00">new_chyron</text>
</a>
</g>
</g>
<!-- Node12&#45;&gt;Node18 -->
<g id="edge21_Node000012_Node000018" class="edge">
<title>Node12&#45;&gt;Node18</title>
<g id="a_edge21_Node000012_Node000018"><a xlink:title=" ">
<path fill="none" stroke="#63b8ff" d="M354.96,-323.59C371.66,-310.83 401.29,-289.76 429.75,-277.38 523.58,-236.55 644.39,-224.45 710.11,-220.87"/>
<polygon fill="#63b8ff" stroke="#63b8ff" points="710.01,-224.38 719.82,-220.39 709.66,-217.39 710.01,-224.38"/>
</a>
</g>
</g>
<!-- Node12&#45;&gt;Node19 -->
<g id="edge23_Node000012_Node000019" class="edge">
<title>Node12&#45;&gt;Node19</title>
<g id="a_edge23_Node000012_Node000019"><a xlink:title=" ">
<path fill="none" stroke="#63b8ff" d="M341.96,-323.75C344.59,-287.2 358.56,-165.93 429.75,-110.38 470.86,-78.3 618.64,-70.09 701.15,-68.03"/>
<polygon fill="#63b8ff" stroke="#63b8ff" points="701.15,-71.53 711.07,-67.81 701,-64.53 701.15,-71.53"/>
</a>
</g>
</g>
<!-- Node20 -->
<g id="Node000020" class="node">
<title>Node20</title>
<g id="a_Node000020"><a xlink:href="../../d6/d7f/a00287.html#a63eb94756fb011a456a3dec900709cd8" target="_top" xlink:title="ssnprintf was designed to be a safer alternative to snprintf.">
<polygon fill="white" stroke="#666666" points="904.75,-115.75 846,-115.75 846,-95 904.75,-95 904.75,-115.75"/>
<text xml:space="preserve" text-anchor="middle" x="875.38" y="-102.25" font-family="Helvetica,sans-Serif" font-size="10.00">ssnprintf</text>
</a>
</g>
</g>
<!-- Node12&#45;&gt;Node20 -->
<g id="edge25_Node000012_Node000020" class="edge">
<title>Node12&#45;&gt;Node20</title>
<g id="a_edge25_Node000012_Node000020"><a xlink:title=" ">
<path fill="none" stroke="#63b8ff" d="M344.42,-323.77C352.9,-296.31 379.5,-222.56 429.75,-187.38 556.15,-98.87 750.6,-97.94 834.06,-102.27"/>
<polygon fill="#63b8ff" stroke="#63b8ff" points="833.85,-105.77 844.04,-102.85 834.26,-98.78 833.85,-105.77"/>
</a>
</g>
</g>
<!-- Node12&#45;&gt;Node21 -->
<g id="edge26_Node000012_Node000021" class="edge">
<title>Node12&#45;&gt;Node21</title>
<g id="a_edge26_Node000012_Node000021"><a xlink:title=" ">
<path fill="none" stroke="#63b8ff" d="M363.42,-342.5C373.13,-346.56 384.42,-351.99 393.75,-358.38 412.16,-370.98 409.72,-383.54 429.75,-393.38 563.67,-459.16 746.46,-457.81 829.75,-452.99"/>
<polygon fill="#63b8ff" stroke="#63b8ff" points="829.79,-456.5 839.55,-452.37 829.35,-449.51 829.79,-456.5"/>
</a>
</g>
</g>
<!-- Node22 -->
<g id="Node000022" class="node">
<title>Node22</title>
<g id="a_Node000022"><a xlink:href="../../d6/d82/a00293.html#a9dd598e1d49c8764af1eec42c682623e" target="_top" xlink:title="Delete the current window and its associated box window.">
<polygon fill="white" stroke="#666666" points="785.62,-382.75 732.12,-382.75 732.12,-362 785.62,-362 785.62,-382.75"/>
<text xml:space="preserve" text-anchor="middle" x="758.88" y="-369.25" font-family="Helvetica,sans-Serif" font-size="10.00">win_del</text>
</a>
</g>
</g>
<!-- Node12&#45;&gt;Node22 -->
<g id="edge27_Node000012_Node000022" class="edge">
<title>Node12&#45;&gt;Node22</title>
<g id="a_edge27_Node000012_Node000022"><a xlink:title=" ">
<path fill="none" stroke="#63b8ff" d="M363.46,-338.4C381.29,-341.53 407.07,-345.75 429.75,-348.38 534.81,-360.52 659.54,-367.65 720.53,-370.67"/>
<polygon fill="#63b8ff" stroke="#63b8ff" points="720.19,-374.16 730.35,-371.14 720.53,-367.16 720.19,-374.16"/>
</a>
</g>
</g>
<!-- Node23 -->
<g id="Node000023" class="node">
<title>Node23</title>
<g id="a_Node000023"><a xlink:href="../../d6/d82/a00293.html#a435c7bff7ffedb8f51c6de9259e36f6c" target="_top" xlink:title="Create a new window with optional box and title.">
<polygon fill="white" stroke="#666666" points="788.25,-421.75 729.5,-421.75 729.5,-401 788.25,-401 788.25,-421.75"/>
<text xml:space="preserve" text-anchor="middle" x="758.88" y="-408.25" font-family="Helvetica,sans-Serif" font-size="10.00">win_new</text>
</a>
</g>
</g>
<!-- Node12&#45;&gt;Node23 -->
<g id="edge28_Node000012_Node000023" class="edge">
<title>Node12&#45;&gt;Node23</title>
<g id="a_edge28_Node000012_Node000023"><a xlink:title=" ">
<path fill="none" stroke="#63b8ff" d="M363.42,-344.54C381.01,-352.24 406.49,-362.47 429.75,-368.38 531.76,-394.29 655.8,-405.14 718.1,-409.21"/>
<polygon fill="#63b8ff" stroke="#63b8ff" points="717.65,-412.69 727.85,-409.82 718.09,-405.7 717.65,-412.69"/>
</a>
</g>
</g>
<!-- Node12&#45;&gt;Node25 -->
<g id="edge31_Node000012_Node000025" class="edge">
<title>Node12&#45;&gt;Node25</title>
<g id="a_edge31_Node000012_Node000025"><a xlink:title=" ">
<path fill="none" stroke="#63b8ff" d="M363.29,-328.69C385.86,-322.83 421.51,-313.57 448.88,-306.47"/>
<polygon fill="#63b8ff" stroke="#63b8ff" points="449.4,-309.95 458.2,-304.05 447.64,-303.17 449.4,-309.95"/>
</a>
</g>
</g>
<!-- Node14 -->
<g id="Node000014" class="node">
<title>Node14</title>
<g id="a_Node000014"><a xlink:href="../../d6/d82/a00293.html#afc0985a403e3eac0b2cd8f0fab500256" target="_top" xlink:title="Gracefully shut down NCurses and restore terminal settings.">
<polygon fill="white" stroke="#666666" points="1034.75,-229.75 945.25,-229.75 945.25,-209 1034.75,-209 1034.75,-229.75"/>
<text xml:space="preserve" text-anchor="middle" x="990" y="-216.25" font-family="Helvetica,sans-Serif" font-size="10.00">destroy_curses</text>
</a>
</g>
</g>
<!-- Node13&#45;&gt;Node14 -->
<g id="edge14_Node000013_Node000014" class="edge">
<title>Node13&#45;&gt;Node14</title>
<g id="a_edge14_Node000013_Node000014"><a xlink:title=" ">
<path fill="none" stroke="#63b8ff" d="M898.63,-219.38C908.74,-219.38 921.19,-219.38 933.59,-219.38"/>
<polygon fill="#63b8ff" stroke="#63b8ff" points="933.38,-222.88 943.38,-219.38 933.38,-215.88 933.38,-222.88"/>
</a>
</g>
</g>
<!-- Node15 -->
<g id="Node000015" class="node">
<title>Node15</title>
<g id="a_Node000015"><a xlink:href="../../df/d95/a00299.html#ac5e3adb304b78910fc77761ef6a743f0" target="_top" xlink:title="restore_shell_tioctl() &#45; restore shell terminal settings">
<polygon fill="white" stroke="#666666" points="1179.75,-257.75 1070.75,-257.75 1070.75,-237 1179.75,-237 1179.75,-257.75"/>
<text xml:space="preserve" text-anchor="middle" x="1125.25" y="-244.25" font-family="Helvetica,sans-Serif" font-size="10.00">restore_shell_tioctl</text>
</a>
</g>
</g>
<!-- Node13&#45;&gt;Node15 -->
<g id="edge17_Node000013_Node000015" class="edge">
<title>Node13&#45;&gt;Node15</title>
<g id="a_edge17_Node000013_Node000015"><a xlink:title=" ">
<path fill="none" stroke="#63b8ff" d="M898.75,-226.88C912.09,-231.03 929.45,-235.83 945.25,-238.38 982.65,-244.4 1024.96,-246.73 1059.05,-247.52"/>
<polygon fill="#63b8ff" stroke="#63b8ff" points="1058.7,-251.01 1068.76,-247.7 1058.83,-244.01 1058.7,-251.01"/>
</a>
</g>
</g>
<!-- Node16 -->
<g id="Node000016" class="node">
<title>Node16</title>
<g id="a_Node000016"><a xlink:href="../../d3/d1a/a00251.html#a06c1eb6cf3649dc187115565409f91af" target="_top" xlink:title="Set signal handlers to default behavior.">
<polygon fill="white" stroke="#666666" points="1165.88,-209.75 1084.62,-209.75 1084.62,-189 1165.88,-189 1165.88,-209.75"/>
<text xml:space="preserve" text-anchor="middle" x="1125.25" y="-196.25" font-family="Helvetica,sans-Serif" font-size="10.00">sig_dfl_mode</text>
</a>
</g>
</g>
<!-- Node13&#45;&gt;Node16 -->
<g id="edge18_Node000013_Node000016" class="edge">
<title>Node13&#45;&gt;Node16</title>
<g id="a_edge18_Node000013_Node000016"><a xlink:title=" ">
<path fill="none" stroke="#63b8ff" d="M898.71,-211.6C912.03,-207.37 929.4,-202.57 945.25,-200.38 988.03,-194.46 1037.11,-194.67 1073.04,-196.1"/>
<polygon fill="#63b8ff" stroke="#63b8ff" points="1072.56,-199.58 1082.71,-196.54 1072.88,-192.59 1072.56,-199.58"/>
</a>
</g>
</g>
<!-- Node14&#45;&gt;Node15 -->
<g id="edge15_Node000014_Node000015" class="edge">
<title>Node14&#45;&gt;Node15</title>
<g id="a_edge15_Node000014_Node000015"><a xlink:title=" ">
<path fill="none" stroke="#63b8ff" d="M1035,-228.62C1043.62,-230.43 1052.82,-232.37 1061.91,-234.28"/>
<polygon fill="#63b8ff" stroke="#63b8ff" points="1060.91,-237.64 1071.42,-236.27 1062.35,-230.79 1060.91,-237.64"/>
</a>
</g>
</g>
<!-- Node14&#45;&gt;Node16 -->
<g id="edge16_Node000014_Node000016" class="edge">
<title>Node14&#45;&gt;Node16</title>
<g id="a_edge16_Node000014_Node000016"><a xlink:title=" ">
<path fill="none" stroke="#63b8ff" d="M1035,-212.77C1047.19,-210.94 1060.52,-208.94 1073.08,-207.06"/>
<polygon fill="#63b8ff" stroke="#63b8ff" points="1073.48,-210.54 1082.85,-205.59 1072.44,-203.61 1073.48,-210.54"/>
</a>
</g>
</g>
<!-- Node18&#45;&gt;Node13 -->
<g id="edge22_Node000018_Node000013" class="edge">
<title>Node18&#45;&gt;Node13</title>
<g id="a_edge22_Node000018_Node000013"><a xlink:title=" ">
<path fill="none" stroke="#63b8ff" d="M796.42,-219.38C810.74,-219.38 827.05,-219.38 841.04,-219.38"/>
<polygon fill="#63b8ff" stroke="#63b8ff" points="840.64,-222.88 850.64,-219.38 840.64,-215.88 840.64,-222.88"/>
</a>
</g>
</g>
<!-- Node19&#45;&gt;Node20 -->
<g id="edge24_Node000019_Node000020" class="edge">
<title>Node19&#45;&gt;Node20</title>
<g id="a_edge24_Node000019_Node000020"><a xlink:title=" ">
<path fill="none" stroke="#63b8ff" d="M792.38,-78.16C805.63,-82.56 821.07,-87.68 834.96,-92.29"/>
<polygon fill="#63b8ff" stroke="#63b8ff" points="833.66,-95.55 844.25,-95.38 835.86,-88.91 833.66,-95.55"/>
</a>
</g>
</g>
<!-- Node23&#45;&gt;Node21 -->
<g id="edge30_Node000023_Node000021" class="edge">
<title>Node23&#45;&gt;Node21</title>
<g id="a_edge30_Node000023_Node000021"><a xlink:title=" ">
<path fill="none" stroke="#63b8ff" d="M788.47,-420.87C801.35,-425.14 816.84,-430.28 831.09,-435.01"/>
<polygon fill="#63b8ff" stroke="#63b8ff" points="829.66,-438.22 840.25,-438.05 831.87,-431.58 829.66,-438.22"/>
</a>
</g>
</g>
<!-- Node24 -->
<g id="Node000024" class="node">
<title>Node24</title>
<g id="a_Node000024"><a xlink:href="../../d6/d82/a00293.html#ac9adcf7339be4a05ab1a7350c236b8a5" target="_top" xlink:title="Draw a box around the specified window.">
<polygon fill="white" stroke="#666666" points="895,-420.75 855.75,-420.75 855.75,-400 895,-400 895,-420.75"/>
<text xml:space="preserve" text-anchor="middle" x="875.38" y="-407.25" font-family="Helvetica,sans-Serif" font-size="10.00">cbox</text>
</a>
</g>
</g>
<!-- Node23&#45;&gt;Node24 -->
<g id="edge29_Node000023_Node000024" class="edge">
<title>Node23&#45;&gt;Node24</title>
<g id="a_edge29_Node000023_Node000024"><a xlink:title=" ">
<path fill="none" stroke="#63b8ff" d="M788.47,-411.13C805.4,-410.98 826.82,-410.79 844.04,-410.64"/>
<polygon fill="#63b8ff" stroke="#63b8ff" points="843.97,-414.14 853.94,-410.55 843.91,-407.14 843.97,-414.14"/>
</a>
</g>
</g>
<!-- Node26 -->
<g id="Node000026" class="node">
<title>Node26</title>
<g id="a_Node000026"><a xlink:href="../../d6/d82/a00293.html#a67659f8a701b74f4dec0d36227a10d1c" target="_top" xlink:title="Display an error message window or print to stderr.">
<polygon fill="white" stroke="#666666" points="669.88,-306.75 590.12,-306.75 590.12,-286 669.88,-286 669.88,-306.75"/>
<text xml:space="preserve" text-anchor="middle" x="630" y="-293.25" font-family="Helvetica,sans-Serif" font-size="10.00">display_error</text>
</a>
</g>
</g>
<!-- Node25&#45;&gt;Node26 -->
<g id="edge32_Node000025_Node000026" class="edge">
<title>Node25&#45;&gt;Node26</title>
<g id="a_edge32_Node000025_Node000026"><a xlink:title=" ">
<path fill="none" stroke="#63b8ff" d="M517.59,-290.85C534.99,-289.68 557.91,-289.35 578.44,-289.86"/>
<polygon fill="#63b8ff" stroke="#63b8ff" points="578.24,-293.35 588.35,-290.19 578.47,-286.35 578.24,-293.35"/>
</a>
</g>
</g>
<!-- Node27 -->
<g id="Node000027" class="node">
<title>Node27</title>
<g id="a_Node000027"><a xlink:href="../../d6/d82/a00293.html#a4298f891699300bfc4e6e56fd2a8d574" target="_top" xlink:title="Get keycode from chyron.">
<polygon fill="white" stroke="#666666" points="676.25,-267.75 583.75,-267.75 583.75,-247 676.25,-247 676.25,-267.75"/>
<text xml:space="preserve" text-anchor="middle" x="630" y="-254.25" font-family="Helvetica,sans-Serif" font-size="10.00">get_chyron_key</text>
</a>
</g>
</g>
<!-- Node25&#45;&gt;Node27 -->
<g id="edge43_Node000025_Node000027" class="edge">
<title>Node25&#45;&gt;Node27</title>
<g id="a_edge43_Node000025_Node000027"><a xlink:title=" ">
<path fill="none" stroke="#63b8ff" d="M517.59,-288.58C535.29,-283.62 558.7,-277.07 579.49,-271.24"/>
<polygon fill="#63b8ff" stroke="#63b8ff" points="580.25,-274.66 588.93,-268.6 578.36,-267.92 580.25,-274.66"/>
</a>
</g>
</g>
<!-- Node26&#45;&gt;Node2 -->
<g id="edge34_Node000026_Node000002" class="edge">
<title>Node26&#45;&gt;Node2</title>
<g id="a_edge34_Node000026_Node000002"><a xlink:title=" ">
<path fill="none" stroke="#63b8ff" d="M635.67,-307C654.28,-349.4 723.42,-506.9 748.62,-564.29"/>
<polygon fill="#63b8ff" stroke="#63b8ff" points="745.33,-565.51 752.56,-573.26 751.74,-562.7 745.33,-565.51"/>
</a>
</g>
</g>
<!-- Node26&#45;&gt;Node13 -->
<g id="edge33_Node000026_Node000013" class="edge">
<title>Node26&#45;&gt;Node13</title>
<g id="a_edge33_Node000026_Node000013"><a xlink:title=" ">
<path fill="none" stroke="#63b8ff" d="M665.35,-285.51C712.1,-270.72 795.19,-244.43 841.27,-229.85"/>
<polygon fill="#63b8ff" stroke="#63b8ff" points="842.23,-233.22 850.71,-226.86 840.12,-226.54 842.23,-233.22"/>
</a>
</g>
</g>
<!-- Node26&#45;&gt;Node17 -->
<g id="edge35_Node000026_Node000017" class="edge">
<title>Node26&#45;&gt;Node17</title>
<g id="a_edge35_Node000026_Node000017"><a xlink:title=" ">
<path fill="none" stroke="#63b8ff" d="M668.04,-307.18C681.2,-311.01 696.2,-315.39 710.13,-319.45"/>
<polygon fill="#63b8ff" stroke="#63b8ff" points="708.98,-322.76 719.56,-322.2 710.94,-316.04 708.98,-322.76"/>
</a>
</g>
</g>
<!-- Node26&#45;&gt;Node18 -->
<g id="edge36_Node000026_Node000018" class="edge">
<title>Node26&#45;&gt;Node18</title>
<g id="a_edge36_Node000026_Node000018"><a xlink:title=" ">
<path fill="none" stroke="#63b8ff" d="M659.03,-285.7C664.91,-282.99 670.93,-279.85 676.25,-276.38 694.42,-264.5 694.5,-255.86 712.25,-243.38 716.12,-240.65 720.34,-238.03 724.6,-235.58"/>
<polygon fill="#63b8ff" stroke="#63b8ff" points="726.01,-238.8 733.12,-230.95 722.67,-232.65 726.01,-238.8"/>
</a>
</g>
</g>
<!-- Node26&#45;&gt;Node19 -->
<g id="edge37_Node000026_Node000019" class="edge">
<title>Node26&#45;&gt;Node19</title>
<g id="a_edge37_Node000026_Node000019"><a xlink:title=" ">
<path fill="none" stroke="#63b8ff" d="M665.05,-285.58C669.26,-283.09 673.16,-280.06 676.25,-276.38 719.45,-224.82 683.76,-190.31 712.25,-129.38 719.57,-113.71 731.15,-98.04 740.81,-86.37"/>
<polygon fill="#63b8ff" stroke="#63b8ff" points="743.19,-88.97 747.04,-79.1 737.88,-84.41 743.19,-88.97"/>
</a>
</g>
</g>
<!-- Node26&#45;&gt;Node20 -->
<g id="edge38_Node000026_Node000020" class="edge">
<title>Node26&#45;&gt;Node20</title>
<g id="a_edge38_Node000026_Node000020"><a xlink:title=" ">
<path fill="none" stroke="#63b8ff" d="M663,-285.73C667.81,-283.18 672.44,-280.09 676.25,-276.38 703.02,-250.29 687,-227.94 712.25,-200.38 746.6,-162.88 799.22,-135.82 835.14,-120.4"/>
<polygon fill="#63b8ff" stroke="#63b8ff" points="836.43,-123.65 844.31,-116.57 833.73,-117.19 836.43,-123.65"/>
</a>
</g>
</g>
<!-- Node26&#45;&gt;Node21 -->
<g id="edge39_Node000026_Node000021" class="edge">
<title>Node26&#45;&gt;Node21</title>
<g id="a_edge39_Node000026_Node000021"><a xlink:title=" ">
<path fill="none" stroke="#63b8ff" d="M670.29,-289.06C709.04,-284.22 767.77,-283.54 805.5,-314.38 846.97,-348.26 808.5,-387.19 841.5,-429.38 842.02,-430.05 842.58,-430.7 843.16,-431.34"/>
<polygon fill="#63b8ff" stroke="#63b8ff" points="840.72,-433.85 850.6,-437.67 845.25,-428.52 840.72,-433.85"/>
</a>
</g>
</g>
<!-- Node26&#45;&gt;Node22 -->
<g id="edge40_Node000026_Node000022" class="edge">
<title>Node26&#45;&gt;Node22</title>
<g id="a_edge40_Node000026_Node000022"><a xlink:title=" ">
<path fill="none" stroke="#63b8ff" d="M644.85,-307.14C660.62,-319.1 687.41,-338.53 712.25,-352.38 715.25,-354.05 718.42,-355.68 721.63,-357.25"/>
<polygon fill="#63b8ff" stroke="#63b8ff" points="719.96,-360.33 730.51,-361.36 722.91,-353.98 719.96,-360.33"/>
</a>
</g>
</g>
<!-- Node26&#45;&gt;Node23 -->
<g id="edge41_Node000026_Node000023" class="edge">
<title>Node26&#45;&gt;Node23</title>
<g id="a_edge41_Node000026_Node000023"><a xlink:title=" ">
<path fill="none" stroke="#63b8ff" d="M637.81,-307.16C650.42,-326.38 679.13,-366.81 712.25,-391.38 714.42,-392.98 716.74,-394.5 719.14,-395.92"/>
<polygon fill="#63b8ff" stroke="#63b8ff" points="717.45,-398.98 727.94,-400.5 720.69,-392.78 717.45,-398.98"/>
</a>
</g>
</g>
<!-- Node26&#45;&gt;Node25 -->
<g id="edge42_Node000026_Node000025" class="edge">
<title>Node26&#45;&gt;Node25</title>
<g id="a_edge42_Node000026_Node000025"><a xlink:title=" ">
<path fill="none" stroke="#63b8ff" d="M589.86,-302.51C570.81,-303.33 547.96,-303.33 528.9,-302.51"/>
<polygon fill="#63b8ff" stroke="#63b8ff" points="529.28,-299.03 519.11,-301.98 528.9,-306.02 529.28,-299.03"/>
</a>
</g>
</g>
<!-- Node28&#45;&gt;Node9 -->
<g id="edge45_Node000028_Node000009" class="edge">
<title>Node28&#45;&gt;Node9</title>
<g id="a_edge45_Node000028_Node000009"><a xlink:title=" ">
<path fill="none" stroke="#63b8ff" d="M373.55,-460.23C380.75,-463.66 387.95,-468 393.75,-473.38 417.97,-495.82 405.11,-516.39 429.75,-538.38 438.23,-545.94 449.42,-551.33 459.72,-555.05"/>
<polygon fill="#63b8ff" stroke="#63b8ff" points="458.32,-558.28 468.92,-558 460.46,-551.62 458.32,-558.28"/>
</a>
</g>
</g>
<!-- Node30&#45;&gt;Node12 -->
<g id="edge50_Node000030_Node000012" class="edge">
<title>Node30&#45;&gt;Node12</title>
<g id="a_edge50_Node000030_Node000012"><a xlink:title=" ">
<path fill="none" stroke="#63b8ff" d="M236.97,-361.59C258.88,-355.76 285.59,-348.67 306.24,-343.18"/>
<polygon fill="#63b8ff" stroke="#63b8ff" points="307.09,-346.58 315.85,-340.63 305.29,-339.81 307.09,-346.58"/>
</a>
</g>
</g>
</g>
</svg>
