<?xml version="1.0" encoding="UTF-8" standalone="no"?>
<!DOCTYPE svg PUBLIC "-//W3C//DTD SVG 1.1//EN"
 "http://www.w3.org/Graphics/SVG/1.1/DTD/svg11.dtd">
<!-- Generated by graphviz version 14.1.2 (0)
 -->
<!-- Title: form_validate_field Pages: 1 -->
<svg width="926pt" height="436pt"
 viewBox="0.00 0.00 926.00 436.00" xmlns="http://www.w3.org/2000/svg" xmlns:xlink="http://www.w3.org/1999/xlink">
<g id="graph0" class="graph" transform="scale(1 1) rotate(0) translate(4 432.24)">
<title>form_validate_field</title>
<!-- Node1 -->
<g id="Node000001" class="node">
<title>Node1</title>
<g id="a_Node000001"><a xlink:title="Validate current field based on flags.">
<polygon fill="#999999" stroke="#666666" points="111.25,-190.75 0,-190.75 0,-170 111.25,-170 111.25,-190.75"/>
<text xml:space="preserve" text-anchor="middle" x="55.62" y="-177.25" font-family="Helvetica,sans-Serif" font-size="10.00">form_validate_field</text>
</a>
</g>
</g>
<!-- Node2 -->
<g id="Node000002" class="node">
<title>Node2</title>
<g id="a_Node000002"><a xlink:href="../../d6/d82/a00293.html#a61b4f28456257f68ed042bed7f187efd" target="_top" xlink:title="Display a simple error message window or print to stderr.">
<polygon fill="white" stroke="#666666" points="192.5,-190.75 147.25,-190.75 147.25,-170 192.5,-170 192.5,-190.75"/>
<text xml:space="preserve" text-anchor="middle" x="169.88" y="-177.25" font-family="Helvetica,sans-Serif" font-size="10.00">Perror</text>
</a>
</g>
</g>
<!-- Node1&#45;&gt;Node2 -->
<g id="edge1_Node000001_Node000002" class="edge">
<title>Node1&#45;&gt;Node2</title>
<g id="a_edge1_Node000001_Node000002"><a xlink:title=" ">
<path fill="none" stroke="#63b8ff" d="M111.43,-180.38C119.69,-180.38 127.98,-180.38 135.6,-180.38"/>
<polygon fill="#63b8ff" stroke="#63b8ff" points="135.39,-183.88 145.39,-180.38 135.39,-176.88 135.39,-183.88"/>
</a>
</g>
</g>
<!-- Node3 -->
<g id="Node000003" class="node">
<title>Node3</title>
<g id="a_Node000003"><a xlink:href="../../d6/d82/a00293.html#a8f6c45ca4a7f6a41c4c88314e697565a" target="_top" xlink:title="Abnormal program termination.">
<polygon fill="white" stroke="#666666" points="636.38,-344.75 590.38,-344.75 590.38,-324 636.38,-324 636.38,-344.75"/>
<text xml:space="preserve" text-anchor="middle" x="613.38" y="-331.25" font-family="Helvetica,sans-Serif" font-size="10.00">abend</text>
</a>
</g>
</g>
<!-- Node2&#45;&gt;Node3 -->
<g id="edge2_Node000002_Node000003" class="edge">
<title>Node2&#45;&gt;Node3</title>
<g id="a_edge2_Node000002_Node000003"><a xlink:title=" ">
<path fill="none" stroke="#63b8ff" d="M173.69,-191.23C179.95,-213.31 196.98,-263.88 228.5,-293.38 261.43,-324.19 278.41,-320.92 321.75,-333.38 416.86,-360.7 445.44,-366.65 543.5,-353.38 555.27,-351.78 567.87,-348.72 579.03,-345.52"/>
<polygon fill="#63b8ff" stroke="#63b8ff" points="580.04,-348.87 588.6,-342.62 578.01,-342.17 580.04,-348.87"/>
</a>
</g>
</g>
<!-- Node7 -->
<g id="Node000007" class="node">
<title>Node7</title>
<g id="a_Node000007"><a xlink:href="../../d6/d82/a00293.html#a645871e46277e31736bc36d0f3dce4bd" target="_top" xlink:title="construct the chyron string from the chyron structure">
<polygon fill="white" stroke="#666666" points="543.5,-420.75 450.25,-420.75 450.25,-400 543.5,-400 543.5,-420.75"/>
<text xml:space="preserve" text-anchor="middle" x="496.88" y="-407.25" font-family="Helvetica,sans-Serif" font-size="10.00">compile_chyron</text>
</a>
</g>
</g>
<!-- Node2&#45;&gt;Node7 -->
<g id="edge8_Node000002_Node000007" class="edge">
<title>Node2&#45;&gt;Node7</title>
<g id="a_edge8_Node000002_Node000007"><a xlink:title=" ">
<path fill="none" stroke="#63b8ff" d="M172.29,-191.2C177.56,-229.91 197.45,-360.55 228.5,-386.38 286.9,-434.95 379.33,-431.4 438.77,-422.41"/>
<polygon fill="#63b8ff" stroke="#63b8ff" points="439.03,-425.91 448.34,-420.86 437.91,-419 439.03,-425.91"/>
</a>
</g>
</g>
<!-- Node9 -->
<g id="Node000009" class="node">
<title>Node9</title>
<g id="a_Node000009"><a xlink:href="../../d6/d82/a00293.html#a3f3feb40fd703913c5c136331f627c91" target="_top" xlink:title="Destroy Chyron structure.">
<polygon fill="white" stroke="#666666" points="542.38,-305.75 451.38,-305.75 451.38,-285 542.38,-285 542.38,-305.75"/>
<text xml:space="preserve" text-anchor="middle" x="496.88" y="-292.25" font-family="Helvetica,sans-Serif" font-size="10.00">destroy_chyron</text>
</a>
</g>
</g>
<!-- Node2&#45;&gt;Node9 -->
<g id="edge10_Node000002_Node000009" class="edge">
<title>Node2&#45;&gt;Node9</title>
<g id="a_edge10_Node000002_Node000009"><a xlink:title=" ">
<path fill="none" stroke="#63b8ff" d="M178.54,-191.03C188.52,-204.07 207.22,-225.84 228.5,-237.38 295.5,-273.7 383.54,-287.27 439.93,-292.35"/>
<polygon fill="#63b8ff" stroke="#63b8ff" points="439.36,-295.81 449.61,-293.15 439.94,-288.83 439.36,-295.81"/>
</a>
</g>
</g>
<!-- Node10 -->
<g id="Node000010" class="node">
<title>Node10</title>
<g id="a_Node000010"><a xlink:href="../../d6/d82/a00293.html#ad37d5808ff30ae6894780425d865abae" target="_top" xlink:title="Create and initialize Chyron structure.">
<polygon fill="white" stroke="#666666" points="534.12,-344.75 459.62,-344.75 459.62,-324 534.12,-324 534.12,-344.75"/>
<text xml:space="preserve" text-anchor="middle" x="496.88" y="-331.25" font-family="Helvetica,sans-Serif" font-size="10.00">new_chyron</text>
</a>
</g>
</g>
<!-- Node2&#45;&gt;Node10 -->
<g id="edge11_Node000002_Node000010" class="edge">
<title>Node2&#45;&gt;Node10</title>
<g id="a_edge11_Node000002_Node000010"><a xlink:title=" ">
<path fill="none" stroke="#63b8ff" d="M175.61,-191.19C183.85,-208.8 202.47,-243.7 228.5,-263.38 293.74,-312.69 390.47,-327.81 447.95,-332.41"/>
<polygon fill="#63b8ff" stroke="#63b8ff" points="447.51,-335.89 457.74,-333.11 448.01,-328.91 447.51,-335.89"/>
</a>
</g>
</g>
<!-- Node11 -->
<g id="Node000011" class="node">
<title>Node11</title>
<g id="a_Node000011"><a xlink:href="../../d6/d82/a00293.html#a208ce92c197fdd6d2b007987e534aa3b" target="_top" xlink:title="Set chyron key.">
<polygon fill="white" stroke="#666666" points="542.75,-191.75 451,-191.75 451,-171 542.75,-171 542.75,-191.75"/>
<text xml:space="preserve" text-anchor="middle" x="496.88" y="-178.25" font-family="Helvetica,sans-Serif" font-size="10.00">set_chyron_key</text>
</a>
</g>
</g>
<!-- Node2&#45;&gt;Node11 -->
<g id="edge13_Node000002_Node000011" class="edge">
<title>Node2&#45;&gt;Node11</title>
<g id="a_edge13_Node000002_Node000011"><a xlink:title=" ">
<path fill="none" stroke="#63b8ff" d="M192.69,-180.29C235.28,-180.13 332.49,-179.87 414.25,-180.38 422.34,-180.42 430.87,-180.5 439.26,-180.59"/>
<polygon fill="#63b8ff" stroke="#63b8ff" points="438.99,-184.09 449.03,-180.7 439.07,-177.09 438.99,-184.09"/>
</a>
</g>
</g>
<!-- Node12 -->
<g id="Node000012" class="node">
<title>Node12</title>
<g id="a_Node000012"><a xlink:href="../../d6/d7f/a00287.html#a63eb94756fb011a456a3dec900709cd8" target="_top" xlink:title="ssnprintf was designed to be a safer alternative to snprintf.">
<polygon fill="white" stroke="#666666" points="642.75,-191.75 584,-191.75 584,-171 642.75,-171 642.75,-191.75"/>
<text xml:space="preserve" text-anchor="middle" x="613.38" y="-178.25" font-family="Helvetica,sans-Serif" font-size="10.00">ssnprintf</text>
</a>
</g>
</g>
<!-- Node2&#45;&gt;Node12 -->
<g id="edge15_Node000002_Node000012" class="edge">
<title>Node2&#45;&gt;Node12</title>
<g id="a_edge15_Node000002_Node000012"><a xlink:title=" ">
<path fill="none" stroke="#63b8ff" d="M192.54,-171C262.25,-141.42 479.91,-53.93 543.5,-86.38 573.62,-101.74 593.63,-137.11 603.98,-160.09"/>
<polygon fill="#63b8ff" stroke="#63b8ff" points="600.69,-161.28 607.82,-169.12 607.13,-158.55 600.69,-161.28"/>
</a>
</g>
</g>
<!-- Node13 -->
<g id="Node000013" class="node">
<title>Node13</title>
<g id="a_Node000013"><a xlink:href="../../d6/d7f/a00287.html#a0de2e40df9bd7efc8fd9afb8ad2257e6" target="_top" xlink:title="safer alternative to strncpy">
<polygon fill="white" stroke="#666666" points="647.25,-20.75 579.5,-20.75 579.5,0 647.25,0 647.25,-20.75"/>
<text xml:space="preserve" text-anchor="middle" x="613.38" y="-7.25" font-family="Helvetica,sans-Serif" font-size="10.00">strnz__cpy</text>
</a>
</g>
</g>
<!-- Node2&#45;&gt;Node13 -->
<g id="edge16_Node000002_Node000013" class="edge">
<title>Node2&#45;&gt;Node13</title>
<g id="a_edge16_Node000002_Node000013"><a xlink:title=" ">
<path fill="none" stroke="#63b8ff" d="M179.5,-169.63C190.16,-156.75 209.26,-134.97 228.5,-119.38 313.81,-50.22 342.46,-31.36 450.25,-10.38 489.37,-2.76 534.82,-3.57 567.63,-5.81"/>
<polygon fill="#63b8ff" stroke="#63b8ff" points="567.36,-9.3 577.6,-6.58 567.89,-2.32 567.36,-9.3"/>
</a>
</g>
</g>
<!-- Node14 -->
<g id="Node000014" class="node">
<title>Node14</title>
<g id="a_Node000014"><a xlink:href="../../d6/d82/a00293.html#a9dd598e1d49c8764af1eec42c682623e" target="_top" xlink:title="Delete the current window and its associated box window.">
<polygon fill="white" stroke="#666666" points="523.62,-115.75 470.12,-115.75 470.12,-95 523.62,-95 523.62,-115.75"/>
<text xml:space="preserve" text-anchor="middle" x="496.88" y="-102.25" font-family="Helvetica,sans-Serif" font-size="10.00">win_del</text>
</a>
</g>
</g>
<!-- Node2&#45;&gt;Node14 -->
<g id="edge17_Node000002_Node000014" class="edge">
<title>Node2&#45;&gt;Node14</title>
<g id="a_edge17_Node000002_Node000014"><a xlink:title=" ">
<path fill="none" stroke="#63b8ff" d="M192.96,-175.28C247.79,-162.63 390.63,-129.66 458.72,-113.95"/>
<polygon fill="#63b8ff" stroke="#63b8ff" points="459.33,-117.4 468.28,-111.74 457.75,-110.58 459.33,-117.4"/>
</a>
</g>
</g>
<!-- Node15 -->
<g id="Node000015" class="node">
<title>Node15</title>
<g id="a_Node000015"><a xlink:href="../../d6/d82/a00293.html#a435c7bff7ffedb8f51c6de9259e36f6c" target="_top" xlink:title="Create a new window with optional box and title.">
<polygon fill="white" stroke="#666666" points="526.25,-39.75 467.5,-39.75 467.5,-19 526.25,-19 526.25,-39.75"/>
<text xml:space="preserve" text-anchor="middle" x="496.88" y="-26.25" font-family="Helvetica,sans-Serif" font-size="10.00">win_new</text>
</a>
</g>
</g>
<!-- Node2&#45;&gt;Node15 -->
<g id="edge18_Node000002_Node000015" class="edge">
<title>Node2&#45;&gt;Node15</title>
<g id="a_edge18_Node000002_Node000015"><a xlink:title=" ">
<path fill="none" stroke="#63b8ff" d="M191.01,-169.55C202.01,-163.72 215.92,-156.49 228.5,-150.38 310.68,-110.43 408.94,-67.07 460.41,-44.68"/>
<polygon fill="#63b8ff" stroke="#63b8ff" points="461.8,-47.9 469.58,-40.7 459.01,-41.47 461.8,-47.9"/>
</a>
</g>
</g>
<!-- Node17 -->
<g id="Node000017" class="node">
<title>Node17</title>
<g id="a_Node000017"><a xlink:href="../../d6/d82/a00293.html#acf4c709bccc4c965a5d61db978db31a3" target="_top" xlink:title="Wrapper for wgetch that handles signals and mouse events.">
<polygon fill="white" stroke="#666666" points="285.75,-228.75 228.5,-228.75 228.5,-208 285.75,-208 285.75,-228.75"/>
<text xml:space="preserve" text-anchor="middle" x="257.12" y="-215.25" font-family="Helvetica,sans-Serif" font-size="10.00">xwgetch</text>
</a>
</g>
</g>
<!-- Node2&#45;&gt;Node17 -->
<g id="edge21_Node000002_Node000017" class="edge">
<title>Node2&#45;&gt;Node17</title>
<g id="a_edge21_Node000002_Node000017"><a xlink:title=" ">
<path fill="none" stroke="#63b8ff" d="M192.83,-190.16C201.6,-194.07 211.9,-198.66 221.63,-203"/>
<polygon fill="#63b8ff" stroke="#63b8ff" points="219.9,-206.06 230.46,-206.94 222.75,-199.67 219.9,-206.06"/>
</a>
</g>
</g>
<!-- Node4 -->
<g id="Node000004" class="node">
<title>Node4</title>
<g id="a_Node000004"><a xlink:href="../../d6/d82/a00293.html#afc0985a403e3eac0b2cd8f0fab500256" target="_top" xlink:title="Gracefully shut down NCurses and restore terminal settings.">
<polygon fill="white" stroke="#666666" points="772.75,-344.75 683.25,-344.75 683.25,-324 772.75,-324 772.75,-344.75"/>
<text xml:space="preserve" text-anchor="middle" x="728" y="-331.25" font-family="Helvetica,sans-Serif" font-size="10.00">destroy_curses</text>
</a>
</g>
</g>
<!-- Node3&#45;&gt;Node4 -->
<g id="edge3_Node000003_Node000004" class="edge">
<title>Node3&#45;&gt;Node4</title>
<g id="a_edge3_Node000003_Node000004"><a xlink:title=" ">
<path fill="none" stroke="#63b8ff" d="M636.63,-334.38C646.74,-334.38 659.19,-334.38 671.59,-334.38"/>
<polygon fill="#63b8ff" stroke="#63b8ff" points="671.38,-337.88 681.38,-334.38 671.38,-330.88 671.38,-337.88"/>
</a>
</g>
</g>
<!-- Node5 -->
<g id="Node000005" class="node">
<title>Node5</title>
<g id="a_Node000005"><a xlink:href="../../df/d95/a00299.html#ac5e3adb304b78910fc77761ef6a743f0" target="_top" xlink:title="restore_shell_tioctl() &#45; restore shell terminal settings">
<polygon fill="white" stroke="#666666" points="917.75,-372.75 808.75,-372.75 808.75,-352 917.75,-352 917.75,-372.75"/>
<text xml:space="preserve" text-anchor="middle" x="863.25" y="-359.25" font-family="Helvetica,sans-Serif" font-size="10.00">restore_shell_tioctl</text>
</a>
</g>
</g>
<!-- Node3&#45;&gt;Node5 -->
<g id="edge6_Node000003_Node000005" class="edge">
<title>Node3&#45;&gt;Node5</title>
<g id="a_edge6_Node000003_Node000005"><a xlink:title=" ">
<path fill="none" stroke="#63b8ff" d="M636.75,-341.88C650.09,-346.03 667.45,-350.83 683.25,-353.38 720.65,-359.4 762.96,-361.73 797.05,-362.52"/>
<polygon fill="#63b8ff" stroke="#63b8ff" points="796.7,-366.01 806.76,-362.7 796.83,-359.01 796.7,-366.01"/>
</a>
</g>
</g>
<!-- Node6 -->
<g id="Node000006" class="node">
<title>Node6</title>
<g id="a_Node000006"><a xlink:href="../../d3/d1a/a00251.html#a06c1eb6cf3649dc187115565409f91af" target="_top" xlink:title="Set signal handlers to default behavior.">
<polygon fill="white" stroke="#666666" points="903.88,-324.75 822.62,-324.75 822.62,-304 903.88,-304 903.88,-324.75"/>
<text xml:space="preserve" text-anchor="middle" x="863.25" y="-311.25" font-family="Helvetica,sans-Serif" font-size="10.00">sig_dfl_mode</text>
</a>
</g>
</g>
<!-- Node3&#45;&gt;Node6 -->
<g id="edge7_Node000003_Node000006" class="edge">
<title>Node3&#45;&gt;Node6</title>
<g id="a_edge7_Node000003_Node000006"><a xlink:title=" ">
<path fill="none" stroke="#63b8ff" d="M636.71,-326.6C650.03,-322.37 667.4,-317.57 683.25,-315.38 726.03,-309.46 775.11,-309.67 811.04,-311.1"/>
<polygon fill="#63b8ff" stroke="#63b8ff" points="810.56,-314.58 820.71,-311.54 810.88,-307.59 810.56,-314.58"/>
</a>
</g>
</g>
<!-- Node4&#45;&gt;Node5 -->
<g id="edge4_Node000004_Node000005" class="edge">
<title>Node4&#45;&gt;Node5</title>
<g id="a_edge4_Node000004_Node000005"><a xlink:title=" ">
<path fill="none" stroke="#63b8ff" d="M773,-343.62C781.62,-345.43 790.82,-347.37 799.91,-349.28"/>
<polygon fill="#63b8ff" stroke="#63b8ff" points="798.91,-352.64 809.42,-351.27 800.35,-345.79 798.91,-352.64"/>
</a>
</g>
</g>
<!-- Node4&#45;&gt;Node6 -->
<g id="edge5_Node000004_Node000006" class="edge">
<title>Node4&#45;&gt;Node6</title>
<g id="a_edge5_Node000004_Node000006"><a xlink:title=" ">
<path fill="none" stroke="#63b8ff" d="M773,-327.77C785.19,-325.94 798.52,-323.94 811.08,-322.06"/>
<polygon fill="#63b8ff" stroke="#63b8ff" points="811.48,-325.54 820.85,-320.59 810.44,-318.61 811.48,-325.54"/>
</a>
</g>
</g>
<!-- Node8 -->
<g id="Node000008" class="node">
<title>Node8</title>
<g id="a_Node000008"><a xlink:href="../../d6/d7f/a00287.html#aa0145c044cfdde3a1c83323410a59f25" target="_top" xlink:title="safer alternative to strncat">
<polygon fill="white" stroke="#666666" points="646.12,-420.75 580.62,-420.75 580.62,-400 646.12,-400 646.12,-420.75"/>
<text xml:space="preserve" text-anchor="middle" x="613.38" y="-407.25" font-family="Helvetica,sans-Serif" font-size="10.00">strnz__cat</text>
</a>
</g>
</g>
<!-- Node7&#45;&gt;Node8 -->
<g id="edge9_Node000007_Node000008" class="edge">
<title>Node7&#45;&gt;Node8</title>
<g id="a_edge9_Node000007_Node000008"><a xlink:title=" ">
<path fill="none" stroke="#63b8ff" d="M543.79,-410.38C552.08,-410.38 560.69,-410.38 568.91,-410.38"/>
<polygon fill="#63b8ff" stroke="#63b8ff" points="568.67,-413.88 578.67,-410.38 568.67,-406.88 568.67,-413.88"/>
</a>
</g>
</g>
<!-- Node10&#45;&gt;Node3 -->
<g id="edge12_Node000010_Node000003" class="edge">
<title>Node10&#45;&gt;Node3</title>
<g id="a_edge12_Node000010_Node000003"><a xlink:title=" ">
<path fill="none" stroke="#63b8ff" d="M534.42,-334.38C548.74,-334.38 565.05,-334.38 579.04,-334.38"/>
<polygon fill="#63b8ff" stroke="#63b8ff" points="578.64,-337.88 588.64,-334.38 578.64,-330.88 578.64,-337.88"/>
</a>
</g>
</g>
<!-- Node11&#45;&gt;Node12 -->
<g id="edge14_Node000011_Node000012" class="edge">
<title>Node11&#45;&gt;Node12</title>
<g id="a_edge14_Node000011_Node000012"><a xlink:title=" ">
<path fill="none" stroke="#63b8ff" d="M543.13,-181.38C552.71,-181.38 562.76,-181.38 572.14,-181.38"/>
<polygon fill="#63b8ff" stroke="#63b8ff" points="572.07,-184.88 582.07,-181.38 572.07,-177.88 572.07,-184.88"/>
</a>
</g>
</g>
<!-- Node15&#45;&gt;Node13 -->
<g id="edge20_Node000015_Node000013" class="edge">
<title>Node15&#45;&gt;Node13</title>
<g id="a_edge20_Node000015_Node000013"><a xlink:title=" ">
<path fill="none" stroke="#63b8ff" d="M526.47,-24.63C539.12,-22.53 554.28,-20.01 568.33,-17.68"/>
<polygon fill="#63b8ff" stroke="#63b8ff" points="568.49,-21.2 577.78,-16.11 567.35,-14.3 568.49,-21.2"/>
</a>
</g>
</g>
<!-- Node16 -->
<g id="Node000016" class="node">
<title>Node16</title>
<g id="a_Node000016"><a xlink:href="../../d6/d82/a00293.html#ac9adcf7339be4a05ab1a7350c236b8a5" target="_top" xlink:title="Draw a box around the specified window.">
<polygon fill="white" stroke="#666666" points="633,-59.75 593.75,-59.75 593.75,-39 633,-39 633,-59.75"/>
<text xml:space="preserve" text-anchor="middle" x="613.38" y="-46.25" font-family="Helvetica,sans-Serif" font-size="10.00">cbox</text>
</a>
</g>
</g>
<!-- Node15&#45;&gt;Node16 -->
<g id="edge19_Node000015_Node000016" class="edge">
<title>Node15&#45;&gt;Node16</title>
<g id="a_edge19_Node000015_Node000016"><a xlink:title=" ">
<path fill="none" stroke="#63b8ff" d="M526.47,-34.37C543.48,-37.34 565.03,-41.11 582.29,-44.12"/>
<polygon fill="#63b8ff" stroke="#63b8ff" points="581.51,-47.54 591.96,-45.81 582.71,-40.64 581.51,-47.54"/>
</a>
</g>
</g>
<!-- Node18 -->
<g id="Node000018" class="node">
<title>Node18</title>
<g id="a_Node000018"><a xlink:href="../../d6/d82/a00293.html#a67659f8a701b74f4dec0d36227a10d1c" target="_top" xlink:title="Display an error message window or print to stderr.">
<polygon fill="white" stroke="#666666" points="407.88,-248.75 328.12,-248.75 328.12,-228 407.88,-228 407.88,-248.75"/>
<text xml:space="preserve" text-anchor="middle" x="368" y="-235.25" font-family="Helvetica,sans-Serif" font-size="10.00">display_error</text>
</a>
</g>
</g>
<!-- Node17&#45;&gt;Node18 -->
<g id="edge22_Node000017_Node000018" class="edge">
<title>Node17&#45;&gt;Node18</title>
<g id="a_edge22_Node000017_Node000018"><a xlink:title=" ">
<path fill="none" stroke="#63b8ff" d="M286.16,-217.54C299.29,-219.13 315.11,-221.88 329.27,-224.99"/>
<polygon fill="#63b8ff" stroke="#63b8ff" points="328.17,-228.32 338.71,-227.19 329.77,-221.51 328.17,-228.32"/>
</a>
</g>
</g>
<!-- Node19 -->
<g id="Node000019" class="node">
<title>Node19</title>
<g id="a_Node000019"><a xlink:href="../../d6/d82/a00293.html#a4298f891699300bfc4e6e56fd2a8d574" target="_top" xlink:title="Get keycode from chyron.">
<polygon fill="white" stroke="#666666" points="414.25,-209.75 321.75,-209.75 321.75,-189 414.25,-189 414.25,-209.75"/>
<text xml:space="preserve" text-anchor="middle" x="368" y="-196.25" font-family="Helvetica,sans-Serif" font-size="10.00">get_chyron_key</text>
</a>
</g>
</g>
<!-- Node17&#45;&gt;Node19 -->
<g id="edge33_Node000017_Node000019" class="edge">
<title>Node17&#45;&gt;Node19</title>
<g id="a_edge33_Node000017_Node000019"><a xlink:title=" ">
<path fill="none" stroke="#63b8ff" d="M286.16,-213.48C293.53,-212.2 301.74,-210.76 310.03,-209.32"/>
<polygon fill="#63b8ff" stroke="#63b8ff" points="310.58,-212.77 319.83,-207.61 309.37,-205.88 310.58,-212.77"/>
</a>
</g>
</g>
<!-- Node18&#45;&gt;Node3 -->
<g id="edge23_Node000018_Node000003" class="edge">
<title>Node18&#45;&gt;Node3</title>
<g id="a_edge23_Node000018_Node000003"><a xlink:title=" ">
<path fill="none" stroke="#63b8ff" d="M408.21,-241.47C444.79,-245.58 500.1,-255.03 543.5,-276.38 563.1,-286.02 581.83,-302.42 594.79,-315.32"/>
<polygon fill="#63b8ff" stroke="#63b8ff" points="592.26,-317.74 601.73,-322.49 597.29,-312.87 592.26,-317.74"/>
</a>
</g>
</g>
<!-- Node18&#45;&gt;Node7 -->
<g id="edge24_Node000018_Node000007" class="edge">
<title>Node18&#45;&gt;Node7</title>
<g id="a_edge24_Node000018_Node000007"><a xlink:title=" ">
<path fill="none" stroke="#63b8ff" d="M376.19,-248.99C390.11,-269.46 421.88,-315.67 450.25,-353.38 459.8,-366.07 470.93,-379.99 479.81,-390.9"/>
<polygon fill="#63b8ff" stroke="#63b8ff" points="476.93,-392.91 485.97,-398.43 482.35,-388.47 476.93,-392.91"/>
</a>
</g>
</g>
<!-- Node18&#45;&gt;Node9 -->
<g id="edge25_Node000018_Node000009" class="edge">
<title>Node18&#45;&gt;Node9</title>
<g id="a_edge25_Node000018_Node000009"><a xlink:title=" ">
<path fill="none" stroke="#63b8ff" d="M393.16,-249.23C412.48,-257.91 439.8,-270.18 461.4,-279.89"/>
<polygon fill="#63b8ff" stroke="#63b8ff" points="459.87,-283.03 470.42,-283.94 462.73,-276.65 459.87,-283.03"/>
</a>
</g>
</g>
<!-- Node18&#45;&gt;Node10 -->
<g id="edge26_Node000018_Node000010" class="edge">
<title>Node18&#45;&gt;Node10</title>
<g id="a_edge26_Node000018_Node000010"><a xlink:title=" ">
<path fill="none" stroke="#63b8ff" d="M378.32,-249.17C392.53,-265.11 421.06,-295.14 450.25,-314.38 452.36,-315.77 454.59,-317.1 456.87,-318.37"/>
<polygon fill="#63b8ff" stroke="#63b8ff" points="455.25,-321.48 465.75,-322.86 458.41,-315.23 455.25,-321.48"/>
</a>
</g>
</g>
<!-- Node18&#45;&gt;Node11 -->
<g id="edge27_Node000018_Node000011" class="edge">
<title>Node18&#45;&gt;Node11</title>
<g id="a_edge27_Node000018_Node000011"><a xlink:title=" ">
<path fill="none" stroke="#63b8ff" d="M393.44,-227.62C400.19,-224.64 407.51,-221.39 414.25,-218.38 430.02,-211.32 447.47,-203.42 462.17,-196.74"/>
<polygon fill="#63b8ff" stroke="#63b8ff" points="463.3,-200.07 470.95,-192.75 460.4,-193.7 463.3,-200.07"/>
</a>
</g>
</g>
<!-- Node18&#45;&gt;Node12 -->
<g id="edge28_Node000018_Node000012" class="edge">
<title>Node18&#45;&gt;Node12</title>
<g id="a_edge28_Node000018_Node000012"><a xlink:title=" ">
<path fill="none" stroke="#63b8ff" d="M408.3,-230.46C443.76,-223.16 497.29,-211.77 543.5,-200.38 553.02,-198.03 563.23,-195.32 572.8,-192.69"/>
<polygon fill="#63b8ff" stroke="#63b8ff" points="573.49,-196.13 582.19,-190.08 571.62,-189.39 573.49,-196.13"/>
</a>
</g>
</g>
<!-- Node18&#45;&gt;Node13 -->
<g id="edge29_Node000018_Node000013" class="edge">
<title>Node18&#45;&gt;Node13</title>
<g id="a_edge29_Node000018_Node000013"><a xlink:title=" ">
<path fill="none" stroke="#63b8ff" d="M400.13,-227.53C405.16,-224.99 410.07,-221.95 414.25,-218.38 436.73,-199.14 427.49,-181.28 450.25,-162.38 484.67,-133.78 512.19,-156.35 543.5,-124.38 574.8,-92.41 550.85,-64.74 579.5,-30.38 580.05,-29.72 580.62,-29.08 581.21,-28.46"/>
<polygon fill="#63b8ff" stroke="#63b8ff" points="583.29,-31.28 588.77,-22.21 578.83,-25.89 583.29,-31.28"/>
</a>
</g>
</g>
<!-- Node18&#45;&gt;Node14 -->
<g id="edge30_Node000018_Node000014" class="edge">
<title>Node18&#45;&gt;Node14</title>
<g id="a_edge30_Node000018_Node000014"><a xlink:title=" ">
<path fill="none" stroke="#63b8ff" d="M401.65,-227.67C406.27,-225.14 410.66,-222.08 414.25,-218.38 443.94,-187.73 421.62,-161.02 450.25,-129.38 453.12,-126.2 456.51,-123.38 460.13,-120.88"/>
<polygon fill="#63b8ff" stroke="#63b8ff" points="461.89,-123.9 468.72,-115.8 458.33,-117.88 461.89,-123.9"/>
</a>
</g>
</g>
<!-- Node18&#45;&gt;Node15 -->
<g id="edge31_Node000018_Node000015" class="edge">
<title>Node18&#45;&gt;Node15</title>
<g id="a_edge31_Node000018_Node000015"><a xlink:title=" ">
<path fill="none" stroke="#63b8ff" d="M402.96,-227.5C407.18,-225.03 411.11,-222.02 414.25,-218.38 453.91,-172.28 422.68,-140.57 450.25,-86.38 457.27,-72.57 467.99,-58.96 477.27,-48.5"/>
<polygon fill="#63b8ff" stroke="#63b8ff" points="479.7,-51.03 483.9,-41.3 474.55,-46.28 479.7,-51.03"/>
</a>
</g>
</g>
<!-- Node18&#45;&gt;Node17 -->
<g id="edge32_Node000018_Node000017" class="edge">
<title>Node18&#45;&gt;Node17</title>
<g id="a_edge32_Node000018_Node000017"><a xlink:title=" ">
<path fill="none" stroke="#63b8ff" d="M327.65,-237.66C317.37,-236.1 306.32,-234.06 296.11,-231.82"/>
<polygon fill="#63b8ff" stroke="#63b8ff" points="297.05,-228.45 286.51,-229.58 295.45,-235.26 297.05,-228.45"/>
</a>
</g>
</g>
</g>
</svg>
