<?xml version="1.0" encoding="UTF-8" standalone="no"?>
<!DOCTYPE svg PUBLIC "-//W3C//DTD SVG 1.1//EN"
 "http://www.w3.org/Graphics/SVG/1.1/DTD/svg11.dtd">
<!-- Generated by graphviz version 14.1.2 (0)
 -->
<!-- Title: restore_curses_tioctl Pages: 1 -->
<svg width="1619pt" height="363pt"
 viewBox="0.00 0.00 1619.00 363.00" xmlns="http://www.w3.org/2000/svg" xmlns:xlink="http://www.w3.org/1999/xlink">
<g id="graph0" class="graph" transform="scale(1 1) rotate(0) translate(4 359.38)">
<title>restore_curses_tioctl</title>
<!-- Node1 -->
<g id="Node000001" class="node">
<title>Node1</title>
<g id="a_Node000001"><a xlink:title="restore_curses_tioctl() &#45; restore curses terminal settings">
<polygon fill="#999999" stroke="#666666" points="1610.75,-327.75 1493.5,-327.75 1493.5,-307 1610.75,-307 1610.75,-327.75"/>
<text xml:space="preserve" text-anchor="middle" x="1552.12" y="-314.25" font-family="Helvetica,sans-Serif" font-size="10.00">restore_curses_tioctl</text>
</a>
</g>
</g>
<!-- Node2 -->
<g id="Node000002" class="node">
<title>Node2</title>
<g id="a_Node000002"><a xlink:href="../../d5/ddf/a00224.html#af7fcbb1c8b67a4d11c86ba7209f397c2" target="_top" xlink:title="Executes specified command with selected objects as arguments.">
<polygon fill="white" stroke="#666666" points="761.88,-327.75 682.12,-327.75 682.12,-307 761.88,-307 761.88,-327.75"/>
<text xml:space="preserve" text-anchor="middle" x="722" y="-314.25" font-family="Helvetica,sans-Serif" font-size="10.00">exec_objects</text>
</a>
</g>
</g>
<!-- Node1&#45;&gt;Node2 -->
<g id="edge1_Node000001_Node000002" class="edge">
<title>Node1&#45;&gt;Node2</title>
<g id="a_edge1_Node000001_Node000002"><a xlink:title=" ">
<path fill="none" stroke="#63b8ff" d="M1481.67,-317.38C1440.22,-317.38 1386.54,-317.38 1338.88,-317.38 1338.88,-317.38 1338.88,-317.38 942,-317.38 879.08,-317.38 805.98,-317.38 762.16,-317.38"/>
<polygon fill="#63b8ff" stroke="#63b8ff" points="1481.51,-320.88 1491.51,-317.38 1481.51,-313.88 1481.51,-320.88"/>
</a>
</g>
</g>
<!-- Node4 -->
<g id="Node000004" class="node">
<title>Node4</title>
<g id="a_Node000004"><a xlink:href="../../d5/ddf/a00224.html#a1b2ee87543245e612c1710ea58930a17" target="_top" xlink:title="Initializes pick structure and opens pick input file or pipe.">
<polygon fill="white" stroke="#666666" points="410.5,-278.75 353.25,-278.75 353.25,-258 410.5,-258 410.5,-278.75"/>
<text xml:space="preserve" text-anchor="middle" x="381.88" y="-265.25" font-family="Helvetica,sans-Serif" font-size="10.00">init_pick</text>
</a>
</g>
</g>
<!-- Node1&#45;&gt;Node4 -->
<g id="edge37_Node000001_Node000004" class="edge">
<title>Node1&#45;&gt;Node4</title>
<g id="a_edge37_Node000001_Node000004"><a xlink:title=" ">
<path fill="none" stroke="#63b8ff" d="M1502.99,-331.01C1460.26,-341.91 1395.92,-355.38 1338.88,-355.38 1338.88,-355.38 1338.88,-355.38 601.88,-355.38 520.26,-355.38 432.85,-302.54 398.24,-279.22"/>
<polygon fill="#63b8ff" stroke="#63b8ff" points="1503.66,-334.46 1512.45,-328.54 1501.89,-327.68 1503.66,-334.46"/>
</a>
</g>
</g>
<!-- Node9 -->
<g id="Node000009" class="node">
<title>Node9</title>
<g id="a_Node000009"><a xlink:href="../../d1/da8/a00230.html#a386fad82c5208c7d3b2a5060882974f3" target="_top" xlink:title="Fork and exec a command.">
<polygon fill="white" stroke="#666666" points="1457.5,-153.75 1393.5,-153.75 1393.5,-133 1457.5,-133 1457.5,-153.75"/>
<text xml:space="preserve" text-anchor="middle" x="1425.5" y="-140.25" font-family="Helvetica,sans-Serif" font-size="10.00">fork_exec</text>
</a>
</g>
</g>
<!-- Node1&#45;&gt;Node9 -->
<g id="edge9_Node000001_Node000009" class="edge">
<title>Node1&#45;&gt;Node9</title>
<g id="a_edge9_Node000001_Node000009"><a xlink:title=" ">
<path fill="none" stroke="#63b8ff" d="M1536.87,-297.48C1510.35,-260.45 1454.28,-182.16 1434.01,-153.86"/>
<polygon fill="#63b8ff" stroke="#63b8ff" points="1533.97,-299.43 1542.64,-305.52 1539.66,-295.35 1533.97,-299.43"/>
</a>
</g>
</g>
<!-- Node3 -->
<g id="Node000003" class="node">
<title>Node3</title>
<g id="a_Node000003"><a xlink:href="../../d5/ddf/a00224.html#ab97dcab41017c5132f52b682437a151e" target="_top" xlink:title="Initializes pick interface, calculates window size and position, and enters picker loop.">
<polygon fill="white" stroke="#666666" points="528.88,-278.75 454.38,-278.75 454.38,-258 528.88,-258 528.88,-278.75"/>
<text xml:space="preserve" text-anchor="middle" x="491.62" y="-265.25" font-family="Helvetica,sans-Serif" font-size="10.00">pick_engine</text>
</a>
</g>
</g>
<!-- Node2&#45;&gt;Node3 -->
<g id="edge2_Node000002_Node000003" class="edge">
<title>Node2&#45;&gt;Node3</title>
<g id="a_edge2_Node000002_Node000003"><a xlink:title=" ">
<path fill="none" stroke="#63b8ff" d="M670.72,-306.59C627.9,-297.4 567.41,-284.42 529.11,-276.2"/>
<polygon fill="#63b8ff" stroke="#63b8ff" points="669.75,-309.96 680.26,-308.63 671.22,-303.11 669.75,-309.96"/>
</a>
</g>
</g>
<!-- Node3&#45;&gt;Node4 -->
<g id="edge3_Node000003_Node000004" class="edge">
<title>Node3&#45;&gt;Node4</title>
<g id="a_edge3_Node000003_Node000004"><a xlink:title=" ">
<path fill="none" stroke="#63b8ff" d="M442.91,-268.38C431.93,-268.38 420.61,-268.38 410.8,-268.38"/>
<polygon fill="#63b8ff" stroke="#63b8ff" points="442.63,-271.88 452.63,-268.38 442.63,-264.88 442.63,-271.88"/>
</a>
</g>
</g>
<!-- Node5 -->
<g id="Node000005" class="node">
<title>Node5</title>
<g id="a_Node000005"><a xlink:href="../../d9/d39/a00257.html#a3c04138a5bfe5d72780bb7e82a18e627" target="_top" xlink:title=" ">
<polygon fill="white" stroke="#666666" points="276.38,-278.75 235.62,-278.75 235.62,-258 276.38,-258 276.38,-278.75"/>
<text xml:space="preserve" text-anchor="middle" x="256" y="-265.25" font-family="Helvetica,sans-Serif" font-size="10.00">main</text>
</a>
</g>
</g>
<!-- Node4&#45;&gt;Node5 -->
<g id="edge4_Node000004_Node000005" class="edge">
<title>Node4&#45;&gt;Node5</title>
<g id="a_edge4_Node000004_Node000005"><a xlink:title=" ">
<path fill="none" stroke="#63b8ff" d="M341.27,-268.38C319.64,-268.38 293.83,-268.38 276.52,-268.38"/>
<polygon fill="#63b8ff" stroke="#63b8ff" points="341.25,-271.88 351.25,-268.38 341.25,-264.88 341.25,-271.88"/>
</a>
</g>
</g>
<!-- Node6 -->
<g id="Node000006" class="node">
<title>Node6</title>
<g id="a_Node000006"><a xlink:href="../../df/da9/a00263.html#aa5d0e30e7036b72b51c843d0a7e486a1" target="_top" xlink:title="Processes user input for the menu system.">
<polygon fill="white" stroke="#666666" points="317.25,-96.75 194.75,-96.75 194.75,-76 317.25,-76 317.25,-96.75"/>
<text xml:space="preserve" text-anchor="middle" x="256" y="-83.25" font-family="Helvetica,sans-Serif" font-size="10.00">menu_cmd_processor</text>
</a>
</g>
</g>
<!-- Node4&#45;&gt;Node6 -->
<g id="edge5_Node000004_Node000006" class="edge">
<title>Node4&#45;&gt;Node6</title>
<g id="a_edge5_Node000004_Node000006"><a xlink:title=" ">
<path fill="none" stroke="#63b8ff" d="M367.24,-248.34C340.98,-209.75 284.22,-126.37 264.18,-96.93"/>
<polygon fill="#63b8ff" stroke="#63b8ff" points="364.13,-249.99 372.65,-256.28 369.91,-246.05 364.13,-249.99"/>
</a>
</g>
</g>
<!-- Node7 -->
<g id="Node000007" class="node">
<title>Node7</title>
<g id="a_Node000007"><a xlink:href="../../df/da9/a00263.html#a7d7973d7aac92759dcc86ec52bb038f4" target="_top" xlink:title="The main loop of the menu system.">
<polygon fill="white" stroke="#666666" points="158.75,-96.75 76.75,-96.75 76.75,-76 158.75,-76 158.75,-96.75"/>
<text xml:space="preserve" text-anchor="middle" x="117.75" y="-83.25" font-family="Helvetica,sans-Serif" font-size="10.00">menu_engine</text>
</a>
</g>
</g>
<!-- Node6&#45;&gt;Node7 -->
<g id="edge6_Node000006_Node000007" class="edge">
<title>Node6&#45;&gt;Node7</title>
<g id="a_edge6_Node000006_Node000007"><a xlink:title=" ">
<path fill="none" stroke="#63b8ff" d="M183.2,-79.63C174.96,-79.67 166.79,-79.84 159.17,-80.15"/>
<polygon fill="#63b8ff" stroke="#63b8ff" points="182.92,-83.13 192.93,-79.66 182.94,-76.13 182.92,-83.13"/>
</a>
</g>
</g>
<!-- Node7&#45;&gt;Node6 -->
<g id="edge8_Node000007_Node000006" class="edge">
<title>Node7&#45;&gt;Node6</title>
<g id="a_edge8_Node000007_Node000006"><a xlink:title=" ">
<path fill="none" stroke="#63b8ff" d="M170.68,-92.95C178.45,-93.12 186.52,-93.17 194.45,-93.09"/>
<polygon fill="#63b8ff" stroke="#63b8ff" points="170.79,-89.45 160.69,-92.65 170.58,-96.45 170.79,-89.45"/>
</a>
</g>
</g>
<!-- Node8 -->
<g id="Node000008" class="node">
<title>Node8</title>
<g id="a_Node000008"><a xlink:href="../../d9/d01/a00227.html#a3c04138a5bfe5d72780bb7e82a18e627" target="_top" xlink:title=" ">
<polygon fill="white" stroke="#666666" points="40.75,-96.75 0,-96.75 0,-76 40.75,-76 40.75,-96.75"/>
<text xml:space="preserve" text-anchor="middle" x="20.38" y="-83.25" font-family="Helvetica,sans-Serif" font-size="10.00">main</text>
</a>
</g>
</g>
<!-- Node7&#45;&gt;Node8 -->
<g id="edge7_Node000007_Node000008" class="edge">
<title>Node7&#45;&gt;Node8</title>
<g id="a_edge7_Node000007_Node000008"><a xlink:title=" ">
<path fill="none" stroke="#63b8ff" d="M64.79,-86.38C56.36,-86.38 48.1,-86.38 41.09,-86.38"/>
<polygon fill="#63b8ff" stroke="#63b8ff" points="64.79,-89.88 74.79,-86.38 64.79,-82.88 64.79,-89.88"/>
</a>
</g>
</g>
<!-- Node10 -->
<g id="Node000010" class="node">
<title>Node10</title>
<g id="a_Node000010"><a xlink:href="../../d1/da8/a00230.html#a907dc4a5b8c29a03d23bdc87f41b5f1b" target="_top" xlink:title="Execute a command in full screen mode.">
<polygon fill="white" stroke="#666666" points="1148.5,-20.75 1026,-20.75 1026,0 1148.5,0 1148.5,-20.75"/>
<text xml:space="preserve" text-anchor="middle" x="1087.25" y="-7.25" font-family="Helvetica,sans-Serif" font-size="10.00">full_screen_fork_exec</text>
</a>
</g>
</g>
<!-- Node9&#45;&gt;Node10 -->
<g id="edge10_Node000009_Node000010" class="edge">
<title>Node9&#45;&gt;Node10</title>
<g id="a_edge10_Node000009_Node000010"><a xlink:title=" ">
<path fill="none" stroke="#63b8ff" d="M1397.25,-126.64C1369.2,-109.94 1323.84,-84.39 1282.25,-67.38 1233.35,-47.38 1174.9,-31.19 1135.02,-21.25"/>
<polygon fill="#63b8ff" stroke="#63b8ff" points="1395.43,-129.63 1405.81,-131.79 1399.04,-123.63 1395.43,-129.63"/>
</a>
</g>
</g>
<!-- Node11 -->
<g id="Node000011" class="node">
<title>Node11</title>
<g id="a_Node000011"><a xlink:href="../../d1/da8/a00230.html#a5c3ffccf49f08359334198f7fce3f9df" target="_top" xlink:title="Execute a shell command.">
<polygon fill="white" stroke="#666666" points="1357.5,-153.75 1318.25,-153.75 1318.25,-133 1357.5,-133 1357.5,-153.75"/>
<text xml:space="preserve" text-anchor="middle" x="1337.88" y="-140.25" font-family="Helvetica,sans-Serif" font-size="10.00">shell</text>
</a>
</g>
</g>
<!-- Node9&#45;&gt;Node11 -->
<g id="edge12_Node000009_Node000011" class="edge">
<title>Node9&#45;&gt;Node11</title>
<g id="a_edge12_Node000009_Node000011"><a xlink:title=" ">
<path fill="none" stroke="#63b8ff" d="M1381.76,-143.38C1373.35,-143.38 1364.94,-143.38 1357.82,-143.38"/>
<polygon fill="#63b8ff" stroke="#63b8ff" points="1381.59,-146.88 1391.59,-143.38 1381.59,-139.88 1381.59,-146.88"/>
</a>
</g>
</g>
<!-- Node10&#45;&gt;Node6 -->
<g id="edge11_Node000010_Node000006" class="edge">
<title>Node10&#45;&gt;Node6</title>
<g id="a_edge11_Node000010_Node000006"><a xlink:title=" ">
<path fill="none" stroke="#63b8ff" d="M1014.37,-10.38C964.46,-10.38 896.44,-10.38 836.5,-10.38 836.5,-10.38 836.5,-10.38 490.62,-10.38 428.64,-10.38 411.8,-14.05 353.25,-34.38 323.29,-44.78 291.46,-63.74 272.95,-75.66"/>
<polygon fill="#63b8ff" stroke="#63b8ff" points="1014.18,-13.88 1024.18,-10.38 1014.18,-6.88 1014.18,-13.88"/>
</a>
</g>
</g>
<!-- Node12 -->
<g id="Node000012" class="node">
<title>Node12</title>
<g id="a_Node000012"><a xlink:href="../../d6/de1/a00233.html#ab2e6e35d9dba586838b91f54a6dd41a2" target="_top" xlink:title="Execute a provider command specified in the form description file, passing form field values as argum...">
<polygon fill="white" stroke="#666666" points="990,-134.75 896,-134.75 896,-114 990,-114 990,-134.75"/>
<text xml:space="preserve" text-anchor="middle" x="943" y="-121.25" font-family="Helvetica,sans-Serif" font-size="10.00">form_exec_cmd</text>
</a>
</g>
</g>
<!-- Node11&#45;&gt;Node12 -->
<g id="edge13_Node000011_Node000012" class="edge">
<title>Node11&#45;&gt;Node12</title>
<g id="a_edge13_Node000011_Node000012"><a xlink:title=" ">
<path fill="none" stroke="#63b8ff" d="M1306.74,-141.92C1238.52,-138.62 1071.86,-130.56 990.38,-126.62"/>
<polygon fill="#63b8ff" stroke="#63b8ff" points="1306.26,-145.4 1316.41,-142.39 1306.59,-138.41 1306.26,-145.4"/>
</a>
</g>
</g>
<!-- Node17 -->
<g id="Node000017" class="node">
<title>Node17</title>
<g id="a_Node000017"><a xlink:href="../../d1/da8/a00230.html#aeb3e7eb282467134ce50fde7d9ebd19d" target="_top" xlink:title="Execute a shell command in full screen mode.">
<polygon fill="white" stroke="#666666" points="1282.25,-96.75 1184.5,-96.75 1184.5,-76 1282.25,-76 1282.25,-96.75"/>
<text xml:space="preserve" text-anchor="middle" x="1233.38" y="-83.25" font-family="Helvetica,sans-Serif" font-size="10.00">full_screen_shell</text>
</a>
</g>
</g>
<!-- Node11&#45;&gt;Node17 -->
<g id="edge19_Node000011_Node000017" class="edge">
<title>Node11&#45;&gt;Node17</title>
<g id="a_edge19_Node000011_Node000017"><a xlink:title=" ">
<path fill="none" stroke="#63b8ff" d="M1310.14,-126.65C1301.34,-121.3 1291.45,-115.45 1282.25,-110.38 1274.11,-105.88 1265.02,-101.24 1256.97,-97.25"/>
<polygon fill="#63b8ff" stroke="#63b8ff" points="1308.21,-129.57 1318.57,-131.83 1311.88,-123.61 1308.21,-129.57"/>
</a>
</g>
</g>
<!-- Node18 -->
<g id="Node000018" class="node">
<title>Node18</title>
<g id="a_Node000018"><a xlink:href="../../d2/dc8/a00242.html#a9c4b3ba5f73c18b486646c62b933972a" target="_top" xlink:title="Main Command Processing Loop for View.">
<polygon fill="white" stroke="#666666" points="1146.25,-192.75 1028.25,-192.75 1028.25,-172 1146.25,-172 1146.25,-192.75"/>
<text xml:space="preserve" text-anchor="middle" x="1087.25" y="-179.25" font-family="Helvetica,sans-Serif" font-size="10.00">view_cmd_processor</text>
</a>
</g>
</g>
<!-- Node11&#45;&gt;Node18 -->
<g id="edge36_Node000011_Node000018" class="edge">
<title>Node11&#45;&gt;Node18</title>
<g id="a_edge36_Node000011_Node000018"><a xlink:title=" ">
<path fill="none" stroke="#63b8ff" d="M1317.07,-161.51C1307.33,-169.22 1294.97,-177.35 1282.25,-181.38 1238.26,-195.3 1185.79,-194.6 1146.52,-190.95"/>
<polygon fill="#63b8ff" stroke="#63b8ff" points="1319.3,-164.21 1324.69,-155.08 1314.79,-158.86 1319.3,-164.21"/>
</a>
</g>
</g>
<!-- Node25 -->
<g id="Node000025" class="node">
<title>Node25</title>
<g id="a_Node000025"><a xlink:href="../../d2/dc8/a00242.html#a219efbc4d9d70ebc47fafa540b370247" target="_top" xlink:title="Send File to Print Queue.">
<polygon fill="white" stroke="#666666" points="1247.78,-172.75 1218.97,-172.75 1218.97,-152 1247.78,-152 1247.78,-172.75"/>
<text xml:space="preserve" text-anchor="middle" x="1233.38" y="-159.25" font-family="Helvetica,sans-Serif" font-size="10.00">lp</text>
</a>
</g>
</g>
<!-- Node11&#45;&gt;Node25 -->
<g id="edge34_Node000011_Node000025" class="edge">
<title>Node11&#45;&gt;Node25</title>
<g id="a_edge34_Node000011_Node000025"><a xlink:title=" ">
<path fill="none" stroke="#63b8ff" d="M1306.76,-148.96C1287.36,-152.55 1263.06,-157.06 1248.14,-159.82"/>
<polygon fill="#63b8ff" stroke="#63b8ff" points="1307.39,-152.4 1316.59,-147.14 1306.12,-145.52 1307.39,-152.4"/>
</a>
</g>
</g>
<!-- Node13 -->
<g id="Node000013" class="node">
<title>Node13</title>
<g id="a_Node000013"><a xlink:href="../../d6/de1/a00233.html#ada302551bf41bf8ed6132fd34328a47e" target="_top" xlink:title="Form main processing loop.">
<polygon fill="white" stroke="#666666" points="760.75,-134.75 683.25,-134.75 683.25,-114 760.75,-114 760.75,-134.75"/>
<text xml:space="preserve" text-anchor="middle" x="722" y="-121.25" font-family="Helvetica,sans-Serif" font-size="10.00">form_engine</text>
</a>
</g>
</g>
<!-- Node12&#45;&gt;Node13 -->
<g id="edge14_Node000012_Node000013" class="edge">
<title>Node12&#45;&gt;Node13</title>
<g id="a_edge14_Node000012_Node000013"><a xlink:title=" ">
<path fill="none" stroke="#63b8ff" d="M884.12,-124.38C845.18,-124.38 794.94,-124.38 761,-124.38"/>
<polygon fill="#63b8ff" stroke="#63b8ff" points="884.04,-127.88 894.04,-124.38 884.04,-120.88 884.04,-127.88"/>
</a>
</g>
</g>
<!-- Node14 -->
<g id="Node000014" class="node">
<title>Node14</title>
<g id="a_Node000014"><a xlink:href="../../d6/de1/a00233.html#abf1be20a8aad5f7ba09172ac1434a110" target="_top" xlink:title="Initialize form data structure and parse description file.">
<polygon fill="white" stroke="#666666" points="633,-134.75 572.75,-134.75 572.75,-114 633,-114 633,-134.75"/>
<text xml:space="preserve" text-anchor="middle" x="602.88" y="-121.25" font-family="Helvetica,sans-Serif" font-size="10.00">init_form</text>
</a>
</g>
</g>
<!-- Node13&#45;&gt;Node14 -->
<g id="edge15_Node000013_Node000014" class="edge">
<title>Node13&#45;&gt;Node14</title>
<g id="a_edge15_Node000013_Node000014"><a xlink:title=" ">
<path fill="none" stroke="#63b8ff" d="M671.69,-124.38C658.58,-124.38 644.84,-124.38 633.18,-124.38"/>
<polygon fill="#63b8ff" stroke="#63b8ff" points="671.46,-127.88 681.46,-124.38 671.46,-120.88 671.46,-127.88"/>
</a>
</g>
</g>
<!-- Node14&#45;&gt;Node6 -->
<g id="edge18_Node000014_Node000006" class="edge">
<title>Node14&#45;&gt;Node6</title>
<g id="a_edge18_Node000014_Node000006"><a xlink:title=" ">
<path fill="none" stroke="#63b8ff" d="M561.32,-111.08C553.25,-108.85 544.79,-106.8 536.75,-105.38 461.98,-92.09 374.45,-87.94 317.48,-86.73"/>
<polygon fill="#63b8ff" stroke="#63b8ff" points="560.34,-114.44 570.92,-113.88 562.29,-107.72 560.34,-114.44"/>
</a>
</g>
</g>
<!-- Node15 -->
<g id="Node000015" class="node">
<title>Node15</title>
<g id="a_Node000015"><a xlink:href="../../d2/dc8/a00242.html#a2ffea5674e85f124a70e19f745a66583" target="_top" xlink:title="use form to enter a file specification">
<polygon fill="white" stroke="#666666" points="536.75,-134.75 446.5,-134.75 446.5,-114 536.75,-114 536.75,-134.75"/>
<text xml:space="preserve" text-anchor="middle" x="491.62" y="-121.25" font-family="Helvetica,sans-Serif" font-size="10.00">enter_file_spec</text>
</a>
</g>
</g>
<!-- Node14&#45;&gt;Node15 -->
<g id="edge16_Node000014_Node000015" class="edge">
<title>Node14&#45;&gt;Node15</title>
<g id="a_edge16_Node000014_Node000015"><a xlink:title=" ">
<path fill="none" stroke="#63b8ff" d="M560.87,-124.38C553.08,-124.38 544.89,-124.38 536.99,-124.38"/>
<polygon fill="#63b8ff" stroke="#63b8ff" points="560.8,-127.88 570.8,-124.38 560.8,-120.88 560.8,-127.88"/>
</a>
</g>
</g>
<!-- Node16 -->
<g id="Node000016" class="node">
<title>Node16</title>
<g id="a_Node000016"><a xlink:href="../../d3/d5e/a00275.html#a3c04138a5bfe5d72780bb7e82a18e627" target="_top" xlink:title=" ">
<polygon fill="white" stroke="#666666" points="512,-173.75 471.25,-173.75 471.25,-153 512,-153 512,-173.75"/>
<text xml:space="preserve" text-anchor="middle" x="491.62" y="-160.25" font-family="Helvetica,sans-Serif" font-size="10.00">main</text>
</a>
</g>
</g>
<!-- Node14&#45;&gt;Node16 -->
<g id="edge17_Node000014_Node000016" class="edge">
<title>Node14&#45;&gt;Node16</title>
<g id="a_edge17_Node000014_Node000016"><a xlink:title=" ">
<path fill="none" stroke="#63b8ff" d="M561.59,-138.76C544.74,-144.77 525.93,-151.49 512.21,-156.38"/>
<polygon fill="#63b8ff" stroke="#63b8ff" points="562.64,-142.1 570.88,-135.44 560.29,-135.5 562.64,-142.1"/>
</a>
</g>
</g>
<!-- Node17&#45;&gt;Node6 -->
<g id="edge20_Node000017_Node000006" class="edge">
<title>Node17&#45;&gt;Node6</title>
<g id="a_edge20_Node000017_Node000006"><a xlink:title=" ">
<path fill="none" stroke="#63b8ff" d="M1172.99,-73.93C1114.9,-62.84 1023.77,-48.38 944,-48.38 944,-48.38 944,-48.38 490.62,-48.38 422.41,-48.38 344.43,-64.35 298.03,-75.59"/>
<polygon fill="#63b8ff" stroke="#63b8ff" points="1172.19,-77.33 1182.67,-75.8 1173.52,-70.46 1172.19,-77.33"/>
</a>
</g>
</g>
<!-- Node17&#45;&gt;Node18 -->
<g id="edge21_Node000017_Node000018" class="edge">
<title>Node17&#45;&gt;Node18</title>
<g id="a_edge21_Node000017_Node000018"><a xlink:title=" ">
<path fill="none" stroke="#63b8ff" d="M1206.82,-103.4C1177.13,-123.17 1129.05,-155.2 1104.22,-171.74"/>
<polygon fill="#63b8ff" stroke="#63b8ff" points="1208.48,-106.5 1214.86,-98.04 1204.6,-100.67 1208.48,-106.5"/>
</a>
</g>
</g>
<!-- Node19 -->
<g id="Node000019" class="node">
<title>Node19</title>
<g id="a_Node000019"><a xlink:href="../../d2/dc8/a00242.html#a0bd4dc056ab5010547129bb87819789b" target="_top" xlink:title="Start view.">
<polygon fill="white" stroke="#666666" points="973.12,-192.75 912.88,-192.75 912.88,-172 973.12,-172 973.12,-192.75"/>
<text xml:space="preserve" text-anchor="middle" x="943" y="-179.25" font-family="Helvetica,sans-Serif" font-size="10.00">view_file</text>
</a>
</g>
</g>
<!-- Node18&#45;&gt;Node19 -->
<g id="edge22_Node000018_Node000019" class="edge">
<title>Node18&#45;&gt;Node19</title>
<g id="a_edge22_Node000018_Node000019"><a xlink:title=" ">
<path fill="none" stroke="#63b8ff" d="M1016.91,-182.38C1001.63,-182.38 986.23,-182.38 973.55,-182.38"/>
<polygon fill="#63b8ff" stroke="#63b8ff" points="1016.47,-185.88 1026.47,-182.38 1016.47,-178.88 1016.47,-185.88"/>
</a>
</g>
</g>
<!-- Node20 -->
<g id="Node000020" class="node">
<title>Node20</title>
<g id="a_Node000020"><a xlink:href="../../d6/d22/a00245.html#a3c04138a5bfe5d72780bb7e82a18e627" target="_top" xlink:title=" ">
<polygon fill="white" stroke="#666666" points="742.38,-173.75 701.62,-173.75 701.62,-153 742.38,-153 742.38,-173.75"/>
<text xml:space="preserve" text-anchor="middle" x="722" y="-160.25" font-family="Helvetica,sans-Serif" font-size="10.00">main</text>
</a>
</g>
</g>
<!-- Node19&#45;&gt;Node20 -->
<g id="edge23_Node000019_Node000020" class="edge">
<title>Node19&#45;&gt;Node20</title>
<g id="a_edge23_Node000019_Node000020"><a xlink:title=" ">
<path fill="none" stroke="#63b8ff" d="M901.12,-178.83C853.93,-174.73 778.26,-168.17 742.69,-165.08"/>
<polygon fill="#63b8ff" stroke="#63b8ff" points="900.69,-182.3 910.96,-179.68 901.3,-175.33 900.69,-182.3"/>
</a>
</g>
</g>
<!-- Node21 -->
<g id="Node000021" class="node">
<title>Node21</title>
<g id="a_Node000021"><a xlink:href="../../d9/dd6/a00272.html#a75a4e7afc9c9aafd3d35ab706f5fdc71" target="_top" xlink:title="subprogram entry point for C&#45;Menu View">
<polygon fill="white" stroke="#666666" points="860,-211.75 811,-211.75 811,-191 860,-191 860,-211.75"/>
<text xml:space="preserve" text-anchor="middle" x="835.5" y="-198.25" font-family="Helvetica,sans-Serif" font-size="10.00">mview</text>
</a>
</g>
</g>
<!-- Node19&#45;&gt;Node21 -->
<g id="edge24_Node000019_Node000021" class="edge">
<title>Node19&#45;&gt;Node21</title>
<g id="a_edge24_Node000019_Node000021"><a xlink:title=" ">
<path fill="none" stroke="#63b8ff" d="M901.35,-189.7C887.51,-192.19 872.5,-194.89 860.4,-197.07"/>
<polygon fill="#63b8ff" stroke="#63b8ff" points="901.9,-193.15 911.12,-187.94 900.66,-186.26 901.9,-193.15"/>
</a>
</g>
</g>
<!-- Node21&#45;&gt;Node2 -->
<g id="edge28_Node000021_Node000002" class="edge">
<title>Node21&#45;&gt;Node2</title>
<g id="a_edge28_Node000021_Node000002"><a xlink:title=" ">
<path fill="none" stroke="#63b8ff" d="M826.2,-222.54C816.77,-244.09 799.45,-277.13 775,-297.38 770.6,-301.01 765.47,-304.04 760.18,-306.54"/>
<polygon fill="#63b8ff" stroke="#63b8ff" points="829.33,-224.15 829.94,-213.58 822.86,-221.46 829.33,-224.15"/>
</a>
</g>
</g>
<!-- Node21&#45;&gt;Node6 -->
<g id="edge31_Node000021_Node000006" class="edge">
<title>Node21&#45;&gt;Node6</title>
<g id="a_edge31_Node000021_Node000006"><a xlink:title=" ">
<path fill="none" stroke="#63b8ff" d="M799.36,-201.38C754.15,-201.38 673.16,-201.38 603.88,-201.38 603.88,-201.38 603.88,-201.38 490.62,-201.38 396.59,-201.38 301.13,-125.46 268.64,-96.99"/>
<polygon fill="#63b8ff" stroke="#63b8ff" points="799.08,-204.88 809.08,-201.38 799.08,-197.88 799.08,-204.88"/>
</a>
</g>
</g>
<!-- Node21&#45;&gt;Node13 -->
<g id="edge29_Node000021_Node000013" class="edge">
<title>Node21&#45;&gt;Node13</title>
<g id="a_edge29_Node000021_Node000013"><a xlink:title=" ">
<path fill="none" stroke="#63b8ff" d="M818.23,-182.27C807.07,-170.12 791.36,-154.76 775,-144.38 769.45,-140.85 763.17,-137.79 756.96,-135.19"/>
<polygon fill="#63b8ff" stroke="#63b8ff" points="815.55,-184.53 824.81,-189.68 820.79,-179.88 815.55,-184.53"/>
</a>
</g>
</g>
<!-- Node21&#45;&gt;Node20 -->
<g id="edge30_Node000021_Node000020" class="edge">
<title>Node21&#45;&gt;Node20</title>
<g id="a_edge30_Node000021_Node000020"><a xlink:title=" ">
<path fill="none" stroke="#63b8ff" d="M799.77,-189.54C781.02,-183.15 758.55,-175.49 742.79,-170.12"/>
<polygon fill="#63b8ff" stroke="#63b8ff" points="798.55,-192.82 809.15,-192.73 800.81,-186.2 798.55,-192.82"/>
</a>
</g>
</g>
<!-- Node22 -->
<g id="Node000022" class="node">
<title>Node22</title>
<g id="a_Node000022"><a xlink:href="../../d5/ddf/a00224.html#aeebc4c0b94ca97d753e10a0cd1798730" target="_top" xlink:title="Displays the help screen for the pick interface using mview.">
<polygon fill="white" stroke="#666666" points="773.5,-249.75 670.5,-249.75 670.5,-229 773.5,-229 773.5,-249.75"/>
<text xml:space="preserve" text-anchor="middle" x="722" y="-236.25" font-family="Helvetica,sans-Serif" font-size="10.00">display_pick_help</text>
</a>
</g>
</g>
<!-- Node21&#45;&gt;Node22 -->
<g id="edge25_Node000021_Node000022" class="edge">
<title>Node21&#45;&gt;Node22</title>
<g id="a_edge25_Node000021_Node000022"><a xlink:title=" ">
<path fill="none" stroke="#63b8ff" d="M800,-213.13C785.47,-218.08 768.69,-223.8 754.5,-228.64"/>
<polygon fill="#63b8ff" stroke="#63b8ff" points="800.81,-216.55 809.15,-210.02 798.55,-209.93 800.81,-216.55"/>
</a>
</g>
</g>
<!-- Node24 -->
<g id="Node000024" class="node">
<title>Node24</title>
<g id="a_Node000024"><a xlink:href="../../d2/dc8/a00242.html#ad997ba9f8591568c77291fb1b44601b2" target="_top" xlink:title="Display View Help File.">
<polygon fill="white" stroke="#666666" points="775,-288.75 669,-288.75 669,-268 775,-268 775,-288.75"/>
<text xml:space="preserve" text-anchor="middle" x="722" y="-275.25" font-family="Helvetica,sans-Serif" font-size="10.00">view_display_help</text>
</a>
</g>
</g>
<!-- Node21&#45;&gt;Node24 -->
<g id="edge32_Node000021_Node000024" class="edge">
<title>Node21&#45;&gt;Node24</title>
<g id="a_edge32_Node000021_Node000024"><a xlink:title=" ">
<path fill="none" stroke="#63b8ff" d="M818.23,-220.48C807.07,-232.63 791.36,-247.99 775,-258.38 769.45,-261.9 763.17,-264.96 756.96,-267.56"/>
<polygon fill="#63b8ff" stroke="#63b8ff" points="820.79,-222.87 824.81,-213.07 815.55,-218.22 820.79,-222.87"/>
</a>
</g>
</g>
<!-- Node23 -->
<g id="Node000023" class="node">
<title>Node23</title>
<g id="a_Node000023"><a xlink:href="../../d5/ddf/a00224.html#abb0969a6d1c7e78be46c3b325754c802" target="_top" xlink:title="Main loop to handle user input and interactions for pick interface.">
<polygon fill="white" stroke="#666666" points="625.5,-259.75 580.25,-259.75 580.25,-239 625.5,-239 625.5,-259.75"/>
<text xml:space="preserve" text-anchor="middle" x="602.88" y="-246.25" font-family="Helvetica,sans-Serif" font-size="10.00">picker</text>
</a>
</g>
</g>
<!-- Node22&#45;&gt;Node23 -->
<g id="edge26_Node000022_Node000023" class="edge">
<title>Node22&#45;&gt;Node23</title>
<g id="a_edge26_Node000022_Node000023"><a xlink:title=" ">
<path fill="none" stroke="#63b8ff" d="M658.92,-244.68C647.04,-245.69 635.35,-246.69 625.82,-247.5"/>
<polygon fill="#63b8ff" stroke="#63b8ff" points="659.13,-248.17 668.8,-243.83 658.54,-241.2 659.13,-248.17"/>
</a>
</g>
</g>
<!-- Node23&#45;&gt;Node3 -->
<g id="edge27_Node000023_Node000003" class="edge">
<title>Node23&#45;&gt;Node3</title>
<g id="a_edge27_Node000023_Node000003"><a xlink:title=" ">
<path fill="none" stroke="#63b8ff" d="M568.52,-255.18C556.13,-257.33 542,-259.79 529.33,-261.99"/>
<polygon fill="#63b8ff" stroke="#63b8ff" points="569.02,-258.64 578.28,-253.48 567.82,-251.74 569.02,-258.64"/>
</a>
</g>
</g>
<!-- Node24&#45;&gt;Node18 -->
<g id="edge33_Node000024_Node000018" class="edge">
<title>Node24&#45;&gt;Node18</title>
<g id="a_edge33_Node000024_Node000018"><a xlink:title=" ">
<path fill="none" stroke="#63b8ff" d="M774.83,-264.68C847.67,-245.43 978.84,-210.76 1045.29,-193.2"/>
<polygon fill="#63b8ff" stroke="#63b8ff" points="774.33,-261.19 765.56,-267.13 776.12,-267.96 774.33,-261.19"/>
</a>
</g>
</g>
<!-- Node25&#45;&gt;Node18 -->
<g id="edge35_Node000025_Node000018" class="edge">
<title>Node25&#45;&gt;Node18</title>
<g id="a_edge35_Node000025_Node000018"><a xlink:title=" ">
<path fill="none" stroke="#63b8ff" d="M1207.51,-165.83C1190.7,-168.16 1167.78,-171.34 1146.53,-174.29"/>
<polygon fill="#63b8ff" stroke="#63b8ff" points="1207.63,-169.34 1217.06,-164.5 1206.67,-162.41 1207.63,-169.34"/>
</a>
</g>
</g>
</g>
</svg>
