<?xml version="1.0" encoding="UTF-8" standalone="no"?>
<!DOCTYPE svg PUBLIC "-//W3C//DTD SVG 1.1//EN"
 "http://www.w3.org/Graphics/SVG/1.1/DTD/svg11.dtd">
<!-- Generated by graphviz version 14.1.2 (0)
 -->
<!-- Title: xterm256_idx_to_rgb Pages: 1 -->
<svg width="1919pt" height="437pt"
 viewBox="0.00 0.00 1919.00 437.00" xmlns="http://www.w3.org/2000/svg" xmlns:xlink="http://www.w3.org/1999/xlink">
<g id="graph0" class="graph" transform="scale(1 1) rotate(0) translate(4 432.86)">
<title>xterm256_idx_to_rgb</title>
<!-- Node1 -->
<g id="Node000001" class="node">
<title>Node1</title>
<g id="a_Node000001"><a xlink:title="Convert XTerm 256 color index to RGB color.">
<polygon fill="#999999" stroke="#666666" points="1911.25,-103.86 1791.75,-103.86 1791.75,-83.11 1911.25,-83.11 1911.25,-103.86"/>
<text xml:space="preserve" text-anchor="middle" x="1851.5" y="-90.36" font-family="Helvetica,sans-Serif" font-size="10.00">xterm256_idx_to_rgb</text>
</a>
</g>
</g>
<!-- Node2 -->
<g id="Node000002" class="node">
<title>Node2</title>
<g id="a_Node000002"><a xlink:href="../../dd/d52/a00221.html#a9fc984ba8ce6c4059b33a915d526357f" target="_top" xlink:title="Parse ANSI SGR Escape Sequence.">
<polygon fill="white" stroke="#666666" points="1755.75,-103.86 1669.25,-103.86 1669.25,-83.11 1755.75,-83.11 1755.75,-103.86"/>
<text xml:space="preserve" text-anchor="middle" x="1712.5" y="-90.36" font-family="Helvetica,sans-Serif" font-size="10.00">parse_ansi_str</text>
</a>
</g>
</g>
<!-- Node1&#45;&gt;Node2 -->
<g id="edge1_Node000001_Node000002" class="edge">
<title>Node1&#45;&gt;Node2</title>
<g id="a_edge1_Node000001_Node000002"><a xlink:title=" ">
<path fill="none" stroke="#63b8ff" d="M1780.1,-93.49C1771.95,-93.49 1763.83,-93.49 1756.21,-93.49"/>
<polygon fill="#63b8ff" stroke="#63b8ff" points="1780.09,-96.99 1790.09,-93.49 1780.09,-89.99 1780.09,-96.99"/>
</a>
</g>
</g>
<!-- Node3 -->
<g id="Node000003" class="node">
<title>Node3</title>
<g id="a_Node000003"><a xlink:href="../../dd/d52/a00221.html#a747411d59b020ad11d4567ab0b3db8c2" target="_top" xlink:title="Format Line for Display.">
<polygon fill="white" stroke="#666666" points="1633.25,-103.86 1576.75,-103.86 1576.75,-83.11 1633.25,-83.11 1633.25,-103.86"/>
<text xml:space="preserve" text-anchor="middle" x="1605" y="-90.36" font-family="Helvetica,sans-Serif" font-size="10.00">fmt_line</text>
</a>
</g>
</g>
<!-- Node2&#45;&gt;Node3 -->
<g id="edge2_Node000002_Node000003" class="edge">
<title>Node2&#45;&gt;Node3</title>
<g id="a_edge2_Node000002_Node000003"><a xlink:title=" ">
<path fill="none" stroke="#63b8ff" d="M1657.61,-93.49C1649.3,-93.49 1641.02,-93.49 1633.61,-93.49"/>
<polygon fill="#63b8ff" stroke="#63b8ff" points="1657.38,-96.99 1667.38,-93.49 1657.38,-89.99 1657.38,-96.99"/>
</a>
</g>
</g>
<!-- Node4 -->
<g id="Node000004" class="node">
<title>Node4</title>
<g id="a_Node000004"><a xlink:href="../../dd/d52/a00221.html#acf1bfbd6d2fd4ad9a0385009ef25015c" target="_top" xlink:title="Advance to Next Page.">
<polygon fill="white" stroke="#666666" points="1524.62,-275.86 1457.62,-275.86 1457.62,-255.11 1524.62,-255.11 1524.62,-275.86"/>
<text xml:space="preserve" text-anchor="middle" x="1491.12" y="-262.36" font-family="Helvetica,sans-Serif" font-size="10.00">next_page</text>
</a>
</g>
</g>
<!-- Node3&#45;&gt;Node4 -->
<g id="edge3_Node000003_Node000004" class="edge">
<title>Node3&#45;&gt;Node4</title>
<g id="a_edge3_Node000003_Node000004"><a xlink:title=" ">
<path fill="none" stroke="#63b8ff" d="M1590.73,-113.89C1566.85,-150.61 1517.4,-226.62 1499.12,-254.73"/>
<polygon fill="#63b8ff" stroke="#63b8ff" points="1593.66,-115.81 1596.18,-105.52 1587.79,-111.99 1593.66,-115.81"/>
</a>
</g>
</g>
<!-- Node29 -->
<g id="Node000029" class="node">
<title>Node29</title>
<g id="a_Node000029"><a xlink:href="../../dd/d52/a00221.html#a3559e8fbca0e5aa0df7e56cde3a504da" target="_top" xlink:title="Redisplay Current Page.">
<polygon fill="white" stroke="#666666" points="1405.5,-141.86 1315.25,-141.86 1315.25,-121.11 1405.5,-121.11 1405.5,-141.86"/>
<text xml:space="preserve" text-anchor="middle" x="1360.38" y="-128.36" font-family="Helvetica,sans-Serif" font-size="10.00">redisplay_page</text>
</a>
</g>
</g>
<!-- Node3&#45;&gt;Node29 -->
<g id="edge41_Node000003_Node000029" class="edge">
<title>Node3&#45;&gt;Node29</title>
<g id="a_edge41_Node000003_Node000029"><a xlink:title=" ">
<path fill="none" stroke="#63b8ff" d="M1565.32,-102.6C1557.23,-104.35 1548.73,-106.07 1540.75,-107.49 1494.96,-115.6 1442.17,-122.36 1405.77,-126.61"/>
<polygon fill="#63b8ff" stroke="#63b8ff" points="1565.91,-106.05 1574.91,-100.46 1564.39,-99.22 1565.91,-106.05"/>
</a>
</g>
</g>
<!-- Node30 -->
<g id="Node000030" class="node">
<title>Node30</title>
<g id="a_Node000030"><a xlink:href="../../dd/d52/a00221.html#aa79b8294ebf98c84d4a844fd7d9e4862" target="_top" xlink:title="Scroll N Lines.">
<polygon fill="white" stroke="#666666" points="1279.25,-103.86 1165.75,-103.86 1165.75,-83.11 1279.25,-83.11 1279.25,-103.86"/>
<text xml:space="preserve" text-anchor="middle" x="1222.5" y="-90.36" font-family="Helvetica,sans-Serif" font-size="10.00">scroll_down_n_lines</text>
</a>
</g>
</g>
<!-- Node3&#45;&gt;Node30 -->
<g id="edge43_Node000003_Node000030" class="edge">
<title>Node3&#45;&gt;Node30</title>
<g id="a_edge43_Node000003_Node000030"><a xlink:title=" ">
<path fill="none" stroke="#63b8ff" d="M1564.93,-93.49C1497.2,-93.49 1357.74,-93.49 1279.64,-93.49"/>
<polygon fill="#63b8ff" stroke="#63b8ff" points="1564.82,-96.99 1574.82,-93.49 1564.82,-89.99 1564.82,-96.99"/>
</a>
</g>
</g>
<!-- Node31 -->
<g id="Node000031" class="node">
<title>Node31</title>
<g id="a_Node000031"><a xlink:href="../../dd/d52/a00221.html#ab08fc8983cc3bdb21b438c82ece16346" target="_top" xlink:title="Scroll Up N Lines.">
<polygon fill="white" stroke="#666666" points="1540.75,-65.86 1441.5,-65.86 1441.5,-45.11 1540.75,-45.11 1540.75,-65.86"/>
<text xml:space="preserve" text-anchor="middle" x="1491.12" y="-52.36" font-family="Helvetica,sans-Serif" font-size="10.00">scroll_up_n_lines</text>
</a>
</g>
</g>
<!-- Node3&#45;&gt;Node31 -->
<g id="edge45_Node000003_Node000031" class="edge">
<title>Node3&#45;&gt;Node31</title>
<g id="a_edge45_Node000003_Node000031"><a xlink:title=" ">
<path fill="none" stroke="#63b8ff" d="M1565.79,-80.51C1552.12,-75.87 1536.87,-70.69 1523.81,-66.25"/>
<polygon fill="#63b8ff" stroke="#63b8ff" points="1564.32,-83.71 1574.91,-83.61 1566.57,-77.08 1564.32,-83.71"/>
</a>
</g>
</g>
<!-- Node32 -->
<g id="Node000032" class="node">
<title>Node32</title>
<g id="a_Node000032"><a xlink:href="../../dd/d52/a00221.html#a5f639aa1a1f03fa05888c724bc17d99c" target="_top" xlink:title="Search for Regular Expression Pattern.">
<polygon fill="white" stroke="#666666" points="1515.25,-26.86 1467,-26.86 1467,-6.11 1515.25,-6.11 1515.25,-26.86"/>
<text xml:space="preserve" text-anchor="middle" x="1491.12" y="-13.36" font-family="Helvetica,sans-Serif" font-size="10.00">search</text>
</a>
</g>
</g>
<!-- Node3&#45;&gt;Node32 -->
<g id="edge47_Node000003_Node000032" class="edge">
<title>Node3&#45;&gt;Node32</title>
<g id="a_edge47_Node000003_Node000032"><a xlink:title=" ">
<path fill="none" stroke="#63b8ff" d="M1586.76,-74.93C1574.75,-62.8 1557.86,-47.26 1540.75,-36.49 1533.03,-31.63 1523.92,-27.51 1515.68,-24.3"/>
<polygon fill="#63b8ff" stroke="#63b8ff" points="1584.07,-77.18 1593.53,-81.95 1589.11,-72.33 1584.07,-77.18"/>
</a>
</g>
</g>
<!-- Node5 -->
<g id="Node000005" class="node">
<title>Node5</title>
<g id="a_Node000005"><a xlink:href="../../dd/d52/a00221.html#ae6623cc4892a014fc9c40b3bca1db7d9" target="_top" xlink:title="Go to Percent of File.">
<polygon fill="white" stroke="#666666" points="1402.88,-295.86 1317.88,-295.86 1317.88,-275.11 1402.88,-275.11 1402.88,-295.86"/>
<text xml:space="preserve" text-anchor="middle" x="1360.38" y="-282.36" font-family="Helvetica,sans-Serif" font-size="10.00">go_to_percent</text>
</a>
</g>
</g>
<!-- Node4&#45;&gt;Node5 -->
<g id="edge4_Node000004_Node000005" class="edge">
<title>Node4&#45;&gt;Node5</title>
<g id="a_edge4_Node000004_Node000005"><a xlink:title=" ">
<path fill="none" stroke="#63b8ff" d="M1445.98,-272.34C1432.04,-274.51 1416.68,-276.9 1402.92,-279.03"/>
<polygon fill="#63b8ff" stroke="#63b8ff" points="1446.46,-275.81 1455.81,-270.82 1445.39,-268.9 1446.46,-275.81"/>
</a>
</g>
</g>
<!-- Node6 -->
<g id="Node000006" class="node">
<title>Node6</title>
<g id="a_Node000006"><a xlink:href="../../dd/d52/a00221.html#a9c4b3ba5f73c18b486646c62b933972a" target="_top" xlink:title="Main Command Processing Loop for View.">
<polygon fill="white" stroke="#666666" points="1129.75,-189.86 1011.75,-189.86 1011.75,-169.11 1129.75,-169.11 1129.75,-189.86"/>
<text xml:space="preserve" text-anchor="middle" x="1070.75" y="-176.36" font-family="Helvetica,sans-Serif" font-size="10.00">view_cmd_processor</text>
</a>
</g>
</g>
<!-- Node4&#45;&gt;Node6 -->
<g id="edge39_Node000004_Node000006" class="edge">
<title>Node4&#45;&gt;Node6</title>
<g id="a_edge39_Node000004_Node000006"><a xlink:title=" ">
<path fill="none" stroke="#63b8ff" d="M1462.97,-281.67C1446.87,-290.31 1425.72,-300.05 1405.5,-304.49 1301.27,-327.35 1260.42,-340.73 1165.75,-291.49 1120.93,-268.18 1088.99,-213.43 1076.99,-190.21"/>
<polygon fill="#63b8ff" stroke="#63b8ff" points="1464.4,-284.88 1471.44,-276.95 1461,-278.76 1464.4,-284.88"/>
</a>
</g>
</g>
<!-- Node7 -->
<g id="Node000007" class="node">
<title>Node7</title>
<g id="a_Node000007"><a xlink:href="../../dd/d52/a00221.html#a0bd4dc056ab5010547129bb87819789b" target="_top" xlink:title="Start view.">
<polygon fill="white" stroke="#666666" points="975.75,-356.86 915.5,-356.86 915.5,-336.11 975.75,-336.11 975.75,-356.86"/>
<text xml:space="preserve" text-anchor="middle" x="945.62" y="-343.36" font-family="Helvetica,sans-Serif" font-size="10.00">view_file</text>
</a>
</g>
</g>
<!-- Node4&#45;&gt;Node7 -->
<g id="edge40_Node000004_Node000007" class="edge">
<title>Node4&#45;&gt;Node7</title>
<g id="a_edge40_Node000004_Node000007"><a xlink:title=" ">
<path fill="none" stroke="#63b8ff" d="M1471.94,-283.87C1455.97,-298.68 1431.32,-318.45 1405.5,-327.49 1251.61,-381.38 1050.76,-361.3 976.18,-351.03"/>
<polygon fill="#63b8ff" stroke="#63b8ff" points="1473.98,-286.76 1478.77,-277.31 1469.14,-281.71 1473.98,-286.76"/>
</a>
</g>
</g>
<!-- Node24 -->
<g id="Node000024" class="node">
<title>Node24</title>
<g id="a_Node000024"><a xlink:href="../../dd/d52/a00221.html#a5f74dca8730faaa3ff362fc1e01b12ce" target="_top" xlink:title="Go to Specific File Position.">
<polygon fill="white" stroke="#666666" points="1404,-256.86 1316.75,-256.86 1316.75,-236.11 1404,-236.11 1404,-256.86"/>
<text xml:space="preserve" text-anchor="middle" x="1360.38" y="-243.36" font-family="Helvetica,sans-Serif" font-size="10.00">go_to_position</text>
</a>
</g>
</g>
<!-- Node4&#45;&gt;Node24 -->
<g id="edge30_Node000004_Node000024" class="edge">
<title>Node4&#45;&gt;Node24</title>
<g id="a_edge30_Node000004_Node000024"><a xlink:title=" ">
<path fill="none" stroke="#63b8ff" d="M1446.3,-259.02C1432.75,-257.02 1417.84,-254.82 1404.35,-252.83"/>
<polygon fill="#63b8ff" stroke="#63b8ff" points="1445.4,-262.43 1455.81,-260.42 1446.42,-255.5 1445.4,-262.43"/>
</a>
</g>
</g>
<!-- Node27 -->
<g id="Node000027" class="node">
<title>Node27</title>
<g id="a_Node000027"><a xlink:href="../../dd/d52/a00221.html#a5dbc34981815690a92812e34d1cf478f" target="_top" xlink:title="display previous page">
<polygon fill="white" stroke="#666666" points="1393.88,-217.86 1326.88,-217.86 1326.88,-197.11 1393.88,-197.11 1393.88,-217.86"/>
<text xml:space="preserve" text-anchor="middle" x="1360.38" y="-204.36" font-family="Helvetica,sans-Serif" font-size="10.00">prev_page</text>
</a>
</g>
</g>
<!-- Node4&#45;&gt;Node27 -->
<g id="edge35_Node000004_Node000027" class="edge">
<title>Node4&#45;&gt;Node27</title>
<g id="a_edge35_Node000004_Node000027"><a xlink:title=" ">
<path fill="none" stroke="#63b8ff" d="M1455.82,-250.04C1433.52,-239.99 1405,-227.14 1385.16,-218.2"/>
<polygon fill="#63b8ff" stroke="#63b8ff" points="1454.27,-253.18 1464.83,-254.09 1457.15,-246.79 1454.27,-253.18"/>
</a>
</g>
</g>
<!-- Node5&#45;&gt;Node6 -->
<g id="edge5_Node000005_Node000006" class="edge">
<title>Node5&#45;&gt;Node6</title>
<g id="a_edge5_Node000005_Node000006"><a xlink:title=" ">
<path fill="none" stroke="#63b8ff" d="M1305.93,-289.21C1265.68,-289.93 1210.06,-286.4 1165.75,-266.49 1127.01,-249.08 1093.75,-209.22 1079.36,-190.1"/>
<polygon fill="#63b8ff" stroke="#63b8ff" points="1305.97,-292.71 1315.86,-288.93 1305.77,-285.71 1305.97,-292.71"/>
</a>
</g>
</g>
<!-- Node6&#45;&gt;Node7 -->
<g id="edge6_Node000006_Node000007" class="edge">
<title>Node6&#45;&gt;Node7</title>
<g id="a_edge6_Node000006_Node000007"><a xlink:title=" ">
<path fill="none" stroke="#63b8ff" d="M1055.29,-199.1C1029.19,-234.51 974.99,-308.01 954.61,-335.66"/>
<polygon fill="#63b8ff" stroke="#63b8ff" points="1057.85,-201.53 1060.96,-191.41 1052.21,-197.38 1057.85,-201.53"/>
</a>
</g>
</g>
<!-- Node8 -->
<g id="Node000008" class="node">
<title>Node8</title>
<g id="a_Node000008"><a xlink:href="../../d5/ddf/a00224.html#a3c04138a5bfe5d72780bb7e82a18e627" target="_top" xlink:title=" ">
<polygon fill="white" stroke="#666666" points="761.88,-428.86 721.12,-428.86 721.12,-408.11 761.88,-408.11 761.88,-428.86"/>
<text xml:space="preserve" text-anchor="middle" x="741.5" y="-415.36" font-family="Helvetica,sans-Serif" font-size="10.00">main</text>
</a>
</g>
</g>
<!-- Node7&#45;&gt;Node8 -->
<g id="edge7_Node000007_Node000008" class="edge">
<title>Node7&#45;&gt;Node8</title>
<g id="a_edge7_Node000007_Node000008"><a xlink:title=" ">
<path fill="none" stroke="#63b8ff" d="M904.58,-360.75C861.56,-376.08 794.98,-399.79 762.16,-411.48"/>
<polygon fill="#63b8ff" stroke="#63b8ff" points="905.56,-364.12 913.81,-357.47 903.21,-357.52 905.56,-364.12"/>
</a>
</g>
</g>
<!-- Node9 -->
<g id="Node000009" class="node">
<title>Node9</title>
<g id="a_Node000009"><a xlink:href="../../d7/d03/a00254.html#a75a4e7afc9c9aafd3d35ab706f5fdc71" target="_top" xlink:title="subprogram entry point for C&#45;Menu View">
<polygon fill="white" stroke="#666666" points="879.5,-351.86 830.5,-351.86 830.5,-331.11 879.5,-331.11 879.5,-351.86"/>
<text xml:space="preserve" text-anchor="middle" x="855" y="-338.36" font-family="Helvetica,sans-Serif" font-size="10.00">mview</text>
</a>
</g>
</g>
<!-- Node7&#45;&gt;Node9 -->
<g id="edge8_Node000007_Node000009" class="edge">
<title>Node7&#45;&gt;Node9</title>
<g id="a_edge8_Node000007_Node000009"><a xlink:title=" ">
<path fill="none" stroke="#63b8ff" d="M903.74,-344.18C895.54,-343.72 887.17,-343.25 879.79,-342.83"/>
<polygon fill="#63b8ff" stroke="#63b8ff" points="903.42,-347.67 913.6,-344.74 903.82,-340.68 903.42,-347.67"/>
</a>
</g>
</g>
<!-- Node9&#45;&gt;Node8 -->
<g id="edge26_Node000009_Node000008" class="edge">
<title>Node9&#45;&gt;Node8</title>
<g id="a_edge26_Node000009_Node000008"><a xlink:title=" ">
<path fill="none" stroke="#63b8ff" d="M837.73,-360.59C826.57,-372.75 810.86,-388.1 794.5,-398.49 784.54,-404.81 772.26,-409.65 762.14,-412.98"/>
<polygon fill="#63b8ff" stroke="#63b8ff" points="840.29,-362.98 844.31,-353.18 835.05,-358.33 840.29,-362.98"/>
</a>
</g>
</g>
<!-- Node10 -->
<g id="Node000010" class="node">
<title>Node10</title>
<g id="a_Node000010"><a xlink:href="../../d0/d27/a00239.html#aeebc4c0b94ca97d753e10a0cd1798730" target="_top" xlink:title="Displays the help screen for the pick interface using mview.">
<polygon fill="white" stroke="#666666" points="793,-389.86 690,-389.86 690,-369.11 793,-369.11 793,-389.86"/>
<text xml:space="preserve" text-anchor="middle" x="741.5" y="-376.36" font-family="Helvetica,sans-Serif" font-size="10.00">display_pick_help</text>
</a>
</g>
</g>
<!-- Node9&#45;&gt;Node10 -->
<g id="edge9_Node000009_Node000010" class="edge">
<title>Node9&#45;&gt;Node10</title>
<g id="a_edge9_Node000009_Node000010"><a xlink:title=" ">
<path fill="none" stroke="#63b8ff" d="M819.5,-353.25C804.97,-358.2 788.19,-363.92 774,-368.75"/>
<polygon fill="#63b8ff" stroke="#63b8ff" points="820.31,-356.67 828.65,-350.13 818.05,-350.04 820.31,-356.67"/>
</a>
</g>
</g>
<!-- Node15 -->
<g id="Node000015" class="node">
<title>Node15</title>
<g id="a_Node000015"><a xlink:href="../../d9/d39/a00257.html#aa5d0e30e7036b72b51c843d0a7e486a1" target="_top" xlink:title="Processes user input for the menu system.">
<polygon fill="white" stroke="#666666" points="317.25,-312.86 194.75,-312.86 194.75,-292.11 317.25,-292.11 317.25,-312.86"/>
<text xml:space="preserve" text-anchor="middle" x="256" y="-299.36" font-family="Helvetica,sans-Serif" font-size="10.00">menu_cmd_processor</text>
</a>
</g>
</g>
<!-- Node9&#45;&gt;Node15 -->
<g id="edge27_Node000009_Node000015" class="edge">
<title>Node9&#45;&gt;Node15</title>
<g id="a_edge27_Node000009_Node000015"><a xlink:title=" ">
<path fill="none" stroke="#63b8ff" d="M819.37,-332.51C772.89,-321.28 687.63,-303.49 613.62,-303.49 613.62,-303.49 613.62,-303.49 490.62,-303.49 431.81,-303.49 364.67,-303.17 317.51,-302.89"/>
<polygon fill="#63b8ff" stroke="#63b8ff" points="818.3,-335.85 828.84,-334.85 819.97,-329.06 818.3,-335.85"/>
</a>
</g>
</g>
<!-- Node18 -->
<g id="Node000018" class="node">
<title>Node18</title>
<g id="a_Node000018"><a xlink:href="../../d0/d27/a00239.html#af7fcbb1c8b67a4d11c86ba7209f397c2" target="_top" xlink:title="Executes specified command with selected objects as arguments.">
<polygon fill="white" stroke="#666666" points="652.5,-351.86 572.75,-351.86 572.75,-331.11 652.5,-331.11 652.5,-351.86"/>
<text xml:space="preserve" text-anchor="middle" x="612.62" y="-338.36" font-family="Helvetica,sans-Serif" font-size="10.00">exec_objects</text>
</a>
</g>
</g>
<!-- Node9&#45;&gt;Node18 -->
<g id="edge18_Node000009_Node000018" class="edge">
<title>Node9&#45;&gt;Node18</title>
<g id="a_edge18_Node000009_Node000018"><a xlink:title=" ">
<path fill="none" stroke="#63b8ff" d="M818.75,-341.49C774.51,-341.49 698.9,-341.49 652.87,-341.49"/>
<polygon fill="#63b8ff" stroke="#63b8ff" points="818.56,-344.99 828.56,-341.49 818.56,-337.99 818.56,-344.99"/>
</a>
</g>
</g>
<!-- Node19 -->
<g id="Node000019" class="node">
<title>Node19</title>
<g id="a_Node000019"><a xlink:href="../../d2/d04/a00281.html#ada302551bf41bf8ed6132fd34328a47e" target="_top" xlink:title="Form main processing loop.">
<polygon fill="white" stroke="#666666" points="780.25,-256.86 702.75,-256.86 702.75,-236.11 780.25,-236.11 780.25,-256.86"/>
<text xml:space="preserve" text-anchor="middle" x="741.5" y="-243.36" font-family="Helvetica,sans-Serif" font-size="10.00">form_engine</text>
</a>
</g>
</g>
<!-- Node9&#45;&gt;Node19 -->
<g id="edge20_Node000009_Node000019" class="edge">
<title>Node9&#45;&gt;Node19</title>
<g id="a_edge20_Node000009_Node000019"><a xlink:title=" ">
<path fill="none" stroke="#63b8ff" d="M833.38,-323.22C821.98,-313.19 807.53,-300.57 794.5,-289.49 781.47,-278.41 766.39,-265.98 755.83,-257.35"/>
<polygon fill="#63b8ff" stroke="#63b8ff" points="830.83,-325.64 840.64,-329.63 835.46,-320.39 830.83,-325.64"/>
</a>
</g>
</g>
<!-- Node23 -->
<g id="Node000023" class="node">
<title>Node23</title>
<g id="a_Node000023"><a xlink:href="../../dd/d52/a00221.html#ad997ba9f8591568c77291fb1b44601b2" target="_top" xlink:title="Display View Help File.">
<polygon fill="white" stroke="#666666" points="794.5,-170.86 688.5,-170.86 688.5,-150.11 794.5,-150.11 794.5,-170.86"/>
<text xml:space="preserve" text-anchor="middle" x="741.5" y="-157.36" font-family="Helvetica,sans-Serif" font-size="10.00">view_display_help</text>
</a>
</g>
</g>
<!-- Node9&#45;&gt;Node23 -->
<g id="edge28_Node000009_Node000023" class="edge">
<title>Node9&#45;&gt;Node23</title>
<g id="a_edge28_Node000009_Node000023"><a xlink:title=" ">
<path fill="none" stroke="#63b8ff" d="M844.5,-320.63C833.56,-297.29 814.5,-258.65 794.5,-227.49 780.98,-206.42 762.49,-183.79 751.59,-170.96"/>
<polygon fill="#63b8ff" stroke="#63b8ff" points="841.18,-321.78 848.56,-329.39 847.53,-318.84 841.18,-321.78"/>
</a>
</g>
</g>
<!-- Node11 -->
<g id="Node000011" class="node">
<title>Node11</title>
<g id="a_Node000011"><a xlink:href="../../d0/d27/a00239.html#abb0969a6d1c7e78be46c3b325754c802" target="_top" xlink:title="Main loop to handle user input and interactions for pick interface.">
<polygon fill="white" stroke="#666666" points="635.25,-390.86 590,-390.86 590,-370.11 635.25,-370.11 635.25,-390.86"/>
<text xml:space="preserve" text-anchor="middle" x="612.62" y="-377.36" font-family="Helvetica,sans-Serif" font-size="10.00">picker</text>
</a>
</g>
</g>
<!-- Node10&#45;&gt;Node11 -->
<g id="edge10_Node000010_Node000011" class="edge">
<title>Node10&#45;&gt;Node11</title>
<g id="a_edge10_Node000010_Node000011"><a xlink:title=" ">
<path fill="none" stroke="#63b8ff" d="M678.52,-379.98C663.16,-380.1 647.69,-380.22 635.71,-380.31"/>
<polygon fill="#63b8ff" stroke="#63b8ff" points="678.14,-383.48 688.11,-379.9 678.09,-376.48 678.14,-383.48"/>
</a>
</g>
</g>
<!-- Node12 -->
<g id="Node000012" class="node">
<title>Node12</title>
<g id="a_Node000012"><a xlink:href="../../d0/d27/a00239.html#ab97dcab41017c5132f52b682437a151e" target="_top" xlink:title="Initializes pick interface, calculates window size and position, and enters picker loop.">
<polygon fill="white" stroke="#666666" points="528.88,-351.86 454.38,-351.86 454.38,-331.11 528.88,-331.11 528.88,-351.86"/>
<text xml:space="preserve" text-anchor="middle" x="491.62" y="-338.36" font-family="Helvetica,sans-Serif" font-size="10.00">pick_engine</text>
</a>
</g>
</g>
<!-- Node11&#45;&gt;Node12 -->
<g id="edge11_Node000011_Node000012" class="edge">
<title>Node11&#45;&gt;Node12</title>
<g id="a_edge11_Node000011_Node000012"><a xlink:title=" ">
<path fill="none" stroke="#63b8ff" d="M578.66,-369.69C562.05,-364.24 541.98,-357.66 525.4,-352.23"/>
<polygon fill="#63b8ff" stroke="#63b8ff" points="577.49,-372.98 588.08,-372.77 579.67,-366.33 577.49,-372.98"/>
</a>
</g>
</g>
<!-- Node13 -->
<g id="Node000013" class="node">
<title>Node13</title>
<g id="a_Node000013"><a xlink:href="../../d0/d27/a00239.html#a1b2ee87543245e612c1710ea58930a17" target="_top" xlink:title="Initializes pick structure and opens pick input file or pipe.">
<polygon fill="white" stroke="#666666" points="410.5,-351.86 353.25,-351.86 353.25,-331.11 410.5,-331.11 410.5,-351.86"/>
<text xml:space="preserve" text-anchor="middle" x="381.88" y="-338.36" font-family="Helvetica,sans-Serif" font-size="10.00">init_pick</text>
</a>
</g>
</g>
<!-- Node12&#45;&gt;Node13 -->
<g id="edge12_Node000012_Node000013" class="edge">
<title>Node12&#45;&gt;Node13</title>
<g id="a_edge12_Node000012_Node000013"><a xlink:title=" ">
<path fill="none" stroke="#63b8ff" d="M442.91,-341.49C431.93,-341.49 420.61,-341.49 410.8,-341.49"/>
<polygon fill="#63b8ff" stroke="#63b8ff" points="442.63,-344.99 452.63,-341.49 442.63,-337.99 442.63,-344.99"/>
</a>
</g>
</g>
<!-- Node14 -->
<g id="Node000014" class="node">
<title>Node14</title>
<g id="a_Node000014"><a xlink:href="../../d2/dc8/a00242.html#a3c04138a5bfe5d72780bb7e82a18e627" target="_top" xlink:title=" ">
<polygon fill="white" stroke="#666666" points="276.38,-351.86 235.62,-351.86 235.62,-331.11 276.38,-331.11 276.38,-351.86"/>
<text xml:space="preserve" text-anchor="middle" x="256" y="-338.36" font-family="Helvetica,sans-Serif" font-size="10.00">main</text>
</a>
</g>
</g>
<!-- Node13&#45;&gt;Node14 -->
<g id="edge13_Node000013_Node000014" class="edge">
<title>Node13&#45;&gt;Node14</title>
<g id="a_edge13_Node000013_Node000014"><a xlink:title=" ">
<path fill="none" stroke="#63b8ff" d="M341.27,-341.49C319.64,-341.49 293.83,-341.49 276.52,-341.49"/>
<polygon fill="#63b8ff" stroke="#63b8ff" points="341.25,-344.99 351.25,-341.49 341.25,-337.99 341.25,-344.99"/>
</a>
</g>
</g>
<!-- Node13&#45;&gt;Node15 -->
<g id="edge14_Node000013_Node000015" class="edge">
<title>Node13&#45;&gt;Node15</title>
<g id="a_edge14_Node000013_Node000015"><a xlink:title=" ">
<path fill="none" stroke="#63b8ff" d="M341.96,-329.24C325.67,-324.11 306.92,-318.2 291.18,-313.25"/>
<polygon fill="#63b8ff" stroke="#63b8ff" points="340.73,-332.52 351.32,-332.18 342.83,-325.84 340.73,-332.52"/>
</a>
</g>
</g>
<!-- Node16 -->
<g id="Node000016" class="node">
<title>Node16</title>
<g id="a_Node000016"><a xlink:href="../../d9/d39/a00257.html#a7d7973d7aac92759dcc86ec52bb038f4" target="_top" xlink:title="The main loop of the menu system.">
<polygon fill="white" stroke="#666666" points="158.75,-312.86 76.75,-312.86 76.75,-292.11 158.75,-292.11 158.75,-312.86"/>
<text xml:space="preserve" text-anchor="middle" x="117.75" y="-299.36" font-family="Helvetica,sans-Serif" font-size="10.00">menu_engine</text>
</a>
</g>
</g>
<!-- Node15&#45;&gt;Node16 -->
<g id="edge15_Node000015_Node000016" class="edge">
<title>Node15&#45;&gt;Node16</title>
<g id="a_edge15_Node000015_Node000016"><a xlink:title=" ">
<path fill="none" stroke="#63b8ff" d="M183.2,-295.75C174.96,-295.79 166.79,-295.96 159.17,-296.26"/>
<polygon fill="#63b8ff" stroke="#63b8ff" points="182.92,-299.25 192.93,-295.77 182.94,-292.25 182.92,-299.25"/>
</a>
</g>
</g>
<!-- Node16&#45;&gt;Node15 -->
<g id="edge17_Node000016_Node000015" class="edge">
<title>Node16&#45;&gt;Node15</title>
<g id="a_edge17_Node000016_Node000015"><a xlink:title=" ">
<path fill="none" stroke="#63b8ff" d="M170.68,-309.07C178.45,-309.23 186.52,-309.28 194.45,-309.2"/>
<polygon fill="#63b8ff" stroke="#63b8ff" points="170.79,-305.57 160.69,-308.76 170.58,-312.56 170.79,-305.57"/>
</a>
</g>
</g>
<!-- Node17 -->
<g id="Node000017" class="node">
<title>Node17</title>
<g id="a_Node000017"><a xlink:href="../../dd/dd7/a00260.html#a3c04138a5bfe5d72780bb7e82a18e627" target="_top" xlink:title=" ">
<polygon fill="white" stroke="#666666" points="40.75,-312.86 0,-312.86 0,-292.11 40.75,-292.11 40.75,-312.86"/>
<text xml:space="preserve" text-anchor="middle" x="20.38" y="-299.36" font-family="Helvetica,sans-Serif" font-size="10.00">main</text>
</a>
</g>
</g>
<!-- Node16&#45;&gt;Node17 -->
<g id="edge16_Node000016_Node000017" class="edge">
<title>Node16&#45;&gt;Node17</title>
<g id="a_edge16_Node000016_Node000017"><a xlink:title=" ">
<path fill="none" stroke="#63b8ff" d="M64.79,-302.49C56.36,-302.49 48.1,-302.49 41.09,-302.49"/>
<polygon fill="#63b8ff" stroke="#63b8ff" points="64.79,-305.99 74.79,-302.49 64.79,-298.99 64.79,-305.99"/>
</a>
</g>
</g>
<!-- Node18&#45;&gt;Node12 -->
<g id="edge19_Node000018_Node000012" class="edge">
<title>Node18&#45;&gt;Node12</title>
<g id="a_edge19_Node000018_Node000012"><a xlink:title=" ">
<path fill="none" stroke="#63b8ff" d="M560.93,-341.49C550.22,-341.49 539.12,-341.49 529.06,-341.49"/>
<polygon fill="#63b8ff" stroke="#63b8ff" points="560.82,-344.99 570.82,-341.49 560.82,-337.99 560.82,-344.99"/>
</a>
</g>
</g>
<!-- Node20 -->
<g id="Node000020" class="node">
<title>Node20</title>
<g id="a_Node000020"><a xlink:href="../../d2/d04/a00281.html#abf1be20a8aad5f7ba09172ac1434a110" target="_top" xlink:title="Initialize form data structure and parse description file.">
<polygon fill="white" stroke="#666666" points="642.75,-246.86 582.5,-246.86 582.5,-226.11 642.75,-226.11 642.75,-246.86"/>
<text xml:space="preserve" text-anchor="middle" x="612.62" y="-233.36" font-family="Helvetica,sans-Serif" font-size="10.00">init_form</text>
</a>
</g>
</g>
<!-- Node19&#45;&gt;Node20 -->
<g id="edge21_Node000019_Node000020" class="edge">
<title>Node19&#45;&gt;Node20</title>
<g id="a_edge21_Node000019_Node000020"><a xlink:title=" ">
<path fill="none" stroke="#63b8ff" d="M690.96,-242.58C674.81,-241.31 657.4,-239.94 643.2,-238.82"/>
<polygon fill="#63b8ff" stroke="#63b8ff" points="690.68,-246.07 700.92,-243.37 691.23,-239.09 690.68,-246.07"/>
</a>
</g>
</g>
<!-- Node20&#45;&gt;Node15 -->
<g id="edge25_Node000020_Node000015" class="edge">
<title>Node20&#45;&gt;Node15</title>
<g id="a_edge25_Node000020_Node000015"><a xlink:title=" ">
<path fill="none" stroke="#63b8ff" d="M571.3,-243.99C508.63,-255.66 387.54,-278.19 315.34,-291.63"/>
<polygon fill="#63b8ff" stroke="#63b8ff" points="571.62,-247.49 580.81,-242.22 570.34,-240.61 571.62,-247.49"/>
</a>
</g>
</g>
<!-- Node21 -->
<g id="Node000021" class="node">
<title>Node21</title>
<g id="a_Node000021"><a xlink:href="../../dd/d52/a00221.html#a2ffea5674e85f124a70e19f745a66583" target="_top" xlink:title="use form to enter a file specification">
<polygon fill="white" stroke="#666666" points="536.75,-198.86 446.5,-198.86 446.5,-178.11 536.75,-178.11 536.75,-198.86"/>
<text xml:space="preserve" text-anchor="middle" x="491.62" y="-185.36" font-family="Helvetica,sans-Serif" font-size="10.00">enter_file_spec</text>
</a>
</g>
</g>
<!-- Node20&#45;&gt;Node21 -->
<g id="edge22_Node000020_Node000021" class="edge">
<title>Node20&#45;&gt;Node21</title>
<g id="a_edge22_Node000020_Node000021"><a xlink:title=" ">
<path fill="none" stroke="#63b8ff" d="M574.27,-221.42C556.42,-214.22 535.45,-205.76 519.24,-199.22"/>
<polygon fill="#63b8ff" stroke="#63b8ff" points="572.93,-224.65 583.52,-225.15 575.55,-218.16 572.93,-224.65"/>
</a>
</g>
</g>
<!-- Node22 -->
<g id="Node000022" class="node">
<title>Node22</title>
<g id="a_Node000022"><a xlink:href="../../db/dc3/a00284.html#a3c04138a5bfe5d72780bb7e82a18e627" target="_top" xlink:title=" ">
<polygon fill="white" stroke="#666666" points="512,-237.86 471.25,-237.86 471.25,-217.11 512,-217.11 512,-237.86"/>
<text xml:space="preserve" text-anchor="middle" x="491.62" y="-224.36" font-family="Helvetica,sans-Serif" font-size="10.00">main</text>
</a>
</g>
</g>
<!-- Node20&#45;&gt;Node22 -->
<g id="edge24_Node000020_Node000022" class="edge">
<title>Node20&#45;&gt;Node22</title>
<g id="a_edge24_Node000020_Node000022"><a xlink:title=" ">
<path fill="none" stroke="#63b8ff" d="M570.99,-233.42C551.2,-231.92 528.31,-230.19 512.4,-228.98"/>
<polygon fill="#63b8ff" stroke="#63b8ff" points="570.46,-236.88 580.7,-234.15 570.99,-229.9 570.46,-236.88"/>
</a>
</g>
</g>
<!-- Node21&#45;&gt;Node6 -->
<g id="edge23_Node000021_Node000006" class="edge">
<title>Node21&#45;&gt;Node6</title>
<g id="a_edge23_Node000021_Node000006"><a xlink:title=" ">
<path fill="none" stroke="#63b8ff" d="M548.18,-192.01C598.4,-194.89 674.37,-198.49 740.5,-198.49 856,-198.49 856,-198.49 856,-198.49 908.72,-198.49 968.46,-192.68 1011.36,-187.49"/>
<polygon fill="#63b8ff" stroke="#63b8ff" points="548.63,-188.53 538.44,-191.44 548.22,-195.52 548.63,-188.53"/>
</a>
</g>
</g>
<!-- Node23&#45;&gt;Node6 -->
<g id="edge29_Node000023_Node000006" class="edge">
<title>Node23&#45;&gt;Node6</title>
<g id="a_edge29_Node000023_Node000006"><a xlink:title=" ">
<path fill="none" stroke="#63b8ff" d="M806.1,-164.18C865.66,-167.64 953.9,-172.76 1011.62,-176.11"/>
<polygon fill="#63b8ff" stroke="#63b8ff" points="806.65,-160.71 796.47,-163.62 806.25,-167.7 806.65,-160.71"/>
</a>
</g>
</g>
<!-- Node25 -->
<g id="Node000025" class="node">
<title>Node25</title>
<g id="a_Node000025"><a xlink:href="../../dd/d52/a00221.html#ac81796e830049e74987a6b526cfc296f" target="_top" xlink:title="Go to Specific Line.">
<polygon fill="white" stroke="#666666" points="1255.62,-218.86 1189.38,-218.86 1189.38,-198.11 1255.62,-198.11 1255.62,-218.86"/>
<text xml:space="preserve" text-anchor="middle" x="1222.5" y="-205.36" font-family="Helvetica,sans-Serif" font-size="10.00">go_to_line</text>
</a>
</g>
</g>
<!-- Node24&#45;&gt;Node25 -->
<g id="edge31_Node000024_Node000025" class="edge">
<title>Node24&#45;&gt;Node25</title>
<g id="a_edge31_Node000024_Node000025"><a xlink:title=" ">
<path fill="none" stroke="#63b8ff" d="M1309.86,-232.64C1291.82,-227.59 1271.9,-222.02 1255.74,-217.5"/>
<polygon fill="#63b8ff" stroke="#63b8ff" points="1308.77,-235.97 1319.34,-235.29 1310.66,-229.23 1308.77,-235.97"/>
</a>
</g>
</g>
<!-- Node26 -->
<g id="Node000026" class="node">
<title>Node26</title>
<g id="a_Node000026"><a xlink:href="../../dd/d52/a00221.html#ada77a15a548ce444426d43fd39a1cce4" target="_top" xlink:title="Go to Mark.">
<polygon fill="white" stroke="#666666" points="1259.38,-257.86 1185.62,-257.86 1185.62,-237.11 1259.38,-237.11 1259.38,-257.86"/>
<text xml:space="preserve" text-anchor="middle" x="1222.5" y="-244.36" font-family="Helvetica,sans-Serif" font-size="10.00">go_to_mark</text>
</a>
</g>
</g>
<!-- Node24&#45;&gt;Node26 -->
<g id="edge33_Node000024_Node000026" class="edge">
<title>Node24&#45;&gt;Node26</title>
<g id="a_edge33_Node000024_Node000026"><a xlink:title=" ">
<path fill="none" stroke="#63b8ff" d="M1305.01,-246.89C1289.82,-247 1273.69,-247.12 1259.82,-247.22"/>
<polygon fill="#63b8ff" stroke="#63b8ff" points="1304.9,-250.39 1314.87,-246.82 1304.84,-243.39 1304.9,-250.39"/>
</a>
</g>
</g>
<!-- Node25&#45;&gt;Node6 -->
<g id="edge32_Node000025_Node000006" class="edge">
<title>Node25&#45;&gt;Node6</title>
<g id="a_edge32_Node000025_Node000006"><a xlink:title=" ">
<path fill="none" stroke="#63b8ff" d="M1178.02,-200.07C1162.32,-197.03 1144.37,-193.55 1127.75,-190.33"/>
<polygon fill="#63b8ff" stroke="#63b8ff" points="1177.04,-203.44 1187.52,-201.91 1178.37,-196.57 1177.04,-203.44"/>
</a>
</g>
</g>
<!-- Node26&#45;&gt;Node6 -->
<g id="edge34_Node000026_Node000006" class="edge">
<title>Node26&#45;&gt;Node6</title>
<g id="a_edge34_Node000026_Node000006"><a xlink:title=" ">
<path fill="none" stroke="#63b8ff" d="M1178.43,-232.66C1174.12,-230.99 1169.83,-229.25 1165.75,-227.49 1139.35,-216.07 1109.97,-200.6 1091.2,-190.35"/>
<polygon fill="#63b8ff" stroke="#63b8ff" points="1177.08,-235.89 1187.68,-236.12 1179.54,-229.34 1177.08,-235.89"/>
</a>
</g>
</g>
<!-- Node27&#45;&gt;Node25 -->
<g id="edge38_Node000027_Node000025" class="edge">
<title>Node27&#45;&gt;Node25</title>
<g id="a_edge38_Node000027_Node000025"><a xlink:title=" ">
<path fill="none" stroke="#63b8ff" d="M1315.24,-207.81C1295.99,-207.95 1273.81,-208.12 1256.09,-208.25"/>
<polygon fill="#63b8ff" stroke="#63b8ff" points="1315,-211.31 1324.97,-207.74 1314.94,-204.32 1315,-211.31"/>
</a>
</g>
</g>
<!-- Node28 -->
<g id="Node000028" class="node">
<title>Node28</title>
<g id="a_Node000028"><a xlink:href="../../dd/d52/a00221.html#a46145f1d3680a48cb9391a8ae95db9ad" target="_top" xlink:title="Go to End of File.">
<polygon fill="white" stroke="#666666" points="1254.5,-179.86 1190.5,-179.86 1190.5,-159.11 1254.5,-159.11 1254.5,-179.86"/>
<text xml:space="preserve" text-anchor="middle" x="1222.5" y="-166.36" font-family="Helvetica,sans-Serif" font-size="10.00">go_to_eof</text>
</a>
</g>
</g>
<!-- Node27&#45;&gt;Node28 -->
<g id="edge36_Node000027_Node000028" class="edge">
<title>Node27&#45;&gt;Node28</title>
<g id="a_edge36_Node000027_Node000028"><a xlink:title=" ">
<path fill="none" stroke="#63b8ff" d="M1315.54,-195.23C1295.71,-189.68 1272.73,-183.25 1254.69,-178.21"/>
<polygon fill="#63b8ff" stroke="#63b8ff" points="1314.45,-198.56 1325.03,-197.88 1316.34,-191.82 1314.45,-198.56"/>
</a>
</g>
</g>
<!-- Node28&#45;&gt;Node6 -->
<g id="edge37_Node000028_Node000006" class="edge">
<title>Node28&#45;&gt;Node6</title>
<g id="a_edge37_Node000028_Node000006"><a xlink:title=" ">
<path fill="none" stroke="#63b8ff" d="M1178.96,-172.33C1163.75,-173.34 1146.33,-174.51 1130.02,-175.6"/>
<polygon fill="#63b8ff" stroke="#63b8ff" points="1178.85,-175.84 1188.6,-171.69 1178.39,-168.86 1178.85,-175.84"/>
</a>
</g>
</g>
<!-- Node29&#45;&gt;Node6 -->
<g id="edge42_Node000029_Node000006" class="edge">
<title>Node29&#45;&gt;Node6</title>
<g id="a_edge42_Node000029_Node000006"><a xlink:title=" ">
<path fill="none" stroke="#63b8ff" d="M1303.43,-133.99C1264.52,-136.46 1211.61,-141.26 1165.75,-150.49 1143.82,-154.9 1119.72,-162.39 1101.41,-168.65"/>
<polygon fill="#63b8ff" stroke="#63b8ff" points="1303.5,-137.49 1313.27,-133.4 1303.08,-130.51 1303.5,-137.49"/>
</a>
</g>
</g>
<!-- Node30&#45;&gt;Node6 -->
<g id="edge44_Node000030_Node000006" class="edge">
<title>Node30&#45;&gt;Node6</title>
<g id="a_edge44_Node000030_Node000006"><a xlink:title=" ">
<path fill="none" stroke="#63b8ff" d="M1183.29,-108.87C1177.33,-111.57 1171.31,-114.49 1165.75,-117.49 1136.33,-133.36 1104.27,-155.69 1086.23,-168.77"/>
<polygon fill="#63b8ff" stroke="#63b8ff" points="1184.68,-112.08 1192.44,-104.87 1181.87,-105.67 1184.68,-112.08"/>
</a>
</g>
</g>
<!-- Node31&#45;&gt;Node6 -->
<g id="edge46_Node000031_Node000006" class="edge">
<title>Node31&#45;&gt;Node6</title>
<g id="a_edge46_Node000031_Node000006"><a xlink:title=" ">
<path fill="none" stroke="#63b8ff" d="M1429.77,-45.85C1361.94,-37.9 1250.28,-33.7 1165.75,-74.49 1122.34,-95.43 1090.08,-146.32 1077.51,-168.66"/>
<polygon fill="#63b8ff" stroke="#63b8ff" points="1429.23,-49.31 1439.59,-47.07 1430.1,-42.36 1429.23,-49.31"/>
</a>
</g>
</g>
<!-- Node32&#45;&gt;Node6 -->
<g id="edge48_Node000032_Node000006" class="edge">
<title>Node32&#45;&gt;Node6</title>
<g id="a_edge48_Node000032_Node000006"><a xlink:title=" ">
<path fill="none" stroke="#63b8ff" d="M1455.31,-9.77C1392.64,0.43 1258.71,13.36 1165.75,-40.49 1114.07,-70.42 1084.88,-141.55 1075.3,-168.7"/>
<polygon fill="#63b8ff" stroke="#63b8ff" points="1454.57,-13.19 1465.02,-11.43 1455.75,-6.29 1454.57,-13.19"/>
</a>
</g>
</g>
</g>
</svg>
