<?xml version="1.0" encoding="UTF-8" standalone="no"?>
<!DOCTYPE svg PUBLIC "-//W3C//DTD SVG 1.1//EN"
 "http://www.w3.org/Graphics/SVG/1.1/DTD/svg11.dtd">
<!-- Generated by graphviz version 14.1.2 (0)
 -->
<!-- Title: restore_wins Pages: 1 -->
<!--zoomable 502 -->

<svg id="main" version="1.1" xmlns="http://www.w3.org/2000/svg" xmlns:xlink="http://www.w3.org/1999/xlink" xml:space="preserve" onload="init(evt)">

<style type="text/css"><![CDATA[
.node, .edge {opacity: 0.7;}
.node.selected, .edge.selected {opacity: 1;}
.edge:hover path { stroke: red; }
.edge:hover polygon { stroke: red; fill: red; }
]]></style>

<defs>
  <circle id="rim" cx="0" cy="0" r="7"/>
  <circle id="rim2" cx="0" cy="0" r="3.5"/>
  <g id="zoomPlus">
    <use xlink:href="#rim" fill="#404040"><set attributeName="fill" to="#808080" begin="zoomplus.mouseover" end="zoomplus.mouseout"/></use>
    <path d="M-4,0h8M0,-4v8" fill="none" stroke="white" stroke-width="1.5" pointer-events="none"/>
  </g>
  <g id="zoomMin">
    <use xlink:href="#rim" fill="#404040"><set attributeName="fill" to="#808080" begin="zoomminus.mouseover" end="zoomminus.mouseout"/></use>
    <path d="M-4,0h8" fill="none" stroke="white" stroke-width="1.5" pointer-events="none"/>
  </g>
  <g id="arrowUp" transform="translate(30 24)">
    <use xlink:href="#rim"/>
    <path pointer-events="none" fill="none" stroke="white" stroke-width="1.5" d="M0,-3.0v7 M-2.5,-0.5L0,-3.0L2.5,-0.5"/>
  </g>
  <g id="arrowRight" transform="rotate(90) translate(36 -43)">
    <use xlink:href="#rim"/>
    <path pointer-events="none" fill="none" stroke="white" stroke-width="1.5" d="M0,-3.0v7 M-2.5,-0.5L0,-3.0L2.5,-0.5"/>
  </g>
  <g id="arrowDown" transform="rotate(180) translate(-30 -48)">
    <use xlink:href="#rim"/>
    <path pointer-events="none" fill="none" stroke="white" stroke-width="1.5" d="M0,-3.0v7 M-2.5,-0.5L0,-3.0L2.5,-0.5"/>
  </g>
  <g id="arrowLeft" transform="rotate(270) translate(-36 17)">
    <use xlink:href="#rim"/>
    <path pointer-events="none" fill="none" stroke="white" stroke-width="1.5" d="M0,-3.0v7 M-2.5,-0.5L0,-3.0L2.5,-0.5"/>
  </g>
  <g id="resetDef">
    <use xlink:href="#rim2" fill="#404040"><set attributeName="fill" to="#808080" begin="reset.mouseover" end="reset.mouseout"/></use>
  </g>
</defs>
<script type="application/ecmascript">
var viewWidth = 1964;
var viewHeight = 502;
var sectionId = 'dynsection-32';
</script>
<script type="application/ecmascript" xlink:href="../../svg.min.js"/>
<svg id="graph" class="graph">
<g id="viewport">
<title>restore_wins</title>
<!-- Node1 -->
<g id="Node000001" class="node">
<title>Node1</title>
<g id="a_Node000001"><a xlink:title="Restore all windows after a screen resize.">
<polygon fill="#999999" stroke="#666666" points="1955.75,-341.5 1877.5,-341.5 1877.5,-320.75 1955.75,-320.75 1955.75,-341.5"/>
<text xml:space="preserve" text-anchor="middle" x="1916.62" y="-328" font-family="Helvetica,sans-Serif" font-size="10.00">restore_wins</text>
</a>
</g>
</g>
<!-- Node2 -->
<g id="Node000002" class="node">
<title>Node2</title>
<g id="a_Node000002"><a xlink:href="../../d0/d27/a00239.html#af7fcbb1c8b67a4d11c86ba7209f397c2" target="_top" xlink:title="Executes specified command with selected objects as arguments.">
<polygon fill="white" stroke="#666666" points="731.12,-275.5 651.38,-275.5 651.38,-254.75 731.12,-254.75 731.12,-275.5"/>
<text xml:space="preserve" text-anchor="middle" x="691.25" y="-262" font-family="Helvetica,sans-Serif" font-size="10.00">exec_objects</text>
</a>
</g>
</g>
<!-- Node1&#45;&gt;Node2 -->
<g id="edge1_Node000001_Node000002" class="edge">
<title>Node1&#45;&gt;Node2</title>
<g id="a_edge1_Node000001_Node000002"><a xlink:title=" ">
<path fill="none" stroke="#63b8ff" d="M1889.3,-347.74C1847.11,-372.74 1760.96,-417.13 1681.25,-417.13 1681.25,-417.13 1681.25,-417.13 1159.62,-417.13 976.6,-417.13 772.16,-310.41 710.69,-275.82"/>
<polygon fill="#63b8ff" stroke="#63b8ff" points="1891.01,-350.8 1897.76,-342.63 1887.39,-344.81 1891.01,-350.8"/>
</a>
</g>
</g>
<!-- Node6 -->
<g id="Node000006" class="node">
<title>Node6</title>
<g id="a_Node000006"><a xlink:href="../../d9/d39/a00257.html#aa5d0e30e7036b72b51c843d0a7e486a1" target="_top" xlink:title="Processes user input for the menu system.">
<polygon fill="white" stroke="#666666" points="317.25,-370.5 194.75,-370.5 194.75,-349.75 317.25,-349.75 317.25,-370.5"/>
<text xml:space="preserve" text-anchor="middle" x="256" y="-357" font-family="Helvetica,sans-Serif" font-size="10.00">menu_cmd_processor</text>
</a>
</g>
</g>
<!-- Node1&#45;&gt;Node6 -->
<g id="edge41_Node000001_Node000006" class="edge">
<title>Node1&#45;&gt;Node6</title>
<g id="a_edge41_Node000001_Node000006"><a xlink:title=" ">
<path fill="none" stroke="#63b8ff" d="M1908.91,-352.5C1898.91,-380.74 1877.32,-429.94 1841.5,-456.13 1782.49,-499.26 1754.35,-493.13 1681.25,-493.13 1681.25,-493.13 1681.25,-493.13 482.75,-493.13 386.31,-493.13 294.78,-401.92 266.17,-370.56"/>
<polygon fill="#63b8ff" stroke="#63b8ff" points="1912.16,-353.84 1912.02,-343.25 1905.52,-351.62 1912.16,-353.84"/>
</a>
</g>
</g>
<!-- Node9 -->
<g id="Node000009" class="node">
<title>Node9</title>
<g id="a_Node000009"><a xlink:href="../../de/d25/a00290.html#a386fad82c5208c7d3b2a5060882974f3" target="_top" xlink:title="Fork and exec a command.">
<polygon fill="white" stroke="#666666" points="1841.5,-360.5 1777.5,-360.5 1777.5,-339.75 1841.5,-339.75 1841.5,-360.5"/>
<text xml:space="preserve" text-anchor="middle" x="1809.5" y="-347" font-family="Helvetica,sans-Serif" font-size="10.00">fork_exec</text>
</a>
</g>
</g>
<!-- Node1&#45;&gt;Node9 -->
<g id="edge9_Node000001_Node000009" class="edge">
<title>Node1&#45;&gt;Node9</title>
<g id="a_edge9_Node000001_Node000009"><a xlink:title=" ">
<path fill="none" stroke="#63b8ff" d="M1865.99,-340.1C1857.76,-341.59 1849.43,-343.09 1841.82,-344.47"/>
<polygon fill="#63b8ff" stroke="#63b8ff" points="1866.37,-343.59 1875.59,-338.36 1865.12,-336.7 1866.37,-343.59"/>
</a>
</g>
</g>
<!-- Node10 -->
<g id="Node000010" class="node">
<title>Node10</title>
<g id="a_Node000010"><a xlink:href="../../de/d25/a00290.html#a907dc4a5b8c29a03d23bdc87f41b5f1b" target="_top" xlink:title="Execute a command in full screen mode.">
<polygon fill="white" stroke="#666666" points="1741.5,-465.5 1619,-465.5 1619,-444.75 1741.5,-444.75 1741.5,-465.5"/>
<text xml:space="preserve" text-anchor="middle" x="1680.25" y="-452" font-family="Helvetica,sans-Serif" font-size="10.00">full_screen_fork_exec</text>
</a>
</g>
</g>
<!-- Node1&#45;&gt;Node10 -->
<g id="edge39_Node000001_Node000010" class="edge">
<title>Node1&#45;&gt;Node10</title>
<g id="a_edge39_Node000001_Node000010"><a xlink:title=" ">
<path fill="none" stroke="#63b8ff" d="M1906.32,-352C1894.71,-375.4 1872.55,-412.48 1841.5,-431.13 1811.72,-449.01 1773.37,-455.23 1741.66,-456.87"/>
<polygon fill="#63b8ff" stroke="#63b8ff" points="1909.4,-353.66 1910.51,-343.13 1903.07,-350.67 1909.4,-353.66"/>
</a>
</g>
</g>
<!-- Node13 -->
<g id="Node000013" class="node">
<title>Node13</title>
<g id="a_Node000013"><a xlink:href="../../d2/d04/a00281.html#ada302551bf41bf8ed6132fd34328a47e" target="_top" xlink:title="Form main processing loop.">
<polygon fill="white" stroke="#666666" points="1453,-308.5 1375.5,-308.5 1375.5,-287.75 1453,-287.75 1453,-308.5"/>
<text xml:space="preserve" text-anchor="middle" x="1414.25" y="-295" font-family="Helvetica,sans-Serif" font-size="10.00">form_engine</text>
</a>
</g>
</g>
<!-- Node1&#45;&gt;Node13 -->
<g id="edge38_Node000001_Node000013" class="edge">
<title>Node1&#45;&gt;Node13</title>
<g id="a_edge38_Node000001_Node000013"><a xlink:title=" ">
<path fill="none" stroke="#63b8ff" d="M1865.93,-327.85C1766.06,-321.26 1542.96,-306.55 1453.47,-300.65"/>
<polygon fill="#63b8ff" stroke="#63b8ff" points="1865.47,-331.33 1875.68,-328.49 1865.93,-324.34 1865.47,-331.33"/>
</a>
</g>
</g>
<!-- Node16 -->
<g id="Node000016" class="node">
<title>Node16</title>
<g id="a_Node000016"><a xlink:href="../../dd/d52/a00221.html#a9c4b3ba5f73c18b486646c62b933972a" target="_top" xlink:title="Main Command Processing Loop for View.">
<polygon fill="white" stroke="#666666" points="1079.5,-159.5 961.5,-159.5 961.5,-138.75 1079.5,-138.75 1079.5,-159.5"/>
<text xml:space="preserve" text-anchor="middle" x="1020.5" y="-146" font-family="Helvetica,sans-Serif" font-size="10.00">view_cmd_processor</text>
</a>
</g>
</g>
<!-- Node1&#45;&gt;Node16 -->
<g id="edge44_Node000001_Node000016" class="edge">
<title>Node1&#45;&gt;Node16</title>
<g id="a_edge44_Node000001_Node000016"><a xlink:title=" ">
<path fill="none" stroke="#63b8ff" d="M1908.08,-309.63C1884.88,-247.84 1808.34,-74.13 1681.25,-74.13 1681.25,-74.13 1681.25,-74.13 1289.62,-74.13 1195.37,-74.13 1089.14,-117.64 1043.86,-138.38"/>
<polygon fill="#63b8ff" stroke="#63b8ff" points="1904.78,-310.79 1911.49,-318.99 1911.36,-308.4 1904.78,-310.79"/>
</a>
</g>
</g>
<!-- Node24 -->
<g id="Node000024" class="node">
<title>Node24</title>
<g id="a_Node000024"><a xlink:href="../../de/d25/a00290.html#aeb3e7eb282467134ce50fde7d9ebd19d" target="_top" xlink:title="Execute a shell command in full screen mode.">
<polygon fill="white" stroke="#666666" points="1339.5,-198.5 1241.75,-198.5 1241.75,-177.75 1339.5,-177.75 1339.5,-198.5"/>
<text xml:space="preserve" text-anchor="middle" x="1290.62" y="-185" font-family="Helvetica,sans-Serif" font-size="10.00">full_screen_shell</text>
</a>
</g>
</g>
<!-- Node1&#45;&gt;Node24 -->
<g id="edge40_Node000001_Node000024" class="edge">
<title>Node1&#45;&gt;Node24</title>
<g id="a_edge40_Node000001_Node000024"><a xlink:title=" ">
<path fill="none" stroke="#63b8ff" d="M1894.59,-313.01C1844.73,-271.5 1713.68,-170.84 1583,-141.13 1486.07,-119.09 1368.72,-157.44 1317.56,-177.31"/>
<polygon fill="#63b8ff" stroke="#63b8ff" points="1892.14,-315.52 1902.04,-319.29 1896.65,-310.17 1892.14,-315.52"/>
</a>
</g>
</g>
<!-- Node26 -->
<g id="Node000026" class="node">
<title>Node26</title>
<g id="a_Node000026"><a xlink:href="../../dd/d52/a00221.html#acf603aea7d287c5d94548bf6ac2d2adb" target="_top" xlink:title="Resize Viewing Page.">
<polygon fill="white" stroke="#666666" points="1451.5,-46.5 1377,-46.5 1377,-25.75 1451.5,-25.75 1451.5,-46.5"/>
<text xml:space="preserve" text-anchor="middle" x="1414.25" y="-33" font-family="Helvetica,sans-Serif" font-size="10.00">resize_page</text>
</a>
</g>
</g>
<!-- Node1&#45;&gt;Node26 -->
<g id="edge42_Node000001_Node000026" class="edge">
<title>Node1&#45;&gt;Node26</title>
<g id="a_edge42_Node000001_Node000026"><a xlink:title=" ">
<path fill="none" stroke="#63b8ff" d="M1912.92,-309.28C1905.17,-250.62 1880.9,-91.99 1841.5,-60.13 1726.67,32.74 1532.37,-4.42 1451.87,-25.45"/>
<polygon fill="#63b8ff" stroke="#63b8ff" points="1909.42,-309.51 1914.16,-318.98 1916.36,-308.62 1909.42,-309.51"/>
</a>
</g>
</g>
<!-- Node3 -->
<g id="Node000003" class="node">
<title>Node3</title>
<g id="a_Node000003"><a xlink:href="../../d0/d27/a00239.html#ab97dcab41017c5132f52b682437a151e" target="_top" xlink:title="Initializes pick interface, calculates window size and position, and enters picker loop.">
<polygon fill="white" stroke="#666666" points="521,-275.5 446.5,-275.5 446.5,-254.75 521,-254.75 521,-275.5"/>
<text xml:space="preserve" text-anchor="middle" x="483.75" y="-262" font-family="Helvetica,sans-Serif" font-size="10.00">pick_engine</text>
</a>
</g>
</g>
<!-- Node2&#45;&gt;Node3 -->
<g id="edge2_Node000002_Node000003" class="edge">
<title>Node2&#45;&gt;Node3</title>
<g id="a_edge2_Node000002_Node000003"><a xlink:title=" ">
<path fill="none" stroke="#63b8ff" d="M639.67,-265.13C603,-265.13 554.27,-265.13 521.33,-265.13"/>
<polygon fill="#63b8ff" stroke="#63b8ff" points="639.6,-268.63 649.6,-265.13 639.6,-261.63 639.6,-268.63"/>
</a>
</g>
</g>
<!-- Node4 -->
<g id="Node000004" class="node">
<title>Node4</title>
<g id="a_Node000004"><a xlink:href="../../d0/d27/a00239.html#a1b2ee87543245e612c1710ea58930a17" target="_top" xlink:title="Initializes pick structure and opens pick input file or pipe.">
<polygon fill="white" stroke="#666666" points="410.5,-275.5 353.25,-275.5 353.25,-254.75 410.5,-254.75 410.5,-275.5"/>
<text xml:space="preserve" text-anchor="middle" x="381.88" y="-262" font-family="Helvetica,sans-Serif" font-size="10.00">init_pick</text>
</a>
</g>
</g>
<!-- Node3&#45;&gt;Node4 -->
<g id="edge3_Node000003_Node000004" class="edge">
<title>Node3&#45;&gt;Node4</title>
<g id="a_edge3_Node000003_Node000004"><a xlink:title=" ">
<path fill="none" stroke="#63b8ff" d="M434.66,-265.13C426.46,-265.13 418.18,-265.13 410.73,-265.13"/>
<polygon fill="#63b8ff" stroke="#63b8ff" points="434.61,-268.63 444.61,-265.13 434.61,-261.63 434.61,-268.63"/>
</a>
</g>
</g>
<!-- Node5 -->
<g id="Node000005" class="node">
<title>Node5</title>
<g id="a_Node000005"><a xlink:href="../../d2/dc8/a00242.html#a3c04138a5bfe5d72780bb7e82a18e627" target="_top" xlink:title=" ">
<polygon fill="white" stroke="#666666" points="276.38,-275.5 235.62,-275.5 235.62,-254.75 276.38,-254.75 276.38,-275.5"/>
<text xml:space="preserve" text-anchor="middle" x="256" y="-262" font-family="Helvetica,sans-Serif" font-size="10.00">main</text>
</a>
</g>
</g>
<!-- Node4&#45;&gt;Node5 -->
<g id="edge4_Node000004_Node000005" class="edge">
<title>Node4&#45;&gt;Node5</title>
<g id="a_edge4_Node000004_Node000005"><a xlink:title=" ">
<path fill="none" stroke="#63b8ff" d="M341.27,-265.13C319.64,-265.13 293.83,-265.13 276.52,-265.13"/>
<polygon fill="#63b8ff" stroke="#63b8ff" points="341.25,-268.63 351.25,-265.13 341.25,-261.63 341.25,-268.63"/>
</a>
</g>
</g>
<!-- Node4&#45;&gt;Node6 -->
<g id="edge5_Node000004_Node000006" class="edge">
<title>Node4&#45;&gt;Node6</title>
<g id="a_edge5_Node000004_Node000006"><a xlink:title=" ">
<path fill="none" stroke="#63b8ff" d="M358.22,-282.5C332.83,-301.97 292.44,-332.95 271.17,-349.26"/>
<polygon fill="#63b8ff" stroke="#63b8ff" points="360.14,-285.44 365.94,-276.58 355.88,-279.89 360.14,-285.44"/>
</a>
</g>
</g>
<!-- Node7 -->
<g id="Node000007" class="node">
<title>Node7</title>
<g id="a_Node000007"><a xlink:href="../../d9/d39/a00257.html#a7d7973d7aac92759dcc86ec52bb038f4" target="_top" xlink:title="The main loop of the menu system.">
<polygon fill="white" stroke="#666666" points="158.75,-370.5 76.75,-370.5 76.75,-349.75 158.75,-349.75 158.75,-370.5"/>
<text xml:space="preserve" text-anchor="middle" x="117.75" y="-357" font-family="Helvetica,sans-Serif" font-size="10.00">menu_engine</text>
</a>
</g>
</g>
<!-- Node6&#45;&gt;Node7 -->
<g id="edge6_Node000006_Node000007" class="edge">
<title>Node6&#45;&gt;Node7</title>
<g id="a_edge6_Node000006_Node000007"><a xlink:title=" ">
<path fill="none" stroke="#63b8ff" d="M183.2,-353.39C174.96,-353.43 166.79,-353.6 159.17,-353.9"/>
<polygon fill="#63b8ff" stroke="#63b8ff" points="182.92,-356.89 192.93,-353.41 182.94,-349.89 182.92,-356.89"/>
</a>
</g>
</g>
<!-- Node7&#45;&gt;Node6 -->
<g id="edge8_Node000007_Node000006" class="edge">
<title>Node7&#45;&gt;Node6</title>
<g id="a_edge8_Node000007_Node000006"><a xlink:title=" ">
<path fill="none" stroke="#63b8ff" d="M170.68,-366.71C178.45,-366.87 186.52,-366.92 194.45,-366.84"/>
<polygon fill="#63b8ff" stroke="#63b8ff" points="170.79,-363.21 160.69,-366.4 170.58,-370.2 170.79,-363.21"/>
</a>
</g>
</g>
<!-- Node8 -->
<g id="Node000008" class="node">
<title>Node8</title>
<g id="a_Node000008"><a xlink:href="../../dd/dd7/a00260.html#a3c04138a5bfe5d72780bb7e82a18e627" target="_top" xlink:title=" ">
<polygon fill="white" stroke="#666666" points="40.75,-370.5 0,-370.5 0,-349.75 40.75,-349.75 40.75,-370.5"/>
<text xml:space="preserve" text-anchor="middle" x="20.38" y="-357" font-family="Helvetica,sans-Serif" font-size="10.00">main</text>
</a>
</g>
</g>
<!-- Node7&#45;&gt;Node8 -->
<g id="edge7_Node000007_Node000008" class="edge">
<title>Node7&#45;&gt;Node8</title>
<g id="a_edge7_Node000007_Node000008"><a xlink:title=" ">
<path fill="none" stroke="#63b8ff" d="M64.79,-360.13C56.36,-360.13 48.1,-360.13 41.09,-360.13"/>
<polygon fill="#63b8ff" stroke="#63b8ff" points="64.79,-363.63 74.79,-360.13 64.79,-356.63 64.79,-363.63"/>
</a>
</g>
</g>
<!-- Node9&#45;&gt;Node10 -->
<g id="edge10_Node000009_Node000010" class="edge">
<title>Node9&#45;&gt;Node10</title>
<g id="a_edge10_Node000009_Node000010"><a xlink:title=" ">
<path fill="none" stroke="#63b8ff" d="M1786.74,-368.08C1760.11,-390.06 1715.88,-426.56 1694.13,-444.5"/>
<polygon fill="#63b8ff" stroke="#63b8ff" points="1788.71,-371 1794.19,-361.93 1784.25,-365.6 1788.71,-371"/>
</a>
</g>
</g>
<!-- Node11 -->
<g id="Node000011" class="node">
<title>Node11</title>
<g id="a_Node000011"><a xlink:href="../../de/d25/a00290.html#a5c3ffccf49f08359334198f7fce3f9df" target="_top" xlink:title="Execute a shell command.">
<polygon fill="white" stroke="#666666" points="1699.88,-246.5 1660.62,-246.5 1660.62,-225.75 1699.88,-225.75 1699.88,-246.5"/>
<text xml:space="preserve" text-anchor="middle" x="1680.25" y="-233" font-family="Helvetica,sans-Serif" font-size="10.00">shell</text>
</a>
</g>
</g>
<!-- Node9&#45;&gt;Node11 -->
<g id="edge12_Node000009_Node000011" class="edge">
<title>Node9&#45;&gt;Node11</title>
<g id="a_edge12_Node000009_Node000011"><a xlink:title=" ">
<path fill="none" stroke="#63b8ff" d="M1788.52,-332.23C1761.8,-308.29 1715.26,-266.6 1693.34,-246.96"/>
<polygon fill="#63b8ff" stroke="#63b8ff" points="1785.85,-334.53 1795.63,-338.6 1790.52,-329.32 1785.85,-334.53"/>
</a>
</g>
</g>
<!-- Node10&#45;&gt;Node6 -->
<g id="edge11_Node000010_Node000006" class="edge">
<title>Node10&#45;&gt;Node6</title>
<g id="a_edge11_Node000010_Node000006"><a xlink:title=" ">
<path fill="none" stroke="#63b8ff" d="M1607.36,-455.13C1554.28,-455.13 1480.26,-455.13 1415.25,-455.13 1415.25,-455.13 1415.25,-455.13 482.75,-455.13 396.64,-455.13 305.51,-395.69 271.18,-370.84"/>
<polygon fill="#63b8ff" stroke="#63b8ff" points="1607.18,-458.63 1617.18,-455.13 1607.18,-451.63 1607.18,-458.63"/>
</a>
</g>
</g>
<!-- Node12 -->
<g id="Node000012" class="node">
<title>Node12</title>
<g id="a_Node000012"><a xlink:href="../../d2/d04/a00281.html#ab2e6e35d9dba586838b91f54a6dd41a2" target="_top" xlink:title="Execute a provider command specified in the form description file, passing form field values as argum...">
<polygon fill="white" stroke="#666666" points="1583,-284.5 1489,-284.5 1489,-263.75 1583,-263.75 1583,-284.5"/>
<text xml:space="preserve" text-anchor="middle" x="1536" y="-271" font-family="Helvetica,sans-Serif" font-size="10.00">form_exec_cmd</text>
</a>
</g>
</g>
<!-- Node11&#45;&gt;Node12 -->
<g id="edge13_Node000011_Node000012" class="edge">
<title>Node11&#45;&gt;Node12</title>
<g id="a_edge13_Node000011_Node000012"><a xlink:title=" ">
<path fill="none" stroke="#63b8ff" d="M1649.31,-244.13C1628.47,-249.69 1600.43,-257.18 1577.58,-263.29"/>
<polygon fill="#63b8ff" stroke="#63b8ff" points="1650.14,-247.53 1658.9,-241.56 1648.33,-240.76 1650.14,-247.53"/>
</a>
</g>
</g>
<!-- Node11&#45;&gt;Node16 -->
<g id="edge37_Node000011_Node000016" class="edge">
<title>Node11&#45;&gt;Node16</title>
<g id="a_edge37_Node000011_Node000016"><a xlink:title=" ">
<path fill="none" stroke="#63b8ff" d="M1649.22,-228.5C1630.28,-223.8 1605.28,-217.8 1583,-213.13 1475.37,-190.56 1448.67,-182.38 1339.5,-169.13 1249.17,-158.16 1143.62,-153.03 1079.71,-150.76"/>
<polygon fill="#63b8ff" stroke="#63b8ff" points="1648.13,-231.83 1658.68,-230.86 1649.83,-225.04 1648.13,-231.83"/>
</a>
</g>
</g>
<!-- Node11&#45;&gt;Node24 -->
<g id="edge32_Node000011_Node000024" class="edge">
<title>Node11&#45;&gt;Node24</title>
<g id="a_edge32_Node000011_Node000024"><a xlink:title=" ">
<path fill="none" stroke="#63b8ff" d="M1649.11,-233.3C1594.46,-228.04 1475.42,-216.05 1375.5,-202.13 1363.95,-200.52 1351.54,-198.57 1339.9,-196.64"/>
<polygon fill="#63b8ff" stroke="#63b8ff" points="1648.57,-236.76 1658.86,-234.23 1649.24,-229.79 1648.57,-236.76"/>
</a>
</g>
</g>
<!-- Node25 -->
<g id="Node000025" class="node">
<title>Node25</title>
<g id="a_Node000025"><a xlink:href="../../dd/d52/a00221.html#a219efbc4d9d70ebc47fafa540b370247" target="_top" xlink:title="Send File to Print Queue.">
<polygon fill="white" stroke="#666666" points="1550.4,-170.5 1521.6,-170.5 1521.6,-149.75 1550.4,-149.75 1550.4,-170.5"/>
<text xml:space="preserve" text-anchor="middle" x="1536" y="-157" font-family="Helvetica,sans-Serif" font-size="10.00">lp</text>
</a>
</g>
</g>
<!-- Node11&#45;&gt;Node25 -->
<g id="edge35_Node000011_Node000025" class="edge">
<title>Node11&#45;&gt;Node25</title>
<g id="a_edge35_Node000011_Node000025"><a xlink:title=" ">
<path fill="none" stroke="#63b8ff" d="M1650.6,-220.51C1631.49,-210.13 1605.79,-196.23 1583,-184.13 1572.18,-178.38 1559.87,-171.97 1550.71,-167.22"/>
<polygon fill="#63b8ff" stroke="#63b8ff" points="1648.69,-223.46 1659.15,-225.16 1652.04,-217.31 1648.69,-223.46"/>
</a>
</g>
</g>
<!-- Node12&#45;&gt;Node13 -->
<g id="edge14_Node000012_Node000013" class="edge">
<title>Node12&#45;&gt;Node13</title>
<g id="a_edge14_Node000012_Node000013"><a xlink:title=" ">
<path fill="none" stroke="#63b8ff" d="M1477.56,-285.64C1469.32,-287.29 1461.02,-288.95 1453.28,-290.5"/>
<polygon fill="#63b8ff" stroke="#63b8ff" points="1478.1,-289.1 1487.22,-283.7 1476.72,-282.24 1478.1,-289.1"/>
</a>
</g>
</g>
<!-- Node14 -->
<g id="Node000014" class="node">
<title>Node14</title>
<g id="a_Node000014"><a xlink:href="../../d2/d04/a00281.html#abf1be20a8aad5f7ba09172ac1434a110" target="_top" xlink:title="Initialize form data structure and parse description file.">
<polygon fill="white" stroke="#666666" points="1320.75,-327.5 1260.5,-327.5 1260.5,-306.75 1320.75,-306.75 1320.75,-327.5"/>
<text xml:space="preserve" text-anchor="middle" x="1290.62" y="-314" font-family="Helvetica,sans-Serif" font-size="10.00">init_form</text>
</a>
</g>
</g>
<!-- Node13&#45;&gt;Node14 -->
<g id="edge15_Node000013_Node000014" class="edge">
<title>Node13&#45;&gt;Node14</title>
<g id="a_edge15_Node000013_Node000014"><a xlink:title=" ">
<path fill="none" stroke="#63b8ff" d="M1363.76,-305.86C1349.3,-308.12 1333.95,-310.52 1321.15,-312.52"/>
<polygon fill="#63b8ff" stroke="#63b8ff" points="1364.27,-309.32 1373.61,-304.32 1363.18,-302.41 1364.27,-309.32"/>
</a>
</g>
</g>
<!-- Node14&#45;&gt;Node6 -->
<g id="edge31_Node000014_Node000006" class="edge">
<title>Node14&#45;&gt;Node6</title>
<g id="a_edge31_Node000014_Node000006"><a xlink:title=" ">
<path fill="none" stroke="#63b8ff" d="M1263.35,-333.81C1247.33,-343.15 1226.08,-354.1 1205.75,-360.13 1126.82,-383.53 1103.82,-379.13 1021.5,-379.13 1021.5,-379.13 1021.5,-379.13 482.75,-379.13 426.7,-379.13 363.1,-373.24 317.73,-368.02"/>
<polygon fill="#63b8ff" stroke="#63b8ff" points="1264.99,-336.91 1271.76,-328.76 1261.39,-330.91 1264.99,-336.91"/>
</a>
</g>
</g>
<!-- Node15 -->
<g id="Node000015" class="node">
<title>Node15</title>
<g id="a_Node000015"><a xlink:href="../../dd/d52/a00221.html#a2ffea5674e85f124a70e19f745a66583" target="_top" xlink:title="use form to enter a file specification">
<polygon fill="white" stroke="#666666" points="1205.75,-312.5 1115.5,-312.5 1115.5,-291.75 1205.75,-291.75 1205.75,-312.5"/>
<text xml:space="preserve" text-anchor="middle" x="1160.62" y="-299" font-family="Helvetica,sans-Serif" font-size="10.00">enter_file_spec</text>
</a>
</g>
</g>
<!-- Node14&#45;&gt;Node15 -->
<g id="edge16_Node000014_Node000015" class="edge">
<title>Node14&#45;&gt;Node15</title>
<g id="a_edge16_Node000014_Node000015"><a xlink:title=" ">
<path fill="none" stroke="#63b8ff" d="M1249.17,-312.39C1235.41,-310.77 1219.97,-308.96 1205.93,-307.32"/>
<polygon fill="#63b8ff" stroke="#63b8ff" points="1248.42,-315.82 1258.76,-313.51 1249.23,-308.87 1248.42,-315.82"/>
</a>
</g>
</g>
<!-- Node23 -->
<g id="Node000023" class="node">
<title>Node23</title>
<g id="a_Node000023"><a xlink:href="../../db/dc3/a00284.html#a3c04138a5bfe5d72780bb7e82a18e627" target="_top" xlink:title=" ">
<polygon fill="white" stroke="#666666" points="1181,-351.5 1140.25,-351.5 1140.25,-330.75 1181,-330.75 1181,-351.5"/>
<text xml:space="preserve" text-anchor="middle" x="1160.62" y="-338" font-family="Helvetica,sans-Serif" font-size="10.00">main</text>
</a>
</g>
</g>
<!-- Node14&#45;&gt;Node23 -->
<g id="edge30_Node000014_Node000023" class="edge">
<title>Node14&#45;&gt;Node23</title>
<g id="a_edge30_Node000014_Node000023"><a xlink:title=" ">
<path fill="none" stroke="#63b8ff" d="M1249.24,-324.7C1226.58,-328.95 1199.33,-334.06 1181.31,-337.44"/>
<polygon fill="#63b8ff" stroke="#63b8ff" points="1249.59,-328.2 1258.77,-322.91 1248.3,-321.32 1249.59,-328.2"/>
</a>
</g>
</g>
<!-- Node15&#45;&gt;Node16 -->
<g id="edge17_Node000015_Node000016" class="edge">
<title>Node15&#45;&gt;Node16</title>
<g id="a_edge17_Node000015_Node000016"><a xlink:title=" ">
<path fill="none" stroke="#63b8ff" d="M1142.72,-283.4C1113.44,-250.97 1054.19,-185.34 1031.06,-159.72"/>
<polygon fill="#63b8ff" stroke="#63b8ff" points="1139.82,-285.41 1149.12,-290.49 1145.01,-280.72 1139.82,-285.41"/>
</a>
</g>
</g>
<!-- Node17 -->
<g id="Node000017" class="node">
<title>Node17</title>
<g id="a_Node000017"><a xlink:href="../../dd/d52/a00221.html#a0bd4dc056ab5010547129bb87819789b" target="_top" xlink:title="Start view.">
<polygon fill="white" stroke="#666666" points="925.5,-197.5 865.25,-197.5 865.25,-176.75 925.5,-176.75 925.5,-197.5"/>
<text xml:space="preserve" text-anchor="middle" x="895.38" y="-184" font-family="Helvetica,sans-Serif" font-size="10.00">view_file</text>
</a>
</g>
</g>
<!-- Node16&#45;&gt;Node17 -->
<g id="edge18_Node000016_Node000017" class="edge">
<title>Node16&#45;&gt;Node17</title>
<g id="a_edge18_Node000016_Node000017"><a xlink:title=" ">
<path fill="none" stroke="#63b8ff" d="M973.79,-163.24C957.81,-168.17 940.31,-173.57 925.99,-177.99"/>
<polygon fill="#63b8ff" stroke="#63b8ff" points="974.58,-166.65 983.1,-160.36 972.51,-159.97 974.58,-166.65"/>
</a>
</g>
</g>
<!-- Node18 -->
<g id="Node000018" class="node">
<title>Node18</title>
<g id="a_Node000018"><a xlink:href="../../d5/ddf/a00224.html#a3c04138a5bfe5d72780bb7e82a18e627" target="_top" xlink:title=" ">
<polygon fill="white" stroke="#666666" points="711.62,-197.5 670.88,-197.5 670.88,-176.75 711.62,-176.75 711.62,-197.5"/>
<text xml:space="preserve" text-anchor="middle" x="691.25" y="-184" font-family="Helvetica,sans-Serif" font-size="10.00">main</text>
</a>
</g>
</g>
<!-- Node17&#45;&gt;Node18 -->
<g id="edge19_Node000017_Node000018" class="edge">
<title>Node17&#45;&gt;Node18</title>
<g id="a_edge19_Node000017_Node000018"><a xlink:title=" ">
<path fill="none" stroke="#63b8ff" d="M853.5,-187.13C810.47,-187.13 744.53,-187.13 711.91,-187.13"/>
<polygon fill="#63b8ff" stroke="#63b8ff" points="853.47,-190.63 863.47,-187.13 853.47,-183.63 853.47,-190.63"/>
</a>
</g>
</g>
<!-- Node19 -->
<g id="Node000019" class="node">
<title>Node19</title>
<g id="a_Node000019"><a xlink:href="../../d7/d03/a00254.html#a75a4e7afc9c9aafd3d35ab706f5fdc71" target="_top" xlink:title="subprogram entry point for C&#45;Menu View">
<polygon fill="white" stroke="#666666" points="829.25,-236.5 780.25,-236.5 780.25,-215.75 829.25,-215.75 829.25,-236.5"/>
<text xml:space="preserve" text-anchor="middle" x="804.75" y="-223" font-family="Helvetica,sans-Serif" font-size="10.00">mview</text>
</a>
</g>
</g>
<!-- Node17&#45;&gt;Node19 -->
<g id="edge20_Node000017_Node000019" class="edge">
<title>Node17&#45;&gt;Node19</title>
<g id="a_edge20_Node000017_Node000019"><a xlink:title=" ">
<path fill="none" stroke="#63b8ff" d="M859.28,-202.57C849.36,-206.94 838.79,-211.59 829.69,-215.59"/>
<polygon fill="#63b8ff" stroke="#63b8ff" points="860.56,-205.83 868.3,-198.6 857.74,-199.43 860.56,-205.83"/>
</a>
</g>
</g>
<!-- Node19&#45;&gt;Node2 -->
<g id="edge24_Node000019_Node000002" class="edge">
<title>Node19&#45;&gt;Node2</title>
<g id="a_edge24_Node000019_Node000002"><a xlink:title=" ">
<path fill="none" stroke="#63b8ff" d="M769.16,-238.23C754.51,-243.35 737.58,-249.27 723.34,-254.25"/>
<polygon fill="#63b8ff" stroke="#63b8ff" points="770.12,-241.6 778.4,-234.99 767.81,-234.99 770.12,-241.6"/>
</a>
</g>
</g>
<!-- Node19&#45;&gt;Node6 -->
<g id="edge27_Node000019_Node000006" class="edge">
<title>Node19&#45;&gt;Node6</title>
<g id="a_edge27_Node000019_Node000006"><a xlink:title=" ">
<path fill="none" stroke="#63b8ff" d="M789.41,-245.71C778.58,-258.91 762.49,-275.45 744.25,-284.13 678.14,-315.58 653.84,-303.13 580.62,-303.13 580.62,-303.13 580.62,-303.13 482.75,-303.13 408.17,-303.13 323.83,-332.73 282.54,-349.27"/>
<polygon fill="#63b8ff" stroke="#63b8ff" points="792,-248.08 795.39,-238.04 786.48,-243.77 792,-248.08"/>
</a>
</g>
</g>
<!-- Node19&#45;&gt;Node13 -->
<g id="edge25_Node000019_Node000013" class="edge">
<title>Node19&#45;&gt;Node13</title>
<g id="a_edge25_Node000019_Node000013"><a xlink:title=" ">
<path fill="none" stroke="#63b8ff" d="M840.81,-226.13C883.16,-226.13 956.54,-226.13 1019.5,-226.13 1161.62,-226.13 1161.62,-226.13 1161.62,-226.13 1249.55,-226.13 1348.32,-267.26 1391.3,-287.35"/>
<polygon fill="#63b8ff" stroke="#63b8ff" points="840.99,-222.63 830.99,-226.13 840.99,-229.63 840.99,-222.63"/>
</a>
</g>
</g>
<!-- Node19&#45;&gt;Node18 -->
<g id="edge26_Node000019_Node000018" class="edge">
<title>Node19&#45;&gt;Node18</title>
<g id="a_edge26_Node000019_Node000018"><a xlink:title=" ">
<path fill="none" stroke="#63b8ff" d="M769.02,-213.98C750.27,-207.42 727.8,-199.56 712.04,-194.05"/>
<polygon fill="#63b8ff" stroke="#63b8ff" points="767.81,-217.26 778.4,-217.26 770.12,-210.66 767.81,-217.26"/>
</a>
</g>
</g>
<!-- Node20 -->
<g id="Node000020" class="node">
<title>Node20</title>
<g id="a_Node000020"><a xlink:href="../../d0/d27/a00239.html#aeebc4c0b94ca97d753e10a0cd1798730" target="_top" xlink:title="Displays the help screen for the pick interface using mview.">
<polygon fill="white" stroke="#666666" points="742.75,-236.5 639.75,-236.5 639.75,-215.75 742.75,-215.75 742.75,-236.5"/>
<text xml:space="preserve" text-anchor="middle" x="691.25" y="-223" font-family="Helvetica,sans-Serif" font-size="10.00">display_pick_help</text>
</a>
</g>
</g>
<!-- Node19&#45;&gt;Node20 -->
<g id="edge21_Node000019_Node000020" class="edge">
<title>Node19&#45;&gt;Node20</title>
<g id="a_edge21_Node000019_Node000020"><a xlink:title=" ">
<path fill="none" stroke="#63b8ff" d="M768.58,-226.13C760.5,-226.13 751.76,-226.13 743.17,-226.13"/>
<polygon fill="#63b8ff" stroke="#63b8ff" points="768.32,-229.63 778.32,-226.13 768.32,-222.63 768.32,-229.63"/>
</a>
</g>
</g>
<!-- Node22 -->
<g id="Node000022" class="node">
<title>Node22</title>
<g id="a_Node000022"><a xlink:href="../../dd/d52/a00221.html#ad997ba9f8591568c77291fb1b44601b2" target="_top" xlink:title="Display View Help File.">
<polygon fill="white" stroke="#666666" points="744.25,-158.5 638.25,-158.5 638.25,-137.75 744.25,-137.75 744.25,-158.5"/>
<text xml:space="preserve" text-anchor="middle" x="691.25" y="-145" font-family="Helvetica,sans-Serif" font-size="10.00">view_display_help</text>
</a>
</g>
</g>
<!-- Node19&#45;&gt;Node22 -->
<g id="edge28_Node000019_Node000022" class="edge">
<title>Node19&#45;&gt;Node22</title>
<g id="a_edge28_Node000019_Node000022"><a xlink:title=" ">
<path fill="none" stroke="#63b8ff" d="M787.87,-207.04C776.71,-194.6 760.86,-178.77 744.25,-168.13 738.71,-164.58 732.45,-161.5 726.23,-158.9"/>
<polygon fill="#63b8ff" stroke="#63b8ff" points="784.91,-208.97 794.11,-214.23 790.2,-204.38 784.91,-208.97"/>
</a>
</g>
</g>
<!-- Node21 -->
<g id="Node000021" class="node">
<title>Node21</title>
<g id="a_Node000021"><a xlink:href="../../d0/d27/a00239.html#abb0969a6d1c7e78be46c3b325754c802" target="_top" xlink:title="Main loop to handle user input and interactions for pick interface.">
<polygon fill="white" stroke="#666666" points="602.25,-237.5 557,-237.5 557,-216.75 602.25,-216.75 602.25,-237.5"/>
<text xml:space="preserve" text-anchor="middle" x="579.62" y="-224" font-family="Helvetica,sans-Serif" font-size="10.00">picker</text>
</a>
</g>
</g>
<!-- Node20&#45;&gt;Node21 -->
<g id="edge22_Node000020_Node000021" class="edge">
<title>Node20&#45;&gt;Node21</title>
<g id="a_edge22_Node000020_Node000021"><a xlink:title=" ">
<path fill="none" stroke="#63b8ff" d="M627.83,-226.7C618.85,-226.78 610.14,-226.86 602.71,-226.93"/>
<polygon fill="#63b8ff" stroke="#63b8ff" points="627.81,-230.2 637.78,-226.61 627.74,-223.2 627.81,-230.2"/>
</a>
</g>
</g>
<!-- Node21&#45;&gt;Node3 -->
<g id="edge23_Node000021_Node000003" class="edge">
<title>Node21&#45;&gt;Node3</title>
<g id="a_edge23_Node000021_Node000003"><a xlink:title=" ">
<path fill="none" stroke="#63b8ff" d="M546.42,-240.17C535.01,-244.78 522.32,-249.92 511.43,-254.33"/>
<polygon fill="#63b8ff" stroke="#63b8ff" points="547.49,-243.51 555.45,-236.51 544.87,-237.02 547.49,-243.51"/>
</a>
</g>
</g>
<!-- Node22&#45;&gt;Node16 -->
<g id="edge29_Node000022_Node000016" class="edge">
<title>Node22&#45;&gt;Node16</title>
<g id="a_edge29_Node000022_Node000016"><a xlink:title=" ">
<path fill="none" stroke="#63b8ff" d="M755.85,-148.32C815.41,-148.5 903.65,-148.77 961.37,-148.95"/>
<polygon fill="#63b8ff" stroke="#63b8ff" points="756.23,-144.82 746.22,-148.29 756.21,-151.82 756.23,-144.82"/>
</a>
</g>
</g>
<!-- Node24&#45;&gt;Node6 -->
<g id="edge33_Node000024_Node000006" class="edge">
<title>Node24&#45;&gt;Node6</title>
<g id="a_edge33_Node000024_Node000006"><a xlink:title=" ">
<path fill="none" stroke="#63b8ff" d="M1255.29,-203.41C1165,-242.14 912.7,-341.13 692.25,-341.13 692.25,-341.13 692.25,-341.13 482.75,-341.13 426.7,-341.13 363.1,-347.01 317.73,-352.23"/>
<polygon fill="#63b8ff" stroke="#63b8ff" points="1256.55,-206.67 1264.33,-199.49 1253.77,-200.25 1256.55,-206.67"/>
</a>
</g>
</g>
<!-- Node24&#45;&gt;Node16 -->
<g id="edge34_Node000024_Node000016" class="edge">
<title>Node24&#45;&gt;Node16</title>
<g id="a_edge34_Node000024_Node000016"><a xlink:title=" ">
<path fill="none" stroke="#63b8ff" d="M1230.49,-180.29C1196.77,-175.75 1153.74,-169.81 1115.5,-164.13 1103.98,-162.41 1091.67,-160.51 1079.89,-158.64"/>
<polygon fill="#63b8ff" stroke="#63b8ff" points="1229.67,-183.72 1240.05,-181.58 1230.6,-176.78 1229.67,-183.72"/>
</a>
</g>
</g>
<!-- Node25&#45;&gt;Node16 -->
<g id="edge36_Node000025_Node000016" class="edge">
<title>Node25&#45;&gt;Node16</title>
<g id="a_edge36_Node000025_Node000016"><a xlink:title=" ">
<path fill="none" stroke="#63b8ff" d="M1510.71,-151.04C1494.6,-145.51 1472.85,-138.97 1453,-136.13 1304.52,-114.84 1265.15,-125.83 1115.5,-136.13 1103.91,-136.92 1091.58,-138.27 1079.79,-139.8"/>
<polygon fill="#63b8ff" stroke="#63b8ff" points="1509.32,-154.26 1519.91,-154.31 1511.67,-147.66 1509.32,-154.26"/>
</a>
</g>
</g>
<!-- Node26&#45;&gt;Node16 -->
<g id="edge43_Node000026_Node000016" class="edge">
<title>Node26&#45;&gt;Node16</title>
<g id="a_edge43_Node000026_Node000016"><a xlink:title=" ">
<path fill="none" stroke="#63b8ff" d="M1365.34,-30.53C1304.44,-25.48 1197.38,-23.63 1115.5,-60.13 1076.09,-77.69 1042.92,-118.97 1028.8,-138.51"/>
<polygon fill="#63b8ff" stroke="#63b8ff" points="1364.74,-33.99 1375.02,-31.4 1365.37,-27.02 1364.74,-33.99"/>
</a>
</g>
</g>
</g>
</svg>

<g id="navigator" transform="translate(0 0)" fill="#404254">
  <rect fill="#f2f5e9" fill-opacity="0.5" stroke="#606060" stroke-width=".5" x="0" y="0" width="60" height="60"/>
  <use id="zoomplus" xlink:href="#zoomPlus" x="17" y="9" onmousedown="handleZoom(evt,'in')"/>
  <use id="zoomminus" xlink:href="#zoomMin" x="42" y="9" onmousedown="handleZoom(evt,'out')"/>
  <use id="reset" xlink:href="#resetDef" x="30" y="36" onmousedown="handleReset()"/>
   <use id="arrowup" xlink:href="#arrowUp" x="0" y="0" onmousedown="handlePan(0,-1)"/>
  <use id="arrowright" xlink:href="#arrowRight" x="0" y="0" onmousedown="handlePan(1,0)"/>
  <use id="arrowdown" xlink:href="#arrowDown" x="0" y="0" onmousedown="handlePan(0,1)"/>
  <use id="arrowleft" xlink:href="#arrowLeft" x="0" y="0" onmousedown="handlePan(-1,0)"/>
</g>
<svg viewBox="0 0 15 15" width="100%" height="30px" preserveAspectRatio="xMaxYMin meet">
 <g id="arrow_out" transform="scale(0.3 0.3)">
  <a xlink:href="a00299_a40858af5b0d68549fb483f77c97eb82c_icgraph_org.svg" target="_base">
   <rect id="button" ry="5" rx="5" y="6" x="6" height="38" width="38"
        fill="#f2f5e9" fill-opacity="0.5" stroke="#606060" stroke-width="1.0"/>
   <path id="arrow"
     d="M 11.500037,31.436501 C 11.940474,20.09759 22.043105,11.32322 32.158766,21.979434 L 37.068811,17.246167 C 37.068811,17.246167 37.088388,32 37.088388,32 L 22.160133,31.978069 C 22.160133,31.978069 26.997745,27.140456 26.997745,27.140456 C 18.528582,18.264221 13.291696,25.230495 11.500037,31.436501 z"
     style="fill:#404040;"/>
  </a>
 </g>
</svg>

<style type='text/css'>
<![CDATA[
[data-mouse-over-selected='false'] { opacity: 0.7; }
[data-mouse-over-selected='true']  { opacity: 1.0; }
]]>
</style>
<script type="application/ecmascript"><![CDATA[
document.addEventListener('DOMContentLoaded', (event) => {
  highlightEdges();
  highlightAdjacentNodes();
});
]]></script>
</svg>
