<?xml version="1.0" encoding="UTF-8" standalone="no"?>
<!DOCTYPE svg PUBLIC "-//W3C//DTD SVG 1.1//EN"
 "http://www.w3.org/Graphics/SVG/1.1/DTD/svg11.dtd">
<!-- Generated by graphviz version 14.1.2 (0)
 -->
<!-- Title: prev_page Pages: 1 -->
<!--zoomable 690 -->

<svg id="main" version="1.1" xmlns="http://www.w3.org/2000/svg" xmlns:xlink="http://www.w3.org/1999/xlink" xml:space="preserve" onload="init(evt)">

<style type="text/css"><![CDATA[
.node, .edge {opacity: 0.7;}
.node.selected, .edge.selected {opacity: 1;}
.edge:hover path { stroke: red; }
.edge:hover polygon { stroke: red; fill: red; }
]]></style>

<defs>
  <circle id="rim" cx="0" cy="0" r="7"/>
  <circle id="rim2" cx="0" cy="0" r="3.5"/>
  <g id="zoomPlus">
    <use xlink:href="#rim" fill="#404040"><set attributeName="fill" to="#808080" begin="zoomplus.mouseover" end="zoomplus.mouseout"/></use>
    <path d="M-4,0h8M0,-4v8" fill="none" stroke="white" stroke-width="1.5" pointer-events="none"/>
  </g>
  <g id="zoomMin">
    <use xlink:href="#rim" fill="#404040"><set attributeName="fill" to="#808080" begin="zoomminus.mouseover" end="zoomminus.mouseout"/></use>
    <path d="M-4,0h8" fill="none" stroke="white" stroke-width="1.5" pointer-events="none"/>
  </g>
  <g id="arrowUp" transform="translate(30 24)">
    <use xlink:href="#rim"/>
    <path pointer-events="none" fill="none" stroke="white" stroke-width="1.5" d="M0,-3.0v7 M-2.5,-0.5L0,-3.0L2.5,-0.5"/>
  </g>
  <g id="arrowRight" transform="rotate(90) translate(36 -43)">
    <use xlink:href="#rim"/>
    <path pointer-events="none" fill="none" stroke="white" stroke-width="1.5" d="M0,-3.0v7 M-2.5,-0.5L0,-3.0L2.5,-0.5"/>
  </g>
  <g id="arrowDown" transform="rotate(180) translate(-30 -48)">
    <use xlink:href="#rim"/>
    <path pointer-events="none" fill="none" stroke="white" stroke-width="1.5" d="M0,-3.0v7 M-2.5,-0.5L0,-3.0L2.5,-0.5"/>
  </g>
  <g id="arrowLeft" transform="rotate(270) translate(-36 17)">
    <use xlink:href="#rim"/>
    <path pointer-events="none" fill="none" stroke="white" stroke-width="1.5" d="M0,-3.0v7 M-2.5,-0.5L0,-3.0L2.5,-0.5"/>
  </g>
  <g id="resetDef">
    <use xlink:href="#rim2" fill="#404040"><set attributeName="fill" to="#808080" begin="reset.mouseover" end="reset.mouseout"/></use>
  </g>
</defs>
<script type="application/ecmascript">
var viewWidth = 1244;
var viewHeight = 690;
var sectionId = 'dynsection-37';
</script>
<script type="application/ecmascript" xlink:href="../../svg.min.js"/>
<svg id="graph" class="graph">
<g id="viewport">
<title>prev_page</title>
<!-- Node1 -->
<g id="Node000001" class="node">
<title>Node1</title>
<g id="a_Node000001"><a xlink:title="display previous page">
<polygon fill="#999999" stroke="#666666" points="67,-232.75 0,-232.75 0,-212 67,-212 67,-232.75"/>
<text xml:space="preserve" text-anchor="middle" x="33.5" y="-219.25" font-family="Helvetica,sans-Serif" font-size="10.00">prev_page</text>
</a>
</g>
</g>
<!-- Node2 -->
<g id="Node000002" class="node">
<title>Node2</title>
<g id="a_Node000002"><a xlink:href="../../dd/d52/a00221.html#aaf8cff992778d85e44351a834ad2b81a" target="_top" xlink:title="Get Position of Previous Line.">
<polygon fill="white" stroke="#666666" points="207.5,-252.75 103,-252.75 103,-232 207.5,-232 207.5,-252.75"/>
<text xml:space="preserve" text-anchor="middle" x="155.25" y="-239.25" font-family="Helvetica,sans-Serif" font-size="10.00">get_pos_prev_line</text>
</a>
</g>
</g>
<!-- Node1&#45;&gt;Node2 -->
<g id="edge1_Node000001_Node000002" class="edge">
<title>Node1&#45;&gt;Node2</title>
<g id="a_edge1_Node000001_Node000002"><a xlink:title=" ">
<path fill="none" stroke="#63b8ff" d="M67.22,-227.84C74.74,-229.1 82.99,-230.47 91.32,-231.86"/>
<polygon fill="#63b8ff" stroke="#63b8ff" points="90.73,-235.31 101.17,-233.51 91.88,-228.41 90.73,-235.31"/>
</a>
</g>
</g>
<!-- Node3 -->
<g id="Node000003" class="node">
<title>Node3</title>
<g id="a_Node000003"><a xlink:href="../../dd/d52/a00221.html#acf1bfbd6d2fd4ad9a0385009ef25015c" target="_top" xlink:title="Advance to Next Page.">
<polygon fill="white" stroke="#666666" points="188.75,-213.75 121.75,-213.75 121.75,-193 188.75,-193 188.75,-213.75"/>
<text xml:space="preserve" text-anchor="middle" x="155.25" y="-200.25" font-family="Helvetica,sans-Serif" font-size="10.00">next_page</text>
</a>
</g>
</g>
<!-- Node1&#45;&gt;Node3 -->
<g id="edge2_Node000001_Node000003" class="edge">
<title>Node1&#45;&gt;Node3</title>
<g id="a_edge2_Node000001_Node000003"><a xlink:title=" ">
<path fill="none" stroke="#63b8ff" d="M67.22,-217.18C80.55,-215.07 96.17,-212.59 110.46,-210.32"/>
<polygon fill="#63b8ff" stroke="#63b8ff" points="110.74,-213.82 120.07,-208.8 109.65,-206.91 110.74,-213.82"/>
</a>
</g>
</g>
<!-- Node4 -->
<g id="Node000004" class="node">
<title>Node4</title>
<g id="a_Node000004"><a xlink:href="../../dd/d52/a00221.html#a16a4b855ead8402d4744e77a5504082a" target="_top" xlink:title="Display Line on Pad.">
<polygon fill="white" stroke="#666666" points="321.75,-403.75 247.25,-403.75 247.25,-383 321.75,-383 321.75,-403.75"/>
<text xml:space="preserve" text-anchor="middle" x="284.5" y="-390.25" font-family="Helvetica,sans-Serif" font-size="10.00">display_line</text>
</a>
</g>
</g>
<!-- Node3&#45;&gt;Node4 -->
<g id="edge3_Node000003_Node000004" class="edge">
<title>Node3&#45;&gt;Node4</title>
<g id="a_edge3_Node000003_Node000004"><a xlink:title=" ">
<path fill="none" stroke="#63b8ff" d="M189.1,-211.82C195.77,-214.67 202.31,-218.43 207.5,-223.38 251.05,-264.87 271.44,-335.85 279.33,-371.53"/>
<polygon fill="#63b8ff" stroke="#63b8ff" points="275.86,-372.01 281.31,-381.1 282.71,-370.59 275.86,-372.01"/>
</a>
</g>
</g>
<!-- Node25 -->
<g id="Node000025" class="node">
<title>Node25</title>
<g id="a_Node000025"><a xlink:href="../../dd/d52/a00221.html#a747411d59b020ad11d4567ab0b3db8c2" target="_top" xlink:title="Format Line for Display.">
<polygon fill="white" stroke="#666666" points="312.75,-213.75 256.25,-213.75 256.25,-193 312.75,-193 312.75,-213.75"/>
<text xml:space="preserve" text-anchor="middle" x="284.5" y="-200.25" font-family="Helvetica,sans-Serif" font-size="10.00">fmt_line</text>
</a>
</g>
</g>
<!-- Node3&#45;&gt;Node25 -->
<g id="edge42_Node000003_Node000025" class="edge">
<title>Node3&#45;&gt;Node25</title>
<g id="a_edge42_Node000003_Node000025"><a xlink:title=" ">
<path fill="none" stroke="#63b8ff" d="M189.02,-203.38C205.97,-203.38 226.78,-203.38 244.55,-203.38"/>
<polygon fill="#63b8ff" stroke="#63b8ff" points="244.49,-206.88 254.49,-203.38 244.49,-199.88 244.49,-206.88"/>
</a>
</g>
</g>
<!-- Node33 -->
<g id="Node000033" class="node">
<title>Node33</title>
<g id="a_Node000033"><a xlink:href="../../dd/d52/a00221.html#a395b27e6a9716bf49e3fc04d53987b33" target="_top" xlink:title="Get Next Line from File.">
<polygon fill="white" stroke="#666666" points="325.5,-174.75 243.5,-174.75 243.5,-154 325.5,-154 325.5,-174.75"/>
<text xml:space="preserve" text-anchor="middle" x="284.5" y="-161.25" font-family="Helvetica,sans-Serif" font-size="10.00">get_next_line</text>
</a>
</g>
</g>
<!-- Node3&#45;&gt;Node33 -->
<g id="edge52_Node000003_Node000033" class="edge">
<title>Node3&#45;&gt;Node33</title>
<g id="a_edge52_Node000003_Node000033"><a xlink:title=" ">
<path fill="none" stroke="#63b8ff" d="M189.02,-193.33C203.74,-188.82 221.36,-183.42 237.38,-178.51"/>
<polygon fill="#63b8ff" stroke="#63b8ff" points="238.18,-181.93 246.71,-175.65 236.13,-175.23 238.18,-181.93"/>
</a>
</g>
</g>
<!-- Node5 -->
<g id="Node000005" class="node">
<title>Node5</title>
<g id="a_Node000005"><a xlink:href="../../df/d95/a00299.html#a61b4f28456257f68ed042bed7f187efd" target="_top" xlink:title="Display a simple error message window or print to stderr.">
<polygon fill="white" stroke="#666666" points="427.38,-479.75 382.12,-479.75 382.12,-459 427.38,-459 427.38,-479.75"/>
<text xml:space="preserve" text-anchor="middle" x="404.75" y="-466.25" font-family="Helvetica,sans-Serif" font-size="10.00">Perror</text>
</a>
</g>
</g>
<!-- Node4&#45;&gt;Node5 -->
<g id="edge4_Node000004_Node000005" class="edge">
<title>Node4&#45;&gt;Node5</title>
<g id="a_edge4_Node000004_Node000005"><a xlink:title=" ">
<path fill="none" stroke="#63b8ff" d="M302.19,-404.1C321.82,-416.72 354.65,-437.82 377.65,-452.6"/>
<polygon fill="#63b8ff" stroke="#63b8ff" points="375.57,-455.42 385.87,-457.88 379.35,-449.53 375.57,-455.42"/>
</a>
</g>
</g>
<!-- Node6 -->
<g id="Node000006" class="node">
<title>Node6</title>
<g id="a_Node000006"><a xlink:href="../../df/d95/a00299.html#a8f6c45ca4a7f6a41c4c88314e697565a" target="_top" xlink:title="Abnormal program termination.">
<polygon fill="white" stroke="#666666" points="954.12,-383.75 908.12,-383.75 908.12,-363 954.12,-363 954.12,-383.75"/>
<text xml:space="preserve" text-anchor="middle" x="931.12" y="-370.25" font-family="Helvetica,sans-Serif" font-size="10.00">abend</text>
</a>
</g>
</g>
<!-- Node5&#45;&gt;Node6 -->
<g id="edge5_Node000005_Node000006" class="edge">
<title>Node5&#45;&gt;Node6</title>
<g id="a_edge5_Node000005_Node000006"><a xlink:title=" ">
<path fill="none" stroke="#63b8ff" d="M415.76,-479.88C429.65,-493.73 456.22,-517.72 484,-529.38 561.65,-561.96 792.38,-613.84 861.25,-565.38 917.03,-526.12 927.86,-437.24 929.81,-395.64"/>
<polygon fill="#63b8ff" stroke="#63b8ff" points="933.31,-395.75 930.12,-385.64 926.31,-395.53 933.31,-395.75"/>
</a>
</g>
</g>
<!-- Node10 -->
<g id="Node000010" class="node">
<title>Node10</title>
<g id="a_Node000010"><a xlink:href="../../df/d95/a00299.html#a645871e46277e31736bc36d0f3dce4bd" target="_top" xlink:title="construct the chyron string from the chyron structure">
<polygon fill="white" stroke="#666666" points="861.25,-136.75 768,-136.75 768,-116 861.25,-116 861.25,-136.75"/>
<text xml:space="preserve" text-anchor="middle" x="814.62" y="-123.25" font-family="Helvetica,sans-Serif" font-size="10.00">compile_chyron</text>
</a>
</g>
</g>
<!-- Node5&#45;&gt;Node10 -->
<g id="edge11_Node000005_Node000010" class="edge">
<title>Node5&#45;&gt;Node10</title>
<g id="a_edge11_Node000005_Node000010"><a xlink:title=" ">
<path fill="none" stroke="#63b8ff" d="M407.56,-458.65C416.76,-404.9 458.79,-166.42 484,-145.38 523.92,-112.04 672.87,-116.42 756.22,-121.79"/>
<polygon fill="#63b8ff" stroke="#63b8ff" points="755.81,-125.27 766.02,-122.45 756.28,-118.29 755.81,-125.27"/>
</a>
</g>
</g>
<!-- Node12 -->
<g id="Node000012" class="node">
<title>Node12</title>
<g id="a_Node000012"><a xlink:href="../../df/d95/a00299.html#a3f3feb40fd703913c5c136331f627c91" target="_top" xlink:title="Destroy Chyron structure.">
<polygon fill="white" stroke="#666666" points="860.12,-556.75 769.12,-556.75 769.12,-536 860.12,-536 860.12,-556.75"/>
<text xml:space="preserve" text-anchor="middle" x="814.62" y="-543.25" font-family="Helvetica,sans-Serif" font-size="10.00">destroy_chyron</text>
</a>
</g>
</g>
<!-- Node5&#45;&gt;Node12 -->
<g id="edge13_Node000005_Node000012" class="edge">
<title>Node5&#45;&gt;Node12</title>
<g id="a_edge13_Node000005_Node000012"><a xlink:title=" ">
<path fill="none" stroke="#63b8ff" d="M426.1,-480.1C441.56,-487.78 463.59,-497.73 484,-503.38 577.8,-529.31 691.04,-539.74 757.42,-543.83"/>
<polygon fill="#63b8ff" stroke="#63b8ff" points="757.16,-547.32 767.34,-544.41 757.57,-540.33 757.16,-547.32"/>
</a>
</g>
</g>
<!-- Node13 -->
<g id="Node000013" class="node">
<title>Node13</title>
<g id="a_Node000013"><a xlink:href="../../df/d95/a00299.html#ad37d5808ff30ae6894780425d865abae" target="_top" xlink:title="Create and initialize Chyron structure.">
<polygon fill="white" stroke="#666666" points="851.88,-402.75 777.38,-402.75 777.38,-382 851.88,-382 851.88,-402.75"/>
<text xml:space="preserve" text-anchor="middle" x="814.62" y="-389.25" font-family="Helvetica,sans-Serif" font-size="10.00">new_chyron</text>
</a>
</g>
</g>
<!-- Node5&#45;&gt;Node13 -->
<g id="edge14_Node000005_Node000013" class="edge">
<title>Node5&#45;&gt;Node13</title>
<g id="a_edge14_Node000005_Node000013"><a xlink:title=" ">
<path fill="none" stroke="#63b8ff" d="M427.61,-466.08C480.23,-458.02 618.04,-436.26 732,-412.38 743.14,-410.04 755.07,-407.27 766.27,-404.55"/>
<polygon fill="#63b8ff" stroke="#63b8ff" points="766.83,-408.02 775.71,-402.22 765.16,-401.22 766.83,-408.02"/>
</a>
</g>
</g>
<!-- Node14 -->
<g id="Node000014" class="node">
<title>Node14</title>
<g id="a_Node000014"><a xlink:href="../../df/d95/a00299.html#a208ce92c197fdd6d2b007987e534aa3b" target="_top" xlink:title="Set chyron key.">
<polygon fill="white" stroke="#666666" points="860.5,-250.75 768.75,-250.75 768.75,-230 860.5,-230 860.5,-250.75"/>
<text xml:space="preserve" text-anchor="middle" x="814.62" y="-237.25" font-family="Helvetica,sans-Serif" font-size="10.00">set_chyron_key</text>
</a>
</g>
</g>
<!-- Node5&#45;&gt;Node14 -->
<g id="edge16_Node000005_Node000014" class="edge">
<title>Node5&#45;&gt;Node14</title>
<g id="a_edge16_Node000005_Node000014"><a xlink:title=" ">
<path fill="none" stroke="#63b8ff" d="M412.17,-458.51C424.08,-439.17 451.38,-398.55 484,-374.38 569.09,-311.31 688.06,-272.61 757.36,-253.93"/>
<polygon fill="#63b8ff" stroke="#63b8ff" points="758.22,-257.32 766.99,-251.38 756.43,-250.56 758.22,-257.32"/>
</a>
</g>
</g>
<!-- Node15 -->
<g id="Node000015" class="node">
<title>Node15</title>
<g id="a_Node000015"><a xlink:href="../../dc/d5d/a00278.html#a63eb94756fb011a456a3dec900709cd8" target="_top" xlink:title="ssnprintf was designed to be a safer alternative to snprintf.">
<polygon fill="white" stroke="#666666" points="960.5,-250.75 901.75,-250.75 901.75,-230 960.5,-230 960.5,-250.75"/>
<text xml:space="preserve" text-anchor="middle" x="931.12" y="-237.25" font-family="Helvetica,sans-Serif" font-size="10.00">ssnprintf</text>
</a>
</g>
</g>
<!-- Node5&#45;&gt;Node15 -->
<g id="edge18_Node000005_Node000015" class="edge">
<title>Node5&#45;&gt;Node15</title>
<g id="a_edge18_Node000005_Node000015"><a xlink:title=" ">
<path fill="none" stroke="#63b8ff" d="M407.72,-458.75C413.67,-429.67 434.22,-348.13 484,-305.38 583.86,-219.62 637.66,-239.77 768,-221.38 809.04,-215.58 820.18,-215.81 861.25,-221.38 870.78,-222.66 880.84,-224.91 890.26,-227.43"/>
<polygon fill="#63b8ff" stroke="#63b8ff" points="889.3,-230.79 899.87,-230.16 891.21,-224.06 889.3,-230.79"/>
</a>
</g>
</g>
<!-- Node16 -->
<g id="Node000016" class="node">
<title>Node16</title>
<g id="a_Node000016"><a xlink:href="../../dc/d5d/a00278.html#a0de2e40df9bd7efc8fd9afb8ad2257e6" target="_top" xlink:title="safer alternative to strncpy">
<polygon fill="white" stroke="#666666" points="965,-555.75 897.25,-555.75 897.25,-535 965,-535 965,-555.75"/>
<text xml:space="preserve" text-anchor="middle" x="931.12" y="-542.25" font-family="Helvetica,sans-Serif" font-size="10.00">strnz__cpy</text>
</a>
</g>
</g>
<!-- Node5&#45;&gt;Node16 -->
<g id="edge19_Node000005_Node000016" class="edge">
<title>Node5&#45;&gt;Node16</title>
<g id="a_edge19_Node000005_Node000016"><a xlink:title=" ">
<path fill="none" stroke="#63b8ff" d="M408.36,-479.94C415.39,-505.81 437.44,-572.16 484,-598.38 557.05,-639.5 781.88,-625.38 861.25,-598.38 881.21,-591.58 899.9,-576.41 912.76,-564.04"/>
<polygon fill="#63b8ff" stroke="#63b8ff" points="915.06,-566.69 919.61,-557.12 910.09,-561.76 915.06,-566.69"/>
</a>
</g>
</g>
<!-- Node17 -->
<g id="Node000017" class="node">
<title>Node17</title>
<g id="a_Node000017"><a xlink:href="../../df/d95/a00299.html#a9dd598e1d49c8764af1eec42c682623e" target="_top" xlink:title="Delete the current window and its associated box window.">
<polygon fill="white" stroke="#666666" points="841.38,-517.75 787.88,-517.75 787.88,-497 841.38,-497 841.38,-517.75"/>
<text xml:space="preserve" text-anchor="middle" x="814.62" y="-504.25" font-family="Helvetica,sans-Serif" font-size="10.00">win_del</text>
</a>
</g>
</g>
<!-- Node5&#45;&gt;Node17 -->
<g id="edge20_Node000005_Node000017" class="edge">
<title>Node5&#45;&gt;Node17</title>
<g id="a_edge20_Node000005_Node000017"><a xlink:title=" ">
<path fill="none" stroke="#63b8ff" d="M427.58,-473.91C443.22,-477.01 464.83,-480.97 484,-483.38 589.41,-496.61 714.77,-503.25 776.08,-505.92"/>
<polygon fill="#63b8ff" stroke="#63b8ff" points="775.82,-509.41 785.96,-506.33 776.11,-502.42 775.82,-509.41"/>
</a>
</g>
</g>
<!-- Node18 -->
<g id="Node000018" class="node">
<title>Node18</title>
<g id="a_Node000018"><a xlink:href="../../df/d95/a00299.html#a435c7bff7ffedb8f51c6de9259e36f6c" target="_top" xlink:title="Create a new window with optional box and title.">
<polygon fill="white" stroke="#666666" points="844,-670.75 785.25,-670.75 785.25,-650 844,-650 844,-670.75"/>
<text xml:space="preserve" text-anchor="middle" x="814.62" y="-657.25" font-family="Helvetica,sans-Serif" font-size="10.00">win_new</text>
</a>
</g>
</g>
<!-- Node5&#45;&gt;Node18 -->
<g id="edge21_Node000005_Node000018" class="edge">
<title>Node5&#45;&gt;Node18</title>
<g id="a_edge21_Node000005_Node000018"><a xlink:title=" ">
<path fill="none" stroke="#63b8ff" d="M407.06,-479.92C411.44,-510.3 428.61,-598.26 484,-636.38 572.29,-697.12 707.22,-682 773.73,-669.38"/>
<polygon fill="#63b8ff" stroke="#63b8ff" points="774.33,-672.83 783.46,-667.45 772.97,-665.97 774.33,-672.83"/>
</a>
</g>
</g>
<!-- Node20 -->
<g id="Node000020" class="node">
<title>Node20</title>
<g id="a_Node000020"><a xlink:href="../../df/d95/a00299.html#acf4c709bccc4c965a5d61db978db31a3" target="_top" xlink:title="Wrapper for wgetch that handles signals and mouse events.">
<polygon fill="white" stroke="#666666" points="572.38,-403.75 515.12,-403.75 515.12,-383 572.38,-383 572.38,-403.75"/>
<text xml:space="preserve" text-anchor="middle" x="543.75" y="-390.25" font-family="Helvetica,sans-Serif" font-size="10.00">xwgetch</text>
</a>
</g>
</g>
<!-- Node5&#45;&gt;Node20 -->
<g id="edge24_Node000005_Node000020" class="edge">
<title>Node5&#45;&gt;Node20</title>
<g id="a_edge24_Node000005_Node000020"><a xlink:title=" ">
<path fill="none" stroke="#63b8ff" d="M425.09,-458.65C448.14,-445.86 486.89,-424.36 513.58,-409.56"/>
<polygon fill="#63b8ff" stroke="#63b8ff" points="515.14,-412.69 522.19,-404.78 511.74,-406.57 515.14,-412.69"/>
</a>
</g>
</g>
<!-- Node7 -->
<g id="Node000007" class="node">
<title>Node7</title>
<g id="a_Node000007"><a xlink:href="../../df/d95/a00299.html#afc0985a403e3eac0b2cd8f0fab500256" target="_top" xlink:title="Gracefully shut down NCurses and restore terminal settings.">
<polygon fill="white" stroke="#666666" points="1090.5,-365.75 1001,-365.75 1001,-345 1090.5,-345 1090.5,-365.75"/>
<text xml:space="preserve" text-anchor="middle" x="1045.75" y="-352.25" font-family="Helvetica,sans-Serif" font-size="10.00">destroy_curses</text>
</a>
</g>
</g>
<!-- Node6&#45;&gt;Node7 -->
<g id="edge6_Node000006_Node000007" class="edge">
<title>Node6&#45;&gt;Node7</title>
<g id="a_edge6_Node000006_Node000007"><a xlink:title=" ">
<path fill="none" stroke="#63b8ff" d="M954.38,-369.82C964.49,-368.2 976.94,-366.21 989.34,-364.23"/>
<polygon fill="#63b8ff" stroke="#63b8ff" points="989.83,-367.7 999.15,-362.66 988.72,-360.79 989.83,-367.7"/>
</a>
</g>
</g>
<!-- Node8 -->
<g id="Node000008" class="node">
<title>Node8</title>
<g id="a_Node000008"><a xlink:href="../../d6/de1/a00233.html#ac5e3adb304b78910fc77761ef6a743f0" target="_top" xlink:title="restore_shell_tioctl() &#45; restore shell terminal settings">
<polygon fill="white" stroke="#666666" points="1235.5,-403.75 1126.5,-403.75 1126.5,-383 1235.5,-383 1235.5,-403.75"/>
<text xml:space="preserve" text-anchor="middle" x="1181" y="-390.25" font-family="Helvetica,sans-Serif" font-size="10.00">restore_shell_tioctl</text>
</a>
</g>
</g>
<!-- Node6&#45;&gt;Node8 -->
<g id="edge9_Node000006_Node000008" class="edge">
<title>Node6&#45;&gt;Node8</title>
<g id="a_edge9_Node000006_Node000008"><a xlink:title=" ">
<path fill="none" stroke="#63b8ff" d="M954.56,-375.19C990.42,-378.08 1062,-383.85 1114.93,-388.12"/>
<polygon fill="#63b8ff" stroke="#63b8ff" points="1114.5,-391.6 1124.75,-388.92 1115.06,-384.62 1114.5,-391.6"/>
</a>
</g>
</g>
<!-- Node9 -->
<g id="Node000009" class="node">
<title>Node9</title>
<g id="a_Node000009"><a xlink:href="../../d1/da8/a00230.html#a06c1eb6cf3649dc187115565409f91af" target="_top" xlink:title="Set signal handlers to default behavior.">
<polygon fill="white" stroke="#666666" points="1221.62,-346.75 1140.38,-346.75 1140.38,-326 1221.62,-326 1221.62,-346.75"/>
<text xml:space="preserve" text-anchor="middle" x="1181" y="-333.25" font-family="Helvetica,sans-Serif" font-size="10.00">sig_dfl_mode</text>
</a>
</g>
</g>
<!-- Node6&#45;&gt;Node9 -->
<g id="edge10_Node000006_Node000009" class="edge">
<title>Node6&#45;&gt;Node9</title>
<g id="a_edge10_Node000006_Node000009"><a xlink:title=" ">
<path fill="none" stroke="#63b8ff" d="M947.08,-362.51C960.46,-353.51 980.99,-341.41 1001,-336.38 1043.15,-325.77 1092.67,-326.75 1128.93,-329.83"/>
<polygon fill="#63b8ff" stroke="#63b8ff" points="1128.42,-333.29 1138.7,-330.75 1129.08,-326.33 1128.42,-333.29"/>
</a>
</g>
</g>
<!-- Node7&#45;&gt;Node8 -->
<g id="edge7_Node000007_Node000008" class="edge">
<title>Node7&#45;&gt;Node8</title>
<g id="a_edge7_Node000007_Node000008"><a xlink:title=" ">
<path fill="none" stroke="#63b8ff" d="M1084.58,-366.16C1099.07,-370.29 1115.8,-375.07 1131.18,-379.45"/>
<polygon fill="#63b8ff" stroke="#63b8ff" points="1130.05,-382.77 1140.62,-382.15 1131.97,-376.04 1130.05,-382.77"/>
</a>
</g>
</g>
<!-- Node7&#45;&gt;Node9 -->
<g id="edge8_Node000007_Node000009" class="edge">
<title>Node7&#45;&gt;Node9</title>
<g id="a_edge8_Node000007_Node000009"><a xlink:title=" ">
<path fill="none" stroke="#63b8ff" d="M1090.75,-349.1C1102.94,-347.36 1116.27,-345.46 1128.83,-343.67"/>
<polygon fill="#63b8ff" stroke="#63b8ff" points="1129.19,-347.16 1138.59,-342.28 1128.2,-340.23 1129.19,-347.16"/>
</a>
</g>
</g>
<!-- Node11 -->
<g id="Node000011" class="node">
<title>Node11</title>
<g id="a_Node000011"><a xlink:href="../../dc/d5d/a00278.html#aa0145c044cfdde3a1c83323410a59f25" target="_top" xlink:title="safer alternative to strncat">
<polygon fill="white" stroke="#666666" points="963.88,-136.75 898.38,-136.75 898.38,-116 963.88,-116 963.88,-136.75"/>
<text xml:space="preserve" text-anchor="middle" x="931.12" y="-123.25" font-family="Helvetica,sans-Serif" font-size="10.00">strnz__cat</text>
</a>
</g>
</g>
<!-- Node10&#45;&gt;Node11 -->
<g id="edge12_Node000010_Node000011" class="edge">
<title>Node10&#45;&gt;Node11</title>
<g id="a_edge12_Node000010_Node000011"><a xlink:title=" ">
<path fill="none" stroke="#63b8ff" d="M861.54,-126.38C869.83,-126.38 878.44,-126.38 886.66,-126.38"/>
<polygon fill="#63b8ff" stroke="#63b8ff" points="886.42,-129.88 896.42,-126.38 886.42,-122.88 886.42,-129.88"/>
</a>
</g>
</g>
<!-- Node13&#45;&gt;Node6 -->
<g id="edge15_Node000013_Node000006" class="edge">
<title>Node13&#45;&gt;Node6</title>
<g id="a_edge15_Node000013_Node000006"><a xlink:title=" ">
<path fill="none" stroke="#63b8ff" d="M852.17,-386.31C866.49,-383.94 882.8,-381.23 896.79,-378.91"/>
<polygon fill="#63b8ff" stroke="#63b8ff" points="897.11,-382.4 906.41,-377.31 895.97,-375.5 897.11,-382.4"/>
</a>
</g>
</g>
<!-- Node14&#45;&gt;Node15 -->
<g id="edge17_Node000014_Node000015" class="edge">
<title>Node14&#45;&gt;Node15</title>
<g id="a_edge17_Node000014_Node000015"><a xlink:title=" ">
<path fill="none" stroke="#63b8ff" d="M860.88,-240.38C870.46,-240.38 880.51,-240.38 889.89,-240.38"/>
<polygon fill="#63b8ff" stroke="#63b8ff" points="889.82,-243.88 899.82,-240.38 889.82,-236.88 889.82,-243.88"/>
</a>
</g>
</g>
<!-- Node18&#45;&gt;Node16 -->
<g id="edge23_Node000018_Node000016" class="edge">
<title>Node18&#45;&gt;Node16</title>
<g id="a_edge23_Node000018_Node000016"><a xlink:title=" ">
<path fill="none" stroke="#63b8ff" d="M841.02,-649.52C847.98,-645.9 855.24,-641.47 861.25,-636.38 885.33,-615.95 906.12,-585.69 918.38,-565.76"/>
<polygon fill="#63b8ff" stroke="#63b8ff" points="921.24,-567.8 923.36,-557.42 915.23,-564.21 921.24,-567.8"/>
</a>
</g>
</g>
<!-- Node19 -->
<g id="Node000019" class="node">
<title>Node19</title>
<g id="a_Node000019"><a xlink:href="../../df/d95/a00299.html#ac9adcf7339be4a05ab1a7350c236b8a5" target="_top" xlink:title="Draw a box around the specified window.">
<polygon fill="white" stroke="#666666" points="950.75,-670.75 911.5,-670.75 911.5,-650 950.75,-650 950.75,-670.75"/>
<text xml:space="preserve" text-anchor="middle" x="931.12" y="-657.25" font-family="Helvetica,sans-Serif" font-size="10.00">cbox</text>
</a>
</g>
</g>
<!-- Node18&#45;&gt;Node19 -->
<g id="edge22_Node000018_Node000019" class="edge">
<title>Node18&#45;&gt;Node19</title>
<g id="a_edge22_Node000018_Node000019"><a xlink:title=" ">
<path fill="none" stroke="#63b8ff" d="M844.22,-660.38C861.15,-660.38 882.57,-660.38 899.79,-660.38"/>
<polygon fill="#63b8ff" stroke="#63b8ff" points="899.69,-663.88 909.69,-660.38 899.69,-656.88 899.69,-663.88"/>
</a>
</g>
</g>
<!-- Node21 -->
<g id="Node000021" class="node">
<title>Node21</title>
<g id="a_Node000021"><a xlink:href="../../df/d95/a00299.html#a67659f8a701b74f4dec0d36227a10d1c" target="_top" xlink:title="Display an error message window or print to stderr.">
<polygon fill="white" stroke="#666666" points="725.62,-364.75 645.88,-364.75 645.88,-344 725.62,-344 725.62,-364.75"/>
<text xml:space="preserve" text-anchor="middle" x="685.75" y="-351.25" font-family="Helvetica,sans-Serif" font-size="10.00">display_error</text>
</a>
</g>
</g>
<!-- Node20&#45;&gt;Node21 -->
<g id="edge25_Node000020_Node000021" class="edge">
<title>Node20&#45;&gt;Node21</title>
<g id="a_edge25_Node000020_Node000021"><a xlink:title=" ">
<path fill="none" stroke="#63b8ff" d="M565.71,-382.55C583.88,-375.87 610.92,-367.83 634.64,-361.83"/>
<polygon fill="#63b8ff" stroke="#63b8ff" points="635.26,-365.28 644.14,-359.51 633.59,-358.49 635.26,-365.28"/>
</a>
</g>
</g>
<!-- Node23 -->
<g id="Node000023" class="node">
<title>Node23</title>
<g id="a_Node000023"><a xlink:href="../../df/d95/a00299.html#a4298f891699300bfc4e6e56fd2a8d574" target="_top" xlink:title="Get keycode from chyron.">
<polygon fill="white" stroke="#666666" points="732,-403.75 639.5,-403.75 639.5,-383 732,-383 732,-403.75"/>
<text xml:space="preserve" text-anchor="middle" x="685.75" y="-390.25" font-family="Helvetica,sans-Serif" font-size="10.00">get_chyron_key</text>
</a>
</g>
</g>
<!-- Node20&#45;&gt;Node23 -->
<g id="edge37_Node000020_Node000023" class="edge">
<title>Node20&#45;&gt;Node23</title>
<g id="a_edge37_Node000020_Node000023"><a xlink:title=" ">
<path fill="none" stroke="#63b8ff" d="M572.74,-393.38C588.55,-393.38 608.88,-393.38 627.87,-393.38"/>
<polygon fill="#63b8ff" stroke="#63b8ff" points="627.65,-396.88 637.65,-393.38 627.65,-389.88 627.65,-396.88"/>
</a>
</g>
</g>
<!-- Node24 -->
<g id="Node000024" class="node">
<title>Node24</title>
<g id="a_Node000024"><a xlink:href="../../d1/da8/a00230.html#a79c3e22498eb2346543aa9c86fd22e58" target="_top" xlink:title="Handle received signals and prompt user for action.">
<polygon fill="white" stroke="#666666" points="856.38,-441.75 772.88,-441.75 772.88,-421 856.38,-421 856.38,-441.75"/>
<text xml:space="preserve" text-anchor="middle" x="814.62" y="-428.25" font-family="Helvetica,sans-Serif" font-size="10.00">handle_signal</text>
</a>
</g>
</g>
<!-- Node20&#45;&gt;Node24 -->
<g id="edge38_Node000020_Node000024" class="edge">
<title>Node20&#45;&gt;Node24</title>
<g id="a_edge38_Node000020_Node000024"><a xlink:title=" ">
<path fill="none" stroke="#63b8ff" d="M572.83,-399.69C591.62,-403.75 616.95,-408.89 639.5,-412.38 680.27,-418.67 726.73,-423.63 761.4,-426.9"/>
<polygon fill="#63b8ff" stroke="#63b8ff" points="760.89,-430.37 771.17,-427.81 761.54,-423.4 760.89,-430.37"/>
</a>
</g>
</g>
<!-- Node21&#45;&gt;Node6 -->
<g id="edge26_Node000021_Node000006" class="edge">
<title>Node21&#45;&gt;Node6</title>
<g id="a_edge26_Node000021_Node000006"><a xlink:title=" ">
<path fill="none" stroke="#63b8ff" d="M726.12,-357.45C773.44,-361.14 852.03,-367.28 896.59,-370.76"/>
<polygon fill="#63b8ff" stroke="#63b8ff" points="896.18,-374.24 906.43,-371.52 896.73,-367.26 896.18,-374.24"/>
</a>
</g>
</g>
<!-- Node21&#45;&gt;Node10 -->
<g id="edge27_Node000021_Node000010" class="edge">
<title>Node21&#45;&gt;Node10</title>
<g id="a_edge27_Node000021_Node000010"><a xlink:title=" ">
<path fill="none" stroke="#63b8ff" d="M692.7,-343.68C712.43,-308.23 775.93,-194.11 802.15,-147"/>
<polygon fill="#63b8ff" stroke="#63b8ff" points="805.15,-148.81 806.95,-138.37 799.03,-145.4 805.15,-148.81"/>
</a>
</g>
</g>
<!-- Node21&#45;&gt;Node12 -->
<g id="edge28_Node000021_Node000012" class="edge">
<title>Node21&#45;&gt;Node12</title>
<g id="a_edge28_Node000021_Node000012"><a xlink:title=" ">
<path fill="none" stroke="#63b8ff" d="M720.82,-365.15C725.03,-367.64 728.93,-370.68 732,-374.38 776.38,-427.76 723.54,-473.06 768,-526.38 768.68,-527.19 769.4,-527.97 770.15,-528.72"/>
<polygon fill="#63b8ff" stroke="#63b8ff" points="767.98,-531.47 778.07,-534.72 772.21,-525.89 767.98,-531.47"/>
</a>
</g>
</g>
<!-- Node21&#45;&gt;Node13 -->
<g id="edge29_Node000021_Node000013" class="edge">
<title>Node21&#45;&gt;Node13</title>
<g id="a_edge29_Node000021_Node000013"><a xlink:title=" ">
<path fill="none" stroke="#63b8ff" d="M722.77,-365.16C736.43,-369.25 752.19,-373.97 766.71,-378.32"/>
<polygon fill="#63b8ff" stroke="#63b8ff" points="765.48,-381.61 776.07,-381.13 767.49,-374.9 765.48,-381.61"/>
</a>
</g>
</g>
<!-- Node21&#45;&gt;Node14 -->
<g id="edge30_Node000021_Node000014" class="edge">
<title>Node21&#45;&gt;Node14</title>
<g id="a_edge30_Node000021_Node000014"><a xlink:title=" ">
<path fill="none" stroke="#63b8ff" d="M694.5,-343.55C707.89,-325.41 736.91,-288.52 768,-264.38 771.56,-261.61 775.48,-259.01 779.48,-256.61"/>
<polygon fill="#63b8ff" stroke="#63b8ff" points="781.07,-259.73 788.12,-251.82 777.68,-253.61 781.07,-259.73"/>
</a>
</g>
</g>
<!-- Node21&#45;&gt;Node15 -->
<g id="edge31_Node000021_Node000015" class="edge">
<title>Node21&#45;&gt;Node15</title>
<g id="a_edge31_Node000021_Node000015"><a xlink:title=" ">
<path fill="none" stroke="#63b8ff" d="M699.55,-343.71C714.99,-331.27 742.1,-310.69 768,-297.38 807.93,-276.84 856.94,-260.75 890.55,-250.98"/>
<polygon fill="#63b8ff" stroke="#63b8ff" points="891.22,-254.43 899.87,-248.32 889.3,-247.7 891.22,-254.43"/>
</a>
</g>
</g>
<!-- Node21&#45;&gt;Node16 -->
<g id="edge33_Node000021_Node000016" class="edge">
<title>Node21&#45;&gt;Node16</title>
<g id="a_edge33_Node000021_Node000016"><a xlink:title=" ">
<path fill="none" stroke="#63b8ff" d="M718.75,-365.02C723.56,-367.57 728.19,-370.66 732,-374.38 758.77,-400.46 740.85,-424.69 768,-450.38 800.51,-481.13 822.84,-465.4 861.25,-488.38 879.43,-499.25 897.81,-514.74 911,-526.82"/>
<polygon fill="#63b8ff" stroke="#63b8ff" points="908.44,-529.22 918.13,-533.51 913.23,-524.12 908.44,-529.22"/>
</a>
</g>
</g>
<!-- Node21&#45;&gt;Node17 -->
<g id="edge34_Node000021_Node000017" class="edge">
<title>Node21&#45;&gt;Node17</title>
<g id="a_edge34_Node000021_Node000017"><a xlink:title=" ">
<path fill="none" stroke="#63b8ff" d="M720.08,-365.14C724.5,-367.64 728.65,-370.69 732,-374.38 766.28,-412.16 735.03,-444.45 768,-483.38 770.77,-486.64 774.09,-489.52 777.67,-492.05"/>
<polygon fill="#63b8ff" stroke="#63b8ff" points="775.84,-495.04 786.22,-497.16 779.43,-489.03 775.84,-495.04"/>
</a>
</g>
</g>
<!-- Node21&#45;&gt;Node18 -->
<g id="edge35_Node000021_Node000018" class="edge">
<title>Node21&#45;&gt;Node18</title>
<g id="a_edge35_Node000021_Node000018"><a xlink:title=" ">
<path fill="none" stroke="#63b8ff" d="M720.98,-365.02C725.17,-367.53 729.01,-370.61 732,-374.38 785.67,-442.06 741.07,-483.3 768,-565.38 776.77,-592.12 791.47,-621.02 801.81,-639.83"/>
<polygon fill="#63b8ff" stroke="#63b8ff" points="798.63,-641.32 806.58,-648.33 804.74,-637.89 798.63,-641.32"/>
</a>
</g>
</g>
<!-- Node21&#45;&gt;Node20 -->
<g id="edge36_Node000021_Node000020" class="edge">
<title>Node21&#45;&gt;Node20</title>
<g id="a_edge36_Node000021_Node000020"><a xlink:title=" ">
<path fill="none" stroke="#63b8ff" d="M663.65,-365.25C642.54,-373 609.57,-382.56 583.7,-388.65"/>
<polygon fill="#63b8ff" stroke="#63b8ff" points="583.21,-385.17 574.22,-390.77 584.75,-392 583.21,-385.17"/>
</a>
</g>
</g>
<!-- Node22 -->
<g id="Node000022" class="node">
<title>Node22</title>
<g id="a_Node000022"><a xlink:href="../../dc/d5d/a00278.html#a636608f26d1193b5d860f2312cd8ee49" target="_top" xlink:title="terminates string at New Line, Carriage Return, or max_len">
<polygon fill="white" stroke="#666666" points="834.62,-326.75 794.62,-326.75 794.62,-306 834.62,-306 834.62,-326.75"/>
<text xml:space="preserve" text-anchor="middle" x="814.62" y="-313.25" font-family="Helvetica,sans-Serif" font-size="10.00">strnz</text>
</a>
</g>
</g>
<!-- Node21&#45;&gt;Node22 -->
<g id="edge32_Node000021_Node000022" class="edge">
<title>Node21&#45;&gt;Node22</title>
<g id="a_edge32_Node000021_Node000022"><a xlink:title=" ">
<path fill="none" stroke="#63b8ff" d="M722.77,-343.59C741.97,-337.84 765.32,-330.84 783.54,-325.38"/>
<polygon fill="#63b8ff" stroke="#63b8ff" points="784.39,-328.79 792.96,-322.56 782.38,-322.08 784.39,-328.79"/>
</a>
</g>
</g>
<!-- Node24&#45;&gt;Node8 -->
<g id="edge39_Node000024_Node000008" class="edge">
<title>Node24&#45;&gt;Node8</title>
<g id="a_edge39_Node000024_Node000008"><a xlink:title=" ">
<path fill="none" stroke="#63b8ff" d="M856.72,-427.09C919.56,-420.54 1040.12,-407.96 1114.94,-400.16"/>
<polygon fill="#63b8ff" stroke="#63b8ff" points="1115,-403.67 1124.58,-399.15 1114.27,-396.71 1115,-403.67"/>
</a>
</g>
</g>
<!-- Node24&#45;&gt;Node15 -->
<g id="edge40_Node000024_Node000015" class="edge">
<title>Node24&#45;&gt;Node15</title>
<g id="a_edge40_Node000024_Node000015"><a xlink:title=" ">
<path fill="none" stroke="#63b8ff" d="M848.55,-420.71C853.21,-418.18 857.64,-415.1 861.25,-411.38 882.81,-389.16 911.11,-302.87 923.66,-262.03"/>
<polygon fill="#63b8ff" stroke="#63b8ff" points="926.97,-263.19 926.52,-252.61 920.27,-261.16 926.97,-263.19"/>
</a>
</g>
</g>
<!-- Node24&#45;&gt;Node16 -->
<g id="edge41_Node000024_Node000016" class="edge">
<title>Node24&#45;&gt;Node16</title>
<g id="a_edge41_Node000024_Node000016"><a xlink:title=" ">
<path fill="none" stroke="#63b8ff" d="M840.53,-442.01C847.63,-445.67 855.09,-450.18 861.25,-455.38 885.1,-475.5 905.84,-505.24 918.16,-524.95"/>
<polygon fill="#63b8ff" stroke="#63b8ff" points="915.14,-526.72 923.33,-533.45 921.13,-523.09 915.14,-526.72"/>
</a>
</g>
</g>
<!-- Node26 -->
<g id="Node000026" class="node">
<title>Node26</title>
<g id="a_Node000026"><a xlink:href="../../dd/d52/a00221.html#a9fc984ba8ce6c4059b33a915d526357f" target="_top" xlink:title="Parse ANSI SGR Escape Sequence.">
<polygon fill="white" stroke="#666666" points="448,-98.75 361.5,-98.75 361.5,-78 448,-78 448,-98.75"/>
<text xml:space="preserve" text-anchor="middle" x="404.75" y="-85.25" font-family="Helvetica,sans-Serif" font-size="10.00">parse_ansi_str</text>
</a>
</g>
</g>
<!-- Node25&#45;&gt;Node26 -->
<g id="edge43_Node000025_Node000026" class="edge">
<title>Node25&#45;&gt;Node26</title>
<g id="a_edge43_Node000025_Node000026"><a xlink:title=" ">
<path fill="none" stroke="#63b8ff" d="M311.01,-192.63C316.05,-189.96 321.13,-186.86 325.5,-183.38 352.66,-161.73 376.88,-129.28 390.94,-108.46"/>
<polygon fill="#63b8ff" stroke="#63b8ff" points="393.75,-110.56 396.33,-100.28 387.9,-106.71 393.75,-110.56"/>
</a>
</g>
</g>
<!-- Node32 -->
<g id="Node000032" class="node">
<title>Node32</title>
<g id="a_Node000032"><a xlink:href="../../dc/d5d/a00278.html#a4f42956462e811d96c9fb881a85dada4" target="_top" xlink:title="Trims trailing spaces from string s in place.">
<polygon fill="white" stroke="#666666" points="424.75,-213.75 384.75,-213.75 384.75,-193 424.75,-193 424.75,-213.75"/>
<text xml:space="preserve" text-anchor="middle" x="404.75" y="-200.25" font-family="Helvetica,sans-Serif" font-size="10.00">rtrim</text>
</a>
</g>
</g>
<!-- Node25&#45;&gt;Node32 -->
<g id="edge51_Node000025_Node000032" class="edge">
<title>Node25&#45;&gt;Node32</title>
<g id="a_edge51_Node000025_Node000032"><a xlink:title=" ">
<path fill="none" stroke="#63b8ff" d="M313.22,-203.38C331.14,-203.38 354.48,-203.38 372.98,-203.38"/>
<polygon fill="#63b8ff" stroke="#63b8ff" points="372.81,-206.88 382.81,-203.38 372.81,-199.88 372.81,-206.88"/>
</a>
</g>
</g>
<!-- Node27 -->
<g id="Node000027" class="node">
<title>Node27</title>
<g id="a_Node000027"><a xlink:href="../../dc/d5d/a00278.html#ab96e4c73a7b3ba1310044b479733cdd9" target="_top" xlink:title="a safer alternative to atoi() for converting ASCII strings to integers.">
<polygon fill="white" stroke="#666666" points="563.75,-98.75 523.75,-98.75 523.75,-78 563.75,-78 563.75,-98.75"/>
<text xml:space="preserve" text-anchor="middle" x="543.75" y="-85.25" font-family="Helvetica,sans-Serif" font-size="10.00">a_toi</text>
</a>
</g>
</g>
<!-- Node26&#45;&gt;Node27 -->
<g id="edge44_Node000026_Node000027" class="edge">
<title>Node26&#45;&gt;Node27</title>
<g id="a_edge44_Node000026_Node000027"><a xlink:title=" ">
<path fill="none" stroke="#63b8ff" d="M448.35,-88.38C468.97,-88.38 493.26,-88.38 512.03,-88.38"/>
<polygon fill="#63b8ff" stroke="#63b8ff" points="511.97,-91.88 521.97,-88.38 511.97,-84.88 511.97,-91.88"/>
</a>
</g>
</g>
<!-- Node28 -->
<g id="Node000028" class="node">
<title>Node28</title>
<g id="a_Node000028"><a xlink:href="../../df/d95/a00299.html#af0ba4efbc81c259a2519ca41dd9d1599" target="_top" xlink:title="Get color pair index for foreground and background colors.">
<polygon fill="white" stroke="#666666" points="580.25,-174.75 507.25,-174.75 507.25,-154 580.25,-154 580.25,-174.75"/>
<text xml:space="preserve" text-anchor="middle" x="543.75" y="-161.25" font-family="Helvetica,sans-Serif" font-size="10.00">get_clr_pair</text>
</a>
</g>
</g>
<!-- Node26&#45;&gt;Node28 -->
<g id="edge45_Node000026_Node000028" class="edge">
<title>Node26&#45;&gt;Node28</title>
<g id="a_edge45_Node000026_Node000028"><a xlink:title=" ">
<path fill="none" stroke="#63b8ff" d="M425.09,-99.1C448.14,-111.89 486.89,-133.39 513.58,-148.19"/>
<polygon fill="#63b8ff" stroke="#63b8ff" points="511.74,-151.18 522.19,-152.97 515.14,-145.06 511.74,-151.18"/>
</a>
</g>
</g>
<!-- Node29 -->
<g id="Node000029" class="node">
<title>Node29</title>
<g id="a_Node000029"><a xlink:href="../../df/d95/a00299.html#a4900dd34e828972e58b0ca549cf7d4d8" target="_top" xlink:title="Get color index for RGB color.">
<polygon fill="white" stroke="#666666" points="594.12,-59.75 493.38,-59.75 493.38,-39 594.12,-39 594.12,-59.75"/>
<text xml:space="preserve" text-anchor="middle" x="543.75" y="-46.25" font-family="Helvetica,sans-Serif" font-size="10.00">rgb_to_curses_clr</text>
</a>
</g>
</g>
<!-- Node26&#45;&gt;Node29 -->
<g id="edge48_Node000026_Node000029" class="edge">
<title>Node26&#45;&gt;Node29</title>
<g id="a_edge48_Node000026_Node000029"><a xlink:title=" ">
<path fill="none" stroke="#63b8ff" d="M443.91,-77.51C459.35,-73.12 477.37,-67.99 493.76,-63.32"/>
<polygon fill="#63b8ff" stroke="#63b8ff" points="494.68,-66.7 503.34,-60.59 492.76,-59.97 494.68,-66.7"/>
</a>
</g>
</g>
<!-- Node31 -->
<g id="Node000031" class="node">
<title>Node31</title>
<g id="a_Node000031"><a xlink:href="../../df/d95/a00299.html#a31ee0d93c7b527f92559fc410152f768" target="_top" xlink:title="Convert XTerm 256 color index to RGB color.">
<polygon fill="white" stroke="#666666" points="603.5,-20.75 484,-20.75 484,0 603.5,0 603.5,-20.75"/>
<text xml:space="preserve" text-anchor="middle" x="543.75" y="-7.25" font-family="Helvetica,sans-Serif" font-size="10.00">xterm256_idx_to_rgb</text>
</a>
</g>
</g>
<!-- Node26&#45;&gt;Node31 -->
<g id="edge50_Node000026_Node000031" class="edge">
<title>Node26&#45;&gt;Node31</title>
<g id="a_edge50_Node000026_Node000031"><a xlink:title=" ">
<path fill="none" stroke="#63b8ff" d="M417.69,-77.66C432.39,-64.92 458.54,-43.73 484,-30.38 487.44,-28.57 491.08,-26.87 494.8,-25.3"/>
<polygon fill="#63b8ff" stroke="#63b8ff" points="495.91,-28.62 503.94,-21.71 493.36,-22.1 495.91,-28.62"/>
</a>
</g>
</g>
<!-- Node28&#45;&gt;Node15 -->
<g id="edge47_Node000028_Node000015" class="edge">
<title>Node28&#45;&gt;Node15</title>
<g id="a_edge47_Node000028_Node000015"><a xlink:title=" ">
<path fill="none" stroke="#63b8ff" d="M580.32,-160.73C640.41,-155.94 764.85,-151.96 861.25,-188.38 880.61,-195.69 899.13,-210.25 912.08,-222.11"/>
<polygon fill="#63b8ff" stroke="#63b8ff" points="909.35,-224.34 919,-228.71 914.19,-219.28 909.35,-224.34"/>
</a>
</g>
</g>
<!-- Node28&#45;&gt;Node21 -->
<g id="edge46_Node000028_Node000021" class="edge">
<title>Node28&#45;&gt;Node21</title>
<g id="a_edge46_Node000028_Node000021"><a xlink:title=" ">
<path fill="none" stroke="#63b8ff" d="M552.68,-175.13C575.35,-205.9 640.69,-294.58 670.1,-334.49"/>
<polygon fill="#63b8ff" stroke="#63b8ff" points="667.26,-336.54 676.01,-342.51 672.9,-332.39 667.26,-336.54"/>
</a>
</g>
</g>
<!-- Node30 -->
<g id="Node000030" class="node">
<title>Node30</title>
<g id="a_Node000030"><a xlink:href="../../df/d95/a00299.html#aa3a6b291c0820d9da545325a2dba5274" target="_top" xlink:title="Apply gamma correction to RGB color.">
<polygon fill="white" stroke="#666666" points="728.62,-59.75 642.88,-59.75 642.88,-39 728.62,-39 728.62,-59.75"/>
<text xml:space="preserve" text-anchor="middle" x="685.75" y="-46.25" font-family="Helvetica,sans-Serif" font-size="10.00">apply_gamma</text>
</a>
</g>
</g>
<!-- Node29&#45;&gt;Node30 -->
<g id="edge49_Node000029_Node000030" class="edge">
<title>Node29&#45;&gt;Node30</title>
<g id="a_edge49_Node000029_Node000030"><a xlink:title=" ">
<path fill="none" stroke="#63b8ff" d="M594.5,-49.38C606.41,-49.38 619.18,-49.38 631.26,-49.38"/>
<polygon fill="#63b8ff" stroke="#63b8ff" points="631.05,-52.88 641.05,-49.38 631.05,-45.88 631.05,-52.88"/>
</a>
</g>
</g>
</g>
</svg>

<g id="navigator" transform="translate(0 0)" fill="#404254">
  <rect fill="#f2f5e9" fill-opacity="0.5" stroke="#606060" stroke-width=".5" x="0" y="0" width="60" height="60"/>
  <use id="zoomplus" xlink:href="#zoomPlus" x="17" y="9" onmousedown="handleZoom(evt,'in')"/>
  <use id="zoomminus" xlink:href="#zoomMin" x="42" y="9" onmousedown="handleZoom(evt,'out')"/>
  <use id="reset" xlink:href="#resetDef" x="30" y="36" onmousedown="handleReset()"/>
   <use id="arrowup" xlink:href="#arrowUp" x="0" y="0" onmousedown="handlePan(0,-1)"/>
  <use id="arrowright" xlink:href="#arrowRight" x="0" y="0" onmousedown="handlePan(1,0)"/>
  <use id="arrowdown" xlink:href="#arrowDown" x="0" y="0" onmousedown="handlePan(0,1)"/>
  <use id="arrowleft" xlink:href="#arrowLeft" x="0" y="0" onmousedown="handlePan(-1,0)"/>
</g>
<svg viewBox="0 0 15 15" width="100%" height="30px" preserveAspectRatio="xMaxYMin meet">
 <g id="arrow_out" transform="scale(0.3 0.3)">
  <a xlink:href="a00221_a5dbc34981815690a92812e34d1cf478f_cgraph_org.svg" target="_base">
   <rect id="button" ry="5" rx="5" y="6" x="6" height="38" width="38"
        fill="#f2f5e9" fill-opacity="0.5" stroke="#606060" stroke-width="1.0"/>
   <path id="arrow"
     d="M 11.500037,31.436501 C 11.940474,20.09759 22.043105,11.32322 32.158766,21.979434 L 37.068811,17.246167 C 37.068811,17.246167 37.088388,32 37.088388,32 L 22.160133,31.978069 C 22.160133,31.978069 26.997745,27.140456 26.997745,27.140456 C 18.528582,18.264221 13.291696,25.230495 11.500037,31.436501 z"
     style="fill:#404040;"/>
  </a>
 </g>
</svg>

<style type='text/css'>
<![CDATA[
[data-mouse-over-selected='false'] { opacity: 0.7; }
[data-mouse-over-selected='true']  { opacity: 1.0; }
]]>
</style>
<script type="application/ecmascript"><![CDATA[
document.addEventListener('DOMContentLoaded', (event) => {
  highlightEdges();
  highlightAdjacentNodes();
});
]]></script>
</svg>
