<?xml version="1.0" encoding="UTF-8" standalone="no"?>
<!DOCTYPE svg PUBLIC "-//W3C//DTD SVG 1.1//EN"
 "http://www.w3.org/Graphics/SVG/1.1/DTD/svg11.dtd">
<!-- Generated by graphviz version 14.1.2 (0)
 -->
<!-- Title: redisplay_page Pages: 1 -->
<svg width="1264pt" height="258pt"
 viewBox="0.00 0.00 1264.00 258.00" xmlns="http://www.w3.org/2000/svg" xmlns:xlink="http://www.w3.org/1999/xlink">
<g id="graph0" class="graph" transform="scale(1 1) rotate(0) translate(4 253.75)">
<title>redisplay_page</title>
<!-- Node1 -->
<g id="Node000001" class="node">
<title>Node1</title>
<g id="a_Node000001"><a xlink:title="Redisplay Current Page.">
<polygon fill="#999999" stroke="#666666" points="1256,-57.75 1165.75,-57.75 1165.75,-37 1256,-37 1256,-57.75"/>
<text xml:space="preserve" text-anchor="middle" x="1210.88" y="-44.25" font-family="Helvetica,sans-Serif" font-size="10.00">redisplay_page</text>
</a>
</g>
</g>
<!-- Node2 -->
<g id="Node000002" class="node">
<title>Node2</title>
<g id="a_Node000002"><a xlink:href="../../dd/d52/a00221.html#a9c4b3ba5f73c18b486646c62b933972a" target="_top" xlink:title="Main Command Processing Loop for View.">
<polygon fill="white" stroke="#666666" points="1129.75,-57.75 1011.75,-57.75 1011.75,-37 1129.75,-37 1129.75,-57.75"/>
<text xml:space="preserve" text-anchor="middle" x="1070.75" y="-44.25" font-family="Helvetica,sans-Serif" font-size="10.00">view_cmd_processor</text>
</a>
</g>
</g>
<!-- Node1&#45;&gt;Node2 -->
<g id="edge1_Node000001_Node000002" class="edge">
<title>Node1&#45;&gt;Node2</title>
<g id="a_edge1_Node000001_Node000002"><a xlink:title=" ">
<path fill="none" stroke="#63b8ff" d="M1154.12,-47.38C1146.26,-47.38 1138.16,-47.38 1130.25,-47.38"/>
<polygon fill="#63b8ff" stroke="#63b8ff" points="1153.9,-50.88 1163.9,-47.38 1153.9,-43.88 1153.9,-50.88"/>
</a>
</g>
</g>
<!-- Node3 -->
<g id="Node000003" class="node">
<title>Node3</title>
<g id="a_Node000003"><a xlink:href="../../dd/d52/a00221.html#a0bd4dc056ab5010547129bb87819789b" target="_top" xlink:title="Start view.">
<polygon fill="white" stroke="#666666" points="975.75,-153.75 915.5,-153.75 915.5,-133 975.75,-133 975.75,-153.75"/>
<text xml:space="preserve" text-anchor="middle" x="945.62" y="-140.25" font-family="Helvetica,sans-Serif" font-size="10.00">view_file</text>
</a>
</g>
</g>
<!-- Node2&#45;&gt;Node3 -->
<g id="edge2_Node000002_Node000003" class="edge">
<title>Node2&#45;&gt;Node3</title>
<g id="a_edge2_Node000002_Node000003"><a xlink:title=" ">
<path fill="none" stroke="#63b8ff" d="M1047.18,-64.97C1021.79,-84.77 981.36,-116.29 960.33,-132.69"/>
<polygon fill="#63b8ff" stroke="#63b8ff" points="1049.18,-67.86 1054.91,-58.95 1044.87,-62.33 1049.18,-67.86"/>
</a>
</g>
</g>
<!-- Node4 -->
<g id="Node000004" class="node">
<title>Node4</title>
<g id="a_Node000004"><a xlink:href="../../d5/ddf/a00224.html#a3c04138a5bfe5d72780bb7e82a18e627" target="_top" xlink:title=" ">
<polygon fill="white" stroke="#666666" points="761.88,-249.75 721.12,-249.75 721.12,-229 761.88,-229 761.88,-249.75"/>
<text xml:space="preserve" text-anchor="middle" x="741.5" y="-236.25" font-family="Helvetica,sans-Serif" font-size="10.00">main</text>
</a>
</g>
</g>
<!-- Node3&#45;&gt;Node4 -->
<g id="edge3_Node000003_Node000004" class="edge">
<title>Node3&#45;&gt;Node4</title>
<g id="a_edge3_Node000003_Node000004"><a xlink:title=" ">
<path fill="none" stroke="#63b8ff" d="M915.21,-159.38C885.25,-175.42 837.25,-200.39 794.5,-219.38 783.89,-224.09 771.8,-228.77 761.95,-232.43"/>
<polygon fill="#63b8ff" stroke="#63b8ff" points="916.54,-162.64 923.69,-154.82 913.22,-156.48 916.54,-162.64"/>
</a>
</g>
</g>
<!-- Node5 -->
<g id="Node000005" class="node">
<title>Node5</title>
<g id="a_Node000005"><a xlink:href="../../d7/d03/a00254.html#a75a4e7afc9c9aafd3d35ab706f5fdc71" target="_top" xlink:title="subprogram entry point for C&#45;Menu View">
<polygon fill="white" stroke="#666666" points="879.5,-153.75 830.5,-153.75 830.5,-133 879.5,-133 879.5,-153.75"/>
<text xml:space="preserve" text-anchor="middle" x="855" y="-140.25" font-family="Helvetica,sans-Serif" font-size="10.00">mview</text>
</a>
</g>
</g>
<!-- Node3&#45;&gt;Node5 -->
<g id="edge4_Node000003_Node000005" class="edge">
<title>Node3&#45;&gt;Node5</title>
<g id="a_edge4_Node000003_Node000005"><a xlink:title=" ">
<path fill="none" stroke="#63b8ff" d="M903.74,-143.38C895.54,-143.38 887.17,-143.38 879.79,-143.38"/>
<polygon fill="#63b8ff" stroke="#63b8ff" points="903.6,-146.88 913.6,-143.38 903.6,-139.88 903.6,-146.88"/>
</a>
</g>
</g>
<!-- Node5&#45;&gt;Node4 -->
<g id="edge22_Node000005_Node000004" class="edge">
<title>Node5&#45;&gt;Node4</title>
<g id="a_edge22_Node000005_Node000004"><a xlink:title=" ">
<path fill="none" stroke="#63b8ff" d="M842.39,-163.74C831.82,-180.68 814.8,-204.36 794.5,-219.38 784.94,-226.45 772.56,-231.34 762.28,-234.52"/>
<polygon fill="#63b8ff" stroke="#63b8ff" points="845.19,-165.88 847.33,-155.51 839.18,-162.28 845.19,-165.88"/>
</a>
</g>
</g>
<!-- Node6 -->
<g id="Node000006" class="node">
<title>Node6</title>
<g id="a_Node000006"><a xlink:href="../../d0/d27/a00239.html#aeebc4c0b94ca97d753e10a0cd1798730" target="_top" xlink:title="Displays the help screen for the pick interface using mview.">
<polygon fill="white" stroke="#666666" points="793,-210.75 690,-210.75 690,-190 793,-190 793,-210.75"/>
<text xml:space="preserve" text-anchor="middle" x="741.5" y="-197.25" font-family="Helvetica,sans-Serif" font-size="10.00">display_pick_help</text>
</a>
</g>
</g>
<!-- Node5&#45;&gt;Node6 -->
<g id="edge5_Node000005_Node000006" class="edge">
<title>Node5&#45;&gt;Node6</title>
<g id="a_edge5_Node000005_Node000006"><a xlink:title=" ">
<path fill="none" stroke="#63b8ff" d="M825.46,-159.76C815.72,-165.21 804.71,-171.2 794.5,-176.38 785.63,-180.87 775.76,-185.52 767.02,-189.51"/>
<polygon fill="#63b8ff" stroke="#63b8ff" points="827.12,-162.84 834.11,-154.88 823.68,-156.75 827.12,-162.84"/>
</a>
</g>
</g>
<!-- Node11 -->
<g id="Node000011" class="node">
<title>Node11</title>
<g id="a_Node000011"><a xlink:href="../../d9/d39/a00257.html#aa5d0e30e7036b72b51c843d0a7e486a1" target="_top" xlink:title="Processes user input for the menu system.">
<polygon fill="white" stroke="#666666" points="317.25,-133.75 194.75,-133.75 194.75,-113 317.25,-113 317.25,-133.75"/>
<text xml:space="preserve" text-anchor="middle" x="256" y="-120.25" font-family="Helvetica,sans-Serif" font-size="10.00">menu_cmd_processor</text>
</a>
</g>
</g>
<!-- Node5&#45;&gt;Node11 -->
<g id="edge23_Node000005_Node000011" class="edge">
<title>Node5&#45;&gt;Node11</title>
<g id="a_edge23_Node000005_Node000011"><a xlink:title=" ">
<path fill="none" stroke="#63b8ff" d="M818.86,-138.85C772.1,-133.23 686.79,-124.38 613.62,-124.38 613.62,-124.38 613.62,-124.38 490.62,-124.38 431.81,-124.38 364.67,-124.05 317.51,-123.78"/>
<polygon fill="#63b8ff" stroke="#63b8ff" points="818.31,-142.31 828.66,-140.05 819.17,-135.36 818.31,-142.31"/>
</a>
</g>
</g>
<!-- Node14 -->
<g id="Node000014" class="node">
<title>Node14</title>
<g id="a_Node000014"><a xlink:href="../../d0/d27/a00239.html#af7fcbb1c8b67a4d11c86ba7209f397c2" target="_top" xlink:title="Executes specified command with selected objects as arguments.">
<polygon fill="white" stroke="#666666" points="652.5,-172.75 572.75,-172.75 572.75,-152 652.5,-152 652.5,-172.75"/>
<text xml:space="preserve" text-anchor="middle" x="612.62" y="-159.25" font-family="Helvetica,sans-Serif" font-size="10.00">exec_objects</text>
</a>
</g>
</g>
<!-- Node5&#45;&gt;Node14 -->
<g id="edge14_Node000005_Node000014" class="edge">
<title>Node5&#45;&gt;Node14</title>
<g id="a_edge14_Node000005_Node000014"><a xlink:title=" ">
<path fill="none" stroke="#63b8ff" d="M818.75,-146.16C774.51,-149.66 698.9,-155.63 652.87,-159.27"/>
<polygon fill="#63b8ff" stroke="#63b8ff" points="818.87,-149.66 828.56,-145.39 818.32,-142.68 818.87,-149.66"/>
</a>
</g>
</g>
<!-- Node15 -->
<g id="Node000015" class="node">
<title>Node15</title>
<g id="a_Node000015"><a xlink:href="../../d2/d04/a00281.html#ada302551bf41bf8ed6132fd34328a47e" target="_top" xlink:title="Form main processing loop.">
<polygon fill="white" stroke="#666666" points="780.25,-96.75 702.75,-96.75 702.75,-76 780.25,-76 780.25,-96.75"/>
<text xml:space="preserve" text-anchor="middle" x="741.5" y="-83.25" font-family="Helvetica,sans-Serif" font-size="10.00">form_engine</text>
</a>
</g>
</g>
<!-- Node5&#45;&gt;Node15 -->
<g id="edge16_Node000005_Node000015" class="edge">
<title>Node5&#45;&gt;Node15</title>
<g id="a_edge16_Node000005_Node000015"><a xlink:title=" ">
<path fill="none" stroke="#63b8ff" d="M825.46,-126.99C815.72,-121.54 804.71,-115.55 794.5,-110.38 785.63,-105.88 775.76,-101.23 767.02,-97.24"/>
<polygon fill="#63b8ff" stroke="#63b8ff" points="823.68,-130 834.11,-131.87 827.12,-123.91 823.68,-130"/>
</a>
</g>
</g>
<!-- Node19 -->
<g id="Node000019" class="node">
<title>Node19</title>
<g id="a_Node000019"><a xlink:href="../../dd/d52/a00221.html#ad997ba9f8591568c77291fb1b44601b2" target="_top" xlink:title="Display View Help File.">
<polygon fill="white" stroke="#666666" points="794.5,-57.75 688.5,-57.75 688.5,-37 794.5,-37 794.5,-57.75"/>
<text xml:space="preserve" text-anchor="middle" x="741.5" y="-44.25" font-family="Helvetica,sans-Serif" font-size="10.00">view_display_help</text>
</a>
</g>
</g>
<!-- Node5&#45;&gt;Node19 -->
<g id="edge24_Node000005_Node000019" class="edge">
<title>Node5&#45;&gt;Node19</title>
<g id="a_edge24_Node000005_Node000019"><a xlink:title=" ">
<path fill="none" stroke="#63b8ff" d="M842.39,-123.01C831.82,-106.07 814.8,-82.39 794.5,-67.38 789.6,-63.75 783.96,-60.7 778.25,-58.16"/>
<polygon fill="#63b8ff" stroke="#63b8ff" points="839.18,-124.47 847.33,-131.24 845.19,-120.87 839.18,-124.47"/>
</a>
</g>
</g>
<!-- Node7 -->
<g id="Node000007" class="node">
<title>Node7</title>
<g id="a_Node000007"><a xlink:href="../../d0/d27/a00239.html#abb0969a6d1c7e78be46c3b325754c802" target="_top" xlink:title="Main loop to handle user input and interactions for pick interface.">
<polygon fill="white" stroke="#666666" points="635.25,-211.75 590,-211.75 590,-191 635.25,-191 635.25,-211.75"/>
<text xml:space="preserve" text-anchor="middle" x="612.62" y="-198.25" font-family="Helvetica,sans-Serif" font-size="10.00">picker</text>
</a>
</g>
</g>
<!-- Node6&#45;&gt;Node7 -->
<g id="edge6_Node000006_Node000007" class="edge">
<title>Node6&#45;&gt;Node7</title>
<g id="a_edge6_Node000006_Node000007"><a xlink:title=" ">
<path fill="none" stroke="#63b8ff" d="M678.52,-200.86C663.16,-200.98 647.69,-201.11 635.71,-201.2"/>
<polygon fill="#63b8ff" stroke="#63b8ff" points="678.14,-204.37 688.11,-200.79 678.09,-197.37 678.14,-204.37"/>
</a>
</g>
</g>
<!-- Node8 -->
<g id="Node000008" class="node">
<title>Node8</title>
<g id="a_Node000008"><a xlink:href="../../d0/d27/a00239.html#ab97dcab41017c5132f52b682437a151e" target="_top" xlink:title="Initializes pick interface, calculates window size and position, and enters picker loop.">
<polygon fill="white" stroke="#666666" points="528.88,-172.75 454.38,-172.75 454.38,-152 528.88,-152 528.88,-172.75"/>
<text xml:space="preserve" text-anchor="middle" x="491.62" y="-159.25" font-family="Helvetica,sans-Serif" font-size="10.00">pick_engine</text>
</a>
</g>
</g>
<!-- Node7&#45;&gt;Node8 -->
<g id="edge7_Node000007_Node000008" class="edge">
<title>Node7&#45;&gt;Node8</title>
<g id="a_edge7_Node000007_Node000008"><a xlink:title=" ">
<path fill="none" stroke="#63b8ff" d="M578.66,-190.57C562.05,-185.13 541.98,-178.55 525.4,-173.11"/>
<polygon fill="#63b8ff" stroke="#63b8ff" points="577.49,-193.87 588.08,-193.66 579.67,-187.22 577.49,-193.87"/>
</a>
</g>
</g>
<!-- Node9 -->
<g id="Node000009" class="node">
<title>Node9</title>
<g id="a_Node000009"><a xlink:href="../../d0/d27/a00239.html#a1b2ee87543245e612c1710ea58930a17" target="_top" xlink:title="Initializes pick structure and opens pick input file or pipe.">
<polygon fill="white" stroke="#666666" points="410.5,-172.75 353.25,-172.75 353.25,-152 410.5,-152 410.5,-172.75"/>
<text xml:space="preserve" text-anchor="middle" x="381.88" y="-159.25" font-family="Helvetica,sans-Serif" font-size="10.00">init_pick</text>
</a>
</g>
</g>
<!-- Node8&#45;&gt;Node9 -->
<g id="edge8_Node000008_Node000009" class="edge">
<title>Node8&#45;&gt;Node9</title>
<g id="a_edge8_Node000008_Node000009"><a xlink:title=" ">
<path fill="none" stroke="#63b8ff" d="M442.91,-162.38C431.93,-162.38 420.61,-162.38 410.8,-162.38"/>
<polygon fill="#63b8ff" stroke="#63b8ff" points="442.63,-165.88 452.63,-162.38 442.63,-158.88 442.63,-165.88"/>
</a>
</g>
</g>
<!-- Node10 -->
<g id="Node000010" class="node">
<title>Node10</title>
<g id="a_Node000010"><a xlink:href="../../d2/dc8/a00242.html#a3c04138a5bfe5d72780bb7e82a18e627" target="_top" xlink:title=" ">
<polygon fill="white" stroke="#666666" points="276.38,-172.75 235.62,-172.75 235.62,-152 276.38,-152 276.38,-172.75"/>
<text xml:space="preserve" text-anchor="middle" x="256" y="-159.25" font-family="Helvetica,sans-Serif" font-size="10.00">main</text>
</a>
</g>
</g>
<!-- Node9&#45;&gt;Node10 -->
<g id="edge9_Node000009_Node000010" class="edge">
<title>Node9&#45;&gt;Node10</title>
<g id="a_edge9_Node000009_Node000010"><a xlink:title=" ">
<path fill="none" stroke="#63b8ff" d="M341.27,-162.38C319.64,-162.38 293.83,-162.38 276.52,-162.38"/>
<polygon fill="#63b8ff" stroke="#63b8ff" points="341.25,-165.88 351.25,-162.38 341.25,-158.88 341.25,-165.88"/>
</a>
</g>
</g>
<!-- Node9&#45;&gt;Node11 -->
<g id="edge10_Node000009_Node000011" class="edge">
<title>Node9&#45;&gt;Node11</title>
<g id="a_edge10_Node000009_Node000011"><a xlink:title=" ">
<path fill="none" stroke="#63b8ff" d="M341.96,-150.12C325.67,-145 306.92,-139.09 291.18,-134.14"/>
<polygon fill="#63b8ff" stroke="#63b8ff" points="340.73,-153.41 351.32,-153.07 342.83,-146.73 340.73,-153.41"/>
</a>
</g>
</g>
<!-- Node12 -->
<g id="Node000012" class="node">
<title>Node12</title>
<g id="a_Node000012"><a xlink:href="../../d9/d39/a00257.html#a7d7973d7aac92759dcc86ec52bb038f4" target="_top" xlink:title="The main loop of the menu system.">
<polygon fill="white" stroke="#666666" points="158.75,-133.75 76.75,-133.75 76.75,-113 158.75,-113 158.75,-133.75"/>
<text xml:space="preserve" text-anchor="middle" x="117.75" y="-120.25" font-family="Helvetica,sans-Serif" font-size="10.00">menu_engine</text>
</a>
</g>
</g>
<!-- Node11&#45;&gt;Node12 -->
<g id="edge11_Node000011_Node000012" class="edge">
<title>Node11&#45;&gt;Node12</title>
<g id="a_edge11_Node000011_Node000012"><a xlink:title=" ">
<path fill="none" stroke="#63b8ff" d="M183.2,-116.63C174.96,-116.67 166.79,-116.84 159.17,-117.15"/>
<polygon fill="#63b8ff" stroke="#63b8ff" points="182.92,-120.13 192.93,-116.66 182.94,-113.13 182.92,-120.13"/>
</a>
</g>
</g>
<!-- Node12&#45;&gt;Node11 -->
<g id="edge13_Node000012_Node000011" class="edge">
<title>Node12&#45;&gt;Node11</title>
<g id="a_edge13_Node000012_Node000011"><a xlink:title=" ">
<path fill="none" stroke="#63b8ff" d="M170.68,-129.95C178.45,-130.12 186.52,-130.17 194.45,-130.09"/>
<polygon fill="#63b8ff" stroke="#63b8ff" points="170.79,-126.45 160.69,-129.65 170.58,-133.45 170.79,-126.45"/>
</a>
</g>
</g>
<!-- Node13 -->
<g id="Node000013" class="node">
<title>Node13</title>
<g id="a_Node000013"><a xlink:href="../../dd/dd7/a00260.html#a3c04138a5bfe5d72780bb7e82a18e627" target="_top" xlink:title=" ">
<polygon fill="white" stroke="#666666" points="40.75,-133.75 0,-133.75 0,-113 40.75,-113 40.75,-133.75"/>
<text xml:space="preserve" text-anchor="middle" x="20.38" y="-120.25" font-family="Helvetica,sans-Serif" font-size="10.00">main</text>
</a>
</g>
</g>
<!-- Node12&#45;&gt;Node13 -->
<g id="edge12_Node000012_Node000013" class="edge">
<title>Node12&#45;&gt;Node13</title>
<g id="a_edge12_Node000012_Node000013"><a xlink:title=" ">
<path fill="none" stroke="#63b8ff" d="M64.79,-123.38C56.36,-123.38 48.1,-123.38 41.09,-123.38"/>
<polygon fill="#63b8ff" stroke="#63b8ff" points="64.79,-126.88 74.79,-123.38 64.79,-119.88 64.79,-126.88"/>
</a>
</g>
</g>
<!-- Node14&#45;&gt;Node8 -->
<g id="edge15_Node000014_Node000008" class="edge">
<title>Node14&#45;&gt;Node8</title>
<g id="a_edge15_Node000014_Node000008"><a xlink:title=" ">
<path fill="none" stroke="#63b8ff" d="M560.93,-162.38C550.22,-162.38 539.12,-162.38 529.06,-162.38"/>
<polygon fill="#63b8ff" stroke="#63b8ff" points="560.82,-165.88 570.82,-162.38 560.82,-158.88 560.82,-165.88"/>
</a>
</g>
</g>
<!-- Node16 -->
<g id="Node000016" class="node">
<title>Node16</title>
<g id="a_Node000016"><a xlink:href="../../d2/d04/a00281.html#abf1be20a8aad5f7ba09172ac1434a110" target="_top" xlink:title="Initialize form data structure and parse description file.">
<polygon fill="white" stroke="#666666" points="642.75,-77.75 582.5,-77.75 582.5,-57 642.75,-57 642.75,-77.75"/>
<text xml:space="preserve" text-anchor="middle" x="612.62" y="-64.25" font-family="Helvetica,sans-Serif" font-size="10.00">init_form</text>
</a>
</g>
</g>
<!-- Node15&#45;&gt;Node16 -->
<g id="edge17_Node000015_Node000016" class="edge">
<title>Node15&#45;&gt;Node16</title>
<g id="a_edge17_Node000015_Node000016"><a xlink:title=" ">
<path fill="none" stroke="#63b8ff" d="M691.43,-79.03C675.15,-76.59 657.54,-73.95 643.2,-71.8"/>
<polygon fill="#63b8ff" stroke="#63b8ff" points="690.53,-82.43 700.94,-80.45 691.57,-75.51 690.53,-82.43"/>
</a>
</g>
</g>
<!-- Node16&#45;&gt;Node11 -->
<g id="edge21_Node000016_Node000011" class="edge">
<title>Node16&#45;&gt;Node11</title>
<g id="a_edge21_Node000016_Node000011"><a xlink:title=" ">
<path fill="none" stroke="#63b8ff" d="M571.01,-64.15C537.44,-62.26 488.63,-61.28 446.5,-67.38 387.25,-75.95 320.73,-98.85 284.38,-112.57"/>
<polygon fill="#63b8ff" stroke="#63b8ff" points="570.5,-67.63 580.7,-64.75 570.94,-60.64 570.5,-67.63"/>
</a>
</g>
</g>
<!-- Node17 -->
<g id="Node000017" class="node">
<title>Node17</title>
<g id="a_Node000017"><a xlink:href="../../dd/d52/a00221.html#a2ffea5674e85f124a70e19f745a66583" target="_top" xlink:title="use form to enter a file specification">
<polygon fill="white" stroke="#666666" points="536.75,-20.75 446.5,-20.75 446.5,0 536.75,0 536.75,-20.75"/>
<text xml:space="preserve" text-anchor="middle" x="491.62" y="-7.25" font-family="Helvetica,sans-Serif" font-size="10.00">enter_file_spec</text>
</a>
</g>
</g>
<!-- Node16&#45;&gt;Node17 -->
<g id="edge18_Node000016_Node000017" class="edge">
<title>Node16&#45;&gt;Node17</title>
<g id="a_edge18_Node000016_Node000017"><a xlink:title=" ">
<path fill="none" stroke="#63b8ff" d="M578.64,-51.58C558.45,-41.9 533.13,-29.78 515.2,-21.19"/>
<polygon fill="#63b8ff" stroke="#63b8ff" points="577.07,-54.7 587.6,-55.87 580.09,-48.39 577.07,-54.7"/>
</a>
</g>
</g>
<!-- Node18 -->
<g id="Node000018" class="node">
<title>Node18</title>
<g id="a_Node000018"><a xlink:href="../../db/dc3/a00284.html#a3c04138a5bfe5d72780bb7e82a18e627" target="_top" xlink:title=" ">
<polygon fill="white" stroke="#666666" points="512,-96.75 471.25,-96.75 471.25,-76 512,-76 512,-96.75"/>
<text xml:space="preserve" text-anchor="middle" x="491.62" y="-83.25" font-family="Helvetica,sans-Serif" font-size="10.00">main</text>
</a>
</g>
</g>
<!-- Node16&#45;&gt;Node18 -->
<g id="edge20_Node000016_Node000018" class="edge">
<title>Node16&#45;&gt;Node18</title>
<g id="a_edge20_Node000016_Node000018"><a xlink:title=" ">
<path fill="none" stroke="#63b8ff" d="M570.99,-73.86C551.2,-77.02 528.31,-80.68 512.4,-83.22"/>
<polygon fill="#63b8ff" stroke="#63b8ff" points="571.39,-77.34 580.71,-72.31 570.29,-70.43 571.39,-77.34"/>
</a>
</g>
</g>
<!-- Node17&#45;&gt;Node2 -->
<g id="edge19_Node000017_Node000002" class="edge">
<title>Node17&#45;&gt;Node2</title>
<g id="a_edge19_Node000017_Node000002"><a xlink:title=" ">
<path fill="none" stroke="#63b8ff" d="M548.21,-10.02C598.44,-9.73 674.43,-9.38 740.5,-9.38 856,-9.38 856,-9.38 856,-9.38 918.57,-9.38 989.87,-25.35 1032.27,-36.59"/>
<polygon fill="#63b8ff" stroke="#63b8ff" points="548.45,-6.52 538.47,-10.08 548.49,-13.52 548.45,-6.52"/>
</a>
</g>
</g>
<!-- Node19&#45;&gt;Node2 -->
<g id="edge25_Node000019_Node000002" class="edge">
<title>Node19&#45;&gt;Node2</title>
<g id="a_edge25_Node000019_Node000002"><a xlink:title=" ">
<path fill="none" stroke="#63b8ff" d="M806.1,-47.38C865.66,-47.38 953.9,-47.38 1011.62,-47.38"/>
<polygon fill="#63b8ff" stroke="#63b8ff" points="806.47,-43.88 796.47,-47.38 806.47,-50.88 806.47,-43.88"/>
</a>
</g>
</g>
</g>
</svg>
