<?xml version="1.0" encoding="UTF-8" standalone="no"?>
<!DOCTYPE svg PUBLIC "-//W3C//DTD SVG 1.1//EN"
 "http://www.w3.org/Graphics/SVG/1.1/DTD/svg11.dtd">
<!-- Generated by graphviz version 14.1.2 (0)
 -->
<!-- Title: go_to_eof Pages: 1 -->
<!--zoomable 690 -->

<svg id="main" version="1.1" xmlns="http://www.w3.org/2000/svg" xmlns:xlink="http://www.w3.org/1999/xlink" xml:space="preserve" onload="init(evt)">

<style type="text/css"><![CDATA[
.node, .edge {opacity: 0.7;}
.node.selected, .edge.selected {opacity: 1;}
.edge:hover path { stroke: red; }
.edge:hover polygon { stroke: red; fill: red; }
]]></style>

<defs>
  <circle id="rim" cx="0" cy="0" r="7"/>
  <circle id="rim2" cx="0" cy="0" r="3.5"/>
  <g id="zoomPlus">
    <use xlink:href="#rim" fill="#404040"><set attributeName="fill" to="#808080" begin="zoomplus.mouseover" end="zoomplus.mouseout"/></use>
    <path d="M-4,0h8M0,-4v8" fill="none" stroke="white" stroke-width="1.5" pointer-events="none"/>
  </g>
  <g id="zoomMin">
    <use xlink:href="#rim" fill="#404040"><set attributeName="fill" to="#808080" begin="zoomminus.mouseover" end="zoomminus.mouseout"/></use>
    <path d="M-4,0h8" fill="none" stroke="white" stroke-width="1.5" pointer-events="none"/>
  </g>
  <g id="arrowUp" transform="translate(30 24)">
    <use xlink:href="#rim"/>
    <path pointer-events="none" fill="none" stroke="white" stroke-width="1.5" d="M0,-3.0v7 M-2.5,-0.5L0,-3.0L2.5,-0.5"/>
  </g>
  <g id="arrowRight" transform="rotate(90) translate(36 -43)">
    <use xlink:href="#rim"/>
    <path pointer-events="none" fill="none" stroke="white" stroke-width="1.5" d="M0,-3.0v7 M-2.5,-0.5L0,-3.0L2.5,-0.5"/>
  </g>
  <g id="arrowDown" transform="rotate(180) translate(-30 -48)">
    <use xlink:href="#rim"/>
    <path pointer-events="none" fill="none" stroke="white" stroke-width="1.5" d="M0,-3.0v7 M-2.5,-0.5L0,-3.0L2.5,-0.5"/>
  </g>
  <g id="arrowLeft" transform="rotate(270) translate(-36 17)">
    <use xlink:href="#rim"/>
    <path pointer-events="none" fill="none" stroke="white" stroke-width="1.5" d="M0,-3.0v7 M-2.5,-0.5L0,-3.0L2.5,-0.5"/>
  </g>
  <g id="resetDef">
    <use xlink:href="#rim2" fill="#404040"><set attributeName="fill" to="#808080" begin="reset.mouseover" end="reset.mouseout"/></use>
  </g>
</defs>
<script type="application/ecmascript">
var viewWidth = 1344;
var viewHeight = 690;
var sectionId = 'dynsection-21';
</script>
<script type="application/ecmascript" xlink:href="../../svg.min.js"/>
<svg id="graph" class="graph">
<g id="viewport">
<title>go_to_eof</title>
<!-- Node1 -->
<g id="Node000001" class="node">
<title>Node1</title>
<g id="a_Node000001"><a xlink:title="Go to End of File.">
<polygon fill="#999999" stroke="#666666" points="64,-232.75 0,-232.75 0,-212 64,-212 64,-232.75"/>
<text xml:space="preserve" text-anchor="middle" x="32" y="-219.25" font-family="Helvetica,sans-Serif" font-size="10.00">go_to_eof</text>
</a>
</g>
</g>
<!-- Node2 -->
<g id="Node000002" class="node">
<title>Node2</title>
<g id="a_Node000002"><a xlink:href="../../dd/d52/a00221.html#a5dbc34981815690a92812e34d1cf478f" target="_top" xlink:title="display previous page">
<polygon fill="white" stroke="#666666" points="167,-232.75 100,-232.75 100,-212 167,-212 167,-232.75"/>
<text xml:space="preserve" text-anchor="middle" x="133.5" y="-219.25" font-family="Helvetica,sans-Serif" font-size="10.00">prev_page</text>
</a>
</g>
</g>
<!-- Node1&#45;&gt;Node2 -->
<g id="edge1_Node000001_Node000002" class="edge">
<title>Node1&#45;&gt;Node2</title>
<g id="a_edge1_Node000001_Node000002"><a xlink:title=" ">
<path fill="none" stroke="#63b8ff" d="M64.48,-222.38C71.98,-222.38 80.12,-222.38 88.08,-222.38"/>
<polygon fill="#63b8ff" stroke="#63b8ff" points="87.99,-225.88 97.99,-222.38 87.99,-218.88 87.99,-225.88"/>
</a>
</g>
</g>
<!-- Node3 -->
<g id="Node000003" class="node">
<title>Node3</title>
<g id="a_Node000003"><a xlink:href="../../dd/d52/a00221.html#aaf8cff992778d85e44351a834ad2b81a" target="_top" xlink:title="Get Position of Previous Line.">
<polygon fill="white" stroke="#666666" points="307.5,-252.75 203,-252.75 203,-232 307.5,-232 307.5,-252.75"/>
<text xml:space="preserve" text-anchor="middle" x="255.25" y="-239.25" font-family="Helvetica,sans-Serif" font-size="10.00">get_pos_prev_line</text>
</a>
</g>
</g>
<!-- Node2&#45;&gt;Node3 -->
<g id="edge2_Node000002_Node000003" class="edge">
<title>Node2&#45;&gt;Node3</title>
<g id="a_edge2_Node000002_Node000003"><a xlink:title=" ">
<path fill="none" stroke="#63b8ff" d="M167.22,-227.84C174.74,-229.1 182.99,-230.47 191.32,-231.86"/>
<polygon fill="#63b8ff" stroke="#63b8ff" points="190.73,-235.31 201.17,-233.51 191.88,-228.41 190.73,-235.31"/>
</a>
</g>
</g>
<!-- Node4 -->
<g id="Node000004" class="node">
<title>Node4</title>
<g id="a_Node000004"><a xlink:href="../../dd/d52/a00221.html#acf1bfbd6d2fd4ad9a0385009ef25015c" target="_top" xlink:title="Advance to Next Page.">
<polygon fill="white" stroke="#666666" points="288.75,-213.75 221.75,-213.75 221.75,-193 288.75,-193 288.75,-213.75"/>
<text xml:space="preserve" text-anchor="middle" x="255.25" y="-200.25" font-family="Helvetica,sans-Serif" font-size="10.00">next_page</text>
</a>
</g>
</g>
<!-- Node2&#45;&gt;Node4 -->
<g id="edge3_Node000002_Node000004" class="edge">
<title>Node2&#45;&gt;Node4</title>
<g id="a_edge3_Node000002_Node000004"><a xlink:title=" ">
<path fill="none" stroke="#63b8ff" d="M167.22,-217.18C180.55,-215.07 196.17,-212.59 210.46,-210.32"/>
<polygon fill="#63b8ff" stroke="#63b8ff" points="210.74,-213.82 220.07,-208.8 209.65,-206.91 210.74,-213.82"/>
</a>
</g>
</g>
<!-- Node5 -->
<g id="Node000005" class="node">
<title>Node5</title>
<g id="a_Node000005"><a xlink:href="../../dd/d52/a00221.html#a16a4b855ead8402d4744e77a5504082a" target="_top" xlink:title="Display Line on Pad.">
<polygon fill="white" stroke="#666666" points="421.75,-403.75 347.25,-403.75 347.25,-383 421.75,-383 421.75,-403.75"/>
<text xml:space="preserve" text-anchor="middle" x="384.5" y="-390.25" font-family="Helvetica,sans-Serif" font-size="10.00">display_line</text>
</a>
</g>
</g>
<!-- Node4&#45;&gt;Node5 -->
<g id="edge4_Node000004_Node000005" class="edge">
<title>Node4&#45;&gt;Node5</title>
<g id="a_edge4_Node000004_Node000005"><a xlink:title=" ">
<path fill="none" stroke="#63b8ff" d="M289.1,-211.82C295.77,-214.67 302.31,-218.43 307.5,-223.38 351.05,-264.87 371.44,-335.85 379.33,-371.53"/>
<polygon fill="#63b8ff" stroke="#63b8ff" points="375.86,-372.01 381.31,-381.1 382.71,-370.59 375.86,-372.01"/>
</a>
</g>
</g>
<!-- Node26 -->
<g id="Node000026" class="node">
<title>Node26</title>
<g id="a_Node000026"><a xlink:href="../../dd/d52/a00221.html#a747411d59b020ad11d4567ab0b3db8c2" target="_top" xlink:title="Format Line for Display.">
<polygon fill="white" stroke="#666666" points="412.75,-213.75 356.25,-213.75 356.25,-193 412.75,-193 412.75,-213.75"/>
<text xml:space="preserve" text-anchor="middle" x="384.5" y="-200.25" font-family="Helvetica,sans-Serif" font-size="10.00">fmt_line</text>
</a>
</g>
</g>
<!-- Node4&#45;&gt;Node26 -->
<g id="edge43_Node000004_Node000026" class="edge">
<title>Node4&#45;&gt;Node26</title>
<g id="a_edge43_Node000004_Node000026"><a xlink:title=" ">
<path fill="none" stroke="#63b8ff" d="M289.02,-203.38C305.97,-203.38 326.78,-203.38 344.55,-203.38"/>
<polygon fill="#63b8ff" stroke="#63b8ff" points="344.49,-206.88 354.49,-203.38 344.49,-199.88 344.49,-206.88"/>
</a>
</g>
</g>
<!-- Node34 -->
<g id="Node000034" class="node">
<title>Node34</title>
<g id="a_Node000034"><a xlink:href="../../dd/d52/a00221.html#a395b27e6a9716bf49e3fc04d53987b33" target="_top" xlink:title="Get Next Line from File.">
<polygon fill="white" stroke="#666666" points="425.5,-174.75 343.5,-174.75 343.5,-154 425.5,-154 425.5,-174.75"/>
<text xml:space="preserve" text-anchor="middle" x="384.5" y="-161.25" font-family="Helvetica,sans-Serif" font-size="10.00">get_next_line</text>
</a>
</g>
</g>
<!-- Node4&#45;&gt;Node34 -->
<g id="edge53_Node000004_Node000034" class="edge">
<title>Node4&#45;&gt;Node34</title>
<g id="a_edge53_Node000004_Node000034"><a xlink:title=" ">
<path fill="none" stroke="#63b8ff" d="M289.02,-193.33C303.74,-188.82 321.36,-183.42 337.38,-178.51"/>
<polygon fill="#63b8ff" stroke="#63b8ff" points="338.18,-181.93 346.71,-175.65 336.13,-175.23 338.18,-181.93"/>
</a>
</g>
</g>
<!-- Node6 -->
<g id="Node000006" class="node">
<title>Node6</title>
<g id="a_Node000006"><a xlink:href="../../df/d95/a00299.html#a61b4f28456257f68ed042bed7f187efd" target="_top" xlink:title="Display a simple error message window or print to stderr.">
<polygon fill="white" stroke="#666666" points="527.38,-479.75 482.12,-479.75 482.12,-459 527.38,-459 527.38,-479.75"/>
<text xml:space="preserve" text-anchor="middle" x="504.75" y="-466.25" font-family="Helvetica,sans-Serif" font-size="10.00">Perror</text>
</a>
</g>
</g>
<!-- Node5&#45;&gt;Node6 -->
<g id="edge5_Node000005_Node000006" class="edge">
<title>Node5&#45;&gt;Node6</title>
<g id="a_edge5_Node000005_Node000006"><a xlink:title=" ">
<path fill="none" stroke="#63b8ff" d="M402.19,-404.1C421.82,-416.72 454.65,-437.82 477.65,-452.6"/>
<polygon fill="#63b8ff" stroke="#63b8ff" points="475.57,-455.42 485.87,-457.88 479.35,-449.53 475.57,-455.42"/>
</a>
</g>
</g>
<!-- Node7 -->
<g id="Node000007" class="node">
<title>Node7</title>
<g id="a_Node000007"><a xlink:href="../../df/d95/a00299.html#a8f6c45ca4a7f6a41c4c88314e697565a" target="_top" xlink:title="Abnormal program termination.">
<polygon fill="white" stroke="#666666" points="1054.12,-383.75 1008.12,-383.75 1008.12,-363 1054.12,-363 1054.12,-383.75"/>
<text xml:space="preserve" text-anchor="middle" x="1031.12" y="-370.25" font-family="Helvetica,sans-Serif" font-size="10.00">abend</text>
</a>
</g>
</g>
<!-- Node6&#45;&gt;Node7 -->
<g id="edge6_Node000006_Node000007" class="edge">
<title>Node6&#45;&gt;Node7</title>
<g id="a_edge6_Node000006_Node000007"><a xlink:title=" ">
<path fill="none" stroke="#63b8ff" d="M515.76,-479.88C529.65,-493.73 556.22,-517.72 584,-529.38 661.65,-561.96 892.38,-613.84 961.25,-565.38 1017.03,-526.12 1027.86,-437.24 1029.81,-395.64"/>
<polygon fill="#63b8ff" stroke="#63b8ff" points="1033.31,-395.75 1030.12,-385.64 1026.31,-395.53 1033.31,-395.75"/>
</a>
</g>
</g>
<!-- Node11 -->
<g id="Node000011" class="node">
<title>Node11</title>
<g id="a_Node000011"><a xlink:href="../../df/d95/a00299.html#a645871e46277e31736bc36d0f3dce4bd" target="_top" xlink:title="construct the chyron string from the chyron structure">
<polygon fill="white" stroke="#666666" points="961.25,-136.75 868,-136.75 868,-116 961.25,-116 961.25,-136.75"/>
<text xml:space="preserve" text-anchor="middle" x="914.62" y="-123.25" font-family="Helvetica,sans-Serif" font-size="10.00">compile_chyron</text>
</a>
</g>
</g>
<!-- Node6&#45;&gt;Node11 -->
<g id="edge12_Node000006_Node000011" class="edge">
<title>Node6&#45;&gt;Node11</title>
<g id="a_edge12_Node000006_Node000011"><a xlink:title=" ">
<path fill="none" stroke="#63b8ff" d="M507.56,-458.65C516.76,-404.9 558.79,-166.42 584,-145.38 623.92,-112.04 772.87,-116.42 856.22,-121.79"/>
<polygon fill="#63b8ff" stroke="#63b8ff" points="855.81,-125.27 866.02,-122.45 856.28,-118.29 855.81,-125.27"/>
</a>
</g>
</g>
<!-- Node13 -->
<g id="Node000013" class="node">
<title>Node13</title>
<g id="a_Node000013"><a xlink:href="../../df/d95/a00299.html#a3f3feb40fd703913c5c136331f627c91" target="_top" xlink:title="Destroy Chyron structure.">
<polygon fill="white" stroke="#666666" points="960.12,-556.75 869.12,-556.75 869.12,-536 960.12,-536 960.12,-556.75"/>
<text xml:space="preserve" text-anchor="middle" x="914.62" y="-543.25" font-family="Helvetica,sans-Serif" font-size="10.00">destroy_chyron</text>
</a>
</g>
</g>
<!-- Node6&#45;&gt;Node13 -->
<g id="edge14_Node000006_Node000013" class="edge">
<title>Node6&#45;&gt;Node13</title>
<g id="a_edge14_Node000006_Node000013"><a xlink:title=" ">
<path fill="none" stroke="#63b8ff" d="M526.1,-480.1C541.56,-487.78 563.59,-497.73 584,-503.38 677.8,-529.31 791.04,-539.74 857.42,-543.83"/>
<polygon fill="#63b8ff" stroke="#63b8ff" points="857.16,-547.32 867.34,-544.41 857.57,-540.33 857.16,-547.32"/>
</a>
</g>
</g>
<!-- Node14 -->
<g id="Node000014" class="node">
<title>Node14</title>
<g id="a_Node000014"><a xlink:href="../../df/d95/a00299.html#ad37d5808ff30ae6894780425d865abae" target="_top" xlink:title="Create and initialize Chyron structure.">
<polygon fill="white" stroke="#666666" points="951.88,-402.75 877.38,-402.75 877.38,-382 951.88,-382 951.88,-402.75"/>
<text xml:space="preserve" text-anchor="middle" x="914.62" y="-389.25" font-family="Helvetica,sans-Serif" font-size="10.00">new_chyron</text>
</a>
</g>
</g>
<!-- Node6&#45;&gt;Node14 -->
<g id="edge15_Node000006_Node000014" class="edge">
<title>Node6&#45;&gt;Node14</title>
<g id="a_edge15_Node000006_Node000014"><a xlink:title=" ">
<path fill="none" stroke="#63b8ff" d="M527.61,-466.08C580.23,-458.02 718.04,-436.26 832,-412.38 843.14,-410.04 855.07,-407.27 866.27,-404.55"/>
<polygon fill="#63b8ff" stroke="#63b8ff" points="866.83,-408.02 875.71,-402.22 865.16,-401.22 866.83,-408.02"/>
</a>
</g>
</g>
<!-- Node15 -->
<g id="Node000015" class="node">
<title>Node15</title>
<g id="a_Node000015"><a xlink:href="../../df/d95/a00299.html#a208ce92c197fdd6d2b007987e534aa3b" target="_top" xlink:title="Set chyron key.">
<polygon fill="white" stroke="#666666" points="960.5,-250.75 868.75,-250.75 868.75,-230 960.5,-230 960.5,-250.75"/>
<text xml:space="preserve" text-anchor="middle" x="914.62" y="-237.25" font-family="Helvetica,sans-Serif" font-size="10.00">set_chyron_key</text>
</a>
</g>
</g>
<!-- Node6&#45;&gt;Node15 -->
<g id="edge17_Node000006_Node000015" class="edge">
<title>Node6&#45;&gt;Node15</title>
<g id="a_edge17_Node000006_Node000015"><a xlink:title=" ">
<path fill="none" stroke="#63b8ff" d="M512.17,-458.51C524.08,-439.17 551.38,-398.55 584,-374.38 669.09,-311.31 788.06,-272.61 857.36,-253.93"/>
<polygon fill="#63b8ff" stroke="#63b8ff" points="858.22,-257.32 866.99,-251.38 856.43,-250.56 858.22,-257.32"/>
</a>
</g>
</g>
<!-- Node16 -->
<g id="Node000016" class="node">
<title>Node16</title>
<g id="a_Node000016"><a xlink:href="../../dc/d5d/a00278.html#a63eb94756fb011a456a3dec900709cd8" target="_top" xlink:title="ssnprintf was designed to be a safer alternative to snprintf.">
<polygon fill="white" stroke="#666666" points="1060.5,-250.75 1001.75,-250.75 1001.75,-230 1060.5,-230 1060.5,-250.75"/>
<text xml:space="preserve" text-anchor="middle" x="1031.12" y="-237.25" font-family="Helvetica,sans-Serif" font-size="10.00">ssnprintf</text>
</a>
</g>
</g>
<!-- Node6&#45;&gt;Node16 -->
<g id="edge19_Node000006_Node000016" class="edge">
<title>Node6&#45;&gt;Node16</title>
<g id="a_edge19_Node000006_Node000016"><a xlink:title=" ">
<path fill="none" stroke="#63b8ff" d="M507.72,-458.75C513.67,-429.67 534.22,-348.13 584,-305.38 683.86,-219.62 737.66,-239.77 868,-221.38 909.04,-215.58 920.18,-215.81 961.25,-221.38 970.78,-222.66 980.84,-224.91 990.26,-227.43"/>
<polygon fill="#63b8ff" stroke="#63b8ff" points="989.3,-230.79 999.87,-230.16 991.21,-224.06 989.3,-230.79"/>
</a>
</g>
</g>
<!-- Node17 -->
<g id="Node000017" class="node">
<title>Node17</title>
<g id="a_Node000017"><a xlink:href="../../dc/d5d/a00278.html#a0de2e40df9bd7efc8fd9afb8ad2257e6" target="_top" xlink:title="safer alternative to strncpy">
<polygon fill="white" stroke="#666666" points="1065,-555.75 997.25,-555.75 997.25,-535 1065,-535 1065,-555.75"/>
<text xml:space="preserve" text-anchor="middle" x="1031.12" y="-542.25" font-family="Helvetica,sans-Serif" font-size="10.00">strnz__cpy</text>
</a>
</g>
</g>
<!-- Node6&#45;&gt;Node17 -->
<g id="edge20_Node000006_Node000017" class="edge">
<title>Node6&#45;&gt;Node17</title>
<g id="a_edge20_Node000006_Node000017"><a xlink:title=" ">
<path fill="none" stroke="#63b8ff" d="M508.36,-479.94C515.39,-505.81 537.44,-572.16 584,-598.38 657.05,-639.5 881.88,-625.38 961.25,-598.38 981.21,-591.58 999.9,-576.41 1012.76,-564.04"/>
<polygon fill="#63b8ff" stroke="#63b8ff" points="1015.06,-566.69 1019.61,-557.12 1010.09,-561.76 1015.06,-566.69"/>
</a>
</g>
</g>
<!-- Node18 -->
<g id="Node000018" class="node">
<title>Node18</title>
<g id="a_Node000018"><a xlink:href="../../df/d95/a00299.html#a9dd598e1d49c8764af1eec42c682623e" target="_top" xlink:title="Delete the current window and its associated box window.">
<polygon fill="white" stroke="#666666" points="941.38,-517.75 887.88,-517.75 887.88,-497 941.38,-497 941.38,-517.75"/>
<text xml:space="preserve" text-anchor="middle" x="914.62" y="-504.25" font-family="Helvetica,sans-Serif" font-size="10.00">win_del</text>
</a>
</g>
</g>
<!-- Node6&#45;&gt;Node18 -->
<g id="edge21_Node000006_Node000018" class="edge">
<title>Node6&#45;&gt;Node18</title>
<g id="a_edge21_Node000006_Node000018"><a xlink:title=" ">
<path fill="none" stroke="#63b8ff" d="M527.58,-473.91C543.22,-477.01 564.83,-480.97 584,-483.38 689.41,-496.61 814.77,-503.25 876.08,-505.92"/>
<polygon fill="#63b8ff" stroke="#63b8ff" points="875.82,-509.41 885.96,-506.33 876.11,-502.42 875.82,-509.41"/>
</a>
</g>
</g>
<!-- Node19 -->
<g id="Node000019" class="node">
<title>Node19</title>
<g id="a_Node000019"><a xlink:href="../../df/d95/a00299.html#a435c7bff7ffedb8f51c6de9259e36f6c" target="_top" xlink:title="Create a new window with optional box and title.">
<polygon fill="white" stroke="#666666" points="944,-670.75 885.25,-670.75 885.25,-650 944,-650 944,-670.75"/>
<text xml:space="preserve" text-anchor="middle" x="914.62" y="-657.25" font-family="Helvetica,sans-Serif" font-size="10.00">win_new</text>
</a>
</g>
</g>
<!-- Node6&#45;&gt;Node19 -->
<g id="edge22_Node000006_Node000019" class="edge">
<title>Node6&#45;&gt;Node19</title>
<g id="a_edge22_Node000006_Node000019"><a xlink:title=" ">
<path fill="none" stroke="#63b8ff" d="M507.06,-479.92C511.44,-510.3 528.61,-598.26 584,-636.38 672.29,-697.12 807.22,-682 873.73,-669.38"/>
<polygon fill="#63b8ff" stroke="#63b8ff" points="874.33,-672.83 883.46,-667.45 872.97,-665.97 874.33,-672.83"/>
</a>
</g>
</g>
<!-- Node21 -->
<g id="Node000021" class="node">
<title>Node21</title>
<g id="a_Node000021"><a xlink:href="../../df/d95/a00299.html#acf4c709bccc4c965a5d61db978db31a3" target="_top" xlink:title="Wrapper for wgetch that handles signals and mouse events.">
<polygon fill="white" stroke="#666666" points="672.38,-403.75 615.12,-403.75 615.12,-383 672.38,-383 672.38,-403.75"/>
<text xml:space="preserve" text-anchor="middle" x="643.75" y="-390.25" font-family="Helvetica,sans-Serif" font-size="10.00">xwgetch</text>
</a>
</g>
</g>
<!-- Node6&#45;&gt;Node21 -->
<g id="edge25_Node000006_Node000021" class="edge">
<title>Node6&#45;&gt;Node21</title>
<g id="a_edge25_Node000006_Node000021"><a xlink:title=" ">
<path fill="none" stroke="#63b8ff" d="M525.09,-458.65C548.14,-445.86 586.89,-424.36 613.58,-409.56"/>
<polygon fill="#63b8ff" stroke="#63b8ff" points="615.14,-412.69 622.19,-404.78 611.74,-406.57 615.14,-412.69"/>
</a>
</g>
</g>
<!-- Node8 -->
<g id="Node000008" class="node">
<title>Node8</title>
<g id="a_Node000008"><a xlink:href="../../df/d95/a00299.html#afc0985a403e3eac0b2cd8f0fab500256" target="_top" xlink:title="Gracefully shut down NCurses and restore terminal settings.">
<polygon fill="white" stroke="#666666" points="1190.5,-365.75 1101,-365.75 1101,-345 1190.5,-345 1190.5,-365.75"/>
<text xml:space="preserve" text-anchor="middle" x="1145.75" y="-352.25" font-family="Helvetica,sans-Serif" font-size="10.00">destroy_curses</text>
</a>
</g>
</g>
<!-- Node7&#45;&gt;Node8 -->
<g id="edge7_Node000007_Node000008" class="edge">
<title>Node7&#45;&gt;Node8</title>
<g id="a_edge7_Node000007_Node000008"><a xlink:title=" ">
<path fill="none" stroke="#63b8ff" d="M1054.38,-369.82C1064.49,-368.2 1076.94,-366.21 1089.34,-364.23"/>
<polygon fill="#63b8ff" stroke="#63b8ff" points="1089.83,-367.7 1099.15,-362.66 1088.72,-360.79 1089.83,-367.7"/>
</a>
</g>
</g>
<!-- Node9 -->
<g id="Node000009" class="node">
<title>Node9</title>
<g id="a_Node000009"><a xlink:href="../../d6/de1/a00233.html#ac5e3adb304b78910fc77761ef6a743f0" target="_top" xlink:title="restore_shell_tioctl() &#45; restore shell terminal settings">
<polygon fill="white" stroke="#666666" points="1335.5,-403.75 1226.5,-403.75 1226.5,-383 1335.5,-383 1335.5,-403.75"/>
<text xml:space="preserve" text-anchor="middle" x="1281" y="-390.25" font-family="Helvetica,sans-Serif" font-size="10.00">restore_shell_tioctl</text>
</a>
</g>
</g>
<!-- Node7&#45;&gt;Node9 -->
<g id="edge10_Node000007_Node000009" class="edge">
<title>Node7&#45;&gt;Node9</title>
<g id="a_edge10_Node000007_Node000009"><a xlink:title=" ">
<path fill="none" stroke="#63b8ff" d="M1054.56,-375.19C1090.42,-378.08 1162,-383.85 1214.93,-388.12"/>
<polygon fill="#63b8ff" stroke="#63b8ff" points="1214.5,-391.6 1224.75,-388.92 1215.06,-384.62 1214.5,-391.6"/>
</a>
</g>
</g>
<!-- Node10 -->
<g id="Node000010" class="node">
<title>Node10</title>
<g id="a_Node000010"><a xlink:href="../../d1/da8/a00230.html#a06c1eb6cf3649dc187115565409f91af" target="_top" xlink:title="Set signal handlers to default behavior.">
<polygon fill="white" stroke="#666666" points="1321.62,-346.75 1240.38,-346.75 1240.38,-326 1321.62,-326 1321.62,-346.75"/>
<text xml:space="preserve" text-anchor="middle" x="1281" y="-333.25" font-family="Helvetica,sans-Serif" font-size="10.00">sig_dfl_mode</text>
</a>
</g>
</g>
<!-- Node7&#45;&gt;Node10 -->
<g id="edge11_Node000007_Node000010" class="edge">
<title>Node7&#45;&gt;Node10</title>
<g id="a_edge11_Node000007_Node000010"><a xlink:title=" ">
<path fill="none" stroke="#63b8ff" d="M1047.08,-362.51C1060.46,-353.51 1080.99,-341.41 1101,-336.38 1143.15,-325.77 1192.67,-326.75 1228.93,-329.83"/>
<polygon fill="#63b8ff" stroke="#63b8ff" points="1228.42,-333.29 1238.7,-330.75 1229.08,-326.33 1228.42,-333.29"/>
</a>
</g>
</g>
<!-- Node8&#45;&gt;Node9 -->
<g id="edge8_Node000008_Node000009" class="edge">
<title>Node8&#45;&gt;Node9</title>
<g id="a_edge8_Node000008_Node000009"><a xlink:title=" ">
<path fill="none" stroke="#63b8ff" d="M1184.58,-366.16C1199.07,-370.29 1215.8,-375.07 1231.18,-379.45"/>
<polygon fill="#63b8ff" stroke="#63b8ff" points="1230.05,-382.77 1240.62,-382.15 1231.97,-376.04 1230.05,-382.77"/>
</a>
</g>
</g>
<!-- Node8&#45;&gt;Node10 -->
<g id="edge9_Node000008_Node000010" class="edge">
<title>Node8&#45;&gt;Node10</title>
<g id="a_edge9_Node000008_Node000010"><a xlink:title=" ">
<path fill="none" stroke="#63b8ff" d="M1190.75,-349.1C1202.94,-347.36 1216.27,-345.46 1228.83,-343.67"/>
<polygon fill="#63b8ff" stroke="#63b8ff" points="1229.19,-347.16 1238.59,-342.28 1228.2,-340.23 1229.19,-347.16"/>
</a>
</g>
</g>
<!-- Node12 -->
<g id="Node000012" class="node">
<title>Node12</title>
<g id="a_Node000012"><a xlink:href="../../dc/d5d/a00278.html#aa0145c044cfdde3a1c83323410a59f25" target="_top" xlink:title="safer alternative to strncat">
<polygon fill="white" stroke="#666666" points="1063.88,-136.75 998.38,-136.75 998.38,-116 1063.88,-116 1063.88,-136.75"/>
<text xml:space="preserve" text-anchor="middle" x="1031.12" y="-123.25" font-family="Helvetica,sans-Serif" font-size="10.00">strnz__cat</text>
</a>
</g>
</g>
<!-- Node11&#45;&gt;Node12 -->
<g id="edge13_Node000011_Node000012" class="edge">
<title>Node11&#45;&gt;Node12</title>
<g id="a_edge13_Node000011_Node000012"><a xlink:title=" ">
<path fill="none" stroke="#63b8ff" d="M961.54,-126.38C969.83,-126.38 978.44,-126.38 986.66,-126.38"/>
<polygon fill="#63b8ff" stroke="#63b8ff" points="986.42,-129.88 996.42,-126.38 986.42,-122.88 986.42,-129.88"/>
</a>
</g>
</g>
<!-- Node14&#45;&gt;Node7 -->
<g id="edge16_Node000014_Node000007" class="edge">
<title>Node14&#45;&gt;Node7</title>
<g id="a_edge16_Node000014_Node000007"><a xlink:title=" ">
<path fill="none" stroke="#63b8ff" d="M952.17,-386.31C966.49,-383.94 982.8,-381.23 996.79,-378.91"/>
<polygon fill="#63b8ff" stroke="#63b8ff" points="997.11,-382.4 1006.41,-377.31 995.97,-375.5 997.11,-382.4"/>
</a>
</g>
</g>
<!-- Node15&#45;&gt;Node16 -->
<g id="edge18_Node000015_Node000016" class="edge">
<title>Node15&#45;&gt;Node16</title>
<g id="a_edge18_Node000015_Node000016"><a xlink:title=" ">
<path fill="none" stroke="#63b8ff" d="M960.88,-240.38C970.46,-240.38 980.51,-240.38 989.89,-240.38"/>
<polygon fill="#63b8ff" stroke="#63b8ff" points="989.82,-243.88 999.82,-240.38 989.82,-236.88 989.82,-243.88"/>
</a>
</g>
</g>
<!-- Node19&#45;&gt;Node17 -->
<g id="edge24_Node000019_Node000017" class="edge">
<title>Node19&#45;&gt;Node17</title>
<g id="a_edge24_Node000019_Node000017"><a xlink:title=" ">
<path fill="none" stroke="#63b8ff" d="M941.02,-649.52C947.98,-645.9 955.24,-641.47 961.25,-636.38 985.33,-615.95 1006.12,-585.69 1018.38,-565.76"/>
<polygon fill="#63b8ff" stroke="#63b8ff" points="1021.24,-567.8 1023.36,-557.42 1015.23,-564.21 1021.24,-567.8"/>
</a>
</g>
</g>
<!-- Node20 -->
<g id="Node000020" class="node">
<title>Node20</title>
<g id="a_Node000020"><a xlink:href="../../df/d95/a00299.html#ac9adcf7339be4a05ab1a7350c236b8a5" target="_top" xlink:title="Draw a box around the specified window.">
<polygon fill="white" stroke="#666666" points="1050.75,-670.75 1011.5,-670.75 1011.5,-650 1050.75,-650 1050.75,-670.75"/>
<text xml:space="preserve" text-anchor="middle" x="1031.12" y="-657.25" font-family="Helvetica,sans-Serif" font-size="10.00">cbox</text>
</a>
</g>
</g>
<!-- Node19&#45;&gt;Node20 -->
<g id="edge23_Node000019_Node000020" class="edge">
<title>Node19&#45;&gt;Node20</title>
<g id="a_edge23_Node000019_Node000020"><a xlink:title=" ">
<path fill="none" stroke="#63b8ff" d="M944.22,-660.38C961.15,-660.38 982.57,-660.38 999.79,-660.38"/>
<polygon fill="#63b8ff" stroke="#63b8ff" points="999.69,-663.88 1009.69,-660.38 999.69,-656.88 999.69,-663.88"/>
</a>
</g>
</g>
<!-- Node22 -->
<g id="Node000022" class="node">
<title>Node22</title>
<g id="a_Node000022"><a xlink:href="../../df/d95/a00299.html#a67659f8a701b74f4dec0d36227a10d1c" target="_top" xlink:title="Display an error message window or print to stderr.">
<polygon fill="white" stroke="#666666" points="825.62,-364.75 745.88,-364.75 745.88,-344 825.62,-344 825.62,-364.75"/>
<text xml:space="preserve" text-anchor="middle" x="785.75" y="-351.25" font-family="Helvetica,sans-Serif" font-size="10.00">display_error</text>
</a>
</g>
</g>
<!-- Node21&#45;&gt;Node22 -->
<g id="edge26_Node000021_Node000022" class="edge">
<title>Node21&#45;&gt;Node22</title>
<g id="a_edge26_Node000021_Node000022"><a xlink:title=" ">
<path fill="none" stroke="#63b8ff" d="M665.71,-382.55C683.88,-375.87 710.92,-367.83 734.64,-361.83"/>
<polygon fill="#63b8ff" stroke="#63b8ff" points="735.26,-365.28 744.14,-359.51 733.59,-358.49 735.26,-365.28"/>
</a>
</g>
</g>
<!-- Node24 -->
<g id="Node000024" class="node">
<title>Node24</title>
<g id="a_Node000024"><a xlink:href="../../df/d95/a00299.html#a4298f891699300bfc4e6e56fd2a8d574" target="_top" xlink:title="Get keycode from chyron.">
<polygon fill="white" stroke="#666666" points="832,-403.75 739.5,-403.75 739.5,-383 832,-383 832,-403.75"/>
<text xml:space="preserve" text-anchor="middle" x="785.75" y="-390.25" font-family="Helvetica,sans-Serif" font-size="10.00">get_chyron_key</text>
</a>
</g>
</g>
<!-- Node21&#45;&gt;Node24 -->
<g id="edge38_Node000021_Node000024" class="edge">
<title>Node21&#45;&gt;Node24</title>
<g id="a_edge38_Node000021_Node000024"><a xlink:title=" ">
<path fill="none" stroke="#63b8ff" d="M672.74,-393.38C688.55,-393.38 708.88,-393.38 727.87,-393.38"/>
<polygon fill="#63b8ff" stroke="#63b8ff" points="727.65,-396.88 737.65,-393.38 727.65,-389.88 727.65,-396.88"/>
</a>
</g>
</g>
<!-- Node25 -->
<g id="Node000025" class="node">
<title>Node25</title>
<g id="a_Node000025"><a xlink:href="../../d1/da8/a00230.html#a79c3e22498eb2346543aa9c86fd22e58" target="_top" xlink:title="Handle received signals and prompt user for action.">
<polygon fill="white" stroke="#666666" points="956.38,-441.75 872.88,-441.75 872.88,-421 956.38,-421 956.38,-441.75"/>
<text xml:space="preserve" text-anchor="middle" x="914.62" y="-428.25" font-family="Helvetica,sans-Serif" font-size="10.00">handle_signal</text>
</a>
</g>
</g>
<!-- Node21&#45;&gt;Node25 -->
<g id="edge39_Node000021_Node000025" class="edge">
<title>Node21&#45;&gt;Node25</title>
<g id="a_edge39_Node000021_Node000025"><a xlink:title=" ">
<path fill="none" stroke="#63b8ff" d="M672.83,-399.69C691.62,-403.75 716.95,-408.89 739.5,-412.38 780.27,-418.67 826.73,-423.63 861.4,-426.9"/>
<polygon fill="#63b8ff" stroke="#63b8ff" points="860.89,-430.37 871.17,-427.81 861.54,-423.4 860.89,-430.37"/>
</a>
</g>
</g>
<!-- Node22&#45;&gt;Node7 -->
<g id="edge27_Node000022_Node000007" class="edge">
<title>Node22&#45;&gt;Node7</title>
<g id="a_edge27_Node000022_Node000007"><a xlink:title=" ">
<path fill="none" stroke="#63b8ff" d="M826.12,-357.45C873.44,-361.14 952.03,-367.28 996.59,-370.76"/>
<polygon fill="#63b8ff" stroke="#63b8ff" points="996.18,-374.24 1006.43,-371.52 996.73,-367.26 996.18,-374.24"/>
</a>
</g>
</g>
<!-- Node22&#45;&gt;Node11 -->
<g id="edge28_Node000022_Node000011" class="edge">
<title>Node22&#45;&gt;Node11</title>
<g id="a_edge28_Node000022_Node000011"><a xlink:title=" ">
<path fill="none" stroke="#63b8ff" d="M792.7,-343.68C812.43,-308.23 875.93,-194.11 902.15,-147"/>
<polygon fill="#63b8ff" stroke="#63b8ff" points="905.15,-148.81 906.95,-138.37 899.03,-145.4 905.15,-148.81"/>
</a>
</g>
</g>
<!-- Node22&#45;&gt;Node13 -->
<g id="edge29_Node000022_Node000013" class="edge">
<title>Node22&#45;&gt;Node13</title>
<g id="a_edge29_Node000022_Node000013"><a xlink:title=" ">
<path fill="none" stroke="#63b8ff" d="M820.82,-365.15C825.03,-367.64 828.93,-370.68 832,-374.38 876.38,-427.76 823.54,-473.06 868,-526.38 868.68,-527.19 869.4,-527.97 870.15,-528.72"/>
<polygon fill="#63b8ff" stroke="#63b8ff" points="867.98,-531.47 878.07,-534.72 872.21,-525.89 867.98,-531.47"/>
</a>
</g>
</g>
<!-- Node22&#45;&gt;Node14 -->
<g id="edge30_Node000022_Node000014" class="edge">
<title>Node22&#45;&gt;Node14</title>
<g id="a_edge30_Node000022_Node000014"><a xlink:title=" ">
<path fill="none" stroke="#63b8ff" d="M822.77,-365.16C836.43,-369.25 852.19,-373.97 866.71,-378.32"/>
<polygon fill="#63b8ff" stroke="#63b8ff" points="865.48,-381.61 876.07,-381.13 867.49,-374.9 865.48,-381.61"/>
</a>
</g>
</g>
<!-- Node22&#45;&gt;Node15 -->
<g id="edge31_Node000022_Node000015" class="edge">
<title>Node22&#45;&gt;Node15</title>
<g id="a_edge31_Node000022_Node000015"><a xlink:title=" ">
<path fill="none" stroke="#63b8ff" d="M794.5,-343.55C807.89,-325.41 836.91,-288.52 868,-264.38 871.56,-261.61 875.48,-259.01 879.48,-256.61"/>
<polygon fill="#63b8ff" stroke="#63b8ff" points="881.07,-259.73 888.12,-251.82 877.68,-253.61 881.07,-259.73"/>
</a>
</g>
</g>
<!-- Node22&#45;&gt;Node16 -->
<g id="edge32_Node000022_Node000016" class="edge">
<title>Node22&#45;&gt;Node16</title>
<g id="a_edge32_Node000022_Node000016"><a xlink:title=" ">
<path fill="none" stroke="#63b8ff" d="M799.55,-343.71C814.99,-331.27 842.1,-310.69 868,-297.38 907.93,-276.84 956.94,-260.75 990.55,-250.98"/>
<polygon fill="#63b8ff" stroke="#63b8ff" points="991.22,-254.43 999.87,-248.32 989.3,-247.7 991.22,-254.43"/>
</a>
</g>
</g>
<!-- Node22&#45;&gt;Node17 -->
<g id="edge34_Node000022_Node000017" class="edge">
<title>Node22&#45;&gt;Node17</title>
<g id="a_edge34_Node000022_Node000017"><a xlink:title=" ">
<path fill="none" stroke="#63b8ff" d="M818.75,-365.02C823.56,-367.57 828.19,-370.66 832,-374.38 858.77,-400.46 840.85,-424.69 868,-450.38 900.51,-481.13 922.84,-465.4 961.25,-488.38 979.43,-499.25 997.81,-514.74 1011,-526.82"/>
<polygon fill="#63b8ff" stroke="#63b8ff" points="1008.44,-529.22 1018.13,-533.51 1013.23,-524.12 1008.44,-529.22"/>
</a>
</g>
</g>
<!-- Node22&#45;&gt;Node18 -->
<g id="edge35_Node000022_Node000018" class="edge">
<title>Node22&#45;&gt;Node18</title>
<g id="a_edge35_Node000022_Node000018"><a xlink:title=" ">
<path fill="none" stroke="#63b8ff" d="M820.08,-365.14C824.5,-367.64 828.65,-370.69 832,-374.38 866.28,-412.16 835.03,-444.45 868,-483.38 870.77,-486.64 874.09,-489.52 877.67,-492.05"/>
<polygon fill="#63b8ff" stroke="#63b8ff" points="875.84,-495.04 886.22,-497.16 879.43,-489.03 875.84,-495.04"/>
</a>
</g>
</g>
<!-- Node22&#45;&gt;Node19 -->
<g id="edge36_Node000022_Node000019" class="edge">
<title>Node22&#45;&gt;Node19</title>
<g id="a_edge36_Node000022_Node000019"><a xlink:title=" ">
<path fill="none" stroke="#63b8ff" d="M820.98,-365.02C825.17,-367.53 829.01,-370.61 832,-374.38 885.67,-442.06 841.07,-483.3 868,-565.38 876.77,-592.12 891.47,-621.02 901.81,-639.83"/>
<polygon fill="#63b8ff" stroke="#63b8ff" points="898.63,-641.32 906.58,-648.33 904.74,-637.89 898.63,-641.32"/>
</a>
</g>
</g>
<!-- Node22&#45;&gt;Node21 -->
<g id="edge37_Node000022_Node000021" class="edge">
<title>Node22&#45;&gt;Node21</title>
<g id="a_edge37_Node000022_Node000021"><a xlink:title=" ">
<path fill="none" stroke="#63b8ff" d="M763.65,-365.25C742.54,-373 709.57,-382.56 683.7,-388.65"/>
<polygon fill="#63b8ff" stroke="#63b8ff" points="683.21,-385.17 674.22,-390.77 684.75,-392 683.21,-385.17"/>
</a>
</g>
</g>
<!-- Node23 -->
<g id="Node000023" class="node">
<title>Node23</title>
<g id="a_Node000023"><a xlink:href="../../dc/d5d/a00278.html#a636608f26d1193b5d860f2312cd8ee49" target="_top" xlink:title="terminates string at New Line, Carriage Return, or max_len">
<polygon fill="white" stroke="#666666" points="934.62,-326.75 894.62,-326.75 894.62,-306 934.62,-306 934.62,-326.75"/>
<text xml:space="preserve" text-anchor="middle" x="914.62" y="-313.25" font-family="Helvetica,sans-Serif" font-size="10.00">strnz</text>
</a>
</g>
</g>
<!-- Node22&#45;&gt;Node23 -->
<g id="edge33_Node000022_Node000023" class="edge">
<title>Node22&#45;&gt;Node23</title>
<g id="a_edge33_Node000022_Node000023"><a xlink:title=" ">
<path fill="none" stroke="#63b8ff" d="M822.77,-343.59C841.97,-337.84 865.32,-330.84 883.54,-325.38"/>
<polygon fill="#63b8ff" stroke="#63b8ff" points="884.39,-328.79 892.96,-322.56 882.38,-322.08 884.39,-328.79"/>
</a>
</g>
</g>
<!-- Node25&#45;&gt;Node9 -->
<g id="edge40_Node000025_Node000009" class="edge">
<title>Node25&#45;&gt;Node9</title>
<g id="a_edge40_Node000025_Node000009"><a xlink:title=" ">
<path fill="none" stroke="#63b8ff" d="M956.72,-427.09C1019.56,-420.54 1140.12,-407.96 1214.94,-400.16"/>
<polygon fill="#63b8ff" stroke="#63b8ff" points="1215,-403.67 1224.58,-399.15 1214.27,-396.71 1215,-403.67"/>
</a>
</g>
</g>
<!-- Node25&#45;&gt;Node16 -->
<g id="edge41_Node000025_Node000016" class="edge">
<title>Node25&#45;&gt;Node16</title>
<g id="a_edge41_Node000025_Node000016"><a xlink:title=" ">
<path fill="none" stroke="#63b8ff" d="M948.55,-420.71C953.21,-418.18 957.64,-415.1 961.25,-411.38 982.81,-389.16 1011.11,-302.87 1023.66,-262.03"/>
<polygon fill="#63b8ff" stroke="#63b8ff" points="1026.97,-263.19 1026.52,-252.61 1020.27,-261.16 1026.97,-263.19"/>
</a>
</g>
</g>
<!-- Node25&#45;&gt;Node17 -->
<g id="edge42_Node000025_Node000017" class="edge">
<title>Node25&#45;&gt;Node17</title>
<g id="a_edge42_Node000025_Node000017"><a xlink:title=" ">
<path fill="none" stroke="#63b8ff" d="M940.53,-442.01C947.63,-445.67 955.09,-450.18 961.25,-455.38 985.1,-475.5 1005.84,-505.24 1018.16,-524.95"/>
<polygon fill="#63b8ff" stroke="#63b8ff" points="1015.14,-526.72 1023.33,-533.45 1021.13,-523.09 1015.14,-526.72"/>
</a>
</g>
</g>
<!-- Node27 -->
<g id="Node000027" class="node">
<title>Node27</title>
<g id="a_Node000027"><a xlink:href="../../dd/d52/a00221.html#a9fc984ba8ce6c4059b33a915d526357f" target="_top" xlink:title="Parse ANSI SGR Escape Sequence.">
<polygon fill="white" stroke="#666666" points="548,-98.75 461.5,-98.75 461.5,-78 548,-78 548,-98.75"/>
<text xml:space="preserve" text-anchor="middle" x="504.75" y="-85.25" font-family="Helvetica,sans-Serif" font-size="10.00">parse_ansi_str</text>
</a>
</g>
</g>
<!-- Node26&#45;&gt;Node27 -->
<g id="edge44_Node000026_Node000027" class="edge">
<title>Node26&#45;&gt;Node27</title>
<g id="a_edge44_Node000026_Node000027"><a xlink:title=" ">
<path fill="none" stroke="#63b8ff" d="M411.01,-192.63C416.05,-189.96 421.13,-186.86 425.5,-183.38 452.66,-161.73 476.88,-129.28 490.94,-108.46"/>
<polygon fill="#63b8ff" stroke="#63b8ff" points="493.75,-110.56 496.33,-100.28 487.9,-106.71 493.75,-110.56"/>
</a>
</g>
</g>
<!-- Node33 -->
<g id="Node000033" class="node">
<title>Node33</title>
<g id="a_Node000033"><a xlink:href="../../dc/d5d/a00278.html#a4f42956462e811d96c9fb881a85dada4" target="_top" xlink:title="Trims trailing spaces from string s in place.">
<polygon fill="white" stroke="#666666" points="524.75,-213.75 484.75,-213.75 484.75,-193 524.75,-193 524.75,-213.75"/>
<text xml:space="preserve" text-anchor="middle" x="504.75" y="-200.25" font-family="Helvetica,sans-Serif" font-size="10.00">rtrim</text>
</a>
</g>
</g>
<!-- Node26&#45;&gt;Node33 -->
<g id="edge52_Node000026_Node000033" class="edge">
<title>Node26&#45;&gt;Node33</title>
<g id="a_edge52_Node000026_Node000033"><a xlink:title=" ">
<path fill="none" stroke="#63b8ff" d="M413.22,-203.38C431.14,-203.38 454.48,-203.38 472.98,-203.38"/>
<polygon fill="#63b8ff" stroke="#63b8ff" points="472.81,-206.88 482.81,-203.38 472.81,-199.88 472.81,-206.88"/>
</a>
</g>
</g>
<!-- Node28 -->
<g id="Node000028" class="node">
<title>Node28</title>
<g id="a_Node000028"><a xlink:href="../../dc/d5d/a00278.html#ab96e4c73a7b3ba1310044b479733cdd9" target="_top" xlink:title="a safer alternative to atoi() for converting ASCII strings to integers.">
<polygon fill="white" stroke="#666666" points="663.75,-98.75 623.75,-98.75 623.75,-78 663.75,-78 663.75,-98.75"/>
<text xml:space="preserve" text-anchor="middle" x="643.75" y="-85.25" font-family="Helvetica,sans-Serif" font-size="10.00">a_toi</text>
</a>
</g>
</g>
<!-- Node27&#45;&gt;Node28 -->
<g id="edge45_Node000027_Node000028" class="edge">
<title>Node27&#45;&gt;Node28</title>
<g id="a_edge45_Node000027_Node000028"><a xlink:title=" ">
<path fill="none" stroke="#63b8ff" d="M548.35,-88.38C568.97,-88.38 593.26,-88.38 612.03,-88.38"/>
<polygon fill="#63b8ff" stroke="#63b8ff" points="611.97,-91.88 621.97,-88.38 611.97,-84.88 611.97,-91.88"/>
</a>
</g>
</g>
<!-- Node29 -->
<g id="Node000029" class="node">
<title>Node29</title>
<g id="a_Node000029"><a xlink:href="../../df/d95/a00299.html#af0ba4efbc81c259a2519ca41dd9d1599" target="_top" xlink:title="Get color pair index for foreground and background colors.">
<polygon fill="white" stroke="#666666" points="680.25,-174.75 607.25,-174.75 607.25,-154 680.25,-154 680.25,-174.75"/>
<text xml:space="preserve" text-anchor="middle" x="643.75" y="-161.25" font-family="Helvetica,sans-Serif" font-size="10.00">get_clr_pair</text>
</a>
</g>
</g>
<!-- Node27&#45;&gt;Node29 -->
<g id="edge46_Node000027_Node000029" class="edge">
<title>Node27&#45;&gt;Node29</title>
<g id="a_edge46_Node000027_Node000029"><a xlink:title=" ">
<path fill="none" stroke="#63b8ff" d="M525.09,-99.1C548.14,-111.89 586.89,-133.39 613.58,-148.19"/>
<polygon fill="#63b8ff" stroke="#63b8ff" points="611.74,-151.18 622.19,-152.97 615.14,-145.06 611.74,-151.18"/>
</a>
</g>
</g>
<!-- Node30 -->
<g id="Node000030" class="node">
<title>Node30</title>
<g id="a_Node000030"><a xlink:href="../../df/d95/a00299.html#a4900dd34e828972e58b0ca549cf7d4d8" target="_top" xlink:title="Get color index for RGB color.">
<polygon fill="white" stroke="#666666" points="694.12,-59.75 593.38,-59.75 593.38,-39 694.12,-39 694.12,-59.75"/>
<text xml:space="preserve" text-anchor="middle" x="643.75" y="-46.25" font-family="Helvetica,sans-Serif" font-size="10.00">rgb_to_curses_clr</text>
</a>
</g>
</g>
<!-- Node27&#45;&gt;Node30 -->
<g id="edge49_Node000027_Node000030" class="edge">
<title>Node27&#45;&gt;Node30</title>
<g id="a_edge49_Node000027_Node000030"><a xlink:title=" ">
<path fill="none" stroke="#63b8ff" d="M543.91,-77.51C559.35,-73.12 577.37,-67.99 593.76,-63.32"/>
<polygon fill="#63b8ff" stroke="#63b8ff" points="594.68,-66.7 603.34,-60.59 592.76,-59.97 594.68,-66.7"/>
</a>
</g>
</g>
<!-- Node32 -->
<g id="Node000032" class="node">
<title>Node32</title>
<g id="a_Node000032"><a xlink:href="../../df/d95/a00299.html#a31ee0d93c7b527f92559fc410152f768" target="_top" xlink:title="Convert XTerm 256 color index to RGB color.">
<polygon fill="white" stroke="#666666" points="703.5,-20.75 584,-20.75 584,0 703.5,0 703.5,-20.75"/>
<text xml:space="preserve" text-anchor="middle" x="643.75" y="-7.25" font-family="Helvetica,sans-Serif" font-size="10.00">xterm256_idx_to_rgb</text>
</a>
</g>
</g>
<!-- Node27&#45;&gt;Node32 -->
<g id="edge51_Node000027_Node000032" class="edge">
<title>Node27&#45;&gt;Node32</title>
<g id="a_edge51_Node000027_Node000032"><a xlink:title=" ">
<path fill="none" stroke="#63b8ff" d="M517.69,-77.66C532.39,-64.92 558.54,-43.73 584,-30.38 587.44,-28.57 591.08,-26.87 594.8,-25.3"/>
<polygon fill="#63b8ff" stroke="#63b8ff" points="595.91,-28.62 603.94,-21.71 593.36,-22.1 595.91,-28.62"/>
</a>
</g>
</g>
<!-- Node29&#45;&gt;Node16 -->
<g id="edge48_Node000029_Node000016" class="edge">
<title>Node29&#45;&gt;Node16</title>
<g id="a_edge48_Node000029_Node000016"><a xlink:title=" ">
<path fill="none" stroke="#63b8ff" d="M680.32,-160.73C740.41,-155.94 864.85,-151.96 961.25,-188.38 980.61,-195.69 999.13,-210.25 1012.08,-222.11"/>
<polygon fill="#63b8ff" stroke="#63b8ff" points="1009.35,-224.34 1019,-228.71 1014.19,-219.28 1009.35,-224.34"/>
</a>
</g>
</g>
<!-- Node29&#45;&gt;Node22 -->
<g id="edge47_Node000029_Node000022" class="edge">
<title>Node29&#45;&gt;Node22</title>
<g id="a_edge47_Node000029_Node000022"><a xlink:title=" ">
<path fill="none" stroke="#63b8ff" d="M652.68,-175.13C675.35,-205.9 740.69,-294.58 770.1,-334.49"/>
<polygon fill="#63b8ff" stroke="#63b8ff" points="767.26,-336.54 776.01,-342.51 772.9,-332.39 767.26,-336.54"/>
</a>
</g>
</g>
<!-- Node31 -->
<g id="Node000031" class="node">
<title>Node31</title>
<g id="a_Node000031"><a xlink:href="../../df/d95/a00299.html#aa3a6b291c0820d9da545325a2dba5274" target="_top" xlink:title="Apply gamma correction to RGB color.">
<polygon fill="white" stroke="#666666" points="828.62,-59.75 742.88,-59.75 742.88,-39 828.62,-39 828.62,-59.75"/>
<text xml:space="preserve" text-anchor="middle" x="785.75" y="-46.25" font-family="Helvetica,sans-Serif" font-size="10.00">apply_gamma</text>
</a>
</g>
</g>
<!-- Node30&#45;&gt;Node31 -->
<g id="edge50_Node000030_Node000031" class="edge">
<title>Node30&#45;&gt;Node31</title>
<g id="a_edge50_Node000030_Node000031"><a xlink:title=" ">
<path fill="none" stroke="#63b8ff" d="M694.5,-49.38C706.41,-49.38 719.18,-49.38 731.26,-49.38"/>
<polygon fill="#63b8ff" stroke="#63b8ff" points="731.05,-52.88 741.05,-49.38 731.05,-45.88 731.05,-52.88"/>
</a>
</g>
</g>
</g>
</svg>

<g id="navigator" transform="translate(0 0)" fill="#404254">
  <rect fill="#f2f5e9" fill-opacity="0.5" stroke="#606060" stroke-width=".5" x="0" y="0" width="60" height="60"/>
  <use id="zoomplus" xlink:href="#zoomPlus" x="17" y="9" onmousedown="handleZoom(evt,'in')"/>
  <use id="zoomminus" xlink:href="#zoomMin" x="42" y="9" onmousedown="handleZoom(evt,'out')"/>
  <use id="reset" xlink:href="#resetDef" x="30" y="36" onmousedown="handleReset()"/>
   <use id="arrowup" xlink:href="#arrowUp" x="0" y="0" onmousedown="handlePan(0,-1)"/>
  <use id="arrowright" xlink:href="#arrowRight" x="0" y="0" onmousedown="handlePan(1,0)"/>
  <use id="arrowdown" xlink:href="#arrowDown" x="0" y="0" onmousedown="handlePan(0,1)"/>
  <use id="arrowleft" xlink:href="#arrowLeft" x="0" y="0" onmousedown="handlePan(-1,0)"/>
</g>
<svg viewBox="0 0 15 15" width="100%" height="30px" preserveAspectRatio="xMaxYMin meet">
 <g id="arrow_out" transform="scale(0.3 0.3)">
  <a xlink:href="a00221_a46145f1d3680a48cb9391a8ae95db9ad_cgraph_org.svg" target="_base">
   <rect id="button" ry="5" rx="5" y="6" x="6" height="38" width="38"
        fill="#f2f5e9" fill-opacity="0.5" stroke="#606060" stroke-width="1.0"/>
   <path id="arrow"
     d="M 11.500037,31.436501 C 11.940474,20.09759 22.043105,11.32322 32.158766,21.979434 L 37.068811,17.246167 C 37.068811,17.246167 37.088388,32 37.088388,32 L 22.160133,31.978069 C 22.160133,31.978069 26.997745,27.140456 26.997745,27.140456 C 18.528582,18.264221 13.291696,25.230495 11.500037,31.436501 z"
     style="fill:#404040;"/>
  </a>
 </g>
</svg>

<style type='text/css'>
<![CDATA[
[data-mouse-over-selected='false'] { opacity: 0.7; }
[data-mouse-over-selected='true']  { opacity: 1.0; }
]]>
</style>
<script type="application/ecmascript"><![CDATA[
document.addEventListener('DOMContentLoaded', (event) => {
  highlightEdges();
  highlightAdjacentNodes();
});
]]></script>
</svg>
