<?xml version="1.0" encoding="UTF-8" standalone="no"?>
<!DOCTYPE svg PUBLIC "-//W3C//DTD SVG 1.1//EN"
 "http://www.w3.org/Graphics/SVG/1.1/DTD/svg11.dtd">
<!-- Generated by graphviz version 14.1.2 (0)
 -->
<!-- Title: scroll_down_n_lines Pages: 1 -->
<svg width="1172pt" height="690pt"
 viewBox="0.00 0.00 1172.00 690.00" xmlns="http://www.w3.org/2000/svg" xmlns:xlink="http://www.w3.org/1999/xlink">
<g id="graph0" class="graph" transform="scale(1 1) rotate(0) translate(4 685.51)">
<title>scroll_down_n_lines</title>
<!-- Node1 -->
<g id="Node000001" class="node">
<title>Node1</title>
<g id="a_Node000001"><a xlink:title="Scroll N Lines.">
<polygon fill="#999999" stroke="#666666" points="113.5,-269.75 0,-269.75 0,-249 113.5,-249 113.5,-269.75"/>
<text xml:space="preserve" text-anchor="middle" x="56.75" y="-256.25" font-family="Helvetica,sans-Serif" font-size="10.00">scroll_down_n_lines</text>
</a>
</g>
</g>
<!-- Node2 -->
<g id="Node000002" class="node">
<title>Node2</title>
<g id="a_Node000002"><a xlink:href="../../dd/d52/a00221.html#a16a4b855ead8402d4744e77a5504082a" target="_top" xlink:title="Display Line on Pad.">
<polygon fill="white" stroke="#666666" points="239,-404.75 164.5,-404.75 164.5,-384 239,-384 239,-404.75"/>
<text xml:space="preserve" text-anchor="middle" x="201.75" y="-391.25" font-family="Helvetica,sans-Serif" font-size="10.00">display_line</text>
</a>
</g>
</g>
<!-- Node1&#45;&gt;Node2 -->
<g id="edge1_Node000001_Node000002" class="edge">
<title>Node1&#45;&gt;Node2</title>
<g id="a_edge1_Node000001_Node000002"><a xlink:title=" ">
<path fill="none" stroke="#63b8ff" d="M68.97,-269.97C93.3,-292.94 151.15,-347.55 181.47,-376.17"/>
<polygon fill="#63b8ff" stroke="#63b8ff" points="178.81,-378.47 188.48,-382.79 183.61,-373.38 178.81,-378.47"/>
</a>
</g>
</g>
<!-- Node23 -->
<g id="Node000023" class="node">
<title>Node23</title>
<g id="a_Node000023"><a xlink:href="../../dd/d52/a00221.html#a747411d59b020ad11d4567ab0b3db8c2" target="_top" xlink:title="Format Line for Display.">
<polygon fill="white" stroke="#666666" points="230,-289.75 173.5,-289.75 173.5,-269 230,-269 230,-289.75"/>
<text xml:space="preserve" text-anchor="middle" x="201.75" y="-276.25" font-family="Helvetica,sans-Serif" font-size="10.00">fmt_line</text>
</a>
</g>
</g>
<!-- Node1&#45;&gt;Node23 -->
<g id="edge40_Node000001_Node000023" class="edge">
<title>Node1&#45;&gt;Node23</title>
<g id="a_edge40_Node000001_Node000023"><a xlink:title=" ">
<path fill="none" stroke="#63b8ff" d="M113.86,-267.22C129.91,-269.47 147.05,-271.86 161.83,-273.93"/>
<polygon fill="#63b8ff" stroke="#63b8ff" points="161.22,-277.38 171.61,-275.3 162.19,-270.45 161.22,-277.38"/>
</a>
</g>
</g>
<!-- Node31 -->
<g id="Node000031" class="node">
<title>Node31</title>
<g id="a_Node000031"><a xlink:href="../../dd/d52/a00221.html#a395b27e6a9716bf49e3fc04d53987b33" target="_top" xlink:title="Get Next Line from File.">
<polygon fill="white" stroke="#666666" points="242.75,-250.75 160.75,-250.75 160.75,-230 242.75,-230 242.75,-250.75"/>
<text xml:space="preserve" text-anchor="middle" x="201.75" y="-237.25" font-family="Helvetica,sans-Serif" font-size="10.00">get_next_line</text>
</a>
</g>
</g>
<!-- Node1&#45;&gt;Node31 -->
<g id="edge50_Node000001_Node000031" class="edge">
<title>Node1&#45;&gt;Node31</title>
<g id="a_edge50_Node000001_Node000031"><a xlink:title=" ">
<path fill="none" stroke="#63b8ff" d="M113.86,-251.92C125.48,-250.38 137.67,-248.76 149.12,-247.24"/>
<polygon fill="#63b8ff" stroke="#63b8ff" points="149.32,-250.74 158.77,-245.95 148.4,-243.8 149.32,-250.74"/>
</a>
</g>
</g>
<!-- Node32 -->
<g id="Node000032" class="node">
<title>Node32</title>
<g id="a_Node000032"><a xlink:href="../../dd/d52/a00221.html#af692bba071d771ceea47707fc26127bd" target="_top" xlink:title="Get Position of Next Line.">
<polygon fill="white" stroke="#666666" points="254,-211.75 149.5,-211.75 149.5,-191 254,-191 254,-211.75"/>
<text xml:space="preserve" text-anchor="middle" x="201.75" y="-198.25" font-family="Helvetica,sans-Serif" font-size="10.00">get_pos_next_line</text>
</a>
</g>
</g>
<!-- Node1&#45;&gt;Node32 -->
<g id="edge51_Node000001_Node000032" class="edge">
<title>Node1&#45;&gt;Node32</title>
<g id="a_edge51_Node000001_Node000032"><a xlink:title=" ">
<path fill="none" stroke="#63b8ff" d="M83.4,-248.59C101.77,-240.9 127.11,-230.38 149.5,-221.38 153.62,-219.72 157.93,-218 162.23,-216.31"/>
<polygon fill="#63b8ff" stroke="#63b8ff" points="163.34,-219.63 171.37,-212.72 160.78,-213.12 163.34,-219.63"/>
</a>
</g>
</g>
<!-- Node3 -->
<g id="Node000003" class="node">
<title>Node3</title>
<g id="a_Node000003"><a xlink:href="../../df/d95/a00299.html#a61b4f28456257f68ed042bed7f187efd" target="_top" xlink:title="Display a simple error message window or print to stderr.">
<polygon fill="white" stroke="#666666" points="355.88,-479.75 310.62,-479.75 310.62,-459 355.88,-459 355.88,-479.75"/>
<text xml:space="preserve" text-anchor="middle" x="333.25" y="-466.25" font-family="Helvetica,sans-Serif" font-size="10.00">Perror</text>
</a>
</g>
</g>
<!-- Node2&#45;&gt;Node3 -->
<g id="edge2_Node000002_Node000003" class="edge">
<title>Node2&#45;&gt;Node3</title>
<g id="a_edge2_Node000002_Node000003"><a xlink:title=" ">
<path fill="none" stroke="#63b8ff" d="M221.3,-405.12C242.94,-417.65 278.94,-438.5 304.04,-453.04"/>
<polygon fill="#63b8ff" stroke="#63b8ff" points="302.01,-455.91 312.42,-457.89 305.52,-449.85 302.01,-455.91"/>
</a>
</g>
</g>
<!-- Node4 -->
<g id="Node000004" class="node">
<title>Node4</title>
<g id="a_Node000004"><a xlink:href="../../df/d95/a00299.html#a8f6c45ca4a7f6a41c4c88314e697565a" target="_top" xlink:title="Abnormal program termination.">
<polygon fill="white" stroke="#666666" points="882.62,-383.75 836.62,-383.75 836.62,-363 882.62,-363 882.62,-383.75"/>
<text xml:space="preserve" text-anchor="middle" x="859.62" y="-370.25" font-family="Helvetica,sans-Serif" font-size="10.00">abend</text>
</a>
</g>
</g>
<!-- Node3&#45;&gt;Node4 -->
<g id="edge3_Node000003_Node000004" class="edge">
<title>Node3&#45;&gt;Node4</title>
<g id="a_edge3_Node000003_Node000004"><a xlink:title=" ">
<path fill="none" stroke="#63b8ff" d="M344.26,-479.88C358.15,-493.73 384.72,-517.72 412.5,-529.38 490.15,-561.96 720.88,-613.84 789.75,-565.38 845.53,-526.12 856.36,-437.24 858.31,-395.64"/>
<polygon fill="#63b8ff" stroke="#63b8ff" points="861.81,-395.75 858.62,-385.64 854.81,-395.53 861.81,-395.75"/>
</a>
</g>
</g>
<!-- Node8 -->
<g id="Node000008" class="node">
<title>Node8</title>
<g id="a_Node000008"><a xlink:href="../../df/d95/a00299.html#a645871e46277e31736bc36d0f3dce4bd" target="_top" xlink:title="construct the chyron string from the chyron structure">
<polygon fill="white" stroke="#666666" points="789.75,-136.75 696.5,-136.75 696.5,-116 789.75,-116 789.75,-136.75"/>
<text xml:space="preserve" text-anchor="middle" x="743.12" y="-123.25" font-family="Helvetica,sans-Serif" font-size="10.00">compile_chyron</text>
</a>
</g>
</g>
<!-- Node3&#45;&gt;Node8 -->
<g id="edge9_Node000003_Node000008" class="edge">
<title>Node3&#45;&gt;Node8</title>
<g id="a_edge9_Node000003_Node000008"><a xlink:title=" ">
<path fill="none" stroke="#63b8ff" d="M336.96,-458.58C343.73,-431.6 361.87,-359.02 376.5,-298.38 392.88,-230.47 359.01,-190.31 412.5,-145.38 452.32,-111.92 601.31,-116.35 684.7,-121.76"/>
<polygon fill="#63b8ff" stroke="#63b8ff" points="684.28,-125.24 694.5,-122.43 684.76,-118.26 684.28,-125.24"/>
</a>
</g>
</g>
<!-- Node10 -->
<g id="Node000010" class="node">
<title>Node10</title>
<g id="a_Node000010"><a xlink:href="../../df/d95/a00299.html#a3f3feb40fd703913c5c136331f627c91" target="_top" xlink:title="Destroy Chyron structure.">
<polygon fill="white" stroke="#666666" points="788.62,-556.75 697.62,-556.75 697.62,-536 788.62,-536 788.62,-556.75"/>
<text xml:space="preserve" text-anchor="middle" x="743.12" y="-543.25" font-family="Helvetica,sans-Serif" font-size="10.00">destroy_chyron</text>
</a>
</g>
</g>
<!-- Node3&#45;&gt;Node10 -->
<g id="edge11_Node000003_Node000010" class="edge">
<title>Node3&#45;&gt;Node10</title>
<g id="a_edge11_Node000003_Node000010"><a xlink:title=" ">
<path fill="none" stroke="#63b8ff" d="M354.6,-480.1C370.06,-487.78 392.09,-497.73 412.5,-503.38 506.3,-529.31 619.54,-539.74 685.92,-543.83"/>
<polygon fill="#63b8ff" stroke="#63b8ff" points="685.66,-547.32 695.84,-544.41 686.07,-540.33 685.66,-547.32"/>
</a>
</g>
</g>
<!-- Node11 -->
<g id="Node000011" class="node">
<title>Node11</title>
<g id="a_Node000011"><a xlink:href="../../df/d95/a00299.html#ad37d5808ff30ae6894780425d865abae" target="_top" xlink:title="Create and initialize Chyron structure.">
<polygon fill="white" stroke="#666666" points="780.38,-402.75 705.88,-402.75 705.88,-382 780.38,-382 780.38,-402.75"/>
<text xml:space="preserve" text-anchor="middle" x="743.12" y="-389.25" font-family="Helvetica,sans-Serif" font-size="10.00">new_chyron</text>
</a>
</g>
</g>
<!-- Node3&#45;&gt;Node11 -->
<g id="edge12_Node000003_Node000011" class="edge">
<title>Node3&#45;&gt;Node11</title>
<g id="a_edge12_Node000003_Node000011"><a xlink:title=" ">
<path fill="none" stroke="#63b8ff" d="M356.11,-466.08C408.73,-458.02 546.54,-436.26 660.5,-412.38 671.64,-410.04 683.57,-407.27 694.77,-404.55"/>
<polygon fill="#63b8ff" stroke="#63b8ff" points="695.33,-408.02 704.21,-402.22 693.66,-401.22 695.33,-408.02"/>
</a>
</g>
</g>
<!-- Node12 -->
<g id="Node000012" class="node">
<title>Node12</title>
<g id="a_Node000012"><a xlink:href="../../df/d95/a00299.html#a208ce92c197fdd6d2b007987e534aa3b" target="_top" xlink:title="Set chyron key.">
<polygon fill="white" stroke="#666666" points="789,-250.75 697.25,-250.75 697.25,-230 789,-230 789,-250.75"/>
<text xml:space="preserve" text-anchor="middle" x="743.12" y="-237.25" font-family="Helvetica,sans-Serif" font-size="10.00">set_chyron_key</text>
</a>
</g>
</g>
<!-- Node3&#45;&gt;Node12 -->
<g id="edge14_Node000003_Node000012" class="edge">
<title>Node3&#45;&gt;Node12</title>
<g id="a_edge14_Node000003_Node000012"><a xlink:title=" ">
<path fill="none" stroke="#63b8ff" d="M340.67,-458.51C352.58,-439.17 379.88,-398.55 412.5,-374.38 497.59,-311.31 616.56,-272.61 685.86,-253.93"/>
<polygon fill="#63b8ff" stroke="#63b8ff" points="686.72,-257.32 695.49,-251.38 684.93,-250.56 686.72,-257.32"/>
</a>
</g>
</g>
<!-- Node13 -->
<g id="Node000013" class="node">
<title>Node13</title>
<g id="a_Node000013"><a xlink:href="../../dc/d5d/a00278.html#a63eb94756fb011a456a3dec900709cd8" target="_top" xlink:title="ssnprintf was designed to be a safer alternative to snprintf.">
<polygon fill="white" stroke="#666666" points="889,-250.75 830.25,-250.75 830.25,-230 889,-230 889,-250.75"/>
<text xml:space="preserve" text-anchor="middle" x="859.62" y="-237.25" font-family="Helvetica,sans-Serif" font-size="10.00">ssnprintf</text>
</a>
</g>
</g>
<!-- Node3&#45;&gt;Node13 -->
<g id="edge16_Node000003_Node000013" class="edge">
<title>Node3&#45;&gt;Node13</title>
<g id="a_edge16_Node000003_Node000013"><a xlink:title=" ">
<path fill="none" stroke="#63b8ff" d="M336.22,-458.75C342.17,-429.67 362.72,-348.13 412.5,-305.38 512.36,-219.62 566.16,-239.77 696.5,-221.38 737.54,-215.58 748.68,-215.81 789.75,-221.38 799.28,-222.66 809.34,-224.91 818.76,-227.43"/>
<polygon fill="#63b8ff" stroke="#63b8ff" points="817.8,-230.79 828.37,-230.16 819.71,-224.06 817.8,-230.79"/>
</a>
</g>
</g>
<!-- Node14 -->
<g id="Node000014" class="node">
<title>Node14</title>
<g id="a_Node000014"><a xlink:href="../../dc/d5d/a00278.html#a0de2e40df9bd7efc8fd9afb8ad2257e6" target="_top" xlink:title="safer alternative to strncpy">
<polygon fill="white" stroke="#666666" points="893.5,-555.75 825.75,-555.75 825.75,-535 893.5,-535 893.5,-555.75"/>
<text xml:space="preserve" text-anchor="middle" x="859.62" y="-542.25" font-family="Helvetica,sans-Serif" font-size="10.00">strnz__cpy</text>
</a>
</g>
</g>
<!-- Node3&#45;&gt;Node14 -->
<g id="edge17_Node000003_Node000014" class="edge">
<title>Node3&#45;&gt;Node14</title>
<g id="a_edge17_Node000003_Node000014"><a xlink:title=" ">
<path fill="none" stroke="#63b8ff" d="M336.86,-479.94C343.89,-505.81 365.94,-572.16 412.5,-598.38 485.55,-639.5 710.38,-625.38 789.75,-598.38 809.71,-591.58 828.4,-576.41 841.26,-564.04"/>
<polygon fill="#63b8ff" stroke="#63b8ff" points="843.56,-566.69 848.11,-557.12 838.59,-561.76 843.56,-566.69"/>
</a>
</g>
</g>
<!-- Node15 -->
<g id="Node000015" class="node">
<title>Node15</title>
<g id="a_Node000015"><a xlink:href="../../df/d95/a00299.html#a9dd598e1d49c8764af1eec42c682623e" target="_top" xlink:title="Delete the current window and its associated box window.">
<polygon fill="white" stroke="#666666" points="769.88,-517.75 716.38,-517.75 716.38,-497 769.88,-497 769.88,-517.75"/>
<text xml:space="preserve" text-anchor="middle" x="743.12" y="-504.25" font-family="Helvetica,sans-Serif" font-size="10.00">win_del</text>
</a>
</g>
</g>
<!-- Node3&#45;&gt;Node15 -->
<g id="edge18_Node000003_Node000015" class="edge">
<title>Node3&#45;&gt;Node15</title>
<g id="a_edge18_Node000003_Node000015"><a xlink:title=" ">
<path fill="none" stroke="#63b8ff" d="M356.08,-473.91C371.72,-477.01 393.33,-480.97 412.5,-483.38 517.91,-496.61 643.27,-503.25 704.58,-505.92"/>
<polygon fill="#63b8ff" stroke="#63b8ff" points="704.32,-509.41 714.46,-506.33 704.61,-502.42 704.32,-509.41"/>
</a>
</g>
</g>
<!-- Node16 -->
<g id="Node000016" class="node">
<title>Node16</title>
<g id="a_Node000016"><a xlink:href="../../df/d95/a00299.html#a435c7bff7ffedb8f51c6de9259e36f6c" target="_top" xlink:title="Create a new window with optional box and title.">
<polygon fill="white" stroke="#666666" points="772.5,-670.75 713.75,-670.75 713.75,-650 772.5,-650 772.5,-670.75"/>
<text xml:space="preserve" text-anchor="middle" x="743.12" y="-657.25" font-family="Helvetica,sans-Serif" font-size="10.00">win_new</text>
</a>
</g>
</g>
<!-- Node3&#45;&gt;Node16 -->
<g id="edge19_Node000003_Node000016" class="edge">
<title>Node3&#45;&gt;Node16</title>
<g id="a_edge19_Node000003_Node000016"><a xlink:title=" ">
<path fill="none" stroke="#63b8ff" d="M335.56,-479.92C339.94,-510.3 357.11,-598.26 412.5,-636.38 500.79,-697.12 635.72,-682 702.23,-669.38"/>
<polygon fill="#63b8ff" stroke="#63b8ff" points="702.83,-672.83 711.96,-667.45 701.47,-665.97 702.83,-672.83"/>
</a>
</g>
</g>
<!-- Node18 -->
<g id="Node000018" class="node">
<title>Node18</title>
<g id="a_Node000018"><a xlink:href="../../df/d95/a00299.html#acf4c709bccc4c965a5d61db978db31a3" target="_top" xlink:title="Wrapper for wgetch that handles signals and mouse events.">
<polygon fill="white" stroke="#666666" points="500.88,-403.75 443.62,-403.75 443.62,-383 500.88,-383 500.88,-403.75"/>
<text xml:space="preserve" text-anchor="middle" x="472.25" y="-390.25" font-family="Helvetica,sans-Serif" font-size="10.00">xwgetch</text>
</a>
</g>
</g>
<!-- Node3&#45;&gt;Node18 -->
<g id="edge22_Node000003_Node000018" class="edge">
<title>Node3&#45;&gt;Node18</title>
<g id="a_edge22_Node000003_Node000018"><a xlink:title=" ">
<path fill="none" stroke="#63b8ff" d="M353.59,-458.65C376.64,-445.86 415.39,-424.36 442.08,-409.56"/>
<polygon fill="#63b8ff" stroke="#63b8ff" points="443.64,-412.69 450.69,-404.78 440.24,-406.57 443.64,-412.69"/>
</a>
</g>
</g>
<!-- Node5 -->
<g id="Node000005" class="node">
<title>Node5</title>
<g id="a_Node000005"><a xlink:href="../../df/d95/a00299.html#afc0985a403e3eac0b2cd8f0fab500256" target="_top" xlink:title="Gracefully shut down NCurses and restore terminal settings.">
<polygon fill="white" stroke="#666666" points="1019,-365.75 929.5,-365.75 929.5,-345 1019,-345 1019,-365.75"/>
<text xml:space="preserve" text-anchor="middle" x="974.25" y="-352.25" font-family="Helvetica,sans-Serif" font-size="10.00">destroy_curses</text>
</a>
</g>
</g>
<!-- Node4&#45;&gt;Node5 -->
<g id="edge4_Node000004_Node000005" class="edge">
<title>Node4&#45;&gt;Node5</title>
<g id="a_edge4_Node000004_Node000005"><a xlink:title=" ">
<path fill="none" stroke="#63b8ff" d="M882.88,-369.82C892.99,-368.2 905.44,-366.21 917.84,-364.23"/>
<polygon fill="#63b8ff" stroke="#63b8ff" points="918.33,-367.7 927.65,-362.66 917.22,-360.79 918.33,-367.7"/>
</a>
</g>
</g>
<!-- Node6 -->
<g id="Node000006" class="node">
<title>Node6</title>
<g id="a_Node000006"><a xlink:href="../../d6/de1/a00233.html#ac5e3adb304b78910fc77761ef6a743f0" target="_top" xlink:title="restore_shell_tioctl() &#45; restore shell terminal settings">
<polygon fill="white" stroke="#666666" points="1164,-403.75 1055,-403.75 1055,-383 1164,-383 1164,-403.75"/>
<text xml:space="preserve" text-anchor="middle" x="1109.5" y="-390.25" font-family="Helvetica,sans-Serif" font-size="10.00">restore_shell_tioctl</text>
</a>
</g>
</g>
<!-- Node4&#45;&gt;Node6 -->
<g id="edge7_Node000004_Node000006" class="edge">
<title>Node4&#45;&gt;Node6</title>
<g id="a_edge7_Node000004_Node000006"><a xlink:title=" ">
<path fill="none" stroke="#63b8ff" d="M883.06,-375.19C918.92,-378.08 990.5,-383.85 1043.43,-388.12"/>
<polygon fill="#63b8ff" stroke="#63b8ff" points="1043,-391.6 1053.25,-388.92 1043.56,-384.62 1043,-391.6"/>
</a>
</g>
</g>
<!-- Node7 -->
<g id="Node000007" class="node">
<title>Node7</title>
<g id="a_Node000007"><a xlink:href="../../d1/da8/a00230.html#a06c1eb6cf3649dc187115565409f91af" target="_top" xlink:title="Set signal handlers to default behavior.">
<polygon fill="white" stroke="#666666" points="1150.12,-346.75 1068.88,-346.75 1068.88,-326 1150.12,-326 1150.12,-346.75"/>
<text xml:space="preserve" text-anchor="middle" x="1109.5" y="-333.25" font-family="Helvetica,sans-Serif" font-size="10.00">sig_dfl_mode</text>
</a>
</g>
</g>
<!-- Node4&#45;&gt;Node7 -->
<g id="edge8_Node000004_Node000007" class="edge">
<title>Node4&#45;&gt;Node7</title>
<g id="a_edge8_Node000004_Node000007"><a xlink:title=" ">
<path fill="none" stroke="#63b8ff" d="M875.58,-362.51C888.96,-353.51 909.49,-341.41 929.5,-336.38 971.65,-325.77 1021.17,-326.75 1057.43,-329.83"/>
<polygon fill="#63b8ff" stroke="#63b8ff" points="1056.92,-333.29 1067.2,-330.75 1057.58,-326.33 1056.92,-333.29"/>
</a>
</g>
</g>
<!-- Node5&#45;&gt;Node6 -->
<g id="edge5_Node000005_Node000006" class="edge">
<title>Node5&#45;&gt;Node6</title>
<g id="a_edge5_Node000005_Node000006"><a xlink:title=" ">
<path fill="none" stroke="#63b8ff" d="M1013.08,-366.16C1027.57,-370.29 1044.3,-375.07 1059.68,-379.45"/>
<polygon fill="#63b8ff" stroke="#63b8ff" points="1058.55,-382.77 1069.12,-382.15 1060.47,-376.04 1058.55,-382.77"/>
</a>
</g>
</g>
<!-- Node5&#45;&gt;Node7 -->
<g id="edge6_Node000005_Node000007" class="edge">
<title>Node5&#45;&gt;Node7</title>
<g id="a_edge6_Node000005_Node000007"><a xlink:title=" ">
<path fill="none" stroke="#63b8ff" d="M1019.25,-349.1C1031.44,-347.36 1044.77,-345.46 1057.33,-343.67"/>
<polygon fill="#63b8ff" stroke="#63b8ff" points="1057.69,-347.16 1067.09,-342.28 1056.7,-340.23 1057.69,-347.16"/>
</a>
</g>
</g>
<!-- Node9 -->
<g id="Node000009" class="node">
<title>Node9</title>
<g id="a_Node000009"><a xlink:href="../../dc/d5d/a00278.html#aa0145c044cfdde3a1c83323410a59f25" target="_top" xlink:title="safer alternative to strncat">
<polygon fill="white" stroke="#666666" points="892.38,-136.75 826.88,-136.75 826.88,-116 892.38,-116 892.38,-136.75"/>
<text xml:space="preserve" text-anchor="middle" x="859.62" y="-123.25" font-family="Helvetica,sans-Serif" font-size="10.00">strnz__cat</text>
</a>
</g>
</g>
<!-- Node8&#45;&gt;Node9 -->
<g id="edge10_Node000008_Node000009" class="edge">
<title>Node8&#45;&gt;Node9</title>
<g id="a_edge10_Node000008_Node000009"><a xlink:title=" ">
<path fill="none" stroke="#63b8ff" d="M790.04,-126.38C798.33,-126.38 806.94,-126.38 815.16,-126.38"/>
<polygon fill="#63b8ff" stroke="#63b8ff" points="814.92,-129.88 824.92,-126.38 814.92,-122.88 814.92,-129.88"/>
</a>
</g>
</g>
<!-- Node11&#45;&gt;Node4 -->
<g id="edge13_Node000011_Node000004" class="edge">
<title>Node11&#45;&gt;Node4</title>
<g id="a_edge13_Node000011_Node000004"><a xlink:title=" ">
<path fill="none" stroke="#63b8ff" d="M780.67,-386.31C794.99,-383.94 811.3,-381.23 825.29,-378.91"/>
<polygon fill="#63b8ff" stroke="#63b8ff" points="825.61,-382.4 834.91,-377.31 824.47,-375.5 825.61,-382.4"/>
</a>
</g>
</g>
<!-- Node12&#45;&gt;Node13 -->
<g id="edge15_Node000012_Node000013" class="edge">
<title>Node12&#45;&gt;Node13</title>
<g id="a_edge15_Node000012_Node000013"><a xlink:title=" ">
<path fill="none" stroke="#63b8ff" d="M789.38,-240.38C798.96,-240.38 809.01,-240.38 818.39,-240.38"/>
<polygon fill="#63b8ff" stroke="#63b8ff" points="818.32,-243.88 828.32,-240.38 818.32,-236.88 818.32,-243.88"/>
</a>
</g>
</g>
<!-- Node16&#45;&gt;Node14 -->
<g id="edge21_Node000016_Node000014" class="edge">
<title>Node16&#45;&gt;Node14</title>
<g id="a_edge21_Node000016_Node000014"><a xlink:title=" ">
<path fill="none" stroke="#63b8ff" d="M769.52,-649.52C776.48,-645.9 783.74,-641.47 789.75,-636.38 813.83,-615.95 834.62,-585.69 846.88,-565.76"/>
<polygon fill="#63b8ff" stroke="#63b8ff" points="849.74,-567.8 851.86,-557.42 843.73,-564.21 849.74,-567.8"/>
</a>
</g>
</g>
<!-- Node17 -->
<g id="Node000017" class="node">
<title>Node17</title>
<g id="a_Node000017"><a xlink:href="../../df/d95/a00299.html#ac9adcf7339be4a05ab1a7350c236b8a5" target="_top" xlink:title="Draw a box around the specified window.">
<polygon fill="white" stroke="#666666" points="879.25,-670.75 840,-670.75 840,-650 879.25,-650 879.25,-670.75"/>
<text xml:space="preserve" text-anchor="middle" x="859.62" y="-657.25" font-family="Helvetica,sans-Serif" font-size="10.00">cbox</text>
</a>
</g>
</g>
<!-- Node16&#45;&gt;Node17 -->
<g id="edge20_Node000016_Node000017" class="edge">
<title>Node16&#45;&gt;Node17</title>
<g id="a_edge20_Node000016_Node000017"><a xlink:title=" ">
<path fill="none" stroke="#63b8ff" d="M772.72,-660.38C789.65,-660.38 811.07,-660.38 828.29,-660.38"/>
<polygon fill="#63b8ff" stroke="#63b8ff" points="828.19,-663.88 838.19,-660.38 828.19,-656.88 828.19,-663.88"/>
</a>
</g>
</g>
<!-- Node19 -->
<g id="Node000019" class="node">
<title>Node19</title>
<g id="a_Node000019"><a xlink:href="../../df/d95/a00299.html#a67659f8a701b74f4dec0d36227a10d1c" target="_top" xlink:title="Display an error message window or print to stderr.">
<polygon fill="white" stroke="#666666" points="654.12,-364.75 574.38,-364.75 574.38,-344 654.12,-344 654.12,-364.75"/>
<text xml:space="preserve" text-anchor="middle" x="614.25" y="-351.25" font-family="Helvetica,sans-Serif" font-size="10.00">display_error</text>
</a>
</g>
</g>
<!-- Node18&#45;&gt;Node19 -->
<g id="edge23_Node000018_Node000019" class="edge">
<title>Node18&#45;&gt;Node19</title>
<g id="a_edge23_Node000018_Node000019"><a xlink:title=" ">
<path fill="none" stroke="#63b8ff" d="M494.21,-382.55C512.38,-375.87 539.42,-367.83 563.14,-361.83"/>
<polygon fill="#63b8ff" stroke="#63b8ff" points="563.76,-365.28 572.64,-359.51 562.09,-358.49 563.76,-365.28"/>
</a>
</g>
</g>
<!-- Node21 -->
<g id="Node000021" class="node">
<title>Node21</title>
<g id="a_Node000021"><a xlink:href="../../df/d95/a00299.html#a4298f891699300bfc4e6e56fd2a8d574" target="_top" xlink:title="Get keycode from chyron.">
<polygon fill="white" stroke="#666666" points="660.5,-403.75 568,-403.75 568,-383 660.5,-383 660.5,-403.75"/>
<text xml:space="preserve" text-anchor="middle" x="614.25" y="-390.25" font-family="Helvetica,sans-Serif" font-size="10.00">get_chyron_key</text>
</a>
</g>
</g>
<!-- Node18&#45;&gt;Node21 -->
<g id="edge35_Node000018_Node000021" class="edge">
<title>Node18&#45;&gt;Node21</title>
<g id="a_edge35_Node000018_Node000021"><a xlink:title=" ">
<path fill="none" stroke="#63b8ff" d="M501.24,-393.38C517.05,-393.38 537.38,-393.38 556.37,-393.38"/>
<polygon fill="#63b8ff" stroke="#63b8ff" points="556.15,-396.88 566.15,-393.38 556.15,-389.88 556.15,-396.88"/>
</a>
</g>
</g>
<!-- Node22 -->
<g id="Node000022" class="node">
<title>Node22</title>
<g id="a_Node000022"><a xlink:href="../../d1/da8/a00230.html#a79c3e22498eb2346543aa9c86fd22e58" target="_top" xlink:title="Handle received signals and prompt user for action.">
<polygon fill="white" stroke="#666666" points="784.88,-441.75 701.38,-441.75 701.38,-421 784.88,-421 784.88,-441.75"/>
<text xml:space="preserve" text-anchor="middle" x="743.12" y="-428.25" font-family="Helvetica,sans-Serif" font-size="10.00">handle_signal</text>
</a>
</g>
</g>
<!-- Node18&#45;&gt;Node22 -->
<g id="edge36_Node000018_Node000022" class="edge">
<title>Node18&#45;&gt;Node22</title>
<g id="a_edge36_Node000018_Node000022"><a xlink:title=" ">
<path fill="none" stroke="#63b8ff" d="M501.33,-399.69C520.12,-403.75 545.45,-408.89 568,-412.38 608.77,-418.67 655.23,-423.63 689.9,-426.9"/>
<polygon fill="#63b8ff" stroke="#63b8ff" points="689.39,-430.37 699.67,-427.81 690.04,-423.4 689.39,-430.37"/>
</a>
</g>
</g>
<!-- Node19&#45;&gt;Node4 -->
<g id="edge24_Node000019_Node000004" class="edge">
<title>Node19&#45;&gt;Node4</title>
<g id="a_edge24_Node000019_Node000004"><a xlink:title=" ">
<path fill="none" stroke="#63b8ff" d="M654.62,-357.45C701.94,-361.14 780.53,-367.28 825.09,-370.76"/>
<polygon fill="#63b8ff" stroke="#63b8ff" points="824.68,-374.24 834.93,-371.52 825.23,-367.26 824.68,-374.24"/>
</a>
</g>
</g>
<!-- Node19&#45;&gt;Node8 -->
<g id="edge25_Node000019_Node000008" class="edge">
<title>Node19&#45;&gt;Node8</title>
<g id="a_edge25_Node000019_Node000008"><a xlink:title=" ">
<path fill="none" stroke="#63b8ff" d="M621.2,-343.68C640.93,-308.23 704.43,-194.11 730.65,-147"/>
<polygon fill="#63b8ff" stroke="#63b8ff" points="733.65,-148.81 735.45,-138.37 727.53,-145.4 733.65,-148.81"/>
</a>
</g>
</g>
<!-- Node19&#45;&gt;Node10 -->
<g id="edge26_Node000019_Node000010" class="edge">
<title>Node19&#45;&gt;Node10</title>
<g id="a_edge26_Node000019_Node000010"><a xlink:title=" ">
<path fill="none" stroke="#63b8ff" d="M649.32,-365.15C653.53,-367.64 657.43,-370.68 660.5,-374.38 704.88,-427.76 652.04,-473.06 696.5,-526.38 697.18,-527.19 697.9,-527.97 698.65,-528.72"/>
<polygon fill="#63b8ff" stroke="#63b8ff" points="696.48,-531.47 706.57,-534.72 700.71,-525.89 696.48,-531.47"/>
</a>
</g>
</g>
<!-- Node19&#45;&gt;Node11 -->
<g id="edge27_Node000019_Node000011" class="edge">
<title>Node19&#45;&gt;Node11</title>
<g id="a_edge27_Node000019_Node000011"><a xlink:title=" ">
<path fill="none" stroke="#63b8ff" d="M651.27,-365.16C664.93,-369.25 680.69,-373.97 695.21,-378.32"/>
<polygon fill="#63b8ff" stroke="#63b8ff" points="693.98,-381.61 704.57,-381.13 695.99,-374.9 693.98,-381.61"/>
</a>
</g>
</g>
<!-- Node19&#45;&gt;Node12 -->
<g id="edge28_Node000019_Node000012" class="edge">
<title>Node19&#45;&gt;Node12</title>
<g id="a_edge28_Node000019_Node000012"><a xlink:title=" ">
<path fill="none" stroke="#63b8ff" d="M623,-343.55C636.39,-325.41 665.41,-288.52 696.5,-264.38 700.06,-261.61 703.98,-259.01 707.98,-256.61"/>
<polygon fill="#63b8ff" stroke="#63b8ff" points="709.57,-259.73 716.62,-251.82 706.18,-253.61 709.57,-259.73"/>
</a>
</g>
</g>
<!-- Node19&#45;&gt;Node13 -->
<g id="edge29_Node000019_Node000013" class="edge">
<title>Node19&#45;&gt;Node13</title>
<g id="a_edge29_Node000019_Node000013"><a xlink:title=" ">
<path fill="none" stroke="#63b8ff" d="M628.05,-343.71C643.49,-331.27 670.6,-310.69 696.5,-297.38 736.43,-276.84 785.44,-260.75 819.05,-250.98"/>
<polygon fill="#63b8ff" stroke="#63b8ff" points="819.72,-254.43 828.37,-248.32 817.8,-247.7 819.72,-254.43"/>
</a>
</g>
</g>
<!-- Node19&#45;&gt;Node14 -->
<g id="edge31_Node000019_Node000014" class="edge">
<title>Node19&#45;&gt;Node14</title>
<g id="a_edge31_Node000019_Node000014"><a xlink:title=" ">
<path fill="none" stroke="#63b8ff" d="M647.25,-365.02C652.06,-367.57 656.69,-370.66 660.5,-374.38 687.27,-400.46 669.35,-424.69 696.5,-450.38 729.01,-481.13 751.34,-465.4 789.75,-488.38 807.93,-499.25 826.31,-514.74 839.5,-526.82"/>
<polygon fill="#63b8ff" stroke="#63b8ff" points="836.94,-529.22 846.63,-533.51 841.73,-524.12 836.94,-529.22"/>
</a>
</g>
</g>
<!-- Node19&#45;&gt;Node15 -->
<g id="edge32_Node000019_Node000015" class="edge">
<title>Node19&#45;&gt;Node15</title>
<g id="a_edge32_Node000019_Node000015"><a xlink:title=" ">
<path fill="none" stroke="#63b8ff" d="M648.58,-365.14C653,-367.64 657.15,-370.69 660.5,-374.38 694.78,-412.16 663.53,-444.45 696.5,-483.38 699.27,-486.64 702.59,-489.52 706.17,-492.05"/>
<polygon fill="#63b8ff" stroke="#63b8ff" points="704.34,-495.04 714.72,-497.16 707.93,-489.03 704.34,-495.04"/>
</a>
</g>
</g>
<!-- Node19&#45;&gt;Node16 -->
<g id="edge33_Node000019_Node000016" class="edge">
<title>Node19&#45;&gt;Node16</title>
<g id="a_edge33_Node000019_Node000016"><a xlink:title=" ">
<path fill="none" stroke="#63b8ff" d="M649.48,-365.02C653.67,-367.53 657.51,-370.61 660.5,-374.38 714.17,-442.06 669.57,-483.3 696.5,-565.38 705.27,-592.12 719.97,-621.02 730.31,-639.83"/>
<polygon fill="#63b8ff" stroke="#63b8ff" points="727.13,-641.32 735.08,-648.33 733.24,-637.89 727.13,-641.32"/>
</a>
</g>
</g>
<!-- Node19&#45;&gt;Node18 -->
<g id="edge34_Node000019_Node000018" class="edge">
<title>Node19&#45;&gt;Node18</title>
<g id="a_edge34_Node000019_Node000018"><a xlink:title=" ">
<path fill="none" stroke="#63b8ff" d="M592.15,-365.25C571.04,-373 538.07,-382.56 512.2,-388.65"/>
<polygon fill="#63b8ff" stroke="#63b8ff" points="511.71,-385.17 502.72,-390.77 513.25,-392 511.71,-385.17"/>
</a>
</g>
</g>
<!-- Node20 -->
<g id="Node000020" class="node">
<title>Node20</title>
<g id="a_Node000020"><a xlink:href="../../dc/d5d/a00278.html#a636608f26d1193b5d860f2312cd8ee49" target="_top" xlink:title="terminates string at New Line, Carriage Return, or max_len">
<polygon fill="white" stroke="#666666" points="763.12,-326.75 723.12,-326.75 723.12,-306 763.12,-306 763.12,-326.75"/>
<text xml:space="preserve" text-anchor="middle" x="743.12" y="-313.25" font-family="Helvetica,sans-Serif" font-size="10.00">strnz</text>
</a>
</g>
</g>
<!-- Node19&#45;&gt;Node20 -->
<g id="edge30_Node000019_Node000020" class="edge">
<title>Node19&#45;&gt;Node20</title>
<g id="a_edge30_Node000019_Node000020"><a xlink:title=" ">
<path fill="none" stroke="#63b8ff" d="M651.27,-343.59C670.47,-337.84 693.82,-330.84 712.04,-325.38"/>
<polygon fill="#63b8ff" stroke="#63b8ff" points="712.89,-328.79 721.46,-322.56 710.88,-322.08 712.89,-328.79"/>
</a>
</g>
</g>
<!-- Node22&#45;&gt;Node6 -->
<g id="edge37_Node000022_Node000006" class="edge">
<title>Node22&#45;&gt;Node6</title>
<g id="a_edge37_Node000022_Node000006"><a xlink:title=" ">
<path fill="none" stroke="#63b8ff" d="M785.22,-427.09C848.06,-420.54 968.62,-407.96 1043.44,-400.16"/>
<polygon fill="#63b8ff" stroke="#63b8ff" points="1043.5,-403.67 1053.08,-399.15 1042.77,-396.71 1043.5,-403.67"/>
</a>
</g>
</g>
<!-- Node22&#45;&gt;Node13 -->
<g id="edge38_Node000022_Node000013" class="edge">
<title>Node22&#45;&gt;Node13</title>
<g id="a_edge38_Node000022_Node000013"><a xlink:title=" ">
<path fill="none" stroke="#63b8ff" d="M777.05,-420.71C781.71,-418.18 786.14,-415.1 789.75,-411.38 811.31,-389.16 839.61,-302.87 852.16,-262.03"/>
<polygon fill="#63b8ff" stroke="#63b8ff" points="855.47,-263.19 855.02,-252.61 848.77,-261.16 855.47,-263.19"/>
</a>
</g>
</g>
<!-- Node22&#45;&gt;Node14 -->
<g id="edge39_Node000022_Node000014" class="edge">
<title>Node22&#45;&gt;Node14</title>
<g id="a_edge39_Node000022_Node000014"><a xlink:title=" ">
<path fill="none" stroke="#63b8ff" d="M769.03,-442.01C776.13,-445.67 783.59,-450.18 789.75,-455.38 813.6,-475.5 834.34,-505.24 846.66,-524.95"/>
<polygon fill="#63b8ff" stroke="#63b8ff" points="843.64,-526.72 851.83,-533.45 849.63,-523.09 843.64,-526.72"/>
</a>
</g>
</g>
<!-- Node24 -->
<g id="Node000024" class="node">
<title>Node24</title>
<g id="a_Node000024"><a xlink:href="../../dd/d52/a00221.html#a9fc984ba8ce6c4059b33a915d526357f" target="_top" xlink:title="Parse ANSI SGR Escape Sequence.">
<polygon fill="white" stroke="#666666" points="376.5,-98.75 290,-98.75 290,-78 376.5,-78 376.5,-98.75"/>
<text xml:space="preserve" text-anchor="middle" x="333.25" y="-85.25" font-family="Helvetica,sans-Serif" font-size="10.00">parse_ansi_str</text>
</a>
</g>
</g>
<!-- Node23&#45;&gt;Node24 -->
<g id="edge41_Node000023_Node000024" class="edge">
<title>Node23&#45;&gt;Node24</title>
<g id="a_edge41_Node000023_Node000024"><a xlink:title=" ">
<path fill="none" stroke="#63b8ff" d="M230.24,-272.99C238.65,-269.97 247.4,-265.61 254,-259.38 298.16,-217.66 319.47,-146.25 327.81,-110.35"/>
<polygon fill="#63b8ff" stroke="#63b8ff" points="331.2,-111.23 329.91,-100.72 324.36,-109.74 331.2,-111.23"/>
</a>
</g>
</g>
<!-- Node30 -->
<g id="Node000030" class="node">
<title>Node30</title>
<g id="a_Node000030"><a xlink:href="../../dc/d5d/a00278.html#a4f42956462e811d96c9fb881a85dada4" target="_top" xlink:title="Trims trailing spaces from string s in place.">
<polygon fill="white" stroke="#666666" points="353.25,-289.75 313.25,-289.75 313.25,-269 353.25,-269 353.25,-289.75"/>
<text xml:space="preserve" text-anchor="middle" x="333.25" y="-276.25" font-family="Helvetica,sans-Serif" font-size="10.00">rtrim</text>
</a>
</g>
</g>
<!-- Node23&#45;&gt;Node30 -->
<g id="edge49_Node000023_Node000030" class="edge">
<title>Node23&#45;&gt;Node30</title>
<g id="a_edge49_Node000023_Node000030"><a xlink:title=" ">
<path fill="none" stroke="#63b8ff" d="M230.21,-279.38C251.04,-279.38 279.67,-279.38 301.31,-279.38"/>
<polygon fill="#63b8ff" stroke="#63b8ff" points="301.31,-282.88 311.31,-279.38 301.31,-275.88 301.31,-282.88"/>
</a>
</g>
</g>
<!-- Node25 -->
<g id="Node000025" class="node">
<title>Node25</title>
<g id="a_Node000025"><a xlink:href="../../dc/d5d/a00278.html#ab96e4c73a7b3ba1310044b479733cdd9" target="_top" xlink:title="a safer alternative to atoi() for converting ASCII strings to integers.">
<polygon fill="white" stroke="#666666" points="492.25,-98.75 452.25,-98.75 452.25,-78 492.25,-78 492.25,-98.75"/>
<text xml:space="preserve" text-anchor="middle" x="472.25" y="-85.25" font-family="Helvetica,sans-Serif" font-size="10.00">a_toi</text>
</a>
</g>
</g>
<!-- Node24&#45;&gt;Node25 -->
<g id="edge42_Node000024_Node000025" class="edge">
<title>Node24&#45;&gt;Node25</title>
<g id="a_edge42_Node000024_Node000025"><a xlink:title=" ">
<path fill="none" stroke="#63b8ff" d="M376.85,-88.38C397.47,-88.38 421.76,-88.38 440.53,-88.38"/>
<polygon fill="#63b8ff" stroke="#63b8ff" points="440.47,-91.88 450.47,-88.38 440.47,-84.88 440.47,-91.88"/>
</a>
</g>
</g>
<!-- Node26 -->
<g id="Node000026" class="node">
<title>Node26</title>
<g id="a_Node000026"><a xlink:href="../../df/d95/a00299.html#af0ba4efbc81c259a2519ca41dd9d1599" target="_top" xlink:title="Get color pair index for foreground and background colors.">
<polygon fill="white" stroke="#666666" points="508.75,-174.75 435.75,-174.75 435.75,-154 508.75,-154 508.75,-174.75"/>
<text xml:space="preserve" text-anchor="middle" x="472.25" y="-161.25" font-family="Helvetica,sans-Serif" font-size="10.00">get_clr_pair</text>
</a>
</g>
</g>
<!-- Node24&#45;&gt;Node26 -->
<g id="edge43_Node000024_Node000026" class="edge">
<title>Node24&#45;&gt;Node26</title>
<g id="a_edge43_Node000024_Node000026"><a xlink:title=" ">
<path fill="none" stroke="#63b8ff" d="M353.59,-99.1C376.64,-111.89 415.39,-133.39 442.08,-148.19"/>
<polygon fill="#63b8ff" stroke="#63b8ff" points="440.24,-151.18 450.69,-152.97 443.64,-145.06 440.24,-151.18"/>
</a>
</g>
</g>
<!-- Node27 -->
<g id="Node000027" class="node">
<title>Node27</title>
<g id="a_Node000027"><a xlink:href="../../df/d95/a00299.html#a4900dd34e828972e58b0ca549cf7d4d8" target="_top" xlink:title="Get color index for RGB color.">
<polygon fill="white" stroke="#666666" points="522.62,-59.75 421.88,-59.75 421.88,-39 522.62,-39 522.62,-59.75"/>
<text xml:space="preserve" text-anchor="middle" x="472.25" y="-46.25" font-family="Helvetica,sans-Serif" font-size="10.00">rgb_to_curses_clr</text>
</a>
</g>
</g>
<!-- Node24&#45;&gt;Node27 -->
<g id="edge46_Node000024_Node000027" class="edge">
<title>Node24&#45;&gt;Node27</title>
<g id="a_edge46_Node000024_Node000027"><a xlink:title=" ">
<path fill="none" stroke="#63b8ff" d="M372.41,-77.51C387.85,-73.12 405.87,-67.99 422.26,-63.32"/>
<polygon fill="#63b8ff" stroke="#63b8ff" points="423.18,-66.7 431.84,-60.59 421.26,-59.97 423.18,-66.7"/>
</a>
</g>
</g>
<!-- Node29 -->
<g id="Node000029" class="node">
<title>Node29</title>
<g id="a_Node000029"><a xlink:href="../../df/d95/a00299.html#a31ee0d93c7b527f92559fc410152f768" target="_top" xlink:title="Convert XTerm 256 color index to RGB color.">
<polygon fill="white" stroke="#666666" points="532,-20.75 412.5,-20.75 412.5,0 532,0 532,-20.75"/>
<text xml:space="preserve" text-anchor="middle" x="472.25" y="-7.25" font-family="Helvetica,sans-Serif" font-size="10.00">xterm256_idx_to_rgb</text>
</a>
</g>
</g>
<!-- Node24&#45;&gt;Node29 -->
<g id="edge48_Node000024_Node000029" class="edge">
<title>Node24&#45;&gt;Node29</title>
<g id="a_edge48_Node000024_Node000029"><a xlink:title=" ">
<path fill="none" stroke="#63b8ff" d="M346.19,-77.66C360.89,-64.92 387.04,-43.73 412.5,-30.38 415.94,-28.57 419.58,-26.87 423.3,-25.3"/>
<polygon fill="#63b8ff" stroke="#63b8ff" points="424.41,-28.62 432.44,-21.71 421.86,-22.1 424.41,-28.62"/>
</a>
</g>
</g>
<!-- Node26&#45;&gt;Node13 -->
<g id="edge45_Node000026_Node000013" class="edge">
<title>Node26&#45;&gt;Node13</title>
<g id="a_edge45_Node000026_Node000013"><a xlink:title=" ">
<path fill="none" stroke="#63b8ff" d="M508.82,-160.73C568.91,-155.94 693.35,-151.96 789.75,-188.38 809.11,-195.69 827.63,-210.25 840.58,-222.11"/>
<polygon fill="#63b8ff" stroke="#63b8ff" points="837.85,-224.34 847.5,-228.71 842.69,-219.28 837.85,-224.34"/>
</a>
</g>
</g>
<!-- Node26&#45;&gt;Node19 -->
<g id="edge44_Node000026_Node000019" class="edge">
<title>Node26&#45;&gt;Node19</title>
<g id="a_edge44_Node000026_Node000019"><a xlink:title=" ">
<path fill="none" stroke="#63b8ff" d="M481.18,-175.13C503.85,-205.9 569.19,-294.58 598.6,-334.49"/>
<polygon fill="#63b8ff" stroke="#63b8ff" points="595.76,-336.54 604.51,-342.51 601.4,-332.39 595.76,-336.54"/>
</a>
</g>
</g>
<!-- Node28 -->
<g id="Node000028" class="node">
<title>Node28</title>
<g id="a_Node000028"><a xlink:href="../../df/d95/a00299.html#aa3a6b291c0820d9da545325a2dba5274" target="_top" xlink:title="Apply gamma correction to RGB color.">
<polygon fill="white" stroke="#666666" points="657.12,-59.75 571.38,-59.75 571.38,-39 657.12,-39 657.12,-59.75"/>
<text xml:space="preserve" text-anchor="middle" x="614.25" y="-46.25" font-family="Helvetica,sans-Serif" font-size="10.00">apply_gamma</text>
</a>
</g>
</g>
<!-- Node27&#45;&gt;Node28 -->
<g id="edge47_Node000027_Node000028" class="edge">
<title>Node27&#45;&gt;Node28</title>
<g id="a_edge47_Node000027_Node000028"><a xlink:title=" ">
<path fill="none" stroke="#63b8ff" d="M523,-49.38C534.91,-49.38 547.68,-49.38 559.76,-49.38"/>
<polygon fill="#63b8ff" stroke="#63b8ff" points="559.55,-52.88 569.55,-49.38 559.55,-45.88 559.55,-52.88"/>
</a>
</g>
</g>
</g>
</svg>
