<?xml version="1.0" encoding="UTF-8" standalone="no"?>
<!DOCTYPE svg PUBLIC "-//W3C//DTD SVG 1.1//EN"
 "http://www.w3.org/Graphics/SVG/1.1/DTD/svg11.dtd">
<!-- Generated by graphviz version 14.1.2 (0)
 -->
<!-- Title: go_to_line Pages: 1 -->
<svg width="1366pt" height="690pt"
 viewBox="0.00 0.00 1366.00 690.00" xmlns="http://www.w3.org/2000/svg" xmlns:xlink="http://www.w3.org/1999/xlink">
<g id="graph0" class="graph" transform="scale(1 1) rotate(0) translate(4 685.51)">
<title>go_to_line</title>
<!-- Node1 -->
<g id="Node000001" class="node">
<title>Node1</title>
<g id="a_Node000001"><a xlink:title="Go to Specific Line.">
<polygon fill="#999999" stroke="#666666" points="66.25,-431.75 0,-431.75 0,-411 66.25,-411 66.25,-431.75"/>
<text xml:space="preserve" text-anchor="middle" x="33.12" y="-418.25" font-family="Helvetica,sans-Serif" font-size="10.00">go_to_line</text>
</a>
</g>
</g>
<!-- Node2 -->
<g id="Node000002" class="node">
<title>Node2</title>
<g id="a_Node000002"><a xlink:href="../../dd/d52/a00221.html#a5f74dca8730faaa3ff362fc1e01b12ce" target="_top" xlink:title="Go to Specific File Position.">
<polygon fill="white" stroke="#666666" points="189.5,-431.75 102.25,-431.75 102.25,-411 189.5,-411 189.5,-431.75"/>
<text xml:space="preserve" text-anchor="middle" x="145.88" y="-418.25" font-family="Helvetica,sans-Serif" font-size="10.00">go_to_position</text>
</a>
</g>
</g>
<!-- Node1&#45;&gt;Node2 -->
<g id="edge1_Node000001_Node000002" class="edge">
<title>Node1&#45;&gt;Node2</title>
<g id="a_edge1_Node000001_Node000002"><a xlink:title=" ">
<path fill="none" stroke="#63b8ff" d="M66.46,-421.38C74.09,-421.38 82.44,-421.38 90.76,-421.38"/>
<polygon fill="#63b8ff" stroke="#63b8ff" points="90.48,-424.88 100.48,-421.38 90.48,-417.88 90.48,-424.88"/>
</a>
</g>
</g>
<!-- Node5 -->
<g id="Node000005" class="node">
<title>Node5</title>
<g id="a_Node000005"><a xlink:href="../../df/d95/a00299.html#a61b4f28456257f68ed042bed7f187efd" target="_top" xlink:title="Display a simple error message window or print to stderr.">
<polygon fill="white" stroke="#666666" points="549.88,-479.75 504.62,-479.75 504.62,-459 549.88,-459 549.88,-479.75"/>
<text xml:space="preserve" text-anchor="middle" x="527.25" y="-466.25" font-family="Helvetica,sans-Serif" font-size="10.00">Perror</text>
</a>
</g>
</g>
<!-- Node1&#45;&gt;Node5 -->
<g id="edge53_Node000001_Node000005" class="edge">
<title>Node1&#45;&gt;Node5</title>
<g id="a_edge53_Node000001_Node000005"><a xlink:title=" ">
<path fill="none" stroke="#63b8ff" d="M66.74,-431.92C77.89,-435.14 90.51,-438.36 102.25,-440.38 246.26,-465.12 421.21,-468.93 493.04,-469.39"/>
<polygon fill="#63b8ff" stroke="#63b8ff" points="492.91,-472.89 502.93,-469.44 492.95,-465.89 492.91,-472.89"/>
</a>
</g>
</g>
<!-- Node34 -->
<g id="Node000034" class="node">
<title>Node34</title>
<g id="a_Node000034"><a xlink:href="../../dd/d52/a00221.html#a5dbc34981815690a92812e34d1cf478f" target="_top" xlink:title="display previous page">
<polygon fill="white" stroke="#666666" points="179.38,-392.75 112.38,-392.75 112.38,-372 179.38,-372 179.38,-392.75"/>
<text xml:space="preserve" text-anchor="middle" x="145.88" y="-379.25" font-family="Helvetica,sans-Serif" font-size="10.00">prev_page</text>
</a>
</g>
</g>
<!-- Node1&#45;&gt;Node34 -->
<g id="edge54_Node000001_Node000034" class="edge">
<title>Node1&#45;&gt;Node34</title>
<g id="a_edge54_Node000001_Node000034"><a xlink:title=" ">
<path fill="none" stroke="#63b8ff" d="M64.98,-410.51C76.86,-406.33 90.62,-401.48 103.35,-397"/>
<polygon fill="#63b8ff" stroke="#63b8ff" points="104.49,-400.31 112.76,-393.68 102.17,-393.7 104.49,-400.31"/>
</a>
</g>
</g>
<!-- Node3 -->
<g id="Node000003" class="node">
<title>Node3</title>
<g id="a_Node000003"><a xlink:href="../../dd/d52/a00221.html#acf1bfbd6d2fd4ad9a0385009ef25015c" target="_top" xlink:title="Advance to Next Page.">
<polygon fill="white" stroke="#666666" points="311.25,-412.75 244.25,-412.75 244.25,-392 311.25,-392 311.25,-412.75"/>
<text xml:space="preserve" text-anchor="middle" x="277.75" y="-399.25" font-family="Helvetica,sans-Serif" font-size="10.00">next_page</text>
</a>
</g>
</g>
<!-- Node2&#45;&gt;Node3 -->
<g id="edge2_Node000002_Node000003" class="edge">
<title>Node2&#45;&gt;Node3</title>
<g id="a_edge2_Node000002_Node000003"><a xlink:title=" ">
<path fill="none" stroke="#63b8ff" d="M189.76,-415.1C203.5,-413.09 218.73,-410.86 232.56,-408.84"/>
<polygon fill="#63b8ff" stroke="#63b8ff" points="232.9,-412.33 242.29,-407.42 231.89,-405.4 232.9,-412.33"/>
</a>
</g>
</g>
<!-- Node4 -->
<g id="Node000004" class="node">
<title>Node4</title>
<g id="a_Node000004"><a xlink:href="../../dd/d52/a00221.html#a16a4b855ead8402d4744e77a5504082a" target="_top" xlink:title="Display Line on Pad.">
<polygon fill="white" stroke="#666666" points="444.25,-402.75 369.75,-402.75 369.75,-382 444.25,-382 444.25,-402.75"/>
<text xml:space="preserve" text-anchor="middle" x="407" y="-389.25" font-family="Helvetica,sans-Serif" font-size="10.00">display_line</text>
</a>
</g>
</g>
<!-- Node3&#45;&gt;Node4 -->
<g id="edge3_Node000003_Node000004" class="edge">
<title>Node3&#45;&gt;Node4</title>
<g id="a_edge3_Node000003_Node000004"><a xlink:title=" ">
<path fill="none" stroke="#63b8ff" d="M311.52,-399.8C325.74,-398.68 342.68,-397.35 358.26,-396.13"/>
<polygon fill="#63b8ff" stroke="#63b8ff" points="358.1,-399.65 367.79,-395.38 357.55,-392.67 358.1,-399.65"/>
</a>
</g>
</g>
<!-- Node25 -->
<g id="Node000025" class="node">
<title>Node25</title>
<g id="a_Node000025"><a xlink:href="../../dd/d52/a00221.html#a747411d59b020ad11d4567ab0b3db8c2" target="_top" xlink:title="Format Line for Display.">
<polygon fill="white" stroke="#666666" points="435.25,-250.75 378.75,-250.75 378.75,-230 435.25,-230 435.25,-250.75"/>
<text xml:space="preserve" text-anchor="middle" x="407" y="-237.25" font-family="Helvetica,sans-Serif" font-size="10.00">fmt_line</text>
</a>
</g>
</g>
<!-- Node3&#45;&gt;Node25 -->
<g id="edge42_Node000003_Node000025" class="edge">
<title>Node3&#45;&gt;Node25</title>
<g id="a_edge42_Node000003_Node000025"><a xlink:title=" ">
<path fill="none" stroke="#63b8ff" d="M311.61,-393.53C318.2,-390.72 324.71,-387.07 330,-382.38 367.67,-348.95 389.95,-292.28 399.85,-261.61"/>
<polygon fill="#63b8ff" stroke="#63b8ff" points="403.11,-262.92 402.7,-252.33 396.42,-260.86 403.11,-262.92"/>
</a>
</g>
</g>
<!-- Node33 -->
<g id="Node000033" class="node">
<title>Node33</title>
<g id="a_Node000033"><a xlink:href="../../dd/d52/a00221.html#a395b27e6a9716bf49e3fc04d53987b33" target="_top" xlink:title="Get Next Line from File.">
<polygon fill="white" stroke="#666666" points="448,-441.75 366,-441.75 366,-421 448,-421 448,-441.75"/>
<text xml:space="preserve" text-anchor="middle" x="407" y="-428.25" font-family="Helvetica,sans-Serif" font-size="10.00">get_next_line</text>
</a>
</g>
</g>
<!-- Node3&#45;&gt;Node33 -->
<g id="edge52_Node000003_Node000033" class="edge">
<title>Node3&#45;&gt;Node33</title>
<g id="a_edge52_Node000003_Node000033"><a xlink:title=" ">
<path fill="none" stroke="#63b8ff" d="M311.52,-409.84C324.66,-412.84 340.13,-416.36 354.69,-419.68"/>
<polygon fill="#63b8ff" stroke="#63b8ff" points="353.6,-423.02 364.13,-421.83 355.16,-416.2 353.6,-423.02"/>
</a>
</g>
</g>
<!-- Node4&#45;&gt;Node5 -->
<g id="edge4_Node000004_Node000005" class="edge">
<title>Node4&#45;&gt;Node5</title>
<g id="a_edge4_Node000004_Node000005"><a xlink:title=" ">
<path fill="none" stroke="#63b8ff" d="M431.2,-403.16C436.8,-405.98 442.69,-409.15 448,-412.38 467.74,-424.38 488.84,-439.93 504.15,-451.76"/>
<polygon fill="#63b8ff" stroke="#63b8ff" points="501.65,-454.24 511.68,-457.64 505.96,-448.72 501.65,-454.24"/>
</a>
</g>
</g>
<!-- Node6 -->
<g id="Node000006" class="node">
<title>Node6</title>
<g id="a_Node000006"><a xlink:href="../../df/d95/a00299.html#a8f6c45ca4a7f6a41c4c88314e697565a" target="_top" xlink:title="Abnormal program termination.">
<polygon fill="white" stroke="#666666" points="1076.62,-383.75 1030.62,-383.75 1030.62,-363 1076.62,-363 1076.62,-383.75"/>
<text xml:space="preserve" text-anchor="middle" x="1053.62" y="-370.25" font-family="Helvetica,sans-Serif" font-size="10.00">abend</text>
</a>
</g>
</g>
<!-- Node5&#45;&gt;Node6 -->
<g id="edge5_Node000005_Node000006" class="edge">
<title>Node5&#45;&gt;Node6</title>
<g id="a_edge5_Node000005_Node000006"><a xlink:title=" ">
<path fill="none" stroke="#63b8ff" d="M538.26,-479.88C552.15,-493.73 578.72,-517.72 606.5,-529.38 684.15,-561.96 914.88,-613.84 983.75,-565.38 1039.53,-526.12 1050.36,-437.24 1052.31,-395.64"/>
<polygon fill="#63b8ff" stroke="#63b8ff" points="1055.81,-395.75 1052.62,-385.64 1048.81,-395.53 1055.81,-395.75"/>
</a>
</g>
</g>
<!-- Node10 -->
<g id="Node000010" class="node">
<title>Node10</title>
<g id="a_Node000010"><a xlink:href="../../df/d95/a00299.html#a645871e46277e31736bc36d0f3dce4bd" target="_top" xlink:title="construct the chyron string from the chyron structure">
<polygon fill="white" stroke="#666666" points="983.75,-136.75 890.5,-136.75 890.5,-116 983.75,-116 983.75,-136.75"/>
<text xml:space="preserve" text-anchor="middle" x="937.12" y="-123.25" font-family="Helvetica,sans-Serif" font-size="10.00">compile_chyron</text>
</a>
</g>
</g>
<!-- Node5&#45;&gt;Node10 -->
<g id="edge11_Node000005_Node000010" class="edge">
<title>Node5&#45;&gt;Node10</title>
<g id="a_edge11_Node000005_Node000010"><a xlink:title=" ">
<path fill="none" stroke="#63b8ff" d="M530.47,-458.61C541.89,-403.6 593.87,-155.92 606.5,-145.38 646.42,-112.04 795.37,-116.42 878.72,-121.79"/>
<polygon fill="#63b8ff" stroke="#63b8ff" points="878.31,-125.27 888.52,-122.45 878.78,-118.29 878.31,-125.27"/>
</a>
</g>
</g>
<!-- Node12 -->
<g id="Node000012" class="node">
<title>Node12</title>
<g id="a_Node000012"><a xlink:href="../../df/d95/a00299.html#a3f3feb40fd703913c5c136331f627c91" target="_top" xlink:title="Destroy Chyron structure.">
<polygon fill="white" stroke="#666666" points="982.62,-556.75 891.62,-556.75 891.62,-536 982.62,-536 982.62,-556.75"/>
<text xml:space="preserve" text-anchor="middle" x="937.12" y="-543.25" font-family="Helvetica,sans-Serif" font-size="10.00">destroy_chyron</text>
</a>
</g>
</g>
<!-- Node5&#45;&gt;Node12 -->
<g id="edge13_Node000005_Node000012" class="edge">
<title>Node5&#45;&gt;Node12</title>
<g id="a_edge13_Node000005_Node000012"><a xlink:title=" ">
<path fill="none" stroke="#63b8ff" d="M548.6,-480.1C564.06,-487.78 586.09,-497.73 606.5,-503.38 700.3,-529.31 813.54,-539.74 879.92,-543.83"/>
<polygon fill="#63b8ff" stroke="#63b8ff" points="879.66,-547.32 889.84,-544.41 880.07,-540.33 879.66,-547.32"/>
</a>
</g>
</g>
<!-- Node13 -->
<g id="Node000013" class="node">
<title>Node13</title>
<g id="a_Node000013"><a xlink:href="../../df/d95/a00299.html#ad37d5808ff30ae6894780425d865abae" target="_top" xlink:title="Create and initialize Chyron structure.">
<polygon fill="white" stroke="#666666" points="974.38,-402.75 899.88,-402.75 899.88,-382 974.38,-382 974.38,-402.75"/>
<text xml:space="preserve" text-anchor="middle" x="937.12" y="-389.25" font-family="Helvetica,sans-Serif" font-size="10.00">new_chyron</text>
</a>
</g>
</g>
<!-- Node5&#45;&gt;Node13 -->
<g id="edge14_Node000005_Node000013" class="edge">
<title>Node5&#45;&gt;Node13</title>
<g id="a_edge14_Node000005_Node000013"><a xlink:title=" ">
<path fill="none" stroke="#63b8ff" d="M550.11,-466.08C602.73,-458.02 740.54,-436.26 854.5,-412.38 865.64,-410.04 877.57,-407.27 888.77,-404.55"/>
<polygon fill="#63b8ff" stroke="#63b8ff" points="889.33,-408.02 898.21,-402.22 887.66,-401.22 889.33,-408.02"/>
</a>
</g>
</g>
<!-- Node14 -->
<g id="Node000014" class="node">
<title>Node14</title>
<g id="a_Node000014"><a xlink:href="../../df/d95/a00299.html#a208ce92c197fdd6d2b007987e534aa3b" target="_top" xlink:title="Set chyron key.">
<polygon fill="white" stroke="#666666" points="983,-250.75 891.25,-250.75 891.25,-230 983,-230 983,-250.75"/>
<text xml:space="preserve" text-anchor="middle" x="937.12" y="-237.25" font-family="Helvetica,sans-Serif" font-size="10.00">set_chyron_key</text>
</a>
</g>
</g>
<!-- Node5&#45;&gt;Node14 -->
<g id="edge16_Node000005_Node000014" class="edge">
<title>Node5&#45;&gt;Node14</title>
<g id="a_edge16_Node000005_Node000014"><a xlink:title=" ">
<path fill="none" stroke="#63b8ff" d="M534.67,-458.51C546.58,-439.17 573.88,-398.55 606.5,-374.38 691.59,-311.31 810.56,-272.61 879.86,-253.93"/>
<polygon fill="#63b8ff" stroke="#63b8ff" points="880.72,-257.32 889.49,-251.38 878.93,-250.56 880.72,-257.32"/>
</a>
</g>
</g>
<!-- Node15 -->
<g id="Node000015" class="node">
<title>Node15</title>
<g id="a_Node000015"><a xlink:href="../../dc/d5d/a00278.html#a63eb94756fb011a456a3dec900709cd8" target="_top" xlink:title="ssnprintf was designed to be a safer alternative to snprintf.">
<polygon fill="white" stroke="#666666" points="1083,-250.75 1024.25,-250.75 1024.25,-230 1083,-230 1083,-250.75"/>
<text xml:space="preserve" text-anchor="middle" x="1053.62" y="-237.25" font-family="Helvetica,sans-Serif" font-size="10.00">ssnprintf</text>
</a>
</g>
</g>
<!-- Node5&#45;&gt;Node15 -->
<g id="edge18_Node000005_Node000015" class="edge">
<title>Node5&#45;&gt;Node15</title>
<g id="a_edge18_Node000005_Node000015"><a xlink:title=" ">
<path fill="none" stroke="#63b8ff" d="M530.22,-458.75C536.17,-429.67 556.72,-348.13 606.5,-305.38 706.36,-219.62 760.16,-239.77 890.5,-221.38 931.54,-215.58 942.68,-215.81 983.75,-221.38 993.28,-222.66 1003.34,-224.91 1012.76,-227.43"/>
<polygon fill="#63b8ff" stroke="#63b8ff" points="1011.8,-230.79 1022.37,-230.16 1013.71,-224.06 1011.8,-230.79"/>
</a>
</g>
</g>
<!-- Node16 -->
<g id="Node000016" class="node">
<title>Node16</title>
<g id="a_Node000016"><a xlink:href="../../dc/d5d/a00278.html#a0de2e40df9bd7efc8fd9afb8ad2257e6" target="_top" xlink:title="safer alternative to strncpy">
<polygon fill="white" stroke="#666666" points="1087.5,-555.75 1019.75,-555.75 1019.75,-535 1087.5,-535 1087.5,-555.75"/>
<text xml:space="preserve" text-anchor="middle" x="1053.62" y="-542.25" font-family="Helvetica,sans-Serif" font-size="10.00">strnz__cpy</text>
</a>
</g>
</g>
<!-- Node5&#45;&gt;Node16 -->
<g id="edge19_Node000005_Node000016" class="edge">
<title>Node5&#45;&gt;Node16</title>
<g id="a_edge19_Node000005_Node000016"><a xlink:title=" ">
<path fill="none" stroke="#63b8ff" d="M530.86,-479.94C537.89,-505.81 559.94,-572.16 606.5,-598.38 679.55,-639.5 904.38,-625.38 983.75,-598.38 1003.71,-591.58 1022.4,-576.41 1035.26,-564.04"/>
<polygon fill="#63b8ff" stroke="#63b8ff" points="1037.56,-566.69 1042.11,-557.12 1032.59,-561.76 1037.56,-566.69"/>
</a>
</g>
</g>
<!-- Node17 -->
<g id="Node000017" class="node">
<title>Node17</title>
<g id="a_Node000017"><a xlink:href="../../df/d95/a00299.html#a9dd598e1d49c8764af1eec42c682623e" target="_top" xlink:title="Delete the current window and its associated box window.">
<polygon fill="white" stroke="#666666" points="963.88,-517.75 910.38,-517.75 910.38,-497 963.88,-497 963.88,-517.75"/>
<text xml:space="preserve" text-anchor="middle" x="937.12" y="-504.25" font-family="Helvetica,sans-Serif" font-size="10.00">win_del</text>
</a>
</g>
</g>
<!-- Node5&#45;&gt;Node17 -->
<g id="edge20_Node000005_Node000017" class="edge">
<title>Node5&#45;&gt;Node17</title>
<g id="a_edge20_Node000005_Node000017"><a xlink:title=" ">
<path fill="none" stroke="#63b8ff" d="M550.08,-473.91C565.72,-477.01 587.33,-480.97 606.5,-483.38 711.91,-496.61 837.27,-503.25 898.58,-505.92"/>
<polygon fill="#63b8ff" stroke="#63b8ff" points="898.32,-509.41 908.46,-506.33 898.61,-502.42 898.32,-509.41"/>
</a>
</g>
</g>
<!-- Node18 -->
<g id="Node000018" class="node">
<title>Node18</title>
<g id="a_Node000018"><a xlink:href="../../df/d95/a00299.html#a435c7bff7ffedb8f51c6de9259e36f6c" target="_top" xlink:title="Create a new window with optional box and title.">
<polygon fill="white" stroke="#666666" points="966.5,-670.75 907.75,-670.75 907.75,-650 966.5,-650 966.5,-670.75"/>
<text xml:space="preserve" text-anchor="middle" x="937.12" y="-657.25" font-family="Helvetica,sans-Serif" font-size="10.00">win_new</text>
</a>
</g>
</g>
<!-- Node5&#45;&gt;Node18 -->
<g id="edge21_Node000005_Node000018" class="edge">
<title>Node5&#45;&gt;Node18</title>
<g id="a_edge21_Node000005_Node000018"><a xlink:title=" ">
<path fill="none" stroke="#63b8ff" d="M529.56,-479.92C533.94,-510.3 551.11,-598.26 606.5,-636.38 694.79,-697.12 829.72,-682 896.23,-669.38"/>
<polygon fill="#63b8ff" stroke="#63b8ff" points="896.83,-672.83 905.96,-667.45 895.47,-665.97 896.83,-672.83"/>
</a>
</g>
</g>
<!-- Node20 -->
<g id="Node000020" class="node">
<title>Node20</title>
<g id="a_Node000020"><a xlink:href="../../df/d95/a00299.html#acf4c709bccc4c965a5d61db978db31a3" target="_top" xlink:title="Wrapper for wgetch that handles signals and mouse events.">
<polygon fill="white" stroke="#666666" points="694.88,-403.75 637.62,-403.75 637.62,-383 694.88,-383 694.88,-403.75"/>
<text xml:space="preserve" text-anchor="middle" x="666.25" y="-390.25" font-family="Helvetica,sans-Serif" font-size="10.00">xwgetch</text>
</a>
</g>
</g>
<!-- Node5&#45;&gt;Node20 -->
<g id="edge24_Node000005_Node000020" class="edge">
<title>Node5&#45;&gt;Node20</title>
<g id="a_edge24_Node000005_Node000020"><a xlink:title=" ">
<path fill="none" stroke="#63b8ff" d="M547.59,-458.65C570.64,-445.86 609.39,-424.36 636.08,-409.56"/>
<polygon fill="#63b8ff" stroke="#63b8ff" points="637.64,-412.69 644.69,-404.78 634.24,-406.57 637.64,-412.69"/>
</a>
</g>
</g>
<!-- Node7 -->
<g id="Node000007" class="node">
<title>Node7</title>
<g id="a_Node000007"><a xlink:href="../../df/d95/a00299.html#afc0985a403e3eac0b2cd8f0fab500256" target="_top" xlink:title="Gracefully shut down NCurses and restore terminal settings.">
<polygon fill="white" stroke="#666666" points="1213,-365.75 1123.5,-365.75 1123.5,-345 1213,-345 1213,-365.75"/>
<text xml:space="preserve" text-anchor="middle" x="1168.25" y="-352.25" font-family="Helvetica,sans-Serif" font-size="10.00">destroy_curses</text>
</a>
</g>
</g>
<!-- Node6&#45;&gt;Node7 -->
<g id="edge6_Node000006_Node000007" class="edge">
<title>Node6&#45;&gt;Node7</title>
<g id="a_edge6_Node000006_Node000007"><a xlink:title=" ">
<path fill="none" stroke="#63b8ff" d="M1076.88,-369.82C1086.99,-368.2 1099.44,-366.21 1111.84,-364.23"/>
<polygon fill="#63b8ff" stroke="#63b8ff" points="1112.33,-367.7 1121.65,-362.66 1111.22,-360.79 1112.33,-367.7"/>
</a>
</g>
</g>
<!-- Node8 -->
<g id="Node000008" class="node">
<title>Node8</title>
<g id="a_Node000008"><a xlink:href="../../d6/de1/a00233.html#ac5e3adb304b78910fc77761ef6a743f0" target="_top" xlink:title="restore_shell_tioctl() &#45; restore shell terminal settings">
<polygon fill="white" stroke="#666666" points="1358,-403.75 1249,-403.75 1249,-383 1358,-383 1358,-403.75"/>
<text xml:space="preserve" text-anchor="middle" x="1303.5" y="-390.25" font-family="Helvetica,sans-Serif" font-size="10.00">restore_shell_tioctl</text>
</a>
</g>
</g>
<!-- Node6&#45;&gt;Node8 -->
<g id="edge9_Node000006_Node000008" class="edge">
<title>Node6&#45;&gt;Node8</title>
<g id="a_edge9_Node000006_Node000008"><a xlink:title=" ">
<path fill="none" stroke="#63b8ff" d="M1077.06,-375.19C1112.92,-378.08 1184.5,-383.85 1237.43,-388.12"/>
<polygon fill="#63b8ff" stroke="#63b8ff" points="1237,-391.6 1247.25,-388.92 1237.56,-384.62 1237,-391.6"/>
</a>
</g>
</g>
<!-- Node9 -->
<g id="Node000009" class="node">
<title>Node9</title>
<g id="a_Node000009"><a xlink:href="../../d1/da8/a00230.html#a06c1eb6cf3649dc187115565409f91af" target="_top" xlink:title="Set signal handlers to default behavior.">
<polygon fill="white" stroke="#666666" points="1344.12,-346.75 1262.88,-346.75 1262.88,-326 1344.12,-326 1344.12,-346.75"/>
<text xml:space="preserve" text-anchor="middle" x="1303.5" y="-333.25" font-family="Helvetica,sans-Serif" font-size="10.00">sig_dfl_mode</text>
</a>
</g>
</g>
<!-- Node6&#45;&gt;Node9 -->
<g id="edge10_Node000006_Node000009" class="edge">
<title>Node6&#45;&gt;Node9</title>
<g id="a_edge10_Node000006_Node000009"><a xlink:title=" ">
<path fill="none" stroke="#63b8ff" d="M1069.58,-362.51C1082.96,-353.51 1103.49,-341.41 1123.5,-336.38 1165.65,-325.77 1215.17,-326.75 1251.43,-329.83"/>
<polygon fill="#63b8ff" stroke="#63b8ff" points="1250.92,-333.29 1261.2,-330.75 1251.58,-326.33 1250.92,-333.29"/>
</a>
</g>
</g>
<!-- Node7&#45;&gt;Node8 -->
<g id="edge7_Node000007_Node000008" class="edge">
<title>Node7&#45;&gt;Node8</title>
<g id="a_edge7_Node000007_Node000008"><a xlink:title=" ">
<path fill="none" stroke="#63b8ff" d="M1207.08,-366.16C1221.57,-370.29 1238.3,-375.07 1253.68,-379.45"/>
<polygon fill="#63b8ff" stroke="#63b8ff" points="1252.55,-382.77 1263.12,-382.15 1254.47,-376.04 1252.55,-382.77"/>
</a>
</g>
</g>
<!-- Node7&#45;&gt;Node9 -->
<g id="edge8_Node000007_Node000009" class="edge">
<title>Node7&#45;&gt;Node9</title>
<g id="a_edge8_Node000007_Node000009"><a xlink:title=" ">
<path fill="none" stroke="#63b8ff" d="M1213.25,-349.1C1225.44,-347.36 1238.77,-345.46 1251.33,-343.67"/>
<polygon fill="#63b8ff" stroke="#63b8ff" points="1251.69,-347.16 1261.09,-342.28 1250.7,-340.23 1251.69,-347.16"/>
</a>
</g>
</g>
<!-- Node11 -->
<g id="Node000011" class="node">
<title>Node11</title>
<g id="a_Node000011"><a xlink:href="../../dc/d5d/a00278.html#aa0145c044cfdde3a1c83323410a59f25" target="_top" xlink:title="safer alternative to strncat">
<polygon fill="white" stroke="#666666" points="1086.38,-136.75 1020.88,-136.75 1020.88,-116 1086.38,-116 1086.38,-136.75"/>
<text xml:space="preserve" text-anchor="middle" x="1053.62" y="-123.25" font-family="Helvetica,sans-Serif" font-size="10.00">strnz__cat</text>
</a>
</g>
</g>
<!-- Node10&#45;&gt;Node11 -->
<g id="edge12_Node000010_Node000011" class="edge">
<title>Node10&#45;&gt;Node11</title>
<g id="a_edge12_Node000010_Node000011"><a xlink:title=" ">
<path fill="none" stroke="#63b8ff" d="M984.04,-126.38C992.33,-126.38 1000.94,-126.38 1009.16,-126.38"/>
<polygon fill="#63b8ff" stroke="#63b8ff" points="1008.92,-129.88 1018.92,-126.38 1008.92,-122.88 1008.92,-129.88"/>
</a>
</g>
</g>
<!-- Node13&#45;&gt;Node6 -->
<g id="edge15_Node000013_Node000006" class="edge">
<title>Node13&#45;&gt;Node6</title>
<g id="a_edge15_Node000013_Node000006"><a xlink:title=" ">
<path fill="none" stroke="#63b8ff" d="M974.67,-386.31C988.99,-383.94 1005.3,-381.23 1019.29,-378.91"/>
<polygon fill="#63b8ff" stroke="#63b8ff" points="1019.61,-382.4 1028.91,-377.31 1018.47,-375.5 1019.61,-382.4"/>
</a>
</g>
</g>
<!-- Node14&#45;&gt;Node15 -->
<g id="edge17_Node000014_Node000015" class="edge">
<title>Node14&#45;&gt;Node15</title>
<g id="a_edge17_Node000014_Node000015"><a xlink:title=" ">
<path fill="none" stroke="#63b8ff" d="M983.38,-240.38C992.96,-240.38 1003.01,-240.38 1012.39,-240.38"/>
<polygon fill="#63b8ff" stroke="#63b8ff" points="1012.32,-243.88 1022.32,-240.38 1012.32,-236.88 1012.32,-243.88"/>
</a>
</g>
</g>
<!-- Node18&#45;&gt;Node16 -->
<g id="edge23_Node000018_Node000016" class="edge">
<title>Node18&#45;&gt;Node16</title>
<g id="a_edge23_Node000018_Node000016"><a xlink:title=" ">
<path fill="none" stroke="#63b8ff" d="M963.52,-649.52C970.48,-645.9 977.74,-641.47 983.75,-636.38 1007.83,-615.95 1028.62,-585.69 1040.88,-565.76"/>
<polygon fill="#63b8ff" stroke="#63b8ff" points="1043.74,-567.8 1045.86,-557.42 1037.73,-564.21 1043.74,-567.8"/>
</a>
</g>
</g>
<!-- Node19 -->
<g id="Node000019" class="node">
<title>Node19</title>
<g id="a_Node000019"><a xlink:href="../../df/d95/a00299.html#ac9adcf7339be4a05ab1a7350c236b8a5" target="_top" xlink:title="Draw a box around the specified window.">
<polygon fill="white" stroke="#666666" points="1073.25,-670.75 1034,-670.75 1034,-650 1073.25,-650 1073.25,-670.75"/>
<text xml:space="preserve" text-anchor="middle" x="1053.62" y="-657.25" font-family="Helvetica,sans-Serif" font-size="10.00">cbox</text>
</a>
</g>
</g>
<!-- Node18&#45;&gt;Node19 -->
<g id="edge22_Node000018_Node000019" class="edge">
<title>Node18&#45;&gt;Node19</title>
<g id="a_edge22_Node000018_Node000019"><a xlink:title=" ">
<path fill="none" stroke="#63b8ff" d="M966.72,-660.38C983.65,-660.38 1005.07,-660.38 1022.29,-660.38"/>
<polygon fill="#63b8ff" stroke="#63b8ff" points="1022.19,-663.88 1032.19,-660.38 1022.19,-656.88 1022.19,-663.88"/>
</a>
</g>
</g>
<!-- Node21 -->
<g id="Node000021" class="node">
<title>Node21</title>
<g id="a_Node000021"><a xlink:href="../../df/d95/a00299.html#a67659f8a701b74f4dec0d36227a10d1c" target="_top" xlink:title="Display an error message window or print to stderr.">
<polygon fill="white" stroke="#666666" points="848.12,-364.75 768.38,-364.75 768.38,-344 848.12,-344 848.12,-364.75"/>
<text xml:space="preserve" text-anchor="middle" x="808.25" y="-351.25" font-family="Helvetica,sans-Serif" font-size="10.00">display_error</text>
</a>
</g>
</g>
<!-- Node20&#45;&gt;Node21 -->
<g id="edge25_Node000020_Node000021" class="edge">
<title>Node20&#45;&gt;Node21</title>
<g id="a_edge25_Node000020_Node000021"><a xlink:title=" ">
<path fill="none" stroke="#63b8ff" d="M688.21,-382.55C706.38,-375.87 733.42,-367.83 757.14,-361.83"/>
<polygon fill="#63b8ff" stroke="#63b8ff" points="757.76,-365.28 766.64,-359.51 756.09,-358.49 757.76,-365.28"/>
</a>
</g>
</g>
<!-- Node23 -->
<g id="Node000023" class="node">
<title>Node23</title>
<g id="a_Node000023"><a xlink:href="../../df/d95/a00299.html#a4298f891699300bfc4e6e56fd2a8d574" target="_top" xlink:title="Get keycode from chyron.">
<polygon fill="white" stroke="#666666" points="854.5,-403.75 762,-403.75 762,-383 854.5,-383 854.5,-403.75"/>
<text xml:space="preserve" text-anchor="middle" x="808.25" y="-390.25" font-family="Helvetica,sans-Serif" font-size="10.00">get_chyron_key</text>
</a>
</g>
</g>
<!-- Node20&#45;&gt;Node23 -->
<g id="edge37_Node000020_Node000023" class="edge">
<title>Node20&#45;&gt;Node23</title>
<g id="a_edge37_Node000020_Node000023"><a xlink:title=" ">
<path fill="none" stroke="#63b8ff" d="M695.24,-393.38C711.05,-393.38 731.38,-393.38 750.37,-393.38"/>
<polygon fill="#63b8ff" stroke="#63b8ff" points="750.15,-396.88 760.15,-393.38 750.15,-389.88 750.15,-396.88"/>
</a>
</g>
</g>
<!-- Node24 -->
<g id="Node000024" class="node">
<title>Node24</title>
<g id="a_Node000024"><a xlink:href="../../d1/da8/a00230.html#a79c3e22498eb2346543aa9c86fd22e58" target="_top" xlink:title="Handle received signals and prompt user for action.">
<polygon fill="white" stroke="#666666" points="978.88,-441.75 895.38,-441.75 895.38,-421 978.88,-421 978.88,-441.75"/>
<text xml:space="preserve" text-anchor="middle" x="937.12" y="-428.25" font-family="Helvetica,sans-Serif" font-size="10.00">handle_signal</text>
</a>
</g>
</g>
<!-- Node20&#45;&gt;Node24 -->
<g id="edge38_Node000020_Node000024" class="edge">
<title>Node20&#45;&gt;Node24</title>
<g id="a_edge38_Node000020_Node000024"><a xlink:title=" ">
<path fill="none" stroke="#63b8ff" d="M695.33,-399.69C714.12,-403.75 739.45,-408.89 762,-412.38 802.77,-418.67 849.23,-423.63 883.9,-426.9"/>
<polygon fill="#63b8ff" stroke="#63b8ff" points="883.39,-430.37 893.67,-427.81 884.04,-423.4 883.39,-430.37"/>
</a>
</g>
</g>
<!-- Node21&#45;&gt;Node6 -->
<g id="edge26_Node000021_Node000006" class="edge">
<title>Node21&#45;&gt;Node6</title>
<g id="a_edge26_Node000021_Node000006"><a xlink:title=" ">
<path fill="none" stroke="#63b8ff" d="M848.62,-357.45C895.94,-361.14 974.53,-367.28 1019.09,-370.76"/>
<polygon fill="#63b8ff" stroke="#63b8ff" points="1018.68,-374.24 1028.93,-371.52 1019.23,-367.26 1018.68,-374.24"/>
</a>
</g>
</g>
<!-- Node21&#45;&gt;Node10 -->
<g id="edge27_Node000021_Node000010" class="edge">
<title>Node21&#45;&gt;Node10</title>
<g id="a_edge27_Node000021_Node000010"><a xlink:title=" ">
<path fill="none" stroke="#63b8ff" d="M815.2,-343.68C834.93,-308.23 898.43,-194.11 924.65,-147"/>
<polygon fill="#63b8ff" stroke="#63b8ff" points="927.65,-148.81 929.45,-138.37 921.53,-145.4 927.65,-148.81"/>
</a>
</g>
</g>
<!-- Node21&#45;&gt;Node12 -->
<g id="edge28_Node000021_Node000012" class="edge">
<title>Node21&#45;&gt;Node12</title>
<g id="a_edge28_Node000021_Node000012"><a xlink:title=" ">
<path fill="none" stroke="#63b8ff" d="M843.32,-365.15C847.53,-367.64 851.43,-370.68 854.5,-374.38 898.88,-427.76 846.04,-473.06 890.5,-526.38 891.18,-527.19 891.9,-527.97 892.65,-528.72"/>
<polygon fill="#63b8ff" stroke="#63b8ff" points="890.48,-531.47 900.57,-534.72 894.71,-525.89 890.48,-531.47"/>
</a>
</g>
</g>
<!-- Node21&#45;&gt;Node13 -->
<g id="edge29_Node000021_Node000013" class="edge">
<title>Node21&#45;&gt;Node13</title>
<g id="a_edge29_Node000021_Node000013"><a xlink:title=" ">
<path fill="none" stroke="#63b8ff" d="M845.27,-365.16C858.93,-369.25 874.69,-373.97 889.21,-378.32"/>
<polygon fill="#63b8ff" stroke="#63b8ff" points="887.98,-381.61 898.57,-381.13 889.99,-374.9 887.98,-381.61"/>
</a>
</g>
</g>
<!-- Node21&#45;&gt;Node14 -->
<g id="edge30_Node000021_Node000014" class="edge">
<title>Node21&#45;&gt;Node14</title>
<g id="a_edge30_Node000021_Node000014"><a xlink:title=" ">
<path fill="none" stroke="#63b8ff" d="M817,-343.55C830.39,-325.41 859.41,-288.52 890.5,-264.38 894.06,-261.61 897.98,-259.01 901.98,-256.61"/>
<polygon fill="#63b8ff" stroke="#63b8ff" points="903.57,-259.73 910.62,-251.82 900.18,-253.61 903.57,-259.73"/>
</a>
</g>
</g>
<!-- Node21&#45;&gt;Node15 -->
<g id="edge31_Node000021_Node000015" class="edge">
<title>Node21&#45;&gt;Node15</title>
<g id="a_edge31_Node000021_Node000015"><a xlink:title=" ">
<path fill="none" stroke="#63b8ff" d="M822.05,-343.71C837.49,-331.27 864.6,-310.69 890.5,-297.38 930.43,-276.84 979.44,-260.75 1013.05,-250.98"/>
<polygon fill="#63b8ff" stroke="#63b8ff" points="1013.72,-254.43 1022.37,-248.32 1011.8,-247.7 1013.72,-254.43"/>
</a>
</g>
</g>
<!-- Node21&#45;&gt;Node16 -->
<g id="edge33_Node000021_Node000016" class="edge">
<title>Node21&#45;&gt;Node16</title>
<g id="a_edge33_Node000021_Node000016"><a xlink:title=" ">
<path fill="none" stroke="#63b8ff" d="M841.25,-365.02C846.06,-367.57 850.69,-370.66 854.5,-374.38 881.27,-400.46 863.35,-424.69 890.5,-450.38 923.01,-481.13 945.34,-465.4 983.75,-488.38 1001.93,-499.25 1020.31,-514.74 1033.5,-526.82"/>
<polygon fill="#63b8ff" stroke="#63b8ff" points="1030.94,-529.22 1040.63,-533.51 1035.73,-524.12 1030.94,-529.22"/>
</a>
</g>
</g>
<!-- Node21&#45;&gt;Node17 -->
<g id="edge34_Node000021_Node000017" class="edge">
<title>Node21&#45;&gt;Node17</title>
<g id="a_edge34_Node000021_Node000017"><a xlink:title=" ">
<path fill="none" stroke="#63b8ff" d="M842.58,-365.14C847,-367.64 851.15,-370.69 854.5,-374.38 888.78,-412.16 857.53,-444.45 890.5,-483.38 893.27,-486.64 896.59,-489.52 900.17,-492.05"/>
<polygon fill="#63b8ff" stroke="#63b8ff" points="898.34,-495.04 908.72,-497.16 901.93,-489.03 898.34,-495.04"/>
</a>
</g>
</g>
<!-- Node21&#45;&gt;Node18 -->
<g id="edge35_Node000021_Node000018" class="edge">
<title>Node21&#45;&gt;Node18</title>
<g id="a_edge35_Node000021_Node000018"><a xlink:title=" ">
<path fill="none" stroke="#63b8ff" d="M843.48,-365.02C847.67,-367.53 851.51,-370.61 854.5,-374.38 908.17,-442.06 863.57,-483.3 890.5,-565.38 899.27,-592.12 913.97,-621.02 924.31,-639.83"/>
<polygon fill="#63b8ff" stroke="#63b8ff" points="921.13,-641.32 929.08,-648.33 927.24,-637.89 921.13,-641.32"/>
</a>
</g>
</g>
<!-- Node21&#45;&gt;Node20 -->
<g id="edge36_Node000021_Node000020" class="edge">
<title>Node21&#45;&gt;Node20</title>
<g id="a_edge36_Node000021_Node000020"><a xlink:title=" ">
<path fill="none" stroke="#63b8ff" d="M786.15,-365.25C765.04,-373 732.07,-382.56 706.2,-388.65"/>
<polygon fill="#63b8ff" stroke="#63b8ff" points="705.71,-385.17 696.72,-390.77 707.25,-392 705.71,-385.17"/>
</a>
</g>
</g>
<!-- Node22 -->
<g id="Node000022" class="node">
<title>Node22</title>
<g id="a_Node000022"><a xlink:href="../../dc/d5d/a00278.html#a636608f26d1193b5d860f2312cd8ee49" target="_top" xlink:title="terminates string at New Line, Carriage Return, or max_len">
<polygon fill="white" stroke="#666666" points="957.12,-326.75 917.12,-326.75 917.12,-306 957.12,-306 957.12,-326.75"/>
<text xml:space="preserve" text-anchor="middle" x="937.12" y="-313.25" font-family="Helvetica,sans-Serif" font-size="10.00">strnz</text>
</a>
</g>
</g>
<!-- Node21&#45;&gt;Node22 -->
<g id="edge32_Node000021_Node000022" class="edge">
<title>Node21&#45;&gt;Node22</title>
<g id="a_edge32_Node000021_Node000022"><a xlink:title=" ">
<path fill="none" stroke="#63b8ff" d="M845.27,-343.59C864.47,-337.84 887.82,-330.84 906.04,-325.38"/>
<polygon fill="#63b8ff" stroke="#63b8ff" points="906.89,-328.79 915.46,-322.56 904.88,-322.08 906.89,-328.79"/>
</a>
</g>
</g>
<!-- Node24&#45;&gt;Node8 -->
<g id="edge39_Node000024_Node000008" class="edge">
<title>Node24&#45;&gt;Node8</title>
<g id="a_edge39_Node000024_Node000008"><a xlink:title=" ">
<path fill="none" stroke="#63b8ff" d="M979.22,-427.09C1042.06,-420.54 1162.62,-407.96 1237.44,-400.16"/>
<polygon fill="#63b8ff" stroke="#63b8ff" points="1237.5,-403.67 1247.08,-399.15 1236.77,-396.71 1237.5,-403.67"/>
</a>
</g>
</g>
<!-- Node24&#45;&gt;Node15 -->
<g id="edge40_Node000024_Node000015" class="edge">
<title>Node24&#45;&gt;Node15</title>
<g id="a_edge40_Node000024_Node000015"><a xlink:title=" ">
<path fill="none" stroke="#63b8ff" d="M971.05,-420.71C975.71,-418.18 980.14,-415.1 983.75,-411.38 1005.31,-389.16 1033.61,-302.87 1046.16,-262.03"/>
<polygon fill="#63b8ff" stroke="#63b8ff" points="1049.47,-263.19 1049.02,-252.61 1042.77,-261.16 1049.47,-263.19"/>
</a>
</g>
</g>
<!-- Node24&#45;&gt;Node16 -->
<g id="edge41_Node000024_Node000016" class="edge">
<title>Node24&#45;&gt;Node16</title>
<g id="a_edge41_Node000024_Node000016"><a xlink:title=" ">
<path fill="none" stroke="#63b8ff" d="M963.03,-442.01C970.13,-445.67 977.59,-450.18 983.75,-455.38 1007.6,-475.5 1028.34,-505.24 1040.66,-524.95"/>
<polygon fill="#63b8ff" stroke="#63b8ff" points="1037.64,-526.72 1045.83,-533.45 1043.63,-523.09 1037.64,-526.72"/>
</a>
</g>
</g>
<!-- Node26 -->
<g id="Node000026" class="node">
<title>Node26</title>
<g id="a_Node000026"><a xlink:href="../../dd/d52/a00221.html#a9fc984ba8ce6c4059b33a915d526357f" target="_top" xlink:title="Parse ANSI SGR Escape Sequence.">
<polygon fill="white" stroke="#666666" points="570.5,-98.75 484,-98.75 484,-78 570.5,-78 570.5,-98.75"/>
<text xml:space="preserve" text-anchor="middle" x="527.25" y="-85.25" font-family="Helvetica,sans-Serif" font-size="10.00">parse_ansi_str</text>
</a>
</g>
</g>
<!-- Node25&#45;&gt;Node26 -->
<g id="edge43_Node000025_Node000026" class="edge">
<title>Node25&#45;&gt;Node26</title>
<g id="a_edge43_Node000025_Node000026"><a xlink:title=" ">
<path fill="none" stroke="#63b8ff" d="M416.13,-229.93C435.7,-204.76 485.72,-140.47 511.06,-107.9"/>
<polygon fill="#63b8ff" stroke="#63b8ff" points="513.76,-110.13 517.14,-100.09 508.23,-105.83 513.76,-110.13"/>
</a>
</g>
</g>
<!-- Node32 -->
<g id="Node000032" class="node">
<title>Node32</title>
<g id="a_Node000032"><a xlink:href="../../dc/d5d/a00278.html#a4f42956462e811d96c9fb881a85dada4" target="_top" xlink:title="Trims trailing spaces from string s in place.">
<polygon fill="white" stroke="#666666" points="547.25,-250.75 507.25,-250.75 507.25,-230 547.25,-230 547.25,-250.75"/>
<text xml:space="preserve" text-anchor="middle" x="527.25" y="-237.25" font-family="Helvetica,sans-Serif" font-size="10.00">rtrim</text>
</a>
</g>
</g>
<!-- Node25&#45;&gt;Node32 -->
<g id="edge51_Node000025_Node000032" class="edge">
<title>Node25&#45;&gt;Node32</title>
<g id="a_edge51_Node000025_Node000032"><a xlink:title=" ">
<path fill="none" stroke="#63b8ff" d="M435.72,-240.38C453.64,-240.38 476.98,-240.38 495.48,-240.38"/>
<polygon fill="#63b8ff" stroke="#63b8ff" points="495.31,-243.88 505.31,-240.38 495.31,-236.88 495.31,-243.88"/>
</a>
</g>
</g>
<!-- Node27 -->
<g id="Node000027" class="node">
<title>Node27</title>
<g id="a_Node000027"><a xlink:href="../../dc/d5d/a00278.html#ab96e4c73a7b3ba1310044b479733cdd9" target="_top" xlink:title="a safer alternative to atoi() for converting ASCII strings to integers.">
<polygon fill="white" stroke="#666666" points="686.25,-98.75 646.25,-98.75 646.25,-78 686.25,-78 686.25,-98.75"/>
<text xml:space="preserve" text-anchor="middle" x="666.25" y="-85.25" font-family="Helvetica,sans-Serif" font-size="10.00">a_toi</text>
</a>
</g>
</g>
<!-- Node26&#45;&gt;Node27 -->
<g id="edge44_Node000026_Node000027" class="edge">
<title>Node26&#45;&gt;Node27</title>
<g id="a_edge44_Node000026_Node000027"><a xlink:title=" ">
<path fill="none" stroke="#63b8ff" d="M570.85,-88.38C591.47,-88.38 615.76,-88.38 634.53,-88.38"/>
<polygon fill="#63b8ff" stroke="#63b8ff" points="634.47,-91.88 644.47,-88.38 634.47,-84.88 634.47,-91.88"/>
</a>
</g>
</g>
<!-- Node28 -->
<g id="Node000028" class="node">
<title>Node28</title>
<g id="a_Node000028"><a xlink:href="../../df/d95/a00299.html#af0ba4efbc81c259a2519ca41dd9d1599" target="_top" xlink:title="Get color pair index for foreground and background colors.">
<polygon fill="white" stroke="#666666" points="702.75,-174.75 629.75,-174.75 629.75,-154 702.75,-154 702.75,-174.75"/>
<text xml:space="preserve" text-anchor="middle" x="666.25" y="-161.25" font-family="Helvetica,sans-Serif" font-size="10.00">get_clr_pair</text>
</a>
</g>
</g>
<!-- Node26&#45;&gt;Node28 -->
<g id="edge45_Node000026_Node000028" class="edge">
<title>Node26&#45;&gt;Node28</title>
<g id="a_edge45_Node000026_Node000028"><a xlink:title=" ">
<path fill="none" stroke="#63b8ff" d="M547.59,-99.1C570.64,-111.89 609.39,-133.39 636.08,-148.19"/>
<polygon fill="#63b8ff" stroke="#63b8ff" points="634.24,-151.18 644.69,-152.97 637.64,-145.06 634.24,-151.18"/>
</a>
</g>
</g>
<!-- Node29 -->
<g id="Node000029" class="node">
<title>Node29</title>
<g id="a_Node000029"><a xlink:href="../../df/d95/a00299.html#a4900dd34e828972e58b0ca549cf7d4d8" target="_top" xlink:title="Get color index for RGB color.">
<polygon fill="white" stroke="#666666" points="716.62,-59.75 615.88,-59.75 615.88,-39 716.62,-39 716.62,-59.75"/>
<text xml:space="preserve" text-anchor="middle" x="666.25" y="-46.25" font-family="Helvetica,sans-Serif" font-size="10.00">rgb_to_curses_clr</text>
</a>
</g>
</g>
<!-- Node26&#45;&gt;Node29 -->
<g id="edge48_Node000026_Node000029" class="edge">
<title>Node26&#45;&gt;Node29</title>
<g id="a_edge48_Node000026_Node000029"><a xlink:title=" ">
<path fill="none" stroke="#63b8ff" d="M566.41,-77.51C581.85,-73.12 599.87,-67.99 616.26,-63.32"/>
<polygon fill="#63b8ff" stroke="#63b8ff" points="617.18,-66.7 625.84,-60.59 615.26,-59.97 617.18,-66.7"/>
</a>
</g>
</g>
<!-- Node31 -->
<g id="Node000031" class="node">
<title>Node31</title>
<g id="a_Node000031"><a xlink:href="../../df/d95/a00299.html#a31ee0d93c7b527f92559fc410152f768" target="_top" xlink:title="Convert XTerm 256 color index to RGB color.">
<polygon fill="white" stroke="#666666" points="726,-20.75 606.5,-20.75 606.5,0 726,0 726,-20.75"/>
<text xml:space="preserve" text-anchor="middle" x="666.25" y="-7.25" font-family="Helvetica,sans-Serif" font-size="10.00">xterm256_idx_to_rgb</text>
</a>
</g>
</g>
<!-- Node26&#45;&gt;Node31 -->
<g id="edge50_Node000026_Node000031" class="edge">
<title>Node26&#45;&gt;Node31</title>
<g id="a_edge50_Node000026_Node000031"><a xlink:title=" ">
<path fill="none" stroke="#63b8ff" d="M540.19,-77.66C554.89,-64.92 581.04,-43.73 606.5,-30.38 609.94,-28.57 613.58,-26.87 617.3,-25.3"/>
<polygon fill="#63b8ff" stroke="#63b8ff" points="618.41,-28.62 626.44,-21.71 615.86,-22.1 618.41,-28.62"/>
</a>
</g>
</g>
<!-- Node28&#45;&gt;Node15 -->
<g id="edge47_Node000028_Node000015" class="edge">
<title>Node28&#45;&gt;Node15</title>
<g id="a_edge47_Node000028_Node000015"><a xlink:title=" ">
<path fill="none" stroke="#63b8ff" d="M702.82,-160.73C762.91,-155.94 887.35,-151.96 983.75,-188.38 1003.11,-195.69 1021.63,-210.25 1034.58,-222.11"/>
<polygon fill="#63b8ff" stroke="#63b8ff" points="1031.85,-224.34 1041.5,-228.71 1036.69,-219.28 1031.85,-224.34"/>
</a>
</g>
</g>
<!-- Node28&#45;&gt;Node21 -->
<g id="edge46_Node000028_Node000021" class="edge">
<title>Node28&#45;&gt;Node21</title>
<g id="a_edge46_Node000028_Node000021"><a xlink:title=" ">
<path fill="none" stroke="#63b8ff" d="M675.18,-175.13C697.85,-205.9 763.19,-294.58 792.6,-334.49"/>
<polygon fill="#63b8ff" stroke="#63b8ff" points="789.76,-336.54 798.51,-342.51 795.4,-332.39 789.76,-336.54"/>
</a>
</g>
</g>
<!-- Node30 -->
<g id="Node000030" class="node">
<title>Node30</title>
<g id="a_Node000030"><a xlink:href="../../df/d95/a00299.html#aa3a6b291c0820d9da545325a2dba5274" target="_top" xlink:title="Apply gamma correction to RGB color.">
<polygon fill="white" stroke="#666666" points="851.12,-59.75 765.38,-59.75 765.38,-39 851.12,-39 851.12,-59.75"/>
<text xml:space="preserve" text-anchor="middle" x="808.25" y="-46.25" font-family="Helvetica,sans-Serif" font-size="10.00">apply_gamma</text>
</a>
</g>
</g>
<!-- Node29&#45;&gt;Node30 -->
<g id="edge49_Node000029_Node000030" class="edge">
<title>Node29&#45;&gt;Node30</title>
<g id="a_edge49_Node000029_Node000030"><a xlink:title=" ">
<path fill="none" stroke="#63b8ff" d="M717,-49.38C728.91,-49.38 741.68,-49.38 753.76,-49.38"/>
<polygon fill="#63b8ff" stroke="#63b8ff" points="753.55,-52.88 763.55,-49.38 753.55,-45.88 753.55,-52.88"/>
</a>
</g>
</g>
<!-- Node34&#45;&gt;Node3 -->
<g id="edge56_Node000034_Node000003" class="edge">
<title>Node34&#45;&gt;Node3</title>
<g id="a_edge56_Node000034_Node000003"><a xlink:title=" ">
<path fill="none" stroke="#63b8ff" d="M179.65,-387.42C195.8,-389.91 215.5,-392.94 232.93,-395.63"/>
<polygon fill="#63b8ff" stroke="#63b8ff" points="232.08,-399.04 242.49,-397.1 233.14,-392.12 232.08,-399.04"/>
</a>
</g>
</g>
<!-- Node35 -->
<g id="Node000035" class="node">
<title>Node35</title>
<g id="a_Node000035"><a xlink:href="../../dd/d52/a00221.html#aaf8cff992778d85e44351a834ad2b81a" target="_top" xlink:title="Get Position of Previous Line.">
<polygon fill="white" stroke="#666666" points="330,-373.75 225.5,-373.75 225.5,-353 330,-353 330,-373.75"/>
<text xml:space="preserve" text-anchor="middle" x="277.75" y="-360.25" font-family="Helvetica,sans-Serif" font-size="10.00">get_pos_prev_line</text>
</a>
</g>
</g>
<!-- Node34&#45;&gt;Node35 -->
<g id="edge55_Node000034_Node000035" class="edge">
<title>Node34&#45;&gt;Node35</title>
<g id="a_edge55_Node000034_Node000035"><a xlink:title=" ">
<path fill="none" stroke="#63b8ff" d="M179.65,-377.58C190.07,-376.06 201.97,-374.32 213.78,-372.59"/>
<polygon fill="#63b8ff" stroke="#63b8ff" points="214.14,-376.07 223.53,-371.16 213.13,-369.15 214.14,-376.07"/>
</a>
</g>
</g>
</g>
</svg>
