<?xml version="1.0" encoding="UTF-8" standalone="no"?>
<!DOCTYPE svg PUBLIC "-//W3C//DTD SVG 1.1//EN"
 "http://www.w3.org/Graphics/SVG/1.1/DTD/svg11.dtd">
<!-- Generated by graphviz version 14.1.2 (0)
 -->
<!-- Title: redisplay_page Pages: 1 -->
<svg width="1126pt" height="690pt"
 viewBox="0.00 0.00 1126.00 690.00" xmlns="http://www.w3.org/2000/svg" xmlns:xlink="http://www.w3.org/1999/xlink">
<g id="graph0" class="graph" transform="scale(1 1) rotate(0) translate(4 685.51)">
<title>redisplay_page</title>
<!-- Node1 -->
<g id="Node000001" class="node">
<title>Node1</title>
<g id="a_Node000001"><a xlink:title="Redisplay Current Page.">
<polygon fill="#999999" stroke="#666666" points="90.25,-213.75 0,-213.75 0,-193 90.25,-193 90.25,-213.75"/>
<text xml:space="preserve" text-anchor="middle" x="45.12" y="-200.25" font-family="Helvetica,sans-Serif" font-size="10.00">redisplay_page</text>
</a>
</g>
</g>
<!-- Node2 -->
<g id="Node000002" class="node">
<title>Node2</title>
<g id="a_Node000002"><a xlink:href="../../dd/d52/a00221.html#a16a4b855ead8402d4744e77a5504082a" target="_top" xlink:title="Display Line on Pad.">
<polygon fill="white" stroke="#666666" points="204.5,-403.75 130,-403.75 130,-383 204.5,-383 204.5,-403.75"/>
<text xml:space="preserve" text-anchor="middle" x="167.25" y="-390.25" font-family="Helvetica,sans-Serif" font-size="10.00">display_line</text>
</a>
</g>
</g>
<!-- Node1&#45;&gt;Node2 -->
<g id="edge1_Node000001_Node000002" class="edge">
<title>Node1&#45;&gt;Node2</title>
<g id="a_edge1_Node000001_Node000002"><a xlink:title=" ">
<path fill="none" stroke="#63b8ff" d="M52.93,-214.13C72.34,-244.83 128.2,-333.2 153.52,-373.23"/>
<polygon fill="#63b8ff" stroke="#63b8ff" points="150.41,-374.87 158.71,-381.45 156.33,-371.13 150.41,-374.87"/>
</a>
</g>
</g>
<!-- Node23 -->
<g id="Node000023" class="node">
<title>Node23</title>
<g id="a_Node000023"><a xlink:href="../../dd/d52/a00221.html#a747411d59b020ad11d4567ab0b3db8c2" target="_top" xlink:title="Format Line for Display.">
<polygon fill="white" stroke="#666666" points="195.5,-213.75 139,-213.75 139,-193 195.5,-193 195.5,-213.75"/>
<text xml:space="preserve" text-anchor="middle" x="167.25" y="-200.25" font-family="Helvetica,sans-Serif" font-size="10.00">fmt_line</text>
</a>
</g>
</g>
<!-- Node1&#45;&gt;Node23 -->
<g id="edge40_Node000001_Node000023" class="edge">
<title>Node1&#45;&gt;Node23</title>
<g id="a_edge40_Node000001_Node000023"><a xlink:title=" ">
<path fill="none" stroke="#63b8ff" d="M90.51,-203.38C102.64,-203.38 115.69,-203.38 127.48,-203.38"/>
<polygon fill="#63b8ff" stroke="#63b8ff" points="127.26,-206.88 137.26,-203.38 127.26,-199.88 127.26,-206.88"/>
</a>
</g>
</g>
<!-- Node31 -->
<g id="Node000031" class="node">
<title>Node31</title>
<g id="a_Node000031"><a xlink:href="../../dd/d52/a00221.html#a395b27e6a9716bf49e3fc04d53987b33" target="_top" xlink:title="Get Next Line from File.">
<polygon fill="white" stroke="#666666" points="208.25,-174.75 126.25,-174.75 126.25,-154 208.25,-154 208.25,-174.75"/>
<text xml:space="preserve" text-anchor="middle" x="167.25" y="-161.25" font-family="Helvetica,sans-Serif" font-size="10.00">get_next_line</text>
</a>
</g>
</g>
<!-- Node1&#45;&gt;Node31 -->
<g id="edge50_Node000001_Node000031" class="edge">
<title>Node1&#45;&gt;Node31</title>
<g id="a_edge50_Node000001_Node000031"><a xlink:title=" ">
<path fill="none" stroke="#63b8ff" d="M79.59,-192.51C92.73,-188.24 108.01,-183.28 122.04,-178.73"/>
<polygon fill="#63b8ff" stroke="#63b8ff" points="123.1,-182.06 131.53,-175.65 120.94,-175.41 123.1,-182.06"/>
</a>
</g>
</g>
<!-- Node3 -->
<g id="Node000003" class="node">
<title>Node3</title>
<g id="a_Node000003"><a xlink:href="../../df/d95/a00299.html#a61b4f28456257f68ed042bed7f187efd" target="_top" xlink:title="Display a simple error message window or print to stderr.">
<polygon fill="white" stroke="#666666" points="310.12,-479.75 264.88,-479.75 264.88,-459 310.12,-459 310.12,-479.75"/>
<text xml:space="preserve" text-anchor="middle" x="287.5" y="-466.25" font-family="Helvetica,sans-Serif" font-size="10.00">Perror</text>
</a>
</g>
</g>
<!-- Node2&#45;&gt;Node3 -->
<g id="edge2_Node000002_Node000003" class="edge">
<title>Node2&#45;&gt;Node3</title>
<g id="a_edge2_Node000002_Node000003"><a xlink:title=" ">
<path fill="none" stroke="#63b8ff" d="M184.94,-404.1C204.57,-416.72 237.4,-437.82 260.4,-452.6"/>
<polygon fill="#63b8ff" stroke="#63b8ff" points="258.32,-455.42 268.62,-457.88 262.1,-449.53 258.32,-455.42"/>
</a>
</g>
</g>
<!-- Node4 -->
<g id="Node000004" class="node">
<title>Node4</title>
<g id="a_Node000004"><a xlink:href="../../df/d95/a00299.html#a8f6c45ca4a7f6a41c4c88314e697565a" target="_top" xlink:title="Abnormal program termination.">
<polygon fill="white" stroke="#666666" points="836.88,-383.75 790.88,-383.75 790.88,-363 836.88,-363 836.88,-383.75"/>
<text xml:space="preserve" text-anchor="middle" x="813.88" y="-370.25" font-family="Helvetica,sans-Serif" font-size="10.00">abend</text>
</a>
</g>
</g>
<!-- Node3&#45;&gt;Node4 -->
<g id="edge3_Node000003_Node000004" class="edge">
<title>Node3&#45;&gt;Node4</title>
<g id="a_edge3_Node000003_Node000004"><a xlink:title=" ">
<path fill="none" stroke="#63b8ff" d="M298.51,-479.88C312.4,-493.73 338.97,-517.72 366.75,-529.38 444.4,-561.96 675.13,-613.84 744,-565.38 799.78,-526.12 810.61,-437.24 812.56,-395.64"/>
<polygon fill="#63b8ff" stroke="#63b8ff" points="816.06,-395.75 812.87,-385.64 809.06,-395.53 816.06,-395.75"/>
</a>
</g>
</g>
<!-- Node8 -->
<g id="Node000008" class="node">
<title>Node8</title>
<g id="a_Node000008"><a xlink:href="../../df/d95/a00299.html#a645871e46277e31736bc36d0f3dce4bd" target="_top" xlink:title="construct the chyron string from the chyron structure">
<polygon fill="white" stroke="#666666" points="744,-136.75 650.75,-136.75 650.75,-116 744,-116 744,-136.75"/>
<text xml:space="preserve" text-anchor="middle" x="697.38" y="-123.25" font-family="Helvetica,sans-Serif" font-size="10.00">compile_chyron</text>
</a>
</g>
</g>
<!-- Node3&#45;&gt;Node8 -->
<g id="edge9_Node000003_Node000008" class="edge">
<title>Node3&#45;&gt;Node8</title>
<g id="a_edge9_Node000003_Node000008"><a xlink:title=" ">
<path fill="none" stroke="#63b8ff" d="M290.31,-458.65C299.51,-404.9 341.54,-166.42 366.75,-145.38 406.67,-112.04 555.62,-116.42 638.97,-121.79"/>
<polygon fill="#63b8ff" stroke="#63b8ff" points="638.56,-125.27 648.77,-122.45 639.03,-118.29 638.56,-125.27"/>
</a>
</g>
</g>
<!-- Node10 -->
<g id="Node000010" class="node">
<title>Node10</title>
<g id="a_Node000010"><a xlink:href="../../df/d95/a00299.html#a3f3feb40fd703913c5c136331f627c91" target="_top" xlink:title="Destroy Chyron structure.">
<polygon fill="white" stroke="#666666" points="742.88,-556.75 651.88,-556.75 651.88,-536 742.88,-536 742.88,-556.75"/>
<text xml:space="preserve" text-anchor="middle" x="697.38" y="-543.25" font-family="Helvetica,sans-Serif" font-size="10.00">destroy_chyron</text>
</a>
</g>
</g>
<!-- Node3&#45;&gt;Node10 -->
<g id="edge11_Node000003_Node000010" class="edge">
<title>Node3&#45;&gt;Node10</title>
<g id="a_edge11_Node000003_Node000010"><a xlink:title=" ">
<path fill="none" stroke="#63b8ff" d="M308.85,-480.1C324.31,-487.78 346.34,-497.73 366.75,-503.38 460.55,-529.31 573.79,-539.74 640.17,-543.83"/>
<polygon fill="#63b8ff" stroke="#63b8ff" points="639.91,-547.32 650.09,-544.41 640.32,-540.33 639.91,-547.32"/>
</a>
</g>
</g>
<!-- Node11 -->
<g id="Node000011" class="node">
<title>Node11</title>
<g id="a_Node000011"><a xlink:href="../../df/d95/a00299.html#ad37d5808ff30ae6894780425d865abae" target="_top" xlink:title="Create and initialize Chyron structure.">
<polygon fill="white" stroke="#666666" points="734.62,-402.75 660.12,-402.75 660.12,-382 734.62,-382 734.62,-402.75"/>
<text xml:space="preserve" text-anchor="middle" x="697.38" y="-389.25" font-family="Helvetica,sans-Serif" font-size="10.00">new_chyron</text>
</a>
</g>
</g>
<!-- Node3&#45;&gt;Node11 -->
<g id="edge12_Node000003_Node000011" class="edge">
<title>Node3&#45;&gt;Node11</title>
<g id="a_edge12_Node000003_Node000011"><a xlink:title=" ">
<path fill="none" stroke="#63b8ff" d="M310.36,-466.08C362.98,-458.02 500.79,-436.26 614.75,-412.38 625.89,-410.04 637.82,-407.27 649.02,-404.55"/>
<polygon fill="#63b8ff" stroke="#63b8ff" points="649.58,-408.02 658.46,-402.22 647.91,-401.22 649.58,-408.02"/>
</a>
</g>
</g>
<!-- Node12 -->
<g id="Node000012" class="node">
<title>Node12</title>
<g id="a_Node000012"><a xlink:href="../../df/d95/a00299.html#a208ce92c197fdd6d2b007987e534aa3b" target="_top" xlink:title="Set chyron key.">
<polygon fill="white" stroke="#666666" points="743.25,-250.75 651.5,-250.75 651.5,-230 743.25,-230 743.25,-250.75"/>
<text xml:space="preserve" text-anchor="middle" x="697.38" y="-237.25" font-family="Helvetica,sans-Serif" font-size="10.00">set_chyron_key</text>
</a>
</g>
</g>
<!-- Node3&#45;&gt;Node12 -->
<g id="edge14_Node000003_Node000012" class="edge">
<title>Node3&#45;&gt;Node12</title>
<g id="a_edge14_Node000003_Node000012"><a xlink:title=" ">
<path fill="none" stroke="#63b8ff" d="M294.92,-458.51C306.83,-439.17 334.13,-398.55 366.75,-374.38 451.84,-311.31 570.81,-272.61 640.11,-253.93"/>
<polygon fill="#63b8ff" stroke="#63b8ff" points="640.97,-257.32 649.74,-251.38 639.18,-250.56 640.97,-257.32"/>
</a>
</g>
</g>
<!-- Node13 -->
<g id="Node000013" class="node">
<title>Node13</title>
<g id="a_Node000013"><a xlink:href="../../dc/d5d/a00278.html#a63eb94756fb011a456a3dec900709cd8" target="_top" xlink:title="ssnprintf was designed to be a safer alternative to snprintf.">
<polygon fill="white" stroke="#666666" points="843.25,-250.75 784.5,-250.75 784.5,-230 843.25,-230 843.25,-250.75"/>
<text xml:space="preserve" text-anchor="middle" x="813.88" y="-237.25" font-family="Helvetica,sans-Serif" font-size="10.00">ssnprintf</text>
</a>
</g>
</g>
<!-- Node3&#45;&gt;Node13 -->
<g id="edge16_Node000003_Node000013" class="edge">
<title>Node3&#45;&gt;Node13</title>
<g id="a_edge16_Node000003_Node000013"><a xlink:title=" ">
<path fill="none" stroke="#63b8ff" d="M290.47,-458.75C296.42,-429.67 316.97,-348.13 366.75,-305.38 466.61,-219.62 520.41,-239.77 650.75,-221.38 691.79,-215.58 702.93,-215.81 744,-221.38 753.53,-222.66 763.59,-224.91 773.01,-227.43"/>
<polygon fill="#63b8ff" stroke="#63b8ff" points="772.05,-230.79 782.62,-230.16 773.96,-224.06 772.05,-230.79"/>
</a>
</g>
</g>
<!-- Node14 -->
<g id="Node000014" class="node">
<title>Node14</title>
<g id="a_Node000014"><a xlink:href="../../dc/d5d/a00278.html#a0de2e40df9bd7efc8fd9afb8ad2257e6" target="_top" xlink:title="safer alternative to strncpy">
<polygon fill="white" stroke="#666666" points="847.75,-555.75 780,-555.75 780,-535 847.75,-535 847.75,-555.75"/>
<text xml:space="preserve" text-anchor="middle" x="813.88" y="-542.25" font-family="Helvetica,sans-Serif" font-size="10.00">strnz__cpy</text>
</a>
</g>
</g>
<!-- Node3&#45;&gt;Node14 -->
<g id="edge17_Node000003_Node000014" class="edge">
<title>Node3&#45;&gt;Node14</title>
<g id="a_edge17_Node000003_Node000014"><a xlink:title=" ">
<path fill="none" stroke="#63b8ff" d="M291.11,-479.94C298.14,-505.81 320.19,-572.16 366.75,-598.38 439.8,-639.5 664.63,-625.38 744,-598.38 763.96,-591.58 782.65,-576.41 795.51,-564.04"/>
<polygon fill="#63b8ff" stroke="#63b8ff" points="797.81,-566.69 802.36,-557.12 792.84,-561.76 797.81,-566.69"/>
</a>
</g>
</g>
<!-- Node15 -->
<g id="Node000015" class="node">
<title>Node15</title>
<g id="a_Node000015"><a xlink:href="../../df/d95/a00299.html#a9dd598e1d49c8764af1eec42c682623e" target="_top" xlink:title="Delete the current window and its associated box window.">
<polygon fill="white" stroke="#666666" points="724.12,-517.75 670.62,-517.75 670.62,-497 724.12,-497 724.12,-517.75"/>
<text xml:space="preserve" text-anchor="middle" x="697.38" y="-504.25" font-family="Helvetica,sans-Serif" font-size="10.00">win_del</text>
</a>
</g>
</g>
<!-- Node3&#45;&gt;Node15 -->
<g id="edge18_Node000003_Node000015" class="edge">
<title>Node3&#45;&gt;Node15</title>
<g id="a_edge18_Node000003_Node000015"><a xlink:title=" ">
<path fill="none" stroke="#63b8ff" d="M310.33,-473.91C325.97,-477.01 347.58,-480.97 366.75,-483.38 472.16,-496.61 597.52,-503.25 658.83,-505.92"/>
<polygon fill="#63b8ff" stroke="#63b8ff" points="658.57,-509.41 668.71,-506.33 658.86,-502.42 658.57,-509.41"/>
</a>
</g>
</g>
<!-- Node16 -->
<g id="Node000016" class="node">
<title>Node16</title>
<g id="a_Node000016"><a xlink:href="../../df/d95/a00299.html#a435c7bff7ffedb8f51c6de9259e36f6c" target="_top" xlink:title="Create a new window with optional box and title.">
<polygon fill="white" stroke="#666666" points="726.75,-670.75 668,-670.75 668,-650 726.75,-650 726.75,-670.75"/>
<text xml:space="preserve" text-anchor="middle" x="697.38" y="-657.25" font-family="Helvetica,sans-Serif" font-size="10.00">win_new</text>
</a>
</g>
</g>
<!-- Node3&#45;&gt;Node16 -->
<g id="edge19_Node000003_Node000016" class="edge">
<title>Node3&#45;&gt;Node16</title>
<g id="a_edge19_Node000003_Node000016"><a xlink:title=" ">
<path fill="none" stroke="#63b8ff" d="M289.81,-479.92C294.19,-510.3 311.36,-598.26 366.75,-636.38 455.04,-697.12 589.97,-682 656.48,-669.38"/>
<polygon fill="#63b8ff" stroke="#63b8ff" points="657.08,-672.83 666.21,-667.45 655.72,-665.97 657.08,-672.83"/>
</a>
</g>
</g>
<!-- Node18 -->
<g id="Node000018" class="node">
<title>Node18</title>
<g id="a_Node000018"><a xlink:href="../../df/d95/a00299.html#acf4c709bccc4c965a5d61db978db31a3" target="_top" xlink:title="Wrapper for wgetch that handles signals and mouse events.">
<polygon fill="white" stroke="#666666" points="455.12,-403.75 397.88,-403.75 397.88,-383 455.12,-383 455.12,-403.75"/>
<text xml:space="preserve" text-anchor="middle" x="426.5" y="-390.25" font-family="Helvetica,sans-Serif" font-size="10.00">xwgetch</text>
</a>
</g>
</g>
<!-- Node3&#45;&gt;Node18 -->
<g id="edge22_Node000003_Node000018" class="edge">
<title>Node3&#45;&gt;Node18</title>
<g id="a_edge22_Node000003_Node000018"><a xlink:title=" ">
<path fill="none" stroke="#63b8ff" d="M307.84,-458.65C330.89,-445.86 369.64,-424.36 396.33,-409.56"/>
<polygon fill="#63b8ff" stroke="#63b8ff" points="397.89,-412.69 404.94,-404.78 394.49,-406.57 397.89,-412.69"/>
</a>
</g>
</g>
<!-- Node5 -->
<g id="Node000005" class="node">
<title>Node5</title>
<g id="a_Node000005"><a xlink:href="../../df/d95/a00299.html#afc0985a403e3eac0b2cd8f0fab500256" target="_top" xlink:title="Gracefully shut down NCurses and restore terminal settings.">
<polygon fill="white" stroke="#666666" points="973.25,-365.75 883.75,-365.75 883.75,-345 973.25,-345 973.25,-365.75"/>
<text xml:space="preserve" text-anchor="middle" x="928.5" y="-352.25" font-family="Helvetica,sans-Serif" font-size="10.00">destroy_curses</text>
</a>
</g>
</g>
<!-- Node4&#45;&gt;Node5 -->
<g id="edge4_Node000004_Node000005" class="edge">
<title>Node4&#45;&gt;Node5</title>
<g id="a_edge4_Node000004_Node000005"><a xlink:title=" ">
<path fill="none" stroke="#63b8ff" d="M837.13,-369.82C847.24,-368.2 859.69,-366.21 872.09,-364.23"/>
<polygon fill="#63b8ff" stroke="#63b8ff" points="872.58,-367.7 881.9,-362.66 871.47,-360.79 872.58,-367.7"/>
</a>
</g>
</g>
<!-- Node6 -->
<g id="Node000006" class="node">
<title>Node6</title>
<g id="a_Node000006"><a xlink:href="../../d6/de1/a00233.html#ac5e3adb304b78910fc77761ef6a743f0" target="_top" xlink:title="restore_shell_tioctl() &#45; restore shell terminal settings">
<polygon fill="white" stroke="#666666" points="1118.25,-403.75 1009.25,-403.75 1009.25,-383 1118.25,-383 1118.25,-403.75"/>
<text xml:space="preserve" text-anchor="middle" x="1063.75" y="-390.25" font-family="Helvetica,sans-Serif" font-size="10.00">restore_shell_tioctl</text>
</a>
</g>
</g>
<!-- Node4&#45;&gt;Node6 -->
<g id="edge7_Node000004_Node000006" class="edge">
<title>Node4&#45;&gt;Node6</title>
<g id="a_edge7_Node000004_Node000006"><a xlink:title=" ">
<path fill="none" stroke="#63b8ff" d="M837.31,-375.19C873.17,-378.08 944.75,-383.85 997.68,-388.12"/>
<polygon fill="#63b8ff" stroke="#63b8ff" points="997.25,-391.6 1007.5,-388.92 997.81,-384.62 997.25,-391.6"/>
</a>
</g>
</g>
<!-- Node7 -->
<g id="Node000007" class="node">
<title>Node7</title>
<g id="a_Node000007"><a xlink:href="../../d1/da8/a00230.html#a06c1eb6cf3649dc187115565409f91af" target="_top" xlink:title="Set signal handlers to default behavior.">
<polygon fill="white" stroke="#666666" points="1104.38,-346.75 1023.12,-346.75 1023.12,-326 1104.38,-326 1104.38,-346.75"/>
<text xml:space="preserve" text-anchor="middle" x="1063.75" y="-333.25" font-family="Helvetica,sans-Serif" font-size="10.00">sig_dfl_mode</text>
</a>
</g>
</g>
<!-- Node4&#45;&gt;Node7 -->
<g id="edge8_Node000004_Node000007" class="edge">
<title>Node4&#45;&gt;Node7</title>
<g id="a_edge8_Node000004_Node000007"><a xlink:title=" ">
<path fill="none" stroke="#63b8ff" d="M829.83,-362.51C843.21,-353.51 863.74,-341.41 883.75,-336.38 925.9,-325.77 975.42,-326.75 1011.68,-329.83"/>
<polygon fill="#63b8ff" stroke="#63b8ff" points="1011.17,-333.29 1021.45,-330.75 1011.83,-326.33 1011.17,-333.29"/>
</a>
</g>
</g>
<!-- Node5&#45;&gt;Node6 -->
<g id="edge5_Node000005_Node000006" class="edge">
<title>Node5&#45;&gt;Node6</title>
<g id="a_edge5_Node000005_Node000006"><a xlink:title=" ">
<path fill="none" stroke="#63b8ff" d="M967.33,-366.16C981.82,-370.29 998.55,-375.07 1013.93,-379.45"/>
<polygon fill="#63b8ff" stroke="#63b8ff" points="1012.8,-382.77 1023.37,-382.15 1014.72,-376.04 1012.8,-382.77"/>
</a>
</g>
</g>
<!-- Node5&#45;&gt;Node7 -->
<g id="edge6_Node000005_Node000007" class="edge">
<title>Node5&#45;&gt;Node7</title>
<g id="a_edge6_Node000005_Node000007"><a xlink:title=" ">
<path fill="none" stroke="#63b8ff" d="M973.5,-349.1C985.69,-347.36 999.02,-345.46 1011.58,-343.67"/>
<polygon fill="#63b8ff" stroke="#63b8ff" points="1011.94,-347.16 1021.34,-342.28 1010.95,-340.23 1011.94,-347.16"/>
</a>
</g>
</g>
<!-- Node9 -->
<g id="Node000009" class="node">
<title>Node9</title>
<g id="a_Node000009"><a xlink:href="../../dc/d5d/a00278.html#aa0145c044cfdde3a1c83323410a59f25" target="_top" xlink:title="safer alternative to strncat">
<polygon fill="white" stroke="#666666" points="846.62,-136.75 781.12,-136.75 781.12,-116 846.62,-116 846.62,-136.75"/>
<text xml:space="preserve" text-anchor="middle" x="813.88" y="-123.25" font-family="Helvetica,sans-Serif" font-size="10.00">strnz__cat</text>
</a>
</g>
</g>
<!-- Node8&#45;&gt;Node9 -->
<g id="edge10_Node000008_Node000009" class="edge">
<title>Node8&#45;&gt;Node9</title>
<g id="a_edge10_Node000008_Node000009"><a xlink:title=" ">
<path fill="none" stroke="#63b8ff" d="M744.29,-126.38C752.58,-126.38 761.19,-126.38 769.41,-126.38"/>
<polygon fill="#63b8ff" stroke="#63b8ff" points="769.17,-129.88 779.17,-126.38 769.17,-122.88 769.17,-129.88"/>
</a>
</g>
</g>
<!-- Node11&#45;&gt;Node4 -->
<g id="edge13_Node000011_Node000004" class="edge">
<title>Node11&#45;&gt;Node4</title>
<g id="a_edge13_Node000011_Node000004"><a xlink:title=" ">
<path fill="none" stroke="#63b8ff" d="M734.92,-386.31C749.24,-383.94 765.55,-381.23 779.54,-378.91"/>
<polygon fill="#63b8ff" stroke="#63b8ff" points="779.86,-382.4 789.16,-377.31 778.72,-375.5 779.86,-382.4"/>
</a>
</g>
</g>
<!-- Node12&#45;&gt;Node13 -->
<g id="edge15_Node000012_Node000013" class="edge">
<title>Node12&#45;&gt;Node13</title>
<g id="a_edge15_Node000012_Node000013"><a xlink:title=" ">
<path fill="none" stroke="#63b8ff" d="M743.63,-240.38C753.21,-240.38 763.26,-240.38 772.64,-240.38"/>
<polygon fill="#63b8ff" stroke="#63b8ff" points="772.57,-243.88 782.57,-240.38 772.57,-236.88 772.57,-243.88"/>
</a>
</g>
</g>
<!-- Node16&#45;&gt;Node14 -->
<g id="edge21_Node000016_Node000014" class="edge">
<title>Node16&#45;&gt;Node14</title>
<g id="a_edge21_Node000016_Node000014"><a xlink:title=" ">
<path fill="none" stroke="#63b8ff" d="M723.77,-649.52C730.73,-645.9 737.99,-641.47 744,-636.38 768.08,-615.95 788.87,-585.69 801.13,-565.76"/>
<polygon fill="#63b8ff" stroke="#63b8ff" points="803.99,-567.8 806.11,-557.42 797.98,-564.21 803.99,-567.8"/>
</a>
</g>
</g>
<!-- Node17 -->
<g id="Node000017" class="node">
<title>Node17</title>
<g id="a_Node000017"><a xlink:href="../../df/d95/a00299.html#ac9adcf7339be4a05ab1a7350c236b8a5" target="_top" xlink:title="Draw a box around the specified window.">
<polygon fill="white" stroke="#666666" points="833.5,-670.75 794.25,-670.75 794.25,-650 833.5,-650 833.5,-670.75"/>
<text xml:space="preserve" text-anchor="middle" x="813.88" y="-657.25" font-family="Helvetica,sans-Serif" font-size="10.00">cbox</text>
</a>
</g>
</g>
<!-- Node16&#45;&gt;Node17 -->
<g id="edge20_Node000016_Node000017" class="edge">
<title>Node16&#45;&gt;Node17</title>
<g id="a_edge20_Node000016_Node000017"><a xlink:title=" ">
<path fill="none" stroke="#63b8ff" d="M726.97,-660.38C743.9,-660.38 765.32,-660.38 782.54,-660.38"/>
<polygon fill="#63b8ff" stroke="#63b8ff" points="782.44,-663.88 792.44,-660.38 782.44,-656.88 782.44,-663.88"/>
</a>
</g>
</g>
<!-- Node19 -->
<g id="Node000019" class="node">
<title>Node19</title>
<g id="a_Node000019"><a xlink:href="../../df/d95/a00299.html#a67659f8a701b74f4dec0d36227a10d1c" target="_top" xlink:title="Display an error message window or print to stderr.">
<polygon fill="white" stroke="#666666" points="608.38,-364.75 528.62,-364.75 528.62,-344 608.38,-344 608.38,-364.75"/>
<text xml:space="preserve" text-anchor="middle" x="568.5" y="-351.25" font-family="Helvetica,sans-Serif" font-size="10.00">display_error</text>
</a>
</g>
</g>
<!-- Node18&#45;&gt;Node19 -->
<g id="edge23_Node000018_Node000019" class="edge">
<title>Node18&#45;&gt;Node19</title>
<g id="a_edge23_Node000018_Node000019"><a xlink:title=" ">
<path fill="none" stroke="#63b8ff" d="M448.46,-382.55C466.63,-375.87 493.67,-367.83 517.39,-361.83"/>
<polygon fill="#63b8ff" stroke="#63b8ff" points="518.01,-365.28 526.89,-359.51 516.34,-358.49 518.01,-365.28"/>
</a>
</g>
</g>
<!-- Node21 -->
<g id="Node000021" class="node">
<title>Node21</title>
<g id="a_Node000021"><a xlink:href="../../df/d95/a00299.html#a4298f891699300bfc4e6e56fd2a8d574" target="_top" xlink:title="Get keycode from chyron.">
<polygon fill="white" stroke="#666666" points="614.75,-403.75 522.25,-403.75 522.25,-383 614.75,-383 614.75,-403.75"/>
<text xml:space="preserve" text-anchor="middle" x="568.5" y="-390.25" font-family="Helvetica,sans-Serif" font-size="10.00">get_chyron_key</text>
</a>
</g>
</g>
<!-- Node18&#45;&gt;Node21 -->
<g id="edge35_Node000018_Node000021" class="edge">
<title>Node18&#45;&gt;Node21</title>
<g id="a_edge35_Node000018_Node000021"><a xlink:title=" ">
<path fill="none" stroke="#63b8ff" d="M455.49,-393.38C471.3,-393.38 491.63,-393.38 510.62,-393.38"/>
<polygon fill="#63b8ff" stroke="#63b8ff" points="510.4,-396.88 520.4,-393.38 510.4,-389.88 510.4,-396.88"/>
</a>
</g>
</g>
<!-- Node22 -->
<g id="Node000022" class="node">
<title>Node22</title>
<g id="a_Node000022"><a xlink:href="../../d1/da8/a00230.html#a79c3e22498eb2346543aa9c86fd22e58" target="_top" xlink:title="Handle received signals and prompt user for action.">
<polygon fill="white" stroke="#666666" points="739.12,-441.75 655.62,-441.75 655.62,-421 739.12,-421 739.12,-441.75"/>
<text xml:space="preserve" text-anchor="middle" x="697.38" y="-428.25" font-family="Helvetica,sans-Serif" font-size="10.00">handle_signal</text>
</a>
</g>
</g>
<!-- Node18&#45;&gt;Node22 -->
<g id="edge36_Node000018_Node000022" class="edge">
<title>Node18&#45;&gt;Node22</title>
<g id="a_edge36_Node000018_Node000022"><a xlink:title=" ">
<path fill="none" stroke="#63b8ff" d="M455.58,-399.69C474.37,-403.75 499.7,-408.89 522.25,-412.38 563.02,-418.67 609.48,-423.63 644.15,-426.9"/>
<polygon fill="#63b8ff" stroke="#63b8ff" points="643.64,-430.37 653.92,-427.81 644.29,-423.4 643.64,-430.37"/>
</a>
</g>
</g>
<!-- Node19&#45;&gt;Node4 -->
<g id="edge24_Node000019_Node000004" class="edge">
<title>Node19&#45;&gt;Node4</title>
<g id="a_edge24_Node000019_Node000004"><a xlink:title=" ">
<path fill="none" stroke="#63b8ff" d="M608.87,-357.45C656.19,-361.14 734.78,-367.28 779.34,-370.76"/>
<polygon fill="#63b8ff" stroke="#63b8ff" points="778.93,-374.24 789.18,-371.52 779.48,-367.26 778.93,-374.24"/>
</a>
</g>
</g>
<!-- Node19&#45;&gt;Node8 -->
<g id="edge25_Node000019_Node000008" class="edge">
<title>Node19&#45;&gt;Node8</title>
<g id="a_edge25_Node000019_Node000008"><a xlink:title=" ">
<path fill="none" stroke="#63b8ff" d="M575.45,-343.68C595.18,-308.23 658.68,-194.11 684.9,-147"/>
<polygon fill="#63b8ff" stroke="#63b8ff" points="687.9,-148.81 689.7,-138.37 681.78,-145.4 687.9,-148.81"/>
</a>
</g>
</g>
<!-- Node19&#45;&gt;Node10 -->
<g id="edge26_Node000019_Node000010" class="edge">
<title>Node19&#45;&gt;Node10</title>
<g id="a_edge26_Node000019_Node000010"><a xlink:title=" ">
<path fill="none" stroke="#63b8ff" d="M603.57,-365.15C607.78,-367.64 611.68,-370.68 614.75,-374.38 659.13,-427.76 606.29,-473.06 650.75,-526.38 651.43,-527.19 652.15,-527.97 652.9,-528.72"/>
<polygon fill="#63b8ff" stroke="#63b8ff" points="650.73,-531.47 660.82,-534.72 654.96,-525.89 650.73,-531.47"/>
</a>
</g>
</g>
<!-- Node19&#45;&gt;Node11 -->
<g id="edge27_Node000019_Node000011" class="edge">
<title>Node19&#45;&gt;Node11</title>
<g id="a_edge27_Node000019_Node000011"><a xlink:title=" ">
<path fill="none" stroke="#63b8ff" d="M605.52,-365.16C619.18,-369.25 634.94,-373.97 649.46,-378.32"/>
<polygon fill="#63b8ff" stroke="#63b8ff" points="648.23,-381.61 658.82,-381.13 650.24,-374.9 648.23,-381.61"/>
</a>
</g>
</g>
<!-- Node19&#45;&gt;Node12 -->
<g id="edge28_Node000019_Node000012" class="edge">
<title>Node19&#45;&gt;Node12</title>
<g id="a_edge28_Node000019_Node000012"><a xlink:title=" ">
<path fill="none" stroke="#63b8ff" d="M577.25,-343.55C590.64,-325.41 619.66,-288.52 650.75,-264.38 654.31,-261.61 658.23,-259.01 662.23,-256.61"/>
<polygon fill="#63b8ff" stroke="#63b8ff" points="663.82,-259.73 670.87,-251.82 660.43,-253.61 663.82,-259.73"/>
</a>
</g>
</g>
<!-- Node19&#45;&gt;Node13 -->
<g id="edge29_Node000019_Node000013" class="edge">
<title>Node19&#45;&gt;Node13</title>
<g id="a_edge29_Node000019_Node000013"><a xlink:title=" ">
<path fill="none" stroke="#63b8ff" d="M582.3,-343.71C597.74,-331.27 624.85,-310.69 650.75,-297.38 690.68,-276.84 739.69,-260.75 773.3,-250.98"/>
<polygon fill="#63b8ff" stroke="#63b8ff" points="773.97,-254.43 782.62,-248.32 772.05,-247.7 773.97,-254.43"/>
</a>
</g>
</g>
<!-- Node19&#45;&gt;Node14 -->
<g id="edge31_Node000019_Node000014" class="edge">
<title>Node19&#45;&gt;Node14</title>
<g id="a_edge31_Node000019_Node000014"><a xlink:title=" ">
<path fill="none" stroke="#63b8ff" d="M601.5,-365.02C606.31,-367.57 610.94,-370.66 614.75,-374.38 641.52,-400.46 623.6,-424.69 650.75,-450.38 683.26,-481.13 705.59,-465.4 744,-488.38 762.18,-499.25 780.56,-514.74 793.75,-526.82"/>
<polygon fill="#63b8ff" stroke="#63b8ff" points="791.19,-529.22 800.88,-533.51 795.98,-524.12 791.19,-529.22"/>
</a>
</g>
</g>
<!-- Node19&#45;&gt;Node15 -->
<g id="edge32_Node000019_Node000015" class="edge">
<title>Node19&#45;&gt;Node15</title>
<g id="a_edge32_Node000019_Node000015"><a xlink:title=" ">
<path fill="none" stroke="#63b8ff" d="M602.83,-365.14C607.25,-367.64 611.4,-370.69 614.75,-374.38 649.03,-412.16 617.78,-444.45 650.75,-483.38 653.52,-486.64 656.84,-489.52 660.42,-492.05"/>
<polygon fill="#63b8ff" stroke="#63b8ff" points="658.59,-495.04 668.97,-497.16 662.18,-489.03 658.59,-495.04"/>
</a>
</g>
</g>
<!-- Node19&#45;&gt;Node16 -->
<g id="edge33_Node000019_Node000016" class="edge">
<title>Node19&#45;&gt;Node16</title>
<g id="a_edge33_Node000019_Node000016"><a xlink:title=" ">
<path fill="none" stroke="#63b8ff" d="M603.73,-365.02C607.92,-367.53 611.76,-370.61 614.75,-374.38 668.42,-442.06 623.82,-483.3 650.75,-565.38 659.52,-592.12 674.22,-621.02 684.56,-639.83"/>
<polygon fill="#63b8ff" stroke="#63b8ff" points="681.38,-641.32 689.33,-648.33 687.49,-637.89 681.38,-641.32"/>
</a>
</g>
</g>
<!-- Node19&#45;&gt;Node18 -->
<g id="edge34_Node000019_Node000018" class="edge">
<title>Node19&#45;&gt;Node18</title>
<g id="a_edge34_Node000019_Node000018"><a xlink:title=" ">
<path fill="none" stroke="#63b8ff" d="M546.4,-365.25C525.29,-373 492.32,-382.56 466.45,-388.65"/>
<polygon fill="#63b8ff" stroke="#63b8ff" points="465.96,-385.17 456.97,-390.77 467.5,-392 465.96,-385.17"/>
</a>
</g>
</g>
<!-- Node20 -->
<g id="Node000020" class="node">
<title>Node20</title>
<g id="a_Node000020"><a xlink:href="../../dc/d5d/a00278.html#a636608f26d1193b5d860f2312cd8ee49" target="_top" xlink:title="terminates string at New Line, Carriage Return, or max_len">
<polygon fill="white" stroke="#666666" points="717.38,-326.75 677.38,-326.75 677.38,-306 717.38,-306 717.38,-326.75"/>
<text xml:space="preserve" text-anchor="middle" x="697.38" y="-313.25" font-family="Helvetica,sans-Serif" font-size="10.00">strnz</text>
</a>
</g>
</g>
<!-- Node19&#45;&gt;Node20 -->
<g id="edge30_Node000019_Node000020" class="edge">
<title>Node19&#45;&gt;Node20</title>
<g id="a_edge30_Node000019_Node000020"><a xlink:title=" ">
<path fill="none" stroke="#63b8ff" d="M605.52,-343.59C624.72,-337.84 648.07,-330.84 666.29,-325.38"/>
<polygon fill="#63b8ff" stroke="#63b8ff" points="667.14,-328.79 675.71,-322.56 665.13,-322.08 667.14,-328.79"/>
</a>
</g>
</g>
<!-- Node22&#45;&gt;Node6 -->
<g id="edge37_Node000022_Node000006" class="edge">
<title>Node22&#45;&gt;Node6</title>
<g id="a_edge37_Node000022_Node000006"><a xlink:title=" ">
<path fill="none" stroke="#63b8ff" d="M739.47,-427.09C802.31,-420.54 922.87,-407.96 997.69,-400.16"/>
<polygon fill="#63b8ff" stroke="#63b8ff" points="997.75,-403.67 1007.33,-399.15 997.02,-396.71 997.75,-403.67"/>
</a>
</g>
</g>
<!-- Node22&#45;&gt;Node13 -->
<g id="edge38_Node000022_Node000013" class="edge">
<title>Node22&#45;&gt;Node13</title>
<g id="a_edge38_Node000022_Node000013"><a xlink:title=" ">
<path fill="none" stroke="#63b8ff" d="M731.3,-420.71C735.96,-418.18 740.39,-415.1 744,-411.38 765.56,-389.16 793.86,-302.87 806.41,-262.03"/>
<polygon fill="#63b8ff" stroke="#63b8ff" points="809.72,-263.19 809.27,-252.61 803.02,-261.16 809.72,-263.19"/>
</a>
</g>
</g>
<!-- Node22&#45;&gt;Node14 -->
<g id="edge39_Node000022_Node000014" class="edge">
<title>Node22&#45;&gt;Node14</title>
<g id="a_edge39_Node000022_Node000014"><a xlink:title=" ">
<path fill="none" stroke="#63b8ff" d="M723.28,-442.01C730.38,-445.67 737.84,-450.18 744,-455.38 767.85,-475.5 788.59,-505.24 800.91,-524.95"/>
<polygon fill="#63b8ff" stroke="#63b8ff" points="797.89,-526.72 806.08,-533.45 803.88,-523.09 797.89,-526.72"/>
</a>
</g>
</g>
<!-- Node24 -->
<g id="Node000024" class="node">
<title>Node24</title>
<g id="a_Node000024"><a xlink:href="../../dd/d52/a00221.html#a9fc984ba8ce6c4059b33a915d526357f" target="_top" xlink:title="Parse ANSI SGR Escape Sequence.">
<polygon fill="white" stroke="#666666" points="330.75,-98.75 244.25,-98.75 244.25,-78 330.75,-78 330.75,-98.75"/>
<text xml:space="preserve" text-anchor="middle" x="287.5" y="-85.25" font-family="Helvetica,sans-Serif" font-size="10.00">parse_ansi_str</text>
</a>
</g>
</g>
<!-- Node23&#45;&gt;Node24 -->
<g id="edge41_Node000023_Node000024" class="edge">
<title>Node23&#45;&gt;Node24</title>
<g id="a_edge41_Node000023_Node000024"><a xlink:title=" ">
<path fill="none" stroke="#63b8ff" d="M193.76,-192.63C198.8,-189.96 203.88,-186.86 208.25,-183.38 235.41,-161.73 259.63,-129.28 273.69,-108.46"/>
<polygon fill="#63b8ff" stroke="#63b8ff" points="276.5,-110.56 279.08,-100.28 270.65,-106.71 276.5,-110.56"/>
</a>
</g>
</g>
<!-- Node30 -->
<g id="Node000030" class="node">
<title>Node30</title>
<g id="a_Node000030"><a xlink:href="../../dc/d5d/a00278.html#a4f42956462e811d96c9fb881a85dada4" target="_top" xlink:title="Trims trailing spaces from string s in place.">
<polygon fill="white" stroke="#666666" points="307.5,-213.75 267.5,-213.75 267.5,-193 307.5,-193 307.5,-213.75"/>
<text xml:space="preserve" text-anchor="middle" x="287.5" y="-200.25" font-family="Helvetica,sans-Serif" font-size="10.00">rtrim</text>
</a>
</g>
</g>
<!-- Node23&#45;&gt;Node30 -->
<g id="edge49_Node000023_Node000030" class="edge">
<title>Node23&#45;&gt;Node30</title>
<g id="a_edge49_Node000023_Node000030"><a xlink:title=" ">
<path fill="none" stroke="#63b8ff" d="M195.97,-203.38C213.89,-203.38 237.23,-203.38 255.73,-203.38"/>
<polygon fill="#63b8ff" stroke="#63b8ff" points="255.56,-206.88 265.56,-203.38 255.56,-199.88 255.56,-206.88"/>
</a>
</g>
</g>
<!-- Node25 -->
<g id="Node000025" class="node">
<title>Node25</title>
<g id="a_Node000025"><a xlink:href="../../dc/d5d/a00278.html#ab96e4c73a7b3ba1310044b479733cdd9" target="_top" xlink:title="a safer alternative to atoi() for converting ASCII strings to integers.">
<polygon fill="white" stroke="#666666" points="446.5,-98.75 406.5,-98.75 406.5,-78 446.5,-78 446.5,-98.75"/>
<text xml:space="preserve" text-anchor="middle" x="426.5" y="-85.25" font-family="Helvetica,sans-Serif" font-size="10.00">a_toi</text>
</a>
</g>
</g>
<!-- Node24&#45;&gt;Node25 -->
<g id="edge42_Node000024_Node000025" class="edge">
<title>Node24&#45;&gt;Node25</title>
<g id="a_edge42_Node000024_Node000025"><a xlink:title=" ">
<path fill="none" stroke="#63b8ff" d="M331.1,-88.38C351.72,-88.38 376.01,-88.38 394.78,-88.38"/>
<polygon fill="#63b8ff" stroke="#63b8ff" points="394.72,-91.88 404.72,-88.38 394.72,-84.88 394.72,-91.88"/>
</a>
</g>
</g>
<!-- Node26 -->
<g id="Node000026" class="node">
<title>Node26</title>
<g id="a_Node000026"><a xlink:href="../../df/d95/a00299.html#af0ba4efbc81c259a2519ca41dd9d1599" target="_top" xlink:title="Get color pair index for foreground and background colors.">
<polygon fill="white" stroke="#666666" points="463,-174.75 390,-174.75 390,-154 463,-154 463,-174.75"/>
<text xml:space="preserve" text-anchor="middle" x="426.5" y="-161.25" font-family="Helvetica,sans-Serif" font-size="10.00">get_clr_pair</text>
</a>
</g>
</g>
<!-- Node24&#45;&gt;Node26 -->
<g id="edge43_Node000024_Node000026" class="edge">
<title>Node24&#45;&gt;Node26</title>
<g id="a_edge43_Node000024_Node000026"><a xlink:title=" ">
<path fill="none" stroke="#63b8ff" d="M307.84,-99.1C330.89,-111.89 369.64,-133.39 396.33,-148.19"/>
<polygon fill="#63b8ff" stroke="#63b8ff" points="394.49,-151.18 404.94,-152.97 397.89,-145.06 394.49,-151.18"/>
</a>
</g>
</g>
<!-- Node27 -->
<g id="Node000027" class="node">
<title>Node27</title>
<g id="a_Node000027"><a xlink:href="../../df/d95/a00299.html#a4900dd34e828972e58b0ca549cf7d4d8" target="_top" xlink:title="Get color index for RGB color.">
<polygon fill="white" stroke="#666666" points="476.88,-59.75 376.12,-59.75 376.12,-39 476.88,-39 476.88,-59.75"/>
<text xml:space="preserve" text-anchor="middle" x="426.5" y="-46.25" font-family="Helvetica,sans-Serif" font-size="10.00">rgb_to_curses_clr</text>
</a>
</g>
</g>
<!-- Node24&#45;&gt;Node27 -->
<g id="edge46_Node000024_Node000027" class="edge">
<title>Node24&#45;&gt;Node27</title>
<g id="a_edge46_Node000024_Node000027"><a xlink:title=" ">
<path fill="none" stroke="#63b8ff" d="M326.66,-77.51C342.1,-73.12 360.12,-67.99 376.51,-63.32"/>
<polygon fill="#63b8ff" stroke="#63b8ff" points="377.43,-66.7 386.09,-60.59 375.51,-59.97 377.43,-66.7"/>
</a>
</g>
</g>
<!-- Node29 -->
<g id="Node000029" class="node">
<title>Node29</title>
<g id="a_Node000029"><a xlink:href="../../df/d95/a00299.html#a31ee0d93c7b527f92559fc410152f768" target="_top" xlink:title="Convert XTerm 256 color index to RGB color.">
<polygon fill="white" stroke="#666666" points="486.25,-20.75 366.75,-20.75 366.75,0 486.25,0 486.25,-20.75"/>
<text xml:space="preserve" text-anchor="middle" x="426.5" y="-7.25" font-family="Helvetica,sans-Serif" font-size="10.00">xterm256_idx_to_rgb</text>
</a>
</g>
</g>
<!-- Node24&#45;&gt;Node29 -->
<g id="edge48_Node000024_Node000029" class="edge">
<title>Node24&#45;&gt;Node29</title>
<g id="a_edge48_Node000024_Node000029"><a xlink:title=" ">
<path fill="none" stroke="#63b8ff" d="M300.44,-77.66C315.14,-64.92 341.29,-43.73 366.75,-30.38 370.19,-28.57 373.83,-26.87 377.55,-25.3"/>
<polygon fill="#63b8ff" stroke="#63b8ff" points="378.66,-28.62 386.69,-21.71 376.11,-22.1 378.66,-28.62"/>
</a>
</g>
</g>
<!-- Node26&#45;&gt;Node13 -->
<g id="edge45_Node000026_Node000013" class="edge">
<title>Node26&#45;&gt;Node13</title>
<g id="a_edge45_Node000026_Node000013"><a xlink:title=" ">
<path fill="none" stroke="#63b8ff" d="M463.07,-160.73C523.16,-155.94 647.6,-151.96 744,-188.38 763.36,-195.69 781.88,-210.25 794.83,-222.11"/>
<polygon fill="#63b8ff" stroke="#63b8ff" points="792.1,-224.34 801.75,-228.71 796.94,-219.28 792.1,-224.34"/>
</a>
</g>
</g>
<!-- Node26&#45;&gt;Node19 -->
<g id="edge44_Node000026_Node000019" class="edge">
<title>Node26&#45;&gt;Node19</title>
<g id="a_edge44_Node000026_Node000019"><a xlink:title=" ">
<path fill="none" stroke="#63b8ff" d="M435.43,-175.13C458.1,-205.9 523.44,-294.58 552.85,-334.49"/>
<polygon fill="#63b8ff" stroke="#63b8ff" points="550.01,-336.54 558.76,-342.51 555.65,-332.39 550.01,-336.54"/>
</a>
</g>
</g>
<!-- Node28 -->
<g id="Node000028" class="node">
<title>Node28</title>
<g id="a_Node000028"><a xlink:href="../../df/d95/a00299.html#aa3a6b291c0820d9da545325a2dba5274" target="_top" xlink:title="Apply gamma correction to RGB color.">
<polygon fill="white" stroke="#666666" points="611.38,-59.75 525.62,-59.75 525.62,-39 611.38,-39 611.38,-59.75"/>
<text xml:space="preserve" text-anchor="middle" x="568.5" y="-46.25" font-family="Helvetica,sans-Serif" font-size="10.00">apply_gamma</text>
</a>
</g>
</g>
<!-- Node27&#45;&gt;Node28 -->
<g id="edge47_Node000027_Node000028" class="edge">
<title>Node27&#45;&gt;Node28</title>
<g id="a_edge47_Node000027_Node000028"><a xlink:title=" ">
<path fill="none" stroke="#63b8ff" d="M477.25,-49.38C489.16,-49.38 501.93,-49.38 514.01,-49.38"/>
<polygon fill="#63b8ff" stroke="#63b8ff" points="513.8,-52.88 523.8,-49.38 513.8,-45.88 513.8,-52.88"/>
</a>
</g>
</g>
</g>
</svg>
