<?xml version="1.0" encoding="UTF-8" standalone="no"?>
<!DOCTYPE svg PUBLIC "-//W3C//DTD SVG 1.1//EN"
 "http://www.w3.org/Graphics/SVG/1.1/DTD/svg11.dtd">
<!-- Generated by graphviz version 14.1.2 (0)
 -->
<!-- Title: next_page Pages: 1 -->
<svg width="1474pt" height="299pt"
 viewBox="0.00 0.00 1474.00 299.00" xmlns="http://www.w3.org/2000/svg" xmlns:xlink="http://www.w3.org/1999/xlink">
<g id="graph0" class="graph" transform="scale(1 1) rotate(0) translate(4 294.75)">
<title>next_page</title>
<!-- Node1 -->
<g id="Node000001" class="node">
<title>Node1</title>
<g id="a_Node000001"><a xlink:title="Advance to Next Page.">
<polygon fill="#999999" stroke="#666666" points="1465.75,-136.75 1398.75,-136.75 1398.75,-116 1465.75,-116 1465.75,-136.75"/>
<text xml:space="preserve" text-anchor="middle" x="1432.25" y="-123.25" font-family="Helvetica,sans-Serif" font-size="10.00">next_page</text>
</a>
</g>
</g>
<!-- Node2 -->
<g id="Node000002" class="node">
<title>Node2</title>
<g id="a_Node000002"><a xlink:href="../../dd/d52/a00221.html#ae6623cc4892a014fc9c40b3bca1db7d9" target="_top" xlink:title="Go to Percent of File.">
<polygon fill="white" stroke="#666666" points="1361.62,-136.75 1276.62,-136.75 1276.62,-116 1361.62,-116 1361.62,-136.75"/>
<text xml:space="preserve" text-anchor="middle" x="1319.12" y="-123.25" font-family="Helvetica,sans-Serif" font-size="10.00">go_to_percent</text>
</a>
</g>
</g>
<!-- Node1&#45;&gt;Node2 -->
<g id="edge1_Node000001_Node000002" class="edge">
<title>Node1&#45;&gt;Node2</title>
<g id="a_edge1_Node000001_Node000002"><a xlink:title=" ">
<path fill="none" stroke="#63b8ff" d="M1387.03,-126.38C1378.69,-126.38 1369.98,-126.38 1361.72,-126.38"/>
<polygon fill="#63b8ff" stroke="#63b8ff" points="1387,-129.88 1397,-126.38 1387,-122.88 1387,-129.88"/>
</a>
</g>
</g>
<!-- Node3 -->
<g id="Node000003" class="node">
<title>Node3</title>
<g id="a_Node000003"><a xlink:href="../../dd/d52/a00221.html#a9c4b3ba5f73c18b486646c62b933972a" target="_top" xlink:title="Main Command Processing Loop for View.">
<polygon fill="white" stroke="#666666" points="1129.75,-98.75 1011.75,-98.75 1011.75,-78 1129.75,-78 1129.75,-98.75"/>
<text xml:space="preserve" text-anchor="middle" x="1070.75" y="-85.25" font-family="Helvetica,sans-Serif" font-size="10.00">view_cmd_processor</text>
</a>
</g>
</g>
<!-- Node1&#45;&gt;Node3 -->
<g id="edge36_Node000001_Node000003" class="edge">
<title>Node1&#45;&gt;Node3</title>
<g id="a_edge36_Node000001_Node000003"><a xlink:title=" ">
<path fill="none" stroke="#63b8ff" d="M1388.16,-140.23C1379.81,-142.37 1371.07,-144.24 1362.75,-145.38 1275.59,-157.24 1250.34,-150.5 1165.75,-126.38 1140.7,-119.23 1113.19,-107.65 1094.45,-99.14"/>
<polygon fill="#63b8ff" stroke="#63b8ff" points="1389.04,-143.61 1397.76,-137.59 1387.19,-136.86 1389.04,-143.61"/>
</a>
</g>
</g>
<!-- Node4 -->
<g id="Node000004" class="node">
<title>Node4</title>
<g id="a_Node000004"><a xlink:href="../../dd/d52/a00221.html#a0bd4dc056ab5010547129bb87819789b" target="_top" xlink:title="Start view.">
<polygon fill="white" stroke="#666666" points="975.75,-212.75 915.5,-212.75 915.5,-192 975.75,-192 975.75,-212.75"/>
<text xml:space="preserve" text-anchor="middle" x="945.62" y="-199.25" font-family="Helvetica,sans-Serif" font-size="10.00">view_file</text>
</a>
</g>
</g>
<!-- Node1&#45;&gt;Node4 -->
<g id="edge37_Node000001_Node000004" class="edge">
<title>Node1&#45;&gt;Node4</title>
<g id="a_edge37_Node000001_Node000004"><a xlink:title=" ">
<path fill="none" stroke="#63b8ff" d="M1405.48,-142.97C1393.05,-150.16 1377.64,-157.94 1362.75,-162.38 1222.61,-204.17 1045.27,-204.95 976.12,-203.39"/>
<polygon fill="#63b8ff" stroke="#63b8ff" points="1407.08,-146.09 1413.84,-137.94 1403.47,-140.1 1407.08,-146.09"/>
</a>
</g>
</g>
<!-- Node21 -->
<g id="Node000021" class="node">
<title>Node21</title>
<g id="a_Node000021"><a xlink:href="../../dd/d52/a00221.html#a5f74dca8730faaa3ff362fc1e01b12ce" target="_top" xlink:title="Go to Specific File Position.">
<polygon fill="white" stroke="#666666" points="1362.75,-58.75 1275.5,-58.75 1275.5,-38 1362.75,-38 1362.75,-58.75"/>
<text xml:space="preserve" text-anchor="middle" x="1319.12" y="-45.25" font-family="Helvetica,sans-Serif" font-size="10.00">go_to_position</text>
</a>
</g>
</g>
<!-- Node1&#45;&gt;Node21 -->
<g id="edge27_Node000001_Node000021" class="edge">
<title>Node1&#45;&gt;Node21</title>
<g id="a_edge27_Node000001_Node000021"><a xlink:title=" ">
<path fill="none" stroke="#63b8ff" d="M1412.11,-107.77C1398.94,-95.59 1380.65,-79.86 1362.75,-68.38 1357.52,-65.02 1351.64,-61.89 1345.96,-59.16"/>
<polygon fill="#63b8ff" stroke="#63b8ff" points="1409.57,-110.18 1419.24,-114.5 1414.37,-105.09 1409.57,-110.18"/>
</a>
</g>
</g>
<!-- Node24 -->
<g id="Node000024" class="node">
<title>Node24</title>
<g id="a_Node000024"><a xlink:href="../../dd/d52/a00221.html#a5dbc34981815690a92812e34d1cf478f" target="_top" xlink:title="display previous page">
<polygon fill="white" stroke="#666666" points="1352.62,-97.75 1285.62,-97.75 1285.62,-77 1352.62,-77 1352.62,-97.75"/>
<text xml:space="preserve" text-anchor="middle" x="1319.12" y="-84.25" font-family="Helvetica,sans-Serif" font-size="10.00">prev_page</text>
</a>
</g>
</g>
<!-- Node1&#45;&gt;Node24 -->
<g id="edge32_Node000001_Node000024" class="edge">
<title>Node1&#45;&gt;Node24</title>
<g id="a_edge32_Node000001_Node000024"><a xlink:title=" ">
<path fill="none" stroke="#63b8ff" d="M1389.79,-111.83C1376.91,-107.3 1362.94,-102.4 1350.91,-98.18"/>
<polygon fill="#63b8ff" stroke="#63b8ff" points="1388.27,-115 1398.87,-115.01 1390.59,-108.4 1388.27,-115"/>
</a>
</g>
</g>
<!-- Node2&#45;&gt;Node3 -->
<g id="edge2_Node000002_Node000003" class="edge">
<title>Node2&#45;&gt;Node3</title>
<g id="a_edge2_Node000002_Node000003"><a xlink:title=" ">
<path fill="none" stroke="#63b8ff" d="M1265.04,-120.75C1235.69,-117.39 1198.62,-112.74 1165.75,-107.38 1151.45,-105.04 1136.02,-102.1 1121.87,-99.23"/>
<polygon fill="#63b8ff" stroke="#63b8ff" points="1264.46,-124.21 1274.79,-121.85 1265.24,-117.25 1264.46,-124.21"/>
</a>
</g>
</g>
<!-- Node3&#45;&gt;Node4 -->
<g id="edge3_Node000003_Node000004" class="edge">
<title>Node3&#45;&gt;Node4</title>
<g id="a_edge3_Node000003_Node000004"><a xlink:title=" ">
<path fill="none" stroke="#63b8ff" d="M1050.08,-106.59C1024.17,-130.57 979.44,-171.99 958.32,-191.55"/>
<polygon fill="#63b8ff" stroke="#63b8ff" points="1052.32,-109.29 1057.28,-99.92 1047.56,-104.15 1052.32,-109.29"/>
</a>
</g>
</g>
<!-- Node5 -->
<g id="Node000005" class="node">
<title>Node5</title>
<g id="a_Node000005"><a xlink:href="../../d5/ddf/a00224.html#a3c04138a5bfe5d72780bb7e82a18e627" target="_top" xlink:title=" ">
<polygon fill="white" stroke="#666666" points="761.88,-290.75 721.12,-290.75 721.12,-270 761.88,-270 761.88,-290.75"/>
<text xml:space="preserve" text-anchor="middle" x="741.5" y="-277.25" font-family="Helvetica,sans-Serif" font-size="10.00">main</text>
</a>
</g>
</g>
<!-- Node4&#45;&gt;Node5 -->
<g id="edge4_Node000004_Node000005" class="edge">
<title>Node4&#45;&gt;Node5</title>
<g id="a_edge4_Node000004_Node000005"><a xlink:title=" ">
<path fill="none" stroke="#63b8ff" d="M906.14,-217.26C875.81,-228.99 832.46,-245.74 794.5,-260.38 783.85,-264.48 771.97,-269.05 762.26,-272.78"/>
<polygon fill="#63b8ff" stroke="#63b8ff" points="907.21,-220.6 915.27,-213.73 904.68,-214.07 907.21,-220.6"/>
</a>
</g>
</g>
<!-- Node6 -->
<g id="Node000006" class="node">
<title>Node6</title>
<g id="a_Node000006"><a xlink:href="../../d7/d03/a00254.html#a75a4e7afc9c9aafd3d35ab706f5fdc71" target="_top" xlink:title="subprogram entry point for C&#45;Menu View">
<polygon fill="white" stroke="#666666" points="879.5,-212.75 830.5,-212.75 830.5,-192 879.5,-192 879.5,-212.75"/>
<text xml:space="preserve" text-anchor="middle" x="855" y="-199.25" font-family="Helvetica,sans-Serif" font-size="10.00">mview</text>
</a>
</g>
</g>
<!-- Node4&#45;&gt;Node6 -->
<g id="edge5_Node000004_Node000006" class="edge">
<title>Node4&#45;&gt;Node6</title>
<g id="a_edge5_Node000004_Node000006"><a xlink:title=" ">
<path fill="none" stroke="#63b8ff" d="M903.74,-202.38C895.54,-202.38 887.17,-202.38 879.79,-202.38"/>
<polygon fill="#63b8ff" stroke="#63b8ff" points="903.6,-205.88 913.6,-202.38 903.6,-198.88 903.6,-205.88"/>
</a>
</g>
</g>
<!-- Node6&#45;&gt;Node5 -->
<g id="edge23_Node000006_Node000005" class="edge">
<title>Node6&#45;&gt;Node5</title>
<g id="a_edge23_Node000006_Node000005"><a xlink:title=" ">
<path fill="none" stroke="#63b8ff" d="M838.12,-221.46C826.96,-233.9 811.11,-249.73 794.5,-260.38 784.56,-266.74 772.29,-271.58 762.16,-274.91"/>
<polygon fill="#63b8ff" stroke="#63b8ff" points="840.45,-224.12 844.36,-214.28 835.16,-219.53 840.45,-224.12"/>
</a>
</g>
</g>
<!-- Node7 -->
<g id="Node000007" class="node">
<title>Node7</title>
<g id="a_Node000007"><a xlink:href="../../d0/d27/a00239.html#aeebc4c0b94ca97d753e10a0cd1798730" target="_top" xlink:title="Displays the help screen for the pick interface using mview.">
<polygon fill="white" stroke="#666666" points="793,-251.75 690,-251.75 690,-231 793,-231 793,-251.75"/>
<text xml:space="preserve" text-anchor="middle" x="741.5" y="-238.25" font-family="Helvetica,sans-Serif" font-size="10.00">display_pick_help</text>
</a>
</g>
</g>
<!-- Node6&#45;&gt;Node7 -->
<g id="edge6_Node000006_Node000007" class="edge">
<title>Node6&#45;&gt;Node7</title>
<g id="a_edge6_Node000006_Node000007"><a xlink:title=" ">
<path fill="none" stroke="#63b8ff" d="M819.41,-214.47C804.76,-219.6 787.83,-225.52 773.59,-230.5"/>
<polygon fill="#63b8ff" stroke="#63b8ff" points="820.37,-217.85 828.65,-211.24 818.06,-211.24 820.37,-217.85"/>
</a>
</g>
</g>
<!-- Node12 -->
<g id="Node000012" class="node">
<title>Node12</title>
<g id="a_Node000012"><a xlink:href="../../d9/d39/a00257.html#aa5d0e30e7036b72b51c843d0a7e486a1" target="_top" xlink:title="Processes user input for the menu system.">
<polygon fill="white" stroke="#666666" points="317.25,-174.75 194.75,-174.75 194.75,-154 317.25,-154 317.25,-174.75"/>
<text xml:space="preserve" text-anchor="middle" x="256" y="-161.25" font-family="Helvetica,sans-Serif" font-size="10.00">menu_cmd_processor</text>
</a>
</g>
</g>
<!-- Node6&#45;&gt;Node12 -->
<g id="edge24_Node000006_Node000012" class="edge">
<title>Node6&#45;&gt;Node12</title>
<g id="a_edge24_Node000006_Node000012"><a xlink:title=" ">
<path fill="none" stroke="#63b8ff" d="M819.35,-193.64C772.86,-182.7 687.58,-165.38 613.62,-165.38 613.62,-165.38 613.62,-165.38 490.62,-165.38 431.81,-165.38 364.67,-165.05 317.51,-164.78"/>
<polygon fill="#63b8ff" stroke="#63b8ff" points="818.29,-196.98 828.83,-195.91 819.93,-190.17 818.29,-196.98"/>
</a>
</g>
</g>
<!-- Node15 -->
<g id="Node000015" class="node">
<title>Node15</title>
<g id="a_Node000015"><a xlink:href="../../d0/d27/a00239.html#af7fcbb1c8b67a4d11c86ba7209f397c2" target="_top" xlink:title="Executes specified command with selected objects as arguments.">
<polygon fill="white" stroke="#666666" points="652.5,-213.75 572.75,-213.75 572.75,-193 652.5,-193 652.5,-213.75"/>
<text xml:space="preserve" text-anchor="middle" x="612.62" y="-200.25" font-family="Helvetica,sans-Serif" font-size="10.00">exec_objects</text>
</a>
</g>
</g>
<!-- Node6&#45;&gt;Node15 -->
<g id="edge15_Node000006_Node000015" class="edge">
<title>Node6&#45;&gt;Node15</title>
<g id="a_edge15_Node000006_Node000015"><a xlink:title=" ">
<path fill="none" stroke="#63b8ff" d="M818.75,-202.52C774.51,-202.71 698.9,-203.02 652.87,-203.21"/>
<polygon fill="#63b8ff" stroke="#63b8ff" points="818.57,-206.02 828.56,-202.48 818.55,-199.02 818.57,-206.02"/>
</a>
</g>
</g>
<!-- Node16 -->
<g id="Node000016" class="node">
<title>Node16</title>
<g id="a_Node000016"><a xlink:href="../../d2/d04/a00281.html#ada302551bf41bf8ed6132fd34328a47e" target="_top" xlink:title="Form main processing loop.">
<polygon fill="white" stroke="#666666" points="780.25,-137.75 702.75,-137.75 702.75,-117 780.25,-117 780.25,-137.75"/>
<text xml:space="preserve" text-anchor="middle" x="741.5" y="-124.25" font-family="Helvetica,sans-Serif" font-size="10.00">form_engine</text>
</a>
</g>
</g>
<!-- Node6&#45;&gt;Node16 -->
<g id="edge17_Node000006_Node000016" class="edge">
<title>Node6&#45;&gt;Node16</title>
<g id="a_edge17_Node000006_Node000016"><a xlink:title=" ">
<path fill="none" stroke="#63b8ff" d="M835.2,-183.89C823.99,-173.5 809.14,-160.77 794.5,-151.38 786.8,-146.43 777.92,-141.95 769.7,-138.22"/>
<polygon fill="#63b8ff" stroke="#63b8ff" points="832.57,-186.22 842.23,-190.57 837.39,-181.14 832.57,-186.22"/>
</a>
</g>
</g>
<!-- Node20 -->
<g id="Node000020" class="node">
<title>Node20</title>
<g id="a_Node000020"><a xlink:href="../../dd/d52/a00221.html#ad997ba9f8591568c77291fb1b44601b2" target="_top" xlink:title="Display View Help File.">
<polygon fill="white" stroke="#666666" points="794.5,-98.75 688.5,-98.75 688.5,-78 794.5,-78 794.5,-98.75"/>
<text xml:space="preserve" text-anchor="middle" x="741.5" y="-85.25" font-family="Helvetica,sans-Serif" font-size="10.00">view_display_help</text>
</a>
</g>
</g>
<!-- Node6&#45;&gt;Node20 -->
<g id="edge25_Node000006_Node000020" class="edge">
<title>Node6&#45;&gt;Node20</title>
<g id="a_edge25_Node000006_Node000020"><a xlink:title=" ">
<path fill="none" stroke="#63b8ff" d="M845.46,-181.36C835.91,-160.25 818.57,-128.11 794.5,-108.38 790.09,-104.76 784.95,-101.74 779.65,-99.25"/>
<polygon fill="#63b8ff" stroke="#63b8ff" points="842.19,-182.61 849.36,-190.41 848.62,-179.84 842.19,-182.61"/>
</a>
</g>
</g>
<!-- Node8 -->
<g id="Node000008" class="node">
<title>Node8</title>
<g id="a_Node000008"><a xlink:href="../../d0/d27/a00239.html#abb0969a6d1c7e78be46c3b325754c802" target="_top" xlink:title="Main loop to handle user input and interactions for pick interface.">
<polygon fill="white" stroke="#666666" points="635.25,-252.75 590,-252.75 590,-232 635.25,-232 635.25,-252.75"/>
<text xml:space="preserve" text-anchor="middle" x="612.62" y="-239.25" font-family="Helvetica,sans-Serif" font-size="10.00">picker</text>
</a>
</g>
</g>
<!-- Node7&#45;&gt;Node8 -->
<g id="edge7_Node000007_Node000008" class="edge">
<title>Node7&#45;&gt;Node8</title>
<g id="a_edge7_Node000007_Node000008"><a xlink:title=" ">
<path fill="none" stroke="#63b8ff" d="M678.52,-241.86C663.16,-241.98 647.69,-242.11 635.71,-242.2"/>
<polygon fill="#63b8ff" stroke="#63b8ff" points="678.14,-245.37 688.11,-241.79 678.09,-238.37 678.14,-245.37"/>
</a>
</g>
</g>
<!-- Node9 -->
<g id="Node000009" class="node">
<title>Node9</title>
<g id="a_Node000009"><a xlink:href="../../d0/d27/a00239.html#ab97dcab41017c5132f52b682437a151e" target="_top" xlink:title="Initializes pick interface, calculates window size and position, and enters picker loop.">
<polygon fill="white" stroke="#666666" points="528.88,-213.75 454.38,-213.75 454.38,-193 528.88,-193 528.88,-213.75"/>
<text xml:space="preserve" text-anchor="middle" x="491.62" y="-200.25" font-family="Helvetica,sans-Serif" font-size="10.00">pick_engine</text>
</a>
</g>
</g>
<!-- Node8&#45;&gt;Node9 -->
<g id="edge8_Node000008_Node000009" class="edge">
<title>Node8&#45;&gt;Node9</title>
<g id="a_edge8_Node000008_Node000009"><a xlink:title=" ">
<path fill="none" stroke="#63b8ff" d="M578.66,-231.57C562.05,-226.13 541.98,-219.55 525.4,-214.11"/>
<polygon fill="#63b8ff" stroke="#63b8ff" points="577.49,-234.87 588.08,-234.66 579.67,-228.22 577.49,-234.87"/>
</a>
</g>
</g>
<!-- Node10 -->
<g id="Node000010" class="node">
<title>Node10</title>
<g id="a_Node000010"><a xlink:href="../../d0/d27/a00239.html#a1b2ee87543245e612c1710ea58930a17" target="_top" xlink:title="Initializes pick structure and opens pick input file or pipe.">
<polygon fill="white" stroke="#666666" points="410.5,-213.75 353.25,-213.75 353.25,-193 410.5,-193 410.5,-213.75"/>
<text xml:space="preserve" text-anchor="middle" x="381.88" y="-200.25" font-family="Helvetica,sans-Serif" font-size="10.00">init_pick</text>
</a>
</g>
</g>
<!-- Node9&#45;&gt;Node10 -->
<g id="edge9_Node000009_Node000010" class="edge">
<title>Node9&#45;&gt;Node10</title>
<g id="a_edge9_Node000009_Node000010"><a xlink:title=" ">
<path fill="none" stroke="#63b8ff" d="M442.91,-203.38C431.93,-203.38 420.61,-203.38 410.8,-203.38"/>
<polygon fill="#63b8ff" stroke="#63b8ff" points="442.63,-206.88 452.63,-203.38 442.63,-199.88 442.63,-206.88"/>
</a>
</g>
</g>
<!-- Node11 -->
<g id="Node000011" class="node">
<title>Node11</title>
<g id="a_Node000011"><a xlink:href="../../d2/dc8/a00242.html#a3c04138a5bfe5d72780bb7e82a18e627" target="_top" xlink:title=" ">
<polygon fill="white" stroke="#666666" points="276.38,-213.75 235.62,-213.75 235.62,-193 276.38,-193 276.38,-213.75"/>
<text xml:space="preserve" text-anchor="middle" x="256" y="-200.25" font-family="Helvetica,sans-Serif" font-size="10.00">main</text>
</a>
</g>
</g>
<!-- Node10&#45;&gt;Node11 -->
<g id="edge10_Node000010_Node000011" class="edge">
<title>Node10&#45;&gt;Node11</title>
<g id="a_edge10_Node000010_Node000011"><a xlink:title=" ">
<path fill="none" stroke="#63b8ff" d="M341.27,-203.38C319.64,-203.38 293.83,-203.38 276.52,-203.38"/>
<polygon fill="#63b8ff" stroke="#63b8ff" points="341.25,-206.88 351.25,-203.38 341.25,-199.88 341.25,-206.88"/>
</a>
</g>
</g>
<!-- Node10&#45;&gt;Node12 -->
<g id="edge11_Node000010_Node000012" class="edge">
<title>Node10&#45;&gt;Node12</title>
<g id="a_edge11_Node000010_Node000012"><a xlink:title=" ">
<path fill="none" stroke="#63b8ff" d="M341.96,-191.12C325.67,-186 306.92,-180.09 291.18,-175.14"/>
<polygon fill="#63b8ff" stroke="#63b8ff" points="340.73,-194.41 351.32,-194.07 342.83,-187.73 340.73,-194.41"/>
</a>
</g>
</g>
<!-- Node13 -->
<g id="Node000013" class="node">
<title>Node13</title>
<g id="a_Node000013"><a xlink:href="../../d9/d39/a00257.html#a7d7973d7aac92759dcc86ec52bb038f4" target="_top" xlink:title="The main loop of the menu system.">
<polygon fill="white" stroke="#666666" points="158.75,-174.75 76.75,-174.75 76.75,-154 158.75,-154 158.75,-174.75"/>
<text xml:space="preserve" text-anchor="middle" x="117.75" y="-161.25" font-family="Helvetica,sans-Serif" font-size="10.00">menu_engine</text>
</a>
</g>
</g>
<!-- Node12&#45;&gt;Node13 -->
<g id="edge12_Node000012_Node000013" class="edge">
<title>Node12&#45;&gt;Node13</title>
<g id="a_edge12_Node000012_Node000013"><a xlink:title=" ">
<path fill="none" stroke="#63b8ff" d="M183.2,-157.63C174.96,-157.67 166.79,-157.84 159.17,-158.15"/>
<polygon fill="#63b8ff" stroke="#63b8ff" points="182.92,-161.13 192.93,-157.66 182.94,-154.13 182.92,-161.13"/>
</a>
</g>
</g>
<!-- Node13&#45;&gt;Node12 -->
<g id="edge14_Node000013_Node000012" class="edge">
<title>Node13&#45;&gt;Node12</title>
<g id="a_edge14_Node000013_Node000012"><a xlink:title=" ">
<path fill="none" stroke="#63b8ff" d="M170.68,-170.95C178.45,-171.12 186.52,-171.17 194.45,-171.09"/>
<polygon fill="#63b8ff" stroke="#63b8ff" points="170.79,-167.45 160.69,-170.65 170.58,-174.45 170.79,-167.45"/>
</a>
</g>
</g>
<!-- Node14 -->
<g id="Node000014" class="node">
<title>Node14</title>
<g id="a_Node000014"><a xlink:href="../../dd/dd7/a00260.html#a3c04138a5bfe5d72780bb7e82a18e627" target="_top" xlink:title=" ">
<polygon fill="white" stroke="#666666" points="40.75,-174.75 0,-174.75 0,-154 40.75,-154 40.75,-174.75"/>
<text xml:space="preserve" text-anchor="middle" x="20.38" y="-161.25" font-family="Helvetica,sans-Serif" font-size="10.00">main</text>
</a>
</g>
</g>
<!-- Node13&#45;&gt;Node14 -->
<g id="edge13_Node000013_Node000014" class="edge">
<title>Node13&#45;&gt;Node14</title>
<g id="a_edge13_Node000013_Node000014"><a xlink:title=" ">
<path fill="none" stroke="#63b8ff" d="M64.79,-164.38C56.36,-164.38 48.1,-164.38 41.09,-164.38"/>
<polygon fill="#63b8ff" stroke="#63b8ff" points="64.79,-167.88 74.79,-164.38 64.79,-160.88 64.79,-167.88"/>
</a>
</g>
</g>
<!-- Node15&#45;&gt;Node9 -->
<g id="edge16_Node000015_Node000009" class="edge">
<title>Node15&#45;&gt;Node9</title>
<g id="a_edge16_Node000015_Node000009"><a xlink:title=" ">
<path fill="none" stroke="#63b8ff" d="M560.93,-203.38C550.22,-203.38 539.12,-203.38 529.06,-203.38"/>
<polygon fill="#63b8ff" stroke="#63b8ff" points="560.82,-206.88 570.82,-203.38 560.82,-199.88 560.82,-206.88"/>
</a>
</g>
</g>
<!-- Node17 -->
<g id="Node000017" class="node">
<title>Node17</title>
<g id="a_Node000017"><a xlink:href="../../d2/d04/a00281.html#abf1be20a8aad5f7ba09172ac1434a110" target="_top" xlink:title="Initialize form data structure and parse description file.">
<polygon fill="white" stroke="#666666" points="642.75,-118.75 582.5,-118.75 582.5,-98 642.75,-98 642.75,-118.75"/>
<text xml:space="preserve" text-anchor="middle" x="612.62" y="-105.25" font-family="Helvetica,sans-Serif" font-size="10.00">init_form</text>
</a>
</g>
</g>
<!-- Node16&#45;&gt;Node17 -->
<g id="edge18_Node000016_Node000017" class="edge">
<title>Node16&#45;&gt;Node17</title>
<g id="a_edge18_Node000016_Node000017"><a xlink:title=" ">
<path fill="none" stroke="#63b8ff" d="M691.43,-120.03C675.15,-117.59 657.54,-114.95 643.2,-112.8"/>
<polygon fill="#63b8ff" stroke="#63b8ff" points="690.53,-123.43 700.94,-121.45 691.57,-116.51 690.53,-123.43"/>
</a>
</g>
</g>
<!-- Node17&#45;&gt;Node12 -->
<g id="edge22_Node000017_Node000012" class="edge">
<title>Node17&#45;&gt;Node12</title>
<g id="a_edge22_Node000017_Node000012"><a xlink:title=" ">
<path fill="none" stroke="#63b8ff" d="M571.01,-105.15C537.44,-103.26 488.63,-102.28 446.5,-108.38 387.25,-116.95 320.73,-139.85 284.38,-153.57"/>
<polygon fill="#63b8ff" stroke="#63b8ff" points="570.5,-108.63 580.7,-105.75 570.94,-101.64 570.5,-108.63"/>
</a>
</g>
</g>
<!-- Node18 -->
<g id="Node000018" class="node">
<title>Node18</title>
<g id="a_Node000018"><a xlink:href="../../dd/d52/a00221.html#a2ffea5674e85f124a70e19f745a66583" target="_top" xlink:title="use form to enter a file specification">
<polygon fill="white" stroke="#666666" points="536.75,-61.75 446.5,-61.75 446.5,-41 536.75,-41 536.75,-61.75"/>
<text xml:space="preserve" text-anchor="middle" x="491.62" y="-48.25" font-family="Helvetica,sans-Serif" font-size="10.00">enter_file_spec</text>
</a>
</g>
</g>
<!-- Node17&#45;&gt;Node18 -->
<g id="edge19_Node000017_Node000018" class="edge">
<title>Node17&#45;&gt;Node18</title>
<g id="a_edge19_Node000017_Node000018"><a xlink:title=" ">
<path fill="none" stroke="#63b8ff" d="M578.64,-92.58C558.45,-82.9 533.13,-70.78 515.2,-62.19"/>
<polygon fill="#63b8ff" stroke="#63b8ff" points="577.07,-95.7 587.6,-96.87 580.09,-89.39 577.07,-95.7"/>
</a>
</g>
</g>
<!-- Node19 -->
<g id="Node000019" class="node">
<title>Node19</title>
<g id="a_Node000019"><a xlink:href="../../db/dc3/a00284.html#a3c04138a5bfe5d72780bb7e82a18e627" target="_top" xlink:title=" ">
<polygon fill="white" stroke="#666666" points="512,-137.75 471.25,-137.75 471.25,-117 512,-117 512,-137.75"/>
<text xml:space="preserve" text-anchor="middle" x="491.62" y="-124.25" font-family="Helvetica,sans-Serif" font-size="10.00">main</text>
</a>
</g>
</g>
<!-- Node17&#45;&gt;Node19 -->
<g id="edge21_Node000017_Node000019" class="edge">
<title>Node17&#45;&gt;Node19</title>
<g id="a_edge21_Node000017_Node000019"><a xlink:title=" ">
<path fill="none" stroke="#63b8ff" d="M570.99,-114.86C551.2,-118.02 528.31,-121.68 512.4,-124.22"/>
<polygon fill="#63b8ff" stroke="#63b8ff" points="571.39,-118.34 580.71,-113.31 570.29,-111.43 571.39,-118.34"/>
</a>
</g>
</g>
<!-- Node18&#45;&gt;Node3 -->
<g id="edge20_Node000018_Node000003" class="edge">
<title>Node18&#45;&gt;Node3</title>
<g id="a_edge20_Node000018_Node000003"><a xlink:title=" ">
<path fill="none" stroke="#63b8ff" d="M548.21,-51.02C598.44,-50.73 674.43,-50.38 740.5,-50.38 856,-50.38 856,-50.38 856,-50.38 918.57,-50.38 989.87,-66.35 1032.27,-77.59"/>
<polygon fill="#63b8ff" stroke="#63b8ff" points="548.45,-47.52 538.47,-51.08 548.49,-54.52 548.45,-47.52"/>
</a>
</g>
</g>
<!-- Node20&#45;&gt;Node3 -->
<g id="edge26_Node000020_Node000003" class="edge">
<title>Node20&#45;&gt;Node3</title>
<g id="a_edge26_Node000020_Node000003"><a xlink:title=" ">
<path fill="none" stroke="#63b8ff" d="M806.1,-88.38C865.66,-88.38 953.9,-88.38 1011.62,-88.38"/>
<polygon fill="#63b8ff" stroke="#63b8ff" points="806.47,-84.88 796.47,-88.38 806.47,-91.88 806.47,-84.88"/>
</a>
</g>
</g>
<!-- Node22 -->
<g id="Node000022" class="node">
<title>Node22</title>
<g id="a_Node000022"><a xlink:href="../../dd/d52/a00221.html#ac81796e830049e74987a6b526cfc296f" target="_top" xlink:title="Go to Specific Line.">
<polygon fill="white" stroke="#666666" points="1235.75,-59.75 1169.5,-59.75 1169.5,-39 1235.75,-39 1235.75,-59.75"/>
<text xml:space="preserve" text-anchor="middle" x="1202.62" y="-46.25" font-family="Helvetica,sans-Serif" font-size="10.00">go_to_line</text>
</a>
</g>
</g>
<!-- Node21&#45;&gt;Node22 -->
<g id="edge28_Node000021_Node000022" class="edge">
<title>Node21&#45;&gt;Node22</title>
<g id="a_edge28_Node000021_Node000022"><a xlink:title=" ">
<path fill="none" stroke="#63b8ff" d="M1263.75,-48.85C1254.29,-48.93 1244.72,-49.02 1236.09,-49.09"/>
<polygon fill="#63b8ff" stroke="#63b8ff" points="1263.68,-52.35 1273.65,-48.76 1263.62,-45.35 1263.68,-52.35"/>
</a>
</g>
</g>
<!-- Node23 -->
<g id="Node000023" class="node">
<title>Node23</title>
<g id="a_Node000023"><a xlink:href="../../dd/d52/a00221.html#ada77a15a548ce444426d43fd39a1cce4" target="_top" xlink:title="Go to Mark.">
<polygon fill="white" stroke="#666666" points="1239.5,-20.75 1165.75,-20.75 1165.75,0 1239.5,0 1239.5,-20.75"/>
<text xml:space="preserve" text-anchor="middle" x="1202.62" y="-7.25" font-family="Helvetica,sans-Serif" font-size="10.00">go_to_mark</text>
</a>
</g>
</g>
<!-- Node21&#45;&gt;Node23 -->
<g id="edge30_Node000021_Node000023" class="edge">
<title>Node21&#45;&gt;Node23</title>
<g id="a_edge30_Node000021_Node000023"><a xlink:title=" ">
<path fill="none" stroke="#63b8ff" d="M1274.71,-33.97C1261.94,-29.73 1248.19,-25.16 1236.21,-21.19"/>
<polygon fill="#63b8ff" stroke="#63b8ff" points="1273.59,-37.28 1284.18,-37.11 1275.8,-30.64 1273.59,-37.28"/>
</a>
</g>
</g>
<!-- Node22&#45;&gt;Node3 -->
<g id="edge29_Node000022_Node000003" class="edge">
<title>Node22&#45;&gt;Node3</title>
<g id="a_edge29_Node000022_Node000003"><a xlink:title=" ">
<path fill="none" stroke="#63b8ff" d="M1158.26,-62.4C1141.91,-67.31 1123.51,-72.83 1107.89,-77.52"/>
<polygon fill="#63b8ff" stroke="#63b8ff" points="1159.17,-65.78 1167.74,-59.55 1157.15,-59.08 1159.17,-65.78"/>
</a>
</g>
</g>
<!-- Node23&#45;&gt;Node3 -->
<g id="edge31_Node000023_Node000003" class="edge">
<title>Node23&#45;&gt;Node3</title>
<g id="a_edge31_Node000023_Node000003"><a xlink:title=" ">
<path fill="none" stroke="#63b8ff" d="M1171.97,-26.77C1169.86,-27.98 1167.77,-29.19 1165.75,-30.38 1138.46,-46.39 1107.3,-65.85 1088.59,-77.67"/>
<polygon fill="#63b8ff" stroke="#63b8ff" points="1173.49,-29.93 1180.48,-21.97 1170.05,-23.84 1173.49,-29.93"/>
</a>
</g>
</g>
<!-- Node24&#45;&gt;Node22 -->
<g id="edge35_Node000024_Node000022" class="edge">
<title>Node24&#45;&gt;Node22</title>
<g id="a_edge35_Node000024_Node000022"><a xlink:title=" ">
<path fill="none" stroke="#63b8ff" d="M1274.71,-72.97C1261.94,-68.73 1248.19,-64.16 1236.21,-60.19"/>
<polygon fill="#63b8ff" stroke="#63b8ff" points="1273.59,-76.28 1284.18,-76.11 1275.8,-69.64 1273.59,-76.28"/>
</a>
</g>
</g>
<!-- Node25 -->
<g id="Node000025" class="node">
<title>Node25</title>
<g id="a_Node000025"><a xlink:href="../../dd/d52/a00221.html#a46145f1d3680a48cb9391a8ae95db9ad" target="_top" xlink:title="Go to End of File.">
<polygon fill="white" stroke="#666666" points="1234.62,-98.75 1170.62,-98.75 1170.62,-78 1234.62,-78 1234.62,-98.75"/>
<text xml:space="preserve" text-anchor="middle" x="1202.62" y="-85.25" font-family="Helvetica,sans-Serif" font-size="10.00">go_to_eof</text>
</a>
</g>
</g>
<!-- Node24&#45;&gt;Node25 -->
<g id="edge33_Node000024_Node000025" class="edge">
<title>Node24&#45;&gt;Node25</title>
<g id="a_edge33_Node000024_Node000025"><a xlink:title=" ">
<path fill="none" stroke="#63b8ff" d="M1274.13,-87.76C1261.04,-87.87 1246.97,-88 1234.87,-88.1"/>
<polygon fill="#63b8ff" stroke="#63b8ff" points="1273.83,-91.26 1283.8,-87.67 1273.77,-84.26 1273.83,-91.26"/>
</a>
</g>
</g>
<!-- Node25&#45;&gt;Node3 -->
<g id="edge34_Node000025_Node000003" class="edge">
<title>Node25&#45;&gt;Node3</title>
<g id="a_edge34_Node000025_Node000003"><a xlink:title=" ">
<path fill="none" stroke="#63b8ff" d="M1158.92,-88.38C1149.69,-88.38 1139.78,-88.38 1130.07,-88.38"/>
<polygon fill="#63b8ff" stroke="#63b8ff" points="1158.67,-91.88 1168.67,-88.38 1158.67,-84.88 1158.67,-91.88"/>
</a>
</g>
</g>
</g>
</svg>
