<?xml version="1.0" encoding="UTF-8" standalone="no"?>
<!DOCTYPE svg PUBLIC "-//W3C//DTD SVG 1.1//EN"
 "http://www.w3.org/Graphics/SVG/1.1/DTD/svg11.dtd">
<!-- Generated by graphviz version 14.1.2 (0)
 -->
<!-- Title: remove_file Pages: 1 -->
<!--zoomable 413 -->

<svg id="main" version="1.1" xmlns="http://www.w3.org/2000/svg" xmlns:xlink="http://www.w3.org/1999/xlink" xml:space="preserve" onload="init(evt)">

<style type="text/css"><![CDATA[
.node, .edge {opacity: 0.7;}
.node.selected, .edge.selected {opacity: 1;}
.edge:hover path { stroke: red; }
.edge:hover polygon { stroke: red; fill: red; }
]]></style>

<defs>
  <circle id="rim" cx="0" cy="0" r="7"/>
  <circle id="rim2" cx="0" cy="0" r="3.5"/>
  <g id="zoomPlus">
    <use xlink:href="#rim" fill="#404040"><set attributeName="fill" to="#808080" begin="zoomplus.mouseover" end="zoomplus.mouseout"/></use>
    <path d="M-4,0h8M0,-4v8" fill="none" stroke="white" stroke-width="1.5" pointer-events="none"/>
  </g>
  <g id="zoomMin">
    <use xlink:href="#rim" fill="#404040"><set attributeName="fill" to="#808080" begin="zoomminus.mouseover" end="zoomminus.mouseout"/></use>
    <path d="M-4,0h8" fill="none" stroke="white" stroke-width="1.5" pointer-events="none"/>
  </g>
  <g id="arrowUp" transform="translate(30 24)">
    <use xlink:href="#rim"/>
    <path pointer-events="none" fill="none" stroke="white" stroke-width="1.5" d="M0,-3.0v7 M-2.5,-0.5L0,-3.0L2.5,-0.5"/>
  </g>
  <g id="arrowRight" transform="rotate(90) translate(36 -43)">
    <use xlink:href="#rim"/>
    <path pointer-events="none" fill="none" stroke="white" stroke-width="1.5" d="M0,-3.0v7 M-2.5,-0.5L0,-3.0L2.5,-0.5"/>
  </g>
  <g id="arrowDown" transform="rotate(180) translate(-30 -48)">
    <use xlink:href="#rim"/>
    <path pointer-events="none" fill="none" stroke="white" stroke-width="1.5" d="M0,-3.0v7 M-2.5,-0.5L0,-3.0L2.5,-0.5"/>
  </g>
  <g id="arrowLeft" transform="rotate(270) translate(-36 17)">
    <use xlink:href="#rim"/>
    <path pointer-events="none" fill="none" stroke="white" stroke-width="1.5" d="M0,-3.0v7 M-2.5,-0.5L0,-3.0L2.5,-0.5"/>
  </g>
  <g id="resetDef">
    <use xlink:href="#rim2" fill="#404040"><set attributeName="fill" to="#808080" begin="reset.mouseover" end="reset.mouseout"/></use>
  </g>
</defs>
<script type="application/ecmascript">
var viewWidth = 808;
var viewHeight = 413;
var sectionId = 'dynsection-41';
</script>
<script type="application/ecmascript" xlink:href="../../svg.min.js"/>
<svg id="graph" class="graph">
<g id="viewport">
<title>remove_file</title>
<!-- Node1 -->
<g id="Node000001" class="node">
<title>Node1</title>
<g id="a_Node000001"><a xlink:title="Remove File.">
<polygon fill="#999999" stroke="#666666" points="74.5,-192.75 0,-192.75 0,-172 74.5,-172 74.5,-192.75"/>
<text xml:space="preserve" text-anchor="middle" x="37.25" y="-179.25" font-family="Helvetica,sans-Serif" font-size="10.00">remove_file</text>
</a>
</g>
</g>
<!-- Node2 -->
<g id="Node000002" class="node">
<title>Node2</title>
<g id="a_Node000002"><a xlink:href="../../df/d95/a00299.html#acf4c709bccc4c965a5d61db978db31a3" target="_top" xlink:title="Wrapper for wgetch that handles signals and mouse events.">
<polygon fill="white" stroke="#666666" points="167.75,-192.75 110.5,-192.75 110.5,-172 167.75,-172 167.75,-192.75"/>
<text xml:space="preserve" text-anchor="middle" x="139.12" y="-179.25" font-family="Helvetica,sans-Serif" font-size="10.00">xwgetch</text>
</a>
</g>
</g>
<!-- Node1&#45;&gt;Node2 -->
<g id="edge1_Node000001_Node000002" class="edge">
<title>Node1&#45;&gt;Node2</title>
<g id="a_edge1_Node000001_Node000002"><a xlink:title=" ">
<path fill="none" stroke="#63b8ff" d="M74.87,-182.38C82.73,-182.38 91.06,-182.38 99,-182.38"/>
<polygon fill="#63b8ff" stroke="#63b8ff" points="98.76,-185.88 108.76,-182.38 98.76,-178.88 98.76,-185.88"/>
</a>
</g>
</g>
<!-- Node3 -->
<g id="Node000003" class="node">
<title>Node3</title>
<g id="a_Node000003"><a xlink:href="../../df/d95/a00299.html#a67659f8a701b74f4dec0d36227a10d1c" target="_top" xlink:title="Display an error message window or print to stderr.">
<polygon fill="white" stroke="#666666" points="289.88,-212.75 210.12,-212.75 210.12,-192 289.88,-192 289.88,-212.75"/>
<text xml:space="preserve" text-anchor="middle" x="250" y="-199.25" font-family="Helvetica,sans-Serif" font-size="10.00">display_error</text>
</a>
</g>
</g>
<!-- Node2&#45;&gt;Node3 -->
<g id="edge2_Node000002_Node000003" class="edge">
<title>Node2&#45;&gt;Node3</title>
<g id="a_edge2_Node000002_Node000003"><a xlink:title=" ">
<path fill="none" stroke="#63b8ff" d="M168.16,-181.54C181.29,-183.13 197.11,-185.88 211.27,-188.99"/>
<polygon fill="#63b8ff" stroke="#63b8ff" points="210.17,-192.32 220.71,-191.19 211.77,-185.51 210.17,-192.32"/>
</a>
</g>
</g>
<!-- Node19 -->
<g id="Node000019" class="node">
<title>Node19</title>
<g id="a_Node000019"><a xlink:href="../../df/d95/a00299.html#a4298f891699300bfc4e6e56fd2a8d574" target="_top" xlink:title="Get keycode from chyron.">
<polygon fill="white" stroke="#666666" points="296.25,-173.75 203.75,-173.75 203.75,-153 296.25,-153 296.25,-173.75"/>
<text xml:space="preserve" text-anchor="middle" x="250" y="-160.25" font-family="Helvetica,sans-Serif" font-size="10.00">get_chyron_key</text>
</a>
</g>
</g>
<!-- Node2&#45;&gt;Node19 -->
<g id="edge24_Node000002_Node000019" class="edge">
<title>Node2&#45;&gt;Node19</title>
<g id="a_edge24_Node000002_Node000019"><a xlink:title=" ">
<path fill="none" stroke="#63b8ff" d="M168.16,-177.48C175.53,-176.2 183.74,-174.76 192.03,-173.32"/>
<polygon fill="#63b8ff" stroke="#63b8ff" points="192.58,-176.77 201.83,-171.61 191.37,-169.88 192.58,-176.77"/>
</a>
</g>
</g>
<!-- Node20 -->
<g id="Node000020" class="node">
<title>Node20</title>
<g id="a_Node000020"><a xlink:href="../../d1/da8/a00230.html#a79c3e22498eb2346543aa9c86fd22e58" target="_top" xlink:title="Handle received signals and prompt user for action.">
<polygon fill="white" stroke="#666666" points="420.62,-20.75 337.12,-20.75 337.12,0 420.62,0 420.62,-20.75"/>
<text xml:space="preserve" text-anchor="middle" x="378.88" y="-7.25" font-family="Helvetica,sans-Serif" font-size="10.00">handle_signal</text>
</a>
</g>
</g>
<!-- Node2&#45;&gt;Node20 -->
<g id="edge25_Node000002_Node000020" class="edge">
<title>Node2&#45;&gt;Node20</title>
<g id="a_edge25_Node000002_Node000020"><a xlink:title=" ">
<path fill="none" stroke="#63b8ff" d="M152.74,-171.85C182.84,-146.96 261.65,-83.03 332.25,-36.38 337.16,-33.13 342.5,-29.87 347.74,-26.8"/>
<polygon fill="#63b8ff" stroke="#63b8ff" points="349.28,-29.95 356.23,-21.96 345.81,-23.87 349.28,-29.95"/>
</a>
</g>
</g>
<!-- Node3&#45;&gt;Node2 -->
<g id="edge23_Node000003_Node000002" class="edge">
<title>Node3&#45;&gt;Node2</title>
<g id="a_edge23_Node000003_Node000002"><a xlink:title=" ">
<path fill="none" stroke="#63b8ff" d="M209.65,-201.66C199.37,-200.1 188.32,-198.06 178.11,-195.82"/>
<polygon fill="#63b8ff" stroke="#63b8ff" points="179.05,-192.45 168.51,-193.58 177.45,-199.26 179.05,-192.45"/>
</a>
</g>
</g>
<!-- Node4 -->
<g id="Node000004" class="node">
<title>Node4</title>
<g id="a_Node000004"><a xlink:href="../../df/d95/a00299.html#a8f6c45ca4a7f6a41c4c88314e697565a" target="_top" xlink:title="Abnormal program termination.">
<polygon fill="white" stroke="#666666" points="518.38,-289.75 472.38,-289.75 472.38,-269 518.38,-269 518.38,-289.75"/>
<text xml:space="preserve" text-anchor="middle" x="495.38" y="-276.25" font-family="Helvetica,sans-Serif" font-size="10.00">abend</text>
</a>
</g>
</g>
<!-- Node3&#45;&gt;Node4 -->
<g id="edge3_Node000003_Node000004" class="edge">
<title>Node3&#45;&gt;Node4</title>
<g id="a_edge3_Node000003_Node000004"><a xlink:title=" ">
<path fill="none" stroke="#63b8ff" d="M262.31,-213.09C277.1,-226.4 304.43,-248.67 332.25,-259.38 374.45,-275.61 426.96,-279.38 460.58,-279.91"/>
<polygon fill="#63b8ff" stroke="#63b8ff" points="460.52,-283.41 470.54,-279.97 460.56,-276.41 460.52,-283.41"/>
</a>
</g>
</g>
<!-- Node8 -->
<g id="Node000008" class="node">
<title>Node8</title>
<g id="a_Node000008"><a xlink:href="../../df/d95/a00299.html#a645871e46277e31736bc36d0f3dce4bd" target="_top" xlink:title="construct the chyron string from the chyron structure">
<polygon fill="white" stroke="#666666" points="425.5,-404.75 332.25,-404.75 332.25,-384 425.5,-384 425.5,-404.75"/>
<text xml:space="preserve" text-anchor="middle" x="378.88" y="-391.25" font-family="Helvetica,sans-Serif" font-size="10.00">compile_chyron</text>
</a>
</g>
</g>
<!-- Node3&#45;&gt;Node8 -->
<g id="edge9_Node000003_Node000008" class="edge">
<title>Node3&#45;&gt;Node8</title>
<g id="a_edge9_Node000003_Node000008"><a xlink:title=" ">
<path fill="none" stroke="#63b8ff" d="M253.3,-213.2C260.14,-242.87 283,-326.49 332.25,-374.38 333.3,-375.39 334.4,-376.36 335.56,-377.29"/>
<polygon fill="#63b8ff" stroke="#63b8ff" points="333.58,-380.17 343.87,-382.69 337.39,-374.31 333.58,-380.17"/>
</a>
</g>
</g>
<!-- Node10 -->
<g id="Node000010" class="node">
<title>Node10</title>
<g id="a_Node000010"><a xlink:href="../../df/d95/a00299.html#a3f3feb40fd703913c5c136331f627c91" target="_top" xlink:title="Destroy Chyron structure.">
<polygon fill="white" stroke="#666666" points="424.38,-174.75 333.38,-174.75 333.38,-154 424.38,-154 424.38,-174.75"/>
<text xml:space="preserve" text-anchor="middle" x="378.88" y="-161.25" font-family="Helvetica,sans-Serif" font-size="10.00">destroy_chyron</text>
</a>
</g>
</g>
<!-- Node3&#45;&gt;Node10 -->
<g id="edge11_Node000003_Node000010" class="edge">
<title>Node3&#45;&gt;Node10</title>
<g id="a_edge11_Node000003_Node000010"><a xlink:title=" ">
<path fill="none" stroke="#63b8ff" d="M287.02,-191.59C300.68,-187.5 316.44,-182.78 330.96,-178.43"/>
<polygon fill="#63b8ff" stroke="#63b8ff" points="331.74,-181.85 340.32,-175.62 329.73,-175.14 331.74,-181.85"/>
</a>
</g>
</g>
<!-- Node11 -->
<g id="Node000011" class="node">
<title>Node11</title>
<g id="a_Node000011"><a xlink:href="../../df/d95/a00299.html#ad37d5808ff30ae6894780425d865abae" target="_top" xlink:title="Create and initialize Chyron structure.">
<polygon fill="white" stroke="#666666" points="416.12,-326.75 341.62,-326.75 341.62,-306 416.12,-306 416.12,-326.75"/>
<text xml:space="preserve" text-anchor="middle" x="378.88" y="-313.25" font-family="Helvetica,sans-Serif" font-size="10.00">new_chyron</text>
</a>
</g>
</g>
<!-- Node3&#45;&gt;Node11 -->
<g id="edge12_Node000003_Node000011" class="edge">
<title>Node3&#45;&gt;Node11</title>
<g id="a_edge12_Node000003_Node000011"><a xlink:title=" ">
<path fill="none" stroke="#63b8ff" d="M258.75,-213.2C272.14,-231.34 301.16,-268.23 332.25,-292.38 335.81,-295.14 339.73,-297.74 343.73,-300.14"/>
<polygon fill="#63b8ff" stroke="#63b8ff" points="341.93,-303.14 352.37,-304.93 345.32,-297.02 341.93,-303.14"/>
</a>
</g>
</g>
<!-- Node12 -->
<g id="Node000012" class="node">
<title>Node12</title>
<g id="a_Node000012"><a xlink:href="../../df/d95/a00299.html#a208ce92c197fdd6d2b007987e534aa3b" target="_top" xlink:title="Set chyron key.">
<polygon fill="white" stroke="#666666" points="424.75,-135.75 333,-135.75 333,-115 424.75,-115 424.75,-135.75"/>
<text xml:space="preserve" text-anchor="middle" x="378.88" y="-122.25" font-family="Helvetica,sans-Serif" font-size="10.00">set_chyron_key</text>
</a>
</g>
</g>
<!-- Node3&#45;&gt;Node12 -->
<g id="edge14_Node000003_Node000012" class="edge">
<title>Node3&#45;&gt;Node12</title>
<g id="a_edge14_Node000003_Node000012"><a xlink:title=" ">
<path fill="none" stroke="#63b8ff" d="M279.66,-191.7C285.37,-189.03 291.17,-185.91 296.25,-182.38 315.09,-169.28 313.39,-158.45 332.25,-145.38 334.19,-144.03 336.24,-142.74 338.35,-141.51"/>
<polygon fill="#63b8ff" stroke="#63b8ff" points="339.89,-144.66 347.15,-136.94 336.67,-138.45 339.89,-144.66"/>
</a>
</g>
</g>
<!-- Node13 -->
<g id="Node000013" class="node">
<title>Node13</title>
<g id="a_Node000013"><a xlink:href="../../dc/d5d/a00278.html#a63eb94756fb011a456a3dec900709cd8" target="_top" xlink:title="ssnprintf was designed to be a safer alternative to snprintf.">
<polygon fill="white" stroke="#666666" points="524.75,-58.75 466,-58.75 466,-38 524.75,-38 524.75,-58.75"/>
<text xml:space="preserve" text-anchor="middle" x="495.38" y="-45.25" font-family="Helvetica,sans-Serif" font-size="10.00">ssnprintf</text>
</a>
</g>
</g>
<!-- Node3&#45;&gt;Node13 -->
<g id="edge16_Node000003_Node000013" class="edge">
<title>Node3&#45;&gt;Node13</title>
<g id="a_edge16_Node000003_Node000013"><a xlink:title=" ">
<path fill="none" stroke="#63b8ff" d="M284.38,-191.66C288.79,-189.15 292.93,-186.09 296.25,-182.38 331.93,-142.43 291.01,-101.55 332.25,-67.38 366.11,-39.31 418.51,-38.29 454.52,-41.84"/>
<polygon fill="#63b8ff" stroke="#63b8ff" points="453.75,-45.27 464.08,-42.95 454.55,-38.32 453.75,-45.27"/>
</a>
</g>
</g>
<!-- Node14 -->
<g id="Node000014" class="node">
<title>Node14</title>
<g id="a_Node000014"><a xlink:href="../../dc/d5d/a00278.html#a636608f26d1193b5d860f2312cd8ee49" target="_top" xlink:title="terminates string at New Line, Carriage Return, or max_len">
<polygon fill="white" stroke="#666666" points="398.88,-96.75 358.88,-96.75 358.88,-76 398.88,-76 398.88,-96.75"/>
<text xml:space="preserve" text-anchor="middle" x="378.88" y="-83.25" font-family="Helvetica,sans-Serif" font-size="10.00">strnz</text>
</a>
</g>
</g>
<!-- Node3&#45;&gt;Node14 -->
<g id="edge17_Node000003_Node000014" class="edge">
<title>Node3&#45;&gt;Node14</title>
<g id="a_edge17_Node000003_Node000014"><a xlink:title=" ">
<path fill="none" stroke="#63b8ff" d="M283,-191.73C287.81,-189.18 292.44,-186.09 296.25,-182.38 323.02,-156.29 305.44,-132.41 332.25,-106.38 336.83,-101.93 342.55,-98.39 348.39,-95.6"/>
<polygon fill="#63b8ff" stroke="#63b8ff" points="349.44,-98.94 357.38,-91.92 346.8,-92.46 349.44,-98.94"/>
</a>
</g>
</g>
<!-- Node15 -->
<g id="Node000015" class="node">
<title>Node15</title>
<g id="a_Node000015"><a xlink:href="../../dc/d5d/a00278.html#a0de2e40df9bd7efc8fd9afb8ad2257e6" target="_top" xlink:title="safer alternative to strncpy">
<polygon fill="white" stroke="#666666" points="529.25,-211.75 461.5,-211.75 461.5,-191 529.25,-191 529.25,-211.75"/>
<text xml:space="preserve" text-anchor="middle" x="495.38" y="-198.25" font-family="Helvetica,sans-Serif" font-size="10.00">strnz__cpy</text>
</a>
</g>
</g>
<!-- Node3&#45;&gt;Node15 -->
<g id="edge18_Node000003_Node000015" class="edge">
<title>Node3&#45;&gt;Node15</title>
<g id="a_edge18_Node000003_Node000015"><a xlink:title=" ">
<path fill="none" stroke="#63b8ff" d="M290.37,-202.21C334.06,-202.03 404.39,-201.74 450,-201.56"/>
<polygon fill="#63b8ff" stroke="#63b8ff" points="449.81,-205.06 459.8,-201.52 449.78,-198.06 449.81,-205.06"/>
</a>
</g>
</g>
<!-- Node16 -->
<g id="Node000016" class="node">
<title>Node16</title>
<g id="a_Node000016"><a xlink:href="../../df/d95/a00299.html#a9dd598e1d49c8764af1eec42c682623e" target="_top" xlink:title="Delete the current window and its associated box window.">
<polygon fill="white" stroke="#666666" points="405.62,-365.75 352.12,-365.75 352.12,-345 405.62,-345 405.62,-365.75"/>
<text xml:space="preserve" text-anchor="middle" x="378.88" y="-352.25" font-family="Helvetica,sans-Serif" font-size="10.00">win_del</text>
</a>
</g>
</g>
<!-- Node3&#45;&gt;Node16 -->
<g id="edge19_Node000003_Node000016" class="edge">
<title>Node3&#45;&gt;Node16</title>
<g id="a_edge19_Node000003_Node000016"><a xlink:title=" ">
<path fill="none" stroke="#63b8ff" d="M254.97,-213.2C264.56,-238.01 291.28,-299.6 332.25,-335.38 335.05,-337.82 338.2,-340.01 341.5,-341.96"/>
<polygon fill="#63b8ff" stroke="#63b8ff" points="339.8,-345.02 350.3,-346.42 342.96,-338.78 339.8,-345.02"/>
</a>
</g>
</g>
<!-- Node17 -->
<g id="Node000017" class="node">
<title>Node17</title>
<g id="a_Node000017"><a xlink:href="../../df/d95/a00299.html#a435c7bff7ffedb8f51c6de9259e36f6c" target="_top" xlink:title="Create a new window with optional box and title.">
<polygon fill="white" stroke="#666666" points="408.25,-250.75 349.5,-250.75 349.5,-230 408.25,-230 408.25,-250.75"/>
<text xml:space="preserve" text-anchor="middle" x="378.88" y="-237.25" font-family="Helvetica,sans-Serif" font-size="10.00">win_new</text>
</a>
</g>
</g>
<!-- Node3&#45;&gt;Node17 -->
<g id="edge20_Node000003_Node000017" class="edge">
<title>Node3&#45;&gt;Node17</title>
<g id="a_edge20_Node000003_Node000017"><a xlink:title=" ">
<path fill="none" stroke="#63b8ff" d="M287.02,-213.16C302.97,-217.94 321.79,-223.58 338.15,-228.48"/>
<polygon fill="#63b8ff" stroke="#63b8ff" points="336.98,-231.78 347.57,-231.3 338.99,-225.08 336.98,-231.78"/>
</a>
</g>
</g>
<!-- Node5 -->
<g id="Node000005" class="node">
<title>Node5</title>
<g id="a_Node000005"><a xlink:href="../../df/d95/a00299.html#afc0985a403e3eac0b2cd8f0fab500256" target="_top" xlink:title="Gracefully shut down NCurses and restore terminal settings.">
<polygon fill="white" stroke="#666666" points="654.75,-270.75 565.25,-270.75 565.25,-250 654.75,-250 654.75,-270.75"/>
<text xml:space="preserve" text-anchor="middle" x="610" y="-257.25" font-family="Helvetica,sans-Serif" font-size="10.00">destroy_curses</text>
</a>
</g>
</g>
<!-- Node4&#45;&gt;Node5 -->
<g id="edge4_Node000004_Node000005" class="edge">
<title>Node4&#45;&gt;Node5</title>
<g id="a_edge4_Node000004_Node000005"><a xlink:title=" ">
<path fill="none" stroke="#63b8ff" d="M518.63,-275.62C528.74,-273.92 541.19,-271.81 553.59,-269.72"/>
<polygon fill="#63b8ff" stroke="#63b8ff" points="554.12,-273.18 563.4,-268.07 552.96,-266.28 554.12,-273.18"/>
</a>
</g>
</g>
<!-- Node6 -->
<g id="Node000006" class="node">
<title>Node6</title>
<g id="a_Node000006"><a xlink:href="../../d6/de1/a00233.html#ac5e3adb304b78910fc77761ef6a743f0" target="_top" xlink:title="restore_shell_tioctl() &#45; restore shell terminal settings">
<polygon fill="white" stroke="#666666" points="799.75,-232.75 690.75,-232.75 690.75,-212 799.75,-212 799.75,-232.75"/>
<text xml:space="preserve" text-anchor="middle" x="745.25" y="-219.25" font-family="Helvetica,sans-Serif" font-size="10.00">restore_shell_tioctl</text>
</a>
</g>
</g>
<!-- Node4&#45;&gt;Node6 -->
<g id="edge7_Node000004_Node000006" class="edge">
<title>Node4&#45;&gt;Node6</title>
<g id="a_edge7_Node000004_Node000006"><a xlink:title=" ">
<path fill="none" stroke="#63b8ff" d="M514.09,-268.55C530.83,-258.5 554.89,-244.63 565.25,-241.38 601.81,-229.87 644.42,-225.03 678.89,-223.1"/>
<polygon fill="#63b8ff" stroke="#63b8ff" points="678.92,-226.61 688.74,-222.63 678.58,-219.61 678.92,-226.61"/>
</a>
</g>
</g>
<!-- Node7 -->
<g id="Node000007" class="node">
<title>Node7</title>
<g id="a_Node000007"><a xlink:href="../../d1/da8/a00230.html#a06c1eb6cf3649dc187115565409f91af" target="_top" xlink:title="Set signal handlers to default behavior.">
<polygon fill="white" stroke="#666666" points="785.88,-289.75 704.62,-289.75 704.62,-269 785.88,-269 785.88,-289.75"/>
<text xml:space="preserve" text-anchor="middle" x="745.25" y="-276.25" font-family="Helvetica,sans-Serif" font-size="10.00">sig_dfl_mode</text>
</a>
</g>
</g>
<!-- Node4&#45;&gt;Node7 -->
<g id="edge8_Node000004_Node000007" class="edge">
<title>Node4&#45;&gt;Node7</title>
<g id="a_edge8_Node000004_Node000007"><a xlink:title=" ">
<path fill="none" stroke="#63b8ff" d="M518.81,-279.38C557.89,-279.38 639.39,-279.38 692.94,-279.38"/>
<polygon fill="#63b8ff" stroke="#63b8ff" points="692.74,-282.88 702.74,-279.38 692.74,-275.88 692.74,-282.88"/>
</a>
</g>
</g>
<!-- Node5&#45;&gt;Node6 -->
<g id="edge5_Node000005_Node000006" class="edge">
<title>Node5&#45;&gt;Node6</title>
<g id="a_edge5_Node000005_Node000006"><a xlink:title=" ">
<path fill="none" stroke="#63b8ff" d="M648.83,-249.59C663.32,-245.46 680.05,-240.68 695.43,-236.3"/>
<polygon fill="#63b8ff" stroke="#63b8ff" points="696.22,-239.71 704.87,-233.6 694.3,-232.98 696.22,-239.71"/>
</a>
</g>
</g>
<!-- Node5&#45;&gt;Node7 -->
<g id="edge6_Node000005_Node000007" class="edge">
<title>Node5&#45;&gt;Node7</title>
<g id="a_edge6_Node000005_Node000007"><a xlink:title=" ">
<path fill="none" stroke="#63b8ff" d="M655,-266.65C667.19,-268.39 680.52,-270.29 693.08,-272.08"/>
<polygon fill="#63b8ff" stroke="#63b8ff" points="692.45,-275.52 702.84,-273.47 693.44,-268.59 692.45,-275.52"/>
</a>
</g>
</g>
<!-- Node9 -->
<g id="Node000009" class="node">
<title>Node9</title>
<g id="a_Node000009"><a xlink:href="../../dc/d5d/a00278.html#aa0145c044cfdde3a1c83323410a59f25" target="_top" xlink:title="safer alternative to strncat">
<polygon fill="white" stroke="#666666" points="528.12,-404.75 462.62,-404.75 462.62,-384 528.12,-384 528.12,-404.75"/>
<text xml:space="preserve" text-anchor="middle" x="495.38" y="-391.25" font-family="Helvetica,sans-Serif" font-size="10.00">strnz__cat</text>
</a>
</g>
</g>
<!-- Node8&#45;&gt;Node9 -->
<g id="edge10_Node000008_Node000009" class="edge">
<title>Node8&#45;&gt;Node9</title>
<g id="a_edge10_Node000008_Node000009"><a xlink:title=" ">
<path fill="none" stroke="#63b8ff" d="M425.79,-394.38C434.08,-394.38 442.69,-394.38 450.91,-394.38"/>
<polygon fill="#63b8ff" stroke="#63b8ff" points="450.67,-397.88 460.67,-394.38 450.67,-390.88 450.67,-397.88"/>
</a>
</g>
</g>
<!-- Node11&#45;&gt;Node4 -->
<g id="edge13_Node000011_Node000004" class="edge">
<title>Node11&#45;&gt;Node4</title>
<g id="a_edge13_Node000011_Node000004"><a xlink:title=" ">
<path fill="none" stroke="#63b8ff" d="M413.3,-305.57C428.34,-300.71 446.06,-294.99 461.09,-290.13"/>
<polygon fill="#63b8ff" stroke="#63b8ff" points="462.09,-293.49 470.53,-287.08 459.93,-286.83 462.09,-293.49"/>
</a>
</g>
</g>
<!-- Node12&#45;&gt;Node13 -->
<g id="edge15_Node000012_Node000013" class="edge">
<title>Node12&#45;&gt;Node13</title>
<g id="a_edge15_Node000012_Node000013"><a xlink:title=" ">
<path fill="none" stroke="#63b8ff" d="M408.01,-114.51C413.94,-111.82 420.05,-108.73 425.5,-105.38 443.54,-94.26 461.92,-78.79 475.15,-66.77"/>
<polygon fill="#63b8ff" stroke="#63b8ff" points="477.36,-69.5 482.31,-60.13 472.6,-64.37 477.36,-69.5"/>
</a>
</g>
</g>
<!-- Node17&#45;&gt;Node15 -->
<g id="edge22_Node000017_Node000015" class="edge">
<title>Node17&#45;&gt;Node15</title>
<g id="a_edge22_Node000017_Node000015"><a xlink:title=" ">
<path fill="none" stroke="#63b8ff" d="M408.47,-230.63C421.56,-226.18 437.35,-220.8 451.79,-215.88"/>
<polygon fill="#63b8ff" stroke="#63b8ff" points="452.74,-219.25 461.08,-212.72 450.49,-212.63 452.74,-219.25"/>
</a>
</g>
</g>
<!-- Node18 -->
<g id="Node000018" class="node">
<title>Node18</title>
<g id="a_Node000018"><a xlink:href="../../df/d95/a00299.html#ac9adcf7339be4a05ab1a7350c236b8a5" target="_top" xlink:title="Draw a box around the specified window.">
<polygon fill="white" stroke="#666666" points="515,-250.75 475.75,-250.75 475.75,-230 515,-230 515,-250.75"/>
<text xml:space="preserve" text-anchor="middle" x="495.38" y="-237.25" font-family="Helvetica,sans-Serif" font-size="10.00">cbox</text>
</a>
</g>
</g>
<!-- Node17&#45;&gt;Node18 -->
<g id="edge21_Node000017_Node000018" class="edge">
<title>Node17&#45;&gt;Node18</title>
<g id="a_edge21_Node000017_Node000018"><a xlink:title=" ">
<path fill="none" stroke="#63b8ff" d="M408.47,-240.38C425.4,-240.38 446.82,-240.38 464.04,-240.38"/>
<polygon fill="#63b8ff" stroke="#63b8ff" points="463.94,-243.88 473.94,-240.38 463.94,-236.88 463.94,-243.88"/>
</a>
</g>
</g>
<!-- Node20&#45;&gt;Node6 -->
<g id="edge26_Node000020_Node000006" class="edge">
<title>Node20&#45;&gt;Node6</title>
<g id="a_edge26_Node000020_Node000006"><a xlink:title=" ">
<path fill="none" stroke="#63b8ff" d="M420.97,-9.11C452.03,-9.66 495.02,-13.72 529.25,-29.38 619.01,-70.43 697.81,-162.4 729.46,-202.76"/>
<polygon fill="#63b8ff" stroke="#63b8ff" points="726.51,-204.66 735.39,-210.43 732.05,-200.38 726.51,-204.66"/>
</a>
</g>
</g>
<!-- Node20&#45;&gt;Node13 -->
<g id="edge27_Node000020_Node000013" class="edge">
<title>Node20&#45;&gt;Node13</title>
<g id="a_edge27_Node000020_Node000013"><a xlink:title=" ">
<path fill="none" stroke="#63b8ff" d="M412.38,-21.16C425.63,-25.56 441.07,-30.68 454.96,-35.29"/>
<polygon fill="#63b8ff" stroke="#63b8ff" points="453.66,-38.55 464.25,-38.38 455.86,-31.91 453.66,-38.55"/>
</a>
</g>
</g>
<!-- Node20&#45;&gt;Node15 -->
<g id="edge28_Node000020_Node000015" class="edge">
<title>Node20&#45;&gt;Node15</title>
<g id="a_edge28_Node000020_Node000015"><a xlink:title=" ">
<path fill="none" stroke="#63b8ff" d="M389.66,-21.23C399.41,-32.34 414.47,-50.35 425.5,-67.38 450.14,-105.41 472.97,-153.33 485.16,-180.34"/>
<polygon fill="#63b8ff" stroke="#63b8ff" points="481.83,-181.46 489.09,-189.17 488.22,-178.61 481.83,-181.46"/>
</a>
</g>
</g>
</g>
</svg>

<g id="navigator" transform="translate(0 0)" fill="#404254">
  <rect fill="#f2f5e9" fill-opacity="0.5" stroke="#606060" stroke-width=".5" x="0" y="0" width="60" height="60"/>
  <use id="zoomplus" xlink:href="#zoomPlus" x="17" y="9" onmousedown="handleZoom(evt,'in')"/>
  <use id="zoomminus" xlink:href="#zoomMin" x="42" y="9" onmousedown="handleZoom(evt,'out')"/>
  <use id="reset" xlink:href="#resetDef" x="30" y="36" onmousedown="handleReset()"/>
   <use id="arrowup" xlink:href="#arrowUp" x="0" y="0" onmousedown="handlePan(0,-1)"/>
  <use id="arrowright" xlink:href="#arrowRight" x="0" y="0" onmousedown="handlePan(1,0)"/>
  <use id="arrowdown" xlink:href="#arrowDown" x="0" y="0" onmousedown="handlePan(0,1)"/>
  <use id="arrowleft" xlink:href="#arrowLeft" x="0" y="0" onmousedown="handlePan(-1,0)"/>
</g>
<svg viewBox="0 0 15 15" width="100%" height="30px" preserveAspectRatio="xMaxYMin meet">
 <g id="arrow_out" transform="scale(0.3 0.3)">
  <a xlink:href="a00221_a677ea54b0c727a5475d0b3efe71f5a7c_cgraph_org.svg" target="_base">
   <rect id="button" ry="5" rx="5" y="6" x="6" height="38" width="38"
        fill="#f2f5e9" fill-opacity="0.5" stroke="#606060" stroke-width="1.0"/>
   <path id="arrow"
     d="M 11.500037,31.436501 C 11.940474,20.09759 22.043105,11.32322 32.158766,21.979434 L 37.068811,17.246167 C 37.068811,17.246167 37.088388,32 37.088388,32 L 22.160133,31.978069 C 22.160133,31.978069 26.997745,27.140456 26.997745,27.140456 C 18.528582,18.264221 13.291696,25.230495 11.500037,31.436501 z"
     style="fill:#404040;"/>
  </a>
 </g>
</svg>

<style type='text/css'>
<![CDATA[
[data-mouse-over-selected='false'] { opacity: 0.7; }
[data-mouse-over-selected='true']  { opacity: 1.0; }
]]>
</style>
<script type="application/ecmascript"><![CDATA[
document.addEventListener('DOMContentLoaded', (event) => {
  highlightEdges();
  highlightAdjacentNodes();
});
]]></script>
</svg>
