<?xml version="1.0" encoding="UTF-8" standalone="no"?>
<!DOCTYPE svg PUBLIC "-//W3C//DTD SVG 1.1//EN"
 "http://www.w3.org/Graphics/SVG/1.1/DTD/svg11.dtd">
<!-- Generated by graphviz version 14.1.2 (0)
 -->
<!-- Title: go_to_position Pages: 1 -->
<!--zoomable 690 -->

<svg id="main" version="1.1" xmlns="http://www.w3.org/2000/svg" xmlns:xlink="http://www.w3.org/1999/xlink" xml:space="preserve" onload="init(evt)">

<style type="text/css"><![CDATA[
.node, .edge {opacity: 0.7;}
.node.selected, .edge.selected {opacity: 1;}
.edge:hover path { stroke: red; }
.edge:hover polygon { stroke: red; fill: red; }
]]></style>

<defs>
  <circle id="rim" cx="0" cy="0" r="7"/>
  <circle id="rim2" cx="0" cy="0" r="3.5"/>
  <g id="zoomPlus">
    <use xlink:href="#rim" fill="#404040"><set attributeName="fill" to="#808080" begin="zoomplus.mouseover" end="zoomplus.mouseout"/></use>
    <path d="M-4,0h8M0,-4v8" fill="none" stroke="white" stroke-width="1.5" pointer-events="none"/>
  </g>
  <g id="zoomMin">
    <use xlink:href="#rim" fill="#404040"><set attributeName="fill" to="#808080" begin="zoomminus.mouseover" end="zoomminus.mouseout"/></use>
    <path d="M-4,0h8" fill="none" stroke="white" stroke-width="1.5" pointer-events="none"/>
  </g>
  <g id="arrowUp" transform="translate(30 24)">
    <use xlink:href="#rim"/>
    <path pointer-events="none" fill="none" stroke="white" stroke-width="1.5" d="M0,-3.0v7 M-2.5,-0.5L0,-3.0L2.5,-0.5"/>
  </g>
  <g id="arrowRight" transform="rotate(90) translate(36 -43)">
    <use xlink:href="#rim"/>
    <path pointer-events="none" fill="none" stroke="white" stroke-width="1.5" d="M0,-3.0v7 M-2.5,-0.5L0,-3.0L2.5,-0.5"/>
  </g>
  <g id="arrowDown" transform="rotate(180) translate(-30 -48)">
    <use xlink:href="#rim"/>
    <path pointer-events="none" fill="none" stroke="white" stroke-width="1.5" d="M0,-3.0v7 M-2.5,-0.5L0,-3.0L2.5,-0.5"/>
  </g>
  <g id="arrowLeft" transform="rotate(270) translate(-36 17)">
    <use xlink:href="#rim"/>
    <path pointer-events="none" fill="none" stroke="white" stroke-width="1.5" d="M0,-3.0v7 M-2.5,-0.5L0,-3.0L2.5,-0.5"/>
  </g>
  <g id="resetDef">
    <use xlink:href="#rim2" fill="#404040"><set attributeName="fill" to="#808080" begin="reset.mouseover" end="reset.mouseout"/></use>
  </g>
</defs>
<script type="application/ecmascript">
var viewWidth = 1226;
var viewHeight = 690;
var sectionId = 'dynsection-29';
</script>
<script type="application/ecmascript" xlink:href="../../svg.min.js"/>
<svg id="graph" class="graph">
<g id="viewport">
<title>go_to_position</title>
<!-- Node1 -->
<g id="Node000001" class="node">
<title>Node1</title>
<g id="a_Node000001"><a xlink:title="Go to Specific File Position.">
<polygon fill="#999999" stroke="#666666" points="87.25,-213.75 0,-213.75 0,-193 87.25,-193 87.25,-213.75"/>
<text xml:space="preserve" text-anchor="middle" x="43.62" y="-200.25" font-family="Helvetica,sans-Serif" font-size="10.00">go_to_position</text>
</a>
</g>
</g>
<!-- Node2 -->
<g id="Node000002" class="node">
<title>Node2</title>
<g id="a_Node000002"><a xlink:href="../../dd/d52/a00221.html#acf1bfbd6d2fd4ad9a0385009ef25015c" target="_top" xlink:title="Advance to Next Page.">
<polygon fill="white" stroke="#666666" points="190.25,-213.75 123.25,-213.75 123.25,-193 190.25,-193 190.25,-213.75"/>
<text xml:space="preserve" text-anchor="middle" x="156.75" y="-200.25" font-family="Helvetica,sans-Serif" font-size="10.00">next_page</text>
</a>
</g>
</g>
<!-- Node1&#45;&gt;Node2 -->
<g id="edge1_Node000001_Node000002" class="edge">
<title>Node1&#45;&gt;Node2</title>
<g id="a_edge1_Node000001_Node000002"><a xlink:title=" ">
<path fill="none" stroke="#63b8ff" d="M87.59,-203.38C95.47,-203.38 103.7,-203.38 111.62,-203.38"/>
<polygon fill="#63b8ff" stroke="#63b8ff" points="111.38,-206.88 121.38,-203.38 111.38,-199.88 111.38,-206.88"/>
</a>
</g>
</g>
<!-- Node3 -->
<g id="Node000003" class="node">
<title>Node3</title>
<g id="a_Node000003"><a xlink:href="../../dd/d52/a00221.html#a16a4b855ead8402d4744e77a5504082a" target="_top" xlink:title="Display Line on Pad.">
<polygon fill="white" stroke="#666666" points="304.5,-403.75 230,-403.75 230,-383 304.5,-383 304.5,-403.75"/>
<text xml:space="preserve" text-anchor="middle" x="267.25" y="-390.25" font-family="Helvetica,sans-Serif" font-size="10.00">display_line</text>
</a>
</g>
</g>
<!-- Node2&#45;&gt;Node3 -->
<g id="edge2_Node000002_Node000003" class="edge">
<title>Node2&#45;&gt;Node3</title>
<g id="a_edge2_Node000002_Node000003"><a xlink:title=" ">
<path fill="none" stroke="#63b8ff" d="M163.89,-214.13C181.39,-244.77 231.67,-332.82 254.6,-372.98"/>
<polygon fill="#63b8ff" stroke="#63b8ff" points="251.42,-374.47 259.42,-381.42 257.5,-371 251.42,-374.47"/>
</a>
</g>
</g>
<!-- Node24 -->
<g id="Node000024" class="node">
<title>Node24</title>
<g id="a_Node000024"><a xlink:href="../../dd/d52/a00221.html#a747411d59b020ad11d4567ab0b3db8c2" target="_top" xlink:title="Format Line for Display.">
<polygon fill="white" stroke="#666666" points="295.5,-213.75 239,-213.75 239,-193 295.5,-193 295.5,-213.75"/>
<text xml:space="preserve" text-anchor="middle" x="267.25" y="-200.25" font-family="Helvetica,sans-Serif" font-size="10.00">fmt_line</text>
</a>
</g>
</g>
<!-- Node2&#45;&gt;Node24 -->
<g id="edge41_Node000002_Node000024" class="edge">
<title>Node2&#45;&gt;Node24</title>
<g id="a_edge41_Node000002_Node000024"><a xlink:title=" ">
<path fill="none" stroke="#63b8ff" d="M190.6,-203.38C202.23,-203.38 215.42,-203.38 227.49,-203.38"/>
<polygon fill="#63b8ff" stroke="#63b8ff" points="227.12,-206.88 237.12,-203.38 227.12,-199.88 227.12,-206.88"/>
</a>
</g>
</g>
<!-- Node32 -->
<g id="Node000032" class="node">
<title>Node32</title>
<g id="a_Node000032"><a xlink:href="../../dd/d52/a00221.html#a395b27e6a9716bf49e3fc04d53987b33" target="_top" xlink:title="Get Next Line from File.">
<polygon fill="white" stroke="#666666" points="308.25,-174.75 226.25,-174.75 226.25,-154 308.25,-154 308.25,-174.75"/>
<text xml:space="preserve" text-anchor="middle" x="267.25" y="-161.25" font-family="Helvetica,sans-Serif" font-size="10.00">get_next_line</text>
</a>
</g>
</g>
<!-- Node2&#45;&gt;Node32 -->
<g id="edge51_Node000002_Node000032" class="edge">
<title>Node2&#45;&gt;Node32</title>
<g id="a_edge51_Node000002_Node000032"><a xlink:title=" ">
<path fill="none" stroke="#63b8ff" d="M187.97,-192.51C199.61,-188.33 213.1,-183.48 225.57,-179"/>
<polygon fill="#63b8ff" stroke="#63b8ff" points="226.54,-182.37 234.76,-175.69 224.17,-175.78 226.54,-182.37"/>
</a>
</g>
</g>
<!-- Node4 -->
<g id="Node000004" class="node">
<title>Node4</title>
<g id="a_Node000004"><a xlink:href="../../df/d95/a00299.html#a61b4f28456257f68ed042bed7f187efd" target="_top" xlink:title="Display a simple error message window or print to stderr.">
<polygon fill="white" stroke="#666666" points="410.12,-479.75 364.88,-479.75 364.88,-459 410.12,-459 410.12,-479.75"/>
<text xml:space="preserve" text-anchor="middle" x="387.5" y="-466.25" font-family="Helvetica,sans-Serif" font-size="10.00">Perror</text>
</a>
</g>
</g>
<!-- Node3&#45;&gt;Node4 -->
<g id="edge3_Node000003_Node000004" class="edge">
<title>Node3&#45;&gt;Node4</title>
<g id="a_edge3_Node000003_Node000004"><a xlink:title=" ">
<path fill="none" stroke="#63b8ff" d="M284.94,-404.1C304.57,-416.72 337.4,-437.82 360.4,-452.6"/>
<polygon fill="#63b8ff" stroke="#63b8ff" points="358.32,-455.42 368.62,-457.88 362.1,-449.53 358.32,-455.42"/>
</a>
</g>
</g>
<!-- Node5 -->
<g id="Node000005" class="node">
<title>Node5</title>
<g id="a_Node000005"><a xlink:href="../../df/d95/a00299.html#a8f6c45ca4a7f6a41c4c88314e697565a" target="_top" xlink:title="Abnormal program termination.">
<polygon fill="white" stroke="#666666" points="936.88,-383.75 890.88,-383.75 890.88,-363 936.88,-363 936.88,-383.75"/>
<text xml:space="preserve" text-anchor="middle" x="913.88" y="-370.25" font-family="Helvetica,sans-Serif" font-size="10.00">abend</text>
</a>
</g>
</g>
<!-- Node4&#45;&gt;Node5 -->
<g id="edge4_Node000004_Node000005" class="edge">
<title>Node4&#45;&gt;Node5</title>
<g id="a_edge4_Node000004_Node000005"><a xlink:title=" ">
<path fill="none" stroke="#63b8ff" d="M398.51,-479.88C412.4,-493.73 438.97,-517.72 466.75,-529.38 544.4,-561.96 775.13,-613.84 844,-565.38 899.78,-526.12 910.61,-437.24 912.56,-395.64"/>
<polygon fill="#63b8ff" stroke="#63b8ff" points="916.06,-395.75 912.87,-385.64 909.06,-395.53 916.06,-395.75"/>
</a>
</g>
</g>
<!-- Node9 -->
<g id="Node000009" class="node">
<title>Node9</title>
<g id="a_Node000009"><a xlink:href="../../df/d95/a00299.html#a645871e46277e31736bc36d0f3dce4bd" target="_top" xlink:title="construct the chyron string from the chyron structure">
<polygon fill="white" stroke="#666666" points="844,-136.75 750.75,-136.75 750.75,-116 844,-116 844,-136.75"/>
<text xml:space="preserve" text-anchor="middle" x="797.38" y="-123.25" font-family="Helvetica,sans-Serif" font-size="10.00">compile_chyron</text>
</a>
</g>
</g>
<!-- Node4&#45;&gt;Node9 -->
<g id="edge10_Node000004_Node000009" class="edge">
<title>Node4&#45;&gt;Node9</title>
<g id="a_edge10_Node000004_Node000009"><a xlink:title=" ">
<path fill="none" stroke="#63b8ff" d="M390.31,-458.65C399.51,-404.9 441.54,-166.42 466.75,-145.38 506.67,-112.04 655.62,-116.42 738.97,-121.79"/>
<polygon fill="#63b8ff" stroke="#63b8ff" points="738.56,-125.27 748.77,-122.45 739.03,-118.29 738.56,-125.27"/>
</a>
</g>
</g>
<!-- Node11 -->
<g id="Node000011" class="node">
<title>Node11</title>
<g id="a_Node000011"><a xlink:href="../../df/d95/a00299.html#a3f3feb40fd703913c5c136331f627c91" target="_top" xlink:title="Destroy Chyron structure.">
<polygon fill="white" stroke="#666666" points="842.88,-556.75 751.88,-556.75 751.88,-536 842.88,-536 842.88,-556.75"/>
<text xml:space="preserve" text-anchor="middle" x="797.38" y="-543.25" font-family="Helvetica,sans-Serif" font-size="10.00">destroy_chyron</text>
</a>
</g>
</g>
<!-- Node4&#45;&gt;Node11 -->
<g id="edge12_Node000004_Node000011" class="edge">
<title>Node4&#45;&gt;Node11</title>
<g id="a_edge12_Node000004_Node000011"><a xlink:title=" ">
<path fill="none" stroke="#63b8ff" d="M408.85,-480.1C424.31,-487.78 446.34,-497.73 466.75,-503.38 560.55,-529.31 673.79,-539.74 740.17,-543.83"/>
<polygon fill="#63b8ff" stroke="#63b8ff" points="739.91,-547.32 750.09,-544.41 740.32,-540.33 739.91,-547.32"/>
</a>
</g>
</g>
<!-- Node12 -->
<g id="Node000012" class="node">
<title>Node12</title>
<g id="a_Node000012"><a xlink:href="../../df/d95/a00299.html#ad37d5808ff30ae6894780425d865abae" target="_top" xlink:title="Create and initialize Chyron structure.">
<polygon fill="white" stroke="#666666" points="834.62,-402.75 760.12,-402.75 760.12,-382 834.62,-382 834.62,-402.75"/>
<text xml:space="preserve" text-anchor="middle" x="797.38" y="-389.25" font-family="Helvetica,sans-Serif" font-size="10.00">new_chyron</text>
</a>
</g>
</g>
<!-- Node4&#45;&gt;Node12 -->
<g id="edge13_Node000004_Node000012" class="edge">
<title>Node4&#45;&gt;Node12</title>
<g id="a_edge13_Node000004_Node000012"><a xlink:title=" ">
<path fill="none" stroke="#63b8ff" d="M410.36,-466.08C462.98,-458.02 600.79,-436.26 714.75,-412.38 725.89,-410.04 737.82,-407.27 749.02,-404.55"/>
<polygon fill="#63b8ff" stroke="#63b8ff" points="749.58,-408.02 758.46,-402.22 747.91,-401.22 749.58,-408.02"/>
</a>
</g>
</g>
<!-- Node13 -->
<g id="Node000013" class="node">
<title>Node13</title>
<g id="a_Node000013"><a xlink:href="../../df/d95/a00299.html#a208ce92c197fdd6d2b007987e534aa3b" target="_top" xlink:title="Set chyron key.">
<polygon fill="white" stroke="#666666" points="843.25,-250.75 751.5,-250.75 751.5,-230 843.25,-230 843.25,-250.75"/>
<text xml:space="preserve" text-anchor="middle" x="797.38" y="-237.25" font-family="Helvetica,sans-Serif" font-size="10.00">set_chyron_key</text>
</a>
</g>
</g>
<!-- Node4&#45;&gt;Node13 -->
<g id="edge15_Node000004_Node000013" class="edge">
<title>Node4&#45;&gt;Node13</title>
<g id="a_edge15_Node000004_Node000013"><a xlink:title=" ">
<path fill="none" stroke="#63b8ff" d="M394.92,-458.51C406.83,-439.17 434.13,-398.55 466.75,-374.38 551.84,-311.31 670.81,-272.61 740.11,-253.93"/>
<polygon fill="#63b8ff" stroke="#63b8ff" points="740.97,-257.32 749.74,-251.38 739.18,-250.56 740.97,-257.32"/>
</a>
</g>
</g>
<!-- Node14 -->
<g id="Node000014" class="node">
<title>Node14</title>
<g id="a_Node000014"><a xlink:href="../../dc/d5d/a00278.html#a63eb94756fb011a456a3dec900709cd8" target="_top" xlink:title="ssnprintf was designed to be a safer alternative to snprintf.">
<polygon fill="white" stroke="#666666" points="943.25,-250.75 884.5,-250.75 884.5,-230 943.25,-230 943.25,-250.75"/>
<text xml:space="preserve" text-anchor="middle" x="913.88" y="-237.25" font-family="Helvetica,sans-Serif" font-size="10.00">ssnprintf</text>
</a>
</g>
</g>
<!-- Node4&#45;&gt;Node14 -->
<g id="edge17_Node000004_Node000014" class="edge">
<title>Node4&#45;&gt;Node14</title>
<g id="a_edge17_Node000004_Node000014"><a xlink:title=" ">
<path fill="none" stroke="#63b8ff" d="M390.47,-458.75C396.42,-429.67 416.97,-348.13 466.75,-305.38 566.61,-219.62 620.41,-239.77 750.75,-221.38 791.79,-215.58 802.93,-215.81 844,-221.38 853.53,-222.66 863.59,-224.91 873.01,-227.43"/>
<polygon fill="#63b8ff" stroke="#63b8ff" points="872.05,-230.79 882.62,-230.16 873.96,-224.06 872.05,-230.79"/>
</a>
</g>
</g>
<!-- Node15 -->
<g id="Node000015" class="node">
<title>Node15</title>
<g id="a_Node000015"><a xlink:href="../../dc/d5d/a00278.html#a0de2e40df9bd7efc8fd9afb8ad2257e6" target="_top" xlink:title="safer alternative to strncpy">
<polygon fill="white" stroke="#666666" points="947.75,-555.75 880,-555.75 880,-535 947.75,-535 947.75,-555.75"/>
<text xml:space="preserve" text-anchor="middle" x="913.88" y="-542.25" font-family="Helvetica,sans-Serif" font-size="10.00">strnz__cpy</text>
</a>
</g>
</g>
<!-- Node4&#45;&gt;Node15 -->
<g id="edge18_Node000004_Node000015" class="edge">
<title>Node4&#45;&gt;Node15</title>
<g id="a_edge18_Node000004_Node000015"><a xlink:title=" ">
<path fill="none" stroke="#63b8ff" d="M391.11,-479.94C398.14,-505.81 420.19,-572.16 466.75,-598.38 539.8,-639.5 764.63,-625.38 844,-598.38 863.96,-591.58 882.65,-576.41 895.51,-564.04"/>
<polygon fill="#63b8ff" stroke="#63b8ff" points="897.81,-566.69 902.36,-557.12 892.84,-561.76 897.81,-566.69"/>
</a>
</g>
</g>
<!-- Node16 -->
<g id="Node000016" class="node">
<title>Node16</title>
<g id="a_Node000016"><a xlink:href="../../df/d95/a00299.html#a9dd598e1d49c8764af1eec42c682623e" target="_top" xlink:title="Delete the current window and its associated box window.">
<polygon fill="white" stroke="#666666" points="824.12,-517.75 770.62,-517.75 770.62,-497 824.12,-497 824.12,-517.75"/>
<text xml:space="preserve" text-anchor="middle" x="797.38" y="-504.25" font-family="Helvetica,sans-Serif" font-size="10.00">win_del</text>
</a>
</g>
</g>
<!-- Node4&#45;&gt;Node16 -->
<g id="edge19_Node000004_Node000016" class="edge">
<title>Node4&#45;&gt;Node16</title>
<g id="a_edge19_Node000004_Node000016"><a xlink:title=" ">
<path fill="none" stroke="#63b8ff" d="M410.33,-473.91C425.97,-477.01 447.58,-480.97 466.75,-483.38 572.16,-496.61 697.52,-503.25 758.83,-505.92"/>
<polygon fill="#63b8ff" stroke="#63b8ff" points="758.57,-509.41 768.71,-506.33 758.86,-502.42 758.57,-509.41"/>
</a>
</g>
</g>
<!-- Node17 -->
<g id="Node000017" class="node">
<title>Node17</title>
<g id="a_Node000017"><a xlink:href="../../df/d95/a00299.html#a435c7bff7ffedb8f51c6de9259e36f6c" target="_top" xlink:title="Create a new window with optional box and title.">
<polygon fill="white" stroke="#666666" points="826.75,-670.75 768,-670.75 768,-650 826.75,-650 826.75,-670.75"/>
<text xml:space="preserve" text-anchor="middle" x="797.38" y="-657.25" font-family="Helvetica,sans-Serif" font-size="10.00">win_new</text>
</a>
</g>
</g>
<!-- Node4&#45;&gt;Node17 -->
<g id="edge20_Node000004_Node000017" class="edge">
<title>Node4&#45;&gt;Node17</title>
<g id="a_edge20_Node000004_Node000017"><a xlink:title=" ">
<path fill="none" stroke="#63b8ff" d="M389.81,-479.92C394.19,-510.3 411.36,-598.26 466.75,-636.38 555.04,-697.12 689.97,-682 756.48,-669.38"/>
<polygon fill="#63b8ff" stroke="#63b8ff" points="757.08,-672.83 766.21,-667.45 755.72,-665.97 757.08,-672.83"/>
</a>
</g>
</g>
<!-- Node19 -->
<g id="Node000019" class="node">
<title>Node19</title>
<g id="a_Node000019"><a xlink:href="../../df/d95/a00299.html#acf4c709bccc4c965a5d61db978db31a3" target="_top" xlink:title="Wrapper for wgetch that handles signals and mouse events.">
<polygon fill="white" stroke="#666666" points="555.12,-403.75 497.88,-403.75 497.88,-383 555.12,-383 555.12,-403.75"/>
<text xml:space="preserve" text-anchor="middle" x="526.5" y="-390.25" font-family="Helvetica,sans-Serif" font-size="10.00">xwgetch</text>
</a>
</g>
</g>
<!-- Node4&#45;&gt;Node19 -->
<g id="edge23_Node000004_Node000019" class="edge">
<title>Node4&#45;&gt;Node19</title>
<g id="a_edge23_Node000004_Node000019"><a xlink:title=" ">
<path fill="none" stroke="#63b8ff" d="M407.84,-458.65C430.89,-445.86 469.64,-424.36 496.33,-409.56"/>
<polygon fill="#63b8ff" stroke="#63b8ff" points="497.89,-412.69 504.94,-404.78 494.49,-406.57 497.89,-412.69"/>
</a>
</g>
</g>
<!-- Node6 -->
<g id="Node000006" class="node">
<title>Node6</title>
<g id="a_Node000006"><a xlink:href="../../df/d95/a00299.html#afc0985a403e3eac0b2cd8f0fab500256" target="_top" xlink:title="Gracefully shut down NCurses and restore terminal settings.">
<polygon fill="white" stroke="#666666" points="1073.25,-365.75 983.75,-365.75 983.75,-345 1073.25,-345 1073.25,-365.75"/>
<text xml:space="preserve" text-anchor="middle" x="1028.5" y="-352.25" font-family="Helvetica,sans-Serif" font-size="10.00">destroy_curses</text>
</a>
</g>
</g>
<!-- Node5&#45;&gt;Node6 -->
<g id="edge5_Node000005_Node000006" class="edge">
<title>Node5&#45;&gt;Node6</title>
<g id="a_edge5_Node000005_Node000006"><a xlink:title=" ">
<path fill="none" stroke="#63b8ff" d="M937.13,-369.82C947.24,-368.2 959.69,-366.21 972.09,-364.23"/>
<polygon fill="#63b8ff" stroke="#63b8ff" points="972.58,-367.7 981.9,-362.66 971.47,-360.79 972.58,-367.7"/>
</a>
</g>
</g>
<!-- Node7 -->
<g id="Node000007" class="node">
<title>Node7</title>
<g id="a_Node000007"><a xlink:href="../../d6/de1/a00233.html#ac5e3adb304b78910fc77761ef6a743f0" target="_top" xlink:title="restore_shell_tioctl() &#45; restore shell terminal settings">
<polygon fill="white" stroke="#666666" points="1218.25,-403.75 1109.25,-403.75 1109.25,-383 1218.25,-383 1218.25,-403.75"/>
<text xml:space="preserve" text-anchor="middle" x="1163.75" y="-390.25" font-family="Helvetica,sans-Serif" font-size="10.00">restore_shell_tioctl</text>
</a>
</g>
</g>
<!-- Node5&#45;&gt;Node7 -->
<g id="edge8_Node000005_Node000007" class="edge">
<title>Node5&#45;&gt;Node7</title>
<g id="a_edge8_Node000005_Node000007"><a xlink:title=" ">
<path fill="none" stroke="#63b8ff" d="M937.31,-375.19C973.17,-378.08 1044.75,-383.85 1097.68,-388.12"/>
<polygon fill="#63b8ff" stroke="#63b8ff" points="1097.25,-391.6 1107.5,-388.92 1097.81,-384.62 1097.25,-391.6"/>
</a>
</g>
</g>
<!-- Node8 -->
<g id="Node000008" class="node">
<title>Node8</title>
<g id="a_Node000008"><a xlink:href="../../d1/da8/a00230.html#a06c1eb6cf3649dc187115565409f91af" target="_top" xlink:title="Set signal handlers to default behavior.">
<polygon fill="white" stroke="#666666" points="1204.38,-346.75 1123.12,-346.75 1123.12,-326 1204.38,-326 1204.38,-346.75"/>
<text xml:space="preserve" text-anchor="middle" x="1163.75" y="-333.25" font-family="Helvetica,sans-Serif" font-size="10.00">sig_dfl_mode</text>
</a>
</g>
</g>
<!-- Node5&#45;&gt;Node8 -->
<g id="edge9_Node000005_Node000008" class="edge">
<title>Node5&#45;&gt;Node8</title>
<g id="a_edge9_Node000005_Node000008"><a xlink:title=" ">
<path fill="none" stroke="#63b8ff" d="M929.83,-362.51C943.21,-353.51 963.74,-341.41 983.75,-336.38 1025.9,-325.77 1075.42,-326.75 1111.68,-329.83"/>
<polygon fill="#63b8ff" stroke="#63b8ff" points="1111.17,-333.29 1121.45,-330.75 1111.83,-326.33 1111.17,-333.29"/>
</a>
</g>
</g>
<!-- Node6&#45;&gt;Node7 -->
<g id="edge6_Node000006_Node000007" class="edge">
<title>Node6&#45;&gt;Node7</title>
<g id="a_edge6_Node000006_Node000007"><a xlink:title=" ">
<path fill="none" stroke="#63b8ff" d="M1067.33,-366.16C1081.82,-370.29 1098.55,-375.07 1113.93,-379.45"/>
<polygon fill="#63b8ff" stroke="#63b8ff" points="1112.8,-382.77 1123.37,-382.15 1114.72,-376.04 1112.8,-382.77"/>
</a>
</g>
</g>
<!-- Node6&#45;&gt;Node8 -->
<g id="edge7_Node000006_Node000008" class="edge">
<title>Node6&#45;&gt;Node8</title>
<g id="a_edge7_Node000006_Node000008"><a xlink:title=" ">
<path fill="none" stroke="#63b8ff" d="M1073.5,-349.1C1085.69,-347.36 1099.02,-345.46 1111.58,-343.67"/>
<polygon fill="#63b8ff" stroke="#63b8ff" points="1111.94,-347.16 1121.34,-342.28 1110.95,-340.23 1111.94,-347.16"/>
</a>
</g>
</g>
<!-- Node10 -->
<g id="Node000010" class="node">
<title>Node10</title>
<g id="a_Node000010"><a xlink:href="../../dc/d5d/a00278.html#aa0145c044cfdde3a1c83323410a59f25" target="_top" xlink:title="safer alternative to strncat">
<polygon fill="white" stroke="#666666" points="946.62,-136.75 881.12,-136.75 881.12,-116 946.62,-116 946.62,-136.75"/>
<text xml:space="preserve" text-anchor="middle" x="913.88" y="-123.25" font-family="Helvetica,sans-Serif" font-size="10.00">strnz__cat</text>
</a>
</g>
</g>
<!-- Node9&#45;&gt;Node10 -->
<g id="edge11_Node000009_Node000010" class="edge">
<title>Node9&#45;&gt;Node10</title>
<g id="a_edge11_Node000009_Node000010"><a xlink:title=" ">
<path fill="none" stroke="#63b8ff" d="M844.29,-126.38C852.58,-126.38 861.19,-126.38 869.41,-126.38"/>
<polygon fill="#63b8ff" stroke="#63b8ff" points="869.17,-129.88 879.17,-126.38 869.17,-122.88 869.17,-129.88"/>
</a>
</g>
</g>
<!-- Node12&#45;&gt;Node5 -->
<g id="edge14_Node000012_Node000005" class="edge">
<title>Node12&#45;&gt;Node5</title>
<g id="a_edge14_Node000012_Node000005"><a xlink:title=" ">
<path fill="none" stroke="#63b8ff" d="M834.92,-386.31C849.24,-383.94 865.55,-381.23 879.54,-378.91"/>
<polygon fill="#63b8ff" stroke="#63b8ff" points="879.86,-382.4 889.16,-377.31 878.72,-375.5 879.86,-382.4"/>
</a>
</g>
</g>
<!-- Node13&#45;&gt;Node14 -->
<g id="edge16_Node000013_Node000014" class="edge">
<title>Node13&#45;&gt;Node14</title>
<g id="a_edge16_Node000013_Node000014"><a xlink:title=" ">
<path fill="none" stroke="#63b8ff" d="M843.63,-240.38C853.21,-240.38 863.26,-240.38 872.64,-240.38"/>
<polygon fill="#63b8ff" stroke="#63b8ff" points="872.57,-243.88 882.57,-240.38 872.57,-236.88 872.57,-243.88"/>
</a>
</g>
</g>
<!-- Node17&#45;&gt;Node15 -->
<g id="edge22_Node000017_Node000015" class="edge">
<title>Node17&#45;&gt;Node15</title>
<g id="a_edge22_Node000017_Node000015"><a xlink:title=" ">
<path fill="none" stroke="#63b8ff" d="M823.77,-649.52C830.73,-645.9 837.99,-641.47 844,-636.38 868.08,-615.95 888.87,-585.69 901.13,-565.76"/>
<polygon fill="#63b8ff" stroke="#63b8ff" points="903.99,-567.8 906.11,-557.42 897.98,-564.21 903.99,-567.8"/>
</a>
</g>
</g>
<!-- Node18 -->
<g id="Node000018" class="node">
<title>Node18</title>
<g id="a_Node000018"><a xlink:href="../../df/d95/a00299.html#ac9adcf7339be4a05ab1a7350c236b8a5" target="_top" xlink:title="Draw a box around the specified window.">
<polygon fill="white" stroke="#666666" points="933.5,-670.75 894.25,-670.75 894.25,-650 933.5,-650 933.5,-670.75"/>
<text xml:space="preserve" text-anchor="middle" x="913.88" y="-657.25" font-family="Helvetica,sans-Serif" font-size="10.00">cbox</text>
</a>
</g>
</g>
<!-- Node17&#45;&gt;Node18 -->
<g id="edge21_Node000017_Node000018" class="edge">
<title>Node17&#45;&gt;Node18</title>
<g id="a_edge21_Node000017_Node000018"><a xlink:title=" ">
<path fill="none" stroke="#63b8ff" d="M826.97,-660.38C843.9,-660.38 865.32,-660.38 882.54,-660.38"/>
<polygon fill="#63b8ff" stroke="#63b8ff" points="882.44,-663.88 892.44,-660.38 882.44,-656.88 882.44,-663.88"/>
</a>
</g>
</g>
<!-- Node20 -->
<g id="Node000020" class="node">
<title>Node20</title>
<g id="a_Node000020"><a xlink:href="../../df/d95/a00299.html#a67659f8a701b74f4dec0d36227a10d1c" target="_top" xlink:title="Display an error message window or print to stderr.">
<polygon fill="white" stroke="#666666" points="708.38,-364.75 628.62,-364.75 628.62,-344 708.38,-344 708.38,-364.75"/>
<text xml:space="preserve" text-anchor="middle" x="668.5" y="-351.25" font-family="Helvetica,sans-Serif" font-size="10.00">display_error</text>
</a>
</g>
</g>
<!-- Node19&#45;&gt;Node20 -->
<g id="edge24_Node000019_Node000020" class="edge">
<title>Node19&#45;&gt;Node20</title>
<g id="a_edge24_Node000019_Node000020"><a xlink:title=" ">
<path fill="none" stroke="#63b8ff" d="M548.46,-382.55C566.63,-375.87 593.67,-367.83 617.39,-361.83"/>
<polygon fill="#63b8ff" stroke="#63b8ff" points="618.01,-365.28 626.89,-359.51 616.34,-358.49 618.01,-365.28"/>
</a>
</g>
</g>
<!-- Node22 -->
<g id="Node000022" class="node">
<title>Node22</title>
<g id="a_Node000022"><a xlink:href="../../df/d95/a00299.html#a4298f891699300bfc4e6e56fd2a8d574" target="_top" xlink:title="Get keycode from chyron.">
<polygon fill="white" stroke="#666666" points="714.75,-403.75 622.25,-403.75 622.25,-383 714.75,-383 714.75,-403.75"/>
<text xml:space="preserve" text-anchor="middle" x="668.5" y="-390.25" font-family="Helvetica,sans-Serif" font-size="10.00">get_chyron_key</text>
</a>
</g>
</g>
<!-- Node19&#45;&gt;Node22 -->
<g id="edge36_Node000019_Node000022" class="edge">
<title>Node19&#45;&gt;Node22</title>
<g id="a_edge36_Node000019_Node000022"><a xlink:title=" ">
<path fill="none" stroke="#63b8ff" d="M555.49,-393.38C571.3,-393.38 591.63,-393.38 610.62,-393.38"/>
<polygon fill="#63b8ff" stroke="#63b8ff" points="610.4,-396.88 620.4,-393.38 610.4,-389.88 610.4,-396.88"/>
</a>
</g>
</g>
<!-- Node23 -->
<g id="Node000023" class="node">
<title>Node23</title>
<g id="a_Node000023"><a xlink:href="../../d1/da8/a00230.html#a79c3e22498eb2346543aa9c86fd22e58" target="_top" xlink:title="Handle received signals and prompt user for action.">
<polygon fill="white" stroke="#666666" points="839.12,-441.75 755.62,-441.75 755.62,-421 839.12,-421 839.12,-441.75"/>
<text xml:space="preserve" text-anchor="middle" x="797.38" y="-428.25" font-family="Helvetica,sans-Serif" font-size="10.00">handle_signal</text>
</a>
</g>
</g>
<!-- Node19&#45;&gt;Node23 -->
<g id="edge37_Node000019_Node000023" class="edge">
<title>Node19&#45;&gt;Node23</title>
<g id="a_edge37_Node000019_Node000023"><a xlink:title=" ">
<path fill="none" stroke="#63b8ff" d="M555.58,-399.69C574.37,-403.75 599.7,-408.89 622.25,-412.38 663.02,-418.67 709.48,-423.63 744.15,-426.9"/>
<polygon fill="#63b8ff" stroke="#63b8ff" points="743.64,-430.37 753.92,-427.81 744.29,-423.4 743.64,-430.37"/>
</a>
</g>
</g>
<!-- Node20&#45;&gt;Node5 -->
<g id="edge25_Node000020_Node000005" class="edge">
<title>Node20&#45;&gt;Node5</title>
<g id="a_edge25_Node000020_Node000005"><a xlink:title=" ">
<path fill="none" stroke="#63b8ff" d="M708.87,-357.45C756.19,-361.14 834.78,-367.28 879.34,-370.76"/>
<polygon fill="#63b8ff" stroke="#63b8ff" points="878.93,-374.24 889.18,-371.52 879.48,-367.26 878.93,-374.24"/>
</a>
</g>
</g>
<!-- Node20&#45;&gt;Node9 -->
<g id="edge26_Node000020_Node000009" class="edge">
<title>Node20&#45;&gt;Node9</title>
<g id="a_edge26_Node000020_Node000009"><a xlink:title=" ">
<path fill="none" stroke="#63b8ff" d="M675.45,-343.68C695.18,-308.23 758.68,-194.11 784.9,-147"/>
<polygon fill="#63b8ff" stroke="#63b8ff" points="787.9,-148.81 789.7,-138.37 781.78,-145.4 787.9,-148.81"/>
</a>
</g>
</g>
<!-- Node20&#45;&gt;Node11 -->
<g id="edge27_Node000020_Node000011" class="edge">
<title>Node20&#45;&gt;Node11</title>
<g id="a_edge27_Node000020_Node000011"><a xlink:title=" ">
<path fill="none" stroke="#63b8ff" d="M703.57,-365.15C707.78,-367.64 711.68,-370.68 714.75,-374.38 759.13,-427.76 706.29,-473.06 750.75,-526.38 751.43,-527.19 752.15,-527.97 752.9,-528.72"/>
<polygon fill="#63b8ff" stroke="#63b8ff" points="750.73,-531.47 760.82,-534.72 754.96,-525.89 750.73,-531.47"/>
</a>
</g>
</g>
<!-- Node20&#45;&gt;Node12 -->
<g id="edge28_Node000020_Node000012" class="edge">
<title>Node20&#45;&gt;Node12</title>
<g id="a_edge28_Node000020_Node000012"><a xlink:title=" ">
<path fill="none" stroke="#63b8ff" d="M705.52,-365.16C719.18,-369.25 734.94,-373.97 749.46,-378.32"/>
<polygon fill="#63b8ff" stroke="#63b8ff" points="748.23,-381.61 758.82,-381.13 750.24,-374.9 748.23,-381.61"/>
</a>
</g>
</g>
<!-- Node20&#45;&gt;Node13 -->
<g id="edge29_Node000020_Node000013" class="edge">
<title>Node20&#45;&gt;Node13</title>
<g id="a_edge29_Node000020_Node000013"><a xlink:title=" ">
<path fill="none" stroke="#63b8ff" d="M677.25,-343.55C690.64,-325.41 719.66,-288.52 750.75,-264.38 754.31,-261.61 758.23,-259.01 762.23,-256.61"/>
<polygon fill="#63b8ff" stroke="#63b8ff" points="763.82,-259.73 770.87,-251.82 760.43,-253.61 763.82,-259.73"/>
</a>
</g>
</g>
<!-- Node20&#45;&gt;Node14 -->
<g id="edge30_Node000020_Node000014" class="edge">
<title>Node20&#45;&gt;Node14</title>
<g id="a_edge30_Node000020_Node000014"><a xlink:title=" ">
<path fill="none" stroke="#63b8ff" d="M682.3,-343.71C697.74,-331.27 724.85,-310.69 750.75,-297.38 790.68,-276.84 839.69,-260.75 873.3,-250.98"/>
<polygon fill="#63b8ff" stroke="#63b8ff" points="873.97,-254.43 882.62,-248.32 872.05,-247.7 873.97,-254.43"/>
</a>
</g>
</g>
<!-- Node20&#45;&gt;Node15 -->
<g id="edge32_Node000020_Node000015" class="edge">
<title>Node20&#45;&gt;Node15</title>
<g id="a_edge32_Node000020_Node000015"><a xlink:title=" ">
<path fill="none" stroke="#63b8ff" d="M701.5,-365.02C706.31,-367.57 710.94,-370.66 714.75,-374.38 741.52,-400.46 723.6,-424.69 750.75,-450.38 783.26,-481.13 805.59,-465.4 844,-488.38 862.18,-499.25 880.56,-514.74 893.75,-526.82"/>
<polygon fill="#63b8ff" stroke="#63b8ff" points="891.19,-529.22 900.88,-533.51 895.98,-524.12 891.19,-529.22"/>
</a>
</g>
</g>
<!-- Node20&#45;&gt;Node16 -->
<g id="edge33_Node000020_Node000016" class="edge">
<title>Node20&#45;&gt;Node16</title>
<g id="a_edge33_Node000020_Node000016"><a xlink:title=" ">
<path fill="none" stroke="#63b8ff" d="M702.83,-365.14C707.25,-367.64 711.4,-370.69 714.75,-374.38 749.03,-412.16 717.78,-444.45 750.75,-483.38 753.52,-486.64 756.84,-489.52 760.42,-492.05"/>
<polygon fill="#63b8ff" stroke="#63b8ff" points="758.59,-495.04 768.97,-497.16 762.18,-489.03 758.59,-495.04"/>
</a>
</g>
</g>
<!-- Node20&#45;&gt;Node17 -->
<g id="edge34_Node000020_Node000017" class="edge">
<title>Node20&#45;&gt;Node17</title>
<g id="a_edge34_Node000020_Node000017"><a xlink:title=" ">
<path fill="none" stroke="#63b8ff" d="M703.73,-365.02C707.92,-367.53 711.76,-370.61 714.75,-374.38 768.42,-442.06 723.82,-483.3 750.75,-565.38 759.52,-592.12 774.22,-621.02 784.56,-639.83"/>
<polygon fill="#63b8ff" stroke="#63b8ff" points="781.38,-641.32 789.33,-648.33 787.49,-637.89 781.38,-641.32"/>
</a>
</g>
</g>
<!-- Node20&#45;&gt;Node19 -->
<g id="edge35_Node000020_Node000019" class="edge">
<title>Node20&#45;&gt;Node19</title>
<g id="a_edge35_Node000020_Node000019"><a xlink:title=" ">
<path fill="none" stroke="#63b8ff" d="M646.4,-365.25C625.29,-373 592.32,-382.56 566.45,-388.65"/>
<polygon fill="#63b8ff" stroke="#63b8ff" points="565.96,-385.17 556.97,-390.77 567.5,-392 565.96,-385.17"/>
</a>
</g>
</g>
<!-- Node21 -->
<g id="Node000021" class="node">
<title>Node21</title>
<g id="a_Node000021"><a xlink:href="../../dc/d5d/a00278.html#a636608f26d1193b5d860f2312cd8ee49" target="_top" xlink:title="terminates string at New Line, Carriage Return, or max_len">
<polygon fill="white" stroke="#666666" points="817.38,-326.75 777.38,-326.75 777.38,-306 817.38,-306 817.38,-326.75"/>
<text xml:space="preserve" text-anchor="middle" x="797.38" y="-313.25" font-family="Helvetica,sans-Serif" font-size="10.00">strnz</text>
</a>
</g>
</g>
<!-- Node20&#45;&gt;Node21 -->
<g id="edge31_Node000020_Node000021" class="edge">
<title>Node20&#45;&gt;Node21</title>
<g id="a_edge31_Node000020_Node000021"><a xlink:title=" ">
<path fill="none" stroke="#63b8ff" d="M705.52,-343.59C724.72,-337.84 748.07,-330.84 766.29,-325.38"/>
<polygon fill="#63b8ff" stroke="#63b8ff" points="767.14,-328.79 775.71,-322.56 765.13,-322.08 767.14,-328.79"/>
</a>
</g>
</g>
<!-- Node23&#45;&gt;Node7 -->
<g id="edge38_Node000023_Node000007" class="edge">
<title>Node23&#45;&gt;Node7</title>
<g id="a_edge38_Node000023_Node000007"><a xlink:title=" ">
<path fill="none" stroke="#63b8ff" d="M839.47,-427.09C902.31,-420.54 1022.87,-407.96 1097.69,-400.16"/>
<polygon fill="#63b8ff" stroke="#63b8ff" points="1097.75,-403.67 1107.33,-399.15 1097.02,-396.71 1097.75,-403.67"/>
</a>
</g>
</g>
<!-- Node23&#45;&gt;Node14 -->
<g id="edge39_Node000023_Node000014" class="edge">
<title>Node23&#45;&gt;Node14</title>
<g id="a_edge39_Node000023_Node000014"><a xlink:title=" ">
<path fill="none" stroke="#63b8ff" d="M831.3,-420.71C835.96,-418.18 840.39,-415.1 844,-411.38 865.56,-389.16 893.86,-302.87 906.41,-262.03"/>
<polygon fill="#63b8ff" stroke="#63b8ff" points="909.72,-263.19 909.27,-252.61 903.02,-261.16 909.72,-263.19"/>
</a>
</g>
</g>
<!-- Node23&#45;&gt;Node15 -->
<g id="edge40_Node000023_Node000015" class="edge">
<title>Node23&#45;&gt;Node15</title>
<g id="a_edge40_Node000023_Node000015"><a xlink:title=" ">
<path fill="none" stroke="#63b8ff" d="M823.28,-442.01C830.38,-445.67 837.84,-450.18 844,-455.38 867.85,-475.5 888.59,-505.24 900.91,-524.95"/>
<polygon fill="#63b8ff" stroke="#63b8ff" points="897.89,-526.72 906.08,-533.45 903.88,-523.09 897.89,-526.72"/>
</a>
</g>
</g>
<!-- Node25 -->
<g id="Node000025" class="node">
<title>Node25</title>
<g id="a_Node000025"><a xlink:href="../../dd/d52/a00221.html#a9fc984ba8ce6c4059b33a915d526357f" target="_top" xlink:title="Parse ANSI SGR Escape Sequence.">
<polygon fill="white" stroke="#666666" points="430.75,-98.75 344.25,-98.75 344.25,-78 430.75,-78 430.75,-98.75"/>
<text xml:space="preserve" text-anchor="middle" x="387.5" y="-85.25" font-family="Helvetica,sans-Serif" font-size="10.00">parse_ansi_str</text>
</a>
</g>
</g>
<!-- Node24&#45;&gt;Node25 -->
<g id="edge42_Node000024_Node000025" class="edge">
<title>Node24&#45;&gt;Node25</title>
<g id="a_edge42_Node000024_Node000025"><a xlink:title=" ">
<path fill="none" stroke="#63b8ff" d="M293.76,-192.63C298.8,-189.96 303.88,-186.86 308.25,-183.38 335.41,-161.73 359.63,-129.28 373.69,-108.46"/>
<polygon fill="#63b8ff" stroke="#63b8ff" points="376.5,-110.56 379.08,-100.28 370.65,-106.71 376.5,-110.56"/>
</a>
</g>
</g>
<!-- Node31 -->
<g id="Node000031" class="node">
<title>Node31</title>
<g id="a_Node000031"><a xlink:href="../../dc/d5d/a00278.html#a4f42956462e811d96c9fb881a85dada4" target="_top" xlink:title="Trims trailing spaces from string s in place.">
<polygon fill="white" stroke="#666666" points="407.5,-213.75 367.5,-213.75 367.5,-193 407.5,-193 407.5,-213.75"/>
<text xml:space="preserve" text-anchor="middle" x="387.5" y="-200.25" font-family="Helvetica,sans-Serif" font-size="10.00">rtrim</text>
</a>
</g>
</g>
<!-- Node24&#45;&gt;Node31 -->
<g id="edge50_Node000024_Node000031" class="edge">
<title>Node24&#45;&gt;Node31</title>
<g id="a_edge50_Node000024_Node000031"><a xlink:title=" ">
<path fill="none" stroke="#63b8ff" d="M295.97,-203.38C313.89,-203.38 337.23,-203.38 355.73,-203.38"/>
<polygon fill="#63b8ff" stroke="#63b8ff" points="355.56,-206.88 365.56,-203.38 355.56,-199.88 355.56,-206.88"/>
</a>
</g>
</g>
<!-- Node26 -->
<g id="Node000026" class="node">
<title>Node26</title>
<g id="a_Node000026"><a xlink:href="../../dc/d5d/a00278.html#ab96e4c73a7b3ba1310044b479733cdd9" target="_top" xlink:title="a safer alternative to atoi() for converting ASCII strings to integers.">
<polygon fill="white" stroke="#666666" points="546.5,-98.75 506.5,-98.75 506.5,-78 546.5,-78 546.5,-98.75"/>
<text xml:space="preserve" text-anchor="middle" x="526.5" y="-85.25" font-family="Helvetica,sans-Serif" font-size="10.00">a_toi</text>
</a>
</g>
</g>
<!-- Node25&#45;&gt;Node26 -->
<g id="edge43_Node000025_Node000026" class="edge">
<title>Node25&#45;&gt;Node26</title>
<g id="a_edge43_Node000025_Node000026"><a xlink:title=" ">
<path fill="none" stroke="#63b8ff" d="M431.1,-88.38C451.72,-88.38 476.01,-88.38 494.78,-88.38"/>
<polygon fill="#63b8ff" stroke="#63b8ff" points="494.72,-91.88 504.72,-88.38 494.72,-84.88 494.72,-91.88"/>
</a>
</g>
</g>
<!-- Node27 -->
<g id="Node000027" class="node">
<title>Node27</title>
<g id="a_Node000027"><a xlink:href="../../df/d95/a00299.html#af0ba4efbc81c259a2519ca41dd9d1599" target="_top" xlink:title="Get color pair index for foreground and background colors.">
<polygon fill="white" stroke="#666666" points="563,-174.75 490,-174.75 490,-154 563,-154 563,-174.75"/>
<text xml:space="preserve" text-anchor="middle" x="526.5" y="-161.25" font-family="Helvetica,sans-Serif" font-size="10.00">get_clr_pair</text>
</a>
</g>
</g>
<!-- Node25&#45;&gt;Node27 -->
<g id="edge44_Node000025_Node000027" class="edge">
<title>Node25&#45;&gt;Node27</title>
<g id="a_edge44_Node000025_Node000027"><a xlink:title=" ">
<path fill="none" stroke="#63b8ff" d="M407.84,-99.1C430.89,-111.89 469.64,-133.39 496.33,-148.19"/>
<polygon fill="#63b8ff" stroke="#63b8ff" points="494.49,-151.18 504.94,-152.97 497.89,-145.06 494.49,-151.18"/>
</a>
</g>
</g>
<!-- Node28 -->
<g id="Node000028" class="node">
<title>Node28</title>
<g id="a_Node000028"><a xlink:href="../../df/d95/a00299.html#a4900dd34e828972e58b0ca549cf7d4d8" target="_top" xlink:title="Get color index for RGB color.">
<polygon fill="white" stroke="#666666" points="576.88,-59.75 476.12,-59.75 476.12,-39 576.88,-39 576.88,-59.75"/>
<text xml:space="preserve" text-anchor="middle" x="526.5" y="-46.25" font-family="Helvetica,sans-Serif" font-size="10.00">rgb_to_curses_clr</text>
</a>
</g>
</g>
<!-- Node25&#45;&gt;Node28 -->
<g id="edge47_Node000025_Node000028" class="edge">
<title>Node25&#45;&gt;Node28</title>
<g id="a_edge47_Node000025_Node000028"><a xlink:title=" ">
<path fill="none" stroke="#63b8ff" d="M426.66,-77.51C442.1,-73.12 460.12,-67.99 476.51,-63.32"/>
<polygon fill="#63b8ff" stroke="#63b8ff" points="477.43,-66.7 486.09,-60.59 475.51,-59.97 477.43,-66.7"/>
</a>
</g>
</g>
<!-- Node30 -->
<g id="Node000030" class="node">
<title>Node30</title>
<g id="a_Node000030"><a xlink:href="../../df/d95/a00299.html#a31ee0d93c7b527f92559fc410152f768" target="_top" xlink:title="Convert XTerm 256 color index to RGB color.">
<polygon fill="white" stroke="#666666" points="586.25,-20.75 466.75,-20.75 466.75,0 586.25,0 586.25,-20.75"/>
<text xml:space="preserve" text-anchor="middle" x="526.5" y="-7.25" font-family="Helvetica,sans-Serif" font-size="10.00">xterm256_idx_to_rgb</text>
</a>
</g>
</g>
<!-- Node25&#45;&gt;Node30 -->
<g id="edge49_Node000025_Node000030" class="edge">
<title>Node25&#45;&gt;Node30</title>
<g id="a_edge49_Node000025_Node000030"><a xlink:title=" ">
<path fill="none" stroke="#63b8ff" d="M400.44,-77.66C415.14,-64.92 441.29,-43.73 466.75,-30.38 470.19,-28.57 473.83,-26.87 477.55,-25.3"/>
<polygon fill="#63b8ff" stroke="#63b8ff" points="478.66,-28.62 486.69,-21.71 476.11,-22.1 478.66,-28.62"/>
</a>
</g>
</g>
<!-- Node27&#45;&gt;Node14 -->
<g id="edge46_Node000027_Node000014" class="edge">
<title>Node27&#45;&gt;Node14</title>
<g id="a_edge46_Node000027_Node000014"><a xlink:title=" ">
<path fill="none" stroke="#63b8ff" d="M563.07,-160.73C623.16,-155.94 747.6,-151.96 844,-188.38 863.36,-195.69 881.88,-210.25 894.83,-222.11"/>
<polygon fill="#63b8ff" stroke="#63b8ff" points="892.1,-224.34 901.75,-228.71 896.94,-219.28 892.1,-224.34"/>
</a>
</g>
</g>
<!-- Node27&#45;&gt;Node20 -->
<g id="edge45_Node000027_Node000020" class="edge">
<title>Node27&#45;&gt;Node20</title>
<g id="a_edge45_Node000027_Node000020"><a xlink:title=" ">
<path fill="none" stroke="#63b8ff" d="M535.43,-175.13C558.1,-205.9 623.44,-294.58 652.85,-334.49"/>
<polygon fill="#63b8ff" stroke="#63b8ff" points="650.01,-336.54 658.76,-342.51 655.65,-332.39 650.01,-336.54"/>
</a>
</g>
</g>
<!-- Node29 -->
<g id="Node000029" class="node">
<title>Node29</title>
<g id="a_Node000029"><a xlink:href="../../df/d95/a00299.html#aa3a6b291c0820d9da545325a2dba5274" target="_top" xlink:title="Apply gamma correction to RGB color.">
<polygon fill="white" stroke="#666666" points="711.38,-59.75 625.62,-59.75 625.62,-39 711.38,-39 711.38,-59.75"/>
<text xml:space="preserve" text-anchor="middle" x="668.5" y="-46.25" font-family="Helvetica,sans-Serif" font-size="10.00">apply_gamma</text>
</a>
</g>
</g>
<!-- Node28&#45;&gt;Node29 -->
<g id="edge48_Node000028_Node000029" class="edge">
<title>Node28&#45;&gt;Node29</title>
<g id="a_edge48_Node000028_Node000029"><a xlink:title=" ">
<path fill="none" stroke="#63b8ff" d="M577.25,-49.38C589.16,-49.38 601.93,-49.38 614.01,-49.38"/>
<polygon fill="#63b8ff" stroke="#63b8ff" points="613.8,-52.88 623.8,-49.38 613.8,-45.88 613.8,-52.88"/>
</a>
</g>
</g>
</g>
</svg>

<g id="navigator" transform="translate(0 0)" fill="#404254">
  <rect fill="#f2f5e9" fill-opacity="0.5" stroke="#606060" stroke-width=".5" x="0" y="0" width="60" height="60"/>
  <use id="zoomplus" xlink:href="#zoomPlus" x="17" y="9" onmousedown="handleZoom(evt,'in')"/>
  <use id="zoomminus" xlink:href="#zoomMin" x="42" y="9" onmousedown="handleZoom(evt,'out')"/>
  <use id="reset" xlink:href="#resetDef" x="30" y="36" onmousedown="handleReset()"/>
   <use id="arrowup" xlink:href="#arrowUp" x="0" y="0" onmousedown="handlePan(0,-1)"/>
  <use id="arrowright" xlink:href="#arrowRight" x="0" y="0" onmousedown="handlePan(1,0)"/>
  <use id="arrowdown" xlink:href="#arrowDown" x="0" y="0" onmousedown="handlePan(0,1)"/>
  <use id="arrowleft" xlink:href="#arrowLeft" x="0" y="0" onmousedown="handlePan(-1,0)"/>
</g>
<svg viewBox="0 0 15 15" width="100%" height="30px" preserveAspectRatio="xMaxYMin meet">
 <g id="arrow_out" transform="scale(0.3 0.3)">
  <a xlink:href="a00221_a5f74dca8730faaa3ff362fc1e01b12ce_cgraph_org.svg" target="_base">
   <rect id="button" ry="5" rx="5" y="6" x="6" height="38" width="38"
        fill="#f2f5e9" fill-opacity="0.5" stroke="#606060" stroke-width="1.0"/>
   <path id="arrow"
     d="M 11.500037,31.436501 C 11.940474,20.09759 22.043105,11.32322 32.158766,21.979434 L 37.068811,17.246167 C 37.068811,17.246167 37.088388,32 37.088388,32 L 22.160133,31.978069 C 22.160133,31.978069 26.997745,27.140456 26.997745,27.140456 C 18.528582,18.264221 13.291696,25.230495 11.500037,31.436501 z"
     style="fill:#404040;"/>
  </a>
 </g>
</svg>

<style type='text/css'>
<![CDATA[
[data-mouse-over-selected='false'] { opacity: 0.7; }
[data-mouse-over-selected='true']  { opacity: 1.0; }
]]>
</style>
<script type="application/ecmascript"><![CDATA[
document.addEventListener('DOMContentLoaded', (event) => {
  highlightEdges();
  highlightAdjacentNodes();
});
]]></script>
</svg>
