<?xml version="1.0" encoding="UTF-8" standalone="no"?>
<!DOCTYPE svg PUBLIC "-//W3C//DTD SVG 1.1//EN"
 "http://www.w3.org/Graphics/SVG/1.1/DTD/svg11.dtd">
<!-- Generated by graphviz version 14.1.2 (0)
 -->
<!-- Title: open_curses Pages: 1 -->
<svg width="866pt" height="680pt"
 viewBox="0.00 0.00 866.00 680.00" xmlns="http://www.w3.org/2000/svg" xmlns:xlink="http://www.w3.org/1999/xlink">
<g id="graph0" class="graph" transform="scale(1 1) rotate(0) translate(4 676.46)">
<title>open_curses</title>
<!-- Node1 -->
<g id="Node000001" class="node">
<title>Node1</title>
<g id="a_Node000001"><a xlink:title="Initialize NCurses and color settings.">
<polygon fill="#999999" stroke="#666666" points="76.75,-135.75 0,-135.75 0,-115 76.75,-115 76.75,-135.75"/>
<text xml:space="preserve" text-anchor="middle" x="38.38" y="-122.25" font-family="Helvetica,sans-Serif" font-size="10.00">open_curses</text>
</a>
</g>
</g>
<!-- Node2 -->
<g id="Node000002" class="node">
<title>Node2</title>
<g id="a_Node000002"><a xlink:href="../../dc/d40/dwin_8c.html#a8f6c45ca4a7f6a41c4c88314e697565a" target="_top" xlink:title="Abnormal program termination.">
<polygon fill="white" stroke="#666666" points="563.75,-230.75 517.75,-230.75 517.75,-210 563.75,-210 563.75,-230.75"/>
<text xml:space="preserve" text-anchor="middle" x="540.75" y="-217.25" font-family="Helvetica,sans-Serif" font-size="10.00">abend</text>
</a>
</g>
</g>
<!-- Node1&#45;&gt;Node2 -->
<g id="edge1_Node000001_Node000002" class="edge">
<title>Node1&#45;&gt;Node2</title>
<g id="a_edge1_Node000001_Node000002"><a xlink:title=" ">
<path fill="none" stroke="#63b8ff" d="M77.07,-123.79C166.74,-120.54 390.37,-115.68 458.5,-144.38 486.56,-156.2 510.88,-182.28 525.42,-200.58"/>
<polygon fill="#63b8ff" stroke="#63b8ff" points="522.51,-202.54 531.36,-208.36 528.07,-198.29 522.51,-202.54"/>
</a>
</g>
</g>
<!-- Node3 -->
<g id="Node000003" class="node">
<title>Node3</title>
<g id="a_Node000003"><a xlink:href="../../dc/d40/dwin_8c.html#afc0985a403e3eac0b2cd8f0fab500256" target="_top" xlink:title="Gracefully shut down NCurses and restore terminal settings.">
<polygon fill="white" stroke="#666666" points="712.5,-287.75 623,-287.75 623,-267 712.5,-267 712.5,-287.75"/>
<text xml:space="preserve" text-anchor="middle" x="667.75" y="-274.25" font-family="Helvetica,sans-Serif" font-size="10.00">destroy_curses</text>
</a>
</g>
</g>
<!-- Node1&#45;&gt;Node3 -->
<g id="edge7_Node000001_Node000003" class="edge">
<title>Node1&#45;&gt;Node3</title>
<g id="a_edge7_Node000001_Node000003"><a xlink:title=" ">
<path fill="none" stroke="#63b8ff" d="M39.2,-136.24C38.34,-204.15 37.32,-569.81 112.75,-643.38 165.16,-694.49 203.16,-662.38 276.38,-662.38 276.38,-662.38 276.38,-662.38 406.88,-662.38 497.38,-662.38 530.31,-637.93 587,-567.38 653.17,-485.03 664.56,-351.71 666.43,-299.42"/>
<polygon fill="#63b8ff" stroke="#63b8ff" points="669.92,-299.81 666.68,-289.72 662.92,-299.63 669.92,-299.81"/>
</a>
</g>
</g>
<!-- Node6 -->
<g id="Node000006" class="node">
<title>Node6</title>
<g id="a_Node000006"><a xlink:href="../../dc/d40/dwin_8c.html#af0ba4efbc81c259a2519ca41dd9d1599" target="_top" xlink:title="Get color pair index for foreground and background colors.">
<polygon fill="white" stroke="#666666" points="193.62,-634.75 120.62,-634.75 120.62,-614 193.62,-614 193.62,-634.75"/>
<text xml:space="preserve" text-anchor="middle" x="157.12" y="-621.25" font-family="Helvetica,sans-Serif" font-size="10.00">get_clr_pair</text>
</a>
</g>
</g>
<!-- Node1&#45;&gt;Node6 -->
<g id="edge8_Node000001_Node000006" class="edge">
<title>Node1&#45;&gt;Node6</title>
<g id="a_edge8_Node000001_Node000006"><a xlink:title=" ">
<path fill="none" stroke="#63b8ff" d="M39.78,-136.23C42.3,-199.58 57.71,-521.51 112.75,-600.38 114.43,-602.78 116.43,-604.98 118.64,-606.97"/>
<polygon fill="#63b8ff" stroke="#63b8ff" points="116.56,-609.78 126.72,-612.8 120.66,-604.11 116.56,-609.78"/>
</a>
</g>
</g>
<!-- Node9 -->
<g id="Node000009" class="node">
<title>Node9</title>
<g id="a_Node000009"><a xlink:href="../../d0/d59/futil_8c.html#aa0145c044cfdde3a1c83323410a59f25" target="_top" xlink:title="safer alternative to strncat">
<polygon fill="white" stroke="#666666" points="573.5,-154.75 508,-154.75 508,-134 573.5,-134 573.5,-154.75"/>
<text xml:space="preserve" text-anchor="middle" x="540.75" y="-141.25" font-family="Helvetica,sans-Serif" font-size="10.00">strnz__cat</text>
</a>
</g>
</g>
<!-- Node1&#45;&gt;Node9 -->
<g id="edge35_Node000001_Node000009" class="edge">
<title>Node1&#45;&gt;Node9</title>
<g id="a_edge35_Node000001_Node000009"><a xlink:title=" ">
<path fill="none" stroke="#63b8ff" d="M76.88,-116.81C88.33,-114.58 101,-112.49 112.75,-111.38 265.73,-96.91 307.68,-81.92 458.5,-111.38 475.93,-114.78 494.36,-121.94 509.24,-128.72"/>
<polygon fill="#63b8ff" stroke="#63b8ff" points="507.49,-131.76 518.02,-132.88 510.49,-125.43 507.49,-131.76"/>
</a>
</g>
</g>
<!-- Node15 -->
<g id="Node000015" class="node">
<title>Node15</title>
<g id="a_Node000015"><a xlink:href="../../d0/d59/futil_8c.html#a0de2e40df9bd7efc8fd9afb8ad2257e6" target="_top" xlink:title="safer alternative to strncpy">
<polygon fill="white" stroke="#666666" points="574.62,-405.75 506.88,-405.75 506.88,-385 574.62,-385 574.62,-405.75"/>
<text xml:space="preserve" text-anchor="middle" x="540.75" y="-392.25" font-family="Helvetica,sans-Serif" font-size="10.00">strnz__cpy</text>
</a>
</g>
</g>
<!-- Node1&#45;&gt;Node15 -->
<g id="edge36_Node000001_Node000015" class="edge">
<title>Node1&#45;&gt;Node15</title>
<g id="a_edge36_Node000001_Node000015"><a xlink:title=" ">
<path fill="none" stroke="#63b8ff" d="M43.43,-135.98C64.96,-190.54 171.76,-440.55 353.25,-529.38 395.27,-549.94 417.74,-552.33 458.5,-529.38 501.4,-505.22 524.25,-448.25 533.96,-416.93"/>
<polygon fill="#63b8ff" stroke="#63b8ff" points="537.3,-417.99 536.73,-407.41 530.58,-416.03 537.3,-417.99"/>
</a>
</g>
</g>
<!-- Node22 -->
<g id="Node000022" class="node">
<title>Node22</title>
<g id="a_Node000022"><a xlink:href="../../dc/d40/dwin_8c.html#a81bb6f1f6fcbd25e272e2ba301bec52f" target="_top" xlink:title="Initialize color palette based on SIO settings.">
<polygon fill="white" stroke="#666666" points="201.5,-59.75 112.75,-59.75 112.75,-39 201.5,-39 201.5,-59.75"/>
<text xml:space="preserve" text-anchor="middle" x="157.12" y="-46.25" font-family="Helvetica,sans-Serif" font-size="10.00">init_clr_palette</text>
</a>
</g>
</g>
<!-- Node1&#45;&gt;Node22 -->
<g id="edge30_Node000001_Node000022" class="edge">
<title>Node1&#45;&gt;Node22</title>
<g id="a_edge30_Node000001_Node000022"><a xlink:title=" ">
<path fill="none" stroke="#63b8ff" d="M53.67,-114.53C68.22,-103.66 91.6,-86.67 112.75,-73.38 116.85,-70.8 121.24,-68.2 125.6,-65.7"/>
<polygon fill="#63b8ff" stroke="#63b8ff" points="127.2,-68.82 134.23,-60.89 123.79,-62.7 127.2,-68.82"/>
</a>
</g>
</g>
<!-- Node26 -->
<g id="Node000026" class="node">
<title>Node26</title>
<g id="a_Node000026"><a xlink:href="../../dc/d40/dwin_8c.html#a08537e2322c1207f7e6ae571bac1c9fd" target="_top" xlink:title="Create a cchar_t with the specified color pair index.">
<polygon fill="white" stroke="#666666" points="180.88,-20.75 133.38,-20.75 133.38,0 180.88,0 180.88,-20.75"/>
<text xml:space="preserve" text-anchor="middle" x="157.12" y="-7.25" font-family="Helvetica,sans-Serif" font-size="10.00">mkccc</text>
</a>
</g>
</g>
<!-- Node1&#45;&gt;Node26 -->
<g id="edge34_Node000001_Node000026" class="edge">
<title>Node1&#45;&gt;Node26</title>
<g id="a_edge34_Node000001_Node000026"><a xlink:title=" ">
<path fill="none" stroke="#63b8ff" d="M45.32,-114.61C56.36,-95.42 81.78,-55.04 112.75,-30.38 115.83,-27.92 119.25,-25.7 122.79,-23.69"/>
<polygon fill="#63b8ff" stroke="#63b8ff" points="124.15,-26.92 131.52,-19.31 121.02,-20.67 124.15,-26.92"/>
</a>
</g>
</g>
<!-- Node2&#45;&gt;Node3 -->
<g id="edge2_Node000002_Node000003" class="edge">
<title>Node2&#45;&gt;Node3</title>
<g id="a_edge2_Node000002_Node000003"><a xlink:title=" ">
<path fill="none" stroke="#63b8ff" d="M564.1,-230.57C583.29,-239.32 611.24,-252.06 633.13,-262.04"/>
<polygon fill="#63b8ff" stroke="#63b8ff" points="631.4,-265.1 641.95,-266.06 634.3,-258.73 631.4,-265.1"/>
</a>
</g>
</g>
<!-- Node4 -->
<g id="Node000004" class="node">
<title>Node4</title>
<g id="a_Node000004"><a xlink:href="../../d7/d72/scriou_8c.html#ac5e3adb304b78910fc77761ef6a743f0" target="_top" xlink:title="restore_shell_tioctl() &#45; restore shell terminal settings">
<polygon fill="white" stroke="#666666" points="857.5,-229.75 748.5,-229.75 748.5,-209 857.5,-209 857.5,-229.75"/>
<text xml:space="preserve" text-anchor="middle" x="803" y="-216.25" font-family="Helvetica,sans-Serif" font-size="10.00">restore_shell_tioctl</text>
</a>
</g>
</g>
<!-- Node2&#45;&gt;Node4 -->
<g id="edge5_Node000002_Node000004" class="edge">
<title>Node2&#45;&gt;Node4</title>
<g id="a_edge5_Node000002_Node000004"><a xlink:title=" ">
<path fill="none" stroke="#63b8ff" d="M563.94,-220.29C601.77,-220.14 680.15,-219.84 736.66,-219.63"/>
<polygon fill="#63b8ff" stroke="#63b8ff" points="736.5,-223.13 746.49,-219.59 736.48,-216.13 736.5,-223.13"/>
</a>
</g>
</g>
<!-- Node5 -->
<g id="Node000005" class="node">
<title>Node5</title>
<g id="a_Node000005"><a xlink:href="../../da/d12/sig_8c.html#a06c1eb6cf3649dc187115565409f91af" target="_top" xlink:title="Set signal handlers to default behavior.">
<polygon fill="white" stroke="#666666" points="843.62,-277.75 762.38,-277.75 762.38,-257 843.62,-257 843.62,-277.75"/>
<text xml:space="preserve" text-anchor="middle" x="803" y="-264.25" font-family="Helvetica,sans-Serif" font-size="10.00">sig_dfl_mode</text>
</a>
</g>
</g>
<!-- Node2&#45;&gt;Node5 -->
<g id="edge6_Node000002_Node000005" class="edge">
<title>Node2&#45;&gt;Node5</title>
<g id="a_edge6_Node000002_Node000005"><a xlink:title=" ">
<path fill="none" stroke="#63b8ff" d="M563.94,-224.38C605.11,-231.82 694.29,-247.92 751.04,-258.17"/>
<polygon fill="#63b8ff" stroke="#63b8ff" points="750.34,-261.6 760.8,-259.93 751.58,-254.71 750.34,-261.6"/>
</a>
</g>
</g>
<!-- Node3&#45;&gt;Node4 -->
<g id="edge3_Node000003_Node000004" class="edge">
<title>Node3&#45;&gt;Node4</title>
<g id="a_edge3_Node000003_Node000004"><a xlink:title=" ">
<path fill="none" stroke="#63b8ff" d="M693.5,-266.6C714.16,-257.61 743.86,-244.68 766.96,-234.63"/>
<polygon fill="#63b8ff" stroke="#63b8ff" points="768.22,-237.9 775.99,-230.69 765.43,-231.48 768.22,-237.9"/>
</a>
</g>
</g>
<!-- Node3&#45;&gt;Node5 -->
<g id="edge4_Node000003_Node000005" class="edge">
<title>Node3&#45;&gt;Node5</title>
<g id="a_edge4_Node000003_Node000005"><a xlink:title=" ">
<path fill="none" stroke="#63b8ff" d="M712.75,-274.07C724.94,-273.16 738.27,-272.16 750.83,-271.22"/>
<polygon fill="#63b8ff" stroke="#63b8ff" points="750.87,-274.72 760.58,-270.48 750.35,-267.74 750.87,-274.72"/>
</a>
</g>
</g>
<!-- Node7 -->
<g id="Node000007" class="node">
<title>Node7</title>
<g id="a_Node000007"><a xlink:href="../../dc/d40/dwin_8c.html#a67659f8a701b74f4dec0d36227a10d1c" target="_top" xlink:title="Display an error message window or print to stderr.">
<polygon fill="white" stroke="#666666" points="317.25,-366.75 237.5,-366.75 237.5,-346 317.25,-346 317.25,-366.75"/>
<text xml:space="preserve" text-anchor="middle" x="277.38" y="-353.25" font-family="Helvetica,sans-Serif" font-size="10.00">display_error</text>
</a>
</g>
</g>
<!-- Node6&#45;&gt;Node7 -->
<g id="edge9_Node000006_Node000007" class="edge">
<title>Node6&#45;&gt;Node7</title>
<g id="a_edge9_Node000006_Node000007"><a xlink:title=" ">
<path fill="none" stroke="#63b8ff" d="M162.91,-613.54C180.7,-573.21 243.27,-431.41 267.08,-377.44"/>
<polygon fill="#63b8ff" stroke="#63b8ff" points="270.22,-379 271.05,-368.44 263.81,-376.17 270.22,-379"/>
</a>
</g>
</g>
<!-- Node13 -->
<g id="Node000013" class="node">
<title>Node13</title>
<g id="a_Node000013"><a xlink:href="../../d0/d59/futil_8c.html#a63eb94756fb011a456a3dec900709cd8" target="_top" xlink:title="ssnprintf was designed to be a safer alternative to snprintf.">
<polygon fill="white" stroke="#666666" points="570.12,-558.75 511.38,-558.75 511.38,-538 570.12,-538 570.12,-558.75"/>
<text xml:space="preserve" text-anchor="middle" x="540.75" y="-545.25" font-family="Helvetica,sans-Serif" font-size="10.00">ssnprintf</text>
</a>
</g>
</g>
<!-- Node6&#45;&gt;Node13 -->
<g id="edge29_Node000006_Node000013" class="edge">
<title>Node6&#45;&gt;Node13</title>
<g id="a_edge29_Node000006_Node000013"><a xlink:title=" ">
<path fill="none" stroke="#63b8ff" d="M193.92,-627.01C251.38,-630.03 367.02,-631.15 458.5,-600.38 480.72,-592.9 502.92,-578.06 518.49,-566.14"/>
<polygon fill="#63b8ff" stroke="#63b8ff" points="520.42,-569.08 526.08,-560.12 516.07,-563.59 520.42,-569.08"/>
</a>
</g>
</g>
<!-- Node7&#45;&gt;Node2 -->
<g id="edge10_Node000007_Node000002" class="edge">
<title>Node7&#45;&gt;Node2</title>
<g id="a_edge10_Node000007_Node000002"><a xlink:title=" ">
<path fill="none" stroke="#63b8ff" d="M280.44,-345.68C286.28,-318.79 305.68,-248.49 353.25,-220.38 400.46,-192.47 466.84,-201.49 506.36,-210.79"/>
<polygon fill="#63b8ff" stroke="#63b8ff" points="505.45,-214.17 516,-213.21 507.16,-207.38 505.45,-214.17"/>
</a>
</g>
</g>
<!-- Node8 -->
<g id="Node000008" class="node">
<title>Node8</title>
<g id="a_Node000008"><a xlink:href="../../dc/d40/dwin_8c.html#a645871e46277e31736bc36d0f3dce4bd" target="_top" xlink:title="construct the chyron string from the chyron structure">
<polygon fill="white" stroke="#666666" points="452.5,-173.75 359.25,-173.75 359.25,-153 452.5,-153 452.5,-173.75"/>
<text xml:space="preserve" text-anchor="middle" x="405.88" y="-160.25" font-family="Helvetica,sans-Serif" font-size="10.00">compile_chyron</text>
</a>
</g>
</g>
<!-- Node7&#45;&gt;Node8 -->
<g id="edge11_Node000007_Node000008" class="edge">
<title>Node7&#45;&gt;Node8</title>
<g id="a_edge11_Node000007_Node000008"><a xlink:title=" ">
<path fill="none" stroke="#63b8ff" d="M280.35,-345.8C286.28,-316.8 306.48,-235 353.25,-187.38 356,-184.58 359.14,-182.07 362.48,-179.83"/>
<polygon fill="#63b8ff" stroke="#63b8ff" points="364.03,-182.97 370.96,-174.96 360.55,-176.9 364.03,-182.97"/>
</a>
</g>
</g>
<!-- Node10 -->
<g id="Node000010" class="node">
<title>Node10</title>
<g id="a_Node000010"><a xlink:href="../../dc/d40/dwin_8c.html#a3f3feb40fd703913c5c136331f627c91" target="_top" xlink:title="Destroy Chyron structure.">
<polygon fill="white" stroke="#666666" points="451.38,-249.75 360.38,-249.75 360.38,-229 451.38,-229 451.38,-249.75"/>
<text xml:space="preserve" text-anchor="middle" x="405.88" y="-236.25" font-family="Helvetica,sans-Serif" font-size="10.00">destroy_chyron</text>
</a>
</g>
</g>
<!-- Node7&#45;&gt;Node10 -->
<g id="edge13_Node000007_Node000010" class="edge">
<title>Node7&#45;&gt;Node10</title>
<g id="a_edge13_Node000007_Node000010"><a xlink:title=" ">
<path fill="none" stroke="#63b8ff" d="M283.94,-345.8C294.77,-326.16 320.52,-283.82 353.25,-259.38 355.15,-257.96 357.15,-256.63 359.23,-255.39"/>
<polygon fill="#63b8ff" stroke="#63b8ff" points="360.74,-258.55 368.02,-250.85 357.53,-252.33 360.74,-258.55"/>
</a>
</g>
</g>
<!-- Node11 -->
<g id="Node000011" class="node">
<title>Node11</title>
<g id="a_Node000011"><a xlink:href="../../dc/d40/dwin_8c.html#ad37d5808ff30ae6894780425d865abae" target="_top" xlink:title="Create and initialize Chyron structure.">
<polygon fill="white" stroke="#666666" points="443.12,-288.75 368.62,-288.75 368.62,-268 443.12,-268 443.12,-288.75"/>
<text xml:space="preserve" text-anchor="middle" x="405.88" y="-275.25" font-family="Helvetica,sans-Serif" font-size="10.00">new_chyron</text>
</a>
</g>
</g>
<!-- Node7&#45;&gt;Node11 -->
<g id="edge14_Node000007_Node000011" class="edge">
<title>Node7&#45;&gt;Node11</title>
<g id="a_edge14_Node000007_Node000011"><a xlink:title=" ">
<path fill="none" stroke="#63b8ff" d="M289.81,-345.79C303.88,-333.19 328.91,-312.13 353.25,-298.38 356.07,-296.78 359.05,-295.26 362.09,-293.82"/>
<polygon fill="#63b8ff" stroke="#63b8ff" points="363.4,-297.06 371.15,-289.85 360.59,-290.65 363.4,-297.06"/>
</a>
</g>
</g>
<!-- Node12 -->
<g id="Node000012" class="node">
<title>Node12</title>
<g id="a_Node000012"><a xlink:href="../../dc/d40/dwin_8c.html#a208ce92c197fdd6d2b007987e534aa3b" target="_top" xlink:title="Set chyron key.">
<polygon fill="white" stroke="#666666" points="451.75,-520.75 360,-520.75 360,-500 451.75,-500 451.75,-520.75"/>
<text xml:space="preserve" text-anchor="middle" x="405.88" y="-507.25" font-family="Helvetica,sans-Serif" font-size="10.00">set_chyron_key</text>
</a>
</g>
</g>
<!-- Node7&#45;&gt;Node12 -->
<g id="edge16_Node000007_Node000012" class="edge">
<title>Node7&#45;&gt;Node12</title>
<g id="a_edge16_Node000007_Node000012"><a xlink:title=" ">
<path fill="none" stroke="#63b8ff" d="M281.54,-367.03C289.49,-392.05 312.62,-455.06 353.25,-490.38 354.7,-491.63 356.23,-492.81 357.83,-493.93"/>
<polygon fill="#63b8ff" stroke="#63b8ff" points="355.83,-496.81 366.24,-498.79 359.34,-490.76 355.83,-496.81"/>
</a>
</g>
</g>
<!-- Node7&#45;&gt;Node13 -->
<g id="edge18_Node000007_Node000013" class="edge">
<title>Node7&#45;&gt;Node13</title>
<g id="a_edge18_Node000007_Node000013"><a xlink:title=" ">
<path fill="none" stroke="#63b8ff" d="M279.39,-367.19C282.94,-398.37 297.8,-488.78 353.25,-529.38 395.68,-560.43 458.83,-559.86 499.65,-555.21"/>
<polygon fill="#63b8ff" stroke="#63b8ff" points="500.07,-558.68 509.54,-553.93 499.18,-551.74 500.07,-558.68"/>
</a>
</g>
</g>
<!-- Node14 -->
<g id="Node000014" class="node">
<title>Node14</title>
<g id="a_Node000014"><a xlink:href="../../d0/d59/futil_8c.html#a636608f26d1193b5d860f2312cd8ee49" target="_top" xlink:title="terminates string at New Line, Carriage Return, or max_len">
<polygon fill="white" stroke="#666666" points="425.88,-481.75 385.88,-481.75 385.88,-461 425.88,-461 425.88,-481.75"/>
<text xml:space="preserve" text-anchor="middle" x="405.88" y="-468.25" font-family="Helvetica,sans-Serif" font-size="10.00">strnz</text>
</a>
</g>
</g>
<!-- Node7&#45;&gt;Node14 -->
<g id="edge19_Node000007_Node000014" class="edge">
<title>Node7&#45;&gt;Node14</title>
<g id="a_edge19_Node000007_Node000014"><a xlink:title=" ">
<path fill="none" stroke="#63b8ff" d="M284.17,-367.03C295.19,-386.39 320.99,-427.54 353.25,-451.38 359.69,-456.13 367.41,-459.91 374.89,-462.85"/>
<polygon fill="#63b8ff" stroke="#63b8ff" points="373.47,-466.06 384.07,-466.06 375.78,-459.45 373.47,-466.06"/>
</a>
</g>
</g>
<!-- Node7&#45;&gt;Node15 -->
<g id="edge20_Node000007_Node000015" class="edge">
<title>Node7&#45;&gt;Node15</title>
<g id="a_edge20_Node000007_Node000015"><a xlink:title=" ">
<path fill="none" stroke="#63b8ff" d="M316.62,-367.19C328.3,-370.19 341.24,-373.22 353.25,-375.38 401.47,-384.03 457.42,-389.42 495.36,-392.39"/>
<polygon fill="#63b8ff" stroke="#63b8ff" points="494.79,-395.86 505.02,-393.13 495.32,-388.88 494.79,-395.86"/>
</a>
</g>
</g>
<!-- Node16 -->
<g id="Node000016" class="node">
<title>Node16</title>
<g id="a_Node000016"><a xlink:href="../../dc/d40/dwin_8c.html#a9dd598e1d49c8764af1eec42c682623e" target="_top" xlink:title="Delete the current window and its associated box window.">
<polygon fill="white" stroke="#666666" points="432.62,-442.75 379.12,-442.75 379.12,-422 432.62,-422 432.62,-442.75"/>
<text xml:space="preserve" text-anchor="middle" x="405.88" y="-429.25" font-family="Helvetica,sans-Serif" font-size="10.00">win_del</text>
</a>
</g>
</g>
<!-- Node7&#45;&gt;Node16 -->
<g id="edge21_Node000007_Node000016" class="edge">
<title>Node7&#45;&gt;Node16</title>
<g id="a_edge21_Node000007_Node000016"><a xlink:title=" ">
<path fill="none" stroke="#63b8ff" d="M292.25,-367.1C306.94,-378.18 331.01,-395.61 353.25,-408.38 358.26,-411.25 363.68,-414.07 369.06,-416.7"/>
<polygon fill="#63b8ff" stroke="#63b8ff" points="367.32,-419.75 377.86,-420.86 370.31,-413.42 367.32,-419.75"/>
</a>
</g>
</g>
<!-- Node17 -->
<g id="Node000017" class="node">
<title>Node17</title>
<g id="a_Node000017"><a xlink:href="../../dc/d40/dwin_8c.html#a435c7bff7ffedb8f51c6de9259e36f6c" target="_top" xlink:title="Create a new window with optional box and title.">
<polygon fill="white" stroke="#666666" points="435.25,-366.75 376.5,-366.75 376.5,-346 435.25,-346 435.25,-366.75"/>
<text xml:space="preserve" text-anchor="middle" x="405.88" y="-353.25" font-family="Helvetica,sans-Serif" font-size="10.00">win_new</text>
</a>
</g>
</g>
<!-- Node7&#45;&gt;Node17 -->
<g id="edge22_Node000007_Node000017" class="edge">
<title>Node7&#45;&gt;Node17</title>
<g id="a_edge22_Node000007_Node000017"><a xlink:title=" ">
<path fill="none" stroke="#63b8ff" d="M317.71,-356.38C332.59,-356.38 349.54,-356.38 364.51,-356.38"/>
<polygon fill="#63b8ff" stroke="#63b8ff" points="364.5,-359.88 374.5,-356.38 364.5,-352.88 364.5,-359.88"/>
</a>
</g>
</g>
<!-- Node19 -->
<g id="Node000019" class="node">
<title>Node19</title>
<g id="a_Node000019"><a xlink:href="../../dc/d40/dwin_8c.html#acf4c709bccc4c965a5d61db978db31a3" target="_top" xlink:title="Wrapper for wgetch that handles signals and mouse events.">
<polygon fill="white" stroke="#666666" points="434.5,-327.75 377.25,-327.75 377.25,-307 434.5,-307 434.5,-327.75"/>
<text xml:space="preserve" text-anchor="middle" x="405.88" y="-314.25" font-family="Helvetica,sans-Serif" font-size="10.00">xwgetch</text>
</a>
</g>
</g>
<!-- Node7&#45;&gt;Node19 -->
<g id="edge25_Node000007_Node000019" class="edge">
<title>Node7&#45;&gt;Node19</title>
<g id="a_edge25_Node000007_Node000019"><a xlink:title=" ">
<path fill="none" stroke="#63b8ff" d="M297.31,-345.55C315.36,-338.21 343.07,-329.23 365.84,-323.12"/>
<polygon fill="#63b8ff" stroke="#63b8ff" points="366.61,-326.54 375.43,-320.66 364.87,-319.76 366.61,-326.54"/>
</a>
</g>
</g>
<!-- Node8&#45;&gt;Node9 -->
<g id="edge12_Node000008_Node000009" class="edge">
<title>Node8&#45;&gt;Node9</title>
<g id="a_edge12_Node000008_Node000009"><a xlink:title=" ">
<path fill="none" stroke="#63b8ff" d="M452.98,-156.78C467.03,-154.77 482.43,-152.57 496.3,-150.59"/>
<polygon fill="#63b8ff" stroke="#63b8ff" points="496.63,-154.08 506.03,-149.2 495.64,-147.15 496.63,-154.08"/>
</a>
</g>
</g>
<!-- Node11&#45;&gt;Node2 -->
<g id="edge15_Node000011_Node000002" class="edge">
<title>Node11&#45;&gt;Node2</title>
<g id="a_edge15_Node000011_Node000002"><a xlink:title=" ">
<path fill="none" stroke="#63b8ff" d="M435.96,-267.51C443.35,-264.63 451.25,-261.47 458.5,-258.38 474.86,-251.39 492.81,-243.07 507.66,-236"/>
<polygon fill="#63b8ff" stroke="#63b8ff" points="508.99,-239.24 516.5,-231.76 505.97,-232.93 508.99,-239.24"/>
</a>
</g>
</g>
<!-- Node12&#45;&gt;Node13 -->
<g id="edge17_Node000012_Node000013" class="edge">
<title>Node12&#45;&gt;Node13</title>
<g id="a_edge17_Node000012_Node000013"><a xlink:title=" ">
<path fill="none" stroke="#63b8ff" d="M444.6,-521.16C461.97,-526.13 482.58,-532.03 500.17,-537.06"/>
<polygon fill="#63b8ff" stroke="#63b8ff" points="499.2,-540.42 509.78,-539.8 501.13,-533.69 499.2,-540.42"/>
</a>
</g>
</g>
<!-- Node17&#45;&gt;Node15 -->
<g id="edge24_Node000017_Node000015" class="edge">
<title>Node17&#45;&gt;Node15</title>
<g id="a_edge24_Node000017_Node000015"><a xlink:title=" ">
<path fill="none" stroke="#63b8ff" d="M435.71,-364.84C453.27,-369.99 476.06,-376.68 495.84,-382.49"/>
<polygon fill="#63b8ff" stroke="#63b8ff" points="494.73,-385.81 505.31,-385.27 496.7,-379.09 494.73,-385.81"/>
</a>
</g>
</g>
<!-- Node18 -->
<g id="Node000018" class="node">
<title>Node18</title>
<g id="a_Node000018"><a xlink:href="../../dc/d40/dwin_8c.html#ac9adcf7339be4a05ab1a7350c236b8a5" target="_top" xlink:title="Draw a box around the specified window.">
<polygon fill="white" stroke="#666666" points="560.38,-366.75 521.12,-366.75 521.12,-346 560.38,-346 560.38,-366.75"/>
<text xml:space="preserve" text-anchor="middle" x="540.75" y="-353.25" font-family="Helvetica,sans-Serif" font-size="10.00">cbox</text>
</a>
</g>
</g>
<!-- Node17&#45;&gt;Node18 -->
<g id="edge23_Node000017_Node000018" class="edge">
<title>Node17&#45;&gt;Node18</title>
<g id="a_edge23_Node000017_Node000018"><a xlink:title=" ">
<path fill="none" stroke="#63b8ff" d="M435.71,-356.38C457.47,-356.38 487.27,-356.38 509.4,-356.38"/>
<polygon fill="#63b8ff" stroke="#63b8ff" points="509.29,-359.88 519.29,-356.38 509.29,-352.88 509.29,-359.88"/>
</a>
</g>
</g>
<!-- Node19&#45;&gt;Node7 -->
<g id="edge26_Node000019_Node000007" class="edge">
<title>Node19&#45;&gt;Node7</title>
<g id="a_edge26_Node000019_Node000007"><a xlink:title=" ">
<path fill="none" stroke="#63b8ff" d="M386.07,-328.14C370.91,-334.32 348.88,-341.66 328.68,-347.49"/>
<polygon fill="#63b8ff" stroke="#63b8ff" points="327.86,-344.08 319.16,-350.14 329.74,-350.83 327.86,-344.08"/>
</a>
</g>
</g>
<!-- Node20 -->
<g id="Node000020" class="node">
<title>Node20</title>
<g id="a_Node000020"><a xlink:href="../../dc/d40/dwin_8c.html#a4298f891699300bfc4e6e56fd2a8d574" target="_top" xlink:title="Get keycode from chyron.">
<polygon fill="white" stroke="#666666" points="587,-327.75 494.5,-327.75 494.5,-307 587,-307 587,-327.75"/>
<text xml:space="preserve" text-anchor="middle" x="540.75" y="-314.25" font-family="Helvetica,sans-Serif" font-size="10.00">get_chyron_key</text>
</a>
</g>
</g>
<!-- Node19&#45;&gt;Node20 -->
<g id="edge27_Node000019_Node000020" class="edge">
<title>Node19&#45;&gt;Node20</title>
<g id="a_edge27_Node000019_Node000020"><a xlink:title=" ">
<path fill="none" stroke="#63b8ff" d="M434.73,-317.38C448.7,-317.38 466.16,-317.38 482.81,-317.38"/>
<polygon fill="#63b8ff" stroke="#63b8ff" points="482.64,-320.88 492.64,-317.38 482.64,-313.88 482.64,-320.88"/>
</a>
</g>
</g>
<!-- Node21 -->
<g id="Node000021" class="node">
<title>Node21</title>
<g id="a_Node000021"><a xlink:href="../../d0/d6b/cm_8h.html#a0667873879b5846c3fe2fa2cc96059d6" target="_top" xlink:title=" ">
<polygon fill="white" stroke="#666666" points="582.5,-288.75 499,-288.75 499,-268 582.5,-268 582.5,-288.75"/>
<text xml:space="preserve" text-anchor="middle" x="540.75" y="-275.25" font-family="Helvetica,sans-Serif" font-size="10.00">handle_signal</text>
</a>
</g>
</g>
<!-- Node19&#45;&gt;Node21 -->
<g id="edge28_Node000019_Node000021" class="edge">
<title>Node19&#45;&gt;Node21</title>
<g id="a_edge28_Node000019_Node000021"><a xlink:title=" ">
<path fill="none" stroke="#63b8ff" d="M434.73,-309.2C451.27,-304.34 472.69,-298.06 491.87,-292.43"/>
<polygon fill="#63b8ff" stroke="#63b8ff" points="492.79,-295.81 501.4,-289.63 490.82,-289.09 492.79,-295.81"/>
</a>
</g>
</g>
<!-- Node23 -->
<g id="Node000023" class="node">
<title>Node23</title>
<g id="a_Node000023"><a xlink:href="../../dc/d40/dwin_8c.html#a61af7829a5d63d766e76930a0893d574" target="_top" xlink:title="Initialize extended ncurses color from HTML style hex string.">
<polygon fill="white" stroke="#666666" points="313.5,-59.75 241.25,-59.75 241.25,-39 313.5,-39 313.5,-59.75"/>
<text xml:space="preserve" text-anchor="middle" x="277.38" y="-46.25" font-family="Helvetica,sans-Serif" font-size="10.00">init_hex_clr</text>
</a>
</g>
</g>
<!-- Node22&#45;&gt;Node23 -->
<g id="edge31_Node000022_Node000023" class="edge">
<title>Node22&#45;&gt;Node23</title>
<g id="a_edge31_Node000022_Node000023"><a xlink:title=" ">
<path fill="none" stroke="#63b8ff" d="M201.82,-49.38C210.89,-49.38 220.48,-49.38 229.65,-49.38"/>
<polygon fill="#63b8ff" stroke="#63b8ff" points="229.46,-52.88 239.46,-49.38 229.46,-45.88 229.46,-52.88"/>
</a>
</g>
</g>
<!-- Node24 -->
<g id="Node000024" class="node">
<title>Node24</title>
<g id="a_Node000024"><a xlink:href="../../dc/d40/dwin_8c.html#aa3a6b291c0820d9da545325a2dba5274" target="_top" xlink:title="Apply gamma correction to RGB color.">
<polygon fill="white" stroke="#666666" points="448.75,-59.75 363,-59.75 363,-39 448.75,-39 448.75,-59.75"/>
<text xml:space="preserve" text-anchor="middle" x="405.88" y="-46.25" font-family="Helvetica,sans-Serif" font-size="10.00">apply_gamma</text>
</a>
</g>
</g>
<!-- Node23&#45;&gt;Node24 -->
<g id="edge32_Node000023_Node000024" class="edge">
<title>Node23&#45;&gt;Node24</title>
<g id="a_edge32_Node000023_Node000024"><a xlink:title=" ">
<path fill="none" stroke="#63b8ff" d="M313.95,-49.38C325.59,-49.38 338.78,-49.38 351.44,-49.38"/>
<polygon fill="#63b8ff" stroke="#63b8ff" points="351.34,-52.88 361.34,-49.38 351.34,-45.88 351.34,-52.88"/>
</a>
</g>
</g>
<!-- Node25 -->
<g id="Node000025" class="node">
<title>Node25</title>
<g id="a_Node000025"><a xlink:href="../../dc/d40/dwin_8c.html#a9916a18055fdcf1f0aac0f61b946eaf9" target="_top" xlink:title="Convert six&#45;digit HTML style hex color code to RGB struct.">
<polygon fill="white" stroke="#666666" points="458.5,-20.75 353.25,-20.75 353.25,0 458.5,0 458.5,-20.75"/>
<text xml:space="preserve" text-anchor="middle" x="405.88" y="-7.25" font-family="Helvetica,sans-Serif" font-size="10.00">hex_clr_str_to_rgb</text>
</a>
</g>
</g>
<!-- Node23&#45;&gt;Node25 -->
<g id="edge33_Node000023_Node000025" class="edge">
<title>Node23&#45;&gt;Node25</title>
<g id="a_edge33_Node000023_Node000025"><a xlink:title=" ">
<path fill="none" stroke="#63b8ff" d="M313.61,-38.51C327.73,-34.16 344.18,-29.09 359.2,-24.46"/>
<polygon fill="#63b8ff" stroke="#63b8ff" points="359.86,-27.92 368.38,-21.63 357.79,-21.23 359.86,-27.92"/>
</a>
</g>
</g>
</g>
</svg>
