<?xml version="1.0" encoding="UTF-8" standalone="no"?>
<!DOCTYPE svg PUBLIC "-//W3C//DTD SVG 1.1//EN"
 "http://www.w3.org/Graphics/SVG/1.1/DTD/svg11.dtd">
<!-- Generated by graphviz version 14.1.2 (0)
 -->
<!-- Title: Perror Pages: 1 -->
<svg width="779pt" height="501pt"
 viewBox="0.00 0.00 779.00 501.00" xmlns="http://www.w3.org/2000/svg" xmlns:xlink="http://www.w3.org/1999/xlink">
<g id="graph0" class="graph" transform="scale(1 1) rotate(0) translate(4 497.1)">
<title>Perror</title>
<!-- Node1 -->
<g id="Node000001" class="node">
<title>Node1</title>
<g id="a_Node000001"><a xlink:title="Display a simple error message window or print to stderr.">
<polygon fill="#999999" stroke="#666666" points="45.25,-315.59 0,-315.59 0,-294.84 45.25,-294.84 45.25,-315.59"/>
<text xml:space="preserve" text-anchor="middle" x="22.62" y="-302.09" font-family="Helvetica,sans-Serif" font-size="10.00">Perror</text>
</a>
</g>
</g>
<!-- Node2 -->
<g id="Node000002" class="node">
<title>Node2</title>
<g id="a_Node000002"><a xlink:href="../../dc/d40/dwin_8c.html#a8f6c45ca4a7f6a41c4c88314e697565a" target="_top" xlink:title="Abnormal program termination.">
<polygon fill="white" stroke="#666666" points="489.12,-411.59 443.12,-411.59 443.12,-390.84 489.12,-390.84 489.12,-411.59"/>
<text xml:space="preserve" text-anchor="middle" x="466.12" y="-398.09" font-family="Helvetica,sans-Serif" font-size="10.00">abend</text>
</a>
</g>
</g>
<!-- Node1&#45;&gt;Node2 -->
<g id="edge1_Node000001_Node000002" class="edge">
<title>Node1&#45;&gt;Node2</title>
<g id="a_edge1_Node000001_Node000002"><a xlink:title=" ">
<path fill="none" stroke="#63b8ff" d="M26.85,-315.8C33.53,-335.83 50.84,-379.23 81.25,-401.21 188.66,-478.84 360.84,-435.87 432.34,-412.81"/>
<polygon fill="#63b8ff" stroke="#63b8ff" points="433.1,-416.25 441.49,-409.78 430.9,-409.6 433.1,-416.25"/>
</a>
</g>
</g>
<!-- Node6 -->
<g id="Node000006" class="node">
<title>Node6</title>
<g id="a_Node000006"><a xlink:href="../../dc/d40/dwin_8c.html#a645871e46277e31736bc36d0f3dce4bd" target="_top" xlink:title="construct the chyron string from the chyron structure">
<polygon fill="white" stroke="#666666" points="396.25,-487.59 303,-487.59 303,-466.84 396.25,-466.84 396.25,-487.59"/>
<text xml:space="preserve" text-anchor="middle" x="349.62" y="-474.09" font-family="Helvetica,sans-Serif" font-size="10.00">compile_chyron</text>
</a>
</g>
</g>
<!-- Node1&#45;&gt;Node6 -->
<g id="edge7_Node000001_Node000006" class="edge">
<title>Node1&#45;&gt;Node6</title>
<g id="a_edge7_Node000001_Node000006"><a xlink:title=" ">
<path fill="none" stroke="#63b8ff" d="M24.16,-316.04C26.2,-344.05 35.84,-419.08 81.25,-453.21 141.59,-498.56 232.59,-496.14 291.31,-488.23"/>
<polygon fill="#63b8ff" stroke="#63b8ff" points="291.72,-491.71 301.11,-486.81 290.71,-484.78 291.72,-491.71"/>
</a>
</g>
</g>
<!-- Node8 -->
<g id="Node000008" class="node">
<title>Node8</title>
<g id="a_Node000008"><a xlink:href="../../dc/d40/dwin_8c.html#a3f3feb40fd703913c5c136331f627c91" target="_top" xlink:title="Destroy Chyron structure.">
<polygon fill="white" stroke="#666666" points="395.12,-335.59 304.12,-335.59 304.12,-314.84 395.12,-314.84 395.12,-335.59"/>
<text xml:space="preserve" text-anchor="middle" x="349.62" y="-322.09" font-family="Helvetica,sans-Serif" font-size="10.00">destroy_chyron</text>
</a>
</g>
</g>
<!-- Node1&#45;&gt;Node8 -->
<g id="edge9_Node000001_Node000008" class="edge">
<title>Node1&#45;&gt;Node8</title>
<g id="a_edge9_Node000001_Node000008"><a xlink:title=" ">
<path fill="none" stroke="#63b8ff" d="M45.49,-307.75C56.25,-308.94 69.42,-310.29 81.25,-311.21 154,-316.9 238.07,-320.87 292.22,-323.1"/>
<polygon fill="#63b8ff" stroke="#63b8ff" points="291.99,-326.59 302.12,-323.5 292.27,-319.6 291.99,-326.59"/>
</a>
</g>
</g>
<!-- Node9 -->
<g id="Node000009" class="node">
<title>Node9</title>
<g id="a_Node000009"><a xlink:href="../../dc/d40/dwin_8c.html#ad37d5808ff30ae6894780425d865abae" target="_top" xlink:title="Create and initialize Chyron structure.">
<polygon fill="white" stroke="#666666" points="386.88,-411.59 312.38,-411.59 312.38,-390.84 386.88,-390.84 386.88,-411.59"/>
<text xml:space="preserve" text-anchor="middle" x="349.62" y="-398.09" font-family="Helvetica,sans-Serif" font-size="10.00">new_chyron</text>
</a>
</g>
</g>
<!-- Node1&#45;&gt;Node9 -->
<g id="edge10_Node000001_Node000009" class="edge">
<title>Node1&#45;&gt;Node9</title>
<g id="a_edge10_Node000001_Node000009"><a xlink:title=" ">
<path fill="none" stroke="#63b8ff" d="M28.71,-316.05C37.08,-332.51 55.44,-363.35 81.25,-377.21 150.45,-414.36 244.4,-413 300.53,-407.73"/>
<polygon fill="#63b8ff" stroke="#63b8ff" points="300.82,-411.22 310.41,-406.72 300.1,-404.26 300.82,-411.22"/>
</a>
</g>
</g>
<!-- Node10 -->
<g id="Node000010" class="node">
<title>Node10</title>
<g id="a_Node000010"><a xlink:href="../../dc/d40/dwin_8c.html#a208ce92c197fdd6d2b007987e534aa3b" target="_top" xlink:title="Set chyron key.">
<polygon fill="white" stroke="#666666" points="395.5,-105.59 303.75,-105.59 303.75,-84.84 395.5,-84.84 395.5,-105.59"/>
<text xml:space="preserve" text-anchor="middle" x="349.62" y="-92.09" font-family="Helvetica,sans-Serif" font-size="10.00">set_chyron_key</text>
</a>
</g>
</g>
<!-- Node1&#45;&gt;Node10 -->
<g id="edge12_Node000001_Node000010" class="edge">
<title>Node1&#45;&gt;Node10</title>
<g id="a_edge12_Node000001_Node000010"><a xlink:title=" ">
<path fill="none" stroke="#63b8ff" d="M30.58,-294.54C40.77,-279.27 60.8,-250.66 81.25,-229.21 118.53,-190.1 127.18,-177.3 174.5,-151.21 211.51,-130.8 257.1,-116.48 292.35,-107.43"/>
<polygon fill="#63b8ff" stroke="#63b8ff" points="293.08,-110.85 301.94,-105.04 291.39,-104.06 293.08,-110.85"/>
</a>
</g>
</g>
<!-- Node11 -->
<g id="Node000011" class="node">
<title>Node11</title>
<g id="a_Node000011"><a xlink:href="../../d0/d59/futil_8c.html#a63eb94756fb011a456a3dec900709cd8" target="_top" xlink:title="ssnprintf was designed to be a safer alternative to snprintf.">
<polygon fill="white" stroke="#666666" points="495.5,-220.59 436.75,-220.59 436.75,-199.84 495.5,-199.84 495.5,-220.59"/>
<text xml:space="preserve" text-anchor="middle" x="466.12" y="-207.09" font-family="Helvetica,sans-Serif" font-size="10.00">ssnprintf</text>
</a>
</g>
</g>
<!-- Node1&#45;&gt;Node11 -->
<g id="edge14_Node000001_Node000011" class="edge">
<title>Node1&#45;&gt;Node11</title>
<g id="a_edge14_Node000001_Node000011"><a xlink:title=" ">
<path fill="none" stroke="#63b8ff" d="M45.39,-316.04C106.12,-344.56 280.49,-414.87 396.25,-344.21 436.66,-319.55 454.35,-262.79 461.26,-231.64"/>
<polygon fill="#63b8ff" stroke="#63b8ff" points="464.61,-232.7 463.16,-222.2 457.75,-231.31 464.61,-232.7"/>
</a>
</g>
</g>
<!-- Node12 -->
<g id="Node000012" class="node">
<title>Node12</title>
<g id="a_Node000012"><a xlink:href="../../d0/d59/futil_8c.html#a0de2e40df9bd7efc8fd9afb8ad2257e6" target="_top" xlink:title="safer alternative to strncpy">
<polygon fill="white" stroke="#666666" points="500,-68.59 432.25,-68.59 432.25,-47.84 500,-47.84 500,-68.59"/>
<text xml:space="preserve" text-anchor="middle" x="466.12" y="-55.09" font-family="Helvetica,sans-Serif" font-size="10.00">strnz__cpy</text>
</a>
</g>
</g>
<!-- Node1&#45;&gt;Node12 -->
<g id="edge15_Node000001_Node000012" class="edge">
<title>Node1&#45;&gt;Node12</title>
<g id="a_edge15_Node000001_Node000012"><a xlink:title=" ">
<path fill="none" stroke="#63b8ff" d="M25.89,-294.61C31.53,-270.25 48.2,-209.35 81.25,-170.21 113.05,-132.56 129.4,-130.09 174.5,-110.21 256.33,-74.14 361.62,-63.08 420.38,-59.7"/>
<polygon fill="#63b8ff" stroke="#63b8ff" points="420.52,-63.19 430.32,-59.18 420.16,-56.2 420.52,-63.19"/>
</a>
</g>
</g>
<!-- Node13 -->
<g id="Node000013" class="node">
<title>Node13</title>
<g id="a_Node000013"><a xlink:href="../../dc/d40/dwin_8c.html#a9dd598e1d49c8764af1eec42c682623e" target="_top" xlink:title="Delete the current window and its associated box window.">
<polygon fill="white" stroke="#666666" points="376.38,-296.59 322.88,-296.59 322.88,-275.84 376.38,-275.84 376.38,-296.59"/>
<text xml:space="preserve" text-anchor="middle" x="349.62" y="-283.09" font-family="Helvetica,sans-Serif" font-size="10.00">win_del</text>
</a>
</g>
</g>
<!-- Node1&#45;&gt;Node13 -->
<g id="edge16_Node000001_Node000013" class="edge">
<title>Node1&#45;&gt;Node13</title>
<g id="a_edge16_Node000001_Node000013"><a xlink:title=" ">
<path fill="none" stroke="#63b8ff" d="M45.71,-303.92C100.43,-300.72 242.79,-292.4 311.05,-288.41"/>
<polygon fill="#63b8ff" stroke="#63b8ff" points="311.22,-291.9 321,-287.83 310.81,-284.92 311.22,-291.9"/>
</a>
</g>
</g>
<!-- Node14 -->
<g id="Node000014" class="node">
<title>Node14</title>
<g id="a_Node000014"><a xlink:href="../../dc/d40/dwin_8c.html#a435c7bff7ffedb8f51c6de9259e36f6c" target="_top" xlink:title="Create a new window with optional box and title.">
<polygon fill="white" stroke="#666666" points="379,-29.59 320.25,-29.59 320.25,-8.84 379,-8.84 379,-29.59"/>
<text xml:space="preserve" text-anchor="middle" x="349.62" y="-16.09" font-family="Helvetica,sans-Serif" font-size="10.00">win_new</text>
</a>
</g>
</g>
<!-- Node1&#45;&gt;Node14 -->
<g id="edge17_Node000001_Node000014" class="edge">
<title>Node1&#45;&gt;Node14</title>
<g id="a_edge17_Node000001_Node000014"><a xlink:title=" ">
<path fill="none" stroke="#63b8ff" d="M24.35,-294.38C27.61,-249.31 42.45,-77.37 81.25,-43.21 144.25,12.25 250.93,1.56 308.66,-9.66"/>
<polygon fill="#63b8ff" stroke="#63b8ff" points="307.88,-13.07 318.38,-11.66 309.29,-6.22 307.88,-13.07"/>
</a>
</g>
</g>
<!-- Node16 -->
<g id="Node000016" class="node">
<title>Node16</title>
<g id="a_Node000016"><a xlink:href="../../dc/d40/dwin_8c.html#acf4c709bccc4c965a5d61db978db31a3" target="_top" xlink:title="Wrapper for wgetch that handles signals and mouse events.">
<polygon fill="white" stroke="#666666" points="138.5,-258.59 81.25,-258.59 81.25,-237.84 138.5,-237.84 138.5,-258.59"/>
<text xml:space="preserve" text-anchor="middle" x="109.88" y="-245.09" font-family="Helvetica,sans-Serif" font-size="10.00">xwgetch</text>
</a>
</g>
</g>
<!-- Node1&#45;&gt;Node16 -->
<g id="edge20_Node000001_Node000016" class="edge">
<title>Node1&#45;&gt;Node16</title>
<g id="a_edge20_Node000001_Node000016"><a xlink:title=" ">
<path fill="none" stroke="#63b8ff" d="M39.66,-294.49C51.97,-286.26 69.19,-274.74 83.38,-265.26"/>
<polygon fill="#63b8ff" stroke="#63b8ff" points="85,-268.39 91.36,-259.92 81.11,-262.57 85,-268.39"/>
</a>
</g>
</g>
<!-- Node3 -->
<g id="Node000003" class="node">
<title>Node3</title>
<g id="a_Node000003"><a xlink:href="../../dc/d40/dwin_8c.html#afc0985a403e3eac0b2cd8f0fab500256" target="_top" xlink:title="Gracefully shut down NCurses and restore terminal settings.">
<polygon fill="white" stroke="#666666" points="625.5,-411.59 536,-411.59 536,-390.84 625.5,-390.84 625.5,-411.59"/>
<text xml:space="preserve" text-anchor="middle" x="580.75" y="-398.09" font-family="Helvetica,sans-Serif" font-size="10.00">destroy_curses</text>
</a>
</g>
</g>
<!-- Node2&#45;&gt;Node3 -->
<g id="edge2_Node000002_Node000003" class="edge">
<title>Node2&#45;&gt;Node3</title>
<g id="a_edge2_Node000002_Node000003"><a xlink:title=" ">
<path fill="none" stroke="#63b8ff" d="M489.38,-401.21C499.49,-401.21 511.94,-401.21 524.34,-401.21"/>
<polygon fill="#63b8ff" stroke="#63b8ff" points="524.13,-404.71 534.13,-401.21 524.13,-397.71 524.13,-404.71"/>
</a>
</g>
</g>
<!-- Node4 -->
<g id="Node000004" class="node">
<title>Node4</title>
<g id="a_Node000004"><a xlink:href="../../d7/d72/scriou_8c.html#ac5e3adb304b78910fc77761ef6a743f0" target="_top" xlink:title="restore_shell_tioctl() &#45; restore shell terminal settings">
<polygon fill="white" stroke="#666666" points="770.5,-439.59 661.5,-439.59 661.5,-418.84 770.5,-418.84 770.5,-439.59"/>
<text xml:space="preserve" text-anchor="middle" x="716" y="-426.09" font-family="Helvetica,sans-Serif" font-size="10.00">restore_shell_tioctl</text>
</a>
</g>
</g>
<!-- Node2&#45;&gt;Node4 -->
<g id="edge5_Node000002_Node000004" class="edge">
<title>Node2&#45;&gt;Node4</title>
<g id="a_edge5_Node000002_Node000004"><a xlink:title=" ">
<path fill="none" stroke="#63b8ff" d="M489.5,-408.72C502.84,-412.86 520.2,-417.67 536,-420.21 573.4,-426.23 615.71,-428.56 649.8,-429.35"/>
<polygon fill="#63b8ff" stroke="#63b8ff" points="649.45,-432.85 659.51,-429.53 649.58,-425.85 649.45,-432.85"/>
</a>
</g>
</g>
<!-- Node5 -->
<g id="Node000005" class="node">
<title>Node5</title>
<g id="a_Node000005"><a xlink:href="../../da/d12/sig_8c.html#a06c1eb6cf3649dc187115565409f91af" target="_top" xlink:title="Set signal handlers to default behavior.">
<polygon fill="white" stroke="#666666" points="756.62,-391.59 675.38,-391.59 675.38,-370.84 756.62,-370.84 756.62,-391.59"/>
<text xml:space="preserve" text-anchor="middle" x="716" y="-378.09" font-family="Helvetica,sans-Serif" font-size="10.00">sig_dfl_mode</text>
</a>
</g>
</g>
<!-- Node2&#45;&gt;Node5 -->
<g id="edge6_Node000002_Node000005" class="edge">
<title>Node2&#45;&gt;Node5</title>
<g id="a_edge6_Node000002_Node000005"><a xlink:title=" ">
<path fill="none" stroke="#63b8ff" d="M489.46,-393.44C502.78,-389.21 520.15,-384.4 536,-382.21 578.78,-376.3 627.86,-376.51 663.79,-377.94"/>
<polygon fill="#63b8ff" stroke="#63b8ff" points="663.31,-381.42 673.46,-378.37 663.63,-374.43 663.31,-381.42"/>
</a>
</g>
</g>
<!-- Node3&#45;&gt;Node4 -->
<g id="edge3_Node000003_Node000004" class="edge">
<title>Node3&#45;&gt;Node4</title>
<g id="a_edge3_Node000003_Node000004"><a xlink:title=" ">
<path fill="none" stroke="#63b8ff" d="M625.75,-410.46C634.37,-412.27 643.57,-414.2 652.66,-416.11"/>
<polygon fill="#63b8ff" stroke="#63b8ff" points="651.66,-419.48 662.17,-418.11 653.1,-412.63 651.66,-419.48"/>
</a>
</g>
</g>
<!-- Node3&#45;&gt;Node5 -->
<g id="edge4_Node000003_Node000005" class="edge">
<title>Node3&#45;&gt;Node5</title>
<g id="a_edge4_Node000003_Node000005"><a xlink:title=" ">
<path fill="none" stroke="#63b8ff" d="M625.75,-394.61C637.94,-392.78 651.27,-390.78 663.83,-388.89"/>
<polygon fill="#63b8ff" stroke="#63b8ff" points="664.23,-392.37 673.6,-387.42 663.19,-385.45 664.23,-392.37"/>
</a>
</g>
</g>
<!-- Node7 -->
<g id="Node000007" class="node">
<title>Node7</title>
<g id="a_Node000007"><a xlink:href="../../d0/d59/futil_8c.html#aa0145c044cfdde3a1c83323410a59f25" target="_top" xlink:title="safer alternative to strncat">
<polygon fill="white" stroke="#666666" points="498.88,-487.59 433.38,-487.59 433.38,-466.84 498.88,-466.84 498.88,-487.59"/>
<text xml:space="preserve" text-anchor="middle" x="466.12" y="-474.09" font-family="Helvetica,sans-Serif" font-size="10.00">strnz__cat</text>
</a>
</g>
</g>
<!-- Node6&#45;&gt;Node7 -->
<g id="edge8_Node000006_Node000007" class="edge">
<title>Node6&#45;&gt;Node7</title>
<g id="a_edge8_Node000006_Node000007"><a xlink:title=" ">
<path fill="none" stroke="#63b8ff" d="M396.54,-477.21C404.83,-477.21 413.44,-477.21 421.66,-477.21"/>
<polygon fill="#63b8ff" stroke="#63b8ff" points="421.42,-480.71 431.42,-477.21 421.42,-473.71 421.42,-480.71"/>
</a>
</g>
</g>
<!-- Node9&#45;&gt;Node2 -->
<g id="edge11_Node000009_Node000002" class="edge">
<title>Node9&#45;&gt;Node2</title>
<g id="a_edge11_Node000009_Node000002"><a xlink:title=" ">
<path fill="none" stroke="#63b8ff" d="M387.17,-401.21C401.49,-401.21 417.8,-401.21 431.79,-401.21"/>
<polygon fill="#63b8ff" stroke="#63b8ff" points="431.39,-404.71 441.39,-401.21 431.39,-397.71 431.39,-404.71"/>
</a>
</g>
</g>
<!-- Node10&#45;&gt;Node11 -->
<g id="edge13_Node000010_Node000011" class="edge">
<title>Node10&#45;&gt;Node11</title>
<g id="a_edge13_Node000010_Node000011"><a xlink:title=" ">
<path fill="none" stroke="#63b8ff" d="M381.37,-105.99C386.62,-108.56 391.81,-111.63 396.25,-115.21 421.91,-135.89 442.65,-168.38 454.44,-189.49"/>
<polygon fill="#63b8ff" stroke="#63b8ff" points="451.22,-190.89 459.04,-198.03 457.38,-187.57 451.22,-190.89"/>
</a>
</g>
</g>
<!-- Node14&#45;&gt;Node12 -->
<g id="edge19_Node000014_Node000012" class="edge">
<title>Node14&#45;&gt;Node12</title>
<g id="a_edge19_Node000014_Node000012"><a xlink:title=" ">
<path fill="none" stroke="#63b8ff" d="M379.22,-28.95C392.31,-33.41 408.1,-38.79 422.54,-43.71"/>
<polygon fill="#63b8ff" stroke="#63b8ff" points="421.24,-46.96 431.83,-46.87 423.49,-40.33 421.24,-46.96"/>
</a>
</g>
</g>
<!-- Node15 -->
<g id="Node000015" class="node">
<title>Node15</title>
<g id="a_Node000015"><a xlink:href="../../dc/d40/dwin_8c.html#ac9adcf7339be4a05ab1a7350c236b8a5" target="_top" xlink:title="Draw a box around the specified window.">
<polygon fill="white" stroke="#666666" points="485.75,-29.59 446.5,-29.59 446.5,-8.84 485.75,-8.84 485.75,-29.59"/>
<text xml:space="preserve" text-anchor="middle" x="466.12" y="-16.09" font-family="Helvetica,sans-Serif" font-size="10.00">cbox</text>
</a>
</g>
</g>
<!-- Node14&#45;&gt;Node15 -->
<g id="edge18_Node000014_Node000015" class="edge">
<title>Node14&#45;&gt;Node15</title>
<g id="a_edge18_Node000014_Node000015"><a xlink:title=" ">
<path fill="none" stroke="#63b8ff" d="M379.22,-19.21C396.15,-19.21 417.57,-19.21 434.79,-19.21"/>
<polygon fill="#63b8ff" stroke="#63b8ff" points="434.69,-22.71 444.69,-19.21 434.69,-15.71 434.69,-22.71"/>
</a>
</g>
</g>
<!-- Node17 -->
<g id="Node000017" class="node">
<title>Node17</title>
<g id="a_Node000017"><a xlink:href="../../dc/d40/dwin_8c.html#a67659f8a701b74f4dec0d36227a10d1c" target="_top" xlink:title="Display an error message window or print to stderr.">
<polygon fill="white" stroke="#666666" points="260.62,-258.59 180.88,-258.59 180.88,-237.84 260.62,-237.84 260.62,-258.59"/>
<text xml:space="preserve" text-anchor="middle" x="220.75" y="-245.09" font-family="Helvetica,sans-Serif" font-size="10.00">display_error</text>
</a>
</g>
</g>
<!-- Node16&#45;&gt;Node17 -->
<g id="edge21_Node000016_Node000017" class="edge">
<title>Node16&#45;&gt;Node17</title>
<g id="a_edge21_Node000016_Node000017"><a xlink:title=" ">
<path fill="none" stroke="#63b8ff" d="M138.91,-242.22C148.26,-241.64 158.98,-241.39 169.48,-241.48"/>
<polygon fill="#63b8ff" stroke="#63b8ff" points="169.15,-244.97 179.22,-241.68 169.29,-237.97 169.15,-244.97"/>
</a>
</g>
</g>
<!-- Node19 -->
<g id="Node000019" class="node">
<title>Node19</title>
<g id="a_Node000019"><a xlink:href="../../dc/d40/dwin_8c.html#a4298f891699300bfc4e6e56fd2a8d574" target="_top" xlink:title="Get keycode from chyron.">
<polygon fill="white" stroke="#666666" points="267,-180.59 174.5,-180.59 174.5,-159.84 267,-159.84 267,-180.59"/>
<text xml:space="preserve" text-anchor="middle" x="220.75" y="-167.09" font-family="Helvetica,sans-Serif" font-size="10.00">get_chyron_key</text>
</a>
</g>
</g>
<!-- Node16&#45;&gt;Node19 -->
<g id="edge33_Node000016_Node000019" class="edge">
<title>Node16&#45;&gt;Node19</title>
<g id="a_edge33_Node000016_Node000019"><a xlink:title=" ">
<path fill="none" stroke="#63b8ff" d="M120.38,-237.67C132.14,-225.11 153.21,-204.09 174.5,-190.21 176.75,-188.75 179.12,-187.34 181.55,-186"/>
<polygon fill="#63b8ff" stroke="#63b8ff" points="183.01,-189.19 190.38,-181.58 179.87,-182.93 183.01,-189.19"/>
</a>
</g>
</g>
<!-- Node20 -->
<g id="Node000020" class="node">
<title>Node20</title>
<g id="a_Node000020"><a xlink:href="../../d0/d6b/cm_8h.html#a0667873879b5846c3fe2fa2cc96059d6" target="_top" xlink:title=" ">
<polygon fill="white" stroke="#666666" points="262.5,-219.59 179,-219.59 179,-198.84 262.5,-198.84 262.5,-219.59"/>
<text xml:space="preserve" text-anchor="middle" x="220.75" y="-206.09" font-family="Helvetica,sans-Serif" font-size="10.00">handle_signal</text>
</a>
</g>
</g>
<!-- Node16&#45;&gt;Node20 -->
<g id="edge34_Node000016_Node000020" class="edge">
<title>Node16&#45;&gt;Node20</title>
<g id="a_edge34_Node000016_Node000020"><a xlink:title=" ">
<path fill="none" stroke="#63b8ff" d="M138.91,-238.17C151.02,-233.83 165.43,-228.67 178.71,-223.91"/>
<polygon fill="#63b8ff" stroke="#63b8ff" points="179.86,-227.22 188.09,-220.55 177.5,-220.63 179.86,-227.22"/>
</a>
</g>
</g>
<!-- Node17&#45;&gt;Node2 -->
<g id="edge22_Node000017_Node000002" class="edge">
<title>Node17&#45;&gt;Node2</title>
<g id="a_edge22_Node000017_Node000002"><a xlink:title=" ">
<path fill="none" stroke="#63b8ff" d="M261.08,-242.47C299.04,-239.08 356.45,-239.85 396.25,-267.21 434.9,-293.78 453.19,-348.86 460.69,-379.49"/>
<polygon fill="#63b8ff" stroke="#63b8ff" points="457.25,-380.15 462.86,-389.14 464.08,-378.61 457.25,-380.15"/>
</a>
</g>
</g>
<!-- Node17&#45;&gt;Node6 -->
<g id="edge23_Node000017_Node000006" class="edge">
<title>Node17&#45;&gt;Node6</title>
<g id="a_edge23_Node000017_Node000006"><a xlink:title=" ">
<path fill="none" stroke="#63b8ff" d="M225.71,-258.73C236.31,-286.29 266.97,-362.5 303,-420.21 311.31,-433.52 322.24,-447.28 331.33,-457.94"/>
<polygon fill="#63b8ff" stroke="#63b8ff" points="328.52,-460.05 337.73,-465.29 333.8,-455.45 328.52,-460.05"/>
</a>
</g>
</g>
<!-- Node17&#45;&gt;Node8 -->
<g id="edge24_Node000017_Node000008" class="edge">
<title>Node17&#45;&gt;Node8</title>
<g id="a_edge24_Node000017_Node000008"><a xlink:title=" ">
<path fill="none" stroke="#63b8ff" d="M235.29,-258.97C250.99,-271.14 277.92,-291.1 303,-305.21 305.66,-306.71 308.46,-308.18 311.31,-309.59"/>
<polygon fill="#63b8ff" stroke="#63b8ff" points="309.74,-312.72 320.28,-313.8 312.72,-306.39 309.74,-312.72"/>
</a>
</g>
</g>
<!-- Node17&#45;&gt;Node9 -->
<g id="edge25_Node000017_Node000009" class="edge">
<title>Node17&#45;&gt;Node9</title>
<g id="a_edge25_Node000017_Node000009"><a xlink:title=" ">
<path fill="none" stroke="#63b8ff" d="M230.47,-258.73C251.57,-284.17 305.61,-349.33 332.67,-381.97"/>
<polygon fill="#63b8ff" stroke="#63b8ff" points="329.8,-383.99 338.88,-389.46 335.19,-379.52 329.8,-383.99"/>
</a>
</g>
</g>
<!-- Node17&#45;&gt;Node10 -->
<g id="edge26_Node000017_Node000010" class="edge">
<title>Node17&#45;&gt;Node10</title>
<g id="a_edge26_Node000017_Node000010"><a xlink:title=" ">
<path fill="none" stroke="#63b8ff" d="M255.11,-237.48C259.53,-234.97 263.67,-231.92 267,-228.21 302.21,-188.99 267.73,-154.38 303,-115.21 303.84,-114.28 304.73,-113.39 305.66,-112.54"/>
<polygon fill="#63b8ff" stroke="#63b8ff" points="307.63,-115.43 313.75,-106.78 303.58,-109.73 307.63,-115.43"/>
</a>
</g>
</g>
<!-- Node17&#45;&gt;Node11 -->
<g id="edge27_Node000017_Node000011" class="edge">
<title>Node17&#45;&gt;Node11</title>
<g id="a_edge27_Node000017_Node000011"><a xlink:title=" ">
<path fill="none" stroke="#63b8ff" d="M260.98,-241.26C274.3,-238.95 289.29,-236.41 303,-234.21 344.54,-227.56 392.17,-220.58 425,-215.88"/>
<polygon fill="#63b8ff" stroke="#63b8ff" points="425.49,-219.35 434.89,-214.47 424.5,-212.42 425.49,-219.35"/>
</a>
</g>
</g>
<!-- Node17&#45;&gt;Node12 -->
<g id="edge29_Node000017_Node000012" class="edge">
<title>Node17&#45;&gt;Node12</title>
<g id="a_edge29_Node000017_Node000012"><a xlink:title=" ">
<path fill="none" stroke="#63b8ff" d="M250.92,-237.34C287.84,-222.53 351.97,-193.21 396.25,-153.21 420.47,-131.33 441.35,-99.63 453.58,-78.97"/>
<polygon fill="#63b8ff" stroke="#63b8ff" points="456.6,-80.75 458.56,-70.33 450.53,-77.25 456.6,-80.75"/>
</a>
</g>
</g>
<!-- Node17&#45;&gt;Node13 -->
<g id="edge30_Node000017_Node000013" class="edge">
<title>Node17&#45;&gt;Node13</title>
<g id="a_edge30_Node000017_Node000013"><a xlink:title=" ">
<path fill="none" stroke="#63b8ff" d="M257.77,-259C274.72,-264.07 294.9,-270.12 311.93,-275.22"/>
<polygon fill="#63b8ff" stroke="#63b8ff" points="310.57,-278.47 321.15,-277.98 312.58,-271.76 310.57,-278.47"/>
</a>
</g>
</g>
<!-- Node17&#45;&gt;Node14 -->
<g id="edge31_Node000017_Node000014" class="edge">
<title>Node17&#45;&gt;Node14</title>
<g id="a_edge31_Node000017_Node000014"><a xlink:title=" ">
<path fill="none" stroke="#63b8ff" d="M255.82,-237.44C260.03,-234.95 263.93,-231.91 267,-228.21 311.38,-174.83 272.57,-138.61 303,-76.21 309.79,-62.29 320.49,-48.67 329.83,-38.24"/>
<polygon fill="#63b8ff" stroke="#63b8ff" points="332.25,-40.77 336.51,-31.07 327.13,-35.99 332.25,-40.77"/>
</a>
</g>
</g>
<!-- Node17&#45;&gt;Node16 -->
<g id="edge32_Node000017_Node000016" class="edge">
<title>Node17&#45;&gt;Node16</title>
<g id="a_edge32_Node000017_Node000016"><a xlink:title=" ">
<path fill="none" stroke="#63b8ff" d="M180.73,-254.71C170.79,-255.04 160.11,-255.04 150.17,-254.72"/>
<polygon fill="#63b8ff" stroke="#63b8ff" points="150.58,-251.24 140.42,-254.27 150.25,-258.23 150.58,-251.24"/>
</a>
</g>
</g>
<!-- Node18 -->
<g id="Node000018" class="node">
<title>Node18</title>
<g id="a_Node000018"><a xlink:href="../../d0/d59/futil_8c.html#a636608f26d1193b5d860f2312cd8ee49" target="_top" xlink:title="terminates string at New Line, Carriage Return, or max_len">
<polygon fill="white" stroke="#666666" points="369.62,-144.59 329.62,-144.59 329.62,-123.84 369.62,-123.84 369.62,-144.59"/>
<text xml:space="preserve" text-anchor="middle" x="349.62" y="-131.09" font-family="Helvetica,sans-Serif" font-size="10.00">strnz</text>
</a>
</g>
</g>
<!-- Node17&#45;&gt;Node18 -->
<g id="edge28_Node000017_Node000018" class="edge">
<title>Node17&#45;&gt;Node18</title>
<g id="a_edge28_Node000017_Node000018"><a xlink:title=" ">
<path fill="none" stroke="#63b8ff" d="M253.65,-237.46C258.47,-234.92 263.13,-231.86 267,-228.21 292.45,-204.21 278.38,-183.06 303,-158.21 307.57,-153.6 313.21,-149.68 318.94,-146.42"/>
<polygon fill="#63b8ff" stroke="#63b8ff" points="320.46,-149.58 327.82,-141.96 317.31,-143.32 320.46,-149.58"/>
</a>
</g>
</g>
</g>
</svg>
