<?xml version="1.0" encoding="UTF-8" standalone="no"?>
<!DOCTYPE svg PUBLIC "-//W3C//DTD SVG 1.1//EN"
 "http://www.w3.org/Graphics/SVG/1.1/DTD/svg11.dtd">
<!-- Generated by graphviz version 14.1.2 (0)
 -->
<!-- Title: display_curses_keys Pages: 1 -->
<svg width="477pt" height="68pt"
 viewBox="0.00 0.00 477.00 68.00" xmlns="http://www.w3.org/2000/svg" xmlns:xlink="http://www.w3.org/1999/xlink">
<g id="graph0" class="graph" transform="scale(1 1) rotate(0) translate(4 63.75)">
<title>display_curses_keys</title>
<!-- Node1 -->
<g id="Node000001" class="node">
<title>Node1</title>
<g id="a_Node000001"><a xlink:title="Display Curses Keys Responds to curses keys and mouse events, displaying the key code and description...">
<polygon fill="#999999" stroke="#666666" points="469,-39.75 353.25,-39.75 353.25,-19 469,-19 469,-39.75"/>
<text xml:space="preserve" text-anchor="middle" x="411.12" y="-26.25" font-family="Helvetica,sans-Serif" font-size="10.00">display_curses_keys</text>
</a>
</g>
</g>
<!-- Node2 -->
<g id="Node000002" class="node">
<title>Node2</title>
<g id="a_Node000002"><a xlink:href="../../d8/d13/ckeys_8c.html#a3c04138a5bfe5d72780bb7e82a18e627" target="_top" xlink:title=" ">
<polygon fill="white" stroke="#666666" points="276.38,-59.75 235.62,-59.75 235.62,-39 276.38,-39 276.38,-59.75"/>
<text xml:space="preserve" text-anchor="middle" x="256" y="-46.25" font-family="Helvetica,sans-Serif" font-size="10.00">main</text>
</a>
</g>
</g>
<!-- Node1&#45;&gt;Node2 -->
<g id="edge1_Node000001_Node000002" class="edge">
<title>Node1&#45;&gt;Node2</title>
<g id="a_edge1_Node000001_Node000002"><a xlink:title=" ">
<path fill="none" stroke="#63b8ff" d="M341.93,-38.28C318.16,-41.39 293.29,-44.63 276.66,-46.81"/>
<polygon fill="#63b8ff" stroke="#63b8ff" points="342.14,-41.78 351.61,-37.02 341.24,-34.84 342.14,-41.78"/>
</a>
</g>
</g>
<!-- Node3 -->
<g id="Node000003" class="node">
<title>Node3</title>
<g id="a_Node000003"><a xlink:href="../../d6/d18/menu__engine_8c.html#aa5d0e30e7036b72b51c843d0a7e486a1" target="_top" xlink:title="Processes user input for the menu system.">
<polygon fill="white" stroke="#666666" points="317.25,-20.75 194.75,-20.75 194.75,0 317.25,0 317.25,-20.75"/>
<text xml:space="preserve" text-anchor="middle" x="256" y="-7.25" font-family="Helvetica,sans-Serif" font-size="10.00">menu_cmd_processor</text>
</a>
</g>
</g>
<!-- Node1&#45;&gt;Node3 -->
<g id="edge2_Node000001_Node000003" class="edge">
<title>Node1&#45;&gt;Node3</title>
<g id="a_edge2_Node000001_Node000003"><a xlink:title=" ">
<path fill="none" stroke="#63b8ff" d="M341.84,-20.9C333.78,-19.9 325.6,-18.89 317.66,-17.9"/>
<polygon fill="#63b8ff" stroke="#63b8ff" points="341.25,-24.36 351.6,-22.11 342.11,-17.41 341.25,-24.36"/>
</a>
</g>
</g>
<!-- Node4 -->
<g id="Node000004" class="node">
<title>Node4</title>
<g id="a_Node000004"><a xlink:href="../../d6/d18/menu__engine_8c.html#a7d7973d7aac92759dcc86ec52bb038f4" target="_top" xlink:title="The main loop of the menu system.">
<polygon fill="white" stroke="#666666" points="158.75,-20.75 76.75,-20.75 76.75,0 158.75,0 158.75,-20.75"/>
<text xml:space="preserve" text-anchor="middle" x="117.75" y="-7.25" font-family="Helvetica,sans-Serif" font-size="10.00">menu_engine</text>
</a>
</g>
</g>
<!-- Node3&#45;&gt;Node4 -->
<g id="edge3_Node000003_Node000004" class="edge">
<title>Node3&#45;&gt;Node4</title>
<g id="a_edge3_Node000003_Node000004"><a xlink:title=" ">
<path fill="none" stroke="#63b8ff" d="M183.2,-3.63C174.96,-3.67 166.79,-3.84 159.17,-4.15"/>
<polygon fill="#63b8ff" stroke="#63b8ff" points="182.92,-7.13 192.93,-3.66 182.94,-0.13 182.92,-7.13"/>
</a>
</g>
</g>
<!-- Node4&#45;&gt;Node3 -->
<g id="edge5_Node000004_Node000003" class="edge">
<title>Node4&#45;&gt;Node3</title>
<g id="a_edge5_Node000004_Node000003"><a xlink:title=" ">
<path fill="none" stroke="#63b8ff" d="M170.68,-16.95C178.45,-17.12 186.52,-17.17 194.45,-17.09"/>
<polygon fill="#63b8ff" stroke="#63b8ff" points="170.79,-13.45 160.69,-16.65 170.58,-20.45 170.79,-13.45"/>
</a>
</g>
</g>
<!-- Node5 -->
<g id="Node000005" class="node">
<title>Node5</title>
<g id="a_Node000005"><a xlink:href="../../d2/d0a/menu_8c.html#a3c04138a5bfe5d72780bb7e82a18e627" target="_top" xlink:title=" ">
<polygon fill="white" stroke="#666666" points="40.75,-20.75 0,-20.75 0,0 40.75,0 40.75,-20.75"/>
<text xml:space="preserve" text-anchor="middle" x="20.38" y="-7.25" font-family="Helvetica,sans-Serif" font-size="10.00">main</text>
</a>
</g>
</g>
<!-- Node4&#45;&gt;Node5 -->
<g id="edge4_Node000004_Node000005" class="edge">
<title>Node4&#45;&gt;Node5</title>
<g id="a_edge4_Node000004_Node000005"><a xlink:title=" ">
<path fill="none" stroke="#63b8ff" d="M64.79,-10.38C56.36,-10.38 48.1,-10.38 41.09,-10.38"/>
<polygon fill="#63b8ff" stroke="#63b8ff" points="64.79,-13.88 74.79,-10.38 64.79,-6.88 64.79,-13.88"/>
</a>
</g>
</g>
</g>
</svg>
