<?xml version="1.0" encoding="UTF-8" standalone="no"?>
<!DOCTYPE svg PUBLIC "-//W3C//DTD SVG 1.1//EN"
 "http://www.w3.org/Graphics/SVG/1.1/DTD/svg11.dtd">
<!-- Generated by graphviz version 14.1.2 (0)
 -->
<!-- Title: shell Pages: 1 -->
<svg width="1671pt" height="297pt"
 viewBox="0.00 0.00 1671.00 297.00" xmlns="http://www.w3.org/2000/svg" xmlns:xlink="http://www.w3.org/1999/xlink">
<g id="graph0" class="graph" transform="scale(1 1) rotate(0) translate(4 292.75)">
<title>shell</title>
<!-- Node1 -->
<g id="Node000001" class="node">
<title>Node1</title>
<g id="a_Node000001"><a xlink:title="Execute a shell command.">
<polygon fill="#999999" stroke="#666666" points="1662.75,-150.75 1623.5,-150.75 1623.5,-130 1662.75,-130 1662.75,-150.75"/>
<text xml:space="preserve" text-anchor="middle" x="1643.12" y="-137.25" font-family="Helvetica,sans-Serif" font-size="10.00">shell</text>
</a>
</g>
</g>
<!-- Node2 -->
<g id="Node000002" class="node">
<title>Node2</title>
<g id="a_Node000002"><a xlink:href="../../d3/dee/form__engine_8c.html#ab2e6e35d9dba586838b91f54a6dd41a2" target="_top" xlink:title="Execute a provider command specified in the form description file, passing form field values as argum...">
<polygon fill="white" stroke="#666666" points="1587.5,-155.75 1493.5,-155.75 1493.5,-135 1587.5,-135 1587.5,-155.75"/>
<text xml:space="preserve" text-anchor="middle" x="1540.5" y="-142.25" font-family="Helvetica,sans-Serif" font-size="10.00">form_exec_cmd</text>
</a>
</g>
</g>
<!-- Node1&#45;&gt;Node2 -->
<g id="edge1_Node000001_Node000002" class="edge">
<title>Node1&#45;&gt;Node2</title>
<g id="a_edge1_Node000001_Node000002"><a xlink:title=" ">
<path fill="none" stroke="#63b8ff" d="M1611.74,-141.88C1604.23,-142.26 1596.01,-142.67 1587.93,-143.07"/>
<polygon fill="#63b8ff" stroke="#63b8ff" points="1611.87,-145.38 1621.69,-141.39 1611.53,-138.39 1611.87,-145.38"/>
</a>
</g>
</g>
<!-- Node6 -->
<g id="Node000006" class="node">
<title>Node6</title>
<g id="a_Node000006"><a xlink:href="../../d4/dc1/src_2view__engine_8c.html#a9c4b3ba5f73c18b486646c62b933972a" target="_top" xlink:title="Main Command Processing Loop for View.">
<polygon fill="white" stroke="#666666" points="1114,-97.75 996,-97.75 996,-77 1114,-77 1114,-97.75"/>
<text xml:space="preserve" text-anchor="middle" x="1055" y="-84.25" font-family="Helvetica,sans-Serif" font-size="10.00">view_cmd_processor</text>
</a>
</g>
</g>
<!-- Node1&#45;&gt;Node6 -->
<g id="edge32_Node000001_Node000006" class="edge">
<title>Node1&#45;&gt;Node6</title>
<g id="a_edge32_Node000001_Node000006"><a xlink:title=" ">
<path fill="none" stroke="#63b8ff" d="M1619.71,-123.08C1610.16,-116.27 1598.66,-108.81 1587.5,-103.38 1517.09,-69.07 1498.07,-49.38 1419.75,-49.38 1419.75,-49.38 1419.75,-49.38 1312.88,-49.38 1238.04,-49.38 1152.25,-65.35 1101.17,-76.59"/>
<polygon fill="#63b8ff" stroke="#63b8ff" points="1617.51,-125.81 1627.64,-128.91 1621.66,-120.17 1617.51,-125.81"/>
</a>
</g>
</g>
<!-- Node21 -->
<g id="Node000021" class="node">
<title>Node21</title>
<g id="a_Node000021"><a xlink:href="../../df/dc9/exec_8c.html#aeb3e7eb282467134ce50fde7d9ebd19d" target="_top" xlink:title="Execute a shell command in full screen mode.">
<polygon fill="white" stroke="#666666" points="1247.75,-288.75 1150,-288.75 1150,-268 1247.75,-268 1247.75,-288.75"/>
<text xml:space="preserve" text-anchor="middle" x="1198.88" y="-275.25" font-family="Helvetica,sans-Serif" font-size="10.00">full_screen_shell</text>
</a>
</g>
</g>
<!-- Node1&#45;&gt;Node21 -->
<g id="edge27_Node000001_Node000021" class="edge">
<title>Node1&#45;&gt;Node21</title>
<g id="a_edge27_Node000001_Node000021"><a xlink:title=" ">
<path fill="none" stroke="#63b8ff" d="M1612.79,-153.99C1560.11,-177.9 1445.5,-227.43 1344,-254.38 1312.5,-262.74 1276.31,-268.75 1248.07,-272.67"/>
<polygon fill="#63b8ff" stroke="#63b8ff" points="1614.04,-157.27 1621.68,-149.93 1611.13,-150.9 1614.04,-157.27"/>
</a>
</g>
</g>
<!-- Node22 -->
<g id="Node000022" class="node">
<title>Node22</title>
<g id="a_Node000022"><a xlink:href="../../d4/dc1/src_2view__engine_8c.html#a219efbc4d9d70ebc47fafa540b370247" target="_top" xlink:title="Send File to Print Queue.">
<polygon fill="white" stroke="#666666" points="1433.15,-102.75 1404.35,-102.75 1404.35,-82 1433.15,-82 1433.15,-102.75"/>
<text xml:space="preserve" text-anchor="middle" x="1418.75" y="-89.25" font-family="Helvetica,sans-Serif" font-size="10.00">lp</text>
</a>
</g>
</g>
<!-- Node1&#45;&gt;Node22 -->
<g id="edge30_Node000001_Node000022" class="edge">
<title>Node1&#45;&gt;Node22</title>
<g id="a_edge30_Node000001_Node000022"><a xlink:title=" ">
<path fill="none" stroke="#63b8ff" d="M1612.13,-132.4C1604.15,-130.35 1595.51,-128.21 1587.5,-126.38 1530.44,-113.29 1461.86,-100.21 1433.28,-94.88"/>
<polygon fill="#63b8ff" stroke="#63b8ff" points="1611.2,-135.77 1621.76,-134.9 1612.96,-128.99 1611.2,-135.77"/>
</a>
</g>
</g>
<!-- Node3 -->
<g id="Node000003" class="node">
<title>Node3</title>
<g id="a_Node000003"><a xlink:href="../../d3/dee/form__engine_8c.html#ada302551bf41bf8ed6132fd34328a47e" target="_top" xlink:title="Form main processing loop.">
<polygon fill="white" stroke="#666666" points="1457.5,-174.75 1380,-174.75 1380,-154 1457.5,-154 1457.5,-174.75"/>
<text xml:space="preserve" text-anchor="middle" x="1418.75" y="-161.25" font-family="Helvetica,sans-Serif" font-size="10.00">form_engine</text>
</a>
</g>
</g>
<!-- Node2&#45;&gt;Node3 -->
<g id="edge2_Node000002_Node000003" class="edge">
<title>Node2&#45;&gt;Node3</title>
<g id="a_edge2_Node000002_Node000003"><a xlink:title=" ">
<path fill="none" stroke="#63b8ff" d="M1482.06,-154.49C1473.82,-155.8 1465.52,-157.11 1457.78,-158.34"/>
<polygon fill="#63b8ff" stroke="#63b8ff" points="1482.38,-157.98 1491.71,-152.96 1481.28,-151.07 1482.38,-157.98"/>
</a>
</g>
</g>
<!-- Node4 -->
<g id="Node000004" class="node">
<title>Node4</title>
<g id="a_Node000004"><a xlink:href="../../d3/dee/form__engine_8c.html#abf1be20a8aad5f7ba09172ac1434a110" target="_top" xlink:title="Initialize form data structure and parse description file.">
<polygon fill="white" stroke="#666666" points="1344,-174.75 1283.75,-174.75 1283.75,-154 1344,-154 1344,-174.75"/>
<text xml:space="preserve" text-anchor="middle" x="1313.88" y="-161.25" font-family="Helvetica,sans-Serif" font-size="10.00">init_form</text>
</a>
</g>
</g>
<!-- Node3&#45;&gt;Node4 -->
<g id="edge3_Node000003_Node000004" class="edge">
<title>Node3&#45;&gt;Node4</title>
<g id="a_edge3_Node000003_Node000004"><a xlink:title=" ">
<path fill="none" stroke="#63b8ff" d="M1368.3,-164.38C1360.11,-164.38 1351.86,-164.38 1344.37,-164.38"/>
<polygon fill="#63b8ff" stroke="#63b8ff" points="1368.22,-167.88 1378.22,-164.38 1368.22,-160.88 1368.22,-167.88"/>
</a>
</g>
</g>
<!-- Node5 -->
<g id="Node000005" class="node">
<title>Node5</title>
<g id="a_Node000005"><a xlink:href="../../d4/dc1/src_2view__engine_8c.html#a2ffea5674e85f124a70e19f745a66583" target="_top" xlink:title="use form to enter a file specification">
<polygon fill="white" stroke="#666666" points="1244,-135.75 1153.75,-135.75 1153.75,-115 1244,-115 1244,-135.75"/>
<text xml:space="preserve" text-anchor="middle" x="1198.88" y="-122.25" font-family="Helvetica,sans-Serif" font-size="10.00">enter_file_spec</text>
</a>
</g>
</g>
<!-- Node4&#45;&gt;Node5 -->
<g id="edge4_Node000004_Node000005" class="edge">
<title>Node4&#45;&gt;Node5</title>
<g id="a_edge4_Node000004_Node000005"><a xlink:title=" ">
<path fill="none" stroke="#63b8ff" d="M1272.86,-150.56C1259.14,-145.83 1244.01,-140.61 1231.1,-136.15"/>
<polygon fill="#63b8ff" stroke="#63b8ff" points="1271.46,-153.78 1282.05,-153.74 1273.74,-147.17 1271.46,-153.78"/>
</a>
</g>
</g>
<!-- Node15 -->
<g id="Node000015" class="node">
<title>Node15</title>
<g id="a_Node000015"><a xlink:href="../../d6/d18/menu__engine_8c.html#aa5d0e30e7036b72b51c843d0a7e486a1" target="_top" xlink:title="Processes user input for the menu system.">
<polygon fill="white" stroke="#666666" points="317.25,-193.75 194.75,-193.75 194.75,-173 317.25,-173 317.25,-193.75"/>
<text xml:space="preserve" text-anchor="middle" x="256" y="-180.25" font-family="Helvetica,sans-Serif" font-size="10.00">menu_cmd_processor</text>
</a>
</g>
</g>
<!-- Node4&#45;&gt;Node15 -->
<g id="edge26_Node000004_Node000015" class="edge">
<title>Node4&#45;&gt;Node15</title>
<g id="a_edge26_Node000004_Node000015"><a xlink:title=" ">
<path fill="none" stroke="#63b8ff" d="M1272.28,-177.47C1264.22,-179.72 1255.77,-181.82 1247.75,-183.38 1163.67,-199.66 1141.64,-202.38 1056,-202.38 1056,-202.38 1056,-202.38 482.75,-202.38 426.7,-202.38 363.1,-196.49 317.73,-191.27"/>
<polygon fill="#63b8ff" stroke="#63b8ff" points="1273.26,-180.83 1281.88,-174.67 1271.3,-174.11 1273.26,-180.83"/>
</a>
</g>
</g>
<!-- Node20 -->
<g id="Node000020" class="node">
<title>Node20</title>
<g id="a_Node000020"><a xlink:href="../../d5/d97/form_8c.html#a3c04138a5bfe5d72780bb7e82a18e627" target="_top" xlink:title=" ">
<polygon fill="white" stroke="#666666" points="1219.25,-174.75 1178.5,-174.75 1178.5,-154 1219.25,-154 1219.25,-174.75"/>
<text xml:space="preserve" text-anchor="middle" x="1198.88" y="-161.25" font-family="Helvetica,sans-Serif" font-size="10.00">main</text>
</a>
</g>
</g>
<!-- Node4&#45;&gt;Node20 -->
<g id="edge25_Node000004_Node000020" class="edge">
<title>Node4&#45;&gt;Node20</title>
<g id="a_edge25_Node000004_Node000020"><a xlink:title=" ">
<path fill="none" stroke="#63b8ff" d="M1272.12,-164.38C1254.21,-164.38 1234,-164.38 1219.52,-164.38"/>
<polygon fill="#63b8ff" stroke="#63b8ff" points="1271.97,-167.88 1281.97,-164.38 1271.97,-160.88 1271.97,-167.88"/>
</a>
</g>
</g>
<!-- Node5&#45;&gt;Node6 -->
<g id="edge5_Node000005_Node000006" class="edge">
<title>Node5&#45;&gt;Node6</title>
<g id="a_edge5_Node000005_Node000006"><a xlink:title=" ">
<path fill="none" stroke="#63b8ff" d="M1146.95,-111.74C1130.33,-107.28 1112.11,-102.4 1096.38,-98.19"/>
<polygon fill="#63b8ff" stroke="#63b8ff" points="1145.57,-114.99 1156.14,-114.2 1147.38,-108.23 1145.57,-114.99"/>
</a>
</g>
</g>
<!-- Node7 -->
<g id="Node000007" class="node">
<title>Node7</title>
<g id="a_Node000007"><a xlink:href="../../d4/dc1/src_2view__engine_8c.html#a0bd4dc056ab5010547129bb87819789b" target="_top" xlink:title="Start view.">
<polygon fill="white" stroke="#666666" points="960,-97.75 899.75,-97.75 899.75,-77 960,-77 960,-97.75"/>
<text xml:space="preserve" text-anchor="middle" x="929.88" y="-84.25" font-family="Helvetica,sans-Serif" font-size="10.00">view_file</text>
</a>
</g>
</g>
<!-- Node6&#45;&gt;Node7 -->
<g id="edge6_Node000006_Node000007" class="edge">
<title>Node6&#45;&gt;Node7</title>
<g id="a_edge6_Node000006_Node000007"><a xlink:title=" ">
<path fill="none" stroke="#63b8ff" d="M984.44,-87.38C975.94,-87.38 967.64,-87.38 960.22,-87.38"/>
<polygon fill="#63b8ff" stroke="#63b8ff" points="984.17,-90.88 994.17,-87.38 984.17,-83.88 984.17,-90.88"/>
</a>
</g>
</g>
<!-- Node8 -->
<g id="Node000008" class="node">
<title>Node8</title>
<g id="a_Node000008"><a xlink:href="../../da/d97/view_8c.html#a3c04138a5bfe5d72780bb7e82a18e627" target="_top" xlink:title=" ">
<polygon fill="white" stroke="#666666" points="746.12,-59.75 705.38,-59.75 705.38,-39 746.12,-39 746.12,-59.75"/>
<text xml:space="preserve" text-anchor="middle" x="725.75" y="-46.25" font-family="Helvetica,sans-Serif" font-size="10.00">main</text>
</a>
</g>
</g>
<!-- Node7&#45;&gt;Node8 -->
<g id="edge7_Node000007_Node000008" class="edge">
<title>Node7&#45;&gt;Node8</title>
<g id="a_edge7_Node000007_Node000008"><a xlink:title=" ">
<path fill="none" stroke="#63b8ff" d="M888.7,-75.43C880.49,-73.23 871.88,-71.08 863.75,-69.38 822.35,-60.67 773.12,-54.48 746.4,-51.46"/>
<polygon fill="#63b8ff" stroke="#63b8ff" points="887.53,-78.74 898.11,-78.03 889.4,-71.99 887.53,-78.74"/>
</a>
</g>
</g>
<!-- Node9 -->
<g id="Node000009" class="node">
<title>Node9</title>
<g id="a_Node000009"><a xlink:href="../../d2/d98/mview_8c.html#a75a4e7afc9c9aafd3d35ab706f5fdc71" target="_top" xlink:title="subprogram entry point for C&#45;Menu View">
<polygon fill="white" stroke="#666666" points="863.75,-98.75 814.75,-98.75 814.75,-78 863.75,-78 863.75,-98.75"/>
<text xml:space="preserve" text-anchor="middle" x="839.25" y="-85.25" font-family="Helvetica,sans-Serif" font-size="10.00">mview</text>
</a>
</g>
</g>
<!-- Node7&#45;&gt;Node9 -->
<g id="edge8_Node000007_Node000009" class="edge">
<title>Node7&#45;&gt;Node9</title>
<g id="a_edge8_Node000007_Node000009"><a xlink:title=" ">
<path fill="none" stroke="#63b8ff" d="M887.99,-87.84C879.79,-87.93 871.42,-88.02 864.04,-88.11"/>
<polygon fill="#63b8ff" stroke="#63b8ff" points="887.89,-91.34 897.85,-87.73 887.81,-84.34 887.89,-91.34"/>
</a>
</g>
</g>
<!-- Node9&#45;&gt;Node3 -->
<g id="edge20_Node000009_Node000003" class="edge">
<title>Node9&#45;&gt;Node3</title>
<g id="a_edge20_Node000009_Node000003"><a xlink:title=" ">
<path fill="none" stroke="#63b8ff" d="M854.02,-107.86C884.79,-148.87 963.56,-240.38 1054,-240.38 1199.88,-240.38 1199.88,-240.38 1199.88,-240.38 1278.19,-240.38 1363.96,-196.05 1400.12,-175.1"/>
<polygon fill="#63b8ff" stroke="#63b8ff" points="857.03,-106.05 848.3,-100.04 851.38,-110.18 857.03,-106.05"/>
</a>
</g>
</g>
<!-- Node9&#45;&gt;Node8 -->
<g id="edge21_Node000009_Node000008" class="edge">
<title>Node9&#45;&gt;Node8</title>
<g id="a_edge21_Node000009_Node000008"><a xlink:title=" ">
<path fill="none" stroke="#63b8ff" d="M803.52,-76.23C784.77,-69.67 762.3,-61.81 746.54,-56.3"/>
<polygon fill="#63b8ff" stroke="#63b8ff" points="802.31,-79.51 812.9,-79.51 804.62,-72.9 802.31,-79.51"/>
</a>
</g>
</g>
<!-- Node10 -->
<g id="Node000010" class="node">
<title>Node10</title>
<g id="a_Node000010"><a xlink:href="../../db/ddc/pick__engine_8c.html#aeebc4c0b94ca97d753e10a0cd1798730" target="_top" xlink:title="Displays the help screen for the pick interface using mview.">
<polygon fill="white" stroke="#666666" points="777.25,-98.75 674.25,-98.75 674.25,-78 777.25,-78 777.25,-98.75"/>
<text xml:space="preserve" text-anchor="middle" x="725.75" y="-85.25" font-family="Helvetica,sans-Serif" font-size="10.00">display_pick_help</text>
</a>
</g>
</g>
<!-- Node9&#45;&gt;Node10 -->
<g id="edge9_Node000009_Node000010" class="edge">
<title>Node9&#45;&gt;Node10</title>
<g id="a_edge9_Node000009_Node000010"><a xlink:title=" ">
<path fill="none" stroke="#63b8ff" d="M803.08,-88.38C795,-88.38 786.26,-88.38 777.67,-88.38"/>
<polygon fill="#63b8ff" stroke="#63b8ff" points="802.82,-91.88 812.82,-88.38 802.82,-84.88 802.82,-91.88"/>
</a>
</g>
</g>
<!-- Node9&#45;&gt;Node15 -->
<g id="edge22_Node000009_Node000015" class="edge">
<title>Node9&#45;&gt;Node15</title>
<g id="a_edge22_Node000009_Node000015"><a xlink:title=" ">
<path fill="none" stroke="#63b8ff" d="M816.39,-106.13C805.64,-114.04 792.12,-122.81 778.75,-128.38 703.07,-159.85 679.84,-164.38 597.88,-164.38 597.88,-164.38 597.88,-164.38 482.75,-164.38 426.7,-164.38 363.1,-170.26 317.73,-175.48"/>
<polygon fill="#63b8ff" stroke="#63b8ff" points="818.4,-109 824.22,-100.14 814.15,-103.44 818.4,-109"/>
</a>
</g>
</g>
<!-- Node18 -->
<g id="Node000018" class="node">
<title>Node18</title>
<g id="a_Node000018"><a xlink:href="../../db/ddc/pick__engine_8c.html#af7fcbb1c8b67a4d11c86ba7209f397c2" target="_top" xlink:title="Executes specified command with selected objects as arguments.">
<polygon fill="white" stroke="#666666" points="636.75,-136.75 557,-136.75 557,-116 636.75,-116 636.75,-136.75"/>
<text xml:space="preserve" text-anchor="middle" x="596.88" y="-123.25" font-family="Helvetica,sans-Serif" font-size="10.00">exec_objects</text>
</a>
</g>
</g>
<!-- Node9&#45;&gt;Node18 -->
<g id="edge18_Node000009_Node000018" class="edge">
<title>Node9&#45;&gt;Node18</title>
<g id="a_edge18_Node000009_Node000018"><a xlink:title=" ">
<path fill="none" stroke="#63b8ff" d="M803.58,-100.76C795.52,-103.27 786.9,-105.66 778.75,-107.38 730.54,-117.49 673.92,-122.33 637.04,-124.57"/>
<polygon fill="#63b8ff" stroke="#63b8ff" points="804.66,-104.09 813.08,-97.65 802.49,-97.43 804.66,-104.09"/>
</a>
</g>
</g>
<!-- Node19 -->
<g id="Node000019" class="node">
<title>Node19</title>
<g id="a_Node000019"><a xlink:href="../../d4/dc1/src_2view__engine_8c.html#ad997ba9f8591568c77291fb1b44601b2" target="_top" xlink:title="Display View Help File.">
<polygon fill="white" stroke="#666666" points="778.75,-20.75 672.75,-20.75 672.75,0 778.75,0 778.75,-20.75"/>
<text xml:space="preserve" text-anchor="middle" x="725.75" y="-7.25" font-family="Helvetica,sans-Serif" font-size="10.00">view_display_help</text>
</a>
</g>
</g>
<!-- Node9&#45;&gt;Node19 -->
<g id="edge23_Node000009_Node000019" class="edge">
<title>Node9&#45;&gt;Node19</title>
<g id="a_edge23_Node000009_Node000019"><a xlink:title=" ">
<path fill="none" stroke="#63b8ff" d="M822.37,-69.29C811.21,-56.85 795.36,-41.02 778.75,-30.38 773.21,-26.83 766.95,-23.75 760.73,-21.15"/>
<polygon fill="#63b8ff" stroke="#63b8ff" points="819.41,-71.22 828.61,-76.47 824.7,-66.63 819.41,-71.22"/>
</a>
</g>
</g>
<!-- Node11 -->
<g id="Node000011" class="node">
<title>Node11</title>
<g id="a_Node000011"><a xlink:href="../../db/ddc/pick__engine_8c.html#abb0969a6d1c7e78be46c3b325754c802" target="_top" xlink:title="Main loop to handle user input and interactions for pick interface.">
<polygon fill="white" stroke="#666666" points="619.5,-97.75 574.25,-97.75 574.25,-77 619.5,-77 619.5,-97.75"/>
<text xml:space="preserve" text-anchor="middle" x="596.88" y="-84.25" font-family="Helvetica,sans-Serif" font-size="10.00">picker</text>
</a>
</g>
</g>
<!-- Node10&#45;&gt;Node11 -->
<g id="edge10_Node000010_Node000011" class="edge">
<title>Node10&#45;&gt;Node11</title>
<g id="a_edge10_Node000010_Node000011"><a xlink:title=" ">
<path fill="none" stroke="#63b8ff" d="M662.77,-87.89C647.41,-87.77 631.94,-87.64 619.96,-87.55"/>
<polygon fill="#63b8ff" stroke="#63b8ff" points="662.34,-91.38 672.36,-87.96 662.39,-84.38 662.34,-91.38"/>
</a>
</g>
</g>
<!-- Node12 -->
<g id="Node000012" class="node">
<title>Node12</title>
<g id="a_Node000012"><a xlink:href="../../db/ddc/pick__engine_8c.html#ab97dcab41017c5132f52b682437a151e" target="_top" xlink:title="Initializes pick interface, calculates window size and position, and enters picker loop.">
<polygon fill="white" stroke="#666666" points="521,-136.75 446.5,-136.75 446.5,-116 521,-116 521,-136.75"/>
<text xml:space="preserve" text-anchor="middle" x="483.75" y="-123.25" font-family="Helvetica,sans-Serif" font-size="10.00">pick_engine</text>
</a>
</g>
</g>
<!-- Node11&#45;&gt;Node12 -->
<g id="edge11_Node000011_Node000012" class="edge">
<title>Node11&#45;&gt;Node12</title>
<g id="a_edge11_Node000011_Node000012"><a xlink:title=" ">
<path fill="none" stroke="#63b8ff" d="M563.48,-98.75C548.34,-104.06 530.41,-110.35 515.49,-115.59"/>
<polygon fill="#63b8ff" stroke="#63b8ff" points="564.22,-102.2 572.49,-95.58 561.9,-95.59 564.22,-102.2"/>
</a>
</g>
</g>
<!-- Node13 -->
<g id="Node000013" class="node">
<title>Node13</title>
<g id="a_Node000013"><a xlink:href="../../db/ddc/pick__engine_8c.html#a1b2ee87543245e612c1710ea58930a17" target="_top" xlink:title="Initializes pick structure and opens pick input file or pipe.">
<polygon fill="white" stroke="#666666" points="410.5,-136.75 353.25,-136.75 353.25,-116 410.5,-116 410.5,-136.75"/>
<text xml:space="preserve" text-anchor="middle" x="381.88" y="-123.25" font-family="Helvetica,sans-Serif" font-size="10.00">init_pick</text>
</a>
</g>
</g>
<!-- Node12&#45;&gt;Node13 -->
<g id="edge12_Node000012_Node000013" class="edge">
<title>Node12&#45;&gt;Node13</title>
<g id="a_edge12_Node000012_Node000013"><a xlink:title=" ">
<path fill="none" stroke="#63b8ff" d="M434.66,-126.38C426.46,-126.38 418.18,-126.38 410.73,-126.38"/>
<polygon fill="#63b8ff" stroke="#63b8ff" points="434.61,-129.88 444.61,-126.38 434.61,-122.88 434.61,-129.88"/>
</a>
</g>
</g>
<!-- Node14 -->
<g id="Node000014" class="node">
<title>Node14</title>
<g id="a_Node000014"><a xlink:href="../../de/d7c/pick_8c.html#a3c04138a5bfe5d72780bb7e82a18e627" target="_top" xlink:title=" ">
<polygon fill="white" stroke="#666666" points="276.38,-136.75 235.62,-136.75 235.62,-116 276.38,-116 276.38,-136.75"/>
<text xml:space="preserve" text-anchor="middle" x="256" y="-123.25" font-family="Helvetica,sans-Serif" font-size="10.00">main</text>
</a>
</g>
</g>
<!-- Node13&#45;&gt;Node14 -->
<g id="edge13_Node000013_Node000014" class="edge">
<title>Node13&#45;&gt;Node14</title>
<g id="a_edge13_Node000013_Node000014"><a xlink:title=" ">
<path fill="none" stroke="#63b8ff" d="M341.27,-126.38C319.64,-126.38 293.83,-126.38 276.52,-126.38"/>
<polygon fill="#63b8ff" stroke="#63b8ff" points="341.25,-129.88 351.25,-126.38 341.25,-122.88 341.25,-129.88"/>
</a>
</g>
</g>
<!-- Node13&#45;&gt;Node15 -->
<g id="edge14_Node000013_Node000015" class="edge">
<title>Node13&#45;&gt;Node15</title>
<g id="a_edge14_Node000013_Node000015"><a xlink:title=" ">
<path fill="none" stroke="#63b8ff" d="M346.83,-142.04C325.76,-151.73 299.25,-163.93 280.5,-172.56"/>
<polygon fill="#63b8ff" stroke="#63b8ff" points="348.29,-145.22 355.91,-137.86 345.36,-138.86 348.29,-145.22"/>
</a>
</g>
</g>
<!-- Node16 -->
<g id="Node000016" class="node">
<title>Node16</title>
<g id="a_Node000016"><a xlink:href="../../d6/d18/menu__engine_8c.html#a7d7973d7aac92759dcc86ec52bb038f4" target="_top" xlink:title="The main loop of the menu system.">
<polygon fill="white" stroke="#666666" points="158.75,-193.75 76.75,-193.75 76.75,-173 158.75,-173 158.75,-193.75"/>
<text xml:space="preserve" text-anchor="middle" x="117.75" y="-180.25" font-family="Helvetica,sans-Serif" font-size="10.00">menu_engine</text>
</a>
</g>
</g>
<!-- Node15&#45;&gt;Node16 -->
<g id="edge15_Node000015_Node000016" class="edge">
<title>Node15&#45;&gt;Node16</title>
<g id="a_edge15_Node000015_Node000016"><a xlink:title=" ">
<path fill="none" stroke="#63b8ff" d="M183.2,-176.63C174.96,-176.67 166.79,-176.84 159.17,-177.15"/>
<polygon fill="#63b8ff" stroke="#63b8ff" points="182.92,-180.13 192.93,-176.66 182.94,-173.13 182.92,-180.13"/>
</a>
</g>
</g>
<!-- Node16&#45;&gt;Node15 -->
<g id="edge17_Node000016_Node000015" class="edge">
<title>Node16&#45;&gt;Node15</title>
<g id="a_edge17_Node000016_Node000015"><a xlink:title=" ">
<path fill="none" stroke="#63b8ff" d="M170.68,-189.95C178.45,-190.12 186.52,-190.17 194.45,-190.09"/>
<polygon fill="#63b8ff" stroke="#63b8ff" points="170.79,-186.45 160.69,-189.65 170.58,-193.45 170.79,-186.45"/>
</a>
</g>
</g>
<!-- Node17 -->
<g id="Node000017" class="node">
<title>Node17</title>
<g id="a_Node000017"><a xlink:href="../../d2/d0a/menu_8c.html#a3c04138a5bfe5d72780bb7e82a18e627" target="_top" xlink:title=" ">
<polygon fill="white" stroke="#666666" points="40.75,-193.75 0,-193.75 0,-173 40.75,-173 40.75,-193.75"/>
<text xml:space="preserve" text-anchor="middle" x="20.38" y="-180.25" font-family="Helvetica,sans-Serif" font-size="10.00">main</text>
</a>
</g>
</g>
<!-- Node16&#45;&gt;Node17 -->
<g id="edge16_Node000016_Node000017" class="edge">
<title>Node16&#45;&gt;Node17</title>
<g id="a_edge16_Node000016_Node000017"><a xlink:title=" ">
<path fill="none" stroke="#63b8ff" d="M64.79,-183.38C56.36,-183.38 48.1,-183.38 41.09,-183.38"/>
<polygon fill="#63b8ff" stroke="#63b8ff" points="64.79,-186.88 74.79,-183.38 64.79,-179.88 64.79,-186.88"/>
</a>
</g>
</g>
<!-- Node18&#45;&gt;Node12 -->
<g id="edge19_Node000018_Node000012" class="edge">
<title>Node18&#45;&gt;Node12</title>
<g id="a_edge19_Node000018_Node000012"><a xlink:title=" ">
<path fill="none" stroke="#63b8ff" d="M545.4,-126.38C537.3,-126.38 529.04,-126.38 521.34,-126.38"/>
<polygon fill="#63b8ff" stroke="#63b8ff" points="545.18,-129.88 555.18,-126.38 545.18,-122.88 545.18,-129.88"/>
</a>
</g>
</g>
<!-- Node19&#45;&gt;Node6 -->
<g id="edge24_Node000019_Node000006" class="edge">
<title>Node19&#45;&gt;Node6</title>
<g id="a_edge24_Node000019_Node000006"><a xlink:title=" ">
<path fill="none" stroke="#63b8ff" d="M783.73,-23.78C847.32,-38.74 948.97,-62.66 1007.81,-76.51"/>
<polygon fill="#63b8ff" stroke="#63b8ff" points="784.72,-20.42 774.18,-21.54 783.11,-27.23 784.72,-20.42"/>
</a>
</g>
</g>
<!-- Node21&#45;&gt;Node6 -->
<g id="edge29_Node000021_Node000006" class="edge">
<title>Node21&#45;&gt;Node6</title>
<g id="a_edge29_Node000021_Node000006"><a xlink:title=" ">
<path fill="none" stroke="#63b8ff" d="M1183.1,-258.49C1153.3,-218.36 1086.86,-128.91 1063.95,-98.07"/>
<polygon fill="#63b8ff" stroke="#63b8ff" points="1180.17,-260.4 1188.94,-266.34 1185.78,-256.23 1180.17,-260.4"/>
</a>
</g>
</g>
<!-- Node21&#45;&gt;Node15 -->
<g id="edge28_Node000021_Node000015" class="edge">
<title>Node21&#45;&gt;Node15</title>
<g id="a_edge28_Node000021_Node000015"><a xlink:title=" ">
<path fill="none" stroke="#63b8ff" d="M1138.19,-278.38C1084.08,-278.38 1002.13,-278.38 930.88,-278.38 930.88,-278.38 930.88,-278.38 482.75,-278.38 396.64,-278.38 305.51,-218.93 271.18,-194.09"/>
<polygon fill="#63b8ff" stroke="#63b8ff" points="1138.13,-281.88 1148.13,-278.38 1138.13,-274.88 1138.13,-281.88"/>
</a>
</g>
</g>
<!-- Node22&#45;&gt;Node6 -->
<g id="edge31_Node000022_Node000006" class="edge">
<title>Node22&#45;&gt;Node6</title>
<g id="a_edge31_Node000022_Node000006"><a xlink:title=" ">
<path fill="none" stroke="#63b8ff" d="M1392.53,-92.03C1335.32,-91.24 1194.46,-89.29 1114.29,-88.18"/>
<polygon fill="#63b8ff" stroke="#63b8ff" points="1392.45,-95.53 1402.5,-92.16 1392.55,-88.53 1392.45,-95.53"/>
</a>
</g>
</g>
</g>
</svg>
