<?xml version="1.0" encoding="UTF-8" standalone="no"?>
<!DOCTYPE svg PUBLIC "-//W3C//DTD SVG 1.1//EN"
 "http://www.w3.org/Graphics/SVG/1.1/DTD/svg11.dtd">
<!-- Generated by graphviz version 14.1.2 (0)
 -->
<!-- Title: verify_file Pages: 1 -->
<svg width="763pt" height="514pt"
 viewBox="0.00 0.00 763.00 514.00" xmlns="http://www.w3.org/2000/svg" xmlns:xlink="http://www.w3.org/1999/xlink">
<g id="graph0" class="graph" transform="scale(1 1) rotate(0) translate(4 509.52)">
<title>verify_file</title>
<!-- Node1 -->
<g id="Node000001" class="node">
<title>Node1</title>
<g id="a_Node000001"><a xlink:title="Verifies that the file specified by &quot;in_spec&quot; exists and is accessible with the permissions specified...">
<polygon fill="#999999" stroke="#666666" points="65.5,-419.63 0,-419.63 0,-398.88 65.5,-398.88 65.5,-419.63"/>
<text xml:space="preserve" text-anchor="middle" x="32.75" y="-406.13" font-family="Helvetica,sans-Serif" font-size="10.00">verify_file</text>
</a>
</g>
</g>
<!-- Node2 -->
<g id="Node000002" class="node">
<title>Node2</title>
<g id="a_Node000002"><a xlink:href="../../d0/d59/futil_8c.html#a0d44c51feb7f300fecb49dbf223a62f8" target="_top" xlink:title="Removes quotes and trims at first space.">
<polygon fill="white" stroke="#666666" points="227,-476.63 101.5,-476.63 101.5,-455.88 227,-455.88 227,-476.63"/>
<text xml:space="preserve" text-anchor="middle" x="164.25" y="-463.13" font-family="Helvetica,sans-Serif" font-size="10.00">canonicalize_file_spec</text>
</a>
</g>
</g>
<!-- Node1&#45;&gt;Node2 -->
<g id="edge1_Node000001_Node000002" class="edge">
<title>Node1&#45;&gt;Node2</title>
<g id="a_edge1_Node000001_Node000002"><a xlink:title=" ">
<path fill="none" stroke="#63b8ff" d="M58.41,-420.11C78.22,-428.82 106.27,-441.17 128.37,-450.9"/>
<polygon fill="#63b8ff" stroke="#63b8ff" points="126.73,-454 137.29,-454.83 129.55,-447.6 126.73,-454"/>
</a>
</g>
</g>
<!-- Node3 -->
<g id="Node000003" class="node">
<title>Node3</title>
<g id="a_Node000003"><a xlink:href="../../d0/d59/futil_8c.html#a0de2e40df9bd7efc8fd9afb8ad2257e6" target="_top" xlink:title="safer alternative to strncpy">
<polygon fill="white" stroke="#666666" points="472.38,-457.63 404.62,-457.63 404.62,-436.88 472.38,-436.88 472.38,-457.63"/>
<text xml:space="preserve" text-anchor="middle" x="438.5" y="-444.13" font-family="Helvetica,sans-Serif" font-size="10.00">strnz__cpy</text>
</a>
</g>
</g>
<!-- Node1&#45;&gt;Node3 -->
<g id="edge32_Node000001_Node000003" class="edge">
<title>Node1&#45;&gt;Node3</title>
<g id="a_edge32_Node000001_Node000003"><a xlink:title=" ">
<path fill="none" stroke="#63b8ff" d="M39.29,-419.89C49.09,-437.41 71.34,-471.73 101.5,-485.25 203.58,-531.01 339.86,-487.59 402.87,-462.4"/>
<polygon fill="#63b8ff" stroke="#63b8ff" points="404.07,-465.69 412,-458.66 401.42,-459.21 404.07,-465.69"/>
</a>
</g>
</g>
<!-- Node4 -->
<g id="Node000004" class="node">
<title>Node4</title>
<g id="a_Node000004"><a xlink:href="../../dc/d40/dwin_8c.html#a67659f8a701b74f4dec0d36227a10d1c" target="_top" xlink:title="Display an error message window or print to stderr.">
<polygon fill="white" stroke="#666666" points="204.12,-224.63 124.38,-224.63 124.38,-203.88 204.12,-203.88 204.12,-224.63"/>
<text xml:space="preserve" text-anchor="middle" x="164.25" y="-211.13" font-family="Helvetica,sans-Serif" font-size="10.00">display_error</text>
</a>
</g>
</g>
<!-- Node1&#45;&gt;Node4 -->
<g id="edge3_Node000001_Node000004" class="edge">
<title>Node1&#45;&gt;Node4</title>
<g id="a_edge3_Node000001_Node000004"><a xlink:title=" ">
<path fill="none" stroke="#63b8ff" d="M40.9,-398.49C61.77,-367.05 122.9,-275.02 150.02,-234.17"/>
<polygon fill="#63b8ff" stroke="#63b8ff" points="152.83,-236.27 155.45,-226 147,-232.4 152.83,-236.27"/>
</a>
</g>
</g>
<!-- Node14 -->
<g id="Node000014" class="node">
<title>Node14</title>
<g id="a_Node000014"><a xlink:href="../../d0/d59/futil_8c.html#a63eb94756fb011a456a3dec900709cd8" target="_top" xlink:title="ssnprintf was designed to be a safer alternative to snprintf.">
<polygon fill="white" stroke="#666666" points="467.88,-32.63 409.12,-32.63 409.12,-11.88 467.88,-11.88 467.88,-32.63"/>
<text xml:space="preserve" text-anchor="middle" x="438.5" y="-19.13" font-family="Helvetica,sans-Serif" font-size="10.00">ssnprintf</text>
</a>
</g>
</g>
<!-- Node1&#45;&gt;Node14 -->
<g id="edge31_Node000001_Node000014" class="edge">
<title>Node1&#45;&gt;Node14</title>
<g id="a_edge31_Node000001_Node000014"><a xlink:title=" ">
<path fill="none" stroke="#63b8ff" d="M35.44,-398.72C44.97,-343.48 97.59,-86.89 263,-12.25 306.11,7.2 361.42,-0.74 398.09,-9.93"/>
<polygon fill="#63b8ff" stroke="#63b8ff" points="396.81,-13.21 407.37,-12.41 398.61,-6.45 396.81,-13.21"/>
</a>
</g>
</g>
<!-- Node22 -->
<g id="Node000022" class="node">
<title>Node22</title>
<g id="a_Node000022"><a xlink:href="../../d0/d59/futil_8c.html#ad7f9941ba28a6cca3ccce953c4d77e32" target="_top" xlink:title="Replace Leading Tilde With Home Directory.">
<polygon fill="white" stroke="#666666" points="349.12,-419.63 270.12,-419.63 270.12,-398.88 349.12,-398.88 349.12,-419.63"/>
<text xml:space="preserve" text-anchor="middle" x="309.62" y="-406.13" font-family="Helvetica,sans-Serif" font-size="10.00">expand_tilde</text>
</a>
</g>
</g>
<!-- Node1&#45;&gt;Node22 -->
<g id="edge28_Node000001_Node000022" class="edge">
<title>Node1&#45;&gt;Node22</title>
<g id="a_edge28_Node000001_Node000022"><a xlink:title=" ">
<path fill="none" stroke="#63b8ff" d="M65.82,-409.25C113.15,-409.25 202.16,-409.25 258.26,-409.25"/>
<polygon fill="#63b8ff" stroke="#63b8ff" points="258.19,-412.75 268.19,-409.25 258.19,-405.75 258.19,-412.75"/>
</a>
</g>
</g>
<!-- Node2&#45;&gt;Node3 -->
<g id="edge2_Node000002_Node000003" class="edge">
<title>Node2&#45;&gt;Node3</title>
<g id="a_edge2_Node000002_Node000003"><a xlink:title=" ">
<path fill="none" stroke="#63b8ff" d="M227.32,-466.89C264.75,-466.71 313.34,-465.49 356.25,-461.25 368.34,-460.06 381.34,-458.12 393.33,-456.06"/>
<polygon fill="#63b8ff" stroke="#63b8ff" points="393.73,-459.54 402.95,-454.33 392.49,-452.65 393.73,-459.54"/>
</a>
</g>
</g>
<!-- Node4&#45;&gt;Node3 -->
<g id="edge19_Node000004_Node000003" class="edge">
<title>Node4&#45;&gt;Node3</title>
<g id="a_edge19_Node000004_Node000003"><a xlink:title=" ">
<path fill="none" stroke="#63b8ff" d="M166.49,-225.01C171.25,-260.84 191.8,-376.84 263,-428.25 300.5,-455.33 354.89,-456.98 392.94,-453.83"/>
<polygon fill="#63b8ff" stroke="#63b8ff" points="393.08,-457.34 402.69,-452.87 392.39,-450.37 393.08,-457.34"/>
</a>
</g>
</g>
<!-- Node5 -->
<g id="Node000005" class="node">
<title>Node5</title>
<g id="a_Node000005"><a xlink:href="../../dc/d40/dwin_8c.html#a8f6c45ca4a7f6a41c4c88314e697565a" target="_top" xlink:title="Abnormal program termination.">
<polygon fill="white" stroke="#666666" points="461.5,-156.63 415.5,-156.63 415.5,-135.88 461.5,-135.88 461.5,-156.63"/>
<text xml:space="preserve" text-anchor="middle" x="438.5" y="-143.13" font-family="Helvetica,sans-Serif" font-size="10.00">abend</text>
</a>
</g>
</g>
<!-- Node4&#45;&gt;Node5 -->
<g id="edge4_Node000004_Node000005" class="edge">
<title>Node4&#45;&gt;Node5</title>
<g id="a_edge4_Node000004_Node000005"><a xlink:title=" ">
<path fill="none" stroke="#63b8ff" d="M178.5,-203.54C196.42,-189.74 229.97,-166.34 263,-156.25 310.32,-141.8 368.16,-141.7 403.92,-143.54"/>
<polygon fill="#63b8ff" stroke="#63b8ff" points="403.45,-147.01 413.64,-144.12 403.87,-140.03 403.45,-147.01"/>
</a>
</g>
</g>
<!-- Node9 -->
<g id="Node000009" class="node">
<title>Node9</title>
<g id="a_Node000009"><a xlink:href="../../dc/d40/dwin_8c.html#a645871e46277e31736bc36d0f3dce4bd" target="_top" xlink:title="construct the chyron string from the chyron structure">
<polygon fill="white" stroke="#666666" points="356.25,-263.63 263,-263.63 263,-242.88 356.25,-242.88 356.25,-263.63"/>
<text xml:space="preserve" text-anchor="middle" x="309.62" y="-250.13" font-family="Helvetica,sans-Serif" font-size="10.00">compile_chyron</text>
</a>
</g>
</g>
<!-- Node4&#45;&gt;Node9 -->
<g id="edge10_Node000004_Node000009" class="edge">
<title>Node4&#45;&gt;Node9</title>
<g id="a_edge10_Node000004_Node000009"><a xlink:title=" ">
<path fill="none" stroke="#63b8ff" d="M204.43,-224.91C220.97,-229.41 240.43,-234.7 258.03,-239.49"/>
<polygon fill="#63b8ff" stroke="#63b8ff" points="256.97,-242.83 267.54,-242.08 258.81,-236.07 256.97,-242.83"/>
</a>
</g>
</g>
<!-- Node11 -->
<g id="Node000011" class="node">
<title>Node11</title>
<g id="a_Node000011"><a xlink:href="../../dc/d40/dwin_8c.html#a3f3feb40fd703913c5c136331f627c91" target="_top" xlink:title="Destroy Chyron structure.">
<polygon fill="white" stroke="#666666" points="355.12,-70.63 264.12,-70.63 264.12,-49.88 355.12,-49.88 355.12,-70.63"/>
<text xml:space="preserve" text-anchor="middle" x="309.62" y="-57.13" font-family="Helvetica,sans-Serif" font-size="10.00">destroy_chyron</text>
</a>
</g>
</g>
<!-- Node4&#45;&gt;Node11 -->
<g id="edge12_Node000004_Node000011" class="edge">
<title>Node4&#45;&gt;Node11</title>
<g id="a_edge12_Node000004_Node000011"><a xlink:title=" ">
<path fill="none" stroke="#63b8ff" d="M170.41,-203.74C183.01,-179.05 217.66,-116.69 263,-80.25 264.67,-78.91 266.44,-77.64 268.28,-76.45"/>
<polygon fill="#63b8ff" stroke="#63b8ff" points="269.57,-79.74 276.57,-71.78 266.14,-73.64 269.57,-79.74"/>
</a>
</g>
</g>
<!-- Node12 -->
<g id="Node000012" class="node">
<title>Node12</title>
<g id="a_Node000012"><a xlink:href="../../dc/d40/dwin_8c.html#ad37d5808ff30ae6894780425d865abae" target="_top" xlink:title="Create and initialize Chyron structure.">
<polygon fill="white" stroke="#666666" points="346.88,-185.63 272.38,-185.63 272.38,-164.88 346.88,-164.88 346.88,-185.63"/>
<text xml:space="preserve" text-anchor="middle" x="309.62" y="-172.13" font-family="Helvetica,sans-Serif" font-size="10.00">new_chyron</text>
</a>
</g>
</g>
<!-- Node4&#45;&gt;Node12 -->
<g id="edge13_Node000004_Node000012" class="edge">
<title>Node4&#45;&gt;Node12</title>
<g id="a_edge13_Node000004_Node000012"><a xlink:title=" ">
<path fill="none" stroke="#63b8ff" d="M204.43,-203.6C221.87,-198.85 242.56,-193.22 260.9,-188.24"/>
<polygon fill="#63b8ff" stroke="#63b8ff" points="261.77,-191.63 270.5,-185.62 259.93,-184.87 261.77,-191.63"/>
</a>
</g>
</g>
<!-- Node13 -->
<g id="Node000013" class="node">
<title>Node13</title>
<g id="a_Node000013"><a xlink:href="../../dc/d40/dwin_8c.html#a208ce92c197fdd6d2b007987e534aa3b" target="_top" xlink:title="Set chyron key.">
<polygon fill="white" stroke="#666666" points="355.5,-109.63 263.75,-109.63 263.75,-88.88 355.5,-88.88 355.5,-109.63"/>
<text xml:space="preserve" text-anchor="middle" x="309.62" y="-96.13" font-family="Helvetica,sans-Serif" font-size="10.00">set_chyron_key</text>
</a>
</g>
</g>
<!-- Node4&#45;&gt;Node13 -->
<g id="edge15_Node000004_Node000013" class="edge">
<title>Node4&#45;&gt;Node13</title>
<g id="a_edge15_Node000004_Node000013"><a xlink:title=" ">
<path fill="none" stroke="#63b8ff" d="M175.02,-203.45C191.78,-185.33 227.64,-148.34 263,-123.25 266.86,-120.51 271.07,-117.88 275.33,-115.43"/>
<polygon fill="#63b8ff" stroke="#63b8ff" points="276.74,-118.65 283.85,-110.8 273.39,-112.5 276.74,-118.65"/>
</a>
</g>
</g>
<!-- Node4&#45;&gt;Node14 -->
<g id="edge17_Node000004_Node000014" class="edge">
<title>Node4&#45;&gt;Node14</title>
<g id="a_edge17_Node000004_Node000014"><a xlink:title=" ">
<path fill="none" stroke="#63b8ff" d="M167.61,-203.81C175.22,-172.85 202.21,-81.29 263,-41.25 303.13,-14.82 360.03,-13.74 397.82,-16.81"/>
<polygon fill="#63b8ff" stroke="#63b8ff" points="397.09,-20.26 407.38,-17.73 397.76,-13.29 397.09,-20.26"/>
</a>
</g>
</g>
<!-- Node15 -->
<g id="Node000015" class="node">
<title>Node15</title>
<g id="a_Node000015"><a xlink:href="../../d0/d59/futil_8c.html#a636608f26d1193b5d860f2312cd8ee49" target="_top" xlink:title="terminates string at New Line, Carriage Return, or max_len">
<polygon fill="white" stroke="#666666" points="329.62,-341.63 289.62,-341.63 289.62,-320.88 329.62,-320.88 329.62,-341.63"/>
<text xml:space="preserve" text-anchor="middle" x="309.62" y="-328.13" font-family="Helvetica,sans-Serif" font-size="10.00">strnz</text>
</a>
</g>
</g>
<!-- Node4&#45;&gt;Node15 -->
<g id="edge18_Node000004_Node000015" class="edge">
<title>Node4&#45;&gt;Node15</title>
<g id="a_edge18_Node000004_Node000015"><a xlink:title=" ">
<path fill="none" stroke="#63b8ff" d="M173.65,-224.87C189.41,-244.21 225.24,-285.57 263,-311.25 267.88,-314.57 273.4,-317.54 278.87,-320.12"/>
<polygon fill="#63b8ff" stroke="#63b8ff" points="277.2,-323.21 287.77,-323.96 279.98,-316.78 277.2,-323.21"/>
</a>
</g>
</g>
<!-- Node16 -->
<g id="Node000016" class="node">
<title>Node16</title>
<g id="a_Node000016"><a xlink:href="../../dc/d40/dwin_8c.html#a9dd598e1d49c8764af1eec42c682623e" target="_top" xlink:title="Delete the current window and its associated box window.">
<polygon fill="white" stroke="#666666" points="336.38,-302.63 282.88,-302.63 282.88,-281.88 336.38,-281.88 336.38,-302.63"/>
<text xml:space="preserve" text-anchor="middle" x="309.62" y="-289.13" font-family="Helvetica,sans-Serif" font-size="10.00">win_del</text>
</a>
</g>
</g>
<!-- Node4&#45;&gt;Node16 -->
<g id="edge20_Node000004_Node000016" class="edge">
<title>Node4&#45;&gt;Node16</title>
<g id="a_edge20_Node000004_Node000016"><a xlink:title=" ">
<path fill="none" stroke="#63b8ff" d="M181.85,-224.95C201.02,-237.11 233.68,-257.2 263,-272.25 266.06,-273.82 269.26,-275.39 272.5,-276.91"/>
<polygon fill="#63b8ff" stroke="#63b8ff" points="270.86,-280.01 281.41,-280.96 273.75,-273.63 270.86,-280.01"/>
</a>
</g>
</g>
<!-- Node17 -->
<g id="Node000017" class="node">
<title>Node17</title>
<g id="a_Node000017"><a xlink:href="../../dc/d40/dwin_8c.html#a435c7bff7ffedb8f51c6de9259e36f6c" target="_top" xlink:title="Create a new window with optional box and title.">
<polygon fill="white" stroke="#666666" points="339,-380.63 280.25,-380.63 280.25,-359.88 339,-359.88 339,-380.63"/>
<text xml:space="preserve" text-anchor="middle" x="309.62" y="-367.13" font-family="Helvetica,sans-Serif" font-size="10.00">win_new</text>
</a>
</g>
</g>
<!-- Node4&#45;&gt;Node17 -->
<g id="edge21_Node000004_Node000017" class="edge">
<title>Node4&#45;&gt;Node17</title>
<g id="a_edge21_Node000004_Node000017"><a xlink:title=" ">
<path fill="none" stroke="#63b8ff" d="M170.37,-224.92C182.88,-249.99 217.34,-313.3 263,-350.25 265.1,-351.95 267.36,-353.53 269.72,-355"/>
<polygon fill="#63b8ff" stroke="#63b8ff" points="267.98,-358.04 278.44,-359.69 271.29,-351.87 267.98,-358.04"/>
</a>
</g>
</g>
<!-- Node19 -->
<g id="Node000019" class="node">
<title>Node19</title>
<g id="a_Node000019"><a xlink:href="../../dc/d40/dwin_8c.html#acf4c709bccc4c965a5d61db978db31a3" target="_top" xlink:title="Wrapper for wgetch that handles signals and mouse events.">
<polygon fill="white" stroke="#666666" points="338.25,-224.63 281,-224.63 281,-203.88 338.25,-203.88 338.25,-224.63"/>
<text xml:space="preserve" text-anchor="middle" x="309.62" y="-211.13" font-family="Helvetica,sans-Serif" font-size="10.00">xwgetch</text>
</a>
</g>
</g>
<!-- Node4&#45;&gt;Node19 -->
<g id="edge24_Node000004_Node000019" class="edge">
<title>Node4&#45;&gt;Node19</title>
<g id="a_edge24_Node000004_Node000019"><a xlink:title=" ">
<path fill="none" stroke="#63b8ff" d="M204.43,-208.16C224.67,-207.28 249.29,-207.28 269.52,-208.17"/>
<polygon fill="#63b8ff" stroke="#63b8ff" points="269.17,-211.65 279.34,-208.7 269.55,-204.66 269.17,-211.65"/>
</a>
</g>
</g>
<!-- Node6 -->
<g id="Node000006" class="node">
<title>Node6</title>
<g id="a_Node000006"><a xlink:href="../../dc/d40/dwin_8c.html#afc0985a403e3eac0b2cd8f0fab500256" target="_top" xlink:title="Gracefully shut down NCurses and restore terminal settings.">
<polygon fill="white" stroke="#666666" points="610.25,-156.63 520.75,-156.63 520.75,-135.88 610.25,-135.88 610.25,-156.63"/>
<text xml:space="preserve" text-anchor="middle" x="565.5" y="-143.13" font-family="Helvetica,sans-Serif" font-size="10.00">destroy_curses</text>
</a>
</g>
</g>
<!-- Node5&#45;&gt;Node6 -->
<g id="edge5_Node000005_Node000006" class="edge">
<title>Node5&#45;&gt;Node6</title>
<g id="a_edge5_Node000005_Node000006"><a xlink:title=" ">
<path fill="none" stroke="#63b8ff" d="M461.85,-146.25C475.03,-146.25 492.34,-146.25 508.98,-146.25"/>
<polygon fill="#63b8ff" stroke="#63b8ff" points="508.82,-149.75 518.82,-146.25 508.82,-142.75 508.82,-149.75"/>
</a>
</g>
</g>
<!-- Node7 -->
<g id="Node000007" class="node">
<title>Node7</title>
<g id="a_Node000007"><a xlink:href="../../d7/d72/scriou_8c.html#ac5e3adb304b78910fc77761ef6a743f0" target="_top" xlink:title="restore_shell_tioctl() &#45; restore shell terminal settings">
<polygon fill="white" stroke="#666666" points="755.25,-184.63 646.25,-184.63 646.25,-163.88 755.25,-163.88 755.25,-184.63"/>
<text xml:space="preserve" text-anchor="middle" x="700.75" y="-171.13" font-family="Helvetica,sans-Serif" font-size="10.00">restore_shell_tioctl</text>
</a>
</g>
</g>
<!-- Node5&#45;&gt;Node7 -->
<g id="edge8_Node000005_Node000007" class="edge">
<title>Node5&#45;&gt;Node7</title>
<g id="a_edge8_Node000005_Node000007"><a xlink:title=" ">
<path fill="none" stroke="#63b8ff" d="M461.71,-152.59C477.93,-156.93 500.52,-162.4 520.75,-165.25 558.26,-170.54 600.57,-172.83 634.64,-173.78"/>
<polygon fill="#63b8ff" stroke="#63b8ff" points="634.26,-177.28 644.34,-174.02 634.43,-170.28 634.26,-177.28"/>
</a>
</g>
</g>
<!-- Node8 -->
<g id="Node000008" class="node">
<title>Node8</title>
<g id="a_Node000008"><a xlink:href="../../da/d12/sig_8c.html#a06c1eb6cf3649dc187115565409f91af" target="_top" xlink:title="Set signal handlers to default behavior.">
<polygon fill="white" stroke="#666666" points="741.38,-136.63 660.12,-136.63 660.12,-115.88 741.38,-115.88 741.38,-136.63"/>
<text xml:space="preserve" text-anchor="middle" x="700.75" y="-123.13" font-family="Helvetica,sans-Serif" font-size="10.00">sig_dfl_mode</text>
</a>
</g>
</g>
<!-- Node5&#45;&gt;Node8 -->
<g id="edge9_Node000005_Node000008" class="edge">
<title>Node5&#45;&gt;Node8</title>
<g id="a_edge9_Node000005_Node000008"><a xlink:title=" ">
<path fill="none" stroke="#63b8ff" d="M461.68,-139.65C477.88,-135.17 500.47,-129.65 520.75,-127.25 563.64,-122.18 612.71,-122.32 648.61,-123.51"/>
<polygon fill="#63b8ff" stroke="#63b8ff" points="648.14,-127 658.27,-123.87 648.4,-120 648.14,-127"/>
</a>
</g>
</g>
<!-- Node6&#45;&gt;Node7 -->
<g id="edge6_Node000006_Node000007" class="edge">
<title>Node6&#45;&gt;Node7</title>
<g id="a_edge6_Node000006_Node000007"><a xlink:title=" ">
<path fill="none" stroke="#63b8ff" d="M610.5,-155.5C619.12,-157.31 628.32,-159.24 637.41,-161.15"/>
<polygon fill="#63b8ff" stroke="#63b8ff" points="636.41,-164.52 646.92,-163.15 637.85,-157.67 636.41,-164.52"/>
</a>
</g>
</g>
<!-- Node6&#45;&gt;Node8 -->
<g id="edge7_Node000006_Node000008" class="edge">
<title>Node6&#45;&gt;Node8</title>
<g id="a_edge7_Node000006_Node000008"><a xlink:title=" ">
<path fill="none" stroke="#63b8ff" d="M610.5,-139.65C622.69,-137.82 636.02,-135.82 648.58,-133.93"/>
<polygon fill="#63b8ff" stroke="#63b8ff" points="648.98,-137.41 658.35,-132.47 647.94,-130.49 648.98,-137.41"/>
</a>
</g>
</g>
<!-- Node10 -->
<g id="Node000010" class="node">
<title>Node10</title>
<g id="a_Node000010"><a xlink:href="../../d0/d59/futil_8c.html#aa0145c044cfdde3a1c83323410a59f25" target="_top" xlink:title="safer alternative to strncat">
<polygon fill="white" stroke="#666666" points="471.25,-312.63 405.75,-312.63 405.75,-291.88 471.25,-291.88 471.25,-312.63"/>
<text xml:space="preserve" text-anchor="middle" x="438.5" y="-299.13" font-family="Helvetica,sans-Serif" font-size="10.00">strnz__cat</text>
</a>
</g>
</g>
<!-- Node9&#45;&gt;Node10 -->
<g id="edge11_Node000009_Node000010" class="edge">
<title>Node9&#45;&gt;Node10</title>
<g id="a_edge11_Node000009_Node000010"><a xlink:title=" ">
<path fill="none" stroke="#63b8ff" d="M338.78,-264.13C356.44,-270.95 379.45,-279.83 398.81,-287.31"/>
<polygon fill="#63b8ff" stroke="#63b8ff" points="397.42,-290.53 408.01,-290.86 399.94,-284 397.42,-290.53"/>
</a>
</g>
</g>
<!-- Node12&#45;&gt;Node5 -->
<g id="edge14_Node000012_Node000005" class="edge">
<title>Node12&#45;&gt;Node5</title>
<g id="a_edge14_Node000012_Node000005"><a xlink:title=" ">
<path fill="none" stroke="#63b8ff" d="M347.32,-166.86C365.33,-162.75 386.86,-157.83 404.37,-153.83"/>
<polygon fill="#63b8ff" stroke="#63b8ff" points="404.77,-157.32 413.74,-151.68 403.21,-150.5 404.77,-157.32"/>
</a>
</g>
</g>
<!-- Node13&#45;&gt;Node14 -->
<g id="edge16_Node000013_Node000014" class="edge">
<title>Node13&#45;&gt;Node14</title>
<g id="a_edge16_Node000013_Node000014"><a xlink:title=" ">
<path fill="none" stroke="#63b8ff" d="M337.6,-88.49C343.84,-85.71 350.37,-82.56 356.25,-79.25 377.02,-67.57 399.06,-51.87 414.94,-39.91"/>
<polygon fill="#63b8ff" stroke="#63b8ff" points="416.94,-42.79 422.76,-33.93 412.69,-37.23 416.94,-42.79"/>
</a>
</g>
</g>
<!-- Node17&#45;&gt;Node3 -->
<g id="edge23_Node000017_Node000003" class="edge">
<title>Node17&#45;&gt;Node3</title>
<g id="a_edge23_Node000017_Node000003"><a xlink:title=" ">
<path fill="none" stroke="#63b8ff" d="M337.6,-381.02C343.84,-383.8 350.37,-386.95 356.25,-390.25 377.02,-401.94 399.06,-417.63 414.94,-429.59"/>
<polygon fill="#63b8ff" stroke="#63b8ff" points="412.69,-432.28 422.76,-435.57 416.94,-426.72 412.69,-432.28"/>
</a>
</g>
</g>
<!-- Node18 -->
<g id="Node000018" class="node">
<title>Node18</title>
<g id="a_Node000018"><a xlink:href="../../dc/d40/dwin_8c.html#ac9adcf7339be4a05ab1a7350c236b8a5" target="_top" xlink:title="Draw a box around the specified window.">
<polygon fill="white" stroke="#666666" points="458.12,-380.63 418.88,-380.63 418.88,-359.88 458.12,-359.88 458.12,-380.63"/>
<text xml:space="preserve" text-anchor="middle" x="438.5" y="-367.13" font-family="Helvetica,sans-Serif" font-size="10.00">cbox</text>
</a>
</g>
</g>
<!-- Node17&#45;&gt;Node18 -->
<g id="edge22_Node000017_Node000018" class="edge">
<title>Node17&#45;&gt;Node18</title>
<g id="a_edge22_Node000017_Node000018"><a xlink:title=" ">
<path fill="none" stroke="#63b8ff" d="M339.41,-370.25C359.71,-370.25 386.82,-370.25 407.4,-370.25"/>
<polygon fill="#63b8ff" stroke="#63b8ff" points="407.14,-373.75 417.14,-370.25 407.14,-366.75 407.14,-373.75"/>
</a>
</g>
</g>
<!-- Node19&#45;&gt;Node4 -->
<g id="edge25_Node000019_Node000004" class="edge">
<title>Node19&#45;&gt;Node4</title>
<g id="a_edge25_Node000019_Node000004"><a xlink:title=" ">
<path fill="none" stroke="#63b8ff" d="M280.85,-219.72C262.43,-220.96 237.72,-221.3 215.88,-220.74"/>
<polygon fill="#63b8ff" stroke="#63b8ff" points="216.05,-217.24 205.94,-220.4 215.81,-224.24 216.05,-217.24"/>
</a>
</g>
</g>
<!-- Node20 -->
<g id="Node000020" class="node">
<title>Node20</title>
<g id="a_Node000020"><a xlink:href="../../dc/d40/dwin_8c.html#a4298f891699300bfc4e6e56fd2a8d574" target="_top" xlink:title="Get keycode from chyron.">
<polygon fill="white" stroke="#666666" points="484.75,-205.63 392.25,-205.63 392.25,-184.88 484.75,-184.88 484.75,-205.63"/>
<text xml:space="preserve" text-anchor="middle" x="438.5" y="-192.13" font-family="Helvetica,sans-Serif" font-size="10.00">get_chyron_key</text>
</a>
</g>
</g>
<!-- Node19&#45;&gt;Node20 -->
<g id="edge26_Node000019_Node000020" class="edge">
<title>Node19&#45;&gt;Node20</title>
<g id="a_edge26_Node000019_Node000020"><a xlink:title=" ">
<path fill="none" stroke="#63b8ff" d="M338.47,-210.08C350.91,-208.22 366.05,-205.95 380.71,-203.76"/>
<polygon fill="#63b8ff" stroke="#63b8ff" points="380.9,-207.27 390.28,-202.32 379.87,-200.34 380.9,-207.27"/>
</a>
</g>
</g>
<!-- Node21 -->
<g id="Node000021" class="node">
<title>Node21</title>
<g id="a_Node000021"><a xlink:href="../../d0/d6b/cm_8h.html#a0667873879b5846c3fe2fa2cc96059d6" target="_top" xlink:title=" ">
<polygon fill="white" stroke="#666666" points="480.25,-244.63 396.75,-244.63 396.75,-223.88 480.25,-223.88 480.25,-244.63"/>
<text xml:space="preserve" text-anchor="middle" x="438.5" y="-231.13" font-family="Helvetica,sans-Serif" font-size="10.00">handle_signal</text>
</a>
</g>
</g>
<!-- Node19&#45;&gt;Node21 -->
<g id="edge27_Node000019_Node000021" class="edge">
<title>Node19&#45;&gt;Node21</title>
<g id="a_edge27_Node000019_Node000021"><a xlink:title=" ">
<path fill="none" stroke="#63b8ff" d="M338.47,-218.64C352.34,-220.83 369.56,-223.54 385.74,-226.09"/>
<polygon fill="#63b8ff" stroke="#63b8ff" points="384.8,-229.49 395.22,-227.59 385.89,-222.57 384.8,-229.49"/>
</a>
</g>
</g>
<!-- Node22&#45;&gt;Node3 -->
<g id="edge30_Node000022_Node000003" class="edge">
<title>Node22&#45;&gt;Node3</title>
<g id="a_edge30_Node000022_Node000003"><a xlink:title=" ">
<path fill="none" stroke="#63b8ff" d="M346.64,-420.04C361.26,-424.42 378.29,-429.52 393.62,-434.11"/>
<polygon fill="#63b8ff" stroke="#63b8ff" points="392.4,-437.4 402.98,-436.92 394.41,-430.69 392.4,-437.4"/>
</a>
</g>
</g>
<!-- Node22&#45;&gt;Node10 -->
<g id="edge29_Node000022_Node000010" class="edge">
<title>Node22&#45;&gt;Node10</title>
<g id="a_edge29_Node000022_Node000010"><a xlink:title=" ">
<path fill="none" stroke="#63b8ff" d="M340.06,-398.46C345.66,-395.83 351.31,-392.75 356.25,-389.25 358.13,-387.92 396.68,-346.38 420,-321.19"/>
<polygon fill="#63b8ff" stroke="#63b8ff" points="422.27,-323.88 426.49,-314.16 417.13,-319.13 422.27,-323.88"/>
</a>
</g>
</g>
</g>
</svg>
