<?xml version="1.0" encoding="UTF-8" standalone="no"?>
<!DOCTYPE svg PUBLIC "-//W3C//DTD SVG 1.1//EN"
 "http://www.w3.org/Graphics/SVG/1.1/DTD/svg11.dtd">
<!-- Generated by graphviz version 14.1.2 (0)
 -->
<!-- Title: fork_exec Pages: 1 -->
<svg width="983pt" height="793pt"
 viewBox="0.00 0.00 983.00 793.00" xmlns="http://www.w3.org/2000/svg" xmlns:xlink="http://www.w3.org/1999/xlink">
<g id="graph0" class="graph" transform="scale(1 1) rotate(0) translate(4 788.75)">
<title>fork_exec</title>
<!-- Node1 -->
<g id="Node000001" class="node">
<title>Node1</title>
<g id="a_Node000001"><a xlink:title="Fork and exec a command.">
<polygon fill="#999999" stroke="#666666" points="64,-287.75 0,-287.75 0,-267 64,-267 64,-287.75"/>
<text xml:space="preserve" text-anchor="middle" x="32" y="-274.25" font-family="Helvetica,sans-Serif" font-size="10.00">fork_exec</text>
</a>
</g>
</g>
<!-- Node2 -->
<g id="Node000002" class="node">
<title>Node2</title>
<g id="a_Node000002"><a xlink:href="../../d7/d72/scriou_8c.html#a4d0a6767e791cf93a268ebe9ba02aa24" target="_top" xlink:title="capture_curses_tioctl() &#45; capture curses terminal settings">
<polygon fill="white" stroke="#666666" points="219.5,-784.75 100,-784.75 100,-764 219.5,-764 219.5,-784.75"/>
<text xml:space="preserve" text-anchor="middle" x="159.75" y="-771.25" font-family="Helvetica,sans-Serif" font-size="10.00">capture_curses_tioctl</text>
</a>
</g>
</g>
<!-- Node1&#45;&gt;Node2 -->
<g id="edge1_Node000001_Node000002" class="edge">
<title>Node1&#45;&gt;Node2</title>
<g id="a_edge1_Node000001_Node000002"><a xlink:title=" ">
<path fill="none" stroke="#63b8ff" d="M33.11,-287.86C33.95,-350.49 41.13,-674.81 100,-750.38 102.03,-752.98 104.39,-755.31 106.98,-757.38"/>
<polygon fill="#63b8ff" stroke="#63b8ff" points="104.92,-760.22 115.22,-762.69 108.71,-754.33 104.92,-760.22"/>
</a>
</g>
</g>
<!-- Node3 -->
<g id="Node000003" class="node">
<title>Node3</title>
<g id="a_Node000003"><a xlink:href="../../dc/d40/dwin_8c.html#a61b4f28456257f68ed042bed7f187efd" target="_top" xlink:title="Display a simple error message window or print to stderr.">
<polygon fill="white" stroke="#666666" points="182.38,-421.75 137.12,-421.75 137.12,-401 182.38,-401 182.38,-421.75"/>
<text xml:space="preserve" text-anchor="middle" x="159.75" y="-408.25" font-family="Helvetica,sans-Serif" font-size="10.00">Perror</text>
</a>
</g>
</g>
<!-- Node1&#45;&gt;Node3 -->
<g id="edge2_Node000001_Node000003" class="edge">
<title>Node1&#45;&gt;Node3</title>
<g id="a_edge2_Node000001_Node000003"><a xlink:title=" ">
<path fill="none" stroke="#63b8ff" d="M42.87,-287.89C63.97,-310.38 113.77,-363.45 140.7,-392.14"/>
<polygon fill="#63b8ff" stroke="#63b8ff" points="138.15,-394.54 147.54,-399.43 143.25,-389.75 138.15,-394.54"/>
</a>
</g>
</g>
<!-- Node6 -->
<g id="Node000006" class="node">
<title>Node6</title>
<g id="a_Node000006"><a xlink:href="../../d7/d72/scriou_8c.html#ac5e3adb304b78910fc77761ef6a743f0" target="_top" xlink:title="restore_shell_tioctl() &#45; restore shell terminal settings">
<polygon fill="white" stroke="#666666" points="974.75,-307.75 865.75,-307.75 865.75,-287 974.75,-287 974.75,-307.75"/>
<text xml:space="preserve" text-anchor="middle" x="920.25" y="-294.25" font-family="Helvetica,sans-Serif" font-size="10.00">restore_shell_tioctl</text>
</a>
</g>
</g>
<!-- Node1&#45;&gt;Node6 -->
<g id="edge38_Node000001_Node000006" class="edge">
<title>Node1&#45;&gt;Node6</title>
<g id="a_edge38_Node000001_Node000006"><a xlink:title=" ">
<path fill="none" stroke="#63b8ff" d="M33.9,-288.13C38.44,-340.15 60.13,-565.36 100,-621.38 159.04,-704.32 196.31,-736.38 298.12,-736.38 298.12,-736.38 298.12,-736.38 671.38,-736.38 864.92,-736.38 909.05,-408.84 917.48,-319.6"/>
<polygon fill="#63b8ff" stroke="#63b8ff" points="920.96,-320 918.34,-309.73 913.98,-319.39 920.96,-320"/>
</a>
</g>
</g>
<!-- Node7 -->
<g id="Node000007" class="node">
<title>Node7</title>
<g id="a_Node000007"><a xlink:href="../../da/d12/sig_8c.html#a06c1eb6cf3649dc187115565409f91af" target="_top" xlink:title="Set signal handlers to default behavior.">
<polygon fill="white" stroke="#666666" points="960.88,-231.75 879.62,-231.75 879.62,-211 960.88,-211 960.88,-231.75"/>
<text xml:space="preserve" text-anchor="middle" x="920.25" y="-218.25" font-family="Helvetica,sans-Serif" font-size="10.00">sig_dfl_mode</text>
</a>
</g>
</g>
<!-- Node1&#45;&gt;Node7 -->
<g id="edge40_Node000001_Node000007" class="edge">
<title>Node1&#45;&gt;Node7</title>
<g id="a_edge40_Node000001_Node000007"><a xlink:title=" ">
<path fill="none" stroke="#63b8ff" d="M35.32,-266.57C41.32,-241.24 59.79,-177.71 100,-144.38 170.54,-85.9 206.5,-87.38 298.12,-87.38 298.12,-87.38 298.12,-87.38 671.38,-87.38 767.39,-87.38 861.88,-166.14 900.74,-202.89"/>
<polygon fill="#63b8ff" stroke="#63b8ff" points="898.28,-205.38 907.9,-209.81 903.14,-200.34 898.28,-205.38"/>
</a>
</g>
</g>
<!-- Node13 -->
<g id="Node000013" class="node">
<title>Node13</title>
<g id="a_Node000013"><a xlink:href="../../d0/d59/futil_8c.html#a63eb94756fb011a456a3dec900709cd8" target="_top" xlink:title="ssnprintf was designed to be a safer alternative to snprintf.">
<polygon fill="white" stroke="#666666" points="699.75,-651.75 641,-651.75 641,-631 699.75,-631 699.75,-651.75"/>
<text xml:space="preserve" text-anchor="middle" x="670.38" y="-638.25" font-family="Helvetica,sans-Serif" font-size="10.00">ssnprintf</text>
</a>
</g>
</g>
<!-- Node1&#45;&gt;Node13 -->
<g id="edge44_Node000001_Node000013" class="edge">
<title>Node1&#45;&gt;Node13</title>
<g id="a_edge44_Node000001_Node000013"><a xlink:title=" ">
<path fill="none" stroke="#63b8ff" d="M34.33,-288.2C43.04,-354.1 98.16,-698.38 298.12,-698.38 298.12,-698.38 298.12,-698.38 426,-698.38 500.12,-698.38 583.68,-673 631.08,-656.11"/>
<polygon fill="#63b8ff" stroke="#63b8ff" points="632.14,-659.45 640.34,-652.75 629.75,-652.87 632.14,-659.45"/>
</a>
</g>
</g>
<!-- Node23 -->
<g id="Node000023" class="node">
<title>Node23</title>
<g id="a_Node000023"><a xlink:href="../../d7/d72/scriou_8c.html#a1c8e0f0a02e08c783231a20093fb8410" target="_top" xlink:title="restore_curses_tioctl() &#45; restore curses terminal settings">
<polygon fill="white" stroke="#666666" points="218.38,-59.75 101.13,-59.75 101.13,-39 218.38,-39 218.38,-59.75"/>
<text xml:space="preserve" text-anchor="middle" x="159.75" y="-46.25" font-family="Helvetica,sans-Serif" font-size="10.00">restore_curses_tioctl</text>
</a>
</g>
</g>
<!-- Node1&#45;&gt;Node23 -->
<g id="edge37_Node000001_Node000023" class="edge">
<title>Node1&#45;&gt;Node23</title>
<g id="a_edge37_Node000001_Node000023"><a xlink:title=" ">
<path fill="none" stroke="#63b8ff" d="M33.45,-266.96C35.43,-234.11 45.87,-131.46 100,-73.38 102.67,-70.51 105.74,-67.97 109.03,-65.74"/>
<polygon fill="#63b8ff" stroke="#63b8ff" points="110.52,-68.91 117.48,-60.93 107.06,-62.83 110.52,-68.91"/>
</a>
</g>
</g>
<!-- Node24 -->
<g id="Node000024" class="node">
<title>Node24</title>
<g id="a_Node000024"><a xlink:href="../../dc/d40/dwin_8c.html#a40858af5b0d68549fb483f77c97eb82c" target="_top" xlink:title="Restore all windows after a screen resize.">
<polygon fill="white" stroke="#666666" points="198.88,-20.75 120.62,-20.75 120.62,0 198.88,0 198.88,-20.75"/>
<text xml:space="preserve" text-anchor="middle" x="159.75" y="-7.25" font-family="Helvetica,sans-Serif" font-size="10.00">restore_wins</text>
</a>
</g>
</g>
<!-- Node1&#45;&gt;Node24 -->
<g id="edge39_Node000001_Node000024" class="edge">
<title>Node1&#45;&gt;Node24</title>
<g id="a_edge39_Node000001_Node000024"><a xlink:title=" ">
<path fill="none" stroke="#63b8ff" d="M32.59,-266.56C31.76,-228.68 34.16,-100.51 100,-30.38 102.9,-27.29 106.29,-24.68 109.96,-22.47"/>
<polygon fill="#63b8ff" stroke="#63b8ff" points="111.34,-25.69 118.8,-18.17 108.28,-19.39 111.34,-25.69"/>
</a>
</g>
</g>
<!-- Node25 -->
<g id="Node000025" class="node">
<title>Node25</title>
<g id="a_Node000025"><a xlink:href="../../da/d12/sig_8c.html#aca2de03f6d52d4b11237990e4e605177" target="_top" xlink:title="Set up signal handlers for interrupt signals.">
<polygon fill="white" stroke="#666666" points="204.88,-173.75 114.62,-173.75 114.62,-153 204.88,-153 204.88,-173.75"/>
<text xml:space="preserve" text-anchor="middle" x="159.75" y="-160.25" font-family="Helvetica,sans-Serif" font-size="10.00">sig_prog_mode</text>
</a>
</g>
</g>
<!-- Node1&#45;&gt;Node25 -->
<g id="edge41_Node000001_Node000025" class="edge">
<title>Node1&#45;&gt;Node25</title>
<g id="a_edge41_Node000001_Node000025"><a xlink:title=" ">
<path fill="none" stroke="#63b8ff" d="M44.6,-266.85C66.02,-247.44 111.98,-205.77 138.59,-181.65"/>
<polygon fill="#63b8ff" stroke="#63b8ff" points="140.63,-184.53 145.69,-175.22 135.93,-179.34 140.63,-184.53"/>
</a>
</g>
</g>
<!-- Node4 -->
<g id="Node000004" class="node">
<title>Node4</title>
<g id="a_Node000004"><a xlink:href="../../dc/d40/dwin_8c.html#a8f6c45ca4a7f6a41c4c88314e697565a" target="_top" xlink:title="Abnormal program termination.">
<polygon fill="white" stroke="#666666" points="693.38,-269.75 647.38,-269.75 647.38,-249 693.38,-249 693.38,-269.75"/>
<text xml:space="preserve" text-anchor="middle" x="670.38" y="-256.25" font-family="Helvetica,sans-Serif" font-size="10.00">abend</text>
</a>
</g>
</g>
<!-- Node3&#45;&gt;Node4 -->
<g id="edge3_Node000003_Node000004" class="edge">
<title>Node3&#45;&gt;Node4</title>
<g id="a_edge3_Node000003_Node000004"><a xlink:title=" ">
<path fill="none" stroke="#63b8ff" d="M167.04,-400.7C180.36,-379.1 213.7,-330.22 255.5,-306.38 380.75,-234.93 561.98,-246.27 635.99,-254.77"/>
<polygon fill="#63b8ff" stroke="#63b8ff" points="635.48,-258.24 645.83,-255.97 636.32,-251.29 635.48,-258.24"/>
</a>
</g>
</g>
<!-- Node8 -->
<g id="Node000008" class="node">
<title>Node8</title>
<g id="a_Node000008"><a xlink:href="../../dc/d40/dwin_8c.html#a645871e46277e31736bc36d0f3dce4bd" target="_top" xlink:title="construct the chyron string from the chyron structure">
<polygon fill="white" stroke="#666666" points="600.5,-211.75 507.25,-211.75 507.25,-191 600.5,-191 600.5,-211.75"/>
<text xml:space="preserve" text-anchor="middle" x="553.88" y="-198.25" font-family="Helvetica,sans-Serif" font-size="10.00">compile_chyron</text>
</a>
</g>
</g>
<!-- Node3&#45;&gt;Node8 -->
<g id="edge9_Node000003_Node000008" class="edge">
<title>Node3&#45;&gt;Node8</title>
<g id="a_edge9_Node000003_Node000008"><a xlink:title=" ">
<path fill="none" stroke="#63b8ff" d="M162.53,-400.57C168.58,-367.63 191.66,-268.13 255.5,-225.38 327.26,-177.32 431.69,-181.68 495.8,-190.57"/>
<polygon fill="#63b8ff" stroke="#63b8ff" points="494.99,-193.99 505.4,-191.98 496.01,-187.06 494.99,-193.99"/>
</a>
</g>
</g>
<!-- Node10 -->
<g id="Node000010" class="node">
<title>Node10</title>
<g id="a_Node000010"><a xlink:href="../../dc/d40/dwin_8c.html#a3f3feb40fd703913c5c136331f627c91" target="_top" xlink:title="Destroy Chyron structure.">
<polygon fill="white" stroke="#666666" points="599.38,-326.75 508.38,-326.75 508.38,-306 599.38,-306 599.38,-326.75"/>
<text xml:space="preserve" text-anchor="middle" x="553.88" y="-313.25" font-family="Helvetica,sans-Serif" font-size="10.00">destroy_chyron</text>
</a>
</g>
</g>
<!-- Node3&#45;&gt;Node10 -->
<g id="edge11_Node000003_Node000010" class="edge">
<title>Node3&#45;&gt;Node10</title>
<g id="a_edge11_Node000003_Node000010"><a xlink:title=" ">
<path fill="none" stroke="#63b8ff" d="M182.83,-401.6C221.63,-384.88 304.93,-350.98 378.75,-334.38 417.64,-325.63 462.39,-321.12 496.79,-318.8"/>
<polygon fill="#63b8ff" stroke="#63b8ff" points="496.76,-322.31 506.52,-318.19 496.32,-315.32 496.76,-322.31"/>
</a>
</g>
</g>
<!-- Node11 -->
<g id="Node000011" class="node">
<title>Node11</title>
<g id="a_Node000011"><a xlink:href="../../dc/d40/dwin_8c.html#ad37d5808ff30ae6894780425d865abae" target="_top" xlink:title="Create and initialize Chyron structure.">
<polygon fill="white" stroke="#666666" points="591.12,-287.75 516.62,-287.75 516.62,-267 591.12,-267 591.12,-287.75"/>
<text xml:space="preserve" text-anchor="middle" x="553.88" y="-274.25" font-family="Helvetica,sans-Serif" font-size="10.00">new_chyron</text>
</a>
</g>
</g>
<!-- Node3&#45;&gt;Node11 -->
<g id="edge12_Node000003_Node000011" class="edge">
<title>Node3&#45;&gt;Node11</title>
<g id="a_edge12_Node000003_Node000011"><a xlink:title=" ">
<path fill="none" stroke="#63b8ff" d="M171.66,-400.62C188.28,-384.87 221.62,-355.75 255.5,-340.38 338.57,-302.68 445.04,-287.17 505.44,-281.07"/>
<polygon fill="#63b8ff" stroke="#63b8ff" points="505.4,-284.59 515.02,-280.15 504.73,-277.62 505.4,-284.59"/>
</a>
</g>
</g>
<!-- Node12 -->
<g id="Node000012" class="node">
<title>Node12</title>
<g id="a_Node000012"><a xlink:href="../../dc/d40/dwin_8c.html#a208ce92c197fdd6d2b007987e534aa3b" target="_top" xlink:title="Set chyron key.">
<polygon fill="white" stroke="#666666" points="599.75,-632.75 508,-632.75 508,-612 599.75,-612 599.75,-632.75"/>
<text xml:space="preserve" text-anchor="middle" x="553.88" y="-619.25" font-family="Helvetica,sans-Serif" font-size="10.00">set_chyron_key</text>
</a>
</g>
</g>
<!-- Node3&#45;&gt;Node12 -->
<g id="edge14_Node000003_Node000012" class="edge">
<title>Node3&#45;&gt;Node12</title>
<g id="a_edge14_Node000003_Node000012"><a xlink:title=" ">
<path fill="none" stroke="#63b8ff" d="M165.72,-422.15C177.63,-446.8 210.22,-507.67 255.5,-540.38 327.94,-592.7 432.29,-611.65 496.17,-618.51"/>
<polygon fill="#63b8ff" stroke="#63b8ff" points="495.81,-621.99 506.11,-619.5 496.5,-615.02 495.81,-621.99"/>
</a>
</g>
</g>
<!-- Node3&#45;&gt;Node13 -->
<g id="edge16_Node000003_Node000013" class="edge">
<title>Node3&#45;&gt;Node13</title>
<g id="a_edge16_Node000003_Node000013"><a xlink:title=" ">
<path fill="none" stroke="#63b8ff" d="M163.93,-421.95C173.18,-450.93 202.78,-532.31 255.5,-576.38 364.56,-667.53 548.3,-657.39 629.15,-647.49"/>
<polygon fill="#63b8ff" stroke="#63b8ff" points="629.57,-650.97 639.03,-646.21 628.66,-644.02 629.57,-650.97"/>
</a>
</g>
</g>
<!-- Node14 -->
<g id="Node000014" class="node">
<title>Node14</title>
<g id="a_Node000014"><a xlink:href="../../d0/d59/futil_8c.html#a0de2e40df9bd7efc8fd9afb8ad2257e6" target="_top" xlink:title="safer alternative to strncpy">
<polygon fill="white" stroke="#666666" points="704.25,-478.75 636.5,-478.75 636.5,-458 704.25,-458 704.25,-478.75"/>
<text xml:space="preserve" text-anchor="middle" x="670.38" y="-465.25" font-family="Helvetica,sans-Serif" font-size="10.00">strnz__cpy</text>
</a>
</g>
</g>
<!-- Node3&#45;&gt;Node14 -->
<g id="edge17_Node000003_Node000014" class="edge">
<title>Node3&#45;&gt;Node14</title>
<g id="a_edge17_Node000003_Node000014"><a xlink:title=" ">
<path fill="none" stroke="#63b8ff" d="M182.53,-415.98C201.71,-419.98 230.41,-425.82 255.5,-430.38 310.1,-440.28 323.6,-444.21 378.75,-450.38 465.52,-460.08 567.49,-464.88 624.66,-466.98"/>
<polygon fill="#63b8ff" stroke="#63b8ff" points="624.53,-470.48 634.65,-467.33 624.78,-463.48 624.53,-470.48"/>
</a>
</g>
</g>
<!-- Node15 -->
<g id="Node000015" class="node">
<title>Node15</title>
<g id="a_Node000015"><a xlink:href="../../dc/d40/dwin_8c.html#a9dd598e1d49c8764af1eec42c682623e" target="_top" xlink:title="Delete the current window and its associated box window.">
<polygon fill="white" stroke="#666666" points="580.62,-593.75 527.12,-593.75 527.12,-573 580.62,-573 580.62,-593.75"/>
<text xml:space="preserve" text-anchor="middle" x="553.88" y="-580.25" font-family="Helvetica,sans-Serif" font-size="10.00">win_del</text>
</a>
</g>
</g>
<!-- Node3&#45;&gt;Node15 -->
<g id="edge18_Node000003_Node000015" class="edge">
<title>Node3&#45;&gt;Node15</title>
<g id="a_edge18_Node000003_Node000015"><a xlink:title=" ">
<path fill="none" stroke="#63b8ff" d="M167.99,-421.99C182.26,-442.09 216.12,-485.72 255.5,-508.38 340.34,-557.19 456.68,-574.57 515.53,-580.49"/>
<polygon fill="#63b8ff" stroke="#63b8ff" points="515.06,-583.96 525.34,-581.42 515.71,-576.99 515.06,-583.96"/>
</a>
</g>
</g>
<!-- Node16 -->
<g id="Node000016" class="node">
<title>Node16</title>
<g id="a_Node000016"><a xlink:href="../../dc/d40/dwin_8c.html#a435c7bff7ffedb8f51c6de9259e36f6c" target="_top" xlink:title="Create a new window with optional box and title.">
<polygon fill="white" stroke="#666666" points="583.25,-517.75 524.5,-517.75 524.5,-497 583.25,-497 583.25,-517.75"/>
<text xml:space="preserve" text-anchor="middle" x="553.88" y="-504.25" font-family="Helvetica,sans-Serif" font-size="10.00">win_new</text>
</a>
</g>
</g>
<!-- Node3&#45;&gt;Node16 -->
<g id="edge19_Node000003_Node000016" class="edge">
<title>Node3&#45;&gt;Node16</title>
<g id="a_edge19_Node000003_Node000016"><a xlink:title=" ">
<path fill="none" stroke="#63b8ff" d="M170.59,-422.04C186.58,-438.54 219.99,-469.8 255.5,-483.38 342.63,-516.69 454.34,-515.01 512.93,-511.08"/>
<polygon fill="#63b8ff" stroke="#63b8ff" points="513.03,-514.58 522.74,-510.36 512.51,-507.6 513.03,-514.58"/>
</a>
</g>
</g>
<!-- Node18 -->
<g id="Node000018" class="node">
<title>Node18</title>
<g id="a_Node000018"><a xlink:href="../../dc/d40/dwin_8c.html#acf4c709bccc4c965a5d61db978db31a3" target="_top" xlink:title="Wrapper for wgetch that handles signals and mouse events.">
<polygon fill="white" stroke="#666666" points="327.75,-421.75 270.5,-421.75 270.5,-401 327.75,-401 327.75,-421.75"/>
<text xml:space="preserve" text-anchor="middle" x="299.12" y="-408.25" font-family="Helvetica,sans-Serif" font-size="10.00">xwgetch</text>
</a>
</g>
</g>
<!-- Node3&#45;&gt;Node18 -->
<g id="edge22_Node000003_Node000018" class="edge">
<title>Node3&#45;&gt;Node18</title>
<g id="a_edge22_Node000003_Node000018"><a xlink:title=" ">
<path fill="none" stroke="#63b8ff" d="M182.82,-411.38C203.38,-411.38 234.49,-411.38 259.22,-411.38"/>
<polygon fill="#63b8ff" stroke="#63b8ff" points="258.9,-414.88 268.9,-411.38 258.9,-407.88 258.9,-414.88"/>
</a>
</g>
</g>
<!-- Node5 -->
<g id="Node000005" class="node">
<title>Node5</title>
<g id="a_Node000005"><a xlink:href="../../dc/d40/dwin_8c.html#afc0985a403e3eac0b2cd8f0fab500256" target="_top" xlink:title="Gracefully shut down NCurses and restore terminal settings.">
<polygon fill="white" stroke="#666666" points="829.75,-269.75 740.25,-269.75 740.25,-249 829.75,-249 829.75,-269.75"/>
<text xml:space="preserve" text-anchor="middle" x="785" y="-256.25" font-family="Helvetica,sans-Serif" font-size="10.00">destroy_curses</text>
</a>
</g>
</g>
<!-- Node4&#45;&gt;Node5 -->
<g id="edge4_Node000004_Node000005" class="edge">
<title>Node4&#45;&gt;Node5</title>
<g id="a_edge4_Node000004_Node000005"><a xlink:title=" ">
<path fill="none" stroke="#63b8ff" d="M693.63,-259.38C703.74,-259.38 716.19,-259.38 728.59,-259.38"/>
<polygon fill="#63b8ff" stroke="#63b8ff" points="728.38,-262.88 738.38,-259.38 728.38,-255.88 728.38,-262.88"/>
</a>
</g>
</g>
<!-- Node4&#45;&gt;Node6 -->
<g id="edge7_Node000004_Node000006" class="edge">
<title>Node4&#45;&gt;Node6</title>
<g id="a_edge7_Node000004_Node000006"><a xlink:title=" ">
<path fill="none" stroke="#63b8ff" d="M693.8,-266.56C707.16,-270.59 724.53,-275.39 740.25,-278.38 777.63,-285.47 819.94,-290.11 854.03,-293.03"/>
<polygon fill="#63b8ff" stroke="#63b8ff" points="853.5,-296.5 863.75,-293.83 854.07,-289.52 853.5,-296.5"/>
</a>
</g>
</g>
<!-- Node4&#45;&gt;Node7 -->
<g id="edge8_Node000004_Node000007" class="edge">
<title>Node4&#45;&gt;Node7</title>
<g id="a_edge8_Node000004_Node000007"><a xlink:title=" ">
<path fill="none" stroke="#63b8ff" d="M693.8,-252.19C707.16,-248.16 724.53,-243.36 740.25,-240.38 782.92,-232.28 832,-227.38 867.97,-224.58"/>
<polygon fill="#63b8ff" stroke="#63b8ff" points="867.94,-228.09 877.65,-223.86 867.42,-221.11 867.94,-228.09"/>
</a>
</g>
</g>
<!-- Node5&#45;&gt;Node6 -->
<g id="edge5_Node000005_Node000006" class="edge">
<title>Node5&#45;&gt;Node6</title>
<g id="a_edge5_Node000005_Node000006"><a xlink:title=" ">
<path fill="none" stroke="#63b8ff" d="M823.83,-270.16C838.32,-274.29 855.05,-279.07 870.43,-283.45"/>
<polygon fill="#63b8ff" stroke="#63b8ff" points="869.3,-286.77 879.87,-286.15 871.22,-280.04 869.3,-286.77"/>
</a>
</g>
</g>
<!-- Node5&#45;&gt;Node7 -->
<g id="edge6_Node000005_Node000007" class="edge">
<title>Node5&#45;&gt;Node7</title>
<g id="a_edge6_Node000005_Node000007"><a xlink:title=" ">
<path fill="none" stroke="#63b8ff" d="M823.83,-248.59C838.32,-244.46 855.05,-239.68 870.43,-235.3"/>
<polygon fill="#63b8ff" stroke="#63b8ff" points="871.22,-238.71 879.87,-232.6 869.3,-231.98 871.22,-238.71"/>
</a>
</g>
</g>
<!-- Node9 -->
<g id="Node000009" class="node">
<title>Node9</title>
<g id="a_Node000009"><a xlink:href="../../d0/d59/futil_8c.html#aa0145c044cfdde3a1c83323410a59f25" target="_top" xlink:title="safer alternative to strncat">
<polygon fill="white" stroke="#666666" points="703.12,-211.75 637.62,-211.75 637.62,-191 703.12,-191 703.12,-211.75"/>
<text xml:space="preserve" text-anchor="middle" x="670.38" y="-198.25" font-family="Helvetica,sans-Serif" font-size="10.00">strnz__cat</text>
</a>
</g>
</g>
<!-- Node8&#45;&gt;Node9 -->
<g id="edge10_Node000008_Node000009" class="edge">
<title>Node8&#45;&gt;Node9</title>
<g id="a_edge10_Node000008_Node000009"><a xlink:title=" ">
<path fill="none" stroke="#63b8ff" d="M600.79,-201.38C609.08,-201.38 617.69,-201.38 625.91,-201.38"/>
<polygon fill="#63b8ff" stroke="#63b8ff" points="625.67,-204.88 635.67,-201.38 625.67,-197.88 625.67,-204.88"/>
</a>
</g>
</g>
<!-- Node11&#45;&gt;Node4 -->
<g id="edge13_Node000011_Node000004" class="edge">
<title>Node11&#45;&gt;Node4</title>
<g id="a_edge13_Node000011_Node000004"><a xlink:title=" ">
<path fill="none" stroke="#63b8ff" d="M591.42,-271.63C605.74,-269.38 622.05,-266.81 636.04,-264.62"/>
<polygon fill="#63b8ff" stroke="#63b8ff" points="636.32,-268.11 645.65,-263.1 635.23,-261.2 636.32,-268.11"/>
</a>
</g>
</g>
<!-- Node12&#45;&gt;Node13 -->
<g id="edge15_Node000012_Node000013" class="edge">
<title>Node12&#45;&gt;Node13</title>
<g id="a_edge15_Node000012_Node000013"><a xlink:title=" ">
<path fill="none" stroke="#63b8ff" d="M600.13,-629.88C609.82,-631.49 619.98,-633.18 629.45,-634.75"/>
<polygon fill="#63b8ff" stroke="#63b8ff" points="628.65,-638.16 639.09,-636.35 629.79,-631.26 628.65,-638.16"/>
</a>
</g>
</g>
<!-- Node16&#45;&gt;Node14 -->
<g id="edge21_Node000016_Node000014" class="edge">
<title>Node16&#45;&gt;Node14</title>
<g id="a_edge21_Node000016_Node000014"><a xlink:title=" ">
<path fill="none" stroke="#63b8ff" d="M583.47,-497.63C596.56,-493.18 612.35,-487.8 626.79,-482.88"/>
<polygon fill="#63b8ff" stroke="#63b8ff" points="627.74,-486.25 636.08,-479.72 625.49,-479.63 627.74,-486.25"/>
</a>
</g>
</g>
<!-- Node17 -->
<g id="Node000017" class="node">
<title>Node17</title>
<g id="a_Node000017"><a xlink:href="../../dc/d40/dwin_8c.html#ac9adcf7339be4a05ab1a7350c236b8a5" target="_top" xlink:title="Draw a box around the specified window.">
<polygon fill="white" stroke="#666666" points="690,-517.75 650.75,-517.75 650.75,-497 690,-497 690,-517.75"/>
<text xml:space="preserve" text-anchor="middle" x="670.38" y="-504.25" font-family="Helvetica,sans-Serif" font-size="10.00">cbox</text>
</a>
</g>
</g>
<!-- Node16&#45;&gt;Node17 -->
<g id="edge20_Node000016_Node000017" class="edge">
<title>Node16&#45;&gt;Node17</title>
<g id="a_edge20_Node000016_Node000017"><a xlink:title=" ">
<path fill="none" stroke="#63b8ff" d="M583.47,-507.38C600.4,-507.38 621.82,-507.38 639.04,-507.38"/>
<polygon fill="#63b8ff" stroke="#63b8ff" points="638.94,-510.88 648.94,-507.38 638.94,-503.88 638.94,-510.88"/>
</a>
</g>
</g>
<!-- Node19 -->
<g id="Node000019" class="node">
<title>Node19</title>
<g id="a_Node000019"><a xlink:href="../../dc/d40/dwin_8c.html#a67659f8a701b74f4dec0d36227a10d1c" target="_top" xlink:title="Display an error message window or print to stderr.">
<polygon fill="white" stroke="#666666" points="464.88,-441.75 385.12,-441.75 385.12,-421 464.88,-421 464.88,-441.75"/>
<text xml:space="preserve" text-anchor="middle" x="425" y="-428.25" font-family="Helvetica,sans-Serif" font-size="10.00">display_error</text>
</a>
</g>
</g>
<!-- Node18&#45;&gt;Node19 -->
<g id="edge23_Node000018_Node000019" class="edge">
<title>Node18&#45;&gt;Node19</title>
<g id="a_edge23_Node000018_Node000019"><a xlink:title=" ">
<path fill="none" stroke="#63b8ff" d="M328.23,-410.15C344.16,-411.69 364.39,-414.73 382.15,-418.2"/>
<polygon fill="#63b8ff" stroke="#63b8ff" points="381.42,-421.62 391.92,-420.21 382.83,-414.76 381.42,-421.62"/>
</a>
</g>
</g>
<!-- Node21 -->
<g id="Node000021" class="node">
<title>Node21</title>
<g id="a_Node000021"><a xlink:href="../../dc/d40/dwin_8c.html#a4298f891699300bfc4e6e56fd2a8d574" target="_top" xlink:title="Get keycode from chyron.">
<polygon fill="white" stroke="#666666" points="471.25,-402.75 378.75,-402.75 378.75,-382 471.25,-382 471.25,-402.75"/>
<text xml:space="preserve" text-anchor="middle" x="425" y="-389.25" font-family="Helvetica,sans-Serif" font-size="10.00">get_chyron_key</text>
</a>
</g>
</g>
<!-- Node18&#45;&gt;Node21 -->
<g id="edge35_Node000018_Node000021" class="edge">
<title>Node18&#45;&gt;Node21</title>
<g id="a_edge35_Node000018_Node000021"><a xlink:title=" ">
<path fill="none" stroke="#63b8ff" d="M328.23,-407.06C339.83,-405.28 353.72,-403.15 367.27,-401.08"/>
<polygon fill="#63b8ff" stroke="#63b8ff" points="367.66,-404.56 377.02,-399.58 366.6,-397.64 367.66,-404.56"/>
</a>
</g>
</g>
<!-- Node22 -->
<g id="Node000022" class="node">
<title>Node22</title>
<g id="a_Node000022"><a xlink:href="../../d0/d6b/cm_8h.html#a0667873879b5846c3fe2fa2cc96059d6" target="_top" xlink:title=" ">
<polygon fill="white" stroke="#666666" points="466.75,-363.75 383.25,-363.75 383.25,-343 466.75,-343 466.75,-363.75"/>
<text xml:space="preserve" text-anchor="middle" x="425" y="-350.25" font-family="Helvetica,sans-Serif" font-size="10.00">handle_signal</text>
</a>
</g>
</g>
<!-- Node18&#45;&gt;Node22 -->
<g id="edge36_Node000018_Node000022" class="edge">
<title>Node18&#45;&gt;Node22</title>
<g id="a_edge36_Node000018_Node000022"><a xlink:title=" ">
<path fill="none" stroke="#63b8ff" d="M322.06,-400.53C337.78,-392.81 359.49,-382.28 378.75,-373.38 381.92,-371.91 385.23,-370.4 388.55,-368.91"/>
<polygon fill="#63b8ff" stroke="#63b8ff" points="389.95,-372.11 397.65,-364.84 387.1,-365.72 389.95,-372.11"/>
</a>
</g>
</g>
<!-- Node19&#45;&gt;Node4 -->
<g id="edge24_Node000019_Node000004" class="edge">
<title>Node19&#45;&gt;Node4</title>
<g id="a_edge24_Node000019_Node000004"><a xlink:title=" ">
<path fill="none" stroke="#63b8ff" d="M465.11,-426.64C503.17,-420.31 560.89,-405.98 600.5,-374.38 631.73,-349.45 652.05,-306.23 662.05,-280.46"/>
<polygon fill="#63b8ff" stroke="#63b8ff" points="665.21,-282 665.39,-271.4 658.65,-279.57 665.21,-282"/>
</a>
</g>
</g>
<!-- Node19&#45;&gt;Node8 -->
<g id="edge25_Node000019_Node000008" class="edge">
<title>Node19&#45;&gt;Node8</title>
<g id="a_edge25_Node000019_Node000008"><a xlink:title=" ">
<path fill="none" stroke="#63b8ff" d="M460.08,-420.6C464.28,-418.11 468.18,-415.08 471.25,-411.38 515.87,-357.63 476.67,-321.18 507.25,-258.38 514.03,-244.45 524.73,-230.83 534.07,-220.4"/>
<polygon fill="#63b8ff" stroke="#63b8ff" points="536.49,-222.93 540.76,-213.23 531.38,-218.15 536.49,-222.93"/>
</a>
</g>
</g>
<!-- Node19&#45;&gt;Node10 -->
<g id="edge26_Node000019_Node000010" class="edge">
<title>Node19&#45;&gt;Node10</title>
<g id="a_edge26_Node000019_Node000010"><a xlink:title=" ">
<path fill="none" stroke="#63b8ff" d="M457.98,-420.71C462.8,-418.17 467.43,-415.08 471.25,-411.38 497.8,-385.64 480.66,-362.07 507.25,-336.38 508.46,-335.21 509.74,-334.11 511.08,-333.06"/>
<polygon fill="#63b8ff" stroke="#63b8ff" points="512.78,-336.13 519.35,-327.82 509.03,-330.22 512.78,-336.13"/>
</a>
</g>
</g>
<!-- Node19&#45;&gt;Node11 -->
<g id="edge27_Node000019_Node000011" class="edge">
<title>Node19&#45;&gt;Node11</title>
<g id="a_edge27_Node000019_Node000011"><a xlink:title=" ">
<path fill="none" stroke="#63b8ff" d="M459.37,-420.65C463.79,-418.14 467.93,-415.09 471.25,-411.38 506.69,-371.79 471.75,-336.91 507.25,-297.38 508.09,-296.44 508.98,-295.55 509.91,-294.7"/>
<polygon fill="#63b8ff" stroke="#63b8ff" points="511.88,-297.59 518,-288.94 507.82,-291.89 511.88,-297.59"/>
</a>
</g>
</g>
<!-- Node19&#45;&gt;Node12 -->
<g id="edge28_Node000019_Node000012" class="edge">
<title>Node19&#45;&gt;Node12</title>
<g id="a_edge28_Node000019_Node000012"><a xlink:title=" ">
<path fill="none" stroke="#63b8ff" d="M428.32,-442.14C435.21,-471.64 458.18,-554.77 507.25,-602.38 508.3,-603.39 509.41,-604.36 510.56,-605.28"/>
<polygon fill="#63b8ff" stroke="#63b8ff" points="508.58,-608.17 518.87,-610.69 512.4,-602.3 508.58,-608.17"/>
</a>
</g>
</g>
<!-- Node19&#45;&gt;Node13 -->
<g id="edge29_Node000019_Node000013" class="edge">
<title>Node19&#45;&gt;Node13</title>
<g id="a_edge29_Node000019_Node000013"><a xlink:title=" ">
<path fill="none" stroke="#63b8ff" d="M432.55,-441.95C444.95,-461.17 473.64,-502.12 507.25,-526.38 543.54,-552.56 563.92,-538.59 600.5,-564.38 622.8,-580.1 642.92,-604.33 655.58,-621.4"/>
<polygon fill="#63b8ff" stroke="#63b8ff" points="652.56,-623.2 661.24,-629.28 658.25,-619.12 652.56,-623.2"/>
</a>
</g>
</g>
<!-- Node19&#45;&gt;Node14 -->
<g id="edge31_Node000019_Node000014" class="edge">
<title>Node19&#45;&gt;Node14</title>
<g id="a_edge31_Node000019_Node000014"><a xlink:title=" ">
<path fill="none" stroke="#63b8ff" d="M465.24,-436.2C500.66,-440.7 554.17,-447.82 600.5,-455.38 608.42,-456.67 616.83,-458.15 624.95,-459.65"/>
<polygon fill="#63b8ff" stroke="#63b8ff" points="624.19,-463.07 634.67,-461.48 625.48,-456.19 624.19,-463.07"/>
</a>
</g>
</g>
<!-- Node19&#45;&gt;Node15 -->
<g id="edge32_Node000019_Node000015" class="edge">
<title>Node19&#45;&gt;Node15</title>
<g id="a_edge32_Node000019_Node000015"><a xlink:title=" ">
<path fill="none" stroke="#63b8ff" d="M430.41,-441.95C440.72,-465.64 468.54,-523.7 507.25,-559.38 510.17,-562.06 513.44,-564.54 516.87,-566.8"/>
<polygon fill="#63b8ff" stroke="#63b8ff" points="515.02,-569.78 525.42,-571.82 518.56,-563.74 515.02,-569.78"/>
</a>
</g>
</g>
<!-- Node19&#45;&gt;Node16 -->
<g id="edge33_Node000019_Node000016" class="edge">
<title>Node19&#45;&gt;Node16</title>
<g id="a_edge33_Node000019_Node000016"><a xlink:title=" ">
<path fill="none" stroke="#63b8ff" d="M443.91,-442.1C465.07,-454.78 500.51,-476.01 525.2,-490.8"/>
<polygon fill="#63b8ff" stroke="#63b8ff" points="523.38,-493.79 533.76,-495.92 526.98,-487.78 523.38,-493.79"/>
</a>
</g>
</g>
<!-- Node19&#45;&gt;Node18 -->
<g id="edge34_Node000019_Node000018" class="edge">
<title>Node19&#45;&gt;Node18</title>
<g id="a_edge34_Node000019_Node000018"><a xlink:title=" ">
<path fill="none" stroke="#63b8ff" d="M384.73,-431.37C370.25,-429.59 353.85,-426.94 339.36,-424.04"/>
<polygon fill="#63b8ff" stroke="#63b8ff" points="340.22,-420.64 329.71,-421.99 338.77,-427.49 340.22,-420.64"/>
</a>
</g>
</g>
<!-- Node20 -->
<g id="Node000020" class="node">
<title>Node20</title>
<g id="a_Node000020"><a xlink:href="../../d0/d59/futil_8c.html#a636608f26d1193b5d860f2312cd8ee49" target="_top" xlink:title="terminates string at New Line, Carriage Return, or max_len">
<polygon fill="white" stroke="#666666" points="573.88,-365.75 533.88,-365.75 533.88,-345 573.88,-345 573.88,-365.75"/>
<text xml:space="preserve" text-anchor="middle" x="553.88" y="-352.25" font-family="Helvetica,sans-Serif" font-size="10.00">strnz</text>
</a>
</g>
</g>
<!-- Node19&#45;&gt;Node20 -->
<g id="edge30_Node000019_Node000020" class="edge">
<title>Node19&#45;&gt;Node20</title>
<g id="a_edge30_Node000019_Node000020"><a xlink:title=" ">
<path fill="none" stroke="#63b8ff" d="M453.99,-420.63C459.87,-417.93 465.9,-414.81 471.25,-411.38 489.26,-399.8 489.65,-391.56 507.25,-379.38 512.4,-375.81 518.15,-372.4 523.78,-369.33"/>
<polygon fill="#63b8ff" stroke="#63b8ff" points="525.03,-372.62 532.29,-364.9 521.8,-366.41 525.03,-372.62"/>
</a>
</g>
</g>
<!-- Node25&#45;&gt;Node4 -->
<g id="edge42_Node000025_Node000004" class="edge">
<title>Node25&#45;&gt;Node4</title>
<g id="a_edge42_Node000025_Node000004"><a xlink:title=" ">
<path fill="none" stroke="#63b8ff" d="M205.12,-160.99C302.45,-156.46 531.52,-149.72 600.5,-182.38 603.97,-184.02 633.67,-217.97 652.91,-240.24"/>
<polygon fill="#63b8ff" stroke="#63b8ff" points="650.01,-242.23 659.19,-247.52 655.31,-237.66 650.01,-242.23"/>
</a>
</g>
</g>
<!-- Node26 -->
<g id="Node000026" class="node">
<title>Node26</title>
<g id="a_Node000026"><a xlink:href="../../da/d12/sig_8c.html#aa08a9a8dede37c66c81c3f51a0f338a9" target="_top" xlink:title="Signal handler for interrupt signals.">
<polygon fill="white" stroke="#666666" points="342.75,-135.75 255.5,-135.75 255.5,-115 342.75,-115 342.75,-135.75"/>
<text xml:space="preserve" text-anchor="middle" x="299.12" y="-122.25" font-family="Helvetica,sans-Serif" font-size="10.00">signal_handler</text>
</a>
</g>
</g>
<!-- Node25&#45;&gt;Node26 -->
<g id="edge43_Node000025_Node000026" class="edge">
<title>Node25&#45;&gt;Node26</title>
<g id="a_edge43_Node000025_Node000026"><a xlink:title=" ">
<path fill="none" stroke="#63b8ff" d="M199.75,-152.59C214.83,-148.42 232.28,-143.59 248.25,-139.17"/>
<polygon fill="#63b8ff" stroke="#63b8ff" points="248.87,-142.63 257.57,-136.59 247,-135.89 248.87,-142.63"/>
</a>
</g>
</g>
</g>
</svg>
