<?xml version="1.0" encoding="UTF-8" standalone="no"?>
<!DOCTYPE svg PUBLIC "-//W3C//DTD SVG 1.1//EN"
 "http://www.w3.org/Graphics/SVG/1.1/DTD/svg11.dtd">
<!-- Generated by graphviz version 14.1.2 (0)
 -->
<!-- Title: lf_find Pages: 1 -->
<svg width="800pt" height="606pt"
 viewBox="0.00 0.00 800.00 606.00" xmlns="http://www.w3.org/2000/svg" xmlns:xlink="http://www.w3.org/1999/xlink">
<g id="graph0" class="graph" transform="scale(1 1) rotate(0) translate(4 602.48)">
<title>lf_find</title>
<!-- Node1 -->
<g id="Node000001" class="node">
<title>Node1</title>
<g id="a_Node000001"><a xlink:title="Find files in a directory matching a regular expression.">
<polygon fill="#999999" stroke="#666666" points="46.75,-368.25 0,-368.25 0,-347.5 46.75,-347.5 46.75,-368.25"/>
<text xml:space="preserve" text-anchor="middle" x="23.38" y="-354.75" font-family="Helvetica,sans-Serif" font-size="10.00">lf_find</text>
</a>
</g>
</g>
<!-- Node2 -->
<g id="Node000002" class="node">
<title>Node2</title>
<g id="a_Node000002"><a xlink:href="../../dc/d40/dwin_8c.html#a67659f8a701b74f4dec0d36227a10d1c" target="_top" xlink:title="Display an error message window or print to stderr.">
<polygon fill="white" stroke="#666666" points="264,-368.25 184.25,-368.25 184.25,-347.5 264,-347.5 264,-368.25"/>
<text xml:space="preserve" text-anchor="middle" x="224.12" y="-354.75" font-family="Helvetica,sans-Serif" font-size="10.00">display_error</text>
</a>
</g>
</g>
<!-- Node1&#45;&gt;Node2 -->
<g id="edge1_Node000001_Node000002" class="edge">
<title>Node1&#45;&gt;Node2</title>
<g id="a_edge1_Node000001_Node000002"><a xlink:title=" ">
<path fill="none" stroke="#63b8ff" d="M47.17,-357.87C77.52,-357.87 132.04,-357.87 172.38,-357.87"/>
<polygon fill="#63b8ff" stroke="#63b8ff" points="172.36,-361.37 182.36,-357.87 172.36,-354.37 172.36,-361.37"/>
</a>
</g>
</g>
<!-- Node12 -->
<g id="Node000012" class="node">
<title>Node12</title>
<g id="a_Node000012"><a xlink:href="../../d0/d59/futil_8c.html#a63eb94756fb011a456a3dec900709cd8" target="_top" xlink:title="ssnprintf was designed to be a safer alternative to snprintf.">
<polygon fill="white" stroke="#666666" points="504.88,-521.25 446.12,-521.25 446.12,-500.5 504.88,-500.5 504.88,-521.25"/>
<text xml:space="preserve" text-anchor="middle" x="475.5" y="-507.75" font-family="Helvetica,sans-Serif" font-size="10.00">ssnprintf</text>
</a>
</g>
</g>
<!-- Node1&#45;&gt;Node12 -->
<g id="edge42_Node000001_Node000012" class="edge">
<title>Node1&#45;&gt;Node12</title>
<g id="a_edge42_Node000001_Node000012"><a xlink:title=" ">
<path fill="none" stroke="#63b8ff" d="M32.02,-368.6C61.16,-408.33 170.12,-546.94 300,-587.87 339.53,-600.33 354.75,-603.22 393.25,-587.87 421.87,-576.47 446.2,-549.66 460.58,-530.91"/>
<polygon fill="#63b8ff" stroke="#63b8ff" points="463.34,-533.06 466.44,-522.93 457.7,-528.91 463.34,-533.06"/>
</a>
</g>
</g>
<!-- Node21 -->
<g id="Node000021" class="node">
<title>Node21</title>
<g id="a_Node000021"><a xlink:href="../../d0/d59/futil_8c.html#a07c8d6297f2d3fd2651a507391fd6d2e" target="_top" xlink:title="logic for lf_find()">
<polygon fill="white" stroke="#666666" points="148.25,-234.25 82.75,-234.25 82.75,-213.5 148.25,-213.5 148.25,-234.25"/>
<text xml:space="preserve" text-anchor="middle" x="115.5" y="-220.75" font-family="Helvetica,sans-Serif" font-size="10.00">lf_process</text>
</a>
</g>
</g>
<!-- Node1&#45;&gt;Node21 -->
<g id="edge26_Node000001_Node000021" class="edge">
<title>Node1&#45;&gt;Node21</title>
<g id="a_edge26_Node000001_Node000021"><a xlink:title=" ">
<path fill="none" stroke="#63b8ff" d="M31.45,-347.36C46.38,-325.16 81.34,-273.17 100.81,-244.23"/>
<polygon fill="#63b8ff" stroke="#63b8ff" points="103.69,-246.22 106.37,-235.97 97.88,-242.31 103.69,-246.22"/>
</a>
</g>
</g>
<!-- Node3 -->
<g id="Node000003" class="node">
<title>Node3</title>
<g id="a_Node000003"><a xlink:href="../../dc/d40/dwin_8c.html#a8f6c45ca4a7f6a41c4c88314e697565a" target="_top" xlink:title="Abnormal program termination.">
<polygon fill="white" stroke="#666666" points="498.5,-407.25 452.5,-407.25 452.5,-386.5 498.5,-386.5 498.5,-407.25"/>
<text xml:space="preserve" text-anchor="middle" x="475.5" y="-393.75" font-family="Helvetica,sans-Serif" font-size="10.00">abend</text>
</a>
</g>
</g>
<!-- Node2&#45;&gt;Node3 -->
<g id="edge2_Node000002_Node000003" class="edge">
<title>Node2&#45;&gt;Node3</title>
<g id="a_edge2_Node000002_Node000003"><a xlink:title=" ">
<path fill="none" stroke="#63b8ff" d="M234.47,-368.58C247.5,-382.61 272.62,-406.51 300,-415.87 347.22,-432.02 405.44,-419.73 441.26,-408.78"/>
<polygon fill="#63b8ff" stroke="#63b8ff" points="442.17,-412.17 450.62,-405.77 440.03,-405.5 442.17,-412.17"/>
</a>
</g>
</g>
<!-- Node7 -->
<g id="Node000007" class="node">
<title>Node7</title>
<g id="a_Node000007"><a xlink:href="../../dc/d40/dwin_8c.html#a645871e46277e31736bc36d0f3dce4bd" target="_top" xlink:title="construct the chyron string from the chyron structure">
<polygon fill="white" stroke="#666666" points="393.25,-63.25 300,-63.25 300,-42.5 393.25,-42.5 393.25,-63.25"/>
<text xml:space="preserve" text-anchor="middle" x="346.62" y="-49.75" font-family="Helvetica,sans-Serif" font-size="10.00">compile_chyron</text>
</a>
</g>
</g>
<!-- Node2&#45;&gt;Node7 -->
<g id="edge8_Node000002_Node000007" class="edge">
<title>Node2&#45;&gt;Node7</title>
<g id="a_edge8_Node000002_Node000007"><a xlink:title=" ">
<path fill="none" stroke="#63b8ff" d="M228.99,-347.16C236.25,-326.92 252.23,-281.59 264,-242.87 281.81,-184.28 272.28,-164.48 300,-109.87 307.01,-96.06 317.72,-82.45 327.01,-71.99"/>
<polygon fill="#63b8ff" stroke="#63b8ff" points="329.43,-74.52 333.64,-64.8 324.29,-69.77 329.43,-74.52"/>
</a>
</g>
</g>
<!-- Node9 -->
<g id="Node000009" class="node">
<title>Node9</title>
<g id="a_Node000009"><a xlink:href="../../dc/d40/dwin_8c.html#a3f3feb40fd703913c5c136331f627c91" target="_top" xlink:title="Destroy Chyron structure.">
<polygon fill="white" stroke="#666666" points="392.12,-253.25 301.12,-253.25 301.12,-232.5 392.12,-232.5 392.12,-253.25"/>
<text xml:space="preserve" text-anchor="middle" x="346.62" y="-239.75" font-family="Helvetica,sans-Serif" font-size="10.00">destroy_chyron</text>
</a>
</g>
</g>
<!-- Node2&#45;&gt;Node9 -->
<g id="edge10_Node000002_Node000009" class="edge">
<title>Node2&#45;&gt;Node9</title>
<g id="a_edge10_Node000002_Node000009"><a xlink:title=" ">
<path fill="none" stroke="#63b8ff" d="M231.2,-347.05C242.48,-327.79 268.44,-287.28 300,-262.87 301.74,-261.52 303.59,-260.24 305.51,-259.04"/>
<polygon fill="#63b8ff" stroke="#63b8ff" points="307.06,-262.18 314.15,-254.3 303.7,-256.04 307.06,-262.18"/>
</a>
</g>
</g>
<!-- Node10 -->
<g id="Node000010" class="node">
<title>Node10</title>
<g id="a_Node000010"><a xlink:href="../../dc/d40/dwin_8c.html#ad37d5808ff30ae6894780425d865abae" target="_top" xlink:title="Create and initialize Chyron structure.">
<polygon fill="white" stroke="#666666" points="383.88,-407.25 309.38,-407.25 309.38,-386.5 383.88,-386.5 383.88,-407.25"/>
<text xml:space="preserve" text-anchor="middle" x="346.62" y="-393.75" font-family="Helvetica,sans-Serif" font-size="10.00">new_chyron</text>
</a>
</g>
</g>
<!-- Node2&#45;&gt;Node10 -->
<g id="edge11_Node000002_Node000010" class="edge">
<title>Node2&#45;&gt;Node10</title>
<g id="a_edge11_Node000002_Node000010"><a xlink:title=" ">
<path fill="none" stroke="#63b8ff" d="M258.69,-368.74C272.01,-373.05 287.51,-378.06 301.7,-382.66"/>
<polygon fill="#63b8ff" stroke="#63b8ff" points="300.21,-385.85 310.8,-385.6 302.36,-379.19 300.21,-385.85"/>
</a>
</g>
</g>
<!-- Node11 -->
<g id="Node000011" class="node">
<title>Node11</title>
<g id="a_Node000011"><a xlink:href="../../dc/d40/dwin_8c.html#a208ce92c197fdd6d2b007987e534aa3b" target="_top" xlink:title="Set chyron key.">
<polygon fill="white" stroke="#666666" points="392.5,-483.25 300.75,-483.25 300.75,-462.5 392.5,-462.5 392.5,-483.25"/>
<text xml:space="preserve" text-anchor="middle" x="346.62" y="-469.75" font-family="Helvetica,sans-Serif" font-size="10.00">set_chyron_key</text>
</a>
</g>
</g>
<!-- Node2&#45;&gt;Node11 -->
<g id="edge13_Node000002_Node000011" class="edge">
<title>Node2&#45;&gt;Node11</title>
<g id="a_edge13_Node000002_Node000011"><a xlink:title=" ">
<path fill="none" stroke="#63b8ff" d="M231.85,-368.58C243.77,-386.9 270.17,-424.59 300,-448.87 303.42,-451.65 307.21,-454.25 311.1,-456.64"/>
<polygon fill="#63b8ff" stroke="#63b8ff" points="309.08,-459.52 319.51,-461.36 312.51,-453.41 309.08,-459.52"/>
</a>
</g>
</g>
<!-- Node2&#45;&gt;Node12 -->
<g id="edge15_Node000002_Node000012" class="edge">
<title>Node2&#45;&gt;Node12</title>
<g id="a_edge15_Node000002_Node000012"><a xlink:title=" ">
<path fill="none" stroke="#63b8ff" d="M227.53,-368.5C234.04,-394.59 254.67,-461.86 300,-491.87 340.07,-518.4 396.98,-519.46 434.79,-516.36"/>
<polygon fill="#63b8ff" stroke="#63b8ff" points="434.74,-519.88 444.36,-515.43 434.07,-512.91 434.74,-519.88"/>
</a>
</g>
</g>
<!-- Node13 -->
<g id="Node000013" class="node">
<title>Node13</title>
<g id="a_Node000013"><a xlink:href="../../d0/d59/futil_8c.html#a636608f26d1193b5d860f2312cd8ee49" target="_top" xlink:title="terminates string at New Line, Carriage Return, or max_len">
<polygon fill="white" stroke="#666666" points="366.62,-559.25 326.62,-559.25 326.62,-538.5 366.62,-538.5 366.62,-559.25"/>
<text xml:space="preserve" text-anchor="middle" x="346.62" y="-545.75" font-family="Helvetica,sans-Serif" font-size="10.00">strnz</text>
</a>
</g>
</g>
<!-- Node2&#45;&gt;Node13 -->
<g id="edge16_Node000002_Node000013" class="edge">
<title>Node2&#45;&gt;Node13</title>
<g id="a_edge16_Node000002_Node000013"><a xlink:title=" ">
<path fill="none" stroke="#63b8ff" d="M227.36,-368.62C233.81,-397.33 254.97,-476.93 300,-524.87 304.63,-529.8 310.51,-533.92 316.49,-537.26"/>
<polygon fill="#63b8ff" stroke="#63b8ff" points="314.57,-540.22 325.09,-541.51 317.67,-533.94 314.57,-540.22"/>
</a>
</g>
</g>
<!-- Node14 -->
<g id="Node000014" class="node">
<title>Node14</title>
<g id="a_Node000014"><a xlink:href="../../d0/d59/futil_8c.html#a0de2e40df9bd7efc8fd9afb8ad2257e6" target="_top" xlink:title="safer alternative to strncpy">
<polygon fill="white" stroke="#666666" points="509.38,-101.25 441.62,-101.25 441.62,-80.5 509.38,-80.5 509.38,-101.25"/>
<text xml:space="preserve" text-anchor="middle" x="475.5" y="-87.75" font-family="Helvetica,sans-Serif" font-size="10.00">strnz__cpy</text>
</a>
</g>
</g>
<!-- Node2&#45;&gt;Node14 -->
<g id="edge17_Node000002_Node000014" class="edge">
<title>Node2&#45;&gt;Node14</title>
<g id="a_edge17_Node000002_Node000014"><a xlink:title=" ">
<path fill="none" stroke="#63b8ff" d="M263.52,-347.07C310.37,-333.56 384.48,-310.96 393.25,-300.87 449.64,-236.01 375.81,-178.19 429.25,-110.87 430.15,-109.74 431.13,-108.66 432.17,-107.65"/>
<polygon fill="#63b8ff" stroke="#63b8ff" points="434,-110.65 439.96,-101.89 429.84,-105.03 434,-110.65"/>
</a>
</g>
</g>
<!-- Node15 -->
<g id="Node000015" class="node">
<title>Node15</title>
<g id="a_Node000015"><a xlink:href="../../dc/d40/dwin_8c.html#a9dd598e1d49c8764af1eec42c682623e" target="_top" xlink:title="Delete the current window and its associated box window.">
<polygon fill="white" stroke="#666666" points="373.38,-292.25 319.88,-292.25 319.88,-271.5 373.38,-271.5 373.38,-292.25"/>
<text xml:space="preserve" text-anchor="middle" x="346.62" y="-278.75" font-family="Helvetica,sans-Serif" font-size="10.00">win_del</text>
</a>
</g>
</g>
<!-- Node2&#45;&gt;Node15 -->
<g id="edge18_Node000002_Node000015" class="edge">
<title>Node2&#45;&gt;Node15</title>
<g id="a_edge18_Node000002_Node000015"><a xlink:title=" ">
<path fill="none" stroke="#63b8ff" d="M239.41,-347.17C254.22,-336.25 278.22,-319.1 300,-305.87 304.42,-303.19 309.18,-300.49 313.88,-297.93"/>
<polygon fill="#63b8ff" stroke="#63b8ff" points="315.44,-301.06 322.63,-293.28 312.16,-294.88 315.44,-301.06"/>
</a>
</g>
</g>
<!-- Node16 -->
<g id="Node000016" class="node">
<title>Node16</title>
<g id="a_Node000016"><a xlink:href="../../dc/d40/dwin_8c.html#a435c7bff7ffedb8f51c6de9259e36f6c" target="_top" xlink:title="Create a new window with optional box and title.">
<polygon fill="white" stroke="#666666" points="376,-139.25 317.25,-139.25 317.25,-118.5 376,-118.5 376,-139.25"/>
<text xml:space="preserve" text-anchor="middle" x="346.62" y="-125.75" font-family="Helvetica,sans-Serif" font-size="10.00">win_new</text>
</a>
</g>
</g>
<!-- Node2&#45;&gt;Node16 -->
<g id="edge19_Node000002_Node000016" class="edge">
<title>Node2&#45;&gt;Node16</title>
<g id="a_edge19_Node000002_Node000016"><a xlink:title=" ">
<path fill="none" stroke="#63b8ff" d="M230.78,-347.13C249.51,-311.52 309.83,-196.9 334.72,-149.59"/>
<polygon fill="#63b8ff" stroke="#63b8ff" points="337.72,-151.41 339.28,-140.93 331.53,-148.15 337.72,-151.41"/>
</a>
</g>
</g>
<!-- Node18 -->
<g id="Node000018" class="node">
<title>Node18</title>
<g id="a_Node000018"><a xlink:href="../../dc/d40/dwin_8c.html#acf4c709bccc4c965a5d61db978db31a3" target="_top" xlink:title="Wrapper for wgetch that handles signals and mouse events.">
<polygon fill="white" stroke="#666666" points="375.25,-368.25 318,-368.25 318,-347.5 375.25,-347.5 375.25,-368.25"/>
<text xml:space="preserve" text-anchor="middle" x="346.62" y="-354.75" font-family="Helvetica,sans-Serif" font-size="10.00">xwgetch</text>
</a>
</g>
</g>
<!-- Node2&#45;&gt;Node18 -->
<g id="edge22_Node000002_Node000018" class="edge">
<title>Node2&#45;&gt;Node18</title>
<g id="a_edge22_Node000002_Node000018"><a xlink:title=" ">
<path fill="none" stroke="#63b8ff" d="M264.25,-351.51C277.75,-351 292.87,-350.99 306.38,-351.5"/>
<polygon fill="#63b8ff" stroke="#63b8ff" points="306.08,-354.99 316.24,-352 306.43,-348 306.08,-354.99"/>
</a>
</g>
</g>
<!-- Node4 -->
<g id="Node000004" class="node">
<title>Node4</title>
<g id="a_Node000004"><a xlink:href="../../dc/d40/dwin_8c.html#afc0985a403e3eac0b2cd8f0fab500256" target="_top" xlink:title="Gracefully shut down NCurses and restore terminal settings.">
<polygon fill="white" stroke="#666666" points="647.25,-407.25 557.75,-407.25 557.75,-386.5 647.25,-386.5 647.25,-407.25"/>
<text xml:space="preserve" text-anchor="middle" x="602.5" y="-393.75" font-family="Helvetica,sans-Serif" font-size="10.00">destroy_curses</text>
</a>
</g>
</g>
<!-- Node3&#45;&gt;Node4 -->
<g id="edge3_Node000003_Node000004" class="edge">
<title>Node3&#45;&gt;Node4</title>
<g id="a_edge3_Node000003_Node000004"><a xlink:title=" ">
<path fill="none" stroke="#63b8ff" d="M498.85,-396.87C512.03,-396.87 529.34,-396.87 545.98,-396.87"/>
<polygon fill="#63b8ff" stroke="#63b8ff" points="545.82,-400.37 555.82,-396.87 545.82,-393.37 545.82,-400.37"/>
</a>
</g>
</g>
<!-- Node5 -->
<g id="Node000005" class="node">
<title>Node5</title>
<g id="a_Node000005"><a xlink:href="../../d7/d72/scriou_8c.html#ac5e3adb304b78910fc77761ef6a743f0" target="_top" xlink:title="restore_shell_tioctl() &#45; restore shell terminal settings">
<polygon fill="white" stroke="#666666" points="792.25,-435.25 683.25,-435.25 683.25,-414.5 792.25,-414.5 792.25,-435.25"/>
<text xml:space="preserve" text-anchor="middle" x="737.75" y="-421.75" font-family="Helvetica,sans-Serif" font-size="10.00">restore_shell_tioctl</text>
</a>
</g>
</g>
<!-- Node3&#45;&gt;Node5 -->
<g id="edge6_Node000003_Node000005" class="edge">
<title>Node3&#45;&gt;Node5</title>
<g id="a_edge6_Node000003_Node000005"><a xlink:title=" ">
<path fill="none" stroke="#63b8ff" d="M498.71,-403.2C514.93,-407.55 537.52,-413.02 557.75,-415.87 595.26,-421.16 637.57,-423.45 671.64,-424.4"/>
<polygon fill="#63b8ff" stroke="#63b8ff" points="671.26,-427.9 681.34,-424.64 671.43,-420.9 671.26,-427.9"/>
</a>
</g>
</g>
<!-- Node6 -->
<g id="Node000006" class="node">
<title>Node6</title>
<g id="a_Node000006"><a xlink:href="../../da/d12/sig_8c.html#a06c1eb6cf3649dc187115565409f91af" target="_top" xlink:title="Set signal handlers to default behavior.">
<polygon fill="white" stroke="#666666" points="778.38,-387.25 697.12,-387.25 697.12,-366.5 778.38,-366.5 778.38,-387.25"/>
<text xml:space="preserve" text-anchor="middle" x="737.75" y="-373.75" font-family="Helvetica,sans-Serif" font-size="10.00">sig_dfl_mode</text>
</a>
</g>
</g>
<!-- Node3&#45;&gt;Node6 -->
<g id="edge7_Node000003_Node000006" class="edge">
<title>Node3&#45;&gt;Node6</title>
<g id="a_edge7_Node000003_Node000006"><a xlink:title=" ">
<path fill="none" stroke="#63b8ff" d="M498.68,-390.27C514.88,-385.79 537.47,-380.27 557.75,-377.87 600.64,-372.8 649.71,-372.94 685.61,-374.13"/>
<polygon fill="#63b8ff" stroke="#63b8ff" points="685.14,-377.61 695.27,-374.49 685.4,-370.62 685.14,-377.61"/>
</a>
</g>
</g>
<!-- Node4&#45;&gt;Node5 -->
<g id="edge4_Node000004_Node000005" class="edge">
<title>Node4&#45;&gt;Node5</title>
<g id="a_edge4_Node000004_Node000005"><a xlink:title=" ">
<path fill="none" stroke="#63b8ff" d="M647.5,-406.12C656.12,-407.93 665.32,-409.86 674.41,-411.77"/>
<polygon fill="#63b8ff" stroke="#63b8ff" points="673.41,-415.14 683.92,-413.77 674.85,-408.29 673.41,-415.14"/>
</a>
</g>
</g>
<!-- Node4&#45;&gt;Node6 -->
<g id="edge5_Node000004_Node000006" class="edge">
<title>Node4&#45;&gt;Node6</title>
<g id="a_edge5_Node000004_Node000006"><a xlink:title=" ">
<path fill="none" stroke="#63b8ff" d="M647.5,-390.27C659.69,-388.44 673.02,-386.44 685.58,-384.55"/>
<polygon fill="#63b8ff" stroke="#63b8ff" points="685.98,-388.03 695.35,-383.09 684.94,-381.11 685.98,-388.03"/>
</a>
</g>
</g>
<!-- Node8 -->
<g id="Node000008" class="node">
<title>Node8</title>
<g id="a_Node000008"><a xlink:href="../../d0/d59/futil_8c.html#aa0145c044cfdde3a1c83323410a59f25" target="_top" xlink:title="safer alternative to strncat">
<polygon fill="white" stroke="#666666" points="508.25,-25.25 442.75,-25.25 442.75,-4.5 508.25,-4.5 508.25,-25.25"/>
<text xml:space="preserve" text-anchor="middle" x="475.5" y="-11.75" font-family="Helvetica,sans-Serif" font-size="10.00">strnz__cat</text>
</a>
</g>
</g>
<!-- Node7&#45;&gt;Node8 -->
<g id="edge9_Node000007_Node000008" class="edge">
<title>Node7&#45;&gt;Node8</title>
<g id="a_edge9_Node000007_Node000008"><a xlink:title=" ">
<path fill="none" stroke="#63b8ff" d="M383.64,-42.08C398.5,-37.64 415.84,-32.44 431.37,-27.79"/>
<polygon fill="#63b8ff" stroke="#63b8ff" points="432.26,-31.18 440.84,-24.95 430.26,-24.47 432.26,-31.18"/>
</a>
</g>
</g>
<!-- Node10&#45;&gt;Node3 -->
<g id="edge12_Node000010_Node000003" class="edge">
<title>Node10&#45;&gt;Node3</title>
<g id="a_edge12_Node000010_Node000003"><a xlink:title=" ">
<path fill="none" stroke="#63b8ff" d="M384.32,-396.87C402.16,-396.87 423.45,-396.87 440.87,-396.87"/>
<polygon fill="#63b8ff" stroke="#63b8ff" points="440.7,-400.37 450.7,-396.87 440.7,-393.37 440.7,-400.37"/>
</a>
</g>
</g>
<!-- Node11&#45;&gt;Node12 -->
<g id="edge14_Node000011_Node000012" class="edge">
<title>Node11&#45;&gt;Node12</title>
<g id="a_edge14_Node000011_Node000012"><a xlink:title=" ">
<path fill="none" stroke="#63b8ff" d="M383.64,-483.66C399.6,-488.44 418.41,-494.07 434.77,-498.97"/>
<polygon fill="#63b8ff" stroke="#63b8ff" points="433.61,-502.28 444.19,-501.79 435.62,-495.57 433.61,-502.28"/>
</a>
</g>
</g>
<!-- Node16&#45;&gt;Node14 -->
<g id="edge21_Node000016_Node000014" class="edge">
<title>Node16&#45;&gt;Node14</title>
<g id="a_edge21_Node000016_Node000014"><a xlink:title=" ">
<path fill="none" stroke="#63b8ff" d="M376.41,-120.25C392.4,-115.46 412.62,-109.41 430.54,-104.04"/>
<polygon fill="#63b8ff" stroke="#63b8ff" points="431.32,-107.46 439.89,-101.24 429.31,-100.75 431.32,-107.46"/>
</a>
</g>
</g>
<!-- Node17 -->
<g id="Node000017" class="node">
<title>Node17</title>
<g id="a_Node000017"><a xlink:href="../../dc/d40/dwin_8c.html#ac9adcf7339be4a05ab1a7350c236b8a5" target="_top" xlink:title="Draw a box around the specified window.">
<polygon fill="white" stroke="#666666" points="495.12,-140.25 455.88,-140.25 455.88,-119.5 495.12,-119.5 495.12,-140.25"/>
<text xml:space="preserve" text-anchor="middle" x="475.5" y="-126.75" font-family="Helvetica,sans-Serif" font-size="10.00">cbox</text>
</a>
</g>
</g>
<!-- Node16&#45;&gt;Node17 -->
<g id="edge20_Node000016_Node000017" class="edge">
<title>Node16&#45;&gt;Node17</title>
<g id="a_edge20_Node000016_Node000017"><a xlink:title=" ">
<path fill="none" stroke="#63b8ff" d="M376.41,-129.1C396.71,-129.26 423.82,-129.47 444.4,-129.64"/>
<polygon fill="#63b8ff" stroke="#63b8ff" points="444.11,-133.13 454.14,-129.71 444.17,-126.13 444.11,-133.13"/>
</a>
</g>
</g>
<!-- Node18&#45;&gt;Node2 -->
<g id="edge23_Node000018_Node000002" class="edge">
<title>Node18&#45;&gt;Node2</title>
<g id="a_edge23_Node000018_Node000002"><a xlink:title=" ">
<path fill="none" stroke="#63b8ff" d="M317.76,-363.67C305.22,-364.49 290.02,-364.78 275.59,-364.54"/>
<polygon fill="#63b8ff" stroke="#63b8ff" points="275.85,-361.05 265.76,-364.28 275.66,-368.05 275.85,-361.05"/>
</a>
</g>
</g>
<!-- Node19 -->
<g id="Node000019" class="node">
<title>Node19</title>
<g id="a_Node000019"><a xlink:href="../../dc/d40/dwin_8c.html#a4298f891699300bfc4e6e56fd2a8d574" target="_top" xlink:title="Get keycode from chyron.">
<polygon fill="white" stroke="#666666" points="521.75,-368.25 429.25,-368.25 429.25,-347.5 521.75,-347.5 521.75,-368.25"/>
<text xml:space="preserve" text-anchor="middle" x="475.5" y="-354.75" font-family="Helvetica,sans-Serif" font-size="10.00">get_chyron_key</text>
</a>
</g>
</g>
<!-- Node18&#45;&gt;Node19 -->
<g id="edge24_Node000018_Node000019" class="edge">
<title>Node18&#45;&gt;Node19</title>
<g id="a_edge24_Node000018_Node000019"><a xlink:title=" ">
<path fill="none" stroke="#63b8ff" d="M375.47,-357.87C387.79,-357.87 402.75,-357.87 417.28,-357.87"/>
<polygon fill="#63b8ff" stroke="#63b8ff" points="417.26,-361.37 427.26,-357.87 417.26,-354.37 417.26,-361.37"/>
</a>
</g>
</g>
<!-- Node20 -->
<g id="Node000020" class="node">
<title>Node20</title>
<g id="a_Node000020"><a xlink:href="../../d0/d6b/cm_8h.html#a0667873879b5846c3fe2fa2cc96059d6" target="_top" xlink:title=" ">
<polygon fill="white" stroke="#666666" points="517.25,-329.25 433.75,-329.25 433.75,-308.5 517.25,-308.5 517.25,-329.25"/>
<text xml:space="preserve" text-anchor="middle" x="475.5" y="-315.75" font-family="Helvetica,sans-Serif" font-size="10.00">handle_signal</text>
</a>
</g>
</g>
<!-- Node18&#45;&gt;Node20 -->
<g id="edge25_Node000018_Node000020" class="edge">
<title>Node18&#45;&gt;Node20</title>
<g id="a_edge25_Node000018_Node000020"><a xlink:title=" ">
<path fill="none" stroke="#63b8ff" d="M375.47,-349.31C391.05,-344.52 410.88,-338.43 428.69,-332.96"/>
<polygon fill="#63b8ff" stroke="#63b8ff" points="429.48,-336.37 438.01,-330.09 427.43,-329.68 429.48,-336.37"/>
</a>
</g>
</g>
<!-- Node21&#45;&gt;Node8 -->
<g id="edge40_Node000021_Node000008" class="edge">
<title>Node21&#45;&gt;Node8</title>
<g id="a_edge40_Node000021_Node000008"><a xlink:title=" ">
<path fill="none" stroke="#63b8ff" d="M117.49,-213.17C120.85,-183.06 134.56,-96.94 184.25,-51.87 252.26,9.81 368.93,2.84 431.64,-6.59"/>
<polygon fill="#63b8ff" stroke="#63b8ff" points="430.77,-10 441.2,-8.13 431.88,-3.09 430.77,-10"/>
</a>
</g>
</g>
<!-- Node21&#45;&gt;Node12 -->
<g id="edge39_Node000021_Node000012" class="edge">
<title>Node21&#45;&gt;Node12</title>
<g id="a_edge39_Node000021_Node000012"><a xlink:title=" ">
<path fill="none" stroke="#63b8ff" d="M118.08,-234.5C126.11,-284.04 167.31,-493.13 300,-567.87 336.11,-588.21 353.73,-580.35 393.25,-567.87 417.29,-560.28 440.38,-542.75 455.77,-529.12"/>
<polygon fill="#63b8ff" stroke="#63b8ff" points="457.78,-532.03 462.77,-522.68 453.04,-526.88 457.78,-532.03"/>
</a>
</g>
</g>
<!-- Node21&#45;&gt;Node14 -->
<g id="edge41_Node000021_Node000014" class="edge">
<title>Node21&#45;&gt;Node14</title>
<g id="a_edge41_Node000021_Node000014"><a xlink:title=" ">
<path fill="none" stroke="#63b8ff" d="M122.4,-213.3C142.13,-179.22 209.66,-72.22 300,-33.87 338.15,-17.68 353.73,-21.39 393.25,-33.87 417.29,-41.46 440.38,-58.99 455.77,-72.62"/>
<polygon fill="#63b8ff" stroke="#63b8ff" points="453.04,-74.87 462.77,-79.07 457.78,-69.72 453.04,-74.87"/>
</a>
</g>
</g>
<!-- Node21&#45;&gt;Node21 -->
<g id="edge27_Node000021_Node000021" class="edge">
<title>Node21&#45;&gt;Node21</title>
<g id="a_edge27_Node000021_Node000021"><a xlink:title=" ">
<path fill="none" stroke="#63b8ff" d="M100.66,-234.64C94.72,-243.31 99.67,-252.25 115.5,-252.25 123.91,-252.25 129.25,-249.72 131.52,-246.06"/>
<polygon fill="#63b8ff" stroke="#63b8ff" points="135,-245.74 130.5,-236.15 128.04,-246.46 135,-245.74"/>
</a>
</g>
</g>
<!-- Node22 -->
<g id="Node000022" class="node">
<title>Node22</title>
<g id="a_Node000022"><a xlink:href="../../dc/d40/dwin_8c.html#a61b4f28456257f68ed042bed7f187efd" target="_top" xlink:title="Display a simple error message window or print to stderr.">
<polygon fill="white" stroke="#666666" points="246.75,-234.25 201.5,-234.25 201.5,-213.5 246.75,-213.5 246.75,-234.25"/>
<text xml:space="preserve" text-anchor="middle" x="224.12" y="-220.75" font-family="Helvetica,sans-Serif" font-size="10.00">Perror</text>
</a>
</g>
</g>
<!-- Node21&#45;&gt;Node22 -->
<g id="edge28_Node000021_Node000022" class="edge">
<title>Node21&#45;&gt;Node22</title>
<g id="a_edge28_Node000021_Node000022"><a xlink:title=" ">
<path fill="none" stroke="#63b8ff" d="M148.49,-223.87C161.55,-223.87 176.65,-223.87 189.83,-223.87"/>
<polygon fill="#63b8ff" stroke="#63b8ff" points="189.78,-227.37 199.78,-223.87 189.78,-220.37 189.78,-227.37"/>
</a>
</g>
</g>
<!-- Node22&#45;&gt;Node3 -->
<g id="edge29_Node000022_Node000003" class="edge">
<title>Node22&#45;&gt;Node3</title>
<g id="a_edge29_Node000022_Node000003"><a xlink:title=" ">
<path fill="none" stroke="#63b8ff" d="M241.34,-213.01C274,-192.63 348.39,-153.87 393.25,-190.87 458.2,-244.46 376.77,-311.03 429.25,-376.87 432.68,-381.18 437.23,-384.58 442.13,-387.27"/>
<polygon fill="#63b8ff" stroke="#63b8ff" points="440.47,-390.36 451.03,-391.21 443.3,-383.96 440.47,-390.36"/>
</a>
</g>
</g>
<!-- Node22&#45;&gt;Node7 -->
<g id="edge30_Node000022_Node000007" class="edge">
<title>Node22&#45;&gt;Node7</title>
<g id="a_edge30_Node000022_Node000007"><a xlink:title=" ">
<path fill="none" stroke="#63b8ff" d="M228.06,-213.29C235.78,-187.11 258.96,-118.46 300,-76.87 302.72,-74.11 305.83,-71.6 309.11,-69.33"/>
<polygon fill="#63b8ff" stroke="#63b8ff" points="310.61,-72.51 317.37,-64.35 307,-66.52 310.61,-72.51"/>
</a>
</g>
</g>
<!-- Node22&#45;&gt;Node9 -->
<g id="edge31_Node000022_Node000009" class="edge">
<title>Node22&#45;&gt;Node9</title>
<g id="a_edge31_Node000022_Node000009"><a xlink:title=" ">
<path fill="none" stroke="#63b8ff" d="M247.23,-227.36C259.14,-229.24 274.43,-231.65 289.39,-234.01"/>
<polygon fill="#63b8ff" stroke="#63b8ff" points="288.78,-237.45 299.21,-235.55 289.87,-230.54 288.78,-237.45"/>
</a>
</g>
</g>
<!-- Node22&#45;&gt;Node10 -->
<g id="edge32_Node000022_Node000010" class="edge">
<title>Node22&#45;&gt;Node10</title>
<g id="a_edge32_Node000022_Node000010"><a xlink:title=" ">
<path fill="none" stroke="#63b8ff" d="M227.65,-234.67C234.55,-262.04 256.24,-334.91 300,-376.87 301.21,-378.03 302.5,-379.13 303.84,-380.17"/>
<polygon fill="#63b8ff" stroke="#63b8ff" points="301.8,-383.02 312.12,-385.41 305.54,-377.1 301.8,-383.02"/>
</a>
</g>
</g>
<!-- Node22&#45;&gt;Node11 -->
<g id="edge33_Node000022_Node000011" class="edge">
<title>Node22&#45;&gt;Node11</title>
<g id="a_edge33_Node000022_Node000011"><a xlink:title=" ">
<path fill="none" stroke="#63b8ff" d="M228.79,-234.51C241.03,-269.78 280.78,-382.56 300,-415.87 307.84,-429.46 318.76,-443.23 327.95,-453.83"/>
<polygon fill="#63b8ff" stroke="#63b8ff" points="325.19,-455.99 334.46,-461.12 330.41,-451.33 325.19,-455.99"/>
</a>
</g>
</g>
<!-- Node22&#45;&gt;Node12 -->
<g id="edge34_Node000022_Node000012" class="edge">
<title>Node22&#45;&gt;Node12</title>
<g id="a_edge34_Node000022_Node000012"><a xlink:title=" ">
<path fill="none" stroke="#63b8ff" d="M247.16,-215.91C282.4,-204.74 351.7,-189.39 393.25,-223.87 460.06,-279.32 402.36,-333.32 429.25,-415.87 437.95,-442.59 452.53,-471.5 462.79,-490.32"/>
<polygon fill="#63b8ff" stroke="#63b8ff" points="459.59,-491.78 467.51,-498.82 465.71,-488.38 459.59,-491.78"/>
</a>
</g>
</g>
<!-- Node22&#45;&gt;Node14 -->
<g id="edge35_Node000022_Node000014" class="edge">
<title>Node22&#45;&gt;Node14</title>
<g id="a_edge35_Node000022_Node000014"><a xlink:title=" ">
<path fill="none" stroke="#63b8ff" d="M228.63,-213.09C236.86,-189.71 259.81,-134.46 300,-109.87 339.22,-85.87 392.83,-83.57 430.24,-85.71"/>
<polygon fill="#63b8ff" stroke="#63b8ff" points="429.56,-89.18 439.79,-86.4 430.06,-82.19 429.56,-89.18"/>
</a>
</g>
</g>
<!-- Node22&#45;&gt;Node15 -->
<g id="edge36_Node000022_Node000015" class="edge">
<title>Node22&#45;&gt;Node15</title>
<g id="a_edge36_Node000022_Node000015"><a xlink:title=" ">
<path fill="none" stroke="#63b8ff" d="M245.63,-234.67C260.59,-242.46 281.42,-253.09 300,-261.87 303.28,-263.42 306.72,-265.01 310.17,-266.56"/>
<polygon fill="#63b8ff" stroke="#63b8ff" points="308.47,-269.64 319.03,-270.51 311.31,-263.24 308.47,-269.64"/>
</a>
</g>
</g>
<!-- Node22&#45;&gt;Node16 -->
<g id="edge37_Node000022_Node000016" class="edge">
<title>Node22&#45;&gt;Node16</title>
<g id="a_edge37_Node000022_Node000016"><a xlink:title=" ">
<path fill="none" stroke="#63b8ff" d="M234.52,-213.29C248,-198.51 274.08,-171.44 300,-152.87 303.85,-150.12 308.05,-147.48 312.3,-145.02"/>
<polygon fill="#63b8ff" stroke="#63b8ff" points="313.71,-148.23 320.82,-140.38 310.37,-142.09 313.71,-148.23"/>
</a>
</g>
</g>
<!-- Node22&#45;&gt;Node18 -->
<g id="edge38_Node000022_Node000018" class="edge">
<title>Node22&#45;&gt;Node18</title>
<g id="a_edge38_Node000022_Node000018"><a xlink:title=" ">
<path fill="none" stroke="#63b8ff" d="M234.58,-234.39C254.81,-256.88 302.52,-309.94 328.33,-338.64"/>
<polygon fill="#63b8ff" stroke="#63b8ff" points="325.58,-340.81 334.87,-345.91 330.78,-336.13 325.58,-340.81"/>
</a>
</g>
</g>
</g>
</svg>
