<?xml version="1.0" encoding="UTF-8" standalone="no"?>
<!DOCTYPE svg PUBLIC "-//W3C//DTD SVG 1.1//EN"
 "http://www.w3.org/Graphics/SVG/1.1/DTD/svg11.dtd">
<!-- Generated by graphviz version 14.1.2 (0)
 -->
<!-- Title: verify_spec_arg Pages: 1 -->
<svg width="935pt" height="791pt"
 viewBox="0.00 0.00 935.00 791.00" xmlns="http://www.w3.org/2000/svg" xmlns:xlink="http://www.w3.org/1999/xlink">
<g id="graph0" class="graph" transform="scale(1 1) rotate(0) translate(4 787.42)">
<title>verify_spec_arg</title>
<!-- Node1 -->
<g id="Node000001" class="node">
<title>Node1</title>
<g id="a_Node000001"><a xlink:title="Verify file specification argument.">
<polygon fill="#999999" stroke="#666666" points="93.25,-579.57 0,-579.57 0,-558.82 93.25,-558.82 93.25,-579.57"/>
<text xml:space="preserve" text-anchor="middle" x="46.62" y="-566.07" font-family="Helvetica,sans-Serif" font-size="10.00">verify_spec_arg</text>
</a>
</g>
</g>
<!-- Node2 -->
<g id="Node000002" class="node">
<title>Node2</title>
<g id="a_Node000002"><a xlink:href="../../d0/d59/futil_8c.html#a0d44c51feb7f300fecb49dbf223a62f8" target="_top" xlink:title="Removes quotes and trims at first space.">
<polygon fill="white" stroke="#666666" points="399,-665.57 273.5,-665.57 273.5,-644.82 399,-644.82 399,-665.57"/>
<text xml:space="preserve" text-anchor="middle" x="336.25" y="-652.07" font-family="Helvetica,sans-Serif" font-size="10.00">canonicalize_file_spec</text>
</a>
</g>
</g>
<!-- Node1&#45;&gt;Node2 -->
<g id="edge1_Node000001_Node000002" class="edge">
<title>Node1&#45;&gt;Node2</title>
<g id="a_edge1_Node000001_Node000002"><a xlink:title=" ">
<path fill="none" stroke="#63b8ff" d="M83.76,-580C135.53,-595.48 230.86,-623.98 288.12,-641.1"/>
<polygon fill="#63b8ff" stroke="#63b8ff" points="287,-644.42 297.58,-643.93 289.01,-637.71 287,-644.42"/>
</a>
</g>
</g>
<!-- Node3 -->
<g id="Node000003" class="node">
<title>Node3</title>
<g id="a_Node000003"><a xlink:href="../../d0/d59/futil_8c.html#a0de2e40df9bd7efc8fd9afb8ad2257e6" target="_top" xlink:title="safer alternative to strncpy">
<polygon fill="white" stroke="#666666" points="644.38,-541.57 576.62,-541.57 576.62,-520.82 644.38,-520.82 644.38,-541.57"/>
<text xml:space="preserve" text-anchor="middle" x="610.5" y="-528.07" font-family="Helvetica,sans-Serif" font-size="10.00">strnz__cpy</text>
</a>
</g>
</g>
<!-- Node1&#45;&gt;Node3 -->
<g id="edge12_Node000001_Node000003" class="edge">
<title>Node1&#45;&gt;Node3</title>
<g id="a_edge12_Node000001_Node000003"><a xlink:title=" ">
<path fill="none" stroke="#63b8ff" d="M64.98,-558.38C80.98,-549.09 105.75,-536.4 129.25,-531.19 286.3,-496.43 479.39,-514.06 565.01,-524.86"/>
<polygon fill="#63b8ff" stroke="#63b8ff" points="564.49,-528.32 574.86,-526.14 565.39,-521.38 564.49,-528.32"/>
</a>
</g>
</g>
<!-- Node4 -->
<g id="Node000004" class="node">
<title>Node4</title>
<g id="a_Node000004"><a xlink:href="../../d0/d59/futil_8c.html#ad7f9941ba28a6cca3ccce953c4d77e32" target="_top" xlink:title="Replace Leading Tilde With Home Directory.">
<polygon fill="white" stroke="#666666" points="375.75,-598.57 296.75,-598.57 296.75,-577.82 375.75,-577.82 375.75,-598.57"/>
<text xml:space="preserve" text-anchor="middle" x="336.25" y="-585.07" font-family="Helvetica,sans-Serif" font-size="10.00">expand_tilde</text>
</a>
</g>
</g>
<!-- Node1&#45;&gt;Node4 -->
<g id="edge3_Node000001_Node000004" class="edge">
<title>Node1&#45;&gt;Node4</title>
<g id="a_edge3_Node000001_Node000004"><a xlink:title=" ">
<path fill="none" stroke="#63b8ff" d="M93.52,-572.22C145.83,-575.68 231.05,-581.31 285.07,-584.88"/>
<polygon fill="#63b8ff" stroke="#63b8ff" points="284.72,-588.36 294.93,-585.53 285.18,-581.38 284.72,-588.36"/>
</a>
</g>
</g>
<!-- Node5 -->
<g id="Node000005" class="node">
<title>Node5</title>
<g id="a_Node000005"><a xlink:href="../../d0/d59/futil_8c.html#aa0145c044cfdde3a1c83323410a59f25" target="_top" xlink:title="safer alternative to strncat">
<polygon fill="white" stroke="#666666" points="643.25,-769.57 577.75,-769.57 577.75,-748.82 643.25,-748.82 643.25,-769.57"/>
<text xml:space="preserve" text-anchor="middle" x="610.5" y="-756.07" font-family="Helvetica,sans-Serif" font-size="10.00">strnz__cat</text>
</a>
</g>
</g>
<!-- Node1&#45;&gt;Node5 -->
<g id="edge11_Node000001_Node000005" class="edge">
<title>Node1&#45;&gt;Node5</title>
<g id="a_edge11_Node000001_Node000005"><a xlink:title=" ">
<path fill="none" stroke="#63b8ff" d="M50.38,-579.89C57.93,-606.89 81.62,-678.05 129.25,-712.19 263.46,-808.4 475.71,-784.32 566.26,-768.15"/>
<polygon fill="#63b8ff" stroke="#63b8ff" points="566.76,-771.61 575.96,-766.35 565.49,-764.73 566.76,-771.61"/>
</a>
</g>
</g>
<!-- Node6 -->
<g id="Node000006" class="node">
<title>Node6</title>
<g id="a_Node000006"><a xlink:href="../../d0/d59/futil_8c.html#a02792428710078b7a2ca59ef70ae83fa" target="_top" xlink:title="Locates a file in the system PATH.">
<polygon fill="white" stroke="#666666" points="237.5,-703.57 129.25,-703.57 129.25,-682.82 237.5,-682.82 237.5,-703.57"/>
<text xml:space="preserve" text-anchor="middle" x="183.38" y="-690.07" font-family="Helvetica,sans-Serif" font-size="10.00">locate_file_in_path</text>
</a>
</g>
</g>
<!-- Node1&#45;&gt;Node6 -->
<g id="edge6_Node000001_Node000006" class="edge">
<title>Node1&#45;&gt;Node6</title>
<g id="a_edge6_Node000001_Node000006"><a xlink:title=" ">
<path fill="none" stroke="#63b8ff" d="M57.86,-580.03C73.01,-595.9 102.5,-626.2 129.25,-650.19 138.92,-658.87 150.04,-667.99 159.6,-675.59"/>
<polygon fill="#63b8ff" stroke="#63b8ff" points="157.31,-678.24 167.33,-681.67 161.64,-672.74 157.31,-678.24"/>
</a>
</g>
</g>
<!-- Node7 -->
<g id="Node000007" class="node">
<title>Node7</title>
<g id="a_Node000007"><a xlink:href="../../d0/d59/futil_8c.html#a32204f694cf5e28c888a1045a1b383a4" target="_top" xlink:title="removes leading and trailing double quotes if present">
<polygon fill="white" stroke="#666666" points="224,-445.57 142.75,-445.57 142.75,-424.82 224,-424.82 224,-445.57"/>
<text xml:space="preserve" text-anchor="middle" x="183.38" y="-432.07" font-family="Helvetica,sans-Serif" font-size="10.00">stripz_quotes</text>
</a>
</g>
</g>
<!-- Node1&#45;&gt;Node7 -->
<g id="edge10_Node000001_Node000007" class="edge">
<title>Node1&#45;&gt;Node7</title>
<g id="a_edge10_Node000001_Node000007"><a xlink:title=" ">
<path fill="none" stroke="#63b8ff" d="M52.57,-558.47C63.38,-536.16 91.21,-484.39 129.25,-455.19 131.19,-453.71 133.25,-452.32 135.39,-451.03"/>
<polygon fill="#63b8ff" stroke="#63b8ff" points="136.55,-454.37 143.82,-446.65 133.33,-448.15 136.55,-454.37"/>
</a>
</g>
</g>
<!-- Node8 -->
<g id="Node000008" class="node">
<title>Node8</title>
<g id="a_Node000008"><a xlink:href="../../d0/d59/futil_8c.html#ae14a4e790b69c8c2e50d1eb5cdf1fd19" target="_top" xlink:title="Verifies that the directory specified by &quot;spec&quot; exists and is accessible with the permissions specifi...">
<polygon fill="white" stroke="#666666" points="214.62,-484.57 152.12,-484.57 152.12,-463.82 214.62,-463.82 214.62,-484.57"/>
<text xml:space="preserve" text-anchor="middle" x="183.38" y="-471.07" font-family="Helvetica,sans-Serif" font-size="10.00">verify_dir</text>
</a>
</g>
</g>
<!-- Node1&#45;&gt;Node8 -->
<g id="edge13_Node000001_Node000008" class="edge">
<title>Node1&#45;&gt;Node8</title>
<g id="a_edge13_Node000001_Node000008"><a xlink:title=" ">
<path fill="none" stroke="#63b8ff" d="M57.9,-558.46C72.64,-543.51 101.11,-516.24 129.25,-498.19 133.85,-495.24 138.88,-492.47 143.95,-489.93"/>
<polygon fill="#63b8ff" stroke="#63b8ff" points="145.36,-493.13 152.91,-485.7 142.37,-486.8 145.36,-493.13"/>
</a>
</g>
</g>
<!-- Node26 -->
<g id="Node000026" class="node">
<title>Node26</title>
<g id="a_Node000026"><a xlink:href="../../d0/d59/futil_8c.html#ab190e75e095b7d3da114fce21ab8c8ea" target="_top" xlink:title="Verifies that the file specified by &quot;in_spec&quot; exists and is accessible with the permissions specified...">
<polygon fill="white" stroke="#666666" points="216.12,-560.57 150.62,-560.57 150.62,-539.82 216.12,-539.82 216.12,-560.57"/>
<text xml:space="preserve" text-anchor="middle" x="183.38" y="-547.07" font-family="Helvetica,sans-Serif" font-size="10.00">verify_file</text>
</a>
</g>
</g>
<!-- Node1&#45;&gt;Node26 -->
<g id="edge42_Node000001_Node000026" class="edge">
<title>Node1&#45;&gt;Node26</title>
<g id="a_edge42_Node000001_Node000026"><a xlink:title=" ">
<path fill="none" stroke="#63b8ff" d="M93.62,-562.71C108.3,-560.64 124.49,-558.35 138.98,-556.31"/>
<polygon fill="#63b8ff" stroke="#63b8ff" points="139.26,-559.81 148.67,-554.94 138.28,-552.88 139.26,-559.81"/>
</a>
</g>
</g>
<!-- Node2&#45;&gt;Node3 -->
<g id="edge2_Node000002_Node000003" class="edge">
<title>Node2&#45;&gt;Node3</title>
<g id="a_edge2_Node000002_Node000003"><a xlink:title=" ">
<path fill="none" stroke="#63b8ff" d="M399.27,-656.58C438.47,-654.94 488.96,-648.01 528.25,-626.19 559.72,-608.72 584.52,-574.01 598.08,-551.73"/>
<polygon fill="#63b8ff" stroke="#63b8ff" points="601.02,-553.63 603.05,-543.23 594.98,-550.1 601.02,-553.63"/>
</a>
</g>
</g>
<!-- Node4&#45;&gt;Node3 -->
<g id="edge5_Node000004_Node000003" class="edge">
<title>Node4&#45;&gt;Node3</title>
<g id="a_edge5_Node000004_Node000003"><a xlink:title=" ">
<path fill="none" stroke="#63b8ff" d="M365.89,-599.02C404.27,-611.77 473.85,-628.67 528.25,-607.19 556.73,-595.95 581.09,-569.49 595.52,-550.97"/>
<polygon fill="#63b8ff" stroke="#63b8ff" points="598.21,-553.21 601.39,-543.1 592.6,-549.02 598.21,-553.21"/>
</a>
</g>
</g>
<!-- Node4&#45;&gt;Node5 -->
<g id="edge4_Node000004_Node000005" class="edge">
<title>Node4&#45;&gt;Node5</title>
<g id="a_edge4_Node000004_Node000005"><a xlink:title=" ">
<path fill="none" stroke="#63b8ff" d="M354.28,-598.89C400.31,-627.8 527.45,-707.66 582.98,-742.53"/>
<polygon fill="#63b8ff" stroke="#63b8ff" points="580.86,-745.34 591.19,-747.69 584.59,-739.41 580.86,-745.34"/>
</a>
</g>
</g>
<!-- Node6&#45;&gt;Node2 -->
<g id="edge7_Node000006_Node000002" class="edge">
<title>Node6&#45;&gt;Node2</title>
<g id="a_edge7_Node000006_Node000002"><a xlink:title=" ">
<path fill="none" stroke="#63b8ff" d="M227.21,-682.41C244.01,-678.17 263.48,-673.27 281.23,-668.8"/>
<polygon fill="#63b8ff" stroke="#63b8ff" points="282,-672.21 290.84,-666.38 280.29,-665.43 282,-672.21"/>
</a>
</g>
</g>
<!-- Node6&#45;&gt;Node3 -->
<g id="edge9_Node000006_Node000003" class="edge">
<title>Node6&#45;&gt;Node3</title>
<g id="a_edge9_Node000006_Node000003"><a xlink:title=" ">
<path fill="none" stroke="#63b8ff" d="M237.75,-700.84C309.72,-708.3 439.11,-711.36 528.25,-654.19 566.14,-629.89 590.32,-580.93 601.74,-552.66"/>
<polygon fill="#63b8ff" stroke="#63b8ff" points="604.99,-553.94 605.31,-543.35 598.46,-551.43 604.99,-553.94"/>
</a>
</g>
</g>
<!-- Node6&#45;&gt;Node5 -->
<g id="edge8_Node000006_Node000005" class="edge">
<title>Node6&#45;&gt;Node5</title>
<g id="a_edge8_Node000006_Node000005"><a xlink:title=" ">
<path fill="none" stroke="#63b8ff" d="M221.87,-703.98C237.7,-708.25 256.39,-712.9 273.5,-716.19 377.61,-736.21 501.72,-749.36 566.03,-755.39"/>
<polygon fill="#63b8ff" stroke="#63b8ff" points="565.53,-758.85 575.81,-756.29 566.18,-751.88 565.53,-758.85"/>
</a>
</g>
</g>
<!-- Node8&#45;&gt;Node3 -->
<g id="edge41_Node000008_Node000003" class="edge">
<title>Node8&#45;&gt;Node3</title>
<g id="a_edge41_Node000008_Node000003"><a xlink:title=" ">
<path fill="none" stroke="#63b8ff" d="M214.74,-473.13C275.27,-471.71 414.86,-471.91 528.25,-498.19 545.32,-502.15 563.46,-509.22 578.26,-515.8"/>
<polygon fill="#63b8ff" stroke="#63b8ff" points="576.46,-518.82 587.01,-519.82 579.38,-512.46 576.46,-518.82"/>
</a>
</g>
</g>
<!-- Node8&#45;&gt;Node4 -->
<g id="edge39_Node000008_Node000004" class="edge">
<title>Node8&#45;&gt;Node4</title>
<g id="a_edge39_Node000008_Node000004"><a xlink:title=" ">
<path fill="none" stroke="#63b8ff" d="M198.57,-484.92C224.63,-504.61 280.33,-546.69 311.99,-570.62"/>
<polygon fill="#63b8ff" stroke="#63b8ff" points="309.69,-573.26 319.78,-576.5 313.91,-567.68 309.69,-573.26"/>
</a>
</g>
</g>
<!-- Node9 -->
<g id="Node000009" class="node">
<title>Node9</title>
<g id="a_Node000009"><a xlink:href="../../dc/d40/dwin_8c.html#a67659f8a701b74f4dec0d36227a10d1c" target="_top" xlink:title="Display an error message window or print to stderr.">
<polygon fill="white" stroke="#666666" points="376.12,-311.57 296.38,-311.57 296.38,-290.82 376.12,-290.82 376.12,-311.57"/>
<text xml:space="preserve" text-anchor="middle" x="336.25" y="-298.07" font-family="Helvetica,sans-Serif" font-size="10.00">display_error</text>
</a>
</g>
</g>
<!-- Node8&#45;&gt;Node9 -->
<g id="edge14_Node000008_Node000009" class="edge">
<title>Node8&#45;&gt;Node9</title>
<g id="a_edge14_Node000008_Node000009"><a xlink:title=" ">
<path fill="none" stroke="#63b8ff" d="M215.11,-466.4C222.95,-463.44 230.99,-459.47 237.5,-454.19 282.43,-417.78 313.16,-354.97 326.98,-322.31"/>
<polygon fill="#63b8ff" stroke="#63b8ff" points="330.18,-323.73 330.72,-313.14 323.7,-321.08 330.18,-323.73"/>
</a>
</g>
</g>
<!-- Node18 -->
<g id="Node000018" class="node">
<title>Node18</title>
<g id="a_Node000018"><a xlink:href="../../d0/d59/futil_8c.html#a63eb94756fb011a456a3dec900709cd8" target="_top" xlink:title="ssnprintf was designed to be a safer alternative to snprintf.">
<polygon fill="white" stroke="#666666" points="639.88,-81.57 581.12,-81.57 581.12,-60.82 639.88,-60.82 639.88,-81.57"/>
<text xml:space="preserve" text-anchor="middle" x="610.5" y="-68.07" font-family="Helvetica,sans-Serif" font-size="10.00">ssnprintf</text>
</a>
</g>
</g>
<!-- Node8&#45;&gt;Node18 -->
<g id="edge40_Node000008_Node000018" class="edge">
<title>Node8&#45;&gt;Node18</title>
<g id="a_edge40_Node000008_Node000018"><a xlink:title=" ">
<path fill="none" stroke="#63b8ff" d="M215.11,-468.98C223.62,-466.03 232.02,-461.42 237.5,-454.19 293.55,-380.24 205.12,-100.91 273.5,-38.19 359.43,40.62 514.7,-22.98 579.66,-55.25"/>
<polygon fill="#63b8ff" stroke="#63b8ff" points="577.79,-58.23 588.29,-59.63 580.96,-51.99 577.79,-58.23"/>
</a>
</g>
</g>
<!-- Node9&#45;&gt;Node3 -->
<g id="edge30_Node000009_Node000003" class="edge">
<title>Node9&#45;&gt;Node3</title>
<g id="a_edge30_Node000009_Node000003"><a xlink:title=" ">
<path fill="none" stroke="#63b8ff" d="M343.86,-311.83C358.1,-334 393.74,-385.74 435,-417.19 471.3,-444.86 489.95,-435.37 528.25,-460.19 551.86,-475.5 575.73,-497.28 591.43,-512.67"/>
<polygon fill="#63b8ff" stroke="#63b8ff" points="588.64,-514.83 598.19,-519.42 593.58,-509.88 588.64,-514.83"/>
</a>
</g>
</g>
<!-- Node10 -->
<g id="Node000010" class="node">
<title>Node10</title>
<g id="a_Node000010"><a xlink:href="../../dc/d40/dwin_8c.html#a8f6c45ca4a7f6a41c4c88314e697565a" target="_top" xlink:title="Abnormal program termination.">
<polygon fill="white" stroke="#666666" points="633.5,-185.57 587.5,-185.57 587.5,-164.82 633.5,-164.82 633.5,-185.57"/>
<text xml:space="preserve" text-anchor="middle" x="610.5" y="-172.07" font-family="Helvetica,sans-Serif" font-size="10.00">abend</text>
</a>
</g>
</g>
<!-- Node9&#45;&gt;Node10 -->
<g id="edge15_Node000009_Node000010" class="edge">
<title>Node9&#45;&gt;Node10</title>
<g id="a_edge15_Node000009_Node000010"><a xlink:title=" ">
<path fill="none" stroke="#63b8ff" d="M347.65,-290.45C364.48,-273.68 399.4,-241.32 435,-223.19 481.11,-199.71 540.1,-186.58 576.33,-180.2"/>
<polygon fill="#63b8ff" stroke="#63b8ff" points="576.47,-183.72 585.75,-178.61 575.31,-176.82 576.47,-183.72"/>
</a>
</g>
</g>
<!-- Node14 -->
<g id="Node000014" class="node">
<title>Node14</title>
<g id="a_Node000014"><a xlink:href="../../dc/d40/dwin_8c.html#a645871e46277e31736bc36d0f3dce4bd" target="_top" xlink:title="construct the chyron string from the chyron structure">
<polygon fill="white" stroke="#666666" points="528.25,-598.57 435,-598.57 435,-577.82 528.25,-577.82 528.25,-598.57"/>
<text xml:space="preserve" text-anchor="middle" x="481.62" y="-585.07" font-family="Helvetica,sans-Serif" font-size="10.00">compile_chyron</text>
</a>
</g>
</g>
<!-- Node9&#45;&gt;Node14 -->
<g id="edge21_Node000009_Node000014" class="edge">
<title>Node9&#45;&gt;Node14</title>
<g id="a_edge21_Node000009_Node000014"><a xlink:title=" ">
<path fill="none" stroke="#63b8ff" d="M342.52,-311.75C363.56,-353.85 441.69,-510.26 470.16,-567.25"/>
<polygon fill="#63b8ff" stroke="#63b8ff" points="467.03,-568.81 474.63,-576.19 473.29,-565.68 467.03,-568.81"/>
</a>
</g>
</g>
<!-- Node15 -->
<g id="Node000015" class="node">
<title>Node15</title>
<g id="a_Node000015"><a xlink:href="../../dc/d40/dwin_8c.html#a3f3feb40fd703913c5c136331f627c91" target="_top" xlink:title="Destroy Chyron structure.">
<polygon fill="white" stroke="#666666" points="527.12,-408.57 436.12,-408.57 436.12,-387.82 527.12,-387.82 527.12,-408.57"/>
<text xml:space="preserve" text-anchor="middle" x="481.62" y="-395.07" font-family="Helvetica,sans-Serif" font-size="10.00">destroy_chyron</text>
</a>
</g>
</g>
<!-- Node9&#45;&gt;Node15 -->
<g id="edge23_Node000009_Node000015" class="edge">
<title>Node9&#45;&gt;Node15</title>
<g id="a_edge23_Node000009_Node000015"><a xlink:title=" ">
<path fill="none" stroke="#63b8ff" d="M348.87,-311.97C366.49,-327.92 401.47,-358.08 435,-378.19 437.47,-379.67 440.06,-381.1 442.71,-382.48"/>
<polygon fill="#63b8ff" stroke="#63b8ff" points="441.14,-385.61 451.67,-386.79 444.18,-379.3 441.14,-385.61"/>
</a>
</g>
</g>
<!-- Node16 -->
<g id="Node000016" class="node">
<title>Node16</title>
<g id="a_Node000016"><a xlink:href="../../dc/d40/dwin_8c.html#ad37d5808ff30ae6894780425d865abae" target="_top" xlink:title="Create and initialize Chyron structure.">
<polygon fill="white" stroke="#666666" points="518.88,-176.57 444.38,-176.57 444.38,-155.82 518.88,-155.82 518.88,-176.57"/>
<text xml:space="preserve" text-anchor="middle" x="481.62" y="-163.07" font-family="Helvetica,sans-Serif" font-size="10.00">new_chyron</text>
</a>
</g>
</g>
<!-- Node9&#45;&gt;Node16 -->
<g id="edge24_Node000009_Node000016" class="edge">
<title>Node9&#45;&gt;Node16</title>
<g id="a_edge24_Node000009_Node000016"><a xlink:title=" ">
<path fill="none" stroke="#63b8ff" d="M344.55,-290.56C359.53,-269.35 395.64,-221.15 435,-190.19 438.54,-187.41 442.45,-184.79 446.45,-182.38"/>
<polygon fill="#63b8ff" stroke="#63b8ff" points="448.04,-185.5 455.09,-177.59 444.65,-179.38 448.04,-185.5"/>
</a>
</g>
</g>
<!-- Node17 -->
<g id="Node000017" class="node">
<title>Node17</title>
<g id="a_Node000017"><a xlink:href="../../dc/d40/dwin_8c.html#a208ce92c197fdd6d2b007987e534aa3b" target="_top" xlink:title="Set chyron key.">
<polygon fill="white" stroke="#666666" points="527.5,-100.57 435.75,-100.57 435.75,-79.82 527.5,-79.82 527.5,-100.57"/>
<text xml:space="preserve" text-anchor="middle" x="481.62" y="-87.07" font-family="Helvetica,sans-Serif" font-size="10.00">set_chyron_key</text>
</a>
</g>
</g>
<!-- Node9&#45;&gt;Node17 -->
<g id="edge26_Node000009_Node000017" class="edge">
<title>Node9&#45;&gt;Node17</title>
<g id="a_edge26_Node000009_Node000017"><a xlink:title=" ">
<path fill="none" stroke="#63b8ff" d="M340.32,-290.53C349.7,-259.6 380.67,-168.66 435,-114.19 437.74,-111.45 440.85,-108.95 444.14,-106.68"/>
<polygon fill="#63b8ff" stroke="#63b8ff" points="445.64,-109.86 452.41,-101.71 442.03,-103.87 445.64,-109.86"/>
</a>
</g>
</g>
<!-- Node9&#45;&gt;Node18 -->
<g id="edge28_Node000009_Node000018" class="edge">
<title>Node9&#45;&gt;Node18</title>
<g id="a_edge28_Node000009_Node000018"><a xlink:title=" ">
<path fill="none" stroke="#63b8ff" d="M341.25,-290.65C352.15,-263.25 384.94,-189.02 435,-147.19 469.34,-118.5 487.25,-127.12 528.25,-109.19 544.44,-102.11 562.24,-93.85 577.04,-86.83"/>
<polygon fill="#63b8ff" stroke="#63b8ff" points="578.33,-90.09 585.86,-82.63 575.32,-83.77 578.33,-90.09"/>
</a>
</g>
</g>
<!-- Node19 -->
<g id="Node000019" class="node">
<title>Node19</title>
<g id="a_Node000019"><a xlink:href="../../d0/d59/futil_8c.html#a636608f26d1193b5d860f2312cd8ee49" target="_top" xlink:title="terminates string at New Line, Carriage Return, or max_len">
<polygon fill="white" stroke="#666666" points="501.62,-369.57 461.62,-369.57 461.62,-348.82 501.62,-348.82 501.62,-369.57"/>
<text xml:space="preserve" text-anchor="middle" x="481.62" y="-356.07" font-family="Helvetica,sans-Serif" font-size="10.00">strnz</text>
</a>
</g>
</g>
<!-- Node9&#45;&gt;Node19 -->
<g id="edge29_Node000009_Node000019" class="edge">
<title>Node9&#45;&gt;Node19</title>
<g id="a_edge29_Node000009_Node000019"><a xlink:title=" ">
<path fill="none" stroke="#63b8ff" d="M363.88,-311.97C388.57,-321.95 425.25,-336.79 450.89,-347.16"/>
<polygon fill="#63b8ff" stroke="#63b8ff" points="449.49,-350.37 460.07,-350.88 452.11,-343.88 449.49,-350.37"/>
</a>
</g>
</g>
<!-- Node20 -->
<g id="Node000020" class="node">
<title>Node20</title>
<g id="a_Node000020"><a xlink:href="../../dc/d40/dwin_8c.html#a9dd598e1d49c8764af1eec42c682623e" target="_top" xlink:title="Delete the current window and its associated box window.">
<polygon fill="white" stroke="#666666" points="508.38,-291.57 454.88,-291.57 454.88,-270.82 508.38,-270.82 508.38,-291.57"/>
<text xml:space="preserve" text-anchor="middle" x="481.62" y="-278.07" font-family="Helvetica,sans-Serif" font-size="10.00">win_del</text>
</a>
</g>
</g>
<!-- Node9&#45;&gt;Node20 -->
<g id="edge31_Node000009_Node000020" class="edge">
<title>Node9&#45;&gt;Node20</title>
<g id="a_edge31_Node000009_Node000020"><a xlink:title=" ">
<path fill="none" stroke="#63b8ff" d="M376.43,-295.73C397.32,-292.81 422.88,-289.25 443.46,-286.38"/>
<polygon fill="#63b8ff" stroke="#63b8ff" points="443.7,-289.88 453.12,-285.03 442.73,-282.94 443.7,-289.88"/>
</a>
</g>
</g>
<!-- Node21 -->
<g id="Node000021" class="node">
<title>Node21</title>
<g id="a_Node000021"><a xlink:href="../../dc/d40/dwin_8c.html#a435c7bff7ffedb8f51c6de9259e36f6c" target="_top" xlink:title="Create a new window with optional box and title.">
<polygon fill="white" stroke="#666666" points="511,-330.57 452.25,-330.57 452.25,-309.82 511,-309.82 511,-330.57"/>
<text xml:space="preserve" text-anchor="middle" x="481.62" y="-317.07" font-family="Helvetica,sans-Serif" font-size="10.00">win_new</text>
</a>
</g>
</g>
<!-- Node9&#45;&gt;Node21 -->
<g id="edge32_Node000009_Node000021" class="edge">
<title>Node9&#45;&gt;Node21</title>
<g id="a_edge32_Node000009_Node000021"><a xlink:title=" ">
<path fill="none" stroke="#63b8ff" d="M376.43,-306.38C396.39,-309.03 420.62,-312.24 440.68,-314.9"/>
<polygon fill="#63b8ff" stroke="#63b8ff" points="440.08,-318.35 450.46,-316.19 441,-311.41 440.08,-318.35"/>
</a>
</g>
</g>
<!-- Node23 -->
<g id="Node000023" class="node">
<title>Node23</title>
<g id="a_Node000023"><a xlink:href="../../dc/d40/dwin_8c.html#acf4c709bccc4c965a5d61db978db31a3" target="_top" xlink:title="Wrapper for wgetch that handles signals and mouse events.">
<polygon fill="white" stroke="#666666" points="510.25,-252.57 453,-252.57 453,-231.82 510.25,-231.82 510.25,-252.57"/>
<text xml:space="preserve" text-anchor="middle" x="481.62" y="-239.07" font-family="Helvetica,sans-Serif" font-size="10.00">xwgetch</text>
</a>
</g>
</g>
<!-- Node9&#45;&gt;Node23 -->
<g id="edge35_Node000009_Node000023" class="edge">
<title>Node9&#45;&gt;Node23</title>
<g id="a_edge35_Node000009_Node000023"><a xlink:title=" ">
<path fill="none" stroke="#63b8ff" d="M352.87,-290.36C374.1,-279.21 412.8,-262.74 442.06,-252"/>
<polygon fill="#63b8ff" stroke="#63b8ff" points="443.08,-255.35 451.33,-248.7 440.73,-248.76 443.08,-255.35"/>
</a>
</g>
</g>
<!-- Node11 -->
<g id="Node000011" class="node">
<title>Node11</title>
<g id="a_Node000011"><a xlink:href="../../dc/d40/dwin_8c.html#afc0985a403e3eac0b2cd8f0fab500256" target="_top" xlink:title="Gracefully shut down NCurses and restore terminal settings.">
<polygon fill="white" stroke="#666666" points="782.25,-185.57 692.75,-185.57 692.75,-164.82 782.25,-164.82 782.25,-185.57"/>
<text xml:space="preserve" text-anchor="middle" x="737.5" y="-172.07" font-family="Helvetica,sans-Serif" font-size="10.00">destroy_curses</text>
</a>
</g>
</g>
<!-- Node10&#45;&gt;Node11 -->
<g id="edge16_Node000010_Node000011" class="edge">
<title>Node10&#45;&gt;Node11</title>
<g id="a_edge16_Node000010_Node000011"><a xlink:title=" ">
<path fill="none" stroke="#63b8ff" d="M633.85,-175.19C647.03,-175.19 664.34,-175.19 680.98,-175.19"/>
<polygon fill="#63b8ff" stroke="#63b8ff" points="680.82,-178.69 690.82,-175.19 680.82,-171.69 680.82,-178.69"/>
</a>
</g>
</g>
<!-- Node12 -->
<g id="Node000012" class="node">
<title>Node12</title>
<g id="a_Node000012"><a xlink:href="../../d7/d72/scriou_8c.html#ac5e3adb304b78910fc77761ef6a743f0" target="_top" xlink:title="restore_shell_tioctl() &#45; restore shell terminal settings">
<polygon fill="white" stroke="#666666" points="927.25,-213.57 818.25,-213.57 818.25,-192.82 927.25,-192.82 927.25,-213.57"/>
<text xml:space="preserve" text-anchor="middle" x="872.75" y="-200.07" font-family="Helvetica,sans-Serif" font-size="10.00">restore_shell_tioctl</text>
</a>
</g>
</g>
<!-- Node10&#45;&gt;Node12 -->
<g id="edge19_Node000010_Node000012" class="edge">
<title>Node10&#45;&gt;Node12</title>
<g id="a_edge19_Node000010_Node000012"><a xlink:title=" ">
<path fill="none" stroke="#63b8ff" d="M633.71,-181.53C649.93,-185.87 672.52,-191.34 692.75,-194.19 730.26,-199.48 772.57,-201.77 806.64,-202.72"/>
<polygon fill="#63b8ff" stroke="#63b8ff" points="806.26,-206.22 816.34,-202.96 806.43,-199.22 806.26,-206.22"/>
</a>
</g>
</g>
<!-- Node13 -->
<g id="Node000013" class="node">
<title>Node13</title>
<g id="a_Node000013"><a xlink:href="../../da/d12/sig_8c.html#a06c1eb6cf3649dc187115565409f91af" target="_top" xlink:title="Set signal handlers to default behavior.">
<polygon fill="white" stroke="#666666" points="913.38,-165.57 832.12,-165.57 832.12,-144.82 913.38,-144.82 913.38,-165.57"/>
<text xml:space="preserve" text-anchor="middle" x="872.75" y="-152.07" font-family="Helvetica,sans-Serif" font-size="10.00">sig_dfl_mode</text>
</a>
</g>
</g>
<!-- Node10&#45;&gt;Node13 -->
<g id="edge20_Node000010_Node000013" class="edge">
<title>Node10&#45;&gt;Node13</title>
<g id="a_edge20_Node000010_Node000013"><a xlink:title=" ">
<path fill="none" stroke="#63b8ff" d="M633.68,-168.59C649.88,-164.11 672.47,-158.59 692.75,-156.19 735.64,-151.12 784.71,-151.26 820.61,-152.45"/>
<polygon fill="#63b8ff" stroke="#63b8ff" points="820.14,-155.94 830.27,-152.81 820.4,-148.94 820.14,-155.94"/>
</a>
</g>
</g>
<!-- Node11&#45;&gt;Node12 -->
<g id="edge17_Node000011_Node000012" class="edge">
<title>Node11&#45;&gt;Node12</title>
<g id="a_edge17_Node000011_Node000012"><a xlink:title=" ">
<path fill="none" stroke="#63b8ff" d="M782.5,-184.44C791.12,-186.25 800.32,-188.18 809.41,-190.09"/>
<polygon fill="#63b8ff" stroke="#63b8ff" points="808.41,-193.46 818.92,-192.09 809.85,-186.61 808.41,-193.46"/>
</a>
</g>
</g>
<!-- Node11&#45;&gt;Node13 -->
<g id="edge18_Node000011_Node000013" class="edge">
<title>Node11&#45;&gt;Node13</title>
<g id="a_edge18_Node000011_Node000013"><a xlink:title=" ">
<path fill="none" stroke="#63b8ff" d="M782.5,-168.59C794.69,-166.76 808.02,-164.76 820.58,-162.87"/>
<polygon fill="#63b8ff" stroke="#63b8ff" points="820.98,-166.35 830.35,-161.41 819.94,-159.43 820.98,-166.35"/>
</a>
</g>
</g>
<!-- Node14&#45;&gt;Node5 -->
<g id="edge22_Node000014_Node000005" class="edge">
<title>Node14&#45;&gt;Node5</title>
<g id="a_edge22_Node000014_Node000005"><a xlink:title=" ">
<path fill="none" stroke="#63b8ff" d="M490.56,-598.89C511.39,-626.96 567.85,-703.06 594.8,-739.38"/>
<polygon fill="#63b8ff" stroke="#63b8ff" points="591.9,-741.34 600.66,-747.28 597.52,-737.17 591.9,-741.34"/>
</a>
</g>
</g>
<!-- Node16&#45;&gt;Node10 -->
<g id="edge25_Node000016_Node000010" class="edge">
<title>Node16&#45;&gt;Node10</title>
<g id="a_edge25_Node000016_Node000010"><a xlink:title=" ">
<path fill="none" stroke="#63b8ff" d="M519.32,-168.8C537.16,-170.06 558.45,-171.57 575.87,-172.81"/>
<polygon fill="#63b8ff" stroke="#63b8ff" points="575.48,-176.29 585.7,-173.5 575.98,-169.31 575.48,-176.29"/>
</a>
</g>
</g>
<!-- Node17&#45;&gt;Node18 -->
<g id="edge27_Node000017_Node000018" class="edge">
<title>Node17&#45;&gt;Node18</title>
<g id="a_edge27_Node000017_Node000018"><a xlink:title=" ">
<path fill="none" stroke="#63b8ff" d="M527.71,-83.44C541.38,-81.39 556.28,-79.16 569.58,-77.17"/>
<polygon fill="#63b8ff" stroke="#63b8ff" points="569.91,-80.66 579.28,-75.72 568.87,-73.74 569.91,-80.66"/>
</a>
</g>
</g>
<!-- Node21&#45;&gt;Node3 -->
<g id="edge34_Node000021_Node000003" class="edge">
<title>Node21&#45;&gt;Node3</title>
<g id="a_edge34_Node000021_Node000003"><a xlink:title=" ">
<path fill="none" stroke="#63b8ff" d="M511.24,-328.8C517.42,-331.67 523.51,-335.4 528.25,-340.19 576.39,-388.87 597.83,-470.49 605.68,-509.35"/>
<polygon fill="#63b8ff" stroke="#63b8ff" points="602.23,-509.91 607.53,-519.09 609.1,-508.61 602.23,-509.91"/>
</a>
</g>
</g>
<!-- Node22 -->
<g id="Node000022" class="node">
<title>Node22</title>
<g id="a_Node000022"><a xlink:href="../../dc/d40/dwin_8c.html#ac9adcf7339be4a05ab1a7350c236b8a5" target="_top" xlink:title="Draw a box around the specified window.">
<polygon fill="white" stroke="#666666" points="630.12,-330.57 590.88,-330.57 590.88,-309.82 630.12,-309.82 630.12,-330.57"/>
<text xml:space="preserve" text-anchor="middle" x="610.5" y="-317.07" font-family="Helvetica,sans-Serif" font-size="10.00">cbox</text>
</a>
</g>
</g>
<!-- Node21&#45;&gt;Node22 -->
<g id="edge33_Node000021_Node000022" class="edge">
<title>Node21&#45;&gt;Node22</title>
<g id="a_edge33_Node000021_Node000022"><a xlink:title=" ">
<path fill="none" stroke="#63b8ff" d="M511.41,-320.19C531.71,-320.19 558.82,-320.19 579.4,-320.19"/>
<polygon fill="#63b8ff" stroke="#63b8ff" points="579.14,-323.69 589.14,-320.19 579.14,-316.69 579.14,-323.69"/>
</a>
</g>
</g>
<!-- Node23&#45;&gt;Node9 -->
<g id="edge36_Node000023_Node000009" class="edge">
<title>Node23&#45;&gt;Node9</title>
<g id="a_edge36_Node000023_Node000009"><a xlink:title=" ">
<path fill="none" stroke="#63b8ff" d="M465.01,-253.02C446.39,-262.8 414.35,-276.67 387.02,-287.17"/>
<polygon fill="#63b8ff" stroke="#63b8ff" points="385.97,-283.83 377.84,-290.63 388.44,-290.38 385.97,-283.83"/>
</a>
</g>
</g>
<!-- Node24 -->
<g id="Node000024" class="node">
<title>Node24</title>
<g id="a_Node000024"><a xlink:href="../../dc/d40/dwin_8c.html#a4298f891699300bfc4e6e56fd2a8d574" target="_top" xlink:title="Get keycode from chyron.">
<polygon fill="white" stroke="#666666" points="656.75,-234.57 564.25,-234.57 564.25,-213.82 656.75,-213.82 656.75,-234.57"/>
<text xml:space="preserve" text-anchor="middle" x="610.5" y="-221.07" font-family="Helvetica,sans-Serif" font-size="10.00">get_chyron_key</text>
</a>
</g>
</g>
<!-- Node23&#45;&gt;Node24 -->
<g id="edge37_Node000023_Node000024" class="edge">
<title>Node23&#45;&gt;Node24</title>
<g id="a_edge37_Node000023_Node000024"><a xlink:title=" ">
<path fill="none" stroke="#63b8ff" d="M510.47,-238.24C522.91,-236.48 538.05,-234.33 552.71,-232.25"/>
<polygon fill="#63b8ff" stroke="#63b8ff" points="552.86,-235.76 562.27,-230.89 551.88,-228.83 552.86,-235.76"/>
</a>
</g>
</g>
<!-- Node25 -->
<g id="Node000025" class="node">
<title>Node25</title>
<g id="a_Node000025"><a xlink:href="../../d0/d6b/cm_8h.html#a0667873879b5846c3fe2fa2cc96059d6" target="_top" xlink:title=" ">
<polygon fill="white" stroke="#666666" points="652.25,-273.57 568.75,-273.57 568.75,-252.82 652.25,-252.82 652.25,-273.57"/>
<text xml:space="preserve" text-anchor="middle" x="610.5" y="-260.07" font-family="Helvetica,sans-Serif" font-size="10.00">handle_signal</text>
</a>
</g>
</g>
<!-- Node23&#45;&gt;Node25 -->
<g id="edge38_Node000023_Node000025" class="edge">
<title>Node23&#45;&gt;Node25</title>
<g id="a_edge38_Node000023_Node000025"><a xlink:title=" ">
<path fill="none" stroke="#63b8ff" d="M510.47,-246.8C524.34,-249.1 541.56,-251.95 557.74,-254.63"/>
<polygon fill="#63b8ff" stroke="#63b8ff" points="556.78,-258.01 567.22,-256.19 557.93,-251.11 556.78,-258.01"/>
</a>
</g>
</g>
<!-- Node26&#45;&gt;Node2 -->
<g id="edge43_Node000026_Node000002" class="edge">
<title>Node26&#45;&gt;Node2</title>
<g id="a_edge43_Node000026_Node000002"><a xlink:title=" ">
<path fill="none" stroke="#63b8ff" d="M199.95,-561.03C226.18,-579.28 279.33,-616.28 310.65,-638.07"/>
<polygon fill="#63b8ff" stroke="#63b8ff" points="308.53,-640.86 318.74,-643.7 312.53,-635.12 308.53,-640.86"/>
</a>
</g>
</g>
<!-- Node26&#45;&gt;Node3 -->
<g id="edge47_Node000026_Node000003" class="edge">
<title>Node26&#45;&gt;Node3</title>
<g id="a_edge47_Node000026_Node000003"><a xlink:title=" ">
<path fill="none" stroke="#63b8ff" d="M216.33,-548.76C291.3,-545.41 478.64,-537.04 564.83,-533.19"/>
<polygon fill="#63b8ff" stroke="#63b8ff" points="564.95,-536.69 574.79,-532.74 564.64,-529.69 564.95,-536.69"/>
</a>
</g>
</g>
<!-- Node26&#45;&gt;Node4 -->
<g id="edge45_Node000026_Node000004" class="edge">
<title>Node26&#45;&gt;Node4</title>
<g id="a_edge45_Node000026_Node000004"><a xlink:title=" ">
<path fill="none" stroke="#63b8ff" d="M216.37,-558.25C236.35,-563.28 262.5,-569.87 285.18,-575.58"/>
<polygon fill="#63b8ff" stroke="#63b8ff" points="284.31,-578.97 294.87,-578.02 286.02,-572.19 284.31,-578.97"/>
</a>
</g>
</g>
<!-- Node26&#45;&gt;Node9 -->
<g id="edge44_Node000026_Node000009" class="edge">
<title>Node26&#45;&gt;Node9</title>
<g id="a_edge44_Node000026_Node000009"><a xlink:title=" ">
<path fill="none" stroke="#63b8ff" d="M195.95,-539.64C207.44,-528.76 225.09,-510.93 237.5,-493.19 277.94,-435.4 311.85,-358.56 326.9,-322.1"/>
<polygon fill="#63b8ff" stroke="#63b8ff" points="330.01,-323.74 330.54,-313.16 323.53,-321.1 330.01,-323.74"/>
</a>
</g>
</g>
<!-- Node26&#45;&gt;Node18 -->
<g id="edge46_Node000026_Node000018" class="edge">
<title>Node26&#45;&gt;Node18</title>
<g id="a_edge46_Node000026_Node000018"><a xlink:title=" ">
<path fill="none" stroke="#63b8ff" d="M198.08,-539.55C210.46,-529.13 228.14,-512.11 237.5,-493.19 279.7,-407.93 235.48,-369.4 273.5,-282.19 320.7,-173.94 329.12,-123.49 435,-71.19 477.46,-50.22 533.14,-54.86 570.05,-61.66"/>
<polygon fill="#63b8ff" stroke="#63b8ff" points="568.9,-64.99 579.39,-63.51 570.26,-58.13 568.9,-64.99"/>
</a>
</g>
</g>
</g>
</svg>
