<?xml version="1.0" encoding="UTF-8" standalone="no"?>
<!DOCTYPE svg PUBLIC "-//W3C//DTD SVG 1.1//EN"
 "http://www.w3.org/Graphics/SVG/1.1/DTD/svg11.dtd">
<!-- Generated by graphviz version 14.1.2 (0)
 -->
<!-- Title: shell Pages: 1 -->
<svg width="1058pt" height="793pt"
 viewBox="0.00 0.00 1058.00 793.00" xmlns="http://www.w3.org/2000/svg" xmlns:xlink="http://www.w3.org/1999/xlink">
<g id="graph0" class="graph" transform="scale(1 1) rotate(0) translate(4 788.75)">
<title>shell</title>
<!-- Node1 -->
<g id="Node000001" class="node">
<title>Node1</title>
<g id="a_Node000001"><a xlink:title="Execute a shell command.">
<polygon fill="#999999" stroke="#666666" points="39.25,-287.75 0,-287.75 0,-267 39.25,-267 39.25,-287.75"/>
<text xml:space="preserve" text-anchor="middle" x="19.62" y="-274.25" font-family="Helvetica,sans-Serif" font-size="10.00">shell</text>
</a>
</g>
</g>
<!-- Node2 -->
<g id="Node000002" class="node">
<title>Node2</title>
<g id="a_Node000002"><a xlink:href="../../df/dc9/exec_8c.html#a386fad82c5208c7d3b2a5060882974f3" target="_top" xlink:title="Fork and exec a command.">
<polygon fill="white" stroke="#666666" points="139.25,-287.75 75.25,-287.75 75.25,-267 139.25,-267 139.25,-287.75"/>
<text xml:space="preserve" text-anchor="middle" x="107.25" y="-274.25" font-family="Helvetica,sans-Serif" font-size="10.00">fork_exec</text>
</a>
</g>
</g>
<!-- Node1&#45;&gt;Node2 -->
<g id="edge1_Node000001_Node000002" class="edge">
<title>Node1&#45;&gt;Node2</title>
<g id="a_edge1_Node000001_Node000002"><a xlink:title=" ">
<path fill="none" stroke="#63b8ff" d="M39.63,-277.38C46.74,-277.38 55.14,-277.38 63.53,-277.38"/>
<polygon fill="#63b8ff" stroke="#63b8ff" points="63.34,-280.88 73.34,-277.38 63.34,-273.88 63.34,-280.88"/>
</a>
</g>
</g>
<!-- Node3 -->
<g id="Node000003" class="node">
<title>Node3</title>
<g id="a_Node000003"><a xlink:href="../../d7/d72/scriou_8c.html#a4d0a6767e791cf93a268ebe9ba02aa24" target="_top" xlink:title="capture_curses_tioctl() &#45; capture curses terminal settings">
<polygon fill="white" stroke="#666666" points="294.75,-784.75 175.25,-784.75 175.25,-764 294.75,-764 294.75,-784.75"/>
<text xml:space="preserve" text-anchor="middle" x="235" y="-771.25" font-family="Helvetica,sans-Serif" font-size="10.00">capture_curses_tioctl</text>
</a>
</g>
</g>
<!-- Node2&#45;&gt;Node3 -->
<g id="edge2_Node000002_Node000003" class="edge">
<title>Node2&#45;&gt;Node3</title>
<g id="a_edge2_Node000002_Node000003"><a xlink:title=" ">
<path fill="none" stroke="#63b8ff" d="M108.36,-287.86C109.2,-350.49 116.38,-674.81 175.25,-750.38 177.28,-752.98 179.64,-755.31 182.23,-757.38"/>
<polygon fill="#63b8ff" stroke="#63b8ff" points="180.17,-760.22 190.47,-762.69 183.96,-754.33 180.17,-760.22"/>
</a>
</g>
</g>
<!-- Node4 -->
<g id="Node000004" class="node">
<title>Node4</title>
<g id="a_Node000004"><a xlink:href="../../dc/d40/dwin_8c.html#a61b4f28456257f68ed042bed7f187efd" target="_top" xlink:title="Display a simple error message window or print to stderr.">
<polygon fill="white" stroke="#666666" points="257.62,-421.75 212.38,-421.75 212.38,-401 257.62,-401 257.62,-421.75"/>
<text xml:space="preserve" text-anchor="middle" x="235" y="-408.25" font-family="Helvetica,sans-Serif" font-size="10.00">Perror</text>
</a>
</g>
</g>
<!-- Node2&#45;&gt;Node4 -->
<g id="edge3_Node000002_Node000004" class="edge">
<title>Node2&#45;&gt;Node4</title>
<g id="a_edge3_Node000002_Node000004"><a xlink:title=" ">
<path fill="none" stroke="#63b8ff" d="M118.12,-287.89C139.22,-310.38 189.02,-363.45 215.95,-392.14"/>
<polygon fill="#63b8ff" stroke="#63b8ff" points="213.4,-394.54 222.79,-399.43 218.5,-389.75 213.4,-394.54"/>
</a>
</g>
</g>
<!-- Node7 -->
<g id="Node000007" class="node">
<title>Node7</title>
<g id="a_Node000007"><a xlink:href="../../d7/d72/scriou_8c.html#ac5e3adb304b78910fc77761ef6a743f0" target="_top" xlink:title="restore_shell_tioctl() &#45; restore shell terminal settings">
<polygon fill="white" stroke="#666666" points="1050,-307.75 941,-307.75 941,-287 1050,-287 1050,-307.75"/>
<text xml:space="preserve" text-anchor="middle" x="995.5" y="-294.25" font-family="Helvetica,sans-Serif" font-size="10.00">restore_shell_tioctl</text>
</a>
</g>
</g>
<!-- Node2&#45;&gt;Node7 -->
<g id="edge39_Node000002_Node000007" class="edge">
<title>Node2&#45;&gt;Node7</title>
<g id="a_edge39_Node000002_Node000007"><a xlink:title=" ">
<path fill="none" stroke="#63b8ff" d="M109.15,-288.13C113.69,-340.15 135.38,-565.36 175.25,-621.38 234.29,-704.32 271.56,-736.38 373.38,-736.38 373.38,-736.38 373.38,-736.38 746.62,-736.38 940.17,-736.38 984.3,-408.84 992.73,-319.6"/>
<polygon fill="#63b8ff" stroke="#63b8ff" points="996.21,-320 993.59,-309.73 989.23,-319.39 996.21,-320"/>
</a>
</g>
</g>
<!-- Node8 -->
<g id="Node000008" class="node">
<title>Node8</title>
<g id="a_Node000008"><a xlink:href="../../da/d12/sig_8c.html#a06c1eb6cf3649dc187115565409f91af" target="_top" xlink:title="Set signal handlers to default behavior.">
<polygon fill="white" stroke="#666666" points="1036.12,-231.75 954.88,-231.75 954.88,-211 1036.12,-211 1036.12,-231.75"/>
<text xml:space="preserve" text-anchor="middle" x="995.5" y="-218.25" font-family="Helvetica,sans-Serif" font-size="10.00">sig_dfl_mode</text>
</a>
</g>
</g>
<!-- Node2&#45;&gt;Node8 -->
<g id="edge41_Node000002_Node000008" class="edge">
<title>Node2&#45;&gt;Node8</title>
<g id="a_edge41_Node000002_Node000008"><a xlink:title=" ">
<path fill="none" stroke="#63b8ff" d="M110.57,-266.57C116.57,-241.24 135.04,-177.71 175.25,-144.38 245.79,-85.9 281.75,-87.38 373.38,-87.38 373.38,-87.38 373.38,-87.38 746.62,-87.38 842.64,-87.38 937.13,-166.14 975.99,-202.89"/>
<polygon fill="#63b8ff" stroke="#63b8ff" points="973.53,-205.38 983.15,-209.81 978.39,-200.34 973.53,-205.38"/>
</a>
</g>
</g>
<!-- Node14 -->
<g id="Node000014" class="node">
<title>Node14</title>
<g id="a_Node000014"><a xlink:href="../../d0/d59/futil_8c.html#a63eb94756fb011a456a3dec900709cd8" target="_top" xlink:title="ssnprintf was designed to be a safer alternative to snprintf.">
<polygon fill="white" stroke="#666666" points="775,-651.75 716.25,-651.75 716.25,-631 775,-631 775,-651.75"/>
<text xml:space="preserve" text-anchor="middle" x="745.62" y="-638.25" font-family="Helvetica,sans-Serif" font-size="10.00">ssnprintf</text>
</a>
</g>
</g>
<!-- Node2&#45;&gt;Node14 -->
<g id="edge45_Node000002_Node000014" class="edge">
<title>Node2&#45;&gt;Node14</title>
<g id="a_edge45_Node000002_Node000014"><a xlink:title=" ">
<path fill="none" stroke="#63b8ff" d="M109.58,-288.2C118.29,-354.1 173.41,-698.38 373.38,-698.38 373.38,-698.38 373.38,-698.38 501.25,-698.38 575.37,-698.38 658.93,-673 706.33,-656.11"/>
<polygon fill="#63b8ff" stroke="#63b8ff" points="707.39,-659.45 715.59,-652.75 705,-652.87 707.39,-659.45"/>
</a>
</g>
</g>
<!-- Node24 -->
<g id="Node000024" class="node">
<title>Node24</title>
<g id="a_Node000024"><a xlink:href="../../d7/d72/scriou_8c.html#a1c8e0f0a02e08c783231a20093fb8410" target="_top" xlink:title="restore_curses_tioctl() &#45; restore curses terminal settings">
<polygon fill="white" stroke="#666666" points="293.62,-59.75 176.38,-59.75 176.38,-39 293.62,-39 293.62,-59.75"/>
<text xml:space="preserve" text-anchor="middle" x="235" y="-46.25" font-family="Helvetica,sans-Serif" font-size="10.00">restore_curses_tioctl</text>
</a>
</g>
</g>
<!-- Node2&#45;&gt;Node24 -->
<g id="edge38_Node000002_Node000024" class="edge">
<title>Node2&#45;&gt;Node24</title>
<g id="a_edge38_Node000002_Node000024"><a xlink:title=" ">
<path fill="none" stroke="#63b8ff" d="M108.7,-266.96C110.68,-234.11 121.12,-131.46 175.25,-73.38 177.92,-70.51 180.99,-67.97 184.28,-65.74"/>
<polygon fill="#63b8ff" stroke="#63b8ff" points="185.77,-68.91 192.73,-60.93 182.31,-62.83 185.77,-68.91"/>
</a>
</g>
</g>
<!-- Node25 -->
<g id="Node000025" class="node">
<title>Node25</title>
<g id="a_Node000025"><a xlink:href="../../dc/d40/dwin_8c.html#a40858af5b0d68549fb483f77c97eb82c" target="_top" xlink:title="Restore all windows after a screen resize.">
<polygon fill="white" stroke="#666666" points="274.12,-20.75 195.88,-20.75 195.88,0 274.12,0 274.12,-20.75"/>
<text xml:space="preserve" text-anchor="middle" x="235" y="-7.25" font-family="Helvetica,sans-Serif" font-size="10.00">restore_wins</text>
</a>
</g>
</g>
<!-- Node2&#45;&gt;Node25 -->
<g id="edge40_Node000002_Node000025" class="edge">
<title>Node2&#45;&gt;Node25</title>
<g id="a_edge40_Node000002_Node000025"><a xlink:title=" ">
<path fill="none" stroke="#63b8ff" d="M107.84,-266.56C107.01,-228.68 109.41,-100.51 175.25,-30.38 178.15,-27.29 181.54,-24.68 185.21,-22.47"/>
<polygon fill="#63b8ff" stroke="#63b8ff" points="186.59,-25.69 194.05,-18.17 183.53,-19.39 186.59,-25.69"/>
</a>
</g>
</g>
<!-- Node26 -->
<g id="Node000026" class="node">
<title>Node26</title>
<g id="a_Node000026"><a xlink:href="../../da/d12/sig_8c.html#aca2de03f6d52d4b11237990e4e605177" target="_top" xlink:title="Set up signal handlers for interrupt signals.">
<polygon fill="white" stroke="#666666" points="280.12,-173.75 189.88,-173.75 189.88,-153 280.12,-153 280.12,-173.75"/>
<text xml:space="preserve" text-anchor="middle" x="235" y="-160.25" font-family="Helvetica,sans-Serif" font-size="10.00">sig_prog_mode</text>
</a>
</g>
</g>
<!-- Node2&#45;&gt;Node26 -->
<g id="edge42_Node000002_Node000026" class="edge">
<title>Node2&#45;&gt;Node26</title>
<g id="a_edge42_Node000002_Node000026"><a xlink:title=" ">
<path fill="none" stroke="#63b8ff" d="M119.85,-266.85C141.27,-247.44 187.23,-205.77 213.84,-181.65"/>
<polygon fill="#63b8ff" stroke="#63b8ff" points="215.88,-184.53 220.94,-175.22 211.18,-179.34 215.88,-184.53"/>
</a>
</g>
</g>
<!-- Node5 -->
<g id="Node000005" class="node">
<title>Node5</title>
<g id="a_Node000005"><a xlink:href="../../dc/d40/dwin_8c.html#a8f6c45ca4a7f6a41c4c88314e697565a" target="_top" xlink:title="Abnormal program termination.">
<polygon fill="white" stroke="#666666" points="768.62,-269.75 722.62,-269.75 722.62,-249 768.62,-249 768.62,-269.75"/>
<text xml:space="preserve" text-anchor="middle" x="745.62" y="-256.25" font-family="Helvetica,sans-Serif" font-size="10.00">abend</text>
</a>
</g>
</g>
<!-- Node4&#45;&gt;Node5 -->
<g id="edge4_Node000004_Node000005" class="edge">
<title>Node4&#45;&gt;Node5</title>
<g id="a_edge4_Node000004_Node000005"><a xlink:title=" ">
<path fill="none" stroke="#63b8ff" d="M242.29,-400.7C255.61,-379.1 288.95,-330.22 330.75,-306.38 456,-234.93 637.23,-246.27 711.24,-254.77"/>
<polygon fill="#63b8ff" stroke="#63b8ff" points="710.73,-258.24 721.08,-255.97 711.57,-251.29 710.73,-258.24"/>
</a>
</g>
</g>
<!-- Node9 -->
<g id="Node000009" class="node">
<title>Node9</title>
<g id="a_Node000009"><a xlink:href="../../dc/d40/dwin_8c.html#a645871e46277e31736bc36d0f3dce4bd" target="_top" xlink:title="construct the chyron string from the chyron structure">
<polygon fill="white" stroke="#666666" points="675.75,-211.75 582.5,-211.75 582.5,-191 675.75,-191 675.75,-211.75"/>
<text xml:space="preserve" text-anchor="middle" x="629.12" y="-198.25" font-family="Helvetica,sans-Serif" font-size="10.00">compile_chyron</text>
</a>
</g>
</g>
<!-- Node4&#45;&gt;Node9 -->
<g id="edge10_Node000004_Node000009" class="edge">
<title>Node4&#45;&gt;Node9</title>
<g id="a_edge10_Node000004_Node000009"><a xlink:title=" ">
<path fill="none" stroke="#63b8ff" d="M237.78,-400.57C243.83,-367.63 266.91,-268.13 330.75,-225.38 402.51,-177.32 506.94,-181.68 571.05,-190.57"/>
<polygon fill="#63b8ff" stroke="#63b8ff" points="570.24,-193.99 580.65,-191.98 571.26,-187.06 570.24,-193.99"/>
</a>
</g>
</g>
<!-- Node11 -->
<g id="Node000011" class="node">
<title>Node11</title>
<g id="a_Node000011"><a xlink:href="../../dc/d40/dwin_8c.html#a3f3feb40fd703913c5c136331f627c91" target="_top" xlink:title="Destroy Chyron structure.">
<polygon fill="white" stroke="#666666" points="674.62,-326.75 583.62,-326.75 583.62,-306 674.62,-306 674.62,-326.75"/>
<text xml:space="preserve" text-anchor="middle" x="629.12" y="-313.25" font-family="Helvetica,sans-Serif" font-size="10.00">destroy_chyron</text>
</a>
</g>
</g>
<!-- Node4&#45;&gt;Node11 -->
<g id="edge12_Node000004_Node000011" class="edge">
<title>Node4&#45;&gt;Node11</title>
<g id="a_edge12_Node000004_Node000011"><a xlink:title=" ">
<path fill="none" stroke="#63b8ff" d="M258.08,-401.6C296.88,-384.88 380.18,-350.98 454,-334.38 492.89,-325.63 537.64,-321.12 572.04,-318.8"/>
<polygon fill="#63b8ff" stroke="#63b8ff" points="572.01,-322.31 581.77,-318.19 571.57,-315.32 572.01,-322.31"/>
</a>
</g>
</g>
<!-- Node12 -->
<g id="Node000012" class="node">
<title>Node12</title>
<g id="a_Node000012"><a xlink:href="../../dc/d40/dwin_8c.html#ad37d5808ff30ae6894780425d865abae" target="_top" xlink:title="Create and initialize Chyron structure.">
<polygon fill="white" stroke="#666666" points="666.38,-287.75 591.88,-287.75 591.88,-267 666.38,-267 666.38,-287.75"/>
<text xml:space="preserve" text-anchor="middle" x="629.12" y="-274.25" font-family="Helvetica,sans-Serif" font-size="10.00">new_chyron</text>
</a>
</g>
</g>
<!-- Node4&#45;&gt;Node12 -->
<g id="edge13_Node000004_Node000012" class="edge">
<title>Node4&#45;&gt;Node12</title>
<g id="a_edge13_Node000004_Node000012"><a xlink:title=" ">
<path fill="none" stroke="#63b8ff" d="M246.91,-400.62C263.53,-384.87 296.87,-355.75 330.75,-340.38 413.82,-302.68 520.29,-287.17 580.69,-281.07"/>
<polygon fill="#63b8ff" stroke="#63b8ff" points="580.65,-284.59 590.27,-280.15 579.98,-277.62 580.65,-284.59"/>
</a>
</g>
</g>
<!-- Node13 -->
<g id="Node000013" class="node">
<title>Node13</title>
<g id="a_Node000013"><a xlink:href="../../dc/d40/dwin_8c.html#a208ce92c197fdd6d2b007987e534aa3b" target="_top" xlink:title="Set chyron key.">
<polygon fill="white" stroke="#666666" points="675,-632.75 583.25,-632.75 583.25,-612 675,-612 675,-632.75"/>
<text xml:space="preserve" text-anchor="middle" x="629.12" y="-619.25" font-family="Helvetica,sans-Serif" font-size="10.00">set_chyron_key</text>
</a>
</g>
</g>
<!-- Node4&#45;&gt;Node13 -->
<g id="edge15_Node000004_Node000013" class="edge">
<title>Node4&#45;&gt;Node13</title>
<g id="a_edge15_Node000004_Node000013"><a xlink:title=" ">
<path fill="none" stroke="#63b8ff" d="M240.97,-422.15C252.88,-446.8 285.47,-507.67 330.75,-540.38 403.19,-592.7 507.54,-611.65 571.42,-618.51"/>
<polygon fill="#63b8ff" stroke="#63b8ff" points="571.06,-621.99 581.36,-619.5 571.75,-615.02 571.06,-621.99"/>
</a>
</g>
</g>
<!-- Node4&#45;&gt;Node14 -->
<g id="edge17_Node000004_Node000014" class="edge">
<title>Node4&#45;&gt;Node14</title>
<g id="a_edge17_Node000004_Node000014"><a xlink:title=" ">
<path fill="none" stroke="#63b8ff" d="M239.18,-421.95C248.43,-450.93 278.03,-532.31 330.75,-576.38 439.81,-667.53 623.55,-657.39 704.4,-647.49"/>
<polygon fill="#63b8ff" stroke="#63b8ff" points="704.82,-650.97 714.28,-646.21 703.91,-644.02 704.82,-650.97"/>
</a>
</g>
</g>
<!-- Node15 -->
<g id="Node000015" class="node">
<title>Node15</title>
<g id="a_Node000015"><a xlink:href="../../d0/d59/futil_8c.html#a0de2e40df9bd7efc8fd9afb8ad2257e6" target="_top" xlink:title="safer alternative to strncpy">
<polygon fill="white" stroke="#666666" points="779.5,-478.75 711.75,-478.75 711.75,-458 779.5,-458 779.5,-478.75"/>
<text xml:space="preserve" text-anchor="middle" x="745.62" y="-465.25" font-family="Helvetica,sans-Serif" font-size="10.00">strnz__cpy</text>
</a>
</g>
</g>
<!-- Node4&#45;&gt;Node15 -->
<g id="edge18_Node000004_Node000015" class="edge">
<title>Node4&#45;&gt;Node15</title>
<g id="a_edge18_Node000004_Node000015"><a xlink:title=" ">
<path fill="none" stroke="#63b8ff" d="M257.78,-415.98C276.96,-419.98 305.66,-425.82 330.75,-430.38 385.35,-440.28 398.85,-444.21 454,-450.38 540.77,-460.08 642.74,-464.88 699.91,-466.98"/>
<polygon fill="#63b8ff" stroke="#63b8ff" points="699.78,-470.48 709.9,-467.33 700.03,-463.48 699.78,-470.48"/>
</a>
</g>
</g>
<!-- Node16 -->
<g id="Node000016" class="node">
<title>Node16</title>
<g id="a_Node000016"><a xlink:href="../../dc/d40/dwin_8c.html#a9dd598e1d49c8764af1eec42c682623e" target="_top" xlink:title="Delete the current window and its associated box window.">
<polygon fill="white" stroke="#666666" points="655.88,-593.75 602.38,-593.75 602.38,-573 655.88,-573 655.88,-593.75"/>
<text xml:space="preserve" text-anchor="middle" x="629.12" y="-580.25" font-family="Helvetica,sans-Serif" font-size="10.00">win_del</text>
</a>
</g>
</g>
<!-- Node4&#45;&gt;Node16 -->
<g id="edge19_Node000004_Node000016" class="edge">
<title>Node4&#45;&gt;Node16</title>
<g id="a_edge19_Node000004_Node000016"><a xlink:title=" ">
<path fill="none" stroke="#63b8ff" d="M243.24,-421.99C257.51,-442.09 291.37,-485.72 330.75,-508.38 415.59,-557.19 531.93,-574.57 590.78,-580.49"/>
<polygon fill="#63b8ff" stroke="#63b8ff" points="590.31,-583.96 600.59,-581.42 590.96,-576.99 590.31,-583.96"/>
</a>
</g>
</g>
<!-- Node17 -->
<g id="Node000017" class="node">
<title>Node17</title>
<g id="a_Node000017"><a xlink:href="../../dc/d40/dwin_8c.html#a435c7bff7ffedb8f51c6de9259e36f6c" target="_top" xlink:title="Create a new window with optional box and title.">
<polygon fill="white" stroke="#666666" points="658.5,-517.75 599.75,-517.75 599.75,-497 658.5,-497 658.5,-517.75"/>
<text xml:space="preserve" text-anchor="middle" x="629.12" y="-504.25" font-family="Helvetica,sans-Serif" font-size="10.00">win_new</text>
</a>
</g>
</g>
<!-- Node4&#45;&gt;Node17 -->
<g id="edge20_Node000004_Node000017" class="edge">
<title>Node4&#45;&gt;Node17</title>
<g id="a_edge20_Node000004_Node000017"><a xlink:title=" ">
<path fill="none" stroke="#63b8ff" d="M245.84,-422.04C261.83,-438.54 295.24,-469.8 330.75,-483.38 417.88,-516.69 529.59,-515.01 588.18,-511.08"/>
<polygon fill="#63b8ff" stroke="#63b8ff" points="588.28,-514.58 597.99,-510.36 587.76,-507.6 588.28,-514.58"/>
</a>
</g>
</g>
<!-- Node19 -->
<g id="Node000019" class="node">
<title>Node19</title>
<g id="a_Node000019"><a xlink:href="../../dc/d40/dwin_8c.html#acf4c709bccc4c965a5d61db978db31a3" target="_top" xlink:title="Wrapper for wgetch that handles signals and mouse events.">
<polygon fill="white" stroke="#666666" points="403,-421.75 345.75,-421.75 345.75,-401 403,-401 403,-421.75"/>
<text xml:space="preserve" text-anchor="middle" x="374.38" y="-408.25" font-family="Helvetica,sans-Serif" font-size="10.00">xwgetch</text>
</a>
</g>
</g>
<!-- Node4&#45;&gt;Node19 -->
<g id="edge23_Node000004_Node000019" class="edge">
<title>Node4&#45;&gt;Node19</title>
<g id="a_edge23_Node000004_Node000019"><a xlink:title=" ">
<path fill="none" stroke="#63b8ff" d="M258.07,-411.38C278.63,-411.38 309.74,-411.38 334.47,-411.38"/>
<polygon fill="#63b8ff" stroke="#63b8ff" points="334.15,-414.88 344.15,-411.38 334.15,-407.88 334.15,-414.88"/>
</a>
</g>
</g>
<!-- Node6 -->
<g id="Node000006" class="node">
<title>Node6</title>
<g id="a_Node000006"><a xlink:href="../../dc/d40/dwin_8c.html#afc0985a403e3eac0b2cd8f0fab500256" target="_top" xlink:title="Gracefully shut down NCurses and restore terminal settings.">
<polygon fill="white" stroke="#666666" points="905,-269.75 815.5,-269.75 815.5,-249 905,-249 905,-269.75"/>
<text xml:space="preserve" text-anchor="middle" x="860.25" y="-256.25" font-family="Helvetica,sans-Serif" font-size="10.00">destroy_curses</text>
</a>
</g>
</g>
<!-- Node5&#45;&gt;Node6 -->
<g id="edge5_Node000005_Node000006" class="edge">
<title>Node5&#45;&gt;Node6</title>
<g id="a_edge5_Node000005_Node000006"><a xlink:title=" ">
<path fill="none" stroke="#63b8ff" d="M768.88,-259.38C778.99,-259.38 791.44,-259.38 803.84,-259.38"/>
<polygon fill="#63b8ff" stroke="#63b8ff" points="803.63,-262.88 813.63,-259.38 803.63,-255.88 803.63,-262.88"/>
</a>
</g>
</g>
<!-- Node5&#45;&gt;Node7 -->
<g id="edge8_Node000005_Node000007" class="edge">
<title>Node5&#45;&gt;Node7</title>
<g id="a_edge8_Node000005_Node000007"><a xlink:title=" ">
<path fill="none" stroke="#63b8ff" d="M769.05,-266.56C782.41,-270.59 799.78,-275.39 815.5,-278.38 852.88,-285.47 895.19,-290.11 929.28,-293.03"/>
<polygon fill="#63b8ff" stroke="#63b8ff" points="928.75,-296.5 939,-293.83 929.32,-289.52 928.75,-296.5"/>
</a>
</g>
</g>
<!-- Node5&#45;&gt;Node8 -->
<g id="edge9_Node000005_Node000008" class="edge">
<title>Node5&#45;&gt;Node8</title>
<g id="a_edge9_Node000005_Node000008"><a xlink:title=" ">
<path fill="none" stroke="#63b8ff" d="M769.05,-252.19C782.41,-248.16 799.78,-243.36 815.5,-240.38 858.17,-232.28 907.25,-227.38 943.22,-224.58"/>
<polygon fill="#63b8ff" stroke="#63b8ff" points="943.19,-228.09 952.9,-223.86 942.67,-221.11 943.19,-228.09"/>
</a>
</g>
</g>
<!-- Node6&#45;&gt;Node7 -->
<g id="edge6_Node000006_Node000007" class="edge">
<title>Node6&#45;&gt;Node7</title>
<g id="a_edge6_Node000006_Node000007"><a xlink:title=" ">
<path fill="none" stroke="#63b8ff" d="M899.08,-270.16C913.57,-274.29 930.3,-279.07 945.68,-283.45"/>
<polygon fill="#63b8ff" stroke="#63b8ff" points="944.55,-286.77 955.12,-286.15 946.47,-280.04 944.55,-286.77"/>
</a>
</g>
</g>
<!-- Node6&#45;&gt;Node8 -->
<g id="edge7_Node000006_Node000008" class="edge">
<title>Node6&#45;&gt;Node8</title>
<g id="a_edge7_Node000006_Node000008"><a xlink:title=" ">
<path fill="none" stroke="#63b8ff" d="M899.08,-248.59C913.57,-244.46 930.3,-239.68 945.68,-235.3"/>
<polygon fill="#63b8ff" stroke="#63b8ff" points="946.47,-238.71 955.12,-232.6 944.55,-231.98 946.47,-238.71"/>
</a>
</g>
</g>
<!-- Node10 -->
<g id="Node000010" class="node">
<title>Node10</title>
<g id="a_Node000010"><a xlink:href="../../d0/d59/futil_8c.html#aa0145c044cfdde3a1c83323410a59f25" target="_top" xlink:title="safer alternative to strncat">
<polygon fill="white" stroke="#666666" points="778.38,-211.75 712.88,-211.75 712.88,-191 778.38,-191 778.38,-211.75"/>
<text xml:space="preserve" text-anchor="middle" x="745.62" y="-198.25" font-family="Helvetica,sans-Serif" font-size="10.00">strnz__cat</text>
</a>
</g>
</g>
<!-- Node9&#45;&gt;Node10 -->
<g id="edge11_Node000009_Node000010" class="edge">
<title>Node9&#45;&gt;Node10</title>
<g id="a_edge11_Node000009_Node000010"><a xlink:title=" ">
<path fill="none" stroke="#63b8ff" d="M676.04,-201.38C684.33,-201.38 692.94,-201.38 701.16,-201.38"/>
<polygon fill="#63b8ff" stroke="#63b8ff" points="700.92,-204.88 710.92,-201.38 700.92,-197.88 700.92,-204.88"/>
</a>
</g>
</g>
<!-- Node12&#45;&gt;Node5 -->
<g id="edge14_Node000012_Node000005" class="edge">
<title>Node12&#45;&gt;Node5</title>
<g id="a_edge14_Node000012_Node000005"><a xlink:title=" ">
<path fill="none" stroke="#63b8ff" d="M666.67,-271.63C680.99,-269.38 697.3,-266.81 711.29,-264.62"/>
<polygon fill="#63b8ff" stroke="#63b8ff" points="711.57,-268.11 720.9,-263.1 710.48,-261.2 711.57,-268.11"/>
</a>
</g>
</g>
<!-- Node13&#45;&gt;Node14 -->
<g id="edge16_Node000013_Node000014" class="edge">
<title>Node13&#45;&gt;Node14</title>
<g id="a_edge16_Node000013_Node000014"><a xlink:title=" ">
<path fill="none" stroke="#63b8ff" d="M675.38,-629.88C685.07,-631.49 695.23,-633.18 704.7,-634.75"/>
<polygon fill="#63b8ff" stroke="#63b8ff" points="703.9,-638.16 714.34,-636.35 705.04,-631.26 703.9,-638.16"/>
</a>
</g>
</g>
<!-- Node17&#45;&gt;Node15 -->
<g id="edge22_Node000017_Node000015" class="edge">
<title>Node17&#45;&gt;Node15</title>
<g id="a_edge22_Node000017_Node000015"><a xlink:title=" ">
<path fill="none" stroke="#63b8ff" d="M658.72,-497.63C671.81,-493.18 687.6,-487.8 702.04,-482.88"/>
<polygon fill="#63b8ff" stroke="#63b8ff" points="702.99,-486.25 711.33,-479.72 700.74,-479.63 702.99,-486.25"/>
</a>
</g>
</g>
<!-- Node18 -->
<g id="Node000018" class="node">
<title>Node18</title>
<g id="a_Node000018"><a xlink:href="../../dc/d40/dwin_8c.html#ac9adcf7339be4a05ab1a7350c236b8a5" target="_top" xlink:title="Draw a box around the specified window.">
<polygon fill="white" stroke="#666666" points="765.25,-517.75 726,-517.75 726,-497 765.25,-497 765.25,-517.75"/>
<text xml:space="preserve" text-anchor="middle" x="745.62" y="-504.25" font-family="Helvetica,sans-Serif" font-size="10.00">cbox</text>
</a>
</g>
</g>
<!-- Node17&#45;&gt;Node18 -->
<g id="edge21_Node000017_Node000018" class="edge">
<title>Node17&#45;&gt;Node18</title>
<g id="a_edge21_Node000017_Node000018"><a xlink:title=" ">
<path fill="none" stroke="#63b8ff" d="M658.72,-507.38C675.65,-507.38 697.07,-507.38 714.29,-507.38"/>
<polygon fill="#63b8ff" stroke="#63b8ff" points="714.19,-510.88 724.19,-507.38 714.19,-503.88 714.19,-510.88"/>
</a>
</g>
</g>
<!-- Node20 -->
<g id="Node000020" class="node">
<title>Node20</title>
<g id="a_Node000020"><a xlink:href="../../dc/d40/dwin_8c.html#a67659f8a701b74f4dec0d36227a10d1c" target="_top" xlink:title="Display an error message window or print to stderr.">
<polygon fill="white" stroke="#666666" points="540.12,-441.75 460.38,-441.75 460.38,-421 540.12,-421 540.12,-441.75"/>
<text xml:space="preserve" text-anchor="middle" x="500.25" y="-428.25" font-family="Helvetica,sans-Serif" font-size="10.00">display_error</text>
</a>
</g>
</g>
<!-- Node19&#45;&gt;Node20 -->
<g id="edge24_Node000019_Node000020" class="edge">
<title>Node19&#45;&gt;Node20</title>
<g id="a_edge24_Node000019_Node000020"><a xlink:title=" ">
<path fill="none" stroke="#63b8ff" d="M403.48,-410.15C419.41,-411.69 439.64,-414.73 457.4,-418.2"/>
<polygon fill="#63b8ff" stroke="#63b8ff" points="456.67,-421.62 467.17,-420.21 458.08,-414.76 456.67,-421.62"/>
</a>
</g>
</g>
<!-- Node22 -->
<g id="Node000022" class="node">
<title>Node22</title>
<g id="a_Node000022"><a xlink:href="../../dc/d40/dwin_8c.html#a4298f891699300bfc4e6e56fd2a8d574" target="_top" xlink:title="Get keycode from chyron.">
<polygon fill="white" stroke="#666666" points="546.5,-402.75 454,-402.75 454,-382 546.5,-382 546.5,-402.75"/>
<text xml:space="preserve" text-anchor="middle" x="500.25" y="-389.25" font-family="Helvetica,sans-Serif" font-size="10.00">get_chyron_key</text>
</a>
</g>
</g>
<!-- Node19&#45;&gt;Node22 -->
<g id="edge36_Node000019_Node000022" class="edge">
<title>Node19&#45;&gt;Node22</title>
<g id="a_edge36_Node000019_Node000022"><a xlink:title=" ">
<path fill="none" stroke="#63b8ff" d="M403.48,-407.06C415.08,-405.28 428.97,-403.15 442.52,-401.08"/>
<polygon fill="#63b8ff" stroke="#63b8ff" points="442.91,-404.56 452.27,-399.58 441.85,-397.64 442.91,-404.56"/>
</a>
</g>
</g>
<!-- Node23 -->
<g id="Node000023" class="node">
<title>Node23</title>
<g id="a_Node000023"><a xlink:href="../../d0/d6b/cm_8h.html#a0667873879b5846c3fe2fa2cc96059d6" target="_top" xlink:title=" ">
<polygon fill="white" stroke="#666666" points="542,-363.75 458.5,-363.75 458.5,-343 542,-343 542,-363.75"/>
<text xml:space="preserve" text-anchor="middle" x="500.25" y="-350.25" font-family="Helvetica,sans-Serif" font-size="10.00">handle_signal</text>
</a>
</g>
</g>
<!-- Node19&#45;&gt;Node23 -->
<g id="edge37_Node000019_Node000023" class="edge">
<title>Node19&#45;&gt;Node23</title>
<g id="a_edge37_Node000019_Node000023"><a xlink:title=" ">
<path fill="none" stroke="#63b8ff" d="M397.31,-400.53C413.03,-392.81 434.74,-382.28 454,-373.38 457.17,-371.91 460.48,-370.4 463.8,-368.91"/>
<polygon fill="#63b8ff" stroke="#63b8ff" points="465.2,-372.11 472.9,-364.84 462.35,-365.72 465.2,-372.11"/>
</a>
</g>
</g>
<!-- Node20&#45;&gt;Node5 -->
<g id="edge25_Node000020_Node000005" class="edge">
<title>Node20&#45;&gt;Node5</title>
<g id="a_edge25_Node000020_Node000005"><a xlink:title=" ">
<path fill="none" stroke="#63b8ff" d="M540.36,-426.64C578.42,-420.31 636.14,-405.98 675.75,-374.38 706.98,-349.45 727.3,-306.23 737.3,-280.46"/>
<polygon fill="#63b8ff" stroke="#63b8ff" points="740.46,-282 740.64,-271.4 733.9,-279.57 740.46,-282"/>
</a>
</g>
</g>
<!-- Node20&#45;&gt;Node9 -->
<g id="edge26_Node000020_Node000009" class="edge">
<title>Node20&#45;&gt;Node9</title>
<g id="a_edge26_Node000020_Node000009"><a xlink:title=" ">
<path fill="none" stroke="#63b8ff" d="M535.33,-420.6C539.53,-418.11 543.43,-415.08 546.5,-411.38 591.12,-357.63 551.92,-321.18 582.5,-258.38 589.28,-244.45 599.98,-230.83 609.32,-220.4"/>
<polygon fill="#63b8ff" stroke="#63b8ff" points="611.74,-222.93 616.01,-213.23 606.63,-218.15 611.74,-222.93"/>
</a>
</g>
</g>
<!-- Node20&#45;&gt;Node11 -->
<g id="edge27_Node000020_Node000011" class="edge">
<title>Node20&#45;&gt;Node11</title>
<g id="a_edge27_Node000020_Node000011"><a xlink:title=" ">
<path fill="none" stroke="#63b8ff" d="M533.23,-420.71C538.05,-418.17 542.68,-415.08 546.5,-411.38 573.05,-385.64 555.91,-362.07 582.5,-336.38 583.71,-335.21 584.99,-334.11 586.33,-333.06"/>
<polygon fill="#63b8ff" stroke="#63b8ff" points="588.03,-336.13 594.6,-327.82 584.28,-330.22 588.03,-336.13"/>
</a>
</g>
</g>
<!-- Node20&#45;&gt;Node12 -->
<g id="edge28_Node000020_Node000012" class="edge">
<title>Node20&#45;&gt;Node12</title>
<g id="a_edge28_Node000020_Node000012"><a xlink:title=" ">
<path fill="none" stroke="#63b8ff" d="M534.62,-420.65C539.04,-418.14 543.18,-415.09 546.5,-411.38 581.94,-371.79 547,-336.91 582.5,-297.38 583.34,-296.44 584.23,-295.55 585.16,-294.7"/>
<polygon fill="#63b8ff" stroke="#63b8ff" points="587.13,-297.59 593.25,-288.94 583.07,-291.89 587.13,-297.59"/>
</a>
</g>
</g>
<!-- Node20&#45;&gt;Node13 -->
<g id="edge29_Node000020_Node000013" class="edge">
<title>Node20&#45;&gt;Node13</title>
<g id="a_edge29_Node000020_Node000013"><a xlink:title=" ">
<path fill="none" stroke="#63b8ff" d="M503.57,-442.14C510.46,-471.64 533.43,-554.77 582.5,-602.38 583.55,-603.39 584.66,-604.36 585.81,-605.28"/>
<polygon fill="#63b8ff" stroke="#63b8ff" points="583.83,-608.17 594.12,-610.69 587.65,-602.3 583.83,-608.17"/>
</a>
</g>
</g>
<!-- Node20&#45;&gt;Node14 -->
<g id="edge30_Node000020_Node000014" class="edge">
<title>Node20&#45;&gt;Node14</title>
<g id="a_edge30_Node000020_Node000014"><a xlink:title=" ">
<path fill="none" stroke="#63b8ff" d="M507.8,-441.95C520.2,-461.17 548.89,-502.12 582.5,-526.38 618.79,-552.56 639.17,-538.59 675.75,-564.38 698.05,-580.1 718.17,-604.33 730.83,-621.4"/>
<polygon fill="#63b8ff" stroke="#63b8ff" points="727.81,-623.2 736.49,-629.28 733.5,-619.12 727.81,-623.2"/>
</a>
</g>
</g>
<!-- Node20&#45;&gt;Node15 -->
<g id="edge32_Node000020_Node000015" class="edge">
<title>Node20&#45;&gt;Node15</title>
<g id="a_edge32_Node000020_Node000015"><a xlink:title=" ">
<path fill="none" stroke="#63b8ff" d="M540.49,-436.2C575.91,-440.7 629.42,-447.82 675.75,-455.38 683.67,-456.67 692.08,-458.15 700.2,-459.65"/>
<polygon fill="#63b8ff" stroke="#63b8ff" points="699.44,-463.07 709.92,-461.48 700.73,-456.19 699.44,-463.07"/>
</a>
</g>
</g>
<!-- Node20&#45;&gt;Node16 -->
<g id="edge33_Node000020_Node000016" class="edge">
<title>Node20&#45;&gt;Node16</title>
<g id="a_edge33_Node000020_Node000016"><a xlink:title=" ">
<path fill="none" stroke="#63b8ff" d="M505.66,-441.95C515.97,-465.64 543.79,-523.7 582.5,-559.38 585.42,-562.06 588.69,-564.54 592.12,-566.8"/>
<polygon fill="#63b8ff" stroke="#63b8ff" points="590.27,-569.78 600.67,-571.82 593.81,-563.74 590.27,-569.78"/>
</a>
</g>
</g>
<!-- Node20&#45;&gt;Node17 -->
<g id="edge34_Node000020_Node000017" class="edge">
<title>Node20&#45;&gt;Node17</title>
<g id="a_edge34_Node000020_Node000017"><a xlink:title=" ">
<path fill="none" stroke="#63b8ff" d="M519.16,-442.1C540.32,-454.78 575.76,-476.01 600.45,-490.8"/>
<polygon fill="#63b8ff" stroke="#63b8ff" points="598.63,-493.79 609.01,-495.92 602.23,-487.78 598.63,-493.79"/>
</a>
</g>
</g>
<!-- Node20&#45;&gt;Node19 -->
<g id="edge35_Node000020_Node000019" class="edge">
<title>Node20&#45;&gt;Node19</title>
<g id="a_edge35_Node000020_Node000019"><a xlink:title=" ">
<path fill="none" stroke="#63b8ff" d="M459.98,-431.37C445.5,-429.59 429.1,-426.94 414.61,-424.04"/>
<polygon fill="#63b8ff" stroke="#63b8ff" points="415.47,-420.64 404.96,-421.99 414.02,-427.49 415.47,-420.64"/>
</a>
</g>
</g>
<!-- Node21 -->
<g id="Node000021" class="node">
<title>Node21</title>
<g id="a_Node000021"><a xlink:href="../../d0/d59/futil_8c.html#a636608f26d1193b5d860f2312cd8ee49" target="_top" xlink:title="terminates string at New Line, Carriage Return, or max_len">
<polygon fill="white" stroke="#666666" points="649.12,-365.75 609.12,-365.75 609.12,-345 649.12,-345 649.12,-365.75"/>
<text xml:space="preserve" text-anchor="middle" x="629.12" y="-352.25" font-family="Helvetica,sans-Serif" font-size="10.00">strnz</text>
</a>
</g>
</g>
<!-- Node20&#45;&gt;Node21 -->
<g id="edge31_Node000020_Node000021" class="edge">
<title>Node20&#45;&gt;Node21</title>
<g id="a_edge31_Node000020_Node000021"><a xlink:title=" ">
<path fill="none" stroke="#63b8ff" d="M529.24,-420.63C535.12,-417.93 541.15,-414.81 546.5,-411.38 564.51,-399.8 564.9,-391.56 582.5,-379.38 587.65,-375.81 593.4,-372.4 599.03,-369.33"/>
<polygon fill="#63b8ff" stroke="#63b8ff" points="600.28,-372.62 607.54,-364.9 597.05,-366.41 600.28,-372.62"/>
</a>
</g>
</g>
<!-- Node26&#45;&gt;Node5 -->
<g id="edge43_Node000026_Node000005" class="edge">
<title>Node26&#45;&gt;Node5</title>
<g id="a_edge43_Node000026_Node000005"><a xlink:title=" ">
<path fill="none" stroke="#63b8ff" d="M280.37,-160.99C377.7,-156.46 606.77,-149.72 675.75,-182.38 679.22,-184.02 708.92,-217.97 728.16,-240.24"/>
<polygon fill="#63b8ff" stroke="#63b8ff" points="725.26,-242.23 734.44,-247.52 730.56,-237.66 725.26,-242.23"/>
</a>
</g>
</g>
<!-- Node27 -->
<g id="Node000027" class="node">
<title>Node27</title>
<g id="a_Node000027"><a xlink:href="../../da/d12/sig_8c.html#aa08a9a8dede37c66c81c3f51a0f338a9" target="_top" xlink:title="Signal handler for interrupt signals.">
<polygon fill="white" stroke="#666666" points="418,-135.75 330.75,-135.75 330.75,-115 418,-115 418,-135.75"/>
<text xml:space="preserve" text-anchor="middle" x="374.38" y="-122.25" font-family="Helvetica,sans-Serif" font-size="10.00">signal_handler</text>
</a>
</g>
</g>
<!-- Node26&#45;&gt;Node27 -->
<g id="edge44_Node000026_Node000027" class="edge">
<title>Node26&#45;&gt;Node27</title>
<g id="a_edge44_Node000026_Node000027"><a xlink:title=" ">
<path fill="none" stroke="#63b8ff" d="M275,-152.59C290.08,-148.42 307.53,-143.59 323.5,-139.17"/>
<polygon fill="#63b8ff" stroke="#63b8ff" points="324.12,-142.63 332.82,-136.59 322.25,-135.89 324.12,-142.63"/>
</a>
</g>
</g>
</g>
</svg>
