<?xml version="1.0" encoding="UTF-8" standalone="no"?>
<!DOCTYPE svg PUBLIC "-//W3C//DTD SVG 1.1//EN"
 "http://www.w3.org/Graphics/SVG/1.1/DTD/svg11.dtd">
<!-- Generated by graphviz version 14.1.2 (0)
 -->
<!-- Title: base_name Pages: 1 -->
<svg width="1426pt" height="439pt"
 viewBox="0.00 0.00 1426.00 439.00" xmlns="http://www.w3.org/2000/svg" xmlns:xlink="http://www.w3.org/1999/xlink">
<g id="graph0" class="graph" transform="scale(1 1) rotate(0) translate(4 435.19)">
<title>base_name</title>
<!-- Node1 -->
<g id="Node000001" class="node">
<title>Node1</title>
<g id="a_Node000001"><a xlink:title="Returns the base name of a file specification.">
<polygon fill="#999999" stroke="#666666" points="1418.25,-163.38 1346,-163.38 1346,-142.62 1418.25,-142.62 1418.25,-163.38"/>
<text xml:space="preserve" text-anchor="middle" x="1382.12" y="-149.88" font-family="Helvetica,sans-Serif" font-size="10.00">base_name</text>
</a>
</g>
</g>
<!-- Node2 -->
<g id="Node000002" class="node">
<title>Node2</title>
<g id="a_Node000002"><a xlink:href="../../d4/dc1/src_2view__engine_8c.html#aa0d1c85e4fcd40cb34420308dae381cf" target="_top" xlink:title="Build Prompt String.">
<polygon fill="white" stroke="#666666" points="1305.12,-278.38 1224.62,-278.38 1224.62,-257.62 1305.12,-257.62 1305.12,-278.38"/>
<text xml:space="preserve" text-anchor="middle" x="1264.88" y="-264.88" font-family="Helvetica,sans-Serif" font-size="10.00">build_prompt</text>
</a>
</g>
</g>
<!-- Node1&#45;&gt;Node2 -->
<g id="edge1_Node000001_Node000002" class="edge">
<title>Node1&#45;&gt;Node2</title>
<g id="a_edge1_Node000001_Node000002"><a xlink:title=" ">
<path fill="none" stroke="#63b8ff" d="M1362.35,-171.74C1337.91,-196.12 1296.02,-237.92 1276.49,-257.41"/>
<polygon fill="#63b8ff" stroke="#63b8ff" points="1364.81,-174.22 1369.42,-164.68 1359.87,-169.27 1364.81,-174.22"/>
</a>
</g>
</g>
<!-- Node15 -->
<g id="Node000015" class="node">
<title>Node15</title>
<g id="a_Node000015"><a xlink:href="../../db/ddc/pick__engine_8c.html#af7fcbb1c8b67a4d11c86ba7209f397c2" target="_top" xlink:title="Executes specified command with selected objects as arguments.">
<polygon fill="white" stroke="#666666" points="763.75,-48.38 684,-48.38 684,-27.62 763.75,-27.62 763.75,-48.38"/>
<text xml:space="preserve" text-anchor="middle" x="723.88" y="-34.88" font-family="Helvetica,sans-Serif" font-size="10.00">exec_objects</text>
</a>
</g>
</g>
<!-- Node1&#45;&gt;Node15 -->
<g id="edge27_Node000001_Node000015" class="edge">
<title>Node1&#45;&gt;Node15</title>
<g id="a_edge27_Node000001_Node000015"><a xlink:title=" ">
<path fill="none" stroke="#63b8ff" d="M1334.88,-141.92C1283.96,-130.7 1199.51,-115 1125.75,-115 1125.75,-115 1125.75,-115 984.38,-115 938.44,-115 811.32,-70.09 753.81,-48.87"/>
<polygon fill="#63b8ff" stroke="#63b8ff" points="1333.84,-145.27 1344.37,-144.05 1335.37,-138.44 1333.84,-145.27"/>
</a>
</g>
</g>
<!-- Node21 -->
<g id="Node000021" class="node">
<title>Node21</title>
<g id="a_Node000021"><a xlink:href="../../d3/dee/form__engine_8c.html#a0329d3892bf2c4fe8e77a3c303ebe5f6" target="_top" xlink:title="Handle integration with an external program for calculation, allowing the user to execute a provider ...">
<polygon fill="white" stroke="#666666" points="1029.75,-201.38 941,-201.38 941,-180.62 1029.75,-180.62 1029.75,-201.38"/>
<text xml:space="preserve" text-anchor="middle" x="985.38" y="-187.88" font-family="Helvetica,sans-Serif" font-size="10.00">form_calculate</text>
</a>
</g>
</g>
<!-- Node1&#45;&gt;Node21 -->
<g id="edge28_Node000001_Node000021" class="edge">
<title>Node1&#45;&gt;Node21</title>
<g id="a_edge28_Node000001_Node000021"><a xlink:title=" ">
<path fill="none" stroke="#63b8ff" d="M1334.54,-163C1326.39,-164.51 1317.97,-165.92 1310,-167 1210.34,-180.45 1092.32,-186.81 1029.99,-189.43"/>
<polygon fill="#63b8ff" stroke="#63b8ff" points="1335.17,-166.44 1344.32,-161.11 1333.84,-159.57 1335.17,-166.44"/>
</a>
</g>
</g>
<!-- Node22 -->
<g id="Node000022" class="node">
<title>Node22</title>
<g id="a_Node000022"><a xlink:href="../../d3/d8f/mem_8c.html#a4da25f98e58860d93b737cdc1997e9e9" target="_top" xlink:title="Initialize Form file specifications.">
<polygon fill="white" stroke="#666666" points="1308.12,-317.38 1221.62,-317.38 1221.62,-296.62 1308.12,-296.62 1308.12,-317.38"/>
<text xml:space="preserve" text-anchor="middle" x="1264.88" y="-303.88" font-family="Helvetica,sans-Serif" font-size="10.00">init_form_files</text>
</a>
</g>
</g>
<!-- Node1&#45;&gt;Node22 -->
<g id="edge30_Node000001_Node000022" class="edge">
<title>Node1&#45;&gt;Node22</title>
<g id="a_edge30_Node000001_Node000022"><a xlink:title=" ">
<path fill="none" stroke="#63b8ff" d="M1374.65,-174.41C1364.91,-203.39 1343.93,-255.13 1310,-287 1306.08,-290.69 1301.36,-293.78 1296.49,-296.34"/>
<polygon fill="#63b8ff" stroke="#63b8ff" points="1377.96,-175.54 1377.68,-164.95 1371.3,-173.41 1377.96,-175.54"/>
</a>
</g>
</g>
<!-- Node24 -->
<g id="Node000024" class="node">
<title>Node24</title>
<g id="a_Node000024"><a xlink:href="../../d3/d8f/mem_8c.html#ab40bb77758b149f33cbde8063f341b00" target="_top" xlink:title="Initialize Pick file specifications.">
<polygon fill="white" stroke="#666666" points="1306.62,-87.38 1223.12,-87.38 1223.12,-66.62 1306.62,-66.62 1306.62,-87.38"/>
<text xml:space="preserve" text-anchor="middle" x="1264.88" y="-73.88" font-family="Helvetica,sans-Serif" font-size="10.00">init_pick_files</text>
</a>
</g>
</g>
<!-- Node1&#45;&gt;Node24 -->
<g id="edge33_Node000001_Node000024" class="edge">
<title>Node1&#45;&gt;Node24</title>
<g id="a_edge33_Node000001_Node000024"><a xlink:title=" ">
<path fill="none" stroke="#63b8ff" d="M1358.86,-135.54C1345.1,-125.05 1326.9,-111.71 1310,-101 1302.63,-96.33 1294.29,-91.65 1286.85,-87.68"/>
<polygon fill="#63b8ff" stroke="#63b8ff" points="1356.35,-138.02 1366.41,-141.35 1360.62,-132.48 1356.35,-138.02"/>
</a>
</g>
</g>
<!-- Node26 -->
<g id="Node000026" class="node">
<title>Node26</title>
<g id="a_Node000026"><a xlink:href="../../d8/d60/init_8c.html#a11b56c5001e3ca95f4d0a28903b29609" target="_top" xlink:title="Parse command&#45;line options and set Init struct values accordingly.">
<polygon fill="white" stroke="#666666" points="905,-163.38 814.75,-163.38 814.75,-142.62 905,-142.62 905,-163.38"/>
<text xml:space="preserve" text-anchor="middle" x="859.88" y="-149.88" font-family="Helvetica,sans-Serif" font-size="10.00">parse_opt_args</text>
</a>
</g>
</g>
<!-- Node1&#45;&gt;Node26 -->
<g id="edge36_Node000001_Node000026" class="edge">
<title>Node1&#45;&gt;Node26</title>
<g id="a_edge36_Node000001_Node000026"><a xlink:title=" ">
<path fill="none" stroke="#63b8ff" d="M1334.3,-153C1234.65,-153 1002.77,-153 905.29,-153"/>
<polygon fill="#63b8ff" stroke="#63b8ff" points="1334.26,-156.5 1344.26,-153 1334.26,-149.5 1334.26,-156.5"/>
</a>
</g>
</g>
<!-- Node29 -->
<g id="Node000029" class="node">
<title>Node29</title>
<g id="a_Node000029"><a xlink:href="../../dd/dbc/src_2init__view_8c.html#a0d392793038e6c32c6f3fa978fc42ced" target="_top" xlink:title="Initialize the input for a C&#45;Menu View.">
<polygon fill="white" stroke="#666666" points="1310,-48.38 1219.75,-48.38 1219.75,-27.62 1310,-27.62 1310,-48.38"/>
<text xml:space="preserve" text-anchor="middle" x="1264.88" y="-34.88" font-family="Helvetica,sans-Serif" font-size="10.00">view_init_input</text>
</a>
</g>
</g>
<!-- Node1&#45;&gt;Node29 -->
<g id="edge45_Node000001_Node000029" class="edge">
<title>Node1&#45;&gt;Node29</title>
<g id="a_edge45_Node000001_Node000029"><a xlink:title=" ">
<path fill="none" stroke="#63b8ff" d="M1369.88,-132.36C1357.54,-111.31 1335.99,-78.88 1310,-58 1305.54,-54.42 1300.34,-51.33 1295.1,-48.72"/>
<polygon fill="#63b8ff" stroke="#63b8ff" points="1366.74,-133.92 1374.72,-140.89 1372.82,-130.46 1366.74,-133.92"/>
</a>
</g>
</g>
<!-- Node3 -->
<g id="Node000003" class="node">
<title>Node3</title>
<g id="a_Node000003"><a xlink:href="../../d4/dc1/src_2view__engine_8c.html#a9c4b3ba5f73c18b486646c62b933972a" target="_top" xlink:title="Main Command Processing Loop for View.">
<polygon fill="white" stroke="#666666" points="1183.75,-279.38 1065.75,-279.38 1065.75,-258.62 1183.75,-258.62 1183.75,-279.38"/>
<text xml:space="preserve" text-anchor="middle" x="1124.75" y="-265.88" font-family="Helvetica,sans-Serif" font-size="10.00">view_cmd_processor</text>
</a>
</g>
</g>
<!-- Node2&#45;&gt;Node3 -->
<g id="edge2_Node000002_Node000003" class="edge">
<title>Node2&#45;&gt;Node3</title>
<g id="a_edge2_Node000002_Node000003"><a xlink:title=" ">
<path fill="none" stroke="#63b8ff" d="M1212.78,-268.37C1203.45,-268.44 1193.65,-268.51 1184.13,-268.58"/>
<polygon fill="#63b8ff" stroke="#63b8ff" points="1212.81,-271.87 1222.78,-268.3 1212.76,-264.87 1212.81,-271.87"/>
</a>
</g>
</g>
<!-- Node4 -->
<g id="Node000004" class="node">
<title>Node4</title>
<g id="a_Node000004"><a xlink:href="../../d4/dc1/src_2view__engine_8c.html#a0bd4dc056ab5010547129bb87819789b" target="_top" xlink:title="Start view.">
<polygon fill="white" stroke="#666666" points="1015.5,-355.38 955.25,-355.38 955.25,-334.62 1015.5,-334.62 1015.5,-355.38"/>
<text xml:space="preserve" text-anchor="middle" x="985.38" y="-341.88" font-family="Helvetica,sans-Serif" font-size="10.00">view_file</text>
</a>
</g>
</g>
<!-- Node3&#45;&gt;Node4 -->
<g id="edge3_Node000003_Node000004" class="edge">
<title>Node3&#45;&gt;Node4</title>
<g id="a_edge3_Node000003_Node000004"><a xlink:title=" ">
<path fill="none" stroke="#63b8ff" d="M1082.79,-284.32C1076.95,-286.97 1071.11,-289.88 1065.75,-293 1048.23,-303.19 1046.67,-309.84 1029.75,-321 1022.71,-325.64 1014.7,-330.25 1007.5,-334.17"/>
<polygon fill="#63b8ff" stroke="#63b8ff" points="1084.01,-287.6 1091.82,-280.44 1081.25,-281.17 1084.01,-287.6"/>
</a>
</g>
</g>
<!-- Node5 -->
<g id="Node000005" class="node">
<title>Node5</title>
<g id="a_Node000005"><a xlink:href="../../da/d97/view_8c.html#a3c04138a5bfe5d72780bb7e82a18e627" target="_top" xlink:title=" ">
<polygon fill="white" stroke="#666666" points="744.25,-393.38 703.5,-393.38 703.5,-372.62 744.25,-372.62 744.25,-393.38"/>
<text xml:space="preserve" text-anchor="middle" x="723.88" y="-379.88" font-family="Helvetica,sans-Serif" font-size="10.00">main</text>
</a>
</g>
</g>
<!-- Node4&#45;&gt;Node5 -->
<g id="edge4_Node000004_Node000005" class="edge">
<title>Node4&#45;&gt;Node5</title>
<g id="a_edge4_Node000004_Node000005"><a xlink:title=" ">
<path fill="none" stroke="#63b8ff" d="M943.82,-350.94C887.2,-359.23 786.67,-373.95 744.43,-380.14"/>
<polygon fill="#63b8ff" stroke="#63b8ff" points="943.97,-354.45 953.36,-349.54 942.96,-347.53 943.97,-354.45"/>
</a>
</g>
</g>
<!-- Node6 -->
<g id="Node000006" class="node">
<title>Node6</title>
<g id="a_Node000006"><a xlink:href="../../d2/d98/mview_8c.html#a75a4e7afc9c9aafd3d35ab706f5fdc71" target="_top" xlink:title="subprogram entry point for C&#45;Menu View">
<polygon fill="white" stroke="#666666" points="884.38,-279.38 835.38,-279.38 835.38,-258.62 884.38,-258.62 884.38,-279.38"/>
<text xml:space="preserve" text-anchor="middle" x="859.88" y="-265.88" font-family="Helvetica,sans-Serif" font-size="10.00">mview</text>
</a>
</g>
</g>
<!-- Node4&#45;&gt;Node6 -->
<g id="edge5_Node000004_Node000006" class="edge">
<title>Node4&#45;&gt;Node6</title>
<g id="a_edge5_Node000004_Node000006"><a xlink:title=" ">
<path fill="none" stroke="#63b8ff" d="M957.34,-328.36C933.27,-313.55 898.77,-292.32 878.22,-279.67"/>
<polygon fill="#63b8ff" stroke="#63b8ff" points="955.3,-331.22 965.65,-333.48 958.97,-325.26 955.3,-331.22"/>
</a>
</g>
</g>
<!-- Node6&#45;&gt;Node5 -->
<g id="edge23_Node000006_Node000005" class="edge">
<title>Node6&#45;&gt;Node5</title>
<g id="a_edge23_Node000006_Node000005"><a xlink:title=" ">
<path fill="none" stroke="#63b8ff" d="M844.95,-289.11C830.34,-308.99 805.79,-339.24 778.75,-359 768.42,-366.55 755.33,-372.45 744.64,-376.51"/>
<polygon fill="#63b8ff" stroke="#63b8ff" points="847.78,-291.16 850.76,-280.99 842.09,-287.09 847.78,-291.16"/>
</a>
</g>
</g>
<!-- Node7 -->
<g id="Node000007" class="node">
<title>Node7</title>
<g id="a_Node000007"><a xlink:href="../../db/ddc/pick__engine_8c.html#aeebc4c0b94ca97d753e10a0cd1798730" target="_top" xlink:title="Displays the help screen for the pick interface using mview.">
<polygon fill="white" stroke="#666666" points="775.38,-279.38 672.38,-279.38 672.38,-258.62 775.38,-258.62 775.38,-279.38"/>
<text xml:space="preserve" text-anchor="middle" x="723.88" y="-265.88" font-family="Helvetica,sans-Serif" font-size="10.00">display_pick_help</text>
</a>
</g>
</g>
<!-- Node6&#45;&gt;Node7 -->
<g id="edge6_Node000006_Node000007" class="edge">
<title>Node6&#45;&gt;Node7</title>
<g id="a_edge6_Node000006_Node000007"><a xlink:title=" ">
<path fill="none" stroke="#63b8ff" d="M823.81,-269C809.16,-269 791.84,-269 775.82,-269"/>
<polygon fill="#63b8ff" stroke="#63b8ff" points="823.4,-272.5 833.4,-269 823.4,-265.5 823.4,-272.5"/>
</a>
</g>
</g>
<!-- Node12 -->
<g id="Node000012" class="node">
<title>Node12</title>
<g id="a_Node000012"><a xlink:href="../../d6/d18/menu__engine_8c.html#aa5d0e30e7036b72b51c843d0a7e486a1" target="_top" xlink:title="Processes user input for the menu system.">
<polygon fill="white" stroke="#666666" points="317.25,-183.38 194.75,-183.38 194.75,-162.62 317.25,-162.62 317.25,-183.38"/>
<text xml:space="preserve" text-anchor="middle" x="256" y="-169.88" font-family="Helvetica,sans-Serif" font-size="10.00">menu_cmd_processor</text>
</a>
</g>
</g>
<!-- Node6&#45;&gt;Node12 -->
<g id="edge24_Node000006_Node000012" class="edge">
<title>Node6&#45;&gt;Node12</title>
<g id="a_edge24_Node000006_Node000012"><a xlink:title=" ">
<path fill="none" stroke="#63b8ff" d="M827.86,-284.61C780.72,-306.85 687.66,-345 603.88,-345 603.88,-345 603.88,-345 490.62,-345 381.33,-345 289.46,-221.41 264,-183.76"/>
<polygon fill="#63b8ff" stroke="#63b8ff" points="829.15,-287.87 836.65,-280.38 826.12,-281.56 829.15,-287.87"/>
</a>
</g>
</g>
<!-- Node6&#45;&gt;Node15 -->
<g id="edge15_Node000006_Node000015" class="edge">
<title>Node6&#45;&gt;Node15</title>
<g id="a_edge15_Node000006_Node000015"><a xlink:title=" ">
<path fill="none" stroke="#63b8ff" d="M848.42,-247.99C838.97,-228.55 825,-198.71 814.75,-172 795.71,-122.39 815.38,-96.49 778.75,-58 774.62,-53.66 769.47,-50.26 764,-47.59"/>
<polygon fill="#63b8ff" stroke="#63b8ff" points="845.19,-249.34 852.74,-256.77 851.47,-246.25 845.19,-249.34"/>
</a>
</g>
</g>
<!-- Node16 -->
<g id="Node000016" class="node">
<title>Node16</title>
<g id="a_Node000016"><a xlink:href="../../d3/dee/form__engine_8c.html#ada302551bf41bf8ed6132fd34328a47e" target="_top" xlink:title="Form main processing loop.">
<polygon fill="white" stroke="#666666" points="762.62,-201.38 685.12,-201.38 685.12,-180.62 762.62,-180.62 762.62,-201.38"/>
<text xml:space="preserve" text-anchor="middle" x="723.88" y="-187.88" font-family="Helvetica,sans-Serif" font-size="10.00">form_engine</text>
</a>
</g>
</g>
<!-- Node6&#45;&gt;Node16 -->
<g id="edge17_Node000006_Node000016" class="edge">
<title>Node6&#45;&gt;Node16</title>
<g id="a_edge17_Node000006_Node000016"><a xlink:title=" ">
<path fill="none" stroke="#63b8ff" d="M837.47,-251.04C821.91,-238.61 799.94,-222.33 778.75,-211 772.33,-207.57 765.19,-204.46 758.26,-201.78"/>
<polygon fill="#63b8ff" stroke="#63b8ff" points="835.13,-253.64 845.1,-257.24 839.55,-248.21 835.13,-253.64"/>
</a>
</g>
</g>
<!-- Node20 -->
<g id="Node000020" class="node">
<title>Node20</title>
<g id="a_Node000020"><a xlink:href="../../d4/dc1/src_2view__engine_8c.html#ad997ba9f8591568c77291fb1b44601b2" target="_top" xlink:title="Display View Help File.">
<polygon fill="white" stroke="#666666" points="776.88,-240.38 670.88,-240.38 670.88,-219.62 776.88,-219.62 776.88,-240.38"/>
<text xml:space="preserve" text-anchor="middle" x="723.88" y="-226.88" font-family="Helvetica,sans-Serif" font-size="10.00">view_display_help</text>
</a>
</g>
</g>
<!-- Node6&#45;&gt;Node20 -->
<g id="edge25_Node000006_Node000020" class="edge">
<title>Node6&#45;&gt;Node20</title>
<g id="a_edge25_Node000006_Node000020"><a xlink:title=" ">
<path fill="none" stroke="#63b8ff" d="M824.02,-258.85C804.98,-253.31 781.41,-246.45 762.02,-240.81"/>
<polygon fill="#63b8ff" stroke="#63b8ff" points="822.89,-262.17 833.47,-261.6 824.84,-255.45 822.89,-262.17"/>
</a>
</g>
</g>
<!-- Node8 -->
<g id="Node000008" class="node">
<title>Node8</title>
<g id="a_Node000008"><a xlink:href="../../db/ddc/pick__engine_8c.html#abb0969a6d1c7e78be46c3b325754c802" target="_top" xlink:title="Main loop to handle user input and interactions for pick interface.">
<polygon fill="white" stroke="#666666" points="625.5,-221.38 580.25,-221.38 580.25,-200.62 625.5,-200.62 625.5,-221.38"/>
<text xml:space="preserve" text-anchor="middle" x="602.88" y="-207.88" font-family="Helvetica,sans-Serif" font-size="10.00">picker</text>
</a>
</g>
</g>
<!-- Node7&#45;&gt;Node8 -->
<g id="edge7_Node000007_Node000008" class="edge">
<title>Node7&#45;&gt;Node8</title>
<g id="a_edge7_Node000007_Node000008"><a xlink:title=" ">
<path fill="none" stroke="#63b8ff" d="M680.5,-254.06C676.58,-252.44 672.69,-250.75 669,-249 651.96,-240.94 633.48,-229.92 620.58,-221.83"/>
<polygon fill="#63b8ff" stroke="#63b8ff" points="678.88,-257.19 689.47,-257.6 681.45,-250.68 678.88,-257.19"/>
</a>
</g>
</g>
<!-- Node9 -->
<g id="Node000009" class="node">
<title>Node9</title>
<g id="a_Node000009"><a xlink:href="../../db/ddc/pick__engine_8c.html#ab97dcab41017c5132f52b682437a151e" target="_top" xlink:title="Initializes pick interface, calculates window size and position, and enters picker loop.">
<polygon fill="white" stroke="#666666" points="528.88,-68.38 454.38,-68.38 454.38,-47.62 528.88,-47.62 528.88,-68.38"/>
<text xml:space="preserve" text-anchor="middle" x="491.62" y="-54.88" font-family="Helvetica,sans-Serif" font-size="10.00">pick_engine</text>
</a>
</g>
</g>
<!-- Node8&#45;&gt;Node9 -->
<g id="edge8_Node000008_Node000009" class="edge">
<title>Node8&#45;&gt;Node9</title>
<g id="a_edge8_Node000008_Node000009"><a xlink:title=" ">
<path fill="none" stroke="#63b8ff" d="M587.91,-191.44C564.55,-158.72 518.33,-94 500.19,-68.59"/>
<polygon fill="#63b8ff" stroke="#63b8ff" points="584.83,-193.15 593.49,-199.25 590.52,-189.08 584.83,-193.15"/>
</a>
</g>
</g>
<!-- Node10 -->
<g id="Node000010" class="node">
<title>Node10</title>
<g id="a_Node000010"><a xlink:href="../../db/ddc/pick__engine_8c.html#a1b2ee87543245e612c1710ea58930a17" target="_top" xlink:title="Initializes pick structure and opens pick input file or pipe.">
<polygon fill="white" stroke="#666666" points="410.5,-68.38 353.25,-68.38 353.25,-47.62 410.5,-47.62 410.5,-68.38"/>
<text xml:space="preserve" text-anchor="middle" x="381.88" y="-54.88" font-family="Helvetica,sans-Serif" font-size="10.00">init_pick</text>
</a>
</g>
</g>
<!-- Node9&#45;&gt;Node10 -->
<g id="edge9_Node000009_Node000010" class="edge">
<title>Node9&#45;&gt;Node10</title>
<g id="a_edge9_Node000009_Node000010"><a xlink:title=" ">
<path fill="none" stroke="#63b8ff" d="M442.91,-58C431.93,-58 420.61,-58 410.8,-58"/>
<polygon fill="#63b8ff" stroke="#63b8ff" points="442.63,-61.5 452.63,-58 442.63,-54.5 442.63,-61.5"/>
</a>
</g>
</g>
<!-- Node11 -->
<g id="Node000011" class="node">
<title>Node11</title>
<g id="a_Node000011"><a xlink:href="../../de/d7c/pick_8c.html#a3c04138a5bfe5d72780bb7e82a18e627" target="_top" xlink:title=" ">
<polygon fill="white" stroke="#666666" points="276.38,-68.38 235.62,-68.38 235.62,-47.62 276.38,-47.62 276.38,-68.38"/>
<text xml:space="preserve" text-anchor="middle" x="256" y="-54.88" font-family="Helvetica,sans-Serif" font-size="10.00">main</text>
</a>
</g>
</g>
<!-- Node10&#45;&gt;Node11 -->
<g id="edge10_Node000010_Node000011" class="edge">
<title>Node10&#45;&gt;Node11</title>
<g id="a_edge10_Node000010_Node000011"><a xlink:title=" ">
<path fill="none" stroke="#63b8ff" d="M341.27,-58C319.64,-58 293.83,-58 276.52,-58"/>
<polygon fill="#63b8ff" stroke="#63b8ff" points="341.25,-61.5 351.25,-58 341.25,-54.5 341.25,-61.5"/>
</a>
</g>
</g>
<!-- Node10&#45;&gt;Node12 -->
<g id="edge11_Node000010_Node000012" class="edge">
<title>Node10&#45;&gt;Node12</title>
<g id="a_edge11_Node000010_Node000012"><a xlink:title=" ">
<path fill="none" stroke="#63b8ff" d="M361.04,-76.42C334.82,-100.76 289.49,-142.84 268.4,-162.41"/>
<polygon fill="#63b8ff" stroke="#63b8ff" points="363.39,-79.01 368.33,-69.64 358.62,-73.88 363.39,-79.01"/>
</a>
</g>
</g>
<!-- Node13 -->
<g id="Node000013" class="node">
<title>Node13</title>
<g id="a_Node000013"><a xlink:href="../../d6/d18/menu__engine_8c.html#a7d7973d7aac92759dcc86ec52bb038f4" target="_top" xlink:title="The main loop of the menu system.">
<polygon fill="white" stroke="#666666" points="158.75,-183.38 76.75,-183.38 76.75,-162.62 158.75,-162.62 158.75,-183.38"/>
<text xml:space="preserve" text-anchor="middle" x="117.75" y="-169.88" font-family="Helvetica,sans-Serif" font-size="10.00">menu_engine</text>
</a>
</g>
</g>
<!-- Node12&#45;&gt;Node13 -->
<g id="edge12_Node000012_Node000013" class="edge">
<title>Node12&#45;&gt;Node13</title>
<g id="a_edge12_Node000012_Node000013"><a xlink:title=" ">
<path fill="none" stroke="#63b8ff" d="M183.2,-166.26C174.96,-166.3 166.79,-166.47 159.17,-166.77"/>
<polygon fill="#63b8ff" stroke="#63b8ff" points="182.92,-169.76 192.93,-166.28 182.94,-162.76 182.92,-169.76"/>
</a>
</g>
</g>
<!-- Node13&#45;&gt;Node12 -->
<g id="edge14_Node000013_Node000012" class="edge">
<title>Node13&#45;&gt;Node12</title>
<g id="a_edge14_Node000013_Node000012"><a xlink:title=" ">
<path fill="none" stroke="#63b8ff" d="M170.68,-179.58C178.45,-179.75 186.52,-179.79 194.45,-179.71"/>
<polygon fill="#63b8ff" stroke="#63b8ff" points="170.79,-176.08 160.69,-179.27 170.58,-183.08 170.79,-176.08"/>
</a>
</g>
</g>
<!-- Node14 -->
<g id="Node000014" class="node">
<title>Node14</title>
<g id="a_Node000014"><a xlink:href="../../d2/d0a/menu_8c.html#a3c04138a5bfe5d72780bb7e82a18e627" target="_top" xlink:title=" ">
<polygon fill="white" stroke="#666666" points="40.75,-183.38 0,-183.38 0,-162.62 40.75,-162.62 40.75,-183.38"/>
<text xml:space="preserve" text-anchor="middle" x="20.38" y="-169.88" font-family="Helvetica,sans-Serif" font-size="10.00">main</text>
</a>
</g>
</g>
<!-- Node13&#45;&gt;Node14 -->
<g id="edge13_Node000013_Node000014" class="edge">
<title>Node13&#45;&gt;Node14</title>
<g id="a_edge13_Node000013_Node000014"><a xlink:title=" ">
<path fill="none" stroke="#63b8ff" d="M64.79,-173C56.36,-173 48.1,-173 41.09,-173"/>
<polygon fill="#63b8ff" stroke="#63b8ff" points="64.79,-176.5 74.79,-173 64.79,-169.5 64.79,-176.5"/>
</a>
</g>
</g>
<!-- Node15&#45;&gt;Node9 -->
<g id="edge16_Node000015_Node000009" class="edge">
<title>Node15&#45;&gt;Node9</title>
<g id="a_edge16_Node000015_Node000009"><a xlink:title=" ">
<path fill="none" stroke="#63b8ff" d="M672.14,-42.41C628.87,-46.17 567.71,-51.48 529.12,-54.83"/>
<polygon fill="#63b8ff" stroke="#63b8ff" points="672.39,-45.9 682.05,-41.55 671.78,-38.92 672.39,-45.9"/>
</a>
</g>
</g>
<!-- Node17 -->
<g id="Node000017" class="node">
<title>Node17</title>
<g id="a_Node000017"><a xlink:href="../../d3/dee/form__engine_8c.html#abf1be20a8aad5f7ba09172ac1434a110" target="_top" xlink:title="Initialize form data structure and parse description file.">
<polygon fill="white" stroke="#666666" points="633,-317.38 572.75,-317.38 572.75,-296.62 633,-296.62 633,-317.38"/>
<text xml:space="preserve" text-anchor="middle" x="602.88" y="-303.88" font-family="Helvetica,sans-Serif" font-size="10.00">init_form</text>
</a>
</g>
</g>
<!-- Node16&#45;&gt;Node17 -->
<g id="edge18_Node000016_Node000017" class="edge">
<title>Node16&#45;&gt;Node17</title>
<g id="a_edge18_Node000016_Node000017"><a xlink:title=" ">
<path fill="none" stroke="#63b8ff" d="M675.07,-206.8C672.95,-208.1 670.91,-209.5 669,-211 638.73,-234.74 617.38,-276.49 608.48,-296.17"/>
<polygon fill="#63b8ff" stroke="#63b8ff" points="676.2,-210.17 683.43,-202.42 672.95,-203.96 676.2,-210.17"/>
</a>
</g>
</g>
<!-- Node17&#45;&gt;Node12 -->
<g id="edge22_Node000017_Node000012" class="edge">
<title>Node17&#45;&gt;Node12</title>
<g id="a_edge22_Node000017_Node000012"><a xlink:title=" ">
<path fill="none" stroke="#63b8ff" d="M561.73,-292.7C530.27,-281.39 485.46,-265.06 446.5,-250 387.7,-227.28 319.34,-199.05 282.94,-183.87"/>
<polygon fill="#63b8ff" stroke="#63b8ff" points="560.25,-295.89 570.84,-295.97 562.61,-289.3 560.25,-295.89"/>
</a>
</g>
</g>
<!-- Node18 -->
<g id="Node000018" class="node">
<title>Node18</title>
<g id="a_Node000018"><a xlink:href="../../d4/dc1/src_2view__engine_8c.html#a2ffea5674e85f124a70e19f745a66583" target="_top" xlink:title="use form to enter a file specification">
<polygon fill="white" stroke="#666666" points="536.75,-241.38 446.5,-241.38 446.5,-220.62 536.75,-220.62 536.75,-241.38"/>
<text xml:space="preserve" text-anchor="middle" x="491.62" y="-227.88" font-family="Helvetica,sans-Serif" font-size="10.00">enter_file_spec</text>
</a>
</g>
</g>
<!-- Node17&#45;&gt;Node18 -->
<g id="edge19_Node000017_Node000018" class="edge">
<title>Node17&#45;&gt;Node18</title>
<g id="a_edge19_Node000017_Node000018"><a xlink:title=" ">
<path fill="none" stroke="#63b8ff" d="M579.73,-289C562.66,-275.19 541.25,-257.99 536.75,-255 529.63,-250.27 521.49,-245.65 514.17,-241.74"/>
<polygon fill="#63b8ff" stroke="#63b8ff" points="577.47,-291.68 587.45,-295.26 581.88,-286.24 577.47,-291.68"/>
</a>
</g>
</g>
<!-- Node19 -->
<g id="Node000019" class="node">
<title>Node19</title>
<g id="a_Node000019"><a xlink:href="../../d5/d97/form_8c.html#a3c04138a5bfe5d72780bb7e82a18e627" target="_top" xlink:title=" ">
<polygon fill="white" stroke="#666666" points="512,-317.38 471.25,-317.38 471.25,-296.62 512,-296.62 512,-317.38"/>
<text xml:space="preserve" text-anchor="middle" x="491.62" y="-303.88" font-family="Helvetica,sans-Serif" font-size="10.00">main</text>
</a>
</g>
</g>
<!-- Node17&#45;&gt;Node19 -->
<g id="edge21_Node000017_Node000019" class="edge">
<title>Node17&#45;&gt;Node19</title>
<g id="a_edge21_Node000017_Node000019"><a xlink:title=" ">
<path fill="none" stroke="#63b8ff" d="M561.11,-307C544.38,-307 525.8,-307 512.21,-307"/>
<polygon fill="#63b8ff" stroke="#63b8ff" points="560.8,-310.5 570.8,-307 560.8,-303.5 560.8,-310.5"/>
</a>
</g>
</g>
<!-- Node18&#45;&gt;Node3 -->
<g id="edge20_Node000018_Node000003" class="edge">
<title>Node18&#45;&gt;Node3</title>
<g id="a_edge20_Node000018_Node000003"><a xlink:title=" ">
<path fill="none" stroke="#63b8ff" d="M536.15,-245.44C586.15,-261.97 662.22,-286.93 669,-288 810.09,-310.23 978.64,-291.6 1065.54,-278.72"/>
<polygon fill="#63b8ff" stroke="#63b8ff" points="537.33,-242.14 526.73,-242.32 535.13,-248.79 537.33,-242.14"/>
</a>
</g>
</g>
<!-- Node20&#45;&gt;Node3 -->
<g id="edge26_Node000020_Node000003" class="edge">
<title>Node20&#45;&gt;Node3</title>
<g id="a_edge26_Node000020_Node000003"><a xlink:title=" ">
<path fill="none" stroke="#63b8ff" d="M788.43,-236.21C864.67,-243.67 991.43,-256.06 1065.32,-263.29"/>
<polygon fill="#63b8ff" stroke="#63b8ff" points="788.9,-232.74 778.6,-235.25 788.22,-239.71 788.9,-232.74"/>
</a>
</g>
</g>
<!-- Node21&#45;&gt;Node16 -->
<g id="edge29_Node000021_Node000016" class="edge">
<title>Node21&#45;&gt;Node16</title>
<g id="a_edge29_Node000021_Node000016"><a xlink:title=" ">
<path fill="none" stroke="#63b8ff" d="M929.39,-191C879.33,-191 806.75,-191 762.86,-191"/>
<polygon fill="#63b8ff" stroke="#63b8ff" points="929.13,-194.5 939.13,-191 929.13,-187.5 929.13,-194.5"/>
</a>
</g>
</g>
<!-- Node23 -->
<g id="Node000023" class="node">
<title>Node23</title>
<g id="a_Node000023"><a xlink:href="../../d3/d8f/mem_8c.html#a625c89a0ff0ede7fbac1b40c7ac9dbda" target="_top" xlink:title="Create and initialize Form structure.">
<polygon fill="white" stroke="#666666" points="1017.75,-412.38 953,-412.38 953,-391.62 1017.75,-391.62 1017.75,-412.38"/>
<text xml:space="preserve" text-anchor="middle" x="985.38" y="-398.88" font-family="Helvetica,sans-Serif" font-size="10.00">new_form</text>
</a>
</g>
</g>
<!-- Node22&#45;&gt;Node23 -->
<g id="edge31_Node000022_Node000023" class="edge">
<title>Node22&#45;&gt;Node23</title>
<g id="a_edge31_Node000022_Node000023"><a xlink:title=" ">
<path fill="none" stroke="#63b8ff" d="M1221.69,-321.44C1165.66,-340.62 1067.96,-374.07 1017.91,-391.2"/>
<polygon fill="#63b8ff" stroke="#63b8ff" points="1222.55,-324.85 1230.88,-318.3 1220.29,-318.22 1222.55,-324.85"/>
</a>
</g>
</g>
<!-- Node23&#45;&gt;Node17 -->
<g id="edge32_Node000023_Node000017" class="edge">
<title>Node23&#45;&gt;Node17</title>
<g id="a_edge32_Node000023_Node000017"><a xlink:title=" ">
<path fill="none" stroke="#63b8ff" d="M941.74,-413.86C878.19,-429.04 756.74,-448.23 669,-402 634.68,-383.92 614.98,-338.68 607.45,-317.84"/>
<polygon fill="#63b8ff" stroke="#63b8ff" points="942.2,-417.35 951.07,-411.55 940.52,-410.56 942.2,-417.35"/>
</a>
</g>
</g>
<!-- Node25 -->
<g id="Node000025" class="node">
<title>Node25</title>
<g id="a_Node000025"><a xlink:href="../../d3/d8f/mem_8c.html#aa7928f3771536aa0e27d88479be2cbc8" target="_top" xlink:title="Create and initialize Pick structure.">
<polygon fill="white" stroke="#666666" points="1155.62,-49.38 1093.88,-49.38 1093.88,-28.62 1155.62,-28.62 1155.62,-49.38"/>
<text xml:space="preserve" text-anchor="middle" x="1124.75" y="-35.88" font-family="Helvetica,sans-Serif" font-size="10.00">new_pick</text>
</a>
</g>
</g>
<!-- Node24&#45;&gt;Node25 -->
<g id="edge34_Node000024_Node000025" class="edge">
<title>Node24&#45;&gt;Node25</title>
<g id="a_edge34_Node000024_Node000025"><a xlink:title=" ">
<path fill="none" stroke="#63b8ff" d="M1213.83,-63.23C1194.4,-57.89 1172.79,-51.94 1155.83,-47.28"/>
<polygon fill="#63b8ff" stroke="#63b8ff" points="1212.63,-66.53 1223.2,-65.81 1214.49,-59.78 1212.63,-66.53"/>
</a>
</g>
</g>
<!-- Node25&#45;&gt;Node10 -->
<g id="edge35_Node000025_Node000010" class="edge">
<title>Node25&#45;&gt;Node10</title>
<g id="a_edge35_Node000025_Node000010"><a xlink:title=" ">
<path fill="none" stroke="#63b8ff" d="M1082.62,-29.06C1031.12,-17.51 940.01,0 860.88,0 860.88,0 860.88,0 601.88,0 528.91,0 446.7,-30.45 406.95,-47.23"/>
<polygon fill="#63b8ff" stroke="#63b8ff" points="1081.6,-32.42 1092.13,-31.24 1083.16,-25.6 1081.6,-32.42"/>
</a>
</g>
</g>
<!-- Node26&#45;&gt;Node7 -->
<g id="edge37_Node000026_Node000007" class="edge">
<title>Node26&#45;&gt;Node7</title>
<g id="a_edge37_Node000026_Node000007"><a xlink:title=" ">
<path fill="none" stroke="#63b8ff" d="M846.57,-173.27C832.57,-194.77 807.85,-228.43 778.75,-249 773.62,-252.63 767.75,-255.68 761.82,-258.22"/>
<polygon fill="#63b8ff" stroke="#63b8ff" points="849.36,-175.4 851.74,-165.07 843.44,-171.66 849.36,-175.4"/>
</a>
</g>
</g>
<!-- Node26&#45;&gt;Node12 -->
<g id="edge43_Node000026_Node000012" class="edge">
<title>Node26&#45;&gt;Node12</title>
<g id="a_edge43_Node000026_Node000012"><a xlink:title=" ">
<path fill="none" stroke="#63b8ff" d="M803.31,-139.88C751.89,-128.89 673.16,-115 603.88,-115 603.88,-115 603.88,-115 490.62,-115 413.1,-115 325.26,-145.45 282.76,-162.23"/>
<polygon fill="#63b8ff" stroke="#63b8ff" points="802.5,-143.28 813.01,-141.99 803.99,-136.44 802.5,-143.28"/>
</a>
</g>
</g>
<!-- Node26&#45;&gt;Node15 -->
<g id="edge39_Node000026_Node000015" class="edge">
<title>Node26&#45;&gt;Node15</title>
<g id="a_edge39_Node000026_Node000015"><a xlink:title=" ">
<path fill="none" stroke="#63b8ff" d="M823.27,-136.23C820.2,-134.04 817.3,-131.63 814.75,-129 790.1,-103.62 805.15,-81.55 778.75,-58 774.51,-54.21 769.48,-51.12 764.23,-48.6"/>
<polygon fill="#63b8ff" stroke="#63b8ff" points="821.18,-139.05 831.51,-141.37 824.88,-133.11 821.18,-139.05"/>
</a>
</g>
</g>
<!-- Node26&#45;&gt;Node16 -->
<g id="edge40_Node000026_Node000016" class="edge">
<title>Node26&#45;&gt;Node16</title>
<g id="a_edge40_Node000026_Node000016"><a xlink:title=" ">
<path fill="none" stroke="#63b8ff" d="M809.88,-166.89C794.42,-171.28 777.59,-176.05 763.01,-180.19"/>
<polygon fill="#63b8ff" stroke="#63b8ff" points="810.71,-170.3 819.38,-164.2 808.8,-163.56 810.71,-170.3"/>
</a>
</g>
</g>
<!-- Node26&#45;&gt;Node18 -->
<g id="edge38_Node000026_Node000018" class="edge">
<title>Node26&#45;&gt;Node18</title>
<g id="a_edge38_Node000026_Node000018"><a xlink:title=" ">
<path fill="none" stroke="#63b8ff" d="M803.28,-154.27C744.54,-157.05 649.92,-165.66 572.75,-192 550.93,-199.45 527.37,-211.44 511.48,-220.16"/>
<polygon fill="#63b8ff" stroke="#63b8ff" points="803.18,-157.78 813.02,-153.85 802.88,-150.78 803.18,-157.78"/>
</a>
</g>
</g>
<!-- Node26&#45;&gt;Node20 -->
<g id="edge44_Node000026_Node000020" class="edge">
<title>Node26&#45;&gt;Node20</title>
<g id="a_edge44_Node000026_Node000020"><a xlink:title=" ">
<path fill="none" stroke="#63b8ff" d="M837.15,-170.85C821.58,-183.02 799.74,-198.89 778.75,-210 772.31,-213.41 765.17,-216.5 758.24,-219.18"/>
<polygon fill="#63b8ff" stroke="#63b8ff" points="839.14,-173.73 844.78,-164.76 834.78,-168.26 839.14,-173.73"/>
</a>
</g>
</g>
<!-- Node27 -->
<g id="Node000027" class="node">
<title>Node27</title>
<g id="a_Node000027"><a xlink:href="../../d8/d60/init_8c.html#accd65939c0ce6f0d940c5cf795a1e8fa" target="_top" xlink:title="Main initialization function for MAPP &#45; Menu Application.">
<polygon fill="white" stroke="#666666" points="778.75,-87.38 669,-87.38 669,-66.62 778.75,-66.62 778.75,-87.38"/>
<text xml:space="preserve" text-anchor="middle" x="723.88" y="-73.88" font-family="Helvetica,sans-Serif" font-size="10.00">mapp_initialization</text>
</a>
</g>
</g>
<!-- Node26&#45;&gt;Node27 -->
<g id="edge41_Node000026_Node000027" class="edge">
<title>Node26&#45;&gt;Node27</title>
<g id="a_edge41_Node000026_Node000027"><a xlink:title=" ">
<path fill="none" stroke="#63b8ff" d="M827.44,-136.72C823.11,-134.24 818.77,-131.63 814.75,-129 797.79,-117.9 796.13,-111.42 778.75,-101 770.58,-96.1 761.24,-91.6 752.65,-87.84"/>
<polygon fill="#63b8ff" stroke="#63b8ff" points="825.6,-139.71 836.04,-141.48 828.98,-133.58 825.6,-139.71"/>
</a>
</g>
</g>
<!-- Node28 -->
<g id="Node000028" class="node">
<title>Node28</title>
<g id="a_Node000028"><a xlink:href="../../d8/d13/ckeys_8c.html#a3c04138a5bfe5d72780bb7e82a18e627" target="_top" xlink:title=" ">
<polygon fill="white" stroke="#666666" points="623.25,-87.38 582.5,-87.38 582.5,-66.62 623.25,-66.62 623.25,-87.38"/>
<text xml:space="preserve" text-anchor="middle" x="602.88" y="-73.88" font-family="Helvetica,sans-Serif" font-size="10.00">main</text>
</a>
</g>
</g>
<!-- Node27&#45;&gt;Node28 -->
<g id="edge42_Node000027_Node000028" class="edge">
<title>Node27&#45;&gt;Node28</title>
<g id="a_edge42_Node000027_Node000028"><a xlink:title=" ">
<path fill="none" stroke="#63b8ff" d="M657.28,-77C645,-77 633.07,-77 623.61,-77"/>
<polygon fill="#63b8ff" stroke="#63b8ff" points="657.08,-80.5 667.08,-77 657.08,-73.5 657.08,-80.5"/>
</a>
</g>
</g>
</g>
</svg>
