<?xml version="1.0" encoding="UTF-8" standalone="no"?>
<!DOCTYPE svg PUBLIC "-//W3C//DTD SVG 1.1//EN"
 "http://www.w3.org/Graphics/SVG/1.1/DTD/svg11.dtd">
<!-- Generated by graphviz version 14.1.2 (0)
 -->
<!-- Title: restore_curses_tioctl Pages: 1 -->
<svg width="1935pt" height="361pt"
 viewBox="0.00 0.00 1935.00 361.00" xmlns="http://www.w3.org/2000/svg" xmlns:xlink="http://www.w3.org/1999/xlink">
<g id="graph0" class="graph" transform="scale(1 1) rotate(0) translate(4 357.38)">
<title>restore_curses_tioctl</title>
<!-- Node1 -->
<g id="Node000001" class="node">
<title>Node1</title>
<g id="a_Node000001"><a xlink:title="restore_curses_tioctl() &#45; restore curses terminal settings">
<polygon fill="#999999" stroke="#666666" points="1926.5,-325.75 1809.25,-325.75 1809.25,-305 1926.5,-305 1926.5,-325.75"/>
<text xml:space="preserve" text-anchor="middle" x="1867.88" y="-312.25" font-family="Helvetica,sans-Serif" font-size="10.00">restore_curses_tioctl</text>
</a>
</g>
</g>
<!-- Node2 -->
<g id="Node000002" class="node">
<title>Node2</title>
<g id="a_Node000002"><a xlink:href="../../db/ddc/pick__engine_8c.html#af7fcbb1c8b67a4d11c86ba7209f397c2" target="_top" xlink:title="Executes specified command with selected objects as arguments.">
<polygon fill="white" stroke="#666666" points="731.12,-287.75 651.38,-287.75 651.38,-267 731.12,-267 731.12,-287.75"/>
<text xml:space="preserve" text-anchor="middle" x="691.25" y="-274.25" font-family="Helvetica,sans-Serif" font-size="10.00">exec_objects</text>
</a>
</g>
</g>
<!-- Node1&#45;&gt;Node2 -->
<g id="edge1_Node000001_Node000002" class="edge">
<title>Node1&#45;&gt;Node2</title>
<g id="a_edge1_Node000001_Node000002"><a xlink:title=" ">
<path fill="none" stroke="#63b8ff" d="M1797.42,-315.38C1755.97,-315.38 1702.29,-315.38 1654.62,-315.38 1654.62,-315.38 1654.62,-315.38 894.38,-315.38 835.1,-315.38 767.71,-299.4 727.65,-288.16"/>
<polygon fill="#63b8ff" stroke="#63b8ff" points="1797.26,-318.88 1807.26,-315.38 1797.26,-311.88 1797.26,-318.88"/>
</a>
</g>
</g>
<!-- Node4 -->
<g id="Node000004" class="node">
<title>Node4</title>
<g id="a_Node000004"><a xlink:href="../../db/ddc/pick__engine_8c.html#a1b2ee87543245e612c1710ea58930a17" target="_top" xlink:title="Initializes pick structure and opens pick input file or pipe.">
<polygon fill="white" stroke="#666666" points="410.5,-287.75 353.25,-287.75 353.25,-267 410.5,-267 410.5,-287.75"/>
<text xml:space="preserve" text-anchor="middle" x="381.88" y="-274.25" font-family="Helvetica,sans-Serif" font-size="10.00">init_pick</text>
</a>
</g>
</g>
<!-- Node1&#45;&gt;Node4 -->
<g id="edge38_Node000001_Node000004" class="edge">
<title>Node1&#45;&gt;Node4</title>
<g id="a_edge38_Node000001_Node000004"><a xlink:title=" ">
<path fill="none" stroke="#63b8ff" d="M1818.74,-329.01C1776.01,-339.91 1711.67,-353.38 1654.62,-353.38 1654.62,-353.38 1654.62,-353.38 578.62,-353.38 507.35,-353.38 430.78,-309.05 398.56,-288.1"/>
<polygon fill="#63b8ff" stroke="#63b8ff" points="1819.41,-332.46 1828.2,-326.54 1817.64,-325.68 1819.41,-332.46"/>
</a>
</g>
</g>
<!-- Node9 -->
<g id="Node000009" class="node">
<title>Node9</title>
<g id="a_Node000009"><a xlink:href="../../df/dc9/exec_8c.html#a386fad82c5208c7d3b2a5060882974f3" target="_top" xlink:title="Fork and exec a command.">
<polygon fill="white" stroke="#666666" points="1773.25,-115.75 1709.25,-115.75 1709.25,-95 1773.25,-95 1773.25,-115.75"/>
<text xml:space="preserve" text-anchor="middle" x="1741.25" y="-102.25" font-family="Helvetica,sans-Serif" font-size="10.00">fork_exec</text>
</a>
</g>
</g>
<!-- Node1&#45;&gt;Node9 -->
<g id="edge9_Node000001_Node000009" class="edge">
<title>Node1&#45;&gt;Node9</title>
<g id="a_edge9_Node000001_Node000009"><a xlink:title=" ">
<path fill="none" stroke="#63b8ff" d="M1854.68,-294.83C1828.63,-250.92 1768.28,-149.24 1748.59,-116.06"/>
<polygon fill="#63b8ff" stroke="#63b8ff" points="1851.64,-296.56 1859.75,-303.37 1857.66,-292.98 1851.64,-296.56"/>
</a>
</g>
</g>
<!-- Node3 -->
<g id="Node000003" class="node">
<title>Node3</title>
<g id="a_Node000003"><a xlink:href="../../db/ddc/pick__engine_8c.html#ab97dcab41017c5132f52b682437a151e" target="_top" xlink:title="Initializes pick interface, calculates window size and position, and enters picker loop.">
<polygon fill="white" stroke="#666666" points="521,-287.75 446.5,-287.75 446.5,-267 521,-267 521,-287.75"/>
<text xml:space="preserve" text-anchor="middle" x="483.75" y="-274.25" font-family="Helvetica,sans-Serif" font-size="10.00">pick_engine</text>
</a>
</g>
</g>
<!-- Node2&#45;&gt;Node3 -->
<g id="edge2_Node000002_Node000003" class="edge">
<title>Node2&#45;&gt;Node3</title>
<g id="a_edge2_Node000002_Node000003"><a xlink:title=" ">
<path fill="none" stroke="#63b8ff" d="M639.67,-277.38C603,-277.38 554.27,-277.38 521.33,-277.38"/>
<polygon fill="#63b8ff" stroke="#63b8ff" points="639.6,-280.88 649.6,-277.38 639.6,-273.88 639.6,-280.88"/>
</a>
</g>
</g>
<!-- Node3&#45;&gt;Node4 -->
<g id="edge3_Node000003_Node000004" class="edge">
<title>Node3&#45;&gt;Node4</title>
<g id="a_edge3_Node000003_Node000004"><a xlink:title=" ">
<path fill="none" stroke="#63b8ff" d="M434.66,-277.38C426.46,-277.38 418.18,-277.38 410.73,-277.38"/>
<polygon fill="#63b8ff" stroke="#63b8ff" points="434.61,-280.88 444.61,-277.38 434.61,-273.88 434.61,-280.88"/>
</a>
</g>
</g>
<!-- Node5 -->
<g id="Node000005" class="node">
<title>Node5</title>
<g id="a_Node000005"><a xlink:href="../../de/d7c/pick_8c.html#a3c04138a5bfe5d72780bb7e82a18e627" target="_top" xlink:title=" ">
<polygon fill="white" stroke="#666666" points="276.38,-287.75 235.62,-287.75 235.62,-267 276.38,-267 276.38,-287.75"/>
<text xml:space="preserve" text-anchor="middle" x="256" y="-274.25" font-family="Helvetica,sans-Serif" font-size="10.00">main</text>
</a>
</g>
</g>
<!-- Node4&#45;&gt;Node5 -->
<g id="edge4_Node000004_Node000005" class="edge">
<title>Node4&#45;&gt;Node5</title>
<g id="a_edge4_Node000004_Node000005"><a xlink:title=" ">
<path fill="none" stroke="#63b8ff" d="M341.27,-277.38C319.64,-277.38 293.83,-277.38 276.52,-277.38"/>
<polygon fill="#63b8ff" stroke="#63b8ff" points="341.25,-280.88 351.25,-277.38 341.25,-273.88 341.25,-280.88"/>
</a>
</g>
</g>
<!-- Node6 -->
<g id="Node000006" class="node">
<title>Node6</title>
<g id="a_Node000006"><a xlink:href="../../d6/d18/menu__engine_8c.html#aa5d0e30e7036b72b51c843d0a7e486a1" target="_top" xlink:title="Processes user input for the menu system.">
<polygon fill="white" stroke="#666666" points="317.25,-173.75 194.75,-173.75 194.75,-153 317.25,-153 317.25,-173.75"/>
<text xml:space="preserve" text-anchor="middle" x="256" y="-160.25" font-family="Helvetica,sans-Serif" font-size="10.00">menu_cmd_processor</text>
</a>
</g>
</g>
<!-- Node4&#45;&gt;Node6 -->
<g id="edge5_Node000004_Node000006" class="edge">
<title>Node4&#45;&gt;Node6</title>
<g id="a_edge5_Node000004_Node000006"><a xlink:title=" ">
<path fill="none" stroke="#63b8ff" d="M359.91,-259.31C357.65,-257.32 355.4,-255.31 353.25,-253.38 321.98,-225.19 285.94,-191.03 268.14,-174.04"/>
<polygon fill="#63b8ff" stroke="#63b8ff" points="357.44,-261.79 367.27,-265.72 362.04,-256.51 357.44,-261.79"/>
</a>
</g>
</g>
<!-- Node7 -->
<g id="Node000007" class="node">
<title>Node7</title>
<g id="a_Node000007"><a xlink:href="../../d6/d18/menu__engine_8c.html#a7d7973d7aac92759dcc86ec52bb038f4" target="_top" xlink:title="The main loop of the menu system.">
<polygon fill="white" stroke="#666666" points="158.75,-173.75 76.75,-173.75 76.75,-153 158.75,-153 158.75,-173.75"/>
<text xml:space="preserve" text-anchor="middle" x="117.75" y="-160.25" font-family="Helvetica,sans-Serif" font-size="10.00">menu_engine</text>
</a>
</g>
</g>
<!-- Node6&#45;&gt;Node7 -->
<g id="edge6_Node000006_Node000007" class="edge">
<title>Node6&#45;&gt;Node7</title>
<g id="a_edge6_Node000006_Node000007"><a xlink:title=" ">
<path fill="none" stroke="#63b8ff" d="M183.2,-156.63C174.96,-156.67 166.79,-156.84 159.17,-157.15"/>
<polygon fill="#63b8ff" stroke="#63b8ff" points="182.92,-160.13 192.93,-156.66 182.94,-153.13 182.92,-160.13"/>
</a>
</g>
</g>
<!-- Node7&#45;&gt;Node6 -->
<g id="edge8_Node000007_Node000006" class="edge">
<title>Node7&#45;&gt;Node6</title>
<g id="a_edge8_Node000007_Node000006"><a xlink:title=" ">
<path fill="none" stroke="#63b8ff" d="M170.68,-169.95C178.45,-170.12 186.52,-170.17 194.45,-170.09"/>
<polygon fill="#63b8ff" stroke="#63b8ff" points="170.79,-166.45 160.69,-169.65 170.58,-173.45 170.79,-166.45"/>
</a>
</g>
</g>
<!-- Node8 -->
<g id="Node000008" class="node">
<title>Node8</title>
<g id="a_Node000008"><a xlink:href="../../d2/d0a/menu_8c.html#a3c04138a5bfe5d72780bb7e82a18e627" target="_top" xlink:title=" ">
<polygon fill="white" stroke="#666666" points="40.75,-173.75 0,-173.75 0,-153 40.75,-153 40.75,-173.75"/>
<text xml:space="preserve" text-anchor="middle" x="20.38" y="-160.25" font-family="Helvetica,sans-Serif" font-size="10.00">main</text>
</a>
</g>
</g>
<!-- Node7&#45;&gt;Node8 -->
<g id="edge7_Node000007_Node000008" class="edge">
<title>Node7&#45;&gt;Node8</title>
<g id="a_edge7_Node000007_Node000008"><a xlink:title=" ">
<path fill="none" stroke="#63b8ff" d="M64.79,-163.38C56.36,-163.38 48.1,-163.38 41.09,-163.38"/>
<polygon fill="#63b8ff" stroke="#63b8ff" points="64.79,-166.88 74.79,-163.38 64.79,-159.88 64.79,-166.88"/>
</a>
</g>
</g>
<!-- Node10 -->
<g id="Node000010" class="node">
<title>Node10</title>
<g id="a_Node000010"><a xlink:href="../../df/dc9/exec_8c.html#a907dc4a5b8c29a03d23bdc87f41b5f1b" target="_top" xlink:title="Execute a command in full screen mode.">
<polygon fill="white" stroke="#666666" points="1468,-20.75 1345.5,-20.75 1345.5,0 1468,0 1468,-20.75"/>
<text xml:space="preserve" text-anchor="middle" x="1406.75" y="-7.25" font-family="Helvetica,sans-Serif" font-size="10.00">full_screen_fork_exec</text>
</a>
</g>
</g>
<!-- Node9&#45;&gt;Node10 -->
<g id="edge10_Node000009_Node000010" class="edge">
<title>Node9&#45;&gt;Node10</title>
<g id="a_edge10_Node000009_Node000010"><a xlink:title=" ">
<path fill="none" stroke="#63b8ff" d="M1713.79,-88.74C1686.04,-72.14 1640.63,-47.29 1598,-34.38 1555.78,-21.58 1506.3,-15.6 1468.39,-12.81"/>
<polygon fill="#63b8ff" stroke="#63b8ff" points="1711.86,-91.66 1722.22,-93.87 1715.5,-85.68 1711.86,-91.66"/>
</a>
</g>
</g>
<!-- Node11 -->
<g id="Node000011" class="node">
<title>Node11</title>
<g id="a_Node000011"><a xlink:href="../../df/dc9/exec_8c.html#a5c3ffccf49f08359334198f7fce3f9df" target="_top" xlink:title="Execute a shell command.">
<polygon fill="white" stroke="#666666" points="1673.25,-115.75 1634,-115.75 1634,-95 1673.25,-95 1673.25,-115.75"/>
<text xml:space="preserve" text-anchor="middle" x="1653.62" y="-102.25" font-family="Helvetica,sans-Serif" font-size="10.00">shell</text>
</a>
</g>
</g>
<!-- Node9&#45;&gt;Node11 -->
<g id="edge12_Node000009_Node000011" class="edge">
<title>Node9&#45;&gt;Node11</title>
<g id="a_edge12_Node000009_Node000011"><a xlink:title=" ">
<path fill="none" stroke="#63b8ff" d="M1697.51,-105.38C1689.1,-105.38 1680.69,-105.38 1673.57,-105.38"/>
<polygon fill="#63b8ff" stroke="#63b8ff" points="1697.34,-108.88 1707.34,-105.38 1697.34,-101.88 1697.34,-108.88"/>
</a>
</g>
</g>
<!-- Node10&#45;&gt;Node6 -->
<g id="edge11_Node000010_Node000006" class="edge">
<title>Node10&#45;&gt;Node6</title>
<g id="a_edge11_Node000010_Node000006"><a xlink:title=" ">
<path fill="none" stroke="#63b8ff" d="M1334.02,-10.38C1286.24,-10.38 1222.05,-10.38 1165.38,-10.38 1165.38,-10.38 1165.38,-10.38 482.75,-10.38 421.37,-10.38 404.19,-24.13 353.25,-58.38 313.44,-85.14 278.69,-131.64 264.2,-152.59"/>
<polygon fill="#63b8ff" stroke="#63b8ff" points="1333.98,-13.88 1343.98,-10.38 1333.98,-6.88 1333.98,-13.88"/>
</a>
</g>
</g>
<!-- Node12 -->
<g id="Node000012" class="node">
<title>Node12</title>
<g id="a_Node000012"><a xlink:href="../../d3/dee/form__engine_8c.html#ab2e6e35d9dba586838b91f54a6dd41a2" target="_top" xlink:title="Execute a provider command specified in the form description file, passing form field values as argum...">
<polygon fill="white" stroke="#666666" points="1598,-192.75 1504,-192.75 1504,-172 1598,-172 1598,-192.75"/>
<text xml:space="preserve" text-anchor="middle" x="1551" y="-179.25" font-family="Helvetica,sans-Serif" font-size="10.00">form_exec_cmd</text>
</a>
</g>
</g>
<!-- Node11&#45;&gt;Node12 -->
<g id="edge13_Node000011_Node000012" class="edge">
<title>Node11&#45;&gt;Node12</title>
<g id="a_edge13_Node000011_Node000012"><a xlink:title=" ">
<path fill="none" stroke="#63b8ff" d="M1629.5,-123.07C1609.97,-138.01 1582.64,-158.93 1566.2,-171.51"/>
<polygon fill="#63b8ff" stroke="#63b8ff" points="1631.62,-125.86 1637.43,-117 1627.36,-120.3 1631.62,-125.86"/>
</a>
</g>
</g>
<!-- Node16 -->
<g id="Node000016" class="node">
<title>Node16</title>
<g id="a_Node000016"><a xlink:href="../../d4/dc1/src_2view__engine_8c.html#a9c4b3ba5f73c18b486646c62b933972a" target="_top" xlink:title="Main Command Processing Loop for View.">
<polygon fill="white" stroke="#666666" points="1079.5,-116.75 961.5,-116.75 961.5,-96 1079.5,-96 1079.5,-116.75"/>
<text xml:space="preserve" text-anchor="middle" x="1020.5" y="-103.25" font-family="Helvetica,sans-Serif" font-size="10.00">view_cmd_processor</text>
</a>
</g>
</g>
<!-- Node11&#45;&gt;Node16 -->
<g id="edge37_Node000011_Node000016" class="edge">
<title>Node11&#45;&gt;Node16</title>
<g id="a_edge37_Node000011_Node000016"><a xlink:title=" ">
<path fill="none" stroke="#63b8ff" d="M1622.34,-101.51C1576.14,-95.95 1485.25,-86.38 1407.75,-86.38 1407.75,-86.38 1407.75,-86.38 1278.38,-86.38 1210.05,-86.38 1131.81,-93.5 1079.81,-99.24"/>
<polygon fill="#63b8ff" stroke="#63b8ff" points="1621.76,-104.96 1632.11,-102.71 1622.61,-98.01 1621.76,-104.96"/>
</a>
</g>
</g>
<!-- Node24 -->
<g id="Node000024" class="node">
<title>Node24</title>
<g id="a_Node000024"><a xlink:href="../../df/dc9/exec_8c.html#aeb3e7eb282467134ce50fde7d9ebd19d" target="_top" xlink:title="Execute a shell command in full screen mode.">
<polygon fill="white" stroke="#666666" points="1213.25,-58.75 1115.5,-58.75 1115.5,-38 1213.25,-38 1213.25,-58.75"/>
<text xml:space="preserve" text-anchor="middle" x="1164.38" y="-45.25" font-family="Helvetica,sans-Serif" font-size="10.00">full_screen_shell</text>
</a>
</g>
</g>
<!-- Node11&#45;&gt;Node24 -->
<g id="edge32_Node000011_Node000024" class="edge">
<title>Node11&#45;&gt;Node24</title>
<g id="a_edge32_Node000011_Node000024"><a xlink:title=" ">
<path fill="none" stroke="#63b8ff" d="M1629.83,-88.19C1620.46,-82.06 1609.2,-75.83 1598,-72.38 1463.59,-30.88 1294.7,-37.2 1213.43,-43.62"/>
<polygon fill="#63b8ff" stroke="#63b8ff" points="1627.7,-90.97 1637.92,-93.79 1631.69,-85.22 1627.7,-90.97"/>
</a>
</g>
</g>
<!-- Node25 -->
<g id="Node000025" class="node">
<title>Node25</title>
<g id="a_Node000025"><a xlink:href="../../d4/dc1/src_2view__engine_8c.html#a219efbc4d9d70ebc47fafa540b370247" target="_top" xlink:title="Send File to Print Queue.">
<polygon fill="white" stroke="#666666" points="1293.78,-134.75 1264.97,-134.75 1264.97,-114 1293.78,-114 1293.78,-134.75"/>
<text xml:space="preserve" text-anchor="middle" x="1279.38" y="-121.25" font-family="Helvetica,sans-Serif" font-size="10.00">lp</text>
</a>
</g>
</g>
<!-- Node11&#45;&gt;Node25 -->
<g id="edge35_Node000011_Node000025" class="edge">
<title>Node11&#45;&gt;Node25</title>
<g id="a_edge35_Node000011_Node000025"><a xlink:title=" ">
<path fill="none" stroke="#63b8ff" d="M1622.5,-106.91C1546.21,-110.81 1347.64,-120.94 1293.93,-123.68"/>
<polygon fill="#63b8ff" stroke="#63b8ff" points="1622.33,-110.43 1632.14,-106.42 1621.98,-103.43 1622.33,-110.43"/>
</a>
</g>
</g>
<!-- Node13 -->
<g id="Node000013" class="node">
<title>Node13</title>
<g id="a_Node000013"><a xlink:href="../../d3/dee/form__engine_8c.html#ada302551bf41bf8ed6132fd34328a47e" target="_top" xlink:title="Form main processing loop.">
<polygon fill="white" stroke="#666666" points="1445.5,-211.75 1368,-211.75 1368,-191 1445.5,-191 1445.5,-211.75"/>
<text xml:space="preserve" text-anchor="middle" x="1406.75" y="-198.25" font-family="Helvetica,sans-Serif" font-size="10.00">form_engine</text>
</a>
</g>
</g>
<!-- Node12&#45;&gt;Node13 -->
<g id="edge14_Node000012_Node000013" class="edge">
<title>Node12&#45;&gt;Node13</title>
<g id="a_edge14_Node000012_Node000013"><a xlink:title=" ">
<path fill="none" stroke="#63b8ff" d="M1492.53,-190.05C1476.74,-192.16 1460.01,-194.39 1445.63,-196.32"/>
<polygon fill="#63b8ff" stroke="#63b8ff" points="1492.87,-193.54 1502.32,-188.74 1491.94,-186.6 1492.87,-193.54"/>
</a>
</g>
</g>
<!-- Node14 -->
<g id="Node000014" class="node">
<title>Node14</title>
<g id="a_Node000014"><a xlink:href="../../d3/dee/form__engine_8c.html#abf1be20a8aad5f7ba09172ac1434a110" target="_top" xlink:title="Initialize form data structure and parse description file.">
<polygon fill="white" stroke="#666666" points="1309.5,-211.75 1249.25,-211.75 1249.25,-191 1309.5,-191 1309.5,-211.75"/>
<text xml:space="preserve" text-anchor="middle" x="1279.38" y="-198.25" font-family="Helvetica,sans-Serif" font-size="10.00">init_form</text>
</a>
</g>
</g>
<!-- Node13&#45;&gt;Node14 -->
<g id="edge15_Node000013_Node000014" class="edge">
<title>Node13&#45;&gt;Node14</title>
<g id="a_edge15_Node000013_Node000014"><a xlink:title=" ">
<path fill="none" stroke="#63b8ff" d="M1356.56,-201.38C1340.77,-201.38 1323.77,-201.38 1309.84,-201.38"/>
<polygon fill="#63b8ff" stroke="#63b8ff" points="1356.28,-204.88 1366.28,-201.38 1356.28,-197.88 1356.28,-204.88"/>
</a>
</g>
</g>
<!-- Node14&#45;&gt;Node6 -->
<g id="edge31_Node000014_Node000006" class="edge">
<title>Node14&#45;&gt;Node6</title>
<g id="a_edge31_Node000014_Node000006"><a xlink:title=" ">
<path fill="none" stroke="#63b8ff" d="M1237.78,-214.47C1229.72,-216.72 1221.27,-218.82 1213.25,-220.38 1129.17,-236.66 1107.14,-239.38 1021.5,-239.38 1021.5,-239.38 1021.5,-239.38 482.75,-239.38 401.9,-239.38 312.88,-195.05 275.32,-174.1"/>
<polygon fill="#63b8ff" stroke="#63b8ff" points="1238.76,-217.83 1247.38,-211.67 1236.8,-211.11 1238.76,-217.83"/>
</a>
</g>
</g>
<!-- Node15 -->
<g id="Node000015" class="node">
<title>Node15</title>
<g id="a_Node000015"><a xlink:href="../../d4/dc1/src_2view__engine_8c.html#a2ffea5674e85f124a70e19f745a66583" target="_top" xlink:title="use form to enter a file specification">
<polygon fill="white" stroke="#666666" points="1209.5,-211.75 1119.25,-211.75 1119.25,-191 1209.5,-191 1209.5,-211.75"/>
<text xml:space="preserve" text-anchor="middle" x="1164.38" y="-198.25" font-family="Helvetica,sans-Serif" font-size="10.00">enter_file_spec</text>
</a>
</g>
</g>
<!-- Node14&#45;&gt;Node15 -->
<g id="edge16_Node000014_Node000015" class="edge">
<title>Node14&#45;&gt;Node15</title>
<g id="a_edge16_Node000014_Node000015"><a xlink:title=" ">
<path fill="none" stroke="#63b8ff" d="M1237.6,-201.38C1228.63,-201.38 1219.08,-201.38 1209.97,-201.38"/>
<polygon fill="#63b8ff" stroke="#63b8ff" points="1237.47,-204.88 1247.47,-201.38 1237.47,-197.88 1237.47,-204.88"/>
</a>
</g>
</g>
<!-- Node23 -->
<g id="Node000023" class="node">
<title>Node23</title>
<g id="a_Node000023"><a xlink:href="../../d5/d97/form_8c.html#a3c04138a5bfe5d72780bb7e82a18e627" target="_top" xlink:title=" ">
<polygon fill="white" stroke="#666666" points="1184.75,-172.75 1144,-172.75 1144,-152 1184.75,-152 1184.75,-172.75"/>
<text xml:space="preserve" text-anchor="middle" x="1164.38" y="-159.25" font-family="Helvetica,sans-Serif" font-size="10.00">main</text>
</a>
</g>
</g>
<!-- Node14&#45;&gt;Node23 -->
<g id="edge30_Node000014_Node000023" class="edge">
<title>Node14&#45;&gt;Node23</title>
<g id="a_edge30_Node000014_Node000023"><a xlink:title=" ">
<path fill="none" stroke="#63b8ff" d="M1238.14,-187.49C1220.1,-181.26 1199.64,-174.2 1185.02,-169.16"/>
<polygon fill="#63b8ff" stroke="#63b8ff" points="1236.96,-190.78 1247.55,-190.74 1239.24,-184.17 1236.96,-190.78"/>
</a>
</g>
</g>
<!-- Node15&#45;&gt;Node16 -->
<g id="edge17_Node000015_Node000016" class="edge">
<title>Node15&#45;&gt;Node16</title>
<g id="a_edge17_Node000015_Node000016"><a xlink:title=" ">
<path fill="none" stroke="#63b8ff" d="M1123.64,-185.8C1120.84,-184.39 1118.1,-182.91 1115.5,-181.38 1083.16,-162.23 1049.83,-132.93 1032.89,-117.22"/>
<polygon fill="#63b8ff" stroke="#63b8ff" points="1121.97,-188.89 1132.51,-189.93 1124.92,-182.54 1121.97,-188.89"/>
</a>
</g>
</g>
<!-- Node17 -->
<g id="Node000017" class="node">
<title>Node17</title>
<g id="a_Node000017"><a xlink:href="../../d4/dc1/src_2view__engine_8c.html#a0bd4dc056ab5010547129bb87819789b" target="_top" xlink:title="Start view.">
<polygon fill="white" stroke="#666666" points="925.5,-135.75 865.25,-135.75 865.25,-115 925.5,-115 925.5,-135.75"/>
<text xml:space="preserve" text-anchor="middle" x="895.38" y="-122.25" font-family="Helvetica,sans-Serif" font-size="10.00">view_file</text>
</a>
</g>
</g>
<!-- Node16&#45;&gt;Node17 -->
<g id="edge18_Node000016_Node000017" class="edge">
<title>Node16&#45;&gt;Node17</title>
<g id="a_edge18_Node000016_Node000017"><a xlink:title=" ">
<path fill="none" stroke="#63b8ff" d="M949.94,-117.11C941.44,-118.42 933.14,-119.7 925.72,-120.85"/>
<polygon fill="#63b8ff" stroke="#63b8ff" points="950.34,-120.59 959.69,-115.61 949.27,-113.67 950.34,-120.59"/>
</a>
</g>
</g>
<!-- Node18 -->
<g id="Node000018" class="node">
<title>Node18</title>
<g id="a_Node000018"><a xlink:href="../../da/d97/view_8c.html#a3c04138a5bfe5d72780bb7e82a18e627" target="_top" xlink:title=" ">
<polygon fill="white" stroke="#666666" points="711.62,-135.75 670.88,-135.75 670.88,-115 711.62,-115 711.62,-135.75"/>
<text xml:space="preserve" text-anchor="middle" x="691.25" y="-122.25" font-family="Helvetica,sans-Serif" font-size="10.00">main</text>
</a>
</g>
</g>
<!-- Node17&#45;&gt;Node18 -->
<g id="edge19_Node000017_Node000018" class="edge">
<title>Node17&#45;&gt;Node18</title>
<g id="a_edge19_Node000017_Node000018"><a xlink:title=" ">
<path fill="none" stroke="#63b8ff" d="M853.5,-125.38C810.47,-125.38 744.53,-125.38 711.91,-125.38"/>
<polygon fill="#63b8ff" stroke="#63b8ff" points="853.47,-128.88 863.47,-125.38 853.47,-121.88 853.47,-128.88"/>
</a>
</g>
</g>
<!-- Node19 -->
<g id="Node000019" class="node">
<title>Node19</title>
<g id="a_Node000019"><a xlink:href="../../d2/d98/mview_8c.html#a75a4e7afc9c9aafd3d35ab706f5fdc71" target="_top" xlink:title="subprogram entry point for C&#45;Menu View">
<polygon fill="white" stroke="#666666" points="829.25,-173.75 780.25,-173.75 780.25,-153 829.25,-153 829.25,-173.75"/>
<text xml:space="preserve" text-anchor="middle" x="804.75" y="-160.25" font-family="Helvetica,sans-Serif" font-size="10.00">mview</text>
</a>
</g>
</g>
<!-- Node17&#45;&gt;Node19 -->
<g id="edge20_Node000017_Node000019" class="edge">
<title>Node17&#45;&gt;Node19</title>
<g id="a_edge20_Node000017_Node000019"><a xlink:title=" ">
<path fill="none" stroke="#63b8ff" d="M858.83,-140.62C848.95,-144.85 838.47,-149.35 829.45,-153.21"/>
<polygon fill="#63b8ff" stroke="#63b8ff" points="860.01,-143.92 867.82,-136.76 857.25,-137.48 860.01,-143.92"/>
</a>
</g>
</g>
<!-- Node19&#45;&gt;Node2 -->
<g id="edge24_Node000019_Node000002" class="edge">
<title>Node19&#45;&gt;Node2</title>
<g id="a_edge24_Node000019_Node000002"><a xlink:title=" ">
<path fill="none" stroke="#63b8ff" d="M785.63,-181.9C762.12,-205.93 721.89,-247.07 702.84,-266.55"/>
<polygon fill="#63b8ff" stroke="#63b8ff" points="787.91,-184.57 792.4,-174.98 782.91,-179.68 787.91,-184.57"/>
</a>
</g>
</g>
<!-- Node19&#45;&gt;Node6 -->
<g id="edge27_Node000019_Node000006" class="edge">
<title>Node19&#45;&gt;Node6</title>
<g id="a_edge27_Node000019_Node000006"><a xlink:title=" ">
<path fill="none" stroke="#63b8ff" d="M768.5,-163.38C724.52,-163.38 647.02,-163.38 580.62,-163.38 580.62,-163.38 580.62,-163.38 482.75,-163.38 426.7,-163.38 362.83,-163.38 317.36,-163.38"/>
<polygon fill="#63b8ff" stroke="#63b8ff" points="768.46,-166.88 778.46,-163.38 768.46,-159.88 768.46,-166.88"/>
</a>
</g>
</g>
<!-- Node19&#45;&gt;Node13 -->
<g id="edge25_Node000019_Node000013" class="edge">
<title>Node19&#45;&gt;Node13</title>
<g id="a_edge25_Node000019_Node000013"><a xlink:title=" ">
<path fill="none" stroke="#63b8ff" d="M824.59,-181.72C859.77,-213.96 939.2,-277.38 1019.5,-277.38 1165.38,-277.38 1165.38,-277.38 1165.38,-277.38 1250.94,-277.38 1346,-233.05 1386.16,-212.1"/>
<polygon fill="#63b8ff" stroke="#63b8ff" points="827.04,-179.22 817.35,-174.93 822.25,-184.33 827.04,-179.22"/>
</a>
</g>
</g>
<!-- Node19&#45;&gt;Node18 -->
<g id="edge26_Node000019_Node000018" class="edge">
<title>Node19&#45;&gt;Node18</title>
<g id="a_edge26_Node000019_Node000018"><a xlink:title=" ">
<path fill="none" stroke="#63b8ff" d="M769.02,-151.54C750.27,-145.15 727.8,-137.49 712.04,-132.12"/>
<polygon fill="#63b8ff" stroke="#63b8ff" points="767.8,-154.82 778.4,-154.73 770.06,-148.2 767.8,-154.82"/>
</a>
</g>
</g>
<!-- Node20 -->
<g id="Node000020" class="node">
<title>Node20</title>
<g id="a_Node000020"><a xlink:href="../../db/ddc/pick__engine_8c.html#aeebc4c0b94ca97d753e10a0cd1798730" target="_top" xlink:title="Displays the help screen for the pick interface using mview.">
<polygon fill="white" stroke="#666666" points="742.75,-211.75 639.75,-211.75 639.75,-191 742.75,-191 742.75,-211.75"/>
<text xml:space="preserve" text-anchor="middle" x="691.25" y="-198.25" font-family="Helvetica,sans-Serif" font-size="10.00">display_pick_help</text>
</a>
</g>
</g>
<!-- Node19&#45;&gt;Node20 -->
<g id="edge21_Node000019_Node000020" class="edge">
<title>Node19&#45;&gt;Node20</title>
<g id="a_edge21_Node000019_Node000020"><a xlink:title=" ">
<path fill="none" stroke="#63b8ff" d="M769.25,-175.13C754.72,-180.08 737.94,-185.8 723.75,-190.64"/>
<polygon fill="#63b8ff" stroke="#63b8ff" points="770.06,-178.55 778.4,-172.02 767.8,-171.93 770.06,-178.55"/>
</a>
</g>
</g>
<!-- Node22 -->
<g id="Node000022" class="node">
<title>Node22</title>
<g id="a_Node000022"><a xlink:href="../../d4/dc1/src_2view__engine_8c.html#ad997ba9f8591568c77291fb1b44601b2" target="_top" xlink:title="Display View Help File.">
<polygon fill="white" stroke="#666666" points="744.25,-96.75 638.25,-96.75 638.25,-76 744.25,-76 744.25,-96.75"/>
<text xml:space="preserve" text-anchor="middle" x="691.25" y="-83.25" font-family="Helvetica,sans-Serif" font-size="10.00">view_display_help</text>
</a>
</g>
</g>
<!-- Node19&#45;&gt;Node22 -->
<g id="edge28_Node000019_Node000022" class="edge">
<title>Node19&#45;&gt;Node22</title>
<g id="a_edge28_Node000019_Node000022"><a xlink:title=" ">
<path fill="none" stroke="#63b8ff" d="M787.48,-144.27C776.32,-132.12 760.61,-116.76 744.25,-106.38 738.7,-102.85 732.42,-99.79 726.21,-97.19"/>
<polygon fill="#63b8ff" stroke="#63b8ff" points="784.8,-146.53 794.06,-151.68 790.04,-141.88 784.8,-146.53"/>
</a>
</g>
</g>
<!-- Node21 -->
<g id="Node000021" class="node">
<title>Node21</title>
<g id="a_Node000021"><a xlink:href="../../db/ddc/pick__engine_8c.html#abb0969a6d1c7e78be46c3b325754c802" target="_top" xlink:title="Main loop to handle user input and interactions for pick interface.">
<polygon fill="white" stroke="#666666" points="602.25,-211.75 557,-211.75 557,-191 602.25,-191 602.25,-211.75"/>
<text xml:space="preserve" text-anchor="middle" x="579.62" y="-198.25" font-family="Helvetica,sans-Serif" font-size="10.00">picker</text>
</a>
</g>
</g>
<!-- Node20&#45;&gt;Node21 -->
<g id="edge22_Node000020_Node000021" class="edge">
<title>Node20&#45;&gt;Node21</title>
<g id="a_edge22_Node000020_Node000021"><a xlink:title=" ">
<path fill="none" stroke="#63b8ff" d="M627.83,-201.38C618.85,-201.38 610.14,-201.38 602.71,-201.38"/>
<polygon fill="#63b8ff" stroke="#63b8ff" points="627.78,-204.88 637.78,-201.38 627.78,-197.88 627.78,-204.88"/>
</a>
</g>
</g>
<!-- Node21&#45;&gt;Node3 -->
<g id="edge23_Node000021_Node000003" class="edge">
<title>Node21&#45;&gt;Node3</title>
<g id="a_edge23_Node000021_Node000003"><a xlink:title=" ">
<path fill="none" stroke="#63b8ff" d="M556.8,-219.05C538.6,-233.78 513.27,-254.29 497.99,-266.65"/>
<polygon fill="#63b8ff" stroke="#63b8ff" points="558.83,-221.91 564.4,-212.89 554.42,-216.47 558.83,-221.91"/>
</a>
</g>
</g>
<!-- Node22&#45;&gt;Node16 -->
<g id="edge29_Node000022_Node000016" class="edge">
<title>Node22&#45;&gt;Node16</title>
<g id="a_edge29_Node000022_Node000016"><a xlink:title=" ">
<path fill="none" stroke="#63b8ff" d="M755.85,-90.26C815.41,-93.9 903.65,-99.3 961.37,-102.82"/>
<polygon fill="#63b8ff" stroke="#63b8ff" points="756.41,-86.79 746.22,-89.67 755.98,-93.78 756.41,-86.79"/>
</a>
</g>
</g>
<!-- Node24&#45;&gt;Node6 -->
<g id="edge33_Node000024_Node000006" class="edge">
<title>Node24&#45;&gt;Node6</title>
<g id="a_edge33_Node000024_Node000006"><a xlink:title=" ">
<path fill="none" stroke="#63b8ff" d="M1103.69,-48.38C1049.58,-48.38 967.63,-48.38 896.38,-48.38 896.38,-48.38 896.38,-48.38 482.75,-48.38 391.26,-48.38 299.41,-124.29 268.18,-152.76"/>
<polygon fill="#63b8ff" stroke="#63b8ff" points="1103.63,-51.88 1113.63,-48.38 1103.63,-44.88 1103.63,-51.88"/>
</a>
</g>
</g>
<!-- Node24&#45;&gt;Node16 -->
<g id="edge34_Node000024_Node000016" class="edge">
<title>Node24&#45;&gt;Node16</title>
<g id="a_edge34_Node000024_Node000016"><a xlink:title=" ">
<path fill="none" stroke="#63b8ff" d="M1126.58,-63.42C1101.86,-73.52 1069.87,-86.6 1047.71,-95.66"/>
<polygon fill="#63b8ff" stroke="#63b8ff" points="1127.69,-66.75 1135.62,-59.72 1125.04,-60.27 1127.69,-66.75"/>
</a>
</g>
</g>
<!-- Node25&#45;&gt;Node16 -->
<g id="edge36_Node000025_Node000016" class="edge">
<title>Node25&#45;&gt;Node16</title>
<g id="a_edge36_Node000025_Node000016"><a xlink:title=" ">
<path fill="none" stroke="#63b8ff" d="M1253.29,-122.62C1213.4,-119.82 1134.47,-114.29 1079.87,-110.47"/>
<polygon fill="#63b8ff" stroke="#63b8ff" points="1252.83,-126.09 1263.05,-123.3 1253.32,-119.11 1252.83,-126.09"/>
</a>
</g>
</g>
</g>
</svg>
