<?xml version="1.0" encoding="UTF-8" standalone="no"?>
<!DOCTYPE svg PUBLIC "-//W3C//DTD SVG 1.1//EN"
 "http://www.w3.org/Graphics/SVG/1.1/DTD/svg11.dtd">
<!-- Generated by graphviz version 14.1.2 (0)
 -->
<!-- Title: free_string Pages: 1 -->
<svg width="281pt" height="68pt"
 viewBox="0.00 0.00 281.00 68.00" xmlns="http://www.w3.org/2000/svg" xmlns:xlink="http://www.w3.org/1999/xlink">
<g id="graph0" class="graph" transform="scale(1 1) rotate(0) translate(4 63.75)">
<title>free_string</title>
<!-- Node1 -->
<g id="Node000001" class="node">
<title>Node1</title>
<g id="a_Node000001"><a xlink:title="Free the dynamically allocated String.">
<polygon fill="#999999" stroke="#666666" points="273,-39.75 204.5,-39.75 204.5,-19 273,-19 273,-39.75"/>
<text xml:space="preserve" text-anchor="middle" x="238.75" y="-26.25" font-family="Helvetica,sans-Serif" font-size="10.00">free_string</text>
</a>
</g>
</g>
<!-- Node2 -->
<g id="Node000002" class="node">
<title>Node2</title>
<g id="a_Node000002"><a xlink:href="../../dc/d9b/rfc3339_8c.html#ac96813c7b1b36ba9b138d537fa4c6310" target="_top" xlink:title=" ">
<polygon fill="white" stroke="#666666" points="168.5,-59.75 76.75,-59.75 76.75,-39 168.5,-39 168.5,-59.75"/>
<text xml:space="preserve" text-anchor="middle" x="122.62" y="-46.25" font-family="Helvetica,sans-Serif" font-size="10.00">get_rfc3339_str</text>
</a>
</g>
</g>
<!-- Node1&#45;&gt;Node2 -->
<g id="edge1_Node000001_Node000002" class="edge">
<title>Node1&#45;&gt;Node2</title>
<g id="a_edge1_Node000001_Node000002"><a xlink:title=" ">
<path fill="none" stroke="#63b8ff" d="M192.87,-37.24C184.98,-38.62 176.76,-40.06 168.85,-41.45"/>
<polygon fill="#63b8ff" stroke="#63b8ff" points="193.39,-40.7 202.64,-35.53 192.18,-33.81 193.39,-40.7"/>
</a>
</g>
</g>
<!-- Node4 -->
<g id="Node000004" class="node">
<title>Node4</title>
<g id="a_Node000004"><a xlink:href="../../d2/d62/strings__test1_8c.html#ae66f6b31b5ad750f1fe042a706a4e3d4" target="_top" xlink:title=" ">
<polygon fill="white" stroke="#666666" points="143,-20.75 102.25,-20.75 102.25,0 143,0 143,-20.75"/>
<text xml:space="preserve" text-anchor="middle" x="122.62" y="-7.25" font-family="Helvetica,sans-Serif" font-size="10.00">main</text>
</a>
</g>
</g>
<!-- Node1&#45;&gt;Node4 -->
<g id="edge3_Node000001_Node000004" class="edge">
<title>Node1&#45;&gt;Node4</title>
<g id="a_edge3_Node000001_Node000004"><a xlink:title=" ">
<path fill="none" stroke="#63b8ff" d="M193.12,-21.95C175.93,-19.08 157.15,-15.96 143.46,-13.68"/>
<polygon fill="#63b8ff" stroke="#63b8ff" points="192.19,-25.34 202.63,-23.53 193.34,-18.43 192.19,-25.34"/>
</a>
</g>
</g>
<!-- Node3 -->
<g id="Node000003" class="node">
<title>Node3</title>
<g id="a_Node000003"><a xlink:href="../../dc/d9b/rfc3339_8c.html#ae66f6b31b5ad750f1fe042a706a4e3d4" target="_top" xlink:title=" ">
<polygon fill="white" stroke="#666666" points="40.75,-59.75 0,-59.75 0,-39 40.75,-39 40.75,-59.75"/>
<text xml:space="preserve" text-anchor="middle" x="20.38" y="-46.25" font-family="Helvetica,sans-Serif" font-size="10.00">main</text>
</a>
</g>
</g>
<!-- Node2&#45;&gt;Node3 -->
<g id="edge2_Node000002_Node000003" class="edge">
<title>Node2&#45;&gt;Node3</title>
<g id="a_edge2_Node000002_Node000003"><a xlink:title=" ">
<path fill="none" stroke="#63b8ff" d="M65.15,-49.38C56.58,-49.38 48.25,-49.38 41.2,-49.38"/>
<polygon fill="#63b8ff" stroke="#63b8ff" points="64.97,-52.88 74.97,-49.38 64.97,-45.88 64.97,-52.88"/>
</a>
</g>
</g>
</g>
</svg>
