<?xml version="1.0" encoding="UTF-8" standalone="no"?>
<!DOCTYPE svg PUBLIC "-//W3C//DTD SVG 1.1//EN"
 "http://www.w3.org/Graphics/SVG/1.1/DTD/svg11.dtd">
<!-- Generated by graphviz version 14.1.2 (0)
 -->
<!-- Title: src/menu_engine.c Pages: 1 -->
<svg width="440pt" height="86pt"
 viewBox="0.00 0.00 440.00 86.00" xmlns="http://www.w3.org/2000/svg" xmlns:xlink="http://www.w3.org/1999/xlink">
<g id="graph0" class="graph" transform="scale(1 1) rotate(0) translate(4 81.5)">
<title>src/menu_engine.c</title>
<!-- Node1 -->
<g id="Node000001" class="node">
<title>Node1</title>
<g id="a_Node000001"><a xlink:title="The working part of C&#45;Menu Menu.">
<polygon fill="#999999" stroke="#666666" points="270.62,-77.5 163.12,-77.5 163.12,-56.75 270.62,-56.75 270.62,-77.5"/>
<text xml:space="preserve" text-anchor="middle" x="216.88" y="-64" font-family="Helvetica,sans-Serif" font-size="10.00">src/menu_engine.c</text>
</a>
</g>
</g>
<!-- Node2 -->
<g id="Node000002" class="node">
<title>Node2</title>
<g id="a_Node000002"><a xlink:title=" ">
<polygon fill="#e0e0e0" stroke="#999999" points="67.75,-20.75 0,-20.75 0,0 67.75,0 67.75,-20.75"/>
<text xml:space="preserve" text-anchor="middle" x="33.88" y="-7.25" font-family="Helvetica,sans-Serif" font-size="10.00">common.h</text>
</a>
</g>
</g>
<!-- Node1&#45;&gt;Node2 -->
<g id="edge1_Node000001_Node000002" class="edge">
<title>Node1&#45;&gt;Node2</title>
<g id="a_edge1_Node000001_Node000002"><a xlink:title=" ">
<path fill="none" stroke="#63b8ff" d="M184.16,-56.34C154.32,-47.41 110.03,-34.16 77.25,-24.35"/>
<polygon fill="#63b8ff" stroke="#63b8ff" points="78.65,-21.12 68.07,-21.6 76.64,-27.82 78.65,-21.12"/>
</a>
</g>
</g>
<!-- Node3 -->
<g id="Node000003" class="node">
<title>Node3</title>
<g id="a_Node000003"><a xlink:title=" ">
<polygon fill="#e0e0e0" stroke="#999999" points="137.88,-20.75 85.88,-20.75 85.88,0 137.88,0 137.88,-20.75"/>
<text xml:space="preserve" text-anchor="middle" x="111.88" y="-7.25" font-family="Helvetica,sans-Serif" font-size="10.00">ctype.h</text>
</a>
</g>
</g>
<!-- Node1&#45;&gt;Node3 -->
<g id="edge2_Node000001_Node000003" class="edge">
<title>Node1&#45;&gt;Node3</title>
<g id="a_edge2_Node000001_Node000003"><a xlink:title=" ">
<path fill="none" stroke="#63b8ff" d="M198.1,-56.34C182.13,-48.01 158.92,-35.91 140.61,-26.36"/>
<polygon fill="#63b8ff" stroke="#63b8ff" points="142.31,-23.3 131.83,-21.78 139.08,-29.51 142.31,-23.3"/>
</a>
</g>
</g>
<!-- Node4 -->
<g id="Node000004" class="node">
<title>Node4</title>
<g id="a_Node000004"><a xlink:title=" ">
<polygon fill="#e0e0e0" stroke="#999999" points="207.88,-20.75 155.88,-20.75 155.88,0 207.88,0 207.88,-20.75"/>
<text xml:space="preserve" text-anchor="middle" x="181.88" y="-7.25" font-family="Helvetica,sans-Serif" font-size="10.00">stdlib.h</text>
</a>
</g>
</g>
<!-- Node1&#45;&gt;Node4 -->
<g id="edge3_Node000001_Node000004" class="edge">
<title>Node1&#45;&gt;Node4</title>
<g id="a_edge3_Node000001_Node000004"><a xlink:title=" ">
<path fill="none" stroke="#63b8ff" d="M210.62,-56.34C206.04,-49.17 199.68,-39.23 194.11,-30.51"/>
<polygon fill="#63b8ff" stroke="#63b8ff" points="197.23,-28.89 188.89,-22.35 191.33,-32.66 197.23,-28.89"/>
</a>
</g>
</g>
<!-- Node5 -->
<g id="Node000005" class="node">
<title>Node5</title>
<g id="a_Node000005"><a xlink:title=" ">
<polygon fill="#e0e0e0" stroke="#999999" points="278.25,-20.75 225.5,-20.75 225.5,0 278.25,0 278.25,-20.75"/>
<text xml:space="preserve" text-anchor="middle" x="251.88" y="-7.25" font-family="Helvetica,sans-Serif" font-size="10.00">string.h</text>
</a>
</g>
</g>
<!-- Node1&#45;&gt;Node5 -->
<g id="edge4_Node000001_Node000005" class="edge">
<title>Node1&#45;&gt;Node5</title>
<g id="a_edge4_Node000001_Node000005"><a xlink:title=" ">
<path fill="none" stroke="#63b8ff" d="M223.13,-56.34C227.71,-49.17 234.07,-39.23 239.64,-30.51"/>
<polygon fill="#63b8ff" stroke="#63b8ff" points="242.42,-32.66 244.86,-22.35 236.52,-28.89 242.42,-32.66"/>
</a>
</g>
</g>
<!-- Node6 -->
<g id="Node000006" class="node">
<title>Node6</title>
<g id="a_Node000006"><a xlink:title=" ">
<polygon fill="#e0e0e0" stroke="#999999" points="359.12,-20.75 296.62,-20.75 296.62,0 359.12,0 359.12,-20.75"/>
<text xml:space="preserve" text-anchor="middle" x="327.88" y="-7.25" font-family="Helvetica,sans-Serif" font-size="10.00">termios.h</text>
</a>
</g>
</g>
<!-- Node1&#45;&gt;Node6 -->
<g id="edge5_Node000001_Node000006" class="edge">
<title>Node1&#45;&gt;Node6</title>
<g id="a_edge5_Node000001_Node000006"><a xlink:title=" ">
<path fill="none" stroke="#63b8ff" d="M236.72,-56.34C253.77,-47.93 278.6,-35.68 298.04,-26.09"/>
<polygon fill="#63b8ff" stroke="#63b8ff" points="299.42,-29.31 306.84,-21.75 296.33,-23.03 299.42,-29.31"/>
</a>
</g>
</g>
<!-- Node7 -->
<g id="Node000007" class="node">
<title>Node7</title>
<g id="a_Node000007"><a xlink:title=" ">
<polygon fill="#e0e0e0" stroke="#999999" points="432.38,-20.75 377.38,-20.75 377.38,0 432.38,0 432.38,-20.75"/>
<text xml:space="preserve" text-anchor="middle" x="404.88" y="-7.25" font-family="Helvetica,sans-Serif" font-size="10.00">unistd.h</text>
</a>
</g>
</g>
<!-- Node1&#45;&gt;Node7 -->
<g id="edge6_Node000001_Node000007" class="edge">
<title>Node1&#45;&gt;Node7</title>
<g id="a_edge6_Node000001_Node000007"><a xlink:title=" ">
<path fill="none" stroke="#63b8ff" d="M250.49,-56.34C282.94,-46.89 332.04,-32.59 366.13,-22.66"/>
<polygon fill="#63b8ff" stroke="#63b8ff" points="366.99,-26.05 375.61,-19.9 365.03,-19.33 366.99,-26.05"/>
</a>
</g>
</g>
</g>
</svg>
