<?xml version="1.0" encoding="UTF-8" standalone="no"?>
<!DOCTYPE svg PUBLIC "-//W3C//DTD SVG 1.1//EN"
 "http://www.w3.org/Graphics/SVG/1.1/DTD/svg11.dtd">
<!-- Generated by graphviz version 14.1.2 (0)
 -->
<!-- Title: form_validate_field Pages: 1 -->
<svg width="926pt" height="540pt"
 viewBox="0.00 0.00 926.00 540.00" xmlns="http://www.w3.org/2000/svg" xmlns:xlink="http://www.w3.org/1999/xlink">
<g id="graph0" class="graph" transform="scale(1 1) rotate(0) translate(4 535.63)">
<title>form_validate_field</title>
<!-- Node1 -->
<g id="Node000001" class="node">
<title>Node1</title>
<g id="a_Node000001"><a xlink:title="Validate current field based on flags.">
<polygon fill="#999999" stroke="#666666" points="111.25,-354.11 0,-354.11 0,-333.36 111.25,-333.36 111.25,-354.11"/>
<text xml:space="preserve" text-anchor="middle" x="55.62" y="-340.61" font-family="Helvetica,sans-Serif" font-size="10.00">form_validate_field</text>
</a>
</g>
</g>
<!-- Node2 -->
<g id="Node000002" class="node">
<title>Node2</title>
<g id="a_Node000002"><a xlink:href="../../dc/d40/dwin_8c.html#a61b4f28456257f68ed042bed7f187efd" target="_top" xlink:title="Display a simple error message window or print to stderr.">
<polygon fill="white" stroke="#666666" points="192.5,-354.11 147.25,-354.11 147.25,-333.36 192.5,-333.36 192.5,-354.11"/>
<text xml:space="preserve" text-anchor="middle" x="169.88" y="-340.61" font-family="Helvetica,sans-Serif" font-size="10.00">Perror</text>
</a>
</g>
</g>
<!-- Node1&#45;&gt;Node2 -->
<g id="edge1_Node000001_Node000002" class="edge">
<title>Node1&#45;&gt;Node2</title>
<g id="a_edge1_Node000001_Node000002"><a xlink:title=" ">
<path fill="none" stroke="#63b8ff" d="M111.43,-343.73C119.69,-343.73 127.98,-343.73 135.6,-343.73"/>
<polygon fill="#63b8ff" stroke="#63b8ff" points="135.39,-347.23 145.39,-343.73 135.39,-340.23 135.39,-347.23"/>
</a>
</g>
</g>
<!-- Node3 -->
<g id="Node000003" class="node">
<title>Node3</title>
<g id="a_Node000003"><a xlink:href="../../dc/d40/dwin_8c.html#a8f6c45ca4a7f6a41c4c88314e697565a" target="_top" xlink:title="Abnormal program termination.">
<polygon fill="white" stroke="#666666" points="636.38,-392.11 590.38,-392.11 590.38,-371.36 636.38,-371.36 636.38,-392.11"/>
<text xml:space="preserve" text-anchor="middle" x="613.38" y="-378.61" font-family="Helvetica,sans-Serif" font-size="10.00">abend</text>
</a>
</g>
</g>
<!-- Node2&#45;&gt;Node3 -->
<g id="edge2_Node000002_Node000003" class="edge">
<title>Node2&#45;&gt;Node3</title>
<g id="a_edge2_Node000002_Node000003"><a xlink:title=" ">
<path fill="none" stroke="#63b8ff" d="M177.79,-354.25C187.5,-368.22 206.48,-392.75 228.5,-406.73 313.96,-461 349.42,-449.78 450.25,-458.73 491.53,-462.4 505.67,-475.65 543.5,-458.73 569.21,-447.23 589.3,-420.87 600.98,-402.2"/>
<polygon fill="#63b8ff" stroke="#63b8ff" points="603.87,-404.2 605.96,-393.82 597.85,-400.63 603.87,-404.2"/>
</a>
</g>
</g>
<!-- Node7 -->
<g id="Node000007" class="node">
<title>Node7</title>
<g id="a_Node000007"><a xlink:href="../../dc/d40/dwin_8c.html#a645871e46277e31736bc36d0f3dce4bd" target="_top" xlink:title="construct the chyron string from the chyron structure">
<polygon fill="white" stroke="#666666" points="543.5,-526.11 450.25,-526.11 450.25,-505.36 543.5,-505.36 543.5,-526.11"/>
<text xml:space="preserve" text-anchor="middle" x="496.88" y="-512.61" font-family="Helvetica,sans-Serif" font-size="10.00">compile_chyron</text>
</a>
</g>
</g>
<!-- Node2&#45;&gt;Node7 -->
<g id="edge8_Node000002_Node000007" class="edge">
<title>Node2&#45;&gt;Node7</title>
<g id="a_edge8_Node000002_Node000007"><a xlink:title=" ">
<path fill="none" stroke="#63b8ff" d="M171.41,-354.56C173.45,-382.57 183.09,-457.61 228.5,-491.73 288.84,-537.08 379.84,-534.66 438.56,-526.76"/>
<polygon fill="#63b8ff" stroke="#63b8ff" points="438.97,-530.24 448.36,-525.33 437.96,-523.31 438.97,-530.24"/>
</a>
</g>
</g>
<!-- Node9 -->
<g id="Node000009" class="node">
<title>Node9</title>
<g id="a_Node000009"><a xlink:href="../../dc/d40/dwin_8c.html#a3f3feb40fd703913c5c136331f627c91" target="_top" xlink:title="Destroy Chyron structure.">
<polygon fill="white" stroke="#666666" points="542.38,-411.11 451.38,-411.11 451.38,-390.36 542.38,-390.36 542.38,-411.11"/>
<text xml:space="preserve" text-anchor="middle" x="496.88" y="-397.61" font-family="Helvetica,sans-Serif" font-size="10.00">destroy_chyron</text>
</a>
</g>
</g>
<!-- Node2&#45;&gt;Node9 -->
<g id="edge10_Node000002_Node000009" class="edge">
<title>Node2&#45;&gt;Node9</title>
<g id="a_edge10_Node000002_Node000009"><a xlink:title=" ">
<path fill="none" stroke="#63b8ff" d="M192.78,-351.97C203.43,-355.72 216.5,-359.93 228.5,-362.73 300.53,-379.59 385.33,-390.1 439.81,-395.69"/>
<polygon fill="#63b8ff" stroke="#63b8ff" points="439.15,-399.14 449.45,-396.65 439.85,-392.17 439.15,-399.14"/>
</a>
</g>
</g>
<!-- Node10 -->
<g id="Node000010" class="node">
<title>Node10</title>
<g id="a_Node000010"><a xlink:href="../../dc/d40/dwin_8c.html#ad37d5808ff30ae6894780425d865abae" target="_top" xlink:title="Create and initialize Chyron structure.">
<polygon fill="white" stroke="#666666" points="534.12,-450.11 459.62,-450.11 459.62,-429.36 534.12,-429.36 534.12,-450.11"/>
<text xml:space="preserve" text-anchor="middle" x="496.88" y="-436.61" font-family="Helvetica,sans-Serif" font-size="10.00">new_chyron</text>
</a>
</g>
</g>
<!-- Node2&#45;&gt;Node10 -->
<g id="edge11_Node000002_Node000010" class="edge">
<title>Node2&#45;&gt;Node10</title>
<g id="a_edge11_Node000002_Node000010"><a xlink:title=" ">
<path fill="none" stroke="#63b8ff" d="M183.76,-354.61C194.91,-363.47 211.83,-375.64 228.5,-382.73 301.68,-413.89 393.63,-428.68 448.41,-435.18"/>
<polygon fill="#63b8ff" stroke="#63b8ff" points="447.68,-438.62 458.01,-436.28 448.47,-431.67 447.68,-438.62"/>
</a>
</g>
</g>
<!-- Node11 -->
<g id="Node000011" class="node">
<title>Node11</title>
<g id="a_Node000011"><a xlink:href="../../dc/d40/dwin_8c.html#a208ce92c197fdd6d2b007987e534aa3b" target="_top" xlink:title="Set chyron key.">
<polygon fill="white" stroke="#666666" points="542.75,-220.11 451,-220.11 451,-199.36 542.75,-199.36 542.75,-220.11"/>
<text xml:space="preserve" text-anchor="middle" x="496.88" y="-206.61" font-family="Helvetica,sans-Serif" font-size="10.00">set_chyron_key</text>
</a>
</g>
</g>
<!-- Node2&#45;&gt;Node11 -->
<g id="edge13_Node000002_Node000011" class="edge">
<title>Node2&#45;&gt;Node11</title>
<g id="a_edge13_Node000002_Node000011"><a xlink:title=" ">
<path fill="none" stroke="#63b8ff" d="M185.57,-332.94C196.94,-324.86 213.27,-313.85 228.5,-305.73 299.36,-267.98 388.21,-239.42 443.53,-223.63"/>
<polygon fill="#63b8ff" stroke="#63b8ff" points="444.33,-227.04 453.01,-220.96 442.43,-220.3 444.33,-227.04"/>
</a>
</g>
</g>
<!-- Node12 -->
<g id="Node000012" class="node">
<title>Node12</title>
<g id="a_Node000012"><a xlink:href="../../d0/d59/futil_8c.html#a63eb94756fb011a456a3dec900709cd8" target="_top" xlink:title="ssnprintf was designed to be a safer alternative to snprintf.">
<polygon fill="white" stroke="#666666" points="642.75,-210.11 584,-210.11 584,-189.36 642.75,-189.36 642.75,-210.11"/>
<text xml:space="preserve" text-anchor="middle" x="613.38" y="-196.61" font-family="Helvetica,sans-Serif" font-size="10.00">ssnprintf</text>
</a>
</g>
</g>
<!-- Node2&#45;&gt;Node12 -->
<g id="edge15_Node000002_Node000012" class="edge">
<title>Node2&#45;&gt;Node12</title>
<g id="a_edge15_Node000002_Node000012"><a xlink:title=" ">
<path fill="none" stroke="#63b8ff" d="M177.97,-332.9C187.89,-318.41 207.11,-292.59 228.5,-275.73 311.41,-210.41 345.79,-205.86 450.25,-190.73 491.68,-184.74 539.59,-188.72 572.53,-193.13"/>
<polygon fill="#63b8ff" stroke="#63b8ff" points="571.63,-196.54 582.02,-194.48 572.62,-189.61 571.63,-196.54"/>
</a>
</g>
</g>
<!-- Node13 -->
<g id="Node000013" class="node">
<title>Node13</title>
<g id="a_Node000013"><a xlink:href="../../d0/d59/futil_8c.html#a0de2e40df9bd7efc8fd9afb8ad2257e6" target="_top" xlink:title="safer alternative to strncpy">
<polygon fill="white" stroke="#666666" points="647.25,-97.11 579.5,-97.11 579.5,-76.36 647.25,-76.36 647.25,-97.11"/>
<text xml:space="preserve" text-anchor="middle" x="613.38" y="-83.61" font-family="Helvetica,sans-Serif" font-size="10.00">strnz__cpy</text>
</a>
</g>
</g>
<!-- Node2&#45;&gt;Node13 -->
<g id="edge16_Node000002_Node000013" class="edge">
<title>Node2&#45;&gt;Node13</title>
<g id="a_edge16_Node000002_Node000013"><a xlink:title=" ">
<path fill="none" stroke="#63b8ff" d="M174.49,-332.93C181.96,-311.82 200.73,-264.41 228.5,-232.73 307.77,-142.32 335.56,-113.85 450.25,-77.73 488.73,-65.62 534.86,-69.86 568.06,-75.96"/>
<polygon fill="#63b8ff" stroke="#63b8ff" points="567.25,-79.37 577.74,-77.88 568.61,-72.5 567.25,-79.37"/>
</a>
</g>
</g>
<!-- Node14 -->
<g id="Node000014" class="node">
<title>Node14</title>
<g id="a_Node000014"><a xlink:href="../../dc/d40/dwin_8c.html#a9dd598e1d49c8764af1eec42c682623e" target="_top" xlink:title="Delete the current window and its associated box window.">
<polygon fill="white" stroke="#666666" points="523.62,-372.11 470.12,-372.11 470.12,-351.36 523.62,-351.36 523.62,-372.11"/>
<text xml:space="preserve" text-anchor="middle" x="496.88" y="-358.61" font-family="Helvetica,sans-Serif" font-size="10.00">win_del</text>
</a>
</g>
</g>
<!-- Node2&#45;&gt;Node14 -->
<g id="edge17_Node000002_Node000014" class="edge">
<title>Node2&#45;&gt;Node14</title>
<g id="a_edge17_Node000002_Node000014"><a xlink:title=" ">
<path fill="none" stroke="#63b8ff" d="M192.96,-344.96C247.68,-347.99 390.04,-355.87 458.3,-359.65"/>
<polygon fill="#63b8ff" stroke="#63b8ff" points="458.07,-363.15 468.25,-360.2 458.46,-356.16 458.07,-363.15"/>
</a>
</g>
</g>
<!-- Node15 -->
<g id="Node000015" class="node">
<title>Node15</title>
<g id="a_Node000015"><a xlink:href="../../dc/d40/dwin_8c.html#a435c7bff7ffedb8f51c6de9259e36f6c" target="_top" xlink:title="Create a new window with optional box and title.">
<polygon fill="white" stroke="#666666" points="526.25,-30.11 467.5,-30.11 467.5,-9.36 526.25,-9.36 526.25,-30.11"/>
<text xml:space="preserve" text-anchor="middle" x="496.88" y="-16.61" font-family="Helvetica,sans-Serif" font-size="10.00">win_new</text>
</a>
</g>
</g>
<!-- Node2&#45;&gt;Node15 -->
<g id="edge18_Node000002_Node000015" class="edge">
<title>Node2&#45;&gt;Node15</title>
<g id="a_edge18_Node000002_Node000015"><a xlink:title=" ">
<path fill="none" stroke="#63b8ff" d="M171.27,-333.04C173.32,-284.28 184.35,-83.67 228.5,-43.73 290.91,12.71 398.29,1.47 456.16,-10.05"/>
<polygon fill="#63b8ff" stroke="#63b8ff" points="455.4,-13.47 465.91,-12.1 456.84,-6.62 455.4,-13.47"/>
</a>
</g>
</g>
<!-- Node17 -->
<g id="Node000017" class="node">
<title>Node17</title>
<g id="a_Node000017"><a xlink:href="../../dc/d40/dwin_8c.html#acf4c709bccc4c965a5d61db978db31a3" target="_top" xlink:title="Wrapper for wgetch that handles signals and mouse events.">
<polygon fill="white" stroke="#666666" points="285.75,-335.11 228.5,-335.11 228.5,-314.36 285.75,-314.36 285.75,-335.11"/>
<text xml:space="preserve" text-anchor="middle" x="257.12" y="-321.61" font-family="Helvetica,sans-Serif" font-size="10.00">xwgetch</text>
</a>
</g>
</g>
<!-- Node2&#45;&gt;Node17 -->
<g id="edge21_Node000002_Node000017" class="edge">
<title>Node2&#45;&gt;Node17</title>
<g id="a_edge21_Node000002_Node000017"><a xlink:title=" ">
<path fill="none" stroke="#63b8ff" d="M192.83,-338.84C200.22,-337.19 208.71,-335.3 217.02,-333.45"/>
<polygon fill="#63b8ff" stroke="#63b8ff" points="217.64,-336.9 226.64,-331.3 216.12,-330.06 217.64,-336.9"/>
</a>
</g>
</g>
<!-- Node4 -->
<g id="Node000004" class="node">
<title>Node4</title>
<g id="a_Node000004"><a xlink:href="../../dc/d40/dwin_8c.html#afc0985a403e3eac0b2cd8f0fab500256" target="_top" xlink:title="Gracefully shut down NCurses and restore terminal settings.">
<polygon fill="white" stroke="#666666" points="772.75,-373.11 683.25,-373.11 683.25,-352.36 772.75,-352.36 772.75,-373.11"/>
<text xml:space="preserve" text-anchor="middle" x="728" y="-359.61" font-family="Helvetica,sans-Serif" font-size="10.00">destroy_curses</text>
</a>
</g>
</g>
<!-- Node3&#45;&gt;Node4 -->
<g id="edge3_Node000003_Node000004" class="edge">
<title>Node3&#45;&gt;Node4</title>
<g id="a_edge3_Node000003_Node000004"><a xlink:title=" ">
<path fill="none" stroke="#63b8ff" d="M636.63,-377.98C646.74,-376.27 659.19,-374.17 671.59,-372.08"/>
<polygon fill="#63b8ff" stroke="#63b8ff" points="672.12,-375.54 681.4,-370.43 670.96,-368.64 672.12,-375.54"/>
</a>
</g>
</g>
<!-- Node5 -->
<g id="Node000005" class="node">
<title>Node5</title>
<g id="a_Node000005"><a xlink:href="../../d7/d72/scriou_8c.html#ac5e3adb304b78910fc77761ef6a743f0" target="_top" xlink:title="restore_shell_tioctl() &#45; restore shell terminal settings">
<polygon fill="white" stroke="#666666" points="917.75,-335.11 808.75,-335.11 808.75,-314.36 917.75,-314.36 917.75,-335.11"/>
<text xml:space="preserve" text-anchor="middle" x="863.25" y="-321.61" font-family="Helvetica,sans-Serif" font-size="10.00">restore_shell_tioctl</text>
</a>
</g>
</g>
<!-- Node3&#45;&gt;Node5 -->
<g id="edge6_Node000003_Node000005" class="edge">
<title>Node3&#45;&gt;Node5</title>
<g id="a_edge6_Node000003_Node000005"><a xlink:title=" ">
<path fill="none" stroke="#63b8ff" d="M629.7,-370.92C643.15,-362.03 663.58,-349.93 683.25,-343.73 719.81,-332.23 762.42,-327.38 796.89,-325.46"/>
<polygon fill="#63b8ff" stroke="#63b8ff" points="796.92,-328.96 806.74,-324.99 796.58,-321.97 796.92,-328.96"/>
</a>
</g>
</g>
<!-- Node6 -->
<g id="Node000006" class="node">
<title>Node6</title>
<g id="a_Node000006"><a xlink:href="../../da/d12/sig_8c.html#a06c1eb6cf3649dc187115565409f91af" target="_top" xlink:title="Set signal handlers to default behavior.">
<polygon fill="white" stroke="#666666" points="903.88,-392.11 822.62,-392.11 822.62,-371.36 903.88,-371.36 903.88,-392.11"/>
<text xml:space="preserve" text-anchor="middle" x="863.25" y="-378.61" font-family="Helvetica,sans-Serif" font-size="10.00">sig_dfl_mode</text>
</a>
</g>
</g>
<!-- Node3&#45;&gt;Node6 -->
<g id="edge7_Node000003_Node000006" class="edge">
<title>Node3&#45;&gt;Node6</title>
<g id="a_edge7_Node000003_Node000006"><a xlink:title=" ">
<path fill="none" stroke="#63b8ff" d="M636.81,-381.73C675.89,-381.73 757.39,-381.73 810.94,-381.73"/>
<polygon fill="#63b8ff" stroke="#63b8ff" points="810.74,-385.23 820.74,-381.73 810.74,-378.23 810.74,-385.23"/>
</a>
</g>
</g>
<!-- Node4&#45;&gt;Node5 -->
<g id="edge4_Node000004_Node000005" class="edge">
<title>Node4&#45;&gt;Node5</title>
<g id="a_edge4_Node000004_Node000005"><a xlink:title=" ">
<path fill="none" stroke="#63b8ff" d="M766.83,-351.95C781.32,-347.81 798.05,-343.04 813.43,-338.66"/>
<polygon fill="#63b8ff" stroke="#63b8ff" points="814.22,-342.07 822.87,-335.96 812.3,-335.34 814.22,-342.07"/>
</a>
</g>
</g>
<!-- Node4&#45;&gt;Node6 -->
<g id="edge5_Node000004_Node000006" class="edge">
<title>Node4&#45;&gt;Node6</title>
<g id="a_edge5_Node000004_Node000006"><a xlink:title=" ">
<path fill="none" stroke="#63b8ff" d="M773,-369.01C785.19,-370.75 798.52,-372.65 811.08,-374.44"/>
<polygon fill="#63b8ff" stroke="#63b8ff" points="810.45,-377.88 820.84,-375.83 811.44,-370.95 810.45,-377.88"/>
</a>
</g>
</g>
<!-- Node8 -->
<g id="Node000008" class="node">
<title>Node8</title>
<g id="a_Node000008"><a xlink:href="../../d0/d59/futil_8c.html#aa0145c044cfdde3a1c83323410a59f25" target="_top" xlink:title="safer alternative to strncat">
<polygon fill="white" stroke="#666666" points="646.12,-526.11 580.62,-526.11 580.62,-505.36 646.12,-505.36 646.12,-526.11"/>
<text xml:space="preserve" text-anchor="middle" x="613.38" y="-512.61" font-family="Helvetica,sans-Serif" font-size="10.00">strnz__cat</text>
</a>
</g>
</g>
<!-- Node7&#45;&gt;Node8 -->
<g id="edge9_Node000007_Node000008" class="edge">
<title>Node7&#45;&gt;Node8</title>
<g id="a_edge9_Node000007_Node000008"><a xlink:title=" ">
<path fill="none" stroke="#63b8ff" d="M543.79,-515.73C552.08,-515.73 560.69,-515.73 568.91,-515.73"/>
<polygon fill="#63b8ff" stroke="#63b8ff" points="568.67,-519.23 578.67,-515.73 568.67,-512.23 568.67,-519.23"/>
</a>
</g>
</g>
<!-- Node10&#45;&gt;Node3 -->
<g id="edge12_Node000010_Node000003" class="edge">
<title>Node10&#45;&gt;Node3</title>
<g id="a_edge12_Node000010_Node000003"><a xlink:title=" ">
<path fill="none" stroke="#63b8ff" d="M523.64,-428.93C530.17,-426.05 537.14,-422.87 543.5,-419.73 557.08,-413.03 571.83,-405 584.18,-398.05"/>
<polygon fill="#63b8ff" stroke="#63b8ff" points="585.63,-401.25 592.59,-393.27 582.17,-395.17 585.63,-401.25"/>
</a>
</g>
</g>
<!-- Node11&#45;&gt;Node12 -->
<g id="edge14_Node000011_Node000012" class="edge">
<title>Node11&#45;&gt;Node12</title>
<g id="a_edge14_Node000011_Node000012"><a xlink:title=" ">
<path fill="none" stroke="#63b8ff" d="M543.13,-205.78C552.71,-204.94 562.76,-204.07 572.14,-203.25"/>
<polygon fill="#63b8ff" stroke="#63b8ff" points="572.41,-206.74 582.07,-202.38 571.8,-199.76 572.41,-206.74"/>
</a>
</g>
</g>
<!-- Node15&#45;&gt;Node13 -->
<g id="edge20_Node000015_Node000013" class="edge">
<title>Node15&#45;&gt;Node13</title>
<g id="a_edge20_Node000015_Node000013"><a xlink:title=" ">
<path fill="none" stroke="#63b8ff" d="M518.95,-30.41C526.73,-34.46 535.58,-39.19 543.5,-43.73 557.87,-51.99 573.57,-61.73 586.35,-69.85"/>
<polygon fill="#63b8ff" stroke="#63b8ff" points="584.3,-72.7 594.61,-75.14 588.07,-66.8 584.3,-72.7"/>
</a>
</g>
</g>
<!-- Node16 -->
<g id="Node000016" class="node">
<title>Node16</title>
<g id="a_Node000016"><a xlink:href="../../dc/d40/dwin_8c.html#ac9adcf7339be4a05ab1a7350c236b8a5" target="_top" xlink:title="Draw a box around the specified window.">
<polygon fill="white" stroke="#666666" points="633,-30.11 593.75,-30.11 593.75,-9.36 633,-9.36 633,-30.11"/>
<text xml:space="preserve" text-anchor="middle" x="613.38" y="-16.61" font-family="Helvetica,sans-Serif" font-size="10.00">cbox</text>
</a>
</g>
</g>
<!-- Node15&#45;&gt;Node16 -->
<g id="edge19_Node000015_Node000016" class="edge">
<title>Node15&#45;&gt;Node16</title>
<g id="a_edge19_Node000015_Node000016"><a xlink:title=" ">
<path fill="none" stroke="#63b8ff" d="M526.47,-19.73C543.4,-19.73 564.82,-19.73 582.04,-19.73"/>
<polygon fill="#63b8ff" stroke="#63b8ff" points="581.94,-23.23 591.94,-19.73 581.94,-16.23 581.94,-23.23"/>
</a>
</g>
</g>
<!-- Node18 -->
<g id="Node000018" class="node">
<title>Node18</title>
<g id="a_Node000018"><a xlink:href="../../dc/d40/dwin_8c.html#a67659f8a701b74f4dec0d36227a10d1c" target="_top" xlink:title="Display an error message window or print to stderr.">
<polygon fill="white" stroke="#666666" points="407.88,-335.11 328.12,-335.11 328.12,-314.36 407.88,-314.36 407.88,-335.11"/>
<text xml:space="preserve" text-anchor="middle" x="368" y="-321.61" font-family="Helvetica,sans-Serif" font-size="10.00">display_error</text>
</a>
</g>
</g>
<!-- Node17&#45;&gt;Node18 -->
<g id="edge22_Node000017_Node000018" class="edge">
<title>Node17&#45;&gt;Node18</title>
<g id="a_edge22_Node000017_Node000018"><a xlink:title=" ">
<path fill="none" stroke="#63b8ff" d="M286.16,-318.75C295.51,-318.16 306.23,-317.91 316.73,-318"/>
<polygon fill="#63b8ff" stroke="#63b8ff" points="316.4,-321.5 326.47,-318.2 316.54,-314.5 316.4,-321.5"/>
</a>
</g>
</g>
<!-- Node20 -->
<g id="Node000020" class="node">
<title>Node20</title>
<g id="a_Node000020"><a xlink:href="../../dc/d40/dwin_8c.html#a4298f891699300bfc4e6e56fd2a8d574" target="_top" xlink:title="Get keycode from chyron.">
<polygon fill="white" stroke="#666666" points="414.25,-296.11 321.75,-296.11 321.75,-275.36 414.25,-275.36 414.25,-296.11"/>
<text xml:space="preserve" text-anchor="middle" x="368" y="-282.61" font-family="Helvetica,sans-Serif" font-size="10.00">get_chyron_key</text>
</a>
</g>
</g>
<!-- Node17&#45;&gt;Node20 -->
<g id="edge34_Node000017_Node000020" class="edge">
<title>Node17&#45;&gt;Node20</title>
<g id="a_edge34_Node000017_Node000020"><a xlink:title=" ">
<path fill="none" stroke="#63b8ff" d="M286.16,-314.69C298.27,-310.35 312.68,-305.19 325.96,-300.44"/>
<polygon fill="#63b8ff" stroke="#63b8ff" points="327.11,-303.74 335.34,-297.07 324.75,-297.15 327.11,-303.74"/>
</a>
</g>
</g>
<!-- Node21 -->
<g id="Node000021" class="node">
<title>Node21</title>
<g id="a_Node000021"><a xlink:href="../../da/d12/sig_8c.html#a79c3e22498eb2346543aa9c86fd22e58" target="_top" xlink:title="Handle received signals and prompt user for action.">
<polygon fill="white" stroke="#666666" points="538.62,-144.11 455.12,-144.11 455.12,-123.36 538.62,-123.36 538.62,-144.11"/>
<text xml:space="preserve" text-anchor="middle" x="496.88" y="-130.61" font-family="Helvetica,sans-Serif" font-size="10.00">handle_signal</text>
</a>
</g>
</g>
<!-- Node17&#45;&gt;Node21 -->
<g id="edge35_Node000017_Node000021" class="edge">
<title>Node17&#45;&gt;Node21</title>
<g id="a_edge35_Node000017_Node000021"><a xlink:title=" ">
<path fill="none" stroke="#63b8ff" d="M269.13,-314.17C281.61,-302.3 302.7,-282.64 321.75,-266.73 373.84,-223.24 437.88,-175.78 471.93,-151"/>
<polygon fill="#63b8ff" stroke="#63b8ff" points="473.83,-153.95 479.87,-145.24 469.72,-148.28 473.83,-153.95"/>
</a>
</g>
</g>
<!-- Node18&#45;&gt;Node3 -->
<g id="edge23_Node000018_Node000003" class="edge">
<title>Node18&#45;&gt;Node3</title>
<g id="a_edge23_Node000018_Node000003"><a xlink:title=" ">
<path fill="none" stroke="#63b8ff" d="M408.05,-324.22C444.04,-324.81 498.53,-328.38 543.5,-342.73 559.3,-347.78 575.52,-356.74 588.24,-364.8"/>
<polygon fill="#63b8ff" stroke="#63b8ff" points="586.08,-367.57 596.36,-370.15 589.94,-361.72 586.08,-367.57"/>
</a>
</g>
</g>
<!-- Node18&#45;&gt;Node7 -->
<g id="edge24_Node000018_Node000007" class="edge">
<title>Node18&#45;&gt;Node7</title>
<g id="a_edge24_Node000018_Node000007"><a xlink:title=" ">
<path fill="none" stroke="#63b8ff" d="M374.87,-335.45C387.66,-358.57 419.39,-414.58 450.25,-458.73 459.35,-471.75 470.47,-485.68 479.46,-496.51"/>
<polygon fill="#63b8ff" stroke="#63b8ff" points="476.61,-498.57 485.72,-503.97 481.97,-494.06 476.61,-498.57"/>
</a>
</g>
</g>
<!-- Node18&#45;&gt;Node9 -->
<g id="edge25_Node000018_Node000009" class="edge">
<title>Node18&#45;&gt;Node9</title>
<g id="a_edge25_Node000018_Node000009"><a xlink:title=" ">
<path fill="none" stroke="#63b8ff" d="M382.85,-335.5C398.62,-347.46 425.41,-366.89 450.25,-380.73 452.92,-382.22 455.72,-383.68 458.57,-385.09"/>
<polygon fill="#63b8ff" stroke="#63b8ff" points="457.01,-388.22 467.55,-389.29 459.98,-381.88 457.01,-388.22"/>
</a>
</g>
</g>
<!-- Node18&#45;&gt;Node10 -->
<g id="edge26_Node000018_Node000010" class="edge">
<title>Node18&#45;&gt;Node10</title>
<g id="a_edge26_Node000018_Node000010"><a xlink:title=" ">
<path fill="none" stroke="#63b8ff" d="M375.81,-335.52C388.42,-354.74 417.13,-395.17 450.25,-419.73 452.02,-421.05 453.89,-422.3 455.83,-423.49"/>
<polygon fill="#63b8ff" stroke="#63b8ff" points="454.04,-426.5 464.51,-428.17 457.37,-420.34 454.04,-426.5"/>
</a>
</g>
</g>
<!-- Node18&#45;&gt;Node11 -->
<g id="edge27_Node000018_Node000011" class="edge">
<title>Node18&#45;&gt;Node11</title>
<g id="a_edge27_Node000018_Node000011"><a xlink:title=" ">
<path fill="none" stroke="#63b8ff" d="M400.92,-314C405.74,-311.46 410.39,-308.4 414.25,-304.73 439.92,-280.39 425.42,-258.94 450.25,-233.73 452.97,-230.97 456.08,-228.46 459.36,-226.19"/>
<polygon fill="#63b8ff" stroke="#63b8ff" points="460.86,-229.37 467.61,-221.21 457.24,-223.38 460.86,-229.37"/>
</a>
</g>
</g>
<!-- Node18&#45;&gt;Node12 -->
<g id="edge28_Node000018_Node000012" class="edge">
<title>Node18&#45;&gt;Node12</title>
<g id="a_edge28_Node000018_Node000012"><a xlink:title=" ">
<path fill="none" stroke="#63b8ff" d="M398.17,-313.89C403.73,-311.26 409.34,-308.2 414.25,-304.73 433.26,-291.32 431.04,-279.86 450.25,-266.73 487.19,-241.48 502.15,-245.86 543.5,-228.73 554.18,-224.31 565.76,-219.46 576.33,-215"/>
<polygon fill="#63b8ff" stroke="#63b8ff" points="577.64,-218.25 585.5,-211.13 574.92,-211.8 577.64,-218.25"/>
</a>
</g>
</g>
<!-- Node18&#45;&gt;Node13 -->
<g id="edge30_Node000018_Node000013" class="edge">
<title>Node18&#45;&gt;Node13</title>
<g id="a_edge30_Node000018_Node000013"><a xlink:title=" ">
<path fill="none" stroke="#63b8ff" d="M403.23,-314.08C407.41,-311.58 411.26,-308.5 414.25,-304.73 467.69,-237.42 388.99,-175.01 450.25,-114.73 480.84,-84.64 531.36,-80.22 567.89,-81.71"/>
<polygon fill="#63b8ff" stroke="#63b8ff" points="567.51,-85.2 577.7,-82.29 567.93,-78.21 567.51,-85.2"/>
</a>
</g>
</g>
<!-- Node18&#45;&gt;Node14 -->
<g id="edge31_Node000018_Node000014" class="edge">
<title>Node18&#45;&gt;Node14</title>
<g id="a_edge31_Node000018_Node000014"><a xlink:title=" ">
<path fill="none" stroke="#63b8ff" d="M406.04,-335.54C422.68,-340.39 442.27,-346.1 458.9,-350.95"/>
<polygon fill="#63b8ff" stroke="#63b8ff" points="457.84,-354.29 468.42,-353.73 459.8,-347.57 457.84,-354.29"/>
</a>
</g>
</g>
<!-- Node18&#45;&gt;Node15 -->
<g id="edge32_Node000018_Node000015" class="edge">
<title>Node18&#45;&gt;Node15</title>
<g id="a_edge32_Node000018_Node000015"><a xlink:title=" ">
<path fill="none" stroke="#63b8ff" d="M403.77,-313.89C407.76,-311.42 411.42,-308.41 414.25,-304.73 475.59,-225.26 411.41,-174.31 450.25,-81.73 456.86,-65.98 468.24,-50.5 477.99,-38.95"/>
<polygon fill="#63b8ff" stroke="#63b8ff" points="480.35,-41.56 484.33,-31.73 475.1,-36.94 480.35,-41.56"/>
</a>
</g>
</g>
<!-- Node18&#45;&gt;Node17 -->
<g id="edge33_Node000018_Node000017" class="edge">
<title>Node18&#45;&gt;Node17</title>
<g id="a_edge33_Node000018_Node000017"><a xlink:title=" ">
<path fill="none" stroke="#63b8ff" d="M327.98,-331.24C318.04,-331.56 307.36,-331.57 297.42,-331.25"/>
<polygon fill="#63b8ff" stroke="#63b8ff" points="297.83,-327.76 287.67,-330.79 297.5,-334.75 297.83,-327.76"/>
</a>
</g>
</g>
<!-- Node19 -->
<g id="Node000019" class="node">
<title>Node19</title>
<g id="a_Node000019"><a xlink:href="../../d0/d59/futil_8c.html#a636608f26d1193b5d860f2312cd8ee49" target="_top" xlink:title="terminates string at New Line, Carriage Return, or max_len">
<polygon fill="white" stroke="#666666" points="516.88,-296.11 476.88,-296.11 476.88,-275.36 516.88,-275.36 516.88,-296.11"/>
<text xml:space="preserve" text-anchor="middle" x="496.88" y="-282.61" font-family="Helvetica,sans-Serif" font-size="10.00">strnz</text>
</a>
</g>
</g>
<!-- Node18&#45;&gt;Node19 -->
<g id="edge29_Node000018_Node000019" class="edge">
<title>Node18&#45;&gt;Node19</title>
<g id="a_edge29_Node000018_Node000019"><a xlink:title=" ">
<path fill="none" stroke="#63b8ff" d="M404.34,-313.87C423.56,-307.96 447.09,-300.73 465.48,-295.08"/>
<polygon fill="#63b8ff" stroke="#63b8ff" points="466.48,-298.43 475.01,-292.15 464.42,-291.74 466.48,-298.43"/>
</a>
</g>
</g>
<!-- Node21&#45;&gt;Node5 -->
<g id="edge36_Node000021_Node000005" class="edge">
<title>Node21&#45;&gt;Node5</title>
<g id="a_edge36_Node000021_Node000005"><a xlink:title=" ">
<path fill="none" stroke="#63b8ff" d="M539.01,-143.29C569.7,-151.22 612.2,-163.91 647.25,-180.73 723.42,-217.29 803.71,-277.85 840.95,-307.42"/>
<polygon fill="#63b8ff" stroke="#63b8ff" points="838.29,-309.77 848.29,-313.29 842.67,-304.3 838.29,-309.77"/>
</a>
</g>
</g>
<!-- Node21&#45;&gt;Node12 -->
<g id="edge37_Node000021_Node000012" class="edge">
<title>Node21&#45;&gt;Node12</title>
<g id="a_edge37_Node000021_Node000012"><a xlink:title=" ">
<path fill="none" stroke="#63b8ff" d="M518.92,-144.45C526.7,-148.51 535.56,-153.23 543.5,-157.73 557.63,-165.75 573.1,-175.12 585.79,-182.98"/>
<polygon fill="#63b8ff" stroke="#63b8ff" points="583.67,-185.78 594,-188.1 587.37,-179.84 583.67,-185.78"/>
</a>
</g>
</g>
<!-- Node21&#45;&gt;Node13 -->
<g id="edge38_Node000021_Node000013" class="edge">
<title>Node21&#45;&gt;Node13</title>
<g id="a_edge38_Node000021_Node000013"><a xlink:title=" ">
<path fill="none" stroke="#63b8ff" d="M524.14,-122.95C539.42,-116.68 558.9,-108.68 575.67,-101.8"/>
<polygon fill="#63b8ff" stroke="#63b8ff" points="576.91,-105.08 584.83,-98.04 574.25,-98.6 576.91,-105.08"/>
</a>
</g>
</g>
</g>
</svg>
