<?xml version="1.0" encoding="UTF-8" standalone="no"?>
<!DOCTYPE svg PUBLIC "-//W3C//DTD SVG 1.1//EN"
 "http://www.w3.org/Graphics/SVG/1.1/DTD/svg11.dtd">
<!-- Generated by graphviz version 14.1.2 (0)
 -->
<!-- Title: include/cm.h Pages: 1 -->
<svg width="415pt" height="86pt"
 viewBox="0.00 0.00 415.00 86.00" xmlns="http://www.w3.org/2000/svg" xmlns:xlink="http://www.w3.org/1999/xlink">
<g id="graph0" class="graph" transform="scale(1 1) rotate(0) translate(4 81.5)">
<title>include/cm.h</title>
<!-- Node1 -->
<g id="Node000001" class="node">
<title>Node1</title>
<g id="a_Node000001"><a xlink:title="Headder for C&#45;Menu API library, libcm.so.">
<polygon fill="#999999" stroke="#666666" points="274.62,-77.5 196.38,-77.5 196.38,-56.75 274.62,-56.75 274.62,-77.5"/>
<text xml:space="preserve" text-anchor="middle" x="235.5" y="-64" font-family="Helvetica,sans-Serif" font-size="10.00">include/cm.h</text>
</a>
</g>
</g>
<!-- Node2 -->
<g id="Node000002" class="node">
<title>Node2</title>
<g id="a_Node000002"><a xlink:href="../../d1/d5d/a00311.html" target="_top" xlink:title=" ">
<polygon fill="white" stroke="#666666" points="61,-20.75 0,-20.75 0,0 61,0 61,-20.75"/>
<text xml:space="preserve" text-anchor="middle" x="30.5" y="-7.25" font-family="Helvetica,sans-Serif" font-size="10.00">version.h</text>
</a>
</g>
</g>
<!-- Node1&#45;&gt;Node2 -->
<g id="edge1_Node000001_Node000002" class="edge">
<title>Node1&#45;&gt;Node2</title>
<g id="a_edge1_Node000001_Node000002"><a xlink:title=" ">
<path fill="none" stroke="#63b8ff" d="M198.85,-56.34C163.36,-46.86 109.62,-32.51 72.44,-22.58"/>
<polygon fill="#63b8ff" stroke="#63b8ff" points="73.5,-19.24 62.94,-20.04 71.7,-26 73.5,-19.24"/>
</a>
</g>
</g>
<!-- Node3 -->
<g id="Node000003" class="node">
<title>Node3</title>
<g id="a_Node000003"><a xlink:title=" ">
<polygon fill="#e0e0e0" stroke="#999999" points="190.12,-20.75 78.88,-20.75 78.88,0 190.12,0 190.12,-20.75"/>
<text xml:space="preserve" text-anchor="middle" x="134.5" y="-7.25" font-family="Helvetica,sans-Serif" font-size="10.00">ncursesw/ncurses.h</text>
</a>
</g>
</g>
<!-- Node1&#45;&gt;Node3 -->
<g id="edge2_Node000001_Node000003" class="edge">
<title>Node1&#45;&gt;Node3</title>
<g id="a_edge2_Node000001_Node000003"><a xlink:title=" ">
<path fill="none" stroke="#63b8ff" d="M217.44,-56.34C202.08,-48.01 179.76,-35.91 162.14,-26.36"/>
<polygon fill="#63b8ff" stroke="#63b8ff" points="164.19,-23.49 153.73,-21.8 160.85,-29.64 164.19,-23.49"/>
</a>
</g>
</g>
<!-- Node4 -->
<g id="Node000004" class="node">
<title>Node4</title>
<g id="a_Node000004"><a xlink:title=" ">
<polygon fill="#e0e0e0" stroke="#999999" points="262.62,-20.75 208.38,-20.75 208.38,0 262.62,0 262.62,-20.75"/>
<text xml:space="preserve" text-anchor="middle" x="235.5" y="-7.25" font-family="Helvetica,sans-Serif" font-size="10.00">signal.h</text>
</a>
</g>
</g>
<!-- Node1&#45;&gt;Node4 -->
<g id="edge3_Node000001_Node000004" class="edge">
<title>Node1&#45;&gt;Node4</title>
<g id="a_edge3_Node000001_Node000004"><a xlink:title=" ">
<path fill="none" stroke="#63b8ff" d="M235.5,-56.34C235.5,-49.72 235.5,-40.72 235.5,-32.52"/>
<polygon fill="#63b8ff" stroke="#63b8ff" points="239,-32.59 235.5,-22.59 232,-32.59 239,-32.59"/>
</a>
</g>
</g>
<!-- Node5 -->
<g id="Node000005" class="node">
<title>Node5</title>
<g id="a_Node000005"><a xlink:title=" ">
<polygon fill="#e0e0e0" stroke="#999999" points="336,-20.75 281,-20.75 281,0 336,0 336,-20.75"/>
<text xml:space="preserve" text-anchor="middle" x="308.5" y="-7.25" font-family="Helvetica,sans-Serif" font-size="10.00">stddef.h</text>
</a>
</g>
</g>
<!-- Node1&#45;&gt;Node5 -->
<g id="edge4_Node000001_Node000005" class="edge">
<title>Node1&#45;&gt;Node5</title>
<g id="a_edge4_Node000001_Node000005"><a xlink:title=" ">
<path fill="none" stroke="#63b8ff" d="M248.55,-56.34C259.14,-48.4 274.29,-37.03 286.72,-27.71"/>
<polygon fill="#63b8ff" stroke="#63b8ff" points="288.45,-30.79 294.35,-21.99 284.25,-25.19 288.45,-30.79"/>
</a>
</g>
</g>
<!-- Node6 -->
<g id="Node000006" class="node">
<title>Node6</title>
<g id="a_Node000006"><a xlink:title=" ">
<polygon fill="#e0e0e0" stroke="#999999" points="406.5,-20.75 354.5,-20.75 354.5,0 406.5,0 406.5,-20.75"/>
<text xml:space="preserve" text-anchor="middle" x="380.5" y="-7.25" font-family="Helvetica,sans-Serif" font-size="10.00">stdlib.h</text>
</a>
</g>
</g>
<!-- Node1&#45;&gt;Node6 -->
<g id="edge5_Node000001_Node000006" class="edge">
<title>Node1&#45;&gt;Node6</title>
<g id="a_edge5_Node000001_Node000006"><a xlink:title=" ">
<path fill="none" stroke="#63b8ff" d="M261.42,-56.34C284.52,-47.62 318.54,-34.77 344.32,-25.04"/>
<polygon fill="#63b8ff" stroke="#63b8ff" points="345.27,-28.42 353.39,-21.61 342.79,-21.87 345.27,-28.42"/>
</a>
</g>
</g>
</g>
</svg>
