<?xml version="1.0" encoding="UTF-8" standalone="no"?>
<!DOCTYPE svg PUBLIC "-//W3C//DTD SVG 1.1//EN"
 "http://www.w3.org/Graphics/SVG/1.1/DTD/svg11.dtd">
<!-- Generated by graphviz version 14.1.2 (0)
 -->
<!-- Title: lf_process Pages: 1 -->
<svg width="233pt" height="47pt"
 viewBox="0.00 0.00 233.00 47.00" xmlns="http://www.w3.org/2000/svg" xmlns:xlink="http://www.w3.org/1999/xlink">
<g id="graph0" class="graph" transform="scale(1 1) rotate(0) translate(4 42.75)">
<title>lf_process</title>
<!-- Node1 -->
<g id="Node000001" class="node">
<title>Node1</title>
<g id="a_Node000001"><a xlink:title="logic for lf_find()">
<polygon fill="#999999" stroke="#666666" points="225,-20.75 159.5,-20.75 159.5,0 225,0 225,-20.75"/>
<text xml:space="preserve" text-anchor="middle" x="192.25" y="-7.25" font-family="Helvetica,sans-Serif" font-size="10.00">lf_process</text>
</a>
</g>
</g>
<!-- Node1&#45;&gt;Node1 -->
<g id="edge3_Node000001_Node000001" class="edge">
<title>Node1&#45;&gt;Node1</title>
<g id="a_edge3_Node000001_Node000001"><a xlink:title=" ">
<path fill="none" stroke="#63b8ff" d="M208.27,-32.56C206,-36.23 200.66,-38.75 192.25,-38.75 176.42,-38.75 171.47,-29.81 177.41,-21.15"/>
<polygon fill="#63b8ff" stroke="#63b8ff" points="211.75,-32.24 207.25,-22.65 204.79,-32.96 211.75,-32.24"/>
</a>
</g>
</g>
<!-- Node2 -->
<g id="Node000002" class="node">
<title>Node2</title>
<g id="a_Node000002"><a xlink:href="../../d0/d59/futil_8c.html#a5bd2fb968d70ed5285cfce1ed9e33ca1" target="_top" xlink:title="Find files in a directory matching a regular expression.">
<polygon fill="white" stroke="#666666" points="123.5,-20.75 76.75,-20.75 76.75,0 123.5,0 123.5,-20.75"/>
<text xml:space="preserve" text-anchor="middle" x="100.12" y="-7.25" font-family="Helvetica,sans-Serif" font-size="10.00">lf_find</text>
</a>
</g>
</g>
<!-- Node1&#45;&gt;Node2 -->
<g id="edge1_Node000001_Node000002" class="edge">
<title>Node1&#45;&gt;Node2</title>
<g id="a_edge1_Node000001_Node000002"><a xlink:title=" ">
<path fill="none" stroke="#63b8ff" d="M147.76,-10.38C139.54,-10.38 131.26,-10.38 123.99,-10.38"/>
<polygon fill="#63b8ff" stroke="#63b8ff" points="147.71,-13.88 157.71,-10.38 147.71,-6.88 147.71,-13.88"/>
</a>
</g>
</g>
<!-- Node3 -->
<g id="Node000003" class="node">
<title>Node3</title>
<g id="a_Node000003"><a xlink:href="../../da/dbc/lf_8c.html#a3c04138a5bfe5d72780bb7e82a18e627" target="_top" xlink:title="List files in a directory matching a regular expression.">
<polygon fill="white" stroke="#666666" points="40.75,-20.75 0,-20.75 0,0 40.75,0 40.75,-20.75"/>
<text xml:space="preserve" text-anchor="middle" x="20.38" y="-7.25" font-family="Helvetica,sans-Serif" font-size="10.00">main</text>
</a>
</g>
</g>
<!-- Node2&#45;&gt;Node3 -->
<g id="edge2_Node000002_Node000003" class="edge">
<title>Node2&#45;&gt;Node3</title>
<g id="a_edge2_Node000002_Node000003"><a xlink:title=" ">
<path fill="none" stroke="#63b8ff" d="M65.34,-10.38C57.08,-10.38 48.52,-10.38 41.17,-10.38"/>
<polygon fill="#63b8ff" stroke="#63b8ff" points="65.12,-13.88 75.12,-10.38 65.12,-6.88 65.12,-13.88"/>
</a>
</g>
</g>
</g>
</svg>
