<?xml version="1.0" encoding="UTF-8" standalone="no"?>
<!DOCTYPE svg PUBLIC "-//W3C//DTD SVG 1.1//EN"
 "http://www.w3.org/Graphics/SVG/1.1/DTD/svg11.dtd">
<!-- Generated by graphviz version 14.1.2 (0)
 -->
<!-- Title: verify_file Pages: 1 -->
<svg width="763pt" height="539pt"
 viewBox="0.00 0.00 763.00 539.00" xmlns="http://www.w3.org/2000/svg" xmlns:xlink="http://www.w3.org/1999/xlink">
<g id="graph0" class="graph" transform="scale(1 1) rotate(0) translate(4 535.01)">
<title>verify_file</title>
<!-- Node1 -->
<g id="Node000001" class="node">
<title>Node1</title>
<g id="a_Node000001"><a xlink:title="Verifies that the file specified by &quot;in_spec&quot; exists and is accessible with the permissions specified...">
<polygon fill="#999999" stroke="#666666" points="65.5,-465.53 0,-465.53 0,-444.78 65.5,-444.78 65.5,-465.53"/>
<text xml:space="preserve" text-anchor="middle" x="32.75" y="-452.03" font-family="Helvetica,sans-Serif" font-size="10.00">verify_file</text>
</a>
</g>
</g>
<!-- Node2 -->
<g id="Node000002" class="node">
<title>Node2</title>
<g id="a_Node000002"><a xlink:href="../../d0/d59/futil_8c.html#a0d44c51feb7f300fecb49dbf223a62f8" target="_top" xlink:title="Removes quotes and trims at first space.">
<polygon fill="white" stroke="#666666" points="227,-503.53 101.5,-503.53 101.5,-482.78 227,-482.78 227,-503.53"/>
<text xml:space="preserve" text-anchor="middle" x="164.25" y="-490.03" font-family="Helvetica,sans-Serif" font-size="10.00">canonicalize_file_spec</text>
</a>
</g>
</g>
<!-- Node1&#45;&gt;Node2 -->
<g id="edge1_Node000001_Node000002" class="edge">
<title>Node1&#45;&gt;Node2</title>
<g id="a_edge1_Node000001_Node000002"><a xlink:title=" ">
<path fill="none" stroke="#63b8ff" d="M65.76,-464.55C80.88,-468.98 99.22,-474.37 115.9,-479.26"/>
<polygon fill="#63b8ff" stroke="#63b8ff" points="114.54,-482.51 125.12,-481.97 116.51,-475.79 114.54,-482.51"/>
</a>
</g>
</g>
<!-- Node3 -->
<g id="Node000003" class="node">
<title>Node3</title>
<g id="a_Node000003"><a xlink:href="../../d0/d59/futil_8c.html#a0de2e40df9bd7efc8fd9afb8ad2257e6" target="_top" xlink:title="safer alternative to strncpy">
<polygon fill="white" stroke="#666666" points="599.38,-406.53 531.62,-406.53 531.62,-385.78 599.38,-385.78 599.38,-406.53"/>
<text xml:space="preserve" text-anchor="middle" x="565.5" y="-393.03" font-family="Helvetica,sans-Serif" font-size="10.00">strnz__cpy</text>
</a>
</g>
</g>
<!-- Node1&#45;&gt;Node3 -->
<g id="edge35_Node000001_Node000003" class="edge">
<title>Node1&#45;&gt;Node3</title>
<g id="a_edge35_Node000001_Node000003"><a xlink:title=" ">
<path fill="none" stroke="#63b8ff" d="M42.02,-465.66C53.59,-479.42 76.08,-502.89 101.5,-512.15 207.89,-550.96 243.66,-519.35 356.25,-507.15 413.93,-500.91 434,-512.27 484.75,-484.15 514.07,-467.92 538.3,-436.82 552.09,-416.29"/>
<polygon fill="#63b8ff" stroke="#63b8ff" points="554.85,-418.47 557.34,-408.17 548.97,-414.67 554.85,-418.47"/>
</a>
</g>
</g>
<!-- Node4 -->
<g id="Node000004" class="node">
<title>Node4</title>
<g id="a_Node000004"><a xlink:href="../../dc/d40/dwin_8c.html#a67659f8a701b74f4dec0d36227a10d1c" target="_top" xlink:title="Display an error message window or print to stderr.">
<polygon fill="white" stroke="#666666" points="204.12,-233.53 124.38,-233.53 124.38,-212.78 204.12,-212.78 204.12,-233.53"/>
<text xml:space="preserve" text-anchor="middle" x="164.25" y="-220.03" font-family="Helvetica,sans-Serif" font-size="10.00">display_error</text>
</a>
</g>
</g>
<!-- Node1&#45;&gt;Node4 -->
<g id="edge3_Node000001_Node000004" class="edge">
<title>Node1&#45;&gt;Node4</title>
<g id="a_edge3_Node000001_Node000004"><a xlink:title=" ">
<path fill="none" stroke="#63b8ff" d="M39.65,-444.58C59.67,-408.73 125.2,-291.32 151.84,-243.6"/>
<polygon fill="#63b8ff" stroke="#63b8ff" points="154.76,-245.55 156.58,-235.11 148.65,-242.14 154.76,-245.55"/>
</a>
</g>
</g>
<!-- Node14 -->
<g id="Node000014" class="node">
<title>Node14</title>
<g id="a_Node000014"><a xlink:href="../../d0/d59/futil_8c.html#a63eb94756fb011a456a3dec900709cd8" target="_top" xlink:title="ssnprintf was designed to be a safer alternative to snprintf.">
<polygon fill="white" stroke="#666666" points="594.88,-42.53 536.12,-42.53 536.12,-21.78 594.88,-21.78 594.88,-42.53"/>
<text xml:space="preserve" text-anchor="middle" x="565.5" y="-29.03" font-family="Helvetica,sans-Serif" font-size="10.00">ssnprintf</text>
</a>
</g>
</g>
<!-- Node1&#45;&gt;Node14 -->
<g id="edge34_Node000001_Node000014" class="edge">
<title>Node1&#45;&gt;Node14</title>
<g id="a_edge34_Node000001_Node000014"><a xlink:title=" ">
<path fill="none" stroke="#63b8ff" d="M34.83,-444.46C38.84,-408.49 55.07,-289.37 101.5,-204.15 152.76,-110.06 167.21,-73.17 263,-25.15 348.31,17.61 464.96,-4.07 525.09,-20.1"/>
<polygon fill="#63b8ff" stroke="#63b8ff" points="523.96,-23.42 534.53,-22.71 525.83,-16.67 523.96,-23.42"/>
</a>
</g>
</g>
<!-- Node22 -->
<g id="Node000022" class="node">
<title>Node22</title>
<g id="a_Node000022"><a xlink:href="../../d0/d59/futil_8c.html#ad7f9941ba28a6cca3ccce953c4d77e32" target="_top" xlink:title="Replace Leading Tilde With Home Directory.">
<polygon fill="white" stroke="#666666" points="349.12,-465.53 270.12,-465.53 270.12,-444.78 349.12,-444.78 349.12,-465.53"/>
<text xml:space="preserve" text-anchor="middle" x="309.62" y="-452.03" font-family="Helvetica,sans-Serif" font-size="10.00">expand_tilde</text>
</a>
</g>
</g>
<!-- Node1&#45;&gt;Node22 -->
<g id="edge31_Node000001_Node000022" class="edge">
<title>Node1&#45;&gt;Node22</title>
<g id="a_edge31_Node000001_Node000022"><a xlink:title=" ">
<path fill="none" stroke="#63b8ff" d="M65.82,-455.15C113.15,-455.15 202.16,-455.15 258.26,-455.15"/>
<polygon fill="#63b8ff" stroke="#63b8ff" points="258.19,-458.66 268.19,-455.16 258.19,-451.66 258.19,-458.66"/>
</a>
</g>
</g>
<!-- Node2&#45;&gt;Node3 -->
<g id="edge2_Node000002_Node000003" class="edge">
<title>Node2&#45;&gt;Node3</title>
<g id="a_edge2_Node000002_Node000003"><a xlink:title=" ">
<path fill="none" stroke="#63b8ff" d="M227.21,-496.12C293.48,-497.05 400.42,-492.04 484.75,-457.15 508.45,-447.35 531.25,-428.67 546.35,-414.55"/>
<polygon fill="#63b8ff" stroke="#63b8ff" points="548.46,-417.38 553.22,-407.92 543.6,-412.35 548.46,-417.38"/>
</a>
</g>
</g>
<!-- Node4&#45;&gt;Node3 -->
<g id="edge19_Node000004_Node000003" class="edge">
<title>Node4&#45;&gt;Node3</title>
<g id="a_edge19_Node000004_Node000003"><a xlink:title=" ">
<path fill="none" stroke="#63b8ff" d="M181.38,-233.89C200.38,-246.26 233.15,-266.74 263,-281.15 287.49,-292.98 448.33,-353.04 524.55,-381.35"/>
<polygon fill="#63b8ff" stroke="#63b8ff" points="523.15,-384.56 533.74,-384.76 525.58,-378 523.15,-384.56"/>
</a>
</g>
</g>
<!-- Node5 -->
<g id="Node000005" class="node">
<title>Node5</title>
<g id="a_Node000005"><a xlink:href="../../dc/d40/dwin_8c.html#a8f6c45ca4a7f6a41c4c88314e697565a" target="_top" xlink:title="Abnormal program termination.">
<polygon fill="white" stroke="#666666" points="461.5,-118.53 415.5,-118.53 415.5,-97.78 461.5,-97.78 461.5,-118.53"/>
<text xml:space="preserve" text-anchor="middle" x="438.5" y="-105.03" font-family="Helvetica,sans-Serif" font-size="10.00">abend</text>
</a>
</g>
</g>
<!-- Node4&#45;&gt;Node5 -->
<g id="edge4_Node000004_Node000005" class="edge">
<title>Node4&#45;&gt;Node5</title>
<g id="a_edge4_Node000004_Node000005"><a xlink:title=" ">
<path fill="none" stroke="#63b8ff" d="M180.92,-212.38C199.76,-199.79 232.63,-178.92 263,-165.15 310.54,-143.6 368.67,-126.3 404.39,-116.63"/>
<polygon fill="#63b8ff" stroke="#63b8ff" points="404.93,-120.1 413.69,-114.15 403.13,-113.34 404.93,-120.1"/>
</a>
</g>
</g>
<!-- Node9 -->
<g id="Node000009" class="node">
<title>Node9</title>
<g id="a_Node000009"><a xlink:href="../../dc/d40/dwin_8c.html#a645871e46277e31736bc36d0f3dce4bd" target="_top" xlink:title="construct the chyron string from the chyron structure">
<polygon fill="white" stroke="#666666" points="356.25,-426.53 263,-426.53 263,-405.78 356.25,-405.78 356.25,-426.53"/>
<text xml:space="preserve" text-anchor="middle" x="309.62" y="-413.03" font-family="Helvetica,sans-Serif" font-size="10.00">compile_chyron</text>
</a>
</g>
</g>
<!-- Node4&#45;&gt;Node9 -->
<g id="edge10_Node000004_Node000009" class="edge">
<title>Node4&#45;&gt;Node9</title>
<g id="a_edge10_Node000004_Node000009"><a xlink:title=" ">
<path fill="none" stroke="#63b8ff" d="M168.52,-233.62C178.2,-263.1 209.5,-347.82 263,-396.15 264.24,-397.28 265.56,-398.35 266.93,-399.36"/>
<polygon fill="#63b8ff" stroke="#63b8ff" points="264.95,-402.25 275.3,-404.51 268.61,-396.29 264.95,-402.25"/>
</a>
</g>
</g>
<!-- Node11 -->
<g id="Node000011" class="node">
<title>Node11</title>
<g id="a_Node000011"><a xlink:href="../../dc/d40/dwin_8c.html#a3f3feb40fd703913c5c136331f627c91" target="_top" xlink:title="Destroy Chyron structure.">
<polygon fill="white" stroke="#666666" points="355.12,-387.53 264.12,-387.53 264.12,-366.78 355.12,-366.78 355.12,-387.53"/>
<text xml:space="preserve" text-anchor="middle" x="309.62" y="-374.03" font-family="Helvetica,sans-Serif" font-size="10.00">destroy_chyron</text>
</a>
</g>
</g>
<!-- Node4&#45;&gt;Node11 -->
<g id="edge12_Node000004_Node000011" class="edge">
<title>Node4&#45;&gt;Node11</title>
<g id="a_edge12_Node000004_Node000011"><a xlink:title=" ">
<path fill="none" stroke="#63b8ff" d="M170.41,-233.66C183.01,-258.35 217.66,-320.72 263,-357.15 264.67,-358.5 266.44,-359.76 268.28,-360.96"/>
<polygon fill="#63b8ff" stroke="#63b8ff" points="266.14,-363.77 276.57,-365.62 269.57,-357.67 266.14,-363.77"/>
</a>
</g>
</g>
<!-- Node12 -->
<g id="Node000012" class="node">
<title>Node12</title>
<g id="a_Node000012"><a xlink:href="../../dc/d40/dwin_8c.html#ad37d5808ff30ae6894780425d865abae" target="_top" xlink:title="Create and initialize Chyron structure.">
<polygon fill="white" stroke="#666666" points="346.88,-118.53 272.38,-118.53 272.38,-97.78 346.88,-97.78 346.88,-118.53"/>
<text xml:space="preserve" text-anchor="middle" x="309.62" y="-105.03" font-family="Helvetica,sans-Serif" font-size="10.00">new_chyron</text>
</a>
</g>
</g>
<!-- Node4&#45;&gt;Node12 -->
<g id="edge13_Node000004_Node000012" class="edge">
<title>Node4&#45;&gt;Node12</title>
<g id="a_edge13_Node000004_Node000012"><a xlink:title=" ">
<path fill="none" stroke="#63b8ff" d="M175.02,-212.35C191.78,-194.23 227.64,-157.24 263,-132.15 266.86,-129.42 271.07,-126.79 275.33,-124.34"/>
<polygon fill="#63b8ff" stroke="#63b8ff" points="276.74,-127.55 283.85,-119.7 273.39,-121.4 276.74,-127.55"/>
</a>
</g>
</g>
<!-- Node13 -->
<g id="Node000013" class="node">
<title>Node13</title>
<g id="a_Node000013"><a xlink:href="../../dc/d40/dwin_8c.html#a208ce92c197fdd6d2b007987e534aa3b" target="_top" xlink:title="Set chyron key.">
<polygon fill="white" stroke="#666666" points="484.38,-42.53 392.62,-42.53 392.62,-21.78 484.38,-21.78 484.38,-42.53"/>
<text xml:space="preserve" text-anchor="middle" x="438.5" y="-29.03" font-family="Helvetica,sans-Serif" font-size="10.00">set_chyron_key</text>
</a>
</g>
</g>
<!-- Node4&#45;&gt;Node13 -->
<g id="edge15_Node000004_Node000013" class="edge">
<title>Node4&#45;&gt;Node13</title>
<g id="a_edge15_Node000004_Node000013"><a xlink:title=" ">
<path fill="none" stroke="#63b8ff" d="M167.9,-212.71C176.14,-182.62 204.34,-95.34 263,-56.15 297.42,-33.16 344.22,-27.77 380.69,-27.8"/>
<polygon fill="#63b8ff" stroke="#63b8ff" points="380.57,-31.3 390.63,-27.96 380.69,-24.3 380.57,-31.3"/>
</a>
</g>
</g>
<!-- Node4&#45;&gt;Node14 -->
<g id="edge17_Node000004_Node000014" class="edge">
<title>Node4&#45;&gt;Node14</title>
<g id="a_edge17_Node000004_Node000014"><a xlink:title=" ">
<path fill="none" stroke="#63b8ff" d="M169.53,-212.65C180.65,-186.82 213.08,-120.12 263,-89.15 347.98,-36.45 386.79,-71.2 484.75,-51.15 497.91,-48.46 512.2,-45.17 525,-42.09"/>
<polygon fill="#63b8ff" stroke="#63b8ff" points="525.45,-45.59 534.34,-39.82 523.79,-38.79 525.45,-45.59"/>
</a>
</g>
</g>
<!-- Node15 -->
<g id="Node000015" class="node">
<title>Node15</title>
<g id="a_Node000015"><a xlink:href="../../d0/d59/futil_8c.html#a636608f26d1193b5d860f2312cd8ee49" target="_top" xlink:title="terminates string at New Line, Carriage Return, or max_len">
<polygon fill="white" stroke="#666666" points="329.62,-348.53 289.62,-348.53 289.62,-327.78 329.62,-327.78 329.62,-348.53"/>
<text xml:space="preserve" text-anchor="middle" x="309.62" y="-335.03" font-family="Helvetica,sans-Serif" font-size="10.00">strnz</text>
</a>
</g>
</g>
<!-- Node4&#45;&gt;Node15 -->
<g id="edge18_Node000004_Node000015" class="edge">
<title>Node4&#45;&gt;Node15</title>
<g id="a_edge18_Node000004_Node000015"><a xlink:title=" ">
<path fill="none" stroke="#63b8ff" d="M175.02,-233.96C191.78,-252.08 227.64,-289.07 263,-314.15 268.11,-317.78 273.84,-321.22 279.46,-324.3"/>
<polygon fill="#63b8ff" stroke="#63b8ff" points="277.49,-327.22 287.98,-328.72 280.72,-321.01 277.49,-327.22"/>
</a>
</g>
</g>
<!-- Node16 -->
<g id="Node000016" class="node">
<title>Node16</title>
<g id="a_Node000016"><a xlink:href="../../dc/d40/dwin_8c.html#a9dd598e1d49c8764af1eec42c682623e" target="_top" xlink:title="Delete the current window and its associated box window.">
<polygon fill="white" stroke="#666666" points="336.38,-194.53 282.88,-194.53 282.88,-173.78 336.38,-173.78 336.38,-194.53"/>
<text xml:space="preserve" text-anchor="middle" x="309.62" y="-181.03" font-family="Helvetica,sans-Serif" font-size="10.00">win_del</text>
</a>
</g>
</g>
<!-- Node4&#45;&gt;Node16 -->
<g id="edge20_Node000004_Node000016" class="edge">
<title>Node4&#45;&gt;Node16</title>
<g id="a_edge20_Node000004_Node000016"><a xlink:title=" ">
<path fill="none" stroke="#63b8ff" d="M204.43,-212.5C225.41,-206.79 251.12,-199.8 271.74,-194.19"/>
<polygon fill="#63b8ff" stroke="#63b8ff" points="272.43,-197.63 281.16,-191.63 270.59,-190.87 272.43,-197.63"/>
</a>
</g>
</g>
<!-- Node17 -->
<g id="Node000017" class="node">
<title>Node17</title>
<g id="a_Node000017"><a xlink:href="../../dc/d40/dwin_8c.html#a435c7bff7ffedb8f51c6de9259e36f6c" target="_top" xlink:title="Create a new window with optional box and title.">
<polygon fill="white" stroke="#666666" points="339,-272.53 280.25,-272.53 280.25,-251.78 339,-251.78 339,-272.53"/>
<text xml:space="preserve" text-anchor="middle" x="309.62" y="-259.03" font-family="Helvetica,sans-Serif" font-size="10.00">win_new</text>
</a>
</g>
</g>
<!-- Node4&#45;&gt;Node17 -->
<g id="edge21_Node000004_Node000017" class="edge">
<title>Node4&#45;&gt;Node17</title>
<g id="a_edge21_Node000004_Node000017"><a xlink:title=" ">
<path fill="none" stroke="#63b8ff" d="M204.43,-233.81C224.48,-239.27 248.84,-245.89 268.97,-251.37"/>
<polygon fill="#63b8ff" stroke="#63b8ff" points="267.93,-254.71 278.5,-253.96 269.76,-247.96 267.93,-254.71"/>
</a>
</g>
</g>
<!-- Node19 -->
<g id="Node000019" class="node">
<title>Node19</title>
<g id="a_Node000019"><a xlink:href="../../dc/d40/dwin_8c.html#acf4c709bccc4c965a5d61db978db31a3" target="_top" xlink:title="Wrapper for wgetch that handles signals and mouse events.">
<polygon fill="white" stroke="#666666" points="338.25,-233.53 281,-233.53 281,-212.78 338.25,-212.78 338.25,-233.53"/>
<text xml:space="preserve" text-anchor="middle" x="309.62" y="-220.03" font-family="Helvetica,sans-Serif" font-size="10.00">xwgetch</text>
</a>
</g>
</g>
<!-- Node4&#45;&gt;Node19 -->
<g id="edge24_Node000004_Node000019" class="edge">
<title>Node4&#45;&gt;Node19</title>
<g id="a_edge24_Node000004_Node000019"><a xlink:title=" ">
<path fill="none" stroke="#63b8ff" d="M204.43,-217.06C224.67,-216.18 249.29,-216.19 269.52,-217.07"/>
<polygon fill="#63b8ff" stroke="#63b8ff" points="269.17,-220.55 279.34,-217.61 269.55,-213.56 269.17,-220.55"/>
</a>
</g>
</g>
<!-- Node6 -->
<g id="Node000006" class="node">
<title>Node6</title>
<g id="a_Node000006"><a xlink:href="../../dc/d40/dwin_8c.html#afc0985a403e3eac0b2cd8f0fab500256" target="_top" xlink:title="Gracefully shut down NCurses and restore terminal settings.">
<polygon fill="white" stroke="#666666" points="610.25,-118.53 520.75,-118.53 520.75,-97.78 610.25,-97.78 610.25,-118.53"/>
<text xml:space="preserve" text-anchor="middle" x="565.5" y="-105.03" font-family="Helvetica,sans-Serif" font-size="10.00">destroy_curses</text>
</a>
</g>
</g>
<!-- Node5&#45;&gt;Node6 -->
<g id="edge5_Node000005_Node000006" class="edge">
<title>Node5&#45;&gt;Node6</title>
<g id="a_edge5_Node000005_Node000006"><a xlink:title=" ">
<path fill="none" stroke="#63b8ff" d="M461.85,-108.15C475.03,-108.15 492.34,-108.15 508.98,-108.15"/>
<polygon fill="#63b8ff" stroke="#63b8ff" points="508.82,-111.66 518.82,-108.16 508.82,-104.66 508.82,-111.66"/>
</a>
</g>
</g>
<!-- Node7 -->
<g id="Node000007" class="node">
<title>Node7</title>
<g id="a_Node000007"><a xlink:href="../../d7/d72/scriou_8c.html#ac5e3adb304b78910fc77761ef6a743f0" target="_top" xlink:title="restore_shell_tioctl() &#45; restore shell terminal settings">
<polygon fill="white" stroke="#666666" points="755.25,-156.53 646.25,-156.53 646.25,-135.78 755.25,-135.78 755.25,-156.53"/>
<text xml:space="preserve" text-anchor="middle" x="700.75" y="-143.03" font-family="Helvetica,sans-Serif" font-size="10.00">restore_shell_tioctl</text>
</a>
</g>
</g>
<!-- Node5&#45;&gt;Node7 -->
<g id="edge8_Node000005_Node000007" class="edge">
<title>Node5&#45;&gt;Node7</title>
<g id="a_edge8_Node000005_Node000007"><a xlink:title=" ">
<path fill="none" stroke="#63b8ff" d="M461.77,-114.15C478.01,-118.33 500.61,-123.74 520.75,-127.15 558.26,-133.51 600.57,-138.11 634.64,-141.2"/>
<polygon fill="#63b8ff" stroke="#63b8ff" points="634.08,-144.66 644.35,-142.06 634.7,-137.69 634.08,-144.66"/>
</a>
</g>
</g>
<!-- Node8 -->
<g id="Node000008" class="node">
<title>Node8</title>
<g id="a_Node000008"><a xlink:href="../../da/d12/sig_8c.html#a06c1eb6cf3649dc187115565409f91af" target="_top" xlink:title="Set signal handlers to default behavior.">
<polygon fill="white" stroke="#666666" points="741.38,-99.53 660.12,-99.53 660.12,-78.78 741.38,-78.78 741.38,-99.53"/>
<text xml:space="preserve" text-anchor="middle" x="700.75" y="-86.03" font-family="Helvetica,sans-Serif" font-size="10.00">sig_dfl_mode</text>
</a>
</g>
</g>
<!-- Node5&#45;&gt;Node8 -->
<g id="edge9_Node000005_Node000008" class="edge">
<title>Node5&#45;&gt;Node8</title>
<g id="a_edge9_Node000005_Node000008"><a xlink:title=" ">
<path fill="none" stroke="#63b8ff" d="M461.67,-101.51C477.87,-97.02 500.46,-91.5 520.75,-89.15 563.65,-84.21 612.72,-84.63 648.62,-86.05"/>
<polygon fill="#63b8ff" stroke="#63b8ff" points="648.13,-89.53 658.27,-86.48 648.44,-82.54 648.13,-89.53"/>
</a>
</g>
</g>
<!-- Node6&#45;&gt;Node7 -->
<g id="edge6_Node000006_Node000007" class="edge">
<title>Node6&#45;&gt;Node7</title>
<g id="a_edge6_Node000006_Node000007"><a xlink:title=" ">
<path fill="none" stroke="#63b8ff" d="M604.33,-118.94C618.82,-123.07 635.55,-127.85 650.93,-132.23"/>
<polygon fill="#63b8ff" stroke="#63b8ff" points="649.8,-135.55 660.37,-134.93 651.72,-128.82 649.8,-135.55"/>
</a>
</g>
</g>
<!-- Node6&#45;&gt;Node8 -->
<g id="edge7_Node000006_Node000008" class="edge">
<title>Node6&#45;&gt;Node8</title>
<g id="a_edge7_Node000006_Node000008"><a xlink:title=" ">
<path fill="none" stroke="#63b8ff" d="M610.5,-101.88C622.69,-100.14 636.02,-98.24 648.58,-96.45"/>
<polygon fill="#63b8ff" stroke="#63b8ff" points="648.94,-99.94 658.34,-95.06 647.95,-93.01 648.94,-99.94"/>
</a>
</g>
</g>
<!-- Node10 -->
<g id="Node000010" class="node">
<title>Node10</title>
<g id="a_Node000010"><a xlink:href="../../d0/d59/futil_8c.html#aa0145c044cfdde3a1c83323410a59f25" target="_top" xlink:title="safer alternative to strncat">
<polygon fill="white" stroke="#666666" points="471.25,-426.53 405.75,-426.53 405.75,-405.78 471.25,-405.78 471.25,-426.53"/>
<text xml:space="preserve" text-anchor="middle" x="438.5" y="-413.03" font-family="Helvetica,sans-Serif" font-size="10.00">strnz__cat</text>
</a>
</g>
</g>
<!-- Node9&#45;&gt;Node10 -->
<g id="edge11_Node000009_Node000010" class="edge">
<title>Node9&#45;&gt;Node10</title>
<g id="a_edge11_Node000009_Node000010"><a xlink:title=" ">
<path fill="none" stroke="#63b8ff" d="M356.43,-416.15C368.69,-416.15 381.91,-416.15 394.05,-416.15"/>
<polygon fill="#63b8ff" stroke="#63b8ff" points="393.77,-419.66 403.77,-416.16 393.77,-412.66 393.77,-419.66"/>
</a>
</g>
</g>
<!-- Node12&#45;&gt;Node5 -->
<g id="edge14_Node000012_Node000005" class="edge">
<title>Node12&#45;&gt;Node5</title>
<g id="a_edge14_Node000012_Node000005"><a xlink:title=" ">
<path fill="none" stroke="#63b8ff" d="M347.32,-108.15C365.16,-108.15 386.45,-108.15 403.87,-108.15"/>
<polygon fill="#63b8ff" stroke="#63b8ff" points="403.7,-111.66 413.7,-108.16 403.7,-104.66 403.7,-111.66"/>
</a>
</g>
</g>
<!-- Node13&#45;&gt;Node14 -->
<g id="edge16_Node000013_Node000014" class="edge">
<title>Node13&#45;&gt;Node14</title>
<g id="a_edge16_Node000013_Node000014"><a xlink:title=" ">
<path fill="none" stroke="#63b8ff" d="M484.63,-32.15C497.69,-32.15 511.86,-32.15 524.58,-32.15"/>
<polygon fill="#63b8ff" stroke="#63b8ff" points="524.27,-35.66 534.27,-32.16 524.27,-28.66 524.27,-35.66"/>
</a>
</g>
</g>
<!-- Node17&#45;&gt;Node3 -->
<g id="edge23_Node000017_Node000003" class="edge">
<title>Node17&#45;&gt;Node3</title>
<g id="a_edge23_Node000017_Node000003"><a xlink:title=" ">
<path fill="none" stroke="#63b8ff" d="M339.41,-258.14C375.91,-254.53 439.54,-253.31 484.75,-280.15 521.36,-301.89 545.08,-347.77 556.49,-374.86"/>
<polygon fill="#63b8ff" stroke="#63b8ff" points="553.23,-376.12 560.19,-384.11 559.73,-373.52 553.23,-376.12"/>
</a>
</g>
</g>
<!-- Node18 -->
<g id="Node000018" class="node">
<title>Node18</title>
<g id="a_Node000018"><a xlink:href="../../dc/d40/dwin_8c.html#ac9adcf7339be4a05ab1a7350c236b8a5" target="_top" xlink:title="Draw a box around the specified window.">
<polygon fill="white" stroke="#666666" points="458.12,-309.53 418.88,-309.53 418.88,-288.78 458.12,-288.78 458.12,-309.53"/>
<text xml:space="preserve" text-anchor="middle" x="438.5" y="-296.03" font-family="Helvetica,sans-Serif" font-size="10.00">cbox</text>
</a>
</g>
</g>
<!-- Node17&#45;&gt;Node18 -->
<g id="edge22_Node000017_Node000018" class="edge">
<title>Node17&#45;&gt;Node18</title>
<g id="a_edge22_Node000017_Node000018"><a xlink:title=" ">
<path fill="none" stroke="#63b8ff" d="M339.41,-270.55C359.8,-276.5 387.07,-284.45 407.68,-290.46"/>
<polygon fill="#63b8ff" stroke="#63b8ff" points="406.62,-293.8 417.2,-293.24 408.58,-287.08 406.62,-293.8"/>
</a>
</g>
</g>
<!-- Node19&#45;&gt;Node4 -->
<g id="edge25_Node000019_Node000004" class="edge">
<title>Node19&#45;&gt;Node4</title>
<g id="a_edge25_Node000019_Node000004"><a xlink:title=" ">
<path fill="none" stroke="#63b8ff" d="M280.85,-228.62C262.43,-229.87 237.72,-230.21 215.88,-229.64"/>
<polygon fill="#63b8ff" stroke="#63b8ff" points="216.05,-226.14 205.94,-229.3 215.81,-233.14 216.05,-226.14"/>
</a>
</g>
</g>
<!-- Node20 -->
<g id="Node000020" class="node">
<title>Node20</title>
<g id="a_Node000020"><a xlink:href="../../dc/d40/dwin_8c.html#a4298f891699300bfc4e6e56fd2a8d574" target="_top" xlink:title="Get keycode from chyron.">
<polygon fill="white" stroke="#666666" points="484.75,-233.53 392.25,-233.53 392.25,-212.78 484.75,-212.78 484.75,-233.53"/>
<text xml:space="preserve" text-anchor="middle" x="438.5" y="-220.03" font-family="Helvetica,sans-Serif" font-size="10.00">get_chyron_key</text>
</a>
</g>
</g>
<!-- Node19&#45;&gt;Node20 -->
<g id="edge26_Node000019_Node000020" class="edge">
<title>Node19&#45;&gt;Node20</title>
<g id="a_edge26_Node000019_Node000020"><a xlink:title=" ">
<path fill="none" stroke="#63b8ff" d="M338.47,-223.15C350.79,-223.15 365.75,-223.15 380.28,-223.15"/>
<polygon fill="#63b8ff" stroke="#63b8ff" points="380.26,-226.66 390.26,-223.16 380.26,-219.66 380.26,-226.66"/>
</a>
</g>
</g>
<!-- Node21 -->
<g id="Node000021" class="node">
<title>Node21</title>
<g id="a_Node000021"><a xlink:href="../../da/d12/sig_8c.html#a79c3e22498eb2346543aa9c86fd22e58" target="_top" xlink:title="Handle received signals and prompt user for action.">
<polygon fill="white" stroke="#666666" points="480.25,-194.53 396.75,-194.53 396.75,-173.78 480.25,-173.78 480.25,-194.53"/>
<text xml:space="preserve" text-anchor="middle" x="438.5" y="-181.03" font-family="Helvetica,sans-Serif" font-size="10.00">handle_signal</text>
</a>
</g>
</g>
<!-- Node19&#45;&gt;Node21 -->
<g id="edge27_Node000019_Node000021" class="edge">
<title>Node19&#45;&gt;Node21</title>
<g id="a_edge27_Node000019_Node000021"><a xlink:title=" ">
<path fill="none" stroke="#63b8ff" d="M338.47,-214.6C354.05,-209.81 373.88,-203.71 391.69,-198.24"/>
<polygon fill="#63b8ff" stroke="#63b8ff" points="392.48,-201.65 401.01,-195.37 390.43,-194.96 392.48,-201.65"/>
</a>
</g>
</g>
<!-- Node21&#45;&gt;Node3 -->
<g id="edge30_Node000021_Node000003" class="edge">
<title>Node21&#45;&gt;Node3</title>
<g id="a_edge30_Node000021_Node000003"><a xlink:title=" ">
<path fill="none" stroke="#63b8ff" d="M472.12,-194.89C476.75,-197.41 481.15,-200.47 484.75,-204.15 532.69,-253.19 553.4,-335.19 560.89,-374.22"/>
<polygon fill="#63b8ff" stroke="#63b8ff" points="557.43,-374.77 562.64,-384 564.32,-373.54 557.43,-374.77"/>
</a>
</g>
</g>
<!-- Node21&#45;&gt;Node7 -->
<g id="edge28_Node000021_Node000007" class="edge">
<title>Node21&#45;&gt;Node7</title>
<g id="a_edge28_Node000021_Node000007"><a xlink:title=" ">
<path fill="none" stroke="#63b8ff" d="M480.74,-178.13C522.14,-172.09 586.53,-162.69 634.8,-155.64"/>
<polygon fill="#63b8ff" stroke="#63b8ff" points="635.19,-159.12 644.57,-154.21 634.17,-152.19 635.19,-159.12"/>
</a>
</g>
</g>
<!-- Node21&#45;&gt;Node14 -->
<g id="edge29_Node000021_Node000014" class="edge">
<title>Node21&#45;&gt;Node14</title>
<g id="a_edge29_Node000021_Node000014"><a xlink:title=" ">
<path fill="none" stroke="#63b8ff" d="M448.09,-173.71C468.88,-148.43 522.12,-83.69 548.78,-51.27"/>
<polygon fill="#63b8ff" stroke="#63b8ff" points="551.24,-53.79 554.89,-43.84 545.83,-49.35 551.24,-53.79"/>
</a>
</g>
</g>
<!-- Node22&#45;&gt;Node3 -->
<g id="edge33_Node000022_Node000003" class="edge">
<title>Node22&#45;&gt;Node3</title>
<g id="a_edge33_Node000022_Node000003"><a xlink:title=" ">
<path fill="none" stroke="#63b8ff" d="M349.41,-454.46C385.2,-452.94 439.48,-448.4 484.75,-435.15 503.02,-429.81 522.22,-420.55 537.2,-412.39"/>
<polygon fill="#63b8ff" stroke="#63b8ff" points="538.51,-415.67 545.52,-407.72 535.09,-409.56 538.51,-415.67"/>
</a>
</g>
</g>
<!-- Node22&#45;&gt;Node10 -->
<g id="edge32_Node000022_Node000010" class="edge">
<title>Node22&#45;&gt;Node10</title>
<g id="a_edge32_Node000022_Node000010"><a xlink:title=" ">
<path fill="none" stroke="#63b8ff" d="M345.97,-444.29C361.1,-439.64 378.9,-434.17 394.77,-429.29"/>
<polygon fill="#63b8ff" stroke="#63b8ff" points="395.41,-432.76 403.94,-426.47 393.35,-426.06 395.41,-432.76"/>
</a>
</g>
</g>
</g>
</svg>
