<?xml version="1.0" encoding="UTF-8" standalone="no"?>
<!DOCTYPE svg PUBLIC "-//W3C//DTD SVG 1.1//EN"
 "http://www.w3.org/Graphics/SVG/1.1/DTD/svg11.dtd">
<!-- Generated by graphviz version 15.0.0 (0)
 -->
<!-- Title: popup_ckeys Pages: 1 -->
<!--zoomable 667 -->

<svg id="main" version="1.1" xmlns="http://www.w3.org/2000/svg" xmlns:xlink="http://www.w3.org/1999/xlink" xml:space="preserve" onload="init(evt)">

<style type="text/css"><![CDATA[
.node, .edge {opacity: 0.7;}
.node.selected, .edge.selected {opacity: 1;}
.edge:hover path { stroke: red; }
.edge:hover polygon { stroke: red; fill: red; }
]]></style>

<defs>
  <circle id="rim" cx="0" cy="0" r="7"/>
  <circle id="rim2" cx="0" cy="0" r="3.5"/>
  <g id="zoomPlus">
    <use xlink:href="#rim" fill="#404040"><set attributeName="fill" to="#808080" begin="zoomplus.mouseover" end="zoomplus.mouseout"/></use>
    <path d="M-4,0h8M0,-4v8" fill="none" stroke="white" stroke-width="1.5" pointer-events="none"/>
  </g>
  <g id="zoomMin">
    <use xlink:href="#rim" fill="#404040"><set attributeName="fill" to="#808080" begin="zoomminus.mouseover" end="zoomminus.mouseout"/></use>
    <path d="M-4,0h8" fill="none" stroke="white" stroke-width="1.5" pointer-events="none"/>
  </g>
  <g id="arrowUp" transform="translate(30 24)">
    <use xlink:href="#rim"/>
    <path pointer-events="none" fill="none" stroke="white" stroke-width="1.5" d="M0,-3.0v7 M-2.5,-0.5L0,-3.0L2.5,-0.5"/>
  </g>
  <g id="arrowRight" transform="rotate(90) translate(36 -43)">
    <use xlink:href="#rim"/>
    <path pointer-events="none" fill="none" stroke="white" stroke-width="1.5" d="M0,-3.0v7 M-2.5,-0.5L0,-3.0L2.5,-0.5"/>
  </g>
  <g id="arrowDown" transform="rotate(180) translate(-30 -48)">
    <use xlink:href="#rim"/>
    <path pointer-events="none" fill="none" stroke="white" stroke-width="1.5" d="M0,-3.0v7 M-2.5,-0.5L0,-3.0L2.5,-0.5"/>
  </g>
  <g id="arrowLeft" transform="rotate(270) translate(-36 17)">
    <use xlink:href="#rim"/>
    <path pointer-events="none" fill="none" stroke="white" stroke-width="1.5" d="M0,-3.0v7 M-2.5,-0.5L0,-3.0L2.5,-0.5"/>
  </g>
  <g id="resetDef">
    <use xlink:href="#rim2" fill="#404040"><set attributeName="fill" to="#808080" begin="reset.mouseover" end="reset.mouseout"/></use>
  </g>
</defs>
<script type="application/ecmascript">
var viewWidth = 756;
var viewHeight = 667;
var sectionId = 'dynsection-1';
</script>
<script type="application/ecmascript" xlink:href="../../svg.min.js"/>
<svg id="graph" class="graph">
<g id="viewport">
<title>popup_ckeys</title>
<!-- Node1 -->
<g id="Node000001" class="node">
<title>Node1</title>
<g id="a_Node000001"><a xlink:title="Display Curses Keys Responds to curses keys and mouse events, displaying the key code and description...">
<polygon fill="#999999" stroke="#666666" points="79,-287.75 0,-287.75 0,-267 79,-267 79,-287.75"/>
<text xml:space="preserve" text-anchor="middle" x="39.5" y="-274.25" font-family="Helvetica,sans-Serif" font-size="10.00">popup_ckeys</text>
</a>
</g>
</g>
<!-- Node2 -->
<g id="Node000002" class="node">
<title>Node2</title>
<g id="a_Node000002"><a xlink:href="../../de/dcb/a01263.html#ga38d50d5b402b7b2328874329ae003d7d" target="_top" xlink:title="Create a new window with optional box and title.">
<polygon fill="white" stroke="#666666" points="307.12,-593.75 247.62,-593.75 247.62,-573 307.12,-573 307.12,-593.75"/>
<text xml:space="preserve" text-anchor="middle" x="277.38" y="-580.25" font-family="Helvetica,sans-Serif" font-size="10.00">box_new</text>
</a>
</g>
</g>
<!-- Node1&#45;&gt;Node2 -->
<g id="edge1_Node000001_Node000002" class="edge">
<title>Node1&#45;&gt;Node2</title>
<g id="a_edge1_Node000001_Node000002"><a xlink:title=" ">
<path fill="none" stroke="#63b8ff" d="M44.27,-288.06C53.71,-313.97 80.11,-381.59 115,-430.38 157.19,-489.36 177.12,-496.57 230.75,-545.38 238.31,-552.26 246.86,-559.51 254.5,-565.81"/>
<polygon fill="#63b8ff" stroke="#63b8ff" points="251.8,-568.13 261.76,-571.74 256.23,-562.71 251.8,-568.13"/>
</a>
</g>
</g>
<!-- Node7 -->
<g id="Node000007" class="node">
<title>Node7</title>
<g id="a_Node000007"><a xlink:href="../../de/dcb/a01263.html#ga9dd598e1d49c8764af1eec42c682623e" target="_top" xlink:title="Delete the current window and its associated box window.">
<polygon fill="white" stroke="#666666" points="720,-428.75 666.5,-428.75 666.5,-408 720,-408 720,-428.75"/>
<text xml:space="preserve" text-anchor="middle" x="693.25" y="-415.25" font-family="Helvetica,sans-Serif" font-size="10.00">win_del</text>
</a>
</g>
</g>
<!-- Node1&#45;&gt;Node7 -->
<g id="edge48_Node000001_Node000007" class="edge">
<title>Node1&#45;&gt;Node7</title>
<g id="a_edge48_Node000001_Node000007"><a xlink:title=" ">
<path fill="none" stroke="#63b8ff" d="M41.71,-287.99C49.36,-349.69 96.71,-659.38 276.38,-659.38 276.38,-659.38 276.38,-659.38 419.62,-659.38 455.77,-659.38 571.19,-597.38 602.75,-567.38 642.31,-529.76 670.65,-470.91 683.87,-439.61"/>
<polygon fill="#63b8ff" stroke="#63b8ff" points="687.07,-441.05 687.62,-430.47 680.59,-438.4 687.07,-441.05"/>
</a>
</g>
</g>
<!-- Node11 -->
<g id="Node000011" class="node">
<title>Node11</title>
<g id="a_Node000011"><a xlink:href="../../da/dd8/a01265.html#gace6da1791caec4c3aa1246533f4d974a" target="_top" xlink:title="Display an error message window or print to stderr.">
<polygon fill="white" stroke="#666666" points="194.75,-287.75 115,-287.75 115,-267 194.75,-267 194.75,-287.75"/>
<text xml:space="preserve" text-anchor="middle" x="154.88" y="-274.25" font-family="Helvetica,sans-Serif" font-size="10.00">display_error</text>
</a>
</g>
</g>
<!-- Node1&#45;&gt;Node11 -->
<g id="edge12_Node000001_Node000011" class="edge">
<title>Node1&#45;&gt;Node11</title>
<g id="a_edge12_Node000001_Node000011"><a xlink:title=" ">
<path fill="none" stroke="#63b8ff" d="M79.2,-277.38C86.96,-277.38 95.22,-277.38 103.32,-277.38"/>
<polygon fill="#63b8ff" stroke="#63b8ff" points="103.07,-280.88 113.07,-277.38 103.07,-273.88 103.07,-280.88"/>
</a>
</g>
</g>
<!-- Node19 -->
<g id="Node000019" class="node">
<title>Node19</title>
<g id="a_Node000019"><a xlink:href="../../da/d00/a01270.html#ga0de2e40df9bd7efc8fd9afb8ad2257e6" target="_top" xlink:title="safer alternative to strncpy">
<polygon fill="white" stroke="#666666" points="311.25,-135.75 243.5,-135.75 243.5,-115 311.25,-115 311.25,-135.75"/>
<text xml:space="preserve" text-anchor="middle" x="277.38" y="-122.25" font-family="Helvetica,sans-Serif" font-size="10.00">strnz__cpy</text>
</a>
</g>
</g>
<!-- Node1&#45;&gt;Node19 -->
<g id="edge47_Node000001_Node000019" class="edge">
<title>Node1&#45;&gt;Node19</title>
<g id="a_edge47_Node000001_Node000019"><a xlink:title=" ">
<path fill="none" stroke="#63b8ff" d="M55.43,-266.52C87.05,-243.7 163.41,-189.58 230.75,-149.38 235.19,-146.72 239.96,-144.04 244.67,-141.49"/>
<polygon fill="#63b8ff" stroke="#63b8ff" points="246.22,-144.62 253.42,-136.85 242.95,-138.44 246.22,-144.62"/>
</a>
</g>
</g>
<!-- Node22 -->
<g id="Node000022" class="node">
<title>Node22</title>
<g id="a_Node000022"><a xlink:href="../../d8/db9/a00725.html#a0667873879b5846c3fe2fa2cc96059d6" target="_top" xlink:title=" ">
<polygon fill="white" stroke="#666666" points="460.38,-97.75 376.88,-97.75 376.88,-77 460.38,-77 460.38,-97.75"/>
<text xml:space="preserve" text-anchor="middle" x="418.62" y="-84.25" font-family="Helvetica,sans-Serif" font-size="10.00">handle_signal</text>
</a>
</g>
</g>
<!-- Node1&#45;&gt;Node22 -->
<g id="edge33_Node000001_Node000022" class="edge">
<title>Node1&#45;&gt;Node22</title>
<g id="a_edge33_Node000001_Node000022"><a xlink:title=" ">
<path fill="none" stroke="#63b8ff" d="M45.57,-266.59C63.91,-229.11 131.02,-104.77 230.75,-67.38 279.27,-49.18 339.52,-61.26 378.26,-73.05"/>
<polygon fill="#63b8ff" stroke="#63b8ff" points="377.04,-76.34 387.63,-76.05 379.17,-69.67 377.04,-76.34"/>
</a>
</g>
</g>
<!-- Node25 -->
<g id="Node000025" class="node">
<title>Node25</title>
<g id="a_Node000025"><a xlink:href="../../da/dd8/a01265.html#ga61b4f28456257f68ed042bed7f187efd" target="_top" xlink:title="Display a simple error message window or print to stderr.">
<polygon fill="white" stroke="#666666" points="177.5,-421.75 132.25,-421.75 132.25,-401 177.5,-401 177.5,-421.75"/>
<text xml:space="preserve" text-anchor="middle" x="154.88" y="-408.25" font-family="Helvetica,sans-Serif" font-size="10.00">Perror</text>
</a>
</g>
</g>
<!-- Node1&#45;&gt;Node25 -->
<g id="edge34_Node000001_Node000025" class="edge">
<title>Node1&#45;&gt;Node25</title>
<g id="a_edge34_Node000001_Node000025"><a xlink:title=" ">
<path fill="none" stroke="#63b8ff" d="M49.4,-287.89C68.34,-310.28 112.93,-362.99 137.29,-391.77"/>
<polygon fill="#63b8ff" stroke="#63b8ff" points="134.6,-394.01 143.73,-399.38 139.94,-389.49 134.6,-394.01"/>
</a>
</g>
</g>
<!-- Node26 -->
<g id="Node000026" class="node">
<title>Node26</title>
<g id="a_Node000026"><a xlink:href="../../da/d00/a01270.html#gaa0145c044cfdde3a1c83323410a59f25" target="_top" xlink:title="safer alternative to strncat">
<polygon fill="white" stroke="#666666" points="187.62,-20.75 122.12,-20.75 122.12,0 187.62,0 187.62,-20.75"/>
<text xml:space="preserve" text-anchor="middle" x="154.88" y="-7.25" font-family="Helvetica,sans-Serif" font-size="10.00">strnz__cat</text>
</a>
</g>
</g>
<!-- Node1&#45;&gt;Node26 -->
<g id="edge46_Node000001_Node000026" class="edge">
<title>Node1&#45;&gt;Node26</title>
<g id="a_edge46_Node000001_Node000026"><a xlink:title=" ">
<path fill="none" stroke="#63b8ff" d="M41.14,-266.7C43.82,-230.38 56.88,-109.64 115,-34.38 116.78,-32.07 118.85,-29.93 121.09,-27.96"/>
<polygon fill="#63b8ff" stroke="#63b8ff" points="123.12,-30.81 129.1,-22.07 118.97,-25.17 123.12,-30.81"/>
</a>
</g>
</g>
<!-- Node3 -->
<g id="Node000003" class="node">
<title>Node3</title>
<g id="a_Node000003"><a xlink:href="../../da/dd8/a01265.html#ga8f6c45ca4a7f6a41c4c88314e697565a" target="_top" xlink:title="Abnormal program termination.">
<polygon fill="white" stroke="#666666" points="441.62,-385.75 395.62,-385.75 395.62,-365 441.62,-365 441.62,-385.75"/>
<text xml:space="preserve" text-anchor="middle" x="418.62" y="-372.25" font-family="Helvetica,sans-Serif" font-size="10.00">abend</text>
</a>
</g>
</g>
<!-- Node2&#45;&gt;Node3 -->
<g id="edge2_Node000002_Node000003" class="edge">
<title>Node2&#45;&gt;Node3</title>
<g id="a_edge2_Node000002_Node000003"><a xlink:title=" ">
<path fill="none" stroke="#63b8ff" d="M287.52,-572.75C297.03,-561.52 312.15,-543.15 324,-526.38 355.88,-481.25 388.98,-425.35 405.99,-395.84"/>
<polygon fill="#63b8ff" stroke="#63b8ff" points="409,-397.63 410.93,-387.22 402.92,-394.15 409,-397.63"/>
</a>
</g>
</g>
<!-- Node8 -->
<g id="Node000008" class="node">
<title>Node8</title>
<g id="a_Node000008"><a xlink:href="../../da/d00/a01270.html#ga63eb94756fb011a456a3dec900709cd8" target="_top" xlink:title="ssnprintf was designed to be a safer alternative to snprintf.">
<polygon fill="white" stroke="#666666" points="448,-515.75 389.25,-515.75 389.25,-495 448,-495 448,-515.75"/>
<text xml:space="preserve" text-anchor="middle" x="418.62" y="-502.25" font-family="Helvetica,sans-Serif" font-size="10.00">ssnprintf</text>
</a>
</g>
</g>
<!-- Node2&#45;&gt;Node8 -->
<g id="edge9_Node000002_Node000008" class="edge">
<title>Node2&#45;&gt;Node8</title>
<g id="a_edge9_Node000002_Node000008"><a xlink:title=" ">
<path fill="none" stroke="#63b8ff" d="M301.84,-572.58C309.19,-568.8 317.16,-564.27 324,-559.38 341.9,-546.58 341.19,-536.79 360,-525.38 365.68,-521.93 372.05,-518.97 378.41,-516.46"/>
<polygon fill="#63b8ff" stroke="#63b8ff" points="379.34,-519.85 387.58,-513.18 376.99,-513.25 379.34,-519.85"/>
</a>
</g>
</g>
<!-- Node9 -->
<g id="Node000009" class="node">
<title>Node9</title>
<g id="a_Node000009"><a xlink:href="../../d3/d51/a01264.html#ga3819f27928a066b4d6a2a7ff30a37263" target="_top" xlink:title="Convert a multibyte string to an array of cchar_t complex characters.">
<polygon fill="white" stroke="#666666" points="448.38,-554.75 388.88,-554.75 388.88,-534 448.38,-534 448.38,-554.75"/>
<text xml:space="preserve" text-anchor="middle" x="418.62" y="-541.25" font-family="Helvetica,sans-Serif" font-size="10.00">str_to_cc</text>
</a>
</g>
</g>
<!-- Node2&#45;&gt;Node9 -->
<g id="edge10_Node000002_Node000009" class="edge">
<title>Node2&#45;&gt;Node9</title>
<g id="a_edge10_Node000002_Node000009"><a xlink:title=" ">
<path fill="none" stroke="#63b8ff" d="M307.57,-575.2C327.9,-569.51 355.27,-561.84 377.63,-555.58"/>
<polygon fill="#63b8ff" stroke="#63b8ff" points="378.33,-559.02 387.01,-552.95 376.44,-552.27 378.33,-559.02"/>
</a>
</g>
</g>
<!-- Node10 -->
<g id="Node000010" class="node">
<title>Node10</title>
<g id="a_Node000010"><a xlink:href="../../de/dcb/a01263.html#ga84e02ea4b1a3c2da71b7f7dc1f78d31b" target="_top" xlink:title="Create a new window with specified dimensions and position.">
<polygon fill="white" stroke="#666666" points="448,-593.75 389.25,-593.75 389.25,-573 448,-573 448,-593.75"/>
<text xml:space="preserve" text-anchor="middle" x="418.62" y="-580.25" font-family="Helvetica,sans-Serif" font-size="10.00">win_new</text>
</a>
</g>
</g>
<!-- Node2&#45;&gt;Node10 -->
<g id="edge11_Node000002_Node000010" class="edge">
<title>Node2&#45;&gt;Node10</title>
<g id="a_edge11_Node000002_Node000010"><a xlink:title=" ">
<path fill="none" stroke="#63b8ff" d="M307.57,-583.38C327.85,-583.38 355.13,-583.38 377.46,-583.38"/>
<polygon fill="#63b8ff" stroke="#63b8ff" points="377.44,-586.88 387.44,-583.38 377.44,-579.88 377.44,-586.88"/>
</a>
</g>
</g>
<!-- Node4 -->
<g id="Node000004" class="node">
<title>Node4</title>
<g id="a_Node000004"><a xlink:href="../../de/dcb/a01263.html#gafc0985a403e3eac0b2cd8f0fab500256" target="_top" xlink:title="Gracefully shut down NCurses and restore terminal settings.">
<polygon fill="white" stroke="#666666" points="602.75,-385.75 513.25,-385.75 513.25,-365 602.75,-365 602.75,-385.75"/>
<text xml:space="preserve" text-anchor="middle" x="558" y="-372.25" font-family="Helvetica,sans-Serif" font-size="10.00">destroy_curses</text>
</a>
</g>
</g>
<!-- Node3&#45;&gt;Node4 -->
<g id="edge3_Node000003_Node000004" class="edge">
<title>Node3&#45;&gt;Node4</title>
<g id="a_edge3_Node000003_Node000004"><a xlink:title=" ">
<path fill="none" stroke="#63b8ff" d="M442,-375.38C458.17,-375.38 480.74,-375.38 501.61,-375.38"/>
<polygon fill="#63b8ff" stroke="#63b8ff" points="501.46,-378.88 511.46,-375.38 501.46,-371.88 501.46,-378.88"/>
</a>
</g>
</g>
<!-- Node5 -->
<g id="Node000005" class="node">
<title>Node5</title>
<g id="a_Node000005"><a xlink:href="../../d9/de7/a01279.html#gac5e3adb304b78910fc77761ef6a743f0" target="_top" xlink:title="restore_shell_tioctl() &#45; restore shell terminal settings">
<polygon fill="white" stroke="#666666" points="747.75,-323.75 638.75,-323.75 638.75,-303 747.75,-303 747.75,-323.75"/>
<text xml:space="preserve" text-anchor="middle" x="693.25" y="-310.25" font-family="Helvetica,sans-Serif" font-size="10.00">restore_shell_tioctl</text>
</a>
</g>
</g>
<!-- Node3&#45;&gt;Node5 -->
<g id="edge7_Node000003_Node000005" class="edge">
<title>Node3&#45;&gt;Node5</title>
<g id="a_edge7_Node000003_Node000005"><a xlink:title=" ">
<path fill="none" stroke="#63b8ff" d="M441.83,-368.72C460.73,-363.17 488.64,-355.26 513.25,-349.38 550.78,-340.4 593.1,-331.82 627.16,-325.29"/>
<polygon fill="#63b8ff" stroke="#63b8ff" points="627.72,-328.75 636.89,-323.44 626.41,-321.87 627.72,-328.75"/>
</a>
</g>
</g>
<!-- Node6 -->
<g id="Node000006" class="node">
<title>Node6</title>
<g id="a_Node000006"><a xlink:href="../../d8/d0d/a01280.html#ga06c1eb6cf3649dc187115565409f91af" target="_top" xlink:title="Set signal handlers to default behavior.">
<polygon fill="white" stroke="#666666" points="733.88,-380.75 652.62,-380.75 652.62,-360 733.88,-360 733.88,-380.75"/>
<text xml:space="preserve" text-anchor="middle" x="693.25" y="-367.25" font-family="Helvetica,sans-Serif" font-size="10.00">sig_dfl_mode</text>
</a>
</g>
</g>
<!-- Node3&#45;&gt;Node6 -->
<g id="edge8_Node000003_Node000006" class="edge">
<title>Node3&#45;&gt;Node6</title>
<g id="a_edge8_Node000003_Node000006"><a xlink:title=" ">
<path fill="none" stroke="#63b8ff" d="M441.76,-369.58C460.61,-364.96 488.5,-358.86 513.25,-356.38 552.83,-352.4 563.09,-353.29 602.75,-356.38 615.24,-357.35 628.61,-359.07 641.12,-360.98"/>
<polygon fill="#63b8ff" stroke="#63b8ff" points="640.39,-364.41 650.81,-362.53 641.49,-357.49 640.39,-364.41"/>
</a>
</g>
</g>
<!-- Node4&#45;&gt;Node5 -->
<g id="edge4_Node000004_Node000005" class="edge">
<title>Node4&#45;&gt;Node5</title>
<g id="a_edge4_Node000004_Node000005"><a xlink:title=" ">
<path fill="none" stroke="#63b8ff" d="M582.21,-364.58C603.42,-354.71 635.02,-340 658.93,-328.88"/>
<polygon fill="#63b8ff" stroke="#63b8ff" points="660.34,-332.08 667.93,-324.69 657.39,-325.73 660.34,-332.08"/>
</a>
</g>
</g>
<!-- Node4&#45;&gt;Node6 -->
<g id="edge5_Node000004_Node000006" class="edge">
<title>Node4&#45;&gt;Node6</title>
<g id="a_edge5_Node000004_Node000006"><a xlink:title=" ">
<path fill="none" stroke="#63b8ff" d="M603,-373.72C615.19,-373.27 628.52,-372.77 641.08,-372.3"/>
<polygon fill="#63b8ff" stroke="#63b8ff" points="640.97,-375.8 650.83,-371.93 640.71,-368.81 640.97,-375.8"/>
</a>
</g>
</g>
<!-- Node4&#45;&gt;Node7 -->
<g id="edge6_Node000004_Node000007" class="edge">
<title>Node4&#45;&gt;Node7</title>
<g id="a_edge6_Node000004_Node000007"><a xlink:title=" ">
<path fill="none" stroke="#63b8ff" d="M592.62,-386.23C611.79,-392.41 635.83,-400.17 655.49,-406.51"/>
<polygon fill="#63b8ff" stroke="#63b8ff" points="654.17,-409.76 664.76,-409.5 656.32,-403.1 654.17,-409.76"/>
</a>
</g>
</g>
<!-- Node11&#45;&gt;Node2 -->
<g id="edge14_Node000011_Node000002" class="edge">
<title>Node11&#45;&gt;Node2</title>
<g id="a_edge14_Node000011_Node000002"><a xlink:title=" ">
<path fill="none" stroke="#63b8ff" d="M159.75,-288.08C167.02,-308.32 183.02,-353.65 194.75,-392.38 212.63,-451.39 202.89,-471.36 230.75,-526.38 237.75,-540.19 248.46,-553.81 257.75,-564.26"/>
<polygon fill="#63b8ff" stroke="#63b8ff" points="255.03,-566.48 264.39,-571.45 260.17,-561.73 255.03,-566.48"/>
</a>
</g>
</g>
<!-- Node11&#45;&gt;Node3 -->
<g id="edge13_Node000011_Node000003" class="edge">
<title>Node11&#45;&gt;Node3</title>
<g id="a_edge13_Node000011_Node000003"><a xlink:title=" ">
<path fill="none" stroke="#63b8ff" d="M178.06,-266.53C212.3,-251.5 278.79,-229.29 324,-258.38 356.45,-279.25 334.92,-308.06 360,-337.38 367.15,-345.73 376.58,-352.98 385.74,-358.85"/>
<polygon fill="#63b8ff" stroke="#63b8ff" points="383.77,-361.75 394.15,-363.87 387.36,-355.74 383.77,-361.75"/>
</a>
</g>
</g>
<!-- Node11&#45;&gt;Node7 -->
<g id="edge26_Node000011_Node000007" class="edge">
<title>Node11&#45;&gt;Node7</title>
<g id="a_edge26_Node000011_Node000007"><a xlink:title=" ">
<path fill="none" stroke="#63b8ff" d="M162.56,-266.7C177.13,-243.84 211.95,-191.49 230.75,-182.38 280.03,-158.47 435.4,-147.03 477.25,-182.38 550.27,-244.04 444.5,-327.99 513.25,-394.38 550.61,-430.45 614.57,-429.89 655.06,-425"/>
<polygon fill="#63b8ff" stroke="#63b8ff" points="655.39,-428.49 664.82,-423.66 654.43,-421.55 655.39,-428.49"/>
</a>
</g>
</g>
<!-- Node11&#45;&gt;Node8 -->
<g id="edge23_Node000011_Node000008" class="edge">
<title>Node11&#45;&gt;Node8</title>
<g id="a_edge23_Node000011_Node000008"><a xlink:title=" ">
<path fill="none" stroke="#63b8ff" d="M195.17,-287.15C238.36,-298.5 304.23,-317.78 324,-334.38 330.45,-339.79 383.51,-440.24 406.77,-484.61"/>
<polygon fill="#63b8ff" stroke="#63b8ff" points="403.55,-486.01 411.29,-493.24 409.76,-482.76 403.55,-486.01"/>
</a>
</g>
</g>
<!-- Node12 -->
<g id="Node000012" class="node">
<title>Node12</title>
<g id="a_Node000012"><a xlink:href="../../d7/d73/a01266.html#ga645871e46277e31736bc36d0f3dce4bd" target="_top" xlink:title="construct the chyron string from the chyron structure">
<polygon fill="white" stroke="#666666" points="324,-287.75 230.75,-287.75 230.75,-267 324,-267 324,-287.75"/>
<text xml:space="preserve" text-anchor="middle" x="277.38" y="-274.25" font-family="Helvetica,sans-Serif" font-size="10.00">compile_chyron</text>
</a>
</g>
</g>
<!-- Node11&#45;&gt;Node12 -->
<g id="edge15_Node000011_Node000012" class="edge">
<title>Node11&#45;&gt;Node12</title>
<g id="a_edge15_Node000011_Node000012"><a xlink:title=" ">
<path fill="none" stroke="#63b8ff" d="M195,-277.38C202.66,-277.38 210.84,-277.38 218.95,-277.38"/>
<polygon fill="#63b8ff" stroke="#63b8ff" points="218.8,-280.88 228.8,-277.38 218.8,-273.88 218.8,-280.88"/>
</a>
</g>
</g>
<!-- Node14 -->
<g id="Node000014" class="node">
<title>Node14</title>
<g id="a_Node000014"><a xlink:href="../../d7/d73/a01266.html#ga3f3feb40fd703913c5c136331f627c91" target="_top" xlink:title="Destroy Chyron structure.">
<polygon fill="white" stroke="#666666" points="322.88,-363.75 231.88,-363.75 231.88,-343 322.88,-343 322.88,-363.75"/>
<text xml:space="preserve" text-anchor="middle" x="277.38" y="-350.25" font-family="Helvetica,sans-Serif" font-size="10.00">destroy_chyron</text>
</a>
</g>
</g>
<!-- Node11&#45;&gt;Node14 -->
<g id="edge17_Node000011_Node000014" class="edge">
<title>Node11&#45;&gt;Node14</title>
<g id="a_edge17_Node000011_Node000014"><a xlink:title=" ">
<path fill="none" stroke="#63b8ff" d="M170.16,-288.08C184.97,-298.99 208.97,-316.15 230.75,-329.38 235.17,-332.06 239.93,-334.76 244.63,-337.32"/>
<polygon fill="#63b8ff" stroke="#63b8ff" points="242.91,-340.37 253.38,-341.97 246.19,-334.19 242.91,-340.37"/>
</a>
</g>
</g>
<!-- Node15 -->
<g id="Node000015" class="node">
<title>Node15</title>
<g id="a_Node000015"><a xlink:href="../../d7/d73/a01266.html#ga3854b84b6d0347dcb55947552f137d0d" target="_top" xlink:title="Display chyron on window.">
<polygon fill="white" stroke="#666666" points="322.12,-441.75 232.62,-441.75 232.62,-421 322.12,-421 322.12,-441.75"/>
<text xml:space="preserve" text-anchor="middle" x="277.38" y="-428.25" font-family="Helvetica,sans-Serif" font-size="10.00">display_chyron</text>
</a>
</g>
</g>
<!-- Node11&#45;&gt;Node15 -->
<g id="edge18_Node000011_Node000015" class="edge">
<title>Node11&#45;&gt;Node15</title>
<g id="a_edge18_Node000011_Node000015"><a xlink:title=" ">
<path fill="none" stroke="#63b8ff" d="M159.14,-287.92C167.32,-312.68 190.9,-375.19 230.75,-411.38 231.99,-412.5 233.3,-413.57 234.67,-414.59"/>
<polygon fill="#63b8ff" stroke="#63b8ff" points="232.68,-417.47 243.03,-419.74 236.36,-411.51 232.68,-417.47"/>
</a>
</g>
</g>
<!-- Node16 -->
<g id="Node000016" class="node">
<title>Node16</title>
<g id="a_Node000016"><a xlink:href="../../d7/d73/a01266.html#gad37d5808ff30ae6894780425d865abae" target="_top" xlink:title="Create and initialize Chyron structure.">
<polygon fill="white" stroke="#666666" points="314.62,-402.75 240.12,-402.75 240.12,-382 314.62,-382 314.62,-402.75"/>
<text xml:space="preserve" text-anchor="middle" x="277.38" y="-389.25" font-family="Helvetica,sans-Serif" font-size="10.00">new_chyron</text>
</a>
</g>
</g>
<!-- Node11&#45;&gt;Node16 -->
<g id="edge19_Node000011_Node000016" class="edge">
<title>Node11&#45;&gt;Node16</title>
<g id="a_edge19_Node000011_Node000016"><a xlink:title=" ">
<path fill="none" stroke="#63b8ff" d="M161.95,-288.2C173.23,-307.46 199.19,-347.97 230.75,-372.38 232.49,-373.72 234.34,-375 236.26,-376.21"/>
<polygon fill="#63b8ff" stroke="#63b8ff" points="234.45,-379.21 244.9,-380.95 237.81,-373.07 234.45,-379.21"/>
</a>
</g>
</g>
<!-- Node17 -->
<g id="Node000017" class="node">
<title>Node17</title>
<g id="a_Node000017"><a xlink:href="../../d7/d73/a01266.html#ga208ce92c197fdd6d2b007987e534aa3b" target="_top" xlink:title="Set chyron key with default color pair (cp_nt_rev).">
<polygon fill="white" stroke="#666666" points="323.25,-517.75 231.5,-517.75 231.5,-497 323.25,-497 323.25,-517.75"/>
<text xml:space="preserve" text-anchor="middle" x="277.38" y="-504.25" font-family="Helvetica,sans-Serif" font-size="10.00">set_chyron_key</text>
</a>
</g>
</g>
<!-- Node11&#45;&gt;Node17 -->
<g id="edge21_Node000011_Node000017" class="edge">
<title>Node11&#45;&gt;Node17</title>
<g id="a_edge21_Node000011_Node000017"><a xlink:title=" ">
<path fill="none" stroke="#63b8ff" d="M159.35,-287.98C168.69,-315.79 195.99,-392.61 230.75,-450.38 238.84,-463.82 249.77,-477.58 258.9,-488.22"/>
<polygon fill="#63b8ff" stroke="#63b8ff" points="256.11,-490.35 265.35,-495.54 261.37,-485.72 256.11,-490.35"/>
</a>
</g>
</g>
<!-- Node18 -->
<g id="Node000018" class="node">
<title>Node18</title>
<g id="a_Node000018"><a xlink:href="../../da/d00/a01270.html#ga636608f26d1193b5d860f2312cd8ee49" target="_top" xlink:title="terminates string at New Line, Carriage Return, or max_len">
<polygon fill="white" stroke="#666666" points="297.38,-96.75 257.38,-96.75 257.38,-76 297.38,-76 297.38,-96.75"/>
<text xml:space="preserve" text-anchor="middle" x="277.38" y="-83.25" font-family="Helvetica,sans-Serif" font-size="10.00">strnz</text>
</a>
</g>
</g>
<!-- Node11&#45;&gt;Node18 -->
<g id="edge24_Node000011_Node000018" class="edge">
<title>Node11&#45;&gt;Node18</title>
<g id="a_edge24_Node000011_Node000018"><a xlink:title=" ">
<path fill="none" stroke="#63b8ff" d="M157.76,-266.62C163.45,-237.14 183.09,-154.05 230.75,-106.38 235.26,-101.86 240.96,-98.29 246.78,-95.49"/>
<polygon fill="#63b8ff" stroke="#63b8ff" points="247.84,-98.84 255.78,-91.82 245.2,-92.36 247.84,-98.84"/>
</a>
</g>
</g>
<!-- Node11&#45;&gt;Node19 -->
<g id="edge25_Node000011_Node000019" class="edge">
<title>Node11&#45;&gt;Node19</title>
<g id="a_edge25_Node000011_Node000019"><a xlink:title=" ">
<path fill="none" stroke="#63b8ff" d="M161.13,-266.73C174.78,-239.42 211.58,-167.7 230.75,-149.38 233.62,-146.63 236.86,-144.12 240.27,-141.84"/>
<polygon fill="#63b8ff" stroke="#63b8ff" points="241.96,-144.9 248.79,-136.8 238.4,-138.87 241.96,-144.9"/>
</a>
</g>
</g>
<!-- Node20 -->
<g id="Node000020" class="node">
<title>Node20</title>
<g id="a_Node000020"><a xlink:href="../../de/dcb/a01263.html#ga2feaacf50ca2c7d00b73e21faca59702" target="_top" xlink:title="Wrapper for wgetch that handles signals, mouse events, checks for clicks on the chyron line,...">
<polygon fill="white" stroke="#666666" points="306,-211.75 248.75,-211.75 248.75,-191 306,-191 306,-211.75"/>
<text xml:space="preserve" text-anchor="middle" x="277.38" y="-198.25" font-family="Helvetica,sans-Serif" font-size="10.00">xwgetch</text>
</a>
</g>
</g>
<!-- Node11&#45;&gt;Node20 -->
<g id="edge27_Node000011_Node000020" class="edge">
<title>Node11&#45;&gt;Node20</title>
<g id="a_edge27_Node000011_Node000020"><a xlink:title=" ">
<path fill="none" stroke="#63b8ff" d="M163.11,-266.58C176.25,-253.07 205.05,-231.98 230.75,-216.38 233.23,-214.87 235.81,-213.36 238.42,-211.9"/>
<polygon fill="#63b8ff" stroke="#63b8ff" points="240.03,-215.01 247.23,-207.23 236.75,-208.82 240.03,-215.01"/>
</a>
</g>
</g>
<!-- Node13 -->
<g id="Node000013" class="node">
<title>Node13</title>
<g id="a_Node000013"><a xlink:href="../../d7/d73/a01266.html#gac8edae1b92a3fc0dc55aa1d91433700f" target="_top" xlink:title="Convert multibyte string to complex character array.">
<polygon fill="white" stroke="#666666" points="449.88,-328.75 387.38,-328.75 387.38,-308 449.88,-308 449.88,-328.75"/>
<text xml:space="preserve" text-anchor="middle" x="418.62" y="-315.25" font-family="Helvetica,sans-Serif" font-size="10.00">mb_to_cc</text>
</a>
</g>
</g>
<!-- Node12&#45;&gt;Node13 -->
<g id="edge16_Node000012_Node000013" class="edge">
<title>Node12&#45;&gt;Node13</title>
<g id="a_edge16_Node000012_Node000013"><a xlink:title=" ">
<path fill="none" stroke="#63b8ff" d="M314.96,-288.15C333.69,-293.66 356.56,-300.4 375.97,-306.11"/>
<polygon fill="#63b8ff" stroke="#63b8ff" points="374.9,-309.44 385.48,-308.91 376.88,-302.73 374.9,-309.44"/>
</a>
</g>
</g>
<!-- Node16&#45;&gt;Node3 -->
<g id="edge20_Node000016_Node000003" class="edge">
<title>Node16&#45;&gt;Node3</title>
<g id="a_edge20_Node000016_Node000003"><a xlink:title=" ">
<path fill="none" stroke="#63b8ff" d="M314.96,-387.91C336.35,-385.3 363.15,-382.03 384,-379.48"/>
<polygon fill="#63b8ff" stroke="#63b8ff" points="384.2,-382.98 393.7,-378.3 383.35,-376.03 384.2,-382.98"/>
</a>
</g>
</g>
<!-- Node17&#45;&gt;Node8 -->
<g id="edge22_Node000017_Node000008" class="edge">
<title>Node17&#45;&gt;Node8</title>
<g id="a_edge22_Node000017_Node000008"><a xlink:title=" ">
<path fill="none" stroke="#63b8ff" d="M323.59,-506.73C341.01,-506.48 360.76,-506.19 377.66,-505.95"/>
<polygon fill="#63b8ff" stroke="#63b8ff" points="377.37,-509.45 387.32,-505.81 377.27,-502.45 377.37,-509.45"/>
</a>
</g>
</g>
<!-- Node20&#45;&gt;Node11 -->
<g id="edge28_Node000020_Node000011" class="edge">
<title>Node20&#45;&gt;Node11</title>
<g id="a_edge28_Node000020_Node000011"><a xlink:title=" ">
<path fill="none" stroke="#63b8ff" d="M267.79,-212.13C258.49,-219.05 243.3,-226.76 230.75,-234.38 217.3,-242.54 203,-252.21 190.55,-260.45"/>
<polygon fill="#63b8ff" stroke="#63b8ff" points="188.72,-257.46 182.27,-265.87 192.55,-263.32 188.72,-257.46"/>
</a>
</g>
</g>
<!-- Node21 -->
<g id="Node000021" class="node">
<title>Node21</title>
<g id="a_Node000021"><a xlink:href="../../d7/d73/a01266.html#ga4298f891699300bfc4e6e56fd2a8d574" target="_top" xlink:title="Get keycode from chyron.">
<polygon fill="white" stroke="#666666" points="464.88,-289.75 372.38,-289.75 372.38,-269 464.88,-269 464.88,-289.75"/>
<text xml:space="preserve" text-anchor="middle" x="418.62" y="-276.25" font-family="Helvetica,sans-Serif" font-size="10.00">get_chyron_key</text>
</a>
</g>
</g>
<!-- Node20&#45;&gt;Node21 -->
<g id="edge29_Node000020_Node000021" class="edge">
<title>Node20&#45;&gt;Node21</title>
<g id="a_edge29_Node000020_Node000021"><a xlink:title=" ">
<path fill="none" stroke="#63b8ff" d="M301.84,-212.17C309.19,-215.95 317.16,-220.48 324,-225.38 341.9,-238.17 341.19,-247.96 360,-259.38 362.76,-261.05 365.68,-262.61 368.68,-264.06"/>
<polygon fill="#63b8ff" stroke="#63b8ff" points="367.13,-267.2 377.7,-267.95 369.9,-260.77 367.13,-267.2"/>
</a>
</g>
</g>
<!-- Node20&#45;&gt;Node22 -->
<g id="edge30_Node000020_Node000022" class="edge">
<title>Node20&#45;&gt;Node22</title>
<g id="a_edge30_Node000020_Node000022"><a xlink:title=" ">
<path fill="none" stroke="#63b8ff" d="M291.48,-190.65C315.42,-171.04 366.49,-129.24 395.78,-105.26"/>
<polygon fill="#63b8ff" stroke="#63b8ff" points="397.77,-108.16 403.29,-99.11 393.33,-102.74 397.77,-108.16"/>
</a>
</g>
</g>
<!-- Node23 -->
<g id="Node000023" class="node">
<title>Node23</title>
<g id="a_Node000023"><a xlink:href="../../d9/de7/a01279.html#ga9595fce25a583a656ca51a8b8f7494ae" target="_top" xlink:title="mk_raw_tioctl() &#45; set terminal to raw mode">
<polygon fill="white" stroke="#666666" points="461.12,-250.75 376.12,-250.75 376.12,-230 461.12,-230 461.12,-250.75"/>
<text xml:space="preserve" text-anchor="middle" x="418.62" y="-237.25" font-family="Helvetica,sans-Serif" font-size="10.00">mk_raw_tioctl</text>
</a>
</g>
</g>
<!-- Node20&#45;&gt;Node23 -->
<g id="edge31_Node000020_Node000023" class="edge">
<title>Node20&#45;&gt;Node23</title>
<g id="a_edge31_Node000020_Node000023"><a xlink:title=" ">
<path fill="none" stroke="#63b8ff" d="M306.22,-209.17C323.91,-214.13 347.32,-220.68 368.11,-226.51"/>
<polygon fill="#63b8ff" stroke="#63b8ff" points="366.99,-229.83 377.56,-229.15 368.87,-223.09 366.99,-229.83"/>
</a>
</g>
</g>
<!-- Node24 -->
<g id="Node000024" class="node">
<title>Node24</title>
<g id="a_Node000024"><a xlink:href="../../d9/de7/a01279.html#ga1c8e0f0a02e08c783231a20093fb8410" target="_top" xlink:title="restore_curses_tioctl() &#45; restore curses terminal settings">
<polygon fill="white" stroke="#666666" points="477.25,-211.75 360,-211.75 360,-191 477.25,-191 477.25,-211.75"/>
<text xml:space="preserve" text-anchor="middle" x="418.62" y="-198.25" font-family="Helvetica,sans-Serif" font-size="10.00">restore_curses_tioctl</text>
</a>
</g>
</g>
<!-- Node20&#45;&gt;Node24 -->
<g id="edge32_Node000020_Node000024" class="edge">
<title>Node20&#45;&gt;Node24</title>
<g id="a_edge32_Node000020_Node000024"><a xlink:title=" ">
<path fill="none" stroke="#63b8ff" d="M306.22,-201.38C318.43,-201.38 333.35,-201.38 348.26,-201.38"/>
<polygon fill="#63b8ff" stroke="#63b8ff" points="348.1,-204.88 358.1,-201.38 348.1,-197.88 348.1,-204.88"/>
</a>
</g>
</g>
<!-- Node25&#45;&gt;Node2 -->
<g id="edge36_Node000025_Node000002" class="edge">
<title>Node25&#45;&gt;Node2</title>
<g id="a_edge36_Node000025_Node000002"><a xlink:title=" ">
<path fill="none" stroke="#63b8ff" d="M160.8,-422.02C175.72,-454.14 220.04,-548.5 230.75,-559.38 233.47,-562.14 236.57,-564.65 239.86,-566.92"/>
<polygon fill="#63b8ff" stroke="#63b8ff" points="237.74,-569.73 248.11,-571.91 241.36,-563.74 237.74,-569.73"/>
</a>
</g>
</g>
<!-- Node25&#45;&gt;Node3 -->
<g id="edge35_Node000025_Node000003" class="edge">
<title>Node25&#45;&gt;Node3</title>
<g id="a_edge35_Node000025_Node000003"><a xlink:title=" ">
<path fill="none" stroke="#63b8ff" d="M171.06,-422.09C185.6,-431.64 208.54,-444.94 230.75,-450.38 271.01,-460.23 284.9,-464.11 324,-450.38 355.44,-439.34 384.14,-412.81 401.26,-394.46"/>
<polygon fill="#63b8ff" stroke="#63b8ff" points="403.79,-396.87 407.88,-387.1 398.59,-392.19 403.79,-396.87"/>
</a>
</g>
</g>
<!-- Node25&#45;&gt;Node7 -->
<g id="edge44_Node000025_Node000007" class="edge">
<title>Node25&#45;&gt;Node7</title>
<g id="a_edge44_Node000025_Node000007"><a xlink:title=" ">
<path fill="none" stroke="#63b8ff" d="M156.2,-422.11C157.86,-455.79 168.08,-559.63 230.75,-602.38 321.26,-664.11 374.48,-640.35 477.25,-602.38 567.74,-568.94 645.91,-478.54 677.41,-438.24"/>
<polygon fill="#63b8ff" stroke="#63b8ff" points="680.17,-440.4 683.48,-430.34 674.61,-436.14 680.17,-440.4"/>
</a>
</g>
</g>
<!-- Node25&#45;&gt;Node8 -->
<g id="edge42_Node000025_Node000008" class="edge">
<title>Node25&#45;&gt;Node8</title>
<g id="a_edge42_Node000025_Node000008"><a xlink:title=" ">
<path fill="none" stroke="#63b8ff" d="M161.24,-422.25C174.53,-448.64 209.39,-514.79 230.75,-526.38 267.18,-546.13 282.81,-530.94 324,-526.38 341.89,-524.39 361.36,-520.34 377.89,-516.32"/>
<polygon fill="#63b8ff" stroke="#63b8ff" points="378.5,-519.78 387.34,-513.94 376.78,-512.99 378.5,-519.78"/>
</a>
</g>
</g>
<!-- Node25&#45;&gt;Node12 -->
<g id="edge37_Node000025_Node000012" class="edge">
<title>Node25&#45;&gt;Node12</title>
<g id="a_edge37_Node000025_Node000012"><a xlink:title=" ">
<path fill="none" stroke="#63b8ff" d="M165.33,-400.86C185.56,-378.37 233.27,-325.3 259.08,-296.61"/>
<polygon fill="#63b8ff" stroke="#63b8ff" points="261.53,-299.11 265.62,-289.34 256.33,-294.43 261.53,-299.11"/>
</a>
</g>
</g>
<!-- Node25&#45;&gt;Node14 -->
<g id="edge38_Node000025_Node000014" class="edge">
<title>Node25&#45;&gt;Node14</title>
<g id="a_edge38_Node000025_Node000014"><a xlink:title=" ">
<path fill="none" stroke="#63b8ff" d="M176.38,-400.58C191.34,-392.79 212.17,-382.16 230.75,-373.38 234.03,-371.82 237.47,-370.24 240.92,-368.68"/>
<polygon fill="#63b8ff" stroke="#63b8ff" points="242.06,-372 249.78,-364.74 239.22,-365.61 242.06,-372"/>
</a>
</g>
</g>
<!-- Node25&#45;&gt;Node15 -->
<g id="edge39_Node000025_Node000015" class="edge">
<title>Node25&#45;&gt;Node15</title>
<g id="a_edge39_Node000025_Node000015"><a xlink:title=" ">
<path fill="none" stroke="#63b8ff" d="M177.98,-415.04C190.22,-417.08 206.04,-419.7 221.4,-422.25"/>
<polygon fill="#63b8ff" stroke="#63b8ff" points="220.51,-425.65 230.95,-423.84 221.66,-418.75 220.51,-425.65"/>
</a>
</g>
</g>
<!-- Node25&#45;&gt;Node16 -->
<g id="edge40_Node000025_Node000016" class="edge">
<title>Node25&#45;&gt;Node16</title>
<g id="a_edge40_Node000025_Node000016"><a xlink:title=" ">
<path fill="none" stroke="#63b8ff" d="M177.98,-407.89C192.13,-405.66 211.06,-402.67 228.54,-399.92"/>
<polygon fill="#63b8ff" stroke="#63b8ff" points="228.92,-403.4 238.25,-398.39 227.83,-396.49 228.92,-403.4"/>
</a>
</g>
</g>
<!-- Node25&#45;&gt;Node17 -->
<g id="edge41_Node000025_Node000017" class="edge">
<title>Node25&#45;&gt;Node17</title>
<g id="a_edge41_Node000025_Node000017"><a xlink:title=" ">
<path fill="none" stroke="#63b8ff" d="M165.24,-422.12C178.69,-437.12 204.72,-464.59 230.75,-483.38 234.59,-486.14 238.79,-488.79 243.03,-491.25"/>
<polygon fill="#63b8ff" stroke="#63b8ff" points="241.1,-494.18 251.55,-495.9 244.45,-488.04 241.1,-494.18"/>
</a>
</g>
</g>
<!-- Node25&#45;&gt;Node19 -->
<g id="edge43_Node000025_Node000019" class="edge">
<title>Node25&#45;&gt;Node19</title>
<g id="a_edge43_Node000025_Node000019"><a xlink:title=" ">
<path fill="none" stroke="#63b8ff" d="M159.59,-400.62C166.6,-380.29 182.18,-334.84 194.75,-296.38 211.26,-245.87 205.72,-229.24 230.75,-182.38 238.14,-168.54 249.05,-154.76 258.34,-144.22"/>
<polygon fill="#63b8ff" stroke="#63b8ff" points="260.79,-146.73 264.95,-136.98 255.62,-142.01 260.79,-146.73"/>
</a>
</g>
</g>
<!-- Node25&#45;&gt;Node20 -->
<g id="edge45_Node000025_Node000020" class="edge">
<title>Node25&#45;&gt;Node20</title>
<g id="a_edge45_Node000025_Node000020"><a xlink:title=" ">
<path fill="none" stroke="#63b8ff" d="M160.19,-400.56C170.64,-374.92 198.76,-308.83 230.75,-258.38 239.15,-245.13 250.09,-231.37 259.15,-220.69"/>
<polygon fill="#63b8ff" stroke="#63b8ff" points="261.63,-223.18 265.53,-213.33 256.34,-218.59 261.63,-223.18"/>
</a>
</g>
</g>
</g>
</svg>

<g id="navigator" transform="translate(0 0)" fill="#404254">
  <rect fill="#f2f5e9" fill-opacity="0.5" stroke="#606060" stroke-width=".5" x="0" y="0" width="60" height="60"/>
  <use id="zoomplus" xlink:href="#zoomPlus" x="17" y="9" onmousedown="handleZoom(evt,'in')"/>
  <use id="zoomminus" xlink:href="#zoomMin" x="42" y="9" onmousedown="handleZoom(evt,'out')"/>
  <use id="reset" xlink:href="#resetDef" x="30" y="36" onmousedown="handleReset()"/>
   <use id="arrowup" xlink:href="#arrowUp" x="0" y="0" onmousedown="handlePan(0,-1)"/>
  <use id="arrowright" xlink:href="#arrowRight" x="0" y="0" onmousedown="handlePan(1,0)"/>
  <use id="arrowdown" xlink:href="#arrowDown" x="0" y="0" onmousedown="handlePan(0,1)"/>
  <use id="arrowleft" xlink:href="#arrowLeft" x="0" y="0" onmousedown="handlePan(-1,0)"/>
</g>
<svg viewBox="0 0 15 15" width="100%" height="30px" preserveAspectRatio="xMaxYMin meet">
 <g id="arrow_out" transform="scale(0.3 0.3)">
  <a xlink:href="a01181_a483e450445eab0cfdef426ba3f027c6f_cgraph_org.svg" target="_base">
   <rect id="button" ry="5" rx="5" y="6" x="6" height="38" width="38"
        fill="#f2f5e9" fill-opacity="0.5" stroke="#606060" stroke-width="1.0"/>
   <path id="arrow"
     d="M 11.500037,31.436501 C 11.940474,20.09759 22.043105,11.32322 32.158766,21.979434 L 37.068811,17.246167 C 37.068811,17.246167 37.088388,32 37.088388,32 L 22.160133,31.978069 C 22.160133,31.978069 26.997745,27.140456 26.997745,27.140456 C 18.528582,18.264221 13.291696,25.230495 11.500037,31.436501 z"
     style="fill:#404040;"/>
  </a>
 </g>
</svg>

<style type='text/css'>
<![CDATA[
[data-mouse-over-selected='false'] { opacity: 0.7; }
[data-mouse-over-selected='true']  { opacity: 1.0; }
]]>
</style>
<script type="application/ecmascript"><![CDATA[
document.addEventListener('DOMContentLoaded', (event) => {
  highlightEdges();
  highlightAdjacentNodes();
});
]]></script>
</svg>
