<?xml version="1.0" encoding="UTF-8" standalone="no"?>
<!DOCTYPE svg PUBLIC "-//W3C//DTD SVG 1.1//EN"
 "http://www.w3.org/Graphics/SVG/1.1/DTD/svg11.dtd">
<!-- Generated by graphviz version 14.1.2 (0)
 -->
<!-- Title: search Pages: 1 -->
<svg width="1102pt" height="863pt"
 viewBox="0.00 0.00 1102.00 863.00" xmlns="http://www.w3.org/2000/svg" xmlns:xlink="http://www.w3.org/1999/xlink">
<g id="graph0" class="graph" transform="scale(1 1) rotate(0) translate(4 858.51)">
<title>search</title>
<!-- Node1 -->
<g id="Node000001" class="node">
<title>Node1</title>
<g id="a_Node000001"><a xlink:title="Search for Regular Expression Pattern.">
<polygon fill="#999999" stroke="#666666" points="48.25,-271.75 0,-271.75 0,-251 48.25,-251 48.25,-271.75"/>
<text xml:space="preserve" text-anchor="middle" x="24.12" y="-258.25" font-family="Helvetica,sans-Serif" font-size="10.00">search</text>
</a>
</g>
</g>
<!-- Node2 -->
<g id="Node000002" class="node">
<title>Node2</title>
<g id="a_Node000002"><a xlink:href="../../d0/d8e/view__engine_8c.html#a16a4b855ead8402d4744e77a5504082a" target="_top" xlink:title="Display Line on Pad.">
<polygon fill="white" stroke="#666666" points="162.5,-410.75 88,-410.75 88,-390 162.5,-390 162.5,-410.75"/>
<text xml:space="preserve" text-anchor="middle" x="125.25" y="-397.25" font-family="Helvetica,sans-Serif" font-size="10.00">display_line</text>
</a>
</g>
</g>
<!-- Node1&#45;&gt;Node2 -->
<g id="edge1_Node000001_Node000002" class="edge">
<title>Node1&#45;&gt;Node2</title>
<g id="a_edge1_Node000001_Node000002"><a xlink:title=" ">
<path fill="none" stroke="#63b8ff" d="M32.26,-272.07C43.22,-288.44 64.97,-320.62 84.25,-347.38 92.24,-358.46 101.4,-370.64 108.94,-380.52"/>
<polygon fill="#63b8ff" stroke="#63b8ff" points="106.05,-382.51 114.91,-388.32 111.61,-378.25 106.05,-382.51"/>
</a>
</g>
</g>
<!-- Node3 -->
<g id="Node000003" class="node">
<title>Node3</title>
<g id="a_Node000003"><a xlink:href="../../dc/d40/dwin_8c.html#a61b4f28456257f68ed042bed7f187efd" target="_top" xlink:title="Display a simple error message window or print to stderr.">
<polygon fill="white" stroke="#666666" points="277.12,-467.75 231.88,-467.75 231.88,-447 277.12,-447 277.12,-467.75"/>
<text xml:space="preserve" text-anchor="middle" x="254.5" y="-454.25" font-family="Helvetica,sans-Serif" font-size="10.00">Perror</text>
</a>
</g>
</g>
<!-- Node1&#45;&gt;Node3 -->
<g id="edge54_Node000001_Node000003" class="edge">
<title>Node1&#45;&gt;Node3</title>
<g id="a_edge54_Node000001_Node000003"><a xlink:title=" ">
<path fill="none" stroke="#63b8ff" d="M38.01,-272.24C62.88,-293.24 119.2,-340.89 166.25,-381.38 189.07,-401.01 215.08,-423.71 232.71,-439.15"/>
<polygon fill="#63b8ff" stroke="#63b8ff" points="230.15,-441.55 239.98,-445.51 234.76,-436.29 230.15,-441.55"/>
</a>
</g>
</g>
<!-- Node9 -->
<g id="Node000009" class="node">
<title>Node9</title>
<g id="a_Node000009"><a xlink:href="../../d0/d59/futil_8c.html#aa0145c044cfdde3a1c83323410a59f25" target="_top" xlink:title="safer alternative to strncat">
<polygon fill="white" stroke="#666666" points="822.62,-213.75 757.12,-213.75 757.12,-193 822.62,-193 822.62,-213.75"/>
<text xml:space="preserve" text-anchor="middle" x="789.88" y="-200.25" font-family="Helvetica,sans-Serif" font-size="10.00">strnz__cat</text>
</a>
</g>
</g>
<!-- Node1&#45;&gt;Node9 -->
<g id="edge56_Node000001_Node000009" class="edge">
<title>Node1&#45;&gt;Node9</title>
<g id="a_edge56_Node000001_Node000009"><a xlink:title=" ">
<path fill="none" stroke="#63b8ff" d="M31.71,-250.75C56.04,-212.97 145.09,-87.38 253.5,-87.38 253.5,-87.38 253.5,-87.38 545.5,-87.38 635.63,-87.38 727.87,-153.01 768.05,-185.54"/>
<polygon fill="#63b8ff" stroke="#63b8ff" points="765.58,-188.03 775.52,-191.71 770.04,-182.64 765.58,-188.03"/>
</a>
</g>
</g>
<!-- Node13 -->
<g id="Node000013" class="node">
<title>Node13</title>
<g id="a_Node000013"><a xlink:href="../../d0/d59/futil_8c.html#a63eb94756fb011a456a3dec900709cd8" target="_top" xlink:title="ssnprintf was designed to be a safer alternative to snprintf.">
<polygon fill="white" stroke="#666666" points="819.25,-425.75 760.5,-425.75 760.5,-405 819.25,-405 819.25,-425.75"/>
<text xml:space="preserve" text-anchor="middle" x="789.88" y="-412.25" font-family="Helvetica,sans-Serif" font-size="10.00">ssnprintf</text>
</a>
</g>
</g>
<!-- Node1&#45;&gt;Node13 -->
<g id="edge55_Node000001_Node000013" class="edge">
<title>Node1&#45;&gt;Node13</title>
<g id="a_edge55_Node000001_Node000013"><a xlink:title=" ">
<path fill="none" stroke="#63b8ff" d="M48.74,-264.64C90.13,-270.07 178.5,-280.38 253.5,-280.38 253.5,-280.38 253.5,-280.38 545.5,-280.38 623.51,-280.38 654.39,-257.16 720,-299.38 754.16,-321.35 773.65,-366.8 782.66,-393.82"/>
<polygon fill="#63b8ff" stroke="#63b8ff" points="779.32,-394.84 785.63,-403.34 786,-392.76 779.32,-394.84"/>
</a>
</g>
</g>
<!-- Node14 -->
<g id="Node000014" class="node">
<title>Node14</title>
<g id="a_Node000014"><a xlink:href="../../d0/d59/futil_8c.html#a0de2e40df9bd7efc8fd9afb8ad2257e6" target="_top" xlink:title="safer alternative to strncpy">
<polygon fill="white" stroke="#666666" points="823.75,-806.75 756,-806.75 756,-786 823.75,-786 823.75,-806.75"/>
<text xml:space="preserve" text-anchor="middle" x="789.88" y="-793.25" font-family="Helvetica,sans-Serif" font-size="10.00">strnz__cpy</text>
</a>
</g>
</g>
<!-- Node1&#45;&gt;Node14 -->
<g id="edge57_Node000001_Node000014" class="edge">
<title>Node1&#45;&gt;Node14</title>
<g id="a_edge57_Node000001_Node000014"><a xlink:title=" ">
<path fill="none" stroke="#63b8ff" d="M26.79,-272.16C39.46,-352.39 123.79,-853.38 253.5,-853.38 253.5,-853.38 253.5,-853.38 545.5,-853.38 623.51,-853.38 645.62,-857.9 720,-834.38 735.51,-829.47 751.51,-820.9 764.17,-813.14"/>
<polygon fill="#63b8ff" stroke="#63b8ff" points="765.71,-816.31 772.27,-807.98 761.95,-810.4 765.71,-816.31"/>
</a>
</g>
</g>
<!-- Node23 -->
<g id="Node000023" class="node">
<title>Node23</title>
<g id="a_Node000023"><a xlink:href="../../d0/d8e/view__engine_8c.html#a747411d59b020ad11d4567ab0b3db8c2" target="_top" xlink:title="Format Line for Display.">
<polygon fill="white" stroke="#666666" points="153.5,-252.75 97,-252.75 97,-232 153.5,-232 153.5,-252.75"/>
<text xml:space="preserve" text-anchor="middle" x="125.25" y="-239.25" font-family="Helvetica,sans-Serif" font-size="10.00">fmt_line</text>
</a>
</g>
</g>
<!-- Node1&#45;&gt;Node23 -->
<g id="edge40_Node000001_Node000023" class="edge">
<title>Node1&#45;&gt;Node23</title>
<g id="a_edge40_Node000001_Node000023"><a xlink:title=" ">
<path fill="none" stroke="#63b8ff" d="M48.62,-256.87C59.66,-254.76 73.12,-252.17 85.61,-249.78"/>
<polygon fill="#63b8ff" stroke="#63b8ff" points="86.06,-253.26 95.22,-247.94 84.74,-246.38 86.06,-253.26"/>
</a>
</g>
</g>
<!-- Node31 -->
<g id="Node000031" class="node">
<title>Node31</title>
<g id="a_Node000031"><a xlink:href="../../d0/d8e/view__engine_8c.html#a395b27e6a9716bf49e3fc04d53987b33" target="_top" xlink:title="Get Next Line from File.">
<polygon fill="white" stroke="#666666" points="295.5,-59.75 213.5,-59.75 213.5,-39 295.5,-39 295.5,-59.75"/>
<text xml:space="preserve" text-anchor="middle" x="254.5" y="-46.25" font-family="Helvetica,sans-Serif" font-size="10.00">get_next_line</text>
</a>
</g>
</g>
<!-- Node1&#45;&gt;Node31 -->
<g id="edge50_Node000001_Node000031" class="edge">
<title>Node1&#45;&gt;Node31</title>
<g id="a_edge50_Node000001_Node000031"><a xlink:title=" ">
<path fill="none" stroke="#63b8ff" d="M24.86,-250.78C24.69,-218.43 28.93,-120.3 84.25,-73.38 116.45,-46.06 165.14,-41.69 202.04,-43.21"/>
<polygon fill="#63b8ff" stroke="#63b8ff" points="201.39,-46.67 211.57,-43.76 201.79,-39.68 201.39,-46.67"/>
</a>
</g>
</g>
<!-- Node32 -->
<g id="Node000032" class="node">
<title>Node32</title>
<g id="a_Node000032"><a xlink:href="../../d0/d8e/view__engine_8c.html#ab49fb9f9417c7cf790cea1679e4e5edc" target="_top" xlink:title="Get Previous Line from File.">
<polygon fill="white" stroke="#666666" points="166.25,-21.75 84.25,-21.75 84.25,-1 166.25,-1 166.25,-21.75"/>
<text xml:space="preserve" text-anchor="middle" x="125.25" y="-8.25" font-family="Helvetica,sans-Serif" font-size="10.00">get_prev_line</text>
</a>
</g>
</g>
<!-- Node1&#45;&gt;Node32 -->
<g id="edge51_Node000001_Node000032" class="edge">
<title>Node1&#45;&gt;Node32</title>
<g id="a_edge51_Node000001_Node000032"><a xlink:title=" ">
<path fill="none" stroke="#63b8ff" d="M25.17,-250.73C25.86,-216.09 32.2,-104.83 84.25,-35.38 85.99,-33.05 88.03,-30.91 90.25,-28.94"/>
<polygon fill="#63b8ff" stroke="#63b8ff" points="92.23,-31.83 98.23,-23.09 88.09,-26.18 92.23,-31.83"/>
</a>
</g>
</g>
<!-- Node2&#45;&gt;Node3 -->
<g id="edge2_Node000002_Node000003" class="edge">
<title>Node2&#45;&gt;Node3</title>
<g id="a_edge2_Node000002_Node000003"><a xlink:title=" ">
<path fill="none" stroke="#63b8ff" d="M150.48,-411.23C170.47,-420.18 199.01,-432.97 220.98,-442.81"/>
<polygon fill="#63b8ff" stroke="#63b8ff" points="219.54,-446 230.1,-446.89 222.41,-439.61 219.54,-446"/>
</a>
</g>
</g>
<!-- Node4 -->
<g id="Node000004" class="node">
<title>Node4</title>
<g id="a_Node000004"><a xlink:href="../../dc/d40/dwin_8c.html#a8f6c45ca4a7f6a41c4c88314e697565a" target="_top" xlink:title="Abnormal program termination.">
<polygon fill="white" stroke="#666666" points="812.88,-625.75 766.88,-625.75 766.88,-605 812.88,-605 812.88,-625.75"/>
<text xml:space="preserve" text-anchor="middle" x="789.88" y="-612.25" font-family="Helvetica,sans-Serif" font-size="10.00">abend</text>
</a>
</g>
</g>
<!-- Node3&#45;&gt;Node4 -->
<g id="edge3_Node000003_Node000004" class="edge">
<title>Node3&#45;&gt;Node4</title>
<g id="a_edge3_Node000003_Node000004"><a xlink:title=" ">
<path fill="none" stroke="#63b8ff" d="M261.55,-468.17C274.08,-489.65 304.89,-538.08 342.75,-566.38 451.97,-647.99 492.96,-656.11 626.75,-682.38 667.42,-690.36 681.6,-697.97 720,-682.38 743.29,-672.91 763.03,-651.37 775.33,-635.25"/>
<polygon fill="#63b8ff" stroke="#63b8ff" points="778.06,-637.44 781.1,-627.29 772.39,-633.33 778.06,-637.44"/>
</a>
</g>
</g>
<!-- Node8 -->
<g id="Node000008" class="node">
<title>Node8</title>
<g id="a_Node000008"><a xlink:href="../../dc/d40/dwin_8c.html#a645871e46277e31736bc36d0f3dce4bd" target="_top" xlink:title="construct the chyron string from the chyron structure">
<polygon fill="white" stroke="#666666" points="720,-328.75 626.75,-328.75 626.75,-308 720,-308 720,-328.75"/>
<text xml:space="preserve" text-anchor="middle" x="673.38" y="-315.25" font-family="Helvetica,sans-Serif" font-size="10.00">compile_chyron</text>
</a>
</g>
</g>
<!-- Node3&#45;&gt;Node8 -->
<g id="edge9_Node000003_Node000008" class="edge">
<title>Node3&#45;&gt;Node8</title>
<g id="a_edge9_Node000003_Node000008"><a xlink:title=" ">
<path fill="none" stroke="#63b8ff" d="M259.87,-446.71C270.22,-423.02 298.7,-366.28 342.75,-342.38 428.74,-295.71 546.41,-300.56 615.41,-309"/>
<polygon fill="#63b8ff" stroke="#63b8ff" points="614.6,-312.43 624.97,-310.24 615.5,-305.49 614.6,-312.43"/>
</a>
</g>
</g>
<!-- Node10 -->
<g id="Node000010" class="node">
<title>Node10</title>
<g id="a_Node000010"><a xlink:href="../../dc/d40/dwin_8c.html#a3f3feb40fd703913c5c136331f627c91" target="_top" xlink:title="Destroy Chyron structure.">
<polygon fill="white" stroke="#666666" points="718.88,-443.75 627.88,-443.75 627.88,-423 718.88,-423 718.88,-443.75"/>
<text xml:space="preserve" text-anchor="middle" x="673.38" y="-430.25" font-family="Helvetica,sans-Serif" font-size="10.00">destroy_chyron</text>
</a>
</g>
</g>
<!-- Node3&#45;&gt;Node10 -->
<g id="edge11_Node000003_Node000010" class="edge">
<title>Node3&#45;&gt;Node10</title>
<g id="a_edge11_Node000003_Node000010"><a xlink:title=" ">
<path fill="none" stroke="#63b8ff" d="M277.62,-456.1C340.74,-452.47 523.13,-441.97 616.24,-436.61"/>
<polygon fill="#63b8ff" stroke="#63b8ff" points="616.39,-440.1 626.17,-436.04 615.99,-433.12 616.39,-440.1"/>
</a>
</g>
</g>
<!-- Node11 -->
<g id="Node000011" class="node">
<title>Node11</title>
<g id="a_Node000011"><a xlink:href="../../dc/d40/dwin_8c.html#ad37d5808ff30ae6894780425d865abae" target="_top" xlink:title="Create and initialize Chyron structure.">
<polygon fill="white" stroke="#666666" points="710.62,-634.75 636.12,-634.75 636.12,-614 710.62,-614 710.62,-634.75"/>
<text xml:space="preserve" text-anchor="middle" x="673.38" y="-621.25" font-family="Helvetica,sans-Serif" font-size="10.00">new_chyron</text>
</a>
</g>
</g>
<!-- Node3&#45;&gt;Node11 -->
<g id="edge12_Node000003_Node000011" class="edge">
<title>Node3&#45;&gt;Node11</title>
<g id="a_edge12_Node000003_Node000011"><a xlink:title=" ">
<path fill="none" stroke="#63b8ff" d="M265.77,-468.11C281.13,-483.58 311.62,-512.04 342.75,-528.38 436.23,-577.43 558.14,-604.56 624.4,-616.62"/>
<polygon fill="#63b8ff" stroke="#63b8ff" points="623.76,-620.06 634.22,-618.37 624.99,-613.17 623.76,-620.06"/>
</a>
</g>
</g>
<!-- Node12 -->
<g id="Node000012" class="node">
<title>Node12</title>
<g id="a_Node000012"><a xlink:href="../../dc/d40/dwin_8c.html#a208ce92c197fdd6d2b007987e534aa3b" target="_top" xlink:title="Set chyron key.">
<polygon fill="white" stroke="#666666" points="719.25,-482.75 627.5,-482.75 627.5,-462 719.25,-462 719.25,-482.75"/>
<text xml:space="preserve" text-anchor="middle" x="673.38" y="-469.25" font-family="Helvetica,sans-Serif" font-size="10.00">set_chyron_key</text>
</a>
</g>
</g>
<!-- Node3&#45;&gt;Node12 -->
<g id="edge14_Node000003_Node000012" class="edge">
<title>Node3&#45;&gt;Node12</title>
<g id="a_edge14_Node000003_Node000012"><a xlink:title=" ">
<path fill="none" stroke="#63b8ff" d="M277.62,-458.17C340.65,-460.44 522.66,-466.99 615.88,-470.34"/>
<polygon fill="#63b8ff" stroke="#63b8ff" points="615.71,-473.84 625.83,-470.7 615.96,-466.84 615.71,-473.84"/>
</a>
</g>
</g>
<!-- Node3&#45;&gt;Node13 -->
<g id="edge16_Node000003_Node000013" class="edge">
<title>Node3&#45;&gt;Node13</title>
<g id="a_edge16_Node000003_Node000013"><a xlink:title=" ">
<path fill="none" stroke="#63b8ff" d="M276.84,-446.59C294.18,-438.25 319.5,-427.04 342.75,-420.38 465.6,-385.17 499.35,-385.41 626.75,-375.38 668.07,-372.12 679.98,-364.6 720,-375.38 736.54,-379.83 753.2,-389.34 765.99,-397.97"/>
<polygon fill="#63b8ff" stroke="#63b8ff" points="763.93,-400.79 774.11,-403.71 767.97,-395.08 763.93,-400.79"/>
</a>
</g>
</g>
<!-- Node3&#45;&gt;Node14 -->
<g id="edge17_Node000003_Node000014" class="edge">
<title>Node3&#45;&gt;Node14</title>
<g id="a_edge17_Node000003_Node000014"><a xlink:title=" ">
<path fill="none" stroke="#63b8ff" d="M255.09,-468.02C254.05,-511.13 256.17,-674.47 342.75,-757.38 452.63,-862.59 655.18,-829.75 744.53,-808.43"/>
<polygon fill="#63b8ff" stroke="#63b8ff" points="745.27,-811.85 754.15,-806.06 743.6,-805.05 745.27,-811.85"/>
</a>
</g>
</g>
<!-- Node15 -->
<g id="Node000015" class="node">
<title>Node15</title>
<g id="a_Node000015"><a xlink:href="../../dc/d40/dwin_8c.html#a9dd598e1d49c8764af1eec42c682623e" target="_top" xlink:title="Delete the current window and its associated box window.">
<polygon fill="white" stroke="#666666" points="700.12,-404.75 646.62,-404.75 646.62,-384 700.12,-384 700.12,-404.75"/>
<text xml:space="preserve" text-anchor="middle" x="673.38" y="-391.25" font-family="Helvetica,sans-Serif" font-size="10.00">win_del</text>
</a>
</g>
</g>
<!-- Node3&#45;&gt;Node15 -->
<g id="edge18_Node000003_Node000015" class="edge">
<title>Node3&#45;&gt;Node15</title>
<g id="a_edge18_Node000003_Node000015"><a xlink:title=" ">
<path fill="none" stroke="#63b8ff" d="M277.35,-453.46C294.98,-450.34 320.44,-445.92 342.75,-442.38 448.5,-425.59 573.71,-407.97 634.91,-399.51"/>
<polygon fill="#63b8ff" stroke="#63b8ff" points="635.35,-402.98 644.78,-398.15 634.39,-396.05 635.35,-402.98"/>
</a>
</g>
</g>
<!-- Node16 -->
<g id="Node000016" class="node">
<title>Node16</title>
<g id="a_Node000016"><a xlink:href="../../dc/d40/dwin_8c.html#a435c7bff7ffedb8f51c6de9259e36f6c" target="_top" xlink:title="Create a new window with optional box and title.">
<polygon fill="white" stroke="#666666" points="702.75,-787.75 644,-787.75 644,-767 702.75,-767 702.75,-787.75"/>
<text xml:space="preserve" text-anchor="middle" x="673.38" y="-774.25" font-family="Helvetica,sans-Serif" font-size="10.00">win_new</text>
</a>
</g>
</g>
<!-- Node3&#45;&gt;Node16 -->
<g id="edge19_Node000003_Node000016" class="edge">
<title>Node3&#45;&gt;Node16</title>
<g id="a_edge19_Node000003_Node000016"><a xlink:title=" ">
<path fill="none" stroke="#63b8ff" d="M255.55,-468C256.34,-507.57 264.76,-647.62 342.75,-715.38 425.44,-787.22 564.59,-786.95 632.58,-781.76"/>
<polygon fill="#63b8ff" stroke="#63b8ff" points="632.46,-785.29 642.13,-780.95 631.87,-778.31 632.46,-785.29"/>
</a>
</g>
</g>
<!-- Node18 -->
<g id="Node000018" class="node">
<title>Node18</title>
<g id="a_Node000018"><a xlink:href="../../dc/d40/dwin_8c.html#acf4c709bccc4c965a5d61db978db31a3" target="_top" xlink:title="Wrapper for wgetch that handles signals and mouse events.">
<polygon fill="white" stroke="#666666" points="431.12,-519.75 373.88,-519.75 373.88,-499 431.12,-499 431.12,-519.75"/>
<text xml:space="preserve" text-anchor="middle" x="402.5" y="-506.25" font-family="Helvetica,sans-Serif" font-size="10.00">xwgetch</text>
</a>
</g>
</g>
<!-- Node3&#45;&gt;Node18 -->
<g id="edge22_Node000003_Node000018" class="edge">
<title>Node3&#45;&gt;Node18</title>
<g id="a_edge22_Node000003_Node000018"><a xlink:title=" ">
<path fill="none" stroke="#63b8ff" d="M277.36,-465.16C299.87,-473.18 335.43,-485.84 362.73,-495.56"/>
<polygon fill="#63b8ff" stroke="#63b8ff" points="361.46,-498.83 372.06,-498.89 363.81,-492.24 361.46,-498.83"/>
</a>
</g>
</g>
<!-- Node5 -->
<g id="Node000005" class="node">
<title>Node5</title>
<g id="a_Node000005"><a xlink:href="../../dc/d40/dwin_8c.html#afc0985a403e3eac0b2cd8f0fab500256" target="_top" xlink:title="Gracefully shut down NCurses and restore terminal settings.">
<polygon fill="white" stroke="#666666" points="949.25,-607.75 859.75,-607.75 859.75,-587 949.25,-587 949.25,-607.75"/>
<text xml:space="preserve" text-anchor="middle" x="904.5" y="-594.25" font-family="Helvetica,sans-Serif" font-size="10.00">destroy_curses</text>
</a>
</g>
</g>
<!-- Node4&#45;&gt;Node5 -->
<g id="edge4_Node000004_Node000005" class="edge">
<title>Node4&#45;&gt;Node5</title>
<g id="a_edge4_Node000004_Node000005"><a xlink:title=" ">
<path fill="none" stroke="#63b8ff" d="M813.13,-611.82C823.24,-610.2 835.69,-608.21 848.09,-606.23"/>
<polygon fill="#63b8ff" stroke="#63b8ff" points="848.58,-609.7 857.9,-604.66 847.47,-602.79 848.58,-609.7"/>
</a>
</g>
</g>
<!-- Node6 -->
<g id="Node000006" class="node">
<title>Node6</title>
<g id="a_Node000006"><a xlink:href="../../d7/d72/scriou_8c.html#ac5e3adb304b78910fc77761ef6a743f0" target="_top" xlink:title="restore_shell_tioctl() &#45; restore shell terminal settings">
<polygon fill="white" stroke="#666666" points="1094.25,-645.75 985.25,-645.75 985.25,-625 1094.25,-625 1094.25,-645.75"/>
<text xml:space="preserve" text-anchor="middle" x="1039.75" y="-632.25" font-family="Helvetica,sans-Serif" font-size="10.00">restore_shell_tioctl</text>
</a>
</g>
</g>
<!-- Node4&#45;&gt;Node6 -->
<g id="edge7_Node000004_Node000006" class="edge">
<title>Node4&#45;&gt;Node6</title>
<g id="a_edge7_Node000004_Node000006"><a xlink:title=" ">
<path fill="none" stroke="#63b8ff" d="M813.31,-617.19C849.17,-620.08 920.75,-625.85 973.68,-630.12"/>
<polygon fill="#63b8ff" stroke="#63b8ff" points="973.25,-633.6 983.5,-630.92 973.81,-626.62 973.25,-633.6"/>
</a>
</g>
</g>
<!-- Node7 -->
<g id="Node000007" class="node">
<title>Node7</title>
<g id="a_Node000007"><a xlink:href="../../da/d12/sig_8c.html#a06c1eb6cf3649dc187115565409f91af" target="_top" xlink:title="Set signal handlers to default behavior.">
<polygon fill="white" stroke="#666666" points="1080.38,-588.75 999.12,-588.75 999.12,-568 1080.38,-568 1080.38,-588.75"/>
<text xml:space="preserve" text-anchor="middle" x="1039.75" y="-575.25" font-family="Helvetica,sans-Serif" font-size="10.00">sig_dfl_mode</text>
</a>
</g>
</g>
<!-- Node4&#45;&gt;Node7 -->
<g id="edge8_Node000004_Node000007" class="edge">
<title>Node4&#45;&gt;Node7</title>
<g id="a_edge8_Node000004_Node000007"><a xlink:title=" ">
<path fill="none" stroke="#63b8ff" d="M805.83,-604.51C819.21,-595.51 839.74,-583.41 859.75,-578.38 901.9,-567.77 951.42,-568.75 987.68,-571.83"/>
<polygon fill="#63b8ff" stroke="#63b8ff" points="987.17,-575.29 997.45,-572.75 987.83,-568.33 987.17,-575.29"/>
</a>
</g>
</g>
<!-- Node5&#45;&gt;Node6 -->
<g id="edge5_Node000005_Node000006" class="edge">
<title>Node5&#45;&gt;Node6</title>
<g id="a_edge5_Node000005_Node000006"><a xlink:title=" ">
<path fill="none" stroke="#63b8ff" d="M943.33,-608.16C957.82,-612.29 974.55,-617.07 989.93,-621.45"/>
<polygon fill="#63b8ff" stroke="#63b8ff" points="988.8,-624.77 999.37,-624.15 990.72,-618.04 988.8,-624.77"/>
</a>
</g>
</g>
<!-- Node5&#45;&gt;Node7 -->
<g id="edge6_Node000005_Node000007" class="edge">
<title>Node5&#45;&gt;Node7</title>
<g id="a_edge6_Node000005_Node000007"><a xlink:title=" ">
<path fill="none" stroke="#63b8ff" d="M949.5,-591.1C961.69,-589.36 975.02,-587.46 987.58,-585.67"/>
<polygon fill="#63b8ff" stroke="#63b8ff" points="987.94,-589.16 997.34,-584.28 986.95,-582.23 987.94,-589.16"/>
</a>
</g>
</g>
<!-- Node8&#45;&gt;Node9 -->
<g id="edge10_Node000008_Node000009" class="edge">
<title>Node8&#45;&gt;Node9</title>
<g id="a_edge10_Node000008_Node000009"><a xlink:title=" ">
<path fill="none" stroke="#63b8ff" d="M684.94,-307.76C704.37,-288.25 745.99,-246.45 770.25,-222.08"/>
<polygon fill="#63b8ff" stroke="#63b8ff" points="772.69,-224.59 777.27,-215.03 767.73,-219.65 772.69,-224.59"/>
</a>
</g>
</g>
<!-- Node11&#45;&gt;Node4 -->
<g id="edge13_Node000011_Node000004" class="edge">
<title>Node11&#45;&gt;Node4</title>
<g id="a_edge13_Node000011_Node000004"><a xlink:title=" ">
<path fill="none" stroke="#63b8ff" d="M710.92,-621.5C725.24,-620.38 741.55,-619.09 755.54,-618"/>
<polygon fill="#63b8ff" stroke="#63b8ff" points="755.45,-621.51 765.14,-617.24 754.9,-614.54 755.45,-621.51"/>
</a>
</g>
</g>
<!-- Node12&#45;&gt;Node13 -->
<g id="edge15_Node000012_Node000013" class="edge">
<title>Node12&#45;&gt;Node13</title>
<g id="a_edge15_Node000012_Node000013"><a xlink:title=" ">
<path fill="none" stroke="#63b8ff" d="M700.12,-461.52C706.65,-458.65 713.62,-455.48 720,-452.38 733.21,-445.94 747.57,-438.33 759.74,-431.69"/>
<polygon fill="#63b8ff" stroke="#63b8ff" points="761.39,-434.78 768.46,-426.89 758.02,-428.65 761.39,-434.78"/>
</a>
</g>
</g>
<!-- Node16&#45;&gt;Node14 -->
<g id="edge21_Node000016_Node000014" class="edge">
<title>Node16&#45;&gt;Node14</title>
<g id="a_edge21_Node000016_Node000014"><a xlink:title=" ">
<path fill="none" stroke="#63b8ff" d="M702.97,-782.12C715.62,-784.22 730.78,-786.74 744.83,-789.07"/>
<polygon fill="#63b8ff" stroke="#63b8ff" points="743.85,-792.45 754.28,-790.64 744.99,-785.55 743.85,-792.45"/>
</a>
</g>
</g>
<!-- Node17 -->
<g id="Node000017" class="node">
<title>Node17</title>
<g id="a_Node000017"><a xlink:href="../../dc/d40/dwin_8c.html#ac9adcf7339be4a05ab1a7350c236b8a5" target="_top" xlink:title="Draw a box around the specified window.">
<polygon fill="white" stroke="#666666" points="809.5,-767.75 770.25,-767.75 770.25,-747 809.5,-747 809.5,-767.75"/>
<text xml:space="preserve" text-anchor="middle" x="789.88" y="-754.25" font-family="Helvetica,sans-Serif" font-size="10.00">cbox</text>
</a>
</g>
</g>
<!-- Node16&#45;&gt;Node17 -->
<g id="edge20_Node000016_Node000017" class="edge">
<title>Node16&#45;&gt;Node17</title>
<g id="a_edge20_Node000016_Node000017"><a xlink:title=" ">
<path fill="none" stroke="#63b8ff" d="M702.97,-772.38C719.98,-769.41 741.53,-765.64 758.79,-762.63"/>
<polygon fill="#63b8ff" stroke="#63b8ff" points="759.21,-766.11 768.46,-760.94 758.01,-759.21 759.21,-766.11"/>
</a>
</g>
</g>
<!-- Node19 -->
<g id="Node000019" class="node">
<title>Node19</title>
<g id="a_Node000019"><a xlink:href="../../dc/d40/dwin_8c.html#a67659f8a701b74f4dec0d36227a10d1c" target="_top" xlink:title="Display an error message window or print to stderr.">
<polygon fill="white" stroke="#666666" points="584.38,-519.75 504.62,-519.75 504.62,-499 584.38,-499 584.38,-519.75"/>
<text xml:space="preserve" text-anchor="middle" x="544.5" y="-506.25" font-family="Helvetica,sans-Serif" font-size="10.00">display_error</text>
</a>
</g>
</g>
<!-- Node18&#45;&gt;Node19 -->
<g id="edge23_Node000018_Node000019" class="edge">
<title>Node18&#45;&gt;Node19</title>
<g id="a_edge23_Node000018_Node000019"><a xlink:title=" ">
<path fill="none" stroke="#63b8ff" d="M431.49,-503.85C448.99,-502.68 472.03,-502.35 492.67,-502.86"/>
<polygon fill="#63b8ff" stroke="#63b8ff" points="492.53,-506.35 502.64,-503.19 492.76,-499.36 492.53,-506.35"/>
</a>
</g>
</g>
<!-- Node21 -->
<g id="Node000021" class="node">
<title>Node21</title>
<g id="a_Node000021"><a xlink:href="../../dc/d40/dwin_8c.html#a4298f891699300bfc4e6e56fd2a8d574" target="_top" xlink:title="Get keycode from chyron.">
<polygon fill="white" stroke="#666666" points="590.75,-558.75 498.25,-558.75 498.25,-538 590.75,-538 590.75,-558.75"/>
<text xml:space="preserve" text-anchor="middle" x="544.5" y="-545.25" font-family="Helvetica,sans-Serif" font-size="10.00">get_chyron_key</text>
</a>
</g>
</g>
<!-- Node18&#45;&gt;Node21 -->
<g id="edge35_Node000018_Node000021" class="edge">
<title>Node18&#45;&gt;Node21</title>
<g id="a_edge35_Node000018_Node000021"><a xlink:title=" ">
<path fill="none" stroke="#63b8ff" d="M431.49,-517.17C449.28,-522.13 472.82,-528.68 493.72,-534.51"/>
<polygon fill="#63b8ff" stroke="#63b8ff" points="492.65,-537.84 503.23,-537.16 494.53,-531.1 492.65,-537.84"/>
</a>
</g>
</g>
<!-- Node22 -->
<g id="Node000022" class="node">
<title>Node22</title>
<g id="a_Node000022"><a xlink:href="../../da/d12/sig_8c.html#a79c3e22498eb2346543aa9c86fd22e58" target="_top" xlink:title="Handle received signals and prompt user for action.">
<polygon fill="white" stroke="#666666" points="715.12,-673.75 631.62,-673.75 631.62,-653 715.12,-653 715.12,-673.75"/>
<text xml:space="preserve" text-anchor="middle" x="673.38" y="-660.25" font-family="Helvetica,sans-Serif" font-size="10.00">handle_signal</text>
</a>
</g>
</g>
<!-- Node18&#45;&gt;Node22 -->
<g id="edge36_Node000018_Node000022" class="edge">
<title>Node18&#45;&gt;Node22</title>
<g id="a_edge36_Node000018_Node000022"><a xlink:title=" ">
<path fill="none" stroke="#63b8ff" d="M419.87,-520.24C456.2,-544.13 546.7,-602.35 626.75,-643.38 629.81,-644.94 633.01,-646.5 636.25,-648.02"/>
<polygon fill="#63b8ff" stroke="#63b8ff" points="634.61,-651.12 645.16,-652.07 637.51,-644.75 634.61,-651.12"/>
</a>
</g>
</g>
<!-- Node19&#45;&gt;Node4 -->
<g id="edge24_Node000019_Node000004" class="edge">
<title>Node19&#45;&gt;Node4</title>
<g id="a_edge24_Node000019_Node000004"><a xlink:title=" ">
<path fill="none" stroke="#63b8ff" d="M574.67,-520.22C580.23,-522.84 585.84,-525.91 590.75,-529.38 609.76,-542.78 606.92,-555.21 626.75,-567.38 667.04,-592.09 720.79,-604.7 755.12,-610.66"/>
<polygon fill="#63b8ff" stroke="#63b8ff" points="754.48,-614.1 764.91,-612.26 755.6,-607.19 754.48,-614.1"/>
</a>
</g>
</g>
<!-- Node19&#45;&gt;Node8 -->
<g id="edge25_Node000019_Node000008" class="edge">
<title>Node19&#45;&gt;Node8</title>
<g id="a_edge25_Node000019_Node000008"><a xlink:title=" ">
<path fill="none" stroke="#63b8ff" d="M551.37,-498.66C564.16,-475.54 595.89,-419.53 626.75,-375.38 635.85,-362.36 646.97,-348.43 655.96,-337.6"/>
<polygon fill="#63b8ff" stroke="#63b8ff" points="658.47,-340.05 662.22,-330.14 653.11,-335.54 658.47,-340.05"/>
</a>
</g>
</g>
<!-- Node19&#45;&gt;Node10 -->
<g id="edge26_Node000019_Node000010" class="edge">
<title>Node19&#45;&gt;Node10</title>
<g id="a_edge26_Node000019_Node000010"><a xlink:title=" ">
<path fill="none" stroke="#63b8ff" d="M559.35,-498.61C575.12,-486.65 601.91,-467.22 626.75,-453.38 629.42,-451.89 632.22,-450.43 635.07,-449.02"/>
<polygon fill="#63b8ff" stroke="#63b8ff" points="636.48,-452.23 644.05,-444.82 633.51,-445.89 636.48,-452.23"/>
</a>
</g>
</g>
<!-- Node19&#45;&gt;Node11 -->
<g id="edge27_Node000019_Node000011" class="edge">
<title>Node19&#45;&gt;Node11</title>
<g id="a_edge27_Node000019_Node000011"><a xlink:title=" ">
<path fill="none" stroke="#63b8ff" d="M577.42,-520.11C582.24,-522.65 586.89,-525.71 590.75,-529.38 616.42,-553.72 601.92,-575.17 626.75,-600.38 629.47,-603.14 632.58,-605.65 635.86,-607.92"/>
<polygon fill="#63b8ff" stroke="#63b8ff" points="633.74,-610.73 644.11,-612.9 637.36,-604.74 633.74,-610.73"/>
</a>
</g>
</g>
<!-- Node19&#45;&gt;Node12 -->
<g id="edge28_Node000019_Node000012" class="edge">
<title>Node19&#45;&gt;Node12</title>
<g id="a_edge28_Node000019_Node000012"><a xlink:title=" ">
<path fill="none" stroke="#63b8ff" d="M582.54,-498.57C595.7,-494.74 610.7,-490.36 624.63,-486.3"/>
<polygon fill="#63b8ff" stroke="#63b8ff" points="625.44,-489.71 634.06,-483.55 623.48,-482.99 625.44,-489.71"/>
</a>
</g>
</g>
<!-- Node19&#45;&gt;Node13 -->
<g id="edge29_Node000019_Node000013" class="edge">
<title>Node19&#45;&gt;Node13</title>
<g id="a_edge29_Node000019_Node000013"><a xlink:title=" ">
<path fill="none" stroke="#63b8ff" d="M584.82,-513.09C621.73,-514.84 677.48,-512.9 720,-491.38 744.57,-478.94 764.59,-453.79 776.59,-435.83"/>
<polygon fill="#63b8ff" stroke="#63b8ff" points="779.47,-437.83 781.89,-427.51 773.56,-434.07 779.47,-437.83"/>
</a>
</g>
</g>
<!-- Node19&#45;&gt;Node14 -->
<g id="edge31_Node000019_Node000014" class="edge">
<title>Node19&#45;&gt;Node14</title>
<g id="a_edge31_Node000019_Node000014"><a xlink:title=" ">
<path fill="none" stroke="#63b8ff" d="M579.58,-520.15C583.78,-522.64 587.68,-525.67 590.75,-529.38 635.37,-583.12 588.09,-624.19 626.75,-682.38 644.09,-708.46 718.77,-755.11 760.46,-779.87"/>
<polygon fill="#63b8ff" stroke="#63b8ff" points="758.6,-782.84 768.99,-784.9 762.15,-776.81 758.6,-782.84"/>
</a>
</g>
</g>
<!-- Node19&#45;&gt;Node15 -->
<g id="edge32_Node000019_Node000015" class="edge">
<title>Node19&#45;&gt;Node15</title>
<g id="a_edge32_Node000019_Node000015"><a xlink:title=" ">
<path fill="none" stroke="#63b8ff" d="M552.31,-498.59C564.92,-479.37 593.63,-438.94 626.75,-414.38 629.67,-412.21 632.86,-410.22 636.15,-408.4"/>
<polygon fill="#63b8ff" stroke="#63b8ff" points="637.38,-411.69 644.81,-404.14 634.29,-405.41 637.38,-411.69"/>
</a>
</g>
</g>
<!-- Node19&#45;&gt;Node16 -->
<g id="edge33_Node000019_Node000016" class="edge">
<title>Node19&#45;&gt;Node16</title>
<g id="a_edge33_Node000019_Node000016"><a xlink:title=" ">
<path fill="none" stroke="#63b8ff" d="M580.27,-520.22C584.27,-522.69 587.92,-525.7 590.75,-529.38 652.33,-609.22 567.92,-671.48 626.75,-753.38 628.82,-756.26 631.35,-758.83 634.15,-761.11"/>
<polygon fill="#63b8ff" stroke="#63b8ff" points="632.19,-764.02 642.47,-766.61 636.05,-758.18 632.19,-764.02"/>
</a>
</g>
</g>
<!-- Node19&#45;&gt;Node18 -->
<g id="edge34_Node000019_Node000018" class="edge">
<title>Node19&#45;&gt;Node18</title>
<g id="a_edge34_Node000019_Node000018"><a xlink:title=" ">
<path fill="none" stroke="#63b8ff" d="M504.15,-515.51C485,-516.33 462.02,-516.33 442.86,-515.51"/>
<polygon fill="#63b8ff" stroke="#63b8ff" points="443.18,-512.03 433.01,-514.98 442.8,-519.02 443.18,-512.03"/>
</a>
</g>
</g>
<!-- Node20 -->
<g id="Node000020" class="node">
<title>Node20</title>
<g id="a_Node000020"><a xlink:href="../../d0/d59/futil_8c.html#a636608f26d1193b5d860f2312cd8ee49" target="_top" xlink:title="terminates string at New Line, Carriage Return, or max_len">
<polygon fill="white" stroke="#666666" points="693.38,-558.75 653.38,-558.75 653.38,-538 693.38,-538 693.38,-558.75"/>
<text xml:space="preserve" text-anchor="middle" x="673.38" y="-545.25" font-family="Helvetica,sans-Serif" font-size="10.00">strnz</text>
</a>
</g>
</g>
<!-- Node19&#45;&gt;Node20 -->
<g id="edge30_Node000019_Node000020" class="edge">
<title>Node19&#45;&gt;Node20</title>
<g id="a_edge30_Node000019_Node000020"><a xlink:title=" ">
<path fill="none" stroke="#63b8ff" d="M580.84,-520.24C600.06,-526.15 623.59,-533.38 641.98,-539.03"/>
<polygon fill="#63b8ff" stroke="#63b8ff" points="640.92,-542.37 651.51,-541.96 642.98,-535.68 640.92,-542.37"/>
</a>
</g>
</g>
<!-- Node22&#45;&gt;Node6 -->
<g id="edge37_Node000022_Node000006" class="edge">
<title>Node22&#45;&gt;Node6</title>
<g id="a_edge37_Node000022_Node000006"><a xlink:title=" ">
<path fill="none" stroke="#63b8ff" d="M715.47,-660.22C778.31,-655.39 898.87,-646.12 973.69,-640.37"/>
<polygon fill="#63b8ff" stroke="#63b8ff" points="973.63,-643.89 983.33,-639.63 973.09,-636.91 973.63,-643.89"/>
</a>
</g>
</g>
<!-- Node22&#45;&gt;Node13 -->
<g id="edge38_Node000022_Node000013" class="edge">
<title>Node22&#45;&gt;Node13</title>
<g id="a_edge38_Node000022_Node000013"><a xlink:title=" ">
<path fill="none" stroke="#63b8ff" d="M708.06,-652.72C712.51,-650.21 716.67,-647.13 720,-643.38 773.69,-582.84 785.54,-481.63 788.15,-437.3"/>
<polygon fill="#63b8ff" stroke="#63b8ff" points="791.64,-437.59 788.61,-427.44 784.65,-437.27 791.64,-437.59"/>
</a>
</g>
</g>
<!-- Node22&#45;&gt;Node14 -->
<g id="edge39_Node000022_Node000014" class="edge">
<title>Node22&#45;&gt;Node14</title>
<g id="a_edge39_Node000022_Node000014"><a xlink:title=" ">
<path fill="none" stroke="#63b8ff" d="M682.19,-673.86C691.33,-686.15 706.87,-707.16 720,-725.38 736.22,-747.88 735.72,-757.44 756,-776.38 756.9,-777.22 757.85,-778.04 758.82,-778.85"/>
<polygon fill="#63b8ff" stroke="#63b8ff" points="756.74,-781.66 766.9,-784.66 760.82,-775.98 756.74,-781.66"/>
</a>
</g>
</g>
<!-- Node24 -->
<g id="Node000024" class="node">
<title>Node24</title>
<g id="a_Node000024"><a xlink:href="../../d0/d8e/view__engine_8c.html#a9fc984ba8ce6c4059b33a915d526357f" target="_top" xlink:title="Parse ANSI SGR Escape Sequence.">
<polygon fill="white" stroke="#666666" points="297.75,-213.75 211.25,-213.75 211.25,-193 297.75,-193 297.75,-213.75"/>
<text xml:space="preserve" text-anchor="middle" x="254.5" y="-200.25" font-family="Helvetica,sans-Serif" font-size="10.00">parse_ansi_str</text>
</a>
</g>
</g>
<!-- Node23&#45;&gt;Node24 -->
<g id="edge41_Node000023_Node000024" class="edge">
<title>Node23&#45;&gt;Node24</title>
<g id="a_edge41_Node000023_Node000024"><a xlink:title=" ">
<path fill="none" stroke="#63b8ff" d="M153.86,-233.91C169.48,-229.13 189.41,-223.02 207.34,-217.52"/>
<polygon fill="#63b8ff" stroke="#63b8ff" points="208.21,-220.92 216.74,-214.64 206.15,-214.22 208.21,-220.92"/>
</a>
</g>
</g>
<!-- Node30 -->
<g id="Node000030" class="node">
<title>Node30</title>
<g id="a_Node000030"><a xlink:href="../../d0/d59/futil_8c.html#a4f42956462e811d96c9fb881a85dada4" target="_top" xlink:title="Trims trailing spaces from string s in place.">
<polygon fill="white" stroke="#666666" points="274.5,-252.75 234.5,-252.75 234.5,-232 274.5,-232 274.5,-252.75"/>
<text xml:space="preserve" text-anchor="middle" x="254.5" y="-239.25" font-family="Helvetica,sans-Serif" font-size="10.00">rtrim</text>
</a>
</g>
</g>
<!-- Node23&#45;&gt;Node30 -->
<g id="edge49_Node000023_Node000030" class="edge">
<title>Node23&#45;&gt;Node30</title>
<g id="a_edge49_Node000023_Node000030"><a xlink:title=" ">
<path fill="none" stroke="#63b8ff" d="M153.86,-242.38C174.15,-242.38 201.72,-242.38 222.71,-242.38"/>
<polygon fill="#63b8ff" stroke="#63b8ff" points="222.7,-245.88 232.7,-242.38 222.7,-238.88 222.7,-245.88"/>
</a>
</g>
</g>
<!-- Node25 -->
<g id="Node000025" class="node">
<title>Node25</title>
<g id="a_Node000025"><a xlink:href="../../d0/d59/futil_8c.html#ab96e4c73a7b3ba1310044b479733cdd9" target="_top" xlink:title="a safer alternative to atoi() for converting ASCII strings to integers.">
<polygon fill="white" stroke="#666666" points="422.5,-135.75 382.5,-135.75 382.5,-115 422.5,-115 422.5,-135.75"/>
<text xml:space="preserve" text-anchor="middle" x="402.5" y="-122.25" font-family="Helvetica,sans-Serif" font-size="10.00">a_toi</text>
</a>
</g>
</g>
<!-- Node24&#45;&gt;Node25 -->
<g id="edge42_Node000024_Node000025" class="edge">
<title>Node24&#45;&gt;Node25</title>
<g id="a_edge42_Node000024_Node000025"><a xlink:title=" ">
<path fill="none" stroke="#63b8ff" d="M269.33,-192.54C285.98,-179.88 315.17,-158.95 342.75,-145.38 351.75,-140.94 361.98,-137.09 371.35,-133.98"/>
<polygon fill="#63b8ff" stroke="#63b8ff" points="372.28,-137.36 380.77,-131.02 370.18,-130.68 372.28,-137.36"/>
</a>
</g>
</g>
<!-- Node26 -->
<g id="Node000026" class="node">
<title>Node26</title>
<g id="a_Node000026"><a xlink:href="../../dc/d40/dwin_8c.html#af0ba4efbc81c259a2519ca41dd9d1599" target="_top" xlink:title="Get color pair index for foreground and background colors.">
<polygon fill="white" stroke="#666666" points="439,-252.75 366,-252.75 366,-232 439,-232 439,-252.75"/>
<text xml:space="preserve" text-anchor="middle" x="402.5" y="-239.25" font-family="Helvetica,sans-Serif" font-size="10.00">get_clr_pair</text>
</a>
</g>
</g>
<!-- Node24&#45;&gt;Node26 -->
<g id="edge43_Node000024_Node000026" class="edge">
<title>Node24&#45;&gt;Node26</title>
<g id="a_edge43_Node000024_Node000026"><a xlink:title=" ">
<path fill="none" stroke="#63b8ff" d="M296.17,-214.24C314.28,-219.08 335.72,-224.8 354.52,-229.82"/>
<polygon fill="#63b8ff" stroke="#63b8ff" points="353.5,-233.18 364.06,-232.37 355.3,-226.41 353.5,-233.18"/>
</a>
</g>
</g>
<!-- Node27 -->
<g id="Node000027" class="node">
<title>Node27</title>
<g id="a_Node000027"><a xlink:href="../../dc/d40/dwin_8c.html#a4900dd34e828972e58b0ca549cf7d4d8" target="_top" xlink:title="Get color index for RGB color.">
<polygon fill="white" stroke="#666666" points="452.88,-213.75 352.12,-213.75 352.12,-193 452.88,-193 452.88,-213.75"/>
<text xml:space="preserve" text-anchor="middle" x="402.5" y="-200.25" font-family="Helvetica,sans-Serif" font-size="10.00">rgb_to_curses_clr</text>
</a>
</g>
</g>
<!-- Node24&#45;&gt;Node27 -->
<g id="edge46_Node000024_Node000027" class="edge">
<title>Node24&#45;&gt;Node27</title>
<g id="a_edge46_Node000024_Node000027"><a xlink:title=" ">
<path fill="none" stroke="#63b8ff" d="M298.12,-203.38C311.4,-203.38 326.32,-203.38 340.6,-203.38"/>
<polygon fill="#63b8ff" stroke="#63b8ff" points="340.36,-206.88 350.36,-203.38 340.36,-199.88 340.36,-206.88"/>
</a>
</g>
</g>
<!-- Node29 -->
<g id="Node000029" class="node">
<title>Node29</title>
<g id="a_Node000029"><a xlink:href="../../dc/d40/dwin_8c.html#a31ee0d93c7b527f92559fc410152f768" target="_top" xlink:title="Convert XTerm 256 color index to RGB color.">
<polygon fill="white" stroke="#666666" points="462.25,-174.75 342.75,-174.75 342.75,-154 462.25,-154 462.25,-174.75"/>
<text xml:space="preserve" text-anchor="middle" x="402.5" y="-161.25" font-family="Helvetica,sans-Serif" font-size="10.00">xterm256_idx_to_rgb</text>
</a>
</g>
</g>
<!-- Node24&#45;&gt;Node29 -->
<g id="edge48_Node000024_Node000029" class="edge">
<title>Node24&#45;&gt;Node29</title>
<g id="a_edge48_Node000024_Node000029"><a xlink:title=" ">
<path fill="none" stroke="#63b8ff" d="M296.17,-192.51C312.79,-188.07 332.21,-182.88 349.82,-178.18"/>
<polygon fill="#63b8ff" stroke="#63b8ff" points="350.58,-181.6 359.33,-175.64 348.77,-174.84 350.58,-181.6"/>
</a>
</g>
</g>
<!-- Node26&#45;&gt;Node13 -->
<g id="edge45_Node000026_Node000013" class="edge">
<title>Node26&#45;&gt;Node13</title>
<g id="a_edge45_Node000026_Node000013"><a xlink:title=" ">
<path fill="none" stroke="#63b8ff" d="M439.11,-234.34C502.01,-222.29 634.21,-206.83 720,-266.38 762.97,-296.2 779.73,-359.86 785.77,-393.5"/>
<polygon fill="#63b8ff" stroke="#63b8ff" points="782.31,-393.98 787.36,-403.29 789.22,-392.86 782.31,-393.98"/>
</a>
</g>
</g>
<!-- Node26&#45;&gt;Node19 -->
<g id="edge44_Node000026_Node000019" class="edge">
<title>Node26&#45;&gt;Node19</title>
<g id="a_edge44_Node000026_Node000019"><a xlink:title=" ">
<path fill="none" stroke="#63b8ff" d="M409.16,-253.17C430.27,-293.43 504.62,-435.22 532.67,-488.73"/>
<polygon fill="#63b8ff" stroke="#63b8ff" points="529.47,-490.16 537.22,-497.4 535.67,-486.91 529.47,-490.16"/>
</a>
</g>
</g>
<!-- Node28 -->
<g id="Node000028" class="node">
<title>Node28</title>
<g id="a_Node000028"><a xlink:href="../../dc/d40/dwin_8c.html#aa3a6b291c0820d9da545325a2dba5274" target="_top" xlink:title="Apply gamma correction to RGB color.">
<polygon fill="white" stroke="#666666" points="587.38,-213.75 501.62,-213.75 501.62,-193 587.38,-193 587.38,-213.75"/>
<text xml:space="preserve" text-anchor="middle" x="544.5" y="-200.25" font-family="Helvetica,sans-Serif" font-size="10.00">apply_gamma</text>
</a>
</g>
</g>
<!-- Node27&#45;&gt;Node28 -->
<g id="edge47_Node000027_Node000028" class="edge">
<title>Node27&#45;&gt;Node28</title>
<g id="a_edge47_Node000027_Node000028"><a xlink:title=" ">
<path fill="none" stroke="#63b8ff" d="M453.25,-203.38C465.16,-203.38 477.93,-203.38 490.01,-203.38"/>
<polygon fill="#63b8ff" stroke="#63b8ff" points="489.8,-206.88 499.8,-203.38 489.8,-199.88 489.8,-206.88"/>
</a>
</g>
</g>
<!-- Node32&#45;&gt;Node31 -->
<g id="edge52_Node000032_Node000031" class="edge">
<title>Node32&#45;&gt;Node31</title>
<g id="a_edge52_Node000032_Node000031"><a xlink:title=" ">
<path fill="none" stroke="#63b8ff" d="M162.37,-22.16C176.08,-26.25 191.88,-30.97 206.45,-35.32"/>
<polygon fill="#63b8ff" stroke="#63b8ff" points="205.25,-38.62 215.84,-38.13 207.25,-31.91 205.25,-38.62"/>
</a>
</g>
</g>
<!-- Node33 -->
<g id="Node000033" class="node">
<title>Node33</title>
<g id="a_Node000033"><a xlink:href="../../d0/d8e/view__engine_8c.html#aaf8cff992778d85e44351a834ad2b81a" target="_top" xlink:title="Get Position of Previous Line.">
<polygon fill="white" stroke="#666666" points="306.75,-20.75 202.25,-20.75 202.25,0 306.75,0 306.75,-20.75"/>
<text xml:space="preserve" text-anchor="middle" x="254.5" y="-7.25" font-family="Helvetica,sans-Serif" font-size="10.00">get_pos_prev_line</text>
</a>
</g>
</g>
<!-- Node32&#45;&gt;Node33 -->
<g id="edge53_Node000032_Node000033" class="edge">
<title>Node32&#45;&gt;Node33</title>
<g id="a_edge53_Node000032_Node000033"><a xlink:title=" ">
<path fill="none" stroke="#63b8ff" d="M166.51,-11.06C174.13,-11 182.28,-10.93 190.4,-10.87"/>
<polygon fill="#63b8ff" stroke="#63b8ff" points="190.35,-14.37 200.32,-10.79 190.29,-7.37 190.35,-14.37"/>
</a>
</g>
</g>
</g>
</svg>
