<?xml version="1.0" encoding="UTF-8" standalone="no"?>
<!DOCTYPE svg PUBLIC "-//W3C//DTD SVG 1.1//EN"
 "http://www.w3.org/Graphics/SVG/1.1/DTD/svg11.dtd">
<!-- Generated by graphviz version 14.1.2 (0)
 -->
<!-- Title: stripz_quotes Pages: 1 -->
<!--zoomable 362 -->

<svg id="main" version="1.1" xmlns="http://www.w3.org/2000/svg" xmlns:xlink="http://www.w3.org/1999/xlink" xml:space="preserve" onload="init(evt)">

<style type="text/css"><![CDATA[
.node, .edge {opacity: 0.7;}
.node.selected, .edge.selected {opacity: 1;}
.edge:hover path { stroke: red; }
.edge:hover polygon { stroke: red; fill: red; }
]]></style>

<defs>
  <circle id="rim" cx="0" cy="0" r="7"/>
  <circle id="rim2" cx="0" cy="0" r="3.5"/>
  <g id="zoomPlus">
    <use xlink:href="#rim" fill="#404040"><set attributeName="fill" to="#808080" begin="zoomplus.mouseover" end="zoomplus.mouseout"/></use>
    <path d="M-4,0h8M0,-4v8" fill="none" stroke="white" stroke-width="1.5" pointer-events="none"/>
  </g>
  <g id="zoomMin">
    <use xlink:href="#rim" fill="#404040"><set attributeName="fill" to="#808080" begin="zoomminus.mouseover" end="zoomminus.mouseout"/></use>
    <path d="M-4,0h8" fill="none" stroke="white" stroke-width="1.5" pointer-events="none"/>
  </g>
  <g id="arrowUp" transform="translate(30 24)">
    <use xlink:href="#rim"/>
    <path pointer-events="none" fill="none" stroke="white" stroke-width="1.5" d="M0,-3.0v7 M-2.5,-0.5L0,-3.0L2.5,-0.5"/>
  </g>
  <g id="arrowRight" transform="rotate(90) translate(36 -43)">
    <use xlink:href="#rim"/>
    <path pointer-events="none" fill="none" stroke="white" stroke-width="1.5" d="M0,-3.0v7 M-2.5,-0.5L0,-3.0L2.5,-0.5"/>
  </g>
  <g id="arrowDown" transform="rotate(180) translate(-30 -48)">
    <use xlink:href="#rim"/>
    <path pointer-events="none" fill="none" stroke="white" stroke-width="1.5" d="M0,-3.0v7 M-2.5,-0.5L0,-3.0L2.5,-0.5"/>
  </g>
  <g id="arrowLeft" transform="rotate(270) translate(-36 17)">
    <use xlink:href="#rim"/>
    <path pointer-events="none" fill="none" stroke="white" stroke-width="1.5" d="M0,-3.0v7 M-2.5,-0.5L0,-3.0L2.5,-0.5"/>
  </g>
  <g id="resetDef">
    <use xlink:href="#rim2" fill="#404040"><set attributeName="fill" to="#808080" begin="reset.mouseover" end="reset.mouseout"/></use>
  </g>
</defs>
<script type="application/ecmascript">
var viewWidth = 1524;
var viewHeight = 362;
var sectionId = 'dynsection-28';
</script>
<script type="application/ecmascript" xlink:href="../../svg.min.js"/>
<svg id="graph" class="graph">
<g id="viewport">
<title>stripz_quotes</title>
<!-- Node1 -->
<g id="Node000001" class="node">
<title>Node1</title>
<g id="a_Node000001"><a xlink:title="removes leading and trailing double quotes if present">
<polygon fill="#999999" stroke="#666666" points="1516,-143.75 1434.75,-143.75 1434.75,-123 1516,-123 1516,-143.75"/>
<text xml:space="preserve" text-anchor="middle" x="1475.38" y="-130.25" font-family="Helvetica,sans-Serif" font-size="10.00">stripz_quotes</text>
</a>
</g>
</g>
<!-- Node2 -->
<g id="Node000002" class="node">
<title>Node2</title>
<g id="a_Node000002"><a xlink:href="../../df/da9/a00263.html#a75ce293fe4e007a3337a190647408000" target="_top" xlink:title="Verify file specification argument.">
<polygon fill="white" stroke="#666666" points="1398.75,-143.75 1305.5,-143.75 1305.5,-123 1398.75,-123 1398.75,-143.75"/>
<text xml:space="preserve" text-anchor="middle" x="1352.12" y="-130.25" font-family="Helvetica,sans-Serif" font-size="10.00">verify_spec_arg</text>
</a>
</g>
</g>
<!-- Node1&#45;&gt;Node2 -->
<g id="edge1_Node000001_Node000002" class="edge">
<title>Node1&#45;&gt;Node2</title>
<g id="a_edge1_Node000001_Node000002"><a xlink:title=" ">
<path fill="none" stroke="#63b8ff" d="M1422.92,-133.38C1414.97,-133.38 1406.81,-133.38 1399,-133.38"/>
<polygon fill="#63b8ff" stroke="#63b8ff" points="1422.82,-136.88 1432.82,-133.38 1422.82,-129.88 1422.82,-136.88"/>
</a>
</g>
</g>
<!-- Node3 -->
<g id="Node000003" class="node">
<title>Node3</title>
<g id="a_Node000003"><a xlink:href="../../dd/d52/a00221.html#a2ffea5674e85f124a70e19f745a66583" target="_top" xlink:title="use form to enter a file specification">
<polygon fill="white" stroke="#666666" points="1269.5,-173.75 1179.25,-173.75 1179.25,-153 1269.5,-153 1269.5,-173.75"/>
<text xml:space="preserve" text-anchor="middle" x="1224.38" y="-160.25" font-family="Helvetica,sans-Serif" font-size="10.00">enter_file_spec</text>
</a>
</g>
</g>
<!-- Node2&#45;&gt;Node3 -->
<g id="edge2_Node000002_Node000003" class="edge">
<title>Node2&#45;&gt;Node3</title>
<g id="a_edge2_Node000002_Node000003"><a xlink:title=" ">
<path fill="none" stroke="#63b8ff" d="M1294.58,-146.87C1286.29,-148.84 1277.86,-150.85 1269.86,-152.76"/>
<polygon fill="#63b8ff" stroke="#63b8ff" points="1295.34,-150.28 1304.25,-144.56 1293.71,-143.47 1295.34,-150.28"/>
</a>
</g>
</g>
<!-- Node21 -->
<g id="Node000021" class="node">
<title>Node21</title>
<g id="a_Node000021"><a xlink:href="../../df/da9/a00263.html#a4da25f98e58860d93b737cdc1997e9e9" target="_top" xlink:title="Initialize Form file specifications.">
<polygon fill="white" stroke="#666666" points="1267.62,-278.75 1181.12,-278.75 1181.12,-258 1267.62,-258 1267.62,-278.75"/>
<text xml:space="preserve" text-anchor="middle" x="1224.38" y="-265.25" font-family="Helvetica,sans-Serif" font-size="10.00">init_form_files</text>
</a>
</g>
</g>
<!-- Node2&#45;&gt;Node21 -->
<g id="edge27_Node000002_Node000021" class="edge">
<title>Node2&#45;&gt;Node21</title>
<g id="a_edge27_Node000002_Node000021"><a xlink:title=" ">
<path fill="none" stroke="#63b8ff" d="M1333.42,-152.38C1306.55,-181.23 1256.37,-235.1 1235.2,-257.83"/>
<polygon fill="#63b8ff" stroke="#63b8ff" points="1335.97,-154.78 1340.23,-145.08 1330.85,-150.01 1335.97,-154.78"/>
</a>
</g>
</g>
<!-- Node23 -->
<g id="Node000023" class="node">
<title>Node23</title>
<g id="a_Node000023"><a xlink:href="../../df/da9/a00263.html#a6a3ca11276b38608f15cef7c3962143e" target="_top" xlink:title="Initialize Menu file specifications.">
<polygon fill="white" stroke="#666666" points="1129.75,-20.75 1038.75,-20.75 1038.75,0 1129.75,0 1129.75,-20.75"/>
<text xml:space="preserve" text-anchor="middle" x="1084.25" y="-7.25" font-family="Helvetica,sans-Serif" font-size="10.00">init_menu_files</text>
</a>
</g>
</g>
<!-- Node2&#45;&gt;Node23 -->
<g id="edge30_Node000002_Node000023" class="edge">
<title>Node2&#45;&gt;Node23</title>
<g id="a_edge30_Node000002_Node000023"><a xlink:title=" ">
<path fill="none" stroke="#63b8ff" d="M1328.98,-115.48C1313.12,-103.29 1290.86,-87.41 1269.5,-76.38 1221.8,-51.74 1162.8,-32.37 1124.61,-21.15"/>
<polygon fill="#63b8ff" stroke="#63b8ff" points="1326.74,-118.18 1336.77,-121.59 1331.06,-112.67 1326.74,-118.18"/>
</a>
</g>
</g>
<!-- Node25 -->
<g id="Node000025" class="node">
<title>Node25</title>
<g id="a_Node000025"><a xlink:href="../../df/da9/a00263.html#ab40bb77758b149f33cbde8063f341b00" target="_top" xlink:title="Initialize Pick file specifications.">
<polygon fill="white" stroke="#666666" points="1266.12,-105.75 1182.62,-105.75 1182.62,-85 1266.12,-85 1266.12,-105.75"/>
<text xml:space="preserve" text-anchor="middle" x="1224.38" y="-92.25" font-family="Helvetica,sans-Serif" font-size="10.00">init_pick_files</text>
</a>
</g>
</g>
<!-- Node2&#45;&gt;Node25 -->
<g id="edge34_Node000002_Node000025" class="edge">
<title>Node2&#45;&gt;Node25</title>
<g id="a_edge34_Node000002_Node000025"><a xlink:title=" ">
<path fill="none" stroke="#63b8ff" d="M1304.72,-119.35C1290.34,-115.01 1274.71,-110.28 1261.16,-106.19"/>
<polygon fill="#63b8ff" stroke="#63b8ff" points="1303.39,-122.61 1313.98,-122.15 1305.42,-115.91 1303.39,-122.61"/>
</a>
</g>
</g>
<!-- Node4 -->
<g id="Node000004" class="node">
<title>Node4</title>
<g id="a_Node000004"><a xlink:href="../../dd/d52/a00221.html#a9c4b3ba5f73c18b486646c62b933972a" target="_top" xlink:title="Main Command Processing Loop for View.">
<polygon fill="white" stroke="#666666" points="1143.25,-173.75 1025.25,-173.75 1025.25,-153 1143.25,-153 1143.25,-173.75"/>
<text xml:space="preserve" text-anchor="middle" x="1084.25" y="-160.25" font-family="Helvetica,sans-Serif" font-size="10.00">view_cmd_processor</text>
</a>
</g>
</g>
<!-- Node3&#45;&gt;Node4 -->
<g id="edge3_Node000003_Node000004" class="edge">
<title>Node3&#45;&gt;Node4</title>
<g id="a_edge3_Node000003_Node000004"><a xlink:title=" ">
<path fill="none" stroke="#63b8ff" d="M1167.62,-163.38C1159.76,-163.38 1151.66,-163.38 1143.75,-163.38"/>
<polygon fill="#63b8ff" stroke="#63b8ff" points="1167.4,-166.88 1177.4,-163.38 1167.4,-159.88 1167.4,-166.88"/>
</a>
</g>
</g>
<!-- Node5 -->
<g id="Node000005" class="node">
<title>Node5</title>
<g id="a_Node000005"><a xlink:href="../../dd/d52/a00221.html#a0bd4dc056ab5010547129bb87819789b" target="_top" xlink:title="Start view.">
<polygon fill="white" stroke="#666666" points="987,-191.75 926.75,-191.75 926.75,-171 987,-171 987,-191.75"/>
<text xml:space="preserve" text-anchor="middle" x="956.88" y="-178.25" font-family="Helvetica,sans-Serif" font-size="10.00">view_file</text>
</a>
</g>
</g>
<!-- Node4&#45;&gt;Node5 -->
<g id="edge4_Node000004_Node000005" class="edge">
<title>Node4&#45;&gt;Node5</title>
<g id="a_edge4_Node000004_Node000005"><a xlink:title=" ">
<path fill="none" stroke="#63b8ff" d="M1013.65,-173.37C1004.4,-174.7 995.36,-175.99 987.34,-177.14"/>
<polygon fill="#63b8ff" stroke="#63b8ff" points="1014.07,-176.84 1023.47,-171.96 1013.07,-169.91 1014.07,-176.84"/>
</a>
</g>
</g>
<!-- Node6 -->
<g id="Node000006" class="node">
<title>Node6</title>
<g id="a_Node000006"><a xlink:href="../../d5/ddf/a00224.html#a3c04138a5bfe5d72780bb7e82a18e627" target="_top" xlink:title=" ">
<polygon fill="white" stroke="#666666" points="758.12,-277.75 717.38,-277.75 717.38,-257 758.12,-257 758.12,-277.75"/>
<text xml:space="preserve" text-anchor="middle" x="737.75" y="-264.25" font-family="Helvetica,sans-Serif" font-size="10.00">main</text>
</a>
</g>
</g>
<!-- Node5&#45;&gt;Node6 -->
<g id="edge5_Node000005_Node000006" class="edge">
<title>Node5&#45;&gt;Node6</title>
<g id="a_edge5_Node000005_Node000006"><a xlink:title=" ">
<path fill="none" stroke="#63b8ff" d="M918.37,-196.53C884.94,-209.99 834.65,-230.16 790.75,-247.38 780.12,-251.54 768.25,-256.12 758.53,-259.84"/>
<polygon fill="#63b8ff" stroke="#63b8ff" points="919.66,-199.78 927.63,-192.79 917.05,-193.29 919.66,-199.78"/>
</a>
</g>
</g>
<!-- Node7 -->
<g id="Node000007" class="node">
<title>Node7</title>
<g id="a_Node000007"><a xlink:href="../../d7/d03/a00254.html#a75a4e7afc9c9aafd3d35ab706f5fdc71" target="_top" xlink:title="subprogram entry point for C&#45;Menu View">
<polygon fill="white" stroke="#666666" points="882.12,-191.75 833.12,-191.75 833.12,-171 882.12,-171 882.12,-191.75"/>
<text xml:space="preserve" text-anchor="middle" x="857.62" y="-178.25" font-family="Helvetica,sans-Serif" font-size="10.00">mview</text>
</a>
</g>
</g>
<!-- Node5&#45;&gt;Node7 -->
<g id="edge6_Node000005_Node000007" class="edge">
<title>Node5&#45;&gt;Node7</title>
<g id="a_edge6_Node000005_Node000007"><a xlink:title=" ">
<path fill="none" stroke="#63b8ff" d="M915.13,-181.38C903.99,-181.38 892.28,-181.38 882.42,-181.38"/>
<polygon fill="#63b8ff" stroke="#63b8ff" points="914.92,-184.88 924.92,-181.38 914.92,-177.88 914.92,-184.88"/>
</a>
</g>
</g>
<!-- Node7&#45;&gt;Node6 -->
<g id="edge23_Node000007_Node000006" class="edge">
<title>Node7&#45;&gt;Node6</title>
<g id="a_edge23_Node000007_Node000006"><a xlink:title=" ">
<path fill="none" stroke="#63b8ff" d="M841.15,-200.81C828.79,-215.27 810.34,-234.63 790.75,-247.38 780.86,-253.81 768.58,-258.65 758.45,-261.96"/>
<polygon fill="#63b8ff" stroke="#63b8ff" points="843.69,-203.23 847.38,-193.3 838.3,-198.76 843.69,-203.23"/>
</a>
</g>
</g>
<!-- Node8 -->
<g id="Node000008" class="node">
<title>Node8</title>
<g id="a_Node000008"><a xlink:href="../../d0/d27/a00239.html#aeebc4c0b94ca97d753e10a0cd1798730" target="_top" xlink:title="Displays the help screen for the pick interface using mview.">
<polygon fill="white" stroke="#666666" points="789.25,-162.75 686.25,-162.75 686.25,-142 789.25,-142 789.25,-162.75"/>
<text xml:space="preserve" text-anchor="middle" x="737.75" y="-149.25" font-family="Helvetica,sans-Serif" font-size="10.00">display_pick_help</text>
</a>
</g>
</g>
<!-- Node7&#45;&gt;Node8 -->
<g id="edge7_Node000007_Node000008" class="edge">
<title>Node7&#45;&gt;Node8</title>
<g id="a_edge7_Node000007_Node000008"><a xlink:title=" ">
<path fill="none" stroke="#63b8ff" d="M821.63,-172.76C809.38,-169.75 795.47,-166.33 782.6,-163.16"/>
<polygon fill="#63b8ff" stroke="#63b8ff" points="820.75,-176.15 831.3,-175.14 822.43,-169.36 820.75,-176.15"/>
</a>
</g>
</g>
<!-- Node13 -->
<g id="Node000013" class="node">
<title>Node13</title>
<g id="a_Node000013"><a xlink:href="../../d9/d39/a00257.html#aa5d0e30e7036b72b51c843d0a7e486a1" target="_top" xlink:title="Processes user input for the menu system.">
<polygon fill="white" stroke="#666666" points="317.25,-181.75 194.75,-181.75 194.75,-161 317.25,-161 317.25,-181.75"/>
<text xml:space="preserve" text-anchor="middle" x="256" y="-168.25" font-family="Helvetica,sans-Serif" font-size="10.00">menu_cmd_processor</text>
</a>
</g>
</g>
<!-- Node7&#45;&gt;Node13 -->
<g id="edge24_Node000007_Node000013" class="edge">
<title>Node7&#45;&gt;Node13</title>
<g id="a_edge24_Node000007_Node000013"><a xlink:title=" ">
<path fill="none" stroke="#63b8ff" d="M821.56,-183.46C773.74,-186.12 685.35,-190.38 609.88,-190.38 609.88,-190.38 609.88,-190.38 494.75,-190.38 434.29,-190.38 365.47,-184.2 317.48,-178.88"/>
<polygon fill="#63b8ff" stroke="#63b8ff" points="821.52,-186.97 831.3,-182.91 821.12,-179.98 821.52,-186.97"/>
</a>
</g>
</g>
<!-- Node16 -->
<g id="Node000016" class="node">
<title>Node16</title>
<g id="a_Node000016"><a xlink:href="../../d0/d27/a00239.html#af7fcbb1c8b67a4d11c86ba7209f397c2" target="_top" xlink:title="Executes specified command with selected objects as arguments.">
<polygon fill="white" stroke="#666666" points="648.75,-123.75 569,-123.75 569,-103 648.75,-103 648.75,-123.75"/>
<text xml:space="preserve" text-anchor="middle" x="608.88" y="-110.25" font-family="Helvetica,sans-Serif" font-size="10.00">exec_objects</text>
</a>
</g>
</g>
<!-- Node7&#45;&gt;Node16 -->
<g id="edge16_Node000007_Node000016" class="edge">
<title>Node7&#45;&gt;Node16</title>
<g id="a_edge16_Node000007_Node000016"><a xlink:title=" ">
<path fill="none" stroke="#63b8ff" d="M837.57,-163.32C825.21,-152.73 808.2,-140.14 790.75,-133.38 744.36,-115.39 686.59,-111.96 649,-111.99"/>
<polygon fill="#63b8ff" stroke="#63b8ff" points="835.13,-165.83 844.92,-169.89 839.79,-160.61 835.13,-165.83"/>
</a>
</g>
</g>
<!-- Node17 -->
<g id="Node000017" class="node">
<title>Node17</title>
<g id="a_Node000017"><a xlink:href="../../d2/d04/a00281.html#ada302551bf41bf8ed6132fd34328a47e" target="_top" xlink:title="Form main processing loop.">
<polygon fill="white" stroke="#666666" points="776.5,-238.75 699,-238.75 699,-218 776.5,-218 776.5,-238.75"/>
<text xml:space="preserve" text-anchor="middle" x="737.75" y="-225.25" font-family="Helvetica,sans-Serif" font-size="10.00">form_engine</text>
</a>
</g>
</g>
<!-- Node7&#45;&gt;Node17 -->
<g id="edge18_Node000007_Node000017" class="edge">
<title>Node7&#45;&gt;Node17</title>
<g id="a_edge18_Node000007_Node000017"><a xlink:title=" ">
<path fill="none" stroke="#63b8ff" d="M822.15,-195.12C804.21,-202.27 782.6,-210.89 765.87,-217.56"/>
<polygon fill="#63b8ff" stroke="#63b8ff" points="823.37,-198.4 831.37,-191.45 820.78,-191.9 823.37,-198.4"/>
</a>
</g>
</g>
<!-- Node20 -->
<g id="Node000020" class="node">
<title>Node20</title>
<g id="a_Node000020"><a xlink:href="../../dd/d52/a00221.html#ad997ba9f8591568c77291fb1b44601b2" target="_top" xlink:title="Display View Help File.">
<polygon fill="white" stroke="#666666" points="790.75,-86.75 684.75,-86.75 684.75,-66 790.75,-66 790.75,-86.75"/>
<text xml:space="preserve" text-anchor="middle" x="737.75" y="-73.25" font-family="Helvetica,sans-Serif" font-size="10.00">view_display_help</text>
</a>
</g>
</g>
<!-- Node7&#45;&gt;Node20 -->
<g id="edge25_Node000007_Node000020" class="edge">
<title>Node7&#45;&gt;Node20</title>
<g id="a_edge25_Node000007_Node000020"><a xlink:title=" ">
<path fill="none" stroke="#63b8ff" d="M842.26,-161.71C826.73,-140.83 802.62,-109.59 790.75,-100.38 784,-95.13 775.91,-90.7 768.15,-87.13"/>
<polygon fill="#63b8ff" stroke="#63b8ff" points="839.26,-163.53 848.01,-169.5 844.89,-159.38 839.26,-163.53"/>
</a>
</g>
</g>
<!-- Node9 -->
<g id="Node000009" class="node">
<title>Node9</title>
<g id="a_Node000009"><a xlink:href="../../d0/d27/a00239.html#abb0969a6d1c7e78be46c3b325754c802" target="_top" xlink:title="Main loop to handle user input and interactions for pick interface.">
<polygon fill="white" stroke="#666666" points="631.5,-162.75 586.25,-162.75 586.25,-142 631.5,-142 631.5,-162.75"/>
<text xml:space="preserve" text-anchor="middle" x="608.88" y="-149.25" font-family="Helvetica,sans-Serif" font-size="10.00">picker</text>
</a>
</g>
</g>
<!-- Node8&#45;&gt;Node9 -->
<g id="edge8_Node000008_Node000009" class="edge">
<title>Node8&#45;&gt;Node9</title>
<g id="a_edge8_Node000008_Node000009"><a xlink:title=" ">
<path fill="none" stroke="#63b8ff" d="M674.77,-152.38C659.41,-152.38 643.94,-152.38 631.96,-152.38"/>
<polygon fill="#63b8ff" stroke="#63b8ff" points="674.36,-155.88 684.36,-152.38 674.36,-148.88 674.36,-155.88"/>
</a>
</g>
</g>
<!-- Node10 -->
<g id="Node000010" class="node">
<title>Node10</title>
<g id="a_Node000010"><a xlink:href="../../d0/d27/a00239.html#ab97dcab41017c5132f52b682437a151e" target="_top" xlink:title="Initializes pick interface, calculates window size and position, and enters picker loop.">
<polygon fill="white" stroke="#666666" points="533,-142.75 458.5,-142.75 458.5,-122 533,-122 533,-142.75"/>
<text xml:space="preserve" text-anchor="middle" x="495.75" y="-129.25" font-family="Helvetica,sans-Serif" font-size="10.00">pick_engine</text>
</a>
</g>
</g>
<!-- Node9&#45;&gt;Node10 -->
<g id="edge9_Node000009_Node000010" class="edge">
<title>Node9&#45;&gt;Node10</title>
<g id="a_edge9_Node000009_Node000010"><a xlink:title=" ">
<path fill="none" stroke="#63b8ff" d="M574.97,-146.45C561.8,-144.08 546.59,-141.34 533.1,-138.92"/>
<polygon fill="#63b8ff" stroke="#63b8ff" points="573.97,-149.83 584.43,-148.16 575.21,-142.94 573.97,-149.83"/>
</a>
</g>
</g>
<!-- Node11 -->
<g id="Node000011" class="node">
<title>Node11</title>
<g id="a_Node000011"><a xlink:href="../../d0/d27/a00239.html#a1b2ee87543245e612c1710ea58930a17" target="_top" xlink:title="Initializes pick structure and opens pick input file or pipe.">
<polygon fill="white" stroke="#666666" points="416.5,-142.75 359.25,-142.75 359.25,-122 416.5,-122 416.5,-142.75"/>
<text xml:space="preserve" text-anchor="middle" x="387.88" y="-129.25" font-family="Helvetica,sans-Serif" font-size="10.00">init_pick</text>
</a>
</g>
</g>
<!-- Node10&#45;&gt;Node11 -->
<g id="edge10_Node000010_Node000011" class="edge">
<title>Node10&#45;&gt;Node11</title>
<g id="a_edge10_Node000010_Node000011"><a xlink:title=" ">
<path fill="none" stroke="#63b8ff" d="M446.68,-132.38C436.47,-132.38 426.02,-132.38 416.86,-132.38"/>
<polygon fill="#63b8ff" stroke="#63b8ff" points="446.5,-135.88 456.5,-132.38 446.5,-128.88 446.5,-135.88"/>
</a>
</g>
</g>
<!-- Node12 -->
<g id="Node000012" class="node">
<title>Node12</title>
<g id="a_Node000012"><a xlink:href="../../d2/dc8/a00242.html#a3c04138a5bfe5d72780bb7e82a18e627" target="_top" xlink:title=" ">
<polygon fill="white" stroke="#666666" points="276.38,-142.75 235.62,-142.75 235.62,-122 276.38,-122 276.38,-142.75"/>
<text xml:space="preserve" text-anchor="middle" x="256" y="-129.25" font-family="Helvetica,sans-Serif" font-size="10.00">main</text>
</a>
</g>
</g>
<!-- Node11&#45;&gt;Node12 -->
<g id="edge11_Node000011_Node000012" class="edge">
<title>Node11&#45;&gt;Node12</title>
<g id="a_edge11_Node000011_Node000012"><a xlink:title=" ">
<path fill="none" stroke="#63b8ff" d="M347.68,-132.38C324.28,-132.38 295.55,-132.38 276.78,-132.38"/>
<polygon fill="#63b8ff" stroke="#63b8ff" points="347.5,-135.88 357.5,-132.38 347.5,-128.88 347.5,-135.88"/>
</a>
</g>
</g>
<!-- Node11&#45;&gt;Node13 -->
<g id="edge12_Node000011_Node000013" class="edge">
<title>Node11&#45;&gt;Node13</title>
<g id="a_edge12_Node000011_Node000013"><a xlink:title=" ">
<path fill="none" stroke="#63b8ff" d="M348.08,-144.02C330.69,-149.25 310.29,-155.37 293.21,-160.5"/>
<polygon fill="#63b8ff" stroke="#63b8ff" points="348.99,-147.4 357.56,-141.18 346.98,-140.7 348.99,-147.4"/>
</a>
</g>
</g>
<!-- Node14 -->
<g id="Node000014" class="node">
<title>Node14</title>
<g id="a_Node000014"><a xlink:href="../../d9/d39/a00257.html#a7d7973d7aac92759dcc86ec52bb038f4" target="_top" xlink:title="The main loop of the menu system.">
<polygon fill="white" stroke="#666666" points="158.75,-181.75 76.75,-181.75 76.75,-161 158.75,-161 158.75,-181.75"/>
<text xml:space="preserve" text-anchor="middle" x="117.75" y="-168.25" font-family="Helvetica,sans-Serif" font-size="10.00">menu_engine</text>
</a>
</g>
</g>
<!-- Node13&#45;&gt;Node14 -->
<g id="edge13_Node000013_Node000014" class="edge">
<title>Node13&#45;&gt;Node14</title>
<g id="a_edge13_Node000013_Node000014"><a xlink:title=" ">
<path fill="none" stroke="#63b8ff" d="M183.2,-164.63C174.96,-164.67 166.79,-164.84 159.17,-165.15"/>
<polygon fill="#63b8ff" stroke="#63b8ff" points="182.92,-168.13 192.93,-164.66 182.94,-161.13 182.92,-168.13"/>
</a>
</g>
</g>
<!-- Node14&#45;&gt;Node13 -->
<g id="edge15_Node000014_Node000013" class="edge">
<title>Node14&#45;&gt;Node13</title>
<g id="a_edge15_Node000014_Node000013"><a xlink:title=" ">
<path fill="none" stroke="#63b8ff" d="M170.68,-177.95C178.45,-178.12 186.52,-178.17 194.45,-178.09"/>
<polygon fill="#63b8ff" stroke="#63b8ff" points="170.79,-174.45 160.69,-177.65 170.58,-181.45 170.79,-174.45"/>
</a>
</g>
</g>
<!-- Node15 -->
<g id="Node000015" class="node">
<title>Node15</title>
<g id="a_Node000015"><a xlink:href="../../dd/dd7/a00260.html#a3c04138a5bfe5d72780bb7e82a18e627" target="_top" xlink:title=" ">
<polygon fill="white" stroke="#666666" points="40.75,-142.75 0,-142.75 0,-122 40.75,-122 40.75,-142.75"/>
<text xml:space="preserve" text-anchor="middle" x="20.38" y="-129.25" font-family="Helvetica,sans-Serif" font-size="10.00">main</text>
</a>
</g>
</g>
<!-- Node14&#45;&gt;Node15 -->
<g id="edge14_Node000014_Node000015" class="edge">
<title>Node14&#45;&gt;Node15</title>
<g id="a_edge14_Node000014_Node000015"><a xlink:title=" ">
<path fill="none" stroke="#63b8ff" d="M79.54,-156.16C66.44,-150.8 52.24,-145 41.15,-140.46"/>
<polygon fill="#63b8ff" stroke="#63b8ff" points="78.2,-159.39 88.78,-159.94 80.85,-152.91 78.2,-159.39"/>
</a>
</g>
</g>
<!-- Node16&#45;&gt;Node10 -->
<g id="edge17_Node000016_Node000010" class="edge">
<title>Node16&#45;&gt;Node10</title>
<g id="a_edge17_Node000016_Node000010"><a xlink:title=" ">
<path fill="none" stroke="#63b8ff" d="M557.4,-122C549.3,-123.39 541.04,-124.8 533.34,-126.12"/>
<polygon fill="#63b8ff" stroke="#63b8ff" points="557.94,-125.46 567.2,-120.33 556.76,-118.56 557.94,-125.46"/>
</a>
</g>
</g>
<!-- Node18 -->
<g id="Node000018" class="node">
<title>Node18</title>
<g id="a_Node000018"><a xlink:href="../../d2/d04/a00281.html#abf1be20a8aad5f7ba09172ac1434a110" target="_top" xlink:title="Initialize form data structure and parse description file.">
<polygon fill="white" stroke="#666666" points="639,-305.75 578.75,-305.75 578.75,-285 639,-285 639,-305.75"/>
<text xml:space="preserve" text-anchor="middle" x="608.88" y="-292.25" font-family="Helvetica,sans-Serif" font-size="10.00">init_form</text>
</a>
</g>
</g>
<!-- Node17&#45;&gt;Node18 -->
<g id="edge19_Node000017_Node000018" class="edge">
<title>Node17&#45;&gt;Node18</title>
<g id="a_edge19_Node000017_Node000018"><a xlink:title=" ">
<path fill="none" stroke="#63b8ff" d="M695.47,-243.4C691.8,-244.99 688.18,-246.66 684.75,-248.38 663.2,-259.16 639.92,-274.39 625.14,-284.56"/>
<polygon fill="#63b8ff" stroke="#63b8ff" points="696.49,-246.77 704.4,-239.72 693.82,-240.29 696.49,-246.77"/>
</a>
</g>
</g>
<!-- Node18&#45;&gt;Node3 -->
<g id="edge20_Node000018_Node000003" class="edge">
<title>Node18&#45;&gt;Node3</title>
<g id="a_edge20_Node000018_Node000003"><a xlink:title=" ">
<path fill="none" stroke="#63b8ff" d="M650.84,-298.05C699.78,-301.01 784.14,-305.38 856.62,-305.38 957.88,-305.38 957.88,-305.38 957.88,-305.38 1069.21,-305.38 1179.08,-207.07 1212.84,-174.05"/>
<polygon fill="#63b8ff" stroke="#63b8ff" points="651.19,-294.57 641,-297.44 650.76,-301.55 651.19,-294.57"/>
</a>
</g>
</g>
<!-- Node18&#45;&gt;Node13 -->
<g id="edge22_Node000018_Node000013" class="edge">
<title>Node18&#45;&gt;Node13</title>
<g id="a_edge22_Node000018_Node000013"><a xlink:title=" ">
<path fill="none" stroke="#63b8ff" d="M567.54,-281.12C496.61,-256.06 351.06,-204.62 287.66,-182.21"/>
<polygon fill="#63b8ff" stroke="#63b8ff" points="566.24,-284.37 576.83,-284.41 568.57,-277.77 566.24,-284.37"/>
</a>
</g>
</g>
<!-- Node19 -->
<g id="Node000019" class="node">
<title>Node19</title>
<g id="a_Node000019"><a xlink:href="../../db/dc3/a00284.html#a3c04138a5bfe5d72780bb7e82a18e627" target="_top" xlink:title=" ">
<polygon fill="white" stroke="#666666" points="516.12,-305.75 475.38,-305.75 475.38,-285 516.12,-285 516.12,-305.75"/>
<text xml:space="preserve" text-anchor="middle" x="495.75" y="-292.25" font-family="Helvetica,sans-Serif" font-size="10.00">main</text>
</a>
</g>
</g>
<!-- Node18&#45;&gt;Node19 -->
<g id="edge21_Node000018_Node000019" class="edge">
<title>Node18&#45;&gt;Node19</title>
<g id="a_edge21_Node000018_Node000019"><a xlink:title=" ">
<path fill="none" stroke="#63b8ff" d="M566.89,-295.38C549.7,-295.38 530.5,-295.38 516.54,-295.38"/>
<polygon fill="#63b8ff" stroke="#63b8ff" points="566.87,-298.88 576.87,-295.38 566.87,-291.88 566.87,-298.88"/>
</a>
</g>
</g>
<!-- Node20&#45;&gt;Node4 -->
<g id="edge26_Node000020_Node000004" class="edge">
<title>Node20&#45;&gt;Node4</title>
<g id="a_edge26_Node000020_Node000004"><a xlink:title=" ">
<path fill="none" stroke="#63b8ff" d="M792.64,-89.98C861.03,-107.25 977.61,-136.7 1040.32,-152.53"/>
<polygon fill="#63b8ff" stroke="#63b8ff" points="793.7,-86.64 783.15,-87.59 791.99,-93.43 793.7,-86.64"/>
</a>
</g>
</g>
<!-- Node22 -->
<g id="Node000022" class="node">
<title>Node22</title>
<g id="a_Node000022"><a xlink:href="../../df/da9/a00263.html#a625c89a0ff0ede7fbac1b40c7ac9dbda" target="_top" xlink:title="Create and initialize Form structure.">
<polygon fill="white" stroke="#666666" points="989.25,-353.75 924.5,-353.75 924.5,-333 989.25,-333 989.25,-353.75"/>
<text xml:space="preserve" text-anchor="middle" x="956.88" y="-340.25" font-family="Helvetica,sans-Serif" font-size="10.00">new_form</text>
</a>
</g>
</g>
<!-- Node21&#45;&gt;Node22 -->
<g id="edge28_Node000021_Node000022" class="edge">
<title>Node21&#45;&gt;Node22</title>
<g id="a_edge28_Node000021_Node000022"><a xlink:title=" ">
<path fill="none" stroke="#63b8ff" d="M1201.73,-285.88C1186.35,-297.34 1164.69,-311.6 1143.25,-319.38 1091.69,-338.07 1027.42,-342.54 989.69,-343.42"/>
<polygon fill="#63b8ff" stroke="#63b8ff" points="1203.45,-288.97 1209.24,-280.1 1199.18,-283.42 1203.45,-288.97"/>
</a>
</g>
</g>
<!-- Node22&#45;&gt;Node18 -->
<g id="edge29_Node000022_Node000018" class="edge">
<title>Node22&#45;&gt;Node18</title>
<g id="a_edge29_Node000022_Node000018"><a xlink:title=" ">
<path fill="none" stroke="#63b8ff" d="M912.75,-342.5C858.9,-340.74 764.2,-335.42 684.75,-319.38 669.23,-316.24 652.4,-311.02 638.64,-306.25"/>
<polygon fill="#63b8ff" stroke="#63b8ff" points="912.63,-346 922.73,-342.8 912.84,-339 912.63,-346"/>
</a>
</g>
</g>
<!-- Node24 -->
<g id="Node000024" class="node">
<title>Node24</title>
<g id="a_Node000024"><a xlink:href="../../df/da9/a00263.html#a861e6162a19e089468fdc2a1479b547f" target="_top" xlink:title="Create and initialize Menu structure.">
<polygon fill="white" stroke="#666666" points="422.5,-103.75 353.25,-103.75 353.25,-83 422.5,-83 422.5,-103.75"/>
<text xml:space="preserve" text-anchor="middle" x="387.88" y="-90.25" font-family="Helvetica,sans-Serif" font-size="10.00">new_menu</text>
</a>
</g>
</g>
<!-- Node23&#45;&gt;Node24 -->
<g id="edge31_Node000023_Node000024" class="edge">
<title>Node23&#45;&gt;Node24</title>
<g id="a_edge31_Node000023_Node000024"><a xlink:title=" ">
<path fill="none" stroke="#63b8ff" d="M1027.14,-6.49C981.72,-3.68 916.08,-0.38 858.62,-0.38 858.62,-0.38 858.62,-0.38 607.88,-0.38 524.64,-0.38 436.76,-57.99 403.11,-82.52"/>
<polygon fill="#63b8ff" stroke="#63b8ff" points="1026.81,-9.98 1037.02,-7.12 1027.26,-2.99 1026.81,-9.98"/>
</a>
</g>
</g>
<!-- Node24&#45;&gt;Node13 -->
<g id="edge33_Node000024_Node000013" class="edge">
<title>Node24&#45;&gt;Node13</title>
<g id="a_edge33_Node000024_Node000013"><a xlink:title=" ">
<path fill="none" stroke="#63b8ff" d="M357.28,-110.33C355.89,-111.32 354.54,-112.34 353.25,-113.38 335.08,-127.9 336.88,-138.89 317.25,-151.38 311.58,-154.98 305.19,-158.01 298.74,-160.52"/>
<polygon fill="#63b8ff" stroke="#63b8ff" points="359.01,-113.38 365.45,-104.97 355.17,-107.53 359.01,-113.38"/>
</a>
</g>
</g>
<!-- Node24&#45;&gt;Node15 -->
<g id="edge32_Node000024_Node000015" class="edge">
<title>Node24&#45;&gt;Node15</title>
<g id="a_edge32_Node000024_Node000015"><a xlink:title=" ">
<path fill="none" stroke="#63b8ff" d="M341.65,-98.01C302.72,-102.02 245.02,-108 194.75,-113.38 139.05,-119.33 73.31,-126.6 41.13,-130.17"/>
<polygon fill="#63b8ff" stroke="#63b8ff" points="341.76,-101.52 351.35,-97.01 341.05,-94.56 341.76,-101.52"/>
</a>
</g>
</g>
<!-- Node26 -->
<g id="Node000026" class="node">
<title>Node26</title>
<g id="a_Node000026"><a xlink:href="../../df/da9/a00263.html#aa7928f3771536aa0e27d88479be2cbc8" target="_top" xlink:title="Create and initialize Pick structure.">
<polygon fill="white" stroke="#666666" points="888.5,-58.75 826.75,-58.75 826.75,-38 888.5,-38 888.5,-58.75"/>
<text xml:space="preserve" text-anchor="middle" x="857.62" y="-45.25" font-family="Helvetica,sans-Serif" font-size="10.00">new_pick</text>
</a>
</g>
</g>
<!-- Node25&#45;&gt;Node26 -->
<g id="edge35_Node000025_Node000026" class="edge">
<title>Node25&#45;&gt;Node26</title>
<g id="a_edge35_Node000025_Node000026"><a xlink:title=" ">
<path fill="none" stroke="#63b8ff" d="M1170.83,-88.6C1093.22,-78.6 950.49,-60.21 888.58,-52.24"/>
<polygon fill="#63b8ff" stroke="#63b8ff" points="1170.38,-92.07 1180.74,-89.88 1171.27,-85.13 1170.38,-92.07"/>
</a>
</g>
</g>
<!-- Node26&#45;&gt;Node11 -->
<g id="edge36_Node000026_Node000011" class="edge">
<title>Node26&#45;&gt;Node11</title>
<g id="a_edge36_Node000026_Node000011"><a xlink:title=" ">
<path fill="none" stroke="#63b8ff" d="M815.14,-48.34C780.19,-48.84 728.96,-50.81 684.75,-57.38 582.28,-72.6 558.75,-87.29 458.5,-113.38 444.8,-116.94 429.63,-121.06 416.95,-124.55"/>
<polygon fill="#63b8ff" stroke="#63b8ff" points="814.86,-51.85 824.82,-48.24 814.79,-44.85 814.86,-51.85"/>
</a>
</g>
</g>
</g>
</svg>

<g id="navigator" transform="translate(0 0)" fill="#404254">
  <rect fill="#f2f5e9" fill-opacity="0.5" stroke="#606060" stroke-width=".5" x="0" y="0" width="60" height="60"/>
  <use id="zoomplus" xlink:href="#zoomPlus" x="17" y="9" onmousedown="handleZoom(evt,'in')"/>
  <use id="zoomminus" xlink:href="#zoomMin" x="42" y="9" onmousedown="handleZoom(evt,'out')"/>
  <use id="reset" xlink:href="#resetDef" x="30" y="36" onmousedown="handleReset()"/>
   <use id="arrowup" xlink:href="#arrowUp" x="0" y="0" onmousedown="handlePan(0,-1)"/>
  <use id="arrowright" xlink:href="#arrowRight" x="0" y="0" onmousedown="handlePan(1,0)"/>
  <use id="arrowdown" xlink:href="#arrowDown" x="0" y="0" onmousedown="handlePan(0,1)"/>
  <use id="arrowleft" xlink:href="#arrowLeft" x="0" y="0" onmousedown="handlePan(-1,0)"/>
</g>
<svg viewBox="0 0 15 15" width="100%" height="30px" preserveAspectRatio="xMaxYMin meet">
 <g id="arrow_out" transform="scale(0.3 0.3)">
  <a xlink:href="a00278_a32204f694cf5e28c888a1045a1b383a4_icgraph_org.svg" target="_base">
   <rect id="button" ry="5" rx="5" y="6" x="6" height="38" width="38"
        fill="#f2f5e9" fill-opacity="0.5" stroke="#606060" stroke-width="1.0"/>
   <path id="arrow"
     d="M 11.500037,31.436501 C 11.940474,20.09759 22.043105,11.32322 32.158766,21.979434 L 37.068811,17.246167 C 37.068811,17.246167 37.088388,32 37.088388,32 L 22.160133,31.978069 C 22.160133,31.978069 26.997745,27.140456 26.997745,27.140456 C 18.528582,18.264221 13.291696,25.230495 11.500037,31.436501 z"
     style="fill:#404040;"/>
  </a>
 </g>
</svg>

<style type='text/css'>
<![CDATA[
[data-mouse-over-selected='false'] { opacity: 0.7; }
[data-mouse-over-selected='true']  { opacity: 1.0; }
]]>
</style>
<script type="application/ecmascript"><![CDATA[
document.addEventListener('DOMContentLoaded', (event) => {
  highlightEdges();
  highlightAdjacentNodes();
});
]]></script>
</svg>
