<?xml version="1.0" encoding="UTF-8" standalone="no"?>
<!DOCTYPE svg PUBLIC "-//W3C//DTD SVG 1.1//EN"
 "http://www.w3.org/Graphics/SVG/1.1/DTD/svg11.dtd">
<!-- Generated by graphviz version 14.1.2 (0)
 -->
<!-- Title: lf_process Pages: 1 -->
<svg width="880pt" height="621pt"
 viewBox="0.00 0.00 880.00 621.00" xmlns="http://www.w3.org/2000/svg" xmlns:xlink="http://www.w3.org/1999/xlink">
<g id="graph0" class="graph" transform="scale(1 1) rotate(0) translate(4 617.31)">
<title>lf_process</title>
<!-- Node1 -->
<g id="Node000001" class="node">
<title>Node1</title>
<g id="a_Node000001"><a xlink:title="logic for lf_find()">
<polygon fill="#999999" stroke="#666666" points="65.5,-219.38 0,-219.38 0,-198.62 65.5,-198.62 65.5,-219.38"/>
<text xml:space="preserve" text-anchor="middle" x="32.75" y="-205.88" font-family="Helvetica,sans-Serif" font-size="10.00">lf_process</text>
</a>
</g>
</g>
<!-- Node1&#45;&gt;Node1 -->
<g id="edge1_Node000001_Node000001" class="edge">
<title>Node1&#45;&gt;Node1</title>
<g id="a_edge1_Node000001_Node000001"><a xlink:title=" ">
<path fill="none" stroke="#63b8ff" d="M18.03,-219.77C12.14,-228.43 17.04,-237.38 32.75,-237.38 41.09,-237.38 46.39,-234.85 48.64,-231.19"/>
<polygon fill="#63b8ff" stroke="#63b8ff" points="52.12,-230.87 47.63,-221.28 45.16,-231.58 52.12,-230.87"/>
</a>
</g>
</g>
<!-- Node2 -->
<g id="Node000002" class="node">
<title>Node2</title>
<g id="a_Node000002"><a xlink:href="../../df/d95/a00299.html#a61b4f28456257f68ed042bed7f187efd" target="_top" xlink:title="Display a simple error message window or print to stderr.">
<polygon fill="white" stroke="#666666" points="146.75,-391.38 101.5,-391.38 101.5,-370.62 146.75,-370.62 146.75,-391.38"/>
<text xml:space="preserve" text-anchor="middle" x="124.12" y="-377.88" font-family="Helvetica,sans-Serif" font-size="10.00">Perror</text>
</a>
</g>
</g>
<!-- Node1&#45;&gt;Node2 -->
<g id="edge2_Node000001_Node000002" class="edge">
<title>Node1&#45;&gt;Node2</title>
<g id="a_edge2_Node000001_Node000002"><a xlink:title=" ">
<path fill="none" stroke="#63b8ff" d="M39.34,-219.76C53.89,-247.75 93.11,-323.24 112.28,-360.13"/>
<polygon fill="#63b8ff" stroke="#63b8ff" points="109.12,-361.64 116.84,-368.9 115.33,-358.41 109.12,-361.64"/>
</a>
</g>
</g>
<!-- Node8 -->
<g id="Node000008" class="node">
<title>Node8</title>
<g id="a_Node000008"><a xlink:href="../../dc/d5d/a00278.html#aa0145c044cfdde3a1c83323410a59f25" target="_top" xlink:title="safer alternative to strncat">
<polygon fill="white" stroke="#666666" points="600.38,-48.38 534.88,-48.38 534.88,-27.62 600.38,-27.62 600.38,-48.38"/>
<text xml:space="preserve" text-anchor="middle" x="567.62" y="-34.88" font-family="Helvetica,sans-Serif" font-size="10.00">strnz__cat</text>
</a>
</g>
</g>
<!-- Node1&#45;&gt;Node8 -->
<g id="edge41_Node000001_Node000008" class="edge">
<title>Node1&#45;&gt;Node8</title>
<g id="a_edge41_Node000001_Node000008"><a xlink:title=" ">
<path fill="none" stroke="#63b8ff" d="M35.84,-198.27C41.64,-171.07 60.3,-98.45 101.5,-55 138.8,-15.66 156.16,0 210.38,0 210.38,0 210.38,0 323.25,0 394.12,0 475.22,-15.92 523.61,-27.15"/>
<polygon fill="#63b8ff" stroke="#63b8ff" points="522.58,-30.51 533.12,-29.41 524.19,-23.7 522.58,-30.51"/>
</a>
</g>
</g>
<!-- Node12 -->
<g id="Node000012" class="node">
<title>Node12</title>
<g id="a_Node000012"><a xlink:href="../../dc/d5d/a00278.html#a63eb94756fb011a456a3dec900709cd8" target="_top" xlink:title="ssnprintf was designed to be a safer alternative to snprintf.">
<polygon fill="white" stroke="#666666" points="597,-162.38 538.25,-162.38 538.25,-141.62 597,-141.62 597,-162.38"/>
<text xml:space="preserve" text-anchor="middle" x="567.62" y="-148.88" font-family="Helvetica,sans-Serif" font-size="10.00">ssnprintf</text>
</a>
</g>
</g>
<!-- Node1&#45;&gt;Node12 -->
<g id="edge40_Node000001_Node000012" class="edge">
<title>Node1&#45;&gt;Node12</title>
<g id="a_edge40_Node000001_Node000012"><a xlink:title=" ">
<path fill="none" stroke="#63b8ff" d="M38.35,-198.3C55.25,-160.87 117.76,-38 210.38,-38 210.38,-38 210.38,-38 323.25,-38 401.26,-38 430.28,-17.83 497.75,-57 526.84,-73.89 547.05,-108.51 557.74,-130.96"/>
<polygon fill="#63b8ff" stroke="#63b8ff" points="554.42,-132.1 561.72,-139.78 560.8,-129.22 554.42,-132.1"/>
</a>
</g>
</g>
<!-- Node13 -->
<g id="Node000013" class="node">
<title>Node13</title>
<g id="a_Node000013"><a xlink:href="../../dc/d5d/a00278.html#a0de2e40df9bd7efc8fd9afb8ad2257e6" target="_top" xlink:title="safer alternative to strncpy">
<polygon fill="white" stroke="#666666" points="601.5,-564.38 533.75,-564.38 533.75,-543.62 601.5,-543.62 601.5,-564.38"/>
<text xml:space="preserve" text-anchor="middle" x="567.62" y="-550.88" font-family="Helvetica,sans-Serif" font-size="10.00">strnz__cpy</text>
</a>
</g>
</g>
<!-- Node1&#45;&gt;Node13 -->
<g id="edge42_Node000001_Node000013" class="edge">
<title>Node1&#45;&gt;Node13</title>
<g id="a_edge42_Node000001_Node000013"><a xlink:title=" ">
<path fill="none" stroke="#63b8ff" d="M33.44,-219.75C32.17,-283.68 34.28,-611 210.38,-611 210.38,-611 210.38,-611 323.25,-611 401.09,-611 423.78,-620.24 497.75,-596 514.51,-590.51 531.44,-580.26 544.32,-571.26"/>
<polygon fill="#63b8ff" stroke="#63b8ff" points="546.06,-574.32 552.09,-565.61 541.95,-568.66 546.06,-574.32"/>
</a>
</g>
</g>
<!-- Node3 -->
<g id="Node000003" class="node">
<title>Node3</title>
<g id="a_Node000003"><a xlink:href="../../df/d95/a00299.html#a8f6c45ca4a7f6a41c4c88314e697565a" target="_top" xlink:title="Abnormal program termination.">
<polygon fill="white" stroke="#666666" points="590.62,-428.38 544.62,-428.38 544.62,-407.62 590.62,-407.62 590.62,-428.38"/>
<text xml:space="preserve" text-anchor="middle" x="567.62" y="-414.88" font-family="Helvetica,sans-Serif" font-size="10.00">abend</text>
</a>
</g>
</g>
<!-- Node2&#45;&gt;Node3 -->
<g id="edge3_Node000002_Node000003" class="edge">
<title>Node2&#45;&gt;Node3</title>
<g id="a_edge3_Node000002_Node000003"><a xlink:title=" ">
<path fill="none" stroke="#63b8ff" d="M133.72,-391.82C144.05,-404.12 162.56,-423.91 182.75,-435 270.73,-483.34 304.38,-470.64 404.5,-478 445.83,-481.04 458.94,-492.53 497.75,-478 519.44,-469.88 538.79,-451.5 551.42,-437.21"/>
<polygon fill="#63b8ff" stroke="#63b8ff" points="553.96,-439.62 557.73,-429.72 548.61,-435.11 553.96,-439.62"/>
</a>
</g>
</g>
<!-- Node7 -->
<g id="Node000007" class="node">
<title>Node7</title>
<g id="a_Node000007"><a xlink:href="../../df/d95/a00299.html#a645871e46277e31736bc36d0f3dce4bd" target="_top" xlink:title="construct the chyron string from the chyron structure">
<polygon fill="white" stroke="#666666" points="497.75,-86.38 404.5,-86.38 404.5,-65.62 497.75,-65.62 497.75,-86.38"/>
<text xml:space="preserve" text-anchor="middle" x="451.12" y="-72.88" font-family="Helvetica,sans-Serif" font-size="10.00">compile_chyron</text>
</a>
</g>
</g>
<!-- Node2&#45;&gt;Node7 -->
<g id="edge9_Node000002_Node000007" class="edge">
<title>Node2&#45;&gt;Node7</title>
<g id="a_edge9_Node000002_Node000007"><a xlink:title=" ">
<path fill="none" stroke="#63b8ff" d="M125.67,-370.36C128.29,-323.59 141.24,-137.07 182.75,-100 239.57,-49.25 332.84,-53.53 392.85,-63.25"/>
<polygon fill="#63b8ff" stroke="#63b8ff" points="392.08,-66.67 402.53,-64.92 393.27,-59.77 392.08,-66.67"/>
</a>
</g>
</g>
<!-- Node9 -->
<g id="Node000009" class="node">
<title>Node9</title>
<g id="a_Node000009"><a xlink:href="../../df/d95/a00299.html#a3f3feb40fd703913c5c136331f627c91" target="_top" xlink:title="Destroy Chyron structure.">
<polygon fill="white" stroke="#666666" points="496.62,-391.38 405.62,-391.38 405.62,-370.62 496.62,-370.62 496.62,-391.38"/>
<text xml:space="preserve" text-anchor="middle" x="451.12" y="-377.88" font-family="Helvetica,sans-Serif" font-size="10.00">destroy_chyron</text>
</a>
</g>
</g>
<!-- Node2&#45;&gt;Node9 -->
<g id="edge11_Node000002_Node000009" class="edge">
<title>Node2&#45;&gt;Node9</title>
<g id="a_edge11_Node000002_Node000009"><a xlink:title=" ">
<path fill="none" stroke="#63b8ff" d="M147.21,-381C197.39,-381 321.26,-381 394.11,-381"/>
<polygon fill="#63b8ff" stroke="#63b8ff" points="393.83,-384.5 403.83,-381 393.83,-377.5 393.83,-384.5"/>
</a>
</g>
</g>
<!-- Node10 -->
<g id="Node000010" class="node">
<title>Node10</title>
<g id="a_Node000010"><a xlink:href="../../df/d95/a00299.html#ad37d5808ff30ae6894780425d865abae" target="_top" xlink:title="Create and initialize Chyron structure.">
<polygon fill="white" stroke="#666666" points="488.38,-469.38 413.88,-469.38 413.88,-448.62 488.38,-448.62 488.38,-469.38"/>
<text xml:space="preserve" text-anchor="middle" x="451.12" y="-455.88" font-family="Helvetica,sans-Serif" font-size="10.00">new_chyron</text>
</a>
</g>
</g>
<!-- Node2&#45;&gt;Node10 -->
<g id="edge12_Node000002_Node000010" class="edge">
<title>Node2&#45;&gt;Node10</title>
<g id="a_edge12_Node000002_Node000010"><a xlink:title=" ">
<path fill="none" stroke="#63b8ff" d="M141.07,-391.78C152.27,-398.86 167.86,-407.75 182.75,-413 256.84,-439.09 347.86,-450.71 402.32,-455.64"/>
<polygon fill="#63b8ff" stroke="#63b8ff" points="401.92,-459.12 412.18,-456.49 402.52,-452.15 401.92,-459.12"/>
</a>
</g>
</g>
<!-- Node11 -->
<g id="Node000011" class="node">
<title>Node11</title>
<g id="a_Node000011"><a xlink:href="../../df/d95/a00299.html#a208ce92c197fdd6d2b007987e534aa3b" target="_top" xlink:title="Set chyron key.">
<polygon fill="white" stroke="#666666" points="497,-162.38 405.25,-162.38 405.25,-141.62 497,-141.62 497,-162.38"/>
<text xml:space="preserve" text-anchor="middle" x="451.12" y="-148.88" font-family="Helvetica,sans-Serif" font-size="10.00">set_chyron_key</text>
</a>
</g>
</g>
<!-- Node2&#45;&gt;Node11 -->
<g id="edge14_Node000002_Node000011" class="edge">
<title>Node2&#45;&gt;Node11</title>
<g id="a_edge14_Node000002_Node000011"><a xlink:title=" ">
<path fill="none" stroke="#63b8ff" d="M132.04,-370.3C142.19,-354.98 162.16,-326.32 182.75,-305 263.22,-221.66 297.36,-212.07 404.5,-168 405.45,-167.61 406.42,-167.22 407.39,-166.83"/>
<polygon fill="#63b8ff" stroke="#63b8ff" points="408.54,-170.14 416.64,-163.3 406.05,-163.6 408.54,-170.14"/>
</a>
</g>
</g>
<!-- Node2&#45;&gt;Node12 -->
<g id="edge16_Node000002_Node000012" class="edge">
<title>Node2&#45;&gt;Node12</title>
<g id="a_edge16_Node000002_Node000012"><a xlink:title=" ">
<path fill="none" stroke="#63b8ff" d="M127.72,-370.43C133.95,-346.68 151.59,-288.12 182.75,-249 214.87,-208.67 230.6,-204.44 276,-180 364.71,-132.25 397.92,-119.48 497.75,-133 507.28,-134.29 517.34,-136.54 526.76,-139.05"/>
<polygon fill="#63b8ff" stroke="#63b8ff" points="525.8,-142.42 536.37,-141.78 527.71,-135.68 525.8,-142.42"/>
</a>
</g>
</g>
<!-- Node2&#45;&gt;Node13 -->
<g id="edge17_Node000002_Node000013" class="edge">
<title>Node2&#45;&gt;Node13</title>
<g id="a_edge17_Node000002_Node000013"><a xlink:title=" ">
<path fill="none" stroke="#63b8ff" d="M125.69,-391.7C127.78,-420.17 137.58,-498.36 182.75,-538 278.08,-621.66 443.58,-589.87 522.42,-567.98"/>
<polygon fill="#63b8ff" stroke="#63b8ff" points="523.29,-571.36 531.94,-565.25 521.37,-564.63 523.29,-571.36"/>
</a>
</g>
</g>
<!-- Node14 -->
<g id="Node000014" class="node">
<title>Node14</title>
<g id="a_Node000014"><a xlink:href="../../df/d95/a00299.html#a9dd598e1d49c8764af1eec42c682623e" target="_top" xlink:title="Delete the current window and its associated box window.">
<polygon fill="white" stroke="#666666" points="477.88,-430.38 424.38,-430.38 424.38,-409.62 477.88,-409.62 477.88,-430.38"/>
<text xml:space="preserve" text-anchor="middle" x="451.12" y="-416.88" font-family="Helvetica,sans-Serif" font-size="10.00">win_del</text>
</a>
</g>
</g>
<!-- Node2&#45;&gt;Node14 -->
<g id="edge18_Node000002_Node000014" class="edge">
<title>Node2&#45;&gt;Node14</title>
<g id="a_edge18_Node000002_Node000014"><a xlink:title=" ">
<path fill="none" stroke="#63b8ff" d="M147.13,-387.14C157.81,-389.92 170.87,-393.01 182.75,-395 264.23,-408.63 361.01,-415.37 412.88,-418.23"/>
<polygon fill="#63b8ff" stroke="#63b8ff" points="412.47,-421.71 422.64,-418.75 412.84,-414.72 412.47,-421.71"/>
</a>
</g>
</g>
<!-- Node15 -->
<g id="Node000015" class="node">
<title>Node15</title>
<g id="a_Node000015"><a xlink:href="../../df/d95/a00299.html#a435c7bff7ffedb8f51c6de9259e36f6c" target="_top" xlink:title="Create a new window with optional box and title.">
<polygon fill="white" stroke="#666666" points="480.5,-545.38 421.75,-545.38 421.75,-524.62 480.5,-524.62 480.5,-545.38"/>
<text xml:space="preserve" text-anchor="middle" x="451.12" y="-531.88" font-family="Helvetica,sans-Serif" font-size="10.00">win_new</text>
</a>
</g>
</g>
<!-- Node2&#45;&gt;Node15 -->
<g id="edge19_Node000002_Node000015" class="edge">
<title>Node2&#45;&gt;Node15</title>
<g id="a_edge19_Node000002_Node000015"><a xlink:title=" ">
<path fill="none" stroke="#63b8ff" d="M126.27,-391.66C129.65,-417.17 142.01,-481.82 182.75,-511 250.49,-559.52 354.02,-551.97 410.31,-543.01"/>
<polygon fill="#63b8ff" stroke="#63b8ff" points="410.81,-546.47 420.08,-541.35 409.64,-539.57 410.81,-546.47"/>
</a>
</g>
</g>
<!-- Node17 -->
<g id="Node000017" class="node">
<title>Node17</title>
<g id="a_Node000017"><a xlink:href="../../df/d95/a00299.html#acf4c709bccc4c965a5d61db978db31a3" target="_top" xlink:title="Wrapper for wgetch that handles signals and mouse events.">
<polygon fill="white" stroke="#666666" points="240,-334.38 182.75,-334.38 182.75,-313.62 240,-313.62 240,-334.38"/>
<text xml:space="preserve" text-anchor="middle" x="211.38" y="-320.88" font-family="Helvetica,sans-Serif" font-size="10.00">xwgetch</text>
</a>
</g>
</g>
<!-- Node2&#45;&gt;Node17 -->
<g id="edge22_Node000002_Node000017" class="edge">
<title>Node2&#45;&gt;Node17</title>
<g id="a_edge22_Node000002_Node000017"><a xlink:title=" ">
<path fill="none" stroke="#63b8ff" d="M141.16,-370.28C153.47,-362.05 170.69,-350.53 184.88,-341.05"/>
<polygon fill="#63b8ff" stroke="#63b8ff" points="186.5,-344.18 192.86,-335.71 182.61,-338.36 186.5,-344.18"/>
</a>
</g>
</g>
<!-- Node4 -->
<g id="Node000004" class="node">
<title>Node4</title>
<g id="a_Node000004"><a xlink:href="../../df/d95/a00299.html#afc0985a403e3eac0b2cd8f0fab500256" target="_top" xlink:title="Gracefully shut down NCurses and restore terminal settings.">
<polygon fill="white" stroke="#666666" points="727,-409.38 637.5,-409.38 637.5,-388.62 727,-388.62 727,-409.38"/>
<text xml:space="preserve" text-anchor="middle" x="682.25" y="-395.88" font-family="Helvetica,sans-Serif" font-size="10.00">destroy_curses</text>
</a>
</g>
</g>
<!-- Node3&#45;&gt;Node4 -->
<g id="edge4_Node000003_Node000004" class="edge">
<title>Node3&#45;&gt;Node4</title>
<g id="a_edge4_Node000003_Node000004"><a xlink:title=" ">
<path fill="none" stroke="#63b8ff" d="M590.88,-414.25C600.99,-412.54 613.44,-410.44 625.84,-408.35"/>
<polygon fill="#63b8ff" stroke="#63b8ff" points="626.37,-411.81 635.65,-406.69 625.21,-404.9 626.37,-411.81"/>
</a>
</g>
</g>
<!-- Node5 -->
<g id="Node000005" class="node">
<title>Node5</title>
<g id="a_Node000005"><a xlink:href="../../d6/de1/a00233.html#ac5e3adb304b78910fc77761ef6a743f0" target="_top" xlink:title="restore_shell_tioctl() &#45; restore shell terminal settings">
<polygon fill="white" stroke="#666666" points="872,-371.38 763,-371.38 763,-350.62 872,-350.62 872,-371.38"/>
<text xml:space="preserve" text-anchor="middle" x="817.5" y="-357.88" font-family="Helvetica,sans-Serif" font-size="10.00">restore_shell_tioctl</text>
</a>
</g>
</g>
<!-- Node3&#45;&gt;Node5 -->
<g id="edge7_Node000003_Node000005" class="edge">
<title>Node3&#45;&gt;Node5</title>
<g id="a_edge7_Node000003_Node000005"><a xlink:title=" ">
<path fill="none" stroke="#63b8ff" d="M583.95,-407.19C597.4,-398.3 617.83,-386.19 637.5,-380 674.06,-368.49 716.67,-363.65 751.14,-361.73"/>
<polygon fill="#63b8ff" stroke="#63b8ff" points="751.17,-365.23 760.99,-361.26 750.83,-358.24 751.17,-365.23"/>
</a>
</g>
</g>
<!-- Node6 -->
<g id="Node000006" class="node">
<title>Node6</title>
<g id="a_Node000006"><a xlink:href="../../d1/da8/a00230.html#a06c1eb6cf3649dc187115565409f91af" target="_top" xlink:title="Set signal handlers to default behavior.">
<polygon fill="white" stroke="#666666" points="858.12,-428.38 776.88,-428.38 776.88,-407.62 858.12,-407.62 858.12,-428.38"/>
<text xml:space="preserve" text-anchor="middle" x="817.5" y="-414.88" font-family="Helvetica,sans-Serif" font-size="10.00">sig_dfl_mode</text>
</a>
</g>
</g>
<!-- Node3&#45;&gt;Node6 -->
<g id="edge8_Node000003_Node000006" class="edge">
<title>Node3&#45;&gt;Node6</title>
<g id="a_edge8_Node000003_Node000006"><a xlink:title=" ">
<path fill="none" stroke="#63b8ff" d="M591.06,-418C630.14,-418 711.64,-418 765.19,-418"/>
<polygon fill="#63b8ff" stroke="#63b8ff" points="764.99,-421.5 774.99,-418 764.99,-414.5 764.99,-421.5"/>
</a>
</g>
</g>
<!-- Node4&#45;&gt;Node5 -->
<g id="edge5_Node000004_Node000005" class="edge">
<title>Node4&#45;&gt;Node5</title>
<g id="a_edge5_Node000004_Node000005"><a xlink:title=" ">
<path fill="none" stroke="#63b8ff" d="M721.08,-388.21C735.57,-384.08 752.3,-379.31 767.68,-374.92"/>
<polygon fill="#63b8ff" stroke="#63b8ff" points="768.47,-378.34 777.12,-372.23 766.55,-371.61 768.47,-378.34"/>
</a>
</g>
</g>
<!-- Node4&#45;&gt;Node6 -->
<g id="edge6_Node000004_Node000006" class="edge">
<title>Node4&#45;&gt;Node6</title>
<g id="a_edge6_Node000004_Node000006"><a xlink:title=" ">
<path fill="none" stroke="#63b8ff" d="M727.25,-405.27C739.44,-407.01 752.77,-408.91 765.33,-410.7"/>
<polygon fill="#63b8ff" stroke="#63b8ff" points="764.7,-414.15 775.09,-412.1 765.69,-407.22 764.7,-414.15"/>
</a>
</g>
</g>
<!-- Node7&#45;&gt;Node8 -->
<g id="edge10_Node000007_Node000008" class="edge">
<title>Node7&#45;&gt;Node8</title>
<g id="a_edge10_Node000007_Node000008"><a xlink:title=" ">
<path fill="none" stroke="#63b8ff" d="M484.63,-65.21C496.82,-61.17 510.86,-56.51 523.84,-52.2"/>
<polygon fill="#63b8ff" stroke="#63b8ff" points="524.61,-55.63 533,-49.16 522.41,-48.99 524.61,-55.63"/>
</a>
</g>
</g>
<!-- Node10&#45;&gt;Node3 -->
<g id="edge13_Node000010_Node000003" class="edge">
<title>Node10&#45;&gt;Node3</title>
<g id="a_edge13_Node000010_Node000003"><a xlink:title=" ">
<path fill="none" stroke="#63b8ff" d="M482.21,-448.23C498.04,-442.56 517.47,-435.6 533.7,-429.79"/>
<polygon fill="#63b8ff" stroke="#63b8ff" points="534.68,-433.16 542.92,-426.49 532.32,-426.57 534.68,-433.16"/>
</a>
</g>
</g>
<!-- Node11&#45;&gt;Node12 -->
<g id="edge15_Node000011_Node000012" class="edge">
<title>Node11&#45;&gt;Node12</title>
<g id="a_edge15_Node000011_Node000012"><a xlink:title=" ">
<path fill="none" stroke="#63b8ff" d="M497.38,-152C506.96,-152 517.01,-152 526.39,-152"/>
<polygon fill="#63b8ff" stroke="#63b8ff" points="526.32,-155.5 536.32,-152 526.32,-148.5 526.32,-155.5"/>
</a>
</g>
</g>
<!-- Node15&#45;&gt;Node13 -->
<g id="edge21_Node000015_Node000013" class="edge">
<title>Node15&#45;&gt;Node13</title>
<g id="a_edge21_Node000015_Node000013"><a xlink:title=" ">
<path fill="none" stroke="#63b8ff" d="M480.72,-539.75C493.37,-541.84 508.53,-544.36 522.58,-546.69"/>
<polygon fill="#63b8ff" stroke="#63b8ff" points="521.6,-550.08 532.03,-548.26 522.74,-543.17 521.6,-550.08"/>
</a>
</g>
</g>
<!-- Node16 -->
<g id="Node000016" class="node">
<title>Node16</title>
<g id="a_Node000016"><a xlink:href="../../df/d95/a00299.html#ac9adcf7339be4a05ab1a7350c236b8a5" target="_top" xlink:title="Draw a box around the specified window.">
<polygon fill="white" stroke="#666666" points="587.25,-525.38 548,-525.38 548,-504.62 587.25,-504.62 587.25,-525.38"/>
<text xml:space="preserve" text-anchor="middle" x="567.62" y="-511.88" font-family="Helvetica,sans-Serif" font-size="10.00">cbox</text>
</a>
</g>
</g>
<!-- Node15&#45;&gt;Node16 -->
<g id="edge20_Node000015_Node000016" class="edge">
<title>Node15&#45;&gt;Node16</title>
<g id="a_edge20_Node000015_Node000016"><a xlink:title=" ">
<path fill="none" stroke="#63b8ff" d="M480.72,-530C497.73,-527.03 519.28,-523.27 536.54,-520.25"/>
<polygon fill="#63b8ff" stroke="#63b8ff" points="536.96,-523.73 546.21,-518.57 535.76,-516.84 536.96,-523.73"/>
</a>
</g>
</g>
<!-- Node18 -->
<g id="Node000018" class="node">
<title>Node18</title>
<g id="a_Node000018"><a xlink:href="../../df/d95/a00299.html#a67659f8a701b74f4dec0d36227a10d1c" target="_top" xlink:title="Display an error message window or print to stderr.">
<polygon fill="white" stroke="#666666" points="362.12,-334.38 282.38,-334.38 282.38,-313.62 362.12,-313.62 362.12,-334.38"/>
<text xml:space="preserve" text-anchor="middle" x="322.25" y="-320.88" font-family="Helvetica,sans-Serif" font-size="10.00">display_error</text>
</a>
</g>
</g>
<!-- Node17&#45;&gt;Node18 -->
<g id="edge23_Node000017_Node000018" class="edge">
<title>Node17&#45;&gt;Node18</title>
<g id="a_edge23_Node000017_Node000018"><a xlink:title=" ">
<path fill="none" stroke="#63b8ff" d="M240.41,-318.01C249.76,-317.43 260.48,-317.18 270.98,-317.27"/>
<polygon fill="#63b8ff" stroke="#63b8ff" points="270.65,-320.76 280.72,-317.47 270.79,-313.76 270.65,-320.76"/>
</a>
</g>
</g>
<!-- Node20 -->
<g id="Node000020" class="node">
<title>Node20</title>
<g id="a_Node000020"><a xlink:href="../../df/d95/a00299.html#a4298f891699300bfc4e6e56fd2a8d574" target="_top" xlink:title="Get keycode from chyron.">
<polygon fill="white" stroke="#666666" points="368.5,-258.38 276,-258.38 276,-237.62 368.5,-237.62 368.5,-258.38"/>
<text xml:space="preserve" text-anchor="middle" x="322.25" y="-244.88" font-family="Helvetica,sans-Serif" font-size="10.00">get_chyron_key</text>
</a>
</g>
</g>
<!-- Node17&#45;&gt;Node20 -->
<g id="edge35_Node000017_Node000020" class="edge">
<title>Node17&#45;&gt;Node20</title>
<g id="a_edge35_Node000017_Node000020"><a xlink:title=" ">
<path fill="none" stroke="#63b8ff" d="M224.02,-313.29C236.38,-302.22 256.75,-284.79 276,-272 280,-269.34 284.33,-266.74 288.66,-264.28"/>
<polygon fill="#63b8ff" stroke="#63b8ff" points="290.2,-267.43 297.32,-259.59 286.86,-261.28 290.2,-267.43"/>
</a>
</g>
</g>
<!-- Node21 -->
<g id="Node000021" class="node">
<title>Node21</title>
<g id="a_Node000021"><a xlink:href="../../d1/da8/a00230.html#a79c3e22498eb2346543aa9c86fd22e58" target="_top" xlink:title="Handle received signals and prompt user for action.">
<polygon fill="white" stroke="#666666" points="492.88,-238.38 409.38,-238.38 409.38,-217.62 492.88,-217.62 492.88,-238.38"/>
<text xml:space="preserve" text-anchor="middle" x="451.12" y="-224.88" font-family="Helvetica,sans-Serif" font-size="10.00">handle_signal</text>
</a>
</g>
</g>
<!-- Node17&#45;&gt;Node21 -->
<g id="edge36_Node000017_Node000021" class="edge">
<title>Node17&#45;&gt;Node21</title>
<g id="a_edge36_Node000017_Node000021"><a xlink:title=" ">
<path fill="none" stroke="#63b8ff" d="M240.46,-315.03C272.07,-304.63 324.72,-286.44 368.5,-267 385.04,-259.66 388.2,-255.86 404.5,-248 407.77,-246.42 411.2,-244.82 414.64,-243.25"/>
<polygon fill="#63b8ff" stroke="#63b8ff" points="415.79,-246.57 423.49,-239.3 412.94,-240.18 415.79,-246.57"/>
</a>
</g>
</g>
<!-- Node18&#45;&gt;Node3 -->
<g id="edge24_Node000018_Node000003" class="edge">
<title>Node18&#45;&gt;Node3</title>
<g id="a_edge24_Node000018_Node000003"><a xlink:title=" ">
<path fill="none" stroke="#63b8ff" d="M362.33,-315.99C399.31,-310.44 455.34,-307.43 497.75,-329 526.09,-343.41 546.24,-375.47 557.15,-396.91"/>
<polygon fill="#63b8ff" stroke="#63b8ff" points="553.99,-398.42 561.48,-405.92 560.3,-395.39 553.99,-398.42"/>
</a>
</g>
</g>
<!-- Node18&#45;&gt;Node7 -->
<g id="edge25_Node000018_Node000007" class="edge">
<title>Node18&#45;&gt;Node7</title>
<g id="a_edge25_Node000018_Node000007"><a xlink:title=" ">
<path fill="none" stroke="#63b8ff" d="M334.12,-313.17C344.39,-302.36 359.52,-284.83 368.5,-267 396.25,-211.93 376.64,-188.02 404.5,-133 411.5,-119.18 422.21,-105.57 431.5,-95.11"/>
<polygon fill="#63b8ff" stroke="#63b8ff" points="433.92,-97.64 438.14,-87.92 428.78,-92.89 433.92,-97.64"/>
</a>
</g>
</g>
<!-- Node18&#45;&gt;Node9 -->
<g id="edge26_Node000018_Node000009" class="edge">
<title>Node18&#45;&gt;Node9</title>
<g id="a_edge26_Node000018_Node000009"><a xlink:title=" ">
<path fill="none" stroke="#63b8ff" d="M347.41,-334.86C366.73,-343.53 394.05,-355.81 415.65,-365.51"/>
<polygon fill="#63b8ff" stroke="#63b8ff" points="414.12,-368.66 424.67,-369.56 416.98,-362.27 414.12,-368.66"/>
</a>
</g>
</g>
<!-- Node18&#45;&gt;Node10 -->
<g id="edge27_Node000018_Node000010" class="edge">
<title>Node18&#45;&gt;Node10</title>
<g id="a_edge27_Node000018_Node000010"><a xlink:title=" ">
<path fill="none" stroke="#63b8ff" d="M328.26,-334.66C339.19,-356.87 367.19,-408.55 404.5,-439 406.16,-440.35 407.92,-441.63 409.76,-442.84"/>
<polygon fill="#63b8ff" stroke="#63b8ff" points="407.6,-445.64 418.03,-447.52 411.05,-439.55 407.6,-445.64"/>
</a>
</g>
</g>
<!-- Node18&#45;&gt;Node11 -->
<g id="edge28_Node000018_Node000011" class="edge">
<title>Node18&#45;&gt;Node11</title>
<g id="a_edge28_Node000018_Node000011"><a xlink:title=" ">
<path fill="none" stroke="#63b8ff" d="M333.3,-313.35C343.24,-302.39 358.39,-284.51 368.5,-267 390.26,-229.34 375.44,-208.36 404.5,-176 406.95,-173.27 409.79,-170.8 412.82,-168.57"/>
<polygon fill="#63b8ff" stroke="#63b8ff" points="414.43,-171.69 421.06,-163.42 410.72,-165.76 414.43,-171.69"/>
</a>
</g>
</g>
<!-- Node18&#45;&gt;Node12 -->
<g id="edge29_Node000018_Node000012" class="edge">
<title>Node18&#45;&gt;Node12</title>
<g id="a_edge29_Node000018_Node000012"><a xlink:title=" ">
<path fill="none" stroke="#63b8ff" d="M332.31,-313.36C341.73,-302.12 356.72,-283.74 368.5,-267 385.96,-242.19 380.85,-228 404.5,-209 423.68,-193.6 485.41,-174.39 526.92,-162.67"/>
<polygon fill="#63b8ff" stroke="#63b8ff" points="527.63,-166.1 536.32,-160.05 525.75,-159.36 527.63,-166.1"/>
</a>
</g>
</g>
<!-- Node18&#45;&gt;Node13 -->
<g id="edge31_Node000018_Node000013" class="edge">
<title>Node18&#45;&gt;Node13</title>
<g id="a_edge31_Node000018_Node000013"><a xlink:title=" ">
<path fill="none" stroke="#63b8ff" d="M362.41,-327.61C407.91,-332.61 479.14,-343.23 497.75,-362 552.75,-417.45 488.67,-470.22 533.75,-534 534.15,-534.56 534.57,-535.11 535,-535.65"/>
<polygon fill="#63b8ff" stroke="#63b8ff" points="532.51,-538.11 542.26,-542.24 537.21,-532.92 532.51,-538.11"/>
</a>
</g>
</g>
<!-- Node18&#45;&gt;Node14 -->
<g id="edge32_Node000018_Node000014" class="edge">
<title>Node18&#45;&gt;Node14</title>
<g id="a_edge32_Node000018_Node000014"><a xlink:title=" ">
<path fill="none" stroke="#63b8ff" d="M332.57,-334.79C346.78,-350.74 375.31,-380.77 404.5,-400 407.53,-402 410.8,-403.88 414.14,-405.63"/>
<polygon fill="#63b8ff" stroke="#63b8ff" points="412.33,-408.64 422.86,-409.81 415.36,-402.33 412.33,-408.64"/>
</a>
</g>
</g>
<!-- Node18&#45;&gt;Node15 -->
<g id="edge33_Node000018_Node000015" class="edge">
<title>Node18&#45;&gt;Node15</title>
<g id="a_edge33_Node000018_Node000015"><a xlink:title=" ">
<path fill="none" stroke="#63b8ff" d="M328.1,-334.85C339.79,-360.57 371.02,-426.93 404.5,-478 413.21,-491.28 424.32,-505.22 433.4,-515.98"/>
<polygon fill="#63b8ff" stroke="#63b8ff" points="430.59,-518.08 439.76,-523.39 435.9,-513.52 430.59,-518.08"/>
</a>
</g>
</g>
<!-- Node18&#45;&gt;Node17 -->
<g id="edge34_Node000018_Node000017" class="edge">
<title>Node18&#45;&gt;Node17</title>
<g id="a_edge34_Node000018_Node000017"><a xlink:title=" ">
<path fill="none" stroke="#63b8ff" d="M282.23,-330.5C272.29,-330.83 261.61,-330.83 251.67,-330.51"/>
<polygon fill="#63b8ff" stroke="#63b8ff" points="252.08,-327.03 241.92,-330.06 251.75,-334.02 252.08,-327.03"/>
</a>
</g>
</g>
<!-- Node19 -->
<g id="Node000019" class="node">
<title>Node19</title>
<g id="a_Node000019"><a xlink:href="../../dc/d5d/a00278.html#a636608f26d1193b5d860f2312cd8ee49" target="_top" xlink:title="terminates string at New Line, Carriage Return, or max_len">
<polygon fill="white" stroke="#666666" points="471.12,-277.38 431.12,-277.38 431.12,-256.62 471.12,-256.62 471.12,-277.38"/>
<text xml:space="preserve" text-anchor="middle" x="451.12" y="-263.88" font-family="Helvetica,sans-Serif" font-size="10.00">strnz</text>
</a>
</g>
</g>
<!-- Node18&#45;&gt;Node19 -->
<g id="edge30_Node000018_Node000019" class="edge">
<title>Node18&#45;&gt;Node19</title>
<g id="a_edge30_Node000018_Node000019"><a xlink:title=" ">
<path fill="none" stroke="#63b8ff" d="M347.41,-313.14C368.3,-303.76 398.54,-290.17 420.81,-280.17"/>
<polygon fill="#63b8ff" stroke="#63b8ff" points="421.95,-283.49 429.64,-276.2 419.08,-277.11 421.95,-283.49"/>
</a>
</g>
</g>
<!-- Node21&#45;&gt;Node5 -->
<g id="edge37_Node000021_Node000005" class="edge">
<title>Node21&#45;&gt;Node5</title>
<g id="a_edge37_Node000021_Node000005"><a xlink:title=" ">
<path fill="none" stroke="#63b8ff" d="M481.63,-238.77C546.58,-262.48 701.98,-319.2 775.98,-346.21"/>
<polygon fill="#63b8ff" stroke="#63b8ff" points="774.7,-349.47 785.29,-349.61 777.1,-342.89 774.7,-349.47"/>
</a>
</g>
</g>
<!-- Node21&#45;&gt;Node12 -->
<g id="edge38_Node000021_Node000012" class="edge">
<title>Node21&#45;&gt;Node12</title>
<g id="a_edge38_Node000021_Node000012"><a xlink:title=" ">
<path fill="none" stroke="#63b8ff" d="M474.35,-217.23C481.92,-213.32 490.34,-208.7 497.75,-204 514.24,-193.53 531.8,-180.24 545.06,-169.72"/>
<polygon fill="#63b8ff" stroke="#63b8ff" points="547.1,-172.57 552.7,-163.57 542.71,-167.11 547.1,-172.57"/>
</a>
</g>
</g>
<!-- Node21&#45;&gt;Node13 -->
<g id="edge39_Node000021_Node000013" class="edge">
<title>Node21&#45;&gt;Node13</title>
<g id="a_edge39_Node000021_Node000013"><a xlink:title=" ">
<path fill="none" stroke="#63b8ff" d="M487.3,-238.72C491.31,-241.2 494.96,-244.26 497.75,-248 574.41,-350.65 464.11,-426.47 533.75,-534 534.04,-534.45 534.35,-534.89 534.66,-535.32"/>
<polygon fill="#63b8ff" stroke="#63b8ff" points="532.09,-537.71 541.72,-542.13 536.95,-532.67 532.09,-537.71"/>
</a>
</g>
</g>
</g>
</svg>
