<?xml version="1.0" encoding="UTF-8" standalone="no"?>
<!DOCTYPE svg PUBLIC "-//W3C//DTD SVG 1.1//EN"
 "http://www.w3.org/Graphics/SVG/1.1/DTD/svg11.dtd">
<!-- Generated by graphviz version 14.1.2 (0)
 -->
<!-- Title: locate_file_in_path Pages: 1 -->
<svg width="1881pt" height="324pt"
 viewBox="0.00 0.00 1881.00 324.00" xmlns="http://www.w3.org/2000/svg" xmlns:xlink="http://www.w3.org/1999/xlink">
<g id="graph0" class="graph" transform="scale(1 1) rotate(0) translate(4 320.38)">
<title>locate_file_in_path</title>
<!-- Node1 -->
<g id="Node000001" class="node">
<title>Node1</title>
<g id="a_Node000001"><a xlink:title="Locates a file in the system PATH.">
<polygon fill="#999999" stroke="#666666" points="1873,-86.75 1764.75,-86.75 1764.75,-66 1873,-66 1873,-86.75"/>
<text xml:space="preserve" text-anchor="middle" x="1818.88" y="-73.25" font-family="Helvetica,sans-Serif" font-size="10.00">locate_file_in_path</text>
</a>
</g>
</g>
<!-- Node2 -->
<g id="Node000002" class="node">
<title>Node2</title>
<g id="a_Node000002"><a xlink:href="../../df/da9/a00263.html#a4da25f98e58860d93b737cdc1997e9e9" target="_top" xlink:title="Initialize Form file specifications.">
<polygon fill="white" stroke="#666666" points="1599.5,-153.75 1513,-153.75 1513,-133 1599.5,-133 1599.5,-153.75"/>
<text xml:space="preserve" text-anchor="middle" x="1556.25" y="-140.25" font-family="Helvetica,sans-Serif" font-size="10.00">init_form_files</text>
</a>
</g>
</g>
<!-- Node1&#45;&gt;Node2 -->
<g id="edge1_Node000001_Node000002" class="edge">
<title>Node1&#45;&gt;Node2</title>
<g id="a_edge1_Node000001_Node000002"><a xlink:title=" ">
<path fill="none" stroke="#63b8ff" d="M1764.73,-90.04C1715.86,-102.6 1644.37,-120.98 1599.35,-132.55"/>
<polygon fill="#63b8ff" stroke="#63b8ff" points="1765.43,-93.47 1774.25,-87.59 1763.69,-86.69 1765.43,-93.47"/>
</a>
</g>
</g>
<!-- Node22 -->
<g id="Node000022" class="node">
<title>Node22</title>
<g id="a_Node000022"><a xlink:href="../../df/da9/a00263.html#ab40bb77758b149f33cbde8063f341b00" target="_top" xlink:title="Initialize Pick file specifications.">
<polygon fill="white" stroke="#666666" points="1598,-39.75 1514.5,-39.75 1514.5,-19 1598,-19 1598,-39.75"/>
<text xml:space="preserve" text-anchor="middle" x="1556.25" y="-26.25" font-family="Helvetica,sans-Serif" font-size="10.00">init_pick_files</text>
</a>
</g>
</g>
<!-- Node1&#45;&gt;Node22 -->
<g id="edge28_Node000001_Node000022" class="edge">
<title>Node1&#45;&gt;Node22</title>
<g id="a_edge28_Node000001_Node000022"><a xlink:title=" ">
<path fill="none" stroke="#63b8ff" d="M1758.39,-63.28C1748.51,-61.22 1738.35,-59.18 1728.75,-57.38 1684.28,-49.01 1633.04,-40.83 1598.24,-35.5"/>
<polygon fill="#63b8ff" stroke="#63b8ff" points="1757.4,-66.65 1767.91,-65.28 1758.85,-59.8 1757.4,-66.65"/>
</a>
</g>
</g>
<!-- Node24 -->
<g id="Node000024" class="node">
<title>Node24</title>
<g id="a_Node000024"><a xlink:href="../../df/da9/a00263.html#a75ce293fe4e007a3337a190647408000" target="_top" xlink:title="Verify file specification argument.">
<polygon fill="white" stroke="#666666" points="1728.75,-86.75 1635.5,-86.75 1635.5,-66 1728.75,-66 1728.75,-86.75"/>
<text xml:space="preserve" text-anchor="middle" x="1682.12" y="-73.25" font-family="Helvetica,sans-Serif" font-size="10.00">verify_spec_arg</text>
</a>
</g>
</g>
<!-- Node1&#45;&gt;Node24 -->
<g id="edge31_Node000001_Node000024" class="edge">
<title>Node1&#45;&gt;Node24</title>
<g id="a_edge31_Node000001_Node000024"><a xlink:title=" ">
<path fill="none" stroke="#63b8ff" d="M1753.17,-76.38C1745.02,-76.38 1736.81,-76.38 1729.03,-76.38"/>
<polygon fill="#63b8ff" stroke="#63b8ff" points="1753.1,-79.88 1763.1,-76.38 1753.1,-72.88 1753.1,-79.88"/>
</a>
</g>
</g>
<!-- Node3 -->
<g id="Node000003" class="node">
<title>Node3</title>
<g id="a_Node000003"><a xlink:href="../../df/da9/a00263.html#a625c89a0ff0ede7fbac1b40c7ac9dbda" target="_top" xlink:title="Create and initialize Form structure.">
<polygon fill="white" stroke="#666666" points="1463.88,-172.75 1399.12,-172.75 1399.12,-152 1463.88,-152 1463.88,-172.75"/>
<text xml:space="preserve" text-anchor="middle" x="1431.5" y="-159.25" font-family="Helvetica,sans-Serif" font-size="10.00">new_form</text>
</a>
</g>
</g>
<!-- Node2&#45;&gt;Node3 -->
<g id="edge2_Node000002_Node000003" class="edge">
<title>Node2&#45;&gt;Node3</title>
<g id="a_edge2_Node000002_Node000003"><a xlink:title=" ">
<path fill="none" stroke="#63b8ff" d="M1501.61,-151.68C1488.83,-153.66 1475.6,-155.7 1464.17,-157.47"/>
<polygon fill="#63b8ff" stroke="#63b8ff" points="1501.82,-155.19 1511.17,-150.2 1500.75,-148.27 1501.82,-155.19"/>
</a>
</g>
</g>
<!-- Node4 -->
<g id="Node000004" class="node">
<title>Node4</title>
<g id="a_Node000004"><a xlink:href="../../d2/d04/a00281.html#abf1be20a8aad5f7ba09172ac1434a110" target="_top" xlink:title="Initialize form data structure and parse description file.">
<polygon fill="white" stroke="#666666" points="1349.25,-192.75 1289,-192.75 1289,-172 1349.25,-172 1349.25,-192.75"/>
<text xml:space="preserve" text-anchor="middle" x="1319.12" y="-179.25" font-family="Helvetica,sans-Serif" font-size="10.00">init_form</text>
</a>
</g>
</g>
<!-- Node3&#45;&gt;Node4 -->
<g id="edge3_Node000003_Node000004" class="edge">
<title>Node3&#45;&gt;Node4</title>
<g id="a_edge3_Node000003_Node000004"><a xlink:title=" ">
<path fill="none" stroke="#63b8ff" d="M1387.91,-170.09C1375.07,-172.42 1361.27,-174.92 1349.49,-177.05"/>
<polygon fill="#63b8ff" stroke="#63b8ff" points="1388.17,-173.6 1397.38,-168.38 1386.92,-166.72 1388.17,-173.6"/>
</a>
</g>
</g>
<!-- Node5 -->
<g id="Node000005" class="node">
<title>Node5</title>
<g id="a_Node000005"><a xlink:href="../../dd/d52/a00221.html#a2ffea5674e85f124a70e19f745a66583" target="_top" xlink:title="use form to enter a file specification">
<polygon fill="white" stroke="#666666" points="1252.25,-115.75 1162,-115.75 1162,-95 1252.25,-95 1252.25,-115.75"/>
<text xml:space="preserve" text-anchor="middle" x="1207.12" y="-102.25" font-family="Helvetica,sans-Serif" font-size="10.00">enter_file_spec</text>
</a>
</g>
</g>
<!-- Node4&#45;&gt;Node5 -->
<g id="edge4_Node000004_Node000005" class="edge">
<title>Node4&#45;&gt;Node5</title>
<g id="a_edge4_Node000004_Node000005"><a xlink:title=" ">
<path fill="none" stroke="#63b8ff" d="M1293.42,-165.08C1272.04,-150.12 1241.79,-128.94 1223.64,-116.24"/>
<polygon fill="#63b8ff" stroke="#63b8ff" points="1291.39,-167.93 1301.59,-170.8 1295.4,-162.2 1291.39,-167.93"/>
</a>
</g>
</g>
<!-- Node15 -->
<g id="Node000015" class="node">
<title>Node15</title>
<g id="a_Node000015"><a xlink:href="../../d9/d39/a00257.html#aa5d0e30e7036b72b51c843d0a7e486a1" target="_top" xlink:title="Processes user input for the menu system.">
<polygon fill="white" stroke="#666666" points="317.25,-250.75 194.75,-250.75 194.75,-230 317.25,-230 317.25,-250.75"/>
<text xml:space="preserve" text-anchor="middle" x="256" y="-237.25" font-family="Helvetica,sans-Serif" font-size="10.00">menu_cmd_processor</text>
</a>
</g>
</g>
<!-- Node4&#45;&gt;Node15 -->
<g id="edge27_Node000004_Node000015" class="edge">
<title>Node4&#45;&gt;Node15</title>
<g id="a_edge27_Node000004_Node000015"><a xlink:title=" ">
<path fill="none" stroke="#63b8ff" d="M1299.91,-200.39C1260.94,-236.95 1165.1,-316.38 1068,-316.38 1068,-316.38 1068,-316.38 494.75,-316.38 410.03,-316.38 316.05,-272.05 276.36,-251.1"/>
<polygon fill="#63b8ff" stroke="#63b8ff" points="1301.86,-203.38 1306.66,-193.94 1297.02,-198.32 1301.86,-203.38"/>
</a>
</g>
</g>
<!-- Node21 -->
<g id="Node000021" class="node">
<title>Node21</title>
<g id="a_Node000021"><a xlink:href="../../db/dc3/a00284.html#a3c04138a5bfe5d72780bb7e82a18e627" target="_top" xlink:title=" ">
<polygon fill="white" stroke="#666666" points="1227.5,-192.75 1186.75,-192.75 1186.75,-172 1227.5,-172 1227.5,-192.75"/>
<text xml:space="preserve" text-anchor="middle" x="1207.12" y="-179.25" font-family="Helvetica,sans-Serif" font-size="10.00">main</text>
</a>
</g>
</g>
<!-- Node4&#45;&gt;Node21 -->
<g id="edge26_Node000004_Node000021" class="edge">
<title>Node4&#45;&gt;Node21</title>
<g id="a_edge26_Node000004_Node000021"><a xlink:title=" ">
<path fill="none" stroke="#63b8ff" d="M1277.36,-182.38C1260.49,-182.38 1241.69,-182.38 1227.95,-182.38"/>
<polygon fill="#63b8ff" stroke="#63b8ff" points="1277.13,-185.88 1287.13,-182.38 1277.13,-178.88 1277.13,-185.88"/>
</a>
</g>
</g>
<!-- Node6 -->
<g id="Node000006" class="node">
<title>Node6</title>
<g id="a_Node000006"><a xlink:href="../../dd/d52/a00221.html#a9c4b3ba5f73c18b486646c62b933972a" target="_top" xlink:title="Main Command Processing Loop for View.">
<polygon fill="white" stroke="#666666" points="1126,-115.75 1008,-115.75 1008,-95 1126,-95 1126,-115.75"/>
<text xml:space="preserve" text-anchor="middle" x="1067" y="-102.25" font-family="Helvetica,sans-Serif" font-size="10.00">view_cmd_processor</text>
</a>
</g>
</g>
<!-- Node5&#45;&gt;Node6 -->
<g id="edge5_Node000005_Node000006" class="edge">
<title>Node5&#45;&gt;Node6</title>
<g id="a_edge5_Node000005_Node000006"><a xlink:title=" ">
<path fill="none" stroke="#63b8ff" d="M1150.37,-105.38C1142.51,-105.38 1134.41,-105.38 1126.5,-105.38"/>
<polygon fill="#63b8ff" stroke="#63b8ff" points="1150.15,-108.88 1160.15,-105.38 1150.15,-101.88 1150.15,-108.88"/>
</a>
</g>
</g>
<!-- Node7 -->
<g id="Node000007" class="node">
<title>Node7</title>
<g id="a_Node000007"><a xlink:href="../../dd/d52/a00221.html#a0bd4dc056ab5010547129bb87819789b" target="_top" xlink:title="Start view.">
<polygon fill="white" stroke="#666666" points="972,-135.75 911.75,-135.75 911.75,-115 972,-115 972,-135.75"/>
<text xml:space="preserve" text-anchor="middle" x="941.88" y="-122.25" font-family="Helvetica,sans-Serif" font-size="10.00">view_file</text>
</a>
</g>
</g>
<!-- Node6&#45;&gt;Node7 -->
<g id="edge6_Node000006_Node000007" class="edge">
<title>Node6&#45;&gt;Node7</title>
<g id="a_edge6_Node000006_Node000007"><a xlink:title=" ">
<path fill="none" stroke="#63b8ff" d="M996.44,-116.67C987.94,-118.06 979.64,-119.4 972.22,-120.61"/>
<polygon fill="#63b8ff" stroke="#63b8ff" points="996.88,-120.15 1006.19,-115.09 995.76,-113.24 996.88,-120.15"/>
</a>
</g>
</g>
<!-- Node8 -->
<g id="Node000008" class="node">
<title>Node8</title>
<g id="a_Node000008"><a xlink:href="../../d5/ddf/a00224.html#a3c04138a5bfe5d72780bb7e82a18e627" target="_top" xlink:title=" ">
<polygon fill="white" stroke="#666666" points="758.12,-135.75 717.38,-135.75 717.38,-115 758.12,-115 758.12,-135.75"/>
<text xml:space="preserve" text-anchor="middle" x="737.75" y="-122.25" font-family="Helvetica,sans-Serif" font-size="10.00">main</text>
</a>
</g>
</g>
<!-- Node7&#45;&gt;Node8 -->
<g id="edge7_Node000007_Node000008" class="edge">
<title>Node7&#45;&gt;Node8</title>
<g id="a_edge7_Node000007_Node000008"><a xlink:title=" ">
<path fill="none" stroke="#63b8ff" d="M900,-125.38C856.97,-125.38 791.03,-125.38 758.41,-125.38"/>
<polygon fill="#63b8ff" stroke="#63b8ff" points="899.97,-128.88 909.97,-125.38 899.97,-121.88 899.97,-128.88"/>
</a>
</g>
</g>
<!-- Node9 -->
<g id="Node000009" class="node">
<title>Node9</title>
<g id="a_Node000009"><a xlink:href="../../d7/d03/a00254.html#a75a4e7afc9c9aafd3d35ab706f5fdc71" target="_top" xlink:title="subprogram entry point for C&#45;Menu View">
<polygon fill="white" stroke="#666666" points="875.75,-174.75 826.75,-174.75 826.75,-154 875.75,-154 875.75,-174.75"/>
<text xml:space="preserve" text-anchor="middle" x="851.25" y="-161.25" font-family="Helvetica,sans-Serif" font-size="10.00">mview</text>
</a>
</g>
</g>
<!-- Node7&#45;&gt;Node9 -->
<g id="edge8_Node000007_Node000009" class="edge">
<title>Node7&#45;&gt;Node9</title>
<g id="a_edge8_Node000007_Node000009"><a xlink:title=" ">
<path fill="none" stroke="#63b8ff" d="M905.78,-140.82C895.86,-145.19 885.29,-149.83 876.19,-153.84"/>
<polygon fill="#63b8ff" stroke="#63b8ff" points="907.06,-144.08 914.8,-136.85 904.24,-137.67 907.06,-144.08"/>
</a>
</g>
</g>
<!-- Node9&#45;&gt;Node8 -->
<g id="edge22_Node000009_Node000008" class="edge">
<title>Node9&#45;&gt;Node8</title>
<g id="a_edge22_Node000009_Node000008"><a xlink:title=" ">
<path fill="none" stroke="#63b8ff" d="M815.52,-152.23C796.77,-145.67 774.3,-137.81 758.54,-132.3"/>
<polygon fill="#63b8ff" stroke="#63b8ff" points="814.31,-155.51 824.9,-155.51 816.62,-148.9 814.31,-155.51"/>
</a>
</g>
</g>
<!-- Node10 -->
<g id="Node000010" class="node">
<title>Node10</title>
<g id="a_Node000010"><a xlink:href="../../d0/d27/a00239.html#aeebc4c0b94ca97d753e10a0cd1798730" target="_top" xlink:title="Displays the help screen for the pick interface using mview.">
<polygon fill="white" stroke="#666666" points="789.25,-174.75 686.25,-174.75 686.25,-154 789.25,-154 789.25,-174.75"/>
<text xml:space="preserve" text-anchor="middle" x="737.75" y="-161.25" font-family="Helvetica,sans-Serif" font-size="10.00">display_pick_help</text>
</a>
</g>
</g>
<!-- Node9&#45;&gt;Node10 -->
<g id="edge9_Node000009_Node000010" class="edge">
<title>Node9&#45;&gt;Node10</title>
<g id="a_edge9_Node000009_Node000010"><a xlink:title=" ">
<path fill="none" stroke="#63b8ff" d="M815.08,-164.38C807,-164.38 798.26,-164.38 789.67,-164.38"/>
<polygon fill="#63b8ff" stroke="#63b8ff" points="814.82,-167.88 824.82,-164.38 814.82,-160.88 814.82,-167.88"/>
</a>
</g>
</g>
<!-- Node9&#45;&gt;Node15 -->
<g id="edge23_Node000009_Node000015" class="edge">
<title>Node9&#45;&gt;Node15</title>
<g id="a_edge23_Node000009_Node000015"><a xlink:title=" ">
<path fill="none" stroke="#63b8ff" d="M828.39,-182.13C817.64,-190.04 804.12,-198.81 790.75,-204.38 715.07,-235.85 691.84,-240.38 609.88,-240.38 609.88,-240.38 609.88,-240.38 494.75,-240.38 434.49,-240.38 365.63,-240.38 317.59,-240.38"/>
<polygon fill="#63b8ff" stroke="#63b8ff" points="830.4,-185 836.22,-176.14 826.15,-179.44 830.4,-185"/>
</a>
</g>
</g>
<!-- Node18 -->
<g id="Node000018" class="node">
<title>Node18</title>
<g id="a_Node000018"><a xlink:href="../../d0/d27/a00239.html#af7fcbb1c8b67a4d11c86ba7209f397c2" target="_top" xlink:title="Executes specified command with selected objects as arguments.">
<polygon fill="white" stroke="#666666" points="648.75,-212.75 569,-212.75 569,-192 648.75,-192 648.75,-212.75"/>
<text xml:space="preserve" text-anchor="middle" x="608.88" y="-199.25" font-family="Helvetica,sans-Serif" font-size="10.00">exec_objects</text>
</a>
</g>
</g>
<!-- Node9&#45;&gt;Node18 -->
<g id="edge18_Node000009_Node000018" class="edge">
<title>Node9&#45;&gt;Node18</title>
<g id="a_edge18_Node000009_Node000018"><a xlink:title=" ">
<path fill="none" stroke="#63b8ff" d="M815.58,-176.76C807.52,-179.27 798.9,-181.66 790.75,-183.38 742.54,-193.49 685.92,-198.33 649.04,-200.57"/>
<polygon fill="#63b8ff" stroke="#63b8ff" points="816.66,-180.09 825.08,-173.65 814.49,-173.43 816.66,-180.09"/>
</a>
</g>
</g>
<!-- Node19 -->
<g id="Node000019" class="node">
<title>Node19</title>
<g id="a_Node000019"><a xlink:href="../../d2/d04/a00281.html#ada302551bf41bf8ed6132fd34328a47e" target="_top" xlink:title="Form main processing loop.">
<polygon fill="white" stroke="#666666" points="776.5,-288.75 699,-288.75 699,-268 776.5,-268 776.5,-288.75"/>
<text xml:space="preserve" text-anchor="middle" x="737.75" y="-275.25" font-family="Helvetica,sans-Serif" font-size="10.00">form_engine</text>
</a>
</g>
</g>
<!-- Node9&#45;&gt;Node19 -->
<g id="edge20_Node000009_Node000019" class="edge">
<title>Node9&#45;&gt;Node19</title>
<g id="a_edge20_Node000009_Node000019"><a xlink:title=" ">
<path fill="none" stroke="#63b8ff" d="M840.62,-185.41C830.58,-205.37 813.19,-235.11 790.75,-254.38 784.56,-259.69 777.01,-264.06 769.59,-267.55"/>
<polygon fill="#63b8ff" stroke="#63b8ff" points="843.69,-187.09 844.88,-176.56 837.39,-184.05 843.69,-187.09"/>
</a>
</g>
</g>
<!-- Node20 -->
<g id="Node000020" class="node">
<title>Node20</title>
<g id="a_Node000020"><a xlink:href="../../dd/d52/a00221.html#ad997ba9f8591568c77291fb1b44601b2" target="_top" xlink:title="Display View Help File.">
<polygon fill="white" stroke="#666666" points="790.75,-96.75 684.75,-96.75 684.75,-76 790.75,-76 790.75,-96.75"/>
<text xml:space="preserve" text-anchor="middle" x="737.75" y="-83.25" font-family="Helvetica,sans-Serif" font-size="10.00">view_display_help</text>
</a>
</g>
</g>
<!-- Node9&#45;&gt;Node20 -->
<g id="edge24_Node000009_Node000020" class="edge">
<title>Node9&#45;&gt;Node20</title>
<g id="a_edge24_Node000009_Node000020"><a xlink:title=" ">
<path fill="none" stroke="#63b8ff" d="M834.37,-145.29C823.21,-132.85 807.36,-117.02 790.75,-106.38 785.21,-102.83 778.95,-99.75 772.73,-97.15"/>
<polygon fill="#63b8ff" stroke="#63b8ff" points="831.41,-147.22 840.61,-152.47 836.7,-142.63 831.41,-147.22"/>
</a>
</g>
</g>
<!-- Node11 -->
<g id="Node000011" class="node">
<title>Node11</title>
<g id="a_Node000011"><a xlink:href="../../d0/d27/a00239.html#abb0969a6d1c7e78be46c3b325754c802" target="_top" xlink:title="Main loop to handle user input and interactions for pick interface.">
<polygon fill="white" stroke="#666666" points="631.5,-173.75 586.25,-173.75 586.25,-153 631.5,-153 631.5,-173.75"/>
<text xml:space="preserve" text-anchor="middle" x="608.88" y="-160.25" font-family="Helvetica,sans-Serif" font-size="10.00">picker</text>
</a>
</g>
</g>
<!-- Node10&#45;&gt;Node11 -->
<g id="edge10_Node000010_Node000011" class="edge">
<title>Node10&#45;&gt;Node11</title>
<g id="a_edge10_Node000010_Node000011"><a xlink:title=" ">
<path fill="none" stroke="#63b8ff" d="M674.77,-163.89C659.41,-163.77 643.94,-163.64 631.96,-163.55"/>
<polygon fill="#63b8ff" stroke="#63b8ff" points="674.34,-167.38 684.36,-163.96 674.39,-160.38 674.34,-167.38"/>
</a>
</g>
</g>
<!-- Node12 -->
<g id="Node000012" class="node">
<title>Node12</title>
<g id="a_Node000012"><a xlink:href="../../d0/d27/a00239.html#ab97dcab41017c5132f52b682437a151e" target="_top" xlink:title="Initializes pick interface, calculates window size and position, and enters picker loop.">
<polygon fill="white" stroke="#666666" points="533,-212.75 458.5,-212.75 458.5,-192 533,-192 533,-212.75"/>
<text xml:space="preserve" text-anchor="middle" x="495.75" y="-199.25" font-family="Helvetica,sans-Serif" font-size="10.00">pick_engine</text>
</a>
</g>
</g>
<!-- Node11&#45;&gt;Node12 -->
<g id="edge11_Node000011_Node000012" class="edge">
<title>Node11&#45;&gt;Node12</title>
<g id="a_edge11_Node000011_Node000012"><a xlink:title=" ">
<path fill="none" stroke="#63b8ff" d="M575.48,-174.75C560.34,-180.06 542.41,-186.35 527.49,-191.59"/>
<polygon fill="#63b8ff" stroke="#63b8ff" points="576.22,-178.2 584.49,-171.58 573.9,-171.59 576.22,-178.2"/>
</a>
</g>
</g>
<!-- Node13 -->
<g id="Node000013" class="node">
<title>Node13</title>
<g id="a_Node000013"><a xlink:href="../../d0/d27/a00239.html#a1b2ee87543245e612c1710ea58930a17" target="_top" xlink:title="Initializes pick structure and opens pick input file or pipe.">
<polygon fill="white" stroke="#666666" points="416.5,-212.75 359.25,-212.75 359.25,-192 416.5,-192 416.5,-212.75"/>
<text xml:space="preserve" text-anchor="middle" x="387.88" y="-199.25" font-family="Helvetica,sans-Serif" font-size="10.00">init_pick</text>
</a>
</g>
</g>
<!-- Node12&#45;&gt;Node13 -->
<g id="edge12_Node000012_Node000013" class="edge">
<title>Node12&#45;&gt;Node13</title>
<g id="a_edge12_Node000012_Node000013"><a xlink:title=" ">
<path fill="none" stroke="#63b8ff" d="M446.68,-202.38C436.47,-202.38 426.02,-202.38 416.86,-202.38"/>
<polygon fill="#63b8ff" stroke="#63b8ff" points="446.5,-205.88 456.5,-202.38 446.5,-198.88 446.5,-205.88"/>
</a>
</g>
</g>
<!-- Node14 -->
<g id="Node000014" class="node">
<title>Node14</title>
<g id="a_Node000014"><a xlink:href="../../d2/dc8/a00242.html#a3c04138a5bfe5d72780bb7e82a18e627" target="_top" xlink:title=" ">
<polygon fill="white" stroke="#666666" points="276.38,-211.75 235.62,-211.75 235.62,-191 276.38,-191 276.38,-211.75"/>
<text xml:space="preserve" text-anchor="middle" x="256" y="-198.25" font-family="Helvetica,sans-Serif" font-size="10.00">main</text>
</a>
</g>
</g>
<!-- Node13&#45;&gt;Node14 -->
<g id="edge13_Node000013_Node000014" class="edge">
<title>Node13&#45;&gt;Node14</title>
<g id="a_edge13_Node000013_Node000014"><a xlink:title=" ">
<path fill="none" stroke="#63b8ff" d="M347.68,-202.07C324.28,-201.89 295.55,-201.67 276.78,-201.53"/>
<polygon fill="#63b8ff" stroke="#63b8ff" points="347.47,-205.57 357.5,-202.15 347.53,-198.57 347.47,-205.57"/>
</a>
</g>
</g>
<!-- Node13&#45;&gt;Node15 -->
<g id="edge14_Node000013_Node000015" class="edge">
<title>Node13&#45;&gt;Node15</title>
<g id="a_edge14_Node000013_Node000015"><a xlink:title=" ">
<path fill="none" stroke="#63b8ff" d="M348.17,-213.7C330.92,-218.75 310.7,-224.66 293.7,-229.64"/>
<polygon fill="#63b8ff" stroke="#63b8ff" points="348.95,-217.12 357.56,-210.95 346.98,-210.4 348.95,-217.12"/>
</a>
</g>
</g>
<!-- Node16 -->
<g id="Node000016" class="node">
<title>Node16</title>
<g id="a_Node000016"><a xlink:href="../../d9/d39/a00257.html#a7d7973d7aac92759dcc86ec52bb038f4" target="_top" xlink:title="The main loop of the menu system.">
<polygon fill="white" stroke="#666666" points="158.75,-250.75 76.75,-250.75 76.75,-230 158.75,-230 158.75,-250.75"/>
<text xml:space="preserve" text-anchor="middle" x="117.75" y="-237.25" font-family="Helvetica,sans-Serif" font-size="10.00">menu_engine</text>
</a>
</g>
</g>
<!-- Node15&#45;&gt;Node16 -->
<g id="edge15_Node000015_Node000016" class="edge">
<title>Node15&#45;&gt;Node16</title>
<g id="a_edge15_Node000015_Node000016"><a xlink:title=" ">
<path fill="none" stroke="#63b8ff" d="M183.2,-233.63C174.96,-233.67 166.79,-233.84 159.17,-234.15"/>
<polygon fill="#63b8ff" stroke="#63b8ff" points="182.92,-237.13 192.93,-233.66 182.94,-230.13 182.92,-237.13"/>
</a>
</g>
</g>
<!-- Node16&#45;&gt;Node15 -->
<g id="edge17_Node000016_Node000015" class="edge">
<title>Node16&#45;&gt;Node15</title>
<g id="a_edge17_Node000016_Node000015"><a xlink:title=" ">
<path fill="none" stroke="#63b8ff" d="M170.68,-246.95C178.45,-247.12 186.52,-247.17 194.45,-247.09"/>
<polygon fill="#63b8ff" stroke="#63b8ff" points="170.79,-243.45 160.69,-246.65 170.58,-250.45 170.79,-243.45"/>
</a>
</g>
</g>
<!-- Node17 -->
<g id="Node000017" class="node">
<title>Node17</title>
<g id="a_Node000017"><a xlink:href="../../dd/dd7/a00260.html#a3c04138a5bfe5d72780bb7e82a18e627" target="_top" xlink:title=" ">
<polygon fill="white" stroke="#666666" points="40.75,-211.75 0,-211.75 0,-191 40.75,-191 40.75,-211.75"/>
<text xml:space="preserve" text-anchor="middle" x="20.38" y="-198.25" font-family="Helvetica,sans-Serif" font-size="10.00">main</text>
</a>
</g>
</g>
<!-- Node16&#45;&gt;Node17 -->
<g id="edge16_Node000016_Node000017" class="edge">
<title>Node16&#45;&gt;Node17</title>
<g id="a_edge16_Node000016_Node000017"><a xlink:title=" ">
<path fill="none" stroke="#63b8ff" d="M79.54,-225.16C66.44,-219.8 52.24,-214 41.15,-209.46"/>
<polygon fill="#63b8ff" stroke="#63b8ff" points="78.2,-228.39 88.78,-228.94 80.85,-221.91 78.2,-228.39"/>
</a>
</g>
</g>
<!-- Node18&#45;&gt;Node12 -->
<g id="edge19_Node000018_Node000012" class="edge">
<title>Node18&#45;&gt;Node12</title>
<g id="a_edge19_Node000018_Node000012"><a xlink:title=" ">
<path fill="none" stroke="#63b8ff" d="M557.4,-202.38C549.3,-202.38 541.04,-202.38 533.34,-202.38"/>
<polygon fill="#63b8ff" stroke="#63b8ff" points="557.18,-205.88 567.18,-202.38 557.18,-198.88 557.18,-205.88"/>
</a>
</g>
</g>
<!-- Node19&#45;&gt;Node4 -->
<g id="edge21_Node000019_Node000004" class="edge">
<title>Node19&#45;&gt;Node4</title>
<g id="a_edge21_Node000019_Node000004"><a xlink:title=" ">
<path fill="none" stroke="#63b8ff" d="M785.06,-264.6C825.73,-253.72 886.7,-240.38 940.88,-240.38 1068,-240.38 1068,-240.38 1068,-240.38 1150.69,-240.38 1244.87,-209.92 1290.48,-193.15"/>
<polygon fill="#63b8ff" stroke="#63b8ff" points="784.33,-261.17 775.61,-267.19 786.18,-267.92 784.33,-261.17"/>
</a>
</g>
</g>
<!-- Node20&#45;&gt;Node6 -->
<g id="edge25_Node000020_Node000006" class="edge">
<title>Node20&#45;&gt;Node6</title>
<g id="a_edge25_Node000020_Node000006"><a xlink:title=" ">
<path fill="none" stroke="#63b8ff" d="M802.35,-90.07C861.91,-93.53 950.15,-98.65 1007.87,-102"/>
<polygon fill="#63b8ff" stroke="#63b8ff" points="802.9,-86.59 792.72,-89.51 802.5,-93.58 802.9,-86.59"/>
</a>
</g>
</g>
<!-- Node23 -->
<g id="Node000023" class="node">
<title>Node23</title>
<g id="a_Node000023"><a xlink:href="../../df/da9/a00263.html#aa7928f3771536aa0e27d88479be2cbc8" target="_top" xlink:title="Create and initialize Pick structure.">
<polygon fill="white" stroke="#666666" points="1350,-20.75 1288.25,-20.75 1288.25,0 1350,0 1350,-20.75"/>
<text xml:space="preserve" text-anchor="middle" x="1319.12" y="-7.25" font-family="Helvetica,sans-Serif" font-size="10.00">new_pick</text>
</a>
</g>
</g>
<!-- Node22&#45;&gt;Node23 -->
<g id="edge29_Node000022_Node000023" class="edge">
<title>Node22&#45;&gt;Node23</title>
<g id="a_edge29_Node000022_Node000023"><a xlink:title=" ">
<path fill="none" stroke="#63b8ff" d="M1502.58,-25.12C1455.73,-21.33 1388.88,-15.93 1350.45,-12.83"/>
<polygon fill="#63b8ff" stroke="#63b8ff" points="1502.27,-28.6 1512.52,-25.92 1502.83,-21.63 1502.27,-28.6"/>
</a>
</g>
</g>
<!-- Node23&#45;&gt;Node13 -->
<g id="edge30_Node000023_Node000013" class="edge">
<title>Node23&#45;&gt;Node13</title>
<g id="a_edge30_Node000023_Node000013"><a xlink:title=" ">
<path fill="none" stroke="#63b8ff" d="M1276.89,-10.38C1227.31,-10.38 1141.57,-10.38 1068,-10.38 1068,-10.38 1068,-10.38 607.88,-10.38 495.48,-10.38 512.49,-115.05 422.5,-182.38 418.15,-185.63 413.23,-188.8 408.53,-191.63"/>
<polygon fill="#63b8ff" stroke="#63b8ff" points="1276.58,-13.88 1286.58,-10.38 1276.58,-6.88 1276.58,-13.88"/>
</a>
</g>
</g>
<!-- Node24&#45;&gt;Node2 -->
<g id="edge33_Node000024_Node000002" class="edge">
<title>Node24&#45;&gt;Node2</title>
<g id="a_edge33_Node000024_Node000002"><a xlink:title=" ">
<path fill="none" stroke="#63b8ff" d="M1651.3,-92.51C1628.3,-104.95 1597.13,-121.8 1577.1,-132.64"/>
<polygon fill="#63b8ff" stroke="#63b8ff" points="1652.76,-95.7 1659.89,-87.86 1649.43,-89.54 1652.76,-95.7"/>
</a>
</g>
</g>
<!-- Node24&#45;&gt;Node5 -->
<g id="edge32_Node000024_Node000005" class="edge">
<title>Node24&#45;&gt;Node5</title>
<g id="a_edge32_Node000024_Node000005"><a xlink:title=" ">
<path fill="none" stroke="#63b8ff" d="M1624.26,-83.88C1615.97,-84.82 1607.52,-85.69 1599.5,-86.38 1473.94,-97.1 1325.16,-102.25 1252.51,-104.28"/>
<polygon fill="#63b8ff" stroke="#63b8ff" points="1624.4,-87.39 1633.92,-82.75 1623.58,-80.44 1624.4,-87.39"/>
</a>
</g>
</g>
<!-- Node24&#45;&gt;Node22 -->
<g id="edge38_Node000024_Node000022" class="edge">
<title>Node24&#45;&gt;Node22</title>
<g id="a_edge38_Node000024_Node000022"><a xlink:title=" ">
<path fill="none" stroke="#63b8ff" d="M1642.05,-61.55C1623.71,-54.59 1602.27,-46.46 1585.54,-40.11"/>
<polygon fill="#63b8ff" stroke="#63b8ff" points="1640.7,-64.78 1651.29,-65.06 1643.18,-58.24 1640.7,-64.78"/>
</a>
</g>
</g>
<!-- Node25 -->
<g id="Node000025" class="node">
<title>Node25</title>
<g id="a_Node000025"><a xlink:href="../../df/da9/a00263.html#a6a3ca11276b38608f15cef7c3962143e" target="_top" xlink:title="Initialize Menu file specifications.">
<polygon fill="white" stroke="#666666" points="1477,-77.75 1386,-77.75 1386,-57 1477,-57 1477,-77.75"/>
<text xml:space="preserve" text-anchor="middle" x="1431.5" y="-64.25" font-family="Helvetica,sans-Serif" font-size="10.00">init_menu_files</text>
</a>
</g>
</g>
<!-- Node24&#45;&gt;Node25 -->
<g id="edge34_Node000024_Node000025" class="edge">
<title>Node24&#45;&gt;Node25</title>
<g id="a_edge34_Node000024_Node000025"><a xlink:title=" ">
<path fill="none" stroke="#63b8ff" d="M1623.99,-74.31C1579.41,-72.69 1518.37,-70.48 1477.29,-69"/>
<polygon fill="#63b8ff" stroke="#63b8ff" points="1623.6,-77.79 1633.72,-74.66 1623.85,-70.8 1623.6,-77.79"/>
</a>
</g>
</g>
<!-- Node26 -->
<g id="Node000026" class="node">
<title>Node26</title>
<g id="a_Node000026"><a xlink:href="../../df/da9/a00263.html#a861e6162a19e089468fdc2a1479b547f" target="_top" xlink:title="Create and initialize Menu structure.">
<polygon fill="white" stroke="#666666" points="422.5,-173.75 353.25,-173.75 353.25,-153 422.5,-153 422.5,-173.75"/>
<text xml:space="preserve" text-anchor="middle" x="387.88" y="-160.25" font-family="Helvetica,sans-Serif" font-size="10.00">new_menu</text>
</a>
</g>
</g>
<!-- Node25&#45;&gt;Node26 -->
<g id="edge35_Node000025_Node000026" class="edge">
<title>Node25&#45;&gt;Node26</title>
<g id="a_edge35_Node000025_Node000026"><a xlink:title=" ">
<path fill="none" stroke="#63b8ff" d="M1374.62,-59.95C1329.71,-54.62 1264.98,-48.38 1208.12,-48.38 1208.12,-48.38 1208.12,-48.38 607.88,-48.38 518.55,-48.38 429.8,-124.29 399.66,-152.76"/>
<polygon fill="#63b8ff" stroke="#63b8ff" points="1374.02,-63.4 1384.37,-61.13 1374.86,-56.45 1374.02,-63.4"/>
</a>
</g>
</g>
<!-- Node26&#45;&gt;Node15 -->
<g id="edge37_Node000026_Node000015" class="edge">
<title>Node26&#45;&gt;Node15</title>
<g id="a_edge37_Node000026_Node000015"><a xlink:title=" ">
<path fill="none" stroke="#63b8ff" d="M357.3,-180.35C355.91,-181.34 354.55,-182.35 353.25,-183.38 335.24,-197.58 336.69,-208.19 317.25,-220.38 311.46,-224 304.94,-227.05 298.38,-229.58"/>
<polygon fill="#63b8ff" stroke="#63b8ff" points="359.02,-183.4 365.48,-175.01 355.19,-177.54 359.02,-183.4"/>
</a>
</g>
</g>
<!-- Node26&#45;&gt;Node17 -->
<g id="edge36_Node000026_Node000017" class="edge">
<title>Node26&#45;&gt;Node17</title>
<g id="a_edge36_Node000026_Node000017"><a xlink:title=" ">
<path fill="none" stroke="#63b8ff" d="M341.4,-167.74C302.46,-171.5 244.9,-177.15 194.75,-182.38 139.03,-188.18 73.3,-195.52 41.13,-199.14"/>
<polygon fill="#63b8ff" stroke="#63b8ff" points="341.73,-171.22 351.35,-166.78 341.06,-164.25 341.73,-171.22"/>
</a>
</g>
</g>
</g>
</svg>
