<?xml version="1.0" encoding="UTF-8" standalone="no"?>
<!DOCTYPE svg PUBLIC "-//W3C//DTD SVG 1.1//EN"
 "http://www.w3.org/Graphics/SVG/1.1/DTD/svg11.dtd">
<!-- Generated by graphviz version 14.1.2 (0)
 -->
<!-- Title: expand_tilde Pages: 1 -->
<svg width="191pt" height="68pt"
 viewBox="0.00 0.00 191.00 68.00" xmlns="http://www.w3.org/2000/svg" xmlns:xlink="http://www.w3.org/1999/xlink">
<g id="graph0" class="graph" transform="scale(1 1) rotate(0) translate(4 63.75)">
<title>expand_tilde</title>
<!-- Node1 -->
<g id="Node000001" class="node">
<title>Node1</title>
<g id="a_Node000001"><a xlink:title="Replace Leading Tilde With Home Directory.">
<polygon fill="#999999" stroke="#666666" points="79,-39.75 0,-39.75 0,-19 79,-19 79,-39.75"/>
<text xml:space="preserve" text-anchor="middle" x="39.5" y="-26.25" font-family="Helvetica,sans-Serif" font-size="10.00">expand_tilde</text>
</a>
</g>
</g>
<!-- Node2 -->
<g id="Node000002" class="node">
<title>Node2</title>
<g id="a_Node000002"><a xlink:href="../../dc/d5d/a00278.html#aa0145c044cfdde3a1c83323410a59f25" target="_top" xlink:title="safer alternative to strncat">
<polygon fill="white" stroke="#666666" points="181.62,-59.75 116.12,-59.75 116.12,-39 181.62,-39 181.62,-59.75"/>
<text xml:space="preserve" text-anchor="middle" x="148.88" y="-46.25" font-family="Helvetica,sans-Serif" font-size="10.00">strnz__cat</text>
</a>
</g>
</g>
<!-- Node1&#45;&gt;Node2 -->
<g id="edge1_Node000001_Node000002" class="edge">
<title>Node1&#45;&gt;Node2</title>
<g id="a_edge1_Node000001_Node000002"><a xlink:title=" ">
<path fill="none" stroke="#63b8ff" d="M79.26,-36.6C87.52,-38.13 96.3,-39.77 104.71,-41.33"/>
<polygon fill="#63b8ff" stroke="#63b8ff" points="103.92,-44.75 114.39,-43.14 105.2,-37.87 103.92,-44.75"/>
</a>
</g>
</g>
<!-- Node3 -->
<g id="Node000003" class="node">
<title>Node3</title>
<g id="a_Node000003"><a xlink:href="../../dc/d5d/a00278.html#a0de2e40df9bd7efc8fd9afb8ad2257e6" target="_top" xlink:title="safer alternative to strncpy">
<polygon fill="white" stroke="#666666" points="182.75,-20.75 115,-20.75 115,0 182.75,0 182.75,-20.75"/>
<text xml:space="preserve" text-anchor="middle" x="148.88" y="-7.25" font-family="Helvetica,sans-Serif" font-size="10.00">strnz__cpy</text>
</a>
</g>
</g>
<!-- Node1&#45;&gt;Node3 -->
<g id="edge2_Node000001_Node000003" class="edge">
<title>Node1&#45;&gt;Node3</title>
<g id="a_edge2_Node000001_Node000003"><a xlink:title=" ">
<path fill="none" stroke="#63b8ff" d="M79.26,-22.52C87.19,-21.11 95.58,-19.63 103.67,-18.2"/>
<polygon fill="#63b8ff" stroke="#63b8ff" points="104.11,-21.67 113.35,-16.48 102.89,-14.78 104.11,-21.67"/>
</a>
</g>
</g>
</g>
</svg>
