<?xml version="1.0" encoding="UTF-8" standalone="no"?>
<!DOCTYPE svg PUBLIC "-//W3C//DTD SVG 1.1//EN"
 "http://www.w3.org/Graphics/SVG/1.1/DTD/svg11.dtd">
<!-- Generated by graphviz version 14.1.2 (0)
 -->
<!-- Title: str_to_args Pages: 1 -->
<!--zoomable 324 -->

<svg id="main" version="1.1" xmlns="http://www.w3.org/2000/svg" xmlns:xlink="http://www.w3.org/1999/xlink" xml:space="preserve" onload="init(evt)">

<style type="text/css"><![CDATA[
.node, .edge {opacity: 0.7;}
.node.selected, .edge.selected {opacity: 1;}
.edge:hover path { stroke: red; }
.edge:hover polygon { stroke: red; fill: red; }
]]></style>

<defs>
  <circle id="rim" cx="0" cy="0" r="7"/>
  <circle id="rim2" cx="0" cy="0" r="3.5"/>
  <g id="zoomPlus">
    <use xlink:href="#rim" fill="#404040"><set attributeName="fill" to="#808080" begin="zoomplus.mouseover" end="zoomplus.mouseout"/></use>
    <path d="M-4,0h8M0,-4v8" fill="none" stroke="white" stroke-width="1.5" pointer-events="none"/>
  </g>
  <g id="zoomMin">
    <use xlink:href="#rim" fill="#404040"><set attributeName="fill" to="#808080" begin="zoomminus.mouseover" end="zoomminus.mouseout"/></use>
    <path d="M-4,0h8" fill="none" stroke="white" stroke-width="1.5" pointer-events="none"/>
  </g>
  <g id="arrowUp" transform="translate(30 24)">
    <use xlink:href="#rim"/>
    <path pointer-events="none" fill="none" stroke="white" stroke-width="1.5" d="M0,-3.0v7 M-2.5,-0.5L0,-3.0L2.5,-0.5"/>
  </g>
  <g id="arrowRight" transform="rotate(90) translate(36 -43)">
    <use xlink:href="#rim"/>
    <path pointer-events="none" fill="none" stroke="white" stroke-width="1.5" d="M0,-3.0v7 M-2.5,-0.5L0,-3.0L2.5,-0.5"/>
  </g>
  <g id="arrowDown" transform="rotate(180) translate(-30 -48)">
    <use xlink:href="#rim"/>
    <path pointer-events="none" fill="none" stroke="white" stroke-width="1.5" d="M0,-3.0v7 M-2.5,-0.5L0,-3.0L2.5,-0.5"/>
  </g>
  <g id="arrowLeft" transform="rotate(270) translate(-36 17)">
    <use xlink:href="#rim"/>
    <path pointer-events="none" fill="none" stroke="white" stroke-width="1.5" d="M0,-3.0v7 M-2.5,-0.5L0,-3.0L2.5,-0.5"/>
  </g>
  <g id="resetDef">
    <use xlink:href="#rim2" fill="#404040"><set attributeName="fill" to="#808080" begin="reset.mouseover" end="reset.mouseout"/></use>
  </g>
</defs>
<script type="application/ecmascript">
var viewWidth = 1335;
var viewHeight = 324;
var sectionId = 'dynsection-22';
</script>
<script type="application/ecmascript" xlink:href="../../svg.min.js"/>
<svg id="graph" class="graph">
<g id="viewport">
<title>str_to_args</title>
<!-- Node1 -->
<g id="Node000001" class="node">
<title>Node1</title>
<g id="a_Node000001"><a xlink:title="Converts a string into an array of argument strings.">
<polygon fill="#999999" stroke="#666666" points="1326.75,-182.38 1256.75,-182.38 1256.75,-161.62 1326.75,-161.62 1326.75,-182.38"/>
<text xml:space="preserve" text-anchor="middle" x="1291.75" y="-168.88" font-family="Helvetica,sans-Serif" font-size="10.00">str_to_args</text>
</a>
</g>
</g>
<!-- Node2 -->
<g id="Node000002" class="node">
<title>Node2</title>
<g id="a_Node000002"><a xlink:href="../../dd/d52/a00221.html#a2ffea5674e85f124a70e19f745a66583" target="_top" xlink:title="use form to enter a file specification">
<polygon fill="white" stroke="#666666" points="1220.75,-202.38 1130.5,-202.38 1130.5,-181.62 1220.75,-181.62 1220.75,-202.38"/>
<text xml:space="preserve" text-anchor="middle" x="1175.62" y="-188.88" font-family="Helvetica,sans-Serif" font-size="10.00">enter_file_spec</text>
</a>
</g>
</g>
<!-- Node1&#45;&gt;Node2 -->
<g id="edge1_Node000001_Node000002" class="edge">
<title>Node1&#45;&gt;Node2</title>
<g id="a_edge1_Node000001_Node000002"><a xlink:title=" ">
<path fill="none" stroke="#63b8ff" d="M1245.42,-179.94C1237.38,-181.35 1229.01,-182.82 1221,-184.22"/>
<polygon fill="#63b8ff" stroke="#63b8ff" points="1245.77,-183.44 1255.02,-178.26 1244.56,-176.54 1245.77,-183.44"/>
</a>
</g>
</g>
<!-- Node10 -->
<g id="Node000010" class="node">
<title>Node10</title>
<g id="a_Node000010"><a xlink:href="../../d0/d27/a00239.html#a1b2ee87543245e612c1710ea58930a17" target="_top" xlink:title="Initializes pick structure and opens pick input file or pipe.">
<polygon fill="white" stroke="#666666" points="410.5,-98.38 353.25,-98.38 353.25,-77.62 410.5,-77.62 410.5,-98.38"/>
<text xml:space="preserve" text-anchor="middle" x="381.88" y="-84.88" font-family="Helvetica,sans-Serif" font-size="10.00">init_pick</text>
</a>
</g>
</g>
<!-- Node1&#45;&gt;Node10 -->
<g id="edge29_Node000001_Node000010" class="edge">
<title>Node1&#45;&gt;Node10</title>
<g id="a_edge29_Node000001_Node000010"><a xlink:title=" ">
<path fill="none" stroke="#63b8ff" d="M1281.94,-150.74C1270.96,-126.71 1250.02,-87.96 1220.75,-65 1152.43,-11.4 1123.34,0 1036.5,0 1036.5,0 1036.5,0 586.12,0 509.22,0 428.43,-53.71 396.76,-77.21"/>
<polygon fill="#63b8ff" stroke="#63b8ff" points="1278.7,-152.07 1285.92,-159.83 1285.12,-149.27 1278.7,-152.07"/>
</a>
</g>
</g>
<!-- Node12 -->
<g id="Node000012" class="node">
<title>Node12</title>
<g id="a_Node000012"><a xlink:href="../../d9/d39/a00257.html#aa5d0e30e7036b72b51c843d0a7e486a1" target="_top" xlink:title="Processes user input for the menu system.">
<polygon fill="white" stroke="#666666" points="317.25,-174.38 194.75,-174.38 194.75,-153.62 317.25,-153.62 317.25,-174.38"/>
<text xml:space="preserve" text-anchor="middle" x="256" y="-160.88" font-family="Helvetica,sans-Serif" font-size="10.00">menu_cmd_processor</text>
</a>
</g>
</g>
<!-- Node1&#45;&gt;Node12 -->
<g id="edge30_Node000001_Node000012" class="edge">
<title>Node1&#45;&gt;Node12</title>
<g id="a_edge30_Node000001_Node000012"><a xlink:title=" ">
<path fill="none" stroke="#63b8ff" d="M1266.19,-188.93C1253.25,-196.99 1236.77,-205.95 1220.75,-211 1142.24,-235.76 1118.82,-230 1036.5,-230 1036.5,-230 1036.5,-230 482.75,-230 404.96,-230 317.94,-193.45 278.5,-174.75"/>
<polygon fill="#63b8ff" stroke="#63b8ff" points="1267.97,-191.94 1274.46,-183.57 1264.16,-186.07 1267.97,-191.94"/>
</a>
</g>
</g>
<!-- Node15 -->
<g id="Node000015" class="node">
<title>Node15</title>
<g id="a_Node000015"><a xlink:href="../../d0/d27/a00239.html#af7fcbb1c8b67a4d11c86ba7209f397c2" target="_top" xlink:title="Executes specified command with selected objects as arguments.">
<polygon fill="white" stroke="#666666" points="746.12,-48.38 666.38,-48.38 666.38,-27.62 746.12,-27.62 746.12,-48.38"/>
<text xml:space="preserve" text-anchor="middle" x="706.25" y="-34.88" font-family="Helvetica,sans-Serif" font-size="10.00">exec_objects</text>
</a>
</g>
</g>
<!-- Node1&#45;&gt;Node15 -->
<g id="edge26_Node000001_Node000015" class="edge">
<title>Node1&#45;&gt;Node15</title>
<g id="a_edge26_Node000001_Node000015"><a xlink:title=" ">
<path fill="none" stroke="#63b8ff" d="M1270.52,-154.14C1229.48,-119.82 1132.18,-48 1036.5,-48 1036.5,-48 1036.5,-48 909.38,-48 852.63,-48 787.04,-44.02 746.35,-41.08"/>
<polygon fill="#63b8ff" stroke="#63b8ff" points="1268.03,-156.62 1277.91,-160.45 1272.58,-151.29 1268.03,-156.62"/>
</a>
</g>
</g>
<!-- Node20 -->
<g id="Node000020" class="node">
<title>Node20</title>
<g id="a_Node000020"><a xlink:href="../../d2/d04/a00281.html#a0329d3892bf2c4fe8e77a3c303ebe5f6" target="_top" xlink:title="Handle integration with an external program for calculation, allowing the user to execute a provider ...">
<polygon fill="white" stroke="#666666" points="1079.88,-316.38 991.12,-316.38 991.12,-295.62 1079.88,-295.62 1079.88,-316.38"/>
<text xml:space="preserve" text-anchor="middle" x="1035.5" y="-302.88" font-family="Helvetica,sans-Serif" font-size="10.00">form_calculate</text>
</a>
</g>
</g>
<!-- Node1&#45;&gt;Node20 -->
<g id="edge27_Node000001_Node000020" class="edge">
<title>Node1&#45;&gt;Node20</title>
<g id="a_edge27_Node000001_Node000020"><a xlink:title=" ">
<path fill="none" stroke="#63b8ff" d="M1276.19,-191.49C1263.23,-207.6 1242.95,-230.02 1220.75,-244 1176.77,-271.7 1119.03,-288.51 1080,-297.51"/>
<polygon fill="#63b8ff" stroke="#63b8ff" points="1278.61,-194.08 1282,-184.04 1273.09,-189.78 1278.61,-194.08"/>
</a>
</g>
</g>
<!-- Node21 -->
<g id="Node000021" class="node">
<title>Node21</title>
<g id="a_Node000021"><a xlink:href="../../d5/d42/a00269.html#a0d392793038e6c32c6f3fa978fc42ced" target="_top" xlink:title="Initialize the input for a C&#45;Menu View.">
<polygon fill="white" stroke="#666666" points="1220.75,-163.38 1130.5,-163.38 1130.5,-142.62 1220.75,-142.62 1220.75,-163.38"/>
<text xml:space="preserve" text-anchor="middle" x="1175.62" y="-149.88" font-family="Helvetica,sans-Serif" font-size="10.00">view_init_input</text>
</a>
</g>
</g>
<!-- Node1&#45;&gt;Node21 -->
<g id="edge31_Node000001_Node000021" class="edge">
<title>Node1&#45;&gt;Node21</title>
<g id="a_edge31_Node000001_Node000021"><a xlink:title=" ">
<path fill="none" stroke="#63b8ff" d="M1245.42,-164.45C1237.38,-163.11 1229.01,-161.72 1221,-160.39"/>
<polygon fill="#63b8ff" stroke="#63b8ff" points="1244.58,-167.86 1255.02,-166.05 1245.73,-160.96 1244.58,-167.86"/>
</a>
</g>
</g>
<!-- Node3 -->
<g id="Node000003" class="node">
<title>Node3</title>
<g id="a_Node000003"><a xlink:href="../../dd/d52/a00221.html#a9c4b3ba5f73c18b486646c62b933972a" target="_top" xlink:title="Main Command Processing Loop for View.">
<polygon fill="white" stroke="#666666" points="1094.5,-202.38 976.5,-202.38 976.5,-181.62 1094.5,-181.62 1094.5,-202.38"/>
<text xml:space="preserve" text-anchor="middle" x="1035.5" y="-188.88" font-family="Helvetica,sans-Serif" font-size="10.00">view_cmd_processor</text>
</a>
</g>
</g>
<!-- Node2&#45;&gt;Node3 -->
<g id="edge2_Node000002_Node000003" class="edge">
<title>Node2&#45;&gt;Node3</title>
<g id="a_edge2_Node000002_Node000003"><a xlink:title=" ">
<path fill="none" stroke="#63b8ff" d="M1118.87,-192C1111.01,-192 1102.91,-192 1095,-192"/>
<polygon fill="#63b8ff" stroke="#63b8ff" points="1118.65,-195.5 1128.65,-192 1118.65,-188.5 1118.65,-195.5"/>
</a>
</g>
</g>
<!-- Node4 -->
<g id="Node000004" class="node">
<title>Node4</title>
<g id="a_Node000004"><a xlink:href="../../dd/d52/a00221.html#a0bd4dc056ab5010547129bb87819789b" target="_top" xlink:title="Start view.">
<polygon fill="white" stroke="#666666" points="940.5,-163.38 880.25,-163.38 880.25,-142.62 940.5,-142.62 940.5,-163.38"/>
<text xml:space="preserve" text-anchor="middle" x="910.38" y="-149.88" font-family="Helvetica,sans-Serif" font-size="10.00">view_file</text>
</a>
</g>
</g>
<!-- Node3&#45;&gt;Node4 -->
<g id="edge3_Node000003_Node000004" class="edge">
<title>Node3&#45;&gt;Node4</title>
<g id="a_edge3_Node000003_Node000004"><a xlink:title=" ">
<path fill="none" stroke="#63b8ff" d="M989.34,-177.69C973.18,-172.58 955.39,-166.94 940.89,-162.35"/>
<polygon fill="#63b8ff" stroke="#63b8ff" points="988.17,-181 998.76,-180.68 990.28,-174.32 988.17,-181"/>
</a>
</g>
</g>
<!-- Node5 -->
<g id="Node000005" class="node">
<title>Node5</title>
<g id="a_Node000005"><a xlink:href="../../d5/ddf/a00224.html#a3c04138a5bfe5d72780bb7e82a18e627" target="_top" xlink:title=" ">
<polygon fill="white" stroke="#666666" points="726.62,-87.38 685.88,-87.38 685.88,-66.62 726.62,-66.62 726.62,-87.38"/>
<text xml:space="preserve" text-anchor="middle" x="706.25" y="-73.88" font-family="Helvetica,sans-Serif" font-size="10.00">main</text>
</a>
</g>
</g>
<!-- Node4&#45;&gt;Node5 -->
<g id="edge4_Node000004_Node000005" class="edge">
<title>Node4&#45;&gt;Node5</title>
<g id="a_edge4_Node000004_Node000005"><a xlink:title=" ">
<path fill="none" stroke="#63b8ff" d="M870.23,-138.28C827.33,-122.15 760.22,-96.92 727.1,-84.46"/>
<polygon fill="#63b8ff" stroke="#63b8ff" points="868.84,-141.5 879.43,-141.74 871.3,-134.94 868.84,-141.5"/>
</a>
</g>
</g>
<!-- Node6 -->
<g id="Node000006" class="node">
<title>Node6</title>
<g id="a_Node000006"><a xlink:href="../../d7/d03/a00254.html#a75a4e7afc9c9aafd3d35ab706f5fdc71" target="_top" xlink:title="subprogram entry point for C&#45;Menu View">
<polygon fill="white" stroke="#666666" points="844.25,-163.38 795.25,-163.38 795.25,-142.62 844.25,-142.62 844.25,-163.38"/>
<text xml:space="preserve" text-anchor="middle" x="819.75" y="-149.88" font-family="Helvetica,sans-Serif" font-size="10.00">mview</text>
</a>
</g>
</g>
<!-- Node4&#45;&gt;Node6 -->
<g id="edge5_Node000004_Node000006" class="edge">
<title>Node4&#45;&gt;Node6</title>
<g id="a_edge5_Node000004_Node000006"><a xlink:title=" ">
<path fill="none" stroke="#63b8ff" d="M868.49,-153C860.29,-153 851.92,-153 844.54,-153"/>
<polygon fill="#63b8ff" stroke="#63b8ff" points="868.35,-156.5 878.35,-153 868.35,-149.5 868.35,-156.5"/>
</a>
</g>
</g>
<!-- Node6&#45;&gt;Node5 -->
<g id="edge22_Node000006_Node000005" class="edge">
<title>Node6&#45;&gt;Node5</title>
<g id="a_edge22_Node000006_Node000005"><a xlink:title=" ">
<path fill="none" stroke="#63b8ff" d="M802.02,-133.83C790.86,-121.96 775.33,-107.11 759.25,-97 749.26,-90.72 736.98,-85.88 726.86,-82.54"/>
<polygon fill="#63b8ff" stroke="#63b8ff" points="799.3,-136.04 808.62,-141.07 804.48,-131.32 799.3,-136.04"/>
</a>
</g>
</g>
<!-- Node7 -->
<g id="Node000007" class="node">
<title>Node7</title>
<g id="a_Node000007"><a xlink:href="../../d0/d27/a00239.html#aeebc4c0b94ca97d753e10a0cd1798730" target="_top" xlink:title="Displays the help screen for the pick interface using mview.">
<polygon fill="white" stroke="#666666" points="757.75,-126.38 654.75,-126.38 654.75,-105.62 757.75,-105.62 757.75,-126.38"/>
<text xml:space="preserve" text-anchor="middle" x="706.25" y="-112.88" font-family="Helvetica,sans-Serif" font-size="10.00">display_pick_help</text>
</a>
</g>
</g>
<!-- Node6&#45;&gt;Node7 -->
<g id="edge6_Node000006_Node000007" class="edge">
<title>Node6&#45;&gt;Node7</title>
<g id="a_edge6_Node000006_Node000007"><a xlink:title=" ">
<path fill="none" stroke="#63b8ff" d="M784.09,-141.5C770.03,-136.83 753.87,-131.47 740.01,-126.87"/>
<polygon fill="#63b8ff" stroke="#63b8ff" points="782.8,-144.76 793.39,-144.59 785.01,-138.11 782.8,-144.76"/>
</a>
</g>
</g>
<!-- Node6&#45;&gt;Node12 -->
<g id="edge23_Node000006_Node000012" class="edge">
<title>Node6&#45;&gt;Node12</title>
<g id="a_edge23_Node000006_Node000012"><a xlink:title=" ">
<path fill="none" stroke="#63b8ff" d="M783.61,-153.25C738.4,-153.54 657.41,-154 588.12,-154 588.12,-154 588.12,-154 482.75,-154 426.65,-154 362.78,-157.12 317.33,-159.87"/>
<polygon fill="#63b8ff" stroke="#63b8ff" points="783.36,-156.75 793.33,-153.18 783.31,-149.75 783.36,-156.75"/>
</a>
</g>
</g>
<!-- Node6&#45;&gt;Node15 -->
<g id="edge15_Node000006_Node000015" class="edge">
<title>Node6&#45;&gt;Node15</title>
<g id="a_edge15_Node000006_Node000015"><a xlink:title=" ">
<path fill="none" stroke="#63b8ff" d="M810.27,-131.76C800.76,-110.43 783.45,-77.94 759.25,-58 754.85,-54.37 749.71,-51.35 744.41,-48.86"/>
<polygon fill="#63b8ff" stroke="#63b8ff" points="807.02,-133.07 814.15,-140.91 813.47,-130.34 807.02,-133.07"/>
</a>
</g>
</g>
<!-- Node16 -->
<g id="Node000016" class="node">
<title>Node16</title>
<g id="a_Node000016"><a xlink:href="../../d2/d04/a00281.html#ada302551bf41bf8ed6132fd34328a47e" target="_top" xlink:title="Form main processing loop.">
<polygon fill="white" stroke="#666666" points="745,-316.38 667.5,-316.38 667.5,-295.62 745,-295.62 745,-316.38"/>
<text xml:space="preserve" text-anchor="middle" x="706.25" y="-302.88" font-family="Helvetica,sans-Serif" font-size="10.00">form_engine</text>
</a>
</g>
</g>
<!-- Node6&#45;&gt;Node16 -->
<g id="edge17_Node000006_Node000016" class="edge">
<title>Node6&#45;&gt;Node16</title>
<g id="a_edge17_Node000006_Node000016"><a xlink:title=" ">
<path fill="none" stroke="#63b8ff" d="M804.49,-172.56C780.65,-205.28 733.48,-270 714.97,-295.41"/>
<polygon fill="#63b8ff" stroke="#63b8ff" points="807.13,-174.88 810.19,-164.74 801.48,-170.76 807.13,-174.88"/>
</a>
</g>
</g>
<!-- Node19 -->
<g id="Node000019" class="node">
<title>Node19</title>
<g id="a_Node000019"><a xlink:href="../../dd/d52/a00221.html#ad997ba9f8591568c77291fb1b44601b2" target="_top" xlink:title="Display View Help File.">
<polygon fill="white" stroke="#666666" points="759.25,-202.38 653.25,-202.38 653.25,-181.62 759.25,-181.62 759.25,-202.38"/>
<text xml:space="preserve" text-anchor="middle" x="706.25" y="-188.88" font-family="Helvetica,sans-Serif" font-size="10.00">view_display_help</text>
</a>
</g>
</g>
<!-- Node6&#45;&gt;Node19 -->
<g id="edge24_Node000006_Node000019" class="edge">
<title>Node6&#45;&gt;Node19</title>
<g id="a_edge24_Node000006_Node000019"><a xlink:title=" ">
<path fill="none" stroke="#63b8ff" d="M784.16,-165.1C769.51,-170.22 752.58,-176.14 738.34,-181.13"/>
<polygon fill="#63b8ff" stroke="#63b8ff" points="785.12,-168.47 793.4,-161.87 782.81,-161.86 785.12,-168.47"/>
</a>
</g>
</g>
<!-- Node8 -->
<g id="Node000008" class="node">
<title>Node8</title>
<g id="a_Node000008"><a xlink:href="../../d0/d27/a00239.html#abb0969a6d1c7e78be46c3b325754c802" target="_top" xlink:title="Main loop to handle user input and interactions for pick interface.">
<polygon fill="white" stroke="#666666" points="609.75,-117.38 564.5,-117.38 564.5,-96.62 609.75,-96.62 609.75,-117.38"/>
<text xml:space="preserve" text-anchor="middle" x="587.12" y="-103.88" font-family="Helvetica,sans-Serif" font-size="10.00">picker</text>
</a>
</g>
</g>
<!-- Node7&#45;&gt;Node8 -->
<g id="edge7_Node000007_Node000008" class="edge">
<title>Node7&#45;&gt;Node8</title>
<g id="a_edge7_Node000007_Node000008"><a xlink:title=" ">
<path fill="none" stroke="#63b8ff" d="M643.17,-111.23C631.29,-110.32 619.6,-109.42 610.07,-108.69"/>
<polygon fill="#63b8ff" stroke="#63b8ff" points="642.81,-114.71 653.05,-111.99 643.35,-107.73 642.81,-114.71"/>
</a>
</g>
</g>
<!-- Node9 -->
<g id="Node000009" class="node">
<title>Node9</title>
<g id="a_Node000009"><a xlink:href="../../d0/d27/a00239.html#ab97dcab41017c5132f52b682437a151e" target="_top" xlink:title="Initializes pick interface, calculates window size and position, and enters picker loop.">
<polygon fill="white" stroke="#666666" points="521,-98.38 446.5,-98.38 446.5,-77.62 521,-77.62 521,-98.38"/>
<text xml:space="preserve" text-anchor="middle" x="483.75" y="-84.88" font-family="Helvetica,sans-Serif" font-size="10.00">pick_engine</text>
</a>
</g>
</g>
<!-- Node8&#45;&gt;Node9 -->
<g id="edge8_Node000008_Node000009" class="edge">
<title>Node8&#45;&gt;Node9</title>
<g id="a_edge8_Node000008_Node000009"><a xlink:title=" ">
<path fill="none" stroke="#63b8ff" d="M552.91,-100.77C542.84,-98.89 531.73,-96.81 521.45,-94.88"/>
<polygon fill="#63b8ff" stroke="#63b8ff" points="552.17,-104.2 562.64,-102.6 553.46,-97.32 552.17,-104.2"/>
</a>
</g>
</g>
<!-- Node9&#45;&gt;Node10 -->
<g id="edge9_Node000009_Node000010" class="edge">
<title>Node9&#45;&gt;Node10</title>
<g id="a_edge9_Node000009_Node000010"><a xlink:title=" ">
<path fill="none" stroke="#63b8ff" d="M434.66,-88C426.46,-88 418.18,-88 410.73,-88"/>
<polygon fill="#63b8ff" stroke="#63b8ff" points="434.61,-91.5 444.61,-88 434.61,-84.5 434.61,-91.5"/>
</a>
</g>
</g>
<!-- Node11 -->
<g id="Node000011" class="node">
<title>Node11</title>
<g id="a_Node000011"><a xlink:href="../../d2/dc8/a00242.html#a3c04138a5bfe5d72780bb7e82a18e627" target="_top" xlink:title=" ">
<polygon fill="white" stroke="#666666" points="276.38,-98.38 235.62,-98.38 235.62,-77.62 276.38,-77.62 276.38,-98.38"/>
<text xml:space="preserve" text-anchor="middle" x="256" y="-84.88" font-family="Helvetica,sans-Serif" font-size="10.00">main</text>
</a>
</g>
</g>
<!-- Node10&#45;&gt;Node11 -->
<g id="edge10_Node000010_Node000011" class="edge">
<title>Node10&#45;&gt;Node11</title>
<g id="a_edge10_Node000010_Node000011"><a xlink:title=" ">
<path fill="none" stroke="#63b8ff" d="M341.27,-88C319.64,-88 293.83,-88 276.52,-88"/>
<polygon fill="#63b8ff" stroke="#63b8ff" points="341.25,-91.5 351.25,-88 341.25,-84.5 341.25,-91.5"/>
</a>
</g>
</g>
<!-- Node10&#45;&gt;Node12 -->
<g id="edge11_Node000010_Node000012" class="edge">
<title>Node10&#45;&gt;Node12</title>
<g id="a_edge11_Node000010_Node000012"><a xlink:title=" ">
<path fill="none" stroke="#63b8ff" d="M353.75,-104.64C329.61,-119.45 295.01,-140.68 274.4,-153.33"/>
<polygon fill="#63b8ff" stroke="#63b8ff" points="355.41,-107.73 362.1,-99.52 351.75,-101.77 355.41,-107.73"/>
</a>
</g>
</g>
<!-- Node13 -->
<g id="Node000013" class="node">
<title>Node13</title>
<g id="a_Node000013"><a xlink:href="../../d9/d39/a00257.html#a7d7973d7aac92759dcc86ec52bb038f4" target="_top" xlink:title="The main loop of the menu system.">
<polygon fill="white" stroke="#666666" points="158.75,-174.38 76.75,-174.38 76.75,-153.62 158.75,-153.62 158.75,-174.38"/>
<text xml:space="preserve" text-anchor="middle" x="117.75" y="-160.88" font-family="Helvetica,sans-Serif" font-size="10.00">menu_engine</text>
</a>
</g>
</g>
<!-- Node12&#45;&gt;Node13 -->
<g id="edge12_Node000012_Node000013" class="edge">
<title>Node12&#45;&gt;Node13</title>
<g id="a_edge12_Node000012_Node000013"><a xlink:title=" ">
<path fill="none" stroke="#63b8ff" d="M183.2,-157.26C174.96,-157.3 166.79,-157.47 159.17,-157.77"/>
<polygon fill="#63b8ff" stroke="#63b8ff" points="182.92,-160.76 192.93,-157.28 182.94,-153.76 182.92,-160.76"/>
</a>
</g>
</g>
<!-- Node13&#45;&gt;Node12 -->
<g id="edge14_Node000013_Node000012" class="edge">
<title>Node13&#45;&gt;Node12</title>
<g id="a_edge14_Node000013_Node000012"><a xlink:title=" ">
<path fill="none" stroke="#63b8ff" d="M170.68,-170.58C178.45,-170.75 186.52,-170.79 194.45,-170.71"/>
<polygon fill="#63b8ff" stroke="#63b8ff" points="170.79,-167.08 160.69,-170.27 170.58,-174.08 170.79,-167.08"/>
</a>
</g>
</g>
<!-- Node14 -->
<g id="Node000014" class="node">
<title>Node14</title>
<g id="a_Node000014"><a xlink:href="../../dd/dd7/a00260.html#a3c04138a5bfe5d72780bb7e82a18e627" target="_top" xlink:title=" ">
<polygon fill="white" stroke="#666666" points="40.75,-174.38 0,-174.38 0,-153.62 40.75,-153.62 40.75,-174.38"/>
<text xml:space="preserve" text-anchor="middle" x="20.38" y="-160.88" font-family="Helvetica,sans-Serif" font-size="10.00">main</text>
</a>
</g>
</g>
<!-- Node13&#45;&gt;Node14 -->
<g id="edge13_Node000013_Node000014" class="edge">
<title>Node13&#45;&gt;Node14</title>
<g id="a_edge13_Node000013_Node000014"><a xlink:title=" ">
<path fill="none" stroke="#63b8ff" d="M64.79,-164C56.36,-164 48.1,-164 41.09,-164"/>
<polygon fill="#63b8ff" stroke="#63b8ff" points="64.79,-167.5 74.79,-164 64.79,-160.5 64.79,-167.5"/>
</a>
</g>
</g>
<!-- Node15&#45;&gt;Node9 -->
<g id="edge16_Node000015_Node000009" class="edge">
<title>Node15&#45;&gt;Node9</title>
<g id="a_edge16_Node000015_Node000009"><a xlink:title=" ">
<path fill="none" stroke="#63b8ff" d="M655.05,-49.38C614.33,-58.62 557.9,-71.41 521.35,-79.7"/>
<polygon fill="#63b8ff" stroke="#63b8ff" points="655.63,-52.84 664.61,-47.22 654.08,-46.01 655.63,-52.84"/>
</a>
</g>
</g>
<!-- Node17 -->
<g id="Node000017" class="node">
<title>Node17</title>
<g id="a_Node000017"><a xlink:href="../../d2/d04/a00281.html#abf1be20a8aad5f7ba09172ac1434a110" target="_top" xlink:title="Initialize form data structure and parse description file.">
<polygon fill="white" stroke="#666666" points="617.25,-297.38 557,-297.38 557,-276.62 617.25,-276.62 617.25,-297.38"/>
<text xml:space="preserve" text-anchor="middle" x="587.12" y="-283.88" font-family="Helvetica,sans-Serif" font-size="10.00">init_form</text>
</a>
</g>
</g>
<!-- Node16&#45;&gt;Node17 -->
<g id="edge18_Node000016_Node000017" class="edge">
<title>Node16&#45;&gt;Node17</title>
<g id="a_edge18_Node000016_Node000017"><a xlink:title=" ">
<path fill="none" stroke="#63b8ff" d="M655.94,-298C642.83,-295.87 629.09,-293.65 617.43,-291.75"/>
<polygon fill="#63b8ff" stroke="#63b8ff" points="655.3,-301.44 665.73,-299.59 656.42,-294.53 655.3,-301.44"/>
</a>
</g>
</g>
<!-- Node17&#45;&gt;Node2 -->
<g id="edge19_Node000017_Node000002" class="edge">
<title>Node17&#45;&gt;Node2</title>
<g id="a_edge19_Node000017_Node000002"><a xlink:title=" ">
<path fill="none" stroke="#63b8ff" d="M628.83,-281.61C674.84,-275.99 752.04,-268 818.75,-268 911.38,-268 911.38,-268 911.38,-268 1004.37,-268 1108.86,-223.68 1153.05,-202.73"/>
<polygon fill="#63b8ff" stroke="#63b8ff" points="628.54,-278.12 619.05,-282.83 629.41,-285.07 628.54,-278.12"/>
</a>
</g>
</g>
<!-- Node17&#45;&gt;Node12 -->
<g id="edge21_Node000017_Node000012" class="edge">
<title>Node17&#45;&gt;Node12</title>
<g id="a_edge21_Node000017_Node000012"><a xlink:title=" ">
<path fill="none" stroke="#63b8ff" d="M545.27,-285.67C497.22,-282.74 416.06,-273.42 353.25,-244 316.65,-226.86 282.42,-192.39 266.44,-174.83"/>
<polygon fill="#63b8ff" stroke="#63b8ff" points="545.05,-289.17 555.23,-286.21 545.43,-282.18 545.05,-289.17"/>
</a>
</g>
</g>
<!-- Node18 -->
<g id="Node000018" class="node">
<title>Node18</title>
<g id="a_Node000018"><a xlink:href="../../db/dc3/a00284.html#a3c04138a5bfe5d72780bb7e82a18e627" target="_top" xlink:title=" ">
<polygon fill="white" stroke="#666666" points="504.12,-316.38 463.38,-316.38 463.38,-295.62 504.12,-295.62 504.12,-316.38"/>
<text xml:space="preserve" text-anchor="middle" x="483.75" y="-302.88" font-family="Helvetica,sans-Serif" font-size="10.00">main</text>
</a>
</g>
</g>
<!-- Node17&#45;&gt;Node18 -->
<g id="edge20_Node000017_Node000018" class="edge">
<title>Node17&#45;&gt;Node18</title>
<g id="a_edge20_Node000017_Node000018"><a xlink:title=" ">
<path fill="none" stroke="#63b8ff" d="M545.54,-294.61C531.45,-297.25 516.26,-300.09 504.59,-302.28"/>
<polygon fill="#63b8ff" stroke="#63b8ff" points="545.86,-298.11 555.04,-292.83 544.57,-291.23 545.86,-298.11"/>
</a>
</g>
</g>
<!-- Node19&#45;&gt;Node3 -->
<g id="edge25_Node000019_Node000003" class="edge">
<title>Node19&#45;&gt;Node3</title>
<g id="a_edge25_Node000019_Node000003"><a xlink:title=" ">
<path fill="none" stroke="#63b8ff" d="M770.85,-192C830.41,-192 918.65,-192 976.37,-192"/>
<polygon fill="#63b8ff" stroke="#63b8ff" points="771.22,-188.5 761.22,-192 771.22,-195.5 771.22,-188.5"/>
</a>
</g>
</g>
<!-- Node20&#45;&gt;Node16 -->
<g id="edge28_Node000020_Node000016" class="edge">
<title>Node20&#45;&gt;Node16</title>
<g id="a_edge28_Node000020_Node000016"><a xlink:title=" ">
<path fill="none" stroke="#63b8ff" d="M979.22,-306C912.71,-306 802.83,-306 745.2,-306"/>
<polygon fill="#63b8ff" stroke="#63b8ff" points="979.19,-309.5 989.19,-306 979.19,-302.5 979.19,-309.5"/>
</a>
</g>
</g>
<!-- Node21&#45;&gt;Node4 -->
<g id="edge32_Node000021_Node000004" class="edge">
<title>Node21&#45;&gt;Node4</title>
<g id="a_edge32_Node000021_Node000004"><a xlink:title=" ">
<path fill="none" stroke="#63b8ff" d="M1119.08,-153C1064.65,-153 983.8,-153 940.78,-153"/>
<polygon fill="#63b8ff" stroke="#63b8ff" points="1118.75,-156.5 1128.75,-153 1118.75,-149.5 1118.75,-156.5"/>
</a>
</g>
</g>
</g>
</svg>

<g id="navigator" transform="translate(0 0)" fill="#404254">
  <rect fill="#f2f5e9" fill-opacity="0.5" stroke="#606060" stroke-width=".5" x="0" y="0" width="60" height="60"/>
  <use id="zoomplus" xlink:href="#zoomPlus" x="17" y="9" onmousedown="handleZoom(evt,'in')"/>
  <use id="zoomminus" xlink:href="#zoomMin" x="42" y="9" onmousedown="handleZoom(evt,'out')"/>
  <use id="reset" xlink:href="#resetDef" x="30" y="36" onmousedown="handleReset()"/>
   <use id="arrowup" xlink:href="#arrowUp" x="0" y="0" onmousedown="handlePan(0,-1)"/>
  <use id="arrowright" xlink:href="#arrowRight" x="0" y="0" onmousedown="handlePan(1,0)"/>
  <use id="arrowdown" xlink:href="#arrowDown" x="0" y="0" onmousedown="handlePan(0,1)"/>
  <use id="arrowleft" xlink:href="#arrowLeft" x="0" y="0" onmousedown="handlePan(-1,0)"/>
</g>
<svg viewBox="0 0 15 15" width="100%" height="30px" preserveAspectRatio="xMaxYMin meet">
 <g id="arrow_out" transform="scale(0.3 0.3)">
  <a xlink:href="a00278_af717756d0ca49bc436d1fb69ae0d6c05_icgraph_org.svg" target="_base">
   <rect id="button" ry="5" rx="5" y="6" x="6" height="38" width="38"
        fill="#f2f5e9" fill-opacity="0.5" stroke="#606060" stroke-width="1.0"/>
   <path id="arrow"
     d="M 11.500037,31.436501 C 11.940474,20.09759 22.043105,11.32322 32.158766,21.979434 L 37.068811,17.246167 C 37.068811,17.246167 37.088388,32 37.088388,32 L 22.160133,31.978069 C 22.160133,31.978069 26.997745,27.140456 26.997745,27.140456 C 18.528582,18.264221 13.291696,25.230495 11.500037,31.436501 z"
     style="fill:#404040;"/>
  </a>
 </g>
</svg>

<style type='text/css'>
<![CDATA[
[data-mouse-over-selected='false'] { opacity: 0.7; }
[data-mouse-over-selected='true']  { opacity: 1.0; }
]]>
</style>
<script type="application/ecmascript"><![CDATA[
document.addEventListener('DOMContentLoaded', (event) => {
  highlightEdges();
  highlightAdjacentNodes();
});
]]></script>
</svg>
