<?xml version="1.0" encoding="UTF-8" standalone="no"?>
<!DOCTYPE svg PUBLIC "-//W3C//DTD SVG 1.1//EN"
 "http://www.w3.org/Graphics/SVG/1.1/DTD/svg11.dtd">
<!-- Generated by graphviz version 14.1.2 (0)
 -->
<!-- Title: optsp.c Pages: 1 -->
<svg width="413pt" height="86pt"
 viewBox="0.00 0.00 413.00 86.00" xmlns="http://www.w3.org/2000/svg" xmlns:xlink="http://www.w3.org/1999/xlink">
<g id="graph0" class="graph" transform="scale(1 1) rotate(0) translate(4 81.5)">
<title>optsp.c</title>
<!-- Node1 -->
<g id="Node000001" class="node">
<title>Node1</title>
<g id="a_Node000001"><a xlink:title="print option list for C&#45;Menu">
<polygon fill="#999999" stroke="#666666" points="224.62,-77.5 173.38,-77.5 173.38,-56.75 224.62,-56.75 224.62,-77.5"/>
<text xml:space="preserve" text-anchor="middle" x="199" y="-64" font-family="Helvetica,sans-Serif" font-size="10.00">optsp.c</text>
</a>
</g>
</g>
<!-- Node2 -->
<g id="Node000002" class="node">
<title>Node2</title>
<g id="a_Node000002"><a xlink:title=" ">
<polygon fill="#e0e0e0" stroke="#999999" points="40,-20.75 0,-20.75 0,0 40,0 40,-20.75"/>
<text xml:space="preserve" text-anchor="middle" x="20" y="-7.25" font-family="Helvetica,sans-Serif" font-size="10.00">cm.h</text>
</a>
</g>
</g>
<!-- Node1&#45;&gt;Node2 -->
<g id="edge1_Node000001_Node000002" class="edge">
<title>Node1&#45;&gt;Node2</title>
<g id="a_edge1_Node000001_Node000002"><a xlink:title=" ">
<path fill="none" stroke="#63b8ff" d="M172.94,-58.4C145.09,-50.12 99.38,-36.42 51.23,-21.41"/>
<polygon fill="#63b8ff" stroke="#63b8ff" points="52.3,-18.08 41.71,-18.43 50.21,-24.76 52.3,-18.08"/>
</a>
</g>
</g>
<!-- Node3 -->
<g id="Node000003" class="node">
<title>Node3</title>
<g id="a_Node000003"><a xlink:title=" ">
<polygon fill="#e0e0e0" stroke="#999999" points="114.25,-20.75 57.75,-20.75 57.75,0 114.25,0 114.25,-20.75"/>
<text xml:space="preserve" text-anchor="middle" x="86" y="-7.25" font-family="Helvetica,sans-Serif" font-size="10.00">getopt.h</text>
</a>
</g>
</g>
<!-- Node1&#45;&gt;Node3 -->
<g id="edge2_Node000001_Node000003" class="edge">
<title>Node1&#45;&gt;Node3</title>
<g id="a_edge2_Node000001_Node000003"><a xlink:title=" ">
<path fill="none" stroke="#63b8ff" d="M178.8,-56.34C161.44,-47.93 136.17,-35.68 116.37,-26.09"/>
<polygon fill="#63b8ff" stroke="#63b8ff" points="117.91,-22.95 107.39,-21.74 114.86,-29.25 117.91,-22.95"/>
</a>
</g>
</g>
<!-- Node4 -->
<g id="Node000004" class="node">
<title>Node4</title>
<g id="a_Node000004"><a xlink:title=" ">
<polygon fill="#e0e0e0" stroke="#999999" points="193.5,-20.75 132.5,-20.75 132.5,0 193.5,0 193.5,-20.75"/>
<text xml:space="preserve" text-anchor="middle" x="163" y="-7.25" font-family="Helvetica,sans-Serif" font-size="10.00">stdbool.h</text>
</a>
</g>
</g>
<!-- Node1&#45;&gt;Node4 -->
<g id="edge3_Node000001_Node000004" class="edge">
<title>Node1&#45;&gt;Node4</title>
<g id="a_edge3_Node000001_Node000004"><a xlink:title=" ">
<path fill="none" stroke="#63b8ff" d="M192.56,-56.34C187.85,-49.17 181.31,-39.23 175.58,-30.51"/>
<polygon fill="#63b8ff" stroke="#63b8ff" points="178.63,-28.78 170.21,-22.34 172.78,-32.62 178.63,-28.78"/>
</a>
</g>
</g>
<!-- Node5 -->
<g id="Node000005" class="node">
<title>Node5</title>
<g id="a_Node000005"><a xlink:title=" ">
<polygon fill="#e0e0e0" stroke="#999999" points="260.5,-20.75 211.5,-20.75 211.5,0 260.5,0 260.5,-20.75"/>
<text xml:space="preserve" text-anchor="middle" x="236" y="-7.25" font-family="Helvetica,sans-Serif" font-size="10.00">stdio.h</text>
</a>
</g>
</g>
<!-- Node1&#45;&gt;Node5 -->
<g id="edge4_Node000001_Node000005" class="edge">
<title>Node1&#45;&gt;Node5</title>
<g id="a_edge4_Node000001_Node000005"><a xlink:title=" ">
<path fill="none" stroke="#63b8ff" d="M205.61,-56.34C210.46,-49.17 217.18,-39.23 223.07,-30.51"/>
<polygon fill="#63b8ff" stroke="#63b8ff" points="225.9,-32.58 228.59,-22.33 220.1,-28.66 225.9,-32.58"/>
</a>
</g>
</g>
<!-- Node6 -->
<g id="Node000006" class="node">
<title>Node6</title>
<g id="a_Node000006"><a xlink:title=" ">
<polygon fill="#e0e0e0" stroke="#999999" points="331,-20.75 279,-20.75 279,0 331,0 331,-20.75"/>
<text xml:space="preserve" text-anchor="middle" x="305" y="-7.25" font-family="Helvetica,sans-Serif" font-size="10.00">stdlib.h</text>
</a>
</g>
</g>
<!-- Node1&#45;&gt;Node6 -->
<g id="edge5_Node000001_Node000006" class="edge">
<title>Node1&#45;&gt;Node6</title>
<g id="a_edge5_Node000001_Node000006"><a xlink:title=" ">
<path fill="none" stroke="#63b8ff" d="M217.95,-56.34C234.08,-48.01 257.5,-35.91 275.99,-26.36"/>
<polygon fill="#63b8ff" stroke="#63b8ff" points="277.59,-29.47 284.87,-21.77 274.38,-23.25 277.59,-29.47"/>
</a>
</g>
</g>
<!-- Node7 -->
<g id="Node000007" class="node">
<title>Node7</title>
<g id="a_Node000007"><a xlink:title=" ">
<polygon fill="#e0e0e0" stroke="#999999" points="404.5,-20.75 349.5,-20.75 349.5,0 404.5,0 404.5,-20.75"/>
<text xml:space="preserve" text-anchor="middle" x="377" y="-7.25" font-family="Helvetica,sans-Serif" font-size="10.00">unistd.h</text>
</a>
</g>
</g>
<!-- Node1&#45;&gt;Node7 -->
<g id="edge6_Node000001_Node000007" class="edge">
<title>Node1&#45;&gt;Node7</title>
<g id="a_edge6_Node000001_Node000007"><a xlink:title=" ">
<path fill="none" stroke="#63b8ff" d="M224.88,-58.16C254.73,-48.98 304.08,-33.81 338.44,-23.23"/>
<polygon fill="#63b8ff" stroke="#63b8ff" points="339.05,-26.71 347.58,-20.42 337,-20.02 339.05,-26.71"/>
</a>
</g>
</g>
</g>
</svg>
