<?xml version="1.0" encoding="UTF-8" standalone="no"?>
<!DOCTYPE svg PUBLIC "-//W3C//DTD SVG 1.1//EN"
 "http://www.w3.org/Graphics/SVG/1.1/DTD/svg11.dtd">
<!-- Generated by graphviz version 14.1.2 (0)
 -->
<!-- Title: enterchr.c Pages: 1 -->
<svg width="715pt" height="142pt"
 viewBox="0.00 0.00 715.00 142.00" xmlns="http://www.w3.org/2000/svg" xmlns:xlink="http://www.w3.org/1999/xlink">
<g id="graph0" class="graph" transform="scale(1 1) rotate(0) translate(4 138.25)">
<title>enterchr.c</title>
<!-- Node1 -->
<g id="Node000001" class="node">
<title>Node1</title>
<g id="a_Node000001"><a xlink:title="Enter a single character from keyboard.">
<polygon fill="#999999" stroke="#666666" points="475.88,-134.25 411.12,-134.25 411.12,-113.5 475.88,-113.5 475.88,-134.25"/>
<text xml:space="preserve" text-anchor="middle" x="443.5" y="-120.75" font-family="Helvetica,sans-Serif" font-size="10.00">enterchr.c</text>
</a>
</g>
</g>
<!-- Node2 -->
<g id="Node000002" class="node">
<title>Node2</title>
<g id="a_Node000002"><a xlink:href="../../d8/d23/a00326.html" target="_top" xlink:title="Headder for C&#45;Menu API library, libcm.so.">
<polygon fill="white" stroke="#666666" points="255.5,-77.5 215.5,-77.5 215.5,-56.75 255.5,-56.75 255.5,-77.5"/>
<text xml:space="preserve" text-anchor="middle" x="235.5" y="-64" font-family="Helvetica,sans-Serif" font-size="10.00">cm.h</text>
</a>
</g>
</g>
<!-- Node1&#45;&gt;Node2 -->
<g id="edge1_Node000001_Node000002" class="edge">
<title>Node1&#45;&gt;Node2</title>
<g id="a_edge1_Node000001_Node000002"><a xlink:title=" ">
<path fill="none" stroke="#63b8ff" d="M410.67,-115.22C376.82,-107.19 322.29,-93.84 266.52,-77.95"/>
<polygon fill="#63b8ff" stroke="#63b8ff" points="267.76,-74.67 257.19,-75.27 265.83,-81.39 267.76,-74.67"/>
</a>
</g>
</g>
<!-- Node8 -->
<g id="Node000008" class="node">
<title>Node8</title>
<g id="a_Node000008"><a xlink:title=" ">
<polygon fill="#e0e0e0" stroke="#999999" points="319.88,-77.5 273.12,-77.5 273.12,-56.75 319.88,-56.75 319.88,-77.5"/>
<text xml:space="preserve" text-anchor="middle" x="296.5" y="-64" font-family="Helvetica,sans-Serif" font-size="10.00">fcntl.h</text>
</a>
</g>
</g>
<!-- Node1&#45;&gt;Node8 -->
<g id="edge7_Node000001_Node000008" class="edge">
<title>Node1&#45;&gt;Node8</title>
<g id="a_edge7_Node000001_Node000008"><a xlink:title=" ">
<path fill="none" stroke="#63b8ff" d="M417.22,-113.09C393.08,-104.1 357.17,-90.72 330.79,-80.9"/>
<polygon fill="#63b8ff" stroke="#63b8ff" points="332.14,-77.66 321.54,-77.45 329.69,-84.22 332.14,-77.66"/>
</a>
</g>
</g>
<!-- Node9 -->
<g id="Node000009" class="node">
<title>Node9</title>
<g id="a_Node000009"><a xlink:title=" ">
<polygon fill="#e0e0e0" stroke="#999999" points="399,-77.5 338,-77.5 338,-56.75 399,-56.75 399,-77.5"/>
<text xml:space="preserve" text-anchor="middle" x="368.5" y="-64" font-family="Helvetica,sans-Serif" font-size="10.00">stdbool.h</text>
</a>
</g>
</g>
<!-- Node1&#45;&gt;Node9 -->
<g id="edge8_Node000001_Node000009" class="edge">
<title>Node1&#45;&gt;Node9</title>
<g id="a_edge8_Node000001_Node000009"><a xlink:title=" ">
<path fill="none" stroke="#63b8ff" d="M430.09,-113.09C419.21,-105.15 403.64,-93.78 390.88,-84.46"/>
<polygon fill="#63b8ff" stroke="#63b8ff" points="393.16,-81.79 383.01,-78.72 389.03,-87.44 393.16,-81.79"/>
</a>
</g>
</g>
<!-- Node10 -->
<g id="Node000010" class="node">
<title>Node10</title>
<g id="a_Node000010"><a xlink:title=" ">
<polygon fill="#e0e0e0" stroke="#999999" points="469.88,-77.5 417.12,-77.5 417.12,-56.75 469.88,-56.75 469.88,-77.5"/>
<text xml:space="preserve" text-anchor="middle" x="443.5" y="-64" font-family="Helvetica,sans-Serif" font-size="10.00">string.h</text>
</a>
</g>
</g>
<!-- Node1&#45;&gt;Node10 -->
<g id="edge9_Node000001_Node000010" class="edge">
<title>Node1&#45;&gt;Node10</title>
<g id="a_edge9_Node000001_Node000010"><a xlink:title=" ">
<path fill="none" stroke="#63b8ff" d="M443.5,-113.09C443.5,-106.47 443.5,-97.47 443.5,-89.27"/>
<polygon fill="#63b8ff" stroke="#63b8ff" points="447,-89.34 443.5,-79.34 440,-89.34 447,-89.34"/>
</a>
</g>
</g>
<!-- Node11 -->
<g id="Node000011" class="node">
<title>Node11</title>
<g id="a_Node000011"><a xlink:title=" ">
<polygon fill="#e0e0e0" stroke="#999999" points="553.25,-77.5 487.75,-77.5 487.75,-56.75 553.25,-56.75 553.25,-77.5"/>
<text xml:space="preserve" text-anchor="middle" x="520.5" y="-64" font-family="Helvetica,sans-Serif" font-size="10.00">sys/ioctl.h</text>
</a>
</g>
</g>
<!-- Node1&#45;&gt;Node11 -->
<g id="edge10_Node000001_Node000011" class="edge">
<title>Node1&#45;&gt;Node11</title>
<g id="a_edge10_Node000001_Node000011"><a xlink:title=" ">
<path fill="none" stroke="#63b8ff" d="M457.27,-113.09C468.43,-105.15 484.42,-93.78 497.52,-84.46"/>
<polygon fill="#63b8ff" stroke="#63b8ff" points="499.5,-87.35 505.62,-78.71 495.44,-81.65 499.5,-87.35"/>
</a>
</g>
</g>
<!-- Node12 -->
<g id="Node000012" class="node">
<title>Node12</title>
<g id="a_Node000012"><a xlink:title=" ">
<polygon fill="#e0e0e0" stroke="#999999" points="633.75,-77.5 571.25,-77.5 571.25,-56.75 633.75,-56.75 633.75,-77.5"/>
<text xml:space="preserve" text-anchor="middle" x="602.5" y="-64" font-family="Helvetica,sans-Serif" font-size="10.00">termios.h</text>
</a>
</g>
</g>
<!-- Node1&#45;&gt;Node12 -->
<g id="edge11_Node000001_Node000012" class="edge">
<title>Node1&#45;&gt;Node12</title>
<g id="a_edge11_Node000001_Node000012"><a xlink:title=" ">
<path fill="none" stroke="#63b8ff" d="M471.93,-113.09C497.4,-104.32 535,-91.37 563.32,-81.62"/>
<polygon fill="#63b8ff" stroke="#63b8ff" points="564.31,-84.98 572.62,-78.41 562.03,-78.36 564.31,-84.98"/>
</a>
</g>
</g>
<!-- Node13 -->
<g id="Node000013" class="node">
<title>Node13</title>
<g id="a_Node000013"><a xlink:title=" ">
<polygon fill="#e0e0e0" stroke="#999999" points="707,-77.5 652,-77.5 652,-56.75 707,-56.75 707,-77.5"/>
<text xml:space="preserve" text-anchor="middle" x="679.5" y="-64" font-family="Helvetica,sans-Serif" font-size="10.00">unistd.h</text>
</a>
</g>
</g>
<!-- Node1&#45;&gt;Node13 -->
<g id="edge12_Node000001_Node000013" class="edge">
<title>Node1&#45;&gt;Node13</title>
<g id="a_edge12_Node000001_Node000013"><a xlink:title=" ">
<path fill="none" stroke="#63b8ff" d="M476.3,-115.65C513.64,-107.37 576.72,-93.21 640.56,-77.92"/>
<polygon fill="#63b8ff" stroke="#63b8ff" points="641.26,-81.35 650.17,-75.61 639.62,-74.55 641.26,-81.35"/>
</a>
</g>
</g>
<!-- Node3 -->
<g id="Node000003" class="node">
<title>Node3</title>
<g id="a_Node000003"><a xlink:href="../../d1/d5d/a00311.html" target="_top" xlink:title=" ">
<polygon fill="white" stroke="#666666" points="61,-20.75 0,-20.75 0,0 61,0 61,-20.75"/>
<text xml:space="preserve" text-anchor="middle" x="30.5" y="-7.25" font-family="Helvetica,sans-Serif" font-size="10.00">version.h</text>
</a>
</g>
</g>
<!-- Node2&#45;&gt;Node3 -->
<g id="edge2_Node000002_Node000003" class="edge">
<title>Node2&#45;&gt;Node3</title>
<g id="a_edge2_Node000002_Node000003"><a xlink:title=" ">
<path fill="none" stroke="#63b8ff" d="M215.09,-60.68C182,-51.84 115.95,-34.2 72.49,-22.59"/>
<polygon fill="#63b8ff" stroke="#63b8ff" points="73.45,-19.22 62.89,-20.03 71.65,-25.99 73.45,-19.22"/>
</a>
</g>
</g>
<!-- Node4 -->
<g id="Node000004" class="node">
<title>Node4</title>
<g id="a_Node000004"><a xlink:title=" ">
<polygon fill="#e0e0e0" stroke="#999999" points="190.12,-20.75 78.88,-20.75 78.88,0 190.12,0 190.12,-20.75"/>
<text xml:space="preserve" text-anchor="middle" x="134.5" y="-7.25" font-family="Helvetica,sans-Serif" font-size="10.00">ncursesw/ncurses.h</text>
</a>
</g>
</g>
<!-- Node2&#45;&gt;Node4 -->
<g id="edge3_Node000002_Node000004" class="edge">
<title>Node2&#45;&gt;Node4</title>
<g id="a_edge3_Node000002_Node000004"><a xlink:title=" ">
<path fill="none" stroke="#63b8ff" d="M217.44,-56.34C202.08,-48.01 179.76,-35.91 162.14,-26.36"/>
<polygon fill="#63b8ff" stroke="#63b8ff" points="164.19,-23.49 153.73,-21.8 160.85,-29.64 164.19,-23.49"/>
</a>
</g>
</g>
<!-- Node5 -->
<g id="Node000005" class="node">
<title>Node5</title>
<g id="a_Node000005"><a xlink:title=" ">
<polygon fill="#e0e0e0" stroke="#999999" points="262.62,-20.75 208.38,-20.75 208.38,0 262.62,0 262.62,-20.75"/>
<text xml:space="preserve" text-anchor="middle" x="235.5" y="-7.25" font-family="Helvetica,sans-Serif" font-size="10.00">signal.h</text>
</a>
</g>
</g>
<!-- Node2&#45;&gt;Node5 -->
<g id="edge4_Node000002_Node000005" class="edge">
<title>Node2&#45;&gt;Node5</title>
<g id="a_edge4_Node000002_Node000005"><a xlink:title=" ">
<path fill="none" stroke="#63b8ff" d="M235.5,-56.34C235.5,-49.72 235.5,-40.72 235.5,-32.52"/>
<polygon fill="#63b8ff" stroke="#63b8ff" points="239,-32.59 235.5,-22.59 232,-32.59 239,-32.59"/>
</a>
</g>
</g>
<!-- Node6 -->
<g id="Node000006" class="node">
<title>Node6</title>
<g id="a_Node000006"><a xlink:title=" ">
<polygon fill="#e0e0e0" stroke="#999999" points="336,-20.75 281,-20.75 281,0 336,0 336,-20.75"/>
<text xml:space="preserve" text-anchor="middle" x="308.5" y="-7.25" font-family="Helvetica,sans-Serif" font-size="10.00">stddef.h</text>
</a>
</g>
</g>
<!-- Node2&#45;&gt;Node6 -->
<g id="edge5_Node000002_Node000006" class="edge">
<title>Node2&#45;&gt;Node6</title>
<g id="a_edge5_Node000002_Node000006"><a xlink:title=" ">
<path fill="none" stroke="#63b8ff" d="M248.55,-56.34C259.14,-48.4 274.29,-37.03 286.72,-27.71"/>
<polygon fill="#63b8ff" stroke="#63b8ff" points="288.45,-30.79 294.35,-21.99 284.25,-25.19 288.45,-30.79"/>
</a>
</g>
</g>
<!-- Node7 -->
<g id="Node000007" class="node">
<title>Node7</title>
<g id="a_Node000007"><a xlink:title=" ">
<polygon fill="#e0e0e0" stroke="#999999" points="406.5,-20.75 354.5,-20.75 354.5,0 406.5,0 406.5,-20.75"/>
<text xml:space="preserve" text-anchor="middle" x="380.5" y="-7.25" font-family="Helvetica,sans-Serif" font-size="10.00">stdlib.h</text>
</a>
</g>
</g>
<!-- Node2&#45;&gt;Node7 -->
<g id="edge6_Node000002_Node000007" class="edge">
<title>Node2&#45;&gt;Node7</title>
<g id="a_edge6_Node000002_Node000007"><a xlink:title=" ">
<path fill="none" stroke="#63b8ff" d="M255.97,-58.4C278.78,-49.78 316.12,-35.69 343.97,-25.17"/>
<polygon fill="#63b8ff" stroke="#63b8ff" points="344.97,-28.53 353.09,-21.73 342.49,-21.98 344.97,-28.53"/>
</a>
</g>
</g>
</g>
</svg>
