<?xml version="1.0" encoding="UTF-8" standalone="no"?>
<!DOCTYPE svg PUBLIC "-//W3C//DTD SVG 1.1//EN"
 "http://www.w3.org/Graphics/SVG/1.1/DTD/svg11.dtd">
<!-- Generated by graphviz version 14.1.2 (0)
 -->
<!-- Title: fields.c Pages: 1 -->
<svg width="608pt" height="86pt"
 viewBox="0.00 0.00 608.00 86.00" xmlns="http://www.w3.org/2000/svg" xmlns:xlink="http://www.w3.org/1999/xlink">
<g id="graph0" class="graph" transform="scale(1 1) rotate(0) translate(4 81.5)">
<title>fields.c</title>
<!-- Node1 -->
<g id="Node000001" class="node">
<title>Node1</title>
<g id="a_Node000001"><a xlink:title="Field Edit and Entry for C&#45;Menu Form.">
<polygon fill="#999999" stroke="#666666" points="341.5,-77.5 290.25,-77.5 290.25,-56.75 341.5,-56.75 341.5,-77.5"/>
<text xml:space="preserve" text-anchor="middle" x="315.88" y="-64" font-family="Helvetica,sans-Serif" font-size="10.00">fields.c</text>
</a>
</g>
</g>
<!-- Node2 -->
<g id="Node000002" class="node">
<title>Node2</title>
<g id="a_Node000002"><a xlink:title=" ">
<polygon fill="#e0e0e0" stroke="#999999" points="67.75,-20.75 0,-20.75 0,0 67.75,0 67.75,-20.75"/>
<text xml:space="preserve" text-anchor="middle" x="33.88" y="-7.25" font-family="Helvetica,sans-Serif" font-size="10.00">common.h</text>
</a>
</g>
</g>
<!-- Node1&#45;&gt;Node2 -->
<g id="edge1_Node000001_Node000002" class="edge">
<title>Node1&#45;&gt;Node2</title>
<g id="a_edge1_Node000001_Node000002"><a xlink:title=" ">
<path fill="none" stroke="#63b8ff" d="M290.01,-61.45C248,-53.81 162.07,-37.97 79.26,-21.19"/>
<polygon fill="#63b8ff" stroke="#63b8ff" points="80.11,-17.8 69.61,-19.23 78.71,-24.65 80.11,-17.8"/>
</a>
</g>
</g>
<!-- Node3 -->
<g id="Node000003" class="node">
<title>Node3</title>
<g id="a_Node000003"><a xlink:title=" ">
<polygon fill="#e0e0e0" stroke="#999999" points="156.25,-20.75 85.5,-20.75 85.5,0 156.25,0 156.25,-20.75"/>
<text xml:space="preserve" text-anchor="middle" x="120.88" y="-7.25" font-family="Helvetica,sans-Serif" font-size="10.00">monetary.h</text>
</a>
</g>
</g>
<!-- Node1&#45;&gt;Node3 -->
<g id="edge2_Node000001_Node000003" class="edge">
<title>Node1&#45;&gt;Node3</title>
<g id="a_edge2_Node000001_Node000003"><a xlink:title=" ">
<path fill="none" stroke="#63b8ff" d="M289.98,-58.85C258.58,-50.04 205.1,-35.02 166.68,-24.24"/>
<polygon fill="#63b8ff" stroke="#63b8ff" points="167.81,-20.92 157.24,-21.58 165.92,-27.66 167.81,-20.92"/>
</a>
</g>
</g>
<!-- Node4 -->
<g id="Node000004" class="node">
<title>Node4</title>
<g id="a_Node000004"><a xlink:title=" ">
<polygon fill="#e0e0e0" stroke="#999999" points="235.38,-20.75 174.38,-20.75 174.38,0 235.38,0 235.38,-20.75"/>
<text xml:space="preserve" text-anchor="middle" x="204.88" y="-7.25" font-family="Helvetica,sans-Serif" font-size="10.00">stdbool.h</text>
</a>
</g>
</g>
<!-- Node1&#45;&gt;Node4 -->
<g id="edge3_Node000001_Node000004" class="edge">
<title>Node1&#45;&gt;Node4</title>
<g id="a_edge3_Node000001_Node000004"><a xlink:title=" ">
<path fill="none" stroke="#63b8ff" d="M296.03,-56.34C278.98,-47.93 254.15,-35.68 234.71,-26.09"/>
<polygon fill="#63b8ff" stroke="#63b8ff" points="236.42,-23.03 225.91,-21.75 233.33,-29.31 236.42,-23.03"/>
</a>
</g>
</g>
<!-- Node5 -->
<g id="Node000005" class="node">
<title>Node5</title>
<g id="a_Node000005"><a xlink:title=" ">
<polygon fill="#e0e0e0" stroke="#999999" points="308.38,-20.75 253.38,-20.75 253.38,0 308.38,0 308.38,-20.75"/>
<text xml:space="preserve" text-anchor="middle" x="280.88" y="-7.25" font-family="Helvetica,sans-Serif" font-size="10.00">stddef.h</text>
</a>
</g>
</g>
<!-- Node1&#45;&gt;Node5 -->
<g id="edge4_Node000001_Node000005" class="edge">
<title>Node1&#45;&gt;Node5</title>
<g id="a_edge4_Node000001_Node000005"><a xlink:title=" ">
<path fill="none" stroke="#63b8ff" d="M309.62,-56.34C305.04,-49.17 298.68,-39.23 293.11,-30.51"/>
<polygon fill="#63b8ff" stroke="#63b8ff" points="296.23,-28.89 287.89,-22.35 290.33,-32.66 296.23,-28.89"/>
</a>
</g>
</g>
<!-- Node6 -->
<g id="Node000006" class="node">
<title>Node6</title>
<g id="a_Node000006"><a xlink:title=" ">
<polygon fill="#e0e0e0" stroke="#999999" points="375.38,-20.75 326.38,-20.75 326.38,0 375.38,0 375.38,-20.75"/>
<text xml:space="preserve" text-anchor="middle" x="350.88" y="-7.25" font-family="Helvetica,sans-Serif" font-size="10.00">stdio.h</text>
</a>
</g>
</g>
<!-- Node1&#45;&gt;Node6 -->
<g id="edge5_Node000001_Node000006" class="edge">
<title>Node1&#45;&gt;Node6</title>
<g id="a_edge5_Node000001_Node000006"><a xlink:title=" ">
<path fill="none" stroke="#63b8ff" d="M322.13,-56.34C326.71,-49.17 333.07,-39.23 338.64,-30.51"/>
<polygon fill="#63b8ff" stroke="#63b8ff" points="341.42,-32.66 343.86,-22.35 335.52,-28.89 341.42,-32.66"/>
</a>
</g>
</g>
<!-- Node7 -->
<g id="Node000007" class="node">
<title>Node7</title>
<g id="a_Node000007"><a xlink:title=" ">
<polygon fill="#e0e0e0" stroke="#999999" points="446.25,-20.75 393.5,-20.75 393.5,0 446.25,0 446.25,-20.75"/>
<text xml:space="preserve" text-anchor="middle" x="419.88" y="-7.25" font-family="Helvetica,sans-Serif" font-size="10.00">string.h</text>
</a>
</g>
</g>
<!-- Node1&#45;&gt;Node7 -->
<g id="edge6_Node000001_Node000007" class="edge">
<title>Node1&#45;&gt;Node7</title>
<g id="a_edge6_Node000001_Node000007"><a xlink:title=" ">
<path fill="none" stroke="#63b8ff" d="M334.47,-56.34C350.29,-48.01 373.27,-35.91 391.41,-26.36"/>
<polygon fill="#63b8ff" stroke="#63b8ff" points="392.89,-29.54 400.1,-21.78 389.62,-23.34 392.89,-29.54"/>
</a>
</g>
</g>
<!-- Node8 -->
<g id="Node000008" class="node">
<title>Node8</title>
<g id="a_Node000008"><a xlink:title=" ">
<polygon fill="#e0e0e0" stroke="#999999" points="527.12,-20.75 464.62,-20.75 464.62,0 527.12,0 527.12,-20.75"/>
<text xml:space="preserve" text-anchor="middle" x="495.88" y="-7.25" font-family="Helvetica,sans-Serif" font-size="10.00">termios.h</text>
</a>
</g>
</g>
<!-- Node1&#45;&gt;Node8 -->
<g id="edge7_Node000001_Node000008" class="edge">
<title>Node1&#45;&gt;Node8</title>
<g id="a_edge7_Node000001_Node000008"><a xlink:title=" ">
<path fill="none" stroke="#63b8ff" d="M341.66,-58.28C370.87,-49.4 418.91,-34.78 453.62,-24.23"/>
<polygon fill="#63b8ff" stroke="#63b8ff" points="454.38,-27.65 462.93,-21.4 452.34,-20.96 454.38,-27.65"/>
</a>
</g>
</g>
<!-- Node9 -->
<g id="Node000009" class="node">
<title>Node9</title>
<g id="a_Node000009"><a xlink:title=" ">
<polygon fill="#e0e0e0" stroke="#999999" points="600.38,-20.75 545.38,-20.75 545.38,0 600.38,0 600.38,-20.75"/>
<text xml:space="preserve" text-anchor="middle" x="572.88" y="-7.25" font-family="Helvetica,sans-Serif" font-size="10.00">unistd.h</text>
</a>
</g>
</g>
<!-- Node1&#45;&gt;Node9 -->
<g id="edge8_Node000001_Node000009" class="edge">
<title>Node1&#45;&gt;Node9</title>
<g id="a_edge8_Node000001_Node000009"><a xlink:title=" ">
<path fill="none" stroke="#63b8ff" d="M341.7,-61.19C380.95,-53.6 458.24,-38.33 533.88,-21.13"/>
<polygon fill="#63b8ff" stroke="#63b8ff" points="534.59,-24.56 543.55,-18.91 533.02,-17.73 534.59,-24.56"/>
</a>
</g>
</g>
</g>
</svg>
