<?xml version="1.0" encoding="UTF-8" standalone="no"?>
<!DOCTYPE svg PUBLIC "-//W3C//DTD SVG 1.1//EN"
 "http://www.w3.org/Graphics/SVG/1.1/DTD/svg11.dtd">
<!-- Generated by graphviz version 14.1.2 (0)
 -->
<!-- Title: scriou.c Pages: 1 -->
<svg width="349pt" height="86pt"
 viewBox="0.00 0.00 349.00 86.00" xmlns="http://www.w3.org/2000/svg" xmlns:xlink="http://www.w3.org/1999/xlink">
<g id="graph0" class="graph" transform="scale(1 1) rotate(0) translate(4 81.5)">
<title>scriou.c</title>
<!-- Node1 -->
<g id="Node000001" class="node">
<title>Node1</title>
<g id="a_Node000001"><a xlink:title="Screen IO Support for MENU.">
<polygon fill="#999999" stroke="#666666" points="188.75,-77.5 135.25,-77.5 135.25,-56.75 188.75,-56.75 188.75,-77.5"/>
<text xml:space="preserve" text-anchor="middle" x="162" y="-64" font-family="Helvetica,sans-Serif" font-size="10.00">scriou.c</text>
</a>
</g>
</g>
<!-- Node2 -->
<g id="Node000002" class="node">
<title>Node2</title>
<g id="a_Node000002"><a xlink:title=" ">
<polygon fill="#e0e0e0" stroke="#999999" points="40,-20.75 0,-20.75 0,0 40,0 40,-20.75"/>
<text xml:space="preserve" text-anchor="middle" x="20" y="-7.25" font-family="Helvetica,sans-Serif" font-size="10.00">cm.h</text>
</a>
</g>
</g>
<!-- Node1&#45;&gt;Node2 -->
<g id="edge1_Node000001_Node000002" class="edge">
<title>Node1&#45;&gt;Node2</title>
<g id="a_edge1_Node000001_Node000002"><a xlink:title=" ">
<path fill="none" stroke="#63b8ff" d="M136.61,-56.34C112.57,-47.07 76.42,-33.13 50.76,-23.23"/>
<polygon fill="#63b8ff" stroke="#63b8ff" points="52.12,-20.01 41.53,-19.68 49.61,-26.54 52.12,-20.01"/>
</a>
</g>
</g>
<!-- Node3 -->
<g id="Node000003" class="node">
<title>Node3</title>
<g id="a_Node000003"><a xlink:title=" ">
<polygon fill="#e0e0e0" stroke="#999999" points="119.5,-20.75 58.5,-20.75 58.5,0 119.5,0 119.5,-20.75"/>
<text xml:space="preserve" text-anchor="middle" x="89" y="-7.25" font-family="Helvetica,sans-Serif" font-size="10.00">stdbool.h</text>
</a>
</g>
</g>
<!-- Node1&#45;&gt;Node3 -->
<g id="edge2_Node000001_Node000003" class="edge">
<title>Node1&#45;&gt;Node3</title>
<g id="a_edge2_Node000001_Node000003"><a xlink:title=" ">
<path fill="none" stroke="#63b8ff" d="M148.95,-56.34C138.36,-48.4 123.21,-37.03 110.78,-27.71"/>
<polygon fill="#63b8ff" stroke="#63b8ff" points="113.25,-25.19 103.15,-21.99 109.05,-30.79 113.25,-25.19"/>
</a>
</g>
</g>
<!-- Node4 -->
<g id="Node000004" class="node">
<title>Node4</title>
<g id="a_Node000004"><a xlink:title=" ">
<polygon fill="#e0e0e0" stroke="#999999" points="186.5,-20.75 137.5,-20.75 137.5,0 186.5,0 186.5,-20.75"/>
<text xml:space="preserve" text-anchor="middle" x="162" y="-7.25" font-family="Helvetica,sans-Serif" font-size="10.00">stdio.h</text>
</a>
</g>
</g>
<!-- Node1&#45;&gt;Node4 -->
<g id="edge3_Node000001_Node000004" class="edge">
<title>Node1&#45;&gt;Node4</title>
<g id="a_edge3_Node000001_Node000004"><a xlink:title=" ">
<path fill="none" stroke="#63b8ff" d="M162,-56.34C162,-49.72 162,-40.72 162,-32.52"/>
<polygon fill="#63b8ff" stroke="#63b8ff" points="165.5,-32.59 162,-22.59 158.5,-32.59 165.5,-32.59"/>
</a>
</g>
</g>
<!-- Node5 -->
<g id="Node000005" class="node">
<title>Node5</title>
<g id="a_Node000005"><a xlink:title=" ">
<polygon fill="#e0e0e0" stroke="#999999" points="267.25,-20.75 204.75,-20.75 204.75,0 267.25,0 267.25,-20.75"/>
<text xml:space="preserve" text-anchor="middle" x="236" y="-7.25" font-family="Helvetica,sans-Serif" font-size="10.00">termios.h</text>
</a>
</g>
</g>
<!-- Node1&#45;&gt;Node5 -->
<g id="edge4_Node000001_Node000005" class="edge">
<title>Node1&#45;&gt;Node5</title>
<g id="a_edge4_Node000001_Node000005"><a xlink:title=" ">
<path fill="none" stroke="#63b8ff" d="M175.23,-56.34C185.96,-48.4 201.32,-37.03 213.92,-27.71"/>
<polygon fill="#63b8ff" stroke="#63b8ff" points="215.71,-30.74 221.67,-21.98 211.55,-25.11 215.71,-30.74"/>
</a>
</g>
</g>
<!-- Node6 -->
<g id="Node000006" class="node">
<title>Node6</title>
<g id="a_Node000006"><a xlink:title=" ">
<polygon fill="#e0e0e0" stroke="#999999" points="340.5,-20.75 285.5,-20.75 285.5,0 340.5,0 340.5,-20.75"/>
<text xml:space="preserve" text-anchor="middle" x="313" y="-7.25" font-family="Helvetica,sans-Serif" font-size="10.00">unistd.h</text>
</a>
</g>
</g>
<!-- Node1&#45;&gt;Node6 -->
<g id="edge5_Node000001_Node000006" class="edge">
<title>Node1&#45;&gt;Node6</title>
<g id="a_edge5_Node000001_Node000006"><a xlink:title=" ">
<path fill="none" stroke="#63b8ff" d="M189,-56.34C213.08,-47.61 248.58,-34.73 275.43,-25"/>
<polygon fill="#63b8ff" stroke="#63b8ff" points="276.35,-28.39 284.56,-21.69 273.97,-21.8 276.35,-28.39"/>
</a>
</g>
</g>
</g>
</svg>
