<?xml version="1.0" encoding="UTF-8" standalone="no"?>
<!DOCTYPE svg PUBLIC "-//W3C//DTD SVG 1.1//EN"
 "http://www.w3.org/Graphics/SVG/1.1/DTD/svg11.dtd">
<!-- Generated by graphviz version 14.1.2 (0)
 -->
<!-- Title: init.c Pages: 1 -->
<svg width="435pt" height="86pt"
 viewBox="0.00 0.00 435.00 86.00" xmlns="http://www.w3.org/2000/svg" xmlns:xlink="http://www.w3.org/1999/xlink">

<svg id="main" version="1.1" xmlns="http://www.w3.org/2000/svg" xmlns:xlink="http://www.w3.org/1999/xlink" xml:space="preserve">

<style type="text/css"><![CDATA[
.node, .edge {opacity: 0.7;}
.node.selected, .edge.selected {opacity: 1;}
.edge:hover path { stroke: red; }
.edge:hover polygon { stroke: red; fill: red; }
]]></style>
<script type="application/ecmascript" xlink:href="../../svg.min.js"/>
<svg id="graph" class="graph">
<g id="graph0" class="graph" transform="scale(1 1) rotate(0) translate(4 81.5)">
<title>init.c</title>
<!-- Node1 -->
<g id="Node000001" class="node">
<title>Node1</title>
<g id="a_Node000001"><a xlink:title="Initialization for Menu Application Programs.">
<polygon fill="#999999" stroke="#666666" points="241.88,-77.5 201.88,-77.5 201.88,-56.75 241.88,-56.75 241.88,-77.5"/>
<text xml:space="preserve" text-anchor="middle" x="221.88" y="-64" font-family="Helvetica,sans-Serif" font-size="10.00">init.c</text>
</a>
</g>
</g>
<!-- Node2 -->
<g id="Node000002" class="node">
<title>Node2</title>
<g id="a_Node000002"><a xlink:title=" ">
<polygon fill="#e0e0e0" stroke="#999999" points="67.75,-20.75 0,-20.75 0,0 67.75,0 67.75,-20.75"/>
<text xml:space="preserve" text-anchor="middle" x="33.88" y="-7.25" font-family="Helvetica,sans-Serif" font-size="10.00">common.h</text>
</a>
</g>
</g>
<!-- Node1&#45;&gt;Node2 -->
<g id="edge1_Node000001_Node000002" class="edge">
<title>Node1&#45;&gt;Node2</title>
<g id="a_edge1_Node000001_Node000002"><a xlink:title=" ">
<path fill="none" stroke="#63b8ff" d="M201.4,-60.16C172.12,-51.64 117.55,-35.74 78.65,-24.41"/>
<polygon fill="#63b8ff" stroke="#63b8ff" points="79.66,-21.06 69.08,-21.63 77.7,-27.78 79.66,-21.06"/>
</a>
</g>
</g>
<!-- Node3 -->
<g id="Node000003" class="node">
<title>Node3</title>
<g id="a_Node000003"><a xlink:title=" ">
<polygon fill="#e0e0e0" stroke="#999999" points="142.12,-20.75 85.62,-20.75 85.62,0 142.12,0 142.12,-20.75"/>
<text xml:space="preserve" text-anchor="middle" x="113.88" y="-7.25" font-family="Helvetica,sans-Serif" font-size="10.00">getopt.h</text>
</a>
</g>
</g>
<!-- Node1&#45;&gt;Node3 -->
<g id="edge2_Node000001_Node000003" class="edge">
<title>Node1&#45;&gt;Node3</title>
<g id="a_edge2_Node000001_Node000003"><a xlink:title=" ">
<path fill="none" stroke="#63b8ff" d="M202.57,-56.34C186.06,-47.97 162.04,-35.79 143.17,-26.22"/>
<polygon fill="#63b8ff" stroke="#63b8ff" points="144.87,-23.16 134.37,-21.76 141.7,-29.41 144.87,-23.16"/>
</a>
</g>
</g>
<!-- Node4 -->
<g id="Node000004" class="node">
<title>Node4</title>
<g id="a_Node000004"><a xlink:title=" ">
<polygon fill="#e0e0e0" stroke="#999999" points="214,-20.75 159.75,-20.75 159.75,0 214,0 214,-20.75"/>
<text xml:space="preserve" text-anchor="middle" x="186.88" y="-7.25" font-family="Helvetica,sans-Serif" font-size="10.00">locale.h</text>
</a>
</g>
</g>
<!-- Node1&#45;&gt;Node4 -->
<g id="edge3_Node000001_Node000004" class="edge">
<title>Node1&#45;&gt;Node4</title>
<g id="a_edge3_Node000001_Node000004"><a xlink:title=" ">
<path fill="none" stroke="#63b8ff" d="M215.62,-56.34C211.04,-49.17 204.68,-39.23 199.11,-30.51"/>
<polygon fill="#63b8ff" stroke="#63b8ff" points="202.23,-28.89 193.89,-22.35 196.33,-32.66 202.23,-28.89"/>
</a>
</g>
</g>
<!-- Node5 -->
<g id="Node000005" class="node">
<title>Node5</title>
<g id="a_Node000005"><a xlink:title=" ">
<polygon fill="#e0e0e0" stroke="#999999" points="283.88,-20.75 231.88,-20.75 231.88,0 283.88,0 283.88,-20.75"/>
<text xml:space="preserve" text-anchor="middle" x="257.88" y="-7.25" font-family="Helvetica,sans-Serif" font-size="10.00">stdlib.h</text>
</a>
</g>
</g>
<!-- Node1&#45;&gt;Node5 -->
<g id="edge4_Node000001_Node000005" class="edge">
<title>Node1&#45;&gt;Node5</title>
<g id="a_edge4_Node000001_Node000005"><a xlink:title=" ">
<path fill="none" stroke="#63b8ff" d="M228.31,-56.34C233.02,-49.17 239.56,-39.23 245.29,-30.51"/>
<polygon fill="#63b8ff" stroke="#63b8ff" points="248.09,-32.62 250.66,-22.34 242.24,-28.78 248.09,-32.62"/>
</a>
</g>
</g>
<!-- Node6 -->
<g id="Node000006" class="node">
<title>Node6</title>
<g id="a_Node000006"><a xlink:title=" ">
<polygon fill="#e0e0e0" stroke="#999999" points="354.25,-20.75 301.5,-20.75 301.5,0 354.25,0 354.25,-20.75"/>
<text xml:space="preserve" text-anchor="middle" x="327.88" y="-7.25" font-family="Helvetica,sans-Serif" font-size="10.00">string.h</text>
</a>
</g>
</g>
<!-- Node1&#45;&gt;Node6 -->
<g id="edge5_Node000001_Node000006" class="edge">
<title>Node1&#45;&gt;Node6</title>
<g id="a_edge5_Node000001_Node000006"><a xlink:title=" ">
<path fill="none" stroke="#63b8ff" d="M240.83,-56.34C256.95,-48.01 280.38,-35.91 298.87,-26.36"/>
<polygon fill="#63b8ff" stroke="#63b8ff" points="300.46,-29.47 307.74,-21.77 297.25,-23.25 300.46,-29.47"/>
</a>
</g>
</g>
<!-- Node7 -->
<g id="Node000007" class="node">
<title>Node7</title>
<g id="a_Node000007"><a xlink:title=" ">
<polygon fill="#e0e0e0" stroke="#999999" points="427.38,-20.75 372.38,-20.75 372.38,0 427.38,0 427.38,-20.75"/>
<text xml:space="preserve" text-anchor="middle" x="399.88" y="-7.25" font-family="Helvetica,sans-Serif" font-size="10.00">unistd.h</text>
</a>
</g>
</g>
<!-- Node1&#45;&gt;Node7 -->
<g id="edge6_Node000001_Node000007" class="edge">
<title>Node1&#45;&gt;Node7</title>
<g id="a_edge6_Node000001_Node000007"><a xlink:title=" ">
<path fill="none" stroke="#63b8ff" d="M242.29,-59.84C271.26,-50.94 324.81,-34.46 361.37,-23.22"/>
<polygon fill="#63b8ff" stroke="#63b8ff" points="362.15,-26.64 370.68,-20.35 360.1,-19.95 362.15,-26.64"/>
</a>
</g>
</g>
</g>
</svg>
</svg>

<style type='text/css'>
<![CDATA[
[data-mouse-over-selected='false'] { opacity: 0.7; }
[data-mouse-over-selected='true']  { opacity: 1.0; }
]]>
</style>
<script type="application/ecmascript"><![CDATA[
document.addEventListener('DOMContentLoaded', (event) => {
  highlightEdges();
  highlightAdjacentNodes();
});
]]></script>
</svg>
