<?xml version="1.0" encoding="UTF-8" standalone="no"?>
<!DOCTYPE svg PUBLIC "-//W3C//DTD SVG 1.1//EN"
 "http://www.w3.org/Graphics/SVG/1.1/DTD/svg11.dtd">
<!-- Generated by graphviz version 15.0.0 (0)
 -->
<!-- Title: answer_yn Pages: 1 -->
<svg width="821pt" height="626pt"
 viewBox="0.00 0.00 821.00 626.00" xmlns="http://www.w3.org/2000/svg" xmlns:xlink="http://www.w3.org/1999/xlink">
<g id="graph0" class="graph" transform="scale(1 1) rotate(0) translate(4 622.38)">
<title>answer_yn</title>
<!-- Node1 -->
<g id="Node000001" class="node">
<title>Node1</title>
<g id="a_Node000001"><a xlink:title="Accept a single letter answer.">
<polygon fill="#999999" stroke="#666666" points="68.5,-361.75 0,-361.75 0,-341 68.5,-341 68.5,-361.75"/>
<text xml:space="preserve" text-anchor="middle" x="34.25" y="-348.25" font-family="Helvetica,sans-Serif" font-size="10.00">answer_yn</text>
</a>
</g>
</g>
<!-- Node2 -->
<g id="Node000002" class="node">
<title>Node2</title>
<g id="a_Node000002"><a xlink:href="../../d3/d53/a01262.html#ga8f6c45ca4a7f6a41c4c88314e697565a" target="_top" xlink:title="Abnormal program termination.">
<polygon fill="white" stroke="#666666" points="534.5,-543.75 488.5,-543.75 488.5,-523 534.5,-523 534.5,-543.75"/>
<text xml:space="preserve" text-anchor="middle" x="511.5" y="-530.25" font-family="Helvetica,sans-Serif" font-size="10.00">abend</text>
</a>
</g>
</g>
<!-- Node1&#45;&gt;Node2 -->
<g id="edge1_Node000001_Node000002" class="edge">
<title>Node1&#45;&gt;Node2</title>
<g id="a_edge1_Node000001_Node000002"><a xlink:title=" ">
<path fill="none" stroke="#63b8ff" d="M37.6,-362.04C43.92,-388.39 63.64,-457.31 104.5,-497.38 136.96,-529.2 154.1,-526.69 197.75,-539.38 303.37,-570.08 336.45,-583.22 444.25,-561.38 456.55,-558.88 469.4,-554.03 480.48,-549.06"/>
<polygon fill="#63b8ff" stroke="#63b8ff" points="481.97,-552.22 489.51,-544.78 478.97,-545.9 481.97,-552.22"/>
</a>
</g>
</g>
<!-- Node6 -->
<g id="Node000006" class="node">
<title>Node6</title>
<g id="a_Node000006"><a xlink:href="../../d7/da3/a01260.html#ga9dd598e1d49c8764af1eec42c682623e" target="_top" xlink:title="Delete the current window and its associated box window.">
<polygon fill="white" stroke="#666666" points="785.5,-543.75 732,-543.75 732,-523 785.5,-523 785.5,-543.75"/>
<text xml:space="preserve" text-anchor="middle" x="758.75" y="-530.25" font-family="Helvetica,sans-Serif" font-size="10.00">win_del</text>
</a>
</g>
</g>
<!-- Node1&#45;&gt;Node6 -->
<g id="edge24_Node000001_Node000006" class="edge">
<title>Node1&#45;&gt;Node6</title>
<g id="a_edge24_Node000001_Node000006"><a xlink:title=" ">
<path fill="none" stroke="#63b8ff" d="M36.99,-362.11C42.26,-391.62 60.42,-475.2 104.5,-527.38 155.04,-587.19 177.07,-618.38 255.38,-618.38 255.38,-618.38 255.38,-618.38 512.5,-618.38 523.28,-618.38 655.07,-570.85 720.87,-546.87"/>
<polygon fill="#63b8ff" stroke="#63b8ff" points="721.97,-550.19 730.17,-543.48 719.57,-543.62 721.97,-550.19"/>
</a>
</g>
</g>
<!-- Node7 -->
<g id="Node000007" class="node">
<title>Node7</title>
<g id="a_Node000007"><a xlink:href="../../d7/da3/a01260.html#ga38d50d5b402b7b2328874329ae003d7d" target="_top" xlink:title="Create a new window with optional box and title.">
<polygon fill="white" stroke="#666666" points="427.38,-476.75 367.88,-476.75 367.88,-456 427.38,-456 427.38,-476.75"/>
<text xml:space="preserve" text-anchor="middle" x="397.62" y="-463.25" font-family="Helvetica,sans-Serif" font-size="10.00">box_new</text>
</a>
</g>
</g>
<!-- Node1&#45;&gt;Node7 -->
<g id="edge8_Node000001_Node000007" class="edge">
<title>Node1&#45;&gt;Node7</title>
<g id="a_edge8_Node000001_Node000007"><a xlink:title=" ">
<path fill="none" stroke="#63b8ff" d="M39.8,-362.16C48.83,-382.03 71.07,-424.06 104.5,-442.38 185.04,-486.49 297.2,-480.34 356.38,-472.86"/>
<polygon fill="#63b8ff" stroke="#63b8ff" points="356.54,-476.37 365.98,-471.57 355.6,-469.44 356.54,-476.37"/>
</a>
</g>
</g>
<!-- Node8 -->
<g id="Node000008" class="node">
<title>Node8</title>
<g id="a_Node000008"><a xlink:href="../../d4/d41/a01267.html#ga63eb94756fb011a456a3dec900709cd8" target="_top" xlink:title="ssnprintf was designed to be a safer alternative to snprintf.">
<polygon fill="white" stroke="#666666" points="540.88,-404.75 482.12,-404.75 482.12,-384 540.88,-384 540.88,-404.75"/>
<text xml:space="preserve" text-anchor="middle" x="511.5" y="-391.25" font-family="Helvetica,sans-Serif" font-size="10.00">ssnprintf</text>
</a>
</g>
</g>
<!-- Node1&#45;&gt;Node8 -->
<g id="edge21_Node000001_Node000008" class="edge">
<title>Node1&#45;&gt;Node8</title>
<g id="a_edge21_Node000001_Node000008"><a xlink:title=" ">
<path fill="none" stroke="#63b8ff" d="M60.17,-362.18C73.17,-367.45 89.46,-373.47 104.5,-377.38 251.3,-415.5 293.52,-426.23 444.25,-409.38 452.89,-408.41 462.04,-406.76 470.7,-404.89"/>
<polygon fill="#63b8ff" stroke="#63b8ff" points="471.28,-408.35 480.24,-402.7 469.71,-401.53 471.28,-408.35"/>
</a>
</g>
</g>
<!-- Node11 -->
<g id="Node000011" class="node">
<title>Node11</title>
<g id="a_Node000011"><a xlink:href="../../de/dcb/a01263.html#ga645871e46277e31736bc36d0f3dce4bd" target="_top" xlink:title="construct the chyron string from the chyron structure">
<polygon fill="white" stroke="#666666" points="444.25,-20.75 351,-20.75 351,0 444.25,0 444.25,-20.75"/>
<text xml:space="preserve" text-anchor="middle" x="397.62" y="-7.25" font-family="Helvetica,sans-Serif" font-size="10.00">compile_chyron</text>
</a>
</g>
</g>
<!-- Node1&#45;&gt;Node11 -->
<g id="edge13_Node000001_Node000011" class="edge">
<title>Node1&#45;&gt;Node11</title>
<g id="a_edge13_Node000001_Node000011"><a xlink:title=" ">
<path fill="none" stroke="#63b8ff" d="M36.64,-340.7C42.64,-296.24 67.68,-126.41 104.5,-89.38 166.88,-26.64 273.59,-12.26 339.32,-9.76"/>
<polygon fill="#63b8ff" stroke="#63b8ff" points="339.29,-13.26 349.18,-9.47 339.09,-6.26 339.29,-13.26"/>
</a>
</g>
</g>
<!-- Node13 -->
<g id="Node000013" class="node">
<title>Node13</title>
<g id="a_Node000013"><a xlink:href="../../de/dcb/a01263.html#ga3f3feb40fd703913c5c136331f627c91" target="_top" xlink:title="Destroy Chyron structure.">
<polygon fill="white" stroke="#666666" points="443.12,-282.75 352.12,-282.75 352.12,-262 443.12,-262 443.12,-282.75"/>
<text xml:space="preserve" text-anchor="middle" x="397.62" y="-269.25" font-family="Helvetica,sans-Serif" font-size="10.00">destroy_chyron</text>
</a>
</g>
</g>
<!-- Node1&#45;&gt;Node13 -->
<g id="edge15_Node000001_Node000013" class="edge">
<title>Node1&#45;&gt;Node13</title>
<g id="a_edge15_Node000001_Node000013"><a xlink:title=" ">
<path fill="none" stroke="#63b8ff" d="M40.88,-340.82C58.68,-308.7 117.38,-212.29 197.75,-177.38 245.55,-156.61 270.36,-150.5 315,-177.38 344.3,-195.01 327.4,-220.63 351,-245.38 354.6,-249.15 358.84,-252.57 363.26,-255.62"/>
<polygon fill="#63b8ff" stroke="#63b8ff" points="361.42,-258.6 371.77,-260.88 365.1,-252.64 361.42,-258.6"/>
</a>
</g>
</g>
<!-- Node14 -->
<g id="Node000014" class="node">
<title>Node14</title>
<g id="a_Node000014"><a xlink:href="../../de/dcb/a01263.html#ga3854b84b6d0347dcb55947552f137d0d" target="_top" xlink:title="Display chyron on window.">
<polygon fill="white" stroke="#666666" points="442.38,-236.75 352.88,-236.75 352.88,-216 442.38,-216 442.38,-236.75"/>
<text xml:space="preserve" text-anchor="middle" x="397.62" y="-223.25" font-family="Helvetica,sans-Serif" font-size="10.00">display_chyron</text>
</a>
</g>
</g>
<!-- Node1&#45;&gt;Node14 -->
<g id="edge16_Node000001_Node000014" class="edge">
<title>Node1&#45;&gt;Node14</title>
<g id="a_edge16_Node000001_Node000014"><a xlink:title=" ">
<path fill="none" stroke="#63b8ff" d="M37.22,-340.84C42.84,-313.46 61.44,-239.18 104.5,-196.38 136.61,-164.46 153.44,-164.69 197.75,-155.38 248.75,-144.66 266.99,-135.1 315,-155.38 336.14,-164.3 333.75,-177.25 351,-192.38 357.54,-198.11 364.97,-203.91 371.91,-209.07"/>
<polygon fill="#63b8ff" stroke="#63b8ff" points="369.57,-211.69 379.72,-214.74 373.68,-206.03 369.57,-211.69"/>
</a>
</g>
</g>
<!-- Node15 -->
<g id="Node000015" class="node">
<title>Node15</title>
<g id="a_Node000015"><a xlink:href="../../de/dcb/a01263.html#gad37d5808ff30ae6894780425d865abae" target="_top" xlink:title="Create and initialize Chyron structure.">
<polygon fill="white" stroke="#666666" points="434.88,-552.75 360.38,-552.75 360.38,-532 434.88,-532 434.88,-552.75"/>
<text xml:space="preserve" text-anchor="middle" x="397.62" y="-539.25" font-family="Helvetica,sans-Serif" font-size="10.00">new_chyron</text>
</a>
</g>
</g>
<!-- Node1&#45;&gt;Node15 -->
<g id="edge17_Node000001_Node000015" class="edge">
<title>Node1&#45;&gt;Node15</title>
<g id="a_edge17_Node000001_Node000015"><a xlink:title=" ">
<path fill="none" stroke="#63b8ff" d="M38.46,-361.91C46.01,-384.84 67.12,-439.43 104.5,-467.38 177.58,-522.01 286.54,-537.02 348.66,-541.03"/>
<polygon fill="#63b8ff" stroke="#63b8ff" points="348.37,-544.52 358.55,-541.59 348.77,-537.53 348.37,-544.52"/>
</a>
</g>
</g>
<!-- Node16 -->
<g id="Node000016" class="node">
<title>Node16</title>
<g id="a_Node000016"><a xlink:href="../../de/dcb/a01263.html#ga208ce92c197fdd6d2b007987e534aa3b" target="_top" xlink:title="Set chyron key with default color pair (cp_nt_rev).">
<polygon fill="white" stroke="#666666" points="443.5,-400.75 351.75,-400.75 351.75,-380 443.5,-380 443.5,-400.75"/>
<text xml:space="preserve" text-anchor="middle" x="397.62" y="-387.25" font-family="Helvetica,sans-Serif" font-size="10.00">set_chyron_key</text>
</a>
</g>
</g>
<!-- Node1&#45;&gt;Node16 -->
<g id="edge19_Node000001_Node000016" class="edge">
<title>Node1&#45;&gt;Node16</title>
<g id="a_edge19_Node000001_Node000016"><a xlink:title=" ">
<path fill="none" stroke="#63b8ff" d="M68.83,-355.78C101.67,-360.02 153.1,-366.5 197.75,-371.38 245.76,-376.62 300.39,-381.78 340.22,-385.4"/>
<polygon fill="#63b8ff" stroke="#63b8ff" points="339.79,-388.87 350.06,-386.29 340.42,-381.9 339.79,-388.87"/>
</a>
</g>
</g>
<!-- Node17 -->
<g id="Node000017" class="node">
<title>Node17</title>
<g id="a_Node000017"><a xlink:href="../../d4/d41/a01267.html#ga636608f26d1193b5d860f2312cd8ee49" target="_top" xlink:title="terminates string at New Line, Carriage Return, or max_len">
<polygon fill="white" stroke="#666666" points="417.62,-183.75 377.62,-183.75 377.62,-163 417.62,-163 417.62,-183.75"/>
<text xml:space="preserve" text-anchor="middle" x="397.62" y="-170.25" font-family="Helvetica,sans-Serif" font-size="10.00">strnz</text>
</a>
</g>
</g>
<!-- Node1&#45;&gt;Node17 -->
<g id="edge22_Node000001_Node000017" class="edge">
<title>Node1&#45;&gt;Node17</title>
<g id="a_edge22_Node000001_Node000017"><a xlink:title=" ">
<path fill="none" stroke="#63b8ff" d="M35.67,-340.69C37.56,-308.03 47.92,-208.79 104.5,-159.38 175.28,-97.55 222.85,-120.95 315,-139.38 332.93,-142.96 351.84,-150.57 366.94,-157.68"/>
<polygon fill="#63b8ff" stroke="#63b8ff" points="365.32,-160.78 375.84,-162.04 368.4,-154.49 365.32,-160.78"/>
</a>
</g>
</g>
<!-- Node18 -->
<g id="Node000018" class="node">
<title>Node18</title>
<g id="a_Node000018"><a xlink:href="../../d4/d41/a01267.html#ga0de2e40df9bd7efc8fd9afb8ad2257e6" target="_top" xlink:title="safer alternative to strncpy">
<polygon fill="white" stroke="#666666" points="431.5,-116.75 363.75,-116.75 363.75,-96 431.5,-96 431.5,-116.75"/>
<text xml:space="preserve" text-anchor="middle" x="397.62" y="-103.25" font-family="Helvetica,sans-Serif" font-size="10.00">strnz__cpy</text>
</a>
</g>
</g>
<!-- Node1&#45;&gt;Node18 -->
<g id="edge23_Node000001_Node000018" class="edge">
<title>Node1&#45;&gt;Node18</title>
<g id="a_edge23_Node000001_Node000018"><a xlink:title=" ">
<path fill="none" stroke="#63b8ff" d="M34.64,-340.65C33.16,-303.2 33.81,-177.53 104.5,-121.38 175.62,-64.88 289.97,-80.01 352.42,-94.25"/>
<polygon fill="#63b8ff" stroke="#63b8ff" points="351.44,-97.62 361.98,-96.53 353.06,-90.81 351.44,-97.62"/>
</a>
</g>
</g>
<!-- Node19 -->
<g id="Node000019" class="node">
<title>Node19</title>
<g id="a_Node000019"><a xlink:href="../../d7/da3/a01260.html#ga2feaacf50ca2c7d00b73e21faca59702" target="_top" xlink:title="Wrapper for wgetch that handles signals, mouse events, checks for clicks on the chyron line,...">
<polygon fill="white" stroke="#666666" points="161.75,-323.75 104.5,-323.75 104.5,-303 161.75,-303 161.75,-323.75"/>
<text xml:space="preserve" text-anchor="middle" x="133.12" y="-310.25" font-family="Helvetica,sans-Serif" font-size="10.00">xwgetch</text>
</a>
</g>
</g>
<!-- Node1&#45;&gt;Node19 -->
<g id="edge25_Node000001_Node000019" class="edge">
<title>Node1&#45;&gt;Node19</title>
<g id="a_edge25_Node000001_Node000019"><a xlink:title=" ">
<path fill="none" stroke="#63b8ff" d="M62.75,-340.59C72.47,-336.78 83.57,-332.42 94.01,-328.33"/>
<polygon fill="#63b8ff" stroke="#63b8ff" points="95.11,-331.65 103.15,-324.74 92.56,-325.14 95.11,-331.65"/>
</a>
</g>
</g>
<!-- Node3 -->
<g id="Node000003" class="node">
<title>Node3</title>
<g id="a_Node000003"><a xlink:href="../../d7/da3/a01260.html#gafc0985a403e3eac0b2cd8f0fab500256" target="_top" xlink:title="Gracefully shut down NCurses and restore terminal settings.">
<polygon fill="white" stroke="#666666" points="668.25,-543.75 578.75,-543.75 578.75,-523 668.25,-523 668.25,-543.75"/>
<text xml:space="preserve" text-anchor="middle" x="623.5" y="-530.25" font-family="Helvetica,sans-Serif" font-size="10.00">destroy_curses</text>
</a>
</g>
</g>
<!-- Node2&#45;&gt;Node3 -->
<g id="edge2_Node000002_Node000003" class="edge">
<title>Node2&#45;&gt;Node3</title>
<g id="a_edge2_Node000002_Node000003"><a xlink:title=" ">
<path fill="none" stroke="#63b8ff" d="M534.76,-533.38C544.18,-533.38 555.61,-533.38 567.06,-533.38"/>
<polygon fill="#63b8ff" stroke="#63b8ff" points="566.94,-536.88 576.94,-533.38 566.94,-529.88 566.94,-536.88"/>
</a>
</g>
</g>
<!-- Node4 -->
<g id="Node000004" class="node">
<title>Node4</title>
<g id="a_Node000004"><a xlink:href="../../d5/d37/a01276.html#gac5e3adb304b78910fc77761ef6a743f0" target="_top" xlink:title="restore_shell_tioctl() &#45; restore shell terminal settings">
<polygon fill="white" stroke="#666666" points="813.25,-504.75 704.25,-504.75 704.25,-484 813.25,-484 813.25,-504.75"/>
<text xml:space="preserve" text-anchor="middle" x="758.75" y="-491.25" font-family="Helvetica,sans-Serif" font-size="10.00">restore_shell_tioctl</text>
</a>
</g>
</g>
<!-- Node2&#45;&gt;Node4 -->
<g id="edge6_Node000002_Node000004" class="edge">
<title>Node2&#45;&gt;Node4</title>
<g id="a_edge6_Node000002_Node000004"><a xlink:title=" ">
<path fill="none" stroke="#63b8ff" d="M534.96,-525.92C547.68,-521.95 563.96,-517.3 578.75,-514.38 616.23,-506.96 658.71,-502.07 692.88,-498.98"/>
<polygon fill="#63b8ff" stroke="#63b8ff" points="692.96,-502.48 702.62,-498.13 692.36,-495.51 692.96,-502.48"/>
</a>
</g>
</g>
<!-- Node5 -->
<g id="Node000005" class="node">
<title>Node5</title>
<g id="a_Node000005"><a xlink:href="../../d2/d1d/a01277.html#ga06c1eb6cf3649dc187115565409f91af" target="_top" xlink:title="Set signal handlers to default behavior.">
<polygon fill="white" stroke="#666666" points="799.38,-582.75 718.12,-582.75 718.12,-562 799.38,-562 799.38,-582.75"/>
<text xml:space="preserve" text-anchor="middle" x="758.75" y="-569.25" font-family="Helvetica,sans-Serif" font-size="10.00">sig_dfl_mode</text>
</a>
</g>
</g>
<!-- Node2&#45;&gt;Node5 -->
<g id="edge7_Node000002_Node000005" class="edge">
<title>Node2&#45;&gt;Node5</title>
<g id="a_edge7_Node000002_Node000005"><a xlink:title=" ">
<path fill="none" stroke="#63b8ff" d="M534.96,-540.83C547.68,-544.8 563.96,-549.45 578.75,-552.38 621.38,-560.81 670.47,-565.98 706.45,-568.94"/>
<polygon fill="#63b8ff" stroke="#63b8ff" points="705.89,-572.41 716.13,-569.71 706.44,-565.43 705.89,-572.41"/>
</a>
</g>
</g>
<!-- Node3&#45;&gt;Node4 -->
<g id="edge3_Node000003_Node000004" class="edge">
<title>Node3&#45;&gt;Node4</title>
<g id="a_edge3_Node000003_Node000004"><a xlink:title=" ">
<path fill="none" stroke="#63b8ff" d="M661.62,-522.51C676.63,-518.12 694.16,-512.99 710.1,-508.32"/>
<polygon fill="#63b8ff" stroke="#63b8ff" points="710.76,-511.77 719.38,-505.61 708.8,-505.06 710.76,-511.77"/>
</a>
</g>
</g>
<!-- Node3&#45;&gt;Node5 -->
<g id="edge4_Node000003_Node000005" class="edge">
<title>Node3&#45;&gt;Node5</title>
<g id="a_edge4_Node000003_Node000005"><a xlink:title=" ">
<path fill="none" stroke="#63b8ff" d="M661.62,-544.24C676.63,-548.63 694.16,-553.76 710.1,-558.43"/>
<polygon fill="#63b8ff" stroke="#63b8ff" points="708.8,-561.69 719.38,-561.14 710.76,-554.98 708.8,-561.69"/>
</a>
</g>
</g>
<!-- Node3&#45;&gt;Node6 -->
<g id="edge5_Node000003_Node000006" class="edge">
<title>Node3&#45;&gt;Node6</title>
<g id="a_edge5_Node000003_Node000006"><a xlink:title=" ">
<path fill="none" stroke="#63b8ff" d="M668.5,-533.38C685.34,-533.38 704.36,-533.38 720.5,-533.38"/>
<polygon fill="#63b8ff" stroke="#63b8ff" points="720.17,-536.88 730.17,-533.38 720.17,-529.88 720.17,-536.88"/>
</a>
</g>
</g>
<!-- Node7&#45;&gt;Node2 -->
<g id="edge9_Node000007_Node000002" class="edge">
<title>Node7&#45;&gt;Node2</title>
<g id="a_edge9_Node000007_Node000002"><a xlink:title=" ">
<path fill="none" stroke="#63b8ff" d="M420.2,-477.21C427.88,-481.2 436.53,-485.85 444.25,-490.38 458.02,-498.44 472.97,-508.07 485.17,-516.16"/>
<polygon fill="#63b8ff" stroke="#63b8ff" points="483.18,-519.04 493.43,-521.69 487.07,-513.22 483.18,-519.04"/>
</a>
</g>
</g>
<!-- Node7&#45;&gt;Node8 -->
<g id="edge10_Node000007_Node000008" class="edge">
<title>Node7&#45;&gt;Node8</title>
<g id="a_edge10_Node000007_Node000008"><a xlink:title=" ">
<path fill="none" stroke="#63b8ff" d="M420.8,-455.52C428.37,-451.6 436.8,-447 444.25,-442.38 459.35,-433 475.51,-421.33 488.09,-411.84"/>
<polygon fill="#63b8ff" stroke="#63b8ff" points="489.91,-414.85 495.74,-406 485.66,-409.29 489.91,-414.85"/>
</a>
</g>
</g>
<!-- Node9 -->
<g id="Node000009" class="node">
<title>Node9</title>
<g id="a_Node000009"><a xlink:href="../../de/d34/a01261.html#ga3819f27928a066b4d6a2a7ff30a37263" target="_top" xlink:title="Convert a multibyte string to an array of cchar_t complex characters.">
<polygon fill="white" stroke="#666666" points="541.25,-487.75 481.75,-487.75 481.75,-467 541.25,-467 541.25,-487.75"/>
<text xml:space="preserve" text-anchor="middle" x="511.5" y="-474.25" font-family="Helvetica,sans-Serif" font-size="10.00">str_to_cc</text>
</a>
</g>
</g>
<!-- Node7&#45;&gt;Node9 -->
<g id="edge11_Node000007_Node000009" class="edge">
<title>Node7&#45;&gt;Node9</title>
<g id="a_edge11_Node000007_Node000009"><a xlink:title=" ">
<path fill="none" stroke="#63b8ff" d="M427.73,-469.24C440.68,-470.51 456.14,-472.03 470.17,-473.41"/>
<polygon fill="#63b8ff" stroke="#63b8ff" points="469.74,-476.88 480.04,-474.38 470.43,-469.92 469.74,-476.88"/>
</a>
</g>
</g>
<!-- Node10 -->
<g id="Node000010" class="node">
<title>Node10</title>
<g id="a_Node000010"><a xlink:href="../../d7/da3/a01260.html#ga84e02ea4b1a3c2da71b7f7dc1f78d31b" target="_top" xlink:title="Create a new window with specified dimensions and position.">
<polygon fill="white" stroke="#666666" points="540.88,-448.75 482.12,-448.75 482.12,-428 540.88,-428 540.88,-448.75"/>
<text xml:space="preserve" text-anchor="middle" x="511.5" y="-435.25" font-family="Helvetica,sans-Serif" font-size="10.00">win_new</text>
</a>
</g>
</g>
<!-- Node7&#45;&gt;Node10 -->
<g id="edge12_Node000007_Node000010" class="edge">
<title>Node7&#45;&gt;Node10</title>
<g id="a_edge12_Node000007_Node000010"><a xlink:title=" ">
<path fill="none" stroke="#63b8ff" d="M427.73,-459.09C440.91,-455.79 456.69,-451.84 470.93,-448.28"/>
<polygon fill="#63b8ff" stroke="#63b8ff" points="471.61,-451.72 480.46,-445.89 469.91,-444.93 471.61,-451.72"/>
</a>
</g>
</g>
<!-- Node12 -->
<g id="Node000012" class="node">
<title>Node12</title>
<g id="a_Node000012"><a xlink:href="../../de/dcb/a01263.html#gac8edae1b92a3fc0dc55aa1d91433700f" target="_top" xlink:title="Convert multibyte string to complex character array.">
<polygon fill="white" stroke="#666666" points="542.75,-20.75 480.25,-20.75 480.25,0 542.75,0 542.75,-20.75"/>
<text xml:space="preserve" text-anchor="middle" x="511.5" y="-7.25" font-family="Helvetica,sans-Serif" font-size="10.00">mb_to_cc</text>
</a>
</g>
</g>
<!-- Node11&#45;&gt;Node12 -->
<g id="edge14_Node000011_Node000012" class="edge">
<title>Node11&#45;&gt;Node12</title>
<g id="a_edge14_Node000011_Node000012"><a xlink:title=" ">
<path fill="none" stroke="#63b8ff" d="M444.45,-10.38C452.39,-10.38 460.6,-10.38 468.43,-10.38"/>
<polygon fill="#63b8ff" stroke="#63b8ff" points="468.41,-13.88 478.41,-10.38 468.41,-6.88 468.41,-13.88"/>
</a>
</g>
</g>
<!-- Node15&#45;&gt;Node2 -->
<g id="edge18_Node000015_Node000002" class="edge">
<title>Node15&#45;&gt;Node2</title>
<g id="a_edge18_Node000015_Node000002"><a xlink:title=" ">
<path fill="none" stroke="#63b8ff" d="M435.26,-539.43C448.63,-538.35 463.67,-537.14 476.77,-536.09"/>
<polygon fill="#63b8ff" stroke="#63b8ff" points="476.96,-539.58 486.65,-535.29 476.4,-532.61 476.96,-539.58"/>
</a>
</g>
</g>
<!-- Node16&#45;&gt;Node8 -->
<g id="edge20_Node000016_Node000008" class="edge">
<title>Node16&#45;&gt;Node8</title>
<g id="a_edge20_Node000016_Node000008"><a xlink:title=" ">
<path fill="none" stroke="#63b8ff" d="M443.81,-391.99C452.65,-392.31 461.86,-392.64 470.51,-392.95"/>
<polygon fill="#63b8ff" stroke="#63b8ff" points="470.25,-396.44 480.37,-393.3 470.5,-389.44 470.25,-396.44"/>
</a>
</g>
</g>
<!-- Node20 -->
<g id="Node000020" class="node">
<title>Node20</title>
<g id="a_Node000020"><a xlink:href="../../d3/d53/a01262.html#gace6da1791caec4c3aa1246533f4d974a" target="_top" xlink:title="Display an error message window or print to stderr.">
<polygon fill="white" stroke="#666666" points="296.25,-362.75 216.5,-362.75 216.5,-342 296.25,-342 296.25,-362.75"/>
<text xml:space="preserve" text-anchor="middle" x="256.38" y="-349.25" font-family="Helvetica,sans-Serif" font-size="10.00">display_error</text>
</a>
</g>
</g>
<!-- Node19&#45;&gt;Node20 -->
<g id="edge26_Node000019_Node000020" class="edge">
<title>Node19&#45;&gt;Node20</title>
<g id="a_edge26_Node000019_Node000020"><a xlink:title=" ">
<path fill="none" stroke="#63b8ff" d="M162.25,-316.62C181.55,-321.58 207.08,-329.78 226.53,-337.25"/>
<polygon fill="#63b8ff" stroke="#63b8ff" points="225.2,-340.49 235.79,-340.97 227.82,-333.99 225.2,-340.49"/>
</a>
</g>
</g>
<!-- Node21 -->
<g id="Node000021" class="node">
<title>Node21</title>
<g id="a_Node000021"><a xlink:href="../../de/dcb/a01263.html#ga4298f891699300bfc4e6e56fd2a8d574" target="_top" xlink:title="Get keycode from chyron.">
<polygon fill="white" stroke="#666666" points="302.62,-284.75 210.12,-284.75 210.12,-264 302.62,-264 302.62,-284.75"/>
<text xml:space="preserve" text-anchor="middle" x="256.38" y="-271.25" font-family="Helvetica,sans-Serif" font-size="10.00">get_chyron_key</text>
</a>
</g>
</g>
<!-- Node19&#45;&gt;Node21 -->
<g id="edge39_Node000019_Node000021" class="edge">
<title>Node19&#45;&gt;Node21</title>
<g id="a_edge39_Node000019_Node000021"><a xlink:title=" ">
<path fill="none" stroke="#63b8ff" d="M162.25,-304.33C176.68,-299.69 194.61,-293.92 210.87,-288.69"/>
<polygon fill="#63b8ff" stroke="#63b8ff" points="211.91,-292.03 220.36,-285.64 209.77,-285.37 211.91,-292.03"/>
</a>
</g>
</g>
<!-- Node22 -->
<g id="Node000022" class="node">
<title>Node22</title>
<g id="a_Node000022"><a xlink:href="../../d8/db9/a00725.html#a0667873879b5846c3fe2fa2cc96059d6" target="_top" xlink:title=" ">
<polygon fill="white" stroke="#666666" points="298.12,-245.75 214.62,-245.75 214.62,-225 298.12,-225 298.12,-245.75"/>
<text xml:space="preserve" text-anchor="middle" x="256.38" y="-232.25" font-family="Helvetica,sans-Serif" font-size="10.00">handle_signal</text>
</a>
</g>
</g>
<!-- Node19&#45;&gt;Node22 -->
<g id="edge40_Node000019_Node000022" class="edge">
<title>Node19&#45;&gt;Node22</title>
<g id="a_edge40_Node000019_Node000022"><a xlink:title=" ">
<path fill="none" stroke="#63b8ff" d="M143.45,-302.53C155.02,-289.68 175.91,-268.37 197.75,-255.38 200.66,-253.64 203.74,-252.03 206.91,-250.54"/>
<polygon fill="#63b8ff" stroke="#63b8ff" points="207.97,-253.89 215.8,-246.76 205.23,-247.45 207.97,-253.89"/>
</a>
</g>
</g>
<!-- Node23 -->
<g id="Node000023" class="node">
<title>Node23</title>
<g id="a_Node000023"><a xlink:href="../../d5/d37/a01276.html#ga9595fce25a583a656ca51a8b8f7494ae" target="_top" xlink:title="mk_raw_tioctl() &#45; set terminal to raw mode">
<polygon fill="white" stroke="#666666" points="298.88,-206.75 213.88,-206.75 213.88,-186 298.88,-186 298.88,-206.75"/>
<text xml:space="preserve" text-anchor="middle" x="256.38" y="-193.25" font-family="Helvetica,sans-Serif" font-size="10.00">mk_raw_tioctl</text>
</a>
</g>
</g>
<!-- Node19&#45;&gt;Node23 -->
<g id="edge41_Node000019_Node000023" class="edge">
<title>Node19&#45;&gt;Node23</title>
<g id="a_edge41_Node000019_Node000023"><a xlink:title=" ">
<path fill="none" stroke="#63b8ff" d="M138.35,-302.68C146.71,-282.82 167.25,-240.15 197.75,-216.38 199.5,-215.01 201.36,-213.73 203.28,-212.54"/>
<polygon fill="#63b8ff" stroke="#63b8ff" points="204.81,-215.69 212.04,-207.95 201.56,-209.49 204.81,-215.69"/>
</a>
</g>
</g>
<!-- Node24 -->
<g id="Node000024" class="node">
<title>Node24</title>
<g id="a_Node000024"><a xlink:href="../../d5/d37/a01276.html#ga1c8e0f0a02e08c783231a20093fb8410" target="_top" xlink:title="restore_curses_tioctl() &#45; restore curses terminal settings">
<polygon fill="white" stroke="#666666" points="315,-323.75 197.75,-323.75 197.75,-303 315,-303 315,-323.75"/>
<text xml:space="preserve" text-anchor="middle" x="256.38" y="-310.25" font-family="Helvetica,sans-Serif" font-size="10.00">restore_curses_tioctl</text>
</a>
</g>
</g>
<!-- Node19&#45;&gt;Node24 -->
<g id="edge42_Node000019_Node000024" class="edge">
<title>Node19&#45;&gt;Node24</title>
<g id="a_edge42_Node000019_Node000024"><a xlink:title=" ">
<path fill="none" stroke="#63b8ff" d="M162.25,-313.38C169.46,-313.38 177.55,-313.38 185.86,-313.38"/>
<polygon fill="#63b8ff" stroke="#63b8ff" points="185.77,-316.88 195.77,-313.38 185.77,-309.88 185.77,-316.88"/>
</a>
</g>
</g>
<!-- Node20&#45;&gt;Node2 -->
<g id="edge27_Node000020_Node000002" class="edge">
<title>Node20&#45;&gt;Node2</title>
<g id="a_edge27_Node000020_Node000002"><a xlink:title=" ">
<path fill="none" stroke="#63b8ff" d="M261.94,-363.18C273.19,-388.49 304.74,-452.01 351,-485.38 371.23,-499.96 436.6,-516.68 477.1,-526.04"/>
<polygon fill="#63b8ff" stroke="#63b8ff" points="476.3,-529.45 486.83,-528.25 477.85,-522.62 476.3,-529.45"/>
</a>
</g>
</g>
<!-- Node20&#45;&gt;Node6 -->
<g id="edge37_Node000020_Node000006" class="edge">
<title>Node20&#45;&gt;Node6</title>
<g id="a_edge37_Node000020_Node000006"><a xlink:title=" ">
<path fill="none" stroke="#63b8ff" d="M296.73,-346.68C354.15,-340.26 462.72,-335.38 542.75,-375.38 627.21,-417.58 622.91,-465.45 704.25,-513.38 709.54,-516.49 715.39,-519.27 721.23,-521.69"/>
<polygon fill="#63b8ff" stroke="#63b8ff" points="719.6,-524.81 730.19,-525.12 722.11,-518.27 719.6,-524.81"/>
</a>
</g>
</g>
<!-- Node20&#45;&gt;Node7 -->
<g id="edge28_Node000020_Node000007" class="edge">
<title>Node20&#45;&gt;Node7</title>
<g id="a_edge28_Node000020_Node000007"><a xlink:title=" ">
<path fill="none" stroke="#63b8ff" d="M270.48,-363.1C294.42,-382.71 345.49,-424.51 374.78,-448.49"/>
<polygon fill="#63b8ff" stroke="#63b8ff" points="372.33,-451.01 382.29,-454.64 376.77,-445.59 372.33,-451.01"/>
</a>
</g>
</g>
<!-- Node20&#45;&gt;Node8 -->
<g id="edge34_Node000020_Node000008" class="edge">
<title>Node20&#45;&gt;Node8</title>
<g id="a_edge34_Node000020_Node000008"><a xlink:title=" ">
<path fill="none" stroke="#63b8ff" d="M296.45,-353.7C334.55,-355.62 393.94,-360.24 444.25,-371.38 453.82,-373.49 463.92,-376.55 473.28,-379.75"/>
<polygon fill="#63b8ff" stroke="#63b8ff" points="471.81,-382.95 482.41,-383.02 474.17,-376.36 471.81,-382.95"/>
</a>
</g>
</g>
<!-- Node20&#45;&gt;Node11 -->
<g id="edge29_Node000020_Node000011" class="edge">
<title>Node20&#45;&gt;Node11</title>
<g id="a_edge29_Node000020_Node000011"><a xlink:title=" ">
<path fill="none" stroke="#63b8ff" d="M296.65,-345.21C303.64,-342.29 310.21,-338.17 315,-332.38 385.17,-247.59 314.26,-191.12 351,-87.38 358.33,-66.67 371.48,-45.35 381.79,-30.41"/>
<polygon fill="#63b8ff" stroke="#63b8ff" points="384.54,-32.58 387.48,-22.4 378.83,-28.52 384.54,-32.58"/>
</a>
</g>
</g>
<!-- Node20&#45;&gt;Node13 -->
<g id="edge30_Node000020_Node000013" class="edge">
<title>Node20&#45;&gt;Node13</title>
<g id="a_edge30_Node000020_Node000013"><a xlink:title=" ">
<path fill="none" stroke="#63b8ff" d="M295.52,-341.52C302.22,-338.95 308.97,-335.91 315,-332.38 333.47,-321.55 333.81,-313.13 351,-300.38 356.35,-296.4 362.29,-292.45 368.06,-288.83"/>
<polygon fill="#63b8ff" stroke="#63b8ff" points="369.47,-292.07 376.2,-283.88 365.84,-286.09 369.47,-292.07"/>
</a>
</g>
</g>
<!-- Node20&#45;&gt;Node14 -->
<g id="edge31_Node000020_Node000014" class="edge">
<title>Node20&#45;&gt;Node14</title>
<g id="a_edge31_Node000020_Node000014"><a xlink:title=" ">
<path fill="none" stroke="#63b8ff" d="M296.65,-343.58C303.31,-340.8 309.75,-337.15 315,-332.38 343.53,-306.4 325.21,-282.08 351,-253.38 354.41,-249.58 358.49,-246.15 362.79,-243.13"/>
<polygon fill="#63b8ff" stroke="#63b8ff" points="364.46,-246.21 371.07,-237.93 360.74,-240.28 364.46,-246.21"/>
</a>
</g>
</g>
<!-- Node20&#45;&gt;Node15 -->
<g id="edge32_Node000020_Node000015" class="edge">
<title>Node20&#45;&gt;Node15</title>
<g id="a_edge32_Node000020_Node000015"><a xlink:title=" ">
<path fill="none" stroke="#63b8ff" d="M260.95,-363.05C270.98,-391.57 301.87,-470.66 351,-518.38 353.78,-521.08 356.93,-523.55 360.23,-525.8"/>
<polygon fill="#63b8ff" stroke="#63b8ff" points="358.14,-528.62 368.52,-530.75 361.73,-522.61 358.14,-528.62"/>
</a>
</g>
</g>
<!-- Node20&#45;&gt;Node16 -->
<g id="edge33_Node000020_Node000016" class="edge">
<title>Node20&#45;&gt;Node16</title>
<g id="a_edge33_Node000020_Node000016"><a xlink:title=" ">
<path fill="none" stroke="#63b8ff" d="M296.53,-363.06C311.83,-367.23 329.57,-372.08 345.82,-376.51"/>
<polygon fill="#63b8ff" stroke="#63b8ff" points="344.76,-379.85 355.33,-379.11 346.61,-373.1 344.76,-379.85"/>
</a>
</g>
</g>
<!-- Node20&#45;&gt;Node17 -->
<g id="edge35_Node000020_Node000017" class="edge">
<title>Node20&#45;&gt;Node17</title>
<g id="a_edge35_Node000020_Node000017"><a xlink:title=" ">
<path fill="none" stroke="#63b8ff" d="M296.65,-344.44C303.47,-341.58 309.97,-337.68 315,-332.38 354.77,-290.41 318.1,-254.91 351,-207.38 355.53,-200.83 361.74,-195.03 368.11,-190.16"/>
<polygon fill="#63b8ff" stroke="#63b8ff" points="369.93,-193.16 376.15,-184.58 365.94,-187.41 369.93,-193.16"/>
</a>
</g>
</g>
<!-- Node20&#45;&gt;Node18 -->
<g id="edge36_Node000020_Node000018" class="edge">
<title>Node20&#45;&gt;Node18</title>
<g id="a_edge36_Node000020_Node000018"><a xlink:title=" ">
<path fill="none" stroke="#63b8ff" d="M296.71,-344.88C303.6,-341.98 310.12,-337.96 315,-332.38 368.11,-271.6 313.74,-225.97 351,-154.38 356.81,-143.21 366,-132.81 374.61,-124.57"/>
<polygon fill="#63b8ff" stroke="#63b8ff" points="376.69,-127.41 381.76,-118.11 371.99,-122.22 376.69,-127.41"/>
</a>
</g>
</g>
<!-- Node20&#45;&gt;Node19 -->
<g id="edge38_Node000020_Node000019" class="edge">
<title>Node20&#45;&gt;Node19</title>
<g id="a_edge38_Node000020_Node000019"><a xlink:title=" ">
<path fill="none" stroke="#63b8ff" d="M216,-346.08C198.58,-341.13 178.48,-334.48 162.55,-328.34"/>
<polygon fill="#63b8ff" stroke="#63b8ff" points="164.26,-325.26 153.68,-324.76 161.65,-331.75 164.26,-325.26"/>
</a>
</g>
</g>
</g>
</svg>
