<?xml version="1.0" encoding="UTF-8" standalone="no"?>
<!DOCTYPE svg PUBLIC "-//W3C//DTD SVG 1.1//EN"
 "http://www.w3.org/Graphics/SVG/1.1/DTD/svg11.dtd">
<!-- Generated by graphviz version 14.1.2 (0)
 -->
<!-- Title: init_menu_files Pages: 1 -->
<svg width="473pt" height="135pt"
 viewBox="0.00 0.00 473.00 135.00" xmlns="http://www.w3.org/2000/svg" xmlns:xlink="http://www.w3.org/1999/xlink">

<svg id="main" version="1.1" xmlns="http://www.w3.org/2000/svg" xmlns:xlink="http://www.w3.org/1999/xlink" xml:space="preserve">

<style type="text/css"><![CDATA[
.node, .edge {opacity: 0.7;}
.node.selected, .edge.selected {opacity: 1;}
.edge:hover path { stroke: red; }
.edge:hover polygon { stroke: red; fill: red; }
]]></style>
<script type="application/ecmascript" xlink:href="../../svg.min.js"/>
<svg id="graph" class="graph">
<g id="graph0" class="graph" transform="scale(1 1) rotate(0) translate(4 130.75)">
<title>init_menu_files</title>
<!-- Node1 -->
<g id="Node000001" class="node">
<title>Node1</title>
<g id="a_Node000001"><a xlink:title="Initialize Menu file specifications.">
<polygon fill="#999999" stroke="#666666" points="91,-59.75 0,-59.75 0,-39 91,-39 91,-59.75"/>
<text xml:space="preserve" text-anchor="middle" x="45.5" y="-46.25" font-family="Helvetica,sans-Serif" font-size="10.00">init_menu_files</text>
</a>
</g>
</g>
<!-- Node2 -->
<g id="Node000002" class="node">
<title>Node2</title>
<g id="a_Node000002"><a xlink:href="../../de/d25/a00290.html#a8f6c45ca4a7f6a41c4c88314e697565a" target="_top" xlink:title="Abnormal program termination.">
<polygon fill="white" stroke="#666666" points="183.88,-98.75 137.88,-98.75 137.88,-78 183.88,-78 183.88,-98.75"/>
<text xml:space="preserve" text-anchor="middle" x="160.88" y="-85.25" font-family="Helvetica,sans-Serif" font-size="10.00">abend</text>
</a>
</g>
</g>
<!-- Node1&#45;&gt;Node2 -->
<g id="edge1_Node000001_Node000002" class="edge">
<title>Node1&#45;&gt;Node2</title>
<g id="a_edge1_Node000001_Node000002"><a xlink:title=" ">
<path fill="none" stroke="#63b8ff" d="M78.08,-60.24C93.27,-65.46 111.46,-71.72 126.83,-77.01"/>
<polygon fill="#63b8ff" stroke="#63b8ff" points="125.42,-80.22 136.01,-80.17 127.69,-73.6 125.42,-80.22"/>
</a>
</g>
</g>
<!-- Node6 -->
<g id="Node000006" class="node">
<title>Node6</title>
<g id="a_Node000006"><a xlink:href="../../db/dc3/a00284.html#aa0145c044cfdde3a1c83323410a59f25" target="_top" xlink:title="safer alternative to strncat">
<polygon fill="white" stroke="#666666" points="193.62,-59.75 128.12,-59.75 128.12,-39 193.62,-39 193.62,-59.75"/>
<text xml:space="preserve" text-anchor="middle" x="160.88" y="-46.25" font-family="Helvetica,sans-Serif" font-size="10.00">strnz__cat</text>
</a>
</g>
</g>
<!-- Node1&#45;&gt;Node6 -->
<g id="edge7_Node000001_Node000006" class="edge">
<title>Node1&#45;&gt;Node6</title>
<g id="a_edge7_Node000001_Node000006"><a xlink:title=" ">
<path fill="none" stroke="#63b8ff" d="M91.31,-49.38C99.64,-49.38 108.33,-49.38 116.61,-49.38"/>
<polygon fill="#63b8ff" stroke="#63b8ff" points="116.45,-52.88 126.45,-49.38 116.45,-45.88 116.45,-52.88"/>
</a>
</g>
</g>
<!-- Node7 -->
<g id="Node000007" class="node">
<title>Node7</title>
<g id="a_Node000007"><a xlink:href="../../db/dc3/a00284.html#a0de2e40df9bd7efc8fd9afb8ad2257e6" target="_top" xlink:title="safer alternative to strncpy">
<polygon fill="white" stroke="#666666" points="194.75,-20.75 127,-20.75 127,0 194.75,0 194.75,-20.75"/>
<text xml:space="preserve" text-anchor="middle" x="160.88" y="-7.25" font-family="Helvetica,sans-Serif" font-size="10.00">strnz__cpy</text>
</a>
</g>
</g>
<!-- Node1&#45;&gt;Node7 -->
<g id="edge8_Node000001_Node000007" class="edge">
<title>Node1&#45;&gt;Node7</title>
<g id="a_edge8_Node000001_Node000007"><a xlink:title=" ">
<path fill="none" stroke="#63b8ff" d="M78.08,-38.51C90.37,-34.29 104.62,-29.38 117.76,-24.86"/>
<polygon fill="#63b8ff" stroke="#63b8ff" points="118.71,-28.24 127.03,-21.67 116.44,-21.62 118.71,-28.24"/>
</a>
</g>
</g>
<!-- Node3 -->
<g id="Node000003" class="node">
<title>Node3</title>
<g id="a_Node000003"><a xlink:href="../../de/d25/a00290.html#afc0985a403e3eac0b2cd8f0fab500256" target="_top" xlink:title="Gracefully shut down NCurses and restore terminal settings.">
<polygon fill="white" stroke="#666666" points="320.25,-98.75 230.75,-98.75 230.75,-78 320.25,-78 320.25,-98.75"/>
<text xml:space="preserve" text-anchor="middle" x="275.5" y="-85.25" font-family="Helvetica,sans-Serif" font-size="10.00">destroy_curses</text>
</a>
</g>
</g>
<!-- Node2&#45;&gt;Node3 -->
<g id="edge2_Node000002_Node000003" class="edge">
<title>Node2&#45;&gt;Node3</title>
<g id="a_edge2_Node000002_Node000003"><a xlink:title=" ">
<path fill="none" stroke="#63b8ff" d="M184.13,-88.38C194.24,-88.38 206.69,-88.38 219.09,-88.38"/>
<polygon fill="#63b8ff" stroke="#63b8ff" points="218.88,-91.88 228.88,-88.38 218.88,-84.88 218.88,-91.88"/>
</a>
</g>
</g>
<!-- Node4 -->
<g id="Node000004" class="node">
<title>Node4</title>
<g id="a_Node000004"><a xlink:href="../../db/d7b/a00296.html#ac5e3adb304b78910fc77761ef6a743f0" target="_top" xlink:title="restore_shell_tioctl() &#45; restore shell terminal settings">
<polygon fill="white" stroke="#666666" points="465.25,-126.75 356.25,-126.75 356.25,-106 465.25,-106 465.25,-126.75"/>
<text xml:space="preserve" text-anchor="middle" x="410.75" y="-113.25" font-family="Helvetica,sans-Serif" font-size="10.00">restore_shell_tioctl</text>
</a>
</g>
</g>
<!-- Node2&#45;&gt;Node4 -->
<g id="edge5_Node000002_Node000004" class="edge">
<title>Node2&#45;&gt;Node4</title>
<g id="a_edge5_Node000002_Node000004"><a xlink:title=" ">
<path fill="none" stroke="#63b8ff" d="M184.25,-95.88C197.59,-100.03 214.95,-104.83 230.75,-107.38 268.15,-113.4 310.46,-115.73 344.55,-116.52"/>
<polygon fill="#63b8ff" stroke="#63b8ff" points="344.2,-120.01 354.26,-116.7 344.33,-113.01 344.2,-120.01"/>
</a>
</g>
</g>
<!-- Node5 -->
<g id="Node000005" class="node">
<title>Node5</title>
<g id="a_Node000005"><a xlink:href="../../dd/dd7/a00248.html#a06c1eb6cf3649dc187115565409f91af" target="_top" xlink:title="Set signal handlers to default behavior.">
<polygon fill="white" stroke="#666666" points="451.38,-78.75 370.12,-78.75 370.12,-58 451.38,-58 451.38,-78.75"/>
<text xml:space="preserve" text-anchor="middle" x="410.75" y="-65.25" font-family="Helvetica,sans-Serif" font-size="10.00">sig_dfl_mode</text>
</a>
</g>
</g>
<!-- Node2&#45;&gt;Node5 -->
<g id="edge6_Node000002_Node000005" class="edge">
<title>Node2&#45;&gt;Node5</title>
<g id="a_edge6_Node000002_Node000005"><a xlink:title=" ">
<path fill="none" stroke="#63b8ff" d="M184.21,-80.6C197.53,-76.37 214.9,-71.57 230.75,-69.38 273.53,-63.46 322.61,-63.67 358.54,-65.1"/>
<polygon fill="#63b8ff" stroke="#63b8ff" points="358.06,-68.58 368.21,-65.54 358.38,-61.59 358.06,-68.58"/>
</a>
</g>
</g>
<!-- Node3&#45;&gt;Node4 -->
<g id="edge3_Node000003_Node000004" class="edge">
<title>Node3&#45;&gt;Node4</title>
<g id="a_edge3_Node000003_Node000004"><a xlink:title=" ">
<path fill="none" stroke="#63b8ff" d="M320.5,-97.62C329.12,-99.43 338.32,-101.37 347.41,-103.28"/>
<polygon fill="#63b8ff" stroke="#63b8ff" points="346.41,-106.64 356.92,-105.27 347.85,-99.79 346.41,-106.64"/>
</a>
</g>
</g>
<!-- Node3&#45;&gt;Node5 -->
<g id="edge4_Node000003_Node000005" class="edge">
<title>Node3&#45;&gt;Node5</title>
<g id="a_edge4_Node000003_Node000005"><a xlink:title=" ">
<path fill="none" stroke="#63b8ff" d="M320.5,-81.77C332.69,-79.94 346.02,-77.94 358.58,-76.06"/>
<polygon fill="#63b8ff" stroke="#63b8ff" points="358.98,-79.54 368.35,-74.59 357.94,-72.61 358.98,-79.54"/>
</a>
</g>
</g>
</g>
</svg>
</svg>

<style type='text/css'>
<![CDATA[
[data-mouse-over-selected='false'] { opacity: 0.7; }
[data-mouse-over-selected='true']  { opacity: 1.0; }
]]>
</style>
<script type="application/ecmascript"><![CDATA[
document.addEventListener('DOMContentLoaded', (event) => {
  highlightEdges();
  highlightAdjacentNodes();
});
]]></script>
</svg>
