<?xml version="1.0" encoding="UTF-8" standalone="no"?>
<!DOCTYPE svg PUBLIC "-//W3C//DTD SVG 1.1//EN"
 "http://www.w3.org/Graphics/SVG/1.1/DTD/svg11.dtd">
<!-- Generated by graphviz version 14.1.2 (0)
 -->
<!-- Title: new_menu Pages: 1 -->
<svg width="430pt" height="77pt"
 viewBox="0.00 0.00 430.00 77.00" xmlns="http://www.w3.org/2000/svg" xmlns:xlink="http://www.w3.org/1999/xlink">

<svg id="main" version="1.1" xmlns="http://www.w3.org/2000/svg" xmlns:xlink="http://www.w3.org/1999/xlink" xml:space="preserve">

<style type="text/css"><![CDATA[
.node, .edge {opacity: 0.7;}
.node.selected, .edge.selected {opacity: 1;}
.edge:hover path { stroke: red; }
.edge:hover polygon { stroke: red; fill: red; }
]]></style>
<script type="application/ecmascript" xlink:href="../../svg.min.js"/>
<svg id="graph" class="graph">
<g id="graph0" class="graph" transform="scale(1 1) rotate(0) translate(4 72.75)">
<title>new_menu</title>
<!-- Node1 -->
<g id="Node000001" class="node">
<title>Node1</title>
<g id="a_Node000001"><a xlink:title="Create and initialize Menu structure.">
<polygon fill="#999999" stroke="#666666" points="69.25,-40.75 0,-40.75 0,-20 69.25,-20 69.25,-40.75"/>
<text xml:space="preserve" text-anchor="middle" x="34.62" y="-27.25" font-family="Helvetica,sans-Serif" font-size="10.00">new_menu</text>
</a>
</g>
</g>
<!-- Node2 -->
<g id="Node000002" class="node">
<title>Node2</title>
<g id="a_Node000002"><a xlink:href="../../de/d25/a00290.html#a8f6c45ca4a7f6a41c4c88314e697565a" target="_top" xlink:title="Abnormal program termination.">
<polygon fill="white" stroke="#666666" points="151.25,-40.75 105.25,-40.75 105.25,-20 151.25,-20 151.25,-40.75"/>
<text xml:space="preserve" text-anchor="middle" x="128.25" y="-27.25" font-family="Helvetica,sans-Serif" font-size="10.00">abend</text>
</a>
</g>
</g>
<!-- Node1&#45;&gt;Node2 -->
<g id="edge1_Node000001_Node000002" class="edge">
<title>Node1&#45;&gt;Node2</title>
<g id="a_edge1_Node000001_Node000002"><a xlink:title=" ">
<path fill="none" stroke="#63b8ff" d="M69.74,-30.38C77.51,-30.38 85.77,-30.38 93.52,-30.38"/>
<polygon fill="#63b8ff" stroke="#63b8ff" points="93.27,-33.88 103.27,-30.38 93.27,-26.88 93.27,-33.88"/>
</a>
</g>
</g>
<!-- Node3 -->
<g id="Node000003" class="node">
<title>Node3</title>
<g id="a_Node000003"><a xlink:href="../../de/d25/a00290.html#afc0985a403e3eac0b2cd8f0fab500256" target="_top" xlink:title="Gracefully shut down NCurses and restore terminal settings.">
<polygon fill="white" stroke="#666666" points="276.75,-40.75 187.25,-40.75 187.25,-20 276.75,-20 276.75,-40.75"/>
<text xml:space="preserve" text-anchor="middle" x="232" y="-27.25" font-family="Helvetica,sans-Serif" font-size="10.00">destroy_curses</text>
</a>
</g>
</g>
<!-- Node2&#45;&gt;Node3 -->
<g id="edge2_Node000002_Node000003" class="edge">
<title>Node2&#45;&gt;Node3</title>
<g id="a_edge2_Node000002_Node000003"><a xlink:title=" ">
<path fill="none" stroke="#63b8ff" d="M151.58,-30.38C158.82,-30.38 167.2,-30.38 175.75,-30.38"/>
<polygon fill="#63b8ff" stroke="#63b8ff" points="175.48,-33.88 185.48,-30.38 175.48,-26.88 175.48,-33.88"/>
</a>
</g>
</g>
<!-- Node4 -->
<g id="Node000004" class="node">
<title>Node4</title>
<g id="a_Node000004"><a xlink:href="../../db/d7b/a00296.html#ac5e3adb304b78910fc77761ef6a743f0" target="_top" xlink:title="restore_shell_tioctl() &#45; restore shell terminal settings">
<polygon fill="white" stroke="#666666" points="421.75,-68.75 312.75,-68.75 312.75,-48 421.75,-48 421.75,-68.75"/>
<text xml:space="preserve" text-anchor="middle" x="367.25" y="-55.25" font-family="Helvetica,sans-Serif" font-size="10.00">restore_shell_tioctl</text>
</a>
</g>
</g>
<!-- Node2&#45;&gt;Node4 -->
<g id="edge5_Node000002_Node000004" class="edge">
<title>Node2&#45;&gt;Node4</title>
<g id="a_edge5_Node000002_Node000004"><a xlink:title=" ">
<path fill="none" stroke="#63b8ff" d="M151.75,-39.29C162.35,-43.09 175.27,-47.15 187.25,-49.38 224.63,-56.31 267.11,-58.67 301.3,-59.25"/>
<polygon fill="#63b8ff" stroke="#63b8ff" points="301,-62.75 311.04,-59.37 301.08,-55.75 301,-62.75"/>
</a>
</g>
</g>
<!-- Node5 -->
<g id="Node000005" class="node">
<title>Node5</title>
<g id="a_Node000005"><a xlink:href="../../dd/dd7/a00248.html#a06c1eb6cf3649dc187115565409f91af" target="_top" xlink:title="Set signal handlers to default behavior.">
<polygon fill="white" stroke="#666666" points="407.88,-20.75 326.62,-20.75 326.62,0 407.88,0 407.88,-20.75"/>
<text xml:space="preserve" text-anchor="middle" x="367.25" y="-7.25" font-family="Helvetica,sans-Serif" font-size="10.00">sig_dfl_mode</text>
</a>
</g>
</g>
<!-- Node2&#45;&gt;Node5 -->
<g id="edge6_Node000002_Node000005" class="edge">
<title>Node2&#45;&gt;Node5</title>
<g id="a_edge6_Node000002_Node000005"><a xlink:title=" ">
<path fill="none" stroke="#63b8ff" d="M151.71,-21.21C162.3,-17.36 175.22,-13.33 187.25,-11.38 229.88,-4.45 278.97,-4.75 314.95,-6.47"/>
<polygon fill="#63b8ff" stroke="#63b8ff" points="314.46,-9.95 324.63,-6.99 314.83,-2.96 314.46,-9.95"/>
</a>
</g>
</g>
<!-- Node3&#45;&gt;Node4 -->
<g id="edge3_Node000003_Node000004" class="edge">
<title>Node3&#45;&gt;Node4</title>
<g id="a_edge3_Node000003_Node000004"><a xlink:title=" ">
<path fill="none" stroke="#63b8ff" d="M277,-39.62C285.62,-41.43 294.82,-43.37 303.91,-45.28"/>
<polygon fill="#63b8ff" stroke="#63b8ff" points="302.91,-48.64 313.42,-47.27 304.35,-41.79 302.91,-48.64"/>
</a>
</g>
</g>
<!-- Node3&#45;&gt;Node5 -->
<g id="edge4_Node000003_Node000005" class="edge">
<title>Node3&#45;&gt;Node5</title>
<g id="a_edge4_Node000003_Node000005"><a xlink:title=" ">
<path fill="none" stroke="#63b8ff" d="M277,-23.77C289.19,-21.94 302.52,-19.94 315.08,-18.06"/>
<polygon fill="#63b8ff" stroke="#63b8ff" points="315.48,-21.54 324.85,-16.59 314.44,-14.61 315.48,-21.54"/>
</a>
</g>
</g>
</g>
</svg>
</svg>

<style type='text/css'>
<![CDATA[
[data-mouse-over-selected='false'] { opacity: 0.7; }
[data-mouse-over-selected='true']  { opacity: 1.0; }
]]>
</style>
<script type="application/ecmascript"><![CDATA[
document.addEventListener('DOMContentLoaded', (event) => {
  highlightEdges();
  highlightAdjacentNodes();
});
]]></script>
</svg>
