<?xml version="1.0" encoding="UTF-8" standalone="no"?>
<!DOCTYPE svg PUBLIC "-//W3C//DTD SVG 1.1//EN"
 "http://www.w3.org/Graphics/SVG/1.1/DTD/svg11.dtd">
<!-- Generated by graphviz version 14.1.2 (0)
 -->
<!-- Title: new_pick Pages: 1 -->
<svg width="714pt" height="456pt"
 viewBox="0.00 0.00 714.00 456.00" xmlns="http://www.w3.org/2000/svg" xmlns:xlink="http://www.w3.org/1999/xlink">
<g id="graph0" class="graph" transform="scale(1 1) rotate(0) translate(4 452.22)">
<title>new_pick</title>
<!-- Node1 -->
<g id="Node000001" class="node">
<title>Node1</title>
<g id="a_Node000001"><a xlink:title="Create and initialize Pick structure.">
<polygon fill="#999999" stroke="#666666" points="61.75,-237.21 0,-237.21 0,-216.46 61.75,-216.46 61.75,-237.21"/>
<text xml:space="preserve" text-anchor="middle" x="30.88" y="-223.71" font-family="Helvetica,sans-Serif" font-size="10.00">new_pick</text>
</a>
</g>
</g>
<!-- Node2 -->
<g id="Node000002" class="node">
<title>Node2</title>
<g id="a_Node000002"><a xlink:href="../../de/d25/a00290.html#a8f6c45ca4a7f6a41c4c88314e697565a" target="_top" xlink:title="Abnormal program termination.">
<polygon fill="white" stroke="#666666" points="412,-391.21 366,-391.21 366,-370.46 412,-370.46 412,-391.21"/>
<text xml:space="preserve" text-anchor="middle" x="389" y="-377.71" font-family="Helvetica,sans-Serif" font-size="10.00">abend</text>
</a>
</g>
</g>
<!-- Node1&#45;&gt;Node2 -->
<g id="edge1_Node000001_Node000002" class="edge">
<title>Node1&#45;&gt;Node2</title>
<g id="a_edge1_Node000001_Node000002"><a xlink:title=" ">
<path fill="none" stroke="#63b8ff" d="M36.98,-237.69C54.91,-274.35 119.03,-393.63 213.5,-436.83 251.19,-454.06 267.18,-449.15 306.75,-436.83 330.54,-429.43 353.53,-412.36 368.94,-399"/>
<polygon fill="#63b8ff" stroke="#63b8ff" points="370.88,-401.96 375.97,-392.67 366.19,-396.76 370.88,-401.96"/>
</a>
</g>
</g>
<!-- Node6 -->
<g id="Node000006" class="node">
<title>Node6</title>
<g id="a_Node000006"><a xlink:href="../../de/d25/a00290.html#a67659f8a701b74f4dec0d36227a10d1c" target="_top" xlink:title="Display an error message window or print to stderr.">
<polygon fill="white" stroke="#666666" points="177.5,-180.21 97.75,-180.21 97.75,-159.46 177.5,-159.46 177.5,-180.21"/>
<text xml:space="preserve" text-anchor="middle" x="137.62" y="-166.71" font-family="Helvetica,sans-Serif" font-size="10.00">display_error</text>
</a>
</g>
</g>
<!-- Node1&#45;&gt;Node6 -->
<g id="edge7_Node000001_Node000006" class="edge">
<title>Node1&#45;&gt;Node6</title>
<g id="a_edge7_Node000001_Node000006"><a xlink:title=" ">
<path fill="none" stroke="#63b8ff" d="M51.58,-216.11C67.13,-207.64 89.09,-195.7 106.8,-186.06"/>
<polygon fill="#63b8ff" stroke="#63b8ff" points="108.21,-189.28 115.33,-181.42 104.87,-183.13 108.21,-189.28"/>
</a>
</g>
</g>
<!-- Node12 -->
<g id="Node000012" class="node">
<title>Node12</title>
<g id="a_Node000012"><a xlink:href="../../db/dc3/a00284.html#a63eb94756fb011a456a3dec900709cd8" target="_top" xlink:title="ssnprintf was designed to be a safer alternative to snprintf.">
<polygon fill="white" stroke="#666666" points="418.38,-45.21 359.62,-45.21 359.62,-24.46 418.38,-24.46 418.38,-45.21"/>
<text xml:space="preserve" text-anchor="middle" x="389" y="-31.71" font-family="Helvetica,sans-Serif" font-size="10.00">ssnprintf</text>
</a>
</g>
</g>
<!-- Node1&#45;&gt;Node12 -->
<g id="edge36_Node000001_Node000012" class="edge">
<title>Node1&#45;&gt;Node12</title>
<g id="a_edge36_Node000001_Node000012"><a xlink:title=" ">
<path fill="none" stroke="#63b8ff" d="M36.64,-216.19C53.93,-179.14 117.34,-55.61 213.5,-10.83 259.1,10.4 318.14,-5.56 354.53,-19.68"/>
<polygon fill="#63b8ff" stroke="#63b8ff" points="353.07,-22.87 363.65,-23.39 355.7,-16.38 353.07,-22.87"/>
</a>
</g>
</g>
<!-- Node19 -->
<g id="Node000019" class="node">
<title>Node19</title>
<g id="a_Node000019"><a xlink:href="../../de/d25/a00290.html#a61b4f28456257f68ed042bed7f187efd" target="_top" xlink:title="Display a simple error message window or print to stderr.">
<polygon fill="white" stroke="#666666" points="160.25,-276.21 115,-276.21 115,-255.46 160.25,-255.46 160.25,-276.21"/>
<text xml:space="preserve" text-anchor="middle" x="137.62" y="-262.71" font-family="Helvetica,sans-Serif" font-size="10.00">Perror</text>
</a>
</g>
</g>
<!-- Node1&#45;&gt;Node19 -->
<g id="edge25_Node000001_Node000019" class="edge">
<title>Node1&#45;&gt;Node19</title>
<g id="a_edge25_Node000001_Node000019"><a xlink:title=" ">
<path fill="none" stroke="#63b8ff" d="M61.05,-237.69C74.43,-242.67 90.33,-248.6 104.09,-253.72"/>
<polygon fill="#63b8ff" stroke="#63b8ff" points="102.57,-256.88 113.16,-257.09 105.01,-250.32 102.57,-256.88"/>
</a>
</g>
</g>
<!-- Node3 -->
<g id="Node000003" class="node">
<title>Node3</title>
<g id="a_Node000003"><a xlink:href="../../de/d25/a00290.html#afc0985a403e3eac0b2cd8f0fab500256" target="_top" xlink:title="Gracefully shut down NCurses and restore terminal settings.">
<polygon fill="white" stroke="#666666" points="560.75,-391.21 471.25,-391.21 471.25,-370.46 560.75,-370.46 560.75,-391.21"/>
<text xml:space="preserve" text-anchor="middle" x="516" y="-377.71" font-family="Helvetica,sans-Serif" font-size="10.00">destroy_curses</text>
</a>
</g>
</g>
<!-- Node2&#45;&gt;Node3 -->
<g id="edge2_Node000002_Node000003" class="edge">
<title>Node2&#45;&gt;Node3</title>
<g id="a_edge2_Node000002_Node000003"><a xlink:title=" ">
<path fill="none" stroke="#63b8ff" d="M412.35,-380.83C425.53,-380.83 442.84,-380.83 459.48,-380.83"/>
<polygon fill="#63b8ff" stroke="#63b8ff" points="459.32,-384.33 469.32,-380.83 459.32,-377.33 459.32,-384.33"/>
</a>
</g>
</g>
<!-- Node4 -->
<g id="Node000004" class="node">
<title>Node4</title>
<g id="a_Node000004"><a xlink:href="../../db/d7b/a00296.html#ac5e3adb304b78910fc77761ef6a743f0" target="_top" xlink:title="restore_shell_tioctl() &#45; restore shell terminal settings">
<polygon fill="white" stroke="#666666" points="705.75,-419.21 596.75,-419.21 596.75,-398.46 705.75,-398.46 705.75,-419.21"/>
<text xml:space="preserve" text-anchor="middle" x="651.25" y="-405.71" font-family="Helvetica,sans-Serif" font-size="10.00">restore_shell_tioctl</text>
</a>
</g>
</g>
<!-- Node2&#45;&gt;Node4 -->
<g id="edge5_Node000002_Node000004" class="edge">
<title>Node2&#45;&gt;Node4</title>
<g id="a_edge5_Node000002_Node000004"><a xlink:title=" ">
<path fill="none" stroke="#63b8ff" d="M412.21,-387.16C428.43,-391.51 451.02,-396.98 471.25,-399.83 508.76,-405.12 551.07,-407.41 585.14,-408.36"/>
<polygon fill="#63b8ff" stroke="#63b8ff" points="584.76,-411.85 594.84,-408.6 584.93,-404.86 584.76,-411.85"/>
</a>
</g>
</g>
<!-- Node5 -->
<g id="Node000005" class="node">
<title>Node5</title>
<g id="a_Node000005"><a xlink:href="../../dd/dd7/a00248.html#a06c1eb6cf3649dc187115565409f91af" target="_top" xlink:title="Set signal handlers to default behavior.">
<polygon fill="white" stroke="#666666" points="691.88,-371.21 610.62,-371.21 610.62,-350.46 691.88,-350.46 691.88,-371.21"/>
<text xml:space="preserve" text-anchor="middle" x="651.25" y="-357.71" font-family="Helvetica,sans-Serif" font-size="10.00">sig_dfl_mode</text>
</a>
</g>
</g>
<!-- Node2&#45;&gt;Node5 -->
<g id="edge6_Node000002_Node000005" class="edge">
<title>Node2&#45;&gt;Node5</title>
<g id="a_edge6_Node000002_Node000005"><a xlink:title=" ">
<path fill="none" stroke="#63b8ff" d="M412.18,-374.22C428.38,-369.75 450.97,-364.23 471.25,-361.83 514.14,-356.76 563.21,-356.9 599.11,-358.09"/>
<polygon fill="#63b8ff" stroke="#63b8ff" points="598.64,-361.57 608.77,-358.45 598.9,-354.58 598.64,-361.57"/>
</a>
</g>
</g>
<!-- Node3&#45;&gt;Node4 -->
<g id="edge3_Node000003_Node000004" class="edge">
<title>Node3&#45;&gt;Node4</title>
<g id="a_edge3_Node000003_Node000004"><a xlink:title=" ">
<path fill="none" stroke="#63b8ff" d="M561,-390.08C569.62,-391.89 578.82,-393.82 587.91,-395.73"/>
<polygon fill="#63b8ff" stroke="#63b8ff" points="586.91,-399.1 597.42,-397.73 588.35,-392.25 586.91,-399.1"/>
</a>
</g>
</g>
<!-- Node3&#45;&gt;Node5 -->
<g id="edge4_Node000003_Node000005" class="edge">
<title>Node3&#45;&gt;Node5</title>
<g id="a_edge4_Node000003_Node000005"><a xlink:title=" ">
<path fill="none" stroke="#63b8ff" d="M561,-374.23C573.19,-372.4 586.52,-370.4 599.08,-368.51"/>
<polygon fill="#63b8ff" stroke="#63b8ff" points="599.48,-371.99 608.85,-367.05 598.44,-365.07 599.48,-371.99"/>
</a>
</g>
</g>
<!-- Node6&#45;&gt;Node2 -->
<g id="edge8_Node000006_Node000002" class="edge">
<title>Node6&#45;&gt;Node2</title>
<g id="a_edge8_Node000006_Node000002"><a xlink:title=" ">
<path fill="none" stroke="#63b8ff" d="M177.65,-168.6C215.07,-169.52 271,-176.66 306.75,-207.83 341.09,-237.78 323.13,-262.7 342.75,-303.83 352.3,-323.84 365.3,-345.52 374.91,-360.77"/>
<polygon fill="#63b8ff" stroke="#63b8ff" points="371.79,-362.38 380.13,-368.91 377.69,-358.6 371.79,-362.38"/>
</a>
</g>
</g>
<!-- Node7 -->
<g id="Node000007" class="node">
<title>Node7</title>
<g id="a_Node000007"><a xlink:href="../../de/d25/a00290.html#a645871e46277e31736bc36d0f3dce4bd" target="_top" xlink:title="construct the chyron string from the chyron structure">
<polygon fill="white" stroke="#666666" points="306.75,-161.21 213.5,-161.21 213.5,-140.46 306.75,-140.46 306.75,-161.21"/>
<text xml:space="preserve" text-anchor="middle" x="260.12" y="-147.71" font-family="Helvetica,sans-Serif" font-size="10.00">compile_chyron</text>
</a>
</g>
</g>
<!-- Node6&#45;&gt;Node7 -->
<g id="edge9_Node000006_Node000007" class="edge">
<title>Node6&#45;&gt;Node7</title>
<g id="a_edge9_Node000006_Node000007"><a xlink:title=" ">
<path fill="none" stroke="#63b8ff" d="M177.75,-163.66C185.41,-162.45 193.59,-161.16 201.7,-159.88"/>
<polygon fill="#63b8ff" stroke="#63b8ff" points="202.24,-163.34 211.57,-158.33 201.15,-156.43 202.24,-163.34"/>
</a>
</g>
</g>
<!-- Node9 -->
<g id="Node000009" class="node">
<title>Node9</title>
<g id="a_Node000009"><a xlink:href="../../de/d25/a00290.html#a3f3feb40fd703913c5c136331f627c91" target="_top" xlink:title="Destroy Chyron structure.">
<polygon fill="white" stroke="#666666" points="305.62,-237.21 214.62,-237.21 214.62,-216.46 305.62,-216.46 305.62,-237.21"/>
<text xml:space="preserve" text-anchor="middle" x="260.12" y="-223.71" font-family="Helvetica,sans-Serif" font-size="10.00">destroy_chyron</text>
</a>
</g>
</g>
<!-- Node6&#45;&gt;Node9 -->
<g id="edge11_Node000006_Node000009" class="edge">
<title>Node6&#45;&gt;Node9</title>
<g id="a_edge11_Node000006_Node000009"><a xlink:title=" ">
<path fill="none" stroke="#63b8ff" d="M161.57,-180.69C179.83,-189.32 205.63,-201.52 226.11,-211.21"/>
<polygon fill="#63b8ff" stroke="#63b8ff" points="224.36,-214.26 234.89,-215.37 227.35,-207.93 224.36,-214.26"/>
</a>
</g>
</g>
<!-- Node10 -->
<g id="Node000010" class="node">
<title>Node10</title>
<g id="a_Node000010"><a xlink:href="../../de/d25/a00290.html#ad37d5808ff30ae6894780425d865abae" target="_top" xlink:title="Create and initialize Chyron structure.">
<polygon fill="white" stroke="#666666" points="297.38,-315.21 222.88,-315.21 222.88,-294.46 297.38,-294.46 297.38,-315.21"/>
<text xml:space="preserve" text-anchor="middle" x="260.12" y="-301.71" font-family="Helvetica,sans-Serif" font-size="10.00">new_chyron</text>
</a>
</g>
</g>
<!-- Node6&#45;&gt;Node10 -->
<g id="edge12_Node000006_Node000010" class="edge">
<title>Node6&#45;&gt;Node10</title>
<g id="a_edge12_Node000006_Node000010"><a xlink:title=" ">
<path fill="none" stroke="#63b8ff" d="M143.02,-180.5C152.66,-202.74 177.71,-254.47 213.5,-284.83 214.95,-286.06 216.49,-287.23 218.09,-288.33"/>
<polygon fill="#63b8ff" stroke="#63b8ff" points="216.05,-291.19 226.45,-293.23 219.59,-285.16 216.05,-291.19"/>
</a>
</g>
</g>
<!-- Node11 -->
<g id="Node000011" class="node">
<title>Node11</title>
<g id="a_Node000011"><a xlink:href="../../de/d25/a00290.html#a208ce92c197fdd6d2b007987e534aa3b" target="_top" xlink:title="Set chyron key.">
<polygon fill="white" stroke="#666666" points="306,-83.21 214.25,-83.21 214.25,-62.46 306,-62.46 306,-83.21"/>
<text xml:space="preserve" text-anchor="middle" x="260.12" y="-69.71" font-family="Helvetica,sans-Serif" font-size="10.00">set_chyron_key</text>
</a>
</g>
</g>
<!-- Node6&#45;&gt;Node11 -->
<g id="edge14_Node000006_Node000011" class="edge">
<title>Node6&#45;&gt;Node11</title>
<g id="a_edge14_Node000006_Node000011"><a xlink:title=" ">
<path fill="none" stroke="#63b8ff" d="M146.79,-159.1C159.53,-142.93 185.61,-112.17 213.5,-92.83 215.44,-91.48 217.49,-90.2 219.6,-88.97"/>
<polygon fill="#63b8ff" stroke="#63b8ff" points="221.14,-92.11 228.4,-84.4 217.92,-85.9 221.14,-92.11"/>
</a>
</g>
</g>
<!-- Node6&#45;&gt;Node12 -->
<g id="edge16_Node000006_Node000012" class="edge">
<title>Node6&#45;&gt;Node12</title>
<g id="a_edge16_Node000006_Node000012"><a xlink:title=" ">
<path fill="none" stroke="#63b8ff" d="M140.64,-158.98C146.35,-131.71 165.48,-60.41 213.5,-31.83 254.44,-7.47 310.92,-14.16 348.4,-22.96"/>
<polygon fill="#63b8ff" stroke="#63b8ff" points="347.37,-26.3 357.92,-25.35 349.08,-19.52 347.37,-26.3"/>
</a>
</g>
</g>
<!-- Node13 -->
<g id="Node000013" class="node">
<title>Node13</title>
<g id="a_Node000013"><a xlink:href="../../db/dc3/a00284.html#a0de2e40df9bd7efc8fd9afb8ad2257e6" target="_top" xlink:title="safer alternative to strncpy">
<polygon fill="white" stroke="#666666" points="422.88,-295.21 355.12,-295.21 355.12,-274.46 422.88,-274.46 422.88,-295.21"/>
<text xml:space="preserve" text-anchor="middle" x="389" y="-281.71" font-family="Helvetica,sans-Serif" font-size="10.00">strnz__cpy</text>
</a>
</g>
</g>
<!-- Node6&#45;&gt;Node13 -->
<g id="edge17_Node000006_Node000013" class="edge">
<title>Node6&#45;&gt;Node13</title>
<g id="a_edge17_Node000006_Node000013"><a xlink:title=" ">
<path fill="none" stroke="#63b8ff" d="M141.65,-159.26C149.16,-135.24 171.19,-76.88 213.5,-53.83 249.89,-34 275.08,-27.1 306.75,-53.83 379.46,-115.18 284.29,-189.78 342.75,-264.83 343.77,-266.14 344.9,-267.37 346.11,-268.52"/>
<polygon fill="#63b8ff" stroke="#63b8ff" points="343.69,-271.09 353.84,-274.13 347.8,-265.42 343.69,-271.09"/>
</a>
</g>
</g>
<!-- Node14 -->
<g id="Node000014" class="node">
<title>Node14</title>
<g id="a_Node000014"><a xlink:href="../../de/d25/a00290.html#a9dd598e1d49c8764af1eec42c682623e" target="_top" xlink:title="Delete the current window and its associated box window.">
<polygon fill="white" stroke="#666666" points="286.88,-354.21 233.38,-354.21 233.38,-333.46 286.88,-333.46 286.88,-354.21"/>
<text xml:space="preserve" text-anchor="middle" x="260.12" y="-340.71" font-family="Helvetica,sans-Serif" font-size="10.00">win_del</text>
</a>
</g>
</g>
<!-- Node6&#45;&gt;Node14 -->
<g id="edge18_Node000006_Node000014" class="edge">
<title>Node6&#45;&gt;Node14</title>
<g id="a_edge18_Node000006_Node000014"><a xlink:title=" ">
<path fill="none" stroke="#63b8ff" d="M144.01,-180.24C151.6,-195 165.85,-222.86 177.5,-246.83 194.01,-280.81 186.47,-297.44 213.5,-323.83 216.31,-326.57 219.55,-328.97 222.99,-331.06"/>
<polygon fill="#63b8ff" stroke="#63b8ff" points="221.16,-334.05 231.66,-335.48 224.34,-327.82 221.16,-334.05"/>
</a>
</g>
</g>
<!-- Node15 -->
<g id="Node000015" class="node">
<title>Node15</title>
<g id="a_Node000015"><a xlink:href="../../de/d25/a00290.html#a435c7bff7ffedb8f51c6de9259e36f6c" target="_top" xlink:title="Create a new window with optional box and title.">
<polygon fill="white" stroke="#666666" points="289.5,-276.21 230.75,-276.21 230.75,-255.46 289.5,-255.46 289.5,-276.21"/>
<text xml:space="preserve" text-anchor="middle" x="260.12" y="-262.71" font-family="Helvetica,sans-Serif" font-size="10.00">win_new</text>
</a>
</g>
</g>
<!-- Node6&#45;&gt;Node15 -->
<g id="edge19_Node000006_Node000015" class="edge">
<title>Node6&#45;&gt;Node15</title>
<g id="a_edge19_Node000006_Node000015"><a xlink:title=" ">
<path fill="none" stroke="#63b8ff" d="M147.03,-180.68C159.89,-196.7 185.89,-226.82 213.5,-245.83 215.72,-247.36 218.08,-248.82 220.51,-250.19"/>
<polygon fill="#63b8ff" stroke="#63b8ff" points="218.88,-253.29 229.38,-254.7 222.05,-247.05 218.88,-253.29"/>
</a>
</g>
</g>
<!-- Node17 -->
<g id="Node000017" class="node">
<title>Node17</title>
<g id="a_Node000017"><a xlink:href="../../de/d25/a00290.html#acf4c709bccc4c965a5d61db978db31a3" target="_top" xlink:title="Wrapper for wgetch that handles signals and mouse events.">
<polygon fill="white" stroke="#666666" points="288.75,-122.21 231.5,-122.21 231.5,-101.46 288.75,-101.46 288.75,-122.21"/>
<text xml:space="preserve" text-anchor="middle" x="260.12" y="-108.71" font-family="Helvetica,sans-Serif" font-size="10.00">xwgetch</text>
</a>
</g>
</g>
<!-- Node6&#45;&gt;Node17 -->
<g id="edge22_Node000006_Node000017" class="edge">
<title>Node6&#45;&gt;Node17</title>
<g id="a_edge22_Node000006_Node000017"><a xlink:title=" ">
<path fill="none" stroke="#63b8ff" d="M147.76,-159.22C161.79,-148.59 189.51,-134.16 213.5,-122.83 215.79,-121.75 218.15,-120.66 220.53,-119.58"/>
<polygon fill="#63b8ff" stroke="#63b8ff" points="221.84,-122.83 229.63,-115.65 219.06,-116.4 221.84,-122.83"/>
</a>
</g>
</g>
<!-- Node8 -->
<g id="Node000008" class="node">
<title>Node8</title>
<g id="a_Node000008"><a xlink:href="../../db/dc3/a00284.html#aa0145c044cfdde3a1c83323410a59f25" target="_top" xlink:title="safer alternative to strncat">
<polygon fill="white" stroke="#666666" points="421.75,-161.21 356.25,-161.21 356.25,-140.46 421.75,-140.46 421.75,-161.21"/>
<text xml:space="preserve" text-anchor="middle" x="389" y="-147.71" font-family="Helvetica,sans-Serif" font-size="10.00">strnz__cat</text>
</a>
</g>
</g>
<!-- Node7&#45;&gt;Node8 -->
<g id="edge10_Node000007_Node000008" class="edge">
<title>Node7&#45;&gt;Node8</title>
<g id="a_edge10_Node000007_Node000008"><a xlink:title=" ">
<path fill="none" stroke="#63b8ff" d="M306.93,-150.83C319.19,-150.83 332.41,-150.83 344.55,-150.83"/>
<polygon fill="#63b8ff" stroke="#63b8ff" points="344.27,-154.33 354.27,-150.83 344.27,-147.33 344.27,-154.33"/>
</a>
</g>
</g>
<!-- Node10&#45;&gt;Node2 -->
<g id="edge13_Node000010_Node000002" class="edge">
<title>Node10&#45;&gt;Node2</title>
<g id="a_edge13_Node000010_Node000002"><a xlink:title=" ">
<path fill="none" stroke="#63b8ff" d="M288.08,-315.63C294.32,-318.41 300.86,-321.55 306.75,-324.83 327.32,-336.29 349.23,-351.59 365.11,-363.3"/>
<polygon fill="#63b8ff" stroke="#63b8ff" points="362.83,-365.97 372.93,-369.16 367.02,-360.37 362.83,-365.97"/>
</a>
</g>
</g>
<!-- Node11&#45;&gt;Node12 -->
<g id="edge15_Node000011_Node000012" class="edge">
<title>Node11&#45;&gt;Node12</title>
<g id="a_edge15_Node000011_Node000012"><a xlink:title=" ">
<path fill="none" stroke="#63b8ff" d="M297.14,-62.04C313.1,-57.27 331.91,-51.63 348.27,-46.73"/>
<polygon fill="#63b8ff" stroke="#63b8ff" points="349.12,-50.13 357.69,-43.91 347.11,-43.42 349.12,-50.13"/>
</a>
</g>
</g>
<!-- Node15&#45;&gt;Node13 -->
<g id="edge21_Node000015_Node000013" class="edge">
<title>Node15&#45;&gt;Node13</title>
<g id="a_edge21_Node000015_Node000013"><a xlink:title=" ">
<path fill="none" stroke="#63b8ff" d="M289.91,-270.14C305.75,-272.51 325.74,-275.51 343.53,-278.17"/>
<polygon fill="#63b8ff" stroke="#63b8ff" points="342.94,-281.62 353.34,-279.64 343.97,-274.7 342.94,-281.62"/>
</a>
</g>
</g>
<!-- Node16 -->
<g id="Node000016" class="node">
<title>Node16</title>
<g id="a_Node000016"><a xlink:href="../../de/d25/a00290.html#ac9adcf7339be4a05ab1a7350c236b8a5" target="_top" xlink:title="Draw a box around the specified window.">
<polygon fill="white" stroke="#666666" points="408.62,-256.21 369.38,-256.21 369.38,-235.46 408.62,-235.46 408.62,-256.21"/>
<text xml:space="preserve" text-anchor="middle" x="389" y="-242.71" font-family="Helvetica,sans-Serif" font-size="10.00">cbox</text>
</a>
</g>
</g>
<!-- Node15&#45;&gt;Node16 -->
<g id="edge20_Node000015_Node000016" class="edge">
<title>Node15&#45;&gt;Node16</title>
<g id="a_edge20_Node000015_Node000016"><a xlink:title=" ">
<path fill="none" stroke="#63b8ff" d="M289.91,-261.29C310.21,-258.09 337.32,-253.82 357.9,-250.58"/>
<polygon fill="#63b8ff" stroke="#63b8ff" points="358.33,-254.05 367.66,-249.04 357.24,-247.14 358.33,-254.05"/>
</a>
</g>
</g>
<!-- Node17&#45;&gt;Node6 -->
<g id="edge23_Node000017_Node000006" class="edge">
<title>Node17&#45;&gt;Node6</title>
<g id="a_edge23_Node000017_Node000006"><a xlink:title=" ">
<path fill="none" stroke="#63b8ff" d="M249.62,-122.7C240.34,-128.74 225.86,-134.99 213.5,-140.83 204.5,-145.08 194.97,-149.77 185.84,-154.19"/>
<polygon fill="#63b8ff" stroke="#63b8ff" points="184.62,-150.89 177.11,-158.37 187.64,-157.21 184.62,-150.89"/>
</a>
</g>
</g>
<!-- Node18 -->
<g id="Node000018" class="node">
<title>Node18</title>
<g id="a_Node000018"><a xlink:href="../../de/d25/a00290.html#a4298f891699300bfc4e6e56fd2a8d574" target="_top" xlink:title="Get keycode from chyron.">
<polygon fill="white" stroke="#666666" points="435.25,-122.21 342.75,-122.21 342.75,-101.46 435.25,-101.46 435.25,-122.21"/>
<text xml:space="preserve" text-anchor="middle" x="389" y="-108.71" font-family="Helvetica,sans-Serif" font-size="10.00">get_chyron_key</text>
</a>
</g>
</g>
<!-- Node17&#45;&gt;Node18 -->
<g id="edge24_Node000017_Node000018" class="edge">
<title>Node17&#45;&gt;Node18</title>
<g id="a_edge24_Node000017_Node000018"><a xlink:title=" ">
<path fill="none" stroke="#63b8ff" d="M288.97,-111.83C301.29,-111.83 316.25,-111.83 330.78,-111.83"/>
<polygon fill="#63b8ff" stroke="#63b8ff" points="330.76,-115.33 340.76,-111.83 330.76,-108.33 330.76,-115.33"/>
</a>
</g>
</g>
<!-- Node19&#45;&gt;Node2 -->
<g id="edge26_Node000019_Node000002" class="edge">
<title>Node19&#45;&gt;Node2</title>
<g id="a_edge26_Node000019_Node000002"><a xlink:title=" ">
<path fill="none" stroke="#63b8ff" d="M140.08,-276.38C144.68,-305.12 161.78,-384.75 213.5,-416.83 260.03,-445.7 325.65,-417.43 361.71,-397.24"/>
<polygon fill="#63b8ff" stroke="#63b8ff" points="363.28,-400.37 370.17,-392.32 359.77,-394.32 363.28,-400.37"/>
</a>
</g>
</g>
<!-- Node19&#45;&gt;Node7 -->
<g id="edge27_Node000019_Node000007" class="edge">
<title>Node19&#45;&gt;Node7</title>
<g id="a_edge27_Node000019_Node000007"><a xlink:title=" ">
<path fill="none" stroke="#63b8ff" d="M149.75,-255.22C170.28,-235.62 214.37,-193.54 239.86,-169.22"/>
<polygon fill="#63b8ff" stroke="#63b8ff" points="242.12,-171.9 246.94,-162.46 237.29,-166.83 242.12,-171.9"/>
</a>
</g>
</g>
<!-- Node19&#45;&gt;Node9 -->
<g id="edge28_Node000019_Node000009" class="edge">
<title>Node19&#45;&gt;Node9</title>
<g id="a_edge28_Node000019_Node000009"><a xlink:title=" ">
<path fill="none" stroke="#63b8ff" d="M160.73,-258.68C175.88,-253.77 196.49,-247.1 214.94,-241.13"/>
<polygon fill="#63b8ff" stroke="#63b8ff" points="215.91,-244.5 224.35,-238.09 213.76,-237.84 215.91,-244.5"/>
</a>
</g>
</g>
<!-- Node19&#45;&gt;Node10 -->
<g id="edge29_Node000019_Node000010" class="edge">
<title>Node19&#45;&gt;Node10</title>
<g id="a_edge29_Node000019_Node000010"><a xlink:title=" ">
<path fill="none" stroke="#63b8ff" d="M160.73,-272.98C175.88,-277.89 196.49,-284.56 214.94,-290.53"/>
<polygon fill="#63b8ff" stroke="#63b8ff" points="213.76,-293.83 224.35,-293.58 215.91,-287.17 213.76,-293.83"/>
</a>
</g>
</g>
<!-- Node19&#45;&gt;Node11 -->
<g id="edge30_Node000019_Node000011" class="edge">
<title>Node19&#45;&gt;Node11</title>
<g id="a_edge30_Node000019_Node000011"><a xlink:title=" ">
<path fill="none" stroke="#63b8ff" d="M144.54,-255.04C152.51,-240.31 166.92,-212.97 177.5,-188.83 195.8,-147.1 182.17,-125.92 213.5,-92.83 214.36,-91.92 215.27,-91.05 216.22,-90.21"/>
<polygon fill="#63b8ff" stroke="#63b8ff" points="218.18,-93.11 224.41,-84.54 214.2,-87.36 218.18,-93.11"/>
</a>
</g>
</g>
<!-- Node19&#45;&gt;Node12 -->
<g id="edge31_Node000019_Node000012" class="edge">
<title>Node19&#45;&gt;Node12</title>
<g id="a_edge31_Node000019_Node000012"><a xlink:title=" ">
<path fill="none" stroke="#63b8ff" d="M143.01,-276.61C152.31,-297.83 176.27,-344.54 213.5,-362.83 250.7,-381.11 275.57,-390.13 306.75,-362.83 352.29,-322.96 319.32,-148.64 342.75,-92.83 348.79,-78.44 359.38,-64.57 368.79,-54.01"/>
<polygon fill="#63b8ff" stroke="#63b8ff" points="371.31,-56.44 375.58,-46.75 366.2,-51.66 371.31,-56.44"/>
</a>
</g>
</g>
<!-- Node19&#45;&gt;Node13 -->
<g id="edge32_Node000019_Node000013" class="edge">
<title>Node19&#45;&gt;Node13</title>
<g id="a_edge32_Node000019_Node000013"><a xlink:title=" ">
<path fill="none" stroke="#63b8ff" d="M140.94,-276.45C147.27,-302.48 167.5,-369.24 213.5,-395.83 249.38,-416.57 269.79,-414.58 306.75,-395.83 326.1,-386.02 358.91,-334.22 376.33,-304.98"/>
<polygon fill="#63b8ff" stroke="#63b8ff" points="379.17,-307.04 381.23,-296.65 373.14,-303.49 379.17,-307.04"/>
</a>
</g>
</g>
<!-- Node19&#45;&gt;Node14 -->
<g id="edge33_Node000019_Node000014" class="edge">
<title>Node19&#45;&gt;Node14</title>
<g id="a_edge33_Node000019_Node000014"><a xlink:title=" ">
<path fill="none" stroke="#63b8ff" d="M150.67,-276.68C164.93,-289.15 189.75,-309.72 213.5,-323.83 216.45,-325.59 219.59,-327.28 222.78,-328.88"/>
<polygon fill="#63b8ff" stroke="#63b8ff" points="221.09,-331.95 231.63,-333.05 224.07,-325.62 221.09,-331.95"/>
</a>
</g>
</g>
<!-- Node19&#45;&gt;Node15 -->
<g id="edge34_Node000019_Node000015" class="edge">
<title>Node19&#45;&gt;Node15</title>
<g id="a_edge34_Node000019_Node000015"><a xlink:title=" ">
<path fill="none" stroke="#63b8ff" d="M160.73,-265.83C177.01,-265.83 199.6,-265.83 219.03,-265.83"/>
<polygon fill="#63b8ff" stroke="#63b8ff" points="218.83,-269.33 228.83,-265.83 218.83,-262.33 218.83,-269.33"/>
</a>
</g>
</g>
<!-- Node19&#45;&gt;Node17 -->
<g id="edge35_Node000019_Node000017" class="edge">
<title>Node19&#45;&gt;Node17</title>
<g id="a_edge35_Node000019_Node000017"><a xlink:title=" ">
<path fill="none" stroke="#63b8ff" d="M144.01,-255.32C159.39,-225.38 203.14,-141.24 213.5,-131.83 215.9,-129.65 218.58,-127.68 221.4,-125.9"/>
<polygon fill="#63b8ff" stroke="#63b8ff" points="222.83,-129.1 230.01,-121.31 219.54,-122.93 222.83,-129.1"/>
</a>
</g>
</g>
</g>
</svg>
