<?xml version="1.0" encoding="UTF-8" standalone="no"?>
<!DOCTYPE svg PUBLIC "-//W3C//DTD SVG 1.1//EN"
 "http://www.w3.org/Graphics/SVG/1.1/DTD/svg11.dtd">
<!-- Generated by graphviz version 14.1.2 (0)
 -->
<!-- Title: src/test/unicode_decode.c Pages: 1 -->
<svg width="150pt" height="86pt"
 viewBox="0.00 0.00 150.00 86.00" xmlns="http://www.w3.org/2000/svg" xmlns:xlink="http://www.w3.org/1999/xlink">
<g id="graph0" class="graph" transform="scale(1 1) rotate(0) translate(4 81.5)">
<title>src/test/unicode_decode.c</title>
<!-- Node1 -->
<g id="Node000001" class="node">
<title>Node1</title>
<g id="a_Node000001"><a xlink:title="decode UTF&#45;8 encoded string to Unicode code points">
<polygon fill="#999999" stroke="#666666" points="142,-77.5 0,-77.5 0,-56.75 142,-56.75 142,-77.5"/>
<text xml:space="preserve" text-anchor="middle" x="71" y="-64" font-family="Helvetica,sans-Serif" font-size="10.00">src/test/unicode_decode.c</text>
</a>
</g>
</g>
<!-- Node2 -->
<g id="Node000002" class="node">
<title>Node2</title>
<g id="a_Node000002"><a xlink:title=" ">
<polygon fill="#e0e0e0" stroke="#999999" points="63.38,-20.75 10.62,-20.75 10.62,0 63.38,0 63.38,-20.75"/>
<text xml:space="preserve" text-anchor="middle" x="37" y="-7.25" font-family="Helvetica,sans-Serif" font-size="10.00">stdint.h</text>
</a>
</g>
</g>
<!-- Node1&#45;&gt;Node2 -->
<g id="edge1_Node000001_Node000002" class="edge">
<title>Node1&#45;&gt;Node2</title>
<g id="a_edge1_Node000001_Node000002"><a xlink:title=" ">
<path fill="none" stroke="#63b8ff" d="M64.92,-56.34C60.52,-49.25 54.43,-39.44 49.06,-30.79"/>
<polygon fill="#63b8ff" stroke="#63b8ff" points="52.07,-29.01 43.82,-22.36 46.13,-32.71 52.07,-29.01"/>
</a>
</g>
</g>
<!-- Node3 -->
<g id="Node000003" class="node">
<title>Node3</title>
<g id="a_Node000003"><a xlink:title=" ">
<polygon fill="#e0e0e0" stroke="#999999" points="130.5,-20.75 81.5,-20.75 81.5,0 130.5,0 130.5,-20.75"/>
<text xml:space="preserve" text-anchor="middle" x="106" y="-7.25" font-family="Helvetica,sans-Serif" font-size="10.00">stdio.h</text>
</a>
</g>
</g>
<!-- Node1&#45;&gt;Node3 -->
<g id="edge2_Node000001_Node000003" class="edge">
<title>Node1&#45;&gt;Node3</title>
<g id="a_edge2_Node000001_Node000003"><a xlink:title=" ">
<path fill="none" stroke="#63b8ff" d="M77.26,-56.34C81.84,-49.17 88.2,-39.23 93.77,-30.51"/>
<polygon fill="#63b8ff" stroke="#63b8ff" points="96.54,-32.66 98.98,-22.35 90.65,-28.89 96.54,-32.66"/>
</a>
</g>
</g>
</g>
</svg>
