<?xml version="1.0" encoding="UTF-8" standalone="no"?>
<!DOCTYPE svg PUBLIC "-//W3C//DTD SVG 1.1//EN"
 "http://www.w3.org/Graphics/SVG/1.1/DTD/svg11.dtd">
<!-- Generated by graphviz version 14.1.2 (0)
 -->
<!-- Title: fork_exec Pages: 1 -->
<svg width="983pt" height="830pt"
 viewBox="0.00 0.00 983.00 830.00" xmlns="http://www.w3.org/2000/svg" xmlns:xlink="http://www.w3.org/1999/xlink">
<g id="graph0" class="graph" transform="scale(1 1) rotate(0) translate(4 825.75)">
<title>fork_exec</title>
<!-- Node1 -->
<g id="Node000001" class="node">
<title>Node1</title>
<g id="a_Node000001"><a xlink:title="Fork and exec a command.">
<polygon fill="#999999" stroke="#666666" points="64,-154.75 0,-154.75 0,-134 64,-134 64,-154.75"/>
<text xml:space="preserve" text-anchor="middle" x="32" y="-141.25" font-family="Helvetica,sans-Serif" font-size="10.00">fork_exec</text>
</a>
</g>
</g>
<!-- Node2 -->
<g id="Node000002" class="node">
<title>Node2</title>
<g id="a_Node000002"><a xlink:href="../../d7/d72/scriou_8c.html#a4d0a6767e791cf93a268ebe9ba02aa24" target="_top" xlink:title="capture_curses_tioctl() &#45; capture curses terminal settings">
<polygon fill="white" stroke="#666666" points="219.5,-821.75 100,-821.75 100,-801 219.5,-801 219.5,-821.75"/>
<text xml:space="preserve" text-anchor="middle" x="159.75" y="-808.25" font-family="Helvetica,sans-Serif" font-size="10.00">capture_curses_tioctl</text>
</a>
</g>
</g>
<!-- Node1&#45;&gt;Node2 -->
<g id="edge1_Node000001_Node000002" class="edge">
<title>Node1&#45;&gt;Node2</title>
<g id="a_edge1_Node000001_Node000002"><a xlink:title=" ">
<path fill="none" stroke="#63b8ff" d="M33.46,-155.07C36.95,-234.77 60.36,-734.51 100,-787.38 101.98,-790.02 104.31,-792.37 106.87,-794.47"/>
<polygon fill="#63b8ff" stroke="#63b8ff" points="104.77,-797.28 115.05,-799.82 108.59,-791.42 104.77,-797.28"/>
</a>
</g>
</g>
<!-- Node3 -->
<g id="Node000003" class="node">
<title>Node3</title>
<g id="a_Node000003"><a xlink:href="../../dc/d40/dwin_8c.html#a61b4f28456257f68ed042bed7f187efd" target="_top" xlink:title="Display a simple error message window or print to stderr.">
<polygon fill="white" stroke="#666666" points="182.38,-496.75 137.12,-496.75 137.12,-476 182.38,-476 182.38,-496.75"/>
<text xml:space="preserve" text-anchor="middle" x="159.75" y="-483.25" font-family="Helvetica,sans-Serif" font-size="10.00">Perror</text>
</a>
</g>
</g>
<!-- Node1&#45;&gt;Node3 -->
<g id="edge2_Node000001_Node000003" class="edge">
<title>Node1&#45;&gt;Node3</title>
<g id="a_edge2_Node000001_Node000003"><a xlink:title=" ">
<path fill="none" stroke="#63b8ff" d="M36.9,-154.99C54.5,-202.85 126.7,-399.21 150.84,-464.88"/>
<polygon fill="#63b8ff" stroke="#63b8ff" points="147.51,-465.95 154.25,-474.13 154.08,-463.54 147.51,-465.95"/>
</a>
</g>
</g>
<!-- Node6 -->
<g id="Node000006" class="node">
<title>Node6</title>
<g id="a_Node000006"><a xlink:href="../../d7/d72/scriou_8c.html#ac5e3adb304b78910fc77761ef6a743f0" target="_top" xlink:title="restore_shell_tioctl() &#45; restore shell terminal settings">
<polygon fill="white" stroke="#666666" points="974.75,-420.75 865.75,-420.75 865.75,-400 974.75,-400 974.75,-420.75"/>
<text xml:space="preserve" text-anchor="middle" x="920.25" y="-407.25" font-family="Helvetica,sans-Serif" font-size="10.00">restore_shell_tioctl</text>
</a>
</g>
</g>
<!-- Node1&#45;&gt;Node6 -->
<g id="edge41_Node000001_Node000006" class="edge">
<title>Node1&#45;&gt;Node6</title>
<g id="a_edge41_Node000001_Node000006"><a xlink:title=" ">
<path fill="none" stroke="#63b8ff" d="M33.45,-155.14C35.65,-199.81 47.36,-374.36 100,-505.38 155.23,-642.82 150,-773.38 298.12,-773.38 298.12,-773.38 298.12,-773.38 671.38,-773.38 837.62,-773.38 900.42,-510.51 915.45,-432.16"/>
<polygon fill="#63b8ff" stroke="#63b8ff" points="918.82,-433.2 917.19,-422.73 911.94,-431.93 918.82,-433.2"/>
</a>
</g>
</g>
<!-- Node7 -->
<g id="Node000007" class="node">
<title>Node7</title>
<g id="a_Node000007"><a xlink:href="../../da/d12/sig_8c.html#a06c1eb6cf3649dc187115565409f91af" target="_top" xlink:title="Set signal handlers to default behavior.">
<polygon fill="white" stroke="#666666" points="960.88,-325.75 879.62,-325.75 879.62,-305 960.88,-305 960.88,-325.75"/>
<text xml:space="preserve" text-anchor="middle" x="920.25" y="-312.25" font-family="Helvetica,sans-Serif" font-size="10.00">sig_dfl_mode</text>
</a>
</g>
</g>
<!-- Node1&#45;&gt;Node7 -->
<g id="edge43_Node000001_Node000007" class="edge">
<title>Node1&#45;&gt;Node7</title>
<g id="a_edge43_Node000001_Node000007"><a xlink:title=" ">
<path fill="none" stroke="#63b8ff" d="M63.16,-133.52C111.89,-116.98 211.26,-87.38 298.12,-87.38 298.12,-87.38 298.12,-87.38 671.38,-87.38 793.09,-87.38 880.75,-238.12 909.27,-294.46"/>
<polygon fill="#63b8ff" stroke="#63b8ff" points="906.08,-295.91 913.64,-303.33 912.35,-292.81 906.08,-295.91"/>
</a>
</g>
</g>
<!-- Node13 -->
<g id="Node000013" class="node">
<title>Node13</title>
<g id="a_Node000013"><a xlink:href="../../d0/d59/futil_8c.html#a63eb94756fb011a456a3dec900709cd8" target="_top" xlink:title="ssnprintf was designed to be a safer alternative to snprintf.">
<polygon fill="white" stroke="#666666" points="699.75,-287.75 641,-287.75 641,-267 699.75,-267 699.75,-287.75"/>
<text xml:space="preserve" text-anchor="middle" x="670.38" y="-274.25" font-family="Helvetica,sans-Serif" font-size="10.00">ssnprintf</text>
</a>
</g>
</g>
<!-- Node1&#45;&gt;Node13 -->
<g id="edge47_Node000001_Node000013" class="edge">
<title>Node1&#45;&gt;Node13</title>
<g id="a_edge47_Node000001_Node000013"><a xlink:title=" ">
<path fill="none" stroke="#63b8ff" d="M64.37,-140.67C113.94,-135.14 213.45,-125.38 298.12,-125.38 298.12,-125.38 298.12,-125.38 426,-125.38 511.13,-125.38 531.2,-154.92 600.5,-204.38 621.64,-219.46 641.51,-241.73 654.43,-257.7"/>
<polygon fill="#63b8ff" stroke="#63b8ff" points="651.65,-259.83 660.58,-265.52 657.15,-255.5 651.65,-259.83"/>
</a>
</g>
</g>
<!-- Node23 -->
<g id="Node000023" class="node">
<title>Node23</title>
<g id="a_Node000023"><a xlink:href="../../d7/d72/scriou_8c.html#a1c8e0f0a02e08c783231a20093fb8410" target="_top" xlink:title="restore_curses_tioctl() &#45; restore curses terminal settings">
<polygon fill="white" stroke="#666666" points="218.38,-59.75 101.13,-59.75 101.13,-39 218.38,-39 218.38,-59.75"/>
<text xml:space="preserve" text-anchor="middle" x="159.75" y="-46.25" font-family="Helvetica,sans-Serif" font-size="10.00">restore_curses_tioctl</text>
</a>
</g>
</g>
<!-- Node1&#45;&gt;Node23 -->
<g id="edge40_Node000001_Node000023" class="edge">
<title>Node1&#45;&gt;Node23</title>
<g id="a_edge40_Node000001_Node000023"><a xlink:title=" ">
<path fill="none" stroke="#63b8ff" d="M40.75,-133.63C52.19,-118.41 74.98,-90.53 100,-73.38 104.65,-70.19 109.79,-67.31 115.04,-64.76"/>
<polygon fill="#63b8ff" stroke="#63b8ff" points="116.08,-68.12 123.78,-60.85 113.22,-61.73 116.08,-68.12"/>
</a>
</g>
</g>
<!-- Node24 -->
<g id="Node000024" class="node">
<title>Node24</title>
<g id="a_Node000024"><a xlink:href="../../dc/d40/dwin_8c.html#a40858af5b0d68549fb483f77c97eb82c" target="_top" xlink:title="Restore all windows after a screen resize.">
<polygon fill="white" stroke="#666666" points="198.88,-20.75 120.62,-20.75 120.62,0 198.88,0 198.88,-20.75"/>
<text xml:space="preserve" text-anchor="middle" x="159.75" y="-7.25" font-family="Helvetica,sans-Serif" font-size="10.00">restore_wins</text>
</a>
</g>
</g>
<!-- Node1&#45;&gt;Node24 -->
<g id="edge42_Node000001_Node000024" class="edge">
<title>Node1&#45;&gt;Node24</title>
<g id="a_edge42_Node000001_Node000024"><a xlink:title=" ">
<path fill="none" stroke="#63b8ff" d="M36.45,-133.55C44.16,-111.05 64.94,-58.95 100,-30.38 103.06,-27.88 106.44,-25.69 110,-23.77"/>
<polygon fill="#63b8ff" stroke="#63b8ff" points="111.33,-27.02 118.96,-19.67 108.42,-20.65 111.33,-27.02"/>
</a>
</g>
</g>
<!-- Node25 -->
<g id="Node000025" class="node">
<title>Node25</title>
<g id="a_Node000025"><a xlink:href="../../da/d12/sig_8c.html#aca2de03f6d52d4b11237990e4e605177" target="_top" xlink:title="Set up signal handlers for interrupt signals.">
<polygon fill="white" stroke="#666666" points="204.88,-173.75 114.62,-173.75 114.62,-153 204.88,-153 204.88,-173.75"/>
<text xml:space="preserve" text-anchor="middle" x="159.75" y="-160.25" font-family="Helvetica,sans-Serif" font-size="10.00">sig_prog_mode</text>
</a>
</g>
</g>
<!-- Node1&#45;&gt;Node25 -->
<g id="edge44_Node000001_Node000025" class="edge">
<title>Node1&#45;&gt;Node25</title>
<g id="a_edge44_Node000001_Node000025"><a xlink:title=" ">
<path fill="none" stroke="#63b8ff" d="M64.41,-149.12C76.23,-150.91 90.05,-152.99 103.41,-155.01"/>
<polygon fill="#63b8ff" stroke="#63b8ff" points="102.56,-158.43 112.97,-156.46 103.61,-151.5 102.56,-158.43"/>
</a>
</g>
</g>
<!-- Node4 -->
<g id="Node000004" class="node">
<title>Node4</title>
<g id="a_Node000004"><a xlink:href="../../dc/d40/dwin_8c.html#a8f6c45ca4a7f6a41c4c88314e697565a" target="_top" xlink:title="Abnormal program termination.">
<polygon fill="white" stroke="#666666" points="693.38,-363.75 647.38,-363.75 647.38,-343 693.38,-343 693.38,-363.75"/>
<text xml:space="preserve" text-anchor="middle" x="670.38" y="-350.25" font-family="Helvetica,sans-Serif" font-size="10.00">abend</text>
</a>
</g>
</g>
<!-- Node3&#45;&gt;Node4 -->
<g id="edge3_Node000003_Node000004" class="edge">
<title>Node3&#45;&gt;Node4</title>
<g id="a_edge3_Node000003_Node000004"><a xlink:title=" ">
<path fill="none" stroke="#63b8ff" d="M173.49,-475.59C191.01,-461.19 223.98,-435.61 255.5,-419.38 360.49,-365.3 390.63,-352.95 507.25,-334.38 548.18,-327.86 559.43,-328.81 600.5,-334.38 612.27,-335.97 624.87,-339.03 636.03,-342.23"/>
<polygon fill="#63b8ff" stroke="#63b8ff" points="635.01,-345.58 645.6,-345.13 637.04,-338.88 635.01,-345.58"/>
</a>
</g>
</g>
<!-- Node8 -->
<g id="Node000008" class="node">
<title>Node8</title>
<g id="a_Node000008"><a xlink:href="../../dc/d40/dwin_8c.html#a645871e46277e31736bc36d0f3dce4bd" target="_top" xlink:title="construct the chyron string from the chyron structure">
<polygon fill="white" stroke="#666666" points="600.5,-745.75 507.25,-745.75 507.25,-725 600.5,-725 600.5,-745.75"/>
<text xml:space="preserve" text-anchor="middle" x="553.88" y="-732.25" font-family="Helvetica,sans-Serif" font-size="10.00">compile_chyron</text>
</a>
</g>
</g>
<!-- Node3&#45;&gt;Node8 -->
<g id="edge9_Node000003_Node000008" class="edge">
<title>Node3&#45;&gt;Node8</title>
<g id="a_edge9_Node000003_Node000008"><a xlink:title=" ">
<path fill="none" stroke="#63b8ff" d="M161.53,-497.21C164.87,-534.42 181.33,-657.71 255.5,-711.38 325.67,-762.15 431.04,-756.83 495.69,-747.04"/>
<polygon fill="#63b8ff" stroke="#63b8ff" points="496.07,-750.52 505.39,-745.48 494.96,-743.61 496.07,-750.52"/>
</a>
</g>
</g>
<!-- Node10 -->
<g id="Node000010" class="node">
<title>Node10</title>
<g id="a_Node000010"><a xlink:href="../../dc/d40/dwin_8c.html#a3f3feb40fd703913c5c136331f627c91" target="_top" xlink:title="Destroy Chyron structure.">
<polygon fill="white" stroke="#666666" points="599.38,-630.75 508.38,-630.75 508.38,-610 599.38,-610 599.38,-630.75"/>
<text xml:space="preserve" text-anchor="middle" x="553.88" y="-617.25" font-family="Helvetica,sans-Serif" font-size="10.00">destroy_chyron</text>
</a>
</g>
</g>
<!-- Node3&#45;&gt;Node10 -->
<g id="edge11_Node000003_Node000010" class="edge">
<title>Node3&#45;&gt;Node10</title>
<g id="a_edge11_Node000003_Node000010"><a xlink:title=" ">
<path fill="none" stroke="#63b8ff" d="M179.5,-497.2C198.28,-507.72 228.22,-523.63 255.5,-534.38 337.53,-566.68 436.53,-592.9 497.08,-607.56"/>
<polygon fill="#63b8ff" stroke="#63b8ff" points="495.91,-610.88 506.45,-609.81 497.55,-604.08 495.91,-610.88"/>
</a>
</g>
</g>
<!-- Node11 -->
<g id="Node000011" class="node">
<title>Node11</title>
<g id="a_Node000011"><a xlink:href="../../dc/d40/dwin_8c.html#ad37d5808ff30ae6894780425d865abae" target="_top" xlink:title="Create and initialize Chyron structure.">
<polygon fill="white" stroke="#666666" points="591.12,-363.75 516.62,-363.75 516.62,-343 591.12,-343 591.12,-363.75"/>
<text xml:space="preserve" text-anchor="middle" x="553.88" y="-350.25" font-family="Helvetica,sans-Serif" font-size="10.00">new_chyron</text>
</a>
</g>
</g>
<!-- Node3&#45;&gt;Node11 -->
<g id="edge12_Node000003_Node000011" class="edge">
<title>Node3&#45;&gt;Node11</title>
<g id="a_edge12_Node000003_Node000011"><a xlink:title=" ">
<path fill="none" stroke="#63b8ff" d="M182.67,-478.58C221.91,-464.65 306.79,-434.69 378.75,-410.38 422.66,-395.53 473.01,-379.12 508.23,-367.73"/>
<polygon fill="#63b8ff" stroke="#63b8ff" points="509.22,-371.09 517.67,-364.68 507.07,-364.43 509.22,-371.09"/>
</a>
</g>
</g>
<!-- Node12 -->
<g id="Node000012" class="node">
<title>Node12</title>
<g id="a_Node000012"><a xlink:href="../../dc/d40/dwin_8c.html#a208ce92c197fdd6d2b007987e534aa3b" target="_top" xlink:title="Set chyron key.">
<polygon fill="white" stroke="#666666" points="599.75,-287.75 508,-287.75 508,-267 599.75,-267 599.75,-287.75"/>
<text xml:space="preserve" text-anchor="middle" x="553.88" y="-274.25" font-family="Helvetica,sans-Serif" font-size="10.00">set_chyron_key</text>
</a>
</g>
</g>
<!-- Node3&#45;&gt;Node12 -->
<g id="edge14_Node000003_Node000012" class="edge">
<title>Node3&#45;&gt;Node12</title>
<g id="a_edge14_Node000003_Node000012"><a xlink:title=" ">
<path fill="none" stroke="#63b8ff" d="M162.55,-475.62C168.66,-442.86 191.89,-343.87 255.5,-301.38 327.62,-253.19 432.62,-257.77 496.63,-266.71"/>
<polygon fill="#63b8ff" stroke="#63b8ff" points="495.8,-270.12 506.21,-268.13 496.83,-263.2 495.8,-270.12"/>
</a>
</g>
</g>
<!-- Node3&#45;&gt;Node13 -->
<g id="edge16_Node000003_Node000013" class="edge">
<title>Node3&#45;&gt;Node13</title>
<g id="a_edge16_Node000003_Node000013"><a xlink:title=" ">
<path fill="none" stroke="#63b8ff" d="M161.7,-475.54C165.52,-438.87 183.33,-318.66 255.5,-264.38 378.53,-171.82 452.73,-190.2 600.5,-233.38 618.08,-238.51 635.45,-249.66 648.34,-259.44"/>
<polygon fill="#63b8ff" stroke="#63b8ff" points="646.07,-262.11 656.08,-265.6 650.43,-256.63 646.07,-262.11"/>
</a>
</g>
</g>
<!-- Node14 -->
<g id="Node000014" class="node">
<title>Node14</title>
<g id="a_Node000014"><a xlink:href="../../d0/d59/futil_8c.html#a0de2e40df9bd7efc8fd9afb8ad2257e6" target="_top" xlink:title="safer alternative to strncpy">
<polygon fill="white" stroke="#666666" points="704.25,-592.75 636.5,-592.75 636.5,-572 704.25,-572 704.25,-592.75"/>
<text xml:space="preserve" text-anchor="middle" x="670.38" y="-579.25" font-family="Helvetica,sans-Serif" font-size="10.00">strnz__cpy</text>
</a>
</g>
</g>
<!-- Node3&#45;&gt;Node14 -->
<g id="edge17_Node000003_Node000014" class="edge">
<title>Node3&#45;&gt;Node14</title>
<g id="a_edge17_Node000003_Node000014"><a xlink:title=" ">
<path fill="none" stroke="#63b8ff" d="M167.24,-497.02C180.96,-518.66 214.96,-568.14 255.5,-596.38 352.05,-663.64 390.67,-662.35 507.25,-678.38 548.31,-684.02 563.63,-697.3 600.5,-678.38 616.39,-670.22 642.53,-628.75 657.62,-603.05"/>
<polygon fill="#63b8ff" stroke="#63b8ff" points="660.61,-604.87 662.59,-594.46 654.56,-601.36 660.61,-604.87"/>
</a>
</g>
</g>
<!-- Node15 -->
<g id="Node000015" class="node">
<title>Node15</title>
<g id="a_Node000015"><a xlink:href="../../dc/d40/dwin_8c.html#a9dd598e1d49c8764af1eec42c682623e" target="_top" xlink:title="Delete the current window and its associated box window.">
<polygon fill="white" stroke="#666666" points="580.62,-591.75 527.12,-591.75 527.12,-571 580.62,-571 580.62,-591.75"/>
<text xml:space="preserve" text-anchor="middle" x="553.88" y="-578.25" font-family="Helvetica,sans-Serif" font-size="10.00">win_del</text>
</a>
</g>
</g>
<!-- Node3&#45;&gt;Node15 -->
<g id="edge18_Node000003_Node000015" class="edge">
<title>Node3&#45;&gt;Node15</title>
<g id="a_edge18_Node000003_Node000015"><a xlink:title=" ">
<path fill="none" stroke="#63b8ff" d="M182.67,-491.69C246.93,-507.25 435.34,-552.9 515.78,-572.39"/>
<polygon fill="#63b8ff" stroke="#63b8ff" points="514.83,-575.76 525.37,-574.71 516.47,-568.95 514.83,-575.76"/>
</a>
</g>
</g>
<!-- Node16 -->
<g id="Node000016" class="node">
<title>Node16</title>
<g id="a_Node000016"><a xlink:href="../../dc/d40/dwin_8c.html#a435c7bff7ffedb8f51c6de9259e36f6c" target="_top" xlink:title="Create a new window with optional box and title.">
<polygon fill="white" stroke="#666666" points="583.25,-669.75 524.5,-669.75 524.5,-649 583.25,-649 583.25,-669.75"/>
<text xml:space="preserve" text-anchor="middle" x="553.88" y="-656.25" font-family="Helvetica,sans-Serif" font-size="10.00">win_new</text>
</a>
</g>
</g>
<!-- Node3&#45;&gt;Node16 -->
<g id="edge19_Node000003_Node000016" class="edge">
<title>Node3&#45;&gt;Node16</title>
<g id="a_edge19_Node000003_Node000016"><a xlink:title=" ">
<path fill="none" stroke="#63b8ff" d="M171.15,-497.07C187.64,-513.47 221.41,-544.87 255.5,-563.38 341.55,-610.09 454.06,-638.65 512.96,-651.43"/>
<polygon fill="#63b8ff" stroke="#63b8ff" points="512.01,-654.81 522.52,-653.47 513.47,-647.96 512.01,-654.81"/>
</a>
</g>
</g>
<!-- Node18 -->
<g id="Node000018" class="node">
<title>Node18</title>
<g id="a_Node000018"><a xlink:href="../../dc/d40/dwin_8c.html#acf4c709bccc4c965a5d61db978db31a3" target="_top" xlink:title="Wrapper for wgetch that handles signals and mouse events.">
<polygon fill="white" stroke="#666666" points="327.75,-496.75 270.5,-496.75 270.5,-476 327.75,-476 327.75,-496.75"/>
<text xml:space="preserve" text-anchor="middle" x="299.12" y="-483.25" font-family="Helvetica,sans-Serif" font-size="10.00">xwgetch</text>
</a>
</g>
</g>
<!-- Node3&#45;&gt;Node18 -->
<g id="edge22_Node000003_Node000018" class="edge">
<title>Node3&#45;&gt;Node18</title>
<g id="a_edge22_Node000003_Node000018"><a xlink:title=" ">
<path fill="none" stroke="#63b8ff" d="M182.82,-486.38C203.38,-486.38 234.49,-486.38 259.22,-486.38"/>
<polygon fill="#63b8ff" stroke="#63b8ff" points="258.9,-489.88 268.9,-486.38 258.9,-482.88 258.9,-489.88"/>
</a>
</g>
</g>
<!-- Node5 -->
<g id="Node000005" class="node">
<title>Node5</title>
<g id="a_Node000005"><a xlink:href="../../dc/d40/dwin_8c.html#afc0985a403e3eac0b2cd8f0fab500256" target="_top" xlink:title="Gracefully shut down NCurses and restore terminal settings.">
<polygon fill="white" stroke="#666666" points="829.75,-363.75 740.25,-363.75 740.25,-343 829.75,-343 829.75,-363.75"/>
<text xml:space="preserve" text-anchor="middle" x="785" y="-350.25" font-family="Helvetica,sans-Serif" font-size="10.00">destroy_curses</text>
</a>
</g>
</g>
<!-- Node4&#45;&gt;Node5 -->
<g id="edge4_Node000004_Node000005" class="edge">
<title>Node4&#45;&gt;Node5</title>
<g id="a_edge4_Node000004_Node000005"><a xlink:title=" ">
<path fill="none" stroke="#63b8ff" d="M693.63,-353.38C703.74,-353.38 716.19,-353.38 728.59,-353.38"/>
<polygon fill="#63b8ff" stroke="#63b8ff" points="728.38,-356.88 738.38,-353.38 728.38,-349.88 728.38,-356.88"/>
</a>
</g>
</g>
<!-- Node4&#45;&gt;Node6 -->
<g id="edge7_Node000004_Node000006" class="edge">
<title>Node4&#45;&gt;Node6</title>
<g id="a_edge7_Node000004_Node000006"><a xlink:title=" ">
<path fill="none" stroke="#63b8ff" d="M693.62,-359.88C707.07,-363.71 724.58,-368.55 740.25,-372.38 777.82,-381.54 820.14,-390.58 854.19,-397.54"/>
<polygon fill="#63b8ff" stroke="#63b8ff" points="853.43,-400.96 863.92,-399.52 854.82,-394.1 853.43,-400.96"/>
</a>
</g>
</g>
<!-- Node4&#45;&gt;Node7 -->
<g id="edge8_Node000004_Node000007" class="edge">
<title>Node4&#45;&gt;Node7</title>
<g id="a_edge8_Node000004_Node000007"><a xlink:title=" ">
<path fill="none" stroke="#63b8ff" d="M693.8,-346.19C707.16,-342.16 724.53,-337.36 740.25,-334.38 782.92,-326.28 832,-321.38 867.97,-318.58"/>
<polygon fill="#63b8ff" stroke="#63b8ff" points="867.94,-322.09 877.65,-317.86 867.42,-315.11 867.94,-322.09"/>
</a>
</g>
</g>
<!-- Node5&#45;&gt;Node6 -->
<g id="edge5_Node000005_Node000006" class="edge">
<title>Node5&#45;&gt;Node6</title>
<g id="a_edge5_Node000005_Node000006"><a xlink:title=" ">
<path fill="none" stroke="#63b8ff" d="M811.38,-364.23C831.85,-372.99 860.88,-385.41 883.67,-395.15"/>
<polygon fill="#63b8ff" stroke="#63b8ff" points="882.01,-398.25 892.58,-398.96 884.76,-391.81 882.01,-398.25"/>
</a>
</g>
</g>
<!-- Node5&#45;&gt;Node7 -->
<g id="edge6_Node000005_Node000007" class="edge">
<title>Node5&#45;&gt;Node7</title>
<g id="a_edge6_Node000005_Node000007"><a xlink:title=" ">
<path fill="none" stroke="#63b8ff" d="M823.83,-342.59C838.32,-338.46 855.05,-333.68 870.43,-329.3"/>
<polygon fill="#63b8ff" stroke="#63b8ff" points="871.22,-332.71 879.87,-326.6 869.3,-325.98 871.22,-332.71"/>
</a>
</g>
</g>
<!-- Node9 -->
<g id="Node000009" class="node">
<title>Node9</title>
<g id="a_Node000009"><a xlink:href="../../d0/d59/futil_8c.html#aa0145c044cfdde3a1c83323410a59f25" target="_top" xlink:title="safer alternative to strncat">
<polygon fill="white" stroke="#666666" points="703.12,-745.75 637.62,-745.75 637.62,-725 703.12,-725 703.12,-745.75"/>
<text xml:space="preserve" text-anchor="middle" x="670.38" y="-732.25" font-family="Helvetica,sans-Serif" font-size="10.00">strnz__cat</text>
</a>
</g>
</g>
<!-- Node8&#45;&gt;Node9 -->
<g id="edge10_Node000008_Node000009" class="edge">
<title>Node8&#45;&gt;Node9</title>
<g id="a_edge10_Node000008_Node000009"><a xlink:title=" ">
<path fill="none" stroke="#63b8ff" d="M600.79,-735.38C609.08,-735.38 617.69,-735.38 625.91,-735.38"/>
<polygon fill="#63b8ff" stroke="#63b8ff" points="625.67,-738.88 635.67,-735.38 625.67,-731.88 625.67,-738.88"/>
</a>
</g>
</g>
<!-- Node11&#45;&gt;Node4 -->
<g id="edge13_Node000011_Node000004" class="edge">
<title>Node11&#45;&gt;Node4</title>
<g id="a_edge13_Node000011_Node000004"><a xlink:title=" ">
<path fill="none" stroke="#63b8ff" d="M591.42,-353.38C605.74,-353.38 622.05,-353.38 636.04,-353.38"/>
<polygon fill="#63b8ff" stroke="#63b8ff" points="635.64,-356.88 645.64,-353.38 635.64,-349.88 635.64,-356.88"/>
</a>
</g>
</g>
<!-- Node12&#45;&gt;Node13 -->
<g id="edge15_Node000012_Node000013" class="edge">
<title>Node12&#45;&gt;Node13</title>
<g id="a_edge15_Node000012_Node000013"><a xlink:title=" ">
<path fill="none" stroke="#63b8ff" d="M600.13,-277.38C609.71,-277.38 619.76,-277.38 629.14,-277.38"/>
<polygon fill="#63b8ff" stroke="#63b8ff" points="629.07,-280.88 639.07,-277.38 629.07,-273.88 629.07,-280.88"/>
</a>
</g>
</g>
<!-- Node16&#45;&gt;Node14 -->
<g id="edge21_Node000016_Node000014" class="edge">
<title>Node16&#45;&gt;Node14</title>
<g id="a_edge21_Node000016_Node000014"><a xlink:title=" ">
<path fill="none" stroke="#63b8ff" d="M583.01,-648.51C588.94,-645.82 595.05,-642.73 600.5,-639.38 618.54,-628.26 636.92,-612.79 650.15,-600.77"/>
<polygon fill="#63b8ff" stroke="#63b8ff" points="652.36,-603.5 657.31,-594.13 647.6,-598.37 652.36,-603.5"/>
</a>
</g>
</g>
<!-- Node17 -->
<g id="Node000017" class="node">
<title>Node17</title>
<g id="a_Node000017"><a xlink:href="../../dc/d40/dwin_8c.html#ac9adcf7339be4a05ab1a7350c236b8a5" target="_top" xlink:title="Draw a box around the specified window.">
<polygon fill="white" stroke="#666666" points="690,-669.75 650.75,-669.75 650.75,-649 690,-649 690,-669.75"/>
<text xml:space="preserve" text-anchor="middle" x="670.38" y="-656.25" font-family="Helvetica,sans-Serif" font-size="10.00">cbox</text>
</a>
</g>
</g>
<!-- Node16&#45;&gt;Node17 -->
<g id="edge20_Node000016_Node000017" class="edge">
<title>Node16&#45;&gt;Node17</title>
<g id="a_edge20_Node000016_Node000017"><a xlink:title=" ">
<path fill="none" stroke="#63b8ff" d="M583.47,-659.38C600.4,-659.38 621.82,-659.38 639.04,-659.38"/>
<polygon fill="#63b8ff" stroke="#63b8ff" points="638.94,-662.88 648.94,-659.38 638.94,-655.88 638.94,-662.88"/>
</a>
</g>
</g>
<!-- Node19 -->
<g id="Node000019" class="node">
<title>Node19</title>
<g id="a_Node000019"><a xlink:href="../../dc/d40/dwin_8c.html#a67659f8a701b74f4dec0d36227a10d1c" target="_top" xlink:title="Display an error message window or print to stderr.">
<polygon fill="white" stroke="#666666" points="464.88,-515.75 385.12,-515.75 385.12,-495 464.88,-495 464.88,-515.75"/>
<text xml:space="preserve" text-anchor="middle" x="425" y="-502.25" font-family="Helvetica,sans-Serif" font-size="10.00">display_error</text>
</a>
</g>
</g>
<!-- Node18&#45;&gt;Node19 -->
<g id="edge23_Node000018_Node000019" class="edge">
<title>Node18&#45;&gt;Node19</title>
<g id="a_edge23_Node000018_Node000019"><a xlink:title=" ">
<path fill="none" stroke="#63b8ff" d="M328.23,-484.93C343.93,-486.31 363.8,-489.13 381.37,-492.39"/>
<polygon fill="#63b8ff" stroke="#63b8ff" points="380.54,-495.79 391.03,-494.29 381.9,-488.92 380.54,-495.79"/>
</a>
</g>
</g>
<!-- Node21 -->
<g id="Node000021" class="node">
<title>Node21</title>
<g id="a_Node000021"><a xlink:href="../../dc/d40/dwin_8c.html#a4298f891699300bfc4e6e56fd2a8d574" target="_top" xlink:title="Get keycode from chyron.">
<polygon fill="white" stroke="#666666" points="471.25,-439.75 378.75,-439.75 378.75,-419 471.25,-419 471.25,-439.75"/>
<text xml:space="preserve" text-anchor="middle" x="425" y="-426.25" font-family="Helvetica,sans-Serif" font-size="10.00">get_chyron_key</text>
</a>
</g>
</g>
<!-- Node18&#45;&gt;Node21 -->
<g id="edge35_Node000018_Node000021" class="edge">
<title>Node18&#45;&gt;Node21</title>
<g id="a_edge35_Node000018_Node000021"><a xlink:title=" ">
<path fill="none" stroke="#63b8ff" d="M323.72,-475.52C342.49,-466.88 369,-454.68 390.06,-444.99"/>
<polygon fill="#63b8ff" stroke="#63b8ff" points="391.5,-448.18 399.12,-440.82 388.57,-441.82 391.5,-448.18"/>
</a>
</g>
</g>
<!-- Node22 -->
<g id="Node000022" class="node">
<title>Node22</title>
<g id="a_Node000022"><a xlink:href="../../da/d12/sig_8c.html#a79c3e22498eb2346543aa9c86fd22e58" target="_top" xlink:title="Handle received signals and prompt user for action.">
<polygon fill="white" stroke="#666666" points="595.62,-439.75 512.12,-439.75 512.12,-419 595.62,-419 595.62,-439.75"/>
<text xml:space="preserve" text-anchor="middle" x="553.88" y="-426.25" font-family="Helvetica,sans-Serif" font-size="10.00">handle_signal</text>
</a>
</g>
</g>
<!-- Node18&#45;&gt;Node22 -->
<g id="edge36_Node000018_Node000022" class="edge">
<title>Node18&#45;&gt;Node22</title>
<g id="a_edge36_Node000018_Node000022"><a xlink:title=" ">
<path fill="none" stroke="#63b8ff" d="M328.01,-480.28C361.89,-472.84 420.8,-459.85 471.25,-448.38 480.84,-446.19 491.05,-443.84 500.89,-441.56"/>
<polygon fill="#63b8ff" stroke="#63b8ff" points="501.37,-445.04 510.31,-439.37 499.78,-438.22 501.37,-445.04"/>
</a>
</g>
</g>
<!-- Node19&#45;&gt;Node4 -->
<g id="edge24_Node000019_Node000004" class="edge">
<title>Node19&#45;&gt;Node4</title>
<g id="a_edge24_Node000019_Node000004"><a xlink:title=" ">
<path fill="none" stroke="#63b8ff" d="M465.22,-495.59C509.66,-483.99 578.73,-464.23 600.5,-448.38 627.28,-428.86 647.83,-395.8 659.26,-374.28"/>
<polygon fill="#63b8ff" stroke="#63b8ff" points="662.28,-376.06 663.7,-365.56 656.05,-372.88 662.28,-376.06"/>
</a>
</g>
</g>
<!-- Node19&#45;&gt;Node8 -->
<g id="edge25_Node000019_Node000008" class="edge">
<title>Node19&#45;&gt;Node8</title>
<g id="a_edge25_Node000019_Node000008"><a xlink:title=" ">
<path fill="none" stroke="#63b8ff" d="M429.95,-515.96C440.52,-543.69 471.11,-620.35 507.25,-678.38 515.54,-691.69 526.48,-705.45 535.57,-716.12"/>
<polygon fill="#63b8ff" stroke="#63b8ff" points="532.76,-718.22 541.97,-723.46 538.04,-713.62 532.76,-718.22"/>
</a>
</g>
</g>
<!-- Node19&#45;&gt;Node10 -->
<g id="edge26_Node000019_Node000010" class="edge">
<title>Node19&#45;&gt;Node10</title>
<g id="a_edge26_Node000019_Node000010"><a xlink:title=" ">
<path fill="none" stroke="#63b8ff" d="M432.81,-516.16C445.42,-535.38 474.13,-575.81 507.25,-600.38 509.02,-601.69 510.89,-602.94 512.83,-604.13"/>
<polygon fill="#63b8ff" stroke="#63b8ff" points="511.04,-607.14 521.51,-608.81 514.37,-600.98 511.04,-607.14"/>
</a>
</g>
</g>
<!-- Node19&#45;&gt;Node11 -->
<g id="edge27_Node000019_Node000011" class="edge">
<title>Node19&#45;&gt;Node11</title>
<g id="a_edge27_Node000019_Node000011"><a xlink:title=" ">
<path fill="none" stroke="#63b8ff" d="M435.71,-494.52C445.39,-483.4 460.34,-465.39 471.25,-448.38 490.35,-418.59 482.42,-402.58 507.25,-377.38 509.97,-374.61 513.08,-372.1 516.36,-369.83"/>
<polygon fill="#63b8ff" stroke="#63b8ff" points="517.86,-373.01 524.61,-364.85 514.24,-367.02 517.86,-373.01"/>
</a>
</g>
</g>
<!-- Node19&#45;&gt;Node12 -->
<g id="edge28_Node000019_Node000012" class="edge">
<title>Node19&#45;&gt;Node12</title>
<g id="a_edge28_Node000019_Node000012"><a xlink:title=" ">
<path fill="none" stroke="#63b8ff" d="M436.32,-494.87C446.46,-484.03 461.76,-466.23 471.25,-448.38 496.18,-401.45 482.22,-381.24 507.25,-334.38 514.64,-320.54 525.55,-306.76 534.84,-296.22"/>
<polygon fill="#63b8ff" stroke="#63b8ff" points="537.29,-298.73 541.45,-288.98 532.12,-294.01 537.29,-298.73"/>
</a>
</g>
</g>
<!-- Node19&#45;&gt;Node13 -->
<g id="edge29_Node000019_Node000013" class="edge">
<title>Node19&#45;&gt;Node13</title>
<g id="a_edge29_Node000019_Node000013"><a xlink:title=" ">
<path fill="none" stroke="#63b8ff" d="M434.7,-494.64C453.81,-471.14 498.45,-416.72 507.25,-410.38 543.54,-384.19 565.29,-400 600.5,-372.38 626.57,-351.92 647.31,-319.11 658.98,-297.9"/>
<polygon fill="#63b8ff" stroke="#63b8ff" points="661.93,-299.81 663.52,-289.33 655.75,-296.53 661.93,-299.81"/>
</a>
</g>
</g>
<!-- Node19&#45;&gt;Node14 -->
<g id="edge31_Node000019_Node000014" class="edge">
<title>Node19&#45;&gt;Node14</title>
<g id="a_edge31_Node000019_Node000014"><a xlink:title=" ">
<path fill="none" stroke="#63b8ff" d="M460.35,-516.24C503.66,-529.95 578.15,-553.51 625.53,-568.5"/>
<polygon fill="#63b8ff" stroke="#63b8ff" points="624.33,-571.8 634.92,-571.47 626.44,-565.12 624.33,-571.8"/>
</a>
</g>
</g>
<!-- Node19&#45;&gt;Node15 -->
<g id="edge32_Node000019_Node000015" class="edge">
<title>Node19&#45;&gt;Node15</title>
<g id="a_edge32_Node000019_Node000015"><a xlink:title=" ">
<path fill="none" stroke="#63b8ff" d="M441.94,-516.14C458.14,-526.96 484.09,-543.9 507.25,-557.38 511.72,-559.98 516.5,-562.63 521.22,-565.17"/>
<polygon fill="#63b8ff" stroke="#63b8ff" points="519.5,-568.22 529.98,-569.81 522.78,-562.03 519.5,-568.22"/>
</a>
</g>
</g>
<!-- Node19&#45;&gt;Node16 -->
<g id="edge33_Node000019_Node000016" class="edge">
<title>Node19&#45;&gt;Node16</title>
<g id="a_edge33_Node000019_Node000016"><a xlink:title=" ">
<path fill="none" stroke="#63b8ff" d="M429.8,-515.91C439.22,-540.67 465.91,-603.16 507.25,-639.38 509.41,-641.27 511.78,-643.01 514.27,-644.6"/>
<polygon fill="#63b8ff" stroke="#63b8ff" points="512.47,-647.61 522.93,-649.32 515.82,-641.46 512.47,-647.61"/>
</a>
</g>
</g>
<!-- Node19&#45;&gt;Node18 -->
<g id="edge34_Node000019_Node000018" class="edge">
<title>Node19&#45;&gt;Node18</title>
<g id="a_edge34_Node000019_Node000018"><a xlink:title=" ">
<path fill="none" stroke="#63b8ff" d="M384.73,-505.68C370.25,-504.02 353.85,-501.5 339.36,-498.72"/>
<polygon fill="#63b8ff" stroke="#63b8ff" points="340.22,-495.33 329.72,-496.75 338.81,-502.18 340.22,-495.33"/>
</a>
</g>
</g>
<!-- Node20 -->
<g id="Node000020" class="node">
<title>Node20</title>
<g id="a_Node000020"><a xlink:href="../../d0/d59/futil_8c.html#a636608f26d1193b5d860f2312cd8ee49" target="_top" xlink:title="terminates string at New Line, Carriage Return, or max_len">
<polygon fill="white" stroke="#666666" points="573.88,-515.75 533.88,-515.75 533.88,-495 573.88,-495 573.88,-515.75"/>
<text xml:space="preserve" text-anchor="middle" x="553.88" y="-502.25" font-family="Helvetica,sans-Serif" font-size="10.00">strnz</text>
</a>
</g>
</g>
<!-- Node19&#45;&gt;Node20 -->
<g id="edge30_Node000019_Node000020" class="edge">
<title>Node19&#45;&gt;Node20</title>
<g id="a_edge30_Node000019_Node000020"><a xlink:title=" ">
<path fill="none" stroke="#63b8ff" d="M465.1,-505.38C483.56,-505.38 505.26,-505.38 522.46,-505.38"/>
<polygon fill="#63b8ff" stroke="#63b8ff" points="522.04,-508.88 532.04,-505.38 522.04,-501.88 522.04,-508.88"/>
</a>
</g>
</g>
<!-- Node22&#45;&gt;Node6 -->
<g id="edge37_Node000022_Node000006" class="edge">
<title>Node22&#45;&gt;Node6</title>
<g id="a_edge37_Node000022_Node000006"><a xlink:title=" ">
<path fill="none" stroke="#63b8ff" d="M595.97,-427.23C658.81,-423.96 779.37,-417.67 854.19,-413.77"/>
<polygon fill="#63b8ff" stroke="#63b8ff" points="854.02,-417.28 863.83,-413.27 853.66,-410.29 854.02,-417.28"/>
</a>
</g>
</g>
<!-- Node22&#45;&gt;Node13 -->
<g id="edge38_Node000022_Node000013" class="edge">
<title>Node22&#45;&gt;Node13</title>
<g id="a_edge38_Node000022_Node000013"><a xlink:title=" ">
<path fill="none" stroke="#63b8ff" d="M581.84,-418.68C588.5,-415.16 595.22,-410.73 600.5,-405.38 625.33,-380.17 619.66,-365.49 636.5,-334.38 643.11,-322.17 650.85,-308.71 657.16,-297.94"/>
<polygon fill="#63b8ff" stroke="#63b8ff" points="660.06,-299.9 662.13,-289.51 654.03,-296.34 660.06,-299.9"/>
</a>
</g>
</g>
<!-- Node22&#45;&gt;Node14 -->
<g id="edge39_Node000022_Node000014" class="edge">
<title>Node22&#45;&gt;Node14</title>
<g id="a_edge39_Node000022_Node000014"><a xlink:title=" ">
<path fill="none" stroke="#63b8ff" d="M563.79,-440.17C573.12,-451.53 588.09,-470.01 600.5,-486.38 620.04,-512.15 641.63,-542.59 655.34,-562.17"/>
<polygon fill="#63b8ff" stroke="#63b8ff" points="652.45,-564.15 661.05,-570.35 658.2,-560.14 652.45,-564.15"/>
</a>
</g>
</g>
<!-- Node25&#45;&gt;Node4 -->
<g id="edge45_Node000025_Node000004" class="edge">
<title>Node25&#45;&gt;Node4</title>
<g id="a_edge45_Node000025_Node000004"><a xlink:title=" ">
<path fill="none" stroke="#63b8ff" d="M205.16,-172.53C315.17,-195.28 592.12,-252.91 600.5,-258.38 615.28,-268.02 641.6,-308.12 657.07,-333.04"/>
<polygon fill="#63b8ff" stroke="#63b8ff" points="653.97,-334.67 662.18,-341.36 659.93,-331.01 653.97,-334.67"/>
</a>
</g>
</g>
<!-- Node26 -->
<g id="Node000026" class="node">
<title>Node26</title>
<g id="a_Node000026"><a xlink:href="../../da/d12/sig_8c.html#aa08a9a8dede37c66c81c3f51a0f338a9" target="_top" xlink:title="Signal handler for interrupt signals.">
<polygon fill="white" stroke="#666666" points="342.75,-173.75 255.5,-173.75 255.5,-153 342.75,-153 342.75,-173.75"/>
<text xml:space="preserve" text-anchor="middle" x="299.12" y="-160.25" font-family="Helvetica,sans-Serif" font-size="10.00">signal_handler</text>
</a>
</g>
</g>
<!-- Node25&#45;&gt;Node26 -->
<g id="edge46_Node000025_Node000026" class="edge">
<title>Node25&#45;&gt;Node26</title>
<g id="a_edge46_Node000025_Node000026"><a xlink:title=" ">
<path fill="none" stroke="#63b8ff" d="M205.35,-163.38C217.59,-163.38 230.99,-163.38 243.71,-163.38"/>
<polygon fill="#63b8ff" stroke="#63b8ff" points="243.64,-166.88 253.64,-163.38 243.64,-159.88 243.64,-166.88"/>
</a>
</g>
</g>
</g>
</svg>
