<?xml version="1.0" encoding="UTF-8" standalone="no"?>
<!DOCTYPE svg PUBLIC "-//W3C//DTD SVG 1.1//EN"
 "http://www.w3.org/Graphics/SVG/1.1/DTD/svg11.dtd">
<!-- Generated by graphviz version 14.1.2 (0)
 -->
<!-- Title: form_fmt_field Pages: 1 -->
<svg width="939pt" height="674pt"
 viewBox="0.00 0.00 939.00 674.00" xmlns="http://www.w3.org/2000/svg" xmlns:xlink="http://www.w3.org/1999/xlink">
<g id="graph0" class="graph" transform="scale(1 1) rotate(0) translate(4 669.92)">
<title>form_fmt_field</title>
<!-- Node1 -->
<g id="Node000001" class="node">
<title>Node1</title>
<g id="a_Node000001"><a xlink:title="Format field according to its format type.">
<polygon fill="#999999" stroke="#666666" points="88.75,-491.92 0,-491.92 0,-471.17 88.75,-471.17 88.75,-491.92"/>
<text xml:space="preserve" text-anchor="middle" x="44.38" y="-478.42" font-family="Helvetica,sans-Serif" font-size="10.00">form_fmt_field</text>
</a>
</g>
</g>
<!-- Node2 -->
<g id="Node000002" class="node">
<title>Node2</title>
<g id="a_Node000002"><a xlink:href="../../dd/d42/fields_8c.html#a353546f4d99ef7ec908d371187f033de" target="_top" xlink:title="Check if a given date is valid, including leap years.">
<polygon fill="white" stroke="#666666" points="205.62,-665.92 125.12,-665.92 125.12,-645.17 205.62,-645.17 205.62,-665.92"/>
<text xml:space="preserve" text-anchor="middle" x="165.38" y="-652.42" font-family="Helvetica,sans-Serif" font-size="10.00">is_valid_date</text>
</a>
</g>
</g>
<!-- Node1&#45;&gt;Node2 -->
<g id="edge1_Node000001_Node000002" class="edge">
<title>Node1&#45;&gt;Node2</title>
<g id="a_edge1_Node000001_Node000002"><a xlink:title=" ">
<path fill="none" stroke="#63b8ff" d="M48.36,-492.27C56.4,-519.49 80.96,-592.13 124.75,-635.54 125.77,-636.55 126.84,-637.51 127.97,-638.44"/>
<polygon fill="#63b8ff" stroke="#63b8ff" points="125.77,-641.18 136.01,-643.91 129.71,-635.39 125.77,-641.18"/>
</a>
</g>
</g>
<!-- Node3 -->
<g id="Node000003" class="node">
<title>Node3</title>
<g id="a_Node000003"><a xlink:href="../../dd/d42/fields_8c.html#a56bbb25c4d0944e1b96b9a723cde2ae9" target="_top" xlink:title="Check if a given time is valid.">
<polygon fill="white" stroke="#666666" points="206,-626.92 124.75,-626.92 124.75,-606.17 206,-606.17 206,-626.92"/>
<text xml:space="preserve" text-anchor="middle" x="165.38" y="-613.42" font-family="Helvetica,sans-Serif" font-size="10.00">is_valid_time</text>
</a>
</g>
</g>
<!-- Node1&#45;&gt;Node3 -->
<g id="edge2_Node000001_Node000003" class="edge">
<title>Node1&#45;&gt;Node3</title>
<g id="a_edge2_Node000001_Node000003"><a xlink:title=" ">
<path fill="none" stroke="#63b8ff" d="M50.51,-492.38C61.42,-514.48 88.91,-565.29 124.75,-596.54 126.02,-597.65 127.36,-598.71 128.76,-599.73"/>
<polygon fill="#63b8ff" stroke="#63b8ff" points="126.84,-602.67 137.17,-605.02 130.57,-596.74 126.84,-602.67"/>
</a>
</g>
</g>
<!-- Node4 -->
<g id="Node000004" class="node">
<title>Node4</title>
<g id="a_Node000004"><a xlink:href="../../dd/d42/fields_8c.html#a425021d4c87474159a36d395e4dcdf65" target="_top" xlink:title="Left justify string by removing leading spaces.">
<polygon fill="white" stroke="#666666" points="199.62,-587.92 131.12,-587.92 131.12,-567.17 199.62,-567.17 199.62,-587.92"/>
<text xml:space="preserve" text-anchor="middle" x="165.38" y="-574.42" font-family="Helvetica,sans-Serif" font-size="10.00">left_justify</text>
</a>
</g>
</g>
<!-- Node1&#45;&gt;Node4 -->
<g id="edge3_Node000001_Node000004" class="edge">
<title>Node1&#45;&gt;Node4</title>
<g id="a_edge3_Node000001_Node000004"><a xlink:title=" ">
<path fill="none" stroke="#63b8ff" d="M55.6,-492.01C70.2,-506.67 98.2,-533.75 124.75,-553.54 128.11,-556.04 131.74,-558.52 135.39,-560.88"/>
<polygon fill="#63b8ff" stroke="#63b8ff" points="133.31,-563.71 143.66,-565.99 136.99,-557.75 133.31,-563.71"/>
</a>
</g>
</g>
<!-- Node5 -->
<g id="Node000005" class="node">
<title>Node5</title>
<g id="a_Node000005"><a xlink:href="../../d0/d59/futil_8c.html#a34703756fd5be0fde758400f320db047" target="_top" xlink:title="Trims leading and trailing spaces from string s in place.">
<polygon fill="white" stroke="#666666" points="288.75,-587.92 252.5,-587.92 252.5,-567.17 288.75,-567.17 288.75,-587.92"/>
<text xml:space="preserve" text-anchor="middle" x="270.62" y="-574.42" font-family="Helvetica,sans-Serif" font-size="10.00">trim</text>
</a>
</g>
</g>
<!-- Node1&#45;&gt;Node5 -->
<g id="edge49_Node000001_Node000005" class="edge">
<title>Node1&#45;&gt;Node5</title>
<g id="a_edge49_Node000001_Node000005"><a xlink:title=" ">
<path fill="none" stroke="#63b8ff" d="M66.05,-492.28C81.94,-500.39 104.52,-511.61 124.75,-520.54 164.7,-538.18 211.92,-556.25 241.33,-567.19"/>
<polygon fill="#63b8ff" stroke="#63b8ff" points="240.03,-570.44 250.62,-570.63 242.46,-563.88 240.03,-570.44"/>
</a>
</g>
</g>
<!-- Node6 -->
<g id="Node000006" class="node">
<title>Node6</title>
<g id="a_Node000006"><a xlink:href="../../dd/d42/fields_8c.html#aac069c6892f64ea6307044a92b179faa" target="_top" xlink:title="Create filler string for field.">
<polygon fill="white" stroke="#666666" points="195.12,-511.92 135.62,-511.92 135.62,-491.17 195.12,-491.17 195.12,-511.92"/>
<text xml:space="preserve" text-anchor="middle" x="165.38" y="-498.42" font-family="Helvetica,sans-Serif" font-size="10.00">mk_filler</text>
</a>
</g>
</g>
<!-- Node1&#45;&gt;Node6 -->
<g id="edge5_Node000001_Node000006" class="edge">
<title>Node1&#45;&gt;Node6</title>
<g id="a_edge5_Node000001_Node000006"><a xlink:title=" ">
<path fill="none" stroke="#63b8ff" d="M89.01,-488.87C100.43,-490.79 112.7,-492.85 123.94,-494.75"/>
<polygon fill="#63b8ff" stroke="#63b8ff" points="123.28,-498.18 133.72,-496.39 124.44,-491.28 123.28,-498.18"/>
</a>
</g>
</g>
<!-- Node7 -->
<g id="Node000007" class="node">
<title>Node7</title>
<g id="a_Node000007"><a xlink:href="../../dd/d42/fields_8c.html#a18db59e4c79e823f79310378183ac25c" target="_top" xlink:title="Extract numeric characters from source string to destination string.">
<polygon fill="white" stroke="#666666" points="193.25,-472.92 137.5,-472.92 137.5,-452.17 193.25,-452.17 193.25,-472.92"/>
<text xml:space="preserve" text-anchor="middle" x="165.38" y="-459.42" font-family="Helvetica,sans-Serif" font-size="10.00">numeric</text>
</a>
</g>
</g>
<!-- Node1&#45;&gt;Node7 -->
<g id="edge6_Node000001_Node000007" class="edge">
<title>Node1&#45;&gt;Node7</title>
<g id="a_edge6_Node000001_Node000007"><a xlink:title=" ">
<path fill="none" stroke="#63b8ff" d="M89.01,-474.57C101.15,-472.64 114.24,-470.55 126.05,-468.66"/>
<polygon fill="#63b8ff" stroke="#63b8ff" points="126.53,-472.13 135.85,-467.09 125.43,-465.21 126.53,-472.13"/>
</a>
</g>
</g>
<!-- Node8 -->
<g id="Node000008" class="node">
<title>Node8</title>
<g id="a_Node000008"><a xlink:href="../../dc/d40/dwin_8c.html#a61b4f28456257f68ed042bed7f187efd" target="_top" xlink:title="Display a simple error message window or print to stderr.">
<polygon fill="white" stroke="#666666" points="188,-394.92 142.75,-394.92 142.75,-374.17 188,-374.17 188,-394.92"/>
<text xml:space="preserve" text-anchor="middle" x="165.38" y="-381.42" font-family="Helvetica,sans-Serif" font-size="10.00">Perror</text>
</a>
</g>
</g>
<!-- Node1&#45;&gt;Node8 -->
<g id="edge7_Node000001_Node000008" class="edge">
<title>Node1&#45;&gt;Node8</title>
<g id="a_edge7_Node000001_Node000008"><a xlink:title=" ">
<path fill="none" stroke="#63b8ff" d="M54.53,-470.78C68.49,-454.84 96.44,-424.7 124.75,-404.54 127.11,-402.86 129.64,-401.24 132.22,-399.7"/>
<polygon fill="#63b8ff" stroke="#63b8ff" points="133.87,-402.79 140.97,-394.93 130.52,-396.64 133.87,-402.79"/>
</a>
</g>
</g>
<!-- Node19 -->
<g id="Node000019" class="node">
<title>Node19</title>
<g id="a_Node000019"><a xlink:href="../../d0/d59/futil_8c.html#a0de2e40df9bd7efc8fd9afb8ad2257e6" target="_top" xlink:title="safer alternative to strncpy">
<polygon fill="white" stroke="#666666" points="660.75,-204.92 593,-204.92 593,-184.17 660.75,-184.17 660.75,-204.92"/>
<text xml:space="preserve" text-anchor="middle" x="626.88" y="-191.42" font-family="Helvetica,sans-Serif" font-size="10.00">strnz__cpy</text>
</a>
</g>
</g>
<!-- Node1&#45;&gt;Node19 -->
<g id="edge48_Node000001_Node000019" class="edge">
<title>Node1&#45;&gt;Node19</title>
<g id="a_edge48_Node000001_Node000019"><a xlink:title=" ">
<path fill="none" stroke="#63b8ff" d="M45.3,-471.09C45.37,-401.04 55.22,-2.54 269.62,-2.54 269.62,-2.54 269.62,-2.54 382.5,-2.54 461.97,-2.54 499.57,13.39 557,-41.54 601.25,-83.87 556.22,-125.58 593,-174.54 593.41,-175.09 593.85,-175.63 594.3,-176.16"/>
<polygon fill="#63b8ff" stroke="#63b8ff" points="591.86,-178.67 601.67,-182.67 596.49,-173.42 591.86,-178.67"/>
</a>
</g>
</g>
<!-- Node25 -->
<g id="Node000025" class="node">
<title>Node25</title>
<g id="a_Node000025"><a xlink:href="../../d0/d59/futil_8c.html#a636608f26d1193b5d860f2312cd8ee49" target="_top" xlink:title="terminates string at New Line, Carriage Return, or max_len">
<polygon fill="white" stroke="#666666" points="530.38,-88.92 490.38,-88.92 490.38,-68.17 530.38,-68.17 530.38,-88.92"/>
<text xml:space="preserve" text-anchor="middle" x="510.38" y="-75.42" font-family="Helvetica,sans-Serif" font-size="10.00">strnz</text>
</a>
</g>
</g>
<!-- Node1&#45;&gt;Node25 -->
<g id="edge47_Node000001_Node000025" class="edge">
<title>Node1&#45;&gt;Node25</title>
<g id="a_edge47_Node000001_Node000025"><a xlink:title=" ">
<path fill="none" stroke="#63b8ff" d="M50.5,-470.94C70.39,-430.64 146.12,-284.57 242,-192.54 311.05,-126.27 424.54,-95.62 478.72,-84.19"/>
<polygon fill="#63b8ff" stroke="#63b8ff" points="479.36,-87.63 488.47,-82.22 477.98,-80.77 479.36,-87.63"/>
</a>
</g>
</g>
<!-- Node28 -->
<g id="Node000028" class="node">
<title>Node28</title>
<g id="a_Node000028"><a xlink:href="../../dd/d42/fields_8c.html#a21ebe9713e3b003715a7a2c3b64cbf55" target="_top" xlink:title="Right justify string by removing trailing spaces and adding leading spaces.">
<polygon fill="white" stroke="#666666" points="202.62,-433.92 128.12,-433.92 128.12,-413.17 202.62,-413.17 202.62,-433.92"/>
<text xml:space="preserve" text-anchor="middle" x="165.38" y="-420.42" font-family="Helvetica,sans-Serif" font-size="10.00">right_justify</text>
</a>
</g>
</g>
<!-- Node1&#45;&gt;Node28 -->
<g id="edge45_Node000001_Node000028" class="edge">
<title>Node1&#45;&gt;Node28</title>
<g id="a_edge45_Node000001_Node000028"><a xlink:title=" ">
<path fill="none" stroke="#63b8ff" d="M67.48,-470.77C85.68,-461.9 111.73,-449.2 132.24,-439.2"/>
<polygon fill="#63b8ff" stroke="#63b8ff" points="133.57,-442.45 141.03,-434.92 130.51,-436.15 133.57,-442.45"/>
</a>
</g>
</g>
<!-- Node4&#45;&gt;Node5 -->
<g id="edge4_Node000004_Node000005" class="edge">
<title>Node4&#45;&gt;Node5</title>
<g id="a_edge4_Node000004_Node000005"><a xlink:title=" ">
<path fill="none" stroke="#63b8ff" d="M199.9,-577.54C213.11,-577.54 228.12,-577.54 240.83,-577.54"/>
<polygon fill="#63b8ff" stroke="#63b8ff" points="240.66,-581.04 250.66,-577.54 240.66,-574.04 240.66,-581.04"/>
</a>
</g>
</g>
<!-- Node9 -->
<g id="Node000009" class="node">
<title>Node9</title>
<g id="a_Node000009"><a xlink:href="../../dc/d40/dwin_8c.html#a8f6c45ca4a7f6a41c4c88314e697565a" target="_top" xlink:title="Abnormal program termination.">
<polygon fill="white" stroke="#666666" points="649.88,-424.92 603.88,-424.92 603.88,-404.17 649.88,-404.17 649.88,-424.92"/>
<text xml:space="preserve" text-anchor="middle" x="626.88" y="-411.42" font-family="Helvetica,sans-Serif" font-size="10.00">abend</text>
</a>
</g>
</g>
<!-- Node8&#45;&gt;Node9 -->
<g id="edge8_Node000008_Node000009" class="edge">
<title>Node8&#45;&gt;Node9</title>
<g id="a_edge8_Node000008_Node000009"><a xlink:title=" ">
<path fill="none" stroke="#63b8ff" d="M188.23,-391.82C194.69,-394.88 201.29,-399.04 206,-404.54 239.75,-443.92 200.05,-485.04 242,-515.54 355.24,-597.86 433.22,-580.95 557,-515.54 588.61,-498.84 608.44,-460.39 618.31,-436.04"/>
<polygon fill="#63b8ff" stroke="#63b8ff" points="621.54,-437.39 621.82,-426.8 615,-434.9 621.54,-437.39"/>
</a>
</g>
</g>
<!-- Node13 -->
<g id="Node000013" class="node">
<title>Node13</title>
<g id="a_Node000013"><a xlink:href="../../dc/d40/dwin_8c.html#a645871e46277e31736bc36d0f3dce4bd" target="_top" xlink:title="construct the chyron string from the chyron structure">
<polygon fill="white" stroke="#666666" points="557,-127.92 463.75,-127.92 463.75,-107.17 557,-107.17 557,-127.92"/>
<text xml:space="preserve" text-anchor="middle" x="510.38" y="-114.42" font-family="Helvetica,sans-Serif" font-size="10.00">compile_chyron</text>
</a>
</g>
</g>
<!-- Node8&#45;&gt;Node13 -->
<g id="edge14_Node000008_Node000013" class="edge">
<title>Node8&#45;&gt;Node13</title>
<g id="a_edge14_Node000008_Node000013"><a xlink:title=" ">
<path fill="none" stroke="#63b8ff" d="M170.07,-374.02C179.18,-349.21 204.69,-286.04 242,-244.54 298.36,-181.85 392.28,-147.36 452.48,-130.66"/>
<polygon fill="#63b8ff" stroke="#63b8ff" points="453.1,-134.12 461.85,-128.14 451.28,-127.36 453.1,-134.12"/>
</a>
</g>
</g>
<!-- Node15 -->
<g id="Node000015" class="node">
<title>Node15</title>
<g id="a_Node000015"><a xlink:href="../../dc/d40/dwin_8c.html#a3f3feb40fd703913c5c136331f627c91" target="_top" xlink:title="Destroy Chyron structure.">
<polygon fill="white" stroke="#666666" points="555.88,-434.92 464.88,-434.92 464.88,-414.17 555.88,-414.17 555.88,-434.92"/>
<text xml:space="preserve" text-anchor="middle" x="510.38" y="-421.42" font-family="Helvetica,sans-Serif" font-size="10.00">destroy_chyron</text>
</a>
</g>
</g>
<!-- Node8&#45;&gt;Node15 -->
<g id="edge16_Node000008_Node000015" class="edge">
<title>Node8&#45;&gt;Node15</title>
<g id="a_edge16_Node000008_Node000015"><a xlink:title=" ">
<path fill="none" stroke="#63b8ff" d="M188.46,-389.15C203.5,-392.16 223.89,-395.99 242,-398.54 314.71,-408.79 399.12,-416.26 453.34,-420.5"/>
<polygon fill="#63b8ff" stroke="#63b8ff" points="453.02,-423.99 463.26,-421.27 453.55,-417.01 453.02,-423.99"/>
</a>
</g>
</g>
<!-- Node16 -->
<g id="Node000016" class="node">
<title>Node16</title>
<g id="a_Node000016"><a xlink:href="../../dc/d40/dwin_8c.html#ad37d5808ff30ae6894780425d865abae" target="_top" xlink:title="Create and initialize Chyron structure.">
<polygon fill="white" stroke="#666666" points="547.62,-473.92 473.12,-473.92 473.12,-453.17 547.62,-453.17 547.62,-473.92"/>
<text xml:space="preserve" text-anchor="middle" x="510.38" y="-460.42" font-family="Helvetica,sans-Serif" font-size="10.00">new_chyron</text>
</a>
</g>
</g>
<!-- Node8&#45;&gt;Node16 -->
<g id="edge17_Node000008_Node000016" class="edge">
<title>Node8&#45;&gt;Node16</title>
<g id="a_edge17_Node000008_Node000016"><a xlink:title=" ">
<path fill="none" stroke="#63b8ff" d="M188.43,-395.03C203.29,-401.73 223.47,-410.15 242,-415.54 317.3,-437.47 407.6,-451.16 461.63,-458.07"/>
<polygon fill="#63b8ff" stroke="#63b8ff" points="461.06,-461.52 471.42,-459.29 461.93,-454.58 461.06,-461.52"/>
</a>
</g>
</g>
<!-- Node17 -->
<g id="Node000017" class="node">
<title>Node17</title>
<g id="a_Node000017"><a xlink:href="../../dc/d40/dwin_8c.html#a208ce92c197fdd6d2b007987e534aa3b" target="_top" xlink:title="Set chyron key.">
<polygon fill="white" stroke="#666666" points="556.25,-395.92 464.5,-395.92 464.5,-375.17 556.25,-375.17 556.25,-395.92"/>
<text xml:space="preserve" text-anchor="middle" x="510.38" y="-382.42" font-family="Helvetica,sans-Serif" font-size="10.00">set_chyron_key</text>
</a>
</g>
</g>
<!-- Node8&#45;&gt;Node17 -->
<g id="edge19_Node000008_Node000017" class="edge">
<title>Node8&#45;&gt;Node17</title>
<g id="a_edge19_Node000008_Node000017"><a xlink:title=" ">
<path fill="none" stroke="#63b8ff" d="M188.35,-384.6C240.95,-384.76 375.43,-385.15 452.62,-385.38"/>
<polygon fill="#63b8ff" stroke="#63b8ff" points="452.51,-388.87 462.52,-385.4 452.53,-381.87 452.51,-388.87"/>
</a>
</g>
</g>
<!-- Node18 -->
<g id="Node000018" class="node">
<title>Node18</title>
<g id="a_Node000018"><a xlink:href="../../d0/d59/futil_8c.html#a63eb94756fb011a456a3dec900709cd8" target="_top" xlink:title="ssnprintf was designed to be a safer alternative to snprintf.">
<polygon fill="white" stroke="#666666" points="656.25,-355.92 597.5,-355.92 597.5,-335.17 656.25,-335.17 656.25,-355.92"/>
<text xml:space="preserve" text-anchor="middle" x="626.88" y="-342.42" font-family="Helvetica,sans-Serif" font-size="10.00">ssnprintf</text>
</a>
</g>
</g>
<!-- Node8&#45;&gt;Node18 -->
<g id="edge21_Node000008_Node000018" class="edge">
<title>Node8&#45;&gt;Node18</title>
<g id="a_edge21_Node000008_Node000018"><a xlink:title=" ">
<path fill="none" stroke="#63b8ff" d="M188.34,-394.36C194.25,-397.34 200.52,-400.81 206,-404.54 223.7,-416.58 223.05,-426.57 242,-436.54 304.61,-469.47 498.19,-521.85 557,-482.54 591.79,-459.29 573.42,-432.52 593,-395.54 598.44,-385.27 605.4,-374.42 611.52,-365.47"/>
<polygon fill="#63b8ff" stroke="#63b8ff" points="614.21,-367.73 617.07,-357.53 608.47,-363.72 614.21,-367.73"/>
</a>
</g>
</g>
<!-- Node8&#45;&gt;Node19 -->
<g id="edge22_Node000008_Node000019" class="edge">
<title>Node8&#45;&gt;Node19</title>
<g id="a_edge22_Node000008_Node000019"><a xlink:title=" ">
<path fill="none" stroke="#63b8ff" d="M168.16,-373.77C173.8,-342.51 193.83,-250.33 242,-192.54 257.16,-174.35 453.25,-62.38 463.75,-59.54 503.76,-48.72 523.6,-35 557,-59.54 600.16,-91.25 560,-132.36 593,-174.54 593.52,-175.21 594.08,-175.87 594.66,-176.5"/>
<polygon fill="#63b8ff" stroke="#63b8ff" points="592.22,-179.02 602.1,-182.83 596.75,-173.69 592.22,-179.02"/>
</a>
</g>
</g>
<!-- Node20 -->
<g id="Node000020" class="node">
<title>Node20</title>
<g id="a_Node000020"><a xlink:href="../../dc/d40/dwin_8c.html#a9dd598e1d49c8764af1eec42c682623e" target="_top" xlink:title="Delete the current window and its associated box window.">
<polygon fill="white" stroke="#666666" points="537.12,-356.92 483.62,-356.92 483.62,-336.17 537.12,-336.17 537.12,-356.92"/>
<text xml:space="preserve" text-anchor="middle" x="510.38" y="-343.42" font-family="Helvetica,sans-Serif" font-size="10.00">win_del</text>
</a>
</g>
</g>
<!-- Node8&#45;&gt;Node20 -->
<g id="edge23_Node000008_Node000020" class="edge">
<title>Node8&#45;&gt;Node20</title>
<g id="a_edge23_Node000008_Node000020"><a xlink:title=" ">
<path fill="none" stroke="#63b8ff" d="M188.35,-382.11C245.78,-375.74 400.8,-358.57 472.31,-350.65"/>
<polygon fill="#63b8ff" stroke="#63b8ff" points="472.39,-354.16 481.94,-349.58 471.62,-347.2 472.39,-354.16"/>
</a>
</g>
</g>
<!-- Node21 -->
<g id="Node000021" class="node">
<title>Node21</title>
<g id="a_Node000021"><a xlink:href="../../dc/d40/dwin_8c.html#a435c7bff7ffedb8f51c6de9259e36f6c" target="_top" xlink:title="Create a new window with optional box and title.">
<polygon fill="white" stroke="#666666" points="539.75,-166.92 481,-166.92 481,-146.17 539.75,-146.17 539.75,-166.92"/>
<text xml:space="preserve" text-anchor="middle" x="510.38" y="-153.42" font-family="Helvetica,sans-Serif" font-size="10.00">win_new</text>
</a>
</g>
</g>
<!-- Node8&#45;&gt;Node21 -->
<g id="edge24_Node000008_Node000021" class="edge">
<title>Node8&#45;&gt;Node21</title>
<g id="a_edge24_Node000008_Node000021"><a xlink:title=" ">
<path fill="none" stroke="#63b8ff" d="M173.43,-373.83C185.87,-355.45 213.12,-317.31 242,-290.54 310.23,-227.31 413.91,-186.95 470.01,-168.42"/>
<polygon fill="#63b8ff" stroke="#63b8ff" points="471.02,-171.77 479.46,-165.37 468.87,-165.11 471.02,-171.77"/>
</a>
</g>
</g>
<!-- Node23 -->
<g id="Node000023" class="node">
<title>Node23</title>
<g id="a_Node000023"><a xlink:href="../../dc/d40/dwin_8c.html#acf4c709bccc4c965a5d61db978db31a3" target="_top" xlink:title="Wrapper for wgetch that handles signals and mouse events.">
<polygon fill="white" stroke="#666666" points="299.25,-319.92 242,-319.92 242,-299.17 299.25,-299.17 299.25,-319.92"/>
<text xml:space="preserve" text-anchor="middle" x="270.62" y="-306.42" font-family="Helvetica,sans-Serif" font-size="10.00">xwgetch</text>
</a>
</g>
</g>
<!-- Node8&#45;&gt;Node23 -->
<g id="edge27_Node000008_Node000023" class="edge">
<title>Node8&#45;&gt;Node23</title>
<g id="a_edge27_Node000008_Node000023"><a xlink:title=" ">
<path fill="none" stroke="#63b8ff" d="M181.17,-373.79C198.04,-361.54 225.85,-341.34 245.79,-326.86"/>
<polygon fill="#63b8ff" stroke="#63b8ff" points="247.6,-329.86 253.63,-321.16 243.49,-324.2 247.6,-329.86"/>
</a>
</g>
</g>
<!-- Node10 -->
<g id="Node000010" class="node">
<title>Node10</title>
<g id="a_Node000010"><a xlink:href="../../dc/d40/dwin_8c.html#afc0985a403e3eac0b2cd8f0fab500256" target="_top" xlink:title="Gracefully shut down NCurses and restore terminal settings.">
<polygon fill="white" stroke="#666666" points="786.25,-405.92 696.75,-405.92 696.75,-385.17 786.25,-385.17 786.25,-405.92"/>
<text xml:space="preserve" text-anchor="middle" x="741.5" y="-392.42" font-family="Helvetica,sans-Serif" font-size="10.00">destroy_curses</text>
</a>
</g>
</g>
<!-- Node9&#45;&gt;Node10 -->
<g id="edge9_Node000009_Node000010" class="edge">
<title>Node9&#45;&gt;Node10</title>
<g id="a_edge9_Node000009_Node000010"><a xlink:title=" ">
<path fill="none" stroke="#63b8ff" d="M650.13,-410.79C660.24,-409.08 672.69,-406.98 685.09,-404.89"/>
<polygon fill="#63b8ff" stroke="#63b8ff" points="685.62,-408.35 694.9,-403.23 684.46,-401.45 685.62,-408.35"/>
</a>
</g>
</g>
<!-- Node11 -->
<g id="Node000011" class="node">
<title>Node11</title>
<g id="a_Node000011"><a xlink:href="../../d7/d72/scriou_8c.html#ac5e3adb304b78910fc77761ef6a743f0" target="_top" xlink:title="restore_shell_tioctl() &#45; restore shell terminal settings">
<polygon fill="white" stroke="#666666" points="931.25,-367.92 822.25,-367.92 822.25,-347.17 931.25,-347.17 931.25,-367.92"/>
<text xml:space="preserve" text-anchor="middle" x="876.75" y="-354.42" font-family="Helvetica,sans-Serif" font-size="10.00">restore_shell_tioctl</text>
</a>
</g>
</g>
<!-- Node9&#45;&gt;Node11 -->
<g id="edge12_Node000009_Node000011" class="edge">
<title>Node9&#45;&gt;Node11</title>
<g id="a_edge12_Node000009_Node000011"><a xlink:title=" ">
<path fill="none" stroke="#63b8ff" d="M643.2,-403.73C656.65,-394.84 677.08,-382.73 696.75,-376.54 733.31,-365.03 775.92,-360.19 810.39,-358.27"/>
<polygon fill="#63b8ff" stroke="#63b8ff" points="810.42,-361.77 820.24,-357.8 810.08,-354.78 810.42,-361.77"/>
</a>
</g>
</g>
<!-- Node12 -->
<g id="Node000012" class="node">
<title>Node12</title>
<g id="a_Node000012"><a xlink:href="../../da/d12/sig_8c.html#a06c1eb6cf3649dc187115565409f91af" target="_top" xlink:title="Set signal handlers to default behavior.">
<polygon fill="white" stroke="#666666" points="917.38,-424.92 836.12,-424.92 836.12,-404.17 917.38,-404.17 917.38,-424.92"/>
<text xml:space="preserve" text-anchor="middle" x="876.75" y="-411.42" font-family="Helvetica,sans-Serif" font-size="10.00">sig_dfl_mode</text>
</a>
</g>
</g>
<!-- Node9&#45;&gt;Node12 -->
<g id="edge13_Node000009_Node000012" class="edge">
<title>Node9&#45;&gt;Node12</title>
<g id="a_edge13_Node000009_Node000012"><a xlink:title=" ">
<path fill="none" stroke="#63b8ff" d="M650.31,-414.54C689.39,-414.54 770.89,-414.54 824.44,-414.54"/>
<polygon fill="#63b8ff" stroke="#63b8ff" points="824.24,-418.04 834.24,-414.54 824.24,-411.04 824.24,-418.04"/>
</a>
</g>
</g>
<!-- Node10&#45;&gt;Node11 -->
<g id="edge10_Node000010_Node000011" class="edge">
<title>Node10&#45;&gt;Node11</title>
<g id="a_edge10_Node000010_Node000011"><a xlink:title=" ">
<path fill="none" stroke="#63b8ff" d="M780.33,-384.75C794.82,-380.62 811.55,-375.85 826.93,-371.46"/>
<polygon fill="#63b8ff" stroke="#63b8ff" points="827.72,-374.88 836.37,-368.77 825.8,-368.15 827.72,-374.88"/>
</a>
</g>
</g>
<!-- Node10&#45;&gt;Node12 -->
<g id="edge11_Node000010_Node000012" class="edge">
<title>Node10&#45;&gt;Node12</title>
<g id="a_edge11_Node000010_Node000012"><a xlink:title=" ">
<path fill="none" stroke="#63b8ff" d="M786.5,-401.81C798.69,-403.55 812.02,-405.45 824.58,-407.24"/>
<polygon fill="#63b8ff" stroke="#63b8ff" points="823.95,-410.69 834.34,-408.64 824.94,-403.76 823.95,-410.69"/>
</a>
</g>
</g>
<!-- Node14 -->
<g id="Node000014" class="node">
<title>Node14</title>
<g id="a_Node000014"><a xlink:href="../../d0/d59/futil_8c.html#aa0145c044cfdde3a1c83323410a59f25" target="_top" xlink:title="safer alternative to strncat">
<polygon fill="white" stroke="#666666" points="659.62,-126.92 594.12,-126.92 594.12,-106.17 659.62,-106.17 659.62,-126.92"/>
<text xml:space="preserve" text-anchor="middle" x="626.88" y="-113.42" font-family="Helvetica,sans-Serif" font-size="10.00">strnz__cat</text>
</a>
</g>
</g>
<!-- Node13&#45;&gt;Node14 -->
<g id="edge15_Node000013_Node000014" class="edge">
<title>Node13&#45;&gt;Node14</title>
<g id="a_edge15_Node000013_Node000014"><a xlink:title=" ">
<path fill="none" stroke="#63b8ff" d="M557.29,-117.14C565.58,-117.07 574.19,-116.99 582.41,-116.92"/>
<polygon fill="#63b8ff" stroke="#63b8ff" points="582.2,-120.42 592.17,-116.84 582.14,-113.42 582.2,-120.42"/>
</a>
</g>
</g>
<!-- Node16&#45;&gt;Node9 -->
<g id="edge18_Node000016_Node000009" class="edge">
<title>Node16&#45;&gt;Node9</title>
<g id="a_edge18_Node000016_Node000009"><a xlink:title=" ">
<path fill="none" stroke="#63b8ff" d="M536.79,-452.67C553.37,-445.57 575.19,-436.23 593.08,-428.58"/>
<polygon fill="#63b8ff" stroke="#63b8ff" points="594.42,-431.81 602.24,-424.66 591.67,-425.37 594.42,-431.81"/>
</a>
</g>
</g>
<!-- Node17&#45;&gt;Node18 -->
<g id="edge20_Node000017_Node000018" class="edge">
<title>Node17&#45;&gt;Node18</title>
<g id="a_edge20_Node000017_Node000018"><a xlink:title=" ">
<path fill="none" stroke="#63b8ff" d="M542.36,-374.72C555.98,-369.96 572.12,-364.32 586.57,-359.27"/>
<polygon fill="#63b8ff" stroke="#63b8ff" points="587.51,-362.65 595.79,-356.05 585.2,-356.04 587.51,-362.65"/>
</a>
</g>
</g>
<!-- Node21&#45;&gt;Node19 -->
<g id="edge26_Node000021_Node000019" class="edge">
<title>Node21&#45;&gt;Node19</title>
<g id="a_edge26_Node000021_Node000019"><a xlink:title=" ">
<path fill="none" stroke="#63b8ff" d="M539.97,-166.03C552.85,-170.31 568.34,-175.45 582.59,-180.18"/>
<polygon fill="#63b8ff" stroke="#63b8ff" points="581.16,-183.39 591.75,-183.22 583.37,-176.74 581.16,-183.39"/>
</a>
</g>
</g>
<!-- Node22 -->
<g id="Node000022" class="node">
<title>Node22</title>
<g id="a_Node000022"><a xlink:href="../../dc/d40/dwin_8c.html#ac9adcf7339be4a05ab1a7350c236b8a5" target="_top" xlink:title="Draw a box around the specified window.">
<polygon fill="white" stroke="#666666" points="646.5,-165.92 607.25,-165.92 607.25,-145.17 646.5,-145.17 646.5,-165.92"/>
<text xml:space="preserve" text-anchor="middle" x="626.88" y="-152.42" font-family="Helvetica,sans-Serif" font-size="10.00">cbox</text>
</a>
</g>
</g>
<!-- Node21&#45;&gt;Node22 -->
<g id="edge25_Node000021_Node000022" class="edge">
<title>Node21&#45;&gt;Node22</title>
<g id="a_edge25_Node000021_Node000022"><a xlink:title=" ">
<path fill="none" stroke="#63b8ff" d="M539.97,-156.29C556.9,-156.14 578.32,-155.96 595.54,-155.81"/>
<polygon fill="#63b8ff" stroke="#63b8ff" points="595.47,-159.31 605.44,-155.72 595.41,-152.31 595.47,-159.31"/>
</a>
</g>
</g>
<!-- Node24 -->
<g id="Node000024" class="node">
<title>Node24</title>
<g id="a_Node000024"><a xlink:href="../../dc/d40/dwin_8c.html#a67659f8a701b74f4dec0d36227a10d1c" target="_top" xlink:title="Display an error message window or print to stderr.">
<polygon fill="white" stroke="#666666" points="421.38,-319.92 341.62,-319.92 341.62,-299.17 421.38,-299.17 421.38,-319.92"/>
<text xml:space="preserve" text-anchor="middle" x="381.5" y="-306.42" font-family="Helvetica,sans-Serif" font-size="10.00">display_error</text>
</a>
</g>
</g>
<!-- Node23&#45;&gt;Node24 -->
<g id="edge28_Node000023_Node000024" class="edge">
<title>Node23&#45;&gt;Node24</title>
<g id="a_edge28_Node000023_Node000024"><a xlink:title=" ">
<path fill="none" stroke="#63b8ff" d="M299.66,-303.55C309.01,-302.97 319.73,-302.72 330.23,-302.81"/>
<polygon fill="#63b8ff" stroke="#63b8ff" points="329.9,-306.3 339.97,-303.01 330.04,-299.3 329.9,-306.3"/>
</a>
</g>
</g>
<!-- Node26 -->
<g id="Node000026" class="node">
<title>Node26</title>
<g id="a_Node000026"><a xlink:href="../../dc/d40/dwin_8c.html#a4298f891699300bfc4e6e56fd2a8d574" target="_top" xlink:title="Get keycode from chyron.">
<polygon fill="white" stroke="#666666" points="427.75,-280.92 335.25,-280.92 335.25,-260.17 427.75,-260.17 427.75,-280.92"/>
<text xml:space="preserve" text-anchor="middle" x="381.5" y="-267.42" font-family="Helvetica,sans-Serif" font-size="10.00">get_chyron_key</text>
</a>
</g>
</g>
<!-- Node23&#45;&gt;Node26 -->
<g id="edge40_Node000023_Node000026" class="edge">
<title>Node23&#45;&gt;Node26</title>
<g id="a_edge40_Node000023_Node000026"><a xlink:title=" ">
<path fill="none" stroke="#63b8ff" d="M299.66,-299.5C311.77,-295.16 326.18,-290 339.46,-285.24"/>
<polygon fill="#63b8ff" stroke="#63b8ff" points="340.61,-288.55 348.84,-281.88 338.25,-281.96 340.61,-288.55"/>
</a>
</g>
</g>
<!-- Node27 -->
<g id="Node000027" class="node">
<title>Node27</title>
<g id="a_Node000027"><a xlink:href="../../da/d12/sig_8c.html#a79c3e22498eb2346543aa9c86fd22e58" target="_top" xlink:title="Handle received signals and prompt user for action.">
<polygon fill="white" stroke="#666666" points="552.12,-242.92 468.62,-242.92 468.62,-222.17 552.12,-222.17 552.12,-242.92"/>
<text xml:space="preserve" text-anchor="middle" x="510.38" y="-229.42" font-family="Helvetica,sans-Serif" font-size="10.00">handle_signal</text>
</a>
</g>
</g>
<!-- Node23&#45;&gt;Node27 -->
<g id="edge41_Node000023_Node000027" class="edge">
<title>Node23&#45;&gt;Node27</title>
<g id="a_edge41_Node000023_Node000027"><a xlink:title=" ">
<path fill="none" stroke="#63b8ff" d="M279.73,-298.79C290.67,-285.19 311.54,-262.24 335.25,-251.54 373.64,-234.21 421.46,-230.08 457.27,-229.92"/>
<polygon fill="#63b8ff" stroke="#63b8ff" points="456.91,-233.42 466.93,-229.99 456.96,-226.42 456.91,-233.42"/>
</a>
</g>
</g>
<!-- Node24&#45;&gt;Node9 -->
<g id="edge29_Node000024_Node000009" class="edge">
<title>Node24&#45;&gt;Node9</title>
<g id="a_edge29_Node000024_Node000009"><a xlink:title=" ">
<path fill="none" stroke="#63b8ff" d="M421.8,-305.21C458.95,-302.98 515.08,-304.53 557,-327.54 571.42,-335.45 597.24,-371.51 612.84,-394.65"/>
<polygon fill="#63b8ff" stroke="#63b8ff" points="609.73,-396.3 618.19,-402.68 615.56,-392.42 609.73,-396.3"/>
</a>
</g>
</g>
<!-- Node24&#45;&gt;Node13 -->
<g id="edge30_Node000024_Node000013" class="edge">
<title>Node24&#45;&gt;Node13</title>
<g id="a_edge30_Node000024_Node000013"><a xlink:title=" ">
<path fill="none" stroke="#63b8ff" d="M416.57,-298.77C420.78,-296.28 424.68,-293.24 427.75,-289.54 472.13,-236.16 419.29,-190.86 463.75,-137.54 464.43,-136.73 465.15,-135.95 465.9,-135.19"/>
<polygon fill="#63b8ff" stroke="#63b8ff" points="467.96,-138.02 473.82,-129.19 463.73,-132.44 467.96,-138.02"/>
</a>
</g>
</g>
<!-- Node24&#45;&gt;Node15 -->
<g id="edge31_Node000024_Node000015" class="edge">
<title>Node24&#45;&gt;Node15</title>
<g id="a_edge31_Node000024_Node000015"><a xlink:title=" ">
<path fill="none" stroke="#63b8ff" d="M389.31,-320.33C401.92,-339.54 430.63,-379.98 463.75,-404.54 465.52,-405.85 467.39,-407.11 469.33,-408.29"/>
<polygon fill="#63b8ff" stroke="#63b8ff" points="467.54,-411.31 478.01,-412.97 470.87,-405.15 467.54,-411.31"/>
</a>
</g>
</g>
<!-- Node24&#45;&gt;Node16 -->
<g id="edge32_Node000024_Node000016" class="edge">
<title>Node24&#45;&gt;Node16</title>
<g id="a_edge32_Node000024_Node000016"><a xlink:title=" ">
<path fill="none" stroke="#63b8ff" d="M386.3,-320.08C395.72,-344.83 422.41,-407.33 463.75,-443.54 465.18,-444.79 466.7,-445.98 468.29,-447.1"/>
<polygon fill="#63b8ff" stroke="#63b8ff" points="466.22,-449.94 476.6,-452.05 469.8,-443.93 466.22,-449.94"/>
</a>
</g>
</g>
<!-- Node24&#45;&gt;Node17 -->
<g id="edge33_Node000024_Node000017" class="edge">
<title>Node24&#45;&gt;Node17</title>
<g id="a_edge33_Node000024_Node000017"><a xlink:title=" ">
<path fill="none" stroke="#63b8ff" d="M396.35,-320.31C412.12,-332.26 438.91,-351.7 463.75,-365.54 466.42,-367.03 469.22,-368.49 472.07,-369.89"/>
<polygon fill="#63b8ff" stroke="#63b8ff" points="470.51,-373.03 481.05,-374.1 473.48,-366.69 470.51,-373.03"/>
</a>
</g>
</g>
<!-- Node24&#45;&gt;Node18 -->
<g id="edge34_Node000024_Node000018" class="edge">
<title>Node24&#45;&gt;Node18</title>
<g id="a_edge34_Node000024_Node000018"><a xlink:title=" ">
<path fill="none" stroke="#63b8ff" d="M416.88,-298.72C452.77,-289.21 510.22,-279.11 557,-294.54 576.52,-300.98 595.02,-315.32 607.93,-327.16"/>
<polygon fill="#63b8ff" stroke="#63b8ff" points="605.18,-329.37 614.82,-333.78 610.03,-324.32 605.18,-329.37"/>
</a>
</g>
</g>
<!-- Node24&#45;&gt;Node19 -->
<g id="edge36_Node000024_Node000019" class="edge">
<title>Node24&#45;&gt;Node19</title>
<g id="a_edge36_Node000024_Node000019"><a xlink:title=" ">
<path fill="none" stroke="#63b8ff" d="M414.5,-298.89C419.31,-296.35 423.94,-293.26 427.75,-289.54 454.52,-263.46 433.39,-235.33 463.75,-213.54 497.67,-189.19 546.25,-186.58 581.38,-188.74"/>
<polygon fill="#63b8ff" stroke="#63b8ff" points="580.99,-192.22 591.23,-189.52 581.53,-185.25 580.99,-192.22"/>
</a>
</g>
</g>
<!-- Node24&#45;&gt;Node20 -->
<g id="edge37_Node000024_Node000020" class="edge">
<title>Node24&#45;&gt;Node20</title>
<g id="a_edge37_Node000024_Node000020"><a xlink:title=" ">
<path fill="none" stroke="#63b8ff" d="M419.54,-320.34C436.18,-325.19 455.77,-330.91 472.4,-335.76"/>
<polygon fill="#63b8ff" stroke="#63b8ff" points="471.34,-339.09 481.92,-338.53 473.3,-332.37 471.34,-339.09"/>
</a>
</g>
</g>
<!-- Node24&#45;&gt;Node21 -->
<g id="edge38_Node000024_Node000021" class="edge">
<title>Node24&#45;&gt;Node21</title>
<g id="a_edge38_Node000024_Node000021"><a xlink:title=" ">
<path fill="none" stroke="#63b8ff" d="M415.83,-298.78C420.25,-296.27 424.4,-293.23 427.75,-289.54 462.03,-251.76 430.78,-219.47 463.75,-180.54 465.99,-177.89 468.6,-175.5 471.41,-173.34"/>
<polygon fill="#63b8ff" stroke="#63b8ff" points="473.11,-176.41 479.62,-168.05 469.32,-170.52 473.11,-176.41"/>
</a>
</g>
</g>
<!-- Node24&#45;&gt;Node23 -->
<g id="edge39_Node000024_Node000023" class="edge">
<title>Node24&#45;&gt;Node23</title>
<g id="a_edge39_Node000024_Node000023"><a xlink:title=" ">
<path fill="none" stroke="#63b8ff" d="M341.48,-316.04C331.54,-316.37 320.86,-316.37 310.92,-316.05"/>
<polygon fill="#63b8ff" stroke="#63b8ff" points="311.33,-312.57 301.17,-315.6 311,-319.56 311.33,-312.57"/>
</a>
</g>
</g>
<!-- Node24&#45;&gt;Node25 -->
<g id="edge35_Node000024_Node000025" class="edge">
<title>Node24&#45;&gt;Node25</title>
<g id="a_edge35_Node000024_Node000025"><a xlink:title=" ">
<path fill="none" stroke="#63b8ff" d="M416.73,-298.89C420.92,-296.39 424.76,-293.31 427.75,-289.54 481.42,-221.86 409.97,-166.14 463.75,-98.54 467.79,-93.46 473.38,-89.65 479.26,-86.78"/>
<polygon fill="#63b8ff" stroke="#63b8ff" points="480.46,-90.07 488.49,-83.15 477.9,-83.56 480.46,-90.07"/>
</a>
</g>
</g>
<!-- Node27&#45;&gt;Node11 -->
<g id="edge42_Node000027_Node000011" class="edge">
<title>Node27&#45;&gt;Node11</title>
<g id="a_edge42_Node000027_Node000011"><a xlink:title=" ">
<path fill="none" stroke="#63b8ff" d="M543.07,-243.41C608.7,-265.93 759.49,-317.66 833.38,-343"/>
<polygon fill="#63b8ff" stroke="#63b8ff" points="832.1,-346.27 842.69,-346.2 834.37,-339.64 832.1,-346.27"/>
</a>
</g>
</g>
<!-- Node27&#45;&gt;Node18 -->
<g id="edge43_Node000027_Node000018" class="edge">
<title>Node27&#45;&gt;Node18</title>
<g id="a_edge43_Node000027_Node000018"><a xlink:title=" ">
<path fill="none" stroke="#63b8ff" d="M536.28,-243.18C543.38,-246.84 550.84,-251.35 557,-256.54 577.11,-273.51 576.89,-282.74 593,-303.54 598.69,-310.89 604.97,-318.93 610.51,-326"/>
<polygon fill="#63b8ff" stroke="#63b8ff" points="607.6,-327.97 616.53,-333.67 613.11,-323.64 607.6,-327.97"/>
</a>
</g>
</g>
<!-- Node27&#45;&gt;Node19 -->
<g id="edge44_Node000027_Node000019" class="edge">
<title>Node27&#45;&gt;Node19</title>
<g id="a_edge44_Node000027_Node000019"><a xlink:title=" ">
<path fill="none" stroke="#63b8ff" d="M543.88,-221.75C555.85,-217.78 569.6,-213.22 582.38,-208.98"/>
<polygon fill="#63b8ff" stroke="#63b8ff" points="583.46,-212.3 591.85,-205.83 581.26,-205.66 583.46,-212.3"/>
</a>
</g>
</g>
<!-- Node28&#45;&gt;Node5 -->
<g id="edge46_Node000028_Node000005" class="edge">
<title>Node28&#45;&gt;Node5</title>
<g id="a_edge46_Node000028_Node000005"><a xlink:title=" ">
<path fill="none" stroke="#63b8ff" d="M194.79,-434.35C198.96,-436.88 202.89,-439.92 206,-443.54 239.52,-482.56 213.56,-510.68 242,-553.54 243.24,-555.41 244.66,-557.21 246.19,-558.94"/>
<polygon fill="#63b8ff" stroke="#63b8ff" points="243.68,-561.39 253.32,-565.8 248.54,-556.34 243.68,-561.39"/>
</a>
</g>
</g>
</g>
</svg>
