<?xml version="1.0" encoding="UTF-8" standalone="no"?>
<!DOCTYPE svg PUBLIC "-//W3C//DTD SVG 1.1//EN"
 "http://www.w3.org/Graphics/SVG/1.1/DTD/svg11.dtd">
<!-- Generated by graphviz version 14.1.2 (0)
 -->
<!-- Title: prompt_int_to_str Pages: 1 -->
<svg width="579pt" height="68pt"
 viewBox="0.00 0.00 579.00 68.00" xmlns="http://www.w3.org/2000/svg" xmlns:xlink="http://www.w3.org/1999/xlink">
<g id="graph0" class="graph" transform="scale(1 1) rotate(0) translate(4 63.75)">
<title>prompt_int_to_str</title>
<!-- Node1 -->
<g id="Node000001" class="node">
<title>Node1</title>
<g id="a_Node000001"><a xlink:title="Convert prompt type integer constant to string.">
<polygon fill="#999999" stroke="#666666" points="570.5,-39.75 468.25,-39.75 468.25,-19 570.5,-19 570.5,-39.75"/>
<text xml:space="preserve" text-anchor="middle" x="519.38" y="-26.25" font-family="Helvetica,sans-Serif" font-size="10.00">prompt_int_to_str</text>
</a>
</g>
</g>
<!-- Node2 -->
<g id="Node000002" class="node">
<title>Node2</title>
<g id="a_Node000002"><a xlink:href="../../d2/d04/a00281.html#a1af490b85f0487c201f369333b84e540" target="_top" xlink:title="Dump the current configuration to stderr for debugging purposes.">
<polygon fill="white" stroke="#666666" points="432.25,-59.75 353.25,-59.75 353.25,-39 432.25,-39 432.25,-59.75"/>
<text xml:space="preserve" text-anchor="middle" x="392.75" y="-46.25" font-family="Helvetica,sans-Serif" font-size="10.00">dump_config</text>
</a>
</g>
</g>
<!-- Node1&#45;&gt;Node2 -->
<g id="edge1_Node000001_Node000002" class="edge">
<title>Node1&#45;&gt;Node2</title>
<g id="a_edge1_Node000001_Node000002"><a xlink:title=" ">
<path fill="none" stroke="#63b8ff" d="M456.78,-39.26C448.46,-40.59 440.14,-41.93 432.38,-43.18"/>
<polygon fill="#63b8ff" stroke="#63b8ff" points="457.23,-42.73 466.55,-37.69 456.12,-35.82 457.23,-42.73"/>
</a>
</g>
</g>
<!-- Node5 -->
<g id="Node000005" class="node">
<title>Node5</title>
<g id="a_Node000005"><a xlink:href="../../d2/d04/a00281.html#a4b671c384affcc6dc1ed59a04d666cc7" target="_top" xlink:title="Write the current configuration to a file specified in init&#45;&gt;minitrc.">
<polygon fill="white" stroke="#666666" points="430.75,-20.75 354.75,-20.75 354.75,0 430.75,0 430.75,-20.75"/>
<text xml:space="preserve" text-anchor="middle" x="392.75" y="-7.25" font-family="Helvetica,sans-Serif" font-size="10.00">write_config</text>
</a>
</g>
</g>
<!-- Node1&#45;&gt;Node5 -->
<g id="edge4_Node000001_Node000005" class="edge">
<title>Node1&#45;&gt;Node5</title>
<g id="a_edge4_Node000001_Node000005"><a xlink:title=" ">
<path fill="none" stroke="#63b8ff" d="M456.68,-19.97C447.99,-18.64 439.28,-17.32 431.23,-16.09"/>
<polygon fill="#63b8ff" stroke="#63b8ff" points="456.13,-23.43 466.55,-21.47 457.19,-16.51 456.13,-23.43"/>
</a>
</g>
</g>
<!-- Node3 -->
<g id="Node000003" class="node">
<title>Node3</title>
<g id="a_Node000003"><a xlink:href="../../d2/d04/a00281.html#accd65939c0ce6f0d940c5cf795a1e8fa" target="_top" xlink:title="Main initialization function for MAPP &#45; Menu Application.">
<polygon fill="white" stroke="#666666" points="310.88,-59.75 201.12,-59.75 201.12,-39 310.88,-39 310.88,-59.75"/>
<text xml:space="preserve" text-anchor="middle" x="256" y="-46.25" font-family="Helvetica,sans-Serif" font-size="10.00">mapp_initialization</text>
</a>
</g>
</g>
<!-- Node2&#45;&gt;Node3 -->
<g id="edge2_Node000002_Node000003" class="edge">
<title>Node2&#45;&gt;Node3</title>
<g id="a_edge2_Node000002_Node000003"><a xlink:title=" ">
<path fill="none" stroke="#63b8ff" d="M341.47,-49.38C331.59,-49.38 321.18,-49.38 311.17,-49.38"/>
<polygon fill="#63b8ff" stroke="#63b8ff" points="341.26,-52.88 351.26,-49.38 341.26,-45.88 341.26,-52.88"/>
</a>
</g>
</g>
<!-- Node4 -->
<g id="Node000004" class="node">
<title>Node4</title>
<g id="a_Node000004"><a xlink:href="../../dc/d5d/a00278.html#a3c04138a5bfe5d72780bb7e82a18e627" target="_top" xlink:title=" ">
<polygon fill="white" stroke="#666666" points="138.12,-59.75 97.38,-59.75 97.38,-39 138.12,-39 138.12,-59.75"/>
<text xml:space="preserve" text-anchor="middle" x="117.75" y="-46.25" font-family="Helvetica,sans-Serif" font-size="10.00">main</text>
</a>
</g>
</g>
<!-- Node3&#45;&gt;Node4 -->
<g id="edge3_Node000003_Node000004" class="edge">
<title>Node3&#45;&gt;Node4</title>
<g id="a_edge3_Node000003_Node000004"><a xlink:title=" ">
<path fill="none" stroke="#63b8ff" d="M189.3,-49.38C170.78,-49.38 152.01,-49.38 138.49,-49.38"/>
<polygon fill="#63b8ff" stroke="#63b8ff" points="189.25,-52.88 199.25,-49.38 189.25,-45.88 189.25,-52.88"/>
</a>
</g>
</g>
<!-- Node5&#45;&gt;Node3 -->
<g id="edge5_Node000005_Node000003" class="edge">
<title>Node5&#45;&gt;Node3</title>
<g id="a_edge5_Node000005_Node000003"><a xlink:title=" ">
<path fill="none" stroke="#63b8ff" d="M343.69,-24.28C327.53,-28.96 309.75,-34.11 294.52,-38.51"/>
<polygon fill="#63b8ff" stroke="#63b8ff" points="344.49,-27.7 353.12,-21.56 342.54,-20.97 344.49,-27.7"/>
</a>
</g>
</g>
<!-- Node6 -->
<g id="Node000006" class="node">
<title>Node6</title>
<g id="a_Node000006"><a xlink:href="../../df/da9/a00263.html#aa5d0e30e7036b72b51c843d0a7e486a1" target="_top" xlink:title="Processes user input for the menu system.">
<polygon fill="white" stroke="#666666" points="317.25,-20.75 194.75,-20.75 194.75,0 317.25,0 317.25,-20.75"/>
<text xml:space="preserve" text-anchor="middle" x="256" y="-7.25" font-family="Helvetica,sans-Serif" font-size="10.00">menu_cmd_processor</text>
</a>
</g>
</g>
<!-- Node5&#45;&gt;Node6 -->
<g id="edge6_Node000005_Node000006" class="edge">
<title>Node5&#45;&gt;Node6</title>
<g id="a_edge6_Node000005_Node000006"><a xlink:title=" ">
<path fill="none" stroke="#63b8ff" d="M343.18,-10.38C334.88,-10.38 326.17,-10.38 317.6,-10.38"/>
<polygon fill="#63b8ff" stroke="#63b8ff" points="343.06,-13.88 353.06,-10.38 343.06,-6.88 343.06,-13.88"/>
</a>
</g>
</g>
<!-- Node7 -->
<g id="Node000007" class="node">
<title>Node7</title>
<g id="a_Node000007"><a xlink:href="../../df/da9/a00263.html#a7d7973d7aac92759dcc86ec52bb038f4" target="_top" xlink:title="The main loop of the menu system.">
<polygon fill="white" stroke="#666666" points="158.75,-20.75 76.75,-20.75 76.75,0 158.75,0 158.75,-20.75"/>
<text xml:space="preserve" text-anchor="middle" x="117.75" y="-7.25" font-family="Helvetica,sans-Serif" font-size="10.00">menu_engine</text>
</a>
</g>
</g>
<!-- Node6&#45;&gt;Node7 -->
<g id="edge7_Node000006_Node000007" class="edge">
<title>Node6&#45;&gt;Node7</title>
<g id="a_edge7_Node000006_Node000007"><a xlink:title=" ">
<path fill="none" stroke="#63b8ff" d="M183.2,-3.63C174.96,-3.67 166.79,-3.84 159.17,-4.15"/>
<polygon fill="#63b8ff" stroke="#63b8ff" points="182.92,-7.13 192.93,-3.66 182.94,-0.13 182.92,-7.13"/>
</a>
</g>
</g>
<!-- Node7&#45;&gt;Node6 -->
<g id="edge9_Node000007_Node000006" class="edge">
<title>Node7&#45;&gt;Node6</title>
<g id="a_edge9_Node000007_Node000006"><a xlink:title=" ">
<path fill="none" stroke="#63b8ff" d="M170.68,-16.95C178.45,-17.12 186.52,-17.17 194.45,-17.09"/>
<polygon fill="#63b8ff" stroke="#63b8ff" points="170.79,-13.45 160.69,-16.65 170.58,-20.45 170.79,-13.45"/>
</a>
</g>
</g>
<!-- Node8 -->
<g id="Node000008" class="node">
<title>Node8</title>
<g id="a_Node000008"><a xlink:href="../../d9/d01/a00227.html#a3c04138a5bfe5d72780bb7e82a18e627" target="_top" xlink:title=" ">
<polygon fill="white" stroke="#666666" points="40.75,-20.75 0,-20.75 0,0 40.75,0 40.75,-20.75"/>
<text xml:space="preserve" text-anchor="middle" x="20.38" y="-7.25" font-family="Helvetica,sans-Serif" font-size="10.00">main</text>
</a>
</g>
</g>
<!-- Node7&#45;&gt;Node8 -->
<g id="edge8_Node000007_Node000008" class="edge">
<title>Node7&#45;&gt;Node8</title>
<g id="a_edge8_Node000007_Node000008"><a xlink:title=" ">
<path fill="none" stroke="#63b8ff" d="M64.79,-10.38C56.36,-10.38 48.1,-10.38 41.09,-10.38"/>
<polygon fill="#63b8ff" stroke="#63b8ff" points="64.79,-13.88 74.79,-10.38 64.79,-6.88 64.79,-13.88"/>
</a>
</g>
</g>
</g>
</svg>
