<?xml version="1.0" encoding="UTF-8" standalone="no"?>
<!DOCTYPE svg PUBLIC "-//W3C//DTD SVG 1.1//EN"
 "http://www.w3.org/Graphics/SVG/1.1/DTD/svg11.dtd">
<!-- Generated by graphviz version 14.1.2 (0)
 -->
<!-- Title: dump_config Pages: 1 -->
<svg width="329pt" height="185pt"
 viewBox="0.00 0.00 329.00 185.00" xmlns="http://www.w3.org/2000/svg" xmlns:xlink="http://www.w3.org/1999/xlink">
<g id="graph0" class="graph" transform="scale(1 1) rotate(0) translate(4 180.75)">
<title>dump_config</title>
<!-- Node1 -->
<g id="Node000001" class="node">
<title>Node1</title>
<g id="a_Node000001"><a xlink:title="Dump the current configuration to stderr for debugging purposes.">
<polygon fill="#999999" stroke="#666666" points="79,-98.75 0,-98.75 0,-78 79,-78 79,-98.75"/>
<text xml:space="preserve" text-anchor="middle" x="39.5" y="-85.25" font-family="Helvetica,sans-Serif" font-size="10.00">dump_config</text>
</a>
</g>
</g>
<!-- Node2 -->
<g id="Node000002" class="node">
<title>Node2</title>
<g id="a_Node000002"><a xlink:href="../../d2/d04/a00281.html#a4cea5ec97a8076e2a944e2c441ebb091" target="_top" xlink:title="Print an option and its value in a formatted manner for boolean values.">
<polygon fill="white" stroke="#666666" points="204.5,-176.75 127.75,-176.75 127.75,-156 204.5,-156 204.5,-176.75"/>
<text xml:space="preserve" text-anchor="middle" x="166.12" y="-163.25" font-family="Helvetica,sans-Serif" font-size="10.00">opt_prt_bool</text>
</a>
</g>
</g>
<!-- Node1&#45;&gt;Node2 -->
<g id="edge1_Node000001_Node000002" class="edge">
<title>Node1&#45;&gt;Node2</title>
<g id="a_edge1_Node000001_Node000002"><a xlink:title=" ">
<path fill="none" stroke="#63b8ff" d="M51.89,-98.92C65.9,-111.49 90.83,-132.52 115,-146.38 117.78,-147.97 120.71,-149.5 123.71,-150.94"/>
<polygon fill="#63b8ff" stroke="#63b8ff" points="122.06,-154.04 132.62,-154.92 124.92,-147.65 122.06,-154.04"/>
</a>
</g>
</g>
<!-- Node3 -->
<g id="Node000003" class="node">
<title>Node3</title>
<g id="a_Node000003"><a xlink:href="../../d2/d04/a00281.html#a365153038835675ce050503313cea890" target="_top" xlink:title="Print an option and its value in a formatted manner for double values.">
<polygon fill="white" stroke="#666666" points="210.5,-137.75 121.75,-137.75 121.75,-117 210.5,-117 210.5,-137.75"/>
<text xml:space="preserve" text-anchor="middle" x="166.12" y="-124.25" font-family="Helvetica,sans-Serif" font-size="10.00">opt_prt_double</text>
</a>
</g>
</g>
<!-- Node1&#45;&gt;Node3 -->
<g id="edge2_Node000001_Node000003" class="edge">
<title>Node1&#45;&gt;Node3</title>
<g id="a_edge2_Node000001_Node000003"><a xlink:title=" ">
<path fill="none" stroke="#63b8ff" d="M75.22,-99.24C88.99,-103.55 105.02,-108.57 119.7,-113.16"/>
<polygon fill="#63b8ff" stroke="#63b8ff" points="118.56,-116.47 129.15,-116.12 120.65,-109.79 118.56,-116.47"/>
</a>
</g>
</g>
<!-- Node4 -->
<g id="Node000004" class="node">
<title>Node4</title>
<g id="a_Node000004"><a xlink:href="../../d2/d04/a00281.html#a4e6bf4b5062dd9bd0c76a7a4402b3a9e" target="_top" xlink:title="Print an option and its value in a formatted manner for integer values.">
<polygon fill="white" stroke="#666666" points="200.38,-98.75 131.88,-98.75 131.88,-78 200.38,-78 200.38,-98.75"/>
<text xml:space="preserve" text-anchor="middle" x="166.12" y="-85.25" font-family="Helvetica,sans-Serif" font-size="10.00">opt_prt_int</text>
</a>
</g>
</g>
<!-- Node1&#45;&gt;Node4 -->
<g id="edge3_Node000001_Node000004" class="edge">
<title>Node1&#45;&gt;Node4</title>
<g id="a_edge3_Node000001_Node000004"><a xlink:title=" ">
<path fill="none" stroke="#63b8ff" d="M79.25,-88.38C92.18,-88.38 106.7,-88.38 120.07,-88.38"/>
<polygon fill="#63b8ff" stroke="#63b8ff" points="119.94,-91.88 129.94,-88.38 119.94,-84.88 119.94,-91.88"/>
</a>
</g>
</g>
<!-- Node5 -->
<g id="Node000005" class="node">
<title>Node5</title>
<g id="a_Node000005"><a xlink:href="../../d2/d04/a00281.html#a086c2240ffa5e497b67d630ea0d206b5" target="_top" xlink:title="Print an option and its value in a formatted manner for integer values.">
<polygon fill="white" stroke="#666666" points="200.38,-59.75 131.88,-59.75 131.88,-39 200.38,-39 200.38,-59.75"/>
<text xml:space="preserve" text-anchor="middle" x="166.12" y="-46.25" font-family="Helvetica,sans-Serif" font-size="10.00">opt_prt_str</text>
</a>
</g>
</g>
<!-- Node1&#45;&gt;Node5 -->
<g id="edge4_Node000001_Node000005" class="edge">
<title>Node1&#45;&gt;Node5</title>
<g id="a_edge4_Node000001_Node000005"><a xlink:title=" ">
<path fill="none" stroke="#63b8ff" d="M75.22,-77.51C89.36,-73.09 105.87,-67.92 120.87,-63.23"/>
<polygon fill="#63b8ff" stroke="#63b8ff" points="121.51,-66.69 130.01,-60.36 119.42,-60.01 121.51,-66.69"/>
</a>
</g>
</g>
<!-- Node6 -->
<g id="Node000006" class="node">
<title>Node6</title>
<g id="a_Node000006"><a xlink:href="../../d2/d04/a00281.html#afc067c129a46582ffeee5bd63ebcbf9f" target="_top" xlink:title="Convert prompt type integer constant to string.">
<polygon fill="white" stroke="#666666" points="217.25,-20.75 115,-20.75 115,0 217.25,0 217.25,-20.75"/>
<text xml:space="preserve" text-anchor="middle" x="166.12" y="-7.25" font-family="Helvetica,sans-Serif" font-size="10.00">prompt_int_to_str</text>
</a>
</g>
</g>
<!-- Node1&#45;&gt;Node6 -->
<g id="edge5_Node000001_Node000006" class="edge">
<title>Node1&#45;&gt;Node6</title>
<g id="a_edge5_Node000001_Node000006"><a xlink:title=" ">
<path fill="none" stroke="#63b8ff" d="M51.89,-77.83C65.9,-65.26 90.83,-44.23 115,-30.38 117.78,-28.78 120.71,-27.25 123.71,-25.81"/>
<polygon fill="#63b8ff" stroke="#63b8ff" points="124.92,-29.1 132.62,-21.83 122.06,-22.71 124.92,-29.1"/>
</a>
</g>
</g>
<!-- Node7 -->
<g id="Node000007" class="node">
<title>Node7</title>
<g id="a_Node000007"><a xlink:href="../../db/dc3/a00284.html#a0de2e40df9bd7efc8fd9afb8ad2257e6" target="_top" xlink:title="safer alternative to strncpy">
<polygon fill="white" stroke="#666666" points="321,-20.75 253.25,-20.75 253.25,0 321,0 321,-20.75"/>
<text xml:space="preserve" text-anchor="middle" x="287.12" y="-7.25" font-family="Helvetica,sans-Serif" font-size="10.00">strnz__cpy</text>
</a>
</g>
</g>
<!-- Node6&#45;&gt;Node7 -->
<g id="edge6_Node000006_Node000007" class="edge">
<title>Node6&#45;&gt;Node7</title>
<g id="a_edge6_Node000006_Node000007"><a xlink:title=" ">
<path fill="none" stroke="#63b8ff" d="M217.59,-10.38C225.5,-10.38 233.63,-10.38 241.39,-10.38"/>
<polygon fill="#63b8ff" stroke="#63b8ff" points="241.32,-13.88 251.32,-10.38 241.32,-6.88 241.32,-13.88"/>
</a>
</g>
</g>
</g>
</svg>
