<?xml version="1.0" encoding="UTF-8" standalone="no"?>
<!DOCTYPE svg PUBLIC "-//W3C//DTD SVG 1.1//EN"
 "http://www.w3.org/Graphics/SVG/1.1/DTD/svg11.dtd">
<!-- Generated by graphviz version 14.1.2 (0)
 -->
<!-- Title: form_end_fields Pages: 1 -->
<svg width="902pt" height="413pt"
 viewBox="0.00 0.00 902.00 413.00" xmlns="http://www.w3.org/2000/svg" xmlns:xlink="http://www.w3.org/1999/xlink">
<g id="graph0" class="graph" transform="scale(1 1) rotate(0) translate(4 408.75)">
<title>form_end_fields</title>
<!-- Node1 -->
<g id="Node000001" class="node">
<title>Node1</title>
<g id="a_Node000001"><a xlink:title="Handle post&#45;processing after field entry, allowing user to edit data, execute a provider command,...">
<polygon fill="#999999" stroke="#666666" points="94.75,-328.75 0,-328.75 0,-308 94.75,-308 94.75,-328.75"/>
<text xml:space="preserve" text-anchor="middle" x="47.38" y="-315.25" font-family="Helvetica,sans-Serif" font-size="10.00">form_end_fields</text>
</a>
</g>
</g>
<!-- Node2 -->
<g id="Node000002" class="node">
<title>Node2</title>
<g id="a_Node000002"><a xlink:href="../../d2/d04/a00281.html#a639a9c28161fb26549fb07378ae82f55" target="_top" xlink:title="Display the chyron (status line) at the bottom of the form window, showing available commands and the...">
<polygon fill="white" stroke="#666666" points="390,-404.75 272,-404.75 272,-384 390,-384 390,-404.75"/>
<text xml:space="preserve" text-anchor="middle" x="331" y="-391.25" font-family="Helvetica,sans-Serif" font-size="10.00">form_display_chyron</text>
</a>
</g>
</g>
<!-- Node1&#45;&gt;Node2 -->
<g id="edge1_Node000001_Node000002" class="edge">
<title>Node1&#45;&gt;Node2</title>
<g id="a_edge1_Node000001_Node000002"><a xlink:title=" ">
<path fill="none" stroke="#63b8ff" d="M59.83,-329.21C74.81,-342.65 102.49,-365.05 130.75,-375.38 172.04,-390.46 221.18,-395.27 260.33,-396.29"/>
<polygon fill="#63b8ff" stroke="#63b8ff" points="260.04,-399.78 270.1,-396.45 260.16,-392.78 260.04,-399.78"/>
</a>
</g>
</g>
<!-- Node5 -->
<g id="Node000005" class="node">
<title>Node5</title>
<g id="a_Node000005"><a xlink:href="../../df/d95/a00299.html#a15d3a32179f7063332ae621c5565d645" target="_top" xlink:title="Check if function key label is set.">
<polygon fill="white" stroke="#666666" points="236,-366.75 130.75,-366.75 130.75,-346 236,-346 236,-366.75"/>
<text xml:space="preserve" text-anchor="middle" x="183.38" y="-353.25" font-family="Helvetica,sans-Serif" font-size="10.00">is_set_chyron_key</text>
</a>
</g>
</g>
<!-- Node1&#45;&gt;Node5 -->
<g id="edge4_Node000001_Node000005" class="edge">
<title>Node1&#45;&gt;Node5</title>
<g id="a_edge4_Node000001_Node000005"><a xlink:title=" ">
<path fill="none" stroke="#63b8ff" d="M86.42,-329.16C100.99,-333.29 117.82,-338.07 133.28,-342.45"/>
<polygon fill="#63b8ff" stroke="#63b8ff" points="132.21,-345.79 142.78,-345.15 134.12,-339.05 132.21,-345.79"/>
</a>
</g>
</g>
<!-- Node6 -->
<g id="Node000006" class="node">
<title>Node6</title>
<g id="a_Node000006"><a xlink:href="../../df/d95/a00299.html#a208ce92c197fdd6d2b007987e534aa3b" target="_top" xlink:title="Set chyron key.">
<polygon fill="white" stroke="#666666" points="518.5,-365.75 426.75,-365.75 426.75,-345 518.5,-345 518.5,-365.75"/>
<text xml:space="preserve" text-anchor="middle" x="472.62" y="-352.25" font-family="Helvetica,sans-Serif" font-size="10.00">set_chyron_key</text>
</a>
</g>
</g>
<!-- Node1&#45;&gt;Node6 -->
<g id="edge5_Node000001_Node000006" class="edge">
<title>Node1&#45;&gt;Node6</title>
<g id="a_edge5_Node000001_Node000006"><a xlink:title=" ">
<path fill="none" stroke="#63b8ff" d="M94.88,-322.44C173.02,-329.27 330.39,-343.03 414.9,-350.42"/>
<polygon fill="#63b8ff" stroke="#63b8ff" points="414.55,-353.9 424.82,-351.28 415.16,-346.93 414.55,-353.9"/>
</a>
</g>
</g>
<!-- Node8 -->
<g id="Node000008" class="node">
<title>Node8</title>
<g id="a_Node000008"><a xlink:href="../../df/d95/a00299.html#aa7a0ffb208b4367906c5f228d418232f" target="_top" xlink:title="Unset chyron key.">
<polygon fill="white" stroke="#666666" points="235.25,-290.75 131.5,-290.75 131.5,-270 235.25,-270 235.25,-290.75"/>
<text xml:space="preserve" text-anchor="middle" x="183.38" y="-277.25" font-family="Helvetica,sans-Serif" font-size="10.00">unset_chyron_key</text>
</a>
</g>
</g>
<!-- Node1&#45;&gt;Node8 -->
<g id="edge7_Node000001_Node000008" class="edge">
<title>Node1&#45;&gt;Node8</title>
<g id="a_edge7_Node000001_Node000008"><a xlink:title=" ">
<path fill="none" stroke="#63b8ff" d="M86.42,-307.59C100.99,-303.46 117.82,-298.68 133.28,-294.3"/>
<polygon fill="#63b8ff" stroke="#63b8ff" points="134.12,-297.7 142.78,-291.6 132.21,-290.96 134.12,-297.7"/>
</a>
</g>
</g>
<!-- Node9 -->
<g id="Node000009" class="node">
<title>Node9</title>
<g id="a_Node000009"><a xlink:href="../../df/d95/a00299.html#acf4c709bccc4c965a5d61db978db31a3" target="_top" xlink:title="Wrapper for wgetch that handles signals and mouse events.">
<polygon fill="white" stroke="#666666" points="212,-251.75 154.75,-251.75 154.75,-231 212,-231 212,-251.75"/>
<text xml:space="preserve" text-anchor="middle" x="183.38" y="-238.25" font-family="Helvetica,sans-Serif" font-size="10.00">xwgetch</text>
</a>
</g>
</g>
<!-- Node1&#45;&gt;Node9 -->
<g id="edge8_Node000001_Node000009" class="edge">
<title>Node1&#45;&gt;Node9</title>
<g id="a_edge8_Node000001_Node000009"><a xlink:title=" ">
<path fill="none" stroke="#63b8ff" d="M61.73,-307.65C77.53,-295.33 104.94,-275.06 130.75,-261.38 134.95,-259.15 139.46,-257.03 144,-255.07"/>
<polygon fill="#63b8ff" stroke="#63b8ff" points="145.17,-258.37 153.11,-251.36 142.53,-251.89 145.17,-258.37"/>
</a>
</g>
</g>
<!-- Node3 -->
<g id="Node000003" class="node">
<title>Node3</title>
<g id="a_Node000003"><a xlink:href="../../df/d95/a00299.html#a645871e46277e31736bc36d0f3dce4bd" target="_top" xlink:title="construct the chyron string from the chyron structure">
<polygon fill="white" stroke="#666666" points="519.25,-404.75 426,-404.75 426,-384 519.25,-384 519.25,-404.75"/>
<text xml:space="preserve" text-anchor="middle" x="472.62" y="-391.25" font-family="Helvetica,sans-Serif" font-size="10.00">compile_chyron</text>
</a>
</g>
</g>
<!-- Node2&#45;&gt;Node3 -->
<g id="edge2_Node000002_Node000003" class="edge">
<title>Node2&#45;&gt;Node3</title>
<g id="a_edge2_Node000002_Node000003"><a xlink:title=" ">
<path fill="none" stroke="#63b8ff" d="M390.4,-394.38C398.34,-394.38 406.47,-394.38 414.38,-394.38"/>
<polygon fill="#63b8ff" stroke="#63b8ff" points="414.25,-397.88 424.25,-394.38 414.25,-390.88 414.25,-397.88"/>
</a>
</g>
</g>
<!-- Node4 -->
<g id="Node000004" class="node">
<title>Node4</title>
<g id="a_Node000004"><a xlink:href="../../dc/d5d/a00278.html#aa0145c044cfdde3a1c83323410a59f25" target="_top" xlink:title="safer alternative to strncat">
<polygon fill="white" stroke="#666666" points="621.88,-404.75 556.38,-404.75 556.38,-384 621.88,-384 621.88,-404.75"/>
<text xml:space="preserve" text-anchor="middle" x="589.12" y="-391.25" font-family="Helvetica,sans-Serif" font-size="10.00">strnz__cat</text>
</a>
</g>
</g>
<!-- Node3&#45;&gt;Node4 -->
<g id="edge3_Node000003_Node000004" class="edge">
<title>Node3&#45;&gt;Node4</title>
<g id="a_edge3_Node000003_Node000004"><a xlink:title=" ">
<path fill="none" stroke="#63b8ff" d="M519.54,-394.38C527.83,-394.38 536.44,-394.38 544.66,-394.38"/>
<polygon fill="#63b8ff" stroke="#63b8ff" points="544.42,-397.88 554.42,-394.38 544.42,-390.88 544.42,-397.88"/>
</a>
</g>
</g>
<!-- Node7 -->
<g id="Node000007" class="node">
<title>Node7</title>
<g id="a_Node000007"><a xlink:href="../../dc/d5d/a00278.html#a63eb94756fb011a456a3dec900709cd8" target="_top" xlink:title="ssnprintf was designed to be a safer alternative to snprintf.">
<polygon fill="white" stroke="#666666" points="618.5,-327.75 559.75,-327.75 559.75,-307 618.5,-307 618.5,-327.75"/>
<text xml:space="preserve" text-anchor="middle" x="589.12" y="-314.25" font-family="Helvetica,sans-Serif" font-size="10.00">ssnprintf</text>
</a>
</g>
</g>
<!-- Node6&#45;&gt;Node7 -->
<g id="edge6_Node000006_Node000007" class="edge">
<title>Node6&#45;&gt;Node7</title>
<g id="a_edge6_Node000006_Node000007"><a xlink:title=" ">
<path fill="none" stroke="#63b8ff" d="M506.13,-344.59C519.38,-340.19 534.82,-335.07 548.71,-330.46"/>
<polygon fill="#63b8ff" stroke="#63b8ff" points="549.61,-333.84 558,-327.37 547.41,-327.2 549.61,-333.84"/>
</a>
</g>
</g>
<!-- Node10 -->
<g id="Node000010" class="node">
<title>Node10</title>
<g id="a_Node000010"><a xlink:href="../../df/d95/a00299.html#a67659f8a701b74f4dec0d36227a10d1c" target="_top" xlink:title="Display an error message window or print to stderr.">
<polygon fill="white" stroke="#666666" points="370.88,-213.75 291.12,-213.75 291.12,-193 370.88,-193 370.88,-213.75"/>
<text xml:space="preserve" text-anchor="middle" x="331" y="-200.25" font-family="Helvetica,sans-Serif" font-size="10.00">display_error</text>
</a>
</g>
</g>
<!-- Node9&#45;&gt;Node10 -->
<g id="edge9_Node000009_Node000010" class="edge">
<title>Node9&#45;&gt;Node10</title>
<g id="a_edge9_Node000009_Node000010"><a xlink:title=" ">
<path fill="none" stroke="#63b8ff" d="M206.49,-230.59C225.81,-223.92 254.59,-215.93 279.5,-210.09"/>
<polygon fill="#63b8ff" stroke="#63b8ff" points="280.17,-213.53 289.15,-207.91 278.63,-206.7 280.17,-213.53"/>
</a>
</g>
</g>
<!-- Node22 -->
<g id="Node000022" class="node">
<title>Node22</title>
<g id="a_Node000022"><a xlink:href="../../df/d95/a00299.html#a4298f891699300bfc4e6e56fd2a8d574" target="_top" xlink:title="Get keycode from chyron.">
<polygon fill="white" stroke="#666666" points="377.25,-289.75 284.75,-289.75 284.75,-269 377.25,-269 377.25,-289.75"/>
<text xml:space="preserve" text-anchor="middle" x="331" y="-276.25" font-family="Helvetica,sans-Serif" font-size="10.00">get_chyron_key</text>
</a>
</g>
</g>
<!-- Node9&#45;&gt;Node22 -->
<g id="edge29_Node000009_Node000022" class="edge">
<title>Node9&#45;&gt;Node22</title>
<g id="a_edge29_Node000009_Node000022"><a xlink:title=" ">
<path fill="none" stroke="#63b8ff" d="M212.45,-248.7C230.91,-253.52 255.62,-259.97 277.62,-265.71"/>
<polygon fill="#63b8ff" stroke="#63b8ff" points="276.48,-269.03 287.04,-268.16 278.24,-262.25 276.48,-269.03"/>
</a>
</g>
</g>
<!-- Node23 -->
<g id="Node000023" class="node">
<title>Node23</title>
<g id="a_Node000023"><a xlink:href="../../d1/da8/a00230.html#a79c3e22498eb2346543aa9c86fd22e58" target="_top" xlink:title="Handle received signals and prompt user for action.">
<polygon fill="white" stroke="#666666" points="514.38,-289.75 430.88,-289.75 430.88,-269 514.38,-269 514.38,-289.75"/>
<text xml:space="preserve" text-anchor="middle" x="472.62" y="-276.25" font-family="Helvetica,sans-Serif" font-size="10.00">handle_signal</text>
</a>
</g>
</g>
<!-- Node9&#45;&gt;Node23 -->
<g id="edge30_Node000009_Node000023" class="edge">
<title>Node9&#45;&gt;Node23</title>
<g id="a_edge30_Node000009_Node000023"><a xlink:title=" ">
<path fill="none" stroke="#63b8ff" d="M212.47,-242.75C252.2,-244.98 327,-250.18 390,-260.38 399.71,-261.95 409.97,-264.01 419.83,-266.2"/>
<polygon fill="#63b8ff" stroke="#63b8ff" points="418.73,-269.54 429.26,-268.37 420.3,-262.72 418.73,-269.54"/>
</a>
</g>
</g>
<!-- Node10&#45;&gt;Node3 -->
<g id="edge16_Node000010_Node000003" class="edge">
<title>Node10&#45;&gt;Node3</title>
<g id="a_edge16_Node000010_Node000003"><a xlink:title=" ">
<path fill="none" stroke="#63b8ff" d="M346.37,-214.08C359.47,-224.54 378.49,-241.6 390,-260.38 417.77,-305.67 390.5,-334.84 426,-374.38 426.84,-375.31 427.73,-376.2 428.66,-377.05"/>
<polygon fill="#63b8ff" stroke="#63b8ff" points="426.57,-379.86 436.75,-382.81 430.63,-374.16 426.57,-379.86"/>
</a>
</g>
</g>
<!-- Node10&#45;&gt;Node6 -->
<g id="edge20_Node000010_Node000006" class="edge">
<title>Node10&#45;&gt;Node6</title>
<g id="a_edge20_Node000010_Node000006"><a xlink:title=" ">
<path fill="none" stroke="#63b8ff" d="M345.2,-214.12C357.82,-224.88 376.83,-242.37 390,-260.38 410.89,-288.93 401.17,-306.17 426,-331.38 428.72,-334.14 431.83,-336.65 435.11,-338.92"/>
<polygon fill="#63b8ff" stroke="#63b8ff" points="432.99,-341.73 443.36,-343.9 436.61,-335.74 432.99,-341.73"/>
</a>
</g>
</g>
<!-- Node10&#45;&gt;Node7 -->
<g id="edge21_Node000010_Node000007" class="edge">
<title>Node10&#45;&gt;Node7</title>
<g id="a_edge21_Node000010_Node000007"><a xlink:title=" ">
<path fill="none" stroke="#63b8ff" d="M343.24,-214.19C355.01,-225.56 373.98,-244.06 390,-260.38 406.3,-276.98 405.2,-287.95 426,-298.38 464.3,-317.57 513.9,-320.72 548.1,-320.08"/>
<polygon fill="#63b8ff" stroke="#63b8ff" points="548.12,-323.58 558,-319.77 547.89,-316.59 548.12,-323.58"/>
</a>
</g>
</g>
<!-- Node10&#45;&gt;Node9 -->
<g id="edge28_Node000010_Node000009" class="edge">
<title>Node10&#45;&gt;Node9</title>
<g id="a_edge28_Node000010_Node000009"><a xlink:title=" ">
<path fill="none" stroke="#63b8ff" d="M307.72,-214.21C285.36,-221.92 250.45,-231.38 223.47,-237.23"/>
<polygon fill="#63b8ff" stroke="#63b8ff" points="223.02,-233.75 213.94,-239.2 224.44,-240.61 223.02,-233.75"/>
</a>
</g>
</g>
<!-- Node11 -->
<g id="Node000011" class="node">
<title>Node11</title>
<g id="a_Node000011"><a xlink:href="../../df/d95/a00299.html#a8f6c45ca4a7f6a41c4c88314e697565a" target="_top" xlink:title="Abnormal program termination.">
<polygon fill="white" stroke="#666666" points="612.12,-97.75 566.12,-97.75 566.12,-77 612.12,-77 612.12,-97.75"/>
<text xml:space="preserve" text-anchor="middle" x="589.12" y="-84.25" font-family="Helvetica,sans-Serif" font-size="10.00">abend</text>
</a>
</g>
</g>
<!-- Node10&#45;&gt;Node11 -->
<g id="edge10_Node000010_Node000011" class="edge">
<title>Node10&#45;&gt;Node11</title>
<g id="a_edge10_Node000010_Node000011"><a xlink:title=" ">
<path fill="none" stroke="#63b8ff" d="M338.69,-192.61C352.26,-171.84 385.21,-126.53 426,-106.38 466.91,-86.16 520.49,-83.86 554.63,-84.93"/>
<polygon fill="#63b8ff" stroke="#63b8ff" points="554.18,-88.42 564.32,-85.36 554.49,-81.42 554.18,-88.42"/>
</a>
</g>
</g>
<!-- Node15 -->
<g id="Node000015" class="node">
<title>Node15</title>
<g id="a_Node000015"><a xlink:href="../../df/d95/a00299.html#a3f3feb40fd703913c5c136331f627c91" target="_top" xlink:title="Destroy Chyron structure.">
<polygon fill="white" stroke="#666666" points="518.12,-135.75 427.12,-135.75 427.12,-115 518.12,-115 518.12,-135.75"/>
<text xml:space="preserve" text-anchor="middle" x="472.62" y="-122.25" font-family="Helvetica,sans-Serif" font-size="10.00">destroy_chyron</text>
</a>
</g>
</g>
<!-- Node10&#45;&gt;Node15 -->
<g id="edge17_Node000010_Node000015" class="edge">
<title>Node10&#45;&gt;Node15</title>
<g id="a_edge17_Node000010_Node000015"><a xlink:title=" ">
<path fill="none" stroke="#63b8ff" d="M347.9,-192.61C366.28,-180.4 397.64,-160.25 426,-145.38 428.87,-143.87 431.88,-142.37 434.93,-140.92"/>
<polygon fill="#63b8ff" stroke="#63b8ff" points="436.26,-144.16 443.89,-136.81 433.35,-137.8 436.26,-144.16"/>
</a>
</g>
</g>
<!-- Node16 -->
<g id="Node000016" class="node">
<title>Node16</title>
<g id="a_Node000016"><a xlink:href="../../df/d95/a00299.html#ad37d5808ff30ae6894780425d865abae" target="_top" xlink:title="Create and initialize Chyron structure.">
<polygon fill="white" stroke="#666666" points="509.88,-20.75 435.38,-20.75 435.38,0 509.88,0 509.88,-20.75"/>
<text xml:space="preserve" text-anchor="middle" x="472.62" y="-7.25" font-family="Helvetica,sans-Serif" font-size="10.00">new_chyron</text>
</a>
</g>
</g>
<!-- Node10&#45;&gt;Node16 -->
<g id="edge18_Node000010_Node000016" class="edge">
<title>Node10&#45;&gt;Node16</title>
<g id="a_edge18_Node000010_Node000016"><a xlink:title=" ">
<path fill="none" stroke="#63b8ff" d="M335.02,-192.91C344.03,-163.43 373.39,-78.71 426,-30.38 427.23,-29.24 428.54,-28.16 429.91,-27.14"/>
<polygon fill="#63b8ff" stroke="#63b8ff" points="431.59,-30.22 438.25,-21.97 427.91,-24.27 431.59,-30.22"/>
</a>
</g>
</g>
<!-- Node17 -->
<g id="Node000017" class="node">
<title>Node17</title>
<g id="a_Node000017"><a xlink:href="../../dc/d5d/a00278.html#a636608f26d1193b5d860f2312cd8ee49" target="_top" xlink:title="terminates string at New Line, Carriage Return, or max_len">
<polygon fill="white" stroke="#666666" points="492.62,-59.75 452.62,-59.75 452.62,-39 492.62,-39 492.62,-59.75"/>
<text xml:space="preserve" text-anchor="middle" x="472.62" y="-46.25" font-family="Helvetica,sans-Serif" font-size="10.00">strnz</text>
</a>
</g>
</g>
<!-- Node10&#45;&gt;Node17 -->
<g id="edge22_Node000010_Node000017" class="edge">
<title>Node10&#45;&gt;Node17</title>
<g id="a_edge22_Node000010_Node000017"><a xlink:title=" ">
<path fill="none" stroke="#63b8ff" d="M337.49,-192.67C350.22,-168.69 383.92,-109.87 426,-73.38 430.82,-69.2 436.49,-65.48 442.16,-62.3"/>
<polygon fill="#63b8ff" stroke="#63b8ff" points="443.55,-65.53 450.85,-57.85 440.36,-59.3 443.55,-65.53"/>
</a>
</g>
</g>
<!-- Node18 -->
<g id="Node000018" class="node">
<title>Node18</title>
<g id="a_Node000018"><a xlink:href="../../dc/d5d/a00278.html#a0de2e40df9bd7efc8fd9afb8ad2257e6" target="_top" xlink:title="safer alternative to strncpy">
<polygon fill="white" stroke="#666666" points="623,-212.75 555.25,-212.75 555.25,-192 623,-192 623,-212.75"/>
<text xml:space="preserve" text-anchor="middle" x="589.12" y="-199.25" font-family="Helvetica,sans-Serif" font-size="10.00">strnz__cpy</text>
</a>
</g>
</g>
<!-- Node10&#45;&gt;Node18 -->
<g id="edge23_Node000010_Node000018" class="edge">
<title>Node10&#45;&gt;Node18</title>
<g id="a_edge23_Node000010_Node000018"><a xlink:title=" ">
<path fill="none" stroke="#63b8ff" d="M371.18,-203.22C417.65,-203.04 494.95,-202.74 543.64,-202.55"/>
<polygon fill="#63b8ff" stroke="#63b8ff" points="543.56,-206.05 553.55,-202.51 543.53,-199.05 543.56,-206.05"/>
</a>
</g>
</g>
<!-- Node19 -->
<g id="Node000019" class="node">
<title>Node19</title>
<g id="a_Node000019"><a xlink:href="../../df/d95/a00299.html#a9dd598e1d49c8764af1eec42c682623e" target="_top" xlink:title="Delete the current window and its associated box window.">
<polygon fill="white" stroke="#666666" points="499.38,-250.75 445.88,-250.75 445.88,-230 499.38,-230 499.38,-250.75"/>
<text xml:space="preserve" text-anchor="middle" x="472.62" y="-237.25" font-family="Helvetica,sans-Serif" font-size="10.00">win_del</text>
</a>
</g>
</g>
<!-- Node10&#45;&gt;Node19 -->
<g id="edge24_Node000010_Node000019" class="edge">
<title>Node10&#45;&gt;Node19</title>
<g id="a_edge24_Node000010_Node000019"><a xlink:title=" ">
<path fill="none" stroke="#63b8ff" d="M371.26,-213.78C391.09,-219.03 415,-225.37 434.52,-230.54"/>
<polygon fill="#63b8ff" stroke="#63b8ff" points="433.41,-233.87 443.97,-233.05 435.2,-227.1 433.41,-233.87"/>
</a>
</g>
</g>
<!-- Node20 -->
<g id="Node000020" class="node">
<title>Node20</title>
<g id="a_Node000020"><a xlink:href="../../df/d95/a00299.html#a435c7bff7ffedb8f51c6de9259e36f6c" target="_top" xlink:title="Create a new window with optional box and title.">
<polygon fill="white" stroke="#666666" points="502,-174.75 443.25,-174.75 443.25,-154 502,-154 502,-174.75"/>
<text xml:space="preserve" text-anchor="middle" x="472.62" y="-161.25" font-family="Helvetica,sans-Serif" font-size="10.00">win_new</text>
</a>
</g>
</g>
<!-- Node10&#45;&gt;Node20 -->
<g id="edge25_Node000010_Node000020" class="edge">
<title>Node10&#45;&gt;Node20</title>
<g id="a_edge25_Node000010_Node000020"><a xlink:title=" ">
<path fill="none" stroke="#63b8ff" d="M370.89,-192.51C389.96,-187.19 412.88,-180.78 432.04,-175.43"/>
<polygon fill="#63b8ff" stroke="#63b8ff" points="432.98,-178.8 441.66,-172.74 431.09,-172.06 432.98,-178.8"/>
</a>
</g>
</g>
<!-- Node12 -->
<g id="Node000012" class="node">
<title>Node12</title>
<g id="a_Node000012"><a xlink:href="../../df/d95/a00299.html#afc0985a403e3eac0b2cd8f0fab500256" target="_top" xlink:title="Gracefully shut down NCurses and restore terminal settings.">
<polygon fill="white" stroke="#666666" points="748.5,-116.75 659,-116.75 659,-96 748.5,-96 748.5,-116.75"/>
<text xml:space="preserve" text-anchor="middle" x="703.75" y="-103.25" font-family="Helvetica,sans-Serif" font-size="10.00">destroy_curses</text>
</a>
</g>
</g>
<!-- Node11&#45;&gt;Node12 -->
<g id="edge11_Node000011_Node000012" class="edge">
<title>Node11&#45;&gt;Node12</title>
<g id="a_edge11_Node000011_Node000012"><a xlink:title=" ">
<path fill="none" stroke="#63b8ff" d="M612.38,-91.13C622.49,-92.83 634.94,-94.94 647.34,-97.03"/>
<polygon fill="#63b8ff" stroke="#63b8ff" points="646.71,-100.47 657.15,-98.68 647.87,-93.57 646.71,-100.47"/>
</a>
</g>
</g>
<!-- Node13 -->
<g id="Node000013" class="node">
<title>Node13</title>
<g id="a_Node000013"><a xlink:href="../../d6/de1/a00233.html#ac5e3adb304b78910fc77761ef6a743f0" target="_top" xlink:title="restore_shell_tioctl() &#45; restore shell terminal settings">
<polygon fill="white" stroke="#666666" points="893.5,-154.75 784.5,-154.75 784.5,-134 893.5,-134 893.5,-154.75"/>
<text xml:space="preserve" text-anchor="middle" x="839" y="-141.25" font-family="Helvetica,sans-Serif" font-size="10.00">restore_shell_tioctl</text>
</a>
</g>
</g>
<!-- Node11&#45;&gt;Node13 -->
<g id="edge14_Node000011_Node000013" class="edge">
<title>Node11&#45;&gt;Node13</title>
<g id="a_edge14_Node000011_Node000013"><a xlink:title=" ">
<path fill="none" stroke="#63b8ff" d="M605.45,-98.18C618.9,-107.08 639.33,-119.18 659,-125.38 695.56,-136.88 738.17,-141.72 772.64,-143.65"/>
<polygon fill="#63b8ff" stroke="#63b8ff" points="772.33,-147.14 782.49,-144.12 772.67,-140.14 772.33,-147.14"/>
</a>
</g>
</g>
<!-- Node14 -->
<g id="Node000014" class="node">
<title>Node14</title>
<g id="a_Node000014"><a xlink:href="../../d1/da8/a00230.html#a06c1eb6cf3649dc187115565409f91af" target="_top" xlink:title="Set signal handlers to default behavior.">
<polygon fill="white" stroke="#666666" points="879.62,-97.75 798.38,-97.75 798.38,-77 879.62,-77 879.62,-97.75"/>
<text xml:space="preserve" text-anchor="middle" x="839" y="-84.25" font-family="Helvetica,sans-Serif" font-size="10.00">sig_dfl_mode</text>
</a>
</g>
</g>
<!-- Node11&#45;&gt;Node14 -->
<g id="edge15_Node000011_Node000014" class="edge">
<title>Node11&#45;&gt;Node14</title>
<g id="a_edge15_Node000011_Node000014"><a xlink:title=" ">
<path fill="none" stroke="#63b8ff" d="M612.56,-87.38C651.64,-87.38 733.14,-87.38 786.69,-87.38"/>
<polygon fill="#63b8ff" stroke="#63b8ff" points="786.49,-90.88 796.49,-87.38 786.49,-83.88 786.49,-90.88"/>
</a>
</g>
</g>
<!-- Node12&#45;&gt;Node13 -->
<g id="edge12_Node000012_Node000013" class="edge">
<title>Node12&#45;&gt;Node13</title>
<g id="a_edge12_Node000012_Node000013"><a xlink:title=" ">
<path fill="none" stroke="#63b8ff" d="M742.58,-117.16C757.07,-121.29 773.8,-126.07 789.18,-130.45"/>
<polygon fill="#63b8ff" stroke="#63b8ff" points="788.05,-133.77 798.62,-133.15 789.97,-127.04 788.05,-133.77"/>
</a>
</g>
</g>
<!-- Node12&#45;&gt;Node14 -->
<g id="edge13_Node000012_Node000014" class="edge">
<title>Node12&#45;&gt;Node14</title>
<g id="a_edge13_Node000012_Node000014"><a xlink:title=" ">
<path fill="none" stroke="#63b8ff" d="M748.75,-100.1C760.94,-98.36 774.27,-96.46 786.83,-94.67"/>
<polygon fill="#63b8ff" stroke="#63b8ff" points="787.19,-98.16 796.59,-93.28 786.2,-91.23 787.19,-98.16"/>
</a>
</g>
</g>
<!-- Node16&#45;&gt;Node11 -->
<g id="edge19_Node000016_Node000011" class="edge">
<title>Node16&#45;&gt;Node11</title>
<g id="a_edge19_Node000016_Node000011"><a xlink:title=" ">
<path fill="none" stroke="#63b8ff" d="M501.76,-21.24C507.69,-23.93 513.8,-27.02 519.25,-30.38 537.29,-41.49 555.67,-56.96 568.9,-68.98"/>
<polygon fill="#63b8ff" stroke="#63b8ff" points="566.35,-71.38 576.06,-75.62 571.11,-66.25 566.35,-71.38"/>
</a>
</g>
</g>
<!-- Node20&#45;&gt;Node18 -->
<g id="edge27_Node000020_Node000018" class="edge">
<title>Node20&#45;&gt;Node18</title>
<g id="a_edge27_Node000020_Node000018"><a xlink:title=" ">
<path fill="none" stroke="#63b8ff" d="M502.22,-173.87C515.1,-178.14 530.59,-183.28 544.84,-188.01"/>
<polygon fill="#63b8ff" stroke="#63b8ff" points="543.41,-191.22 554,-191.05 545.62,-184.58 543.41,-191.22"/>
</a>
</g>
</g>
<!-- Node21 -->
<g id="Node000021" class="node">
<title>Node21</title>
<g id="a_Node000021"><a xlink:href="../../df/d95/a00299.html#ac9adcf7339be4a05ab1a7350c236b8a5" target="_top" xlink:title="Draw a box around the specified window.">
<polygon fill="white" stroke="#666666" points="608.75,-173.75 569.5,-173.75 569.5,-153 608.75,-153 608.75,-173.75"/>
<text xml:space="preserve" text-anchor="middle" x="589.12" y="-160.25" font-family="Helvetica,sans-Serif" font-size="10.00">cbox</text>
</a>
</g>
</g>
<!-- Node20&#45;&gt;Node21 -->
<g id="edge26_Node000020_Node000021" class="edge">
<title>Node20&#45;&gt;Node21</title>
<g id="a_edge26_Node000020_Node000021"><a xlink:title=" ">
<path fill="none" stroke="#63b8ff" d="M502.22,-164.13C519.15,-163.98 540.57,-163.79 557.79,-163.64"/>
<polygon fill="#63b8ff" stroke="#63b8ff" points="557.72,-167.14 567.69,-163.55 557.66,-160.14 557.72,-167.14"/>
</a>
</g>
</g>
<!-- Node23&#45;&gt;Node7 -->
<g id="edge32_Node000023_Node000007" class="edge">
<title>Node23&#45;&gt;Node7</title>
<g id="a_edge32_Node000023_Node000007"><a xlink:title=" ">
<path fill="none" stroke="#63b8ff" d="M506.13,-290.16C519.38,-294.56 534.82,-299.68 548.71,-304.29"/>
<polygon fill="#63b8ff" stroke="#63b8ff" points="547.41,-307.55 558,-307.38 549.61,-300.91 547.41,-307.55"/>
</a>
</g>
</g>
<!-- Node23&#45;&gt;Node13 -->
<g id="edge31_Node000023_Node000013" class="edge">
<title>Node23&#45;&gt;Node13</title>
<g id="a_edge31_Node000023_Node000013"><a xlink:title=" ">
<path fill="none" stroke="#63b8ff" d="M502.83,-268.56C567.72,-244.51 724.01,-186.61 797.95,-159.21"/>
<polygon fill="#63b8ff" stroke="#63b8ff" points="799.08,-162.53 807.24,-155.77 796.65,-155.96 799.08,-162.53"/>
</a>
</g>
</g>
<!-- Node23&#45;&gt;Node18 -->
<g id="edge33_Node000023_Node000018" class="edge">
<title>Node23&#45;&gt;Node18</title>
<g id="a_edge33_Node000023_Node000018"><a xlink:title=" ">
<path fill="none" stroke="#63b8ff" d="M501.76,-268.51C507.69,-265.82 513.8,-262.73 519.25,-259.38 537.29,-248.26 555.67,-232.79 568.9,-220.77"/>
<polygon fill="#63b8ff" stroke="#63b8ff" points="571.11,-223.5 576.06,-214.13 566.35,-218.37 571.11,-223.5"/>
</a>
</g>
</g>
</g>
</svg>
