<?xml version="1.0" encoding="UTF-8" standalone="no"?>
<!DOCTYPE svg PUBLIC "-//W3C//DTD SVG 1.1//EN"
 "http://www.w3.org/Graphics/SVG/1.1/DTD/svg11.dtd">
<!-- Generated by graphviz version 14.1.2 (0)
 -->
<!-- Title: lf.c Pages: 1 -->
<svg width="838pt" height="86pt"
 viewBox="0.00 0.00 838.00 86.00" xmlns="http://www.w3.org/2000/svg" xmlns:xlink="http://www.w3.org/1999/xlink">
<g id="graph0" class="graph" transform="scale(1 1) rotate(0) translate(4 81.5)">
<title>lf.c</title>
<!-- Node1 -->
<g id="Node000001" class="node">
<title>Node1</title>
<g id="a_Node000001"><a xlink:title="list files matching a regular expression">
<polygon fill="#999999" stroke="#666666" points="395.12,-77.5 364.88,-77.5 364.88,-56.75 395.12,-56.75 395.12,-77.5"/>
<text xml:space="preserve" text-anchor="middle" x="380" y="-64" font-family="Helvetica,sans-Serif" font-size="10.00">lf.c</text>
</a>
</g>
</g>
<!-- Node2 -->
<g id="Node000002" class="node">
<title>Node2</title>
<g id="a_Node000002"><a xlink:title=" ">
<polygon fill="#e0e0e0" stroke="#999999" points="40,-20.75 0,-20.75 0,0 40,0 40,-20.75"/>
<text xml:space="preserve" text-anchor="middle" x="20" y="-7.25" font-family="Helvetica,sans-Serif" font-size="10.00">cm.h</text>
</a>
</g>
</g>
<!-- Node1&#45;&gt;Node2 -->
<g id="edge1_Node000001_Node000002" class="edge">
<title>Node1&#45;&gt;Node2</title>
<g id="a_edge1_Node000001_Node000002"><a xlink:title=" ">
<path fill="none" stroke="#63b8ff" d="M364.65,-64.99C318.55,-61.38 177.2,-48.86 51.43,-20.96"/>
<polygon fill="#63b8ff" stroke="#63b8ff" points="52.47,-17.61 41.95,-18.82 50.93,-24.44 52.47,-17.61"/>
</a>
</g>
</g>
<!-- Node3 -->
<g id="Node000003" class="node">
<title>Node3</title>
<g id="a_Node000003"><a xlink:title=" ">
<polygon fill="#e0e0e0" stroke="#999999" points="111.75,-20.75 58.25,-20.75 58.25,0 111.75,0 111.75,-20.75"/>
<text xml:space="preserve" text-anchor="middle" x="85" y="-7.25" font-family="Helvetica,sans-Serif" font-size="10.00">dirent.h</text>
</a>
</g>
</g>
<!-- Node1&#45;&gt;Node3 -->
<g id="edge2_Node000001_Node000003" class="edge">
<title>Node1&#45;&gt;Node3</title>
<g id="a_edge2_Node000001_Node000003"><a xlink:title=" ">
<path fill="none" stroke="#63b8ff" d="M364.44,-63.85C325.56,-58.08 220.84,-41.94 123.31,-21.11"/>
<polygon fill="#63b8ff" stroke="#63b8ff" points="124.06,-17.69 113.55,-19 122.58,-24.53 124.06,-17.69"/>
</a>
</g>
</g>
<!-- Node4 -->
<g id="Node000004" class="node">
<title>Node4</title>
<g id="a_Node000004"><a xlink:title=" ">
<polygon fill="#e0e0e0" stroke="#999999" points="176.38,-20.75 129.62,-20.75 129.62,0 176.38,0 176.38,-20.75"/>
<text xml:space="preserve" text-anchor="middle" x="153" y="-7.25" font-family="Helvetica,sans-Serif" font-size="10.00">fcntl.h</text>
</a>
</g>
</g>
<!-- Node1&#45;&gt;Node4 -->
<g id="edge3_Node000001_Node000004" class="edge">
<title>Node1&#45;&gt;Node4</title>
<g id="a_edge3_Node000001_Node000004"><a xlink:title=" ">
<path fill="none" stroke="#63b8ff" d="M364.85,-62.84C333.69,-56.02 259.98,-39.62 187.85,-21.13"/>
<polygon fill="#63b8ff" stroke="#63b8ff" points="188.78,-17.76 178.22,-18.65 187.03,-24.54 188.78,-17.76"/>
</a>
</g>
</g>
<!-- Node5 -->
<g id="Node000005" class="node">
<title>Node5</title>
<g id="a_Node000005"><a xlink:title=" ">
<polygon fill="#e0e0e0" stroke="#999999" points="235.38,-20.75 194.62,-20.75 194.62,0 235.38,0 235.38,-20.75"/>
<text xml:space="preserve" text-anchor="middle" x="215" y="-7.25" font-family="Helvetica,sans-Serif" font-size="10.00">grp.h</text>
</a>
</g>
</g>
<!-- Node1&#45;&gt;Node5 -->
<g id="edge4_Node000001_Node000005" class="edge">
<title>Node1&#45;&gt;Node5</title>
<g id="a_edge4_Node000001_Node000005"><a xlink:title=" ">
<path fill="none" stroke="#63b8ff" d="M364.48,-60.97C337.55,-52.04 281.68,-33.5 246.39,-21.79"/>
<polygon fill="#63b8ff" stroke="#63b8ff" points="247.75,-18.56 237.16,-18.73 245.55,-25.2 247.75,-18.56"/>
</a>
</g>
</g>
<!-- Node6 -->
<g id="Node000006" class="node">
<title>Node6</title>
<g id="a_Node000006"><a xlink:title=" ">
<polygon fill="#e0e0e0" stroke="#999999" points="298.62,-20.75 253.38,-20.75 253.38,0 298.62,0 298.62,-20.75"/>
<text xml:space="preserve" text-anchor="middle" x="276" y="-7.25" font-family="Helvetica,sans-Serif" font-size="10.00">pwd.h</text>
</a>
</g>
</g>
<!-- Node1&#45;&gt;Node6 -->
<g id="edge5_Node000001_Node000006" class="edge">
<title>Node1&#45;&gt;Node6</title>
<g id="a_edge5_Node000001_Node000006"><a xlink:title=" ">
<path fill="none" stroke="#63b8ff" d="M364.65,-58.05C348.92,-49.76 324.08,-36.69 304.69,-26.48"/>
<polygon fill="#63b8ff" stroke="#63b8ff" points="306.39,-23.42 295.91,-21.86 303.13,-29.61 306.39,-23.42"/>
</a>
</g>
</g>
<!-- Node7 -->
<g id="Node000007" class="node">
<title>Node7</title>
<g id="a_Node000007"><a xlink:title=" ">
<polygon fill="#e0e0e0" stroke="#999999" points="369.38,-20.75 316.62,-20.75 316.62,0 369.38,0 369.38,-20.75"/>
<text xml:space="preserve" text-anchor="middle" x="343" y="-7.25" font-family="Helvetica,sans-Serif" font-size="10.00">regex.h</text>
</a>
</g>
</g>
<!-- Node1&#45;&gt;Node7 -->
<g id="edge6_Node000001_Node000007" class="edge">
<title>Node1&#45;&gt;Node7</title>
<g id="a_edge6_Node000001_Node000007"><a xlink:title=" ">
<path fill="none" stroke="#63b8ff" d="M373.39,-56.34C368.54,-49.17 361.82,-39.23 355.93,-30.51"/>
<polygon fill="#63b8ff" stroke="#63b8ff" points="358.9,-28.66 350.41,-22.33 353.1,-32.58 358.9,-28.66"/>
</a>
</g>
</g>
<!-- Node8 -->
<g id="Node000008" class="node">
<title>Node8</title>
<g id="a_Node000008"><a xlink:title=" ">
<polygon fill="#e0e0e0" stroke="#999999" points="448.5,-20.75 387.5,-20.75 387.5,0 448.5,0 448.5,-20.75"/>
<text xml:space="preserve" text-anchor="middle" x="418" y="-7.25" font-family="Helvetica,sans-Serif" font-size="10.00">stdbool.h</text>
</a>
</g>
</g>
<!-- Node1&#45;&gt;Node8 -->
<g id="edge7_Node000001_Node000008" class="edge">
<title>Node1&#45;&gt;Node8</title>
<g id="a_edge7_Node000001_Node000008"><a xlink:title=" ">
<path fill="none" stroke="#63b8ff" d="M386.79,-56.34C391.77,-49.17 398.67,-39.23 404.72,-30.51"/>
<polygon fill="#63b8ff" stroke="#63b8ff" points="407.58,-32.53 410.4,-22.32 401.82,-28.54 407.58,-32.53"/>
</a>
</g>
</g>
<!-- Node9 -->
<g id="Node000009" class="node">
<title>Node9</title>
<g id="a_Node000009"><a xlink:title=" ">
<polygon fill="#e0e0e0" stroke="#999999" points="515.5,-20.75 466.5,-20.75 466.5,0 515.5,0 515.5,-20.75"/>
<text xml:space="preserve" text-anchor="middle" x="491" y="-7.25" font-family="Helvetica,sans-Serif" font-size="10.00">stdio.h</text>
</a>
</g>
</g>
<!-- Node1&#45;&gt;Node9 -->
<g id="edge8_Node000001_Node000009" class="edge">
<title>Node1&#45;&gt;Node9</title>
<g id="a_edge8_Node000001_Node000009"><a xlink:title=" ">
<path fill="none" stroke="#63b8ff" d="M395.43,-58.51C412.35,-50.17 439.91,-36.58 461.09,-26.13"/>
<polygon fill="#63b8ff" stroke="#63b8ff" points="462.43,-29.37 469.85,-21.81 459.33,-23.09 462.43,-29.37"/>
</a>
</g>
</g>
<!-- Node10 -->
<g id="Node000010" class="node">
<title>Node10</title>
<g id="a_Node000010"><a xlink:title=" ">
<polygon fill="#e0e0e0" stroke="#999999" points="586,-20.75 534,-20.75 534,0 586,0 586,-20.75"/>
<text xml:space="preserve" text-anchor="middle" x="560" y="-7.25" font-family="Helvetica,sans-Serif" font-size="10.00">stdlib.h</text>
</a>
</g>
</g>
<!-- Node1&#45;&gt;Node10 -->
<g id="edge9_Node000001_Node000010" class="edge">
<title>Node1&#45;&gt;Node10</title>
<g id="a_edge9_Node000001_Node000010"><a xlink:title=" ">
<path fill="none" stroke="#63b8ff" d="M395.35,-61.46C423.36,-52.94 483.5,-34.64 522.82,-22.68"/>
<polygon fill="#63b8ff" stroke="#63b8ff" points="523.81,-26.04 532.36,-19.78 521.77,-19.34 523.81,-26.04"/>
</a>
</g>
</g>
<!-- Node11 -->
<g id="Node000011" class="node">
<title>Node11</title>
<g id="a_Node000011"><a xlink:title=" ">
<polygon fill="#e0e0e0" stroke="#999999" points="667.62,-20.75 604.38,-20.75 604.38,0 667.62,0 667.62,-20.75"/>
<text xml:space="preserve" text-anchor="middle" x="636" y="-7.25" font-family="Helvetica,sans-Serif" font-size="10.00">sys/stat.h</text>
</a>
</g>
</g>
<!-- Node1&#45;&gt;Node11 -->
<g id="edge10_Node000001_Node000011" class="edge">
<title>Node1&#45;&gt;Node11</title>
<g id="a_edge10_Node000001_Node000011"><a xlink:title=" ">
<path fill="none" stroke="#63b8ff" d="M395.4,-62.97C429.21,-56.02 512.7,-38.74 593.38,-21.08"/>
<polygon fill="#63b8ff" stroke="#63b8ff" points="593.73,-24.58 602.75,-19.02 592.23,-17.75 593.73,-24.58"/>
</a>
</g>
</g>
<!-- Node12 -->
<g id="Node000012" class="node">
<title>Node12</title>
<g id="a_Node000012"><a xlink:title=" ">
<polygon fill="#e0e0e0" stroke="#999999" points="756.75,-20.75 685.25,-20.75 685.25,0 756.75,0 756.75,-20.75"/>
<text xml:space="preserve" text-anchor="middle" x="721" y="-7.25" font-family="Helvetica,sans-Serif" font-size="10.00">sys/types.h</text>
</a>
</g>
</g>
<!-- Node1&#45;&gt;Node12 -->
<g id="edge11_Node000001_Node000012" class="edge">
<title>Node1&#45;&gt;Node12</title>
<g id="a_edge11_Node000001_Node000012"><a xlink:title=" ">
<path fill="none" stroke="#63b8ff" d="M395.51,-64.08C438.24,-58.38 561.46,-41.49 673.83,-21.25"/>
<polygon fill="#63b8ff" stroke="#63b8ff" points="674.31,-24.72 683.53,-19.49 673.06,-17.84 674.31,-24.72"/>
</a>
</g>
</g>
<!-- Node13 -->
<g id="Node000013" class="node">
<title>Node13</title>
<g id="a_Node000013"><a xlink:title=" ">
<polygon fill="#e0e0e0" stroke="#999999" points="829.5,-20.75 774.5,-20.75 774.5,0 829.5,0 829.5,-20.75"/>
<text xml:space="preserve" text-anchor="middle" x="802" y="-7.25" font-family="Helvetica,sans-Serif" font-size="10.00">unistd.h</text>
</a>
</g>
</g>
<!-- Node1&#45;&gt;Node13 -->
<g id="edge12_Node000001_Node000013" class="edge">
<title>Node1&#45;&gt;Node13</title>
<g id="a_edge12_Node000001_Node000013"><a xlink:title=" ">
<path fill="none" stroke="#63b8ff" d="M395.56,-65.07C446.79,-61.43 614.94,-48.23 763.09,-21.09"/>
<polygon fill="#63b8ff" stroke="#63b8ff" points="763.5,-24.57 772.69,-19.3 762.22,-17.69 763.5,-24.57"/>
</a>
</g>
</g>
</g>
</svg>
