<?xml version="1.0" encoding="UTF-8" standalone="no"?>
<!DOCTYPE svg PUBLIC "-//W3C//DTD SVG 1.1//EN"
 "http://www.w3.org/Graphics/SVG/1.1/DTD/svg11.dtd">
<!-- Generated by graphviz version 14.1.2 (0)
 -->
<!-- Title: Text Pages: 1 -->
<svg width="92pt" height="138pt"
 viewBox="0.00 0.00 92.00 138.00" xmlns="http://www.w3.org/2000/svg" xmlns:xlink="http://www.w3.org/1999/xlink">
<g id="graph0" class="graph" transform="scale(1 1) rotate(0) translate(4 133.75)">
<title>Text</title>
<!-- Node1 -->
<g id="Node000001" class="node">
<title>Node1</title>
<g id="a_Node000001"><a xlink:title="structure for form fields">
<polygon fill="#999999" stroke="#666666" points="57.52,-20.75 21.27,-20.75 21.27,0 57.52,0 57.52,-20.75"/>
<text xml:space="preserve" text-anchor="middle" x="39.4" y="-7.25" font-family="Helvetica,sans-Serif" font-size="10.00">Text</text>
</a>
</g>
</g>
<!-- Node2 -->
<g id="Node000002" class="node">
<title>Node2</title>
<g id="a_Node000002"><a xlink:title=" ">
<polygon fill="white" stroke="#666666" points="28.8,-129.75 0,-129.75 0,-109 28.8,-109 28.8,-129.75"/>
<text xml:space="preserve" text-anchor="middle" x="14.4" y="-116.25" font-family="Helvetica,sans-Serif" font-size="10.00">int</text>
</a>
</g>
</g>
<!-- Node2&#45;&gt;Node1 -->
<g id="edge1_Node000001_Node000002" class="edge">
<title>Node2&#45;&gt;Node1</title>
<g id="a_edge1_Node000001_Node000002"><a xlink:title=" ">
<path fill="none" stroke="#9a32cd" stroke-dasharray="5,2" d="M12.58,-97.65C11.86,-81.19 12.5,-57.85 19.4,-38.75 21.72,-32.33 26.04,-26.11 30.08,-21.22"/>
<polygon fill="#9a32cd" stroke="#9a32cd" points="9.06,-97.45 13.21,-107.2 16.04,-96.99 9.06,-97.45"/>
</a>
</g>
<text xml:space="preserve" text-anchor="start" x="22.4" y="-78.5" font-family="Helvetica,sans-Serif" font-size="10.00" fill="grey">col</text>
<text xml:space="preserve" text-anchor="start" x="22.4" y="-61.75" font-family="Helvetica,sans-Serif" font-size="10.00" fill="grey">len</text>
<text xml:space="preserve" text-anchor="start" x="22.4" y="-45" font-family="Helvetica,sans-Serif" font-size="10.00" fill="grey">line</text>
</g>
<!-- Node3 -->
<g id="Node000003" class="node">
<title>Node3</title>
<g id="a_Node000003"><a xlink:title=" ">
<polygon fill="white" stroke="#666666" points="83.9,-129.75 46.9,-129.75 46.9,-109 83.9,-109 83.9,-129.75"/>
<text xml:space="preserve" text-anchor="middle" x="65.4" y="-116.25" font-family="Helvetica,sans-Serif" font-size="10.00">char</text>
</a>
</g>
</g>
<!-- Node3&#45;&gt;Node1 -->
<g id="edge2_Node000001_Node000003" class="edge">
<title>Node3&#45;&gt;Node1</title>
<g id="a_edge2_Node000001_Node000003"><a xlink:title=" ">
<path fill="none" stroke="#9a32cd" stroke-dasharray="5,2" d="M60.34,-97.55C54.75,-74.55 45.99,-38.49 41.79,-21.23"/>
<polygon fill="#9a32cd" stroke="#9a32cd" points="56.88,-98.14 62.64,-107.03 63.68,-96.49 56.88,-98.14"/>
</a>
</g>
<text xml:space="preserve" text-anchor="start" x="61.43" y="-61.75" font-family="Helvetica,sans-Serif" font-size="10.00" fill="grey">str</text>
</g>
</g>
</svg>
