<?xml version="1.0" encoding="UTF-8" standalone="no"?>
<!DOCTYPE svg PUBLIC "-//W3C//DTD SVG 1.1//EN"
 "http://www.w3.org/Graphics/SVG/1.1/DTD/svg11.dtd">
<!-- Generated by graphviz version 14.1.2 (0)
 -->
<!-- Title: write_config Pages: 1 -->
<!--zoomable 620 -->

<svg id="main" version="1.1" xmlns="http://www.w3.org/2000/svg" xmlns:xlink="http://www.w3.org/1999/xlink" xml:space="preserve" onload="init(evt)">

<style type="text/css"><![CDATA[
.node, .edge {opacity: 0.7;}
.node.selected, .edge.selected {opacity: 1;}
.edge:hover path { stroke: red; }
.edge:hover polygon { stroke: red; fill: red; }
]]></style>

<defs>
  <circle id="rim" cx="0" cy="0" r="7"/>
  <circle id="rim2" cx="0" cy="0" r="3.5"/>
  <g id="zoomPlus">
    <use xlink:href="#rim" fill="#404040"><set attributeName="fill" to="#808080" begin="zoomplus.mouseover" end="zoomplus.mouseout"/></use>
    <path d="M-4,0h8M0,-4v8" fill="none" stroke="white" stroke-width="1.5" pointer-events="none"/>
  </g>
  <g id="zoomMin">
    <use xlink:href="#rim" fill="#404040"><set attributeName="fill" to="#808080" begin="zoomminus.mouseover" end="zoomminus.mouseout"/></use>
    <path d="M-4,0h8" fill="none" stroke="white" stroke-width="1.5" pointer-events="none"/>
  </g>
  <g id="arrowUp" transform="translate(30 24)">
    <use xlink:href="#rim"/>
    <path pointer-events="none" fill="none" stroke="white" stroke-width="1.5" d="M0,-3.0v7 M-2.5,-0.5L0,-3.0L2.5,-0.5"/>
  </g>
  <g id="arrowRight" transform="rotate(90) translate(36 -43)">
    <use xlink:href="#rim"/>
    <path pointer-events="none" fill="none" stroke="white" stroke-width="1.5" d="M0,-3.0v7 M-2.5,-0.5L0,-3.0L2.5,-0.5"/>
  </g>
  <g id="arrowDown" transform="rotate(180) translate(-30 -48)">
    <use xlink:href="#rim"/>
    <path pointer-events="none" fill="none" stroke="white" stroke-width="1.5" d="M0,-3.0v7 M-2.5,-0.5L0,-3.0L2.5,-0.5"/>
  </g>
  <g id="arrowLeft" transform="rotate(270) translate(-36 17)">
    <use xlink:href="#rim"/>
    <path pointer-events="none" fill="none" stroke="white" stroke-width="1.5" d="M0,-3.0v7 M-2.5,-0.5L0,-3.0L2.5,-0.5"/>
  </g>
  <g id="resetDef">
    <use xlink:href="#rim2" fill="#404040"><set attributeName="fill" to="#808080" begin="reset.mouseover" end="reset.mouseout"/></use>
  </g>
</defs>
<script type="application/ecmascript">
var viewWidth = 936;
var viewHeight = 620;
var sectionId = 'dynsection-47';
</script>
<script type="application/ecmascript" xlink:href="../../svg.min.js"/>
<svg id="graph" class="graph">
<g id="viewport">
<title>write_config</title>
<!-- Node1 -->
<g id="Node000001" class="node">
<title>Node1</title>
<g id="a_Node000001"><a xlink:title="Write the current configuration to a file specified in init&#45;&gt;minitrc.">
<polygon fill="#999999" stroke="#666666" points="76,-306.38 0,-306.38 0,-285.62 76,-285.62 76,-306.38"/>
<text xml:space="preserve" text-anchor="middle" x="38" y="-292.88" font-family="Helvetica,sans-Serif" font-size="10.00">write_config</text>
</a>
</g>
</g>
<!-- Node2 -->
<g id="Node000002" class="node">
<title>Node2</title>
<g id="a_Node000002"><a xlink:href="../../df/d95/a00299.html#a61b4f28456257f68ed042bed7f187efd" target="_top" xlink:title="Display a simple error message window or print to stderr.">
<polygon fill="white" stroke="#666666" points="157.25,-393.38 112,-393.38 112,-372.62 157.25,-372.62 157.25,-393.38"/>
<text xml:space="preserve" text-anchor="middle" x="134.62" y="-379.88" font-family="Helvetica,sans-Serif" font-size="10.00">Perror</text>
</a>
</g>
</g>
<!-- Node1&#45;&gt;Node2 -->
<g id="edge1_Node000001_Node000002" class="edge">
<title>Node1&#45;&gt;Node2</title>
<g id="a_edge1_Node000001_Node000002"><a xlink:title=" ">
<path fill="none" stroke="#63b8ff" d="M50.6,-306.67C66.28,-321.08 94.47,-347 113.6,-364.59"/>
<polygon fill="#63b8ff" stroke="#63b8ff" points="111.08,-367.03 120.81,-371.22 115.82,-361.88 111.08,-367.03"/>
</a>
</g>
</g>
<!-- Node8 -->
<g id="Node000008" class="node">
<title>Node8</title>
<g id="a_Node000008"><a xlink:href="../../dc/d5d/a00278.html#aa0145c044cfdde3a1c83323410a59f25" target="_top" xlink:title="safer alternative to strncat">
<polygon fill="white" stroke="#666666" points="655.88,-603.38 590.38,-603.38 590.38,-582.62 655.88,-582.62 655.88,-603.38"/>
<text xml:space="preserve" text-anchor="middle" x="623.12" y="-589.88" font-family="Helvetica,sans-Serif" font-size="10.00">strnz__cat</text>
</a>
</g>
</g>
<!-- Node1&#45;&gt;Node8 -->
<g id="edge41_Node000001_Node000008" class="edge">
<title>Node1&#45;&gt;Node8</title>
<g id="a_edge41_Node000001_Node000008"><a xlink:title=" ">
<path fill="none" stroke="#63b8ff" d="M40.45,-306.51C48.68,-361.34 94.41,-612 243.38,-612 243.38,-612 243.38,-612 378.75,-612 448.83,-612 529.93,-604.07 578.56,-598.46"/>
<polygon fill="#63b8ff" stroke="#63b8ff" points="578.88,-601.95 588.4,-597.3 578.06,-594.99 578.88,-601.95"/>
</a>
</g>
</g>
<!-- Node13 -->
<g id="Node000013" class="node">
<title>Node13</title>
<g id="a_Node000013"><a xlink:href="../../dc/d5d/a00278.html#a0de2e40df9bd7efc8fd9afb8ad2257e6" target="_top" xlink:title="safer alternative to strncpy">
<polygon fill="white" stroke="#666666" points="657,-105.38 589.25,-105.38 589.25,-84.62 657,-84.62 657,-105.38"/>
<text xml:space="preserve" text-anchor="middle" x="623.12" y="-91.88" font-family="Helvetica,sans-Serif" font-size="10.00">strnz__cpy</text>
</a>
</g>
</g>
<!-- Node1&#45;&gt;Node13 -->
<g id="edge42_Node000001_Node000013" class="edge">
<title>Node1&#45;&gt;Node13</title>
<g id="a_edge42_Node000001_Node000013"><a xlink:title=" ">
<path fill="none" stroke="#63b8ff" d="M40.82,-285.47C50.56,-232.74 101.62,0 243.38,0 243.38,0 243.38,0 378.75,0 458.42,0 481.44,-6.5 553.25,-41 571.95,-49.98 590.29,-64.74 603.33,-76.56"/>
<polygon fill="#63b8ff" stroke="#63b8ff" points="600.66,-78.85 610.36,-83.13 605.45,-73.74 600.66,-78.85"/>
</a>
</g>
</g>
<!-- Node22 -->
<g id="Node000022" class="node">
<title>Node22</title>
<g id="a_Node000022"><a xlink:href="../../d9/dd6/a00272.html#afc067c129a46582ffeee5bd63ebcbf9f" target="_top" xlink:title="Convert prompt type integer constant to string.">
<polygon fill="white" stroke="#666666" points="295.5,-48.38 193.25,-48.38 193.25,-27.62 295.5,-27.62 295.5,-48.38"/>
<text xml:space="preserve" text-anchor="middle" x="244.38" y="-34.88" font-family="Helvetica,sans-Serif" font-size="10.00">prompt_int_to_str</text>
</a>
</g>
</g>
<!-- Node1&#45;&gt;Node22 -->
<g id="edge39_Node000001_Node000022" class="edge">
<title>Node1&#45;&gt;Node22</title>
<g id="a_edge39_Node000001_Node000022"><a xlink:title=" ">
<path fill="none" stroke="#63b8ff" d="M43.54,-285.21C59.2,-249.08 114.41,-130.77 193.25,-62 196.55,-59.12 200.26,-56.51 204.12,-54.16"/>
<polygon fill="#63b8ff" stroke="#63b8ff" points="205.45,-57.42 212.58,-49.58 202.12,-51.26 205.45,-57.42"/>
</a>
</g>
</g>
<!-- Node3 -->
<g id="Node000003" class="node">
<title>Node3</title>
<g id="a_Node000003"><a xlink:href="../../df/d95/a00299.html#a8f6c45ca4a7f6a41c4c88314e697565a" target="_top" xlink:title="Abnormal program termination.">
<polygon fill="white" stroke="#666666" points="646.12,-365.38 600.12,-365.38 600.12,-344.62 646.12,-344.62 646.12,-365.38"/>
<text xml:space="preserve" text-anchor="middle" x="623.12" y="-351.88" font-family="Helvetica,sans-Serif" font-size="10.00">abend</text>
</a>
</g>
</g>
<!-- Node2&#45;&gt;Node3 -->
<g id="edge2_Node000002_Node000003" class="edge">
<title>Node2&#45;&gt;Node3</title>
<g id="a_edge2_Node000002_Node000003"><a xlink:title=" ">
<path fill="none" stroke="#63b8ff" d="M137.18,-393.65C141.33,-417.94 155.09,-477.42 193.25,-505 258.12,-551.89 487.36,-562.44 553.25,-517 600.29,-484.56 615.35,-413.1 620.06,-376.92"/>
<polygon fill="#63b8ff" stroke="#63b8ff" points="623.51,-377.54 621.16,-367.21 616.56,-376.76 623.51,-377.54"/>
</a>
</g>
</g>
<!-- Node7 -->
<g id="Node000007" class="node">
<title>Node7</title>
<g id="a_Node000007"><a xlink:href="../../df/d95/a00299.html#a645871e46277e31736bc36d0f3dce4bd" target="_top" xlink:title="construct the chyron string from the chyron structure">
<polygon fill="white" stroke="#666666" points="553.25,-584.38 460,-584.38 460,-563.62 553.25,-563.62 553.25,-584.38"/>
<text xml:space="preserve" text-anchor="middle" x="506.62" y="-570.88" font-family="Helvetica,sans-Serif" font-size="10.00">compile_chyron</text>
</a>
</g>
</g>
<!-- Node2&#45;&gt;Node7 -->
<g id="edge8_Node000002_Node000007" class="edge">
<title>Node2&#45;&gt;Node7</title>
<g id="a_edge8_Node000002_Node000007"><a xlink:title=" ">
<path fill="none" stroke="#63b8ff" d="M135.61,-393.86C136.21,-424.3 142.52,-510.82 193.25,-550 266.55,-606.61 380.53,-598.53 448.65,-586.77"/>
<polygon fill="#63b8ff" stroke="#63b8ff" points="448.89,-590.29 458.1,-585.06 447.64,-583.4 448.89,-590.29"/>
</a>
</g>
</g>
<!-- Node9 -->
<g id="Node000009" class="node">
<title>Node9</title>
<g id="a_Node000009"><a xlink:href="../../df/d95/a00299.html#a3f3feb40fd703913c5c136331f627c91" target="_top" xlink:title="Destroy Chyron structure.">
<polygon fill="white" stroke="#666666" points="552.12,-393.38 461.12,-393.38 461.12,-372.62 552.12,-372.62 552.12,-393.38"/>
<text xml:space="preserve" text-anchor="middle" x="506.62" y="-379.88" font-family="Helvetica,sans-Serif" font-size="10.00">destroy_chyron</text>
</a>
</g>
</g>
<!-- Node2&#45;&gt;Node9 -->
<g id="edge10_Node000002_Node000009" class="edge">
<title>Node2&#45;&gt;Node9</title>
<g id="a_edge10_Node000002_Node000009"><a xlink:title=" ">
<path fill="none" stroke="#63b8ff" d="M157.66,-383C214.29,-383 366.26,-383 449.4,-383"/>
<polygon fill="#63b8ff" stroke="#63b8ff" points="449.39,-386.5 459.39,-383 449.39,-379.5 449.39,-386.5"/>
</a>
</g>
</g>
<!-- Node10 -->
<g id="Node000010" class="node">
<title>Node10</title>
<g id="a_Node000010"><a xlink:href="../../df/d95/a00299.html#ad37d5808ff30ae6894780425d865abae" target="_top" xlink:title="Create and initialize Chyron structure.">
<polygon fill="white" stroke="#666666" points="543.88,-508.38 469.38,-508.38 469.38,-487.62 543.88,-487.62 543.88,-508.38"/>
<text xml:space="preserve" text-anchor="middle" x="506.62" y="-494.88" font-family="Helvetica,sans-Serif" font-size="10.00">new_chyron</text>
</a>
</g>
</g>
<!-- Node2&#45;&gt;Node10 -->
<g id="edge11_Node000002_Node000010" class="edge">
<title>Node2&#45;&gt;Node10</title>
<g id="a_edge11_Node000002_Node000010"><a xlink:title=" ">
<path fill="none" stroke="#63b8ff" d="M138.86,-393.75C145.45,-413.56 162.48,-455.49 193.25,-474 275.69,-523.59 393.34,-516.11 458.18,-506.75"/>
<polygon fill="#63b8ff" stroke="#63b8ff" points="458.42,-510.25 467.77,-505.28 457.36,-503.33 458.42,-510.25"/>
</a>
</g>
</g>
<!-- Node11 -->
<g id="Node000011" class="node">
<title>Node11</title>
<g id="a_Node000011"><a xlink:href="../../df/d95/a00299.html#a208ce92c197fdd6d2b007987e534aa3b" target="_top" xlink:title="Set chyron key.">
<polygon fill="white" stroke="#666666" points="552.5,-240.38 460.75,-240.38 460.75,-219.62 552.5,-219.62 552.5,-240.38"/>
<text xml:space="preserve" text-anchor="middle" x="506.62" y="-226.88" font-family="Helvetica,sans-Serif" font-size="10.00">set_chyron_key</text>
</a>
</g>
</g>
<!-- Node2&#45;&gt;Node11 -->
<g id="edge13_Node000002_Node000011" class="edge">
<title>Node2&#45;&gt;Node11</title>
<g id="a_edge13_Node000002_Node000011"><a xlink:title=" ">
<path fill="none" stroke="#63b8ff" d="M143.81,-372.18C154.05,-359.39 172.72,-338.28 193.25,-326 275.01,-277.1 383.91,-251.04 449.17,-238.91"/>
<polygon fill="#63b8ff" stroke="#63b8ff" points="449.73,-242.36 458.95,-237.14 448.48,-235.47 449.73,-242.36"/>
</a>
</g>
</g>
<!-- Node12 -->
<g id="Node000012" class="node">
<title>Node12</title>
<g id="a_Node000012"><a xlink:href="../../dc/d5d/a00278.html#a63eb94756fb011a456a3dec900709cd8" target="_top" xlink:title="ssnprintf was designed to be a safer alternative to snprintf.">
<polygon fill="white" stroke="#666666" points="652.5,-307.38 593.75,-307.38 593.75,-286.62 652.5,-286.62 652.5,-307.38"/>
<text xml:space="preserve" text-anchor="middle" x="623.12" y="-293.88" font-family="Helvetica,sans-Serif" font-size="10.00">ssnprintf</text>
</a>
</g>
</g>
<!-- Node2&#45;&gt;Node12 -->
<g id="edge15_Node000002_Node000012" class="edge">
<title>Node2&#45;&gt;Node12</title>
<g id="a_edge15_Node000002_Node000012"><a xlink:title=" ">
<path fill="none" stroke="#63b8ff" d="M149.93,-393.87C161.09,-401.73 177.34,-411.84 193.25,-417 269.52,-441.72 488.01,-487.6 553.25,-441 593.39,-412.33 564.94,-378.93 589.25,-336 593.24,-328.96 598.57,-321.98 603.77,-315.91"/>
<polygon fill="#63b8ff" stroke="#63b8ff" points="606.01,-318.65 610.12,-308.89 600.82,-313.95 606.01,-318.65"/>
</a>
</g>
</g>
<!-- Node2&#45;&gt;Node13 -->
<g id="edge16_Node000002_Node000013" class="edge">
<title>Node2&#45;&gt;Node13</title>
<g id="a_edge16_Node000002_Node000013"><a xlink:title=" ">
<path fill="none" stroke="#63b8ff" d="M136.28,-372.18C138.63,-342.5 149.03,-258.79 193.25,-210 280.43,-113.82 333.03,-118.04 460,-91 499.17,-82.66 544.86,-84.82 577.73,-88.39"/>
<polygon fill="#63b8ff" stroke="#63b8ff" points="576.95,-91.82 587.29,-89.52 577.77,-84.87 576.95,-91.82"/>
</a>
</g>
</g>
<!-- Node14 -->
<g id="Node000014" class="node">
<title>Node14</title>
<g id="a_Node000014"><a xlink:href="../../df/d95/a00299.html#a9dd598e1d49c8764af1eec42c682623e" target="_top" xlink:title="Delete the current window and its associated box window.">
<polygon fill="white" stroke="#666666" points="533.38,-432.38 479.88,-432.38 479.88,-411.62 533.38,-411.62 533.38,-432.38"/>
<text xml:space="preserve" text-anchor="middle" x="506.62" y="-418.88" font-family="Helvetica,sans-Serif" font-size="10.00">win_del</text>
</a>
</g>
</g>
<!-- Node2&#45;&gt;Node14 -->
<g id="edge17_Node000002_Node000014" class="edge">
<title>Node2&#45;&gt;Node14</title>
<g id="a_edge17_Node000002_Node000014"><a xlink:title=" ">
<path fill="none" stroke="#63b8ff" d="M157.62,-389.21C168.3,-392 181.36,-395.09 193.25,-397 291.75,-412.8 409.41,-418.79 468.24,-420.92"/>
<polygon fill="#63b8ff" stroke="#63b8ff" points="467.91,-424.41 478.03,-421.26 468.15,-417.42 467.91,-424.41"/>
</a>
</g>
</g>
<!-- Node15 -->
<g id="Node000015" class="node">
<title>Node15</title>
<g id="a_Node000015"><a xlink:href="../../df/d95/a00299.html#a435c7bff7ffedb8f51c6de9259e36f6c" target="_top" xlink:title="Create a new window with optional box and title.">
<polygon fill="white" stroke="#666666" points="536,-162.38 477.25,-162.38 477.25,-141.62 536,-141.62 536,-162.38"/>
<text xml:space="preserve" text-anchor="middle" x="506.62" y="-148.88" font-family="Helvetica,sans-Serif" font-size="10.00">win_new</text>
</a>
</g>
</g>
<!-- Node2&#45;&gt;Node15 -->
<g id="edge18_Node000002_Node000015" class="edge">
<title>Node2&#45;&gt;Node15</title>
<g id="a_edge18_Node000002_Node000015"><a xlink:title=" ">
<path fill="none" stroke="#63b8ff" d="M138.68,-372.44C145.27,-351.44 162.72,-304.14 193.25,-277 274.21,-205.02 401.81,-171.73 465.98,-158.85"/>
<polygon fill="#63b8ff" stroke="#63b8ff" points="466.56,-162.3 475.71,-156.96 465.23,-155.43 466.56,-162.3"/>
</a>
</g>
</g>
<!-- Node17 -->
<g id="Node000017" class="node">
<title>Node17</title>
<g id="a_Node000017"><a xlink:href="../../df/d95/a00299.html#acf4c709bccc4c965a5d61db978db31a3" target="_top" xlink:title="Wrapper for wgetch that handles signals and mouse events.">
<polygon fill="white" stroke="#666666" points="273,-355.38 215.75,-355.38 215.75,-334.62 273,-334.62 273,-355.38"/>
<text xml:space="preserve" text-anchor="middle" x="244.38" y="-341.88" font-family="Helvetica,sans-Serif" font-size="10.00">xwgetch</text>
</a>
</g>
</g>
<!-- Node2&#45;&gt;Node17 -->
<g id="edge21_Node000002_Node000017" class="edge">
<title>Node2&#45;&gt;Node17</title>
<g id="a_edge21_Node000002_Node000017"><a xlink:title=" ">
<path fill="none" stroke="#63b8ff" d="M157.69,-375.22C171.3,-370.42 189.12,-364.13 204.99,-358.54"/>
<polygon fill="#63b8ff" stroke="#63b8ff" points="205.89,-361.93 214.16,-355.3 203.56,-355.33 205.89,-361.93"/>
</a>
</g>
</g>
<!-- Node4 -->
<g id="Node000004" class="node">
<title>Node4</title>
<g id="a_Node000004"><a xlink:href="../../df/d95/a00299.html#afc0985a403e3eac0b2cd8f0fab500256" target="_top" xlink:title="Gracefully shut down NCurses and restore terminal settings.">
<polygon fill="white" stroke="#666666" points="782.5,-346.38 693,-346.38 693,-325.62 782.5,-325.62 782.5,-346.38"/>
<text xml:space="preserve" text-anchor="middle" x="737.75" y="-332.88" font-family="Helvetica,sans-Serif" font-size="10.00">destroy_curses</text>
</a>
</g>
</g>
<!-- Node3&#45;&gt;Node4 -->
<g id="edge3_Node000003_Node000004" class="edge">
<title>Node3&#45;&gt;Node4</title>
<g id="a_edge3_Node000003_Node000004"><a xlink:title=" ">
<path fill="none" stroke="#63b8ff" d="M646.38,-351.25C656.49,-349.54 668.94,-347.44 681.34,-345.35"/>
<polygon fill="#63b8ff" stroke="#63b8ff" points="681.87,-348.81 691.15,-343.69 680.71,-341.9 681.87,-348.81"/>
</a>
</g>
</g>
<!-- Node5 -->
<g id="Node000005" class="node">
<title>Node5</title>
<g id="a_Node000005"><a xlink:href="../../d6/de1/a00233.html#ac5e3adb304b78910fc77761ef6a743f0" target="_top" xlink:title="restore_shell_tioctl() &#45; restore shell terminal settings">
<polygon fill="white" stroke="#666666" points="927.5,-308.38 818.5,-308.38 818.5,-287.62 927.5,-287.62 927.5,-308.38"/>
<text xml:space="preserve" text-anchor="middle" x="873" y="-294.88" font-family="Helvetica,sans-Serif" font-size="10.00">restore_shell_tioctl</text>
</a>
</g>
</g>
<!-- Node3&#45;&gt;Node5 -->
<g id="edge6_Node000003_Node000005" class="edge">
<title>Node3&#45;&gt;Node5</title>
<g id="a_edge6_Node000003_Node000005"><a xlink:title=" ">
<path fill="none" stroke="#63b8ff" d="M639.45,-344.19C652.9,-335.3 673.33,-323.19 693,-317 729.56,-305.49 772.17,-300.65 806.64,-298.73"/>
<polygon fill="#63b8ff" stroke="#63b8ff" points="806.67,-302.23 816.49,-298.26 806.33,-295.24 806.67,-302.23"/>
</a>
</g>
</g>
<!-- Node6 -->
<g id="Node000006" class="node">
<title>Node6</title>
<g id="a_Node000006"><a xlink:href="../../d1/da8/a00230.html#a06c1eb6cf3649dc187115565409f91af" target="_top" xlink:title="Set signal handlers to default behavior.">
<polygon fill="white" stroke="#666666" points="913.62,-365.38 832.38,-365.38 832.38,-344.62 913.62,-344.62 913.62,-365.38"/>
<text xml:space="preserve" text-anchor="middle" x="873" y="-351.88" font-family="Helvetica,sans-Serif" font-size="10.00">sig_dfl_mode</text>
</a>
</g>
</g>
<!-- Node3&#45;&gt;Node6 -->
<g id="edge7_Node000003_Node000006" class="edge">
<title>Node3&#45;&gt;Node6</title>
<g id="a_edge7_Node000003_Node000006"><a xlink:title=" ">
<path fill="none" stroke="#63b8ff" d="M646.56,-355C685.64,-355 767.14,-355 820.69,-355"/>
<polygon fill="#63b8ff" stroke="#63b8ff" points="820.49,-358.5 830.49,-355 820.49,-351.5 820.49,-358.5"/>
</a>
</g>
</g>
<!-- Node4&#45;&gt;Node5 -->
<g id="edge4_Node000004_Node000005" class="edge">
<title>Node4&#45;&gt;Node5</title>
<g id="a_edge4_Node000004_Node000005"><a xlink:title=" ">
<path fill="none" stroke="#63b8ff" d="M776.58,-325.21C791.07,-321.08 807.8,-316.31 823.18,-311.92"/>
<polygon fill="#63b8ff" stroke="#63b8ff" points="823.97,-315.34 832.62,-309.23 822.05,-308.61 823.97,-315.34"/>
</a>
</g>
</g>
<!-- Node4&#45;&gt;Node6 -->
<g id="edge5_Node000004_Node000006" class="edge">
<title>Node4&#45;&gt;Node6</title>
<g id="a_edge5_Node000004_Node000006"><a xlink:title=" ">
<path fill="none" stroke="#63b8ff" d="M782.75,-342.27C794.94,-344.01 808.27,-345.91 820.83,-347.7"/>
<polygon fill="#63b8ff" stroke="#63b8ff" points="820.2,-351.15 830.59,-349.1 821.19,-344.22 820.2,-351.15"/>
</a>
</g>
</g>
<!-- Node7&#45;&gt;Node8 -->
<g id="edge9_Node000007_Node000008" class="edge">
<title>Node7&#45;&gt;Node8</title>
<g id="a_edge9_Node000007_Node000008"><a xlink:title=" ">
<path fill="none" stroke="#63b8ff" d="M553.54,-581.62C561.83,-582.99 570.44,-584.42 578.66,-585.79"/>
<polygon fill="#63b8ff" stroke="#63b8ff" points="578,-589.23 588.44,-587.41 579.15,-582.32 578,-589.23"/>
</a>
</g>
</g>
<!-- Node10&#45;&gt;Node3 -->
<g id="edge12_Node000010_Node000003" class="edge">
<title>Node10&#45;&gt;Node3</title>
<g id="a_edge12_Node000010_Node000003"><a xlink:title=" ">
<path fill="none" stroke="#63b8ff" d="M533.92,-487.36C540.73,-483.79 547.7,-479.33 553.25,-474 582.66,-445.75 603.49,-402.21 614.09,-376.37"/>
<polygon fill="#63b8ff" stroke="#63b8ff" points="617.27,-377.85 617.69,-367.27 610.76,-375.28 617.27,-377.85"/>
</a>
</g>
</g>
<!-- Node11&#45;&gt;Node12 -->
<g id="edge14_Node000011_Node000012" class="edge">
<title>Node11&#45;&gt;Node12</title>
<g id="a_edge14_Node000011_Node000012"><a xlink:title=" ">
<path fill="none" stroke="#63b8ff" d="M534.57,-240.82C540.81,-243.6 547.35,-246.73 553.25,-250 569.09,-258.78 585.9,-270.2 598.95,-279.59"/>
<polygon fill="#63b8ff" stroke="#63b8ff" points="596.75,-282.32 606.89,-285.4 600.88,-276.67 596.75,-282.32"/>
</a>
</g>
</g>
<!-- Node15&#45;&gt;Node13 -->
<g id="edge20_Node000015_Node000013" class="edge">
<title>Node15&#45;&gt;Node13</title>
<g id="a_edge20_Node000015_Node000013"><a xlink:title=" ">
<path fill="none" stroke="#63b8ff" d="M529.43,-141.14C546.62,-132.59 570.84,-120.53 590.21,-110.89"/>
<polygon fill="#63b8ff" stroke="#63b8ff" points="591.65,-114.08 599.05,-106.49 588.53,-107.81 591.65,-114.08"/>
</a>
</g>
</g>
<!-- Node16 -->
<g id="Node000016" class="node">
<title>Node16</title>
<g id="a_Node000016"><a xlink:href="../../df/d95/a00299.html#ac9adcf7339be4a05ab1a7350c236b8a5" target="_top" xlink:title="Draw a box around the specified window.">
<polygon fill="white" stroke="#666666" points="642.75,-162.38 603.5,-162.38 603.5,-141.62 642.75,-141.62 642.75,-162.38"/>
<text xml:space="preserve" text-anchor="middle" x="623.12" y="-148.88" font-family="Helvetica,sans-Serif" font-size="10.00">cbox</text>
</a>
</g>
</g>
<!-- Node15&#45;&gt;Node16 -->
<g id="edge19_Node000015_Node000016" class="edge">
<title>Node15&#45;&gt;Node16</title>
<g id="a_edge19_Node000015_Node000016"><a xlink:title=" ">
<path fill="none" stroke="#63b8ff" d="M536.22,-152C553.15,-152 574.57,-152 591.79,-152"/>
<polygon fill="#63b8ff" stroke="#63b8ff" points="591.69,-155.5 601.69,-152 591.69,-148.5 591.69,-155.5"/>
</a>
</g>
</g>
<!-- Node18 -->
<g id="Node000018" class="node">
<title>Node18</title>
<g id="a_Node000018"><a xlink:href="../../df/d95/a00299.html#a67659f8a701b74f4dec0d36227a10d1c" target="_top" xlink:title="Display an error message window or print to stderr.">
<polygon fill="white" stroke="#666666" points="417.62,-355.38 337.88,-355.38 337.88,-334.62 417.62,-334.62 417.62,-355.38"/>
<text xml:space="preserve" text-anchor="middle" x="377.75" y="-341.88" font-family="Helvetica,sans-Serif" font-size="10.00">display_error</text>
</a>
</g>
</g>
<!-- Node17&#45;&gt;Node18 -->
<g id="edge22_Node000017_Node000018" class="edge">
<title>Node17&#45;&gt;Node18</title>
<g id="a_edge22_Node000017_Node000018"><a xlink:title=" ">
<path fill="none" stroke="#63b8ff" d="M273.24,-339.36C288.56,-338.34 308.05,-338.02 325.97,-338.41"/>
<polygon fill="#63b8ff" stroke="#63b8ff" points="325.85,-341.9 335.95,-338.71 326.07,-334.91 325.85,-341.9"/>
</a>
</g>
</g>
<!-- Node20 -->
<g id="Node000020" class="node">
<title>Node20</title>
<g id="a_Node000020"><a xlink:href="../../df/d95/a00299.html#a4298f891699300bfc4e6e56fd2a8d574" target="_top" xlink:title="Get keycode from chyron.">
<polygon fill="white" stroke="#666666" points="424,-316.38 331.5,-316.38 331.5,-295.62 424,-295.62 424,-316.38"/>
<text xml:space="preserve" text-anchor="middle" x="377.75" y="-302.88" font-family="Helvetica,sans-Serif" font-size="10.00">get_chyron_key</text>
</a>
</g>
</g>
<!-- Node17&#45;&gt;Node20 -->
<g id="edge34_Node000017_Node000020" class="edge">
<title>Node17&#45;&gt;Node20</title>
<g id="a_edge34_Node000017_Node000020"><a xlink:title=" ">
<path fill="none" stroke="#63b8ff" d="M273.24,-336.73C289.61,-331.87 310.73,-325.6 329.62,-319.99"/>
<polygon fill="#63b8ff" stroke="#63b8ff" points="330.4,-323.41 338.99,-317.21 328.4,-316.7 330.4,-323.41"/>
</a>
</g>
</g>
<!-- Node21 -->
<g id="Node000021" class="node">
<title>Node21</title>
<g id="a_Node000021"><a xlink:href="../../d1/da8/a00230.html#a79c3e22498eb2346543aa9c86fd22e58" target="_top" xlink:title="Handle received signals and prompt user for action.">
<polygon fill="white" stroke="#666666" points="548.38,-201.38 464.88,-201.38 464.88,-180.62 548.38,-180.62 548.38,-201.38"/>
<text xml:space="preserve" text-anchor="middle" x="506.62" y="-187.88" font-family="Helvetica,sans-Serif" font-size="10.00">handle_signal</text>
</a>
</g>
</g>
<!-- Node17&#45;&gt;Node21 -->
<g id="edge35_Node000017_Node000021" class="edge">
<title>Node17&#45;&gt;Node21</title>
<g id="a_edge35_Node000017_Node000021"><a xlink:title=" ">
<path fill="none" stroke="#63b8ff" d="M260.73,-334.14C295.23,-310.02 382.01,-250.97 460,-211 463.06,-209.43 466.26,-207.87 469.5,-206.35"/>
<polygon fill="#63b8ff" stroke="#63b8ff" points="470.76,-209.62 478.41,-202.3 467.86,-203.25 470.76,-209.62"/>
</a>
</g>
</g>
<!-- Node18&#45;&gt;Node3 -->
<g id="edge23_Node000018_Node000003" class="edge">
<title>Node18&#45;&gt;Node3</title>
<g id="a_edge23_Node000018_Node000003"><a xlink:title=" ">
<path fill="none" stroke="#63b8ff" d="M418.12,-346.62C465.44,-348.56 544.03,-351.79 588.59,-353.62"/>
<polygon fill="#63b8ff" stroke="#63b8ff" points="588.29,-357.11 598.42,-354.03 588.58,-350.12 588.29,-357.11"/>
</a>
</g>
</g>
<!-- Node18&#45;&gt;Node7 -->
<g id="edge24_Node000018_Node000007" class="edge">
<title>Node18&#45;&gt;Node7</title>
<g id="a_edge24_Node000018_Node000007"><a xlink:title=" ">
<path fill="none" stroke="#63b8ff" d="M382.71,-355.52C393.31,-383.08 423.97,-459.29 460,-517 468.31,-530.31 479.24,-544.07 488.33,-554.73"/>
<polygon fill="#63b8ff" stroke="#63b8ff" points="485.52,-556.84 494.73,-562.08 490.8,-552.24 485.52,-556.84"/>
</a>
</g>
</g>
<!-- Node18&#45;&gt;Node9 -->
<g id="edge25_Node000018_Node000009" class="edge">
<title>Node18&#45;&gt;Node9</title>
<g id="a_edge25_Node000018_Node000009"><a xlink:title=" ">
<path fill="none" stroke="#63b8ff" d="M414.77,-355.79C428.43,-359.88 444.19,-364.6 458.71,-368.95"/>
<polygon fill="#63b8ff" stroke="#63b8ff" points="457.48,-372.23 468.07,-371.75 459.49,-365.53 457.48,-372.23"/>
</a>
</g>
</g>
<!-- Node18&#45;&gt;Node10 -->
<g id="edge26_Node000018_Node000010" class="edge">
<title>Node18&#45;&gt;Node10</title>
<g id="a_edge26_Node000018_Node000010"><a xlink:title=" ">
<path fill="none" stroke="#63b8ff" d="M387.47,-355.52C408.57,-380.96 462.61,-446.12 489.67,-478.76"/>
<polygon fill="#63b8ff" stroke="#63b8ff" points="486.8,-480.78 495.88,-486.25 492.19,-476.31 486.8,-480.78"/>
</a>
</g>
</g>
<!-- Node18&#45;&gt;Node11 -->
<g id="edge27_Node000018_Node000011" class="edge">
<title>Node18&#45;&gt;Node11</title>
<g id="a_edge27_Node000018_Node000011"><a xlink:title=" ">
<path fill="none" stroke="#63b8ff" d="M410.73,-334.34C415.55,-331.79 420.18,-328.71 424,-325 450.55,-299.27 433.41,-275.69 460,-250 461.21,-248.84 462.49,-247.73 463.83,-246.69"/>
<polygon fill="#63b8ff" stroke="#63b8ff" points="465.53,-249.76 472.1,-241.44 461.78,-243.85 465.53,-249.76"/>
</a>
</g>
</g>
<!-- Node18&#45;&gt;Node12 -->
<g id="edge28_Node000018_Node000012" class="edge">
<title>Node18&#45;&gt;Node12</title>
<g id="a_edge28_Node000018_Node000012"><a xlink:title=" ">
<path fill="none" stroke="#63b8ff" d="M418.12,-337.23C463.29,-328.33 536.96,-313.8 582.31,-304.85"/>
<polygon fill="#63b8ff" stroke="#63b8ff" points="582.86,-308.31 591.99,-302.94 581.5,-301.44 582.86,-308.31"/>
</a>
</g>
</g>
<!-- Node18&#45;&gt;Node13 -->
<g id="edge30_Node000018_Node000013" class="edge">
<title>Node18&#45;&gt;Node13</title>
<g id="a_edge30_Node000018_Node000013"><a xlink:title=" ">
<path fill="none" stroke="#63b8ff" d="M412.98,-334.36C417.17,-331.85 421.01,-328.77 424,-325 477.91,-256.95 400,-195.75 460,-133 490.11,-101.51 540.94,-93.93 577.68,-93.02"/>
<polygon fill="#63b8ff" stroke="#63b8ff" points="577.57,-96.52 587.55,-92.94 577.52,-89.52 577.57,-96.52"/>
</a>
</g>
</g>
<!-- Node18&#45;&gt;Node14 -->
<g id="edge31_Node000018_Node000014" class="edge">
<title>Node18&#45;&gt;Node14</title>
<g id="a_edge31_Node000018_Node000014"><a xlink:title=" ">
<path fill="none" stroke="#63b8ff" d="M392.29,-355.76C407.99,-367.93 434.92,-387.89 460,-402 462.99,-403.68 466.16,-405.33 469.36,-406.9"/>
<polygon fill="#63b8ff" stroke="#63b8ff" points="467.69,-409.98 478.24,-411.02 470.64,-403.64 467.69,-409.98"/>
</a>
</g>
</g>
<!-- Node18&#45;&gt;Node15 -->
<g id="edge32_Node000018_Node000015" class="edge">
<title>Node18&#45;&gt;Node15</title>
<g id="a_edge32_Node000018_Node000015"><a xlink:title=" ">
<path fill="none" stroke="#63b8ff" d="M412.83,-334.23C417.03,-331.74 420.93,-328.7 424,-325 468.62,-271.25 415.3,-225.68 460,-172 462.01,-169.59 464.36,-167.46 466.92,-165.58"/>
<polygon fill="#63b8ff" stroke="#63b8ff" points="468.65,-168.62 475.55,-160.58 465.14,-162.57 468.65,-168.62"/>
</a>
</g>
</g>
<!-- Node18&#45;&gt;Node17 -->
<g id="edge33_Node000018_Node000017" class="edge">
<title>Node18&#45;&gt;Node17</title>
<g id="a_edge33_Node000018_Node000017"><a xlink:title=" ">
<path fill="none" stroke="#63b8ff" d="M337.47,-351.24C320.66,-351.92 301.09,-351.92 284.33,-351.23"/>
<polygon fill="#63b8ff" stroke="#63b8ff" points="284.92,-347.75 274.75,-350.72 284.55,-354.74 284.92,-347.75"/>
</a>
</g>
</g>
<!-- Node19 -->
<g id="Node000019" class="node">
<title>Node19</title>
<g id="a_Node000019"><a xlink:href="../../dc/d5d/a00278.html#a636608f26d1193b5d860f2312cd8ee49" target="_top" xlink:title="terminates string at New Line, Carriage Return, or max_len">
<polygon fill="white" stroke="#666666" points="526.62,-279.38 486.62,-279.38 486.62,-258.62 526.62,-258.62 526.62,-279.38"/>
<text xml:space="preserve" text-anchor="middle" x="506.62" y="-265.88" font-family="Helvetica,sans-Serif" font-size="10.00">strnz</text>
</a>
</g>
</g>
<!-- Node18&#45;&gt;Node19 -->
<g id="edge29_Node000018_Node000019" class="edge">
<title>Node18&#45;&gt;Node19</title>
<g id="a_edge29_Node000018_Node000019"><a xlink:title=" ">
<path fill="none" stroke="#63b8ff" d="M406.74,-334.26C412.62,-331.56 418.65,-328.44 424,-325 442.01,-313.42 442.4,-305.18 460,-293 465.15,-289.43 470.9,-286.02 476.53,-282.95"/>
<polygon fill="#63b8ff" stroke="#63b8ff" points="477.78,-286.24 485.04,-278.52 474.55,-280.03 477.78,-286.24"/>
</a>
</g>
</g>
<!-- Node21&#45;&gt;Node5 -->
<g id="edge36_Node000021_Node000005" class="edge">
<title>Node21&#45;&gt;Node5</title>
<g id="a_edge36_Node000021_Node000005"><a xlink:title=" ">
<path fill="none" stroke="#63b8ff" d="M544.57,-201.85C611.08,-221.38 750.89,-262.44 824.44,-284.04"/>
<polygon fill="#63b8ff" stroke="#63b8ff" points="823.2,-287.32 833.78,-286.78 825.17,-280.6 823.2,-287.32"/>
</a>
</g>
</g>
<!-- Node21&#45;&gt;Node12 -->
<g id="edge37_Node000021_Node000012" class="edge">
<title>Node21&#45;&gt;Node12</title>
<g id="a_edge37_Node000021_Node000012"><a xlink:title=" ">
<path fill="none" stroke="#63b8ff" d="M537.75,-201.73C543.18,-204.33 548.58,-207.42 553.25,-211 556.57,-213.54 587.46,-252.71 606.73,-277.3"/>
<polygon fill="#63b8ff" stroke="#63b8ff" points="603.85,-279.29 612.77,-285.01 609.36,-274.98 603.85,-279.29"/>
</a>
</g>
</g>
<!-- Node21&#45;&gt;Node13 -->
<g id="edge38_Node000021_Node000013" class="edge">
<title>Node21&#45;&gt;Node13</title>
<g id="a_edge38_Node000021_Node000013"><a xlink:title=" ">
<path fill="none" stroke="#63b8ff" d="M537.1,-180.27C542.7,-177.63 548.34,-174.54 553.25,-171 559.32,-166.63 587.13,-135.22 605.5,-114.17"/>
<polygon fill="#63b8ff" stroke="#63b8ff" points="608.01,-116.61 611.94,-106.77 602.73,-112.02 608.01,-116.61"/>
</a>
</g>
</g>
<!-- Node22&#45;&gt;Node13 -->
<g id="edge40_Node000022_Node000013" class="edge">
<title>Node22&#45;&gt;Node13</title>
<g id="a_edge40_Node000022_Node000013"><a xlink:title=" ">
<path fill="none" stroke="#63b8ff" d="M295.92,-36.31C357.71,-35.52 464.97,-38.3 553.25,-62 567.41,-65.8 582.19,-72.48 594.42,-78.84"/>
<polygon fill="#63b8ff" stroke="#63b8ff" points="592.63,-81.85 603.09,-83.54 595.96,-75.7 592.63,-81.85"/>
</a>
</g>
</g>
</g>
</svg>

<g id="navigator" transform="translate(0 0)" fill="#404254">
  <rect fill="#f2f5e9" fill-opacity="0.5" stroke="#606060" stroke-width=".5" x="0" y="0" width="60" height="60"/>
  <use id="zoomplus" xlink:href="#zoomPlus" x="17" y="9" onmousedown="handleZoom(evt,'in')"/>
  <use id="zoomminus" xlink:href="#zoomMin" x="42" y="9" onmousedown="handleZoom(evt,'out')"/>
  <use id="reset" xlink:href="#resetDef" x="30" y="36" onmousedown="handleReset()"/>
   <use id="arrowup" xlink:href="#arrowUp" x="0" y="0" onmousedown="handlePan(0,-1)"/>
  <use id="arrowright" xlink:href="#arrowRight" x="0" y="0" onmousedown="handlePan(1,0)"/>
  <use id="arrowdown" xlink:href="#arrowDown" x="0" y="0" onmousedown="handlePan(0,1)"/>
  <use id="arrowleft" xlink:href="#arrowLeft" x="0" y="0" onmousedown="handlePan(-1,0)"/>
</g>
<svg viewBox="0 0 15 15" width="100%" height="30px" preserveAspectRatio="xMaxYMin meet">
 <g id="arrow_out" transform="scale(0.3 0.3)">
  <a xlink:href="a00323_ae5ea2133e63a3b0fb1d8af131ee5929f_cgraph_org.svg" target="_base">
   <rect id="button" ry="5" rx="5" y="6" x="6" height="38" width="38"
        fill="#f2f5e9" fill-opacity="0.5" stroke="#606060" stroke-width="1.0"/>
   <path id="arrow"
     d="M 11.500037,31.436501 C 11.940474,20.09759 22.043105,11.32322 32.158766,21.979434 L 37.068811,17.246167 C 37.068811,17.246167 37.088388,32 37.088388,32 L 22.160133,31.978069 C 22.160133,31.978069 26.997745,27.140456 26.997745,27.140456 C 18.528582,18.264221 13.291696,25.230495 11.500037,31.436501 z"
     style="fill:#404040;"/>
  </a>
 </g>
</svg>

<style type='text/css'>
<![CDATA[
[data-mouse-over-selected='false'] { opacity: 0.7; }
[data-mouse-over-selected='true']  { opacity: 1.0; }
]]>
</style>
<script type="application/ecmascript"><![CDATA[
document.addEventListener('DOMContentLoaded', (event) => {
  highlightEdges();
  highlightAdjacentNodes();
});
]]></script>
</svg>
