<?xml version="1.0" encoding="UTF-8" standalone="no"?>
<!DOCTYPE svg PUBLIC "-//W3C//DTD SVG 1.1//EN"
 "http://www.w3.org/Graphics/SVG/1.1/DTD/svg11.dtd">
<!-- Generated by graphviz version 14.1.2 (0)
 -->
<!-- Title: new_form Pages: 1 -->
<!--zoomable 928 -->

<svg id="main" version="1.1" xmlns="http://www.w3.org/2000/svg" xmlns:xlink="http://www.w3.org/1999/xlink" xml:space="preserve" onload="init(evt)">

<style type="text/css"><![CDATA[
.node, .edge {opacity: 0.7;}
.node.selected, .edge.selected {opacity: 1;}
.edge:hover path { stroke: red; }
.edge:hover polygon { stroke: red; fill: red; }
]]></style>

<defs>
  <circle id="rim" cx="0" cy="0" r="7"/>
  <circle id="rim2" cx="0" cy="0" r="3.5"/>
  <g id="zoomPlus">
    <use xlink:href="#rim" fill="#404040"><set attributeName="fill" to="#808080" begin="zoomplus.mouseover" end="zoomplus.mouseout"/></use>
    <path d="M-4,0h8M0,-4v8" fill="none" stroke="white" stroke-width="1.5" pointer-events="none"/>
  </g>
  <g id="zoomMin">
    <use xlink:href="#rim" fill="#404040"><set attributeName="fill" to="#808080" begin="zoomminus.mouseover" end="zoomminus.mouseout"/></use>
    <path d="M-4,0h8" fill="none" stroke="white" stroke-width="1.5" pointer-events="none"/>
  </g>
  <g id="arrowUp" transform="translate(30 24)">
    <use xlink:href="#rim"/>
    <path pointer-events="none" fill="none" stroke="white" stroke-width="1.5" d="M0,-3.0v7 M-2.5,-0.5L0,-3.0L2.5,-0.5"/>
  </g>
  <g id="arrowRight" transform="rotate(90) translate(36 -43)">
    <use xlink:href="#rim"/>
    <path pointer-events="none" fill="none" stroke="white" stroke-width="1.5" d="M0,-3.0v7 M-2.5,-0.5L0,-3.0L2.5,-0.5"/>
  </g>
  <g id="arrowDown" transform="rotate(180) translate(-30 -48)">
    <use xlink:href="#rim"/>
    <path pointer-events="none" fill="none" stroke="white" stroke-width="1.5" d="M0,-3.0v7 M-2.5,-0.5L0,-3.0L2.5,-0.5"/>
  </g>
  <g id="arrowLeft" transform="rotate(270) translate(-36 17)">
    <use xlink:href="#rim"/>
    <path pointer-events="none" fill="none" stroke="white" stroke-width="1.5" d="M0,-3.0v7 M-2.5,-0.5L0,-3.0L2.5,-0.5"/>
  </g>
  <g id="resetDef">
    <use xlink:href="#rim2" fill="#404040"><set attributeName="fill" to="#808080" begin="reset.mouseover" end="reset.mouseout"/></use>
  </g>
</defs>
<script type="application/ecmascript">
var viewWidth = 1159;
var viewHeight = 928;
var sectionId = 'dynsection-25';
</script>
<script type="application/ecmascript" xlink:href="../../svg.min.js"/>
<svg id="graph" class="graph">
<g id="viewport">
<title>new_form</title>
<!-- Node1 -->
<g id="Node000001" class="node">
<title>Node1</title>
<g id="a_Node000001"><a xlink:title="Create and initialize Form structure.">
<polygon fill="#999999" stroke="#666666" points="64.75,-508.82 0,-508.82 0,-488.07 64.75,-488.07 64.75,-508.82"/>
<text xml:space="preserve" text-anchor="middle" x="32.38" y="-495.32" font-family="Helvetica,sans-Serif" font-size="10.00">new_form</text>
</a>
</g>
</g>
<!-- Node2 -->
<g id="Node000002" class="node">
<title>Node2</title>
<g id="a_Node000002"><a xlink:href="../../df/d95/a00299.html#a8f6c45ca4a7f6a41c4c88314e697565a" target="_top" xlink:title="Abnormal program termination.">
<polygon fill="white" stroke="#666666" points="856.75,-738.82 810.75,-738.82 810.75,-718.07 856.75,-718.07 856.75,-738.82"/>
<text xml:space="preserve" text-anchor="middle" x="833.75" y="-725.32" font-family="Helvetica,sans-Serif" font-size="10.00">abend</text>
</a>
</g>
</g>
<!-- Node1&#45;&gt;Node2 -->
<g id="edge1_Node000001_Node000002" class="edge">
<title>Node1&#45;&gt;Node2</title>
<g id="a_edge1_Node000001_Node000002"><a xlink:title=" ">
<path fill="none" stroke="#63b8ff" d="M35.16,-509.09C45.54,-566.98 103.46,-841.45 268.88,-841.45 268.88,-841.45 268.88,-841.45 560.5,-841.45 573.22,-841.45 730.46,-773.26 800.02,-742.82"/>
<polygon fill="#63b8ff" stroke="#63b8ff" points="801.25,-746.1 809.01,-738.88 798.44,-739.69 801.25,-746.1"/>
</a>
</g>
</g>
<!-- Node6 -->
<g id="Node000006" class="node">
<title>Node6</title>
<g id="a_Node000006"><a xlink:href="../../df/da9/a00263.html#a4da25f98e58860d93b737cdc1997e9e9" target="_top" xlink:title="Initialize Form file specifications.">
<polygon fill="white" stroke="#666666" points="187.25,-508.82 100.75,-508.82 100.75,-488.07 187.25,-488.07 187.25,-508.82"/>
<text xml:space="preserve" text-anchor="middle" x="144" y="-495.32" font-family="Helvetica,sans-Serif" font-size="10.00">init_form_files</text>
</a>
</g>
</g>
<!-- Node1&#45;&gt;Node6 -->
<g id="edge7_Node000001_Node000006" class="edge">
<title>Node1&#45;&gt;Node6</title>
<g id="a_edge7_Node000001_Node000006"><a xlink:title=" ">
<path fill="none" stroke="#63b8ff" d="M65.08,-498.45C72.56,-498.45 80.74,-498.45 88.9,-498.45"/>
<polygon fill="#63b8ff" stroke="#63b8ff" points="88.84,-501.95 98.84,-498.45 88.84,-494.95 88.84,-501.95"/>
</a>
</g>
</g>
<!-- Node10 -->
<g id="Node000010" class="node">
<title>Node10</title>
<g id="a_Node000010"><a xlink:href="../../dc/d5d/a00278.html#a0de2e40df9bd7efc8fd9afb8ad2257e6" target="_top" xlink:title="safer alternative to strncpy">
<polygon fill="white" stroke="#666666" points="994.62,-315.82 926.88,-315.82 926.88,-295.07 994.62,-295.07 994.62,-315.82"/>
<text xml:space="preserve" text-anchor="middle" x="960.75" y="-302.32" font-family="Helvetica,sans-Serif" font-size="10.00">strnz__cpy</text>
</a>
</g>
</g>
<!-- Node1&#45;&gt;Node10 -->
<g id="edge58_Node000001_Node000010" class="edge">
<title>Node1&#45;&gt;Node10</title>
<g id="a_edge58_Node000001_Node000010"><a xlink:title=" ">
<path fill="none" stroke="#63b8ff" d="M33.35,-487.6C33.76,-414.92 45.93,-1.45 268.88,-1.45 268.88,-1.45 268.88,-1.45 705.88,-1.45 785.48,-1.45 822.08,11.17 880,-43.45 949.54,-109.01 959.04,-233.14 959.92,-283.44"/>
<polygon fill="#63b8ff" stroke="#63b8ff" points="956.42,-283.32 959.97,-293.3 963.42,-283.28 956.42,-283.32"/>
</a>
</g>
</g>
<!-- Node3 -->
<g id="Node000003" class="node">
<title>Node3</title>
<g id="a_Node000003"><a xlink:href="../../df/d95/a00299.html#afc0985a403e3eac0b2cd8f0fab500256" target="_top" xlink:title="Gracefully shut down NCurses and restore terminal settings.">
<polygon fill="white" stroke="#666666" points="1005.5,-738.82 916,-738.82 916,-718.07 1005.5,-718.07 1005.5,-738.82"/>
<text xml:space="preserve" text-anchor="middle" x="960.75" y="-725.32" font-family="Helvetica,sans-Serif" font-size="10.00">destroy_curses</text>
</a>
</g>
</g>
<!-- Node2&#45;&gt;Node3 -->
<g id="edge2_Node000002_Node000003" class="edge">
<title>Node2&#45;&gt;Node3</title>
<g id="a_edge2_Node000002_Node000003"><a xlink:title=" ">
<path fill="none" stroke="#63b8ff" d="M857.1,-728.45C870.28,-728.45 887.59,-728.45 904.23,-728.45"/>
<polygon fill="#63b8ff" stroke="#63b8ff" points="904.07,-731.95 914.07,-728.45 904.07,-724.95 904.07,-731.95"/>
</a>
</g>
</g>
<!-- Node4 -->
<g id="Node000004" class="node">
<title>Node4</title>
<g id="a_Node000004"><a xlink:href="../../d6/de1/a00233.html#ac5e3adb304b78910fc77761ef6a743f0" target="_top" xlink:title="restore_shell_tioctl() &#45; restore shell terminal settings">
<polygon fill="white" stroke="#666666" points="1150.5,-700.82 1041.5,-700.82 1041.5,-680.07 1150.5,-680.07 1150.5,-700.82"/>
<text xml:space="preserve" text-anchor="middle" x="1096" y="-687.32" font-family="Helvetica,sans-Serif" font-size="10.00">restore_shell_tioctl</text>
</a>
</g>
</g>
<!-- Node2&#45;&gt;Node4 -->
<g id="edge5_Node000002_Node000004" class="edge">
<title>Node2&#45;&gt;Node4</title>
<g id="a_edge5_Node000002_Node000004"><a xlink:title=" ">
<path fill="none" stroke="#63b8ff" d="M857.02,-722.45C873.26,-718.27 895.86,-712.86 916,-709.45 953.51,-703.1 995.82,-698.49 1029.89,-695.4"/>
<polygon fill="#63b8ff" stroke="#63b8ff" points="1029.95,-698.91 1039.6,-694.55 1029.33,-691.94 1029.95,-698.91"/>
</a>
</g>
</g>
<!-- Node5 -->
<g id="Node000005" class="node">
<title>Node5</title>
<g id="a_Node000005"><a xlink:href="../../d1/da8/a00230.html#a06c1eb6cf3649dc187115565409f91af" target="_top" xlink:title="Set signal handlers to default behavior.">
<polygon fill="white" stroke="#666666" points="1136.62,-757.82 1055.38,-757.82 1055.38,-737.07 1136.62,-737.07 1136.62,-757.82"/>
<text xml:space="preserve" text-anchor="middle" x="1096" y="-744.32" font-family="Helvetica,sans-Serif" font-size="10.00">sig_dfl_mode</text>
</a>
</g>
</g>
<!-- Node2&#45;&gt;Node5 -->
<g id="edge6_Node000002_Node000005" class="edge">
<title>Node2&#45;&gt;Node5</title>
<g id="a_edge6_Node000002_Node000005"><a xlink:title=" ">
<path fill="none" stroke="#63b8ff" d="M856.92,-735.09C873.12,-739.58 895.71,-745.11 916,-747.45 958.9,-752.4 1007.97,-751.97 1043.87,-750.55"/>
<polygon fill="#63b8ff" stroke="#63b8ff" points="1043.69,-754.06 1053.52,-750.13 1043.38,-747.07 1043.69,-754.06"/>
</a>
</g>
</g>
<!-- Node3&#45;&gt;Node4 -->
<g id="edge3_Node000003_Node000004" class="edge">
<title>Node3&#45;&gt;Node4</title>
<g id="a_edge3_Node000003_Node000004"><a xlink:title=" ">
<path fill="none" stroke="#63b8ff" d="M999.58,-717.66C1014.07,-713.53 1030.8,-708.75 1046.18,-704.37"/>
<polygon fill="#63b8ff" stroke="#63b8ff" points="1046.97,-707.78 1055.62,-701.68 1045.05,-701.05 1046.97,-707.78"/>
</a>
</g>
</g>
<!-- Node3&#45;&gt;Node5 -->
<g id="edge4_Node000003_Node000005" class="edge">
<title>Node3&#45;&gt;Node5</title>
<g id="a_edge4_Node000003_Node000005"><a xlink:title=" ">
<path fill="none" stroke="#63b8ff" d="M1005.75,-734.72C1017.94,-736.46 1031.27,-738.36 1043.83,-740.15"/>
<polygon fill="#63b8ff" stroke="#63b8ff" points="1043.2,-743.6 1053.59,-741.54 1044.19,-736.67 1043.2,-743.6"/>
</a>
</g>
</g>
<!-- Node7 -->
<g id="Node000007" class="node">
<title>Node7</title>
<g id="a_Node000007"><a xlink:href="../../dc/d5d/a00278.html#ae3d67c8c0b5b559664942e539256605b" target="_top" xlink:title="Returns the base name of a file specification.">
<polygon fill="white" stroke="#666666" points="306,-813.82 233.75,-813.82 233.75,-793.07 306,-793.07 306,-813.82"/>
<text xml:space="preserve" text-anchor="middle" x="269.88" y="-800.32" font-family="Helvetica,sans-Serif" font-size="10.00">base_name</text>
</a>
</g>
</g>
<!-- Node6&#45;&gt;Node7 -->
<g id="edge8_Node000006_Node000007" class="edge">
<title>Node6&#45;&gt;Node7</title>
<g id="a_edge8_Node000006_Node000007"><a xlink:title=" ">
<path fill="none" stroke="#63b8ff" d="M145.07,-509.23C145.89,-549.52 153.75,-693.34 223.25,-779.45 225.31,-781.99 227.7,-784.3 230.31,-786.39"/>
<polygon fill="#63b8ff" stroke="#63b8ff" points="228.21,-789.2 238.47,-791.81 232.08,-783.37 228.21,-789.2"/>
</a>
</g>
</g>
<!-- Node8 -->
<g id="Node000008" class="node">
<title>Node8</title>
<g id="a_Node000008"><a xlink:href="../../dc/d5d/a00278.html#a02792428710078b7a2ca59ef70ae83fa" target="_top" xlink:title="Locates a file in the system PATH.">
<polygon fill="white" stroke="#666666" points="460.75,-125.82 352.5,-125.82 352.5,-105.07 460.75,-105.07 460.75,-125.82"/>
<text xml:space="preserve" text-anchor="middle" x="406.62" y="-112.32" font-family="Helvetica,sans-Serif" font-size="10.00">locate_file_in_path</text>
</a>
</g>
</g>
<!-- Node6&#45;&gt;Node8 -->
<g id="edge9_Node000006_Node000008" class="edge">
<title>Node6&#45;&gt;Node8</title>
<g id="a_edge9_Node000006_Node000008"><a xlink:title=" ">
<path fill="none" stroke="#63b8ff" d="M144.97,-487.68C145.41,-446.76 152.08,-298.82 223.25,-210.45 256.48,-169.18 312.46,-143.84 353.66,-129.82"/>
<polygon fill="#63b8ff" stroke="#63b8ff" points="354.73,-133.15 363.15,-126.72 352.56,-126.5 354.73,-133.15"/>
</a>
</g>
</g>
<!-- Node6&#45;&gt;Node10 -->
<g id="edge15_Node000006_Node000010" class="edge">
<title>Node6&#45;&gt;Node10</title>
<g id="a_edge15_Node000006_Node000010"><a xlink:title=" ">
<path fill="none" stroke="#63b8ff" d="M156.8,-509.04C219.36,-563.83 518.12,-808.83 751.5,-708.45 772.87,-699.25 768.62,-684.04 787.5,-670.45 824.3,-643.97 851.17,-662.43 880,-627.45 955.26,-536.11 961.08,-383.93 960.45,-327.44"/>
<polygon fill="#63b8ff" stroke="#63b8ff" points="963.95,-327.49 960.25,-317.56 956.95,-327.63 963.95,-327.49"/>
</a>
</g>
</g>
<!-- Node12 -->
<g id="Node000012" class="node">
<title>Node12</title>
<g id="a_Node000012"><a xlink:href="../../dc/d5d/a00278.html#a671225aa841321cad803a383ba99db11" target="_top" xlink:title="removes leading and trailing double quotes if present">
<polygon fill="white" stroke="#666666" points="307.88,-508.82 231.88,-508.82 231.88,-488.07 307.88,-488.07 307.88,-508.82"/>
<text xml:space="preserve" text-anchor="middle" x="269.88" y="-495.32" font-family="Helvetica,sans-Serif" font-size="10.00">strip_quotes</text>
</a>
</g>
</g>
<!-- Node6&#45;&gt;Node12 -->
<g id="edge14_Node000006_Node000012" class="edge">
<title>Node6&#45;&gt;Node12</title>
<g id="a_edge14_Node000006_Node000012"><a xlink:title=" ">
<path fill="none" stroke="#63b8ff" d="M187.63,-498.45C198.12,-498.45 209.42,-498.45 220.17,-498.45"/>
<polygon fill="#63b8ff" stroke="#63b8ff" points="220.03,-501.95 230.03,-498.45 220.03,-494.95 220.03,-501.95"/>
</a>
</g>
</g>
<!-- Node13 -->
<g id="Node000013" class="node">
<title>Node13</title>
<g id="a_Node000013"><a xlink:href="../../df/da9/a00263.html#a75ce293fe4e007a3337a190647408000" target="_top" xlink:title="Verify file specification argument.">
<polygon fill="white" stroke="#666666" points="316.5,-239.82 223.25,-239.82 223.25,-219.07 316.5,-219.07 316.5,-239.82"/>
<text xml:space="preserve" text-anchor="middle" x="269.88" y="-226.32" font-family="Helvetica,sans-Serif" font-size="10.00">verify_spec_arg</text>
</a>
</g>
</g>
<!-- Node6&#45;&gt;Node13 -->
<g id="edge16_Node000006_Node000013" class="edge">
<title>Node6&#45;&gt;Node13</title>
<g id="a_edge16_Node000006_Node000013"><a xlink:title=" ">
<path fill="none" stroke="#63b8ff" d="M149.86,-487.9C168.31,-447.82 234.33,-304.46 259.25,-250.34"/>
<polygon fill="#63b8ff" stroke="#63b8ff" points="262.28,-252.13 263.28,-241.59 255.92,-249.21 262.28,-252.13"/>
</a>
</g>
</g>
<!-- Node9 -->
<g id="Node000009" class="node">
<title>Node9</title>
<g id="a_Node000009"><a xlink:href="../../dc/d5d/a00278.html#a0d44c51feb7f300fecb49dbf223a62f8" target="_top" xlink:title="Removes quotes and trims at first space.">
<polygon fill="white" stroke="#666666" points="622.25,-163.82 496.75,-163.82 496.75,-143.07 622.25,-143.07 622.25,-163.82"/>
<text xml:space="preserve" text-anchor="middle" x="559.5" y="-150.32" font-family="Helvetica,sans-Serif" font-size="10.00">canonicalize_file_spec</text>
</a>
</g>
</g>
<!-- Node8&#45;&gt;Node9 -->
<g id="edge10_Node000008_Node000009" class="edge">
<title>Node8&#45;&gt;Node9</title>
<g id="a_edge10_Node000008_Node000009"><a xlink:title=" ">
<path fill="none" stroke="#63b8ff" d="M450.46,-126.23C467.26,-130.47 486.73,-135.37 504.48,-139.84"/>
<polygon fill="#63b8ff" stroke="#63b8ff" points="503.54,-143.21 514.09,-142.26 505.25,-136.43 503.54,-143.21"/>
</a>
</g>
</g>
<!-- Node8&#45;&gt;Node10 -->
<g id="edge13_Node000008_Node000010" class="edge">
<title>Node8&#45;&gt;Node10</title>
<g id="a_edge13_Node000008_Node000010"><a xlink:title=" ">
<path fill="none" stroke="#63b8ff" d="M455.16,-104.62C546.8,-86.64 750.33,-61.09 880,-153.45 924.75,-185.32 946.41,-250.12 955.02,-283.89"/>
<polygon fill="#63b8ff" stroke="#63b8ff" points="951.55,-284.42 957.27,-293.33 958.36,-282.79 951.55,-284.42"/>
</a>
</g>
</g>
<!-- Node11 -->
<g id="Node000011" class="node">
<title>Node11</title>
<g id="a_Node000011"><a xlink:href="../../dc/d5d/a00278.html#aa0145c044cfdde3a1c83323410a59f25" target="_top" xlink:title="safer alternative to strncat">
<polygon fill="white" stroke="#666666" points="866.5,-220.82 801,-220.82 801,-200.07 866.5,-200.07 866.5,-220.82"/>
<text xml:space="preserve" text-anchor="middle" x="833.75" y="-207.32" font-family="Helvetica,sans-Serif" font-size="10.00">strnz__cat</text>
</a>
</g>
</g>
<!-- Node8&#45;&gt;Node11 -->
<g id="edge12_Node000008_Node000011" class="edge">
<title>Node8&#45;&gt;Node11</title>
<g id="a_edge12_Node000008_Node000011"><a xlink:title=" ">
<path fill="none" stroke="#63b8ff" d="M461.05,-116.73C504.78,-118.6 568.04,-123.19 622.25,-134.45 681.53,-146.75 694.7,-156.49 751.5,-177.45 766.52,-182.99 782.92,-189.55 797.02,-195.35"/>
<polygon fill="#63b8ff" stroke="#63b8ff" points="795.32,-198.44 805.9,-199.04 798.01,-191.97 795.32,-198.44"/>
</a>
</g>
</g>
<!-- Node9&#45;&gt;Node10 -->
<g id="edge11_Node000009_Node000010" class="edge">
<title>Node9&#45;&gt;Node10</title>
<g id="a_edge11_Node000009_Node000010"><a xlink:title=" ">
<path fill="none" stroke="#63b8ff" d="M622.62,-146.51C690.72,-142 800.8,-144.04 880,-191.45 915.93,-212.95 939.76,-257.6 951.41,-284.19"/>
<polygon fill="#63b8ff" stroke="#63b8ff" points="948.12,-285.4 955.2,-293.28 954.58,-282.71 948.12,-285.4"/>
</a>
</g>
</g>
<!-- Node13&#45;&gt;Node8 -->
<g id="edge21_Node000013_Node000008" class="edge">
<title>Node13&#45;&gt;Node8</title>
<g id="a_edge21_Node000013_Node000008"><a xlink:title=" ">
<path fill="none" stroke="#63b8ff" d="M278.31,-218.71C291.45,-200.38 320.44,-162.79 352.5,-139.45 356.62,-136.45 361.16,-133.71 365.82,-131.23"/>
<polygon fill="#63b8ff" stroke="#63b8ff" points="367.23,-134.43 374.68,-126.9 364.16,-128.14 367.23,-134.43"/>
</a>
</g>
</g>
<!-- Node13&#45;&gt;Node9 -->
<g id="edge17_Node000013_Node000009" class="edge">
<title>Node13&#45;&gt;Node9</title>
<g id="a_edge17_Node000013_Node000009"><a xlink:title=" ">
<path fill="none" stroke="#63b8ff" d="M283.75,-218.59C299.06,-206.34 325.9,-186.9 352.5,-177.45 394.89,-162.37 444.98,-156.3 485.15,-154.03"/>
<polygon fill="#63b8ff" stroke="#63b8ff" points="485.15,-157.53 494.96,-153.55 484.8,-150.54 485.15,-157.53"/>
</a>
</g>
</g>
<!-- Node13&#45;&gt;Node10 -->
<g id="edge24_Node000013_Node000010" class="edge">
<title>Node13&#45;&gt;Node10</title>
<g id="a_edge24_Node000013_Node000010"><a xlink:title=" ">
<path fill="none" stroke="#63b8ff" d="M274.4,-218.58C283.23,-193.14 308.77,-129.35 352.5,-96.45 428.4,-39.32 463.5,-39.45 558.5,-39.45 558.5,-39.45 558.5,-39.45 705.88,-39.45 788.8,-39.45 820.96,-48.22 880,-106.45 930.8,-156.55 950.24,-243.21 956.8,-283.58"/>
<polygon fill="#63b8ff" stroke="#63b8ff" points="953.3,-283.87 958.25,-293.24 960.23,-282.84 953.3,-283.87"/>
</a>
</g>
</g>
<!-- Node13&#45;&gt;Node11 -->
<g id="edge23_Node000013_Node000011" class="edge">
<title>Node13&#45;&gt;Node11</title>
<g id="a_edge23_Node000013_Node000011"><a xlink:title=" ">
<path fill="none" stroke="#63b8ff" d="M309.17,-218.63C322.74,-215.3 338.19,-212.09 352.5,-210.45 512.54,-192.07 704.55,-201.43 789.13,-207.13"/>
<polygon fill="#63b8ff" stroke="#63b8ff" points="788.84,-210.62 799.06,-207.82 789.33,-203.63 788.84,-210.62"/>
</a>
</g>
</g>
<!-- Node14 -->
<g id="Node000014" class="node">
<title>Node14</title>
<g id="a_Node000014"><a xlink:href="../../dc/d5d/a00278.html#ad7f9941ba28a6cca3ccce953c4d77e32" target="_top" xlink:title="Replace Leading Tilde With Home Directory.">
<polygon fill="white" stroke="#666666" points="599,-277.82 520,-277.82 520,-257.07 599,-257.07 599,-277.82"/>
<text xml:space="preserve" text-anchor="middle" x="559.5" y="-264.32" font-family="Helvetica,sans-Serif" font-size="10.00">expand_tilde</text>
</a>
</g>
</g>
<!-- Node13&#45;&gt;Node14 -->
<g id="edge18_Node000013_Node000014" class="edge">
<title>Node13&#45;&gt;Node14</title>
<g id="a_edge18_Node000013_Node000014"><a xlink:title=" ">
<path fill="none" stroke="#63b8ff" d="M312.6,-240.32C325.34,-243.32 339.43,-246.33 352.5,-248.45 405.33,-256.99 466.44,-262.02 508.3,-264.74"/>
<polygon fill="#63b8ff" stroke="#63b8ff" points="507.86,-268.22 518.06,-265.35 508.3,-261.23 507.86,-268.22"/>
</a>
</g>
</g>
<!-- Node15 -->
<g id="Node000015" class="node">
<title>Node15</title>
<g id="a_Node000015"><a xlink:href="../../dc/d5d/a00278.html#a32204f694cf5e28c888a1045a1b383a4" target="_top" xlink:title="removes leading and trailing double quotes if present">
<polygon fill="white" stroke="#666666" points="447.25,-239.82 366,-239.82 366,-219.07 447.25,-219.07 447.25,-239.82"/>
<text xml:space="preserve" text-anchor="middle" x="406.62" y="-226.32" font-family="Helvetica,sans-Serif" font-size="10.00">stripz_quotes</text>
</a>
</g>
</g>
<!-- Node13&#45;&gt;Node15 -->
<g id="edge22_Node000013_Node000015" class="edge">
<title>Node13&#45;&gt;Node15</title>
<g id="a_edge22_Node000013_Node000015"><a xlink:title=" ">
<path fill="none" stroke="#63b8ff" d="M316.87,-229.45C328.89,-229.45 341.92,-229.45 354.2,-229.45"/>
<polygon fill="#63b8ff" stroke="#63b8ff" points="354.17,-232.95 364.17,-229.45 354.17,-225.95 354.17,-232.95"/>
</a>
</g>
</g>
<!-- Node16 -->
<g id="Node000016" class="node">
<title>Node16</title>
<g id="a_Node000016"><a xlink:href="../../dc/d5d/a00278.html#ae14a4e790b69c8c2e50d1eb5cdf1fd19" target="_top" xlink:title="Verifies that the directory specified by &quot;spec&quot; exists and is accessible with the permissions specifi...">
<polygon fill="white" stroke="#666666" points="437.88,-546.82 375.38,-546.82 375.38,-526.07 437.88,-526.07 437.88,-546.82"/>
<text xml:space="preserve" text-anchor="middle" x="406.62" y="-533.32" font-family="Helvetica,sans-Serif" font-size="10.00">verify_dir</text>
</a>
</g>
</g>
<!-- Node13&#45;&gt;Node16 -->
<g id="edge25_Node000013_Node000016" class="edge">
<title>Node13&#45;&gt;Node16</title>
<g id="a_edge25_Node000013_Node000016"><a xlink:title=" ">
<path fill="none" stroke="#63b8ff" d="M275.51,-240.01C294.95,-284.29 370.03,-455.35 396.4,-515.43"/>
<polygon fill="#63b8ff" stroke="#63b8ff" points="393.03,-516.47 400.26,-524.22 399.44,-513.66 393.03,-516.47"/>
</a>
</g>
</g>
<!-- Node30 -->
<g id="Node000030" class="node">
<title>Node30</title>
<g id="a_Node000030"><a xlink:href="../../dc/d5d/a00278.html#ab190e75e095b7d3da114fce21ab8c8ea" target="_top" xlink:title="Verifies that the file specified by &quot;in_spec&quot; exists and is accessible with the permissions specified...">
<polygon fill="white" stroke="#666666" points="439.38,-315.82 373.88,-315.82 373.88,-295.07 439.38,-295.07 439.38,-315.82"/>
<text xml:space="preserve" text-anchor="middle" x="406.62" y="-302.32" font-family="Helvetica,sans-Serif" font-size="10.00">verify_file</text>
</a>
</g>
</g>
<!-- Node13&#45;&gt;Node30 -->
<g id="edge52_Node000013_Node000030" class="edge">
<title>Node13&#45;&gt;Node30</title>
<g id="a_edge52_Node000013_Node000030"><a xlink:title=" ">
<path fill="none" stroke="#63b8ff" d="M286.42,-240.3C302.56,-251.33 328.71,-268.58 352.5,-281.45 357.9,-284.37 363.72,-287.25 369.46,-289.95"/>
<polygon fill="#63b8ff" stroke="#63b8ff" points="367.67,-292.98 378.22,-293.95 370.58,-286.61 367.67,-292.98"/>
</a>
</g>
</g>
<!-- Node14&#45;&gt;Node10 -->
<g id="edge20_Node000014_Node000010" class="edge">
<title>Node14&#45;&gt;Node10</title>
<g id="a_edge20_Node000014_Node000010"><a xlink:title=" ">
<path fill="none" stroke="#63b8ff" d="M599.48,-269.13C659.78,-272.02 779.27,-278.85 880,-291.45 891.51,-292.89 903.88,-294.85 915.37,-296.85"/>
<polygon fill="#63b8ff" stroke="#63b8ff" points="914.54,-300.26 925,-298.58 915.78,-293.37 914.54,-300.26"/>
</a>
</g>
</g>
<!-- Node14&#45;&gt;Node11 -->
<g id="edge19_Node000014_Node000011" class="edge">
<title>Node14&#45;&gt;Node11</title>
<g id="a_edge19_Node000014_Node000011"><a xlink:title=" ">
<path fill="none" stroke="#63b8ff" d="M599.22,-259.34C649.55,-248.8 737.19,-230.45 789.6,-219.48"/>
<polygon fill="#63b8ff" stroke="#63b8ff" points="789.99,-222.97 799.06,-217.5 788.56,-216.12 789.99,-222.97"/>
</a>
</g>
</g>
<!-- Node16&#45;&gt;Node10 -->
<g id="edge51_Node000016_Node000010" class="edge">
<title>Node16&#45;&gt;Node10</title>
<g id="a_edge51_Node000016_Node000010"><a xlink:title=" ">
<path fill="none" stroke="#63b8ff" d="M426.29,-547.11C494.91,-584.78 736.69,-703.57 880,-594.45 923.39,-561.41 949.18,-388.8 957.11,-327.26"/>
<polygon fill="#63b8ff" stroke="#63b8ff" points="960.54,-328.07 958.31,-317.71 953.59,-327.2 960.54,-328.07"/>
</a>
</g>
</g>
<!-- Node16&#45;&gt;Node14 -->
<g id="edge49_Node000016_Node000014" class="edge">
<title>Node16&#45;&gt;Node14</title>
<g id="a_edge49_Node000016_Node000014"><a xlink:title=" ">
<path fill="none" stroke="#63b8ff" d="M413.54,-525.9C436.07,-485.73 516.76,-341.86 546.97,-288"/>
<polygon fill="#63b8ff" stroke="#63b8ff" points="549.88,-289.97 551.72,-279.53 543.78,-286.54 549.88,-289.97"/>
</a>
</g>
</g>
<!-- Node17 -->
<g id="Node000017" class="node">
<title>Node17</title>
<g id="a_Node000017"><a xlink:href="../../df/d95/a00299.html#a67659f8a701b74f4dec0d36227a10d1c" target="_top" xlink:title="Display an error message window or print to stderr.">
<polygon fill="white" stroke="#666666" points="599.38,-546.82 519.62,-546.82 519.62,-526.07 599.38,-526.07 599.38,-546.82"/>
<text xml:space="preserve" text-anchor="middle" x="559.5" y="-533.32" font-family="Helvetica,sans-Serif" font-size="10.00">display_error</text>
</a>
</g>
</g>
<!-- Node16&#45;&gt;Node17 -->
<g id="edge26_Node000016_Node000017" class="edge">
<title>Node16&#45;&gt;Node17</title>
<g id="a_edge26_Node000016_Node000017"><a xlink:title=" ">
<path fill="none" stroke="#63b8ff" d="M438.16,-536.45C458.19,-536.45 484.87,-536.45 508.02,-536.45"/>
<polygon fill="#63b8ff" stroke="#63b8ff" points="507.89,-539.95 517.89,-536.45 507.89,-532.95 507.89,-539.95"/>
</a>
</g>
</g>
<!-- Node22 -->
<g id="Node000022" class="node">
<title>Node22</title>
<g id="a_Node000022"><a xlink:href="../../dc/d5d/a00278.html#a63eb94756fb011a456a3dec900709cd8" target="_top" xlink:title="ssnprintf was designed to be a safer alternative to snprintf.">
<polygon fill="white" stroke="#666666" points="990.12,-815.82 931.38,-815.82 931.38,-795.07 990.12,-795.07 990.12,-815.82"/>
<text xml:space="preserve" text-anchor="middle" x="960.75" y="-802.32" font-family="Helvetica,sans-Serif" font-size="10.00">ssnprintf</text>
</a>
</g>
</g>
<!-- Node16&#45;&gt;Node22 -->
<g id="edge50_Node000016_Node000022" class="edge">
<title>Node16&#45;&gt;Node22</title>
<g id="a_edge50_Node000016_Node000022"><a xlink:title=" ">
<path fill="none" stroke="#63b8ff" d="M409.23,-547.25C415.06,-583.49 437.99,-702.76 496.75,-779.45 550.19,-849.19 574.51,-866.87 658.25,-893.45 752.19,-923.26 789.9,-933.39 880,-893.45 910.96,-879.72 935.02,-847.38 948.29,-825.97"/>
<polygon fill="#63b8ff" stroke="#63b8ff" points="951.23,-827.88 953.3,-817.49 945.2,-824.32 951.23,-827.88"/>
</a>
</g>
</g>
<!-- Node17&#45;&gt;Node2 -->
<g id="edge27_Node000017_Node000002" class="edge">
<title>Node17&#45;&gt;Node2</title>
<g id="a_edge27_Node000017_Node000002"><a xlink:title=" ">
<path fill="none" stroke="#63b8ff" d="M578.22,-547.18C613,-568.62 692.01,-619.1 751.5,-670.45 769.11,-685.65 768.49,-695.04 787.5,-708.45 791.45,-711.23 795.85,-713.76 800.3,-716.01"/>
<polygon fill="#63b8ff" stroke="#63b8ff" points="798.71,-719.13 809.26,-720.1 801.62,-712.76 798.71,-719.13"/>
</a>
</g>
</g>
<!-- Node17&#45;&gt;Node10 -->
<g id="edge37_Node000017_Node000010" class="edge">
<title>Node17&#45;&gt;Node10</title>
<g id="a_edge37_Node000017_Node000010"><a xlink:title=" ">
<path fill="none" stroke="#63b8ff" d="M565.19,-525.82C576.98,-500.29 610.43,-435.05 658.25,-400.45 679.49,-385.08 837.03,-339.71 915.54,-317.7"/>
<polygon fill="#63b8ff" stroke="#63b8ff" points="916.38,-321.1 925.07,-315.04 914.49,-314.36 916.38,-321.1"/>
</a>
</g>
</g>
<!-- Node18 -->
<g id="Node000018" class="node">
<title>Node18</title>
<g id="a_Node000018"><a xlink:href="../../df/d95/a00299.html#a645871e46277e31736bc36d0f3dce4bd" target="_top" xlink:title="construct the chyron string from the chyron structure">
<polygon fill="white" stroke="#666666" points="751.5,-353.82 658.25,-353.82 658.25,-333.07 751.5,-333.07 751.5,-353.82"/>
<text xml:space="preserve" text-anchor="middle" x="704.88" y="-340.32" font-family="Helvetica,sans-Serif" font-size="10.00">compile_chyron</text>
</a>
</g>
</g>
<!-- Node17&#45;&gt;Node18 -->
<g id="edge28_Node000017_Node000018" class="edge">
<title>Node17&#45;&gt;Node18</title>
<g id="a_edge28_Node000017_Node000018"><a xlink:title=" ">
<path fill="none" stroke="#63b8ff" d="M564.31,-525.58C574.97,-496.55 607.65,-416.05 658.25,-367.45 661.11,-364.7 664.35,-362.18 667.75,-359.9"/>
<polygon fill="#63b8ff" stroke="#63b8ff" points="669.45,-362.96 676.28,-354.86 665.89,-356.93 669.45,-362.96"/>
</a>
</g>
</g>
<!-- Node19 -->
<g id="Node000019" class="node">
<title>Node19</title>
<g id="a_Node000019"><a xlink:href="../../df/d95/a00299.html#a3f3feb40fd703913c5c136331f627c91" target="_top" xlink:title="Destroy Chyron structure.">
<polygon fill="white" stroke="#666666" points="750.38,-507.82 659.38,-507.82 659.38,-487.07 750.38,-487.07 750.38,-507.82"/>
<text xml:space="preserve" text-anchor="middle" x="704.88" y="-494.32" font-family="Helvetica,sans-Serif" font-size="10.00">destroy_chyron</text>
</a>
</g>
</g>
<!-- Node17&#45;&gt;Node19 -->
<g id="edge30_Node000017_Node000019" class="edge">
<title>Node17&#45;&gt;Node19</title>
<g id="a_edge30_Node000017_Node000019"><a xlink:title=" ">
<path fill="none" stroke="#63b8ff" d="M599.68,-525.79C616.22,-521.29 635.68,-516 653.28,-511.21"/>
<polygon fill="#63b8ff" stroke="#63b8ff" points="654.06,-514.63 662.79,-508.62 652.22,-507.87 654.06,-514.63"/>
</a>
</g>
</g>
<!-- Node20 -->
<g id="Node000020" class="node">
<title>Node20</title>
<g id="a_Node000020"><a xlink:href="../../df/d95/a00299.html#ad37d5808ff30ae6894780425d865abae" target="_top" xlink:title="Create and initialize Chyron structure.">
<polygon fill="white" stroke="#666666" points="742.12,-699.82 667.62,-699.82 667.62,-679.07 742.12,-679.07 742.12,-699.82"/>
<text xml:space="preserve" text-anchor="middle" x="704.88" y="-686.32" font-family="Helvetica,sans-Serif" font-size="10.00">new_chyron</text>
</a>
</g>
</g>
<!-- Node17&#45;&gt;Node20 -->
<g id="edge31_Node000017_Node000020" class="edge">
<title>Node17&#45;&gt;Node20</title>
<g id="a_edge31_Node000017_Node000020"><a xlink:title=" ">
<path fill="none" stroke="#63b8ff" d="M566.33,-547.05C579.84,-570.81 615.39,-629.1 658.25,-665.45 661.44,-668.15 664.99,-670.67 668.66,-672.98"/>
<polygon fill="#63b8ff" stroke="#63b8ff" points="666.74,-675.92 677.16,-677.84 670.21,-669.84 666.74,-675.92"/>
</a>
</g>
</g>
<!-- Node21 -->
<g id="Node000021" class="node">
<title>Node21</title>
<g id="a_Node000021"><a xlink:href="../../df/d95/a00299.html#a208ce92c197fdd6d2b007987e534aa3b" target="_top" xlink:title="Set chyron key.">
<polygon fill="white" stroke="#666666" points="879.62,-777.82 787.88,-777.82 787.88,-757.07 879.62,-757.07 879.62,-777.82"/>
<text xml:space="preserve" text-anchor="middle" x="833.75" y="-764.32" font-family="Helvetica,sans-Serif" font-size="10.00">set_chyron_key</text>
</a>
</g>
</g>
<!-- Node17&#45;&gt;Node21 -->
<g id="edge33_Node000017_Node000021" class="edge">
<title>Node17&#45;&gt;Node21</title>
<g id="a_edge33_Node000017_Node000021"><a xlink:title=" ">
<path fill="none" stroke="#63b8ff" d="M563.58,-547.09C572.77,-577.03 602.89,-662.75 658.25,-708.45 676.95,-723.88 734.73,-741.73 778.73,-753.72"/>
<polygon fill="#63b8ff" stroke="#63b8ff" points="777.56,-757.03 788.12,-756.25 779.37,-750.27 777.56,-757.03"/>
</a>
</g>
</g>
<!-- Node17&#45;&gt;Node22 -->
<g id="edge35_Node000017_Node000022" class="edge">
<title>Node17&#45;&gt;Node22</title>
<g id="a_edge35_Node000017_Node000022"><a xlink:title=" ">
<path fill="none" stroke="#63b8ff" d="M562.59,-547.04C569.69,-580.42 596.08,-684.48 658.25,-740.45 731.87,-806.72 856.52,-811.15 920.02,-808.52"/>
<polygon fill="#63b8ff" stroke="#63b8ff" points="919.81,-812.03 929.62,-808.03 919.46,-805.04 919.81,-812.03"/>
</a>
</g>
</g>
<!-- Node23 -->
<g id="Node000023" class="node">
<title>Node23</title>
<g id="a_Node000023"><a xlink:href="../../dc/d5d/a00278.html#a636608f26d1193b5d860f2312cd8ee49" target="_top" xlink:title="terminates string at New Line, Carriage Return, or max_len">
<polygon fill="white" stroke="#666666" points="724.88,-468.82 684.88,-468.82 684.88,-448.07 724.88,-448.07 724.88,-468.82"/>
<text xml:space="preserve" text-anchor="middle" x="704.88" y="-455.32" font-family="Helvetica,sans-Serif" font-size="10.00">strnz</text>
</a>
</g>
</g>
<!-- Node17&#45;&gt;Node23 -->
<g id="edge36_Node000017_Node000023" class="edge">
<title>Node17&#45;&gt;Node23</title>
<g id="a_edge36_Node000017_Node000023"><a xlink:title=" ">
<path fill="none" stroke="#63b8ff" d="M577.1,-525.75C596.27,-513.59 628.93,-493.5 658.25,-478.45 663.28,-475.87 668.71,-473.3 674.01,-470.91"/>
<polygon fill="#63b8ff" stroke="#63b8ff" points="675.4,-474.12 683.15,-466.91 672.59,-467.71 675.4,-474.12"/>
</a>
</g>
</g>
<!-- Node24 -->
<g id="Node000024" class="node">
<title>Node24</title>
<g id="a_Node000024"><a xlink:href="../../df/d95/a00299.html#a9dd598e1d49c8764af1eec42c682623e" target="_top" xlink:title="Delete the current window and its associated box window.">
<polygon fill="white" stroke="#666666" points="731.62,-546.82 678.12,-546.82 678.12,-526.07 731.62,-526.07 731.62,-546.82"/>
<text xml:space="preserve" text-anchor="middle" x="704.88" y="-533.32" font-family="Helvetica,sans-Serif" font-size="10.00">win_del</text>
</a>
</g>
</g>
<!-- Node17&#45;&gt;Node24 -->
<g id="edge38_Node000017_Node000024" class="edge">
<title>Node17&#45;&gt;Node24</title>
<g id="a_edge38_Node000017_Node000024"><a xlink:title=" ">
<path fill="none" stroke="#63b8ff" d="M599.68,-536.45C620.47,-536.45 645.89,-536.45 666.42,-536.45"/>
<polygon fill="#63b8ff" stroke="#63b8ff" points="666.36,-539.95 676.36,-536.45 666.36,-532.95 666.36,-539.95"/>
</a>
</g>
</g>
<!-- Node25 -->
<g id="Node000025" class="node">
<title>Node25</title>
<g id="a_Node000025"><a xlink:href="../../df/d95/a00299.html#a435c7bff7ffedb8f51c6de9259e36f6c" target="_top" xlink:title="Create a new window with optional box and title.">
<polygon fill="white" stroke="#666666" points="734.25,-429.82 675.5,-429.82 675.5,-409.07 734.25,-409.07 734.25,-429.82"/>
<text xml:space="preserve" text-anchor="middle" x="704.88" y="-416.32" font-family="Helvetica,sans-Serif" font-size="10.00">win_new</text>
</a>
</g>
</g>
<!-- Node17&#45;&gt;Node25 -->
<g id="edge39_Node000017_Node000025" class="edge">
<title>Node17&#45;&gt;Node25</title>
<g id="a_edge39_Node000017_Node000025"><a xlink:title=" ">
<path fill="none" stroke="#63b8ff" d="M568.9,-525.83C584.66,-506.48 620.49,-465.13 658.25,-439.45 660.34,-438.02 662.55,-436.66 664.82,-435.37"/>
<polygon fill="#63b8ff" stroke="#63b8ff" points="666.37,-438.52 673.68,-430.85 663.18,-432.28 666.37,-438.52"/>
</a>
</g>
</g>
<!-- Node27 -->
<g id="Node000027" class="node">
<title>Node27</title>
<g id="a_Node000027"><a xlink:href="../../df/d95/a00299.html#acf4c709bccc4c965a5d61db978db31a3" target="_top" xlink:title="Wrapper for wgetch that handles signals and mouse events.">
<polygon fill="white" stroke="#666666" points="733.5,-585.82 676.25,-585.82 676.25,-565.07 733.5,-565.07 733.5,-585.82"/>
<text xml:space="preserve" text-anchor="middle" x="704.88" y="-572.32" font-family="Helvetica,sans-Serif" font-size="10.00">xwgetch</text>
</a>
</g>
</g>
<!-- Node17&#45;&gt;Node27 -->
<g id="edge42_Node000017_Node000027" class="edge">
<title>Node17&#45;&gt;Node27</title>
<g id="a_edge42_Node000017_Node000027"><a xlink:title=" ">
<path fill="none" stroke="#63b8ff" d="M599.68,-541.01C622.31,-546.18 650.42,-553.95 671.74,-560.97"/>
<polygon fill="#63b8ff" stroke="#63b8ff" points="670.48,-564.24 681.08,-564.17 672.75,-557.61 670.48,-564.24"/>
</a>
</g>
</g>
<!-- Node18&#45;&gt;Node11 -->
<g id="edge29_Node000018_Node000011" class="edge">
<title>Node18&#45;&gt;Node11</title>
<g id="a_edge29_Node000018_Node000011"><a xlink:title=" ">
<path fill="none" stroke="#63b8ff" d="M715.83,-333.01C737.13,-310.69 787.37,-258.02 814.54,-229.53"/>
<polygon fill="#63b8ff" stroke="#63b8ff" points="817.07,-231.95 821.44,-222.3 812.01,-227.12 817.07,-231.95"/>
</a>
</g>
</g>
<!-- Node20&#45;&gt;Node2 -->
<g id="edge32_Node000020_Node000002" class="edge">
<title>Node20&#45;&gt;Node2</title>
<g id="a_edge32_Node000020_Node000002"><a xlink:title=" ">
<path fill="none" stroke="#63b8ff" d="M741.22,-700.31C759.47,-705.92 781.61,-712.73 799.54,-718.24"/>
<polygon fill="#63b8ff" stroke="#63b8ff" points="798.33,-721.53 808.91,-721.12 800.38,-714.84 798.33,-721.53"/>
</a>
</g>
</g>
<!-- Node21&#45;&gt;Node22 -->
<g id="edge34_Node000021_Node000022" class="edge">
<title>Node21&#45;&gt;Node22</title>
<g id="a_edge34_Node000021_Node000022"><a xlink:title=" ">
<path fill="none" stroke="#63b8ff" d="M870.24,-778.23C885.84,-782.98 904.22,-788.56 920.25,-793.44"/>
<polygon fill="#63b8ff" stroke="#63b8ff" points="918.88,-796.68 929.46,-796.24 920.91,-789.98 918.88,-796.68"/>
</a>
</g>
</g>
<!-- Node25&#45;&gt;Node10 -->
<g id="edge41_Node000025_Node000010" class="edge">
<title>Node25&#45;&gt;Node10</title>
<g id="a_edge41_Node000025_Node000010"><a xlink:title=" ">
<path fill="none" stroke="#63b8ff" d="M734.55,-421.38C770.66,-422.55 833.59,-420.28 880,-395.45 910.08,-379.35 934.25,-347.14 947.8,-325.94"/>
<polygon fill="#63b8ff" stroke="#63b8ff" points="950.7,-327.91 952.94,-317.56 944.73,-324.25 950.7,-327.91"/>
</a>
</g>
</g>
<!-- Node26 -->
<g id="Node000026" class="node">
<title>Node26</title>
<g id="a_Node000026"><a xlink:href="../../df/d95/a00299.html#ac9adcf7339be4a05ab1a7350c236b8a5" target="_top" xlink:title="Draw a box around the specified window.">
<polygon fill="white" stroke="#666666" points="853.38,-467.82 814.12,-467.82 814.12,-447.07 853.38,-447.07 853.38,-467.82"/>
<text xml:space="preserve" text-anchor="middle" x="833.75" y="-454.32" font-family="Helvetica,sans-Serif" font-size="10.00">cbox</text>
</a>
</g>
</g>
<!-- Node25&#45;&gt;Node26 -->
<g id="edge40_Node000025_Node000026" class="edge">
<title>Node25&#45;&gt;Node26</title>
<g id="a_edge40_Node000025_Node000026"><a xlink:title=" ">
<path fill="none" stroke="#63b8ff" d="M734.66,-428.07C755.05,-434.17 782.32,-442.34 802.93,-448.52"/>
<polygon fill="#63b8ff" stroke="#63b8ff" points="801.87,-451.85 812.46,-451.37 803.88,-445.15 801.87,-451.85"/>
</a>
</g>
</g>
<!-- Node27&#45;&gt;Node17 -->
<g id="edge43_Node000027_Node000017" class="edge">
<title>Node27&#45;&gt;Node17</title>
<g id="a_edge43_Node000027_Node000017"><a xlink:title=" ">
<path fill="none" stroke="#63b8ff" d="M675.85,-573.31C651.99,-568.41 617.71,-559.17 592.72,-550.95"/>
<polygon fill="#63b8ff" stroke="#63b8ff" points="593.99,-547.69 583.4,-547.76 591.72,-554.31 593.99,-547.69"/>
</a>
</g>
</g>
<!-- Node28 -->
<g id="Node000028" class="node">
<title>Node28</title>
<g id="a_Node000028"><a xlink:href="../../df/d95/a00299.html#a4298f891699300bfc4e6e56fd2a8d574" target="_top" xlink:title="Get keycode from chyron.">
<polygon fill="white" stroke="#666666" points="880,-585.82 787.5,-585.82 787.5,-565.07 880,-565.07 880,-585.82"/>
<text xml:space="preserve" text-anchor="middle" x="833.75" y="-572.32" font-family="Helvetica,sans-Serif" font-size="10.00">get_chyron_key</text>
</a>
</g>
</g>
<!-- Node27&#45;&gt;Node28 -->
<g id="edge44_Node000027_Node000028" class="edge">
<title>Node27&#45;&gt;Node28</title>
<g id="a_edge44_Node000027_Node000028"><a xlink:title=" ">
<path fill="none" stroke="#63b8ff" d="M733.72,-575.45C746.04,-575.45 761,-575.45 775.53,-575.45"/>
<polygon fill="#63b8ff" stroke="#63b8ff" points="775.51,-578.95 785.51,-575.45 775.51,-571.95 775.51,-578.95"/>
</a>
</g>
</g>
<!-- Node29 -->
<g id="Node000029" class="node">
<title>Node29</title>
<g id="a_Node000029"><a xlink:href="../../d1/da8/a00230.html#a79c3e22498eb2346543aa9c86fd22e58" target="_top" xlink:title="Handle received signals and prompt user for action.">
<polygon fill="white" stroke="#666666" points="875.5,-699.82 792,-699.82 792,-679.07 875.5,-679.07 875.5,-699.82"/>
<text xml:space="preserve" text-anchor="middle" x="833.75" y="-686.32" font-family="Helvetica,sans-Serif" font-size="10.00">handle_signal</text>
</a>
</g>
</g>
<!-- Node27&#45;&gt;Node29 -->
<g id="edge45_Node000027_Node000029" class="edge">
<title>Node27&#45;&gt;Node29</title>
<g id="a_edge45_Node000027_Node000029"><a xlink:title=" ">
<path fill="none" stroke="#63b8ff" d="M717.58,-585.97C739.19,-605.38 785.56,-647.05 812.41,-671.17"/>
<polygon fill="#63b8ff" stroke="#63b8ff" points="809.8,-673.53 819.57,-677.61 814.47,-668.32 809.8,-673.53"/>
</a>
</g>
</g>
<!-- Node29&#45;&gt;Node4 -->
<g id="edge46_Node000029_Node000004" class="edge">
<title>Node29&#45;&gt;Node4</title>
<g id="a_edge46_Node000029_Node000004"><a xlink:title=" ">
<path fill="none" stroke="#63b8ff" d="M875.93,-681.56C888.72,-679.46 902.9,-677.49 916,-676.45 955.65,-673.29 965.84,-673.36 1005.5,-676.45 1013.48,-677.07 1021.82,-677.99 1030.06,-679.08"/>
<polygon fill="#63b8ff" stroke="#63b8ff" points="1029.32,-682.51 1039.71,-680.44 1030.29,-675.58 1029.32,-682.51"/>
</a>
</g>
</g>
<!-- Node29&#45;&gt;Node10 -->
<g id="edge48_Node000029_Node000010" class="edge">
<title>Node29&#45;&gt;Node10</title>
<g id="a_edge48_Node000029_Node000010"><a xlink:title=" ">
<path fill="none" stroke="#63b8ff" d="M863.86,-678.78C869.96,-675.35 875.8,-670.97 880,-665.45 921.43,-611.02 949.26,-396.6 957.33,-327.23"/>
<polygon fill="#63b8ff" stroke="#63b8ff" points="960.78,-327.87 958.43,-317.54 953.82,-327.08 960.78,-327.87"/>
</a>
</g>
</g>
<!-- Node29&#45;&gt;Node22 -->
<g id="edge47_Node000029_Node000022" class="edge">
<title>Node29&#45;&gt;Node22</title>
<g id="a_edge47_Node000029_Node000022"><a xlink:title=" ">
<path fill="none" stroke="#63b8ff" d="M864.58,-700.27C869.96,-702.87 875.34,-705.93 880,-709.45 895.04,-720.81 926.49,-761.09 945.08,-785.71"/>
<polygon fill="#63b8ff" stroke="#63b8ff" points="942.25,-787.78 951.05,-793.68 947.85,-783.58 942.25,-787.78"/>
</a>
</g>
</g>
<!-- Node30&#45;&gt;Node9 -->
<g id="edge53_Node000030_Node000009" class="edge">
<title>Node30&#45;&gt;Node9</title>
<g id="a_edge53_Node000030_Node000009"><a xlink:title=" ">
<path fill="none" stroke="#63b8ff" d="M418,-295C443.3,-269.51 508.45,-203.87 540.35,-171.73"/>
<polygon fill="#63b8ff" stroke="#63b8ff" points="542.43,-174.6 546.99,-165.04 537.46,-169.67 542.43,-174.6"/>
</a>
</g>
</g>
<!-- Node30&#45;&gt;Node10 -->
<g id="edge57_Node000030_Node000010" class="edge">
<title>Node30&#45;&gt;Node10</title>
<g id="a_edge57_Node000030_Node000010"><a xlink:title=" ">
<path fill="none" stroke="#63b8ff" d="M439.7,-305.45C533.42,-305.45 807.05,-305.45 915.11,-305.45"/>
<polygon fill="#63b8ff" stroke="#63b8ff" points="915.03,-308.95 925.03,-305.45 915.03,-301.95 915.03,-308.95"/>
</a>
</g>
</g>
<!-- Node30&#45;&gt;Node14 -->
<g id="edge55_Node000030_Node000014" class="edge">
<title>Node30&#45;&gt;Node14</title>
<g id="a_edge55_Node000030_Node000014"><a xlink:title=" ">
<path fill="none" stroke="#63b8ff" d="M439.62,-297.39C459.6,-292.36 485.75,-285.77 508.43,-280.06"/>
<polygon fill="#63b8ff" stroke="#63b8ff" points="509.27,-283.45 518.12,-277.62 507.56,-276.67 509.27,-283.45"/>
</a>
</g>
</g>
<!-- Node30&#45;&gt;Node17 -->
<g id="edge54_Node000030_Node000017" class="edge">
<title>Node30&#45;&gt;Node17</title>
<g id="a_edge54_Node000030_Node000017"><a xlink:title=" ">
<path fill="none" stroke="#63b8ff" d="M414.7,-316.28C438.26,-352.35 514.32,-468.8 545.24,-516.15"/>
<polygon fill="#63b8ff" stroke="#63b8ff" points="542.21,-517.91 550.61,-524.37 548.07,-514.08 542.21,-517.91"/>
</a>
</g>
</g>
<!-- Node30&#45;&gt;Node22 -->
<g id="edge56_Node000030_Node000022" class="edge">
<title>Node30&#45;&gt;Node22</title>
<g id="a_edge56_Node000030_Node000022"><a xlink:title=" ">
<path fill="none" stroke="#63b8ff" d="M409.61,-316.02C421.1,-374.05 484.71,-655.66 658.25,-779.45 736.81,-835.48 857.83,-824.5 919.95,-813.81"/>
<polygon fill="#63b8ff" stroke="#63b8ff" points="920.5,-817.27 929.71,-812.04 919.25,-810.38 920.5,-817.27"/>
</a>
</g>
</g>
</g>
</svg>

<g id="navigator" transform="translate(0 0)" fill="#404254">
  <rect fill="#f2f5e9" fill-opacity="0.5" stroke="#606060" stroke-width=".5" x="0" y="0" width="60" height="60"/>
  <use id="zoomplus" xlink:href="#zoomPlus" x="17" y="9" onmousedown="handleZoom(evt,'in')"/>
  <use id="zoomminus" xlink:href="#zoomMin" x="42" y="9" onmousedown="handleZoom(evt,'out')"/>
  <use id="reset" xlink:href="#resetDef" x="30" y="36" onmousedown="handleReset()"/>
   <use id="arrowup" xlink:href="#arrowUp" x="0" y="0" onmousedown="handlePan(0,-1)"/>
  <use id="arrowright" xlink:href="#arrowRight" x="0" y="0" onmousedown="handlePan(1,0)"/>
  <use id="arrowdown" xlink:href="#arrowDown" x="0" y="0" onmousedown="handlePan(0,1)"/>
  <use id="arrowleft" xlink:href="#arrowLeft" x="0" y="0" onmousedown="handlePan(-1,0)"/>
</g>
<svg viewBox="0 0 15 15" width="100%" height="30px" preserveAspectRatio="xMaxYMin meet">
 <g id="arrow_out" transform="scale(0.3 0.3)">
  <a xlink:href="a00323_a49f4db4f0beccaa0a2d32df3b526a7fe_cgraph_org.svg" target="_base">
   <rect id="button" ry="5" rx="5" y="6" x="6" height="38" width="38"
        fill="#f2f5e9" fill-opacity="0.5" stroke="#606060" stroke-width="1.0"/>
   <path id="arrow"
     d="M 11.500037,31.436501 C 11.940474,20.09759 22.043105,11.32322 32.158766,21.979434 L 37.068811,17.246167 C 37.068811,17.246167 37.088388,32 37.088388,32 L 22.160133,31.978069 C 22.160133,31.978069 26.997745,27.140456 26.997745,27.140456 C 18.528582,18.264221 13.291696,25.230495 11.500037,31.436501 z"
     style="fill:#404040;"/>
  </a>
 </g>
</svg>

<style type='text/css'>
<![CDATA[
[data-mouse-over-selected='false'] { opacity: 0.7; }
[data-mouse-over-selected='true']  { opacity: 1.0; }
]]>
</style>
<script type="application/ecmascript"><![CDATA[
document.addEventListener('DOMContentLoaded', (event) => {
  highlightEdges();
  highlightAdjacentNodes();
});
]]></script>
</svg>
