<?xml version="1.0" encoding="UTF-8" standalone="no"?>
<!DOCTYPE svg PUBLIC "-//W3C//DTD SVG 1.1//EN"
 "http://www.w3.org/Graphics/SVG/1.1/DTD/svg11.dtd">
<!-- Generated by graphviz version 14.1.2 (0)
 -->
<!-- Title: new_view Pages: 1 -->
<!--zoomable 314 -->

<svg id="main" version="1.1" xmlns="http://www.w3.org/2000/svg" xmlns:xlink="http://www.w3.org/1999/xlink" xml:space="preserve" onload="init(evt)">

<style type="text/css"><![CDATA[
.node, .edge {opacity: 0.7;}
.node.selected, .edge.selected {opacity: 1;}
.edge:hover path { stroke: red; }
.edge:hover polygon { stroke: red; fill: red; }
]]></style>

<defs>
  <circle id="rim" cx="0" cy="0" r="7"/>
  <circle id="rim2" cx="0" cy="0" r="3.5"/>
  <g id="zoomPlus">
    <use xlink:href="#rim" fill="#404040"><set attributeName="fill" to="#808080" begin="zoomplus.mouseover" end="zoomplus.mouseout"/></use>
    <path d="M-4,0h8M0,-4v8" fill="none" stroke="white" stroke-width="1.5" pointer-events="none"/>
  </g>
  <g id="zoomMin">
    <use xlink:href="#rim" fill="#404040"><set attributeName="fill" to="#808080" begin="zoomminus.mouseover" end="zoomminus.mouseout"/></use>
    <path d="M-4,0h8" fill="none" stroke="white" stroke-width="1.5" pointer-events="none"/>
  </g>
  <g id="arrowUp" transform="translate(30 24)">
    <use xlink:href="#rim"/>
    <path pointer-events="none" fill="none" stroke="white" stroke-width="1.5" d="M0,-3.0v7 M-2.5,-0.5L0,-3.0L2.5,-0.5"/>
  </g>
  <g id="arrowRight" transform="rotate(90) translate(36 -43)">
    <use xlink:href="#rim"/>
    <path pointer-events="none" fill="none" stroke="white" stroke-width="1.5" d="M0,-3.0v7 M-2.5,-0.5L0,-3.0L2.5,-0.5"/>
  </g>
  <g id="arrowDown" transform="rotate(180) translate(-30 -48)">
    <use xlink:href="#rim"/>
    <path pointer-events="none" fill="none" stroke="white" stroke-width="1.5" d="M0,-3.0v7 M-2.5,-0.5L0,-3.0L2.5,-0.5"/>
  </g>
  <g id="arrowLeft" transform="rotate(270) translate(-36 17)">
    <use xlink:href="#rim"/>
    <path pointer-events="none" fill="none" stroke="white" stroke-width="1.5" d="M0,-3.0v7 M-2.5,-0.5L0,-3.0L2.5,-0.5"/>
  </g>
  <g id="resetDef">
    <use xlink:href="#rim2" fill="#404040"><set attributeName="fill" to="#808080" begin="reset.mouseover" end="reset.mouseout"/></use>
  </g>
</defs>
<script type="application/ecmascript">
var viewWidth = 1072;
var viewHeight = 314;
var sectionId = 'dynsection-34';
</script>
<script type="application/ecmascript" xlink:href="../../svg.min.js"/>
<svg id="graph" class="graph">
<g id="viewport">
<title>new_view</title>
<!-- Node1 -->
<g id="Node000001" class="node">
<title>Node1</title>
<g id="a_Node000001"><a xlink:title="Create and initialize View structure.">
<polygon fill="#999999" stroke="#666666" points="1064.25,-240.38 999.5,-240.38 999.5,-219.62 1064.25,-219.62 1064.25,-240.38"/>
<text xml:space="preserve" text-anchor="middle" x="1031.88" y="-226.88" font-family="Helvetica,sans-Serif" font-size="10.00">new_view</text>
</a>
</g>
</g>
<!-- Node2 -->
<g id="Node000002" class="node">
<title>Node2</title>
<g id="a_Node000002"><a xlink:href="../../d5/ddf/a00224.html#a3c04138a5bfe5d72780bb7e82a18e627" target="_top" xlink:title=" ">
<polygon fill="white" stroke="#666666" points="138.12,-278.38 97.38,-278.38 97.38,-257.62 138.12,-257.62 138.12,-278.38"/>
<text xml:space="preserve" text-anchor="middle" x="117.75" y="-264.88" font-family="Helvetica,sans-Serif" font-size="10.00">main</text>
</a>
</g>
</g>
<!-- Node1&#45;&gt;Node2 -->
<g id="edge1_Node000001_Node000002" class="edge">
<title>Node1&#45;&gt;Node2</title>
<g id="a_edge1_Node000001_Node000002"><a xlink:title=" ">
<path fill="none" stroke="#63b8ff" d="M1004.94,-246.6C967.44,-268.97 895.21,-306 828,-306 828,-306 828,-306 411.25,-306 307.81,-306 185.49,-282.34 138.5,-272.36"/>
<polygon fill="#63b8ff" stroke="#63b8ff" points="1006.56,-249.72 1013.27,-241.52 1002.91,-243.74 1006.56,-249.72"/>
</a>
</g>
</g>
<!-- Node3 -->
<g id="Node000003" class="node">
<title>Node3</title>
<g id="a_Node000003"><a xlink:href="../../d7/d03/a00254.html#a75a4e7afc9c9aafd3d35ab706f5fdc71" target="_top" xlink:title="subprogram entry point for C&#45;Menu View">
<polygon fill="white" stroke="#666666" points="963.5,-183.38 914.5,-183.38 914.5,-162.62 963.5,-162.62 963.5,-183.38"/>
<text xml:space="preserve" text-anchor="middle" x="939" y="-169.88" font-family="Helvetica,sans-Serif" font-size="10.00">mview</text>
</a>
</g>
</g>
<!-- Node1&#45;&gt;Node3 -->
<g id="edge2_Node000001_Node000003" class="edge">
<title>Node1&#45;&gt;Node3</title>
<g id="a_edge2_Node000001_Node000003"><a xlink:title=" ">
<path fill="none" stroke="#63b8ff" d="M1004.4,-213.39C989.23,-203.88 970.63,-192.21 957.33,-183.87"/>
<polygon fill="#63b8ff" stroke="#63b8ff" points="1002.17,-216.13 1012.5,-218.47 1005.89,-210.2 1002.17,-216.13"/>
</a>
</g>
</g>
<!-- Node3&#45;&gt;Node2 -->
<g id="edge23_Node000003_Node000002" class="edge">
<title>Node3&#45;&gt;Node2</title>
<g id="a_edge23_Node000003_Node000002"><a xlink:title=" ">
<path fill="none" stroke="#63b8ff" d="M920.59,-191.45C909.5,-202.17 894.3,-215.07 878.5,-223 800.55,-262.12 774.71,-268 687.5,-268 687.5,-268 687.5,-268 411.25,-268 308.67,-268 185.86,-268 138.61,-268"/>
<polygon fill="#63b8ff" stroke="#63b8ff" points="922.9,-194.1 927.46,-184.54 917.93,-189.17 922.9,-194.1"/>
</a>
</g>
</g>
<!-- Node4 -->
<g id="Node000004" class="node">
<title>Node4</title>
<g id="a_Node000004"><a xlink:href="../../d0/d27/a00239.html#aeebc4c0b94ca97d753e10a0cd1798730" target="_top" xlink:title="Displays the help screen for the pick interface using mview.">
<polygon fill="white" stroke="#666666" points="878.5,-125.38 775.5,-125.38 775.5,-104.62 878.5,-104.62 878.5,-125.38"/>
<text xml:space="preserve" text-anchor="middle" x="827" y="-111.88" font-family="Helvetica,sans-Serif" font-size="10.00">display_pick_help</text>
</a>
</g>
</g>
<!-- Node3&#45;&gt;Node4 -->
<g id="edge3_Node000003_Node000004" class="edge">
<title>Node3&#45;&gt;Node4</title>
<g id="a_edge3_Node000003_Node000004"><a xlink:title=" ">
<path fill="none" stroke="#63b8ff" d="M913.48,-155.84C902.98,-148.89 890.41,-141.09 878.5,-135 872.04,-131.69 864.89,-128.57 858.06,-125.81"/>
<polygon fill="#63b8ff" stroke="#63b8ff" points="911.32,-158.61 921.57,-161.31 915.24,-152.81 911.32,-158.61"/>
</a>
</g>
</g>
<!-- Node9 -->
<g id="Node000009" class="node">
<title>Node9</title>
<g id="a_Node000009"><a xlink:href="../../d9/d39/a00257.html#aa5d0e30e7036b72b51c843d0a7e486a1" target="_top" xlink:title="Processes user input for the menu system.">
<polygon fill="white" stroke="#666666" points="317.25,-48.38 194.75,-48.38 194.75,-27.62 317.25,-27.62 317.25,-48.38"/>
<text xml:space="preserve" text-anchor="middle" x="256" y="-34.88" font-family="Helvetica,sans-Serif" font-size="10.00">menu_cmd_processor</text>
</a>
</g>
</g>
<!-- Node3&#45;&gt;Node9 -->
<g id="edge24_Node000003_Node000009" class="edge">
<title>Node3&#45;&gt;Node9</title>
<g id="a_edge24_Node000003_Node000009"><a xlink:title=" ">
<path fill="none" stroke="#63b8ff" d="M932.51,-151.28C924.8,-125.15 908.25,-81.73 878.5,-57 810.37,-0.38 776.09,0 687.5,0 687.5,0 687.5,0 551.38,0 465.96,0 367.75,-15.93 309.12,-27.16"/>
<polygon fill="#63b8ff" stroke="#63b8ff" points="929.1,-152.07 935.13,-160.79 935.85,-150.22 929.1,-152.07"/>
</a>
</g>
</g>
<!-- Node12 -->
<g id="Node000012" class="node">
<title>Node12</title>
<g id="a_Node000012"><a xlink:href="../../d0/d27/a00239.html#af7fcbb1c8b67a4d11c86ba7209f397c2" target="_top" xlink:title="Executes specified command with selected objects as arguments.">
<polygon fill="white" stroke="#666666" points="866.88,-164.38 787.12,-164.38 787.12,-143.62 866.88,-143.62 866.88,-164.38"/>
<text xml:space="preserve" text-anchor="middle" x="827" y="-150.88" font-family="Helvetica,sans-Serif" font-size="10.00">exec_objects</text>
</a>
</g>
</g>
<!-- Node3&#45;&gt;Node12 -->
<g id="edge12_Node000003_Node000012" class="edge">
<title>Node3&#45;&gt;Node12</title>
<g id="a_edge12_Node000003_Node000012"><a xlink:title=" ">
<path fill="none" stroke="#63b8ff" d="M902.8,-166.92C891.38,-164.95 878.64,-162.75 866.96,-160.73"/>
<polygon fill="#63b8ff" stroke="#63b8ff" points="902.19,-170.37 912.64,-168.62 903.38,-163.47 902.19,-170.37"/>
</a>
</g>
</g>
<!-- Node13 -->
<g id="Node000013" class="node">
<title>Node13</title>
<g id="a_Node000013"><a xlink:href="../../d2/d04/a00281.html#ada302551bf41bf8ed6132fd34328a47e" target="_top" xlink:title="Form main processing loop.">
<polygon fill="white" stroke="#666666" points="865.75,-86.38 788.25,-86.38 788.25,-65.62 865.75,-65.62 865.75,-86.38"/>
<text xml:space="preserve" text-anchor="middle" x="827" y="-72.88" font-family="Helvetica,sans-Serif" font-size="10.00">form_engine</text>
</a>
</g>
</g>
<!-- Node3&#45;&gt;Node13 -->
<g id="edge14_Node000003_Node000013" class="edge">
<title>Node3&#45;&gt;Node13</title>
<g id="a_edge14_Node000003_Node000013"><a xlink:title=" ">
<path fill="none" stroke="#63b8ff" d="M926.58,-152.69C916.05,-135.54 898.96,-111.39 878.5,-96 873.75,-92.43 868.28,-89.4 862.74,-86.87"/>
<polygon fill="#63b8ff" stroke="#63b8ff" points="923.4,-154.19 931.5,-161.02 929.43,-150.63 923.4,-154.19"/>
</a>
</g>
</g>
<!-- Node19 -->
<g id="Node000019" class="node">
<title>Node19</title>
<g id="a_Node000019"><a xlink:href="../../dd/d52/a00221.html#ad997ba9f8591568c77291fb1b44601b2" target="_top" xlink:title="Display View Help File.">
<polygon fill="white" stroke="#666666" points="739.5,-202.38 633.5,-202.38 633.5,-181.62 739.5,-181.62 739.5,-202.38"/>
<text xml:space="preserve" text-anchor="middle" x="686.5" y="-188.88" font-family="Helvetica,sans-Serif" font-size="10.00">view_display_help</text>
</a>
</g>
</g>
<!-- Node3&#45;&gt;Node19 -->
<g id="edge25_Node000003_Node000019" class="edge">
<title>Node3&#45;&gt;Node19</title>
<g id="a_edge25_Node000003_Node000019"><a xlink:title=" ">
<path fill="none" stroke="#63b8ff" d="M903.05,-175.65C860.68,-178.86 788.86,-184.31 739.87,-188.03"/>
<polygon fill="#63b8ff" stroke="#63b8ff" points="903.22,-179.15 912.92,-174.9 902.69,-172.17 903.22,-179.15"/>
</a>
</g>
</g>
<!-- Node5 -->
<g id="Node000005" class="node">
<title>Node5</title>
<g id="a_Node000005"><a xlink:href="../../d0/d27/a00239.html#abb0969a6d1c7e78be46c3b325754c802" target="_top" xlink:title="Main loop to handle user input and interactions for pick interface.">
<polygon fill="white" stroke="#666666" points="709.12,-126.38 663.88,-126.38 663.88,-105.62 709.12,-105.62 709.12,-126.38"/>
<text xml:space="preserve" text-anchor="middle" x="686.5" y="-112.88" font-family="Helvetica,sans-Serif" font-size="10.00">picker</text>
</a>
</g>
</g>
<!-- Node4&#45;&gt;Node5 -->
<g id="edge4_Node000004_Node000005" class="edge">
<title>Node4&#45;&gt;Node5</title>
<g id="a_edge4_Node000004_Node000005"><a xlink:title=" ">
<path fill="none" stroke="#63b8ff" d="M763.86,-115.45C744.34,-115.59 724.07,-115.74 709.32,-115.84"/>
<polygon fill="#63b8ff" stroke="#63b8ff" points="763.73,-118.95 773.7,-115.38 763.68,-111.95 763.73,-118.95"/>
</a>
</g>
</g>
<!-- Node6 -->
<g id="Node000006" class="node">
<title>Node6</title>
<g id="a_Node000006"><a xlink:href="../../d0/d27/a00239.html#ab97dcab41017c5132f52b682437a151e" target="_top" xlink:title="Initializes pick interface, calculates window size and position, and enters picker loop.">
<polygon fill="white" stroke="#666666" points="589.62,-164.38 515.12,-164.38 515.12,-143.62 589.62,-143.62 589.62,-164.38"/>
<text xml:space="preserve" text-anchor="middle" x="552.38" y="-150.88" font-family="Helvetica,sans-Serif" font-size="10.00">pick_engine</text>
</a>
</g>
</g>
<!-- Node5&#45;&gt;Node6 -->
<g id="edge5_Node000005_Node000006" class="edge">
<title>Node5&#45;&gt;Node6</title>
<g id="a_edge5_Node000005_Node000006"><a xlink:title=" ">
<path fill="none" stroke="#63b8ff" d="M652.56,-125.47C633.57,-130.94 609.65,-137.82 590.06,-143.45"/>
<polygon fill="#63b8ff" stroke="#63b8ff" points="653.29,-128.91 661.93,-122.78 651.35,-122.18 653.29,-128.91"/>
</a>
</g>
</g>
<!-- Node7 -->
<g id="Node000007" class="node">
<title>Node7</title>
<g id="a_Node000007"><a xlink:href="../../d0/d27/a00239.html#a1b2ee87543245e612c1710ea58930a17" target="_top" xlink:title="Initializes pick structure and opens pick input file or pipe.">
<polygon fill="white" stroke="#666666" points="440.88,-125.38 383.62,-125.38 383.62,-104.62 440.88,-104.62 440.88,-125.38"/>
<text xml:space="preserve" text-anchor="middle" x="412.25" y="-111.88" font-family="Helvetica,sans-Serif" font-size="10.00">init_pick</text>
</a>
</g>
</g>
<!-- Node6&#45;&gt;Node7 -->
<g id="edge6_Node000006_Node000007" class="edge">
<title>Node6&#45;&gt;Node7</title>
<g id="a_edge6_Node000006_Node000007"><a xlink:title=" ">
<path fill="none" stroke="#63b8ff" d="M503.82,-140.57C482.99,-134.69 459.25,-127.99 441.31,-122.92"/>
<polygon fill="#63b8ff" stroke="#63b8ff" points="502.69,-143.89 513.27,-143.24 504.59,-137.15 502.69,-143.89"/>
</a>
</g>
</g>
<!-- Node8 -->
<g id="Node000008" class="node">
<title>Node8</title>
<g id="a_Node000008"><a xlink:href="../../d2/dc8/a00242.html#a3c04138a5bfe5d72780bb7e82a18e627" target="_top" xlink:title=" ">
<polygon fill="white" stroke="#666666" points="276.38,-125.38 235.62,-125.38 235.62,-104.62 276.38,-104.62 276.38,-125.38"/>
<text xml:space="preserve" text-anchor="middle" x="256" y="-111.88" font-family="Helvetica,sans-Serif" font-size="10.00">main</text>
</a>
</g>
</g>
<!-- Node7&#45;&gt;Node8 -->
<g id="edge7_Node000007_Node000008" class="edge">
<title>Node7&#45;&gt;Node8</title>
<g id="a_edge7_Node000007_Node000008"><a xlink:title=" ">
<path fill="none" stroke="#63b8ff" d="M372.17,-115C341.59,-115 300.36,-115 276.43,-115"/>
<polygon fill="#63b8ff" stroke="#63b8ff" points="371.8,-118.5 381.8,-115 371.8,-111.5 371.8,-118.5"/>
</a>
</g>
</g>
<!-- Node7&#45;&gt;Node9 -->
<g id="edge8_Node000007_Node000009" class="edge">
<title>Node7&#45;&gt;Node9</title>
<g id="a_edge8_Node000007_Node000009"><a xlink:title=" ">
<path fill="none" stroke="#63b8ff" d="M379.47,-99.14C349.35,-84.1 304.91,-61.92 278.66,-48.81"/>
<polygon fill="#63b8ff" stroke="#63b8ff" points="377.61,-102.12 388.12,-103.46 380.74,-95.86 377.61,-102.12"/>
</a>
</g>
</g>
<!-- Node10 -->
<g id="Node000010" class="node">
<title>Node10</title>
<g id="a_Node000010"><a xlink:href="../../d9/d39/a00257.html#a7d7973d7aac92759dcc86ec52bb038f4" target="_top" xlink:title="The main loop of the menu system.">
<polygon fill="white" stroke="#666666" points="158.75,-48.38 76.75,-48.38 76.75,-27.62 158.75,-27.62 158.75,-48.38"/>
<text xml:space="preserve" text-anchor="middle" x="117.75" y="-34.88" font-family="Helvetica,sans-Serif" font-size="10.00">menu_engine</text>
</a>
</g>
</g>
<!-- Node9&#45;&gt;Node10 -->
<g id="edge9_Node000009_Node000010" class="edge">
<title>Node9&#45;&gt;Node10</title>
<g id="a_edge9_Node000009_Node000010"><a xlink:title=" ">
<path fill="none" stroke="#63b8ff" d="M183.2,-31.26C174.96,-31.3 166.79,-31.47 159.17,-31.77"/>
<polygon fill="#63b8ff" stroke="#63b8ff" points="182.92,-34.76 192.93,-31.28 182.94,-27.76 182.92,-34.76"/>
</a>
</g>
</g>
<!-- Node10&#45;&gt;Node9 -->
<g id="edge11_Node000010_Node000009" class="edge">
<title>Node10&#45;&gt;Node9</title>
<g id="a_edge11_Node000010_Node000009"><a xlink:title=" ">
<path fill="none" stroke="#63b8ff" d="M170.68,-44.58C178.45,-44.75 186.52,-44.79 194.45,-44.71"/>
<polygon fill="#63b8ff" stroke="#63b8ff" points="170.79,-41.08 160.69,-44.27 170.58,-48.08 170.79,-41.08"/>
</a>
</g>
</g>
<!-- Node11 -->
<g id="Node000011" class="node">
<title>Node11</title>
<g id="a_Node000011"><a xlink:href="../../dd/dd7/a00260.html#a3c04138a5bfe5d72780bb7e82a18e627" target="_top" xlink:title=" ">
<polygon fill="white" stroke="#666666" points="40.75,-48.38 0,-48.38 0,-27.62 40.75,-27.62 40.75,-48.38"/>
<text xml:space="preserve" text-anchor="middle" x="20.38" y="-34.88" font-family="Helvetica,sans-Serif" font-size="10.00">main</text>
</a>
</g>
</g>
<!-- Node10&#45;&gt;Node11 -->
<g id="edge10_Node000010_Node000011" class="edge">
<title>Node10&#45;&gt;Node11</title>
<g id="a_edge10_Node000010_Node000011"><a xlink:title=" ">
<path fill="none" stroke="#63b8ff" d="M64.79,-38C56.36,-38 48.1,-38 41.09,-38"/>
<polygon fill="#63b8ff" stroke="#63b8ff" points="64.79,-41.5 74.79,-38 64.79,-34.5 64.79,-41.5"/>
</a>
</g>
</g>
<!-- Node12&#45;&gt;Node6 -->
<g id="edge13_Node000012_Node000006" class="edge">
<title>Node12&#45;&gt;Node6</title>
<g id="a_edge13_Node000012_Node000006"><a xlink:title=" ">
<path fill="none" stroke="#63b8ff" d="M775.32,-154C721.53,-154 637.86,-154 590.09,-154"/>
<polygon fill="#63b8ff" stroke="#63b8ff" points="775.14,-157.5 785.14,-154 775.14,-150.5 775.14,-157.5"/>
</a>
</g>
</g>
<!-- Node14 -->
<g id="Node000014" class="node">
<title>Node14</title>
<g id="a_Node000014"><a xlink:href="../../d2/d04/a00281.html#abf1be20a8aad5f7ba09172ac1434a110" target="_top" xlink:title="Initialize form data structure and parse description file.">
<polygon fill="white" stroke="#666666" points="716.62,-86.38 656.38,-86.38 656.38,-65.62 716.62,-65.62 716.62,-86.38"/>
<text xml:space="preserve" text-anchor="middle" x="686.5" y="-72.88" font-family="Helvetica,sans-Serif" font-size="10.00">init_form</text>
</a>
</g>
</g>
<!-- Node13&#45;&gt;Node14 -->
<g id="edge15_Node000013_Node000014" class="edge">
<title>Node13&#45;&gt;Node14</title>
<g id="a_edge15_Node000013_Node000014"><a xlink:title=" ">
<path fill="none" stroke="#63b8ff" d="M776.37,-76C756.41,-76 734.09,-76 716.8,-76"/>
<polygon fill="#63b8ff" stroke="#63b8ff" points="776.27,-79.5 786.27,-76 776.27,-72.5 776.27,-79.5"/>
</a>
</g>
</g>
<!-- Node14&#45;&gt;Node9 -->
<g id="edge22_Node000014_Node000009" class="edge">
<title>Node14&#45;&gt;Node9</title>
<g id="a_edge22_Node000014_Node000009"><a xlink:title=" ">
<path fill="none" stroke="#63b8ff" d="M645.08,-65.88C630.21,-62.53 613.18,-59.12 597.5,-57 500.1,-43.85 385.85,-39.77 317.55,-38.52"/>
<polygon fill="#63b8ff" stroke="#63b8ff" points="643.96,-69.22 654.5,-68.07 645.55,-62.4 643.96,-69.22"/>
</a>
</g>
</g>
<!-- Node15 -->
<g id="Node000015" class="node">
<title>Node15</title>
<g id="a_Node000015"><a xlink:href="../../dd/d52/a00221.html#a2ffea5674e85f124a70e19f745a66583" target="_top" xlink:title="use form to enter a file specification">
<polygon fill="white" stroke="#666666" points="597.5,-125.38 507.25,-125.38 507.25,-104.62 597.5,-104.62 597.5,-125.38"/>
<text xml:space="preserve" text-anchor="middle" x="552.38" y="-111.88" font-family="Helvetica,sans-Serif" font-size="10.00">enter_file_spec</text>
</a>
</g>
</g>
<!-- Node14&#45;&gt;Node15 -->
<g id="edge16_Node000014_Node000015" class="edge">
<title>Node14&#45;&gt;Node15</title>
<g id="a_edge16_Node000014_Node000015"><a xlink:title=" ">
<path fill="none" stroke="#63b8ff" d="M645.15,-87.91C627.64,-93.08 607.27,-99.09 590.18,-104.14"/>
<polygon fill="#63b8ff" stroke="#63b8ff" points="646.13,-91.27 654.73,-85.08 644.14,-84.56 646.13,-91.27"/>
</a>
</g>
</g>
<!-- Node18 -->
<g id="Node000018" class="node">
<title>Node18</title>
<g id="a_Node000018"><a xlink:href="../../db/dc3/a00284.html#a3c04138a5bfe5d72780bb7e82a18e627" target="_top" xlink:title=" ">
<polygon fill="white" stroke="#666666" points="572.75,-86.38 532,-86.38 532,-65.62 572.75,-65.62 572.75,-86.38"/>
<text xml:space="preserve" text-anchor="middle" x="552.38" y="-72.88" font-family="Helvetica,sans-Serif" font-size="10.00">main</text>
</a>
</g>
</g>
<!-- Node14&#45;&gt;Node18 -->
<g id="edge21_Node000014_Node000018" class="edge">
<title>Node14&#45;&gt;Node18</title>
<g id="a_edge21_Node000014_Node000018"><a xlink:title=" ">
<path fill="none" stroke="#63b8ff" d="M644.97,-76C621.16,-76 592.11,-76 573.2,-76"/>
<polygon fill="#63b8ff" stroke="#63b8ff" points="644.66,-79.5 654.66,-76 644.66,-72.5 644.66,-79.5"/>
</a>
</g>
</g>
<!-- Node16 -->
<g id="Node000016" class="node">
<title>Node16</title>
<g id="a_Node000016"><a xlink:href="../../dd/d52/a00221.html#a9c4b3ba5f73c18b486646c62b933972a" target="_top" xlink:title="Main Command Processing Loop for View.">
<polygon fill="white" stroke="#666666" points="471.25,-202.38 353.25,-202.38 353.25,-181.62 471.25,-181.62 471.25,-202.38"/>
<text xml:space="preserve" text-anchor="middle" x="412.25" y="-188.88" font-family="Helvetica,sans-Serif" font-size="10.00">view_cmd_processor</text>
</a>
</g>
</g>
<!-- Node15&#45;&gt;Node16 -->
<g id="edge17_Node000015_Node000016" class="edge">
<title>Node15&#45;&gt;Node16</title>
<g id="a_edge17_Node000015_Node000016"><a xlink:title=" ">
<path fill="none" stroke="#63b8ff" d="M516.13,-130.51C513.11,-131.99 510.11,-133.49 507.25,-135 479.23,-149.78 448.02,-169.36 429.54,-181.3"/>
<polygon fill="#63b8ff" stroke="#63b8ff" points="517.45,-133.76 525.02,-126.34 514.48,-127.43 517.45,-133.76"/>
</a>
</g>
</g>
<!-- Node17 -->
<g id="Node000017" class="node">
<title>Node17</title>
<g id="a_Node000017"><a xlink:href="../../dd/d52/a00221.html#a0bd4dc056ab5010547129bb87819789b" target="_top" xlink:title="Start view.">
<polygon fill="white" stroke="#666666" points="286.12,-240.38 225.88,-240.38 225.88,-219.62 286.12,-219.62 286.12,-240.38"/>
<text xml:space="preserve" text-anchor="middle" x="256" y="-226.88" font-family="Helvetica,sans-Serif" font-size="10.00">view_file</text>
</a>
</g>
</g>
<!-- Node16&#45;&gt;Node17 -->
<g id="edge18_Node000016_Node000017" class="edge">
<title>Node16&#45;&gt;Node17</title>
<g id="a_edge18_Node000016_Node000017"><a xlink:title=" ">
<path fill="none" stroke="#63b8ff" d="M356.48,-205.49C332.8,-211.33 306.05,-217.92 286.25,-222.79"/>
<polygon fill="#63b8ff" stroke="#63b8ff" points="357.12,-208.94 365.99,-203.15 355.44,-202.14 357.12,-208.94"/>
</a>
</g>
</g>
<!-- Node17&#45;&gt;Node2 -->
<g id="edge19_Node000017_Node000002" class="edge">
<title>Node17&#45;&gt;Node2</title>
<g id="a_edge19_Node000017_Node000002"><a xlink:title=" ">
<path fill="none" stroke="#63b8ff" d="M214.41,-241.32C189.38,-248.3 158.38,-256.95 138.58,-262.47"/>
<polygon fill="#63b8ff" stroke="#63b8ff" points="215.29,-244.71 223.98,-238.65 213.41,-237.97 215.29,-244.71"/>
</a>
</g>
</g>
<!-- Node17&#45;&gt;Node3 -->
<g id="edge20_Node000017_Node000003" class="edge">
<title>Node17&#45;&gt;Node3</title>
<g id="a_edge20_Node000017_Node000003"><a xlink:title=" ">
<path fill="none" stroke="#63b8ff" d="M297.59,-230C354.36,-230 460.72,-230 551.38,-230 687.5,-230 687.5,-230 687.5,-230 773.8,-230 795.27,-217.83 878.5,-195 890.5,-191.71 903.5,-187.04 914.28,-182.84"/>
<polygon fill="#63b8ff" stroke="#63b8ff" points="297.76,-226.5 287.76,-230 297.76,-233.5 297.76,-226.5"/>
</a>
</g>
</g>
<!-- Node19&#45;&gt;Node16 -->
<g id="edge26_Node000019_Node000016" class="edge">
<title>Node19&#45;&gt;Node16</title>
<g id="a_edge26_Node000019_Node000016"><a xlink:title=" ">
<path fill="none" stroke="#63b8ff" d="M621.53,-192C576.17,-192 515.79,-192 471.72,-192"/>
<polygon fill="#63b8ff" stroke="#63b8ff" points="621.49,-195.5 631.49,-192 621.49,-188.5 621.49,-195.5"/>
</a>
</g>
</g>
</g>
</svg>

<g id="navigator" transform="translate(0 0)" fill="#404254">
  <rect fill="#f2f5e9" fill-opacity="0.5" stroke="#606060" stroke-width=".5" x="0" y="0" width="60" height="60"/>
  <use id="zoomplus" xlink:href="#zoomPlus" x="17" y="9" onmousedown="handleZoom(evt,'in')"/>
  <use id="zoomminus" xlink:href="#zoomMin" x="42" y="9" onmousedown="handleZoom(evt,'out')"/>
  <use id="reset" xlink:href="#resetDef" x="30" y="36" onmousedown="handleReset()"/>
   <use id="arrowup" xlink:href="#arrowUp" x="0" y="0" onmousedown="handlePan(0,-1)"/>
  <use id="arrowright" xlink:href="#arrowRight" x="0" y="0" onmousedown="handlePan(1,0)"/>
  <use id="arrowdown" xlink:href="#arrowDown" x="0" y="0" onmousedown="handlePan(0,1)"/>
  <use id="arrowleft" xlink:href="#arrowLeft" x="0" y="0" onmousedown="handlePan(-1,0)"/>
</g>
<svg viewBox="0 0 15 15" width="100%" height="30px" preserveAspectRatio="xMaxYMin meet">
 <g id="arrow_out" transform="scale(0.3 0.3)">
  <a xlink:href="a00323_ace82684e713ed759413f1ed9080583d3_icgraph_org.svg" target="_base">
   <rect id="button" ry="5" rx="5" y="6" x="6" height="38" width="38"
        fill="#f2f5e9" fill-opacity="0.5" stroke="#606060" stroke-width="1.0"/>
   <path id="arrow"
     d="M 11.500037,31.436501 C 11.940474,20.09759 22.043105,11.32322 32.158766,21.979434 L 37.068811,17.246167 C 37.068811,17.246167 37.088388,32 37.088388,32 L 22.160133,31.978069 C 22.160133,31.978069 26.997745,27.140456 26.997745,27.140456 C 18.528582,18.264221 13.291696,25.230495 11.500037,31.436501 z"
     style="fill:#404040;"/>
  </a>
 </g>
</svg>

<style type='text/css'>
<![CDATA[
[data-mouse-over-selected='false'] { opacity: 0.7; }
[data-mouse-over-selected='true']  { opacity: 1.0; }
]]>
</style>
<script type="application/ecmascript"><![CDATA[
document.addEventListener('DOMContentLoaded', (event) => {
  highlightEdges();
  highlightAdjacentNodes();
});
]]></script>
</svg>
