<?xml version="1.0" encoding="UTF-8" standalone="no"?>
<!DOCTYPE svg PUBLIC "-//W3C//DTD SVG 1.1//EN"
 "http://www.w3.org/Graphics/SVG/1.1/DTD/svg11.dtd">
<!-- Generated by graphviz version 14.1.2 (0)
 -->
<!-- Title: new_menu Pages: 1 -->
<!--zoomable 960 -->

<svg id="main" version="1.1" xmlns="http://www.w3.org/2000/svg" xmlns:xlink="http://www.w3.org/1999/xlink" xml:space="preserve" onload="init(evt)">

<style type="text/css"><![CDATA[
.node, .edge {opacity: 0.7;}
.node.selected, .edge.selected {opacity: 1;}
.edge:hover path { stroke: red; }
.edge:hover polygon { stroke: red; fill: red; }
]]></style>

<defs>
  <circle id="rim" cx="0" cy="0" r="7"/>
  <circle id="rim2" cx="0" cy="0" r="3.5"/>
  <g id="zoomPlus">
    <use xlink:href="#rim" fill="#404040"><set attributeName="fill" to="#808080" begin="zoomplus.mouseover" end="zoomplus.mouseout"/></use>
    <path d="M-4,0h8M0,-4v8" fill="none" stroke="white" stroke-width="1.5" pointer-events="none"/>
  </g>
  <g id="zoomMin">
    <use xlink:href="#rim" fill="#404040"><set attributeName="fill" to="#808080" begin="zoomminus.mouseover" end="zoomminus.mouseout"/></use>
    <path d="M-4,0h8" fill="none" stroke="white" stroke-width="1.5" pointer-events="none"/>
  </g>
  <g id="arrowUp" transform="translate(30 24)">
    <use xlink:href="#rim"/>
    <path pointer-events="none" fill="none" stroke="white" stroke-width="1.5" d="M0,-3.0v7 M-2.5,-0.5L0,-3.0L2.5,-0.5"/>
  </g>
  <g id="arrowRight" transform="rotate(90) translate(36 -43)">
    <use xlink:href="#rim"/>
    <path pointer-events="none" fill="none" stroke="white" stroke-width="1.5" d="M0,-3.0v7 M-2.5,-0.5L0,-3.0L2.5,-0.5"/>
  </g>
  <g id="arrowDown" transform="rotate(180) translate(-30 -48)">
    <use xlink:href="#rim"/>
    <path pointer-events="none" fill="none" stroke="white" stroke-width="1.5" d="M0,-3.0v7 M-2.5,-0.5L0,-3.0L2.5,-0.5"/>
  </g>
  <g id="arrowLeft" transform="rotate(270) translate(-36 17)">
    <use xlink:href="#rim"/>
    <path pointer-events="none" fill="none" stroke="white" stroke-width="1.5" d="M0,-3.0v7 M-2.5,-0.5L0,-3.0L2.5,-0.5"/>
  </g>
  <g id="resetDef">
    <use xlink:href="#rim2" fill="#404040"><set attributeName="fill" to="#808080" begin="reset.mouseover" end="reset.mouseout"/></use>
  </g>
</defs>
<script type="application/ecmascript">
var viewWidth = 1168;
var viewHeight = 960;
var sectionId = 'dynsection-29';
</script>
<script type="application/ecmascript" xlink:href="../../svg.min.js"/>
<svg id="graph" class="graph">
<g id="viewport">
<title>new_menu</title>
<!-- Node1 -->
<g id="Node000001" class="node">
<title>Node1</title>
<g id="a_Node000001"><a xlink:title="Create and initialize Menu structure.">
<polygon fill="#999999" stroke="#666666" points="69.25,-638.38 0,-638.38 0,-617.62 69.25,-617.62 69.25,-638.38"/>
<text xml:space="preserve" text-anchor="middle" x="34.62" y="-624.88" font-family="Helvetica,sans-Serif" font-size="10.00">new_menu</text>
</a>
</g>
</g>
<!-- Node2 -->
<g id="Node000002" class="node">
<title>Node2</title>
<g id="a_Node000002"><a xlink:href="../../df/d95/a00299.html#a8f6c45ca4a7f6a41c4c88314e697565a" target="_top" xlink:title="Abnormal program termination.">
<polygon fill="white" stroke="#666666" points="865.75,-924.38 819.75,-924.38 819.75,-903.62 865.75,-903.62 865.75,-924.38"/>
<text xml:space="preserve" text-anchor="middle" x="842.75" y="-910.88" font-family="Helvetica,sans-Serif" font-size="10.00">abend</text>
</a>
</g>
</g>
<!-- Node1&#45;&gt;Node2 -->
<g id="edge1_Node000001_Node000002" class="edge">
<title>Node1&#45;&gt;Node2</title>
<g id="a_edge1_Node000001_Node000002"><a xlink:title=" ">
<path fill="none" stroke="#63b8ff" d="M37.94,-638.78C50.69,-695 117.74,-952 277.88,-952 277.88,-952 277.88,-952 569.5,-952 656.28,-952 757.14,-932.83 808.29,-921.72"/>
<polygon fill="#63b8ff" stroke="#63b8ff" points="808.82,-925.19 817.83,-919.61 807.31,-918.35 808.82,-925.19"/>
</a>
</g>
</g>
<!-- Node6 -->
<g id="Node000006" class="node">
<title>Node6</title>
<g id="a_Node000006"><a xlink:href="../../df/da9/a00263.html#a6a3ca11276b38608f15cef7c3962143e" target="_top" xlink:title="Initialize Menu file specifications.">
<polygon fill="white" stroke="#666666" points="196.25,-333.38 105.25,-333.38 105.25,-312.62 196.25,-312.62 196.25,-333.38"/>
<text xml:space="preserve" text-anchor="middle" x="150.75" y="-319.88" font-family="Helvetica,sans-Serif" font-size="10.00">init_menu_files</text>
</a>
</g>
</g>
<!-- Node1&#45;&gt;Node6 -->
<g id="edge7_Node000001_Node000006" class="edge">
<title>Node1&#45;&gt;Node6</title>
<g id="a_edge7_Node000001_Node000006"><a xlink:title=" ">
<path fill="none" stroke="#63b8ff" d="M39.69,-617.14C56.33,-572.67 119.46,-403.95 141.83,-344.16"/>
<polygon fill="#63b8ff" stroke="#63b8ff" points="144.98,-345.74 145.21,-335.14 138.42,-343.28 144.98,-345.74"/>
</a>
</g>
</g>
<!-- Node3 -->
<g id="Node000003" class="node">
<title>Node3</title>
<g id="a_Node000003"><a xlink:href="../../df/d95/a00299.html#afc0985a403e3eac0b2cd8f0fab500256" target="_top" xlink:title="Gracefully shut down NCurses and restore terminal settings.">
<polygon fill="white" stroke="#666666" points="1014.5,-905.38 925,-905.38 925,-884.62 1014.5,-884.62 1014.5,-905.38"/>
<text xml:space="preserve" text-anchor="middle" x="969.75" y="-891.88" font-family="Helvetica,sans-Serif" font-size="10.00">destroy_curses</text>
</a>
</g>
</g>
<!-- Node2&#45;&gt;Node3 -->
<g id="edge2_Node000002_Node000003" class="edge">
<title>Node2&#45;&gt;Node3</title>
<g id="a_edge2_Node000002_Node000003"><a xlink:title=" ">
<path fill="none" stroke="#63b8ff" d="M866.1,-910.6C879.28,-908.6 896.59,-905.97 913.23,-903.44"/>
<polygon fill="#63b8ff" stroke="#63b8ff" points="913.73,-906.9 923.09,-901.94 912.68,-899.98 913.73,-906.9"/>
</a>
</g>
</g>
<!-- Node4 -->
<g id="Node000004" class="node">
<title>Node4</title>
<g id="a_Node000004"><a xlink:href="../../d6/de1/a00233.html#ac5e3adb304b78910fc77761ef6a743f0" target="_top" xlink:title="restore_shell_tioctl() &#45; restore shell terminal settings">
<polygon fill="white" stroke="#666666" points="1159.5,-906.38 1050.5,-906.38 1050.5,-885.62 1159.5,-885.62 1159.5,-906.38"/>
<text xml:space="preserve" text-anchor="middle" x="1105" y="-892.88" font-family="Helvetica,sans-Serif" font-size="10.00">restore_shell_tioctl</text>
</a>
</g>
</g>
<!-- Node2&#45;&gt;Node4 -->
<g id="edge5_Node000002_Node000004" class="edge">
<title>Node2&#45;&gt;Node4</title>
<g id="a_edge5_Node000002_Node000004"><a xlink:title=" ">
<path fill="none" stroke="#63b8ff" d="M866.2,-915.41C898.91,-917.15 961.55,-919.27 1014.5,-914 1025.39,-912.92 1036.91,-911.11 1047.93,-909.05"/>
<polygon fill="#63b8ff" stroke="#63b8ff" points="1048.57,-912.49 1057.71,-907.12 1047.22,-905.62 1048.57,-912.49"/>
</a>
</g>
</g>
<!-- Node5 -->
<g id="Node000005" class="node">
<title>Node5</title>
<g id="a_Node000005"><a xlink:href="../../d1/da8/a00230.html#a06c1eb6cf3649dc187115565409f91af" target="_top" xlink:title="Set signal handlers to default behavior.">
<polygon fill="white" stroke="#666666" points="1145.62,-867.38 1064.38,-867.38 1064.38,-846.62 1145.62,-846.62 1145.62,-867.38"/>
<text xml:space="preserve" text-anchor="middle" x="1105" y="-853.88" font-family="Helvetica,sans-Serif" font-size="10.00">sig_dfl_mode</text>
</a>
</g>
</g>
<!-- Node2&#45;&gt;Node5 -->
<g id="edge6_Node000002_Node000005" class="edge">
<title>Node2&#45;&gt;Node5</title>
<g id="a_edge6_Node000002_Node000005"><a xlink:title=" ">
<path fill="none" stroke="#63b8ff" d="M864.77,-903.2C884.62,-893.18 913.07,-879.32 925,-876 967.11,-864.27 1016.63,-859.69 1052.9,-857.94"/>
<polygon fill="#63b8ff" stroke="#63b8ff" points="1052.83,-861.45 1062.68,-857.53 1052.54,-854.46 1052.83,-861.45"/>
</a>
</g>
</g>
<!-- Node3&#45;&gt;Node4 -->
<g id="edge3_Node000003_Node000004" class="edge">
<title>Node3&#45;&gt;Node4</title>
<g id="a_edge3_Node000003_Node000004"><a xlink:title=" ">
<path fill="none" stroke="#63b8ff" d="M1014.75,-895.33C1022.48,-895.39 1030.67,-895.45 1038.83,-895.51"/>
<polygon fill="#63b8ff" stroke="#63b8ff" points="1038.76,-899.01 1048.78,-895.59 1038.81,-892.01 1038.76,-899.01"/>
</a>
</g>
</g>
<!-- Node3&#45;&gt;Node5 -->
<g id="edge4_Node000003_Node000005" class="edge">
<title>Node3&#45;&gt;Node5</title>
<g id="a_edge4_Node000003_Node000005"><a xlink:title=" ">
<path fill="none" stroke="#63b8ff" d="M1008.58,-884.21C1023.07,-880.08 1039.8,-875.31 1055.18,-870.92"/>
<polygon fill="#63b8ff" stroke="#63b8ff" points="1055.97,-874.34 1064.62,-868.23 1054.05,-867.61 1055.97,-874.34"/>
</a>
</g>
</g>
<!-- Node6&#45;&gt;Node2 -->
<g id="edge8_Node000006_Node000002" class="edge">
<title>Node6&#45;&gt;Node2</title>
<g id="a_edge8_Node000006_Node000002"><a xlink:title=" ">
<path fill="none" stroke="#63b8ff" d="M151.45,-333.76C149.81,-413.86 150.17,-914 414.62,-914 414.62,-914 414.62,-914 569.5,-914 655.48,-914 756.74,-914 808.15,-914"/>
<polygon fill="#63b8ff" stroke="#63b8ff" points="808,-917.5 818,-914 808,-910.5 808,-917.5"/>
</a>
</g>
</g>
<!-- Node7 -->
<g id="Node000007" class="node">
<title>Node7</title>
<g id="a_Node000007"><a xlink:href="../../dc/d5d/a00278.html#aa0145c044cfdde3a1c83323410a59f25" target="_top" xlink:title="safer alternative to strncat">
<polygon fill="white" stroke="#666666" points="875.5,-162.38 810,-162.38 810,-141.62 875.5,-141.62 875.5,-162.38"/>
<text xml:space="preserve" text-anchor="middle" x="842.75" y="-148.88" font-family="Helvetica,sans-Serif" font-size="10.00">strnz__cat</text>
</a>
</g>
</g>
<!-- Node6&#45;&gt;Node7 -->
<g id="edge9_Node000006_Node000007" class="edge">
<title>Node6&#45;&gt;Node7</title>
<g id="a_edge9_Node000006_Node000007"><a xlink:title=" ">
<path fill="none" stroke="#63b8ff" d="M155.47,-312.18C174.1,-260.12 262.5,-38 414.62,-38 414.62,-38 414.62,-38 569.5,-38 657.25,-38 681.93,-48.92 760.5,-88 784.15,-99.77 807.46,-119.15 823,-133.5"/>
<polygon fill="#63b8ff" stroke="#63b8ff" points="820.43,-135.9 830.1,-140.24 825.25,-130.82 820.43,-135.9"/>
</a>
</g>
</g>
<!-- Node8 -->
<g id="Node000008" class="node">
<title>Node8</title>
<g id="a_Node000008"><a xlink:href="../../dc/d5d/a00278.html#a0de2e40df9bd7efc8fd9afb8ad2257e6" target="_top" xlink:title="safer alternative to strncpy">
<polygon fill="white" stroke="#666666" points="1003.62,-371.38 935.88,-371.38 935.88,-350.62 1003.62,-350.62 1003.62,-371.38"/>
<text xml:space="preserve" text-anchor="middle" x="969.75" y="-357.88" font-family="Helvetica,sans-Serif" font-size="10.00">strnz__cpy</text>
</a>
</g>
</g>
<!-- Node6&#45;&gt;Node8 -->
<g id="edge10_Node000006_Node000008" class="edge">
<title>Node6&#45;&gt;Node8</title>
<g id="a_edge10_Node000006_Node000008"><a xlink:title=" ">
<path fill="none" stroke="#63b8ff" d="M151.84,-312.19C152.76,-273.13 161.15,-137.72 232.25,-64 291.88,-2.17 328.72,0 414.62,0 414.62,0 414.62,0 714.88,0 802.2,0 833.54,-23.56 889,-91 951.26,-166.71 964.91,-289.49 967.91,-339.14"/>
<polygon fill="#63b8ff" stroke="#63b8ff" points="964.4,-339.04 968.4,-348.85 971.39,-338.68 964.4,-339.04"/>
</a>
</g>
</g>
<!-- Node9 -->
<g id="Node000009" class="node">
<title>Node9</title>
<g id="a_Node000009"><a xlink:href="../../df/da9/a00263.html#a75ce293fe4e007a3337a190647408000" target="_top" xlink:title="Verify file specification argument.">
<polygon fill="white" stroke="#666666" points="325.5,-333.38 232.25,-333.38 232.25,-312.62 325.5,-312.62 325.5,-333.38"/>
<text xml:space="preserve" text-anchor="middle" x="278.88" y="-319.88" font-family="Helvetica,sans-Serif" font-size="10.00">verify_spec_arg</text>
</a>
</g>
</g>
<!-- Node6&#45;&gt;Node9 -->
<g id="edge11_Node000006_Node000009" class="edge">
<title>Node6&#45;&gt;Node9</title>
<g id="a_edge11_Node000006_Node000009"><a xlink:title=" ">
<path fill="none" stroke="#63b8ff" d="M196.57,-323C204.37,-323 212.57,-323 220.65,-323"/>
<polygon fill="#63b8ff" stroke="#63b8ff" points="220.41,-326.5 230.41,-323 220.41,-319.5 220.41,-326.5"/>
</a>
</g>
</g>
<!-- Node9&#45;&gt;Node7 -->
<g id="edge22_Node000009_Node000007" class="edge">
<title>Node9&#45;&gt;Node7</title>
<g id="a_edge22_Node000009_Node000007"><a xlink:title=" ">
<path fill="none" stroke="#63b8ff" d="M281.17,-312.49C285.7,-280.38 303.85,-182.69 361.5,-133 491.09,-21.32 721.12,-100.7 807.61,-136.75"/>
<polygon fill="#63b8ff" stroke="#63b8ff" points="806.17,-139.94 816.74,-140.63 808.91,-133.5 806.17,-139.94"/>
</a>
</g>
</g>
<!-- Node9&#45;&gt;Node8 -->
<g id="edge23_Node000009_Node000008" class="edge">
<title>Node9&#45;&gt;Node8</title>
<g id="a_edge23_Node000009_Node000008"><a xlink:title=" ">
<path fill="none" stroke="#63b8ff" d="M312.67,-333.86C365.64,-350.39 473.58,-380 567.5,-380 567.5,-380 567.5,-380 714.88,-380 788.48,-380 873.75,-371.96 924.37,-366.34"/>
<polygon fill="#63b8ff" stroke="#63b8ff" points="924.49,-369.85 934.04,-365.25 923.71,-362.89 924.49,-369.85"/>
</a>
</g>
</g>
<!-- Node10 -->
<g id="Node000010" class="node">
<title>Node10</title>
<g id="a_Node000010"><a xlink:href="../../dc/d5d/a00278.html#a0d44c51feb7f300fecb49dbf223a62f8" target="_top" xlink:title="Removes quotes and trims at first space.">
<polygon fill="white" stroke="#666666" points="631.25,-124.38 505.75,-124.38 505.75,-103.62 631.25,-103.62 631.25,-124.38"/>
<text xml:space="preserve" text-anchor="middle" x="568.5" y="-110.88" font-family="Helvetica,sans-Serif" font-size="10.00">canonicalize_file_spec</text>
</a>
</g>
</g>
<!-- Node9&#45;&gt;Node10 -->
<g id="edge12_Node000009_Node000010" class="edge">
<title>Node9&#45;&gt;Node10</title>
<g id="a_edge12_Node000009_Node000010"><a xlink:title=" ">
<path fill="none" stroke="#63b8ff" d="M283.59,-312.38C292.83,-287.45 319.18,-224.7 361.5,-190 400.68,-157.87 454.71,-138.61 497.61,-127.53"/>
<polygon fill="#63b8ff" stroke="#63b8ff" points="498.21,-130.98 507.08,-125.18 496.53,-124.19 498.21,-130.98"/>
</a>
</g>
</g>
<!-- Node11 -->
<g id="Node000011" class="node">
<title>Node11</title>
<g id="a_Node000011"><a xlink:href="../../dc/d5d/a00278.html#ad7f9941ba28a6cca3ccce953c4d77e32" target="_top" xlink:title="Replace Leading Tilde With Home Directory.">
<polygon fill="white" stroke="#666666" points="608,-352.38 529,-352.38 529,-331.62 608,-331.62 608,-352.38"/>
<text xml:space="preserve" text-anchor="middle" x="568.5" y="-338.88" font-family="Helvetica,sans-Serif" font-size="10.00">expand_tilde</text>
</a>
</g>
</g>
<!-- Node9&#45;&gt;Node11 -->
<g id="edge14_Node000009_Node000011" class="edge">
<title>Node9&#45;&gt;Node11</title>
<g id="a_edge14_Node000009_Node000011"><a xlink:title=" ">
<path fill="none" stroke="#63b8ff" d="M325.77,-326.03C378.08,-329.49 463.3,-335.12 517.32,-338.69"/>
<polygon fill="#63b8ff" stroke="#63b8ff" points="516.97,-342.17 527.18,-339.34 517.43,-335.18 516.97,-342.17"/>
</a>
</g>
</g>
<!-- Node12 -->
<g id="Node000012" class="node">
<title>Node12</title>
<g id="a_Node000012"><a xlink:href="../../dc/d5d/a00278.html#a02792428710078b7a2ca59ef70ae83fa" target="_top" xlink:title="Locates a file in the system PATH.">
<polygon fill="white" stroke="#666666" points="469.75,-219.38 361.5,-219.38 361.5,-198.62 469.75,-198.62 469.75,-219.38"/>
<text xml:space="preserve" text-anchor="middle" x="415.62" y="-205.88" font-family="Helvetica,sans-Serif" font-size="10.00">locate_file_in_path</text>
</a>
</g>
</g>
<!-- Node9&#45;&gt;Node12 -->
<g id="edge17_Node000009_Node000012" class="edge">
<title>Node9&#45;&gt;Node12</title>
<g id="a_edge17_Node000009_Node000012"><a xlink:title=" ">
<path fill="none" stroke="#63b8ff" d="M292.31,-312.48C315.36,-292.98 364.94,-251.04 393.39,-226.96"/>
<polygon fill="#63b8ff" stroke="#63b8ff" points="395.3,-229.94 400.67,-220.81 390.78,-224.59 395.3,-229.94"/>
</a>
</g>
</g>
<!-- Node13 -->
<g id="Node000013" class="node">
<title>Node13</title>
<g id="a_Node000013"><a xlink:href="../../dc/d5d/a00278.html#a32204f694cf5e28c888a1045a1b383a4" target="_top" xlink:title="removes leading and trailing double quotes if present">
<polygon fill="white" stroke="#666666" points="456.25,-505.38 375,-505.38 375,-484.62 456.25,-484.62 456.25,-505.38"/>
<text xml:space="preserve" text-anchor="middle" x="415.62" y="-491.88" font-family="Helvetica,sans-Serif" font-size="10.00">stripz_quotes</text>
</a>
</g>
</g>
<!-- Node9&#45;&gt;Node13 -->
<g id="edge21_Node000009_Node000013" class="edge">
<title>Node9&#45;&gt;Node13</title>
<g id="a_edge21_Node000009_Node000013"><a xlink:title=" ">
<path fill="none" stroke="#63b8ff" d="M282.69,-333.48C290.51,-360.7 315.07,-434.36 361.5,-475 362.95,-476.27 364.49,-477.47 366.1,-478.59"/>
<polygon fill="#63b8ff" stroke="#63b8ff" points="364.17,-481.51 374.58,-483.48 367.67,-475.45 364.17,-481.51"/>
</a>
</g>
</g>
<!-- Node14 -->
<g id="Node000014" class="node">
<title>Node14</title>
<g id="a_Node000014"><a xlink:href="../../dc/d5d/a00278.html#ae14a4e790b69c8c2e50d1eb5cdf1fd19" target="_top" xlink:title="Verifies that the directory specified by &quot;spec&quot; exists and is accessible with the permissions specifi...">
<polygon fill="white" stroke="#666666" points="446.88,-466.38 384.38,-466.38 384.38,-445.62 446.88,-445.62 446.88,-466.38"/>
<text xml:space="preserve" text-anchor="middle" x="415.62" y="-452.88" font-family="Helvetica,sans-Serif" font-size="10.00">verify_dir</text>
</a>
</g>
</g>
<!-- Node9&#45;&gt;Node14 -->
<g id="edge24_Node000009_Node000014" class="edge">
<title>Node9&#45;&gt;Node14</title>
<g id="a_edge24_Node000009_Node000014"><a xlink:title=" ">
<path fill="none" stroke="#63b8ff" d="M290.45,-333.44C313.16,-355.86 366.89,-408.89 395.66,-437.28"/>
<polygon fill="#63b8ff" stroke="#63b8ff" points="393.07,-439.65 402.65,-444.18 397.99,-434.66 393.07,-439.65"/>
</a>
</g>
</g>
<!-- Node28 -->
<g id="Node000028" class="node">
<title>Node28</title>
<g id="a_Node000028"><a xlink:href="../../dc/d5d/a00278.html#ab190e75e095b7d3da114fce21ab8c8ea" target="_top" xlink:title="Verifies that the file specified by &quot;in_spec&quot; exists and is accessible with the permissions specified...">
<polygon fill="white" stroke="#666666" points="448.38,-314.38 382.88,-314.38 382.88,-293.62 448.38,-293.62 448.38,-314.38"/>
<text xml:space="preserve" text-anchor="middle" x="415.62" y="-300.88" font-family="Helvetica,sans-Serif" font-size="10.00">verify_file</text>
</a>
</g>
</g>
<!-- Node9&#45;&gt;Node28 -->
<g id="edge51_Node000009_Node000028" class="edge">
<title>Node9&#45;&gt;Node28</title>
<g id="a_edge51_Node000009_Node000028"><a xlink:title=" ">
<path fill="none" stroke="#63b8ff" d="M325.87,-316.51C340.55,-314.44 356.74,-312.16 371.23,-310.12"/>
<polygon fill="#63b8ff" stroke="#63b8ff" points="371.51,-313.61 380.92,-308.75 370.53,-306.68 371.51,-313.61"/>
</a>
</g>
</g>
<!-- Node10&#45;&gt;Node8 -->
<g id="edge13_Node000010_Node000008" class="edge">
<title>Node10&#45;&gt;Node8</title>
<g id="a_edge13_Node000010_Node000008"><a xlink:title=" ">
<path fill="none" stroke="#63b8ff" d="M611.2,-103.16C677.35,-88.62 807.19,-71.21 889,-133 955.22,-183.01 966.72,-291.95 968.52,-338.82"/>
<polygon fill="#63b8ff" stroke="#63b8ff" points="965.02,-338.88 968.78,-348.79 972.02,-338.7 965.02,-338.88"/>
</a>
</g>
</g>
<!-- Node11&#45;&gt;Node7 -->
<g id="edge15_Node000011_Node000007" class="edge">
<title>Node11&#45;&gt;Node7</title>
<g id="a_edge15_Node000011_Node000007"><a xlink:title=" ">
<path fill="none" stroke="#63b8ff" d="M578.68,-331.34C595.12,-312.66 631.24,-273.52 667.25,-247 712.37,-213.77 770.5,-184.45 806.96,-167.47"/>
<polygon fill="#63b8ff" stroke="#63b8ff" points="808.09,-170.8 815.71,-163.44 805.16,-164.44 808.09,-170.8"/>
</a>
</g>
</g>
<!-- Node11&#45;&gt;Node8 -->
<g id="edge16_Node000011_Node000008" class="edge">
<title>Node11&#45;&gt;Node8</title>
<g id="a_edge16_Node000011_Node000008"><a xlink:title=" ">
<path fill="none" stroke="#63b8ff" d="M608.14,-343.84C682.51,-347.38 845.12,-355.12 924.03,-358.87"/>
<polygon fill="#63b8ff" stroke="#63b8ff" points="923.83,-362.37 933.98,-359.35 924.16,-355.37 923.83,-362.37"/>
</a>
</g>
</g>
<!-- Node12&#45;&gt;Node7 -->
<g id="edge19_Node000012_Node000007" class="edge">
<title>Node12&#45;&gt;Node7</title>
<g id="a_edge19_Node000012_Node000007"><a xlink:title=" ">
<path fill="none" stroke="#63b8ff" d="M470.04,-201.84C555.1,-190.43 719.71,-168.36 798.15,-157.85"/>
<polygon fill="#63b8ff" stroke="#63b8ff" points="798.58,-161.32 808.02,-156.52 797.65,-154.38 798.58,-161.32"/>
</a>
</g>
</g>
<!-- Node12&#45;&gt;Node8 -->
<g id="edge20_Node000012_Node000008" class="edge">
<title>Node12&#45;&gt;Node8</title>
<g id="a_edge20_Node000012_Node000008"><a xlink:title=" ">
<path fill="none" stroke="#63b8ff" d="M470.08,-208.54C538.85,-209.36 661.26,-215.71 760.5,-247 832.31,-269.64 907.67,-318.02 944.96,-343.87"/>
<polygon fill="#63b8ff" stroke="#63b8ff" points="942.58,-346.48 952.77,-349.36 946.6,-340.75 942.58,-346.48"/>
</a>
</g>
</g>
<!-- Node12&#45;&gt;Node10 -->
<g id="edge18_Node000012_Node000010" class="edge">
<title>Node12&#45;&gt;Node10</title>
<g id="a_edge18_Node000012_Node000010"><a xlink:title=" ">
<path fill="none" stroke="#63b8ff" d="M429.78,-198.35C453.56,-179.12 501.63,-140.37 505.75,-138 511.44,-134.73 517.65,-131.73 523.88,-129.04"/>
<polygon fill="#63b8ff" stroke="#63b8ff" points="524.94,-132.38 532.88,-125.37 522.3,-125.9 524.94,-132.38"/>
</a>
</g>
</g>
<!-- Node14&#45;&gt;Node8 -->
<g id="edge50_Node000014_Node000008" class="edge">
<title>Node14&#45;&gt;Node8</title>
<g id="a_edge50_Node000014_Node000008"><a xlink:title=" ">
<path fill="none" stroke="#63b8ff" d="M447.18,-461.1C539.17,-475.88 811.93,-515.14 889,-475 926.49,-455.47 949.99,-409.37 961.11,-382.15"/>
<polygon fill="#63b8ff" stroke="#63b8ff" points="964.23,-383.78 964.58,-373.19 957.71,-381.25 964.23,-383.78"/>
</a>
</g>
</g>
<!-- Node14&#45;&gt;Node11 -->
<g id="edge48_Node000014_Node000011" class="edge">
<title>Node14&#45;&gt;Node11</title>
<g id="a_edge48_Node000014_Node000011"><a xlink:title=" ">
<path fill="none" stroke="#63b8ff" d="M430.82,-445.28C456.88,-425.58 512.58,-383.5 544.24,-359.58"/>
<polygon fill="#63b8ff" stroke="#63b8ff" points="546.16,-362.51 552.03,-353.69 541.94,-356.93 546.16,-362.51"/>
</a>
</g>
</g>
<!-- Node15 -->
<g id="Node000015" class="node">
<title>Node15</title>
<g id="a_Node000015"><a xlink:href="../../df/d95/a00299.html#a67659f8a701b74f4dec0d36227a10d1c" target="_top" xlink:title="Display an error message window or print to stderr.">
<polygon fill="white" stroke="#666666" points="608.38,-637.38 528.62,-637.38 528.62,-616.62 608.38,-616.62 608.38,-637.38"/>
<text xml:space="preserve" text-anchor="middle" x="568.5" y="-623.88" font-family="Helvetica,sans-Serif" font-size="10.00">display_error</text>
</a>
</g>
</g>
<!-- Node14&#45;&gt;Node15 -->
<g id="edge25_Node000014_Node000015" class="edge">
<title>Node14&#45;&gt;Node15</title>
<g id="a_edge25_Node000014_Node000015"><a xlink:title=" ">
<path fill="none" stroke="#63b8ff" d="M447.34,-463.81C455.18,-466.77 463.23,-470.74 469.75,-476 514.15,-511.77 544.94,-573.32 558.95,-605.69"/>
<polygon fill="#63b8ff" stroke="#63b8ff" points="555.67,-606.92 562.76,-614.79 562.13,-604.22 555.67,-606.92"/>
</a>
</g>
</g>
<!-- Node20 -->
<g id="Node000020" class="node">
<title>Node20</title>
<g id="a_Node000020"><a xlink:href="../../dc/d5d/a00278.html#a63eb94756fb011a456a3dec900709cd8" target="_top" xlink:title="ssnprintf was designed to be a safer alternative to snprintf.">
<polygon fill="white" stroke="#666666" points="999.12,-734.38 940.38,-734.38 940.38,-713.62 999.12,-713.62 999.12,-734.38"/>
<text xml:space="preserve" text-anchor="middle" x="969.75" y="-720.88" font-family="Helvetica,sans-Serif" font-size="10.00">ssnprintf</text>
</a>
</g>
</g>
<!-- Node14&#45;&gt;Node20 -->
<g id="edge49_Node000014_Node000020" class="edge">
<title>Node14&#45;&gt;Node20</title>
<g id="a_edge49_Node000014_Node000020"><a xlink:title=" ">
<path fill="none" stroke="#63b8ff" d="M447.1,-461.74C455.5,-464.7 463.91,-469.2 469.75,-476 520.07,-534.58 473.49,-575.83 505.75,-646 555.09,-753.3 561.37,-804.7 667.25,-857 773.25,-909.35 904.57,-790.53 951.27,-742.77"/>
<polygon fill="#63b8ff" stroke="#63b8ff" points="953.53,-745.46 957.93,-735.82 948.48,-740.62 953.53,-745.46"/>
</a>
</g>
</g>
<!-- Node15&#45;&gt;Node2 -->
<g id="edge26_Node000015_Node000002" class="edge">
<title>Node15&#45;&gt;Node2</title>
<g id="a_edge26_Node000015_Node000002"><a xlink:title=" ">
<path fill="none" stroke="#63b8ff" d="M575.1,-637.76C588.39,-662.49 623.96,-724.31 667.25,-764 702.72,-796.51 723.64,-788.07 760.5,-819 787.38,-841.55 812.72,-873.51 827.74,-894"/>
<polygon fill="#63b8ff" stroke="#63b8ff" points="824.86,-896 833.54,-902.07 830.54,-891.91 824.86,-896"/>
</a>
</g>
</g>
<!-- Node15&#45;&gt;Node8 -->
<g id="edge36_Node000015_Node000008" class="edge">
<title>Node15&#45;&gt;Node8</title>
<g id="a_edge36_Node000015_Node000008"><a xlink:title=" ">
<path fill="none" stroke="#63b8ff" d="M596.83,-616.2C616.4,-608.51 643.4,-597.99 667.25,-589 765.43,-551.99 809.56,-576.55 889,-508 928.96,-473.52 952.38,-413.89 962.6,-382.21"/>
<polygon fill="#63b8ff" stroke="#63b8ff" points="965.84,-383.58 965.44,-372.99 959.15,-381.52 965.84,-383.58"/>
</a>
</g>
</g>
<!-- Node16 -->
<g id="Node000016" class="node">
<title>Node16</title>
<g id="a_Node000016"><a xlink:href="../../df/d95/a00299.html#a645871e46277e31736bc36d0f3dce4bd" target="_top" xlink:title="construct the chyron string from the chyron structure">
<polygon fill="white" stroke="#666666" points="760.5,-276.38 667.25,-276.38 667.25,-255.62 760.5,-255.62 760.5,-276.38"/>
<text xml:space="preserve" text-anchor="middle" x="713.88" y="-262.88" font-family="Helvetica,sans-Serif" font-size="10.00">compile_chyron</text>
</a>
</g>
</g>
<!-- Node15&#45;&gt;Node16 -->
<g id="edge27_Node000015_Node000016" class="edge">
<title>Node15&#45;&gt;Node16</title>
<g id="a_edge27_Node000015_Node000016"><a xlink:title=" ">
<path fill="none" stroke="#63b8ff" d="M573.79,-616.2C593.7,-566.06 677.27,-355.65 704.36,-287.44"/>
<polygon fill="#63b8ff" stroke="#63b8ff" points="707.6,-288.75 708.04,-278.17 701.1,-286.17 707.6,-288.75"/>
</a>
</g>
</g>
<!-- Node17 -->
<g id="Node000017" class="node">
<title>Node17</title>
<g id="a_Node000017"><a xlink:href="../../df/d95/a00299.html#a3f3feb40fd703913c5c136331f627c91" target="_top" xlink:title="Destroy Chyron structure.">
<polygon fill="white" stroke="#666666" points="759.38,-618.38 668.38,-618.38 668.38,-597.62 759.38,-597.62 759.38,-618.38"/>
<text xml:space="preserve" text-anchor="middle" x="713.88" y="-604.88" font-family="Helvetica,sans-Serif" font-size="10.00">destroy_chyron</text>
</a>
</g>
</g>
<!-- Node15&#45;&gt;Node17 -->
<g id="edge29_Node000015_Node000017" class="edge">
<title>Node15&#45;&gt;Node17</title>
<g id="a_edge29_Node000015_Node000017"><a xlink:title=" ">
<path fill="none" stroke="#63b8ff" d="M608.68,-621.81C623.57,-619.84 640.83,-617.55 656.97,-615.41"/>
<polygon fill="#63b8ff" stroke="#63b8ff" points="656.96,-618.94 666.42,-614.16 656.04,-612 656.96,-618.94"/>
</a>
</g>
</g>
<!-- Node18 -->
<g id="Node000018" class="node">
<title>Node18</title>
<g id="a_Node000018"><a xlink:href="../../df/d95/a00299.html#ad37d5808ff30ae6894780425d865abae" target="_top" xlink:title="Create and initialize Chyron structure.">
<polygon fill="white" stroke="#666666" points="751.12,-848.38 676.62,-848.38 676.62,-827.62 751.12,-827.62 751.12,-848.38"/>
<text xml:space="preserve" text-anchor="middle" x="713.88" y="-834.88" font-family="Helvetica,sans-Serif" font-size="10.00">new_chyron</text>
</a>
</g>
</g>
<!-- Node15&#45;&gt;Node18 -->
<g id="edge30_Node000015_Node000018" class="edge">
<title>Node15&#45;&gt;Node18</title>
<g id="a_edge30_Node000015_Node000018"><a xlink:title=" ">
<path fill="none" stroke="#63b8ff" d="M572.57,-637.67C581.95,-668.59 612.92,-759.53 667.25,-814 669.99,-816.74 673.1,-819.25 676.39,-821.51"/>
<polygon fill="#63b8ff" stroke="#63b8ff" points="674.28,-824.33 684.66,-826.48 677.89,-818.33 674.28,-824.33"/>
</a>
</g>
</g>
<!-- Node19 -->
<g id="Node000019" class="node">
<title>Node19</title>
<g id="a_Node000019"><a xlink:href="../../df/d95/a00299.html#a208ce92c197fdd6d2b007987e534aa3b" target="_top" xlink:title="Set chyron key.">
<polygon fill="white" stroke="#666666" points="888.62,-772.38 796.88,-772.38 796.88,-751.62 888.62,-751.62 888.62,-772.38"/>
<text xml:space="preserve" text-anchor="middle" x="842.75" y="-758.88" font-family="Helvetica,sans-Serif" font-size="10.00">set_chyron_key</text>
</a>
</g>
</g>
<!-- Node15&#45;&gt;Node19 -->
<g id="edge32_Node000015_Node000019" class="edge">
<title>Node15&#45;&gt;Node19</title>
<g id="a_edge32_Node000015_Node000019"><a xlink:title=" ">
<path fill="none" stroke="#63b8ff" d="M575.38,-637.81C588.48,-660.7 622.46,-713.95 667.25,-738 703.35,-757.38 749.47,-763.05 785.23,-764.05"/>
<polygon fill="#63b8ff" stroke="#63b8ff" points="784.88,-767.54 794.93,-764.2 784.99,-760.55 784.88,-767.54"/>
</a>
</g>
</g>
<!-- Node15&#45;&gt;Node20 -->
<g id="edge34_Node000015_Node000020" class="edge">
<title>Node15&#45;&gt;Node20</title>
<g id="a_edge34_Node000015_Node000020"><a xlink:title=" ">
<path fill="none" stroke="#63b8ff" d="M578.72,-637.76C594.67,-655.5 629.37,-690.39 667.25,-705 755.79,-739.16 869.78,-734.52 929.02,-728.87"/>
<polygon fill="#63b8ff" stroke="#63b8ff" points="929.02,-732.39 938.61,-727.89 928.31,-725.42 929.02,-732.39"/>
</a>
</g>
</g>
<!-- Node21 -->
<g id="Node000021" class="node">
<title>Node21</title>
<g id="a_Node000021"><a xlink:href="../../dc/d5d/a00278.html#a636608f26d1193b5d860f2312cd8ee49" target="_top" xlink:title="terminates string at New Line, Carriage Return, or max_len">
<polygon fill="white" stroke="#666666" points="733.88,-542.38 693.88,-542.38 693.88,-521.62 733.88,-521.62 733.88,-542.38"/>
<text xml:space="preserve" text-anchor="middle" x="713.88" y="-528.88" font-family="Helvetica,sans-Serif" font-size="10.00">strnz</text>
</a>
</g>
</g>
<!-- Node15&#45;&gt;Node21 -->
<g id="edge35_Node000015_Node000021" class="edge">
<title>Node15&#45;&gt;Node21</title>
<g id="a_edge35_Node000015_Node000021"><a xlink:title=" ">
<path fill="none" stroke="#63b8ff" d="M582.99,-616.24C601.45,-601.74 635.9,-575.49 667.25,-556 672.34,-552.83 677.9,-549.68 683.32,-546.75"/>
<polygon fill="#63b8ff" stroke="#63b8ff" points="684.87,-549.89 692.1,-542.15 681.62,-543.69 684.87,-549.89"/>
</a>
</g>
</g>
<!-- Node22 -->
<g id="Node000022" class="node">
<title>Node22</title>
<g id="a_Node000022"><a xlink:href="../../df/d95/a00299.html#a9dd598e1d49c8764af1eec42c682623e" target="_top" xlink:title="Delete the current window and its associated box window.">
<polygon fill="white" stroke="#666666" points="740.62,-696.38 687.12,-696.38 687.12,-675.62 740.62,-675.62 740.62,-696.38"/>
<text xml:space="preserve" text-anchor="middle" x="713.88" y="-682.88" font-family="Helvetica,sans-Serif" font-size="10.00">win_del</text>
</a>
</g>
</g>
<!-- Node15&#45;&gt;Node22 -->
<g id="edge37_Node000015_Node000022" class="edge">
<title>Node15&#45;&gt;Node22</title>
<g id="a_edge37_Node000015_Node000022"><a xlink:title=" ">
<path fill="none" stroke="#63b8ff" d="M595.8,-637.82C618.33,-647.09 651.03,-660.55 676.15,-670.89"/>
<polygon fill="#63b8ff" stroke="#63b8ff" points="674.77,-674.1 685.34,-674.67 677.43,-667.63 674.77,-674.1"/>
</a>
</g>
</g>
<!-- Node23 -->
<g id="Node000023" class="node">
<title>Node23</title>
<g id="a_Node000023"><a xlink:href="../../df/d95/a00299.html#a435c7bff7ffedb8f51c6de9259e36f6c" target="_top" xlink:title="Create a new window with optional box and title.">
<polygon fill="white" stroke="#666666" points="743.25,-428.38 684.5,-428.38 684.5,-407.62 743.25,-407.62 743.25,-428.38"/>
<text xml:space="preserve" text-anchor="middle" x="713.88" y="-414.88" font-family="Helvetica,sans-Serif" font-size="10.00">win_new</text>
</a>
</g>
</g>
<!-- Node15&#45;&gt;Node23 -->
<g id="edge38_Node000015_Node000023" class="edge">
<title>Node15&#45;&gt;Node23</title>
<g id="a_edge38_Node000015_Node000023"><a xlink:title=" ">
<path fill="none" stroke="#63b8ff" d="M576.81,-616.35C599.58,-583.16 669.5,-481.23 699.25,-437.87"/>
<polygon fill="#63b8ff" stroke="#63b8ff" points="701.96,-440.1 704.73,-429.88 696.18,-436.14 701.96,-440.1"/>
</a>
</g>
</g>
<!-- Node25 -->
<g id="Node000025" class="node">
<title>Node25</title>
<g id="a_Node000025"><a xlink:href="../../df/d95/a00299.html#acf4c709bccc4c965a5d61db978db31a3" target="_top" xlink:title="Wrapper for wgetch that handles signals and mouse events.">
<polygon fill="white" stroke="#666666" points="742.5,-657.38 685.25,-657.38 685.25,-636.62 742.5,-636.62 742.5,-657.38"/>
<text xml:space="preserve" text-anchor="middle" x="713.88" y="-643.88" font-family="Helvetica,sans-Serif" font-size="10.00">xwgetch</text>
</a>
</g>
</g>
<!-- Node15&#45;&gt;Node25 -->
<g id="edge41_Node000015_Node000025" class="edge">
<title>Node15&#45;&gt;Node25</title>
<g id="a_edge41_Node000015_Node000025"><a xlink:title=" ">
<path fill="none" stroke="#63b8ff" d="M608.68,-626.37C629.01,-628.33 653.77,-631.79 674.05,-635.51"/>
<polygon fill="#63b8ff" stroke="#63b8ff" points="673.13,-638.9 683.62,-637.37 674.47,-632.02 673.13,-638.9"/>
</a>
</g>
</g>
<!-- Node16&#45;&gt;Node7 -->
<g id="edge28_Node000016_Node000007" class="edge">
<title>Node16&#45;&gt;Node7</title>
<g id="a_edge28_Node000016_Node000007"><a xlink:title=" ">
<path fill="none" stroke="#63b8ff" d="M726.58,-255.48C748.19,-236.07 794.56,-194.4 821.41,-170.28"/>
<polygon fill="#63b8ff" stroke="#63b8ff" points="823.47,-173.13 828.57,-163.84 818.8,-167.92 823.47,-173.13"/>
</a>
</g>
</g>
<!-- Node18&#45;&gt;Node2 -->
<g id="edge31_Node000018_Node000002" class="edge">
<title>Node18&#45;&gt;Node2</title>
<g id="a_edge31_Node000018_Node000002"><a xlink:title=" ">
<path fill="none" stroke="#63b8ff" d="M732.78,-848.73C753.94,-861.4 789.38,-882.63 814.08,-897.42"/>
<polygon fill="#63b8ff" stroke="#63b8ff" points="812.26,-900.41 822.63,-902.55 815.85,-894.41 812.26,-900.41"/>
</a>
</g>
</g>
<!-- Node19&#45;&gt;Node20 -->
<g id="edge33_Node000019_Node000020" class="edge">
<title>Node19&#45;&gt;Node20</title>
<g id="a_edge33_Node000019_Node000020"><a xlink:title=" ">
<path fill="none" stroke="#63b8ff" d="M879.24,-751.21C894.84,-746.47 913.22,-740.88 929.25,-736.01"/>
<polygon fill="#63b8ff" stroke="#63b8ff" points="929.91,-739.46 938.46,-733.21 927.88,-732.77 929.91,-739.46"/>
</a>
</g>
</g>
<!-- Node23&#45;&gt;Node8 -->
<g id="edge40_Node000023_Node000008" class="edge">
<title>Node23&#45;&gt;Node8</title>
<g id="a_edge40_Node000023_Node000008"><a xlink:title=" ">
<path fill="none" stroke="#63b8ff" d="M743.67,-416.29C778.57,-413.7 838.93,-407.57 889,-394 905.13,-389.63 922.35,-382.8 936.64,-376.49"/>
<polygon fill="#63b8ff" stroke="#63b8ff" points="937.9,-379.76 945.56,-372.43 935.01,-373.38 937.9,-379.76"/>
</a>
</g>
</g>
<!-- Node24 -->
<g id="Node000024" class="node">
<title>Node24</title>
<g id="a_Node000024"><a xlink:href="../../df/d95/a00299.html#ac9adcf7339be4a05ab1a7350c236b8a5" target="_top" xlink:title="Draw a box around the specified window.">
<polygon fill="white" stroke="#666666" points="862.38,-466.38 823.12,-466.38 823.12,-445.62 862.38,-445.62 862.38,-466.38"/>
<text xml:space="preserve" text-anchor="middle" x="842.75" y="-452.88" font-family="Helvetica,sans-Serif" font-size="10.00">cbox</text>
</a>
</g>
</g>
<!-- Node23&#45;&gt;Node24 -->
<g id="edge39_Node000023_Node000024" class="edge">
<title>Node23&#45;&gt;Node24</title>
<g id="a_edge39_Node000023_Node000024"><a xlink:title=" ">
<path fill="none" stroke="#63b8ff" d="M743.66,-426.62C764.05,-432.73 791.32,-440.9 811.93,-447.07"/>
<polygon fill="#63b8ff" stroke="#63b8ff" points="810.87,-450.41 821.46,-449.92 812.88,-443.7 810.87,-450.41"/>
</a>
</g>
</g>
<!-- Node25&#45;&gt;Node15 -->
<g id="edge42_Node000025_Node000015" class="edge">
<title>Node25&#45;&gt;Node15</title>
<g id="a_edge42_Node000025_Node000015"><a xlink:title=" ">
<path fill="none" stroke="#63b8ff" d="M685.02,-648.59C665.47,-647.18 638.85,-643.76 616.09,-639.87"/>
<polygon fill="#63b8ff" stroke="#63b8ff" points="616.89,-636.46 606.43,-638.13 615.65,-643.34 616.89,-636.46"/>
</a>
</g>
</g>
<!-- Node26 -->
<g id="Node000026" class="node">
<title>Node26</title>
<g id="a_Node000026"><a xlink:href="../../df/d95/a00299.html#a4298f891699300bfc4e6e56fd2a8d574" target="_top" xlink:title="Get keycode from chyron.">
<polygon fill="white" stroke="#666666" points="889,-657.38 796.5,-657.38 796.5,-636.62 889,-636.62 889,-657.38"/>
<text xml:space="preserve" text-anchor="middle" x="842.75" y="-643.88" font-family="Helvetica,sans-Serif" font-size="10.00">get_chyron_key</text>
</a>
</g>
</g>
<!-- Node25&#45;&gt;Node26 -->
<g id="edge43_Node000025_Node000026" class="edge">
<title>Node25&#45;&gt;Node26</title>
<g id="a_edge43_Node000025_Node000026"><a xlink:title=" ">
<path fill="none" stroke="#63b8ff" d="M742.72,-647C755.04,-647 770,-647 784.53,-647"/>
<polygon fill="#63b8ff" stroke="#63b8ff" points="784.51,-650.5 794.51,-647 784.51,-643.5 784.51,-650.5"/>
</a>
</g>
</g>
<!-- Node27 -->
<g id="Node000027" class="node">
<title>Node27</title>
<g id="a_Node000027"><a xlink:href="../../d1/da8/a00230.html#a79c3e22498eb2346543aa9c86fd22e58" target="_top" xlink:title="Handle received signals and prompt user for action.">
<polygon fill="white" stroke="#666666" points="884.5,-696.38 801,-696.38 801,-675.62 884.5,-675.62 884.5,-696.38"/>
<text xml:space="preserve" text-anchor="middle" x="842.75" y="-682.88" font-family="Helvetica,sans-Serif" font-size="10.00">handle_signal</text>
</a>
</g>
</g>
<!-- Node25&#45;&gt;Node27 -->
<g id="edge44_Node000025_Node000027" class="edge">
<title>Node25&#45;&gt;Node27</title>
<g id="a_edge44_Node000025_Node000027"><a xlink:title=" ">
<path fill="none" stroke="#63b8ff" d="M742.72,-655.56C758.3,-660.35 778.13,-666.44 795.94,-671.92"/>
<polygon fill="#63b8ff" stroke="#63b8ff" points="794.68,-675.19 805.26,-674.78 796.73,-668.5 794.68,-675.19"/>
</a>
</g>
</g>
<!-- Node27&#45;&gt;Node4 -->
<g id="edge45_Node000027_Node000004" class="edge">
<title>Node27&#45;&gt;Node4</title>
<g id="a_edge45_Node000027_Node000004"><a xlink:title=" ">
<path fill="none" stroke="#63b8ff" d="M884.68,-678.25C923.1,-673.51 979.72,-673.43 1014.5,-705 1072.01,-757.2 999.86,-817.11 1050.5,-876 1051.19,-876.81 1051.92,-877.58 1052.68,-878.32"/>
<polygon fill="#63b8ff" stroke="#63b8ff" points="1050.52,-881.07 1060.63,-884.24 1054.7,-875.46 1050.52,-881.07"/>
</a>
</g>
</g>
<!-- Node27&#45;&gt;Node8 -->
<g id="edge47_Node000027_Node000008" class="edge">
<title>Node27&#45;&gt;Node8</title>
<g id="a_edge47_Node000027_Node000008"><a xlink:title=" ">
<path fill="none" stroke="#63b8ff" d="M877.74,-675.16C881.96,-672.68 885.88,-669.66 889,-666 961.42,-580.92 969.05,-437.59 969.17,-383.01"/>
<polygon fill="#63b8ff" stroke="#63b8ff" points="972.67,-383.15 969.1,-373.18 965.68,-383.21 972.67,-383.15"/>
</a>
</g>
</g>
<!-- Node27&#45;&gt;Node20 -->
<g id="edge46_Node000027_Node000020" class="edge">
<title>Node27&#45;&gt;Node20</title>
<g id="a_edge46_Node000027_Node000020"><a xlink:title=" ">
<path fill="none" stroke="#63b8ff" d="M879.24,-696.79C894.84,-701.53 913.22,-707.12 929.25,-711.99"/>
<polygon fill="#63b8ff" stroke="#63b8ff" points="927.88,-715.23 938.46,-714.79 929.91,-708.54 927.88,-715.23"/>
</a>
</g>
</g>
<!-- Node28&#45;&gt;Node8 -->
<g id="edge56_Node000028_Node000008" class="edge">
<title>Node28&#45;&gt;Node8</title>
<g id="a_edge56_Node000028_Node000008"><a xlink:title=" ">
<path fill="none" stroke="#63b8ff" d="M448.77,-306.39C525.23,-312.23 723.89,-328.26 889,-349 900.46,-350.44 912.82,-352.2 924.3,-353.92"/>
<polygon fill="#63b8ff" stroke="#63b8ff" points="923.52,-357.34 933.93,-355.39 924.58,-350.42 923.52,-357.34"/>
</a>
</g>
</g>
<!-- Node28&#45;&gt;Node10 -->
<g id="edge52_Node000028_Node000010" class="edge">
<title>Node28&#45;&gt;Node10</title>
<g id="a_edge52_Node000028_Node000010"><a xlink:title=" ">
<path fill="none" stroke="#63b8ff" d="M425.17,-293.24C449.65,-262.41 520.31,-173.42 551.91,-133.63"/>
<polygon fill="#63b8ff" stroke="#63b8ff" points="554.63,-135.83 558.11,-125.83 549.15,-131.48 554.63,-135.83"/>
</a>
</g>
</g>
<!-- Node28&#45;&gt;Node11 -->
<g id="edge54_Node000028_Node000011" class="edge">
<title>Node28&#45;&gt;Node11</title>
<g id="a_edge54_Node000028_Node000011"><a xlink:title=" ">
<path fill="none" stroke="#63b8ff" d="M448.62,-312.06C468.6,-317.09 494.75,-323.68 517.43,-329.39"/>
<polygon fill="#63b8ff" stroke="#63b8ff" points="516.56,-332.78 527.12,-331.83 518.27,-325.99 516.56,-332.78"/>
</a>
</g>
</g>
<!-- Node28&#45;&gt;Node15 -->
<g id="edge53_Node000028_Node000015" class="edge">
<title>Node28&#45;&gt;Node15</title>
<g id="a_edge53_Node000028_Node000015"><a xlink:title=" ">
<path fill="none" stroke="#63b8ff" d="M421.64,-314.75C443.26,-361.02 528.59,-543.71 557.71,-606.04"/>
<polygon fill="#63b8ff" stroke="#63b8ff" points="554.42,-607.26 561.82,-614.84 560.76,-604.3 554.42,-607.26"/>
</a>
</g>
</g>
<!-- Node28&#45;&gt;Node20 -->
<g id="edge55_Node000028_Node000020" class="edge">
<title>Node28&#45;&gt;Node20</title>
<g id="a_edge55_Node000028_Node000020"><a xlink:title=" ">
<path fill="none" stroke="#63b8ff" d="M433.28,-314.87C451.11,-326.46 480.28,-345.26 505.75,-361 617.91,-430.3 654.28,-434.9 760.5,-513 822.25,-558.4 835.81,-572.82 889,-628 913.05,-652.96 938.19,-684.21 953.66,-704.15"/>
<polygon fill="#63b8ff" stroke="#63b8ff" points="950.83,-706.2 959.7,-712 956.37,-701.94 950.83,-706.2"/>
</a>
</g>
</g>
</g>
</svg>

<g id="navigator" transform="translate(0 0)" fill="#404254">
  <rect fill="#f2f5e9" fill-opacity="0.5" stroke="#606060" stroke-width=".5" x="0" y="0" width="60" height="60"/>
  <use id="zoomplus" xlink:href="#zoomPlus" x="17" y="9" onmousedown="handleZoom(evt,'in')"/>
  <use id="zoomminus" xlink:href="#zoomMin" x="42" y="9" onmousedown="handleZoom(evt,'out')"/>
  <use id="reset" xlink:href="#resetDef" x="30" y="36" onmousedown="handleReset()"/>
   <use id="arrowup" xlink:href="#arrowUp" x="0" y="0" onmousedown="handlePan(0,-1)"/>
  <use id="arrowright" xlink:href="#arrowRight" x="0" y="0" onmousedown="handlePan(1,0)"/>
  <use id="arrowdown" xlink:href="#arrowDown" x="0" y="0" onmousedown="handlePan(0,1)"/>
  <use id="arrowleft" xlink:href="#arrowLeft" x="0" y="0" onmousedown="handlePan(-1,0)"/>
</g>
<svg viewBox="0 0 15 15" width="100%" height="30px" preserveAspectRatio="xMaxYMin meet">
 <g id="arrow_out" transform="scale(0.3 0.3)">
  <a xlink:href="a00323_ad827d45ef3ad6469c85757dd3eb48525_cgraph_org.svg" target="_base">
   <rect id="button" ry="5" rx="5" y="6" x="6" height="38" width="38"
        fill="#f2f5e9" fill-opacity="0.5" stroke="#606060" stroke-width="1.0"/>
   <path id="arrow"
     d="M 11.500037,31.436501 C 11.940474,20.09759 22.043105,11.32322 32.158766,21.979434 L 37.068811,17.246167 C 37.068811,17.246167 37.088388,32 37.088388,32 L 22.160133,31.978069 C 22.160133,31.978069 26.997745,27.140456 26.997745,27.140456 C 18.528582,18.264221 13.291696,25.230495 11.500037,31.436501 z"
     style="fill:#404040;"/>
  </a>
 </g>
</svg>

<style type='text/css'>
<![CDATA[
[data-mouse-over-selected='false'] { opacity: 0.7; }
[data-mouse-over-selected='true']  { opacity: 1.0; }
]]>
</style>
<script type="application/ecmascript"><![CDATA[
document.addEventListener('DOMContentLoaded', (event) => {
  highlightEdges();
  highlightAdjacentNodes();
});
]]></script>
</svg>
