<?xml version="1.0" encoding="UTF-8" standalone="no"?>
<!DOCTYPE svg PUBLIC "-//W3C//DTD SVG 1.1//EN"
 "http://www.w3.org/Graphics/SVG/1.1/DTD/svg11.dtd">
<!-- Generated by graphviz version 14.1.2 (0)
 -->
<!-- Title: view_init_input Pages: 1 -->
<!--zoomable 324 -->

<svg id="main" version="1.1" xmlns="http://www.w3.org/2000/svg" xmlns:xlink="http://www.w3.org/1999/xlink" xml:space="preserve" onload="init(evt)">

<style type="text/css"><![CDATA[
.node, .edge {opacity: 0.7;}
.node.selected, .edge.selected {opacity: 1;}
.edge:hover path { stroke: red; }
.edge:hover polygon { stroke: red; fill: red; }
]]></style>

<defs>
  <circle id="rim" cx="0" cy="0" r="7"/>
  <circle id="rim2" cx="0" cy="0" r="3.5"/>
  <g id="zoomPlus">
    <use xlink:href="#rim" fill="#404040"><set attributeName="fill" to="#808080" begin="zoomplus.mouseover" end="zoomplus.mouseout"/></use>
    <path d="M-4,0h8M0,-4v8" fill="none" stroke="white" stroke-width="1.5" pointer-events="none"/>
  </g>
  <g id="zoomMin">
    <use xlink:href="#rim" fill="#404040"><set attributeName="fill" to="#808080" begin="zoomminus.mouseover" end="zoomminus.mouseout"/></use>
    <path d="M-4,0h8" fill="none" stroke="white" stroke-width="1.5" pointer-events="none"/>
  </g>
  <g id="arrowUp" transform="translate(30 24)">
    <use xlink:href="#rim"/>
    <path pointer-events="none" fill="none" stroke="white" stroke-width="1.5" d="M0,-3.0v7 M-2.5,-0.5L0,-3.0L2.5,-0.5"/>
  </g>
  <g id="arrowRight" transform="rotate(90) translate(36 -43)">
    <use xlink:href="#rim"/>
    <path pointer-events="none" fill="none" stroke="white" stroke-width="1.5" d="M0,-3.0v7 M-2.5,-0.5L0,-3.0L2.5,-0.5"/>
  </g>
  <g id="arrowDown" transform="rotate(180) translate(-30 -48)">
    <use xlink:href="#rim"/>
    <path pointer-events="none" fill="none" stroke="white" stroke-width="1.5" d="M0,-3.0v7 M-2.5,-0.5L0,-3.0L2.5,-0.5"/>
  </g>
  <g id="arrowLeft" transform="rotate(270) translate(-36 17)">
    <use xlink:href="#rim"/>
    <path pointer-events="none" fill="none" stroke="white" stroke-width="1.5" d="M0,-3.0v7 M-2.5,-0.5L0,-3.0L2.5,-0.5"/>
  </g>
  <g id="resetDef">
    <use xlink:href="#rim2" fill="#404040"><set attributeName="fill" to="#808080" begin="reset.mouseover" end="reset.mouseout"/></use>
  </g>
</defs>
<script type="application/ecmascript">
var viewWidth = 1194;
var viewHeight = 324;
var sectionId = 'dynsection-46';
</script>
<script type="application/ecmascript" xlink:href="../../svg.min.js"/>
<svg id="graph" class="graph">
<g id="viewport">
<title>view_init_input</title>
<!-- Node1 -->
<g id="Node000001" class="node">
<title>Node1</title>
<g id="a_Node000001"><a xlink:title="Initialize the input for a C&#45;Menu View.">
<polygon fill="#999999" stroke="#666666" points="1186,-220.38 1095.75,-220.38 1095.75,-199.62 1186,-199.62 1186,-220.38"/>
<text xml:space="preserve" text-anchor="middle" x="1140.88" y="-206.88" font-family="Helvetica,sans-Serif" font-size="10.00">view_init_input</text>
</a>
</g>
</g>
<!-- Node2 -->
<g id="Node000002" class="node">
<title>Node2</title>
<g id="a_Node000002"><a xlink:href="../../dd/d52/a00221.html#a0bd4dc056ab5010547129bb87819789b" target="_top" xlink:title="Start view.">
<polygon fill="white" stroke="#666666" points="1059.75,-220.38 999.5,-220.38 999.5,-199.62 1059.75,-199.62 1059.75,-220.38"/>
<text xml:space="preserve" text-anchor="middle" x="1029.62" y="-206.88" font-family="Helvetica,sans-Serif" font-size="10.00">view_file</text>
</a>
</g>
</g>
<!-- Node1&#45;&gt;Node2 -->
<g id="edge1_Node000001_Node000002" class="edge">
<title>Node1&#45;&gt;Node2</title>
<g id="a_edge1_Node000001_Node000002"><a xlink:title=" ">
<path fill="none" stroke="#63b8ff" d="M1084.13,-210C1075.79,-210 1067.5,-210 1060.01,-210"/>
<polygon fill="#63b8ff" stroke="#63b8ff" points="1083.93,-213.5 1093.93,-210 1083.93,-206.5 1083.93,-213.5"/>
</a>
</g>
</g>
<!-- Node3 -->
<g id="Node000003" class="node">
<title>Node3</title>
<g id="a_Node000003"><a xlink:href="../../d5/ddf/a00224.html#a3c04138a5bfe5d72780bb7e82a18e627" target="_top" xlink:title=" ">
<polygon fill="white" stroke="#666666" points="847.38,-316.38 806.62,-316.38 806.62,-295.62 847.38,-295.62 847.38,-316.38"/>
<text xml:space="preserve" text-anchor="middle" x="827" y="-302.88" font-family="Helvetica,sans-Serif" font-size="10.00">main</text>
</a>
</g>
</g>
<!-- Node2&#45;&gt;Node3 -->
<g id="edge2_Node000002_Node000003" class="edge">
<title>Node2&#45;&gt;Node3</title>
<g id="a_edge2_Node000002_Node000003"><a xlink:title=" ">
<path fill="none" stroke="#63b8ff" d="M999.17,-225.92C969.18,-241.89 921.16,-266.8 878.5,-286 868.52,-290.49 857.22,-295.02 847.84,-298.63"/>
<polygon fill="#63b8ff" stroke="#63b8ff" points="1000.49,-229.18 1007.66,-221.38 997.19,-223.01 1000.49,-229.18"/>
</a>
</g>
</g>
<!-- Node4 -->
<g id="Node000004" class="node">
<title>Node4</title>
<g id="a_Node000004"><a xlink:href="../../d7/d03/a00254.html#a75a4e7afc9c9aafd3d35ab706f5fdc71" target="_top" xlink:title="subprogram entry point for C&#45;Menu View">
<polygon fill="white" stroke="#666666" points="963.5,-220.38 914.5,-220.38 914.5,-199.62 963.5,-199.62 963.5,-220.38"/>
<text xml:space="preserve" text-anchor="middle" x="939" y="-206.88" font-family="Helvetica,sans-Serif" font-size="10.00">mview</text>
</a>
</g>
</g>
<!-- Node2&#45;&gt;Node4 -->
<g id="edge3_Node000002_Node000004" class="edge">
<title>Node2&#45;&gt;Node4</title>
<g id="a_edge3_Node000002_Node000004"><a xlink:title=" ">
<path fill="none" stroke="#63b8ff" d="M987.74,-210C979.54,-210 971.17,-210 963.79,-210"/>
<polygon fill="#63b8ff" stroke="#63b8ff" points="987.6,-213.5 997.6,-210 987.6,-206.5 987.6,-213.5"/>
</a>
</g>
</g>
<!-- Node4&#45;&gt;Node3 -->
<g id="edge22_Node000004_Node000003" class="edge">
<title>Node4&#45;&gt;Node3</title>
<g id="a_edge22_Node000004_Node000003"><a xlink:title=" ">
<path fill="none" stroke="#63b8ff" d="M926.35,-230.32C915.76,-247.22 898.73,-270.88 878.5,-286 869.28,-292.89 857.38,-297.75 847.45,-300.96"/>
<polygon fill="#63b8ff" stroke="#63b8ff" points="929.14,-232.47 931.3,-222.1 923.14,-228.86 929.14,-232.47"/>
</a>
</g>
</g>
<!-- Node5 -->
<g id="Node000005" class="node">
<title>Node5</title>
<g id="a_Node000005"><a xlink:href="../../d0/d27/a00239.html#aeebc4c0b94ca97d753e10a0cd1798730" target="_top" xlink:title="Displays the help screen for the pick interface using mview.">
<polygon fill="white" stroke="#666666" points="878.5,-277.38 775.5,-277.38 775.5,-256.62 878.5,-256.62 878.5,-277.38"/>
<text xml:space="preserve" text-anchor="middle" x="827" y="-263.88" font-family="Helvetica,sans-Serif" font-size="10.00">display_pick_help</text>
</a>
</g>
</g>
<!-- Node4&#45;&gt;Node5 -->
<g id="edge4_Node000004_Node000005" class="edge">
<title>Node4&#45;&gt;Node5</title>
<g id="a_edge4_Node000004_Node000005"><a xlink:title=" ">
<path fill="none" stroke="#63b8ff" d="M909.21,-226.45C899.52,-231.85 888.61,-237.8 878.5,-243 869.78,-247.48 860.08,-252.17 851.53,-256.19"/>
<polygon fill="#63b8ff" stroke="#63b8ff" points="910.82,-229.55 917.82,-221.6 907.39,-223.45 910.82,-229.55"/>
</a>
</g>
</g>
<!-- Node10 -->
<g id="Node000010" class="node">
<title>Node10</title>
<g id="a_Node000010"><a xlink:href="../../d9/d39/a00257.html#aa5d0e30e7036b72b51c843d0a7e486a1" target="_top" xlink:title="Processes user input for the menu system.">
<polygon fill="white" stroke="#666666" points="317.25,-200.38 194.75,-200.38 194.75,-179.62 317.25,-179.62 317.25,-200.38"/>
<text xml:space="preserve" text-anchor="middle" x="256" y="-186.88" font-family="Helvetica,sans-Serif" font-size="10.00">menu_cmd_processor</text>
</a>
</g>
</g>
<!-- Node4&#45;&gt;Node10 -->
<g id="edge23_Node000004_Node000010" class="edge">
<title>Node4&#45;&gt;Node10</title>
<g id="a_edge23_Node000004_Node000010"><a xlink:title=" ">
<path fill="none" stroke="#63b8ff" d="M902.83,-205.64C854.43,-200.04 764.5,-191 687.5,-191 687.5,-191 687.5,-191 551.38,-191 470.5,-191 377.12,-190.62 317.61,-190.33"/>
<polygon fill="#63b8ff" stroke="#63b8ff" points="902.37,-209.11 912.71,-206.81 903.19,-202.16 902.37,-209.11"/>
</a>
</g>
</g>
<!-- Node13 -->
<g id="Node000013" class="node">
<title>Node13</title>
<g id="a_Node000013"><a xlink:href="../../d0/d27/a00239.html#af7fcbb1c8b67a4d11c86ba7209f397c2" target="_top" xlink:title="Executes specified command with selected objects as arguments.">
<polygon fill="white" stroke="#666666" points="726.38,-239.38 646.62,-239.38 646.62,-218.62 726.38,-218.62 726.38,-239.38"/>
<text xml:space="preserve" text-anchor="middle" x="686.5" y="-225.88" font-family="Helvetica,sans-Serif" font-size="10.00">exec_objects</text>
</a>
</g>
</g>
<!-- Node4&#45;&gt;Node13 -->
<g id="edge13_Node000004_Node000013" class="edge">
<title>Node4&#45;&gt;Node13</title>
<g id="a_edge13_Node000004_Node000013"><a xlink:title=" ">
<path fill="none" stroke="#63b8ff" d="M903.18,-212.64C856.84,-216.16 775.12,-222.35 726.68,-226.03"/>
<polygon fill="#63b8ff" stroke="#63b8ff" points="903.22,-216.15 912.92,-211.9 902.69,-209.17 903.22,-216.15"/>
</a>
</g>
</g>
<!-- Node14 -->
<g id="Node000014" class="node">
<title>Node14</title>
<g id="a_Node000014"><a xlink:href="../../d2/d04/a00281.html#ada302551bf41bf8ed6132fd34328a47e" target="_top" xlink:title="Form main processing loop.">
<polygon fill="white" stroke="#666666" points="865.75,-144.38 788.25,-144.38 788.25,-123.62 865.75,-123.62 865.75,-144.38"/>
<text xml:space="preserve" text-anchor="middle" x="827" y="-130.88" font-family="Helvetica,sans-Serif" font-size="10.00">form_engine</text>
</a>
</g>
</g>
<!-- Node4&#45;&gt;Node14 -->
<g id="edge15_Node000004_Node000014" class="edge">
<title>Node4&#45;&gt;Node14</title>
<g id="a_edge15_Node000004_Node000014"><a xlink:title=" ">
<path fill="none" stroke="#63b8ff" d="M913.3,-192.93C891.92,-178.16 861.66,-157.26 843.52,-144.72"/>
<polygon fill="#63b8ff" stroke="#63b8ff" points="911.24,-195.77 921.46,-198.57 915.22,-190.01 911.24,-195.77"/>
</a>
</g>
</g>
<!-- Node19 -->
<g id="Node000019" class="node">
<title>Node19</title>
<g id="a_Node000019"><a xlink:href="../../dd/d52/a00221.html#ad997ba9f8591568c77291fb1b44601b2" target="_top" xlink:title="Display View Help File.">
<polygon fill="white" stroke="#666666" points="739.5,-58.38 633.5,-58.38 633.5,-37.62 739.5,-37.62 739.5,-58.38"/>
<text xml:space="preserve" text-anchor="middle" x="686.5" y="-44.88" font-family="Helvetica,sans-Serif" font-size="10.00">view_display_help</text>
</a>
</g>
</g>
<!-- Node4&#45;&gt;Node19 -->
<g id="edge24_Node000004_Node000019" class="edge">
<title>Node4&#45;&gt;Node19</title>
<g id="a_edge24_Node000004_Node000019"><a xlink:title=" ">
<path fill="none" stroke="#63b8ff" d="M929.64,-188.61C920.23,-167.16 903,-134.58 878.5,-115 838.15,-82.75 781.16,-65.44 739.95,-56.55"/>
<polygon fill="#63b8ff" stroke="#63b8ff" points="926.4,-189.94 933.47,-197.83 932.87,-187.25 926.4,-189.94"/>
</a>
</g>
</g>
<!-- Node6 -->
<g id="Node000006" class="node">
<title>Node6</title>
<g id="a_Node000006"><a xlink:href="../../d0/d27/a00239.html#abb0969a6d1c7e78be46c3b325754c802" target="_top" xlink:title="Main loop to handle user input and interactions for pick interface.">
<polygon fill="white" stroke="#666666" points="709.12,-278.38 663.88,-278.38 663.88,-257.62 709.12,-257.62 709.12,-278.38"/>
<text xml:space="preserve" text-anchor="middle" x="686.5" y="-264.88" font-family="Helvetica,sans-Serif" font-size="10.00">picker</text>
</a>
</g>
</g>
<!-- Node5&#45;&gt;Node6 -->
<g id="edge5_Node000005_Node000006" class="edge">
<title>Node5&#45;&gt;Node6</title>
<g id="a_edge5_Node000005_Node000006"><a xlink:title=" ">
<path fill="none" stroke="#63b8ff" d="M763.86,-267.45C744.34,-267.59 724.07,-267.74 709.32,-267.84"/>
<polygon fill="#63b8ff" stroke="#63b8ff" points="763.73,-270.95 773.7,-267.38 763.68,-263.95 763.73,-270.95"/>
</a>
</g>
</g>
<!-- Node7 -->
<g id="Node000007" class="node">
<title>Node7</title>
<g id="a_Node000007"><a xlink:href="../../d0/d27/a00239.html#ab97dcab41017c5132f52b682437a151e" target="_top" xlink:title="Initializes pick interface, calculates window size and position, and enters picker loop.">
<polygon fill="white" stroke="#666666" points="589.62,-239.38 515.12,-239.38 515.12,-218.62 589.62,-218.62 589.62,-239.38"/>
<text xml:space="preserve" text-anchor="middle" x="552.38" y="-225.88" font-family="Helvetica,sans-Serif" font-size="10.00">pick_engine</text>
</a>
</g>
</g>
<!-- Node6&#45;&gt;Node7 -->
<g id="edge6_Node000006_Node000007" class="edge">
<title>Node6&#45;&gt;Node7</title>
<g id="a_edge6_Node000006_Node000007"><a xlink:title=" ">
<path fill="none" stroke="#63b8ff" d="M652.56,-258.28C633.57,-252.67 609.65,-245.61 590.06,-239.83"/>
<polygon fill="#63b8ff" stroke="#63b8ff" points="651.35,-261.57 661.93,-261.04 653.33,-254.86 651.35,-261.57"/>
</a>
</g>
</g>
<!-- Node8 -->
<g id="Node000008" class="node">
<title>Node8</title>
<g id="a_Node000008"><a xlink:href="../../d0/d27/a00239.html#a1b2ee87543245e612c1710ea58930a17" target="_top" xlink:title="Initializes pick structure and opens pick input file or pipe.">
<polygon fill="white" stroke="#666666" points="440.88,-239.38 383.62,-239.38 383.62,-218.62 440.88,-218.62 440.88,-239.38"/>
<text xml:space="preserve" text-anchor="middle" x="412.25" y="-225.88" font-family="Helvetica,sans-Serif" font-size="10.00">init_pick</text>
</a>
</g>
</g>
<!-- Node7&#45;&gt;Node8 -->
<g id="edge7_Node000007_Node000008" class="edge">
<title>Node7&#45;&gt;Node8</title>
<g id="a_edge7_Node000007_Node000008"><a xlink:title=" ">
<path fill="none" stroke="#63b8ff" d="M503.24,-229C482.55,-229 459.09,-229 441.31,-229"/>
<polygon fill="#63b8ff" stroke="#63b8ff" points="503.21,-232.5 513.21,-229 503.21,-225.5 503.21,-232.5"/>
</a>
</g>
</g>
<!-- Node9 -->
<g id="Node000009" class="node">
<title>Node9</title>
<g id="a_Node000009"><a xlink:href="../../d2/dc8/a00242.html#a3c04138a5bfe5d72780bb7e82a18e627" target="_top" xlink:title=" ">
<polygon fill="white" stroke="#666666" points="276.38,-239.38 235.62,-239.38 235.62,-218.62 276.38,-218.62 276.38,-239.38"/>
<text xml:space="preserve" text-anchor="middle" x="256" y="-225.88" font-family="Helvetica,sans-Serif" font-size="10.00">main</text>
</a>
</g>
</g>
<!-- Node8&#45;&gt;Node9 -->
<g id="edge8_Node000008_Node000009" class="edge">
<title>Node8&#45;&gt;Node9</title>
<g id="a_edge8_Node000008_Node000009"><a xlink:title=" ">
<path fill="none" stroke="#63b8ff" d="M372.17,-229C341.59,-229 300.36,-229 276.43,-229"/>
<polygon fill="#63b8ff" stroke="#63b8ff" points="371.8,-232.5 381.8,-229 371.8,-225.5 371.8,-232.5"/>
</a>
</g>
</g>
<!-- Node8&#45;&gt;Node10 -->
<g id="edge9_Node000008_Node000010" class="edge">
<title>Node8&#45;&gt;Node10</title>
<g id="a_edge9_Node000008_Node000010"><a xlink:title=" ">
<path fill="none" stroke="#63b8ff" d="M372.33,-219.16C350.25,-213.58 322.57,-206.58 299.87,-200.84"/>
<polygon fill="#63b8ff" stroke="#63b8ff" points="371.3,-222.51 381.85,-221.57 373.01,-215.72 371.3,-222.51"/>
</a>
</g>
</g>
<!-- Node11 -->
<g id="Node000011" class="node">
<title>Node11</title>
<g id="a_Node000011"><a xlink:href="../../d9/d39/a00257.html#a7d7973d7aac92759dcc86ec52bb038f4" target="_top" xlink:title="The main loop of the menu system.">
<polygon fill="white" stroke="#666666" points="158.75,-200.38 76.75,-200.38 76.75,-179.62 158.75,-179.62 158.75,-200.38"/>
<text xml:space="preserve" text-anchor="middle" x="117.75" y="-186.88" font-family="Helvetica,sans-Serif" font-size="10.00">menu_engine</text>
</a>
</g>
</g>
<!-- Node10&#45;&gt;Node11 -->
<g id="edge10_Node000010_Node000011" class="edge">
<title>Node10&#45;&gt;Node11</title>
<g id="a_edge10_Node000010_Node000011"><a xlink:title=" ">
<path fill="none" stroke="#63b8ff" d="M183.2,-183.26C174.96,-183.3 166.79,-183.47 159.17,-183.77"/>
<polygon fill="#63b8ff" stroke="#63b8ff" points="182.92,-186.76 192.93,-183.28 182.94,-179.76 182.92,-186.76"/>
</a>
</g>
</g>
<!-- Node11&#45;&gt;Node10 -->
<g id="edge12_Node000011_Node000010" class="edge">
<title>Node11&#45;&gt;Node10</title>
<g id="a_edge12_Node000011_Node000010"><a xlink:title=" ">
<path fill="none" stroke="#63b8ff" d="M170.68,-196.58C178.45,-196.75 186.52,-196.79 194.45,-196.71"/>
<polygon fill="#63b8ff" stroke="#63b8ff" points="170.79,-193.08 160.69,-196.27 170.58,-200.08 170.79,-193.08"/>
</a>
</g>
</g>
<!-- Node12 -->
<g id="Node000012" class="node">
<title>Node12</title>
<g id="a_Node000012"><a xlink:href="../../dd/dd7/a00260.html#a3c04138a5bfe5d72780bb7e82a18e627" target="_top" xlink:title=" ">
<polygon fill="white" stroke="#666666" points="40.75,-200.38 0,-200.38 0,-179.62 40.75,-179.62 40.75,-200.38"/>
<text xml:space="preserve" text-anchor="middle" x="20.38" y="-186.88" font-family="Helvetica,sans-Serif" font-size="10.00">main</text>
</a>
</g>
</g>
<!-- Node11&#45;&gt;Node12 -->
<g id="edge11_Node000011_Node000012" class="edge">
<title>Node11&#45;&gt;Node12</title>
<g id="a_edge11_Node000011_Node000012"><a xlink:title=" ">
<path fill="none" stroke="#63b8ff" d="M64.79,-190C56.36,-190 48.1,-190 41.09,-190"/>
<polygon fill="#63b8ff" stroke="#63b8ff" points="64.79,-193.5 74.79,-190 64.79,-186.5 64.79,-193.5"/>
</a>
</g>
</g>
<!-- Node13&#45;&gt;Node7 -->
<g id="edge14_Node000013_Node000007" class="edge">
<title>Node13&#45;&gt;Node7</title>
<g id="a_edge14_Node000013_Node000007"><a xlink:title=" ">
<path fill="none" stroke="#63b8ff" d="M635.04,-229C620.06,-229 603.94,-229 590.02,-229"/>
<polygon fill="#63b8ff" stroke="#63b8ff" points="634.7,-232.5 644.7,-229 634.7,-225.5 634.7,-232.5"/>
</a>
</g>
</g>
<!-- Node15 -->
<g id="Node000015" class="node">
<title>Node15</title>
<g id="a_Node000015"><a xlink:href="../../d2/d04/a00281.html#abf1be20a8aad5f7ba09172ac1434a110" target="_top" xlink:title="Initialize form data structure and parse description file.">
<polygon fill="white" stroke="#666666" points="716.62,-134.38 656.38,-134.38 656.38,-113.62 716.62,-113.62 716.62,-134.38"/>
<text xml:space="preserve" text-anchor="middle" x="686.5" y="-120.88" font-family="Helvetica,sans-Serif" font-size="10.00">init_form</text>
</a>
</g>
</g>
<!-- Node14&#45;&gt;Node15 -->
<g id="edge16_Node000014_Node000015" class="edge">
<title>Node14&#45;&gt;Node15</title>
<g id="a_edge16_Node000014_Node000015"><a xlink:title=" ">
<path fill="none" stroke="#63b8ff" d="M776.37,-130.42C756.41,-128.98 734.09,-127.36 716.8,-126.12"/>
<polygon fill="#63b8ff" stroke="#63b8ff" points="776.05,-133.9 786.28,-131.13 776.56,-126.92 776.05,-133.9"/>
</a>
</g>
</g>
<!-- Node15&#45;&gt;Node10 -->
<g id="edge21_Node000015_Node000010" class="edge">
<title>Node15&#45;&gt;Node10</title>
<g id="a_edge21_Node000015_Node000010"><a xlink:title=" ">
<path fill="none" stroke="#63b8ff" d="M645.12,-130.22C569.5,-141.87 406.2,-167.02 317.43,-180.69"/>
<polygon fill="#63b8ff" stroke="#63b8ff" points="645.2,-133.75 654.55,-128.77 644.14,-126.83 645.2,-133.75"/>
</a>
</g>
</g>
<!-- Node16 -->
<g id="Node000016" class="node">
<title>Node16</title>
<g id="a_Node000016"><a xlink:href="../../dd/d52/a00221.html#a2ffea5674e85f124a70e19f745a66583" target="_top" xlink:title="use form to enter a file specification">
<polygon fill="white" stroke="#666666" points="597.5,-125.38 507.25,-125.38 507.25,-104.62 597.5,-104.62 597.5,-125.38"/>
<text xml:space="preserve" text-anchor="middle" x="552.38" y="-111.88" font-family="Helvetica,sans-Serif" font-size="10.00">enter_file_spec</text>
</a>
</g>
</g>
<!-- Node15&#45;&gt;Node16 -->
<g id="edge17_Node000015_Node000016" class="edge">
<title>Node15&#45;&gt;Node16</title>
<g id="a_edge17_Node000015_Node000016"><a xlink:title=" ">
<path fill="none" stroke="#63b8ff" d="M644.78,-121.23C629.94,-120.22 613.1,-119.07 597.94,-118.04"/>
<polygon fill="#63b8ff" stroke="#63b8ff" points="644.45,-124.71 654.67,-121.9 644.93,-117.73 644.45,-124.71"/>
</a>
</g>
</g>
<!-- Node18 -->
<g id="Node000018" class="node">
<title>Node18</title>
<g id="a_Node000018"><a xlink:href="../../db/dc3/a00284.html#a3c04138a5bfe5d72780bb7e82a18e627" target="_top" xlink:title=" ">
<polygon fill="white" stroke="#666666" points="572.75,-86.38 532,-86.38 532,-65.62 572.75,-65.62 572.75,-86.38"/>
<text xml:space="preserve" text-anchor="middle" x="552.38" y="-72.88" font-family="Helvetica,sans-Serif" font-size="10.00">main</text>
</a>
</g>
</g>
<!-- Node15&#45;&gt;Node18 -->
<g id="edge20_Node000015_Node000018" class="edge">
<title>Node15&#45;&gt;Node18</title>
<g id="a_edge20_Node000015_Node000018"><a xlink:title=" ">
<path fill="none" stroke="#63b8ff" d="M645.62,-109.51C621.69,-100.82 592.28,-90.13 573.2,-83.2"/>
<polygon fill="#63b8ff" stroke="#63b8ff" points="644.16,-112.71 654.75,-112.83 646.55,-106.13 644.16,-112.71"/>
</a>
</g>
</g>
<!-- Node17 -->
<g id="Node000017" class="node">
<title>Node17</title>
<g id="a_Node000017"><a xlink:href="../../dd/d52/a00221.html#a9c4b3ba5f73c18b486646c62b933972a" target="_top" xlink:title="Main Command Processing Loop for View.">
<polygon fill="white" stroke="#666666" points="471.25,-48.38 353.25,-48.38 353.25,-27.62 471.25,-27.62 471.25,-48.38"/>
<text xml:space="preserve" text-anchor="middle" x="412.25" y="-34.88" font-family="Helvetica,sans-Serif" font-size="10.00">view_cmd_processor</text>
</a>
</g>
</g>
<!-- Node16&#45;&gt;Node17 -->
<g id="edge18_Node000016_Node000017" class="edge">
<title>Node16&#45;&gt;Node17</title>
<g id="a_edge18_Node000016_Node000017"><a xlink:title=" ">
<path fill="none" stroke="#63b8ff" d="M516.13,-99.49C513.11,-98.01 510.11,-96.51 507.25,-95 479.23,-80.22 448.02,-60.64 429.54,-48.7"/>
<polygon fill="#63b8ff" stroke="#63b8ff" points="514.48,-102.57 525.02,-103.66 517.45,-96.24 514.48,-102.57"/>
</a>
</g>
</g>
<!-- Node17&#45;&gt;Node2 -->
<g id="edge19_Node000017_Node000002" class="edge">
<title>Node17&#45;&gt;Node2</title>
<g id="a_edge19_Node000017_Node000002"><a xlink:title=" ">
<path fill="none" stroke="#63b8ff" d="M472.43,-24.92C527.35,-13.93 611.54,0 685.5,0 828,0 828,0 828,0 939.43,0 1007.99,-156.5 1024.65,-199.3"/>
<polygon fill="#63b8ff" stroke="#63b8ff" points="471.75,-21.48 462.65,-26.91 473.14,-28.34 471.75,-21.48"/>
</a>
</g>
</g>
<!-- Node19&#45;&gt;Node17 -->
<g id="edge25_Node000019_Node000017" class="edge">
<title>Node19&#45;&gt;Node17</title>
<g id="a_edge25_Node000019_Node000017"><a xlink:title=" ">
<path fill="none" stroke="#63b8ff" d="M621.53,-45.65C576.17,-43.98 515.79,-41.77 471.72,-40.15"/>
<polygon fill="#63b8ff" stroke="#63b8ff" points="621.37,-49.15 631.49,-46.02 621.63,-42.15 621.37,-49.15"/>
</a>
</g>
</g>
</g>
</svg>

<g id="navigator" transform="translate(0 0)" fill="#404254">
  <rect fill="#f2f5e9" fill-opacity="0.5" stroke="#606060" stroke-width=".5" x="0" y="0" width="60" height="60"/>
  <use id="zoomplus" xlink:href="#zoomPlus" x="17" y="9" onmousedown="handleZoom(evt,'in')"/>
  <use id="zoomminus" xlink:href="#zoomMin" x="42" y="9" onmousedown="handleZoom(evt,'out')"/>
  <use id="reset" xlink:href="#resetDef" x="30" y="36" onmousedown="handleReset()"/>
   <use id="arrowup" xlink:href="#arrowUp" x="0" y="0" onmousedown="handlePan(0,-1)"/>
  <use id="arrowright" xlink:href="#arrowRight" x="0" y="0" onmousedown="handlePan(1,0)"/>
  <use id="arrowdown" xlink:href="#arrowDown" x="0" y="0" onmousedown="handlePan(0,1)"/>
  <use id="arrowleft" xlink:href="#arrowLeft" x="0" y="0" onmousedown="handlePan(-1,0)"/>
</g>
<svg viewBox="0 0 15 15" width="100%" height="30px" preserveAspectRatio="xMaxYMin meet">
 <g id="arrow_out" transform="scale(0.3 0.3)">
  <a xlink:href="a00323_a9619cef5d33a6ff859c8059eceecda4a_icgraph_org.svg" target="_base">
   <rect id="button" ry="5" rx="5" y="6" x="6" height="38" width="38"
        fill="#f2f5e9" fill-opacity="0.5" stroke="#606060" stroke-width="1.0"/>
   <path id="arrow"
     d="M 11.500037,31.436501 C 11.940474,20.09759 22.043105,11.32322 32.158766,21.979434 L 37.068811,17.246167 C 37.068811,17.246167 37.088388,32 37.088388,32 L 22.160133,31.978069 C 22.160133,31.978069 26.997745,27.140456 26.997745,27.140456 C 18.528582,18.264221 13.291696,25.230495 11.500037,31.436501 z"
     style="fill:#404040;"/>
  </a>
 </g>
</svg>

<style type='text/css'>
<![CDATA[
[data-mouse-over-selected='false'] { opacity: 0.7; }
[data-mouse-over-selected='true']  { opacity: 1.0; }
]]>
</style>
<script type="application/ecmascript"><![CDATA[
document.addEventListener('DOMContentLoaded', (event) => {
  highlightEdges();
  highlightAdjacentNodes();
});
]]></script>
</svg>
