<?xml version="1.0" encoding="UTF-8" standalone="no"?>
<!DOCTYPE svg PUBLIC "-//W3C//DTD SVG 1.1//EN"
 "http://www.w3.org/Graphics/SVG/1.1/DTD/svg11.dtd">
<!-- Generated by graphviz version 15.0.0 (0)
 -->
<!-- Title: UiFramedSurface Pages: 1 -->
<!--zoomable 767 -->

<svg id="main" version="1.1" xmlns="http://www.w3.org/2000/svg" xmlns:xlink="http://www.w3.org/1999/xlink" xml:space="preserve" onload="init(evt)">

<style type="text/css"><![CDATA[
.node, .edge {opacity: 0.7;}
.node.selected, .edge.selected {opacity: 1;}
.edge:hover path { stroke: red; }
.edge:hover polygon { stroke: red; fill: red; }
]]></style>

<defs>
  <circle id="rim" cx="0" cy="0" r="7"/>
  <circle id="rim2" cx="0" cy="0" r="3.5"/>
  <g id="zoomPlus">
    <use xlink:href="#rim" fill="#404040"><set attributeName="fill" to="#808080" begin="zoomplus.mouseover" end="zoomplus.mouseout"/></use>
    <path d="M-4,0h8M0,-4v8" fill="none" stroke="white" stroke-width="1.5" pointer-events="none"/>
  </g>
  <g id="zoomMin">
    <use xlink:href="#rim" fill="#404040"><set attributeName="fill" to="#808080" begin="zoomminus.mouseover" end="zoomminus.mouseout"/></use>
    <path d="M-4,0h8" fill="none" stroke="white" stroke-width="1.5" pointer-events="none"/>
  </g>
  <g id="arrowUp" transform="translate(30 24)">
    <use xlink:href="#rim"/>
    <path pointer-events="none" fill="none" stroke="white" stroke-width="1.5" d="M0,-3.0v7 M-2.5,-0.5L0,-3.0L2.5,-0.5"/>
  </g>
  <g id="arrowRight" transform="rotate(90) translate(36 -43)">
    <use xlink:href="#rim"/>
    <path pointer-events="none" fill="none" stroke="white" stroke-width="1.5" d="M0,-3.0v7 M-2.5,-0.5L0,-3.0L2.5,-0.5"/>
  </g>
  <g id="arrowDown" transform="rotate(180) translate(-30 -48)">
    <use xlink:href="#rim"/>
    <path pointer-events="none" fill="none" stroke="white" stroke-width="1.5" d="M0,-3.0v7 M-2.5,-0.5L0,-3.0L2.5,-0.5"/>
  </g>
  <g id="arrowLeft" transform="rotate(270) translate(-36 17)">
    <use xlink:href="#rim"/>
    <path pointer-events="none" fill="none" stroke="white" stroke-width="1.5" d="M0,-3.0v7 M-2.5,-0.5L0,-3.0L2.5,-0.5"/>
  </g>
  <g id="resetDef">
    <use xlink:href="#rim2" fill="#404040"><set attributeName="fill" to="#808080" begin="reset.mouseover" end="reset.mouseout"/></use>
  </g>
</defs>
<script type="application/ecmascript">
var viewWidth = 1174;
var viewHeight = 767;
var sectionId = 'dynsection-0';
</script>
<script type="application/ecmascript" xlink:href="../../svg.min.js"/>
<svg id="graph" class="graph">
<g id="viewport">
<title>UiFramedSurface</title>
<!-- Node1 -->
<g id="Node000001" class="node">
<title>Node1</title>
<g id="a_Node000001"><a xlink:title=" ">
<polygon fill="#999999" stroke="#666666" points="1165.75,-401.47 1065.75,-401.47 1065.75,-380.72 1165.75,-380.72 1165.75,-401.47"/>
<text xml:space="preserve" text-anchor="middle" x="1115.75" y="-387.97" font-family="Helvetica,sans-Serif" font-size="10.00">UiFramedSurface</text>
</a>
</g>
</g>
<!-- Node2 -->
<g id="Node000002" class="node">
<title>Node2</title>
<g id="a_Node000002"><a xlink:href="../../d9/d66/a02562.html" target="_top" xlink:title="A drawable surface in the NCurses backend. Wraps an NCurses WINDOW and its associated PANEL.">
<polygon fill="white" stroke="#666666" points="998.25,-401.47 935,-401.47 935,-380.72 998.25,-380.72 998.25,-401.47"/>
<text xml:space="preserve" text-anchor="middle" x="966.62" y="-387.97" font-family="Helvetica,sans-Serif" font-size="10.00">UiSurface</text>
</a>
</g>
</g>
<!-- Node2&#45;&gt;Node1 -->
<g id="edge1_Node000001_Node000002" class="edge">
<title>Node2&#45;&gt;Node1</title>
<g id="a_edge1_Node000001_Node000002"><a xlink:title=" ">
<path fill="none" stroke="#9a32cd" stroke-dasharray="5,2" d="M1009.95,-391.09C1027.27,-391.09 1047.43,-391.09 1065.42,-391.09"/>
<polygon fill="#9a32cd" stroke="#9a32cd" points="1009.98,-387.59 999.98,-391.09 1009.98,-394.59 1009.98,-387.59"/>
</a>
</g>
<text xml:space="preserve" text-anchor="start" x="1019.25" y="-413.84" font-family="Helvetica,sans-Serif" font-size="10.00" fill="grey">inner</text>
<text xml:space="preserve" text-anchor="start" x="1019.25" y="-397.09" font-family="Helvetica,sans-Serif" font-size="10.00" fill="grey">outer</text>
</g>
<!-- Node2&#45;&gt;Node2 -->
<g id="edge13_Node000002_Node000002" class="edge">
<title>Node2&#45;&gt;Node2</title>
<g id="a_edge13_Node000002_Node000002"><a xlink:title=" ">
<path fill="none" stroke="#9a32cd" stroke-dasharray="5,2" d="M955.26,-413.28C956.87,-416.94 960.66,-419.47 966.62,-419.47 977.86,-419.47 981.37,-410.53 977.16,-401.86"/>
<polygon fill="#9a32cd" stroke="#9a32cd" points="958.74,-413.6 955.98,-403.37 951.76,-413.09 958.74,-413.6"/>
</a>
</g>
<text xml:space="preserve" text-anchor="start" x="950.88" y="-425.47" font-family="Helvetica,sans-Serif" font-size="10.00" fill="grey">parent</text>
</g>
<!-- Node3 -->
<g id="Node000003" class="node">
<title>Node3</title>
<g id="a_Node000003"><a xlink:title=" ">
<polygon fill="white" stroke="#666666" points="79,-329.47 23.25,-329.47 23.25,-308.72 79,-308.72 79,-329.47"/>
<text xml:space="preserve" text-anchor="middle" x="51.12" y="-315.97" font-family="Helvetica,sans-Serif" font-size="10.00">PANEL *</text>
</a>
</g>
</g>
<!-- Node3&#45;&gt;Node2 -->
<g id="edge2_Node000002_Node000003" class="edge">
<title>Node3&#45;&gt;Node2</title>
<g id="a_edge2_Node000002_Node000003"><a xlink:title=" ">
<path fill="none" stroke="#9a32cd" stroke-dasharray="5,2" d="M90.74,-314.92C125.03,-311.43 176.53,-306.73 221.5,-304.84 531.18,-291.84 630.43,-237.99 917,-356.09 931.04,-361.88 944.88,-372.45 954.18,-380.46"/>
<polygon fill="#9a32cd" stroke="#9a32cd" points="90.45,-311.43 80.87,-315.94 91.17,-318.39 90.45,-311.43"/>
</a>
</g>
<text xml:space="preserve" text-anchor="start" x="381.75" y="-411.34" font-family="Helvetica,sans-Serif" font-size="10.00" fill="grey">box_pan</text>
<text xml:space="preserve" text-anchor="start" x="381.75" y="-394.59" font-family="Helvetica,sans-Serif" font-size="10.00" fill="grey">cmdln_pan</text>
<text xml:space="preserve" text-anchor="start" x="381.75" y="-377.84" font-family="Helvetica,sans-Serif" font-size="10.00" fill="grey">lnno_pan</text>
<text xml:space="preserve" text-anchor="start" x="381.75" y="-361.09" font-family="Helvetica,sans-Serif" font-size="10.00" fill="grey">mpan</text>
<text xml:space="preserve" text-anchor="start" x="381.75" y="-344.34" font-family="Helvetica,sans-Serif" font-size="10.00" fill="grey">pad_pan</text>
<text xml:space="preserve" text-anchor="start" x="381.75" y="-327.59" font-family="Helvetica,sans-Serif" font-size="10.00" fill="grey">win2_pan</text>
<text xml:space="preserve" text-anchor="start" x="381.75" y="-310.84" font-family="Helvetica,sans-Serif" font-size="10.00" fill="grey">win_pan</text>
</g>
<!-- Node7 -->
<g id="Node000007" class="node">
<title>Node7</title>
<g id="a_Node000007"><a xlink:href="../../df/d23/a02558.html" target="_top" xlink:title="Runtime state for the NCurses UI backend.">
<polygon fill="white" stroke="#666666" points="442.25,-453.47 374.5,-453.47 374.5,-432.72 442.25,-432.72 442.25,-453.47"/>
<text xml:space="preserve" text-anchor="middle" x="408.38" y="-439.97" font-family="Helvetica,sans-Serif" font-size="10.00">UiRuntime</text>
</a>
</g>
</g>
<!-- Node3&#45;&gt;Node7 -->
<g id="edge11_Node000007_Node000003" class="edge">
<title>Node3&#45;&gt;Node7</title>
<g id="a_edge11_Node000007_Node000003"><a xlink:title=" ">
<path fill="none" stroke="#9a32cd" stroke-dasharray="5,2" d="M90.31,-329.12C123.34,-339.35 170.81,-357.94 203.5,-387.34 215.28,-397.93 208.32,-409.32 221.5,-418.09 267.57,-448.77 334.42,-449.73 374.14,-446.91"/>
<polygon fill="#9a32cd" stroke="#9a32cd" points="91.3,-325.77 80.72,-326.28 89.31,-332.48 91.3,-325.77"/>
</a>
</g>
<text xml:space="preserve" text-anchor="start" x="133.38" y="-393.34" font-family="Helvetica,sans-Serif" font-size="10.00" fill="grey">panel_main</text>
</g>
<!-- Node4 -->
<g id="Node000004" class="node">
<title>Node4</title>
<g id="a_Node000004"><a xlink:title=" ">
<polygon fill="white" stroke="#666666" points="595.25,-621.47 221.5,-621.47 221.5,-600.72 595.25,-600.72 595.25,-621.47"/>
<text xml:space="preserve" text-anchor="middle" x="408.38" y="-607.97" font-family="Helvetica,sans-Serif" font-size="10.00">anonymous:@045046245333206373361302073307151354162113270146</text>
</a>
</g>
</g>
<!-- Node4&#45;&gt;Node2 -->
<g id="edge3_Node000002_Node000004" class="edge">
<title>Node4&#45;&gt;Node2</title>
<g id="a_edge3_Node000002_Node000004"><a xlink:title=" ">
<path fill="none" stroke="#9a32cd" stroke-dasharray="5,2" d="M606.98,-616.17C738.98,-617.64 892.72,-614.89 917,-595.09 947.68,-570.07 961.33,-440.31 964.74,-401.85"/>
<polygon fill="#9a32cd" stroke="#9a32cd" points="607.05,-612.67 597.01,-616.04 606.97,-619.67 607.05,-612.67"/>
</a>
</g>
<text xml:space="preserve" text-anchor="start" x="616.25" y="-622.5" font-family="Helvetica,sans-Serif" font-size="10.00" fill="grey">@045046245333206373361302073307151354162113270146</text>
</g>
<!-- Node5 -->
<g id="Node000005" class="node">
<title>Node5</title>
<g id="a_Node000005"><a xlink:title=" ">
<polygon fill="white" stroke="#666666" points="443,-531.47 373.75,-531.47 373.75,-510.72 443,-510.72 443,-531.47"/>
<text xml:space="preserve" text-anchor="middle" x="408.38" y="-517.97" font-family="Helvetica,sans-Serif" font-size="10.00">WINDOW *</text>
</a>
</g>
</g>
<!-- Node5&#45;&gt;Node2 -->
<g id="edge4_Node000002_Node000005" class="edge">
<title>Node5&#45;&gt;Node2</title>
<g id="a_edge4_Node000002_Node000005"><a xlink:title=" ">
<path fill="none" stroke="#9a32cd" stroke-dasharray="5,2" d="M454.94,-526.18C494.69,-528.4 552.51,-526.1 595.25,-501.09 607.15,-494.13 601.24,-482.61 613.25,-475.84 731.19,-409.39 797.57,-516.83 917,-453.09 938.48,-441.63 953.6,-416.13 960.82,-401.66"/>
<polygon fill="#9a32cd" stroke="#9a32cd" points="455.21,-522.69 444.99,-525.49 454.73,-529.67 455.21,-522.69"/>
</a>
</g>
<text xml:space="preserve" text-anchor="start" x="750.12" y="-582.34" font-family="Helvetica,sans-Serif" font-size="10.00" fill="grey">box</text>
<text xml:space="preserve" text-anchor="start" x="750.12" y="-565.59" font-family="Helvetica,sans-Serif" font-size="10.00" fill="grey">cmdln</text>
<text xml:space="preserve" text-anchor="start" x="750.12" y="-548.84" font-family="Helvetica,sans-Serif" font-size="10.00" fill="grey">lnno</text>
<text xml:space="preserve" text-anchor="start" x="750.12" y="-532.09" font-family="Helvetica,sans-Serif" font-size="10.00" fill="grey">mwin</text>
<text xml:space="preserve" text-anchor="start" x="750.12" y="-515.34" font-family="Helvetica,sans-Serif" font-size="10.00" fill="grey">pad</text>
<text xml:space="preserve" text-anchor="start" x="750.12" y="-498.59" font-family="Helvetica,sans-Serif" font-size="10.00" fill="grey">win</text>
<text xml:space="preserve" text-anchor="start" x="750.12" y="-481.84" font-family="Helvetica,sans-Serif" font-size="10.00" fill="grey">win2</text>
</g>
<!-- Node6 -->
<g id="Node000006" class="node">
<title>Node6</title>
<g id="a_Node000006"><a xlink:title=" ">
<polygon fill="white" stroke="#666666" points="595.25,-492.47 221.5,-492.47 221.5,-471.72 595.25,-471.72 595.25,-492.47"/>
<text xml:space="preserve" text-anchor="middle" x="408.38" y="-478.97" font-family="Helvetica,sans-Serif" font-size="10.00">anonymous:@353131070315370305211015324122105321162337357270</text>
</a>
</g>
</g>
<!-- Node6&#45;&gt;Node2 -->
<g id="edge5_Node000002_Node000006" class="edge">
<title>Node6&#45;&gt;Node2</title>
<g id="a_edge5_Node000002_Node000006"><a xlink:title=" ">
<path fill="none" stroke="#9a32cd" stroke-dasharray="5,2" d="M587.65,-466.42C590.24,-465.06 592.77,-463.62 595.25,-462.09 607.77,-454.39 600.61,-441.85 613.25,-434.34 671.46,-399.78 851.14,-426.74 917,-411.09 926.06,-408.94 935.62,-405.33 943.84,-401.76"/>
<polygon fill="#9a32cd" stroke="#9a32cd" points="586.34,-463.17 578.84,-470.65 589.37,-469.48 586.34,-463.17"/>
</a>
</g>
<text xml:space="preserve" text-anchor="start" x="616.25" y="-440.34" font-family="Helvetica,sans-Serif" font-size="10.00" fill="grey">@353131070315370305211015324122105321162337357270</text>
</g>
<!-- Node7&#45;&gt;Node2 -->
<g id="edge6_Node000002_Node000007" class="edge">
<title>Node7&#45;&gt;Node2</title>
<g id="a_edge6_Node000002_Node000007"><a xlink:title=" ">
<path fill="none" stroke="#9a32cd" stroke-dasharray="5,2" d="M454.04,-446.78C493.91,-447.93 552.45,-444.17 595.25,-418.09 607.17,-410.83 600.88,-398.82 613.25,-392.34 719.76,-336.6 870.37,-365.7 934.63,-382.23"/>
<polygon fill="#9a32cd" stroke="#9a32cd" points="454.21,-443.28 444.07,-446.36 453.91,-450.27 454.21,-443.28"/>
</a>
</g>
<text xml:space="preserve" text-anchor="start" x="746" y="-398.34" font-family="Helvetica,sans-Serif" font-size="10.00" fill="grey">runtime</text>
</g>
<!-- Node8 -->
<g id="Node000008" class="node">
<title>Node8</title>
<g id="a_Node000008"><a xlink:title=" ">
<polygon fill="white" stroke="#666666" points="82.75,-411.47 19.5,-411.47 19.5,-390.72 82.75,-390.72 82.75,-411.47"/>
<text xml:space="preserve" text-anchor="middle" x="51.12" y="-397.97" font-family="Helvetica,sans-Serif" font-size="10.00">SCREEN *</text>
</a>
</g>
</g>
<!-- Node8&#45;&gt;Node7 -->
<g id="edge7_Node000007_Node000008" class="edge">
<title>Node8&#45;&gt;Node7</title>
<g id="a_edge7_Node000007_Node000008"><a xlink:title=" ">
<path fill="none" stroke="#9a32cd" stroke-dasharray="5,2" d="M94.27,-406.08C165.77,-414.53 309.37,-431.51 374.23,-439.17"/>
<polygon fill="#9a32cd" stroke="#9a32cd" points="94.87,-402.62 84.53,-404.92 94.05,-409.57 94.87,-402.62"/>
</a>
</g>
<text xml:space="preserve" text-anchor="start" x="145.75" y="-424.33" font-family="Helvetica,sans-Serif" font-size="10.00" fill="grey">screen</text>
</g>
<!-- Node9 -->
<g id="Node000009" class="node">
<title>Node9</title>
<g id="a_Node000009"><a xlink:title=" ">
<polygon fill="white" stroke="#666666" points="73.38,-495.47 28.88,-495.47 28.88,-474.72 73.38,-474.72 73.38,-495.47"/>
<text xml:space="preserve" text-anchor="middle" x="51.12" y="-481.97" font-family="Helvetica,sans-Serif" font-size="10.00">FILE *</text>
</a>
</g>
</g>
<!-- Node9&#45;&gt;Node7 -->
<g id="edge8_Node000007_Node000009" class="edge">
<title>Node9&#45;&gt;Node7</title>
<g id="a_edge8_Node000007_Node000009"><a xlink:title=" ">
<path fill="none" stroke="#9a32cd" stroke-dasharray="5,2" d="M84.91,-480.62C119.01,-476.01 173.96,-468.74 221.5,-463.09 274.84,-456.76 336.9,-450.26 374.11,-446.45"/>
<polygon fill="#9a32cd" stroke="#9a32cd" points="84.7,-477.11 75.26,-481.92 85.64,-484.05 84.7,-477.11"/>
</a>
</g>
<text xml:space="preserve" text-anchor="start" x="147.62" y="-481.83" font-family="Helvetica,sans-Serif" font-size="10.00" fill="grey">tty_fp</text>
</g>
<!-- Node10 -->
<g id="Node000010" class="node">
<title>Node10</title>
<g id="a_Node000010"><a xlink:title=" ">
<polygon fill="white" stroke="#666666" points="69.62,-617.47 32.62,-617.47 32.62,-596.72 69.62,-596.72 69.62,-617.47"/>
<text xml:space="preserve" text-anchor="middle" x="51.12" y="-603.97" font-family="Helvetica,sans-Serif" font-size="10.00">bool</text>
</a>
</g>
</g>
<!-- Node10&#45;&gt;Node2 -->
<g id="edge15_Node000002_Node000010" class="edge">
<title>Node10&#45;&gt;Node2</title>
<g id="a_edge15_Node000002_Node000010"><a xlink:title=" ">
<path fill="none" stroke="#9a32cd" stroke-dasharray="5,2" d="M80.46,-619.96C198.84,-671.58 659.62,-850.91 917,-639.09 954.52,-608.21 963.51,-445.11 965.26,-401.71"/>
<polygon fill="#9a32cd" stroke="#9a32cd" points="82.04,-616.83 71.48,-615.99 79.21,-623.24 82.04,-616.83"/>
</a>
</g>
<text xml:space="preserve" text-anchor="start" x="391.88" y="-745.99" font-family="Helvetica,sans-Serif" font-size="10.00" fill="grey">hidden</text>
</g>
<!-- Node10&#45;&gt;Node7 -->
<g id="edge9_Node000007_Node000010" class="edge">
<title>Node10&#45;&gt;Node7</title>
<g id="a_edge9_Node000007_Node000010"><a xlink:title=" ">
<path fill="none" stroke="#9a32cd" stroke-dasharray="5,2" d="M79.94,-592.46C112.84,-574.04 167.65,-539.72 203.5,-498.09 214.91,-484.84 207.08,-472.99 221.5,-463.09 267.13,-431.78 334.43,-433.3 374.29,-437.82"/>
<polygon fill="#9a32cd" stroke="#9a32cd" points="78.49,-589.26 71.41,-597.14 81.86,-595.4 78.49,-589.26"/>
</a>
</g>
<text xml:space="preserve" text-anchor="start" x="123.25" y="-605.75" font-family="Helvetica,sans-Serif" font-size="10.00" fill="grey">alt_screen</text>
<text xml:space="preserve" text-anchor="start" x="123.25" y="-589" font-family="Helvetica,sans-Serif" font-size="10.00" fill="grey">cursor_visible</text>
<text xml:space="preserve" text-anchor="start" x="123.25" y="-572.25" font-family="Helvetica,sans-Serif" font-size="10.00" fill="grey">mouse_enabled</text>
</g>
<!-- Node11 -->
<g id="Node000011" class="node">
<title>Node11</title>
<g id="a_Node000011"><a xlink:title=" ">
<polygon fill="white" stroke="#666666" points="65.53,-188.47 36.73,-188.47 36.73,-167.72 65.53,-167.72 65.53,-188.47"/>
<text xml:space="preserve" text-anchor="middle" x="51.12" y="-174.97" font-family="Helvetica,sans-Serif" font-size="10.00">int</text>
</a>
</g>
</g>
<!-- Node11&#45;&gt;Node2 -->
<g id="edge14_Node000002_Node000011" class="edge">
<title>Node11&#45;&gt;Node2</title>
<g id="a_edge14_Node000002_Node000011"><a xlink:title=" ">
<path fill="none" stroke="#9a32cd" stroke-dasharray="5,2" d="M77.04,-175.1C154.46,-166.38 397.59,-143.58 595.25,-174.59 743.65,-197.87 805.85,-177.04 917,-278.09 948.13,-306.39 960.14,-358.05 964.03,-380.36"/>
<polygon fill="#9a32cd" stroke="#9a32cd" points="76.72,-171.61 67.18,-176.23 77.52,-178.56 76.72,-171.61"/>
</a>
</g>
<text xml:space="preserve" text-anchor="start" x="389.62" y="-264.34" font-family="Helvetica,sans-Serif" font-size="10.00" fill="grey">cols</text>
<text xml:space="preserve" text-anchor="start" x="389.62" y="-247.59" font-family="Helvetica,sans-Serif" font-size="10.00" fill="grey">lines</text>
<text xml:space="preserve" text-anchor="start" x="389.62" y="-230.84" font-family="Helvetica,sans-Serif" font-size="10.00" fill="grey">sfc_idx</text>
<text xml:space="preserve" text-anchor="start" x="389.62" y="-214.09" font-family="Helvetica,sans-Serif" font-size="10.00" fill="grey">sub_cnt</text>
<text xml:space="preserve" text-anchor="start" x="389.62" y="-197.34" font-family="Helvetica,sans-Serif" font-size="10.00" fill="grey">x</text>
<text xml:space="preserve" text-anchor="start" x="389.62" y="-180.59" font-family="Helvetica,sans-Serif" font-size="10.00" fill="grey">y</text>
</g>
<!-- Node11&#45;&gt;Node7 -->
<g id="edge10_Node000007_Node000011" class="edge">
<title>Node11&#45;&gt;Node7</title>
<g id="a_edge10_Node000007_Node000011"><a xlink:title=" ">
<path fill="none" stroke="#9a32cd" stroke-dasharray="5,2" d="M75.95,-189.97C110.34,-208.49 173.12,-247.68 203.5,-300.59 229.81,-346.41 183.8,-381.08 221.5,-418.09 261.69,-457.56 332.45,-455.1 374.1,-449.36"/>
<polygon fill="#9a32cd" stroke="#9a32cd" points="77.68,-186.93 67.19,-185.4 74.43,-193.13 77.68,-186.93"/>
</a>
</g>
<text xml:space="preserve" text-anchor="start" x="150.25" y="-323.34" font-family="Helvetica,sans-Serif" font-size="10.00" fill="grey">cols</text>
<text xml:space="preserve" text-anchor="start" x="150.25" y="-306.59" font-family="Helvetica,sans-Serif" font-size="10.00" fill="grey">lines</text>
</g>
<!-- Node12 -->
<g id="Node000012" class="node">
<title>Node12</title>
<g id="a_Node000012"><a xlink:title=" ">
<polygon fill="white" stroke="#666666" points="102.25,-453.47 0,-453.47 0,-432.72 102.25,-432.72 102.25,-453.47"/>
<text xml:space="preserve" text-anchor="middle" x="51.12" y="-439.97" font-family="Helvetica,sans-Serif" font-size="10.00">struct notcurses *</text>
</a>
</g>
</g>
<!-- Node12&#45;&gt;Node7 -->
<g id="edge12_Node000007_Node000012" class="edge">
<title>Node12&#45;&gt;Node7</title>
<g id="a_edge12_Node000007_Node000012"><a xlink:title=" ">
<path fill="none" stroke="#9a32cd" stroke-dasharray="5,2" d="M113.87,-443.09C189.42,-443.09 314.59,-443.09 374.04,-443.09"/>
<polygon fill="#9a32cd" stroke="#9a32cd" points="114.16,-439.59 104.16,-443.09 114.16,-446.59 114.16,-439.59"/>
</a>
</g>
<text xml:space="preserve" text-anchor="start" x="156.25" y="-449.09" font-family="Helvetica,sans-Serif" font-size="10.00" fill="grey">nc</text>
</g>
<!-- Node13 -->
<g id="Node000013" class="node">
<title>Node13</title>
<g id="a_Node000013"><a xlink:title=" ">
<polygon fill="white" stroke="#666666" points="426.88,-115.47 389.88,-115.47 389.88,-94.72 426.88,-94.72 426.88,-115.47"/>
<text xml:space="preserve" text-anchor="middle" x="408.38" y="-101.97" font-family="Helvetica,sans-Serif" font-size="10.00">char</text>
</a>
</g>
</g>
<!-- Node13&#45;&gt;Node2 -->
<g id="edge16_Node000002_Node000013" class="edge">
<title>Node13&#45;&gt;Node2</title>
<g id="a_edge16_Node000002_Node000013"><a xlink:title=" ">
<path fill="none" stroke="#9a32cd" stroke-dasharray="5,2" d="M438.68,-103.03C541.35,-96.09 880.51,-75.72 917,-106.59 959.75,-142.76 964.92,-332.62 965.54,-380.25"/>
<polygon fill="#9a32cd" stroke="#9a32cd" points="438.62,-99.53 428.88,-103.7 439.1,-106.51 438.62,-99.53"/>
</a>
</g>
<text xml:space="preserve" text-anchor="start" x="751.25" y="-129.34" font-family="Helvetica,sans-Serif" font-size="10.00" fill="grey">name</text>
<text xml:space="preserve" text-anchor="start" x="751.25" y="-112.59" font-family="Helvetica,sans-Serif" font-size="10.00" fill="grey">title</text>
</g>
<!-- Node14 -->
<g id="Node000014" class="node">
<title>Node14</title>
<g id="a_Node000014"><a xlink:title=" ">
<polygon fill="white" stroke="#666666" points="455,-73.47 361.75,-73.47 361.75,-52.72 455,-52.72 455,-73.47"/>
<text xml:space="preserve" text-anchor="middle" x="408.38" y="-59.97" font-family="Helvetica,sans-Serif" font-size="10.00">struct ncplane *</text>
</a>
</g>
</g>
<!-- Node14&#45;&gt;Node2 -->
<g id="edge17_Node000002_Node000014" class="edge">
<title>Node14&#45;&gt;Node2</title>
<g id="a_edge17_Node000002_Node000014"><a xlink:title=" ">
<path fill="none" stroke="#9a32cd" stroke-dasharray="5,2" d="M448.27,-48.48C541.88,-16.1 781.91,49.96 917,-67.34 965.49,-109.45 966.26,-329.53 965.78,-380.53"/>
<polygon fill="#9a32cd" stroke="#9a32cd" points="447.29,-45.11 439.03,-51.74 449.62,-51.71 447.29,-45.11"/>
</a>
</g>
<text xml:space="preserve" text-anchor="start" x="751.62" y="-73.34" font-family="Helvetica,sans-Serif" font-size="10.00" fill="grey">plane</text>
</g>
</g>
</svg>

<g id="navigator" transform="translate(0 0)" fill="#404254">
  <rect fill="#f2f5e9" fill-opacity="0.5" stroke="#606060" stroke-width=".5" x="0" y="0" width="60" height="60"/>
  <use id="zoomplus" xlink:href="#zoomPlus" x="17" y="9" onmousedown="handleZoom(evt,'in')"/>
  <use id="zoomminus" xlink:href="#zoomMin" x="42" y="9" onmousedown="handleZoom(evt,'out')"/>
  <use id="reset" xlink:href="#resetDef" x="30" y="36" onmousedown="handleReset()"/>
   <use id="arrowup" xlink:href="#arrowUp" x="0" y="0" onmousedown="handlePan(0,-1)"/>
  <use id="arrowright" xlink:href="#arrowRight" x="0" y="0" onmousedown="handlePan(1,0)"/>
  <use id="arrowdown" xlink:href="#arrowDown" x="0" y="0" onmousedown="handlePan(0,1)"/>
  <use id="arrowleft" xlink:href="#arrowLeft" x="0" y="0" onmousedown="handlePan(-1,0)"/>
</g>
<svg viewBox="0 0 15 15" width="100%" height="30px" preserveAspectRatio="xMaxYMin meet">
 <g id="arrow_out" transform="scale(0.3 0.3)">
  <a xlink:href="a02692_org.svg" target="_base">
   <rect id="button" ry="5" rx="5" y="6" x="6" height="38" width="38"
        fill="#f2f5e9" fill-opacity="0.5" stroke="#606060" stroke-width="1.0"/>
   <path id="arrow"
     d="M 11.500037,31.436501 C 11.940474,20.09759 22.043105,11.32322 32.158766,21.979434 L 37.068811,17.246167 C 37.068811,17.246167 37.088388,32 37.088388,32 L 22.160133,31.978069 C 22.160133,31.978069 26.997745,27.140456 26.997745,27.140456 C 18.528582,18.264221 13.291696,25.230495 11.500037,31.436501 z"
     style="fill:#404040;"/>
  </a>
 </g>
</svg>

<style type='text/css'>
<![CDATA[
[data-mouse-over-selected='false'] { opacity: 0.7; }
[data-mouse-over-selected='true']  { opacity: 1.0; }
]]>
</style>
<script type="application/ecmascript"><![CDATA[
document.addEventListener('DOMContentLoaded', (event) => {
  highlightEdges();
  highlightAdjacentNodes();
});
]]></script>
</svg>
