<?xml version="1.0" encoding="UTF-8" standalone="no"?>
<!DOCTYPE svg PUBLIC "-//W3C//DTD SVG 1.1//EN"
 "http://www.w3.org/Graphics/SVG/1.1/DTD/svg11.dtd">
<!-- Generated by graphviz version 14.1.2 (0)
 -->
<!-- Title: init_pick_files Pages: 1 -->
<svg width="1055pt" height="880pt"
 viewBox="0.00 0.00 1055.00 880.00" xmlns="http://www.w3.org/2000/svg" xmlns:xlink="http://www.w3.org/1999/xlink">
<g id="graph0" class="graph" transform="scale(1 1) rotate(0) translate(4 876.18)">
<title>init_pick_files</title>
<!-- Node1 -->
<g id="Node000001" class="node">
<title>Node1</title>
<g id="a_Node000001"><a xlink:title="Initialize Pick file specifications.">
<polygon fill="#999999" stroke="#666666" points="83.5,-801.18 0,-801.18 0,-780.43 83.5,-780.43 83.5,-801.18"/>
<text xml:space="preserve" text-anchor="middle" x="41.75" y="-787.68" font-family="Helvetica,sans-Serif" font-size="10.00">init_pick_files</text>
</a>
</g>
</g>
<!-- Node2 -->
<g id="Node000002" class="node">
<title>Node2</title>
<g id="a_Node000002"><a xlink:href="../../d0/d59/futil_8c.html#ae3d67c8c0b5b559664942e539256605b" target="_top" xlink:title="Returns the base name of a file specification.">
<polygon fill="white" stroke="#666666" points="202.25,-872.18 130,-872.18 130,-851.43 202.25,-851.43 202.25,-872.18"/>
<text xml:space="preserve" text-anchor="middle" x="166.12" y="-858.68" font-family="Helvetica,sans-Serif" font-size="10.00">base_name</text>
</a>
</g>
</g>
<!-- Node1&#45;&gt;Node2 -->
<g id="edge1_Node000001_Node000002" class="edge">
<title>Node1&#45;&gt;Node2</title>
<g id="a_edge1_Node000001_Node000002"><a xlink:title=" ">
<path fill="none" stroke="#63b8ff" d="M59.63,-801.58C75.06,-811.33 98.58,-825.92 119.5,-837.81 124.21,-840.49 129.25,-843.24 134.19,-845.89"/>
<polygon fill="#63b8ff" stroke="#63b8ff" points="132.26,-848.82 142.73,-850.39 135.52,-842.63 132.26,-848.82"/>
</a>
</g>
</g>
<!-- Node3 -->
<g id="Node000003" class="node">
<title>Node3</title>
<g id="a_Node000003"><a xlink:href="../../d0/d59/futil_8c.html#a02792428710078b7a2ca59ef70ae83fa" target="_top" xlink:title="Locates a file in the system PATH.">
<polygon fill="white" stroke="#666666" points="357,-730.18 248.75,-730.18 248.75,-709.43 357,-709.43 357,-730.18"/>
<text xml:space="preserve" text-anchor="middle" x="302.88" y="-716.68" font-family="Helvetica,sans-Serif" font-size="10.00">locate_file_in_path</text>
</a>
</g>
</g>
<!-- Node1&#45;&gt;Node3 -->
<g id="edge2_Node000001_Node000003" class="edge">
<title>Node1&#45;&gt;Node3</title>
<g id="a_edge2_Node000001_Node000003"><a xlink:title=" ">
<path fill="none" stroke="#63b8ff" d="M82.39,-779.95C127.63,-767.55 201.75,-747.24 251.17,-733.7"/>
<polygon fill="#63b8ff" stroke="#63b8ff" points="252.06,-737.09 260.78,-731.07 250.21,-730.34 252.06,-737.09"/>
</a>
</g>
</g>
<!-- Node5 -->
<g id="Node000005" class="node">
<title>Node5</title>
<g id="a_Node000005"><a xlink:href="../../d0/d59/futil_8c.html#a0de2e40df9bd7efc8fd9afb8ad2257e6" target="_top" xlink:title="safer alternative to strncpy">
<polygon fill="white" stroke="#666666" points="890.88,-511.18 823.12,-511.18 823.12,-490.43 890.88,-490.43 890.88,-511.18"/>
<text xml:space="preserve" text-anchor="middle" x="857" y="-497.68" font-family="Helvetica,sans-Serif" font-size="10.00">strnz__cpy</text>
</a>
</g>
</g>
<!-- Node1&#45;&gt;Node5 -->
<g id="edge7_Node000001_Node000005" class="edge">
<title>Node1&#45;&gt;Node5</title>
<g id="a_edge7_Node000001_Node000005"><a xlink:title=" ">
<path fill="none" stroke="#63b8ff" d="M83.83,-799.31C134.76,-809.09 224.33,-823.81 301.88,-823.81 301.88,-823.81 301.88,-823.81 602.12,-823.81 688.24,-823.81 719.47,-803.55 776.25,-738.81 832.73,-674.41 849.49,-568.6 854.23,-522.93"/>
<polygon fill="#63b8ff" stroke="#63b8ff" points="857.72,-523.28 855.15,-513 850.75,-522.64 857.72,-523.28"/>
</a>
</g>
</g>
<!-- Node7 -->
<g id="Node000007" class="node">
<title>Node7</title>
<g id="a_Node000007"><a xlink:href="../../d3/d8f/mem_8c.html#a75ce293fe4e007a3337a190647408000" target="_top" xlink:title="Verify file specification argument.">
<polygon fill="white" stroke="#666666" points="212.75,-616.18 119.5,-616.18 119.5,-595.43 212.75,-595.43 212.75,-616.18"/>
<text xml:space="preserve" text-anchor="middle" x="166.12" y="-602.68" font-family="Helvetica,sans-Serif" font-size="10.00">verify_spec_arg</text>
</a>
</g>
</g>
<!-- Node1&#45;&gt;Node7 -->
<g id="edge8_Node000001_Node000007" class="edge">
<title>Node1&#45;&gt;Node7</title>
<g id="a_edge8_Node000001_Node000007"><a xlink:title=" ">
<path fill="none" stroke="#63b8ff" d="M49.86,-780.06C69.67,-750.11 125.75,-665.33 151.68,-626.14"/>
<polygon fill="#63b8ff" stroke="#63b8ff" points="154.56,-628.12 157.16,-617.85 148.73,-624.26 154.56,-628.12"/>
</a>
</g>
</g>
<!-- Node4 -->
<g id="Node000004" class="node">
<title>Node4</title>
<g id="a_Node000004"><a xlink:href="../../d0/d59/futil_8c.html#a0d44c51feb7f300fecb49dbf223a62f8" target="_top" xlink:title="Removes quotes and trims at first space.">
<polygon fill="white" stroke="#666666" points="518.5,-682.18 393,-682.18 393,-661.43 518.5,-661.43 518.5,-682.18"/>
<text xml:space="preserve" text-anchor="middle" x="455.75" y="-668.68" font-family="Helvetica,sans-Serif" font-size="10.00">canonicalize_file_spec</text>
</a>
</g>
</g>
<!-- Node3&#45;&gt;Node4 -->
<g id="edge3_Node000003_Node000004" class="edge">
<title>Node3&#45;&gt;Node4</title>
<g id="a_edge3_Node000003_Node000004"><a xlink:title=" ">
<path fill="none" stroke="#63b8ff" d="M337.73,-709.04C359.01,-702.27 386.71,-693.46 409.82,-686.1"/>
<polygon fill="#63b8ff" stroke="#63b8ff" points="410.83,-689.45 419.3,-683.09 408.71,-682.78 410.83,-689.45"/>
</a>
</g>
</g>
<!-- Node3&#45;&gt;Node5 -->
<g id="edge6_Node000003_Node000005" class="edge">
<title>Node3&#45;&gt;Node5</title>
<g id="a_edge6_Node000003_Node000005"><a xlink:title=" ">
<path fill="none" stroke="#63b8ff" d="M338,-730.62C422.37,-755.06 643.54,-804.85 776.25,-702.81 834.22,-658.24 850.13,-565.27 854.43,-522.81"/>
<polygon fill="#63b8ff" stroke="#63b8ff" points="857.92,-523.14 855.3,-512.87 850.94,-522.53 857.92,-523.14"/>
</a>
</g>
</g>
<!-- Node6 -->
<g id="Node000006" class="node">
<title>Node6</title>
<g id="a_Node000006"><a xlink:href="../../d0/d59/futil_8c.html#aa0145c044cfdde3a1c83323410a59f25" target="_top" xlink:title="safer alternative to strncat">
<polygon fill="white" stroke="#666666" points="762.75,-663.18 697.25,-663.18 697.25,-642.43 762.75,-642.43 762.75,-663.18"/>
<text xml:space="preserve" text-anchor="middle" x="730" y="-649.68" font-family="Helvetica,sans-Serif" font-size="10.00">strnz__cat</text>
</a>
</g>
</g>
<!-- Node3&#45;&gt;Node6 -->
<g id="edge5_Node000003_Node000006" class="edge">
<title>Node3&#45;&gt;Node6</title>
<g id="a_edge5_Node000003_Node000006"><a xlink:title=" ">
<path fill="none" stroke="#63b8ff" d="M357.4,-719.25C425.73,-717.46 547.14,-710.66 647.75,-685.81 664.64,-681.64 682.64,-674.62 697.39,-668.12"/>
<polygon fill="#63b8ff" stroke="#63b8ff" points="698.46,-671.48 706.12,-664.15 695.57,-665.1 698.46,-671.48"/>
</a>
</g>
</g>
<!-- Node4&#45;&gt;Node5 -->
<g id="edge4_Node000004_Node000005" class="edge">
<title>Node4&#45;&gt;Node5</title>
<g id="a_edge4_Node000004_Node000005"><a xlink:title=" ">
<path fill="none" stroke="#63b8ff" d="M487.55,-682.54C548.96,-701.82 688.31,-734.79 776.25,-671.81 826.5,-635.83 846,-560 852.78,-522.6"/>
<polygon fill="#63b8ff" stroke="#63b8ff" points="856.19,-523.44 854.37,-513 849.28,-522.3 856.19,-523.44"/>
</a>
</g>
</g>
<!-- Node7&#45;&gt;Node3 -->
<g id="edge13_Node000007_Node000003" class="edge">
<title>Node7&#45;&gt;Node3</title>
<g id="a_edge13_Node000007_Node000003"><a xlink:title=" ">
<path fill="none" stroke="#63b8ff" d="M174.56,-616.55C187.7,-634.87 216.69,-672.47 248.75,-695.81 252.87,-698.81 257.41,-701.55 262.07,-704.03"/>
<polygon fill="#63b8ff" stroke="#63b8ff" points="260.41,-707.11 270.93,-708.35 263.48,-700.82 260.41,-707.11"/>
</a>
</g>
</g>
<!-- Node7&#45;&gt;Node4 -->
<g id="edge9_Node000007_Node000004" class="edge">
<title>Node7&#45;&gt;Node4</title>
<g id="a_edge9_Node000007_Node000004"><a xlink:title=" ">
<path fill="none" stroke="#63b8ff" d="M178.12,-616.64C192.79,-630.3 220.27,-653.16 248.75,-662.81 291.12,-677.16 341.21,-679.65 381.38,-678.43"/>
<polygon fill="#63b8ff" stroke="#63b8ff" points="381.34,-681.94 391.19,-678.04 381.06,-674.94 381.34,-681.94"/>
</a>
</g>
</g>
<!-- Node7&#45;&gt;Node5 -->
<g id="edge16_Node000007_Node000005" class="edge">
<title>Node7&#45;&gt;Node5</title>
<g id="a_edge16_Node000007_Node000005"><a xlink:title=" ">
<path fill="none" stroke="#63b8ff" d="M206.33,-595.04C261.37,-580.89 364.89,-557.81 454.75,-557.81 454.75,-557.81 454.75,-557.81 602.12,-557.81 679.45,-557.81 766.87,-532.33 816.31,-515.44"/>
<polygon fill="#63b8ff" stroke="#63b8ff" points="817.43,-518.76 825.73,-512.16 815.13,-512.14 817.43,-518.76"/>
</a>
</g>
</g>
<!-- Node7&#45;&gt;Node6 -->
<g id="edge15_Node000007_Node000006" class="edge">
<title>Node7&#45;&gt;Node6</title>
<g id="a_edge15_Node000007_Node000006"><a xlink:title=" ">
<path fill="none" stroke="#63b8ff" d="M212.95,-610.36C311.83,-620.18 537.7,-642.55 554.5,-643.81 599.07,-647.14 650.14,-649.62 685.47,-651.12"/>
<polygon fill="#63b8ff" stroke="#63b8ff" points="685.16,-654.61 695.3,-651.53 685.45,-647.62 685.16,-654.61"/>
</a>
</g>
</g>
<!-- Node8 -->
<g id="Node000008" class="node">
<title>Node8</title>
<g id="a_Node000008"><a xlink:href="../../d0/d59/futil_8c.html#ad7f9941ba28a6cca3ccce953c4d77e32" target="_top" xlink:title="Replace Leading Tilde With Home Directory.">
<polygon fill="white" stroke="#666666" points="495.25,-530.18 416.25,-530.18 416.25,-509.43 495.25,-509.43 495.25,-530.18"/>
<text xml:space="preserve" text-anchor="middle" x="455.75" y="-516.68" font-family="Helvetica,sans-Serif" font-size="10.00">expand_tilde</text>
</a>
</g>
</g>
<!-- Node7&#45;&gt;Node8 -->
<g id="edge10_Node000007_Node000008" class="edge">
<title>Node7&#45;&gt;Node8</title>
<g id="a_edge10_Node000007_Node000008"><a xlink:title=" ">
<path fill="none" stroke="#63b8ff" d="M177.06,-595.34C191.38,-580.99 219.37,-555.64 248.75,-543.81 299.23,-523.48 361.91,-518.79 404.79,-518.36"/>
<polygon fill="#63b8ff" stroke="#63b8ff" points="404.55,-521.86 414.54,-518.34 404.54,-514.86 404.55,-521.86"/>
</a>
</g>
</g>
<!-- Node9 -->
<g id="Node000009" class="node">
<title>Node9</title>
<g id="a_Node000009"><a xlink:href="../../d0/d59/futil_8c.html#a32204f694cf5e28c888a1045a1b383a4" target="_top" xlink:title="removes leading and trailing double quotes if present">
<polygon fill="white" stroke="#666666" points="343.5,-654.18 262.25,-654.18 262.25,-633.43 343.5,-633.43 343.5,-654.18"/>
<text xml:space="preserve" text-anchor="middle" x="302.88" y="-640.68" font-family="Helvetica,sans-Serif" font-size="10.00">stripz_quotes</text>
</a>
</g>
</g>
<!-- Node7&#45;&gt;Node9 -->
<g id="edge14_Node000007_Node000009" class="edge">
<title>Node7&#45;&gt;Node9</title>
<g id="a_edge14_Node000007_Node000009"><a xlink:title=" ">
<path fill="none" stroke="#63b8ff" d="M205.38,-616.6C220.03,-620.73 236.96,-625.5 252.5,-629.89"/>
<polygon fill="#63b8ff" stroke="#63b8ff" points="251.49,-633.24 262.07,-632.58 253.39,-626.5 251.49,-633.24"/>
</a>
</g>
</g>
<!-- Node10 -->
<g id="Node000010" class="node">
<title>Node10</title>
<g id="a_Node000010"><a xlink:href="../../d0/d59/futil_8c.html#ae14a4e790b69c8c2e50d1eb5cdf1fd19" target="_top" xlink:title="Verifies that the directory specified by &quot;spec&quot; exists and is accessible with the permissions specifi...">
<polygon fill="white" stroke="#666666" points="334.12,-416.18 271.62,-416.18 271.62,-395.43 334.12,-395.43 334.12,-416.18"/>
<text xml:space="preserve" text-anchor="middle" x="302.88" y="-402.68" font-family="Helvetica,sans-Serif" font-size="10.00">verify_dir</text>
</a>
</g>
</g>
<!-- Node7&#45;&gt;Node10 -->
<g id="edge17_Node000007_Node000010" class="edge">
<title>Node7&#45;&gt;Node10</title>
<g id="a_edge17_Node000007_Node000010"><a xlink:title=" ">
<path fill="none" stroke="#63b8ff" d="M172.09,-595.25C183.8,-570.85 214.69,-509.09 248.75,-462.81 258.87,-449.05 271.93,-435 282.57,-424.29"/>
<polygon fill="#63b8ff" stroke="#63b8ff" points="284.74,-427.07 289.4,-417.55 279.82,-422.09 284.74,-427.07"/>
</a>
</g>
</g>
<!-- Node28 -->
<g id="Node000028" class="node">
<title>Node28</title>
<g id="a_Node000028"><a xlink:href="../../d0/d59/futil_8c.html#ab190e75e095b7d3da114fce21ab8c8ea" target="_top" xlink:title="Verifies that the file specified by &quot;in_spec&quot; exists and is accessible with the permissions specified...">
<polygon fill="white" stroke="#666666" points="335.62,-492.18 270.12,-492.18 270.12,-471.43 335.62,-471.43 335.62,-492.18"/>
<text xml:space="preserve" text-anchor="middle" x="302.88" y="-478.68" font-family="Helvetica,sans-Serif" font-size="10.00">verify_file</text>
</a>
</g>
</g>
<!-- Node7&#45;&gt;Node28 -->
<g id="edge49_Node000007_Node000028" class="edge">
<title>Node7&#45;&gt;Node28</title>
<g id="a_edge49_Node000007_Node000028"><a xlink:title=" ">
<path fill="none" stroke="#63b8ff" d="M173.48,-595.1C185.78,-575.17 214.63,-532.03 248.75,-505.81 252.69,-502.78 257.08,-500.03 261.6,-497.56"/>
<polygon fill="#63b8ff" stroke="#63b8ff" points="262.8,-500.87 270.21,-493.29 259.69,-494.6 262.8,-500.87"/>
</a>
</g>
</g>
<!-- Node8&#45;&gt;Node5 -->
<g id="edge12_Node000008_Node000005" class="edge">
<title>Node8&#45;&gt;Node5</title>
<g id="a_edge12_Node000008_Node000005"><a xlink:title=" ">
<path fill="none" stroke="#63b8ff" d="M495.39,-517.97C569.76,-514.43 732.37,-506.69 811.28,-502.94"/>
<polygon fill="#63b8ff" stroke="#63b8ff" points="811.41,-506.44 821.23,-502.46 811.08,-499.44 811.41,-506.44"/>
</a>
</g>
</g>
<!-- Node8&#45;&gt;Node6 -->
<g id="edge11_Node000008_Node000006" class="edge">
<title>Node8&#45;&gt;Node6</title>
<g id="a_edge11_Node000008_Node000006"><a xlink:title=" ">
<path fill="none" stroke="#63b8ff" d="M464.52,-530.62C479.5,-550.62 514.47,-593.31 554.5,-614.81 595.66,-636.91 648.83,-646.16 685.6,-650.03"/>
<polygon fill="#63b8ff" stroke="#63b8ff" points="685.14,-653.5 695.43,-650.96 685.8,-646.53 685.14,-653.5"/>
</a>
</g>
</g>
<!-- Node10&#45;&gt;Node5 -->
<g id="edge48_Node000010_Node000005" class="edge">
<title>Node10&#45;&gt;Node5</title>
<g id="a_edge48_Node000010_Node000005"><a xlink:title=" ">
<path fill="none" stroke="#63b8ff" d="M334.35,-411.05C426.61,-426.93 703.25,-474.53 811.69,-493.19"/>
<polygon fill="#63b8ff" stroke="#63b8ff" points="810.92,-496.6 821.37,-494.85 812.11,-489.71 810.92,-496.6"/>
</a>
</g>
</g>
<!-- Node10&#45;&gt;Node8 -->
<g id="edge46_Node000010_Node000008" class="edge">
<title>Node10&#45;&gt;Node8</title>
<g id="a_edge46_Node000010_Node000008"><a xlink:title=" ">
<path fill="none" stroke="#63b8ff" d="M318.07,-416.53C344.13,-436.22 399.83,-478.31 431.49,-502.23"/>
<polygon fill="#63b8ff" stroke="#63b8ff" points="429.19,-504.88 439.28,-508.12 433.41,-499.3 429.19,-504.88"/>
</a>
</g>
</g>
<!-- Node11 -->
<g id="Node000011" class="node">
<title>Node11</title>
<g id="a_Node000011"><a xlink:href="../../dc/d40/dwin_8c.html#a67659f8a701b74f4dec0d36227a10d1c" target="_top" xlink:title="Display an error message window or print to stderr.">
<polygon fill="white" stroke="#666666" points="495.62,-300.18 415.88,-300.18 415.88,-279.43 495.62,-279.43 495.62,-300.18"/>
<text xml:space="preserve" text-anchor="middle" x="455.75" y="-286.68" font-family="Helvetica,sans-Serif" font-size="10.00">display_error</text>
</a>
</g>
</g>
<!-- Node10&#45;&gt;Node11 -->
<g id="edge18_Node000010_Node000011" class="edge">
<title>Node10&#45;&gt;Node11</title>
<g id="a_edge18_Node000010_Node000011"><a xlink:title=" ">
<path fill="none" stroke="#63b8ff" d="M317.8,-395.1C343.85,-375.08 400.17,-331.77 431.87,-307.4"/>
<polygon fill="#63b8ff" stroke="#63b8ff" points="433.87,-310.28 439.66,-301.41 429.6,-304.73 433.87,-310.28"/>
</a>
</g>
</g>
<!-- Node20 -->
<g id="Node000020" class="node">
<title>Node20</title>
<g id="a_Node000020"><a xlink:href="../../d0/d59/futil_8c.html#a63eb94756fb011a456a3dec900709cd8" target="_top" xlink:title="ssnprintf was designed to be a safer alternative to snprintf.">
<polygon fill="white" stroke="#666666" points="886.38,-109.18 827.62,-109.18 827.62,-88.43 886.38,-88.43 886.38,-109.18"/>
<text xml:space="preserve" text-anchor="middle" x="857" y="-95.68" font-family="Helvetica,sans-Serif" font-size="10.00">ssnprintf</text>
</a>
</g>
</g>
<!-- Node10&#45;&gt;Node20 -->
<g id="edge47_Node000010_Node000020" class="edge">
<title>Node10&#45;&gt;Node20</title>
<g id="a_edge47_Node000010_Node000020"><a xlink:title=" ">
<path fill="none" stroke="#63b8ff" d="M307.05,-395.27C323.09,-344.2 400.56,-121.62 554.5,-41.81 646.69,5.99 773.3,-52.06 828.46,-82.47"/>
<polygon fill="#63b8ff" stroke="#63b8ff" points="826.46,-85.36 836.88,-87.23 829.9,-79.26 826.46,-85.36"/>
</a>
</g>
</g>
<!-- Node11&#45;&gt;Node5 -->
<g id="edge34_Node000011_Node000005" class="edge">
<title>Node11&#45;&gt;Node5</title>
<g id="a_edge34_Node000011_Node000005"><a xlink:title=" ">
<path fill="none" stroke="#63b8ff" d="M465,-300.66C480.51,-320.38 515.95,-362.33 554.5,-386.81 643.07,-443.07 678.47,-429.74 776.25,-467.81 790.68,-473.43 806.46,-479.89 820.15,-485.6"/>
<polygon fill="#63b8ff" stroke="#63b8ff" points="818.64,-488.76 829.21,-489.4 821.34,-482.3 818.64,-488.76"/>
</a>
</g>
</g>
<!-- Node12 -->
<g id="Node000012" class="node">
<title>Node12</title>
<g id="a_Node000012"><a xlink:href="../../dc/d40/dwin_8c.html#a8f6c45ca4a7f6a41c4c88314e697565a" target="_top" xlink:title="Abnormal program termination.">
<polygon fill="white" stroke="#666666" points="753,-222.18 707,-222.18 707,-201.43 753,-201.43 753,-222.18"/>
<text xml:space="preserve" text-anchor="middle" x="730" y="-208.68" font-family="Helvetica,sans-Serif" font-size="10.00">abend</text>
</a>
</g>
</g>
<!-- Node11&#45;&gt;Node12 -->
<g id="edge19_Node000011_Node000012" class="edge">
<title>Node11&#45;&gt;Node12</title>
<g id="a_edge19_Node000011_Node000012"><a xlink:title=" ">
<path fill="none" stroke="#63b8ff" d="M470.4,-279.14C488.5,-265.62 521.96,-242.77 554.5,-231.81 601.62,-215.94 659.52,-212.17 695.34,-211.53"/>
<polygon fill="#63b8ff" stroke="#63b8ff" points="695.11,-215.03 705.08,-211.43 695.04,-208.03 695.11,-215.03"/>
</a>
</g>
</g>
<!-- Node16 -->
<g id="Node000016" class="node">
<title>Node16</title>
<g id="a_Node000016"><a xlink:href="../../dc/d40/dwin_8c.html#a645871e46277e31736bc36d0f3dce4bd" target="_top" xlink:title="construct the chyron string from the chyron structure">
<polygon fill="white" stroke="#666666" points="647.75,-606.18 554.5,-606.18 554.5,-585.43 647.75,-585.43 647.75,-606.18"/>
<text xml:space="preserve" text-anchor="middle" x="601.12" y="-592.68" font-family="Helvetica,sans-Serif" font-size="10.00">compile_chyron</text>
</a>
</g>
</g>
<!-- Node11&#45;&gt;Node16 -->
<g id="edge25_Node000011_Node000016" class="edge">
<title>Node11&#45;&gt;Node16</title>
<g id="a_edge25_Node000011_Node000016"><a xlink:title=" ">
<path fill="none" stroke="#63b8ff" d="M461.69,-300.34C482.36,-344.47 562.25,-514.98 590.31,-574.87"/>
<polygon fill="#63b8ff" stroke="#63b8ff" points="587.01,-576.06 594.42,-583.63 593.35,-573.09 587.01,-576.06"/>
</a>
</g>
</g>
<!-- Node17 -->
<g id="Node000017" class="node">
<title>Node17</title>
<g id="a_Node000017"><a xlink:href="../../dc/d40/dwin_8c.html#a3f3feb40fd703913c5c136331f627c91" target="_top" xlink:title="Destroy Chyron structure.">
<polygon fill="white" stroke="#666666" points="646.62,-71.18 555.62,-71.18 555.62,-50.43 646.62,-50.43 646.62,-71.18"/>
<text xml:space="preserve" text-anchor="middle" x="601.12" y="-57.68" font-family="Helvetica,sans-Serif" font-size="10.00">destroy_chyron</text>
</a>
</g>
</g>
<!-- Node11&#45;&gt;Node17 -->
<g id="edge27_Node000011_Node000017" class="edge">
<title>Node11&#45;&gt;Node17</title>
<g id="a_edge27_Node000011_Node000017"><a xlink:title=" ">
<path fill="none" stroke="#63b8ff" d="M459.29,-279.06C467.55,-246.11 496.57,-145.07 554.5,-84.81 557.04,-82.16 559.94,-79.75 563.02,-77.56"/>
<polygon fill="#63b8ff" stroke="#63b8ff" points="564.62,-80.68 571.31,-72.46 560.95,-74.72 564.62,-80.68"/>
</a>
</g>
</g>
<!-- Node18 -->
<g id="Node000018" class="node">
<title>Node18</title>
<g id="a_Node000018"><a xlink:href="../../dc/d40/dwin_8c.html#ad37d5808ff30ae6894780425d865abae" target="_top" xlink:title="Create and initialize Chyron structure.">
<polygon fill="white" stroke="#666666" points="638.38,-185.18 563.88,-185.18 563.88,-164.43 638.38,-164.43 638.38,-185.18"/>
<text xml:space="preserve" text-anchor="middle" x="601.12" y="-171.68" font-family="Helvetica,sans-Serif" font-size="10.00">new_chyron</text>
</a>
</g>
</g>
<!-- Node11&#45;&gt;Node18 -->
<g id="edge28_Node000011_Node000018" class="edge">
<title>Node11&#45;&gt;Node18</title>
<g id="a_edge28_Node000011_Node000018"><a xlink:title=" ">
<path fill="none" stroke="#63b8ff" d="M466.52,-279.01C483.28,-260.89 519.14,-223.89 554.5,-198.81 558.36,-196.07 562.57,-193.44 566.83,-190.99"/>
<polygon fill="#63b8ff" stroke="#63b8ff" points="568.24,-194.21 575.35,-186.35 564.89,-188.06 568.24,-194.21"/>
</a>
</g>
</g>
<!-- Node19 -->
<g id="Node000019" class="node">
<title>Node19</title>
<g id="a_Node000019"><a xlink:href="../../dc/d40/dwin_8c.html#a208ce92c197fdd6d2b007987e534aa3b" target="_top" xlink:title="Set chyron key.">
<polygon fill="white" stroke="#666666" points="775.88,-147.18 684.12,-147.18 684.12,-126.43 775.88,-126.43 775.88,-147.18"/>
<text xml:space="preserve" text-anchor="middle" x="730" y="-133.68" font-family="Helvetica,sans-Serif" font-size="10.00">set_chyron_key</text>
</a>
</g>
</g>
<!-- Node11&#45;&gt;Node19 -->
<g id="edge30_Node000011_Node000019" class="edge">
<title>Node11&#45;&gt;Node19</title>
<g id="a_edge30_Node000011_Node000019"><a xlink:title=" ">
<path fill="none" stroke="#63b8ff" d="M460.92,-279.11C471.77,-252.85 503.65,-185.23 554.5,-155.81 589.96,-135.29 636.31,-131.08 672.32,-131.71"/>
<polygon fill="#63b8ff" stroke="#63b8ff" points="672.01,-135.21 682.11,-132.03 672.23,-128.21 672.01,-135.21"/>
</a>
</g>
</g>
<!-- Node11&#45;&gt;Node20 -->
<g id="edge32_Node000011_Node000020" class="edge">
<title>Node11&#45;&gt;Node20</title>
<g id="a_edge32_Node000011_Node000020"><a xlink:title=" ">
<path fill="none" stroke="#63b8ff" d="M459.55,-279.13C468.02,-249.22 496.4,-164.39 554.5,-127.81 635.81,-76.62 754.65,-83.73 816.02,-91.99"/>
<polygon fill="#63b8ff" stroke="#63b8ff" points="815.25,-95.42 825.65,-93.38 816.25,-88.49 815.25,-95.42"/>
</a>
</g>
</g>
<!-- Node21 -->
<g id="Node000021" class="node">
<title>Node21</title>
<g id="a_Node000021"><a xlink:href="../../d0/d59/futil_8c.html#a636608f26d1193b5d860f2312cd8ee49" target="_top" xlink:title="terminates string at New Line, Carriage Return, or max_len">
<polygon fill="white" stroke="#666666" points="621.12,-378.18 581.12,-378.18 581.12,-357.43 621.12,-357.43 621.12,-378.18"/>
<text xml:space="preserve" text-anchor="middle" x="601.12" y="-364.68" font-family="Helvetica,sans-Serif" font-size="10.00">strnz</text>
</a>
</g>
</g>
<!-- Node11&#45;&gt;Node21 -->
<g id="edge33_Node000011_Node000021" class="edge">
<title>Node11&#45;&gt;Node21</title>
<g id="a_edge33_Node000011_Node000021"><a xlink:title=" ">
<path fill="none" stroke="#63b8ff" d="M473.35,-300.51C492.52,-312.66 525.18,-332.76 554.5,-347.81 559.53,-350.39 564.96,-352.95 570.26,-355.34"/>
<polygon fill="#63b8ff" stroke="#63b8ff" points="568.84,-358.54 579.4,-359.35 571.65,-352.13 568.84,-358.54"/>
</a>
</g>
</g>
<!-- Node22 -->
<g id="Node000022" class="node">
<title>Node22</title>
<g id="a_Node000022"><a xlink:href="../../dc/d40/dwin_8c.html#a9dd598e1d49c8764af1eec42c682623e" target="_top" xlink:title="Delete the current window and its associated box window.">
<polygon fill="white" stroke="#666666" points="627.88,-339.18 574.38,-339.18 574.38,-318.43 627.88,-318.43 627.88,-339.18"/>
<text xml:space="preserve" text-anchor="middle" x="601.12" y="-325.68" font-family="Helvetica,sans-Serif" font-size="10.00">win_del</text>
</a>
</g>
</g>
<!-- Node11&#45;&gt;Node22 -->
<g id="edge35_Node000011_Node000022" class="edge">
<title>Node11&#45;&gt;Node22</title>
<g id="a_edge35_Node000011_Node000022"><a xlink:title=" ">
<path fill="none" stroke="#63b8ff" d="M495.93,-300.47C516.91,-306.18 542.62,-313.17 563.24,-318.78"/>
<polygon fill="#63b8ff" stroke="#63b8ff" points="562.09,-322.09 572.66,-321.34 563.93,-315.34 562.09,-322.09"/>
</a>
</g>
</g>
<!-- Node23 -->
<g id="Node000023" class="node">
<title>Node23</title>
<g id="a_Node000023"><a xlink:href="../../dc/d40/dwin_8c.html#a435c7bff7ffedb8f51c6de9259e36f6c" target="_top" xlink:title="Create a new window with optional box and title.">
<polygon fill="white" stroke="#666666" points="630.5,-261.18 571.75,-261.18 571.75,-240.43 630.5,-240.43 630.5,-261.18"/>
<text xml:space="preserve" text-anchor="middle" x="601.12" y="-247.68" font-family="Helvetica,sans-Serif" font-size="10.00">win_new</text>
</a>
</g>
</g>
<!-- Node11&#45;&gt;Node23 -->
<g id="edge36_Node000011_Node000023" class="edge">
<title>Node11&#45;&gt;Node23</title>
<g id="a_edge36_Node000011_Node000023"><a xlink:title=" ">
<path fill="none" stroke="#63b8ff" d="M495.93,-279.15C515.98,-273.7 540.34,-267.07 560.47,-261.6"/>
<polygon fill="#63b8ff" stroke="#63b8ff" points="561.26,-265.01 570,-259.01 559.43,-258.25 561.26,-265.01"/>
</a>
</g>
</g>
<!-- Node25 -->
<g id="Node000025" class="node">
<title>Node25</title>
<g id="a_Node000025"><a xlink:href="../../dc/d40/dwin_8c.html#acf4c709bccc4c965a5d61db978db31a3" target="_top" xlink:title="Wrapper for wgetch that handles signals and mouse events.">
<polygon fill="white" stroke="#666666" points="629.75,-300.18 572.5,-300.18 572.5,-279.43 629.75,-279.43 629.75,-300.18"/>
<text xml:space="preserve" text-anchor="middle" x="601.12" y="-286.68" font-family="Helvetica,sans-Serif" font-size="10.00">xwgetch</text>
</a>
</g>
</g>
<!-- Node11&#45;&gt;Node25 -->
<g id="edge39_Node000011_Node000025" class="edge">
<title>Node11&#45;&gt;Node25</title>
<g id="a_edge39_Node000011_Node000025"><a xlink:title=" ">
<path fill="none" stroke="#63b8ff" d="M495.93,-283.72C516.17,-282.84 540.79,-282.84 561.02,-283.72"/>
<polygon fill="#63b8ff" stroke="#63b8ff" points="560.67,-287.21 570.84,-284.26 561.05,-280.22 560.67,-287.21"/>
</a>
</g>
</g>
<!-- Node13 -->
<g id="Node000013" class="node">
<title>Node13</title>
<g id="a_Node000013"><a xlink:href="../../dc/d40/dwin_8c.html#afc0985a403e3eac0b2cd8f0fab500256" target="_top" xlink:title="Gracefully shut down NCurses and restore terminal settings.">
<polygon fill="white" stroke="#666666" points="901.75,-223.18 812.25,-223.18 812.25,-202.43 901.75,-202.43 901.75,-223.18"/>
<text xml:space="preserve" text-anchor="middle" x="857" y="-209.68" font-family="Helvetica,sans-Serif" font-size="10.00">destroy_curses</text>
</a>
</g>
</g>
<!-- Node12&#45;&gt;Node13 -->
<g id="edge20_Node000012_Node000013" class="edge">
<title>Node12&#45;&gt;Node13</title>
<g id="a_edge20_Node000012_Node000013"><a xlink:title=" ">
<path fill="none" stroke="#63b8ff" d="M753.35,-211.99C766.53,-212.09 783.84,-212.23 800.48,-212.37"/>
<polygon fill="#63b8ff" stroke="#63b8ff" points="800.3,-215.86 810.32,-212.44 800.35,-208.86 800.3,-215.86"/>
</a>
</g>
</g>
<!-- Node14 -->
<g id="Node000014" class="node">
<title>Node14</title>
<g id="a_Node000014"><a xlink:href="../../d7/d72/scriou_8c.html#ac5e3adb304b78910fc77761ef6a743f0" target="_top" xlink:title="restore_shell_tioctl() &#45; restore shell terminal settings">
<polygon fill="white" stroke="#666666" points="1046.75,-261.18 937.75,-261.18 937.75,-240.43 1046.75,-240.43 1046.75,-261.18"/>
<text xml:space="preserve" text-anchor="middle" x="992.25" y="-247.68" font-family="Helvetica,sans-Serif" font-size="10.00">restore_shell_tioctl</text>
</a>
</g>
</g>
<!-- Node12&#45;&gt;Node14 -->
<g id="edge23_Node000012_Node000014" class="edge">
<title>Node12&#45;&gt;Node14</title>
<g id="a_edge23_Node000012_Node000014"><a xlink:title=" ">
<path fill="none" stroke="#63b8ff" d="M753.24,-218.15C769.48,-222.56 792.07,-228.27 812.25,-231.81 849.72,-238.38 892.03,-243 926.11,-246.03"/>
<polygon fill="#63b8ff" stroke="#63b8ff" points="925.56,-249.5 935.82,-246.87 926.16,-242.53 925.56,-249.5"/>
</a>
</g>
</g>
<!-- Node15 -->
<g id="Node000015" class="node">
<title>Node15</title>
<g id="a_Node000015"><a xlink:href="../../da/d12/sig_8c.html#a06c1eb6cf3649dc187115565409f91af" target="_top" xlink:title="Set signal handlers to default behavior.">
<polygon fill="white" stroke="#666666" points="1032.88,-204.18 951.62,-204.18 951.62,-183.43 1032.88,-183.43 1032.88,-204.18"/>
<text xml:space="preserve" text-anchor="middle" x="992.25" y="-190.68" font-family="Helvetica,sans-Serif" font-size="10.00">sig_dfl_mode</text>
</a>
</g>
</g>
<!-- Node12&#45;&gt;Node15 -->
<g id="edge24_Node000012_Node000015" class="edge">
<title>Node12&#45;&gt;Node15</title>
<g id="a_edge24_Node000012_Node000015"><a xlink:title=" ">
<path fill="none" stroke="#63b8ff" d="M753.2,-205.52C769.41,-201.26 792,-196.03 812.25,-193.81 855.18,-189.11 904.24,-189.51 940.14,-190.86"/>
<polygon fill="#63b8ff" stroke="#63b8ff" points="939.65,-194.35 949.79,-191.27 939.94,-187.35 939.65,-194.35"/>
</a>
</g>
</g>
<!-- Node13&#45;&gt;Node14 -->
<g id="edge21_Node000013_Node000014" class="edge">
<title>Node13&#45;&gt;Node14</title>
<g id="a_edge21_Node000013_Node000014"><a xlink:title=" ">
<path fill="none" stroke="#63b8ff" d="M895.83,-223.6C910.32,-227.73 927.05,-232.5 942.43,-236.89"/>
<polygon fill="#63b8ff" stroke="#63b8ff" points="941.3,-240.2 951.87,-239.58 943.22,-233.47 941.3,-240.2"/>
</a>
</g>
</g>
<!-- Node13&#45;&gt;Node15 -->
<g id="edge22_Node000013_Node000015" class="edge">
<title>Node13&#45;&gt;Node15</title>
<g id="a_edge22_Node000013_Node000015"><a xlink:title=" ">
<path fill="none" stroke="#63b8ff" d="M902,-206.54C914.19,-204.8 927.52,-202.9 940.08,-201.11"/>
<polygon fill="#63b8ff" stroke="#63b8ff" points="940.44,-204.59 949.84,-199.71 939.45,-197.66 940.44,-204.59"/>
</a>
</g>
</g>
<!-- Node16&#45;&gt;Node6 -->
<g id="edge26_Node000016_Node000006" class="edge">
<title>Node16&#45;&gt;Node6</title>
<g id="a_edge26_Node000016_Node000006"><a xlink:title=" ">
<path fill="none" stroke="#63b8ff" d="M626.29,-606.66C645.6,-615.34 672.92,-627.62 694.53,-637.32"/>
<polygon fill="#63b8ff" stroke="#63b8ff" points="692.99,-640.47 703.55,-641.37 695.86,-634.08 692.99,-640.47"/>
</a>
</g>
</g>
<!-- Node18&#45;&gt;Node12 -->
<g id="edge29_Node000018_Node000012" class="edge">
<title>Node18&#45;&gt;Node12</title>
<g id="a_edge29_Node000018_Node000012"><a xlink:title=" ">
<path fill="none" stroke="#63b8ff" d="M638.82,-185.51C656.83,-190.76 678.36,-197.04 695.87,-202.15"/>
<polygon fill="#63b8ff" stroke="#63b8ff" points="694.68,-205.45 705.26,-204.89 696.64,-198.73 694.68,-205.45"/>
</a>
</g>
</g>
<!-- Node19&#45;&gt;Node20 -->
<g id="edge31_Node000019_Node000020" class="edge">
<title>Node19&#45;&gt;Node20</title>
<g id="a_edge31_Node000019_Node000020"><a xlink:title=" ">
<path fill="none" stroke="#63b8ff" d="M766.49,-126.02C782.09,-121.28 800.47,-115.69 816.5,-110.82"/>
<polygon fill="#63b8ff" stroke="#63b8ff" points="817.16,-114.27 825.71,-108.02 815.13,-107.58 817.16,-114.27"/>
</a>
</g>
</g>
<!-- Node23&#45;&gt;Node5 -->
<g id="edge38_Node000023_Node000005" class="edge">
<title>Node23&#45;&gt;Node5</title>
<g id="a_edge38_Node000023_Node000005"><a xlink:title=" ">
<path fill="none" stroke="#63b8ff" d="M630.58,-261.18C636.49,-263.9 642.51,-267.13 647.75,-270.81 666.78,-284.19 664.56,-295.65 683.75,-308.81 720.4,-333.95 743.47,-316.8 776.25,-346.81 816.81,-383.95 840.09,-446.49 850.1,-479.28"/>
<polygon fill="#63b8ff" stroke="#63b8ff" points="846.72,-480.19 852.87,-488.82 853.44,-478.24 846.72,-480.19"/>
</a>
</g>
</g>
<!-- Node24 -->
<g id="Node000024" class="node">
<title>Node24</title>
<g id="a_Node000024"><a xlink:href="../../dc/d40/dwin_8c.html#ac9adcf7339be4a05ab1a7350c236b8a5" target="_top" xlink:title="Draw a box around the specified window.">
<polygon fill="white" stroke="#666666" points="749.62,-261.18 710.38,-261.18 710.38,-240.43 749.62,-240.43 749.62,-261.18"/>
<text xml:space="preserve" text-anchor="middle" x="730" y="-247.68" font-family="Helvetica,sans-Serif" font-size="10.00">cbox</text>
</a>
</g>
</g>
<!-- Node23&#45;&gt;Node24 -->
<g id="edge37_Node000023_Node000024" class="edge">
<title>Node23&#45;&gt;Node24</title>
<g id="a_edge37_Node000023_Node000024"><a xlink:title=" ">
<path fill="none" stroke="#63b8ff" d="M630.91,-250.81C651.21,-250.81 678.32,-250.81 698.9,-250.81"/>
<polygon fill="#63b8ff" stroke="#63b8ff" points="698.64,-254.31 708.64,-250.81 698.64,-247.31 698.64,-254.31"/>
</a>
</g>
</g>
<!-- Node25&#45;&gt;Node11 -->
<g id="edge40_Node000025_Node000011" class="edge">
<title>Node25&#45;&gt;Node11</title>
<g id="a_edge40_Node000025_Node000011"><a xlink:title=" ">
<path fill="none" stroke="#63b8ff" d="M572.35,-295.28C553.93,-296.52 529.22,-296.86 507.38,-296.29"/>
<polygon fill="#63b8ff" stroke="#63b8ff" points="507.55,-292.8 497.44,-295.95 507.31,-299.79 507.55,-292.8"/>
</a>
</g>
</g>
<!-- Node26 -->
<g id="Node000026" class="node">
<title>Node26</title>
<g id="a_Node000026"><a xlink:href="../../dc/d40/dwin_8c.html#a4298f891699300bfc4e6e56fd2a8d574" target="_top" xlink:title="Get keycode from chyron.">
<polygon fill="white" stroke="#666666" points="776.25,-376.18 683.75,-376.18 683.75,-355.43 776.25,-355.43 776.25,-376.18"/>
<text xml:space="preserve" text-anchor="middle" x="730" y="-362.68" font-family="Helvetica,sans-Serif" font-size="10.00">get_chyron_key</text>
</a>
</g>
</g>
<!-- Node25&#45;&gt;Node26 -->
<g id="edge41_Node000025_Node000026" class="edge">
<title>Node25&#45;&gt;Node26</title>
<g id="a_edge41_Node000025_Node000026"><a xlink:title=" ">
<path fill="none" stroke="#63b8ff" d="M629.87,-300.31C635.95,-303.06 642.22,-306.26 647.75,-309.81 665.77,-321.36 666.17,-329.6 683.75,-341.81 687.69,-344.55 691.99,-347.2 696.31,-349.68"/>
<polygon fill="#63b8ff" stroke="#63b8ff" points="694.5,-352.68 704.95,-354.39 697.84,-346.53 694.5,-352.68"/>
</a>
</g>
</g>
<!-- Node27 -->
<g id="Node000027" class="node">
<title>Node27</title>
<g id="a_Node000027"><a xlink:href="../../da/d12/sig_8c.html#a79c3e22498eb2346543aa9c86fd22e58" target="_top" xlink:title="Handle received signals and prompt user for action.">
<polygon fill="white" stroke="#666666" points="771.75,-300.18 688.25,-300.18 688.25,-279.43 771.75,-279.43 771.75,-300.18"/>
<text xml:space="preserve" text-anchor="middle" x="730" y="-286.68" font-family="Helvetica,sans-Serif" font-size="10.00">handle_signal</text>
</a>
</g>
</g>
<!-- Node25&#45;&gt;Node27 -->
<g id="edge42_Node000025_Node000027" class="edge">
<title>Node25&#45;&gt;Node27</title>
<g id="a_edge42_Node000025_Node000027"><a xlink:title=" ">
<path fill="none" stroke="#63b8ff" d="M629.97,-289.81C643.7,-289.81 660.73,-289.81 676.77,-289.81"/>
<polygon fill="#63b8ff" stroke="#63b8ff" points="676.7,-293.31 686.7,-289.81 676.7,-286.31 676.7,-293.31"/>
</a>
</g>
</g>
<!-- Node27&#45;&gt;Node5 -->
<g id="edge45_Node000027_Node000005" class="edge">
<title>Node27&#45;&gt;Node5</title>
<g id="a_edge45_Node000027_Node000005"><a xlink:title=" ">
<path fill="none" stroke="#63b8ff" d="M758.46,-300.56C764.9,-304.05 771.32,-308.44 776.25,-313.81 821.3,-362.84 843.27,-441.17 851.7,-478.98"/>
<polygon fill="#63b8ff" stroke="#63b8ff" points="848.26,-479.61 853.75,-488.67 855.11,-478.16 848.26,-479.61"/>
</a>
</g>
</g>
<!-- Node27&#45;&gt;Node14 -->
<g id="edge43_Node000027_Node000014" class="edge">
<title>Node27&#45;&gt;Node14</title>
<g id="a_edge43_Node000027_Node000014"><a xlink:title=" ">
<path fill="none" stroke="#63b8ff" d="M772.24,-283.63C813.64,-277.43 878.03,-267.78 926.3,-260.54"/>
<polygon fill="#63b8ff" stroke="#63b8ff" points="926.7,-264.02 936.08,-259.08 925.67,-257.1 926.7,-264.02"/>
</a>
</g>
</g>
<!-- Node27&#45;&gt;Node20 -->
<g id="edge44_Node000027_Node000020" class="edge">
<title>Node27&#45;&gt;Node20</title>
<g id="a_edge44_Node000027_Node000020"><a xlink:title=" ">
<path fill="none" stroke="#63b8ff" d="M763.02,-279.18C767.83,-276.63 772.45,-273.54 776.25,-269.81 777.71,-268.38 825.37,-165.24 846.3,-119.85"/>
<polygon fill="#63b8ff" stroke="#63b8ff" points="849.36,-121.58 850.37,-111.03 843,-118.65 849.36,-121.58"/>
</a>
</g>
</g>
<!-- Node28&#45;&gt;Node4 -->
<g id="edge50_Node000028_Node000004" class="edge">
<title>Node28&#45;&gt;Node4</title>
<g id="a_edge50_Node000028_Node000004"><a xlink:title=" ">
<path fill="none" stroke="#63b8ff" d="M312.42,-492.57C336.9,-523.4 407.56,-612.39 439.16,-652.18"/>
<polygon fill="#63b8ff" stroke="#63b8ff" points="436.4,-654.33 445.36,-659.98 441.88,-649.97 436.4,-654.33"/>
</a>
</g>
</g>
<!-- Node28&#45;&gt;Node5 -->
<g id="edge54_Node000028_Node000005" class="edge">
<title>Node28&#45;&gt;Node5</title>
<g id="a_edge54_Node000028_Node000005"><a xlink:title=" ">
<path fill="none" stroke="#63b8ff" d="M335.95,-482.91C429.67,-486.14 703.3,-495.55 811.36,-499.27"/>
<polygon fill="#63b8ff" stroke="#63b8ff" points="811.17,-502.77 821.28,-499.61 811.41,-495.77 811.17,-502.77"/>
</a>
</g>
</g>
<!-- Node28&#45;&gt;Node8 -->
<g id="edge52_Node000028_Node000008" class="edge">
<title>Node28&#45;&gt;Node8</title>
<g id="a_edge52_Node000028_Node000008"><a xlink:title=" ">
<path fill="none" stroke="#63b8ff" d="M335.87,-489.87C355.85,-494.9 382,-501.49 404.68,-507.2"/>
<polygon fill="#63b8ff" stroke="#63b8ff" points="403.81,-510.59 414.37,-509.64 405.52,-503.8 403.81,-510.59"/>
</a>
</g>
</g>
<!-- Node28&#45;&gt;Node11 -->
<g id="edge51_Node000028_Node000011" class="edge">
<title>Node28&#45;&gt;Node11</title>
<g id="a_edge51_Node000028_Node000011"><a xlink:title=" ">
<path fill="none" stroke="#63b8ff" d="M314.47,-471.24C325.5,-460.06 343.08,-441.73 357,-424.81 389.14,-385.75 422.96,-337.09 441.18,-310.15"/>
<polygon fill="#63b8ff" stroke="#63b8ff" points="444.06,-312.15 446.73,-301.9 438.25,-308.25 444.06,-312.15"/>
</a>
</g>
</g>
<!-- Node28&#45;&gt;Node20 -->
<g id="edge53_Node000028_Node000020" class="edge">
<title>Node28&#45;&gt;Node20</title>
<g id="a_edge53_Node000028_Node000020"><a xlink:title=" ">
<path fill="none" stroke="#63b8ff" d="M317.31,-471.04C329.51,-460.52 347.07,-443.43 357,-424.81 390.08,-362.79 364.21,-334.93 393,-270.81 444,-157.19 447.91,-106.23 554.5,-41.81 639.09,9.32 684.24,11.3 776.25,-24.81 803.84,-35.64 827.58,-61 841.81,-79.01"/>
<polygon fill="#63b8ff" stroke="#63b8ff" points="838.97,-81.05 847.79,-86.91 844.55,-76.82 838.97,-81.05"/>
</a>
</g>
</g>
</g>
</svg>
