<?xml version="1.0" encoding="UTF-8" standalone="no"?>
<!DOCTYPE svg PUBLIC "-//W3C//DTD SVG 1.1//EN"
 "http://www.w3.org/Graphics/SVG/1.1/DTD/svg11.dtd">
<!-- Generated by graphviz version 14.1.2 (0)
 -->
<!-- Title: new_pick Pages: 1 -->
<svg width="1153pt" height="1086pt"
 viewBox="0.00 0.00 1153.00 1086.00" xmlns="http://www.w3.org/2000/svg" xmlns:xlink="http://www.w3.org/1999/xlink">
<g id="graph0" class="graph" transform="scale(1 1) rotate(0) translate(4 1082.38)">
<title>new_pick</title>
<!-- Node1 -->
<g id="Node000001" class="node">
<title>Node1</title>
<g id="a_Node000001"><a xlink:title="Create and initialize Pick structure.">
<polygon fill="#999999" stroke="#666666" points="61.75,-840.75 0,-840.75 0,-820 61.75,-820 61.75,-840.75"/>
<text xml:space="preserve" text-anchor="middle" x="30.88" y="-827.25" font-family="Helvetica,sans-Serif" font-size="10.00">new_pick</text>
</a>
</g>
</g>
<!-- Node2 -->
<g id="Node000002" class="node">
<title>Node2</title>
<g id="a_Node000002"><a xlink:href="../../dc/d40/dwin_8c.html#a8f6c45ca4a7f6a41c4c88314e697565a" target="_top" xlink:title="Abnormal program termination.">
<polygon fill="white" stroke="#666666" points="850.75,-1050.75 804.75,-1050.75 804.75,-1030 850.75,-1030 850.75,-1050.75"/>
<text xml:space="preserve" text-anchor="middle" x="827.75" y="-1037.25" font-family="Helvetica,sans-Serif" font-size="10.00">abend</text>
</a>
</g>
</g>
<!-- Node1&#45;&gt;Node2 -->
<g id="edge1_Node000001_Node000002" class="edge">
<title>Node1&#45;&gt;Node2</title>
<g id="a_edge1_Node000001_Node000002"><a xlink:title=" ">
<path fill="none" stroke="#63b8ff" d="M32.57,-840.81C35.2,-871.88 47.12,-964.79 97.75,-1016.38 152.66,-1072.32 184.48,-1078.38 262.88,-1078.38 262.88,-1078.38 262.88,-1078.38 554.5,-1078.38 641.28,-1078.38 742.14,-1059.2 793.29,-1048.09"/>
<polygon fill="#63b8ff" stroke="#63b8ff" points="793.82,-1051.56 802.83,-1045.99 792.31,-1044.73 793.82,-1051.56"/>
</a>
</g>
</g>
<!-- Node6 -->
<g id="Node000006" class="node">
<title>Node6</title>
<g id="a_Node000006"><a xlink:href="../../dc/d40/dwin_8c.html#a67659f8a701b74f4dec0d36227a10d1c" target="_top" xlink:title="Display an error message window or print to stderr.">
<polygon fill="white" stroke="#666666" points="593.38,-706.75 513.62,-706.75 513.62,-686 593.38,-686 593.38,-706.75"/>
<text xml:space="preserve" text-anchor="middle" x="553.5" y="-693.25" font-family="Helvetica,sans-Serif" font-size="10.00">display_error</text>
</a>
</g>
</g>
<!-- Node1&#45;&gt;Node6 -->
<g id="edge7_Node000001_Node000006" class="edge">
<title>Node1&#45;&gt;Node6</title>
<g id="a_edge7_Node000001_Node000006"><a xlink:title=" ">
<path fill="none" stroke="#63b8ff" d="M62.12,-822.59C148.18,-800.44 395.09,-736.89 502.07,-709.35"/>
<polygon fill="#63b8ff" stroke="#63b8ff" points="502.92,-712.75 511.73,-706.87 501.17,-705.97 502.92,-712.75"/>
</a>
</g>
</g>
<!-- Node12 -->
<g id="Node000012" class="node">
<title>Node12</title>
<g id="a_Node000012"><a xlink:href="../../d0/d59/futil_8c.html#a63eb94756fb011a456a3dec900709cd8" target="_top" xlink:title="ssnprintf was designed to be a safer alternative to snprintf.">
<polygon fill="white" stroke="#666666" points="984.12,-821.75 925.38,-821.75 925.38,-801 984.12,-801 984.12,-821.75"/>
<text xml:space="preserve" text-anchor="middle" x="954.75" y="-808.25" font-family="Helvetica,sans-Serif" font-size="10.00">ssnprintf</text>
</a>
</g>
</g>
<!-- Node1&#45;&gt;Node12 -->
<g id="edge69_Node000001_Node000012" class="edge">
<title>Node1&#45;&gt;Node12</title>
<g id="a_edge69_Node000001_Node000012"><a xlink:title=" ">
<path fill="none" stroke="#63b8ff" d="M38.77,-841.13C63.84,-878.79 154.37,-1002.38 262.88,-1002.38 262.88,-1002.38 262.88,-1002.38 699.88,-1002.38 812.65,-1002.38 907.22,-880.54 940.73,-831.49"/>
<polygon fill="#63b8ff" stroke="#63b8ff" points="943.46,-833.71 946.1,-823.45 937.64,-829.82 943.46,-833.71"/>
</a>
</g>
</g>
<!-- Node21 -->
<g id="Node000021" class="node">
<title>Node21</title>
<g id="a_Node000021"><a xlink:href="../../d3/d8f/mem_8c.html#ab40bb77758b149f33cbde8063f341b00" target="_top" xlink:title="Initialize Pick file specifications.">
<polygon fill="white" stroke="#666666" points="181.25,-209.75 97.75,-209.75 97.75,-189 181.25,-189 181.25,-209.75"/>
<text xml:space="preserve" text-anchor="middle" x="139.5" y="-196.25" font-family="Helvetica,sans-Serif" font-size="10.00">init_pick_files</text>
</a>
</g>
</g>
<!-- Node1&#45;&gt;Node21 -->
<g id="edge30_Node000001_Node000021" class="edge">
<title>Node1&#45;&gt;Node21</title>
<g id="a_edge30_Node000001_Node000021"><a xlink:title=" ">
<path fill="none" stroke="#63b8ff" d="M33.68,-819.69C45.99,-746.85 117.56,-323.31 134.78,-221.41"/>
<polygon fill="#63b8ff" stroke="#63b8ff" points="138.21,-222.09 136.43,-211.65 131.31,-220.93 138.21,-222.09"/>
</a>
</g>
</g>
<!-- Node30 -->
<g id="Node000030" class="node">
<title>Node30</title>
<g id="a_Node000030"><a xlink:href="../../dc/d40/dwin_8c.html#a61b4f28456257f68ed042bed7f187efd" target="_top" xlink:title="Display a simple error message window or print to stderr.">
<polygon fill="white" stroke="#666666" points="576.12,-840.75 530.88,-840.75 530.88,-820 576.12,-820 576.12,-840.75"/>
<text xml:space="preserve" text-anchor="middle" x="553.5" y="-827.25" font-family="Helvetica,sans-Serif" font-size="10.00">Perror</text>
</a>
</g>
</g>
<!-- Node1&#45;&gt;Node30 -->
<g id="edge58_Node000001_Node000030" class="edge">
<title>Node1&#45;&gt;Node30</title>
<g id="a_edge58_Node000001_Node000030"><a xlink:title=" ">
<path fill="none" stroke="#63b8ff" d="M62.12,-830.38C153.08,-830.38 423.73,-830.38 518.93,-830.38"/>
<polygon fill="#63b8ff" stroke="#63b8ff" points="518.89,-833.88 528.89,-830.38 518.89,-826.88 518.89,-833.88"/>
</a>
</g>
</g>
<!-- Node3 -->
<g id="Node000003" class="node">
<title>Node3</title>
<g id="a_Node000003"><a xlink:href="../../dc/d40/dwin_8c.html#afc0985a403e3eac0b2cd8f0fab500256" target="_top" xlink:title="Gracefully shut down NCurses and restore terminal settings.">
<polygon fill="white" stroke="#666666" points="999.5,-1012.75 910,-1012.75 910,-992 999.5,-992 999.5,-1012.75"/>
<text xml:space="preserve" text-anchor="middle" x="954.75" y="-999.25" font-family="Helvetica,sans-Serif" font-size="10.00">destroy_curses</text>
</a>
</g>
</g>
<!-- Node2&#45;&gt;Node3 -->
<g id="edge2_Node000002_Node000003" class="edge">
<title>Node2&#45;&gt;Node3</title>
<g id="a_edge2_Node000002_Node000003"><a xlink:title=" ">
<path fill="none" stroke="#63b8ff" d="M851.1,-1033.58C866.71,-1028.83 888.13,-1022.32 907.36,-1016.48"/>
<polygon fill="#63b8ff" stroke="#63b8ff" points="908.37,-1019.83 916.92,-1013.57 906.33,-1013.13 908.37,-1019.83"/>
</a>
</g>
</g>
<!-- Node4 -->
<g id="Node000004" class="node">
<title>Node4</title>
<g id="a_Node000004"><a xlink:href="../../d7/d72/scriou_8c.html#ac5e3adb304b78910fc77761ef6a743f0" target="_top" xlink:title="restore_shell_tioctl() &#45; restore shell terminal settings">
<polygon fill="white" stroke="#666666" points="1144.5,-1050.75 1035.5,-1050.75 1035.5,-1030 1144.5,-1030 1144.5,-1050.75"/>
<text xml:space="preserve" text-anchor="middle" x="1090" y="-1037.25" font-family="Helvetica,sans-Serif" font-size="10.00">restore_shell_tioctl</text>
</a>
</g>
</g>
<!-- Node2&#45;&gt;Node4 -->
<g id="edge5_Node000002_Node000004" class="edge">
<title>Node2&#45;&gt;Node4</title>
<g id="a_edge5_Node000002_Node000004"><a xlink:title=" ">
<path fill="none" stroke="#63b8ff" d="M851.03,-1045.27C867.29,-1048.58 889.89,-1052.66 910,-1054.38 949.63,-1057.76 959.84,-1057.46 999.5,-1054.38 1007.48,-1053.75 1015.82,-1052.83 1024.06,-1051.74"/>
<polygon fill="#63b8ff" stroke="#63b8ff" points="1024.29,-1055.24 1033.71,-1050.39 1023.32,-1048.31 1024.29,-1055.24"/>
</a>
</g>
</g>
<!-- Node5 -->
<g id="Node000005" class="node">
<title>Node5</title>
<g id="a_Node000005"><a xlink:href="../../da/d12/sig_8c.html#a06c1eb6cf3649dc187115565409f91af" target="_top" xlink:title="Set signal handlers to default behavior.">
<polygon fill="white" stroke="#666666" points="1130.62,-993.75 1049.38,-993.75 1049.38,-973 1130.62,-973 1130.62,-993.75"/>
<text xml:space="preserve" text-anchor="middle" x="1090" y="-980.25" font-family="Helvetica,sans-Serif" font-size="10.00">sig_dfl_mode</text>
</a>
</g>
</g>
<!-- Node2&#45;&gt;Node5 -->
<g id="edge6_Node000002_Node000005" class="edge">
<title>Node2&#45;&gt;Node5</title>
<g id="a_edge6_Node000002_Node000005"><a xlink:title=" ">
<path fill="none" stroke="#63b8ff" d="M851.05,-1029.98C858.58,-1026.1 866.88,-1021.4 874,-1016.38 891.73,-1003.86 889.77,-991.24 910,-983.38 950.95,-967.45 1001.26,-969.11 1038.1,-973.8"/>
<polygon fill="#63b8ff" stroke="#63b8ff" points="1037.19,-977.2 1047.58,-975.12 1038.16,-970.27 1037.19,-977.2"/>
</a>
</g>
</g>
<!-- Node3&#45;&gt;Node4 -->
<g id="edge3_Node000003_Node000004" class="edge">
<title>Node3&#45;&gt;Node4</title>
<g id="a_edge3_Node000003_Node000004"><a xlink:title=" ">
<path fill="none" stroke="#63b8ff" d="M993.58,-1013.16C1008.07,-1017.29 1024.8,-1022.07 1040.18,-1026.45"/>
<polygon fill="#63b8ff" stroke="#63b8ff" points="1039.05,-1029.77 1049.62,-1029.15 1040.97,-1023.04 1039.05,-1029.77"/>
</a>
</g>
</g>
<!-- Node3&#45;&gt;Node5 -->
<g id="edge4_Node000003_Node000005" class="edge">
<title>Node3&#45;&gt;Node5</title>
<g id="a_edge4_Node000003_Node000005"><a xlink:title=" ">
<path fill="none" stroke="#63b8ff" d="M999.75,-996.1C1011.94,-994.36 1025.27,-992.46 1037.83,-990.67"/>
<polygon fill="#63b8ff" stroke="#63b8ff" points="1038.19,-994.16 1047.59,-989.28 1037.2,-987.23 1038.19,-994.16"/>
</a>
</g>
</g>
<!-- Node6&#45;&gt;Node2 -->
<g id="edge8_Node000006_Node000002" class="edge">
<title>Node6&#45;&gt;Node2</title>
<g id="a_edge8_Node000006_Node000002"><a xlink:title=" ">
<path fill="none" stroke="#63b8ff" d="M593.8,-703.49C643.26,-713.2 724.3,-731.88 745.5,-753.38 764.67,-772.82 807.41,-955.08 821.87,-1018.64"/>
<polygon fill="#63b8ff" stroke="#63b8ff" points="818.41,-1019.22 824.03,-1028.21 825.24,-1017.68 818.41,-1019.22"/>
</a>
</g>
</g>
<!-- Node7 -->
<g id="Node000007" class="node">
<title>Node7</title>
<g id="a_Node000007"><a xlink:href="../../dc/d40/dwin_8c.html#a645871e46277e31736bc36d0f3dce4bd" target="_top" xlink:title="construct the chyron string from the chyron structure">
<polygon fill="white" stroke="#666666" points="745.5,-591.75 652.25,-591.75 652.25,-571 745.5,-571 745.5,-591.75"/>
<text xml:space="preserve" text-anchor="middle" x="698.88" y="-578.25" font-family="Helvetica,sans-Serif" font-size="10.00">compile_chyron</text>
</a>
</g>
</g>
<!-- Node6&#45;&gt;Node7 -->
<g id="edge9_Node000006_Node000007" class="edge">
<title>Node6&#45;&gt;Node7</title>
<g id="a_edge9_Node000006_Node000007"><a xlink:title=" ">
<path fill="none" stroke="#63b8ff" d="M563.2,-685.69C579.17,-666.64 614.94,-626.47 652.25,-601.38 654.35,-599.96 656.56,-598.61 658.84,-597.33"/>
<polygon fill="#63b8ff" stroke="#63b8ff" points="660.38,-600.47 667.71,-592.82 657.21,-594.23 660.38,-600.47"/>
</a>
</g>
</g>
<!-- Node9 -->
<g id="Node000009" class="node">
<title>Node9</title>
<g id="a_Node000009"><a xlink:href="../../dc/d40/dwin_8c.html#a3f3feb40fd703913c5c136331f627c91" target="_top" xlink:title="Destroy Chyron structure.">
<polygon fill="white" stroke="#666666" points="744.38,-821.75 653.38,-821.75 653.38,-801 744.38,-801 744.38,-821.75"/>
<text xml:space="preserve" text-anchor="middle" x="698.88" y="-808.25" font-family="Helvetica,sans-Serif" font-size="10.00">destroy_chyron</text>
</a>
</g>
</g>
<!-- Node6&#45;&gt;Node9 -->
<g id="edge11_Node000006_Node000009" class="edge">
<title>Node6&#45;&gt;Node9</title>
<g id="a_edge11_Node000006_Node000009"><a xlink:title=" ">
<path fill="none" stroke="#63b8ff" d="M563.2,-707.06C579.17,-726.11 614.94,-766.28 652.25,-791.38 654.35,-792.79 656.56,-794.14 658.84,-795.42"/>
<polygon fill="#63b8ff" stroke="#63b8ff" points="657.21,-798.52 667.71,-799.93 660.38,-792.28 657.21,-798.52"/>
</a>
</g>
</g>
<!-- Node10 -->
<g id="Node000010" class="node">
<title>Node10</title>
<g id="a_Node000010"><a xlink:href="../../dc/d40/dwin_8c.html#ad37d5808ff30ae6894780425d865abae" target="_top" xlink:title="Create and initialize Chyron structure.">
<polygon fill="white" stroke="#666666" points="736.12,-974.75 661.62,-974.75 661.62,-954 736.12,-954 736.12,-974.75"/>
<text xml:space="preserve" text-anchor="middle" x="698.88" y="-961.25" font-family="Helvetica,sans-Serif" font-size="10.00">new_chyron</text>
</a>
</g>
</g>
<!-- Node6&#45;&gt;Node10 -->
<g id="edge12_Node000006_Node000010" class="edge">
<title>Node6&#45;&gt;Node10</title>
<g id="a_edge12_Node000006_Node000010"><a xlink:title=" ">
<path fill="none" stroke="#63b8ff" d="M560.3,-707.15C571.25,-727.51 595.72,-773.01 616.25,-811.38 641.57,-858.68 671.2,-914.28 686.86,-943.69"/>
<polygon fill="#63b8ff" stroke="#63b8ff" points="683.64,-945.09 691.43,-952.28 689.82,-941.8 683.64,-945.09"/>
</a>
</g>
</g>
<!-- Node11 -->
<g id="Node000011" class="node">
<title>Node11</title>
<g id="a_Node000011"><a xlink:href="../../dc/d40/dwin_8c.html#a208ce92c197fdd6d2b007987e534aa3b" target="_top" xlink:title="Set chyron key.">
<polygon fill="white" stroke="#666666" points="744.75,-782.75 653,-782.75 653,-762 744.75,-762 744.75,-782.75"/>
<text xml:space="preserve" text-anchor="middle" x="698.88" y="-769.25" font-family="Helvetica,sans-Serif" font-size="10.00">set_chyron_key</text>
</a>
</g>
</g>
<!-- Node6&#45;&gt;Node11 -->
<g id="edge14_Node000006_Node000011" class="edge">
<title>Node6&#45;&gt;Node11</title>
<g id="a_edge14_Node000006_Node000011"><a xlink:title=" ">
<path fill="none" stroke="#63b8ff" d="M574.7,-707.16C594.46,-717.69 625.4,-734.17 652.25,-748.38 657.14,-750.96 662.32,-753.69 667.37,-756.35"/>
<polygon fill="#63b8ff" stroke="#63b8ff" points="665.6,-759.38 676.08,-760.94 668.86,-753.18 665.6,-759.38"/>
</a>
</g>
</g>
<!-- Node6&#45;&gt;Node12 -->
<g id="edge16_Node000006_Node000012" class="edge">
<title>Node6&#45;&gt;Node12</title>
<g id="a_edge16_Node000006_Node000012"><a xlink:title=" ">
<path fill="none" stroke="#63b8ff" d="M581.54,-685.52C639.53,-664.1 778.36,-623 874,-677.38 916.59,-701.59 938.82,-758.54 948.19,-789.83"/>
<polygon fill="#63b8ff" stroke="#63b8ff" points="944.79,-790.66 950.85,-799.35 951.53,-788.77 944.79,-790.66"/>
</a>
</g>
</g>
<!-- Node13 -->
<g id="Node000013" class="node">
<title>Node13</title>
<g id="a_Node000013"><a xlink:href="../../d0/d59/futil_8c.html#a636608f26d1193b5d860f2312cd8ee49" target="_top" xlink:title="terminates string at New Line, Carriage Return, or max_len">
<polygon fill="white" stroke="#666666" points="718.88,-552.75 678.88,-552.75 678.88,-532 718.88,-532 718.88,-552.75"/>
<text xml:space="preserve" text-anchor="middle" x="698.88" y="-539.25" font-family="Helvetica,sans-Serif" font-size="10.00">strnz</text>
</a>
</g>
</g>
<!-- Node6&#45;&gt;Node13 -->
<g id="edge17_Node000006_Node000013" class="edge">
<title>Node6&#45;&gt;Node13</title>
<g id="a_edge17_Node000006_Node000013"><a xlink:title=" ">
<path fill="none" stroke="#63b8ff" d="M559.66,-685.87C572.26,-661.18 606.91,-598.81 652.25,-562.38 656.93,-558.61 662.44,-555.42 667.97,-552.76"/>
<polygon fill="#63b8ff" stroke="#63b8ff" points="669.21,-556.04 677.04,-548.9 666.46,-549.6 669.21,-556.04"/>
</a>
</g>
</g>
<!-- Node14 -->
<g id="Node000014" class="node">
<title>Node14</title>
<g id="a_Node000014"><a xlink:href="../../d0/d59/futil_8c.html#a0de2e40df9bd7efc8fd9afb8ad2257e6" target="_top" xlink:title="safer alternative to strncpy">
<polygon fill="white" stroke="#666666" points="988.62,-286.75 920.88,-286.75 920.88,-266 988.62,-266 988.62,-286.75"/>
<text xml:space="preserve" text-anchor="middle" x="954.75" y="-273.25" font-family="Helvetica,sans-Serif" font-size="10.00">strnz__cpy</text>
</a>
</g>
</g>
<!-- Node6&#45;&gt;Node14 -->
<g id="edge18_Node000006_Node000014" class="edge">
<title>Node6&#45;&gt;Node14</title>
<g id="a_edge18_Node000006_Node000014"><a xlink:title=" ">
<path fill="none" stroke="#63b8ff" d="M557.61,-685.74C566.91,-655.81 597.26,-570.01 652.25,-523.38 692.26,-489.44 835.14,-477.62 874,-442.38 918.07,-402.41 940.21,-332.85 949.01,-297.83"/>
<polygon fill="#63b8ff" stroke="#63b8ff" points="952.33,-298.99 951.24,-288.46 945.52,-297.38 952.33,-298.99"/>
</a>
</g>
</g>
<!-- Node15 -->
<g id="Node000015" class="node">
<title>Node15</title>
<g id="a_Node000015"><a xlink:href="../../dc/d40/dwin_8c.html#a9dd598e1d49c8764af1eec42c682623e" target="_top" xlink:title="Delete the current window and its associated box window.">
<polygon fill="white" stroke="#666666" points="725.62,-860.75 672.12,-860.75 672.12,-840 725.62,-840 725.62,-860.75"/>
<text xml:space="preserve" text-anchor="middle" x="698.88" y="-847.25" font-family="Helvetica,sans-Serif" font-size="10.00">win_del</text>
</a>
</g>
</g>
<!-- Node6&#45;&gt;Node15 -->
<g id="edge19_Node000006_Node000015" class="edge">
<title>Node6&#45;&gt;Node15</title>
<g id="a_edge19_Node000006_Node000015"><a xlink:title=" ">
<path fill="none" stroke="#63b8ff" d="M559.66,-706.88C572.26,-731.57 606.91,-793.94 652.25,-830.38 655.15,-832.7 658.36,-834.82 661.7,-836.72"/>
<polygon fill="#63b8ff" stroke="#63b8ff" points="660.04,-839.8 670.55,-841.12 663.16,-833.53 660.04,-839.8"/>
</a>
</g>
</g>
<!-- Node16 -->
<g id="Node000016" class="node">
<title>Node16</title>
<g id="a_Node000016"><a xlink:href="../../dc/d40/dwin_8c.html#a435c7bff7ffedb8f51c6de9259e36f6c" target="_top" xlink:title="Create a new window with optional box and title.">
<polygon fill="white" stroke="#666666" points="728.25,-630.75 669.5,-630.75 669.5,-610 728.25,-610 728.25,-630.75"/>
<text xml:space="preserve" text-anchor="middle" x="698.88" y="-617.25" font-family="Helvetica,sans-Serif" font-size="10.00">win_new</text>
</a>
</g>
</g>
<!-- Node6&#45;&gt;Node16 -->
<g id="edge20_Node000006_Node000016" class="edge">
<title>Node6&#45;&gt;Node16</title>
<g id="a_edge20_Node000006_Node000016"><a xlink:title=" ">
<path fill="none" stroke="#63b8ff" d="M574.7,-685.59C594.46,-675.06 625.4,-658.58 652.25,-644.38 657.14,-641.79 662.32,-639.06 667.37,-636.4"/>
<polygon fill="#63b8ff" stroke="#63b8ff" points="668.86,-639.57 676.08,-631.81 665.6,-633.37 668.86,-639.57"/>
</a>
</g>
</g>
<!-- Node18 -->
<g id="Node000018" class="node">
<title>Node18</title>
<g id="a_Node000018"><a xlink:href="../../dc/d40/dwin_8c.html#acf4c709bccc4c965a5d61db978db31a3" target="_top" xlink:title="Wrapper for wgetch that handles signals and mouse events.">
<polygon fill="white" stroke="#666666" points="727.5,-706.75 670.25,-706.75 670.25,-686 727.5,-686 727.5,-706.75"/>
<text xml:space="preserve" text-anchor="middle" x="698.88" y="-693.25" font-family="Helvetica,sans-Serif" font-size="10.00">xwgetch</text>
</a>
</g>
</g>
<!-- Node6&#45;&gt;Node18 -->
<g id="edge23_Node000006_Node000018" class="edge">
<title>Node6&#45;&gt;Node18</title>
<g id="a_edge23_Node000006_Node000018"><a xlink:title=" ">
<path fill="none" stroke="#63b8ff" d="M593.68,-690.28C613.92,-689.4 638.54,-689.41 658.77,-690.29"/>
<polygon fill="#63b8ff" stroke="#63b8ff" points="658.42,-693.77 668.59,-690.83 658.8,-686.78 658.42,-693.77"/>
</a>
</g>
</g>
<!-- Node8 -->
<g id="Node000008" class="node">
<title>Node8</title>
<g id="a_Node000008"><a xlink:href="../../d0/d59/futil_8c.html#aa0145c044cfdde3a1c83323410a59f25" target="_top" xlink:title="safer alternative to strncat">
<polygon fill="white" stroke="#666666" points="860.5,-324.75 795,-324.75 795,-304 860.5,-304 860.5,-324.75"/>
<text xml:space="preserve" text-anchor="middle" x="827.75" y="-311.25" font-family="Helvetica,sans-Serif" font-size="10.00">strnz__cat</text>
</a>
</g>
</g>
<!-- Node7&#45;&gt;Node8 -->
<g id="edge10_Node000007_Node000008" class="edge">
<title>Node7&#45;&gt;Node8</title>
<g id="a_edge10_Node000007_Node000008"><a xlink:title=" ">
<path fill="none" stroke="#63b8ff" d="M733.48,-570.65C737.94,-568.14 742.13,-565.09 745.5,-561.38 776.56,-527.21 809.86,-389.93 821.99,-336.14"/>
<polygon fill="#63b8ff" stroke="#63b8ff" points="825.34,-337.18 824.1,-326.66 818.51,-335.66 825.34,-337.18"/>
</a>
</g>
</g>
<!-- Node10&#45;&gt;Node2 -->
<g id="edge13_Node000010_Node000002" class="edge">
<title>Node10&#45;&gt;Node2</title>
<g id="a_edge13_Node000010_Node000002"><a xlink:title=" ">
<path fill="none" stroke="#63b8ff" d="M717.78,-975.1C738.94,-987.78 774.38,-1009.01 799.08,-1023.8"/>
<polygon fill="#63b8ff" stroke="#63b8ff" points="797.26,-1026.79 807.63,-1028.92 800.85,-1020.78 797.26,-1026.79"/>
</a>
</g>
</g>
<!-- Node11&#45;&gt;Node12 -->
<g id="edge15_Node000011_Node000012" class="edge">
<title>Node11&#45;&gt;Node12</title>
<g id="a_edge15_Node000011_Node000012"><a xlink:title=" ">
<path fill="none" stroke="#63b8ff" d="M729.29,-783.19C734.89,-785.82 740.55,-788.89 745.5,-792.38 764.53,-805.76 760.13,-821.18 781.5,-830.38 825.21,-849.17 880.65,-837.5 916.64,-825.82"/>
<polygon fill="#63b8ff" stroke="#63b8ff" points="917.39,-829.27 925.72,-822.72 915.13,-822.64 917.39,-829.27"/>
</a>
</g>
</g>
<!-- Node16&#45;&gt;Node14 -->
<g id="edge22_Node000016_Node000014" class="edge">
<title>Node16&#45;&gt;Node14</title>
<g id="a_edge22_Node000016_Node000014"><a xlink:title=" ">
<path fill="none" stroke="#63b8ff" d="M728.64,-609.54C734.41,-606.88 740.3,-603.8 745.5,-600.38 810.77,-557.41 830.13,-545.04 874,-480.38 914.65,-420.46 938.95,-336.83 948.73,-297.9"/>
<polygon fill="#63b8ff" stroke="#63b8ff" points="952.08,-298.93 951.04,-288.39 945.28,-297.28 952.08,-298.93"/>
</a>
</g>
</g>
<!-- Node17 -->
<g id="Node000017" class="node">
<title>Node17</title>
<g id="a_Node000017"><a xlink:href="../../dc/d40/dwin_8c.html#ac9adcf7339be4a05ab1a7350c236b8a5" target="_top" xlink:title="Draw a box around the specified window.">
<polygon fill="white" stroke="#666666" points="847.38,-630.75 808.12,-630.75 808.12,-610 847.38,-610 847.38,-630.75"/>
<text xml:space="preserve" text-anchor="middle" x="827.75" y="-617.25" font-family="Helvetica,sans-Serif" font-size="10.00">cbox</text>
</a>
</g>
</g>
<!-- Node16&#45;&gt;Node17 -->
<g id="edge21_Node000016_Node000017" class="edge">
<title>Node16&#45;&gt;Node17</title>
<g id="a_edge21_Node000016_Node000017"><a xlink:title=" ">
<path fill="none" stroke="#63b8ff" d="M728.66,-620.38C748.96,-620.38 776.07,-620.38 796.65,-620.38"/>
<polygon fill="#63b8ff" stroke="#63b8ff" points="796.39,-623.88 806.39,-620.38 796.39,-616.88 796.39,-623.88"/>
</a>
</g>
</g>
<!-- Node18&#45;&gt;Node6 -->
<g id="edge24_Node000018_Node000006" class="edge">
<title>Node18&#45;&gt;Node6</title>
<g id="a_edge24_Node000018_Node000006"><a xlink:title=" ">
<path fill="none" stroke="#63b8ff" d="M670.1,-701.84C651.68,-703.09 626.97,-703.43 605.13,-702.86"/>
<polygon fill="#63b8ff" stroke="#63b8ff" points="605.3,-699.36 595.19,-702.52 605.06,-706.36 605.3,-699.36"/>
</a>
</g>
</g>
<!-- Node19 -->
<g id="Node000019" class="node">
<title>Node19</title>
<g id="a_Node000019"><a xlink:href="../../dc/d40/dwin_8c.html#a4298f891699300bfc4e6e56fd2a8d574" target="_top" xlink:title="Get keycode from chyron.">
<polygon fill="white" stroke="#666666" points="874,-706.75 781.5,-706.75 781.5,-686 874,-686 874,-706.75"/>
<text xml:space="preserve" text-anchor="middle" x="827.75" y="-693.25" font-family="Helvetica,sans-Serif" font-size="10.00">get_chyron_key</text>
</a>
</g>
</g>
<!-- Node18&#45;&gt;Node19 -->
<g id="edge25_Node000018_Node000019" class="edge">
<title>Node18&#45;&gt;Node19</title>
<g id="a_edge25_Node000018_Node000019"><a xlink:title=" ">
<path fill="none" stroke="#63b8ff" d="M727.72,-696.38C740.04,-696.38 755,-696.38 769.53,-696.38"/>
<polygon fill="#63b8ff" stroke="#63b8ff" points="769.51,-699.88 779.51,-696.38 769.51,-692.88 769.51,-699.88"/>
</a>
</g>
</g>
<!-- Node20 -->
<g id="Node000020" class="node">
<title>Node20</title>
<g id="a_Node000020"><a xlink:href="../../da/d12/sig_8c.html#a79c3e22498eb2346543aa9c86fd22e58" target="_top" xlink:title="Handle received signals and prompt user for action.">
<polygon fill="white" stroke="#666666" points="869.5,-821.75 786,-821.75 786,-801 869.5,-801 869.5,-821.75"/>
<text xml:space="preserve" text-anchor="middle" x="827.75" y="-808.25" font-family="Helvetica,sans-Serif" font-size="10.00">handle_signal</text>
</a>
</g>
</g>
<!-- Node18&#45;&gt;Node20 -->
<g id="edge26_Node000018_Node000020" class="edge">
<title>Node18&#45;&gt;Node20</title>
<g id="a_edge26_Node000018_Node000020"><a xlink:title=" ">
<path fill="none" stroke="#63b8ff" d="M724.07,-707.06C731.29,-710.78 739.01,-715.31 745.5,-720.38 772.34,-741.34 797.53,-771.88 812.54,-791.69"/>
<polygon fill="#63b8ff" stroke="#63b8ff" points="809.57,-793.55 818.34,-799.5 815.19,-789.38 809.57,-793.55"/>
</a>
</g>
</g>
<!-- Node20&#45;&gt;Node4 -->
<g id="edge27_Node000020_Node000004" class="edge">
<title>Node20&#45;&gt;Node4</title>
<g id="a_edge27_Node000020_Node000004"><a xlink:title=" ">
<path fill="none" stroke="#63b8ff" d="M829.2,-821.88C831.32,-856.88 843.28,-970.26 910,-1021.38 941.93,-1045.83 986.99,-1050.5 1023.91,-1049.1"/>
<polygon fill="#63b8ff" stroke="#63b8ff" points="1023.78,-1052.61 1033.57,-1048.56 1023.39,-1045.62 1023.78,-1052.61"/>
</a>
</g>
</g>
<!-- Node20&#45;&gt;Node12 -->
<g id="edge28_Node000020_Node000012" class="edge">
<title>Node20&#45;&gt;Node12</title>
<g id="a_edge28_Node000020_Node000012"><a xlink:title=" ">
<path fill="none" stroke="#63b8ff" d="M869.68,-811.38C883.81,-811.38 899.61,-811.38 913.67,-811.38"/>
<polygon fill="#63b8ff" stroke="#63b8ff" points="913.49,-814.88 923.49,-811.38 913.49,-807.88 913.49,-814.88"/>
</a>
</g>
</g>
<!-- Node20&#45;&gt;Node14 -->
<g id="edge29_Node000020_Node000014" class="edge">
<title>Node20&#45;&gt;Node14</title>
<g id="a_edge29_Node000020_Node000014"><a xlink:title=" ">
<path fill="none" stroke="#63b8ff" d="M858.59,-800.63C864.5,-797.23 870.08,-792.88 874,-787.38 931.42,-706.78 949.08,-386.14 952.88,-298.57"/>
<polygon fill="#63b8ff" stroke="#63b8ff" points="956.38,-298.84 953.29,-288.71 949.38,-298.55 956.38,-298.84"/>
</a>
</g>
</g>
<!-- Node21&#45;&gt;Node14 -->
<g id="edge37_Node000021_Node000014" class="edge">
<title>Node21&#45;&gt;Node14</title>
<g id="a_edge37_Node000021_Node000014"><a xlink:title=" ">
<path fill="none" stroke="#63b8ff" d="M150.14,-188.52C181.99,-153.89 288.2,-48.38 399.62,-48.38 399.62,-48.38 399.62,-48.38 699.88,-48.38 781.44,-48.38 813.05,-52.17 874,-106.38 919.54,-146.88 941.1,-218.89 949.41,-254.79"/>
<polygon fill="#63b8ff" stroke="#63b8ff" points="945.96,-255.36 951.5,-264.39 952.8,-253.87 945.96,-255.36"/>
</a>
</g>
</g>
<!-- Node22 -->
<g id="Node000022" class="node">
<title>Node22</title>
<g id="a_Node000022"><a xlink:href="../../d0/d59/futil_8c.html#ae3d67c8c0b5b559664942e539256605b" target="_top" xlink:title="Returns the base name of a file specification.">
<polygon fill="white" stroke="#666666" points="300,-20.75 227.75,-20.75 227.75,0 300,0 300,-20.75"/>
<text xml:space="preserve" text-anchor="middle" x="263.88" y="-7.25" font-family="Helvetica,sans-Serif" font-size="10.00">base_name</text>
</a>
</g>
</g>
<!-- Node21&#45;&gt;Node22 -->
<g id="edge31_Node000021_Node000022" class="edge">
<title>Node21&#45;&gt;Node22</title>
<g id="a_edge31_Node000021_Node000022"><a xlink:title=" ">
<path fill="none" stroke="#63b8ff" d="M142.9,-188.76C149.8,-160.39 172.15,-81.73 217.25,-34.38 219.78,-31.72 222.67,-29.3 225.74,-27.1"/>
<polygon fill="#63b8ff" stroke="#63b8ff" points="227.35,-30.22 234.02,-21.99 223.67,-24.27 227.35,-30.22"/>
</a>
</g>
</g>
<!-- Node23 -->
<g id="Node000023" class="node">
<title>Node23</title>
<g id="a_Node000023"><a xlink:href="../../d0/d59/futil_8c.html#a02792428710078b7a2ca59ef70ae83fa" target="_top" xlink:title="Locates a file in the system PATH.">
<polygon fill="white" stroke="#666666" points="454.75,-209.75 346.5,-209.75 346.5,-189 454.75,-189 454.75,-209.75"/>
<text xml:space="preserve" text-anchor="middle" x="400.62" y="-196.25" font-family="Helvetica,sans-Serif" font-size="10.00">locate_file_in_path</text>
</a>
</g>
</g>
<!-- Node21&#45;&gt;Node23 -->
<g id="edge32_Node000021_Node000023" class="edge">
<title>Node21&#45;&gt;Node23</title>
<g id="a_edge32_Node000021_Node000023"><a xlink:title=" ">
<path fill="none" stroke="#63b8ff" d="M181.56,-199.38C222.78,-199.38 286.89,-199.38 334.95,-199.38"/>
<polygon fill="#63b8ff" stroke="#63b8ff" points="334.67,-202.88 344.67,-199.38 334.67,-195.88 334.67,-202.88"/>
</a>
</g>
</g>
<!-- Node25 -->
<g id="Node000025" class="node">
<title>Node25</title>
<g id="a_Node000025"><a xlink:href="../../d3/d8f/mem_8c.html#a75ce293fe4e007a3337a190647408000" target="_top" xlink:title="Verify file specification argument.">
<polygon fill="white" stroke="#666666" points="310.5,-285.75 217.25,-285.75 217.25,-265 310.5,-265 310.5,-285.75"/>
<text xml:space="preserve" text-anchor="middle" x="263.88" y="-272.25" font-family="Helvetica,sans-Serif" font-size="10.00">verify_spec_arg</text>
</a>
</g>
</g>
<!-- Node21&#45;&gt;Node25 -->
<g id="edge38_Node000021_Node000025" class="edge">
<title>Node21&#45;&gt;Node25</title>
<g id="a_edge38_Node000021_Node000025"><a xlink:title=" ">
<path fill="none" stroke="#63b8ff" d="M157.77,-210.1C178.18,-222.78 212.36,-244.01 236.18,-258.8"/>
<polygon fill="#63b8ff" stroke="#63b8ff" points="234.06,-261.6 244.4,-263.9 237.75,-255.65 234.06,-261.6"/>
</a>
</g>
</g>
<!-- Node23&#45;&gt;Node8 -->
<g id="edge35_Node000023_Node000008" class="edge">
<title>Node23&#45;&gt;Node8</title>
<g id="a_edge35_Node000023_Node000008"><a xlink:title=" ">
<path fill="none" stroke="#63b8ff" d="M454.97,-199.11C498.92,-200.07 562.54,-204.2 616.25,-218.38 685.09,-236.55 759.51,-275.58 798.79,-297.87"/>
<polygon fill="#63b8ff" stroke="#63b8ff" points="796.95,-300.85 807.36,-302.8 800.43,-294.78 796.95,-300.85"/>
</a>
</g>
</g>
<!-- Node23&#45;&gt;Node14 -->
<g id="edge36_Node000023_Node000014" class="edge">
<title>Node23&#45;&gt;Node14</title>
<g id="a_edge36_Node000023_Node000014"><a xlink:title=" ">
<path fill="none" stroke="#63b8ff" d="M452.19,-188.54C541.21,-171.92 730.11,-147.71 874,-205.38 900.71,-216.08 924.36,-239.91 938.83,-257.01"/>
<polygon fill="#63b8ff" stroke="#63b8ff" points="935.91,-258.97 944.93,-264.52 941.34,-254.55 935.91,-258.97"/>
</a>
</g>
</g>
<!-- Node24 -->
<g id="Node000024" class="node">
<title>Node24</title>
<g id="a_Node000024"><a xlink:href="../../d0/d59/futil_8c.html#a0d44c51feb7f300fecb49dbf223a62f8" target="_top" xlink:title="Removes quotes and trims at first space.">
<polygon fill="white" stroke="#666666" points="616.25,-247.75 490.75,-247.75 490.75,-227 616.25,-227 616.25,-247.75"/>
<text xml:space="preserve" text-anchor="middle" x="553.5" y="-234.25" font-family="Helvetica,sans-Serif" font-size="10.00">canonicalize_file_spec</text>
</a>
</g>
</g>
<!-- Node23&#45;&gt;Node24 -->
<g id="edge33_Node000023_Node000024" class="edge">
<title>Node23&#45;&gt;Node24</title>
<g id="a_edge33_Node000023_Node000024"><a xlink:title=" ">
<path fill="none" stroke="#63b8ff" d="M444.46,-210.16C461.26,-214.39 480.73,-219.3 498.48,-223.77"/>
<polygon fill="#63b8ff" stroke="#63b8ff" points="497.54,-227.14 508.09,-226.19 499.25,-220.35 497.54,-227.14"/>
</a>
</g>
</g>
<!-- Node24&#45;&gt;Node14 -->
<g id="edge34_Node000024_Node000014" class="edge">
<title>Node24&#45;&gt;Node14</title>
<g id="a_edge34_Node000024_Node000014"><a xlink:title=" ">
<path fill="none" stroke="#63b8ff" d="M599.56,-226.54C662.47,-213.41 779.55,-196.3 874,-224.38 896.44,-231.04 918.45,-246.25 933.65,-258.5"/>
<polygon fill="#63b8ff" stroke="#63b8ff" points="931.1,-260.93 941.01,-264.67 935.6,-255.57 931.1,-260.93"/>
</a>
</g>
</g>
<!-- Node25&#45;&gt;Node8 -->
<g id="edge45_Node000025_Node000008" class="edge">
<title>Node25&#45;&gt;Node8</title>
<g id="a_edge45_Node000025_Node000008"><a xlink:title=" ">
<path fill="none" stroke="#63b8ff" d="M269.97,-286.08C280.69,-307.14 307.78,-353.47 346.5,-371.38 501.49,-443.03 713.31,-364.87 793.85,-329.7"/>
<polygon fill="#63b8ff" stroke="#63b8ff" points="794.79,-333.11 802.51,-325.85 791.95,-326.71 794.79,-333.11"/>
</a>
</g>
</g>
<!-- Node25&#45;&gt;Node14 -->
<g id="edge46_Node000025_Node000014" class="edge">
<title>Node25&#45;&gt;Node14</title>
<g id="a_edge46_Node000025_Node000014"><a xlink:title=" ">
<path fill="none" stroke="#63b8ff" d="M271.77,-264.64C284.51,-245.5 313.47,-205.2 346.5,-180.38 426.95,-119.91 451.86,-86.38 552.5,-86.38 552.5,-86.38 552.5,-86.38 699.88,-86.38 812.43,-86.38 907.14,-207.57 940.71,-256.37"/>
<polygon fill="#63b8ff" stroke="#63b8ff" points="937.6,-258.02 946.08,-264.36 943.41,-254.11 937.6,-258.02"/>
</a>
</g>
</g>
<!-- Node25&#45;&gt;Node23 -->
<g id="edge43_Node000025_Node000023" class="edge">
<title>Node25&#45;&gt;Node23</title>
<g id="a_edge43_Node000025_Node000023"><a xlink:title=" ">
<path fill="none" stroke="#63b8ff" d="M280.42,-264.52C296.56,-253.49 322.71,-236.24 346.5,-223.38 351.9,-220.46 357.72,-217.57 363.46,-214.87"/>
<polygon fill="#63b8ff" stroke="#63b8ff" points="364.58,-218.21 372.22,-210.87 361.67,-211.84 364.58,-218.21"/>
</a>
</g>
</g>
<!-- Node25&#45;&gt;Node24 -->
<g id="edge39_Node000025_Node000024" class="edge">
<title>Node25&#45;&gt;Node24</title>
<g id="a_edge39_Node000025_Node000024"><a xlink:title=" ">
<path fill="none" stroke="#63b8ff" d="M311,-267.02C322.57,-265.04 334.97,-263.03 346.5,-261.38 390.45,-255.05 439.86,-249.25 479.28,-244.94"/>
<polygon fill="#63b8ff" stroke="#63b8ff" points="479.57,-248.42 489.14,-243.87 478.82,-241.47 479.57,-248.42"/>
</a>
</g>
</g>
<!-- Node26 -->
<g id="Node000026" class="node">
<title>Node26</title>
<g id="a_Node000026"><a xlink:href="../../d0/d59/futil_8c.html#ad7f9941ba28a6cca3ccce953c4d77e32" target="_top" xlink:title="Replace Leading Tilde With Home Directory.">
<polygon fill="white" stroke="#666666" points="593,-323.75 514,-323.75 514,-303 593,-303 593,-323.75"/>
<text xml:space="preserve" text-anchor="middle" x="553.5" y="-310.25" font-family="Helvetica,sans-Serif" font-size="10.00">expand_tilde</text>
</a>
</g>
</g>
<!-- Node25&#45;&gt;Node26 -->
<g id="edge40_Node000025_Node000026" class="edge">
<title>Node25&#45;&gt;Node26</title>
<g id="a_edge40_Node000025_Node000026"><a xlink:title=" ">
<path fill="none" stroke="#63b8ff" d="M310.68,-278.77C349.22,-281.91 405.75,-287.18 454.75,-294.38 470.44,-296.68 487.44,-299.77 502.79,-302.79"/>
<polygon fill="#63b8ff" stroke="#63b8ff" points="501.66,-306.14 512.15,-304.67 503.04,-299.27 501.66,-306.14"/>
</a>
</g>
</g>
<!-- Node27 -->
<g id="Node000027" class="node">
<title>Node27</title>
<g id="a_Node000027"><a xlink:href="../../d0/d59/futil_8c.html#a32204f694cf5e28c888a1045a1b383a4" target="_top" xlink:title="removes leading and trailing double quotes if present">
<polygon fill="white" stroke="#666666" points="441.25,-362.75 360,-362.75 360,-342 441.25,-342 441.25,-362.75"/>
<text xml:space="preserve" text-anchor="middle" x="400.62" y="-349.25" font-family="Helvetica,sans-Serif" font-size="10.00">stripz_quotes</text>
</a>
</g>
</g>
<!-- Node25&#45;&gt;Node27 -->
<g id="edge44_Node000025_Node000027" class="edge">
<title>Node25&#45;&gt;Node27</title>
<g id="a_edge44_Node000025_Node000027"><a xlink:title=" ">
<path fill="none" stroke="#63b8ff" d="M278.07,-286.15C293.68,-298.52 320.81,-318.84 346.5,-332.38 349.73,-334.07 353.13,-335.7 356.59,-337.24"/>
<polygon fill="#63b8ff" stroke="#63b8ff" points="355.06,-340.39 365.64,-341 357.74,-333.93 355.06,-340.39"/>
</a>
</g>
</g>
<!-- Node28 -->
<g id="Node000028" class="node">
<title>Node28</title>
<g id="a_Node000028"><a xlink:href="../../d0/d59/futil_8c.html#ae14a4e790b69c8c2e50d1eb5cdf1fd19" target="_top" xlink:title="Verifies that the directory specified by &quot;spec&quot; exists and is accessible with the permissions specifi...">
<polygon fill="white" stroke="#666666" points="431.88,-438.75 369.38,-438.75 369.38,-418 431.88,-418 431.88,-438.75"/>
<text xml:space="preserve" text-anchor="middle" x="400.62" y="-425.25" font-family="Helvetica,sans-Serif" font-size="10.00">verify_dir</text>
</a>
</g>
</g>
<!-- Node25&#45;&gt;Node28 -->
<g id="edge47_Node000025_Node000028" class="edge">
<title>Node25&#45;&gt;Node28</title>
<g id="a_edge47_Node000025_Node000028"><a xlink:title=" ">
<path fill="none" stroke="#63b8ff" d="M269.14,-286.2C279.18,-310.43 306.49,-369.6 346.5,-404.38 350.3,-407.68 354.62,-410.6 359.13,-413.17"/>
<polygon fill="#63b8ff" stroke="#63b8ff" points="357.29,-416.16 367.8,-417.55 360.45,-409.92 357.29,-416.16"/>
</a>
</g>
</g>
<!-- Node29 -->
<g id="Node000029" class="node">
<title>Node29</title>
<g id="a_Node000029"><a xlink:href="../../d0/d59/futil_8c.html#ab190e75e095b7d3da114fce21ab8c8ea" target="_top" xlink:title="Verifies that the file specified by &quot;in_spec&quot; exists and is accessible with the permissions specified...">
<polygon fill="white" stroke="#666666" points="433.38,-323.75 367.88,-323.75 367.88,-303 433.38,-303 433.38,-323.75"/>
<text xml:space="preserve" text-anchor="middle" x="400.62" y="-310.25" font-family="Helvetica,sans-Serif" font-size="10.00">verify_file</text>
</a>
</g>
</g>
<!-- Node25&#45;&gt;Node29 -->
<g id="edge52_Node000025_Node000029" class="edge">
<title>Node25&#45;&gt;Node29</title>
<g id="a_edge52_Node000025_Node000029"><a xlink:title=" ">
<path fill="none" stroke="#63b8ff" d="M303.13,-286.16C319.85,-290.88 339.54,-296.43 356.75,-301.29"/>
<polygon fill="#63b8ff" stroke="#63b8ff" points="355.62,-304.6 366.2,-303.95 357.52,-297.87 355.62,-304.6"/>
</a>
</g>
</g>
<!-- Node26&#45;&gt;Node8 -->
<g id="edge41_Node000026_Node000008" class="edge">
<title>Node26&#45;&gt;Node8</title>
<g id="a_edge41_Node000026_Node000008"><a xlink:title=" ">
<path fill="none" stroke="#63b8ff" d="M593.22,-313.52C643.44,-313.7 730.82,-314.02 783.27,-314.22"/>
<polygon fill="#63b8ff" stroke="#63b8ff" points="783.02,-317.71 793.03,-314.25 783.04,-310.71 783.02,-317.71"/>
</a>
</g>
</g>
<!-- Node26&#45;&gt;Node14 -->
<g id="edge42_Node000026_Node000014" class="edge">
<title>Node26&#45;&gt;Node14</title>
<g id="a_edge42_Node000026_Node000014"><a xlink:title=" ">
<path fill="none" stroke="#63b8ff" d="M593.14,-309.79C667.66,-302.89 830.79,-287.77 909.51,-280.47"/>
<polygon fill="#63b8ff" stroke="#63b8ff" points="909.35,-284 918.99,-279.6 908.71,-277.03 909.35,-284"/>
</a>
</g>
</g>
<!-- Node28&#45;&gt;Node6 -->
<g id="edge48_Node000028_Node000006" class="edge">
<title>Node28&#45;&gt;Node6</title>
<g id="a_edge48_Node000028_Node000006"><a xlink:title=" ">
<path fill="none" stroke="#63b8ff" d="M407.73,-439.21C430.52,-479.71 510.93,-622.53 541.02,-675.98"/>
<polygon fill="#63b8ff" stroke="#63b8ff" points="537.79,-677.38 545.75,-684.38 543.89,-673.95 537.79,-677.38"/>
</a>
</g>
</g>
<!-- Node28&#45;&gt;Node12 -->
<g id="edge50_Node000028_Node000012" class="edge">
<title>Node28&#45;&gt;Node12</title>
<g id="a_edge50_Node000028_Node000012"><a xlink:title=" ">
<path fill="none" stroke="#63b8ff" d="M432.35,-429.58C517.43,-434.68 757.52,-461.41 874,-601.38 921.93,-658.97 942.84,-748.39 950.28,-789.43"/>
<polygon fill="#63b8ff" stroke="#63b8ff" points="946.79,-789.77 951.92,-799.04 953.69,-788.59 946.79,-789.77"/>
</a>
</g>
</g>
<!-- Node28&#45;&gt;Node14 -->
<g id="edge51_Node000028_Node000014" class="edge">
<title>Node28&#45;&gt;Node14</title>
<g id="a_edge51_Node000028_Node000014"><a xlink:title=" ">
<path fill="none" stroke="#63b8ff" d="M432.28,-427.97C510.44,-425.77 721.79,-412.37 874,-333.38 895.14,-322.4 917,-306.39 932.48,-294.13"/>
<polygon fill="#63b8ff" stroke="#63b8ff" points="934.47,-297.02 940.05,-288.01 930.07,-291.58 934.47,-297.02"/>
</a>
</g>
</g>
<!-- Node28&#45;&gt;Node26 -->
<g id="edge49_Node000028_Node000026" class="edge">
<title>Node28&#45;&gt;Node26</title>
<g id="a_edge49_Node000028_Node000026"><a xlink:title=" ">
<path fill="none" stroke="#63b8ff" d="M415.82,-417.56C441.88,-397.69 497.58,-355.24 529.24,-331.11"/>
<polygon fill="#63b8ff" stroke="#63b8ff" points="531.2,-334.01 537.03,-325.17 526.96,-328.44 531.2,-334.01"/>
</a>
</g>
</g>
<!-- Node29&#45;&gt;Node6 -->
<g id="edge54_Node000029_Node000006" class="edge">
<title>Node29&#45;&gt;Node6</title>
<g id="a_edge54_Node000029_Node000006"><a xlink:title=" ">
<path fill="none" stroke="#63b8ff" d="M433.81,-320.03C441.56,-322.98 449.19,-327.24 454.75,-333.38 546.26,-434.23 553.54,-611.83 553.1,-674.07"/>
<polygon fill="#63b8ff" stroke="#63b8ff" points="549.6,-673.96 552.94,-684.02 556.6,-674.08 549.6,-673.96"/>
</a>
</g>
</g>
<!-- Node29&#45;&gt;Node12 -->
<g id="edge56_Node000029_Node000012" class="edge">
<title>Node29&#45;&gt;Node12</title>
<g id="a_edge56_Node000029_Node000012"><a xlink:title=" ">
<path fill="none" stroke="#63b8ff" d="M433.55,-323.41C529.46,-354.17 812.24,-449.35 874,-521.38 942.92,-601.76 952.7,-736.75 953.78,-789.41"/>
<polygon fill="#63b8ff" stroke="#63b8ff" points="950.28,-789.2 953.88,-799.16 957.28,-789.13 950.28,-789.2"/>
</a>
</g>
</g>
<!-- Node29&#45;&gt;Node14 -->
<g id="edge57_Node000029_Node000014" class="edge">
<title>Node29&#45;&gt;Node14</title>
<g id="a_edge57_Node000029_Node000014"><a xlink:title=" ">
<path fill="none" stroke="#63b8ff" d="M433.59,-305.25C450.47,-301.29 471.61,-296.86 490.75,-294.38 643.2,-274.59 826.05,-274.31 908.96,-275.44"/>
<polygon fill="#63b8ff" stroke="#63b8ff" points="908.89,-278.94 918.94,-275.6 909,-271.94 908.89,-278.94"/>
</a>
</g>
</g>
<!-- Node29&#45;&gt;Node24 -->
<g id="edge53_Node000029_Node000024" class="edge">
<title>Node29&#45;&gt;Node24</title>
<g id="a_edge53_Node000029_Node000024"><a xlink:title=" ">
<path fill="none" stroke="#63b8ff" d="M418.28,-302.59C435.86,-291.46 464.61,-273.98 490.75,-261.38 497.28,-258.23 504.33,-255.17 511.26,-252.36"/>
<polygon fill="#63b8ff" stroke="#63b8ff" points="512.51,-255.63 520.53,-248.71 509.95,-249.12 512.51,-255.63"/>
</a>
</g>
</g>
<!-- Node29&#45;&gt;Node26 -->
<g id="edge55_Node000029_Node000026" class="edge">
<title>Node29&#45;&gt;Node26</title>
<g id="a_edge55_Node000029_Node000026"><a xlink:title=" ">
<path fill="none" stroke="#63b8ff" d="M433.62,-313.38C453.51,-313.38 479.51,-313.38 502.12,-313.38"/>
<polygon fill="#63b8ff" stroke="#63b8ff" points="502.07,-316.88 512.07,-313.38 502.07,-309.88 502.07,-316.88"/>
</a>
</g>
</g>
<!-- Node30&#45;&gt;Node2 -->
<g id="edge59_Node000030_Node000002" class="edge">
<title>Node30&#45;&gt;Node2</title>
<g id="a_edge59_Node000030_Node000002"><a xlink:title=" ">
<path fill="none" stroke="#63b8ff" d="M558.36,-841.05C568.9,-868.77 600.91,-943.62 652.25,-983.38 694.2,-1015.86 755.39,-1030.2 793.05,-1036.26"/>
<polygon fill="#63b8ff" stroke="#63b8ff" points="792.49,-1039.71 802.9,-1037.72 793.52,-1032.79 792.49,-1039.71"/>
</a>
</g>
</g>
<!-- Node30&#45;&gt;Node7 -->
<g id="edge60_Node000030_Node000007" class="edge">
<title>Node30&#45;&gt;Node7</title>
<g id="a_edge60_Node000030_Node000007"><a xlink:title=" ">
<path fill="none" stroke="#63b8ff" d="M561.17,-819.61C573.33,-799.64 599.42,-755.25 616.25,-715.38 636.91,-666.42 616.75,-640.91 652.25,-601.38 653.09,-600.44 653.98,-599.55 654.91,-598.7"/>
<polygon fill="#63b8ff" stroke="#63b8ff" points="656.88,-601.59 663,-592.94 652.82,-595.89 656.88,-601.59"/>
</a>
</g>
</g>
<!-- Node30&#45;&gt;Node9 -->
<g id="edge61_Node000030_Node000009" class="edge">
<title>Node30&#45;&gt;Node9</title>
<g id="a_edge61_Node000030_Node000009"><a xlink:title=" ">
<path fill="none" stroke="#63b8ff" d="M576.59,-827.45C593.93,-825.15 618.85,-821.85 641.61,-818.83"/>
<polygon fill="#63b8ff" stroke="#63b8ff" points="641.95,-822.32 651.4,-817.53 641.03,-815.38 641.95,-822.32"/>
</a>
</g>
</g>
<!-- Node30&#45;&gt;Node10 -->
<g id="edge62_Node000030_Node000010" class="edge">
<title>Node30&#45;&gt;Node10</title>
<g id="a_edge62_Node000030_Node000010"><a xlink:title=" ">
<path fill="none" stroke="#63b8ff" d="M562.06,-841.23C577.21,-862.4 613.23,-909.82 652.25,-940.38 655.8,-943.15 659.71,-945.76 663.71,-948.17"/>
<polygon fill="#63b8ff" stroke="#63b8ff" points="661.91,-951.17 672.35,-952.96 665.3,-945.05 661.91,-951.17"/>
</a>
</g>
</g>
<!-- Node30&#45;&gt;Node11 -->
<g id="edge63_Node000030_Node000011" class="edge">
<title>Node30&#45;&gt;Node11</title>
<g id="a_edge63_Node000030_Node000011"><a xlink:title=" ">
<path fill="none" stroke="#63b8ff" d="M576.59,-821.44C598.96,-812.39 633.96,-798.23 660.63,-787.44"/>
<polygon fill="#63b8ff" stroke="#63b8ff" points="661.76,-790.76 669.72,-783.77 659.13,-784.27 661.76,-790.76"/>
</a>
</g>
</g>
<!-- Node30&#45;&gt;Node12 -->
<g id="edge64_Node000030_Node000012" class="edge">
<title>Node30&#45;&gt;Node12</title>
<g id="a_edge64_Node000030_Node000012"><a xlink:title=" ">
<path fill="none" stroke="#63b8ff" d="M564.34,-841.11C580.65,-858.02 615.21,-890.2 652.25,-902.38 691.62,-915.31 704.85,-910.43 745.5,-902.38 814.43,-888.72 888.23,-850.03 926.78,-827.74"/>
<polygon fill="#63b8ff" stroke="#63b8ff" points="928.08,-831.03 934.93,-822.95 924.53,-824.99 928.08,-831.03"/>
</a>
</g>
</g>
<!-- Node30&#45;&gt;Node14 -->
<g id="edge65_Node000030_Node000014" class="edge">
<title>Node30&#45;&gt;Node14</title>
<g id="a_edge65_Node000030_Node000014"><a xlink:title=" ">
<path fill="none" stroke="#63b8ff" d="M571.03,-841.18C606.05,-862.56 689.11,-905.26 745.5,-869.38 777.37,-849.09 758.43,-822.29 781.5,-792.38 814.17,-750.02 847.04,-761.58 874,-715.38 916.43,-642.65 944.31,-376.85 951.75,-298.35"/>
<polygon fill="#63b8ff" stroke="#63b8ff" points="955.22,-298.83 952.66,-288.55 948.25,-298.18 955.22,-298.83"/>
</a>
</g>
</g>
<!-- Node30&#45;&gt;Node15 -->
<g id="edge66_Node000030_Node000015" class="edge">
<title>Node30&#45;&gt;Node15</title>
<g id="a_edge66_Node000030_Node000015"><a xlink:title=" ">
<path fill="none" stroke="#63b8ff" d="M576.59,-833.46C598.96,-836.58 633.98,-841.46 660.65,-845.18"/>
<polygon fill="#63b8ff" stroke="#63b8ff" points="659.99,-848.62 670.37,-846.54 660.95,-841.69 659.99,-848.62"/>
</a>
</g>
</g>
<!-- Node30&#45;&gt;Node16 -->
<g id="edge67_Node000030_Node000016" class="edge">
<title>Node30&#45;&gt;Node16</title>
<g id="a_edge67_Node000030_Node000016"><a xlink:title=" ">
<path fill="none" stroke="#63b8ff" d="M560.76,-819.73C575.74,-794.47 615.16,-729.13 652.25,-677.38 661.5,-664.47 672.63,-650.54 681.57,-639.68"/>
<polygon fill="#63b8ff" stroke="#63b8ff" points="684.1,-642.12 687.81,-632.2 678.72,-637.64 684.1,-642.12"/>
</a>
</g>
</g>
<!-- Node30&#45;&gt;Node18 -->
<g id="edge68_Node000030_Node000018" class="edge">
<title>Node30&#45;&gt;Node18</title>
<g id="a_edge68_Node000030_Node000018"><a xlink:title=" ">
<path fill="none" stroke="#63b8ff" d="M565.75,-819.86C590.02,-797.17 647.58,-743.38 678.09,-714.87"/>
<polygon fill="#63b8ff" stroke="#63b8ff" points="680.26,-717.63 685.17,-708.25 675.48,-712.52 680.26,-717.63"/>
</a>
</g>
</g>
</g>
</svg>
