<?xml version="1.0" encoding="UTF-8" standalone="no"?>
<svg
   version="1.1"
   width="3.1497452in"
   height="0.67730331in"
   viewBox="0 0 944.92261 203.19099"
   id="svg1"
   xmlns="http://www.w3.org/2000/svg"
   xmlns:svg="http://www.w3.org/2000/svg">
  <defs
     id="defs1" />
  <path
     id="path1"
     fill="#f00000"
     stroke="#000000"
     stroke-width="1"
     d="m 455.15345,7.2505637 c 0.76,-3.97 3.54,-6.05 7.38,-5.81 22.08,-0.64000001 94.06,-0.49000001 108.48,-0.08 5.23,1.14 4.79,3.94 5.01,6.25 -0.01,11.9200003 -0.94,27.6700003 -1.28,34.2000003 -0.32,1.77 -2.17,5.4 -7.19,5.44 -15.03,-0.29 -49.35,0.08 -65.7,0.08 -0.34,4.97 -1.36,14.8 -1.32,19.62 10.42,0 32.51,-0.85 46.88,0.06 3.6,0.71 6.66,1.97 6.63,7.13 -0.03,8.29 -0.82,23.41 -1.6,32.529996 -2.03,5.46 -1.13,6.79 -7.53,8.45 0,0 -49.91,0.09 -49.91,0.09 0,0 -3.01,25.57 -3.01,25.57 0,0 65.79,-0.41 65.79,-0.41 6.52,0.08 9.43,0.49 11.19,5.05 -0.04,14.85 -0.49,31.65 -1.41,43.81 -1.46,6.99 -3.09,7.86 -7.48,9.04 -39.35,0.07 -84.1,-1.66 -123.48,0.23 -2.69,0.13 -7.75,-1.09 -8.56,-5.92 5.08,-35.31 23.14,-163.879996 27.11,-185.3299963 z m 154.8,-6.02 c 0,0 26.99,0.09 33.28,0.29 0,0 47.55,56.7500003 51.12,60.3700003 -0.25,-10.9 -2.37,-46.15 -2.16,-55.4400003 0.19,-3.49 1.46,-4.33 3.86,-5.05 1.96,0.03 38.56,-0.13 40.93,-0.12 1.94,0.23 4.59,2.39 4.93,5.79 2.99,30.2100003 16.93,179.4699963 16.92,183.7699963 0.13,3.44 -2.39,5.94 -5.09,6.86 -6.95,0.8 -36.83,0.35 -44.96,0.67 -3.63,-0.02 -7.71,-2.07 -7.85,-6.91 -0.97,-13.47 -2.28,-43.34 -2.28,-43.34 0,0 -36.24,-46.19 -43.91,-58.859996 0,0 1.43,77.939996 1.43,102.459996 -0.11,4.82 -1.91,5.65 -4.41,6.61 -5.26,0.27 -34.82,0.22 -45.95,-0.28 -4.28,-0.79 -6.18,-3.36 -7.07,-6.21 -0.13,-4.66 3.64,-171.599996 4.69,-184.8199963 0.8,-5.47 3.74,-5.84 6.52,-5.79 z m -428.19,-0.11 c 1.51,0 7.68,-0.62000001 7.16,4.5 -1.82,6.5500003 -12.03,34.5500003 -13.56,38.8000003 -2.3,3.81 -6.09,3.78 -7.48,3.79 -60.56,0.63 -62.47,-3.85 -71.089991,16.28 -4.48,9.81 -19.550003,46.659996 -27.470007,65.309996 -2.26,11.38 5.91,10.33 30.270008,9.9 16.48999,-0.15 25.54999,-0.1 33.40999,-0.1 3.17,0.7 4.22,1.27 3.3,7.47 -2.43,11.24 -10.08,35.04 -17.1,45.64 -2.58,3.32 -2.01,3.9 -7.36,5.6 -10.95,0.25 -63.949998,1.3 -81.009998,-0.51 -19.09,-2.45 -24.9699999,-8.78 -28.5499999,-15.57 -2.60999996,-6.34 -2.45999996,-19.2 1.33,-30.96 C 14.263452,124.33056 46.033452,58.290564 50.823452,48.490564 80.233456,-6.8894363 112.84345,1.4805637 181.76345,1.1205637 Z m 25,192.9999963 c 12.71,-44.38 49.75,-166.319996 56.96,-186.3299963 1.47,-3.21 2.28,-5.26 7.11,-6.7 -6.79,0.21 33.06,-0.06 35.7,-0.14000001 8.55,-0.29 9.15,1.66000001 10.78,4.79000001 1.67,6.6600003 10.6,38.0700003 13.33,45.5300003 1.7,1.38 3.64,1.57 6.88,0.13 0,0 30.11,-40.85 33.77,-45.7400003 1.5,-3.61 7.34,-4.51 7.34,-4.51 0,0 41.9,0.11 41.9,0.11 2.33,0.48 4.32,0.89 3.73,5.11 -6.36,39.9900003 -24.63,144.3699963 -31.16,180.9799963 -1.05,6.56 -3.78,9.94 -7.62,10.48 -7.96,0.56 -34.84,0.23 -47.3,0.45 0,0 -5.71,-1.55 -4.24,-7.48 4.81,-24.63 22.06,-104.889996 22.06,-104.889996 -5.21,5.8 -20.46,31.739996 -28.97,37.629996 -5.54,-0.24 -19.06,0.46 -21.71,-0.74 -6.86,-3.11 -6.3,-15.8 -12.3,-37.549996 -7.3,29.269996 -18.31,75.599996 -28.42,106.199996 -1.56,4.02 -3.06,6.34 -6.78,6.77 0,0 -39.7,0.04 -45.11,-0.07 -2.46,0.13 -5.73,-0.05 -5.95,-4.03 z m 567.65,-193.21999631 c 3.25,-0.06 35.1,-0.32 40.78,-0.4 7.07,1.13000001 7.02,3.06000001 7.72,7.98000001 5.69,32.8000003 14.61,92.1199963 19.14,116.5499963 0.86,7.23 2.9,10.77 4.46,12.98 5.96,8.1 30.69,5.11 33.61,1.78 2.48,-2.82 3.79,-5.14 2.47,-11.47 -3.86,-24.17 -20.33,-100.379996 -22.26,-121.4399963 0,-2.12 0.38,-3.31 2.24,-4.68 6.09,-1.14 33.42,-0.95 38.52,-1.14 4.23,0.06 7.93,0.65 9.73,6.25 2.59,10.6900003 31.85,136.2099963 32.61,140.8499963 3.74,24.56 -3.48,35.82 -15.57,43.98 -1.05,0.01 -8.86,6.44 -35.73,9.87 -26.2,1.67 -44.49,0.23 -58.06,-3.95 -13.49,-5.63 -38.25,-10.2 -45.81,-47.95 -4.29,-37.92 -12.22,-94.489996 -16.68,-143.8699963 0,-4.47 1.91,-4.78 2.83,-5.34000001 z M 165.10345,112.17056 c 4.25,-11.43 12.6,-32.889996 16.2,-43.129996 0.9,-3.05 3.91,-4.2 5.92,-4.55 6.19,-0.13 26.52,-0.4 28.78,-0.32 1.59,0.55 4.14,1.23 2.9,4.78 -2.33,9.37 -10.98,33.109996 -14.52,45.789996 -1.61,3.99 -3.24,5.33 -7.44,5.62 -0.03,0.03 -27.93,0.64 -27.93,0.64 -2.1,-0.5 -5.95,-2.73 -3.91,-8.83 z" />
</svg>
