<?xml version="1.0" encoding="UTF-8" standalone="no"?>
<!DOCTYPE svg PUBLIC "-//W3C//DTD SVG 1.1//EN"
 "http://www.w3.org/Graphics/SVG/1.1/DTD/svg11.dtd">
<!-- Generated by graphviz version 14.1.2 (0)
 -->
<!-- Title: get_prev_line Pages: 1 -->
<svg width="231pt" height="68pt"
 viewBox="0.00 0.00 231.00 68.00" xmlns="http://www.w3.org/2000/svg" xmlns:xlink="http://www.w3.org/1999/xlink">
<g id="graph0" class="graph" transform="scale(1 1) rotate(0) translate(4 63.75)">
<title>get_prev_line</title>
<!-- Node1 -->
<g id="Node000001" class="node">
<title>Node1</title>
<g id="a_Node000001"><a xlink:title="Get Previous Line from File.">
<polygon fill="#999999" stroke="#666666" points="82,-39.75 0,-39.75 0,-19 82,-19 82,-39.75"/>
<text xml:space="preserve" text-anchor="middle" x="41" y="-26.25" font-family="Helvetica,sans-Serif" font-size="10.00">get_prev_line</text>
</a>
</g>
</g>
<!-- Node2 -->
<g id="Node000002" class="node">
<title>Node2</title>
<g id="a_Node000002"><a xlink:href="../../d6/d22/a00245.html#a395b27e6a9716bf49e3fc04d53987b33" target="_top" xlink:title="Get Next Line from File.">
<polygon fill="white" stroke="#666666" points="211.25,-59.75 129.25,-59.75 129.25,-39 211.25,-39 211.25,-59.75"/>
<text xml:space="preserve" text-anchor="middle" x="170.25" y="-46.25" font-family="Helvetica,sans-Serif" font-size="10.00">get_next_line</text>
</a>
</g>
</g>
<!-- Node1&#45;&gt;Node2 -->
<g id="edge1_Node000001_Node000002" class="edge">
<title>Node1&#45;&gt;Node2</title>
<g id="a_edge1_Node000001_Node000002"><a xlink:title=" ">
<path fill="none" stroke="#63b8ff" d="M82.26,-35.7C93.52,-37.47 105.91,-39.42 117.72,-41.28"/>
<polygon fill="#63b8ff" stroke="#63b8ff" points="116.9,-44.69 127.32,-42.78 117.98,-37.77 116.9,-44.69"/>
</a>
</g>
</g>
<!-- Node3 -->
<g id="Node000003" class="node">
<title>Node3</title>
<g id="a_Node000003"><a xlink:href="../../d6/d22/a00245.html#aaf8cff992778d85e44351a834ad2b81a" target="_top" xlink:title="Get Position of Previous Line.">
<polygon fill="white" stroke="#666666" points="222.5,-20.75 118,-20.75 118,0 222.5,0 222.5,-20.75"/>
<text xml:space="preserve" text-anchor="middle" x="170.25" y="-7.25" font-family="Helvetica,sans-Serif" font-size="10.00">get_pos_prev_line</text>
</a>
</g>
</g>
<!-- Node1&#45;&gt;Node3 -->
<g id="edge2_Node000001_Node000003" class="edge">
<title>Node1&#45;&gt;Node3</title>
<g id="a_edge2_Node000001_Node000003"><a xlink:title=" ">
<path fill="none" stroke="#63b8ff" d="M82.26,-23.36C89.97,-22.21 98.21,-20.98 106.43,-19.75"/>
<polygon fill="#63b8ff" stroke="#63b8ff" points="106.71,-23.25 116.09,-18.31 105.68,-16.33 106.71,-23.25"/>
</a>
</g>
</g>
</g>
</svg>
