<?xml version="1.0" encoding="UTF-8" standalone="no"?>
<!DOCTYPE svg PUBLIC "-//W3C//DTD SVG 1.1//EN"
 "http://www.w3.org/Graphics/SVG/1.1/DTD/svg11.dtd">
<!-- Generated by graphviz version 14.1.2 (0)
 -->
<!-- Title: view_file Pages: 1 -->
<svg width="1022pt" height="259pt"
 viewBox="0.00 0.00 1022.00 259.00" xmlns="http://www.w3.org/2000/svg" xmlns:xlink="http://www.w3.org/1999/xlink">
<g id="graph0" class="graph" transform="scale(1 1) rotate(0) translate(4 254.75)">
<title>view_file</title>
<!-- Node1 -->
<g id="Node000001" class="node">
<title>Node1</title>
<g id="a_Node000001"><a xlink:title="Start view.">
<polygon fill="#999999" stroke="#666666" points="1014,-154.75 953.75,-154.75 953.75,-134 1014,-134 1014,-154.75"/>
<text xml:space="preserve" text-anchor="middle" x="983.88" y="-141.25" font-family="Helvetica,sans-Serif" font-size="10.00">view_file</text>
</a>
</g>
</g>
<!-- Node2 -->
<g id="Node000002" class="node">
<title>Node2</title>
<g id="a_Node000002"><a xlink:href="../../dd/dd7/a00248.html#a3c04138a5bfe5d72780bb7e82a18e627" target="_top" xlink:title=" ">
<polygon fill="white" stroke="#666666" points="800.12,-250.75 759.38,-250.75 759.38,-230 800.12,-230 800.12,-250.75"/>
<text xml:space="preserve" text-anchor="middle" x="779.75" y="-237.25" font-family="Helvetica,sans-Serif" font-size="10.00">main</text>
</a>
</g>
</g>
<!-- Node1&#45;&gt;Node2 -->
<g id="edge1_Node000001_Node000002" class="edge">
<title>Node1&#45;&gt;Node2</title>
<g id="a_edge1_Node000001_Node000002"><a xlink:title=" ">
<path fill="none" stroke="#63b8ff" d="M953.46,-160.38C923.5,-176.42 875.5,-201.39 832.75,-220.38 822.14,-225.09 810.05,-229.77 800.2,-233.43"/>
<polygon fill="#63b8ff" stroke="#63b8ff" points="954.79,-163.64 961.94,-155.82 951.47,-157.48 954.79,-163.64"/>
</a>
</g>
</g>
<!-- Node3 -->
<g id="Node000003" class="node">
<title>Node3</title>
<g id="a_Node000003"><a xlink:href="../../d3/d5e/a00275.html#a75a4e7afc9c9aafd3d35ab706f5fdc71" target="_top" xlink:title="subprogram entry point for C&#45;Menu View">
<polygon fill="white" stroke="#666666" points="917.75,-154.75 868.75,-154.75 868.75,-134 917.75,-134 917.75,-154.75"/>
<text xml:space="preserve" text-anchor="middle" x="893.25" y="-141.25" font-family="Helvetica,sans-Serif" font-size="10.00">mview</text>
</a>
</g>
</g>
<!-- Node1&#45;&gt;Node3 -->
<g id="edge2_Node000001_Node000003" class="edge">
<title>Node1&#45;&gt;Node3</title>
<g id="a_edge2_Node000001_Node000003"><a xlink:title=" ">
<path fill="none" stroke="#63b8ff" d="M941.99,-144.38C933.79,-144.38 925.42,-144.38 918.04,-144.38"/>
<polygon fill="#63b8ff" stroke="#63b8ff" points="941.85,-147.88 951.85,-144.38 941.85,-140.88 941.85,-147.88"/>
</a>
</g>
</g>
<!-- Node3&#45;&gt;Node2 -->
<g id="edge19_Node000003_Node000002" class="edge">
<title>Node3&#45;&gt;Node2</title>
<g id="a_edge19_Node000003_Node000002"><a xlink:title=" ">
<path fill="none" stroke="#63b8ff" d="M880.64,-164.74C870.07,-181.68 853.05,-205.36 832.75,-220.38 823.19,-227.45 810.81,-232.34 800.53,-235.52"/>
<polygon fill="#63b8ff" stroke="#63b8ff" points="883.44,-166.88 885.58,-156.51 877.43,-163.28 883.44,-166.88"/>
</a>
</g>
</g>
<!-- Node4 -->
<g id="Node000004" class="node">
<title>Node4</title>
<g id="a_Node000004"><a xlink:href="../../d9/d01/a00227.html#aeebc4c0b94ca97d753e10a0cd1798730" target="_top" xlink:title="Displays the help screen for the pick interface using mview.">
<polygon fill="white" stroke="#666666" points="831.25,-211.75 728.25,-211.75 728.25,-191 831.25,-191 831.25,-211.75"/>
<text xml:space="preserve" text-anchor="middle" x="779.75" y="-198.25" font-family="Helvetica,sans-Serif" font-size="10.00">display_pick_help</text>
</a>
</g>
</g>
<!-- Node3&#45;&gt;Node4 -->
<g id="edge3_Node000003_Node000004" class="edge">
<title>Node3&#45;&gt;Node4</title>
<g id="a_edge3_Node000003_Node000004"><a xlink:title=" ">
<path fill="none" stroke="#63b8ff" d="M863.71,-160.76C853.97,-166.21 842.96,-172.2 832.75,-177.38 823.88,-181.87 814.01,-186.52 805.27,-190.51"/>
<polygon fill="#63b8ff" stroke="#63b8ff" points="865.37,-163.84 872.36,-155.88 861.93,-157.75 865.37,-163.84"/>
</a>
</g>
</g>
<!-- Node9 -->
<g id="Node000009" class="node">
<title>Node9</title>
<g id="a_Node000009"><a xlink:href="../../d5/d35/a00266.html#aa5d0e30e7036b72b51c843d0a7e486a1" target="_top" xlink:title="Processes user input for the menu system.">
<polygon fill="white" stroke="#666666" points="317.25,-134.75 194.75,-134.75 194.75,-114 317.25,-114 317.25,-134.75"/>
<text xml:space="preserve" text-anchor="middle" x="256" y="-121.25" font-family="Helvetica,sans-Serif" font-size="10.00">menu_cmd_processor</text>
</a>
</g>
</g>
<!-- Node3&#45;&gt;Node9 -->
<g id="edge20_Node000003_Node000009" class="edge">
<title>Node3&#45;&gt;Node9</title>
<g id="a_edge20_Node000003_Node000009"><a xlink:title=" ">
<path fill="none" stroke="#63b8ff" d="M856.92,-140.14C807.03,-134.54 713.08,-125.38 632.75,-125.38 632.75,-125.38 632.75,-125.38 490.62,-125.38 431.81,-125.38 364.67,-125.05 317.51,-124.78"/>
<polygon fill="#63b8ff" stroke="#63b8ff" points="856.49,-143.62 866.82,-141.28 857.28,-136.66 856.49,-143.62"/>
</a>
</g>
</g>
<!-- Node12 -->
<g id="Node000012" class="node">
<title>Node12</title>
<g id="a_Node000012"><a xlink:href="../../d9/d01/a00227.html#af7fcbb1c8b67a4d11c86ba7209f397c2" target="_top" xlink:title="Executes specified command with selected objects as arguments.">
<polygon fill="white" stroke="#666666" points="671.62,-173.75 591.88,-173.75 591.88,-153 671.62,-153 671.62,-173.75"/>
<text xml:space="preserve" text-anchor="middle" x="631.75" y="-160.25" font-family="Helvetica,sans-Serif" font-size="10.00">exec_objects</text>
</a>
</g>
</g>
<!-- Node3&#45;&gt;Node12 -->
<g id="edge12_Node000003_Node000012" class="edge">
<title>Node3&#45;&gt;Node12</title>
<g id="a_edge12_Node000003_Node000012"><a xlink:title=" ">
<path fill="none" stroke="#63b8ff" d="M856.86,-146.97C808.45,-150.51 721.86,-156.85 671.67,-160.53"/>
<polygon fill="#63b8ff" stroke="#63b8ff" points="857.07,-150.46 866.79,-146.24 856.56,-143.48 857.07,-150.46"/>
</a>
</g>
</g>
<!-- Node13 -->
<g id="Node000013" class="node">
<title>Node13</title>
<g id="a_Node000013"><a xlink:href="../../d7/d40/a00236.html#ada302551bf41bf8ed6132fd34328a47e" target="_top" xlink:title="Form main processing loop.">
<polygon fill="white" stroke="#666666" points="818.5,-97.75 741,-97.75 741,-77 818.5,-77 818.5,-97.75"/>
<text xml:space="preserve" text-anchor="middle" x="779.75" y="-84.25" font-family="Helvetica,sans-Serif" font-size="10.00">form_engine</text>
</a>
</g>
</g>
<!-- Node3&#45;&gt;Node13 -->
<g id="edge14_Node000003_Node000013" class="edge">
<title>Node3&#45;&gt;Node13</title>
<g id="a_edge14_Node000003_Node000013"><a xlink:title=" ">
<path fill="none" stroke="#63b8ff" d="M863.71,-127.99C853.97,-122.54 842.96,-116.55 832.75,-111.38 823.88,-106.88 814.01,-102.23 805.27,-98.24"/>
<polygon fill="#63b8ff" stroke="#63b8ff" points="861.93,-131 872.36,-132.87 865.37,-124.91 861.93,-131"/>
</a>
</g>
</g>
<!-- Node17 -->
<g id="Node000017" class="node">
<title>Node17</title>
<g id="a_Node000017"><a xlink:href="../../d6/d22/a00245.html#ad997ba9f8591568c77291fb1b44601b2" target="_top" xlink:title="Display View Help File.">
<polygon fill="white" stroke="#666666" points="832.75,-58.75 726.75,-58.75 726.75,-38 832.75,-38 832.75,-58.75"/>
<text xml:space="preserve" text-anchor="middle" x="779.75" y="-45.25" font-family="Helvetica,sans-Serif" font-size="10.00">view_display_help</text>
</a>
</g>
</g>
<!-- Node3&#45;&gt;Node17 -->
<g id="edge21_Node000003_Node000017" class="edge">
<title>Node3&#45;&gt;Node17</title>
<g id="a_edge21_Node000003_Node000017"><a xlink:title=" ">
<path fill="none" stroke="#63b8ff" d="M880.64,-124.01C870.07,-107.07 853.05,-83.39 832.75,-68.38 827.85,-64.75 822.21,-61.7 816.5,-59.16"/>
<polygon fill="#63b8ff" stroke="#63b8ff" points="877.43,-125.47 885.58,-132.24 883.44,-121.87 877.43,-125.47"/>
</a>
</g>
</g>
<!-- Node5 -->
<g id="Node000005" class="node">
<title>Node5</title>
<g id="a_Node000005"><a xlink:href="../../d9/d01/a00227.html#abb0969a6d1c7e78be46c3b325754c802" target="_top" xlink:title="Main loop to handle user input and interactions for pick interface.">
<polygon fill="white" stroke="#666666" points="654.38,-212.75 609.12,-212.75 609.12,-192 654.38,-192 654.38,-212.75"/>
<text xml:space="preserve" text-anchor="middle" x="631.75" y="-199.25" font-family="Helvetica,sans-Serif" font-size="10.00">picker</text>
</a>
</g>
</g>
<!-- Node4&#45;&gt;Node5 -->
<g id="edge4_Node000004_Node000005" class="edge">
<title>Node4&#45;&gt;Node5</title>
<g id="a_edge4_Node000004_Node000005"><a xlink:title=" ">
<path fill="none" stroke="#63b8ff" d="M716.73,-201.8C694.68,-201.95 671.27,-202.11 654.78,-202.22"/>
<polygon fill="#63b8ff" stroke="#63b8ff" points="716.61,-205.3 726.58,-201.73 716.56,-198.3 716.61,-205.3"/>
</a>
</g>
</g>
<!-- Node6 -->
<g id="Node000006" class="node">
<title>Node6</title>
<g id="a_Node000006"><a xlink:href="../../d9/d01/a00227.html#ab97dcab41017c5132f52b682437a151e" target="_top" xlink:title="Initializes pick interface, calculates window size and position, and enters picker loop.">
<polygon fill="white" stroke="#666666" points="528.88,-173.75 454.38,-173.75 454.38,-153 528.88,-153 528.88,-173.75"/>
<text xml:space="preserve" text-anchor="middle" x="491.62" y="-160.25" font-family="Helvetica,sans-Serif" font-size="10.00">pick_engine</text>
</a>
</g>
</g>
<!-- Node5&#45;&gt;Node6 -->
<g id="edge5_Node000005_Node000006" class="edge">
<title>Node5&#45;&gt;Node6</title>
<g id="a_edge5_Node000005_Node000006"><a xlink:title=" ">
<path fill="none" stroke="#63b8ff" d="M598.07,-193.15C577.38,-187.31 550.6,-179.74 529.2,-173.7"/>
<polygon fill="#63b8ff" stroke="#63b8ff" points="596.83,-196.44 607.41,-195.78 598.73,-189.7 596.83,-196.44"/>
</a>
</g>
</g>
<!-- Node7 -->
<g id="Node000007" class="node">
<title>Node7</title>
<g id="a_Node000007"><a xlink:href="../../d9/d01/a00227.html#a1b2ee87543245e612c1710ea58930a17" target="_top" xlink:title="Initializes pick structure and opens pick input file or pipe.">
<polygon fill="white" stroke="#666666" points="410.5,-173.75 353.25,-173.75 353.25,-153 410.5,-153 410.5,-173.75"/>
<text xml:space="preserve" text-anchor="middle" x="381.88" y="-160.25" font-family="Helvetica,sans-Serif" font-size="10.00">init_pick</text>
</a>
</g>
</g>
<!-- Node6&#45;&gt;Node7 -->
<g id="edge6_Node000006_Node000007" class="edge">
<title>Node6&#45;&gt;Node7</title>
<g id="a_edge6_Node000006_Node000007"><a xlink:title=" ">
<path fill="none" stroke="#63b8ff" d="M442.91,-163.38C431.93,-163.38 420.61,-163.38 410.8,-163.38"/>
<polygon fill="#63b8ff" stroke="#63b8ff" points="442.63,-166.88 452.63,-163.38 442.63,-159.88 442.63,-166.88"/>
</a>
</g>
</g>
<!-- Node8 -->
<g id="Node000008" class="node">
<title>Node8</title>
<g id="a_Node000008"><a xlink:href="../../dd/dd7/a00260.html#a3c04138a5bfe5d72780bb7e82a18e627" target="_top" xlink:title=" ">
<polygon fill="white" stroke="#666666" points="276.38,-173.75 235.62,-173.75 235.62,-153 276.38,-153 276.38,-173.75"/>
<text xml:space="preserve" text-anchor="middle" x="256" y="-160.25" font-family="Helvetica,sans-Serif" font-size="10.00">main</text>
</a>
</g>
</g>
<!-- Node7&#45;&gt;Node8 -->
<g id="edge7_Node000007_Node000008" class="edge">
<title>Node7&#45;&gt;Node8</title>
<g id="a_edge7_Node000007_Node000008"><a xlink:title=" ">
<path fill="none" stroke="#63b8ff" d="M341.27,-163.38C319.64,-163.38 293.83,-163.38 276.52,-163.38"/>
<polygon fill="#63b8ff" stroke="#63b8ff" points="341.25,-166.88 351.25,-163.38 341.25,-159.88 341.25,-166.88"/>
</a>
</g>
</g>
<!-- Node7&#45;&gt;Node9 -->
<g id="edge8_Node000007_Node000009" class="edge">
<title>Node7&#45;&gt;Node9</title>
<g id="a_edge8_Node000007_Node000009"><a xlink:title=" ">
<path fill="none" stroke="#63b8ff" d="M341.96,-151.12C325.67,-146 306.92,-140.09 291.18,-135.14"/>
<polygon fill="#63b8ff" stroke="#63b8ff" points="340.73,-154.41 351.32,-154.07 342.83,-147.73 340.73,-154.41"/>
</a>
</g>
</g>
<!-- Node10 -->
<g id="Node000010" class="node">
<title>Node10</title>
<g id="a_Node000010"><a xlink:href="../../d5/d35/a00266.html#a7d7973d7aac92759dcc86ec52bb038f4" target="_top" xlink:title="The main loop of the menu system.">
<polygon fill="white" stroke="#666666" points="158.75,-134.75 76.75,-134.75 76.75,-114 158.75,-114 158.75,-134.75"/>
<text xml:space="preserve" text-anchor="middle" x="117.75" y="-121.25" font-family="Helvetica,sans-Serif" font-size="10.00">menu_engine</text>
</a>
</g>
</g>
<!-- Node9&#45;&gt;Node10 -->
<g id="edge9_Node000009_Node000010" class="edge">
<title>Node9&#45;&gt;Node10</title>
<g id="a_edge9_Node000009_Node000010"><a xlink:title=" ">
<path fill="none" stroke="#63b8ff" d="M183.2,-117.63C174.96,-117.67 166.79,-117.84 159.17,-118.15"/>
<polygon fill="#63b8ff" stroke="#63b8ff" points="182.92,-121.13 192.93,-117.66 182.94,-114.13 182.92,-121.13"/>
</a>
</g>
</g>
<!-- Node10&#45;&gt;Node9 -->
<g id="edge11_Node000010_Node000009" class="edge">
<title>Node10&#45;&gt;Node9</title>
<g id="a_edge11_Node000010_Node000009"><a xlink:title=" ">
<path fill="none" stroke="#63b8ff" d="M170.68,-130.95C178.45,-131.12 186.52,-131.17 194.45,-131.09"/>
<polygon fill="#63b8ff" stroke="#63b8ff" points="170.79,-127.45 160.69,-130.65 170.58,-134.45 170.79,-127.45"/>
</a>
</g>
</g>
<!-- Node11 -->
<g id="Node000011" class="node">
<title>Node11</title>
<g id="a_Node000011"><a xlink:href="../../d1/da8/a00230.html#a3c04138a5bfe5d72780bb7e82a18e627" target="_top" xlink:title=" ">
<polygon fill="white" stroke="#666666" points="40.75,-134.75 0,-134.75 0,-114 40.75,-114 40.75,-134.75"/>
<text xml:space="preserve" text-anchor="middle" x="20.38" y="-121.25" font-family="Helvetica,sans-Serif" font-size="10.00">main</text>
</a>
</g>
</g>
<!-- Node10&#45;&gt;Node11 -->
<g id="edge10_Node000010_Node000011" class="edge">
<title>Node10&#45;&gt;Node11</title>
<g id="a_edge10_Node000010_Node000011"><a xlink:title=" ">
<path fill="none" stroke="#63b8ff" d="M64.79,-124.38C56.36,-124.38 48.1,-124.38 41.09,-124.38"/>
<polygon fill="#63b8ff" stroke="#63b8ff" points="64.79,-127.88 74.79,-124.38 64.79,-120.88 64.79,-127.88"/>
</a>
</g>
</g>
<!-- Node12&#45;&gt;Node6 -->
<g id="edge13_Node000012_Node000006" class="edge">
<title>Node12&#45;&gt;Node6</title>
<g id="a_edge13_Node000012_Node000006"><a xlink:title=" ">
<path fill="none" stroke="#63b8ff" d="M580.14,-163.38C563.22,-163.38 544.71,-163.38 529.09,-163.38"/>
<polygon fill="#63b8ff" stroke="#63b8ff" points="580.02,-166.88 590.02,-163.38 580.02,-159.88 580.02,-166.88"/>
</a>
</g>
</g>
<!-- Node14 -->
<g id="Node000014" class="node">
<title>Node14</title>
<g id="a_Node000014"><a xlink:href="../../d7/d40/a00236.html#abf1be20a8aad5f7ba09172ac1434a110" target="_top" xlink:title="Initialize form data structure and parse description file.">
<polygon fill="white" stroke="#666666" points="661.88,-87.75 601.62,-87.75 601.62,-67 661.88,-67 661.88,-87.75"/>
<text xml:space="preserve" text-anchor="middle" x="631.75" y="-74.25" font-family="Helvetica,sans-Serif" font-size="10.00">init_form</text>
</a>
</g>
</g>
<!-- Node13&#45;&gt;Node14 -->
<g id="edge15_Node000013_Node000014" class="edge">
<title>Node13&#45;&gt;Node14</title>
<g id="a_edge15_Node000013_Node000014"><a xlink:title=" ">
<path fill="none" stroke="#63b8ff" d="M729.46,-84C707.14,-82.47 681.51,-80.71 662.24,-79.4"/>
<polygon fill="#63b8ff" stroke="#63b8ff" points="729.05,-87.48 739.26,-84.67 729.52,-80.5 729.05,-87.48"/>
</a>
</g>
</g>
<!-- Node14&#45;&gt;Node9 -->
<g id="edge18_Node000014_Node000009" class="edge">
<title>Node14&#45;&gt;Node9</title>
<g id="a_edge18_Node000014_Node000009"><a xlink:title=" ">
<path fill="none" stroke="#63b8ff" d="M589.99,-82.21C535.88,-88.66 437.34,-100.54 353.25,-111.38 341.71,-112.86 329.4,-114.49 317.57,-116.08"/>
<polygon fill="#63b8ff" stroke="#63b8ff" points="590.15,-85.72 599.66,-81.06 589.32,-78.76 590.15,-85.72"/>
</a>
</g>
</g>
<!-- Node15 -->
<g id="Node000015" class="node">
<title>Node15</title>
<g id="a_Node000015"><a xlink:href="../../d6/d22/a00245.html#a2ffea5674e85f124a70e19f745a66583" target="_top" xlink:title="use form to enter a file specification">
<polygon fill="white" stroke="#666666" points="536.75,-59.75 446.5,-59.75 446.5,-39 536.75,-39 536.75,-59.75"/>
<text xml:space="preserve" text-anchor="middle" x="491.62" y="-46.25" font-family="Helvetica,sans-Serif" font-size="10.00">enter_file_spec</text>
</a>
</g>
</g>
<!-- Node14&#45;&gt;Node15 -->
<g id="edge16_Node000014_Node000015" class="edge">
<title>Node14&#45;&gt;Node15</title>
<g id="a_edge16_Node000014_Node000015"><a xlink:title=" ">
<path fill="none" stroke="#63b8ff" d="M590.39,-69.19C573.67,-65.8 554.23,-61.86 537.11,-58.39"/>
<polygon fill="#63b8ff" stroke="#63b8ff" points="589.48,-72.58 599.97,-71.14 590.87,-65.72 589.48,-72.58"/>
</a>
</g>
</g>
<!-- Node16 -->
<g id="Node000016" class="node">
<title>Node16</title>
<g id="a_Node000016"><a xlink:href="../../dc/d5d/a00278.html#a3c04138a5bfe5d72780bb7e82a18e627" target="_top" xlink:title=" ">
<polygon fill="white" stroke="#666666" points="512,-20.75 471.25,-20.75 471.25,0 512,0 512,-20.75"/>
<text xml:space="preserve" text-anchor="middle" x="491.62" y="-7.25" font-family="Helvetica,sans-Serif" font-size="10.00">main</text>
</a>
</g>
</g>
<!-- Node14&#45;&gt;Node16 -->
<g id="edge17_Node000014_Node000016" class="edge">
<title>Node14&#45;&gt;Node16</title>
<g id="a_edge17_Node000014_Node000016"><a xlink:title=" ">
<path fill="none" stroke="#63b8ff" d="M598.97,-61.48C572.01,-47.99 537.55,-30.76 536.75,-30.38 528.85,-26.61 520.09,-22.61 512.47,-19.18"/>
<polygon fill="#63b8ff" stroke="#63b8ff" points="597.35,-64.58 607.86,-65.92 600.48,-58.32 597.35,-64.58"/>
</a>
</g>
</g>
<!-- Node18 -->
<g id="Node000018" class="node">
<title>Node18</title>
<g id="a_Node000018"><a xlink:href="../../d6/d22/a00245.html#a9c4b3ba5f73c18b486646c62b933972a" target="_top" xlink:title="Main Command Processing Loop for View.">
<polygon fill="white" stroke="#666666" points="690.75,-39.75 572.75,-39.75 572.75,-19 690.75,-19 690.75,-39.75"/>
<text xml:space="preserve" text-anchor="middle" x="631.75" y="-26.25" font-family="Helvetica,sans-Serif" font-size="10.00">view_cmd_processor</text>
</a>
</g>
</g>
<!-- Node17&#45;&gt;Node18 -->
<g id="edge22_Node000017_Node000018" class="edge">
<title>Node17&#45;&gt;Node18</title>
<g id="a_edge22_Node000017_Node000018"><a xlink:title=" ">
<path fill="none" stroke="#63b8ff" d="M715.26,-40.11C707.24,-39.07 699.06,-38 691.13,-36.97"/>
<polygon fill="#63b8ff" stroke="#63b8ff" points="714.58,-43.55 724.95,-41.37 715.49,-36.61 714.58,-43.55"/>
</a>
</g>
</g>
<!-- Node18&#45;&gt;Node1 -->
<g id="edge23_Node000018_Node000001" class="edge">
<title>Node18&#45;&gt;Node1</title>
<g id="a_edge23_Node000018_Node000001"><a xlink:title=" ">
<path fill="none" stroke="#63b8ff" d="M702.56,-18.55C741.82,-15.11 791.15,-15.27 832.75,-29.38 895.25,-50.56 952.15,-109.37 973.72,-133.67"/>
<polygon fill="#63b8ff" stroke="#63b8ff" points="702.36,-15.05 692.75,-19.52 703.05,-22.02 702.36,-15.05"/>
</a>
</g>
</g>
</g>
</svg>
