<?xml version="1.0" encoding="UTF-8" standalone="no"?>
<!DOCTYPE svg PUBLIC "-//W3C//DTD SVG 1.1//EN"
 "http://www.w3.org/Graphics/SVG/1.1/DTD/svg11.dtd">
<!-- Generated by graphviz version 14.1.2 (0)
 -->
<!-- Title: fmt_line Pages: 1 -->
<!--zoomable 451 -->

<svg id="main" version="1.1" xmlns="http://www.w3.org/2000/svg" xmlns:xlink="http://www.w3.org/1999/xlink" xml:space="preserve" onload="init(evt)">

<style type="text/css"><![CDATA[
.node, .edge {opacity: 0.7;}
.node.selected, .edge.selected {opacity: 1;}
.edge:hover path { stroke: red; }
.edge:hover polygon { stroke: red; fill: red; }
]]></style>

<defs>
  <circle id="rim" cx="0" cy="0" r="7"/>
  <circle id="rim2" cx="0" cy="0" r="3.5"/>
  <g id="zoomPlus">
    <use xlink:href="#rim" fill="#404040"><set attributeName="fill" to="#808080" begin="zoomplus.mouseover" end="zoomplus.mouseout"/></use>
    <path d="M-4,0h8M0,-4v8" fill="none" stroke="white" stroke-width="1.5" pointer-events="none"/>
  </g>
  <g id="zoomMin">
    <use xlink:href="#rim" fill="#404040"><set attributeName="fill" to="#808080" begin="zoomminus.mouseover" end="zoomminus.mouseout"/></use>
    <path d="M-4,0h8" fill="none" stroke="white" stroke-width="1.5" pointer-events="none"/>
  </g>
  <g id="arrowUp" transform="translate(30 24)">
    <use xlink:href="#rim"/>
    <path pointer-events="none" fill="none" stroke="white" stroke-width="1.5" d="M0,-3.0v7 M-2.5,-0.5L0,-3.0L2.5,-0.5"/>
  </g>
  <g id="arrowRight" transform="rotate(90) translate(36 -43)">
    <use xlink:href="#rim"/>
    <path pointer-events="none" fill="none" stroke="white" stroke-width="1.5" d="M0,-3.0v7 M-2.5,-0.5L0,-3.0L2.5,-0.5"/>
  </g>
  <g id="arrowDown" transform="rotate(180) translate(-30 -48)">
    <use xlink:href="#rim"/>
    <path pointer-events="none" fill="none" stroke="white" stroke-width="1.5" d="M0,-3.0v7 M-2.5,-0.5L0,-3.0L2.5,-0.5"/>
  </g>
  <g id="arrowLeft" transform="rotate(270) translate(-36 17)">
    <use xlink:href="#rim"/>
    <path pointer-events="none" fill="none" stroke="white" stroke-width="1.5" d="M0,-3.0v7 M-2.5,-0.5L0,-3.0L2.5,-0.5"/>
  </g>
  <g id="resetDef">
    <use xlink:href="#rim2" fill="#404040"><set attributeName="fill" to="#808080" begin="reset.mouseover" end="reset.mouseout"/></use>
  </g>
</defs>
<script type="application/ecmascript">
var viewWidth = 993;
var viewHeight = 451;
var sectionId = 'dynsection-7';
</script>
<script type="application/ecmascript" xlink:href="../../svg.min.js"/>
<svg id="graph" class="graph">
<g id="viewport">
<title>fmt_line</title>
<!-- Node1 -->
<g id="Node000001" class="node">
<title>Node1</title>
<g id="a_Node000001"><a xlink:title="Format Line for Display.">
<polygon fill="#999999" stroke="#666666" points="56.5,-39.75 0,-39.75 0,-19 56.5,-19 56.5,-39.75"/>
<text xml:space="preserve" text-anchor="middle" x="28.25" y="-26.25" font-family="Helvetica,sans-Serif" font-size="10.00">fmt_line</text>
</a>
</g>
</g>
<!-- Node2 -->
<g id="Node000002" class="node">
<title>Node2</title>
<g id="a_Node000002"><a xlink:href="../../d6/d22/a00245.html#a9fc984ba8ce6c4059b33a915d526357f" target="_top" xlink:title="Parse ANSI SGR Escape Sequence.">
<polygon fill="white" stroke="#666666" points="179,-59.75 92.5,-59.75 92.5,-39 179,-39 179,-59.75"/>
<text xml:space="preserve" text-anchor="middle" x="135.75" y="-46.25" font-family="Helvetica,sans-Serif" font-size="10.00">parse_ansi_str</text>
</a>
</g>
</g>
<!-- Node1&#45;&gt;Node2 -->
<g id="edge1_Node000001_Node000002" class="edge">
<title>Node1&#45;&gt;Node2</title>
<g id="a_edge1_Node000001_Node000002"><a xlink:title=" ">
<path fill="none" stroke="#63b8ff" d="M56.97,-34.63C64.36,-36.03 72.6,-37.59 80.87,-39.16"/>
<polygon fill="#63b8ff" stroke="#63b8ff" points="80.14,-42.58 90.62,-41.01 81.45,-35.71 80.14,-42.58"/>
</a>
</g>
</g>
<!-- Node24 -->
<g id="Node000024" class="node">
<title>Node24</title>
<g id="a_Node000024"><a xlink:href="../../d6/d7f/a00287.html#a4f42956462e811d96c9fb881a85dada4" target="_top" xlink:title="Trims trailing spaces from string s in place.">
<polygon fill="white" stroke="#666666" points="155.75,-20.75 115.75,-20.75 115.75,0 155.75,0 155.75,-20.75"/>
<text xml:space="preserve" text-anchor="middle" x="135.75" y="-7.25" font-family="Helvetica,sans-Serif" font-size="10.00">rtrim</text>
</a>
</g>
</g>
<!-- Node1&#45;&gt;Node24 -->
<g id="edge30_Node000001_Node000024" class="edge">
<title>Node1&#45;&gt;Node24</title>
<g id="a_edge30_Node000001_Node000024"><a xlink:title=" ">
<path fill="none" stroke="#63b8ff" d="M56.97,-24.38C71.52,-21.76 89.37,-18.55 104.3,-15.86"/>
<polygon fill="#63b8ff" stroke="#63b8ff" points="104.82,-19.32 114.04,-14.1 103.58,-12.43 104.82,-19.32"/>
</a>
</g>
</g>
<!-- Node3 -->
<g id="Node000003" class="node">
<title>Node3</title>
<g id="a_Node000003"><a xlink:href="../../d6/d82/a00293.html#af0ba4efbc81c259a2519ca41dd9d1599" target="_top" xlink:title="Get color pair index for foreground and background colors.">
<polygon fill="white" stroke="#666666" points="311.25,-98.75 238.25,-98.75 238.25,-78 311.25,-78 311.25,-98.75"/>
<text xml:space="preserve" text-anchor="middle" x="274.75" y="-85.25" font-family="Helvetica,sans-Serif" font-size="10.00">get_clr_pair</text>
</a>
</g>
</g>
<!-- Node2&#45;&gt;Node3 -->
<g id="edge2_Node000002_Node000003" class="edge">
<title>Node2&#45;&gt;Node3</title>
<g id="a_edge2_Node000002_Node000003"><a xlink:title=" ">
<path fill="none" stroke="#63b8ff" d="M174.91,-60.24C191.15,-64.86 210.24,-70.29 227.28,-75.15"/>
<polygon fill="#63b8ff" stroke="#63b8ff" points="226.11,-78.45 236.69,-77.82 228.03,-71.72 226.11,-78.45"/>
</a>
</g>
</g>
<!-- Node21 -->
<g id="Node000021" class="node">
<title>Node21</title>
<g id="a_Node000021"><a xlink:href="../../d6/d82/a00293.html#a4900dd34e828972e58b0ca549cf7d4d8" target="_top" xlink:title="Get color index for RGB color.">
<polygon fill="white" stroke="#666666" points="325.12,-59.75 224.38,-59.75 224.38,-39 325.12,-39 325.12,-59.75"/>
<text xml:space="preserve" text-anchor="middle" x="274.75" y="-46.25" font-family="Helvetica,sans-Serif" font-size="10.00">rgb_to_curses_clr</text>
</a>
</g>
</g>
<!-- Node2&#45;&gt;Node21 -->
<g id="edge27_Node000002_Node000021" class="edge">
<title>Node2&#45;&gt;Node21</title>
<g id="a_edge27_Node000002_Node000021"><a xlink:title=" ">
<path fill="none" stroke="#63b8ff" d="M179.35,-49.38C189.84,-49.38 201.28,-49.38 212.47,-49.38"/>
<polygon fill="#63b8ff" stroke="#63b8ff" points="212.47,-52.88 222.47,-49.38 212.47,-45.88 212.47,-52.88"/>
</a>
</g>
</g>
<!-- Node23 -->
<g id="Node000023" class="node">
<title>Node23</title>
<g id="a_Node000023"><a xlink:href="../../d6/d82/a00293.html#a31ee0d93c7b527f92559fc410152f768" target="_top" xlink:title="Convert XTerm 256 color index to RGB color.">
<polygon fill="white" stroke="#666666" points="334.5,-20.75 215,-20.75 215,0 334.5,0 334.5,-20.75"/>
<text xml:space="preserve" text-anchor="middle" x="274.75" y="-7.25" font-family="Helvetica,sans-Serif" font-size="10.00">xterm256_idx_to_rgb</text>
</a>
</g>
</g>
<!-- Node2&#45;&gt;Node23 -->
<g id="edge29_Node000002_Node000023" class="edge">
<title>Node2&#45;&gt;Node23</title>
<g id="a_edge29_Node000002_Node000023"><a xlink:title=" ">
<path fill="none" stroke="#63b8ff" d="M174.91,-38.51C190.35,-34.12 208.37,-28.99 224.76,-24.32"/>
<polygon fill="#63b8ff" stroke="#63b8ff" points="225.68,-27.7 234.34,-21.59 223.76,-20.97 225.68,-27.7"/>
</a>
</g>
</g>
<!-- Node4 -->
<g id="Node000004" class="node">
<title>Node4</title>
<g id="a_Node000004"><a xlink:href="../../d6/d82/a00293.html#a67659f8a701b74f4dec0d36227a10d1c" target="_top" xlink:title="Display an error message window or print to stderr.">
<polygon fill="white" stroke="#666666" points="453.25,-268.75 373.5,-268.75 373.5,-248 453.25,-248 453.25,-268.75"/>
<text xml:space="preserve" text-anchor="middle" x="413.38" y="-255.25" font-family="Helvetica,sans-Serif" font-size="10.00">display_error</text>
</a>
</g>
</g>
<!-- Node3&#45;&gt;Node4 -->
<g id="edge3_Node000003_Node000004" class="edge">
<title>Node3&#45;&gt;Node4</title>
<g id="a_edge3_Node000003_Node000004"><a xlink:title=" ">
<path fill="none" stroke="#63b8ff" d="M284.3,-99.01C306.82,-127.03 368.05,-203.22 396.92,-239.14"/>
<polygon fill="#63b8ff" stroke="#63b8ff" points="393.89,-240.96 402.88,-246.56 399.35,-236.58 393.89,-240.96"/>
</a>
</g>
</g>
<!-- Node14 -->
<g id="Node000014" class="node">
<title>Node14</title>
<g id="a_Node000014"><a xlink:href="../../d6/d7f/a00287.html#a63eb94756fb011a456a3dec900709cd8" target="_top" xlink:title="ssnprintf was designed to be a safer alternative to snprintf.">
<polygon fill="white" stroke="#666666" points="697.12,-211.75 638.38,-211.75 638.38,-191 697.12,-191 697.12,-211.75"/>
<text xml:space="preserve" text-anchor="middle" x="667.75" y="-198.25" font-family="Helvetica,sans-Serif" font-size="10.00">ssnprintf</text>
</a>
</g>
</g>
<!-- Node3&#45;&gt;Node14 -->
<g id="edge26_Node000003_Node000014" class="edge">
<title>Node3&#45;&gt;Node14</title>
<g id="a_edge26_Node000003_Node000014"><a xlink:title=" ">
<path fill="none" stroke="#63b8ff" d="M311.52,-89.87C370.69,-93.41 491.69,-105.23 585.5,-144.38 608.15,-153.83 630.75,-170.41 646.34,-183.26"/>
<polygon fill="#63b8ff" stroke="#63b8ff" points="644.04,-185.89 653.93,-189.7 648.57,-180.56 644.04,-185.89"/>
</a>
</g>
</g>
<!-- Node5 -->
<g id="Node000005" class="node">
<title>Node5</title>
<g id="a_Node000005"><a xlink:href="../../d6/d82/a00293.html#a8f6c45ca4a7f6a41c4c88314e697565a" target="_top" xlink:title="Abnormal program termination.">
<polygon fill="white" stroke="#666666" points="690.75,-385.75 644.75,-385.75 644.75,-365 690.75,-365 690.75,-385.75"/>
<text xml:space="preserve" text-anchor="middle" x="667.75" y="-372.25" font-family="Helvetica,sans-Serif" font-size="10.00">abend</text>
</a>
</g>
</g>
<!-- Node4&#45;&gt;Node5 -->
<g id="edge4_Node000004_Node000005" class="edge">
<title>Node4&#45;&gt;Node5</title>
<g id="a_edge4_Node000004_Node000005"><a xlink:title=" ">
<path fill="none" stroke="#63b8ff" d="M421.87,-269.11C434.38,-286.17 461.23,-319.31 492.25,-336.38 537.16,-361.09 596.74,-370.15 633.37,-373.46"/>
<polygon fill="#63b8ff" stroke="#63b8ff" points="632.66,-376.92 642.91,-374.23 633.22,-369.94 632.66,-376.92"/>
</a>
</g>
</g>
<!-- Node9 -->
<g id="Node000009" class="node">
<title>Node9</title>
<g id="a_Node000009"><a xlink:href="../../d6/d82/a00293.html#a645871e46277e31736bc36d0f3dce4bd" target="_top" xlink:title="construct the chyron string from the chyron structure">
<polygon fill="white" stroke="#666666" points="585.5,-327.75 492.25,-327.75 492.25,-307 585.5,-307 585.5,-327.75"/>
<text xml:space="preserve" text-anchor="middle" x="538.88" y="-314.25" font-family="Helvetica,sans-Serif" font-size="10.00">compile_chyron</text>
</a>
</g>
</g>
<!-- Node4&#45;&gt;Node9 -->
<g id="edge10_Node000004_Node000009" class="edge">
<title>Node4&#45;&gt;Node9</title>
<g id="a_edge10_Node000004_Node000009"><a xlink:title=" ">
<path fill="none" stroke="#63b8ff" d="M435.06,-269.09C450.67,-277.1 472.68,-288.19 492.25,-297.38 495.54,-298.92 498.98,-300.49 502.43,-302.05"/>
<polygon fill="#63b8ff" stroke="#63b8ff" points="500.73,-305.12 511.29,-305.99 503.57,-298.73 500.73,-305.12"/>
</a>
</g>
</g>
<!-- Node11 -->
<g id="Node000011" class="node">
<title>Node11</title>
<g id="a_Node000011"><a xlink:href="../../d6/d82/a00293.html#a3f3feb40fd703913c5c136331f627c91" target="_top" xlink:title="Destroy Chyron structure.">
<polygon fill="white" stroke="#666666" points="584.38,-249.75 493.38,-249.75 493.38,-229 584.38,-229 584.38,-249.75"/>
<text xml:space="preserve" text-anchor="middle" x="538.88" y="-236.25" font-family="Helvetica,sans-Serif" font-size="10.00">destroy_chyron</text>
</a>
</g>
</g>
<!-- Node4&#45;&gt;Node11 -->
<g id="edge12_Node000004_Node000011" class="edge">
<title>Node4&#45;&gt;Node11</title>
<g id="a_edge12_Node000004_Node000011"><a xlink:title=" ">
<path fill="none" stroke="#63b8ff" d="M453.45,-252.36C462.49,-250.97 472.29,-249.47 481.89,-247.99"/>
<polygon fill="#63b8ff" stroke="#63b8ff" points="482.18,-251.48 491.53,-246.5 481.11,-244.57 482.18,-251.48"/>
</a>
</g>
</g>
<!-- Node12 -->
<g id="Node000012" class="node">
<title>Node12</title>
<g id="a_Node000012"><a xlink:href="../../d6/d82/a00293.html#ad37d5808ff30ae6894780425d865abae" target="_top" xlink:title="Create and initialize Chyron structure.">
<polygon fill="white" stroke="#666666" points="576.12,-403.75 501.62,-403.75 501.62,-383 576.12,-383 576.12,-403.75"/>
<text xml:space="preserve" text-anchor="middle" x="538.88" y="-390.25" font-family="Helvetica,sans-Serif" font-size="10.00">new_chyron</text>
</a>
</g>
</g>
<!-- Node4&#45;&gt;Node12 -->
<g id="edge13_Node000004_Node000012" class="edge">
<title>Node4&#45;&gt;Node12</title>
<g id="a_edge13_Node000004_Node000012"><a xlink:title=" ">
<path fill="none" stroke="#63b8ff" d="M419.66,-269.11C430.64,-290.52 457.79,-339.05 492.25,-369.38 495.39,-372.14 498.91,-374.69 502.55,-377.02"/>
<polygon fill="#63b8ff" stroke="#63b8ff" points="500.63,-379.95 511.04,-381.9 504.12,-373.88 500.63,-379.95"/>
</a>
</g>
</g>
<!-- Node13 -->
<g id="Node000013" class="node">
<title>Node13</title>
<g id="a_Node000013"><a xlink:href="../../d6/d82/a00293.html#a208ce92c197fdd6d2b007987e534aa3b" target="_top" xlink:title="Set chyron key.">
<polygon fill="white" stroke="#666666" points="584.75,-288.75 493,-288.75 493,-268 584.75,-268 584.75,-288.75"/>
<text xml:space="preserve" text-anchor="middle" x="538.88" y="-275.25" font-family="Helvetica,sans-Serif" font-size="10.00">set_chyron_key</text>
</a>
</g>
</g>
<!-- Node4&#45;&gt;Node13 -->
<g id="edge15_Node000004_Node000013" class="edge">
<title>Node4&#45;&gt;Node13</title>
<g id="a_edge15_Node000004_Node000013"><a xlink:title=" ">
<path fill="none" stroke="#63b8ff" d="M453.45,-264.7C462.29,-266.14 471.86,-267.68 481.26,-269.21"/>
<polygon fill="#63b8ff" stroke="#63b8ff" points="480.66,-272.66 491.1,-270.8 481.78,-265.75 480.66,-272.66"/>
</a>
</g>
</g>
<!-- Node4&#45;&gt;Node14 -->
<g id="edge17_Node000004_Node000014" class="edge">
<title>Node4&#45;&gt;Node14</title>
<g id="a_edge17_Node000004_Node000014"><a xlink:title=" ">
<path fill="none" stroke="#63b8ff" d="M431.92,-247.62C447.25,-238.77 470.43,-226.68 492.25,-220.38 537.1,-207.42 590.75,-203.17 626.62,-201.84"/>
<polygon fill="#63b8ff" stroke="#63b8ff" points="626.66,-205.34 636.55,-201.54 626.45,-198.34 626.66,-205.34"/>
</a>
</g>
</g>
<!-- Node15 -->
<g id="Node000015" class="node">
<title>Node15</title>
<g id="a_Node000015"><a xlink:href="../../d6/d7f/a00287.html#a0de2e40df9bd7efc8fd9afb8ad2257e6" target="_top" xlink:title="safer alternative to strncpy">
<polygon fill="white" stroke="#666666" points="701.62,-117.75 633.88,-117.75 633.88,-97 701.62,-97 701.62,-117.75"/>
<text xml:space="preserve" text-anchor="middle" x="667.75" y="-104.25" font-family="Helvetica,sans-Serif" font-size="10.00">strnz__cpy</text>
</a>
</g>
</g>
<!-- Node4&#45;&gt;Node15 -->
<g id="edge18_Node000004_Node000015" class="edge">
<title>Node4&#45;&gt;Node15</title>
<g id="a_edge18_Node000004_Node000015"><a xlink:title=" ">
<path fill="none" stroke="#63b8ff" d="M418.48,-247.54C427.8,-224.54 452.82,-170.79 492.25,-144.38 531.07,-118.37 584.75,-110.17 622.29,-107.81"/>
<polygon fill="#63b8ff" stroke="#63b8ff" points="622.06,-111.33 631.87,-107.33 621.71,-104.34 622.06,-111.33"/>
</a>
</g>
</g>
<!-- Node16 -->
<g id="Node000016" class="node">
<title>Node16</title>
<g id="a_Node000016"><a xlink:href="../../d6/d82/a00293.html#a9dd598e1d49c8764af1eec42c682623e" target="_top" xlink:title="Delete the current window and its associated box window.">
<polygon fill="white" stroke="#666666" points="565.62,-173.75 512.12,-173.75 512.12,-153 565.62,-153 565.62,-173.75"/>
<text xml:space="preserve" text-anchor="middle" x="538.88" y="-160.25" font-family="Helvetica,sans-Serif" font-size="10.00">win_del</text>
</a>
</g>
</g>
<!-- Node4&#45;&gt;Node16 -->
<g id="edge19_Node000004_Node000016" class="edge">
<title>Node4&#45;&gt;Node16</title>
<g id="a_edge19_Node000004_Node000016"><a xlink:title=" ">
<path fill="none" stroke="#63b8ff" d="M424.23,-247.83C438.35,-233.1 465.59,-206.08 492.25,-187.38 496.12,-184.66 500.34,-182.04 504.6,-179.59"/>
<polygon fill="#63b8ff" stroke="#63b8ff" points="506.01,-182.81 513.13,-174.96 502.67,-176.66 506.01,-182.81"/>
</a>
</g>
</g>
<!-- Node17 -->
<g id="Node000017" class="node">
<title>Node17</title>
<g id="a_Node000017"><a xlink:href="../../d6/d82/a00293.html#a435c7bff7ffedb8f51c6de9259e36f6c" target="_top" xlink:title="Create a new window with optional box and title.">
<polygon fill="white" stroke="#666666" points="568.25,-59.75 509.5,-59.75 509.5,-39 568.25,-39 568.25,-59.75"/>
<text xml:space="preserve" text-anchor="middle" x="538.88" y="-46.25" font-family="Helvetica,sans-Serif" font-size="10.00">win_new</text>
</a>
</g>
</g>
<!-- Node4&#45;&gt;Node17 -->
<g id="edge20_Node000004_Node000017" class="edge">
<title>Node4&#45;&gt;Node17</title>
<g id="a_edge20_Node000004_Node000017"><a xlink:title=" ">
<path fill="none" stroke="#63b8ff" d="M419.34,-247.74C430.98,-223.12 461.38,-160.53 492.25,-111.38 501.47,-96.7 513.06,-80.98 522.25,-69.04"/>
<polygon fill="#63b8ff" stroke="#63b8ff" points="524.97,-71.24 528.37,-61.2 519.45,-66.93 524.97,-71.24"/>
</a>
</g>
</g>
<!-- Node19 -->
<g id="Node000019" class="node">
<title>Node19</title>
<g id="a_Node000019"><a xlink:href="../../d6/d82/a00293.html#acf4c709bccc4c965a5d61db978db31a3" target="_top" xlink:title="Wrapper for wgetch that handles signals and mouse events.">
<polygon fill="white" stroke="#666666" points="567.5,-442.75 510.25,-442.75 510.25,-422 567.5,-422 567.5,-442.75"/>
<text xml:space="preserve" text-anchor="middle" x="538.88" y="-429.25" font-family="Helvetica,sans-Serif" font-size="10.00">xwgetch</text>
</a>
</g>
</g>
<!-- Node4&#45;&gt;Node19 -->
<g id="edge23_Node000004_Node000019" class="edge">
<title>Node4&#45;&gt;Node19</title>
<g id="a_edge23_Node000004_Node000019"><a xlink:title=" ">
<path fill="none" stroke="#63b8ff" d="M418.44,-268.98C427.08,-295.58 450.04,-363.42 492.25,-403.38 498.31,-409.11 506.29,-413.37 513.87,-416.92"/>
<polygon fill="#63b8ff" stroke="#63b8ff" points="512.17,-419.99 522.72,-420.94 515.06,-413.62 512.17,-419.99"/>
</a>
</g>
</g>
<!-- Node6 -->
<g id="Node000006" class="node">
<title>Node6</title>
<g id="a_Node000006"><a xlink:href="../../d6/d82/a00293.html#afc0985a403e3eac0b2cd8f0fab500256" target="_top" xlink:title="Gracefully shut down NCurses and restore terminal settings.">
<polygon fill="white" stroke="#666666" points="839.5,-385.75 750,-385.75 750,-365 839.5,-365 839.5,-385.75"/>
<text xml:space="preserve" text-anchor="middle" x="794.75" y="-372.25" font-family="Helvetica,sans-Serif" font-size="10.00">destroy_curses</text>
</a>
</g>
</g>
<!-- Node5&#45;&gt;Node6 -->
<g id="edge5_Node000005_Node000006" class="edge">
<title>Node5&#45;&gt;Node6</title>
<g id="a_edge5_Node000005_Node000006"><a xlink:title=" ">
<path fill="none" stroke="#63b8ff" d="M691.1,-375.38C704.28,-375.38 721.59,-375.38 738.23,-375.38"/>
<polygon fill="#63b8ff" stroke="#63b8ff" points="738.07,-378.88 748.07,-375.38 738.07,-371.88 738.07,-378.88"/>
</a>
</g>
</g>
<!-- Node7 -->
<g id="Node000007" class="node">
<title>Node7</title>
<g id="a_Node000007"><a xlink:href="../../df/d95/a00299.html#ac5e3adb304b78910fc77761ef6a743f0" target="_top" xlink:title="restore_shell_tioctl() &#45; restore shell terminal settings">
<polygon fill="white" stroke="#666666" points="984.5,-413.75 875.5,-413.75 875.5,-393 984.5,-393 984.5,-413.75"/>
<text xml:space="preserve" text-anchor="middle" x="930" y="-400.25" font-family="Helvetica,sans-Serif" font-size="10.00">restore_shell_tioctl</text>
</a>
</g>
</g>
<!-- Node5&#45;&gt;Node7 -->
<g id="edge8_Node000005_Node000007" class="edge">
<title>Node5&#45;&gt;Node7</title>
<g id="a_edge8_Node000005_Node000007"><a xlink:title=" ">
<path fill="none" stroke="#63b8ff" d="M690.96,-381.71C707.18,-386.05 729.77,-391.53 750,-394.38 787.51,-399.66 829.82,-401.95 863.89,-402.91"/>
<polygon fill="#63b8ff" stroke="#63b8ff" points="863.51,-406.4 873.59,-403.14 863.68,-399.4 863.51,-406.4"/>
</a>
</g>
</g>
<!-- Node8 -->
<g id="Node000008" class="node">
<title>Node8</title>
<g id="a_Node000008"><a xlink:href="../../d3/d1a/a00251.html#a06c1eb6cf3649dc187115565409f91af" target="_top" xlink:title="Set signal handlers to default behavior.">
<polygon fill="white" stroke="#666666" points="970.62,-365.75 889.38,-365.75 889.38,-345 970.62,-345 970.62,-365.75"/>
<text xml:space="preserve" text-anchor="middle" x="930" y="-352.25" font-family="Helvetica,sans-Serif" font-size="10.00">sig_dfl_mode</text>
</a>
</g>
</g>
<!-- Node5&#45;&gt;Node8 -->
<g id="edge9_Node000005_Node000008" class="edge">
<title>Node5&#45;&gt;Node8</title>
<g id="a_edge9_Node000005_Node000008"><a xlink:title=" ">
<path fill="none" stroke="#63b8ff" d="M690.93,-368.77C707.13,-364.29 729.72,-358.77 750,-356.38 792.89,-351.31 841.96,-351.45 877.86,-352.63"/>
<polygon fill="#63b8ff" stroke="#63b8ff" points="877.39,-356.12 887.52,-352.99 877.65,-349.12 877.39,-356.12"/>
</a>
</g>
</g>
<!-- Node6&#45;&gt;Node7 -->
<g id="edge6_Node000006_Node000007" class="edge">
<title>Node6&#45;&gt;Node7</title>
<g id="a_edge6_Node000006_Node000007"><a xlink:title=" ">
<path fill="none" stroke="#63b8ff" d="M839.75,-384.62C848.37,-386.43 857.57,-388.37 866.66,-390.28"/>
<polygon fill="#63b8ff" stroke="#63b8ff" points="865.66,-393.64 876.17,-392.27 867.1,-386.79 865.66,-393.64"/>
</a>
</g>
</g>
<!-- Node6&#45;&gt;Node8 -->
<g id="edge7_Node000006_Node000008" class="edge">
<title>Node6&#45;&gt;Node8</title>
<g id="a_edge7_Node000006_Node000008"><a xlink:title=" ">
<path fill="none" stroke="#63b8ff" d="M839.75,-368.77C851.94,-366.94 865.27,-364.94 877.83,-363.06"/>
<polygon fill="#63b8ff" stroke="#63b8ff" points="878.23,-366.54 887.6,-361.59 877.19,-359.61 878.23,-366.54"/>
</a>
</g>
</g>
<!-- Node10 -->
<g id="Node000010" class="node">
<title>Node10</title>
<g id="a_Node000010"><a xlink:href="../../d6/d7f/a00287.html#aa0145c044cfdde3a1c83323410a59f25" target="_top" xlink:title="safer alternative to strncat">
<polygon fill="white" stroke="#666666" points="700.5,-327.75 635,-327.75 635,-307 700.5,-307 700.5,-327.75"/>
<text xml:space="preserve" text-anchor="middle" x="667.75" y="-314.25" font-family="Helvetica,sans-Serif" font-size="10.00">strnz__cat</text>
</a>
</g>
</g>
<!-- Node9&#45;&gt;Node10 -->
<g id="edge11_Node000009_Node000010" class="edge">
<title>Node9&#45;&gt;Node10</title>
<g id="a_edge11_Node000009_Node000010"><a xlink:title=" ">
<path fill="none" stroke="#63b8ff" d="M585.68,-317.38C597.94,-317.38 611.16,-317.38 623.3,-317.38"/>
<polygon fill="#63b8ff" stroke="#63b8ff" points="623.02,-320.88 633.02,-317.38 623.02,-313.88 623.02,-320.88"/>
</a>
</g>
</g>
<!-- Node12&#45;&gt;Node5 -->
<g id="edge14_Node000012_Node000005" class="edge">
<title>Node12&#45;&gt;Node5</title>
<g id="a_edge14_Node000012_Node000005"><a xlink:title=" ">
<path fill="none" stroke="#63b8ff" d="M576.57,-388.17C594.41,-385.64 615.7,-382.62 633.12,-380.15"/>
<polygon fill="#63b8ff" stroke="#63b8ff" points="633.56,-383.62 642.97,-378.75 632.57,-376.69 633.56,-383.62"/>
</a>
</g>
</g>
<!-- Node13&#45;&gt;Node14 -->
<g id="edge16_Node000013_Node000014" class="edge">
<title>Node13&#45;&gt;Node14</title>
<g id="a_edge16_Node000013_Node000014"><a xlink:title=" ">
<path fill="none" stroke="#63b8ff" d="M566.85,-267.61C573.09,-264.83 579.62,-261.68 585.5,-258.38 606.27,-246.69 628.31,-231 644.19,-219.03"/>
<polygon fill="#63b8ff" stroke="#63b8ff" points="646.19,-221.91 652.01,-213.06 641.94,-216.35 646.19,-221.91"/>
</a>
</g>
</g>
<!-- Node17&#45;&gt;Node15 -->
<g id="edge22_Node000017_Node000015" class="edge">
<title>Node17&#45;&gt;Node15</title>
<g id="a_edge22_Node000017_Node000015"><a xlink:title=" ">
<path fill="none" stroke="#63b8ff" d="M563.44,-60.15C583.03,-69.1 611.14,-81.95 633.09,-91.99"/>
<polygon fill="#63b8ff" stroke="#63b8ff" points="631.38,-95.06 641.93,-96.03 634.29,-88.69 631.38,-95.06"/>
</a>
</g>
</g>
<!-- Node18 -->
<g id="Node000018" class="node">
<title>Node18</title>
<g id="a_Node000018"><a xlink:href="../../d6/d82/a00293.html#ac9adcf7339be4a05ab1a7350c236b8a5" target="_top" xlink:title="Draw a box around the specified window.">
<polygon fill="white" stroke="#666666" points="687.38,-59.75 648.12,-59.75 648.12,-39 687.38,-39 687.38,-59.75"/>
<text xml:space="preserve" text-anchor="middle" x="667.75" y="-46.25" font-family="Helvetica,sans-Serif" font-size="10.00">cbox</text>
</a>
</g>
</g>
<!-- Node17&#45;&gt;Node18 -->
<g id="edge21_Node000017_Node000018" class="edge">
<title>Node17&#45;&gt;Node18</title>
<g id="a_edge21_Node000017_Node000018"><a xlink:title=" ">
<path fill="none" stroke="#63b8ff" d="M568.66,-49.38C588.96,-49.38 616.07,-49.38 636.65,-49.38"/>
<polygon fill="#63b8ff" stroke="#63b8ff" points="636.39,-52.88 646.39,-49.38 636.39,-45.88 636.39,-52.88"/>
</a>
</g>
</g>
<!-- Node19&#45;&gt;Node4 -->
<g id="edge24_Node000019_Node000004" class="edge">
<title>Node19&#45;&gt;Node4</title>
<g id="a_edge24_Node000019_Node000004"><a xlink:title=" ">
<path fill="none" stroke="#63b8ff" d="M509.96,-432.48C503.62,-429.87 497.28,-426.13 492.25,-421.38 450.4,-381.77 427.48,-314.75 418.66,-280.05"/>
<polygon fill="#63b8ff" stroke="#63b8ff" points="422.16,-279.63 416.47,-270.7 415.35,-281.23 422.16,-279.63"/>
</a>
</g>
</g>
<!-- Node20 -->
<g id="Node000020" class="node">
<title>Node20</title>
<g id="a_Node000020"><a xlink:href="../../d6/d82/a00293.html#a4298f891699300bfc4e6e56fd2a8d574" target="_top" xlink:title="Get keycode from chyron.">
<polygon fill="white" stroke="#666666" points="714,-442.75 621.5,-442.75 621.5,-422 714,-422 714,-442.75"/>
<text xml:space="preserve" text-anchor="middle" x="667.75" y="-429.25" font-family="Helvetica,sans-Serif" font-size="10.00">get_chyron_key</text>
</a>
</g>
</g>
<!-- Node19&#45;&gt;Node20 -->
<g id="edge25_Node000019_Node000020" class="edge">
<title>Node19&#45;&gt;Node20</title>
<g id="a_edge25_Node000019_Node000020"><a xlink:title=" ">
<path fill="none" stroke="#63b8ff" d="M567.72,-432.38C580.04,-432.38 595,-432.38 609.53,-432.38"/>
<polygon fill="#63b8ff" stroke="#63b8ff" points="609.51,-435.88 619.51,-432.38 609.51,-428.88 609.51,-435.88"/>
</a>
</g>
</g>
<!-- Node22 -->
<g id="Node000022" class="node">
<title>Node22</title>
<g id="a_Node000022"><a xlink:href="../../d6/d82/a00293.html#aa3a6b291c0820d9da545325a2dba5274" target="_top" xlink:title="Apply gamma correction to RGB color.">
<polygon fill="white" stroke="#666666" points="456.25,-59.75 370.5,-59.75 370.5,-39 456.25,-39 456.25,-59.75"/>
<text xml:space="preserve" text-anchor="middle" x="413.38" y="-46.25" font-family="Helvetica,sans-Serif" font-size="10.00">apply_gamma</text>
</a>
</g>
</g>
<!-- Node21&#45;&gt;Node22 -->
<g id="edge28_Node000021_Node000022" class="edge">
<title>Node21&#45;&gt;Node22</title>
<g id="a_edge28_Node000021_Node000022"><a xlink:title=" ">
<path fill="none" stroke="#63b8ff" d="M325.46,-49.38C336.33,-49.38 347.89,-49.38 358.9,-49.38"/>
<polygon fill="#63b8ff" stroke="#63b8ff" points="358.61,-52.88 368.61,-49.38 358.61,-45.88 358.61,-52.88"/>
</a>
</g>
</g>
</g>
</svg>

<g id="navigator" transform="translate(0 0)" fill="#404254">
  <rect fill="#f2f5e9" fill-opacity="0.5" stroke="#606060" stroke-width=".5" x="0" y="0" width="60" height="60"/>
  <use id="zoomplus" xlink:href="#zoomPlus" x="17" y="9" onmousedown="handleZoom(evt,'in')"/>
  <use id="zoomminus" xlink:href="#zoomMin" x="42" y="9" onmousedown="handleZoom(evt,'out')"/>
  <use id="reset" xlink:href="#resetDef" x="30" y="36" onmousedown="handleReset()"/>
   <use id="arrowup" xlink:href="#arrowUp" x="0" y="0" onmousedown="handlePan(0,-1)"/>
  <use id="arrowright" xlink:href="#arrowRight" x="0" y="0" onmousedown="handlePan(1,0)"/>
  <use id="arrowdown" xlink:href="#arrowDown" x="0" y="0" onmousedown="handlePan(0,1)"/>
  <use id="arrowleft" xlink:href="#arrowLeft" x="0" y="0" onmousedown="handlePan(-1,0)"/>
</g>
<svg viewBox="0 0 15 15" width="100%" height="30px" preserveAspectRatio="xMaxYMin meet">
 <g id="arrow_out" transform="scale(0.3 0.3)">
  <a xlink:href="a00245_a747411d59b020ad11d4567ab0b3db8c2_cgraph_org.svg" target="_base">
   <rect id="button" ry="5" rx="5" y="6" x="6" height="38" width="38"
        fill="#f2f5e9" fill-opacity="0.5" stroke="#606060" stroke-width="1.0"/>
   <path id="arrow"
     d="M 11.500037,31.436501 C 11.940474,20.09759 22.043105,11.32322 32.158766,21.979434 L 37.068811,17.246167 C 37.068811,17.246167 37.088388,32 37.088388,32 L 22.160133,31.978069 C 22.160133,31.978069 26.997745,27.140456 26.997745,27.140456 C 18.528582,18.264221 13.291696,25.230495 11.500037,31.436501 z"
     style="fill:#404040;"/>
  </a>
 </g>
</svg>

<style type='text/css'>
<![CDATA[
[data-mouse-over-selected='false'] { opacity: 0.7; }
[data-mouse-over-selected='true']  { opacity: 1.0; }
]]>
</style>
<script type="application/ecmascript"><![CDATA[
document.addEventListener('DOMContentLoaded', (event) => {
  highlightEdges();
  highlightAdjacentNodes();
});
]]></script>
</svg>
