<?xml version="1.0" encoding="UTF-8" standalone="no"?>
<!DOCTYPE svg PUBLIC "-//W3C//DTD SVG 1.1//EN"
 "http://www.w3.org/Graphics/SVG/1.1/DTD/svg11.dtd">
<!-- Generated by graphviz version 14.1.2 (0)
 -->
<!-- Title: build_prompt Pages: 1 -->
<svg width="192pt" height="68pt"
 viewBox="0.00 0.00 192.00 68.00" xmlns="http://www.w3.org/2000/svg" xmlns:xlink="http://www.w3.org/1999/xlink">
<g id="graph0" class="graph" transform="scale(1 1) rotate(0) translate(4 63.75)">
<title>build_prompt</title>
<!-- Node1 -->
<g id="Node000001" class="node">
<title>Node1</title>
<g id="a_Node000001"><a xlink:title="Build Prompt String.">
<polygon fill="#999999" stroke="#666666" points="80.5,-39.75 0,-39.75 0,-19 80.5,-19 80.5,-39.75"/>
<text xml:space="preserve" text-anchor="middle" x="40.25" y="-26.25" font-family="Helvetica,sans-Serif" font-size="10.00">build_prompt</text>
</a>
</g>
</g>
<!-- Node2 -->
<g id="Node000002" class="node">
<title>Node2</title>
<g id="a_Node000002"><a xlink:href="../../d6/d7f/a00287.html#aa0145c044cfdde3a1c83323410a59f25" target="_top" xlink:title="safer alternative to strncat">
<polygon fill="white" stroke="#666666" points="183.12,-59.75 117.62,-59.75 117.62,-39 183.12,-39 183.12,-59.75"/>
<text xml:space="preserve" text-anchor="middle" x="150.38" y="-46.25" font-family="Helvetica,sans-Serif" font-size="10.00">strnz__cat</text>
</a>
</g>
</g>
<!-- Node1&#45;&gt;Node2 -->
<g id="edge1_Node000001_Node000002" class="edge">
<title>Node1&#45;&gt;Node2</title>
<g id="a_edge1_Node000001_Node000002"><a xlink:title=" ">
<path fill="none" stroke="#63b8ff" d="M80.9,-36.71C89.1,-38.23 97.78,-39.83 106.11,-41.37"/>
<polygon fill="#63b8ff" stroke="#63b8ff" points="105.21,-44.76 115.68,-43.14 106.48,-37.88 105.21,-44.76"/>
</a>
</g>
</g>
<!-- Node3 -->
<g id="Node000003" class="node">
<title>Node3</title>
<g id="a_Node000003"><a xlink:href="../../d6/d7f/a00287.html#a0de2e40df9bd7efc8fd9afb8ad2257e6" target="_top" xlink:title="safer alternative to strncpy">
<polygon fill="white" stroke="#666666" points="184.25,-20.75 116.5,-20.75 116.5,0 184.25,0 184.25,-20.75"/>
<text xml:space="preserve" text-anchor="middle" x="150.38" y="-7.25" font-family="Helvetica,sans-Serif" font-size="10.00">strnz__cpy</text>
</a>
</g>
</g>
<!-- Node1&#45;&gt;Node3 -->
<g id="edge2_Node000001_Node000003" class="edge">
<title>Node1&#45;&gt;Node3</title>
<g id="a_edge2_Node000001_Node000003"><a xlink:title=" ">
<path fill="none" stroke="#63b8ff" d="M80.9,-22.41C88.67,-21.04 96.88,-19.6 104.8,-18.21"/>
<polygon fill="#63b8ff" stroke="#63b8ff" points="105.39,-21.66 114.63,-16.48 104.18,-14.76 105.39,-21.66"/>
</a>
</g>
</g>
</g>
</svg>
