<?xml version="1.0" encoding="UTF-8" standalone="no"?>
<!DOCTYPE svg PUBLIC "-//W3C//DTD SVG 1.1//EN"
 "http://www.w3.org/Graphics/SVG/1.1/DTD/svg11.dtd">
<!-- Generated by graphviz version 14.1.2 (0)
 -->
<!-- Title: get_next_line Pages: 1 -->
<!--zoomable 412 -->

<svg id="main" version="1.1" xmlns="http://www.w3.org/2000/svg" xmlns:xlink="http://www.w3.org/1999/xlink" xml:space="preserve" onload="init(evt)">

<style type="text/css"><![CDATA[
.node, .edge {opacity: 0.7;}
.node.selected, .edge.selected {opacity: 1;}
.edge:hover path { stroke: red; }
.edge:hover polygon { stroke: red; fill: red; }
]]></style>

<defs>
  <circle id="rim" cx="0" cy="0" r="7"/>
  <circle id="rim2" cx="0" cy="0" r="3.5"/>
  <g id="zoomPlus">
    <use xlink:href="#rim" fill="#404040"><set attributeName="fill" to="#808080" begin="zoomplus.mouseover" end="zoomplus.mouseout"/></use>
    <path d="M-4,0h8M0,-4v8" fill="none" stroke="white" stroke-width="1.5" pointer-events="none"/>
  </g>
  <g id="zoomMin">
    <use xlink:href="#rim" fill="#404040"><set attributeName="fill" to="#808080" begin="zoomminus.mouseover" end="zoomminus.mouseout"/></use>
    <path d="M-4,0h8" fill="none" stroke="white" stroke-width="1.5" pointer-events="none"/>
  </g>
  <g id="arrowUp" transform="translate(30 24)">
    <use xlink:href="#rim"/>
    <path pointer-events="none" fill="none" stroke="white" stroke-width="1.5" d="M0,-3.0v7 M-2.5,-0.5L0,-3.0L2.5,-0.5"/>
  </g>
  <g id="arrowRight" transform="rotate(90) translate(36 -43)">
    <use xlink:href="#rim"/>
    <path pointer-events="none" fill="none" stroke="white" stroke-width="1.5" d="M0,-3.0v7 M-2.5,-0.5L0,-3.0L2.5,-0.5"/>
  </g>
  <g id="arrowDown" transform="rotate(180) translate(-30 -48)">
    <use xlink:href="#rim"/>
    <path pointer-events="none" fill="none" stroke="white" stroke-width="1.5" d="M0,-3.0v7 M-2.5,-0.5L0,-3.0L2.5,-0.5"/>
  </g>
  <g id="arrowLeft" transform="rotate(270) translate(-36 17)">
    <use xlink:href="#rim"/>
    <path pointer-events="none" fill="none" stroke="white" stroke-width="1.5" d="M0,-3.0v7 M-2.5,-0.5L0,-3.0L2.5,-0.5"/>
  </g>
  <g id="resetDef">
    <use xlink:href="#rim2" fill="#404040"><set attributeName="fill" to="#808080" begin="reset.mouseover" end="reset.mouseout"/></use>
  </g>
</defs>
<script type="application/ecmascript">
var viewWidth = 1671;
var viewHeight = 412;
var sectionId = 'dynsection-13';
</script>
<script type="application/ecmascript" xlink:href="../../svg.min.js"/>
<svg id="graph" class="graph">
<g id="viewport">
<title>get_next_line</title>
<!-- Node1 -->
<g id="Node000001" class="node">
<title>Node1</title>
<g id="a_Node000001"><a xlink:title="Get Next Line from File.">
<polygon fill="#999999" stroke="#666666" points="1663.25,-289.75 1581.25,-289.75 1581.25,-269 1663.25,-269 1663.25,-289.75"/>
<text xml:space="preserve" text-anchor="middle" x="1622.25" y="-276.25" font-family="Helvetica,sans-Serif" font-size="10.00">get_next_line</text>
</a>
</g>
</g>
<!-- Node2 -->
<g id="Node000002" class="node">
<title>Node2</title>
<g id="a_Node000002"><a xlink:href="../../d6/d22/a00245.html#ab49fb9f9417c7cf790cea1679e4e5edc" target="_top" xlink:title="Get Previous Line from File.">
<polygon fill="white" stroke="#666666" points="1534.38,-327.75 1452.38,-327.75 1452.38,-307 1534.38,-307 1534.38,-327.75"/>
<text xml:space="preserve" text-anchor="middle" x="1493.38" y="-314.25" font-family="Helvetica,sans-Serif" font-size="10.00">get_prev_line</text>
</a>
</g>
</g>
<!-- Node1&#45;&gt;Node2 -->
<g id="edge1_Node000001_Node000002" class="edge">
<title>Node1&#45;&gt;Node2</title>
<g id="a_edge1_Node000001_Node000002"><a xlink:title=" ">
<path fill="none" stroke="#63b8ff" d="M1574.43,-293.4C1559.92,-297.74 1544.15,-302.47 1530.48,-306.56"/>
<polygon fill="#63b8ff" stroke="#63b8ff" points="1575.21,-296.82 1583.78,-290.6 1573.2,-290.11 1575.21,-296.82"/>
</a>
</g>
</g>
<!-- Node3 -->
<g id="Node000003" class="node">
<title>Node3</title>
<g id="a_Node000003"><a xlink:href="../../d6/d22/a00245.html#a5f639aa1a1f03fa05888c724bc17d99c" target="_top" xlink:title="Search for Regular Expression Pattern.">
<polygon fill="white" stroke="#666666" points="1372.88,-326.75 1324.62,-326.75 1324.62,-306 1372.88,-306 1372.88,-326.75"/>
<text xml:space="preserve" text-anchor="middle" x="1348.75" y="-313.25" font-family="Helvetica,sans-Serif" font-size="10.00">search</text>
</a>
</g>
</g>
<!-- Node1&#45;&gt;Node3 -->
<g id="edge47_Node000001_Node000003" class="edge">
<title>Node1&#45;&gt;Node3</title>
<g id="a_edge47_Node000001_Node000003"><a xlink:title=" ">
<path fill="none" stroke="#63b8ff" d="M1569.58,-283.62C1533.57,-286.87 1484.48,-291.9 1441.5,-298.38 1418.07,-301.91 1391.52,-307.26 1373.03,-311.22"/>
<polygon fill="#63b8ff" stroke="#63b8ff" points="1569.63,-287.13 1579.28,-282.76 1569.01,-280.15 1569.63,-287.13"/>
</a>
</g>
</g>
<!-- Node22 -->
<g id="Node000022" class="node">
<title>Node22</title>
<g id="a_Node000022"><a xlink:href="../../d6/d22/a00245.html#acf1bfbd6d2fd4ad9a0385009ef25015c" target="_top" xlink:title="Advance to Next Page.">
<polygon fill="white" stroke="#666666" points="1526.88,-154.75 1459.88,-154.75 1459.88,-134 1526.88,-134 1526.88,-154.75"/>
<text xml:space="preserve" text-anchor="middle" x="1493.38" y="-141.25" font-family="Helvetica,sans-Serif" font-size="10.00">next_page</text>
</a>
</g>
</g>
<!-- Node1&#45;&gt;Node22 -->
<g id="edge27_Node000001_Node000022" class="edge">
<title>Node1&#45;&gt;Node22</title>
<g id="a_edge27_Node000001_Node000022"><a xlink:title=" ">
<path fill="none" stroke="#63b8ff" d="M1607.65,-259.38C1593.36,-239.1 1569.61,-207.36 1545.25,-183.38 1534.46,-172.76 1520.78,-162.41 1510.32,-155.05"/>
<polygon fill="#63b8ff" stroke="#63b8ff" points="1604.6,-261.12 1613.18,-267.34 1610.35,-257.13 1604.6,-261.12"/>
</a>
</g>
</g>
<!-- Node29 -->
<g id="Node000029" class="node">
<title>Node29</title>
<g id="a_Node000029"><a xlink:href="../../d6/d22/a00245.html#a3559e8fbca0e5aa0df7e56cde3a504da" target="_top" xlink:title="Redisplay Current Page.">
<polygon fill="white" stroke="#666666" points="1256,-403.75 1165.75,-403.75 1165.75,-383 1256,-383 1256,-403.75"/>
<text xml:space="preserve" text-anchor="middle" x="1210.88" y="-390.25" font-family="Helvetica,sans-Serif" font-size="10.00">redisplay_page</text>
</a>
</g>
</g>
<!-- Node1&#45;&gt;Node29 -->
<g id="edge41_Node000001_Node000029" class="edge">
<title>Node1&#45;&gt;Node29</title>
<g id="a_edge41_Node000001_Node000029"><a xlink:title=" ">
<path fill="none" stroke="#63b8ff" d="M1608.72,-299.47C1595.5,-318.72 1572.81,-346.77 1545.25,-360.38 1450.72,-407.04 1322.94,-404.17 1256.37,-398.51"/>
<polygon fill="#63b8ff" stroke="#63b8ff" points="1611.49,-301.63 1614.06,-291.35 1605.64,-297.78 1611.49,-301.63"/>
</a>
</g>
</g>
<!-- Node30 -->
<g id="Node000030" class="node">
<title>Node30</title>
<g id="a_Node000030"><a xlink:href="../../d6/d22/a00245.html#aa79b8294ebf98c84d4a844fd7d9e4862" target="_top" xlink:title="Scroll N Lines.">
<polygon fill="white" stroke="#666666" points="1405.5,-365.75 1292,-365.75 1292,-345 1405.5,-345 1405.5,-365.75"/>
<text xml:space="preserve" text-anchor="middle" x="1348.75" y="-352.25" font-family="Helvetica,sans-Serif" font-size="10.00">scroll_down_n_lines</text>
</a>
</g>
</g>
<!-- Node1&#45;&gt;Node30 -->
<g id="edge43_Node000001_Node000030" class="edge">
<title>Node1&#45;&gt;Node30</title>
<g id="a_edge43_Node000001_Node000030"><a xlink:title=" ">
<path fill="none" stroke="#63b8ff" d="M1603.08,-297.6C1588.7,-310.8 1567.41,-327.78 1545.25,-336.38 1500.58,-353.71 1446.06,-357.74 1405.95,-357.85"/>
<polygon fill="#63b8ff" stroke="#63b8ff" points="1605.16,-300.45 1609.99,-291.02 1600.33,-295.38 1605.16,-300.45"/>
</a>
</g>
</g>
<!-- Node31 -->
<g id="Node000031" class="node">
<title>Node31</title>
<g id="a_Node000031"><a xlink:href="../../d6/d22/a00245.html#ab08fc8983cc3bdb21b438c82ece16346" target="_top" xlink:title="Scroll Up N Lines.">
<polygon fill="white" stroke="#666666" points="1543,-212.75 1443.75,-212.75 1443.75,-192 1543,-192 1543,-212.75"/>
<text xml:space="preserve" text-anchor="middle" x="1493.38" y="-199.25" font-family="Helvetica,sans-Serif" font-size="10.00">scroll_up_n_lines</text>
</a>
</g>
</g>
<!-- Node1&#45;&gt;Node31 -->
<g id="edge45_Node000001_Node000031" class="edge">
<title>Node1&#45;&gt;Node31</title>
<g id="a_edge45_Node000001_Node000031"><a xlink:title=" ">
<path fill="none" stroke="#63b8ff" d="M1600.3,-261.23C1585.6,-249.12 1565.1,-233.45 1545.25,-222.38 1539.2,-219 1532.46,-215.92 1525.92,-213.25"/>
<polygon fill="#63b8ff" stroke="#63b8ff" points="1597.99,-263.86 1607.9,-267.61 1602.5,-258.5 1597.99,-263.86"/>
</a>
</g>
</g>
<!-- Node32 -->
<g id="Node000032" class="node">
<title>Node32</title>
<g id="a_Node000032"><a xlink:href="../../d6/d22/a00245.html#a30ab3b4282eabd18619c5b053ff8b0b1" target="_top" xlink:title="Write buffer contents to files.">
<polygon fill="white" stroke="#666666" points="1545.25,-251.75 1441.5,-251.75 1441.5,-231 1545.25,-231 1545.25,-251.75"/>
<text xml:space="preserve" text-anchor="middle" x="1493.38" y="-238.25" font-family="Helvetica,sans-Serif" font-size="10.00">write_view_buffer</text>
</a>
</g>
</g>
<!-- Node1&#45;&gt;Node32 -->
<g id="edge48_Node000001_Node000032" class="edge">
<title>Node1&#45;&gt;Node32</title>
<g id="a_edge48_Node000001_Node000032"><a xlink:title=" ">
<path fill="none" stroke="#63b8ff" d="M1574.43,-265.35C1559.92,-261.01 1544.15,-256.28 1530.48,-252.19"/>
<polygon fill="#63b8ff" stroke="#63b8ff" points="1573.2,-268.64 1583.78,-268.15 1575.21,-261.93 1573.2,-268.64"/>
</a>
</g>
</g>
<!-- Node2&#45;&gt;Node3 -->
<g id="edge2_Node000002_Node000003" class="edge">
<title>Node2&#45;&gt;Node3</title>
<g id="a_edge2_Node000002_Node000003"><a xlink:title=" ">
<path fill="none" stroke="#63b8ff" d="M1440.46,-317.01C1417.31,-316.85 1391.22,-316.67 1372.98,-316.54"/>
<polygon fill="#63b8ff" stroke="#63b8ff" points="1440.35,-320.51 1450.37,-317.08 1440.4,-313.51 1440.35,-320.51"/>
</a>
</g>
</g>
<!-- Node4 -->
<g id="Node000004" class="node">
<title>Node4</title>
<g id="a_Node000004"><a xlink:href="../../d6/d22/a00245.html#a9c4b3ba5f73c18b486646c62b933972a" target="_top" xlink:title="Main Command Processing Loop for View.">
<polygon fill="white" stroke="#666666" points="1129.75,-212.75 1011.75,-212.75 1011.75,-192 1129.75,-192 1129.75,-212.75"/>
<text xml:space="preserve" text-anchor="middle" x="1070.75" y="-199.25" font-family="Helvetica,sans-Serif" font-size="10.00">view_cmd_processor</text>
</a>
</g>
</g>
<!-- Node3&#45;&gt;Node4 -->
<g id="edge3_Node000003_Node000004" class="edge">
<title>Node3&#45;&gt;Node4</title>
<g id="a_edge3_Node000003_Node000004"><a xlink:title=" ">
<path fill="none" stroke="#63b8ff" d="M1312.86,-318.06C1274.82,-318.51 1213.07,-315.08 1165.75,-292.38 1126.84,-273.71 1093.67,-232.8 1079.33,-213.22"/>
<polygon fill="#63b8ff" stroke="#63b8ff" points="1312.89,-321.56 1322.81,-317.83 1312.73,-314.56 1312.89,-321.56"/>
</a>
</g>
</g>
<!-- Node5 -->
<g id="Node000005" class="node">
<title>Node5</title>
<g id="a_Node000005"><a xlink:href="../../d6/d22/a00245.html#a0bd4dc056ab5010547129bb87819789b" target="_top" xlink:title="Start view.">
<polygon fill="white" stroke="#666666" points="975.75,-77.75 915.5,-77.75 915.5,-57 975.75,-57 975.75,-77.75"/>
<text xml:space="preserve" text-anchor="middle" x="945.62" y="-64.25" font-family="Helvetica,sans-Serif" font-size="10.00">view_file</text>
</a>
</g>
</g>
<!-- Node4&#45;&gt;Node5 -->
<g id="edge4_Node000004_Node000005" class="edge">
<title>Node4&#45;&gt;Node5</title>
<g id="a_edge4_Node000004_Node000005"><a xlink:title=" ">
<path fill="none" stroke="#63b8ff" d="M1052.41,-183.37C1026.1,-154.52 976.97,-100.65 956.24,-77.92"/>
<polygon fill="#63b8ff" stroke="#63b8ff" points="1049.74,-185.63 1059.07,-190.66 1054.92,-180.92 1049.74,-185.63"/>
</a>
</g>
</g>
<!-- Node6 -->
<g id="Node000006" class="node">
<title>Node6</title>
<g id="a_Node000006"><a xlink:href="../../dd/dd7/a00248.html#a3c04138a5bfe5d72780bb7e82a18e627" target="_top" xlink:title=" ">
<polygon fill="white" stroke="#666666" points="761.88,-20.75 721.12,-20.75 721.12,0 761.88,0 761.88,-20.75"/>
<text xml:space="preserve" text-anchor="middle" x="741.5" y="-7.25" font-family="Helvetica,sans-Serif" font-size="10.00">main</text>
</a>
</g>
</g>
<!-- Node5&#45;&gt;Node6 -->
<g id="edge5_Node000005_Node000006" class="edge">
<title>Node5&#45;&gt;Node6</title>
<g id="a_edge5_Node000005_Node000006"><a xlink:title=" ">
<path fill="none" stroke="#63b8ff" d="M904.3,-56C861.28,-43.87 794.91,-25.16 762.16,-15.92"/>
<polygon fill="#63b8ff" stroke="#63b8ff" points="903.2,-59.33 913.78,-58.68 905.1,-52.59 903.2,-59.33"/>
</a>
</g>
</g>
<!-- Node7 -->
<g id="Node000007" class="node">
<title>Node7</title>
<g id="a_Node000007"><a xlink:href="../../d3/d5e/a00275.html#a75a4e7afc9c9aafd3d35ab706f5fdc71" target="_top" xlink:title="subprogram entry point for C&#45;Menu View">
<polygon fill="white" stroke="#666666" points="879.5,-97.75 830.5,-97.75 830.5,-77 879.5,-77 879.5,-97.75"/>
<text xml:space="preserve" text-anchor="middle" x="855" y="-84.25" font-family="Helvetica,sans-Serif" font-size="10.00">mview</text>
</a>
</g>
</g>
<!-- Node5&#45;&gt;Node7 -->
<g id="edge6_Node000005_Node000007" class="edge">
<title>Node5&#45;&gt;Node7</title>
<g id="a_edge6_Node000005_Node000007"><a xlink:title=" ">
<path fill="none" stroke="#63b8ff" d="M904.02,-76.54C895.73,-78.41 887.26,-80.32 879.79,-82.01"/>
<polygon fill="#63b8ff" stroke="#63b8ff" points="904.65,-79.98 913.64,-74.37 903.11,-73.16 904.65,-79.98"/>
</a>
</g>
</g>
<!-- Node7&#45;&gt;Node6 -->
<g id="edge23_Node000007_Node000006" class="edge">
<title>Node7&#45;&gt;Node6</title>
<g id="a_edge23_Node000007_Node000006"><a xlink:title=" ">
<path fill="none" stroke="#63b8ff" d="M837.73,-68.27C826.57,-56.12 810.86,-40.76 794.5,-30.38 784.54,-24.05 772.26,-19.21 762.14,-15.88"/>
<polygon fill="#63b8ff" stroke="#63b8ff" points="835.05,-70.53 844.31,-75.68 840.29,-65.88 835.05,-70.53"/>
</a>
</g>
</g>
<!-- Node8 -->
<g id="Node000008" class="node">
<title>Node8</title>
<g id="a_Node000008"><a xlink:href="../../d9/d01/a00227.html#aeebc4c0b94ca97d753e10a0cd1798730" target="_top" xlink:title="Displays the help screen for the pick interface using mview.">
<polygon fill="white" stroke="#666666" points="793,-59.75 690,-59.75 690,-39 793,-39 793,-59.75"/>
<text xml:space="preserve" text-anchor="middle" x="741.5" y="-46.25" font-family="Helvetica,sans-Serif" font-size="10.00">display_pick_help</text>
</a>
</g>
</g>
<!-- Node7&#45;&gt;Node8 -->
<g id="edge7_Node000007_Node000008" class="edge">
<title>Node7&#45;&gt;Node8</title>
<g id="a_edge7_Node000007_Node000008"><a xlink:title=" ">
<path fill="none" stroke="#63b8ff" d="M819.5,-75.62C804.97,-70.67 788.19,-64.95 774,-60.11"/>
<polygon fill="#63b8ff" stroke="#63b8ff" points="818.05,-78.82 828.65,-78.73 820.31,-72.2 818.05,-78.82"/>
</a>
</g>
</g>
<!-- Node13 -->
<g id="Node000013" class="node">
<title>Node13</title>
<g id="a_Node000013"><a xlink:href="../../d5/d35/a00266.html#aa5d0e30e7036b72b51c843d0a7e486a1" target="_top" xlink:title="Processes user input for the menu system.">
<polygon fill="white" stroke="#666666" points="317.25,-136.75 194.75,-136.75 194.75,-116 317.25,-116 317.25,-136.75"/>
<text xml:space="preserve" text-anchor="middle" x="256" y="-123.25" font-family="Helvetica,sans-Serif" font-size="10.00">menu_cmd_processor</text>
</a>
</g>
</g>
<!-- Node7&#45;&gt;Node13 -->
<g id="edge24_Node000007_Node000013" class="edge">
<title>Node7&#45;&gt;Node13</title>
<g id="a_edge24_Node000007_Node000013"><a xlink:title=" ">
<path fill="none" stroke="#63b8ff" d="M819.37,-96.35C772.89,-107.59 687.63,-125.38 613.62,-125.38 613.62,-125.38 613.62,-125.38 490.62,-125.38 431.81,-125.38 364.67,-125.7 317.51,-125.97"/>
<polygon fill="#63b8ff" stroke="#63b8ff" points="819.97,-99.81 828.84,-94.01 818.3,-93.01 819.97,-99.81"/>
</a>
</g>
</g>
<!-- Node16 -->
<g id="Node000016" class="node">
<title>Node16</title>
<g id="a_Node000016"><a xlink:href="../../d9/d01/a00227.html#af7fcbb1c8b67a4d11c86ba7209f397c2" target="_top" xlink:title="Executes specified command with selected objects as arguments.">
<polygon fill="white" stroke="#666666" points="652.5,-97.75 572.75,-97.75 572.75,-77 652.5,-77 652.5,-97.75"/>
<text xml:space="preserve" text-anchor="middle" x="612.62" y="-84.25" font-family="Helvetica,sans-Serif" font-size="10.00">exec_objects</text>
</a>
</g>
</g>
<!-- Node7&#45;&gt;Node16 -->
<g id="edge16_Node000007_Node000016" class="edge">
<title>Node7&#45;&gt;Node16</title>
<g id="a_edge16_Node000007_Node000016"><a xlink:title=" ">
<path fill="none" stroke="#63b8ff" d="M818.75,-87.38C774.51,-87.38 698.9,-87.38 652.87,-87.38"/>
<polygon fill="#63b8ff" stroke="#63b8ff" points="818.56,-90.88 828.56,-87.38 818.56,-83.88 818.56,-90.88"/>
</a>
</g>
</g>
<!-- Node17 -->
<g id="Node000017" class="node">
<title>Node17</title>
<g id="a_Node000017"><a xlink:href="../../d7/d40/a00236.html#ada302551bf41bf8ed6132fd34328a47e" target="_top" xlink:title="Form main processing loop.">
<polygon fill="white" stroke="#666666" points="780.25,-173.75 702.75,-173.75 702.75,-153 780.25,-153 780.25,-173.75"/>
<text xml:space="preserve" text-anchor="middle" x="741.5" y="-160.25" font-family="Helvetica,sans-Serif" font-size="10.00">form_engine</text>
</a>
</g>
</g>
<!-- Node7&#45;&gt;Node17 -->
<g id="edge18_Node000007_Node000017" class="edge">
<title>Node7&#45;&gt;Node17</title>
<g id="a_edge18_Node000007_Node000017"><a xlink:title=" ">
<path fill="none" stroke="#63b8ff" d="M835.67,-105.86C824.44,-116.53 809.4,-129.72 794.5,-139.38 786.83,-144.35 777.95,-148.85 769.73,-152.57"/>
<polygon fill="#63b8ff" stroke="#63b8ff" points="837.98,-108.49 842.7,-99.01 833.09,-103.48 837.98,-108.49"/>
</a>
</g>
</g>
<!-- Node21 -->
<g id="Node000021" class="node">
<title>Node21</title>
<g id="a_Node000021"><a xlink:href="../../d6/d22/a00245.html#ad997ba9f8591568c77291fb1b44601b2" target="_top" xlink:title="Display View Help File.">
<polygon fill="white" stroke="#666666" points="794.5,-212.75 688.5,-212.75 688.5,-192 794.5,-192 794.5,-212.75"/>
<text xml:space="preserve" text-anchor="middle" x="741.5" y="-199.25" font-family="Helvetica,sans-Serif" font-size="10.00">view_display_help</text>
</a>
</g>
</g>
<!-- Node7&#45;&gt;Node21 -->
<g id="edge25_Node000007_Node000021" class="edge">
<title>Node7&#45;&gt;Node21</title>
<g id="a_edge25_Node000007_Node000021"><a xlink:title=" ">
<path fill="none" stroke="#63b8ff" d="M845.52,-108.62C836.01,-129.95 818.7,-162.43 794.5,-182.38 790.1,-186 784.96,-189.02 779.66,-191.52"/>
<polygon fill="#63b8ff" stroke="#63b8ff" points="848.72,-110.03 849.4,-99.46 842.27,-107.3 848.72,-110.03"/>
</a>
</g>
</g>
<!-- Node9 -->
<g id="Node000009" class="node">
<title>Node9</title>
<g id="a_Node000009"><a xlink:href="../../d9/d01/a00227.html#abb0969a6d1c7e78be46c3b325754c802" target="_top" xlink:title="Main loop to handle user input and interactions for pick interface.">
<polygon fill="white" stroke="#666666" points="635.25,-58.75 590,-58.75 590,-38 635.25,-38 635.25,-58.75"/>
<text xml:space="preserve" text-anchor="middle" x="612.62" y="-45.25" font-family="Helvetica,sans-Serif" font-size="10.00">picker</text>
</a>
</g>
</g>
<!-- Node8&#45;&gt;Node9 -->
<g id="edge8_Node000008_Node000009" class="edge">
<title>Node8&#45;&gt;Node9</title>
<g id="a_edge8_Node000008_Node000009"><a xlink:title=" ">
<path fill="none" stroke="#63b8ff" d="M678.52,-48.89C663.16,-48.77 647.69,-48.64 635.71,-48.55"/>
<polygon fill="#63b8ff" stroke="#63b8ff" points="678.09,-52.38 688.11,-48.96 678.14,-45.38 678.09,-52.38"/>
</a>
</g>
</g>
<!-- Node10 -->
<g id="Node000010" class="node">
<title>Node10</title>
<g id="a_Node000010"><a xlink:href="../../d9/d01/a00227.html#ab97dcab41017c5132f52b682437a151e" target="_top" xlink:title="Initializes pick interface, calculates window size and position, and enters picker loop.">
<polygon fill="white" stroke="#666666" points="528.88,-97.75 454.38,-97.75 454.38,-77 528.88,-77 528.88,-97.75"/>
<text xml:space="preserve" text-anchor="middle" x="491.62" y="-84.25" font-family="Helvetica,sans-Serif" font-size="10.00">pick_engine</text>
</a>
</g>
</g>
<!-- Node9&#45;&gt;Node10 -->
<g id="edge9_Node000009_Node000010" class="edge">
<title>Node9&#45;&gt;Node10</title>
<g id="a_edge9_Node000009_Node000010"><a xlink:title=" ">
<path fill="none" stroke="#63b8ff" d="M578.66,-59.18C562.05,-64.62 541.98,-71.2 525.4,-76.64"/>
<polygon fill="#63b8ff" stroke="#63b8ff" points="579.67,-62.53 588.08,-56.09 577.49,-55.88 579.67,-62.53"/>
</a>
</g>
</g>
<!-- Node11 -->
<g id="Node000011" class="node">
<title>Node11</title>
<g id="a_Node000011"><a xlink:href="../../d9/d01/a00227.html#a1b2ee87543245e612c1710ea58930a17" target="_top" xlink:title="Initializes pick structure and opens pick input file or pipe.">
<polygon fill="white" stroke="#666666" points="410.5,-97.75 353.25,-97.75 353.25,-77 410.5,-77 410.5,-97.75"/>
<text xml:space="preserve" text-anchor="middle" x="381.88" y="-84.25" font-family="Helvetica,sans-Serif" font-size="10.00">init_pick</text>
</a>
</g>
</g>
<!-- Node10&#45;&gt;Node11 -->
<g id="edge10_Node000010_Node000011" class="edge">
<title>Node10&#45;&gt;Node11</title>
<g id="a_edge10_Node000010_Node000011"><a xlink:title=" ">
<path fill="none" stroke="#63b8ff" d="M442.91,-87.38C431.93,-87.38 420.61,-87.38 410.8,-87.38"/>
<polygon fill="#63b8ff" stroke="#63b8ff" points="442.63,-90.88 452.63,-87.38 442.63,-83.88 442.63,-90.88"/>
</a>
</g>
</g>
<!-- Node12 -->
<g id="Node000012" class="node">
<title>Node12</title>
<g id="a_Node000012"><a xlink:href="../../dd/dd7/a00260.html#a3c04138a5bfe5d72780bb7e82a18e627" target="_top" xlink:title=" ">
<polygon fill="white" stroke="#666666" points="276.38,-97.75 235.62,-97.75 235.62,-77 276.38,-77 276.38,-97.75"/>
<text xml:space="preserve" text-anchor="middle" x="256" y="-84.25" font-family="Helvetica,sans-Serif" font-size="10.00">main</text>
</a>
</g>
</g>
<!-- Node11&#45;&gt;Node12 -->
<g id="edge11_Node000011_Node000012" class="edge">
<title>Node11&#45;&gt;Node12</title>
<g id="a_edge11_Node000011_Node000012"><a xlink:title=" ">
<path fill="none" stroke="#63b8ff" d="M341.27,-87.38C319.64,-87.38 293.83,-87.38 276.52,-87.38"/>
<polygon fill="#63b8ff" stroke="#63b8ff" points="341.25,-90.88 351.25,-87.38 341.25,-83.88 341.25,-90.88"/>
</a>
</g>
</g>
<!-- Node11&#45;&gt;Node13 -->
<g id="edge12_Node000011_Node000013" class="edge">
<title>Node11&#45;&gt;Node13</title>
<g id="a_edge12_Node000011_Node000013"><a xlink:title=" ">
<path fill="none" stroke="#63b8ff" d="M341.96,-99.63C325.67,-104.75 306.92,-110.66 291.18,-115.61"/>
<polygon fill="#63b8ff" stroke="#63b8ff" points="342.83,-103.02 351.32,-96.68 340.73,-96.34 342.83,-103.02"/>
</a>
</g>
</g>
<!-- Node14 -->
<g id="Node000014" class="node">
<title>Node14</title>
<g id="a_Node000014"><a xlink:href="../../d5/d35/a00266.html#a7d7973d7aac92759dcc86ec52bb038f4" target="_top" xlink:title="The main loop of the menu system.">
<polygon fill="white" stroke="#666666" points="158.75,-136.75 76.75,-136.75 76.75,-116 158.75,-116 158.75,-136.75"/>
<text xml:space="preserve" text-anchor="middle" x="117.75" y="-123.25" font-family="Helvetica,sans-Serif" font-size="10.00">menu_engine</text>
</a>
</g>
</g>
<!-- Node13&#45;&gt;Node14 -->
<g id="edge13_Node000013_Node000014" class="edge">
<title>Node13&#45;&gt;Node14</title>
<g id="a_edge13_Node000013_Node000014"><a xlink:title=" ">
<path fill="none" stroke="#63b8ff" d="M183.2,-119.63C174.96,-119.67 166.79,-119.84 159.17,-120.15"/>
<polygon fill="#63b8ff" stroke="#63b8ff" points="182.92,-123.13 192.93,-119.66 182.94,-116.13 182.92,-123.13"/>
</a>
</g>
</g>
<!-- Node14&#45;&gt;Node13 -->
<g id="edge15_Node000014_Node000013" class="edge">
<title>Node14&#45;&gt;Node13</title>
<g id="a_edge15_Node000014_Node000013"><a xlink:title=" ">
<path fill="none" stroke="#63b8ff" d="M170.68,-132.95C178.45,-133.12 186.52,-133.17 194.45,-133.09"/>
<polygon fill="#63b8ff" stroke="#63b8ff" points="170.79,-129.45 160.69,-132.65 170.58,-136.45 170.79,-129.45"/>
</a>
</g>
</g>
<!-- Node15 -->
<g id="Node000015" class="node">
<title>Node15</title>
<g id="a_Node000015"><a xlink:href="../../d1/da8/a00230.html#a3c04138a5bfe5d72780bb7e82a18e627" target="_top" xlink:title=" ">
<polygon fill="white" stroke="#666666" points="40.75,-136.75 0,-136.75 0,-116 40.75,-116 40.75,-136.75"/>
<text xml:space="preserve" text-anchor="middle" x="20.38" y="-123.25" font-family="Helvetica,sans-Serif" font-size="10.00">main</text>
</a>
</g>
</g>
<!-- Node14&#45;&gt;Node15 -->
<g id="edge14_Node000014_Node000015" class="edge">
<title>Node14&#45;&gt;Node15</title>
<g id="a_edge14_Node000014_Node000015"><a xlink:title=" ">
<path fill="none" stroke="#63b8ff" d="M64.79,-126.38C56.36,-126.38 48.1,-126.38 41.09,-126.38"/>
<polygon fill="#63b8ff" stroke="#63b8ff" points="64.79,-129.88 74.79,-126.38 64.79,-122.88 64.79,-129.88"/>
</a>
</g>
</g>
<!-- Node16&#45;&gt;Node10 -->
<g id="edge17_Node000016_Node000010" class="edge">
<title>Node16&#45;&gt;Node10</title>
<g id="a_edge17_Node000016_Node000010"><a xlink:title=" ">
<path fill="none" stroke="#63b8ff" d="M560.93,-87.38C550.22,-87.38 539.12,-87.38 529.06,-87.38"/>
<polygon fill="#63b8ff" stroke="#63b8ff" points="560.82,-90.88 570.82,-87.38 560.82,-83.88 560.82,-90.88"/>
</a>
</g>
</g>
<!-- Node18 -->
<g id="Node000018" class="node">
<title>Node18</title>
<g id="a_Node000018"><a xlink:href="../../d7/d40/a00236.html#abf1be20a8aad5f7ba09172ac1434a110" target="_top" xlink:title="Initialize form data structure and parse description file.">
<polygon fill="white" stroke="#666666" points="642.75,-192.75 582.5,-192.75 582.5,-172 642.75,-172 642.75,-192.75"/>
<text xml:space="preserve" text-anchor="middle" x="612.62" y="-179.25" font-family="Helvetica,sans-Serif" font-size="10.00">init_form</text>
</a>
</g>
</g>
<!-- Node17&#45;&gt;Node18 -->
<g id="edge19_Node000017_Node000018" class="edge">
<title>Node17&#45;&gt;Node18</title>
<g id="a_edge19_Node000017_Node000018"><a xlink:title=" ">
<path fill="none" stroke="#63b8ff" d="M691.43,-170.72C675.15,-173.16 657.54,-175.8 643.2,-177.95"/>
<polygon fill="#63b8ff" stroke="#63b8ff" points="691.57,-174.24 700.94,-169.3 690.53,-167.32 691.57,-174.24"/>
</a>
</g>
</g>
<!-- Node18&#45;&gt;Node13 -->
<g id="edge22_Node000018_Node000013" class="edge">
<title>Node18&#45;&gt;Node13</title>
<g id="a_edge22_Node000018_Node000013"><a xlink:title=" ">
<path fill="none" stroke="#63b8ff" d="M587.03,-199.03C572.97,-207.54 554.62,-217 536.75,-221.38 497.79,-230.91 485.53,-230.61 446.5,-221.38 376.66,-204.85 303.27,-158.38 272.26,-137.17"/>
<polygon fill="#63b8ff" stroke="#63b8ff" points="588.57,-202.19 595.16,-193.9 584.84,-196.27 588.57,-202.19"/>
</a>
</g>
</g>
<!-- Node19 -->
<g id="Node000019" class="node">
<title>Node19</title>
<g id="a_Node000019"><a xlink:href="../../d6/d22/a00245.html#a2ffea5674e85f124a70e19f745a66583" target="_top" xlink:title="use form to enter a file specification">
<polygon fill="white" stroke="#666666" points="536.75,-212.75 446.5,-212.75 446.5,-192 536.75,-192 536.75,-212.75"/>
<text xml:space="preserve" text-anchor="middle" x="491.62" y="-199.25" font-family="Helvetica,sans-Serif" font-size="10.00">enter_file_spec</text>
</a>
</g>
</g>
<!-- Node18&#45;&gt;Node19 -->
<g id="edge20_Node000018_Node000019" class="edge">
<title>Node18&#45;&gt;Node19</title>
<g id="a_edge20_Node000018_Node000019"><a xlink:title=" ">
<path fill="none" stroke="#63b8ff" d="M571.17,-189.17C560.17,-191.02 548.21,-193.03 537,-194.92"/>
<polygon fill="#63b8ff" stroke="#63b8ff" points="571.44,-192.68 580.72,-187.57 570.27,-185.78 571.44,-192.68"/>
</a>
</g>
</g>
<!-- Node20 -->
<g id="Node000020" class="node">
<title>Node20</title>
<g id="a_Node000020"><a xlink:href="../../dc/d5d/a00278.html#a3c04138a5bfe5d72780bb7e82a18e627" target="_top" xlink:title=" ">
<polygon fill="white" stroke="#666666" points="512,-173.75 471.25,-173.75 471.25,-153 512,-153 512,-173.75"/>
<text xml:space="preserve" text-anchor="middle" x="491.62" y="-160.25" font-family="Helvetica,sans-Serif" font-size="10.00">main</text>
</a>
</g>
</g>
<!-- Node18&#45;&gt;Node20 -->
<g id="edge21_Node000018_Node000020" class="edge">
<title>Node18&#45;&gt;Node20</title>
<g id="a_edge21_Node000018_Node000020"><a xlink:title=" ">
<path fill="none" stroke="#63b8ff" d="M570.99,-175.89C551.2,-172.73 528.31,-169.07 512.4,-166.53"/>
<polygon fill="#63b8ff" stroke="#63b8ff" points="570.29,-179.32 580.71,-177.44 571.39,-172.41 570.29,-179.32"/>
</a>
</g>
</g>
<!-- Node21&#45;&gt;Node4 -->
<g id="edge26_Node000021_Node000004" class="edge">
<title>Node21&#45;&gt;Node4</title>
<g id="a_edge26_Node000021_Node000004"><a xlink:title=" ">
<path fill="none" stroke="#63b8ff" d="M806.1,-202.38C865.66,-202.38 953.9,-202.38 1011.62,-202.38"/>
<polygon fill="#63b8ff" stroke="#63b8ff" points="806.47,-198.88 796.47,-202.38 806.47,-205.88 806.47,-198.88"/>
</a>
</g>
</g>
<!-- Node22&#45;&gt;Node4 -->
<g id="edge39_Node000022_Node000004" class="edge">
<title>Node22&#45;&gt;Node4</title>
<g id="a_edge39_Node000022_Node000004"><a xlink:title=" ">
<path fill="none" stroke="#63b8ff" d="M1463.7,-160.44C1447.21,-168.86 1425.79,-178.42 1405.5,-183.38 1311.06,-206.43 1197.32,-207.45 1129.97,-205.4"/>
<polygon fill="#63b8ff" stroke="#63b8ff" points="1465.22,-163.6 1472.43,-155.85 1461.95,-157.41 1465.22,-163.6"/>
</a>
</g>
</g>
<!-- Node22&#45;&gt;Node5 -->
<g id="edge40_Node000022_Node000005" class="edge">
<title>Node22&#45;&gt;Node5</title>
<g id="a_edge40_Node000022_Node000005"><a xlink:title=" ">
<path fill="none" stroke="#63b8ff" d="M1475.95,-125.02C1459.78,-107.2 1433.52,-81.33 1405.5,-66.38 1345.02,-34.09 1324.03,-36.89 1256,-28.38 1153.13,-15.51 1031.05,-43.71 976.06,-58.74"/>
<polygon fill="#63b8ff" stroke="#63b8ff" points="1473.19,-127.19 1482.43,-132.37 1478.44,-122.55 1473.19,-127.19"/>
</a>
</g>
</g>
<!-- Node23 -->
<g id="Node000023" class="node">
<title>Node23</title>
<g id="a_Node000023"><a xlink:href="../../d6/d22/a00245.html#ae6623cc4892a014fc9c40b3bca1db7d9" target="_top" xlink:title="Go to Percent of File.">
<polygon fill="white" stroke="#666666" points="1253.38,-57.75 1168.38,-57.75 1168.38,-37 1253.38,-37 1253.38,-57.75"/>
<text xml:space="preserve" text-anchor="middle" x="1210.88" y="-44.25" font-family="Helvetica,sans-Serif" font-size="10.00">go_to_percent</text>
</a>
</g>
</g>
<!-- Node22&#45;&gt;Node23 -->
<g id="edge28_Node000022_Node000023" class="edge">
<title>Node22&#45;&gt;Node23</title>
<g id="a_edge28_Node000022_Node000023"><a xlink:title=" ">
<path fill="none" stroke="#63b8ff" d="M1459.79,-129.05C1443.64,-121.73 1423.74,-113.12 1405.5,-106.38 1353.42,-87.12 1291.87,-69.16 1252.38,-58.23"/>
<polygon fill="#63b8ff" stroke="#63b8ff" points="1457.88,-132.02 1468.43,-133.01 1460.8,-125.66 1457.88,-132.02"/>
</a>
</g>
</g>
<!-- Node24 -->
<g id="Node000024" class="node">
<title>Node24</title>
<g id="a_Node000024"><a xlink:href="../../d6/d22/a00245.html#a5f74dca8730faaa3ff362fc1e01b12ce" target="_top" xlink:title="Go to Specific File Position.">
<polygon fill="white" stroke="#666666" points="1392.38,-135.75 1305.12,-135.75 1305.12,-115 1392.38,-115 1392.38,-135.75"/>
<text xml:space="preserve" text-anchor="middle" x="1348.75" y="-122.25" font-family="Helvetica,sans-Serif" font-size="10.00">go_to_position</text>
</a>
</g>
</g>
<!-- Node22&#45;&gt;Node24 -->
<g id="edge30_Node000022_Node000024" class="edge">
<title>Node22&#45;&gt;Node24</title>
<g id="a_edge30_Node000022_Node000024"><a xlink:title=" ">
<path fill="none" stroke="#63b8ff" d="M1448.47,-138.53C1430.8,-136.17 1410.47,-133.46 1392.87,-131.12"/>
<polygon fill="#63b8ff" stroke="#63b8ff" points="1447.78,-141.96 1458.15,-139.82 1448.7,-135.03 1447.78,-141.96"/>
</a>
</g>
</g>
<!-- Node27 -->
<g id="Node000027" class="node">
<title>Node27</title>
<g id="a_Node000027"><a xlink:href="../../d6/d22/a00245.html#a5dbc34981815690a92812e34d1cf478f" target="_top" xlink:title="display previous page">
<polygon fill="white" stroke="#666666" points="1382.25,-174.75 1315.25,-174.75 1315.25,-154 1382.25,-154 1382.25,-174.75"/>
<text xml:space="preserve" text-anchor="middle" x="1348.75" y="-161.25" font-family="Helvetica,sans-Serif" font-size="10.00">prev_page</text>
</a>
</g>
</g>
<!-- Node22&#45;&gt;Node27 -->
<g id="edge35_Node000022_Node000027" class="edge">
<title>Node22&#45;&gt;Node27</title>
<g id="a_edge35_Node000022_Node000027"><a xlink:title=" ">
<path fill="none" stroke="#63b8ff" d="M1448.27,-150.56C1426.97,-153.55 1401.86,-157.07 1382.32,-159.81"/>
<polygon fill="#63b8ff" stroke="#63b8ff" points="1448.74,-154.03 1458.16,-149.17 1447.77,-147.1 1448.74,-154.03"/>
</a>
</g>
</g>
<!-- Node23&#45;&gt;Node4 -->
<g id="edge29_Node000023_Node000004" class="edge">
<title>Node23&#45;&gt;Node4</title>
<g id="a_edge29_Node000023_Node000004"><a xlink:title=" ">
<path fill="none" stroke="#63b8ff" d="M1170.38,-63.89C1168.77,-64.99 1167.22,-66.15 1165.75,-67.38 1121.41,-104.28 1088.52,-167 1076.61,-191.81"/>
<polygon fill="#63b8ff" stroke="#63b8ff" points="1171.92,-67.04 1178.78,-58.97 1168.38,-61 1171.92,-67.04"/>
</a>
</g>
</g>
<!-- Node25 -->
<g id="Node000025" class="node">
<title>Node25</title>
<g id="a_Node000025"><a xlink:href="../../d6/d22/a00245.html#ac81796e830049e74987a6b526cfc296f" target="_top" xlink:title="Go to Specific Line.">
<polygon fill="white" stroke="#666666" points="1244,-135.75 1177.75,-135.75 1177.75,-115 1244,-115 1244,-135.75"/>
<text xml:space="preserve" text-anchor="middle" x="1210.88" y="-122.25" font-family="Helvetica,sans-Serif" font-size="10.00">go_to_line</text>
</a>
</g>
</g>
<!-- Node24&#45;&gt;Node25 -->
<g id="edge31_Node000024_Node000025" class="edge">
<title>Node24&#45;&gt;Node25</title>
<g id="a_edge31_Node000024_Node000025"><a xlink:title=" ">
<path fill="none" stroke="#63b8ff" d="M1293.45,-125.38C1276.78,-125.38 1258.96,-125.38 1244.25,-125.38"/>
<polygon fill="#63b8ff" stroke="#63b8ff" points="1293.24,-128.88 1303.24,-125.38 1293.24,-121.88 1293.24,-128.88"/>
</a>
</g>
</g>
<!-- Node26 -->
<g id="Node000026" class="node">
<title>Node26</title>
<g id="a_Node000026"><a xlink:href="../../d6/d22/a00245.html#ada77a15a548ce444426d43fd39a1cce4" target="_top" xlink:title="Go to Mark.">
<polygon fill="white" stroke="#666666" points="1247.75,-96.75 1174,-96.75 1174,-76 1247.75,-76 1247.75,-96.75"/>
<text xml:space="preserve" text-anchor="middle" x="1210.88" y="-83.25" font-family="Helvetica,sans-Serif" font-size="10.00">go_to_mark</text>
</a>
</g>
</g>
<!-- Node24&#45;&gt;Node26 -->
<g id="edge33_Node000024_Node000026" class="edge">
<title>Node24&#45;&gt;Node26</title>
<g id="a_edge33_Node000024_Node000026"><a xlink:title=" ">
<path fill="none" stroke="#63b8ff" d="M1299.14,-111.42C1282.32,-106.59 1263.77,-101.27 1248.12,-96.78"/>
<polygon fill="#63b8ff" stroke="#63b8ff" points="1297.87,-114.7 1308.45,-114.09 1299.8,-107.97 1297.87,-114.7"/>
</a>
</g>
</g>
<!-- Node25&#45;&gt;Node4 -->
<g id="edge32_Node000025_Node000004" class="edge">
<title>Node25&#45;&gt;Node4</title>
<g id="a_edge32_Node000025_Node000004"><a xlink:title=" ">
<path fill="none" stroke="#63b8ff" d="M1174.63,-140.89C1171.61,-142.36 1168.61,-143.87 1165.75,-145.38 1137.73,-160.15 1106.52,-179.73 1088.04,-191.67"/>
<polygon fill="#63b8ff" stroke="#63b8ff" points="1175.95,-144.14 1183.52,-136.72 1172.98,-137.8 1175.95,-144.14"/>
</a>
</g>
</g>
<!-- Node26&#45;&gt;Node4 -->
<g id="edge34_Node000026_Node000004" class="edge">
<title>Node26&#45;&gt;Node4</title>
<g id="a_edge34_Node000026_Node000004"><a xlink:title=" ">
<path fill="none" stroke="#63b8ff" d="M1171.84,-102.48C1169.73,-103.72 1167.69,-105.02 1165.75,-106.38 1129.44,-131.79 1095.25,-172.36 1080.03,-191.59"/>
<polygon fill="#63b8ff" stroke="#63b8ff" points="1173.4,-105.61 1180.61,-97.84 1170.13,-99.42 1173.4,-105.61"/>
</a>
</g>
</g>
<!-- Node27&#45;&gt;Node25 -->
<g id="edge38_Node000027_Node000025" class="edge">
<title>Node27&#45;&gt;Node25</title>
<g id="a_edge38_Node000027_Node000025"><a xlink:title=" ">
<path fill="none" stroke="#63b8ff" d="M1303.89,-151.78C1284.57,-146.24 1262.27,-139.84 1244.46,-134.73"/>
<polygon fill="#63b8ff" stroke="#63b8ff" points="1302.83,-155.12 1313.4,-154.52 1304.76,-148.39 1302.83,-155.12"/>
</a>
</g>
</g>
<!-- Node28 -->
<g id="Node000028" class="node">
<title>Node28</title>
<g id="a_Node000028"><a xlink:href="../../d6/d22/a00245.html#a46145f1d3680a48cb9391a8ae95db9ad" target="_top" xlink:title="Go to End of File.">
<polygon fill="white" stroke="#666666" points="1242.88,-174.75 1178.88,-174.75 1178.88,-154 1242.88,-154 1242.88,-174.75"/>
<text xml:space="preserve" text-anchor="middle" x="1210.88" y="-161.25" font-family="Helvetica,sans-Serif" font-size="10.00">go_to_eof</text>
</a>
</g>
</g>
<!-- Node27&#45;&gt;Node28 -->
<g id="edge36_Node000027_Node000028" class="edge">
<title>Node27&#45;&gt;Node28</title>
<g id="a_edge36_Node000027_Node000028"><a xlink:title=" ">
<path fill="none" stroke="#63b8ff" d="M1303.36,-164.38C1283.65,-164.38 1260.93,-164.38 1243.06,-164.38"/>
<polygon fill="#63b8ff" stroke="#63b8ff" points="1303.34,-167.88 1313.34,-164.38 1303.34,-160.88 1303.34,-167.88"/>
</a>
</g>
</g>
<!-- Node28&#45;&gt;Node4 -->
<g id="edge37_Node000028_Node000004" class="edge">
<title>Node28&#45;&gt;Node4</title>
<g id="a_edge37_Node000028_Node000004"><a xlink:title=" ">
<path fill="none" stroke="#63b8ff" d="M1167.49,-176.04C1149.54,-180.97 1128.74,-186.7 1111.13,-191.54"/>
<polygon fill="#63b8ff" stroke="#63b8ff" points="1168.36,-179.43 1177.07,-173.4 1166.5,-172.68 1168.36,-179.43"/>
</a>
</g>
</g>
<!-- Node29&#45;&gt;Node4 -->
<g id="edge42_Node000029_Node000004" class="edge">
<title>Node29&#45;&gt;Node4</title>
<g id="a_edge42_Node000029_Node000004"><a xlink:title=" ">
<path fill="none" stroke="#63b8ff" d="M1174.61,-376.65C1171.44,-374.43 1168.42,-372.01 1165.75,-369.38 1116.7,-321.03 1085.51,-241.68 1075.37,-213.07"/>
<polygon fill="#63b8ff" stroke="#63b8ff" points="1172.76,-379.62 1183.12,-381.85 1176.42,-373.65 1172.76,-379.62"/>
</a>
</g>
</g>
<!-- Node30&#45;&gt;Node4 -->
<g id="edge44_Node000030_Node000004" class="edge">
<title>Node30&#45;&gt;Node4</title>
<g id="a_edge44_Node000030_Node000004"><a xlink:title=" ">
<path fill="none" stroke="#63b8ff" d="M1280.23,-352.11C1244.1,-347.79 1200.11,-338.24 1165.75,-317.38 1121.89,-290.74 1089.42,-236.02 1077.13,-212.98"/>
<polygon fill="#63b8ff" stroke="#63b8ff" points="1279.84,-355.59 1290.16,-353.17 1280.59,-348.63 1279.84,-355.59"/>
</a>
</g>
</g>
<!-- Node31&#45;&gt;Node4 -->
<g id="edge46_Node000031_Node000004" class="edge">
<title>Node31&#45;&gt;Node4</title>
<g id="a_edge46_Node000031_Node000004"><a xlink:title=" ">
<path fill="none" stroke="#63b8ff" d="M1432.22,-213.35C1423.29,-214.6 1414.17,-215.68 1405.5,-216.38 1299.28,-224.88 1272.01,-224.24 1165.75,-216.38 1154.15,-215.52 1141.81,-214.07 1130.02,-212.42"/>
<polygon fill="#63b8ff" stroke="#63b8ff" points="1432.51,-216.84 1441.88,-211.9 1431.48,-209.92 1432.51,-216.84"/>
</a>
</g>
</g>
<!-- Node32&#45;&gt;Node4 -->
<g id="edge49_Node000032_Node000004" class="edge">
<title>Node32&#45;&gt;Node4</title>
<g id="a_edge49_Node000032_Node000004"><a xlink:title=" ">
<path fill="none" stroke="#63b8ff" d="M1429.54,-245.26C1363.38,-248.09 1256.44,-249.08 1165.75,-233.38 1142.05,-229.27 1116.15,-220.38 1097.56,-213.17"/>
<polygon fill="#63b8ff" stroke="#63b8ff" points="1429.66,-248.76 1439.49,-244.8 1429.34,-241.77 1429.66,-248.76"/>
</a>
</g>
</g>
</g>
</svg>

<g id="navigator" transform="translate(0 0)" fill="#404254">
  <rect fill="#f2f5e9" fill-opacity="0.5" stroke="#606060" stroke-width=".5" x="0" y="0" width="60" height="60"/>
  <use id="zoomplus" xlink:href="#zoomPlus" x="17" y="9" onmousedown="handleZoom(evt,'in')"/>
  <use id="zoomminus" xlink:href="#zoomMin" x="42" y="9" onmousedown="handleZoom(evt,'out')"/>
  <use id="reset" xlink:href="#resetDef" x="30" y="36" onmousedown="handleReset()"/>
   <use id="arrowup" xlink:href="#arrowUp" x="0" y="0" onmousedown="handlePan(0,-1)"/>
  <use id="arrowright" xlink:href="#arrowRight" x="0" y="0" onmousedown="handlePan(1,0)"/>
  <use id="arrowdown" xlink:href="#arrowDown" x="0" y="0" onmousedown="handlePan(0,1)"/>
  <use id="arrowleft" xlink:href="#arrowLeft" x="0" y="0" onmousedown="handlePan(-1,0)"/>
</g>
<svg viewBox="0 0 15 15" width="100%" height="30px" preserveAspectRatio="xMaxYMin meet">
 <g id="arrow_out" transform="scale(0.3 0.3)">
  <a xlink:href="a00245_a395b27e6a9716bf49e3fc04d53987b33_icgraph_org.svg" target="_base">
   <rect id="button" ry="5" rx="5" y="6" x="6" height="38" width="38"
        fill="#f2f5e9" fill-opacity="0.5" stroke="#606060" stroke-width="1.0"/>
   <path id="arrow"
     d="M 11.500037,31.436501 C 11.940474,20.09759 22.043105,11.32322 32.158766,21.979434 L 37.068811,17.246167 C 37.068811,17.246167 37.088388,32 37.088388,32 L 22.160133,31.978069 C 22.160133,31.978069 26.997745,27.140456 26.997745,27.140456 C 18.528582,18.264221 13.291696,25.230495 11.500037,31.436501 z"
     style="fill:#404040;"/>
  </a>
 </g>
</svg>

<style type='text/css'>
<![CDATA[
[data-mouse-over-selected='false'] { opacity: 0.7; }
[data-mouse-over-selected='true']  { opacity: 1.0; }
]]>
</style>
<script type="application/ecmascript"><![CDATA[
document.addEventListener('DOMContentLoaded', (event) => {
  highlightEdges();
  highlightAdjacentNodes();
});
]]></script>
</svg>
