<?xml version="1.0" encoding="UTF-8" standalone="no"?>
<!DOCTYPE svg PUBLIC "-//W3C//DTD SVG 1.1//EN"
 "http://www.w3.org/Graphics/SVG/1.1/DTD/svg11.dtd">
<!-- Generated by graphviz version 14.1.2 (0)
 -->
<!-- Title: parse_ansi_str Pages: 1 -->
<svg width="900pt" height="451pt"
 viewBox="0.00 0.00 900.00 451.00" xmlns="http://www.w3.org/2000/svg" xmlns:xlink="http://www.w3.org/1999/xlink">
<g id="graph0" class="graph" transform="scale(1 1) rotate(0) translate(4 446.75)">
<title>parse_ansi_str</title>
<!-- Node1 -->
<g id="Node000001" class="node">
<title>Node1</title>
<g id="a_Node000001"><a xlink:title="Parse ANSI SGR Escape Sequence.">
<polygon fill="#999999" stroke="#666666" points="86.5,-59.75 0,-59.75 0,-39 86.5,-39 86.5,-59.75"/>
<text xml:space="preserve" text-anchor="middle" x="43.25" y="-46.25" font-family="Helvetica,sans-Serif" font-size="10.00">parse_ansi_str</text>
</a>
</g>
</g>
<!-- Node2 -->
<g id="Node000002" class="node">
<title>Node2</title>
<g id="a_Node000002"><a xlink:href="../../d6/d82/a00293.html#af0ba4efbc81c259a2519ca41dd9d1599" target="_top" xlink:title="Get color pair index for foreground and background colors.">
<polygon fill="white" stroke="#666666" points="218.75,-98.75 145.75,-98.75 145.75,-78 218.75,-78 218.75,-98.75"/>
<text xml:space="preserve" text-anchor="middle" x="182.25" y="-85.25" font-family="Helvetica,sans-Serif" font-size="10.00">get_clr_pair</text>
</a>
</g>
</g>
<!-- Node1&#45;&gt;Node2 -->
<g id="edge1_Node000001_Node000002" class="edge">
<title>Node1&#45;&gt;Node2</title>
<g id="a_edge1_Node000001_Node000002"><a xlink:title=" ">
<path fill="none" stroke="#63b8ff" d="M82.41,-60.24C98.65,-64.86 117.74,-70.29 134.78,-75.15"/>
<polygon fill="#63b8ff" stroke="#63b8ff" points="133.61,-78.45 144.19,-77.82 135.53,-71.72 133.61,-78.45"/>
</a>
</g>
</g>
<!-- Node20 -->
<g id="Node000020" class="node">
<title>Node20</title>
<g id="a_Node000020"><a xlink:href="../../d6/d82/a00293.html#a4900dd34e828972e58b0ca549cf7d4d8" target="_top" xlink:title="Get color index for RGB color.">
<polygon fill="white" stroke="#666666" points="232.62,-59.75 131.88,-59.75 131.88,-39 232.62,-39 232.62,-59.75"/>
<text xml:space="preserve" text-anchor="middle" x="182.25" y="-46.25" font-family="Helvetica,sans-Serif" font-size="10.00">rgb_to_curses_clr</text>
</a>
</g>
</g>
<!-- Node1&#45;&gt;Node20 -->
<g id="edge26_Node000001_Node000020" class="edge">
<title>Node1&#45;&gt;Node20</title>
<g id="a_edge26_Node000001_Node000020"><a xlink:title=" ">
<path fill="none" stroke="#63b8ff" d="M86.85,-49.38C97.34,-49.38 108.78,-49.38 119.97,-49.38"/>
<polygon fill="#63b8ff" stroke="#63b8ff" points="119.97,-52.88 129.97,-49.38 119.97,-45.88 119.97,-52.88"/>
</a>
</g>
</g>
<!-- Node22 -->
<g id="Node000022" class="node">
<title>Node22</title>
<g id="a_Node000022"><a xlink:href="../../d6/d82/a00293.html#a31ee0d93c7b527f92559fc410152f768" target="_top" xlink:title="Convert XTerm 256 color index to RGB color.">
<polygon fill="white" stroke="#666666" points="242,-20.75 122.5,-20.75 122.5,0 242,0 242,-20.75"/>
<text xml:space="preserve" text-anchor="middle" x="182.25" y="-7.25" font-family="Helvetica,sans-Serif" font-size="10.00">xterm256_idx_to_rgb</text>
</a>
</g>
</g>
<!-- Node1&#45;&gt;Node22 -->
<g id="edge28_Node000001_Node000022" class="edge">
<title>Node1&#45;&gt;Node22</title>
<g id="a_edge28_Node000001_Node000022"><a xlink:title=" ">
<path fill="none" stroke="#63b8ff" d="M82.41,-38.51C97.85,-34.12 115.87,-28.99 132.26,-24.32"/>
<polygon fill="#63b8ff" stroke="#63b8ff" points="133.18,-27.7 141.84,-21.59 131.26,-20.97 133.18,-27.7"/>
</a>
</g>
</g>
<!-- Node3 -->
<g id="Node000003" class="node">
<title>Node3</title>
<g id="a_Node000003"><a xlink:href="../../d6/d82/a00293.html#a67659f8a701b74f4dec0d36227a10d1c" target="_top" xlink:title="Display an error message window or print to stderr.">
<polygon fill="white" stroke="#666666" points="360.75,-268.75 281,-268.75 281,-248 360.75,-248 360.75,-268.75"/>
<text xml:space="preserve" text-anchor="middle" x="320.88" y="-255.25" font-family="Helvetica,sans-Serif" font-size="10.00">display_error</text>
</a>
</g>
</g>
<!-- Node2&#45;&gt;Node3 -->
<g id="edge2_Node000002_Node000003" class="edge">
<title>Node2&#45;&gt;Node3</title>
<g id="a_edge2_Node000002_Node000003"><a xlink:title=" ">
<path fill="none" stroke="#63b8ff" d="M191.8,-99.01C214.32,-127.03 275.55,-203.22 304.42,-239.14"/>
<polygon fill="#63b8ff" stroke="#63b8ff" points="301.39,-240.96 310.38,-246.56 306.85,-236.58 301.39,-240.96"/>
</a>
</g>
</g>
<!-- Node13 -->
<g id="Node000013" class="node">
<title>Node13</title>
<g id="a_Node000013"><a xlink:href="../../d6/d7f/a00287.html#a63eb94756fb011a456a3dec900709cd8" target="_top" xlink:title="ssnprintf was designed to be a safer alternative to snprintf.">
<polygon fill="white" stroke="#666666" points="604.62,-211.75 545.88,-211.75 545.88,-191 604.62,-191 604.62,-211.75"/>
<text xml:space="preserve" text-anchor="middle" x="575.25" y="-198.25" font-family="Helvetica,sans-Serif" font-size="10.00">ssnprintf</text>
</a>
</g>
</g>
<!-- Node2&#45;&gt;Node13 -->
<g id="edge25_Node000002_Node000013" class="edge">
<title>Node2&#45;&gt;Node13</title>
<g id="a_edge25_Node000002_Node000013"><a xlink:title=" ">
<path fill="none" stroke="#63b8ff" d="M219.02,-89.87C278.19,-93.41 399.19,-105.23 493,-144.38 515.65,-153.83 538.25,-170.41 553.84,-183.26"/>
<polygon fill="#63b8ff" stroke="#63b8ff" points="551.54,-185.89 561.43,-189.7 556.07,-180.56 551.54,-185.89"/>
</a>
</g>
</g>
<!-- Node4 -->
<g id="Node000004" class="node">
<title>Node4</title>
<g id="a_Node000004"><a xlink:href="../../d6/d82/a00293.html#a8f6c45ca4a7f6a41c4c88314e697565a" target="_top" xlink:title="Abnormal program termination.">
<polygon fill="white" stroke="#666666" points="598.25,-385.75 552.25,-385.75 552.25,-365 598.25,-365 598.25,-385.75"/>
<text xml:space="preserve" text-anchor="middle" x="575.25" y="-372.25" font-family="Helvetica,sans-Serif" font-size="10.00">abend</text>
</a>
</g>
</g>
<!-- Node3&#45;&gt;Node4 -->
<g id="edge3_Node000003_Node000004" class="edge">
<title>Node3&#45;&gt;Node4</title>
<g id="a_edge3_Node000003_Node000004"><a xlink:title=" ">
<path fill="none" stroke="#63b8ff" d="M329.37,-269.11C341.88,-286.17 368.73,-319.31 399.75,-336.38 444.66,-361.09 504.24,-370.15 540.87,-373.46"/>
<polygon fill="#63b8ff" stroke="#63b8ff" points="540.16,-376.92 550.41,-374.23 540.72,-369.94 540.16,-376.92"/>
</a>
</g>
</g>
<!-- Node8 -->
<g id="Node000008" class="node">
<title>Node8</title>
<g id="a_Node000008"><a xlink:href="../../d6/d82/a00293.html#a645871e46277e31736bc36d0f3dce4bd" target="_top" xlink:title="construct the chyron string from the chyron structure">
<polygon fill="white" stroke="#666666" points="493,-327.75 399.75,-327.75 399.75,-307 493,-307 493,-327.75"/>
<text xml:space="preserve" text-anchor="middle" x="446.38" y="-314.25" font-family="Helvetica,sans-Serif" font-size="10.00">compile_chyron</text>
</a>
</g>
</g>
<!-- Node3&#45;&gt;Node8 -->
<g id="edge9_Node000003_Node000008" class="edge">
<title>Node3&#45;&gt;Node8</title>
<g id="a_edge9_Node000003_Node000008"><a xlink:title=" ">
<path fill="none" stroke="#63b8ff" d="M342.56,-269.09C358.17,-277.1 380.18,-288.19 399.75,-297.38 403.04,-298.92 406.48,-300.49 409.93,-302.05"/>
<polygon fill="#63b8ff" stroke="#63b8ff" points="408.23,-305.12 418.79,-305.99 411.07,-298.73 408.23,-305.12"/>
</a>
</g>
</g>
<!-- Node10 -->
<g id="Node000010" class="node">
<title>Node10</title>
<g id="a_Node000010"><a xlink:href="../../d6/d82/a00293.html#a3f3feb40fd703913c5c136331f627c91" target="_top" xlink:title="Destroy Chyron structure.">
<polygon fill="white" stroke="#666666" points="491.88,-249.75 400.88,-249.75 400.88,-229 491.88,-229 491.88,-249.75"/>
<text xml:space="preserve" text-anchor="middle" x="446.38" y="-236.25" font-family="Helvetica,sans-Serif" font-size="10.00">destroy_chyron</text>
</a>
</g>
</g>
<!-- Node3&#45;&gt;Node10 -->
<g id="edge11_Node000003_Node000010" class="edge">
<title>Node3&#45;&gt;Node10</title>
<g id="a_edge11_Node000003_Node000010"><a xlink:title=" ">
<path fill="none" stroke="#63b8ff" d="M360.95,-252.36C369.99,-250.97 379.79,-249.47 389.39,-247.99"/>
<polygon fill="#63b8ff" stroke="#63b8ff" points="389.68,-251.48 399.03,-246.5 388.61,-244.57 389.68,-251.48"/>
</a>
</g>
</g>
<!-- Node11 -->
<g id="Node000011" class="node">
<title>Node11</title>
<g id="a_Node000011"><a xlink:href="../../d6/d82/a00293.html#ad37d5808ff30ae6894780425d865abae" target="_top" xlink:title="Create and initialize Chyron structure.">
<polygon fill="white" stroke="#666666" points="483.62,-403.75 409.12,-403.75 409.12,-383 483.62,-383 483.62,-403.75"/>
<text xml:space="preserve" text-anchor="middle" x="446.38" y="-390.25" font-family="Helvetica,sans-Serif" font-size="10.00">new_chyron</text>
</a>
</g>
</g>
<!-- Node3&#45;&gt;Node11 -->
<g id="edge12_Node000003_Node000011" class="edge">
<title>Node3&#45;&gt;Node11</title>
<g id="a_edge12_Node000003_Node000011"><a xlink:title=" ">
<path fill="none" stroke="#63b8ff" d="M327.16,-269.11C338.14,-290.52 365.29,-339.05 399.75,-369.38 402.89,-372.14 406.41,-374.69 410.05,-377.02"/>
<polygon fill="#63b8ff" stroke="#63b8ff" points="408.13,-379.95 418.54,-381.9 411.62,-373.88 408.13,-379.95"/>
</a>
</g>
</g>
<!-- Node12 -->
<g id="Node000012" class="node">
<title>Node12</title>
<g id="a_Node000012"><a xlink:href="../../d6/d82/a00293.html#a208ce92c197fdd6d2b007987e534aa3b" target="_top" xlink:title="Set chyron key.">
<polygon fill="white" stroke="#666666" points="492.25,-288.75 400.5,-288.75 400.5,-268 492.25,-268 492.25,-288.75"/>
<text xml:space="preserve" text-anchor="middle" x="446.38" y="-275.25" font-family="Helvetica,sans-Serif" font-size="10.00">set_chyron_key</text>
</a>
</g>
</g>
<!-- Node3&#45;&gt;Node12 -->
<g id="edge14_Node000003_Node000012" class="edge">
<title>Node3&#45;&gt;Node12</title>
<g id="a_edge14_Node000003_Node000012"><a xlink:title=" ">
<path fill="none" stroke="#63b8ff" d="M360.95,-264.7C369.79,-266.14 379.36,-267.68 388.76,-269.21"/>
<polygon fill="#63b8ff" stroke="#63b8ff" points="388.16,-272.66 398.6,-270.8 389.28,-265.75 388.16,-272.66"/>
</a>
</g>
</g>
<!-- Node3&#45;&gt;Node13 -->
<g id="edge16_Node000003_Node000013" class="edge">
<title>Node3&#45;&gt;Node13</title>
<g id="a_edge16_Node000003_Node000013"><a xlink:title=" ">
<path fill="none" stroke="#63b8ff" d="M339.42,-247.62C354.75,-238.77 377.93,-226.68 399.75,-220.38 444.6,-207.42 498.25,-203.17 534.12,-201.84"/>
<polygon fill="#63b8ff" stroke="#63b8ff" points="534.16,-205.34 544.05,-201.54 533.95,-198.34 534.16,-205.34"/>
</a>
</g>
</g>
<!-- Node14 -->
<g id="Node000014" class="node">
<title>Node14</title>
<g id="a_Node000014"><a xlink:href="../../d6/d7f/a00287.html#a0de2e40df9bd7efc8fd9afb8ad2257e6" target="_top" xlink:title="safer alternative to strncpy">
<polygon fill="white" stroke="#666666" points="609.12,-117.75 541.38,-117.75 541.38,-97 609.12,-97 609.12,-117.75"/>
<text xml:space="preserve" text-anchor="middle" x="575.25" y="-104.25" font-family="Helvetica,sans-Serif" font-size="10.00">strnz__cpy</text>
</a>
</g>
</g>
<!-- Node3&#45;&gt;Node14 -->
<g id="edge17_Node000003_Node000014" class="edge">
<title>Node3&#45;&gt;Node14</title>
<g id="a_edge17_Node000003_Node000014"><a xlink:title=" ">
<path fill="none" stroke="#63b8ff" d="M325.98,-247.54C335.3,-224.54 360.32,-170.79 399.75,-144.38 438.57,-118.37 492.25,-110.17 529.79,-107.81"/>
<polygon fill="#63b8ff" stroke="#63b8ff" points="529.56,-111.33 539.37,-107.33 529.21,-104.34 529.56,-111.33"/>
</a>
</g>
</g>
<!-- Node15 -->
<g id="Node000015" class="node">
<title>Node15</title>
<g id="a_Node000015"><a xlink:href="../../d6/d82/a00293.html#a9dd598e1d49c8764af1eec42c682623e" target="_top" xlink:title="Delete the current window and its associated box window.">
<polygon fill="white" stroke="#666666" points="473.12,-173.75 419.62,-173.75 419.62,-153 473.12,-153 473.12,-173.75"/>
<text xml:space="preserve" text-anchor="middle" x="446.38" y="-160.25" font-family="Helvetica,sans-Serif" font-size="10.00">win_del</text>
</a>
</g>
</g>
<!-- Node3&#45;&gt;Node15 -->
<g id="edge18_Node000003_Node000015" class="edge">
<title>Node3&#45;&gt;Node15</title>
<g id="a_edge18_Node000003_Node000015"><a xlink:title=" ">
<path fill="none" stroke="#63b8ff" d="M331.73,-247.83C345.85,-233.1 373.09,-206.08 399.75,-187.38 403.62,-184.66 407.84,-182.04 412.1,-179.59"/>
<polygon fill="#63b8ff" stroke="#63b8ff" points="413.51,-182.81 420.63,-174.96 410.17,-176.66 413.51,-182.81"/>
</a>
</g>
</g>
<!-- Node16 -->
<g id="Node000016" class="node">
<title>Node16</title>
<g id="a_Node000016"><a xlink:href="../../d6/d82/a00293.html#a435c7bff7ffedb8f51c6de9259e36f6c" target="_top" xlink:title="Create a new window with optional box and title.">
<polygon fill="white" stroke="#666666" points="475.75,-59.75 417,-59.75 417,-39 475.75,-39 475.75,-59.75"/>
<text xml:space="preserve" text-anchor="middle" x="446.38" y="-46.25" font-family="Helvetica,sans-Serif" font-size="10.00">win_new</text>
</a>
</g>
</g>
<!-- Node3&#45;&gt;Node16 -->
<g id="edge19_Node000003_Node000016" class="edge">
<title>Node3&#45;&gt;Node16</title>
<g id="a_edge19_Node000003_Node000016"><a xlink:title=" ">
<path fill="none" stroke="#63b8ff" d="M326.84,-247.74C338.48,-223.12 368.88,-160.53 399.75,-111.38 408.97,-96.7 420.56,-80.98 429.75,-69.04"/>
<polygon fill="#63b8ff" stroke="#63b8ff" points="432.47,-71.24 435.87,-61.2 426.95,-66.93 432.47,-71.24"/>
</a>
</g>
</g>
<!-- Node18 -->
<g id="Node000018" class="node">
<title>Node18</title>
<g id="a_Node000018"><a xlink:href="../../d6/d82/a00293.html#acf4c709bccc4c965a5d61db978db31a3" target="_top" xlink:title="Wrapper for wgetch that handles signals and mouse events.">
<polygon fill="white" stroke="#666666" points="475,-442.75 417.75,-442.75 417.75,-422 475,-422 475,-442.75"/>
<text xml:space="preserve" text-anchor="middle" x="446.38" y="-429.25" font-family="Helvetica,sans-Serif" font-size="10.00">xwgetch</text>
</a>
</g>
</g>
<!-- Node3&#45;&gt;Node18 -->
<g id="edge22_Node000003_Node000018" class="edge">
<title>Node3&#45;&gt;Node18</title>
<g id="a_edge22_Node000003_Node000018"><a xlink:title=" ">
<path fill="none" stroke="#63b8ff" d="M325.94,-268.98C334.58,-295.58 357.54,-363.42 399.75,-403.38 405.81,-409.11 413.79,-413.37 421.37,-416.92"/>
<polygon fill="#63b8ff" stroke="#63b8ff" points="419.67,-419.99 430.22,-420.94 422.56,-413.62 419.67,-419.99"/>
</a>
</g>
</g>
<!-- Node5 -->
<g id="Node000005" class="node">
<title>Node5</title>
<g id="a_Node000005"><a xlink:href="../../d6/d82/a00293.html#afc0985a403e3eac0b2cd8f0fab500256" target="_top" xlink:title="Gracefully shut down NCurses and restore terminal settings.">
<polygon fill="white" stroke="#666666" points="747,-385.75 657.5,-385.75 657.5,-365 747,-365 747,-385.75"/>
<text xml:space="preserve" text-anchor="middle" x="702.25" y="-372.25" font-family="Helvetica,sans-Serif" font-size="10.00">destroy_curses</text>
</a>
</g>
</g>
<!-- Node4&#45;&gt;Node5 -->
<g id="edge4_Node000004_Node000005" class="edge">
<title>Node4&#45;&gt;Node5</title>
<g id="a_edge4_Node000004_Node000005"><a xlink:title=" ">
<path fill="none" stroke="#63b8ff" d="M598.6,-375.38C611.78,-375.38 629.09,-375.38 645.73,-375.38"/>
<polygon fill="#63b8ff" stroke="#63b8ff" points="645.57,-378.88 655.57,-375.38 645.57,-371.88 645.57,-378.88"/>
</a>
</g>
</g>
<!-- Node6 -->
<g id="Node000006" class="node">
<title>Node6</title>
<g id="a_Node000006"><a xlink:href="../../df/d95/a00299.html#ac5e3adb304b78910fc77761ef6a743f0" target="_top" xlink:title="restore_shell_tioctl() &#45; restore shell terminal settings">
<polygon fill="white" stroke="#666666" points="892,-413.75 783,-413.75 783,-393 892,-393 892,-413.75"/>
<text xml:space="preserve" text-anchor="middle" x="837.5" y="-400.25" font-family="Helvetica,sans-Serif" font-size="10.00">restore_shell_tioctl</text>
</a>
</g>
</g>
<!-- Node4&#45;&gt;Node6 -->
<g id="edge7_Node000004_Node000006" class="edge">
<title>Node4&#45;&gt;Node6</title>
<g id="a_edge7_Node000004_Node000006"><a xlink:title=" ">
<path fill="none" stroke="#63b8ff" d="M598.46,-381.71C614.68,-386.05 637.27,-391.53 657.5,-394.38 695.01,-399.66 737.32,-401.95 771.39,-402.91"/>
<polygon fill="#63b8ff" stroke="#63b8ff" points="771.01,-406.4 781.09,-403.14 771.18,-399.4 771.01,-406.4"/>
</a>
</g>
</g>
<!-- Node7 -->
<g id="Node000007" class="node">
<title>Node7</title>
<g id="a_Node000007"><a xlink:href="../../d3/d1a/a00251.html#a06c1eb6cf3649dc187115565409f91af" target="_top" xlink:title="Set signal handlers to default behavior.">
<polygon fill="white" stroke="#666666" points="878.12,-365.75 796.88,-365.75 796.88,-345 878.12,-345 878.12,-365.75"/>
<text xml:space="preserve" text-anchor="middle" x="837.5" y="-352.25" font-family="Helvetica,sans-Serif" font-size="10.00">sig_dfl_mode</text>
</a>
</g>
</g>
<!-- Node4&#45;&gt;Node7 -->
<g id="edge8_Node000004_Node000007" class="edge">
<title>Node4&#45;&gt;Node7</title>
<g id="a_edge8_Node000004_Node000007"><a xlink:title=" ">
<path fill="none" stroke="#63b8ff" d="M598.43,-368.77C614.63,-364.29 637.22,-358.77 657.5,-356.38 700.39,-351.31 749.46,-351.45 785.36,-352.63"/>
<polygon fill="#63b8ff" stroke="#63b8ff" points="784.89,-356.12 795.02,-352.99 785.15,-349.12 784.89,-356.12"/>
</a>
</g>
</g>
<!-- Node5&#45;&gt;Node6 -->
<g id="edge5_Node000005_Node000006" class="edge">
<title>Node5&#45;&gt;Node6</title>
<g id="a_edge5_Node000005_Node000006"><a xlink:title=" ">
<path fill="none" stroke="#63b8ff" d="M747.25,-384.62C755.87,-386.43 765.07,-388.37 774.16,-390.28"/>
<polygon fill="#63b8ff" stroke="#63b8ff" points="773.16,-393.64 783.67,-392.27 774.6,-386.79 773.16,-393.64"/>
</a>
</g>
</g>
<!-- Node5&#45;&gt;Node7 -->
<g id="edge6_Node000005_Node000007" class="edge">
<title>Node5&#45;&gt;Node7</title>
<g id="a_edge6_Node000005_Node000007"><a xlink:title=" ">
<path fill="none" stroke="#63b8ff" d="M747.25,-368.77C759.44,-366.94 772.77,-364.94 785.33,-363.06"/>
<polygon fill="#63b8ff" stroke="#63b8ff" points="785.73,-366.54 795.1,-361.59 784.69,-359.61 785.73,-366.54"/>
</a>
</g>
</g>
<!-- Node9 -->
<g id="Node000009" class="node">
<title>Node9</title>
<g id="a_Node000009"><a xlink:href="../../d6/d7f/a00287.html#aa0145c044cfdde3a1c83323410a59f25" target="_top" xlink:title="safer alternative to strncat">
<polygon fill="white" stroke="#666666" points="608,-327.75 542.5,-327.75 542.5,-307 608,-307 608,-327.75"/>
<text xml:space="preserve" text-anchor="middle" x="575.25" y="-314.25" font-family="Helvetica,sans-Serif" font-size="10.00">strnz__cat</text>
</a>
</g>
</g>
<!-- Node8&#45;&gt;Node9 -->
<g id="edge10_Node000008_Node000009" class="edge">
<title>Node8&#45;&gt;Node9</title>
<g id="a_edge10_Node000008_Node000009"><a xlink:title=" ">
<path fill="none" stroke="#63b8ff" d="M493.18,-317.38C505.44,-317.38 518.66,-317.38 530.8,-317.38"/>
<polygon fill="#63b8ff" stroke="#63b8ff" points="530.52,-320.88 540.52,-317.38 530.52,-313.88 530.52,-320.88"/>
</a>
</g>
</g>
<!-- Node11&#45;&gt;Node4 -->
<g id="edge13_Node000011_Node000004" class="edge">
<title>Node11&#45;&gt;Node4</title>
<g id="a_edge13_Node000011_Node000004"><a xlink:title=" ">
<path fill="none" stroke="#63b8ff" d="M484.07,-388.17C501.91,-385.64 523.2,-382.62 540.62,-380.15"/>
<polygon fill="#63b8ff" stroke="#63b8ff" points="541.06,-383.62 550.47,-378.75 540.07,-376.69 541.06,-383.62"/>
</a>
</g>
</g>
<!-- Node12&#45;&gt;Node13 -->
<g id="edge15_Node000012_Node000013" class="edge">
<title>Node12&#45;&gt;Node13</title>
<g id="a_edge15_Node000012_Node000013"><a xlink:title=" ">
<path fill="none" stroke="#63b8ff" d="M474.35,-267.61C480.59,-264.83 487.12,-261.68 493,-258.38 513.77,-246.69 535.81,-231 551.69,-219.03"/>
<polygon fill="#63b8ff" stroke="#63b8ff" points="553.69,-221.91 559.51,-213.06 549.44,-216.35 553.69,-221.91"/>
</a>
</g>
</g>
<!-- Node16&#45;&gt;Node14 -->
<g id="edge21_Node000016_Node000014" class="edge">
<title>Node16&#45;&gt;Node14</title>
<g id="a_edge21_Node000016_Node000014"><a xlink:title=" ">
<path fill="none" stroke="#63b8ff" d="M470.94,-60.15C490.53,-69.1 518.64,-81.95 540.59,-91.99"/>
<polygon fill="#63b8ff" stroke="#63b8ff" points="538.88,-95.06 549.43,-96.03 541.79,-88.69 538.88,-95.06"/>
</a>
</g>
</g>
<!-- Node17 -->
<g id="Node000017" class="node">
<title>Node17</title>
<g id="a_Node000017"><a xlink:href="../../d6/d82/a00293.html#ac9adcf7339be4a05ab1a7350c236b8a5" target="_top" xlink:title="Draw a box around the specified window.">
<polygon fill="white" stroke="#666666" points="594.88,-59.75 555.62,-59.75 555.62,-39 594.88,-39 594.88,-59.75"/>
<text xml:space="preserve" text-anchor="middle" x="575.25" y="-46.25" font-family="Helvetica,sans-Serif" font-size="10.00">cbox</text>
</a>
</g>
</g>
<!-- Node16&#45;&gt;Node17 -->
<g id="edge20_Node000016_Node000017" class="edge">
<title>Node16&#45;&gt;Node17</title>
<g id="a_edge20_Node000016_Node000017"><a xlink:title=" ">
<path fill="none" stroke="#63b8ff" d="M476.16,-49.38C496.46,-49.38 523.57,-49.38 544.15,-49.38"/>
<polygon fill="#63b8ff" stroke="#63b8ff" points="543.89,-52.88 553.89,-49.38 543.89,-45.88 543.89,-52.88"/>
</a>
</g>
</g>
<!-- Node18&#45;&gt;Node3 -->
<g id="edge23_Node000018_Node000003" class="edge">
<title>Node18&#45;&gt;Node3</title>
<g id="a_edge23_Node000018_Node000003"><a xlink:title=" ">
<path fill="none" stroke="#63b8ff" d="M417.46,-432.48C411.12,-429.87 404.78,-426.13 399.75,-421.38 357.9,-381.77 334.98,-314.75 326.16,-280.05"/>
<polygon fill="#63b8ff" stroke="#63b8ff" points="329.66,-279.63 323.97,-270.7 322.85,-281.23 329.66,-279.63"/>
</a>
</g>
</g>
<!-- Node19 -->
<g id="Node000019" class="node">
<title>Node19</title>
<g id="a_Node000019"><a xlink:href="../../d6/d82/a00293.html#a4298f891699300bfc4e6e56fd2a8d574" target="_top" xlink:title="Get keycode from chyron.">
<polygon fill="white" stroke="#666666" points="621.5,-442.75 529,-442.75 529,-422 621.5,-422 621.5,-442.75"/>
<text xml:space="preserve" text-anchor="middle" x="575.25" y="-429.25" font-family="Helvetica,sans-Serif" font-size="10.00">get_chyron_key</text>
</a>
</g>
</g>
<!-- Node18&#45;&gt;Node19 -->
<g id="edge24_Node000018_Node000019" class="edge">
<title>Node18&#45;&gt;Node19</title>
<g id="a_edge24_Node000018_Node000019"><a xlink:title=" ">
<path fill="none" stroke="#63b8ff" d="M475.22,-432.38C487.54,-432.38 502.5,-432.38 517.03,-432.38"/>
<polygon fill="#63b8ff" stroke="#63b8ff" points="517.01,-435.88 527.01,-432.38 517.01,-428.88 517.01,-435.88"/>
</a>
</g>
</g>
<!-- Node21 -->
<g id="Node000021" class="node">
<title>Node21</title>
<g id="a_Node000021"><a xlink:href="../../d6/d82/a00293.html#aa3a6b291c0820d9da545325a2dba5274" target="_top" xlink:title="Apply gamma correction to RGB color.">
<polygon fill="white" stroke="#666666" points="363.75,-59.75 278,-59.75 278,-39 363.75,-39 363.75,-59.75"/>
<text xml:space="preserve" text-anchor="middle" x="320.88" y="-46.25" font-family="Helvetica,sans-Serif" font-size="10.00">apply_gamma</text>
</a>
</g>
</g>
<!-- Node20&#45;&gt;Node21 -->
<g id="edge27_Node000020_Node000021" class="edge">
<title>Node20&#45;&gt;Node21</title>
<g id="a_edge27_Node000020_Node000021"><a xlink:title=" ">
<path fill="none" stroke="#63b8ff" d="M232.96,-49.38C243.83,-49.38 255.39,-49.38 266.4,-49.38"/>
<polygon fill="#63b8ff" stroke="#63b8ff" points="266.11,-52.88 276.11,-49.38 266.11,-45.88 266.11,-52.88"/>
</a>
</g>
</g>
</g>
</svg>
