<?xml version="1.0" encoding="UTF-8" standalone="no"?>
<!DOCTYPE svg PUBLIC "-//W3C//DTD SVG 1.1//EN"
 "http://www.w3.org/Graphics/SVG/1.1/DTD/svg11.dtd">
<!-- Generated by graphviz version 14.1.2 (0)
 -->
<!-- Title: get_cmd_char Pages: 1 -->
<!--zoomable 336 -->

<svg id="main" version="1.1" xmlns="http://www.w3.org/2000/svg" xmlns:xlink="http://www.w3.org/1999/xlink" xml:space="preserve" onload="init(evt)">

<style type="text/css"><![CDATA[
.node, .edge {opacity: 0.7;}
.node.selected, .edge.selected {opacity: 1;}
.edge:hover path { stroke: red; }
.edge:hover polygon { stroke: red; fill: red; }
]]></style>

<defs>
  <circle id="rim" cx="0" cy="0" r="7"/>
  <circle id="rim2" cx="0" cy="0" r="3.5"/>
  <g id="zoomPlus">
    <use xlink:href="#rim" fill="#404040"><set attributeName="fill" to="#808080" begin="zoomplus.mouseover" end="zoomplus.mouseout"/></use>
    <path d="M-4,0h8M0,-4v8" fill="none" stroke="white" stroke-width="1.5" pointer-events="none"/>
  </g>
  <g id="zoomMin">
    <use xlink:href="#rim" fill="#404040"><set attributeName="fill" to="#808080" begin="zoomminus.mouseover" end="zoomminus.mouseout"/></use>
    <path d="M-4,0h8" fill="none" stroke="white" stroke-width="1.5" pointer-events="none"/>
  </g>
  <g id="arrowUp" transform="translate(30 24)">
    <use xlink:href="#rim"/>
    <path pointer-events="none" fill="none" stroke="white" stroke-width="1.5" d="M0,-3.0v7 M-2.5,-0.5L0,-3.0L2.5,-0.5"/>
  </g>
  <g id="arrowRight" transform="rotate(90) translate(36 -43)">
    <use xlink:href="#rim"/>
    <path pointer-events="none" fill="none" stroke="white" stroke-width="1.5" d="M0,-3.0v7 M-2.5,-0.5L0,-3.0L2.5,-0.5"/>
  </g>
  <g id="arrowDown" transform="rotate(180) translate(-30 -48)">
    <use xlink:href="#rim"/>
    <path pointer-events="none" fill="none" stroke="white" stroke-width="1.5" d="M0,-3.0v7 M-2.5,-0.5L0,-3.0L2.5,-0.5"/>
  </g>
  <g id="arrowLeft" transform="rotate(270) translate(-36 17)">
    <use xlink:href="#rim"/>
    <path pointer-events="none" fill="none" stroke="white" stroke-width="1.5" d="M0,-3.0v7 M-2.5,-0.5L0,-3.0L2.5,-0.5"/>
  </g>
  <g id="resetDef">
    <use xlink:href="#rim2" fill="#404040"><set attributeName="fill" to="#808080" begin="reset.mouseover" end="reset.mouseout"/></use>
  </g>
</defs>
<script type="application/ecmascript">
var viewWidth = 818;
var viewHeight = 336;
var sectionId = 'dynsection-11';
</script>
<script type="application/ecmascript" xlink:href="../../svg.min.js"/>
<svg id="graph" class="graph">
<g id="viewport">
<title>get_cmd_char</title>
<!-- Node1 -->
<g id="Node000001" class="node">
<title>Node1</title>
<g id="a_Node000001"><a xlink:title="Get Command Character and Numeric Argument.">
<polygon fill="#999999" stroke="#666666" points="84.25,-173.75 0,-173.75 0,-153 84.25,-153 84.25,-173.75"/>
<text xml:space="preserve" text-anchor="middle" x="42.12" y="-160.25" font-family="Helvetica,sans-Serif" font-size="10.00">get_cmd_char</text>
</a>
</g>
</g>
<!-- Node2 -->
<g id="Node000002" class="node">
<title>Node2</title>
<g id="a_Node000002"><a xlink:href="../../d6/d82/a00293.html#acf4c709bccc4c965a5d61db978db31a3" target="_top" xlink:title="Wrapper for wgetch that handles signals and mouse events.">
<polygon fill="white" stroke="#666666" points="177.5,-173.75 120.25,-173.75 120.25,-153 177.5,-153 177.5,-173.75"/>
<text xml:space="preserve" text-anchor="middle" x="148.88" y="-160.25" font-family="Helvetica,sans-Serif" font-size="10.00">xwgetch</text>
</a>
</g>
</g>
<!-- Node1&#45;&gt;Node2 -->
<g id="edge1_Node000001_Node000002" class="edge">
<title>Node1&#45;&gt;Node2</title>
<g id="a_edge1_Node000001_Node000002"><a xlink:title=" ">
<path fill="none" stroke="#63b8ff" d="M84.52,-163.38C92.42,-163.38 100.67,-163.38 108.5,-163.38"/>
<polygon fill="#63b8ff" stroke="#63b8ff" points="108.46,-166.88 118.46,-163.38 108.46,-159.88 108.46,-166.88"/>
</a>
</g>
</g>
<!-- Node3 -->
<g id="Node000003" class="node">
<title>Node3</title>
<g id="a_Node000003"><a xlink:href="../../d6/d82/a00293.html#a67659f8a701b74f4dec0d36227a10d1c" target="_top" xlink:title="Display an error message window or print to stderr.">
<polygon fill="white" stroke="#666666" points="299.62,-173.75 219.88,-173.75 219.88,-153 299.62,-153 299.62,-173.75"/>
<text xml:space="preserve" text-anchor="middle" x="259.75" y="-160.25" font-family="Helvetica,sans-Serif" font-size="10.00">display_error</text>
</a>
</g>
</g>
<!-- Node2&#45;&gt;Node3 -->
<g id="edge2_Node000002_Node000003" class="edge">
<title>Node2&#45;&gt;Node3</title>
<g id="a_edge2_Node000002_Node000003"><a xlink:title=" ">
<path fill="none" stroke="#63b8ff" d="M177.91,-157.39C187.26,-156.8 197.98,-156.55 208.48,-156.64"/>
<polygon fill="#63b8ff" stroke="#63b8ff" points="208.15,-160.14 218.22,-156.84 208.29,-153.14 208.15,-160.14"/>
</a>
</g>
</g>
<!-- Node18 -->
<g id="Node000018" class="node">
<title>Node18</title>
<g id="a_Node000018"><a xlink:href="../../d6/d82/a00293.html#a4298f891699300bfc4e6e56fd2a8d574" target="_top" xlink:title="Get keycode from chyron.">
<polygon fill="white" stroke="#666666" points="306,-134.75 213.5,-134.75 213.5,-114 306,-114 306,-134.75"/>
<text xml:space="preserve" text-anchor="middle" x="259.75" y="-121.25" font-family="Helvetica,sans-Serif" font-size="10.00">get_chyron_key</text>
</a>
</g>
</g>
<!-- Node2&#45;&gt;Node18 -->
<g id="edge23_Node000002_Node000018" class="edge">
<title>Node2&#45;&gt;Node18</title>
<g id="a_edge23_Node000002_Node000018"><a xlink:title=" ">
<path fill="none" stroke="#63b8ff" d="M177.91,-153.33C190.02,-148.99 204.43,-143.83 217.71,-139.08"/>
<polygon fill="#63b8ff" stroke="#63b8ff" points="218.86,-142.38 227.09,-135.72 216.5,-135.79 218.86,-142.38"/>
</a>
</g>
</g>
<!-- Node3&#45;&gt;Node2 -->
<g id="edge22_Node000003_Node000002" class="edge">
<title>Node3&#45;&gt;Node2</title>
<g id="a_edge22_Node000003_Node000002"><a xlink:title=" ">
<path fill="none" stroke="#63b8ff" d="M219.73,-169.88C209.79,-170.2 199.11,-170.21 189.17,-169.89"/>
<polygon fill="#63b8ff" stroke="#63b8ff" points="189.58,-166.4 179.42,-169.43 189.25,-173.4 189.58,-166.4"/>
</a>
</g>
</g>
<!-- Node4 -->
<g id="Node000004" class="node">
<title>Node4</title>
<g id="a_Node000004"><a xlink:href="../../d6/d82/a00293.html#a8f6c45ca4a7f6a41c4c88314e697565a" target="_top" xlink:title="Abnormal program termination.">
<polygon fill="white" stroke="#666666" points="528.12,-250.75 482.12,-250.75 482.12,-230 528.12,-230 528.12,-250.75"/>
<text xml:space="preserve" text-anchor="middle" x="505.12" y="-237.25" font-family="Helvetica,sans-Serif" font-size="10.00">abend</text>
</a>
</g>
</g>
<!-- Node3&#45;&gt;Node4 -->
<g id="edge3_Node000003_Node000004" class="edge">
<title>Node3&#45;&gt;Node4</title>
<g id="a_edge3_Node000003_Node000004"><a xlink:title=" ">
<path fill="none" stroke="#63b8ff" d="M265.78,-174.19C276.36,-195.46 303.18,-242.25 342,-260.38 383.44,-279.72 437.01,-266.76 470.98,-254.51"/>
<polygon fill="#63b8ff" stroke="#63b8ff" points="472.18,-257.8 480.29,-250.97 469.7,-251.25 472.18,-257.8"/>
</a>
</g>
</g>
<!-- Node8 -->
<g id="Node000008" class="node">
<title>Node8</title>
<g id="a_Node000008"><a xlink:href="../../d6/d82/a00293.html#a645871e46277e31736bc36d0f3dce4bd" target="_top" xlink:title="construct the chyron string from the chyron structure">
<polygon fill="white" stroke="#666666" points="435.25,-327.75 342,-327.75 342,-307 435.25,-307 435.25,-327.75"/>
<text xml:space="preserve" text-anchor="middle" x="388.62" y="-314.25" font-family="Helvetica,sans-Serif" font-size="10.00">compile_chyron</text>
</a>
</g>
</g>
<!-- Node3&#45;&gt;Node8 -->
<g id="edge9_Node000003_Node000008" class="edge">
<title>Node3&#45;&gt;Node8</title>
<g id="a_edge9_Node000003_Node000008"><a xlink:title=" ">
<path fill="none" stroke="#63b8ff" d="M265.11,-174.12C275.34,-198.19 302.99,-257.16 342,-293.38 344.91,-296.08 348.18,-298.56 351.6,-300.82"/>
<polygon fill="#63b8ff" stroke="#63b8ff" points="349.75,-303.8 360.15,-305.84 353.29,-297.76 349.75,-303.8"/>
</a>
</g>
</g>
<!-- Node10 -->
<g id="Node000010" class="node">
<title>Node10</title>
<g id="a_Node000010"><a xlink:href="../../d6/d82/a00293.html#a3f3feb40fd703913c5c136331f627c91" target="_top" xlink:title="Destroy Chyron structure.">
<polygon fill="white" stroke="#666666" points="434.12,-251.75 343.12,-251.75 343.12,-231 434.12,-231 434.12,-251.75"/>
<text xml:space="preserve" text-anchor="middle" x="388.62" y="-238.25" font-family="Helvetica,sans-Serif" font-size="10.00">destroy_chyron</text>
</a>
</g>
</g>
<!-- Node3&#45;&gt;Node10 -->
<g id="edge11_Node000003_Node000010" class="edge">
<title>Node3&#45;&gt;Node10</title>
<g id="a_edge11_Node000003_Node000010"><a xlink:title=" ">
<path fill="none" stroke="#63b8ff" d="M273.98,-174.13C289.6,-186.51 316.68,-207 342,-221.38 344.66,-222.88 347.45,-224.36 350.29,-225.78"/>
<polygon fill="#63b8ff" stroke="#63b8ff" points="348.73,-228.91 359.26,-230 351.71,-222.58 348.73,-228.91"/>
</a>
</g>
</g>
<!-- Node11 -->
<g id="Node000011" class="node">
<title>Node11</title>
<g id="a_Node000011"><a xlink:href="../../d6/d82/a00293.html#ad37d5808ff30ae6894780425d865abae" target="_top" xlink:title="Create and initialize Chyron structure.">
<polygon fill="white" stroke="#666666" points="425.88,-212.75 351.38,-212.75 351.38,-192 425.88,-192 425.88,-212.75"/>
<text xml:space="preserve" text-anchor="middle" x="388.62" y="-199.25" font-family="Helvetica,sans-Serif" font-size="10.00">new_chyron</text>
</a>
</g>
</g>
<!-- Node3&#45;&gt;Node11 -->
<g id="edge12_Node000003_Node000011" class="edge">
<title>Node3&#45;&gt;Node11</title>
<g id="a_edge12_Node000003_Node000011"><a xlink:title=" ">
<path fill="none" stroke="#63b8ff" d="M296.09,-174.24C310.25,-178.59 326.75,-183.66 341.81,-188.29"/>
<polygon fill="#63b8ff" stroke="#63b8ff" points="340.44,-191.53 351.03,-191.12 342.5,-184.84 340.44,-191.53"/>
</a>
</g>
</g>
<!-- Node12 -->
<g id="Node000012" class="node">
<title>Node12</title>
<g id="a_Node000012"><a xlink:href="../../d6/d82/a00293.html#a208ce92c197fdd6d2b007987e534aa3b" target="_top" xlink:title="Set chyron key.">
<polygon fill="white" stroke="#666666" points="434.5,-173.75 342.75,-173.75 342.75,-153 434.5,-153 434.5,-173.75"/>
<text xml:space="preserve" text-anchor="middle" x="388.62" y="-160.25" font-family="Helvetica,sans-Serif" font-size="10.00">set_chyron_key</text>
</a>
</g>
</g>
<!-- Node3&#45;&gt;Node12 -->
<g id="edge14_Node000003_Node000012" class="edge">
<title>Node3&#45;&gt;Node12</title>
<g id="a_edge14_Node000003_Node000012"><a xlink:title=" ">
<path fill="none" stroke="#63b8ff" d="M299.85,-163.38C309.8,-163.38 320.68,-163.38 331.3,-163.38"/>
<polygon fill="#63b8ff" stroke="#63b8ff" points="331.14,-166.88 341.14,-163.38 331.14,-159.88 331.14,-166.88"/>
</a>
</g>
</g>
<!-- Node13 -->
<g id="Node000013" class="node">
<title>Node13</title>
<g id="a_Node000013"><a xlink:href="../../d6/d7f/a00287.html#a63eb94756fb011a456a3dec900709cd8" target="_top" xlink:title="ssnprintf was designed to be a safer alternative to snprintf.">
<polygon fill="white" stroke="#666666" points="534.5,-144.75 475.75,-144.75 475.75,-124 534.5,-124 534.5,-144.75"/>
<text xml:space="preserve" text-anchor="middle" x="505.12" y="-131.25" font-family="Helvetica,sans-Serif" font-size="10.00">ssnprintf</text>
</a>
</g>
</g>
<!-- Node3&#45;&gt;Node13 -->
<g id="edge16_Node000003_Node000013" class="edge">
<title>Node3&#45;&gt;Node13</title>
<g id="a_edge16_Node000003_Node000013"><a xlink:title=" ">
<path fill="none" stroke="#63b8ff" d="M299.76,-152.85C313.06,-149.64 328.1,-146.41 342,-144.38 383.25,-138.32 430.93,-135.93 463.85,-134.98"/>
<polygon fill="#63b8ff" stroke="#63b8ff" points="463.85,-138.48 473.76,-134.73 463.68,-131.48 463.85,-138.48"/>
</a>
</g>
</g>
<!-- Node14 -->
<g id="Node000014" class="node">
<title>Node14</title>
<g id="a_Node000014"><a xlink:href="../../d6/d7f/a00287.html#a0de2e40df9bd7efc8fd9afb8ad2257e6" target="_top" xlink:title="safer alternative to strncpy">
<polygon fill="white" stroke="#666666" points="539,-87.75 471.25,-87.75 471.25,-67 539,-67 539,-87.75"/>
<text xml:space="preserve" text-anchor="middle" x="505.12" y="-74.25" font-family="Helvetica,sans-Serif" font-size="10.00">strnz__cpy</text>
</a>
</g>
</g>
<!-- Node3&#45;&gt;Node14 -->
<g id="edge17_Node000003_Node000014" class="edge">
<title>Node3&#45;&gt;Node14</title>
<g id="a_edge17_Node000003_Node000014"><a xlink:title=" ">
<path fill="none" stroke="#63b8ff" d="M288.11,-152.64C303.82,-146.55 323.96,-138.87 342,-132.38 381.95,-117.98 427.79,-102.53 460.52,-91.68"/>
<polygon fill="#63b8ff" stroke="#63b8ff" points="461.25,-95.12 469.65,-88.66 459.05,-88.47 461.25,-95.12"/>
</a>
</g>
</g>
<!-- Node15 -->
<g id="Node000015" class="node">
<title>Node15</title>
<g id="a_Node000015"><a xlink:href="../../d6/d82/a00293.html#a9dd598e1d49c8764af1eec42c682623e" target="_top" xlink:title="Delete the current window and its associated box window.">
<polygon fill="white" stroke="#666666" points="415.38,-59.75 361.88,-59.75 361.88,-39 415.38,-39 415.38,-59.75"/>
<text xml:space="preserve" text-anchor="middle" x="388.62" y="-46.25" font-family="Helvetica,sans-Serif" font-size="10.00">win_del</text>
</a>
</g>
</g>
<!-- Node3&#45;&gt;Node15 -->
<g id="edge18_Node000003_Node000015" class="edge">
<title>Node3&#45;&gt;Node15</title>
<g id="a_edge18_Node000003_Node000015"><a xlink:title=" ">
<path fill="none" stroke="#63b8ff" d="M292.65,-152.62C297.47,-150.08 302.13,-147.03 306,-143.38 331.45,-119.38 317.38,-98.23 342,-73.38 344.94,-70.4 348.34,-67.72 351.91,-65.31"/>
<polygon fill="#63b8ff" stroke="#63b8ff" points="353.48,-68.45 360.32,-60.36 349.93,-62.41 353.48,-68.45"/>
</a>
</g>
</g>
<!-- Node16 -->
<g id="Node000016" class="node">
<title>Node16</title>
<g id="a_Node000016"><a xlink:href="../../d6/d82/a00293.html#a435c7bff7ffedb8f51c6de9259e36f6c" target="_top" xlink:title="Create a new window with optional box and title.">
<polygon fill="white" stroke="#666666" points="418,-20.75 359.25,-20.75 359.25,0 418,0 418,-20.75"/>
<text xml:space="preserve" text-anchor="middle" x="388.62" y="-7.25" font-family="Helvetica,sans-Serif" font-size="10.00">win_new</text>
</a>
</g>
</g>
<!-- Node3&#45;&gt;Node16 -->
<g id="edge19_Node000003_Node000016" class="edge">
<title>Node3&#45;&gt;Node16</title>
<g id="a_edge19_Node000003_Node000016"><a xlink:title=" ">
<path fill="none" stroke="#63b8ff" d="M294.11,-152.64C298.53,-150.14 302.67,-147.08 306,-143.38 341.21,-104.15 306.73,-69.55 342,-30.38 344.17,-27.96 346.68,-25.83 349.39,-23.95"/>
<polygon fill="#63b8ff" stroke="#63b8ff" points="350.84,-27.15 357.83,-19.19 347.4,-21.05 350.84,-27.15"/>
</a>
</g>
</g>
<!-- Node5 -->
<g id="Node000005" class="node">
<title>Node5</title>
<g id="a_Node000005"><a xlink:href="../../d6/d82/a00293.html#afc0985a403e3eac0b2cd8f0fab500256" target="_top" xlink:title="Gracefully shut down NCurses and restore terminal settings.">
<polygon fill="white" stroke="#666666" points="664.5,-250.75 575,-250.75 575,-230 664.5,-230 664.5,-250.75"/>
<text xml:space="preserve" text-anchor="middle" x="619.75" y="-237.25" font-family="Helvetica,sans-Serif" font-size="10.00">destroy_curses</text>
</a>
</g>
</g>
<!-- Node4&#45;&gt;Node5 -->
<g id="edge4_Node000004_Node000005" class="edge">
<title>Node4&#45;&gt;Node5</title>
<g id="a_edge4_Node000004_Node000005"><a xlink:title=" ">
<path fill="none" stroke="#63b8ff" d="M528.38,-240.38C538.49,-240.38 550.94,-240.38 563.34,-240.38"/>
<polygon fill="#63b8ff" stroke="#63b8ff" points="563.13,-243.88 573.13,-240.38 563.13,-236.88 563.13,-243.88"/>
</a>
</g>
</g>
<!-- Node6 -->
<g id="Node000006" class="node">
<title>Node6</title>
<g id="a_Node000006"><a xlink:href="../../df/d95/a00299.html#ac5e3adb304b78910fc77761ef6a743f0" target="_top" xlink:title="restore_shell_tioctl() &#45; restore shell terminal settings">
<polygon fill="white" stroke="#666666" points="809.5,-278.75 700.5,-278.75 700.5,-258 809.5,-258 809.5,-278.75"/>
<text xml:space="preserve" text-anchor="middle" x="755" y="-265.25" font-family="Helvetica,sans-Serif" font-size="10.00">restore_shell_tioctl</text>
</a>
</g>
</g>
<!-- Node4&#45;&gt;Node6 -->
<g id="edge7_Node000004_Node000006" class="edge">
<title>Node4&#45;&gt;Node6</title>
<g id="a_edge7_Node000004_Node000006"><a xlink:title=" ">
<path fill="none" stroke="#63b8ff" d="M528.5,-247.88C541.84,-252.03 559.2,-256.83 575,-259.38 612.4,-265.4 654.71,-267.73 688.8,-268.52"/>
<polygon fill="#63b8ff" stroke="#63b8ff" points="688.45,-272.01 698.51,-268.7 688.58,-265.01 688.45,-272.01"/>
</a>
</g>
</g>
<!-- Node7 -->
<g id="Node000007" class="node">
<title>Node7</title>
<g id="a_Node000007"><a xlink:href="../../d3/d1a/a00251.html#a06c1eb6cf3649dc187115565409f91af" target="_top" xlink:title="Set signal handlers to default behavior.">
<polygon fill="white" stroke="#666666" points="795.62,-230.75 714.38,-230.75 714.38,-210 795.62,-210 795.62,-230.75"/>
<text xml:space="preserve" text-anchor="middle" x="755" y="-217.25" font-family="Helvetica,sans-Serif" font-size="10.00">sig_dfl_mode</text>
</a>
</g>
</g>
<!-- Node4&#45;&gt;Node7 -->
<g id="edge8_Node000004_Node000007" class="edge">
<title>Node4&#45;&gt;Node7</title>
<g id="a_edge8_Node000004_Node000007"><a xlink:title=" ">
<path fill="none" stroke="#63b8ff" d="M528.46,-232.6C541.78,-228.37 559.15,-223.57 575,-221.38 617.78,-215.46 666.86,-215.67 702.79,-217.1"/>
<polygon fill="#63b8ff" stroke="#63b8ff" points="702.31,-220.58 712.46,-217.54 702.63,-213.59 702.31,-220.58"/>
</a>
</g>
</g>
<!-- Node5&#45;&gt;Node6 -->
<g id="edge5_Node000005_Node000006" class="edge">
<title>Node5&#45;&gt;Node6</title>
<g id="a_edge5_Node000005_Node000006"><a xlink:title=" ">
<path fill="none" stroke="#63b8ff" d="M664.75,-249.62C673.37,-251.43 682.57,-253.37 691.66,-255.28"/>
<polygon fill="#63b8ff" stroke="#63b8ff" points="690.66,-258.64 701.17,-257.27 692.1,-251.79 690.66,-258.64"/>
</a>
</g>
</g>
<!-- Node5&#45;&gt;Node7 -->
<g id="edge6_Node000005_Node000007" class="edge">
<title>Node5&#45;&gt;Node7</title>
<g id="a_edge6_Node000005_Node000007"><a xlink:title=" ">
<path fill="none" stroke="#63b8ff" d="M664.75,-233.77C676.94,-231.94 690.27,-229.94 702.83,-228.06"/>
<polygon fill="#63b8ff" stroke="#63b8ff" points="703.23,-231.54 712.6,-226.59 702.19,-224.61 703.23,-231.54"/>
</a>
</g>
</g>
<!-- Node9 -->
<g id="Node000009" class="node">
<title>Node9</title>
<g id="a_Node000009"><a xlink:href="../../d6/d7f/a00287.html#aa0145c044cfdde3a1c83323410a59f25" target="_top" xlink:title="safer alternative to strncat">
<polygon fill="white" stroke="#666666" points="537.88,-327.75 472.38,-327.75 472.38,-307 537.88,-307 537.88,-327.75"/>
<text xml:space="preserve" text-anchor="middle" x="505.12" y="-314.25" font-family="Helvetica,sans-Serif" font-size="10.00">strnz__cat</text>
</a>
</g>
</g>
<!-- Node8&#45;&gt;Node9 -->
<g id="edge10_Node000008_Node000009" class="edge">
<title>Node8&#45;&gt;Node9</title>
<g id="a_edge10_Node000008_Node000009"><a xlink:title=" ">
<path fill="none" stroke="#63b8ff" d="M435.54,-317.38C443.83,-317.38 452.44,-317.38 460.66,-317.38"/>
<polygon fill="#63b8ff" stroke="#63b8ff" points="460.42,-320.88 470.42,-317.38 460.42,-313.88 460.42,-320.88"/>
</a>
</g>
</g>
<!-- Node11&#45;&gt;Node4 -->
<g id="edge13_Node000011_Node000004" class="edge">
<title>Node11&#45;&gt;Node4</title>
<g id="a_edge13_Node000011_Node000004"><a xlink:title=" ">
<path fill="none" stroke="#63b8ff" d="M422.13,-213.16C437.45,-218.25 455.7,-224.3 471.09,-229.41"/>
<polygon fill="#63b8ff" stroke="#63b8ff" points="469.68,-232.63 480.27,-232.46 471.88,-225.99 469.68,-232.63"/>
</a>
</g>
</g>
<!-- Node12&#45;&gt;Node13 -->
<g id="edge15_Node000012_Node000013" class="edge">
<title>Node12&#45;&gt;Node13</title>
<g id="a_edge15_Node000012_Node000013"><a xlink:title=" ">
<path fill="none" stroke="#63b8ff" d="M432.26,-152.58C442.81,-149.9 454.08,-147.05 464.48,-144.42"/>
<polygon fill="#63b8ff" stroke="#63b8ff" points="465.05,-147.88 473.89,-142.03 463.34,-141.1 465.05,-147.88"/>
</a>
</g>
</g>
<!-- Node16&#45;&gt;Node14 -->
<g id="edge21_Node000016_Node000014" class="edge">
<title>Node16&#45;&gt;Node14</title>
<g id="a_edge21_Node000016_Node000014"><a xlink:title=" ">
<path fill="none" stroke="#63b8ff" d="M416.57,-21.19C422.81,-23.97 429.35,-27.11 435.25,-30.38 451.09,-39.15 467.9,-50.58 480.95,-59.96"/>
<polygon fill="#63b8ff" stroke="#63b8ff" points="478.75,-62.69 488.89,-65.77 482.88,-57.04 478.75,-62.69"/>
</a>
</g>
</g>
<!-- Node17 -->
<g id="Node000017" class="node">
<title>Node17</title>
<g id="a_Node000017"><a xlink:href="../../d6/d82/a00293.html#ac9adcf7339be4a05ab1a7350c236b8a5" target="_top" xlink:title="Draw a box around the specified window.">
<polygon fill="white" stroke="#666666" points="524.75,-20.75 485.5,-20.75 485.5,0 524.75,0 524.75,-20.75"/>
<text xml:space="preserve" text-anchor="middle" x="505.12" y="-7.25" font-family="Helvetica,sans-Serif" font-size="10.00">cbox</text>
</a>
</g>
</g>
<!-- Node16&#45;&gt;Node17 -->
<g id="edge20_Node000016_Node000017" class="edge">
<title>Node16&#45;&gt;Node17</title>
<g id="a_edge20_Node000016_Node000017"><a xlink:title=" ">
<path fill="none" stroke="#63b8ff" d="M418.22,-10.38C435.15,-10.38 456.57,-10.38 473.79,-10.38"/>
<polygon fill="#63b8ff" stroke="#63b8ff" points="473.69,-13.88 483.69,-10.38 473.69,-6.88 473.69,-13.88"/>
</a>
</g>
</g>
</g>
</svg>

<g id="navigator" transform="translate(0 0)" fill="#404254">
  <rect fill="#f2f5e9" fill-opacity="0.5" stroke="#606060" stroke-width=".5" x="0" y="0" width="60" height="60"/>
  <use id="zoomplus" xlink:href="#zoomPlus" x="17" y="9" onmousedown="handleZoom(evt,'in')"/>
  <use id="zoomminus" xlink:href="#zoomMin" x="42" y="9" onmousedown="handleZoom(evt,'out')"/>
  <use id="reset" xlink:href="#resetDef" x="30" y="36" onmousedown="handleReset()"/>
   <use id="arrowup" xlink:href="#arrowUp" x="0" y="0" onmousedown="handlePan(0,-1)"/>
  <use id="arrowright" xlink:href="#arrowRight" x="0" y="0" onmousedown="handlePan(1,0)"/>
  <use id="arrowdown" xlink:href="#arrowDown" x="0" y="0" onmousedown="handlePan(0,1)"/>
  <use id="arrowleft" xlink:href="#arrowLeft" x="0" y="0" onmousedown="handlePan(-1,0)"/>
</g>
<svg viewBox="0 0 15 15" width="100%" height="30px" preserveAspectRatio="xMaxYMin meet">
 <g id="arrow_out" transform="scale(0.3 0.3)">
  <a xlink:href="a00245_ab3d3c80c5b7bb6dc461a8e5746be7690_cgraph_org.svg" target="_base">
   <rect id="button" ry="5" rx="5" y="6" x="6" height="38" width="38"
        fill="#f2f5e9" fill-opacity="0.5" stroke="#606060" stroke-width="1.0"/>
   <path id="arrow"
     d="M 11.500037,31.436501 C 11.940474,20.09759 22.043105,11.32322 32.158766,21.979434 L 37.068811,17.246167 C 37.068811,17.246167 37.088388,32 37.088388,32 L 22.160133,31.978069 C 22.160133,31.978069 26.997745,27.140456 26.997745,27.140456 C 18.528582,18.264221 13.291696,25.230495 11.500037,31.436501 z"
     style="fill:#404040;"/>
  </a>
 </g>
</svg>

<style type='text/css'>
<![CDATA[
[data-mouse-over-selected='false'] { opacity: 0.7; }
[data-mouse-over-selected='true']  { opacity: 1.0; }
]]>
</style>
<script type="application/ecmascript"><![CDATA[
document.addEventListener('DOMContentLoaded', (event) => {
  highlightEdges();
  highlightAdjacentNodes();
});
]]></script>
</svg>
