<?xml version="1.0" encoding="UTF-8" standalone="no"?>
<!DOCTYPE svg PUBLIC "-//W3C//DTD SVG 1.1//EN"
 "http://www.w3.org/Graphics/SVG/1.1/DTD/svg11.dtd">
<!-- Generated by graphviz version 14.1.2 (0)
 -->
<!-- Title: Field Pages: 1 -->
<svg width="119pt" height="155pt"
 viewBox="0.00 0.00 119.00 155.00" xmlns="http://www.w3.org/2000/svg" xmlns:xlink="http://www.w3.org/1999/xlink">
<g id="graph0" class="graph" transform="scale(1 1) rotate(0) translate(4 150.5)">
<title>Field</title>
<!-- Node1 -->
<g id="Node000001" class="node">
<title>Node1</title>
<g id="a_Node000001"><a xlink:title="structure for form fields">
<polygon fill="#999999" stroke="#666666" points="58.65,-20.75 20.15,-20.75 20.15,0 58.65,0 58.65,-20.75"/>
<text xml:space="preserve" text-anchor="middle" x="39.4" y="-7.25" font-family="Helvetica,sans-Serif" font-size="10.00">Field</text>
</a>
</g>
</g>
<!-- Node2 -->
<g id="Node000002" class="node">
<title>Node2</title>
<g id="a_Node000002"><a xlink:title=" ">
<polygon fill="white" stroke="#666666" points="28.8,-146.5 0,-146.5 0,-125.75 28.8,-125.75 28.8,-146.5"/>
<text xml:space="preserve" text-anchor="middle" x="14.4" y="-133" font-family="Helvetica,sans-Serif" font-size="10.00">int</text>
</a>
</g>
</g>
<!-- Node2&#45;&gt;Node1 -->
<g id="edge1_Node000001_Node000002" class="edge">
<title>Node2&#45;&gt;Node1</title>
<g id="a_edge1_Node000001_Node000002"><a xlink:title=" ">
<path fill="none" stroke="#9a32cd" stroke-dasharray="5,2" d="M12.11,-114.03C10.71,-94.04 10.61,-63.49 19.4,-38.75 21.69,-32.32 26.01,-26.09 30.05,-21.21"/>
<polygon fill="#9a32cd" stroke="#9a32cd" points="8.62,-114.32 13,-123.97 15.59,-113.69 8.62,-114.32"/>
</a>
</g>
<text xml:space="preserve" text-anchor="start" x="22.4" y="-95.25" font-family="Helvetica,sans-Serif" font-size="10.00" fill="grey">col</text>
<text xml:space="preserve" text-anchor="start" x="22.4" y="-78.5" font-family="Helvetica,sans-Serif" font-size="10.00" fill="grey">ff</text>
<text xml:space="preserve" text-anchor="start" x="22.4" y="-61.75" font-family="Helvetica,sans-Serif" font-size="10.00" fill="grey">len</text>
<text xml:space="preserve" text-anchor="start" x="22.4" y="-45" font-family="Helvetica,sans-Serif" font-size="10.00" fill="grey">line</text>
</g>
<!-- Node3 -->
<g id="Node000003" class="node">
<title>Node3</title>
<g id="a_Node000003"><a xlink:title=" ">
<polygon fill="white" stroke="#666666" points="83.9,-146.5 46.9,-146.5 46.9,-125.75 83.9,-125.75 83.9,-146.5"/>
<text xml:space="preserve" text-anchor="middle" x="65.4" y="-133" font-family="Helvetica,sans-Serif" font-size="10.00">char</text>
</a>
</g>
</g>
<!-- Node3&#45;&gt;Node1 -->
<g id="edge2_Node000001_Node000003" class="edge">
<title>Node3&#45;&gt;Node1</title>
<g id="a_edge2_Node000001_Node000003"><a xlink:title=" ">
<path fill="none" stroke="#9a32cd" stroke-dasharray="5,2" d="M61.07,-114.51C55.38,-87.45 45.64,-41.06 41.43,-21.04"/>
<polygon fill="#9a32cd" stroke="#9a32cd" points="57.57,-114.87 63.05,-123.93 64.42,-113.43 57.57,-114.87"/>
</a>
</g>
<text xml:space="preserve" text-anchor="start" x="62.12" y="-95.25" font-family="Helvetica,sans-Serif" font-size="10.00" fill="grey">accept_s</text>
<text xml:space="preserve" text-anchor="start" x="62.12" y="-78.5" font-family="Helvetica,sans-Serif" font-size="10.00" fill="grey">display_s</text>
<text xml:space="preserve" text-anchor="start" x="62.12" y="-61.75" font-family="Helvetica,sans-Serif" font-size="10.00" fill="grey">filler_s</text>
<text xml:space="preserve" text-anchor="start" x="62.12" y="-45" font-family="Helvetica,sans-Serif" font-size="10.00" fill="grey">input_s</text>
</g>
</g>
</svg>
