<?xml version="1.0" encoding="UTF-8" standalone="no"?>
<!DOCTYPE svg PUBLIC "-//W3C//DTD SVG 1.1//EN"
 "http://www.w3.org/Graphics/SVG/1.1/DTD/svg11.dtd">
<!-- Generated by graphviz version 14.1.2 (0)
 -->
<!-- Title: mem.c Pages: 1 -->
<svg width="357pt" height="86pt"
 viewBox="0.00 0.00 357.00 86.00" xmlns="http://www.w3.org/2000/svg" xmlns:xlink="http://www.w3.org/1999/xlink">
<g id="graph0" class="graph" transform="scale(1 1) rotate(0) translate(4 81.5)">
<title>mem.c</title>
<!-- Node1 -->
<g id="Node000001" class="node">
<title>Node1</title>
<g id="a_Node000001"><a xlink:title="Create and destroy main data structures for C&#45;Menu.">
<polygon fill="#999999" stroke="#666666" points="204.75,-77.5 155,-77.5 155,-56.75 204.75,-56.75 204.75,-77.5"/>
<text xml:space="preserve" text-anchor="middle" x="179.88" y="-64" font-family="Helvetica,sans-Serif" font-size="10.00">mem.c</text>
</a>
</g>
</g>
<!-- Node2 -->
<g id="Node000002" class="node">
<title>Node2</title>
<g id="a_Node000002"><a xlink:title=" ">
<polygon fill="#e0e0e0" stroke="#999999" points="67.75,-20.75 0,-20.75 0,0 67.75,0 67.75,-20.75"/>
<text xml:space="preserve" text-anchor="middle" x="33.88" y="-7.25" font-family="Helvetica,sans-Serif" font-size="10.00">common.h</text>
</a>
</g>
</g>
<!-- Node1&#45;&gt;Node2 -->
<g id="edge1_Node000001_Node000002" class="edge">
<title>Node1&#45;&gt;Node2</title>
<g id="a_edge1_Node000001_Node000002"><a xlink:title=" ">
<path fill="none" stroke="#63b8ff" d="M154.78,-56.71C131.66,-48.05 97.08,-35.08 70.81,-25.23"/>
<polygon fill="#63b8ff" stroke="#63b8ff" points="72.13,-21.98 61.54,-21.75 69.67,-28.54 72.13,-21.98"/>
</a>
</g>
</g>
<!-- Node3 -->
<g id="Node000003" class="node">
<title>Node3</title>
<g id="a_Node000003"><a xlink:title=" ">
<polygon fill="#e0e0e0" stroke="#999999" points="136.12,-20.75 85.62,-20.75 85.62,0 136.12,0 136.12,-20.75"/>
<text xml:space="preserve" text-anchor="middle" x="110.88" y="-7.25" font-family="Helvetica,sans-Serif" font-size="10.00">errno.h</text>
</a>
</g>
</g>
<!-- Node1&#45;&gt;Node3 -->
<g id="edge2_Node000001_Node000003" class="edge">
<title>Node1&#45;&gt;Node3</title>
<g id="a_edge2_Node000001_Node000003"><a xlink:title=" ">
<path fill="none" stroke="#63b8ff" d="M167.54,-56.34C157.63,-48.47 143.49,-37.25 131.81,-27.99"/>
<polygon fill="#63b8ff" stroke="#63b8ff" points="134.3,-25.49 124.29,-22.02 129.95,-30.98 134.3,-25.49"/>
</a>
</g>
</g>
<!-- Node4 -->
<g id="Node000004" class="node">
<title>Node4</title>
<g id="a_Node000004"><a xlink:title=" ">
<polygon fill="#e0e0e0" stroke="#999999" points="205.88,-20.75 153.88,-20.75 153.88,0 205.88,0 205.88,-20.75"/>
<text xml:space="preserve" text-anchor="middle" x="179.88" y="-7.25" font-family="Helvetica,sans-Serif" font-size="10.00">stdlib.h</text>
</a>
</g>
</g>
<!-- Node1&#45;&gt;Node4 -->
<g id="edge3_Node000001_Node000004" class="edge">
<title>Node1&#45;&gt;Node4</title>
<g id="a_edge3_Node000001_Node000004"><a xlink:title=" ">
<path fill="none" stroke="#63b8ff" d="M179.88,-56.34C179.88,-49.72 179.88,-40.72 179.88,-32.52"/>
<polygon fill="#63b8ff" stroke="#63b8ff" points="183.38,-32.59 179.88,-22.59 176.38,-32.59 183.38,-32.59"/>
</a>
</g>
</g>
<!-- Node5 -->
<g id="Node000005" class="node">
<title>Node5</title>
<g id="a_Node000005"><a xlink:title=" ">
<polygon fill="#e0e0e0" stroke="#999999" points="276.25,-20.75 223.5,-20.75 223.5,0 276.25,0 276.25,-20.75"/>
<text xml:space="preserve" text-anchor="middle" x="249.88" y="-7.25" font-family="Helvetica,sans-Serif" font-size="10.00">string.h</text>
</a>
</g>
</g>
<!-- Node1&#45;&gt;Node5 -->
<g id="edge4_Node000001_Node000005" class="edge">
<title>Node1&#45;&gt;Node5</title>
<g id="a_edge4_Node000001_Node000005"><a xlink:title=" ">
<path fill="none" stroke="#63b8ff" d="M192.39,-56.34C202.44,-48.47 216.79,-37.25 228.63,-27.99"/>
<polygon fill="#63b8ff" stroke="#63b8ff" points="230.56,-30.93 236.28,-22.01 226.24,-25.41 230.56,-30.93"/>
</a>
</g>
</g>
<!-- Node6 -->
<g id="Node000006" class="node">
<title>Node6</title>
<g id="a_Node000006"><a xlink:title=" ">
<polygon fill="#e0e0e0" stroke="#999999" points="349.38,-20.75 294.38,-20.75 294.38,0 349.38,0 349.38,-20.75"/>
<text xml:space="preserve" text-anchor="middle" x="321.88" y="-7.25" font-family="Helvetica,sans-Serif" font-size="10.00">unistd.h</text>
</a>
</g>
</g>
<!-- Node1&#45;&gt;Node6 -->
<g id="edge5_Node000001_Node000006" class="edge">
<title>Node1&#45;&gt;Node6</title>
<g id="a_edge5_Node000001_Node000006"><a xlink:title=" ">
<path fill="none" stroke="#63b8ff" d="M204.93,-56.46C227.41,-47.8 260.64,-34.99 285.94,-25.23"/>
<polygon fill="#63b8ff" stroke="#63b8ff" points="287.1,-28.53 295.18,-21.67 284.59,-22 287.1,-28.53"/>
</a>
</g>
</g>
</g>
</svg>
