<?xml version="1.0" encoding="UTF-8" standalone="no"?>
<!DOCTYPE svg PUBLIC "-//W3C//DTD SVG 1.1//EN"
 "http://www.w3.org/Graphics/SVG/1.1/DTD/svg11.dtd">
<!-- Generated by graphviz version 14.1.2 (0)
 -->
<!-- Title: /srv/www/htdocs/C&#45;Menu/doxygen&#45;awesome&#45;css/include/MyLibrary/subclass&#45;example.hpp Pages: 1 -->
<svg width="216pt" height="168pt"
 viewBox="0.00 0.00 216.00 168.00" xmlns="http://www.w3.org/2000/svg" xmlns:xlink="http://www.w3.org/1999/xlink">
<g id="graph0" class="graph" transform="scale(1 1) rotate(0) translate(4 163.75)">
<title>/srv/www/htdocs/C&#45;Menu/doxygen&#45;awesome&#45;css/include/MyLibrary/subclass&#45;example.hpp</title>
<!-- Node1 -->
<g id="Node000001" class="node">
<title>Node1</title>
<g id="a_Node000001"><a xlink:title=" ">
<polygon fill="#999999" stroke="#666666" points="180.25,-159.75 0,-159.75 0,-113.5 180.25,-113.5 180.25,-159.75"/>
<text xml:space="preserve" text-anchor="start" x="8" y="-146.25" font-family="Helvetica,sans-Serif" font-size="10.00">/srv/www/htdocs/C&#45;Menu</text>
<text xml:space="preserve" text-anchor="start" x="8" y="-133.5" font-family="Helvetica,sans-Serif" font-size="10.00">/doxygen&#45;awesome&#45;css/include</text>
<text xml:space="preserve" text-anchor="middle" x="90.12" y="-120.75" font-family="Helvetica,sans-Serif" font-size="10.00">/MyLibrary/subclass&#45;example.hpp</text>
</a>
</g>
</g>
<!-- Node2 -->
<g id="Node000002" class="node">
<title>Node2</title>
<g id="a_Node000002"><a xlink:title=" ">
<polygon fill="#e0e0e0" stroke="#999999" points="78,-20.75 34.25,-20.75 34.25,0 78,0 78,-20.75"/>
<text xml:space="preserve" text-anchor="middle" x="56.12" y="-7.25" font-family="Helvetica,sans-Serif" font-size="10.00">string</text>
</a>
</g>
</g>
<!-- Node1&#45;&gt;Node2 -->
<g id="edge1_Node000001_Node000002" class="edge">
<title>Node1&#45;&gt;Node2</title>
<g id="a_edge1_Node000001_Node000002"><a xlink:title=" ">
<path fill="none" stroke="#63b8ff" d="M64.83,-113.23C55.5,-103.33 46.02,-90.89 41.12,-77.5 35.63,-62.45 40.22,-44.71 45.72,-31.39"/>
<polygon fill="#63b8ff" stroke="#63b8ff" points="48.87,-32.92 49.92,-22.38 42.53,-29.97 48.87,-32.92"/>
</a>
</g>
</g>
<!-- Node3 -->
<g id="Node000003" class="node">
<title>Node3</title>
<g id="a_Node000003"><a xlink:href="../../df/d3d/example_8hpp.html" target="_top" xlink:title=" ">
<polygon fill="white" stroke="#666666" points="130,-77.5 50.25,-77.5 50.25,-56.75 130,-56.75 130,-77.5"/>
<text xml:space="preserve" text-anchor="middle" x="90.12" y="-64" font-family="Helvetica,sans-Serif" font-size="10.00">example.hpp</text>
</a>
</g>
</g>
<!-- Node1&#45;&gt;Node3 -->
<g id="edge2_Node000001_Node000003" class="edge">
<title>Node1&#45;&gt;Node3</title>
<g id="a_edge2_Node000001_Node000003"><a xlink:title=" ">
<path fill="none" stroke="#63b8ff" d="M90.12,-113.15C90.12,-105.48 90.12,-96.94 90.12,-89.38"/>
<polygon fill="#63b8ff" stroke="#63b8ff" points="93.63,-89.4 90.13,-79.4 86.63,-89.4 93.63,-89.4"/>
</a>
</g>
</g>
<!-- Node4 -->
<g id="Node000004" class="node">
<title>Node4</title>
<g id="a_Node000004"><a xlink:title=" ">
<polygon fill="#e0e0e0" stroke="#999999" points="207.88,-77.5 148.38,-77.5 148.38,-56.75 207.88,-56.75 207.88,-77.5"/>
<text xml:space="preserve" text-anchor="middle" x="178.12" y="-64" font-family="Helvetica,sans-Serif" font-size="10.00">iostream</text>
</a>
</g>
</g>
<!-- Node1&#45;&gt;Node4 -->
<g id="edge4_Node000001_Node000004" class="edge">
<title>Node1&#45;&gt;Node4</title>
<g id="a_edge4_Node000001_Node000004"><a xlink:title=" ">
<path fill="none" stroke="#63b8ff" d="M119.43,-113.15C131.49,-103.89 145.22,-93.36 156.37,-84.81"/>
<polygon fill="#63b8ff" stroke="#63b8ff" points="158.39,-87.68 164.19,-78.81 154.13,-82.12 158.39,-87.68"/>
</a>
</g>
</g>
<!-- Node3&#45;&gt;Node2 -->
<g id="edge3_Node000003_Node000002" class="edge">
<title>Node3&#45;&gt;Node2</title>
<g id="a_edge3_Node000003_Node000002"><a xlink:title=" ">
<path fill="none" stroke="#63b8ff" d="M84.05,-56.34C79.65,-49.25 73.55,-39.44 68.18,-30.79"/>
<polygon fill="#63b8ff" stroke="#63b8ff" points="71.2,-29.01 62.95,-22.36 65.25,-32.71 71.2,-29.01"/>
</a>
</g>
</g>
</g>
</svg>
