<?xml version="1.0" encoding="UTF-8" standalone="no"?>
<!DOCTYPE svg PUBLIC "-//W3C//DTD SVG 1.1//EN"
 "http://www.w3.org/Graphics/SVG/1.1/DTD/svg11.dtd">
<!-- Generated by graphviz version 14.1.2 (0)
 -->
<!-- Title: Chyron Pages: 1 -->
<svg width="137pt" height="197pt"
 viewBox="0.00 0.00 137.00 197.00" xmlns="http://www.w3.org/2000/svg" xmlns:xlink="http://www.w3.org/1999/xlink">
<g id="graph0" class="graph" transform="scale(1 1) rotate(0) translate(4 192.5)">
<title>Chyron</title>
<!-- Node1 -->
<g id="Node000001" class="node">
<title>Node1</title>
<g id="a_Node000001"><a xlink:title=" ">
<polygon fill="#999999" stroke="#666666" points="88.75,-20.75 38.25,-20.75 38.25,0 88.75,0 88.75,-20.75"/>
<text xml:space="preserve" text-anchor="middle" x="63.5" y="-7.25" font-family="Helvetica,sans-Serif" font-size="10.00">Chyron</text>
</a>
</g>
</g>
<!-- Node2 -->
<g id="Node000002" class="node">
<title>Node2</title>
<g id="a_Node000002"><a xlink:href="../../d5/ded/structChyronKey.html" target="_top" xlink:title=" ">
<polygon fill="white" stroke="#666666" points="97.75,-96.25 29.25,-96.25 29.25,-75.5 97.75,-75.5 97.75,-96.25"/>
<text xml:space="preserve" text-anchor="middle" x="63.5" y="-82.75" font-family="Helvetica,sans-Serif" font-size="10.00">ChyronKey</text>
</a>
</g>
</g>
<!-- Node2&#45;&gt;Node1 -->
<g id="edge1_Node000001_Node000002" class="edge">
<title>Node2&#45;&gt;Node1</title>
<g id="a_edge1_Node000001_Node000002"><a xlink:title=" ">
<path fill="none" stroke="#9a32cd" stroke-dasharray="5,2" d="M63.5,-63.76C63.5,-49.76 63.5,-32.05 63.5,-21.22"/>
<polygon fill="#9a32cd" stroke="#9a32cd" points="60,-63.75 63.5,-73.75 67,-63.75 60,-63.75"/>
</a>
</g>
<text xml:space="preserve" text-anchor="start" x="66.5" y="-45" font-family="Helvetica,sans-Serif" font-size="10.00" fill="grey">key</text>
</g>
<!-- Node3 -->
<g id="Node000003" class="node">
<title>Node3</title>
<g id="a_Node000003"><a xlink:title=" ">
<polygon fill="white" stroke="#666666" points="37,-188.5 0,-188.5 0,-167.75 37,-167.75 37,-188.5"/>
<text xml:space="preserve" text-anchor="middle" x="18.5" y="-175" font-family="Helvetica,sans-Serif" font-size="10.00">char</text>
</a>
</g>
</g>
<!-- Node3&#45;&gt;Node1 -->
<g id="edge4_Node000001_Node000003" class="edge">
<title>Node3&#45;&gt;Node1</title>
<g id="a_edge4_Node000001_Node000003"><a xlink:title=" ">
<path fill="none" stroke="#9a32cd" stroke-dasharray="5,2" d="M11.61,-156.72C5.65,-135.71 -0.58,-102.34 9.25,-75.5 17.58,-52.77 37.91,-32.56 51.19,-21.15"/>
<polygon fill="#9a32cd" stroke="#9a32cd" points="8.2,-157.56 14.51,-166.08 14.89,-155.49 8.2,-157.56"/>
</a>
</g>
<text xml:space="preserve" text-anchor="start" x="12.25" y="-82.75" font-family="Helvetica,sans-Serif" font-size="10.00" fill="grey">s</text>
</g>
<!-- Node3&#45;&gt;Node2 -->
<g id="edge2_Node000002_Node000003" class="edge">
<title>Node3&#45;&gt;Node2</title>
<g id="a_edge2_Node000002_Node000003"><a xlink:title=" ">
<path fill="none" stroke="#9a32cd" stroke-dasharray="5,2" d="M23.92,-156.49C27.72,-143.83 33.46,-127.55 41,-114.25 44.58,-107.94 49.64,-101.63 54.06,-96.66"/>
<polygon fill="#9a32cd" stroke="#9a32cd" points="20.63,-155.28 21.29,-165.85 27.37,-157.17 20.63,-155.28"/>
</a>
</g>
<text xml:space="preserve" text-anchor="start" x="44" y="-128.88" font-family="Helvetica,sans-Serif" font-size="10.00" fill="grey">text</text>
</g>
<!-- Node4 -->
<g id="Node000004" class="node">
<title>Node4</title>
<g id="a_Node000004"><a xlink:title=" ">
<polygon fill="white" stroke="#666666" points="98.9,-188.5 70.1,-188.5 70.1,-167.75 98.9,-167.75 98.9,-188.5"/>
<text xml:space="preserve" text-anchor="middle" x="84.5" y="-175" font-family="Helvetica,sans-Serif" font-size="10.00">int</text>
</a>
</g>
</g>
<!-- Node4&#45;&gt;Node1 -->
<g id="edge5_Node000001_Node000004" class="edge">
<title>Node4&#45;&gt;Node1</title>
<g id="a_edge5_Node000001_Node000004"><a xlink:title=" ">
<path fill="none" stroke="#9a32cd" stroke-dasharray="5,2" d="M108.85,-165.87C115.07,-161.73 121,-156.39 124.5,-149.75 131.86,-135.79 127.81,-129.68 124.5,-114.25 116.77,-78.27 111.3,-69.11 90.5,-38.75 86.05,-32.25 79.96,-25.93 74.7,-21"/>
<polygon fill="#9a32cd" stroke="#9a32cd" points="107.4,-162.67 100.42,-170.64 110.85,-168.75 107.4,-162.67"/>
</a>
</g>
<text xml:space="preserve" text-anchor="start" x="122.99" y="-82.75" font-family="Helvetica,sans-Serif" font-size="10.00" fill="grey">l</text>
</g>
<!-- Node4&#45;&gt;Node2 -->
<g id="edge3_Node000002_Node000004" class="edge">
<title>Node4&#45;&gt;Node2</title>
<g id="a_edge3_Node000002_Node000004"><a xlink:title=" ">
<path fill="none" stroke="#9a32cd" stroke-dasharray="5,2" d="M79.61,-156.57C79.06,-154.27 78.52,-151.96 78,-149.75 73.61,-130.99 68.57,-109.06 65.74,-96.68"/>
<polygon fill="#9a32cd" stroke="#9a32cd" points="76.13,-157.11 81.85,-166.03 82.94,-155.49 76.13,-157.11"/>
</a>
</g>
<text xml:space="preserve" text-anchor="start" x="81" y="-137.25" font-family="Helvetica,sans-Serif" font-size="10.00" fill="grey">end_pos</text>
<text xml:space="preserve" text-anchor="start" x="81" y="-120.5" font-family="Helvetica,sans-Serif" font-size="10.00" fill="grey">keycode</text>
</g>
</g>
</svg>
