<?xml version="1.0" encoding="UTF-8" standalone="no"?>
<!DOCTYPE svg PUBLIC "-//W3C//DTD SVG 1.1//EN"
 "http://www.w3.org/Graphics/SVG/1.1/DTD/svg11.dtd">
<!-- Generated by graphviz version 14.1.2 (0)
 -->
<!-- Title: Opts Pages: 1 -->
<svg width="131pt" height="155pt"
 viewBox="0.00 0.00 131.00 155.00" xmlns="http://www.w3.org/2000/svg" xmlns:xlink="http://www.w3.org/1999/xlink">
<g id="graph0" class="graph" transform="scale(1 1) rotate(0) translate(4 150.5)">
<title>Opts</title>
<!-- Node1 -->
<g id="Node000001" class="node">
<title>Node1</title>
<g id="a_Node000001"><a xlink:title="Table elements for options.">
<polygon fill="#999999" stroke="#666666" points="74.75,-20.75 36.25,-20.75 36.25,0 74.75,0 74.75,-20.75"/>
<text xml:space="preserve" text-anchor="middle" x="55.5" y="-7.25" font-family="Helvetica,sans-Serif" font-size="10.00">Opts</text>
</a>
</g>
</g>
<!-- Node2 -->
<g id="Node000002" class="node">
<title>Node2</title>
<g id="a_Node000002"><a xlink:title=" ">
<polygon fill="white" stroke="#666666" points="37,-146.5 0,-146.5 0,-125.75 37,-125.75 37,-146.5"/>
<text xml:space="preserve" text-anchor="middle" x="18.5" y="-133" font-family="Helvetica,sans-Serif" font-size="10.00">char</text>
</a>
</g>
</g>
<!-- Node2&#45;&gt;Node1 -->
<g id="edge1_Node000001_Node000002" class="edge">
<title>Node2&#45;&gt;Node1</title>
<g id="a_edge1_Node000001_Node000002"><a xlink:title=" ">
<path fill="none" stroke="#9a32cd" stroke-dasharray="5,2" d="M13.76,-114.34C10.22,-93.95 7.82,-62.53 19.75,-38.75 23.4,-31.48 29.98,-25.6 36.51,-21.18"/>
<polygon fill="#9a32cd" stroke="#9a32cd" points="10.29,-114.85 15.7,-123.97 17.16,-113.47 10.29,-114.85"/>
</a>
</g>
<text xml:space="preserve" text-anchor="start" x="22.75" y="-95.25" font-family="Helvetica,sans-Serif" font-size="10.00" fill="grey">desc</text>
<text xml:space="preserve" text-anchor="start" x="22.75" y="-78.5" font-family="Helvetica,sans-Serif" font-size="10.00" fill="grey">name</text>
<text xml:space="preserve" text-anchor="start" x="22.75" y="-61.75" font-family="Helvetica,sans-Serif" font-size="10.00" fill="grey">short_opt</text>
<text xml:space="preserve" text-anchor="start" x="22.75" y="-45" font-family="Helvetica,sans-Serif" font-size="10.00" fill="grey">use</text>
</g>
<!-- Node3 -->
<g id="Node000003" class="node">
<title>Node3</title>
<g id="a_Node000003"><a xlink:title=" ">
<polygon fill="white" stroke="#666666" points="107.9,-146.5 79.1,-146.5 79.1,-125.75 107.9,-125.75 107.9,-146.5"/>
<text xml:space="preserve" text-anchor="middle" x="93.5" y="-133" font-family="Helvetica,sans-Serif" font-size="10.00">int</text>
</a>
</g>
</g>
<!-- Node3&#45;&gt;Node1 -->
<g id="edge2_Node000001_Node000003" class="edge">
<title>Node3&#45;&gt;Node1</title>
<g id="a_edge2_Node000001_Node000003"><a xlink:title=" ">
<path fill="none" stroke="#9a32cd" stroke-dasharray="5,2" d="M90.6,-114.12C87.41,-94.22 81.39,-63.74 71.5,-38.75 69.07,-32.61 65.4,-26.21 62.19,-21.14"/>
<polygon fill="#9a32cd" stroke="#9a32cd" points="87.1,-114.39 92.04,-123.76 94.02,-113.35 87.1,-114.39"/>
</a>
</g>
<text xml:space="preserve" text-anchor="start" x="92.36" y="-78.5" font-family="Helvetica,sans-Serif" font-size="10.00" fill="grey">group</text>
<text xml:space="preserve" text-anchor="start" x="92.36" y="-61.75" font-family="Helvetica,sans-Serif" font-size="10.00" fill="grey">type</text>
</g>
</g>
</svg>
