<?xml version="1.0" encoding="UTF-8" standalone="no"?>
<!DOCTYPE svg PUBLIC "-//W3C//DTD SVG 1.1//EN"
 "http://www.w3.org/Graphics/SVG/1.1/DTD/svg11.dtd">
<!-- Generated by graphviz version 14.1.2 (0)
 -->
<!-- Title: full_screen_shell Pages: 1 -->
<svg width="1272pt" height="284pt"
 viewBox="0.00 0.00 1272.00 284.00" xmlns="http://www.w3.org/2000/svg" xmlns:xlink="http://www.w3.org/1999/xlink">
<g id="graph0" class="graph" transform="scale(1 1) rotate(0) translate(4 280.38)">
<title>full_screen_shell</title>
<!-- Node1 -->
<g id="Node000001" class="node">
<title>Node1</title>
<g id="a_Node000001"><a xlink:title="Execute a shell command in full screen mode.">
<polygon fill="#999999" stroke="#666666" points="1263.5,-210.75 1165.75,-210.75 1165.75,-190 1263.5,-190 1263.5,-210.75"/>
<text xml:space="preserve" text-anchor="middle" x="1214.62" y="-197.25" font-family="Helvetica,sans-Serif" font-size="10.00">full_screen_shell</text>
</a>
</g>
</g>
<!-- Node2 -->
<g id="Node000002" class="node">
<title>Node2</title>
<g id="a_Node000002"><a xlink:href="../../d6/d18/menu__engine_8c.html#aa5d0e30e7036b72b51c843d0a7e486a1" target="_top" xlink:title="Processes user input for the menu system.">
<polygon fill="white" stroke="#666666" points="317.25,-134.75 194.75,-134.75 194.75,-114 317.25,-114 317.25,-134.75"/>
<text xml:space="preserve" text-anchor="middle" x="256" y="-121.25" font-family="Helvetica,sans-Serif" font-size="10.00">menu_cmd_processor</text>
</a>
</g>
</g>
<!-- Node1&#45;&gt;Node2 -->
<g id="edge1_Node000001_Node000002" class="edge">
<title>Node1&#45;&gt;Node2</title>
<g id="a_edge1_Node000001_Node000002"><a xlink:title=" ">
<path fill="none" stroke="#63b8ff" d="M1181.38,-215.84C1132.02,-238.07 1034.22,-276.38 946.62,-276.38 946.62,-276.38 946.62,-276.38 490.62,-276.38 416.64,-276.38 409.53,-230.39 353.25,-182.38 335.55,-167.28 336.88,-156.86 317.25,-144.38 311.58,-140.77 305.19,-137.74 298.74,-135.23"/>
<polygon fill="#63b8ff" stroke="#63b8ff" points="1182.72,-219.08 1190.35,-211.73 1179.8,-212.72 1182.72,-219.08"/>
</a>
</g>
</g>
<!-- Node5 -->
<g id="Node000005" class="node">
<title>Node5</title>
<g id="a_Node000005"><a xlink:href="../../d0/d8e/view__engine_8c.html#a9c4b3ba5f73c18b486646c62b933972a" target="_top" xlink:title="Main Command Processing Loop for View.">
<polygon fill="white" stroke="#666666" points="1129.75,-134.75 1011.75,-134.75 1011.75,-114 1129.75,-114 1129.75,-134.75"/>
<text xml:space="preserve" text-anchor="middle" x="1070.75" y="-121.25" font-family="Helvetica,sans-Serif" font-size="10.00">view_cmd_processor</text>
</a>
</g>
</g>
<!-- Node1&#45;&gt;Node5 -->
<g id="edge5_Node000001_Node000005" class="edge">
<title>Node1&#45;&gt;Node5</title>
<g id="a_edge5_Node000001_Node000005"><a xlink:title=" ">
<path fill="none" stroke="#63b8ff" d="M1183.67,-184.33C1155.98,-169.49 1115.6,-147.87 1091.67,-135.05"/>
<polygon fill="#63b8ff" stroke="#63b8ff" points="1181.8,-187.3 1192.26,-188.93 1185.1,-181.13 1181.8,-187.3"/>
</a>
</g>
</g>
<!-- Node3 -->
<g id="Node000003" class="node">
<title>Node3</title>
<g id="a_Node000003"><a xlink:href="../../d6/d18/menu__engine_8c.html#a7d7973d7aac92759dcc86ec52bb038f4" target="_top" xlink:title="The main loop of the menu system.">
<polygon fill="white" stroke="#666666" points="158.75,-134.75 76.75,-134.75 76.75,-114 158.75,-114 158.75,-134.75"/>
<text xml:space="preserve" text-anchor="middle" x="117.75" y="-121.25" font-family="Helvetica,sans-Serif" font-size="10.00">menu_engine</text>
</a>
</g>
</g>
<!-- Node2&#45;&gt;Node3 -->
<g id="edge2_Node000002_Node000003" class="edge">
<title>Node2&#45;&gt;Node3</title>
<g id="a_edge2_Node000002_Node000003"><a xlink:title=" ">
<path fill="none" stroke="#63b8ff" d="M183.2,-117.63C174.96,-117.67 166.79,-117.84 159.17,-118.15"/>
<polygon fill="#63b8ff" stroke="#63b8ff" points="182.92,-121.13 192.93,-117.66 182.94,-114.13 182.92,-121.13"/>
</a>
</g>
</g>
<!-- Node3&#45;&gt;Node2 -->
<g id="edge4_Node000003_Node000002" class="edge">
<title>Node3&#45;&gt;Node2</title>
<g id="a_edge4_Node000003_Node000002"><a xlink:title=" ">
<path fill="none" stroke="#63b8ff" d="M170.68,-130.95C178.45,-131.12 186.52,-131.17 194.45,-131.09"/>
<polygon fill="#63b8ff" stroke="#63b8ff" points="170.79,-127.45 160.69,-130.65 170.58,-134.45 170.79,-127.45"/>
</a>
</g>
</g>
<!-- Node4 -->
<g id="Node000004" class="node">
<title>Node4</title>
<g id="a_Node000004"><a xlink:href="../../d2/d0a/menu_8c.html#a3c04138a5bfe5d72780bb7e82a18e627" target="_top" xlink:title=" ">
<polygon fill="white" stroke="#666666" points="40.75,-134.75 0,-134.75 0,-114 40.75,-114 40.75,-134.75"/>
<text xml:space="preserve" text-anchor="middle" x="20.38" y="-121.25" font-family="Helvetica,sans-Serif" font-size="10.00">main</text>
</a>
</g>
</g>
<!-- Node3&#45;&gt;Node4 -->
<g id="edge3_Node000003_Node000004" class="edge">
<title>Node3&#45;&gt;Node4</title>
<g id="a_edge3_Node000003_Node000004"><a xlink:title=" ">
<path fill="none" stroke="#63b8ff" d="M64.79,-124.38C56.36,-124.38 48.1,-124.38 41.09,-124.38"/>
<polygon fill="#63b8ff" stroke="#63b8ff" points="64.79,-127.88 74.79,-124.38 64.79,-120.88 64.79,-127.88"/>
</a>
</g>
</g>
<!-- Node6 -->
<g id="Node000006" class="node">
<title>Node6</title>
<g id="a_Node000006"><a xlink:href="../../d0/d8e/view__engine_8c.html#a0bd4dc056ab5010547129bb87819789b" target="_top" xlink:title="Start view.">
<polygon fill="white" stroke="#666666" points="975.75,-153.75 915.5,-153.75 915.5,-133 975.75,-133 975.75,-153.75"/>
<text xml:space="preserve" text-anchor="middle" x="945.62" y="-140.25" font-family="Helvetica,sans-Serif" font-size="10.00">view_file</text>
</a>
</g>
</g>
<!-- Node5&#45;&gt;Node6 -->
<g id="edge6_Node000005_Node000006" class="edge">
<title>Node5&#45;&gt;Node6</title>
<g id="a_edge6_Node000005_Node000006"><a xlink:title=" ">
<path fill="none" stroke="#63b8ff" d="M1000.19,-135.11C991.69,-136.42 983.39,-137.7 975.97,-138.85"/>
<polygon fill="#63b8ff" stroke="#63b8ff" points="1000.59,-138.59 1009.94,-133.61 999.52,-131.67 1000.59,-138.59"/>
</a>
</g>
</g>
<!-- Node7 -->
<g id="Node000007" class="node">
<title>Node7</title>
<g id="a_Node000007"><a xlink:href="../../da/d97/view_8c.html#a3c04138a5bfe5d72780bb7e82a18e627" target="_top" xlink:title=" ">
<polygon fill="white" stroke="#666666" points="761.88,-248.75 721.12,-248.75 721.12,-228 761.88,-228 761.88,-248.75"/>
<text xml:space="preserve" text-anchor="middle" x="741.5" y="-235.25" font-family="Helvetica,sans-Serif" font-size="10.00">main</text>
</a>
</g>
</g>
<!-- Node6&#45;&gt;Node7 -->
<g id="edge7_Node000006_Node000007" class="edge">
<title>Node6&#45;&gt;Node7</title>
<g id="a_edge7_Node000006_Node000007"><a xlink:title=" ">
<path fill="none" stroke="#63b8ff" d="M911.47,-158.96C869.03,-178.91 796.85,-212.83 762.2,-229.11"/>
<polygon fill="#63b8ff" stroke="#63b8ff" points="912.9,-162.15 920.46,-154.73 909.92,-155.82 912.9,-162.15"/>
</a>
</g>
</g>
<!-- Node8 -->
<g id="Node000008" class="node">
<title>Node8</title>
<g id="a_Node000008"><a xlink:href="../../d2/d98/mview_8c.html#a75a4e7afc9c9aafd3d35ab706f5fdc71" target="_top" xlink:title="subprogram entry point for C&#45;Menu View">
<polygon fill="white" stroke="#666666" points="879.5,-153.75 830.5,-153.75 830.5,-133 879.5,-133 879.5,-153.75"/>
<text xml:space="preserve" text-anchor="middle" x="855" y="-140.25" font-family="Helvetica,sans-Serif" font-size="10.00">mview</text>
</a>
</g>
</g>
<!-- Node6&#45;&gt;Node8 -->
<g id="edge8_Node000006_Node000008" class="edge">
<title>Node6&#45;&gt;Node8</title>
<g id="a_edge8_Node000006_Node000008"><a xlink:title=" ">
<path fill="none" stroke="#63b8ff" d="M903.74,-143.38C895.54,-143.38 887.17,-143.38 879.79,-143.38"/>
<polygon fill="#63b8ff" stroke="#63b8ff" points="903.6,-146.88 913.6,-143.38 903.6,-139.88 903.6,-146.88"/>
</a>
</g>
</g>
<!-- Node8&#45;&gt;Node2 -->
<g id="edge24_Node000008_Node000002" class="edge">
<title>Node8&#45;&gt;Node2</title>
<g id="a_edge24_Node000008_Node000002"><a xlink:title=" ">
<path fill="none" stroke="#63b8ff" d="M818.86,-138.85C772.1,-133.23 686.79,-124.38 613.62,-124.38 613.62,-124.38 613.62,-124.38 490.62,-124.38 431.81,-124.38 364.67,-124.38 317.51,-124.38"/>
<polygon fill="#63b8ff" stroke="#63b8ff" points="818.31,-142.31 828.66,-140.05 819.17,-135.36 818.31,-142.31"/>
</a>
</g>
</g>
<!-- Node8&#45;&gt;Node7 -->
<g id="edge23_Node000008_Node000007" class="edge">
<title>Node8&#45;&gt;Node7</title>
<g id="a_edge23_Node000008_Node000007"><a xlink:title=" ">
<path fill="none" stroke="#63b8ff" d="M841,-163.27C830.07,-178.78 813.26,-200.03 794.5,-214.38 784.71,-221.86 772.2,-227.73 761.91,-231.79"/>
<polygon fill="#63b8ff" stroke="#63b8ff" points="843.7,-165.52 846.44,-155.29 837.92,-161.58 843.7,-165.52"/>
</a>
</g>
</g>
<!-- Node9 -->
<g id="Node000009" class="node">
<title>Node9</title>
<g id="a_Node000009"><a xlink:href="../../db/ddc/pick__engine_8c.html#aeebc4c0b94ca97d753e10a0cd1798730" target="_top" xlink:title="Displays the help screen for the pick interface using mview.">
<polygon fill="white" stroke="#666666" points="793,-172.75 690,-172.75 690,-152 793,-152 793,-172.75"/>
<text xml:space="preserve" text-anchor="middle" x="741.5" y="-159.25" font-family="Helvetica,sans-Serif" font-size="10.00">display_pick_help</text>
</a>
</g>
</g>
<!-- Node8&#45;&gt;Node9 -->
<g id="edge9_Node000008_Node000009" class="edge">
<title>Node8&#45;&gt;Node9</title>
<g id="a_edge9_Node000008_Node000009"><a xlink:title=" ">
<path fill="none" stroke="#63b8ff" d="M818.83,-149.37C810.75,-150.74 802.01,-152.23 793.42,-153.7"/>
<polygon fill="#63b8ff" stroke="#63b8ff" points="819.32,-152.84 828.59,-147.71 818.14,-145.93 819.32,-152.84"/>
</a>
</g>
</g>
<!-- Node14 -->
<g id="Node000014" class="node">
<title>Node14</title>
<g id="a_Node000014"><a xlink:href="../../db/ddc/pick__engine_8c.html#af7fcbb1c8b67a4d11c86ba7209f397c2" target="_top" xlink:title="Executes specified command with selected objects as arguments.">
<polygon fill="white" stroke="#666666" points="652.5,-211.75 572.75,-211.75 572.75,-191 652.5,-191 652.5,-211.75"/>
<text xml:space="preserve" text-anchor="middle" x="612.62" y="-198.25" font-family="Helvetica,sans-Serif" font-size="10.00">exec_objects</text>
</a>
</g>
</g>
<!-- Node8&#45;&gt;Node14 -->
<g id="edge15_Node000008_Node000014" class="edge">
<title>Node8&#45;&gt;Node14</title>
<g id="a_edge15_Node000008_Node000014"><a xlink:title=" ">
<path fill="none" stroke="#63b8ff" d="M832.21,-160.72C821.47,-168.34 807.95,-176.63 794.5,-181.38 747.73,-197.88 690.29,-201.66 652.87,-202.12"/>
<polygon fill="#63b8ff" stroke="#63b8ff" points="834.07,-163.7 840,-154.93 829.89,-158.09 834.07,-163.7"/>
</a>
</g>
</g>
<!-- Node15 -->
<g id="Node000015" class="node">
<title>Node15</title>
<g id="a_Node000015"><a xlink:href="../../d3/dee/form__engine_8c.html#ada302551bf41bf8ed6132fd34328a47e" target="_top" xlink:title="Form main processing loop.">
<polygon fill="white" stroke="#666666" points="780.25,-96.75 702.75,-96.75 702.75,-76 780.25,-76 780.25,-96.75"/>
<text xml:space="preserve" text-anchor="middle" x="741.5" y="-83.25" font-family="Helvetica,sans-Serif" font-size="10.00">form_engine</text>
</a>
</g>
</g>
<!-- Node8&#45;&gt;Node15 -->
<g id="edge17_Node000008_Node000015" class="edge">
<title>Node8&#45;&gt;Node15</title>
<g id="a_edge17_Node000008_Node000015"><a xlink:title=" ">
<path fill="none" stroke="#63b8ff" d="M825.46,-126.99C815.72,-121.54 804.71,-115.55 794.5,-110.38 785.63,-105.88 775.76,-101.23 767.02,-97.24"/>
<polygon fill="#63b8ff" stroke="#63b8ff" points="823.68,-130 834.11,-131.87 827.12,-123.91 823.68,-130"/>
</a>
</g>
</g>
<!-- Node19 -->
<g id="Node000019" class="node">
<title>Node19</title>
<g id="a_Node000019"><a xlink:href="../../d0/d8e/view__engine_8c.html#ad997ba9f8591568c77291fb1b44601b2" target="_top" xlink:title="Display View Help File.">
<polygon fill="white" stroke="#666666" points="794.5,-57.75 688.5,-57.75 688.5,-37 794.5,-37 794.5,-57.75"/>
<text xml:space="preserve" text-anchor="middle" x="741.5" y="-44.25" font-family="Helvetica,sans-Serif" font-size="10.00">view_display_help</text>
</a>
</g>
</g>
<!-- Node8&#45;&gt;Node19 -->
<g id="edge25_Node000008_Node000019" class="edge">
<title>Node8&#45;&gt;Node19</title>
<g id="a_edge25_Node000008_Node000019"><a xlink:title=" ">
<path fill="none" stroke="#63b8ff" d="M842.39,-123.01C831.82,-106.07 814.8,-82.39 794.5,-67.38 789.6,-63.75 783.96,-60.7 778.25,-58.16"/>
<polygon fill="#63b8ff" stroke="#63b8ff" points="839.18,-124.47 847.33,-131.24 845.19,-120.87 839.18,-124.47"/>
</a>
</g>
</g>
<!-- Node10 -->
<g id="Node000010" class="node">
<title>Node10</title>
<g id="a_Node000010"><a xlink:href="../../db/ddc/pick__engine_8c.html#abb0969a6d1c7e78be46c3b325754c802" target="_top" xlink:title="Main loop to handle user input and interactions for pick interface.">
<polygon fill="white" stroke="#666666" points="635.25,-172.75 590,-172.75 590,-152 635.25,-152 635.25,-172.75"/>
<text xml:space="preserve" text-anchor="middle" x="612.62" y="-159.25" font-family="Helvetica,sans-Serif" font-size="10.00">picker</text>
</a>
</g>
</g>
<!-- Node9&#45;&gt;Node10 -->
<g id="edge10_Node000009_Node000010" class="edge">
<title>Node9&#45;&gt;Node10</title>
<g id="a_edge10_Node000009_Node000010"><a xlink:title=" ">
<path fill="none" stroke="#63b8ff" d="M678.52,-162.38C663.16,-162.38 647.69,-162.38 635.71,-162.38"/>
<polygon fill="#63b8ff" stroke="#63b8ff" points="678.11,-165.88 688.11,-162.38 678.11,-158.88 678.11,-165.88"/>
</a>
</g>
</g>
<!-- Node11 -->
<g id="Node000011" class="node">
<title>Node11</title>
<g id="a_Node000011"><a xlink:href="../../db/ddc/pick__engine_8c.html#ab97dcab41017c5132f52b682437a151e" target="_top" xlink:title="Initializes pick interface, calculates window size and position, and enters picker loop.">
<polygon fill="white" stroke="#666666" points="528.88,-173.75 454.38,-173.75 454.38,-153 528.88,-153 528.88,-173.75"/>
<text xml:space="preserve" text-anchor="middle" x="491.62" y="-160.25" font-family="Helvetica,sans-Serif" font-size="10.00">pick_engine</text>
</a>
</g>
</g>
<!-- Node10&#45;&gt;Node11 -->
<g id="edge11_Node000010_Node000011" class="edge">
<title>Node10&#45;&gt;Node11</title>
<g id="a_edge11_Node000010_Node000011"><a xlink:title=" ">
<path fill="none" stroke="#63b8ff" d="M578.45,-162.65C563.1,-162.78 544.84,-162.94 529.1,-163.07"/>
<polygon fill="#63b8ff" stroke="#63b8ff" points="578.04,-166.16 588.01,-162.57 577.98,-159.16 578.04,-166.16"/>
</a>
</g>
</g>
<!-- Node12 -->
<g id="Node000012" class="node">
<title>Node12</title>
<g id="a_Node000012"><a xlink:href="../../db/ddc/pick__engine_8c.html#a1b2ee87543245e612c1710ea58930a17" target="_top" xlink:title="Initializes pick structure and opens pick input file or pipe.">
<polygon fill="white" stroke="#666666" points="410.5,-173.75 353.25,-173.75 353.25,-153 410.5,-153 410.5,-173.75"/>
<text xml:space="preserve" text-anchor="middle" x="381.88" y="-160.25" font-family="Helvetica,sans-Serif" font-size="10.00">init_pick</text>
</a>
</g>
</g>
<!-- Node11&#45;&gt;Node12 -->
<g id="edge12_Node000011_Node000012" class="edge">
<title>Node11&#45;&gt;Node12</title>
<g id="a_edge12_Node000011_Node000012"><a xlink:title=" ">
<path fill="none" stroke="#63b8ff" d="M442.91,-163.38C431.93,-163.38 420.61,-163.38 410.8,-163.38"/>
<polygon fill="#63b8ff" stroke="#63b8ff" points="442.63,-166.88 452.63,-163.38 442.63,-159.88 442.63,-166.88"/>
</a>
</g>
</g>
<!-- Node12&#45;&gt;Node2 -->
<g id="edge14_Node000012_Node000002" class="edge">
<title>Node12&#45;&gt;Node2</title>
<g id="a_edge14_Node000012_Node000002"><a xlink:title=" ">
<path fill="none" stroke="#63b8ff" d="M341.96,-151.12C325.67,-146 306.92,-140.09 291.18,-135.14"/>
<polygon fill="#63b8ff" stroke="#63b8ff" points="340.73,-154.41 351.32,-154.07 342.83,-147.73 340.73,-154.41"/>
</a>
</g>
</g>
<!-- Node13 -->
<g id="Node000013" class="node">
<title>Node13</title>
<g id="a_Node000013"><a xlink:href="../../de/d7c/pick_8c.html#a3c04138a5bfe5d72780bb7e82a18e627" target="_top" xlink:title=" ">
<polygon fill="white" stroke="#666666" points="276.38,-173.75 235.62,-173.75 235.62,-153 276.38,-153 276.38,-173.75"/>
<text xml:space="preserve" text-anchor="middle" x="256" y="-160.25" font-family="Helvetica,sans-Serif" font-size="10.00">main</text>
</a>
</g>
</g>
<!-- Node12&#45;&gt;Node13 -->
<g id="edge13_Node000012_Node000013" class="edge">
<title>Node12&#45;&gt;Node13</title>
<g id="a_edge13_Node000012_Node000013"><a xlink:title=" ">
<path fill="none" stroke="#63b8ff" d="M341.27,-163.38C319.64,-163.38 293.83,-163.38 276.52,-163.38"/>
<polygon fill="#63b8ff" stroke="#63b8ff" points="341.25,-166.88 351.25,-163.38 341.25,-159.88 341.25,-166.88"/>
</a>
</g>
</g>
<!-- Node14&#45;&gt;Node11 -->
<g id="edge16_Node000014_Node000011" class="edge">
<title>Node14&#45;&gt;Node11</title>
<g id="a_edge16_Node000014_Node000011"><a xlink:title=" ">
<path fill="none" stroke="#63b8ff" d="M566.91,-187.1C553.52,-182.82 539.06,-178.2 526.49,-174.19"/>
<polygon fill="#63b8ff" stroke="#63b8ff" points="565.81,-190.42 576.4,-190.13 567.94,-183.75 565.81,-190.42"/>
</a>
</g>
</g>
<!-- Node16 -->
<g id="Node000016" class="node">
<title>Node16</title>
<g id="a_Node000016"><a xlink:href="../../d3/dee/form__engine_8c.html#abf1be20a8aad5f7ba09172ac1434a110" target="_top" xlink:title="Initialize form data structure and parse description file.">
<polygon fill="white" stroke="#666666" points="642.75,-77.75 582.5,-77.75 582.5,-57 642.75,-57 642.75,-77.75"/>
<text xml:space="preserve" text-anchor="middle" x="612.62" y="-64.25" font-family="Helvetica,sans-Serif" font-size="10.00">init_form</text>
</a>
</g>
</g>
<!-- Node15&#45;&gt;Node16 -->
<g id="edge18_Node000015_Node000016" class="edge">
<title>Node15&#45;&gt;Node16</title>
<g id="a_edge18_Node000015_Node000016"><a xlink:title=" ">
<path fill="none" stroke="#63b8ff" d="M691.43,-79.03C675.15,-76.59 657.54,-73.95 643.2,-71.8"/>
<polygon fill="#63b8ff" stroke="#63b8ff" points="690.53,-82.43 700.94,-80.45 691.57,-75.51 690.53,-82.43"/>
</a>
</g>
</g>
<!-- Node16&#45;&gt;Node2 -->
<g id="edge22_Node000016_Node000002" class="edge">
<title>Node16&#45;&gt;Node2</title>
<g id="a_edge22_Node000016_Node000002"><a xlink:title=" ">
<path fill="none" stroke="#63b8ff" d="M571,-64.1C537.43,-62.17 488.62,-61.18 446.5,-67.38 386.85,-76.15 319.92,-99.68 283.73,-113.61"/>
<polygon fill="#63b8ff" stroke="#63b8ff" points="570.49,-67.57 580.7,-64.71 570.94,-60.59 570.49,-67.57"/>
</a>
</g>
</g>
<!-- Node17 -->
<g id="Node000017" class="node">
<title>Node17</title>
<g id="a_Node000017"><a xlink:href="../../d0/d8e/view__engine_8c.html#a2ffea5674e85f124a70e19f745a66583" target="_top" xlink:title="use form to enter a file specification">
<polygon fill="white" stroke="#666666" points="536.75,-20.75 446.5,-20.75 446.5,0 536.75,0 536.75,-20.75"/>
<text xml:space="preserve" text-anchor="middle" x="491.62" y="-7.25" font-family="Helvetica,sans-Serif" font-size="10.00">enter_file_spec</text>
</a>
</g>
</g>
<!-- Node16&#45;&gt;Node17 -->
<g id="edge19_Node000016_Node000017" class="edge">
<title>Node16&#45;&gt;Node17</title>
<g id="a_edge19_Node000016_Node000017"><a xlink:title=" ">
<path fill="none" stroke="#63b8ff" d="M578.64,-51.58C558.45,-41.9 533.13,-29.78 515.2,-21.19"/>
<polygon fill="#63b8ff" stroke="#63b8ff" points="577.07,-54.7 587.6,-55.87 580.09,-48.39 577.07,-54.7"/>
</a>
</g>
</g>
<!-- Node18 -->
<g id="Node000018" class="node">
<title>Node18</title>
<g id="a_Node000018"><a xlink:href="../../d5/d97/form_8c.html#a3c04138a5bfe5d72780bb7e82a18e627" target="_top" xlink:title=" ">
<polygon fill="white" stroke="#666666" points="512,-96.75 471.25,-96.75 471.25,-76 512,-76 512,-96.75"/>
<text xml:space="preserve" text-anchor="middle" x="491.62" y="-83.25" font-family="Helvetica,sans-Serif" font-size="10.00">main</text>
</a>
</g>
</g>
<!-- Node16&#45;&gt;Node18 -->
<g id="edge21_Node000016_Node000018" class="edge">
<title>Node16&#45;&gt;Node18</title>
<g id="a_edge21_Node000016_Node000018"><a xlink:title=" ">
<path fill="none" stroke="#63b8ff" d="M570.99,-73.86C551.2,-77.02 528.31,-80.68 512.4,-83.22"/>
<polygon fill="#63b8ff" stroke="#63b8ff" points="571.39,-77.34 580.71,-72.31 570.29,-70.43 571.39,-77.34"/>
</a>
</g>
</g>
<!-- Node17&#45;&gt;Node5 -->
<g id="edge20_Node000017_Node000005" class="edge">
<title>Node17&#45;&gt;Node5</title>
<g id="a_edge20_Node000017_Node000005"><a xlink:title=" ">
<path fill="none" stroke="#63b8ff" d="M548.21,-10.02C598.44,-9.73 674.43,-9.38 740.5,-9.38 856,-9.38 856,-9.38 856,-9.38 943.65,-9.38 1029.98,-85.29 1059.27,-113.76"/>
<polygon fill="#63b8ff" stroke="#63b8ff" points="548.45,-6.52 538.47,-10.08 548.49,-13.52 548.45,-6.52"/>
</a>
</g>
</g>
<!-- Node19&#45;&gt;Node5 -->
<g id="edge26_Node000019_Node000005" class="edge">
<title>Node19&#45;&gt;Node5</title>
<g id="a_edge26_Node000019_Node000005"><a xlink:title=" ">
<path fill="none" stroke="#63b8ff" d="M799.48,-60.78C863.07,-75.74 964.72,-99.66 1023.56,-113.51"/>
<polygon fill="#63b8ff" stroke="#63b8ff" points="800.47,-57.42 789.93,-58.54 798.86,-64.23 800.47,-57.42"/>
</a>
</g>
</g>
</g>
</svg>
