<?xml version="1.0" encoding="UTF-8" standalone="no"?>
<!DOCTYPE svg PUBLIC "-//W3C//DTD SVG 1.1//EN"
 "http://www.w3.org/Graphics/SVG/1.1/DTD/svg11.dtd">
<!-- Generated by graphviz version 14.1.2 (0)
 -->
<!-- Title: parse_menu_description Pages: 1 -->
<svg width="820pt" height="737pt"
 viewBox="0.00 0.00 820.00 737.00" xmlns="http://www.w3.org/2000/svg" xmlns:xlink="http://www.w3.org/1999/xlink">
<g id="graph0" class="graph" transform="scale(1 1) rotate(0) translate(4 733.14)">
<title>parse_menu_description</title>
<!-- Node1 -->
<g id="Node000001" class="node">
<title>Node1</title>
<g id="a_Node000001"><a xlink:title="Parse menu description file and create Menu.">
<polygon fill="#999999" stroke="#666666" points="135.25,-193.75 0,-193.75 0,-173 135.25,-173 135.25,-193.75"/>
<text xml:space="preserve" text-anchor="middle" x="67.62" y="-180.25" font-family="Helvetica,sans-Serif" font-size="10.00">parse_menu_description</text>
</a>
</g>
</g>
<!-- Node2 -->
<g id="Node000002" class="node">
<title>Node2</title>
<g id="a_Node000002"><a xlink:href="../../dc/d40/dwin_8c.html#a8f6c45ca4a7f6a41c4c88314e697565a" target="_top" xlink:title="Abnormal program termination.">
<polygon fill="white" stroke="#666666" points="518.5,-614.75 472.5,-614.75 472.5,-594 518.5,-594 518.5,-614.75"/>
<text xml:space="preserve" text-anchor="middle" x="495.5" y="-601.25" font-family="Helvetica,sans-Serif" font-size="10.00">abend</text>
</a>
</g>
</g>
<!-- Node1&#45;&gt;Node2 -->
<g id="edge1_Node000001_Node000002" class="edge">
<title>Node1&#45;&gt;Node2</title>
<g id="a_edge1_Node000001_Node000002"><a xlink:title=" ">
<path fill="none" stroke="#63b8ff" d="M69.39,-193.88C74.73,-258.13 112.54,-598.67 320,-700.38 357.21,-718.62 375.65,-717.81 413.25,-700.38 422.12,-696.26 458.31,-650.96 479.28,-624.08"/>
<polygon fill="#63b8ff" stroke="#63b8ff" points="481.94,-626.37 485.31,-616.32 476.41,-622.07 481.94,-626.37"/>
</a>
</g>
</g>
<!-- Node6 -->
<g id="Node000006" class="node">
<title>Node6</title>
<g id="a_Node000006"><a xlink:href="../../d0/d59/futil_8c.html#ae2be7c771d0ee7a8c81ebf10331bd449" target="_top" xlink:title="Replaces all occurrences of old_chr in s with new_chr in place.">
<polygon fill="white" stroke="#666666" points="249.12,-98.75 206.12,-98.75 206.12,-78 249.12,-78 249.12,-98.75"/>
<text xml:space="preserve" text-anchor="middle" x="227.62" y="-85.25" font-family="Helvetica,sans-Serif" font-size="10.00">chrep</text>
</a>
</g>
</g>
<!-- Node1&#45;&gt;Node6 -->
<g id="edge7_Node000001_Node000006" class="edge">
<title>Node1&#45;&gt;Node6</title>
<g id="a_edge7_Node000001_Node000006"><a xlink:title=" ">
<path fill="none" stroke="#63b8ff" d="M82.34,-172.58C101.5,-157.81 137.73,-131 171.25,-112.38 178.81,-108.18 187.24,-104.19 195.21,-100.72"/>
<polygon fill="#63b8ff" stroke="#63b8ff" points="196.39,-104.02 204.26,-96.92 193.68,-97.56 196.39,-104.02"/>
</a>
</g>
</g>
<!-- Node7 -->
<g id="Node000007" class="node">
<title>Node7</title>
<g id="a_Node000007"><a xlink:href="../../dc/d40/dwin_8c.html#a67659f8a701b74f4dec0d36227a10d1c" target="_top" xlink:title="Display an error message window or print to stderr.">
<polygon fill="white" stroke="#666666" points="267.5,-499.75 187.75,-499.75 187.75,-479 267.5,-479 267.5,-499.75"/>
<text xml:space="preserve" text-anchor="middle" x="227.62" y="-486.25" font-family="Helvetica,sans-Serif" font-size="10.00">display_error</text>
</a>
</g>
</g>
<!-- Node1&#45;&gt;Node7 -->
<g id="edge8_Node000001_Node000007" class="edge">
<title>Node1&#45;&gt;Node7</title>
<g id="a_edge8_Node000001_Node000007"><a xlink:title=" ">
<path fill="none" stroke="#63b8ff" d="M74.06,-193.91C96.85,-238.04 184.89,-408.54 215.81,-468.43"/>
<polygon fill="#63b8ff" stroke="#63b8ff" points="212.65,-469.94 220.35,-477.22 218.87,-466.73 212.65,-469.94"/>
</a>
</g>
</g>
<!-- Node9 -->
<g id="Node000009" class="node">
<title>Node9</title>
<g id="a_Node000009"><a xlink:href="../../d0/d59/futil_8c.html#aa0145c044cfdde3a1c83323410a59f25" target="_top" xlink:title="safer alternative to strncat">
<polygon fill="white" stroke="#666666" points="528.25,-691.75 462.75,-691.75 462.75,-671 528.25,-671 528.25,-691.75"/>
<text xml:space="preserve" text-anchor="middle" x="495.5" y="-678.25" font-family="Helvetica,sans-Serif" font-size="10.00">strnz__cat</text>
</a>
</g>
</g>
<!-- Node1&#45;&gt;Node9 -->
<g id="edge41_Node000001_Node000009" class="edge">
<title>Node1&#45;&gt;Node9</title>
<g id="a_edge41_Node000001_Node000009"><a xlink:title=" ">
<path fill="none" stroke="#63b8ff" d="M68.16,-194.05C66.38,-247.12 64.82,-485.83 171.25,-632.38 216.52,-694.71 245.74,-700.86 320,-721.38 359.95,-732.41 372.89,-730.77 413.25,-721.38 432.78,-716.83 453.02,-706.88 468.42,-698.04"/>
<polygon fill="#63b8ff" stroke="#63b8ff" points="470.14,-701.09 476.93,-692.96 466.55,-695.08 470.14,-701.09"/>
</a>
</g>
</g>
<!-- Node13 -->
<g id="Node000013" class="node">
<title>Node13</title>
<g id="a_Node000013"><a xlink:href="../../d0/d59/futil_8c.html#a63eb94756fb011a456a3dec900709cd8" target="_top" xlink:title="ssnprintf was designed to be a safer alternative to snprintf.">
<polygon fill="white" stroke="#666666" points="524.88,-308.75 466.12,-308.75 466.12,-288 524.88,-288 524.88,-308.75"/>
<text xml:space="preserve" text-anchor="middle" x="495.5" y="-295.25" font-family="Helvetica,sans-Serif" font-size="10.00">ssnprintf</text>
</a>
</g>
</g>
<!-- Node1&#45;&gt;Node13 -->
<g id="edge40_Node000001_Node000013" class="edge">
<title>Node1&#45;&gt;Node13</title>
<g id="a_edge40_Node000001_Node000013"><a xlink:title=" ">
<path fill="none" stroke="#63b8ff" d="M135.46,-180.88C221.68,-178.71 366.18,-178.95 413.25,-202.38 422,-206.73 458.24,-251.94 479.25,-278.73"/>
<polygon fill="#63b8ff" stroke="#63b8ff" points="476.38,-280.74 485.29,-286.47 481.89,-276.43 476.38,-280.74"/>
</a>
</g>
</g>
<!-- Node15 -->
<g id="Node000015" class="node">
<title>Node15</title>
<g id="a_Node000015"><a xlink:href="../../d0/d59/futil_8c.html#a0de2e40df9bd7efc8fd9afb8ad2257e6" target="_top" xlink:title="safer alternative to strncpy">
<polygon fill="white" stroke="#666666" points="529.38,-174.75 461.62,-174.75 461.62,-154 529.38,-154 529.38,-174.75"/>
<text xml:space="preserve" text-anchor="middle" x="495.5" y="-161.25" font-family="Helvetica,sans-Serif" font-size="10.00">strnz__cpy</text>
</a>
</g>
</g>
<!-- Node1&#45;&gt;Node15 -->
<g id="edge42_Node000001_Node000015" class="edge">
<title>Node1&#45;&gt;Node15</title>
<g id="a_edge42_Node000001_Node000015"><a xlink:title=" ">
<path fill="none" stroke="#63b8ff" d="M135.58,-173.11C147.44,-171.61 159.69,-170.28 171.25,-169.38 270.6,-161.62 387.64,-162.22 450.03,-163.31"/>
<polygon fill="#63b8ff" stroke="#63b8ff" points="449.82,-166.81 459.88,-163.5 449.95,-159.81 449.82,-166.81"/>
</a>
</g>
</g>
<!-- Node22 -->
<g id="Node000022" class="node">
<title>Node22</title>
<g id="a_Node000022"><a xlink:href="../../d1/db0/parse__menu__desc_8c.html#a1989771e09ef0e00c4cec786094d1d26" target="_top" xlink:title="Get command type from command string.">
<polygon fill="white" stroke="#666666" points="284,-59.75 171.25,-59.75 171.25,-39 284,-39 284,-59.75"/>
<text xml:space="preserve" text-anchor="middle" x="227.62" y="-46.25" font-family="Helvetica,sans-Serif" font-size="10.00">get_command_type</text>
</a>
</g>
</g>
<!-- Node1&#45;&gt;Node22 -->
<g id="edge28_Node000001_Node000022" class="edge">
<title>Node1&#45;&gt;Node22</title>
<g id="a_edge28_Node000001_Node000022"><a xlink:title=" ">
<path fill="none" stroke="#63b8ff" d="M75.53,-172.67C90.41,-150.38 127.72,-98.66 171.25,-69.38 173.59,-67.8 176.06,-66.34 178.62,-64.97"/>
<polygon fill="#63b8ff" stroke="#63b8ff" points="179.84,-68.27 187.4,-60.85 176.86,-61.93 179.84,-68.27"/>
</a>
</g>
</g>
<!-- Node23 -->
<g id="Node000023" class="node">
<title>Node23</title>
<g id="a_Node000023"><a xlink:href="../../dc/d40/dwin_8c.html#a61b4f28456257f68ed042bed7f187efd" target="_top" xlink:title="Display a simple error message window or print to stderr.">
<polygon fill="white" stroke="#666666" points="250.25,-345.75 205,-345.75 205,-325 250.25,-325 250.25,-345.75"/>
<text xml:space="preserve" text-anchor="middle" x="227.62" y="-332.25" font-family="Helvetica,sans-Serif" font-size="10.00">Perror</text>
</a>
</g>
</g>
<!-- Node1&#45;&gt;Node23 -->
<g id="edge29_Node000001_Node000023" class="edge">
<title>Node1&#45;&gt;Node23</title>
<g id="a_edge29_Node000001_Node000023"><a xlink:title=" ">
<path fill="none" stroke="#63b8ff" d="M79.74,-194.06C106.43,-219.74 174.43,-285.16 207.7,-317.17"/>
<polygon fill="#63b8ff" stroke="#63b8ff" points="205.01,-319.44 214.65,-323.85 209.87,-314.4 205.01,-319.44"/>
</a>
</g>
</g>
<!-- Node24 -->
<g id="Node000024" class="node">
<title>Node24</title>
<g id="a_Node000024"><a xlink:href="../../d0/d59/futil_8c.html#a34703756fd5be0fde758400f320db047" target="_top" xlink:title="Trims leading and trailing spaces from string s in place.">
<polygon fill="white" stroke="#666666" points="245.75,-20.75 209.5,-20.75 209.5,0 245.75,0 245.75,-20.75"/>
<text xml:space="preserve" text-anchor="middle" x="227.62" y="-7.25" font-family="Helvetica,sans-Serif" font-size="10.00">trim</text>
</a>
</g>
</g>
<!-- Node1&#45;&gt;Node24 -->
<g id="edge43_Node000001_Node000024" class="edge">
<title>Node1&#45;&gt;Node24</title>
<g id="a_edge43_Node000001_Node000024"><a xlink:title=" ">
<path fill="none" stroke="#63b8ff" d="M72.9,-172.79C84.52,-145.29 119.33,-70.94 171.25,-30.38 179.09,-24.25 188.99,-19.88 198.23,-16.83"/>
<polygon fill="#63b8ff" stroke="#63b8ff" points="198.91,-20.28 207.55,-14.15 196.97,-13.55 198.91,-20.28"/>
</a>
</g>
</g>
<!-- Node3 -->
<g id="Node000003" class="node">
<title>Node3</title>
<g id="a_Node000003"><a xlink:href="../../dc/d40/dwin_8c.html#afc0985a403e3eac0b2cd8f0fab500256" target="_top" xlink:title="Gracefully shut down NCurses and restore terminal settings.">
<polygon fill="white" stroke="#666666" points="667.25,-614.75 577.75,-614.75 577.75,-594 667.25,-594 667.25,-614.75"/>
<text xml:space="preserve" text-anchor="middle" x="622.5" y="-601.25" font-family="Helvetica,sans-Serif" font-size="10.00">destroy_curses</text>
</a>
</g>
</g>
<!-- Node2&#45;&gt;Node3 -->
<g id="edge2_Node000002_Node000003" class="edge">
<title>Node2&#45;&gt;Node3</title>
<g id="a_edge2_Node000002_Node000003"><a xlink:title=" ">
<path fill="none" stroke="#63b8ff" d="M518.85,-604.38C532.03,-604.38 549.34,-604.38 565.98,-604.38"/>
<polygon fill="#63b8ff" stroke="#63b8ff" points="565.82,-607.88 575.82,-604.38 565.82,-600.88 565.82,-607.88"/>
</a>
</g>
</g>
<!-- Node4 -->
<g id="Node000004" class="node">
<title>Node4</title>
<g id="a_Node000004"><a xlink:href="../../d7/d72/scriou_8c.html#ac5e3adb304b78910fc77761ef6a743f0" target="_top" xlink:title="restore_shell_tioctl() &#45; restore shell terminal settings">
<polygon fill="white" stroke="#666666" points="812.25,-642.75 703.25,-642.75 703.25,-622 812.25,-622 812.25,-642.75"/>
<text xml:space="preserve" text-anchor="middle" x="757.75" y="-629.25" font-family="Helvetica,sans-Serif" font-size="10.00">restore_shell_tioctl</text>
</a>
</g>
</g>
<!-- Node2&#45;&gt;Node4 -->
<g id="edge5_Node000002_Node000004" class="edge">
<title>Node2&#45;&gt;Node4</title>
<g id="a_edge5_Node000002_Node000004"><a xlink:title=" ">
<path fill="none" stroke="#63b8ff" d="M518.71,-610.71C534.93,-615.05 557.52,-620.53 577.75,-623.38 615.26,-628.66 657.57,-630.95 691.64,-631.91"/>
<polygon fill="#63b8ff" stroke="#63b8ff" points="691.26,-635.4 701.34,-632.14 691.43,-628.4 691.26,-635.4"/>
</a>
</g>
</g>
<!-- Node5 -->
<g id="Node000005" class="node">
<title>Node5</title>
<g id="a_Node000005"><a xlink:href="../../da/d12/sig_8c.html#a06c1eb6cf3649dc187115565409f91af" target="_top" xlink:title="Set signal handlers to default behavior.">
<polygon fill="white" stroke="#666666" points="798.38,-594.75 717.12,-594.75 717.12,-574 798.38,-574 798.38,-594.75"/>
<text xml:space="preserve" text-anchor="middle" x="757.75" y="-581.25" font-family="Helvetica,sans-Serif" font-size="10.00">sig_dfl_mode</text>
</a>
</g>
</g>
<!-- Node2&#45;&gt;Node5 -->
<g id="edge6_Node000002_Node000005" class="edge">
<title>Node2&#45;&gt;Node5</title>
<g id="a_edge6_Node000002_Node000005"><a xlink:title=" ">
<path fill="none" stroke="#63b8ff" d="M518.68,-597.77C534.88,-593.29 557.47,-587.77 577.75,-585.38 620.64,-580.31 669.71,-580.45 705.61,-581.63"/>
<polygon fill="#63b8ff" stroke="#63b8ff" points="705.14,-585.12 715.27,-581.99 705.4,-578.12 705.14,-585.12"/>
</a>
</g>
</g>
<!-- Node3&#45;&gt;Node4 -->
<g id="edge3_Node000003_Node000004" class="edge">
<title>Node3&#45;&gt;Node4</title>
<g id="a_edge3_Node000003_Node000004"><a xlink:title=" ">
<path fill="none" stroke="#63b8ff" d="M667.5,-613.62C676.12,-615.43 685.32,-617.37 694.41,-619.28"/>
<polygon fill="#63b8ff" stroke="#63b8ff" points="693.41,-622.64 703.92,-621.27 694.85,-615.79 693.41,-622.64"/>
</a>
</g>
</g>
<!-- Node3&#45;&gt;Node5 -->
<g id="edge4_Node000003_Node000005" class="edge">
<title>Node3&#45;&gt;Node5</title>
<g id="a_edge4_Node000003_Node000005"><a xlink:title=" ">
<path fill="none" stroke="#63b8ff" d="M667.5,-597.77C679.69,-595.94 693.02,-593.94 705.58,-592.06"/>
<polygon fill="#63b8ff" stroke="#63b8ff" points="705.98,-595.54 715.35,-590.59 704.94,-588.61 705.98,-595.54"/>
</a>
</g>
</g>
<!-- Node7&#45;&gt;Node2 -->
<g id="edge9_Node000007_Node000002" class="edge">
<title>Node7&#45;&gt;Node2</title>
<g id="a_edge9_Node000007_Node000002"><a xlink:title=" ">
<path fill="none" stroke="#63b8ff" d="M231.96,-500.08C240.99,-526.97 268.75,-597.18 320,-624.38 364.67,-648.08 424.7,-632.68 461.44,-618.89"/>
<polygon fill="#63b8ff" stroke="#63b8ff" points="462.62,-622.19 470.64,-615.26 460.05,-615.67 462.62,-622.19"/>
</a>
</g>
</g>
<!-- Node8 -->
<g id="Node000008" class="node">
<title>Node8</title>
<g id="a_Node000008"><a xlink:href="../../dc/d40/dwin_8c.html#a645871e46277e31736bc36d0f3dce4bd" target="_top" xlink:title="construct the chyron string from the chyron structure">
<polygon fill="white" stroke="#666666" points="413.25,-615.75 320,-615.75 320,-595 413.25,-595 413.25,-615.75"/>
<text xml:space="preserve" text-anchor="middle" x="366.62" y="-602.25" font-family="Helvetica,sans-Serif" font-size="10.00">compile_chyron</text>
</a>
</g>
</g>
<!-- Node7&#45;&gt;Node8 -->
<g id="edge10_Node000007_Node000008" class="edge">
<title>Node7&#45;&gt;Node8</title>
<g id="a_edge10_Node000007_Node000008"><a xlink:title=" ">
<path fill="none" stroke="#63b8ff" d="M236.58,-500.22C251.21,-519.55 284.21,-560.27 320,-585.38 321.94,-586.73 323.98,-588.03 326.08,-589.26"/>
<polygon fill="#63b8ff" stroke="#63b8ff" points="324.39,-592.33 334.88,-593.85 327.63,-586.12 324.39,-592.33"/>
</a>
</g>
</g>
<!-- Node10 -->
<g id="Node000010" class="node">
<title>Node10</title>
<g id="a_Node000010"><a xlink:href="../../dc/d40/dwin_8c.html#a3f3feb40fd703913c5c136331f627c91" target="_top" xlink:title="Destroy Chyron structure.">
<polygon fill="white" stroke="#666666" points="412.12,-423.75 321.12,-423.75 321.12,-403 412.12,-403 412.12,-423.75"/>
<text xml:space="preserve" text-anchor="middle" x="366.62" y="-410.25" font-family="Helvetica,sans-Serif" font-size="10.00">destroy_chyron</text>
</a>
</g>
</g>
<!-- Node7&#45;&gt;Node10 -->
<g id="edge12_Node000007_Node000010" class="edge">
<title>Node7&#45;&gt;Node10</title>
<g id="a_edge12_Node000007_Node000010"><a xlink:title=" ">
<path fill="none" stroke="#63b8ff" d="M247.07,-478.64C265.46,-467.99 294.54,-451.31 320,-437.38 324.75,-434.77 329.81,-432.06 334.77,-429.43"/>
<polygon fill="#63b8ff" stroke="#63b8ff" points="336.1,-432.69 343.31,-424.93 332.83,-426.49 336.1,-432.69"/>
</a>
</g>
</g>
<!-- Node11 -->
<g id="Node000011" class="node">
<title>Node11</title>
<g id="a_Node000011"><a xlink:href="../../dc/d40/dwin_8c.html#ad37d5808ff30ae6894780425d865abae" target="_top" xlink:title="Create and initialize Chyron structure.">
<polygon fill="white" stroke="#666666" points="403.88,-576.75 329.38,-576.75 329.38,-556 403.88,-556 403.88,-576.75"/>
<text xml:space="preserve" text-anchor="middle" x="366.62" y="-563.25" font-family="Helvetica,sans-Serif" font-size="10.00">new_chyron</text>
</a>
</g>
</g>
<!-- Node7&#45;&gt;Node11 -->
<g id="edge13_Node000007_Node000011" class="edge">
<title>Node7&#45;&gt;Node11</title>
<g id="a_edge13_Node000007_Node000011"><a xlink:title=" ">
<path fill="none" stroke="#63b8ff" d="M244.39,-500.19C262.28,-512.23 292.55,-531.89 320,-546.38 322.87,-547.89 325.88,-549.39 328.92,-550.84"/>
<polygon fill="#63b8ff" stroke="#63b8ff" points="327.34,-553.97 337.88,-554.96 330.26,-547.61 327.34,-553.97"/>
</a>
</g>
</g>
<!-- Node12 -->
<g id="Node000012" class="node">
<title>Node12</title>
<g id="a_Node000012"><a xlink:href="../../dc/d40/dwin_8c.html#a208ce92c197fdd6d2b007987e534aa3b" target="_top" xlink:title="Set chyron key.">
<polygon fill="white" stroke="#666666" points="412.5,-345.75 320.75,-345.75 320.75,-325 412.5,-325 412.5,-345.75"/>
<text xml:space="preserve" text-anchor="middle" x="366.62" y="-332.25" font-family="Helvetica,sans-Serif" font-size="10.00">set_chyron_key</text>
</a>
</g>
</g>
<!-- Node7&#45;&gt;Node12 -->
<g id="edge15_Node000007_Node000012" class="edge">
<title>Node7&#45;&gt;Node12</title>
<g id="a_edge15_Node000007_Node000012"><a xlink:title=" ">
<path fill="none" stroke="#63b8ff" d="M233.26,-478.85C244.64,-454.13 276.23,-391.7 320,-355.38 321.65,-354.01 323.4,-352.72 325.23,-351.5"/>
<polygon fill="#63b8ff" stroke="#63b8ff" points="326.53,-354.79 333.48,-346.8 323.06,-348.71 326.53,-354.79"/>
</a>
</g>
</g>
<!-- Node7&#45;&gt;Node13 -->
<g id="edge17_Node000007_Node000013" class="edge">
<title>Node7&#45;&gt;Node13</title>
<g id="a_edge17_Node000007_Node000013"><a xlink:title=" ">
<path fill="none" stroke="#63b8ff" d="M267.83,-494.41C308.1,-497.44 370.74,-495.95 413.25,-465.38 462.4,-430.02 483.16,-356.68 490.74,-320.1"/>
<polygon fill="#63b8ff" stroke="#63b8ff" points="494.09,-321.18 492.54,-310.7 487.22,-319.87 494.09,-321.18"/>
</a>
</g>
</g>
<!-- Node14 -->
<g id="Node000014" class="node">
<title>Node14</title>
<g id="a_Node000014"><a xlink:href="../../d0/d59/futil_8c.html#a636608f26d1193b5d860f2312cd8ee49" target="_top" xlink:title="terminates string at New Line, Carriage Return, or max_len">
<polygon fill="white" stroke="#666666" points="386.62,-691.75 346.62,-691.75 346.62,-671 386.62,-671 386.62,-691.75"/>
<text xml:space="preserve" text-anchor="middle" x="366.62" y="-678.25" font-family="Helvetica,sans-Serif" font-size="10.00">strnz</text>
</a>
</g>
</g>
<!-- Node7&#45;&gt;Node14 -->
<g id="edge18_Node000007_Node000014" class="edge">
<title>Node7&#45;&gt;Node14</title>
<g id="a_edge18_Node000007_Node000014"><a xlink:title=" ">
<path fill="none" stroke="#63b8ff" d="M232.01,-500.18C241.52,-529.06 271.07,-609.12 320,-657.38 324.62,-661.93 330.28,-665.83 336.03,-669.08"/>
<polygon fill="#63b8ff" stroke="#63b8ff" points="334.39,-672.18 344.89,-673.55 337.54,-665.93 334.39,-672.18"/>
</a>
</g>
</g>
<!-- Node7&#45;&gt;Node15 -->
<g id="edge19_Node000007_Node000015" class="edge">
<title>Node7&#45;&gt;Node15</title>
<g id="a_edge19_Node000007_Node000015"><a xlink:title=" ">
<path fill="none" stroke="#63b8ff" d="M267.35,-478.55C320.03,-463.66 408.34,-438.05 413.25,-432.38 480.95,-354.13 398.4,-292.48 449.25,-202.38 453.72,-194.46 460.51,-187.47 467.49,-181.72"/>
<polygon fill="#63b8ff" stroke="#63b8ff" points="469.17,-184.83 475.05,-176.02 464.96,-179.24 469.17,-184.83"/>
</a>
</g>
</g>
<!-- Node16 -->
<g id="Node000016" class="node">
<title>Node16</title>
<g id="a_Node000016"><a xlink:href="../../dc/d40/dwin_8c.html#a9dd598e1d49c8764af1eec42c682623e" target="_top" xlink:title="Delete the current window and its associated box window.">
<polygon fill="white" stroke="#666666" points="393.38,-384.75 339.88,-384.75 339.88,-364 393.38,-364 393.38,-384.75"/>
<text xml:space="preserve" text-anchor="middle" x="366.62" y="-371.25" font-family="Helvetica,sans-Serif" font-size="10.00">win_del</text>
</a>
</g>
</g>
<!-- Node7&#45;&gt;Node16 -->
<g id="edge20_Node000007_Node000016" class="edge">
<title>Node7&#45;&gt;Node16</title>
<g id="a_edge20_Node000007_Node000016"><a xlink:title=" ">
<path fill="none" stroke="#63b8ff" d="M236.6,-478.65C251.28,-459.53 284.34,-419.25 320,-394.38 322.98,-392.3 326.21,-390.36 329.53,-388.58"/>
<polygon fill="#63b8ff" stroke="#63b8ff" points="330.75,-391.88 338.22,-384.36 327.7,-385.58 330.75,-391.88"/>
</a>
</g>
</g>
<!-- Node17 -->
<g id="Node000017" class="node">
<title>Node17</title>
<g id="a_Node000017"><a xlink:href="../../dc/d40/dwin_8c.html#a435c7bff7ffedb8f51c6de9259e36f6c" target="_top" xlink:title="Create a new window with optional box and title.">
<polygon fill="white" stroke="#666666" points="396,-231.75 337.25,-231.75 337.25,-211 396,-211 396,-231.75"/>
<text xml:space="preserve" text-anchor="middle" x="366.62" y="-218.25" font-family="Helvetica,sans-Serif" font-size="10.00">win_new</text>
</a>
</g>
</g>
<!-- Node7&#45;&gt;Node17 -->
<g id="edge21_Node000007_Node000017" class="edge">
<title>Node7&#45;&gt;Node17</title>
<g id="a_edge21_Node000007_Node000017"><a xlink:title=" ">
<path fill="none" stroke="#63b8ff" d="M234.17,-478.54C254.82,-438.13 327.57,-295.81 355.03,-242.1"/>
<polygon fill="#63b8ff" stroke="#63b8ff" points="358.04,-243.9 359.48,-233.4 351.81,-240.71 358.04,-243.9"/>
</a>
</g>
</g>
<!-- Node19 -->
<g id="Node000019" class="node">
<title>Node19</title>
<g id="a_Node000019"><a xlink:href="../../dc/d40/dwin_8c.html#acf4c709bccc4c965a5d61db978db31a3" target="_top" xlink:title="Wrapper for wgetch that handles signals and mouse events.">
<polygon fill="white" stroke="#666666" points="395.25,-537.75 338,-537.75 338,-517 395.25,-517 395.25,-537.75"/>
<text xml:space="preserve" text-anchor="middle" x="366.62" y="-524.25" font-family="Helvetica,sans-Serif" font-size="10.00">xwgetch</text>
</a>
</g>
</g>
<!-- Node7&#45;&gt;Node19 -->
<g id="edge24_Node000007_Node000019" class="edge">
<title>Node7&#45;&gt;Node19</title>
<g id="a_edge24_Node000007_Node000019"><a xlink:title=" ">
<path fill="none" stroke="#63b8ff" d="M267.88,-494.09C288.77,-499.01 314.12,-506.16 333.77,-512.73"/>
<polygon fill="#63b8ff" stroke="#63b8ff" points="332.58,-516.03 343.18,-516.02 334.89,-509.42 332.58,-516.03"/>
</a>
</g>
</g>
<!-- Node8&#45;&gt;Node9 -->
<g id="edge11_Node000008_Node000009" class="edge">
<title>Node8&#45;&gt;Node9</title>
<g id="a_edge11_Node000008_Node000009"><a xlink:title=" ">
<path fill="none" stroke="#63b8ff" d="M385.53,-616.1C406.69,-628.78 442.13,-650.01 466.83,-664.8"/>
<polygon fill="#63b8ff" stroke="#63b8ff" points="465.01,-667.79 475.38,-669.92 468.6,-661.78 465.01,-667.79"/>
</a>
</g>
</g>
<!-- Node11&#45;&gt;Node2 -->
<g id="edge14_Node000011_Node000002" class="edge">
<title>Node11&#45;&gt;Node2</title>
<g id="a_edge14_Node000011_Node000002"><a xlink:title=" ">
<path fill="none" stroke="#63b8ff" d="M403.64,-577.16C421.79,-582.6 443.65,-589.14 461.38,-594.45"/>
<polygon fill="#63b8ff" stroke="#63b8ff" points="460.32,-597.79 470.9,-597.31 462.32,-591.08 460.32,-597.79"/>
</a>
</g>
</g>
<!-- Node12&#45;&gt;Node13 -->
<g id="edge16_Node000012_Node000013" class="edge">
<title>Node12&#45;&gt;Node13</title>
<g id="a_edge16_Node000012_Node000013"><a xlink:title=" ">
<path fill="none" stroke="#63b8ff" d="M404.66,-324.57C420.47,-319.96 438.94,-314.58 455.01,-309.89"/>
<polygon fill="#63b8ff" stroke="#63b8ff" points="455.61,-313.36 464.23,-307.2 453.65,-306.64 455.61,-313.36"/>
</a>
</g>
</g>
<!-- Node17&#45;&gt;Node15 -->
<g id="edge23_Node000017_Node000015" class="edge">
<title>Node17&#45;&gt;Node15</title>
<g id="a_edge23_Node000017_Node000015"><a xlink:title=" ">
<path fill="none" stroke="#63b8ff" d="M391.79,-210.52C411.1,-201.84 438.42,-189.57 460.03,-179.86"/>
<polygon fill="#63b8ff" stroke="#63b8ff" points="461.36,-183.1 469.05,-175.81 458.49,-176.72 461.36,-183.1"/>
</a>
</g>
</g>
<!-- Node18 -->
<g id="Node000018" class="node">
<title>Node18</title>
<g id="a_Node000018"><a xlink:href="../../dc/d40/dwin_8c.html#ac9adcf7339be4a05ab1a7350c236b8a5" target="_top" xlink:title="Draw a box around the specified window.">
<polygon fill="white" stroke="#666666" points="515.12,-231.75 475.88,-231.75 475.88,-211 515.12,-211 515.12,-231.75"/>
<text xml:space="preserve" text-anchor="middle" x="495.5" y="-218.25" font-family="Helvetica,sans-Serif" font-size="10.00">cbox</text>
</a>
</g>
</g>
<!-- Node17&#45;&gt;Node18 -->
<g id="edge22_Node000017_Node000018" class="edge">
<title>Node17&#45;&gt;Node18</title>
<g id="a_edge22_Node000017_Node000018"><a xlink:title=" ">
<path fill="none" stroke="#63b8ff" d="M396.41,-221.38C416.71,-221.38 443.82,-221.38 464.4,-221.38"/>
<polygon fill="#63b8ff" stroke="#63b8ff" points="464.14,-224.88 474.14,-221.38 464.14,-217.88 464.14,-224.88"/>
</a>
</g>
</g>
<!-- Node19&#45;&gt;Node7 -->
<g id="edge25_Node000019_Node000007" class="edge">
<title>Node19&#45;&gt;Node7</title>
<g id="a_edge25_Node000019_Node000007"><a xlink:title=" ">
<path fill="none" stroke="#63b8ff" d="M337.98,-525.25C315.48,-520.53 283.73,-511.81 260.23,-503.93"/>
<polygon fill="#63b8ff" stroke="#63b8ff" points="261.46,-500.65 250.86,-500.66 259.14,-507.26 261.46,-500.65"/>
</a>
</g>
</g>
<!-- Node20 -->
<g id="Node000020" class="node">
<title>Node20</title>
<g id="a_Node000020"><a xlink:href="../../dc/d40/dwin_8c.html#a4298f891699300bfc4e6e56fd2a8d574" target="_top" xlink:title="Get keycode from chyron.">
<polygon fill="white" stroke="#666666" points="541.75,-537.75 449.25,-537.75 449.25,-517 541.75,-517 541.75,-537.75"/>
<text xml:space="preserve" text-anchor="middle" x="495.5" y="-524.25" font-family="Helvetica,sans-Serif" font-size="10.00">get_chyron_key</text>
</a>
</g>
</g>
<!-- Node19&#45;&gt;Node20 -->
<g id="edge26_Node000019_Node000020" class="edge">
<title>Node19&#45;&gt;Node20</title>
<g id="a_edge26_Node000019_Node000020"><a xlink:title=" ">
<path fill="none" stroke="#63b8ff" d="M395.47,-527.38C407.79,-527.38 422.75,-527.38 437.28,-527.38"/>
<polygon fill="#63b8ff" stroke="#63b8ff" points="437.26,-530.88 447.26,-527.38 437.26,-523.88 437.26,-530.88"/>
</a>
</g>
</g>
<!-- Node21 -->
<g id="Node000021" class="node">
<title>Node21</title>
<g id="a_Node000021"><a xlink:href="../../d0/d6b/cm_8h.html#a0667873879b5846c3fe2fa2cc96059d6" target="_top" xlink:title=" ">
<polygon fill="white" stroke="#666666" points="537.25,-498.75 453.75,-498.75 453.75,-478 537.25,-478 537.25,-498.75"/>
<text xml:space="preserve" text-anchor="middle" x="495.5" y="-485.25" font-family="Helvetica,sans-Serif" font-size="10.00">handle_signal</text>
</a>
</g>
</g>
<!-- Node19&#45;&gt;Node21 -->
<g id="edge27_Node000019_Node000021" class="edge">
<title>Node19&#45;&gt;Node21</title>
<g id="a_edge27_Node000019_Node000021"><a xlink:title=" ">
<path fill="none" stroke="#63b8ff" d="M395.47,-518.82C411.05,-514.03 430.88,-507.93 448.69,-502.46"/>
<polygon fill="#63b8ff" stroke="#63b8ff" points="449.48,-505.87 458.01,-499.59 447.43,-499.18 449.48,-505.87"/>
</a>
</g>
</g>
<!-- Node23&#45;&gt;Node2 -->
<g id="edge30_Node000023_Node000002" class="edge">
<title>Node23&#45;&gt;Node2</title>
<g id="a_edge30_Node000023_Node000002"><a xlink:title=" ">
<path fill="none" stroke="#63b8ff" d="M249.24,-324.58C286.73,-306.63 366.49,-276.36 413.25,-316.38 491.87,-383.64 408.11,-451.44 449.25,-546.38 455.46,-560.7 466.05,-574.56 475.42,-585.14"/>
<polygon fill="#63b8ff" stroke="#63b8ff" points="472.81,-587.47 482.18,-592.41 477.94,-582.71 472.81,-587.47"/>
</a>
</g>
</g>
<!-- Node23&#45;&gt;Node8 -->
<g id="edge31_Node000023_Node000008" class="edge">
<title>Node23&#45;&gt;Node8</title>
<g id="a_edge31_Node000023_Node000008"><a xlink:title=" ">
<path fill="none" stroke="#63b8ff" d="M233.39,-346.1C243.4,-368.79 267.06,-423.43 284,-470.38 302.18,-520.75 284.26,-545.48 320,-585.38 320.84,-586.31 321.73,-587.2 322.66,-588.05"/>
<polygon fill="#63b8ff" stroke="#63b8ff" points="320.56,-590.86 330.74,-593.82 324.63,-585.16 320.56,-590.86"/>
</a>
</g>
</g>
<!-- Node23&#45;&gt;Node10 -->
<g id="edge32_Node000023_Node000010" class="edge">
<title>Node23&#45;&gt;Node10</title>
<g id="a_edge32_Node000023_Node000010"><a xlink:title=" ">
<path fill="none" stroke="#63b8ff" d="M244.04,-346.18C261.86,-358.44 292.3,-378.63 320,-393.38 322.86,-394.9 325.87,-396.41 328.91,-397.87"/>
<polygon fill="#63b8ff" stroke="#63b8ff" points="327.32,-400.99 337.87,-401.99 330.25,-394.63 327.32,-400.99"/>
</a>
</g>
</g>
<!-- Node23&#45;&gt;Node11 -->
<g id="edge33_Node000023_Node000011" class="edge">
<title>Node23&#45;&gt;Node11</title>
<g id="a_edge33_Node000023_Node000011"><a xlink:title=" ">
<path fill="none" stroke="#63b8ff" d="M232.96,-345.97C250.06,-387.67 312.24,-538.58 320,-546.38 321.03,-547.41 322.12,-548.39 323.26,-549.33"/>
<polygon fill="#63b8ff" stroke="#63b8ff" points="321.25,-552.19 331.52,-554.79 325.11,-546.35 321.25,-552.19"/>
</a>
</g>
</g>
<!-- Node23&#45;&gt;Node12 -->
<g id="edge34_Node000023_Node000012" class="edge">
<title>Node23&#45;&gt;Node12</title>
<g id="a_edge34_Node000023_Node000012"><a xlink:title=" ">
<path fill="none" stroke="#63b8ff" d="M250.64,-335.38C266.46,-335.38 288.56,-335.38 309.16,-335.38"/>
<polygon fill="#63b8ff" stroke="#63b8ff" points="308.88,-338.88 318.88,-335.38 308.88,-331.88 308.88,-338.88"/>
</a>
</g>
</g>
<!-- Node23&#45;&gt;Node13 -->
<g id="edge35_Node000023_Node000013" class="edge">
<title>Node23&#45;&gt;Node13</title>
<g id="a_edge35_Node000023_Node000013"><a xlink:title=" ">
<path fill="none" stroke="#63b8ff" d="M242.18,-324.62C259.19,-311.88 289.83,-291.36 320,-283.38 365.22,-271.41 419.12,-279.24 454.92,-287.4"/>
<polygon fill="#63b8ff" stroke="#63b8ff" points="453.87,-290.75 464.41,-289.68 455.5,-283.94 453.87,-290.75"/>
</a>
</g>
</g>
<!-- Node23&#45;&gt;Node15 -->
<g id="edge36_Node000023_Node000015" class="edge">
<title>Node23&#45;&gt;Node15</title>
<g id="a_edge36_Node000023_Node000015"><a xlink:title=" ">
<path fill="none" stroke="#63b8ff" d="M232.68,-324.71C243,-299.14 272.8,-234.09 320,-202.38 358.83,-176.28 412.51,-167.75 450.04,-165.14"/>
<polygon fill="#63b8ff" stroke="#63b8ff" points="449.84,-168.65 459.63,-164.59 449.45,-161.67 449.84,-168.65"/>
</a>
</g>
</g>
<!-- Node23&#45;&gt;Node16 -->
<g id="edge37_Node000023_Node000016" class="edge">
<title>Node23&#45;&gt;Node16</title>
<g id="a_edge37_Node000023_Node000016"><a xlink:title=" ">
<path fill="none" stroke="#63b8ff" d="M250.64,-341.64C271.63,-347.62 303.64,-356.73 328.57,-363.83"/>
<polygon fill="#63b8ff" stroke="#63b8ff" points="327.42,-367.14 338,-366.51 329.34,-360.41 327.42,-367.14"/>
</a>
</g>
</g>
<!-- Node23&#45;&gt;Node17 -->
<g id="edge38_Node000023_Node000017" class="edge">
<title>Node23&#45;&gt;Node17</title>
<g id="a_edge38_Node000023_Node000017"><a xlink:title=" ">
<path fill="none" stroke="#63b8ff" d="M237.63,-324.64C253.12,-306.64 286.38,-269.94 320,-245.38 323.82,-242.58 328.01,-239.92 332.25,-237.45"/>
<polygon fill="#63b8ff" stroke="#63b8ff" points="333.67,-240.67 340.77,-232.81 330.31,-234.52 333.67,-240.67"/>
</a>
</g>
</g>
<!-- Node23&#45;&gt;Node19 -->
<g id="edge39_Node000023_Node000019" class="edge">
<title>Node23&#45;&gt;Node19</title>
<g id="a_edge39_Node000023_Node000019"><a xlink:title=" ">
<path fill="none" stroke="#63b8ff" d="M236.38,-346.25C258.57,-377.34 322.51,-466.95 351.29,-507.28"/>
<polygon fill="#63b8ff" stroke="#63b8ff" points="348.42,-509.28 357.07,-515.39 354.11,-505.22 348.42,-509.28"/>
</a>
</g>
</g>
</g>
</svg>
