<?xml version="1.0" encoding="UTF-8" standalone="no"?>
<!DOCTYPE svg PUBLIC "-//W3C//DTD SVG 1.1//EN"
 "http://www.w3.org/Graphics/SVG/1.1/DTD/svg11.dtd">
<!-- Generated by graphviz version 14.1.2 (0)
 -->
<!-- Title: new_view Pages: 1 -->
<svg width="724pt" height="555pt"
 viewBox="0.00 0.00 724.00 555.00" xmlns="http://www.w3.org/2000/svg" xmlns:xlink="http://www.w3.org/1999/xlink">
<g id="graph0" class="graph" transform="scale(1 1) rotate(0) translate(4 550.75)">
<title>new_view</title>
<!-- Node1 -->
<g id="Node000001" class="node">
<title>Node1</title>
<g id="a_Node000001"><a xlink:title="Create and initialize View structure.">
<polygon fill="#999999" stroke="#666666" points="64.75,-346.75 0,-346.75 0,-326 64.75,-326 64.75,-346.75"/>
<text xml:space="preserve" text-anchor="middle" x="32.38" y="-333.25" font-family="Helvetica,sans-Serif" font-size="10.00">new_view</text>
</a>
</g>
</g>
<!-- Node2 -->
<g id="Node000002" class="node">
<title>Node2</title>
<g id="a_Node000002"><a xlink:href="../../dc/d40/dwin_8c.html#a8f6c45ca4a7f6a41c4c88314e697565a" target="_top" xlink:title="Abnormal program termination.">
<polygon fill="white" stroke="#666666" points="421.75,-518.75 375.75,-518.75 375.75,-498 421.75,-498 421.75,-518.75"/>
<text xml:space="preserve" text-anchor="middle" x="398.75" y="-505.25" font-family="Helvetica,sans-Serif" font-size="10.00">abend</text>
</a>
</g>
</g>
<!-- Node1&#45;&gt;Node2 -->
<g id="edge1_Node000001_Node000002" class="edge">
<title>Node1&#45;&gt;Node2</title>
<g id="a_edge1_Node000001_Node000002"><a xlink:title=" ">
<path fill="none" stroke="#63b8ff" d="M40.02,-346.93C61.55,-379.96 133.19,-481.33 223.25,-517.38 269.5,-535.89 328.22,-526.94 364.38,-518.15"/>
<polygon fill="#63b8ff" stroke="#63b8ff" points="365.01,-521.61 373.82,-515.72 363.26,-514.83 365.01,-521.61"/>
</a>
</g>
</g>
<!-- Node6 -->
<g id="Node000006" class="node">
<title>Node6</title>
<g id="a_Node000006"><a xlink:href="../../dc/d40/dwin_8c.html#a67659f8a701b74f4dec0d36227a10d1c" target="_top" xlink:title="Display an error message window or print to stderr.">
<polygon fill="white" stroke="#666666" points="183.88,-289.75 104.12,-289.75 104.12,-269 183.88,-269 183.88,-289.75"/>
<text xml:space="preserve" text-anchor="middle" x="144" y="-276.25" font-family="Helvetica,sans-Serif" font-size="10.00">display_error</text>
</a>
</g>
</g>
<!-- Node1&#45;&gt;Node6 -->
<g id="edge7_Node000001_Node000006" class="edge">
<title>Node1&#45;&gt;Node6</title>
<g id="a_edge7_Node000001_Node000006"><a xlink:title=" ">
<path fill="none" stroke="#63b8ff" d="M54.25,-325.52C70.64,-317 93.69,-305.02 112.19,-295.4"/>
<polygon fill="#63b8ff" stroke="#63b8ff" points="113.6,-298.61 120.86,-290.89 110.37,-292.4 113.6,-298.61"/>
</a>
</g>
</g>
<!-- Node12 -->
<g id="Node000012" class="node">
<title>Node12</title>
<g id="a_Node000012"><a xlink:href="../../d0/d59/futil_8c.html#a63eb94756fb011a456a3dec900709cd8" target="_top" xlink:title="ssnprintf was designed to be a safer alternative to snprintf.">
<polygon fill="white" stroke="#666666" points="428.12,-327.75 369.38,-327.75 369.38,-307 428.12,-307 428.12,-327.75"/>
<text xml:space="preserve" text-anchor="middle" x="398.75" y="-314.25" font-family="Helvetica,sans-Serif" font-size="10.00">ssnprintf</text>
</a>
</g>
</g>
<!-- Node1&#45;&gt;Node12 -->
<g id="edge30_Node000001_Node000012" class="edge">
<title>Node1&#45;&gt;Node12</title>
<g id="a_edge30_Node000001_Node000012"><a xlink:title=" ">
<path fill="none" stroke="#63b8ff" d="M59.4,-347.23C110.06,-366.78 224.99,-403.27 316.5,-374.38 340.54,-366.78 363.63,-349.26 379.02,-335.63"/>
<polygon fill="#63b8ff" stroke="#63b8ff" points="381.03,-338.53 386.02,-329.18 376.29,-333.38 381.03,-338.53"/>
</a>
</g>
</g>
<!-- Node21 -->
<g id="Node000021" class="node">
<title>Node21</title>
<g id="a_Node000021"><a xlink:href="../../d3/d8f/mem_8c.html#ac5213483d722f8f1bd5c28fbbb55369e" target="_top" xlink:title="Initialize Pick file specifications.">
<polygon fill="white" stroke="#666666" points="187.25,-97.75 100.75,-97.75 100.75,-77 187.25,-77 187.25,-97.75"/>
<text xml:space="preserve" text-anchor="middle" x="144" y="-84.25" font-family="Helvetica,sans-Serif" font-size="10.00">init_view_files</text>
</a>
</g>
</g>
<!-- Node1&#45;&gt;Node21 -->
<g id="edge27_Node000001_Node000021" class="edge">
<title>Node1&#45;&gt;Node21</title>
<g id="a_edge27_Node000001_Node000021"><a xlink:title=" ">
<path fill="none" stroke="#63b8ff" d="M38.09,-325.68C54.78,-287.76 111.3,-159.38 133.72,-108.45"/>
<polygon fill="#63b8ff" stroke="#63b8ff" points="136.87,-109.98 137.7,-99.42 130.46,-107.16 136.87,-109.98"/>
</a>
</g>
</g>
<!-- Node3 -->
<g id="Node000003" class="node">
<title>Node3</title>
<g id="a_Node000003"><a xlink:href="../../dc/d40/dwin_8c.html#afc0985a403e3eac0b2cd8f0fab500256" target="_top" xlink:title="Gracefully shut down NCurses and restore terminal settings.">
<polygon fill="white" stroke="#666666" points="570.5,-518.75 481,-518.75 481,-498 570.5,-498 570.5,-518.75"/>
<text xml:space="preserve" text-anchor="middle" x="525.75" y="-505.25" font-family="Helvetica,sans-Serif" font-size="10.00">destroy_curses</text>
</a>
</g>
</g>
<!-- Node2&#45;&gt;Node3 -->
<g id="edge2_Node000002_Node000003" class="edge">
<title>Node2&#45;&gt;Node3</title>
<g id="a_edge2_Node000002_Node000003"><a xlink:title=" ">
<path fill="none" stroke="#63b8ff" d="M422.1,-508.38C435.28,-508.38 452.59,-508.38 469.23,-508.38"/>
<polygon fill="#63b8ff" stroke="#63b8ff" points="469.07,-511.88 479.07,-508.38 469.07,-504.88 469.07,-511.88"/>
</a>
</g>
</g>
<!-- Node4 -->
<g id="Node000004" class="node">
<title>Node4</title>
<g id="a_Node000004"><a xlink:href="../../d7/d72/scriou_8c.html#ac5e3adb304b78910fc77761ef6a743f0" target="_top" xlink:title="restore_shell_tioctl() &#45; restore shell terminal settings">
<polygon fill="white" stroke="#666666" points="715.5,-546.75 606.5,-546.75 606.5,-526 715.5,-526 715.5,-546.75"/>
<text xml:space="preserve" text-anchor="middle" x="661" y="-533.25" font-family="Helvetica,sans-Serif" font-size="10.00">restore_shell_tioctl</text>
</a>
</g>
</g>
<!-- Node2&#45;&gt;Node4 -->
<g id="edge5_Node000002_Node000004" class="edge">
<title>Node2&#45;&gt;Node4</title>
<g id="a_edge5_Node000002_Node000004"><a xlink:title=" ">
<path fill="none" stroke="#63b8ff" d="M421.96,-514.71C438.18,-519.05 460.77,-524.53 481,-527.38 518.51,-532.66 560.82,-534.95 594.89,-535.91"/>
<polygon fill="#63b8ff" stroke="#63b8ff" points="594.51,-539.4 604.59,-536.14 594.68,-532.4 594.51,-539.4"/>
</a>
</g>
</g>
<!-- Node5 -->
<g id="Node000005" class="node">
<title>Node5</title>
<g id="a_Node000005"><a xlink:href="../../da/d12/sig_8c.html#a06c1eb6cf3649dc187115565409f91af" target="_top" xlink:title="Set signal handlers to default behavior.">
<polygon fill="white" stroke="#666666" points="701.62,-498.75 620.38,-498.75 620.38,-478 701.62,-478 701.62,-498.75"/>
<text xml:space="preserve" text-anchor="middle" x="661" y="-485.25" font-family="Helvetica,sans-Serif" font-size="10.00">sig_dfl_mode</text>
</a>
</g>
</g>
<!-- Node2&#45;&gt;Node5 -->
<g id="edge6_Node000002_Node000005" class="edge">
<title>Node2&#45;&gt;Node5</title>
<g id="a_edge6_Node000002_Node000005"><a xlink:title=" ">
<path fill="none" stroke="#63b8ff" d="M421.93,-501.77C438.13,-497.29 460.72,-491.77 481,-489.38 523.89,-484.31 572.96,-484.45 608.86,-485.63"/>
<polygon fill="#63b8ff" stroke="#63b8ff" points="608.39,-489.12 618.52,-485.99 608.65,-482.12 608.39,-489.12"/>
</a>
</g>
</g>
<!-- Node3&#45;&gt;Node4 -->
<g id="edge3_Node000003_Node000004" class="edge">
<title>Node3&#45;&gt;Node4</title>
<g id="a_edge3_Node000003_Node000004"><a xlink:title=" ">
<path fill="none" stroke="#63b8ff" d="M570.75,-517.62C579.37,-519.43 588.57,-521.37 597.66,-523.28"/>
<polygon fill="#63b8ff" stroke="#63b8ff" points="596.66,-526.64 607.17,-525.27 598.1,-519.79 596.66,-526.64"/>
</a>
</g>
</g>
<!-- Node3&#45;&gt;Node5 -->
<g id="edge4_Node000003_Node000005" class="edge">
<title>Node3&#45;&gt;Node5</title>
<g id="a_edge4_Node000003_Node000005"><a xlink:title=" ">
<path fill="none" stroke="#63b8ff" d="M570.75,-501.77C582.94,-499.94 596.27,-497.94 608.83,-496.06"/>
<polygon fill="#63b8ff" stroke="#63b8ff" points="609.23,-499.54 618.6,-494.59 608.19,-492.61 609.23,-499.54"/>
</a>
</g>
</g>
<!-- Node6&#45;&gt;Node2 -->
<g id="edge8_Node000006_Node000002" class="edge">
<title>Node6&#45;&gt;Node2</title>
<g id="a_edge8_Node000006_Node000002"><a xlink:title=" ">
<path fill="none" stroke="#63b8ff" d="M145.3,-289.86C146.91,-324.8 157.23,-438 223.25,-489.38 263.68,-520.84 326.26,-519.17 364.46,-514.32"/>
<polygon fill="#63b8ff" stroke="#63b8ff" points="364.58,-517.84 373.99,-512.96 363.59,-510.91 364.58,-517.84"/>
</a>
</g>
</g>
<!-- Node7 -->
<g id="Node000007" class="node">
<title>Node7</title>
<g id="a_Node000007"><a xlink:href="../../dc/d40/dwin_8c.html#a645871e46277e31736bc36d0f3dce4bd" target="_top" xlink:title="construct the chyron string from the chyron structure">
<polygon fill="white" stroke="#666666" points="316.5,-441.75 223.25,-441.75 223.25,-421 316.5,-421 316.5,-441.75"/>
<text xml:space="preserve" text-anchor="middle" x="269.88" y="-428.25" font-family="Helvetica,sans-Serif" font-size="10.00">compile_chyron</text>
</a>
</g>
</g>
<!-- Node6&#45;&gt;Node7 -->
<g id="edge9_Node000006_Node000007" class="edge">
<title>Node6&#45;&gt;Node7</title>
<g id="a_edge9_Node000006_Node000007"><a xlink:title=" ">
<path fill="none" stroke="#63b8ff" d="M153.51,-289.82C174.11,-315.1 226.87,-379.84 253.3,-412.26"/>
<polygon fill="#63b8ff" stroke="#63b8ff" points="250.31,-414.14 259.34,-419.68 255.74,-409.72 250.31,-414.14"/>
</a>
</g>
</g>
<!-- Node9 -->
<g id="Node000009" class="node">
<title>Node9</title>
<g id="a_Node000009"><a xlink:href="../../dc/d40/dwin_8c.html#a3f3feb40fd703913c5c136331f627c91" target="_top" xlink:title="Destroy Chyron structure.">
<polygon fill="white" stroke="#666666" points="315.38,-365.75 224.38,-365.75 224.38,-345 315.38,-345 315.38,-365.75"/>
<text xml:space="preserve" text-anchor="middle" x="269.88" y="-352.25" font-family="Helvetica,sans-Serif" font-size="10.00">destroy_chyron</text>
</a>
</g>
</g>
<!-- Node6&#45;&gt;Node9 -->
<g id="edge11_Node000006_Node000009" class="edge">
<title>Node6&#45;&gt;Node9</title>
<g id="a_edge11_Node000006_Node000009"><a xlink:title=" ">
<path fill="none" stroke="#63b8ff" d="M160.29,-290.21C175.85,-301.08 200.8,-318.06 223.25,-331.38 227.7,-334.01 232.47,-336.69 237.18,-339.24"/>
<polygon fill="#63b8ff" stroke="#63b8ff" points="235.46,-342.29 245.93,-343.88 238.74,-336.1 235.46,-342.29"/>
</a>
</g>
</g>
<!-- Node10 -->
<g id="Node000010" class="node">
<title>Node10</title>
<g id="a_Node000010"><a xlink:href="../../dc/d40/dwin_8c.html#ad37d5808ff30ae6894780425d865abae" target="_top" xlink:title="Create and initialize Chyron structure.">
<polygon fill="white" stroke="#666666" points="307.12,-480.75 232.62,-480.75 232.62,-460 307.12,-460 307.12,-480.75"/>
<text xml:space="preserve" text-anchor="middle" x="269.88" y="-467.25" font-family="Helvetica,sans-Serif" font-size="10.00">new_chyron</text>
</a>
</g>
</g>
<!-- Node6&#45;&gt;Node10 -->
<g id="edge12_Node000006_Node000010" class="edge">
<title>Node6&#45;&gt;Node10</title>
<g id="a_edge12_Node000006_Node000010"><a xlink:title=" ">
<path fill="none" stroke="#63b8ff" d="M147.12,-290.13C153.44,-319.63 174.85,-402.74 223.25,-450.38 224.29,-451.4 225.39,-452.37 226.54,-453.3"/>
<polygon fill="#63b8ff" stroke="#63b8ff" points="224.55,-456.18 234.83,-458.73 228.38,-450.32 224.55,-456.18"/>
</a>
</g>
</g>
<!-- Node11 -->
<g id="Node000011" class="node">
<title>Node11</title>
<g id="a_Node000011"><a xlink:href="../../dc/d40/dwin_8c.html#a208ce92c197fdd6d2b007987e534aa3b" target="_top" xlink:title="Set chyron key.">
<polygon fill="white" stroke="#666666" points="315.75,-289.75 224,-289.75 224,-269 315.75,-269 315.75,-289.75"/>
<text xml:space="preserve" text-anchor="middle" x="269.88" y="-276.25" font-family="Helvetica,sans-Serif" font-size="10.00">set_chyron_key</text>
</a>
</g>
</g>
<!-- Node6&#45;&gt;Node11 -->
<g id="edge14_Node000006_Node000011" class="edge">
<title>Node6&#45;&gt;Node11</title>
<g id="a_edge14_Node000006_Node000011"><a xlink:title=" ">
<path fill="none" stroke="#63b8ff" d="M184.19,-279.38C193.16,-279.38 202.87,-279.38 212.41,-279.38"/>
<polygon fill="#63b8ff" stroke="#63b8ff" points="212.38,-282.88 222.38,-279.38 212.38,-275.88 212.38,-282.88"/>
</a>
</g>
</g>
<!-- Node6&#45;&gt;Node12 -->
<g id="edge16_Node000006_Node000012" class="edge">
<title>Node6&#45;&gt;Node12</title>
<g id="a_edge16_Node000006_Node000012"><a xlink:title=" ">
<path fill="none" stroke="#63b8ff" d="M184.2,-289.95C196.61,-293.01 210.44,-296.13 223.25,-298.38 269.1,-306.4 322.35,-311.61 357.86,-314.51"/>
<polygon fill="#63b8ff" stroke="#63b8ff" points="357.43,-317.99 367.67,-315.29 357.98,-311.01 357.43,-317.99"/>
</a>
</g>
</g>
<!-- Node13 -->
<g id="Node000013" class="node">
<title>Node13</title>
<g id="a_Node000013"><a xlink:href="../../d0/d59/futil_8c.html#a636608f26d1193b5d860f2312cd8ee49" target="_top" xlink:title="terminates string at New Line, Carriage Return, or max_len">
<polygon fill="white" stroke="#666666" points="289.88,-250.75 249.88,-250.75 249.88,-230 289.88,-230 289.88,-250.75"/>
<text xml:space="preserve" text-anchor="middle" x="269.88" y="-237.25" font-family="Helvetica,sans-Serif" font-size="10.00">strnz</text>
</a>
</g>
</g>
<!-- Node6&#45;&gt;Node13 -->
<g id="edge17_Node000006_Node000013" class="edge">
<title>Node6&#45;&gt;Node13</title>
<g id="a_edge17_Node000006_Node000013"><a xlink:title=" ">
<path fill="none" stroke="#63b8ff" d="M179.51,-268.51C198.06,-262.67 220.74,-255.53 238.6,-249.91"/>
<polygon fill="#63b8ff" stroke="#63b8ff" points="239.63,-253.25 248.11,-246.91 237.52,-246.58 239.63,-253.25"/>
</a>
</g>
</g>
<!-- Node14 -->
<g id="Node000014" class="node">
<title>Node14</title>
<g id="a_Node000014"><a xlink:href="../../d0/d59/futil_8c.html#a0de2e40df9bd7efc8fd9afb8ad2257e6" target="_top" xlink:title="safer alternative to strncpy">
<polygon fill="white" stroke="#666666" points="432.62,-193.75 364.88,-193.75 364.88,-173 432.62,-173 432.62,-193.75"/>
<text xml:space="preserve" text-anchor="middle" x="398.75" y="-180.25" font-family="Helvetica,sans-Serif" font-size="10.00">strnz__cpy</text>
</a>
</g>
</g>
<!-- Node6&#45;&gt;Node14 -->
<g id="edge18_Node000006_Node000014" class="edge">
<title>Node6&#45;&gt;Node14</title>
<g id="a_edge18_Node000006_Node000014"><a xlink:title=" ">
<path fill="none" stroke="#63b8ff" d="M156.19,-268.62C170.55,-255.45 196.77,-233.4 223.25,-221.38 265.16,-202.35 317.13,-192.61 353.41,-187.79"/>
<polygon fill="#63b8ff" stroke="#63b8ff" points="353.62,-191.29 363.11,-186.58 352.75,-184.34 353.62,-191.29"/>
</a>
</g>
</g>
<!-- Node15 -->
<g id="Node000015" class="node">
<title>Node15</title>
<g id="a_Node000015"><a xlink:href="../../dc/d40/dwin_8c.html#a9dd598e1d49c8764af1eec42c682623e" target="_top" xlink:title="Delete the current window and its associated box window.">
<polygon fill="white" stroke="#666666" points="296.62,-135.75 243.12,-135.75 243.12,-115 296.62,-115 296.62,-135.75"/>
<text xml:space="preserve" text-anchor="middle" x="269.88" y="-122.25" font-family="Helvetica,sans-Serif" font-size="10.00">win_del</text>
</a>
</g>
</g>
<!-- Node6&#45;&gt;Node15 -->
<g id="edge19_Node000006_Node000015" class="edge">
<title>Node6&#45;&gt;Node15</title>
<g id="a_edge19_Node000006_Node000015"><a xlink:title=" ">
<path fill="none" stroke="#63b8ff" d="M148.55,-268.84C157.39,-244.08 182.61,-181.57 223.25,-145.38 226.18,-142.76 229.51,-140.45 232.99,-138.41"/>
<polygon fill="#63b8ff" stroke="#63b8ff" points="234.33,-141.66 241.71,-134.05 231.2,-135.4 234.33,-141.66"/>
</a>
</g>
</g>
<!-- Node16 -->
<g id="Node000016" class="node">
<title>Node16</title>
<g id="a_Node000016"><a xlink:href="../../dc/d40/dwin_8c.html#a435c7bff7ffedb8f51c6de9259e36f6c" target="_top" xlink:title="Create a new window with optional box and title.">
<polygon fill="white" stroke="#666666" points="299.25,-174.75 240.5,-174.75 240.5,-154 299.25,-154 299.25,-174.75"/>
<text xml:space="preserve" text-anchor="middle" x="269.88" y="-161.25" font-family="Helvetica,sans-Serif" font-size="10.00">win_new</text>
</a>
</g>
</g>
<!-- Node6&#45;&gt;Node16 -->
<g id="edge20_Node000006_Node000016" class="edge">
<title>Node6&#45;&gt;Node16</title>
<g id="a_edge20_Node000006_Node000016"><a xlink:title=" ">
<path fill="none" stroke="#63b8ff" d="M152.14,-268.69C164.77,-250.41 192.6,-212.77 223.25,-188.38 226.7,-185.63 230.5,-183.06 234.41,-180.68"/>
<polygon fill="#63b8ff" stroke="#63b8ff" points="235.81,-183.91 242.83,-175.97 232.39,-177.8 235.81,-183.91"/>
</a>
</g>
</g>
<!-- Node18 -->
<g id="Node000018" class="node">
<title>Node18</title>
<g id="a_Node000018"><a xlink:href="../../dc/d40/dwin_8c.html#acf4c709bccc4c965a5d61db978db31a3" target="_top" xlink:title="Wrapper for wgetch that handles signals and mouse events.">
<polygon fill="white" stroke="#666666" points="298.5,-59.75 241.25,-59.75 241.25,-39 298.5,-39 298.5,-59.75"/>
<text xml:space="preserve" text-anchor="middle" x="269.88" y="-46.25" font-family="Helvetica,sans-Serif" font-size="10.00">xwgetch</text>
</a>
</g>
</g>
<!-- Node6&#45;&gt;Node18 -->
<g id="edge23_Node000006_Node000018" class="edge">
<title>Node6&#45;&gt;Node18</title>
<g id="a_edge23_Node000006_Node000018"><a xlink:title=" ">
<path fill="none" stroke="#63b8ff" d="M147.41,-268.88C155.91,-239.51 186.04,-158.08 223.25,-97.38 229.38,-87.38 237.04,-77.16 244.32,-68.61"/>
<polygon fill="#63b8ff" stroke="#63b8ff" points="246.89,-70.99 250.97,-61.21 241.69,-66.31 246.89,-70.99"/>
</a>
</g>
</g>
<!-- Node8 -->
<g id="Node000008" class="node">
<title>Node8</title>
<g id="a_Node000008"><a xlink:href="../../d0/d59/futil_8c.html#aa0145c044cfdde3a1c83323410a59f25" target="_top" xlink:title="safer alternative to strncat">
<polygon fill="white" stroke="#666666" points="431.5,-441.75 366,-441.75 366,-421 431.5,-421 431.5,-441.75"/>
<text xml:space="preserve" text-anchor="middle" x="398.75" y="-428.25" font-family="Helvetica,sans-Serif" font-size="10.00">strnz__cat</text>
</a>
</g>
</g>
<!-- Node7&#45;&gt;Node8 -->
<g id="edge10_Node000007_Node000008" class="edge">
<title>Node7&#45;&gt;Node8</title>
<g id="a_edge10_Node000007_Node000008"><a xlink:title=" ">
<path fill="none" stroke="#63b8ff" d="M316.68,-431.38C328.94,-431.38 342.16,-431.38 354.3,-431.38"/>
<polygon fill="#63b8ff" stroke="#63b8ff" points="354.02,-434.88 364.02,-431.38 354.02,-427.88 354.02,-434.88"/>
</a>
</g>
</g>
<!-- Node10&#45;&gt;Node2 -->
<g id="edge13_Node000010_Node000002" class="edge">
<title>Node10&#45;&gt;Node2</title>
<g id="a_edge13_Node000010_Node000002"><a xlink:title=" ">
<path fill="none" stroke="#63b8ff" d="M306.89,-481.16C325.04,-486.6 346.9,-493.14 364.63,-498.45"/>
<polygon fill="#63b8ff" stroke="#63b8ff" points="363.57,-501.79 374.15,-501.31 365.57,-495.08 363.57,-501.79"/>
</a>
</g>
</g>
<!-- Node11&#45;&gt;Node12 -->
<g id="edge15_Node000011_Node000012" class="edge">
<title>Node11&#45;&gt;Node12</title>
<g id="a_edge15_Node000011_Node000012"><a xlink:title=" ">
<path fill="none" stroke="#63b8ff" d="M306.89,-290.16C322.85,-294.94 341.66,-300.58 358.02,-305.48"/>
<polygon fill="#63b8ff" stroke="#63b8ff" points="356.86,-308.78 367.44,-308.3 358.87,-302.08 356.86,-308.78"/>
</a>
</g>
</g>
<!-- Node16&#45;&gt;Node14 -->
<g id="edge22_Node000016_Node000014" class="edge">
<title>Node16&#45;&gt;Node14</title>
<g id="a_edge22_Node000016_Node000014"><a xlink:title=" ">
<path fill="none" stroke="#63b8ff" d="M299.66,-168.69C315.5,-171.06 335.49,-174.05 353.28,-176.72"/>
<polygon fill="#63b8ff" stroke="#63b8ff" points="352.69,-180.17 363.09,-178.19 353.72,-173.24 352.69,-180.17"/>
</a>
</g>
</g>
<!-- Node17 -->
<g id="Node000017" class="node">
<title>Node17</title>
<g id="a_Node000017"><a xlink:href="../../dc/d40/dwin_8c.html#ac9adcf7339be4a05ab1a7350c236b8a5" target="_top" xlink:title="Draw a box around the specified window.">
<polygon fill="white" stroke="#666666" points="418.38,-154.75 379.12,-154.75 379.12,-134 418.38,-134 418.38,-154.75"/>
<text xml:space="preserve" text-anchor="middle" x="398.75" y="-141.25" font-family="Helvetica,sans-Serif" font-size="10.00">cbox</text>
</a>
</g>
</g>
<!-- Node16&#45;&gt;Node17 -->
<g id="edge21_Node000016_Node000017" class="edge">
<title>Node16&#45;&gt;Node17</title>
<g id="a_edge21_Node000016_Node000017"><a xlink:title=" ">
<path fill="none" stroke="#63b8ff" d="M299.66,-159.84C319.96,-156.64 347.07,-152.36 367.65,-149.12"/>
<polygon fill="#63b8ff" stroke="#63b8ff" points="368.08,-152.6 377.41,-147.58 366.99,-145.68 368.08,-152.6"/>
</a>
</g>
</g>
<!-- Node18&#45;&gt;Node6 -->
<g id="edge24_Node000018_Node000006" class="edge">
<title>Node18&#45;&gt;Node6</title>
<g id="a_edge24_Node000018_Node000006"><a xlink:title=" ">
<path fill="none" stroke="#63b8ff" d="M263.85,-60.01C254.87,-73.39 235.84,-94.84 223.25,-115.38 193.49,-163.93 168.25,-225.75 154.99,-258.04"/>
<polygon fill="#63b8ff" stroke="#63b8ff" points="151.83,-256.55 151.24,-267.13 158.3,-259.22 151.83,-256.55"/>
</a>
</g>
</g>
<!-- Node19 -->
<g id="Node000019" class="node">
<title>Node19</title>
<g id="a_Node000019"><a xlink:href="../../dc/d40/dwin_8c.html#a4298f891699300bfc4e6e56fd2a8d574" target="_top" xlink:title="Get keycode from chyron.">
<polygon fill="white" stroke="#666666" points="445,-78.75 352.5,-78.75 352.5,-58 445,-58 445,-78.75"/>
<text xml:space="preserve" text-anchor="middle" x="398.75" y="-65.25" font-family="Helvetica,sans-Serif" font-size="10.00">get_chyron_key</text>
</a>
</g>
</g>
<!-- Node18&#45;&gt;Node19 -->
<g id="edge25_Node000018_Node000019" class="edge">
<title>Node18&#45;&gt;Node19</title>
<g id="a_edge25_Node000018_Node000019"><a xlink:title=" ">
<path fill="none" stroke="#63b8ff" d="M298.72,-53.54C311.16,-55.41 326.3,-57.67 340.96,-59.87"/>
<polygon fill="#63b8ff" stroke="#63b8ff" points="340.12,-63.28 350.53,-61.3 341.15,-56.36 340.12,-63.28"/>
</a>
</g>
</g>
<!-- Node20 -->
<g id="Node000020" class="node">
<title>Node20</title>
<g id="a_Node000020"><a xlink:href="../../d0/d6b/cm_8h.html#a0667873879b5846c3fe2fa2cc96059d6" target="_top" xlink:title=" ">
<polygon fill="white" stroke="#666666" points="440.5,-39.75 357,-39.75 357,-19 440.5,-19 440.5,-39.75"/>
<text xml:space="preserve" text-anchor="middle" x="398.75" y="-26.25" font-family="Helvetica,sans-Serif" font-size="10.00">handle_signal</text>
</a>
</g>
</g>
<!-- Node18&#45;&gt;Node20 -->
<g id="edge26_Node000018_Node000020" class="edge">
<title>Node18&#45;&gt;Node20</title>
<g id="a_edge26_Node000018_Node000020"><a xlink:title=" ">
<path fill="none" stroke="#63b8ff" d="M298.72,-44.99C312.59,-42.8 329.81,-40.08 345.99,-37.53"/>
<polygon fill="#63b8ff" stroke="#63b8ff" points="346.14,-41.05 355.47,-36.04 345.05,-34.14 346.14,-41.05"/>
</a>
</g>
</g>
<!-- Node21&#45;&gt;Node14 -->
<g id="edge29_Node000021_Node000014" class="edge">
<title>Node21&#45;&gt;Node14</title>
<g id="a_edge29_Node000021_Node000014"><a xlink:title=" ">
<path fill="none" stroke="#63b8ff" d="M187.44,-82.3C224.32,-80.05 277.77,-82.15 316.5,-106.38 341.9,-122.26 329.81,-143.8 352.5,-163.38 353.93,-164.61 355.45,-165.78 357.03,-166.89"/>
<polygon fill="#63b8ff" stroke="#63b8ff" points="354.91,-169.7 365.29,-171.79 358.48,-163.67 354.91,-169.7"/>
</a>
</g>
</g>
<!-- Node22 -->
<g id="Node000022" class="node">
<title>Node22</title>
<g id="a_Node000022"><a xlink:href="../../d0/d59/futil_8c.html#a671225aa841321cad803a383ba99db11" target="_top" xlink:title="removes leading and trailing double quotes if present">
<polygon fill="white" stroke="#666666" points="307.88,-20.75 231.88,-20.75 231.88,0 307.88,0 307.88,-20.75"/>
<text xml:space="preserve" text-anchor="middle" x="269.88" y="-7.25" font-family="Helvetica,sans-Serif" font-size="10.00">strip_quotes</text>
</a>
</g>
</g>
<!-- Node21&#45;&gt;Node22 -->
<g id="edge28_Node000021_Node000022" class="edge">
<title>Node21&#45;&gt;Node22</title>
<g id="a_edge28_Node000021_Node000022"><a xlink:title=" ">
<path fill="none" stroke="#63b8ff" d="M157.97,-76.57C173.03,-64.35 198.91,-44.35 223.25,-30.38 225.9,-28.85 228.69,-27.37 231.53,-25.94"/>
<polygon fill="#63b8ff" stroke="#63b8ff" points="232.94,-29.14 240.49,-21.71 229.95,-22.82 232.94,-29.14"/>
</a>
</g>
</g>
</g>
</svg>
