<?xml version="1.0" encoding="UTF-8" standalone="no"?>
<!DOCTYPE svg PUBLIC "-//W3C//DTD SVG 1.1//EN"
 "http://www.w3.org/Graphics/SVG/1.1/DTD/svg11.dtd">
<!-- Generated by graphviz version 14.1.2 (0)
 -->
<!-- Title: new_init Pages: 1 -->
<svg width="709pt" height="470pt"
 viewBox="0.00 0.00 709.00 470.00" xmlns="http://www.w3.org/2000/svg" xmlns:xlink="http://www.w3.org/1999/xlink">
<g id="graph0" class="graph" transform="scale(1 1) rotate(0) translate(4 465.88)">
<title>new_init</title>
<!-- Node1 -->
<g id="Node000001" class="node">
<title>Node1</title>
<g id="a_Node000001"><a xlink:title="Create and initialize Init structure.">
<polygon fill="#999999" stroke="#666666" points="57.25,-212.88 0,-212.88 0,-192.13 57.25,-192.13 57.25,-212.88"/>
<text xml:space="preserve" text-anchor="middle" x="28.62" y="-199.38" font-family="Helvetica,sans-Serif" font-size="10.00">new_init</text>
</a>
</g>
</g>
<!-- Node2 -->
<g id="Node000002" class="node">
<title>Node2</title>
<g id="a_Node000002"><a xlink:href="../../dc/d40/dwin_8c.html#a8f6c45ca4a7f6a41c4c88314e697565a" target="_top" xlink:title="Abnormal program termination.">
<polygon fill="white" stroke="#666666" points="407.5,-308.88 361.5,-308.88 361.5,-288.13 407.5,-288.13 407.5,-308.88"/>
<text xml:space="preserve" text-anchor="middle" x="384.5" y="-295.38" font-family="Helvetica,sans-Serif" font-size="10.00">abend</text>
</a>
</g>
</g>
<!-- Node1&#45;&gt;Node2 -->
<g id="edge1_Node000001_Node000002" class="edge">
<title>Node1&#45;&gt;Node2</title>
<g id="a_edge1_Node000001_Node000002"><a xlink:title=" ">
<path fill="none" stroke="#63b8ff" d="M37.41,-213.15C59.91,-242.92 128.56,-326.71 209,-356.5 247.86,-370.9 262.78,-369.14 302.25,-356.5 326.53,-348.72 349.74,-330.73 365.09,-316.83"/>
<polygon fill="#63b8ff" stroke="#63b8ff" points="367.18,-319.67 372.06,-310.26 362.38,-314.57 367.18,-319.67"/>
</a>
</g>
</g>
<!-- Node6 -->
<g id="Node000006" class="node">
<title>Node6</title>
<g id="a_Node000006"><a xlink:href="../../dc/d40/dwin_8c.html#a67659f8a701b74f4dec0d36227a10d1c" target="_top" xlink:title="Display an error message window or print to stderr.">
<polygon fill="white" stroke="#666666" points="173,-212.88 93.25,-212.88 93.25,-192.13 173,-192.13 173,-212.88"/>
<text xml:space="preserve" text-anchor="middle" x="133.12" y="-199.38" font-family="Helvetica,sans-Serif" font-size="10.00">display_error</text>
</a>
</g>
</g>
<!-- Node1&#45;&gt;Node6 -->
<g id="edge7_Node000001_Node000006" class="edge">
<title>Node1&#45;&gt;Node6</title>
<g id="a_edge7_Node000001_Node000006"><a xlink:title=" ">
<path fill="none" stroke="#63b8ff" d="M57.63,-202.5C65.05,-202.5 73.28,-202.5 81.5,-202.5"/>
<polygon fill="#63b8ff" stroke="#63b8ff" points="81.5,-206 91.5,-202.5 81.5,-199 81.5,-206"/>
</a>
</g>
</g>
<!-- Node12 -->
<g id="Node000012" class="node">
<title>Node12</title>
<g id="a_Node000012"><a xlink:href="../../d0/d59/futil_8c.html#a63eb94756fb011a456a3dec900709cd8" target="_top" xlink:title="ssnprintf was designed to be a safer alternative to snprintf.">
<polygon fill="white" stroke="#666666" points="413.88,-39.88 355.12,-39.88 355.12,-19.13 413.88,-19.13 413.88,-39.88"/>
<text xml:space="preserve" text-anchor="middle" x="384.5" y="-26.38" font-family="Helvetica,sans-Serif" font-size="10.00">ssnprintf</text>
</a>
</g>
</g>
<!-- Node1&#45;&gt;Node12 -->
<g id="edge27_Node000001_Node000012" class="edge">
<title>Node1&#45;&gt;Node12</title>
<g id="a_edge27_Node000001_Node000012"><a xlink:title=" ">
<path fill="none" stroke="#63b8ff" d="M35.29,-191.83C54.27,-157.43 119.46,-49.39 209,-10.5 253.46,8.8 310.03,-3.21 346.5,-15.08"/>
<polygon fill="#63b8ff" stroke="#63b8ff" points="345.11,-18.31 355.71,-18.24 347.38,-11.68 345.11,-18.31"/>
</a>
</g>
</g>
<!-- Node3 -->
<g id="Node000003" class="node">
<title>Node3</title>
<g id="a_Node000003"><a xlink:href="../../dc/d40/dwin_8c.html#afc0985a403e3eac0b2cd8f0fab500256" target="_top" xlink:title="Gracefully shut down NCurses and restore terminal settings.">
<polygon fill="white" stroke="#666666" points="556.25,-308.88 466.75,-308.88 466.75,-288.13 556.25,-288.13 556.25,-308.88"/>
<text xml:space="preserve" text-anchor="middle" x="511.5" y="-295.38" font-family="Helvetica,sans-Serif" font-size="10.00">destroy_curses</text>
</a>
</g>
</g>
<!-- Node2&#45;&gt;Node3 -->
<g id="edge2_Node000002_Node000003" class="edge">
<title>Node2&#45;&gt;Node3</title>
<g id="a_edge2_Node000002_Node000003"><a xlink:title=" ">
<path fill="none" stroke="#63b8ff" d="M407.85,-298.5C421.03,-298.5 438.34,-298.5 454.98,-298.5"/>
<polygon fill="#63b8ff" stroke="#63b8ff" points="454.82,-302 464.82,-298.5 454.82,-295 454.82,-302"/>
</a>
</g>
</g>
<!-- Node4 -->
<g id="Node000004" class="node">
<title>Node4</title>
<g id="a_Node000004"><a xlink:href="../../d7/d72/scriou_8c.html#ac5e3adb304b78910fc77761ef6a743f0" target="_top" xlink:title="restore_shell_tioctl() &#45; restore shell terminal settings">
<polygon fill="white" stroke="#666666" points="701.25,-336.88 592.25,-336.88 592.25,-316.13 701.25,-316.13 701.25,-336.88"/>
<text xml:space="preserve" text-anchor="middle" x="646.75" y="-323.38" font-family="Helvetica,sans-Serif" font-size="10.00">restore_shell_tioctl</text>
</a>
</g>
</g>
<!-- Node2&#45;&gt;Node4 -->
<g id="edge5_Node000002_Node000004" class="edge">
<title>Node2&#45;&gt;Node4</title>
<g id="a_edge5_Node000002_Node000004"><a xlink:title=" ">
<path fill="none" stroke="#63b8ff" d="M407.71,-304.83C423.93,-309.18 446.52,-314.65 466.75,-317.5 504.26,-322.79 546.57,-325.08 580.64,-326.03"/>
<polygon fill="#63b8ff" stroke="#63b8ff" points="580.26,-329.52 590.34,-326.27 580.43,-322.53 580.26,-329.52"/>
</a>
</g>
</g>
<!-- Node5 -->
<g id="Node000005" class="node">
<title>Node5</title>
<g id="a_Node000005"><a xlink:href="../../da/d12/sig_8c.html#a06c1eb6cf3649dc187115565409f91af" target="_top" xlink:title="Set signal handlers to default behavior.">
<polygon fill="white" stroke="#666666" points="687.38,-288.88 606.12,-288.88 606.12,-268.13 687.38,-268.13 687.38,-288.88"/>
<text xml:space="preserve" text-anchor="middle" x="646.75" y="-275.38" font-family="Helvetica,sans-Serif" font-size="10.00">sig_dfl_mode</text>
</a>
</g>
</g>
<!-- Node2&#45;&gt;Node5 -->
<g id="edge6_Node000002_Node000005" class="edge">
<title>Node2&#45;&gt;Node5</title>
<g id="a_edge6_Node000002_Node000005"><a xlink:title=" ">
<path fill="none" stroke="#63b8ff" d="M407.68,-291.89C423.88,-287.42 446.47,-281.9 466.75,-279.5 509.64,-274.43 558.71,-274.57 594.61,-275.76"/>
<polygon fill="#63b8ff" stroke="#63b8ff" points="594.14,-279.24 604.27,-276.12 594.4,-272.25 594.14,-279.24"/>
</a>
</g>
</g>
<!-- Node3&#45;&gt;Node4 -->
<g id="edge3_Node000003_Node000004" class="edge">
<title>Node3&#45;&gt;Node4</title>
<g id="a_edge3_Node000003_Node000004"><a xlink:title=" ">
<path fill="none" stroke="#63b8ff" d="M556.5,-307.75C565.12,-309.56 574.32,-311.49 583.41,-313.4"/>
<polygon fill="#63b8ff" stroke="#63b8ff" points="582.41,-316.77 592.92,-315.4 583.85,-309.92 582.41,-316.77"/>
</a>
</g>
</g>
<!-- Node3&#45;&gt;Node5 -->
<g id="edge4_Node000003_Node000005" class="edge">
<title>Node3&#45;&gt;Node5</title>
<g id="a_edge4_Node000003_Node000005"><a xlink:title=" ">
<path fill="none" stroke="#63b8ff" d="M556.5,-291.9C568.69,-290.07 582.02,-288.07 594.58,-286.18"/>
<polygon fill="#63b8ff" stroke="#63b8ff" points="594.98,-289.66 604.35,-284.72 593.94,-282.74 594.98,-289.66"/>
</a>
</g>
</g>
<!-- Node6&#45;&gt;Node2 -->
<g id="edge8_Node000006_Node000002" class="edge">
<title>Node6&#45;&gt;Node2</title>
<g id="a_edge8_Node000006_Node000002"><a xlink:title=" ">
<path fill="none" stroke="#63b8ff" d="M152.79,-213.32C167.69,-221.69 189.27,-233.21 209,-241.5 256.98,-261.67 314.77,-279.31 350.32,-289.43"/>
<polygon fill="#63b8ff" stroke="#63b8ff" points="349.01,-292.7 359.58,-292.04 350.9,-285.96 349.01,-292.7"/>
</a>
</g>
</g>
<!-- Node7 -->
<g id="Node000007" class="node">
<title>Node7</title>
<g id="a_Node000007"><a xlink:href="../../dc/d40/dwin_8c.html#a645871e46277e31736bc36d0f3dce4bd" target="_top" xlink:title="construct the chyron string from the chyron structure">
<polygon fill="white" stroke="#666666" points="302.25,-232.88 209,-232.88 209,-212.13 302.25,-212.13 302.25,-232.88"/>
<text xml:space="preserve" text-anchor="middle" x="255.62" y="-219.38" font-family="Helvetica,sans-Serif" font-size="10.00">compile_chyron</text>
</a>
</g>
</g>
<!-- Node6&#45;&gt;Node7 -->
<g id="edge9_Node000006_Node000007" class="edge">
<title>Node6&#45;&gt;Node7</title>
<g id="a_edge9_Node000006_Node000007"><a xlink:title=" ">
<path fill="none" stroke="#63b8ff" d="M173.25,-208.99C181,-210.28 189.28,-211.66 197.48,-213.02"/>
<polygon fill="#63b8ff" stroke="#63b8ff" points="196.64,-216.42 207.07,-214.61 197.78,-209.52 196.64,-216.42"/>
</a>
</g>
</g>
<!-- Node9 -->
<g id="Node000009" class="node">
<title>Node9</title>
<g id="a_Node000009"><a xlink:href="../../dc/d40/dwin_8c.html#a3f3feb40fd703913c5c136331f627c91" target="_top" xlink:title="Destroy Chyron structure.">
<polygon fill="white" stroke="#666666" points="301.12,-78.88 210.12,-78.88 210.12,-58.13 301.12,-58.13 301.12,-78.88"/>
<text xml:space="preserve" text-anchor="middle" x="255.62" y="-65.38" font-family="Helvetica,sans-Serif" font-size="10.00">destroy_chyron</text>
</a>
</g>
</g>
<!-- Node6&#45;&gt;Node9 -->
<g id="edge11_Node000006_Node000009" class="edge">
<title>Node6&#45;&gt;Node9</title>
<g id="a_edge11_Node000006_Node000009"><a xlink:title=" ">
<path fill="none" stroke="#63b8ff" d="M139.13,-191.85C149.54,-170.62 175.39,-122.5 209,-92.5 212.12,-89.71 215.62,-87.15 219.27,-84.81"/>
<polygon fill="#63b8ff" stroke="#63b8ff" points="220.83,-87.95 227.75,-79.92 217.33,-81.88 220.83,-87.95"/>
</a>
</g>
</g>
<!-- Node10 -->
<g id="Node000010" class="node">
<title>Node10</title>
<g id="a_Node000010"><a xlink:href="../../dc/d40/dwin_8c.html#ad37d5808ff30ae6894780425d865abae" target="_top" xlink:title="Create and initialize Chyron structure.">
<polygon fill="white" stroke="#666666" points="292.88,-308.88 218.38,-308.88 218.38,-288.13 292.88,-288.13 292.88,-308.88"/>
<text xml:space="preserve" text-anchor="middle" x="255.62" y="-295.38" font-family="Helvetica,sans-Serif" font-size="10.00">new_chyron</text>
</a>
</g>
</g>
<!-- Node6&#45;&gt;Node10 -->
<g id="edge12_Node000006_Node000010" class="edge">
<title>Node6&#45;&gt;Node10</title>
<g id="a_edge12_Node000006_Node000010"><a xlink:title=" ">
<path fill="none" stroke="#63b8ff" d="M143.49,-213.25C156.94,-228.25 182.97,-255.72 209,-274.5 212.84,-277.27 217.04,-279.92 221.28,-282.38"/>
<polygon fill="#63b8ff" stroke="#63b8ff" points="219.35,-285.31 229.8,-287.02 222.7,-279.16 219.35,-285.31"/>
</a>
</g>
</g>
<!-- Node11 -->
<g id="Node000011" class="node">
<title>Node11</title>
<g id="a_Node000011"><a xlink:href="../../dc/d40/dwin_8c.html#a208ce92c197fdd6d2b007987e534aa3b" target="_top" xlink:title="Set chyron key.">
<polygon fill="white" stroke="#666666" points="301.5,-39.88 209.75,-39.88 209.75,-19.13 301.5,-19.13 301.5,-39.88"/>
<text xml:space="preserve" text-anchor="middle" x="255.62" y="-26.38" font-family="Helvetica,sans-Serif" font-size="10.00">set_chyron_key</text>
</a>
</g>
</g>
<!-- Node6&#45;&gt;Node11 -->
<g id="edge14_Node000006_Node000011" class="edge">
<title>Node6&#45;&gt;Node11</title>
<g id="a_edge14_Node000006_Node000011"><a xlink:title=" ">
<path fill="none" stroke="#63b8ff" d="M136.65,-191.7C143.55,-164.33 165.24,-91.46 209,-49.5 210.21,-48.34 211.5,-47.24 212.84,-46.2"/>
<polygon fill="#63b8ff" stroke="#63b8ff" points="214.54,-49.27 221.12,-40.97 210.8,-43.35 214.54,-49.27"/>
</a>
</g>
</g>
<!-- Node6&#45;&gt;Node12 -->
<g id="edge16_Node000006_Node000012" class="edge">
<title>Node6&#45;&gt;Node12</title>
<g id="a_edge16_Node000006_Node000012"><a xlink:title=" ">
<path fill="none" stroke="#63b8ff" d="M142.22,-191.67C154.89,-175.39 180.86,-144.47 209,-125.5 246.11,-100.48 263.05,-109.09 302.25,-87.5 323.37,-75.87 345.53,-59.75 361.36,-47.46"/>
<polygon fill="#63b8ff" stroke="#63b8ff" points="363.47,-50.25 369.15,-41.31 359.13,-44.76 363.47,-50.25"/>
</a>
</g>
</g>
<!-- Node13 -->
<g id="Node000013" class="node">
<title>Node13</title>
<g id="a_Node000013"><a xlink:href="../../d0/d59/futil_8c.html#a636608f26d1193b5d860f2312cd8ee49" target="_top" xlink:title="terminates string at New Line, Carriage Return, or max_len">
<polygon fill="white" stroke="#666666" points="275.62,-347.88 235.62,-347.88 235.62,-327.13 275.62,-327.13 275.62,-347.88"/>
<text xml:space="preserve" text-anchor="middle" x="255.62" y="-334.38" font-family="Helvetica,sans-Serif" font-size="10.00">strnz</text>
</a>
</g>
</g>
<!-- Node6&#45;&gt;Node13 -->
<g id="edge17_Node000006_Node000013" class="edge">
<title>Node6&#45;&gt;Node13</title>
<g id="a_edge17_Node000006_Node000013"><a xlink:title=" ">
<path fill="none" stroke="#63b8ff" d="M138.52,-213.17C148.16,-235.41 173.21,-287.14 209,-317.5 213.78,-321.56 219.51,-324.92 225.28,-327.66"/>
<polygon fill="#63b8ff" stroke="#63b8ff" points="223.51,-330.71 234.08,-331.34 226.21,-324.25 223.51,-330.71"/>
</a>
</g>
</g>
<!-- Node14 -->
<g id="Node000014" class="node">
<title>Node14</title>
<g id="a_Node000014"><a xlink:href="../../d0/d59/futil_8c.html#a0de2e40df9bd7efc8fd9afb8ad2257e6" target="_top" xlink:title="safer alternative to strncpy">
<polygon fill="white" stroke="#666666" points="418.38,-461.88 350.62,-461.88 350.62,-441.13 418.38,-441.13 418.38,-461.88"/>
<text xml:space="preserve" text-anchor="middle" x="384.5" y="-448.38" font-family="Helvetica,sans-Serif" font-size="10.00">strnz__cpy</text>
</a>
</g>
</g>
<!-- Node6&#45;&gt;Node14 -->
<g id="edge18_Node000006_Node000014" class="edge">
<title>Node6&#45;&gt;Node14</title>
<g id="a_edge18_Node000006_Node000014"><a xlink:title=" ">
<path fill="none" stroke="#63b8ff" d="M133.88,-213.14C133.67,-250.31 138.44,-375.17 209,-432.5 245.12,-461.84 300.24,-462.94 338.84,-459.05"/>
<polygon fill="#63b8ff" stroke="#63b8ff" points="339.22,-462.53 348.74,-457.88 338.4,-455.58 339.22,-462.53"/>
</a>
</g>
</g>
<!-- Node15 -->
<g id="Node000015" class="node">
<title>Node15</title>
<g id="a_Node000015"><a xlink:href="../../dc/d40/dwin_8c.html#a9dd598e1d49c8764af1eec42c682623e" target="_top" xlink:title="Delete the current window and its associated box window.">
<polygon fill="white" stroke="#666666" points="282.38,-193.88 228.88,-193.88 228.88,-173.13 282.38,-173.13 282.38,-193.88"/>
<text xml:space="preserve" text-anchor="middle" x="255.62" y="-180.38" font-family="Helvetica,sans-Serif" font-size="10.00">win_del</text>
</a>
</g>
</g>
<!-- Node6&#45;&gt;Node15 -->
<g id="edge19_Node000006_Node000015" class="edge">
<title>Node6&#45;&gt;Node15</title>
<g id="a_edge19_Node000006_Node000015"><a xlink:title=" ">
<path fill="none" stroke="#63b8ff" d="M173.25,-196.33C187.42,-194.1 203.38,-191.58 217.39,-189.37"/>
<polygon fill="#63b8ff" stroke="#63b8ff" points="217.78,-192.85 227.12,-187.84 216.69,-185.94 217.78,-192.85"/>
</a>
</g>
</g>
<!-- Node16 -->
<g id="Node000016" class="node">
<title>Node16</title>
<g id="a_Node000016"><a xlink:href="../../dc/d40/dwin_8c.html#a435c7bff7ffedb8f51c6de9259e36f6c" target="_top" xlink:title="Create a new window with optional box and title.">
<polygon fill="white" stroke="#666666" points="285,-423.88 226.25,-423.88 226.25,-403.13 285,-403.13 285,-423.88"/>
<text xml:space="preserve" text-anchor="middle" x="255.62" y="-410.38" font-family="Helvetica,sans-Serif" font-size="10.00">win_new</text>
</a>
</g>
</g>
<!-- Node6&#45;&gt;Node16 -->
<g id="edge20_Node000006_Node000016" class="edge">
<title>Node6&#45;&gt;Node16</title>
<g id="a_edge20_Node000006_Node000016"><a xlink:title=" ">
<path fill="none" stroke="#63b8ff" d="M138.28,-213.01C148.57,-238.54 176.75,-305.49 209,-356.5 217.38,-369.76 228.32,-383.52 237.39,-394.2"/>
<polygon fill="#63b8ff" stroke="#63b8ff" points="234.57,-396.29 243.77,-401.55 239.86,-391.71 234.57,-396.29"/>
</a>
</g>
</g>
<!-- Node18 -->
<g id="Node000018" class="node">
<title>Node18</title>
<g id="a_Node000018"><a xlink:href="../../dc/d40/dwin_8c.html#acf4c709bccc4c965a5d61db978db31a3" target="_top" xlink:title="Wrapper for wgetch that handles signals and mouse events.">
<polygon fill="white" stroke="#666666" points="284.25,-154.88 227,-154.88 227,-134.13 284.25,-134.13 284.25,-154.88"/>
<text xml:space="preserve" text-anchor="middle" x="255.62" y="-141.38" font-family="Helvetica,sans-Serif" font-size="10.00">xwgetch</text>
</a>
</g>
</g>
<!-- Node6&#45;&gt;Node18 -->
<g id="edge23_Node000006_Node000018" class="edge">
<title>Node6&#45;&gt;Node18</title>
<g id="a_edge23_Node000006_Node000018"><a xlink:title=" ">
<path fill="none" stroke="#63b8ff" d="M143.26,-191.89C157.29,-181.26 185.01,-166.83 209,-155.5 211.29,-154.42 213.65,-153.33 216.03,-152.25"/>
<polygon fill="#63b8ff" stroke="#63b8ff" points="217.34,-155.5 225.13,-148.32 214.56,-149.07 217.34,-155.5"/>
</a>
</g>
</g>
<!-- Node8 -->
<g id="Node000008" class="node">
<title>Node8</title>
<g id="a_Node000008"><a xlink:href="../../d0/d59/futil_8c.html#aa0145c044cfdde3a1c83323410a59f25" target="_top" xlink:title="safer alternative to strncat">
<polygon fill="white" stroke="#666666" points="417.25,-232.88 351.75,-232.88 351.75,-212.13 417.25,-212.13 417.25,-232.88"/>
<text xml:space="preserve" text-anchor="middle" x="384.5" y="-219.38" font-family="Helvetica,sans-Serif" font-size="10.00">strnz__cat</text>
</a>
</g>
</g>
<!-- Node7&#45;&gt;Node8 -->
<g id="edge10_Node000007_Node000008" class="edge">
<title>Node7&#45;&gt;Node8</title>
<g id="a_edge10_Node000007_Node000008"><a xlink:title=" ">
<path fill="none" stroke="#63b8ff" d="M302.43,-222.5C314.69,-222.5 327.91,-222.5 340.05,-222.5"/>
<polygon fill="#63b8ff" stroke="#63b8ff" points="339.77,-226 349.77,-222.5 339.77,-219 339.77,-226"/>
</a>
</g>
</g>
<!-- Node10&#45;&gt;Node2 -->
<g id="edge13_Node000010_Node000002" class="edge">
<title>Node10&#45;&gt;Node2</title>
<g id="a_edge13_Node000010_Node000002"><a xlink:title=" ">
<path fill="none" stroke="#63b8ff" d="M293.32,-298.5C311.16,-298.5 332.45,-298.5 349.87,-298.5"/>
<polygon fill="#63b8ff" stroke="#63b8ff" points="349.7,-302 359.7,-298.5 349.7,-295 349.7,-302"/>
</a>
</g>
</g>
<!-- Node11&#45;&gt;Node12 -->
<g id="edge15_Node000011_Node000012" class="edge">
<title>Node11&#45;&gt;Node12</title>
<g id="a_edge15_Node000011_Node000012"><a xlink:title=" ">
<path fill="none" stroke="#63b8ff" d="M301.71,-29.5C315.38,-29.5 330.28,-29.5 343.58,-29.5"/>
<polygon fill="#63b8ff" stroke="#63b8ff" points="343.27,-33 353.27,-29.5 343.27,-26 343.27,-33"/>
</a>
</g>
</g>
<!-- Node16&#45;&gt;Node14 -->
<g id="edge22_Node000016_Node000014" class="edge">
<title>Node16&#45;&gt;Node14</title>
<g id="a_edge22_Node000016_Node000014"><a xlink:title=" ">
<path fill="none" stroke="#63b8ff" d="M285.41,-422.12C301.4,-426.91 321.62,-432.97 339.54,-438.33"/>
<polygon fill="#63b8ff" stroke="#63b8ff" points="338.31,-441.62 348.89,-441.14 340.32,-434.91 338.31,-441.62"/>
</a>
</g>
</g>
<!-- Node17 -->
<g id="Node000017" class="node">
<title>Node17</title>
<g id="a_Node000017"><a xlink:href="../../dc/d40/dwin_8c.html#ac9adcf7339be4a05ab1a7350c236b8a5" target="_top" xlink:title="Draw a box around the specified window.">
<polygon fill="white" stroke="#666666" points="404.12,-422.88 364.88,-422.88 364.88,-402.13 404.12,-402.13 404.12,-422.88"/>
<text xml:space="preserve" text-anchor="middle" x="384.5" y="-409.38" font-family="Helvetica,sans-Serif" font-size="10.00">cbox</text>
</a>
</g>
</g>
<!-- Node16&#45;&gt;Node17 -->
<g id="edge21_Node000016_Node000017" class="edge">
<title>Node16&#45;&gt;Node17</title>
<g id="a_edge21_Node000016_Node000017"><a xlink:title=" ">
<path fill="none" stroke="#63b8ff" d="M285.41,-413.27C305.71,-413.11 332.82,-412.9 353.4,-412.74"/>
<polygon fill="#63b8ff" stroke="#63b8ff" points="353.17,-416.24 363.14,-412.66 353.11,-409.24 353.17,-416.24"/>
</a>
</g>
</g>
<!-- Node18&#45;&gt;Node6 -->
<g id="edge24_Node000018_Node000006" class="edge">
<title>Node18&#45;&gt;Node6</title>
<g id="a_edge24_Node000018_Node000006"><a xlink:title=" ">
<path fill="none" stroke="#63b8ff" d="M245.12,-155.37C235.84,-161.41 221.36,-167.66 209,-173.5 200,-177.75 190.47,-182.44 181.34,-186.86"/>
<polygon fill="#63b8ff" stroke="#63b8ff" points="180.12,-183.57 172.61,-191.04 183.14,-189.88 180.12,-183.57"/>
</a>
</g>
</g>
<!-- Node19 -->
<g id="Node000019" class="node">
<title>Node19</title>
<g id="a_Node000019"><a xlink:href="../../dc/d40/dwin_8c.html#a4298f891699300bfc4e6e56fd2a8d574" target="_top" xlink:title="Get keycode from chyron.">
<polygon fill="white" stroke="#666666" points="430.75,-134.88 338.25,-134.88 338.25,-114.13 430.75,-114.13 430.75,-134.88"/>
<text xml:space="preserve" text-anchor="middle" x="384.5" y="-121.38" font-family="Helvetica,sans-Serif" font-size="10.00">get_chyron_key</text>
</a>
</g>
</g>
<!-- Node18&#45;&gt;Node19 -->
<g id="edge25_Node000018_Node000019" class="edge">
<title>Node18&#45;&gt;Node19</title>
<g id="a_edge25_Node000018_Node000019"><a xlink:title=" ">
<path fill="none" stroke="#63b8ff" d="M284.47,-140.11C296.91,-138.15 312.05,-135.76 326.71,-133.45"/>
<polygon fill="#63b8ff" stroke="#63b8ff" points="326.94,-136.96 336.28,-131.95 325.85,-130.05 326.94,-136.96"/>
</a>
</g>
</g>
<!-- Node20 -->
<g id="Node000020" class="node">
<title>Node20</title>
<g id="a_Node000020"><a xlink:href="../../d0/d6b/cm_8h.html#a0667873879b5846c3fe2fa2cc96059d6" target="_top" xlink:title=" ">
<polygon fill="white" stroke="#666666" points="426.25,-173.88 342.75,-173.88 342.75,-153.13 426.25,-153.13 426.25,-173.88"/>
<text xml:space="preserve" text-anchor="middle" x="384.5" y="-160.38" font-family="Helvetica,sans-Serif" font-size="10.00">handle_signal</text>
</a>
</g>
</g>
<!-- Node18&#45;&gt;Node20 -->
<g id="edge26_Node000018_Node000020" class="edge">
<title>Node18&#45;&gt;Node20</title>
<g id="a_edge26_Node000018_Node000020"><a xlink:title=" ">
<path fill="none" stroke="#63b8ff" d="M284.47,-148.67C298.34,-150.75 315.56,-153.33 331.74,-155.75"/>
<polygon fill="#63b8ff" stroke="#63b8ff" points="330.81,-159.15 341.22,-157.17 331.85,-152.23 330.81,-159.15"/>
</a>
</g>
</g>
</g>
</svg>
