<?xml version="1.0" encoding="UTF-8" standalone="no"?>
<!DOCTYPE svg PUBLIC "-//W3C//DTD SVG 1.1//EN"
 "http://www.w3.org/Graphics/SVG/1.1/DTD/svg11.dtd">
<!-- Generated by graphviz version 14.1.2 (0)
 -->
<!-- Title: destroy_form Pages: 1 -->
<svg width="1366pt" height="334pt"
 viewBox="0.00 0.00 1366.00 334.00" xmlns="http://www.w3.org/2000/svg" xmlns:xlink="http://www.w3.org/1999/xlink">
<g id="graph0" class="graph" transform="scale(1 1) rotate(0) translate(4 329.75)">
<title>destroy_form</title>
<!-- Node1 -->
<g id="Node000001" class="node">
<title>Node1</title>
<g id="a_Node000001"><a xlink:title="Destroy Form structure.">
<polygon fill="#999999" stroke="#666666" points="1357.5,-268.75 1276.25,-268.75 1276.25,-248 1357.5,-248 1357.5,-268.75"/>
<text xml:space="preserve" text-anchor="middle" x="1316.88" y="-255.25" font-family="Helvetica,sans-Serif" font-size="10.00">destroy_form</text>
</a>
</g>
</g>
<!-- Node2 -->
<g id="Node000002" class="node">
<title>Node2</title>
<g id="a_Node000002"><a xlink:href="../../d3/d8f/mem_8c.html#aac196563b2f701fba2d1580ac8813de7" target="_top" xlink:title="Destroy Init structure.">
<polygon fill="white" stroke="#666666" points="1091.88,-325.75 1018.12,-325.75 1018.12,-305 1091.88,-305 1091.88,-325.75"/>
<text xml:space="preserve" text-anchor="middle" x="1055" y="-312.25" font-family="Helvetica,sans-Serif" font-size="10.00">destroy_init</text>
</a>
</g>
</g>
<!-- Node1&#45;&gt;Node2 -->
<g id="edge1_Node000001_Node000002" class="edge">
<title>Node1&#45;&gt;Node2</title>
<g id="a_edge1_Node000001_Node000002"><a xlink:title=" ">
<path fill="none" stroke="#63b8ff" d="M1285.41,-274.01C1271.9,-280.33 1255.61,-287.12 1240.25,-291.38 1190.05,-305.3 1129.86,-311.2 1092.26,-313.67"/>
<polygon fill="#63b8ff" stroke="#63b8ff" points="1286.74,-277.26 1294.22,-269.76 1283.7,-270.95 1286.74,-277.26"/>
</a>
</g>
</g>
<!-- Node4 -->
<g id="Node000004" class="node">
<title>Node4</title>
<g id="a_Node000004"><a xlink:href="../../d4/dc1/src_2view__engine_8c.html#a2ffea5674e85f124a70e19f745a66583" target="_top" xlink:title="use form to enter a file specification">
<polygon fill="white" stroke="#666666" points="1240.25,-211.75 1150,-211.75 1150,-191 1240.25,-191 1240.25,-211.75"/>
<text xml:space="preserve" text-anchor="middle" x="1195.12" y="-198.25" font-family="Helvetica,sans-Serif" font-size="10.00">enter_file_spec</text>
</a>
</g>
</g>
<!-- Node1&#45;&gt;Node4 -->
<g id="edge3_Node000001_Node000004" class="edge">
<title>Node1&#45;&gt;Node4</title>
<g id="a_edge3_Node000001_Node000004"><a xlink:title=" ">
<path fill="none" stroke="#63b8ff" d="M1282.68,-242.58C1262.36,-232.9 1236.88,-220.78 1218.85,-212.19"/>
<polygon fill="#63b8ff" stroke="#63b8ff" points="1281.17,-245.73 1291.7,-246.87 1284.18,-239.41 1281.17,-245.73"/>
</a>
</g>
</g>
<!-- Node18 -->
<g id="Node000018" class="node">
<title>Node18</title>
<g id="a_Node000018"><a xlink:href="../../d3/dee/form__engine_8c.html#ada302551bf41bf8ed6132fd34328a47e" target="_top" xlink:title="Form main processing loop.">
<polygon fill="white" stroke="#666666" points="764.5,-249.75 687,-249.75 687,-229 764.5,-229 764.5,-249.75"/>
<text xml:space="preserve" text-anchor="middle" x="725.75" y="-236.25" font-family="Helvetica,sans-Serif" font-size="10.00">form_engine</text>
</a>
</g>
</g>
<!-- Node1&#45;&gt;Node18 -->
<g id="edge28_Node000001_Node000018" class="edge">
<title>Node1&#45;&gt;Node18</title>
<g id="a_edge28_Node000001_Node000018"><a xlink:title=" ">
<path fill="none" stroke="#63b8ff" d="M1264.55,-252.4C1212.19,-246.83 1128.55,-239.38 1056,-239.38 1056,-239.38 1056,-239.38 928.88,-239.38 871.68,-239.38 805.37,-239.38 764.75,-239.38"/>
<polygon fill="#63b8ff" stroke="#63b8ff" points="1264.05,-255.87 1274.37,-253.47 1264.8,-248.91 1264.05,-255.87"/>
</a>
</g>
</g>
<!-- Node19 -->
<g id="Node000019" class="node">
<title>Node19</title>
<g id="a_Node000019"><a xlink:href="../../d3/dee/form__engine_8c.html#abf1be20a8aad5f7ba09172ac1434a110" target="_top" xlink:title="Initialize form data structure and parse description file.">
<polygon fill="white" stroke="#666666" points="627,-249.75 566.75,-249.75 566.75,-229 627,-229 627,-249.75"/>
<text xml:space="preserve" text-anchor="middle" x="596.88" y="-236.25" font-family="Helvetica,sans-Serif" font-size="10.00">init_form</text>
</a>
</g>
</g>
<!-- Node1&#45;&gt;Node19 -->
<g id="edge29_Node000001_Node000019" class="edge">
<title>Node1&#45;&gt;Node19</title>
<g id="a_edge29_Node000001_Node000019"><a xlink:title=" ">
<path fill="none" stroke="#63b8ff" d="M1264.55,-264.35C1212.19,-269.92 1128.55,-277.38 1056,-277.38 1056,-277.38 1056,-277.38 838.25,-277.38 764.21,-277.38 745.57,-271.73 672.75,-258.38 657.58,-255.59 640.93,-251.48 627.19,-247.79"/>
<polygon fill="#63b8ff" stroke="#63b8ff" points="1264.8,-267.84 1274.37,-263.28 1264.05,-260.88 1264.8,-267.84"/>
</a>
</g>
</g>
<!-- Node3 -->
<g id="Node000003" class="node">
<title>Node3</title>
<g id="a_Node000003"><a xlink:href="../../d5/d97/form_8c.html#a3c04138a5bfe5d72780bb7e82a18e627" target="_top" xlink:title=" ">
<polygon fill="white" stroke="#666666" points="504.12,-287.75 463.38,-287.75 463.38,-267 504.12,-267 504.12,-287.75"/>
<text xml:space="preserve" text-anchor="middle" x="483.75" y="-274.25" font-family="Helvetica,sans-Serif" font-size="10.00">main</text>
</a>
</g>
</g>
<!-- Node2&#45;&gt;Node3 -->
<g id="edge2_Node000002_Node000003" class="edge">
<title>Node2&#45;&gt;Node3</title>
<g id="a_edge2_Node000002_Node000003"><a xlink:title=" ">
<path fill="none" stroke="#63b8ff" d="M1006.37,-315.38C963.05,-315.38 897.36,-315.38 840.25,-315.38 840.25,-315.38 840.25,-315.38 724.75,-315.38 642.07,-315.38 545.31,-293.1 504.5,-282.66"/>
<polygon fill="#63b8ff" stroke="#63b8ff" points="1006.18,-318.88 1016.18,-315.38 1006.18,-311.88 1006.18,-318.88"/>
</a>
</g>
</g>
<!-- Node5 -->
<g id="Node000005" class="node">
<title>Node5</title>
<g id="a_Node000005"><a xlink:href="../../d4/dc1/src_2view__engine_8c.html#a9c4b3ba5f73c18b486646c62b933972a" target="_top" xlink:title="Main Command Processing Loop for View.">
<polygon fill="white" stroke="#666666" points="1114,-78.75 996,-78.75 996,-58 1114,-58 1114,-78.75"/>
<text xml:space="preserve" text-anchor="middle" x="1055" y="-65.25" font-family="Helvetica,sans-Serif" font-size="10.00">view_cmd_processor</text>
</a>
</g>
</g>
<!-- Node4&#45;&gt;Node5 -->
<g id="edge4_Node000004_Node000005" class="edge">
<title>Node4&#45;&gt;Node5</title>
<g id="a_edge4_Node000004_Node000005"><a xlink:title=" ">
<path fill="none" stroke="#63b8ff" d="M1175.1,-183.06C1145.86,-154.9 1090.76,-101.84 1067.17,-79.13"/>
<polygon fill="#63b8ff" stroke="#63b8ff" points="1172.57,-185.47 1182.2,-189.89 1177.42,-180.43 1172.57,-185.47"/>
</a>
</g>
</g>
<!-- Node6 -->
<g id="Node000006" class="node">
<title>Node6</title>
<g id="a_Node000006"><a xlink:href="../../d4/dc1/src_2view__engine_8c.html#a0bd4dc056ab5010547129bb87819789b" target="_top" xlink:title="Start view.">
<polygon fill="white" stroke="#666666" points="960,-78.75 899.75,-78.75 899.75,-58 960,-58 960,-78.75"/>
<text xml:space="preserve" text-anchor="middle" x="929.88" y="-65.25" font-family="Helvetica,sans-Serif" font-size="10.00">view_file</text>
</a>
</g>
</g>
<!-- Node5&#45;&gt;Node6 -->
<g id="edge5_Node000005_Node000006" class="edge">
<title>Node5&#45;&gt;Node6</title>
<g id="a_edge5_Node000005_Node000006"><a xlink:title=" ">
<path fill="none" stroke="#63b8ff" d="M984.44,-68.38C975.94,-68.38 967.64,-68.38 960.22,-68.38"/>
<polygon fill="#63b8ff" stroke="#63b8ff" points="984.17,-71.88 994.17,-68.38 984.17,-64.88 984.17,-71.88"/>
</a>
</g>
</g>
<!-- Node7 -->
<g id="Node000007" class="node">
<title>Node7</title>
<g id="a_Node000007"><a xlink:href="../../da/d97/view_8c.html#a3c04138a5bfe5d72780bb7e82a18e627" target="_top" xlink:title=" ">
<polygon fill="white" stroke="#666666" points="746.12,-59.75 705.38,-59.75 705.38,-39 746.12,-39 746.12,-59.75"/>
<text xml:space="preserve" text-anchor="middle" x="725.75" y="-46.25" font-family="Helvetica,sans-Serif" font-size="10.00">main</text>
</a>
</g>
</g>
<!-- Node6&#45;&gt;Node7 -->
<g id="edge6_Node000006_Node000007" class="edge">
<title>Node6&#45;&gt;Node7</title>
<g id="a_edge6_Node000006_Node000007"><a xlink:title=" ">
<path fill="none" stroke="#63b8ff" d="M888.28,-64.56C845.25,-60.51 779.09,-54.3 746.41,-51.22"/>
<polygon fill="#63b8ff" stroke="#63b8ff" points="887.69,-68.02 897.98,-65.47 888.35,-61.05 887.69,-68.02"/>
</a>
</g>
</g>
<!-- Node8 -->
<g id="Node000008" class="node">
<title>Node8</title>
<g id="a_Node000008"><a xlink:href="../../d2/d98/mview_8c.html#a75a4e7afc9c9aafd3d35ab706f5fdc71" target="_top" xlink:title="subprogram entry point for C&#45;Menu View">
<polygon fill="white" stroke="#666666" points="863.75,-97.75 814.75,-97.75 814.75,-77 863.75,-77 863.75,-97.75"/>
<text xml:space="preserve" text-anchor="middle" x="839.25" y="-84.25" font-family="Helvetica,sans-Serif" font-size="10.00">mview</text>
</a>
</g>
</g>
<!-- Node6&#45;&gt;Node8 -->
<g id="edge7_Node000006_Node000008" class="edge">
<title>Node6&#45;&gt;Node8</title>
<g id="a_edge7_Node000006_Node000008"><a xlink:title=" ">
<path fill="none" stroke="#63b8ff" d="M888.27,-77.08C879.98,-78.86 871.51,-80.67 864.04,-82.27"/>
<polygon fill="#63b8ff" stroke="#63b8ff" points="888.84,-80.54 897.88,-75.02 887.37,-73.69 888.84,-80.54"/>
</a>
</g>
</g>
<!-- Node8&#45;&gt;Node7 -->
<g id="edge24_Node000008_Node000007" class="edge">
<title>Node8&#45;&gt;Node7</title>
<g id="a_edge24_Node000008_Node000007"><a xlink:title=" ">
<path fill="none" stroke="#63b8ff" d="M803.52,-75.54C784.77,-69.15 762.3,-61.49 746.54,-56.12"/>
<polygon fill="#63b8ff" stroke="#63b8ff" points="802.3,-78.82 812.9,-78.73 804.56,-72.2 802.3,-78.82"/>
</a>
</g>
</g>
<!-- Node9 -->
<g id="Node000009" class="node">
<title>Node9</title>
<g id="a_Node000009"><a xlink:href="../../db/ddc/pick__engine_8c.html#aeebc4c0b94ca97d753e10a0cd1798730" target="_top" xlink:title="Displays the help screen for the pick interface using mview.">
<polygon fill="white" stroke="#666666" points="777.25,-135.75 674.25,-135.75 674.25,-115 777.25,-115 777.25,-135.75"/>
<text xml:space="preserve" text-anchor="middle" x="725.75" y="-122.25" font-family="Helvetica,sans-Serif" font-size="10.00">display_pick_help</text>
</a>
</g>
</g>
<!-- Node8&#45;&gt;Node9 -->
<g id="edge8_Node000008_Node000009" class="edge">
<title>Node8&#45;&gt;Node9</title>
<g id="a_edge8_Node000008_Node000009"><a xlink:title=" ">
<path fill="none" stroke="#63b8ff" d="M803.75,-99.13C789.22,-104.08 772.44,-109.8 758.25,-114.64"/>
<polygon fill="#63b8ff" stroke="#63b8ff" points="804.56,-102.55 812.9,-96.02 802.3,-95.93 804.56,-102.55"/>
</a>
</g>
</g>
<!-- Node14 -->
<g id="Node000014" class="node">
<title>Node14</title>
<g id="a_Node000014"><a xlink:href="../../d6/d18/menu__engine_8c.html#aa5d0e30e7036b72b51c843d0a7e486a1" target="_top" xlink:title="Processes user input for the menu system.">
<polygon fill="white" stroke="#666666" points="317.25,-136.75 194.75,-136.75 194.75,-116 317.25,-116 317.25,-136.75"/>
<text xml:space="preserve" text-anchor="middle" x="256" y="-123.25" font-family="Helvetica,sans-Serif" font-size="10.00">menu_cmd_processor</text>
</a>
</g>
</g>
<!-- Node8&#45;&gt;Node14 -->
<g id="edge25_Node000008_Node000014" class="edge">
<title>Node8&#45;&gt;Node14</title>
<g id="a_edge25_Node000008_Node000014"><a xlink:title=" ">
<path fill="none" stroke="#63b8ff" d="M823.87,-106.68C813.01,-119.69 796.92,-135.95 778.75,-144.38 705.42,-178.39 678.71,-163.38 597.88,-163.38 597.88,-163.38 597.88,-163.38 482.75,-163.38 417.42,-163.38 342.83,-148.1 297.86,-137.18"/>
<polygon fill="#63b8ff" stroke="#63b8ff" points="826.38,-109.14 829.86,-99.13 820.9,-104.79 826.38,-109.14"/>
</a>
</g>
</g>
<!-- Node17 -->
<g id="Node000017" class="node">
<title>Node17</title>
<g id="a_Node000017"><a xlink:href="../../db/ddc/pick__engine_8c.html#af7fcbb1c8b67a4d11c86ba7209f397c2" target="_top" xlink:title="Executes specified command with selected objects as arguments.">
<polygon fill="white" stroke="#666666" points="636.75,-96.75 557,-96.75 557,-76 636.75,-76 636.75,-96.75"/>
<text xml:space="preserve" text-anchor="middle" x="596.88" y="-83.25" font-family="Helvetica,sans-Serif" font-size="10.00">exec_objects</text>
</a>
</g>
</g>
<!-- Node8&#45;&gt;Node17 -->
<g id="edge17_Node000008_Node000017" class="edge">
<title>Node8&#45;&gt;Node17</title>
<g id="a_edge17_Node000008_Node000017"><a xlink:title=" ">
<path fill="none" stroke="#63b8ff" d="M803,-87.23C758.76,-87.04 683.15,-86.73 637.12,-86.54"/>
<polygon fill="#63b8ff" stroke="#63b8ff" points="802.8,-90.73 812.81,-87.27 802.82,-83.73 802.8,-90.73"/>
</a>
</g>
</g>
<!-- Node8&#45;&gt;Node18 -->
<g id="edge19_Node000008_Node000018" class="edge">
<title>Node8&#45;&gt;Node18</title>
<g id="a_edge19_Node000008_Node000018"><a xlink:title=" ">
<path fill="none" stroke="#63b8ff" d="M825.61,-107.91C813.98,-126.45 795.98,-154.28 778.75,-177.38 764.8,-196.07 747.08,-216.59 736.34,-228.7"/>
<polygon fill="#63b8ff" stroke="#63b8ff" points="828.56,-109.8 830.87,-99.46 822.62,-106.1 828.56,-109.8"/>
</a>
</g>
</g>
<!-- Node20 -->
<g id="Node000020" class="node">
<title>Node20</title>
<g id="a_Node000020"><a xlink:href="../../d4/dc1/src_2view__engine_8c.html#ad997ba9f8591568c77291fb1b44601b2" target="_top" xlink:title="Display View Help File.">
<polygon fill="white" stroke="#666666" points="778.75,-20.75 672.75,-20.75 672.75,0 778.75,0 778.75,-20.75"/>
<text xml:space="preserve" text-anchor="middle" x="725.75" y="-7.25" font-family="Helvetica,sans-Serif" font-size="10.00">view_display_help</text>
</a>
</g>
</g>
<!-- Node8&#45;&gt;Node20 -->
<g id="edge26_Node000008_Node000020" class="edge">
<title>Node8&#45;&gt;Node20</title>
<g id="a_edge26_Node000008_Node000020"><a xlink:title=" ">
<path fill="none" stroke="#63b8ff" d="M821.98,-68.27C810.82,-56.12 795.11,-40.76 778.75,-30.38 773.2,-26.85 766.92,-23.79 760.71,-21.19"/>
<polygon fill="#63b8ff" stroke="#63b8ff" points="819.3,-70.53 828.56,-75.68 824.54,-65.88 819.3,-70.53"/>
</a>
</g>
</g>
<!-- Node10 -->
<g id="Node000010" class="node">
<title>Node10</title>
<g id="a_Node000010"><a xlink:href="../../db/ddc/pick__engine_8c.html#abb0969a6d1c7e78be46c3b325754c802" target="_top" xlink:title="Main loop to handle user input and interactions for pick interface.">
<polygon fill="white" stroke="#666666" points="619.5,-135.75 574.25,-135.75 574.25,-115 619.5,-115 619.5,-135.75"/>
<text xml:space="preserve" text-anchor="middle" x="596.88" y="-122.25" font-family="Helvetica,sans-Serif" font-size="10.00">picker</text>
</a>
</g>
</g>
<!-- Node9&#45;&gt;Node10 -->
<g id="edge9_Node000009_Node000010" class="edge">
<title>Node9&#45;&gt;Node10</title>
<g id="a_edge9_Node000009_Node000010"><a xlink:title=" ">
<path fill="none" stroke="#63b8ff" d="M662.77,-125.38C647.41,-125.38 631.94,-125.38 619.96,-125.38"/>
<polygon fill="#63b8ff" stroke="#63b8ff" points="662.36,-128.88 672.36,-125.38 662.36,-121.88 662.36,-128.88"/>
</a>
</g>
</g>
<!-- Node11 -->
<g id="Node000011" class="node">
<title>Node11</title>
<g id="a_Node000011"><a xlink:href="../../db/ddc/pick__engine_8c.html#ab97dcab41017c5132f52b682437a151e" target="_top" xlink:title="Initializes pick interface, calculates window size and position, and enters picker loop.">
<polygon fill="white" stroke="#666666" points="521,-97.75 446.5,-97.75 446.5,-77 521,-77 521,-97.75"/>
<text xml:space="preserve" text-anchor="middle" x="483.75" y="-84.25" font-family="Helvetica,sans-Serif" font-size="10.00">pick_engine</text>
</a>
</g>
</g>
<!-- Node10&#45;&gt;Node11 -->
<g id="edge10_Node000010_Node000011" class="edge">
<title>Node10&#45;&gt;Node11</title>
<g id="a_edge10_Node000010_Node000011"><a xlink:title=" ">
<path fill="none" stroke="#63b8ff" d="M563.21,-114.2C548.42,-109.15 531,-103.19 516.34,-98.18"/>
<polygon fill="#63b8ff" stroke="#63b8ff" points="561.89,-117.45 572.49,-117.38 564.16,-110.83 561.89,-117.45"/>
</a>
</g>
</g>
<!-- Node12 -->
<g id="Node000012" class="node">
<title>Node12</title>
<g id="a_Node000012"><a xlink:href="../../db/ddc/pick__engine_8c.html#a1b2ee87543245e612c1710ea58930a17" target="_top" xlink:title="Initializes pick structure and opens pick input file or pipe.">
<polygon fill="white" stroke="#666666" points="410.5,-97.75 353.25,-97.75 353.25,-77 410.5,-77 410.5,-97.75"/>
<text xml:space="preserve" text-anchor="middle" x="381.88" y="-84.25" font-family="Helvetica,sans-Serif" font-size="10.00">init_pick</text>
</a>
</g>
</g>
<!-- Node11&#45;&gt;Node12 -->
<g id="edge11_Node000011_Node000012" class="edge">
<title>Node11&#45;&gt;Node12</title>
<g id="a_edge11_Node000011_Node000012"><a xlink:title=" ">
<path fill="none" stroke="#63b8ff" d="M434.66,-87.38C426.46,-87.38 418.18,-87.38 410.73,-87.38"/>
<polygon fill="#63b8ff" stroke="#63b8ff" points="434.61,-90.88 444.61,-87.38 434.61,-83.88 434.61,-90.88"/>
</a>
</g>
</g>
<!-- Node13 -->
<g id="Node000013" class="node">
<title>Node13</title>
<g id="a_Node000013"><a xlink:href="../../de/d7c/pick_8c.html#a3c04138a5bfe5d72780bb7e82a18e627" target="_top" xlink:title=" ">
<polygon fill="white" stroke="#666666" points="276.38,-97.75 235.62,-97.75 235.62,-77 276.38,-77 276.38,-97.75"/>
<text xml:space="preserve" text-anchor="middle" x="256" y="-84.25" font-family="Helvetica,sans-Serif" font-size="10.00">main</text>
</a>
</g>
</g>
<!-- Node12&#45;&gt;Node13 -->
<g id="edge12_Node000012_Node000013" class="edge">
<title>Node12&#45;&gt;Node13</title>
<g id="a_edge12_Node000012_Node000013"><a xlink:title=" ">
<path fill="none" stroke="#63b8ff" d="M341.27,-87.38C319.64,-87.38 293.83,-87.38 276.52,-87.38"/>
<polygon fill="#63b8ff" stroke="#63b8ff" points="341.25,-90.88 351.25,-87.38 341.25,-83.88 341.25,-90.88"/>
</a>
</g>
</g>
<!-- Node12&#45;&gt;Node14 -->
<g id="edge13_Node000012_Node000014" class="edge">
<title>Node12&#45;&gt;Node14</title>
<g id="a_edge13_Node000012_Node000014"><a xlink:title=" ">
<path fill="none" stroke="#63b8ff" d="M341.96,-99.63C325.67,-104.75 306.92,-110.66 291.18,-115.61"/>
<polygon fill="#63b8ff" stroke="#63b8ff" points="342.83,-103.02 351.32,-96.68 340.73,-96.34 342.83,-103.02"/>
</a>
</g>
</g>
<!-- Node15 -->
<g id="Node000015" class="node">
<title>Node15</title>
<g id="a_Node000015"><a xlink:href="../../d6/d18/menu__engine_8c.html#a7d7973d7aac92759dcc86ec52bb038f4" target="_top" xlink:title="The main loop of the menu system.">
<polygon fill="white" stroke="#666666" points="158.75,-136.75 76.75,-136.75 76.75,-116 158.75,-116 158.75,-136.75"/>
<text xml:space="preserve" text-anchor="middle" x="117.75" y="-123.25" font-family="Helvetica,sans-Serif" font-size="10.00">menu_engine</text>
</a>
</g>
</g>
<!-- Node14&#45;&gt;Node15 -->
<g id="edge14_Node000014_Node000015" class="edge">
<title>Node14&#45;&gt;Node15</title>
<g id="a_edge14_Node000014_Node000015"><a xlink:title=" ">
<path fill="none" stroke="#63b8ff" d="M183.2,-119.63C174.96,-119.67 166.79,-119.84 159.17,-120.15"/>
<polygon fill="#63b8ff" stroke="#63b8ff" points="182.92,-123.13 192.93,-119.66 182.94,-116.13 182.92,-123.13"/>
</a>
</g>
</g>
<!-- Node15&#45;&gt;Node14 -->
<g id="edge16_Node000015_Node000014" class="edge">
<title>Node15&#45;&gt;Node14</title>
<g id="a_edge16_Node000015_Node000014"><a xlink:title=" ">
<path fill="none" stroke="#63b8ff" d="M170.68,-132.95C178.45,-133.12 186.52,-133.17 194.45,-133.09"/>
<polygon fill="#63b8ff" stroke="#63b8ff" points="170.79,-129.45 160.69,-132.65 170.58,-136.45 170.79,-129.45"/>
</a>
</g>
</g>
<!-- Node16 -->
<g id="Node000016" class="node">
<title>Node16</title>
<g id="a_Node000016"><a xlink:href="../../d2/d0a/menu_8c.html#a3c04138a5bfe5d72780bb7e82a18e627" target="_top" xlink:title=" ">
<polygon fill="white" stroke="#666666" points="40.75,-136.75 0,-136.75 0,-116 40.75,-116 40.75,-136.75"/>
<text xml:space="preserve" text-anchor="middle" x="20.38" y="-123.25" font-family="Helvetica,sans-Serif" font-size="10.00">main</text>
</a>
</g>
</g>
<!-- Node15&#45;&gt;Node16 -->
<g id="edge15_Node000015_Node000016" class="edge">
<title>Node15&#45;&gt;Node16</title>
<g id="a_edge15_Node000015_Node000016"><a xlink:title=" ">
<path fill="none" stroke="#63b8ff" d="M64.79,-126.38C56.36,-126.38 48.1,-126.38 41.09,-126.38"/>
<polygon fill="#63b8ff" stroke="#63b8ff" points="64.79,-129.88 74.79,-126.38 64.79,-122.88 64.79,-129.88"/>
</a>
</g>
</g>
<!-- Node17&#45;&gt;Node11 -->
<g id="edge18_Node000017_Node000011" class="edge">
<title>Node17&#45;&gt;Node11</title>
<g id="a_edge18_Node000017_Node000011"><a xlink:title=" ">
<path fill="none" stroke="#63b8ff" d="M545.4,-86.83C537.3,-86.9 529.04,-86.98 521.34,-87.05"/>
<polygon fill="#63b8ff" stroke="#63b8ff" points="545.21,-90.33 555.18,-86.74 545.15,-83.33 545.21,-90.33"/>
</a>
</g>
</g>
<!-- Node18&#45;&gt;Node19 -->
<g id="edge20_Node000018_Node000019" class="edge">
<title>Node18&#45;&gt;Node19</title>
<g id="a_edge20_Node000018_Node000019"><a xlink:title=" ">
<path fill="none" stroke="#63b8ff" d="M675.21,-239.38C659.06,-239.38 641.65,-239.38 627.45,-239.38"/>
<polygon fill="#63b8ff" stroke="#63b8ff" points="675.17,-242.88 685.17,-239.38 675.17,-235.88 675.17,-242.88"/>
</a>
</g>
</g>
<!-- Node19&#45;&gt;Node3 -->
<g id="edge22_Node000019_Node000003" class="edge">
<title>Node19&#45;&gt;Node3</title>
<g id="a_edge22_Node000019_Node000003"><a xlink:title=" ">
<path fill="none" stroke="#63b8ff" d="M555.88,-253.05C538.44,-259.01 518.77,-265.74 504.54,-270.61"/>
<polygon fill="#63b8ff" stroke="#63b8ff" points="556.63,-256.5 564.96,-249.95 554.36,-249.87 556.63,-256.5"/>
</a>
</g>
</g>
<!-- Node19&#45;&gt;Node4 -->
<g id="edge21_Node000019_Node000004" class="edge">
<title>Node19&#45;&gt;Node4</title>
<g id="a_edge21_Node000019_Node000004"><a xlink:title=" ">
<path fill="none" stroke="#63b8ff" d="M638.32,-228.06C649.42,-225.24 661.49,-222.44 672.75,-220.38 745.57,-207.02 764.21,-201.38 838.25,-201.38 930.88,-201.38 930.88,-201.38 930.88,-201.38 1007.88,-201.38 1097.57,-201.38 1149.88,-201.38"/>
<polygon fill="#63b8ff" stroke="#63b8ff" points="637.44,-224.67 628.65,-230.58 639.22,-231.44 637.44,-224.67"/>
</a>
</g>
</g>
<!-- Node19&#45;&gt;Node14 -->
<g id="edge23_Node000019_Node000014" class="edge">
<title>Node19&#45;&gt;Node14</title>
<g id="a_edge23_Node000019_Node000014"><a xlink:title=" ">
<path fill="none" stroke="#63b8ff" d="M555.7,-225.98C487.69,-203.3 351.23,-157.8 289.12,-137.08"/>
<polygon fill="#63b8ff" stroke="#63b8ff" points="554.37,-229.22 564.96,-229.07 556.58,-222.58 554.37,-229.22"/>
</a>
</g>
</g>
<!-- Node20&#45;&gt;Node5 -->
<g id="edge27_Node000020_Node000005" class="edge">
<title>Node20&#45;&gt;Node5</title>
<g id="a_edge27_Node000020_Node000005"><a xlink:title=" ">
<path fill="none" stroke="#63b8ff" d="M790.4,-20.42C837.35,-27.98 902.75,-38.81 960,-49.38 973.59,-51.88 988.25,-54.76 1001.85,-57.51"/>
<polygon fill="#63b8ff" stroke="#63b8ff" points="791.1,-16.99 780.67,-18.86 789.99,-23.9 791.1,-16.99"/>
</a>
</g>
</g>
</g>
</svg>
