<?xml version="1.0" encoding="UTF-8" standalone="no"?>
<!DOCTYPE svg PUBLIC "-//W3C//DTD SVG 1.1//EN"
 "http://www.w3.org/Graphics/SVG/1.1/DTD/svg11.dtd">
<!-- Generated by graphviz version 14.1.2 (0)
 -->
<!-- Title: write_config Pages: 1 -->
<svg width="936pt" height="590pt"
 viewBox="0.00 0.00 936.00 590.00" xmlns="http://www.w3.org/2000/svg" xmlns:xlink="http://www.w3.org/1999/xlink">
<g id="graph0" class="graph" transform="scale(1 1) rotate(0) translate(4 586.38)">
<title>write_config</title>
<!-- Node1 -->
<g id="Node000001" class="node">
<title>Node1</title>
<g id="a_Node000001"><a xlink:title="Write the current configuration to a file specified in init&#45;&gt;minitrc.">
<polygon fill="#999999" stroke="#666666" points="76,-211.75 0,-211.75 0,-191 76,-191 76,-211.75"/>
<text xml:space="preserve" text-anchor="middle" x="38" y="-198.25" font-family="Helvetica,sans-Serif" font-size="10.00">write_config</text>
</a>
</g>
</g>
<!-- Node2 -->
<g id="Node000002" class="node">
<title>Node2</title>
<g id="a_Node000002"><a xlink:href="../../dc/d40/dwin_8c.html#a61b4f28456257f68ed042bed7f187efd" target="_top" xlink:title="Display a simple error message window or print to stderr.">
<polygon fill="white" stroke="#666666" points="157.25,-364.75 112,-364.75 112,-344 157.25,-344 157.25,-364.75"/>
<text xml:space="preserve" text-anchor="middle" x="134.62" y="-351.25" font-family="Helvetica,sans-Serif" font-size="10.00">Perror</text>
</a>
</g>
</g>
<!-- Node1&#45;&gt;Node2 -->
<g id="edge1_Node000001_Node000002" class="edge">
<title>Node1&#45;&gt;Node2</title>
<g id="a_edge1_Node000001_Node000002"><a xlink:title=" ">
<path fill="none" stroke="#63b8ff" d="M45.5,-211.89C61.1,-237.11 100.85,-301.38 121.2,-334.29"/>
<polygon fill="#63b8ff" stroke="#63b8ff" points="118.04,-335.83 126.28,-342.5 124,-332.15 118.04,-335.83"/>
</a>
</g>
</g>
<!-- Node8 -->
<g id="Node000008" class="node">
<title>Node8</title>
<g id="a_Node000008"><a xlink:href="../../d0/d59/futil_8c.html#aa0145c044cfdde3a1c83323410a59f25" target="_top" xlink:title="safer alternative to strncat">
<polygon fill="white" stroke="#666666" points="655.88,-573.75 590.38,-573.75 590.38,-553 655.88,-553 655.88,-573.75"/>
<text xml:space="preserve" text-anchor="middle" x="623.12" y="-560.25" font-family="Helvetica,sans-Serif" font-size="10.00">strnz__cat</text>
</a>
</g>
</g>
<!-- Node1&#45;&gt;Node8 -->
<g id="edge38_Node000001_Node000008" class="edge">
<title>Node1&#45;&gt;Node8</title>
<g id="a_edge38_Node000001_Node000008"><a xlink:title=" ">
<path fill="none" stroke="#63b8ff" d="M39.53,-211.96C43.22,-273.5 70.36,-582.38 243.38,-582.38 243.38,-582.38 243.38,-582.38 378.75,-582.38 448.83,-582.38 529.93,-574.45 578.56,-568.83"/>
<polygon fill="#63b8ff" stroke="#63b8ff" points="578.88,-572.32 588.4,-567.67 578.06,-565.37 578.88,-572.32"/>
</a>
</g>
</g>
<!-- Node13 -->
<g id="Node000013" class="node">
<title>Node13</title>
<g id="a_Node000013"><a xlink:href="../../d0/d59/futil_8c.html#a0de2e40df9bd7efc8fd9afb8ad2257e6" target="_top" xlink:title="safer alternative to strncpy">
<polygon fill="white" stroke="#666666" points="657,-95.75 589.25,-95.75 589.25,-75 657,-75 657,-95.75"/>
<text xml:space="preserve" text-anchor="middle" x="623.12" y="-82.25" font-family="Helvetica,sans-Serif" font-size="10.00">strnz__cpy</text>
</a>
</g>
</g>
<!-- Node1&#45;&gt;Node13 -->
<g id="edge39_Node000001_Node000013" class="edge">
<title>Node1&#45;&gt;Node13</title>
<g id="a_edge39_Node000001_Node000013"><a xlink:title=" ">
<path fill="none" stroke="#63b8ff" d="M45.71,-190.86C68.7,-156.29 148.08,-48.38 243.38,-48.38 243.38,-48.38 243.38,-48.38 378.75,-48.38 448.98,-48.38 529.33,-63.62 577.87,-74.54"/>
<polygon fill="#63b8ff" stroke="#63b8ff" points="576.9,-77.91 587.43,-76.73 578.47,-71.09 576.9,-77.91"/>
</a>
</g>
</g>
<!-- Node22 -->
<g id="Node000022" class="node">
<title>Node22</title>
<g id="a_Node000022"><a xlink:href="../../d8/d60/init_8c.html#afc067c129a46582ffeee5bd63ebcbf9f" target="_top" xlink:title="Convert prompt type integer constant to string.">
<polygon fill="white" stroke="#666666" points="295.5,-20.75 193.25,-20.75 193.25,0 295.5,0 295.5,-20.75"/>
<text xml:space="preserve" text-anchor="middle" x="244.38" y="-7.25" font-family="Helvetica,sans-Serif" font-size="10.00">prompt_int_to_str</text>
</a>
</g>
</g>
<!-- Node1&#45;&gt;Node22 -->
<g id="edge36_Node000001_Node000022" class="edge">
<title>Node1&#45;&gt;Node22</title>
<g id="a_edge36_Node000001_Node000022"><a xlink:title=" ">
<path fill="none" stroke="#63b8ff" d="M40.24,-190.71C44.31,-160.76 60.15,-75.43 112,-34.38 131.54,-18.91 157.83,-12.2 181.75,-9.62"/>
<polygon fill="#63b8ff" stroke="#63b8ff" points="181.73,-13.13 191.4,-8.81 181.14,-6.16 181.73,-13.13"/>
</a>
</g>
</g>
<!-- Node3 -->
<g id="Node000003" class="node">
<title>Node3</title>
<g id="a_Node000003"><a xlink:href="../../dc/d40/dwin_8c.html#a8f6c45ca4a7f6a41c4c88314e697565a" target="_top" xlink:title="Abnormal program termination.">
<polygon fill="white" stroke="#666666" points="646.12,-478.75 600.12,-478.75 600.12,-458 646.12,-458 646.12,-478.75"/>
<text xml:space="preserve" text-anchor="middle" x="623.12" y="-465.25" font-family="Helvetica,sans-Serif" font-size="10.00">abend</text>
</a>
</g>
</g>
<!-- Node2&#45;&gt;Node3 -->
<g id="edge2_Node000002_Node000003" class="edge">
<title>Node2&#45;&gt;Node3</title>
<g id="a_edge2_Node000002_Node000003"><a xlink:title=" ">
<path fill="none" stroke="#63b8ff" d="M137.21,-364.94C141.42,-389.03 155.31,-448.04 193.25,-475.38 315.33,-563.33 511.89,-508.08 589.29,-480.89"/>
<polygon fill="#63b8ff" stroke="#63b8ff" points="590.17,-484.29 598.4,-477.62 587.8,-477.71 590.17,-484.29"/>
</a>
</g>
</g>
<!-- Node7 -->
<g id="Node000007" class="node">
<title>Node7</title>
<g id="a_Node000007"><a xlink:href="../../dc/d40/dwin_8c.html#a645871e46277e31736bc36d0f3dce4bd" target="_top" xlink:title="construct the chyron string from the chyron structure">
<polygon fill="white" stroke="#666666" points="553.25,-554.75 460,-554.75 460,-534 553.25,-534 553.25,-554.75"/>
<text xml:space="preserve" text-anchor="middle" x="506.62" y="-541.25" font-family="Helvetica,sans-Serif" font-size="10.00">compile_chyron</text>
</a>
</g>
</g>
<!-- Node2&#45;&gt;Node7 -->
<g id="edge8_Node000002_Node000007" class="edge">
<title>Node2&#45;&gt;Node7</title>
<g id="a_edge8_Node000002_Node000007"><a xlink:title=" ">
<path fill="none" stroke="#63b8ff" d="M135.63,-365.17C136.3,-395.44 142.75,-481.45 193.25,-520.38 266.6,-576.91 380.57,-568.86 448.67,-557.12"/>
<polygon fill="#63b8ff" stroke="#63b8ff" points="448.9,-560.64 458.12,-555.41 447.65,-553.75 448.9,-560.64"/>
</a>
</g>
</g>
<!-- Node9 -->
<g id="Node000009" class="node">
<title>Node9</title>
<g id="a_Node000009"><a xlink:href="../../dc/d40/dwin_8c.html#a3f3feb40fd703913c5c136331f627c91" target="_top" xlink:title="Destroy Chyron structure.">
<polygon fill="white" stroke="#666666" points="552.12,-402.75 461.12,-402.75 461.12,-382 552.12,-382 552.12,-402.75"/>
<text xml:space="preserve" text-anchor="middle" x="506.62" y="-389.25" font-family="Helvetica,sans-Serif" font-size="10.00">destroy_chyron</text>
</a>
</g>
</g>
<!-- Node2&#45;&gt;Node9 -->
<g id="edge10_Node000002_Node000009" class="edge">
<title>Node2&#45;&gt;Node9</title>
<g id="a_edge10_Node000002_Node000009"><a xlink:title=" ">
<path fill="none" stroke="#63b8ff" d="M157.62,-360.6C168.29,-363.4 181.35,-366.49 193.25,-368.38 282.25,-382.51 386.9,-388.4 449.66,-390.8"/>
<polygon fill="#63b8ff" stroke="#63b8ff" points="449.24,-394.29 459.36,-391.15 449.49,-387.29 449.24,-394.29"/>
</a>
</g>
</g>
<!-- Node10 -->
<g id="Node000010" class="node">
<title>Node10</title>
<g id="a_Node000010"><a xlink:href="../../dc/d40/dwin_8c.html#ad37d5808ff30ae6894780425d865abae" target="_top" xlink:title="Create and initialize Chyron structure.">
<polygon fill="white" stroke="#666666" points="543.88,-478.75 469.38,-478.75 469.38,-458 543.88,-458 543.88,-478.75"/>
<text xml:space="preserve" text-anchor="middle" x="506.62" y="-465.25" font-family="Helvetica,sans-Serif" font-size="10.00">new_chyron</text>
</a>
</g>
</g>
<!-- Node2&#45;&gt;Node10 -->
<g id="edge11_Node000002_Node000010" class="edge">
<title>Node2&#45;&gt;Node10</title>
<g id="a_edge11_Node000002_Node000010"><a xlink:title=" ">
<path fill="none" stroke="#63b8ff" d="M138.9,-365.01C145.55,-384.61 162.68,-426.09 193.25,-444.38 275.82,-493.75 393.41,-486.36 458.22,-477.06"/>
<polygon fill="#63b8ff" stroke="#63b8ff" points="458.44,-480.57 467.8,-475.61 457.39,-473.65 458.44,-480.57"/>
</a>
</g>
</g>
<!-- Node11 -->
<g id="Node000011" class="node">
<title>Node11</title>
<g id="a_Node000011"><a xlink:href="../../dc/d40/dwin_8c.html#a208ce92c197fdd6d2b007987e534aa3b" target="_top" xlink:title="Set chyron key.">
<polygon fill="white" stroke="#666666" points="552.5,-210.75 460.75,-210.75 460.75,-190 552.5,-190 552.5,-210.75"/>
<text xml:space="preserve" text-anchor="middle" x="506.62" y="-197.25" font-family="Helvetica,sans-Serif" font-size="10.00">set_chyron_key</text>
</a>
</g>
</g>
<!-- Node2&#45;&gt;Node11 -->
<g id="edge13_Node000002_Node000011" class="edge">
<title>Node2&#45;&gt;Node11</title>
<g id="a_edge13_Node000002_Node000011"><a xlink:title=" ">
<path fill="none" stroke="#63b8ff" d="M144.68,-343.85C155.46,-331.72 174.38,-311.62 193.25,-297.38 249.55,-254.86 264.34,-240.98 331.5,-219.38 369.6,-207.12 414.55,-202.44 449.24,-200.79"/>
<polygon fill="#63b8ff" stroke="#63b8ff" points="449.22,-204.3 459.07,-200.4 448.94,-197.3 449.22,-204.3"/>
</a>
</g>
</g>
<!-- Node12 -->
<g id="Node000012" class="node">
<title>Node12</title>
<g id="a_Node000012"><a xlink:href="../../d0/d59/futil_8c.html#a63eb94756fb011a456a3dec900709cd8" target="_top" xlink:title="ssnprintf was designed to be a safer alternative to snprintf.">
<polygon fill="white" stroke="#666666" points="652.5,-287.75 593.75,-287.75 593.75,-267 652.5,-267 652.5,-287.75"/>
<text xml:space="preserve" text-anchor="middle" x="623.12" y="-274.25" font-family="Helvetica,sans-Serif" font-size="10.00">ssnprintf</text>
</a>
</g>
</g>
<!-- Node2&#45;&gt;Node12 -->
<g id="edge15_Node000002_Node000012" class="edge">
<title>Node2&#45;&gt;Node12</title>
<g id="a_edge15_Node000002_Node000012"><a xlink:title=" ">
<path fill="none" stroke="#63b8ff" d="M149.45,-364.95C160.63,-372.87 177.1,-383.2 193.25,-388.38 269.6,-412.82 484.83,-453.14 553.25,-411.38 593.66,-386.71 611.35,-329.95 618.26,-298.8"/>
<polygon fill="#63b8ff" stroke="#63b8ff" points="621.61,-299.86 620.16,-289.37 614.75,-298.48 621.61,-299.86"/>
</a>
</g>
</g>
<!-- Node2&#45;&gt;Node13 -->
<g id="edge16_Node000002_Node000013" class="edge">
<title>Node2&#45;&gt;Node13</title>
<g id="a_edge16_Node000002_Node000013"><a xlink:title=" ">
<path fill="none" stroke="#63b8ff" d="M135.5,-343.55C135.74,-311.39 141.03,-215.49 193.25,-165.38 299.31,-63.59 491.05,-70.16 577.6,-79.29"/>
<polygon fill="#63b8ff" stroke="#63b8ff" points="577.02,-82.74 587.35,-80.38 577.8,-75.79 577.02,-82.74"/>
</a>
</g>
</g>
<!-- Node14 -->
<g id="Node000014" class="node">
<title>Node14</title>
<g id="a_Node000014"><a xlink:href="../../dc/d40/dwin_8c.html#a9dd598e1d49c8764af1eec42c682623e" target="_top" xlink:title="Delete the current window and its associated box window.">
<polygon fill="white" stroke="#666666" points="533.38,-363.75 479.88,-363.75 479.88,-343 533.38,-343 533.38,-363.75"/>
<text xml:space="preserve" text-anchor="middle" x="506.62" y="-350.25" font-family="Helvetica,sans-Serif" font-size="10.00">win_del</text>
</a>
</g>
</g>
<!-- Node2&#45;&gt;Node14 -->
<g id="edge17_Node000002_Node000014" class="edge">
<title>Node2&#45;&gt;Node14</title>
<g id="a_edge17_Node000002_Node000014"><a xlink:title=" ">
<path fill="none" stroke="#63b8ff" d="M157.66,-354.32C218.87,-354.15 391.49,-353.68 468.14,-353.48"/>
<polygon fill="#63b8ff" stroke="#63b8ff" points="468.09,-356.98 478.08,-353.45 468.07,-349.98 468.09,-356.98"/>
</a>
</g>
</g>
<!-- Node15 -->
<g id="Node000015" class="node">
<title>Node15</title>
<g id="a_Node000015"><a xlink:href="../../dc/d40/dwin_8c.html#a435c7bff7ffedb8f51c6de9259e36f6c" target="_top" xlink:title="Create a new window with optional box and title.">
<polygon fill="white" stroke="#666666" points="536,-134.75 477.25,-134.75 477.25,-114 536,-114 536,-134.75"/>
<text xml:space="preserve" text-anchor="middle" x="506.62" y="-121.25" font-family="Helvetica,sans-Serif" font-size="10.00">win_new</text>
</a>
</g>
</g>
<!-- Node2&#45;&gt;Node15 -->
<g id="edge18_Node000002_Node000015" class="edge">
<title>Node2&#45;&gt;Node15</title>
<g id="a_edge18_Node000002_Node000015"><a xlink:title=" ">
<path fill="none" stroke="#63b8ff" d="M137.55,-343.54C142.42,-319.35 157.46,-260.53 193.25,-228.38 272.1,-157.53 400.65,-134.75 465.5,-127.58"/>
<polygon fill="#63b8ff" stroke="#63b8ff" points="465.75,-131.07 475.34,-126.56 465.03,-124.11 465.75,-131.07"/>
</a>
</g>
</g>
<!-- Node17 -->
<g id="Node000017" class="node">
<title>Node17</title>
<g id="a_Node000017"><a xlink:href="../../dc/d40/dwin_8c.html#acf4c709bccc4c965a5d61db978db31a3" target="_top" xlink:title="Wrapper for wgetch that handles signals and mouse events.">
<polygon fill="white" stroke="#666666" points="273,-326.75 215.75,-326.75 215.75,-306 273,-306 273,-326.75"/>
<text xml:space="preserve" text-anchor="middle" x="244.38" y="-313.25" font-family="Helvetica,sans-Serif" font-size="10.00">xwgetch</text>
</a>
</g>
</g>
<!-- Node2&#45;&gt;Node17 -->
<g id="edge21_Node000002_Node000017" class="edge">
<title>Node2&#45;&gt;Node17</title>
<g id="a_edge21_Node000002_Node000017"><a xlink:title=" ">
<path fill="none" stroke="#63b8ff" d="M157.69,-346.59C171.3,-341.79 189.12,-335.51 204.99,-329.91"/>
<polygon fill="#63b8ff" stroke="#63b8ff" points="205.89,-333.31 214.16,-326.68 203.56,-326.7 205.89,-333.31"/>
</a>
</g>
</g>
<!-- Node4 -->
<g id="Node000004" class="node">
<title>Node4</title>
<g id="a_Node000004"><a xlink:href="../../dc/d40/dwin_8c.html#afc0985a403e3eac0b2cd8f0fab500256" target="_top" xlink:title="Gracefully shut down NCurses and restore terminal settings.">
<polygon fill="white" stroke="#666666" points="782.5,-478.75 693,-478.75 693,-458 782.5,-458 782.5,-478.75"/>
<text xml:space="preserve" text-anchor="middle" x="737.75" y="-465.25" font-family="Helvetica,sans-Serif" font-size="10.00">destroy_curses</text>
</a>
</g>
</g>
<!-- Node3&#45;&gt;Node4 -->
<g id="edge3_Node000003_Node000004" class="edge">
<title>Node3&#45;&gt;Node4</title>
<g id="a_edge3_Node000003_Node000004"><a xlink:title=" ">
<path fill="none" stroke="#63b8ff" d="M646.38,-468.38C656.49,-468.38 668.94,-468.38 681.34,-468.38"/>
<polygon fill="#63b8ff" stroke="#63b8ff" points="681.13,-471.88 691.13,-468.38 681.13,-464.88 681.13,-471.88"/>
</a>
</g>
</g>
<!-- Node5 -->
<g id="Node000005" class="node">
<title>Node5</title>
<g id="a_Node000005"><a xlink:href="../../d7/d72/scriou_8c.html#ac5e3adb304b78910fc77761ef6a743f0" target="_top" xlink:title="restore_shell_tioctl() &#45; restore shell terminal settings">
<polygon fill="white" stroke="#666666" points="927.5,-506.75 818.5,-506.75 818.5,-486 927.5,-486 927.5,-506.75"/>
<text xml:space="preserve" text-anchor="middle" x="873" y="-493.25" font-family="Helvetica,sans-Serif" font-size="10.00">restore_shell_tioctl</text>
</a>
</g>
</g>
<!-- Node3&#45;&gt;Node5 -->
<g id="edge6_Node000003_Node000005" class="edge">
<title>Node3&#45;&gt;Node5</title>
<g id="a_edge6_Node000003_Node000005"><a xlink:title=" ">
<path fill="none" stroke="#63b8ff" d="M646.5,-475.88C659.84,-480.03 677.2,-484.83 693,-487.38 730.4,-493.4 772.71,-495.73 806.8,-496.52"/>
<polygon fill="#63b8ff" stroke="#63b8ff" points="806.45,-500.01 816.51,-496.7 806.58,-493.01 806.45,-500.01"/>
</a>
</g>
</g>
<!-- Node6 -->
<g id="Node000006" class="node">
<title>Node6</title>
<g id="a_Node000006"><a xlink:href="../../da/d12/sig_8c.html#a06c1eb6cf3649dc187115565409f91af" target="_top" xlink:title="Set signal handlers to default behavior.">
<polygon fill="white" stroke="#666666" points="913.62,-458.75 832.38,-458.75 832.38,-438 913.62,-438 913.62,-458.75"/>
<text xml:space="preserve" text-anchor="middle" x="873" y="-445.25" font-family="Helvetica,sans-Serif" font-size="10.00">sig_dfl_mode</text>
</a>
</g>
</g>
<!-- Node3&#45;&gt;Node6 -->
<g id="edge7_Node000003_Node000006" class="edge">
<title>Node3&#45;&gt;Node6</title>
<g id="a_edge7_Node000003_Node000006"><a xlink:title=" ">
<path fill="none" stroke="#63b8ff" d="M646.46,-460.6C659.78,-456.37 677.15,-451.57 693,-449.38 735.78,-443.46 784.86,-443.67 820.79,-445.1"/>
<polygon fill="#63b8ff" stroke="#63b8ff" points="820.31,-448.58 830.46,-445.54 820.63,-441.59 820.31,-448.58"/>
</a>
</g>
</g>
<!-- Node4&#45;&gt;Node5 -->
<g id="edge4_Node000004_Node000005" class="edge">
<title>Node4&#45;&gt;Node5</title>
<g id="a_edge4_Node000004_Node000005"><a xlink:title=" ">
<path fill="none" stroke="#63b8ff" d="M782.75,-477.62C791.37,-479.43 800.57,-481.37 809.66,-483.28"/>
<polygon fill="#63b8ff" stroke="#63b8ff" points="808.66,-486.64 819.17,-485.27 810.1,-479.79 808.66,-486.64"/>
</a>
</g>
</g>
<!-- Node4&#45;&gt;Node6 -->
<g id="edge5_Node000004_Node000006" class="edge">
<title>Node4&#45;&gt;Node6</title>
<g id="a_edge5_Node000004_Node000006"><a xlink:title=" ">
<path fill="none" stroke="#63b8ff" d="M782.75,-461.77C794.94,-459.94 808.27,-457.94 820.83,-456.06"/>
<polygon fill="#63b8ff" stroke="#63b8ff" points="821.23,-459.54 830.6,-454.59 820.19,-452.61 821.23,-459.54"/>
</a>
</g>
</g>
<!-- Node7&#45;&gt;Node8 -->
<g id="edge9_Node000007_Node000008" class="edge">
<title>Node7&#45;&gt;Node8</title>
<g id="a_edge9_Node000007_Node000008"><a xlink:title=" ">
<path fill="none" stroke="#63b8ff" d="M553.54,-551.99C561.83,-553.37 570.44,-554.8 578.66,-556.16"/>
<polygon fill="#63b8ff" stroke="#63b8ff" points="578,-559.6 588.44,-557.78 579.15,-552.7 578,-559.6"/>
</a>
</g>
</g>
<!-- Node10&#45;&gt;Node3 -->
<g id="edge12_Node000010_Node000003" class="edge">
<title>Node10&#45;&gt;Node3</title>
<g id="a_edge12_Node000010_Node000003"><a xlink:title=" ">
<path fill="none" stroke="#63b8ff" d="M544.17,-468.38C558.49,-468.38 574.8,-468.38 588.79,-468.38"/>
<polygon fill="#63b8ff" stroke="#63b8ff" points="588.39,-471.88 598.39,-468.38 588.39,-464.88 588.39,-471.88"/>
</a>
</g>
</g>
<!-- Node11&#45;&gt;Node12 -->
<g id="edge14_Node000011_Node000012" class="edge">
<title>Node11&#45;&gt;Node12</title>
<g id="a_edge14_Node000011_Node000012"><a xlink:title=" ">
<path fill="none" stroke="#63b8ff" d="M535.76,-211.24C541.69,-213.93 547.8,-217.02 553.25,-220.38 571.29,-231.49 589.67,-246.96 602.9,-258.98"/>
<polygon fill="#63b8ff" stroke="#63b8ff" points="600.35,-261.38 610.06,-265.62 605.11,-256.25 600.35,-261.38"/>
</a>
</g>
</g>
<!-- Node15&#45;&gt;Node13 -->
<g id="edge20_Node000015_Node000013" class="edge">
<title>Node15&#45;&gt;Node13</title>
<g id="a_edge20_Node000015_Node000013"><a xlink:title=" ">
<path fill="none" stroke="#63b8ff" d="M536.22,-114.63C549.31,-110.18 565.1,-104.8 579.54,-99.88"/>
<polygon fill="#63b8ff" stroke="#63b8ff" points="580.49,-103.25 588.83,-96.72 578.24,-96.63 580.49,-103.25"/>
</a>
</g>
</g>
<!-- Node16 -->
<g id="Node000016" class="node">
<title>Node16</title>
<g id="a_Node000016"><a xlink:href="../../dc/d40/dwin_8c.html#ac9adcf7339be4a05ab1a7350c236b8a5" target="_top" xlink:title="Draw a box around the specified window.">
<polygon fill="white" stroke="#666666" points="642.75,-134.75 603.5,-134.75 603.5,-114 642.75,-114 642.75,-134.75"/>
<text xml:space="preserve" text-anchor="middle" x="623.12" y="-121.25" font-family="Helvetica,sans-Serif" font-size="10.00">cbox</text>
</a>
</g>
</g>
<!-- Node15&#45;&gt;Node16 -->
<g id="edge19_Node000015_Node000016" class="edge">
<title>Node15&#45;&gt;Node16</title>
<g id="a_edge19_Node000015_Node000016"><a xlink:title=" ">
<path fill="none" stroke="#63b8ff" d="M536.22,-124.38C553.15,-124.38 574.57,-124.38 591.79,-124.38"/>
<polygon fill="#63b8ff" stroke="#63b8ff" points="591.69,-127.88 601.69,-124.38 591.69,-120.88 591.69,-127.88"/>
</a>
</g>
</g>
<!-- Node18 -->
<g id="Node000018" class="node">
<title>Node18</title>
<g id="a_Node000018"><a xlink:href="../../dc/d40/dwin_8c.html#a67659f8a701b74f4dec0d36227a10d1c" target="_top" xlink:title="Display an error message window or print to stderr.">
<polygon fill="white" stroke="#666666" points="417.62,-326.75 337.88,-326.75 337.88,-306 417.62,-306 417.62,-326.75"/>
<text xml:space="preserve" text-anchor="middle" x="377.75" y="-313.25" font-family="Helvetica,sans-Serif" font-size="10.00">display_error</text>
</a>
</g>
</g>
<!-- Node17&#45;&gt;Node18 -->
<g id="edge22_Node000017_Node000018" class="edge">
<title>Node17&#45;&gt;Node18</title>
<g id="a_edge22_Node000017_Node000018"><a xlink:title=" ">
<path fill="none" stroke="#63b8ff" d="M273.24,-310.74C288.56,-309.72 308.05,-309.4 325.97,-309.78"/>
<polygon fill="#63b8ff" stroke="#63b8ff" points="325.85,-313.28 335.95,-310.09 326.07,-306.28 325.85,-313.28"/>
</a>
</g>
</g>
<!-- Node20 -->
<g id="Node000020" class="node">
<title>Node20</title>
<g id="a_Node000020"><a xlink:href="../../dc/d40/dwin_8c.html#a4298f891699300bfc4e6e56fd2a8d574" target="_top" xlink:title="Get keycode from chyron.">
<polygon fill="white" stroke="#666666" points="424,-287.75 331.5,-287.75 331.5,-267 424,-267 424,-287.75"/>
<text xml:space="preserve" text-anchor="middle" x="377.75" y="-274.25" font-family="Helvetica,sans-Serif" font-size="10.00">get_chyron_key</text>
</a>
</g>
</g>
<!-- Node17&#45;&gt;Node20 -->
<g id="edge34_Node000017_Node000020" class="edge">
<title>Node17&#45;&gt;Node20</title>
<g id="a_edge34_Node000017_Node000020"><a xlink:title=" ">
<path fill="none" stroke="#63b8ff" d="M273.24,-308.1C289.61,-303.24 310.73,-296.97 329.62,-291.36"/>
<polygon fill="#63b8ff" stroke="#63b8ff" points="330.4,-294.79 338.99,-288.59 328.4,-288.08 330.4,-294.79"/>
</a>
</g>
</g>
<!-- Node21 -->
<g id="Node000021" class="node">
<title>Node21</title>
<g id="a_Node000021"><a xlink:href="../../d0/d6b/cm_8h.html#a0667873879b5846c3fe2fa2cc96059d6" target="_top" xlink:title=" ">
<polygon fill="white" stroke="#666666" points="419.5,-248.75 336,-248.75 336,-228 419.5,-228 419.5,-248.75"/>
<text xml:space="preserve" text-anchor="middle" x="377.75" y="-235.25" font-family="Helvetica,sans-Serif" font-size="10.00">handle_signal</text>
</a>
</g>
</g>
<!-- Node17&#45;&gt;Node21 -->
<g id="edge35_Node000017_Node000021" class="edge">
<title>Node17&#45;&gt;Node21</title>
<g id="a_edge35_Node000017_Node000021"><a xlink:title=" ">
<path fill="none" stroke="#63b8ff" d="M259.51,-305.71C276.18,-293.42 304.99,-273.01 331.5,-258.38 334.16,-256.91 336.94,-255.46 339.77,-254.07"/>
<polygon fill="#63b8ff" stroke="#63b8ff" points="341.12,-257.3 348.68,-249.88 338.14,-250.97 341.12,-257.3"/>
</a>
</g>
</g>
<!-- Node18&#45;&gt;Node3 -->
<g id="edge23_Node000018_Node000003" class="edge">
<title>Node18&#45;&gt;Node3</title>
<g id="a_edge23_Node000018_Node000003"><a xlink:title=" ">
<path fill="none" stroke="#63b8ff" d="M418.06,-310.37C456,-306.73 513.39,-307.14 553.25,-334.38 591.97,-360.83 610.24,-415.96 617.71,-446.62"/>
<polygon fill="#63b8ff" stroke="#63b8ff" points="614.27,-447.29 619.88,-456.28 621.1,-445.76 614.27,-447.29"/>
</a>
</g>
</g>
<!-- Node18&#45;&gt;Node7 -->
<g id="edge24_Node000018_Node000007" class="edge">
<title>Node18&#45;&gt;Node7</title>
<g id="a_edge24_Node000018_Node000007"><a xlink:title=" ">
<path fill="none" stroke="#63b8ff" d="M382.88,-327.23C393.65,-354.96 424.25,-430.26 460,-487.38 468.32,-500.67 479.26,-514.43 488.34,-525.1"/>
<polygon fill="#63b8ff" stroke="#63b8ff" points="485.53,-527.2 494.74,-532.45 490.81,-522.61 485.53,-527.2"/>
</a>
</g>
</g>
<!-- Node18&#45;&gt;Node9 -->
<g id="edge25_Node000018_Node000009" class="edge">
<title>Node18&#45;&gt;Node9</title>
<g id="a_edge25_Node000018_Node000009"><a xlink:title=" ">
<path fill="none" stroke="#63b8ff" d="M392.6,-327.14C408.37,-339.1 435.16,-358.53 460,-372.38 462.67,-373.86 465.47,-375.32 468.32,-376.73"/>
<polygon fill="#63b8ff" stroke="#63b8ff" points="466.76,-379.86 477.3,-380.93 469.73,-373.52 466.76,-379.86"/>
</a>
</g>
</g>
<!-- Node18&#45;&gt;Node10 -->
<g id="edge26_Node000018_Node000010" class="edge">
<title>Node18&#45;&gt;Node10</title>
<g id="a_edge26_Node000018_Node000010"><a xlink:title=" ">
<path fill="none" stroke="#63b8ff" d="M387.47,-326.82C408.57,-352.1 462.61,-416.84 489.67,-449.26"/>
<polygon fill="#63b8ff" stroke="#63b8ff" points="486.78,-451.26 495.87,-456.69 492.15,-446.77 486.78,-451.26"/>
</a>
</g>
</g>
<!-- Node18&#45;&gt;Node11 -->
<g id="edge27_Node000018_Node000011" class="edge">
<title>Node18&#45;&gt;Node11</title>
<g id="a_edge27_Node000018_Node000011"><a xlink:title=" ">
<path fill="none" stroke="#63b8ff" d="M410.75,-305.73C415.56,-303.18 420.19,-300.09 424,-296.38 450.77,-270.29 433.19,-246.41 460,-220.38 461.05,-219.36 462.15,-218.39 463.31,-217.46"/>
<polygon fill="#63b8ff" stroke="#63b8ff" points="465.14,-220.45 471.62,-212.06 461.33,-214.58 465.14,-220.45"/>
</a>
</g>
</g>
<!-- Node18&#45;&gt;Node12 -->
<g id="edge28_Node000018_Node000012" class="edge">
<title>Node18&#45;&gt;Node12</title>
<g id="a_edge28_Node000018_Node000012"><a xlink:title=" ">
<path fill="none" stroke="#63b8ff" d="M417.96,-308.84C431.29,-306.36 446.27,-303.66 460,-301.38 501.5,-294.48 549.14,-287.54 581.98,-282.91"/>
<polygon fill="#63b8ff" stroke="#63b8ff" points="582.46,-286.38 591.88,-281.53 581.49,-279.45 582.46,-286.38"/>
</a>
</g>
</g>
<!-- Node18&#45;&gt;Node13 -->
<g id="edge30_Node000018_Node000013" class="edge">
<title>Node18&#45;&gt;Node13</title>
<g id="a_edge30_Node000018_Node000013"><a xlink:title=" ">
<path fill="none" stroke="#63b8ff" d="M412.13,-305.66C416.54,-303.15 420.68,-300.09 424,-296.38 459.68,-256.43 423.74,-220.79 460,-181.38 490.3,-148.44 516.31,-168.63 553.25,-143.38 572.46,-130.24 571.15,-119.99 589.25,-105.38 590.52,-104.35 591.84,-103.34 593.2,-102.35"/>
<polygon fill="#63b8ff" stroke="#63b8ff" points="594.8,-105.49 601.17,-97.03 590.91,-99.67 594.8,-105.49"/>
</a>
</g>
</g>
<!-- Node18&#45;&gt;Node14 -->
<g id="edge31_Node000018_Node000014" class="edge">
<title>Node18&#45;&gt;Node14</title>
<g id="a_edge31_Node000018_Node000014"><a xlink:title=" ">
<path fill="none" stroke="#63b8ff" d="M415.79,-327.18C432.43,-332.03 452.02,-337.74 468.65,-342.59"/>
<polygon fill="#63b8ff" stroke="#63b8ff" points="467.59,-345.93 478.17,-345.37 469.55,-339.21 467.59,-345.93"/>
</a>
</g>
</g>
<!-- Node18&#45;&gt;Node15 -->
<g id="edge32_Node000018_Node000015" class="edge">
<title>Node18&#45;&gt;Node15</title>
<g id="a_edge32_Node000018_Node000015"><a xlink:title=" ">
<path fill="none" stroke="#63b8ff" d="M412.8,-305.58C417.01,-303.1 420.91,-300.06 424,-296.38 467.44,-244.45 418.36,-201.75 460,-148.38 462.13,-145.64 464.67,-143.18 467.43,-140.98"/>
<polygon fill="#63b8ff" stroke="#63b8ff" points="469.13,-144.05 475.56,-135.64 465.28,-138.21 469.13,-144.05"/>
</a>
</g>
</g>
<!-- Node18&#45;&gt;Node17 -->
<g id="edge33_Node000018_Node000017" class="edge">
<title>Node18&#45;&gt;Node17</title>
<g id="a_edge33_Node000018_Node000017"><a xlink:title=" ">
<path fill="none" stroke="#63b8ff" d="M337.47,-322.61C320.66,-323.3 301.09,-323.3 284.33,-322.6"/>
<polygon fill="#63b8ff" stroke="#63b8ff" points="284.92,-319.13 274.75,-322.09 284.55,-326.12 284.92,-319.13"/>
</a>
</g>
</g>
<!-- Node19 -->
<g id="Node000019" class="node">
<title>Node19</title>
<g id="a_Node000019"><a xlink:href="../../d0/d59/futil_8c.html#a636608f26d1193b5d860f2312cd8ee49" target="_top" xlink:title="terminates string at New Line, Carriage Return, or max_len">
<polygon fill="white" stroke="#666666" points="526.62,-249.75 486.62,-249.75 486.62,-229 526.62,-229 526.62,-249.75"/>
<text xml:space="preserve" text-anchor="middle" x="506.62" y="-236.25" font-family="Helvetica,sans-Serif" font-size="10.00">strnz</text>
</a>
</g>
</g>
<!-- Node18&#45;&gt;Node19 -->
<g id="edge29_Node000018_Node000019" class="edge">
<title>Node18&#45;&gt;Node19</title>
<g id="a_edge29_Node000018_Node000019"><a xlink:title=" ">
<path fill="none" stroke="#63b8ff" d="M406.78,-305.7C412.66,-302.99 418.68,-299.85 424,-296.38 442.17,-284.5 442.25,-275.86 460,-263.38 465.12,-259.77 470.86,-256.34 476.48,-253.26"/>
<polygon fill="#63b8ff" stroke="#63b8ff" points="477.74,-256.56 485,-248.84 474.51,-250.35 477.74,-256.56"/>
</a>
</g>
</g>
<!-- Node22&#45;&gt;Node13 -->
<g id="edge37_Node000022_Node000013" class="edge">
<title>Node22&#45;&gt;Node13</title>
<g id="a_edge37_Node000022_Node000013"><a xlink:title=" ">
<path fill="none" stroke="#63b8ff" d="M295.98,-5.96C358.54,-2.36 467.25,-2.24 553.25,-34.38 572.09,-41.42 590.24,-55.24 603.17,-66.72"/>
<polygon fill="#63b8ff" stroke="#63b8ff" points="600.78,-69.28 610.5,-73.51 605.54,-64.15 600.78,-69.28"/>
</a>
</g>
</g>
</g>
</svg>
