<?xml version="1.0" encoding="UTF-8" standalone="no"?>
<!DOCTYPE svg PUBLIC "-//W3C//DTD SVG 1.1//EN"
 "http://www.w3.org/Graphics/SVG/1.1/DTD/svg11.dtd">
<!-- Generated by graphviz version 14.1.2 (0)
 -->
<!-- Title: sig.c Pages: 1 -->
<svg width="495pt" height="86pt"
 viewBox="0.00 0.00 495.00 86.00" xmlns="http://www.w3.org/2000/svg" xmlns:xlink="http://www.w3.org/1999/xlink">
<g id="graph0" class="graph" transform="scale(1 1) rotate(0) translate(4 81.5)">
<title>sig.c</title>
<!-- Node1 -->
<g id="Node000001" class="node">
<title>Node1</title>
<g id="a_Node000001"><a xlink:title="signal handling for interrupt signals">
<polygon fill="#999999" stroke="#666666" points="255.25,-77.5 216.75,-77.5 216.75,-56.75 255.25,-56.75 255.25,-77.5"/>
<text xml:space="preserve" text-anchor="middle" x="236" y="-64" font-family="Helvetica,sans-Serif" font-size="10.00">sig.c</text>
</a>
</g>
</g>
<!-- Node2 -->
<g id="Node000002" class="node">
<title>Node2</title>
<g id="a_Node000002"><a xlink:title=" ">
<polygon fill="#e0e0e0" stroke="#999999" points="40,-20.75 0,-20.75 0,0 40,0 40,-20.75"/>
<text xml:space="preserve" text-anchor="middle" x="20" y="-7.25" font-family="Helvetica,sans-Serif" font-size="10.00">cm.h</text>
</a>
</g>
</g>
<!-- Node1&#45;&gt;Node2 -->
<g id="edge1_Node000001_Node000002" class="edge">
<title>Node1&#45;&gt;Node2</title>
<g id="a_edge1_Node000001_Node000002"><a xlink:title=" ">
<path fill="none" stroke="#63b8ff" d="M216.49,-61.9C184.15,-54.78 117.17,-39.59 51.22,-21.22"/>
<polygon fill="#63b8ff" stroke="#63b8ff" points="52.25,-17.88 41.68,-18.54 50.36,-24.61 52.25,-17.88"/>
</a>
</g>
</g>
<!-- Node3 -->
<g id="Node000003" class="node">
<title>Node3</title>
<g id="a_Node000003"><a xlink:title=" ">
<polygon fill="#e0e0e0" stroke="#999999" points="112.12,-20.75 57.88,-20.75 57.88,0 112.12,0 112.12,-20.75"/>
<text xml:space="preserve" text-anchor="middle" x="85" y="-7.25" font-family="Helvetica,sans-Serif" font-size="10.00">signal.h</text>
</a>
</g>
</g>
<!-- Node1&#45;&gt;Node3 -->
<g id="edge2_Node000001_Node000003" class="edge">
<title>Node1&#45;&gt;Node3</title>
<g id="a_edge2_Node000001_Node000003"><a xlink:title=" ">
<path fill="none" stroke="#63b8ff" d="M216.26,-58.97C192.65,-50.41 152.62,-35.89 122.96,-25.14"/>
<polygon fill="#63b8ff" stroke="#63b8ff" points="124.17,-21.85 113.57,-21.74 121.78,-28.43 124.17,-21.85"/>
</a>
</g>
</g>
<!-- Node4 -->
<g id="Node000004" class="node">
<title>Node4</title>
<g id="a_Node000004"><a xlink:title=" ">
<polygon fill="#e0e0e0" stroke="#999999" points="191.5,-20.75 130.5,-20.75 130.5,0 191.5,0 191.5,-20.75"/>
<text xml:space="preserve" text-anchor="middle" x="161" y="-7.25" font-family="Helvetica,sans-Serif" font-size="10.00">stdbool.h</text>
</a>
</g>
</g>
<!-- Node1&#45;&gt;Node4 -->
<g id="edge3_Node000001_Node000004" class="edge">
<title>Node1&#45;&gt;Node4</title>
<g id="a_edge3_Node000001_Node000004"><a xlink:title=" ">
<path fill="none" stroke="#63b8ff" d="M222.59,-56.34C211.71,-48.4 196.14,-37.03 183.38,-27.71"/>
<polygon fill="#63b8ff" stroke="#63b8ff" points="185.66,-25.04 175.51,-21.97 181.53,-30.69 185.66,-25.04"/>
</a>
</g>
</g>
<!-- Node5 -->
<g id="Node000005" class="node">
<title>Node5</title>
<g id="a_Node000005"><a xlink:title=" ">
<polygon fill="#e0e0e0" stroke="#999999" points="262,-20.75 210,-20.75 210,0 262,0 262,-20.75"/>
<text xml:space="preserve" text-anchor="middle" x="236" y="-7.25" font-family="Helvetica,sans-Serif" font-size="10.00">stdlib.h</text>
</a>
</g>
</g>
<!-- Node1&#45;&gt;Node5 -->
<g id="edge4_Node000001_Node000005" class="edge">
<title>Node1&#45;&gt;Node5</title>
<g id="a_edge4_Node000001_Node000005"><a xlink:title=" ">
<path fill="none" stroke="#63b8ff" d="M236,-56.34C236,-49.72 236,-40.72 236,-32.52"/>
<polygon fill="#63b8ff" stroke="#63b8ff" points="239.5,-32.59 236,-22.59 232.5,-32.59 239.5,-32.59"/>
</a>
</g>
</g>
<!-- Node6 -->
<g id="Node000006" class="node">
<title>Node6</title>
<g id="a_Node000006"><a xlink:title=" ">
<polygon fill="#e0e0e0" stroke="#999999" points="332.38,-20.75 279.62,-20.75 279.62,0 332.38,0 332.38,-20.75"/>
<text xml:space="preserve" text-anchor="middle" x="306" y="-7.25" font-family="Helvetica,sans-Serif" font-size="10.00">string.h</text>
</a>
</g>
</g>
<!-- Node1&#45;&gt;Node6 -->
<g id="edge5_Node000001_Node000006" class="edge">
<title>Node1&#45;&gt;Node6</title>
<g id="a_edge5_Node000001_Node000006"><a xlink:title=" ">
<path fill="none" stroke="#63b8ff" d="M248.51,-56.34C258.57,-48.47 272.91,-37.25 284.76,-27.99"/>
<polygon fill="#63b8ff" stroke="#63b8ff" points="286.68,-30.93 292.4,-22.01 282.37,-25.41 286.68,-30.93"/>
</a>
</g>
</g>
<!-- Node7 -->
<g id="Node000007" class="node">
<title>Node7</title>
<g id="a_Node000007"><a xlink:title=" ">
<polygon fill="#e0e0e0" stroke="#999999" points="413.25,-20.75 350.75,-20.75 350.75,0 413.25,0 413.25,-20.75"/>
<text xml:space="preserve" text-anchor="middle" x="382" y="-7.25" font-family="Helvetica,sans-Serif" font-size="10.00">termios.h</text>
</a>
</g>
</g>
<!-- Node1&#45;&gt;Node7 -->
<g id="edge6_Node000001_Node000007" class="edge">
<title>Node1&#45;&gt;Node7</title>
<g id="a_edge6_Node000001_Node000007"><a xlink:title=" ">
<path fill="none" stroke="#63b8ff" d="M255.69,-58.74C278.5,-50.19 316.59,-35.9 344.99,-25.26"/>
<polygon fill="#63b8ff" stroke="#63b8ff" points="346.17,-28.55 354.31,-21.76 343.71,-21.99 346.17,-28.55"/>
</a>
</g>
</g>
<!-- Node8 -->
<g id="Node000008" class="node">
<title>Node8</title>
<g id="a_Node000008"><a xlink:title=" ">
<polygon fill="#e0e0e0" stroke="#999999" points="486.5,-20.75 431.5,-20.75 431.5,0 486.5,0 486.5,-20.75"/>
<text xml:space="preserve" text-anchor="middle" x="459" y="-7.25" font-family="Helvetica,sans-Serif" font-size="10.00">unistd.h</text>
</a>
</g>
</g>
<!-- Node1&#45;&gt;Node8 -->
<g id="edge7_Node000001_Node000008" class="edge">
<title>Node1&#45;&gt;Node8</title>
<g id="a_edge7_Node000001_Node000008"><a xlink:title=" ">
<path fill="none" stroke="#63b8ff" d="M255.56,-61.41C287.68,-53.66 353.88,-37.64 420.08,-21.21"/>
<polygon fill="#63b8ff" stroke="#63b8ff" points="420.8,-24.64 429.66,-18.83 419.11,-17.85 420.8,-24.64"/>
</a>
</g>
</g>
</g>
</svg>
