<?xml version="1.0" encoding="UTF-8" standalone="no"?>
<!DOCTYPE svg PUBLIC "-//W3C//DTD SVG 1.1//EN"
 "http://www.w3.org/Graphics/SVG/1.1/DTD/svg11.dtd">
<!-- Generated by graphviz version 14.1.2 (0)
 -->
<!-- Title: main Pages: 1 -->
<svg width="402pt" height="164pt"
 viewBox="0.00 0.00 402.00 164.00" xmlns="http://www.w3.org/2000/svg" xmlns:xlink="http://www.w3.org/1999/xlink">
<g id="graph0" class="graph" transform="scale(1 1) rotate(0) translate(4 159.75)">
<title>main</title>
<!-- Node1 -->
<g id="Node000001" class="node">
<title>Node1</title>
<g id="a_Node000001"><a xlink:title="Main function for whence utility.">
<polygon fill="#999999" stroke="#666666" points="40.75,-96.75 0,-96.75 0,-76 40.75,-76 40.75,-96.75"/>
<text xml:space="preserve" text-anchor="middle" x="20.38" y="-83.25" font-family="Helvetica,sans-Serif" font-size="10.00">main</text>
</a>
</g>
</g>
<!-- Node2 -->
<g id="Node000002" class="node">
<title>Node2</title>
<g id="a_Node000002"><a xlink:href="../../dc/d9a/a00218.html#ae9d008ee59194eba42f78be483d00d2f" target="_top" xlink:title=" ">
<polygon fill="white" stroke="#666666" points="146,-155.75 95.5,-155.75 95.5,-135 146,-135 146,-155.75"/>
<text xml:space="preserve" text-anchor="middle" x="120.75" y="-142.25" font-family="Helvetica,sans-Serif" font-size="10.00">ABEND</text>
</a>
</g>
</g>
<!-- Node1&#45;&gt;Node2 -->
<g id="edge1_Node000001_Node000002" class="edge">
<title>Node1&#45;&gt;Node2</title>
<g id="a_edge1_Node000001_Node000002"><a xlink:title=" ">
<path fill="none" stroke="#63b8ff" d="M35.03,-97.03C45.97,-105.3 61.89,-116.78 76.75,-125.38 79.4,-126.91 82.18,-128.42 85.01,-129.88"/>
<polygon fill="#63b8ff" stroke="#63b8ff" points="83.38,-132.97 93.9,-134.24 86.46,-126.69 83.38,-132.97"/>
</a>
</g>
</g>
<!-- Node3 -->
<g id="Node000003" class="node">
<title>Node3</title>
<g id="a_Node000003"><a xlink:href="../../d0/d27/a00239.html#a3883d2f8375f9cee1e12ee075aec671f" target="_top" xlink:title="Exit the program successfully.">
<polygon fill="white" stroke="#666666" points="155,-116.75 86.5,-116.75 86.5,-96 155,-96 155,-116.75"/>
<text xml:space="preserve" text-anchor="middle" x="120.75" y="-103.25" font-family="Helvetica,sans-Serif" font-size="10.00">normalend</text>
</a>
</g>
</g>
<!-- Node1&#45;&gt;Node3 -->
<g id="edge2_Node000001_Node000003" class="edge">
<title>Node1&#45;&gt;Node3</title>
<g id="a_edge2_Node000001_Node000003"><a xlink:title=" ">
<path fill="none" stroke="#63b8ff" d="M40.81,-90.33C50.57,-92.31 62.83,-94.8 74.76,-97.23"/>
<polygon fill="#63b8ff" stroke="#63b8ff" points="74.03,-100.65 84.53,-99.21 75.42,-93.79 74.03,-100.65"/>
</a>
</g>
</g>
<!-- Node4 -->
<g id="Node000004" class="node">
<title>Node4</title>
<g id="a_Node000004"><a xlink:href="../../d0/d27/a00239.html#a5b496563e1004d5cf3aac814088ff99c" target="_top" xlink:title="Find the full path of a file in the directories specified by the PATH environment variable.">
<polygon fill="white" stroke="#666666" points="147.5,-77.75 94,-77.75 94,-57 147.5,-57 147.5,-77.75"/>
<text xml:space="preserve" text-anchor="middle" x="120.75" y="-64.25" font-family="Helvetica,sans-Serif" font-size="10.00">whence</text>
</a>
</g>
</g>
<!-- Node1&#45;&gt;Node4 -->
<g id="edge3_Node000001_Node000004" class="edge">
<title>Node1&#45;&gt;Node4</title>
<g id="a_edge3_Node000001_Node000004"><a xlink:title=" ">
<path fill="none" stroke="#63b8ff" d="M40.81,-82.62C52.74,-80.32 68.41,-77.29 82.64,-74.54"/>
<polygon fill="#63b8ff" stroke="#63b8ff" points="83.01,-78.04 92.16,-72.7 81.68,-71.16 83.01,-78.04"/>
</a>
</g>
</g>
<!-- Node9 -->
<g id="Node000009" class="node">
<title>Node9</title>
<g id="a_Node000009"><a xlink:href="../../d0/d27/a00239.html#a29ecb778b765c0b091abfcc46146a0ac" target="_top" xlink:title="Display usage information for the whence utility.">
<polygon fill="white" stroke="#666666" points="164.75,-38.75 76.75,-38.75 76.75,-18 164.75,-18 164.75,-38.75"/>
<text xml:space="preserve" text-anchor="middle" x="120.75" y="-25.25" font-family="Helvetica,sans-Serif" font-size="10.00">whence_usage</text>
</a>
</g>
</g>
<!-- Node1&#45;&gt;Node9 -->
<g id="edge10_Node000001_Node000009" class="edge">
<title>Node1&#45;&gt;Node9</title>
<g id="a_edge10_Node000001_Node000009"><a xlink:title=" ">
<path fill="none" stroke="#63b8ff" d="M35.52,-75.7C46.47,-67.68 62.17,-56.69 76.75,-48.38 79.25,-46.95 81.88,-45.54 84.54,-44.16"/>
<polygon fill="#63b8ff" stroke="#63b8ff" points="86.04,-47.32 93.48,-39.78 82.96,-41.04 86.04,-47.32"/>
</a>
</g>
</g>
<!-- Node5 -->
<g id="Node000005" class="node">
<title>Node5</title>
<g id="a_Node000005"><a xlink:href="../../d0/d27/a00239.html#ab7a6465a15ab53a9885da8d4db187066" target="_top" xlink:title="Split a file specification into directory and file name components.">
<polygon fill="white" stroke="#666666" points="290.25,-96.75 200.75,-96.75 200.75,-76 290.25,-76 290.25,-96.75"/>
<text xml:space="preserve" text-anchor="middle" x="245.5" y="-83.25" font-family="Helvetica,sans-Serif" font-size="10.00">file_spec_parts</text>
</a>
</g>
</g>
<!-- Node4&#45;&gt;Node5 -->
<g id="edge4_Node000004_Node000005" class="edge">
<title>Node4&#45;&gt;Node5</title>
<g id="a_edge4_Node000004_Node000005"><a xlink:title=" ">
<path fill="none" stroke="#63b8ff" d="M147.78,-71.4C160.01,-73.3 175.07,-75.63 189.64,-77.88"/>
<polygon fill="#63b8ff" stroke="#63b8ff" points="188.72,-81.28 199.13,-79.35 189.79,-74.36 188.72,-81.28"/>
</a>
</g>
</g>
<!-- Node6 -->
<g id="Node000006" class="node">
<title>Node6</title>
<g id="a_Node000006"><a xlink:href="../../d6/d7f/a00287.html#aa0145c044cfdde3a1c83323410a59f25" target="_top" xlink:title="safer alternative to strncat">
<polygon fill="white" stroke="#666666" points="392.88,-124.75 327.38,-124.75 327.38,-104 392.88,-104 392.88,-124.75"/>
<text xml:space="preserve" text-anchor="middle" x="360.12" y="-111.25" font-family="Helvetica,sans-Serif" font-size="10.00">strnz__cat</text>
</a>
</g>
</g>
<!-- Node4&#45;&gt;Node6 -->
<g id="edge8_Node000004_Node000006" class="edge">
<title>Node4&#45;&gt;Node6</title>
<g id="a_edge8_Node000004_Node000006"><a xlink:title=" ">
<path fill="none" stroke="#63b8ff" d="M145.02,-78.05C151.43,-81.03 158.37,-84.3 164.75,-87.38 180.86,-95.15 183.46,-100.77 200.75,-105.38 238.67,-115.47 283.45,-117.12 315.7,-116.59"/>
<polygon fill="#63b8ff" stroke="#63b8ff" points="315.55,-120.1 325.46,-116.35 315.38,-113.1 315.55,-120.1"/>
</a>
</g>
</g>
<!-- Node7 -->
<g id="Node000007" class="node">
<title>Node7</title>
<g id="a_Node000007"><a xlink:href="../../d6/d7f/a00287.html#a0de2e40df9bd7efc8fd9afb8ad2257e6" target="_top" xlink:title="safer alternative to strncpy">
<polygon fill="white" stroke="#666666" points="394,-76.75 326.25,-76.75 326.25,-56 394,-56 394,-76.75"/>
<text xml:space="preserve" text-anchor="middle" x="360.12" y="-63.25" font-family="Helvetica,sans-Serif" font-size="10.00">strnz__cpy</text>
</a>
</g>
</g>
<!-- Node4&#45;&gt;Node7 -->
<g id="edge9_Node000004_Node000007" class="edge">
<title>Node4&#45;&gt;Node7</title>
<g id="a_edge9_Node000004_Node000007"><a xlink:title=" ">
<path fill="none" stroke="#63b8ff" d="M147.61,-67.27C187.76,-67.1 265.62,-66.77 314.85,-66.56"/>
<polygon fill="#63b8ff" stroke="#63b8ff" points="314.6,-70.06 324.59,-66.52 314.57,-63.06 314.6,-70.06"/>
</a>
</g>
</g>
<!-- Node8 -->
<g id="Node000008" class="node">
<title>Node8</title>
<g id="a_Node000008"><a xlink:href="../../d0/d27/a00239.html#acac1da221398735ede713c45973ee35d" target="_top" xlink:title="Extract the next directory path from the PATH string.">
<polygon fill="white" stroke="#666666" points="277.88,-20.75 213.12,-20.75 213.12,0 277.88,0 277.88,-20.75"/>
<text xml:space="preserve" text-anchor="middle" x="245.5" y="-7.25" font-family="Helvetica,sans-Serif" font-size="10.00">next_path</text>
</a>
</g>
</g>
<!-- Node4&#45;&gt;Node8 -->
<g id="edge7_Node000004_Node000008" class="edge">
<title>Node4&#45;&gt;Node8</title>
<g id="a_edge7_Node000004_Node000008"><a xlink:title=" ">
<path fill="none" stroke="#63b8ff" d="M145.13,-56.52C163.73,-47.88 190,-35.68 210.86,-25.99"/>
<polygon fill="#63b8ff" stroke="#63b8ff" points="212.24,-29.21 219.84,-21.83 209.29,-22.86 212.24,-29.21"/>
</a>
</g>
</g>
<!-- Node5&#45;&gt;Node6 -->
<g id="edge5_Node000005_Node000006" class="edge">
<title>Node5&#45;&gt;Node6</title>
<g id="a_edge5_Node000005_Node000006"><a xlink:title=" ">
<path fill="none" stroke="#63b8ff" d="M290.04,-97.2C298.47,-99.3 307.3,-101.49 315.72,-103.58"/>
<polygon fill="#63b8ff" stroke="#63b8ff" points="314.86,-106.98 325.41,-105.99 316.55,-100.18 314.86,-106.98"/>
</a>
</g>
</g>
<!-- Node5&#45;&gt;Node7 -->
<g id="edge6_Node000005_Node000007" class="edge">
<title>Node5&#45;&gt;Node7</title>
<g id="a_edge6_Node000005_Node000007"><a xlink:title=" ">
<path fill="none" stroke="#63b8ff" d="M290.69,-78.53C298.56,-77.13 306.75,-75.67 314.63,-74.28"/>
<polygon fill="#63b8ff" stroke="#63b8ff" points="315.14,-77.74 324.37,-72.55 313.91,-70.85 315.14,-77.74"/>
</a>
</g>
</g>
</g>
</svg>
