<?xml version="1.0" encoding="UTF-8" standalone="no"?>
<!DOCTYPE svg PUBLIC "-//W3C//DTD SVG 1.1//EN"
 "http://www.w3.org/Graphics/SVG/1.1/DTD/svg11.dtd">
<!-- Generated by graphviz version 14.1.2 (0)
 -->
<!-- Title: form_enter_fields Pages: 1 -->
<svg width="1326pt" height="739pt"
 viewBox="0.00 0.00 1326.00 739.00" xmlns="http://www.w3.org/2000/svg" xmlns:xlink="http://www.w3.org/1999/xlink">
<g id="graph0" class="graph" transform="scale(1 1) rotate(0) translate(4 735.38)">
<title>form_enter_fields</title>
<!-- Node1 -->
<g id="Node000001" class="node">
<title>Node1</title>
<g id="a_Node000001"><a xlink:title="Handle user input for field entry, allowing navigation between fields and looping until an exit actio...">
<polygon fill="#999999" stroke="#666666" points="102.25,-382.75 0,-382.75 0,-362 102.25,-362 102.25,-382.75"/>
<text xml:space="preserve" text-anchor="middle" x="51.12" y="-369.25" font-family="Helvetica,sans-Serif" font-size="10.00">form_enter_fields</text>
</a>
</g>
</g>
<!-- Node2 -->
<g id="Node000002" class="node">
<title>Node2</title>
<g id="a_Node000002"><a xlink:href="../../db/d7b/a00296.html#aa3062b9adcfe4160df15f1763963f9f8" target="_top" xlink:title="Accept input for a field.">
<polygon fill="white" stroke="#666666" points="242,-382.75 138.25,-382.75 138.25,-362 242,-362 242,-382.75"/>
<text xml:space="preserve" text-anchor="middle" x="190.12" y="-369.25" font-family="Helvetica,sans-Serif" font-size="10.00">form_accept_field</text>
</a>
</g>
</g>
<!-- Node1&#45;&gt;Node2 -->
<g id="edge1_Node000001_Node000002" class="edge">
<title>Node1&#45;&gt;Node2</title>
<g id="a_edge1_Node000001_Node000002"><a xlink:title=" ">
<path fill="none" stroke="#63b8ff" d="M102.75,-372.38C110.43,-372.38 118.44,-372.38 126.34,-372.38"/>
<polygon fill="#63b8ff" stroke="#63b8ff" points="126.28,-375.88 136.28,-372.38 126.28,-368.88 126.28,-375.88"/>
</a>
</g>
</g>
<!-- Node3 -->
<g id="Node000003" class="node">
<title>Node3</title>
<g id="a_Node000003"><a xlink:href="../../d6/d82/a00293.html#a645871e46277e31736bc36d0f3dce4bd" target="_top" xlink:title="construct the chyron string from the chyron structure">
<polygon fill="white" stroke="#666666" points="943.75,-595.75 850.5,-595.75 850.5,-575 943.75,-575 943.75,-595.75"/>
<text xml:space="preserve" text-anchor="middle" x="897.12" y="-582.25" font-family="Helvetica,sans-Serif" font-size="10.00">compile_chyron</text>
</a>
</g>
</g>
<!-- Node2&#45;&gt;Node3 -->
<g id="edge2_Node000002_Node000003" class="edge">
<title>Node2&#45;&gt;Node3</title>
<g id="a_edge2_Node000002_Node000003"><a xlink:title=" ">
<path fill="none" stroke="#63b8ff" d="M191.67,-383.25C194.21,-422.58 207.91,-559.3 278,-638.38 342.92,-711.62 379.75,-731.38 477.62,-731.38 477.62,-731.38 477.62,-731.38 628,-731.38 733.45,-731.38 836.94,-643.19 877.83,-603.89"/>
<polygon fill="#63b8ff" stroke="#63b8ff" points="880.23,-606.44 884.92,-596.93 875.33,-601.44 880.23,-606.44"/>
</a>
</g>
</g>
<!-- Node5 -->
<g id="Node000005" class="node">
<title>Node5</title>
<g id="a_Node000005"><a xlink:href="../../d7/d40/a00236.html#a639a9c28161fb26549fb07378ae82f55" target="_top" xlink:title="Display the chyron (status line) at the bottom of the form window, showing available commands and the...">
<polygon fill="white" stroke="#666666" points="686,-703.75 568,-703.75 568,-683 686,-683 686,-703.75"/>
<text xml:space="preserve" text-anchor="middle" x="627" y="-690.25" font-family="Helvetica,sans-Serif" font-size="10.00">form_display_chyron</text>
</a>
</g>
</g>
<!-- Node2&#45;&gt;Node5 -->
<g id="edge4_Node000002_Node000005" class="edge">
<title>Node2&#45;&gt;Node5</title>
<g id="a_edge4_Node000002_Node000005"><a xlink:title=" ">
<path fill="none" stroke="#63b8ff" d="M192.92,-383.03C199.07,-416.7 222.07,-522.38 278,-587.38 327.58,-644.99 352.95,-650.9 425.25,-674.38 467.37,-688.05 516.89,-692.85 556.21,-694.21"/>
<polygon fill="#63b8ff" stroke="#63b8ff" points="555.93,-697.7 566.02,-694.47 556.12,-690.71 555.93,-697.7"/>
</a>
</g>
</g>
<!-- Node6 -->
<g id="Node000006" class="node">
<title>Node6</title>
<g id="a_Node000006"><a xlink:href="../../db/d7b/a00296.html#abd1710f59277202b0a58f840d4da322e" target="_top" xlink:title="Display current field.">
<polygon fill="white" stroke="#666666" points="387,-578.75 280.25,-578.75 280.25,-558 387,-558 387,-578.75"/>
<text xml:space="preserve" text-anchor="middle" x="333.62" y="-565.25" font-family="Helvetica,sans-Serif" font-size="10.00">form_display_field</text>
</a>
</g>
</g>
<!-- Node2&#45;&gt;Node6 -->
<g id="edge6_Node000002_Node000006" class="edge">
<title>Node2&#45;&gt;Node6</title>
<g id="a_edge6_Node000002_Node000006"><a xlink:title=" ">
<path fill="none" stroke="#63b8ff" d="M198.93,-383.19C221.79,-414.86 288.82,-507.69 318.36,-548.61"/>
<polygon fill="#63b8ff" stroke="#63b8ff" points="315.44,-550.54 324.13,-556.6 321.11,-546.45 315.44,-550.54"/>
</a>
</g>
</g>
<!-- Node8 -->
<g id="Node000008" class="node">
<title>Node8</title>
<g id="a_Node000008"><a xlink:href="../../db/d7b/a00296.html#a07a8d9311c88786e7310fef638d34a41" target="_top" xlink:title="Format field according to its format type.">
<polygon fill="white" stroke="#666666" points="378,-459.75 289.25,-459.75 289.25,-439 378,-439 378,-459.75"/>
<text xml:space="preserve" text-anchor="middle" x="333.62" y="-446.25" font-family="Helvetica,sans-Serif" font-size="10.00">form_fmt_field</text>
</a>
</g>
</g>
<!-- Node2&#45;&gt;Node8 -->
<g id="edge8_Node000002_Node000008" class="edge">
<title>Node2&#45;&gt;Node8</title>
<g id="a_edge8_Node000002_Node000008"><a xlink:title=" ">
<path fill="none" stroke="#63b8ff" d="M211.1,-383.24C235.01,-396.26 275.28,-418.17 302.86,-433.18"/>
<polygon fill="#63b8ff" stroke="#63b8ff" points="300.97,-436.13 311.42,-437.84 304.31,-429.98 300.97,-436.13"/>
</a>
</g>
</g>
<!-- Node13 -->
<g id="Node000013" class="node">
<title>Node13</title>
<g id="a_Node000013"><a xlink:href="../../d6/d82/a00293.html#a61b4f28456257f68ed042bed7f187efd" target="_top" xlink:title="Display a simple error message window or print to stderr.">
<polygon fill="white" stroke="#666666" points="501.25,-344.75 456,-344.75 456,-324 501.25,-324 501.25,-344.75"/>
<text xml:space="preserve" text-anchor="middle" x="478.62" y="-331.25" font-family="Helvetica,sans-Serif" font-size="10.00">Perror</text>
</a>
</g>
</g>
<!-- Node2&#45;&gt;Node13 -->
<g id="edge53_Node000002_Node000013" class="edge">
<title>Node2&#45;&gt;Node13</title>
<g id="a_edge53_Node000002_Node000013"><a xlink:title=" ">
<path fill="none" stroke="#63b8ff" d="M235.57,-361.58C249.13,-358.57 264.12,-355.55 278,-353.38 336.13,-344.29 404.52,-338.92 444.28,-336.32"/>
<polygon fill="#63b8ff" stroke="#63b8ff" points="444.39,-339.82 454.15,-335.69 443.95,-332.83 444.39,-339.82"/>
</a>
</g>
</g>
<!-- Node20 -->
<g id="Node000020" class="node">
<title>Node20</title>
<g id="a_Node000020"><a xlink:href="../../d6/d82/a00293.html#a208ce92c197fdd6d2b007987e534aa3b" target="_top" xlink:title="Set chyron key.">
<polygon fill="white" stroke="#666666" points="943,-77.75 851.25,-77.75 851.25,-57 943,-57 943,-77.75"/>
<text xml:space="preserve" text-anchor="middle" x="897.12" y="-64.25" font-family="Helvetica,sans-Serif" font-size="10.00">set_chyron_key</text>
</a>
</g>
</g>
<!-- Node2&#45;&gt;Node20 -->
<g id="edge54_Node000002_Node000020" class="edge">
<title>Node2&#45;&gt;Node20</title>
<g id="a_edge54_Node000002_Node000020"><a xlink:title=" ">
<path fill="none" stroke="#63b8ff" d="M194.51,-361.59C212.92,-305.38 306.43,-48.38 477.62,-48.38 477.62,-48.38 477.62,-48.38 628,-48.38 701.26,-48.38 785.49,-55.52 839.7,-61.05"/>
<polygon fill="#63b8ff" stroke="#63b8ff" points="839.31,-64.53 849.62,-62.08 840.03,-57.56 839.31,-64.53"/>
</a>
</g>
</g>
<!-- Node26 -->
<g id="Node000026" class="node">
<title>Node26</title>
<g id="a_Node000026"><a xlink:href="../../d6/d82/a00293.html#acf4c709bccc4c965a5d61db978db31a3" target="_top" xlink:title="Wrapper for wgetch that handles signals and mouse events.">
<polygon fill="white" stroke="#666666" points="655.62,-306.75 598.38,-306.75 598.38,-286 655.62,-286 655.62,-306.75"/>
<text xml:space="preserve" text-anchor="middle" x="627" y="-293.25" font-family="Helvetica,sans-Serif" font-size="10.00">xwgetch</text>
</a>
</g>
</g>
<!-- Node2&#45;&gt;Node26 -->
<g id="edge55_Node000002_Node000026" class="edge">
<title>Node2&#45;&gt;Node26</title>
<g id="a_edge55_Node000002_Node000026"><a xlink:title=" ">
<path fill="none" stroke="#63b8ff" d="M212.73,-361.63C229.99,-353.49 255.01,-342.67 278,-336.38 387.06,-306.51 521.27,-298.93 586.57,-297.01"/>
<polygon fill="#63b8ff" stroke="#63b8ff" points="586.52,-300.52 596.42,-296.76 586.34,-293.52 586.52,-300.52"/>
</a>
</g>
</g>
<!-- Node31 -->
<g id="Node000031" class="node">
<title>Node31</title>
<g id="a_Node000031"><a xlink:href="../../db/d7b/a00296.html#ad2a5cf5a784d70bcd15fcd82ecc13185" target="_top" xlink:title="Validate current field based on flags.">
<polygon fill="white" stroke="#666666" points="389.25,-382.75 278,-382.75 278,-362 389.25,-362 389.25,-382.75"/>
<text xml:space="preserve" text-anchor="middle" x="333.62" y="-369.25" font-family="Helvetica,sans-Serif" font-size="10.00">form_validate_field</text>
</a>
</g>
</g>
<!-- Node2&#45;&gt;Node31 -->
<g id="edge50_Node000002_Node000031" class="edge">
<title>Node2&#45;&gt;Node31</title>
<g id="a_edge50_Node000002_Node000031"><a xlink:title=" ">
<path fill="none" stroke="#63b8ff" d="M242.21,-372.38C250.07,-372.38 258.27,-372.38 266.4,-372.38"/>
<polygon fill="#63b8ff" stroke="#63b8ff" points="266.28,-375.88 276.28,-372.38 266.28,-368.88 266.28,-375.88"/>
</a>
</g>
</g>
<!-- Node32 -->
<g id="Node000032" class="node">
<title>Node32</title>
<g id="a_Node000032"><a xlink:href="../../d7/d40/a00236.html#a3c66bd6b1987c79ef5a31bb28227c65b" target="_top" xlink:title=" ">
<polygon fill="white" stroke="#666666" points="381.38,-20.75 285.88,-20.75 285.88,0 381.38,0 381.38,-20.75"/>
<text xml:space="preserve" text-anchor="middle" x="333.62" y="-7.25" font-family="Helvetica,sans-Serif" font-size="10.00">form_yx_to_fidx</text>
</a>
</g>
</g>
<!-- Node2&#45;&gt;Node32 -->
<g id="edge52_Node000002_Node000032" class="edge">
<title>Node2&#45;&gt;Node32</title>
<g id="a_edge52_Node000002_Node000032"><a xlink:title=" ">
<path fill="none" stroke="#63b8ff" d="M190.71,-361.8C189.53,-316.59 190.72,-137.12 278,-34.38 280.27,-31.7 282.9,-29.31 285.76,-27.18"/>
<polygon fill="#63b8ff" stroke="#63b8ff" points="287.48,-30.23 294.16,-22.01 283.81,-24.27 287.48,-30.23"/>
</a>
</g>
</g>
<!-- Node4 -->
<g id="Node000004" class="node">
<title>Node4</title>
<g id="a_Node000004"><a xlink:href="../../d6/d7f/a00287.html#aa0145c044cfdde3a1c83323410a59f25" target="_top" xlink:title="safer alternative to strncat">
<polygon fill="white" stroke="#666666" points="1046.38,-595.75 980.88,-595.75 980.88,-575 1046.38,-575 1046.38,-595.75"/>
<text xml:space="preserve" text-anchor="middle" x="1013.62" y="-582.25" font-family="Helvetica,sans-Serif" font-size="10.00">strnz__cat</text>
</a>
</g>
</g>
<!-- Node3&#45;&gt;Node4 -->
<g id="edge3_Node000003_Node000004" class="edge">
<title>Node3&#45;&gt;Node4</title>
<g id="a_edge3_Node000003_Node000004"><a xlink:title=" ">
<path fill="none" stroke="#63b8ff" d="M944.04,-585.38C952.33,-585.38 960.94,-585.38 969.16,-585.38"/>
<polygon fill="#63b8ff" stroke="#63b8ff" points="968.92,-588.88 978.92,-585.38 968.92,-581.88 968.92,-588.88"/>
</a>
</g>
</g>
<!-- Node5&#45;&gt;Node3 -->
<g id="edge5_Node000005_Node000003" class="edge">
<title>Node5&#45;&gt;Node3</title>
<g id="a_edge5_Node000005_Node000003"><a xlink:title=" ">
<path fill="none" stroke="#63b8ff" d="M654.69,-682.62C702.65,-663.31 803.51,-622.68 858.47,-600.54"/>
<polygon fill="#63b8ff" stroke="#63b8ff" points="859.77,-603.79 867.74,-596.81 857.16,-597.3 859.77,-603.79"/>
</a>
</g>
</g>
<!-- Node7 -->
<g id="Node000007" class="node">
<title>Node7</title>
<g id="a_Node000007"><a xlink:href="../../db/d7b/a00296.html#ad306f4b1bdcba7aefece7e4b73367b66" target="_top" xlink:title="Display brackets around current field if set.">
<polygon fill="white" stroke="#666666" points="532,-665.12 425.25,-665.12 425.25,-631.62 532,-631.62 532,-665.12"/>
<text xml:space="preserve" text-anchor="start" x="433.25" y="-651.62" font-family="Helvetica,sans-Serif" font-size="10.00">form_display_field</text>
<text xml:space="preserve" text-anchor="middle" x="478.62" y="-638.88" font-family="Helvetica,sans-Serif" font-size="10.00">_brackets</text>
</a>
</g>
</g>
<!-- Node6&#45;&gt;Node7 -->
<g id="edge7_Node000006_Node000007" class="edge">
<title>Node6&#45;&gt;Node7</title>
<g id="a_edge7_Node000006_Node000007"><a xlink:title=" ">
<path fill="none" stroke="#63b8ff" d="M351.77,-579.13C369.83,-590.32 399.2,-608.17 425.25,-622.38 427.46,-623.58 429.73,-624.79 432.03,-626.01"/>
<polygon fill="#63b8ff" stroke="#63b8ff" points="430.38,-629.09 440.87,-630.57 433.59,-622.87 430.38,-629.09"/>
</a>
</g>
</g>
<!-- Node9 -->
<g id="Node000009" class="node">
<title>Node9</title>
<g id="a_Node000009"><a xlink:href="../../db/d7b/a00296.html#a425021d4c87474159a36d395e4dcdf65" target="_top" xlink:title="Left justify string by removing leading spaces.">
<polygon fill="white" stroke="#666666" points="512.88,-613.75 444.38,-613.75 444.38,-593 512.88,-593 512.88,-613.75"/>
<text xml:space="preserve" text-anchor="middle" x="478.62" y="-600.25" font-family="Helvetica,sans-Serif" font-size="10.00">left_justify</text>
</a>
</g>
</g>
<!-- Node8&#45;&gt;Node9 -->
<g id="edge9_Node000008_Node000009" class="edge">
<title>Node8&#45;&gt;Node9</title>
<g id="a_edge9_Node000008_Node000009"><a xlink:title=" ">
<path fill="none" stroke="#63b8ff" d="M339.09,-460.04C350.07,-485.07 380.8,-548.13 425.25,-583.38 427.95,-585.51 430.9,-587.44 433.98,-589.18"/>
<polygon fill="#63b8ff" stroke="#63b8ff" points="432.24,-592.23 442.77,-593.43 435.29,-585.93 432.24,-592.23"/>
</a>
</g>
</g>
<!-- Node10 -->
<g id="Node000010" class="node">
<title>Node10</title>
<g id="a_Node000010"><a xlink:href="../../d6/d7f/a00287.html#a34703756fd5be0fde758400f320db047" target="_top" xlink:title="Trims leading and trailing spaces from string s in place.">
<polygon fill="white" stroke="#666666" points="645.12,-572.75 608.88,-572.75 608.88,-552 645.12,-552 645.12,-572.75"/>
<text xml:space="preserve" text-anchor="middle" x="627" y="-559.25" font-family="Helvetica,sans-Serif" font-size="10.00">trim</text>
</a>
</g>
</g>
<!-- Node8&#45;&gt;Node10 -->
<g id="edge49_Node000008_Node000010" class="edge">
<title>Node8&#45;&gt;Node10</title>
<g id="a_edge49_Node000008_Node000010"><a xlink:title=" ">
<path fill="none" stroke="#63b8ff" d="M378.37,-459.61C428.04,-471.64 505.61,-491.82 532,-506.38 550.75,-516.71 549.86,-527.01 568,-538.38 577.26,-544.17 588.16,-549.11 598,-552.97"/>
<polygon fill="#63b8ff" stroke="#63b8ff" points="596.5,-556.15 607.1,-556.34 598.93,-549.59 596.5,-556.15"/>
</a>
</g>
</g>
<!-- Node11 -->
<g id="Node000011" class="node">
<title>Node11</title>
<g id="a_Node000011"><a xlink:href="../../db/d7b/a00296.html#aac069c6892f64ea6307044a92b179faa" target="_top" xlink:title="Create filler string for field.">
<polygon fill="white" stroke="#666666" points="508.38,-574.75 448.88,-574.75 448.88,-554 508.38,-554 508.38,-574.75"/>
<text xml:space="preserve" text-anchor="middle" x="478.62" y="-561.25" font-family="Helvetica,sans-Serif" font-size="10.00">mk_filler</text>
</a>
</g>
</g>
<!-- Node8&#45;&gt;Node11 -->
<g id="edge11_Node000008_Node000011" class="edge">
<title>Node8&#45;&gt;Node11</title>
<g id="a_edge11_Node000008_Node000011"><a xlink:title=" ">
<path fill="none" stroke="#63b8ff" d="M342.17,-459.98C356.39,-479.25 389,-520.27 425.25,-544.38 429.22,-547.01 433.58,-549.37 438.04,-551.46"/>
<polygon fill="#63b8ff" stroke="#63b8ff" points="436.53,-554.63 447.11,-555.28 439.25,-548.17 436.53,-554.63"/>
</a>
</g>
</g>
<!-- Node12 -->
<g id="Node000012" class="node">
<title>Node12</title>
<g id="a_Node000012"><a xlink:href="../../db/d7b/a00296.html#a18db59e4c79e823f79310378183ac25c" target="_top" xlink:title="Extract numeric characters from source string to destination string.">
<polygon fill="white" stroke="#666666" points="506.5,-535.75 450.75,-535.75 450.75,-515 506.5,-515 506.5,-535.75"/>
<text xml:space="preserve" text-anchor="middle" x="478.62" y="-522.25" font-family="Helvetica,sans-Serif" font-size="10.00">numeric</text>
</a>
</g>
</g>
<!-- Node8&#45;&gt;Node12 -->
<g id="edge12_Node000008_Node000012" class="edge">
<title>Node8&#45;&gt;Node12</title>
<g id="a_edge12_Node000008_Node000012"><a xlink:title=" ">
<path fill="none" stroke="#63b8ff" d="M352.41,-460.23C370.49,-471.1 399.44,-488.09 425.25,-501.38 430.81,-504.24 436.77,-507.13 442.62,-509.87"/>
<polygon fill="#63b8ff" stroke="#63b8ff" points="440.97,-512.96 451.51,-513.97 443.89,-506.61 440.97,-512.96"/>
</a>
</g>
</g>
<!-- Node8&#45;&gt;Node13 -->
<g id="edge13_Node000008_Node000013" class="edge">
<title>Node8&#45;&gt;Node13</title>
<g id="a_edge13_Node000008_Node000013"><a xlink:title=" ">
<path fill="none" stroke="#63b8ff" d="M344.75,-438.79C366.44,-416.19 416.15,-364.72 425.25,-358.38 431.34,-354.13 438.29,-350.34 445.1,-347.08"/>
<polygon fill="#63b8ff" stroke="#63b8ff" points="446.45,-350.31 454.15,-343.04 443.6,-343.92 446.45,-350.31"/>
</a>
</g>
</g>
<!-- Node22 -->
<g id="Node000022" class="node">
<title>Node22</title>
<g id="a_Node000022"><a xlink:href="../../d6/d7f/a00287.html#a0de2e40df9bd7efc8fd9afb8ad2257e6" target="_top" xlink:title="safer alternative to strncpy">
<polygon fill="white" stroke="#666666" points="1047.5,-459.75 979.75,-459.75 979.75,-439 1047.5,-439 1047.5,-459.75"/>
<text xml:space="preserve" text-anchor="middle" x="1013.62" y="-446.25" font-family="Helvetica,sans-Serif" font-size="10.00">strnz__cpy</text>
</a>
</g>
</g>
<!-- Node8&#45;&gt;Node22 -->
<g id="edge48_Node000008_Node000022" class="edge">
<title>Node8&#45;&gt;Node22</title>
<g id="a_edge48_Node000008_Node000022"><a xlink:title=" ">
<path fill="none" stroke="#63b8ff" d="M346.4,-438.63C362.69,-424.56 393.7,-400.61 425.25,-391.38 470.79,-378.05 488.17,-373.22 532,-391.38 552.91,-400.03 548.12,-416.56 568,-427.38 679.45,-488 723.69,-464.43 850.5,-468.38 891.92,-469.66 902.68,-473.94 943.75,-468.38 952.21,-467.23 961.1,-465.33 969.58,-463.16"/>
<polygon fill="#63b8ff" stroke="#63b8ff" points="970.23,-466.6 978.96,-460.59 968.39,-459.85 970.23,-466.6"/>
</a>
</g>
</g>
<!-- Node29 -->
<g id="Node000029" class="node">
<title>Node29</title>
<g id="a_Node000029"><a xlink:href="../../db/d7b/a00296.html#a21ebe9713e3b003715a7a2c3b64cbf55" target="_top" xlink:title="Right justify string by removing trailing spaces and adding leading spaces.">
<polygon fill="white" stroke="#666666" points="515.88,-459.75 441.38,-459.75 441.38,-439 515.88,-439 515.88,-459.75"/>
<text xml:space="preserve" text-anchor="middle" x="478.62" y="-446.25" font-family="Helvetica,sans-Serif" font-size="10.00">right_justify</text>
</a>
</g>
</g>
<!-- Node8&#45;&gt;Node29 -->
<g id="edge45_Node000008_Node000029" class="edge">
<title>Node8&#45;&gt;Node29</title>
<g id="a_edge45_Node000008_Node000029"><a xlink:title=" ">
<path fill="none" stroke="#63b8ff" d="M378.31,-449.38C394.59,-449.38 413.15,-449.38 429.79,-449.38"/>
<polygon fill="#63b8ff" stroke="#63b8ff" points="429.44,-452.88 439.44,-449.38 429.44,-445.88 429.44,-452.88"/>
</a>
</g>
</g>
<!-- Node30 -->
<g id="Node000030" class="node">
<title>Node30</title>
<g id="a_Node000030"><a xlink:href="../../d6/d7f/a00287.html#a636608f26d1193b5d860f2312cd8ee49" target="_top" xlink:title="terminates string at New Line, Carriage Return, or max_len">
<polygon fill="white" stroke="#666666" points="498.62,-420.75 458.62,-420.75 458.62,-400 498.62,-400 498.62,-420.75"/>
<text xml:space="preserve" text-anchor="middle" x="478.62" y="-407.25" font-family="Helvetica,sans-Serif" font-size="10.00">strnz</text>
</a>
</g>
</g>
<!-- Node8&#45;&gt;Node30 -->
<g id="edge47_Node000008_Node000030" class="edge">
<title>Node8&#45;&gt;Node30</title>
<g id="a_edge47_Node000008_Node000030"><a xlink:title=" ">
<path fill="none" stroke="#63b8ff" d="M374.46,-438.51C397.61,-432.2 426.31,-424.37 447.56,-418.58"/>
<polygon fill="#63b8ff" stroke="#63b8ff" points="448.32,-421.99 457.05,-415.99 446.48,-415.24 448.32,-421.99"/>
</a>
</g>
</g>
<!-- Node9&#45;&gt;Node10 -->
<g id="edge10_Node000009_Node000010" class="edge">
<title>Node9&#45;&gt;Node10</title>
<g id="a_edge10_Node000009_Node000010"><a xlink:title=" ">
<path fill="none" stroke="#63b8ff" d="M513.21,-593.97C538.74,-586.82 573.47,-577.09 597.62,-570.32"/>
<polygon fill="#63b8ff" stroke="#63b8ff" points="598.4,-573.74 607.09,-567.67 596.51,-567 598.4,-573.74"/>
</a>
</g>
</g>
<!-- Node13&#45;&gt;Node3 -->
<g id="edge20_Node000013_Node000003" class="edge">
<title>Node13&#45;&gt;Node3</title>
<g id="a_edge20_Node000013_Node000003"><a xlink:title=" ">
<path fill="none" stroke="#63b8ff" d="M491.03,-344.96C502.35,-355.86 519.75,-373.7 532,-391.38 552.16,-420.45 541.64,-438.78 568,-462.38 646.2,-532.37 768.02,-563.89 839.15,-577"/>
<polygon fill="#63b8ff" stroke="#63b8ff" points="838.17,-580.38 848.63,-578.68 839.4,-573.49 838.17,-580.38"/>
</a>
</g>
</g>
<!-- Node14 -->
<g id="Node000014" class="node">
<title>Node14</title>
<g id="a_Node000014"><a xlink:href="../../d6/d82/a00293.html#a8f6c45ca4a7f6a41c4c88314e697565a" target="_top" xlink:title="Abnormal program termination.">
<polygon fill="white" stroke="#666666" points="1036.62,-229.75 990.62,-229.75 990.62,-209 1036.62,-209 1036.62,-229.75"/>
<text xml:space="preserve" text-anchor="middle" x="1013.62" y="-216.25" font-family="Helvetica,sans-Serif" font-size="10.00">abend</text>
</a>
</g>
</g>
<!-- Node13&#45;&gt;Node14 -->
<g id="edge14_Node000013_Node000014" class="edge">
<title>Node13&#45;&gt;Node14</title>
<g id="a_edge14_Node000013_Node000014"><a xlink:title=" ">
<path fill="none" stroke="#63b8ff" d="M485.81,-323.78C498.37,-303.34 529.02,-258.68 568,-238.38 716.87,-160.83 777.42,-177.85 943.75,-200.38 955.52,-201.97 968.12,-205.03 979.28,-208.23"/>
<polygon fill="#63b8ff" stroke="#63b8ff" points="978.26,-211.58 988.85,-211.13 980.29,-204.88 978.26,-211.58"/>
</a>
</g>
</g>
<!-- Node18 -->
<g id="Node000018" class="node">
<title>Node18</title>
<g id="a_Node000018"><a xlink:href="../../d6/d82/a00293.html#a3f3feb40fd703913c5c136331f627c91" target="_top" xlink:title="Destroy Chyron structure.">
<polygon fill="white" stroke="#666666" points="942.62,-343.75 851.62,-343.75 851.62,-323 942.62,-323 942.62,-343.75"/>
<text xml:space="preserve" text-anchor="middle" x="897.12" y="-330.25" font-family="Helvetica,sans-Serif" font-size="10.00">destroy_chyron</text>
</a>
</g>
</g>
<!-- Node13&#45;&gt;Node18 -->
<g id="edge21_Node000013_Node000018" class="edge">
<title>Node13&#45;&gt;Node18</title>
<g id="a_edge21_Node000013_Node000018"><a xlink:title=" ">
<path fill="none" stroke="#63b8ff" d="M501.72,-334.32C564.7,-334.17 746.55,-333.73 839.68,-333.51"/>
<polygon fill="#63b8ff" stroke="#63b8ff" points="839.63,-337.01 849.62,-333.49 839.61,-330.01 839.63,-337.01"/>
</a>
</g>
</g>
<!-- Node19 -->
<g id="Node000019" class="node">
<title>Node19</title>
<g id="a_Node000019"><a xlink:href="../../d6/d82/a00293.html#ad37d5808ff30ae6894780425d865abae" target="_top" xlink:title="Create and initialize Chyron structure.">
<polygon fill="white" stroke="#666666" points="934.38,-229.75 859.88,-229.75 859.88,-209 934.38,-209 934.38,-229.75"/>
<text xml:space="preserve" text-anchor="middle" x="897.12" y="-216.25" font-family="Helvetica,sans-Serif" font-size="10.00">new_chyron</text>
</a>
</g>
</g>
<!-- Node13&#45;&gt;Node19 -->
<g id="edge22_Node000013_Node000019" class="edge">
<title>Node13&#45;&gt;Node19</title>
<g id="a_edge22_Node000013_Node000019"><a xlink:title=" ">
<path fill="none" stroke="#63b8ff" d="M493.21,-323.59C509.91,-310.83 539.54,-289.76 568,-277.38 661.83,-236.55 782.64,-224.45 848.36,-220.87"/>
<polygon fill="#63b8ff" stroke="#63b8ff" points="848.26,-224.38 858.07,-220.39 847.91,-217.39 848.26,-224.38"/>
</a>
</g>
</g>
<!-- Node13&#45;&gt;Node20 -->
<g id="edge24_Node000013_Node000020" class="edge">
<title>Node13&#45;&gt;Node20</title>
<g id="a_edge24_Node000013_Node000020"><a xlink:title=" ">
<path fill="none" stroke="#63b8ff" d="M480.21,-323.75C482.84,-287.2 496.81,-165.93 568,-110.38 609.11,-78.3 756.89,-70.09 839.4,-68.03"/>
<polygon fill="#63b8ff" stroke="#63b8ff" points="839.4,-71.53 849.32,-67.81 839.25,-64.53 839.4,-71.53"/>
</a>
</g>
</g>
<!-- Node21 -->
<g id="Node000021" class="node">
<title>Node21</title>
<g id="a_Node000021"><a xlink:href="../../d6/d7f/a00287.html#a63eb94756fb011a456a3dec900709cd8" target="_top" xlink:title="ssnprintf was designed to be a safer alternative to snprintf.">
<polygon fill="white" stroke="#666666" points="1043,-115.75 984.25,-115.75 984.25,-95 1043,-95 1043,-115.75"/>
<text xml:space="preserve" text-anchor="middle" x="1013.62" y="-102.25" font-family="Helvetica,sans-Serif" font-size="10.00">ssnprintf</text>
</a>
</g>
</g>
<!-- Node13&#45;&gt;Node21 -->
<g id="edge26_Node000013_Node000021" class="edge">
<title>Node13&#45;&gt;Node21</title>
<g id="a_edge26_Node000013_Node000021"><a xlink:title=" ">
<path fill="none" stroke="#63b8ff" d="M482.67,-323.77C491.15,-296.31 517.75,-222.56 568,-187.38 694.4,-98.87 888.85,-97.94 972.31,-102.27"/>
<polygon fill="#63b8ff" stroke="#63b8ff" points="972.1,-105.77 982.29,-102.85 972.51,-98.78 972.1,-105.77"/>
</a>
</g>
</g>
<!-- Node13&#45;&gt;Node22 -->
<g id="edge27_Node000013_Node000022" class="edge">
<title>Node13&#45;&gt;Node22</title>
<g id="a_edge27_Node000013_Node000022"><a xlink:title=" ">
<path fill="none" stroke="#63b8ff" d="M501.67,-342.5C511.38,-346.56 522.67,-351.99 532,-358.38 550.41,-370.98 547.97,-383.54 568,-393.38 701.92,-459.16 884.71,-457.81 968,-452.99"/>
<polygon fill="#63b8ff" stroke="#63b8ff" points="968.04,-456.5 977.8,-452.37 967.6,-449.51 968.04,-456.5"/>
</a>
</g>
</g>
<!-- Node23 -->
<g id="Node000023" class="node">
<title>Node23</title>
<g id="a_Node000023"><a xlink:href="../../d6/d82/a00293.html#a9dd598e1d49c8764af1eec42c682623e" target="_top" xlink:title="Delete the current window and its associated box window.">
<polygon fill="white" stroke="#666666" points="923.88,-382.75 870.38,-382.75 870.38,-362 923.88,-362 923.88,-382.75"/>
<text xml:space="preserve" text-anchor="middle" x="897.12" y="-369.25" font-family="Helvetica,sans-Serif" font-size="10.00">win_del</text>
</a>
</g>
</g>
<!-- Node13&#45;&gt;Node23 -->
<g id="edge28_Node000013_Node000023" class="edge">
<title>Node13&#45;&gt;Node23</title>
<g id="a_edge28_Node000013_Node000023"><a xlink:title=" ">
<path fill="none" stroke="#63b8ff" d="M501.71,-338.4C519.54,-341.53 545.32,-345.75 568,-348.38 673.06,-360.52 797.79,-367.65 858.78,-370.67"/>
<polygon fill="#63b8ff" stroke="#63b8ff" points="858.44,-374.16 868.6,-371.14 858.78,-367.16 858.44,-374.16"/>
</a>
</g>
</g>
<!-- Node24 -->
<g id="Node000024" class="node">
<title>Node24</title>
<g id="a_Node000024"><a xlink:href="../../d6/d82/a00293.html#a435c7bff7ffedb8f51c6de9259e36f6c" target="_top" xlink:title="Create a new window with optional box and title.">
<polygon fill="white" stroke="#666666" points="926.5,-421.75 867.75,-421.75 867.75,-401 926.5,-401 926.5,-421.75"/>
<text xml:space="preserve" text-anchor="middle" x="897.12" y="-408.25" font-family="Helvetica,sans-Serif" font-size="10.00">win_new</text>
</a>
</g>
</g>
<!-- Node13&#45;&gt;Node24 -->
<g id="edge29_Node000013_Node000024" class="edge">
<title>Node13&#45;&gt;Node24</title>
<g id="a_edge29_Node000013_Node000024"><a xlink:title=" ">
<path fill="none" stroke="#63b8ff" d="M501.67,-344.54C519.26,-352.24 544.74,-362.47 568,-368.38 670.01,-394.29 794.05,-405.14 856.35,-409.21"/>
<polygon fill="#63b8ff" stroke="#63b8ff" points="855.9,-412.69 866.1,-409.82 856.34,-405.7 855.9,-412.69"/>
</a>
</g>
</g>
<!-- Node13&#45;&gt;Node26 -->
<g id="edge32_Node000013_Node000026" class="edge">
<title>Node13&#45;&gt;Node26</title>
<g id="a_edge32_Node000013_Node000026"><a xlink:title=" ">
<path fill="none" stroke="#63b8ff" d="M501.54,-328.69C524.11,-322.83 559.76,-313.57 587.13,-306.47"/>
<polygon fill="#63b8ff" stroke="#63b8ff" points="587.65,-309.95 596.45,-304.05 585.89,-303.17 587.65,-309.95"/>
</a>
</g>
</g>
<!-- Node15 -->
<g id="Node000015" class="node">
<title>Node15</title>
<g id="a_Node000015"><a xlink:href="../../d6/d82/a00293.html#afc0985a403e3eac0b2cd8f0fab500256" target="_top" xlink:title="Gracefully shut down NCurses and restore terminal settings.">
<polygon fill="white" stroke="#666666" points="1173,-229.75 1083.5,-229.75 1083.5,-209 1173,-209 1173,-229.75"/>
<text xml:space="preserve" text-anchor="middle" x="1128.25" y="-216.25" font-family="Helvetica,sans-Serif" font-size="10.00">destroy_curses</text>
</a>
</g>
</g>
<!-- Node14&#45;&gt;Node15 -->
<g id="edge15_Node000014_Node000015" class="edge">
<title>Node14&#45;&gt;Node15</title>
<g id="a_edge15_Node000014_Node000015"><a xlink:title=" ">
<path fill="none" stroke="#63b8ff" d="M1036.88,-219.38C1046.99,-219.38 1059.44,-219.38 1071.84,-219.38"/>
<polygon fill="#63b8ff" stroke="#63b8ff" points="1071.63,-222.88 1081.63,-219.38 1071.63,-215.88 1071.63,-222.88"/>
</a>
</g>
</g>
<!-- Node16 -->
<g id="Node000016" class="node">
<title>Node16</title>
<g id="a_Node000016"><a xlink:href="../../df/d95/a00299.html#ac5e3adb304b78910fc77761ef6a743f0" target="_top" xlink:title="restore_shell_tioctl() &#45; restore shell terminal settings">
<polygon fill="white" stroke="#666666" points="1318,-257.75 1209,-257.75 1209,-237 1318,-237 1318,-257.75"/>
<text xml:space="preserve" text-anchor="middle" x="1263.5" y="-244.25" font-family="Helvetica,sans-Serif" font-size="10.00">restore_shell_tioctl</text>
</a>
</g>
</g>
<!-- Node14&#45;&gt;Node16 -->
<g id="edge18_Node000014_Node000016" class="edge">
<title>Node14&#45;&gt;Node16</title>
<g id="a_edge18_Node000014_Node000016"><a xlink:title=" ">
<path fill="none" stroke="#63b8ff" d="M1037,-226.88C1050.34,-231.03 1067.7,-235.83 1083.5,-238.38 1120.9,-244.4 1163.21,-246.73 1197.3,-247.52"/>
<polygon fill="#63b8ff" stroke="#63b8ff" points="1196.95,-251.01 1207.01,-247.7 1197.08,-244.01 1196.95,-251.01"/>
</a>
</g>
</g>
<!-- Node17 -->
<g id="Node000017" class="node">
<title>Node17</title>
<g id="a_Node000017"><a xlink:href="../../d3/d1a/a00251.html#a06c1eb6cf3649dc187115565409f91af" target="_top" xlink:title="Set signal handlers to default behavior.">
<polygon fill="white" stroke="#666666" points="1304.12,-209.75 1222.88,-209.75 1222.88,-189 1304.12,-189 1304.12,-209.75"/>
<text xml:space="preserve" text-anchor="middle" x="1263.5" y="-196.25" font-family="Helvetica,sans-Serif" font-size="10.00">sig_dfl_mode</text>
</a>
</g>
</g>
<!-- Node14&#45;&gt;Node17 -->
<g id="edge19_Node000014_Node000017" class="edge">
<title>Node14&#45;&gt;Node17</title>
<g id="a_edge19_Node000014_Node000017"><a xlink:title=" ">
<path fill="none" stroke="#63b8ff" d="M1036.96,-211.6C1050.28,-207.37 1067.65,-202.57 1083.5,-200.38 1126.28,-194.46 1175.36,-194.67 1211.29,-196.1"/>
<polygon fill="#63b8ff" stroke="#63b8ff" points="1210.81,-199.58 1220.96,-196.54 1211.13,-192.59 1210.81,-199.58"/>
</a>
</g>
</g>
<!-- Node15&#45;&gt;Node16 -->
<g id="edge16_Node000015_Node000016" class="edge">
<title>Node15&#45;&gt;Node16</title>
<g id="a_edge16_Node000015_Node000016"><a xlink:title=" ">
<path fill="none" stroke="#63b8ff" d="M1173.25,-228.62C1181.87,-230.43 1191.07,-232.37 1200.16,-234.28"/>
<polygon fill="#63b8ff" stroke="#63b8ff" points="1199.16,-237.64 1209.67,-236.27 1200.6,-230.79 1199.16,-237.64"/>
</a>
</g>
</g>
<!-- Node15&#45;&gt;Node17 -->
<g id="edge17_Node000015_Node000017" class="edge">
<title>Node15&#45;&gt;Node17</title>
<g id="a_edge17_Node000015_Node000017"><a xlink:title=" ">
<path fill="none" stroke="#63b8ff" d="M1173.25,-212.77C1185.44,-210.94 1198.77,-208.94 1211.33,-207.06"/>
<polygon fill="#63b8ff" stroke="#63b8ff" points="1211.73,-210.54 1221.1,-205.59 1210.69,-203.61 1211.73,-210.54"/>
</a>
</g>
</g>
<!-- Node19&#45;&gt;Node14 -->
<g id="edge23_Node000019_Node000014" class="edge">
<title>Node19&#45;&gt;Node14</title>
<g id="a_edge23_Node000019_Node000014"><a xlink:title=" ">
<path fill="none" stroke="#63b8ff" d="M934.67,-219.38C948.99,-219.38 965.3,-219.38 979.29,-219.38"/>
<polygon fill="#63b8ff" stroke="#63b8ff" points="978.89,-222.88 988.89,-219.38 978.89,-215.88 978.89,-222.88"/>
</a>
</g>
</g>
<!-- Node20&#45;&gt;Node21 -->
<g id="edge25_Node000020_Node000021" class="edge">
<title>Node20&#45;&gt;Node21</title>
<g id="a_edge25_Node000020_Node000021"><a xlink:title=" ">
<path fill="none" stroke="#63b8ff" d="M930.63,-78.16C943.88,-82.56 959.32,-87.68 973.21,-92.29"/>
<polygon fill="#63b8ff" stroke="#63b8ff" points="971.91,-95.55 982.5,-95.38 974.11,-88.91 971.91,-95.55"/>
</a>
</g>
</g>
<!-- Node24&#45;&gt;Node22 -->
<g id="edge31_Node000024_Node000022" class="edge">
<title>Node24&#45;&gt;Node22</title>
<g id="a_edge31_Node000024_Node000022"><a xlink:title=" ">
<path fill="none" stroke="#63b8ff" d="M926.72,-420.87C939.6,-425.14 955.09,-430.28 969.34,-435.01"/>
<polygon fill="#63b8ff" stroke="#63b8ff" points="967.91,-438.22 978.5,-438.05 970.12,-431.58 967.91,-438.22"/>
</a>
</g>
</g>
<!-- Node25 -->
<g id="Node000025" class="node">
<title>Node25</title>
<g id="a_Node000025"><a xlink:href="../../d6/d82/a00293.html#ac9adcf7339be4a05ab1a7350c236b8a5" target="_top" xlink:title="Draw a box around the specified window.">
<polygon fill="white" stroke="#666666" points="1033.25,-420.75 994,-420.75 994,-400 1033.25,-400 1033.25,-420.75"/>
<text xml:space="preserve" text-anchor="middle" x="1013.62" y="-407.25" font-family="Helvetica,sans-Serif" font-size="10.00">cbox</text>
</a>
</g>
</g>
<!-- Node24&#45;&gt;Node25 -->
<g id="edge30_Node000024_Node000025" class="edge">
<title>Node24&#45;&gt;Node25</title>
<g id="a_edge30_Node000024_Node000025"><a xlink:title=" ">
<path fill="none" stroke="#63b8ff" d="M926.72,-411.13C943.65,-410.98 965.07,-410.79 982.29,-410.64"/>
<polygon fill="#63b8ff" stroke="#63b8ff" points="982.22,-414.14 992.19,-410.55 982.16,-407.14 982.22,-414.14"/>
</a>
</g>
</g>
<!-- Node27 -->
<g id="Node000027" class="node">
<title>Node27</title>
<g id="a_Node000027"><a xlink:href="../../d6/d82/a00293.html#a67659f8a701b74f4dec0d36227a10d1c" target="_top" xlink:title="Display an error message window or print to stderr.">
<polygon fill="white" stroke="#666666" points="808.12,-306.75 728.38,-306.75 728.38,-286 808.12,-286 808.12,-306.75"/>
<text xml:space="preserve" text-anchor="middle" x="768.25" y="-293.25" font-family="Helvetica,sans-Serif" font-size="10.00">display_error</text>
</a>
</g>
</g>
<!-- Node26&#45;&gt;Node27 -->
<g id="edge33_Node000026_Node000027" class="edge">
<title>Node26&#45;&gt;Node27</title>
<g id="a_edge33_Node000026_Node000027"><a xlink:title=" ">
<path fill="none" stroke="#63b8ff" d="M655.84,-290.85C673.24,-289.68 696.16,-289.35 716.69,-289.86"/>
<polygon fill="#63b8ff" stroke="#63b8ff" points="716.49,-293.35 726.6,-290.19 716.72,-286.35 716.49,-293.35"/>
</a>
</g>
</g>
<!-- Node28 -->
<g id="Node000028" class="node">
<title>Node28</title>
<g id="a_Node000028"><a xlink:href="../../d6/d82/a00293.html#a4298f891699300bfc4e6e56fd2a8d574" target="_top" xlink:title="Get keycode from chyron.">
<polygon fill="white" stroke="#666666" points="814.5,-267.75 722,-267.75 722,-247 814.5,-247 814.5,-267.75"/>
<text xml:space="preserve" text-anchor="middle" x="768.25" y="-254.25" font-family="Helvetica,sans-Serif" font-size="10.00">get_chyron_key</text>
</a>
</g>
</g>
<!-- Node26&#45;&gt;Node28 -->
<g id="edge44_Node000026_Node000028" class="edge">
<title>Node26&#45;&gt;Node28</title>
<g id="a_edge44_Node000026_Node000028"><a xlink:title=" ">
<path fill="none" stroke="#63b8ff" d="M655.84,-288.58C673.54,-283.62 696.95,-277.07 717.74,-271.24"/>
<polygon fill="#63b8ff" stroke="#63b8ff" points="718.5,-274.66 727.18,-268.6 716.61,-267.92 718.5,-274.66"/>
</a>
</g>
</g>
<!-- Node27&#45;&gt;Node3 -->
<g id="edge35_Node000027_Node000003" class="edge">
<title>Node27&#45;&gt;Node3</title>
<g id="a_edge35_Node000027_Node000003"><a xlink:title=" ">
<path fill="none" stroke="#63b8ff" d="M773.92,-307C792.53,-349.4 861.67,-506.9 886.87,-564.29"/>
<polygon fill="#63b8ff" stroke="#63b8ff" points="883.58,-565.51 890.81,-573.26 889.99,-562.7 883.58,-565.51"/>
</a>
</g>
</g>
<!-- Node27&#45;&gt;Node14 -->
<g id="edge34_Node000027_Node000014" class="edge">
<title>Node27&#45;&gt;Node14</title>
<g id="a_edge34_Node000027_Node000014"><a xlink:title=" ">
<path fill="none" stroke="#63b8ff" d="M803.6,-285.51C850.35,-270.72 933.44,-244.43 979.52,-229.85"/>
<polygon fill="#63b8ff" stroke="#63b8ff" points="980.48,-233.22 988.96,-226.86 978.37,-226.54 980.48,-233.22"/>
</a>
</g>
</g>
<!-- Node27&#45;&gt;Node18 -->
<g id="edge36_Node000027_Node000018" class="edge">
<title>Node27&#45;&gt;Node18</title>
<g id="a_edge36_Node000027_Node000018"><a xlink:title=" ">
<path fill="none" stroke="#63b8ff" d="M806.29,-307.18C819.45,-311.01 834.45,-315.39 848.38,-319.45"/>
<polygon fill="#63b8ff" stroke="#63b8ff" points="847.23,-322.76 857.81,-322.2 849.19,-316.04 847.23,-322.76"/>
</a>
</g>
</g>
<!-- Node27&#45;&gt;Node19 -->
<g id="edge37_Node000027_Node000019" class="edge">
<title>Node27&#45;&gt;Node19</title>
<g id="a_edge37_Node000027_Node000019"><a xlink:title=" ">
<path fill="none" stroke="#63b8ff" d="M797.28,-285.7C803.16,-282.99 809.18,-279.85 814.5,-276.38 832.67,-264.5 832.75,-255.86 850.5,-243.38 854.37,-240.65 858.59,-238.03 862.85,-235.58"/>
<polygon fill="#63b8ff" stroke="#63b8ff" points="864.26,-238.8 871.37,-230.95 860.92,-232.65 864.26,-238.8"/>
</a>
</g>
</g>
<!-- Node27&#45;&gt;Node20 -->
<g id="edge38_Node000027_Node000020" class="edge">
<title>Node27&#45;&gt;Node20</title>
<g id="a_edge38_Node000027_Node000020"><a xlink:title=" ">
<path fill="none" stroke="#63b8ff" d="M803.3,-285.58C807.51,-283.09 811.41,-280.06 814.5,-276.38 857.7,-224.82 822.01,-190.31 850.5,-129.38 857.82,-113.71 869.4,-98.04 879.06,-86.37"/>
<polygon fill="#63b8ff" stroke="#63b8ff" points="881.44,-88.97 885.29,-79.1 876.13,-84.41 881.44,-88.97"/>
</a>
</g>
</g>
<!-- Node27&#45;&gt;Node21 -->
<g id="edge39_Node000027_Node000021" class="edge">
<title>Node27&#45;&gt;Node21</title>
<g id="a_edge39_Node000027_Node000021"><a xlink:title=" ">
<path fill="none" stroke="#63b8ff" d="M801.25,-285.73C806.06,-283.18 810.69,-280.09 814.5,-276.38 841.27,-250.29 825.25,-227.94 850.5,-200.38 884.85,-162.88 937.47,-135.82 973.39,-120.4"/>
<polygon fill="#63b8ff" stroke="#63b8ff" points="974.68,-123.65 982.56,-116.57 971.98,-117.19 974.68,-123.65"/>
</a>
</g>
</g>
<!-- Node27&#45;&gt;Node22 -->
<g id="edge40_Node000027_Node000022" class="edge">
<title>Node27&#45;&gt;Node22</title>
<g id="a_edge40_Node000027_Node000022"><a xlink:title=" ">
<path fill="none" stroke="#63b8ff" d="M808.54,-289.06C847.29,-284.22 906.02,-283.54 943.75,-314.38 985.22,-348.26 946.75,-387.19 979.75,-429.38 980.27,-430.05 980.83,-430.7 981.41,-431.34"/>
<polygon fill="#63b8ff" stroke="#63b8ff" points="978.97,-433.85 988.85,-437.67 983.5,-428.52 978.97,-433.85"/>
</a>
</g>
</g>
<!-- Node27&#45;&gt;Node23 -->
<g id="edge41_Node000027_Node000023" class="edge">
<title>Node27&#45;&gt;Node23</title>
<g id="a_edge41_Node000027_Node000023"><a xlink:title=" ">
<path fill="none" stroke="#63b8ff" d="M783.1,-307.14C798.87,-319.1 825.66,-338.53 850.5,-352.38 853.5,-354.05 856.67,-355.68 859.88,-357.25"/>
<polygon fill="#63b8ff" stroke="#63b8ff" points="858.21,-360.33 868.76,-361.36 861.16,-353.98 858.21,-360.33"/>
</a>
</g>
</g>
<!-- Node27&#45;&gt;Node24 -->
<g id="edge42_Node000027_Node000024" class="edge">
<title>Node27&#45;&gt;Node24</title>
<g id="a_edge42_Node000027_Node000024"><a xlink:title=" ">
<path fill="none" stroke="#63b8ff" d="M776.06,-307.16C788.67,-326.38 817.38,-366.81 850.5,-391.38 852.67,-392.98 854.99,-394.5 857.39,-395.92"/>
<polygon fill="#63b8ff" stroke="#63b8ff" points="855.7,-398.98 866.19,-400.5 858.94,-392.78 855.7,-398.98"/>
</a>
</g>
</g>
<!-- Node27&#45;&gt;Node26 -->
<g id="edge43_Node000027_Node000026" class="edge">
<title>Node27&#45;&gt;Node26</title>
<g id="a_edge43_Node000027_Node000026"><a xlink:title=" ">
<path fill="none" stroke="#63b8ff" d="M728.11,-302.51C709.06,-303.33 686.21,-303.33 667.15,-302.51"/>
<polygon fill="#63b8ff" stroke="#63b8ff" points="667.53,-299.03 657.36,-301.98 667.15,-306.02 667.53,-299.03"/>
</a>
</g>
</g>
<!-- Node29&#45;&gt;Node10 -->
<g id="edge46_Node000029_Node000010" class="edge">
<title>Node29&#45;&gt;Node10</title>
<g id="a_edge46_Node000029_Node000010"><a xlink:title=" ">
<path fill="none" stroke="#63b8ff" d="M511.8,-460.23C519,-463.66 526.2,-468 532,-473.38 556.22,-495.82 543.36,-516.39 568,-538.38 576.48,-545.94 587.67,-551.33 597.97,-555.05"/>
<polygon fill="#63b8ff" stroke="#63b8ff" points="596.57,-558.28 607.17,-558 598.71,-551.62 596.57,-558.28"/>
</a>
</g>
</g>
<!-- Node31&#45;&gt;Node13 -->
<g id="edge51_Node000031_Node000013" class="edge">
<title>Node31&#45;&gt;Node13</title>
<g id="a_edge51_Node000031_Node000013"><a xlink:title=" ">
<path fill="none" stroke="#63b8ff" d="M375.22,-361.59C397.13,-355.76 423.84,-348.67 444.49,-343.18"/>
<polygon fill="#63b8ff" stroke="#63b8ff" points="445.34,-346.58 454.1,-340.63 443.54,-339.81 445.34,-346.58"/>
</a>
</g>
</g>
</g>
</svg>
