<?xml version="1.0" standalone="yes"?>
<svg xmlns="http://www.w3.org/2000/svg" width="1308" height="271">
<path style="fill:#c90101; stroke:none;" d="M137 20.4244C121.911 22.4066 106.706 
24.0127 93 31.3233C53.3768 52.4573 45.1443 106.146 31.6559 145C24.2384 166.366 
9.20229 196.989 22.4792 219C30.1259 231.677 44.0342 238.166 58 240.996C84.8105 
246.43 114.73 243 142 243C154.48 243 170.964 245.859 183 242.566C198.501 238.326 
201.479 206.329 203.561 193C204.415 187.534 205.076 180.372 200.852 
176.148C196.154 171.45 188.07 173 182 173L134 173C127.975 173 113.346 174.335 
110.836 166.892C108.247 159.218 116.954 141.648 119.341 134C122.758 123.053 
125.968 112.02 129.141 101C130.758 95.3862 132.229 88.3948 137.105 
84.652C143.082 80.0636 152.815 80.0028 160 80L204 80C211.443 80 220.79 81.6638 
226.956 76.6057C235.972 69.21 239.487 45.2422 239.961 34C240.186 28.6384 239.219 
23.8406 233.995 21.179C226.854 17.5402 213.885 20 206 20C183.493 20 159.309 
17.4937 137 20.4244M405 132L406 132C411.03 153.176 423.311 162 444 162C448.931 
162 454.414 162.616 459 160.427C469.339 155.494 477.319 142.015 482 132L483 
132C477.467 155.24 480.007 183.111 478.961 207C478.613 214.945 475.427 226.536 
479.179 233.999C482.48 240.566 488.312 241.989 495 242L541 242C548.894 242 
556.284 242.963 561.682 235.985C568.481 227.195 563.15 206.714 564.17 
196C568.014 155.604 565 113.604 565 73L565 40C565 34.6153 565.72 29.3381 561.852 
25.044C556.829 19.4682 550.886 20 544 20C528.777 20 509.796 16.9369 495 
20.5332C470.957 26.3771 468.065 66.0935 447 76C442.127 62.6097 433.443 49.415 
426.424 37C423.071 31.0682 419.431 24.448 413 21.3179C403.343 16.6176 385.62 20 
375 20C364.47 20 348.444 16.6859 341.738 27.0154C338.688 31.7138 338.804 38.6117 
337.92 44C335.791 56.9735 333.7 69.981 331.87 83C327.271 115.701 322.048 148.432 
316.586 181C313.989 196.489 307.713 216.35 310.148 232C311.32 239.531 318.381 
241.964 325 241.999C339.666 242.077 354.334 242 369 242C377.397 242 384.799 
243.045 390.772 235.985C397.264 228.31 396.313 212.618 397.086 203C398.988 
179.338 402.024 155.548 405 132M683 154L730 154C736.372 154 745.32 155.584 
750.995 152.142C762.556 145.13 756.313 115.185 753.61 104C752.701 100.241 
750.277 97.0292 746.985 95.0093C741.219 91.4727 732.485 93 726 93L680 93L679 
79L747 79C755.387 79 766.854 81.4221 772.682 73.9807C777.896 67.324 774.073 
54.6689 773.155 47C772.323 40.0458 772.78 30.5672 767.772 25.108C760.046 16.6875 
743.319 20 733 20L638 20C627.306 20 608.679 16.1731 601.514 26.0185C593.761 
36.6707 600 62.3363 600 75C600 112.72 601 150.319 601 188C601 200.661 596.564 
223.811 602.938 235C607.833 243.592 615.391 243 624 243L667 243L755 243C764.078 
243 781.15 246.256 788.985 241.258C801.082 233.539 793.039 206.73 791.424 
195C790.825 190.653 790.743 185.994 788.697 182C782.963 170.806 770.508 173 760 
173L705 173C700.238 173 689.23 175.023 685.603 171.397C682.534 168.327 683.335 
158.25 683 154M895 134C907.238 145.986 920.294 157.338 933 168.83C939.436 
174.652 948.474 180.508 952.992 188.001C960.303 200.127 958.175 217.128 963.97 
230C972.634 249.245 1006.65 242 1024 242C1031.09 242 1041.51 244.074 1046.57 
237.891C1054.02 228.772 1044.69 209.741 1042.12 200C1031.87 161.203 1020.13 
122.797 1009.88 84C1006.7 71.9592 1003.06 60.0402 999.884 48C998.101 41.2478 
996.953 32.6427 992.581 27.0154C982.602 14.1711 952.577 20 938 20C931.562 20 
923.55 19.2458 920.028 26.0185C917.366 31.1376 919.342 38.7629 920.626 
44C923.559 55.9635 925.913 68.0739 929 80C914.002 66.9389 898.273 54.6628 883 
41.9198C874.831 35.104 866.167 25.6329 856 21.9622C848.141 19.1248 839.198 20 
831 20C823.454 20 811.687 17.8051 805.005 21.858C792.045 29.7189 802.18 58.8753 
803.87 71C809.17 109.044 815.251 146.981 820.729 185C822.723 198.833 821.882 
222.245 829.703 233.999C835.38 242.532 842.868 242 852 242L892 242C899.819 242 
908.694 242.894 912.107 233.999C915.32 225.623 910.492 212.459 908.8 204C904.137 
180.68 899.528 157.347 895 134M1035 20.5725C1020.83 24.6453 1028.91 43.6635 
1031.72 53C1041.37 85.0284 1051.1 117.056 1061.03 149C1068.4 172.744 1073.82 
197.787 1092.01 215.985C1124.62 248.59 1180.68 251.292 1224 247.17C1239.83 
245.663 1255.16 245.172 1270 238.561C1291.34 229.056 1296.34 209.185 1291.1 
188C1287.03 171.559 1278.25 155.396 1271.31 140C1261.15 117.475 1251.51 94.6858 
1241.72 72C1235.56 57.7204 1228.03 24.8242 1211 20.6844C1196.11 17.0656 1177.31 
19.9754 1162 20C1155.98 20.0097 1149.27 20.4225 1146.74 27.0046C1143.56 35.2894 
1151.21 47.3951 1154.05 55C1162.94 78.7619 1172.25 102.416 1181.6 126C1185.95 
136.967 1190.02 148.045 1194.4 159C1195.75 162.367 1199.2 168.005 1196.96 
171.581C1194.22 175.945 1184.52 175.992 1180 175.992C1172.34 175.992 1162.2 
174.889 1156.33 169.468C1145.84 159.772 1141.82 135.33 1137.33 122C1129.89 
99.8881 1121.52 78.0863 1114 56C1110.43 45.5372 1107.69 31.6694 1098.98 
24.2245C1093.69 19.6942 1087.56 20 1081 20C1067.07 20 1048.39 16.7227 1035 
20.5725M246 90.7423C231.734 96.194 231.215 123.245 228.35 136C227.192 141.153 
225.483 148.197 228.603 152.985C235.528 163.61 258.941 159 270 159C274.458 159 
279.755 159.728 284 158.106C299.136 152.324 298.236 125.42 300.803 112C301.882 
106.359 303.57 99.0041 299.566 94.1088C296.264 90.0707 291.795 90.008 287 
90C275.256 89.9804 256.989 86.5427 246 90.7423z"/>
</svg>
