<?xml version="1.0" encoding="UTF-8" standalone="no"?>
<!DOCTYPE svg PUBLIC "-//W3C//DTD SVG 1.1//EN"
 "http://www.w3.org/Graphics/SVG/1.1/DTD/svg11.dtd">
<!-- Generated by graphviz version 14.1.2 (0)
 -->
<!-- Title: capture_curses_tioctl Pages: 1 -->
<svg width="1971pt" height="324pt"
 viewBox="0.00 0.00 1971.00 324.00" xmlns="http://www.w3.org/2000/svg" xmlns:xlink="http://www.w3.org/1999/xlink">
<g id="graph0" class="graph" transform="scale(1 1) rotate(0) translate(4 319.75)">
<title>capture_curses_tioctl</title>
<!-- Node1 -->
<g id="Node000001" class="node">
<title>Node1</title>
<g id="a_Node000001"><a xlink:title="capture_curses_tioctl() &#45; capture curses terminal settings">
<polygon fill="#999999" stroke="#666666" points="1963.25,-106.75 1843.75,-106.75 1843.75,-86 1963.25,-86 1963.25,-106.75"/>
<text xml:space="preserve" text-anchor="middle" x="1903.5" y="-93.25" font-family="Helvetica,sans-Serif" font-size="10.00">capture_curses_tioctl</text>
</a>
</g>
</g>
<!-- Node2 -->
<g id="Node000002" class="node">
<title>Node2</title>
<g id="a_Node000002"><a xlink:href="../../df/dc9/exec_8c.html#a386fad82c5208c7d3b2a5060882974f3" target="_top" xlink:title="Fork and exec a command.">
<polygon fill="white" stroke="#666666" points="1807.75,-201.75 1743.75,-201.75 1743.75,-181 1807.75,-181 1807.75,-201.75"/>
<text xml:space="preserve" text-anchor="middle" x="1775.75" y="-188.25" font-family="Helvetica,sans-Serif" font-size="10.00">fork_exec</text>
</a>
</g>
</g>
<!-- Node1&#45;&gt;Node2 -->
<g id="edge1_Node000001_Node000002" class="edge">
<title>Node1&#45;&gt;Node2</title>
<g id="a_edge1_Node000001_Node000002"><a xlink:title=" ">
<path fill="none" stroke="#63b8ff" d="M1879.5,-113.75C1853.73,-133.22 1812.73,-164.19 1791.14,-180.51"/>
<polygon fill="#63b8ff" stroke="#63b8ff" points="1881.49,-116.64 1887.35,-107.82 1877.27,-111.05 1881.49,-116.64"/>
</a>
</g>
</g>
<!-- Node23 -->
<g id="Node000023" class="node">
<title>Node23</title>
<g id="a_Node000023"><a xlink:href="../../d5/d97/form_8c.html#a3c04138a5bfe5d72780bb7e82a18e627" target="_top" xlink:title=" ">
<polygon fill="white" stroke="#666666" points="1219.25,-20.75 1178.5,-20.75 1178.5,0 1219.25,0 1219.25,-20.75"/>
<text xml:space="preserve" text-anchor="middle" x="1198.88" y="-7.25" font-family="Helvetica,sans-Serif" font-size="10.00">main</text>
</a>
</g>
</g>
<!-- Node1&#45;&gt;Node23 -->
<g id="edge37_Node000001_Node000023" class="edge">
<title>Node1&#45;&gt;Node23</title>
<g id="a_edge37_Node000001_Node000023"><a xlink:title=" ">
<path fill="none" stroke="#63b8ff" d="M1875.36,-79.91C1835.86,-57.57 1759.55,-20.38 1689.12,-20.38 1689.12,-20.38 1689.12,-20.38 1440.25,-20.38 1358.18,-20.38 1260.48,-14.48 1219.49,-11.74"/>
<polygon fill="#63b8ff" stroke="#63b8ff" points="1873.54,-82.91 1883.95,-84.89 1877.05,-76.85 1873.54,-82.91"/>
</a>
</g>
</g>
<!-- Node3 -->
<g id="Node000003" class="node">
<title>Node3</title>
<g id="a_Node000003"><a xlink:href="../../df/dc9/exec_8c.html#a907dc4a5b8c29a03d23bdc87f41b5f1b" target="_top" xlink:title="Execute a command in full screen mode.">
<polygon fill="white" stroke="#666666" points="1502.5,-315.75 1380,-315.75 1380,-295 1502.5,-295 1502.5,-315.75"/>
<text xml:space="preserve" text-anchor="middle" x="1441.25" y="-302.25" font-family="Helvetica,sans-Serif" font-size="10.00">full_screen_fork_exec</text>
</a>
</g>
</g>
<!-- Node2&#45;&gt;Node3 -->
<g id="edge2_Node000002_Node000003" class="edge">
<title>Node2&#45;&gt;Node3</title>
<g id="a_edge2_Node000002_Node000003"><a xlink:title=" ">
<path fill="none" stroke="#63b8ff" d="M1747.08,-207.7C1719.04,-223.63 1673.99,-247.57 1632.5,-262.38 1590.24,-277.45 1540.76,-288.44 1502.85,-295.53"/>
<polygon fill="#63b8ff" stroke="#63b8ff" points="1748.72,-210.79 1755.64,-202.77 1745.23,-204.73 1748.72,-210.79"/>
</a>
</g>
</g>
<!-- Node7 -->
<g id="Node000007" class="node">
<title>Node7</title>
<g id="a_Node000007"><a xlink:href="../../df/dc9/exec_8c.html#a5c3ffccf49f08359334198f7fce3f9df" target="_top" xlink:title="Execute a shell command.">
<polygon fill="white" stroke="#666666" points="1707.75,-201.75 1668.5,-201.75 1668.5,-181 1707.75,-181 1707.75,-201.75"/>
<text xml:space="preserve" text-anchor="middle" x="1688.12" y="-188.25" font-family="Helvetica,sans-Serif" font-size="10.00">shell</text>
</a>
</g>
</g>
<!-- Node2&#45;&gt;Node7 -->
<g id="edge7_Node000002_Node000007" class="edge">
<title>Node2&#45;&gt;Node7</title>
<g id="a_edge7_Node000002_Node000007"><a xlink:title=" ">
<path fill="none" stroke="#63b8ff" d="M1732.01,-191.38C1723.6,-191.38 1715.19,-191.38 1708.07,-191.38"/>
<polygon fill="#63b8ff" stroke="#63b8ff" points="1731.84,-194.88 1741.84,-191.38 1731.84,-187.88 1731.84,-194.88"/>
</a>
</g>
</g>
<!-- Node4 -->
<g id="Node000004" class="node">
<title>Node4</title>
<g id="a_Node000004"><a xlink:href="../../d6/d18/menu__engine_8c.html#aa5d0e30e7036b72b51c843d0a7e486a1" target="_top" xlink:title="Processes user input for the menu system.">
<polygon fill="white" stroke="#666666" points="317.25,-173.75 194.75,-173.75 194.75,-153 317.25,-153 317.25,-173.75"/>
<text xml:space="preserve" text-anchor="middle" x="256" y="-160.25" font-family="Helvetica,sans-Serif" font-size="10.00">menu_cmd_processor</text>
</a>
</g>
</g>
<!-- Node3&#45;&gt;Node4 -->
<g id="edge3_Node000003_Node000004" class="edge">
<title>Node3&#45;&gt;Node4</title>
<g id="a_edge3_Node000003_Node000004"><a xlink:title=" ">
<path fill="none" stroke="#63b8ff" d="M1368.06,-309.95C1320.35,-312.58 1256.4,-315.38 1199.88,-315.38 1199.88,-315.38 1199.88,-315.38 482.75,-315.38 420.89,-315.38 404.57,-298.91 353.25,-264.38 314.47,-238.28 279.45,-194.12 264.57,-173.97"/>
<polygon fill="#63b8ff" stroke="#63b8ff" points="1368.22,-313.44 1378.01,-309.38 1367.83,-306.45 1368.22,-313.44"/>
</a>
</g>
</g>
<!-- Node5 -->
<g id="Node000005" class="node">
<title>Node5</title>
<g id="a_Node000005"><a xlink:href="../../d6/d18/menu__engine_8c.html#a7d7973d7aac92759dcc86ec52bb038f4" target="_top" xlink:title="The main loop of the menu system.">
<polygon fill="white" stroke="#666666" points="158.75,-173.75 76.75,-173.75 76.75,-153 158.75,-153 158.75,-173.75"/>
<text xml:space="preserve" text-anchor="middle" x="117.75" y="-160.25" font-family="Helvetica,sans-Serif" font-size="10.00">menu_engine</text>
</a>
</g>
</g>
<!-- Node4&#45;&gt;Node5 -->
<g id="edge4_Node000004_Node000005" class="edge">
<title>Node4&#45;&gt;Node5</title>
<g id="a_edge4_Node000004_Node000005"><a xlink:title=" ">
<path fill="none" stroke="#63b8ff" d="M183.2,-156.63C174.96,-156.67 166.79,-156.84 159.17,-157.15"/>
<polygon fill="#63b8ff" stroke="#63b8ff" points="182.92,-160.13 192.93,-156.66 182.94,-153.13 182.92,-160.13"/>
</a>
</g>
</g>
<!-- Node5&#45;&gt;Node4 -->
<g id="edge6_Node000005_Node000004" class="edge">
<title>Node5&#45;&gt;Node4</title>
<g id="a_edge6_Node000005_Node000004"><a xlink:title=" ">
<path fill="none" stroke="#63b8ff" d="M170.68,-169.95C178.45,-170.12 186.52,-170.17 194.45,-170.09"/>
<polygon fill="#63b8ff" stroke="#63b8ff" points="170.79,-166.45 160.69,-169.65 170.58,-173.45 170.79,-166.45"/>
</a>
</g>
</g>
<!-- Node6 -->
<g id="Node000006" class="node">
<title>Node6</title>
<g id="a_Node000006"><a xlink:href="../../d2/d0a/menu_8c.html#a3c04138a5bfe5d72780bb7e82a18e627" target="_top" xlink:title=" ">
<polygon fill="white" stroke="#666666" points="40.75,-173.75 0,-173.75 0,-153 40.75,-153 40.75,-173.75"/>
<text xml:space="preserve" text-anchor="middle" x="20.38" y="-160.25" font-family="Helvetica,sans-Serif" font-size="10.00">main</text>
</a>
</g>
</g>
<!-- Node5&#45;&gt;Node6 -->
<g id="edge5_Node000005_Node000006" class="edge">
<title>Node5&#45;&gt;Node6</title>
<g id="a_edge5_Node000005_Node000006"><a xlink:title=" ">
<path fill="none" stroke="#63b8ff" d="M64.79,-163.38C56.36,-163.38 48.1,-163.38 41.09,-163.38"/>
<polygon fill="#63b8ff" stroke="#63b8ff" points="64.79,-166.88 74.79,-163.38 64.79,-159.88 64.79,-166.88"/>
</a>
</g>
</g>
<!-- Node8 -->
<g id="Node000008" class="node">
<title>Node8</title>
<g id="a_Node000008"><a xlink:href="../../d3/dee/form__engine_8c.html#ab2e6e35d9dba586838b91f54a6dd41a2" target="_top" xlink:title="Execute a provider command specified in the form description file, passing form field values as argum...">
<polygon fill="white" stroke="#666666" points="1632.5,-125.75 1538.5,-125.75 1538.5,-105 1632.5,-105 1632.5,-125.75"/>
<text xml:space="preserve" text-anchor="middle" x="1585.5" y="-112.25" font-family="Helvetica,sans-Serif" font-size="10.00">form_exec_cmd</text>
</a>
</g>
</g>
<!-- Node7&#45;&gt;Node8 -->
<g id="edge8_Node000007_Node000008" class="edge">
<title>Node7&#45;&gt;Node8</title>
<g id="a_edge8_Node000007_Node000008"><a xlink:title=" ">
<path fill="none" stroke="#63b8ff" d="M1664,-173.91C1644.47,-159.16 1617.14,-138.52 1600.7,-126.1"/>
<polygon fill="#63b8ff" stroke="#63b8ff" points="1661.84,-176.66 1671.93,-179.9 1666.06,-171.08 1661.84,-176.66"/>
</a>
</g>
</g>
<!-- Node12 -->
<g id="Node000012" class="node">
<title>Node12</title>
<g id="a_Node000012"><a xlink:href="../../d0/d8e/view__engine_8c.html#a9c4b3ba5f73c18b486646c62b933972a" target="_top" xlink:title="Main Command Processing Loop for View.">
<polygon fill="white" stroke="#666666" points="1114,-215.75 996,-215.75 996,-195 1114,-195 1114,-215.75"/>
<text xml:space="preserve" text-anchor="middle" x="1055" y="-202.25" font-family="Helvetica,sans-Serif" font-size="10.00">view_cmd_processor</text>
</a>
</g>
</g>
<!-- Node7&#45;&gt;Node12 -->
<g id="edge36_Node000007_Node000012" class="edge">
<title>Node7&#45;&gt;Node12</title>
<g id="a_edge36_Node000007_Node000012"><a xlink:title=" ">
<path fill="none" stroke="#63b8ff" d="M1656.84,-195.24C1610.64,-200.8 1519.75,-210.38 1442.25,-210.38 1442.25,-210.38 1442.25,-210.38 1312.88,-210.38 1244.74,-210.38 1166.46,-208.59 1114.4,-207.16"/>
<polygon fill="#63b8ff" stroke="#63b8ff" points="1657.11,-198.74 1666.61,-194.04 1656.26,-191.79 1657.11,-198.74"/>
</a>
</g>
</g>
<!-- Node24 -->
<g id="Node000024" class="node">
<title>Node24</title>
<g id="a_Node000024"><a xlink:href="../../df/dc9/exec_8c.html#aeb3e7eb282467134ce50fde7d9ebd19d" target="_top" xlink:title="Execute a shell command in full screen mode.">
<polygon fill="white" stroke="#666666" points="1247.75,-258.75 1150,-258.75 1150,-238 1247.75,-238 1247.75,-258.75"/>
<text xml:space="preserve" text-anchor="middle" x="1198.88" y="-245.25" font-family="Helvetica,sans-Serif" font-size="10.00">full_screen_shell</text>
</a>
</g>
</g>
<!-- Node7&#45;&gt;Node24 -->
<g id="edge31_Node000007_Node000024" class="edge">
<title>Node7&#45;&gt;Node24</title>
<g id="a_edge31_Node000007_Node000024"><a xlink:title=" ">
<path fill="none" stroke="#63b8ff" d="M1664.33,-208.56C1654.96,-214.69 1643.7,-220.92 1632.5,-224.38 1498.09,-265.87 1329.2,-259.55 1247.93,-253.13"/>
<polygon fill="#63b8ff" stroke="#63b8ff" points="1666.19,-211.53 1672.42,-202.96 1662.2,-205.78 1666.19,-211.53"/>
</a>
</g>
</g>
<!-- Node25 -->
<g id="Node000025" class="node">
<title>Node25</title>
<g id="a_Node000025"><a xlink:href="../../d0/d8e/view__engine_8c.html#a219efbc4d9d70ebc47fafa540b370247" target="_top" xlink:title="Send File to Print Queue.">
<polygon fill="white" stroke="#666666" points="1328.28,-182.75 1299.47,-182.75 1299.47,-162 1328.28,-162 1328.28,-182.75"/>
<text xml:space="preserve" text-anchor="middle" x="1313.88" y="-169.25" font-family="Helvetica,sans-Serif" font-size="10.00">lp</text>
</a>
</g>
</g>
<!-- Node7&#45;&gt;Node25 -->
<g id="edge34_Node000007_Node000025" class="edge">
<title>Node7&#45;&gt;Node25</title>
<g id="a_edge34_Node000007_Node000025"><a xlink:title=" ">
<path fill="none" stroke="#63b8ff" d="M1657,-189.84C1580.71,-185.94 1382.14,-175.81 1328.43,-173.07"/>
<polygon fill="#63b8ff" stroke="#63b8ff" points="1656.48,-193.32 1666.64,-190.33 1656.83,-186.32 1656.48,-193.32"/>
</a>
</g>
</g>
<!-- Node9 -->
<g id="Node000009" class="node">
<title>Node9</title>
<g id="a_Node000009"><a xlink:href="../../d3/dee/form__engine_8c.html#ada302551bf41bf8ed6132fd34328a47e" target="_top" xlink:title="Form main processing loop.">
<polygon fill="white" stroke="#666666" points="1480,-106.75 1402.5,-106.75 1402.5,-86 1480,-86 1480,-106.75"/>
<text xml:space="preserve" text-anchor="middle" x="1441.25" y="-93.25" font-family="Helvetica,sans-Serif" font-size="10.00">form_engine</text>
</a>
</g>
</g>
<!-- Node8&#45;&gt;Node9 -->
<g id="edge9_Node000008_Node000009" class="edge">
<title>Node8&#45;&gt;Node9</title>
<g id="a_edge9_Node000008_Node000009"><a xlink:title=" ">
<path fill="none" stroke="#63b8ff" d="M1527.03,-107.7C1511.24,-105.59 1494.51,-103.36 1480.13,-101.43"/>
<polygon fill="#63b8ff" stroke="#63b8ff" points="1526.44,-111.15 1536.82,-109.01 1527.37,-104.21 1526.44,-111.15"/>
</a>
</g>
</g>
<!-- Node10 -->
<g id="Node000010" class="node">
<title>Node10</title>
<g id="a_Node000010"><a xlink:href="../../d3/dee/form__engine_8c.html#abf1be20a8aad5f7ba09172ac1434a110" target="_top" xlink:title="Initialize form data structure and parse description file.">
<polygon fill="white" stroke="#666666" points="1344,-68.75 1283.75,-68.75 1283.75,-48 1344,-48 1344,-68.75"/>
<text xml:space="preserve" text-anchor="middle" x="1313.88" y="-55.25" font-family="Helvetica,sans-Serif" font-size="10.00">init_form</text>
</a>
</g>
</g>
<!-- Node9&#45;&gt;Node10 -->
<g id="edge10_Node000009_Node000010" class="edge">
<title>Node9&#45;&gt;Node10</title>
<g id="a_edge10_Node000009_Node000010"><a xlink:title=" ">
<path fill="none" stroke="#63b8ff" d="M1394.01,-82.36C1377.35,-77.31 1359.03,-71.76 1344.21,-67.27"/>
<polygon fill="#63b8ff" stroke="#63b8ff" points="1392.62,-85.6 1403.21,-85.15 1394.65,-78.9 1392.62,-85.6"/>
</a>
</g>
</g>
<!-- Node10&#45;&gt;Node4 -->
<g id="edge30_Node000010_Node000004" class="edge">
<title>Node10&#45;&gt;Node4</title>
<g id="a_edge30_Node000010_Node000004"><a xlink:title=" ">
<path fill="none" stroke="#63b8ff" d="M1272.2,-55.81C1221.57,-52.85 1132.44,-48.38 1056,-48.38 1056,-48.38 1056,-48.38 482.75,-48.38 391.26,-48.38 299.41,-124.29 268.18,-152.76"/>
<polygon fill="#63b8ff" stroke="#63b8ff" points="1271.91,-59.3 1282.1,-56.4 1272.33,-52.31 1271.91,-59.3"/>
</a>
</g>
</g>
<!-- Node11 -->
<g id="Node000011" class="node">
<title>Node11</title>
<g id="a_Node000011"><a xlink:href="../../d0/d8e/view__engine_8c.html#a2ffea5674e85f124a70e19f745a66583" target="_top" xlink:title="use form to enter a file specification">
<polygon fill="white" stroke="#666666" points="1244,-144.75 1153.75,-144.75 1153.75,-124 1244,-124 1244,-144.75"/>
<text xml:space="preserve" text-anchor="middle" x="1198.88" y="-131.25" font-family="Helvetica,sans-Serif" font-size="10.00">enter_file_spec</text>
</a>
</g>
</g>
<!-- Node10&#45;&gt;Node11 -->
<g id="edge11_Node000010_Node000011" class="edge">
<title>Node10&#45;&gt;Node11</title>
<g id="a_edge11_Node000010_Node000011"><a xlink:title=" ">
<path fill="none" stroke="#63b8ff" d="M1287.8,-75.24C1265.82,-90.02 1234.54,-111.06 1215.82,-123.65"/>
<polygon fill="#63b8ff" stroke="#63b8ff" points="1289.56,-78.27 1295.91,-69.79 1285.66,-72.46 1289.56,-78.27"/>
</a>
</g>
</g>
<!-- Node10&#45;&gt;Node23 -->
<g id="edge29_Node000010_Node000023" class="edge">
<title>Node10&#45;&gt;Node23</title>
<g id="a_edge29_Node000010_Node000023"><a xlink:title=" ">
<path fill="none" stroke="#63b8ff" d="M1277.09,-43.18C1258.05,-35.09 1235.37,-25.45 1219.53,-18.72"/>
<polygon fill="#63b8ff" stroke="#63b8ff" points="1275.55,-46.32 1286.12,-47.01 1278.29,-39.88 1275.55,-46.32"/>
</a>
</g>
</g>
<!-- Node11&#45;&gt;Node12 -->
<g id="edge12_Node000011_Node000012" class="edge">
<title>Node11&#45;&gt;Node12</title>
<g id="a_edge12_Node000011_Node000012"><a xlink:title=" ">
<path fill="none" stroke="#63b8ff" d="M1166.19,-150.23C1139.1,-163.79 1100.86,-182.93 1077.29,-194.72"/>
<polygon fill="#63b8ff" stroke="#63b8ff" points="1167.6,-153.44 1174.97,-145.84 1164.46,-147.18 1167.6,-153.44"/>
</a>
</g>
</g>
<!-- Node13 -->
<g id="Node000013" class="node">
<title>Node13</title>
<g id="a_Node000013"><a xlink:href="../../d0/d8e/view__engine_8c.html#a0bd4dc056ab5010547129bb87819789b" target="_top" xlink:title="Start view.">
<polygon fill="white" stroke="#666666" points="960,-210.75 899.75,-210.75 899.75,-190 960,-190 960,-210.75"/>
<text xml:space="preserve" text-anchor="middle" x="929.88" y="-197.25" font-family="Helvetica,sans-Serif" font-size="10.00">view_file</text>
</a>
</g>
</g>
<!-- Node12&#45;&gt;Node13 -->
<g id="edge13_Node000012_Node000013" class="edge">
<title>Node12&#45;&gt;Node13</title>
<g id="a_edge13_Node000012_Node000013"><a xlink:title=" ">
<path fill="none" stroke="#63b8ff" d="M984.44,-202.55C975.94,-202.2 967.64,-201.87 960.22,-201.57"/>
<polygon fill="#63b8ff" stroke="#63b8ff" points="984.04,-206.04 994.17,-202.95 984.32,-199.04 984.04,-206.04"/>
</a>
</g>
</g>
<!-- Node14 -->
<g id="Node000014" class="node">
<title>Node14</title>
<g id="a_Node000014"><a xlink:href="../../da/d97/view_8c.html#a3c04138a5bfe5d72780bb7e82a18e627" target="_top" xlink:title=" ">
<polygon fill="white" stroke="#666666" points="746.12,-210.75 705.38,-210.75 705.38,-190 746.12,-190 746.12,-210.75"/>
<text xml:space="preserve" text-anchor="middle" x="725.75" y="-197.25" font-family="Helvetica,sans-Serif" font-size="10.00">main</text>
</a>
</g>
</g>
<!-- Node13&#45;&gt;Node14 -->
<g id="edge14_Node000013_Node000014" class="edge">
<title>Node13&#45;&gt;Node14</title>
<g id="a_edge14_Node000013_Node000014"><a xlink:title=" ">
<path fill="none" stroke="#63b8ff" d="M888,-200.38C844.97,-200.38 779.03,-200.38 746.41,-200.38"/>
<polygon fill="#63b8ff" stroke="#63b8ff" points="887.97,-203.88 897.97,-200.38 887.97,-196.88 887.97,-203.88"/>
</a>
</g>
</g>
<!-- Node15 -->
<g id="Node000015" class="node">
<title>Node15</title>
<g id="a_Node000015"><a xlink:href="../../d2/d98/mview_8c.html#a75a4e7afc9c9aafd3d35ab706f5fdc71" target="_top" xlink:title="subprogram entry point for C&#45;Menu View">
<polygon fill="white" stroke="#666666" points="863.75,-172.75 814.75,-172.75 814.75,-152 863.75,-152 863.75,-172.75"/>
<text xml:space="preserve" text-anchor="middle" x="839.25" y="-159.25" font-family="Helvetica,sans-Serif" font-size="10.00">mview</text>
</a>
</g>
</g>
<!-- Node13&#45;&gt;Node15 -->
<g id="edge15_Node000013_Node000015" class="edge">
<title>Node13&#45;&gt;Node15</title>
<g id="a_edge15_Node000013_Node000015"><a xlink:title=" ">
<path fill="none" stroke="#63b8ff" d="M893.33,-185.13C883.45,-180.9 872.97,-176.4 863.95,-172.54"/>
<polygon fill="#63b8ff" stroke="#63b8ff" points="891.75,-188.27 902.32,-188.99 894.51,-181.83 891.75,-188.27"/>
</a>
</g>
</g>
<!-- Node15&#45;&gt;Node4 -->
<g id="edge26_Node000015_Node000004" class="edge">
<title>Node15&#45;&gt;Node4</title>
<g id="a_edge26_Node000015_Node000004"><a xlink:title=" ">
<path fill="none" stroke="#63b8ff" d="M802.99,-162.44C706.66,-162.6 438.18,-163.06 317.32,-163.27"/>
<polygon fill="#63b8ff" stroke="#63b8ff" points="802.87,-165.94 812.87,-162.42 802.86,-158.94 802.87,-165.94"/>
</a>
</g>
</g>
<!-- Node15&#45;&gt;Node9 -->
<g id="edge24_Node000015_Node000009" class="edge">
<title>Node15&#45;&gt;Node9</title>
<g id="a_edge24_Node000015_Node000009"><a xlink:title=" ">
<path fill="none" stroke="#63b8ff" d="M870.84,-146.57C911.53,-127.04 986.23,-96.38 1054,-96.38 1199.88,-96.38 1199.88,-96.38 1199.88,-96.38 1271.44,-96.38 1355,-96.38 1402.36,-96.38"/>
<polygon fill="#63b8ff" stroke="#63b8ff" points="869.33,-143.41 861.9,-150.96 872.42,-149.69 869.33,-143.41"/>
</a>
</g>
</g>
<!-- Node15&#45;&gt;Node14 -->
<g id="edge25_Node000015_Node000014" class="edge">
<title>Node15&#45;&gt;Node14</title>
<g id="a_edge25_Node000015_Node000014"><a xlink:title=" ">
<path fill="none" stroke="#63b8ff" d="M803.52,-174.21C784.77,-180.6 762.3,-188.26 746.54,-193.63"/>
<polygon fill="#63b8ff" stroke="#63b8ff" points="804.56,-177.55 812.9,-171.02 802.3,-170.93 804.56,-177.55"/>
</a>
</g>
</g>
<!-- Node16 -->
<g id="Node000016" class="node">
<title>Node16</title>
<g id="a_Node000016"><a xlink:href="../../db/ddc/pick__engine_8c.html#aeebc4c0b94ca97d753e10a0cd1798730" target="_top" xlink:title="Displays the help screen for the pick interface using mview.">
<polygon fill="white" stroke="#666666" points="777.25,-134.75 674.25,-134.75 674.25,-114 777.25,-114 777.25,-134.75"/>
<text xml:space="preserve" text-anchor="middle" x="725.75" y="-121.25" font-family="Helvetica,sans-Serif" font-size="10.00">display_pick_help</text>
</a>
</g>
</g>
<!-- Node15&#45;&gt;Node16 -->
<g id="edge16_Node000015_Node000016" class="edge">
<title>Node15&#45;&gt;Node16</title>
<g id="a_edge16_Node000015_Node000016"><a xlink:title=" ">
<path fill="none" stroke="#63b8ff" d="M803.75,-150.62C789.22,-145.67 772.44,-139.95 758.25,-135.11"/>
<polygon fill="#63b8ff" stroke="#63b8ff" points="802.3,-153.82 812.9,-153.73 804.56,-147.2 802.3,-153.82"/>
</a>
</g>
</g>
<!-- Node21 -->
<g id="Node000021" class="node">
<title>Node21</title>
<g id="a_Node000021"><a xlink:href="../../db/ddc/pick__engine_8c.html#af7fcbb1c8b67a4d11c86ba7209f397c2" target="_top" xlink:title="Executes specified command with selected objects as arguments.">
<polygon fill="white" stroke="#666666" points="636.75,-96.75 557,-96.75 557,-76 636.75,-76 636.75,-96.75"/>
<text xml:space="preserve" text-anchor="middle" x="596.88" y="-83.25" font-family="Helvetica,sans-Serif" font-size="10.00">exec_objects</text>
</a>
</g>
</g>
<!-- Node15&#45;&gt;Node21 -->
<g id="edge22_Node000015_Node000021" class="edge">
<title>Node15&#45;&gt;Node21</title>
<g id="a_edge22_Node000015_Node000021"><a xlink:title=" ">
<path fill="none" stroke="#63b8ff" d="M823.87,-143.07C813.01,-130.06 796.92,-113.8 778.75,-105.38 733.49,-84.38 675.2,-82.07 637.2,-83.37"/>
<polygon fill="#63b8ff" stroke="#63b8ff" points="820.9,-144.96 829.86,-150.62 826.38,-140.61 820.9,-144.96"/>
</a>
</g>
</g>
<!-- Node22 -->
<g id="Node000022" class="node">
<title>Node22</title>
<g id="a_Node000022"><a xlink:href="../../d0/d8e/view__engine_8c.html#ad997ba9f8591568c77291fb1b44601b2" target="_top" xlink:title="Display View Help File.">
<polygon fill="white" stroke="#666666" points="778.75,-249.75 672.75,-249.75 672.75,-229 778.75,-229 778.75,-249.75"/>
<text xml:space="preserve" text-anchor="middle" x="725.75" y="-236.25" font-family="Helvetica,sans-Serif" font-size="10.00">view_display_help</text>
</a>
</g>
</g>
<!-- Node15&#45;&gt;Node22 -->
<g id="edge27_Node000015_Node000022" class="edge">
<title>Node15&#45;&gt;Node22</title>
<g id="a_edge27_Node000015_Node000022"><a xlink:title=" ">
<path fill="none" stroke="#63b8ff" d="M821.98,-181.48C810.82,-193.63 795.11,-208.99 778.75,-219.38 773.2,-222.9 766.92,-225.96 760.71,-228.56"/>
<polygon fill="#63b8ff" stroke="#63b8ff" points="824.54,-183.87 828.56,-174.07 819.3,-179.22 824.54,-183.87"/>
</a>
</g>
</g>
<!-- Node17 -->
<g id="Node000017" class="node">
<title>Node17</title>
<g id="a_Node000017"><a xlink:href="../../db/ddc/pick__engine_8c.html#abb0969a6d1c7e78be46c3b325754c802" target="_top" xlink:title="Main loop to handle user input and interactions for pick interface.">
<polygon fill="white" stroke="#666666" points="619.5,-135.75 574.25,-135.75 574.25,-115 619.5,-115 619.5,-135.75"/>
<text xml:space="preserve" text-anchor="middle" x="596.88" y="-122.25" font-family="Helvetica,sans-Serif" font-size="10.00">picker</text>
</a>
</g>
</g>
<!-- Node16&#45;&gt;Node17 -->
<g id="edge17_Node000016_Node000017" class="edge">
<title>Node16&#45;&gt;Node17</title>
<g id="a_edge17_Node000016_Node000017"><a xlink:title=" ">
<path fill="none" stroke="#63b8ff" d="M662.77,-124.86C647.41,-124.98 631.94,-125.11 619.96,-125.2"/>
<polygon fill="#63b8ff" stroke="#63b8ff" points="662.39,-128.37 672.36,-124.79 662.34,-121.37 662.39,-128.37"/>
</a>
</g>
</g>
<!-- Node18 -->
<g id="Node000018" class="node">
<title>Node18</title>
<g id="a_Node000018"><a xlink:href="../../db/ddc/pick__engine_8c.html#ab97dcab41017c5132f52b682437a151e" target="_top" xlink:title="Initializes pick interface, calculates window size and position, and enters picker loop.">
<polygon fill="white" stroke="#666666" points="521,-96.75 446.5,-96.75 446.5,-76 521,-76 521,-96.75"/>
<text xml:space="preserve" text-anchor="middle" x="483.75" y="-83.25" font-family="Helvetica,sans-Serif" font-size="10.00">pick_engine</text>
</a>
</g>
</g>
<!-- Node17&#45;&gt;Node18 -->
<g id="edge18_Node000017_Node000018" class="edge">
<title>Node17&#45;&gt;Node18</title>
<g id="a_edge18_Node000017_Node000018"><a xlink:title=" ">
<path fill="none" stroke="#63b8ff" d="M563.48,-114C548.34,-108.69 530.41,-102.4 515.49,-97.16"/>
<polygon fill="#63b8ff" stroke="#63b8ff" points="561.9,-117.16 572.49,-117.17 564.22,-110.55 561.9,-117.16"/>
</a>
</g>
</g>
<!-- Node19 -->
<g id="Node000019" class="node">
<title>Node19</title>
<g id="a_Node000019"><a xlink:href="../../db/ddc/pick__engine_8c.html#a1b2ee87543245e612c1710ea58930a17" target="_top" xlink:title="Initializes pick structure and opens pick input file or pipe.">
<polygon fill="white" stroke="#666666" points="410.5,-20.75 353.25,-20.75 353.25,0 410.5,0 410.5,-20.75"/>
<text xml:space="preserve" text-anchor="middle" x="381.88" y="-7.25" font-family="Helvetica,sans-Serif" font-size="10.00">init_pick</text>
</a>
</g>
</g>
<!-- Node18&#45;&gt;Node19 -->
<g id="edge19_Node000018_Node000019" class="edge">
<title>Node18&#45;&gt;Node19</title>
<g id="a_edge19_Node000018_Node000019"><a xlink:title=" ">
<path fill="none" stroke="#63b8ff" d="M459.79,-68.91C440.41,-54.16 413.29,-33.52 396.97,-21.1"/>
<polygon fill="#63b8ff" stroke="#63b8ff" points="457.58,-71.62 467.66,-74.89 461.82,-66.05 457.58,-71.62"/>
</a>
</g>
</g>
<!-- Node19&#45;&gt;Node4 -->
<g id="edge21_Node000019_Node000004" class="edge">
<title>Node19&#45;&gt;Node4</title>
<g id="a_edge21_Node000019_Node000004"><a xlink:title=" ">
<path fill="none" stroke="#63b8ff" d="M358.84,-28.74C356.9,-30.59 355.01,-32.48 353.25,-34.38 315.61,-74.92 278.62,-129.92 263.79,-152.75"/>
<polygon fill="#63b8ff" stroke="#63b8ff" points="361.17,-31.35 366.29,-22.07 356.5,-26.13 361.17,-31.35"/>
</a>
</g>
</g>
<!-- Node20 -->
<g id="Node000020" class="node">
<title>Node20</title>
<g id="a_Node000020"><a xlink:href="../../de/d7c/pick_8c.html#a3c04138a5bfe5d72780bb7e82a18e627" target="_top" xlink:title=" ">
<polygon fill="white" stroke="#666666" points="276.38,-20.75 235.62,-20.75 235.62,0 276.38,0 276.38,-20.75"/>
<text xml:space="preserve" text-anchor="middle" x="256" y="-7.25" font-family="Helvetica,sans-Serif" font-size="10.00">main</text>
</a>
</g>
</g>
<!-- Node19&#45;&gt;Node20 -->
<g id="edge20_Node000019_Node000020" class="edge">
<title>Node19&#45;&gt;Node20</title>
<g id="a_edge20_Node000019_Node000020"><a xlink:title=" ">
<path fill="none" stroke="#63b8ff" d="M341.27,-10.38C319.64,-10.38 293.83,-10.38 276.52,-10.38"/>
<polygon fill="#63b8ff" stroke="#63b8ff" points="341.25,-13.88 351.25,-10.38 341.25,-6.88 341.25,-13.88"/>
</a>
</g>
</g>
<!-- Node21&#45;&gt;Node18 -->
<g id="edge23_Node000021_Node000018" class="edge">
<title>Node21&#45;&gt;Node18</title>
<g id="a_edge23_Node000021_Node000018"><a xlink:title=" ">
<path fill="none" stroke="#63b8ff" d="M545.4,-86.38C537.3,-86.38 529.04,-86.38 521.34,-86.38"/>
<polygon fill="#63b8ff" stroke="#63b8ff" points="545.18,-89.88 555.18,-86.38 545.18,-82.88 545.18,-89.88"/>
</a>
</g>
</g>
<!-- Node22&#45;&gt;Node12 -->
<g id="edge28_Node000022_Node000012" class="edge">
<title>Node22&#45;&gt;Node12</title>
<g id="a_edge28_Node000022_Node000012"><a xlink:title=" ">
<path fill="none" stroke="#63b8ff" d="M790.41,-234.99C837.36,-231.5 902.76,-226.09 960,-219.38 971.55,-218.02 983.87,-216.35 995.66,-214.64"/>
<polygon fill="#63b8ff" stroke="#63b8ff" points="790.41,-231.48 780.69,-235.71 790.92,-238.46 790.41,-231.48"/>
</a>
</g>
</g>
<!-- Node24&#45;&gt;Node4 -->
<g id="edge32_Node000024_Node000004" class="edge">
<title>Node24&#45;&gt;Node4</title>
<g id="a_edge32_Node000024_Node000004"><a xlink:title=" ">
<path fill="none" stroke="#63b8ff" d="M1138.73,-258.51C1084.76,-266.87 1002.7,-277.38 930.88,-277.38 930.88,-277.38 930.88,-277.38 482.75,-277.38 391.42,-277.38 299.47,-202.12 268.2,-173.9"/>
<polygon fill="#63b8ff" stroke="#63b8ff" points="1138.98,-262.01 1148.32,-257 1137.89,-255.1 1138.98,-262.01"/>
</a>
</g>
</g>
<!-- Node24&#45;&gt;Node12 -->
<g id="edge33_Node000024_Node000012" class="edge">
<title>Node24&#45;&gt;Node12</title>
<g id="a_edge33_Node000024_Node000012"><a xlink:title=" ">
<path fill="none" stroke="#63b8ff" d="M1151.07,-234.19C1131.77,-228.34 1109.77,-221.67 1091.79,-216.22"/>
<polygon fill="#63b8ff" stroke="#63b8ff" points="1150.04,-237.53 1160.63,-237.09 1152.07,-230.84 1150.04,-237.53"/>
</a>
</g>
</g>
<!-- Node25&#45;&gt;Node12 -->
<g id="edge35_Node000025_Node000012" class="edge">
<title>Node25&#45;&gt;Node12</title>
<g id="a_edge35_Node000025_Node000012"><a xlink:title=" ">
<path fill="none" stroke="#63b8ff" d="M1287.79,-175.6C1247.9,-180.72 1168.97,-190.86 1114.37,-197.88"/>
<polygon fill="#63b8ff" stroke="#63b8ff" points="1288.09,-179.09 1297.56,-174.34 1287.2,-172.14 1288.09,-179.09"/>
</a>
</g>
</g>
</g>
</svg>
