<?xml version="1.0" encoding="UTF-8" standalone="no"?>
<!DOCTYPE svg PUBLIC "-//W3C//DTD SVG 1.1//EN"
 "http://www.w3.org/Graphics/SVG/1.1/DTD/svg11.dtd">
<!-- Generated by graphviz version 14.1.2 (0)
 -->
<!-- Title: di_getch Pages: 1 -->
<svg width="411pt" height="87pt"
 viewBox="0.00 0.00 411.00 87.00" xmlns="http://www.w3.org/2000/svg" xmlns:xlink="http://www.w3.org/1999/xlink">
<g id="graph0" class="graph" transform="scale(1 1) rotate(0) translate(4 82.75)">
<title>di_getch</title>
<!-- Node1 -->
<g id="Node000001" class="node">
<title>Node1</title>
<g id="a_Node000001"><a xlink:title="sget single character from terminal in raw mode">
<polygon fill="#999999" stroke="#666666" points="403,-58.75 345.75,-58.75 345.75,-38 403,-38 403,-58.75"/>
<text xml:space="preserve" text-anchor="middle" x="374.38" y="-45.25" font-family="Helvetica,sans-Serif" font-size="10.00">di_getch</text>
</a>
</g>
</g>
<!-- Node2 -->
<g id="Node000002" class="node">
<title>Node2</title>
<g id="a_Node000002"><a xlink:href="../../dc/d40/dwin_8c.html#a2f2e1496a7c253b2d58446154c98a0bf" target="_top" xlink:title="Display error message and wait for key press.">
<polygon fill="white" stroke="#666666" points="309.75,-78.75 255.5,-78.75 255.5,-58 309.75,-58 309.75,-78.75"/>
<text xml:space="preserve" text-anchor="middle" x="282.62" y="-65.25" font-family="Helvetica,sans-Serif" font-size="10.00">nf_error</text>
</a>
</g>
</g>
<!-- Node1&#45;&gt;Node2 -->
<g id="edge1_Node000001_Node000002" class="edge">
<title>Node1&#45;&gt;Node2</title>
<g id="a_edge1_Node000001_Node000002"><a xlink:title=" ">
<path fill="none" stroke="#63b8ff" d="M334.47,-57.04C326.2,-58.89 317.65,-60.79 309.98,-62.5"/>
<polygon fill="#63b8ff" stroke="#63b8ff" points="334.99,-60.51 343.99,-54.92 333.47,-53.68 334.99,-60.51"/>
</a>
</g>
</g>
<!-- Node3 -->
<g id="Node000003" class="node">
<title>Node3</title>
<g id="a_Node000003"><a xlink:href="../../d8/d60/init_8c.html#a2ef30c42cbc289d899a8be5d2d8f77d0" target="_top" xlink:title="Display the usage information of the application.">
<polygon fill="white" stroke="#666666" points="305.25,-39.75 260,-39.75 260,-19 305.25,-19 305.25,-39.75"/>
<text xml:space="preserve" text-anchor="middle" x="282.62" y="-26.25" font-family="Helvetica,sans-Serif" font-size="10.00">usage</text>
</a>
</g>
</g>
<!-- Node1&#45;&gt;Node3 -->
<g id="edge2_Node000001_Node000003" class="edge">
<title>Node1&#45;&gt;Node3</title>
<g id="a_edge2_Node000001_Node000003"><a xlink:title=" ">
<path fill="none" stroke="#63b8ff" d="M334.21,-40.08C324.38,-38 314.18,-35.84 305.53,-34.01"/>
<polygon fill="#63b8ff" stroke="#63b8ff" points="333.48,-43.51 343.99,-42.15 334.93,-36.66 333.48,-43.51"/>
</a>
</g>
</g>
<!-- Node4 -->
<g id="Node000004" class="node">
<title>Node4</title>
<g id="a_Node000004"><a xlink:href="../../df/dcd/opts_8c.html#ab2958e2921a81b3f26fe0a9b7da34763" target="_top" xlink:title="dump options by use mask">
<polygon fill="white" stroke="#666666" points="219.5,-39.75 109.75,-39.75 109.75,-19 219.5,-19 219.5,-39.75"/>
<text xml:space="preserve" text-anchor="middle" x="164.62" y="-26.25" font-family="Helvetica,sans-Serif" font-size="10.00">dump_opts_by_use</text>
</a>
</g>
</g>
<!-- Node3&#45;&gt;Node4 -->
<g id="edge3_Node000003_Node000004" class="edge">
<title>Node3&#45;&gt;Node4</title>
<g id="a_edge3_Node000003_Node000004"><a xlink:title=" ">
<path fill="none" stroke="#63b8ff" d="M248.15,-29.38C239.31,-29.38 229.54,-29.38 219.9,-29.38"/>
<polygon fill="#63b8ff" stroke="#63b8ff" points="248.02,-32.88 258.02,-29.38 248.02,-25.88 248.02,-32.88"/>
</a>
</g>
</g>
<!-- Node5 -->
<g id="Node000005" class="node">
<title>Node5</title>
<g id="a_Node000005"><a xlink:href="../../d3/dee/form__engine_8c.html#a55ea39040ce4618476ee3fada6a0c417" target="_top" xlink:title="Display usage information for the form, including available options and commands, to assist users in ...">
<polygon fill="white" stroke="#666666" points="73.75,-59.75 0,-59.75 0,-39 73.75,-39 73.75,-59.75"/>
<text xml:space="preserve" text-anchor="middle" x="36.88" y="-46.25" font-family="Helvetica,sans-Serif" font-size="10.00">form_usage</text>
</a>
</g>
</g>
<!-- Node4&#45;&gt;Node5 -->
<g id="edge4_Node000004_Node000005" class="edge">
<title>Node4&#45;&gt;Node5</title>
<g id="a_edge4_Node000004_Node000005"><a xlink:title=" ">
<path fill="none" stroke="#63b8ff" d="M98.26,-39.77C89.95,-41.09 81.71,-42.4 74.1,-43.61"/>
<polygon fill="#63b8ff" stroke="#63b8ff" points="98.75,-43.24 108.07,-38.21 97.65,-36.32 98.75,-43.24"/>
</a>
</g>
</g>
<!-- Node6 -->
<g id="Node000006" class="node">
<title>Node6</title>
<g id="a_Node000006"><a xlink:href="../../dd/dac/optsp_8c.html#a3c04138a5bfe5d72780bb7e82a18e627" target="_top" xlink:title="main function for optsp">
<polygon fill="white" stroke="#666666" points="57.25,-20.75 16.5,-20.75 16.5,0 57.25,0 57.25,-20.75"/>
<text xml:space="preserve" text-anchor="middle" x="36.88" y="-7.25" font-family="Helvetica,sans-Serif" font-size="10.00">main</text>
</a>
</g>
</g>
<!-- Node4&#45;&gt;Node6 -->
<g id="edge5_Node000004_Node000006" class="edge">
<title>Node4&#45;&gt;Node6</title>
<g id="a_edge5_Node000004_Node000006"><a xlink:title=" ">
<path fill="none" stroke="#63b8ff" d="M98.22,-19.49C83.35,-17.25 68.67,-15.03 57.51,-13.34"/>
<polygon fill="#63b8ff" stroke="#63b8ff" points="97.66,-22.95 108.07,-20.98 98.7,-16.03 97.66,-22.95"/>
</a>
</g>
</g>
</g>
</svg>
