<?xml version="1.0" encoding="UTF-8" standalone="no"?>
<!DOCTYPE svg PUBLIC "-//W3C//DTD SVG 1.1//EN"
 "http://www.w3.org/Graphics/SVG/1.1/DTD/svg11.dtd">
<!-- Generated by graphviz version 14.1.2 (0)
 -->
<!-- Title: View Pages: 1 -->
<svg width="606pt" height="289pt"
 viewBox="0.00 0.00 606.00 289.00" xmlns="http://www.w3.org/2000/svg" xmlns:xlink="http://www.w3.org/1999/xlink">
<g id="graph0" class="graph" transform="scale(1 1) rotate(0) translate(4 284.5)">
<title>View</title>
<!-- Node1 -->
<g id="Node000001" class="node">
<title>Node1</title>
<g id="a_Node000001"><a xlink:title=" ">
<polygon fill="#999999" stroke="#666666" points="325.16,-20.75 285.16,-20.75 285.16,0 325.16,0 325.16,-20.75"/>
<text xml:space="preserve" text-anchor="middle" x="305.16" y="-7.25" font-family="Helvetica,sans-Serif" font-size="10.00">View</text>
</a>
</g>
</g>
<!-- Node2 -->
<g id="Node000002" class="node">
<title>Node2</title>
<g id="a_Node000002"><a xlink:title=" ">
<polygon fill="white" stroke="#666666" points="40.56,-280.5 11.76,-280.5 11.76,-259.75 40.56,-259.75 40.56,-280.5"/>
<text xml:space="preserve" text-anchor="middle" x="26.16" y="-267" font-family="Helvetica,sans-Serif" font-size="10.00">int</text>
</a>
</g>
</g>
<!-- Node2&#45;&gt;Node1 -->
<g id="edge1_Node000001_Node000002" class="edge">
<title>Node2&#45;&gt;Node1</title>
<g id="a_edge1_Node000001_Node000002"><a xlink:title=" ">
<path fill="none" stroke="#9a32cd" stroke-dasharray="5,2" d="M19.02,-248.79C4.82,-204.18 -21.22,-97.07 33.16,-38.75 50.27,-20.4 224.76,-13.68 284.91,-11.91"/>
<polygon fill="#9a32cd" stroke="#9a32cd" points="15.68,-249.81 22.16,-258.19 22.32,-247.59 15.68,-249.81"/>
</a>
</g>
<text xml:space="preserve" text-anchor="start" x="36.16" y="-220.88" font-family="Helvetica,sans-Serif" font-size="10.00" fill="grey">argc</text>
<text xml:space="preserve" text-anchor="start" x="36.16" y="-204.12" font-family="Helvetica,sans-Serif" font-size="10.00" fill="grey">begx</text>
<text xml:space="preserve" text-anchor="start" x="36.16" y="-187.38" font-family="Helvetica,sans-Serif" font-size="10.00" fill="grey">begy</text>
<text xml:space="preserve" text-anchor="start" x="36.16" y="-170.62" font-family="Helvetica,sans-Serif" font-size="10.00" fill="grey">bg_color</text>
<text xml:space="preserve" text-anchor="start" x="36.16" y="-153.88" font-family="Helvetica,sans-Serif" font-size="10.00" fill="grey">bo_color</text>
<text xml:space="preserve" text-anchor="start" x="36.16" y="-137.12" font-family="Helvetica,sans-Serif" font-size="10.00" fill="grey">cmd_line</text>
<text xml:space="preserve" text-anchor="start" x="36.16" y="-120.38" font-family="Helvetica,sans-Serif" font-size="10.00" fill="grey">cols</text>
<text xml:space="preserve" text-anchor="start" x="36.16" y="-103.62" font-family="Helvetica,sans-Serif" font-size="10.00" fill="grey">curr_argc</text>
<text xml:space="preserve" text-anchor="start" x="36.16" y="-86.88" font-family="Helvetica,sans-Serif" font-size="10.00" fill="grey">curx</text>
<text xml:space="preserve" text-anchor="start" x="36.16" y="-70.12" font-family="Helvetica,sans-Serif" font-size="10.00" fill="grey">cury</text>
<text xml:space="preserve" text-anchor="start" x="36.16" y="-53.38" font-family="Helvetica,sans-Serif" font-size="10.00" fill="grey"> &#160;...</text>
</g>
<!-- Node3 -->
<g id="Node000003" class="node">
<title>Node3</title>
<g id="a_Node000003"><a xlink:title=" ">
<polygon fill="white" stroke="#666666" points="118.66,-280.5 81.66,-280.5 81.66,-259.75 118.66,-259.75 118.66,-280.5"/>
<text xml:space="preserve" text-anchor="middle" x="100.16" y="-267" font-family="Helvetica,sans-Serif" font-size="10.00">char</text>
</a>
</g>
</g>
<!-- Node3&#45;&gt;Node1 -->
<g id="edge2_Node000001_Node000003" class="edge">
<title>Node3&#45;&gt;Node1</title>
<g id="a_edge2_Node000001_Node000003"><a xlink:title=" ">
<path fill="none" stroke="#9a32cd" stroke-dasharray="5,2" d="M97.23,-248.39C90.55,-197.68 76.8,-69.29 103.91,-38.75 127.49,-12.18 238.63,-10.48 284.88,-10.96"/>
<polygon fill="#9a32cd" stroke="#9a32cd" points="93.72,-248.57 98.54,-258.01 100.65,-247.62 93.72,-248.57"/>
</a>
</g>
<text xml:space="preserve" text-anchor="start" x="106.91" y="-220.88" font-family="Helvetica,sans-Serif" font-size="10.00" fill="grey">argv</text>
<text xml:space="preserve" text-anchor="start" x="106.91" y="-204.12" font-family="Helvetica,sans-Serif" font-size="10.00" fill="grey">buf</text>
<text xml:space="preserve" text-anchor="start" x="106.91" y="-187.38" font-family="Helvetica,sans-Serif" font-size="10.00" fill="grey">buf_curr_ptr</text>
<text xml:space="preserve" text-anchor="start" x="106.91" y="-170.62" font-family="Helvetica,sans-Serif" font-size="10.00" fill="grey">buf_end_ptr</text>
<text xml:space="preserve" text-anchor="start" x="106.91" y="-153.88" font-family="Helvetica,sans-Serif" font-size="10.00" fill="grey">cmd</text>
<text xml:space="preserve" text-anchor="start" x="106.91" y="-137.12" font-family="Helvetica,sans-Serif" font-size="10.00" fill="grey">cmd_all</text>
<text xml:space="preserve" text-anchor="start" x="106.91" y="-120.38" font-family="Helvetica,sans-Serif" font-size="10.00" fill="grey">cmd_arg</text>
<text xml:space="preserve" text-anchor="start" x="106.91" y="-103.62" font-family="Helvetica,sans-Serif" font-size="10.00" fill="grey">cur_file_str</text>
<text xml:space="preserve" text-anchor="start" x="106.91" y="-86.88" font-family="Helvetica,sans-Serif" font-size="10.00" fill="grey">file_name</text>
<text xml:space="preserve" text-anchor="start" x="106.91" y="-70.12" font-family="Helvetica,sans-Serif" font-size="10.00" fill="grey">file_spec_ptr</text>
<text xml:space="preserve" text-anchor="start" x="106.91" y="-53.38" font-family="Helvetica,sans-Serif" font-size="10.00" fill="grey"> &#160;...</text>
</g>
<!-- Node4 -->
<g id="Node000004" class="node">
<title>Node4</title>
<g id="a_Node000004"><a xlink:title=" ">
<polygon fill="white" stroke="#666666" points="209.66,-280.5 172.66,-280.5 172.66,-259.75 209.66,-259.75 209.66,-280.5"/>
<text xml:space="preserve" text-anchor="middle" x="191.16" y="-267" font-family="Helvetica,sans-Serif" font-size="10.00">bool</text>
</a>
</g>
</g>
<!-- Node4&#45;&gt;Node1 -->
<g id="edge3_Node000001_Node000004" class="edge">
<title>Node4&#45;&gt;Node1</title>
<g id="a_edge3_Node000001_Node000004"><a xlink:title=" ">
<path fill="none" stroke="#9a32cd" stroke-dasharray="5,2" d="M187.92,-248.24C180.57,-197.72 165.16,-70.73 190.41,-38.75 201.96,-24.12 255.08,-16.46 284.83,-13.25"/>
<polygon fill="#9a32cd" stroke="#9a32cd" points="184.41,-248.46 189.36,-257.83 191.34,-247.42 184.41,-248.46"/>
</a>
</g>
<text xml:space="preserve" text-anchor="start" x="193.41" y="-229.25" font-family="Helvetica,sans-Serif" font-size="10.00" fill="grey">f_at_end_clear</text>
<text xml:space="preserve" text-anchor="start" x="193.41" y="-212.5" font-family="Helvetica,sans-Serif" font-size="10.00" fill="grey">f_at_end_remove</text>
<text xml:space="preserve" text-anchor="start" x="193.41" y="-195.75" font-family="Helvetica,sans-Serif" font-size="10.00" fill="grey">f_bod</text>
<text xml:space="preserve" text-anchor="start" x="193.41" y="-179" font-family="Helvetica,sans-Serif" font-size="10.00" fill="grey">f_cmd</text>
<text xml:space="preserve" text-anchor="start" x="193.41" y="-162.25" font-family="Helvetica,sans-Serif" font-size="10.00" fill="grey">f_cmd_all</text>
<text xml:space="preserve" text-anchor="start" x="193.41" y="-145.5" font-family="Helvetica,sans-Serif" font-size="10.00" fill="grey">f_displaying</text>
<text xml:space="preserve" text-anchor="start" x="193.41" y="-128.75" font-family="Helvetica,sans-Serif" font-size="10.00" fill="grey">  _help</text>
<text xml:space="preserve" text-anchor="start" x="193.41" y="-112" font-family="Helvetica,sans-Serif" font-size="10.00" fill="grey">f_eod</text>
<text xml:space="preserve" text-anchor="start" x="193.41" y="-95.25" font-family="Helvetica,sans-Serif" font-size="10.00" fill="grey">f_first_iter</text>
<text xml:space="preserve" text-anchor="start" x="193.41" y="-78.5" font-family="Helvetica,sans-Serif" font-size="10.00" fill="grey">f_forward</text>
<text xml:space="preserve" text-anchor="start" x="193.41" y="-61.75" font-family="Helvetica,sans-Serif" font-size="10.00" fill="grey">f_full_screen</text>
<text xml:space="preserve" text-anchor="start" x="193.41" y="-45" font-family="Helvetica,sans-Serif" font-size="10.00" fill="grey"> &#160;...</text>
</g>
<!-- Node5 -->
<g id="Node000005" class="node">
<title>Node5</title>
<g id="a_Node000005"><a xlink:title=" ">
<polygon fill="white" stroke="#666666" points="316.78,-280.5 247.53,-280.5 247.53,-259.75 316.78,-259.75 316.78,-280.5"/>
<text xml:space="preserve" text-anchor="middle" x="282.16" y="-267" font-family="Helvetica,sans-Serif" font-size="10.00">WINDOW *</text>
</a>
</g>
</g>
<!-- Node5&#45;&gt;Node1 -->
<g id="edge4_Node000001_Node000005" class="edge">
<title>Node5&#45;&gt;Node1</title>
<g id="a_edge4_Node000001_Node000005"><a xlink:title=" ">
<path fill="none" stroke="#9a32cd" stroke-dasharray="5,2" d="M284.03,-248.09C288.74,-195.34 300.92,-58.91 304.28,-21.17"/>
<polygon fill="#9a32cd" stroke="#9a32cd" points="280.57,-247.56 283.17,-257.83 287.54,-248.18 280.57,-247.56"/>
</a>
</g>
<text xml:space="preserve" text-anchor="start" x="305.31" y="-153.88" font-family="Helvetica,sans-Serif" font-size="10.00" fill="grey">box</text>
<text xml:space="preserve" text-anchor="start" x="305.31" y="-137.12" font-family="Helvetica,sans-Serif" font-size="10.00" fill="grey">pad</text>
<text xml:space="preserve" text-anchor="start" x="305.31" y="-120.38" font-family="Helvetica,sans-Serif" font-size="10.00" fill="grey">win</text>
</g>
<!-- Node6 -->
<g id="Node000006" class="node">
<title>Node6</title>
<g id="a_Node000006"><a xlink:title=" ">
<polygon fill="white" stroke="#666666" points="385.78,-280.5 334.53,-280.5 334.53,-259.75 385.78,-259.75 385.78,-280.5"/>
<text xml:space="preserve" text-anchor="middle" x="360.16" y="-267" font-family="Helvetica,sans-Serif" font-size="10.00">cchar_t</text>
</a>
</g>
</g>
<!-- Node6&#45;&gt;Node1 -->
<g id="edge5_Node000001_Node000006" class="edge">
<title>Node6&#45;&gt;Node1</title>
<g id="a_edge5_Node000001_Node000006"><a xlink:title=" ">
<path fill="none" stroke="#9a32cd" stroke-dasharray="5,2" d="M354.5,-248.24C354.01,-246.06 353.55,-243.87 353.16,-241.75 336.76,-152.44 367.72,-121.42 330.16,-38.75 327.12,-32.07 321.83,-25.91 316.9,-21.13"/>
<polygon fill="#9a32cd" stroke="#9a32cd" points="351.09,-249.01 356.93,-257.85 357.87,-247.29 351.09,-249.01"/>
</a>
</g>
<text xml:space="preserve" text-anchor="start" x="356.16" y="-137.12" font-family="Helvetica,sans-Serif" font-size="10.00" fill="grey">cmplx_buf</text>
</g>
<!-- Node7 -->
<g id="Node000007" class="node">
<title>Node7</title>
<g id="a_Node000007"><a xlink:title=" ">
<polygon fill="white" stroke="#666666" points="451.41,-280.5 412.91,-280.5 412.91,-259.75 451.41,-259.75 451.41,-280.5"/>
<text xml:space="preserve" text-anchor="middle" x="432.16" y="-267" font-family="Helvetica,sans-Serif" font-size="10.00">off_t</text>
</a>
</g>
</g>
<!-- Node7&#45;&gt;Node1 -->
<g id="edge6_Node000001_Node000007" class="edge">
<title>Node7&#45;&gt;Node1</title>
<g id="a_edge6_Node000001_Node000007"><a xlink:title=" ">
<path fill="none" stroke="#9a32cd" stroke-dasharray="5,2" d="M431.5,-248.01C429.64,-194.09 423.57,-54.5 410.16,-38.75 399.29,-25.99 352.77,-17.74 325.43,-13.9"/>
<polygon fill="#9a32cd" stroke="#9a32cd" points="428,-248.08 431.83,-257.96 435,-247.86 428,-248.08"/>
</a>
</g>
<text xml:space="preserve" text-anchor="start" x="434.15" y="-195.75" font-family="Helvetica,sans-Serif" font-size="10.00" fill="grey">file_pos</text>
<text xml:space="preserve" text-anchor="start" x="434.15" y="-179" font-family="Helvetica,sans-Serif" font-size="10.00" fill="grey">file_size</text>
<text xml:space="preserve" text-anchor="start" x="434.15" y="-162.25" font-family="Helvetica,sans-Serif" font-size="10.00" fill="grey">mark_tbl</text>
<text xml:space="preserve" text-anchor="start" x="434.15" y="-145.5" font-family="Helvetica,sans-Serif" font-size="10.00" fill="grey">page_bot_pos</text>
<text xml:space="preserve" text-anchor="start" x="434.15" y="-128.75" font-family="Helvetica,sans-Serif" font-size="10.00" fill="grey">page_top_pos</text>
<text xml:space="preserve" text-anchor="start" x="434.15" y="-112" font-family="Helvetica,sans-Serif" font-size="10.00" fill="grey">prev_file_pos</text>
<text xml:space="preserve" text-anchor="start" x="434.15" y="-95.25" font-family="Helvetica,sans-Serif" font-size="10.00" fill="grey">srch_beg_pos</text>
<text xml:space="preserve" text-anchor="start" x="434.15" y="-78.5" font-family="Helvetica,sans-Serif" font-size="10.00" fill="grey">srch_curr_pos</text>
</g>
<!-- Node8 -->
<g id="Node000008" class="node">
<title>Node8</title>
<g id="a_Node000008"><a xlink:title=" ">
<polygon fill="white" stroke="#666666" points="551.41,-280.5 506.91,-280.5 506.91,-259.75 551.41,-259.75 551.41,-280.5"/>
<text xml:space="preserve" text-anchor="middle" x="529.16" y="-267" font-family="Helvetica,sans-Serif" font-size="10.00">FILE *</text>
</a>
</g>
</g>
<!-- Node8&#45;&gt;Node1 -->
<g id="edge7_Node000001_Node000008" class="edge">
<title>Node8&#45;&gt;Node1</title>
<g id="a_edge7_Node000001_Node000008"><a xlink:title=" ">
<path fill="none" stroke="#9a32cd" stroke-dasharray="5,2" d="M534.64,-248.41C545.15,-203.45 562.52,-96.34 507.16,-38.75 482.45,-13.04 371.49,-10.85 325.37,-11.07"/>
<polygon fill="#9a32cd" stroke="#9a32cd" points="531.24,-247.56 532.22,-258.11 538.04,-249.25 531.24,-247.56"/>
</a>
</g>
<text xml:space="preserve" text-anchor="start" x="548.75" y="-153.88" font-family="Helvetica,sans-Serif" font-size="10.00" fill="grey">in_fp</text>
<text xml:space="preserve" text-anchor="start" x="548.75" y="-137.12" font-family="Helvetica,sans-Serif" font-size="10.00" fill="grey">stdin_fp</text>
<text xml:space="preserve" text-anchor="start" x="548.75" y="-120.38" font-family="Helvetica,sans-Serif" font-size="10.00" fill="grey">stdout_fp</text>
</g>
</g>
</svg>
