<?xml version="1.0" encoding="UTF-8" standalone="no"?>
<!DOCTYPE svg PUBLIC "-//W3C//DTD SVG 1.1//EN"
 "http://www.w3.org/Graphics/SVG/1.1/DTD/svg11.dtd">
<!-- Generated by graphviz version 14.1.2 (0)
 -->
<!-- Title: dwin.c Pages: 1 -->
<svg width="882pt" height="142pt"
 viewBox="0.00 0.00 882.00 142.00" xmlns="http://www.w3.org/2000/svg" xmlns:xlink="http://www.w3.org/1999/xlink">
<g id="graph0" class="graph" transform="scale(1 1) rotate(0) translate(4 138.25)">
<title>dwin.c</title>
<!-- Node1 -->
<g id="Node000001" class="node">
<title>Node1</title>
<g id="a_Node000001"><a xlink:title="Window support for C&#45;Menu Menu, Form, Pick, and View.">
<polygon fill="#999999" stroke="#666666" points="569.25,-134.25 521.75,-134.25 521.75,-113.5 569.25,-113.5 569.25,-134.25"/>
<text xml:space="preserve" text-anchor="middle" x="545.5" y="-120.75" font-family="Helvetica,sans-Serif" font-size="10.00">dwin.c</text>
</a>
</g>
</g>
<!-- Node2 -->
<g id="Node000002" class="node">
<title>Node2</title>
<g id="a_Node000002"><a xlink:href="../../d8/d23/a00326.html" target="_top" xlink:title="Headder for C&#45;Menu API library, libcm.so.">
<polygon fill="white" stroke="#666666" points="291.5,-77.5 251.5,-77.5 251.5,-56.75 291.5,-56.75 291.5,-77.5"/>
<text xml:space="preserve" text-anchor="middle" x="271.5" y="-64" font-family="Helvetica,sans-Serif" font-size="10.00">cm.h</text>
</a>
</g>
</g>
<!-- Node1&#45;&gt;Node2 -->
<g id="edge1_Node000001_Node000002" class="edge">
<title>Node1&#45;&gt;Node2</title>
<g id="a_edge1_Node000001_Node000002"><a xlink:title=" ">
<path fill="none" stroke="#63b8ff" d="M521.66,-118.11C472.17,-108.22 358.29,-85.47 302.9,-74.4"/>
<polygon fill="#63b8ff" stroke="#63b8ff" points="303.67,-70.98 293.18,-72.46 302.3,-77.85 303.67,-70.98"/>
</a>
</g>
</g>
<!-- Node7 -->
<g id="Node000007" class="node">
<title>Node7</title>
<g id="a_Node000007"><a xlink:title=" ">
<polygon fill="#e0e0e0" stroke="#999999" points="406.5,-20.75 354.5,-20.75 354.5,0 406.5,0 406.5,-20.75"/>
<text xml:space="preserve" text-anchor="middle" x="380.5" y="-7.25" font-family="Helvetica,sans-Serif" font-size="10.00">stdlib.h</text>
</a>
</g>
</g>
<!-- Node1&#45;&gt;Node7 -->
<g id="edge10_Node000001_Node000007" class="edge">
<title>Node1&#45;&gt;Node7</title>
<g id="a_edge10_Node000001_Node000007"><a xlink:title=" ">
<path fill="none" stroke="#63b8ff" d="M521.34,-120.3C477.4,-115.05 387.17,-101.56 368.5,-77.5 358.34,-64.41 363.15,-45.49 369.44,-31.24"/>
<polygon fill="#63b8ff" stroke="#63b8ff" points="372.54,-32.88 373.87,-22.37 366.27,-29.75 372.54,-32.88"/>
</a>
</g>
</g>
<!-- Node8 -->
<g id="Node000008" class="node">
<title>Node8</title>
<g id="a_Node000008"><a xlink:title=" ">
<polygon fill="#e0e0e0" stroke="#999999" points="427.75,-77.5 377.25,-77.5 377.25,-56.75 427.75,-56.75 427.75,-77.5"/>
<text xml:space="preserve" text-anchor="middle" x="402.5" y="-64" font-family="Helvetica,sans-Serif" font-size="10.00">errno.h</text>
</a>
</g>
</g>
<!-- Node1&#45;&gt;Node8 -->
<g id="edge7_Node000001_Node000008" class="edge">
<title>Node1&#45;&gt;Node8</title>
<g id="a_edge7_Node000001_Node000008"><a xlink:title=" ">
<path fill="none" stroke="#63b8ff" d="M521.57,-113.71C498.89,-105.03 464.52,-91.87 438.53,-81.92"/>
<polygon fill="#63b8ff" stroke="#63b8ff" points="439.97,-78.72 429.37,-78.41 437.46,-85.26 439.97,-78.72"/>
</a>
</g>
</g>
<!-- Node9 -->
<g id="Node000009" class="node">
<title>Node9</title>
<g id="a_Node000009"><a xlink:title=" ">
<polygon fill="#e0e0e0" stroke="#999999" points="496.75,-77.5 446.25,-77.5 446.25,-56.75 496.75,-56.75 496.75,-77.5"/>
<text xml:space="preserve" text-anchor="middle" x="471.5" y="-64" font-family="Helvetica,sans-Serif" font-size="10.00">math.h</text>
</a>
</g>
</g>
<!-- Node1&#45;&gt;Node9 -->
<g id="edge8_Node000001_Node000009" class="edge">
<title>Node1&#45;&gt;Node9</title>
<g id="a_edge8_Node000001_Node000009"><a xlink:title=" ">
<path fill="none" stroke="#63b8ff" d="M532.27,-113.09C521.54,-105.15 506.18,-93.78 493.58,-84.46"/>
<polygon fill="#63b8ff" stroke="#63b8ff" points="495.95,-81.86 485.83,-78.73 491.79,-87.49 495.95,-81.86"/>
</a>
</g>
</g>
<!-- Node10 -->
<g id="Node000010" class="node">
<title>Node10</title>
<g id="a_Node000010"><a xlink:title=" ">
<polygon fill="#e0e0e0" stroke="#999999" points="576,-77.5 515,-77.5 515,-56.75 576,-56.75 576,-77.5"/>
<text xml:space="preserve" text-anchor="middle" x="545.5" y="-64" font-family="Helvetica,sans-Serif" font-size="10.00">stdbool.h</text>
</a>
</g>
</g>
<!-- Node1&#45;&gt;Node10 -->
<g id="edge9_Node000001_Node000010" class="edge">
<title>Node1&#45;&gt;Node10</title>
<g id="a_edge9_Node000001_Node000010"><a xlink:title=" ">
<path fill="none" stroke="#63b8ff" d="M545.5,-113.09C545.5,-106.47 545.5,-97.47 545.5,-89.27"/>
<polygon fill="#63b8ff" stroke="#63b8ff" points="549,-89.34 545.5,-79.34 542,-89.34 549,-89.34"/>
</a>
</g>
</g>
<!-- Node11 -->
<g id="Node000011" class="node">
<title>Node11</title>
<g id="a_Node000011"><a xlink:title=" ">
<polygon fill="#e0e0e0" stroke="#999999" points="646.88,-77.5 594.12,-77.5 594.12,-56.75 646.88,-56.75 646.88,-77.5"/>
<text xml:space="preserve" text-anchor="middle" x="620.5" y="-64" font-family="Helvetica,sans-Serif" font-size="10.00">string.h</text>
</a>
</g>
</g>
<!-- Node1&#45;&gt;Node11 -->
<g id="edge11_Node000001_Node000011" class="edge">
<title>Node1&#45;&gt;Node11</title>
<g id="a_edge11_Node000001_Node000011"><a xlink:title=" ">
<path fill="none" stroke="#63b8ff" d="M558.91,-113.09C569.79,-105.15 585.36,-93.78 598.12,-84.46"/>
<polygon fill="#63b8ff" stroke="#63b8ff" points="599.97,-87.44 605.99,-78.72 595.84,-81.79 599.97,-87.44"/>
</a>
</g>
</g>
<!-- Node12 -->
<g id="Node000012" class="node">
<title>Node12</title>
<g id="a_Node000012"><a xlink:title=" ">
<polygon fill="#e0e0e0" stroke="#999999" points="727.75,-77.5 665.25,-77.5 665.25,-56.75 727.75,-56.75 727.75,-77.5"/>
<text xml:space="preserve" text-anchor="middle" x="696.5" y="-64" font-family="Helvetica,sans-Serif" font-size="10.00">termios.h</text>
</a>
</g>
</g>
<!-- Node1&#45;&gt;Node12 -->
<g id="edge12_Node000001_Node000012" class="edge">
<title>Node1&#45;&gt;Node12</title>
<g id="a_edge12_Node000001_Node000012"><a xlink:title=" ">
<path fill="none" stroke="#63b8ff" d="M569.43,-114.2C593.43,-105.5 630.77,-91.96 658.76,-81.81"/>
<polygon fill="#63b8ff" stroke="#63b8ff" points="659.74,-85.18 667.95,-78.48 657.35,-78.6 659.74,-85.18"/>
</a>
</g>
</g>
<!-- Node13 -->
<g id="Node000013" class="node">
<title>Node13</title>
<g id="a_Node000013"><a xlink:title=" ">
<polygon fill="#e0e0e0" stroke="#999999" points="801,-77.5 746,-77.5 746,-56.75 801,-56.75 801,-77.5"/>
<text xml:space="preserve" text-anchor="middle" x="773.5" y="-64" font-family="Helvetica,sans-Serif" font-size="10.00">unistd.h</text>
</a>
</g>
</g>
<!-- Node1&#45;&gt;Node13 -->
<g id="edge13_Node000001_Node000013" class="edge">
<title>Node1&#45;&gt;Node13</title>
<g id="a_edge13_Node000001_Node000013"><a xlink:title=" ">
<path fill="none" stroke="#63b8ff" d="M569.65,-117.26C604,-109.25 669.23,-93.93 734.7,-77.91"/>
<polygon fill="#63b8ff" stroke="#63b8ff" points="735.28,-81.38 744.16,-75.59 733.61,-74.58 735.28,-81.38"/>
</a>
</g>
</g>
<!-- Node14 -->
<g id="Node000014" class="node">
<title>Node14</title>
<g id="a_Node000014"><a xlink:title=" ">
<polygon fill="#e0e0e0" stroke="#999999" points="873.62,-77.5 819.38,-77.5 819.38,-56.75 873.62,-56.75 873.62,-77.5"/>
<text xml:space="preserve" text-anchor="middle" x="846.5" y="-64" font-family="Helvetica,sans-Serif" font-size="10.00">wchar.h</text>
</a>
</g>
</g>
<!-- Node1&#45;&gt;Node14 -->
<g id="edge14_Node000001_Node000014" class="edge">
<title>Node1&#45;&gt;Node14</title>
<g id="a_edge14_Node000001_Node000014"><a xlink:title=" ">
<path fill="none" stroke="#63b8ff" d="M569.75,-119.43C614.75,-112.89 714.45,-97.69 807.97,-77.9"/>
<polygon fill="#63b8ff" stroke="#63b8ff" points="808.51,-81.37 817.56,-75.85 807.05,-74.52 808.51,-81.37"/>
</a>
</g>
</g>
<!-- Node3 -->
<g id="Node000003" class="node">
<title>Node3</title>
<g id="a_Node000003"><a xlink:href="../../d1/d5d/a00311.html" target="_top" xlink:title=" ">
<polygon fill="white" stroke="#666666" points="61,-20.75 0,-20.75 0,0 61,0 61,-20.75"/>
<text xml:space="preserve" text-anchor="middle" x="30.5" y="-7.25" font-family="Helvetica,sans-Serif" font-size="10.00">version.h</text>
</a>
</g>
</g>
<!-- Node2&#45;&gt;Node3 -->
<g id="edge2_Node000002_Node000003" class="edge">
<title>Node2&#45;&gt;Node3</title>
<g id="a_edge2_Node000002_Node000003"><a xlink:title=" ">
<path fill="none" stroke="#63b8ff" d="M251.12,-61.65C216.43,-54.02 143.44,-37.86 72.11,-21.33"/>
<polygon fill="#63b8ff" stroke="#63b8ff" points="73.15,-17.98 62.62,-19.13 71.57,-24.8 73.15,-17.98"/>
</a>
</g>
</g>
<!-- Node4 -->
<g id="Node000004" class="node">
<title>Node4</title>
<g id="a_Node000004"><a xlink:title=" ">
<polygon fill="#e0e0e0" stroke="#999999" points="190.12,-20.75 78.88,-20.75 78.88,0 190.12,0 190.12,-20.75"/>
<text xml:space="preserve" text-anchor="middle" x="134.5" y="-7.25" font-family="Helvetica,sans-Serif" font-size="10.00">ncursesw/ncurses.h</text>
</a>
</g>
</g>
<!-- Node2&#45;&gt;Node4 -->
<g id="edge3_Node000002_Node000004" class="edge">
<title>Node2&#45;&gt;Node4</title>
<g id="a_edge3_Node000002_Node000004"><a xlink:title=" ">
<path fill="none" stroke="#63b8ff" d="M251.29,-58.05C229.79,-49.46 195.4,-35.71 169.49,-25.36"/>
<polygon fill="#63b8ff" stroke="#63b8ff" points="170.96,-22.18 160.37,-21.72 168.36,-28.68 170.96,-22.18"/>
</a>
</g>
</g>
<!-- Node5 -->
<g id="Node000005" class="node">
<title>Node5</title>
<g id="a_Node000005"><a xlink:title=" ">
<polygon fill="#e0e0e0" stroke="#999999" points="262.62,-20.75 208.38,-20.75 208.38,0 262.62,0 262.62,-20.75"/>
<text xml:space="preserve" text-anchor="middle" x="235.5" y="-7.25" font-family="Helvetica,sans-Serif" font-size="10.00">signal.h</text>
</a>
</g>
</g>
<!-- Node2&#45;&gt;Node5 -->
<g id="edge4_Node000002_Node000005" class="edge">
<title>Node2&#45;&gt;Node5</title>
<g id="a_edge4_Node000002_Node000005"><a xlink:title=" ">
<path fill="none" stroke="#63b8ff" d="M265.06,-56.34C260.35,-49.17 253.81,-39.23 248.08,-30.51"/>
<polygon fill="#63b8ff" stroke="#63b8ff" points="251.13,-28.78 242.71,-22.34 245.28,-32.62 251.13,-28.78"/>
</a>
</g>
</g>
<!-- Node6 -->
<g id="Node000006" class="node">
<title>Node6</title>
<g id="a_Node000006"><a xlink:title=" ">
<polygon fill="#e0e0e0" stroke="#999999" points="336,-20.75 281,-20.75 281,0 336,0 336,-20.75"/>
<text xml:space="preserve" text-anchor="middle" x="308.5" y="-7.25" font-family="Helvetica,sans-Serif" font-size="10.00">stddef.h</text>
</a>
</g>
</g>
<!-- Node2&#45;&gt;Node6 -->
<g id="edge5_Node000002_Node000006" class="edge">
<title>Node2&#45;&gt;Node6</title>
<g id="a_edge5_Node000002_Node000006"><a xlink:title=" ">
<path fill="none" stroke="#63b8ff" d="M278.11,-56.34C282.96,-49.17 289.68,-39.23 295.57,-30.51"/>
<polygon fill="#63b8ff" stroke="#63b8ff" points="298.4,-32.58 301.09,-22.33 292.6,-28.66 298.4,-32.58"/>
</a>
</g>
</g>
<!-- Node2&#45;&gt;Node7 -->
<g id="edge6_Node000002_Node000007" class="edge">
<title>Node2&#45;&gt;Node7</title>
<g id="a_edge6_Node000002_Node000007"><a xlink:title=" ">
<path fill="none" stroke="#63b8ff" d="M290.99,-56.34C307.65,-47.97 331.88,-35.79 350.94,-26.22"/>
<polygon fill="#63b8ff" stroke="#63b8ff" points="352.46,-29.37 359.83,-21.76 349.32,-23.12 352.46,-29.37"/>
</a>
</g>
</g>
</g>
</svg>
