<?xml version="1.0" encoding="UTF-8" standalone="no"?>
<!DOCTYPE svg PUBLIC "-//W3C//DTD SVG 1.1//EN"
 "http://www.w3.org/Graphics/SVG/1.1/DTD/svg11.dtd">
<!-- Generated by graphviz version 14.1.2 (0)
 -->
<!-- Title: src/form_engine.c Pages: 1 -->
<svg width="649pt" height="86pt"
 viewBox="0.00 0.00 649.00 86.00" xmlns="http://www.w3.org/2000/svg" xmlns:xlink="http://www.w3.org/1999/xlink">
<g id="graph0" class="graph" transform="scale(1 1) rotate(0) translate(4 81.5)">
<title>src/form_engine.c</title>
<!-- Node1 -->
<g id="Node000001" class="node">
<title>Node1</title>
<g id="a_Node000001"><a xlink:title="The working part of C&#45;Menu Form.">
<polygon fill="#999999" stroke="#666666" points="366.38,-77.5 263.38,-77.5 263.38,-56.75 366.38,-56.75 366.38,-77.5"/>
<text xml:space="preserve" text-anchor="middle" x="314.88" y="-64" font-family="Helvetica,sans-Serif" font-size="10.00">src/form_engine.c</text>
</a>
</g>
</g>
<!-- Node2 -->
<g id="Node000002" class="node">
<title>Node2</title>
<g id="a_Node000002"><a xlink:title=" ">
<polygon fill="#e0e0e0" stroke="#999999" points="67.75,-20.75 0,-20.75 0,0 67.75,0 67.75,-20.75"/>
<text xml:space="preserve" text-anchor="middle" x="33.88" y="-7.25" font-family="Helvetica,sans-Serif" font-size="10.00">common.h</text>
</a>
</g>
</g>
<!-- Node1&#45;&gt;Node2 -->
<g id="edge1_Node000001_Node000002" class="edge">
<title>Node1&#45;&gt;Node2</title>
<g id="a_edge1_Node000001_Node000002"><a xlink:title=" ">
<path fill="none" stroke="#63b8ff" d="M263.26,-56.69C217.46,-48.22 148.41,-35.24 79.23,-21.19"/>
<polygon fill="#63b8ff" stroke="#63b8ff" points="80.11,-17.8 69.61,-19.23 78.71,-24.66 80.11,-17.8"/>
</a>
</g>
</g>
<!-- Node3 -->
<g id="Node000003" class="node">
<title>Node3</title>
<g id="a_Node000003"><a xlink:title=" ">
<polygon fill="#e0e0e0" stroke="#999999" points="136.12,-20.75 85.62,-20.75 85.62,0 136.12,0 136.12,-20.75"/>
<text xml:space="preserve" text-anchor="middle" x="110.88" y="-7.25" font-family="Helvetica,sans-Serif" font-size="10.00">errno.h</text>
</a>
</g>
</g>
<!-- Node1&#45;&gt;Node3 -->
<g id="edge2_Node000001_Node000003" class="edge">
<title>Node1&#45;&gt;Node3</title>
<g id="a_edge2_Node000001_Node000003"><a xlink:title=" ">
<path fill="none" stroke="#63b8ff" d="M278.4,-56.34C241.33,-46.39 184.21,-31.06 147.19,-21.12"/>
<polygon fill="#63b8ff" stroke="#63b8ff" points="148.42,-17.83 137.85,-18.62 146.6,-24.59 148.42,-17.83"/>
</a>
</g>
</g>
<!-- Node4 -->
<g id="Node000004" class="node">
<title>Node4</title>
<g id="a_Node000004"><a xlink:title=" ">
<polygon fill="#e0e0e0" stroke="#999999" points="201.25,-20.75 154.5,-20.75 154.5,0 201.25,0 201.25,-20.75"/>
<text xml:space="preserve" text-anchor="middle" x="177.88" y="-7.25" font-family="Helvetica,sans-Serif" font-size="10.00">fcntl.h</text>
</a>
</g>
</g>
<!-- Node1&#45;&gt;Node4 -->
<g id="edge3_Node000001_Node000004" class="edge">
<title>Node1&#45;&gt;Node4</title>
<g id="a_edge3_Node000001_Node000004"><a xlink:title=" ">
<path fill="none" stroke="#63b8ff" d="M290.38,-56.34C268.62,-47.64 236.59,-34.84 212.27,-25.12"/>
<polygon fill="#63b8ff" stroke="#63b8ff" points="213.69,-21.92 203.1,-21.46 211.09,-28.42 213.69,-21.92"/>
</a>
</g>
</g>
<!-- Node5 -->
<g id="Node000005" class="node">
<title>Node5</title>
<g id="a_Node000005"><a xlink:title=" ">
<polygon fill="#e0e0e0" stroke="#999999" points="270.88,-20.75 218.88,-20.75 218.88,0 270.88,0 270.88,-20.75"/>
<text xml:space="preserve" text-anchor="middle" x="244.88" y="-7.25" font-family="Helvetica,sans-Serif" font-size="10.00">stdlib.h</text>
</a>
</g>
</g>
<!-- Node1&#45;&gt;Node5 -->
<g id="edge4_Node000001_Node000005" class="edge">
<title>Node1&#45;&gt;Node5</title>
<g id="a_edge4_Node000001_Node000005"><a xlink:title=" ">
<path fill="none" stroke="#63b8ff" d="M302.36,-56.34C292.31,-48.47 277.96,-37.25 266.12,-27.99"/>
<polygon fill="#63b8ff" stroke="#63b8ff" points="268.51,-25.41 258.47,-22.01 264.19,-30.93 268.51,-25.41"/>
</a>
</g>
</g>
<!-- Node6 -->
<g id="Node000006" class="node">
<title>Node6</title>
<g id="a_Node000006"><a xlink:title=" ">
<polygon fill="#e0e0e0" stroke="#999999" points="341.25,-20.75 288.5,-20.75 288.5,0 341.25,0 341.25,-20.75"/>
<text xml:space="preserve" text-anchor="middle" x="314.88" y="-7.25" font-family="Helvetica,sans-Serif" font-size="10.00">string.h</text>
</a>
</g>
</g>
<!-- Node1&#45;&gt;Node6 -->
<g id="edge5_Node000001_Node000006" class="edge">
<title>Node1&#45;&gt;Node6</title>
<g id="a_edge5_Node000001_Node000006"><a xlink:title=" ">
<path fill="none" stroke="#63b8ff" d="M314.88,-56.34C314.88,-49.72 314.88,-40.72 314.88,-32.52"/>
<polygon fill="#63b8ff" stroke="#63b8ff" points="318.38,-32.59 314.88,-22.59 311.38,-32.59 318.38,-32.59"/>
</a>
</g>
</g>
<!-- Node7 -->
<g id="Node000007" class="node">
<title>Node7</title>
<g id="a_Node000007"><a xlink:title=" ">
<polygon fill="#e0e0e0" stroke="#999999" points="422.5,-20.75 359.25,-20.75 359.25,0 422.5,0 422.5,-20.75"/>
<text xml:space="preserve" text-anchor="middle" x="390.88" y="-7.25" font-family="Helvetica,sans-Serif" font-size="10.00">sys/stat.h</text>
</a>
</g>
</g>
<!-- Node1&#45;&gt;Node7 -->
<g id="edge6_Node000001_Node000007" class="edge">
<title>Node1&#45;&gt;Node7</title>
<g id="a_edge6_Node000001_Node000007"><a xlink:title=" ">
<path fill="none" stroke="#63b8ff" d="M328.46,-56.34C339.49,-48.4 355.26,-37.03 368.2,-27.71"/>
<polygon fill="#63b8ff" stroke="#63b8ff" points="370.11,-30.65 376.18,-21.96 366.02,-24.97 370.11,-30.65"/>
</a>
</g>
</g>
<!-- Node8 -->
<g id="Node000008" class="node">
<title>Node8</title>
<g id="a_Node000008"><a xlink:title=" ">
<polygon fill="#e0e0e0" stroke="#999999" points="503.12,-20.75 440.62,-20.75 440.62,0 503.12,0 503.12,-20.75"/>
<text xml:space="preserve" text-anchor="middle" x="471.88" y="-7.25" font-family="Helvetica,sans-Serif" font-size="10.00">termios.h</text>
</a>
</g>
</g>
<!-- Node1&#45;&gt;Node8 -->
<g id="edge7_Node000001_Node000008" class="edge">
<title>Node1&#45;&gt;Node8</title>
<g id="a_edge7_Node000001_Node000008"><a xlink:title=" ">
<path fill="none" stroke="#63b8ff" d="M342.94,-56.34C368.09,-47.57 405.22,-34.62 433.18,-24.87"/>
<polygon fill="#63b8ff" stroke="#63b8ff" points="434.07,-28.27 442.36,-21.67 431.76,-21.66 434.07,-28.27"/>
</a>
</g>
</g>
<!-- Node9 -->
<g id="Node000009" class="node">
<title>Node9</title>
<g id="a_Node000009"><a xlink:title=" ">
<polygon fill="#e0e0e0" stroke="#999999" points="576.38,-20.75 521.38,-20.75 521.38,0 576.38,0 576.38,-20.75"/>
<text xml:space="preserve" text-anchor="middle" x="548.88" y="-7.25" font-family="Helvetica,sans-Serif" font-size="10.00">unistd.h</text>
</a>
</g>
</g>
<!-- Node1&#45;&gt;Node9 -->
<g id="edge8_Node000001_Node000009" class="edge">
<title>Node1&#45;&gt;Node9</title>
<g id="a_edge8_Node000001_Node000009"><a xlink:title=" ">
<path fill="none" stroke="#63b8ff" d="M358.76,-56.31C396.3,-47.84 452.08,-35.11 509.82,-21.21"/>
<polygon fill="#63b8ff" stroke="#63b8ff" points="510.64,-24.61 519.54,-18.86 509,-17.81 510.64,-24.61"/>
</a>
</g>
</g>
<!-- Node10 -->
<g id="Node000010" class="node">
<title>Node10</title>
<g id="a_Node000010"><a xlink:title=" ">
<polygon fill="#e0e0e0" stroke="#999999" points="640.88,-20.75 594.88,-20.75 594.88,0 640.88,0 640.88,-20.75"/>
<text xml:space="preserve" text-anchor="middle" x="617.88" y="-7.25" font-family="Helvetica,sans-Serif" font-size="10.00">wait.h</text>
</a>
</g>
</g>
<!-- Node1&#45;&gt;Node10 -->
<g id="edge9_Node000001_Node000010" class="edge">
<title>Node1&#45;&gt;Node10</title>
<g id="a_edge9_Node000001_Node000010"><a xlink:title=" ">
<path fill="none" stroke="#63b8ff" d="M366.68,-59.32C419.13,-52.02 502.75,-39.24 583.66,-21.04"/>
<polygon fill="#63b8ff" stroke="#63b8ff" points="584.09,-24.53 593.07,-18.9 582.54,-17.71 584.09,-24.53"/>
</a>
</g>
</g>
</g>
</svg>
