<?xml version="1.0" encoding="UTF-8" standalone="no"?>
<!DOCTYPE svg PUBLIC "-//W3C//DTD SVG 1.1//EN"
 "http://www.w3.org/Graphics/SVG/1.1/DTD/svg11.dtd">
<!-- Generated by graphviz version 14.1.2 (0)
 -->
<!-- Title: pick_engine.c Pages: 1 -->
<svg width="598pt" height="86pt"
 viewBox="0.00 0.00 598.00 86.00" xmlns="http://www.w3.org/2000/svg" xmlns:xlink="http://www.w3.org/1999/xlink">
<g id="graph0" class="graph" transform="scale(1 1) rotate(0) translate(4 81.5)">
<title>pick_engine.c</title>
<!-- Node1 -->
<g id="Node000001" class="node">
<title>Node1</title>
<g id="a_Node000001"><a xlink:title="pick from a list of choices">
<polygon fill="#999999" stroke="#666666" points="325.25,-77.5 242.5,-77.5 242.5,-56.75 325.25,-56.75 325.25,-77.5"/>
<text xml:space="preserve" text-anchor="middle" x="283.88" y="-64" font-family="Helvetica,sans-Serif" font-size="10.00">pick_engine.c</text>
</a>
</g>
</g>
<!-- Node2 -->
<g id="Node000002" class="node">
<title>Node2</title>
<g id="a_Node000002"><a xlink:title=" ">
<polygon fill="#e0e0e0" stroke="#999999" points="67.75,-20.75 0,-20.75 0,0 67.75,0 67.75,-20.75"/>
<text xml:space="preserve" text-anchor="middle" x="33.88" y="-7.25" font-family="Helvetica,sans-Serif" font-size="10.00">common.h</text>
</a>
</g>
</g>
<!-- Node1&#45;&gt;Node2 -->
<g id="edge1_Node000001_Node000002" class="edge">
<title>Node1&#45;&gt;Node2</title>
<g id="a_edge1_Node000001_Node000002"><a xlink:title=" ">
<path fill="none" stroke="#63b8ff" d="M242.03,-56.96C197.05,-47.11 125.79,-31.5 79.42,-21.35"/>
<polygon fill="#63b8ff" stroke="#63b8ff" points="80.2,-17.94 69.68,-19.22 78.7,-24.78 80.2,-17.94"/>
</a>
</g>
</g>
<!-- Node3 -->
<g id="Node000003" class="node">
<title>Node3</title>
<g id="a_Node000003"><a xlink:title=" ">
<polygon fill="#e0e0e0" stroke="#999999" points="132.25,-20.75 85.5,-20.75 85.5,0 132.25,0 132.25,-20.75"/>
<text xml:space="preserve" text-anchor="middle" x="108.88" y="-7.25" font-family="Helvetica,sans-Serif" font-size="10.00">fcntl.h</text>
</a>
</g>
</g>
<!-- Node1&#45;&gt;Node3 -->
<g id="edge2_Node000001_Node000003" class="edge">
<title>Node1&#45;&gt;Node3</title>
<g id="a_edge2_Node000001_Node000003"><a xlink:title=" ">
<path fill="none" stroke="#63b8ff" d="M252.59,-56.34C221.94,-46.75 175.34,-32.17 143.57,-22.23"/>
<polygon fill="#63b8ff" stroke="#63b8ff" points="144.63,-18.89 134.04,-19.25 142.54,-25.58 144.63,-18.89"/>
</a>
</g>
</g>
<!-- Node4 -->
<g id="Node000004" class="node">
<title>Node4</title>
<g id="a_Node000004"><a xlink:title=" ">
<polygon fill="#e0e0e0" stroke="#999999" points="201.88,-20.75 149.88,-20.75 149.88,0 201.88,0 201.88,-20.75"/>
<text xml:space="preserve" text-anchor="middle" x="175.88" y="-7.25" font-family="Helvetica,sans-Serif" font-size="10.00">stdlib.h</text>
</a>
</g>
</g>
<!-- Node1&#45;&gt;Node4 -->
<g id="edge3_Node000001_Node000004" class="edge">
<title>Node1&#45;&gt;Node4</title>
<g id="a_edge3_Node000001_Node000004"><a xlink:title=" ">
<path fill="none" stroke="#63b8ff" d="M264.57,-56.34C248.06,-47.97 224.04,-35.79 205.17,-26.22"/>
<polygon fill="#63b8ff" stroke="#63b8ff" points="206.87,-23.16 196.37,-21.76 203.7,-29.41 206.87,-23.16"/>
</a>
</g>
</g>
<!-- Node5 -->
<g id="Node000005" class="node">
<title>Node5</title>
<g id="a_Node000005"><a xlink:title=" ">
<polygon fill="#e0e0e0" stroke="#999999" points="272.25,-20.75 219.5,-20.75 219.5,0 272.25,0 272.25,-20.75"/>
<text xml:space="preserve" text-anchor="middle" x="245.88" y="-7.25" font-family="Helvetica,sans-Serif" font-size="10.00">string.h</text>
</a>
</g>
</g>
<!-- Node1&#45;&gt;Node5 -->
<g id="edge4_Node000001_Node000005" class="edge">
<title>Node1&#45;&gt;Node5</title>
<g id="a_edge4_Node000001_Node000005"><a xlink:title=" ">
<path fill="none" stroke="#63b8ff" d="M277.08,-56.34C272.11,-49.17 265.21,-39.23 259.15,-30.51"/>
<polygon fill="#63b8ff" stroke="#63b8ff" points="262.05,-28.54 253.47,-22.32 256.3,-32.53 262.05,-28.54"/>
</a>
</g>
</g>
<!-- Node6 -->
<g id="Node000006" class="node">
<title>Node6</title>
<g id="a_Node000006"><a xlink:title=" ">
<polygon fill="#e0e0e0" stroke="#999999" points="353.5,-20.75 290.25,-20.75 290.25,0 353.5,0 353.5,-20.75"/>
<text xml:space="preserve" text-anchor="middle" x="321.88" y="-7.25" font-family="Helvetica,sans-Serif" font-size="10.00">sys/stat.h</text>
</a>
</g>
</g>
<!-- Node1&#45;&gt;Node6 -->
<g id="edge5_Node000001_Node000006" class="edge">
<title>Node1&#45;&gt;Node6</title>
<g id="a_edge5_Node000001_Node000006"><a xlink:title=" ">
<path fill="none" stroke="#63b8ff" d="M290.67,-56.34C295.64,-49.17 302.54,-39.23 308.6,-30.51"/>
<polygon fill="#63b8ff" stroke="#63b8ff" points="311.45,-32.53 314.28,-22.32 305.7,-28.54 311.45,-32.53"/>
</a>
</g>
</g>
<!-- Node7 -->
<g id="Node000007" class="node">
<title>Node7</title>
<g id="a_Node000007"><a xlink:title=" ">
<polygon fill="#e0e0e0" stroke="#999999" points="436.62,-20.75 371.12,-20.75 371.12,0 436.62,0 436.62,-20.75"/>
<text xml:space="preserve" text-anchor="middle" x="403.88" y="-7.25" font-family="Helvetica,sans-Serif" font-size="10.00">sys/wait.h</text>
</a>
</g>
</g>
<!-- Node1&#45;&gt;Node7 -->
<g id="edge6_Node000001_Node000007" class="edge">
<title>Node1&#45;&gt;Node7</title>
<g id="a_edge6_Node000001_Node000007"><a xlink:title=" ">
<path fill="none" stroke="#63b8ff" d="M305.33,-56.34C323.93,-47.85 351.1,-35.45 372.2,-25.83"/>
<polygon fill="#63b8ff" stroke="#63b8ff" points="373.59,-29.04 381.23,-21.71 370.68,-22.67 373.59,-29.04"/>
</a>
</g>
</g>
<!-- Node8 -->
<g id="Node000008" class="node">
<title>Node8</title>
<g id="a_Node000008"><a xlink:title=" ">
<polygon fill="#e0e0e0" stroke="#999999" points="517.12,-20.75 454.62,-20.75 454.62,0 517.12,0 517.12,-20.75"/>
<text xml:space="preserve" text-anchor="middle" x="485.88" y="-7.25" font-family="Helvetica,sans-Serif" font-size="10.00">termios.h</text>
</a>
</g>
</g>
<!-- Node1&#45;&gt;Node8 -->
<g id="edge7_Node000001_Node000008" class="edge">
<title>Node1&#45;&gt;Node8</title>
<g id="a_edge7_Node000001_Node000008"><a xlink:title=" ">
<path fill="none" stroke="#63b8ff" d="M319.99,-56.34C354.65,-46.94 406.98,-32.76 443.57,-22.84"/>
<polygon fill="#63b8ff" stroke="#63b8ff" points="444.19,-26.3 452.93,-20.31 442.36,-19.54 444.19,-26.3"/>
</a>
</g>
</g>
<!-- Node9 -->
<g id="Node000009" class="node">
<title>Node9</title>
<g id="a_Node000009"><a xlink:title=" ">
<polygon fill="#e0e0e0" stroke="#999999" points="590.38,-20.75 535.38,-20.75 535.38,0 590.38,0 590.38,-20.75"/>
<text xml:space="preserve" text-anchor="middle" x="562.88" y="-7.25" font-family="Helvetica,sans-Serif" font-size="10.00">unistd.h</text>
</a>
</g>
</g>
<!-- Node1&#45;&gt;Node9 -->
<g id="edge8_Node000001_Node000009" class="edge">
<title>Node1&#45;&gt;Node9</title>
<g id="a_edge8_Node000001_Node000009"><a xlink:title=" ">
<path fill="none" stroke="#63b8ff" d="M325.57,-59.13C371.66,-51.21 448.34,-37.51 523.9,-21.07"/>
<polygon fill="#63b8ff" stroke="#63b8ff" points="524.54,-24.51 533.56,-18.95 523.04,-17.68 524.54,-24.51"/>
</a>
</g>
</g>
</g>
</svg>
