<?xml version="1.0" encoding="UTF-8" standalone="no"?>
<!DOCTYPE svg PUBLIC "-//W3C//DTD SVG 1.1//EN"
 "http://www.w3.org/Graphics/SVG/1.1/DTD/svg11.dtd">
<!-- Generated by graphviz version 14.1.2 (0)
 -->
<!-- Title: curskeys.c Pages: 1 -->
<svg width="278pt" height="86pt"
 viewBox="0.00 0.00 278.00 86.00" xmlns="http://www.w3.org/2000/svg" xmlns:xlink="http://www.w3.org/1999/xlink">
<g id="graph0" class="graph" transform="scale(1 1) rotate(0) translate(4 81.5)">
<title>curskeys.c</title>
<!-- Node1 -->
<g id="Node000001" class="node">
<title>Node1</title>
<g id="a_Node000001"><a xlink:title="Test Curses Keys.">
<polygon fill="#999999" stroke="#666666" points="175.38,-77.5 108.38,-77.5 108.38,-56.75 175.38,-56.75 175.38,-77.5"/>
<text xml:space="preserve" text-anchor="middle" x="141.88" y="-64" font-family="Helvetica,sans-Serif" font-size="10.00">curskeys.c</text>
</a>
</g>
</g>
<!-- Node2 -->
<g id="Node000002" class="node">
<title>Node2</title>
<g id="a_Node000002"><a xlink:title=" ">
<polygon fill="#e0e0e0" stroke="#999999" points="67.75,-20.75 0,-20.75 0,0 67.75,0 67.75,-20.75"/>
<text xml:space="preserve" text-anchor="middle" x="33.88" y="-7.25" font-family="Helvetica,sans-Serif" font-size="10.00">common.h</text>
</a>
</g>
</g>
<!-- Node1&#45;&gt;Node2 -->
<g id="edge1_Node000001_Node000002" class="edge">
<title>Node1&#45;&gt;Node2</title>
<g id="a_edge1_Node000001_Node000002"><a xlink:title=" ">
<path fill="none" stroke="#63b8ff" d="M122.57,-56.34C106.06,-47.97 82.04,-35.79 63.17,-26.22"/>
<polygon fill="#63b8ff" stroke="#63b8ff" points="64.87,-23.16 54.37,-21.76 61.7,-29.41 64.87,-23.16"/>
</a>
</g>
</g>
<!-- Node3 -->
<g id="Node000003" class="node">
<title>Node3</title>
<g id="a_Node000003"><a xlink:title=" ">
<polygon fill="#e0e0e0" stroke="#999999" points="197.5,-20.75 86.25,-20.75 86.25,0 197.5,0 197.5,-20.75"/>
<text xml:space="preserve" text-anchor="middle" x="141.88" y="-7.25" font-family="Helvetica,sans-Serif" font-size="10.00">ncursesw/ncurses.h</text>
</a>
</g>
</g>
<!-- Node1&#45;&gt;Node3 -->
<g id="edge2_Node000001_Node000003" class="edge">
<title>Node1&#45;&gt;Node3</title>
<g id="a_edge2_Node000001_Node000003"><a xlink:title=" ">
<path fill="none" stroke="#63b8ff" d="M141.88,-56.34C141.88,-49.72 141.88,-40.72 141.88,-32.52"/>
<polygon fill="#63b8ff" stroke="#63b8ff" points="145.38,-32.59 141.88,-22.59 138.38,-32.59 145.38,-32.59"/>
</a>
</g>
</g>
<!-- Node4 -->
<g id="Node000004" class="node">
<title>Node4</title>
<g id="a_Node000004"><a xlink:title=" ">
<polygon fill="#e0e0e0" stroke="#999999" points="270.38,-20.75 215.38,-20.75 215.38,0 270.38,0 270.38,-20.75"/>
<text xml:space="preserve" text-anchor="middle" x="242.88" y="-7.25" font-family="Helvetica,sans-Serif" font-size="10.00">unistd.h</text>
</a>
</g>
</g>
<!-- Node1&#45;&gt;Node4 -->
<g id="edge3_Node000001_Node000004" class="edge">
<title>Node1&#45;&gt;Node4</title>
<g id="a_edge3_Node000001_Node000004"><a xlink:title=" ">
<path fill="none" stroke="#63b8ff" d="M159.93,-56.34C175.3,-48.01 197.62,-35.91 215.23,-26.36"/>
<polygon fill="#63b8ff" stroke="#63b8ff" points="216.52,-29.64 223.64,-21.8 213.18,-23.49 216.52,-29.64"/>
</a>
</g>
</g>
</g>
</svg>
