<?xml version="1.0" encoding="UTF-8" standalone="no"?>
<!DOCTYPE svg PUBLIC "-//W3C//DTD SVG 1.1//EN"
 "http://www.w3.org/Graphics/SVG/1.1/DTD/svg11.dtd">
<!-- Generated by graphviz version 14.1.2 (0)
 -->
<!-- Title: shell Pages: 1 -->
<!--zoomable 755 -->

<svg id="main" version="1.1" xmlns="http://www.w3.org/2000/svg" xmlns:xlink="http://www.w3.org/1999/xlink" xml:space="preserve" onload="init(evt)">

<style type="text/css"><![CDATA[
.node, .edge {opacity: 0.7;}
.node.selected, .edge.selected {opacity: 1;}
.edge:hover path { stroke: red; }
.edge:hover polygon { stroke: red; fill: red; }
]]></style>

<defs>
  <circle id="rim" cx="0" cy="0" r="7"/>
  <circle id="rim2" cx="0" cy="0" r="3.5"/>
  <g id="zoomPlus">
    <use xlink:href="#rim" fill="#404040"><set attributeName="fill" to="#808080" begin="zoomplus.mouseover" end="zoomplus.mouseout"/></use>
    <path d="M-4,0h8M0,-4v8" fill="none" stroke="white" stroke-width="1.5" pointer-events="none"/>
  </g>
  <g id="zoomMin">
    <use xlink:href="#rim" fill="#404040"><set attributeName="fill" to="#808080" begin="zoomminus.mouseover" end="zoomminus.mouseout"/></use>
    <path d="M-4,0h8" fill="none" stroke="white" stroke-width="1.5" pointer-events="none"/>
  </g>
  <g id="arrowUp" transform="translate(30 24)">
    <use xlink:href="#rim"/>
    <path pointer-events="none" fill="none" stroke="white" stroke-width="1.5" d="M0,-3.0v7 M-2.5,-0.5L0,-3.0L2.5,-0.5"/>
  </g>
  <g id="arrowRight" transform="rotate(90) translate(36 -43)">
    <use xlink:href="#rim"/>
    <path pointer-events="none" fill="none" stroke="white" stroke-width="1.5" d="M0,-3.0v7 M-2.5,-0.5L0,-3.0L2.5,-0.5"/>
  </g>
  <g id="arrowDown" transform="rotate(180) translate(-30 -48)">
    <use xlink:href="#rim"/>
    <path pointer-events="none" fill="none" stroke="white" stroke-width="1.5" d="M0,-3.0v7 M-2.5,-0.5L0,-3.0L2.5,-0.5"/>
  </g>
  <g id="arrowLeft" transform="rotate(270) translate(-36 17)">
    <use xlink:href="#rim"/>
    <path pointer-events="none" fill="none" stroke="white" stroke-width="1.5" d="M0,-3.0v7 M-2.5,-0.5L0,-3.0L2.5,-0.5"/>
  </g>
  <g id="resetDef">
    <use xlink:href="#rim2" fill="#404040"><set attributeName="fill" to="#808080" begin="reset.mouseover" end="reset.mouseout"/></use>
  </g>
</defs>
<script type="application/ecmascript">
var viewWidth = 1058;
var viewHeight = 755;
var sectionId = 'dynsection-10';
</script>
<script type="application/ecmascript" xlink:href="../../svg.min.js"/>
<svg id="graph" class="graph">
<g id="viewport">
<title>shell</title>
<!-- Node1 -->
<g id="Node000001" class="node">
<title>Node1</title>
<g id="a_Node000001"><a xlink:title="Execute a shell command.">
<polygon fill="#999999" stroke="#666666" points="39.25,-288.75 0,-288.75 0,-268 39.25,-268 39.25,-288.75"/>
<text xml:space="preserve" text-anchor="middle" x="19.62" y="-275.25" font-family="Helvetica,sans-Serif" font-size="10.00">shell</text>
</a>
</g>
</g>
<!-- Node2 -->
<g id="Node000002" class="node">
<title>Node2</title>
<g id="a_Node000002"><a xlink:href="../../d6/de1/a00233.html#a386fad82c5208c7d3b2a5060882974f3" target="_top" xlink:title="Fork and exec a command.">
<polygon fill="white" stroke="#666666" points="139.25,-288.75 75.25,-288.75 75.25,-268 139.25,-268 139.25,-288.75"/>
<text xml:space="preserve" text-anchor="middle" x="107.25" y="-275.25" font-family="Helvetica,sans-Serif" font-size="10.00">fork_exec</text>
</a>
</g>
</g>
<!-- Node1&#45;&gt;Node2 -->
<g id="edge1_Node000001_Node000002" class="edge">
<title>Node1&#45;&gt;Node2</title>
<g id="a_edge1_Node000001_Node000002"><a xlink:title=" ">
<path fill="none" stroke="#63b8ff" d="M39.63,-278.38C46.74,-278.38 55.14,-278.38 63.53,-278.38"/>
<polygon fill="#63b8ff" stroke="#63b8ff" points="63.34,-281.88 73.34,-278.38 63.34,-274.88 63.34,-281.88"/>
</a>
</g>
</g>
<!-- Node3 -->
<g id="Node000003" class="node">
<title>Node3</title>
<g id="a_Node000003"><a xlink:href="../../df/d95/a00299.html#a4d0a6767e791cf93a268ebe9ba02aa24" target="_top" xlink:title="capture_curses_tioctl() &#45; capture curses terminal settings">
<polygon fill="white" stroke="#666666" points="294.75,-746.75 175.25,-746.75 175.25,-726 294.75,-726 294.75,-746.75"/>
<text xml:space="preserve" text-anchor="middle" x="235" y="-733.25" font-family="Helvetica,sans-Serif" font-size="10.00">capture_curses_tioctl</text>
</a>
</g>
</g>
<!-- Node2&#45;&gt;Node3 -->
<g id="edge2_Node000002_Node000003" class="edge">
<title>Node2&#45;&gt;Node3</title>
<g id="a_edge2_Node000002_Node000003"><a xlink:title=" ">
<path fill="none" stroke="#63b8ff" d="M108.51,-289.16C110.18,-349.36 121.06,-643.7 175.25,-712.38 177.33,-715.01 179.75,-717.36 182.39,-719.45"/>
<polygon fill="#63b8ff" stroke="#63b8ff" points="180.5,-722.4 190.82,-724.81 184.26,-716.49 180.5,-722.4"/>
</a>
</g>
</g>
<!-- Node4 -->
<g id="Node000004" class="node">
<title>Node4</title>
<g id="a_Node000004"><a xlink:href="../../d6/d82/a00293.html#a61b4f28456257f68ed042bed7f187efd" target="_top" xlink:title="Display a simple error message window or print to stderr.">
<polygon fill="white" stroke="#666666" points="257.62,-403.75 212.38,-403.75 212.38,-383 257.62,-383 257.62,-403.75"/>
<text xml:space="preserve" text-anchor="middle" x="235" y="-390.25" font-family="Helvetica,sans-Serif" font-size="10.00">Perror</text>
</a>
</g>
</g>
<!-- Node2&#45;&gt;Node4 -->
<g id="edge3_Node000002_Node000004" class="edge">
<title>Node2&#45;&gt;Node4</title>
<g id="a_edge3_Node000002_Node000004"><a xlink:title=" ">
<path fill="none" stroke="#63b8ff" d="M119.85,-288.99C141.38,-308.67 187.7,-351.03 214.24,-375.31"/>
<polygon fill="#63b8ff" stroke="#63b8ff" points="211.56,-377.6 221.31,-381.77 216.29,-372.43 211.56,-377.6"/>
</a>
</g>
</g>
<!-- Node7 -->
<g id="Node000007" class="node">
<title>Node7</title>
<g id="a_Node000007"><a xlink:href="../../df/d95/a00299.html#ac5e3adb304b78910fc77761ef6a743f0" target="_top" xlink:title="restore_shell_tioctl() &#45; restore shell terminal settings">
<polygon fill="white" stroke="#666666" points="1050,-287.75 941,-287.75 941,-267 1050,-267 1050,-287.75"/>
<text xml:space="preserve" text-anchor="middle" x="995.5" y="-274.25" font-family="Helvetica,sans-Serif" font-size="10.00">restore_shell_tioctl</text>
</a>
</g>
</g>
<!-- Node2&#45;&gt;Node7 -->
<g id="edge37_Node000002_Node000007" class="edge">
<title>Node2&#45;&gt;Node7</title>
<g id="a_edge37_Node000002_Node000007"><a xlink:title=" ">
<path fill="none" stroke="#63b8ff" d="M109.45,-289.18C115,-337.6 139.45,-534.33 175.25,-583.38 235.28,-665.61 271.56,-698.38 373.38,-698.38 373.38,-698.38 373.38,-698.38 746.62,-698.38 933.58,-698.38 982.36,-386.26 992.3,-299.51"/>
<polygon fill="#63b8ff" stroke="#63b8ff" points="995.77,-300.03 993.36,-289.71 988.81,-299.28 995.77,-300.03"/>
</a>
</g>
</g>
<!-- Node8 -->
<g id="Node000008" class="node">
<title>Node8</title>
<g id="a_Node000008"><a xlink:href="../../d3/d1a/a00251.html#a06c1eb6cf3649dc187115565409f91af" target="_top" xlink:title="Set signal handlers to default behavior.">
<polygon fill="white" stroke="#666666" points="1036.12,-211.75 954.88,-211.75 954.88,-191 1036.12,-191 1036.12,-211.75"/>
<text xml:space="preserve" text-anchor="middle" x="995.5" y="-198.25" font-family="Helvetica,sans-Serif" font-size="10.00">sig_dfl_mode</text>
</a>
</g>
</g>
<!-- Node2&#45;&gt;Node8 -->
<g id="edge39_Node000002_Node000008" class="edge">
<title>Node2&#45;&gt;Node8</title>
<g id="a_edge39_Node000002_Node000008"><a xlink:title=" ">
<path fill="none" stroke="#63b8ff" d="M110.46,-267.86C116.31,-242.61 134.65,-178.13 175.25,-144.38 245.7,-85.79 281.75,-87.38 373.38,-87.38 373.38,-87.38 373.38,-87.38 746.62,-87.38 837.62,-87.38 931.62,-151.57 972.89,-183.61"/>
<polygon fill="#63b8ff" stroke="#63b8ff" points="970.57,-186.24 980.58,-189.71 974.92,-180.75 970.57,-186.24"/>
</a>
</g>
</g>
<!-- Node14 -->
<g id="Node000014" class="node">
<title>Node14</title>
<g id="a_Node000014"><a xlink:href="../../d6/d7f/a00287.html#a63eb94756fb011a456a3dec900709cd8" target="_top" xlink:title="ssnprintf was designed to be a safer alternative to snprintf.">
<polygon fill="white" stroke="#666666" points="775,-613.75 716.25,-613.75 716.25,-593 775,-593 775,-613.75"/>
<text xml:space="preserve" text-anchor="middle" x="745.62" y="-600.25" font-family="Helvetica,sans-Serif" font-size="10.00">ssnprintf</text>
</a>
</g>
</g>
<!-- Node2&#45;&gt;Node14 -->
<g id="edge43_Node000002_Node000014" class="edge">
<title>Node2&#45;&gt;Node14</title>
<g id="a_edge43_Node000002_Node000014"><a xlink:title=" ">
<path fill="none" stroke="#63b8ff" d="M110.08,-288.99C121.37,-350.69 187.3,-660.38 373.38,-660.38 373.38,-660.38 373.38,-660.38 501.25,-660.38 575.37,-660.38 658.93,-635 706.33,-618.11"/>
<polygon fill="#63b8ff" stroke="#63b8ff" points="707.39,-621.45 715.59,-614.75 705,-614.87 707.39,-621.45"/>
</a>
</g>
</g>
<!-- Node22 -->
<g id="Node000022" class="node">
<title>Node22</title>
<g id="a_Node000022"><a xlink:href="../../df/d95/a00299.html#a1c8e0f0a02e08c783231a20093fb8410" target="_top" xlink:title="restore_curses_tioctl() &#45; restore curses terminal settings">
<polygon fill="white" stroke="#666666" points="293.62,-59.75 176.38,-59.75 176.38,-39 293.62,-39 293.62,-59.75"/>
<text xml:space="preserve" text-anchor="middle" x="235" y="-46.25" font-family="Helvetica,sans-Serif" font-size="10.00">restore_curses_tioctl</text>
</a>
</g>
</g>
<!-- Node2&#45;&gt;Node22 -->
<g id="edge36_Node000002_Node000022" class="edge">
<title>Node2&#45;&gt;Node22</title>
<g id="a_edge36_Node000002_Node000022"><a xlink:title=" ">
<path fill="none" stroke="#63b8ff" d="M108.69,-267.91C110.62,-234.91 120.92,-131.76 175.25,-73.38 177.92,-70.51 180.98,-67.97 184.28,-65.73"/>
<polygon fill="#63b8ff" stroke="#63b8ff" points="185.77,-68.91 192.73,-60.92 182.31,-62.83 185.77,-68.91"/>
</a>
</g>
</g>
<!-- Node23 -->
<g id="Node000023" class="node">
<title>Node23</title>
<g id="a_Node000023"><a xlink:href="../../d6/d82/a00293.html#a40858af5b0d68549fb483f77c97eb82c" target="_top" xlink:title="Restore all windows after a screen resize.">
<polygon fill="white" stroke="#666666" points="274.12,-20.75 195.88,-20.75 195.88,0 274.12,0 274.12,-20.75"/>
<text xml:space="preserve" text-anchor="middle" x="235" y="-7.25" font-family="Helvetica,sans-Serif" font-size="10.00">restore_wins</text>
</a>
</g>
</g>
<!-- Node2&#45;&gt;Node23 -->
<g id="edge38_Node000002_Node000023" class="edge">
<title>Node2&#45;&gt;Node23</title>
<g id="a_edge38_Node000002_Node000023"><a xlink:title=" ">
<path fill="none" stroke="#63b8ff" d="M107.83,-267.51C106.95,-229.48 109.2,-100.81 175.25,-30.38 178.15,-27.29 181.54,-24.67 185.21,-22.46"/>
<polygon fill="#63b8ff" stroke="#63b8ff" points="186.58,-25.69 194.05,-18.17 183.52,-19.39 186.58,-25.69"/>
</a>
</g>
</g>
<!-- Node24 -->
<g id="Node000024" class="node">
<title>Node24</title>
<g id="a_Node000024"><a xlink:href="../../d3/d1a/a00251.html#aca2de03f6d52d4b11237990e4e605177" target="_top" xlink:title="Set up signal handlers for interrupt signals.">
<polygon fill="white" stroke="#666666" points="280.12,-173.75 189.88,-173.75 189.88,-153 280.12,-153 280.12,-173.75"/>
<text xml:space="preserve" text-anchor="middle" x="235" y="-160.25" font-family="Helvetica,sans-Serif" font-size="10.00">sig_prog_mode</text>
</a>
</g>
</g>
<!-- Node2&#45;&gt;Node24 -->
<g id="edge40_Node000002_Node000024" class="edge">
<title>Node2&#45;&gt;Node24</title>
<g id="a_edge40_Node000002_Node000024"><a xlink:title=" ">
<path fill="none" stroke="#63b8ff" d="M119.85,-267.76C141.38,-248.08 187.7,-205.72 214.24,-181.44"/>
<polygon fill="#63b8ff" stroke="#63b8ff" points="216.29,-184.32 221.31,-174.98 211.56,-179.15 216.29,-184.32"/>
</a>
</g>
</g>
<!-- Node5 -->
<g id="Node000005" class="node">
<title>Node5</title>
<g id="a_Node000005"><a xlink:href="../../d6/d82/a00293.html#a8f6c45ca4a7f6a41c4c88314e697565a" target="_top" xlink:title="Abnormal program termination.">
<polygon fill="white" stroke="#666666" points="768.62,-249.75 722.62,-249.75 722.62,-229 768.62,-229 768.62,-249.75"/>
<text xml:space="preserve" text-anchor="middle" x="745.62" y="-236.25" font-family="Helvetica,sans-Serif" font-size="10.00">abend</text>
</a>
</g>
</g>
<!-- Node4&#45;&gt;Node5 -->
<g id="edge4_Node000004_Node000005" class="edge">
<title>Node4&#45;&gt;Node5</title>
<g id="a_edge4_Node000004_Node000005"><a xlink:title=" ">
<path fill="none" stroke="#63b8ff" d="M240.73,-382.56C252.15,-357.93 283.75,-297.77 330.75,-271.38 456.04,-201 637.25,-220.84 711.25,-233.06"/>
<polygon fill="#63b8ff" stroke="#63b8ff" points="710.64,-236.5 721.09,-234.75 711.83,-229.6 710.64,-236.5"/>
</a>
</g>
</g>
<!-- Node9 -->
<g id="Node000009" class="node">
<title>Node9</title>
<g id="a_Node000009"><a xlink:href="../../d6/d82/a00293.html#a645871e46277e31736bc36d0f3dce4bd" target="_top" xlink:title="construct the chyron string from the chyron structure">
<polygon fill="white" stroke="#666666" points="675.75,-479.75 582.5,-479.75 582.5,-459 675.75,-459 675.75,-479.75"/>
<text xml:space="preserve" text-anchor="middle" x="629.12" y="-466.25" font-family="Helvetica,sans-Serif" font-size="10.00">compile_chyron</text>
</a>
</g>
</g>
<!-- Node4&#45;&gt;Node9 -->
<g id="edge10_Node000004_Node000009" class="edge">
<title>Node4&#45;&gt;Node9</title>
<g id="a_edge10_Node000004_Node000009"><a xlink:title=" ">
<path fill="none" stroke="#63b8ff" d="M258.09,-403.76C276.97,-412.22 305.09,-423.79 330.75,-430.38 412.72,-451.42 510.47,-461.46 570.92,-465.99"/>
<polygon fill="#63b8ff" stroke="#63b8ff" points="570.4,-469.46 580.62,-466.69 570.9,-462.48 570.4,-469.46"/>
</a>
</g>
</g>
<!-- Node11 -->
<g id="Node000011" class="node">
<title>Node11</title>
<g id="a_Node000011"><a xlink:href="../../d6/d82/a00293.html#a3f3feb40fd703913c5c136331f627c91" target="_top" xlink:title="Destroy Chyron structure.">
<polygon fill="white" stroke="#666666" points="674.62,-326.75 583.62,-326.75 583.62,-306 674.62,-306 674.62,-326.75"/>
<text xml:space="preserve" text-anchor="middle" x="629.12" y="-313.25" font-family="Helvetica,sans-Serif" font-size="10.00">destroy_chyron</text>
</a>
</g>
</g>
<!-- Node4&#45;&gt;Node11 -->
<g id="edge12_Node000004_Node000011" class="edge">
<title>Node4&#45;&gt;Node11</title>
<g id="a_edge12_Node000004_Node000011"><a xlink:title=" ">
<path fill="none" stroke="#63b8ff" d="M258.03,-386.32C297.09,-374.09 381.23,-348.94 454,-335.38 493.21,-328.06 537.96,-323.26 572.27,-320.31"/>
<polygon fill="#63b8ff" stroke="#63b8ff" points="572.3,-323.82 581.97,-319.5 571.72,-316.84 572.3,-323.82"/>
</a>
</g>
</g>
<!-- Node12 -->
<g id="Node000012" class="node">
<title>Node12</title>
<g id="a_Node000012"><a xlink:href="../../d6/d82/a00293.html#ad37d5808ff30ae6894780425d865abae" target="_top" xlink:title="Create and initialize Chyron structure.">
<polygon fill="white" stroke="#666666" points="666.38,-287.75 591.88,-287.75 591.88,-267 666.38,-267 666.38,-287.75"/>
<text xml:space="preserve" text-anchor="middle" x="629.12" y="-274.25" font-family="Helvetica,sans-Serif" font-size="10.00">new_chyron</text>
</a>
</g>
</g>
<!-- Node4&#45;&gt;Node12 -->
<g id="edge13_Node000004_Node000012" class="edge">
<title>Node4&#45;&gt;Node12</title>
<g id="a_edge13_Node000004_Node000012"><a xlink:title=" ">
<path fill="none" stroke="#63b8ff" d="M251.34,-382.61C269.49,-370.37 301,-350.63 330.75,-339.38 415.37,-307.35 520.13,-290.4 580.03,-282.71"/>
<polygon fill="#63b8ff" stroke="#63b8ff" points="580.4,-286.19 589.89,-281.48 579.53,-279.24 580.4,-286.19"/>
</a>
</g>
</g>
<!-- Node13 -->
<g id="Node000013" class="node">
<title>Node13</title>
<g id="a_Node000013"><a xlink:href="../../d6/d82/a00293.html#a208ce92c197fdd6d2b007987e534aa3b" target="_top" xlink:title="Set chyron key.">
<polygon fill="white" stroke="#666666" points="675,-594.75 583.25,-594.75 583.25,-574 675,-574 675,-594.75"/>
<text xml:space="preserve" text-anchor="middle" x="629.12" y="-581.25" font-family="Helvetica,sans-Serif" font-size="10.00">set_chyron_key</text>
</a>
</g>
</g>
<!-- Node4&#45;&gt;Node13 -->
<g id="edge15_Node000004_Node000013" class="edge">
<title>Node4&#45;&gt;Node13</title>
<g id="a_edge15_Node000004_Node000013"><a xlink:title=" ">
<path fill="none" stroke="#63b8ff" d="M244.52,-404.18C259.87,-422.97 294.01,-461.83 330.75,-484.38 407.56,-531.51 509.3,-559.49 571.66,-573.39"/>
<polygon fill="#63b8ff" stroke="#63b8ff" points="570.84,-576.79 581.35,-575.5 572.33,-569.95 570.84,-576.79"/>
</a>
</g>
</g>
<!-- Node4&#45;&gt;Node14 -->
<g id="edge17_Node000004_Node000014" class="edge">
<title>Node4&#45;&gt;Node14</title>
<g id="a_edge17_Node000004_Node000014"><a xlink:title=" ">
<path fill="none" stroke="#63b8ff" d="M241.41,-403.95C254.01,-427.59 287.52,-485.25 330.75,-518.38 424.49,-590.2 465.45,-587.72 582.5,-603.38 623.75,-608.89 671.42,-608.04 704.35,-606.33"/>
<polygon fill="#63b8ff" stroke="#63b8ff" points="704.48,-609.83 714.26,-605.76 704.08,-602.84 704.48,-609.83"/>
</a>
</g>
</g>
<!-- Node15 -->
<g id="Node000015" class="node">
<title>Node15</title>
<g id="a_Node000015"><a xlink:href="../../d6/d7f/a00287.html#a0de2e40df9bd7efc8fd9afb8ad2257e6" target="_top" xlink:title="safer alternative to strncpy">
<polygon fill="white" stroke="#666666" points="779.5,-401.75 711.75,-401.75 711.75,-381 779.5,-381 779.5,-401.75"/>
<text xml:space="preserve" text-anchor="middle" x="745.62" y="-388.25" font-family="Helvetica,sans-Serif" font-size="10.00">strnz__cpy</text>
</a>
</g>
</g>
<!-- Node4&#45;&gt;Node15 -->
<g id="edge18_Node000004_Node000015" class="edge">
<title>Node4&#45;&gt;Node15</title>
<g id="a_edge18_Node000004_Node000015"><a xlink:title=" ">
<path fill="none" stroke="#63b8ff" d="M244.69,-382.68C260.04,-364.55 293.84,-327.97 330.75,-309.38 432.71,-258.02 468.86,-269.33 582.5,-258.38 623.75,-254.4 640.34,-236.84 675.75,-258.38 715.76,-282.71 733.56,-338.63 740.6,-369.65"/>
<polygon fill="#63b8ff" stroke="#63b8ff" points="737.1,-369.99 742.56,-379.07 743.95,-368.57 737.1,-369.99"/>
</a>
</g>
</g>
<!-- Node16 -->
<g id="Node000016" class="node">
<title>Node16</title>
<g id="a_Node000016"><a xlink:href="../../d6/d82/a00293.html#a9dd598e1d49c8764af1eec42c682623e" target="_top" xlink:title="Delete the current window and its associated box window.">
<polygon fill="white" stroke="#666666" points="655.88,-555.75 602.38,-555.75 602.38,-535 655.88,-535 655.88,-555.75"/>
<text xml:space="preserve" text-anchor="middle" x="629.12" y="-542.25" font-family="Helvetica,sans-Serif" font-size="10.00">win_del</text>
</a>
</g>
</g>
<!-- Node4&#45;&gt;Node16 -->
<g id="edge19_Node000004_Node000016" class="edge">
<title>Node4&#45;&gt;Node16</title>
<g id="a_edge19_Node000004_Node000016"><a xlink:title=" ">
<path fill="none" stroke="#63b8ff" d="M250.4,-404.21C268.4,-417.34 300.52,-439.43 330.75,-453.38 420.5,-494.78 533.8,-523.98 591.18,-537.28"/>
<polygon fill="#63b8ff" stroke="#63b8ff" points="590.22,-540.65 600.75,-539.47 591.78,-533.83 590.22,-540.65"/>
</a>
</g>
</g>
<!-- Node17 -->
<g id="Node000017" class="node">
<title>Node17</title>
<g id="a_Node000017"><a xlink:href="../../d6/d82/a00293.html#a435c7bff7ffedb8f51c6de9259e36f6c" target="_top" xlink:title="Create a new window with optional box and title.">
<polygon fill="white" stroke="#666666" points="658.5,-440.75 599.75,-440.75 599.75,-420 658.5,-420 658.5,-440.75"/>
<text xml:space="preserve" text-anchor="middle" x="629.12" y="-427.25" font-family="Helvetica,sans-Serif" font-size="10.00">win_new</text>
</a>
</g>
</g>
<!-- Node4&#45;&gt;Node17 -->
<g id="edge20_Node000004_Node000017" class="edge">
<title>Node4&#45;&gt;Node17</title>
<g id="a_edge20_Node000004_Node000017"><a xlink:title=" ">
<path fill="none" stroke="#63b8ff" d="M258.06,-398.69C277.18,-403.09 305.63,-409.11 330.75,-412.38 422.21,-424.26 530.54,-428.32 587.86,-429.69"/>
<polygon fill="#63b8ff" stroke="#63b8ff" points="587.71,-433.19 597.78,-429.91 587.86,-426.19 587.71,-433.19"/>
</a>
</g>
</g>
<!-- Node19 -->
<g id="Node000019" class="node">
<title>Node19</title>
<g id="a_Node000019"><a xlink:href="../../d6/d82/a00293.html#acf4c709bccc4c965a5d61db978db31a3" target="_top" xlink:title="Wrapper for wgetch that handles signals and mouse events.">
<polygon fill="white" stroke="#666666" points="403,-403.75 345.75,-403.75 345.75,-383 403,-383 403,-403.75"/>
<text xml:space="preserve" text-anchor="middle" x="374.38" y="-390.25" font-family="Helvetica,sans-Serif" font-size="10.00">xwgetch</text>
</a>
</g>
</g>
<!-- Node4&#45;&gt;Node19 -->
<g id="edge23_Node000004_Node000019" class="edge">
<title>Node4&#45;&gt;Node19</title>
<g id="a_edge23_Node000004_Node000019"><a xlink:title=" ">
<path fill="none" stroke="#63b8ff" d="M258.07,-393.38C278.63,-393.38 309.74,-393.38 334.47,-393.38"/>
<polygon fill="#63b8ff" stroke="#63b8ff" points="334.15,-396.88 344.15,-393.38 334.15,-389.88 334.15,-396.88"/>
</a>
</g>
</g>
<!-- Node6 -->
<g id="Node000006" class="node">
<title>Node6</title>
<g id="a_Node000006"><a xlink:href="../../d6/d82/a00293.html#afc0985a403e3eac0b2cd8f0fab500256" target="_top" xlink:title="Gracefully shut down NCurses and restore terminal settings.">
<polygon fill="white" stroke="#666666" points="905,-249.75 815.5,-249.75 815.5,-229 905,-229 905,-249.75"/>
<text xml:space="preserve" text-anchor="middle" x="860.25" y="-236.25" font-family="Helvetica,sans-Serif" font-size="10.00">destroy_curses</text>
</a>
</g>
</g>
<!-- Node5&#45;&gt;Node6 -->
<g id="edge5_Node000005_Node000006" class="edge">
<title>Node5&#45;&gt;Node6</title>
<g id="a_edge5_Node000005_Node000006"><a xlink:title=" ">
<path fill="none" stroke="#63b8ff" d="M768.88,-239.38C778.99,-239.38 791.44,-239.38 803.84,-239.38"/>
<polygon fill="#63b8ff" stroke="#63b8ff" points="803.63,-242.88 813.63,-239.38 803.63,-235.88 803.63,-242.88"/>
</a>
</g>
</g>
<!-- Node5&#45;&gt;Node7 -->
<g id="edge8_Node000005_Node000007" class="edge">
<title>Node5&#45;&gt;Node7</title>
<g id="a_edge8_Node000005_Node000007"><a xlink:title=" ">
<path fill="none" stroke="#63b8ff" d="M769.05,-246.56C782.41,-250.59 799.78,-255.39 815.5,-258.38 852.88,-265.47 895.19,-270.11 929.28,-273.03"/>
<polygon fill="#63b8ff" stroke="#63b8ff" points="928.75,-276.5 939,-273.83 929.32,-269.52 928.75,-276.5"/>
</a>
</g>
</g>
<!-- Node5&#45;&gt;Node8 -->
<g id="edge9_Node000005_Node000008" class="edge">
<title>Node5&#45;&gt;Node8</title>
<g id="a_edge9_Node000005_Node000008"><a xlink:title=" ">
<path fill="none" stroke="#63b8ff" d="M769.05,-232.19C782.41,-228.16 799.78,-223.36 815.5,-220.38 858.17,-212.28 907.25,-207.38 943.22,-204.58"/>
<polygon fill="#63b8ff" stroke="#63b8ff" points="943.19,-208.09 952.9,-203.86 942.67,-201.11 943.19,-208.09"/>
</a>
</g>
</g>
<!-- Node6&#45;&gt;Node7 -->
<g id="edge6_Node000006_Node000007" class="edge">
<title>Node6&#45;&gt;Node7</title>
<g id="a_edge6_Node000006_Node000007"><a xlink:title=" ">
<path fill="none" stroke="#63b8ff" d="M899.08,-250.16C913.57,-254.29 930.3,-259.07 945.68,-263.45"/>
<polygon fill="#63b8ff" stroke="#63b8ff" points="944.55,-266.77 955.12,-266.15 946.47,-260.04 944.55,-266.77"/>
</a>
</g>
</g>
<!-- Node6&#45;&gt;Node8 -->
<g id="edge7_Node000006_Node000008" class="edge">
<title>Node6&#45;&gt;Node8</title>
<g id="a_edge7_Node000006_Node000008"><a xlink:title=" ">
<path fill="none" stroke="#63b8ff" d="M899.08,-228.59C913.57,-224.46 930.3,-219.68 945.68,-215.3"/>
<polygon fill="#63b8ff" stroke="#63b8ff" points="946.47,-218.71 955.12,-212.6 944.55,-211.98 946.47,-218.71"/>
</a>
</g>
</g>
<!-- Node10 -->
<g id="Node000010" class="node">
<title>Node10</title>
<g id="a_Node000010"><a xlink:href="../../d6/d7f/a00287.html#aa0145c044cfdde3a1c83323410a59f25" target="_top" xlink:title="safer alternative to strncat">
<polygon fill="white" stroke="#666666" points="778.38,-479.75 712.88,-479.75 712.88,-459 778.38,-459 778.38,-479.75"/>
<text xml:space="preserve" text-anchor="middle" x="745.62" y="-466.25" font-family="Helvetica,sans-Serif" font-size="10.00">strnz__cat</text>
</a>
</g>
</g>
<!-- Node9&#45;&gt;Node10 -->
<g id="edge11_Node000009_Node000010" class="edge">
<title>Node9&#45;&gt;Node10</title>
<g id="a_edge11_Node000009_Node000010"><a xlink:title=" ">
<path fill="none" stroke="#63b8ff" d="M676.04,-469.38C684.33,-469.38 692.94,-469.38 701.16,-469.38"/>
<polygon fill="#63b8ff" stroke="#63b8ff" points="700.92,-472.88 710.92,-469.38 700.92,-465.88 700.92,-472.88"/>
</a>
</g>
</g>
<!-- Node12&#45;&gt;Node5 -->
<g id="edge14_Node000012_Node000005" class="edge">
<title>Node12&#45;&gt;Node5</title>
<g id="a_edge14_Node000012_Node000005"><a xlink:title=" ">
<path fill="none" stroke="#63b8ff" d="M662.63,-266.59C677.95,-261.5 696.2,-255.45 711.59,-250.34"/>
<polygon fill="#63b8ff" stroke="#63b8ff" points="712.38,-253.76 720.77,-247.29 710.18,-247.12 712.38,-253.76"/>
</a>
</g>
</g>
<!-- Node13&#45;&gt;Node14 -->
<g id="edge16_Node000013_Node000014" class="edge">
<title>Node13&#45;&gt;Node14</title>
<g id="a_edge16_Node000013_Node000014"><a xlink:title=" ">
<path fill="none" stroke="#63b8ff" d="M675.38,-591.88C685.07,-593.49 695.23,-595.18 704.7,-596.75"/>
<polygon fill="#63b8ff" stroke="#63b8ff" points="703.9,-600.16 714.34,-598.35 705.04,-593.26 703.9,-600.16"/>
</a>
</g>
</g>
<!-- Node17&#45;&gt;Node15 -->
<g id="edge22_Node000017_Node000015" class="edge">
<title>Node17&#45;&gt;Node15</title>
<g id="a_edge22_Node000017_Node000015"><a xlink:title=" ">
<path fill="none" stroke="#63b8ff" d="M658.72,-420.63C671.81,-416.18 687.6,-410.8 702.04,-405.88"/>
<polygon fill="#63b8ff" stroke="#63b8ff" points="702.99,-409.25 711.33,-402.72 700.74,-402.63 702.99,-409.25"/>
</a>
</g>
</g>
<!-- Node18 -->
<g id="Node000018" class="node">
<title>Node18</title>
<g id="a_Node000018"><a xlink:href="../../d6/d82/a00293.html#ac9adcf7339be4a05ab1a7350c236b8a5" target="_top" xlink:title="Draw a box around the specified window.">
<polygon fill="white" stroke="#666666" points="765.25,-440.75 726,-440.75 726,-420 765.25,-420 765.25,-440.75"/>
<text xml:space="preserve" text-anchor="middle" x="745.62" y="-427.25" font-family="Helvetica,sans-Serif" font-size="10.00">cbox</text>
</a>
</g>
</g>
<!-- Node17&#45;&gt;Node18 -->
<g id="edge21_Node000017_Node000018" class="edge">
<title>Node17&#45;&gt;Node18</title>
<g id="a_edge21_Node000017_Node000018"><a xlink:title=" ">
<path fill="none" stroke="#63b8ff" d="M658.72,-430.38C675.65,-430.38 697.07,-430.38 714.29,-430.38"/>
<polygon fill="#63b8ff" stroke="#63b8ff" points="714.19,-433.88 724.19,-430.38 714.19,-426.88 714.19,-433.88"/>
</a>
</g>
</g>
<!-- Node20 -->
<g id="Node000020" class="node">
<title>Node20</title>
<g id="a_Node000020"><a xlink:href="../../d6/d82/a00293.html#a67659f8a701b74f4dec0d36227a10d1c" target="_top" xlink:title="Display an error message window or print to stderr.">
<polygon fill="white" stroke="#666666" points="540.12,-403.75 460.38,-403.75 460.38,-383 540.12,-383 540.12,-403.75"/>
<text xml:space="preserve" text-anchor="middle" x="500.25" y="-390.25" font-family="Helvetica,sans-Serif" font-size="10.00">display_error</text>
</a>
</g>
</g>
<!-- Node19&#45;&gt;Node20 -->
<g id="edge24_Node000019_Node000020" class="edge">
<title>Node19&#45;&gt;Node20</title>
<g id="a_edge24_Node000019_Node000020"><a xlink:title=" ">
<path fill="none" stroke="#63b8ff" d="M403.48,-387.61C416.79,-386.75 433.11,-386.45 448.48,-386.72"/>
<polygon fill="#63b8ff" stroke="#63b8ff" points="448.38,-390.22 458.47,-387 448.57,-383.22 448.38,-390.22"/>
</a>
</g>
</g>
<!-- Node21 -->
<g id="Node000021" class="node">
<title>Node21</title>
<g id="a_Node000021"><a xlink:href="../../d6/d82/a00293.html#a4298f891699300bfc4e6e56fd2a8d574" target="_top" xlink:title="Get keycode from chyron.">
<polygon fill="white" stroke="#666666" points="546.5,-364.75 454,-364.75 454,-344 546.5,-344 546.5,-364.75"/>
<text xml:space="preserve" text-anchor="middle" x="500.25" y="-351.25" font-family="Helvetica,sans-Serif" font-size="10.00">get_chyron_key</text>
</a>
</g>
</g>
<!-- Node19&#45;&gt;Node21 -->
<g id="edge35_Node000019_Node000021" class="edge">
<title>Node19&#45;&gt;Node21</title>
<g id="a_edge35_Node000019_Node000021"><a xlink:title=" ">
<path fill="none" stroke="#63b8ff" d="M403.48,-384.53C418.47,-379.81 437.28,-373.89 454.25,-368.54"/>
<polygon fill="#63b8ff" stroke="#63b8ff" points="455.14,-371.93 463.63,-365.59 453.04,-365.25 455.14,-371.93"/>
</a>
</g>
</g>
<!-- Node20&#45;&gt;Node5 -->
<g id="edge25_Node000020_Node000005" class="edge">
<title>Node20&#45;&gt;Node5</title>
<g id="a_edge25_Node000020_Node000005"><a xlink:title=" ">
<path fill="none" stroke="#63b8ff" d="M540.53,-387.53C578.18,-380.37 635.13,-365.28 675.75,-335.38 702.76,-315.49 723.36,-281.85 734.72,-260.13"/>
<polygon fill="#63b8ff" stroke="#63b8ff" points="737.77,-261.86 739.13,-251.35 731.52,-258.72 737.77,-261.86"/>
</a>
</g>
</g>
<!-- Node20&#45;&gt;Node9 -->
<g id="edge26_Node000020_Node000009" class="edge">
<title>Node20&#45;&gt;Node9</title>
<g id="a_edge26_Node000020_Node000009"><a xlink:title=" ">
<path fill="none" stroke="#63b8ff" d="M515.1,-404.14C530.87,-416.1 557.66,-435.53 582.5,-449.38 585.17,-450.86 587.97,-452.32 590.82,-453.73"/>
<polygon fill="#63b8ff" stroke="#63b8ff" points="589.26,-456.86 599.8,-457.93 592.23,-450.52 589.26,-456.86"/>
</a>
</g>
</g>
<!-- Node20&#45;&gt;Node11 -->
<g id="edge27_Node000020_Node000011" class="edge">
<title>Node20&#45;&gt;Node11</title>
<g id="a_edge27_Node000020_Node000011"><a xlink:title=" ">
<path fill="none" stroke="#63b8ff" d="M529.28,-382.7C535.16,-379.99 541.18,-376.85 546.5,-373.38 564.67,-361.5 564.75,-352.86 582.5,-340.38 586.37,-337.65 590.59,-335.03 594.85,-332.58"/>
<polygon fill="#63b8ff" stroke="#63b8ff" points="596.26,-335.8 603.37,-327.95 592.92,-329.65 596.26,-335.8"/>
</a>
</g>
</g>
<!-- Node20&#45;&gt;Node12 -->
<g id="edge28_Node000020_Node000012" class="edge">
<title>Node20&#45;&gt;Node12</title>
<g id="a_edge28_Node000020_Node000012"><a xlink:title=" ">
<path fill="none" stroke="#63b8ff" d="M533.25,-382.73C538.06,-380.18 542.69,-377.09 546.5,-373.38 573.27,-347.29 555.69,-323.41 582.5,-297.38 583.55,-296.36 584.65,-295.39 585.81,-294.46"/>
<polygon fill="#63b8ff" stroke="#63b8ff" points="587.64,-297.45 594.12,-289.06 583.83,-291.58 587.64,-297.45"/>
</a>
</g>
</g>
<!-- Node20&#45;&gt;Node13 -->
<g id="edge29_Node000020_Node000013" class="edge">
<title>Node20&#45;&gt;Node13</title>
<g id="a_edge29_Node000020_Node000013"><a xlink:title=" ">
<path fill="none" stroke="#63b8ff" d="M503.57,-404.14C510.46,-433.64 533.43,-516.77 582.5,-564.38 583.55,-565.39 584.66,-566.36 585.81,-567.28"/>
<polygon fill="#63b8ff" stroke="#63b8ff" points="583.83,-570.17 594.12,-572.69 587.65,-564.3 583.83,-570.17"/>
</a>
</g>
</g>
<!-- Node20&#45;&gt;Node14 -->
<g id="edge30_Node000020_Node000014" class="edge">
<title>Node20&#45;&gt;Node14</title>
<g id="a_edge30_Node000020_Node000014"><a xlink:title=" ">
<path fill="none" stroke="#63b8ff" d="M507.8,-403.95C520.2,-423.17 548.89,-464.12 582.5,-488.38 618.79,-514.56 639.17,-500.59 675.75,-526.38 698.05,-542.1 718.17,-566.33 730.83,-583.4"/>
<polygon fill="#63b8ff" stroke="#63b8ff" points="727.81,-585.2 736.49,-591.28 733.5,-581.12 727.81,-585.2"/>
</a>
</g>
</g>
<!-- Node20&#45;&gt;Node15 -->
<g id="edge31_Node000020_Node000015" class="edge">
<title>Node20&#45;&gt;Node15</title>
<g id="a_edge31_Node000020_Node000015"><a xlink:title=" ">
<path fill="none" stroke="#63b8ff" d="M540.62,-393.05C584.31,-392.69 654.64,-392.11 700.25,-391.74"/>
<polygon fill="#63b8ff" stroke="#63b8ff" points="700.08,-395.24 710.05,-391.66 700.02,-388.24 700.08,-395.24"/>
</a>
</g>
</g>
<!-- Node20&#45;&gt;Node16 -->
<g id="edge32_Node000020_Node000016" class="edge">
<title>Node20&#45;&gt;Node16</title>
<g id="a_edge32_Node000020_Node000016"><a xlink:title=" ">
<path fill="none" stroke="#63b8ff" d="M505.66,-403.95C515.97,-427.64 543.79,-485.7 582.5,-521.38 585.42,-524.06 588.69,-526.54 592.12,-528.8"/>
<polygon fill="#63b8ff" stroke="#63b8ff" points="590.27,-531.78 600.67,-533.82 593.81,-525.74 590.27,-531.78"/>
</a>
</g>
</g>
<!-- Node20&#45;&gt;Node17 -->
<g id="edge33_Node000020_Node000017" class="edge">
<title>Node20&#45;&gt;Node17</title>
<g id="a_edge33_Node000020_Node000017"><a xlink:title=" ">
<path fill="none" stroke="#63b8ff" d="M538.29,-404.18C554.1,-408.79 572.57,-414.17 588.63,-418.86"/>
<polygon fill="#63b8ff" stroke="#63b8ff" points="587.28,-422.11 597.86,-421.55 589.24,-415.39 587.28,-422.11"/>
</a>
</g>
</g>
<!-- Node20&#45;&gt;Node19 -->
<g id="edge34_Node000020_Node000019" class="edge">
<title>Node20&#45;&gt;Node19</title>
<g id="a_edge34_Node000020_Node000019"><a xlink:title=" ">
<path fill="none" stroke="#63b8ff" d="M459.98,-399.71C445.5,-400.27 429.1,-400.26 414.61,-399.7"/>
<polygon fill="#63b8ff" stroke="#63b8ff" points="415.16,-396.23 405,-399.21 414.8,-403.22 415.16,-396.23"/>
</a>
</g>
</g>
<!-- Node24&#45;&gt;Node5 -->
<g id="edge41_Node000024_Node000005" class="edge">
<title>Node24&#45;&gt;Node5</title>
<g id="a_edge41_Node000024_Node000005"><a xlink:title=" ">
<path fill="none" stroke="#63b8ff" d="M280.45,-157.49C361.78,-148.51 538.78,-137.28 675.75,-187.38 695.19,-194.48 713.7,-209.06 726.63,-220.97"/>
<polygon fill="#63b8ff" stroke="#63b8ff" points="723.9,-223.21 733.54,-227.62 728.76,-218.17 723.9,-223.21"/>
</a>
</g>
</g>
<!-- Node25 -->
<g id="Node000025" class="node">
<title>Node25</title>
<g id="a_Node000025"><a xlink:href="../../d3/d1a/a00251.html#aa08a9a8dede37c66c81c3f51a0f338a9" target="_top" xlink:title="Signal handler for interrupt signals.">
<polygon fill="white" stroke="#666666" points="418,-135.75 330.75,-135.75 330.75,-115 418,-115 418,-135.75"/>
<text xml:space="preserve" text-anchor="middle" x="374.38" y="-122.25" font-family="Helvetica,sans-Serif" font-size="10.00">signal_handler</text>
</a>
</g>
</g>
<!-- Node24&#45;&gt;Node25 -->
<g id="edge42_Node000024_Node000025" class="edge">
<title>Node24&#45;&gt;Node25</title>
<g id="a_edge42_Node000024_Node000025"><a xlink:title=" ">
<path fill="none" stroke="#63b8ff" d="M275,-152.59C290.08,-148.42 307.53,-143.59 323.5,-139.17"/>
<polygon fill="#63b8ff" stroke="#63b8ff" points="324.12,-142.63 332.82,-136.59 322.25,-135.89 324.12,-142.63"/>
</a>
</g>
</g>
</g>
</svg>

<g id="navigator" transform="translate(0 0)" fill="#404254">
  <rect fill="#f2f5e9" fill-opacity="0.5" stroke="#606060" stroke-width=".5" x="0" y="0" width="60" height="60"/>
  <use id="zoomplus" xlink:href="#zoomPlus" x="17" y="9" onmousedown="handleZoom(evt,'in')"/>
  <use id="zoomminus" xlink:href="#zoomMin" x="42" y="9" onmousedown="handleZoom(evt,'out')"/>
  <use id="reset" xlink:href="#resetDef" x="30" y="36" onmousedown="handleReset()"/>
   <use id="arrowup" xlink:href="#arrowUp" x="0" y="0" onmousedown="handlePan(0,-1)"/>
  <use id="arrowright" xlink:href="#arrowRight" x="0" y="0" onmousedown="handlePan(1,0)"/>
  <use id="arrowdown" xlink:href="#arrowDown" x="0" y="0" onmousedown="handlePan(0,1)"/>
  <use id="arrowleft" xlink:href="#arrowLeft" x="0" y="0" onmousedown="handlePan(-1,0)"/>
</g>
<svg viewBox="0 0 15 15" width="100%" height="30px" preserveAspectRatio="xMaxYMin meet">
 <g id="arrow_out" transform="scale(0.3 0.3)">
  <a xlink:href="a00233_a5c3ffccf49f08359334198f7fce3f9df_cgraph_org.svg" target="_base">
   <rect id="button" ry="5" rx="5" y="6" x="6" height="38" width="38"
        fill="#f2f5e9" fill-opacity="0.5" stroke="#606060" stroke-width="1.0"/>
   <path id="arrow"
     d="M 11.500037,31.436501 C 11.940474,20.09759 22.043105,11.32322 32.158766,21.979434 L 37.068811,17.246167 C 37.068811,17.246167 37.088388,32 37.088388,32 L 22.160133,31.978069 C 22.160133,31.978069 26.997745,27.140456 26.997745,27.140456 C 18.528582,18.264221 13.291696,25.230495 11.500037,31.436501 z"
     style="fill:#404040;"/>
  </a>
 </g>
</svg>

<style type='text/css'>
<![CDATA[
[data-mouse-over-selected='false'] { opacity: 0.7; }
[data-mouse-over-selected='true']  { opacity: 1.0; }
]]>
</style>
<script type="application/ecmascript"><![CDATA[
document.addEventListener('DOMContentLoaded', (event) => {
  highlightEdges();
  highlightAdjacentNodes();
});
]]></script>
</svg>
