<?xml version="1.0" encoding="UTF-8" standalone="no"?>
<!DOCTYPE svg PUBLIC "-//W3C//DTD SVG 1.1//EN"
 "http://www.w3.org/Graphics/SVG/1.1/DTD/svg11.dtd">
<!-- Generated by graphviz version 14.1.2 (0)
 -->
<!-- Title: form_parse_desc Pages: 1 -->
<!--zoomable 583 -->

<svg id="main" version="1.1" xmlns="http://www.w3.org/2000/svg" xmlns:xlink="http://www.w3.org/1999/xlink" xml:space="preserve" onload="init(evt)">

<style type="text/css"><![CDATA[
.node, .edge {opacity: 0.7;}
.node.selected, .edge.selected {opacity: 1;}
.edge:hover path { stroke: red; }
.edge:hover polygon { stroke: red; fill: red; }
]]></style>

<defs>
  <circle id="rim" cx="0" cy="0" r="7"/>
  <circle id="rim2" cx="0" cy="0" r="3.5"/>
  <g id="zoomPlus">
    <use xlink:href="#rim" fill="#404040"><set attributeName="fill" to="#808080" begin="zoomplus.mouseover" end="zoomplus.mouseout"/></use>
    <path d="M-4,0h8M0,-4v8" fill="none" stroke="white" stroke-width="1.5" pointer-events="none"/>
  </g>
  <g id="zoomMin">
    <use xlink:href="#rim" fill="#404040"><set attributeName="fill" to="#808080" begin="zoomminus.mouseover" end="zoomminus.mouseout"/></use>
    <path d="M-4,0h8" fill="none" stroke="white" stroke-width="1.5" pointer-events="none"/>
  </g>
  <g id="arrowUp" transform="translate(30 24)">
    <use xlink:href="#rim"/>
    <path pointer-events="none" fill="none" stroke="white" stroke-width="1.5" d="M0,-3.0v7 M-2.5,-0.5L0,-3.0L2.5,-0.5"/>
  </g>
  <g id="arrowRight" transform="rotate(90) translate(36 -43)">
    <use xlink:href="#rim"/>
    <path pointer-events="none" fill="none" stroke="white" stroke-width="1.5" d="M0,-3.0v7 M-2.5,-0.5L0,-3.0L2.5,-0.5"/>
  </g>
  <g id="arrowDown" transform="rotate(180) translate(-30 -48)">
    <use xlink:href="#rim"/>
    <path pointer-events="none" fill="none" stroke="white" stroke-width="1.5" d="M0,-3.0v7 M-2.5,-0.5L0,-3.0L2.5,-0.5"/>
  </g>
  <g id="arrowLeft" transform="rotate(270) translate(-36 17)">
    <use xlink:href="#rim"/>
    <path pointer-events="none" fill="none" stroke="white" stroke-width="1.5" d="M0,-3.0v7 M-2.5,-0.5L0,-3.0L2.5,-0.5"/>
  </g>
  <g id="resetDef">
    <use xlink:href="#rim2" fill="#404040"><set attributeName="fill" to="#808080" begin="reset.mouseover" end="reset.mouseout"/></use>
  </g>
</defs>
<script type="application/ecmascript">
var viewWidth = 883;
var viewHeight = 583;
var sectionId = 'dynsection-19';
</script>
<script type="application/ecmascript" xlink:href="../../svg.min.js"/>
<svg id="graph" class="graph">
<g id="viewport">
<title>form_parse_desc</title>
<!-- Node1 -->
<g id="Node000001" class="node">
<title>Node1</title>
<g id="a_Node000001"><a xlink:title="Parse the form description file to populate the Form data structure with field definitions,...">
<polygon fill="#999999" stroke="#666666" points="99.25,-306.75 0,-306.75 0,-286 99.25,-286 99.25,-306.75"/>
<text xml:space="preserve" text-anchor="middle" x="49.62" y="-293.25" font-family="Helvetica,sans-Serif" font-size="10.00">form_parse_desc</text>
</a>
</g>
</g>
<!-- Node2 -->
<g id="Node000002" class="node">
<title>Node2</title>
<g id="a_Node000002"><a xlink:href="../../de/d25/a00290.html#a8f6c45ca4a7f6a41c4c88314e697565a" target="_top" xlink:title="Abnormal program termination.">
<polygon fill="white" stroke="#666666" points="581,-287.75 535,-287.75 535,-267 581,-267 581,-287.75"/>
<text xml:space="preserve" text-anchor="middle" x="558" y="-274.25" font-family="Helvetica,sans-Serif" font-size="10.00">abend</text>
</a>
</g>
</g>
<!-- Node1&#45;&gt;Node2 -->
<g id="edge1_Node000001_Node000002" class="edge">
<title>Node1&#45;&gt;Node2</title>
<g id="a_edge1_Node000001_Node000002"><a xlink:title=" ">
<path fill="none" stroke="#63b8ff" d="M99.48,-285.54C178.63,-269.43 339.75,-242.69 475.75,-258.38 491.76,-260.22 509.2,-264.05 523.81,-267.79"/>
<polygon fill="#63b8ff" stroke="#63b8ff" points="522.8,-271.15 533.36,-270.34 524.61,-264.38 522.8,-271.15"/>
</a>
</g>
</g>
<!-- Node6 -->
<g id="Node000006" class="node">
<title>Node6</title>
<g id="a_Node000006"><a xlink:href="../../de/d25/a00290.html#a67659f8a701b74f4dec0d36227a10d1c" target="_top" xlink:title="Display an error message window or print to stderr.">
<polygon fill="white" stroke="#666666" points="346.5,-344.75 266.75,-344.75 266.75,-324 346.5,-324 346.5,-344.75"/>
<text xml:space="preserve" text-anchor="middle" x="306.62" y="-331.25" font-family="Helvetica,sans-Serif" font-size="10.00">display_error</text>
</a>
</g>
</g>
<!-- Node1&#45;&gt;Node6 -->
<g id="edge7_Node000001_Node000006" class="edge">
<title>Node1&#45;&gt;Node6</title>
<g id="a_edge7_Node000001_Node000006"><a xlink:title=" ">
<path fill="none" stroke="#63b8ff" d="M99.44,-299.62C135.82,-302.5 186.64,-307.49 230.75,-315.38 239.1,-316.87 247.9,-318.78 256.41,-320.82"/>
<polygon fill="#63b8ff" stroke="#63b8ff" points="255.36,-324.17 265.91,-323.18 257.05,-317.37 255.36,-324.17"/>
</a>
</g>
</g>
<!-- Node8 -->
<g id="Node000008" class="node">
<title>Node8</title>
<g id="a_Node000008"><a xlink:href="../../db/dc3/a00284.html#aa0145c044cfdde3a1c83323410a59f25" target="_top" xlink:title="safer alternative to strncat">
<polygon fill="white" stroke="#666666" points="590.75,-574.75 525.25,-574.75 525.25,-554 590.75,-554 590.75,-574.75"/>
<text xml:space="preserve" text-anchor="middle" x="558" y="-561.25" font-family="Helvetica,sans-Serif" font-size="10.00">strnz__cat</text>
</a>
</g>
</g>
<!-- Node1&#45;&gt;Node8 -->
<g id="edge31_Node000001_Node000008" class="edge">
<title>Node1&#45;&gt;Node8</title>
<g id="a_edge31_Node000001_Node000008"><a xlink:title=" ">
<path fill="none" stroke="#63b8ff" d="M54.49,-306.89C64.49,-332.92 93.35,-401.48 135.25,-445.38 182.97,-495.37 203.77,-499.92 266.75,-528.38 315.61,-550.45 329.47,-554.44 382.5,-562.38 426.78,-569 478.1,-568.65 513.56,-567.16"/>
<polygon fill="#63b8ff" stroke="#63b8ff" points="513.61,-570.66 523.44,-566.69 513.28,-563.67 513.61,-570.66"/>
</a>
</g>
</g>
<!-- Node12 -->
<g id="Node000012" class="node">
<title>Node12</title>
<g id="a_Node000012"><a xlink:href="../../db/dc3/a00284.html#a63eb94756fb011a456a3dec900709cd8" target="_top" xlink:title="ssnprintf was designed to be a safer alternative to snprintf.">
<polygon fill="white" stroke="#666666" points="587.38,-506.75 528.62,-506.75 528.62,-486 587.38,-486 587.38,-506.75"/>
<text xml:space="preserve" text-anchor="middle" x="558" y="-493.25" font-family="Helvetica,sans-Serif" font-size="10.00">ssnprintf</text>
</a>
</g>
</g>
<!-- Node1&#45;&gt;Node12 -->
<g id="edge29_Node000001_Node000012" class="edge">
<title>Node1&#45;&gt;Node12</title>
<g id="a_edge29_Node000001_Node000012"><a xlink:title=" ">
<path fill="none" stroke="#63b8ff" d="M58.85,-307.02C92.8,-349.84 227.56,-508.86 382.5,-544.38 422.9,-553.63 435.77,-555.3 475.75,-544.38 497.61,-538.4 519.56,-524.87 535.13,-513.7"/>
<polygon fill="#63b8ff" stroke="#63b8ff" points="536.8,-516.82 542.72,-508.03 532.61,-511.2 536.8,-516.82"/>
</a>
</g>
</g>
<!-- Node13 -->
<g id="Node000013" class="node">
<title>Node13</title>
<g id="a_Node000013"><a xlink:href="../../db/dc3/a00284.html#a0de2e40df9bd7efc8fd9afb8ad2257e6" target="_top" xlink:title="safer alternative to strncpy">
<polygon fill="white" stroke="#666666" points="591.88,-115.75 524.12,-115.75 524.12,-95 591.88,-95 591.88,-115.75"/>
<text xml:space="preserve" text-anchor="middle" x="558" y="-102.25" font-family="Helvetica,sans-Serif" font-size="10.00">strnz__cpy</text>
</a>
</g>
</g>
<!-- Node1&#45;&gt;Node13 -->
<g id="edge32_Node000001_Node000013" class="edge">
<title>Node1&#45;&gt;Node13</title>
<g id="a_edge32_Node000001_Node000013"><a xlink:title=" ">
<path fill="none" stroke="#63b8ff" d="M60.87,-285.86C90.26,-256.24 178.41,-171.19 266.75,-123.38 314.37,-97.6 329.03,-93.93 382.5,-85.38 423.42,-78.83 434.61,-80.39 475.75,-85.38 487.88,-86.85 500.81,-89.51 512.71,-92.42"/>
<polygon fill="#63b8ff" stroke="#63b8ff" points="511.71,-95.78 522.27,-94.89 513.46,-89 511.71,-95.78"/>
</a>
</g>
</g>
<!-- Node19 -->
<g id="Node000019" class="node">
<title>Node19</title>
<g id="a_Node000019"><a xlink:href="../../d6/de1/a00233.html#a02cf855a99051ac21f4966aa92b9544f" target="_top" xlink:title="Handle errors encountered while parsing the form description file, providing detailed error messages ...">
<polygon fill="white" stroke="#666666" points="230.75,-344.75 135.25,-344.75 135.25,-324 230.75,-324 230.75,-344.75"/>
<text xml:space="preserve" text-anchor="middle" x="183" y="-331.25" font-family="Helvetica,sans-Serif" font-size="10.00">form_desc_error</text>
</a>
</g>
</g>
<!-- Node1&#45;&gt;Node19 -->
<g id="edge25_Node000001_Node000019" class="edge">
<title>Node1&#45;&gt;Node19</title>
<g id="a_edge25_Node000001_Node000019"><a xlink:title=" ">
<path fill="none" stroke="#63b8ff" d="M87.92,-307.16C102.2,-311.29 118.71,-316.07 133.86,-320.45"/>
<polygon fill="#63b8ff" stroke="#63b8ff" points="132.58,-323.72 143.16,-323.14 134.52,-317 132.58,-323.72"/>
</a>
</g>
</g>
<!-- Node20 -->
<g id="Node000020" class="node">
<title>Node20</title>
<g id="a_Node000020"><a xlink:href="../../db/dc3/a00284.html#a4fb9a5e513fb39d3dd8eadef0f2cd44b" target="_top" xlink:title="Converts a string to lowercase.">
<polygon fill="white" stroke="#666666" points="221,-20.75 145,-20.75 145,0 221,0 221,-20.75"/>
<text xml:space="preserve" text-anchor="middle" x="183" y="-7.25" font-family="Helvetica,sans-Serif" font-size="10.00">str_to_lower</text>
</a>
</g>
</g>
<!-- Node1&#45;&gt;Node20 -->
<g id="edge30_Node000001_Node000020" class="edge">
<title>Node1&#45;&gt;Node20</title>
<g id="a_edge30_Node000001_Node000020"><a xlink:title=" ">
<path fill="none" stroke="#63b8ff" d="M51.22,-285.76C53.91,-247.32 67.92,-113.59 135.25,-34.38 137.48,-31.75 140.07,-29.37 142.87,-27.24"/>
<polygon fill="#63b8ff" stroke="#63b8ff" points="144.51,-30.34 151.04,-22 140.73,-24.45 144.51,-30.34"/>
</a>
</g>
</g>
<!-- Node3 -->
<g id="Node000003" class="node">
<title>Node3</title>
<g id="a_Node000003"><a xlink:href="../../de/d25/a00290.html#afc0985a403e3eac0b2cd8f0fab500256" target="_top" xlink:title="Gracefully shut down NCurses and restore terminal settings.">
<polygon fill="white" stroke="#666666" points="729.75,-287.75 640.25,-287.75 640.25,-267 729.75,-267 729.75,-287.75"/>
<text xml:space="preserve" text-anchor="middle" x="685" y="-274.25" font-family="Helvetica,sans-Serif" font-size="10.00">destroy_curses</text>
</a>
</g>
</g>
<!-- Node2&#45;&gt;Node3 -->
<g id="edge2_Node000002_Node000003" class="edge">
<title>Node2&#45;&gt;Node3</title>
<g id="a_edge2_Node000002_Node000003"><a xlink:title=" ">
<path fill="none" stroke="#63b8ff" d="M581.35,-277.38C594.53,-277.38 611.84,-277.38 628.48,-277.38"/>
<polygon fill="#63b8ff" stroke="#63b8ff" points="628.32,-280.88 638.32,-277.38 628.32,-273.88 628.32,-280.88"/>
</a>
</g>
</g>
<!-- Node4 -->
<g id="Node000004" class="node">
<title>Node4</title>
<g id="a_Node000004"><a xlink:href="../../db/d7b/a00296.html#ac5e3adb304b78910fc77761ef6a743f0" target="_top" xlink:title="restore_shell_tioctl() &#45; restore shell terminal settings">
<polygon fill="white" stroke="#666666" points="874.75,-315.75 765.75,-315.75 765.75,-295 874.75,-295 874.75,-315.75"/>
<text xml:space="preserve" text-anchor="middle" x="820.25" y="-302.25" font-family="Helvetica,sans-Serif" font-size="10.00">restore_shell_tioctl</text>
</a>
</g>
</g>
<!-- Node2&#45;&gt;Node4 -->
<g id="edge5_Node000002_Node000004" class="edge">
<title>Node2&#45;&gt;Node4</title>
<g id="a_edge5_Node000002_Node000004"><a xlink:title=" ">
<path fill="none" stroke="#63b8ff" d="M581.21,-283.71C597.43,-288.05 620.02,-293.53 640.25,-296.38 677.76,-301.66 720.07,-303.95 754.14,-304.91"/>
<polygon fill="#63b8ff" stroke="#63b8ff" points="753.76,-308.4 763.84,-305.14 753.93,-301.4 753.76,-308.4"/>
</a>
</g>
</g>
<!-- Node5 -->
<g id="Node000005" class="node">
<title>Node5</title>
<g id="a_Node000005"><a xlink:href="../../dd/dd7/a00248.html#a06c1eb6cf3649dc187115565409f91af" target="_top" xlink:title="Set signal handlers to default behavior.">
<polygon fill="white" stroke="#666666" points="860.88,-267.75 779.62,-267.75 779.62,-247 860.88,-247 860.88,-267.75"/>
<text xml:space="preserve" text-anchor="middle" x="820.25" y="-254.25" font-family="Helvetica,sans-Serif" font-size="10.00">sig_dfl_mode</text>
</a>
</g>
</g>
<!-- Node2&#45;&gt;Node5 -->
<g id="edge6_Node000002_Node000005" class="edge">
<title>Node2&#45;&gt;Node5</title>
<g id="a_edge6_Node000002_Node000005"><a xlink:title=" ">
<path fill="none" stroke="#63b8ff" d="M581.18,-270.77C597.38,-266.29 619.97,-260.77 640.25,-258.38 683.14,-253.31 732.21,-253.45 768.11,-254.63"/>
<polygon fill="#63b8ff" stroke="#63b8ff" points="767.64,-258.12 777.77,-254.99 767.9,-251.12 767.64,-258.12"/>
</a>
</g>
</g>
<!-- Node3&#45;&gt;Node4 -->
<g id="edge3_Node000003_Node000004" class="edge">
<title>Node3&#45;&gt;Node4</title>
<g id="a_edge3_Node000003_Node000004"><a xlink:title=" ">
<path fill="none" stroke="#63b8ff" d="M730,-286.62C738.62,-288.43 747.82,-290.37 756.91,-292.28"/>
<polygon fill="#63b8ff" stroke="#63b8ff" points="755.91,-295.64 766.42,-294.27 757.35,-288.79 755.91,-295.64"/>
</a>
</g>
</g>
<!-- Node3&#45;&gt;Node5 -->
<g id="edge4_Node000003_Node000005" class="edge">
<title>Node3&#45;&gt;Node5</title>
<g id="a_edge4_Node000003_Node000005"><a xlink:title=" ">
<path fill="none" stroke="#63b8ff" d="M730,-270.77C742.19,-268.94 755.52,-266.94 768.08,-265.06"/>
<polygon fill="#63b8ff" stroke="#63b8ff" points="768.48,-268.54 777.85,-263.59 767.44,-261.61 768.48,-268.54"/>
</a>
</g>
</g>
<!-- Node6&#45;&gt;Node2 -->
<g id="edge8_Node000006_Node000002" class="edge">
<title>Node6&#45;&gt;Node2</title>
<g id="a_edge8_Node000006_Node000002"><a xlink:title=" ">
<path fill="none" stroke="#63b8ff" d="M346.71,-325.63C380.8,-317.98 431.57,-306.53 475.75,-296.38 491.46,-292.76 508.86,-288.7 523.51,-285.26"/>
<polygon fill="#63b8ff" stroke="#63b8ff" points="524.19,-288.7 533.12,-283.01 522.59,-281.89 524.19,-288.7"/>
</a>
</g>
</g>
<!-- Node7 -->
<g id="Node000007" class="node">
<title>Node7</title>
<g id="a_Node000007"><a xlink:href="../../de/d25/a00290.html#a645871e46277e31736bc36d0f3dce4bd" target="_top" xlink:title="construct the chyron string from the chyron structure">
<polygon fill="white" stroke="#666666" points="475.75,-517.75 382.5,-517.75 382.5,-497 475.75,-497 475.75,-517.75"/>
<text xml:space="preserve" text-anchor="middle" x="429.12" y="-504.25" font-family="Helvetica,sans-Serif" font-size="10.00">compile_chyron</text>
</a>
</g>
</g>
<!-- Node6&#45;&gt;Node7 -->
<g id="edge9_Node000006_Node000007" class="edge">
<title>Node6&#45;&gt;Node7</title>
<g id="a_edge9_Node000006_Node000007"><a xlink:title=" ">
<path fill="none" stroke="#63b8ff" d="M310.15,-345.18C317.05,-372.55 338.74,-445.42 382.5,-487.38 383.71,-488.53 385,-489.63 386.34,-490.67"/>
<polygon fill="#63b8ff" stroke="#63b8ff" points="384.3,-493.52 394.62,-495.91 388.04,-487.61 384.3,-493.52"/>
</a>
</g>
</g>
<!-- Node9 -->
<g id="Node000009" class="node">
<title>Node9</title>
<g id="a_Node000009"><a xlink:href="../../de/d25/a00290.html#a3f3feb40fd703913c5c136331f627c91" target="_top" xlink:title="Destroy Chyron structure.">
<polygon fill="white" stroke="#666666" points="474.62,-363.75 383.62,-363.75 383.62,-343 474.62,-343 474.62,-363.75"/>
<text xml:space="preserve" text-anchor="middle" x="429.12" y="-350.25" font-family="Helvetica,sans-Serif" font-size="10.00">destroy_chyron</text>
</a>
</g>
</g>
<!-- Node6&#45;&gt;Node9 -->
<g id="edge11_Node000006_Node000009" class="edge">
<title>Node6&#45;&gt;Node9</title>
<g id="a_edge11_Node000006_Node000009"><a xlink:title=" ">
<path fill="none" stroke="#63b8ff" d="M346.75,-340.54C354.87,-341.82 363.58,-343.2 372.17,-344.55"/>
<polygon fill="#63b8ff" stroke="#63b8ff" points="371.42,-347.98 381.85,-346.08 372.51,-341.06 371.42,-347.98"/>
</a>
</g>
</g>
<!-- Node10 -->
<g id="Node000010" class="node">
<title>Node10</title>
<g id="a_Node000010"><a xlink:href="../../de/d25/a00290.html#ad37d5808ff30ae6894780425d865abae" target="_top" xlink:title="Create and initialize Chyron structure.">
<polygon fill="white" stroke="#666666" points="466.38,-287.75 391.88,-287.75 391.88,-267 466.38,-267 466.38,-287.75"/>
<text xml:space="preserve" text-anchor="middle" x="429.12" y="-274.25" font-family="Helvetica,sans-Serif" font-size="10.00">new_chyron</text>
</a>
</g>
</g>
<!-- Node6&#45;&gt;Node10 -->
<g id="edge12_Node000006_Node000010" class="edge">
<title>Node6&#45;&gt;Node10</title>
<g id="a_edge12_Node000006_Node000010"><a xlink:title=" ">
<path fill="none" stroke="#63b8ff" d="M330.57,-323.52C348.83,-314.88 374.63,-302.68 395.11,-292.99"/>
<polygon fill="#63b8ff" stroke="#63b8ff" points="396.35,-296.28 403.89,-288.84 393.36,-289.95 396.35,-296.28"/>
</a>
</g>
</g>
<!-- Node11 -->
<g id="Node000011" class="node">
<title>Node11</title>
<g id="a_Node000011"><a xlink:href="../../de/d25/a00290.html#a208ce92c197fdd6d2b007987e534aa3b" target="_top" xlink:title="Set chyron key.">
<polygon fill="white" stroke="#666666" points="475,-478.75 383.25,-478.75 383.25,-458 475,-458 475,-478.75"/>
<text xml:space="preserve" text-anchor="middle" x="429.12" y="-465.25" font-family="Helvetica,sans-Serif" font-size="10.00">set_chyron_key</text>
</a>
</g>
</g>
<!-- Node6&#45;&gt;Node11 -->
<g id="edge14_Node000006_Node000011" class="edge">
<title>Node6&#45;&gt;Node11</title>
<g id="a_edge14_Node000006_Node000011"><a xlink:title=" ">
<path fill="none" stroke="#63b8ff" d="M312.63,-345.03C323.04,-366.26 348.89,-414.38 382.5,-444.38 385.62,-447.16 389.12,-449.73 392.77,-452.07"/>
<polygon fill="#63b8ff" stroke="#63b8ff" points="390.83,-455 401.25,-456.95 394.33,-448.93 390.83,-455"/>
</a>
</g>
</g>
<!-- Node6&#45;&gt;Node12 -->
<g id="edge16_Node000006_Node000012" class="edge">
<title>Node6&#45;&gt;Node12</title>
<g id="a_edge16_Node000006_Node000012"><a xlink:title=" ">
<path fill="none" stroke="#63b8ff" d="M315.72,-345.2C328.39,-361.49 354.36,-392.4 382.5,-411.38 419.61,-436.39 435.56,-429.68 475.75,-449.38 494.48,-458.55 514.78,-470.3 530.41,-479.75"/>
<polygon fill="#63b8ff" stroke="#63b8ff" points="528.29,-482.56 538.65,-484.79 531.95,-476.59 528.29,-482.56"/>
</a>
</g>
</g>
<!-- Node6&#45;&gt;Node13 -->
<g id="edge17_Node000006_Node000013" class="edge">
<title>Node6&#45;&gt;Node13</title>
<g id="a_edge17_Node000006_Node000013"><a xlink:title=" ">
<path fill="none" stroke="#63b8ff" d="M308.41,-323.73C311.4,-291.2 325.03,-192.35 382.5,-143.38 418.53,-112.66 473.67,-105.07 512.3,-103.94"/>
<polygon fill="#63b8ff" stroke="#63b8ff" points="512.25,-107.44 522.2,-103.8 512.15,-100.44 512.25,-107.44"/>
</a>
</g>
</g>
<!-- Node14 -->
<g id="Node000014" class="node">
<title>Node14</title>
<g id="a_Node000014"><a xlink:href="../../de/d25/a00290.html#a9dd598e1d49c8764af1eec42c682623e" target="_top" xlink:title="Delete the current window and its associated box window.">
<polygon fill="white" stroke="#666666" points="455.88,-172.75 402.38,-172.75 402.38,-152 455.88,-152 455.88,-172.75"/>
<text xml:space="preserve" text-anchor="middle" x="429.12" y="-159.25" font-family="Helvetica,sans-Serif" font-size="10.00">win_del</text>
</a>
</g>
</g>
<!-- Node6&#45;&gt;Node14 -->
<g id="edge18_Node000006_Node000014" class="edge">
<title>Node6&#45;&gt;Node14</title>
<g id="a_edge18_Node000006_Node000014"><a xlink:title=" ">
<path fill="none" stroke="#63b8ff" d="M310.17,-323.64C317.12,-296.45 338.92,-224.06 382.5,-182.38 385.34,-179.66 388.6,-177.28 392.05,-175.2"/>
<polygon fill="#63b8ff" stroke="#63b8ff" points="393.39,-178.45 400.72,-170.8 390.22,-172.21 393.39,-178.45"/>
</a>
</g>
</g>
<!-- Node15 -->
<g id="Node000015" class="node">
<title>Node15</title>
<g id="a_Node000015"><a xlink:href="../../de/d25/a00290.html#a435c7bff7ffedb8f51c6de9259e36f6c" target="_top" xlink:title="Create a new window with optional box and title.">
<polygon fill="white" stroke="#666666" points="458.5,-211.75 399.75,-211.75 399.75,-191 458.5,-191 458.5,-211.75"/>
<text xml:space="preserve" text-anchor="middle" x="429.12" y="-198.25" font-family="Helvetica,sans-Serif" font-size="10.00">win_new</text>
</a>
</g>
</g>
<!-- Node6&#45;&gt;Node15 -->
<g id="edge19_Node000006_Node000015" class="edge">
<title>Node6&#45;&gt;Node15</title>
<g id="a_edge19_Node000006_Node000015"><a xlink:title=" ">
<path fill="none" stroke="#63b8ff" d="M317.08,-323.94C337.31,-301.61 385.02,-248.95 410.83,-220.46"/>
<polygon fill="#63b8ff" stroke="#63b8ff" points="413.24,-223.01 417.36,-213.25 408.05,-218.31 413.24,-223.01"/>
</a>
</g>
</g>
<!-- Node17 -->
<g id="Node000017" class="node">
<title>Node17</title>
<g id="a_Node000017"><a xlink:href="../../de/d25/a00290.html#acf4c709bccc4c965a5d61db978db31a3" target="_top" xlink:title="Wrapper for wgetch that handles signals and mouse events.">
<polygon fill="white" stroke="#666666" points="457.75,-402.75 400.5,-402.75 400.5,-382 457.75,-382 457.75,-402.75"/>
<text xml:space="preserve" text-anchor="middle" x="429.12" y="-389.25" font-family="Helvetica,sans-Serif" font-size="10.00">xwgetch</text>
</a>
</g>
</g>
<!-- Node6&#45;&gt;Node17 -->
<g id="edge22_Node000006_Node000017" class="edge">
<title>Node6&#45;&gt;Node17</title>
<g id="a_edge22_Node000006_Node000017"><a xlink:title=" ">
<path fill="none" stroke="#63b8ff" d="M344.74,-345.18C356.72,-350.84 370.11,-357.52 382.5,-363.38 391.09,-367.43 400.71,-371.69 408.89,-375.94"/>
<polygon fill="#63b8ff" stroke="#63b8ff" points="406.89,-378.83 417.3,-380.76 410.36,-372.75 406.89,-378.83"/>
</a>
</g>
</g>
<!-- Node7&#45;&gt;Node8 -->
<g id="edge10_Node000007_Node000008" class="edge">
<title>Node7&#45;&gt;Node8</title>
<g id="a_edge10_Node000007_Node000008"><a xlink:title=" ">
<path fill="none" stroke="#63b8ff" d="M454.29,-518.23C473.6,-526.91 500.92,-539.18 522.53,-548.89"/>
<polygon fill="#63b8ff" stroke="#63b8ff" points="520.99,-552.03 531.55,-552.94 523.86,-545.65 520.99,-552.03"/>
</a>
</g>
</g>
<!-- Node10&#45;&gt;Node2 -->
<g id="edge13_Node000010_Node000002" class="edge">
<title>Node10&#45;&gt;Node2</title>
<g id="a_edge13_Node000010_Node000002"><a xlink:title=" ">
<path fill="none" stroke="#63b8ff" d="M466.82,-277.38C484.66,-277.38 505.95,-277.38 523.37,-277.38"/>
<polygon fill="#63b8ff" stroke="#63b8ff" points="523.2,-280.88 533.2,-277.38 523.2,-273.88 523.2,-280.88"/>
</a>
</g>
</g>
<!-- Node11&#45;&gt;Node12 -->
<g id="edge15_Node000011_Node000012" class="edge">
<title>Node11&#45;&gt;Node12</title>
<g id="a_edge15_Node000011_Node000012"><a xlink:title=" ">
<path fill="none" stroke="#63b8ff" d="M475.21,-478.33C488.88,-481.34 503.78,-484.63 517.08,-487.56"/>
<polygon fill="#63b8ff" stroke="#63b8ff" points="516.28,-490.97 526.8,-489.71 517.79,-484.14 516.28,-490.97"/>
</a>
</g>
</g>
<!-- Node15&#45;&gt;Node13 -->
<g id="edge21_Node000015_Node000013" class="edge">
<title>Node15&#45;&gt;Node13</title>
<g id="a_edge21_Node000015_Node000013"><a xlink:title=" ">
<path fill="none" stroke="#63b8ff" d="M458.89,-190.54C464.67,-187.88 470.55,-184.8 475.75,-181.38 500.38,-165.15 524.54,-141.23 540.02,-124.58"/>
<polygon fill="#63b8ff" stroke="#63b8ff" points="542.52,-127.04 546.66,-117.29 537.34,-122.33 542.52,-127.04"/>
</a>
</g>
</g>
<!-- Node16 -->
<g id="Node000016" class="node">
<title>Node16</title>
<g id="a_Node000016"><a xlink:href="../../de/d25/a00290.html#ac9adcf7339be4a05ab1a7350c236b8a5" target="_top" xlink:title="Draw a box around the specified window.">
<polygon fill="white" stroke="#666666" points="577.62,-211.75 538.38,-211.75 538.38,-191 577.62,-191 577.62,-211.75"/>
<text xml:space="preserve" text-anchor="middle" x="558" y="-198.25" font-family="Helvetica,sans-Serif" font-size="10.00">cbox</text>
</a>
</g>
</g>
<!-- Node15&#45;&gt;Node16 -->
<g id="edge20_Node000015_Node000016" class="edge">
<title>Node15&#45;&gt;Node16</title>
<g id="a_edge20_Node000015_Node000016"><a xlink:title=" ">
<path fill="none" stroke="#63b8ff" d="M458.91,-201.38C479.21,-201.38 506.32,-201.38 526.9,-201.38"/>
<polygon fill="#63b8ff" stroke="#63b8ff" points="526.64,-204.88 536.64,-201.38 526.64,-197.88 526.64,-204.88"/>
</a>
</g>
</g>
<!-- Node17&#45;&gt;Node6 -->
<g id="edge23_Node000017_Node000006" class="edge">
<title>Node17&#45;&gt;Node6</title>
<g id="a_edge23_Node000017_Node000006"><a xlink:title=" ">
<path fill="none" stroke="#63b8ff" d="M400.02,-389.15C394.2,-386.78 388.13,-384.04 382.5,-381.38 363.01,-372.17 341.05,-360.92 325.98,-351.32"/>
<polygon fill="#63b8ff" stroke="#63b8ff" points="328.24,-348.62 318.01,-345.85 324.27,-354.39 328.24,-348.62"/>
</a>
</g>
</g>
<!-- Node18 -->
<g id="Node000018" class="node">
<title>Node18</title>
<g id="a_Node000018"><a xlink:href="../../de/d25/a00290.html#a4298f891699300bfc4e6e56fd2a8d574" target="_top" xlink:title="Get keycode from chyron.">
<polygon fill="white" stroke="#666666" points="604.25,-402.75 511.75,-402.75 511.75,-382 604.25,-382 604.25,-402.75"/>
<text xml:space="preserve" text-anchor="middle" x="558" y="-389.25" font-family="Helvetica,sans-Serif" font-size="10.00">get_chyron_key</text>
</a>
</g>
</g>
<!-- Node17&#45;&gt;Node18 -->
<g id="edge24_Node000017_Node000018" class="edge">
<title>Node17&#45;&gt;Node18</title>
<g id="a_edge24_Node000017_Node000018"><a xlink:title=" ">
<path fill="none" stroke="#63b8ff" d="M457.97,-392.38C470.29,-392.38 485.25,-392.38 499.78,-392.38"/>
<polygon fill="#63b8ff" stroke="#63b8ff" points="499.76,-395.88 509.76,-392.38 499.76,-388.88 499.76,-395.88"/>
</a>
</g>
</g>
<!-- Node19&#45;&gt;Node6 -->
<g id="edge26_Node000019_Node000006" class="edge">
<title>Node19&#45;&gt;Node6</title>
<g id="a_edge26_Node000019_Node000006"><a xlink:title=" ">
<path fill="none" stroke="#63b8ff" d="M231.02,-334.38C238.93,-334.38 247.16,-334.38 255.15,-334.38"/>
<polygon fill="#63b8ff" stroke="#63b8ff" points="255.1,-337.88 265.1,-334.38 255.1,-330.88 255.1,-337.88"/>
</a>
</g>
</g>
<!-- Node19&#45;&gt;Node12 -->
<g id="edge27_Node000019_Node000012" class="edge">
<title>Node19&#45;&gt;Node12</title>
<g id="a_edge27_Node000019_Node000012"><a xlink:title=" ">
<path fill="none" stroke="#63b8ff" d="M190.6,-345.08C212.58,-379.58 287.38,-487.9 382.5,-526.38 430.02,-545.6 489.67,-527.05 525.49,-511.78"/>
<polygon fill="#63b8ff" stroke="#63b8ff" points="526.7,-515.07 534.41,-507.81 523.86,-508.68 526.7,-515.07"/>
</a>
</g>
</g>
<!-- Node19&#45;&gt;Node13 -->
<g id="edge28_Node000019_Node000013" class="edge">
<title>Node19&#45;&gt;Node13</title>
<g id="a_edge28_Node000019_Node000013"><a xlink:title=" ">
<path fill="none" stroke="#63b8ff" d="M189.03,-323.53C207.78,-284.55 277.98,-151.37 382.5,-103.38 423.49,-84.55 475.83,-88.3 512.45,-94.73"/>
<polygon fill="#63b8ff" stroke="#63b8ff" points="511.78,-98.17 522.26,-96.61 513.1,-91.29 511.78,-98.17"/>
</a>
</g>
</g>
</g>
</svg>

<g id="navigator" transform="translate(0 0)" fill="#404254">
  <rect fill="#f2f5e9" fill-opacity="0.5" stroke="#606060" stroke-width=".5" x="0" y="0" width="60" height="60"/>
  <use id="zoomplus" xlink:href="#zoomPlus" x="17" y="9" onmousedown="handleZoom(evt,'in')"/>
  <use id="zoomminus" xlink:href="#zoomMin" x="42" y="9" onmousedown="handleZoom(evt,'out')"/>
  <use id="reset" xlink:href="#resetDef" x="30" y="36" onmousedown="handleReset()"/>
   <use id="arrowup" xlink:href="#arrowUp" x="0" y="0" onmousedown="handlePan(0,-1)"/>
  <use id="arrowright" xlink:href="#arrowRight" x="0" y="0" onmousedown="handlePan(1,0)"/>
  <use id="arrowdown" xlink:href="#arrowDown" x="0" y="0" onmousedown="handlePan(0,1)"/>
  <use id="arrowleft" xlink:href="#arrowLeft" x="0" y="0" onmousedown="handlePan(-1,0)"/>
</g>
<svg viewBox="0 0 15 15" width="100%" height="30px" preserveAspectRatio="xMaxYMin meet">
 <g id="arrow_out" transform="scale(0.3 0.3)">
  <a xlink:href="a00233_a23739f53779b30a5d3da63b0a97be85b_cgraph_org.svg" target="_base">
   <rect id="button" ry="5" rx="5" y="6" x="6" height="38" width="38"
        fill="#f2f5e9" fill-opacity="0.5" stroke="#606060" stroke-width="1.0"/>
   <path id="arrow"
     d="M 11.500037,31.436501 C 11.940474,20.09759 22.043105,11.32322 32.158766,21.979434 L 37.068811,17.246167 C 37.068811,17.246167 37.088388,32 37.088388,32 L 22.160133,31.978069 C 22.160133,31.978069 26.997745,27.140456 26.997745,27.140456 C 18.528582,18.264221 13.291696,25.230495 11.500037,31.436501 z"
     style="fill:#404040;"/>
  </a>
 </g>
</svg>

<style type='text/css'>
<![CDATA[
[data-mouse-over-selected='false'] { opacity: 0.7; }
[data-mouse-over-selected='true']  { opacity: 1.0; }
]]>
</style>
<script type="application/ecmascript"><![CDATA[
document.addEventListener('DOMContentLoaded', (event) => {
  highlightEdges();
  highlightAdjacentNodes();
});
]]></script>
</svg>
