<?xml version="1.0" encoding="UTF-8" standalone="no"?>
<!DOCTYPE svg PUBLIC "-//W3C//DTD SVG 1.1//EN"
 "http://www.w3.org/Graphics/SVG/1.1/DTD/svg11.dtd">
<!-- Generated by graphviz version 14.1.2 (0)
 -->
<!-- Title: form_exec_cmd Pages: 1 -->
<!--zoomable 741 -->

<svg id="main" version="1.1" xmlns="http://www.w3.org/2000/svg" xmlns:xlink="http://www.w3.org/1999/xlink" xml:space="preserve" onload="init(evt)">

<style type="text/css"><![CDATA[
.node, .edge {opacity: 0.7;}
.node.selected, .edge.selected {opacity: 1;}
.edge:hover path { stroke: red; }
.edge:hover polygon { stroke: red; fill: red; }
]]></style>

<defs>
  <circle id="rim" cx="0" cy="0" r="7"/>
  <circle id="rim2" cx="0" cy="0" r="3.5"/>
  <g id="zoomPlus">
    <use xlink:href="#rim" fill="#404040"><set attributeName="fill" to="#808080" begin="zoomplus.mouseover" end="zoomplus.mouseout"/></use>
    <path d="M-4,0h8M0,-4v8" fill="none" stroke="white" stroke-width="1.5" pointer-events="none"/>
  </g>
  <g id="zoomMin">
    <use xlink:href="#rim" fill="#404040"><set attributeName="fill" to="#808080" begin="zoomminus.mouseover" end="zoomminus.mouseout"/></use>
    <path d="M-4,0h8" fill="none" stroke="white" stroke-width="1.5" pointer-events="none"/>
  </g>
  <g id="arrowUp" transform="translate(30 24)">
    <use xlink:href="#rim"/>
    <path pointer-events="none" fill="none" stroke="white" stroke-width="1.5" d="M0,-3.0v7 M-2.5,-0.5L0,-3.0L2.5,-0.5"/>
  </g>
  <g id="arrowRight" transform="rotate(90) translate(36 -43)">
    <use xlink:href="#rim"/>
    <path pointer-events="none" fill="none" stroke="white" stroke-width="1.5" d="M0,-3.0v7 M-2.5,-0.5L0,-3.0L2.5,-0.5"/>
  </g>
  <g id="arrowDown" transform="rotate(180) translate(-30 -48)">
    <use xlink:href="#rim"/>
    <path pointer-events="none" fill="none" stroke="white" stroke-width="1.5" d="M0,-3.0v7 M-2.5,-0.5L0,-3.0L2.5,-0.5"/>
  </g>
  <g id="arrowLeft" transform="rotate(270) translate(-36 17)">
    <use xlink:href="#rim"/>
    <path pointer-events="none" fill="none" stroke="white" stroke-width="1.5" d="M0,-3.0v7 M-2.5,-0.5L0,-3.0L2.5,-0.5"/>
  </g>
  <g id="resetDef">
    <use xlink:href="#rim2" fill="#404040"><set attributeName="fill" to="#808080" begin="reset.mouseover" end="reset.mouseout"/></use>
  </g>
</defs>
<script type="application/ecmascript">
var viewWidth = 1188;
var viewHeight = 741;
var sectionId = 'dynsection-17';
</script>
<script type="application/ecmascript" xlink:href="../../svg.min.js"/>
<svg id="graph" class="graph">
<g id="viewport">
<title>form_exec_cmd</title>
<!-- Node1 -->
<g id="Node000001" class="node">
<title>Node1</title>
<g id="a_Node000001"><a xlink:title="Execute a provider command specified in the form description file, passing form field values as argum...">
<polygon fill="#999999" stroke="#666666" points="94,-48.38 0,-48.38 0,-27.62 94,-27.62 94,-48.38"/>
<text xml:space="preserve" text-anchor="middle" x="47" y="-34.88" font-family="Helvetica,sans-Serif" font-size="10.00">form_exec_cmd</text>
</a>
</g>
</g>
<!-- Node2 -->
<g id="Node000002" class="node">
<title>Node2</title>
<g id="a_Node000002"><a xlink:href="../../d1/da8/a00230.html#a5c3ffccf49f08359334198f7fce3f9df" target="_top" xlink:title="Execute a shell command.">
<polygon fill="white" stroke="#666666" points="169.25,-332.38 130,-332.38 130,-311.62 169.25,-311.62 169.25,-332.38"/>
<text xml:space="preserve" text-anchor="middle" x="149.62" y="-318.88" font-family="Helvetica,sans-Serif" font-size="10.00">shell</text>
</a>
</g>
</g>
<!-- Node1&#45;&gt;Node2 -->
<g id="edge1_Node000001_Node000002" class="edge">
<title>Node1&#45;&gt;Node2</title>
<g id="a_edge1_Node000001_Node000002"><a xlink:title=" ">
<path fill="none" stroke="#63b8ff" d="M51.82,-48.79C66.7,-90.79 120.94,-243.86 141.05,-300.63"/>
<polygon fill="#63b8ff" stroke="#63b8ff" points="137.66,-301.52 144.29,-309.78 144.25,-299.18 137.66,-301.52"/>
</a>
</g>
</g>
<!-- Node11 -->
<g id="Node000011" class="node">
<title>Node11</title>
<g id="a_Node000011"><a xlink:href="../../db/dc3/a00284.html#aa0145c044cfdde3a1c83323410a59f25" target="_top" xlink:title="safer alternative to strncat">
<polygon fill="white" stroke="#666666" points="908.38,-67.38 842.88,-67.38 842.88,-46.62 908.38,-46.62 908.38,-67.38"/>
<text xml:space="preserve" text-anchor="middle" x="875.62" y="-53.88" font-family="Helvetica,sans-Serif" font-size="10.00">strnz__cat</text>
</a>
</g>
</g>
<!-- Node1&#45;&gt;Node11 -->
<g id="edge45_Node000001_Node000011" class="edge">
<title>Node1&#45;&gt;Node11</title>
<g id="a_edge45_Node000001_Node000011"><a xlink:title=" ">
<path fill="none" stroke="#63b8ff" d="M80.92,-27.21C118.18,-15.98 180.9,0 236.25,0 236.25,0 236.25,0 631.25,0 705.37,0 788.93,-25.37 836.33,-42.26"/>
<polygon fill="#63b8ff" stroke="#63b8ff" points="835,-45.5 845.59,-45.63 837.39,-38.92 835,-45.5"/>
</a>
</g>
</g>
<!-- Node16 -->
<g id="Node000016" class="node">
<title>Node16</title>
<g id="a_Node000016"><a xlink:href="../../db/dc3/a00284.html#a0de2e40df9bd7efc8fd9afb8ad2257e6" target="_top" xlink:title="safer alternative to strncpy">
<polygon fill="white" stroke="#666666" points="909.5,-247.38 841.75,-247.38 841.75,-226.62 909.5,-226.62 909.5,-247.38"/>
<text xml:space="preserve" text-anchor="middle" x="875.62" y="-233.88" font-family="Helvetica,sans-Serif" font-size="10.00">strnz__cpy</text>
</a>
</g>
</g>
<!-- Node1&#45;&gt;Node16 -->
<g id="edge46_Node000001_Node000016" class="edge">
<title>Node1&#45;&gt;Node16</title>
<g id="a_edge46_Node000001_Node000016"><a xlink:title=" ">
<path fill="none" stroke="#63b8ff" d="M94.42,-38C132.52,-38 187.88,-38 236.25,-38 236.25,-38 236.25,-38 366,-38 563.08,-38 652.91,29.42 805.75,-95 843.68,-125.88 817.31,-156.63 841.75,-199 845.58,-205.64 850.66,-212.21 855.68,-217.96"/>
<polygon fill="#63b8ff" stroke="#63b8ff" points="852.94,-220.15 862.29,-225.12 858.08,-215.4 852.94,-220.15"/>
</a>
</g>
</g>
<!-- Node3 -->
<g id="Node000003" class="node">
<title>Node3</title>
<g id="a_Node000003"><a xlink:href="../../d1/da8/a00230.html#a386fad82c5208c7d3b2a5060882974f3" target="_top" xlink:title="Fork and exec a command.">
<polygon fill="white" stroke="#666666" points="269.25,-578.38 205.25,-578.38 205.25,-557.62 269.25,-557.62 269.25,-578.38"/>
<text xml:space="preserve" text-anchor="middle" x="237.25" y="-564.88" font-family="Helvetica,sans-Serif" font-size="10.00">fork_exec</text>
</a>
</g>
</g>
<!-- Node2&#45;&gt;Node3 -->
<g id="edge2_Node000002_Node000003" class="edge">
<title>Node2&#45;&gt;Node3</title>
<g id="a_edge2_Node000002_Node000003"><a xlink:title=" ">
<path fill="none" stroke="#63b8ff" d="M154.3,-332.57C167.28,-369.86 211.1,-495.75 228.77,-546.52"/>
<polygon fill="#63b8ff" stroke="#63b8ff" points="225.4,-547.47 231.99,-555.76 232.01,-545.17 225.4,-547.47"/>
</a>
</g>
</g>
<!-- Node4 -->
<g id="Node000004" class="node">
<title>Node4</title>
<g id="a_Node000004"><a xlink:href="../../db/d7b/a00296.html#a4d0a6767e791cf93a268ebe9ba02aa24" target="_top" xlink:title="capture_curses_tioctl() &#45; capture curses terminal settings">
<polygon fill="white" stroke="#666666" points="424.75,-578.38 305.25,-578.38 305.25,-557.62 424.75,-557.62 424.75,-578.38"/>
<text xml:space="preserve" text-anchor="middle" x="365" y="-564.88" font-family="Helvetica,sans-Serif" font-size="10.00">capture_curses_tioctl</text>
</a>
</g>
</g>
<!-- Node3&#45;&gt;Node4 -->
<g id="edge3_Node000003_Node000004" class="edge">
<title>Node3&#45;&gt;Node4</title>
<g id="a_edge3_Node000003_Node000004"><a xlink:title=" ">
<path fill="none" stroke="#63b8ff" d="M269.66,-568C277.06,-568 285.25,-568 293.61,-568"/>
<polygon fill="#63b8ff" stroke="#63b8ff" points="293.56,-571.5 303.56,-568 293.56,-564.5 293.56,-571.5"/>
</a>
</g>
</g>
<!-- Node5 -->
<g id="Node000005" class="node">
<title>Node5</title>
<g id="a_Node000005"><a xlink:href="../../de/d25/a00290.html#a61b4f28456257f68ed042bed7f187efd" target="_top" xlink:title="Display a simple error message window or print to stderr.">
<polygon fill="white" stroke="#666666" points="387.62,-353.38 342.38,-353.38 342.38,-332.62 387.62,-332.62 387.62,-353.38"/>
<text xml:space="preserve" text-anchor="middle" x="365" y="-339.88" font-family="Helvetica,sans-Serif" font-size="10.00">Perror</text>
</a>
</g>
</g>
<!-- Node3&#45;&gt;Node5 -->
<g id="edge4_Node000003_Node000005" class="edge">
<title>Node3&#45;&gt;Node5</title>
<g id="a_edge4_Node000003_Node000005"><a xlink:title=" ">
<path fill="none" stroke="#63b8ff" d="M244.32,-557.15C264.03,-521.88 326.51,-410.09 352.49,-363.59"/>
<polygon fill="#63b8ff" stroke="#63b8ff" points="355.43,-365.5 357.26,-355.06 349.32,-362.09 355.43,-365.5"/>
</a>
</g>
</g>
<!-- Node8 -->
<g id="Node000008" class="node">
<title>Node8</title>
<g id="a_Node000008"><a xlink:href="../../db/d7b/a00296.html#ac5e3adb304b78910fc77761ef6a743f0" target="_top" xlink:title="restore_shell_tioctl() &#45; restore shell terminal settings">
<polygon fill="white" stroke="#666666" points="1180,-619.38 1071,-619.38 1071,-598.62 1180,-598.62 1180,-619.38"/>
<text xml:space="preserve" text-anchor="middle" x="1125.5" y="-605.88" font-family="Helvetica,sans-Serif" font-size="10.00">restore_shell_tioctl</text>
</a>
</g>
</g>
<!-- Node3&#45;&gt;Node8 -->
<g id="edge38_Node000003_Node000008" class="edge">
<title>Node3&#45;&gt;Node8</title>
<g id="a_edge38_Node000003_Node000008"><a xlink:title=" ">
<path fill="none" stroke="#63b8ff" d="M269.56,-557.19C280.69,-553.86 293.39,-550.65 305.25,-549 357.85,-541.69 371.7,-546.4 424.75,-549 610.75,-558.12 656.16,-574.64 841.75,-590 916.18,-596.16 1001.75,-601.69 1059.09,-605.18"/>
<polygon fill="#63b8ff" stroke="#63b8ff" points="1058.82,-608.67 1069.01,-605.78 1059.24,-601.68 1058.82,-608.67"/>
</a>
</g>
</g>
<!-- Node9 -->
<g id="Node000009" class="node">
<title>Node9</title>
<g id="a_Node000009"><a xlink:href="../../dd/dd7/a00248.html#a06c1eb6cf3649dc187115565409f91af" target="_top" xlink:title="Set signal handlers to default behavior.">
<polygon fill="white" stroke="#666666" points="1166.12,-695.38 1084.88,-695.38 1084.88,-674.62 1166.12,-674.62 1166.12,-695.38"/>
<text xml:space="preserve" text-anchor="middle" x="1125.5" y="-681.88" font-family="Helvetica,sans-Serif" font-size="10.00">sig_dfl_mode</text>
</a>
</g>
</g>
<!-- Node3&#45;&gt;Node9 -->
<g id="edge40_Node000003_Node000009" class="edge">
<title>Node3&#45;&gt;Node9</title>
<g id="a_edge40_Node000003_Node000009"><a xlink:title=" ">
<path fill="none" stroke="#63b8ff" d="M239.95,-578.78C244.75,-605.24 261.07,-673.49 305.25,-704 378.04,-754.26 414.92,-723 503.38,-723 503.38,-723 503.38,-723 876.62,-723 945.29,-723 1023.43,-708.58 1073.31,-697.5"/>
<polygon fill="#63b8ff" stroke="#63b8ff" points="1073.98,-700.94 1082.96,-695.32 1072.43,-694.11 1073.98,-700.94"/>
</a>
</g>
</g>
<!-- Node15 -->
<g id="Node000015" class="node">
<title>Node15</title>
<g id="a_Node000015"><a xlink:href="../../db/dc3/a00284.html#a63eb94756fb011a456a3dec900709cd8" target="_top" xlink:title="ssnprintf was designed to be a safer alternative to snprintf.">
<polygon fill="white" stroke="#666666" points="905,-190.38 846.25,-190.38 846.25,-169.62 905,-169.62 905,-190.38"/>
<text xml:space="preserve" text-anchor="middle" x="875.62" y="-176.88" font-family="Helvetica,sans-Serif" font-size="10.00">ssnprintf</text>
</a>
</g>
</g>
<!-- Node3&#45;&gt;Node15 -->
<g id="edge44_Node000003_Node000015" class="edge">
<title>Node3&#45;&gt;Node15</title>
<g id="a_edge44_Node000003_Node000015"><a xlink:title=" ">
<path fill="none" stroke="#63b8ff" d="M239.12,-557.24C244.63,-497 280.59,-200.86 460.75,-100 594.56,-25.09 667.84,-27.93 805.75,-95 833.4,-108.45 853.63,-138.88 864.76,-159.44"/>
<polygon fill="#63b8ff" stroke="#63b8ff" points="861.5,-160.76 869.18,-168.06 867.73,-157.57 861.5,-160.76"/>
</a>
</g>
</g>
<!-- Node23 -->
<g id="Node000023" class="node">
<title>Node23</title>
<g id="a_Node000023"><a xlink:href="../../db/d7b/a00296.html#a1c8e0f0a02e08c783231a20093fb8410" target="_top" xlink:title="restore_curses_tioctl() &#45; restore curses terminal settings">
<polygon fill="white" stroke="#666666" points="423.62,-656.38 306.38,-656.38 306.38,-635.62 423.62,-635.62 423.62,-656.38"/>
<text xml:space="preserve" text-anchor="middle" x="365" y="-642.88" font-family="Helvetica,sans-Serif" font-size="10.00">restore_curses_tioctl</text>
</a>
</g>
</g>
<!-- Node3&#45;&gt;Node23 -->
<g id="edge37_Node000003_Node000023" class="edge">
<title>Node3&#45;&gt;Node23</title>
<g id="a_edge37_Node000003_Node000023"><a xlink:title=" ">
<path fill="none" stroke="#63b8ff" d="M248.17,-578.83C260.46,-591.68 282.56,-612.99 305.25,-626 308.24,-627.71 311.4,-629.31 314.63,-630.8"/>
<polygon fill="#63b8ff" stroke="#63b8ff" points="313.17,-633.98 323.75,-634.57 315.85,-627.51 313.17,-633.98"/>
</a>
</g>
</g>
<!-- Node24 -->
<g id="Node000024" class="node">
<title>Node24</title>
<g id="a_Node000024"><a xlink:href="../../de/d25/a00290.html#a40858af5b0d68549fb483f77c97eb82c" target="_top" xlink:title="Restore all windows after a screen resize.">
<polygon fill="white" stroke="#666666" points="404.12,-617.38 325.88,-617.38 325.88,-596.62 404.12,-596.62 404.12,-617.38"/>
<text xml:space="preserve" text-anchor="middle" x="365" y="-603.88" font-family="Helvetica,sans-Serif" font-size="10.00">restore_wins</text>
</a>
</g>
</g>
<!-- Node3&#45;&gt;Node24 -->
<g id="edge39_Node000003_Node000024" class="edge">
<title>Node3&#45;&gt;Node24</title>
<g id="a_edge39_Node000003_Node000024"><a xlink:title=" ">
<path fill="none" stroke="#63b8ff" d="M269.66,-577.74C284.32,-582.29 302.05,-587.79 318.17,-592.79"/>
<polygon fill="#63b8ff" stroke="#63b8ff" points="316.97,-596.08 327.56,-595.7 319.05,-589.39 316.97,-596.08"/>
</a>
</g>
</g>
<!-- Node25 -->
<g id="Node000025" class="node">
<title>Node25</title>
<g id="a_Node000025"><a xlink:href="../../dd/dd7/a00248.html#aca2de03f6d52d4b11237990e4e605177" target="_top" xlink:title="Set up signal handlers for interrupt signals.">
<polygon fill="white" stroke="#666666" points="410.12,-695.38 319.88,-695.38 319.88,-674.62 410.12,-674.62 410.12,-695.38"/>
<text xml:space="preserve" text-anchor="middle" x="365" y="-681.88" font-family="Helvetica,sans-Serif" font-size="10.00">sig_prog_mode</text>
</a>
</g>
</g>
<!-- Node3&#45;&gt;Node25 -->
<g id="edge41_Node000003_Node000025" class="edge">
<title>Node3&#45;&gt;Node25</title>
<g id="a_edge41_Node000003_Node000025"><a xlink:title=" ">
<path fill="none" stroke="#63b8ff" d="M242.84,-578.71C251.89,-598.59 273.9,-641.31 305.25,-665 307.24,-666.5 309.35,-667.9 311.54,-669.19"/>
<polygon fill="#63b8ff" stroke="#63b8ff" points="309.72,-672.19 320.22,-673.57 312.86,-665.94 309.72,-672.19"/>
</a>
</g>
</g>
<!-- Node6 -->
<g id="Node000006" class="node">
<title>Node6</title>
<g id="a_Node000006"><a xlink:href="../../de/d25/a00290.html#a8f6c45ca4a7f6a41c4c88314e697565a" target="_top" xlink:title="Abnormal program termination.">
<polygon fill="white" stroke="#666666" points="898.62,-581.38 852.62,-581.38 852.62,-560.62 898.62,-560.62 898.62,-581.38"/>
<text xml:space="preserve" text-anchor="middle" x="875.62" y="-567.88" font-family="Helvetica,sans-Serif" font-size="10.00">abend</text>
</a>
</g>
</g>
<!-- Node5&#45;&gt;Node6 -->
<g id="edge5_Node000005_Node000006" class="edge">
<title>Node5&#45;&gt;Node6</title>
<g id="a_edge5_Node000005_Node000006"><a xlink:title=" ">
<path fill="none" stroke="#63b8ff" d="M373.92,-353.71C388.84,-373.16 423,-414.46 460.75,-438 588.14,-517.44 767.46,-553.73 841.08,-565.96"/>
<polygon fill="#63b8ff" stroke="#63b8ff" points="840.44,-569.4 850.87,-567.54 841.56,-562.49 840.44,-569.4"/>
</a>
</g>
</g>
<!-- Node10 -->
<g id="Node000010" class="node">
<title>Node10</title>
<g id="a_Node000010"><a xlink:href="../../de/d25/a00290.html#a645871e46277e31736bc36d0f3dce4bd" target="_top" xlink:title="construct the chyron string from the chyron structure">
<polygon fill="white" stroke="#666666" points="805.75,-124.38 712.5,-124.38 712.5,-103.62 805.75,-103.62 805.75,-124.38"/>
<text xml:space="preserve" text-anchor="middle" x="759.12" y="-110.88" font-family="Helvetica,sans-Serif" font-size="10.00">compile_chyron</text>
</a>
</g>
</g>
<!-- Node5&#45;&gt;Node10 -->
<g id="edge11_Node000005_Node000010" class="edge">
<title>Node5&#45;&gt;Node10</title>
<g id="a_edge11_Node000005_Node000010"><a xlink:title=" ">
<path fill="none" stroke="#63b8ff" d="M367.26,-332.13C371.96,-297.01 391.94,-186.01 460.75,-138 531.68,-88.51 636.59,-93.37 700.98,-102.73"/>
<polygon fill="#63b8ff" stroke="#63b8ff" points="700.21,-106.16 710.63,-104.23 701.28,-99.24 700.21,-106.16"/>
</a>
</g>
</g>
<!-- Node12 -->
<g id="Node000012" class="node">
<title>Node12</title>
<g id="a_Node000012"><a xlink:href="../../de/d25/a00290.html#a3f3feb40fd703913c5c136331f627c91" target="_top" xlink:title="Destroy Chyron structure.">
<polygon fill="white" stroke="#666666" points="804.62,-466.38 713.62,-466.38 713.62,-445.62 804.62,-445.62 804.62,-466.38"/>
<text xml:space="preserve" text-anchor="middle" x="759.12" y="-452.88" font-family="Helvetica,sans-Serif" font-size="10.00">destroy_chyron</text>
</a>
</g>
</g>
<!-- Node5&#45;&gt;Node12 -->
<g id="edge13_Node000005_Node000012" class="edge">
<title>Node5&#45;&gt;Node12</title>
<g id="a_edge13_Node000005_Node000012"><a xlink:title=" ">
<path fill="none" stroke="#63b8ff" d="M387.93,-352.45C406.96,-360.43 435.37,-371.83 460.75,-380 543.67,-406.68 641.94,-430.27 702.15,-443.85"/>
<polygon fill="#63b8ff" stroke="#63b8ff" points="701.31,-447.24 711.83,-446.01 702.84,-440.41 701.31,-447.24"/>
</a>
</g>
</g>
<!-- Node13 -->
<g id="Node000013" class="node">
<title>Node13</title>
<g id="a_Node000013"><a xlink:href="../../de/d25/a00290.html#ad37d5808ff30ae6894780425d865abae" target="_top" xlink:title="Create and initialize Chyron structure.">
<polygon fill="white" stroke="#666666" points="796.38,-505.38 721.88,-505.38 721.88,-484.62 796.38,-484.62 796.38,-505.38"/>
<text xml:space="preserve" text-anchor="middle" x="759.12" y="-491.88" font-family="Helvetica,sans-Serif" font-size="10.00">new_chyron</text>
</a>
</g>
</g>
<!-- Node5&#45;&gt;Node13 -->
<g id="edge14_Node000005_Node000013" class="edge">
<title>Node5&#45;&gt;Node13</title>
<g id="a_edge14_Node000005_Node000013"><a xlink:title=" ">
<path fill="none" stroke="#63b8ff" d="M379.02,-353.71C396.59,-367.71 429.33,-392.18 460.75,-407 544.69,-446.61 650.43,-472.78 710.54,-485.65"/>
<polygon fill="#63b8ff" stroke="#63b8ff" points="709.59,-489.02 720.1,-487.66 711.03,-482.17 709.59,-489.02"/>
</a>
</g>
</g>
<!-- Node14 -->
<g id="Node000014" class="node">
<title>Node14</title>
<g id="a_Node000014"><a xlink:href="../../de/d25/a00290.html#a208ce92c197fdd6d2b007987e534aa3b" target="_top" xlink:title="Set chyron key.">
<polygon fill="white" stroke="#666666" points="805,-200.38 713.25,-200.38 713.25,-179.62 805,-179.62 805,-200.38"/>
<text xml:space="preserve" text-anchor="middle" x="759.12" y="-186.88" font-family="Helvetica,sans-Serif" font-size="10.00">set_chyron_key</text>
</a>
</g>
</g>
<!-- Node5&#45;&gt;Node14 -->
<g id="edge16_Node000005_Node000014" class="edge">
<title>Node5&#45;&gt;Node14</title>
<g id="a_edge16_Node000005_Node000014"><a xlink:title=" ">
<path fill="none" stroke="#63b8ff" d="M370.17,-332.24C380.77,-306.5 411.49,-241.48 460.75,-214 535.91,-172.07 638.78,-174.46 701.73,-181.3"/>
<polygon fill="#63b8ff" stroke="#63b8ff" points="701.16,-184.76 711.5,-182.44 701.97,-177.8 701.16,-184.76"/>
</a>
</g>
</g>
<!-- Node5&#45;&gt;Node15 -->
<g id="edge18_Node000005_Node000015" class="edge">
<title>Node5&#45;&gt;Node15</title>
<g id="a_edge18_Node000005_Node000015"><a xlink:title=" ">
<path fill="none" stroke="#63b8ff" d="M368.51,-332.15C376.19,-301.78 402.45,-215.79 460.75,-180 579.82,-106.92 756.77,-144.85 834.99,-167.32"/>
<polygon fill="#63b8ff" stroke="#63b8ff" points="833.76,-170.61 844.34,-170.08 835.74,-163.89 833.76,-170.61"/>
</a>
</g>
</g>
<!-- Node5&#45;&gt;Node16 -->
<g id="edge19_Node000005_Node000016" class="edge">
<title>Node5&#45;&gt;Node16</title>
<g id="a_edge19_Node000005_Node000016"><a xlink:title=" ">
<path fill="none" stroke="#63b8ff" d="M380.95,-332.26C398.98,-319.86 430.62,-299.77 460.75,-289 589.17,-243.08 752.64,-236.58 830.08,-236.35"/>
<polygon fill="#63b8ff" stroke="#63b8ff" points="829.79,-239.85 839.8,-236.36 829.8,-232.85 829.79,-239.85"/>
</a>
</g>
</g>
<!-- Node17 -->
<g id="Node000017" class="node">
<title>Node17</title>
<g id="a_Node000017"><a xlink:href="../../de/d25/a00290.html#a9dd598e1d49c8764af1eec42c682623e" target="_top" xlink:title="Delete the current window and its associated box window.">
<polygon fill="white" stroke="#666666" points="785.88,-276.38 732.38,-276.38 732.38,-255.62 785.88,-255.62 785.88,-276.38"/>
<text xml:space="preserve" text-anchor="middle" x="759.12" y="-262.88" font-family="Helvetica,sans-Serif" font-size="10.00">win_del</text>
</a>
</g>
</g>
<!-- Node5&#45;&gt;Node17 -->
<g id="edge20_Node000005_Node000017" class="edge">
<title>Node5&#45;&gt;Node17</title>
<g id="a_edge20_Node000005_Node000017"><a xlink:title=" ">
<path fill="none" stroke="#63b8ff" d="M388.03,-335.95C427.09,-323.72 511.23,-298.57 584,-285 630.73,-276.29 685.32,-271.13 720.75,-268.43"/>
<polygon fill="#63b8ff" stroke="#63b8ff" points="720.76,-271.94 730.48,-267.72 720.25,-264.96 720.76,-271.94"/>
</a>
</g>
</g>
<!-- Node18 -->
<g id="Node000018" class="node">
<title>Node18</title>
<g id="a_Node000018"><a xlink:href="../../de/d25/a00290.html#a435c7bff7ffedb8f51c6de9259e36f6c" target="_top" xlink:title="Create a new window with optional box and title.">
<polygon fill="white" stroke="#666666" points="788.5,-390.38 729.75,-390.38 729.75,-369.62 788.5,-369.62 788.5,-390.38"/>
<text xml:space="preserve" text-anchor="middle" x="759.12" y="-376.88" font-family="Helvetica,sans-Serif" font-size="10.00">win_new</text>
</a>
</g>
</g>
<!-- Node5&#45;&gt;Node18 -->
<g id="edge21_Node000005_Node000018" class="edge">
<title>Node5&#45;&gt;Node18</title>
<g id="a_edge21_Node000005_Node000018"><a xlink:title=" ">
<path fill="none" stroke="#63b8ff" d="M388.06,-348.32C407.18,-352.71 435.63,-358.74 460.75,-362 552.21,-373.88 660.54,-377.94 717.86,-379.32"/>
<polygon fill="#63b8ff" stroke="#63b8ff" points="717.71,-382.81 727.78,-379.54 717.86,-375.81 717.71,-382.81"/>
</a>
</g>
</g>
<!-- Node20 -->
<g id="Node000020" class="node">
<title>Node20</title>
<g id="a_Node000020"><a xlink:href="../../de/d25/a00290.html#acf4c709bccc4c965a5d61db978db31a3" target="_top" xlink:title="Wrapper for wgetch that handles signals and mouse events.">
<polygon fill="white" stroke="#666666" points="533,-353.38 475.75,-353.38 475.75,-332.62 533,-332.62 533,-353.38"/>
<text xml:space="preserve" text-anchor="middle" x="504.38" y="-339.88" font-family="Helvetica,sans-Serif" font-size="10.00">xwgetch</text>
</a>
</g>
</g>
<!-- Node5&#45;&gt;Node20 -->
<g id="edge24_Node000005_Node000020" class="edge">
<title>Node5&#45;&gt;Node20</title>
<g id="a_edge24_Node000005_Node000020"><a xlink:title=" ">
<path fill="none" stroke="#63b8ff" d="M388.07,-343C408.63,-343 439.74,-343 464.47,-343"/>
<polygon fill="#63b8ff" stroke="#63b8ff" points="464.15,-346.5 474.15,-343 464.15,-339.5 464.15,-346.5"/>
</a>
</g>
</g>
<!-- Node7 -->
<g id="Node000007" class="node">
<title>Node7</title>
<g id="a_Node000007"><a xlink:href="../../de/d25/a00290.html#afc0985a403e3eac0b2cd8f0fab500256" target="_top" xlink:title="Gracefully shut down NCurses and restore terminal settings.">
<polygon fill="white" stroke="#666666" points="1035,-657.38 945.5,-657.38 945.5,-636.62 1035,-636.62 1035,-657.38"/>
<text xml:space="preserve" text-anchor="middle" x="990.25" y="-643.88" font-family="Helvetica,sans-Serif" font-size="10.00">destroy_curses</text>
</a>
</g>
</g>
<!-- Node6&#45;&gt;Node7 -->
<g id="edge6_Node000006_Node000007" class="edge">
<title>Node6&#45;&gt;Node7</title>
<g id="a_edge6_Node000006_Node000007"><a xlink:title=" ">
<path fill="none" stroke="#63b8ff" d="M892.29,-581.57C910.84,-594.09 942,-615.12 963.98,-629.95"/>
<polygon fill="#63b8ff" stroke="#63b8ff" points="961.86,-632.74 972.11,-635.43 965.77,-626.94 961.86,-632.74"/>
</a>
</g>
</g>
<!-- Node6&#45;&gt;Node8 -->
<g id="edge9_Node000006_Node000008" class="edge">
<title>Node6&#45;&gt;Node8</title>
<g id="a_edge9_Node000006_Node000008"><a xlink:title=" ">
<path fill="none" stroke="#63b8ff" d="M898.92,-574.34C929.59,-578.95 986.49,-587.53 1035,-595 1042.91,-596.22 1051.21,-597.5 1059.43,-598.78"/>
<polygon fill="#63b8ff" stroke="#63b8ff" points="1058.64,-602.2 1069.06,-600.29 1059.72,-595.29 1058.64,-602.2"/>
</a>
</g>
</g>
<!-- Node6&#45;&gt;Node9 -->
<g id="edge10_Node000006_Node000009" class="edge">
<title>Node6&#45;&gt;Node9</title>
<g id="a_edge10_Node000006_Node000009"><a xlink:title=" ">
<path fill="none" stroke="#63b8ff" d="M880.9,-581.85C889.6,-602.31 911.47,-646.31 945.5,-666 984.23,-688.41 1035.63,-691.7 1073.42,-690.24"/>
<polygon fill="#63b8ff" stroke="#63b8ff" points="1073.36,-693.75 1083.17,-689.73 1073,-686.76 1073.36,-693.75"/>
</a>
</g>
</g>
<!-- Node7&#45;&gt;Node8 -->
<g id="edge7_Node000007_Node000008" class="edge">
<title>Node7&#45;&gt;Node8</title>
<g id="a_edge7_Node000007_Node000008"><a xlink:title=" ">
<path fill="none" stroke="#63b8ff" d="M1029.08,-636.21C1043.57,-632.08 1060.3,-627.31 1075.68,-622.92"/>
<polygon fill="#63b8ff" stroke="#63b8ff" points="1076.47,-626.34 1085.12,-620.23 1074.55,-619.61 1076.47,-626.34"/>
</a>
</g>
</g>
<!-- Node7&#45;&gt;Node9 -->
<g id="edge8_Node000007_Node000009" class="edge">
<title>Node7&#45;&gt;Node9</title>
<g id="a_edge8_Node000007_Node000009"><a xlink:title=" ">
<path fill="none" stroke="#63b8ff" d="M1029.08,-657.79C1043.57,-661.92 1060.3,-666.69 1075.68,-671.08"/>
<polygon fill="#63b8ff" stroke="#63b8ff" points="1074.55,-674.39 1085.12,-673.77 1076.47,-667.66 1074.55,-674.39"/>
</a>
</g>
</g>
<!-- Node10&#45;&gt;Node11 -->
<g id="edge12_Node000010_Node000011" class="edge">
<title>Node10&#45;&gt;Node11</title>
<g id="a_edge12_Node000010_Node000011"><a xlink:title=" ">
<path fill="none" stroke="#63b8ff" d="M781.93,-103.14C799.12,-94.59 823.34,-82.53 842.71,-72.89"/>
<polygon fill="#63b8ff" stroke="#63b8ff" points="844.15,-76.08 851.55,-68.49 841.03,-69.81 844.15,-76.08"/>
</a>
</g>
</g>
<!-- Node13&#45;&gt;Node6 -->
<g id="edge15_Node000013_Node000006" class="edge">
<title>Node13&#45;&gt;Node6</title>
<g id="a_edge15_Node000013_Node000006"><a xlink:title=" ">
<path fill="none" stroke="#63b8ff" d="M782.35,-505.77C789.92,-509.68 798.34,-514.3 805.75,-519 822.24,-529.47 839.8,-542.76 853.06,-553.28"/>
<polygon fill="#63b8ff" stroke="#63b8ff" points="850.71,-555.89 860.7,-559.43 855.1,-550.43 850.71,-555.89"/>
</a>
</g>
</g>
<!-- Node14&#45;&gt;Node15 -->
<g id="edge17_Node000014_Node000015" class="edge">
<title>Node14&#45;&gt;Node15</title>
<g id="a_edge17_Node000014_Node000015"><a xlink:title=" ">
<path fill="none" stroke="#63b8ff" d="M805.38,-186.05C814.96,-185.21 825.01,-184.33 834.39,-183.51"/>
<polygon fill="#63b8ff" stroke="#63b8ff" points="834.66,-187 844.32,-182.65 834.05,-180.03 834.66,-187"/>
</a>
</g>
</g>
<!-- Node18&#45;&gt;Node16 -->
<g id="edge23_Node000018_Node000016" class="edge">
<title>Node18&#45;&gt;Node16</title>
<g id="a_edge23_Node000018_Node000016"><a xlink:title=" ">
<path fill="none" stroke="#63b8ff" d="M786.42,-369.36C793.23,-365.79 800.2,-361.33 805.75,-356 835.16,-327.75 855.99,-284.21 866.59,-258.37"/>
<polygon fill="#63b8ff" stroke="#63b8ff" points="869.77,-259.85 870.19,-249.27 863.26,-257.28 869.77,-259.85"/>
</a>
</g>
</g>
<!-- Node19 -->
<g id="Node000019" class="node">
<title>Node19</title>
<g id="a_Node000019"><a xlink:href="../../de/d25/a00290.html#ac9adcf7339be4a05ab1a7350c236b8a5" target="_top" xlink:title="Draw a box around the specified window.">
<polygon fill="white" stroke="#666666" points="895.25,-390.38 856,-390.38 856,-369.62 895.25,-369.62 895.25,-390.38"/>
<text xml:space="preserve" text-anchor="middle" x="875.62" y="-376.88" font-family="Helvetica,sans-Serif" font-size="10.00">cbox</text>
</a>
</g>
</g>
<!-- Node18&#45;&gt;Node19 -->
<g id="edge22_Node000018_Node000019" class="edge">
<title>Node18&#45;&gt;Node19</title>
<g id="a_edge22_Node000018_Node000019"><a xlink:title=" ">
<path fill="none" stroke="#63b8ff" d="M788.72,-380C805.65,-380 827.07,-380 844.29,-380"/>
<polygon fill="#63b8ff" stroke="#63b8ff" points="844.19,-383.5 854.19,-380 844.19,-376.5 844.19,-383.5"/>
</a>
</g>
</g>
<!-- Node21 -->
<g id="Node000021" class="node">
<title>Node21</title>
<g id="a_Node000021"><a xlink:href="../../de/d25/a00290.html#a67659f8a701b74f4dec0d36227a10d1c" target="_top" xlink:title="Display an error message window or print to stderr.">
<polygon fill="white" stroke="#666666" points="670.12,-353.38 590.38,-353.38 590.38,-332.62 670.12,-332.62 670.12,-353.38"/>
<text xml:space="preserve" text-anchor="middle" x="630.25" y="-339.88" font-family="Helvetica,sans-Serif" font-size="10.00">display_error</text>
</a>
</g>
</g>
<!-- Node20&#45;&gt;Node21 -->
<g id="edge25_Node000020_Node000021" class="edge">
<title>Node20&#45;&gt;Node21</title>
<g id="a_edge25_Node000020_Node000021"><a xlink:title=" ">
<path fill="none" stroke="#63b8ff" d="M533.48,-337.24C546.79,-336.37 563.11,-336.07 578.48,-336.35"/>
<polygon fill="#63b8ff" stroke="#63b8ff" points="578.38,-339.85 588.47,-336.63 578.57,-332.85 578.38,-339.85"/>
</a>
</g>
</g>
<!-- Node22 -->
<g id="Node000022" class="node">
<title>Node22</title>
<g id="a_Node000022"><a xlink:href="../../de/d25/a00290.html#a4298f891699300bfc4e6e56fd2a8d574" target="_top" xlink:title="Get keycode from chyron.">
<polygon fill="white" stroke="#666666" points="676.5,-314.38 584,-314.38 584,-293.62 676.5,-293.62 676.5,-314.38"/>
<text xml:space="preserve" text-anchor="middle" x="630.25" y="-300.88" font-family="Helvetica,sans-Serif" font-size="10.00">get_chyron_key</text>
</a>
</g>
</g>
<!-- Node20&#45;&gt;Node22 -->
<g id="edge36_Node000020_Node000022" class="edge">
<title>Node20&#45;&gt;Node22</title>
<g id="a_edge36_Node000020_Node000022"><a xlink:title=" ">
<path fill="none" stroke="#63b8ff" d="M533.48,-334.15C548.47,-329.43 567.28,-323.51 584.25,-318.17"/>
<polygon fill="#63b8ff" stroke="#63b8ff" points="585.14,-321.56 593.63,-315.21 583.04,-314.88 585.14,-321.56"/>
</a>
</g>
</g>
<!-- Node21&#45;&gt;Node6 -->
<g id="edge26_Node000021_Node000006" class="edge">
<title>Node21&#45;&gt;Node6</title>
<g id="a_edge26_Node000021_Node000006"><a xlink:title=" ">
<path fill="none" stroke="#63b8ff" d="M644.76,-353.67C660.42,-365.72 687.33,-385.4 712.5,-399 751.88,-420.27 772.75,-406.77 805.75,-437 839.84,-468.22 859.69,-520.21 868.71,-549.4"/>
<polygon fill="#63b8ff" stroke="#63b8ff" points="865.33,-550.32 871.5,-558.94 872.05,-548.36 865.33,-550.32"/>
</a>
</g>
</g>
<!-- Node21&#45;&gt;Node10 -->
<g id="edge27_Node000021_Node000010" class="edge">
<title>Node21&#45;&gt;Node10</title>
<g id="a_edge27_Node000021_Node000010"><a xlink:title=" ">
<path fill="none" stroke="#63b8ff" d="M665.32,-332.22C669.53,-329.74 673.43,-326.7 676.5,-323 720.88,-269.62 682.07,-233.4 712.5,-171 719.29,-157.08 729.99,-143.46 739.33,-133.03"/>
<polygon fill="#63b8ff" stroke="#63b8ff" points="741.75,-135.56 746.01,-125.86 736.63,-130.78 741.75,-135.56"/>
</a>
</g>
</g>
<!-- Node21&#45;&gt;Node12 -->
<g id="edge28_Node000021_Node000012" class="edge">
<title>Node21&#45;&gt;Node12</title>
<g id="a_edge28_Node000021_Node000012"><a xlink:title=" ">
<path fill="none" stroke="#63b8ff" d="M639.03,-353.7C652.45,-371.62 681.53,-408.09 712.5,-432 716.06,-434.75 719.99,-437.35 724,-439.75"/>
<polygon fill="#63b8ff" stroke="#63b8ff" points="722.2,-442.75 732.64,-444.53 725.59,-436.63 722.2,-442.75"/>
</a>
</g>
</g>
<!-- Node21&#45;&gt;Node13 -->
<g id="edge29_Node000021_Node000013" class="edge">
<title>Node21&#45;&gt;Node13</title>
<g id="a_edge29_Node000021_Node000013"><a xlink:title=" ">
<path fill="none" stroke="#63b8ff" d="M635.24,-353.74C644.88,-378.37 671.7,-439.49 712.5,-475 713.94,-476.25 715.46,-477.43 717.05,-478.55"/>
<polygon fill="#63b8ff" stroke="#63b8ff" points="714.99,-481.39 725.37,-483.48 718.56,-475.37 714.99,-481.39"/>
</a>
</g>
</g>
<!-- Node21&#45;&gt;Node14 -->
<g id="edge30_Node000021_Node000014" class="edge">
<title>Node21&#45;&gt;Node14</title>
<g id="a_edge30_Node000021_Node000014"><a xlink:title=" ">
<path fill="none" stroke="#63b8ff" d="M663.25,-332.35C668.06,-329.8 672.69,-326.72 676.5,-323 703.27,-296.92 692.69,-278.69 712.5,-247 720.81,-233.7 731.75,-219.94 740.83,-209.27"/>
<polygon fill="#63b8ff" stroke="#63b8ff" points="743.3,-211.76 747.23,-201.92 738.02,-207.17 743.3,-211.76"/>
</a>
</g>
</g>
<!-- Node21&#45;&gt;Node15 -->
<g id="edge31_Node000021_Node000015" class="edge">
<title>Node21&#45;&gt;Node15</title>
<g id="a_edge31_Node000021_Node000015"><a xlink:title=" ">
<path fill="none" stroke="#63b8ff" d="M665.98,-332.18C715.28,-316.72 800.22,-289.65 805.75,-285 831.62,-263.24 822.58,-245.84 841.75,-218 846.17,-211.59 851.5,-205.03 856.57,-199.2"/>
<polygon fill="#63b8ff" stroke="#63b8ff" points="859.05,-201.68 863.15,-191.9 853.85,-196.99 859.05,-201.68"/>
</a>
</g>
</g>
<!-- Node21&#45;&gt;Node16 -->
<g id="edge32_Node000021_Node000016" class="edge">
<title>Node21&#45;&gt;Node16</title>
<g id="a_edge32_Node000021_Node000016"><a xlink:title=" ">
<path fill="none" stroke="#63b8ff" d="M670.48,-345.09C707.58,-345.36 763.68,-341.21 805.75,-318 831.13,-303.99 851.29,-276.69 863.09,-257.67"/>
<polygon fill="#63b8ff" stroke="#63b8ff" points="866.05,-259.54 868.13,-249.15 860.02,-255.97 866.05,-259.54"/>
</a>
</g>
</g>
<!-- Node21&#45;&gt;Node17 -->
<g id="edge33_Node000021_Node000017" class="edge">
<title>Node21&#45;&gt;Node17</title>
<g id="a_edge33_Node000021_Node000017"><a xlink:title=" ">
<path fill="none" stroke="#63b8ff" d="M659.28,-332.32C665.16,-329.62 671.18,-326.48 676.5,-323 694.67,-311.12 694.75,-302.49 712.5,-290 716.37,-287.28 720.59,-284.65 724.85,-282.21"/>
<polygon fill="#63b8ff" stroke="#63b8ff" points="726.26,-285.42 733.37,-277.58 722.92,-279.27 726.26,-285.42"/>
</a>
</g>
</g>
<!-- Node21&#45;&gt;Node18 -->
<g id="edge34_Node000021_Node000018" class="edge">
<title>Node21&#45;&gt;Node18</title>
<g id="a_edge34_Node000021_Node000018"><a xlink:title=" ">
<path fill="none" stroke="#63b8ff" d="M668.29,-353.8C684.1,-358.41 702.57,-363.8 718.63,-368.48"/>
<polygon fill="#63b8ff" stroke="#63b8ff" points="717.28,-371.73 727.86,-371.17 719.24,-365.01 717.28,-371.73"/>
</a>
</g>
</g>
<!-- Node21&#45;&gt;Node20 -->
<g id="edge35_Node000021_Node000020" class="edge">
<title>Node21&#45;&gt;Node20</title>
<g id="a_edge35_Node000021_Node000020"><a xlink:title=" ">
<path fill="none" stroke="#63b8ff" d="M589.98,-349.33C575.5,-349.89 559.1,-349.89 544.61,-349.33"/>
<polygon fill="#63b8ff" stroke="#63b8ff" points="545.16,-345.85 535,-348.84 544.8,-352.84 545.16,-345.85"/>
</a>
</g>
</g>
<!-- Node25&#45;&gt;Node6 -->
<g id="edge42_Node000025_Node000006" class="edge">
<title>Node25&#45;&gt;Node6</title>
<g id="a_edge42_Node000025_Node000006"><a xlink:title=" ">
<path fill="none" stroke="#63b8ff" d="M410.25,-675.08C510.4,-652.63 752.63,-598.34 841.35,-578.46"/>
<polygon fill="#63b8ff" stroke="#63b8ff" points="841.87,-581.93 850.87,-576.32 840.34,-575.1 841.87,-581.93"/>
</a>
</g>
</g>
<!-- Node26 -->
<g id="Node000026" class="node">
<title>Node26</title>
<g id="a_Node000026"><a xlink:href="../../dd/dd7/a00248.html#aa08a9a8dede37c66c81c3f51a0f338a9" target="_top" xlink:title="Signal handler for interrupt signals.">
<polygon fill="white" stroke="#666666" points="548,-695.38 460.75,-695.38 460.75,-674.62 548,-674.62 548,-695.38"/>
<text xml:space="preserve" text-anchor="middle" x="504.38" y="-681.88" font-family="Helvetica,sans-Serif" font-size="10.00">signal_handler</text>
</a>
</g>
</g>
<!-- Node25&#45;&gt;Node26 -->
<g id="edge43_Node000025_Node000026" class="edge">
<title>Node25&#45;&gt;Node26</title>
<g id="a_edge43_Node000025_Node000026"><a xlink:title=" ">
<path fill="none" stroke="#63b8ff" d="M410.6,-685C422.84,-685 436.24,-685 448.96,-685"/>
<polygon fill="#63b8ff" stroke="#63b8ff" points="448.89,-688.5 458.89,-685 448.89,-681.5 448.89,-688.5"/>
</a>
</g>
</g>
</g>
</svg>

<g id="navigator" transform="translate(0 0)" fill="#404254">
  <rect fill="#f2f5e9" fill-opacity="0.5" stroke="#606060" stroke-width=".5" x="0" y="0" width="60" height="60"/>
  <use id="zoomplus" xlink:href="#zoomPlus" x="17" y="9" onmousedown="handleZoom(evt,'in')"/>
  <use id="zoomminus" xlink:href="#zoomMin" x="42" y="9" onmousedown="handleZoom(evt,'out')"/>
  <use id="reset" xlink:href="#resetDef" x="30" y="36" onmousedown="handleReset()"/>
   <use id="arrowup" xlink:href="#arrowUp" x="0" y="0" onmousedown="handlePan(0,-1)"/>
  <use id="arrowright" xlink:href="#arrowRight" x="0" y="0" onmousedown="handlePan(1,0)"/>
  <use id="arrowdown" xlink:href="#arrowDown" x="0" y="0" onmousedown="handlePan(0,1)"/>
  <use id="arrowleft" xlink:href="#arrowLeft" x="0" y="0" onmousedown="handlePan(-1,0)"/>
</g>
<svg viewBox="0 0 15 15" width="100%" height="30px" preserveAspectRatio="xMaxYMin meet">
 <g id="arrow_out" transform="scale(0.3 0.3)">
  <a xlink:href="a00233_ab2e6e35d9dba586838b91f54a6dd41a2_cgraph_org.svg" target="_base">
   <rect id="button" ry="5" rx="5" y="6" x="6" height="38" width="38"
        fill="#f2f5e9" fill-opacity="0.5" stroke="#606060" stroke-width="1.0"/>
   <path id="arrow"
     d="M 11.500037,31.436501 C 11.940474,20.09759 22.043105,11.32322 32.158766,21.979434 L 37.068811,17.246167 C 37.068811,17.246167 37.088388,32 37.088388,32 L 22.160133,31.978069 C 22.160133,31.978069 26.997745,27.140456 26.997745,27.140456 C 18.528582,18.264221 13.291696,25.230495 11.500037,31.436501 z"
     style="fill:#404040;"/>
  </a>
 </g>
</svg>

<style type='text/css'>
<![CDATA[
[data-mouse-over-selected='false'] { opacity: 0.7; }
[data-mouse-over-selected='true']  { opacity: 1.0; }
]]>
</style>
<script type="application/ecmascript"><![CDATA[
document.addEventListener('DOMContentLoaded', (event) => {
  highlightEdges();
  highlightAdjacentNodes();
});
]]></script>
</svg>
