<?xml version="1.0" encoding="UTF-8" standalone="no"?>
<!DOCTYPE svg PUBLIC "-//W3C//DTD SVG 1.1//EN"
 "http://www.w3.org/Graphics/SVG/1.1/DTD/svg11.dtd">
<!-- Generated by graphviz version 14.1.2 (0)
 -->
<!-- Title: abend Pages: 1 -->
<svg width="325pt" height="77pt"
 viewBox="0.00 0.00 325.00 77.00" xmlns="http://www.w3.org/2000/svg" xmlns:xlink="http://www.w3.org/1999/xlink">
<g id="graph0" class="graph" transform="scale(1 1) rotate(0) translate(4 72.75)">
<title>abend</title>
<!-- Node1 -->
<g id="Node000001" class="node">
<title>Node1</title>
<g id="a_Node000001"><a xlink:title="Abnormal program termination.">
<polygon fill="#999999" stroke="#666666" points="46,-40.75 0,-40.75 0,-20 46,-20 46,-40.75"/>
<text xml:space="preserve" text-anchor="middle" x="23" y="-27.25" font-family="Helvetica,sans-Serif" font-size="10.00">abend</text>
</a>
</g>
</g>
<!-- Node2 -->
<g id="Node000002" class="node">
<title>Node2</title>
<g id="a_Node000002"><a xlink:href="../../d6/d82/a00293.html#afc0985a403e3eac0b2cd8f0fab500256" target="_top" xlink:title="Gracefully shut down NCurses and restore terminal settings.">
<polygon fill="white" stroke="#666666" points="171.5,-40.75 82,-40.75 82,-20 171.5,-20 171.5,-40.75"/>
<text xml:space="preserve" text-anchor="middle" x="126.75" y="-27.25" font-family="Helvetica,sans-Serif" font-size="10.00">destroy_curses</text>
</a>
</g>
</g>
<!-- Node1&#45;&gt;Node2 -->
<g id="edge1_Node000001_Node000002" class="edge">
<title>Node1&#45;&gt;Node2</title>
<g id="a_edge1_Node000001_Node000002"><a xlink:title=" ">
<path fill="none" stroke="#63b8ff" d="M46.33,-30.38C53.57,-30.38 61.95,-30.38 70.5,-30.38"/>
<polygon fill="#63b8ff" stroke="#63b8ff" points="70.23,-33.88 80.23,-30.38 70.23,-26.88 70.23,-33.88"/>
</a>
</g>
</g>
<!-- Node3 -->
<g id="Node000003" class="node">
<title>Node3</title>
<g id="a_Node000003"><a xlink:href="../../df/d95/a00299.html#ac5e3adb304b78910fc77761ef6a743f0" target="_top" xlink:title="restore_shell_tioctl() &#45; restore shell terminal settings">
<polygon fill="white" stroke="#666666" points="316.5,-68.75 207.5,-68.75 207.5,-48 316.5,-48 316.5,-68.75"/>
<text xml:space="preserve" text-anchor="middle" x="262" y="-55.25" font-family="Helvetica,sans-Serif" font-size="10.00">restore_shell_tioctl</text>
</a>
</g>
</g>
<!-- Node1&#45;&gt;Node3 -->
<g id="edge4_Node000001_Node000003" class="edge">
<title>Node1&#45;&gt;Node3</title>
<g id="a_edge4_Node000001_Node000003"><a xlink:title=" ">
<path fill="none" stroke="#63b8ff" d="M46.5,-39.29C57.1,-43.09 70.02,-47.15 82,-49.38 119.38,-56.31 161.86,-58.67 196.05,-59.25"/>
<polygon fill="#63b8ff" stroke="#63b8ff" points="195.75,-62.75 205.79,-59.37 195.83,-55.75 195.75,-62.75"/>
</a>
</g>
</g>
<!-- Node4 -->
<g id="Node000004" class="node">
<title>Node4</title>
<g id="a_Node000004"><a xlink:href="../../d3/d1a/a00251.html#a06c1eb6cf3649dc187115565409f91af" target="_top" xlink:title="Set signal handlers to default behavior.">
<polygon fill="white" stroke="#666666" points="302.62,-20.75 221.38,-20.75 221.38,0 302.62,0 302.62,-20.75"/>
<text xml:space="preserve" text-anchor="middle" x="262" y="-7.25" font-family="Helvetica,sans-Serif" font-size="10.00">sig_dfl_mode</text>
</a>
</g>
</g>
<!-- Node1&#45;&gt;Node4 -->
<g id="edge5_Node000001_Node000004" class="edge">
<title>Node1&#45;&gt;Node4</title>
<g id="a_edge5_Node000001_Node000004"><a xlink:title=" ">
<path fill="none" stroke="#63b8ff" d="M46.46,-21.21C57.05,-17.36 69.97,-13.33 82,-11.38 124.63,-4.45 173.72,-4.75 209.7,-6.47"/>
<polygon fill="#63b8ff" stroke="#63b8ff" points="209.21,-9.95 219.38,-6.99 209.58,-2.96 209.21,-9.95"/>
</a>
</g>
</g>
<!-- Node2&#45;&gt;Node3 -->
<g id="edge2_Node000002_Node000003" class="edge">
<title>Node2&#45;&gt;Node3</title>
<g id="a_edge2_Node000002_Node000003"><a xlink:title=" ">
<path fill="none" stroke="#63b8ff" d="M171.75,-39.62C180.37,-41.43 189.57,-43.37 198.66,-45.28"/>
<polygon fill="#63b8ff" stroke="#63b8ff" points="197.66,-48.64 208.17,-47.27 199.1,-41.79 197.66,-48.64"/>
</a>
</g>
</g>
<!-- Node2&#45;&gt;Node4 -->
<g id="edge3_Node000002_Node000004" class="edge">
<title>Node2&#45;&gt;Node4</title>
<g id="a_edge3_Node000002_Node000004"><a xlink:title=" ">
<path fill="none" stroke="#63b8ff" d="M171.75,-23.77C183.94,-21.94 197.27,-19.94 209.83,-18.06"/>
<polygon fill="#63b8ff" stroke="#63b8ff" points="210.23,-21.54 219.6,-16.59 209.19,-14.61 210.23,-21.54"/>
</a>
</g>
</g>
</g>
</svg>
