<?xml version="1.0" encoding="UTF-8" standalone="no"?>
<!DOCTYPE svg PUBLIC "-//W3C//DTD SVG 1.1//EN"
 "http://www.w3.org/Graphics/SVG/1.1/DTD/svg11.dtd">
<!-- Generated by graphviz version 14.1.2 (0)
 -->
<!-- Title: fork_exec Pages: 1 -->
<svg width="983pt" height="755pt"
 viewBox="0.00 0.00 983.00 755.00" xmlns="http://www.w3.org/2000/svg" xmlns:xlink="http://www.w3.org/1999/xlink">
<g id="graph0" class="graph" transform="scale(1 1) rotate(0) translate(4 750.75)">
<title>fork_exec</title>
<!-- Node1 -->
<g id="Node000001" class="node">
<title>Node1</title>
<g id="a_Node000001"><a xlink:title="Fork and exec a command.">
<polygon fill="#999999" stroke="#666666" points="64,-288.75 0,-288.75 0,-268 64,-268 64,-288.75"/>
<text xml:space="preserve" text-anchor="middle" x="32" y="-275.25" font-family="Helvetica,sans-Serif" font-size="10.00">fork_exec</text>
</a>
</g>
</g>
<!-- Node2 -->
<g id="Node000002" class="node">
<title>Node2</title>
<g id="a_Node000002"><a xlink:href="../../df/d95/a00299.html#a4d0a6767e791cf93a268ebe9ba02aa24" target="_top" xlink:title="capture_curses_tioctl() &#45; capture curses terminal settings">
<polygon fill="white" stroke="#666666" points="219.5,-746.75 100,-746.75 100,-726 219.5,-726 219.5,-746.75"/>
<text xml:space="preserve" text-anchor="middle" x="159.75" y="-733.25" font-family="Helvetica,sans-Serif" font-size="10.00">capture_curses_tioctl</text>
</a>
</g>
</g>
<!-- Node1&#45;&gt;Node2 -->
<g id="edge1_Node000001_Node000002" class="edge">
<title>Node1&#45;&gt;Node2</title>
<g id="a_edge1_Node000001_Node000002"><a xlink:title=" ">
<path fill="none" stroke="#63b8ff" d="M33.26,-289.16C34.93,-349.36 45.81,-643.7 100,-712.38 102.08,-715.01 104.5,-717.36 107.14,-719.45"/>
<polygon fill="#63b8ff" stroke="#63b8ff" points="105.25,-722.4 115.57,-724.81 109.01,-716.49 105.25,-722.4"/>
</a>
</g>
</g>
<!-- Node3 -->
<g id="Node000003" class="node">
<title>Node3</title>
<g id="a_Node000003"><a xlink:href="../../d6/d82/a00293.html#a61b4f28456257f68ed042bed7f187efd" target="_top" xlink:title="Display a simple error message window or print to stderr.">
<polygon fill="white" stroke="#666666" points="182.38,-403.75 137.12,-403.75 137.12,-383 182.38,-383 182.38,-403.75"/>
<text xml:space="preserve" text-anchor="middle" x="159.75" y="-390.25" font-family="Helvetica,sans-Serif" font-size="10.00">Perror</text>
</a>
</g>
</g>
<!-- Node1&#45;&gt;Node3 -->
<g id="edge2_Node000001_Node000003" class="edge">
<title>Node1&#45;&gt;Node3</title>
<g id="a_edge2_Node000001_Node000003"><a xlink:title=" ">
<path fill="none" stroke="#63b8ff" d="M44.6,-288.99C66.13,-308.67 112.45,-351.03 138.99,-375.31"/>
<polygon fill="#63b8ff" stroke="#63b8ff" points="136.31,-377.6 146.06,-381.77 141.04,-372.43 136.31,-377.6"/>
</a>
</g>
</g>
<!-- Node6 -->
<g id="Node000006" class="node">
<title>Node6</title>
<g id="a_Node000006"><a xlink:href="../../df/d95/a00299.html#ac5e3adb304b78910fc77761ef6a743f0" target="_top" xlink:title="restore_shell_tioctl() &#45; restore shell terminal settings">
<polygon fill="white" stroke="#666666" points="974.75,-287.75 865.75,-287.75 865.75,-267 974.75,-267 974.75,-287.75"/>
<text xml:space="preserve" text-anchor="middle" x="920.25" y="-274.25" font-family="Helvetica,sans-Serif" font-size="10.00">restore_shell_tioctl</text>
</a>
</g>
</g>
<!-- Node1&#45;&gt;Node6 -->
<g id="edge36_Node000001_Node000006" class="edge">
<title>Node1&#45;&gt;Node6</title>
<g id="a_edge36_Node000001_Node000006"><a xlink:title=" ">
<path fill="none" stroke="#63b8ff" d="M34.2,-289.18C39.75,-337.6 64.2,-534.33 100,-583.38 160.03,-665.61 196.31,-698.38 298.12,-698.38 298.12,-698.38 298.12,-698.38 671.38,-698.38 858.33,-698.38 907.11,-386.26 917.05,-299.51"/>
<polygon fill="#63b8ff" stroke="#63b8ff" points="920.52,-300.03 918.11,-289.71 913.56,-299.28 920.52,-300.03"/>
</a>
</g>
</g>
<!-- Node7 -->
<g id="Node000007" class="node">
<title>Node7</title>
<g id="a_Node000007"><a xlink:href="../../d3/d1a/a00251.html#a06c1eb6cf3649dc187115565409f91af" target="_top" xlink:title="Set signal handlers to default behavior.">
<polygon fill="white" stroke="#666666" points="960.88,-211.75 879.62,-211.75 879.62,-191 960.88,-191 960.88,-211.75"/>
<text xml:space="preserve" text-anchor="middle" x="920.25" y="-198.25" font-family="Helvetica,sans-Serif" font-size="10.00">sig_dfl_mode</text>
</a>
</g>
</g>
<!-- Node1&#45;&gt;Node7 -->
<g id="edge38_Node000001_Node000007" class="edge">
<title>Node1&#45;&gt;Node7</title>
<g id="a_edge38_Node000001_Node000007"><a xlink:title=" ">
<path fill="none" stroke="#63b8ff" d="M35.21,-267.86C41.06,-242.61 59.4,-178.13 100,-144.38 170.45,-85.79 206.5,-87.38 298.12,-87.38 298.12,-87.38 298.12,-87.38 671.38,-87.38 762.37,-87.38 856.37,-151.57 897.64,-183.61"/>
<polygon fill="#63b8ff" stroke="#63b8ff" points="895.32,-186.24 905.33,-189.71 899.67,-180.75 895.32,-186.24"/>
</a>
</g>
</g>
<!-- Node13 -->
<g id="Node000013" class="node">
<title>Node13</title>
<g id="a_Node000013"><a xlink:href="../../d6/d7f/a00287.html#a63eb94756fb011a456a3dec900709cd8" target="_top" xlink:title="ssnprintf was designed to be a safer alternative to snprintf.">
<polygon fill="white" stroke="#666666" points="699.75,-613.75 641,-613.75 641,-593 699.75,-593 699.75,-613.75"/>
<text xml:space="preserve" text-anchor="middle" x="670.38" y="-600.25" font-family="Helvetica,sans-Serif" font-size="10.00">ssnprintf</text>
</a>
</g>
</g>
<!-- Node1&#45;&gt;Node13 -->
<g id="edge42_Node000001_Node000013" class="edge">
<title>Node1&#45;&gt;Node13</title>
<g id="a_edge42_Node000001_Node000013"><a xlink:title=" ">
<path fill="none" stroke="#63b8ff" d="M34.83,-288.99C46.12,-350.69 112.05,-660.38 298.12,-660.38 298.12,-660.38 298.12,-660.38 426,-660.38 500.12,-660.38 583.68,-635 631.08,-618.11"/>
<polygon fill="#63b8ff" stroke="#63b8ff" points="632.14,-621.45 640.34,-614.75 629.75,-614.87 632.14,-621.45"/>
</a>
</g>
</g>
<!-- Node21 -->
<g id="Node000021" class="node">
<title>Node21</title>
<g id="a_Node000021"><a xlink:href="../../df/d95/a00299.html#a1c8e0f0a02e08c783231a20093fb8410" target="_top" xlink:title="restore_curses_tioctl() &#45; restore curses terminal settings">
<polygon fill="white" stroke="#666666" points="218.38,-59.75 101.13,-59.75 101.13,-39 218.38,-39 218.38,-59.75"/>
<text xml:space="preserve" text-anchor="middle" x="159.75" y="-46.25" font-family="Helvetica,sans-Serif" font-size="10.00">restore_curses_tioctl</text>
</a>
</g>
</g>
<!-- Node1&#45;&gt;Node21 -->
<g id="edge35_Node000001_Node000021" class="edge">
<title>Node1&#45;&gt;Node21</title>
<g id="a_edge35_Node000001_Node000021"><a xlink:title=" ">
<path fill="none" stroke="#63b8ff" d="M33.44,-267.91C35.37,-234.91 45.67,-131.76 100,-73.38 102.67,-70.51 105.73,-67.97 109.03,-65.73"/>
<polygon fill="#63b8ff" stroke="#63b8ff" points="110.52,-68.91 117.48,-60.92 107.06,-62.83 110.52,-68.91"/>
</a>
</g>
</g>
<!-- Node22 -->
<g id="Node000022" class="node">
<title>Node22</title>
<g id="a_Node000022"><a xlink:href="../../d6/d82/a00293.html#a40858af5b0d68549fb483f77c97eb82c" target="_top" xlink:title="Restore all windows after a screen resize.">
<polygon fill="white" stroke="#666666" points="198.88,-20.75 120.62,-20.75 120.62,0 198.88,0 198.88,-20.75"/>
<text xml:space="preserve" text-anchor="middle" x="159.75" y="-7.25" font-family="Helvetica,sans-Serif" font-size="10.00">restore_wins</text>
</a>
</g>
</g>
<!-- Node1&#45;&gt;Node22 -->
<g id="edge37_Node000001_Node000022" class="edge">
<title>Node1&#45;&gt;Node22</title>
<g id="a_edge37_Node000001_Node000022"><a xlink:title=" ">
<path fill="none" stroke="#63b8ff" d="M32.58,-267.51C31.7,-229.48 33.95,-100.81 100,-30.38 102.9,-27.29 106.29,-24.67 109.96,-22.46"/>
<polygon fill="#63b8ff" stroke="#63b8ff" points="111.33,-25.69 118.8,-18.17 108.27,-19.39 111.33,-25.69"/>
</a>
</g>
</g>
<!-- Node23 -->
<g id="Node000023" class="node">
<title>Node23</title>
<g id="a_Node000023"><a xlink:href="../../d3/d1a/a00251.html#aca2de03f6d52d4b11237990e4e605177" target="_top" xlink:title="Set up signal handlers for interrupt signals.">
<polygon fill="white" stroke="#666666" points="204.88,-173.75 114.62,-173.75 114.62,-153 204.88,-153 204.88,-173.75"/>
<text xml:space="preserve" text-anchor="middle" x="159.75" y="-160.25" font-family="Helvetica,sans-Serif" font-size="10.00">sig_prog_mode</text>
</a>
</g>
</g>
<!-- Node1&#45;&gt;Node23 -->
<g id="edge39_Node000001_Node000023" class="edge">
<title>Node1&#45;&gt;Node23</title>
<g id="a_edge39_Node000001_Node000023"><a xlink:title=" ">
<path fill="none" stroke="#63b8ff" d="M44.6,-267.76C66.13,-248.08 112.45,-205.72 138.99,-181.44"/>
<polygon fill="#63b8ff" stroke="#63b8ff" points="141.04,-184.32 146.06,-174.98 136.31,-179.15 141.04,-184.32"/>
</a>
</g>
</g>
<!-- Node4 -->
<g id="Node000004" class="node">
<title>Node4</title>
<g id="a_Node000004"><a xlink:href="../../d6/d82/a00293.html#a8f6c45ca4a7f6a41c4c88314e697565a" target="_top" xlink:title="Abnormal program termination.">
<polygon fill="white" stroke="#666666" points="693.38,-249.75 647.38,-249.75 647.38,-229 693.38,-229 693.38,-249.75"/>
<text xml:space="preserve" text-anchor="middle" x="670.38" y="-236.25" font-family="Helvetica,sans-Serif" font-size="10.00">abend</text>
</a>
</g>
</g>
<!-- Node3&#45;&gt;Node4 -->
<g id="edge3_Node000003_Node000004" class="edge">
<title>Node3&#45;&gt;Node4</title>
<g id="a_edge3_Node000003_Node000004"><a xlink:title=" ">
<path fill="none" stroke="#63b8ff" d="M165.48,-382.56C176.9,-357.93 208.5,-297.77 255.5,-271.38 380.79,-201 562,-220.84 636,-233.06"/>
<polygon fill="#63b8ff" stroke="#63b8ff" points="635.39,-236.5 645.84,-234.75 636.58,-229.6 635.39,-236.5"/>
</a>
</g>
</g>
<!-- Node8 -->
<g id="Node000008" class="node">
<title>Node8</title>
<g id="a_Node000008"><a xlink:href="../../d6/d82/a00293.html#a645871e46277e31736bc36d0f3dce4bd" target="_top" xlink:title="construct the chyron string from the chyron structure">
<polygon fill="white" stroke="#666666" points="600.5,-479.75 507.25,-479.75 507.25,-459 600.5,-459 600.5,-479.75"/>
<text xml:space="preserve" text-anchor="middle" x="553.88" y="-466.25" font-family="Helvetica,sans-Serif" font-size="10.00">compile_chyron</text>
</a>
</g>
</g>
<!-- Node3&#45;&gt;Node8 -->
<g id="edge9_Node000003_Node000008" class="edge">
<title>Node3&#45;&gt;Node8</title>
<g id="a_edge9_Node000003_Node000008"><a xlink:title=" ">
<path fill="none" stroke="#63b8ff" d="M182.84,-403.76C201.72,-412.22 229.84,-423.79 255.5,-430.38 337.47,-451.42 435.22,-461.46 495.67,-465.99"/>
<polygon fill="#63b8ff" stroke="#63b8ff" points="495.15,-469.46 505.37,-466.69 495.65,-462.48 495.15,-469.46"/>
</a>
</g>
</g>
<!-- Node10 -->
<g id="Node000010" class="node">
<title>Node10</title>
<g id="a_Node000010"><a xlink:href="../../d6/d82/a00293.html#a3f3feb40fd703913c5c136331f627c91" target="_top" xlink:title="Destroy Chyron structure.">
<polygon fill="white" stroke="#666666" points="599.38,-326.75 508.38,-326.75 508.38,-306 599.38,-306 599.38,-326.75"/>
<text xml:space="preserve" text-anchor="middle" x="553.88" y="-313.25" font-family="Helvetica,sans-Serif" font-size="10.00">destroy_chyron</text>
</a>
</g>
</g>
<!-- Node3&#45;&gt;Node10 -->
<g id="edge11_Node000003_Node000010" class="edge">
<title>Node3&#45;&gt;Node10</title>
<g id="a_edge11_Node000003_Node000010"><a xlink:title=" ">
<path fill="none" stroke="#63b8ff" d="M182.78,-386.32C221.84,-374.09 305.98,-348.94 378.75,-335.38 417.96,-328.06 462.71,-323.26 497.02,-320.31"/>
<polygon fill="#63b8ff" stroke="#63b8ff" points="497.05,-323.82 506.72,-319.5 496.47,-316.84 497.05,-323.82"/>
</a>
</g>
</g>
<!-- Node11 -->
<g id="Node000011" class="node">
<title>Node11</title>
<g id="a_Node000011"><a xlink:href="../../d6/d82/a00293.html#ad37d5808ff30ae6894780425d865abae" target="_top" xlink:title="Create and initialize Chyron structure.">
<polygon fill="white" stroke="#666666" points="591.12,-287.75 516.62,-287.75 516.62,-267 591.12,-267 591.12,-287.75"/>
<text xml:space="preserve" text-anchor="middle" x="553.88" y="-274.25" font-family="Helvetica,sans-Serif" font-size="10.00">new_chyron</text>
</a>
</g>
</g>
<!-- Node3&#45;&gt;Node11 -->
<g id="edge12_Node000003_Node000011" class="edge">
<title>Node3&#45;&gt;Node11</title>
<g id="a_edge12_Node000003_Node000011"><a xlink:title=" ">
<path fill="none" stroke="#63b8ff" d="M176.09,-382.61C194.24,-370.37 225.75,-350.63 255.5,-339.38 340.12,-307.35 444.88,-290.4 504.78,-282.71"/>
<polygon fill="#63b8ff" stroke="#63b8ff" points="505.15,-286.19 514.64,-281.48 504.28,-279.24 505.15,-286.19"/>
</a>
</g>
</g>
<!-- Node12 -->
<g id="Node000012" class="node">
<title>Node12</title>
<g id="a_Node000012"><a xlink:href="../../d6/d82/a00293.html#a208ce92c197fdd6d2b007987e534aa3b" target="_top" xlink:title="Set chyron key.">
<polygon fill="white" stroke="#666666" points="599.75,-594.75 508,-594.75 508,-574 599.75,-574 599.75,-594.75"/>
<text xml:space="preserve" text-anchor="middle" x="553.88" y="-581.25" font-family="Helvetica,sans-Serif" font-size="10.00">set_chyron_key</text>
</a>
</g>
</g>
<!-- Node3&#45;&gt;Node12 -->
<g id="edge14_Node000003_Node000012" class="edge">
<title>Node3&#45;&gt;Node12</title>
<g id="a_edge14_Node000003_Node000012"><a xlink:title=" ">
<path fill="none" stroke="#63b8ff" d="M169.27,-404.18C184.62,-422.97 218.76,-461.83 255.5,-484.38 332.31,-531.51 434.05,-559.49 496.41,-573.39"/>
<polygon fill="#63b8ff" stroke="#63b8ff" points="495.59,-576.79 506.1,-575.5 497.08,-569.95 495.59,-576.79"/>
</a>
</g>
</g>
<!-- Node3&#45;&gt;Node13 -->
<g id="edge16_Node000003_Node000013" class="edge">
<title>Node3&#45;&gt;Node13</title>
<g id="a_edge16_Node000003_Node000013"><a xlink:title=" ">
<path fill="none" stroke="#63b8ff" d="M166.16,-403.95C178.76,-427.59 212.27,-485.25 255.5,-518.38 349.24,-590.2 390.2,-587.72 507.25,-603.38 548.5,-608.89 596.17,-608.04 629.1,-606.33"/>
<polygon fill="#63b8ff" stroke="#63b8ff" points="629.23,-609.83 639.01,-605.76 628.83,-602.84 629.23,-609.83"/>
</a>
</g>
</g>
<!-- Node14 -->
<g id="Node000014" class="node">
<title>Node14</title>
<g id="a_Node000014"><a xlink:href="../../d6/d7f/a00287.html#a0de2e40df9bd7efc8fd9afb8ad2257e6" target="_top" xlink:title="safer alternative to strncpy">
<polygon fill="white" stroke="#666666" points="704.25,-401.75 636.5,-401.75 636.5,-381 704.25,-381 704.25,-401.75"/>
<text xml:space="preserve" text-anchor="middle" x="670.38" y="-388.25" font-family="Helvetica,sans-Serif" font-size="10.00">strnz__cpy</text>
</a>
</g>
</g>
<!-- Node3&#45;&gt;Node14 -->
<g id="edge17_Node000003_Node000014" class="edge">
<title>Node3&#45;&gt;Node14</title>
<g id="a_edge17_Node000003_Node000014"><a xlink:title=" ">
<path fill="none" stroke="#63b8ff" d="M169.44,-382.68C184.79,-364.55 218.59,-327.97 255.5,-309.38 357.46,-258.02 393.61,-269.33 507.25,-258.38 548.5,-254.4 565.09,-236.84 600.5,-258.38 640.51,-282.71 658.31,-338.63 665.35,-369.65"/>
<polygon fill="#63b8ff" stroke="#63b8ff" points="661.85,-369.99 667.31,-379.07 668.7,-368.57 661.85,-369.99"/>
</a>
</g>
</g>
<!-- Node15 -->
<g id="Node000015" class="node">
<title>Node15</title>
<g id="a_Node000015"><a xlink:href="../../d6/d82/a00293.html#a9dd598e1d49c8764af1eec42c682623e" target="_top" xlink:title="Delete the current window and its associated box window.">
<polygon fill="white" stroke="#666666" points="580.62,-555.75 527.12,-555.75 527.12,-535 580.62,-535 580.62,-555.75"/>
<text xml:space="preserve" text-anchor="middle" x="553.88" y="-542.25" font-family="Helvetica,sans-Serif" font-size="10.00">win_del</text>
</a>
</g>
</g>
<!-- Node3&#45;&gt;Node15 -->
<g id="edge18_Node000003_Node000015" class="edge">
<title>Node3&#45;&gt;Node15</title>
<g id="a_edge18_Node000003_Node000015"><a xlink:title=" ">
<path fill="none" stroke="#63b8ff" d="M175.15,-404.21C193.15,-417.34 225.27,-439.43 255.5,-453.38 345.25,-494.78 458.55,-523.98 515.93,-537.28"/>
<polygon fill="#63b8ff" stroke="#63b8ff" points="514.97,-540.65 525.5,-539.47 516.53,-533.83 514.97,-540.65"/>
</a>
</g>
</g>
<!-- Node16 -->
<g id="Node000016" class="node">
<title>Node16</title>
<g id="a_Node000016"><a xlink:href="../../d6/d82/a00293.html#a435c7bff7ffedb8f51c6de9259e36f6c" target="_top" xlink:title="Create a new window with optional box and title.">
<polygon fill="white" stroke="#666666" points="583.25,-440.75 524.5,-440.75 524.5,-420 583.25,-420 583.25,-440.75"/>
<text xml:space="preserve" text-anchor="middle" x="553.88" y="-427.25" font-family="Helvetica,sans-Serif" font-size="10.00">win_new</text>
</a>
</g>
</g>
<!-- Node3&#45;&gt;Node16 -->
<g id="edge19_Node000003_Node000016" class="edge">
<title>Node3&#45;&gt;Node16</title>
<g id="a_edge19_Node000003_Node000016"><a xlink:title=" ">
<path fill="none" stroke="#63b8ff" d="M182.81,-398.69C201.93,-403.09 230.38,-409.11 255.5,-412.38 346.96,-424.26 455.29,-428.32 512.61,-429.69"/>
<polygon fill="#63b8ff" stroke="#63b8ff" points="512.46,-433.19 522.53,-429.91 512.61,-426.19 512.46,-433.19"/>
</a>
</g>
</g>
<!-- Node18 -->
<g id="Node000018" class="node">
<title>Node18</title>
<g id="a_Node000018"><a xlink:href="../../d6/d82/a00293.html#acf4c709bccc4c965a5d61db978db31a3" target="_top" xlink:title="Wrapper for wgetch that handles signals and mouse events.">
<polygon fill="white" stroke="#666666" points="327.75,-403.75 270.5,-403.75 270.5,-383 327.75,-383 327.75,-403.75"/>
<text xml:space="preserve" text-anchor="middle" x="299.12" y="-390.25" font-family="Helvetica,sans-Serif" font-size="10.00">xwgetch</text>
</a>
</g>
</g>
<!-- Node3&#45;&gt;Node18 -->
<g id="edge22_Node000003_Node000018" class="edge">
<title>Node3&#45;&gt;Node18</title>
<g id="a_edge22_Node000003_Node000018"><a xlink:title=" ">
<path fill="none" stroke="#63b8ff" d="M182.82,-393.38C203.38,-393.38 234.49,-393.38 259.22,-393.38"/>
<polygon fill="#63b8ff" stroke="#63b8ff" points="258.9,-396.88 268.9,-393.38 258.9,-389.88 258.9,-396.88"/>
</a>
</g>
</g>
<!-- Node5 -->
<g id="Node000005" class="node">
<title>Node5</title>
<g id="a_Node000005"><a xlink:href="../../d6/d82/a00293.html#afc0985a403e3eac0b2cd8f0fab500256" target="_top" xlink:title="Gracefully shut down NCurses and restore terminal settings.">
<polygon fill="white" stroke="#666666" points="829.75,-249.75 740.25,-249.75 740.25,-229 829.75,-229 829.75,-249.75"/>
<text xml:space="preserve" text-anchor="middle" x="785" y="-236.25" font-family="Helvetica,sans-Serif" font-size="10.00">destroy_curses</text>
</a>
</g>
</g>
<!-- Node4&#45;&gt;Node5 -->
<g id="edge4_Node000004_Node000005" class="edge">
<title>Node4&#45;&gt;Node5</title>
<g id="a_edge4_Node000004_Node000005"><a xlink:title=" ">
<path fill="none" stroke="#63b8ff" d="M693.63,-239.38C703.74,-239.38 716.19,-239.38 728.59,-239.38"/>
<polygon fill="#63b8ff" stroke="#63b8ff" points="728.38,-242.88 738.38,-239.38 728.38,-235.88 728.38,-242.88"/>
</a>
</g>
</g>
<!-- Node4&#45;&gt;Node6 -->
<g id="edge7_Node000004_Node000006" class="edge">
<title>Node4&#45;&gt;Node6</title>
<g id="a_edge7_Node000004_Node000006"><a xlink:title=" ">
<path fill="none" stroke="#63b8ff" d="M693.8,-246.56C707.16,-250.59 724.53,-255.39 740.25,-258.38 777.63,-265.47 819.94,-270.11 854.03,-273.03"/>
<polygon fill="#63b8ff" stroke="#63b8ff" points="853.5,-276.5 863.75,-273.83 854.07,-269.52 853.5,-276.5"/>
</a>
</g>
</g>
<!-- Node4&#45;&gt;Node7 -->
<g id="edge8_Node000004_Node000007" class="edge">
<title>Node4&#45;&gt;Node7</title>
<g id="a_edge8_Node000004_Node000007"><a xlink:title=" ">
<path fill="none" stroke="#63b8ff" d="M693.8,-232.19C707.16,-228.16 724.53,-223.36 740.25,-220.38 782.92,-212.28 832,-207.38 867.97,-204.58"/>
<polygon fill="#63b8ff" stroke="#63b8ff" points="867.94,-208.09 877.65,-203.86 867.42,-201.11 867.94,-208.09"/>
</a>
</g>
</g>
<!-- Node5&#45;&gt;Node6 -->
<g id="edge5_Node000005_Node000006" class="edge">
<title>Node5&#45;&gt;Node6</title>
<g id="a_edge5_Node000005_Node000006"><a xlink:title=" ">
<path fill="none" stroke="#63b8ff" d="M823.83,-250.16C838.32,-254.29 855.05,-259.07 870.43,-263.45"/>
<polygon fill="#63b8ff" stroke="#63b8ff" points="869.3,-266.77 879.87,-266.15 871.22,-260.04 869.3,-266.77"/>
</a>
</g>
</g>
<!-- Node5&#45;&gt;Node7 -->
<g id="edge6_Node000005_Node000007" class="edge">
<title>Node5&#45;&gt;Node7</title>
<g id="a_edge6_Node000005_Node000007"><a xlink:title=" ">
<path fill="none" stroke="#63b8ff" d="M823.83,-228.59C838.32,-224.46 855.05,-219.68 870.43,-215.3"/>
<polygon fill="#63b8ff" stroke="#63b8ff" points="871.22,-218.71 879.87,-212.6 869.3,-211.98 871.22,-218.71"/>
</a>
</g>
</g>
<!-- Node9 -->
<g id="Node000009" class="node">
<title>Node9</title>
<g id="a_Node000009"><a xlink:href="../../d6/d7f/a00287.html#aa0145c044cfdde3a1c83323410a59f25" target="_top" xlink:title="safer alternative to strncat">
<polygon fill="white" stroke="#666666" points="703.12,-479.75 637.62,-479.75 637.62,-459 703.12,-459 703.12,-479.75"/>
<text xml:space="preserve" text-anchor="middle" x="670.38" y="-466.25" font-family="Helvetica,sans-Serif" font-size="10.00">strnz__cat</text>
</a>
</g>
</g>
<!-- Node8&#45;&gt;Node9 -->
<g id="edge10_Node000008_Node000009" class="edge">
<title>Node8&#45;&gt;Node9</title>
<g id="a_edge10_Node000008_Node000009"><a xlink:title=" ">
<path fill="none" stroke="#63b8ff" d="M600.79,-469.38C609.08,-469.38 617.69,-469.38 625.91,-469.38"/>
<polygon fill="#63b8ff" stroke="#63b8ff" points="625.67,-472.88 635.67,-469.38 625.67,-465.88 625.67,-472.88"/>
</a>
</g>
</g>
<!-- Node11&#45;&gt;Node4 -->
<g id="edge13_Node000011_Node000004" class="edge">
<title>Node11&#45;&gt;Node4</title>
<g id="a_edge13_Node000011_Node000004"><a xlink:title=" ">
<path fill="none" stroke="#63b8ff" d="M587.38,-266.59C602.7,-261.5 620.95,-255.45 636.34,-250.34"/>
<polygon fill="#63b8ff" stroke="#63b8ff" points="637.13,-253.76 645.52,-247.29 634.93,-247.12 637.13,-253.76"/>
</a>
</g>
</g>
<!-- Node12&#45;&gt;Node13 -->
<g id="edge15_Node000012_Node000013" class="edge">
<title>Node12&#45;&gt;Node13</title>
<g id="a_edge15_Node000012_Node000013"><a xlink:title=" ">
<path fill="none" stroke="#63b8ff" d="M600.13,-591.88C609.82,-593.49 619.98,-595.18 629.45,-596.75"/>
<polygon fill="#63b8ff" stroke="#63b8ff" points="628.65,-600.16 639.09,-598.35 629.79,-593.26 628.65,-600.16"/>
</a>
</g>
</g>
<!-- Node16&#45;&gt;Node14 -->
<g id="edge21_Node000016_Node000014" class="edge">
<title>Node16&#45;&gt;Node14</title>
<g id="a_edge21_Node000016_Node000014"><a xlink:title=" ">
<path fill="none" stroke="#63b8ff" d="M583.47,-420.63C596.56,-416.18 612.35,-410.8 626.79,-405.88"/>
<polygon fill="#63b8ff" stroke="#63b8ff" points="627.74,-409.25 636.08,-402.72 625.49,-402.63 627.74,-409.25"/>
</a>
</g>
</g>
<!-- Node17 -->
<g id="Node000017" class="node">
<title>Node17</title>
<g id="a_Node000017"><a xlink:href="../../d6/d82/a00293.html#ac9adcf7339be4a05ab1a7350c236b8a5" target="_top" xlink:title="Draw a box around the specified window.">
<polygon fill="white" stroke="#666666" points="690,-440.75 650.75,-440.75 650.75,-420 690,-420 690,-440.75"/>
<text xml:space="preserve" text-anchor="middle" x="670.38" y="-427.25" font-family="Helvetica,sans-Serif" font-size="10.00">cbox</text>
</a>
</g>
</g>
<!-- Node16&#45;&gt;Node17 -->
<g id="edge20_Node000016_Node000017" class="edge">
<title>Node16&#45;&gt;Node17</title>
<g id="a_edge20_Node000016_Node000017"><a xlink:title=" ">
<path fill="none" stroke="#63b8ff" d="M583.47,-430.38C600.4,-430.38 621.82,-430.38 639.04,-430.38"/>
<polygon fill="#63b8ff" stroke="#63b8ff" points="638.94,-433.88 648.94,-430.38 638.94,-426.88 638.94,-433.88"/>
</a>
</g>
</g>
<!-- Node19 -->
<g id="Node000019" class="node">
<title>Node19</title>
<g id="a_Node000019"><a xlink:href="../../d6/d82/a00293.html#a67659f8a701b74f4dec0d36227a10d1c" target="_top" xlink:title="Display an error message window or print to stderr.">
<polygon fill="white" stroke="#666666" points="464.88,-403.75 385.12,-403.75 385.12,-383 464.88,-383 464.88,-403.75"/>
<text xml:space="preserve" text-anchor="middle" x="425" y="-390.25" font-family="Helvetica,sans-Serif" font-size="10.00">display_error</text>
</a>
</g>
</g>
<!-- Node18&#45;&gt;Node19 -->
<g id="edge23_Node000018_Node000019" class="edge">
<title>Node18&#45;&gt;Node19</title>
<g id="a_edge23_Node000018_Node000019"><a xlink:title=" ">
<path fill="none" stroke="#63b8ff" d="M328.23,-387.61C341.54,-386.75 357.86,-386.45 373.23,-386.72"/>
<polygon fill="#63b8ff" stroke="#63b8ff" points="373.13,-390.22 383.22,-387 373.32,-383.22 373.13,-390.22"/>
</a>
</g>
</g>
<!-- Node20 -->
<g id="Node000020" class="node">
<title>Node20</title>
<g id="a_Node000020"><a xlink:href="../../d6/d82/a00293.html#a4298f891699300bfc4e6e56fd2a8d574" target="_top" xlink:title="Get keycode from chyron.">
<polygon fill="white" stroke="#666666" points="471.25,-364.75 378.75,-364.75 378.75,-344 471.25,-344 471.25,-364.75"/>
<text xml:space="preserve" text-anchor="middle" x="425" y="-351.25" font-family="Helvetica,sans-Serif" font-size="10.00">get_chyron_key</text>
</a>
</g>
</g>
<!-- Node18&#45;&gt;Node20 -->
<g id="edge34_Node000018_Node000020" class="edge">
<title>Node18&#45;&gt;Node20</title>
<g id="a_edge34_Node000018_Node000020"><a xlink:title=" ">
<path fill="none" stroke="#63b8ff" d="M328.23,-384.53C343.22,-379.81 362.03,-373.89 379,-368.54"/>
<polygon fill="#63b8ff" stroke="#63b8ff" points="379.89,-371.93 388.38,-365.59 377.79,-365.25 379.89,-371.93"/>
</a>
</g>
</g>
<!-- Node19&#45;&gt;Node4 -->
<g id="edge24_Node000019_Node000004" class="edge">
<title>Node19&#45;&gt;Node4</title>
<g id="a_edge24_Node000019_Node000004"><a xlink:title=" ">
<path fill="none" stroke="#63b8ff" d="M465.28,-387.53C502.93,-380.37 559.88,-365.28 600.5,-335.38 627.51,-315.49 648.11,-281.85 659.47,-260.13"/>
<polygon fill="#63b8ff" stroke="#63b8ff" points="662.52,-261.86 663.88,-251.35 656.27,-258.72 662.52,-261.86"/>
</a>
</g>
</g>
<!-- Node19&#45;&gt;Node8 -->
<g id="edge25_Node000019_Node000008" class="edge">
<title>Node19&#45;&gt;Node8</title>
<g id="a_edge25_Node000019_Node000008"><a xlink:title=" ">
<path fill="none" stroke="#63b8ff" d="M439.85,-404.14C455.62,-416.1 482.41,-435.53 507.25,-449.38 509.92,-450.86 512.72,-452.32 515.57,-453.73"/>
<polygon fill="#63b8ff" stroke="#63b8ff" points="514.01,-456.86 524.55,-457.93 516.98,-450.52 514.01,-456.86"/>
</a>
</g>
</g>
<!-- Node19&#45;&gt;Node10 -->
<g id="edge26_Node000019_Node000010" class="edge">
<title>Node19&#45;&gt;Node10</title>
<g id="a_edge26_Node000019_Node000010"><a xlink:title=" ">
<path fill="none" stroke="#63b8ff" d="M454.03,-382.7C459.91,-379.99 465.93,-376.85 471.25,-373.38 489.42,-361.5 489.5,-352.86 507.25,-340.38 511.12,-337.65 515.34,-335.03 519.6,-332.58"/>
<polygon fill="#63b8ff" stroke="#63b8ff" points="521.01,-335.8 528.12,-327.95 517.67,-329.65 521.01,-335.8"/>
</a>
</g>
</g>
<!-- Node19&#45;&gt;Node11 -->
<g id="edge27_Node000019_Node000011" class="edge">
<title>Node19&#45;&gt;Node11</title>
<g id="a_edge27_Node000019_Node000011"><a xlink:title=" ">
<path fill="none" stroke="#63b8ff" d="M458,-382.73C462.81,-380.18 467.44,-377.09 471.25,-373.38 498.02,-347.29 480.44,-323.41 507.25,-297.38 508.3,-296.36 509.4,-295.39 510.56,-294.46"/>
<polygon fill="#63b8ff" stroke="#63b8ff" points="512.39,-297.45 518.87,-289.06 508.58,-291.58 512.39,-297.45"/>
</a>
</g>
</g>
<!-- Node19&#45;&gt;Node12 -->
<g id="edge28_Node000019_Node000012" class="edge">
<title>Node19&#45;&gt;Node12</title>
<g id="a_edge28_Node000019_Node000012"><a xlink:title=" ">
<path fill="none" stroke="#63b8ff" d="M428.32,-404.14C435.21,-433.64 458.18,-516.77 507.25,-564.38 508.3,-565.39 509.41,-566.36 510.56,-567.28"/>
<polygon fill="#63b8ff" stroke="#63b8ff" points="508.58,-570.17 518.87,-572.69 512.4,-564.3 508.58,-570.17"/>
</a>
</g>
</g>
<!-- Node19&#45;&gt;Node13 -->
<g id="edge29_Node000019_Node000013" class="edge">
<title>Node19&#45;&gt;Node13</title>
<g id="a_edge29_Node000019_Node000013"><a xlink:title=" ">
<path fill="none" stroke="#63b8ff" d="M432.55,-403.95C444.95,-423.17 473.64,-464.12 507.25,-488.38 543.54,-514.56 563.92,-500.59 600.5,-526.38 622.8,-542.1 642.92,-566.33 655.58,-583.4"/>
<polygon fill="#63b8ff" stroke="#63b8ff" points="652.56,-585.2 661.24,-591.28 658.25,-581.12 652.56,-585.2"/>
</a>
</g>
</g>
<!-- Node19&#45;&gt;Node14 -->
<g id="edge30_Node000019_Node000014" class="edge">
<title>Node19&#45;&gt;Node14</title>
<g id="a_edge30_Node000019_Node000014"><a xlink:title=" ">
<path fill="none" stroke="#63b8ff" d="M465.37,-393.05C509.06,-392.69 579.39,-392.11 625,-391.74"/>
<polygon fill="#63b8ff" stroke="#63b8ff" points="624.83,-395.24 634.8,-391.66 624.77,-388.24 624.83,-395.24"/>
</a>
</g>
</g>
<!-- Node19&#45;&gt;Node15 -->
<g id="edge31_Node000019_Node000015" class="edge">
<title>Node19&#45;&gt;Node15</title>
<g id="a_edge31_Node000019_Node000015"><a xlink:title=" ">
<path fill="none" stroke="#63b8ff" d="M430.41,-403.95C440.72,-427.64 468.54,-485.7 507.25,-521.38 510.17,-524.06 513.44,-526.54 516.87,-528.8"/>
<polygon fill="#63b8ff" stroke="#63b8ff" points="515.02,-531.78 525.42,-533.82 518.56,-525.74 515.02,-531.78"/>
</a>
</g>
</g>
<!-- Node19&#45;&gt;Node16 -->
<g id="edge32_Node000019_Node000016" class="edge">
<title>Node19&#45;&gt;Node16</title>
<g id="a_edge32_Node000019_Node000016"><a xlink:title=" ">
<path fill="none" stroke="#63b8ff" d="M463.04,-404.18C478.85,-408.79 497.32,-414.17 513.38,-418.86"/>
<polygon fill="#63b8ff" stroke="#63b8ff" points="512.03,-422.11 522.61,-421.55 513.99,-415.39 512.03,-422.11"/>
</a>
</g>
</g>
<!-- Node19&#45;&gt;Node18 -->
<g id="edge33_Node000019_Node000018" class="edge">
<title>Node19&#45;&gt;Node18</title>
<g id="a_edge33_Node000019_Node000018"><a xlink:title=" ">
<path fill="none" stroke="#63b8ff" d="M384.73,-399.71C370.25,-400.27 353.85,-400.26 339.36,-399.7"/>
<polygon fill="#63b8ff" stroke="#63b8ff" points="339.91,-396.23 329.75,-399.21 339.55,-403.22 339.91,-396.23"/>
</a>
</g>
</g>
<!-- Node23&#45;&gt;Node4 -->
<g id="edge40_Node000023_Node000004" class="edge">
<title>Node23&#45;&gt;Node4</title>
<g id="a_edge40_Node000023_Node000004"><a xlink:title=" ">
<path fill="none" stroke="#63b8ff" d="M205.2,-157.49C286.53,-148.51 463.53,-137.28 600.5,-187.38 619.94,-194.48 638.45,-209.06 651.38,-220.97"/>
<polygon fill="#63b8ff" stroke="#63b8ff" points="648.65,-223.21 658.29,-227.62 653.51,-218.17 648.65,-223.21"/>
</a>
</g>
</g>
<!-- Node24 -->
<g id="Node000024" class="node">
<title>Node24</title>
<g id="a_Node000024"><a xlink:href="../../d3/d1a/a00251.html#aa08a9a8dede37c66c81c3f51a0f338a9" target="_top" xlink:title="Signal handler for interrupt signals.">
<polygon fill="white" stroke="#666666" points="342.75,-135.75 255.5,-135.75 255.5,-115 342.75,-115 342.75,-135.75"/>
<text xml:space="preserve" text-anchor="middle" x="299.12" y="-122.25" font-family="Helvetica,sans-Serif" font-size="10.00">signal_handler</text>
</a>
</g>
</g>
<!-- Node23&#45;&gt;Node24 -->
<g id="edge41_Node000023_Node000024" class="edge">
<title>Node23&#45;&gt;Node24</title>
<g id="a_edge41_Node000023_Node000024"><a xlink:title=" ">
<path fill="none" stroke="#63b8ff" d="M199.75,-152.59C214.83,-148.42 232.28,-143.59 248.25,-139.17"/>
<polygon fill="#63b8ff" stroke="#63b8ff" points="248.87,-142.63 257.57,-136.59 247,-135.89 248.87,-142.63"/>
</a>
</g>
</g>
</g>
</svg>
