<?xml version="1.0" encoding="UTF-8" standalone="no"?>
<!DOCTYPE svg PUBLIC "-//W3C//DTD SVG 1.1//EN"
 "http://www.w3.org/Graphics/SVG/1.1/DTD/svg11.dtd">
<!-- Generated by graphviz version 14.1.2 (0)
 -->
<!-- Title: form_read_data Pages: 1 -->
<!--zoomable 815 -->

<svg id="main" version="1.1" xmlns="http://www.w3.org/2000/svg" xmlns:xlink="http://www.w3.org/1999/xlink" xml:space="preserve" onload="init(evt)">

<style type="text/css"><![CDATA[
.node, .edge {opacity: 0.7;}
.node.selected, .edge.selected {opacity: 1;}
.edge:hover path { stroke: red; }
.edge:hover polygon { stroke: red; fill: red; }
]]></style>

<defs>
  <circle id="rim" cx="0" cy="0" r="7"/>
  <circle id="rim2" cx="0" cy="0" r="3.5"/>
  <g id="zoomPlus">
    <use xlink:href="#rim" fill="#404040"><set attributeName="fill" to="#808080" begin="zoomplus.mouseover" end="zoomplus.mouseout"/></use>
    <path d="M-4,0h8M0,-4v8" fill="none" stroke="white" stroke-width="1.5" pointer-events="none"/>
  </g>
  <g id="zoomMin">
    <use xlink:href="#rim" fill="#404040"><set attributeName="fill" to="#808080" begin="zoomminus.mouseover" end="zoomminus.mouseout"/></use>
    <path d="M-4,0h8" fill="none" stroke="white" stroke-width="1.5" pointer-events="none"/>
  </g>
  <g id="arrowUp" transform="translate(30 24)">
    <use xlink:href="#rim"/>
    <path pointer-events="none" fill="none" stroke="white" stroke-width="1.5" d="M0,-3.0v7 M-2.5,-0.5L0,-3.0L2.5,-0.5"/>
  </g>
  <g id="arrowRight" transform="rotate(90) translate(36 -43)">
    <use xlink:href="#rim"/>
    <path pointer-events="none" fill="none" stroke="white" stroke-width="1.5" d="M0,-3.0v7 M-2.5,-0.5L0,-3.0L2.5,-0.5"/>
  </g>
  <g id="arrowDown" transform="rotate(180) translate(-30 -48)">
    <use xlink:href="#rim"/>
    <path pointer-events="none" fill="none" stroke="white" stroke-width="1.5" d="M0,-3.0v7 M-2.5,-0.5L0,-3.0L2.5,-0.5"/>
  </g>
  <g id="arrowLeft" transform="rotate(270) translate(-36 17)">
    <use xlink:href="#rim"/>
    <path pointer-events="none" fill="none" stroke="white" stroke-width="1.5" d="M0,-3.0v7 M-2.5,-0.5L0,-3.0L2.5,-0.5"/>
  </g>
  <g id="resetDef">
    <use xlink:href="#rim2" fill="#404040"><set attributeName="fill" to="#808080" begin="reset.mouseover" end="reset.mouseout"/></use>
  </g>
</defs>
<script type="application/ecmascript">
var viewWidth = 870;
var viewHeight = 815;
var sectionId = 'dynsection-21';
</script>
<script type="application/ecmascript" xlink:href="../../svg.min.js"/>
<svg id="graph" class="graph">
<g id="viewport">
<title>form_read_data</title>
<!-- Node1 -->
<g id="Node000001" class="node">
<title>Node1</title>
<g id="a_Node000001"><a xlink:title="Read initial data for form fields from a specified input source, such as a file or standard input,...">
<polygon fill="#999999" stroke="#666666" points="93.25,-423.75 0,-423.75 0,-403 93.25,-403 93.25,-423.75"/>
<text xml:space="preserve" text-anchor="middle" x="46.62" y="-410.25" font-family="Helvetica,sans-Serif" font-size="10.00">form_read_data</text>
</a>
</g>
</g>
<!-- Node2 -->
<g id="Node000002" class="node">
<title>Node2</title>
<g id="a_Node000002"><a xlink:href="../../de/d25/a00290.html#a67659f8a701b74f4dec0d36227a10d1c" target="_top" xlink:title="Display an error message window or print to stderr.">
<polygon fill="white" stroke="#666666" points="333.75,-596.75 254,-596.75 254,-576 333.75,-576 333.75,-596.75"/>
<text xml:space="preserve" text-anchor="middle" x="293.88" y="-583.25" font-family="Helvetica,sans-Serif" font-size="10.00">display_error</text>
</a>
</g>
</g>
<!-- Node1&#45;&gt;Node2 -->
<g id="edge1_Node000001_Node000002" class="edge">
<title>Node1&#45;&gt;Node2</title>
<g id="a_edge1_Node000001_Node000002"><a xlink:title=" ">
<path fill="none" stroke="#63b8ff" d="M62.97,-424.2C104.26,-453.32 218.01,-533.57 268.36,-569.08"/>
<polygon fill="#63b8ff" stroke="#63b8ff" points="266.11,-571.78 276.3,-574.68 270.15,-566.06 266.11,-571.78"/>
</a>
</g>
</g>
<!-- Node8 -->
<g id="Node000008" class="node">
<title>Node8</title>
<g id="a_Node000008"><a xlink:href="../../db/dc3/a00284.html#aa0145c044cfdde3a1c83323410a59f25" target="_top" xlink:title="safer alternative to strncat">
<polygon fill="white" stroke="#666666" points="578,-806.75 512.5,-806.75 512.5,-786 578,-786 578,-806.75"/>
<text xml:space="preserve" text-anchor="middle" x="545.25" y="-793.25" font-family="Helvetica,sans-Serif" font-size="10.00">strnz__cat</text>
</a>
</g>
</g>
<!-- Node1&#45;&gt;Node8 -->
<g id="edge45_Node000001_Node000008" class="edge">
<title>Node1&#45;&gt;Node8</title>
<g id="a_edge45_Node000001_Node000008"><a xlink:title=" ">
<path fill="none" stroke="#63b8ff" d="M53.02,-423.99C79.33,-474.51 199.86,-691.64 369.75,-777.38 410.75,-798.06 463.94,-800.98 500.77,-799.88"/>
<polygon fill="#63b8ff" stroke="#63b8ff" points="500.76,-803.38 510.6,-799.46 500.46,-796.39 500.76,-803.38"/>
</a>
</g>
</g>
<!-- Node13 -->
<g id="Node000013" class="node">
<title>Node13</title>
<g id="a_Node000013"><a xlink:href="../../db/dc3/a00284.html#a0de2e40df9bd7efc8fd9afb8ad2257e6" target="_top" xlink:title="safer alternative to strncpy">
<polygon fill="white" stroke="#666666" points="579.12,-307.75 511.38,-307.75 511.38,-287 579.12,-287 579.12,-307.75"/>
<text xml:space="preserve" text-anchor="middle" x="545.25" y="-294.25" font-family="Helvetica,sans-Serif" font-size="10.00">strnz__cpy</text>
</a>
</g>
</g>
<!-- Node1&#45;&gt;Node13 -->
<g id="edge46_Node000001_Node000013" class="edge">
<title>Node1&#45;&gt;Node13</title>
<g id="a_edge46_Node000001_Node000013"><a xlink:title=" ">
<path fill="none" stroke="#63b8ff" d="M67.56,-402.51C116.95,-376.28 249.66,-310.03 369.75,-287.38 413.61,-279.1 464.67,-283.64 500.18,-288.99"/>
<polygon fill="#63b8ff" stroke="#63b8ff" points="499.22,-292.38 509.64,-290.51 500.32,-285.47 499.22,-292.38"/>
</a>
</g>
</g>
<!-- Node19 -->
<g id="Node000019" class="node">
<title>Node19</title>
<g id="a_Node000019"><a xlink:href="../../d6/d82/a00293.html#a07a8d9311c88786e7310fef638d34a41" target="_top" xlink:title="Format field according to its format type.">
<polygon fill="white" stroke="#666666" points="218,-175.75 129.25,-175.75 129.25,-155 218,-155 218,-175.75"/>
<text xml:space="preserve" text-anchor="middle" x="173.62" y="-162.25" font-family="Helvetica,sans-Serif" font-size="10.00">form_fmt_field</text>
</a>
</g>
</g>
<!-- Node1&#45;&gt;Node19 -->
<g id="edge24_Node000001_Node000019" class="edge">
<title>Node1&#45;&gt;Node19</title>
<g id="a_edge24_Node000001_Node000019"><a xlink:title=" ">
<path fill="none" stroke="#63b8ff" d="M53,-402.72C72.07,-364.88 136.75,-236.55 162.21,-186.04"/>
<polygon fill="#63b8ff" stroke="#63b8ff" points="165.22,-187.85 166.59,-177.34 158.97,-184.7 165.22,-187.85"/>
</a>
</g>
</g>
<!-- Node3 -->
<g id="Node000003" class="node">
<title>Node3</title>
<g id="a_Node000003"><a xlink:href="../../de/d25/a00290.html#a8f6c45ca4a7f6a41c4c88314e697565a" target="_top" xlink:title="Abnormal program termination.">
<polygon fill="white" stroke="#666666" points="568.25,-499.75 522.25,-499.75 522.25,-479 568.25,-479 568.25,-499.75"/>
<text xml:space="preserve" text-anchor="middle" x="545.25" y="-486.25" font-family="Helvetica,sans-Serif" font-size="10.00">abend</text>
</a>
</g>
</g>
<!-- Node2&#45;&gt;Node3 -->
<g id="edge2_Node000002_Node000003" class="edge">
<title>Node2&#45;&gt;Node3</title>
<g id="a_edge2_Node000002_Node000003"><a xlink:title=" ">
<path fill="none" stroke="#63b8ff" d="M302.05,-597.17C313.85,-613.83 339.13,-645.17 369.75,-657.38 408.25,-672.73 427.89,-679.4 463,-657.38 514.78,-624.9 534.37,-549.04 541.09,-511.38"/>
<polygon fill="#63b8ff" stroke="#63b8ff" points="544.52,-512.12 542.66,-501.69 537.61,-511 544.52,-512.12"/>
</a>
</g>
</g>
<!-- Node7 -->
<g id="Node000007" class="node">
<title>Node7</title>
<g id="a_Node000007"><a xlink:href="../../de/d25/a00290.html#a645871e46277e31736bc36d0f3dce4bd" target="_top" xlink:title="construct the chyron string from the chyron structure">
<polygon fill="white" stroke="#666666" points="463,-729.75 369.75,-729.75 369.75,-709 463,-709 463,-729.75"/>
<text xml:space="preserve" text-anchor="middle" x="416.38" y="-716.25" font-family="Helvetica,sans-Serif" font-size="10.00">compile_chyron</text>
</a>
</g>
</g>
<!-- Node2&#45;&gt;Node7 -->
<g id="edge8_Node000002_Node000007" class="edge">
<title>Node2&#45;&gt;Node7</title>
<g id="a_edge8_Node000002_Node000007"><a xlink:title=" ">
<path fill="none" stroke="#63b8ff" d="M299.9,-596.93C310.36,-617.96 336.29,-665.63 369.75,-695.38 372.88,-698.15 376.38,-700.72 380.03,-703.06"/>
<polygon fill="#63b8ff" stroke="#63b8ff" points="378.1,-705.98 388.51,-707.94 381.59,-699.92 378.1,-705.98"/>
</a>
</g>
</g>
<!-- Node9 -->
<g id="Node000009" class="node">
<title>Node9</title>
<g id="a_Node000009"><a xlink:href="../../de/d25/a00290.html#a3f3feb40fd703913c5c136331f627c91" target="_top" xlink:title="Destroy Chyron structure.">
<polygon fill="white" stroke="#666666" points="461.88,-538.75 370.88,-538.75 370.88,-518 461.88,-518 461.88,-538.75"/>
<text xml:space="preserve" text-anchor="middle" x="416.38" y="-525.25" font-family="Helvetica,sans-Serif" font-size="10.00">destroy_chyron</text>
</a>
</g>
</g>
<!-- Node2&#45;&gt;Node9 -->
<g id="edge10_Node000002_Node000009" class="edge">
<title>Node2&#45;&gt;Node9</title>
<g id="a_edge10_Node000002_Node000009"><a xlink:title=" ">
<path fill="none" stroke="#63b8ff" d="M315.38,-575.58C330.34,-567.79 351.17,-557.16 369.75,-548.38 373.03,-546.82 376.47,-545.24 379.92,-543.68"/>
<polygon fill="#63b8ff" stroke="#63b8ff" points="381.06,-547 388.78,-539.74 378.22,-540.61 381.06,-547"/>
</a>
</g>
</g>
<!-- Node10 -->
<g id="Node000010" class="node">
<title>Node10</title>
<g id="a_Node000010"><a xlink:href="../../de/d25/a00290.html#ad37d5808ff30ae6894780425d865abae" target="_top" xlink:title="Create and initialize Chyron structure.">
<polygon fill="white" stroke="#666666" points="453.62,-499.75 379.12,-499.75 379.12,-479 453.62,-479 453.62,-499.75"/>
<text xml:space="preserve" text-anchor="middle" x="416.38" y="-486.25" font-family="Helvetica,sans-Serif" font-size="10.00">new_chyron</text>
</a>
</g>
</g>
<!-- Node2&#45;&gt;Node10 -->
<g id="edge11_Node000002_Node000010" class="edge">
<title>Node2&#45;&gt;Node10</title>
<g id="a_edge11_Node000002_Node000010"><a xlink:title=" ">
<path fill="none" stroke="#63b8ff" d="M303.04,-575.64C315.78,-559.47 341.86,-528.71 369.75,-509.38 371.69,-508.03 373.74,-506.74 375.85,-505.51"/>
<polygon fill="#63b8ff" stroke="#63b8ff" points="377.39,-508.66 384.65,-500.94 374.17,-502.45 377.39,-508.66"/>
</a>
</g>
</g>
<!-- Node11 -->
<g id="Node000011" class="node">
<title>Node11</title>
<g id="a_Node000011"><a xlink:href="../../de/d25/a00290.html#a208ce92c197fdd6d2b007987e534aa3b" target="_top" xlink:title="Set chyron key.">
<polygon fill="white" stroke="#666666" points="462.25,-460.75 370.5,-460.75 370.5,-440 462.25,-440 462.25,-460.75"/>
<text xml:space="preserve" text-anchor="middle" x="416.38" y="-447.25" font-family="Helvetica,sans-Serif" font-size="10.00">set_chyron_key</text>
</a>
</g>
</g>
<!-- Node2&#45;&gt;Node11 -->
<g id="edge13_Node000002_Node000011" class="edge">
<title>Node2&#45;&gt;Node11</title>
<g id="a_edge13_Node000002_Node000011"><a xlink:title=" ">
<path fill="none" stroke="#63b8ff" d="M299.24,-575.61C308.84,-553.18 333.8,-500.99 369.75,-470.38 371.2,-469.14 372.74,-467.97 374.33,-466.87"/>
<polygon fill="#63b8ff" stroke="#63b8ff" points="375.83,-470.04 382.69,-461.96 372.29,-464.01 375.83,-470.04"/>
</a>
</g>
</g>
<!-- Node12 -->
<g id="Node000012" class="node">
<title>Node12</title>
<g id="a_Node000012"><a xlink:href="../../db/dc3/a00284.html#a63eb94756fb011a456a3dec900709cd8" target="_top" xlink:title="ssnprintf was designed to be a safer alternative to snprintf.">
<polygon fill="white" stroke="#666666" points="574.62,-460.75 515.88,-460.75 515.88,-440 574.62,-440 574.62,-460.75"/>
<text xml:space="preserve" text-anchor="middle" x="545.25" y="-447.25" font-family="Helvetica,sans-Serif" font-size="10.00">ssnprintf</text>
</a>
</g>
</g>
<!-- Node2&#45;&gt;Node12 -->
<g id="edge15_Node000002_Node000012" class="edge">
<title>Node2&#45;&gt;Node12</title>
<g id="a_edge15_Node000002_Node000012"><a xlink:title=" ">
<path fill="none" stroke="#63b8ff" d="M311.2,-597.21C343.73,-617.33 417.42,-655.25 463,-619.38 516.53,-577.24 455.33,-522.66 499,-470.38 501,-467.99 503.33,-465.87 505.88,-464"/>
<polygon fill="#63b8ff" stroke="#63b8ff" points="507.55,-467.08 514.43,-459.02 504.03,-461.03 507.55,-467.08"/>
</a>
</g>
</g>
<!-- Node2&#45;&gt;Node13 -->
<g id="edge16_Node000002_Node000013" class="edge">
<title>Node2&#45;&gt;Node13</title>
<g id="a_edge16_Node000002_Node000013"><a xlink:title=" ">
<path fill="none" stroke="#63b8ff" d="M325.75,-597.25C363.04,-608.2 425.44,-619.24 463,-586.38 553.77,-506.94 426.6,-413.85 499,-317.38 500,-316.04 501.11,-314.8 502.3,-313.64"/>
<polygon fill="#63b8ff" stroke="#63b8ff" points="503.99,-316.74 509.97,-307.98 499.84,-311.1 503.99,-316.74"/>
</a>
</g>
</g>
<!-- Node14 -->
<g id="Node000014" class="node">
<title>Node14</title>
<g id="a_Node000014"><a xlink:href="../../de/d25/a00290.html#a9dd598e1d49c8764af1eec42c682623e" target="_top" xlink:title="Delete the current window and its associated box window.">
<polygon fill="white" stroke="#666666" points="443.12,-577.75 389.62,-577.75 389.62,-557 443.12,-557 443.12,-577.75"/>
<text xml:space="preserve" text-anchor="middle" x="416.38" y="-564.25" font-family="Helvetica,sans-Serif" font-size="10.00">win_del</text>
</a>
</g>
</g>
<!-- Node2&#45;&gt;Node14 -->
<g id="edge17_Node000002_Node000014" class="edge">
<title>Node2&#45;&gt;Node14</title>
<g id="a_edge17_Node000002_Node000014"><a xlink:title=" ">
<path fill="none" stroke="#63b8ff" d="M334,-580.21C348.17,-577.97 364.13,-575.45 378.14,-573.25"/>
<polygon fill="#63b8ff" stroke="#63b8ff" points="378.53,-576.73 387.87,-571.71 377.44,-569.81 378.53,-576.73"/>
</a>
</g>
</g>
<!-- Node15 -->
<g id="Node000015" class="node">
<title>Node15</title>
<g id="a_Node000015"><a xlink:href="../../de/d25/a00290.html#a435c7bff7ffedb8f51c6de9259e36f6c" target="_top" xlink:title="Create a new window with optional box and title.">
<polygon fill="white" stroke="#666666" points="445.75,-346.75 387,-346.75 387,-326 445.75,-326 445.75,-346.75"/>
<text xml:space="preserve" text-anchor="middle" x="416.38" y="-333.25" font-family="Helvetica,sans-Serif" font-size="10.00">win_new</text>
</a>
</g>
</g>
<!-- Node2&#45;&gt;Node15 -->
<g id="edge18_Node000002_Node000015" class="edge">
<title>Node2&#45;&gt;Node15</title>
<g id="a_edge18_Node000002_Node000015"><a xlink:title=" ">
<path fill="none" stroke="#63b8ff" d="M300.05,-575.63C318.44,-537.49 380.79,-408.13 405.33,-357.21"/>
<polygon fill="#63b8ff" stroke="#63b8ff" points="408.37,-358.97 409.56,-348.44 402.06,-355.93 408.37,-358.97"/>
</a>
</g>
</g>
<!-- Node17 -->
<g id="Node000017" class="node">
<title>Node17</title>
<g id="a_Node000017"><a xlink:href="../../de/d25/a00290.html#acf4c709bccc4c965a5d61db978db31a3" target="_top" xlink:title="Wrapper for wgetch that handles signals and mouse events.">
<polygon fill="white" stroke="#666666" points="445,-768.75 387.75,-768.75 387.75,-748 445,-748 445,-768.75"/>
<text xml:space="preserve" text-anchor="middle" x="416.38" y="-755.25" font-family="Helvetica,sans-Serif" font-size="10.00">xwgetch</text>
</a>
</g>
</g>
<!-- Node2&#45;&gt;Node17 -->
<g id="edge21_Node000002_Node000017" class="edge">
<title>Node2&#45;&gt;Node17</title>
<g id="a_edge21_Node000002_Node000017"><a xlink:title=" ">
<path fill="none" stroke="#63b8ff" d="M298.79,-597.19C307,-623.67 328.72,-690.13 369.75,-729.38 375.78,-735.14 383.75,-739.41 391.34,-742.96"/>
<polygon fill="#63b8ff" stroke="#63b8ff" points="389.64,-746.03 400.19,-746.97 392.53,-739.66 389.64,-746.03"/>
</a>
</g>
</g>
<!-- Node4 -->
<g id="Node000004" class="node">
<title>Node4</title>
<g id="a_Node000004"><a xlink:href="../../de/d25/a00290.html#afc0985a403e3eac0b2cd8f0fab500256" target="_top" xlink:title="Gracefully shut down NCurses and restore terminal settings.">
<polygon fill="white" stroke="#666666" points="717,-499.75 627.5,-499.75 627.5,-479 717,-479 717,-499.75"/>
<text xml:space="preserve" text-anchor="middle" x="672.25" y="-486.25" font-family="Helvetica,sans-Serif" font-size="10.00">destroy_curses</text>
</a>
</g>
</g>
<!-- Node3&#45;&gt;Node4 -->
<g id="edge3_Node000003_Node000004" class="edge">
<title>Node3&#45;&gt;Node4</title>
<g id="a_edge3_Node000003_Node000004"><a xlink:title=" ">
<path fill="none" stroke="#63b8ff" d="M568.6,-489.38C581.78,-489.38 599.09,-489.38 615.73,-489.38"/>
<polygon fill="#63b8ff" stroke="#63b8ff" points="615.57,-492.88 625.57,-489.38 615.57,-485.88 615.57,-492.88"/>
</a>
</g>
</g>
<!-- Node5 -->
<g id="Node000005" class="node">
<title>Node5</title>
<g id="a_Node000005"><a xlink:href="../../db/d7b/a00296.html#ac5e3adb304b78910fc77761ef6a743f0" target="_top" xlink:title="restore_shell_tioctl() &#45; restore shell terminal settings">
<polygon fill="white" stroke="#666666" points="862,-527.75 753,-527.75 753,-507 862,-507 862,-527.75"/>
<text xml:space="preserve" text-anchor="middle" x="807.5" y="-514.25" font-family="Helvetica,sans-Serif" font-size="10.00">restore_shell_tioctl</text>
</a>
</g>
</g>
<!-- Node3&#45;&gt;Node5 -->
<g id="edge6_Node000003_Node000005" class="edge">
<title>Node3&#45;&gt;Node5</title>
<g id="a_edge6_Node000003_Node000005"><a xlink:title=" ">
<path fill="none" stroke="#63b8ff" d="M568.46,-495.71C584.68,-500.05 607.27,-505.53 627.5,-508.38 665.01,-513.66 707.32,-515.95 741.39,-516.91"/>
<polygon fill="#63b8ff" stroke="#63b8ff" points="741.01,-520.4 751.09,-517.14 741.18,-513.4 741.01,-520.4"/>
</a>
</g>
</g>
<!-- Node6 -->
<g id="Node000006" class="node">
<title>Node6</title>
<g id="a_Node000006"><a xlink:href="../../dd/dd7/a00248.html#a06c1eb6cf3649dc187115565409f91af" target="_top" xlink:title="Set signal handlers to default behavior.">
<polygon fill="white" stroke="#666666" points="848.12,-479.75 766.88,-479.75 766.88,-459 848.12,-459 848.12,-479.75"/>
<text xml:space="preserve" text-anchor="middle" x="807.5" y="-466.25" font-family="Helvetica,sans-Serif" font-size="10.00">sig_dfl_mode</text>
</a>
</g>
</g>
<!-- Node3&#45;&gt;Node6 -->
<g id="edge7_Node000003_Node000006" class="edge">
<title>Node3&#45;&gt;Node6</title>
<g id="a_edge7_Node000003_Node000006"><a xlink:title=" ">
<path fill="none" stroke="#63b8ff" d="M568.43,-482.77C584.63,-478.29 607.22,-472.77 627.5,-470.38 670.39,-465.31 719.46,-465.45 755.36,-466.63"/>
<polygon fill="#63b8ff" stroke="#63b8ff" points="754.89,-470.12 765.02,-466.99 755.15,-463.12 754.89,-470.12"/>
</a>
</g>
</g>
<!-- Node4&#45;&gt;Node5 -->
<g id="edge4_Node000004_Node000005" class="edge">
<title>Node4&#45;&gt;Node5</title>
<g id="a_edge4_Node000004_Node000005"><a xlink:title=" ">
<path fill="none" stroke="#63b8ff" d="M717.25,-498.62C725.87,-500.43 735.07,-502.37 744.16,-504.28"/>
<polygon fill="#63b8ff" stroke="#63b8ff" points="743.16,-507.64 753.67,-506.27 744.6,-500.79 743.16,-507.64"/>
</a>
</g>
</g>
<!-- Node4&#45;&gt;Node6 -->
<g id="edge5_Node000004_Node000006" class="edge">
<title>Node4&#45;&gt;Node6</title>
<g id="a_edge5_Node000004_Node000006"><a xlink:title=" ">
<path fill="none" stroke="#63b8ff" d="M717.25,-482.77C729.44,-480.94 742.77,-478.94 755.33,-477.06"/>
<polygon fill="#63b8ff" stroke="#63b8ff" points="755.73,-480.54 765.1,-475.59 754.69,-473.61 755.73,-480.54"/>
</a>
</g>
</g>
<!-- Node7&#45;&gt;Node8 -->
<g id="edge9_Node000007_Node000008" class="edge">
<title>Node7&#45;&gt;Node8</title>
<g id="a_edge9_Node000007_Node000008"><a xlink:title=" ">
<path fill="none" stroke="#63b8ff" d="M446.75,-730.24C452.36,-732.87 458.02,-735.93 463,-739.38 481.86,-752.45 480.16,-763.28 499,-776.38 501.06,-777.81 503.24,-779.18 505.49,-780.47"/>
<polygon fill="#63b8ff" stroke="#63b8ff" points="503.76,-783.52 514.25,-785.01 506.98,-777.3 503.76,-783.52"/>
</a>
</g>
</g>
<!-- Node10&#45;&gt;Node3 -->
<g id="edge12_Node000010_Node000003" class="edge">
<title>Node10&#45;&gt;Node3</title>
<g id="a_edge12_Node000010_Node000003"><a xlink:title=" ">
<path fill="none" stroke="#63b8ff" d="M454.07,-489.38C471.91,-489.38 493.2,-489.38 510.62,-489.38"/>
<polygon fill="#63b8ff" stroke="#63b8ff" points="510.45,-492.88 520.45,-489.38 510.45,-485.88 510.45,-492.88"/>
</a>
</g>
</g>
<!-- Node11&#45;&gt;Node12 -->
<g id="edge14_Node000011_Node000012" class="edge">
<title>Node11&#45;&gt;Node12</title>
<g id="a_edge14_Node000011_Node000012"><a xlink:title=" ">
<path fill="none" stroke="#63b8ff" d="M462.46,-450.38C476.13,-450.38 491.03,-450.38 504.33,-450.38"/>
<polygon fill="#63b8ff" stroke="#63b8ff" points="504.02,-453.88 514.02,-450.38 504.02,-446.88 504.02,-453.88"/>
</a>
</g>
</g>
<!-- Node15&#45;&gt;Node13 -->
<g id="edge20_Node000015_Node000013" class="edge">
<title>Node15&#45;&gt;Node13</title>
<g id="a_edge20_Node000015_Node000013"><a xlink:title=" ">
<path fill="none" stroke="#63b8ff" d="M446.16,-327.53C462.15,-322.61 482.37,-316.4 500.29,-310.89"/>
<polygon fill="#63b8ff" stroke="#63b8ff" points="501.11,-314.3 509.64,-308.01 499.06,-307.61 501.11,-314.3"/>
</a>
</g>
</g>
<!-- Node16 -->
<g id="Node000016" class="node">
<title>Node16</title>
<g id="a_Node000016"><a xlink:href="../../de/d25/a00290.html#ac9adcf7339be4a05ab1a7350c236b8a5" target="_top" xlink:title="Draw a box around the specified window.">
<polygon fill="white" stroke="#666666" points="564.88,-346.75 525.62,-346.75 525.62,-326 564.88,-326 564.88,-346.75"/>
<text xml:space="preserve" text-anchor="middle" x="545.25" y="-333.25" font-family="Helvetica,sans-Serif" font-size="10.00">cbox</text>
</a>
</g>
</g>
<!-- Node15&#45;&gt;Node16 -->
<g id="edge19_Node000015_Node000016" class="edge">
<title>Node15&#45;&gt;Node16</title>
<g id="a_edge19_Node000015_Node000016"><a xlink:title=" ">
<path fill="none" stroke="#63b8ff" d="M446.16,-336.38C466.46,-336.38 493.57,-336.38 514.15,-336.38"/>
<polygon fill="#63b8ff" stroke="#63b8ff" points="513.89,-339.88 523.89,-336.38 513.89,-332.88 513.89,-339.88"/>
</a>
</g>
</g>
<!-- Node17&#45;&gt;Node2 -->
<g id="edge22_Node000017_Node000002" class="edge">
<title>Node17&#45;&gt;Node2</title>
<g id="a_edge22_Node000017_Node000002"><a xlink:title=" ">
<path fill="none" stroke="#63b8ff" d="M387.42,-758.52C381.08,-755.9 374.75,-752.16 369.75,-747.38 329.04,-708.44 307.34,-642.71 298.99,-608.29"/>
<polygon fill="#63b8ff" stroke="#63b8ff" points="302.42,-607.61 296.83,-598.6 295.59,-609.13 302.42,-607.61"/>
</a>
</g>
</g>
<!-- Node18 -->
<g id="Node000018" class="node">
<title>Node18</title>
<g id="a_Node000018"><a xlink:href="../../de/d25/a00290.html#a4298f891699300bfc4e6e56fd2a8d574" target="_top" xlink:title="Get keycode from chyron.">
<polygon fill="white" stroke="#666666" points="591.5,-767.75 499,-767.75 499,-747 591.5,-747 591.5,-767.75"/>
<text xml:space="preserve" text-anchor="middle" x="545.25" y="-754.25" font-family="Helvetica,sans-Serif" font-size="10.00">get_chyron_key</text>
</a>
</g>
</g>
<!-- Node17&#45;&gt;Node18 -->
<g id="edge23_Node000017_Node000018" class="edge">
<title>Node17&#45;&gt;Node18</title>
<g id="a_edge23_Node000017_Node000018"><a xlink:title=" ">
<path fill="none" stroke="#63b8ff" d="M445.22,-758.16C457.54,-758.06 472.5,-757.94 487.03,-757.83"/>
<polygon fill="#63b8ff" stroke="#63b8ff" points="487.04,-761.33 497.01,-757.75 486.98,-754.33 487.04,-761.33"/>
</a>
</g>
</g>
<!-- Node19&#45;&gt;Node13 -->
<g id="edge43_Node000019_Node000013" class="edge">
<title>Node19&#45;&gt;Node13</title>
<g id="a_edge43_Node000019_Node000013"><a xlink:title=" ">
<path fill="none" stroke="#63b8ff" d="M218.47,-173.6C276.19,-185.33 380.04,-209.61 463,-246.38 483.68,-255.54 505.28,-269.33 521.01,-280.27"/>
<polygon fill="#63b8ff" stroke="#63b8ff" points="518.57,-282.83 528.75,-285.76 522.62,-277.12 518.57,-282.83"/>
</a>
</g>
</g>
<!-- Node20 -->
<g id="Node000020" class="node">
<title>Node20</title>
<g id="a_Node000020"><a xlink:href="../../d6/d82/a00293.html#a425021d4c87474159a36d395e4dcdf65" target="_top" xlink:title="Left justify string by removing leading spaces.">
<polygon fill="white" stroke="#666666" points="328.12,-137.75 259.62,-137.75 259.62,-117 328.12,-117 328.12,-137.75"/>
<text xml:space="preserve" text-anchor="middle" x="293.88" y="-124.25" font-family="Helvetica,sans-Serif" font-size="10.00">left_justify</text>
</a>
</g>
</g>
<!-- Node19&#45;&gt;Node20 -->
<g id="edge25_Node000019_Node000020" class="edge">
<title>Node19&#45;&gt;Node20</title>
<g id="a_edge25_Node000019_Node000020"><a xlink:title=" ">
<path fill="none" stroke="#63b8ff" d="M208.19,-154.59C220.68,-150.58 235.04,-145.96 248.35,-141.68"/>
<polygon fill="#63b8ff" stroke="#63b8ff" points="249.33,-145.04 257.78,-138.65 247.19,-138.38 249.33,-145.04"/>
</a>
</g>
</g>
<!-- Node21 -->
<g id="Node000021" class="node">
<title>Node21</title>
<g id="a_Node000021"><a xlink:href="../../db/dc3/a00284.html#a34703756fd5be0fde758400f320db047" target="_top" xlink:title="Trims leading and trailing spaces from string s in place.">
<polygon fill="white" stroke="#666666" points="434.5,-137.75 398.25,-137.75 398.25,-117 434.5,-117 434.5,-137.75"/>
<text xml:space="preserve" text-anchor="middle" x="416.38" y="-124.25" font-family="Helvetica,sans-Serif" font-size="10.00">trim</text>
</a>
</g>
</g>
<!-- Node19&#45;&gt;Node21 -->
<g id="edge44_Node000019_Node000021" class="edge">
<title>Node19&#45;&gt;Node21</title>
<g id="a_edge44_Node000019_Node000021"><a xlink:title=" ">
<path fill="none" stroke="#63b8ff" d="M218.38,-161.46C250.45,-158.27 294.97,-153.18 333.75,-146.38 351.56,-143.25 371.33,-138.68 386.94,-134.8"/>
<polygon fill="#63b8ff" stroke="#63b8ff" points="387.67,-138.23 396.51,-132.38 385.95,-131.44 387.67,-138.23"/>
</a>
</g>
</g>
<!-- Node22 -->
<g id="Node000022" class="node">
<title>Node22</title>
<g id="a_Node000022"><a xlink:href="../../d6/d82/a00293.html#aac069c6892f64ea6307044a92b179faa" target="_top" xlink:title="Create filler string for field.">
<polygon fill="white" stroke="#666666" points="323.62,-98.75 264.12,-98.75 264.12,-78 323.62,-78 323.62,-98.75"/>
<text xml:space="preserve" text-anchor="middle" x="293.88" y="-85.25" font-family="Helvetica,sans-Serif" font-size="10.00">mk_filler</text>
</a>
</g>
</g>
<!-- Node19&#45;&gt;Node22 -->
<g id="edge27_Node000019_Node000022" class="edge">
<title>Node19&#45;&gt;Node22</title>
<g id="a_edge27_Node000019_Node000022"><a xlink:title=" ">
<path fill="none" stroke="#63b8ff" d="M188.25,-154.64C203.73,-142.67 229.98,-123.07 254,-108.38 256.02,-107.14 258.13,-105.9 260.27,-104.69"/>
<polygon fill="#63b8ff" stroke="#63b8ff" points="261.89,-107.8 269.03,-99.96 258.57,-101.64 261.89,-107.8"/>
</a>
</g>
</g>
<!-- Node23 -->
<g id="Node000023" class="node">
<title>Node23</title>
<g id="a_Node000023"><a xlink:href="../../d6/d82/a00293.html#a18db59e4c79e823f79310378183ac25c" target="_top" xlink:title="Extract numeric characters from source string to destination string.">
<polygon fill="white" stroke="#666666" points="321.75,-59.75 266,-59.75 266,-39 321.75,-39 321.75,-59.75"/>
<text xml:space="preserve" text-anchor="middle" x="293.88" y="-46.25" font-family="Helvetica,sans-Serif" font-size="10.00">numeric</text>
</a>
</g>
</g>
<!-- Node19&#45;&gt;Node23 -->
<g id="edge28_Node000019_Node000023" class="edge">
<title>Node19&#45;&gt;Node23</title>
<g id="a_edge28_Node000019_Node000023"><a xlink:title=" ">
<path fill="none" stroke="#63b8ff" d="M181.35,-154.66C193.77,-135.54 221.99,-95.13 254,-69.38 255.46,-68.2 257.01,-67.06 258.6,-65.97"/>
<polygon fill="#63b8ff" stroke="#63b8ff" points="260.07,-69.17 266.8,-60.99 256.43,-63.19 260.07,-69.17"/>
</a>
</g>
</g>
<!-- Node24 -->
<g id="Node000024" class="node">
<title>Node24</title>
<g id="a_Node000024"><a xlink:href="../../de/d25/a00290.html#a61b4f28456257f68ed042bed7f187efd" target="_top" xlink:title="Display a simple error message window or print to stderr.">
<polygon fill="white" stroke="#666666" points="316.5,-460.75 271.25,-460.75 271.25,-440 316.5,-440 316.5,-460.75"/>
<text xml:space="preserve" text-anchor="middle" x="293.88" y="-447.25" font-family="Helvetica,sans-Serif" font-size="10.00">Perror</text>
</a>
</g>
</g>
<!-- Node19&#45;&gt;Node24 -->
<g id="edge29_Node000019_Node000024" class="edge">
<title>Node19&#45;&gt;Node24</title>
<g id="a_edge29_Node000019_Node000024"><a xlink:title=" ">
<path fill="none" stroke="#63b8ff" d="M179.12,-176.2C196.6,-218.35 260.34,-371.96 283.98,-428.93"/>
<polygon fill="#63b8ff" stroke="#63b8ff" points="280.73,-430.25 287.8,-438.14 287.2,-427.56 280.73,-430.25"/>
</a>
</g>
</g>
<!-- Node25 -->
<g id="Node000025" class="node">
<title>Node25</title>
<g id="a_Node000025"><a xlink:href="../../d6/d82/a00293.html#a21ebe9713e3b003715a7a2c3b64cbf55" target="_top" xlink:title="Right justify string by removing trailing spaces and adding leading spaces.">
<polygon fill="white" stroke="#666666" points="331.12,-20.75 256.62,-20.75 256.62,0 331.12,0 331.12,-20.75"/>
<text xml:space="preserve" text-anchor="middle" x="293.88" y="-7.25" font-family="Helvetica,sans-Serif" font-size="10.00">right_justify</text>
</a>
</g>
</g>
<!-- Node19&#45;&gt;Node25 -->
<g id="edge40_Node000019_Node000025" class="edge">
<title>Node19&#45;&gt;Node25</title>
<g id="a_edge40_Node000019_Node000025"><a xlink:title=" ">
<path fill="none" stroke="#63b8ff" d="M178.54,-154.56C188,-129.73 214.28,-67.91 254,-30.38 255.05,-29.38 256.17,-28.42 257.33,-27.5"/>
<polygon fill="#63b8ff" stroke="#63b8ff" points="259.2,-30.45 265.58,-21.99 255.32,-24.63 259.2,-30.45"/>
</a>
</g>
</g>
<!-- Node26 -->
<g id="Node000026" class="node">
<title>Node26</title>
<g id="a_Node000026"><a xlink:href="../../db/dc3/a00284.html#a636608f26d1193b5d860f2312cd8ee49" target="_top" xlink:title="terminates string at New Line, Carriage Return, or max_len">
<polygon fill="white" stroke="#666666" points="313.88,-251.75 273.88,-251.75 273.88,-231 313.88,-231 313.88,-251.75"/>
<text xml:space="preserve" text-anchor="middle" x="293.88" y="-238.25" font-family="Helvetica,sans-Serif" font-size="10.00">strnz</text>
</a>
</g>
</g>
<!-- Node19&#45;&gt;Node26 -->
<g id="edge42_Node000019_Node000026" class="edge">
<title>Node19&#45;&gt;Node26</title>
<g id="a_edge42_Node000019_Node000026"><a xlink:title=" ">
<path fill="none" stroke="#63b8ff" d="M190.66,-176.06C206.63,-186.66 231.9,-203.32 254,-217.38 257.81,-219.8 261.84,-222.33 265.81,-224.8"/>
<polygon fill="#63b8ff" stroke="#63b8ff" points="263.76,-227.64 274.11,-229.93 267.44,-221.69 263.76,-227.64"/>
</a>
</g>
</g>
<!-- Node20&#45;&gt;Node21 -->
<g id="edge26_Node000020_Node000021" class="edge">
<title>Node20&#45;&gt;Node21</title>
<g id="a_edge26_Node000020_Node000021"><a xlink:title=" ">
<path fill="none" stroke="#63b8ff" d="M328.44,-127.38C346.69,-127.38 369.02,-127.38 386.48,-127.38"/>
<polygon fill="#63b8ff" stroke="#63b8ff" points="386.43,-130.88 396.43,-127.38 386.43,-123.88 386.43,-130.88"/>
</a>
</g>
</g>
<!-- Node24&#45;&gt;Node3 -->
<g id="edge30_Node000024_Node000003" class="edge">
<title>Node24&#45;&gt;Node3</title>
<g id="a_edge30_Node000024_Node000003"><a xlink:title=" ">
<path fill="none" stroke="#63b8ff" d="M316.86,-441.13C349.99,-428.66 414.02,-410.31 463,-431.38 484.37,-440.57 479.99,-455.97 499,-469.38 502.95,-472.16 507.35,-474.69 511.8,-476.93"/>
<polygon fill="#63b8ff" stroke="#63b8ff" points="510.21,-480.05 520.76,-481.03 513.12,-473.69 510.21,-480.05"/>
</a>
</g>
</g>
<!-- Node24&#45;&gt;Node7 -->
<g id="edge31_Node000024_Node000007" class="edge">
<title>Node24&#45;&gt;Node7</title>
<g id="a_edge31_Node000024_Node000007"><a xlink:title=" ">
<path fill="none" stroke="#63b8ff" d="M299.6,-460.92C317.52,-500.92 381.5,-643.76 405.86,-698.14"/>
<polygon fill="#63b8ff" stroke="#63b8ff" points="402.65,-699.53 409.93,-707.23 409.04,-696.67 402.65,-699.53"/>
</a>
</g>
</g>
<!-- Node24&#45;&gt;Node9 -->
<g id="edge32_Node000024_Node000009" class="edge">
<title>Node24&#45;&gt;Node9</title>
<g id="a_edge32_Node000024_Node000009"><a xlink:title=" ">
<path fill="none" stroke="#63b8ff" d="M306.92,-461.22C321.18,-473.7 346,-494.26 369.75,-508.38 372.22,-509.84 374.82,-511.27 377.47,-512.64"/>
<polygon fill="#63b8ff" stroke="#63b8ff" points="375.91,-515.77 386.44,-516.94 378.94,-509.46 375.91,-515.77"/>
</a>
</g>
</g>
<!-- Node24&#45;&gt;Node10 -->
<g id="edge33_Node000024_Node000010" class="edge">
<title>Node24&#45;&gt;Node10</title>
<g id="a_edge33_Node000024_Node000010"><a xlink:title=" ">
<path fill="none" stroke="#63b8ff" d="M316.98,-457.53C332.13,-462.43 352.74,-469.1 371.19,-475.08"/>
<polygon fill="#63b8ff" stroke="#63b8ff" points="370.01,-478.37 380.6,-478.12 372.16,-471.71 370.01,-478.37"/>
</a>
</g>
</g>
<!-- Node24&#45;&gt;Node11 -->
<g id="edge34_Node000024_Node000011" class="edge">
<title>Node24&#45;&gt;Node11</title>
<g id="a_edge34_Node000024_Node000011"><a xlink:title=" ">
<path fill="none" stroke="#63b8ff" d="M316.98,-450.38C328.89,-450.38 344.18,-450.38 359.14,-450.38"/>
<polygon fill="#63b8ff" stroke="#63b8ff" points="358.94,-453.88 368.94,-450.38 358.94,-446.88 358.94,-453.88"/>
</a>
</g>
</g>
<!-- Node24&#45;&gt;Node12 -->
<g id="edge35_Node000024_Node000012" class="edge">
<title>Node24&#45;&gt;Node12</title>
<g id="a_edge35_Node000024_Node000012"><a xlink:title=" ">
<path fill="none" stroke="#63b8ff" d="M305.38,-439.88C318.9,-427.19 343.77,-406.51 369.75,-398.38 409.3,-385.99 423.22,-386.74 463,-398.38 485.76,-405.04 508.2,-420.24 523.71,-432.5"/>
<polygon fill="#63b8ff" stroke="#63b8ff" points="521.3,-435.04 531.25,-438.68 525.74,-429.63 521.3,-435.04"/>
</a>
</g>
</g>
<!-- Node24&#45;&gt;Node13 -->
<g id="edge36_Node000024_Node000013" class="edge">
<title>Node24&#45;&gt;Node13</title>
<g id="a_edge36_Node000024_Node000013"><a xlink:title=" ">
<path fill="none" stroke="#63b8ff" d="M297.31,-439.84C303.91,-413.98 324.72,-347.27 369.75,-317.38 408.2,-291.85 462.17,-289.51 499.88,-291.87"/>
<polygon fill="#63b8ff" stroke="#63b8ff" points="499.28,-295.34 509.52,-292.62 499.82,-288.36 499.28,-295.34"/>
</a>
</g>
</g>
<!-- Node24&#45;&gt;Node14 -->
<g id="edge37_Node000024_Node000014" class="edge">
<title>Node24&#45;&gt;Node14</title>
<g id="a_edge37_Node000024_Node000014"><a xlink:title=" ">
<path fill="none" stroke="#63b8ff" d="M300.71,-461.12C311.81,-480.68 337.73,-522.36 369.75,-547.38 372.68,-549.66 375.91,-551.75 379.27,-553.63"/>
<polygon fill="#63b8ff" stroke="#63b8ff" points="377.62,-556.72 388.13,-558.02 380.72,-550.45 377.62,-556.72"/>
</a>
</g>
</g>
<!-- Node24&#45;&gt;Node15 -->
<g id="edge38_Node000024_Node000015" class="edge">
<title>Node24&#45;&gt;Node15</title>
<g id="a_edge38_Node000024_Node000015"><a xlink:title=" ">
<path fill="none" stroke="#63b8ff" d="M301.63,-439.79C313.59,-421.69 340.05,-384.42 369.75,-360.38 373.17,-357.6 376.97,-355.01 380.86,-352.63"/>
<polygon fill="#63b8ff" stroke="#63b8ff" points="382.27,-355.85 389.28,-347.91 378.85,-349.75 382.27,-355.85"/>
</a>
</g>
</g>
<!-- Node24&#45;&gt;Node17 -->
<g id="edge39_Node000024_Node000017" class="edge">
<title>Node24&#45;&gt;Node17</title>
<g id="a_edge39_Node000024_Node000017"><a xlink:title=" ">
<path fill="none" stroke="#63b8ff" d="M298.94,-461.22C306.52,-481.73 323.02,-527.7 333.75,-567.38 354.03,-642.35 320.76,-678.11 369.75,-738.38 371.97,-741.11 374.64,-743.47 377.55,-745.52"/>
<polygon fill="#63b8ff" stroke="#63b8ff" points="375.71,-748.5 386.15,-750.32 379.12,-742.39 375.71,-748.5"/>
</a>
</g>
</g>
<!-- Node25&#45;&gt;Node21 -->
<g id="edge41_Node000025_Node000021" class="edge">
<title>Node25&#45;&gt;Node21</title>
<g id="a_edge41_Node000025_Node000021"><a xlink:title=" ">
<path fill="none" stroke="#63b8ff" d="M319.63,-21.24C324.53,-23.9 329.48,-26.97 333.75,-30.38 361.85,-52.78 387.31,-86.07 402.07,-107.24"/>
<polygon fill="#63b8ff" stroke="#63b8ff" points="399.04,-109.01 407.56,-115.31 404.83,-105.07 399.04,-109.01"/>
</a>
</g>
</g>
</g>
</svg>

<g id="navigator" transform="translate(0 0)" fill="#404254">
  <rect fill="#f2f5e9" fill-opacity="0.5" stroke="#606060" stroke-width=".5" x="0" y="0" width="60" height="60"/>
  <use id="zoomplus" xlink:href="#zoomPlus" x="17" y="9" onmousedown="handleZoom(evt,'in')"/>
  <use id="zoomminus" xlink:href="#zoomMin" x="42" y="9" onmousedown="handleZoom(evt,'out')"/>
  <use id="reset" xlink:href="#resetDef" x="30" y="36" onmousedown="handleReset()"/>
   <use id="arrowup" xlink:href="#arrowUp" x="0" y="0" onmousedown="handlePan(0,-1)"/>
  <use id="arrowright" xlink:href="#arrowRight" x="0" y="0" onmousedown="handlePan(1,0)"/>
  <use id="arrowdown" xlink:href="#arrowDown" x="0" y="0" onmousedown="handlePan(0,1)"/>
  <use id="arrowleft" xlink:href="#arrowLeft" x="0" y="0" onmousedown="handlePan(-1,0)"/>
</g>
<svg viewBox="0 0 15 15" width="100%" height="30px" preserveAspectRatio="xMaxYMin meet">
 <g id="arrow_out" transform="scale(0.3 0.3)">
  <a xlink:href="a00233_a15e4844b5dff35fd08e47d8379328d55_cgraph_org.svg" target="_base">
   <rect id="button" ry="5" rx="5" y="6" x="6" height="38" width="38"
        fill="#f2f5e9" fill-opacity="0.5" stroke="#606060" stroke-width="1.0"/>
   <path id="arrow"
     d="M 11.500037,31.436501 C 11.940474,20.09759 22.043105,11.32322 32.158766,21.979434 L 37.068811,17.246167 C 37.068811,17.246167 37.088388,32 37.088388,32 L 22.160133,31.978069 C 22.160133,31.978069 26.997745,27.140456 26.997745,27.140456 C 18.528582,18.264221 13.291696,25.230495 11.500037,31.436501 z"
     style="fill:#404040;"/>
  </a>
 </g>
</svg>

<style type='text/css'>
<![CDATA[
[data-mouse-over-selected='false'] { opacity: 0.7; }
[data-mouse-over-selected='true']  { opacity: 1.0; }
]]>
</style>
<script type="application/ecmascript"><![CDATA[
document.addEventListener('DOMContentLoaded', (event) => {
  highlightEdges();
  highlightAdjacentNodes();
});
]]></script>
</svg>
