<?xml version="1.0" encoding="UTF-8" standalone="no"?>
<!DOCTYPE svg PUBLIC "-//W3C//DTD SVG 1.1//EN"
 "http://www.w3.org/Graphics/SVG/1.1/DTD/svg11.dtd">
<!-- Generated by graphviz version 14.1.2 (0)
 -->
<!-- Title: form_display_field_n Pages: 1 -->
<svg width="412pt" height="42pt"
 viewBox="0.00 0.00 412.00 42.00" xmlns="http://www.w3.org/2000/svg" xmlns:xlink="http://www.w3.org/1999/xlink">
<g id="graph0" class="graph" transform="scale(1 1) rotate(0) translate(4 37.5)">
<title>form_display_field_n</title>
<!-- Node1 -->
<g id="Node000001" class="node">
<title>Node1</title>
<g id="a_Node000001"><a xlink:title="Display field n.">
<polygon fill="#999999" stroke="#666666" points="118,-27.12 0,-27.12 0,-6.38 118,-6.38 118,-27.12"/>
<text xml:space="preserve" text-anchor="middle" x="59" y="-13.62" font-family="Helvetica,sans-Serif" font-size="10.00">form_display_field_n</text>
</a>
</g>
</g>
<!-- Node2 -->
<g id="Node000002" class="node">
<title>Node2</title>
<g id="a_Node000002"><a xlink:href="../../d6/d7f/a00287.html#abd1710f59277202b0a58f840d4da322e" target="_top" xlink:title="Display current field.">
<polygon fill="white" stroke="#666666" points="260.75,-27.12 154,-27.12 154,-6.38 260.75,-6.38 260.75,-27.12"/>
<text xml:space="preserve" text-anchor="middle" x="207.38" y="-13.62" font-family="Helvetica,sans-Serif" font-size="10.00">form_display_field</text>
</a>
</g>
</g>
<!-- Node1&#45;&gt;Node2 -->
<g id="edge1_Node000001_Node000002" class="edge">
<title>Node1&#45;&gt;Node2</title>
<g id="a_edge1_Node000001_Node000002"><a xlink:title=" ">
<path fill="none" stroke="#63b8ff" d="M118.27,-16.75C126.09,-16.75 134.15,-16.75 142.07,-16.75"/>
<polygon fill="#63b8ff" stroke="#63b8ff" points="142.01,-20.25 152.01,-16.75 142.01,-13.25 142.01,-20.25"/>
</a>
</g>
</g>
<!-- Node3 -->
<g id="Node000003" class="node">
<title>Node3</title>
<g id="a_Node000003"><a xlink:href="../../d6/d7f/a00287.html#ad306f4b1bdcba7aefece7e4b73367b66" target="_top" xlink:title="Display brackets around current field if set.">
<polygon fill="white" stroke="#666666" points="403.5,-33.5 296.75,-33.5 296.75,0 403.5,0 403.5,-33.5"/>
<text xml:space="preserve" text-anchor="start" x="304.75" y="-20" font-family="Helvetica,sans-Serif" font-size="10.00">form_display_field</text>
<text xml:space="preserve" text-anchor="middle" x="350.12" y="-7.25" font-family="Helvetica,sans-Serif" font-size="10.00">_brackets</text>
</a>
</g>
</g>
<!-- Node2&#45;&gt;Node3 -->
<g id="edge2_Node000002_Node000003" class="edge">
<title>Node2&#45;&gt;Node3</title>
<g id="a_edge2_Node000002_Node000003"><a xlink:title=" ">
<path fill="none" stroke="#63b8ff" d="M261.19,-16.75C269.03,-16.75 277.19,-16.75 285.23,-16.75"/>
<polygon fill="#63b8ff" stroke="#63b8ff" points="284.97,-20.25 294.97,-16.75 284.97,-13.25 284.97,-20.25"/>
</a>
</g>
</g>
</g>
</svg>
