<?xml version="1.0" encoding="UTF-8" standalone="no"?>
<!DOCTYPE svg PUBLIC "-//W3C//DTD SVG 1.1//EN"
 "http://www.w3.org/Graphics/SVG/1.1/DTD/svg11.dtd">
<!-- Generated by graphviz version 14.1.2 (0)
 -->
<!-- Title: str_to_args Pages: 1 -->
<svg width="767pt" height="230pt"
 viewBox="0.00 0.00 767.00 230.00" xmlns="http://www.w3.org/2000/svg" xmlns:xlink="http://www.w3.org/1999/xlink">
<g id="graph0" class="graph" transform="scale(1 1) rotate(0) translate(4 226.33)">
<title>str_to_args</title>
<!-- Node1 -->
<g id="Node000001" class="node">
<title>Node1</title>
<g id="a_Node000001"><a xlink:title="Converts a string into an array of argument strings.">
<polygon fill="#999999" stroke="#666666" points="759.25,-116.75 689.25,-116.75 689.25,-96 759.25,-96 759.25,-116.75"/>
<text xml:space="preserve" text-anchor="middle" x="724.25" y="-103.25" font-family="Helvetica,sans-Serif" font-size="10.00">str_to_args</text>
</a>
</g>
</g>
<!-- Node2 -->
<g id="Node000002" class="node">
<title>Node2</title>
<g id="a_Node000002"><a xlink:href="../../d6/d22/a00245.html#a2ffea5674e85f124a70e19f745a66583" target="_top" xlink:title="use form to enter a file specification">
<polygon fill="white" stroke="#666666" points="301.12,-212.75 210.88,-212.75 210.88,-192 301.12,-192 301.12,-212.75"/>
<text xml:space="preserve" text-anchor="middle" x="256" y="-199.25" font-family="Helvetica,sans-Serif" font-size="10.00">enter_file_spec</text>
</a>
</g>
</g>
<!-- Node1&#45;&gt;Node2 -->
<g id="edge1_Node000001_Node000002" class="edge">
<title>Node1&#45;&gt;Node2</title>
<g id="a_edge1_Node000001_Node000002"><a xlink:title=" ">
<path fill="none" stroke="#63b8ff" d="M711.03,-126.85C698.9,-145.04 678.5,-170.53 653.25,-182.38 536.16,-237.28 377.68,-222.41 301.51,-210.58"/>
<polygon fill="#63b8ff" stroke="#63b8ff" points="713.98,-128.74 716.38,-118.42 708.07,-124.99 713.98,-128.74"/>
</a>
</g>
</g>
<!-- Node3 -->
<g id="Node000003" class="node">
<title>Node3</title>
<g id="a_Node000003"><a xlink:href="../../d9/d01/a00227.html#af7fcbb1c8b67a4d11c86ba7209f397c2" target="_top" xlink:title="Executes specified command with selected objects as arguments.">
<polygon fill="white" stroke="#666666" points="648,-59.75 568.25,-59.75 568.25,-39 648,-39 648,-59.75"/>
<text xml:space="preserve" text-anchor="middle" x="608.12" y="-46.25" font-family="Helvetica,sans-Serif" font-size="10.00">exec_objects</text>
</a>
</g>
</g>
<!-- Node1&#45;&gt;Node3 -->
<g id="edge2_Node000001_Node000003" class="edge">
<title>Node1&#45;&gt;Node3</title>
<g id="a_edge2_Node000001_Node000003"><a xlink:title=" ">
<path fill="none" stroke="#63b8ff" d="M691.35,-90.44C672.03,-80.79 647.89,-68.74 630.78,-60.19"/>
<polygon fill="#63b8ff" stroke="#63b8ff" points="689.65,-93.51 700.16,-94.84 692.78,-87.24 689.65,-93.51"/>
</a>
</g>
</g>
<!-- Node5 -->
<g id="Node000005" class="node">
<title>Node5</title>
<g id="a_Node000005"><a xlink:href="../../d9/d01/a00227.html#a1b2ee87543245e612c1710ea58930a17" target="_top" xlink:title="Initializes pick structure and opens pick input file or pipe.">
<polygon fill="white" stroke="#666666" points="412,-96.75 354.75,-96.75 354.75,-76 412,-76 412,-96.75"/>
<text xml:space="preserve" text-anchor="middle" x="383.38" y="-83.25" font-family="Helvetica,sans-Serif" font-size="10.00">init_pick</text>
</a>
</g>
</g>
<!-- Node1&#45;&gt;Node5 -->
<g id="edge16_Node000001_Node000005" class="edge">
<title>Node1&#45;&gt;Node5</title>
<g id="a_edge16_Node000001_Node000005"><a xlink:title=" ">
<path fill="none" stroke="#63b8ff" d="M677.6,-103.68C606.22,-99.47 470.34,-91.45 412.05,-88.01"/>
<polygon fill="#63b8ff" stroke="#63b8ff" points="677.19,-107.16 687.38,-104.26 677.6,-100.17 677.19,-107.16"/>
</a>
</g>
</g>
<!-- Node7 -->
<g id="Node000007" class="node">
<title>Node7</title>
<g id="a_Node000007"><a xlink:href="../../d5/d35/a00266.html#aa5d0e30e7036b72b51c843d0a7e486a1" target="_top" xlink:title="Processes user input for the menu system.">
<polygon fill="white" stroke="#666666" points="317.25,-134.75 194.75,-134.75 194.75,-114 317.25,-114 317.25,-134.75"/>
<text xml:space="preserve" text-anchor="middle" x="256" y="-121.25" font-family="Helvetica,sans-Serif" font-size="10.00">menu_cmd_processor</text>
</a>
</g>
</g>
<!-- Node1&#45;&gt;Node7 -->
<g id="edge17_Node000001_Node000007" class="edge">
<title>Node1&#45;&gt;Node7</title>
<g id="a_edge17_Node000001_Node000007"><a xlink:title=" ">
<path fill="none" stroke="#63b8ff" d="M677.8,-109.88C669.63,-110.43 661.19,-110.96 653.25,-111.38 534.33,-117.57 395.18,-121.33 317.45,-123.12"/>
<polygon fill="#63b8ff" stroke="#63b8ff" points="677.85,-113.38 687.58,-109.19 677.36,-106.4 677.85,-113.38"/>
</a>
</g>
</g>
<!-- Node10 -->
<g id="Node000010" class="node">
<title>Node10</title>
<g id="a_Node000010"><a xlink:href="../../d7/d40/a00236.html#a0329d3892bf2c4fe8e77a3c303ebe5f6" target="_top" xlink:title="Handle integration with an external program for calculation, allowing the user to execute a provider ...">
<polygon fill="white" stroke="#666666" points="652.5,-173.75 563.75,-173.75 563.75,-153 652.5,-153 652.5,-173.75"/>
<text xml:space="preserve" text-anchor="middle" x="608.12" y="-160.25" font-family="Helvetica,sans-Serif" font-size="10.00">form_calculate</text>
</a>
</g>
</g>
<!-- Node1&#45;&gt;Node10 -->
<g id="edge10_Node000001_Node000010" class="edge">
<title>Node1&#45;&gt;Node10</title>
<g id="a_edge10_Node000001_Node000010"><a xlink:title=" ">
<path fill="none" stroke="#63b8ff" d="M691.35,-122.31C672.03,-131.96 647.89,-144.01 630.78,-152.56"/>
<polygon fill="#63b8ff" stroke="#63b8ff" points="692.78,-125.51 700.16,-117.91 689.65,-119.24 692.78,-125.51"/>
</a>
</g>
</g>
<!-- Node14 -->
<g id="Node000014" class="node">
<title>Node14</title>
<g id="a_Node000014"><a xlink:href="../../d3/dd5/a00215.html#a0d392793038e6c32c6f3fa978fc42ced" target="_top" xlink:title="Initialize the input for a C&#45;Menu View.">
<polygon fill="white" stroke="#666666" points="653.25,-20.75 563,-20.75 563,0 653.25,0 653.25,-20.75"/>
<text xml:space="preserve" text-anchor="middle" x="608.12" y="-7.25" font-family="Helvetica,sans-Serif" font-size="10.00">view_init_input</text>
</a>
</g>
</g>
<!-- Node1&#45;&gt;Node14 -->
<g id="edge18_Node000001_Node000014" class="edge">
<title>Node1&#45;&gt;Node14</title>
<g id="a_edge18_Node000001_Node000014"><a xlink:title=" ">
<path fill="none" stroke="#63b8ff" d="M708.74,-86.62C695.69,-69.93 675.24,-46.28 653.25,-30.38 648.48,-26.93 643.02,-23.87 637.6,-21.24"/>
<polygon fill="#63b8ff" stroke="#63b8ff" points="705.76,-88.49 714.6,-94.32 711.33,-84.25 705.76,-88.49"/>
</a>
</g>
</g>
<!-- Node4 -->
<g id="Node000004" class="node">
<title>Node4</title>
<g id="a_Node000004"><a xlink:href="../../d9/d01/a00227.html#ab97dcab41017c5132f52b682437a151e" target="_top" xlink:title="Initializes pick interface, calculates window size and position, and enters picker loop.">
<polygon fill="white" stroke="#666666" points="525.5,-59.75 451,-59.75 451,-39 525.5,-39 525.5,-59.75"/>
<text xml:space="preserve" text-anchor="middle" x="488.25" y="-46.25" font-family="Helvetica,sans-Serif" font-size="10.00">pick_engine</text>
</a>
</g>
</g>
<!-- Node3&#45;&gt;Node4 -->
<g id="edge3_Node000003_Node000004" class="edge">
<title>Node3&#45;&gt;Node4</title>
<g id="a_edge3_Node000003_Node000004"><a xlink:title=" ">
<path fill="none" stroke="#63b8ff" d="M556.49,-49.38C546.23,-49.38 535.61,-49.38 525.94,-49.38"/>
<polygon fill="#63b8ff" stroke="#63b8ff" points="556.36,-52.88 566.36,-49.38 556.36,-45.88 556.36,-52.88"/>
</a>
</g>
</g>
<!-- Node4&#45;&gt;Node5 -->
<g id="edge4_Node000004_Node000005" class="edge">
<title>Node4&#45;&gt;Node5</title>
<g id="a_edge4_Node000004_Node000005"><a xlink:title=" ">
<path fill="none" stroke="#63b8ff" d="M446.49,-64.04C434.97,-68.18 422.71,-72.59 412.16,-76.38"/>
<polygon fill="#63b8ff" stroke="#63b8ff" points="447.57,-67.37 455.79,-60.69 445.2,-60.78 447.57,-67.37"/>
</a>
</g>
</g>
<!-- Node6 -->
<g id="Node000006" class="node">
<title>Node6</title>
<g id="a_Node000006"><a xlink:href="../../dd/dd7/a00260.html#a3c04138a5bfe5d72780bb7e82a18e627" target="_top" xlink:title=" ">
<polygon fill="white" stroke="#666666" points="276.38,-95.75 235.62,-95.75 235.62,-75 276.38,-75 276.38,-95.75"/>
<text xml:space="preserve" text-anchor="middle" x="256" y="-82.25" font-family="Helvetica,sans-Serif" font-size="10.00">main</text>
</a>
</g>
</g>
<!-- Node5&#45;&gt;Node6 -->
<g id="edge5_Node000005_Node000006" class="edge">
<title>Node5&#45;&gt;Node6</title>
<g id="a_edge5_Node000005_Node000006"><a xlink:title=" ">
<path fill="none" stroke="#63b8ff" d="M343.14,-86.06C321.01,-85.89 294.32,-85.67 276.57,-85.53"/>
<polygon fill="#63b8ff" stroke="#63b8ff" points="343.01,-89.56 353.04,-86.14 343.06,-82.56 343.01,-89.56"/>
</a>
</g>
</g>
<!-- Node5&#45;&gt;Node7 -->
<g id="edge6_Node000005_Node000007" class="edge">
<title>Node5&#45;&gt;Node7</title>
<g id="a_edge6_Node000005_Node000007"><a xlink:title=" ">
<path fill="none" stroke="#63b8ff" d="M343.79,-98.07C327.55,-102.99 308.78,-108.68 292.85,-113.51"/>
<polygon fill="#63b8ff" stroke="#63b8ff" points="344.55,-101.5 353.1,-95.25 342.52,-94.8 344.55,-101.5"/>
</a>
</g>
</g>
<!-- Node8 -->
<g id="Node000008" class="node">
<title>Node8</title>
<g id="a_Node000008"><a xlink:href="../../d5/d35/a00266.html#a7d7973d7aac92759dcc86ec52bb038f4" target="_top" xlink:title="The main loop of the menu system.">
<polygon fill="white" stroke="#666666" points="158.75,-134.75 76.75,-134.75 76.75,-114 158.75,-114 158.75,-134.75"/>
<text xml:space="preserve" text-anchor="middle" x="117.75" y="-121.25" font-family="Helvetica,sans-Serif" font-size="10.00">menu_engine</text>
</a>
</g>
</g>
<!-- Node7&#45;&gt;Node8 -->
<g id="edge7_Node000007_Node000008" class="edge">
<title>Node7&#45;&gt;Node8</title>
<g id="a_edge7_Node000007_Node000008"><a xlink:title=" ">
<path fill="none" stroke="#63b8ff" d="M183.2,-117.63C174.96,-117.67 166.79,-117.84 159.17,-118.15"/>
<polygon fill="#63b8ff" stroke="#63b8ff" points="182.92,-121.13 192.93,-117.66 182.94,-114.13 182.92,-121.13"/>
</a>
</g>
</g>
<!-- Node8&#45;&gt;Node7 -->
<g id="edge9_Node000008_Node000007" class="edge">
<title>Node8&#45;&gt;Node7</title>
<g id="a_edge9_Node000008_Node000007"><a xlink:title=" ">
<path fill="none" stroke="#63b8ff" d="M170.68,-130.95C178.45,-131.12 186.52,-131.17 194.45,-131.09"/>
<polygon fill="#63b8ff" stroke="#63b8ff" points="170.79,-127.45 160.69,-130.65 170.58,-134.45 170.79,-127.45"/>
</a>
</g>
</g>
<!-- Node9 -->
<g id="Node000009" class="node">
<title>Node9</title>
<g id="a_Node000009"><a xlink:href="../../d1/da8/a00230.html#a3c04138a5bfe5d72780bb7e82a18e627" target="_top" xlink:title=" ">
<polygon fill="white" stroke="#666666" points="40.75,-134.75 0,-134.75 0,-114 40.75,-114 40.75,-134.75"/>
<text xml:space="preserve" text-anchor="middle" x="20.38" y="-121.25" font-family="Helvetica,sans-Serif" font-size="10.00">main</text>
</a>
</g>
</g>
<!-- Node8&#45;&gt;Node9 -->
<g id="edge8_Node000008_Node000009" class="edge">
<title>Node8&#45;&gt;Node9</title>
<g id="a_edge8_Node000008_Node000009"><a xlink:title=" ">
<path fill="none" stroke="#63b8ff" d="M64.79,-124.38C56.36,-124.38 48.1,-124.38 41.09,-124.38"/>
<polygon fill="#63b8ff" stroke="#63b8ff" points="64.79,-127.88 74.79,-124.38 64.79,-120.88 64.79,-127.88"/>
</a>
</g>
</g>
<!-- Node11 -->
<g id="Node000011" class="node">
<title>Node11</title>
<g id="a_Node000011"><a xlink:href="../../d7/d40/a00236.html#ada302551bf41bf8ed6132fd34328a47e" target="_top" xlink:title="Form main processing loop.">
<polygon fill="white" stroke="#666666" points="527,-173.75 449.5,-173.75 449.5,-153 527,-153 527,-173.75"/>
<text xml:space="preserve" text-anchor="middle" x="488.25" y="-160.25" font-family="Helvetica,sans-Serif" font-size="10.00">form_engine</text>
</a>
</g>
</g>
<!-- Node10&#45;&gt;Node11 -->
<g id="edge11_Node000010_Node000011" class="edge">
<title>Node10&#45;&gt;Node11</title>
<g id="a_edge11_Node000010_Node000011"><a xlink:title=" ">
<path fill="none" stroke="#63b8ff" d="M552.18,-163.38C543.73,-163.38 535.17,-163.38 527.2,-163.38"/>
<polygon fill="#63b8ff" stroke="#63b8ff" points="552.05,-166.88 562.05,-163.38 552.05,-159.88 552.05,-166.88"/>
</a>
</g>
</g>
<!-- Node12 -->
<g id="Node000012" class="node">
<title>Node12</title>
<g id="a_Node000012"><a xlink:href="../../d7/d40/a00236.html#abf1be20a8aad5f7ba09172ac1434a110" target="_top" xlink:title="Initialize form data structure and parse description file.">
<polygon fill="white" stroke="#666666" points="413.5,-173.75 353.25,-173.75 353.25,-153 413.5,-153 413.5,-173.75"/>
<text xml:space="preserve" text-anchor="middle" x="383.38" y="-160.25" font-family="Helvetica,sans-Serif" font-size="10.00">init_form</text>
</a>
</g>
</g>
<!-- Node11&#45;&gt;Node12 -->
<g id="edge12_Node000011_Node000012" class="edge">
<title>Node11&#45;&gt;Node12</title>
<g id="a_edge12_Node000011_Node000012"><a xlink:title=" ">
<path fill="none" stroke="#63b8ff" d="M437.8,-163.38C429.61,-163.38 421.36,-163.38 413.87,-163.38"/>
<polygon fill="#63b8ff" stroke="#63b8ff" points="437.72,-166.88 447.72,-163.38 437.72,-159.88 437.72,-166.88"/>
</a>
</g>
</g>
<!-- Node12&#45;&gt;Node2 -->
<g id="edge13_Node000012_Node000002" class="edge">
<title>Node12&#45;&gt;Node2</title>
<g id="a_edge13_Node000012_Node000002"><a xlink:title=" ">
<path fill="none" stroke="#63b8ff" d="M342.14,-175.89C325.84,-180.96 307.22,-186.75 291.55,-191.63"/>
<polygon fill="#63b8ff" stroke="#63b8ff" points="343.03,-179.28 351.53,-172.97 340.95,-172.6 343.03,-179.28"/>
</a>
</g>
</g>
<!-- Node12&#45;&gt;Node7 -->
<g id="edge15_Node000012_Node000007" class="edge">
<title>Node12&#45;&gt;Node7</title>
<g id="a_edge15_Node000012_Node000007"><a xlink:title=" ">
<path fill="none" stroke="#63b8ff" d="M342.14,-150.86C325.84,-145.79 307.22,-140 291.55,-135.12"/>
<polygon fill="#63b8ff" stroke="#63b8ff" points="340.95,-154.15 351.53,-153.78 343.03,-147.47 340.95,-154.15"/>
</a>
</g>
</g>
<!-- Node13 -->
<g id="Node000013" class="node">
<title>Node13</title>
<g id="a_Node000013"><a xlink:href="../../dc/d5d/a00278.html#a3c04138a5bfe5d72780bb7e82a18e627" target="_top" xlink:title=" ">
<polygon fill="white" stroke="#666666" points="276.38,-173.75 235.62,-173.75 235.62,-153 276.38,-153 276.38,-173.75"/>
<text xml:space="preserve" text-anchor="middle" x="256" y="-160.25" font-family="Helvetica,sans-Serif" font-size="10.00">main</text>
</a>
</g>
</g>
<!-- Node12&#45;&gt;Node13 -->
<g id="edge14_Node000012_Node000013" class="edge">
<title>Node12&#45;&gt;Node13</title>
<g id="a_edge14_Node000012_Node000013"><a xlink:title=" ">
<path fill="none" stroke="#63b8ff" d="M341.73,-163.38C319.99,-163.38 294.2,-163.38 276.83,-163.38"/>
<polygon fill="#63b8ff" stroke="#63b8ff" points="341.47,-166.88 351.47,-163.38 341.47,-159.88 341.47,-166.88"/>
</a>
</g>
</g>
</g>
</svg>
