<?xml version="1.0" encoding="UTF-8" standalone="no"?>
<!DOCTYPE svg PUBLIC "-//W3C//DTD SVG 1.1//EN"
 "http://www.w3.org/Graphics/SVG/1.1/DTD/svg11.dtd">
<!-- Generated by graphviz version 14.1.2 (0)
 -->
<!-- Title: verify_dir Pages: 1 -->
<svg width="715pt" height="396pt"
 viewBox="0.00 0.00 715.00 396.00" xmlns="http://www.w3.org/2000/svg" xmlns:xlink="http://www.w3.org/1999/xlink">
<g id="graph0" class="graph" transform="scale(1 1) rotate(0) translate(4 391.74)">
<title>verify_dir</title>
<!-- Node1 -->
<g id="Node000001" class="node">
<title>Node1</title>
<g id="a_Node000001"><a xlink:title="Verifies that the directory specified by &quot;spec&quot; exists and is accessible with the permissions specifi...">
<polygon fill="#999999" stroke="#666666" points="62.5,-185.89 0,-185.89 0,-165.14 62.5,-165.14 62.5,-185.89"/>
<text xml:space="preserve" text-anchor="middle" x="31.25" y="-172.39" font-family="Helvetica,sans-Serif" font-size="10.00">verify_dir</text>
</a>
</g>
</g>
<!-- Node2 -->
<g id="Node000002" class="node">
<title>Node2</title>
<g id="a_Node000002"><a xlink:href="../../d6/d82/a00293.html#a67659f8a701b74f4dec0d36227a10d1c" target="_top" xlink:title="Display an error message window or print to stderr.">
<polygon fill="white" stroke="#666666" points="178.25,-185.89 98.5,-185.89 98.5,-165.14 178.25,-165.14 178.25,-185.89"/>
<text xml:space="preserve" text-anchor="middle" x="138.38" y="-172.39" font-family="Helvetica,sans-Serif" font-size="10.00">display_error</text>
</a>
</g>
</g>
<!-- Node1&#45;&gt;Node2 -->
<g id="edge1_Node000001_Node000002" class="edge">
<title>Node1&#45;&gt;Node2</title>
<g id="a_edge1_Node000001_Node000002"><a xlink:title=" ">
<path fill="none" stroke="#63b8ff" d="M62.94,-175.52C70.44,-175.52 78.66,-175.52 86.81,-175.52"/>
<polygon fill="#63b8ff" stroke="#63b8ff" points="86.7,-179.02 96.7,-175.52 86.7,-172.02 86.7,-179.02"/>
</a>
</g>
</g>
<!-- Node12 -->
<g id="Node000012" class="node">
<title>Node12</title>
<g id="a_Node000012"><a xlink:href="../../d6/d7f/a00287.html#a63eb94756fb011a456a3dec900709cd8" target="_top" xlink:title="ssnprintf was designed to be a safer alternative to snprintf.">
<polygon fill="white" stroke="#666666" points="419.12,-30.89 360.38,-30.89 360.38,-10.14 419.12,-10.14 419.12,-30.89"/>
<text xml:space="preserve" text-anchor="middle" x="389.75" y="-17.39" font-family="Helvetica,sans-Serif" font-size="10.00">ssnprintf</text>
</a>
</g>
</g>
<!-- Node1&#45;&gt;Node12 -->
<g id="edge24_Node000001_Node000012" class="edge">
<title>Node1&#45;&gt;Node12</title>
<g id="a_edge24_Node000001_Node000012"><a xlink:title=" ">
<path fill="none" stroke="#63b8ff" d="M39.36,-165.02C61.09,-134 130.29,-42.91 214.25,-10.52 258.06,6.39 312.67,-0.8 349.01,-9.13"/>
<polygon fill="#63b8ff" stroke="#63b8ff" points="348.12,-12.52 358.66,-11.49 349.78,-5.72 348.12,-12.52"/>
</a>
</g>
</g>
<!-- Node13 -->
<g id="Node000013" class="node">
<title>Node13</title>
<g id="a_Node000013"><a xlink:href="../../d6/d7f/a00287.html#a0de2e40df9bd7efc8fd9afb8ad2257e6" target="_top" xlink:title="safer alternative to strncpy">
<polygon fill="white" stroke="#666666" points="423.62,-377.89 355.88,-377.89 355.88,-357.14 423.62,-357.14 423.62,-377.89"/>
<text xml:space="preserve" text-anchor="middle" x="389.75" y="-364.39" font-family="Helvetica,sans-Serif" font-size="10.00">strnz__cpy</text>
</a>
</g>
</g>
<!-- Node1&#45;&gt;Node13 -->
<g id="edge25_Node000001_Node000013" class="edge">
<title>Node1&#45;&gt;Node13</title>
<g id="a_edge25_Node000001_Node000013"><a xlink:title=" ">
<path fill="none" stroke="#63b8ff" d="M37.66,-186.12C56.31,-221.38 121.93,-334.71 214.25,-375.52 255.73,-393.85 308.29,-388.04 344.83,-380.03"/>
<polygon fill="#63b8ff" stroke="#63b8ff" points="345.22,-383.54 354.15,-377.85 343.62,-376.72 345.22,-383.54"/>
</a>
</g>
</g>
<!-- Node3 -->
<g id="Node000003" class="node">
<title>Node3</title>
<g id="a_Node000003"><a xlink:href="../../d6/d82/a00293.html#a8f6c45ca4a7f6a41c4c88314e697565a" target="_top" xlink:title="Abnormal program termination.">
<polygon fill="white" stroke="#666666" points="412.75,-243.89 366.75,-243.89 366.75,-223.14 412.75,-223.14 412.75,-243.89"/>
<text xml:space="preserve" text-anchor="middle" x="389.75" y="-230.39" font-family="Helvetica,sans-Serif" font-size="10.00">abend</text>
</a>
</g>
</g>
<!-- Node2&#45;&gt;Node3 -->
<g id="edge2_Node000002_Node000003" class="edge">
<title>Node2&#45;&gt;Node3</title>
<g id="a_edge2_Node000002_Node000003"><a xlink:title=" ">
<path fill="none" stroke="#63b8ff" d="M178.57,-185.69C190.05,-188.61 202.64,-191.75 214.25,-194.52 263.22,-206.2 320.17,-218.73 355.34,-226.35"/>
<polygon fill="#63b8ff" stroke="#63b8ff" points="354.4,-229.73 364.91,-228.42 355.88,-222.88 354.4,-229.73"/>
</a>
</g>
</g>
<!-- Node7 -->
<g id="Node000007" class="node">
<title>Node7</title>
<g id="a_Node000007"><a xlink:href="../../d6/d82/a00293.html#a645871e46277e31736bc36d0f3dce4bd" target="_top" xlink:title="construct the chyron string from the chyron structure">
<polygon fill="white" stroke="#666666" points="307.5,-185.89 214.25,-185.89 214.25,-165.14 307.5,-165.14 307.5,-185.89"/>
<text xml:space="preserve" text-anchor="middle" x="260.88" y="-172.39" font-family="Helvetica,sans-Serif" font-size="10.00">compile_chyron</text>
</a>
</g>
</g>
<!-- Node2&#45;&gt;Node7 -->
<g id="edge8_Node000002_Node000007" class="edge">
<title>Node2&#45;&gt;Node7</title>
<g id="a_edge8_Node000002_Node000007"><a xlink:title=" ">
<path fill="none" stroke="#63b8ff" d="M178.5,-175.52C186.16,-175.52 194.34,-175.52 202.45,-175.52"/>
<polygon fill="#63b8ff" stroke="#63b8ff" points="202.3,-179.02 212.3,-175.52 202.3,-172.02 202.3,-179.02"/>
</a>
</g>
</g>
<!-- Node9 -->
<g id="Node000009" class="node">
<title>Node9</title>
<g id="a_Node000009"><a xlink:href="../../d6/d82/a00293.html#a3f3feb40fd703913c5c136331f627c91" target="_top" xlink:title="Destroy Chyron structure.">
<polygon fill="white" stroke="#666666" points="306.38,-107.89 215.38,-107.89 215.38,-87.14 306.38,-87.14 306.38,-107.89"/>
<text xml:space="preserve" text-anchor="middle" x="260.88" y="-94.39" font-family="Helvetica,sans-Serif" font-size="10.00">destroy_chyron</text>
</a>
</g>
</g>
<!-- Node2&#45;&gt;Node9 -->
<g id="edge10_Node000002_Node000009" class="edge">
<title>Node2&#45;&gt;Node9</title>
<g id="a_edge10_Node000002_Node000009"><a xlink:title=" ">
<path fill="none" stroke="#63b8ff" d="M151.42,-164.67C165.68,-152.2 190.5,-131.63 214.25,-117.52 216.72,-116.05 219.32,-114.62 221.97,-113.26"/>
<polygon fill="#63b8ff" stroke="#63b8ff" points="223.44,-116.44 230.94,-108.95 220.41,-110.12 223.44,-116.44"/>
</a>
</g>
</g>
<!-- Node10 -->
<g id="Node000010" class="node">
<title>Node10</title>
<g id="a_Node000010"><a xlink:href="../../d6/d82/a00293.html#ad37d5808ff30ae6894780425d865abae" target="_top" xlink:title="Create and initialize Chyron structure.">
<polygon fill="white" stroke="#666666" points="298.12,-261.89 223.62,-261.89 223.62,-241.14 298.12,-241.14 298.12,-261.89"/>
<text xml:space="preserve" text-anchor="middle" x="260.88" y="-248.39" font-family="Helvetica,sans-Serif" font-size="10.00">new_chyron</text>
</a>
</g>
</g>
<!-- Node2&#45;&gt;Node10 -->
<g id="edge11_Node000002_Node000010" class="edge">
<title>Node2&#45;&gt;Node10</title>
<g id="a_edge11_Node000002_Node000010"><a xlink:title=" ">
<path fill="none" stroke="#63b8ff" d="M153.66,-186.22C168.47,-197.14 192.47,-214.29 214.25,-227.52 218.67,-230.2 223.43,-232.9 228.13,-235.47"/>
<polygon fill="#63b8ff" stroke="#63b8ff" points="226.41,-238.51 236.88,-240.11 229.69,-232.33 226.41,-238.51"/>
</a>
</g>
</g>
<!-- Node11 -->
<g id="Node000011" class="node">
<title>Node11</title>
<g id="a_Node000011"><a xlink:href="../../d6/d82/a00293.html#a208ce92c197fdd6d2b007987e534aa3b" target="_top" xlink:title="Set chyron key.">
<polygon fill="white" stroke="#666666" points="306.75,-68.89 215,-68.89 215,-48.14 306.75,-48.14 306.75,-68.89"/>
<text xml:space="preserve" text-anchor="middle" x="260.88" y="-55.39" font-family="Helvetica,sans-Serif" font-size="10.00">set_chyron_key</text>
</a>
</g>
</g>
<!-- Node2&#45;&gt;Node11 -->
<g id="edge13_Node000002_Node000011" class="edge">
<title>Node2&#45;&gt;Node11</title>
<g id="a_edge13_Node000002_Node000011"><a xlink:title=" ">
<path fill="none" stroke="#63b8ff" d="M145.21,-164.77C156.31,-145.22 182.23,-103.54 214.25,-78.52 215.99,-77.16 217.83,-75.87 219.74,-74.66"/>
<polygon fill="#63b8ff" stroke="#63b8ff" points="221.3,-77.8 228.37,-69.91 217.92,-71.67 221.3,-77.8"/>
</a>
</g>
</g>
<!-- Node2&#45;&gt;Node12 -->
<g id="edge15_Node000002_Node000012" class="edge">
<title>Node2&#45;&gt;Node12</title>
<g id="a_edge15_Node000002_Node000012"><a xlink:title=" ">
<path fill="none" stroke="#63b8ff" d="M141.73,-164.74C148.12,-138.27 168.5,-70.02 214.25,-39.52 254.23,-12.86 311.17,-11.84 349,-14.98"/>
<polygon fill="#63b8ff" stroke="#63b8ff" points="348.29,-18.43 358.58,-15.92 348.97,-11.46 348.29,-18.43"/>
</a>
</g>
</g>
<!-- Node2&#45;&gt;Node13 -->
<g id="edge16_Node000002_Node000013" class="edge">
<title>Node2&#45;&gt;Node13</title>
<g id="a_edge16_Node000002_Node000013"><a xlink:title=" ">
<path fill="none" stroke="#63b8ff" d="M140.4,-186.32C143.99,-217.45 158.94,-307.73 214.25,-348.52 251.59,-376.05 306.24,-377.56 344.4,-374.25"/>
<polygon fill="#63b8ff" stroke="#63b8ff" points="344.58,-377.75 354.17,-373.25 343.86,-370.79 344.58,-377.75"/>
</a>
</g>
</g>
<!-- Node14 -->
<g id="Node000014" class="node">
<title>Node14</title>
<g id="a_Node000014"><a xlink:href="../../d6/d82/a00293.html#a9dd598e1d49c8764af1eec42c682623e" target="_top" xlink:title="Delete the current window and its associated box window.">
<polygon fill="white" stroke="#666666" points="287.62,-300.89 234.12,-300.89 234.12,-280.14 287.62,-280.14 287.62,-300.89"/>
<text xml:space="preserve" text-anchor="middle" x="260.88" y="-287.39" font-family="Helvetica,sans-Serif" font-size="10.00">win_del</text>
</a>
</g>
</g>
<!-- Node2&#45;&gt;Node14 -->
<g id="edge17_Node000002_Node000014" class="edge">
<title>Node2&#45;&gt;Node14</title>
<g id="a_edge17_Node000002_Node000014"><a xlink:title=" ">
<path fill="none" stroke="#63b8ff" d="M145.45,-186.34C156.73,-205.6 182.69,-246.11 214.25,-270.52 217.19,-272.79 220.43,-274.87 223.79,-276.75"/>
<polygon fill="#63b8ff" stroke="#63b8ff" points="222.15,-279.84 232.66,-281.12 225.24,-273.56 222.15,-279.84"/>
</a>
</g>
</g>
<!-- Node15 -->
<g id="Node000015" class="node">
<title>Node15</title>
<g id="a_Node000015"><a xlink:href="../../d6/d82/a00293.html#a435c7bff7ffedb8f51c6de9259e36f6c" target="_top" xlink:title="Create a new window with optional box and title.">
<polygon fill="white" stroke="#666666" points="290.25,-339.89 231.5,-339.89 231.5,-319.14 290.25,-319.14 290.25,-339.89"/>
<text xml:space="preserve" text-anchor="middle" x="260.88" y="-326.39" font-family="Helvetica,sans-Serif" font-size="10.00">win_new</text>
</a>
</g>
</g>
<!-- Node2&#45;&gt;Node15 -->
<g id="edge18_Node000002_Node000015" class="edge">
<title>Node2&#45;&gt;Node15</title>
<g id="a_edge18_Node000002_Node000015"><a xlink:title=" ">
<path fill="none" stroke="#63b8ff" d="M142.64,-186.06C150.82,-210.82 174.4,-273.33 214.25,-309.52 216.38,-311.45 218.72,-313.22 221.19,-314.83"/>
<polygon fill="#63b8ff" stroke="#63b8ff" points="219.37,-317.82 229.82,-319.58 222.75,-311.69 219.37,-317.82"/>
</a>
</g>
</g>
<!-- Node17 -->
<g id="Node000017" class="node">
<title>Node17</title>
<g id="a_Node000017"><a xlink:href="../../d6/d82/a00293.html#acf4c709bccc4c965a5d61db978db31a3" target="_top" xlink:title="Wrapper for wgetch that handles signals and mouse events.">
<polygon fill="white" stroke="#666666" points="289.5,-146.89 232.25,-146.89 232.25,-126.14 289.5,-126.14 289.5,-146.89"/>
<text xml:space="preserve" text-anchor="middle" x="260.88" y="-133.39" font-family="Helvetica,sans-Serif" font-size="10.00">xwgetch</text>
</a>
</g>
</g>
<!-- Node2&#45;&gt;Node17 -->
<g id="edge21_Node000002_Node000017" class="edge">
<title>Node2&#45;&gt;Node17</title>
<g id="a_edge21_Node000002_Node000017"><a xlink:title=" ">
<path fill="none" stroke="#63b8ff" d="M157.42,-164.7C174.11,-157.56 199.5,-148.89 220.82,-142.79"/>
<polygon fill="#63b8ff" stroke="#63b8ff" points="221.67,-146.19 230.39,-140.18 219.82,-139.44 221.67,-146.19"/>
</a>
</g>
</g>
<!-- Node4 -->
<g id="Node000004" class="node">
<title>Node4</title>
<g id="a_Node000004"><a xlink:href="../../d6/d82/a00293.html#afc0985a403e3eac0b2cd8f0fab500256" target="_top" xlink:title="Gracefully shut down NCurses and restore terminal settings.">
<polygon fill="white" stroke="#666666" points="561.5,-243.89 472,-243.89 472,-223.14 561.5,-223.14 561.5,-243.89"/>
<text xml:space="preserve" text-anchor="middle" x="516.75" y="-230.39" font-family="Helvetica,sans-Serif" font-size="10.00">destroy_curses</text>
</a>
</g>
</g>
<!-- Node3&#45;&gt;Node4 -->
<g id="edge3_Node000003_Node000004" class="edge">
<title>Node3&#45;&gt;Node4</title>
<g id="a_edge3_Node000003_Node000004"><a xlink:title=" ">
<path fill="none" stroke="#63b8ff" d="M413.1,-233.52C426.28,-233.52 443.59,-233.52 460.23,-233.52"/>
<polygon fill="#63b8ff" stroke="#63b8ff" points="460.07,-237.02 470.07,-233.52 460.07,-230.02 460.07,-237.02"/>
</a>
</g>
</g>
<!-- Node5 -->
<g id="Node000005" class="node">
<title>Node5</title>
<g id="a_Node000005"><a xlink:href="../../df/d95/a00299.html#ac5e3adb304b78910fc77761ef6a743f0" target="_top" xlink:title="restore_shell_tioctl() &#45; restore shell terminal settings">
<polygon fill="white" stroke="#666666" points="706.5,-271.89 597.5,-271.89 597.5,-251.14 706.5,-251.14 706.5,-271.89"/>
<text xml:space="preserve" text-anchor="middle" x="652" y="-258.39" font-family="Helvetica,sans-Serif" font-size="10.00">restore_shell_tioctl</text>
</a>
</g>
</g>
<!-- Node3&#45;&gt;Node5 -->
<g id="edge6_Node000003_Node000005" class="edge">
<title>Node3&#45;&gt;Node5</title>
<g id="a_edge6_Node000003_Node000005"><a xlink:title=" ">
<path fill="none" stroke="#63b8ff" d="M412.96,-239.85C429.18,-244.19 451.77,-249.67 472,-252.52 509.51,-257.8 551.82,-260.1 585.89,-261.05"/>
<polygon fill="#63b8ff" stroke="#63b8ff" points="585.51,-264.54 595.59,-261.29 585.68,-257.54 585.51,-264.54"/>
</a>
</g>
</g>
<!-- Node6 -->
<g id="Node000006" class="node">
<title>Node6</title>
<g id="a_Node000006"><a xlink:href="../../d3/d1a/a00251.html#a06c1eb6cf3649dc187115565409f91af" target="_top" xlink:title="Set signal handlers to default behavior.">
<polygon fill="white" stroke="#666666" points="692.62,-223.89 611.38,-223.89 611.38,-203.14 692.62,-203.14 692.62,-223.89"/>
<text xml:space="preserve" text-anchor="middle" x="652" y="-210.39" font-family="Helvetica,sans-Serif" font-size="10.00">sig_dfl_mode</text>
</a>
</g>
</g>
<!-- Node3&#45;&gt;Node6 -->
<g id="edge7_Node000003_Node000006" class="edge">
<title>Node3&#45;&gt;Node6</title>
<g id="a_edge7_Node000003_Node000006"><a xlink:title=" ">
<path fill="none" stroke="#63b8ff" d="M412.93,-226.91C429.13,-222.44 451.72,-216.92 472,-214.52 514.89,-209.45 563.96,-209.59 599.86,-210.78"/>
<polygon fill="#63b8ff" stroke="#63b8ff" points="599.39,-214.26 609.52,-211.14 599.65,-207.27 599.39,-214.26"/>
</a>
</g>
</g>
<!-- Node4&#45;&gt;Node5 -->
<g id="edge4_Node000004_Node000005" class="edge">
<title>Node4&#45;&gt;Node5</title>
<g id="a_edge4_Node000004_Node000005"><a xlink:title=" ">
<path fill="none" stroke="#63b8ff" d="M561.75,-242.76C570.37,-244.58 579.57,-246.51 588.66,-248.42"/>
<polygon fill="#63b8ff" stroke="#63b8ff" points="587.66,-251.79 598.17,-250.42 589.1,-244.93 587.66,-251.79"/>
</a>
</g>
</g>
<!-- Node4&#45;&gt;Node6 -->
<g id="edge5_Node000004_Node000006" class="edge">
<title>Node4&#45;&gt;Node6</title>
<g id="a_edge5_Node000004_Node000006"><a xlink:title=" ">
<path fill="none" stroke="#63b8ff" d="M561.75,-226.91C573.94,-225.08 587.27,-223.08 599.83,-221.2"/>
<polygon fill="#63b8ff" stroke="#63b8ff" points="600.23,-224.68 609.6,-219.73 599.19,-217.76 600.23,-224.68"/>
</a>
</g>
</g>
<!-- Node8 -->
<g id="Node000008" class="node">
<title>Node8</title>
<g id="a_Node000008"><a xlink:href="../../d6/d7f/a00287.html#aa0145c044cfdde3a1c83323410a59f25" target="_top" xlink:title="safer alternative to strncat">
<polygon fill="white" stroke="#666666" points="422.5,-185.89 357,-185.89 357,-165.14 422.5,-165.14 422.5,-185.89"/>
<text xml:space="preserve" text-anchor="middle" x="389.75" y="-172.39" font-family="Helvetica,sans-Serif" font-size="10.00">strnz__cat</text>
</a>
</g>
</g>
<!-- Node7&#45;&gt;Node8 -->
<g id="edge9_Node000007_Node000008" class="edge">
<title>Node7&#45;&gt;Node8</title>
<g id="a_edge9_Node000007_Node000008"><a xlink:title=" ">
<path fill="none" stroke="#63b8ff" d="M307.68,-175.52C319.94,-175.52 333.16,-175.52 345.3,-175.52"/>
<polygon fill="#63b8ff" stroke="#63b8ff" points="345.02,-179.02 355.02,-175.52 345.02,-172.02 345.02,-179.02"/>
</a>
</g>
</g>
<!-- Node10&#45;&gt;Node3 -->
<g id="edge12_Node000010_Node000003" class="edge">
<title>Node10&#45;&gt;Node3</title>
<g id="a_edge12_Node000010_Node000003"><a xlink:title=" ">
<path fill="none" stroke="#63b8ff" d="M298.57,-246.31C316.41,-243.78 337.7,-240.76 355.12,-238.29"/>
<polygon fill="#63b8ff" stroke="#63b8ff" points="355.56,-241.76 364.97,-236.89 354.57,-234.83 355.56,-241.76"/>
</a>
</g>
</g>
<!-- Node11&#45;&gt;Node12 -->
<g id="edge14_Node000011_Node000012" class="edge">
<title>Node11&#45;&gt;Node12</title>
<g id="a_edge14_Node000011_Node000012"><a xlink:title=" ">
<path fill="none" stroke="#63b8ff" d="M297.89,-47.73C313.85,-42.95 332.66,-37.32 349.02,-32.42"/>
<polygon fill="#63b8ff" stroke="#63b8ff" points="349.87,-35.82 358.44,-29.6 347.86,-29.11 349.87,-35.82"/>
</a>
</g>
</g>
<!-- Node15&#45;&gt;Node13 -->
<g id="edge20_Node000015_Node000013" class="edge">
<title>Node15&#45;&gt;Node13</title>
<g id="a_edge20_Node000015_Node000013"><a xlink:title=" ">
<path fill="none" stroke="#63b8ff" d="M290.66,-338.14C306.65,-342.93 326.87,-348.98 344.79,-354.35"/>
<polygon fill="#63b8ff" stroke="#63b8ff" points="343.56,-357.64 354.14,-357.15 345.57,-350.93 343.56,-357.64"/>
</a>
</g>
</g>
<!-- Node16 -->
<g id="Node000016" class="node">
<title>Node16</title>
<g id="a_Node000016"><a xlink:href="../../d6/d82/a00293.html#ac9adcf7339be4a05ab1a7350c236b8a5" target="_top" xlink:title="Draw a box around the specified window.">
<polygon fill="white" stroke="#666666" points="409.38,-338.89 370.12,-338.89 370.12,-318.14 409.38,-318.14 409.38,-338.89"/>
<text xml:space="preserve" text-anchor="middle" x="389.75" y="-325.39" font-family="Helvetica,sans-Serif" font-size="10.00">cbox</text>
</a>
</g>
</g>
<!-- Node15&#45;&gt;Node16 -->
<g id="edge19_Node000015_Node000016" class="edge">
<title>Node15&#45;&gt;Node16</title>
<g id="a_edge19_Node000015_Node000016"><a xlink:title=" ">
<path fill="none" stroke="#63b8ff" d="M290.66,-329.29C310.96,-329.13 338.07,-328.92 358.65,-328.76"/>
<polygon fill="#63b8ff" stroke="#63b8ff" points="358.42,-332.26 368.39,-328.68 358.36,-325.26 358.42,-332.26"/>
</a>
</g>
</g>
<!-- Node17&#45;&gt;Node2 -->
<g id="edge22_Node000017_Node000002" class="edge">
<title>Node17&#45;&gt;Node2</title>
<g id="a_edge22_Node000017_Node000002"><a xlink:title=" ">
<path fill="none" stroke="#63b8ff" d="M241.82,-147.35C227.94,-153.27 208.07,-160.27 189.51,-165.96"/>
<polygon fill="#63b8ff" stroke="#63b8ff" points="188.54,-162.59 179.95,-168.79 190.53,-169.3 188.54,-162.59"/>
</a>
</g>
</g>
<!-- Node18 -->
<g id="Node000018" class="node">
<title>Node18</title>
<g id="a_Node000018"><a xlink:href="../../d6/d82/a00293.html#a4298f891699300bfc4e6e56fd2a8d574" target="_top" xlink:title="Get keycode from chyron.">
<polygon fill="white" stroke="#666666" points="436,-146.89 343.5,-146.89 343.5,-126.14 436,-126.14 436,-146.89"/>
<text xml:space="preserve" text-anchor="middle" x="389.75" y="-133.39" font-family="Helvetica,sans-Serif" font-size="10.00">get_chyron_key</text>
</a>
</g>
</g>
<!-- Node17&#45;&gt;Node18 -->
<g id="edge23_Node000017_Node000018" class="edge">
<title>Node17&#45;&gt;Node18</title>
<g id="a_edge23_Node000017_Node000018"><a xlink:title=" ">
<path fill="none" stroke="#63b8ff" d="M289.72,-136.52C302.04,-136.52 317,-136.52 331.53,-136.52"/>
<polygon fill="#63b8ff" stroke="#63b8ff" points="331.51,-140.02 341.51,-136.52 331.51,-133.02 331.51,-140.02"/>
</a>
</g>
</g>
</g>
</svg>
