<?xml version="1.0" encoding="UTF-8" standalone="no"?>
<!DOCTYPE svg PUBLIC "-//W3C//DTD SVG 1.1//EN"
 "http://www.w3.org/Graphics/SVG/1.1/DTD/svg11.dtd">
<!-- Generated by graphviz version 14.1.2 (0)
 -->
<!-- Title: strip_quotes Pages: 1 -->
<svg width="207pt" height="68pt"
 viewBox="0.00 0.00 207.00 68.00" xmlns="http://www.w3.org/2000/svg" xmlns:xlink="http://www.w3.org/1999/xlink">
<g id="graph0" class="graph" transform="scale(1 1) rotate(0) translate(4 63.75)">
<title>strip_quotes</title>
<!-- Node1 -->
<g id="Node000001" class="node">
<title>Node1</title>
<g id="a_Node000001"><a xlink:title="removes leading and trailing double quotes if present">
<polygon fill="#999999" stroke="#666666" points="198.5,-39.75 122.5,-39.75 122.5,-19 198.5,-19 198.5,-39.75"/>
<text xml:space="preserve" text-anchor="middle" x="160.5" y="-26.25" font-family="Helvetica,sans-Serif" font-size="10.00">strip_quotes</text>
</a>
</g>
</g>
<!-- Node2 -->
<g id="Node000002" class="node">
<title>Node2</title>
<g id="a_Node000002"><a xlink:href="../../dd/dc1/a00212.html#a4da25f98e58860d93b737cdc1997e9e9" target="_top" xlink:title="Initialize Form file specifications.">
<polygon fill="white" stroke="#666666" points="86.5,-59.75 0,-59.75 0,-39 86.5,-39 86.5,-59.75"/>
<text xml:space="preserve" text-anchor="middle" x="43.25" y="-46.25" font-family="Helvetica,sans-Serif" font-size="10.00">init_form_files</text>
</a>
</g>
</g>
<!-- Node1&#45;&gt;Node2 -->
<g id="edge1_Node000001_Node000002" class="edge">
<title>Node1&#45;&gt;Node2</title>
<g id="a_edge1_Node000001_Node000002"><a xlink:title=" ">
<path fill="none" stroke="#63b8ff" d="M110.92,-37.81C102.86,-39.2 94.57,-40.64 86.68,-42.01"/>
<polygon fill="#63b8ff" stroke="#63b8ff" points="111.34,-41.29 120.59,-36.13 110.14,-34.39 111.34,-41.29"/>
</a>
</g>
</g>
<!-- Node3 -->
<g id="Node000003" class="node">
<title>Node3</title>
<g id="a_Node000003"><a xlink:href="../../dd/dc1/a00212.html#ac5213483d722f8f1bd5c28fbbb55369e" target="_top" xlink:title="Initialize Pick file specifications.">
<polygon fill="white" stroke="#666666" points="86.5,-20.75 0,-20.75 0,0 86.5,0 86.5,-20.75"/>
<text xml:space="preserve" text-anchor="middle" x="43.25" y="-7.25" font-family="Helvetica,sans-Serif" font-size="10.00">init_view_files</text>
</a>
</g>
</g>
<!-- Node1&#45;&gt;Node3 -->
<g id="edge2_Node000001_Node000003" class="edge">
<title>Node1&#45;&gt;Node3</title>
<g id="a_edge2_Node000001_Node000003"><a xlink:title=" ">
<path fill="none" stroke="#63b8ff" d="M110.92,-21.37C102.86,-20.04 94.57,-18.67 86.68,-17.37"/>
<polygon fill="#63b8ff" stroke="#63b8ff" points="110.15,-24.79 120.59,-22.96 111.29,-17.88 110.15,-24.79"/>
</a>
</g>
</g>
</g>
</svg>
