<?xml version="1.0" encoding="UTF-8" standalone="no"?>
<!DOCTYPE svg PUBLIC "-//W3C//DTD SVG 1.1//EN"
 "http://www.w3.org/Graphics/SVG/1.1/DTD/svg11.dtd">
<!-- Generated by graphviz version 14.1.2 (0)
 -->
<!-- Title: form_fmt_field Pages: 1 -->
<!--zoomable 212 -->

<svg id="main" version="1.1" xmlns="http://www.w3.org/2000/svg" xmlns:xlink="http://www.w3.org/1999/xlink" xml:space="preserve" onload="init(evt)">

<style type="text/css"><![CDATA[
.node, .edge {opacity: 0.7;}
.node.selected, .edge.selected {opacity: 1;}
.edge:hover path { stroke: red; }
.edge:hover polygon { stroke: red; fill: red; }
]]></style>

<defs>
  <circle id="rim" cx="0" cy="0" r="7"/>
  <circle id="rim2" cx="0" cy="0" r="3.5"/>
  <g id="zoomPlus">
    <use xlink:href="#rim" fill="#404040"><set attributeName="fill" to="#808080" begin="zoomplus.mouseover" end="zoomplus.mouseout"/></use>
    <path d="M-4,0h8M0,-4v8" fill="none" stroke="white" stroke-width="1.5" pointer-events="none"/>
  </g>
  <g id="zoomMin">
    <use xlink:href="#rim" fill="#404040"><set attributeName="fill" to="#808080" begin="zoomminus.mouseover" end="zoomminus.mouseout"/></use>
    <path d="M-4,0h8" fill="none" stroke="white" stroke-width="1.5" pointer-events="none"/>
  </g>
  <g id="arrowUp" transform="translate(30 24)">
    <use xlink:href="#rim"/>
    <path pointer-events="none" fill="none" stroke="white" stroke-width="1.5" d="M0,-3.0v7 M-2.5,-0.5L0,-3.0L2.5,-0.5"/>
  </g>
  <g id="arrowRight" transform="rotate(90) translate(36 -43)">
    <use xlink:href="#rim"/>
    <path pointer-events="none" fill="none" stroke="white" stroke-width="1.5" d="M0,-3.0v7 M-2.5,-0.5L0,-3.0L2.5,-0.5"/>
  </g>
  <g id="arrowDown" transform="rotate(180) translate(-30 -48)">
    <use xlink:href="#rim"/>
    <path pointer-events="none" fill="none" stroke="white" stroke-width="1.5" d="M0,-3.0v7 M-2.5,-0.5L0,-3.0L2.5,-0.5"/>
  </g>
  <g id="arrowLeft" transform="rotate(270) translate(-36 17)">
    <use xlink:href="#rim"/>
    <path pointer-events="none" fill="none" stroke="white" stroke-width="1.5" d="M0,-3.0v7 M-2.5,-0.5L0,-3.0L2.5,-0.5"/>
  </g>
  <g id="resetDef">
    <use xlink:href="#rim2" fill="#404040"><set attributeName="fill" to="#808080" begin="reset.mouseover" end="reset.mouseout"/></use>
  </g>
</defs>
<script type="application/ecmascript">
var viewWidth = 1861;
var viewHeight = 212;
var sectionId = 'dynsection-9';
</script>
<script type="application/ecmascript" xlink:href="../../svg.min.js"/>
<svg id="graph" class="graph">
<g id="viewport">
<title>form_fmt_field</title>
<!-- Node1 -->
<g id="Node000001" class="node">
<title>Node1</title>
<g id="a_Node000001"><a xlink:title="Format field according to its format type.">
<polygon fill="#999999" stroke="#666666" points="1852.75,-107.12 1764,-107.12 1764,-86.37 1852.75,-86.37 1852.75,-107.12"/>
<text xml:space="preserve" text-anchor="middle" x="1808.38" y="-93.62" font-family="Helvetica,sans-Serif" font-size="10.00">form_fmt_field</text>
</a>
</g>
</g>
<!-- Node2 -->
<g id="Node000002" class="node">
<title>Node2</title>
<g id="a_Node000002"><a xlink:href="../../d6/d7f/a00287.html#aa3062b9adcfe4160df15f1763963f9f8" target="_top" xlink:title="Accept input for a field.">
<polygon fill="white" stroke="#666666" points="1728,-127.12 1624.25,-127.12 1624.25,-106.37 1728,-106.37 1728,-127.12"/>
<text xml:space="preserve" text-anchor="middle" x="1676.12" y="-113.62" font-family="Helvetica,sans-Serif" font-size="10.00">form_accept_field</text>
</a>
</g>
</g>
<!-- Node1&#45;&gt;Node2 -->
<g id="edge1_Node000001_Node000002" class="edge">
<title>Node1&#45;&gt;Node2</title>
<g id="a_edge1_Node000001_Node000002"><a xlink:title=" ">
<path fill="none" stroke="#63b8ff" d="M1752.46,-105.18C1744.41,-106.42 1736.14,-107.68 1728.18,-108.91"/>
<polygon fill="#63b8ff" stroke="#63b8ff" points="1752.79,-108.67 1762.15,-103.69 1751.73,-101.75 1752.79,-108.67"/>
</a>
</g>
</g>
<!-- Node22 -->
<g id="Node000022" class="node">
<title>Node22</title>
<g id="a_Node000022"><a xlink:href="../../d2/d04/a00281.html#a15e4844b5dff35fd08e47d8379328d55" target="_top" xlink:title="Read initial data for form fields from a specified input source, such as a file or standard input,...">
<polygon fill="white" stroke="#666666" points="1722.75,-88.12 1629.5,-88.12 1629.5,-67.37 1722.75,-67.37 1722.75,-88.12"/>
<text xml:space="preserve" text-anchor="middle" x="1676.12" y="-74.62" font-family="Helvetica,sans-Serif" font-size="10.00">form_read_data</text>
</a>
</g>
</g>
<!-- Node1&#45;&gt;Node22 -->
<g id="edge28_Node000001_Node000022" class="edge">
<title>Node1&#45;&gt;Node22</title>
<g id="a_edge28_Node000001_Node000022"><a xlink:title=" ">
<path fill="none" stroke="#63b8ff" d="M1752.42,-88.73C1742.69,-87.31 1732.65,-85.85 1723.2,-84.47"/>
<polygon fill="#63b8ff" stroke="#63b8ff" points="1751.74,-92.17 1762.14,-90.15 1752.75,-85.24 1751.74,-92.17"/>
</a>
</g>
</g>
<!-- Node3 -->
<g id="Node000003" class="node">
<title>Node3</title>
<g id="a_Node000003"><a xlink:href="../../d2/d04/a00281.html#a85f521b3faafff8ce5584317cebe5d3c" target="_top" xlink:title="Handle user input for field entry, allowing navigation between fields and looping until an exit actio...">
<polygon fill="white" stroke="#666666" points="1588.25,-127.12 1486,-127.12 1486,-106.37 1588.25,-106.37 1588.25,-127.12"/>
<text xml:space="preserve" text-anchor="middle" x="1537.12" y="-113.62" font-family="Helvetica,sans-Serif" font-size="10.00">form_enter_fields</text>
</a>
</g>
</g>
<!-- Node2&#45;&gt;Node3 -->
<g id="edge2_Node000002_Node000003" class="edge">
<title>Node2&#45;&gt;Node3</title>
<g id="a_edge2_Node000002_Node000003"><a xlink:title=" ">
<path fill="none" stroke="#63b8ff" d="M1612.83,-116.75C1604.76,-116.75 1596.57,-116.75 1588.73,-116.75"/>
<polygon fill="#63b8ff" stroke="#63b8ff" points="1612.6,-120.25 1622.6,-116.75 1612.6,-113.25 1612.6,-120.25"/>
</a>
</g>
</g>
<!-- Node4 -->
<g id="Node000004" class="node">
<title>Node4</title>
<g id="a_Node000004"><a xlink:href="../../d2/d04/a00281.html#ada302551bf41bf8ed6132fd34328a47e" target="_top" xlink:title="Form main processing loop.">
<polygon fill="white" stroke="#666666" points="1450,-89.12 1372.5,-89.12 1372.5,-68.37 1450,-68.37 1450,-89.12"/>
<text xml:space="preserve" text-anchor="middle" x="1411.25" y="-75.62" font-family="Helvetica,sans-Serif" font-size="10.00">form_engine</text>
</a>
</g>
</g>
<!-- Node3&#45;&gt;Node4 -->
<g id="edge3_Node000003_Node000004" class="edge">
<title>Node3&#45;&gt;Node4</title>
<g id="a_edge3_Node000003_Node000004"><a xlink:title=" ">
<path fill="none" stroke="#63b8ff" d="M1490,-102.6C1475.94,-98.28 1460.72,-93.62 1447.5,-89.56"/>
<polygon fill="#63b8ff" stroke="#63b8ff" points="1488.92,-105.93 1499.51,-105.52 1490.98,-99.24 1488.92,-105.93"/>
</a>
</g>
</g>
<!-- Node5 -->
<g id="Node000005" class="node">
<title>Node5</title>
<g id="a_Node000005"><a xlink:href="../../d2/d04/a00281.html#abf1be20a8aad5f7ba09172ac1434a110" target="_top" xlink:title="Initialize form data structure and parse description file.">
<polygon fill="white" stroke="#666666" points="1336.5,-70.12 1276.25,-70.12 1276.25,-49.37 1336.5,-49.37 1336.5,-70.12"/>
<text xml:space="preserve" text-anchor="middle" x="1306.38" y="-56.62" font-family="Helvetica,sans-Serif" font-size="10.00">init_form</text>
</a>
</g>
</g>
<!-- Node4&#45;&gt;Node5 -->
<g id="edge4_Node000004_Node000005" class="edge">
<title>Node4&#45;&gt;Node5</title>
<g id="a_edge4_Node000004_Node000005"><a xlink:title=" ">
<path fill="none" stroke="#63b8ff" d="M1361.08,-69.67C1352.8,-68.14 1344.45,-66.59 1336.87,-65.19"/>
<polygon fill="#63b8ff" stroke="#63b8ff" points="1360.28,-73.08 1370.75,-71.45 1361.55,-66.19 1360.28,-73.08"/>
</a>
</g>
</g>
<!-- Node6 -->
<g id="Node000006" class="node">
<title>Node6</title>
<g id="a_Node000006"><a xlink:href="../../dd/d52/a00221.html#a2ffea5674e85f124a70e19f745a66583" target="_top" xlink:title="use form to enter a file specification">
<polygon fill="white" stroke="#666666" points="1240.25,-89.12 1150,-89.12 1150,-68.37 1240.25,-68.37 1240.25,-89.12"/>
<text xml:space="preserve" text-anchor="middle" x="1195.12" y="-75.62" font-family="Helvetica,sans-Serif" font-size="10.00">enter_file_spec</text>
</a>
</g>
</g>
<!-- Node5&#45;&gt;Node6 -->
<g id="edge5_Node000005_Node000006" class="edge">
<title>Node5&#45;&gt;Node6</title>
<g id="a_edge5_Node000005_Node000006"><a xlink:title=" ">
<path fill="none" stroke="#63b8ff" d="M1264.65,-66.83C1256.77,-68.2 1248.48,-69.64 1240.49,-71.03"/>
<polygon fill="#63b8ff" stroke="#63b8ff" points="1265.07,-70.31 1274.32,-65.15 1263.87,-63.41 1265.07,-70.31"/>
</a>
</g>
</g>
<!-- Node16 -->
<g id="Node000016" class="node">
<title>Node16</title>
<g id="a_Node000016"><a xlink:href="../../d9/d39/a00257.html#aa5d0e30e7036b72b51c843d0a7e486a1" target="_top" xlink:title="Processes user input for the menu system.">
<polygon fill="white" stroke="#666666" points="317.25,-126.12 194.75,-126.12 194.75,-105.37 317.25,-105.37 317.25,-126.12"/>
<text xml:space="preserve" text-anchor="middle" x="256" y="-112.62" font-family="Helvetica,sans-Serif" font-size="10.00">menu_cmd_processor</text>
</a>
</g>
</g>
<!-- Node5&#45;&gt;Node16 -->
<g id="edge27_Node000005_Node000016" class="edge">
<title>Node5&#45;&gt;Node16</title>
<g id="a_edge27_Node000005_Node000016"><a xlink:title=" ">
<path fill="none" stroke="#63b8ff" d="M1282.56,-42.71C1270.58,-34.67 1255.29,-25.75 1240.25,-20.75 1162.14,5.24 1138.32,-1.75 1056,-1.75 1056,-1.75 1056,-1.75 482.75,-1.75 391.42,-1.75 299.47,-77 268.2,-105.23"/>
<polygon fill="#63b8ff" stroke="#63b8ff" points="1280.33,-45.42 1290.53,-48.29 1284.35,-39.69 1280.33,-45.42"/>
</a>
</g>
</g>
<!-- Node21 -->
<g id="Node000021" class="node">
<title>Node21</title>
<g id="a_Node000021"><a xlink:href="../../db/dc3/a00284.html#a3c04138a5bfe5d72780bb7e82a18e627" target="_top" xlink:title=" ">
<polygon fill="white" stroke="#666666" points="1215.5,-50.12 1174.75,-50.12 1174.75,-29.37 1215.5,-29.37 1215.5,-50.12"/>
<text xml:space="preserve" text-anchor="middle" x="1195.12" y="-36.62" font-family="Helvetica,sans-Serif" font-size="10.00">main</text>
</a>
</g>
</g>
<!-- Node5&#45;&gt;Node21 -->
<g id="edge26_Node000005_Node000021" class="edge">
<title>Node5&#45;&gt;Node21</title>
<g id="a_edge26_Node000005_Node000021"><a xlink:title=" ">
<path fill="none" stroke="#63b8ff" d="M1264.61,-52.28C1247.88,-49.22 1229.3,-45.82 1215.71,-43.33"/>
<polygon fill="#63b8ff" stroke="#63b8ff" points="1263.85,-55.7 1274.32,-54.06 1265.12,-48.82 1263.85,-55.7"/>
</a>
</g>
</g>
<!-- Node7 -->
<g id="Node000007" class="node">
<title>Node7</title>
<g id="a_Node000007"><a xlink:href="../../dd/d52/a00221.html#a9c4b3ba5f73c18b486646c62b933972a" target="_top" xlink:title="Main Command Processing Loop for View.">
<polygon fill="white" stroke="#666666" points="1114,-89.12 996,-89.12 996,-68.37 1114,-68.37 1114,-89.12"/>
<text xml:space="preserve" text-anchor="middle" x="1055" y="-75.62" font-family="Helvetica,sans-Serif" font-size="10.00">view_cmd_processor</text>
</a>
</g>
</g>
<!-- Node6&#45;&gt;Node7 -->
<g id="edge6_Node000006_Node000007" class="edge">
<title>Node6&#45;&gt;Node7</title>
<g id="a_edge6_Node000006_Node000007"><a xlink:title=" ">
<path fill="none" stroke="#63b8ff" d="M1138.37,-78.75C1130.51,-78.75 1122.41,-78.75 1114.5,-78.75"/>
<polygon fill="#63b8ff" stroke="#63b8ff" points="1138.15,-82.25 1148.15,-78.75 1138.15,-75.25 1138.15,-82.25"/>
</a>
</g>
</g>
<!-- Node8 -->
<g id="Node000008" class="node">
<title>Node8</title>
<g id="a_Node000008"><a xlink:href="../../dd/d52/a00221.html#a0bd4dc056ab5010547129bb87819789b" target="_top" xlink:title="Start view.">
<polygon fill="white" stroke="#666666" points="960,-89.12 899.75,-89.12 899.75,-68.37 960,-68.37 960,-89.12"/>
<text xml:space="preserve" text-anchor="middle" x="929.88" y="-75.62" font-family="Helvetica,sans-Serif" font-size="10.00">view_file</text>
</a>
</g>
</g>
<!-- Node7&#45;&gt;Node8 -->
<g id="edge7_Node000007_Node000008" class="edge">
<title>Node7&#45;&gt;Node8</title>
<g id="a_edge7_Node000007_Node000008"><a xlink:title=" ">
<path fill="none" stroke="#63b8ff" d="M984.44,-78.75C975.94,-78.75 967.64,-78.75 960.22,-78.75"/>
<polygon fill="#63b8ff" stroke="#63b8ff" points="984.17,-82.25 994.17,-78.75 984.17,-75.25 984.17,-82.25"/>
</a>
</g>
</g>
<!-- Node9 -->
<g id="Node000009" class="node">
<title>Node9</title>
<g id="a_Node000009"><a xlink:href="../../d5/ddf/a00224.html#a3c04138a5bfe5d72780bb7e82a18e627" target="_top" xlink:title=" ">
<polygon fill="white" stroke="#666666" points="746.12,-89.12 705.38,-89.12 705.38,-68.37 746.12,-68.37 746.12,-89.12"/>
<text xml:space="preserve" text-anchor="middle" x="725.75" y="-75.62" font-family="Helvetica,sans-Serif" font-size="10.00">main</text>
</a>
</g>
</g>
<!-- Node8&#45;&gt;Node9 -->
<g id="edge8_Node000008_Node000009" class="edge">
<title>Node8&#45;&gt;Node9</title>
<g id="a_edge8_Node000008_Node000009"><a xlink:title=" ">
<path fill="none" stroke="#63b8ff" d="M888,-78.75C844.97,-78.75 779.03,-78.75 746.41,-78.75"/>
<polygon fill="#63b8ff" stroke="#63b8ff" points="887.97,-82.25 897.97,-78.75 887.97,-75.25 887.97,-82.25"/>
</a>
</g>
</g>
<!-- Node10 -->
<g id="Node000010" class="node">
<title>Node10</title>
<g id="a_Node000010"><a xlink:href="../../d7/d03/a00254.html#a75a4e7afc9c9aafd3d35ab706f5fdc71" target="_top" xlink:title="subprogram entry point for C&#45;Menu View">
<polygon fill="white" stroke="#666666" points="863.75,-127.12 814.75,-127.12 814.75,-106.37 863.75,-106.37 863.75,-127.12"/>
<text xml:space="preserve" text-anchor="middle" x="839.25" y="-113.62" font-family="Helvetica,sans-Serif" font-size="10.00">mview</text>
</a>
</g>
</g>
<!-- Node8&#45;&gt;Node10 -->
<g id="edge9_Node000008_Node000010" class="edge">
<title>Node8&#45;&gt;Node10</title>
<g id="a_edge9_Node000008_Node000010"><a xlink:title=" ">
<path fill="none" stroke="#63b8ff" d="M893.33,-93.99C883.45,-98.22 872.97,-102.72 863.95,-106.59"/>
<polygon fill="#63b8ff" stroke="#63b8ff" points="894.51,-97.29 902.32,-90.13 891.75,-90.85 894.51,-97.29"/>
</a>
</g>
</g>
<!-- Node10&#45;&gt;Node4 -->
<g id="edge21_Node000010_Node000004" class="edge">
<title>Node10&#45;&gt;Node4</title>
<g id="a_edge21_Node000010_Node000004"><a xlink:title=" ">
<path fill="none" stroke="#63b8ff" d="M875.31,-116.75C917.66,-116.75 991.04,-116.75 1054,-116.75 1196.12,-116.75 1196.12,-116.75 1196.12,-116.75 1258.8,-116.75 1330.23,-100.77 1372.7,-89.53"/>
<polygon fill="#63b8ff" stroke="#63b8ff" points="875.49,-113.25 865.49,-116.75 875.49,-120.25 875.49,-113.25"/>
</a>
</g>
</g>
<!-- Node10&#45;&gt;Node9 -->
<g id="edge22_Node000010_Node000009" class="edge">
<title>Node10&#45;&gt;Node9</title>
<g id="a_edge22_Node000010_Node000009"><a xlink:title=" ">
<path fill="none" stroke="#63b8ff" d="M803.52,-104.91C784.77,-98.52 762.3,-90.86 746.54,-85.49"/>
<polygon fill="#63b8ff" stroke="#63b8ff" points="802.3,-108.19 812.9,-108.11 804.56,-101.57 802.3,-108.19"/>
</a>
</g>
</g>
<!-- Node11 -->
<g id="Node000011" class="node">
<title>Node11</title>
<g id="a_Node000011"><a xlink:href="../../d0/d27/a00239.html#aeebc4c0b94ca97d753e10a0cd1798730" target="_top" xlink:title="Displays the help screen for the pick interface using mview.">
<polygon fill="white" stroke="#666666" points="777.25,-165.12 674.25,-165.12 674.25,-144.37 777.25,-144.37 777.25,-165.12"/>
<text xml:space="preserve" text-anchor="middle" x="725.75" y="-151.62" font-family="Helvetica,sans-Serif" font-size="10.00">display_pick_help</text>
</a>
</g>
</g>
<!-- Node10&#45;&gt;Node11 -->
<g id="edge10_Node000010_Node000011" class="edge">
<title>Node10&#45;&gt;Node11</title>
<g id="a_edge10_Node000010_Node000011"><a xlink:title=" ">
<path fill="none" stroke="#63b8ff" d="M803.75,-128.51C789.22,-133.46 772.44,-139.18 758.25,-144.01"/>
<polygon fill="#63b8ff" stroke="#63b8ff" points="804.56,-131.93 812.9,-125.39 802.3,-125.3 804.56,-131.93"/>
</a>
</g>
</g>
<!-- Node10&#45;&gt;Node16 -->
<g id="edge23_Node000010_Node000016" class="edge">
<title>Node10&#45;&gt;Node16</title>
<g id="a_edge23_Node000010_Node000016"><a xlink:title=" ">
<path fill="none" stroke="#63b8ff" d="M803.05,-116.75C756.21,-116.75 670.82,-116.75 597.88,-116.75 597.88,-116.75 597.88,-116.75 482.75,-116.75 426.7,-116.75 362.83,-116.43 317.36,-116.16"/>
<polygon fill="#63b8ff" stroke="#63b8ff" points="802.85,-120.25 812.85,-116.75 802.85,-113.25 802.85,-120.25"/>
</a>
</g>
</g>
<!-- Node19 -->
<g id="Node000019" class="node">
<title>Node19</title>
<g id="a_Node000019"><a xlink:href="../../d0/d27/a00239.html#af7fcbb1c8b67a4d11c86ba7209f397c2" target="_top" xlink:title="Executes specified command with selected objects as arguments.">
<polygon fill="white" stroke="#666666" points="636.75,-204.12 557,-204.12 557,-183.37 636.75,-183.37 636.75,-204.12"/>
<text xml:space="preserve" text-anchor="middle" x="596.88" y="-190.62" font-family="Helvetica,sans-Serif" font-size="10.00">exec_objects</text>
</a>
</g>
</g>
<!-- Node10&#45;&gt;Node19 -->
<g id="edge19_Node000010_Node000019" class="edge">
<title>Node10&#45;&gt;Node19</title>
<g id="a_edge19_Node000010_Node000019"><a xlink:title=" ">
<path fill="none" stroke="#63b8ff" d="M823.85,-136.03C812.99,-149.01 796.9,-165.27 778.75,-173.75 733.52,-194.87 675.23,-197.54 637.22,-196.49"/>
<polygon fill="#63b8ff" stroke="#63b8ff" points="826.36,-138.49 829.85,-128.49 820.88,-134.14 826.36,-138.49"/>
</a>
</g>
</g>
<!-- Node20 -->
<g id="Node000020" class="node">
<title>Node20</title>
<g id="a_Node000020"><a xlink:href="../../dd/d52/a00221.html#ad997ba9f8591568c77291fb1b44601b2" target="_top" xlink:title="Display View Help File.">
<polygon fill="white" stroke="#666666" points="778.75,-50.12 672.75,-50.12 672.75,-29.37 778.75,-29.37 778.75,-50.12"/>
<text xml:space="preserve" text-anchor="middle" x="725.75" y="-36.62" font-family="Helvetica,sans-Serif" font-size="10.00">view_display_help</text>
</a>
</g>
</g>
<!-- Node10&#45;&gt;Node20 -->
<g id="edge24_Node000010_Node000020" class="edge">
<title>Node10&#45;&gt;Node20</title>
<g id="a_edge24_Node000010_Node000020"><a xlink:title=" ">
<path fill="none" stroke="#63b8ff" d="M821.98,-97.64C810.82,-85.49 795.11,-70.13 778.75,-59.75 773.2,-56.22 766.92,-53.16 760.71,-50.56"/>
<polygon fill="#63b8ff" stroke="#63b8ff" points="819.3,-99.9 828.56,-105.05 824.54,-95.25 819.3,-99.9"/>
</a>
</g>
</g>
<!-- Node12 -->
<g id="Node000012" class="node">
<title>Node12</title>
<g id="a_Node000012"><a xlink:href="../../d0/d27/a00239.html#abb0969a6d1c7e78be46c3b325754c802" target="_top" xlink:title="Main loop to handle user input and interactions for pick interface.">
<polygon fill="white" stroke="#666666" points="619.5,-165.12 574.25,-165.12 574.25,-144.37 619.5,-144.37 619.5,-165.12"/>
<text xml:space="preserve" text-anchor="middle" x="596.88" y="-151.62" font-family="Helvetica,sans-Serif" font-size="10.00">picker</text>
</a>
</g>
</g>
<!-- Node11&#45;&gt;Node12 -->
<g id="edge11_Node000011_Node000012" class="edge">
<title>Node11&#45;&gt;Node12</title>
<g id="a_edge11_Node000011_Node000012"><a xlink:title=" ">
<path fill="none" stroke="#63b8ff" d="M662.77,-154.75C647.41,-154.75 631.94,-154.75 619.96,-154.75"/>
<polygon fill="#63b8ff" stroke="#63b8ff" points="662.36,-158.25 672.36,-154.75 662.36,-151.25 662.36,-158.25"/>
</a>
</g>
</g>
<!-- Node13 -->
<g id="Node000013" class="node">
<title>Node13</title>
<g id="a_Node000013"><a xlink:href="../../d0/d27/a00239.html#ab97dcab41017c5132f52b682437a151e" target="_top" xlink:title="Initializes pick interface, calculates window size and position, and enters picker loop.">
<polygon fill="white" stroke="#666666" points="521,-165.12 446.5,-165.12 446.5,-144.37 521,-144.37 521,-165.12"/>
<text xml:space="preserve" text-anchor="middle" x="483.75" y="-151.62" font-family="Helvetica,sans-Serif" font-size="10.00">pick_engine</text>
</a>
</g>
</g>
<!-- Node12&#45;&gt;Node13 -->
<g id="edge12_Node000012_Node000013" class="edge">
<title>Node12&#45;&gt;Node13</title>
<g id="a_edge12_Node000012_Node000013"><a xlink:title=" ">
<path fill="none" stroke="#63b8ff" d="M562.57,-154.75C549.5,-154.75 534.45,-154.75 521.1,-154.75"/>
<polygon fill="#63b8ff" stroke="#63b8ff" points="562.41,-158.25 572.41,-154.75 562.41,-151.25 562.41,-158.25"/>
</a>
</g>
</g>
<!-- Node14 -->
<g id="Node000014" class="node">
<title>Node14</title>
<g id="a_Node000014"><a xlink:href="../../d0/d27/a00239.html#a1b2ee87543245e612c1710ea58930a17" target="_top" xlink:title="Initializes pick structure and opens pick input file or pipe.">
<polygon fill="white" stroke="#666666" points="410.5,-165.12 353.25,-165.12 353.25,-144.37 410.5,-144.37 410.5,-165.12"/>
<text xml:space="preserve" text-anchor="middle" x="381.88" y="-151.62" font-family="Helvetica,sans-Serif" font-size="10.00">init_pick</text>
</a>
</g>
</g>
<!-- Node13&#45;&gt;Node14 -->
<g id="edge13_Node000013_Node000014" class="edge">
<title>Node13&#45;&gt;Node14</title>
<g id="a_edge13_Node000013_Node000014"><a xlink:title=" ">
<path fill="none" stroke="#63b8ff" d="M434.66,-154.75C426.46,-154.75 418.18,-154.75 410.73,-154.75"/>
<polygon fill="#63b8ff" stroke="#63b8ff" points="434.61,-158.25 444.61,-154.75 434.61,-151.25 434.61,-158.25"/>
</a>
</g>
</g>
<!-- Node15 -->
<g id="Node000015" class="node">
<title>Node15</title>
<g id="a_Node000015"><a xlink:href="../../d2/dc8/a00242.html#a3c04138a5bfe5d72780bb7e82a18e627" target="_top" xlink:title=" ">
<polygon fill="white" stroke="#666666" points="276.38,-165.12 235.62,-165.12 235.62,-144.37 276.38,-144.37 276.38,-165.12"/>
<text xml:space="preserve" text-anchor="middle" x="256" y="-151.62" font-family="Helvetica,sans-Serif" font-size="10.00">main</text>
</a>
</g>
</g>
<!-- Node14&#45;&gt;Node15 -->
<g id="edge14_Node000014_Node000015" class="edge">
<title>Node14&#45;&gt;Node15</title>
<g id="a_edge14_Node000014_Node000015"><a xlink:title=" ">
<path fill="none" stroke="#63b8ff" d="M341.27,-154.75C319.64,-154.75 293.83,-154.75 276.52,-154.75"/>
<polygon fill="#63b8ff" stroke="#63b8ff" points="341.25,-158.25 351.25,-154.75 341.25,-151.25 341.25,-158.25"/>
</a>
</g>
</g>
<!-- Node14&#45;&gt;Node16 -->
<g id="edge15_Node000014_Node000016" class="edge">
<title>Node14&#45;&gt;Node16</title>
<g id="a_edge15_Node000014_Node000016"><a xlink:title=" ">
<path fill="none" stroke="#63b8ff" d="M341.96,-142.49C325.67,-137.37 306.92,-131.46 291.18,-126.51"/>
<polygon fill="#63b8ff" stroke="#63b8ff" points="340.73,-145.78 351.32,-145.44 342.83,-139.1 340.73,-145.78"/>
</a>
</g>
</g>
<!-- Node17 -->
<g id="Node000017" class="node">
<title>Node17</title>
<g id="a_Node000017"><a xlink:href="../../d9/d39/a00257.html#a7d7973d7aac92759dcc86ec52bb038f4" target="_top" xlink:title="The main loop of the menu system.">
<polygon fill="white" stroke="#666666" points="158.75,-126.12 76.75,-126.12 76.75,-105.37 158.75,-105.37 158.75,-126.12"/>
<text xml:space="preserve" text-anchor="middle" x="117.75" y="-112.62" font-family="Helvetica,sans-Serif" font-size="10.00">menu_engine</text>
</a>
</g>
</g>
<!-- Node16&#45;&gt;Node17 -->
<g id="edge16_Node000016_Node000017" class="edge">
<title>Node16&#45;&gt;Node17</title>
<g id="a_edge16_Node000016_Node000017"><a xlink:title=" ">
<path fill="none" stroke="#63b8ff" d="M183.2,-109.01C174.96,-109.04 166.79,-109.22 159.17,-109.52"/>
<polygon fill="#63b8ff" stroke="#63b8ff" points="182.92,-112.5 192.93,-109.03 182.94,-105.5 182.92,-112.5"/>
</a>
</g>
</g>
<!-- Node17&#45;&gt;Node16 -->
<g id="edge18_Node000017_Node000016" class="edge">
<title>Node17&#45;&gt;Node16</title>
<g id="a_edge18_Node000017_Node000016"><a xlink:title=" ">
<path fill="none" stroke="#63b8ff" d="M170.68,-122.32C178.45,-122.49 186.52,-122.54 194.45,-122.46"/>
<polygon fill="#63b8ff" stroke="#63b8ff" points="170.79,-118.83 160.69,-122.02 170.58,-125.82 170.79,-118.83"/>
</a>
</g>
</g>
<!-- Node18 -->
<g id="Node000018" class="node">
<title>Node18</title>
<g id="a_Node000018"><a xlink:href="../../dd/dd7/a00260.html#a3c04138a5bfe5d72780bb7e82a18e627" target="_top" xlink:title=" ">
<polygon fill="white" stroke="#666666" points="40.75,-126.12 0,-126.12 0,-105.37 40.75,-105.37 40.75,-126.12"/>
<text xml:space="preserve" text-anchor="middle" x="20.38" y="-112.62" font-family="Helvetica,sans-Serif" font-size="10.00">main</text>
</a>
</g>
</g>
<!-- Node17&#45;&gt;Node18 -->
<g id="edge17_Node000017_Node000018" class="edge">
<title>Node17&#45;&gt;Node18</title>
<g id="a_edge17_Node000017_Node000018"><a xlink:title=" ">
<path fill="none" stroke="#63b8ff" d="M64.79,-115.75C56.36,-115.75 48.1,-115.75 41.09,-115.75"/>
<polygon fill="#63b8ff" stroke="#63b8ff" points="64.79,-119.25 74.79,-115.75 64.79,-112.25 64.79,-119.25"/>
</a>
</g>
</g>
<!-- Node19&#45;&gt;Node13 -->
<g id="edge20_Node000019_Node000013" class="edge">
<title>Node19&#45;&gt;Node13</title>
<g id="a_edge20_Node000019_Node000013"><a xlink:title=" ">
<path fill="none" stroke="#63b8ff" d="M554.42,-179.2C541.53,-174.67 527.56,-169.77 515.54,-165.55"/>
<polygon fill="#63b8ff" stroke="#63b8ff" points="552.9,-182.37 563.49,-182.38 555.22,-175.77 552.9,-182.37"/>
</a>
</g>
</g>
<!-- Node20&#45;&gt;Node7 -->
<g id="edge25_Node000020_Node000007" class="edge">
<title>Node20&#45;&gt;Node7</title>
<g id="a_edge25_Node000020_Node000007"><a xlink:title=" ">
<path fill="none" stroke="#63b8ff" d="M790.06,-43.22C837.11,-46.27 902.76,-51.54 960,-59.75 975,-61.9 991.21,-64.92 1005.88,-67.92"/>
<polygon fill="#63b8ff" stroke="#63b8ff" points="790.53,-39.74 780.33,-42.6 790.09,-46.73 790.53,-39.74"/>
</a>
</g>
</g>
<!-- Node22&#45;&gt;Node4 -->
<g id="edge31_Node000022_Node000004" class="edge">
<title>Node22&#45;&gt;Node4</title>
<g id="a_edge31_Node000022_Node000004"><a xlink:title=" ">
<path fill="none" stroke="#63b8ff" d="M1617.58,-77.97C1566.74,-78.16 1494.05,-78.44 1450.18,-78.6"/>
<polygon fill="#63b8ff" stroke="#63b8ff" points="1617.53,-81.47 1627.52,-77.93 1617.51,-74.47 1617.53,-81.47"/>
</a>
</g>
</g>
<!-- Node23 -->
<g id="Node000023" class="node">
<title>Node23</title>
<g id="a_Node000023"><a xlink:href="../../d2/d04/a00281.html#a0329d3892bf2c4fe8e77a3c303ebe5f6" target="_top" xlink:title="Handle integration with an external program for calculation, allowing the user to execute a provider ...">
<polygon fill="white" stroke="#666666" points="1581.5,-51.12 1492.75,-51.12 1492.75,-30.37 1581.5,-30.37 1581.5,-51.12"/>
<text xml:space="preserve" text-anchor="middle" x="1537.12" y="-37.62" font-family="Helvetica,sans-Serif" font-size="10.00">form_calculate</text>
</a>
</g>
</g>
<!-- Node22&#45;&gt;Node23 -->
<g id="edge29_Node000022_Node000023" class="edge">
<title>Node22&#45;&gt;Node23</title>
<g id="a_edge29_Node000022_Node000023"><a xlink:title=" ">
<path fill="none" stroke="#63b8ff" d="M1624.26,-64.01C1608.96,-59.88 1592.4,-55.41 1577.93,-51.5"/>
<polygon fill="#63b8ff" stroke="#63b8ff" points="1623.1,-67.32 1633.67,-66.55 1624.93,-60.56 1623.1,-67.32"/>
</a>
</g>
</g>
<!-- Node23&#45;&gt;Node4 -->
<g id="edge30_Node000023_Node000004" class="edge">
<title>Node23&#45;&gt;Node4</title>
<g id="a_edge30_Node000023_Node000004"><a xlink:title=" ">
<path fill="none" stroke="#63b8ff" d="M1490,-54.9C1475.94,-59.21 1460.72,-63.88 1447.5,-67.93"/>
<polygon fill="#63b8ff" stroke="#63b8ff" points="1490.98,-58.26 1499.51,-51.98 1488.92,-51.56 1490.98,-58.26"/>
</a>
</g>
</g>
</g>
</svg>

<g id="navigator" transform="translate(0 0)" fill="#404254">
  <rect fill="#f2f5e9" fill-opacity="0.5" stroke="#606060" stroke-width=".5" x="0" y="0" width="60" height="60"/>
  <use id="zoomplus" xlink:href="#zoomPlus" x="17" y="9" onmousedown="handleZoom(evt,'in')"/>
  <use id="zoomminus" xlink:href="#zoomMin" x="42" y="9" onmousedown="handleZoom(evt,'out')"/>
  <use id="reset" xlink:href="#resetDef" x="30" y="36" onmousedown="handleReset()"/>
   <use id="arrowup" xlink:href="#arrowUp" x="0" y="0" onmousedown="handlePan(0,-1)"/>
  <use id="arrowright" xlink:href="#arrowRight" x="0" y="0" onmousedown="handlePan(1,0)"/>
  <use id="arrowdown" xlink:href="#arrowDown" x="0" y="0" onmousedown="handlePan(0,1)"/>
  <use id="arrowleft" xlink:href="#arrowLeft" x="0" y="0" onmousedown="handlePan(-1,0)"/>
</g>
<svg viewBox="0 0 15 15" width="100%" height="30px" preserveAspectRatio="xMaxYMin meet">
 <g id="arrow_out" transform="scale(0.3 0.3)">
  <a xlink:href="a00287_a07a8d9311c88786e7310fef638d34a41_icgraph_org.svg" target="_base">
   <rect id="button" ry="5" rx="5" y="6" x="6" height="38" width="38"
        fill="#f2f5e9" fill-opacity="0.5" stroke="#606060" stroke-width="1.0"/>
   <path id="arrow"
     d="M 11.500037,31.436501 C 11.940474,20.09759 22.043105,11.32322 32.158766,21.979434 L 37.068811,17.246167 C 37.068811,17.246167 37.088388,32 37.088388,32 L 22.160133,31.978069 C 22.160133,31.978069 26.997745,27.140456 26.997745,27.140456 C 18.528582,18.264221 13.291696,25.230495 11.500037,31.436501 z"
     style="fill:#404040;"/>
  </a>
 </g>
</svg>

<style type='text/css'>
<![CDATA[
[data-mouse-over-selected='false'] { opacity: 0.7; }
[data-mouse-over-selected='true']  { opacity: 1.0; }
]]>
</style>
<script type="application/ecmascript"><![CDATA[
document.addEventListener('DOMContentLoaded', (event) => {
  highlightEdges();
  highlightAdjacentNodes();
});
]]></script>
</svg>
