<?xml version="1.0" encoding="UTF-8" standalone="no"?>
<!DOCTYPE svg PUBLIC "-//W3C//DTD SVG 1.1//EN"
 "http://www.w3.org/Graphics/SVG/1.1/DTD/svg11.dtd">
<!-- Generated by graphviz version 14.1.2 (0)
 -->
<!-- Title: ChyronKey Pages: 1 -->
<svg width="116pt" height="121pt"
 viewBox="0.00 0.00 116.00 121.00" xmlns="http://www.w3.org/2000/svg" xmlns:xlink="http://www.w3.org/1999/xlink">
<g id="graph0" class="graph" transform="scale(1 1) rotate(0) translate(4 117)">
<title>ChyronKey</title>
<!-- Node1 -->
<g id="Node000001" class="node">
<title>Node1</title>
<g id="a_Node000001"><a xlink:title=" ">
<polygon fill="#999999" stroke="#666666" points="77.75,-20.75 9.25,-20.75 9.25,0 77.75,0 77.75,-20.75"/>
<text xml:space="preserve" text-anchor="middle" x="43.5" y="-7.25" font-family="Helvetica,sans-Serif" font-size="10.00">ChyronKey</text>
</a>
</g>
</g>
<!-- Node2 -->
<g id="Node000002" class="node">
<title>Node2</title>
<g id="a_Node000002"><a xlink:title=" ">
<polygon fill="white" stroke="#666666" points="37,-113 0,-113 0,-92.25 37,-92.25 37,-113"/>
<text xml:space="preserve" text-anchor="middle" x="18.5" y="-99.5" font-family="Helvetica,sans-Serif" font-size="10.00">char</text>
</a>
</g>
</g>
<!-- Node2&#45;&gt;Node1 -->
<g id="edge1_Node000001_Node000002" class="edge">
<title>Node2&#45;&gt;Node1</title>
<g id="a_edge1_Node000001_Node000002"><a xlink:title=" ">
<path fill="none" stroke="#9a32cd" stroke-dasharray="5,2" d="M16.57,-80.73C16.15,-68.18 16.96,-52.1 22,-38.75 24.47,-32.19 29.12,-25.96 33.46,-21.1"/>
<polygon fill="#9a32cd" stroke="#9a32cd" points="13.05,-80.62 17.18,-90.37 20.04,-80.17 13.05,-80.62"/>
</a>
</g>
<text xml:space="preserve" text-anchor="start" x="25" y="-53.38" font-family="Helvetica,sans-Serif" font-size="10.00" fill="grey">text</text>
</g>
<!-- Node3 -->
<g id="Node000003" class="node">
<title>Node3</title>
<g id="a_Node000003"><a xlink:title=" ">
<polygon fill="white" stroke="#666666" points="83.9,-113 55.1,-113 55.1,-92.25 83.9,-92.25 83.9,-113"/>
<text xml:space="preserve" text-anchor="middle" x="69.5" y="-99.5" font-family="Helvetica,sans-Serif" font-size="10.00">int</text>
</a>
</g>
</g>
<!-- Node3&#45;&gt;Node1 -->
<g id="edge2_Node000001_Node000003" class="edge">
<title>Node3&#45;&gt;Node1</title>
<g id="a_edge2_Node000001_Node000003"><a xlink:title=" ">
<path fill="none" stroke="#9a32cd" stroke-dasharray="5,2" d="M63.57,-81.05C58.18,-62.34 50.46,-35.53 46.34,-21.24"/>
<polygon fill="#9a32cd" stroke="#9a32cd" points="60.17,-81.87 66.3,-90.51 66.89,-79.93 60.17,-81.87"/>
</a>
</g>
<text xml:space="preserve" text-anchor="start" x="64.09" y="-61.75" font-family="Helvetica,sans-Serif" font-size="10.00" fill="grey">end_pos</text>
<text xml:space="preserve" text-anchor="start" x="64.09" y="-45" font-family="Helvetica,sans-Serif" font-size="10.00" fill="grey">keycode</text>
</g>
</g>
</svg>
