<?xml version="1.0" encoding="UTF-8" standalone="no"?>
<!DOCTYPE svg PUBLIC "-//W3C//DTD SVG 1.1//EN"
 "http://www.w3.org/Graphics/SVG/1.1/DTD/svg11.dtd">
<!-- Generated by graphviz version 15.0.0 (0)
 -->
<!-- Title: curskeys.c Pages: 1 -->
<svg width="1072pt" height="313pt"
 viewBox="0.00 0.00 1072.00 313.00" xmlns="http://www.w3.org/2000/svg" xmlns:xlink="http://www.w3.org/1999/xlink">
<g id="graph0" class="graph" transform="scale(1 1) rotate(0) translate(4 308.5)">
<title>curskeys.c</title>
<!-- Node1 -->
<g id="Node000001" class="node">
<title>Node1</title>
<g id="a_Node000001"><a xlink:title="Test Curses Keys.">
<polygon fill="#999999" stroke="#666666" points="1014,-304.5 947,-304.5 947,-283.75 1014,-283.75 1014,-304.5"/>
<text xml:space="preserve" text-anchor="middle" x="980.5" y="-291" font-family="Helvetica,sans-Serif" font-size="10.00">curskeys.c</text>
</a>
</g>
</g>
<!-- Node2 -->
<g id="Node000002" class="node">
<title>Node2</title>
<g id="a_Node000002"><a xlink:href="../../dd/dd8/a00719.html" target="_top" xlink:title="Headder for C&#45;Menu Menu, Form, Pick, and View components.">
<polygon fill="white" stroke="#666666" points="679.38,-247.75 611.62,-247.75 611.62,-227 679.38,-227 679.38,-247.75"/>
<text xml:space="preserve" text-anchor="middle" x="645.5" y="-234.25" font-family="Helvetica,sans-Serif" font-size="10.00">common.h</text>
</a>
</g>
</g>
<!-- Node1&#45;&gt;Node2 -->
<g id="edge1_Node000001_Node000002" class="edge">
<title>Node1&#45;&gt;Node2</title>
<g id="a_edge1_Node000001_Node000002"><a xlink:title=" ">
<path fill="none" stroke="#63b8ff" d="M946.53,-287.57C885.92,-277.67 759.09,-256.94 691.01,-245.81"/>
<polygon fill="#63b8ff" stroke="#63b8ff" points="691.73,-242.38 681.3,-244.23 690.6,-249.29 691.73,-242.38"/>
</a>
</g>
</g>
<!-- Node6 -->
<g id="Node000006" class="node">
<title>Node6</title>
<g id="a_Node000006"><a xlink:title=" ">
<polygon fill="#e0e0e0" stroke="#999999" points="914.12,-77.5 802.88,-77.5 802.88,-56.75 914.12,-56.75 914.12,-77.5"/>
<text xml:space="preserve" text-anchor="middle" x="858.5" y="-64" font-family="Helvetica,sans-Serif" font-size="10.00">ncursesw/ncurses.h</text>
</a>
</g>
</g>
<!-- Node1&#45;&gt;Node6 -->
<g id="edge30_Node000001_Node000006" class="edge">
<title>Node1&#45;&gt;Node6</title>
<g id="a_edge30_Node000001_Node000006"><a xlink:title=" ">
<path fill="none" stroke="#63b8ff" d="M975.26,-283.46C956.76,-249.34 894.31,-134.17 869.14,-87.75"/>
<polygon fill="#63b8ff" stroke="#63b8ff" points="872.29,-86.21 864.44,-79.09 866.13,-89.55 872.29,-86.21"/>
</a>
</g>
</g>
<!-- Node21 -->
<g id="Node000021" class="node">
<title>Node21</title>
<g id="a_Node000021"><a xlink:title=" ">
<polygon fill="#e0e0e0" stroke="#999999" points="1064,-247.75 1009,-247.75 1009,-227 1064,-227 1064,-247.75"/>
<text xml:space="preserve" text-anchor="middle" x="1036.5" y="-234.25" font-family="Helvetica,sans-Serif" font-size="10.00">unistd.h</text>
</a>
</g>
</g>
<!-- Node1&#45;&gt;Node21 -->
<g id="edge31_Node000001_Node000021" class="edge">
<title>Node1&#45;&gt;Node21</title>
<g id="a_edge31_Node000001_Node000021"><a xlink:title=" ">
<path fill="none" stroke="#63b8ff" d="M990.51,-283.34C998.24,-275.78 1009.13,-265.14 1018.37,-256.1"/>
<polygon fill="#63b8ff" stroke="#63b8ff" points="1020.79,-258.63 1025.49,-249.14 1015.9,-253.62 1020.79,-258.63"/>
</a>
</g>
</g>
<!-- Node3 -->
<g id="Node000003" class="node">
<title>Node3</title>
<g id="a_Node000003"><a xlink:href="../../d8/db9/a00725.html" target="_top" xlink:title="Headder for C&#45;Menu API library, libcm.so.">
<polygon fill="white" stroke="#666666" points="496.5,-134.25 456.5,-134.25 456.5,-113.5 496.5,-113.5 496.5,-134.25"/>
<text xml:space="preserve" text-anchor="middle" x="476.5" y="-120.75" font-family="Helvetica,sans-Serif" font-size="10.00">cm.h</text>
</a>
</g>
</g>
<!-- Node2&#45;&gt;Node3 -->
<g id="edge2_Node000002_Node000003" class="edge">
<title>Node2&#45;&gt;Node3</title>
<g id="a_edge2_Node000002_Node000003"><a xlink:title=" ">
<path fill="none" stroke="#63b8ff" d="M611.45,-232.12C566.97,-225.78 492.82,-212.27 476.5,-191 466.77,-178.32 467.63,-159.87 470.43,-145.68"/>
<polygon fill="#63b8ff" stroke="#63b8ff" points="473.81,-146.58 472.81,-136.03 467.02,-144.9 473.81,-146.58"/>
</a>
</g>
</g>
<!-- Node9 -->
<g id="Node000009" class="node">
<title>Node9</title>
<g id="a_Node000009"><a xlink:title=" ">
<polygon fill="#e0e0e0" stroke="#999999" points="653,-20.75 598,-20.75 598,0 653,0 653,-20.75"/>
<text xml:space="preserve" text-anchor="middle" x="625.5" y="-7.25" font-family="Helvetica,sans-Serif" font-size="10.00">stddef.h</text>
</a>
</g>
</g>
<!-- Node2&#45;&gt;Node9 -->
<g id="edge29_Node000002_Node000009" class="edge">
<title>Node2&#45;&gt;Node9</title>
<g id="a_edge29_Node000002_Node000009"><a xlink:title=" ">
<path fill="none" stroke="#63b8ff" d="M679.7,-229.29C769.74,-209.18 1001.3,-147.29 923.5,-56.75 890.55,-18.4 737.54,-12.09 664.51,-11.3"/>
<polygon fill="#63b8ff" stroke="#63b8ff" points="664.62,-7.81 654.6,-11.23 664.57,-14.81 664.62,-7.81"/>
</a>
</g>
</g>
<!-- Node17 -->
<g id="Node000017" class="node">
<title>Node17</title>
<g id="a_Node000017"><a xlink:href="../../d2/d94/a00716.html" target="_top" xlink:title="Form data structures, enums, types, end process declarations.">
<polygon fill="white" stroke="#666666" points="533.62,-191 485.38,-191 485.38,-170.25 533.62,-170.25 533.62,-191"/>
<text xml:space="preserve" text-anchor="middle" x="509.5" y="-177.5" font-family="Helvetica,sans-Serif" font-size="10.00">form.h</text>
</a>
</g>
</g>
<!-- Node2&#45;&gt;Node17 -->
<g id="edge17_Node000002_Node000017" class="edge">
<title>Node2&#45;&gt;Node17</title>
<g id="a_edge17_Node000002_Node000017"><a xlink:title=" ">
<path fill="none" stroke="#63b8ff" d="M621.19,-226.59C599.72,-217.94 568.18,-205.25 544.09,-195.55"/>
<polygon fill="#63b8ff" stroke="#63b8ff" points="545.59,-192.38 535.01,-191.89 542.98,-198.88 545.59,-192.38"/>
</a>
</g>
</g>
<!-- Node18 -->
<g id="Node000018" class="node">
<title>Node18</title>
<g id="a_Node000018"><a xlink:href="../../df/df7/a00731.html" target="_top" xlink:title="Menu data structures, enums, types, end external declarations.">
<polygon fill="white" stroke="#666666" points="604.88,-191 552.12,-191 552.12,-170.25 604.88,-170.25 604.88,-191"/>
<text xml:space="preserve" text-anchor="middle" x="578.5" y="-177.5" font-family="Helvetica,sans-Serif" font-size="10.00">menu.h</text>
</a>
</g>
</g>
<!-- Node2&#45;&gt;Node18 -->
<g id="edge19_Node000002_Node000018" class="edge">
<title>Node2&#45;&gt;Node18</title>
<g id="a_edge19_Node000002_Node000018"><a xlink:title=" ">
<path fill="none" stroke="#63b8ff" d="M633.52,-226.59C623.99,-218.8 610.44,-207.72 599.17,-198.51"/>
<polygon fill="#63b8ff" stroke="#63b8ff" points="601.5,-195.9 591.55,-192.29 597.08,-201.32 601.5,-195.9"/>
</a>
</g>
</g>
<!-- Node19 -->
<g id="Node000019" class="node">
<title>Node19</title>
<g id="a_Node000019"><a xlink:href="../../db/d7c/a00722.html" target="_top" xlink:title="Pick data structures, enums, types, end external declarations.">
<polygon fill="white" stroke="#666666" points="668.12,-191 622.88,-191 622.88,-170.25 668.12,-170.25 668.12,-191"/>
<text xml:space="preserve" text-anchor="middle" x="645.5" y="-177.5" font-family="Helvetica,sans-Serif" font-size="10.00">pick.h</text>
</a>
</g>
</g>
<!-- Node2&#45;&gt;Node19 -->
<g id="edge21_Node000002_Node000019" class="edge">
<title>Node2&#45;&gt;Node19</title>
<g id="a_edge21_Node000002_Node000019"><a xlink:title=" ">
<path fill="none" stroke="#63b8ff" d="M645.5,-226.59C645.5,-219.97 645.5,-210.97 645.5,-202.77"/>
<polygon fill="#63b8ff" stroke="#63b8ff" points="649,-202.84 645.5,-192.84 642,-202.84 649,-202.84"/>
</a>
</g>
</g>
<!-- Node20 -->
<g id="Node000020" class="node">
<title>Node20</title>
<g id="a_Node000020"><a xlink:href="../../dd/db2/a00737.html" target="_top" xlink:title="View data structures, enums, types, end external declarations.">
<polygon fill="white" stroke="#666666" points="720.25,-134.25 672.75,-134.25 672.75,-113.5 720.25,-113.5 720.25,-134.25"/>
<text xml:space="preserve" text-anchor="middle" x="696.5" y="-120.75" font-family="Helvetica,sans-Serif" font-size="10.00">view.h</text>
</a>
</g>
</g>
<!-- Node2&#45;&gt;Node20 -->
<g id="edge23_Node000002_Node000020" class="edge">
<title>Node2&#45;&gt;Node20</title>
<g id="a_edge23_Node000002_Node000020"><a xlink:title=" ">
<path fill="none" stroke="#63b8ff" d="M653.92,-226.54C661.07,-217.73 671.17,-204.21 677.5,-191 684.46,-176.49 689.35,-158.93 692.43,-145.56"/>
<polygon fill="#63b8ff" stroke="#63b8ff" points="695.78,-146.65 694.44,-136.14 688.93,-145.19 695.78,-146.65"/>
</a>
</g>
</g>
<!-- Node4 -->
<g id="Node000004" class="node">
<title>Node4</title>
<g id="a_Node000004"><a xlink:href="../../df/d3b/a00728.html" target="_top" xlink:title=" ">
<polygon fill="white" stroke="#666666" points="251,-77.5 190,-77.5 190,-56.75 251,-56.75 251,-77.5"/>
<text xml:space="preserve" text-anchor="middle" x="220.5" y="-64" font-family="Helvetica,sans-Serif" font-size="10.00">version.h</text>
</a>
</g>
</g>
<!-- Node3&#45;&gt;Node4 -->
<g id="edge3_Node000003_Node000004" class="edge">
<title>Node3&#45;&gt;Node4</title>
<g id="a_edge3_Node000003_Node000004"><a xlink:title=" ">
<path fill="none" stroke="#63b8ff" d="M456.11,-118.82C419.34,-111.47 339.23,-95.25 262.01,-78.02"/>
<polygon fill="#63b8ff" stroke="#63b8ff" points="263.14,-74.68 252.61,-75.91 261.61,-81.51 263.14,-74.68"/>
</a>
</g>
</g>
<!-- Node5 -->
<g id="Node000005" class="node">
<title>Node5</title>
<g id="a_Node000005"><a xlink:title=" ">
<polygon fill="#e0e0e0" stroke="#999999" points="171.88,-77.5 125.12,-77.5 125.12,-56.75 171.88,-56.75 171.88,-77.5"/>
<text xml:space="preserve" text-anchor="middle" x="148.5" y="-64" font-family="Helvetica,sans-Serif" font-size="10.00">argp.h</text>
</a>
</g>
</g>
<!-- Node3&#45;&gt;Node5 -->
<g id="edge4_Node000003_Node000005" class="edge">
<title>Node3&#45;&gt;Node5</title>
<g id="a_edge4_Node000003_Node000005"><a xlink:title=" ">
<path fill="none" stroke="#63b8ff" d="M456.23,-120.71C409.65,-115.54 291.24,-101.26 183.26,-77.88"/>
<polygon fill="#63b8ff" stroke="#63b8ff" points="184.17,-74.5 173.65,-75.77 182.67,-81.34 184.17,-74.5"/>
</a>
</g>
</g>
<!-- Node3&#45;&gt;Node6 -->
<g id="edge5_Node000003_Node000006" class="edge">
<title>Node3&#45;&gt;Node6</title>
<g id="a_edge5_Node000003_Node000006"><a xlink:title=" ">
<path fill="none" stroke="#63b8ff" d="M496.77,-119.97C551.22,-112.17 702.56,-90.48 791.28,-77.76"/>
<polygon fill="#63b8ff" stroke="#63b8ff" points="791.68,-81.24 801.08,-76.35 790.68,-74.31 791.68,-81.24"/>
</a>
</g>
</g>
<!-- Node7 -->
<g id="Node000007" class="node">
<title>Node7</title>
<g id="a_Node000007"><a xlink:title=" ">
<polygon fill="#e0e0e0" stroke="#999999" points="746.88,-77.5 646.12,-77.5 646.12,-56.75 746.88,-56.75 746.88,-77.5"/>
<text xml:space="preserve" text-anchor="middle" x="696.5" y="-64" font-family="Helvetica,sans-Serif" font-size="10.00">ncursesw/panel.h</text>
</a>
</g>
</g>
<!-- Node3&#45;&gt;Node7 -->
<g id="edge6_Node000003_Node000007" class="edge">
<title>Node3&#45;&gt;Node7</title>
<g id="a_edge6_Node000003_Node000007"><a xlink:title=" ">
<path fill="none" stroke="#63b8ff" d="M496.8,-117.82C530.48,-109.44 598.87,-92.42 646.17,-80.65"/>
<polygon fill="#63b8ff" stroke="#63b8ff" points="646.78,-84.11 655.64,-78.29 645.09,-77.31 646.78,-84.11"/>
</a>
</g>
</g>
<!-- Node8 -->
<g id="Node000008" class="node">
<title>Node8</title>
<g id="a_Node000008"><a xlink:title=" ">
<polygon fill="#e0e0e0" stroke="#999999" points="558.62,-77.5 504.38,-77.5 504.38,-56.75 558.62,-56.75 558.62,-77.5"/>
<text xml:space="preserve" text-anchor="middle" x="531.5" y="-64" font-family="Helvetica,sans-Serif" font-size="10.00">signal.h</text>
</a>
</g>
</g>
<!-- Node3&#45;&gt;Node8 -->
<g id="edge7_Node000003_Node000008" class="edge">
<title>Node3&#45;&gt;Node8</title>
<g id="a_edge7_Node000003_Node000008"><a xlink:title=" ">
<path fill="none" stroke="#63b8ff" d="M486.33,-113.09C493.92,-105.53 504.62,-94.89 513.7,-85.85"/>
<polygon fill="#63b8ff" stroke="#63b8ff" points="516.06,-88.43 520.68,-78.9 511.12,-83.47 516.06,-88.43"/>
</a>
</g>
</g>
<!-- Node3&#45;&gt;Node9 -->
<g id="edge8_Node000003_Node000009" class="edge">
<title>Node3&#45;&gt;Node9</title>
<g id="a_edge8_Node000003_Node000009"><a xlink:title=" ">
<path fill="none" stroke="#63b8ff" d="M476.6,-113.45C477.26,-99.3 480.56,-72.55 495.5,-56.75 519.17,-31.71 557.4,-20.48 586.29,-15.45"/>
<polygon fill="#63b8ff" stroke="#63b8ff" points="586.79,-18.92 596.14,-13.94 585.72,-12 586.79,-18.92"/>
</a>
</g>
</g>
<!-- Node10 -->
<g id="Node000010" class="node">
<title>Node10</title>
<g id="a_Node000010"><a xlink:title=" ">
<polygon fill="#e0e0e0" stroke="#999999" points="628.5,-77.5 576.5,-77.5 576.5,-56.75 628.5,-56.75 628.5,-77.5"/>
<text xml:space="preserve" text-anchor="middle" x="602.5" y="-64" font-family="Helvetica,sans-Serif" font-size="10.00">stdlib.h</text>
</a>
</g>
</g>
<!-- Node3&#45;&gt;Node10 -->
<g id="edge9_Node000003_Node000010" class="edge">
<title>Node3&#45;&gt;Node10</title>
<g id="a_edge9_Node000003_Node000010"><a xlink:title=" ">
<path fill="none" stroke="#63b8ff" d="M496.74,-114.08C516.44,-105.52 546.7,-92.37 569.81,-82.33"/>
<polygon fill="#63b8ff" stroke="#63b8ff" points="571.02,-85.62 578.79,-78.43 568.23,-79.2 571.02,-85.62"/>
</a>
</g>
</g>
<!-- Node11 -->
<g id="Node000011" class="node">
<title>Node11</title>
<g id="a_Node000011"><a xlink:title=" ">
<polygon fill="#e0e0e0" stroke="#999999" points="316.25,-77.5 268.75,-77.5 268.75,-56.75 316.25,-56.75 316.25,-77.5"/>
<text xml:space="preserve" text-anchor="middle" x="292.5" y="-64" font-family="Helvetica,sans-Serif" font-size="10.00">time.h</text>
</a>
</g>
</g>
<!-- Node3&#45;&gt;Node11 -->
<g id="edge10_Node000003_Node000011" class="edge">
<title>Node3&#45;&gt;Node11</title>
<g id="a_edge10_Node000003_Node000011"><a xlink:title=" ">
<path fill="none" stroke="#63b8ff" d="M456.11,-116.81C424.94,-107.53 365.07,-89.72 327.04,-78.4"/>
<polygon fill="#63b8ff" stroke="#63b8ff" points="328.5,-75.19 317.92,-75.69 326.51,-81.9 328.5,-75.19"/>
</a>
</g>
</g>
<!-- Node12 -->
<g id="Node000012" class="node">
<title>Node12</title>
<g id="a_Node000012"><a xlink:href="../../d6/dc0/a00734.html" target="_top" xlink:title="Backend API for terminal UI library.">
<polygon fill="white" stroke="#666666" points="107.38,-77.5 27.62,-77.5 27.62,-56.75 107.38,-56.75 107.38,-77.5"/>
<text xml:space="preserve" text-anchor="middle" x="67.5" y="-64" font-family="Helvetica,sans-Serif" font-size="10.00">ui_backend.h</text>
</a>
</g>
</g>
<!-- Node3&#45;&gt;Node12 -->
<g id="edge11_Node000003_Node000012" class="edge">
<title>Node3&#45;&gt;Node12</title>
<g id="a_edge11_Node000003_Node000012"><a xlink:title=" ">
<path fill="none" stroke="#63b8ff" d="M456.14,-120.77C402.68,-115.14 253.74,-98.84 119.16,-77.84"/>
<polygon fill="#63b8ff" stroke="#63b8ff" points="119.76,-74.39 109.34,-76.29 118.67,-81.3 119.76,-74.39"/>
</a>
</g>
</g>
<!-- Node15 -->
<g id="Node000015" class="node">
<title>Node15</title>
<g id="a_Node000015"><a xlink:title=" ">
<polygon fill="#e0e0e0" stroke="#999999" points="380.5,-77.5 334.5,-77.5 334.5,-56.75 380.5,-56.75 380.5,-77.5"/>
<text xml:space="preserve" text-anchor="middle" x="357.5" y="-64" font-family="Helvetica,sans-Serif" font-size="10.00">wait.h</text>
</a>
</g>
</g>
<!-- Node3&#45;&gt;Node15 -->
<g id="edge15_Node000003_Node000015" class="edge">
<title>Node3&#45;&gt;Node15</title>
<g id="a_edge15_Node000003_Node000015"><a xlink:title=" ">
<path fill="none" stroke="#63b8ff" d="M456.04,-113.46C437.71,-105.03 410.52,-92.52 389.34,-82.77"/>
<polygon fill="#63b8ff" stroke="#63b8ff" points="390.82,-79.6 380.27,-78.6 387.89,-85.96 390.82,-79.6"/>
</a>
</g>
</g>
<!-- Node16 -->
<g id="Node000016" class="node">
<title>Node16</title>
<g id="a_Node000016"><a xlink:title=" ">
<polygon fill="#e0e0e0" stroke="#999999" points="448,-77.5 399,-77.5 399,-56.75 448,-56.75 448,-77.5"/>
<text xml:space="preserve" text-anchor="middle" x="423.5" y="-64" font-family="Helvetica,sans-Serif" font-size="10.00">stdio.h</text>
</a>
</g>
</g>
<!-- Node3&#45;&gt;Node16 -->
<g id="edge16_Node000003_Node000016" class="edge">
<title>Node3&#45;&gt;Node16</title>
<g id="a_edge16_Node000003_Node000016"><a xlink:title=" ">
<path fill="none" stroke="#63b8ff" d="M467.02,-113.09C459.71,-105.53 449.41,-94.89 440.66,-85.85"/>
<polygon fill="#63b8ff" stroke="#63b8ff" points="443.42,-83.67 433.95,-78.92 438.39,-88.54 443.42,-83.67"/>
</a>
</g>
</g>
<!-- Node12&#45;&gt;Node9 -->
<g id="edge13_Node000012_Node000009" class="edge">
<title>Node12&#45;&gt;Node9</title>
<g id="a_edge13_Node000012_Node000009"><a xlink:title=" ">
<path fill="none" stroke="#63b8ff" d="M107.82,-58.08C110.75,-57.6 113.67,-57.15 116.5,-56.75 290.84,-32.36 500.7,-18.52 586.29,-13.53"/>
<polygon fill="#63b8ff" stroke="#63b8ff" points="586.23,-17.04 596.01,-12.97 585.83,-10.05 586.23,-17.04"/>
</a>
</g>
</g>
<!-- Node13 -->
<g id="Node000013" class="node">
<title>Node13</title>
<g id="a_Node000013"><a xlink:title=" ">
<polygon fill="#e0e0e0" stroke="#999999" points="61,-20.75 0,-20.75 0,0 61,0 61,-20.75"/>
<text xml:space="preserve" text-anchor="middle" x="30.5" y="-7.25" font-family="Helvetica,sans-Serif" font-size="10.00">stdbool.h</text>
</a>
</g>
</g>
<!-- Node12&#45;&gt;Node13 -->
<g id="edge12_Node000012_Node000013" class="edge">
<title>Node12&#45;&gt;Node13</title>
<g id="a_edge12_Node000012_Node000013"><a xlink:title=" ">
<path fill="none" stroke="#63b8ff" d="M60.89,-56.34C56.04,-49.17 49.32,-39.23 43.43,-30.51"/>
<polygon fill="#63b8ff" stroke="#63b8ff" points="46.4,-28.66 37.91,-22.33 40.6,-32.58 46.4,-28.66"/>
</a>
</g>
</g>
<!-- Node14 -->
<g id="Node000014" class="node">
<title>Node14</title>
<g id="a_Node000014"><a xlink:title=" ">
<polygon fill="#e0e0e0" stroke="#999999" points="131.88,-20.75 79.12,-20.75 79.12,0 131.88,0 131.88,-20.75"/>
<text xml:space="preserve" text-anchor="middle" x="105.5" y="-7.25" font-family="Helvetica,sans-Serif" font-size="10.00">stdint.h</text>
</a>
</g>
</g>
<!-- Node12&#45;&gt;Node14 -->
<g id="edge14_Node000012_Node000014" class="edge">
<title>Node12&#45;&gt;Node14</title>
<g id="a_edge14_Node000012_Node000014"><a xlink:title=" ">
<path fill="none" stroke="#63b8ff" d="M74.29,-56.34C79.27,-49.17 86.17,-39.23 92.22,-30.51"/>
<polygon fill="#63b8ff" stroke="#63b8ff" points="95.08,-32.53 97.9,-22.32 89.32,-28.54 95.08,-32.53"/>
</a>
</g>
</g>
<!-- Node17&#45;&gt;Node3 -->
<g id="edge18_Node000017_Node000003" class="edge">
<title>Node17&#45;&gt;Node3</title>
<g id="a_edge18_Node000017_Node000003"><a xlink:title=" ">
<path fill="none" stroke="#63b8ff" d="M503.6,-169.84C499.33,-162.75 493.42,-152.94 488.2,-144.29"/>
<polygon fill="#63b8ff" stroke="#63b8ff" points="491.29,-142.63 483.13,-135.87 485.29,-146.25 491.29,-142.63"/>
</a>
</g>
</g>
<!-- Node18&#45;&gt;Node3 -->
<g id="edge20_Node000018_Node000003" class="edge">
<title>Node18&#45;&gt;Node3</title>
<g id="a_edge20_Node000018_Node000003"><a xlink:title=" ">
<path fill="none" stroke="#63b8ff" d="M560.26,-169.84C544.82,-161.55 522.41,-149.52 504.66,-139.99"/>
<polygon fill="#63b8ff" stroke="#63b8ff" points="506.38,-136.94 495.91,-135.29 503.07,-143.11 506.38,-136.94"/>
</a>
</g>
</g>
<!-- Node19&#45;&gt;Node3 -->
<g id="edge22_Node000019_Node000003" class="edge">
<title>Node19&#45;&gt;Node3</title>
<g id="a_edge22_Node000019_Node000003"><a xlink:title=" ">
<path fill="none" stroke="#63b8ff" d="M622.71,-172.24C593.05,-162.63 541.09,-145.8 507.77,-135"/>
<polygon fill="#63b8ff" stroke="#63b8ff" points="508.85,-131.68 498.26,-131.93 506.7,-138.34 508.85,-131.68"/>
</a>
</g>
</g>
<!-- Node20&#45;&gt;Node6 -->
<g id="edge24_Node000020_Node000006" class="edge">
<title>Node20&#45;&gt;Node6</title>
<g id="a_edge24_Node000020_Node000006"><a xlink:title=" ">
<path fill="none" stroke="#63b8ff" d="M720.4,-114.8C746.19,-106.08 787.69,-92.05 818.48,-81.65"/>
<polygon fill="#63b8ff" stroke="#63b8ff" points="819.5,-85 827.85,-78.48 817.26,-78.37 819.5,-85"/>
</a>
</g>
</g>
<!-- Node20&#45;&gt;Node7 -->
<g id="edge25_Node000020_Node000007" class="edge">
<title>Node20&#45;&gt;Node7</title>
<g id="a_edge25_Node000020_Node000007"><a xlink:title=" ">
<path fill="none" stroke="#63b8ff" d="M696.5,-113.09C696.5,-106.47 696.5,-97.47 696.5,-89.27"/>
<polygon fill="#63b8ff" stroke="#63b8ff" points="700,-89.34 696.5,-79.34 693,-89.34 700,-89.34"/>
</a>
</g>
</g>
<!-- Node20&#45;&gt;Node8 -->
<g id="edge26_Node000020_Node000008" class="edge">
<title>Node20&#45;&gt;Node8</title>
<g id="a_edge26_Node000020_Node000008"><a xlink:title=" ">
<path fill="none" stroke="#63b8ff" d="M672.51,-114.91C645.56,-105.97 601.47,-91.34 569.75,-80.82"/>
<polygon fill="#63b8ff" stroke="#63b8ff" points="571.13,-77.59 560.54,-77.76 568.93,-84.23 571.13,-77.59"/>
</a>
</g>
</g>
<!-- Node20&#45;&gt;Node9 -->
<g id="edge27_Node000020_Node000009" class="edge">
<title>Node20&#45;&gt;Node9</title>
<g id="a_edge27_Node000020_Node000009"><a xlink:title=" ">
<path fill="none" stroke="#63b8ff" d="M716.34,-113.16C738.92,-100.76 770.82,-78.33 755.5,-56.75 735,-27.89 694.72,-17.23 664.4,-13.38"/>
<polygon fill="#63b8ff" stroke="#63b8ff" points="665.15,-9.94 654.84,-12.37 664.41,-16.9 665.15,-9.94"/>
</a>
</g>
</g>
<!-- Node20&#45;&gt;Node10 -->
<g id="edge28_Node000020_Node000010" class="edge">
<title>Node20&#45;&gt;Node10</title>
<g id="a_edge28_Node000020_Node000010"><a xlink:title=" ">
<path fill="none" stroke="#63b8ff" d="M679.69,-113.09C665.53,-104.83 645.01,-92.88 628.69,-83.38"/>
<polygon fill="#63b8ff" stroke="#63b8ff" points="630.87,-80.6 620.47,-78.59 627.35,-86.65 630.87,-80.6"/>
</a>
</g>
</g>
</g>
</svg>
