<?xml version="1.0" encoding="UTF-8" standalone="no"?>
<!DOCTYPE svg PUBLIC "-//W3C//DTD SVG 1.1//EN"
 "http://www.w3.org/Graphics/SVG/1.1/DTD/svg11.dtd">
<!-- Generated by graphviz version 14.1.2 (0)
 -->
<!-- Title: Pick Pages: 1 -->
<svg width="81pt" height="180pt"
 viewBox="0.00 0.00 81.00 180.00" xmlns="http://www.w3.org/2000/svg" xmlns:xlink="http://www.w3.org/1999/xlink">
<g id="graph0" class="graph" transform="scale(1 1) rotate(0) translate(4 175.75)">
<title>Pick</title>
<!-- Node1 -->
<g id="Node000001" class="node">
<title>Node1</title>
<g id="a_Node000001"><a xlink:title="Pick data structure.">
<polygon fill="#999999" stroke="#666666" points="52.38,-20.75 16.12,-20.75 16.12,0 52.38,0 52.38,-20.75"/>
<text xml:space="preserve" text-anchor="middle" x="34.25" y="-7.25" font-family="Helvetica,sans-Serif" font-size="10.00">Pick</text>
</a>
</g>
</g>
<!-- Node2 -->
<g id="Node000002" class="node">
<title>Node2</title>
<g id="a_Node000002"><a xlink:href="../../d4/dce/a00337.html" target="_top" xlink:title=" ">
<polygon fill="white" stroke="#666666" points="59.5,-96.25 9,-96.25 9,-75.5 59.5,-75.5 59.5,-96.25"/>
<text xml:space="preserve" text-anchor="middle" x="34.25" y="-82.75" font-family="Helvetica,sans-Serif" font-size="10.00">Chyron</text>
</a>
</g>
</g>
<!-- Node2&#45;&gt;Node1 -->
<g id="edge1_Node000001_Node000002" class="edge">
<title>Node2&#45;&gt;Node1</title>
<g id="a_edge1_Node000001_Node000002"><a xlink:title=" ">
<path fill="none" stroke="#9a32cd" stroke-dasharray="5,2" d="M34.25,-63.76C34.25,-49.76 34.25,-32.05 34.25,-21.22"/>
<polygon fill="#9a32cd" stroke="#9a32cd" points="30.75,-63.75 34.25,-73.75 37.75,-63.75 30.75,-63.75"/>
</a>
</g>
<text xml:space="preserve" text-anchor="start" x="37.25" y="-45" font-family="Helvetica,sans-Serif" font-size="10.00" fill="grey">chyron</text>
</g>
<!-- Node3 -->
<g id="Node000003" class="node">
<title>Node3</title>
<g id="a_Node000003"><a xlink:href="../../d2/d0a/a00333.html" target="_top" xlink:title=" ">
<polygon fill="white" stroke="#666666" points="68.5,-171.75 0,-171.75 0,-151 68.5,-151 68.5,-171.75"/>
<text xml:space="preserve" text-anchor="middle" x="34.25" y="-158.25" font-family="Helvetica,sans-Serif" font-size="10.00">ChyronKey</text>
</a>
</g>
</g>
<!-- Node3&#45;&gt;Node2 -->
<g id="edge2_Node000002_Node000003" class="edge">
<title>Node3&#45;&gt;Node2</title>
<g id="a_edge2_Node000002_Node000003"><a xlink:title=" ">
<path fill="none" stroke="#9a32cd" stroke-dasharray="5,2" d="M34.25,-139.26C34.25,-125.26 34.25,-107.55 34.25,-96.72"/>
<polygon fill="#9a32cd" stroke="#9a32cd" points="30.75,-139.25 34.25,-149.25 37.75,-139.25 30.75,-139.25"/>
</a>
</g>
<text xml:space="preserve" text-anchor="start" x="37.25" y="-120.5" font-family="Helvetica,sans-Serif" font-size="10.00" fill="grey">key</text>
</g>
</g>
</svg>
