<?xml version="1.0" encoding="UTF-8" standalone="no"?>
<!DOCTYPE svg PUBLIC "-//W3C//DTD SVG 1.1//EN"
 "http://www.w3.org/Graphics/SVG/1.1/DTD/svg11.dtd">
<!-- Generated by graphviz version 14.1.2 (0)
 -->
<!-- Title: parse_menu_description Pages: 1 -->
<svg width="820pt" height="681pt"
 viewBox="0.00 0.00 820.00 681.00" xmlns="http://www.w3.org/2000/svg" xmlns:xlink="http://www.w3.org/1999/xlink">
<g id="graph0" class="graph" transform="scale(1 1) rotate(0) translate(4 676.66)">
<title>parse_menu_description</title>
<!-- Node1 -->
<g id="Node000001" class="node">
<title>Node1</title>
<g id="a_Node000001"><a xlink:title="Parse menu description file and create Menu.">
<polygon fill="#999999" stroke="#666666" points="135.25,-212.75 0,-212.75 0,-192 135.25,-192 135.25,-212.75"/>
<text xml:space="preserve" text-anchor="middle" x="67.62" y="-199.25" font-family="Helvetica,sans-Serif" font-size="10.00">parse_menu_description</text>
</a>
</g>
</g>
<!-- Node2 -->
<g id="Node000002" class="node">
<title>Node2</title>
<g id="a_Node000002"><a xlink:href="../../d6/d82/a00293.html#a8f6c45ca4a7f6a41c4c88314e697565a" target="_top" xlink:title="Abnormal program termination.">
<polygon fill="white" stroke="#666666" points="518.5,-250.75 472.5,-250.75 472.5,-230 518.5,-230 518.5,-250.75"/>
<text xml:space="preserve" text-anchor="middle" x="495.5" y="-237.25" font-family="Helvetica,sans-Serif" font-size="10.00">abend</text>
</a>
</g>
</g>
<!-- Node1&#45;&gt;Node2 -->
<g id="edge1_Node000001_Node000002" class="edge">
<title>Node1&#45;&gt;Node2</title>
<g id="a_edge1_Node000001_Node000002"><a xlink:title=" ">
<path fill="none" stroke="#63b8ff" d="M135.64,-208.35C227.97,-216.59 390.85,-231.13 460.91,-237.38"/>
<polygon fill="#63b8ff" stroke="#63b8ff" points="460.33,-240.84 470.6,-238.24 460.95,-233.87 460.33,-240.84"/>
</a>
</g>
</g>
<!-- Node6 -->
<g id="Node000006" class="node">
<title>Node6</title>
<g id="a_Node000006"><a xlink:href="../../d6/d7f/a00287.html#ae2be7c771d0ee7a8c81ebf10331bd449" target="_top" xlink:title="Replaces all occurrences of old_chr in s with new_chr in place.">
<polygon fill="white" stroke="#666666" points="249.12,-98.75 206.12,-98.75 206.12,-78 249.12,-78 249.12,-98.75"/>
<text xml:space="preserve" text-anchor="middle" x="227.62" y="-85.25" font-family="Helvetica,sans-Serif" font-size="10.00">chrep</text>
</a>
</g>
</g>
<!-- Node1&#45;&gt;Node6 -->
<g id="edge7_Node000001_Node000006" class="edge">
<title>Node1&#45;&gt;Node6</title>
<g id="a_edge7_Node000001_Node000006"><a xlink:title=" ">
<path fill="none" stroke="#63b8ff" d="M78.53,-191.74C95.91,-173.57 133.61,-136.21 171.25,-112.38 178.68,-107.67 187.18,-103.48 195.26,-99.96"/>
<polygon fill="#63b8ff" stroke="#63b8ff" points="196.55,-103.21 204.47,-96.17 193.89,-96.74 196.55,-103.21"/>
</a>
</g>
</g>
<!-- Node7 -->
<g id="Node000007" class="node">
<title>Node7</title>
<g id="a_Node000007"><a xlink:href="../../d6/d82/a00293.html#a67659f8a701b74f4dec0d36227a10d1c" target="_top" xlink:title="Display an error message window or print to stderr.">
<polygon fill="white" stroke="#666666" points="267.5,-307.75 187.75,-307.75 187.75,-287 267.5,-287 267.5,-307.75"/>
<text xml:space="preserve" text-anchor="middle" x="227.62" y="-294.25" font-family="Helvetica,sans-Serif" font-size="10.00">display_error</text>
</a>
</g>
</g>
<!-- Node1&#45;&gt;Node7 -->
<g id="edge8_Node000001_Node000007" class="edge">
<title>Node1&#45;&gt;Node7</title>
<g id="a_edge8_Node000001_Node000007"><a xlink:title=" ">
<path fill="none" stroke="#63b8ff" d="M86.44,-213.09C113.82,-229.55 166.47,-261.21 198.88,-280.69"/>
<polygon fill="#63b8ff" stroke="#63b8ff" points="196.96,-283.62 207.33,-285.78 200.57,-277.62 196.96,-283.62"/>
</a>
</g>
</g>
<!-- Node9 -->
<g id="Node000009" class="node">
<title>Node9</title>
<g id="a_Node000009"><a xlink:href="../../d6/d7f/a00287.html#aa0145c044cfdde3a1c83323410a59f25" target="_top" xlink:title="safer alternative to strncat">
<polygon fill="white" stroke="#666666" points="528.25,-671.75 462.75,-671.75 462.75,-651 528.25,-651 528.25,-671.75"/>
<text xml:space="preserve" text-anchor="middle" x="495.5" y="-658.25" font-family="Helvetica,sans-Serif" font-size="10.00">strnz__cat</text>
</a>
</g>
</g>
<!-- Node1&#45;&gt;Node9 -->
<g id="edge39_Node000001_Node000009" class="edge">
<title>Node1&#45;&gt;Node9</title>
<g id="a_edge39_Node000001_Node000009"><a xlink:title=" ">
<path fill="none" stroke="#63b8ff" d="M68.89,-213.24C70.54,-260.59 82.68,-451.92 171.25,-570.38 217.94,-632.82 245.05,-641.87 320,-663.38 363.49,-675.85 415.62,-673.09 451.51,-668.62"/>
<polygon fill="#63b8ff" stroke="#63b8ff" points="451.62,-672.14 461.07,-667.33 450.69,-665.21 451.62,-672.14"/>
</a>
</g>
</g>
<!-- Node13 -->
<g id="Node000013" class="node">
<title>Node13</title>
<g id="a_Node000013"><a xlink:href="../../d6/d7f/a00287.html#a63eb94756fb011a456a3dec900709cd8" target="_top" xlink:title="ssnprintf was designed to be a safer alternative to snprintf.">
<polygon fill="white" stroke="#666666" points="524.88,-498.75 466.12,-498.75 466.12,-478 524.88,-478 524.88,-498.75"/>
<text xml:space="preserve" text-anchor="middle" x="495.5" y="-485.25" font-family="Helvetica,sans-Serif" font-size="10.00">ssnprintf</text>
</a>
</g>
</g>
<!-- Node1&#45;&gt;Node13 -->
<g id="edge38_Node000001_Node000013" class="edge">
<title>Node1&#45;&gt;Node13</title>
<g id="a_edge38_Node000001_Node000013"><a xlink:title=" ">
<path fill="none" stroke="#63b8ff" d="M70.38,-213.07C80.67,-271.63 138.99,-553.92 320,-642.38 357.24,-660.57 377.76,-663.78 413.25,-642.38 461.41,-613.33 482.49,-545.15 490.41,-510.07"/>
<polygon fill="#63b8ff" stroke="#63b8ff" points="493.76,-511.15 492.37,-500.64 486.9,-509.72 493.76,-511.15"/>
</a>
</g>
</g>
<!-- Node14 -->
<g id="Node000014" class="node">
<title>Node14</title>
<g id="a_Node000014"><a xlink:href="../../d6/d7f/a00287.html#a0de2e40df9bd7efc8fd9afb8ad2257e6" target="_top" xlink:title="safer alternative to strncpy">
<polygon fill="white" stroke="#666666" points="529.38,-136.75 461.62,-136.75 461.62,-116 529.38,-116 529.38,-136.75"/>
<text xml:space="preserve" text-anchor="middle" x="495.5" y="-123.25" font-family="Helvetica,sans-Serif" font-size="10.00">strnz__cpy</text>
</a>
</g>
</g>
<!-- Node1&#45;&gt;Node14 -->
<g id="edge40_Node000001_Node000014" class="edge">
<title>Node1&#45;&gt;Node14</title>
<g id="a_edge40_Node000001_Node000014"><a xlink:title=" ">
<path fill="none" stroke="#63b8ff" d="M91.86,-191.51C135.43,-171.8 232.87,-130.87 320,-116.38 360.88,-109.58 371.88,-113.84 413.25,-116.38 425.29,-117.11 438.28,-118.46 450.26,-119.93"/>
<polygon fill="#63b8ff" stroke="#63b8ff" points="449.51,-123.37 459.88,-121.17 450.41,-116.42 449.51,-123.37"/>
</a>
</g>
</g>
<!-- Node20 -->
<g id="Node000020" class="node">
<title>Node20</title>
<g id="a_Node000020"><a xlink:href="../../d7/d03/a00254.html#a1989771e09ef0e00c4cec786094d1d26" target="_top" xlink:title="Get command type from command string.">
<polygon fill="white" stroke="#666666" points="284,-59.75 171.25,-59.75 171.25,-39 284,-39 284,-59.75"/>
<text xml:space="preserve" text-anchor="middle" x="227.62" y="-46.25" font-family="Helvetica,sans-Serif" font-size="10.00">get_command_type</text>
</a>
</g>
</g>
<!-- Node1&#45;&gt;Node20 -->
<g id="edge26_Node000001_Node000020" class="edge">
<title>Node1&#45;&gt;Node20</title>
<g id="a_edge26_Node000001_Node000020"><a xlink:title=" ">
<path fill="none" stroke="#63b8ff" d="M74.04,-191.75C87.27,-166.83 123.65,-104.09 171.25,-69.38 173.26,-67.91 175.39,-66.54 177.6,-65.26"/>
<polygon fill="#63b8ff" stroke="#63b8ff" points="178.93,-68.51 186.31,-60.92 175.8,-62.25 178.93,-68.51"/>
</a>
</g>
</g>
<!-- Node21 -->
<g id="Node000021" class="node">
<title>Node21</title>
<g id="a_Node000021"><a xlink:href="../../d6/d82/a00293.html#a61b4f28456257f68ed042bed7f187efd" target="_top" xlink:title="Display a simple error message window or print to stderr.">
<polygon fill="white" stroke="#666666" points="250.25,-442.75 205,-442.75 205,-422 250.25,-422 250.25,-442.75"/>
<text xml:space="preserve" text-anchor="middle" x="227.62" y="-429.25" font-family="Helvetica,sans-Serif" font-size="10.00">Perror</text>
</a>
</g>
</g>
<!-- Node1&#45;&gt;Node21 -->
<g id="edge27_Node000001_Node000021" class="edge">
<title>Node1&#45;&gt;Node21</title>
<g id="a_edge27_Node000001_Node000021"><a xlink:title=" ">
<path fill="none" stroke="#63b8ff" d="M76.03,-213.16C100.71,-249.08 180.36,-365.02 212.74,-412.16"/>
<polygon fill="#63b8ff" stroke="#63b8ff" points="209.83,-414.11 218.38,-420.37 215.6,-410.14 209.83,-414.11"/>
</a>
</g>
</g>
<!-- Node22 -->
<g id="Node000022" class="node">
<title>Node22</title>
<g id="a_Node000022"><a xlink:href="../../d6/d7f/a00287.html#a34703756fd5be0fde758400f320db047" target="_top" xlink:title="Trims leading and trailing spaces from string s in place.">
<polygon fill="white" stroke="#666666" points="245.75,-20.75 209.5,-20.75 209.5,0 245.75,0 245.75,-20.75"/>
<text xml:space="preserve" text-anchor="middle" x="227.62" y="-7.25" font-family="Helvetica,sans-Serif" font-size="10.00">trim</text>
</a>
</g>
</g>
<!-- Node1&#45;&gt;Node22 -->
<g id="edge41_Node000001_Node000022" class="edge">
<title>Node1&#45;&gt;Node22</title>
<g id="a_edge41_Node000001_Node000022"><a xlink:title=" ">
<path fill="none" stroke="#63b8ff" d="M72.06,-191.79C82.26,-162 115.19,-76.62 171.25,-30.38 178.99,-23.99 188.93,-19.57 198.24,-16.53"/>
<polygon fill="#63b8ff" stroke="#63b8ff" points="198.97,-19.96 207.65,-13.89 197.08,-13.22 198.97,-19.96"/>
</a>
</g>
</g>
<!-- Node3 -->
<g id="Node000003" class="node">
<title>Node3</title>
<g id="a_Node000003"><a xlink:href="../../d6/d82/a00293.html#afc0985a403e3eac0b2cd8f0fab500256" target="_top" xlink:title="Gracefully shut down NCurses and restore terminal settings.">
<polygon fill="white" stroke="#666666" points="667.25,-250.75 577.75,-250.75 577.75,-230 667.25,-230 667.25,-250.75"/>
<text xml:space="preserve" text-anchor="middle" x="622.5" y="-237.25" font-family="Helvetica,sans-Serif" font-size="10.00">destroy_curses</text>
</a>
</g>
</g>
<!-- Node2&#45;&gt;Node3 -->
<g id="edge2_Node000002_Node000003" class="edge">
<title>Node2&#45;&gt;Node3</title>
<g id="a_edge2_Node000002_Node000003"><a xlink:title=" ">
<path fill="none" stroke="#63b8ff" d="M518.85,-240.38C532.03,-240.38 549.34,-240.38 565.98,-240.38"/>
<polygon fill="#63b8ff" stroke="#63b8ff" points="565.82,-243.88 575.82,-240.38 565.82,-236.88 565.82,-243.88"/>
</a>
</g>
</g>
<!-- Node4 -->
<g id="Node000004" class="node">
<title>Node4</title>
<g id="a_Node000004"><a xlink:href="../../df/d95/a00299.html#ac5e3adb304b78910fc77761ef6a743f0" target="_top" xlink:title="restore_shell_tioctl() &#45; restore shell terminal settings">
<polygon fill="white" stroke="#666666" points="812.25,-278.75 703.25,-278.75 703.25,-258 812.25,-258 812.25,-278.75"/>
<text xml:space="preserve" text-anchor="middle" x="757.75" y="-265.25" font-family="Helvetica,sans-Serif" font-size="10.00">restore_shell_tioctl</text>
</a>
</g>
</g>
<!-- Node2&#45;&gt;Node4 -->
<g id="edge5_Node000002_Node000004" class="edge">
<title>Node2&#45;&gt;Node4</title>
<g id="a_edge5_Node000002_Node000004"><a xlink:title=" ">
<path fill="none" stroke="#63b8ff" d="M518.71,-246.71C534.93,-251.05 557.52,-256.53 577.75,-259.38 615.26,-264.66 657.57,-266.95 691.64,-267.91"/>
<polygon fill="#63b8ff" stroke="#63b8ff" points="691.26,-271.4 701.34,-268.14 691.43,-264.4 691.26,-271.4"/>
</a>
</g>
</g>
<!-- Node5 -->
<g id="Node000005" class="node">
<title>Node5</title>
<g id="a_Node000005"><a xlink:href="../../d3/d1a/a00251.html#a06c1eb6cf3649dc187115565409f91af" target="_top" xlink:title="Set signal handlers to default behavior.">
<polygon fill="white" stroke="#666666" points="798.38,-230.75 717.12,-230.75 717.12,-210 798.38,-210 798.38,-230.75"/>
<text xml:space="preserve" text-anchor="middle" x="757.75" y="-217.25" font-family="Helvetica,sans-Serif" font-size="10.00">sig_dfl_mode</text>
</a>
</g>
</g>
<!-- Node2&#45;&gt;Node5 -->
<g id="edge6_Node000002_Node000005" class="edge">
<title>Node2&#45;&gt;Node5</title>
<g id="a_edge6_Node000002_Node000005"><a xlink:title=" ">
<path fill="none" stroke="#63b8ff" d="M518.68,-233.77C534.88,-229.29 557.47,-223.77 577.75,-221.38 620.64,-216.31 669.71,-216.45 705.61,-217.63"/>
<polygon fill="#63b8ff" stroke="#63b8ff" points="705.14,-221.12 715.27,-217.99 705.4,-214.12 705.14,-221.12"/>
</a>
</g>
</g>
<!-- Node3&#45;&gt;Node4 -->
<g id="edge3_Node000003_Node000004" class="edge">
<title>Node3&#45;&gt;Node4</title>
<g id="a_edge3_Node000003_Node000004"><a xlink:title=" ">
<path fill="none" stroke="#63b8ff" d="M667.5,-249.62C676.12,-251.43 685.32,-253.37 694.41,-255.28"/>
<polygon fill="#63b8ff" stroke="#63b8ff" points="693.41,-258.64 703.92,-257.27 694.85,-251.79 693.41,-258.64"/>
</a>
</g>
</g>
<!-- Node3&#45;&gt;Node5 -->
<g id="edge4_Node000003_Node000005" class="edge">
<title>Node3&#45;&gt;Node5</title>
<g id="a_edge4_Node000003_Node000005"><a xlink:title=" ">
<path fill="none" stroke="#63b8ff" d="M667.5,-233.77C679.69,-231.94 693.02,-229.94 705.58,-228.06"/>
<polygon fill="#63b8ff" stroke="#63b8ff" points="705.98,-231.54 715.35,-226.59 704.94,-224.61 705.98,-231.54"/>
</a>
</g>
</g>
<!-- Node7&#45;&gt;Node2 -->
<g id="edge9_Node000007_Node000002" class="edge">
<title>Node7&#45;&gt;Node2</title>
<g id="a_edge9_Node000007_Node000002"><a xlink:title=" ">
<path fill="none" stroke="#63b8ff" d="M249.81,-286.52C267.96,-277.73 295.04,-265.78 320,-259.38 368,-247.05 425.43,-242.72 460.94,-241.2"/>
<polygon fill="#63b8ff" stroke="#63b8ff" points="460.73,-244.71 470.59,-240.84 460.46,-237.71 460.73,-244.71"/>
</a>
</g>
</g>
<!-- Node8 -->
<g id="Node000008" class="node">
<title>Node8</title>
<g id="a_Node000008"><a xlink:href="../../d6/d82/a00293.html#a645871e46277e31736bc36d0f3dce4bd" target="_top" xlink:title="construct the chyron string from the chyron structure">
<polygon fill="white" stroke="#666666" points="413.25,-633.75 320,-633.75 320,-613 413.25,-613 413.25,-633.75"/>
<text xml:space="preserve" text-anchor="middle" x="366.62" y="-620.25" font-family="Helvetica,sans-Serif" font-size="10.00">compile_chyron</text>
</a>
</g>
</g>
<!-- Node7&#45;&gt;Node8 -->
<g id="edge10_Node000007_Node000008" class="edge">
<title>Node7&#45;&gt;Node8</title>
<g id="a_edge10_Node000007_Node000008"><a xlink:title=" ">
<path fill="none" stroke="#63b8ff" d="M234.09,-308.13C244.35,-328.46 267,-374.05 284,-413.38 313.41,-481.41 344.01,-563.79 357.92,-601.99"/>
<polygon fill="#63b8ff" stroke="#63b8ff" points="354.61,-603.14 361.31,-611.35 361.19,-600.76 354.61,-603.14"/>
</a>
</g>
</g>
<!-- Node10 -->
<g id="Node000010" class="node">
<title>Node10</title>
<g id="a_Node000010"><a xlink:href="../../d6/d82/a00293.html#a3f3feb40fd703913c5c136331f627c91" target="_top" xlink:title="Destroy Chyron structure.">
<polygon fill="white" stroke="#666666" points="412.12,-481.75 321.12,-481.75 321.12,-461 412.12,-461 412.12,-481.75"/>
<text xml:space="preserve" text-anchor="middle" x="366.62" y="-468.25" font-family="Helvetica,sans-Serif" font-size="10.00">destroy_chyron</text>
</a>
</g>
</g>
<!-- Node7&#45;&gt;Node10 -->
<g id="edge12_Node000007_Node000010" class="edge">
<title>Node7&#45;&gt;Node10</title>
<g id="a_edge12_Node000007_Node000010"><a xlink:title=" ">
<path fill="none" stroke="#63b8ff" d="M232.38,-308.25C242.39,-335.8 272.26,-409.15 320,-451.38 321.43,-452.64 322.94,-453.83 324.53,-454.95"/>
<polygon fill="#63b8ff" stroke="#63b8ff" points="322.45,-457.79 332.83,-459.91 326.04,-451.78 322.45,-457.79"/>
</a>
</g>
</g>
<!-- Node11 -->
<g id="Node000011" class="node">
<title>Node11</title>
<g id="a_Node000011"><a xlink:href="../../d6/d82/a00293.html#ad37d5808ff30ae6894780425d865abae" target="_top" xlink:title="Create and initialize Chyron structure.">
<polygon fill="white" stroke="#666666" points="403.88,-364.75 329.38,-364.75 329.38,-344 403.88,-344 403.88,-364.75"/>
<text xml:space="preserve" text-anchor="middle" x="366.62" y="-351.25" font-family="Helvetica,sans-Serif" font-size="10.00">new_chyron</text>
</a>
</g>
</g>
<!-- Node7&#45;&gt;Node11 -->
<g id="edge13_Node000007_Node000011" class="edge">
<title>Node7&#45;&gt;Node11</title>
<g id="a_edge13_Node000007_Node000011"><a xlink:title=" ">
<path fill="none" stroke="#63b8ff" d="M254.72,-308.23C275.76,-316.99 305.61,-329.41 329.04,-339.15"/>
<polygon fill="#63b8ff" stroke="#63b8ff" points="327.66,-342.37 338.23,-342.98 330.35,-335.91 327.66,-342.37"/>
</a>
</g>
</g>
<!-- Node12 -->
<g id="Node000012" class="node">
<title>Node12</title>
<g id="a_Node000012"><a xlink:href="../../d6/d82/a00293.html#a208ce92c197fdd6d2b007987e534aa3b" target="_top" xlink:title="Set chyron key.">
<polygon fill="white" stroke="#666666" points="412.5,-403.75 320.75,-403.75 320.75,-383 412.5,-383 412.5,-403.75"/>
<text xml:space="preserve" text-anchor="middle" x="366.62" y="-390.25" font-family="Helvetica,sans-Serif" font-size="10.00">set_chyron_key</text>
</a>
</g>
</g>
<!-- Node7&#45;&gt;Node12 -->
<g id="edge15_Node000007_Node000012" class="edge">
<title>Node7&#45;&gt;Node12</title>
<g id="a_edge15_Node000007_Node000012"><a xlink:title=" ">
<path fill="none" stroke="#63b8ff" d="M239.38,-308.07C255.71,-323.88 288.23,-353.74 320,-373.38 322.3,-374.79 324.71,-376.16 327.18,-377.48"/>
<polygon fill="#63b8ff" stroke="#63b8ff" points="325.61,-380.6 336.13,-381.86 328.69,-374.32 325.61,-380.6"/>
</a>
</g>
</g>
<!-- Node7&#45;&gt;Node13 -->
<g id="edge17_Node000007_Node000013" class="edge">
<title>Node7&#45;&gt;Node13</title>
<g id="a_edge17_Node000007_Node000013"><a xlink:title=" ">
<path fill="none" stroke="#63b8ff" d="M267.86,-296.13C308.15,-296.82 370.82,-303.6 413.25,-335.38 457.63,-368.61 480.23,-433.33 489.4,-466.94"/>
<polygon fill="#63b8ff" stroke="#63b8ff" points="485.93,-467.52 491.81,-476.34 492.71,-465.78 485.93,-467.52"/>
</a>
</g>
</g>
<!-- Node7&#45;&gt;Node14 -->
<g id="edge18_Node000007_Node000014" class="edge">
<title>Node7&#45;&gt;Node14</title>
<g id="a_edge18_Node000007_Node000014"><a xlink:title=" ">
<path fill="none" stroke="#63b8ff" d="M231.49,-286.57C239.7,-257.9 266.31,-179.71 320,-145.38 358.85,-120.53 412.76,-118.42 450.33,-120.85"/>
<polygon fill="#63b8ff" stroke="#63b8ff" points="449.68,-124.31 459.93,-121.61 450.24,-117.33 449.68,-124.31"/>
</a>
</g>
</g>
<!-- Node15 -->
<g id="Node000015" class="node">
<title>Node15</title>
<g id="a_Node000015"><a xlink:href="../../d6/d82/a00293.html#a9dd598e1d49c8764af1eec42c682623e" target="_top" xlink:title="Delete the current window and its associated box window.">
<polygon fill="white" stroke="#666666" points="393.38,-442.75 339.88,-442.75 339.88,-422 393.38,-422 393.38,-442.75"/>
<text xml:space="preserve" text-anchor="middle" x="366.62" y="-429.25" font-family="Helvetica,sans-Serif" font-size="10.00">win_del</text>
</a>
</g>
</g>
<!-- Node7&#45;&gt;Node15 -->
<g id="edge19_Node000007_Node000015" class="edge">
<title>Node7&#45;&gt;Node15</title>
<g id="a_edge19_Node000007_Node000015"><a xlink:title=" ">
<path fill="none" stroke="#63b8ff" d="M234.61,-308C247.54,-330.15 280.2,-381.72 320,-412.38 322.95,-414.64 326.19,-416.72 329.55,-418.59"/>
<polygon fill="#63b8ff" stroke="#63b8ff" points="327.91,-421.68 338.43,-422.96 331,-415.41 327.91,-421.68"/>
</a>
</g>
</g>
<!-- Node16 -->
<g id="Node000016" class="node">
<title>Node16</title>
<g id="a_Node000016"><a xlink:href="../../d6/d82/a00293.html#a435c7bff7ffedb8f51c6de9259e36f6c" target="_top" xlink:title="Create a new window with optional box and title.">
<polygon fill="white" stroke="#666666" points="396,-174.75 337.25,-174.75 337.25,-154 396,-154 396,-174.75"/>
<text xml:space="preserve" text-anchor="middle" x="366.62" y="-161.25" font-family="Helvetica,sans-Serif" font-size="10.00">win_new</text>
</a>
</g>
</g>
<!-- Node7&#45;&gt;Node16 -->
<g id="edge20_Node000007_Node000016" class="edge">
<title>Node7&#45;&gt;Node16</title>
<g id="a_edge20_Node000007_Node000016"><a xlink:title=" ">
<path fill="none" stroke="#63b8ff" d="M239.38,-286.94C262.47,-264.52 317.09,-211.49 346.34,-183.09"/>
<polygon fill="#63b8ff" stroke="#63b8ff" points="348.72,-185.66 353.46,-176.19 343.85,-180.64 348.72,-185.66"/>
</a>
</g>
</g>
<!-- Node18 -->
<g id="Node000018" class="node">
<title>Node18</title>
<g id="a_Node000018"><a xlink:href="../../d6/d82/a00293.html#acf4c709bccc4c965a5d61db978db31a3" target="_top" xlink:title="Wrapper for wgetch that handles signals and mouse events.">
<polygon fill="white" stroke="#666666" points="395.25,-288.75 338,-288.75 338,-268 395.25,-268 395.25,-288.75"/>
<text xml:space="preserve" text-anchor="middle" x="366.62" y="-275.25" font-family="Helvetica,sans-Serif" font-size="10.00">xwgetch</text>
</a>
</g>
</g>
<!-- Node7&#45;&gt;Node18 -->
<g id="edge23_Node000007_Node000018" class="edge">
<title>Node7&#45;&gt;Node18</title>
<g id="a_edge23_Node000007_Node000018"><a xlink:title=" ">
<path fill="none" stroke="#63b8ff" d="M263.55,-286.56C282.68,-282.94 306.45,-279.58 326.24,-277.66"/>
<polygon fill="#63b8ff" stroke="#63b8ff" points="326.49,-281.15 336.15,-276.82 325.89,-274.18 326.49,-281.15"/>
</a>
</g>
</g>
<!-- Node8&#45;&gt;Node9 -->
<g id="edge11_Node000008_Node000009" class="edge">
<title>Node8&#45;&gt;Node9</title>
<g id="a_edge11_Node000008_Node000009"><a xlink:title=" ">
<path fill="none" stroke="#63b8ff" d="M403.64,-634.16C418.5,-638.61 435.84,-643.81 451.37,-648.46"/>
<polygon fill="#63b8ff" stroke="#63b8ff" points="450.26,-651.78 460.84,-651.29 452.26,-645.07 450.26,-651.78"/>
</a>
</g>
</g>
<!-- Node11&#45;&gt;Node2 -->
<g id="edge14_Node000011_Node000002" class="edge">
<title>Node11&#45;&gt;Node2</title>
<g id="a_edge14_Node000011_Node000002"><a xlink:title=" ">
<path fill="none" stroke="#63b8ff" d="M375.9,-343.71C393.02,-321.87 432.12,-273.02 449.25,-260.38 453.14,-257.51 457.5,-254.93 461.94,-252.66"/>
<polygon fill="#63b8ff" stroke="#63b8ff" points="463.26,-255.91 470.89,-248.55 460.34,-249.54 463.26,-255.91"/>
</a>
</g>
</g>
<!-- Node12&#45;&gt;Node13 -->
<g id="edge16_Node000012_Node000013" class="edge">
<title>Node12&#45;&gt;Node13</title>
<g id="a_edge16_Node000012_Node000013"><a xlink:title=" ">
<path fill="none" stroke="#63b8ff" d="M396.38,-404.24C402.15,-406.89 408.04,-409.97 413.25,-413.38 437.78,-429.42 461.96,-453.02 477.48,-469.44"/>
<polygon fill="#63b8ff" stroke="#63b8ff" points="474.76,-471.66 484.12,-476.62 479.9,-466.91 474.76,-471.66"/>
</a>
</g>
</g>
<!-- Node16&#45;&gt;Node14 -->
<g id="edge22_Node000016_Node000014" class="edge">
<title>Node16&#45;&gt;Node14</title>
<g id="a_edge22_Node000016_Node000014"><a xlink:title=" ">
<path fill="none" stroke="#63b8ff" d="M396.41,-155.75C412.4,-150.96 432.62,-144.91 450.54,-139.54"/>
<polygon fill="#63b8ff" stroke="#63b8ff" points="451.32,-142.96 459.89,-136.74 449.31,-136.26 451.32,-142.96"/>
</a>
</g>
</g>
<!-- Node17 -->
<g id="Node000017" class="node">
<title>Node17</title>
<g id="a_Node000017"><a xlink:href="../../d6/d82/a00293.html#ac9adcf7339be4a05ab1a7350c236b8a5" target="_top" xlink:title="Draw a box around the specified window.">
<polygon fill="white" stroke="#666666" points="515.12,-175.75 475.88,-175.75 475.88,-155 515.12,-155 515.12,-175.75"/>
<text xml:space="preserve" text-anchor="middle" x="495.5" y="-162.25" font-family="Helvetica,sans-Serif" font-size="10.00">cbox</text>
</a>
</g>
</g>
<!-- Node16&#45;&gt;Node17 -->
<g id="edge21_Node000016_Node000017" class="edge">
<title>Node16&#45;&gt;Node17</title>
<g id="a_edge21_Node000016_Node000017"><a xlink:title=" ">
<path fill="none" stroke="#63b8ff" d="M396.41,-164.6C416.71,-164.76 443.82,-164.98 464.4,-165.14"/>
<polygon fill="#63b8ff" stroke="#63b8ff" points="464.11,-168.64 474.14,-165.21 464.17,-161.64 464.11,-168.64"/>
</a>
</g>
</g>
<!-- Node18&#45;&gt;Node7 -->
<g id="edge24_Node000018_Node000007" class="edge">
<title>Node18&#45;&gt;Node7</title>
<g id="a_edge24_Node000018_Node000007"><a xlink:title=" ">
<path fill="none" stroke="#63b8ff" d="M337.67,-287.82C320.87,-291.27 298.97,-294.63 279.21,-296.9"/>
<polygon fill="#63b8ff" stroke="#63b8ff" points="278.96,-293.41 269.39,-297.94 279.7,-300.37 278.96,-293.41"/>
</a>
</g>
</g>
<!-- Node19 -->
<g id="Node000019" class="node">
<title>Node19</title>
<g id="a_Node000019"><a xlink:href="../../d6/d82/a00293.html#a4298f891699300bfc4e6e56fd2a8d574" target="_top" xlink:title="Get keycode from chyron.">
<polygon fill="white" stroke="#666666" points="541.75,-289.75 449.25,-289.75 449.25,-269 541.75,-269 541.75,-289.75"/>
<text xml:space="preserve" text-anchor="middle" x="495.5" y="-276.25" font-family="Helvetica,sans-Serif" font-size="10.00">get_chyron_key</text>
</a>
</g>
</g>
<!-- Node18&#45;&gt;Node19 -->
<g id="edge25_Node000018_Node000019" class="edge">
<title>Node18&#45;&gt;Node19</title>
<g id="a_edge25_Node000018_Node000019"><a xlink:title=" ">
<path fill="none" stroke="#63b8ff" d="M395.47,-278.59C407.79,-278.69 422.75,-278.81 437.28,-278.92"/>
<polygon fill="#63b8ff" stroke="#63b8ff" points="437.23,-282.42 447.26,-279 437.29,-275.42 437.23,-282.42"/>
</a>
</g>
</g>
<!-- Node21&#45;&gt;Node2 -->
<g id="edge28_Node000021_Node000002" class="edge">
<title>Node21&#45;&gt;Node2</title>
<g id="a_edge28_Node000021_Node000002"><a xlink:title=" ">
<path fill="none" stroke="#63b8ff" d="M235.25,-443.2C248.41,-463.53 280.06,-506.88 320,-523.38 358.31,-539.2 382.02,-550.62 413.25,-523.38 502.15,-445.81 378.29,-354.63 449.25,-260.38 452.56,-255.97 457.05,-252.52 461.93,-249.82"/>
<polygon fill="#63b8ff" stroke="#63b8ff" points="463.1,-253.13 470.83,-245.88 460.27,-246.73 463.1,-253.13"/>
</a>
</g>
</g>
<!-- Node21&#45;&gt;Node8 -->
<g id="edge29_Node000021_Node000008" class="edge">
<title>Node21&#45;&gt;Node8</title>
<g id="a_edge29_Node000021_Node000008"><a xlink:title=" ">
<path fill="none" stroke="#63b8ff" d="M232.03,-443.11C241.59,-471.82 271.23,-551.4 320,-599.38 322.76,-602.09 325.9,-604.58 329.2,-606.83"/>
<polygon fill="#63b8ff" stroke="#63b8ff" points="327.1,-609.65 337.47,-611.79 330.7,-603.65 327.1,-609.65"/>
</a>
</g>
</g>
<!-- Node21&#45;&gt;Node10 -->
<g id="edge30_Node000021_Node000010" class="edge">
<title>Node21&#45;&gt;Node10</title>
<g id="a_edge30_Node000021_Node000010"><a xlink:title=" ">
<path fill="none" stroke="#63b8ff" d="M250.64,-438.64C268.45,-443.71 294.2,-451.04 316.82,-457.48"/>
<polygon fill="#63b8ff" stroke="#63b8ff" points="315.59,-460.77 326.16,-460.14 317.5,-454.04 315.59,-460.77"/>
</a>
</g>
</g>
<!-- Node21&#45;&gt;Node11 -->
<g id="edge31_Node000021_Node000011" class="edge">
<title>Node21&#45;&gt;Node11</title>
<g id="a_edge31_Node000021_Node000011"><a xlink:title=" ">
<path fill="none" stroke="#63b8ff" d="M244.04,-421.57C261.86,-409.31 292.3,-389.12 320,-374.38 322.86,-372.85 325.87,-371.34 328.91,-369.88"/>
<polygon fill="#63b8ff" stroke="#63b8ff" points="330.25,-373.12 337.87,-365.76 327.32,-366.76 330.25,-373.12"/>
</a>
</g>
</g>
<!-- Node21&#45;&gt;Node12 -->
<g id="edge32_Node000021_Node000012" class="edge">
<title>Node21&#45;&gt;Node12</title>
<g id="a_edge32_Node000021_Node000012"><a xlink:title=" ">
<path fill="none" stroke="#63b8ff" d="M250.64,-426.11C268.45,-421.04 294.2,-413.71 316.82,-407.27"/>
<polygon fill="#63b8ff" stroke="#63b8ff" points="317.5,-410.71 326.16,-404.61 315.59,-403.98 317.5,-410.71"/>
</a>
</g>
</g>
<!-- Node21&#45;&gt;Node13 -->
<g id="edge33_Node000021_Node000013" class="edge">
<title>Node21&#45;&gt;Node13</title>
<g id="a_edge33_Node000021_Node000013"><a xlink:title=" ">
<path fill="none" stroke="#63b8ff" d="M232.25,-443C241.77,-469.01 270.27,-535.66 320,-561.38 356.81,-580.41 374.55,-576.21 413.25,-561.38 440.89,-550.78 465.03,-525.97 479.66,-508.21"/>
<polygon fill="#63b8ff" stroke="#63b8ff" points="482.39,-510.41 485.84,-500.4 476.89,-506.07 482.39,-510.41"/>
</a>
</g>
</g>
<!-- Node21&#45;&gt;Node14 -->
<g id="edge34_Node000021_Node000014" class="edge">
<title>Node21&#45;&gt;Node14</title>
<g id="a_edge34_Node000021_Node000014"><a xlink:title=" ">
<path fill="none" stroke="#63b8ff" d="M240.65,-443.05C272.76,-470.27 361.58,-536.92 413.25,-490.38 470.36,-438.93 404,-208.51 449.25,-146.38 450.13,-145.16 451.1,-144.03 452.15,-142.96"/>
<polygon fill="#63b8ff" stroke="#63b8ff" points="454.26,-145.75 460.12,-136.92 450.03,-140.17 454.26,-145.75"/>
</a>
</g>
</g>
<!-- Node21&#45;&gt;Node15 -->
<g id="edge35_Node000021_Node000015" class="edge">
<title>Node21&#45;&gt;Node15</title>
<g id="a_edge35_Node000021_Node000015"><a xlink:title=" ">
<path fill="none" stroke="#63b8ff" d="M250.64,-432.38C271.53,-432.38 303.35,-432.38 328.23,-432.38"/>
<polygon fill="#63b8ff" stroke="#63b8ff" points="327.94,-435.88 337.94,-432.38 327.94,-428.88 327.94,-435.88"/>
</a>
</g>
</g>
<!-- Node21&#45;&gt;Node16 -->
<g id="edge36_Node000021_Node000016" class="edge">
<title>Node21&#45;&gt;Node16</title>
<g id="a_edge36_Node000021_Node000016"><a xlink:title=" ">
<path fill="none" stroke="#63b8ff" d="M234.17,-421.54C254.82,-381.13 327.57,-238.81 355.03,-185.1"/>
<polygon fill="#63b8ff" stroke="#63b8ff" points="358.04,-186.9 359.48,-176.4 351.81,-183.71 358.04,-186.9"/>
</a>
</g>
</g>
<!-- Node21&#45;&gt;Node18 -->
<g id="edge37_Node000021_Node000018" class="edge">
<title>Node21&#45;&gt;Node18</title>
<g id="a_edge37_Node000021_Node000018"><a xlink:title=" ">
<path fill="none" stroke="#63b8ff" d="M238.04,-421.79C260.92,-396.07 319.67,-330.03 348.78,-297.32"/>
<polygon fill="#63b8ff" stroke="#63b8ff" points="351.1,-299.96 355.14,-290.16 345.87,-295.31 351.1,-299.96"/>
</a>
</g>
</g>
</g>
</svg>
