<?xml version="1.0" encoding="UTF-8" standalone="no"?>
<!DOCTYPE svg PUBLIC "-//W3C//DTD SVG 1.1//EN"
 "http://www.w3.org/Graphics/SVG/1.1/DTD/svg11.dtd">
<!-- Generated by graphviz version 14.1.2 (0)
 -->
<!-- Title: src/test/rbox.c Pages: 1 -->
<svg width="134pt" height="86pt"
 viewBox="0.00 0.00 134.00 86.00" xmlns="http://www.w3.org/2000/svg" xmlns:xlink="http://www.w3.org/1999/xlink">
<g id="graph0" class="graph" transform="scale(1 1) rotate(0) translate(4 81.5)">
<title>src/test/rbox.c</title>
<!-- Node1 -->
<g id="Node000001" class="node">
<title>Node1</title>
<g id="a_Node000001"><a xlink:title="Display box with rounded corners.">
<polygon fill="#999999" stroke="#666666" points="105.62,-77.5 20.62,-77.5 20.62,-56.75 105.62,-56.75 105.62,-77.5"/>
<text xml:space="preserve" text-anchor="middle" x="63.12" y="-64" font-family="Helvetica,sans-Serif" font-size="10.00">src/test/rbox.c</text>
</a>
</g>
</g>
<!-- Node2 -->
<g id="Node000002" class="node">
<title>Node2</title>
<g id="a_Node000002"><a xlink:title=" ">
<polygon fill="#e0e0e0" stroke="#999999" points="54.25,-20.75 0,-20.75 0,0 54.25,0 54.25,-20.75"/>
<text xml:space="preserve" text-anchor="middle" x="27.12" y="-7.25" font-family="Helvetica,sans-Serif" font-size="10.00">wchar.h</text>
</a>
</g>
</g>
<!-- Node1&#45;&gt;Node2 -->
<g id="edge1_Node000001_Node000002" class="edge">
<title>Node1&#45;&gt;Node2</title>
<g id="a_edge1_Node000001_Node000002"><a xlink:title=" ">
<path fill="none" stroke="#63b8ff" d="M56.69,-56.34C51.98,-49.17 45.44,-39.23 39.71,-30.51"/>
<polygon fill="#63b8ff" stroke="#63b8ff" points="42.76,-28.78 34.34,-22.34 36.91,-32.62 42.76,-28.78"/>
</a>
</g>
</g>
<!-- Node3 -->
<g id="Node000003" class="node">
<title>Node3</title>
<g id="a_Node000003"><a xlink:title=" ">
<polygon fill="#e0e0e0" stroke="#999999" points="126.25,-20.75 72,-20.75 72,0 126.25,0 126.25,-20.75"/>
<text xml:space="preserve" text-anchor="middle" x="99.12" y="-7.25" font-family="Helvetica,sans-Serif" font-size="10.00">locale.h</text>
</a>
</g>
</g>
<!-- Node1&#45;&gt;Node3 -->
<g id="edge2_Node000001_Node000003" class="edge">
<title>Node1&#45;&gt;Node3</title>
<g id="a_edge2_Node000001_Node000003"><a xlink:title=" ">
<path fill="none" stroke="#63b8ff" d="M69.56,-56.34C74.27,-49.17 80.81,-39.23 86.54,-30.51"/>
<polygon fill="#63b8ff" stroke="#63b8ff" points="89.34,-32.62 91.91,-22.34 83.49,-28.78 89.34,-32.62"/>
</a>
</g>
</g>
</g>
</svg>
