<?xml version="1.0" encoding="UTF-8" standalone="no"?>
<!DOCTYPE svg PUBLIC "-//W3C//DTD SVG 1.1//EN"
 "http://www.w3.org/Graphics/SVG/1.1/DTD/svg11.dtd">
<!-- Generated by graphviz version 14.1.2 (0)
 -->
<!-- Title: iloan.c Pages: 1 -->
<svg width="491pt" height="86pt"
 viewBox="0.00 0.00 491.00 86.00" xmlns="http://www.w3.org/2000/svg" xmlns:xlink="http://www.w3.org/1999/xlink">
<g id="graph0" class="graph" transform="scale(1 1) rotate(0) translate(4 81.5)">
<title>iloan.c</title>
<!-- Node1 -->
<g id="Node000001" class="node">
<title>Node1</title>
<g id="a_Node000001"><a xlink:title="Installment Loan Calculator.">
<polygon fill="#999999" stroke="#666666" points="268.38,-77.5 220.12,-77.5 220.12,-56.75 268.38,-56.75 268.38,-77.5"/>
<text xml:space="preserve" text-anchor="middle" x="244.25" y="-64" font-family="Helvetica,sans-Serif" font-size="10.00">iloan.c</text>
</a>
</g>
</g>
<!-- Node2 -->
<g id="Node000002" class="node">
<title>Node2</title>
<g id="a_Node000002"><a xlink:title=" ">
<polygon fill="#e0e0e0" stroke="#999999" points="50.5,-20.75 0,-20.75 0,0 50.5,0 50.5,-20.75"/>
<text xml:space="preserve" text-anchor="middle" x="25.25" y="-7.25" font-family="Helvetica,sans-Serif" font-size="10.00">math.h</text>
</a>
</g>
</g>
<!-- Node1&#45;&gt;Node2 -->
<g id="edge1_Node000001_Node000002" class="edge">
<title>Node1&#45;&gt;Node2</title>
<g id="a_edge1_Node000001_Node000002"><a xlink:title=" ">
<path fill="none" stroke="#63b8ff" d="M219.66,-60.33C186.1,-52.37 123.83,-37.42 61.64,-21.32"/>
<polygon fill="#63b8ff" stroke="#63b8ff" points="62.87,-18.03 52.31,-18.9 61.11,-24.8 62.87,-18.03"/>
</a>
</g>
</g>
<!-- Node3 -->
<g id="Node000003" class="node">
<title>Node3</title>
<g id="a_Node000003"><a xlink:title=" ">
<polygon fill="#e0e0e0" stroke="#999999" points="122.38,-20.75 68.12,-20.75 68.12,0 122.38,0 122.38,-20.75"/>
<text xml:space="preserve" text-anchor="middle" x="95.25" y="-7.25" font-family="Helvetica,sans-Serif" font-size="10.00">signal.h</text>
</a>
</g>
</g>
<!-- Node1&#45;&gt;Node3 -->
<g id="edge2_Node000001_Node000003" class="edge">
<title>Node1&#45;&gt;Node3</title>
<g id="a_edge2_Node000001_Node000003"><a xlink:title=" ">
<path fill="none" stroke="#63b8ff" d="M219.65,-57.08C195.96,-48.38 159.83,-35.1 132.6,-25.1"/>
<polygon fill="#63b8ff" stroke="#63b8ff" points="133.92,-21.86 123.32,-21.69 131.5,-28.43 133.92,-21.86"/>
</a>
</g>
</g>
<!-- Node4 -->
<g id="Node000004" class="node">
<title>Node4</title>
<g id="a_Node000004"><a xlink:title=" ">
<polygon fill="#e0e0e0" stroke="#999999" points="201.75,-20.75 140.75,-20.75 140.75,0 201.75,0 201.75,-20.75"/>
<text xml:space="preserve" text-anchor="middle" x="171.25" y="-7.25" font-family="Helvetica,sans-Serif" font-size="10.00">stdbool.h</text>
</a>
</g>
</g>
<!-- Node1&#45;&gt;Node4 -->
<g id="edge3_Node000001_Node000004" class="edge">
<title>Node1&#45;&gt;Node4</title>
<g id="a_edge3_Node000001_Node000004"><a xlink:title=" ">
<path fill="none" stroke="#63b8ff" d="M231.2,-56.34C220.61,-48.4 205.46,-37.03 193.03,-27.71"/>
<polygon fill="#63b8ff" stroke="#63b8ff" points="195.5,-25.19 185.4,-21.99 191.3,-30.79 195.5,-25.19"/>
</a>
</g>
</g>
<!-- Node5 -->
<g id="Node000005" class="node">
<title>Node5</title>
<g id="a_Node000005"><a xlink:title=" ">
<polygon fill="#e0e0e0" stroke="#999999" points="268.75,-20.75 219.75,-20.75 219.75,0 268.75,0 268.75,-20.75"/>
<text xml:space="preserve" text-anchor="middle" x="244.25" y="-7.25" font-family="Helvetica,sans-Serif" font-size="10.00">stdio.h</text>
</a>
</g>
</g>
<!-- Node1&#45;&gt;Node5 -->
<g id="edge4_Node000001_Node000005" class="edge">
<title>Node1&#45;&gt;Node5</title>
<g id="a_edge4_Node000001_Node000005"><a xlink:title=" ">
<path fill="none" stroke="#63b8ff" d="M244.25,-56.34C244.25,-49.72 244.25,-40.72 244.25,-32.52"/>
<polygon fill="#63b8ff" stroke="#63b8ff" points="247.75,-32.59 244.25,-22.59 240.75,-32.59 247.75,-32.59"/>
</a>
</g>
</g>
<!-- Node6 -->
<g id="Node000006" class="node">
<title>Node6</title>
<g id="a_Node000006"><a xlink:title=" ">
<polygon fill="#e0e0e0" stroke="#999999" points="339.25,-20.75 287.25,-20.75 287.25,0 339.25,0 339.25,-20.75"/>
<text xml:space="preserve" text-anchor="middle" x="313.25" y="-7.25" font-family="Helvetica,sans-Serif" font-size="10.00">stdlib.h</text>
</a>
</g>
</g>
<!-- Node1&#45;&gt;Node6 -->
<g id="edge5_Node000001_Node000006" class="edge">
<title>Node1&#45;&gt;Node6</title>
<g id="a_edge5_Node000001_Node000006"><a xlink:title=" ">
<path fill="none" stroke="#63b8ff" d="M256.59,-56.34C266.5,-48.47 280.64,-37.25 292.31,-27.99"/>
<polygon fill="#63b8ff" stroke="#63b8ff" points="294.18,-30.98 299.84,-22.02 289.83,-25.49 294.18,-30.98"/>
</a>
</g>
</g>
<!-- Node7 -->
<g id="Node000007" class="node">
<title>Node7</title>
<g id="a_Node000007"><a xlink:title=" ">
<polygon fill="#e0e0e0" stroke="#999999" points="409.62,-20.75 356.88,-20.75 356.88,0 409.62,0 409.62,-20.75"/>
<text xml:space="preserve" text-anchor="middle" x="383.25" y="-7.25" font-family="Helvetica,sans-Serif" font-size="10.00">string.h</text>
</a>
</g>
</g>
<!-- Node1&#45;&gt;Node7 -->
<g id="edge6_Node000001_Node000007" class="edge">
<title>Node1&#45;&gt;Node7</title>
<g id="a_edge6_Node000001_Node000007"><a xlink:title=" ">
<path fill="none" stroke="#63b8ff" d="M268.78,-56.46C290.78,-47.8 323.31,-34.99 348.07,-25.23"/>
<polygon fill="#63b8ff" stroke="#63b8ff" points="349.07,-28.6 357.09,-21.68 346.5,-22.09 349.07,-28.6"/>
</a>
</g>
</g>
<!-- Node8 -->
<g id="Node000008" class="node">
<title>Node8</title>
<g id="a_Node000008"><a xlink:title=" ">
<polygon fill="#e0e0e0" stroke="#999999" points="482.75,-20.75 427.75,-20.75 427.75,0 482.75,0 482.75,-20.75"/>
<text xml:space="preserve" text-anchor="middle" x="455.25" y="-7.25" font-family="Helvetica,sans-Serif" font-size="10.00">unistd.h</text>
</a>
</g>
</g>
<!-- Node1&#45;&gt;Node8 -->
<g id="edge7_Node000001_Node000008" class="edge">
<title>Node1&#45;&gt;Node8</title>
<g id="a_edge7_Node000001_Node000008"><a xlink:title=" ">
<path fill="none" stroke="#63b8ff" d="M268.87,-59.74C305.19,-50.31 373.49,-32.59 416.55,-21.42"/>
<polygon fill="#63b8ff" stroke="#63b8ff" points="417.19,-24.87 425.99,-18.97 415.43,-18.09 417.19,-24.87"/>
</a>
</g>
</g>
</g>
</svg>
