<?xml version="1.0" encoding="UTF-8" standalone="no"?>
<!DOCTYPE svg PUBLIC "-//W3C//DTD SVG 1.1//EN"
 "http://www.w3.org/Graphics/SVG/1.1/DTD/svg11.dtd">
<!-- Generated by graphviz version 14.1.2 (0)
 -->
<!-- Title: whence.c Pages: 1 -->
<svg width="1035pt" height="142pt"
 viewBox="0.00 0.00 1035.00 142.00" xmlns="http://www.w3.org/2000/svg" xmlns:xlink="http://www.w3.org/1999/xlink">
<g id="graph0" class="graph" transform="scale(1 1) rotate(0) translate(4 138.25)">
<title>whence.c</title>
<!-- Node1 -->
<g id="Node000001" class="node">
<title>Node1</title>
<g id="a_Node000001"><a xlink:title="Find the full path of a file in the directories specified by the.">
<polygon fill="#999999" stroke="#666666" points="608.38,-134.25 546.62,-134.25 546.62,-113.5 608.38,-113.5 608.38,-134.25"/>
<text xml:space="preserve" text-anchor="middle" x="577.5" y="-120.75" font-family="Helvetica,sans-Serif" font-size="10.00">whence.c</text>
</a>
</g>
</g>
<!-- Node2 -->
<g id="Node000002" class="node">
<title>Node2</title>
<g id="a_Node000002"><a xlink:href="../../d8/d23/a00326.html" target="_top" xlink:title="Headder for C&#45;Menu API library, libcm.so.">
<polygon fill="white" stroke="#666666" points="268.5,-77.5 228.5,-77.5 228.5,-56.75 268.5,-56.75 268.5,-77.5"/>
<text xml:space="preserve" text-anchor="middle" x="248.5" y="-64" font-family="Helvetica,sans-Serif" font-size="10.00">cm.h</text>
</a>
</g>
</g>
<!-- Node1&#45;&gt;Node2 -->
<g id="edge1_Node000001_Node000002" class="edge">
<title>Node1&#45;&gt;Node2</title>
<g id="a_edge1_Node000001_Node000002"><a xlink:title=" ">
<path fill="none" stroke="#63b8ff" d="M546.44,-118.33C494.27,-110.6 385.8,-94.12 294.5,-77.5 289.72,-76.63 284.67,-75.66 279.74,-74.68"/>
<polygon fill="#63b8ff" stroke="#63b8ff" points="280.6,-71.28 270.1,-72.72 279.2,-78.14 280.6,-71.28"/>
</a>
</g>
</g>
<!-- Node6 -->
<g id="Node000006" class="node">
<title>Node6</title>
<g id="a_Node000006"><a xlink:title=" ">
<polygon fill="#e0e0e0" stroke="#999999" points="336,-20.75 281,-20.75 281,0 336,0 336,-20.75"/>
<text xml:space="preserve" text-anchor="middle" x="308.5" y="-7.25" font-family="Helvetica,sans-Serif" font-size="10.00">stddef.h</text>
</a>
</g>
</g>
<!-- Node1&#45;&gt;Node6 -->
<g id="edge11_Node000001_Node000006" class="edge">
<title>Node1&#45;&gt;Node6</title>
<g id="a_edge11_Node000001_Node000006"><a xlink:title=" ">
<path fill="none" stroke="#63b8ff" d="M546.49,-123.47C500.96,-122.91 415,-116.25 355.5,-77.5 338.22,-66.24 325.32,-46.22 317.46,-31.15"/>
<polygon fill="#63b8ff" stroke="#63b8ff" points="320.82,-30.06 313.29,-22.61 314.53,-33.13 320.82,-30.06"/>
</a>
</g>
</g>
<!-- Node7 -->
<g id="Node000007" class="node">
<title>Node7</title>
<g id="a_Node000007"><a xlink:title=" ">
<polygon fill="#e0e0e0" stroke="#999999" points="406.5,-20.75 354.5,-20.75 354.5,0 406.5,0 406.5,-20.75"/>
<text xml:space="preserve" text-anchor="middle" x="380.5" y="-7.25" font-family="Helvetica,sans-Serif" font-size="10.00">stdlib.h</text>
</a>
</g>
</g>
<!-- Node1&#45;&gt;Node7 -->
<g id="edge13_Node000001_Node000007" class="edge">
<title>Node1&#45;&gt;Node7</title>
<g id="a_edge13_Node000001_Node000007"><a xlink:title=" ">
<path fill="none" stroke="#63b8ff" d="M546.13,-120.86C492.76,-116.71 387.86,-105.16 365.5,-77.5 354.88,-64.37 360.87,-45.19 368.19,-30.87"/>
<polygon fill="#63b8ff" stroke="#63b8ff" points="371.13,-32.78 373.05,-22.36 365.05,-29.31 371.13,-32.78"/>
</a>
</g>
</g>
<!-- Node8 -->
<g id="Node000008" class="node">
<title>Node8</title>
<g id="a_Node000008"><a xlink:title=" ">
<polygon fill="#e0e0e0" stroke="#999999" points="420.88,-77.5 374.12,-77.5 374.12,-56.75 420.88,-56.75 420.88,-77.5"/>
<text xml:space="preserve" text-anchor="middle" x="397.5" y="-64" font-family="Helvetica,sans-Serif" font-size="10.00">fcntl.h</text>
</a>
</g>
</g>
<!-- Node1&#45;&gt;Node8 -->
<g id="edge7_Node000001_Node000008" class="edge">
<title>Node1&#45;&gt;Node8</title>
<g id="a_edge7_Node000001_Node000008"><a xlink:title=" ">
<path fill="none" stroke="#63b8ff" d="M546.15,-113.34C514.34,-103.66 465.23,-88.73 432.25,-78.7"/>
<polygon fill="#63b8ff" stroke="#63b8ff" points="433.35,-75.37 422.76,-75.81 431.31,-82.07 433.35,-75.37"/>
</a>
</g>
</g>
<!-- Node9 -->
<g id="Node000009" class="node">
<title>Node9</title>
<g id="a_Node000009"><a xlink:title=" ">
<polygon fill="#e0e0e0" stroke="#999999" points="495.75,-77.5 439.25,-77.5 439.25,-56.75 495.75,-56.75 495.75,-77.5"/>
<text xml:space="preserve" text-anchor="middle" x="467.5" y="-64" font-family="Helvetica,sans-Serif" font-size="10.00">getopt.h</text>
</a>
</g>
</g>
<!-- Node1&#45;&gt;Node9 -->
<g id="edge8_Node000001_Node000009" class="edge">
<title>Node1&#45;&gt;Node9</title>
<g id="a_edge8_Node000001_Node000009"><a xlink:title=" ">
<path fill="none" stroke="#63b8ff" d="M557.83,-113.09C540.94,-104.68 516.33,-92.43 497.07,-82.84"/>
<polygon fill="#63b8ff" stroke="#63b8ff" points="498.86,-79.83 488.35,-78.5 495.74,-86.09 498.86,-79.83"/>
</a>
</g>
</g>
<!-- Node10 -->
<g id="Node000010" class="node">
<title>Node10</title>
<g id="a_Node000010"><a xlink:title=" ">
<polygon fill="#e0e0e0" stroke="#999999" points="566.88,-77.5 514.12,-77.5 514.12,-56.75 566.88,-56.75 566.88,-77.5"/>
<text xml:space="preserve" text-anchor="middle" x="540.5" y="-64" font-family="Helvetica,sans-Serif" font-size="10.00">limits.h</text>
</a>
</g>
</g>
<!-- Node1&#45;&gt;Node10 -->
<g id="edge9_Node000001_Node000010" class="edge">
<title>Node1&#45;&gt;Node10</title>
<g id="a_edge9_Node000001_Node000010"><a xlink:title=" ">
<path fill="none" stroke="#63b8ff" d="M570.89,-113.09C566.04,-105.92 559.32,-95.98 553.43,-87.26"/>
<polygon fill="#63b8ff" stroke="#63b8ff" points="556.4,-85.41 547.91,-79.08 550.6,-89.33 556.4,-85.41"/>
</a>
</g>
</g>
<!-- Node11 -->
<g id="Node000011" class="node">
<title>Node11</title>
<g id="a_Node000011"><a xlink:title=" ">
<polygon fill="#e0e0e0" stroke="#999999" points="646,-77.5 585,-77.5 585,-56.75 646,-56.75 646,-77.5"/>
<text xml:space="preserve" text-anchor="middle" x="615.5" y="-64" font-family="Helvetica,sans-Serif" font-size="10.00">stdbool.h</text>
</a>
</g>
</g>
<!-- Node1&#45;&gt;Node11 -->
<g id="edge10_Node000001_Node000011" class="edge">
<title>Node1&#45;&gt;Node11</title>
<g id="a_edge10_Node000001_Node000011"><a xlink:title=" ">
<path fill="none" stroke="#63b8ff" d="M584.29,-113.09C589.27,-105.92 596.17,-95.98 602.22,-87.26"/>
<polygon fill="#63b8ff" stroke="#63b8ff" points="605.08,-89.28 607.9,-79.07 599.32,-85.29 605.08,-89.28"/>
</a>
</g>
</g>
<!-- Node12 -->
<g id="Node000012" class="node">
<title>Node12</title>
<g id="a_Node000012"><a xlink:title=" ">
<polygon fill="#e0e0e0" stroke="#999999" points="713,-77.5 664,-77.5 664,-56.75 713,-56.75 713,-77.5"/>
<text xml:space="preserve" text-anchor="middle" x="688.5" y="-64" font-family="Helvetica,sans-Serif" font-size="10.00">stdio.h</text>
</a>
</g>
</g>
<!-- Node1&#45;&gt;Node12 -->
<g id="edge12_Node000001_Node000012" class="edge">
<title>Node1&#45;&gt;Node12</title>
<g id="a_edge12_Node000001_Node000012"><a xlink:title=" ">
<path fill="none" stroke="#63b8ff" d="M597.34,-113.09C614.39,-104.68 639.22,-92.43 658.66,-82.84"/>
<polygon fill="#63b8ff" stroke="#63b8ff" points="660.05,-86.06 667.47,-78.5 656.95,-79.78 660.05,-86.06"/>
</a>
</g>
</g>
<!-- Node13 -->
<g id="Node000013" class="node">
<title>Node13</title>
<g id="a_Node000013"><a xlink:title=" ">
<polygon fill="#e0e0e0" stroke="#999999" points="783.88,-77.5 731.12,-77.5 731.12,-56.75 783.88,-56.75 783.88,-77.5"/>
<text xml:space="preserve" text-anchor="middle" x="757.5" y="-64" font-family="Helvetica,sans-Serif" font-size="10.00">string.h</text>
</a>
</g>
</g>
<!-- Node1&#45;&gt;Node13 -->
<g id="edge14_Node000001_Node000013" class="edge">
<title>Node1&#45;&gt;Node13</title>
<g id="a_edge14_Node000001_Node000013"><a xlink:title=" ">
<path fill="none" stroke="#63b8ff" d="M608.85,-113.34C639.76,-103.94 687,-89.57 719.91,-79.56"/>
<polygon fill="#63b8ff" stroke="#63b8ff" points="720.9,-82.92 729.45,-76.66 718.86,-76.22 720.9,-82.92"/>
</a>
</g>
</g>
<!-- Node14 -->
<g id="Node000014" class="node">
<title>Node14</title>
<g id="a_Node000014"><a xlink:title=" ">
<polygon fill="#e0e0e0" stroke="#999999" points="865.12,-77.5 801.88,-77.5 801.88,-56.75 865.12,-56.75 865.12,-77.5"/>
<text xml:space="preserve" text-anchor="middle" x="833.5" y="-64" font-family="Helvetica,sans-Serif" font-size="10.00">sys/stat.h</text>
</a>
</g>
</g>
<!-- Node1&#45;&gt;Node14 -->
<g id="edge15_Node000001_Node000014" class="edge">
<title>Node1&#45;&gt;Node14</title>
<g id="a_edge15_Node000001_Node000014"><a xlink:title=" ">
<path fill="none" stroke="#63b8ff" d="M608.87,-116.43C648.72,-108.2 719.91,-93.37 790.81,-77.84"/>
<polygon fill="#63b8ff" stroke="#63b8ff" points="791.23,-81.33 800.25,-75.77 789.73,-74.5 791.23,-81.33"/>
</a>
</g>
</g>
<!-- Node15 -->
<g id="Node000015" class="node">
<title>Node15</title>
<g id="a_Node000015"><a xlink:title=" ">
<polygon fill="#e0e0e0" stroke="#999999" points="954.25,-77.5 882.75,-77.5 882.75,-56.75 954.25,-56.75 954.25,-77.5"/>
<text xml:space="preserve" text-anchor="middle" x="918.5" y="-64" font-family="Helvetica,sans-Serif" font-size="10.00">sys/types.h</text>
</a>
</g>
</g>
<!-- Node1&#45;&gt;Node15 -->
<g id="edge16_Node000001_Node000015" class="edge">
<title>Node1&#45;&gt;Node15</title>
<g id="a_edge16_Node000001_Node000015"><a xlink:title=" ">
<path fill="none" stroke="#63b8ff" d="M608.81,-118.7C661.17,-111.6 770.03,-96.26 871.46,-77.98"/>
<polygon fill="#63b8ff" stroke="#63b8ff" points="871.81,-81.47 881.03,-76.24 870.56,-74.59 871.81,-81.47"/>
</a>
</g>
</g>
<!-- Node16 -->
<g id="Node000016" class="node">
<title>Node16</title>
<g id="a_Node000016"><a xlink:title=" ">
<polygon fill="#e0e0e0" stroke="#999999" points="1027,-77.5 972,-77.5 972,-56.75 1027,-56.75 1027,-77.5"/>
<text xml:space="preserve" text-anchor="middle" x="999.5" y="-64" font-family="Helvetica,sans-Serif" font-size="10.00">unistd.h</text>
</a>
</g>
</g>
<!-- Node1&#45;&gt;Node16 -->
<g id="edge17_Node000001_Node000016" class="edge">
<title>Node1&#45;&gt;Node16</title>
<g id="a_edge17_Node000001_Node000016"><a xlink:title=" ">
<path fill="none" stroke="#63b8ff" d="M608.74,-120.67C672.96,-115.83 824.59,-102.78 960.66,-77.83"/>
<polygon fill="#63b8ff" stroke="#63b8ff" points="961,-81.32 970.19,-76.05 959.72,-74.44 961,-81.32"/>
</a>
</g>
</g>
<!-- Node3 -->
<g id="Node000003" class="node">
<title>Node3</title>
<g id="a_Node000003"><a xlink:href="../../d1/d5d/a00311.html" target="_top" xlink:title=" ">
<polygon fill="white" stroke="#666666" points="61,-20.75 0,-20.75 0,0 61,0 61,-20.75"/>
<text xml:space="preserve" text-anchor="middle" x="30.5" y="-7.25" font-family="Helvetica,sans-Serif" font-size="10.00">version.h</text>
</a>
</g>
</g>
<!-- Node2&#45;&gt;Node3 -->
<g id="edge2_Node000002_Node000003" class="edge">
<title>Node2&#45;&gt;Node3</title>
<g id="a_edge2_Node000002_Node000003"><a xlink:title=" ">
<path fill="none" stroke="#63b8ff" d="M228.38,-61.07C193.03,-52.19 119.1,-33.63 72.29,-21.87"/>
<polygon fill="#63b8ff" stroke="#63b8ff" points="73.32,-18.52 62.77,-19.48 71.61,-25.31 73.32,-18.52"/>
</a>
</g>
</g>
<!-- Node4 -->
<g id="Node000004" class="node">
<title>Node4</title>
<g id="a_Node000004"><a xlink:title=" ">
<polygon fill="#e0e0e0" stroke="#999999" points="190.12,-20.75 78.88,-20.75 78.88,0 190.12,0 190.12,-20.75"/>
<text xml:space="preserve" text-anchor="middle" x="134.5" y="-7.25" font-family="Helvetica,sans-Serif" font-size="10.00">ncursesw/ncurses.h</text>
</a>
</g>
</g>
<!-- Node2&#45;&gt;Node4 -->
<g id="edge3_Node000002_Node000004" class="edge">
<title>Node2&#45;&gt;Node4</title>
<g id="a_edge3_Node000002_Node000004"><a xlink:title=" ">
<path fill="none" stroke="#63b8ff" d="M228.12,-56.34C210.53,-47.89 184.87,-35.57 164.87,-25.96"/>
<polygon fill="#63b8ff" stroke="#63b8ff" points="166.6,-22.91 156.07,-21.73 163.57,-29.22 166.6,-22.91"/>
</a>
</g>
</g>
<!-- Node5 -->
<g id="Node000005" class="node">
<title>Node5</title>
<g id="a_Node000005"><a xlink:title=" ">
<polygon fill="#e0e0e0" stroke="#999999" points="262.62,-20.75 208.38,-20.75 208.38,0 262.62,0 262.62,-20.75"/>
<text xml:space="preserve" text-anchor="middle" x="235.5" y="-7.25" font-family="Helvetica,sans-Serif" font-size="10.00">signal.h</text>
</a>
</g>
</g>
<!-- Node2&#45;&gt;Node5 -->
<g id="edge4_Node000002_Node000005" class="edge">
<title>Node2&#45;&gt;Node5</title>
<g id="a_edge4_Node000002_Node000005"><a xlink:title=" ">
<path fill="none" stroke="#63b8ff" d="M246.18,-56.34C244.59,-49.64 242.42,-40.51 240.45,-32.23"/>
<polygon fill="#63b8ff" stroke="#63b8ff" points="243.87,-31.47 238.15,-22.55 237.06,-33.09 243.87,-31.47"/>
</a>
</g>
</g>
<!-- Node2&#45;&gt;Node6 -->
<g id="edge5_Node000002_Node000006" class="edge">
<title>Node2&#45;&gt;Node6</title>
<g id="a_edge5_Node000002_Node000006"><a xlink:title=" ">
<path fill="none" stroke="#63b8ff" d="M259.23,-56.34C267.59,-48.71 279.41,-37.92 289.38,-28.82"/>
<polygon fill="#63b8ff" stroke="#63b8ff" points="291.72,-31.42 296.75,-22.1 287,-26.25 291.72,-31.42"/>
</a>
</g>
</g>
<!-- Node2&#45;&gt;Node7 -->
<g id="edge6_Node000002_Node000007" class="edge">
<title>Node2&#45;&gt;Node7</title>
<g id="a_edge6_Node000002_Node000007"><a xlink:title=" ">
<path fill="none" stroke="#63b8ff" d="M268.84,-57.69C289.5,-49.12 321.87,-35.69 346.45,-25.5"/>
<polygon fill="#63b8ff" stroke="#63b8ff" points="347.5,-28.85 355.39,-21.79 344.82,-22.39 347.5,-28.85"/>
</a>
</g>
</g>
</g>
</svg>
